<?xml version="1.0" encoding="utf-8"?>
<!-- Generator: Adobe Illustrator 23.0.3, SVG Export Plug-In . SVG Version: 6.00 Build 0)  -->
<svg version="1.0" id="Layer_1" xmlns="http://www.w3.org/2000/svg" xmlns:xlink="http://www.w3.org/1999/xlink" x="0px" y="0px"
	 viewBox="0 0 20 20" enable-background="new 0 0 20 20" xml:space="preserve">
<g id="KNOBS">
	<g id="XMLID_12_">
		<g>
			<g id="layer1_27_" transform="translate(-168.09312,-67.39659)">
				<g>
					<circle fill="#2E89DC" cx="178.09329" cy="77.39643" r="9.75"/>
					<path fill="#0F0F0F" d="M178.09305,67.89655c5.23828,0,9.5,4.26166,9.5,9.5s-4.26172,9.5-9.5,9.5s-9.5-4.26166-9.5-9.5
						S172.85477,67.89655,178.09305,67.89655 M178.09305,67.39655c-5.52271,0-10,4.47717-10,10s4.47729,10,10,10
						c5.52295,0,10-4.47717,10-10S183.616,67.39655,178.09305,67.39655L178.09305,67.39655z"/>
				</g>
				<g>
					<path fill="#0E74AF" d="M178.09305,69.32343c4.45166,0,8.07324,3.62158,8.07324,8.07312s-3.62158,8.07312-8.07324,8.07312
						c-4.45142,0-8.073-3.62158-8.073-8.07312S173.64163,69.32343,178.09305,69.32343 M178.09305,67.82343
						c-5.28711,0-9.573,4.28601-9.573,9.57312s4.28589,9.57312,9.573,9.57312s9.57324-4.28601,9.57324-9.57312
						S183.38016,67.82343,178.09305,67.82343L178.09305,67.82343z"/>
				</g>
				<path id="path110600_30_" fill-rule="evenodd" clip-rule="evenodd" fill="#FFFFFF" d="M179.34918,67.98964
					c-0.40326-0.02272-0.81992-0.03554-1.24953-0.03554c-0.42978,0-0.84628,0.01289-1.26251,0.03554v9.45568h2.51204V67.98964z"/>
				<path id="path110600_29_" fill-rule="evenodd" clip-rule="evenodd" fill="#E5E5E5" d="M179.34918,67.82964
					c-0.40326-0.00397-0.81992-0.00621-1.24953-0.00621c-0.42978,0-0.84628,0.00225-1.26251,0.00621v1.65184h2.51204V67.82964z"/>
			</g>
		</g>
	</g>
</g>
</svg>
