<?xml version="1.0" encoding="utf-8"?>
<!-- Generator: Adobe Illustrator 23.0.3, SVG Export Plug-In . SVG Version: 6.00 Build 0)  -->
<svg version="1.0" id="Layer_1" xmlns="http://www.w3.org/2000/svg" xmlns:xlink="http://www.w3.org/1999/xlink" x="0px" y="0px"
	 viewBox="0 0 20.00001 19.98749" enable-background="new 0 0 20.00001 19.98749" xml:space="preserve">
<g id="XMLID_77_">
	<g>
		<path id="path7255_50_" fill="#2E89DC" d="M10.00001,19.99374c-5.51512,0-9.99999-4.48483-9.99999-10.00001
			c0-5.51508,4.48487-9.99999,9.99999-9.99999S20,4.47865,20,9.99374C20,15.50891,15.51513,19.99374,10.00001,19.99374"/>
		<path id="path7261_50_" fill="#808080" d="M10.00001,14.99378c-2.75732,0-4.99999-2.24272-4.99999-5.00003
			c0-2.7573,2.24268-4.99997,4.99999-4.99997s4.99998,2.24266,4.99998,4.99997c0,2.75732-2.24268,5.00003-4.99999,5.00003"/>
		<path id="path7265_50_" d="M13.50002,9.99375c0,1.93224-1.56777,3.50005-3.49999,3.50005
			c-1.93224,0-3.50001-1.56779-3.50001-3.50005c0-1.93223,1.56776-3.49995,3.50001-3.49995
			C11.93225,6.4938,13.50002,8.06152,13.50002,9.99375"/>
		<g>
			<g>
				<path fill="#0E74AF" d="M10.00001,4.99374c2.76142,0,5,2.23858,5,5s-2.23858,5-5,5s-5-2.23858-5-5
					S7.23859,4.99374,10.00001,4.99374 M10.00001,4.24374c-3.17056,0-5.75,2.57944-5.75,5.75s2.57944,5.75,5.75,5.75
					s5.75-2.57944,5.75-5.75S13.17057,4.24374,10.00001,4.24374L10.00001,4.24374z"/>
			</g>
			<g>
				<path fill="#0E74AF" d="M10.00001,0.74373c5.10047,0,9.25001,4.14954,9.25001,9.25001s-4.14954,9.25001-9.25001,9.25001
					S0.75,15.09422,0.75,9.99374S4.89954,0.74373,10.00001,0.74373 M10.00001-0.00627C4.47716-0.00627,0,4.47089,0,9.99374
					s4.47716,10.00001,10.00001,10.00001s10.00001-4.47716,10.00001-10.00001S15.52286-0.00627,10.00001-0.00627L10.00001-0.00627z"
					/>
			</g>
		</g>
	</g>
</g>
</svg>
