<?xml version="1.0" encoding="utf-8"?>
<!-- Generator: Adobe Illustrator 23.0.3, SVG Export Plug-In . SVG Version: 6.00 Build 0)  -->
<svg version="1.0" id="Layer_1" xmlns="http://www.w3.org/2000/svg" xmlns:xlink="http://www.w3.org/1999/xlink" x="0px" y="0px"
	 viewBox="0 0 20.00002 20" enable-background="new 0 0 20.00002 20" xml:space="preserve">
<g id="JACKS">
	<g id="XMLID_6_">
		<g>
			<g>
				<g id="layer1_26_" transform="translate(-88.611154,-119.19859)">
					<path id="path7255_40_" fill="#9885F9" d="M108.61116,129.19861c0,5.51512-4.48483,9.99998-10.00001,9.99998
						c-5.51508,0-9.99999-4.48486-9.99999-9.99998c0-5.51514,4.48491-10.00001,9.99999-10.00001
						C104.12633,119.1986,108.61116,123.68347,108.61116,129.19861"/>
					<path id="path7261_40_" fill="#E5E5E5" d="M103.6112,129.19861c0,2.75731-2.24271,4.99998-5.00003,4.99998
						c-2.7573,0-4.99997-2.24268-4.99997-4.99998c0-2.75732,2.24267-4.99998,4.99997-4.99998
						c2.75732,0,5.00003,2.24268,5.00003,5.00002"/>
					<path id="path7265_40_" d="M98.61117,125.69859c1.93224,0,3.50005,1.56776,3.50005,3.50001c0,1.93224-1.56779,3.5-3.50005,3.5
						c-1.93223,0-3.49995-1.56776-3.49995-3.5C95.11122,127.26635,96.67894,125.69859,98.61117,125.69859"/>
				</g>
			</g>
			<g>
				<g>
					<path fill="#796FDD" d="M10.00001,5c2.76147,0,5,2.23859,5,5s-2.23853,5-5,5s-5-2.23859-5-5S7.23853,5,10.00001,5
						 M10.00001,4.25c-3.17065,0-5.75,2.57947-5.75,5.75s2.57935,5.75,5.75,5.75s5.75-2.57947,5.75-5.75
						S13.17066,4.25,10.00001,4.25L10.00001,4.25z"/>
				</g>
				<g>
					<path fill="#796FDD" d="M10.00001,0.75c5.10059,0,9.25,4.14954,9.25,9.25s-4.14941,9.25-9.25,9.25s-9.25-4.14954-9.25-9.25
						S4.89942,0.75,10.00001,0.75 M10.00001,0c-5.52295,0-10,4.47717-10,10s4.47705,10,10,10s10-4.47717,10-10
						S15.52296,0,10.00001,0L10.00001,0z"/>
				</g>
			</g>
		</g>
	</g>
</g>
</svg>
