<?xml version="1.0" encoding="utf-8"?>
<!-- Generator: Adobe Illustrator 23.0.3, SVG Export Plug-In . SVG Version: 6.00 Build 0)  -->
<svg version="1.0" id="Layer_1" xmlns="http://www.w3.org/2000/svg" xmlns:xlink="http://www.w3.org/1999/xlink" x="0px" y="0px"
	 viewBox="0 0 20.00001 19.98749" enable-background="new 0 0 20.00001 19.98749" xml:space="preserve">
<g id="JACKS">
	<g id="XMLID_5_">
		<g>
			<path id="path7255_39_" fill="#D81E2C" d="M20,9.99998c0,5.51512-4.48483,9.99999-10.00001,9.99999
				C4.48491,19.99997,0,15.5151,0,9.99998s4.48491-9.99999,9.99999-9.99999C15.51517-0.00001,20,4.48486,20,9.99998"/>
			<path id="path7261_39_" fill="#808080" d="M15.00004,9.99998c0,2.75732-2.24272,4.99999-5.00003,4.99999
				c-2.7573,0-4.99997-2.24268-4.99997-4.99999S7.2427,5,10,5C12.75732,5,15.00003,7.24268,15.00004,9.99998"/>
			<path id="path7265_39_" d="M10,6.49997c1.93224,0,3.50005,1.56776,3.50005,3.49999c0,1.93224-1.56779,3.50001-3.50005,3.50001
				c-1.93223,0-3.49995-1.56776-3.49995-3.50001C6.50006,8.06774,8.06778,6.49997,10,6.49997"/>
			<g>
				<g>
					<path fill="#B50F30" d="M10,4.99998c2.76147,0,5,2.23859,5,5s-2.23853,5-5,5s-5-2.23859-5-5S7.23853,4.99998,10,4.99998
						 M10,3.99998c-3.30835,0-6,2.69159-6,6s2.69165,6,6,6s6-2.69159,6-6S13.30835,3.99998,10,3.99998L10,3.99998z"/>
				</g>
				<g>
					<path fill="#B50F30" d="M10,0.99998c4.96265,0,9,4.03735,9,9s-4.03735,9-9,9s-9-4.03735-9-9S5.03735,0.99998,10,0.99998
						 M10-0.00002c-5.52295,0-10,4.47717-10,10s4.47705,10,10,10s10-4.47717,10-10S15.52295-0.00002,10-0.00002L10-0.00002z"/>
				</g>
			</g>
		</g>
	</g>
</g>
</svg>
