<?xml version="1.0" encoding="utf-8"?>
<!-- Generator: Adobe Illustrator 23.0.3, SVG Export Plug-In . SVG Version: 6.00 Build 0)  -->
<svg version="1.0" id="Layer_1" xmlns="http://www.w3.org/2000/svg" xmlns:xlink="http://www.w3.org/1999/xlink" x="0px" y="0px"
	 viewBox="0 0 20.00002 20.00001" enable-background="new 0 0 20.00002 20.00001" xml:space="preserve">
<g id="JACKS">
	<g>
		<g>
			<path id="path7255_37_" fill="#FC5B35" d="M10,20c-5.51512,0-9.99999-4.48483-9.99999-10.00001C0.00001,4.48491,4.48488,0,10,0
				s9.99999,4.48491,9.99999,9.99999C19.99999,15.51517,15.51512,20,10,20"/>
			<path id="path7261_37_" fill="#E5E5E5" d="M10,15.00004c-2.75732,0-5-2.24272-5-5.00004c0-2.7573,2.24268-4.99996,5-4.99996
				s4.99998,2.24266,4.99998,4.99997C14.99998,12.75733,12.7573,15.00004,10,15.00004"/>
			<path id="path7265_37_" d="M13.50001,10c0,1.93224-1.56777,3.50005-3.49999,3.50005c-1.93224,0-3.50001-1.56779-3.50001-3.50005
				c0-1.93223,1.56777-3.49995,3.50001-3.49995C11.93224,6.50006,13.50001,8.06778,13.50001,10"/>
			<g>
				<g>
					<path fill="#E8401F" d="M10.00001,5c2.76147,0,5,2.23859,5,5s-2.23853,5-5,5s-5-2.23859-5-5S7.23853,5,10.00001,5
						 M10.00001,4.25c-3.17065,0-5.75,2.57947-5.75,5.75s2.57935,5.75,5.75,5.75s5.75-2.57947,5.75-5.75
						S13.17066,4.25,10.00001,4.25L10.00001,4.25z"/>
				</g>
				<g>
					<path fill="#E8401F" d="M10.00001,0.75c5.10059,0,9.25,4.14954,9.25,9.25s-4.14941,9.25-9.25,9.25s-9.25-4.14954-9.25-9.25
						S4.89942,0.75,10.00001,0.75 M10.00001,0c-5.52295,0-10,4.47717-10,10s4.47705,10,10,10s10-4.47717,10-10
						S15.52296,0,10.00001,0L10.00001,0z"/>
				</g>
			</g>
		</g>
	</g>
</g>
</svg>
