<?xml version="1.0" encoding="utf-8"?>
<!-- Generator: Adobe Illustrator 23.0.3, SVG Export Plug-In . SVG Version: 6.00 Build 0)  -->
<svg version="1.0" id="Layer_1" xmlns="http://www.w3.org/2000/svg" xmlns:xlink="http://www.w3.org/1999/xlink" x="0px" y="0px"
	 viewBox="0 0 40 40" enable-background="new 0 0 40 40" xml:space="preserve">
<g>
	<circle fill="#D81E2C" cx="20" cy="20.00011" r="19.75"/>
	<path fill="#0F0F0F" d="M20,0.5c10.75234,0,19.5,8.74766,19.5,19.5S30.75234,39.5,20,39.5S0.5,30.75234,0.5,20S9.24766,0.5,20,0.5
		 M20,0C8.9543,0,0,8.9543,0,20c0,11.04569,8.9543,20,20,20s20-8.95431,20-20C40,8.9543,31.04569,0,20,0L20,0z"/>
</g>
<circle fill="#B50F30" cx="20" cy="20" r="13"/>
<circle fill="#D81E2C" cx="20" cy="20" r="10.5"/>
<circle fill="#FFFFFF" cx="20" cy="20" r="8"/>
<polygon fill="#FFFFFF" points="20,1.43205 18.57092,5.91796 21.42908,5.91796 "/>
</svg>
