<svg xmlns="http://www.w3.org/2000/svg" width="12.78" height="21.21" viewBox="0 0 12.78 21.21">
  <title>XFXWaveSwitch1</title>
  <g id="Layer_2" data-name="Layer 2">
    <g id="svg8">
      <g>
        <path d="M1.71.32h9.35a1.39,1.39,0,0,1,1.39,1.39V19.5a1.39,1.39,0,0,1-1.39,1.39H1.71A1.39,1.39,0,0,1,.32,19.5V1.72A1.4,1.4,0,0,1,1.71.32Z" style="fill: none;stroke: #f4f4e6;stroke-miterlimit: 10;stroke-width: 0.649999976158142px"/>
        <path d="M1.56,1.09h9.65a.56.56,0,0,1,.56.56V19.56a.56.56,0,0,1-.56.56H1.56A.56.56,0,0,1,1,19.56V1.64A.56.56,0,0,1,1.56,1.09Z" style="fill: #414042"/>
        <rect x="1" y="7.52" width="10.76" height="1.34" style="fill: #00aab7"/>
        <path d="M1,9.13V10a.39.39,0,0,0,.39.38h10a.38.38,0,0,0,.38-.38V9.13Z" style="fill: #00aab7"/>
        <path d="M11.38,1.11h-10A.39.39,0,0,0,1,1.49v.86H11.76V1.51a.38.38,0,0,0-.38-.4Z" style="fill: #00aab7"/>
        <rect x="1" y="2.65" width="10.76" height="1.34" style="fill: #00aab7"/>
        <rect x="1" y="5.89" width="10.76" height="1.34" style="fill: #00aab7"/>
        <rect x="1" y="4.27" width="10.76" height="1.34" style="fill: #00aab7"/>
      </g>
    </g>
  </g>
</svg>
