<svg xmlns="http://www.w3.org/2000/svg" viewBox="0 0 390 380"><title>XFXWavePanel</title><rect width="390" height="380" style="fill:#202020"/><path d="M152.64,351.66a1,1,0,0,0-.3-.09l.3.1Z" style="fill:#f22020"/><path d="M152.52,351.66l.32.11-.13-.07a2.58,2.58,0,0,1,.39.14A3.22,3.22,0,0,1,152.52,351.66Z" style="fill:#f22020"/><path d="M152.79,351.83l.25.11A.62.62,0,0,0,152.79,351.83Z" style="fill:#f22020"/><path d="M151.47,351.88s.05.06.09.11A.24.24,0,0,0,151.47,351.88Z" style="fill:#f22020"/><path d="M153.61,353.87c-.09-.13,0-.11,0-.15l.19.19c0-.11-.13-.17-.22-.31.13.11.12-.09.13-.11a1.54,1.54,0,0,1,.17.19c0-.11-.23-.29-.18-.33l0,0a.68.68,0,0,1-.09-.42.43.43,0,0,0,0-.35l-.12-.06c0-.18,0-.35-.56-.64,0,0-.07,0-.12.05s0,0,.15.17c-.18-.07.06.11-.19,0-.08,0,0,.07.09.15s.15.19.13.23-.15-.11-.27-.17v-.15h-.24c-.11-.09,0,0-.21-.18.13.1.12.12.13.15s0,.07.13.2,0,0,.06-.06l.24.14a.32.32,0,0,1,.13.27s-.06.07-.06.13,0,.06-.13,0l-.14-.15c.06.11.33.35.27.33l-.3-.33c.32.36-.11,0,.09.2a.64.64,0,0,1-.19-.25c-.08,0,.11.16.09.16l-.25-.31c.25.3-.07,0-.15-.12.06.07.27.29.23.29s-.11-.11-.14-.13.17.2.15.22a2.48,2.48,0,0,1-.19-.26l-.08,0c.06.1.13.13.2.27a6.33,6.33,0,0,1-.47-.56c-.11-.16-.12-.21-.19-.3l0,.11a2.16,2.16,0,0,1-.27-.33c-.12-.1,0,.08,0,.18l.13.14c0,.09-.09-.07-.14-.15.05.1.21.29.33.46a2.65,2.65,0,0,1-.29-.29l.15.2c-.14-.15.11.16,0,.06s-.07-.13-.12-.19c0,.09-.13-.17-.11-.09l-.19-.19s0,.11-.12-.11c.17.26.07.2.13.35l-.12-.19c.13.23-.06,0,.12.3l0-.09.15.27-.17-.21c.06.09,0,.11-.09,0,.17.27.2.34.2.4-.21-.09-.15.24-.05.6a1.88,1.88,0,0,0,.24.44c.07.05,0-.09,0-.1s.25.3.4.45l-.16-.2c-.11-.19.11.11,0-.13l.24.34c-.13-.18,0-.06.07,0l-.17-.27a3.68,3.68,0,0,1,.31.38l-.16-.2c.12.12,0-.08.28.32,0,0-.11-.15-.09-.14l.16.21c0-.07-.05-.12,0,0a.84.84,0,0,1,.15.26c.09,0-.49-.73-.45-.73l.11.13-.11-.15.13.15c-.32-.48.11,0-.05-.29,0,0,.19.23.19.17l-.13-.2c.26.26.5.53.73.81-.12-.17,0,0-.16-.2s.12.09.23.2c-.05-.13-.09-.08-.18-.25.13.14-.17-.29,0-.17s0,.11.12.17c-.13-.24,0-.13,0-.22a4.81,4.81,0,0,0,.53.2l-.07-.09c.18.15.09-.06.19,0Z" style="fill:#00aab7"/><path d="M152.09,351.88l-.18-.12.06,0a.08.08,0,0,0,.05.05C152.16,351.88,152,351.83,152.09,351.88Z" style="fill:#f22020"/><polygon points="152.63 352.19 152.57 352.13 152.57 352.15 152.63 352.19" style="fill:#f22020"/><path d="M152.16,352.25h0a.14.14,0,0,1,0-.11l-.05-.09a.39.39,0,0,0,0,.09A.13.13,0,0,0,152.16,352.25Z" style="fill:#f22020"/><path d="M151.31,351.74c-.07-.11,0-.07-.09-.14l.07.11Z" style="fill:#f22020"/><path d="M150.59,351.13c.23.33,0,0,.21.29A3.06,3.06,0,0,0,150.59,351.13Z" style="fill:#f22020"/><path d="M150.9,351.66a.2.2,0,0,0-.06-.11C150.77,351.49,150.9,351.6,150.9,351.66Z" style="fill:#f22020"/><path d="M147.13,352.87c-.23-.07-.48-.12-.73-.2a6.44,6.44,0,0,0-3.49,12.39l.2.05a6.26,6.26,0,0,0,2.95.08,5.8,5.8,0,0,0,4.54-3.77c.92-2.69.61-5.24-1.57-7.24a1.24,1.24,0,0,1-.14-1.72c.36-.55.86,0,1.24.38a1.39,1.39,0,0,0,1.71.27,6.36,6.36,0,0,1-1.52-.58C149.06,351.66,148.14,351.71,147.13,352.87Z" style="fill:#00aab7"/><path d="M202.88,357.12a3.55,3.55,0,0,0-3.78-3.29,3.49,3.49,0,0,0-1.42.42,1.28,1.28,0,0,1-1,.09,3.5,3.5,0,0,0-4.81,1.17h0a3.48,3.48,0,0,0-.51,2.06v7.8H194v-7.58c0-.65.12-1.23.9-1.23s.91.58.91,1.23v7.62h2.64v-7.54c0-.67.08-1.34.91-1.32s.9.69.9,1.34v7.46h2.65v-7.29C202.89,357.69,202.9,357.43,202.88,357.12Z" style="fill:#f4f4e6"/><path d="M186.68,353.83h-7a5.87,5.87,0,0,0-.72.08v2.61h7.52c1,0,1.31.29,1.33,1.31v3.65a1.08,1.08,0,0,1-.89,1.24,1,1,0,0,1-.34,0H182.8c-.66,0-1.21-.17-1.21-.92s.61-.87,1.24-.87h3v-2.66H182.5a3.51,3.51,0,0,0-3.55,3.47h0v.07a3.57,3.57,0,0,0,3.58,3.54h4.33a3.53,3.53,0,0,0,3.6-3.45v0h0v-4.37a3.59,3.59,0,0,0-3.5-3.65h-.23Z" style="fill:#f4f4e6"/><path d="M234.47,356.52h7.29v-2.65c-2.78,0-5.47,0-8.18,0a3.29,3.29,0,0,0-3.17,3c-.12,2.8,0,5.67,0,8.48H233v-4.38h8.75V358.3H233C232.86,356.8,233.11,356.52,234.47,356.52Z" style="fill:#f4f4e6"/><path d="M246.54,362.79c-.58,0-1.17-.11-1.21-.81-.07-1,0-2,0-3.14h4.31V356.2H245.3v-2.34h-2.65v8.22a3.15,3.15,0,0,0,2.65,3.24c2.19.2,4.33,0,6.48,0v-2.55Z" style="fill:#f4f4e6"/><path d="M166.21,355.43c-2.19-.13-4.33,0-6.48,0v2.43h4.37c1.36,0,1.72.35,1.74,1.69v1.54c0,1.62-.23,1.83-1.83,1.83h-4.32v2.43c2,0,4,.07,5.91,0a2.74,2.74,0,0,0,2.83-2.47v-4.33C168.43,357.09,167.35,355.5,166.21,355.43Z" style="fill:#f4f4e6"/><path d="M174.7,362.71c-2.65,0-2.6.09-2.58-2.57v-6.3h-2.58c0,2.85-.09,5.67,0,8.45a3.41,3.41,0,0,0,3.4,3.07h5.74v-2.65Z" style="fill:#f4f4e6"/><path d="M155.62,350.85v11.4a2.84,2.84,0,0,0,2.75,2.92h.22V350.91h-.81C157.14,350.85,156.42,350.85,155.62,350.85Z" style="fill:#f4f4e6"/><path d="M214.32,358.54c-2.09-.13-4.21,0-6.34,0V361h4.48c1.13,0,1.46.33,1.46,1.46v2.88a3.25,3.25,0,0,0,3-3.18C217.06,360.35,215.92,358.64,214.32,358.54Z" style="fill:#f4f4e6"/><path d="M203.92,365.31h8.91v-2.72h-8.91Z" style="fill:#f4f4e6"/><path d="M216.37,354.09H208v2.73h8.38Z" style="fill:#f4f4e6"/><path d="M206.9,360.85v-6.77a3.36,3.36,0,0,0-3,3.64A3.18,3.18,0,0,0,206.9,360.85Z" style="fill:#f4f4e6"/><path d="M225.89,353.85c-1.56,0-3.14-.05-4.72,0a3.46,3.46,0,0,0-3.38,3.4V362a3.47,3.47,0,0,0,3.4,3.4h4.72a3.54,3.54,0,0,0,3.39-3.4c0-1.56,0-3.14,0-4.71A3.53,3.53,0,0,0,225.89,353.85Zm.73,7.76a1,1,0,0,1-.88,1.1h0a1,1,0,0,1-.25,0h-4a.91.91,0,0,1-1-.81h0v-4.35a.94.94,0,0,1,.81-1.06.61.61,0,0,1,.27,0h4.05a1,1,0,0,1,1.09.81v4.27Z" style="fill:#f4f4e6"/><path d="M135.54,359.23H15.14a5,5,0,0,1-5-5v-329a5,5,0,0,1,5-5H133.47" style="fill:none;stroke:#f4f4e6;stroke-miterlimit:10"/><path d="M256.89,20.23H374.31a5,5,0,0,1,5,5v329a5,5,0,0,1-5,5H254.21" style="fill:none;stroke:#f4f4e6;stroke-miterlimit:10"/><path d="M254.34,20.85l-.05-.06-6.45-6.45,0,0h-3.69l.13.14,6.41,6.4-6.92,6.92-.13.13h3.69l0,0,5.81-5.81.06,0,0,0,1.11-1.11Zm-10-6.42,0,0h1.42Zm-.5,13.41h0L246.64,25Zm6.9-7v0Z" style="fill:#00aab7"/><path d="M244.69,21.86h0l.91-.91,0,0,0,0-5.26-5.26,0,0h-3l.11.11,5.22,5.23L237,26.55l-.11.11h3l0,0,4.74-4.74Zm-7.23-6.2,0,0h1.17Zm-.4,10.94h0l2.39-2.4Z" style="fill:#00aab7"/><path d="M237.42,21l0,0,0,0-4.75-4.76h-2.74l.1.1,4.72,4.72-5.1,5.1-.09.1h2.71l0,0,4.28-4.28.05,0h0Zm-7.33-4.78,0,0h1Zm-.37,9.89h0l2.1-2.1Zm5.1-5.16,0-.05,0,.05Z" style="fill:#00aab7"/><path d="M139.33,21l6.92-6.91.13-.14h-3.69l0,0-5.81,5.81-.06,0,0,0-1.11,1.1-.05.06.05.05,6.45,6.45,0,0h3.69l-.13-.14Zm6.82-7h0l-2.85,2.85Z" style="fill:#00aab7"/><path d="M147.38,20.93,153,15.29l.11-.11h-3l-4.74,4.74-.05.05h0l-.91.9,0,.05,0,0,5.26,5.27h3l-.11-.11Zm5.56-5.69h0l-2.34,2.34Z" style="fill:#00aab7"/><path d="M155.25,20.91l5.1-5.1.09-.1h-2.71l0,0L153.43,20l-.05,0h0l-.81.82,0,0,0,0,4.75,4.75,0,0h2.72l-.1-.1Zm5-5.14h0l-2.13,2.13Zm-5.1,5.16h0l0,0Z" style="fill:#00aab7"/><path d="M206.48,19.23l-3.63-3.62,0,0H189.87l0,12.73v.05l0,0L193.5,32V19.23ZM190,17.94h0Z" style="fill:#f4f4e6"/><polygon points="216.04 11.9 219.62 8.31 184.93 8.31 181.36 11.9 216.04 11.9" style="fill:#f4f4e6"/><polygon points="171.86 18.52 171.93 18.6 172.01 18.52 174.45 16.09 174.52 16.01 174.45 15.93 166.89 8.35 166.85 8.31 166.81 8.31 161.92 8.31 161.65 8.31 161.84 8.5 171.86 18.52" style="fill:#f4f4e6"/><polygon points="183.25 15.52 182.98 15.52 178.12 15.52 178.08 15.52 178.04 15.55 160.53 33.07 160.34 33.26 160.61 33.26 165.44 33.26 165.49 33.26 165.52 33.23 183.06 15.71 183.25 15.52" style="fill:#f4f4e6"/><polygon points="215.56 16.01 215.64 16.09 218.07 18.52 218.15 18.6 218.23 18.52 228.24 8.5 228.43 8.31 228.16 8.31 223.28 8.31 223.23 8.31 223.2 8.35 215.64 15.93 215.56 16.01" style="fill:#f4f4e6"/><polygon points="180.24 21.74 180.16 21.66 180.08 21.74 177.66 24.16 177.58 24.24 177.66 24.32 186.43 33.04 186.46 33.07 186.5 33.07 191.28 33.07 191.55 33.07 191.36 32.88 180.24 21.74" style="fill:#f4f4e6"/><polygon points="212.07 15.57 212.04 15.54 212 15.54 207.12 15.54 206.85 15.54 207.04 15.73 224.38 33.04 224.41 33.07 224.46 33.07 229.29 33.07 229.56 33.07 229.37 32.88 212.07 15.57" style="fill:#f4f4e6"/><path d="M210,21.74l-.08-.08-.08.08L198.73,32.88l-.19.19h5.09l0,0,8.77-8.72.08-.08-.08-.08Zm2.31,2.52,0,0h0Z" style="fill:#f4f4e6"/><path d="M182.34,36.76l-2.85,7.8h-1.81l-2.05-5.88-2.07,5.88h-1.8l-2.85-7.8h1.87l1.92,5.77,2.08-5.77h1.73l2.07,5.77,1.93-5.77Z" style="fill:#00aab7"/><path d="M192.77,42.91h-4.72l-.83,1.65h-1.91l4.14-7.8h1.94l4.14,7.8H193.6ZM192,41.46l-1.62-3.17-1.61,3.17Z" style="fill:#00aab7"/><path d="M199.88,36.76l2.94,6,2.93-6h1.93l-3.94,7.8h-1.88l-3.93-7.8Z" style="fill:#00aab7"/><path d="M220.1,43.06v1.5h-8v-7.8H220v1.49h-6.15v1.61H219v1.49h-5.14v1.71Z" style="fill:#00aab7"/><line x1="60.35" y1="163.34" x2="60.35" y2="214.25" style="fill:none;stroke:#f4f4e6;stroke-miterlimit:10"/><line x1="289.25" y1="285.6" x2="341.99" y2="285.6" style="fill:none;stroke:#f4f4e6;stroke-miterlimit:10"/><line x1="225.25" y1="328.87" x2="258.53" y2="328.87" style="fill:none;stroke:#f4f4e6;stroke-miterlimit:10"/><line x1="289.25" y1="197.21" x2="341.99" y2="197.21" style="fill:none;stroke:#f4f4e6;stroke-miterlimit:10"/><line x1="289.25" y1="108.97" x2="341.99" y2="108.97" style="fill:none;stroke:#f4f4e6;stroke-miterlimit:10"/><rect x="20.22" y="57.01" width="184.74" height="76.01" rx="6" style="fill:#353535"/><rect x="20.22" y="57.01" width="184.74" height="76.01" rx="6" style="fill:none;stroke:#f4f4e6;stroke-miterlimit:10"/><rect x="20.22" y="255.83" width="184.74" height="86.67" rx="6" style="fill:#353535"/><rect x="20.22" y="255.83" width="184.74" height="86.67" rx="6" style="fill:none;stroke:#f4f4e6;stroke-miterlimit:10"/><path d="M86.42,41.89H88l1,5,1.07-5h1.5l1.06,5,1-5h1.54l-1.69,7H91.81l-1-4.15-1,4.15H88.11Z" style="fill:#f4f4e6"/><path d="M101.28,48.88H99.6l-.45-1.47H96.78l-.45,1.47H94.8l2.29-7H99Zm-4.09-2.82h1.54L98,43.54Z" style="fill:#f4f4e6"/><path d="M100.68,41.89h1.68L103.94,47l1.59-5.07h1.53l-2.29,7H103Z" style="fill:#f4f4e6"/><path d="M107.66,41.89h4.88v1.35h-3.33v1.47H112v1.35h-2.83v1.48h3.33v1.34h-4.88Z" style="fill:#f4f4e6"/><path d="M113.54,41.89h4.68v1.35h-3.13V45h2.63v1.35h-2.63v2.52h-1.55Z" style="fill:#f4f4e6"/><path d="M124.3,46.45c0,1.67-1.1,2.53-2.8,2.53s-2.78-.86-2.78-2.53V44.33c0-1.68,1.1-2.54,2.8-2.54s2.78.86,2.78,2.54Zm-1.55-2.12a1.24,1.24,0,0,0-2.48,0v2.12a1.24,1.24,0,0,0,2.48,0Z" style="fill:#f4f4e6"/><path d="M125.4,41.89h3a2.11,2.11,0,0,1,2.4,2.33,2.07,2.07,0,0,1-1.21,2.14l1.31,2.52h-1.8l-1.14-2.32h-1v2.32H125.4ZM127,45.21h1.38c.52,0,.85-.24.85-1s-.34-1-.85-1H127Z" style="fill:#f4f4e6"/><path d="M136.61,44.94,135,48.06l-1.64-3.12v3.94h-1.55v-7h1.5L135,45.11l1.69-3.22h1.5v7h-1.55Z" style="fill:#f4f4e6"/><path d="M294.18,142.07l-1.64,3.12-1.64-3.12v4h-1.55v-7h1.5l1.69,3.22,1.68-3.22h1.5v7h-1.54Z" style="fill:#f4f4e6"/><path d="M302.4,143.58c0,1.68-1.09,2.54-2.79,2.54s-2.78-.86-2.78-2.54v-2.12c0-1.68,1.1-2.54,2.8-2.54s2.77.86,2.77,2.54Zm-1.54-2.12a1.24,1.24,0,0,0-2.48,0v2.12a1.24,1.24,0,0,0,2.48,0Z" style="fill:#f4f4e6"/><path d="M309.09,143.48c0,1.68-1.1,2.54-2.8,2.54h-2.78v-7h2.8c1.68,0,2.78.86,2.78,2.54Zm-1.55-1.92a1.1,1.1,0,0,0-1.23-1.19h-1.25v4.3h1.23a1.11,1.11,0,0,0,1.25-1.19Z" style="fill:#f4f4e6"/><path d="M317.16,143l-1.94,1.68h2.95V146h-5v-1.35l2.9-2.58a1.37,1.37,0,0,0,.53-1,.82.82,0,0,0-.93-.84.85.85,0,0,0-.95.92v.43h-1.55v-.43c0-1.5,1-2.27,2.5-2.27s2.48.8,2.48,2.15A2.51,2.51,0,0,1,317.16,143Z" style="fill:#f4f4e6"/><path d="M295.19,229.53l-1.64,3.12-1.63-3.12v3.95h-1.55v-7h1.49l1.69,3.22,1.69-3.22h1.5v7h-1.55Z" style="fill:#f4f4e6"/><path d="M303.42,231c0,1.68-1.1,2.54-2.8,2.54s-2.77-.86-2.77-2.54v-2.12c0-1.68,1.1-2.54,2.79-2.54s2.78.86,2.78,2.54Zm-1.55-2.12a1.24,1.24,0,0,0-2.47,0V231a1.24,1.24,0,0,0,2.47,0Z" style="fill:#f4f4e6"/><path d="M310.1,230.94c0,1.68-1.1,2.54-2.8,2.54h-2.77v-7h2.8c1.67,0,2.77.86,2.77,2.54ZM308.55,229a1.1,1.1,0,0,0-1.22-1.19h-1.25v4.3h1.22a1.11,1.11,0,0,0,1.25-1.19Z" style="fill:#f4f4e6"/><path d="M316.35,229.3h.4a.74.74,0,0,0,.83-.74.77.77,0,0,0-.88-.83c-.61,0-.94.28-.94.81v.24h-1.55v-.4c0-1.19.88-2,2.49-2s2.48.81,2.48,2a1.62,1.62,0,0,1-1.07,1.62,1.62,1.62,0,0,1,1.07,1.62c0,1.17-.88,2-2.48,2s-2.49-.81-2.49-2v-.4h1.55v.24c0,.53.33.81.94.81a.77.77,0,0,0,.88-.83.73.73,0,0,0-.83-.75h-.4Z" style="fill:#f4f4e6"/><path d="M294.18,54.61l-1.64,3.12-1.64-3.12v4h-1.55v-7h1.5l1.69,3.22,1.68-3.22h1.5v7h-1.54Z" style="fill:#f4f4e6"/><path d="M302.4,56.12c0,1.68-1.09,2.54-2.79,2.54s-2.78-.86-2.78-2.54V54c0-1.68,1.1-2.54,2.8-2.54s2.77.86,2.77,2.54ZM300.86,54a1.24,1.24,0,0,0-2.48,0v2.12a1.24,1.24,0,0,0,2.48,0Z" style="fill:#f4f4e6"/><path d="M309.09,56c0,1.68-1.1,2.54-2.8,2.54h-2.78v-7h2.8c1.68,0,2.78.86,2.78,2.54Zm-1.55-1.92a1.1,1.1,0,0,0-1.23-1.19h-1.25v4.3h1.23A1.11,1.11,0,0,0,307.54,56Z" style="fill:#f4f4e6"/><path d="M316.19,58.56h-1.55V53.13l-1.75,1.25V52.81l1.75-1.25h1.55Z" style="fill:#f4f4e6"/><path d="M51.14,141.1H54a2.33,2.33,0,1,1,0,4.66H52.68v2.33H51.14Zm1.54,3.32H54c.52,0,.85-.24.85-1s-.34-1-.85-1H52.68Z" style="fill:#f4f4e6"/><path d="M62.69,145.66c0,1.67-1.1,2.53-2.8,2.53s-2.77-.86-2.77-2.53v-2.12c0-1.68,1.1-2.54,2.79-2.54s2.78.86,2.78,2.54Zm-1.55-2.12a1.24,1.24,0,0,0-2.47,0v2.12a1.24,1.24,0,0,0,2.47,0Z" style="fill:#f4f4e6"/><path d="M66.66,145.41l-1.14-.2a2,2,0,0,1-1.92-2c0-1.49,1-2.21,2.68-2.21s2.69.72,2.69,2.13v.17H67.42v-.17c0-.52-.42-.78-1.14-.78s-1.09.21-1.09.75c0,.37.3.62.72.69l1.14.2c1.26.22,1.92.9,1.92,2,0,1.5-1,2.22-2.69,2.22s-2.68-.72-2.68-2.13v-.17h1.55v.17c0,.52.42.78,1.13.78s1.09-.2,1.09-.76C67.37,145.71,67.08,145.48,66.66,145.41Z" style="fill:#f4f4e6"/><path d="M100.89,144v4.14H99.34v-7h1.45l2.57,4.15V141.1h1.55v7h-1.45Z" style="fill:#f4f4e6"/><path d="M111.6,145.66c0,1.67-1.1,2.53-2.8,2.53s-2.78-.86-2.78-2.53v-2.12c0-1.68,1.1-2.54,2.8-2.54s2.78.86,2.78,2.54ZM110,143.54a1.1,1.1,0,0,0-1.22-1.19,1.11,1.11,0,0,0-1.25,1.19v2.12a1.24,1.24,0,0,0,2.47,0Z" style="fill:#f4f4e6"/><path d="M112.7,141.1h1.55v7H112.7Z" style="fill:#f4f4e6"/><path d="M118.31,145.41l-1.14-.2a2,2,0,0,1-1.92-2c0-1.49,1-2.21,2.68-2.21s2.69.72,2.69,2.13v.17h-1.55v-.17c0-.52-.42-.78-1.14-.78s-1.08.21-1.08.75c0,.37.29.62.71.69l1.14.2c1.26.22,1.92.9,1.92,2,0,1.5-1,2.22-2.69,2.22s-2.68-.72-2.68-2.13v-.17h1.55v.17c0,.52.42.78,1.13.78s1.09-.2,1.09-.76C119,145.71,118.73,145.48,118.31,145.41Z" style="fill:#f4f4e6"/><path d="M121.63,141.1h4.87v1.35h-3.32v1.47H126v1.35h-2.83v1.47h3.32v1.35h-4.87Z" style="fill:#f4f4e6"/><path d="M155.05,145.55c0,1.68-1.1,2.54-2.8,2.54h-2.78v-7h2.8c1.68,0,2.78.86,2.78,2.54Zm-1.55-1.91a1.1,1.1,0,0,0-1.23-1.19H151v4.29h1.23a1.11,1.11,0,0,0,1.25-1.19Z" style="fill:#f4f4e6"/><path d="M156.15,141.1H161v1.35H157.7v1.47h2.83v1.35H157.7v1.47H161v1.35h-4.88Z" style="fill:#f4f4e6"/><path d="M163.58,144v4.14H162v-7h1.45l2.58,4.15V141.1h1.55v7h-1.45Z" style="fill:#f4f4e6"/><path d="M171.68,145.41l-1.15-.2a2,2,0,0,1-1.92-2c0-1.49,1-2.21,2.69-2.21s2.69.72,2.69,2.13v.17h-1.55v-.17c0-.52-.42-.78-1.14-.78s-1.09.21-1.09.75c0,.37.29.62.71.69l1.15.2c1.26.22,1.92.9,1.92,2,0,1.5-1,2.22-2.69,2.22s-2.69-.72-2.69-2.13v-.17h1.55v.17c0,.52.42.78,1.14.78s1.09-.2,1.09-.76C172.39,145.71,172.1,145.48,171.68,145.41Z" style="fill:#f4f4e6"/><path d="M175,141.1h1.55v7H175Z" style="fill:#f4f4e6"/><path d="M177.19,141.1h5.51v1.35h-2v5.64h-1.55v-5.64h-2Z" style="fill:#f4f4e6"/><path d="M186.72,148.09h-1.55v-2.47l-2.51-4.52h1.84l1.47,3,1.51-3h1.75l-2.51,4.52Z" style="fill:#f4f4e6"/><rect x="266.16" y="64.57" width="75" height="21.88" rx="6" style="fill:#353535"/><rect x="266.16" y="64.57" width="75" height="21.88" rx="6" style="fill:none;stroke:#f4f4e6;stroke-miterlimit:10"/><rect x="266.16" y="152.23" width="75" height="21.88" rx="6" style="fill:#353535"/><rect x="266.16" y="152.23" width="75" height="21.88" rx="6" style="fill:none;stroke:#f4f4e6;stroke-miterlimit:10"/><rect x="266.16" y="239.88" width="75" height="21.88" rx="6" style="fill:#353535"/><rect x="266.16" y="239.88" width="75" height="21.88" rx="6" style="fill:none;stroke:#f4f4e6;stroke-miterlimit:10"/><path d="M89.23,244.91H86.75v2.83H85.2v-7h1.55v2.82h2.48v-2.82h1.54v7H89.23Z" style="fill:#f4f4e6"/><path d="M97.85,247.74H96.18l-.45-1.48H93.36l-.45,1.48H91.38l2.29-7h1.9Zm-4.08-2.83h1.54l-.77-2.52Z" style="fill:#f4f4e6"/><path d="M98.46,240.74h3a2.1,2.1,0,0,1,2.39,2.33,2.06,2.06,0,0,1-1.2,2.14l1.3,2.53h-1.79L101,245.41h-1v2.33H98.46Zm1.55,3.32h1.38c.52,0,.85-.24.85-1s-.34-1-.85-1H100Z" style="fill:#f4f4e6"/><path d="M109.66,243.79,108,246.91l-1.64-3.12v4h-1.55v-7h1.5L108,244l1.68-3.22h1.5v7h-1.55Z" style="fill:#f4f4e6"/><path d="M117.89,245.3c0,1.68-1.09,2.54-2.79,2.54s-2.78-.86-2.78-2.54v-2.12c0-1.68,1.1-2.54,2.8-2.54s2.77.86,2.77,2.54Zm-1.54-2.12a1.24,1.24,0,0,0-2.48,0v2.12a1.24,1.24,0,0,0,2.48,0Z" style="fill:#f4f4e6"/><path d="M120.55,243.59v4.15H119v-7h1.45l2.58,4.15v-4.15h1.54v7h-1.44Z" style="fill:#f4f4e6"/><path d="M125.78,240.74h1.55v7h-1.55Z" style="fill:#f4f4e6"/><path d="M134,245.24v.06c0,1.68-1.1,2.54-2.79,2.54s-2.78-.86-2.78-2.54v-2.12c0-1.68,1.1-2.54,2.79-2.54s2.78.86,2.78,2.54v.06h-1.55v-.06a1.24,1.24,0,0,0-2.47,0v2.12a1.24,1.24,0,0,0,2.47,0v-.06Z" style="fill:#f4f4e6"/><path d="M137.88,245.05l-1.15-.2a2,2,0,0,1-1.92-2c0-1.49,1-2.21,2.69-2.21s2.68.72,2.68,2.13v.17h-1.54v-.17c0-.52-.42-.78-1.14-.78s-1.09.21-1.09.75c0,.37.29.62.71.69l1.15.2c1.25.22,1.91.9,1.91,2,0,1.5-1,2.22-2.68,2.22s-2.69-.72-2.69-2.13v-.17h1.55v.17c0,.52.42.78,1.14.78s1.09-.2,1.09-.76C138.59,245.35,138.3,245.12,137.88,245.05Z" style="fill:#f4f4e6"/><path d="M344.93,51.56h2.87a2.34,2.34,0,1,1,0,4.67h-1.33v2.33h-1.54Zm1.54,3.32h1.28c.52,0,.85-.24.85-1s-.34-1-.85-1h-1.28Z" style="fill:#f4f4e6"/><path d="M356.48,56.12c0,1.68-1.1,2.54-2.8,2.54s-2.77-.86-2.77-2.54V54c0-1.68,1.1-2.54,2.79-2.54s2.78.86,2.78,2.54ZM354.93,54a1.24,1.24,0,0,0-2.48,0v2.12a1.24,1.24,0,0,0,2.48,0Z" style="fill:#f4f4e6"/><path d="M360.45,55.87l-1.15-.2a2,2,0,0,1-1.91-2c0-1.49,1-2.21,2.68-2.21s2.69.72,2.69,2.13v.17h-1.55v-.17c0-.52-.42-.78-1.14-.78S359,53,359,53.56c0,.37.28.62.7.69l1.15.2c1.26.22,1.92.9,1.92,2,0,1.5-1,2.22-2.69,2.22s-2.68-.72-2.68-2.13v-.17h1.54v.17c0,.52.42.78,1.14.78s1.09-.2,1.09-.76C361.16,56.17,360.87,55.94,360.45,55.87Z" style="fill:#f4f4e6"/><path d="M363.22,51.56h5.5v1.35h-2v5.65h-1.55V52.91h-2Z" style="fill:#f4f4e6"/><path d="M344.93,139h2.88a2.34,2.34,0,1,1,0,4.67h-1.34V146h-1.54Zm1.54,3.32h1.28c.52,0,.85-.24.85-1s-.34-1-.85-1h-1.28Z" style="fill:#f4f4e6"/><path d="M356.48,143.58c0,1.68-1.1,2.54-2.8,2.54s-2.77-.86-2.77-2.54v-2.12c0-1.68,1.1-2.54,2.79-2.54s2.78.86,2.78,2.54Zm-1.55-2.12a1.24,1.24,0,0,0-2.47,0v2.12a1.24,1.24,0,0,0,2.47,0Z" style="fill:#f4f4e6"/><path d="M360.45,143.33l-1.14-.2a2,2,0,0,1-1.92-2c0-1.49,1-2.21,2.68-2.21s2.69.72,2.69,2.13v.17h-1.55v-.17c0-.52-.42-.78-1.14-.78s-1.08.21-1.08.75c0,.37.29.62.71.69l1.14.2c1.26.22,1.92.9,1.92,2,0,1.5-1,2.22-2.69,2.22s-2.68-.72-2.68-2.13v-.17h1.55V144c0,.52.42.78,1.13.78s1.09-.2,1.09-.76C361.16,143.63,360.87,143.4,360.45,143.33Z" style="fill:#f4f4e6"/><path d="M363.22,139h5.5v1.35h-2V146H365.2v-5.65h-2Z" style="fill:#f4f4e6"/><path d="M344.93,226.48h2.88a2.34,2.34,0,1,1,0,4.67h-1.34v2.33h-1.54Zm1.54,3.32h1.28c.52,0,.85-.24.85-1s-.34-1-.85-1h-1.28Z" style="fill:#f4f4e6"/><path d="M356.48,231c0,1.68-1.1,2.54-2.8,2.54s-2.77-.86-2.77-2.54v-2.12c0-1.68,1.1-2.54,2.79-2.54s2.78.86,2.78,2.54Zm-1.55-2.12a1.24,1.24,0,0,0-2.47,0V231a1.24,1.24,0,0,0,2.47,0Z" style="fill:#f4f4e6"/><path d="M360.45,230.79l-1.14-.2a2,2,0,0,1-1.92-2c0-1.49,1-2.21,2.68-2.21s2.69.72,2.69,2.13v.17h-1.55v-.17c0-.52-.42-.78-1.14-.78s-1.08.21-1.08.75c0,.37.29.62.71.69l1.14.2c1.26.22,1.92.9,1.92,2,0,1.5-1,2.22-2.69,2.22s-2.68-.72-2.68-2.13v-.17h1.55v.17c0,.52.42.78,1.13.78s1.09-.2,1.09-.76C361.16,231.09,360.87,230.86,360.45,230.79Z" style="fill:#f4f4e6"/><path d="M363.22,226.48h5.5v1.35h-2v5.65H365.2v-5.65h-2Z" style="fill:#f4f4e6"/><path d="M153.68,197.1l-1.15-.2a2,2,0,0,1-1.92-2c0-1.49,1-2.21,2.69-2.21s2.69.72,2.69,2.13V195h-1.55v-.17c0-.52-.42-.78-1.14-.78s-1.09.21-1.09.75c0,.37.29.62.71.69l1.15.2c1.26.22,1.92.9,1.92,2,0,1.5-1,2.21-2.69,2.21s-2.69-.71-2.69-2.12v-.17h1.55v.17c0,.52.42.78,1.14.78s1.09-.2,1.09-.76C154.39,197.4,154.1,197.17,153.68,197.1Z" style="fill:#f4f4e6"/><path d="M157,192.79h2.88a2.34,2.34,0,1,1,0,4.67h-1.33v2.33H157Zm1.55,3.32h1.28c.52,0,.85-.24.85-1s-.34-1-.85-1h-1.28Z" style="fill:#f4f4e6"/><path d="M163.07,192.79h3a2.11,2.11,0,0,1,2.4,2.33,2.07,2.07,0,0,1-1.21,2.14l1.31,2.53h-1.8l-1.14-2.33h-1v2.33h-1.55Zm1.55,3.32H166c.52,0,.85-.24.85-1s-.34-1-.85-1h-1.38Z" style="fill:#f4f4e6"/><path d="M169.45,192.79h4.88v1.35H171v1.47h2.83V197H171v1.48h3.33v1.35h-4.88Z" style="fill:#f4f4e6"/><path d="M181.21,199.79h-1.68l-.45-1.48h-2.37l-.45,1.48h-1.53l2.29-7h1.9ZM177.12,197h1.54l-.77-2.52Z" style="fill:#f4f4e6"/><path d="M187.39,197.25c0,1.68-1.1,2.54-2.8,2.54h-2.78v-7h2.8c1.68,0,2.78.86,2.78,2.54Zm-1.55-1.92a1.1,1.1,0,0,0-1.23-1.19h-1.25v4.3h1.23a1.11,1.11,0,0,0,1.25-1.19Z" style="fill:#f4f4e6"/><path d="M101.27,197.25c0,1.68-1.1,2.54-2.8,2.54H95.69v-7h2.8c1.68,0,2.78.86,2.78,2.54Zm-1.55-1.92a1.1,1.1,0,0,0-1.23-1.19H97.24v4.3h1.23a1.11,1.11,0,0,0,1.25-1.19Z" style="fill:#f4f4e6"/><path d="M102.37,192.79h4.88v1.35h-3.33v1.47h2.83V197h-2.83v1.48h3.33v1.35h-4.88Z" style="fill:#f4f4e6"/><path d="M107.7,192.79h5.51v1.35h-2v5.65h-1.55v-5.65h-2Z" style="fill:#f4f4e6"/><path d="M119.39,192.79v4.56c0,1.68-1.1,2.53-2.8,2.53s-2.78-.85-2.78-2.53v-4.56h1.55v4.56a1.24,1.24,0,0,0,2.48,0v-4.56Z" style="fill:#f4f4e6"/><path d="M122.09,195.64v4.15h-1.55v-7H122l2.58,4.15v-4.15h1.55v7h-1.45Z" style="fill:#f4f4e6"/><path d="M127.32,192.79h4.88v1.35h-3.33v1.47h2.83V197h-2.83v1.48h3.33v1.35h-4.88Z" style="fill:#f4f4e6"/><path d="M340.34,309.65c0,1.68-1.1,2.54-2.8,2.54s-2.78-.86-2.78-2.54v-2.12c0-1.68,1.1-2.54,2.8-2.54s2.78.86,2.78,2.54Zm-1.55-2.12a1.24,1.24,0,0,0-2.48,0v2.12a1.24,1.24,0,0,0,2.48,0Z" style="fill:#f4f4e6"/><path d="M347,305.09v4.56c0,1.68-1.1,2.54-2.8,2.54s-2.78-.86-2.78-2.54v-4.56h1.55v4.56a1.24,1.24,0,0,0,2.48,0v-4.56Z" style="fill:#f4f4e6"/><path d="M347.57,305.09h5.51v1.35h-2v5.65h-1.55v-5.65h-2Z" style="fill:#f4f4e6"/><path d="M278.09,344.34h1.68l1.58,5.07,1.59-5.07h1.53l-2.29,7h-1.8Z" style="fill:#f4f4e6"/><path d="M287.11,343.22h1.27l-3.06,9.24h-1.27Z" style="fill:#f4f4e6"/><path d="M294,348.9c0,1.68-1.1,2.54-2.8,2.54s-2.78-.86-2.78-2.54v-2.12c0-1.68,1.1-2.54,2.8-2.54s2.78.86,2.78,2.54Zm-1.55-2.12a1.24,1.24,0,0,0-2.48,0v2.12a1.24,1.24,0,0,0,2.48,0Z" style="fill:#f4f4e6"/><path d="M300.62,348.84v.06c0,1.68-1.1,2.54-2.8,2.54s-2.78-.86-2.78-2.54v-2.12c0-1.68,1.1-2.54,2.8-2.54s2.78.86,2.78,2.54v.06h-1.55v-.06a1.24,1.24,0,0,0-2.48,0v2.12a1.24,1.24,0,0,0,2.48,0v-.06Z" style="fill:#f4f4e6"/><path d="M301.07,344.34h5.51v1.35h-2v5.65h-1.55v-5.65h-2Z" style="fill:#f4f4e6"/><path d="M258.16,344.34h4.68v1.35h-3.13v1.77h2.63v1.35h-2.63v2.53h-1.55Z" style="fill:#f4f4e6"/><path d="M268.27,347.39l-1.64,3.12L265,347.39v3.95h-1.55v-7h1.5l1.69,3.22,1.69-3.22h1.5v7h-1.55Z" style="fill:#f4f4e6"/><path d="M223.59,58.65c0,1.68-1.1,2.54-2.79,2.54S218,60.33,218,58.65V56.53c0-1.67,1.1-2.53,2.8-2.53s2.77.86,2.77,2.53Zm-1.54-2.12a1.24,1.24,0,0,0-2.48,0v2.12a1.24,1.24,0,0,0,2.48,0Z" style="fill:#f4f4e6"/><path d="M230.17,58.59v.06c0,1.68-1.1,2.54-2.79,2.54s-2.78-.86-2.78-2.54V56.53c0-1.67,1.1-2.53,2.8-2.53s2.77.86,2.77,2.53v.06h-1.54v-.06a1.24,1.24,0,0,0-2.48,0v2.12a1.24,1.24,0,0,0,2.48,0v-.06Z" style="fill:#f4f4e6"/><path d="M230.63,54.1h5.51v1.35h-2v5.64h-1.55V55.45h-2Z" style="fill:#f4f4e6"/><path d="M242,61.09h-1.68l-.44-1.48h-2.37L237,61.09h-1.53l2.29-7h1.9Zm-4.08-2.83h1.54l-.77-2.51Z" style="fill:#f4f4e6"/><path d="M241.36,54.1H243l1.58,5.06,1.58-5.06h1.53l-2.28,7h-1.8Z" style="fill:#f4f4e6"/><path d="M248.34,54.1h4.87v1.35h-3.32v1.46h2.82v1.35h-2.82v1.48h3.32v1.35h-4.87Z" style="fill:#f4f4e6"/><path d="M227.84,123.11l-1.15-.2a2,2,0,0,1-1.92-2c0-1.49,1-2.21,2.69-2.21s2.69.72,2.69,2.13V121H228.6v-.17c0-.52-.42-.78-1.14-.78s-1.09.21-1.09.75c0,.37.29.62.71.69l1.15.2c1.26.22,1.92.9,1.92,2,0,1.5-1,2.22-2.69,2.22s-2.69-.72-2.69-2.13v-.17h1.55v.17c0,.52.42.78,1.14.78s1.09-.2,1.09-.76C228.55,123.41,228.26,123.18,227.84,123.11Z" style="fill:#f4f4e6"/><path d="M231.15,118.8H236v1.35H232.7v1.47h2.83V123H232.7v1.48H236v1.35h-4.88Z" style="fill:#f4f4e6"/><path d="M241.86,121.85,240.22,125l-1.64-3.12v4H237v-7h1.5l1.69,3.22,1.69-3.22h1.5v7h-1.55Z" style="fill:#f4f4e6"/><path d="M244.61,118.8h1.55v7h-1.55Z" style="fill:#f4f4e6"/><path d="M225.82,183.5h4.68v1.35h-3.13v1.77H230V188h-2.63v2.53h-1.55Z" style="fill:#f4f4e6"/><path d="M231.1,183.5h1.55v7H231.1Z" style="fill:#f4f4e6"/><path d="M235.4,186.35v4.15h-1.55v-7h1.45l2.58,4.15V183.5h1.55v7H238Z" style="fill:#f4f4e6"/><path d="M240.63,183.5h4.88v1.35h-3.33v1.47H245v1.35h-2.83v1.48h3.33v1.35h-4.88Z" style="fill:#f4f4e6"/><path d="M328.53,344.34h1.55v7h-1.55Z" style="fill:#f4f4e6"/><path d="M355.38,344.34h1.55v7h-1.55Z" style="fill:#f4f4e6"/><path d="M358.13,344.34h1.55v7h-1.55Z" style="fill:#f4f4e6"/><path d="M275.17,305.09h1.55v7h-1.55Z" style="fill:#f4f4e6"/><path d="M279.47,307.94v4.15h-1.55v-7h1.45l2.58,4.15v-4.15h1.55v7h-1.45Z" style="fill:#f4f4e6"/><line x1="311.06" y1="343.66" x2="311.06" y2="310.38" style="fill:none;stroke:#f4f4e6;stroke-miterlimit:10"/><path d="M221.42,248.21H223v5.65h3.33v1.35h-4.88Z" style="fill:#f4f4e6"/><path d="M227.1,248.21H232v1.35h-3.32V251h2.82v1.35h-2.82v1.48H232v1.35H227.1Z" style="fill:#f4f4e6"/><path d="M232.38,248.21h1.68l1.58,5.07,1.58-5.07h1.53l-2.28,7h-1.8Z" style="fill:#f4f4e6"/><path d="M239.36,248.21h4.87v1.35h-3.32V251h2.82v1.35h-2.82v1.48h3.32v1.35h-4.87Z" style="fill:#f4f4e6"/><path d="M245.24,248.21h1.55v5.65h3.32v1.35h-4.87Z" style="fill:#f4f4e6"/><line x1="61.96" y1="216.25" x2="26.41" y2="216.25" style="fill:none;stroke:#f4f4e6;stroke-miterlimit:10"/><line x1="60.52" y1="36.21" x2="60.52" y2="57.48" style="fill:none;stroke:#f4f4e6;stroke-miterlimit:10"/></svg>