<?xml version="1.0" encoding="UTF-8" standalone="no"?>
<!-- Created with Inkscape (http://www.inkscape.org/) -->

<svg
   xmlns:dc="http://purl.org/dc/elements/1.1/"
   xmlns:cc="http://creativecommons.org/ns#"
   xmlns:rdf="http://www.w3.org/1999/02/22-rdf-syntax-ns#"
   xmlns:svg="http://www.w3.org/2000/svg"
   xmlns="http://www.w3.org/2000/svg"
   xmlns:sodipodi="http://sodipodi.sourceforge.net/DTD/sodipodi-0.dtd"
   xmlns:inkscape="http://www.inkscape.org/namespaces/inkscape"
   width="6.0000443mm"
   height="6.0000443mm"
   viewBox="0 0 6.0000443 6.0000443"
   version="1.1"
   id="svg2237"
   inkscape:version="0.92.3 (2405546, 2018-03-11)"
   sodipodi:docname="PB6149L-off.svg">
  <defs
     id="defs2231">
    <linearGradient
       id="linearGradient919"
       spreadMethod="pad"
       gradientTransform="matrix(0,6.641366,6.641366,0,-750.57886,915.1769)"
       gradientUnits="userSpaceOnUse"
       y2="0"
       x2="1"
       y1="0"
       x1="0">
      <stop
         id="stop915"
         offset="0"
         style="stop-opacity:1;stop-color:#414042" />
      <stop
         id="stop917"
         offset="1"
         style="stop-opacity:1;stop-color:#231f20" />
    </linearGradient>
    <clipPath
       id="clipPath847"
       clipPathUnits="userSpaceOnUse">
      <path
         inkscape:connector-curvature="0"
         id="path845"
         d="M 92.1781,45.3347 H 105.848 V 31.6654 H 92.1781 Z" />
    </clipPath>
    <clipPath
       id="clipPath851"
       clipPathUnits="userSpaceOnUse">
      <path
         inkscape:connector-curvature="0"
         id="path849"
         d="m 99.013,45.334 c -3.775,0 -6.835,-3.06 -6.835,-6.834 0,-3.774 3.06,-6.835 6.835,-6.835 3.776,0 6.835,3.061 6.835,6.835 0,3.774 -3.059,6.834 -6.835,6.834 m 0,-0.5 c 3.493,0 6.335,-2.841 6.335,-6.334 0,-3.493 -2.842,-6.335 -6.335,-6.335 -3.493,0 -6.335,2.842 -6.335,6.335 0,3.493 2.842,6.334 6.335,6.334" />
    </clipPath>
    <mask
       id="mask863"
       height="1"
       width="1"
       y="0"
       x="0"
       maskUnits="userSpaceOnUse">
      <g
         id="g873">
        <g
           id="g871">
          <g
             id="g869">
            <g
               id="g867">
              <path
                 inkscape:connector-curvature="0"
                 id="path865"
                 style="fill:url(#linearGradient861);stroke:none"
                 d="M -32768,32767 H 32767 V -32768 H -32768 Z" />
            </g>
          </g>
        </g>
      </g>
    </mask>
    <linearGradient
       id="linearGradient861"
       spreadMethod="pad"
       gradientTransform="matrix(0,-13.669281,-13.669281,0,99.013077,45.334656)"
       gradientUnits="userSpaceOnUse"
       y2="0"
       x2="1"
       y1="0"
       x1="0">
      <stop
         id="stop857"
         offset="0"
         style="stop-opacity:0;stop-color:#ffffff" />
      <stop
         id="stop859"
         offset="1"
         style="stop-opacity:1;stop-color:#ffffff" />
    </linearGradient>
    <linearGradient
       id="linearGradient879"
       spreadMethod="pad"
       gradientTransform="matrix(0,-13.669281,-13.669281,0,950.02119,-830.90828)"
       gradientUnits="userSpaceOnUse"
       y2="0"
       x2="1"
       y1="0"
       x1="0">
      <stop
         id="stop875"
         offset="0"
         style="stop-opacity:1;stop-color:#231f20" />
      <stop
         id="stop877"
         offset="1"
         style="stop-opacity:1;stop-color:#231f20" />
    </linearGradient>
    <clipPath
       id="clipPath953"
       clipPathUnits="userSpaceOnUse">
      <path
         inkscape:connector-curvature="0"
         id="path951"
         d="m 141.72,46.437 h 15.875 V 30.563 H 141.72 Z" />
    </clipPath>
    <clipPath
       id="clipPath969"
       clipPathUnits="userSpaceOnUse">
      <path
         inkscape:connector-curvature="0"
         id="path967"
         d="m 142.822,45.3347 h 13.67 V 31.6654 h -13.67 z" />
    </clipPath>
    <clipPath
       id="clipPath973"
       clipPathUnits="userSpaceOnUse">
      <path
         inkscape:connector-curvature="0"
         id="path971"
         d="m 149.657,45.334 c -3.775,0 -6.835,-3.06 -6.835,-6.834 0,-3.774 3.06,-6.835 6.835,-6.835 3.776,0 6.835,3.061 6.835,6.835 0,3.774 -3.059,6.834 -6.835,6.834 m 0,-0.5 c 3.493,0 6.335,-2.841 6.335,-6.334 0,-3.493 -2.842,-6.335 -6.335,-6.335 -3.493,0 -6.335,2.842 -6.335,6.335 0,3.493 2.842,6.334 6.335,6.334" />
    </clipPath>
    <mask
       id="mask985"
       height="1"
       width="1"
       y="0"
       x="0"
       maskUnits="userSpaceOnUse">
      <g
         id="g995">
        <g
           id="g993">
          <g
             id="g991">
            <g
               id="g989">
              <path
                 inkscape:connector-curvature="0"
                 id="path987"
                 style="fill:url(#linearGradient983);stroke:none"
                 d="M -32768,32767 H 32767 V -32768 H -32768 Z" />
            </g>
          </g>
        </g>
      </g>
    </mask>
    <linearGradient
       id="linearGradient983"
       spreadMethod="pad"
       gradientTransform="matrix(0,-13.669281,-13.669281,0,149.65724,45.334656)"
       gradientUnits="userSpaceOnUse"
       y2="0"
       x2="1"
       y1="0"
       x1="0">
      <stop
         id="stop979"
         offset="0"
         style="stop-opacity:0;stop-color:#ffffff" />
      <stop
         id="stop981"
         offset="1"
         style="stop-opacity:1;stop-color:#ffffff" />
    </linearGradient>
    <linearGradient
       id="linearGradient1001"
       spreadMethod="pad"
       gradientTransform="matrix(0,-13.669281,-13.669281,0,1051.3095,-830.90827)"
       gradientUnits="userSpaceOnUse"
       y2="0"
       x2="1"
       y1="0"
       x1="0">
      <stop
         id="stop997"
         offset="0"
         style="stop-opacity:1;stop-color:#231f20" />
      <stop
         id="stop999"
         offset="1"
         style="stop-opacity:1;stop-color:#231f20" />
    </linearGradient>
  </defs>
  <sodipodi:namedview
     id="base"
     pagecolor="#ffffff"
     bordercolor="#666666"
     borderopacity="1.0"
     inkscape:pageopacity="0.0"
     inkscape:pageshadow="2"
     inkscape:zoom="5.6"
     inkscape:cx="12.69862"
     inkscape:cy="26.715744"
     inkscape:document-units="mm"
     inkscape:current-layer="layer1"
     showgrid="false"
     fit-margin-top="0"
     fit-margin-left="0"
     fit-margin-right="0"
     fit-margin-bottom="0"
     showborder="false"
     inkscape:window-width="2560"
     inkscape:window-height="1378"
     inkscape:window-x="-8"
     inkscape:window-y="-8"
     inkscape:window-maximized="1" />
  <metadata
     id="metadata2234">
    <rdf:RDF>
      <cc:Work
         rdf:about="">
        <dc:format>image/svg+xml</dc:format>
        <dc:type
           rdf:resource="http://purl.org/dc/dcmitype/StillImage" />
        <dc:title></dc:title>
      </cc:Work>
    </rdf:RDF>
  </metadata>
  <g
     inkscape:label="Layer 1"
     inkscape:groupmode="layer"
     id="layer1"
     transform="translate(3.1215999e-7,-290.99996)">
    <g
       transform="translate(-70.130478,145.16664)"
       id="g2229">
      <g
         transform="matrix(0.35277777,0,0,-0.35277777,76.130522,148.83334)"
         id="g943">
        <path
           inkscape:connector-curvature="0"
           id="path945"
           style="fill:#231f20;fill-opacity:1;fill-rule:nonzero;stroke:none"
           d="m 0,0 c 0,-4.696 -3.807,-8.504 -8.504,-8.504 -4.696,0 -8.504,3.808 -8.504,8.504 0,4.696 3.808,8.504 8.504,8.504 C -3.807,8.504 0,4.696 0,0" />
      </g>
      <g
         transform="matrix(0.35277777,0,0,-0.35277777,20.335119,162.41528)"
         id="g947">
        <g
           id="g949" />
        <g
           id="g961">
          <g
             style="opacity:0.33000201"
             id="g959"
             clip-path="url(#clipPath953)">
            <g
               id="g957"
               transform="translate(157.5947,38.5)">
              <path
                 inkscape:connector-curvature="0"
                 id="path955"
                 style="fill:#ffffff;fill-opacity:1;fill-rule:nonzero;stroke:none"
                 d="m 0,0 c 0,-4.383 -3.553,-7.937 -7.937,-7.937 -4.385,0 -7.938,3.554 -7.938,7.937 0,4.383 3.553,7.937 7.938,7.937 C -3.553,7.937 0,4.383 0,0" />
            </g>
          </g>
        </g>
      </g>
      <g
         transform="matrix(0.35277777,0,0,-0.35277777,20.335119,162.41528)"
         id="g963">
        <g
           id="g965" />
        <g
           id="g1019">
          <g
             style="opacity:0.33000201"
             id="g1017"
             clip-path="url(#clipPath969)">
            <g
               id="g1015">
              <g
                 id="g1013"
                 clip-path="url(#clipPath973)">
                <g
                   id="g1011">
                  <g
                     id="g1003" />
                  <g
                     id="g1009"
                     mask="url(#mask985)">
                    <g
                       id="g1007">
                      <path
                         inkscape:connector-curvature="0"
                         id="path1005"
                         style="fill:url(#linearGradient1001);stroke:none"
                         d="m 149.657,45.334 c -3.775,0 -6.835,-3.06 -6.835,-6.834 0,-3.774 3.06,-6.835 6.835,-6.835 3.776,0 6.835,3.061 6.835,6.835 0,3.774 -3.059,6.834 -6.835,6.834 m 0,-0.5 c 3.493,0 6.335,-2.841 6.335,-6.334 0,-3.493 -2.842,-6.335 -6.335,-6.335 -3.493,0 -6.335,2.842 -6.335,6.335 0,3.493 2.842,6.334 6.335,6.334" />
                    </g>
                  </g>
                </g>
              </g>
            </g>
          </g>
        </g>
      </g>
    </g>
  </g>
</svg>
