<?xml version="1.0" encoding="UTF-8" standalone="no"?>
<svg
   xmlns:dc="http://purl.org/dc/elements/1.1/"
   xmlns:cc="http://creativecommons.org/ns#"
   xmlns:rdf="http://www.w3.org/1999/02/22-rdf-syntax-ns#"
   xmlns:svg="http://www.w3.org/2000/svg"
   xmlns="http://www.w3.org/2000/svg"
   xmlns:sodipodi="http://sodipodi.sourceforge.net/DTD/sodipodi-0.dtd"
   xmlns:inkscape="http://www.inkscape.org/namespaces/inkscape"
   id="Lag_1"
   data-name="Lag 1"
   viewBox="0 0 60 380"
   version="1.1"
   sodipodi:docname="PT_60px.svg"
   inkscape:version="0.92.2 (5c3e80d, 2017-08-06)">
  <metadata
     id="metadata15">
    <rdf:RDF>
      <cc:Work
         rdf:about="">
        <dc:format>image/svg+xml</dc:format>
        <dc:type
           rdf:resource="http://purl.org/dc/dcmitype/StillImage" />
      </cc:Work>
    </rdf:RDF>
  </metadata>
  <sodipodi:namedview
     pagecolor="#ffffff"
     bordercolor="#666666"
     borderopacity="1"
     objecttolerance="10"
     gridtolerance="10"
     guidetolerance="10"
     inkscape:pageopacity="0"
     inkscape:pageshadow="2"
     inkscape:window-width="1366"
     inkscape:window-height="705"
     id="namedview13"
     showgrid="false"
     inkscape:zoom="2.2368421"
     inkscape:cx="-51.588235"
     inkscape:cy="190"
     inkscape:window-x="1912"
     inkscape:window-y="300"
     inkscape:window-maximized="1"
     inkscape:current-layer="Lag_1" />
  <defs
     id="defs4">
    <style
       id="style2">.cls-2{fill:#222221}</style>
  </defs>
  <path
     fill="#e3e1e1"
     d="M0 0h60v380H0z"
     id="path6" />
  <path
     class="cls-2"
     d="M24.5 173.52v-7.36h-7.22v23.27h7.22v-7.36h18.22v-8.55H24.5zM28.35 145.89v-.15l14.37-3.59v-8.62l-25.44-6.19v8.76l15.19 2.33v-.3l-15.19 3.19v8.95l15.19 2.95v-.3l-15.19 2.28v9.06l25.44-6.05v-8.62l-14.37-3.7zM42.72 124.69v-18.11H35.6v10.06h-2.37v-8.87h-6.64v8.87h-2.2v-9.45h-7.11v17.5h25.44zM32.44 88.16v4.13l-6.28-2.08zm10.28 16.49V95.6L39 94.34v-8.08l3.74-1.33v-9.31l-25.46 9.92v9.09zM17.28 58.61l9.38 6.79v.07h-9.38v8.26h25.44v-8.3H32.59v-.07l10.13-6.79V48.08L28.92 58.1l-11.64-9.55v10.06zM23.93 319.61a5.07 5.07 0 0 1 .09-.94 2.79 2.79 0 0 1 .3-.84 1.55 1.55 0 0 1 .6-.59 1.9 1.9 0 0 1 1-.22 1.75 1.75 0 0 1 1.64.81 3.42 3.42 0 0 1 .48 1.78v1.79h-4.11zm10.6-.61a16.14 16.14 0 0 0-.47-3.87 9.6 9.6 0 0 0-1.51-3.34 7.6 7.6 0 0 0-2.69-2.33 8.48 8.48 0 0 0-4-.88 8.45 8.45 0 0 0-4.11.9 7.14 7.14 0 0 0-2.62 2.37 9.71 9.71 0 0 0-1.41 3.34 17.86 17.86 0 0 0-.41 3.81v10.92h25.41v-8.52h-8.19zM32.44 294.4v4.14l-6.28-2.09zm10.28 16.5v-9.06L39 300.58v-8.08l3.74-1.33v-9.31l-25.44 9.92v9.09zM24.5 269.4v-6.25h-7.22v21.06h7.22v-6.26h18.22v-8.55H24.5zM35.48 261.57a13 13 0 0 0 4.24-2.95 13.17 13.17 0 0 0 2.75-4.4 15.14 15.14 0 0 0 1-5.41 14.9 14.9 0 0 0-1-5.71 12.72 12.72 0 0 0-2.74-4.24l-6.29 5.25a5.15 5.15 0 0 1 1.43 1.67 4.94 4.94 0 0 1 .62 2.53 5.29 5.29 0 0 1-.38 2 4.75 4.75 0 0 1-1.1 1.63 5.52 5.52 0 0 1-1.7 1.12 5.9 5.9 0 0 1-2.25.41 6.13 6.13 0 0 1-2.28-.4A5.15 5.15 0 0 1 26 252a4.69 4.69 0 0 1-1.1-1.64 5.33 5.33 0 0 1-.38-2 5.7 5.7 0 0 1 .48-2.46 4.51 4.51 0 0 1 1.42-1.79l-6.33-5.25a13.14 13.14 0 0 0-2.57 4.38 16.34 16.34 0 0 0-1 5.57 15.35 15.35 0 0 0 1 5.41 12.94 12.94 0 0 0 2.72 4.4 12.57 12.57 0 0 0 4.24 2.95 13.68 13.68 0 0 0 5.52 1.08 13.5 13.5 0 0 0 5.48-1.08M42.72 221.28v-8.55H17.28v8.59h8.62v6.97h-8.62v8.51h25.44v-8.55h-9.67v-6.97h9.67z"
     id="path8"
     style="fill:#222221;fill-opacity:1" />
</svg>
