<?xml version="1.0" encoding="UTF-8" standalone="no"?>
<svg
   xmlns:dc="http://purl.org/dc/elements/1.1/"
   xmlns:cc="http://creativecommons.org/ns#"
   xmlns:rdf="http://www.w3.org/1999/02/22-rdf-syntax-ns#"
   xmlns:svg="http://www.w3.org/2000/svg"
   xmlns="http://www.w3.org/2000/svg"
   xmlns:sodipodi="http://sodipodi.sourceforge.net/DTD/sodipodi-0.dtd"
   xmlns:inkscape="http://www.inkscape.org/namespaces/inkscape"
   version="1.1"
   id="Lag_1"
   x="0"
   y="0"
   viewBox="0 0 180 380"
   xml:space="preserve"
   sodipodi:docname="PT_quote04_180px.svg"
   inkscape:version="0.92.2 (5c3e80d, 2017-08-06)"><metadata
     id="metadata65"><rdf:RDF><cc:Work
         rdf:about=""><dc:format>image/svg+xml</dc:format><dc:type
           rdf:resource="http://purl.org/dc/dcmitype/StillImage" /><dc:title></dc:title></cc:Work></rdf:RDF></metadata><defs
     id="defs63" /><sodipodi:namedview
     pagecolor="#ffffff"
     bordercolor="#666666"
     borderopacity="1"
     objecttolerance="10"
     gridtolerance="10"
     guidetolerance="10"
     inkscape:pageopacity="0"
     inkscape:pageshadow="2"
     inkscape:window-width="1366"
     inkscape:window-height="705"
     id="namedview61"
     showgrid="false"
     inkscape:zoom="3.6843985"
     inkscape:cx="127.05689"
     inkscape:cy="294.2722"
     inkscape:window-x="1912"
     inkscape:window-y="300"
     inkscape:window-maximized="1"
     inkscape:current-layer="Lag_1" /><style
     id="style2">.st1{fill:#f9dc0a}.st2{fill:#007fc5}.st4{fill:#222221}.st5{fill:#af1d1f}.st6{enable-background:new}.st7{fill:#939392}.st8{fill:#ac1416}</style><path
     d="M0 0h180v380H0z"
     id="path4"
     fill="#e3e1e1" /><g
     class="st6"
     id="g46"
     style="fill:#222221;fill-opacity:1"><path
       class="st4"
       d="M12.6 222.6h2l-2.3 8.2H9.8l2.8-8.2zm5.8 0h2l-2.3 8.2h-2.5l2.8-8.2z"
       id="path44"
       style="fill:#222221;fill-opacity:1" /></g><path
     sodipodi:nodetypes="ccccccccccccccc"
     style="fill:#ac1416"
     inkscape:connector-curvature="0"
     id="path56"
     d="m 98.8,261 h -0.6 l 0.7,-2.6 h 0.8 z m 70.4,0 h -0.6 l 0.7,-2.6 h 0.8 z m 1.9,0 h -0.6 l 0.7,-2.6 h 0.8 z"
     class="st8" /><path
     inkscape:connector-curvature="0"
     class="st1"
     d="m 132.9,174.8 c -15.2,0 -32.9,-4.8 -51.399996,-19 -0.3,-0.2 -0.3,-0.6 -0.1,-0.9 0.2,-0.3 0.6,-0.3 0.8,-0.1 C 128.5,190.5 169.9,165.8 178.4,157.3 c 0.2,-0.3 0.6,-0.3 0.9,-0.1 0.3,0.2 0.3,0.6 0.1,0.9 l -0.1,0.1 c -5.3,5.3 -22.9,16.6 -46.4,16.6 z"
     id="path6"
     style="fill:#f9dc0a;fill-opacity:1" /><path
     inkscape:connector-curvature="0"
     class="st2"
     d="m 145.2,152 c -0.3,0 -0.6,0.2 -0.6,0.6 0,0.1 -0.5,6.2 -8.2,11.1 C 122.1,172.7 86.900004,176.6 0,144 v 1.3 c 52.200004,19.5 85.800004,25.9 107.5,25.9 14.6,0 23.8,-2.9 29.5,-6.6 8.2,-5.2 8.7,-11.7 8.7,-12 0.1,-0.3 -0.1,-0.6 -0.5,-0.6 z"
     id="path8"
     style="fill:#007fc5;fill-opacity:1" /><path
     inkscape:connector-curvature="0"
     d="m 37.3,160.5 c -0.3,0 -0.6,0.2 -0.7,0.6 0,0.5 -1.3,12.2 -24,12.2 -6.1,0 -10,-0.8 -12.6,-1.9 v 1.3 c 3.1,1.2 7.3,1.8 12.6,1.8 23.9,0 25.2,-12.8 25.2,-13.4 0.1,-0.3 -0.2,-0.6 -0.5,-0.6 z"
     id="path10"
     style="fill:#9c9b9b;fill-opacity:1" /><path
     inkscape:connector-curvature="0"
     class="st4"
     d="m 20.3,77.499997 v 7.2 h 7.2 V 102.7 H 36 V 84.699997 h 7.3 v -7.2 z m 52.600004,0 -2.1,14.2 -3,-14.2 h -8.8 l -2.8,14.2 -2.1,-14.2 h -9 l 6,25.200003 h 8.5 l 3.7,-14.200003 h 0.1 l 3.6,14.200003 h 8.5 l 6.1,-25.200003 z m 11.3,0 V 102.7 H 102.1 v -7.100003 h -9.999996 v -2.3 H 100.9 v -6.6 h -8.799996 v -2.1 H 101.5 v -7.1 z m 33.999996,8.8 2,6.2 h -4.1 z m -4.3,-8.8 L 104,102.6 h 8.9 l 1.2,-3.700003 h 8 L 123.4,102.6 h 9.2 l -9.8,-25.200003 h -8.9 z m 35.5,0 -6.7,9.3 h -0.1 v -9.3 h -8.1 V 102.7 h 8.2 V 92.599997 h 0.1 L 149.5,102.7 h 10.3 l -9.9,-13.700003 9.5,-11.5 z m -119,-24.1 c 0.3,0 0.6,0 0.9,0.1 0.3,0.1 0.6,0.2 0.8,0.3 0.2,0.1 0.4,0.3 0.6,0.6 0.2,0.3 0.2,0.7 0.2,1 0.1,0.6 -0.3,1.3 -0.8,1.6 -0.5,0.3 -1.1,0.5 -1.8,0.5 h -1.8 v -4.1 z m 0.6,10.5 c 1.3,0 2.6,-0.2 3.8,-0.5 1.2,-0.3 2.3,-0.8 3.3,-1.5 1,-0.7 1.7,-1.6 2.3,-2.7 0.6,-1.2 0.9,-2.6 0.9,-4 0.1,-1.4 -0.3,-2.8 -0.9,-4.1 -0.6,-1 -1.4,-1.9 -2.3,-2.6 -1,-0.7 -2.1,-1.1 -3.3,-1.4 -1.2,-0.3 -2.5,-0.4 -3.8,-0.4 H 20.3 v 25.3 h 8.4 v -8.1 z m 24.300004,-2.1 h -4.1 l 2.1,-6.2 z M 39,71.999997 h 9.000004 l 1.2,-3.7 h 8 l 1.3,3.7 h 9.2 l -9.8,-25.2 h -9 z m 41.000004,-18 h 6.2 v -7.2 h -20.8 v 7.2 h 6.2 v 17.9 h 8.4 z m 7.7,10.8 c 1.4,3.2 4,5.7 7.3,6.9 1.7,0.7 3.5,1 5.299996,1 1.9,0 3.8,-0.3 5.6,-1 1.6,-0.6 3,-1.5 4.2,-2.7 l -5.2,-6.2 c -0.4,0.6 -1,1.1 -1.7,1.4 -0.8,0.4 -1.6,0.6 -2.5,0.6 -0.7,0 -1.399996,-0.1 -1.999996,-0.4 -0.6,-0.2 -1.2,-0.6 -1.6,-1.1 -0.5,-0.5 -0.8,-1.1 -1.1,-1.7 -0.3,-0.7 -0.4,-1.5 -0.4,-2.2 0,-0.8 0.1,-1.5 0.4,-2.3 0.2,-0.6 0.6,-1.2 1.1,-1.7 0.5,-0.5 1,-0.8 1.6,-1.1 0.6,-0.3 1.299996,-0.4 1.999996,-0.4 0.8,0 1.6,0.2 2.4,0.5 0.7,0.3 1.3,0.8 1.8,1.4 l 5.2,-6.2 c -1.3,-1.1 -2.7,-2 -4.3,-2.5 -1.8,-0.6 -3.6,-0.9 -5.5,-0.9 -1.799996,0 -3.599996,0.3 -5.299996,0.9 -1.6,0.6 -3.1,1.5 -4.3,2.7 -1.2,1.2 -2.2,2.6 -2.9,4.2 -0.7,1.7 -1.1,3.6 -1.1,5.5 0,1.8 0.3,3.6 1,5.3 m 39.799996,7.1 h 8.4 v -25.1 h -8.4 v 8.5 h -6.9 v -8.5 h -8.4 v 25.1 h 8.4 v -9.5 h 6.9 z"
     id="path12"
     style="fill:#222221;fill-opacity:1" /><path
     inkscape:connector-curvature="0"
     class="st1"
     d="m 160.4,154.6 c -14.7,0 -25.5,-5.2 -34.2,-9.4 -13,-6.3 -21.6,-10.5 -33.799996,4.7 -0.2,0.3 -0.6,0.3 -0.9,0.1 -0.3,-0.2 -0.3,-0.6 -0.1,-0.9 C 104.2,133.2 113.6,137.7 126.7,144 c 8.6,4.2 19.3,9.3 33.7,9.3 0.3,0 0.6,0.3 0.6,0.6 0,0.3 -0.3,0.7 -0.6,0.7 z"
     id="path16"
     style="fill:#f9dc0a;fill-opacity:1" /><path
     inkscape:connector-curvature="0"
     class="st2"
     d="m 138.5,168 c -7.1,0 -15.4,-1.9 -25,-5.8 -7.7,-3.1 -14.999996,-6.9 -21.999996,-11.4 -0.3,-0.2 -0.4,-0.6 -0.2,-0.9 0.2,-0.3 0.6,-0.4 0.8,-0.2 0.4,0.2 38.399996,25.1 58.899996,14.1 8.7,-4.7 13.1,-15.2 13.1,-31.4 0,-0.3 0.3,-0.6 0.6,-0.6 0.3,0 0.6,0.3 0.6,0.6 0,16.6 -4.6,27.5 -13.8,32.4 -3.9,2.3 -8.4,3.3 -13,3.2 z"
     id="path18"
     style="fill:#007fc5;fill-opacity:1" /><path
     inkscape:connector-curvature="0"
     class="st1"
     d="m 58.000004,158.7 c -0.1,0 -0.2,0 -0.3,-0.1 -0.3,-0.2 -0.4,-0.5 -0.2,-0.8 1.2,-2 10.6,-12 16.3,-10.5 2.6,0.7 3.9,3.5 3.9,8.4 0,0.3 -0.3,0.6 -0.6,0.6 -0.3,0 -0.6,-0.3 -0.6,-0.6 0,-4.2 -1,-6.7 -3,-7.2 -4.7,-1.2 -13.8,7.9 -14.9,9.9 -0.2,0.2 -0.4,0.3 -0.6,0.3 z"
     id="path20"
     style="fill:#f9dc0a;fill-opacity:1" /><path
     inkscape:connector-curvature="0"
     class="st1"
     d="m 58.300004,169.7 c -4.9,0 -10,-2.5 -15.300004,-5.2 -9.1,-4.5 -18.5,-9.2 -26.8,-0.1 -0.2,0.3 -0.6,0.3 -0.9,0.1 -0.3,-0.2 -0.3,-0.6 -0.1,-0.9 l 0.1,-0.1 c 9,-9.8 18.8,-4.9 28.3,-0.2 6.600004,3.3 12.900004,6.4 18.500004,4.4 3.8,-1.4 7,-5 9.9,-11 0.1,-0.3 0.5,-0.5 0.8,-0.4 0.3,0.1 0.5,0.5 0.4,0.8 0,0 0,0.1 -0.1,0.1 -3,6.4 -6.4,10.2 -10.6,11.7 -1.3,0.6 -2.7,0.8 -4.2,0.8 z m 30.7,-15.1 c -0.1,0 -0.2,0 -0.3,-0.1 -0.3,-0.2 -0.4,-0.5 -0.2,-0.8 11.3,-20.1 24.999996,-31.1 40.699996,-32.8 26.6,-2.9 49.9,22.6 50.1,22.9 0.2,0.2 0.2,0.6 0,0.9 -0.3,0.2 -0.6,0.2 -0.9,-0.1 -0.2,-0.2 -23.1,-25.3 -49.1,-22.5 -15.2,1.7 -28.6,12.5 -39.699996,32.2 -0.2,0.2 -0.4,0.3 -0.6,0.3 z"
     id="path22"
     style="fill:#f9dc0a;fill-opacity:1" /><path
     inkscape:connector-curvature="0"
     class="st2"
     d="m 129.9,166.7 c -0.4,0 -0.6,-0.3 -0.6,-0.7 0,-0.5 5.4,-47.6 49.8,-43.4 0.3,0 0.6,0.3 0.6,0.7 0,0.4 -0.3,0.6 -0.7,0.6 -18.1,-1.7 -31.8,4.9 -40.6,19.6 -4.1,7 -6.8,14.7 -7.9,22.8 0,0.2 -0.2,0.4 -0.6,0.4 z"
     id="path24"
     style="fill:#007fc5;fill-opacity:1" /><path
     inkscape:connector-curvature="0"
     class="st5"
     d="m 131.9,137.7 c -0.3,-0.1 -0.7,0 -0.8,0.4 -3.8,10.7 -39.999996,15.4 -74.999996,20 C 34.6,160.9 14,163.6 0,167.6 v 1.3 c 14.2,-4.1 35.5,-6.9 56.300004,-9.6 37,-4.8 71.999996,-9.4 75.999996,-20.8 0.1,-0.4 -0.1,-0.7 -0.4,-0.8 z"
     id="path122"
     style="fill:#af1d1f;fill-opacity:1" /><path
     inkscape:connector-curvature="0"
     class="st2"
     d="m 27.2,154.6 c -0.3,0 -0.5,-0.2 -0.6,-0.4 -0.1,-0.4 -3.7,-10.2 1.5,-18.9 3.9,-6.4 11.4,-10.4 22.500004,-12 20,-2.7 42.8,2 58.499996,6.5 10,2.8 19.8,6.3 29.4,10.5 0.3,0.2 0.4,0.5 0.3,0.8 -0.1,0.3 -0.5,0.4 -0.8,0.3 -9.5,-4.1 -19.3,-7.5 -29.2,-10.4 C 93.300004,126.6 70.700004,121.8 50.800004,124.5 40.1,125.9 32.8,129.8 29.2,135.9 c -4.9,8.2 -1.5,17.8 -1.4,17.9 0.1,0.3 -0.1,0.7 -0.4,0.8 z"
     id="path124"
     style="fill:#007fc5;fill-opacity:1" /><path
     inkscape:connector-curvature="0"
     class="st5"
     d="M 179.9,132 C 136.5,124 97.700004,123.1 64.500004,129.2 49.600004,132 21.5,139.1 1.4,155.6 0.9,156 0.4,156.4 0,156.8 v 1.6 c 0.7,-0.6 1.4,-1.3 2.2,-1.9 19.9,-16.3 47.700004,-23.4 62.500004,-26.1 33.1,-6.1 71.799996,-5.2 115.199996,2.8 z"
     id="path126"
     style="fill:#af1d1f;fill-opacity:1" /><g
     aria-label="Music requires dedication,"
     style="font-style:normal;font-weight:normal;font-size:40px;line-height:1.25;font-family:sans-serif;letter-spacing:0px;word-spacing:0px;fill:#000000;fill-opacity:1;stroke:none"
     id="text879"><path
       d="m 29.124787,224.42798 h -1.217333 v 7.8352 h 0.7968 v -6.806 h 0.02213 l 2.833067,6.806 h 0.420533 l 2.833067,-6.806 h 0.02213 v 6.806 h 0.7968 v -7.8352 h -1.217333 l -2.6228,6.48507 h -0.01107 z"
       style="font-style:normal;font-variant:normal;font-weight:normal;font-stretch:normal;font-size:11.0666666px;font-family:'Avenir Next LT Pro';-inkscape-font-specification:'Avenir Next LT Pro, Normal';font-variant-ligatures:normal;font-variant-caps:normal;font-variant-numeric:normal;font-feature-settings:normal;text-align:start;writing-mode:lr-tb;text-anchor:start;fill:#ac1416;fill-opacity:1"
       id="path1009" /><path
       d="m 42.158208,232.26318 c -0.0332,-0.35413 -0.04427,-0.8632 -0.04427,-1.13986 v -4.03934 h -0.752534 v 2.656 c 0,1.38334 -0.774666,2.0252 -1.571466,2.0252 -1.084534,0 -1.405467,-0.7304 -1.405467,-1.81493 v -2.86627 h -0.752533 v 3.17614 c 0,1.28373 0.652933,2.13586 1.969866,2.13586 0.7304,0 1.482934,-0.42053 1.770667,-1.01813 h 0.02213 c 0,0.22133 0.02213,0.60867 0.04427,0.88533 z"
       style="font-style:normal;font-variant:normal;font-weight:normal;font-stretch:normal;font-size:11.0666666px;font-family:'Avenir Next LT Pro';-inkscape-font-specification:'Avenir Next LT Pro, Normal';font-variant-ligatures:normal;font-variant-caps:normal;font-variant-numeric:normal;font-feature-settings:normal;text-align:start;writing-mode:lr-tb;text-anchor:start;fill:#ac1416;fill-opacity:1"
       id="path1011" /><path
       d="m 47.426806,227.88078 c -0.332,-0.58653 -1.0956,-0.9296 -1.814934,-0.9296 -0.940666,0 -1.848133,0.45374 -1.848133,1.50507 0,0.98493 0.874267,1.25053 1.482933,1.3944 0.984934,0.2324 1.5272,0.45373 1.5272,0.996 0,0.67507 -0.575466,0.90747 -1.217333,0.90747 -0.608667,0 -1.173067,-0.35414 -1.438667,-0.80787 l -0.5976,0.44267 c 0.475867,0.6972 1.2616,1.00706 2.047334,1.00706 0.951733,0 1.947733,-0.42053 1.947733,-1.60466 0,-0.80787 -0.575467,-1.2616 -1.7928,-1.51614 -0.852133,-0.17706 -1.239467,-0.3984 -1.239467,-0.88533 0,-0.57547 0.553334,-0.80787 1.0956,-0.80787 0.575467,0 1.051334,0.2988 1.272667,0.7304 z"
       style="font-style:normal;font-variant:normal;font-weight:normal;font-stretch:normal;font-size:11.0666666px;font-family:'Avenir Next LT Pro';-inkscape-font-specification:'Avenir Next LT Pro, Normal';font-variant-ligatures:normal;font-variant-caps:normal;font-variant-numeric:normal;font-feature-settings:normal;text-align:start;writing-mode:lr-tb;text-anchor:start;fill:#ac1416;fill-opacity:1"
       id="path1013" /><path
       d="m 49.76585,227.08398 h -0.752533 v 5.1792 h 0.752533 z m 0.154934,-1.992 c 0,-0.30986 -0.2656,-0.5312 -0.5312,-0.5312 -0.2656,0 -0.5312,0.22134 -0.5312,0.5312 0,0.30987 0.2656,0.5312 0.5312,0.5312 0.2656,0 0.5312,-0.22133 0.5312,-0.5312 z"
       style="font-style:normal;font-variant:normal;font-weight:normal;font-stretch:normal;font-size:11.0666666px;font-family:'Avenir Next LT Pro';-inkscape-font-specification:'Avenir Next LT Pro, Normal';font-variant-ligatures:normal;font-variant-caps:normal;font-variant-numeric:normal;font-feature-settings:normal;text-align:start;writing-mode:lr-tb;text-anchor:start;fill:#ac1416;fill-opacity:1"
       id="path1015" /><path
       d="m 56.084917,227.84758 c -0.442667,-0.5976 -1.2284,-0.8964 -1.9256,-0.8964 -1.671067,0 -2.766667,1.162 -2.766667,2.7224 0,1.5604 1.0956,2.7224 2.766667,2.7224 0.8964,0 1.5272,-0.35413 1.969866,-0.8964 l -0.5644,-0.42053 c -0.2988,0.3984 -0.752533,0.67507 -1.405466,0.67507 -1.206267,0 -1.969867,-0.90747 -1.969867,-2.08054 0,-1.18413 0.774667,-2.0916 1.980933,-2.0916 0.5644,0 1.084534,0.28774 1.328,0.68614 z"
       style="font-style:normal;font-variant:normal;font-weight:normal;font-stretch:normal;font-size:11.0666666px;font-family:'Avenir Next LT Pro';-inkscape-font-specification:'Avenir Next LT Pro, Normal';font-variant-ligatures:normal;font-variant-caps:normal;font-variant-numeric:normal;font-feature-settings:normal;text-align:start;writing-mode:lr-tb;text-anchor:start;fill:#ac1416;fill-opacity:1"
       id="path1017" /><path
       d="m 60.068918,228.22385 v 4.03933 h 0.752533 v -2.656 c 0,-1.38333 0.719334,-1.9588 1.516134,-1.9588 0.1992,0 0.442666,0.0332 0.5312,0.0664 l 0.0996,-0.70826 c -0.154934,-0.0443 -0.309867,-0.0553 -0.498,-0.0553 -0.7304,0 -1.372267,0.42054 -1.66,1.01814 h -0.02213 c 0,-0.22134 -0.02213,-0.60867 -0.04427,-0.88534 h -0.719334 c 0.0332,0.35414 0.04427,0.8632 0.04427,1.13987 z"
       style="font-style:normal;font-variant:normal;font-weight:normal;font-stretch:normal;font-size:11.0666666px;font-family:'Avenir Next LT Pro';-inkscape-font-specification:'Avenir Next LT Pro, Normal';font-variant-ligatures:normal;font-variant-caps:normal;font-variant-numeric:normal;font-feature-settings:normal;text-align:start;writing-mode:lr-tb;text-anchor:start;fill:#ac1416;fill-opacity:1"
       id="path1019" /><path
       d="m 64.272002,229.27518 c 0.0664,-0.88533 0.807867,-1.6932 1.814933,-1.6932 1.073467,0 1.671067,0.71934 1.715334,1.6932 z m 4.293867,0.24347 c 0,-1.41653 -0.852134,-2.56747 -2.478934,-2.56747 -1.471866,0 -2.611733,1.162 -2.611733,2.7224 0,1.5604 1.139867,2.7224 2.678133,2.7224 0.852134,0 1.615734,-0.32093 2.2244,-1.0956 l -0.5644,-0.44266 c -0.287733,0.4648 -0.885333,0.8964 -1.66,0.8964 -1.0624,0 -1.870266,-0.84107 -1.8924,-1.88134 h 4.293867 c 0.01107,-0.1328 0.01107,-0.25453 0.01107,-0.35413 z"
       style="font-style:normal;font-variant:normal;font-weight:normal;font-stretch:normal;font-size:11.0666666px;font-family:'Avenir Next LT Pro';-inkscape-font-specification:'Avenir Next LT Pro, Normal';font-variant-ligatures:normal;font-variant-caps:normal;font-variant-numeric:normal;font-feature-settings:normal;text-align:start;writing-mode:lr-tb;text-anchor:start;fill:#ac1416;fill-opacity:1"
       id="path1021" /><path
       d="m 74.467341,231.38892 v 3.53026 h 0.752534 v -7.8352 h -0.752534 v 0.8964 h -0.0332 c -0.4316,-0.67506 -1.206266,-1.0292 -1.947733,-1.0292 -1.615733,0 -2.678133,1.1952 -2.678133,2.7224 0,1.5272 1.0624,2.7224 2.678133,2.7224 0.741467,0 1.516133,-0.3652 1.947733,-1.00706 z m -3.862266,-1.71534 c 0,-1.15093 0.708266,-2.0916 1.9588,-2.0916 1.162,0 1.992,0.90747 1.992,2.0916 0,1.18414 -0.83,2.08054 -1.992,2.08054 -1.250534,0 -1.9588,-0.9296 -1.9588,-2.08054 z"
       style="font-style:normal;font-variant:normal;font-weight:normal;font-stretch:normal;font-size:11.0666666px;font-family:'Avenir Next LT Pro';-inkscape-font-specification:'Avenir Next LT Pro, Normal';font-variant-ligatures:normal;font-variant-caps:normal;font-variant-numeric:normal;font-feature-settings:normal;text-align:start;writing-mode:lr-tb;text-anchor:start;fill:#ac1416;fill-opacity:1"
       id="path1023" /><path
       d="m 81.69128,232.26318 c -0.0332,-0.35413 -0.04427,-0.8632 -0.04427,-1.13986 v -4.03934 H 80.89448 v 2.656 c 0,1.38334 -0.774667,2.0252 -1.571467,2.0252 -1.084533,0 -1.405467,-0.7304 -1.405467,-1.81493 v -2.86627 h -0.752533 v 3.17614 c 0,1.28373 0.652933,2.13586 1.969867,2.13586 0.7304,0 1.482933,-0.42053 1.770666,-1.01813 h 0.02213 c 0,0.22133 0.02213,0.60867 0.04427,0.88533 z"
       style="font-style:normal;font-variant:normal;font-weight:normal;font-stretch:normal;font-size:11.0666666px;font-family:'Avenir Next LT Pro';-inkscape-font-specification:'Avenir Next LT Pro, Normal';font-variant-ligatures:normal;font-variant-caps:normal;font-variant-numeric:normal;font-feature-settings:normal;text-align:start;writing-mode:lr-tb;text-anchor:start;fill:#ac1416;fill-opacity:1"
       id="path1025" /><path
       d="m 84.392412,227.08398 h -0.752533 v 5.1792 h 0.752533 z m 0.154934,-1.992 c 0,-0.30986 -0.2656,-0.5312 -0.5312,-0.5312 -0.2656,0 -0.5312,0.22134 -0.5312,0.5312 0,0.30987 0.2656,0.5312 0.5312,0.5312 0.2656,0 0.5312,-0.22133 0.5312,-0.5312 z"
       style="font-style:normal;font-variant:normal;font-weight:normal;font-stretch:normal;font-size:11.0666666px;font-family:'Avenir Next LT Pro';-inkscape-font-specification:'Avenir Next LT Pro, Normal';font-variant-ligatures:normal;font-variant-caps:normal;font-variant-numeric:normal;font-feature-settings:normal;text-align:start;writing-mode:lr-tb;text-anchor:start;fill:#ac1416;fill-opacity:1"
       id="path1027" /><path
       d="m 86.395479,228.22385 v 4.03933 h 0.752533 v -2.656 c 0,-1.38333 0.719334,-1.9588 1.516134,-1.9588 0.1992,0 0.442666,0.0332 0.5312,0.0664 l 0.0996,-0.70826 c -0.154934,-0.0443 -0.309867,-0.0553 -0.498,-0.0553 -0.7304,0 -1.372267,0.42054 -1.66,1.01814 h -0.02213 c 0,-0.22134 -0.02213,-0.60867 -0.04427,-0.88534 h -0.719334 c 0.0332,0.35414 0.04427,0.8632 0.04427,1.13987 z"
       style="font-style:normal;font-variant:normal;font-weight:normal;font-stretch:normal;font-size:11.0666666px;font-family:'Avenir Next LT Pro';-inkscape-font-specification:'Avenir Next LT Pro, Normal';font-variant-ligatures:normal;font-variant-caps:normal;font-variant-numeric:normal;font-feature-settings:normal;text-align:start;writing-mode:lr-tb;text-anchor:start;fill:#ac1416;fill-opacity:1"
       id="path1029" /><path
       d="m 90.598563,229.27518 c 0.0664,-0.88533 0.807867,-1.6932 1.814933,-1.6932 1.073467,0 1.671067,0.71934 1.715334,1.6932 z m 4.293867,0.24347 c 0,-1.41653 -0.852134,-2.56747 -2.478934,-2.56747 -1.471866,0 -2.611733,1.162 -2.611733,2.7224 0,1.5604 1.139867,2.7224 2.678133,2.7224 0.852134,0 1.615734,-0.32093 2.2244,-1.0956 l -0.5644,-0.44266 c -0.287733,0.4648 -0.885333,0.8964 -1.66,0.8964 -1.0624,0 -1.870266,-0.84107 -1.8924,-1.88134 h 4.293867 c 0.01107,-0.1328 0.01107,-0.25453 0.01107,-0.35413 z"
       style="font-style:normal;font-variant:normal;font-weight:normal;font-stretch:normal;font-size:11.0666666px;font-family:'Avenir Next LT Pro';-inkscape-font-specification:'Avenir Next LT Pro, Normal';font-variant-ligatures:normal;font-variant-caps:normal;font-variant-numeric:normal;font-feature-settings:normal;text-align:start;writing-mode:lr-tb;text-anchor:start;fill:#ac1416;fill-opacity:1"
       id="path1031" /><path
       d="m 99.842173,227.88078 c -0.332,-0.58653 -1.0956,-0.9296 -1.814933,-0.9296 -0.940667,0 -1.848134,0.45374 -1.848134,1.50507 0,0.98493 0.874267,1.25053 1.482934,1.3944 0.984933,0.2324 1.5272,0.45373 1.5272,0.996 0,0.67507 -0.575467,0.90747 -1.217334,0.90747 -0.608666,0 -1.173066,-0.35414 -1.438666,-0.80787 l -0.5976,0.44267 c 0.475866,0.6972 1.2616,1.00706 2.047333,1.00706 0.951733,0 1.947733,-0.42053 1.947733,-1.60466 0,-0.80787 -0.575466,-1.2616 -1.7928,-1.51614 -0.852133,-0.17706 -1.239466,-0.3984 -1.239466,-0.88533 0,-0.57547 0.553333,-0.80787 1.0956,-0.80787 0.575466,0 1.051333,0.2988 1.272666,0.7304 z"
       style="font-style:normal;font-variant:normal;font-weight:normal;font-stretch:normal;font-size:11.0666666px;font-family:'Avenir Next LT Pro';-inkscape-font-specification:'Avenir Next LT Pro, Normal';font-variant-ligatures:normal;font-variant-caps:normal;font-variant-numeric:normal;font-feature-settings:normal;text-align:start;writing-mode:lr-tb;text-anchor:start;fill:#ac1416;fill-opacity:1"
       id="path1033" /><path
       d="m 108.44494,231.38892 h 0.0221 v 0.87426 h 0.75253 v -8.3664 h -0.75253 v 4.0836 h -0.0221 c -0.44266,-0.67506 -1.21733,-1.0292 -1.9588,-1.0292 -1.61573,0 -2.67813,1.1952 -2.67813,2.7224 0,1.5272 1.0624,2.7224 2.67813,2.7224 0.74147,0 1.51614,-0.35413 1.9588,-1.00706 z m -3.84013,-1.71534 c 0,-1.15093 0.70827,-2.0916 1.9588,-2.0916 1.162,0 1.992,0.90747 1.992,2.0916 0,1.18414 -0.83,2.08054 -1.992,2.08054 -1.25053,0 -1.9588,-0.9296 -1.9588,-2.08054 z"
       style="font-style:normal;font-variant:normal;font-weight:normal;font-stretch:normal;font-size:11.0666666px;font-family:'Avenir Next LT Pro';-inkscape-font-specification:'Avenir Next LT Pro, Normal';font-variant-ligatures:normal;font-variant-caps:normal;font-variant-numeric:normal;font-feature-settings:normal;text-align:start;writing-mode:lr-tb;text-anchor:start;fill:#ac1416;fill-opacity:1"
       id="path1035" /><path
       d="m 111.65117,229.27518 c 0.0664,-0.88533 0.80786,-1.6932 1.81493,-1.6932 1.07347,0 1.67107,0.71934 1.71533,1.6932 z m 4.29386,0.24347 c 0,-1.41653 -0.85213,-2.56747 -2.47893,-2.56747 -1.47187,0 -2.61173,1.162 -2.61173,2.7224 0,1.5604 1.13986,2.7224 2.67813,2.7224 0.85213,0 1.61573,-0.32093 2.2244,-1.0956 l -0.5644,-0.44266 c -0.28773,0.4648 -0.88533,0.8964 -1.66,0.8964 -1.0624,0 -1.87027,-0.84107 -1.8924,-1.88134 h 4.29387 c 0.0111,-0.1328 0.0111,-0.25453 0.0111,-0.35413 z"
       style="font-style:normal;font-variant:normal;font-weight:normal;font-stretch:normal;font-size:11.0666666px;font-family:'Avenir Next LT Pro';-inkscape-font-specification:'Avenir Next LT Pro, Normal';font-variant-ligatures:normal;font-variant-caps:normal;font-variant-numeric:normal;font-feature-settings:normal;text-align:start;writing-mode:lr-tb;text-anchor:start;fill:#ac1416;fill-opacity:1"
       id="path1037" /><path
       d="m 121.82438,231.38892 h 0.0221 v 0.87426 h 0.75253 v -8.3664 h -0.75253 v 4.0836 h -0.0221 c -0.44267,-0.67506 -1.21734,-1.0292 -1.9588,-1.0292 -1.61574,0 -2.67814,1.1952 -2.67814,2.7224 0,1.5272 1.0624,2.7224 2.67814,2.7224 0.74146,0 1.51613,-0.35413 1.9588,-1.00706 z m -3.84014,-1.71534 c 0,-1.15093 0.70827,-2.0916 1.9588,-2.0916 1.162,0 1.992,0.90747 1.992,2.0916 0,1.18414 -0.83,2.08054 -1.992,2.08054 -1.25053,0 -1.9588,-0.9296 -1.9588,-2.08054 z"
       style="font-style:normal;font-variant:normal;font-weight:normal;font-stretch:normal;font-size:11.0666666px;font-family:'Avenir Next LT Pro';-inkscape-font-specification:'Avenir Next LT Pro, Normal';font-variant-ligatures:normal;font-variant-caps:normal;font-variant-numeric:normal;font-feature-settings:normal;text-align:start;writing-mode:lr-tb;text-anchor:start;fill:#ac1416;fill-opacity:1"
       id="path1039" /><path
       d="m 125.37366,227.08398 h -0.75253 v 5.1792 h 0.75253 z m 0.15493,-1.992 c 0,-0.30986 -0.2656,-0.5312 -0.5312,-0.5312 -0.2656,0 -0.5312,0.22134 -0.5312,0.5312 0,0.30987 0.2656,0.5312 0.5312,0.5312 0.2656,0 0.5312,-0.22133 0.5312,-0.5312 z"
       style="font-style:normal;font-variant:normal;font-weight:normal;font-stretch:normal;font-size:11.0666666px;font-family:'Avenir Next LT Pro';-inkscape-font-specification:'Avenir Next LT Pro, Normal';font-variant-ligatures:normal;font-variant-caps:normal;font-variant-numeric:normal;font-feature-settings:normal;text-align:start;writing-mode:lr-tb;text-anchor:start;fill:#ac1416;fill-opacity:1"
       id="path1041" /><path
       d="m 131.69273,227.84758 c -0.44267,-0.5976 -1.2284,-0.8964 -1.9256,-0.8964 -1.67107,0 -2.76667,1.162 -2.76667,2.7224 0,1.5604 1.0956,2.7224 2.76667,2.7224 0.8964,0 1.5272,-0.35413 1.96987,-0.8964 l -0.5644,-0.42053 c -0.2988,0.3984 -0.75254,0.67507 -1.40547,0.67507 -1.20627,0 -1.96987,-0.90747 -1.96987,-2.08054 0,-1.18413 0.77467,-2.0916 1.98094,-2.0916 0.5644,0 1.08453,0.28774 1.328,0.68614 z"
       style="font-style:normal;font-variant:normal;font-weight:normal;font-stretch:normal;font-size:11.0666666px;font-family:'Avenir Next LT Pro';-inkscape-font-specification:'Avenir Next LT Pro, Normal';font-variant-ligatures:normal;font-variant-caps:normal;font-variant-numeric:normal;font-feature-settings:normal;text-align:start;writing-mode:lr-tb;text-anchor:start;fill:#ac1416;fill-opacity:1"
       id="path1043" /><path
       d="m 136.17473,229.08705 c -1.8924,0 -3.652,0.14387 -3.652,1.73747 0,1.15093 1.00707,1.57146 1.7928,1.57146 0.83,0 1.40547,-0.28773 1.88133,-0.97386 h 0.0221 c 0,0.27666 0.0332,0.58653 0.0775,0.84106 h 0.67507 c -0.0553,-0.28773 -0.0885,-0.7636 -0.0885,-1.162 v -2.26866 c 0,-1.2616 -0.8964,-1.88134 -2.01414,-1.88134 -0.88533,0 -1.61573,0.32094 -2.03626,0.74147 l 0.42053,0.498 c 0.3652,-0.3652 0.9296,-0.60867 1.53827,-0.60867 0.8964,0 1.38333,0.44267 1.38333,1.33907 z m 0,0.58653 v 0.38734 c 0,0.91853 -0.5976,1.71533 -1.66,1.71533 -0.58653,0 -1.21733,-0.24347 -1.21733,-0.98493 0,-0.98494 1.4276,-1.11774 2.656,-1.11774 z"
       style="font-style:normal;font-variant:normal;font-weight:normal;font-stretch:normal;font-size:11.0666666px;font-family:'Avenir Next LT Pro';-inkscape-font-specification:'Avenir Next LT Pro, Normal';font-variant-ligatures:normal;font-variant-caps:normal;font-variant-numeric:normal;font-feature-settings:normal;text-align:start;writing-mode:lr-tb;text-anchor:start;fill:#ac1416;fill-opacity:1"
       id="path1045" /><path
       d="m 141.03784,227.08398 h -1.4608 v -1.4608 h -0.75253 v 1.4608 h -1.07347 v 0.6308 h 1.07347 v 3.23147 c 0,1.13987 0.77466,1.38333 1.328,1.38333 0.34306,0 0.61973,-0.0553 0.88533,-0.15493 l -0.0332,-0.65293 c -0.1992,0.0996 -0.44267,0.166 -0.65293,0.166 -0.45374,0 -0.77467,-0.17707 -0.77467,-0.95174 v -3.0212 h 1.4608 z"
       style="font-style:normal;font-variant:normal;font-weight:normal;font-stretch:normal;font-size:11.0666666px;font-family:'Avenir Next LT Pro';-inkscape-font-specification:'Avenir Next LT Pro, Normal';font-variant-ligatures:normal;font-variant-caps:normal;font-variant-numeric:normal;font-feature-settings:normal;text-align:start;writing-mode:lr-tb;text-anchor:start;fill:#ac1416;fill-opacity:1"
       id="path1047" /><path
       d="m 142.96794,227.08398 h -0.75254 v 5.1792 h 0.75254 z m 0.15493,-1.992 c 0,-0.30986 -0.2656,-0.5312 -0.5312,-0.5312 -0.2656,0 -0.5312,0.22134 -0.5312,0.5312 0,0.30987 0.2656,0.5312 0.5312,0.5312 0.2656,0 0.5312,-0.22133 0.5312,-0.5312 z"
       style="font-style:normal;font-variant:normal;font-weight:normal;font-stretch:normal;font-size:11.0666666px;font-family:'Avenir Next LT Pro';-inkscape-font-specification:'Avenir Next LT Pro, Normal';font-variant-ligatures:normal;font-variant-caps:normal;font-variant-numeric:normal;font-feature-settings:normal;text-align:start;writing-mode:lr-tb;text-anchor:start;fill:#ac1416;fill-opacity:1"
       id="path1049" /><path
       d="m 150.117,229.67358 c 0,-1.5604 -1.15093,-2.7224 -2.76667,-2.7224 -1.60466,0 -2.7556,1.162 -2.7556,2.7224 0,1.5604 1.15094,2.7224 2.7556,2.7224 1.61574,0 2.76667,-1.162 2.76667,-2.7224 z m -0.7968,0 c 0,1.162 -0.7636,2.08054 -1.96987,2.08054 -1.1952,0 -1.9588,-0.91854 -1.9588,-2.08054 0,-1.162 0.7636,-2.0916 1.9588,-2.0916 1.20627,0 1.96987,0.9296 1.96987,2.0916 z"
       style="font-style:normal;font-variant:normal;font-weight:normal;font-stretch:normal;font-size:11.0666666px;font-family:'Avenir Next LT Pro';-inkscape-font-specification:'Avenir Next LT Pro, Normal';font-variant-ligatures:normal;font-variant-caps:normal;font-variant-numeric:normal;font-feature-settings:normal;text-align:start;writing-mode:lr-tb;text-anchor:start;fill:#ac1416;fill-opacity:1"
       id="path1051" /><path
       d="m 151.6921,227.08398 c 0.0332,0.35414 0.0443,0.8632 0.0443,1.13987 v 4.03933 h 0.75254 v -2.656 c 0,-1.38333 0.77466,-2.0252 1.57146,-2.0252 1.08454,0 1.40547,0.7304 1.40547,1.81494 v 2.86626 h 0.75253 v -3.17613 c 0,-1.28373 -0.65293,-2.13587 -1.96986,-2.13587 -0.7304,0 -1.48294,0.42054 -1.77067,1.01814 h -0.0221 c 0,-0.22134 -0.0221,-0.60867 -0.0443,-0.88534 z"
       style="font-style:normal;font-variant:normal;font-weight:normal;font-stretch:normal;font-size:11.0666666px;font-family:'Avenir Next LT Pro';-inkscape-font-specification:'Avenir Next LT Pro, Normal';font-variant-ligatures:normal;font-variant-caps:normal;font-variant-numeric:normal;font-feature-settings:normal;text-align:start;writing-mode:lr-tb;text-anchor:start;fill:#ac1416;fill-opacity:1"
       id="path1053" /><path
       d="m 159.1851,231.21185 h -0.78574 l -0.74146,2.60067 h 0.6308 z"
       style="font-style:normal;font-variant:normal;font-weight:normal;font-stretch:normal;font-size:11.0666666px;font-family:'Avenir Next LT Pro';-inkscape-font-specification:'Avenir Next LT Pro, Normal';font-variant-ligatures:normal;font-variant-caps:normal;font-variant-numeric:normal;font-feature-settings:normal;text-align:start;writing-mode:lr-tb;text-anchor:start;fill:#ac1416;fill-opacity:1"
       id="path1055" /></g><g
     aria-label="Caterina Barbieri"
     style="font-style:normal;font-weight:normal;font-size:40px;line-height:1.25;font-family:sans-serif;letter-spacing:0px;word-spacing:0px;fill:#93939a;fill-opacity:1;stroke:none"
     id="text1556"><path
       d="m 32.305082,280.83897 c -0.392,0.584 -1.016,0.84 -1.664,0.84 -1.456,0 -2.352,-1.152 -2.352,-2.472 0,-1.32 0.888,-2.472 2.352,-2.472 0.72,0 1.288,0.376 1.528,0.744 l 0.48,-0.352 c -0.392,-0.552 -1.184,-0.896 -2.016,-0.896 -1.688,0 -2.952,1.256 -2.952,2.976 0,1.72 1.24,2.976 2.952,2.976 1.016,0 1.744,-0.488 2.12,-1.056 z"
       style="font-style:normal;font-variant:normal;font-weight:normal;font-stretch:normal;font-size:8px;font-family:'Avenir Next LT Pro';-inkscape-font-specification:'Avenir Next LT Pro, Normal';font-variant-ligatures:normal;font-variant-caps:normal;font-variant-numeric:normal;font-feature-settings:normal;text-align:start;writing-mode:lr-tb;text-anchor:start;fill:#93939a;fill-opacity:1"
       id="path882" /><path
       d="m 35.938082,279.74297 c -1.368,0 -2.64,0.104 -2.64,1.256 0,0.832 0.728,1.136 1.296,1.136 0.6,0 1.016,-0.208 1.36,-0.704 h 0.016 c 0,0.2 0.024,0.424 0.056,0.608 h 0.488 c -0.04,-0.208 -0.064,-0.552 -0.064,-0.84 v -1.64 c 0,-0.912 -0.648,-1.36 -1.456,-1.36 -0.64,0 -1.168,0.232 -1.472,0.536 l 0.304,0.36 c 0.264,-0.264 0.672,-0.44 1.112,-0.44 0.648,0 1,0.32 1,0.968 z m 0,0.424 v 0.28 c 0,0.664 -0.432,1.24 -1.2,1.24 -0.424,0 -0.88,-0.176 -0.88,-0.712 0,-0.712 1.032,-0.808 1.92,-0.808 z"
       style="font-style:normal;font-variant:normal;font-weight:normal;font-stretch:normal;font-size:8px;font-family:'Avenir Next LT Pro';-inkscape-font-specification:'Avenir Next LT Pro, Normal';font-variant-ligatures:normal;font-variant-caps:normal;font-variant-numeric:normal;font-feature-settings:normal;text-align:start;writing-mode:lr-tb;text-anchor:start;fill:#93939a;fill-opacity:1"
       id="path884" /><path
       d="m 39.453582,278.29497 h -1.056 v -1.056 h -0.544 v 1.056 h -0.776 v 0.456 h 0.776 v 2.336 c 0,0.824 0.56,1 0.96,1 0.248,0 0.448,-0.04 0.64,-0.112 l -0.024,-0.472 c -0.144,0.072 -0.32,0.12 -0.472,0.12 -0.328,0 -0.56,-0.128 -0.56,-0.688 v -2.184 h 1.056 z"
       style="font-style:normal;font-variant:normal;font-weight:normal;font-stretch:normal;font-size:8px;font-family:'Avenir Next LT Pro';-inkscape-font-specification:'Avenir Next LT Pro, Normal';font-variant-ligatures:normal;font-variant-caps:normal;font-variant-numeric:normal;font-feature-settings:normal;text-align:start;writing-mode:lr-tb;text-anchor:start;fill:#93939a;fill-opacity:1"
       id="path886" /><path
       d="m 40.600832,279.87897 c 0.048,-0.64 0.584,-1.224 1.312,-1.224 0.776,0 1.208,0.52 1.24,1.224 z m 3.104,0.176 c 0,-1.024 -0.616,-1.856 -1.792,-1.856 -1.064,0 -1.888,0.84 -1.888,1.968 0,1.128 0.824,1.968 1.936,1.968 0.616,0 1.168,-0.232 1.608,-0.792 l -0.408,-0.32 c -0.208,0.336 -0.64,0.648 -1.2,0.648 -0.768,0 -1.352,-0.608 -1.368,-1.36 h 3.104 c 0.008,-0.096 0.008,-0.184 0.008,-0.256 z"
       style="font-style:normal;font-variant:normal;font-weight:normal;font-stretch:normal;font-size:8px;font-family:'Avenir Next LT Pro';-inkscape-font-specification:'Avenir Next LT Pro, Normal';font-variant-ligatures:normal;font-variant-caps:normal;font-variant-numeric:normal;font-feature-settings:normal;text-align:start;writing-mode:lr-tb;text-anchor:start;fill:#93939a;fill-opacity:1"
       id="path888" /><path
       d="m 44.874957,279.11897 v 2.92 h 0.544 v -1.92 c 0,-1 0.52,-1.416 1.096,-1.416 0.144,0 0.32,0.024 0.384,0.048 l 0.072,-0.512 c -0.112,-0.032 -0.224,-0.04 -0.36,-0.04 -0.528,0 -0.992,0.304 -1.2,0.736 h -0.016 c 0,-0.16 -0.016,-0.44 -0.032,-0.64 h -0.52 c 0.024,0.256 0.032,0.624 0.032,0.824 z"
       style="font-style:normal;font-variant:normal;font-weight:normal;font-stretch:normal;font-size:8px;font-family:'Avenir Next LT Pro';-inkscape-font-specification:'Avenir Next LT Pro, Normal';font-variant-ligatures:normal;font-variant-caps:normal;font-variant-numeric:normal;font-feature-settings:normal;text-align:start;writing-mode:lr-tb;text-anchor:start;fill:#93939a;fill-opacity:1"
       id="path890" /><path
       d="m 48.301957,278.29497 h -0.544 v 3.744 h 0.544 z m 0.112,-1.44 c 0,-0.224 -0.192,-0.384 -0.384,-0.384 -0.192,0 -0.384,0.16 -0.384,0.384 0,0.224 0.192,0.384 0.384,0.384 0.192,0 0.384,-0.16 0.384,-0.384 z"
       style="font-style:normal;font-variant:normal;font-weight:normal;font-stretch:normal;font-size:8px;font-family:'Avenir Next LT Pro';-inkscape-font-specification:'Avenir Next LT Pro, Normal';font-variant-ligatures:normal;font-variant-caps:normal;font-variant-numeric:normal;font-feature-settings:normal;text-align:start;writing-mode:lr-tb;text-anchor:start;fill:#93939a;fill-opacity:1"
       id="path892" /><path
       d="m 49.717957,278.29497 c 0.024,0.256 0.032,0.624 0.032,0.824 v 2.92 h 0.544 v -1.92 c 0,-1 0.56,-1.464 1.136,-1.464 0.784,0 1.016,0.528 1.016,1.312 v 2.072 h 0.544 v -2.296 c 0,-0.928 -0.472,-1.544 -1.424,-1.544 -0.528,0 -1.072,0.304 -1.28,0.736 h -0.016 c 0,-0.16 -0.016,-0.44 -0.032,-0.64 z"
       style="font-style:normal;font-variant:normal;font-weight:normal;font-stretch:normal;font-size:8px;font-family:'Avenir Next LT Pro';-inkscape-font-specification:'Avenir Next LT Pro, Normal';font-variant-ligatures:normal;font-variant-caps:normal;font-variant-numeric:normal;font-feature-settings:normal;text-align:start;writing-mode:lr-tb;text-anchor:start;fill:#93939a;fill-opacity:1"
       id="path894" /><path
       d="m 56.750582,279.74297 c -1.368,0 -2.64,0.104 -2.64,1.256 0,0.832 0.728,1.136 1.296,1.136 0.6,0 1.016,-0.208 1.36,-0.704 h 0.016 c 0,0.2 0.024,0.424 0.056,0.608 h 0.488 c -0.04,-0.208 -0.064,-0.552 -0.064,-0.84 v -1.64 c 0,-0.912 -0.648,-1.36 -1.456,-1.36 -0.64,0 -1.168,0.232 -1.472,0.536 l 0.304,0.36 c 0.264,-0.264 0.672,-0.44 1.112,-0.44 0.648,0 1,0.32 1,0.968 z m 0,0.424 v 0.28 c 0,0.664 -0.432,1.24 -1.2,1.24 -0.424,0 -0.88,-0.176 -0.88,-0.712 0,-0.712 1.032,-0.808 1.92,-0.808 z"
       style="font-style:normal;font-variant:normal;font-weight:normal;font-stretch:normal;font-size:8px;font-family:'Avenir Next LT Pro';-inkscape-font-specification:'Avenir Next LT Pro, Normal';font-variant-ligatures:normal;font-variant-caps:normal;font-variant-numeric:normal;font-feature-settings:normal;text-align:start;writing-mode:lr-tb;text-anchor:start;fill:#93939a;fill-opacity:1"
       id="path896" /><path
       d="m 60.688207,282.03897 h 1.68 c 1.304,0 2.112,-0.624 2.112,-1.568 0,-0.824 -0.544,-1.336 -1.28,-1.416 v -0.016 c 0.6,-0.136 1,-0.624 1,-1.216 0,-1.136 -0.96,-1.448 -1.824,-1.448 h -1.688 z m 0.576,-5.168 h 1 c 0.744,0 1.36,0.272 1.36,0.992 0,0.752 -0.648,0.992 -1.2,0.992 h -1.16 z m 0,2.456 h 1.176 c 0.92,0 1.456,0.368 1.456,1.112 0,0.792 -0.728,1.104 -1.56,1.104 h -1.072 z"
       style="font-style:normal;font-variant:normal;font-weight:normal;font-stretch:normal;font-size:8px;font-family:'Avenir Next LT Pro';-inkscape-font-specification:'Avenir Next LT Pro, Normal';font-variant-ligatures:normal;font-variant-caps:normal;font-variant-numeric:normal;font-feature-settings:normal;text-align:start;writing-mode:lr-tb;text-anchor:start;fill:#93939a;fill-opacity:1"
       id="path898" /><path
       d="m 68.109957,279.74297 c -1.368,0 -2.64,0.104 -2.64,1.256 0,0.832 0.728,1.136 1.296,1.136 0.6,0 1.016,-0.208 1.36,-0.704 h 0.016 c 0,0.2 0.024,0.424 0.056,0.608 h 0.488 c -0.04,-0.208 -0.064,-0.552 -0.064,-0.84 v -1.64 c 0,-0.912 -0.648,-1.36 -1.456,-1.36 -0.64,0 -1.168,0.232 -1.472,0.536 l 0.304,0.36 c 0.264,-0.264 0.672,-0.44 1.112,-0.44 0.648,0 1,0.32 1,0.968 z m 0,0.424 v 0.28 c 0,0.664 -0.432,1.24 -1.2,1.24 -0.424,0 -0.88,-0.176 -0.88,-0.712 0,-0.712 1.032,-0.808 1.92,-0.808 z"
       style="font-style:normal;font-variant:normal;font-weight:normal;font-stretch:normal;font-size:8px;font-family:'Avenir Next LT Pro';-inkscape-font-specification:'Avenir Next LT Pro, Normal';font-variant-ligatures:normal;font-variant-caps:normal;font-variant-numeric:normal;font-feature-settings:normal;text-align:start;writing-mode:lr-tb;text-anchor:start;fill:#93939a;fill-opacity:1"
       id="path900" /><path
       d="m 70.015582,279.11897 v 2.92 h 0.544 v -1.92 c 0,-1 0.52,-1.416 1.096,-1.416 0.144,0 0.32,0.024 0.384,0.048 l 0.072,-0.512 c -0.112,-0.032 -0.224,-0.04 -0.36,-0.04 -0.528,0 -0.992,0.304 -1.2,0.736 h -0.016 c 0,-0.16 -0.016,-0.44 -0.032,-0.64 h -0.52 c 0.024,0.256 0.032,0.624 0.032,0.824 z"
       style="font-style:normal;font-variant:normal;font-weight:normal;font-stretch:normal;font-size:8px;font-family:'Avenir Next LT Pro';-inkscape-font-specification:'Avenir Next LT Pro, Normal';font-variant-ligatures:normal;font-variant-caps:normal;font-variant-numeric:normal;font-feature-settings:normal;text-align:start;writing-mode:lr-tb;text-anchor:start;fill:#93939a;fill-opacity:1"
       id="path902" /><path
       d="m 73.466582,281.40697 c 0.32,0.472 0.88,0.728 1.416,0.728 1.168,0 1.936,-0.864 1.936,-1.968 0,-1.104 -0.768,-1.968 -1.936,-1.968 -0.536,0 -1.096,0.256 -1.416,0.744 h -0.016 v -2.952 h -0.544 v 6.048 h 0.544 v -0.632 z m 2.776,-1.24 c 0,0.832 -0.512,1.504 -1.416,1.504 -0.84,0 -1.44,-0.648 -1.44,-1.504 0,-0.856 0.6,-1.512 1.44,-1.512 0.904,0 1.416,0.68 1.416,1.512 z"
       style="font-style:normal;font-variant:normal;font-weight:normal;font-stretch:normal;font-size:8px;font-family:'Avenir Next LT Pro';-inkscape-font-specification:'Avenir Next LT Pro, Normal';font-variant-ligatures:normal;font-variant-caps:normal;font-variant-numeric:normal;font-feature-settings:normal;text-align:start;writing-mode:lr-tb;text-anchor:start;fill:#93939a;fill-opacity:1"
       id="path904" /><path
       d="m 78.536332,278.29497 h -0.544 v 3.744 h 0.544 z m 0.112,-1.44 c 0,-0.224 -0.192,-0.384 -0.384,-0.384 -0.192,0 -0.384,0.16 -0.384,0.384 0,0.224 0.192,0.384 0.384,0.384 0.192,0 0.384,-0.16 0.384,-0.384 z"
       style="font-style:normal;font-variant:normal;font-weight:normal;font-stretch:normal;font-size:8px;font-family:'Avenir Next LT Pro';-inkscape-font-specification:'Avenir Next LT Pro, Normal';font-variant-ligatures:normal;font-variant-caps:normal;font-variant-numeric:normal;font-feature-settings:normal;text-align:start;writing-mode:lr-tb;text-anchor:start;fill:#93939a;fill-opacity:1"
       id="path906" /><path
       d="m 80.288332,279.87897 c 0.048,-0.64 0.584,-1.224 1.312,-1.224 0.776,0 1.208,0.52 1.24,1.224 z m 3.104,0.176 c 0,-1.024 -0.616,-1.856 -1.792,-1.856 -1.064,0 -1.888,0.84 -1.888,1.968 0,1.128 0.824,1.968 1.936,1.968 0.616,0 1.168,-0.232 1.608,-0.792 l -0.408,-0.32 c -0.208,0.336 -0.64,0.648 -1.2,0.648 -0.768,0 -1.352,-0.608 -1.368,-1.36 h 3.104 c 0.008,-0.096 0.008,-0.184 0.008,-0.256 z"
       style="font-style:normal;font-variant:normal;font-weight:normal;font-stretch:normal;font-size:8px;font-family:'Avenir Next LT Pro';-inkscape-font-specification:'Avenir Next LT Pro, Normal';font-variant-ligatures:normal;font-variant-caps:normal;font-variant-numeric:normal;font-feature-settings:normal;text-align:start;writing-mode:lr-tb;text-anchor:start;fill:#93939a;fill-opacity:1"
       id="path908" /><path
       d="m 84.562457,279.11897 v 2.92 h 0.544 v -1.92 c 0,-1 0.52,-1.416 1.096,-1.416 0.144,0 0.32,0.024 0.384,0.048 l 0.072,-0.512 c -0.112,-0.032 -0.224,-0.04 -0.36,-0.04 -0.528,0 -0.992,0.304 -1.2,0.736 h -0.016 c 0,-0.16 -0.016,-0.44 -0.032,-0.64 h -0.52 c 0.024,0.256 0.032,0.624 0.032,0.824 z"
       style="font-style:normal;font-variant:normal;font-weight:normal;font-stretch:normal;font-size:8px;font-family:'Avenir Next LT Pro';-inkscape-font-specification:'Avenir Next LT Pro, Normal';font-variant-ligatures:normal;font-variant-caps:normal;font-variant-numeric:normal;font-feature-settings:normal;text-align:start;writing-mode:lr-tb;text-anchor:start;fill:#93939a;fill-opacity:1"
       id="path910" /><path
       d="m 87.989457,278.29497 h -0.544 v 3.744 h 0.544 z m 0.112,-1.44 c 0,-0.224 -0.192,-0.384 -0.384,-0.384 -0.192,0 -0.384,0.16 -0.384,0.384 0,0.224 0.192,0.384 0.384,0.384 0.192,0 0.384,-0.16 0.384,-0.384 z"
       style="font-style:normal;font-variant:normal;font-weight:normal;font-stretch:normal;font-size:8px;font-family:'Avenir Next LT Pro';-inkscape-font-specification:'Avenir Next LT Pro, Normal';font-variant-ligatures:normal;font-variant-caps:normal;font-variant-numeric:normal;font-feature-settings:normal;text-align:start;writing-mode:lr-tb;text-anchor:start;fill:#93939a;fill-opacity:1"
       id="path912" /></g><g
     aria-label="research and devotion, and"
     style="font-style:normal;font-weight:normal;font-size:40px;line-height:1.25;font-family:sans-serif;letter-spacing:0px;word-spacing:0px;fill:#000000;fill-opacity:1;stroke:none"
     id="text879-9"><path
       d="m 27.683576,245.00841 v 4.03933 h 0.752534 v -2.656 c 0,-1.38333 0.719333,-1.9588 1.516133,-1.9588 0.1992,0 0.442667,0.0332 0.5312,0.0664 l 0.0996,-0.70826 c -0.154933,-0.0443 -0.309867,-0.0553 -0.498,-0.0553 -0.7304,0 -1.372267,0.42054 -1.66,1.01814 h -0.02213 c 0,-0.22134 -0.02213,-0.60867 -0.04427,-0.88534 H 27.63931 c 0.0332,0.35414 0.04427,0.8632 0.04427,1.13987 z"
       style="font-style:normal;font-variant:normal;font-weight:normal;font-stretch:normal;font-size:11.0666666px;font-family:'Avenir Next LT Pro';-inkscape-font-specification:'Avenir Next LT Pro, Normal';font-variant-ligatures:normal;font-variant-caps:normal;font-variant-numeric:normal;font-feature-settings:normal;text-align:start;writing-mode:lr-tb;text-anchor:start;fill:#ac1416;fill-opacity:1"
       id="path962" /><path
       d="m 31.886662,246.05974 c 0.0664,-0.88533 0.807866,-1.6932 1.814933,-1.6932 1.073467,0 1.671067,0.71934 1.715333,1.6932 z m 4.293866,0.24347 c 0,-1.41653 -0.852133,-2.56747 -2.478933,-2.56747 -1.471867,0 -2.611733,1.162 -2.611733,2.7224 0,1.5604 1.139866,2.7224 2.678133,2.7224 0.852133,0 1.615733,-0.32093 2.2244,-1.0956 l -0.5644,-0.44266 c -0.287733,0.4648 -0.885333,0.8964 -1.66,0.8964 -1.0624,0 -1.870267,-0.84107 -1.8924,-1.88134 h 4.293867 c 0.01107,-0.1328 0.01107,-0.25453 0.01107,-0.35413 z"
       style="font-style:normal;font-variant:normal;font-weight:normal;font-stretch:normal;font-size:11.0666666px;font-family:'Avenir Next LT Pro';-inkscape-font-specification:'Avenir Next LT Pro, Normal';font-variant-ligatures:normal;font-variant-caps:normal;font-variant-numeric:normal;font-feature-settings:normal;text-align:start;writing-mode:lr-tb;text-anchor:start;fill:#ac1416;fill-opacity:1"
       id="path964" /><path
       d="m 41.130267,244.66534 c -0.332,-0.58653 -1.0956,-0.9296 -1.814933,-0.9296 -0.940667,0 -1.848133,0.45374 -1.848133,1.50507 0,0.98493 0.874266,1.25053 1.482933,1.3944 0.984933,0.2324 1.5272,0.45373 1.5272,0.996 0,0.67507 -0.575467,0.90747 -1.217333,0.90747 -0.608667,0 -1.173067,-0.35414 -1.438667,-0.80787 l -0.5976,0.44267 c 0.475867,0.6972 1.2616,1.00706 2.047333,1.00706 0.951734,0 1.947734,-0.42053 1.947734,-1.60466 0,-0.80787 -0.575467,-1.2616 -1.7928,-1.51614 -0.852134,-0.17706 -1.239467,-0.3984 -1.239467,-0.88533 0,-0.57547 0.553333,-0.80787 1.0956,-0.80787 0.575467,0 1.051333,0.2988 1.272667,0.7304 z"
       style="font-style:normal;font-variant:normal;font-weight:normal;font-stretch:normal;font-size:11.0666666px;font-family:'Avenir Next LT Pro';-inkscape-font-specification:'Avenir Next LT Pro, Normal';font-variant-ligatures:normal;font-variant-caps:normal;font-variant-numeric:normal;font-feature-settings:normal;text-align:start;writing-mode:lr-tb;text-anchor:start;fill:#ac1416;fill-opacity:1"
       id="path966" /><path
       d="m 43.126244,246.05974 c 0.0664,-0.88533 0.807867,-1.6932 1.814934,-1.6932 1.073466,0 1.671066,0.71934 1.715333,1.6932 z m 4.293867,0.24347 c 0,-1.41653 -0.852133,-2.56747 -2.478933,-2.56747 -1.471867,0 -2.611734,1.162 -2.611734,2.7224 0,1.5604 1.139867,2.7224 2.678134,2.7224 0.852133,0 1.615733,-0.32093 2.2244,-1.0956 l -0.5644,-0.44266 c -0.287734,0.4648 -0.885334,0.8964 -1.66,0.8964 -1.0624,0 -1.870267,-0.84107 -1.8924,-1.88134 h 4.293866 c 0.01107,-0.1328 0.01107,-0.25453 0.01107,-0.35413 z"
       style="font-style:normal;font-variant:normal;font-weight:normal;font-stretch:normal;font-size:11.0666666px;font-family:'Avenir Next LT Pro';-inkscape-font-specification:'Avenir Next LT Pro, Normal';font-variant-ligatures:normal;font-variant-caps:normal;font-variant-numeric:normal;font-feature-settings:normal;text-align:start;writing-mode:lr-tb;text-anchor:start;fill:#ac1416;fill-opacity:1"
       id="path968" /><path
       d="m 52.238606,245.87161 c -1.8924,0 -3.652,0.14387 -3.652,1.73747 0,1.15093 1.007067,1.57146 1.7928,1.57146 0.83,0 1.405467,-0.28773 1.881334,-0.97386 h 0.02213 c 0,0.27666 0.0332,0.58653 0.07747,0.84106 h 0.675066 c -0.05533,-0.28773 -0.08853,-0.7636 -0.08853,-1.162 v -2.26866 c 0,-1.2616 -0.8964,-1.88134 -2.014133,-1.88134 -0.885334,0 -1.615734,0.32094 -2.036267,0.74147 l 0.420533,0.498 c 0.3652,-0.3652 0.9296,-0.60867 1.538267,-0.60867 0.8964,0 1.383333,0.44267 1.383333,1.33907 z m 0,0.58653 v 0.38734 c 0,0.91853 -0.5976,1.71533 -1.66,1.71533 -0.586533,0 -1.217333,-0.24347 -1.217333,-0.98493 0,-0.98494 1.4276,-1.11774 2.656,-1.11774 z"
       style="font-style:normal;font-variant:normal;font-weight:normal;font-stretch:normal;font-size:11.0666666px;font-family:'Avenir Next LT Pro';-inkscape-font-specification:'Avenir Next LT Pro, Normal';font-variant-ligatures:normal;font-variant-caps:normal;font-variant-numeric:normal;font-feature-settings:normal;text-align:start;writing-mode:lr-tb;text-anchor:start;fill:#ac1416;fill-opacity:1"
       id="path970" /><path
       d="m 54.874721,245.00841 v 4.03933 h 0.752534 v -2.656 c 0,-1.38333 0.719333,-1.9588 1.516133,-1.9588 0.1992,0 0.442667,0.0332 0.5312,0.0664 l 0.0996,-0.70826 c -0.154933,-0.0443 -0.309867,-0.0553 -0.498,-0.0553 -0.7304,0 -1.372267,0.42054 -1.66,1.01814 h -0.02213 c 0,-0.22134 -0.02213,-0.60867 -0.04427,-0.88534 h -0.719333 c 0.0332,0.35414 0.04427,0.8632 0.04427,1.13987 z"
       style="font-style:normal;font-variant:normal;font-weight:normal;font-stretch:normal;font-size:11.0666666px;font-family:'Avenir Next LT Pro';-inkscape-font-specification:'Avenir Next LT Pro, Normal';font-variant-ligatures:normal;font-variant-caps:normal;font-variant-numeric:normal;font-feature-settings:normal;text-align:start;writing-mode:lr-tb;text-anchor:start;fill:#ac1416;fill-opacity:1"
       id="path972" /><path
       d="m 62.973274,244.63214 c -0.442667,-0.5976 -1.2284,-0.8964 -1.9256,-0.8964 -1.671067,0 -2.766667,1.162 -2.766667,2.7224 0,1.5604 1.0956,2.7224 2.766667,2.7224 0.8964,0 1.5272,-0.35413 1.969867,-0.8964 l -0.5644,-0.42053 c -0.2988,0.3984 -0.752534,0.67507 -1.405467,0.67507 -1.206267,0 -1.969867,-0.90747 -1.969867,-2.08054 0,-1.18413 0.774667,-2.0916 1.980934,-2.0916 0.5644,0 1.084533,0.28774 1.328,0.68614 z"
       style="font-style:normal;font-variant:normal;font-weight:normal;font-stretch:normal;font-size:11.0666666px;font-family:'Avenir Next LT Pro';-inkscape-font-specification:'Avenir Next LT Pro, Normal';font-variant-ligatures:normal;font-variant-caps:normal;font-variant-numeric:normal;font-feature-settings:normal;text-align:start;writing-mode:lr-tb;text-anchor:start;fill:#ac1416;fill-opacity:1"
       id="path974" /><path
       d="m 64.965273,244.72068 v -4.03934 H 64.21274 v 8.3664 h 0.752533 v -2.656 c 0,-1.38333 0.774667,-2.0252 1.571467,-2.0252 1.084533,0 1.405467,0.7304 1.405467,1.81494 v 2.86626 h 0.752533 v -3.17613 c 0,-1.28373 -0.652933,-2.13587 -1.969867,-2.13587 -0.7304,0 -1.4608,0.38734 -1.737466,0.98494 z"
       style="font-style:normal;font-variant:normal;font-weight:normal;font-stretch:normal;font-size:11.0666666px;font-family:'Avenir Next LT Pro';-inkscape-font-specification:'Avenir Next LT Pro, Normal';font-variant-ligatures:normal;font-variant-caps:normal;font-variant-numeric:normal;font-feature-settings:normal;text-align:start;writing-mode:lr-tb;text-anchor:start;fill:#ac1416;fill-opacity:1"
       id="path976" /><path
       d="m 76.684701,245.87161 c -1.8924,0 -3.652,0.14387 -3.652,1.73747 0,1.15093 1.007066,1.57146 1.7928,1.57146 0.83,0 1.405466,-0.28773 1.881333,-0.97386 h 0.02213 c 0,0.27666 0.0332,0.58653 0.07747,0.84106 h 0.675067 c -0.05533,-0.28773 -0.08853,-0.7636 -0.08853,-1.162 v -2.26866 c 0,-1.2616 -0.8964,-1.88134 -2.014133,-1.88134 -0.885333,0 -1.615733,0.32094 -2.036267,0.74147 l 0.420534,0.498 c 0.3652,-0.3652 0.9296,-0.60867 1.538266,-0.60867 0.8964,0 1.383334,0.44267 1.383334,1.33907 z m 0,0.58653 v 0.38734 c 0,0.91853 -0.5976,1.71533 -1.66,1.71533 -0.586534,0 -1.217334,-0.24347 -1.217334,-0.98493 0,-0.98494 1.4276,-1.11774 2.656,-1.11774 z"
       style="font-style:normal;font-variant:normal;font-weight:normal;font-stretch:normal;font-size:11.0666666px;font-family:'Avenir Next LT Pro';-inkscape-font-specification:'Avenir Next LT Pro, Normal';font-variant-ligatures:normal;font-variant-caps:normal;font-variant-numeric:normal;font-feature-settings:normal;text-align:start;writing-mode:lr-tb;text-anchor:start;fill:#ac1416;fill-opacity:1"
       id="path978" /><path
       d="m 79.276547,243.86854 c 0.0332,0.35414 0.04427,0.8632 0.04427,1.13987 v 4.03933 h 0.752533 v -2.656 c 0,-1.38333 0.774667,-2.0252 1.571467,-2.0252 1.084533,0 1.405466,0.7304 1.405466,1.81494 v 2.86626 h 0.752534 v -3.17613 c 0,-1.28373 -0.652934,-2.13587 -1.969867,-2.13587 -0.7304,0 -1.482933,0.42054 -1.770667,1.01814 h -0.02213 c 0,-0.22134 -0.02213,-0.60867 -0.04427,-0.88534 z"
       style="font-style:normal;font-variant:normal;font-weight:normal;font-stretch:normal;font-size:11.0666666px;font-family:'Avenir Next LT Pro';-inkscape-font-specification:'Avenir Next LT Pro, Normal';font-variant-ligatures:normal;font-variant-caps:normal;font-variant-numeric:normal;font-feature-settings:normal;text-align:start;writing-mode:lr-tb;text-anchor:start;fill:#ac1416;fill-opacity:1"
       id="path980" /><path
       d="m 90.001013,248.17348 h 0.02213 v 0.87426 h 0.752533 v -8.3664 h -0.752533 v 4.0836 h -0.02213 c -0.442666,-0.67506 -1.217333,-1.0292 -1.9588,-1.0292 -1.615733,0 -2.678133,1.1952 -2.678133,2.7224 0,1.5272 1.0624,2.7224 2.678133,2.7224 0.741467,0 1.516134,-0.35413 1.9588,-1.00706 z m -3.840133,-1.71534 c 0,-1.15093 0.708267,-2.0916 1.9588,-2.0916 1.162,0 1.992,0.90747 1.992,2.0916 0,1.18414 -0.83,2.08054 -1.992,2.08054 -1.250533,0 -1.9588,-0.9296 -1.9588,-2.08054 z"
       style="font-style:normal;font-variant:normal;font-weight:normal;font-stretch:normal;font-size:11.0666666px;font-family:'Avenir Next LT Pro';-inkscape-font-specification:'Avenir Next LT Pro, Normal';font-variant-ligatures:normal;font-variant-caps:normal;font-variant-numeric:normal;font-feature-settings:normal;text-align:start;writing-mode:lr-tb;text-anchor:start;fill:#ac1416;fill-opacity:1"
       id="path982" /><path
       d="m 99.814032,248.17348 h 0.02213 v 0.87426 h 0.752535 v -8.3664 h -0.752535 v 4.0836 h -0.02213 c -0.442667,-0.67506 -1.217333,-1.0292 -1.9588,-1.0292 -1.615733,0 -2.678133,1.1952 -2.678133,2.7224 0,1.5272 1.0624,2.7224 2.678133,2.7224 0.741467,0 1.516133,-0.35413 1.9588,-1.00706 z m -3.840133,-1.71534 c 0,-1.15093 0.708266,-2.0916 1.9588,-2.0916 1.162,0 1.992,0.90747 1.992,2.0916 0,1.18414 -0.83,2.08054 -1.992,2.08054 -1.250534,0 -1.9588,-0.9296 -1.9588,-2.08054 z"
       style="font-style:normal;font-variant:normal;font-weight:normal;font-stretch:normal;font-size:11.0666666px;font-family:'Avenir Next LT Pro';-inkscape-font-specification:'Avenir Next LT Pro, Normal';font-variant-ligatures:normal;font-variant-caps:normal;font-variant-numeric:normal;font-feature-settings:normal;text-align:start;writing-mode:lr-tb;text-anchor:start;fill:#ac1416;fill-opacity:1"
       id="path984" /><path
       d="m 103.02025,246.05974 c 0.0664,-0.88533 0.80787,-1.6932 1.81494,-1.6932 1.07346,0 1.67106,0.71934 1.71533,1.6932 z m 4.29387,0.24347 c 0,-1.41653 -0.85213,-2.56747 -2.47893,-2.56747 -1.47187,0 -2.61174,1.162 -2.61174,2.7224 0,1.5604 1.13987,2.7224 2.67814,2.7224 0.85213,0 1.61573,-0.32093 2.2244,-1.0956 l -0.5644,-0.44266 c -0.28774,0.4648 -0.88534,0.8964 -1.66,0.8964 -1.0624,0 -1.87027,-0.84107 -1.8924,-1.88134 h 4.29386 c 0.0111,-0.1328 0.0111,-0.25453 0.0111,-0.35413 z"
       style="font-style:normal;font-variant:normal;font-weight:normal;font-stretch:normal;font-size:11.0666666px;font-family:'Avenir Next LT Pro';-inkscape-font-specification:'Avenir Next LT Pro, Normal';font-variant-ligatures:normal;font-variant-caps:normal;font-variant-numeric:normal;font-feature-settings:normal;text-align:start;writing-mode:lr-tb;text-anchor:start;fill:#ac1416;fill-opacity:1"
       id="path986" /><path
       d="m 113.16026,243.86854 h -0.80786 l -1.6932,4.3824 h -0.0221 l -1.68213,-4.3824 h -0.84107 l 2.11374,5.1792 h 0.83 z"
       style="font-style:normal;font-variant:normal;font-weight:normal;font-stretch:normal;font-size:11.0666666px;font-family:'Avenir Next LT Pro';-inkscape-font-specification:'Avenir Next LT Pro, Normal';font-variant-ligatures:normal;font-variant-caps:normal;font-variant-numeric:normal;font-feature-settings:normal;text-align:start;writing-mode:lr-tb;text-anchor:start;fill:#ac1416;fill-opacity:1"
       id="path988" /><path
       d="m 119.48244,246.45814 c 0,-1.5604 -1.15093,-2.7224 -2.76667,-2.7224 -1.60466,0 -2.7556,1.162 -2.7556,2.7224 0,1.5604 1.15094,2.7224 2.7556,2.7224 1.61574,0 2.76667,-1.162 2.76667,-2.7224 z m -0.7968,0 c 0,1.162 -0.7636,2.08054 -1.96987,2.08054 -1.1952,0 -1.9588,-0.91854 -1.9588,-2.08054 0,-1.162 0.7636,-2.0916 1.9588,-2.0916 1.20627,0 1.96987,0.9296 1.96987,2.0916 z"
       style="font-style:normal;font-variant:normal;font-weight:normal;font-stretch:normal;font-size:11.0666666px;font-family:'Avenir Next LT Pro';-inkscape-font-specification:'Avenir Next LT Pro, Normal';font-variant-ligatures:normal;font-variant-caps:normal;font-variant-numeric:normal;font-feature-settings:normal;text-align:start;writing-mode:lr-tb;text-anchor:start;fill:#ac1416;fill-opacity:1"
       id="path990" /><path
       d="m 123.43687,243.86854 h -1.4608 v -1.4608 h -0.75253 v 1.4608 h -1.07347 v 0.6308 h 1.07347 v 3.23147 c 0,1.13987 0.77466,1.38333 1.328,1.38333 0.34306,0 0.61973,-0.0553 0.88533,-0.15493 l -0.0332,-0.65293 c -0.1992,0.0996 -0.44267,0.166 -0.65293,0.166 -0.45374,0 -0.77467,-0.17707 -0.77467,-0.95174 v -3.0212 h 1.4608 z"
       style="font-style:normal;font-variant:normal;font-weight:normal;font-stretch:normal;font-size:11.0666666px;font-family:'Avenir Next LT Pro';-inkscape-font-specification:'Avenir Next LT Pro, Normal';font-variant-ligatures:normal;font-variant-caps:normal;font-variant-numeric:normal;font-feature-settings:normal;text-align:start;writing-mode:lr-tb;text-anchor:start;fill:#ac1416;fill-opacity:1"
       id="path992" /><path
       d="m 125.36697,243.86854 h -0.75253 v 5.1792 h 0.75253 z m 0.15493,-1.992 c 0,-0.30986 -0.2656,-0.5312 -0.5312,-0.5312 -0.2656,0 -0.5312,0.22134 -0.5312,0.5312 0,0.30987 0.2656,0.5312 0.5312,0.5312 0.2656,0 0.5312,-0.22133 0.5312,-0.5312 z"
       style="font-style:normal;font-variant:normal;font-weight:normal;font-stretch:normal;font-size:11.0666666px;font-family:'Avenir Next LT Pro';-inkscape-font-specification:'Avenir Next LT Pro, Normal';font-variant-ligatures:normal;font-variant-caps:normal;font-variant-numeric:normal;font-feature-settings:normal;text-align:start;writing-mode:lr-tb;text-anchor:start;fill:#ac1416;fill-opacity:1"
       id="path994" /><path
       d="m 132.51603,246.45814 c 0,-1.5604 -1.15093,-2.7224 -2.76667,-2.7224 -1.60466,0 -2.7556,1.162 -2.7556,2.7224 0,1.5604 1.15094,2.7224 2.7556,2.7224 1.61574,0 2.76667,-1.162 2.76667,-2.7224 z m -0.7968,0 c 0,1.162 -0.7636,2.08054 -1.96987,2.08054 -1.1952,0 -1.9588,-0.91854 -1.9588,-2.08054 0,-1.162 0.7636,-2.0916 1.9588,-2.0916 1.20627,0 1.96987,0.9296 1.96987,2.0916 z"
       style="font-style:normal;font-variant:normal;font-weight:normal;font-stretch:normal;font-size:11.0666666px;font-family:'Avenir Next LT Pro';-inkscape-font-specification:'Avenir Next LT Pro, Normal';font-variant-ligatures:normal;font-variant-caps:normal;font-variant-numeric:normal;font-feature-settings:normal;text-align:start;writing-mode:lr-tb;text-anchor:start;fill:#ac1416;fill-opacity:1"
       id="path996" /><path
       d="m 134.09113,243.86854 c 0.0332,0.35414 0.0443,0.8632 0.0443,1.13987 v 4.03933 h 0.75253 v -2.656 c 0,-1.38333 0.77467,-2.0252 1.57147,-2.0252 1.08453,0 1.40546,0.7304 1.40546,1.81494 v 2.86626 h 0.75254 v -3.17613 c 0,-1.28373 -0.65294,-2.13587 -1.96987,-2.13587 -0.7304,0 -1.48293,0.42054 -1.77067,1.01814 h -0.0221 c 0,-0.22134 -0.0221,-0.60867 -0.0443,-0.88534 z"
       style="font-style:normal;font-variant:normal;font-weight:normal;font-stretch:normal;font-size:11.0666666px;font-family:'Avenir Next LT Pro';-inkscape-font-specification:'Avenir Next LT Pro, Normal';font-variant-ligatures:normal;font-variant-caps:normal;font-variant-numeric:normal;font-feature-settings:normal;text-align:start;writing-mode:lr-tb;text-anchor:start;fill:#ac1416;fill-opacity:1"
       id="path998" /><path
       d="m 141.58413,247.99641 h -0.78573 l -0.74147,2.60067 h 0.6308 z"
       style="font-style:normal;font-variant:normal;font-weight:normal;font-stretch:normal;font-size:11.0666666px;font-family:'Avenir Next LT Pro';-inkscape-font-specification:'Avenir Next LT Pro, Normal';font-variant-ligatures:normal;font-variant-caps:normal;font-variant-numeric:normal;font-feature-settings:normal;text-align:start;writing-mode:lr-tb;text-anchor:start;fill:#ac1416;fill-opacity:1"
       id="path1000" /><path
       d="m 149.13678,245.87161 c -1.8924,0 -3.652,0.14387 -3.652,1.73747 0,1.15093 1.00707,1.57146 1.7928,1.57146 0.83,0 1.40547,-0.28773 1.88133,-0.97386 h 0.0221 c 0,0.27666 0.0332,0.58653 0.0775,0.84106 h 0.67507 c -0.0553,-0.28773 -0.0885,-0.7636 -0.0885,-1.162 v -2.26866 c 0,-1.2616 -0.8964,-1.88134 -2.01414,-1.88134 -0.88533,0 -1.61573,0.32094 -2.03626,0.74147 l 0.42053,0.498 c 0.3652,-0.3652 0.9296,-0.60867 1.53827,-0.60867 0.8964,0 1.38333,0.44267 1.38333,1.33907 z m 0,0.58653 v 0.38734 c 0,0.91853 -0.5976,1.71533 -1.66,1.71533 -0.58653,0 -1.21733,-0.24347 -1.21733,-0.98493 0,-0.98494 1.4276,-1.11774 2.656,-1.11774 z"
       style="font-style:normal;font-variant:normal;font-weight:normal;font-stretch:normal;font-size:11.0666666px;font-family:'Avenir Next LT Pro';-inkscape-font-specification:'Avenir Next LT Pro, Normal';font-variant-ligatures:normal;font-variant-caps:normal;font-variant-numeric:normal;font-feature-settings:normal;text-align:start;writing-mode:lr-tb;text-anchor:start;fill:#ac1416;fill-opacity:1"
       id="path1002" /><path
       d="m 151.72863,243.86854 c 0.0332,0.35414 0.0443,0.8632 0.0443,1.13987 v 4.03933 h 0.75253 v -2.656 c 0,-1.38333 0.77467,-2.0252 1.57147,-2.0252 1.08453,0 1.40547,0.7304 1.40547,1.81494 v 2.86626 h 0.75253 v -3.17613 c 0,-1.28373 -0.65293,-2.13587 -1.96987,-2.13587 -0.7304,0 -1.48293,0.42054 -1.77066,1.01814 h -0.0221 c 0,-0.22134 -0.0221,-0.60867 -0.0443,-0.88534 z"
       style="font-style:normal;font-variant:normal;font-weight:normal;font-stretch:normal;font-size:11.0666666px;font-family:'Avenir Next LT Pro';-inkscape-font-specification:'Avenir Next LT Pro, Normal';font-variant-ligatures:normal;font-variant-caps:normal;font-variant-numeric:normal;font-feature-settings:normal;text-align:start;writing-mode:lr-tb;text-anchor:start;fill:#ac1416;fill-opacity:1"
       id="path1004" /><path
       d="m 162.45309,248.17348 h 0.0221 v 0.87426 h 0.75253 v -8.3664 h -0.75253 v 4.0836 h -0.0221 c -0.44266,-0.67506 -1.21733,-1.0292 -1.9588,-1.0292 -1.61573,0 -2.67813,1.1952 -2.67813,2.7224 0,1.5272 1.0624,2.7224 2.67813,2.7224 0.74147,0 1.51614,-0.35413 1.9588,-1.00706 z m -3.84013,-1.71534 c 0,-1.15093 0.70827,-2.0916 1.9588,-2.0916 1.162,0 1.992,0.90747 1.992,2.0916 0,1.18414 -0.83,2.08054 -1.992,2.08054 -1.25053,0 -1.9588,-0.9296 -1.9588,-2.08054 z"
       style="font-style:normal;font-variant:normal;font-weight:normal;font-stretch:normal;font-size:11.0666666px;font-family:'Avenir Next LT Pro';-inkscape-font-specification:'Avenir Next LT Pro, Normal';font-variant-ligatures:normal;font-variant-caps:normal;font-variant-numeric:normal;font-feature-settings:normal;text-align:start;writing-mode:lr-tb;text-anchor:start;fill:#ac1416;fill-opacity:1"
       id="path1006" /></g><g
     aria-label="modulars don t change that."
     style="font-style:normal;font-weight:normal;font-size:40px;line-height:1.25;font-family:sans-serif;letter-spacing:0px;word-spacing:0px;fill:#000000;fill-opacity:1;stroke:none"
     id="text879-4"><path
       d="m 28.425041,261.85301 h -0.02213 c 0,-0.22133 -0.02213,-0.60866 -0.04427,-0.88533 h -0.719333 c 0.0332,0.35413 0.04427,0.8632 0.04427,1.13987 v 4.03933 h 0.752534 v -2.656 c 0,-1.38333 0.785733,-2.0252 1.505066,-2.0252 1.007067,0 1.250534,0.65293 1.250534,1.66 v 3.0212 h 0.752533 v -2.7556 c 0,-0.9628 0.387333,-1.9256 1.471867,-1.9256 0.973866,0 1.339066,0.7304 1.339066,1.81493 v 2.86627 h 0.752534 v -3.17613 c 0,-1.28374 -0.652934,-2.13587 -1.969867,-2.13587 -0.83,0 -1.4608,0.38733 -1.814933,1.0956 -0.343067,-0.88533 -1.0292,-1.0956 -1.5936,-1.0956 -0.741467,0 -1.405467,0.42053 -1.704267,1.01813 z"
       style="font-style:normal;font-variant:normal;font-weight:normal;font-stretch:normal;font-size:11.0666666px;font-family:'Avenir Next LT Pro';-inkscape-font-specification:'Avenir Next LT Pro, Normal';font-variant-ligatures:normal;font-variant-caps:normal;font-variant-numeric:normal;font-feature-settings:normal;text-align:start;writing-mode:lr-tb;text-anchor:start;fill:#ac1416;fill-opacity:1"
       id="path915" /><path
       d="m 42.599366,263.55728 c 0,-1.5604 -1.150933,-2.7224 -2.766667,-2.7224 -1.604666,0 -2.7556,1.162 -2.7556,2.7224 0,1.5604 1.150934,2.7224 2.7556,2.7224 1.615734,0 2.766667,-1.162 2.766667,-2.7224 z m -0.7968,0 c 0,1.162 -0.7636,2.08053 -1.969867,2.08053 -1.1952,0 -1.9588,-0.91853 -1.9588,-2.08053 0,-1.162 0.7636,-2.0916 1.9588,-2.0916 1.206267,0 1.969867,0.9296 1.969867,2.0916 z"
       style="font-style:normal;font-variant:normal;font-weight:normal;font-stretch:normal;font-size:11.0666666px;font-family:'Avenir Next LT Pro';-inkscape-font-specification:'Avenir Next LT Pro, Normal';font-variant-ligatures:normal;font-variant-caps:normal;font-variant-numeric:normal;font-feature-settings:normal;text-align:start;writing-mode:lr-tb;text-anchor:start;fill:#ac1416;fill-opacity:1"
       id="path917" /><path
       d="m 48.479397,265.27261 h 0.02213 v 0.87427 h 0.752533 v -8.3664 h -0.752533 v 4.0836 h -0.02213 c -0.442666,-0.67507 -1.217333,-1.0292 -1.9588,-1.0292 -1.615733,0 -2.678133,1.1952 -2.678133,2.7224 0,1.5272 1.0624,2.7224 2.678133,2.7224 0.741467,0 1.516134,-0.35413 1.9588,-1.00707 z m -3.840133,-1.71533 c 0,-1.15093 0.708267,-2.0916 1.9588,-2.0916 1.162,0 1.992,0.90747 1.992,2.0916 0,1.18413 -0.83,2.08053 -1.992,2.08053 -1.250533,0 -1.9588,-0.9296 -1.9588,-2.08053 z"
       style="font-style:normal;font-variant:normal;font-weight:normal;font-stretch:normal;font-size:11.0666666px;font-family:'Avenir Next LT Pro';-inkscape-font-specification:'Avenir Next LT Pro, Normal';font-variant-ligatures:normal;font-variant-caps:normal;font-variant-numeric:normal;font-feature-settings:normal;text-align:start;writing-mode:lr-tb;text-anchor:start;fill:#ac1416;fill-opacity:1"
       id="path919" /><path
       d="m 55.747085,266.14688 c -0.0332,-0.35413 -0.04427,-0.8632 -0.04427,-1.13987 v -4.03933 h -0.752533 v 2.656 c 0,1.38333 -0.774667,2.0252 -1.571467,2.0252 -1.084533,0 -1.405466,-0.7304 -1.405466,-1.81493 v -2.86627 h -0.752534 v 3.17613 c 0,1.28374 0.652934,2.13587 1.969867,2.13587 0.7304,0 1.482933,-0.42053 1.770667,-1.01813 h 0.02213 c 0,0.22133 0.02213,0.60866 0.04427,0.88533 z"
       style="font-style:normal;font-variant:normal;font-weight:normal;font-stretch:normal;font-size:11.0666666px;font-family:'Avenir Next LT Pro';-inkscape-font-specification:'Avenir Next LT Pro, Normal';font-variant-ligatures:normal;font-variant-caps:normal;font-variant-numeric:normal;font-feature-settings:normal;text-align:start;writing-mode:lr-tb;text-anchor:start;fill:#ac1416;fill-opacity:1"
       id="path921" /><path
       d="m 58.459282,257.78048 h -0.752533 v 8.3664 h 0.752533 z"
       style="font-style:normal;font-variant:normal;font-weight:normal;font-stretch:normal;font-size:11.0666666px;font-family:'Avenir Next LT Pro';-inkscape-font-specification:'Avenir Next LT Pro, Normal';font-variant-ligatures:normal;font-variant-caps:normal;font-variant-numeric:normal;font-feature-settings:normal;text-align:start;writing-mode:lr-tb;text-anchor:start;fill:#ac1416;fill-opacity:1"
       id="path923" /><path
       d="m 63.737563,262.97075 c -1.8924,0 -3.652,0.14386 -3.652,1.73746 0,1.15094 1.007067,1.57147 1.7928,1.57147 0.83,0 1.405467,-0.28773 1.881333,-0.97387 h 0.02213 c 0,0.27667 0.0332,0.58654 0.07747,0.84107 h 0.675067 c -0.05533,-0.28773 -0.08853,-0.7636 -0.08853,-1.162 v -2.26867 c 0,-1.2616 -0.8964,-1.88133 -2.014134,-1.88133 -0.885333,0 -1.615733,0.32093 -2.036266,0.74147 l 0.420533,0.498 c 0.3652,-0.3652 0.9296,-0.60867 1.538267,-0.60867 0.8964,0 1.383333,0.44267 1.383333,1.33907 z m 0,0.58653 v 0.38733 c 0,0.91854 -0.5976,1.71534 -1.66,1.71534 -0.586533,0 -1.217333,-0.24347 -1.217333,-0.98494 0,-0.98493 1.4276,-1.11773 2.656,-1.11773 z"
       style="font-style:normal;font-variant:normal;font-weight:normal;font-stretch:normal;font-size:11.0666666px;font-family:'Avenir Next LT Pro';-inkscape-font-specification:'Avenir Next LT Pro, Normal';font-variant-ligatures:normal;font-variant-caps:normal;font-variant-numeric:normal;font-feature-settings:normal;text-align:start;writing-mode:lr-tb;text-anchor:start;fill:#ac1416;fill-opacity:1"
       id="path925" /><path
       d="m 66.37368,262.10755 v 4.03933 h 0.752533 v -2.656 c 0,-1.38333 0.719333,-1.9588 1.516133,-1.9588 0.1992,0 0.442667,0.0332 0.5312,0.0664 l 0.0996,-0.70827 c -0.154933,-0.0443 -0.309866,-0.0553 -0.498,-0.0553 -0.7304,0 -1.372266,0.42053 -1.66,1.01813 h -0.02213 c 0,-0.22133 -0.02213,-0.60866 -0.04427,-0.88533 h -0.719333 c 0.0332,0.35413 0.04427,0.8632 0.04427,1.13987 z"
       style="font-style:normal;font-variant:normal;font-weight:normal;font-stretch:normal;font-size:11.0666666px;font-family:'Avenir Next LT Pro';-inkscape-font-specification:'Avenir Next LT Pro, Normal';font-variant-ligatures:normal;font-variant-caps:normal;font-variant-numeric:normal;font-feature-settings:normal;text-align:start;writing-mode:lr-tb;text-anchor:start;fill:#ac1416;fill-opacity:1"
       id="path927" /><path
       d="m 73.681828,261.76448 c -0.332,-0.58653 -1.0956,-0.9296 -1.814934,-0.9296 -0.940666,0 -1.848133,0.45373 -1.848133,1.50507 0,0.98493 0.874267,1.25053 1.482933,1.3944 0.984934,0.2324 1.5272,0.45373 1.5272,0.996 0,0.67506 -0.575466,0.90746 -1.217333,0.90746 -0.608667,0 -1.173067,-0.35413 -1.438667,-0.80786 l -0.5976,0.44266 c 0.475867,0.6972 1.2616,1.00707 2.047334,1.00707 0.951733,0 1.947733,-0.42053 1.947733,-1.60467 0,-0.80786 -0.575467,-1.2616 -1.7928,-1.51613 -0.852133,-0.17707 -1.239467,-0.3984 -1.239467,-0.88533 0,-0.57547 0.553334,-0.80787 1.0956,-0.80787 0.575467,0 1.051334,0.2988 1.272667,0.7304 z"
       style="font-style:normal;font-variant:normal;font-weight:normal;font-stretch:normal;font-size:11.0666666px;font-family:'Avenir Next LT Pro';-inkscape-font-specification:'Avenir Next LT Pro, Normal';font-variant-ligatures:normal;font-variant-caps:normal;font-variant-numeric:normal;font-feature-settings:normal;text-align:start;writing-mode:lr-tb;text-anchor:start;fill:#ac1416;fill-opacity:1"
       id="path929" /><path
       d="m 82.284604,265.27261 h 0.02213 v 0.87427 h 0.752533 v -8.3664 h -0.752533 v 4.0836 h -0.02213 c -0.442667,-0.67507 -1.217334,-1.0292 -1.9588,-1.0292 -1.615734,0 -2.678134,1.1952 -2.678134,2.7224 0,1.5272 1.0624,2.7224 2.678134,2.7224 0.741466,0 1.516133,-0.35413 1.9588,-1.00707 z m -3.840134,-1.71533 c 0,-1.15093 0.708267,-2.0916 1.9588,-2.0916 1.162,0 1.992,0.90747 1.992,2.0916 0,1.18413 -0.83,2.08053 -1.992,2.08053 -1.250533,0 -1.9588,-0.9296 -1.9588,-2.08053 z"
       style="font-style:normal;font-variant:normal;font-weight:normal;font-stretch:normal;font-size:11.0666666px;font-family:'Avenir Next LT Pro';-inkscape-font-specification:'Avenir Next LT Pro, Normal';font-variant-ligatures:normal;font-variant-caps:normal;font-variant-numeric:normal;font-feature-settings:normal;text-align:start;writing-mode:lr-tb;text-anchor:start;fill:#ac1416;fill-opacity:1"
       id="path931" /><path
       d="m 90.216293,263.55728 c 0,-1.5604 -1.150933,-2.7224 -2.766667,-2.7224 -1.604666,0 -2.7556,1.162 -2.7556,2.7224 0,1.5604 1.150934,2.7224 2.7556,2.7224 1.615734,0 2.766667,-1.162 2.766667,-2.7224 z m -0.7968,0 c 0,1.162 -0.7636,2.08053 -1.969867,2.08053 -1.1952,0 -1.9588,-0.91853 -1.9588,-2.08053 0,-1.162 0.7636,-2.0916 1.9588,-2.0916 1.206267,0 1.969867,0.9296 1.969867,2.0916 z"
       style="font-style:normal;font-variant:normal;font-weight:normal;font-stretch:normal;font-size:11.0666666px;font-family:'Avenir Next LT Pro';-inkscape-font-specification:'Avenir Next LT Pro, Normal';font-variant-ligatures:normal;font-variant-caps:normal;font-variant-numeric:normal;font-feature-settings:normal;text-align:start;writing-mode:lr-tb;text-anchor:start;fill:#ac1416;fill-opacity:1"
       id="path933" /><path
       d="m 91.791392,260.96768 c 0.0332,0.35413 0.04427,0.8632 0.04427,1.13987 v 4.03933 h 0.752533 v -2.656 c 0,-1.38333 0.774667,-2.0252 1.571467,-2.0252 1.084533,0 1.405466,0.7304 1.405466,1.81493 v 2.86627 h 0.752534 v -3.17613 c 0,-1.28374 -0.652934,-2.13587 -1.969867,-2.13587 -0.7304,0 -1.482933,0.42053 -1.770667,1.01813 h -0.02213 c 0,-0.22133 -0.02213,-0.60866 -0.04427,-0.88533 z"
       style="font-style:normal;font-variant:normal;font-weight:normal;font-stretch:normal;font-size:11.0666666px;font-family:'Avenir Next LT Pro';-inkscape-font-specification:'Avenir Next LT Pro, Normal';font-variant-ligatures:normal;font-variant-caps:normal;font-variant-numeric:normal;font-feature-settings:normal;text-align:start;writing-mode:lr-tb;text-anchor:start;fill:#ac1416;fill-opacity:1"
       id="path935" /><path
       d="m 103.35692,260.96768 h -1.4608 v -1.4608 h -0.75253 v 1.4608 h -1.07347 v 0.6308 h 1.07347 v 3.23147 c 0,1.13986 0.77466,1.38333 1.328,1.38333 0.34306,0 0.61973,-0.0553 0.88533,-0.15493 l -0.0332,-0.65294 c -0.1992,0.0996 -0.44267,0.166 -0.65293,0.166 -0.45374,0 -0.77467,-0.17706 -0.77467,-0.95173 v -3.0212 h 1.4608 z"
       style="font-style:normal;font-variant:normal;font-weight:normal;font-stretch:normal;font-size:11.0666666px;font-family:'Avenir Next LT Pro';-inkscape-font-specification:'Avenir Next LT Pro, Normal';font-variant-ligatures:normal;font-variant-caps:normal;font-variant-numeric:normal;font-feature-settings:normal;text-align:start;writing-mode:lr-tb;text-anchor:start;fill:#ac1416;fill-opacity:1"
       id="path937" /><path
       d="m 111.60609,261.73128 c -0.44267,-0.5976 -1.2284,-0.8964 -1.9256,-0.8964 -1.67107,0 -2.76667,1.162 -2.76667,2.7224 0,1.5604 1.0956,2.7224 2.76667,2.7224 0.8964,0 1.5272,-0.35413 1.96986,-0.8964 l -0.56439,-0.42053 c -0.2988,0.3984 -0.75254,0.67506 -1.40547,0.67506 -1.20627,0 -1.96987,-0.90746 -1.96987,-2.08053 0,-1.18413 0.77467,-2.0916 1.98094,-2.0916 0.5644,0 1.08453,0.28773 1.328,0.68613 z"
       style="font-style:normal;font-variant:normal;font-weight:normal;font-stretch:normal;font-size:11.0666666px;font-family:'Avenir Next LT Pro';-inkscape-font-specification:'Avenir Next LT Pro, Normal';font-variant-ligatures:normal;font-variant-caps:normal;font-variant-numeric:normal;font-feature-settings:normal;text-align:start;writing-mode:lr-tb;text-anchor:start;fill:#ac1416;fill-opacity:1"
       id="path939" /><path
       d="m 113.59809,261.81981 v -4.03933 h -0.75254 v 8.3664 h 0.75254 v -2.656 c 0,-1.38333 0.77466,-2.0252 1.57146,-2.0252 1.08454,0 1.40547,0.7304 1.40547,1.81493 v 2.86627 h 0.75253 v -3.17613 c 0,-1.28374 -0.65293,-2.13587 -1.96986,-2.13587 -0.7304,0 -1.4608,0.38733 -1.73747,0.98493 z"
       style="font-style:normal;font-variant:normal;font-weight:normal;font-stretch:normal;font-size:11.0666666px;font-family:'Avenir Next LT Pro';-inkscape-font-specification:'Avenir Next LT Pro, Normal';font-variant-ligatures:normal;font-variant-caps:normal;font-variant-numeric:normal;font-feature-settings:normal;text-align:start;writing-mode:lr-tb;text-anchor:start;fill:#ac1416;fill-opacity:1"
       id="path941" /><path
       d="m 122.55085,262.97075 c -1.8924,0 -3.652,0.14386 -3.652,1.73746 0,1.15094 1.00707,1.57147 1.7928,1.57147 0.83,0 1.40547,-0.28773 1.88133,-0.97387 h 0.0221 c 0,0.27667 0.0332,0.58654 0.0775,0.84107 h 0.67507 c -0.0553,-0.28773 -0.0885,-0.7636 -0.0885,-1.162 v -2.26867 c 0,-1.2616 -0.8964,-1.88133 -2.01414,-1.88133 -0.88533,0 -1.61573,0.32093 -2.03626,0.74147 l 0.42053,0.498 c 0.3652,-0.3652 0.9296,-0.60867 1.53827,-0.60867 0.8964,0 1.38333,0.44267 1.38333,1.33907 z m 0,0.58653 v 0.38733 c 0,0.91854 -0.5976,1.71534 -1.66,1.71534 -0.58653,0 -1.21733,-0.24347 -1.21733,-0.98494 0,-0.98493 1.4276,-1.11773 2.656,-1.11773 z"
       style="font-style:normal;font-variant:normal;font-weight:normal;font-stretch:normal;font-size:11.0666666px;font-family:'Avenir Next LT Pro';-inkscape-font-specification:'Avenir Next LT Pro, Normal';font-variant-ligatures:normal;font-variant-caps:normal;font-variant-numeric:normal;font-feature-settings:normal;text-align:start;writing-mode:lr-tb;text-anchor:start;fill:#ac1416;fill-opacity:1"
       id="path943" /><path
       d="m 125.1427,260.96768 c 0.0332,0.35413 0.0443,0.8632 0.0443,1.13987 v 4.03933 h 0.75254 v -2.656 c 0,-1.38333 0.77466,-2.0252 1.57146,-2.0252 1.08454,0 1.40547,0.7304 1.40547,1.81493 v 2.86627 h 0.75253 v -3.17613 c 0,-1.28374 -0.65293,-2.13587 -1.96986,-2.13587 -0.7304,0 -1.48294,0.42053 -1.77067,1.01813 h -0.0221 c 0,-0.22133 -0.0221,-0.60866 -0.0443,-0.88533 z"
       style="font-style:normal;font-variant:normal;font-weight:normal;font-stretch:normal;font-size:11.0666666px;font-family:'Avenir Next LT Pro';-inkscape-font-specification:'Avenir Next LT Pro, Normal';font-variant-ligatures:normal;font-variant-caps:normal;font-variant-numeric:normal;font-feature-settings:normal;text-align:start;writing-mode:lr-tb;text-anchor:start;fill:#ac1416;fill-opacity:1"
       id="path945" /><path
       d="m 131.34089,267.76261 c 0.60867,0.64187 1.53827,1.04027 2.49,1.04027 2.2908,0 2.81094,-1.57147 2.81094,-2.70027 v -5.13493 h -0.75254 v 0.8964 h -0.0221 c -0.40947,-0.664 -1.20627,-1.0292 -1.9588,-1.0292 -1.61573,0 -2.67813,1.20627 -2.67813,2.67813 0,1.51614 1.0624,2.63387 2.67813,2.63387 0.75253,0 1.5604,-0.37627 1.9588,-1.01813 h 0.0221 v 0.97386 c 0,1.11774 -0.54226,2.03627 -2.0252,2.03627 -0.78573,0 -1.57146,-0.42053 -1.98093,-0.95173 z m 0.68614,-4.27173 c 0,-1.08453 0.70826,-2.0252 1.9588,-2.0252 1.162,0 1.992,0.94067 1.992,2.0252 0,1.1952 -0.83,2.01413 -1.992,2.01413 -1.25054,0 -1.9588,-0.9296 -1.9588,-2.01413 z"
       style="font-style:normal;font-variant:normal;font-weight:normal;font-stretch:normal;font-size:11.0666666px;font-family:'Avenir Next LT Pro';-inkscape-font-specification:'Avenir Next LT Pro, Normal';font-variant-ligatures:normal;font-variant-caps:normal;font-variant-numeric:normal;font-feature-settings:normal;text-align:start;writing-mode:lr-tb;text-anchor:start;fill:#ac1416;fill-opacity:1"
       id="path947" /><path
       d="m 139.03015,263.15888 c 0.0664,-0.88533 0.80787,-1.6932 1.81493,-1.6932 1.07347,0 1.67107,0.71933 1.71534,1.6932 z m 4.29387,0.24347 c 0,-1.41654 -0.85214,-2.56747 -2.47894,-2.56747 -1.47186,0 -2.61173,1.162 -2.61173,2.7224 0,1.5604 1.13987,2.7224 2.67813,2.7224 0.85214,0 1.61574,-0.32093 2.2244,-1.0956 l -0.5644,-0.44267 c -0.28773,0.4648 -0.88533,0.8964 -1.66,0.8964 -1.0624,0 -1.87026,-0.84106 -1.8924,-1.88133 h 4.29387 c 0.0111,-0.1328 0.0111,-0.25453 0.0111,-0.35413 z"
       style="font-style:normal;font-variant:normal;font-weight:normal;font-stretch:normal;font-size:11.0666666px;font-family:'Avenir Next LT Pro';-inkscape-font-specification:'Avenir Next LT Pro, Normal';font-variant-ligatures:normal;font-variant-caps:normal;font-variant-numeric:normal;font-feature-settings:normal;text-align:start;writing-mode:lr-tb;text-anchor:start;fill:#ac1416;fill-opacity:1"
       id="path949" /><path
       d="m 150.04442,260.96768 h -1.4608 v -1.4608 h -0.75253 v 1.4608 h -1.07347 v 0.6308 h 1.07347 v 3.23147 c 0,1.13986 0.77466,1.38333 1.328,1.38333 0.34306,0 0.61973,-0.0553 0.88533,-0.15493 l -0.0332,-0.65294 c -0.1992,0.0996 -0.44267,0.166 -0.65293,0.166 -0.45374,0 -0.77467,-0.17706 -0.77467,-0.95173 v -3.0212 h 1.4608 z"
       style="font-style:normal;font-variant:normal;font-weight:normal;font-stretch:normal;font-size:11.0666666px;font-family:'Avenir Next LT Pro';-inkscape-font-specification:'Avenir Next LT Pro, Normal';font-variant-ligatures:normal;font-variant-caps:normal;font-variant-numeric:normal;font-feature-settings:normal;text-align:start;writing-mode:lr-tb;text-anchor:start;fill:#ac1416;fill-opacity:1"
       id="path951" /><path
       d="m 151.98558,261.81981 v -4.03933 h -0.75253 v 8.3664 h 0.75253 v -2.656 c 0,-1.38333 0.77467,-2.0252 1.57147,-2.0252 1.08453,0 1.40547,0.7304 1.40547,1.81493 v 2.86627 h 0.75253 v -3.17613 c 0,-1.28374 -0.65293,-2.13587 -1.96987,-2.13587 -0.7304,0 -1.4608,0.38733 -1.73746,0.98493 z"
       style="font-style:normal;font-variant:normal;font-weight:normal;font-stretch:normal;font-size:11.0666666px;font-family:'Avenir Next LT Pro';-inkscape-font-specification:'Avenir Next LT Pro, Normal';font-variant-ligatures:normal;font-variant-caps:normal;font-variant-numeric:normal;font-feature-settings:normal;text-align:start;writing-mode:lr-tb;text-anchor:start;fill:#ac1416;fill-opacity:1"
       id="path953" /><path
       d="m 160.93834,262.97075 c -1.8924,0 -3.652,0.14386 -3.652,1.73746 0,1.15094 1.00706,1.57147 1.7928,1.57147 0.83,0 1.40546,-0.28773 1.88133,-0.97387 h 0.0221 c 0,0.27667 0.0332,0.58654 0.0775,0.84107 h 0.67507 c -0.0553,-0.28773 -0.0885,-0.7636 -0.0885,-1.162 v -2.26867 c 0,-1.2616 -0.8964,-1.88133 -2.01413,-1.88133 -0.88533,0 -1.61573,0.32093 -2.03627,0.74147 l 0.42054,0.498 c 0.3652,-0.3652 0.9296,-0.60867 1.53826,-0.60867 0.8964,0 1.38334,0.44267 1.38334,1.33907 z m 0,0.58653 v 0.38733 c 0,0.91854 -0.5976,1.71534 -1.66,1.71534 -0.58654,0 -1.21734,-0.24347 -1.21734,-0.98494 0,-0.98493 1.4276,-1.11773 2.656,-1.11773 z"
       style="font-style:normal;font-variant:normal;font-weight:normal;font-stretch:normal;font-size:11.0666666px;font-family:'Avenir Next LT Pro';-inkscape-font-specification:'Avenir Next LT Pro, Normal';font-variant-ligatures:normal;font-variant-caps:normal;font-variant-numeric:normal;font-feature-settings:normal;text-align:start;writing-mode:lr-tb;text-anchor:start;fill:#ac1416;fill-opacity:1"
       id="path955" /><path
       d="m 165.80145,260.96768 h -1.4608 v -1.4608 h -0.75254 v 1.4608 h -1.07346 v 0.6308 h 1.07346 v 3.23147 c 0,1.13986 0.77467,1.38333 1.328,1.38333 0.34307,0 0.61974,-0.0553 0.88534,-0.15493 l -0.0332,-0.65294 c -0.1992,0.0996 -0.44267,0.166 -0.65294,0.166 -0.45373,0 -0.77466,-0.17706 -0.77466,-0.95173 v -3.0212 h 1.4608 z"
       style="font-style:normal;font-variant:normal;font-weight:normal;font-stretch:normal;font-size:11.0666666px;font-family:'Avenir Next LT Pro';-inkscape-font-specification:'Avenir Next LT Pro, Normal';font-variant-ligatures:normal;font-variant-caps:normal;font-variant-numeric:normal;font-feature-settings:normal;text-align:start;writing-mode:lr-tb;text-anchor:start;fill:#ac1416;fill-opacity:1"
       id="path957" /><path
       d="m 168.00822,265.61568 c 0,-0.30987 -0.24347,-0.5976 -0.5976,-0.5976 -0.35413,0 -0.5976,0.28773 -0.5976,0.5976 0,0.30987 0.24347,0.5976 0.5976,0.5976 0.35413,0 0.5976,-0.28773 0.5976,-0.5976 z"
       style="font-style:normal;font-variant:normal;font-weight:normal;font-stretch:normal;font-size:11.0666666px;font-family:'Avenir Next LT Pro';-inkscape-font-specification:'Avenir Next LT Pro, Normal';font-variant-ligatures:normal;font-variant-caps:normal;font-variant-numeric:normal;font-feature-settings:normal;text-align:start;writing-mode:lr-tb;text-anchor:start;fill:#ac1416;fill-opacity:1"
       id="path959" /></g></svg>