<?xml version="1.0" encoding="UTF-8" standalone="no"?>
<svg
   xmlns:dc="http://purl.org/dc/elements/1.1/"
   xmlns:cc="http://creativecommons.org/ns#"
   xmlns:rdf="http://www.w3.org/1999/02/22-rdf-syntax-ns#"
   xmlns:svg="http://www.w3.org/2000/svg"
   xmlns="http://www.w3.org/2000/svg"
   xmlns:xlink="http://www.w3.org/1999/xlink"
   xmlns:sodipodi="http://sodipodi.sourceforge.net/DTD/sodipodi-0.dtd"
   xmlns:inkscape="http://www.inkscape.org/namespaces/inkscape"
   version="1.1"
   id="Lag_1"
   x="0"
   y="0"
   viewBox="0 0 150 380"
   xml:space="preserve"
   sodipodi:docname="PT_quote02_150px.svg"
   inkscape:version="0.92.2 (5c3e80d, 2017-08-06)"><metadata
     id="metadata149"><rdf:RDF><cc:Work
         rdf:about=""><dc:format>image/svg+xml</dc:format><dc:type
           rdf:resource="http://purl.org/dc/dcmitype/StillImage" /></cc:Work></rdf:RDF></metadata><defs
     id="defs147"><defs
       id="defs115"><path
         d="M14.2 204.7h131.9v118.1H14.2z"
         id="SVGID_1_" /></defs><clipPath
       id="SVGID_2_"><use
         id="use117"
         overflow="visible"
         xlink:href="#SVGID_1_" /></clipPath></defs><sodipodi:namedview
     pagecolor="#ffffff"
     bordercolor="#666666"
     borderopacity="1"
     objecttolerance="10"
     gridtolerance="10"
     guidetolerance="10"
     inkscape:pageopacity="0"
     inkscape:pageshadow="2"
     inkscape:window-width="1920"
     inkscape:window-height="1017"
     id="namedview145"
     showgrid="false"
     inkscape:zoom="12.65349"
     inkscape:cx="80.807745"
     inkscape:cy="43.498465"
     inkscape:window-x="-8"
     inkscape:window-y="-8"
     inkscape:window-maximized="1"
     inkscape:current-layer="Lag_1" /><style
     id="style2">.st1{fill:#222221}.st2{fill:#af1d1f}.st3{fill:#f9dc0a}.st4{fill:#007fc5}.st6{enable-background:new}.st7{fill:#939392}.st8{fill:#ac1416}</style><path
     d="M0 0h150v380H0z"
     id="path4"
     fill="#e3e1e1" /><path
     class="st1"
     d="M13 77.2v6.3h6.4v16h7.5v-16h6.5v-6.3zM59.8 77.2l-1.9 12.6-2.7-12.6h-7.8l-2.5 12.6L43 77.2h-7.9l5.3 22.3H48l3.2-12.6h.1l3.2 12.6h7.6l5.4-22.3zM69.8 77.2v22.3h15.9v-6.2h-8.8v-2.1h7.8v-5.8h-7.8v-2h8.3v-6.2zM100.1 85l1.8 5.5h-3.6l1.8-5.5zm-3.9-7.8l-8.8 22.3h8l1.1-3.2h7.1l1.2 3.3h8.2l-8.7-22.4h-8.1zM127.9 77.2l-6 8.2h-.1v-8.2h-7.2v22.3h7.3v-8.9l6 8.9h9.2l-8.8-12.1 8.4-10.2zM22 55.7c.3 0 .6 0 .8.1.3 0 .5.1.7.3.2.1.4.3.5.5.1.3.2.6.2.9.1.6-.2 1.1-.7 1.4-.5.3-1 .4-1.6.4h-1.6v-3.6H22zm.5 9.3c1.1 0 2.3-.1 3.4-.4 1.1-.2 2.1-.7 2.9-1.3.9-.6 1.6-1.4 2-2.4.5-1.1.8-2.3.8-3.6s-.2-2.5-.8-3.6c-.5-.9-1.2-1.7-2.1-2.3s-1.9-1-2.9-1.2c-1.1-.2-2.2-.4-3.3-.3h-9.6v22.4h7.5V65h2.1zM44.1 63.2h-3.6l1.8-5.5 1.8 5.5zm-14.5 9.1h8l1.1-3.3h7.1l1.2 3.3h8.2l-8.7-22.4h-8l-8.9 22.4zM66.1 56.2h5.5v-6.3H53.1v6.3h5.5v16h7.5zM73 65.9c1.2 2.9 3.6 5.1 6.5 6.1 1.5.6 3.1.9 4.8.9 1.7 0 3.4-.3 5-.9 1.4-.5 2.7-1.4 3.7-2.4l-4.6-5.5c-.4.5-.9 1-1.5 1.3-.7.4-1.4.6-2.2.5-.6 0-1.2-.1-1.8-.3-.5-.2-1-.5-1.4-1-.4-.4-.8-.9-1-1.5-.3-.6-.4-1.3-.4-2s.1-1.4.3-2c.2-.6.5-1.1 1-1.5.4-.4.9-.7 1.4-1 .6-.2 1.2-.3 1.8-.3.7 0 1.5.1 2.1.4.6.3 1.2.7 1.6 1.2l4.6-5.6c-1.1-1-2.4-1.8-3.9-2.3-1.6-.6-3.2-.8-4.9-.8-1.6 0-3.2.3-4.8.8-1.4.5-2.8 1.3-3.9 2.4-1.1 1.1-2 2.3-2.6 3.7-.6 1.5-1 3.2-.9 4.9.1 1.8.4 3.4 1.1 4.9M108.3 72.2h7.6V49.9h-7.6v7.6h-6.1v-7.6h-7.5v22.3h7.5v-8.5h6.1z"
     id="path6"
     style="fill:#222221;fill-opacity:1" /><path
     style="fill:#f9dc0a"
     inkscape:connector-curvature="0"
     id="path10"
     d="m 110.8,174.8 c -12.7,0 -27.4,-4.8 -42.8,-19 -0.2,-0.2 -0.3,-0.6 -0.1,-0.9 0.2,-0.3 0.5,-0.3 0.7,-0.1 38.6,35.7 73.1,11 80.2,2.5 0.2,-0.3 0.5,-0.3 0.7,-0.1 0.2,0.2 0.2,0.6 0.1,0.9 l -0.1,0.1 c -4.4,5.3 -19.1,16.6 -38.7,16.6 z"
     class="st3" /><path
     style="fill:#007fc5"
     inkscape:connector-curvature="0"
     id="path12"
     d="m 121,152 c -0.3,0 -0.5,0.2 -0.5,0.6 0,0.1 -0.4,6.2 -6.9,11.1 -11.8,9.1 -41.1,12.9 -113.5,-19.6 v 1.3 c 43.5,19.5 71.5,25.9 89.6,25.9 12.1,0 19.8,-2.9 24.6,-6.6 6.8,-5.2 7.3,-11.7 7.3,-12 0,-0.4 -0.3,-0.7 -0.6,-0.7 z"
     class="st4" /><path
     style="fill:#9c9b9b"
     inkscape:connector-curvature="0"
     id="path14"
     d="m 31.1,160.5 c -0.3,0 -0.5,0.2 -0.5,0.6 0,0.5 -1.1,12.2 -20,12.2 -5.1,0 -8.3,-0.8 -10.5,-1.9 v 1.3 c 2.5,1.2 6.1,1.8 10.5,1.8 19.9,0 21,-12.8 21,-13.4 0,-0.3 -0.2,-0.6 -0.5,-0.6 z" /><path
     style="fill:#f9dc0a"
     inkscape:connector-curvature="0"
     id="path16"
     d="m 133.7,154.6 c -12.2,0 -21.3,-5.2 -28.5,-9.4 -10.8,-6.3 -18,-10.5 -28.2,4.7 -0.2,0.3 -0.5,0.3 -0.7,0.1 -0.2,-0.2 -0.2,-0.6 -0.1,-0.9 10.7,-15.9 18.5,-11.4 29.4,-5.1 7.1,4.2 16.1,9.3 28,9.3 0.3,0 0.5,0.3 0.5,0.6 0,0.3 -0.1,0.7 -0.4,0.7 z"
     class="st3" /><path
     style="fill:#007fc5"
     inkscape:connector-curvature="0"
     id="path18"
     d="m 115.4,168 c -5.9,0 -12.8,-1.9 -20.8,-5.8 -6.4,-3.1 -12.5,-6.9 -18.3,-11.4 -0.2,-0.2 -0.3,-0.6 -0.1,-0.9 0.2,-0.3 0.5,-0.4 0.7,-0.2 0.3,0.2 32,25.1 49.1,14.1 7.3,-4.7 10.9,-15.2 10.9,-31.4 0,-0.3 0.2,-0.6 0.5,-0.6 0.3,0 0.5,0.3 0.5,0.6 0,16.6 -3.9,27.5 -11.5,32.4 -3.4,2.3 -7.2,3.3 -11,3.2 z"
     class="st4" /><path
     style="fill:#f9dc0a"
     inkscape:connector-curvature="0"
     id="path20"
     d="m 48.4,158.7 c -0.1,0 -0.2,0 -0.2,-0.1 -0.2,-0.2 -0.3,-0.5 -0.2,-0.8 1,-2 8.8,-12 13.6,-10.5 2.1,0.7 3.2,3.5 3.2,8.4 0,0.3 -0.2,0.6 -0.5,0.6 -0.3,0 -0.5,-0.3 -0.5,-0.6 0,-4.2 -0.8,-6.7 -2.5,-7.2 -3.9,-1.2 -11.5,7.9 -12.4,9.9 -0.1,0.2 -0.3,0.3 -0.5,0.3 z"
     class="st3" /><path
     style="fill:#f9dc0a"
     inkscape:connector-curvature="0"
     id="path22"
     d="m 48.7,169.7 c -4.1,0 -8.3,-2.5 -12.7,-5.2 -7.6,-4.5 -15.4,-9.2 -22.3,-0.1 -0.2,0.3 -0.5,0.3 -0.7,0.1 -0.2,-0.2 -0.3,-0.6 -0.1,-0.9 v -0.1 c 7.5,-9.8 15.6,-4.9 23.5,-0.2 5.5,3.3 10.7,6.4 15.4,4.4 3.2,-1.4 5.8,-5 8.2,-11 0.1,-0.3 0.4,-0.5 0.6,-0.4 0.2,0.1 0.4,0.5 0.3,0.8 v 0.1 c -2.5,6.4 -5.3,10.2 -8.8,11.7 -1.1,0.6 -2.2,0.8 -3.4,0.8 z m 25.5,-15.1 c -0.1,0 -0.2,0 -0.2,-0.1 -0.2,-0.2 -0.3,-0.5 -0.2,-0.8 9.4,-20.1 20.8,-31.1 33.9,-32.8 22.2,-2.9 41.5,22.6 41.7,22.9 0.2,0.2 0.2,0.6 0,0.9 -0.2,0.2 -0.5,0.2 -0.7,-0.1 -0.2,-0.2 -19.2,-25.3 -40.9,-22.5 -12.7,1.7 -23.8,12.5 -33.1,32.2 -0.1,0.2 -0.3,0.3 -0.5,0.3 z"
     class="st3" /><path
     style="fill:#007fc5"
     inkscape:connector-curvature="0"
     id="path24"
     d="m 108.3,166.7 c -0.3,0 -0.5,-0.3 -0.5,-0.7 0,-0.5 4.5,-47.6 41.5,-43.4 0.3,0 0.5,0.3 0.5,0.7 0,0.4 -0.3,0.6 -0.6,0.6 -15.1,-1.7 -26.5,4.9 -33.8,19.6 -3.4,7 -5.6,14.7 -6.6,22.8 0,0.2 -0.2,0.4 -0.5,0.4 z"
     class="st4" /><path
     style="fill:#af1d1f"
     inkscape:connector-curvature="0"
     id="path26"
     d="m 109.9,137.7 c -0.3,-0.1 -0.5,0 -0.6,0.4 -3.1,10.7 -33.3,15.4 -62.5,20 -17.9,2.8 -35,5.5 -46.7,9.5 v 1.3 c 11.8,-4.1 29.5,-6.9 46.9,-9.6 30.8,-4.8 60,-9.4 63.3,-20.8 0.1,-0.4 -0.1,-0.7 -0.4,-0.8 0.1,0 0.1,0 0,0 z"
     class="st2" /><path
     style="fill:#007fc5"
     inkscape:connector-curvature="0"
     id="path28"
     d="m 22.7,154.6 c -0.2,0 -0.4,-0.2 -0.5,-0.4 -0.1,-0.4 -3.1,-10.2 1.3,-18.9 3.2,-6.4 9.5,-10.4 18.7,-12 16.7,-2.7 35.7,2 48.7,6.5 8.3,2.8 16.5,6.3 24.5,10.5 0.2,0.2 0.3,0.5 0.2,0.8 -0.1,0.3 -0.4,0.4 -0.6,0.3 -7.9,-4.1 -16.1,-7.5 -24.4,-10.4 -12.9,-4.4 -31.8,-9.2 -48.3,-6.5 -8.9,1.4 -15,5.3 -18,11.4 -4.1,8.2 -1.2,17.8 -1.2,17.9 0.1,0.3 0,0.7 -0.4,0.8 0.2,0 0.1,0 0,0 z"
     class="st4" /><path
     style="fill:#af1d1f;fill-opacity:1"
     inkscape:connector-curvature="0"
     id="path30"
     d="M 150,132 C 113.8,124 81.5,123.1 53.9,129.2 41.4,132 18,139.1 1.3,155.6 l -1.2,1.2 v 1.6 c 0.6,-0.6 1.2,-1.3 1.8,-1.9 16.6,-16.3 39.8,-23.4 52.1,-26.1 27.6,-6.1 59.8,-5.2 96,2.8 z"
     class="st2" /><g
     style="enable-background:new;fill:#222221;fill-opacity:1"
     id="g52"
     class="st6"><path
       style="fill:#222221;fill-opacity:1"
       inkscape:connector-curvature="0"
       id="path50"
       d="m 33.3,222.6 h 2 l -2.3,8.2 h -2.5 z m 5.8,0 h 2 l -2.3,8.2 h -2.5 z"
       class="st1" /></g><path
     style="fill:#ac1416"
     inkscape:connector-curvature="0"
     id="path120"
     d="m 50,312 h -0.6 l 0.7,-2.6 h 0.8 z"
     class="st8"
     sodipodi:nodetypes="ccccc" /><g
     class="st6"
     id="g126"
     style="enable-background:new" /><g
     class="st6"
     id="g138"
     style="enable-background:new"
     transform="translate(-2)"><path
       class="st8"
       d="m 110.2,312 h -0.6 l 0.7,-2.6 h 0.8 z m 1.8,0 h -0.6 l 0.7,-2.6 h 0.8 z"
       id="path136"
       inkscape:connector-curvature="0"
       style="fill:#ac1416" /></g><g
     aria-label="Continue to "
     style="font-style:normal;font-weight:normal;font-size:40px;line-height:1.25;font-family:sans-serif;letter-spacing:0px;word-spacing:0px;fill:#000000;fill-opacity:1;stroke:none"
     id="text879"><path
       d="m 56.366772,230.39952 c -0.542266,0.80787 -1.405466,1.162 -2.301866,1.162 -2.014134,0 -3.2536,-1.5936 -3.2536,-3.4196 0,-1.826 1.2284,-3.4196 3.2536,-3.4196 0.996,0 1.781733,0.52014 2.113733,1.0292 l 0.664,-0.48693 c -0.542267,-0.7636 -1.637867,-1.23947 -2.7888,-1.23947 -2.335067,0 -4.0836,1.73747 -4.0836,4.1168 0,2.37934 1.715333,4.1168 4.0836,4.1168 1.405467,0 2.412533,-0.67506 2.932667,-1.4608 z"
       style="font-style:normal;font-variant:normal;font-weight:normal;font-stretch:normal;font-size:11.0666666px;font-family:'Avenir Next LT Pro';-inkscape-font-specification:'Avenir Next LT Pro, Normal';font-variant-ligatures:normal;font-variant-caps:normal;font-variant-numeric:normal;font-feature-settings:normal;text-align:start;writing-mode:lr-tb;text-anchor:start;fill:#ac1416;fill-opacity:1"
       id="path1181" /><path
       d="m 63.338599,229.46992 c 0,-1.5604 -1.150933,-2.7224 -2.766666,-2.7224 -1.604667,0 -2.7556,1.162 -2.7556,2.7224 0,1.5604 1.150933,2.7224 2.7556,2.7224 1.615733,0 2.766666,-1.162 2.766666,-2.7224 z m -0.7968,0 c 0,1.162 -0.7636,2.08054 -1.969866,2.08054 -1.1952,0 -1.9588,-0.91854 -1.9588,-2.08054 0,-1.162 0.7636,-2.0916 1.9588,-2.0916 1.206266,0 1.969866,0.9296 1.969866,2.0916 z"
       style="font-style:normal;font-variant:normal;font-weight:normal;font-stretch:normal;font-size:11.0666666px;font-family:'Avenir Next LT Pro';-inkscape-font-specification:'Avenir Next LT Pro, Normal';font-variant-ligatures:normal;font-variant-caps:normal;font-variant-numeric:normal;font-feature-settings:normal;text-align:start;writing-mode:lr-tb;text-anchor:start;fill:#ac1416;fill-opacity:1"
       id="path1183" /><path
       d="m 64.913697,226.88032 c 0.0332,0.35414 0.04427,0.8632 0.04427,1.13987 v 4.03933 h 0.752533 v -2.656 c 0,-1.38333 0.774667,-2.0252 1.571467,-2.0252 1.084533,0 1.405466,0.7304 1.405466,1.81494 v 2.86626 h 0.752534 v -3.17613 c 0,-1.28373 -0.652934,-2.13587 -1.969867,-2.13587 -0.7304,0 -1.482933,0.42054 -1.770667,1.01814 h -0.02213 c 0,-0.22134 -0.02213,-0.60867 -0.04427,-0.88534 z"
       style="font-style:normal;font-variant:normal;font-weight:normal;font-stretch:normal;font-size:11.0666666px;font-family:'Avenir Next LT Pro';-inkscape-font-specification:'Avenir Next LT Pro, Normal';font-variant-ligatures:normal;font-variant-caps:normal;font-variant-numeric:normal;font-feature-settings:normal;text-align:start;writing-mode:lr-tb;text-anchor:start;fill:#ac1416;fill-opacity:1"
       id="path1185" /><path
       d="m 73.712563,226.88032 h -1.4608 v -1.4608 H 71.49923 v 1.4608 h -1.073467 v 0.6308 h 1.073467 v 3.23147 c 0,1.13987 0.774666,1.38333 1.328,1.38333 0.343066,0 0.619733,-0.0553 0.885333,-0.15493 l -0.0332,-0.65293 c -0.1992,0.0996 -0.442667,0.166 -0.652933,0.166 -0.453734,0 -0.774667,-0.17707 -0.774667,-0.95174 v -3.0212 h 1.4608 z"
       style="font-style:normal;font-variant:normal;font-weight:normal;font-stretch:normal;font-size:11.0666666px;font-family:'Avenir Next LT Pro';-inkscape-font-specification:'Avenir Next LT Pro, Normal';font-variant-ligatures:normal;font-variant-caps:normal;font-variant-numeric:normal;font-feature-settings:normal;text-align:start;writing-mode:lr-tb;text-anchor:start;fill:#ac1416;fill-opacity:1"
       id="path1187" /><path
       d="m 75.642659,226.88032 h -0.752534 v 5.1792 h 0.752534 z m 0.154933,-1.992 c 0,-0.30986 -0.2656,-0.5312 -0.5312,-0.5312 -0.2656,0 -0.5312,0.22134 -0.5312,0.5312 0,0.30987 0.2656,0.5312 0.5312,0.5312 0.2656,0 0.5312,-0.22133 0.5312,-0.5312 z"
       style="font-style:normal;font-variant:normal;font-weight:normal;font-stretch:normal;font-size:11.0666666px;font-family:'Avenir Next LT Pro';-inkscape-font-specification:'Avenir Next LT Pro, Normal';font-variant-ligatures:normal;font-variant-caps:normal;font-variant-numeric:normal;font-feature-settings:normal;text-align:start;writing-mode:lr-tb;text-anchor:start;fill:#ac1416;fill-opacity:1"
       id="path1189" /><path
       d="m 77.601458,226.88032 c 0.0332,0.35414 0.04427,0.8632 0.04427,1.13987 v 4.03933 h 0.752533 v -2.656 c 0,-1.38333 0.774667,-2.0252 1.571467,-2.0252 1.084533,0 1.405467,0.7304 1.405467,1.81494 v 2.86626 h 0.752533 v -3.17613 c 0,-1.28373 -0.652933,-2.13587 -1.969867,-2.13587 -0.7304,0 -1.482933,0.42054 -1.770666,1.01814 h -0.02213 c 0,-0.22134 -0.02213,-0.60867 -0.04427,-0.88534 z"
       style="font-style:normal;font-variant:normal;font-weight:normal;font-stretch:normal;font-size:11.0666666px;font-family:'Avenir Next LT Pro';-inkscape-font-specification:'Avenir Next LT Pro, Normal';font-variant-ligatures:normal;font-variant-caps:normal;font-variant-numeric:normal;font-feature-settings:normal;text-align:start;writing-mode:lr-tb;text-anchor:start;fill:#ac1416;fill-opacity:1"
       id="path1191" /><path
       d="m 88.547256,232.05952 c -0.0332,-0.35413 -0.04427,-0.8632 -0.04427,-1.13986 v -4.03934 h -0.752533 v 2.656 c 0,1.38334 -0.774667,2.0252 -1.571467,2.0252 -1.084533,0 -1.405467,-0.7304 -1.405467,-1.81493 v -2.86627 h -0.752533 v 3.17614 c 0,1.28373 0.652933,2.13586 1.969867,2.13586 0.7304,0 1.482933,-0.42053 1.770666,-1.01813 h 0.02213 c 0,0.22133 0.02213,0.60867 0.04427,0.88533 z"
       style="font-style:normal;font-variant:normal;font-weight:normal;font-stretch:normal;font-size:11.0666666px;font-family:'Avenir Next LT Pro';-inkscape-font-specification:'Avenir Next LT Pro, Normal';font-variant-ligatures:normal;font-variant-caps:normal;font-variant-numeric:normal;font-feature-settings:normal;text-align:start;writing-mode:lr-tb;text-anchor:start;fill:#ac1416;fill-opacity:1"
       id="path1193" /><path
       d="m 90.905322,229.07152 c 0.0664,-0.88533 0.807867,-1.6932 1.814933,-1.6932 1.073467,0 1.671067,0.71934 1.715334,1.6932 z m 4.293867,0.24347 c 0,-1.41653 -0.852134,-2.56747 -2.478934,-2.56747 -1.471866,0 -2.611733,1.162 -2.611733,2.7224 0,1.5604 1.139867,2.7224 2.678133,2.7224 0.852134,0 1.615734,-0.32093 2.2244,-1.0956 l -0.5644,-0.44266 c -0.287733,0.4648 -0.885333,0.8964 -1.66,0.8964 -1.0624,0 -1.870266,-0.84107 -1.8924,-1.88134 h 4.293867 c 0.01107,-0.1328 0.01107,-0.25453 0.01107,-0.35413 z"
       style="font-style:normal;font-variant:normal;font-weight:normal;font-stretch:normal;font-size:11.0666666px;font-family:'Avenir Next LT Pro';-inkscape-font-specification:'Avenir Next LT Pro, Normal';font-variant-ligatures:normal;font-variant-caps:normal;font-variant-numeric:normal;font-feature-settings:normal;text-align:start;writing-mode:lr-tb;text-anchor:start;fill:#ac1416;fill-opacity:1"
       id="path1195" /><path
       d="m 101.91959,226.88032 h -1.4608 v -1.4608 h -0.752529 v 1.4608 h -1.073467 v 0.6308 h 1.073467 v 3.23147 c 0,1.13987 0.774669,1.38333 1.327999,1.38333 0.34307,0 0.61973,-0.0553 0.88533,-0.15493 l -0.0332,-0.65293 c -0.1992,0.0996 -0.44266,0.166 -0.65293,0.166 -0.45373,0 -0.77467,-0.17707 -0.77467,-0.95174 v -3.0212 h 1.4608 z"
       style="font-style:normal;font-variant:normal;font-weight:normal;font-stretch:normal;font-size:11.0666666px;font-family:'Avenir Next LT Pro';-inkscape-font-specification:'Avenir Next LT Pro, Normal';font-variant-ligatures:normal;font-variant-caps:normal;font-variant-numeric:normal;font-feature-settings:normal;text-align:start;writing-mode:lr-tb;text-anchor:start;fill:#ac1416;fill-opacity:1"
       id="path1197" /><path
       d="m 108.23209,229.46992 c 0,-1.5604 -1.15094,-2.7224 -2.76667,-2.7224 -1.60467,0 -2.7556,1.162 -2.7556,2.7224 0,1.5604 1.15093,2.7224 2.7556,2.7224 1.61573,0 2.76667,-1.162 2.76667,-2.7224 z m -0.7968,0 c 0,1.162 -0.7636,2.08054 -1.96987,2.08054 -1.1952,0 -1.9588,-0.91854 -1.9588,-2.08054 0,-1.162 0.7636,-2.0916 1.9588,-2.0916 1.20627,0 1.96987,0.9296 1.96987,2.0916 z"
       style="font-style:normal;font-variant:normal;font-weight:normal;font-stretch:normal;font-size:11.0666666px;font-family:'Avenir Next LT Pro';-inkscape-font-specification:'Avenir Next LT Pro, Normal';font-variant-ligatures:normal;font-variant-caps:normal;font-variant-numeric:normal;font-feature-settings:normal;text-align:start;writing-mode:lr-tb;text-anchor:start;fill:#ac1416;fill-opacity:1"
       id="path1199" /></g><g
     aria-label="support others"
     style="font-style:normal;font-weight:normal;font-size:40px;line-height:1.25;font-family:sans-serif;letter-spacing:0px;word-spacing:0px;fill:#000000;fill-opacity:1;stroke:none"
     id="text879-1"><path
       d="m 53.841196,244.74696 c -0.332,-0.58653 -1.0956,-0.9296 -1.814933,-0.9296 -0.940667,0 -1.848133,0.45374 -1.848133,1.50507 0,0.98493 0.874266,1.25053 1.482933,1.3944 0.984933,0.2324 1.5272,0.45373 1.5272,0.996 0,0.67507 -0.575467,0.90747 -1.217333,0.90747 -0.608667,0 -1.173067,-0.35414 -1.438667,-0.80787 l -0.5976,0.44267 c 0.475867,0.6972 1.2616,1.00706 2.047333,1.00706 0.951734,0 1.947734,-0.42053 1.947734,-1.60466 0,-0.80787 -0.575467,-1.2616 -1.7928,-1.51614 -0.852134,-0.17706 -1.239467,-0.3984 -1.239467,-0.88533 0,-0.57547 0.553333,-0.80787 1.0956,-0.80787 0.575467,0 1.051333,0.2988 1.272667,0.7304 z"
       style="font-style:normal;font-variant:normal;font-weight:normal;font-stretch:normal;font-size:11.0666666px;font-family:'Avenir Next LT Pro';-inkscape-font-specification:'Avenir Next LT Pro, Normal';font-variant-ligatures:normal;font-variant-caps:normal;font-variant-numeric:normal;font-feature-settings:normal;text-align:start;writing-mode:lr-tb;text-anchor:start;fill:#ac1416;fill-opacity:1"
       id="path1202" /><path
       d="m 59.89864,249.12936 c -0.0332,-0.35413 -0.04427,-0.8632 -0.04427,-1.13986 v -4.03934 H 59.10184 v 2.656 c 0,1.38334 -0.774667,2.0252 -1.571467,2.0252 -1.084533,0 -1.405466,-0.7304 -1.405466,-1.81493 v -2.86627 h -0.752534 v 3.17614 c 0,1.28373 0.652934,2.13586 1.969867,2.13586 0.7304,0 1.482933,-0.42053 1.770667,-1.01813 h 0.02213 c 0,0.22133 0.02213,0.60867 0.04427,0.88533 z"
       style="font-style:normal;font-variant:normal;font-weight:normal;font-stretch:normal;font-size:11.0666666px;font-family:'Avenir Next LT Pro';-inkscape-font-specification:'Avenir Next LT Pro, Normal';font-variant-ligatures:normal;font-variant-caps:normal;font-variant-numeric:normal;font-feature-settings:normal;text-align:start;writing-mode:lr-tb;text-anchor:start;fill:#ac1416;fill-opacity:1"
       id="path1204" /><path
       d="m 62.588705,248.2551 h 0.0332 c 0.4316,0.64186 1.206267,1.00706 1.947733,1.00706 1.615734,0 2.678134,-1.1952 2.678134,-2.7224 0,-1.5272 -1.0624,-2.7224 -2.678134,-2.7224 -0.741466,0 -1.516133,0.35414 -1.947733,1.0292 h -0.0332 v -0.8964 h -0.752533 v 7.8352 h 0.752533 z m 3.862267,-1.71534 c 0,1.15094 -0.708267,2.08054 -1.9588,2.08054 -1.162,0 -1.992,-0.8964 -1.992,-2.08054 0,-1.18413 0.83,-2.0916 1.992,-2.0916 1.250533,0 1.9588,0.94067 1.9588,2.0916 z"
       style="font-style:normal;font-variant:normal;font-weight:normal;font-stretch:normal;font-size:11.0666666px;font-family:'Avenir Next LT Pro';-inkscape-font-specification:'Avenir Next LT Pro, Normal';font-variant-ligatures:normal;font-variant-caps:normal;font-variant-numeric:normal;font-feature-settings:normal;text-align:start;writing-mode:lr-tb;text-anchor:start;fill:#ac1416;fill-opacity:1"
       id="path1206" /><path
       d="m 69.613443,248.2551 h 0.0332 c 0.4316,0.64186 1.206267,1.00706 1.947734,1.00706 1.615733,0 2.678133,-1.1952 2.678133,-2.7224 0,-1.5272 -1.0624,-2.7224 -2.678133,-2.7224 -0.741467,0 -1.516134,0.35414 -1.947734,1.0292 h -0.0332 v -0.8964 H 68.86091 v 7.8352 h 0.752533 z m 3.862267,-1.71534 c 0,1.15094 -0.708267,2.08054 -1.9588,2.08054 -1.162,0 -1.992,-0.8964 -1.992,-2.08054 0,-1.18413 0.83,-2.0916 1.992,-2.0916 1.250533,0 1.9588,0.94067 1.9588,2.0916 z"
       style="font-style:normal;font-variant:normal;font-weight:normal;font-stretch:normal;font-size:11.0666666px;font-family:'Avenir Next LT Pro';-inkscape-font-specification:'Avenir Next LT Pro, Normal';font-variant-ligatures:normal;font-variant-caps:normal;font-variant-numeric:normal;font-feature-settings:normal;text-align:start;writing-mode:lr-tb;text-anchor:start;fill:#ac1416;fill-opacity:1"
       id="path1208" /><path
       d="m 81.03165,246.53976 c 0,-1.5604 -1.150933,-2.7224 -2.766666,-2.7224 -1.604667,0 -2.7556,1.162 -2.7556,2.7224 0,1.5604 1.150933,2.7224 2.7556,2.7224 1.615733,0 2.766666,-1.162 2.766666,-2.7224 z m -0.7968,0 c 0,1.162 -0.7636,2.08054 -1.969866,2.08054 -1.1952,0 -1.9588,-0.91854 -1.9588,-2.08054 0,-1.162 0.7636,-2.0916 1.9588,-2.0916 1.206266,0 1.969866,0.9296 1.969866,2.0916 z"
       style="font-style:normal;font-variant:normal;font-weight:normal;font-stretch:normal;font-size:11.0666666px;font-family:'Avenir Next LT Pro';-inkscape-font-specification:'Avenir Next LT Pro, Normal';font-variant-ligatures:normal;font-variant-caps:normal;font-variant-numeric:normal;font-feature-settings:normal;text-align:start;writing-mode:lr-tb;text-anchor:start;fill:#ac1416;fill-opacity:1"
       id="path1210" /><path
       d="m 82.651014,245.09003 v 4.03933 h 0.752533 v -2.656 c 0,-1.38333 0.719334,-1.9588 1.516134,-1.9588 0.1992,0 0.442666,0.0332 0.5312,0.0664 l 0.0996,-0.70826 c -0.154934,-0.0443 -0.309867,-0.0553 -0.498,-0.0553 -0.7304,0 -1.372267,0.42054 -1.66,1.01814 h -0.02213 c 0,-0.22134 -0.02213,-0.60867 -0.04427,-0.88534 h -0.719334 c 0.0332,0.35414 0.04427,0.8632 0.04427,1.13987 z"
       style="font-style:normal;font-variant:normal;font-weight:normal;font-stretch:normal;font-size:11.0666666px;font-family:'Avenir Next LT Pro';-inkscape-font-specification:'Avenir Next LT Pro, Normal';font-variant-ligatures:normal;font-variant-caps:normal;font-variant-numeric:normal;font-feature-settings:normal;text-align:start;writing-mode:lr-tb;text-anchor:start;fill:#ac1416;fill-opacity:1"
       id="path1212" /><path
       d="m 88.833478,243.95016 h -1.4608 v -1.4608 h -0.752534 v 1.4608 h -1.073466 v 0.6308 h 1.073466 v 3.23147 c 0,1.13987 0.774667,1.38333 1.328,1.38333 0.343067,0 0.619734,-0.0553 0.885334,-0.15493 l -0.0332,-0.65293 c -0.1992,0.0996 -0.442667,0.166 -0.652934,0.166 -0.453733,0 -0.774666,-0.17707 -0.774666,-0.95174 v -3.0212 h 1.4608 z"
       style="font-style:normal;font-variant:normal;font-weight:normal;font-stretch:normal;font-size:11.0666666px;font-family:'Avenir Next LT Pro';-inkscape-font-specification:'Avenir Next LT Pro, Normal';font-variant-ligatures:normal;font-variant-caps:normal;font-variant-numeric:normal;font-feature-settings:normal;text-align:start;writing-mode:lr-tb;text-anchor:start;fill:#ac1416;fill-opacity:1"
       id="path1214" /><path
       d="m 97.912641,246.53976 c 0,-1.5604 -1.150933,-2.7224 -2.766666,-2.7224 -1.604667,0 -2.7556,1.162 -2.7556,2.7224 0,1.5604 1.150933,2.7224 2.7556,2.7224 1.615733,0 2.766666,-1.162 2.766666,-2.7224 z m -0.7968,0 c 0,1.162 -0.7636,2.08054 -1.969866,2.08054 -1.1952,0 -1.9588,-0.91854 -1.9588,-2.08054 0,-1.162 0.7636,-2.0916 1.9588,-2.0916 1.206266,0 1.969866,0.9296 1.969866,2.0916 z"
       style="font-style:normal;font-variant:normal;font-weight:normal;font-stretch:normal;font-size:11.0666666px;font-family:'Avenir Next LT Pro';-inkscape-font-specification:'Avenir Next LT Pro, Normal';font-variant-ligatures:normal;font-variant-caps:normal;font-variant-numeric:normal;font-feature-settings:normal;text-align:start;writing-mode:lr-tb;text-anchor:start;fill:#ac1416;fill-opacity:1"
       id="path1216" /><path
       d="m 101.86707,243.95016 h -1.4608 v -1.4608 h -0.75253 v 1.4608 h -1.073466 v 0.6308 h 1.073466 v 3.23147 c 0,1.13987 0.77467,1.38333 1.328,1.38333 0.34307,0 0.61973,-0.0553 0.88533,-0.15493 l -0.0332,-0.65293 c -0.1992,0.0996 -0.44266,0.166 -0.65293,0.166 -0.45373,0 -0.77467,-0.17707 -0.77467,-0.95174 v -3.0212 h 1.4608 z"
       style="font-style:normal;font-variant:normal;font-weight:normal;font-stretch:normal;font-size:11.0666666px;font-family:'Avenir Next LT Pro';-inkscape-font-specification:'Avenir Next LT Pro, Normal';font-variant-ligatures:normal;font-variant-caps:normal;font-variant-numeric:normal;font-feature-settings:normal;text-align:start;writing-mode:lr-tb;text-anchor:start;fill:#ac1416;fill-opacity:1"
       id="path1218" /><path
       d="m 103.80823,244.8023 v -4.03934 h -0.75253 v 8.3664 h 0.75253 v -2.656 c 0,-1.38333 0.77467,-2.0252 1.57147,-2.0252 1.08453,0 1.40547,0.7304 1.40547,1.81494 v 2.86626 h 0.75253 v -3.17613 c 0,-1.28373 -0.65293,-2.13587 -1.96987,-2.13587 -0.7304,0 -1.4608,0.38734 -1.73746,0.98494 z"
       style="font-style:normal;font-variant:normal;font-weight:normal;font-stretch:normal;font-size:11.0666666px;font-family:'Avenir Next LT Pro';-inkscape-font-specification:'Avenir Next LT Pro, Normal';font-variant-ligatures:normal;font-variant-caps:normal;font-variant-numeric:normal;font-feature-settings:normal;text-align:start;writing-mode:lr-tb;text-anchor:start;fill:#ac1416;fill-opacity:1"
       id="path1220" /><path
       d="m 109.91686,246.14136 c 0.0664,-0.88533 0.80787,-1.6932 1.81493,-1.6932 1.07347,0 1.67107,0.71934 1.71534,1.6932 z m 4.29387,0.24347 c 0,-1.41653 -0.85214,-2.56747 -2.47894,-2.56747 -1.47186,0 -2.61173,1.162 -2.61173,2.7224 0,1.5604 1.13987,2.7224 2.67813,2.7224 0.85214,0 1.61574,-0.32093 2.2244,-1.0956 l -0.5644,-0.44266 c -0.28773,0.4648 -0.88533,0.8964 -1.66,0.8964 -1.0624,0 -1.87026,-0.84107 -1.8924,-1.88134 h 4.29387 c 0.0111,-0.1328 0.0111,-0.25453 0.0111,-0.35413 z"
       style="font-style:normal;font-variant:normal;font-weight:normal;font-stretch:normal;font-size:11.0666666px;font-family:'Avenir Next LT Pro';-inkscape-font-specification:'Avenir Next LT Pro, Normal';font-variant-ligatures:normal;font-variant-caps:normal;font-variant-numeric:normal;font-feature-settings:normal;text-align:start;writing-mode:lr-tb;text-anchor:start;fill:#ac1416;fill-opacity:1"
       id="path1222" /><path
       d="m 115.8294,245.09003 v 4.03933 h 0.75254 v -2.656 c 0,-1.38333 0.71933,-1.9588 1.51613,-1.9588 0.1992,0 0.44267,0.0332 0.5312,0.0664 l 0.0996,-0.70826 c -0.15493,-0.0443 -0.30987,-0.0553 -0.498,-0.0553 -0.7304,0 -1.37227,0.42054 -1.66,1.01814 h -0.0221 c 0,-0.22134 -0.0221,-0.60867 -0.0443,-0.88534 h -0.71933 c 0.0332,0.35414 0.0443,0.8632 0.0443,1.13987 z"
       style="font-style:normal;font-variant:normal;font-weight:normal;font-stretch:normal;font-size:11.0666666px;font-family:'Avenir Next LT Pro';-inkscape-font-specification:'Avenir Next LT Pro, Normal';font-variant-ligatures:normal;font-variant-caps:normal;font-variant-numeric:normal;font-feature-settings:normal;text-align:start;writing-mode:lr-tb;text-anchor:start;fill:#ac1416;fill-opacity:1"
       id="path1224" /><path
       d="m 123.13755,244.74696 c -0.332,-0.58653 -1.0956,-0.9296 -1.81493,-0.9296 -0.94067,0 -1.84813,0.45374 -1.84813,1.50507 0,0.98493 0.87426,1.25053 1.48293,1.3944 0.98493,0.2324 1.5272,0.45373 1.5272,0.996 0,0.67507 -0.57547,0.90747 -1.21733,0.90747 -0.60867,0 -1.17307,-0.35414 -1.43867,-0.80787 l -0.5976,0.44267 c 0.47587,0.6972 1.2616,1.00706 2.04733,1.00706 0.95174,0 1.94774,-0.42053 1.94774,-1.60466 0,-0.80787 -0.57547,-1.2616 -1.7928,-1.51614 -0.85214,-0.17706 -1.23947,-0.3984 -1.23947,-0.88533 0,-0.57547 0.55333,-0.80787 1.0956,-0.80787 0.57547,0 1.05133,0.2988 1.27267,0.7304 z"
       style="font-style:normal;font-variant:normal;font-weight:normal;font-stretch:normal;font-size:11.0666666px;font-family:'Avenir Next LT Pro';-inkscape-font-specification:'Avenir Next LT Pro, Normal';font-variant-ligatures:normal;font-variant-caps:normal;font-variant-numeric:normal;font-feature-settings:normal;text-align:start;writing-mode:lr-tb;text-anchor:start;fill:#ac1416;fill-opacity:1"
       id="path1226" /></g><g
     aria-label="in their growth"
     style="font-style:normal;font-weight:normal;font-size:40px;line-height:1.25;font-family:sans-serif;letter-spacing:0px;word-spacing:0px;fill:#000000;fill-opacity:1;stroke:none"
     id="text879-1-9"><path
       d="m 32.199238,260.99365 h -0.752533 v 5.1792 h 0.752533 z m 0.154933,-1.992 c 0,-0.30987 -0.2656,-0.5312 -0.5312,-0.5312 -0.2656,0 -0.5312,0.22133 -0.5312,0.5312 0,0.30987 0.2656,0.5312 0.5312,0.5312 0.2656,0 0.5312,-0.22133 0.5312,-0.5312 z"
       style="font-style:normal;font-variant:normal;font-weight:normal;font-stretch:normal;font-size:11.0666666px;font-family:'Avenir Next LT Pro';-inkscape-font-specification:'Avenir Next LT Pro, Normal';font-variant-ligatures:normal;font-variant-caps:normal;font-variant-numeric:normal;font-feature-settings:normal;text-align:start;writing-mode:lr-tb;text-anchor:start;fill:#ac1416;fill-opacity:1"
       id="path1154" /><path
       d="m 34.158038,260.99365 c 0.0332,0.35413 0.04427,0.8632 0.04427,1.13987 v 4.03933 h 0.752533 v -2.656 c 0,-1.38333 0.774667,-2.0252 1.571467,-2.0252 1.084533,0 1.405466,0.7304 1.405466,1.81493 v 2.86627 h 0.752534 v -3.17613 c 0,-1.28374 -0.652934,-2.13587 -1.969867,-2.13587 -0.7304,0 -1.482933,0.42053 -1.770667,1.01813 h -0.02213 c 0,-0.22133 -0.02213,-0.60866 -0.04427,-0.88533 z"
       style="font-style:normal;font-variant:normal;font-weight:normal;font-stretch:normal;font-size:11.0666666px;font-family:'Avenir Next LT Pro';-inkscape-font-specification:'Avenir Next LT Pro, Normal';font-variant-ligatures:normal;font-variant-caps:normal;font-variant-numeric:normal;font-feature-settings:normal;text-align:start;writing-mode:lr-tb;text-anchor:start;fill:#ac1416;fill-opacity:1"
       id="path1156" /><path
       d="m 45.723569,260.99365 h -1.4608 v -1.4608 h -0.752533 v 1.4608 h -1.073467 v 0.6308 h 1.073467 v 3.23147 c 0,1.13986 0.774667,1.38333 1.328,1.38333 0.343067,0 0.619733,-0.0553 0.885333,-0.15493 l -0.0332,-0.65294 c -0.1992,0.0996 -0.442666,0.166 -0.652933,0.166 -0.453733,0 -0.774667,-0.17706 -0.774667,-0.95173 v -3.0212 h 1.4608 z"
       style="font-style:normal;font-variant:normal;font-weight:normal;font-stretch:normal;font-size:11.0666666px;font-family:'Avenir Next LT Pro';-inkscape-font-specification:'Avenir Next LT Pro, Normal';font-variant-ligatures:normal;font-variant-caps:normal;font-variant-numeric:normal;font-feature-settings:normal;text-align:start;writing-mode:lr-tb;text-anchor:start;fill:#ac1416;fill-opacity:1"
       id="path1158" /><path
       d="m 47.664733,261.84578 v -4.03933 h -0.752534 v 8.3664 h 0.752534 v -2.656 c 0,-1.38333 0.774666,-2.0252 1.571466,-2.0252 1.084533,0 1.405467,0.7304 1.405467,1.81493 v 2.86627 h 0.752533 v -3.17613 c 0,-1.28374 -0.652933,-2.13587 -1.969866,-2.13587 -0.7304,0 -1.4608,0.38733 -1.737467,0.98493 z"
       style="font-style:normal;font-variant:normal;font-weight:normal;font-stretch:normal;font-size:11.0666666px;font-family:'Avenir Next LT Pro';-inkscape-font-specification:'Avenir Next LT Pro, Normal';font-variant-ligatures:normal;font-variant-caps:normal;font-variant-numeric:normal;font-feature-settings:normal;text-align:start;writing-mode:lr-tb;text-anchor:start;fill:#ac1416;fill-opacity:1"
       id="path1160" /><path
       d="m 53.773358,263.18485 c 0.0664,-0.88533 0.807867,-1.6932 1.814934,-1.6932 1.073466,0 1.671066,0.71933 1.715333,1.6932 z m 4.293867,0.24347 c 0,-1.41654 -0.852133,-2.56747 -2.478933,-2.56747 -1.471867,0 -2.611734,1.162 -2.611734,2.7224 0,1.5604 1.139867,2.7224 2.678134,2.7224 0.852133,0 1.615733,-0.32093 2.2244,-1.0956 l -0.5644,-0.44267 c -0.287734,0.4648 -0.885334,0.8964 -1.66,0.8964 -1.0624,0 -1.870267,-0.84106 -1.8924,-1.88133 h 4.293866 c 0.01107,-0.1328 0.01107,-0.25453 0.01107,-0.35413 z"
       style="font-style:normal;font-variant:normal;font-weight:normal;font-stretch:normal;font-size:11.0666666px;font-family:'Avenir Next LT Pro';-inkscape-font-specification:'Avenir Next LT Pro, Normal';font-variant-ligatures:normal;font-variant-caps:normal;font-variant-numeric:normal;font-feature-settings:normal;text-align:start;writing-mode:lr-tb;text-anchor:start;fill:#ac1416;fill-opacity:1"
       id="path1162" /><path
       d="m 60.449498,260.99365 h -0.752534 v 5.1792 h 0.752534 z m 0.154933,-1.992 c 0,-0.30987 -0.2656,-0.5312 -0.5312,-0.5312 -0.2656,0 -0.5312,0.22133 -0.5312,0.5312 0,0.30987 0.2656,0.5312 0.5312,0.5312 0.2656,0 0.5312,-0.22133 0.5312,-0.5312 z"
       style="font-style:normal;font-variant:normal;font-weight:normal;font-stretch:normal;font-size:11.0666666px;font-family:'Avenir Next LT Pro';-inkscape-font-specification:'Avenir Next LT Pro, Normal';font-variant-ligatures:normal;font-variant-caps:normal;font-variant-numeric:normal;font-feature-settings:normal;text-align:start;writing-mode:lr-tb;text-anchor:start;fill:#ac1416;fill-opacity:1"
       id="path1164" /><path
       d="m 62.452566,262.13352 v 4.03933 h 0.752533 v -2.656 c 0,-1.38333 0.719334,-1.9588 1.516134,-1.9588 0.1992,0 0.442666,0.0332 0.5312,0.0664 l 0.0996,-0.70827 c -0.154934,-0.0443 -0.309867,-0.0553 -0.498,-0.0553 -0.7304,0 -1.372267,0.42053 -1.66,1.01813 h -0.02213 c 0,-0.22133 -0.02213,-0.60866 -0.04427,-0.88533 h -0.719334 c 0.0332,0.35413 0.04427,0.8632 0.04427,1.13987 z"
       style="font-style:normal;font-variant:normal;font-weight:normal;font-stretch:normal;font-size:11.0666666px;font-family:'Avenir Next LT Pro';-inkscape-font-specification:'Avenir Next LT Pro, Normal';font-variant-ligatures:normal;font-variant-caps:normal;font-variant-numeric:normal;font-feature-settings:normal;text-align:start;writing-mode:lr-tb;text-anchor:start;fill:#ac1416;fill-opacity:1"
       id="path1166" /><path
       d="m 68.930715,267.78858 c 0.608667,0.64187 1.538267,1.04027 2.49,1.04027 2.2908,0 2.810934,-1.57147 2.810934,-2.70027 v -5.13493 h -0.752534 v 0.8964 h -0.02213 c -0.409467,-0.664 -1.206267,-1.0292 -1.9588,-1.0292 -1.615733,0 -2.678133,1.20627 -2.678133,2.67813 0,1.51614 1.0624,2.63387 2.678133,2.63387 0.752533,0 1.5604,-0.37627 1.9588,-1.01813 h 0.02213 v 0.97386 c 0,1.11774 -0.542266,2.03627 -2.0252,2.03627 -0.785733,0 -1.571466,-0.42053 -1.980933,-0.95173 z m 0.686134,-4.27173 c 0,-1.08453 0.708266,-2.0252 1.9588,-2.0252 1.162,0 1.992,0.94067 1.992,2.0252 0,1.1952 -0.83,2.01413 -1.992,2.01413 -1.250534,0 -1.9588,-0.9296 -1.9588,-2.01413 z"
       style="font-style:normal;font-variant:normal;font-weight:normal;font-stretch:normal;font-size:11.0666666px;font-family:'Avenir Next LT Pro';-inkscape-font-specification:'Avenir Next LT Pro, Normal';font-variant-ligatures:normal;font-variant-caps:normal;font-variant-numeric:normal;font-feature-settings:normal;text-align:start;writing-mode:lr-tb;text-anchor:start;fill:#ac1416;fill-opacity:1"
       id="path1168" /><path
       d="m 76.19944,262.13352 v 4.03933 h 0.752533 v -2.656 c 0,-1.38333 0.719333,-1.9588 1.516133,-1.9588 0.1992,0 0.442667,0.0332 0.5312,0.0664 l 0.0996,-0.70827 c -0.154933,-0.0443 -0.309866,-0.0553 -0.498,-0.0553 -0.7304,0 -1.372266,0.42053 -1.66,1.01813 h -0.02213 c 0,-0.22133 -0.02213,-0.60866 -0.04427,-0.88533 h -0.719333 c 0.0332,0.35413 0.04427,0.8632 0.04427,1.13987 z"
       style="font-style:normal;font-variant:normal;font-weight:normal;font-stretch:normal;font-size:11.0666666px;font-family:'Avenir Next LT Pro';-inkscape-font-specification:'Avenir Next LT Pro, Normal';font-variant-ligatures:normal;font-variant-caps:normal;font-variant-numeric:normal;font-feature-settings:normal;text-align:start;writing-mode:lr-tb;text-anchor:start;fill:#ac1416;fill-opacity:1"
       id="path1170" /><path
       d="m 85.12799,263.58325 c 0,-1.5604 -1.150933,-2.7224 -2.766666,-2.7224 -1.604667,0 -2.7556,1.162 -2.7556,2.7224 0,1.5604 1.150933,2.7224 2.7556,2.7224 1.615733,0 2.766666,-1.162 2.766666,-2.7224 z m -0.7968,0 c 0,1.162 -0.7636,2.08053 -1.969866,2.08053 -1.1952,0 -1.9588,-0.91853 -1.9588,-2.08053 0,-1.162 0.7636,-2.0916 1.9588,-2.0916 1.206266,0 1.969866,0.9296 1.969866,2.0916 z"
       style="font-style:normal;font-variant:normal;font-weight:normal;font-stretch:normal;font-size:11.0666666px;font-family:'Avenir Next LT Pro';-inkscape-font-specification:'Avenir Next LT Pro, Normal';font-variant-ligatures:normal;font-variant-caps:normal;font-variant-numeric:normal;font-feature-settings:normal;text-align:start;writing-mode:lr-tb;text-anchor:start;fill:#ac1416;fill-opacity:1"
       id="path1172" /><path
       d="m 86.039089,260.99365 1.637867,5.1792 h 0.818933 l 1.3612,-4.19427 h 0.02213 l 1.383333,4.19427 h 0.818933 l 1.637867,-5.1792 h -0.7968 l -1.239467,4.20533 h -0.02213 l -1.416533,-4.20533 h -0.7304 l -1.3944,4.20533 h -0.02213 l -1.250533,-4.20533 z"
       style="font-style:normal;font-variant:normal;font-weight:normal;font-stretch:normal;font-size:11.0666666px;font-family:'Avenir Next LT Pro';-inkscape-font-specification:'Avenir Next LT Pro, Normal';font-variant-ligatures:normal;font-variant-caps:normal;font-variant-numeric:normal;font-feature-settings:normal;text-align:start;writing-mode:lr-tb;text-anchor:start;fill:#ac1416;fill-opacity:1"
       id="path1174" /><path
       d="m 97.339194,260.99365 h -1.4608 v -1.4608 h -0.752533 v 1.4608 h -1.073467 v 0.6308 h 1.073467 v 3.23147 c 0,1.13986 0.774666,1.38333 1.328,1.38333 0.343066,0 0.619733,-0.0553 0.885333,-0.15493 l -0.0332,-0.65294 c -0.1992,0.0996 -0.442667,0.166 -0.652933,0.166 -0.453734,0 -0.774667,-0.17706 -0.774667,-0.95173 v -3.0212 h 1.4608 z"
       style="font-style:normal;font-variant:normal;font-weight:normal;font-stretch:normal;font-size:11.0666666px;font-family:'Avenir Next LT Pro';-inkscape-font-specification:'Avenir Next LT Pro, Normal';font-variant-ligatures:normal;font-variant-caps:normal;font-variant-numeric:normal;font-feature-settings:normal;text-align:start;writing-mode:lr-tb;text-anchor:start;fill:#ac1416;fill-opacity:1"
       id="path1176" /><path
       d="m 99.280358,261.84578 v -4.03933 h -0.752533 v 8.3664 h 0.752533 v -2.656 c 0,-1.38333 0.774662,-2.0252 1.571462,-2.0252 1.08454,0 1.40547,0.7304 1.40547,1.81493 v 2.86627 h 0.75253 v -3.17613 c 0,-1.28374 -0.65293,-2.13587 -1.96986,-2.13587 -0.7304,0 -1.460802,0.38733 -1.737469,0.98493 z"
       style="font-style:normal;font-variant:normal;font-weight:normal;font-stretch:normal;font-size:11.0666666px;font-family:'Avenir Next LT Pro';-inkscape-font-specification:'Avenir Next LT Pro, Normal';font-variant-ligatures:normal;font-variant-caps:normal;font-variant-numeric:normal;font-feature-settings:normal;text-align:start;writing-mode:lr-tb;text-anchor:start;fill:#ac1416;fill-opacity:1"
       id="path1178" /></g><g
     aria-label="and knowledge,"
     style="font-style:normal;font-weight:normal;font-size:40px;line-height:1.25;font-family:sans-serif;letter-spacing:0px;word-spacing:0px;fill:#000000;fill-opacity:1;stroke:none"
     id="text879-1-4"><path
       d="m 34.700305,279.98494 c -1.8924,0 -3.652,0.14387 -3.652,1.73747 0,1.15093 1.007066,1.57146 1.7928,1.57146 0.83,0 1.405466,-0.28773 1.881333,-0.97386 h 0.02213 c 0,0.27666 0.0332,0.58653 0.07747,0.84106 h 0.675067 c -0.05533,-0.28773 -0.08853,-0.7636 -0.08853,-1.162 v -2.26866 c 0,-1.2616 -0.8964,-1.88134 -2.014133,-1.88134 -0.885333,0 -1.615733,0.32094 -2.036267,0.74147 l 0.420534,0.498 c 0.3652,-0.3652 0.9296,-0.60867 1.538266,-0.60867 0.8964,0 1.383334,0.44267 1.383334,1.33907 z m 0,0.58653 v 0.38734 c 0,0.91853 -0.5976,1.71533 -1.66,1.71533 -0.586534,0 -1.217334,-0.24347 -1.217334,-0.98493 0,-0.98494 1.4276,-1.11774 2.656,-1.11774 z"
       style="font-style:normal;font-variant:normal;font-weight:normal;font-stretch:normal;font-size:11.0666666px;font-family:'Avenir Next LT Pro';-inkscape-font-specification:'Avenir Next LT Pro, Normal';font-variant-ligatures:normal;font-variant-caps:normal;font-variant-numeric:normal;font-feature-settings:normal;text-align:start;writing-mode:lr-tb;text-anchor:start;fill:#ac1416;fill-opacity:1"
       id="path1127" /><path
       d="m 37.292153,277.98187 c 0.0332,0.35414 0.04427,0.8632 0.04427,1.13987 v 4.03933 h 0.752534 v -2.656 c 0,-1.38333 0.774666,-2.0252 1.571466,-2.0252 1.084534,0 1.405467,0.7304 1.405467,1.81494 v 2.86626 h 0.752533 v -3.17613 c 0,-1.28373 -0.652933,-2.13587 -1.969866,-2.13587 -0.7304,0 -1.482934,0.42054 -1.770667,1.01814 h -0.02213 c 0,-0.22134 -0.02213,-0.60867 -0.04427,-0.88534 z"
       style="font-style:normal;font-variant:normal;font-weight:normal;font-stretch:normal;font-size:11.0666666px;font-family:'Avenir Next LT Pro';-inkscape-font-specification:'Avenir Next LT Pro, Normal';font-variant-ligatures:normal;font-variant-caps:normal;font-variant-numeric:normal;font-feature-settings:normal;text-align:start;writing-mode:lr-tb;text-anchor:start;fill:#ac1416;fill-opacity:1"
       id="path1129" /><path
       d="m 48.016617,282.28681 h 0.02213 v 0.87426 h 0.752533 v -8.3664 h -0.752533 v 4.0836 h -0.02213 c -0.442666,-0.67506 -1.217333,-1.0292 -1.9588,-1.0292 -1.615733,0 -2.678133,1.1952 -2.678133,2.7224 0,1.5272 1.0624,2.7224 2.678133,2.7224 0.741467,0 1.516134,-0.35413 1.9588,-1.00706 z m -3.840133,-1.71534 c 0,-1.15093 0.708267,-2.0916 1.9588,-2.0916 1.162,0 1.992,0.90747 1.992,2.0916 0,1.18414 -0.83,2.08054 -1.992,2.08054 -1.250533,0 -1.9588,-0.9296 -1.9588,-2.08054 z"
       style="font-style:normal;font-variant:normal;font-weight:normal;font-stretch:normal;font-size:11.0666666px;font-family:'Avenir Next LT Pro';-inkscape-font-specification:'Avenir Next LT Pro, Normal';font-variant-ligatures:normal;font-variant-caps:normal;font-variant-numeric:normal;font-feature-settings:normal;text-align:start;writing-mode:lr-tb;text-anchor:start;fill:#ac1416;fill-opacity:1"
       id="path1131" /><path
       d="m 54.343638,274.79467 h -0.752533 v 8.3664 h 0.752533 v -2.7224 h 0.0332 l 2.633867,2.7224 h 1.106666 l -2.877333,-2.81093 2.611733,-2.36827 h -1.084533 l -2.3904,2.33507 h -0.0332 z"
       style="font-style:normal;font-variant:normal;font-weight:normal;font-stretch:normal;font-size:11.0666666px;font-family:'Avenir Next LT Pro';-inkscape-font-specification:'Avenir Next LT Pro, Normal';font-variant-ligatures:normal;font-variant-caps:normal;font-variant-numeric:normal;font-feature-settings:normal;text-align:start;writing-mode:lr-tb;text-anchor:start;fill:#ac1416;fill-opacity:1"
       id="path1133" /><path
       d="m 59.166112,277.98187 c 0.0332,0.35414 0.04427,0.8632 0.04427,1.13987 v 4.03933 h 0.752534 v -2.656 c 0,-1.38333 0.774666,-2.0252 1.571466,-2.0252 1.084534,0 1.405467,0.7304 1.405467,1.81494 v 2.86626 h 0.752533 v -3.17613 c 0,-1.28373 -0.652933,-2.13587 -1.969866,-2.13587 -0.7304,0 -1.482934,0.42054 -1.770667,1.01814 h -0.02213 c 0,-0.22134 -0.02213,-0.60867 -0.04427,-0.88534 z"
       style="font-style:normal;font-variant:normal;font-weight:normal;font-stretch:normal;font-size:11.0666666px;font-family:'Avenir Next LT Pro';-inkscape-font-specification:'Avenir Next LT Pro, Normal';font-variant-ligatures:normal;font-variant-caps:normal;font-variant-numeric:normal;font-feature-settings:normal;text-align:start;writing-mode:lr-tb;text-anchor:start;fill:#ac1416;fill-opacity:1"
       id="path1135" /><path
       d="m 70.775909,280.57147 c 0,-1.5604 -1.150933,-2.7224 -2.766666,-2.7224 -1.604667,0 -2.7556,1.162 -2.7556,2.7224 0,1.5604 1.150933,2.7224 2.7556,2.7224 1.615733,0 2.766666,-1.162 2.766666,-2.7224 z m -0.7968,0 c 0,1.162 -0.7636,2.08054 -1.969866,2.08054 -1.1952,0 -1.9588,-0.91854 -1.9588,-2.08054 0,-1.162 0.7636,-2.0916 1.9588,-2.0916 1.206266,0 1.969866,0.9296 1.969866,2.0916 z"
       style="font-style:normal;font-variant:normal;font-weight:normal;font-stretch:normal;font-size:11.0666666px;font-family:'Avenir Next LT Pro';-inkscape-font-specification:'Avenir Next LT Pro, Normal';font-variant-ligatures:normal;font-variant-caps:normal;font-variant-numeric:normal;font-feature-settings:normal;text-align:start;writing-mode:lr-tb;text-anchor:start;fill:#ac1416;fill-opacity:1"
       id="path1137" /><path
       d="m 71.687008,277.98187 1.637867,5.1792 h 0.818933 l 1.3612,-4.19426 h 0.02213 l 1.383334,4.19426 h 0.818933 l 1.637867,-5.1792 h -0.7968 l -1.239467,4.20534 h -0.02213 l -1.416534,-4.20534 h -0.7304 l -1.3944,4.20534 h -0.02213 l -1.250533,-4.20534 z"
       style="font-style:normal;font-variant:normal;font-weight:normal;font-stretch:normal;font-size:11.0666666px;font-family:'Avenir Next LT Pro';-inkscape-font-specification:'Avenir Next LT Pro, Normal';font-variant-ligatures:normal;font-variant-caps:normal;font-variant-numeric:normal;font-feature-settings:normal;text-align:start;writing-mode:lr-tb;text-anchor:start;fill:#ac1416;fill-opacity:1"
       id="path1139" /><path
       d="m 81.426713,274.79467 h -0.752534 v 8.3664 h 0.752534 z"
       style="font-style:normal;font-variant:normal;font-weight:normal;font-stretch:normal;font-size:11.0666666px;font-family:'Avenir Next LT Pro';-inkscape-font-specification:'Avenir Next LT Pro, Normal';font-variant-ligatures:normal;font-variant-caps:normal;font-variant-numeric:normal;font-feature-settings:normal;text-align:start;writing-mode:lr-tb;text-anchor:start;fill:#ac1416;fill-opacity:1"
       id="path1141" /><path
       d="m 83.86086,280.17307 c 0.0664,-0.88533 0.807866,-1.6932 1.814933,-1.6932 1.073467,0 1.671067,0.71934 1.715333,1.6932 z m 4.293866,0.24347 c 0,-1.41653 -0.852133,-2.56747 -2.478933,-2.56747 -1.471867,0 -2.611733,1.162 -2.611733,2.7224 0,1.5604 1.139866,2.7224 2.678133,2.7224 0.852133,0 1.615733,-0.32093 2.2244,-1.0956 l -0.5644,-0.44266 c -0.287733,0.4648 -0.885333,0.8964 -1.66,0.8964 -1.0624,0 -1.870267,-0.84107 -1.8924,-1.88134 h 4.293867 c 0.01107,-0.1328 0.01107,-0.25453 0.01107,-0.35413 z"
       style="font-style:normal;font-variant:normal;font-weight:normal;font-stretch:normal;font-size:11.0666666px;font-family:'Avenir Next LT Pro';-inkscape-font-specification:'Avenir Next LT Pro, Normal';font-variant-ligatures:normal;font-variant-caps:normal;font-variant-numeric:normal;font-feature-settings:normal;text-align:start;writing-mode:lr-tb;text-anchor:start;fill:#ac1416;fill-opacity:1"
       id="path1143" /><path
       d="m 94.034066,282.28681 h 0.02213 v 0.87426 h 0.752533 v -8.3664 h -0.752533 v 4.0836 h -0.02213 c -0.442667,-0.67506 -1.217334,-1.0292 -1.9588,-1.0292 -1.615734,0 -2.678134,1.1952 -2.678134,2.7224 0,1.5272 1.0624,2.7224 2.678134,2.7224 0.741466,0 1.516133,-0.35413 1.9588,-1.00706 z m -3.840134,-1.71534 c 0,-1.15093 0.708267,-2.0916 1.9588,-2.0916 1.162,0 1.992,0.90747 1.992,2.0916 0,1.18414 -0.83,2.08054 -1.992,2.08054 -1.250533,0 -1.9588,-0.9296 -1.9588,-2.08054 z"
       style="font-style:normal;font-variant:normal;font-weight:normal;font-stretch:normal;font-size:11.0666666px;font-family:'Avenir Next LT Pro';-inkscape-font-specification:'Avenir Next LT Pro, Normal';font-variant-ligatures:normal;font-variant-caps:normal;font-variant-numeric:normal;font-feature-settings:normal;text-align:start;writing-mode:lr-tb;text-anchor:start;fill:#ac1416;fill-opacity:1"
       id="path1145" /><path
       d="m 96.554155,284.77681 c 0.608667,0.64186 1.538267,1.04026 2.49,1.04026 2.290805,0 2.810935,-1.57146 2.810935,-2.70026 v -5.13494 h -0.75253 v 0.8964 h -0.0221 c -0.40946,-0.664 -1.206265,-1.0292 -1.958798,-1.0292 -1.615733,0 -2.678133,1.20627 -2.678133,2.67814 0,1.51613 1.0624,2.63386 2.678133,2.63386 0.752533,0 1.560398,-0.37626 1.958798,-1.01813 h 0.0221 v 0.97387 c 0,1.11773 -0.54227,2.03626 -2.025205,2.03626 -0.785733,0 -1.571466,-0.42053 -1.980933,-0.95173 z m 0.686134,-4.27174 c 0,-1.08453 0.708266,-2.0252 1.9588,-2.0252 1.162001,0 1.992001,0.94067 1.992001,2.0252 0,1.1952 -0.83,2.01414 -1.992001,2.01414 -1.250534,0 -1.9588,-0.9296 -1.9588,-2.01414 z"
       style="font-style:normal;font-variant:normal;font-weight:normal;font-stretch:normal;font-size:11.0666666px;font-family:'Avenir Next LT Pro';-inkscape-font-specification:'Avenir Next LT Pro, Normal';font-variant-ligatures:normal;font-variant-caps:normal;font-variant-numeric:normal;font-feature-settings:normal;text-align:start;writing-mode:lr-tb;text-anchor:start;fill:#ac1416;fill-opacity:1"
       id="path1147" /><path
       d="m 104.24341,280.17307 c 0.0664,-0.88533 0.80787,-1.6932 1.81493,-1.6932 1.07347,0 1.67107,0.71934 1.71534,1.6932 z m 4.29387,0.24347 c 0,-1.41653 -0.85214,-2.56747 -2.47894,-2.56747 -1.47186,0 -2.61173,1.162 -2.61173,2.7224 0,1.5604 1.13987,2.7224 2.67813,2.7224 0.85214,0 1.61574,-0.32093 2.2244,-1.0956 l -0.5644,-0.44266 c -0.28773,0.4648 -0.88533,0.8964 -1.66,0.8964 -1.0624,0 -1.87026,-0.84107 -1.8924,-1.88134 h 4.29387 c 0.0111,-0.1328 0.0111,-0.25453 0.0111,-0.35413 z"
       style="font-style:normal;font-variant:normal;font-weight:normal;font-stretch:normal;font-size:11.0666666px;font-family:'Avenir Next LT Pro';-inkscape-font-specification:'Avenir Next LT Pro, Normal';font-variant-ligatures:normal;font-variant-caps:normal;font-variant-numeric:normal;font-feature-settings:normal;text-align:start;writing-mode:lr-tb;text-anchor:start;fill:#ac1416;fill-opacity:1"
       id="path1149" /><path
       d="m 111.18515,282.10974 h -0.78573 l -0.74147,2.60067 h 0.6308 z"
       style="font-style:normal;font-variant:normal;font-weight:normal;font-stretch:normal;font-size:11.0666666px;font-family:'Avenir Next LT Pro';-inkscape-font-specification:'Avenir Next LT Pro, Normal';font-variant-ligatures:normal;font-variant-caps:normal;font-variant-numeric:normal;font-feature-settings:normal;text-align:start;writing-mode:lr-tb;text-anchor:start;fill:#ac1416;fill-opacity:1"
       id="path1151" /></g><g
     aria-label="and share what"
     style="font-style:normal;font-weight:normal;font-size:40px;line-height:1.25;font-family:sans-serif;letter-spacing:0px;word-spacing:0px;fill:#000000;fill-opacity:1;stroke:none"
     id="text879-1-92"><path
       d="m 34.700305,296.97319 c -1.8924,0 -3.652,0.14387 -3.652,1.73747 0,1.15093 1.007066,1.57146 1.7928,1.57146 0.83,0 1.405466,-0.28773 1.881333,-0.97386 h 0.02213 c 0,0.27666 0.0332,0.58653 0.07747,0.84106 h 0.675067 c -0.05533,-0.28773 -0.08853,-0.7636 -0.08853,-1.162 v -2.26866 c 0,-1.2616 -0.8964,-1.88134 -2.014133,-1.88134 -0.885333,0 -1.615733,0.32094 -2.036267,0.74147 l 0.420534,0.498 c 0.3652,-0.3652 0.9296,-0.60867 1.538266,-0.60867 0.8964,0 1.383334,0.44267 1.383334,1.33907 z m 0,0.58653 v 0.38734 c 0,0.91853 -0.5976,1.71533 -1.66,1.71533 -0.586534,0 -1.217334,-0.24347 -1.217334,-0.98493 0,-0.98494 1.4276,-1.11774 2.656,-1.11774 z"
       style="font-style:normal;font-variant:normal;font-weight:normal;font-stretch:normal;font-size:11.0666666px;font-family:'Avenir Next LT Pro';-inkscape-font-specification:'Avenir Next LT Pro, Normal';font-variant-ligatures:normal;font-variant-caps:normal;font-variant-numeric:normal;font-feature-settings:normal;text-align:start;writing-mode:lr-tb;text-anchor:start;fill:#ac1416;fill-opacity:1"
       id="path1102" /><path
       d="m 37.292153,294.97012 c 0.0332,0.35414 0.04427,0.8632 0.04427,1.13987 v 4.03933 h 0.752534 v -2.656 c 0,-1.38333 0.774666,-2.0252 1.571466,-2.0252 1.084534,0 1.405467,0.7304 1.405467,1.81494 v 2.86626 h 0.752533 v -3.17613 c 0,-1.28373 -0.652933,-2.13587 -1.969866,-2.13587 -0.7304,0 -1.482934,0.42054 -1.770667,1.01814 h -0.02213 c 0,-0.22134 -0.02213,-0.60867 -0.04427,-0.88534 z"
       style="font-style:normal;font-variant:normal;font-weight:normal;font-stretch:normal;font-size:11.0666666px;font-family:'Avenir Next LT Pro';-inkscape-font-specification:'Avenir Next LT Pro, Normal';font-variant-ligatures:normal;font-variant-caps:normal;font-variant-numeric:normal;font-feature-settings:normal;text-align:start;writing-mode:lr-tb;text-anchor:start;fill:#ac1416;fill-opacity:1"
       id="path1104" /><path
       d="m 48.016617,299.27506 h 0.02213 v 0.87426 h 0.752533 v -8.3664 h -0.752533 v 4.0836 h -0.02213 c -0.442666,-0.67506 -1.217333,-1.0292 -1.9588,-1.0292 -1.615733,0 -2.678133,1.1952 -2.678133,2.7224 0,1.5272 1.0624,2.7224 2.678133,2.7224 0.741467,0 1.516134,-0.35413 1.9588,-1.00706 z m -3.840133,-1.71534 c 0,-1.15093 0.708267,-2.0916 1.9588,-2.0916 1.162,0 1.992,0.90747 1.992,2.0916 0,1.18414 -0.83,2.08054 -1.992,2.08054 -1.250533,0 -1.9588,-0.9296 -1.9588,-2.08054 z"
       style="font-style:normal;font-variant:normal;font-weight:normal;font-stretch:normal;font-size:11.0666666px;font-family:'Avenir Next LT Pro';-inkscape-font-specification:'Avenir Next LT Pro, Normal';font-variant-ligatures:normal;font-variant-caps:normal;font-variant-numeric:normal;font-feature-settings:normal;text-align:start;writing-mode:lr-tb;text-anchor:start;fill:#ac1416;fill-opacity:1"
       id="path1106" /><path
       d="m 56.900038,295.76692 c -0.332,-0.58653 -1.0956,-0.9296 -1.814933,-0.9296 -0.940667,0 -1.848134,0.45374 -1.848134,1.50507 0,0.98493 0.874267,1.25053 1.482934,1.3944 0.984933,0.2324 1.5272,0.45373 1.5272,0.996 0,0.67507 -0.575467,0.90747 -1.217334,0.90747 -0.608666,0 -1.173066,-0.35414 -1.438666,-0.80787 l -0.5976,0.44267 c 0.475866,0.6972 1.2616,1.00706 2.047333,1.00706 0.951733,0 1.947733,-0.42053 1.947733,-1.60466 0,-0.80787 -0.575466,-1.2616 -1.7928,-1.51614 -0.852133,-0.17706 -1.239466,-0.3984 -1.239466,-0.88533 0,-0.57547 0.553333,-0.80787 1.0956,-0.80787 0.575466,0 1.051333,0.2988 1.272666,0.7304 z"
       style="font-style:normal;font-variant:normal;font-weight:normal;font-stretch:normal;font-size:11.0666666px;font-family:'Avenir Next LT Pro';-inkscape-font-specification:'Avenir Next LT Pro, Normal';font-variant-ligatures:normal;font-variant-caps:normal;font-variant-numeric:normal;font-feature-settings:normal;text-align:start;writing-mode:lr-tb;text-anchor:start;fill:#ac1416;fill-opacity:1"
       id="path1108" /><path
       d="m 59.250149,295.82226 v -4.03934 h -0.752533 v 8.3664 h 0.752533 v -2.656 c 0,-1.38333 0.774667,-2.0252 1.571467,-2.0252 1.084533,0 1.405467,0.7304 1.405467,1.81494 v 2.86626 h 0.752533 v -3.17613 c 0,-1.28373 -0.652933,-2.13587 -1.969867,-2.13587 -0.7304,0 -1.4608,0.38734 -1.737466,0.98494 z"
       style="font-style:normal;font-variant:normal;font-weight:normal;font-stretch:normal;font-size:11.0666666px;font-family:'Avenir Next LT Pro';-inkscape-font-specification:'Avenir Next LT Pro, Normal';font-variant-ligatures:normal;font-variant-caps:normal;font-variant-numeric:normal;font-feature-settings:normal;text-align:start;writing-mode:lr-tb;text-anchor:start;fill:#ac1416;fill-opacity:1"
       id="path1110" /><path
       d="m 68.20291,296.97319 c -1.8924,0 -3.652,0.14387 -3.652,1.73747 0,1.15093 1.007067,1.57146 1.7928,1.57146 0.83,0 1.405467,-0.28773 1.881334,-0.97386 h 0.02213 c 0,0.27666 0.0332,0.58653 0.07747,0.84106 h 0.675066 c -0.05533,-0.28773 -0.08853,-0.7636 -0.08853,-1.162 v -2.26866 c 0,-1.2616 -0.8964,-1.88134 -2.014133,-1.88134 -0.885334,0 -1.615734,0.32094 -2.036267,0.74147 l 0.420533,0.498 c 0.3652,-0.3652 0.9296,-0.60867 1.538267,-0.60867 0.8964,0 1.383333,0.44267 1.383333,1.33907 z m 0,0.58653 v 0.38734 c 0,0.91853 -0.5976,1.71533 -1.66,1.71533 -0.586533,0 -1.217333,-0.24347 -1.217333,-0.98493 0,-0.98494 1.4276,-1.11774 2.656,-1.11774 z"
       style="font-style:normal;font-variant:normal;font-weight:normal;font-stretch:normal;font-size:11.0666666px;font-family:'Avenir Next LT Pro';-inkscape-font-specification:'Avenir Next LT Pro, Normal';font-variant-ligatures:normal;font-variant-caps:normal;font-variant-numeric:normal;font-feature-settings:normal;text-align:start;writing-mode:lr-tb;text-anchor:start;fill:#ac1416;fill-opacity:1"
       id="path1112" /><path
       d="m 70.839023,296.10999 v 4.03933 h 0.752534 v -2.656 c 0,-1.38333 0.719333,-1.9588 1.516133,-1.9588 0.1992,0 0.442667,0.0332 0.5312,0.0664 l 0.0996,-0.70826 c -0.154933,-0.0443 -0.309867,-0.0553 -0.498,-0.0553 -0.7304,0 -1.372267,0.42054 -1.66,1.01814 h -0.02213 c 0,-0.22134 -0.02213,-0.60867 -0.04427,-0.88534 h -0.719333 c 0.0332,0.35414 0.04427,0.8632 0.04427,1.13987 z"
       style="font-style:normal;font-variant:normal;font-weight:normal;font-stretch:normal;font-size:11.0666666px;font-family:'Avenir Next LT Pro';-inkscape-font-specification:'Avenir Next LT Pro, Normal';font-variant-ligatures:normal;font-variant-caps:normal;font-variant-numeric:normal;font-feature-settings:normal;text-align:start;writing-mode:lr-tb;text-anchor:start;fill:#ac1416;fill-opacity:1"
       id="path1114" /><path
       d="m 75.042107,297.16132 c 0.0664,-0.88533 0.807867,-1.6932 1.814934,-1.6932 1.073466,0 1.671066,0.71934 1.715333,1.6932 z m 4.293867,0.24347 c 0,-1.41653 -0.852133,-2.56747 -2.478933,-2.56747 -1.471867,0 -2.611734,1.162 -2.611734,2.7224 0,1.5604 1.139867,2.7224 2.678134,2.7224 0.852133,0 1.615733,-0.32093 2.2244,-1.0956 l -0.5644,-0.44266 c -0.287734,0.4648 -0.885334,0.8964 -1.66,0.8964 -1.0624,0 -1.870267,-0.84107 -1.8924,-1.88134 h 4.293866 c 0.01107,-0.1328 0.01107,-0.25453 0.01107,-0.35413 z"
       style="font-style:normal;font-variant:normal;font-weight:normal;font-stretch:normal;font-size:11.0666666px;font-family:'Avenir Next LT Pro';-inkscape-font-specification:'Avenir Next LT Pro, Normal';font-variant-ligatures:normal;font-variant-caps:normal;font-variant-numeric:normal;font-feature-settings:normal;text-align:start;writing-mode:lr-tb;text-anchor:start;fill:#ac1416;fill-opacity:1"
       id="path1116" /><path
       d="m 83.013047,294.97012 1.637866,5.1792 h 0.818934 l 1.361199,-4.19426 h 0.02213 l 1.383333,4.19426 h 0.818933 l 1.637867,-5.1792 h -0.7968 l -1.239467,4.20534 h -0.02213 l -1.416533,-4.20534 h -0.7304 l -1.3944,4.20534 h -0.02213 l -1.250534,-4.20534 z"
       style="font-style:normal;font-variant:normal;font-weight:normal;font-stretch:normal;font-size:11.0666666px;font-family:'Avenir Next LT Pro';-inkscape-font-specification:'Avenir Next LT Pro, Normal';font-variant-ligatures:normal;font-variant-caps:normal;font-variant-numeric:normal;font-feature-settings:normal;text-align:start;writing-mode:lr-tb;text-anchor:start;fill:#ac1416;fill-opacity:1"
       id="path1118" /><path
       d="m 92.752751,295.82226 v -4.03934 h -0.752533 v 8.3664 h 0.752533 v -2.656 c 0,-1.38333 0.774667,-2.0252 1.571467,-2.0252 1.084533,0 1.405466,0.7304 1.405466,1.81494 v 2.86626 h 0.752534 v -3.17613 c 0,-1.28373 -0.652934,-2.13587 -1.969867,-2.13587 -0.7304,0 -1.4608,0.38734 -1.737467,0.98494 z"
       style="font-style:normal;font-variant:normal;font-weight:normal;font-stretch:normal;font-size:11.0666666px;font-family:'Avenir Next LT Pro';-inkscape-font-specification:'Avenir Next LT Pro, Normal';font-variant-ligatures:normal;font-variant-caps:normal;font-variant-numeric:normal;font-feature-settings:normal;text-align:start;writing-mode:lr-tb;text-anchor:start;fill:#ac1416;fill-opacity:1"
       id="path1120" /><path
       d="m 101.70552,296.97319 c -1.892404,0 -3.652004,0.14387 -3.652004,1.73747 0,1.15093 1.007066,1.57146 1.7928,1.57146 0.830004,0 1.405464,-0.28773 1.881334,-0.97386 h 0.0221 c 0,0.27666 0.0332,0.58653 0.0775,0.84106 h 0.67507 c -0.0553,-0.28773 -0.0885,-0.7636 -0.0885,-1.162 v -2.26866 c 0,-1.2616 -0.8964,-1.88134 -2.01413,-1.88134 -0.885334,0 -1.615734,0.32094 -2.036268,0.74147 l 0.420534,0.498 c 0.3652,-0.3652 0.9296,-0.60867 1.538264,-0.60867 0.8964,0 1.38334,0.44267 1.38334,1.33907 z m 0,0.58653 v 0.38734 c 0,0.91853 -0.5976,1.71533 -1.66,1.71533 -0.586538,0 -1.217338,-0.24347 -1.217338,-0.98493 0,-0.98494 1.427598,-1.11774 2.655998,-1.11774 z"
       style="font-style:normal;font-variant:normal;font-weight:normal;font-stretch:normal;font-size:11.0666666px;font-family:'Avenir Next LT Pro';-inkscape-font-specification:'Avenir Next LT Pro, Normal';font-variant-ligatures:normal;font-variant-caps:normal;font-variant-numeric:normal;font-feature-settings:normal;text-align:start;writing-mode:lr-tb;text-anchor:start;fill:#ac1416;fill-opacity:1"
       id="path1122" /><path
       d="m 106.56863,294.97012 h -1.4608 v -1.4608 h -0.75254 v 1.4608 h -1.07346 v 0.6308 h 1.07346 v 3.23147 c 0,1.13987 0.77467,1.38333 1.328,1.38333 0.34307,0 0.61974,-0.0553 0.88534,-0.15493 l -0.0332,-0.65293 c -0.1992,0.0996 -0.44267,0.166 -0.65294,0.166 -0.45373,0 -0.77466,-0.17707 -0.77466,-0.95174 v -3.0212 h 1.4608 z"
       style="font-style:normal;font-variant:normal;font-weight:normal;font-stretch:normal;font-size:11.0666666px;font-family:'Avenir Next LT Pro';-inkscape-font-specification:'Avenir Next LT Pro, Normal';font-variant-ligatures:normal;font-variant-caps:normal;font-variant-numeric:normal;font-feature-settings:normal;text-align:start;writing-mode:lr-tb;text-anchor:start;fill:#ac1416;fill-opacity:1"
       id="path1124" /></g><g
     aria-label="you ve learned."
     style="font-style:normal;font-weight:normal;font-size:40px;line-height:1.25;font-family:sans-serif;letter-spacing:0px;word-spacing:0px;fill:#000000;fill-opacity:1;stroke:none"
     id="text879-1-2"><path
       d="m 31.010716,312.40543 h -0.841067 l 2.213333,5.16813 -0.420533,1.08453 c -0.221333,0.58654 -0.486933,0.91854 -0.996,0.91854 -0.1992,0 -0.387333,-0.0332 -0.553333,-0.0885 l -0.07747,0.68614 c 0.221333,0.0443 0.453733,0.0664 0.675067,0.0664 0.8964,0 1.316933,-0.52014 1.6268,-1.31694 l 2.578533,-6.51826 h -0.818933 l -1.604667,4.37133 h -0.02213 z"
       style="font-style:normal;font-variant:normal;font-weight:normal;font-stretch:normal;font-size:11.0666666px;font-family:'Avenir Next LT Pro';-inkscape-font-specification:'Avenir Next LT Pro, Normal';font-variant-ligatures:normal;font-variant-caps:normal;font-variant-numeric:normal;font-feature-settings:normal;text-align:start;writing-mode:lr-tb;text-anchor:start;fill:#ac1416;fill-opacity:1"
       id="path1075" /><path
       d="m 41.538228,314.99503 c 0,-1.5604 -1.150933,-2.7224 -2.766666,-2.7224 -1.604667,0 -2.7556,1.162 -2.7556,2.7224 0,1.5604 1.150933,2.7224 2.7556,2.7224 1.615733,0 2.766666,-1.162 2.766666,-2.7224 z m -0.7968,0 c 0,1.162 -0.7636,2.08053 -1.969866,2.08053 -1.1952,0 -1.9588,-0.91853 -1.9588,-2.08053 0,-1.162 0.7636,-2.0916 1.9588,-2.0916 1.206266,0 1.969866,0.9296 1.969866,2.0916 z"
       style="font-style:normal;font-variant:normal;font-weight:normal;font-stretch:normal;font-size:11.0666666px;font-family:'Avenir Next LT Pro';-inkscape-font-specification:'Avenir Next LT Pro, Normal';font-variant-ligatures:normal;font-variant-caps:normal;font-variant-numeric:normal;font-feature-settings:normal;text-align:start;writing-mode:lr-tb;text-anchor:start;fill:#ac1416;fill-opacity:1"
       id="path1077" /><path
       d="m 47.639592,317.58463 c -0.0332,-0.35414 -0.04427,-0.8632 -0.04427,-1.13987 v -4.03933 h -0.752534 v 2.656 c 0,1.38333 -0.774666,2.0252 -1.571466,2.0252 -1.084534,0 -1.405467,-0.7304 -1.405467,-1.81494 v -2.86626 h -0.752533 v 3.17613 c 0,1.28373 0.652933,2.13587 1.969866,2.13587 0.7304,0 1.482934,-0.42054 1.770667,-1.01814 h 0.02213 c 0,0.22134 0.02213,0.60867 0.04427,0.88534 z"
       style="font-style:normal;font-variant:normal;font-weight:normal;font-stretch:normal;font-size:11.0666666px;font-family:'Avenir Next LT Pro';-inkscape-font-specification:'Avenir Next LT Pro, Normal';font-variant-ligatures:normal;font-variant-caps:normal;font-variant-numeric:normal;font-feature-settings:normal;text-align:start;writing-mode:lr-tb;text-anchor:start;fill:#ac1416;fill-opacity:1"
       id="path1079" /><path
       d="m 56.571258,312.40543 h -0.807866 l -1.6932,4.3824 h -0.02213 l -1.682133,-4.3824 h -0.841067 l 2.113734,5.1792 h 0.83 z"
       style="font-style:normal;font-variant:normal;font-weight:normal;font-stretch:normal;font-size:11.0666666px;font-family:'Avenir Next LT Pro';-inkscape-font-specification:'Avenir Next LT Pro, Normal';font-variant-ligatures:normal;font-variant-caps:normal;font-variant-numeric:normal;font-feature-settings:normal;text-align:start;writing-mode:lr-tb;text-anchor:start;fill:#ac1416;fill-opacity:1"
       id="path1081" /><path
       d="m 58.16797,314.59663 c 0.0664,-0.88534 0.807866,-1.6932 1.814933,-1.6932 1.073467,0 1.671067,0.71933 1.715333,1.6932 z m 4.293866,0.24346 c 0,-1.41653 -0.852133,-2.56746 -2.478933,-2.56746 -1.471867,0 -2.611733,1.162 -2.611733,2.7224 0,1.5604 1.139866,2.7224 2.678133,2.7224 0.852133,0 1.615733,-0.32094 2.2244,-1.0956 l -0.5644,-0.44267 c -0.287733,0.4648 -0.885333,0.8964 -1.66,0.8964 -1.0624,0 -1.870267,-0.84107 -1.8924,-1.88133 h 4.293867 c 0.01107,-0.1328 0.01107,-0.25454 0.01107,-0.35414 z"
       style="font-style:normal;font-variant:normal;font-weight:normal;font-stretch:normal;font-size:11.0666666px;font-family:'Avenir Next LT Pro';-inkscape-font-specification:'Avenir Next LT Pro, Normal';font-variant-ligatures:normal;font-variant-caps:normal;font-variant-numeric:normal;font-feature-settings:normal;text-align:start;writing-mode:lr-tb;text-anchor:start;fill:#ac1416;fill-opacity:1"
       id="path1083" /><path
       d="m 67.621842,309.21823 h -0.752533 v 8.3664 h 0.752533 z"
       style="font-style:normal;font-variant:normal;font-weight:normal;font-stretch:normal;font-size:11.0666666px;font-family:'Avenir Next LT Pro';-inkscape-font-specification:'Avenir Next LT Pro, Normal';font-variant-ligatures:normal;font-variant-caps:normal;font-variant-numeric:normal;font-feature-settings:normal;text-align:start;writing-mode:lr-tb;text-anchor:start;fill:#ac1416;fill-opacity:1"
       id="path1085" /><path
       d="m 70.055989,314.59663 c 0.0664,-0.88534 0.807867,-1.6932 1.814933,-1.6932 1.073467,0 1.671067,0.71933 1.715334,1.6932 z m 4.293867,0.24346 c 0,-1.41653 -0.852134,-2.56746 -2.478934,-2.56746 -1.471866,0 -2.611733,1.162 -2.611733,2.7224 0,1.5604 1.139867,2.7224 2.678133,2.7224 0.852134,0 1.615734,-0.32094 2.2244,-1.0956 l -0.5644,-0.44267 c -0.287733,0.4648 -0.885333,0.8964 -1.66,0.8964 -1.0624,0 -1.870266,-0.84107 -1.8924,-1.88133 h 4.293867 c 0.01107,-0.1328 0.01107,-0.25454 0.01107,-0.35414 z"
       style="font-style:normal;font-variant:normal;font-weight:normal;font-stretch:normal;font-size:11.0666666px;font-family:'Avenir Next LT Pro';-inkscape-font-specification:'Avenir Next LT Pro, Normal';font-variant-ligatures:normal;font-variant-caps:normal;font-variant-numeric:normal;font-feature-settings:normal;text-align:start;writing-mode:lr-tb;text-anchor:start;fill:#ac1416;fill-opacity:1"
       id="path1087" /><path
       d="m 79.168353,314.40849 c -1.8924,0 -3.652,0.14387 -3.652,1.73747 0,1.15093 1.007067,1.57147 1.7928,1.57147 0.83,0 1.405467,-0.28774 1.881333,-0.97387 h 0.02213 c 0,0.27667 0.0332,0.58653 0.07747,0.84107 h 0.675067 c -0.05533,-0.28774 -0.08853,-0.7636 -0.08853,-1.162 v -2.26867 c 0,-1.2616 -0.8964,-1.88133 -2.014134,-1.88133 -0.885333,0 -1.615733,0.32093 -2.036266,0.74146 l 0.420533,0.498 c 0.3652,-0.3652 0.9296,-0.60866 1.538267,-0.60866 0.8964,0 1.383333,0.44266 1.383333,1.33906 z m 0,0.58654 v 0.38733 c 0,0.91853 -0.5976,1.71533 -1.66,1.71533 -0.586533,0 -1.217333,-0.24346 -1.217333,-0.98493 0,-0.98493 1.4276,-1.11773 2.656,-1.11773 z"
       style="font-style:normal;font-variant:normal;font-weight:normal;font-stretch:normal;font-size:11.0666666px;font-family:'Avenir Next LT Pro';-inkscape-font-specification:'Avenir Next LT Pro, Normal';font-variant-ligatures:normal;font-variant-caps:normal;font-variant-numeric:normal;font-feature-settings:normal;text-align:start;writing-mode:lr-tb;text-anchor:start;fill:#ac1416;fill-opacity:1"
       id="path1089" /><path
       d="m 81.804466,313.54529 v 4.03934 h 0.752533 v -2.656 c 0,-1.38334 0.719334,-1.9588 1.516134,-1.9588 0.1992,0 0.442666,0.0332 0.5312,0.0664 l 0.0996,-0.70827 c -0.154934,-0.0443 -0.309867,-0.0553 -0.498,-0.0553 -0.7304,0 -1.372267,0.42053 -1.66,1.01813 h -0.02213 c 0,-0.22133 -0.02213,-0.60867 -0.04427,-0.88533 h -0.719334 c 0.0332,0.35413 0.04427,0.8632 0.04427,1.13986 z"
       style="font-style:normal;font-variant:normal;font-weight:normal;font-stretch:normal;font-size:11.0666666px;font-family:'Avenir Next LT Pro';-inkscape-font-specification:'Avenir Next LT Pro, Normal';font-variant-ligatures:normal;font-variant-caps:normal;font-variant-numeric:normal;font-feature-settings:normal;text-align:start;writing-mode:lr-tb;text-anchor:start;fill:#ac1416;fill-opacity:1"
       id="path1091" /><path
       d="m 85.737284,312.40543 c 0.0332,0.35413 0.04427,0.8632 0.04427,1.13986 v 4.03934 h 0.752533 v -2.656 c 0,-1.38334 0.774667,-2.0252 1.571467,-2.0252 1.084533,0 1.405467,0.7304 1.405467,1.81493 v 2.86627 h 0.752533 v -3.17614 c 0,-1.28373 -0.652933,-2.13586 -1.969867,-2.13586 -0.7304,0 -1.482933,0.42053 -1.770666,1.01813 h -0.02213 c 0,-0.22133 -0.02213,-0.60867 -0.04427,-0.88533 z"
       style="font-style:normal;font-variant:normal;font-weight:normal;font-stretch:normal;font-size:11.0666666px;font-family:'Avenir Next LT Pro';-inkscape-font-specification:'Avenir Next LT Pro, Normal';font-variant-ligatures:normal;font-variant-caps:normal;font-variant-numeric:normal;font-feature-settings:normal;text-align:start;writing-mode:lr-tb;text-anchor:start;fill:#ac1416;fill-opacity:1"
       id="path1093" /><path
       d="m 92.621617,314.59663 c 0.0664,-0.88534 0.807867,-1.6932 1.814933,-1.6932 1.073467,0 1.671067,0.71933 1.715334,1.6932 z m 4.293867,0.24346 c 0,-1.41653 -0.852134,-2.56746 -2.478934,-2.56746 -1.471866,0 -2.611733,1.162 -2.611733,2.7224 0,1.5604 1.139867,2.7224 2.678133,2.7224 0.852134,0 1.615734,-0.32094 2.2244,-1.0956 l -0.5644,-0.44267 c -0.287733,0.4648 -0.885333,0.8964 -1.66,0.8964 -1.062399,0 -1.870266,-0.84107 -1.892399,-1.88133 h 4.293866 c 0.01107,-0.1328 0.01107,-0.25454 0.01107,-0.35414 z"
       style="font-style:normal;font-variant:normal;font-weight:normal;font-stretch:normal;font-size:11.0666666px;font-family:'Avenir Next LT Pro';-inkscape-font-specification:'Avenir Next LT Pro, Normal';font-variant-ligatures:normal;font-variant-caps:normal;font-variant-numeric:normal;font-feature-settings:normal;text-align:start;writing-mode:lr-tb;text-anchor:start;fill:#ac1416;fill-opacity:1"
       id="path1095" /><path
       d="m 102.79482,316.71036 h 0.0221 v 0.87427 h 0.75254 v -8.3664 h -0.75254 v 4.0836 h -0.0221 c -0.44267,-0.67507 -1.21733,-1.0292 -1.9588,-1.0292 -1.615734,0 -2.678134,1.1952 -2.678134,2.7224 0,1.5272 1.0624,2.7224 2.678134,2.7224 0.74147,0 1.51613,-0.35414 1.9588,-1.00707 z m -3.840134,-1.71533 c 0,-1.15094 0.708267,-2.0916 1.958804,-2.0916 1.162,0 1.992,0.90746 1.992,2.0916 0,1.18413 -0.83,2.08053 -1.992,2.08053 -1.250537,0 -1.958804,-0.9296 -1.958804,-2.08053 z"
       style="font-style:normal;font-variant:normal;font-weight:normal;font-stretch:normal;font-size:11.0666666px;font-family:'Avenir Next LT Pro';-inkscape-font-specification:'Avenir Next LT Pro, Normal';font-variant-ligatures:normal;font-variant-caps:normal;font-variant-numeric:normal;font-feature-settings:normal;text-align:start;writing-mode:lr-tb;text-anchor:start;fill:#ac1416;fill-opacity:1"
       id="path1097" /><path
       d="m 106.62078,317.05343 c 0,-0.30987 -0.24347,-0.5976 -0.5976,-0.5976 -0.35414,0 -0.5976,0.28773 -0.5976,0.5976 0,0.30986 0.24346,0.5976 0.5976,0.5976 0.35413,0 0.5976,-0.28774 0.5976,-0.5976 z"
       style="font-style:normal;font-variant:normal;font-weight:normal;font-stretch:normal;font-size:11.0666666px;font-family:'Avenir Next LT Pro';-inkscape-font-specification:'Avenir Next LT Pro, Normal';font-variant-ligatures:normal;font-variant-caps:normal;font-variant-numeric:normal;font-feature-settings:normal;text-align:start;writing-mode:lr-tb;text-anchor:start;fill:#ac1416;fill-opacity:1"
       id="path1099" /></g><g
     aria-label="Robin Rimbaud"
     style="font-style:normal;font-variant:normal;font-weight:normal;font-stretch:normal;font-size:8px;line-height:1.25;font-family:'Avenir Next LT Pro';-inkscape-font-specification:'Avenir Next LT Pro, Normal';font-variant-ligatures:normal;font-variant-caps:normal;font-variant-numeric:normal;font-feature-settings:normal;text-align:start;letter-spacing:0px;word-spacing:0px;writing-mode:lr-tb;text-anchor:start;fill:#93939a;fill-opacity:1;stroke:none"
     id="text931"><path
       d="m 30.806035,332.77934 h 0.96 l 1.568,2.648 h 0.704 l -1.656,-2.696 c 0.824,-0.088 1.448,-0.616 1.448,-1.456 0,-1.104 -0.816,-1.512 -1.936,-1.512 h -1.664 v 5.664 h 0.576 z m 0,-2.52 h 1.024 c 0.856,0 1.424,0.272 1.424,1.016 0,0.672 -0.528,1.008 -1.448,1.008 h -1 z"
       style="font-style:normal;font-variant:normal;font-weight:normal;font-stretch:normal;font-size:8px;font-family:'Avenir Next LT Pro';-inkscape-font-specification:'Avenir Next LT Pro, Normal';font-variant-ligatures:normal;font-variant-caps:normal;font-variant-numeric:normal;font-feature-settings:normal;text-align:start;writing-mode:lr-tb;text-anchor:start;fill:#93939a;fill-opacity:1"
       id="path933" /><path
       d="m 38.62116,333.55534 c 0,-1.128 -0.832,-1.968 -2,-1.968 -1.16,0 -1.992,0.84 -1.992,1.968 0,1.128 0.832,1.968 1.992,1.968 1.168,0 2,-0.84 2,-1.968 z m -0.576,0 c 0,0.84 -0.552,1.504 -1.424,1.504 -0.864,0 -1.416,-0.664 -1.416,-1.504 0,-0.84 0.552,-1.512 1.416,-1.512 0.872,0 1.424,0.672 1.424,1.512 z"
       style="font-style:normal;font-variant:normal;font-weight:normal;font-stretch:normal;font-size:8px;font-family:'Avenir Next LT Pro';-inkscape-font-specification:'Avenir Next LT Pro, Normal';font-variant-ligatures:normal;font-variant-caps:normal;font-variant-numeric:normal;font-feature-settings:normal;text-align:start;writing-mode:lr-tb;text-anchor:start;fill:#93939a;fill-opacity:1"
       id="path935" /><path
       d="m 40.367785,334.79534 c 0.32,0.472 0.88,0.728 1.416,0.728 1.168,0 1.936,-0.864 1.936,-1.968 0,-1.104 -0.768,-1.968 -1.936,-1.968 -0.536,0 -1.096,0.256 -1.416,0.744 h -0.016 v -2.952 h -0.544 v 6.048 h 0.544 v -0.632 z m 2.776,-1.24 c 0,0.832 -0.512,1.504 -1.416,1.504 -0.84,0 -1.44,-0.648 -1.44,-1.504 0,-0.856 0.6,-1.512 1.44,-1.512 0.904,0 1.416,0.68 1.416,1.512 z"
       style="font-style:normal;font-variant:normal;font-weight:normal;font-stretch:normal;font-size:8px;font-family:'Avenir Next LT Pro';-inkscape-font-specification:'Avenir Next LT Pro, Normal';font-variant-ligatures:normal;font-variant-caps:normal;font-variant-numeric:normal;font-feature-settings:normal;text-align:start;writing-mode:lr-tb;text-anchor:start;fill:#93939a;fill-opacity:1"
       id="path937" /><path
       d="m 45.437535,331.68334 h -0.544 v 3.744 h 0.544 z m 0.112,-1.44 c 0,-0.224 -0.192,-0.384 -0.384,-0.384 -0.192,0 -0.384,0.16 -0.384,0.384 0,0.224 0.192,0.384 0.384,0.384 0.192,0 0.384,-0.16 0.384,-0.384 z"
       style="font-style:normal;font-variant:normal;font-weight:normal;font-stretch:normal;font-size:8px;font-family:'Avenir Next LT Pro';-inkscape-font-specification:'Avenir Next LT Pro, Normal';font-variant-ligatures:normal;font-variant-caps:normal;font-variant-numeric:normal;font-feature-settings:normal;text-align:start;writing-mode:lr-tb;text-anchor:start;fill:#93939a;fill-opacity:1"
       id="path939" /><path
       d="m 46.853535,331.68334 c 0.024,0.256 0.032,0.624 0.032,0.824 v 2.92 h 0.544 v -1.92 c 0,-1 0.56,-1.464 1.136,-1.464 0.784,0 1.016,0.528 1.016,1.312 v 2.072 h 0.544 v -2.296 c 0,-0.928 -0.472,-1.544 -1.424,-1.544 -0.528,0 -1.072,0.304 -1.28,0.736 h -0.016 c 0,-0.16 -0.016,-0.44 -0.032,-0.64 z"
       style="font-style:normal;font-variant:normal;font-weight:normal;font-stretch:normal;font-size:8px;font-family:'Avenir Next LT Pro';-inkscape-font-specification:'Avenir Next LT Pro, Normal';font-variant-ligatures:normal;font-variant-caps:normal;font-variant-numeric:normal;font-feature-settings:normal;text-align:start;writing-mode:lr-tb;text-anchor:start;fill:#93939a;fill-opacity:1"
       id="path941" /><path
       d="m 54.13416,332.77934 h 0.96 l 1.568,2.648 h 0.704 l -1.656,-2.696 c 0.824,-0.088 1.448,-0.616 1.448,-1.456 0,-1.104 -0.816,-1.512 -1.936,-1.512 h -1.664 v 5.664 h 0.576 z m 0,-2.52 h 1.024 c 0.856,0 1.424,0.272 1.424,1.016 0,0.672 -0.528,1.008 -1.448,1.008 h -1 z"
       style="font-style:normal;font-variant:normal;font-weight:normal;font-stretch:normal;font-size:8px;font-family:'Avenir Next LT Pro';-inkscape-font-specification:'Avenir Next LT Pro, Normal';font-variant-ligatures:normal;font-variant-caps:normal;font-variant-numeric:normal;font-feature-settings:normal;text-align:start;writing-mode:lr-tb;text-anchor:start;fill:#93939a;fill-opacity:1"
       id="path943" /><path
       d="m 58.875035,331.68334 h -0.544 v 3.744 h 0.544 z m 0.112,-1.44 c 0,-0.224 -0.192,-0.384 -0.384,-0.384 -0.192,0 -0.384,0.16 -0.384,0.384 0,0.224 0.192,0.384 0.384,0.384 0.192,0 0.384,-0.16 0.384,-0.384 z"
       style="font-style:normal;font-variant:normal;font-weight:normal;font-stretch:normal;font-size:8px;font-family:'Avenir Next LT Pro';-inkscape-font-specification:'Avenir Next LT Pro, Normal';font-variant-ligatures:normal;font-variant-caps:normal;font-variant-numeric:normal;font-feature-settings:normal;text-align:start;writing-mode:lr-tb;text-anchor:start;fill:#93939a;fill-opacity:1"
       id="path945" /><path
       d="m 60.859035,332.32334 h -0.016 c 0,-0.16 -0.016,-0.44 -0.032,-0.64 h -0.52 c 0.024,0.256 0.032,0.624 0.032,0.824 v 2.92 h 0.544 v -1.92 c 0,-1 0.568,-1.464 1.088,-1.464 0.728,0 0.904,0.472 0.904,1.2 v 2.184 h 0.544 v -1.992 c 0,-0.696 0.28,-1.392 1.064,-1.392 0.704,0 0.968,0.528 0.968,1.312 v 2.072 h 0.544 v -2.296 c 0,-0.928 -0.472,-1.544 -1.424,-1.544 -0.6,0 -1.056,0.28 -1.312,0.792 -0.248,-0.64 -0.744,-0.792 -1.152,-0.792 -0.536,0 -1.016,0.304 -1.232,0.736 z"
       style="font-style:normal;font-variant:normal;font-weight:normal;font-stretch:normal;font-size:8px;font-family:'Avenir Next LT Pro';-inkscape-font-specification:'Avenir Next LT Pro, Normal';font-variant-ligatures:normal;font-variant-caps:normal;font-variant-numeric:normal;font-feature-settings:normal;text-align:start;writing-mode:lr-tb;text-anchor:start;fill:#93939a;fill-opacity:1"
       id="path947" /><path
       d="m 67.961535,334.79534 c 0.32,0.472 0.88,0.728 1.416,0.728 1.168,0 1.936,-0.864 1.936,-1.968 0,-1.104 -0.768,-1.968 -1.936,-1.968 -0.536,0 -1.096,0.256 -1.416,0.744 h -0.016 v -2.952 h -0.544 v 6.048 h 0.544 v -0.632 z m 2.776,-1.24 c 0,0.832 -0.512,1.504 -1.416,1.504 -0.84,0 -1.44,-0.648 -1.44,-1.504 0,-0.856 0.6,-1.512 1.44,-1.512 0.904,0 1.416,0.68 1.416,1.512 z"
       style="font-style:normal;font-variant:normal;font-weight:normal;font-stretch:normal;font-size:8px;font-family:'Avenir Next LT Pro';-inkscape-font-specification:'Avenir Next LT Pro, Normal';font-variant-ligatures:normal;font-variant-caps:normal;font-variant-numeric:normal;font-feature-settings:normal;text-align:start;writing-mode:lr-tb;text-anchor:start;fill:#93939a;fill-opacity:1"
       id="path949" /><path
       d="m 74.839285,333.13134 c -1.368,0 -2.64,0.104 -2.64,1.256 0,0.832 0.728,1.136 1.296,1.136 0.6,0 1.016,-0.208 1.36,-0.704 h 0.016 c 0,0.2 0.024,0.424 0.056,0.608 h 0.488 c -0.04,-0.208 -0.064,-0.552 -0.064,-0.84 v -1.64 c 0,-0.912 -0.648,-1.36 -1.456,-1.36 -0.64,0 -1.168,0.232 -1.472,0.536 l 0.304,0.36 c 0.264,-0.264 0.672,-0.44 1.112,-0.44 0.648,0 1,0.32 1,0.968 z m 0,0.424 v 0.28 c 0,0.664 -0.432,1.24 -1.2,1.24 -0.424,0 -0.88,-0.176 -0.88,-0.712 0,-0.712 1.032,-0.808 1.92,-0.808 z"
       style="font-style:normal;font-variant:normal;font-weight:normal;font-stretch:normal;font-size:8px;font-family:'Avenir Next LT Pro';-inkscape-font-specification:'Avenir Next LT Pro, Normal';font-variant-ligatures:normal;font-variant-caps:normal;font-variant-numeric:normal;font-feature-settings:normal;text-align:start;writing-mode:lr-tb;text-anchor:start;fill:#93939a;fill-opacity:1"
       id="path951" /><path
       d="m 79.98491,335.42734 c -0.024,-0.256 -0.032,-0.624 -0.032,-0.824 v -2.92 h -0.544 v 1.92 c 0,1 -0.56,1.464 -1.136,1.464 -0.784,0 -1.016,-0.528 -1.016,-1.312 v -2.072 h -0.544 v 2.296 c 0,0.928 0.472,1.544 1.424,1.544 0.528,0 1.072,-0.304 1.28,-0.736 h 0.016 c 0,0.16 0.016,0.44 0.032,0.64 z"
       style="font-style:normal;font-variant:normal;font-weight:normal;font-stretch:normal;font-size:8px;font-family:'Avenir Next LT Pro';-inkscape-font-specification:'Avenir Next LT Pro, Normal';font-variant-ligatures:normal;font-variant-caps:normal;font-variant-numeric:normal;font-feature-settings:normal;text-align:start;writing-mode:lr-tb;text-anchor:start;fill:#93939a;fill-opacity:1"
       id="path953" /><path
       d="m 84.465535,334.79534 h 0.016 v 0.632 h 0.544 v -6.048 h -0.544 v 2.952 h -0.016 c -0.32,-0.488 -0.88,-0.744 -1.416,-0.744 -1.168,0 -1.936,0.864 -1.936,1.968 0,1.104 0.768,1.968 1.936,1.968 0.536,0 1.096,-0.256 1.416,-0.728 z m -2.776,-1.24 c 0,-0.832 0.512,-1.512 1.416,-1.512 0.84,0 1.44,0.656 1.44,1.512 0,0.856 -0.6,1.504 -1.44,1.504 -0.904,0 -1.416,-0.672 -1.416,-1.504 z"
       style="font-style:normal;font-variant:normal;font-weight:normal;font-stretch:normal;font-size:8px;font-family:'Avenir Next LT Pro';-inkscape-font-specification:'Avenir Next LT Pro, Normal';font-variant-ligatures:normal;font-variant-caps:normal;font-variant-numeric:normal;font-feature-settings:normal;text-align:start;writing-mode:lr-tb;text-anchor:start;fill:#93939a;fill-opacity:1"
       id="path955" /></g></svg>