<?xml version="1.0" encoding="UTF-8" standalone="no"?>
<svg
   xmlns:dc="http://purl.org/dc/elements/1.1/"
   xmlns:cc="http://creativecommons.org/ns#"
   xmlns:rdf="http://www.w3.org/1999/02/22-rdf-syntax-ns#"
   xmlns:svg="http://www.w3.org/2000/svg"
   xmlns="http://www.w3.org/2000/svg"
   xmlns:sodipodi="http://sodipodi.sourceforge.net/DTD/sodipodi-0.dtd"
   xmlns:inkscape="http://www.inkscape.org/namespaces/inkscape"
   version="1.1"
   id="Lag_1"
   x="0"
   y="0"
   viewBox="0 0 180 380"
   xml:space="preserve"
   sodipodi:docname="PT_quote01_180px.svg"
   inkscape:version="0.92.2 (5c3e80d, 2017-08-06)"><metadata
     id="metadata133"><rdf:RDF><cc:Work
         rdf:about=""><dc:format>image/svg+xml</dc:format><dc:type
           rdf:resource="http://purl.org/dc/dcmitype/StillImage" /></cc:Work></rdf:RDF></metadata><defs
     id="defs131" /><sodipodi:namedview
     pagecolor="#ffffff"
     bordercolor="#666666"
     borderopacity="1"
     objecttolerance="10"
     gridtolerance="10"
     guidetolerance="10"
     inkscape:pageopacity="0"
     inkscape:pageshadow="2"
     inkscape:window-width="1366"
     inkscape:window-height="705"
     id="namedview129"
     showgrid="false"
     inkscape:zoom="4.968421"
     inkscape:cx="91.759862"
     inkscape:cy="313.25938"
     inkscape:window-x="1912"
     inkscape:window-y="300"
     inkscape:window-maximized="1"
     inkscape:current-layer="Lag_1" /><style
     id="style2">.st1{fill:#f9dc0a}.st2{fill:#007fc5}.st4{fill:#222221}.st5{fill:#af1d1f}.st6{enable-background:new}.st7{fill:#939392}</style><path
     d="M0 0h180v380H0z"
     id="path4"
     fill="#e3e1e1" /><path
     class="st1"
     d="M132.9 174.8c-15.2 0-32.9-4.8-51.4-19-.3-.2-.3-.6-.1-.9.2-.3.6-.3.8-.1 46.3 35.7 87.7 11 96.2 2.5.2-.3.6-.3.9-.1.3.2.3.6.1.9l-.1.1c-5.3 5.3-22.9 16.6-46.4 16.6z"
     id="path6"
     style="fill:#f9dc0a;fill-opacity:1" /><path
     class="st2"
     d="M145.2 152c-.3 0-.6.2-.6.6 0 .1-.5 6.2-8.2 11.1-14.3 9-49.5 12.9-136.4-19.7v1.3c52.2 19.5 85.8 25.9 107.5 25.9 14.6 0 23.8-2.9 29.5-6.6 8.2-5.2 8.7-11.7 8.7-12 .1-.3-.1-.6-.5-.6z"
     id="path8"
     style="fill:#007fc5;fill-opacity:1" /><path
     d="M37.3 160.5c-.3 0-.6.2-.7.6 0 .5-1.3 12.2-24 12.2-6.1 0-10-.8-12.6-1.9v1.3c3.1 1.2 7.3 1.8 12.6 1.8 23.9 0 25.2-12.8 25.2-13.4.1-.3-.2-.6-.5-.6z"
     fill="#9c9b9b"
     id="path10"
     style="fill:#9c9b9b;fill-opacity:1" /><path
     class="st4"
     d="M20.3 77.5v7.2h7.2v18H36v-18h7.3v-7.2zM72.9 77.5l-2.1 14.2-3-14.2H59l-2.8 14.2-2.1-14.2h-9l6 25.2h8.5l3.7-14.2h.1l3.6 14.2h8.5l6.1-25.2zM84.2 77.5v25.2h17.9v-7.1h-10v-2.3h8.8v-6.6h-8.8v-2.1h9.4v-7.1zM118.2 86.3l2 6.2h-4.1l2.1-6.2zm-4.3-8.8l-9.9 25.1h8.9l1.2-3.7h8l1.3 3.7h9.2l-9.8-25.2h-8.9zM149.4 77.5l-6.7 9.3h-.1v-9.3h-8.1v25.2h8.2V92.6h.1l6.7 10.1h10.3L149.9 89l9.5-11.5zM30.4 53.4c.3 0 .6 0 .9.1.3.1.6.2.8.3.2.1.4.3.6.6.2.3.2.7.2 1 .1.6-.3 1.3-.8 1.6-.5.3-1.1.5-1.8.5h-1.8v-4.1h1.9zm.6 10.5c1.3 0 2.6-.2 3.8-.5 1.2-.3 2.3-.8 3.3-1.5s1.7-1.6 2.3-2.7c.6-1.2.9-2.6.9-4 .1-1.4-.3-2.8-.9-4.1-.6-1-1.4-1.9-2.3-2.6-1-.7-2.1-1.1-3.3-1.4-1.2-.3-2.5-.4-3.8-.4H20.3V72h8.4v-8.1H31zM55.3 61.8h-4.1l2.1-6.2 2 6.2zM39 72h9l1.2-3.7h8l1.3 3.7h9.2l-9.8-25.2h-9L39 72zM80 54h6.2v-7.2H65.4V54h6.2v17.9H80zM87.7 64.8c1.4 3.2 4 5.7 7.3 6.9 1.7.7 3.5 1 5.3 1 1.9 0 3.8-.3 5.6-1 1.6-.6 3-1.5 4.2-2.7l-5.2-6.2c-.4.6-1 1.1-1.7 1.4-.8.4-1.6.6-2.5.6-.7 0-1.4-.1-2-.4-.6-.2-1.2-.6-1.6-1.1-.5-.5-.8-1.1-1.1-1.7-.3-.7-.4-1.5-.4-2.2 0-.8.1-1.5.4-2.3.2-.6.6-1.2 1.1-1.7.5-.5 1-.8 1.6-1.1.6-.3 1.3-.4 2-.4.8 0 1.6.2 2.4.5.7.3 1.3.8 1.8 1.4l5.2-6.2c-1.3-1.1-2.7-2-4.3-2.5-1.8-.6-3.6-.9-5.5-.9-1.8 0-3.6.3-5.3.9-1.6.6-3.1 1.5-4.3 2.7-1.2 1.2-2.2 2.6-2.9 4.2-.7 1.7-1.1 3.6-1.1 5.5 0 1.8.3 3.6 1 5.3M127.5 71.9h8.4V46.8h-8.4v8.5h-6.9v-8.5h-8.4v25.1h8.4v-9.5h6.9z"
     id="path12"
     style="fill:#222221;fill-opacity:1" /><path
     class="st1"
     d="M160.4 154.6c-14.7 0-25.5-5.2-34.2-9.4-13-6.3-21.6-10.5-33.8 4.7-.2.3-.6.3-.9.1-.3-.2-.3-.6-.1-.9 12.8-15.9 22.2-11.4 35.3-5.1 8.6 4.2 19.3 9.3 33.7 9.3.3 0 .6.3.6.6s-.3.7-.6.7z"
     id="path16"
     style="fill:#f9dc0a;fill-opacity:1" /><path
     class="st2"
     d="M138.5 168c-7.1 0-15.4-1.9-25-5.8-7.7-3.1-15-6.9-22-11.4-.3-.2-.4-.6-.2-.9.2-.3.6-.4.8-.2.4.2 38.4 25.1 58.9 14.1 8.7-4.7 13.1-15.2 13.1-31.4 0-.3.3-.6.6-.6s.6.3.6.6c0 16.6-4.6 27.5-13.8 32.4-3.9 2.3-8.4 3.3-13 3.2z"
     id="path18"
     style="fill:#007fc5;fill-opacity:1" /><path
     class="st1"
     d="M58 158.7c-.1 0-.2 0-.3-.1-.3-.2-.4-.5-.2-.8 1.2-2 10.6-12 16.3-10.5 2.6.7 3.9 3.5 3.9 8.4 0 .3-.3.6-.6.6s-.6-.3-.6-.6c0-4.2-1-6.7-3-7.2-4.7-1.2-13.8 7.9-14.9 9.9-.2.2-.4.3-.6.3z"
     id="path20"
     style="fill:#f9dc0a;fill-opacity:1" /><path
     class="st1"
     d="M58.3 169.7c-4.9 0-10-2.5-15.3-5.2-9.1-4.5-18.5-9.2-26.8-.1-.2.3-.6.3-.9.1-.3-.2-.3-.6-.1-.9l.1-.1c9-9.8 18.8-4.9 28.3-.2 6.6 3.3 12.9 6.4 18.5 4.4 3.8-1.4 7-5 9.9-11 .1-.3.5-.5.8-.4s.5.5.4.8c0 0 0 .1-.1.1-3 6.4-6.4 10.2-10.6 11.7-1.3.6-2.7.8-4.2.8zM89 154.6c-.1 0-.2 0-.3-.1-.3-.2-.4-.5-.2-.8 11.3-20.1 25-31.1 40.7-32.8 26.6-2.9 49.9 22.6 50.1 22.9.2.2.2.6 0 .9-.3.2-.6.2-.9-.1-.2-.2-23.1-25.3-49.1-22.5-15.2 1.7-28.6 12.5-39.7 32.2-.2.2-.4.3-.6.3z"
     id="path22"
     style="fill:#f9dc0a;fill-opacity:1" /><path
     class="st2"
     d="M129.9 166.7c-.4 0-.6-.3-.6-.7 0-.5 5.4-47.6 49.8-43.4.3 0 .6.3.6.7s-.3.6-.7.6c-18.1-1.7-31.8 4.9-40.6 19.6-4.1 7-6.8 14.7-7.9 22.8 0 .2-.2.4-.6.4z"
     id="path24"
     style="fill:#007fc5;fill-opacity:1" /><g
     class="st6"
     id="g28"><path
       class="st4"
       d="M32.9 223h2l-2.3 8.2h-2.5l2.8-8.2zm5.8 0h2l-2.3 8.2h-2.5l2.8-8.2z"
       id="path26" /></g><g
     class="st6"
     id="g112"
     style="fill:#ac0000;fill-opacity:1;enable-background:new"
     transform="translate(0.40254238)"><path
       class="st4"
       d="m 151.2,278.4 h -0.6 l 0.7,-2.6 h 0.8 z m 1.8,0 h -0.6 l 0.7,-2.6 h 0.8 z"
       id="path110"
       style="fill:#ac0000;fill-opacity:1"
       inkscape:connector-curvature="0" /></g><path
     class="st5"
     d="M131.9 137.7c-.3-.1-.7 0-.8.4-3.8 10.7-40 15.4-75 20-21.5 2.8-42.1 5.5-56.1 9.5v1.3c14.2-4.1 35.5-6.9 56.3-9.6 37-4.8 72-9.4 76-20.8.1-.4-.1-.7-.4-.8z"
     id="path122"
     style="fill:#af1d1f;fill-opacity:1" /><path
     class="st2"
     d="M27.2 154.6c-.3 0-.5-.2-.6-.4-.1-.4-3.7-10.2 1.5-18.9 3.9-6.4 11.4-10.4 22.5-12 20-2.7 42.8 2 58.5 6.5 10 2.8 19.8 6.3 29.4 10.5.3.2.4.5.3.8-.1.3-.5.4-.8.3-9.5-4.1-19.3-7.5-29.2-10.4-15.5-4.4-38.1-9.2-58-6.5-10.7 1.4-18 5.3-21.6 11.4-4.9 8.2-1.5 17.8-1.4 17.9.1.3-.1.7-.4.8h-.2z"
     id="path124"
     style="fill:#007fc5;fill-opacity:1" /><path
     class="st5"
     d="M179.9 132c-43.4-8-82.2-8.9-115.4-2.8-14.9 2.8-43 9.9-63.1 26.4-.5.4-1 .8-1.4 1.2v1.6c.7-.6 1.4-1.3 2.2-1.9 19.9-16.3 47.7-23.4 62.5-26.1 33.1-6.1 71.8-5.2 115.2 2.8V132z"
     id="path126"
     style="fill-opacity:1;fill:#af1d1f" /><g
     aria-label="It's just a matter of"
     style="font-style:normal;font-weight:normal;font-size:40px;line-height:1.25;font-family:sans-serif;letter-spacing:0px;word-spacing:0px;fill:#000000;fill-opacity:1;stroke:none"
     id="text879"><path
       d="m 50.45163,224.86336 h -0.7968 v 7.8352 h 0.7968 z"
       style="font-style:normal;font-variant:normal;font-weight:normal;font-stretch:normal;font-size:11.0666666px;font-family:'Avenir Next LT Pro';-inkscape-font-specification:'Avenir Next LT Pro, Normal';font-variant-ligatures:normal;font-variant-caps:normal;font-variant-numeric:normal;font-feature-settings:normal;text-align:start;writing-mode:lr-tb;text-anchor:start;fill:#ac1416;fill-opacity:1"
       id="path1683" /><path
       d="m 54.820369,227.51936 h -1.4608 v -1.4608 h -0.752533 v 1.4608 h -1.073467 v 0.6308 h 1.073467 v 3.23147 c 0,1.13987 0.774667,1.38333 1.328,1.38333 0.343067,0 0.619733,-0.0553 0.885333,-0.15493 l -0.0332,-0.65293 c -0.1992,0.0996 -0.442666,0.166 -0.652933,0.166 -0.453733,0 -0.774667,-0.17707 -0.774667,-0.95174 v -3.0212 h 1.4608 z"
       style="font-style:normal;font-variant:normal;font-weight:normal;font-stretch:normal;font-size:11.0666666px;font-family:'Avenir Next LT Pro';-inkscape-font-specification:'Avenir Next LT Pro, Normal';font-variant-ligatures:normal;font-variant-caps:normal;font-variant-numeric:normal;font-feature-settings:normal;text-align:start;writing-mode:lr-tb;text-anchor:start;fill:#ac1416;fill-opacity:1"
       id="path1685" /><path
       d="m 56.097532,227.46403 h 0.664 v -2.60067 h -0.664 z"
       style="font-style:normal;font-variant:normal;font-weight:normal;font-stretch:normal;font-size:11.0666666px;font-family:'Avenir Next LT Pro';-inkscape-font-specification:'Avenir Next LT Pro, Normal';font-variant-ligatures:normal;font-variant-caps:normal;font-variant-numeric:normal;font-feature-settings:normal;text-align:start;writing-mode:lr-tb;text-anchor:start;fill:#ac1416;fill-opacity:1"
       id="path1687" /><path
       d="m 62.192671,228.31616 c -0.332,-0.58653 -1.0956,-0.9296 -1.814933,-0.9296 -0.940667,0 -1.848134,0.45374 -1.848134,1.50507 0,0.98493 0.874267,1.25053 1.482934,1.3944 0.984933,0.2324 1.5272,0.45373 1.5272,0.996 0,0.67507 -0.575467,0.90747 -1.217334,0.90747 -0.608666,0 -1.173066,-0.35414 -1.438666,-0.80787 l -0.5976,0.44267 c 0.475866,0.6972 1.2616,1.00706 2.047333,1.00706 0.951733,0 1.947733,-0.42053 1.947733,-1.60466 0,-0.80787 -0.575466,-1.2616 -1.7928,-1.51614 -0.852133,-0.17706 -1.239466,-0.3984 -1.239466,-0.88533 0,-0.57547 0.553333,-0.80787 1.0956,-0.80787 0.575466,0 1.051333,0.2988 1.272666,0.7304 z"
       style="font-style:normal;font-variant:normal;font-weight:normal;font-stretch:normal;font-size:11.0666666px;font-family:'Avenir Next LT Pro';-inkscape-font-specification:'Avenir Next LT Pro, Normal';font-variant-ligatures:normal;font-variant-caps:normal;font-variant-numeric:normal;font-feature-settings:normal;text-align:start;writing-mode:lr-tb;text-anchor:start;fill:#ac1416;fill-opacity:1"
       id="path1689" /><path
       d="m 65.239982,235.2771 c 0.188133,0.0553 0.442667,0.0775 0.5976,0.0775 1.173067,0 1.471867,-0.7968 1.471867,-1.6268 v -6.2084 h -0.752534 v 6.08667 c 0,0.65293 -0.0996,1.10667 -0.7304,1.10667 -0.143866,0 -0.332,-0.0221 -0.475866,-0.0664 z m 2.2244,-9.74974 c 0,-0.30986 -0.2656,-0.5312 -0.5312,-0.5312 -0.2656,0 -0.5312,0.22134 -0.5312,0.5312 0,0.30987 0.2656,0.5312 0.5312,0.5312 0.2656,0 0.5312,-0.22133 0.5312,-0.5312 z"
       style="font-style:normal;font-variant:normal;font-weight:normal;font-stretch:normal;font-size:11.0666666px;font-family:'Avenir Next LT Pro';-inkscape-font-specification:'Avenir Next LT Pro, Normal';font-variant-ligatures:normal;font-variant-caps:normal;font-variant-numeric:normal;font-feature-settings:normal;text-align:start;writing-mode:lr-tb;text-anchor:start;fill:#ac1416;fill-opacity:1"
       id="path1691" /><path
       d="m 73.805063,232.69856 c -0.0332,-0.35413 -0.04427,-0.8632 -0.04427,-1.13986 v -4.03934 h -0.752533 v 2.656 c 0,1.38334 -0.774667,2.0252 -1.571467,2.0252 -1.084533,0 -1.405467,-0.7304 -1.405467,-1.81493 v -2.86627 h -0.752533 v 3.17614 c 0,1.28373 0.652933,2.13586 1.969867,2.13586 0.7304,0 1.482933,-0.42053 1.770666,-1.01813 h 0.02213 c 0,0.22133 0.02213,0.60867 0.04427,0.88533 z"
       style="font-style:normal;font-variant:normal;font-weight:normal;font-stretch:normal;font-size:11.0666666px;font-family:'Avenir Next LT Pro';-inkscape-font-specification:'Avenir Next LT Pro, Normal';font-variant-ligatures:normal;font-variant-caps:normal;font-variant-numeric:normal;font-feature-settings:normal;text-align:start;writing-mode:lr-tb;text-anchor:start;fill:#ac1416;fill-opacity:1"
       id="path1693" /><path
       d="m 79.07366,228.31616 c -0.332,-0.58653 -1.0956,-0.9296 -1.814933,-0.9296 -0.940667,0 -1.848134,0.45374 -1.848134,1.50507 0,0.98493 0.874267,1.25053 1.482934,1.3944 0.984933,0.2324 1.5272,0.45373 1.5272,0.996 0,0.67507 -0.575467,0.90747 -1.217334,0.90747 -0.608666,0 -1.173066,-0.35414 -1.438666,-0.80787 l -0.5976,0.44267 c 0.475866,0.6972 1.2616,1.00706 2.047333,1.00706 0.951733,0 1.947733,-0.42053 1.947733,-1.60466 0,-0.80787 -0.575466,-1.2616 -1.7928,-1.51614 -0.852133,-0.17706 -1.239466,-0.3984 -1.239466,-0.88533 0,-0.57547 0.553333,-0.80787 1.0956,-0.80787 0.575466,0 1.051333,0.2988 1.272666,0.7304 z"
       style="font-style:normal;font-variant:normal;font-weight:normal;font-stretch:normal;font-size:11.0666666px;font-family:'Avenir Next LT Pro';-inkscape-font-specification:'Avenir Next LT Pro, Normal';font-variant-ligatures:normal;font-variant-caps:normal;font-variant-numeric:normal;font-feature-settings:normal;text-align:start;writing-mode:lr-tb;text-anchor:start;fill:#ac1416;fill-opacity:1"
       id="path1695" /><path
       d="m 82.984171,227.51936 h -1.4608 v -1.4608 h -0.752533 v 1.4608 h -1.073467 v 0.6308 h 1.073467 v 3.23147 c 0,1.13987 0.774667,1.38333 1.328,1.38333 0.343067,0 0.619733,-0.0553 0.885333,-0.15493 l -0.0332,-0.65293 c -0.1992,0.0996 -0.442666,0.166 -0.652933,0.166 -0.453733,0 -0.774667,-0.17707 -0.774667,-0.95174 v -3.0212 h 1.4608 z"
       style="font-style:normal;font-variant:normal;font-weight:normal;font-stretch:normal;font-size:11.0666666px;font-family:'Avenir Next LT Pro';-inkscape-font-specification:'Avenir Next LT Pro, Normal';font-variant-ligatures:normal;font-variant-caps:normal;font-variant-numeric:normal;font-feature-settings:normal;text-align:start;writing-mode:lr-tb;text-anchor:start;fill:#ac1416;fill-opacity:1"
       id="path1697" /><path
       d="m 90.182,229.52243 c -1.8924,0 -3.652,0.14387 -3.652,1.73747 0,1.15093 1.007067,1.57146 1.7928,1.57146 0.83,0 1.405467,-0.28773 1.881333,-0.97386 h 0.02213 c 0,0.27666 0.0332,0.58653 0.07747,0.84106 H 90.9788 c -0.05533,-0.28773 -0.08853,-0.7636 -0.08853,-1.162 v -2.26866 c 0,-1.2616 -0.8964,-1.88134 -2.014134,-1.88134 -0.885333,0 -1.615733,0.32094 -2.036266,0.74147 l 0.420533,0.498 c 0.3652,-0.3652 0.9296,-0.60867 1.538267,-0.60867 0.8964,0 1.383333,0.44267 1.383333,1.33907 z m 0,0.58653 v 0.38734 c 0,0.91853 -0.5976,1.71533 -1.66,1.71533 -0.586533,0 -1.217333,-0.24347 -1.217333,-0.98493 0,-0.98494 1.4276,-1.11774 2.656,-1.11774 z"
       style="font-style:normal;font-variant:normal;font-weight:normal;font-stretch:normal;font-size:11.0666666px;font-family:'Avenir Next LT Pro';-inkscape-font-specification:'Avenir Next LT Pro, Normal';font-variant-ligatures:normal;font-variant-caps:normal;font-variant-numeric:normal;font-feature-settings:normal;text-align:start;writing-mode:lr-tb;text-anchor:start;fill:#ac1416;fill-opacity:1"
       id="path1699" /><path
       d="m 96.32625,228.4047 h -0.02213 c 0,-0.22134 -0.02213,-0.60867 -0.04427,-0.88534 h -0.719333 c 0.0332,0.35414 0.04427,0.8632 0.04427,1.13987 v 4.03933 h 0.752534 v -2.656 c 0,-1.38333 0.785733,-2.0252 1.505066,-2.0252 1.007067,0 1.250534,0.65294 1.250534,1.66 v 3.0212 h 0.752533 v -2.7556 c 0,-0.9628 0.38733,-1.9256 1.47187,-1.9256 0.97386,0 1.33906,0.7304 1.33906,1.81494 v 2.86626 h 0.75254 v -3.17613 c 0,-1.28373 -0.65294,-2.13587 -1.96987,-2.13587 -0.83,0 -1.4608,0.38734 -1.814933,1.0956 -0.343067,-0.88533 -1.0292,-1.0956 -1.5936,-1.0956 -0.741467,0 -1.405467,0.42054 -1.704267,1.01814 z"
       style="font-style:normal;font-variant:normal;font-weight:normal;font-stretch:normal;font-size:11.0666666px;font-family:'Avenir Next LT Pro';-inkscape-font-specification:'Avenir Next LT Pro, Normal';font-variant-ligatures:normal;font-variant-caps:normal;font-variant-numeric:normal;font-feature-settings:normal;text-align:start;writing-mode:lr-tb;text-anchor:start;fill:#ac1416;fill-opacity:1"
       id="path1701" /><path
       d="m 108.61924,229.52243 c -1.8924,0 -3.652,0.14387 -3.652,1.73747 0,1.15093 1.00707,1.57146 1.7928,1.57146 0.83,0 1.40547,-0.28773 1.88133,-0.97386 h 0.0221 c 0,0.27666 0.0332,0.58653 0.0775,0.84106 h 0.67507 c -0.0553,-0.28773 -0.0885,-0.7636 -0.0885,-1.162 v -2.26866 c 0,-1.2616 -0.8964,-1.88134 -2.01414,-1.88134 -0.88533,0 -1.61573,0.32094 -2.03626,0.74147 l 0.42053,0.498 c 0.3652,-0.3652 0.9296,-0.60867 1.53827,-0.60867 0.8964,0 1.38333,0.44267 1.38333,1.33907 z m 0,0.58653 v 0.38734 c 0,0.91853 -0.5976,1.71533 -1.66,1.71533 -0.58653,0 -1.21733,-0.24347 -1.21733,-0.98493 0,-0.98494 1.4276,-1.11774 2.656,-1.11774 z"
       style="font-style:normal;font-variant:normal;font-weight:normal;font-stretch:normal;font-size:11.0666666px;font-family:'Avenir Next LT Pro';-inkscape-font-specification:'Avenir Next LT Pro, Normal';font-variant-ligatures:normal;font-variant-caps:normal;font-variant-numeric:normal;font-feature-settings:normal;text-align:start;writing-mode:lr-tb;text-anchor:start;fill:#ac1416;fill-opacity:1"
       id="path1703" /><path
       d="m 113.48235,227.51936 h -1.4608 v -1.4608 h -0.75253 v 1.4608 h -1.07347 v 0.6308 h 1.07347 v 3.23147 c 0,1.13987 0.77466,1.38333 1.328,1.38333 0.34306,0 0.61973,-0.0553 0.88533,-0.15493 l -0.0332,-0.65293 c -0.1992,0.0996 -0.44267,0.166 -0.65293,0.166 -0.45374,0 -0.77467,-0.17707 -0.77467,-0.95174 v -3.0212 h 1.4608 z"
       style="font-style:normal;font-variant:normal;font-weight:normal;font-stretch:normal;font-size:11.0666666px;font-family:'Avenir Next LT Pro';-inkscape-font-specification:'Avenir Next LT Pro, Normal';font-variant-ligatures:normal;font-variant-caps:normal;font-variant-numeric:normal;font-feature-settings:normal;text-align:start;writing-mode:lr-tb;text-anchor:start;fill:#ac1416;fill-opacity:1"
       id="path1705" /><path
       d="m 116.85422,227.51936 h -1.4608 v -1.4608 h -0.75253 v 1.4608 h -1.07347 v 0.6308 h 1.07347 v 3.23147 c 0,1.13987 0.77467,1.38333 1.328,1.38333 0.34307,0 0.61973,-0.0553 0.88533,-0.15493 l -0.0332,-0.65293 c -0.1992,0.0996 -0.44266,0.166 -0.65293,0.166 -0.45373,0 -0.77467,-0.17707 -0.77467,-0.95174 v -3.0212 h 1.4608 z"
       style="font-style:normal;font-variant:normal;font-weight:normal;font-stretch:normal;font-size:11.0666666px;font-family:'Avenir Next LT Pro';-inkscape-font-specification:'Avenir Next LT Pro, Normal';font-variant-ligatures:normal;font-variant-caps:normal;font-variant-numeric:normal;font-feature-settings:normal;text-align:start;writing-mode:lr-tb;text-anchor:start;fill:#ac1416;fill-opacity:1"
       id="path1707" /><path
       d="m 118.44125,229.71056 c 0.0664,-0.88533 0.80787,-1.6932 1.81494,-1.6932 1.07346,0 1.67106,0.71934 1.71533,1.6932 z m 4.29387,0.24347 c 0,-1.41653 -0.85213,-2.56747 -2.47893,-2.56747 -1.47187,0 -2.61174,1.162 -2.61174,2.7224 0,1.5604 1.13987,2.7224 2.67814,2.7224 0.85213,0 1.61573,-0.32093 2.2244,-1.0956 l -0.5644,-0.44266 c -0.28774,0.4648 -0.88534,0.8964 -1.66,0.8964 -1.0624,0 -1.87027,-0.84107 -1.8924,-1.88134 h 4.29386 c 0.0111,-0.1328 0.0111,-0.25453 0.0111,-0.35413 z"
       style="font-style:normal;font-variant:normal;font-weight:normal;font-stretch:normal;font-size:11.0666666px;font-family:'Avenir Next LT Pro';-inkscape-font-specification:'Avenir Next LT Pro, Normal';font-variant-ligatures:normal;font-variant-caps:normal;font-variant-numeric:normal;font-feature-settings:normal;text-align:start;writing-mode:lr-tb;text-anchor:start;fill:#ac1416;fill-opacity:1"
       id="path1709" /><path
       d="m 124.3538,228.65923 v 4.03933 h 0.75253 v -2.656 c 0,-1.38333 0.71933,-1.9588 1.51613,-1.9588 0.1992,0 0.44267,0.0332 0.5312,0.0664 l 0.0996,-0.70826 c -0.15493,-0.0443 -0.30986,-0.0553 -0.498,-0.0553 -0.7304,0 -1.37226,0.42054 -1.66,1.01814 h -0.0221 c 0,-0.22134 -0.0221,-0.60867 -0.0443,-0.88534 h -0.71933 c 0.0332,0.35414 0.0443,0.8632 0.0443,1.13987 z"
       style="font-style:normal;font-variant:normal;font-weight:normal;font-stretch:normal;font-size:11.0666666px;font-family:'Avenir Next LT Pro';-inkscape-font-specification:'Avenir Next LT Pro, Normal';font-variant-ligatures:normal;font-variant-caps:normal;font-variant-numeric:normal;font-feature-settings:normal;text-align:start;writing-mode:lr-tb;text-anchor:start;fill:#ac1416;fill-opacity:1"
       id="path1711" /><path
       d="m 136.24354,230.10896 c 0,-1.5604 -1.15093,-2.7224 -2.76667,-2.7224 -1.60466,0 -2.7556,1.162 -2.7556,2.7224 0,1.5604 1.15094,2.7224 2.7556,2.7224 1.61574,0 2.76667,-1.162 2.76667,-2.7224 z m -0.7968,0 c 0,1.162 -0.7636,2.08054 -1.96987,2.08054 -1.1952,0 -1.9588,-0.91854 -1.9588,-2.08054 0,-1.162 0.7636,-2.0916 1.9588,-2.0916 1.20627,0 1.96987,0.9296 1.96987,2.0916 z"
       style="font-style:normal;font-variant:normal;font-weight:normal;font-stretch:normal;font-size:11.0666666px;font-family:'Avenir Next LT Pro';-inkscape-font-specification:'Avenir Next LT Pro, Normal';font-variant-ligatures:normal;font-variant-caps:normal;font-variant-numeric:normal;font-feature-settings:normal;text-align:start;writing-mode:lr-tb;text-anchor:start;fill:#ac1416;fill-opacity:1"
       id="path1713" /><path
       d="m 140.05411,227.51936 h -1.21734 v -1.328 c 0,-0.75253 0.166,-1.328 0.97387,-1.328 0.1992,0 0.3652,0.0332 0.52013,0.0775 l 0.1328,-0.664 c -0.18813,-0.0553 -0.4316,-0.0775 -0.61973,-0.0775 -1.18413,0 -1.7596,0.7304 -1.7596,1.90347 v 1.41653 h -1.08453 v 0.6308 h 1.08453 v 4.5484 h 0.75253 v -4.5484 h 1.21734 z"
       style="font-style:normal;font-variant:normal;font-weight:normal;font-stretch:normal;font-size:11.0666666px;font-family:'Avenir Next LT Pro';-inkscape-font-specification:'Avenir Next LT Pro, Normal';font-variant-ligatures:normal;font-variant-caps:normal;font-variant-numeric:normal;font-feature-settings:normal;text-align:start;writing-mode:lr-tb;text-anchor:start;fill:#ac1416;fill-opacity:1"
       id="path1715" /></g><g
     aria-label="translating what you"
     style="font-style:normal;font-weight:normal;font-size:40px;line-height:1.25;font-family:sans-serif;letter-spacing:0px;word-spacing:0px;fill:#000000;fill-opacity:1;stroke:none"
     id="text879-0"><path
       d="m 52.439396,244.39921 h -1.4608 v -1.4608 h -0.752533 v 1.4608 h -1.073467 v 0.6308 h 1.073467 v 3.23147 c 0,1.13987 0.774667,1.38333 1.328,1.38333 0.343067,0 0.619733,-0.0553 0.885333,-0.15493 l -0.0332,-0.65293 c -0.1992,0.0996 -0.442666,0.166 -0.652933,0.166 -0.453733,0 -0.774667,-0.17707 -0.774667,-0.95174 v -3.0212 h 1.4608 z"
       style="font-style:normal;font-variant:normal;font-weight:normal;font-stretch:normal;font-size:11.0666666px;font-family:'Avenir Next LT Pro';-inkscape-font-specification:'Avenir Next LT Pro, Normal';font-variant-ligatures:normal;font-variant-caps:normal;font-variant-numeric:normal;font-feature-settings:normal;text-align:start;writing-mode:lr-tb;text-anchor:start;fill:#ac1416;fill-opacity:1"
       id="path1646" /><path
       d="m 53.605892,245.53908 v 4.03933 h 0.752534 v -2.656 c 0,-1.38333 0.719333,-1.9588 1.516133,-1.9588 0.1992,0 0.442667,0.0332 0.5312,0.0664 l 0.0996,-0.70826 c -0.154933,-0.0443 -0.309867,-0.0553 -0.498,-0.0553 -0.7304,0 -1.372267,0.42054 -1.66,1.01814 h -0.02213 c 0,-0.22134 -0.02213,-0.60867 -0.04427,-0.88534 h -0.719333 c 0.0332,0.35414 0.04427,0.8632 0.04427,1.13987 z"
       style="font-style:normal;font-variant:normal;font-weight:normal;font-stretch:normal;font-size:11.0666666px;font-family:'Avenir Next LT Pro';-inkscape-font-specification:'Avenir Next LT Pro, Normal';font-variant-ligatures:normal;font-variant-caps:normal;font-variant-numeric:normal;font-feature-settings:normal;text-align:start;writing-mode:lr-tb;text-anchor:start;fill:#ac1416;fill-opacity:1"
       id="path1648" /><path
       d="m 60.717955,246.40228 c -1.8924,0 -3.652,0.14387 -3.652,1.73747 0,1.15093 1.007067,1.57146 1.7928,1.57146 0.83,0 1.405467,-0.28773 1.881333,-0.97386 h 0.02213 c 0,0.27666 0.0332,0.58653 0.07747,0.84106 h 0.675067 c -0.05533,-0.28773 -0.08853,-0.7636 -0.08853,-1.162 v -2.26866 c 0,-1.2616 -0.8964,-1.88134 -2.014134,-1.88134 -0.885333,0 -1.615733,0.32094 -2.036266,0.74147 l 0.420533,0.498 c 0.3652,-0.3652 0.9296,-0.60867 1.538267,-0.60867 0.8964,0 1.383333,0.44267 1.383333,1.33907 z m 0,0.58653 v 0.38734 c 0,0.91853 -0.5976,1.71533 -1.66,1.71533 -0.586533,0 -1.217333,-0.24347 -1.217333,-0.98493 0,-0.98494 1.4276,-1.11774 2.656,-1.11774 z"
       style="font-style:normal;font-variant:normal;font-weight:normal;font-stretch:normal;font-size:11.0666666px;font-family:'Avenir Next LT Pro';-inkscape-font-specification:'Avenir Next LT Pro, Normal';font-variant-ligatures:normal;font-variant-caps:normal;font-variant-numeric:normal;font-feature-settings:normal;text-align:start;writing-mode:lr-tb;text-anchor:start;fill:#ac1416;fill-opacity:1"
       id="path1650" /><path
       d="m 63.309803,244.39921 c 0.0332,0.35414 0.04427,0.8632 0.04427,1.13987 v 4.03933 h 0.752534 v -2.656 c 0,-1.38333 0.774666,-2.0252 1.571466,-2.0252 1.084534,0 1.405467,0.7304 1.405467,1.81494 v 2.86626 h 0.752533 v -3.17613 c 0,-1.28373 -0.652933,-2.13587 -1.969866,-2.13587 -0.7304,0 -1.482934,0.42054 -1.770667,1.01814 h -0.02213 c 0,-0.22134 -0.02213,-0.60867 -0.04427,-0.88534 z"
       style="font-style:normal;font-variant:normal;font-weight:normal;font-stretch:normal;font-size:11.0666666px;font-family:'Avenir Next LT Pro';-inkscape-font-specification:'Avenir Next LT Pro, Normal';font-variant-ligatures:normal;font-variant-caps:normal;font-variant-numeric:normal;font-feature-settings:normal;text-align:start;writing-mode:lr-tb;text-anchor:start;fill:#ac1416;fill-opacity:1"
       id="path1652" /><path
       d="m 73.104668,245.19601 c -0.332,-0.58653 -1.0956,-0.9296 -1.814933,-0.9296 -0.940667,0 -1.848134,0.45374 -1.848134,1.50507 0,0.98493 0.874267,1.25053 1.482934,1.3944 0.984933,0.2324 1.5272,0.45373 1.5272,0.996 0,0.67507 -0.575467,0.90747 -1.217334,0.90747 -0.608666,0 -1.173066,-0.35414 -1.438666,-0.80787 l -0.5976,0.44267 c 0.475866,0.6972 1.2616,1.00706 2.047333,1.00706 0.951733,0 1.947733,-0.42053 1.947733,-1.60466 0,-0.80787 -0.575466,-1.2616 -1.7928,-1.51614 -0.852133,-0.17706 -1.239466,-0.3984 -1.239466,-0.88533 0,-0.57547 0.553333,-0.80787 1.0956,-0.80787 0.575466,0 1.051333,0.2988 1.272666,0.7304 z"
       style="font-style:normal;font-variant:normal;font-weight:normal;font-stretch:normal;font-size:11.0666666px;font-family:'Avenir Next LT Pro';-inkscape-font-specification:'Avenir Next LT Pro, Normal';font-variant-ligatures:normal;font-variant-caps:normal;font-variant-numeric:normal;font-feature-settings:normal;text-align:start;writing-mode:lr-tb;text-anchor:start;fill:#ac1416;fill-opacity:1"
       id="path1654" /><path
       d="m 75.454777,241.21201 h -0.752533 v 8.3664 h 0.752533 z"
       style="font-style:normal;font-variant:normal;font-weight:normal;font-stretch:normal;font-size:11.0666666px;font-family:'Avenir Next LT Pro';-inkscape-font-specification:'Avenir Next LT Pro, Normal';font-variant-ligatures:normal;font-variant-caps:normal;font-variant-numeric:normal;font-feature-settings:normal;text-align:start;writing-mode:lr-tb;text-anchor:start;fill:#ac1416;fill-opacity:1"
       id="path1656" /><path
       d="m 80.73306,246.40228 c -1.8924,0 -3.652,0.14387 -3.652,1.73747 0,1.15093 1.007066,1.57146 1.7928,1.57146 0.83,0 1.405466,-0.28773 1.881333,-0.97386 h 0.02213 c 0,0.27666 0.0332,0.58653 0.07747,0.84106 h 0.675067 c -0.05533,-0.28773 -0.08853,-0.7636 -0.08853,-1.162 v -2.26866 c 0,-1.2616 -0.8964,-1.88134 -2.014133,-1.88134 -0.885333,0 -1.615733,0.32094 -2.036267,0.74147 l 0.420534,0.498 c 0.3652,-0.3652 0.9296,-0.60867 1.538266,-0.60867 0.8964,0 1.383334,0.44267 1.383334,1.33907 z m 0,0.58653 v 0.38734 c 0,0.91853 -0.5976,1.71533 -1.66,1.71533 -0.586534,0 -1.217334,-0.24347 -1.217334,-0.98493 0,-0.98494 1.4276,-1.11774 2.656,-1.11774 z"
       style="font-style:normal;font-variant:normal;font-weight:normal;font-stretch:normal;font-size:11.0666666px;font-family:'Avenir Next LT Pro';-inkscape-font-specification:'Avenir Next LT Pro, Normal';font-variant-ligatures:normal;font-variant-caps:normal;font-variant-numeric:normal;font-feature-settings:normal;text-align:start;writing-mode:lr-tb;text-anchor:start;fill:#ac1416;fill-opacity:1"
       id="path1658" /><path
       d="m 85.596169,244.39921 h -1.4608 v -1.4608 h -0.752533 v 1.4608 h -1.073467 v 0.6308 h 1.073467 v 3.23147 c 0,1.13987 0.774666,1.38333 1.328,1.38333 0.343066,0 0.619733,-0.0553 0.885333,-0.15493 l -0.0332,-0.65293 c -0.1992,0.0996 -0.442667,0.166 -0.652933,0.166 -0.453734,0 -0.774667,-0.17707 -0.774667,-0.95174 v -3.0212 h 1.4608 z"
       style="font-style:normal;font-variant:normal;font-weight:normal;font-stretch:normal;font-size:11.0666666px;font-family:'Avenir Next LT Pro';-inkscape-font-specification:'Avenir Next LT Pro, Normal';font-variant-ligatures:normal;font-variant-caps:normal;font-variant-numeric:normal;font-feature-settings:normal;text-align:start;writing-mode:lr-tb;text-anchor:start;fill:#ac1416;fill-opacity:1"
       id="path1660" /><path
       d="m 87.526263,244.39921 h -0.752534 v 5.1792 h 0.752534 z m 0.154933,-1.992 c 0,-0.30986 -0.2656,-0.5312 -0.5312,-0.5312 -0.2656,0 -0.5312,0.22134 -0.5312,0.5312 0,0.30987 0.2656,0.5312 0.5312,0.5312 0.2656,0 0.5312,-0.22133 0.5312,-0.5312 z"
       style="font-style:normal;font-variant:normal;font-weight:normal;font-stretch:normal;font-size:11.0666666px;font-family:'Avenir Next LT Pro';-inkscape-font-specification:'Avenir Next LT Pro, Normal';font-variant-ligatures:normal;font-variant-caps:normal;font-variant-numeric:normal;font-feature-settings:normal;text-align:start;writing-mode:lr-tb;text-anchor:start;fill:#ac1416;fill-opacity:1"
       id="path1662" /><path
       d="m 89.485062,244.39921 c 0.0332,0.35414 0.04427,0.8632 0.04427,1.13987 v 4.03933 h 0.752533 v -2.656 c 0,-1.38333 0.774667,-2.0252 1.571467,-2.0252 1.084533,0 1.405467,0.7304 1.405467,1.81494 v 2.86626 h 0.752533 v -3.17613 c 0,-1.28373 -0.652933,-2.13587 -1.969867,-2.13587 -0.7304,0 -1.482933,0.42054 -1.770666,1.01814 h -0.02213 c 0,-0.22134 -0.02213,-0.60867 -0.04427,-0.88534 z"
       style="font-style:normal;font-variant:normal;font-weight:normal;font-stretch:normal;font-size:11.0666666px;font-family:'Avenir Next LT Pro';-inkscape-font-specification:'Avenir Next LT Pro, Normal';font-variant-ligatures:normal;font-variant-caps:normal;font-variant-numeric:normal;font-feature-settings:normal;text-align:start;writing-mode:lr-tb;text-anchor:start;fill:#ac1416;fill-opacity:1"
       id="path1664" /><path
       d="m 95.683262,251.19415 c 0.608666,0.64186 1.538266,1.04026 2.49,1.04026 2.290798,0 2.810938,-1.57146 2.810938,-2.70026 v -5.13494 h -0.75254 v 0.8964 h -0.0221 c -0.409468,-0.664 -1.206268,-1.0292 -1.958802,-1.0292 -1.615733,0 -2.678133,1.20627 -2.678133,2.67814 0,1.51613 1.0624,2.63386 2.678133,2.63386 0.752534,0 1.5604,-0.37626 1.958802,-1.01813 h 0.0221 v 0.97387 c 0,1.11773 -0.542265,2.03626 -2.025198,2.03626 -0.785734,0 -1.571467,-0.42053 -1.980934,-0.95173 z m 0.686133,-4.27174 c 0,-1.08453 0.708267,-2.0252 1.9588,-2.0252 1.162,0 1.992005,0.94067 1.992005,2.0252 0,1.1952 -0.830005,2.01414 -1.992005,2.01414 -1.250533,0 -1.9588,-0.9296 -1.9588,-2.01414 z"
       style="font-style:normal;font-variant:normal;font-weight:normal;font-stretch:normal;font-size:11.0666666px;font-family:'Avenir Next LT Pro';-inkscape-font-specification:'Avenir Next LT Pro, Normal';font-variant-ligatures:normal;font-variant-caps:normal;font-variant-numeric:normal;font-feature-settings:normal;text-align:start;writing-mode:lr-tb;text-anchor:start;fill:#ac1416;fill-opacity:1"
       id="path1666" /><path
       d="m 105.01039,244.39921 1.63786,5.1792 h 0.81894 l 1.3612,-4.19426 h 0.0221 l 1.38333,4.19426 h 0.81894 l 1.63786,-5.1792 h -0.7968 l -1.23946,4.20534 h -0.0221 l -1.41653,-4.20534 h -0.7304 l -1.3944,4.20534 h -0.0221 l -1.25054,-4.20534 z"
       style="font-style:normal;font-variant:normal;font-weight:normal;font-stretch:normal;font-size:11.0666666px;font-family:'Avenir Next LT Pro';-inkscape-font-specification:'Avenir Next LT Pro, Normal';font-variant-ligatures:normal;font-variant-caps:normal;font-variant-numeric:normal;font-feature-settings:normal;text-align:start;writing-mode:lr-tb;text-anchor:start;fill:#ac1416;fill-opacity:1"
       id="path1668" /><path
       d="m 114.75009,245.25135 v -4.03934 h -0.75253 v 8.3664 h 0.75253 v -2.656 c 0,-1.38333 0.77467,-2.0252 1.57147,-2.0252 1.08453,0 1.40546,0.7304 1.40546,1.81494 v 2.86626 h 0.75254 v -3.17613 c 0,-1.28373 -0.65294,-2.13587 -1.96987,-2.13587 -0.7304,0 -1.4608,0.38734 -1.73747,0.98494 z"
       style="font-style:normal;font-variant:normal;font-weight:normal;font-stretch:normal;font-size:11.0666666px;font-family:'Avenir Next LT Pro';-inkscape-font-specification:'Avenir Next LT Pro, Normal';font-variant-ligatures:normal;font-variant-caps:normal;font-variant-numeric:normal;font-feature-settings:normal;text-align:start;writing-mode:lr-tb;text-anchor:start;fill:#ac1416;fill-opacity:1"
       id="path1670" /><path
       d="m 123.70285,246.40228 c -1.8924,0 -3.652,0.14387 -3.652,1.73747 0,1.15093 1.00707,1.57146 1.7928,1.57146 0.83,0 1.40547,-0.28773 1.88133,-0.97386 h 0.0221 c 0,0.27666 0.0332,0.58653 0.0775,0.84106 h 0.67507 c -0.0553,-0.28773 -0.0885,-0.7636 -0.0885,-1.162 v -2.26866 c 0,-1.2616 -0.8964,-1.88134 -2.01414,-1.88134 -0.88533,0 -1.61573,0.32094 -2.03626,0.74147 l 0.42053,0.498 c 0.3652,-0.3652 0.9296,-0.60867 1.53827,-0.60867 0.8964,0 1.38333,0.44267 1.38333,1.33907 z m 0,0.58653 v 0.38734 c 0,0.91853 -0.5976,1.71533 -1.66,1.71533 -0.58653,0 -1.21733,-0.24347 -1.21733,-0.98493 0,-0.98494 1.4276,-1.11774 2.656,-1.11774 z"
       style="font-style:normal;font-variant:normal;font-weight:normal;font-stretch:normal;font-size:11.0666666px;font-family:'Avenir Next LT Pro';-inkscape-font-specification:'Avenir Next LT Pro, Normal';font-variant-ligatures:normal;font-variant-caps:normal;font-variant-numeric:normal;font-feature-settings:normal;text-align:start;writing-mode:lr-tb;text-anchor:start;fill:#ac1416;fill-opacity:1"
       id="path1672" /><path
       d="m 128.56596,244.39921 h -1.4608 v -1.4608 h -0.75253 v 1.4608 h -1.07347 v 0.6308 h 1.07347 v 3.23147 c 0,1.13987 0.77466,1.38333 1.328,1.38333 0.34306,0 0.61973,-0.0553 0.88533,-0.15493 l -0.0332,-0.65293 c -0.1992,0.0996 -0.44267,0.166 -0.65293,0.166 -0.45374,0 -0.77467,-0.17707 -0.77467,-0.95174 v -3.0212 h 1.4608 z"
       style="font-style:normal;font-variant:normal;font-weight:normal;font-stretch:normal;font-size:11.0666666px;font-family:'Avenir Next LT Pro';-inkscape-font-specification:'Avenir Next LT Pro, Normal';font-variant-ligatures:normal;font-variant-caps:normal;font-variant-numeric:normal;font-feature-settings:normal;text-align:start;writing-mode:lr-tb;text-anchor:start;fill:#ac1416;fill-opacity:1"
       id="path1674" /><path
       d="m 132.52125,244.39921 h -0.84106 l 2.21333,5.16814 -0.42053,1.08453 c -0.22134,0.58653 -0.48694,0.91853 -0.996,0.91853 -0.1992,0 -0.38734,-0.0332 -0.55334,-0.0885 l -0.0775,0.68613 c 0.22133,0.0443 0.45373,0.0664 0.67506,0.0664 0.8964,0 1.31694,-0.52013 1.6268,-1.31693 l 2.57854,-6.51827 h -0.81894 l -1.60466,4.37134 h -0.0221 z"
       style="font-style:normal;font-variant:normal;font-weight:normal;font-stretch:normal;font-size:11.0666666px;font-family:'Avenir Next LT Pro';-inkscape-font-specification:'Avenir Next LT Pro, Normal';font-variant-ligatures:normal;font-variant-caps:normal;font-variant-numeric:normal;font-feature-settings:normal;text-align:start;writing-mode:lr-tb;text-anchor:start;fill:#ac1416;fill-opacity:1"
       id="path1676" /><path
       d="m 143.04877,246.98881 c 0,-1.5604 -1.15093,-2.7224 -2.76667,-2.7224 -1.60466,0 -2.7556,1.162 -2.7556,2.7224 0,1.5604 1.15094,2.7224 2.7556,2.7224 1.61574,0 2.76667,-1.162 2.76667,-2.7224 z m -0.7968,0 c 0,1.162 -0.7636,2.08054 -1.96987,2.08054 -1.1952,0 -1.9588,-0.91854 -1.9588,-2.08054 0,-1.162 0.7636,-2.0916 1.9588,-2.0916 1.20627,0 1.96987,0.9296 1.96987,2.0916 z"
       style="font-style:normal;font-variant:normal;font-weight:normal;font-stretch:normal;font-size:11.0666666px;font-family:'Avenir Next LT Pro';-inkscape-font-specification:'Avenir Next LT Pro, Normal';font-variant-ligatures:normal;font-variant-caps:normal;font-variant-numeric:normal;font-feature-settings:normal;text-align:start;writing-mode:lr-tb;text-anchor:start;fill:#ac1416;fill-opacity:1"
       id="path1678" /><path
       d="m 149.15013,249.57841 c -0.0332,-0.35413 -0.0443,-0.8632 -0.0443,-1.13986 v -4.03934 h -0.75254 v 2.656 c 0,1.38334 -0.77466,2.0252 -1.57146,2.0252 -1.08454,0 -1.40547,-0.7304 -1.40547,-1.81493 v -2.86627 h -0.75253 v 3.17614 c 0,1.28373 0.65293,2.13586 1.96986,2.13586 0.7304,0 1.48294,-0.42053 1.77067,-1.01813 h 0.0221 c 0,0.22133 0.0221,0.60867 0.0443,0.88533 z"
       style="font-style:normal;font-variant:normal;font-weight:normal;font-stretch:normal;font-size:11.0666666px;font-family:'Avenir Next LT Pro';-inkscape-font-specification:'Avenir Next LT Pro, Normal';font-variant-ligatures:normal;font-variant-caps:normal;font-variant-numeric:normal;font-feature-settings:normal;text-align:start;writing-mode:lr-tb;text-anchor:start;fill:#ac1416;fill-opacity:1"
       id="path1680" /></g><g
     aria-label="have in mind into how"
     style="font-style:normal;font-weight:normal;font-size:40px;line-height:1.25;font-family:sans-serif;letter-spacing:0px;word-spacing:0px;fill:#000000;fill-opacity:1;stroke:none"
     id="text879-0-7"><path
       d="m 31.871699,262.30565 v -4.03933 h -0.752533 v 8.3664 h 0.752533 v -2.656 c 0,-1.38333 0.774667,-2.0252 1.571467,-2.0252 1.084533,0 1.405466,0.7304 1.405466,1.81493 v 2.86627 h 0.752534 v -3.17613 c 0,-1.28374 -0.652934,-2.13587 -1.969867,-2.13587 -0.7304,0 -1.4608,0.38733 -1.737467,0.98493 z"
       style="font-style:normal;font-variant:normal;font-weight:normal;font-stretch:normal;font-size:11.0666666px;font-family:'Avenir Next LT Pro';-inkscape-font-specification:'Avenir Next LT Pro, Normal';font-variant-ligatures:normal;font-variant-caps:normal;font-variant-numeric:normal;font-feature-settings:normal;text-align:start;writing-mode:lr-tb;text-anchor:start;fill:#ac1416;fill-opacity:1"
       id="path1611" /><path
       d="m 40.824459,263.45659 c -1.8924,0 -3.652,0.14386 -3.652,1.73746 0,1.15094 1.007067,1.57147 1.7928,1.57147 0.83,0 1.405467,-0.28773 1.881334,-0.97387 h 0.02213 c 0,0.27667 0.0332,0.58654 0.07747,0.84107 h 0.675066 c -0.05533,-0.28773 -0.08853,-0.7636 -0.08853,-1.162 v -2.26867 c 0,-1.2616 -0.8964,-1.88133 -2.014133,-1.88133 -0.885334,0 -1.615734,0.32093 -2.036267,0.74147 l 0.420533,0.498 c 0.3652,-0.3652 0.9296,-0.60867 1.538267,-0.60867 0.8964,0 1.383333,0.44267 1.383333,1.33907 z m 0,0.58653 v 0.38733 c 0,0.91854 -0.5976,1.71534 -1.66,1.71534 -0.586533,0 -1.217333,-0.24347 -1.217333,-0.98494 0,-0.98493 1.4276,-1.11773 2.656,-1.11773 z"
       style="font-style:normal;font-variant:normal;font-weight:normal;font-stretch:normal;font-size:11.0666666px;font-family:'Avenir Next LT Pro';-inkscape-font-specification:'Avenir Next LT Pro, Normal';font-variant-ligatures:normal;font-variant-caps:normal;font-variant-numeric:normal;font-feature-settings:normal;text-align:start;writing-mode:lr-tb;text-anchor:start;fill:#ac1416;fill-opacity:1"
       id="path1613" /><path
       d="m 47.68804,261.45352 h -0.807866 l -1.6932,4.3824 h -0.02213 l -1.682134,-4.3824 h -0.841066 l 2.113733,5.1792 h 0.83 z"
       style="font-style:normal;font-variant:normal;font-weight:normal;font-stretch:normal;font-size:11.0666666px;font-family:'Avenir Next LT Pro';-inkscape-font-specification:'Avenir Next LT Pro, Normal';font-variant-ligatures:normal;font-variant-caps:normal;font-variant-numeric:normal;font-feature-settings:normal;text-align:start;writing-mode:lr-tb;text-anchor:start;fill:#ac1416;fill-opacity:1"
       id="path1615" /><path
       d="m 49.284753,263.64472 c 0.0664,-0.88533 0.807866,-1.6932 1.814933,-1.6932 1.073467,0 1.671067,0.71933 1.715333,1.6932 z m 4.293866,0.24347 c 0,-1.41654 -0.852133,-2.56747 -2.478933,-2.56747 -1.471867,0 -2.611733,1.162 -2.611733,2.7224 0,1.5604 1.139866,2.7224 2.678133,2.7224 0.852133,0 1.615733,-0.32093 2.2244,-1.0956 l -0.5644,-0.44267 c -0.287733,0.4648 -0.885333,0.8964 -1.66,0.8964 -1.0624,0 -1.870267,-0.84106 -1.8924,-1.88133 h 4.293867 c 0.01107,-0.1328 0.01107,-0.25453 0.01107,-0.35413 z"
       style="font-style:normal;font-variant:normal;font-weight:normal;font-stretch:normal;font-size:11.0666666px;font-family:'Avenir Next LT Pro';-inkscape-font-specification:'Avenir Next LT Pro, Normal';font-variant-ligatures:normal;font-variant-caps:normal;font-variant-numeric:normal;font-feature-settings:normal;text-align:start;writing-mode:lr-tb;text-anchor:start;fill:#ac1416;fill-opacity:1"
       id="path1617" /><path
       d="m 58.727558,261.45352 h -0.752533 v 5.1792 h 0.752533 z m 0.154934,-1.992 c 0,-0.30987 -0.2656,-0.5312 -0.5312,-0.5312 -0.2656,0 -0.5312,0.22133 -0.5312,0.5312 0,0.30987 0.2656,0.5312 0.5312,0.5312 0.2656,0 0.5312,-0.22133 0.5312,-0.5312 z"
       style="font-style:normal;font-variant:normal;font-weight:normal;font-stretch:normal;font-size:11.0666666px;font-family:'Avenir Next LT Pro';-inkscape-font-specification:'Avenir Next LT Pro, Normal';font-variant-ligatures:normal;font-variant-caps:normal;font-variant-numeric:normal;font-feature-settings:normal;text-align:start;writing-mode:lr-tb;text-anchor:start;fill:#ac1416;fill-opacity:1"
       id="path1619" /><path
       d="m 60.68636,261.45352 c 0.0332,0.35413 0.04427,0.8632 0.04427,1.13987 v 4.03933 h 0.752533 v -2.656 c 0,-1.38333 0.774667,-2.0252 1.571467,-2.0252 1.084533,0 1.405466,0.7304 1.405466,1.81493 v 2.86627 h 0.752534 v -3.17613 c 0,-1.28374 -0.652934,-2.13587 -1.969867,-2.13587 -0.7304,0 -1.482933,0.42053 -1.770667,1.01813 h -0.02213 c 0,-0.22133 -0.02213,-0.60866 -0.04427,-0.88533 z"
       style="font-style:normal;font-variant:normal;font-weight:normal;font-stretch:normal;font-size:11.0666666px;font-family:'Avenir Next LT Pro';-inkscape-font-specification:'Avenir Next LT Pro, Normal';font-variant-ligatures:normal;font-variant-caps:normal;font-variant-numeric:normal;font-feature-settings:normal;text-align:start;writing-mode:lr-tb;text-anchor:start;fill:#ac1416;fill-opacity:1"
       id="path1621" /><path
       d="m 70.658289,262.33885 h -0.02213 c 0,-0.22133 -0.02213,-0.60866 -0.04427,-0.88533 h -0.719334 c 0.0332,0.35413 0.04427,0.8632 0.04427,1.13987 v 4.03933 h 0.752533 v -2.656 c 0,-1.38333 0.785734,-2.0252 1.505067,-2.0252 1.007067,0 1.250533,0.65293 1.250533,1.66 v 3.0212 h 0.752534 v -2.7556 c 0,-0.9628 0.387333,-1.9256 1.471866,-1.9256 0.973867,0 1.339067,0.7304 1.339067,1.81493 v 2.86627 h 0.752533 v -3.17613 c 0,-1.28374 -0.652933,-2.13587 -1.969866,-2.13587 -0.83,0 -1.4608,0.38733 -1.814934,1.0956 -0.343066,-0.88533 -1.0292,-1.0956 -1.5936,-1.0956 -0.741466,0 -1.405466,0.42053 -1.704266,1.01813 z"
       style="font-style:normal;font-variant:normal;font-weight:normal;font-stretch:normal;font-size:11.0666666px;font-family:'Avenir Next LT Pro';-inkscape-font-specification:'Avenir Next LT Pro, Normal';font-variant-ligatures:normal;font-variant-caps:normal;font-variant-numeric:normal;font-feature-settings:normal;text-align:start;writing-mode:lr-tb;text-anchor:start;fill:#ac1416;fill-opacity:1"
       id="path1623" /><path
       d="m 80.450217,261.45352 h -0.752534 v 5.1792 h 0.752534 z m 0.154933,-1.992 c 0,-0.30987 -0.2656,-0.5312 -0.5312,-0.5312 -0.2656,0 -0.5312,0.22133 -0.5312,0.5312 0,0.30987 0.2656,0.5312 0.5312,0.5312 0.2656,0 0.5312,-0.22133 0.5312,-0.5312 z"
       style="font-style:normal;font-variant:normal;font-weight:normal;font-stretch:normal;font-size:11.0666666px;font-family:'Avenir Next LT Pro';-inkscape-font-specification:'Avenir Next LT Pro, Normal';font-variant-ligatures:normal;font-variant-caps:normal;font-variant-numeric:normal;font-feature-settings:normal;text-align:start;writing-mode:lr-tb;text-anchor:start;fill:#ac1416;fill-opacity:1"
       id="path1625" /><path
       d="m 82.409016,261.45352 c 0.0332,0.35413 0.04427,0.8632 0.04427,1.13987 v 4.03933 h 0.752533 v -2.656 c 0,-1.38333 0.774667,-2.0252 1.571467,-2.0252 1.084533,0 1.405467,0.7304 1.405467,1.81493 v 2.86627 h 0.752533 v -3.17613 c 0,-1.28374 -0.652933,-2.13587 -1.969867,-2.13587 -0.7304,0 -1.482933,0.42053 -1.770666,1.01813 h -0.02213 c 0,-0.22133 -0.02213,-0.60866 -0.04427,-0.88533 z"
       style="font-style:normal;font-variant:normal;font-weight:normal;font-stretch:normal;font-size:11.0666666px;font-family:'Avenir Next LT Pro';-inkscape-font-specification:'Avenir Next LT Pro, Normal';font-variant-ligatures:normal;font-variant-caps:normal;font-variant-numeric:normal;font-feature-settings:normal;text-align:start;writing-mode:lr-tb;text-anchor:start;fill:#ac1416;fill-opacity:1"
       id="path1627" /><path
       d="m 93.133479,265.75845 h 0.02213 v 0.87427 h 0.752533 v -8.3664 h -0.752533 v 4.0836 h -0.02213 c -0.442667,-0.67507 -1.217334,-1.0292 -1.9588,-1.0292 -1.615734,0 -2.678134,1.1952 -2.678134,2.7224 0,1.5272 1.0624,2.7224 2.678134,2.7224 0.741466,0 1.516133,-0.35413 1.9588,-1.00707 z m -3.840134,-1.71533 c 0,-1.15093 0.708267,-2.0916 1.9588,-2.0916 1.162,0 1.992,0.90747 1.992,2.0916 0,1.18413 -0.83,2.08053 -1.992,2.08053 -1.250533,0 -1.9588,-0.9296 -1.9588,-2.08053 z"
       style="font-style:normal;font-variant:normal;font-weight:normal;font-stretch:normal;font-size:11.0666666px;font-family:'Avenir Next LT Pro';-inkscape-font-specification:'Avenir Next LT Pro, Normal';font-variant-ligatures:normal;font-variant-caps:normal;font-variant-numeric:normal;font-feature-settings:normal;text-align:start;writing-mode:lr-tb;text-anchor:start;fill:#ac1416;fill-opacity:1"
       id="path1629" /><path
       d="m 99.449431,261.45352 h -0.752534 v 5.1792 h 0.752534 z m 0.154933,-1.992 c 0,-0.30987 -0.2656,-0.5312 -0.5312,-0.5312 -0.2656,0 -0.5312,0.22133 -0.5312,0.5312 0,0.30987 0.2656,0.5312 0.5312,0.5312 0.2656,0 0.5312,-0.22133 0.5312,-0.5312 z"
       style="font-style:normal;font-variant:normal;font-weight:normal;font-stretch:normal;font-size:11.0666666px;font-family:'Avenir Next LT Pro';-inkscape-font-specification:'Avenir Next LT Pro, Normal';font-variant-ligatures:normal;font-variant-caps:normal;font-variant-numeric:normal;font-feature-settings:normal;text-align:start;writing-mode:lr-tb;text-anchor:start;fill:#ac1416;fill-opacity:1"
       id="path1631" /><path
       d="m 101.40823,261.45352 c 0.0332,0.35413 0.0443,0.8632 0.0443,1.13987 v 4.03933 h 0.75253 v -2.656 c 0,-1.38333 0.77467,-2.0252 1.57147,-2.0252 1.08453,0 1.40547,0.7304 1.40547,1.81493 v 2.86627 h 0.75253 v -3.17613 c 0,-1.28374 -0.65293,-2.13587 -1.96987,-2.13587 -0.7304,0 -1.48293,0.42053 -1.77066,1.01813 h -0.0221 c 0,-0.22133 -0.0221,-0.60866 -0.0443,-0.88533 z"
       style="font-style:normal;font-variant:normal;font-weight:normal;font-stretch:normal;font-size:11.0666666px;font-family:'Avenir Next LT Pro';-inkscape-font-specification:'Avenir Next LT Pro, Normal';font-variant-ligatures:normal;font-variant-caps:normal;font-variant-numeric:normal;font-feature-settings:normal;text-align:start;writing-mode:lr-tb;text-anchor:start;fill:#ac1416;fill-opacity:1"
       id="path1633" /><path
       d="m 110.2071,261.45352 h -1.4608 v -1.4608 h -0.75253 v 1.4608 h -1.07347 v 0.6308 h 1.07347 v 3.23147 c 0,1.13986 0.77466,1.38333 1.328,1.38333 0.34306,0 0.61973,-0.0553 0.88533,-0.15493 l -0.0332,-0.65294 c -0.1992,0.0996 -0.44267,0.166 -0.65293,0.166 -0.45374,0 -0.77467,-0.17706 -0.77467,-0.95173 v -3.0212 h 1.4608 z"
       style="font-style:normal;font-variant:normal;font-weight:normal;font-stretch:normal;font-size:11.0666666px;font-family:'Avenir Next LT Pro';-inkscape-font-specification:'Avenir Next LT Pro, Normal';font-variant-ligatures:normal;font-variant-caps:normal;font-variant-numeric:normal;font-feature-settings:normal;text-align:start;writing-mode:lr-tb;text-anchor:start;fill:#ac1416;fill-opacity:1"
       id="path1635" /><path
       d="m 116.5196,264.04312 c 0,-1.5604 -1.15094,-2.7224 -2.76667,-2.7224 -1.60467,0 -2.7556,1.162 -2.7556,2.7224 0,1.5604 1.15093,2.7224 2.7556,2.7224 1.61573,0 2.76667,-1.162 2.76667,-2.7224 z m -0.7968,0 c 0,1.162 -0.7636,2.08053 -1.96987,2.08053 -1.1952,0 -1.9588,-0.91853 -1.9588,-2.08053 0,-1.162 0.7636,-2.0916 1.9588,-2.0916 1.20627,0 1.96987,0.9296 1.96987,2.0916 z"
       style="font-style:normal;font-variant:normal;font-weight:normal;font-stretch:normal;font-size:11.0666666px;font-family:'Avenir Next LT Pro';-inkscape-font-specification:'Avenir Next LT Pro, Normal';font-variant-ligatures:normal;font-variant-caps:normal;font-variant-numeric:normal;font-feature-settings:normal;text-align:start;writing-mode:lr-tb;text-anchor:start;fill:#ac1416;fill-opacity:1"
       id="path1637" /><path
       d="m 121.68029,262.30565 v -4.03933 h -0.75253 v 8.3664 h 0.75253 v -2.656 c 0,-1.38333 0.77467,-2.0252 1.57147,-2.0252 1.08453,0 1.40547,0.7304 1.40547,1.81493 v 2.86627 h 0.75253 v -3.17613 c 0,-1.28374 -0.65293,-2.13587 -1.96987,-2.13587 -0.7304,0 -1.4608,0.38733 -1.73746,0.98493 z"
       style="font-style:normal;font-variant:normal;font-weight:normal;font-stretch:normal;font-size:11.0666666px;font-family:'Avenir Next LT Pro';-inkscape-font-specification:'Avenir Next LT Pro, Normal';font-variant-ligatures:normal;font-variant-caps:normal;font-variant-numeric:normal;font-feature-settings:normal;text-align:start;writing-mode:lr-tb;text-anchor:start;fill:#ac1416;fill-opacity:1"
       id="path1639" /><path
       d="m 132.51439,264.04312 c 0,-1.5604 -1.15094,-2.7224 -2.76667,-2.7224 -1.60467,0 -2.7556,1.162 -2.7556,2.7224 0,1.5604 1.15093,2.7224 2.7556,2.7224 1.61573,0 2.76667,-1.162 2.76667,-2.7224 z m -0.7968,0 c 0,1.162 -0.7636,2.08053 -1.96987,2.08053 -1.1952,0 -1.9588,-0.91853 -1.9588,-2.08053 0,-1.162 0.7636,-2.0916 1.9588,-2.0916 1.20627,0 1.96987,0.9296 1.96987,2.0916 z"
       style="font-style:normal;font-variant:normal;font-weight:normal;font-stretch:normal;font-size:11.0666666px;font-family:'Avenir Next LT Pro';-inkscape-font-specification:'Avenir Next LT Pro, Normal';font-variant-ligatures:normal;font-variant-caps:normal;font-variant-numeric:normal;font-feature-settings:normal;text-align:start;writing-mode:lr-tb;text-anchor:start;fill:#ac1416;fill-opacity:1"
       id="path1641" /><path
       d="m 133.42549,261.45352 1.63786,5.1792 h 0.81894 l 1.3612,-4.19427 h 0.0221 l 1.38333,4.19427 h 0.81894 l 1.63786,-5.1792 h -0.7968 l -1.23946,4.20533 h -0.0221 l -1.41653,-4.20533 h -0.7304 l -1.3944,4.20533 h -0.0221 l -1.25054,-4.20533 z"
       style="font-style:normal;font-variant:normal;font-weight:normal;font-stretch:normal;font-size:11.0666666px;font-family:'Avenir Next LT Pro';-inkscape-font-specification:'Avenir Next LT Pro, Normal';font-variant-ligatures:normal;font-variant-caps:normal;font-variant-numeric:normal;font-feature-settings:normal;text-align:start;writing-mode:lr-tb;text-anchor:start;fill:#ac1416;fill-opacity:1"
       id="path1643" /></g><g
     aria-label="you have to approach it."
     style="font-style:normal;font-weight:normal;font-size:40px;line-height:1.25;font-family:sans-serif;letter-spacing:0px;word-spacing:0px;fill:#000000;fill-opacity:1;stroke:none"
     id="text879-0-7-4"
     transform="translate(0.40254238)"><path
       d="m 30.748232,278.46518 h -0.841067 l 2.213334,5.16813 -0.420534,1.08454 c -0.221333,0.58653 -0.486933,0.91853 -0.996,0.91853 -0.1992,0 -0.387333,-0.0332 -0.553333,-0.0885 l -0.07747,0.68613 c 0.221334,0.0443 0.453734,0.0664 0.675067,0.0664 0.8964,0 1.316933,-0.52013 1.6268,-1.31693 l 2.578533,-6.51827 h -0.818933 l -1.604667,4.37133 h -0.02213 z"
       style="font-style:normal;font-variant:normal;font-weight:normal;font-stretch:normal;font-size:11.0666666px;font-family:'Avenir Next LT Pro';-inkscape-font-specification:'Avenir Next LT Pro, Normal';font-variant-ligatures:normal;font-variant-caps:normal;font-variant-numeric:normal;font-feature-settings:normal;text-align:start;writing-mode:lr-tb;text-anchor:start;fill:#ac1416;fill-opacity:1"
       id="path1570"
       inkscape:connector-curvature="0" /><path
       d="m 41.275745,281.05478 c 0,-1.5604 -1.150934,-2.7224 -2.766667,-2.7224 -1.604667,0 -2.7556,1.162 -2.7556,2.7224 0,1.5604 1.150933,2.7224 2.7556,2.7224 1.615733,0 2.766667,-1.162 2.766667,-2.7224 z m -0.7968,0 c 0,1.162 -0.7636,2.08053 -1.969867,2.08053 -1.1952,0 -1.9588,-0.91853 -1.9588,-2.08053 0,-1.162 0.7636,-2.0916 1.9588,-2.0916 1.206267,0 1.969867,0.9296 1.969867,2.0916 z"
       style="font-style:normal;font-variant:normal;font-weight:normal;font-stretch:normal;font-size:11.0666666px;font-family:'Avenir Next LT Pro';-inkscape-font-specification:'Avenir Next LT Pro, Normal';font-variant-ligatures:normal;font-variant-caps:normal;font-variant-numeric:normal;font-feature-settings:normal;text-align:start;writing-mode:lr-tb;text-anchor:start;fill:#ac1416;fill-opacity:1"
       id="path1572"
       inkscape:connector-curvature="0" /><path
       d="m 47.377109,283.64438 c -0.0332,-0.35413 -0.04427,-0.8632 -0.04427,-1.13987 v -4.03933 h -0.752533 v 2.656 c 0,1.38333 -0.774667,2.0252 -1.571467,2.0252 -1.084533,0 -1.405466,-0.7304 -1.405466,-1.81493 v -2.86627 h -0.752534 v 3.17613 c 0,1.28374 0.652934,2.13587 1.969867,2.13587 0.7304,0 1.482933,-0.42053 1.770667,-1.01813 h 0.02213 c 0,0.22133 0.02213,0.60866 0.04427,0.88533 z"
       style="font-style:normal;font-variant:normal;font-weight:normal;font-stretch:normal;font-size:11.0666666px;font-family:'Avenir Next LT Pro';-inkscape-font-specification:'Avenir Next LT Pro, Normal';font-variant-ligatures:normal;font-variant-caps:normal;font-variant-numeric:normal;font-feature-settings:normal;text-align:start;writing-mode:lr-tb;text-anchor:start;fill:#ac1416;fill-opacity:1"
       id="path1574"
       inkscape:connector-curvature="0" /><path
       d="m 52.855975,279.31731 v -4.03933 h -0.752534 v 8.3664 h 0.752534 v -2.656 c 0,-1.38333 0.774666,-2.0252 1.571466,-2.0252 1.084534,0 1.405467,0.7304 1.405467,1.81493 v 2.86627 h 0.752533 v -3.17613 c 0,-1.28374 -0.652933,-2.13587 -1.969866,-2.13587 -0.7304,0 -1.4608,0.38733 -1.737467,0.98493 z"
       style="font-style:normal;font-variant:normal;font-weight:normal;font-stretch:normal;font-size:11.0666666px;font-family:'Avenir Next LT Pro';-inkscape-font-specification:'Avenir Next LT Pro, Normal';font-variant-ligatures:normal;font-variant-caps:normal;font-variant-numeric:normal;font-feature-settings:normal;text-align:start;writing-mode:lr-tb;text-anchor:start;fill:#ac1416;fill-opacity:1"
       id="path1576"
       inkscape:connector-curvature="0" /><path
       d="m 61.808734,280.46825 c -1.8924,0 -3.652,0.14386 -3.652,1.73746 0,1.15094 1.007066,1.57147 1.7928,1.57147 0.83,0 1.405466,-0.28773 1.881333,-0.97387 H 61.853 c 0,0.27667 0.0332,0.58654 0.07747,0.84107 h 0.675067 c -0.05533,-0.28773 -0.08853,-0.7636 -0.08853,-1.162 v -2.26867 c 0,-1.2616 -0.8964,-1.88133 -2.014133,-1.88133 -0.885333,0 -1.615733,0.32093 -2.036267,0.74147 l 0.420534,0.498 c 0.3652,-0.3652 0.9296,-0.60867 1.538266,-0.60867 0.8964,0 1.383334,0.44267 1.383334,1.33907 z m 0,0.58653 v 0.38733 c 0,0.91854 -0.5976,1.71534 -1.66,1.71534 -0.586534,0 -1.217334,-0.24347 -1.217334,-0.98494 0,-0.98493 1.4276,-1.11773 2.656,-1.11773 z"
       style="font-style:normal;font-variant:normal;font-weight:normal;font-stretch:normal;font-size:11.0666666px;font-family:'Avenir Next LT Pro';-inkscape-font-specification:'Avenir Next LT Pro, Normal';font-variant-ligatures:normal;font-variant-caps:normal;font-variant-numeric:normal;font-feature-settings:normal;text-align:start;writing-mode:lr-tb;text-anchor:start;fill:#ac1416;fill-opacity:1"
       id="path1578"
       inkscape:connector-curvature="0" /><path
       d="m 68.672315,278.46518 h -0.807866 l -1.6932,4.3824 h -0.02213 l -1.682133,-4.3824 h -0.841067 l 2.113734,5.1792 h 0.83 z"
       style="font-style:normal;font-variant:normal;font-weight:normal;font-stretch:normal;font-size:11.0666666px;font-family:'Avenir Next LT Pro';-inkscape-font-specification:'Avenir Next LT Pro, Normal';font-variant-ligatures:normal;font-variant-caps:normal;font-variant-numeric:normal;font-feature-settings:normal;text-align:start;writing-mode:lr-tb;text-anchor:start;fill:#ac1416;fill-opacity:1"
       id="path1580"
       inkscape:connector-curvature="0" /><path
       d="m 70.269027,280.65638 c 0.0664,-0.88533 0.807866,-1.6932 1.814933,-1.6932 1.073467,0 1.671067,0.71933 1.715333,1.6932 z m 4.293866,0.24347 c 0,-1.41654 -0.852133,-2.56747 -2.478933,-2.56747 -1.471867,0 -2.611733,1.162 -2.611733,2.7224 0,1.5604 1.139866,2.7224 2.678133,2.7224 0.852133,0 1.615733,-0.32093 2.2244,-1.0956 l -0.5644,-0.44267 c -0.287733,0.4648 -0.885333,0.8964 -1.66,0.8964 -1.0624,0 -1.870267,-0.84106 -1.8924,-1.88133 h 4.293867 c 0.01107,-0.1328 0.01107,-0.25453 0.01107,-0.35413 z"
       style="font-style:normal;font-variant:normal;font-weight:normal;font-stretch:normal;font-size:11.0666666px;font-family:'Avenir Next LT Pro';-inkscape-font-specification:'Avenir Next LT Pro, Normal';font-variant-ligatures:normal;font-variant-caps:normal;font-variant-numeric:normal;font-feature-settings:normal;text-align:start;writing-mode:lr-tb;text-anchor:start;fill:#ac1416;fill-opacity:1"
       id="path1582"
       inkscape:connector-curvature="0" /><path
       d="m 81.283303,278.46518 h -1.4608 v -1.4608 H 79.06997 v 1.4608 h -1.073467 v 0.6308 h 1.073467 v 3.23147 c 0,1.13986 0.774666,1.38333 1.327999,1.38333 0.343067,0 0.619734,-0.0553 0.885334,-0.15493 l -0.0332,-0.65294 c -0.1992,0.0996 -0.442667,0.166 -0.652934,0.166 -0.453733,0 -0.774666,-0.17706 -0.774666,-0.95173 v -3.0212 h 1.4608 z"
       style="font-style:normal;font-variant:normal;font-weight:normal;font-stretch:normal;font-size:11.0666666px;font-family:'Avenir Next LT Pro';-inkscape-font-specification:'Avenir Next LT Pro, Normal';font-variant-ligatures:normal;font-variant-caps:normal;font-variant-numeric:normal;font-feature-settings:normal;text-align:start;writing-mode:lr-tb;text-anchor:start;fill:#ac1416;fill-opacity:1"
       id="path1584"
       inkscape:connector-curvature="0" /><path
       d="m 87.595796,281.05478 c 0,-1.5604 -1.150933,-2.7224 -2.766666,-2.7224 -1.604667,0 -2.7556,1.162 -2.7556,2.7224 0,1.5604 1.150933,2.7224 2.7556,2.7224 1.615733,0 2.766666,-1.162 2.766666,-2.7224 z m -0.7968,0 c 0,1.162 -0.7636,2.08053 -1.969866,2.08053 -1.1952,0 -1.9588,-0.91853 -1.9588,-2.08053 0,-1.162 0.7636,-2.0916 1.9588,-2.0916 1.206266,0 1.969866,0.9296 1.969866,2.0916 z"
       style="font-style:normal;font-variant:normal;font-weight:normal;font-stretch:normal;font-size:11.0666666px;font-family:'Avenir Next LT Pro';-inkscape-font-specification:'Avenir Next LT Pro, Normal';font-variant-ligatures:normal;font-variant-caps:normal;font-variant-numeric:normal;font-feature-settings:normal;text-align:start;writing-mode:lr-tb;text-anchor:start;fill:#ac1416;fill-opacity:1"
       id="path1586"
       inkscape:connector-curvature="0" /><path
       d="m 95.246495,280.46825 c -1.8924,0 -3.652,0.14386 -3.652,1.73746 0,1.15094 1.007067,1.57147 1.7928,1.57147 0.83,0 1.405467,-0.28773 1.881333,-0.97387 h 0.02213 c 0,0.27667 0.0332,0.58654 0.07747,0.84107 h 0.675067 c -0.05533,-0.28773 -0.08853,-0.7636 -0.08853,-1.162 v -2.26867 c 0,-1.2616 -0.8964,-1.88133 -2.014134,-1.88133 -0.885333,0 -1.615733,0.32093 -2.036266,0.74147 l 0.420533,0.498 c 0.3652,-0.3652 0.9296,-0.60867 1.538267,-0.60867 0.8964,0 1.383333,0.44267 1.383333,1.33907 z m 0,0.58653 v 0.38733 c 0,0.91854 -0.5976,1.71534 -1.66,1.71534 -0.586533,0 -1.217333,-0.24347 -1.217333,-0.98494 0,-0.98493 1.4276,-1.11773 2.656,-1.11773 z"
       style="font-style:normal;font-variant:normal;font-weight:normal;font-stretch:normal;font-size:11.0666666px;font-family:'Avenir Next LT Pro';-inkscape-font-specification:'Avenir Next LT Pro, Normal';font-variant-ligatures:normal;font-variant-caps:normal;font-variant-numeric:normal;font-feature-settings:normal;text-align:start;writing-mode:lr-tb;text-anchor:start;fill:#ac1416;fill-opacity:1"
       id="path1588"
       inkscape:connector-curvature="0" /><path
       d="m 98.635141,282.77011 h 0.0332 c 0.4316,0.64187 1.206267,1.00707 1.947729,1.00707 1.61574,0 2.67814,-1.1952 2.67814,-2.7224 0,-1.5272 -1.0624,-2.7224 -2.67814,-2.7224 -0.741462,0 -1.516129,0.35413 -1.947729,1.0292 h -0.0332 v -0.8964 h -0.752533 v 7.8352 h 0.752533 z m 3.862269,-1.71533 c 0,1.15093 -0.70827,2.08053 -1.9588,2.08053 -1.162002,0 -1.992002,-0.8964 -1.992002,-2.08053 0,-1.18413 0.83,-2.0916 1.992002,-2.0916 1.25053,0 1.9588,0.94067 1.9588,2.0916 z"
       style="font-style:normal;font-variant:normal;font-weight:normal;font-stretch:normal;font-size:11.0666666px;font-family:'Avenir Next LT Pro';-inkscape-font-specification:'Avenir Next LT Pro, Normal';font-variant-ligatures:normal;font-variant-caps:normal;font-variant-numeric:normal;font-feature-settings:normal;text-align:start;writing-mode:lr-tb;text-anchor:start;fill:#ac1416;fill-opacity:1"
       id="path1590"
       inkscape:connector-curvature="0" /><path
       d="m 105.65988,282.77011 h 0.0332 c 0.4316,0.64187 1.20627,1.00707 1.94774,1.00707 1.61573,0 2.67813,-1.1952 2.67813,-2.7224 0,-1.5272 -1.0624,-2.7224 -2.67813,-2.7224 -0.74147,0 -1.51614,0.35413 -1.94774,1.0292 h -0.0332 v -0.8964 h -0.75253 v 7.8352 h 0.75253 z m 3.86227,-1.71533 c 0,1.15093 -0.70827,2.08053 -1.9588,2.08053 -1.162,0 -1.992,-0.8964 -1.992,-2.08053 0,-1.18413 0.83,-2.0916 1.992,-2.0916 1.25053,0 1.9588,0.94067 1.9588,2.0916 z"
       style="font-style:normal;font-variant:normal;font-weight:normal;font-stretch:normal;font-size:11.0666666px;font-family:'Avenir Next LT Pro';-inkscape-font-specification:'Avenir Next LT Pro, Normal';font-variant-ligatures:normal;font-variant-caps:normal;font-variant-numeric:normal;font-feature-settings:normal;text-align:start;writing-mode:lr-tb;text-anchor:start;fill:#ac1416;fill-opacity:1"
       id="path1592"
       inkscape:connector-curvature="0" /><path
       d="m 111.93209,279.60505 v 4.03933 h 0.75254 v -2.656 c 0,-1.38333 0.71933,-1.9588 1.51613,-1.9588 0.1992,0 0.44267,0.0332 0.5312,0.0664 l 0.0996,-0.70827 c -0.15493,-0.0443 -0.30987,-0.0553 -0.498,-0.0553 -0.7304,0 -1.37227,0.42053 -1.66,1.01813 h -0.0221 c 0,-0.22133 -0.0221,-0.60866 -0.0443,-0.88533 h -0.71933 c 0.0332,0.35413 0.0443,0.8632 0.0443,1.13987 z"
       style="font-style:normal;font-variant:normal;font-weight:normal;font-stretch:normal;font-size:11.0666666px;font-family:'Avenir Next LT Pro';-inkscape-font-specification:'Avenir Next LT Pro, Normal';font-variant-ligatures:normal;font-variant-caps:normal;font-variant-numeric:normal;font-feature-settings:normal;text-align:start;writing-mode:lr-tb;text-anchor:start;fill:#ac1416;fill-opacity:1"
       id="path1594"
       inkscape:connector-curvature="0" /><path
       d="m 120.86064,281.05478 c 0,-1.5604 -1.15093,-2.7224 -2.76667,-2.7224 -1.60466,0 -2.7556,1.162 -2.7556,2.7224 0,1.5604 1.15094,2.7224 2.7556,2.7224 1.61574,0 2.76667,-1.162 2.76667,-2.7224 z m -0.7968,0 c 0,1.162 -0.7636,2.08053 -1.96987,2.08053 -1.1952,0 -1.9588,-0.91853 -1.9588,-2.08053 0,-1.162 0.7636,-2.0916 1.9588,-2.0916 1.20627,0 1.96987,0.9296 1.96987,2.0916 z"
       style="font-style:normal;font-variant:normal;font-weight:normal;font-stretch:normal;font-size:11.0666666px;font-family:'Avenir Next LT Pro';-inkscape-font-specification:'Avenir Next LT Pro, Normal';font-variant-ligatures:normal;font-variant-caps:normal;font-variant-numeric:normal;font-feature-settings:normal;text-align:start;writing-mode:lr-tb;text-anchor:start;fill:#ac1416;fill-opacity:1"
       id="path1596"
       inkscape:connector-curvature="0" /><path
       d="m 125.74467,280.46825 c -1.8924,0 -3.652,0.14386 -3.652,1.73746 0,1.15094 1.00707,1.57147 1.7928,1.57147 0.83,0 1.40547,-0.28773 1.88133,-0.97387 h 0.0221 c 0,0.27667 0.0332,0.58654 0.0775,0.84107 h 0.67507 c -0.0553,-0.28773 -0.0885,-0.7636 -0.0885,-1.162 v -2.26867 c 0,-1.2616 -0.8964,-1.88133 -2.01414,-1.88133 -0.88533,0 -1.61573,0.32093 -2.03626,0.74147 l 0.42053,0.498 c 0.3652,-0.3652 0.9296,-0.60867 1.53827,-0.60867 0.8964,0 1.38333,0.44267 1.38333,1.33907 z m 0,0.58653 v 0.38733 c 0,0.91854 -0.5976,1.71534 -1.66,1.71534 -0.58653,0 -1.21733,-0.24347 -1.21733,-0.98494 0,-0.98493 1.4276,-1.11773 2.656,-1.11773 z"
       style="font-style:normal;font-variant:normal;font-weight:normal;font-stretch:normal;font-size:11.0666666px;font-family:'Avenir Next LT Pro';-inkscape-font-specification:'Avenir Next LT Pro, Normal';font-variant-ligatures:normal;font-variant-caps:normal;font-variant-numeric:normal;font-feature-settings:normal;text-align:start;writing-mode:lr-tb;text-anchor:start;fill:#ac1416;fill-opacity:1"
       id="path1598"
       inkscape:connector-curvature="0" /><path
       d="m 132.69678,279.22878 c -0.44266,-0.5976 -1.2284,-0.8964 -1.9256,-0.8964 -1.67106,0 -2.76666,1.162 -2.76666,2.7224 0,1.5604 1.0956,2.7224 2.76666,2.7224 0.8964,0 1.5272,-0.35413 1.96987,-0.8964 l -0.5644,-0.42053 c -0.2988,0.3984 -0.75253,0.67506 -1.40547,0.67506 -1.20626,0 -1.96986,-0.90746 -1.96986,-2.08053 0,-1.18413 0.77466,-2.0916 1.98093,-2.0916 0.5644,0 1.08453,0.28773 1.328,0.68613 z"
       style="font-style:normal;font-variant:normal;font-weight:normal;font-stretch:normal;font-size:11.0666666px;font-family:'Avenir Next LT Pro';-inkscape-font-specification:'Avenir Next LT Pro, Normal';font-variant-ligatures:normal;font-variant-caps:normal;font-variant-numeric:normal;font-feature-settings:normal;text-align:start;writing-mode:lr-tb;text-anchor:start;fill:#ac1416;fill-opacity:1"
       id="path1600"
       inkscape:connector-curvature="0" /><path
       d="m 134.68878,279.31731 v -4.03933 h -0.75253 v 8.3664 h 0.75253 v -2.656 c 0,-1.38333 0.77467,-2.0252 1.57147,-2.0252 1.08453,0 1.40547,0.7304 1.40547,1.81493 v 2.86627 h 0.75253 v -3.17613 c 0,-1.28374 -0.65293,-2.13587 -1.96987,-2.13587 -0.7304,0 -1.4608,0.38733 -1.73746,0.98493 z"
       style="font-style:normal;font-variant:normal;font-weight:normal;font-stretch:normal;font-size:11.0666666px;font-family:'Avenir Next LT Pro';-inkscape-font-specification:'Avenir Next LT Pro, Normal';font-variant-ligatures:normal;font-variant-caps:normal;font-variant-numeric:normal;font-feature-settings:normal;text-align:start;writing-mode:lr-tb;text-anchor:start;fill:#ac1416;fill-opacity:1"
       id="path1602"
       inkscape:connector-curvature="0" /><path
       d="m 143.90715,278.46518 h -0.75253 v 5.1792 h 0.75253 z m 0.15493,-1.992 c 0,-0.30987 -0.2656,-0.5312 -0.5312,-0.5312 -0.2656,0 -0.5312,0.22133 -0.5312,0.5312 0,0.30987 0.2656,0.5312 0.5312,0.5312 0.2656,0 0.5312,-0.22133 0.5312,-0.5312 z"
       style="font-style:normal;font-variant:normal;font-weight:normal;font-stretch:normal;font-size:11.0666666px;font-family:'Avenir Next LT Pro';-inkscape-font-specification:'Avenir Next LT Pro, Normal';font-variant-ligatures:normal;font-variant-caps:normal;font-variant-numeric:normal;font-feature-settings:normal;text-align:start;writing-mode:lr-tb;text-anchor:start;fill:#ac1416;fill-opacity:1"
       id="path1604"
       inkscape:connector-curvature="0" /><path
       d="m 148.24528,278.46518 h -1.4608 v -1.4608 h -0.75254 v 1.4608 h -1.07346 v 0.6308 h 1.07346 v 3.23147 c 0,1.13986 0.77467,1.38333 1.328,1.38333 0.34307,0 0.61974,-0.0553 0.88534,-0.15493 l -0.0332,-0.65294 c -0.1992,0.0996 -0.44267,0.166 -0.65294,0.166 -0.45373,0 -0.77466,-0.17706 -0.77466,-0.95173 v -3.0212 h 1.4608 z"
       style="font-style:normal;font-variant:normal;font-weight:normal;font-stretch:normal;font-size:11.0666666px;font-family:'Avenir Next LT Pro';-inkscape-font-specification:'Avenir Next LT Pro, Normal';font-variant-ligatures:normal;font-variant-caps:normal;font-variant-numeric:normal;font-feature-settings:normal;text-align:start;writing-mode:lr-tb;text-anchor:start;fill:#ac1416;fill-opacity:1"
       id="path1606"
       inkscape:connector-curvature="0" /><path
       d="m 150.45204,283.11318 c 0,-0.30987 -0.24346,-0.5976 -0.5976,-0.5976 -0.35413,0 -0.5976,0.28773 -0.5976,0.5976 0,0.30987 0.24347,0.5976 0.5976,0.5976 0.35414,0 0.5976,-0.28773 0.5976,-0.5976 z"
       style="font-style:normal;font-variant:normal;font-weight:normal;font-stretch:normal;font-size:11.0666666px;font-family:'Avenir Next LT Pro';-inkscape-font-specification:'Avenir Next LT Pro, Normal';font-variant-ligatures:normal;font-variant-caps:normal;font-variant-numeric:normal;font-feature-settings:normal;text-align:start;writing-mode:lr-tb;text-anchor:start;fill:#ac1416;fill-opacity:1"
       id="path1608"
       inkscape:connector-curvature="0" /></g><g
     aria-label="Colin Benders"
     style="font-style:normal;font-weight:normal;font-size:40px;line-height:1.25;font-family:sans-serif;letter-spacing:0px;word-spacing:0px;fill:#93939a;fill-opacity:1;stroke:none"
     id="text1556"
     transform="translate(-69.194916)"><path
       d="m 104.29869,300.58177 c -0.392,0.584 -1.016,0.84 -1.664,0.84 -1.456,0 -2.352,-1.152 -2.352,-2.472 0,-1.32 0.888,-2.472 2.352,-2.472 0.72,0 1.288,0.376 1.528,0.744 l 0.48,-0.352 c -0.392,-0.552 -1.184,-0.896 -2.016,-0.896 -1.688,0 -2.951998,1.256 -2.951998,2.976 0,1.72 1.239998,2.976 2.951998,2.976 1.016,0 1.744,-0.488 2.12,-1.056 z"
       style="font-style:normal;font-variant:normal;font-weight:normal;font-stretch:normal;font-size:8px;font-family:'Avenir Next LT Pro';-inkscape-font-specification:'Avenir Next LT Pro, Normal';font-variant-ligatures:normal;font-variant-caps:normal;font-variant-numeric:normal;font-feature-settings:normal;text-align:start;writing-mode:lr-tb;text-anchor:start;fill:#93939a;fill-opacity:1"
       id="path1718"
       inkscape:connector-curvature="0" /><path
       d="m 109.33857,299.90977 c 0,-1.128 -0.832,-1.968 -2,-1.968 -1.16,0 -1.992,0.84 -1.992,1.968 0,1.128 0.832,1.968 1.992,1.968 1.168,0 2,-0.84 2,-1.968 z m -0.576,0 c 0,0.84 -0.552,1.504 -1.424,1.504 -0.864,0 -1.416,-0.664 -1.416,-1.504 0,-0.84 0.552,-1.512 1.416,-1.512 0.872,0 1.424,0.672 1.424,1.512 z"
       style="font-style:normal;font-variant:normal;font-weight:normal;font-stretch:normal;font-size:8px;font-family:'Avenir Next LT Pro';-inkscape-font-specification:'Avenir Next LT Pro, Normal';font-variant-ligatures:normal;font-variant-caps:normal;font-variant-numeric:normal;font-feature-settings:normal;text-align:start;writing-mode:lr-tb;text-anchor:start;fill:#93939a;fill-opacity:1"
       id="path1720"
       inkscape:connector-curvature="0" /><path
       d="m 111.06919,295.73377 h -0.544 v 6.048 h 0.544 z"
       style="font-style:normal;font-variant:normal;font-weight:normal;font-stretch:normal;font-size:8px;font-family:'Avenir Next LT Pro';-inkscape-font-specification:'Avenir Next LT Pro, Normal';font-variant-ligatures:normal;font-variant-caps:normal;font-variant-numeric:normal;font-feature-settings:normal;text-align:start;writing-mode:lr-tb;text-anchor:start;fill:#93939a;fill-opacity:1"
       id="path1722"
       inkscape:connector-curvature="0" /><path
       d="m 113.07682,298.03777 h -0.544 v 3.744 h 0.544 z m 0.112,-1.44 c 0,-0.224 -0.192,-0.384 -0.384,-0.384 -0.192,0 -0.384,0.16 -0.384,0.384 0,0.224 0.192,0.384 0.384,0.384 0.192,0 0.384,-0.16 0.384,-0.384 z"
       style="font-style:normal;font-variant:normal;font-weight:normal;font-stretch:normal;font-size:8px;font-family:'Avenir Next LT Pro';-inkscape-font-specification:'Avenir Next LT Pro, Normal';font-variant-ligatures:normal;font-variant-caps:normal;font-variant-numeric:normal;font-feature-settings:normal;text-align:start;writing-mode:lr-tb;text-anchor:start;fill:#93939a;fill-opacity:1"
       id="path1724"
       inkscape:connector-curvature="0" /><path
       d="m 114.49282,298.03777 c 0.024,0.256 0.032,0.624 0.032,0.824 v 2.92 h 0.544 v -1.92 c 0,-1 0.56,-1.464 1.136,-1.464 0.784,0 1.016,0.528 1.016,1.312 v 2.072 h 0.544 v -2.296 c 0,-0.928 -0.472,-1.544 -1.424,-1.544 -0.528,0 -1.072,0.304 -1.28,0.736 h -0.016 c 0,-0.16 -0.016,-0.44 -0.032,-0.64 z"
       style="font-style:normal;font-variant:normal;font-weight:normal;font-stretch:normal;font-size:8px;font-family:'Avenir Next LT Pro';-inkscape-font-specification:'Avenir Next LT Pro, Normal';font-variant-ligatures:normal;font-variant-caps:normal;font-variant-numeric:normal;font-feature-settings:normal;text-align:start;writing-mode:lr-tb;text-anchor:start;fill:#93939a;fill-opacity:1"
       id="path1726"
       inkscape:connector-curvature="0" /><path
       d="m 121.19744,301.78177 h 1.68 c 1.304,0 2.112,-0.624 2.112,-1.568 0,-0.824 -0.544,-1.336 -1.28,-1.416 v -0.016 c 0.6,-0.136 1,-0.624 1,-1.216 0,-1.136 -0.96,-1.448 -1.824,-1.448 h -1.688 z m 0.576,-5.168 h 1 c 0.744,0 1.36,0.272 1.36,0.992 0,0.752 -0.648,0.992 -1.2,0.992 h -1.16 z m 0,2.456 h 1.176 c 0.92,0 1.456,0.368 1.456,1.112 0,0.792 -0.728,1.104 -1.56,1.104 h -1.072 z"
       style="font-style:normal;font-variant:normal;font-weight:normal;font-stretch:normal;font-size:8px;font-family:'Avenir Next LT Pro';-inkscape-font-specification:'Avenir Next LT Pro, Normal';font-variant-ligatures:normal;font-variant-caps:normal;font-variant-numeric:normal;font-feature-settings:normal;text-align:start;writing-mode:lr-tb;text-anchor:start;fill:#93939a;fill-opacity:1"
       id="path1728"
       inkscape:connector-curvature="0" /><path
       d="m 126.56319,299.62177 c 0.048,-0.64 0.584,-1.224 1.312,-1.224 0.776,0 1.208,0.52 1.24,1.224 z m 3.104,0.176 c 0,-1.024 -0.616,-1.856 -1.792,-1.856 -1.064,0 -1.888,0.84 -1.888,1.968 0,1.128 0.824,1.968 1.936,1.968 0.616,0 1.168,-0.232 1.608,-0.792 l -0.408,-0.32 c -0.208,0.336 -0.64,0.648 -1.2,0.648 -0.768,0 -1.352,-0.608 -1.368,-1.36 h 3.104 c 0.008,-0.096 0.008,-0.184 0.008,-0.256 z"
       style="font-style:normal;font-variant:normal;font-weight:normal;font-stretch:normal;font-size:8px;font-family:'Avenir Next LT Pro';-inkscape-font-specification:'Avenir Next LT Pro, Normal';font-variant-ligatures:normal;font-variant-caps:normal;font-variant-numeric:normal;font-feature-settings:normal;text-align:start;writing-mode:lr-tb;text-anchor:start;fill:#93939a;fill-opacity:1"
       id="path1730"
       inkscape:connector-curvature="0" /><path
       d="m 130.80532,298.03777 c 0.024,0.256 0.032,0.624 0.032,0.824 v 2.92 h 0.544 v -1.92 c 0,-1 0.56,-1.464 1.136,-1.464 0.784,0 1.016,0.528 1.016,1.312 v 2.072 h 0.544 v -2.296 c 0,-0.928 -0.472,-1.544 -1.424,-1.544 -0.528,0 -1.072,0.304 -1.28,0.736 h -0.016 c 0,-0.16 -0.016,-0.44 -0.032,-0.64 z"
       style="font-style:normal;font-variant:normal;font-weight:normal;font-stretch:normal;font-size:8px;font-family:'Avenir Next LT Pro';-inkscape-font-specification:'Avenir Next LT Pro, Normal';font-variant-ligatures:normal;font-variant-caps:normal;font-variant-numeric:normal;font-feature-settings:normal;text-align:start;writing-mode:lr-tb;text-anchor:start;fill:#93939a;fill-opacity:1"
       id="path1732"
       inkscape:connector-curvature="0" /><path
       d="m 138.55794,301.14977 h 0.016 v 0.632 h 0.544 v -6.048 h -0.544 v 2.952 h -0.016 c -0.32,-0.488 -0.88,-0.744 -1.416,-0.744 -1.168,0 -1.936,0.864 -1.936,1.968 0,1.104 0.768,1.968 1.936,1.968 0.536,0 1.096,-0.256 1.416,-0.728 z m -2.776,-1.24 c 0,-0.832 0.512,-1.512 1.416,-1.512 0.84,0 1.44,0.656 1.44,1.512 0,0.856 -0.6,1.504 -1.44,1.504 -0.904,0 -1.416,-0.672 -1.416,-1.504 z"
       style="font-style:normal;font-variant:normal;font-weight:normal;font-stretch:normal;font-size:8px;font-family:'Avenir Next LT Pro';-inkscape-font-specification:'Avenir Next LT Pro, Normal';font-variant-ligatures:normal;font-variant-caps:normal;font-variant-numeric:normal;font-feature-settings:normal;text-align:start;writing-mode:lr-tb;text-anchor:start;fill:#93939a;fill-opacity:1"
       id="path1734"
       inkscape:connector-curvature="0" /><path
       d="m 140.87569,299.62177 c 0.048,-0.64 0.584,-1.224 1.312,-1.224 0.776,0 1.208,0.52 1.24,1.224 z m 3.104,0.176 c 0,-1.024 -0.616,-1.856 -1.792,-1.856 -1.064,0 -1.888,0.84 -1.888,1.968 0,1.128 0.824,1.968 1.936,1.968 0.616,0 1.168,-0.232 1.608,-0.792 l -0.408,-0.32 c -0.208,0.336 -0.64,0.648 -1.2,0.648 -0.768,0 -1.352,-0.608 -1.368,-1.36 h 3.104 c 0.008,-0.096 0.008,-0.184 0.008,-0.256 z"
       style="font-style:normal;font-variant:normal;font-weight:normal;font-stretch:normal;font-size:8px;font-family:'Avenir Next LT Pro';-inkscape-font-specification:'Avenir Next LT Pro, Normal';font-variant-ligatures:normal;font-variant-caps:normal;font-variant-numeric:normal;font-feature-settings:normal;text-align:start;writing-mode:lr-tb;text-anchor:start;fill:#93939a;fill-opacity:1"
       id="path1736"
       inkscape:connector-curvature="0" /><path
       d="m 145.14982,298.86177 v 2.92 h 0.544 v -1.92 c 0,-1 0.52,-1.416 1.096,-1.416 0.144,0 0.32,0.024 0.384,0.048 l 0.072,-0.512 c -0.112,-0.032 -0.224,-0.04 -0.36,-0.04 -0.528,0 -0.992,0.304 -1.2,0.736 h -0.016 c 0,-0.16 -0.016,-0.44 -0.032,-0.64 h -0.52 c 0.024,0.256 0.032,0.624 0.032,0.824 z"
       style="font-style:normal;font-variant:normal;font-weight:normal;font-stretch:normal;font-size:8px;font-family:'Avenir Next LT Pro';-inkscape-font-specification:'Avenir Next LT Pro, Normal';font-variant-ligatures:normal;font-variant-caps:normal;font-variant-numeric:normal;font-feature-settings:normal;text-align:start;writing-mode:lr-tb;text-anchor:start;fill:#93939a;fill-opacity:1"
       id="path1738"
       inkscape:connector-curvature="0" /><path
       d="m 150.43282,298.61377 c -0.24,-0.424 -0.792,-0.672 -1.312,-0.672 -0.68,0 -1.336,0.328 -1.336,1.088 0,0.712 0.632,0.904 1.072,1.008 0.712,0.168 1.104,0.328 1.104,0.72 0,0.488 -0.416,0.656 -0.88,0.656 -0.44,0 -0.848,-0.256 -1.04,-0.584 l -0.432,0.32 c 0.344,0.504 0.912,0.728 1.48,0.728 0.688,0 1.408,-0.304 1.408,-1.16 0,-0.584 -0.416,-0.912 -1.296,-1.096 -0.616,-0.128 -0.896,-0.288 -0.896,-0.64 0,-0.416 0.4,-0.584 0.792,-0.584 0.416,0 0.76,0.216 0.92,0.528 z"
       style="font-style:normal;font-variant:normal;font-weight:normal;font-stretch:normal;font-size:8px;font-family:'Avenir Next LT Pro';-inkscape-font-specification:'Avenir Next LT Pro, Normal';font-variant-ligatures:normal;font-variant-caps:normal;font-variant-numeric:normal;font-feature-settings:normal;text-align:start;writing-mode:lr-tb;text-anchor:start;fill:#93939a;fill-opacity:1"
       id="path1740"
       inkscape:connector-curvature="0" /></g></svg>