<?xml version="1.0" encoding="UTF-8" standalone="no"?>
<svg
   xmlns:dc="http://purl.org/dc/elements/1.1/"
   xmlns:cc="http://creativecommons.org/ns#"
   xmlns:rdf="http://www.w3.org/1999/02/22-rdf-syntax-ns#"
   xmlns:svg="http://www.w3.org/2000/svg"
   xmlns="http://www.w3.org/2000/svg"
   xmlns:sodipodi="http://sodipodi.sourceforge.net/DTD/sodipodi-0.dtd"
   xmlns:inkscape="http://www.inkscape.org/namespaces/inkscape"
   version="1.1"
   id="Lag_1"
   x="0"
   y="0"
   viewBox="0 0 150 380"
   xml:space="preserve"
   sodipodi:docname="PT_quote03_150px.svg"
   inkscape:version="0.92.2 (5c3e80d, 2017-08-06)"><metadata
     id="metadata73"><rdf:RDF><cc:Work
         rdf:about=""><dc:format>image/svg+xml</dc:format><dc:type
           rdf:resource="http://purl.org/dc/dcmitype/StillImage" /></cc:Work></rdf:RDF></metadata><defs
     id="defs71" /><sodipodi:namedview
     pagecolor="#ffffff"
     bordercolor="#666666"
     borderopacity="1"
     objecttolerance="10"
     gridtolerance="10"
     guidetolerance="10"
     inkscape:pageopacity="0"
     inkscape:pageshadow="2"
     inkscape:window-width="1366"
     inkscape:window-height="705"
     id="namedview69"
     showgrid="false"
     inkscape:zoom="1.3026316"
     inkscape:cx="75"
     inkscape:cy="190"
     inkscape:window-x="1912"
     inkscape:window-y="300"
     inkscape:window-maximized="1"
     inkscape:current-layer="Lag_1" /><style
     id="style2">.st1{enable-background:new}.st2{fill:#939392}.st3{fill:#222221}.st4{fill:#ac1416}.st5{fill:#af1d1f}.st6{fill:#f9dc0a}.st7{fill:#007fc5}</style><path
     fill="#e3e1e1"
     d="M0 0h150v380H0z"
     id="path4" /><g
     class="st1"
     id="g20"
     style="fill:#222221;fill-opacity:1"><path
       class="st3"
       d="M15.6 222.6h2l-2.3 8.2h-2.5l2.8-8.2zm5.8 0h2l-2.3 8.2h-2.5l2.8-8.2z"
       id="path18"
       style="fill:#222221;fill-opacity:1" /></g><g
     class="st1"
     id="g28"
     transform="translate(0.47417748)"
     style="enable-background:new"><path
       class="st4"
       d="m 127.9,244 h -0.6 l 0.7,-2.6 h 0.8 z"
       id="path26"
       inkscape:connector-curvature="0"
       style="fill:#ac1416"
       sodipodi:nodetypes="ccccc" /></g><g
     class="st1"
     id="g36"><path
       class="st4"
       d="m 93.8,278 h -0.6 l 0.7,-2.6 h 0.8 z m 1.8,0 H 95 l 0.7,-2.6 h 0.8 z"
       id="path34"
       inkscape:connector-curvature="0"
       style="fill:#ac1416"
       sodipodi:nodetypes="cccccccccc" /></g><path
     style="fill:#222221;fill-opacity:1"
     inkscape:connector-curvature="0"
     id="path38"
     d="m 13,77.2 v 6.3 h 6.4 v 16 h 7.5 v -16 h 6.5 v -6.3 z m 46.8,0 -1.9,12.6 -2.7,-12.6 H 47.4 L 44.9,89.8 43,77.2 h -7.9 l 5.3,22.3 H 48 l 3.2,-12.6 h 0.1 l 3.2,12.6 h 7.6 l 5.4,-22.3 z m 10,0 v 22.3 h 15.9 v -6.2 h -8.8 v -2.1 h 7.8 v -5.8 h -7.8 v -2 h 8.3 v -6.2 z m 30.3,7.8 1.8,5.5 h -3.6 z m -3.9,-7.8 -8.8,22.3 h 8 l 1.1,-3.2 h 7.1 l 1.2,3.3 h 8.2 l -8.7,-22.4 z m 31.7,0 -6,8.2 h -0.1 v -8.2 h -7.2 v 22.3 h 7.3 v -8.9 l 6,8.9 h 9.2 l -8.8,-12.1 8.4,-10.2 z M 22,55.7 c 0.3,0 0.6,0 0.8,0.1 0.3,0 0.5,0.1 0.7,0.3 0.2,0.1 0.4,0.3 0.5,0.5 0.1,0.3 0.2,0.6 0.2,0.9 0.1,0.6 -0.2,1.1 -0.7,1.4 -0.5,0.3 -1,0.4 -1.6,0.4 h -1.6 v -3.6 z m 0.5,9.3 c 1.1,0 2.3,-0.1 3.4,-0.4 1.1,-0.2 2.1,-0.7 2.9,-1.3 0.9,-0.6 1.6,-1.4 2,-2.4 0.5,-1.1 0.8,-2.3 0.8,-3.6 0,-1.3 -0.2,-2.5 -0.8,-3.6 -0.5,-0.9 -1.2,-1.7 -2.1,-2.3 -0.9,-0.6 -1.9,-1 -2.9,-1.2 -1.1,-0.2 -2.2,-0.4 -3.3,-0.3 h -9.6 v 22.4 h 7.5 V 65 Z m 21.6,-1.8 h -3.6 l 1.8,-5.5 z m -14.5,9.1 h 8 L 38.7,69 h 7.1 l 1.2,3.3 h 8.2 L 46.5,49.9 h -8 z M 66.1,56.2 h 5.5 V 49.9 H 53.1 v 6.3 h 5.5 v 16 h 7.5 z m 6.9,9.7 c 1.2,2.9 3.6,5.1 6.5,6.1 1.5,0.6 3.1,0.9 4.8,0.9 1.7,0 3.4,-0.3 5,-0.9 1.4,-0.5 2.7,-1.4 3.7,-2.4 l -4.6,-5.5 c -0.4,0.5 -0.9,1 -1.5,1.3 -0.7,0.4 -1.4,0.6 -2.2,0.5 -0.6,0 -1.2,-0.1 -1.8,-0.3 -0.5,-0.2 -1,-0.5 -1.4,-1 -0.4,-0.4 -0.8,-0.9 -1,-1.5 -0.3,-0.6 -0.4,-1.3 -0.4,-2 0,-0.7 0.1,-1.4 0.3,-2 0.2,-0.6 0.5,-1.1 1,-1.5 0.4,-0.4 0.9,-0.7 1.4,-1 0.6,-0.2 1.2,-0.3 1.8,-0.3 0.7,0 1.5,0.1 2.1,0.4 0.6,0.3 1.2,0.7 1.6,1.2 l 4.6,-5.6 c -1.1,-1 -2.4,-1.8 -3.9,-2.3 -1.6,-0.6 -3.2,-0.8 -4.9,-0.8 -1.6,0 -3.2,0.3 -4.8,0.8 -1.4,0.5 -2.8,1.3 -3.9,2.4 -1.1,1.1 -2,2.3 -2.6,3.7 -0.6,1.5 -1,3.2 -0.9,4.9 0.1,1.8 0.4,3.4 1.1,4.9 m 35.3,6.3 h 7.6 V 49.9 h -7.6 v 7.6 h -6.1 v -7.6 h -7.5 v 22.3 h 7.5 v -8.5 h 6.1 z"
     class="st3" /><path
     style="fill:#f9dc0a"
     inkscape:connector-curvature="0"
     id="path44"
     d="m 110.8,174.8 c -12.7,0 -27.4,-4.8 -42.8,-19 -0.2,-0.2 -0.3,-0.6 -0.1,-0.9 0.2,-0.3 0.5,-0.3 0.7,-0.1 38.6,35.7 73.1,11 80.2,2.5 0.2,-0.3 0.5,-0.3 0.7,-0.1 0.2,0.2 0.2,0.6 0.1,0.9 l -0.1,0.1 c -4.4,5.3 -19.1,16.6 -38.7,16.6 z"
     class="st6" /><path
     style="fill:#007fc5"
     inkscape:connector-curvature="0"
     id="path46"
     d="m 121,152 c -0.3,0 -0.5,0.2 -0.5,0.6 0,0.1 -0.4,6.2 -6.9,11.1 -11.8,9.1 -41.1,12.9 -113.5,-19.6 v 1.3 c 43.5,19.5 71.5,25.9 89.6,25.9 12.1,0 19.8,-2.9 24.6,-6.6 6.8,-5.2 7.3,-11.7 7.3,-12 0,-0.4 -0.3,-0.7 -0.6,-0.7 z"
     class="st7" /><path
     style="fill:#9c9b9b"
     inkscape:connector-curvature="0"
     id="path48"
     d="m 31.1,160.5 c -0.3,0 -0.5,0.2 -0.5,0.6 0,0.5 -1.1,12.2 -20,12.2 -5.1,0 -8.3,-0.8 -10.5,-1.9 v 1.3 c 2.5,1.2 6.1,1.8 10.5,1.8 19.9,0 21,-12.8 21,-13.4 0,-0.3 -0.2,-0.6 -0.5,-0.6 z" /><path
     style="fill:#f9dc0a"
     inkscape:connector-curvature="0"
     id="path50"
     d="m 133.7,154.6 c -12.2,0 -21.3,-5.2 -28.5,-9.4 -10.8,-6.3 -18,-10.5 -28.2,4.7 -0.2,0.3 -0.5,0.3 -0.7,0.1 -0.2,-0.2 -0.2,-0.6 -0.1,-0.9 10.7,-15.9 18.5,-11.4 29.4,-5.1 7.1,4.2 16.1,9.3 28,9.3 0.3,0 0.5,0.3 0.5,0.6 0,0.3 -0.1,0.7 -0.4,0.7 z"
     class="st6" /><path
     style="fill:#007fc5"
     inkscape:connector-curvature="0"
     id="path52"
     d="m 115.4,168 c -5.9,0 -12.8,-1.9 -20.8,-5.8 -6.4,-3.1 -12.5,-6.9 -18.3,-11.4 -0.2,-0.2 -0.3,-0.6 -0.1,-0.9 0.2,-0.3 0.5,-0.4 0.7,-0.2 0.3,0.2 32,25.1 49.1,14.1 7.3,-4.7 10.9,-15.2 10.9,-31.4 0,-0.3 0.2,-0.6 0.5,-0.6 0.3,0 0.5,0.3 0.5,0.6 0,16.6 -3.9,27.5 -11.5,32.4 -3.4,2.3 -7.2,3.3 -11,3.2 z"
     class="st7" /><path
     style="fill:#f9dc0a"
     inkscape:connector-curvature="0"
     id="path54"
     d="m 48.4,158.7 c -0.1,0 -0.2,0 -0.2,-0.1 -0.2,-0.2 -0.3,-0.5 -0.2,-0.8 1,-2 8.8,-12 13.6,-10.5 2.1,0.7 3.2,3.5 3.2,8.4 0,0.3 -0.2,0.6 -0.5,0.6 -0.3,0 -0.5,-0.3 -0.5,-0.6 0,-4.2 -0.8,-6.7 -2.5,-7.2 -3.9,-1.2 -11.5,7.9 -12.4,9.9 -0.1,0.2 -0.3,0.3 -0.5,0.3 z"
     class="st6" /><path
     style="fill:#f9dc0a"
     inkscape:connector-curvature="0"
     id="path56"
     d="m 48.7,169.7 c -4.1,0 -8.3,-2.5 -12.7,-5.2 -7.6,-4.5 -15.4,-9.2 -22.3,-0.1 -0.2,0.3 -0.5,0.3 -0.7,0.1 -0.2,-0.2 -0.3,-0.6 -0.1,-0.9 v -0.1 c 7.5,-9.8 15.6,-4.9 23.5,-0.2 5.5,3.3 10.7,6.4 15.4,4.4 3.2,-1.4 5.8,-5 8.2,-11 0.1,-0.3 0.4,-0.5 0.6,-0.4 0.2,0.1 0.4,0.5 0.3,0.8 v 0.1 c -2.5,6.4 -5.3,10.2 -8.8,11.7 -1.1,0.6 -2.2,0.8 -3.4,0.8 z m 25.5,-15.1 c -0.1,0 -0.2,0 -0.2,-0.1 -0.2,-0.2 -0.3,-0.5 -0.2,-0.8 9.4,-20.1 20.8,-31.1 33.9,-32.8 22.2,-2.9 41.5,22.6 41.7,22.9 0.2,0.2 0.2,0.6 0,0.9 -0.2,0.2 -0.5,0.2 -0.7,-0.1 -0.2,-0.2 -19.2,-25.3 -40.9,-22.5 -12.7,1.7 -23.8,12.5 -33.1,32.2 -0.1,0.2 -0.3,0.3 -0.5,0.3 z"
     class="st6" /><path
     style="fill:#007fc5"
     inkscape:connector-curvature="0"
     id="path58"
     d="m 108.3,166.7 c -0.3,0 -0.5,-0.3 -0.5,-0.7 0,-0.5 4.5,-47.6 41.5,-43.4 0.3,0 0.5,0.3 0.5,0.7 0,0.4 -0.3,0.6 -0.6,0.6 -15.1,-1.7 -26.5,4.9 -33.8,19.6 -3.4,7 -5.6,14.7 -6.6,22.8 0,0.2 -0.2,0.4 -0.5,0.4 z"
     class="st7" /><path
     style="fill:#af1d1f"
     inkscape:connector-curvature="0"
     id="path60"
     d="m 109.9,137.7 c -0.3,-0.1 -0.5,0 -0.6,0.4 -3.1,10.7 -33.3,15.4 -62.5,20 -17.9,2.8 -35,5.5 -46.7,9.5 v 1.3 c 11.8,-4.1 29.5,-6.9 46.9,-9.6 30.8,-4.8 60,-9.4 63.3,-20.8 0.1,-0.4 -0.1,-0.7 -0.4,-0.8 0.1,0 0.1,0 0,0 z"
     class="st5" /><path
     style="fill:#007fc5"
     inkscape:connector-curvature="0"
     id="path62"
     d="m 22.7,154.6 c -0.2,0 -0.4,-0.2 -0.5,-0.4 -0.1,-0.4 -3.1,-10.2 1.3,-18.9 3.2,-6.4 9.5,-10.4 18.7,-12 16.7,-2.7 35.7,2 48.7,6.5 8.3,2.8 16.5,6.3 24.5,10.5 0.2,0.2 0.3,0.5 0.2,0.8 -0.1,0.3 -0.4,0.4 -0.6,0.3 -7.9,-4.1 -16.1,-7.5 -24.4,-10.4 -12.9,-4.4 -31.8,-9.2 -48.3,-6.5 -8.9,1.4 -15,5.3 -18,11.4 -4.1,8.2 -1.2,17.8 -1.2,17.9 0.1,0.3 0,0.7 -0.4,0.8 0.2,0 0.1,0 0,0 z"
     class="st7" /><path
     style="fill:#af1d1f;fill-opacity:1"
     inkscape:connector-curvature="0"
     id="path64"
     d="M 150,132 C 113.8,124 81.5,123.1 53.9,129.2 41.4,132 18,139.1 1.3,155.6 l -1.2,1.2 v 1.6 c 0.6,-0.6 1.2,-1.3 1.8,-1.9 16.6,-16.3 39.8,-23.4 52.1,-26.1 27.6,-6.1 59.8,-5.2 96,2.8 z"
     class="st5" /><g
     aria-label="To me, the essence"
     style="font-style:normal;font-weight:normal;font-size:40px;line-height:1.25;font-family:sans-serif;letter-spacing:0px;word-spacing:0px;fill:#000000;fill-opacity:1;stroke:none"
     id="text879"><path
       d="m 33.394332,225.25364 h 2.6228 v -0.70827 h -6.0424 v 0.70827 h 2.6228 v 7.12693 h 0.7968 z"
       style="font-style:normal;font-variant:normal;font-weight:normal;font-stretch:normal;font-size:11.0666666px;font-family:'Avenir Next LT Pro';-inkscape-font-specification:'Avenir Next LT Pro, Normal';font-variant-ligatures:normal;font-variant-caps:normal;font-variant-numeric:normal;font-feature-settings:normal;text-align:start;writing-mode:lr-tb;text-anchor:start;fill:#ac1416;fill-opacity:1"
       id="path1004" /><path
       d="m 41.236276,229.79097 c 0,-1.5604 -1.150933,-2.7224 -2.766667,-2.7224 -1.604666,0 -2.7556,1.162 -2.7556,2.7224 0,1.5604 1.150934,2.7224 2.7556,2.7224 1.615734,0 2.766667,-1.162 2.766667,-2.7224 z m -0.7968,0 c 0,1.162 -0.7636,2.08053 -1.969867,2.08053 -1.1952,0 -1.9588,-0.91853 -1.9588,-2.08053 0,-1.162 0.7636,-2.0916 1.9588,-2.0916 1.206267,0 1.969867,0.9296 1.969867,2.0916 z"
       style="font-style:normal;font-variant:normal;font-weight:normal;font-stretch:normal;font-size:11.0666666px;font-family:'Avenir Next LT Pro';-inkscape-font-specification:'Avenir Next LT Pro, Normal';font-variant-ligatures:normal;font-variant-caps:normal;font-variant-numeric:normal;font-feature-settings:normal;text-align:start;writing-mode:lr-tb;text-anchor:start;fill:#ac1416;fill-opacity:1"
       id="path1006" /><path
       d="m 46.363774,228.0867 h -0.02213 c 0,-0.22133 -0.02213,-0.60866 -0.04427,-0.88533 h -0.719333 c 0.0332,0.35413 0.04427,0.8632 0.04427,1.13987 v 4.03933 h 0.752534 v -2.656 c 0,-1.38333 0.785733,-2.0252 1.505066,-2.0252 1.007067,0 1.250534,0.65293 1.250534,1.66 v 3.0212 h 0.752533 v -2.7556 c 0,-0.9628 0.387333,-1.9256 1.471867,-1.9256 0.973866,0 1.339066,0.7304 1.339066,1.81493 v 2.86627 h 0.752534 v -3.17613 c 0,-1.28374 -0.652934,-2.13587 -1.969867,-2.13587 -0.83,0 -1.4608,0.38733 -1.814933,1.0956 -0.343067,-0.88533 -1.0292,-1.0956 -1.5936,-1.0956 -0.741467,0 -1.405467,0.42053 -1.704267,1.01813 z"
       style="font-style:normal;font-variant:normal;font-weight:normal;font-stretch:normal;font-size:11.0666666px;font-family:'Avenir Next LT Pro';-inkscape-font-specification:'Avenir Next LT Pro, Normal';font-variant-ligatures:normal;font-variant-caps:normal;font-variant-numeric:normal;font-feature-settings:normal;text-align:start;writing-mode:lr-tb;text-anchor:start;fill:#ac1416;fill-opacity:1"
       id="path1008" /><path
       d="m 55.812632,229.39257 c 0.0664,-0.88533 0.807867,-1.6932 1.814934,-1.6932 1.073466,0 1.671066,0.71933 1.715333,1.6932 z m 4.293867,0.24347 c 0,-1.41654 -0.852133,-2.56747 -2.478933,-2.56747 -1.471867,0 -2.611734,1.162 -2.611734,2.7224 0,1.5604 1.139867,2.7224 2.678134,2.7224 0.852133,0 1.615733,-0.32093 2.2244,-1.0956 l -0.5644,-0.44267 c -0.287734,0.4648 -0.885334,0.8964 -1.66,0.8964 -1.0624,0 -1.870267,-0.84106 -1.8924,-1.88133 h 4.293866 c 0.01107,-0.1328 0.01107,-0.25453 0.01107,-0.35413 z"
       style="font-style:normal;font-variant:normal;font-weight:normal;font-stretch:normal;font-size:11.0666666px;font-family:'Avenir Next LT Pro';-inkscape-font-specification:'Avenir Next LT Pro, Normal';font-variant-ligatures:normal;font-variant-caps:normal;font-variant-numeric:normal;font-feature-settings:normal;text-align:start;writing-mode:lr-tb;text-anchor:start;fill:#ac1416;fill-opacity:1"
       id="path1010" /><path
       d="m 62.754372,231.32924 h -0.785734 l -0.741466,2.60066 h 0.6308 z"
       style="font-style:normal;font-variant:normal;font-weight:normal;font-stretch:normal;font-size:11.0666666px;font-family:'Avenir Next LT Pro';-inkscape-font-specification:'Avenir Next LT Pro, Normal';font-variant-ligatures:normal;font-variant-caps:normal;font-variant-numeric:normal;font-feature-settings:normal;text-align:start;writing-mode:lr-tb;text-anchor:start;fill:#ac1416;fill-opacity:1"
       id="path1012" /><path
       d="m 69.377425,227.20137 h -1.4608 v -1.4608 h -0.752534 v 1.4608 h -1.073466 v 0.6308 h 1.073466 v 3.23147 c 0,1.13986 0.774667,1.38333 1.328,1.38333 0.343067,0 0.619734,-0.0553 0.885334,-0.15493 l -0.0332,-0.65294 c -0.1992,0.0996 -0.442667,0.166 -0.652934,0.166 -0.453733,0 -0.774666,-0.17706 -0.774666,-0.95173 v -3.0212 h 1.4608 z"
       style="font-style:normal;font-variant:normal;font-weight:normal;font-stretch:normal;font-size:11.0666666px;font-family:'Avenir Next LT Pro';-inkscape-font-specification:'Avenir Next LT Pro, Normal';font-variant-ligatures:normal;font-variant-caps:normal;font-variant-numeric:normal;font-feature-settings:normal;text-align:start;writing-mode:lr-tb;text-anchor:start;fill:#ac1416;fill-opacity:1"
       id="path1014" /><path
       d="m 71.318589,228.0535 v -4.03933 h -0.752534 v 8.3664 h 0.752534 v -2.656 c 0,-1.38333 0.774666,-2.0252 1.571466,-2.0252 1.084534,0 1.405467,0.7304 1.405467,1.81493 v 2.86627 h 0.752533 v -3.17613 c 0,-1.28374 -0.652933,-2.13587 -1.969866,-2.13587 -0.7304,0 -1.4608,0.38733 -1.737467,0.98493 z"
       style="font-style:normal;font-variant:normal;font-weight:normal;font-stretch:normal;font-size:11.0666666px;font-family:'Avenir Next LT Pro';-inkscape-font-specification:'Avenir Next LT Pro, Normal';font-variant-ligatures:normal;font-variant-caps:normal;font-variant-numeric:normal;font-feature-settings:normal;text-align:start;writing-mode:lr-tb;text-anchor:start;fill:#ac1416;fill-opacity:1"
       id="path1016" /><path
       d="m 77.427216,229.39257 c 0.0664,-0.88533 0.807867,-1.6932 1.814934,-1.6932 1.073466,0 1.671066,0.71933 1.715333,1.6932 z m 4.293867,0.24347 c 0,-1.41654 -0.852133,-2.56747 -2.478933,-2.56747 -1.471867,0 -2.611734,1.162 -2.611734,2.7224 0,1.5604 1.139867,2.7224 2.678134,2.7224 0.852133,0 1.615733,-0.32093 2.2244,-1.0956 l -0.5644,-0.44267 c -0.287734,0.4648 -0.885334,0.8964 -1.66,0.8964 -1.0624,0 -1.870267,-0.84106 -1.8924,-1.88133 h 4.293866 c 0.01107,-0.1328 0.01107,-0.25453 0.01107,-0.35413 z"
       style="font-style:normal;font-variant:normal;font-weight:normal;font-stretch:normal;font-size:11.0666666px;font-family:'Avenir Next LT Pro';-inkscape-font-specification:'Avenir Next LT Pro, Normal';font-variant-ligatures:normal;font-variant-caps:normal;font-variant-numeric:normal;font-feature-settings:normal;text-align:start;writing-mode:lr-tb;text-anchor:start;fill:#ac1416;fill-opacity:1"
       id="path1018" /><path
       d="m 86.526955,229.39257 c 0.0664,-0.88533 0.807867,-1.6932 1.814934,-1.6932 1.073466,0 1.671066,0.71933 1.715333,1.6932 z m 4.293867,0.24347 c 0,-1.41654 -0.852133,-2.56747 -2.478933,-2.56747 -1.471867,0 -2.611734,1.162 -2.611734,2.7224 0,1.5604 1.139867,2.7224 2.678134,2.7224 0.852133,0 1.615733,-0.32093 2.2244,-1.0956 l -0.5644,-0.44267 c -0.287734,0.4648 -0.885334,0.8964 -1.66,0.8964 -1.0624,0 -1.870267,-0.84106 -1.8924,-1.88133 h 4.293866 c 0.01107,-0.1328 0.01107,-0.25453 0.01107,-0.35413 z"
       style="font-style:normal;font-variant:normal;font-weight:normal;font-stretch:normal;font-size:11.0666666px;font-family:'Avenir Next LT Pro';-inkscape-font-specification:'Avenir Next LT Pro, Normal';font-variant-ligatures:normal;font-variant-caps:normal;font-variant-numeric:normal;font-feature-settings:normal;text-align:start;writing-mode:lr-tb;text-anchor:start;fill:#ac1416;fill-opacity:1"
       id="path1020" /><path
       d="m 95.770561,227.99817 c -0.332,-0.58653 -1.0956,-0.9296 -1.814933,-0.9296 -0.940667,0 -1.848133,0.45373 -1.848133,1.50507 0,0.98493 0.874266,1.25053 1.482933,1.3944 0.984933,0.2324 1.5272,0.45373 1.5272,0.996 0,0.67506 -0.575467,0.90746 -1.217333,0.90746 -0.608667,0 -1.173067,-0.35413 -1.438667,-0.80786 l -0.5976,0.44266 c 0.475867,0.6972 1.2616,1.00707 2.047333,1.00707 0.951734,0 1.947734,-0.42053 1.947734,-1.60467 0,-0.80786 -0.575467,-1.2616 -1.7928,-1.51613 -0.852134,-0.17707 -1.239467,-0.3984 -1.239467,-0.88533 0,-0.57547 0.553333,-0.80787 1.0956,-0.80787 0.575467,0 1.051333,0.2988 1.272667,0.7304 z"
       style="font-style:normal;font-variant:normal;font-weight:normal;font-stretch:normal;font-size:11.0666666px;font-family:'Avenir Next LT Pro';-inkscape-font-specification:'Avenir Next LT Pro, Normal';font-variant-ligatures:normal;font-variant-caps:normal;font-variant-numeric:normal;font-feature-settings:normal;text-align:start;writing-mode:lr-tb;text-anchor:start;fill:#ac1416;fill-opacity:1"
       id="path1022" /><path
       d="m 100.67707,227.99817 c -0.332,-0.58653 -1.095599,-0.9296 -1.814932,-0.9296 -0.940667,0 -1.848134,0.45373 -1.848134,1.50507 0,0.98493 0.874267,1.25053 1.482934,1.3944 0.984933,0.2324 1.527202,0.45373 1.527202,0.996 0,0.67506 -0.575469,0.90746 -1.217336,0.90746 -0.608666,0 -1.173066,-0.35413 -1.438666,-0.80786 l -0.5976,0.44266 c 0.475866,0.6972 1.2616,1.00707 2.047333,1.00707 0.951733,0 1.947729,-0.42053 1.947729,-1.60467 0,-0.80786 -0.57546,-1.2616 -1.792796,-1.51613 -0.852133,-0.17707 -1.239466,-0.3984 -1.239466,-0.88533 0,-0.57547 0.553333,-0.80787 1.0956,-0.80787 0.575466,0 1.051333,0.2988 1.272662,0.7304 z"
       style="font-style:normal;font-variant:normal;font-weight:normal;font-stretch:normal;font-size:11.0666666px;font-family:'Avenir Next LT Pro';-inkscape-font-specification:'Avenir Next LT Pro, Normal';font-variant-ligatures:normal;font-variant-caps:normal;font-variant-numeric:normal;font-feature-settings:normal;text-align:start;writing-mode:lr-tb;text-anchor:start;fill:#ac1416;fill-opacity:1"
       id="path1024" /><path
       d="m 102.67305,229.39257 c 0.0664,-0.88533 0.80786,-1.6932 1.81493,-1.6932 1.07347,0 1.67107,0.71933 1.71533,1.6932 z m 4.29386,0.24347 c 0,-1.41654 -0.85213,-2.56747 -2.47893,-2.56747 -1.47187,0 -2.61173,1.162 -2.61173,2.7224 0,1.5604 1.13986,2.7224 2.67813,2.7224 0.85213,0 1.61573,-0.32093 2.2244,-1.0956 l -0.5644,-0.44267 c -0.28773,0.4648 -0.88533,0.8964 -1.66,0.8964 -1.0624,0 -1.87027,-0.84106 -1.8924,-1.88133 h 4.29387 c 0.0111,-0.1328 0.0111,-0.25453 0.0111,-0.35413 z"
       style="font-style:normal;font-variant:normal;font-weight:normal;font-stretch:normal;font-size:11.0666666px;font-family:'Avenir Next LT Pro';-inkscape-font-specification:'Avenir Next LT Pro, Normal';font-variant-ligatures:normal;font-variant-caps:normal;font-variant-numeric:normal;font-feature-settings:normal;text-align:start;writing-mode:lr-tb;text-anchor:start;fill:#ac1416;fill-opacity:1"
       id="path1026" /><path
       d="m 108.54132,227.20137 c 0.0332,0.35413 0.0443,0.8632 0.0443,1.13987 v 4.03933 h 0.75253 v -2.656 c 0,-1.38333 0.77467,-2.0252 1.57147,-2.0252 1.08453,0 1.40547,0.7304 1.40547,1.81493 v 2.86627 h 0.75253 v -3.17613 c 0,-1.28374 -0.65293,-2.13587 -1.96987,-2.13587 -0.7304,0 -1.48293,0.42053 -1.77066,1.01813 h -0.0221 c 0,-0.22133 -0.0221,-0.60866 -0.0443,-0.88533 z"
       style="font-style:normal;font-variant:normal;font-weight:normal;font-stretch:normal;font-size:11.0666666px;font-family:'Avenir Next LT Pro';-inkscape-font-specification:'Avenir Next LT Pro, Normal';font-variant-ligatures:normal;font-variant-caps:normal;font-variant-numeric:normal;font-feature-settings:normal;text-align:start;writing-mode:lr-tb;text-anchor:start;fill:#ac1416;fill-opacity:1"
       id="path1028" /><path
       d="m 119.32112,227.96497 c -0.44267,-0.5976 -1.2284,-0.8964 -1.9256,-0.8964 -1.67107,0 -2.76667,1.162 -2.76667,2.7224 0,1.5604 1.0956,2.7224 2.76667,2.7224 0.8964,0 1.5272,-0.35413 1.96986,-0.8964 l -0.5644,-0.42053 c -0.2988,0.3984 -0.75253,0.67506 -1.40546,0.67506 -1.20627,0 -1.96987,-0.90746 -1.96987,-2.08053 0,-1.18413 0.77467,-2.0916 1.98093,-2.0916 0.5644,0 1.08454,0.28773 1.328,0.68613 z"
       style="font-style:normal;font-variant:normal;font-weight:normal;font-stretch:normal;font-size:11.0666666px;font-family:'Avenir Next LT Pro';-inkscape-font-specification:'Avenir Next LT Pro, Normal';font-variant-ligatures:normal;font-variant-caps:normal;font-variant-numeric:normal;font-feature-settings:normal;text-align:start;writing-mode:lr-tb;text-anchor:start;fill:#ac1416;fill-opacity:1"
       id="path1030" /><path
       d="m 120.95899,229.39257 c 0.0664,-0.88533 0.80787,-1.6932 1.81493,-1.6932 1.07347,0 1.67107,0.71933 1.71534,1.6932 z m 4.29387,0.24347 c 0,-1.41654 -0.85214,-2.56747 -2.47894,-2.56747 -1.47186,0 -2.61173,1.162 -2.61173,2.7224 0,1.5604 1.13987,2.7224 2.67813,2.7224 0.85214,0 1.61574,-0.32093 2.2244,-1.0956 l -0.5644,-0.44267 c -0.28773,0.4648 -0.88533,0.8964 -1.66,0.8964 -1.0624,0 -1.87026,-0.84106 -1.8924,-1.88133 h 4.29387 c 0.0111,-0.1328 0.0111,-0.25453 0.0111,-0.35413 z"
       style="font-style:normal;font-variant:normal;font-weight:normal;font-stretch:normal;font-size:11.0666666px;font-family:'Avenir Next LT Pro';-inkscape-font-specification:'Avenir Next LT Pro, Normal';font-variant-ligatures:normal;font-variant-caps:normal;font-variant-numeric:normal;font-feature-settings:normal;text-align:start;writing-mode:lr-tb;text-anchor:start;fill:#ac1416;fill-opacity:1"
       id="path1032" /></g><g
     aria-label="Lady Starlight"
     style="font-style:normal;font-weight:normal;font-size:40px;line-height:1.25;font-family:sans-serif;letter-spacing:0px;word-spacing:0px;fill:#93939a;fill-opacity:1;stroke:none"
     id="text1556"><path
       d="m 31.264417,296.3056 h -0.576 v 5.664 h 3.216 v -0.512 h -2.64 z"
       style="font-style:normal;font-variant:normal;font-weight:normal;font-stretch:normal;font-size:8px;font-family:'Avenir Next LT Pro';-inkscape-font-specification:'Avenir Next LT Pro, Normal';font-variant-ligatures:normal;font-variant-caps:normal;font-variant-numeric:normal;font-feature-settings:normal;text-align:start;writing-mode:lr-tb;text-anchor:start;fill:#93939a;fill-opacity:1"
       id="path1035" /><path
       d="m 37.094542,299.6736 c -1.368,0 -2.64,0.104 -2.64,1.256 0,0.832 0.728,1.136 1.296,1.136 0.6,0 1.016,-0.208 1.36,-0.704 h 0.016 c 0,0.2 0.024,0.424 0.056,0.608 h 0.488 c -0.04,-0.208 -0.064,-0.552 -0.064,-0.84 v -1.64 c 0,-0.912 -0.648,-1.36 -1.456,-1.36 -0.64,0 -1.168,0.232 -1.472,0.536 l 0.304,0.36 c 0.264,-0.264 0.672,-0.44 1.112,-0.44 0.648,0 1,0.32 1,0.968 z m 0,0.424 v 0.28 c 0,0.664 -0.432,1.24 -1.2,1.24 -0.424,0 -0.88,-0.176 -0.88,-0.712 0,-0.712 1.032,-0.808 1.92,-0.808 z"
       style="font-style:normal;font-variant:normal;font-weight:normal;font-stretch:normal;font-size:8px;font-family:'Avenir Next LT Pro';-inkscape-font-specification:'Avenir Next LT Pro, Normal';font-variant-ligatures:normal;font-variant-caps:normal;font-variant-numeric:normal;font-feature-settings:normal;text-align:start;writing-mode:lr-tb;text-anchor:start;fill:#93939a;fill-opacity:1"
       id="path1037" /><path
       d="m 42.080167,301.3376 h 0.016 v 0.632 h 0.544 v -6.048 h -0.544 v 2.952 h -0.016 c -0.32,-0.488 -0.88,-0.744 -1.416,-0.744 -1.168,0 -1.936,0.864 -1.936,1.968 0,1.104 0.768,1.968 1.936,1.968 0.536,0 1.096,-0.256 1.416,-0.728 z m -2.776,-1.24 c 0,-0.832 0.512,-1.512 1.416,-1.512 0.84,0 1.44,0.656 1.44,1.512 0,0.856 -0.6,1.504 -1.44,1.504 -0.904,0 -1.416,-0.672 -1.416,-1.504 z"
       style="font-style:normal;font-variant:normal;font-weight:normal;font-stretch:normal;font-size:8px;font-family:'Avenir Next LT Pro';-inkscape-font-specification:'Avenir Next LT Pro, Normal';font-variant-ligatures:normal;font-variant-caps:normal;font-variant-numeric:normal;font-feature-settings:normal;text-align:start;writing-mode:lr-tb;text-anchor:start;fill:#93939a;fill-opacity:1"
       id="path1039" /><path
       d="m 44.109917,298.2256 h -0.608 l 1.6,3.736 -0.304,0.784 c -0.16,0.424 -0.352,0.664 -0.72,0.664 -0.144,0 -0.28,-0.024 -0.4,-0.064 l -0.056,0.496 c 0.16,0.032 0.328,0.048 0.488,0.048 0.648,0 0.952,-0.376 1.176,-0.952 l 1.864,-4.712 h -0.592 l -1.16,3.16 h -0.016 z"
       style="font-style:normal;font-variant:normal;font-weight:normal;font-stretch:normal;font-size:8px;font-family:'Avenir Next LT Pro';-inkscape-font-specification:'Avenir Next LT Pro, Normal';font-variant-ligatures:normal;font-variant-caps:normal;font-variant-numeric:normal;font-feature-settings:normal;text-align:start;writing-mode:lr-tb;text-anchor:start;fill:#93939a;fill-opacity:1"
       id="path1041" /><path
       d="m 53.232167,296.8496 c -0.272,-0.368 -0.84,-0.688 -1.6,-0.688 -0.832,0 -1.808,0.464 -1.808,1.56 0,1.024 0.768,1.352 1.52,1.584 0.72,0.224 1.384,0.424 1.384,1.216 0,0.728 -0.672,1.096 -1.256,1.096 -0.592,0 -1.048,-0.312 -1.296,-0.712 l -0.496,0.368 c 0.408,0.56 1.096,0.84 1.784,0.84 0.896,0 1.848,-0.496 1.848,-1.632 0,-1.136 -0.88,-1.392 -1.68,-1.656 -0.632,-0.208 -1.232,-0.392 -1.232,-1.112 0,-0.728 0.648,-1.064 1.208,-1.064 0.536,0 0.928,0.224 1.168,0.568 z"
       style="font-style:normal;font-variant:normal;font-weight:normal;font-stretch:normal;font-size:8px;font-family:'Avenir Next LT Pro';-inkscape-font-specification:'Avenir Next LT Pro, Normal';font-variant-ligatures:normal;font-variant-caps:normal;font-variant-numeric:normal;font-feature-settings:normal;text-align:start;writing-mode:lr-tb;text-anchor:start;fill:#93939a;fill-opacity:1"
       id="path1043" /><path
       d="m 56.156917,298.2256 h -1.056 v -1.056 h -0.544 v 1.056 h -0.776 v 0.456 h 0.776 v 2.336 c 0,0.824 0.56,1 0.96,1 0.248,0 0.448,-0.04 0.64,-0.112 l -0.024,-0.472 c -0.144,0.072 -0.32,0.12 -0.472,0.12 -0.328,0 -0.56,-0.128 -0.56,-0.688 v -2.184 h 1.056 z"
       style="font-style:normal;font-variant:normal;font-weight:normal;font-stretch:normal;font-size:8px;font-family:'Avenir Next LT Pro';-inkscape-font-specification:'Avenir Next LT Pro, Normal';font-variant-ligatures:normal;font-variant-caps:normal;font-variant-numeric:normal;font-feature-settings:normal;text-align:start;writing-mode:lr-tb;text-anchor:start;fill:#93939a;fill-opacity:1"
       id="path1045" /><path
       d="m 59.360167,299.6736 c -1.368,0 -2.64,0.104 -2.64,1.256 0,0.832 0.728,1.136 1.296,1.136 0.6,0 1.016,-0.208 1.36,-0.704 h 0.016 c 0,0.2 0.024,0.424 0.056,0.608 h 0.488 c -0.04,-0.208 -0.064,-0.552 -0.064,-0.84 v -1.64 c 0,-0.912 -0.648,-1.36 -1.456,-1.36 -0.64,0 -1.168,0.232 -1.472,0.536 l 0.304,0.36 c 0.264,-0.264 0.672,-0.44 1.112,-0.44 0.648,0 1,0.32 1,0.968 z m 0,0.424 v 0.28 c 0,0.664 -0.432,1.24 -1.2,1.24 -0.424,0 -0.88,-0.176 -0.88,-0.712 0,-0.712 1.032,-0.808 1.92,-0.808 z"
       style="font-style:normal;font-variant:normal;font-weight:normal;font-stretch:normal;font-size:8px;font-family:'Avenir Next LT Pro';-inkscape-font-specification:'Avenir Next LT Pro, Normal';font-variant-ligatures:normal;font-variant-caps:normal;font-variant-numeric:normal;font-feature-settings:normal;text-align:start;writing-mode:lr-tb;text-anchor:start;fill:#93939a;fill-opacity:1"
       id="path1047" /><path
       d="m 61.265792,299.0496 v 2.92 h 0.544 v -1.92 c 0,-1 0.52,-1.416 1.096,-1.416 0.144,0 0.32,0.024 0.384,0.048 l 0.072,-0.512 c -0.112,-0.032 -0.224,-0.04 -0.36,-0.04 -0.528,0 -0.992,0.304 -1.2,0.736 h -0.016 c 0,-0.16 -0.016,-0.44 -0.032,-0.64 h -0.52 c 0.024,0.256 0.032,0.624 0.032,0.824 z"
       style="font-style:normal;font-variant:normal;font-weight:normal;font-stretch:normal;font-size:8px;font-family:'Avenir Next LT Pro';-inkscape-font-specification:'Avenir Next LT Pro, Normal';font-variant-ligatures:normal;font-variant-caps:normal;font-variant-numeric:normal;font-feature-settings:normal;text-align:start;writing-mode:lr-tb;text-anchor:start;fill:#93939a;fill-opacity:1"
       id="path1049" /><path
       d="m 64.700792,295.9216 h -0.544 v 6.048 h 0.544 z"
       style="font-style:normal;font-variant:normal;font-weight:normal;font-stretch:normal;font-size:8px;font-family:'Avenir Next LT Pro';-inkscape-font-specification:'Avenir Next LT Pro, Normal';font-variant-ligatures:normal;font-variant-caps:normal;font-variant-numeric:normal;font-feature-settings:normal;text-align:start;writing-mode:lr-tb;text-anchor:start;fill:#93939a;fill-opacity:1"
       id="path1051" /><path
       d="m 66.708417,298.2256 h -0.544 v 3.744 h 0.544 z m 0.112,-1.44 c 0,-0.224 -0.192,-0.384 -0.384,-0.384 -0.192,0 -0.384,0.16 -0.384,0.384 0,0.224 0.192,0.384 0.384,0.384 0.192,0 0.384,-0.16 0.384,-0.384 z"
       style="font-style:normal;font-variant:normal;font-weight:normal;font-stretch:normal;font-size:8px;font-family:'Avenir Next LT Pro';-inkscape-font-specification:'Avenir Next LT Pro, Normal';font-variant-ligatures:normal;font-variant-caps:normal;font-variant-numeric:normal;font-feature-settings:normal;text-align:start;writing-mode:lr-tb;text-anchor:start;fill:#93939a;fill-opacity:1"
       id="path1053" /><path
       d="m 67.964417,303.1376 c 0.44,0.464 1.112,0.752 1.8,0.752 1.656,0 2.032,-1.136 2.032,-1.952 v -3.712 h -0.544 v 0.648 h -0.016 c -0.296,-0.48 -0.872,-0.744 -1.416,-0.744 -1.168,0 -1.936,0.872 -1.936,1.936 0,1.096 0.768,1.904 1.936,1.904 0.544,0 1.128,-0.272 1.416,-0.736 h 0.016 v 0.704 c 0,0.808 -0.392,1.472 -1.464,1.472 -0.568,0 -1.136,-0.304 -1.432,-0.688 z m 0.496,-3.088 c 0,-0.784 0.512,-1.464 1.416,-1.464 0.84,0 1.44,0.68 1.44,1.464 0,0.864 -0.6,1.456 -1.44,1.456 -0.904,0 -1.416,-0.672 -1.416,-1.456 z"
       style="font-style:normal;font-variant:normal;font-weight:normal;font-stretch:normal;font-size:8px;font-family:'Avenir Next LT Pro';-inkscape-font-specification:'Avenir Next LT Pro, Normal';font-variant-ligatures:normal;font-variant-caps:normal;font-variant-numeric:normal;font-feature-settings:normal;text-align:start;writing-mode:lr-tb;text-anchor:start;fill:#93939a;fill-opacity:1"
       id="path1055" /><path
       d="m 73.778917,298.8416 v -2.92 h -0.544 v 6.048 h 0.544 v -1.92 c 0,-1 0.56,-1.464 1.136,-1.464 0.784,0 1.016,0.528 1.016,1.312 v 2.072 h 0.544 v -2.296 c 0,-0.928 -0.472,-1.544 -1.424,-1.544 -0.528,0 -1.056,0.28 -1.256,0.712 z"
       style="font-style:normal;font-variant:normal;font-weight:normal;font-stretch:normal;font-size:8px;font-family:'Avenir Next LT Pro';-inkscape-font-specification:'Avenir Next LT Pro, Normal';font-variant-ligatures:normal;font-variant-caps:normal;font-variant-numeric:normal;font-feature-settings:normal;text-align:start;writing-mode:lr-tb;text-anchor:start;fill:#93939a;fill-opacity:1"
       id="path1057" /><path
       d="m 79.578792,298.2256 h -1.056 v -1.056 h -0.544 v 1.056 h -0.776 v 0.456 h 0.776 v 2.336 c 0,0.824 0.56,1 0.96,1 0.248,0 0.448,-0.04 0.64,-0.112 l -0.024,-0.472 c -0.144,0.072 -0.32,0.12 -0.472,0.12 -0.328,0 -0.56,-0.128 -0.56,-0.688 v -2.184 h 1.056 z"
       style="font-style:normal;font-variant:normal;font-weight:normal;font-stretch:normal;font-size:8px;font-family:'Avenir Next LT Pro';-inkscape-font-specification:'Avenir Next LT Pro, Normal';font-variant-ligatures:normal;font-variant-caps:normal;font-variant-numeric:normal;font-feature-settings:normal;text-align:start;writing-mode:lr-tb;text-anchor:start;fill:#93939a;fill-opacity:1"
       id="path1059" /></g><g
     aria-label="of modular is that it s"
     style="font-style:normal;font-weight:normal;font-size:40px;line-height:1.25;font-family:sans-serif;letter-spacing:0px;word-spacing:0px;fill:#000000;fill-opacity:1;stroke:none"
     id="text879-0"><path
       d="m 35.667322,246.43397 c 0,-1.5604 -1.150933,-2.7224 -2.766667,-2.7224 -1.604666,0 -2.7556,1.162 -2.7556,2.7224 0,1.5604 1.150934,2.7224 2.7556,2.7224 1.615734,0 2.766667,-1.162 2.766667,-2.7224 z m -0.7968,0 c 0,1.162 -0.7636,2.08054 -1.969867,2.08054 -1.1952,0 -1.9588,-0.91854 -1.9588,-2.08054 0,-1.162 0.7636,-2.0916 1.9588,-2.0916 1.206267,0 1.969867,0.9296 1.969867,2.0916 z"
       style="font-style:normal;font-variant:normal;font-weight:normal;font-stretch:normal;font-size:11.0666666px;font-family:'Avenir Next LT Pro';-inkscape-font-specification:'Avenir Next LT Pro, Normal';font-variant-ligatures:normal;font-variant-caps:normal;font-variant-numeric:normal;font-feature-settings:normal;text-align:start;writing-mode:lr-tb;text-anchor:start;fill:#ac1416;fill-opacity:1"
       id="path967" /><path
       d="m 39.477887,243.84437 h -1.217334 v -1.328 c 0,-0.75253 0.166,-1.328 0.973867,-1.328 0.1992,0 0.3652,0.0332 0.520133,0.0775 l 0.1328,-0.664 c -0.188133,-0.0553 -0.4316,-0.0775 -0.619733,-0.0775 -1.184133,0 -1.7596,0.7304 -1.7596,1.90347 v 1.41653 h -1.084533 v 0.6308 h 1.084533 v 4.5484 h 0.752533 v -4.5484 h 1.217334 z"
       style="font-style:normal;font-variant:normal;font-weight:normal;font-stretch:normal;font-size:11.0666666px;font-family:'Avenir Next LT Pro';-inkscape-font-specification:'Avenir Next LT Pro, Normal';font-variant-ligatures:normal;font-variant-caps:normal;font-variant-numeric:normal;font-feature-settings:normal;text-align:start;writing-mode:lr-tb;text-anchor:start;fill:#ac1416;fill-opacity:1"
       id="path969" /><path
       d="m 44.317997,244.72971 h -0.02213 c 0,-0.22134 -0.02213,-0.60867 -0.04427,-0.88534 h -0.719334 c 0.0332,0.35414 0.04427,0.8632 0.04427,1.13987 v 4.03933 h 0.752533 v -2.656 c 0,-1.38333 0.785734,-2.0252 1.505067,-2.0252 1.007067,0 1.250533,0.65294 1.250533,1.66 v 3.0212 h 0.752534 v -2.7556 c 0,-0.9628 0.387333,-1.9256 1.471866,-1.9256 0.973867,0 1.339067,0.7304 1.339067,1.81494 v 2.86626 h 0.752533 v -3.17613 c 0,-1.28373 -0.652933,-2.13587 -1.969866,-2.13587 -0.83,0 -1.4608,0.38734 -1.814934,1.0956 -0.343066,-0.88533 -1.0292,-1.0956 -1.5936,-1.0956 -0.741466,0 -1.405466,0.42054 -1.704266,1.01814 z"
       style="font-style:normal;font-variant:normal;font-weight:normal;font-stretch:normal;font-size:11.0666666px;font-family:'Avenir Next LT Pro';-inkscape-font-specification:'Avenir Next LT Pro, Normal';font-variant-ligatures:normal;font-variant-caps:normal;font-variant-numeric:normal;font-feature-settings:normal;text-align:start;writing-mode:lr-tb;text-anchor:start;fill:#ac1416;fill-opacity:1"
       id="path971" /><path
       d="m 58.492323,246.43397 c 0,-1.5604 -1.150934,-2.7224 -2.766667,-2.7224 -1.604667,0 -2.7556,1.162 -2.7556,2.7224 0,1.5604 1.150933,2.7224 2.7556,2.7224 1.615733,0 2.766667,-1.162 2.766667,-2.7224 z m -0.7968,0 c 0,1.162 -0.7636,2.08054 -1.969867,2.08054 -1.1952,0 -1.9588,-0.91854 -1.9588,-2.08054 0,-1.162 0.7636,-2.0916 1.9588,-2.0916 1.206267,0 1.969867,0.9296 1.969867,2.0916 z"
       style="font-style:normal;font-variant:normal;font-weight:normal;font-stretch:normal;font-size:11.0666666px;font-family:'Avenir Next LT Pro';-inkscape-font-specification:'Avenir Next LT Pro, Normal';font-variant-ligatures:normal;font-variant-caps:normal;font-variant-numeric:normal;font-feature-settings:normal;text-align:start;writing-mode:lr-tb;text-anchor:start;fill:#ac1416;fill-opacity:1"
       id="path973" /><path
       d="m 64.372353,248.14931 h 0.02213 v 0.87426 h 0.752534 v -8.3664 h -0.752534 v 4.0836 h -0.02213 c -0.442667,-0.67506 -1.217333,-1.0292 -1.9588,-1.0292 -1.615733,0 -2.678133,1.1952 -2.678133,2.7224 0,1.5272 1.0624,2.7224 2.678133,2.7224 0.741467,0 1.516133,-0.35413 1.9588,-1.00706 z m -3.840133,-1.71534 c 0,-1.15093 0.708266,-2.0916 1.9588,-2.0916 1.162,0 1.992,0.90747 1.992,2.0916 0,1.18414 -0.83,2.08054 -1.992,2.08054 -1.250534,0 -1.9588,-0.9296 -1.9588,-2.08054 z"
       style="font-style:normal;font-variant:normal;font-weight:normal;font-stretch:normal;font-size:11.0666666px;font-family:'Avenir Next LT Pro';-inkscape-font-specification:'Avenir Next LT Pro, Normal';font-variant-ligatures:normal;font-variant-caps:normal;font-variant-numeric:normal;font-feature-settings:normal;text-align:start;writing-mode:lr-tb;text-anchor:start;fill:#ac1416;fill-opacity:1"
       id="path975" /><path
       d="m 71.640041,249.02357 c -0.0332,-0.35413 -0.04427,-0.8632 -0.04427,-1.13986 v -4.03934 h -0.752533 v 2.656 c 0,1.38334 -0.774667,2.0252 -1.571467,2.0252 -1.084533,0 -1.405467,-0.7304 -1.405467,-1.81493 v -2.86627 h -0.752533 v 3.17614 c 0,1.28373 0.652933,2.13586 1.969867,2.13586 0.7304,0 1.482933,-0.42053 1.770666,-1.01813 h 0.02213 c 0,0.22133 0.02213,0.60867 0.04427,0.88533 z"
       style="font-style:normal;font-variant:normal;font-weight:normal;font-stretch:normal;font-size:11.0666666px;font-family:'Avenir Next LT Pro';-inkscape-font-specification:'Avenir Next LT Pro, Normal';font-variant-ligatures:normal;font-variant-caps:normal;font-variant-numeric:normal;font-feature-settings:normal;text-align:start;writing-mode:lr-tb;text-anchor:start;fill:#ac1416;fill-opacity:1"
       id="path977" /><path
       d="m 74.35224,240.65717 h -0.752533 v 8.3664 h 0.752533 z"
       style="font-style:normal;font-variant:normal;font-weight:normal;font-stretch:normal;font-size:11.0666666px;font-family:'Avenir Next LT Pro';-inkscape-font-specification:'Avenir Next LT Pro, Normal';font-variant-ligatures:normal;font-variant-caps:normal;font-variant-numeric:normal;font-feature-settings:normal;text-align:start;writing-mode:lr-tb;text-anchor:start;fill:#ac1416;fill-opacity:1"
       id="path979" /><path
       d="m 79.630521,245.84744 c -1.8924,0 -3.652,0.14387 -3.652,1.73747 0,1.15093 1.007066,1.57146 1.7928,1.57146 0.83,0 1.405466,-0.28773 1.881333,-0.97386 h 0.02213 c 0,0.27666 0.0332,0.58653 0.07747,0.84106 h 0.675067 c -0.05533,-0.28773 -0.08853,-0.7636 -0.08853,-1.162 v -2.26866 c 0,-1.2616 -0.8964,-1.88134 -2.014133,-1.88134 -0.885333,0 -1.615733,0.32094 -2.036267,0.74147 l 0.420534,0.498 c 0.3652,-0.3652 0.9296,-0.60867 1.538266,-0.60867 0.8964,0 1.383334,0.44267 1.383334,1.33907 z m 0,0.58653 v 0.38734 c 0,0.91853 -0.5976,1.71533 -1.66,1.71533 -0.586534,0 -1.217334,-0.24347 -1.217334,-0.98493 0,-0.98494 1.4276,-1.11774 2.656,-1.11774 z"
       style="font-style:normal;font-variant:normal;font-weight:normal;font-stretch:normal;font-size:11.0666666px;font-family:'Avenir Next LT Pro';-inkscape-font-specification:'Avenir Next LT Pro, Normal';font-variant-ligatures:normal;font-variant-caps:normal;font-variant-numeric:normal;font-feature-settings:normal;text-align:start;writing-mode:lr-tb;text-anchor:start;fill:#ac1416;fill-opacity:1"
       id="path981" /><path
       d="m 82.266634,244.98424 v 4.03933 h 0.752533 v -2.656 c 0,-1.38333 0.719333,-1.9588 1.516133,-1.9588 0.1992,0 0.442667,0.0332 0.5312,0.0664 l 0.0996,-0.70826 c -0.154933,-0.0443 -0.309866,-0.0553 -0.498,-0.0553 -0.7304,0 -1.372266,0.42054 -1.66,1.01814 h -0.02213 c 0,-0.22134 -0.02213,-0.60867 -0.04427,-0.88534 h -0.719333 c 0.0332,0.35414 0.04427,0.8632 0.04427,1.13987 z"
       style="font-style:normal;font-variant:normal;font-weight:normal;font-stretch:normal;font-size:11.0666666px;font-family:'Avenir Next LT Pro';-inkscape-font-specification:'Avenir Next LT Pro, Normal';font-variant-ligatures:normal;font-variant-caps:normal;font-variant-numeric:normal;font-feature-settings:normal;text-align:start;writing-mode:lr-tb;text-anchor:start;fill:#ac1416;fill-opacity:1"
       id="path983" /><path
       d="m 89.773985,243.84437 h -0.752533 v 5.1792 h 0.752533 z m 0.154934,-1.992 c 0,-0.30986 -0.2656,-0.5312 -0.5312,-0.5312 -0.2656,0 -0.5312,0.22134 -0.5312,0.5312 0,0.30987 0.2656,0.5312 0.5312,0.5312 0.2656,0 0.5312,-0.22133 0.5312,-0.5312 z"
       style="font-style:normal;font-variant:normal;font-weight:normal;font-stretch:normal;font-size:11.0666666px;font-family:'Avenir Next LT Pro';-inkscape-font-specification:'Avenir Next LT Pro, Normal';font-variant-ligatures:normal;font-variant-caps:normal;font-variant-numeric:normal;font-feature-settings:normal;text-align:start;writing-mode:lr-tb;text-anchor:start;fill:#ac1416;fill-opacity:1"
       id="path985" /><path
       d="m 95.108118,244.64117 c -0.332,-0.58653 -1.0956,-0.9296 -1.814933,-0.9296 -0.940667,0 -1.848133,0.45374 -1.848133,1.50507 0,0.98493 0.874266,1.25053 1.482933,1.3944 0.984933,0.2324 1.5272,0.45373 1.5272,0.996 0,0.67507 -0.575467,0.90747 -1.217333,0.90747 -0.608667,0 -1.173067,-0.35414 -1.438667,-0.80787 l -0.5976,0.44267 c 0.475867,0.6972 1.2616,1.00706 2.047333,1.00706 0.951734,0 1.947734,-0.42053 1.947734,-1.60466 0,-0.80787 -0.575467,-1.2616 -1.7928,-1.51614 -0.852134,-0.17706 -1.239467,-0.3984 -1.239467,-0.88533 0,-0.57547 0.553333,-0.80787 1.0956,-0.80787 0.575467,0 1.051333,0.2988 1.272667,0.7304 z"
       style="font-style:normal;font-variant:normal;font-weight:normal;font-stretch:normal;font-size:11.0666666px;font-family:'Avenir Next LT Pro';-inkscape-font-specification:'Avenir Next LT Pro, Normal';font-variant-ligatures:normal;font-variant-caps:normal;font-variant-numeric:normal;font-feature-settings:normal;text-align:start;writing-mode:lr-tb;text-anchor:start;fill:#ac1416;fill-opacity:1"
       id="path987" /><path
       d="m 101.7853,243.84437 h -1.4608 v -1.4608 h -0.752535 v 1.4608 h -1.073467 v 0.6308 h 1.073467 v 3.23147 c 0,1.13987 0.774665,1.38333 1.327995,1.38333 0.34307,0 0.61974,-0.0553 0.88534,-0.15493 l -0.0332,-0.65293 c -0.1992,0.0996 -0.44267,0.166 -0.65294,0.166 -0.45373,0 -0.77466,-0.17707 -0.77466,-0.95174 v -3.0212 h 1.4608 z"
       style="font-style:normal;font-variant:normal;font-weight:normal;font-stretch:normal;font-size:11.0666666px;font-family:'Avenir Next LT Pro';-inkscape-font-specification:'Avenir Next LT Pro, Normal';font-variant-ligatures:normal;font-variant-caps:normal;font-variant-numeric:normal;font-feature-settings:normal;text-align:start;writing-mode:lr-tb;text-anchor:start;fill:#ac1416;fill-opacity:1"
       id="path989" /><path
       d="m 103.72645,244.69651 v -4.03934 h -0.75253 v 8.3664 h 0.75253 v -2.656 c 0,-1.38333 0.77467,-2.0252 1.57147,-2.0252 1.08453,0 1.40547,0.7304 1.40547,1.81494 v 2.86626 h 0.75253 v -3.17613 c 0,-1.28373 -0.65293,-2.13587 -1.96987,-2.13587 -0.7304,0 -1.4608,0.38734 -1.73746,0.98494 z"
       style="font-style:normal;font-variant:normal;font-weight:normal;font-stretch:normal;font-size:11.0666666px;font-family:'Avenir Next LT Pro';-inkscape-font-specification:'Avenir Next LT Pro, Normal';font-variant-ligatures:normal;font-variant-caps:normal;font-variant-numeric:normal;font-feature-settings:normal;text-align:start;writing-mode:lr-tb;text-anchor:start;fill:#ac1416;fill-opacity:1"
       id="path991" /><path
       d="m 112.67922,245.84744 c -1.8924,0 -3.652,0.14387 -3.652,1.73747 0,1.15093 1.00706,1.57146 1.7928,1.57146 0.83,0 1.40546,-0.28773 1.88133,-0.97386 h 0.0221 c 0,0.27666 0.0332,0.58653 0.0775,0.84106 h 0.67507 c -0.0553,-0.28773 -0.0885,-0.7636 -0.0885,-1.162 v -2.26866 c 0,-1.2616 -0.8964,-1.88134 -2.01413,-1.88134 -0.88533,0 -1.61573,0.32094 -2.03627,0.74147 l 0.42054,0.498 c 0.3652,-0.3652 0.9296,-0.60867 1.53826,-0.60867 0.8964,0 1.38334,0.44267 1.38334,1.33907 z m 0,0.58653 v 0.38734 c 0,0.91853 -0.5976,1.71533 -1.66,1.71533 -0.58654,0 -1.21734,-0.24347 -1.21734,-0.98493 0,-0.98494 1.4276,-1.11774 2.656,-1.11774 z"
       style="font-style:normal;font-variant:normal;font-weight:normal;font-stretch:normal;font-size:11.0666666px;font-family:'Avenir Next LT Pro';-inkscape-font-specification:'Avenir Next LT Pro, Normal';font-variant-ligatures:normal;font-variant-caps:normal;font-variant-numeric:normal;font-feature-settings:normal;text-align:start;writing-mode:lr-tb;text-anchor:start;fill:#ac1416;fill-opacity:1"
       id="path993" /><path
       d="m 117.54232,243.84437 h -1.4608 v -1.4608 h -0.75253 v 1.4608 h -1.07347 v 0.6308 h 1.07347 v 3.23147 c 0,1.13987 0.77467,1.38333 1.328,1.38333 0.34307,0 0.61973,-0.0553 0.88533,-0.15493 l -0.0332,-0.65293 c -0.1992,0.0996 -0.44266,0.166 -0.65293,0.166 -0.45373,0 -0.77467,-0.17707 -0.77467,-0.95174 v -3.0212 h 1.4608 z"
       style="font-style:normal;font-variant:normal;font-weight:normal;font-stretch:normal;font-size:11.0666666px;font-family:'Avenir Next LT Pro';-inkscape-font-specification:'Avenir Next LT Pro, Normal';font-variant-ligatures:normal;font-variant-caps:normal;font-variant-numeric:normal;font-feature-settings:normal;text-align:start;writing-mode:lr-tb;text-anchor:start;fill:#ac1416;fill-opacity:1"
       id="path995" /><path
       d="m 122.23909,243.84437 h -0.75253 v 5.1792 h 0.75253 z m 0.15494,-1.992 c 0,-0.30986 -0.2656,-0.5312 -0.5312,-0.5312 -0.2656,0 -0.5312,0.22134 -0.5312,0.5312 0,0.30987 0.2656,0.5312 0.5312,0.5312 0.2656,0 0.5312,-0.22133 0.5312,-0.5312 z"
       style="font-style:normal;font-variant:normal;font-weight:normal;font-stretch:normal;font-size:11.0666666px;font-family:'Avenir Next LT Pro';-inkscape-font-specification:'Avenir Next LT Pro, Normal';font-variant-ligatures:normal;font-variant-caps:normal;font-variant-numeric:normal;font-feature-settings:normal;text-align:start;writing-mode:lr-tb;text-anchor:start;fill:#ac1416;fill-opacity:1"
       id="path997" /><path
       d="m 126.57722,243.84437 h -1.4608 v -1.4608 h -0.75253 v 1.4608 h -1.07347 v 0.6308 h 1.07347 v 3.23147 c 0,1.13987 0.77466,1.38333 1.328,1.38333 0.34306,0 0.61973,-0.0553 0.88533,-0.15493 l -0.0332,-0.65293 c -0.1992,0.0996 -0.44267,0.166 -0.65293,0.166 -0.45374,0 -0.77467,-0.17707 -0.77467,-0.95174 v -3.0212 h 1.4608 z"
       style="font-style:normal;font-variant:normal;font-weight:normal;font-stretch:normal;font-size:11.0666666px;font-family:'Avenir Next LT Pro';-inkscape-font-specification:'Avenir Next LT Pro, Normal';font-variant-ligatures:normal;font-variant-caps:normal;font-variant-numeric:normal;font-feature-settings:normal;text-align:start;writing-mode:lr-tb;text-anchor:start;fill:#ac1416;fill-opacity:1"
       id="path999" /><path
       d="m 133.84145,244.64117 c -0.332,-0.58653 -1.0956,-0.9296 -1.81494,-0.9296 -0.94066,0 -1.84813,0.45374 -1.84813,1.50507 0,0.98493 0.87427,1.25053 1.48293,1.3944 0.98494,0.2324 1.5272,0.45373 1.5272,0.996 0,0.67507 -0.57546,0.90747 -1.21733,0.90747 -0.60867,0 -1.17307,-0.35414 -1.43867,-0.80787 l -0.5976,0.44267 c 0.47587,0.6972 1.2616,1.00706 2.04734,1.00706 0.95173,0 1.94773,-0.42053 1.94773,-1.60466 0,-0.80787 -0.57547,-1.2616 -1.7928,-1.51614 -0.85213,-0.17706 -1.23947,-0.3984 -1.23947,-0.88533 0,-0.57547 0.55334,-0.80787 1.0956,-0.80787 0.57547,0 1.05134,0.2988 1.27267,0.7304 z"
       style="font-style:normal;font-variant:normal;font-weight:normal;font-stretch:normal;font-size:11.0666666px;font-family:'Avenir Next LT Pro';-inkscape-font-specification:'Avenir Next LT Pro, Normal';font-variant-ligatures:normal;font-variant-caps:normal;font-variant-numeric:normal;font-feature-settings:normal;text-align:start;writing-mode:lr-tb;text-anchor:start;fill:#ac1416;fill-opacity:1"
       id="path1001" /></g><g
     aria-label="about your brain,"
     style="font-style:normal;font-weight:normal;font-size:40px;line-height:1.25;font-family:sans-serif;letter-spacing:0px;word-spacing:0px;fill:#000000;fill-opacity:1;stroke:none"
     id="text879-5"><path
       d="m 34.093596,263.10411 c -1.8924,0 -3.652,0.14387 -3.652,1.73747 0,1.15093 1.007067,1.57146 1.7928,1.57146 0.83,0 1.405467,-0.28773 1.881334,-0.97386 h 0.02213 c 0,0.27666 0.0332,0.58653 0.07747,0.84106 h 0.675066 c -0.05533,-0.28773 -0.08853,-0.7636 -0.08853,-1.162 v -2.26866 c 0,-1.2616 -0.8964,-1.88134 -2.014133,-1.88134 -0.885334,0 -1.615734,0.32094 -2.036267,0.74147 l 0.420533,0.498 c 0.3652,-0.3652 0.9296,-0.60867 1.538267,-0.60867 0.8964,0 1.383333,0.44267 1.383333,1.33907 z m 0,0.58653 v 0.38734 c 0,0.91853 -0.5976,1.71533 -1.66,1.71533 -0.586533,0 -1.217333,-0.24347 -1.217333,-0.98493 0,-0.98494 1.4276,-1.11774 2.656,-1.11774 z"
       style="font-style:normal;font-variant:normal;font-weight:normal;font-stretch:normal;font-size:11.0666666px;font-family:'Avenir Next LT Pro';-inkscape-font-specification:'Avenir Next LT Pro, Normal';font-variant-ligatures:normal;font-variant-caps:normal;font-variant-numeric:normal;font-feature-settings:normal;text-align:start;writing-mode:lr-tb;text-anchor:start;fill:#ac1416;fill-opacity:1"
       id="path936" /><path
       d="m 37.526511,265.40598 c 0.442666,0.65293 1.217333,1.00706 1.9588,1.00706 1.615733,0 2.678133,-1.1952 2.678133,-2.7224 0,-1.5272 -1.0624,-2.7224 -2.678133,-2.7224 -0.741467,0 -1.516134,0.35414 -1.9588,1.0292 h -0.02213 v -4.0836 h -0.752533 v 8.3664 h 0.752533 v -0.87426 z m 3.840133,-1.71534 c 0,1.15094 -0.708267,2.08054 -1.9588,2.08054 -1.162,0 -1.992,-0.8964 -1.992,-2.08054 0,-1.18413 0.83,-2.0916 1.992,-2.0916 1.250533,0 1.9588,0.94067 1.9588,2.0916 z"
       style="font-style:normal;font-variant:normal;font-weight:normal;font-stretch:normal;font-size:11.0666666px;font-family:'Avenir Next LT Pro';-inkscape-font-specification:'Avenir Next LT Pro, Normal';font-variant-ligatures:normal;font-variant-caps:normal;font-variant-numeric:normal;font-feature-settings:normal;text-align:start;writing-mode:lr-tb;text-anchor:start;fill:#ac1416;fill-opacity:1"
       id="path938" /><path
       d="m 48.922066,263.69064 c 0,-1.5604 -1.150934,-2.7224 -2.766667,-2.7224 -1.604667,0 -2.7556,1.162 -2.7556,2.7224 0,1.5604 1.150933,2.7224 2.7556,2.7224 1.615733,0 2.766667,-1.162 2.766667,-2.7224 z m -0.7968,0 c 0,1.162 -0.7636,2.08054 -1.969867,2.08054 -1.1952,0 -1.9588,-0.91854 -1.9588,-2.08054 0,-1.162 0.7636,-2.0916 1.9588,-2.0916 1.206267,0 1.969867,0.9296 1.969867,2.0916 z"
       style="font-style:normal;font-variant:normal;font-weight:normal;font-stretch:normal;font-size:11.0666666px;font-family:'Avenir Next LT Pro';-inkscape-font-specification:'Avenir Next LT Pro, Normal';font-variant-ligatures:normal;font-variant-caps:normal;font-variant-numeric:normal;font-feature-settings:normal;text-align:start;writing-mode:lr-tb;text-anchor:start;fill:#ac1416;fill-opacity:1"
       id="path940" /><path
       d="m 55.023429,266.28024 c -0.0332,-0.35413 -0.04427,-0.8632 -0.04427,-1.13986 v -4.03934 h -0.752534 v 2.656 c 0,1.38334 -0.774666,2.0252 -1.571466,2.0252 -1.084534,0 -1.405467,-0.7304 -1.405467,-1.81493 v -2.86627 h -0.752533 v 3.17614 c 0,1.28373 0.652933,2.13586 1.969866,2.13586 0.7304,0 1.482934,-0.42053 1.770667,-1.01813 h 0.02213 c 0,0.22133 0.02213,0.60867 0.04427,0.88533 z"
       style="font-style:normal;font-variant:normal;font-weight:normal;font-stretch:normal;font-size:11.0666666px;font-family:'Avenir Next LT Pro';-inkscape-font-specification:'Avenir Next LT Pro, Normal';font-variant-ligatures:normal;font-variant-caps:normal;font-variant-numeric:normal;font-feature-settings:normal;text-align:start;writing-mode:lr-tb;text-anchor:start;fill:#ac1416;fill-opacity:1"
       id="path942" /><path
       d="m 59.296027,261.10104 h -1.4608 v -1.4608 h -0.752534 v 1.4608 h -1.073466 v 0.6308 h 1.073466 v 3.23147 c 0,1.13987 0.774667,1.38333 1.328,1.38333 0.343067,0 0.619734,-0.0553 0.885334,-0.15493 l -0.0332,-0.65293 c -0.1992,0.0996 -0.442667,0.166 -0.652934,0.166 -0.453733,0 -0.774666,-0.17707 -0.774666,-0.95174 v -3.0212 h 1.4608 z"
       style="font-style:normal;font-variant:normal;font-weight:normal;font-stretch:normal;font-size:11.0666666px;font-family:'Avenir Next LT Pro';-inkscape-font-specification:'Avenir Next LT Pro, Normal';font-variant-ligatures:normal;font-variant-caps:normal;font-variant-numeric:normal;font-feature-settings:normal;text-align:start;writing-mode:lr-tb;text-anchor:start;fill:#ac1416;fill-opacity:1"
       id="path944" /><path
       d="m 63.251324,261.10104 h -0.841067 l 2.213334,5.16814 -0.420534,1.08453 c -0.221333,0.58653 -0.486933,0.91853 -0.996,0.91853 -0.1992,0 -0.387333,-0.0332 -0.553333,-0.0885 l -0.07747,0.68613 c 0.221334,0.0443 0.453734,0.0664 0.675067,0.0664 0.8964,0 1.316933,-0.52013 1.6268,-1.31693 l 2.578533,-6.51827 h -0.818933 l -1.604667,4.37134 h -0.02213 z"
       style="font-style:normal;font-variant:normal;font-weight:normal;font-stretch:normal;font-size:11.0666666px;font-family:'Avenir Next LT Pro';-inkscape-font-specification:'Avenir Next LT Pro, Normal';font-variant-ligatures:normal;font-variant-caps:normal;font-variant-numeric:normal;font-feature-settings:normal;text-align:start;writing-mode:lr-tb;text-anchor:start;fill:#ac1416;fill-opacity:1"
       id="path946" /><path
       d="m 73.778835,263.69064 c 0,-1.5604 -1.150933,-2.7224 -2.766667,-2.7224 -1.604666,0 -2.7556,1.162 -2.7556,2.7224 0,1.5604 1.150934,2.7224 2.7556,2.7224 1.615734,0 2.766667,-1.162 2.766667,-2.7224 z m -0.7968,0 c 0,1.162 -0.7636,2.08054 -1.969867,2.08054 -1.1952,0 -1.9588,-0.91854 -1.9588,-2.08054 0,-1.162 0.7636,-2.0916 1.9588,-2.0916 1.206267,0 1.969867,0.9296 1.969867,2.0916 z"
       style="font-style:normal;font-variant:normal;font-weight:normal;font-stretch:normal;font-size:11.0666666px;font-family:'Avenir Next LT Pro';-inkscape-font-specification:'Avenir Next LT Pro, Normal';font-variant-ligatures:normal;font-variant-caps:normal;font-variant-numeric:normal;font-feature-settings:normal;text-align:start;writing-mode:lr-tb;text-anchor:start;fill:#ac1416;fill-opacity:1"
       id="path948" /><path
       d="m 79.880201,266.28024 c -0.0332,-0.35413 -0.04427,-0.8632 -0.04427,-1.13986 v -4.03934 h -0.752533 v 2.656 c 0,1.38334 -0.774667,2.0252 -1.571467,2.0252 -1.084533,0 -1.405467,-0.7304 -1.405467,-1.81493 v -2.86627 h -0.752533 v 3.17614 c 0,1.28373 0.652933,2.13586 1.969867,2.13586 0.7304,0 1.482933,-0.42053 1.770666,-1.01813 h 0.02213 c 0,0.22133 0.02213,0.60867 0.04427,0.88533 z"
       style="font-style:normal;font-variant:normal;font-weight:normal;font-stretch:normal;font-size:11.0666666px;font-family:'Avenir Next LT Pro';-inkscape-font-specification:'Avenir Next LT Pro, Normal';font-variant-ligatures:normal;font-variant-caps:normal;font-variant-numeric:normal;font-feature-settings:normal;text-align:start;writing-mode:lr-tb;text-anchor:start;fill:#ac1416;fill-opacity:1"
       id="path950" /><path
       d="m 81.817733,262.24091 v 4.03933 h 0.752534 v -2.656 c 0,-1.38333 0.719333,-1.9588 1.516133,-1.9588 0.1992,0 0.442667,0.0332 0.5312,0.0664 l 0.0996,-0.70826 c -0.154933,-0.0443 -0.309867,-0.0553 -0.498,-0.0553 -0.7304,0 -1.372267,0.42054 -1.66,1.01814 h -0.02213 c 0,-0.22134 -0.02213,-0.60867 -0.04427,-0.88534 h -0.719333 c 0.0332,0.35414 0.04427,0.8632 0.04427,1.13987 z"
       style="font-style:normal;font-variant:normal;font-weight:normal;font-stretch:normal;font-size:11.0666666px;font-family:'Avenir Next LT Pro';-inkscape-font-specification:'Avenir Next LT Pro, Normal';font-variant-ligatures:normal;font-variant-caps:normal;font-variant-numeric:normal;font-feature-settings:normal;text-align:start;writing-mode:lr-tb;text-anchor:start;fill:#ac1416;fill-opacity:1"
       id="path952" /><path
       d="m 89.358281,265.40598 c 0.442667,0.65293 1.217334,1.00706 1.9588,1.00706 1.615733,0 2.678133,-1.1952 2.678133,-2.7224 0,-1.5272 -1.0624,-2.7224 -2.678133,-2.7224 -0.741466,0 -1.516133,0.35414 -1.9588,1.0292 h -0.02213 v -4.0836 h -0.752533 v 8.3664 h 0.752533 v -0.87426 z m 3.840133,-1.71534 c 0,1.15094 -0.708266,2.08054 -1.9588,2.08054 -1.161999,0 -1.991999,-0.8964 -1.991999,-2.08054 0,-1.18413 0.83,-2.0916 1.991999,-2.0916 1.250534,0 1.9588,0.94067 1.9588,2.0916 z"
       style="font-style:normal;font-variant:normal;font-weight:normal;font-stretch:normal;font-size:11.0666666px;font-family:'Avenir Next LT Pro';-inkscape-font-specification:'Avenir Next LT Pro, Normal';font-variant-ligatures:normal;font-variant-caps:normal;font-variant-numeric:normal;font-feature-settings:normal;text-align:start;writing-mode:lr-tb;text-anchor:start;fill:#ac1416;fill-opacity:1"
       id="path954" /><path
       d="m 95.607837,262.24091 v 4.03933 h 0.752534 v -2.656 c 0,-1.38333 0.719333,-1.9588 1.516133,-1.9588 0.1992,0 0.442667,0.0332 0.5312,0.0664 l 0.0996,-0.70826 c -0.154933,-0.0443 -0.309867,-0.0553 -0.498,-0.0553 -0.7304,0 -1.372267,0.42054 -1.66,1.01814 h -0.02213 c 0,-0.22134 -0.02213,-0.60867 -0.04427,-0.88534 h -0.719333 c 0.0332,0.35414 0.04427,0.8632 0.04427,1.13987 z"
       style="font-style:normal;font-variant:normal;font-weight:normal;font-stretch:normal;font-size:11.0666666px;font-family:'Avenir Next LT Pro';-inkscape-font-specification:'Avenir Next LT Pro, Normal';font-variant-ligatures:normal;font-variant-caps:normal;font-variant-numeric:normal;font-feature-settings:normal;text-align:start;writing-mode:lr-tb;text-anchor:start;fill:#ac1416;fill-opacity:1"
       id="path956" /><path
       d="m 102.7199,263.10411 c -1.8924,0 -3.651999,0.14387 -3.651999,1.73747 0,1.15093 1.007069,1.57146 1.792799,1.57146 0.83,0 1.40547,-0.28773 1.88133,-0.97386 h 0.0221 c 0,0.27666 0.0332,0.58653 0.0775,0.84106 h 0.67507 c -0.0553,-0.28773 -0.0885,-0.7636 -0.0885,-1.162 v -2.26866 c 0,-1.2616 -0.8964,-1.88134 -2.01414,-1.88134 -0.88533,0 -1.615729,0.32094 -2.036262,0.74147 l 0.420533,0.498 c 0.365199,-0.3652 0.929599,-0.60867 1.538269,-0.60867 0.8964,0 1.38333,0.44267 1.38333,1.33907 z m 0,0.58653 v 0.38734 c 0,0.91853 -0.5976,1.71533 -1.66,1.71533 -0.58653,0 -1.217332,-0.24347 -1.217332,-0.98493 0,-0.98494 1.427602,-1.11774 2.656002,-1.11774 z"
       style="font-style:normal;font-variant:normal;font-weight:normal;font-stretch:normal;font-size:11.0666666px;font-family:'Avenir Next LT Pro';-inkscape-font-specification:'Avenir Next LT Pro, Normal';font-variant-ligatures:normal;font-variant-caps:normal;font-variant-numeric:normal;font-feature-settings:normal;text-align:start;writing-mode:lr-tb;text-anchor:start;fill:#ac1416;fill-opacity:1"
       id="path958" /><path
       d="m 106.11961,261.10104 h -0.75253 v 5.1792 h 0.75253 z m 0.15494,-1.992 c 0,-0.30986 -0.2656,-0.5312 -0.5312,-0.5312 -0.2656,0 -0.5312,0.22134 -0.5312,0.5312 0,0.30987 0.2656,0.5312 0.5312,0.5312 0.2656,0 0.5312,-0.22133 0.5312,-0.5312 z"
       style="font-style:normal;font-variant:normal;font-weight:normal;font-stretch:normal;font-size:11.0666666px;font-family:'Avenir Next LT Pro';-inkscape-font-specification:'Avenir Next LT Pro, Normal';font-variant-ligatures:normal;font-variant-caps:normal;font-variant-numeric:normal;font-feature-settings:normal;text-align:start;writing-mode:lr-tb;text-anchor:start;fill:#ac1416;fill-opacity:1"
       id="path960" /><path
       d="m 108.07841,261.10104 c 0.0332,0.35414 0.0443,0.8632 0.0443,1.13987 v 4.03933 h 0.75253 v -2.656 c 0,-1.38333 0.77467,-2.0252 1.57147,-2.0252 1.08453,0 1.40546,0.7304 1.40546,1.81494 v 2.86626 h 0.75254 v -3.17613 c 0,-1.28373 -0.65294,-2.13587 -1.96987,-2.13587 -0.7304,0 -1.48293,0.42054 -1.77067,1.01814 h -0.0221 c 0,-0.22134 -0.0221,-0.60867 -0.0443,-0.88534 z"
       style="font-style:normal;font-variant:normal;font-weight:normal;font-stretch:normal;font-size:11.0666666px;font-family:'Avenir Next LT Pro';-inkscape-font-specification:'Avenir Next LT Pro, Normal';font-variant-ligatures:normal;font-variant-caps:normal;font-variant-numeric:normal;font-feature-settings:normal;text-align:start;writing-mode:lr-tb;text-anchor:start;fill:#ac1416;fill-opacity:1"
       id="path962" /><path
       d="m 115.57141,265.22891 h -0.78573 l -0.74147,2.60067 h 0.6308 z"
       style="font-style:normal;font-variant:normal;font-weight:normal;font-stretch:normal;font-size:11.0666666px;font-family:'Avenir Next LT Pro';-inkscape-font-specification:'Avenir Next LT Pro, Normal';font-variant-ligatures:normal;font-variant-caps:normal;font-variant-numeric:normal;font-feature-settings:normal;text-align:start;writing-mode:lr-tb;text-anchor:start;fill:#ac1416;fill-opacity:1"
       id="path964" /></g><g
     aria-label="not the gear."
     style="font-style:normal;font-weight:normal;font-size:40px;line-height:1.25;font-family:sans-serif;letter-spacing:0px;word-spacing:0px;fill:#000000;fill-opacity:1;stroke:none"
     id="text879-7"><path
       d="m 30.742459,278.0126 c 0.0332,0.35414 0.04427,0.8632 0.04427,1.13987 v 4.03933 h 0.752533 v -2.656 c 0,-1.38333 0.774667,-2.0252 1.571467,-2.0252 1.084533,0 1.405466,0.7304 1.405466,1.81494 v 2.86626 h 0.752534 v -3.17613 c 0,-1.28373 -0.652934,-2.13587 -1.969867,-2.13587 -0.7304,0 -1.482933,0.42054 -1.770667,1.01814 h -0.02213 c 0,-0.22134 -0.02213,-0.60867 -0.04427,-0.88534 z"
       style="font-style:normal;font-variant:normal;font-weight:normal;font-stretch:normal;font-size:11.0666666px;font-family:'Avenir Next LT Pro';-inkscape-font-specification:'Avenir Next LT Pro, Normal';font-variant-ligatures:normal;font-variant-caps:normal;font-variant-numeric:normal;font-feature-settings:normal;text-align:start;writing-mode:lr-tb;text-anchor:start;fill:#ac1416;fill-opacity:1"
       id="path913" /><path
       d="m 42.352257,280.6022 c 0,-1.5604 -1.150933,-2.7224 -2.766667,-2.7224 -1.604666,0 -2.7556,1.162 -2.7556,2.7224 0,1.5604 1.150934,2.7224 2.7556,2.7224 1.615734,0 2.766667,-1.162 2.766667,-2.7224 z m -0.7968,0 c 0,1.162 -0.7636,2.08054 -1.969867,2.08054 -1.1952,0 -1.9588,-0.91854 -1.9588,-2.08054 0,-1.162 0.7636,-2.0916 1.9588,-2.0916 1.206267,0 1.969867,0.9296 1.969867,2.0916 z"
       style="font-style:normal;font-variant:normal;font-weight:normal;font-stretch:normal;font-size:11.0666666px;font-family:'Avenir Next LT Pro';-inkscape-font-specification:'Avenir Next LT Pro, Normal';font-variant-ligatures:normal;font-variant-caps:normal;font-variant-numeric:normal;font-feature-settings:normal;text-align:start;writing-mode:lr-tb;text-anchor:start;fill:#ac1416;fill-opacity:1"
       id="path915" /><path
       d="m 46.306689,278.0126 h -1.4608 v -1.4608 h -0.752533 v 1.4608 h -1.073467 v 0.6308 h 1.073467 v 3.23147 c 0,1.13987 0.774666,1.38333 1.327999,1.38333 0.343067,0 0.619734,-0.0553 0.885334,-0.15493 l -0.0332,-0.65293 c -0.1992,0.0996 -0.442667,0.166 -0.652934,0.166 -0.453733,0 -0.774666,-0.17707 -0.774666,-0.95174 v -3.0212 h 1.4608 z"
       style="font-style:normal;font-variant:normal;font-weight:normal;font-stretch:normal;font-size:11.0666666px;font-family:'Avenir Next LT Pro';-inkscape-font-specification:'Avenir Next LT Pro, Normal';font-variant-ligatures:normal;font-variant-caps:normal;font-variant-numeric:normal;font-feature-settings:normal;text-align:start;writing-mode:lr-tb;text-anchor:start;fill:#ac1416;fill-opacity:1"
       id="path917" /><path
       d="m 52.574917,278.0126 h -1.4608 v -1.4608 h -0.752533 v 1.4608 h -1.073467 v 0.6308 h 1.073467 v 3.23147 c 0,1.13987 0.774667,1.38333 1.328,1.38333 0.343067,0 0.619733,-0.0553 0.885333,-0.15493 l -0.0332,-0.65293 c -0.1992,0.0996 -0.442666,0.166 -0.652933,0.166 -0.453733,0 -0.774667,-0.17707 -0.774667,-0.95174 v -3.0212 h 1.4608 z"
       style="font-style:normal;font-variant:normal;font-weight:normal;font-stretch:normal;font-size:11.0666666px;font-family:'Avenir Next LT Pro';-inkscape-font-specification:'Avenir Next LT Pro, Normal';font-variant-ligatures:normal;font-variant-caps:normal;font-variant-numeric:normal;font-feature-settings:normal;text-align:start;writing-mode:lr-tb;text-anchor:start;fill:#ac1416;fill-opacity:1"
       id="path919" /><path
       d="m 54.516079,278.86474 v -4.03934 h -0.752533 v 8.3664 h 0.752533 v -2.656 c 0,-1.38333 0.774667,-2.0252 1.571467,-2.0252 1.084533,0 1.405467,0.7304 1.405467,1.81494 v 2.86626 h 0.752533 v -3.17613 c 0,-1.28373 -0.652933,-2.13587 -1.969867,-2.13587 -0.7304,0 -1.4608,0.38734 -1.737466,0.98494 z"
       style="font-style:normal;font-variant:normal;font-weight:normal;font-stretch:normal;font-size:11.0666666px;font-family:'Avenir Next LT Pro';-inkscape-font-specification:'Avenir Next LT Pro, Normal';font-variant-ligatures:normal;font-variant-caps:normal;font-variant-numeric:normal;font-feature-settings:normal;text-align:start;writing-mode:lr-tb;text-anchor:start;fill:#ac1416;fill-opacity:1"
       id="path921" /><path
       d="m 60.624707,280.2038 c 0.0664,-0.88533 0.807867,-1.6932 1.814933,-1.6932 1.073467,0 1.671067,0.71934 1.715334,1.6932 z m 4.293867,0.24347 c 0,-1.41653 -0.852134,-2.56747 -2.478934,-2.56747 -1.471866,0 -2.611733,1.162 -2.611733,2.7224 0,1.5604 1.139867,2.7224 2.678133,2.7224 0.852134,0 1.615734,-0.32093 2.2244,-1.0956 l -0.5644,-0.44266 c -0.287733,0.4648 -0.885333,0.8964 -1.66,0.8964 -1.0624,0 -1.870266,-0.84107 -1.8924,-1.88134 h 4.293867 c 0.01107,-0.1328 0.01107,-0.25453 0.01107,-0.35413 z"
       style="font-style:normal;font-variant:normal;font-weight:normal;font-stretch:normal;font-size:11.0666666px;font-family:'Avenir Next LT Pro';-inkscape-font-specification:'Avenir Next LT Pro, Normal';font-variant-ligatures:normal;font-variant-caps:normal;font-variant-numeric:normal;font-feature-settings:normal;text-align:start;writing-mode:lr-tb;text-anchor:start;fill:#ac1416;fill-opacity:1"
       id="path923" /><path
       d="m 69.038315,284.80754 c 0.608666,0.64186 1.538266,1.04026 2.49,1.04026 2.2908,0 2.810933,-1.57146 2.810933,-2.70026 v -5.13494 h -0.752533 v 0.8964 h -0.02213 c -0.409466,-0.664 -1.206266,-1.0292 -1.9588,-1.0292 -1.615733,0 -2.678133,1.20627 -2.678133,2.67814 0,1.51613 1.0624,2.63386 2.678133,2.63386 0.752534,0 1.5604,-0.37626 1.9588,-1.01813 h 0.02213 v 0.97387 c 0,1.11773 -0.542267,2.03626 -2.0252,2.03626 -0.785734,0 -1.571467,-0.42053 -1.980934,-0.95173 z m 0.686133,-4.27174 c 0,-1.08453 0.708267,-2.0252 1.9588,-2.0252 1.162,0 1.992,0.94067 1.992,2.0252 0,1.1952 -0.83,2.01414 -1.992,2.01414 -1.250533,0 -1.9588,-0.9296 -1.9588,-2.01414 z"
       style="font-style:normal;font-variant:normal;font-weight:normal;font-stretch:normal;font-size:11.0666666px;font-family:'Avenir Next LT Pro';-inkscape-font-specification:'Avenir Next LT Pro, Normal';font-variant-ligatures:normal;font-variant-caps:normal;font-variant-numeric:normal;font-feature-settings:normal;text-align:start;writing-mode:lr-tb;text-anchor:start;fill:#ac1416;fill-opacity:1"
       id="path925" /><path
       d="m 76.727572,280.2038 c 0.0664,-0.88533 0.807867,-1.6932 1.814934,-1.6932 1.073466,0 1.671066,0.71934 1.715333,1.6932 z m 4.293867,0.24347 c 0,-1.41653 -0.852133,-2.56747 -2.478933,-2.56747 -1.471867,0 -2.611734,1.162 -2.611734,2.7224 0,1.5604 1.139867,2.7224 2.678134,2.7224 0.852133,0 1.615733,-0.32093 2.2244,-1.0956 l -0.5644,-0.44266 c -0.287734,0.4648 -0.885334,0.8964 -1.66,0.8964 -1.0624,0 -1.870267,-0.84107 -1.8924,-1.88134 h 4.293866 c 0.01107,-0.1328 0.01107,-0.25453 0.01107,-0.35413 z"
       style="font-style:normal;font-variant:normal;font-weight:normal;font-stretch:normal;font-size:11.0666666px;font-family:'Avenir Next LT Pro';-inkscape-font-specification:'Avenir Next LT Pro, Normal';font-variant-ligatures:normal;font-variant-caps:normal;font-variant-numeric:normal;font-feature-settings:normal;text-align:start;writing-mode:lr-tb;text-anchor:start;fill:#ac1416;fill-opacity:1"
       id="path927" /><path
       d="m 85.839936,280.01567 c -1.8924,0 -3.652,0.14387 -3.652,1.73747 0,1.15093 1.007067,1.57146 1.7928,1.57146 0.83,0 1.405467,-0.28773 1.881333,-0.97386 h 0.02213 c 0,0.27666 0.0332,0.58653 0.07747,0.84106 h 0.675067 c -0.05533,-0.28773 -0.08853,-0.7636 -0.08853,-1.162 v -2.26866 c 0,-1.2616 -0.8964,-1.88134 -2.014134,-1.88134 -0.885333,0 -1.615733,0.32094 -2.036266,0.74147 l 0.420533,0.498 c 0.3652,-0.3652 0.9296,-0.60867 1.538267,-0.60867 0.8964,0 1.383333,0.44267 1.383333,1.33907 z m 0,0.58653 v 0.38734 c 0,0.91853 -0.5976,1.71533 -1.66,1.71533 -0.586533,0 -1.217333,-0.24347 -1.217333,-0.98493 0,-0.98494 1.4276,-1.11774 2.656,-1.11774 z"
       style="font-style:normal;font-variant:normal;font-weight:normal;font-stretch:normal;font-size:11.0666666px;font-family:'Avenir Next LT Pro';-inkscape-font-specification:'Avenir Next LT Pro, Normal';font-variant-ligatures:normal;font-variant-caps:normal;font-variant-numeric:normal;font-feature-settings:normal;text-align:start;writing-mode:lr-tb;text-anchor:start;fill:#ac1416;fill-opacity:1"
       id="path929" /><path
       d="m 88.476049,279.15247 v 4.03933 h 0.752533 v -2.656 c 0,-1.38333 0.719334,-1.9588 1.516134,-1.9588 0.1992,0 0.442666,0.0332 0.5312,0.0664 l 0.0996,-0.70826 c -0.154934,-0.0443 -0.309867,-0.0553 -0.498,-0.0553 -0.7304,0 -1.372267,0.42054 -1.66,1.01814 h -0.02213 c 0,-0.22134 -0.02213,-0.60867 -0.04427,-0.88534 h -0.719334 c 0.0332,0.35414 0.04427,0.8632 0.04427,1.13987 z"
       style="font-style:normal;font-variant:normal;font-weight:normal;font-stretch:normal;font-size:11.0666666px;font-family:'Avenir Next LT Pro';-inkscape-font-specification:'Avenir Next LT Pro, Normal';font-variant-ligatures:normal;font-variant-caps:normal;font-variant-numeric:normal;font-feature-settings:normal;text-align:start;writing-mode:lr-tb;text-anchor:start;fill:#ac1416;fill-opacity:1"
       id="path931" /><path
       d="m 92.953034,282.6606 c 0,-0.30986 -0.243467,-0.5976 -0.5976,-0.5976 -0.354134,0 -0.5976,0.28774 -0.5976,0.5976 0,0.30987 0.243466,0.5976 0.5976,0.5976 0.354133,0 0.5976,-0.28773 0.5976,-0.5976 z"
       style="font-style:normal;font-variant:normal;font-weight:normal;font-stretch:normal;font-size:11.0666666px;font-family:'Avenir Next LT Pro';-inkscape-font-specification:'Avenir Next LT Pro, Normal';font-variant-ligatures:normal;font-variant-caps:normal;font-variant-numeric:normal;font-feature-settings:normal;text-align:start;writing-mode:lr-tb;text-anchor:start;fill:#ac1416;fill-opacity:1"
       id="path933" /></g></svg>