<svg xmlns="http://www.w3.org/2000/svg" width="25.78" height="25.78" viewBox="0 0 25.78 25.78">
  <title>XFXFilterSmallKnob</title>
  <g id="Layer_2" data-name="Layer 2">
    <g id="svg8">
      <g>
        <circle id="path2985" cx="12.89" cy="12.89" r="12.89" style="fill: #bcbec0"/>
        <path id="path3832" d="M12.89,23.31c-3.77,0-1.62,1.88-5,.24s-.59-1.13-2.94-4.08-2.48-.1-3.32-3.78S2.12,14.54,3,10.86s-1.47-2,.88-5,1.23-.32,4.63-2,.65-2.4,4.42-2.4,1,.76,4.42,2.4,2.28-1,4.63,2,0,1.27.88,5S25,12,24.17,15.7s-1,.83-3.32,3.78.46,2.44-2.94,4.08-1.25-.24-5-.24Z" style="fill: #262626"/>
        <ellipse id="path2985-1" cx="12.89" cy="12.89" rx="7.58" ry="7.62" style="fill: #f4f4e6"/>
        <circle id="path3381" cx="12.89" cy="0.75" r="0.52" style="fill: red"/>
        <line x1="12.89" y1="10.87" x2="12.89" y2="5.27" style="fill: none;stroke: #b300c1;stroke-width: 2px"/>
        <line x1="12.89" y1="1.55" x2="12.89" style="fill: none;stroke: #b300c1;stroke-width: 2px"/>
      </g>
    </g>
  </g>
</svg>
