<svg xmlns="http://www.w3.org/2000/svg" width="39.74" height="39.74" viewBox="0 0 39.74 39.74">
  <title>XFXFilterMediumKnob</title>
  <g id="Layer_2" data-name="Layer 2">
    <g id="svg8">
      <g>
        <circle id="path2985" cx="19.87" cy="19.87" r="19.87" style="fill: #bcbec0"/>
        <path id="path3832" d="M19.87,35.95c-5.81,0-2.5,2.9-7.74.37S11.22,34.58,7.59,30s-3.83-.15-5.12-5.82.79-1.8,2.09-7.47S2.29,13.66,5.92,9.11s1.9-.5,7.14-3,1-3.7,6.81-3.7,1.58,1.17,6.81,3.7,3.51-1.52,7.14,3,.06,2,1.36,7.63,3.38,1.8,2.09,7.47-1.5,1.27-5.12,5.82.7,3.76-4.54,6.29-1.93-.37-7.74-.37Z" style="fill: #262626"/>
        <ellipse id="path2985-1" cx="19.87" cy="19.87" rx="11.68" ry="11.74" style="fill: #f4f4e6"/>
        <circle id="path3381" cx="19.87" cy="1.15" r="0.79" style="fill: red"/>
        <line x1="19.87" y1="16.59" x2="19.87" y2="8.13" style="fill: none;stroke: #b300c1;stroke-width: 2.6px"/>
        <line x1="19.87" y1="2.39" x2="19.87" style="fill: none;stroke: #b300c1;stroke-width: 2.6px"/>
      </g>
    </g>
  </g>
</svg>
