<svg xmlns="http://www.w3.org/2000/svg" width="210" height="380" viewBox="0 0 210 380">
  <title>XFXFilterPanel</title>
  <g id="Layer_2" data-name="Layer 2">
    <g id="svg8">
      <rect width="210" height="380" style="fill: #202020"/>
      <line x1="105" y1="111.4" x2="105" y2="170.96" style="fill: none;stroke: #f4f4e6;stroke-miterlimit: 10"/>
      <g>
        <g>
          <path d="M63.45,350.44a2,2,0,0,0-.31-.09l.31.11Z" style="fill: #f22020"/>
          <path d="M63.33,350.44l.32.12-.14-.07a2.93,2.93,0,0,1,.4.13A2.74,2.74,0,0,1,63.33,350.44Z" style="fill: #f22020"/>
          <path d="M63.6,350.61l.25.11A.89.89,0,0,0,63.6,350.61Z" style="fill: #f22020"/>
          <path d="M62.27,350.66s.05.05.1.11A.29.29,0,0,0,62.27,350.66Z" style="fill: #f22020"/>
          <path d="M64.42,352.65c-.09-.14,0-.11,0-.15l.19.19c0-.11-.13-.17-.22-.31.13.11.12-.09.13-.11a.86.86,0,0,1,.17.19c0-.11-.23-.29-.18-.33l0,.05a.7.7,0,0,1-.09-.42.47.47,0,0,0,0-.35l-.13-.05c0-.18,0-.35-.56-.65,0,0-.07,0-.12.05s-.05.05.15.17c-.19-.07.05.11-.2,0-.07,0,0,.07.09.15s.15.19.14.23-.15-.11-.27-.17V351h-.24c-.11-.09,0-.05-.21-.19.13.11.12.13.13.15s0,.07.14.2,0,0,.05-.05l.24.13c.14.13.14.21.13.27s-.05.07-.05.14,0,.05-.14,0l-.14-.15c.05.11.33.35.27.33l-.31-.33c.32.36-.11,0,.09.2a.71.71,0,0,1-.19-.24c-.07,0,.12.15.09.15l-.24-.31c.24.3-.07,0-.15-.13.06.07.27.3.23.3s-.11-.11-.14-.14.17.21.15.23a2.84,2.84,0,0,1-.2-.26l-.07,0c.05.11.13.13.2.27a4.65,4.65,0,0,1-.47-.56,3.42,3.42,0,0,1-.19-.3l0,.11a2.34,2.34,0,0,1-.27-.32c-.12-.11,0,.07,0,.18l.13.13c0,.09-.09-.07-.14-.15a4.9,4.9,0,0,0,.33.47,2.32,2.32,0,0,1-.3-.3l.15.21c-.14-.15.11.15,0,.05s-.07-.13-.12-.19c0,.09-.14-.17-.11-.09l-.2-.19s0,.11-.12-.11c.17.26.07.2.14.35l-.13-.19c.14.23-.05,0,.13.3l-.05-.09.15.27-.17-.21c.05.09,0,.11-.09,0,.17.26.2.33.2.4-.21-.09-.15.24-.05.6a2.36,2.36,0,0,0,.24.44c.07,0,0-.09,0-.11s.25.31.4.45l-.15-.2c-.11-.19.11.11,0-.13l.24.33c-.13-.17,0-.05.07,0l-.17-.26a3.12,3.12,0,0,1,.31.38l-.15-.21c.12.13,0-.07.28.32,0-.05-.12-.15-.09-.13l.15.21c0-.07,0-.13.05,0a1,1,0,0,1,.15.26c.09,0-.5-.73-.45-.73l.11.13-.11-.15.13.15c-.32-.48.11,0-.05-.29,0-.05.2.23.2.17l-.14-.2a7.79,7.79,0,0,1,.73.81c-.12-.17,0,0-.15-.21s.12.09.23.2c-.05-.13-.09-.07-.18-.24.14.13-.17-.29,0-.17s.05.11.12.17c-.13-.24,0-.13,0-.23a3.77,3.77,0,0,0,.53.2l-.07-.09c.18.15.09-.05.2,0Z" style="fill: #b300c1"/>
          <path d="M62.89,350.66l-.18-.12.06,0a.11.11,0,0,0,.05.05C63,350.66,62.85,350.61,62.89,350.66Z" style="fill: #f22020"/>
          <polygon points="63.44 350.97 63.38 350.92 63.38 350.94 63.44 350.97" style="fill: #f22020"/>
          <path d="M63,351h0a.15.15,0,0,1,0-.11l-.05-.09a.28.28,0,0,0,0,.09A.13.13,0,0,0,63,351Z" style="fill: #f22020"/>
          <path d="M62.12,350.52c-.07-.11,0-.07-.09-.13l.07.11Z" style="fill: #f22020"/>
          <path d="M61.4,349.91c.23.33,0,0,.21.3Z" style="fill: #f22020"/>
          <path d="M61.71,350.44a.21.21,0,0,0-.05-.11C61.58,350.28,61.71,350.39,61.71,350.44Z" style="fill: #f22020"/>
          <path d="M57.94,351.65c-.23-.07-.48-.13-.73-.2a6.43,6.43,0,0,0-3.49,12.38l.21.05a6.3,6.3,0,0,0,3,.08,5.81,5.81,0,0,0,4.54-3.77c.92-2.69.61-5.24-1.58-7.25a1.24,1.24,0,0,1-.14-1.72c.36-.55.86,0,1.24.38a1.37,1.37,0,0,0,1.71.27,6.09,6.09,0,0,1-1.52-.58C59.87,350.44,59,350.49,57.94,351.65Z" style="fill: #b300c1"/>
        </g>
        <path d="M113.68,355.9a3.52,3.52,0,0,0-5.19-2.87,1.29,1.29,0,0,1-1,.09,3.51,3.51,0,0,0-4.82,1.17h0a3.47,3.47,0,0,0-.5,2.06v7.8h2.65v-7.59c0-.65.12-1.22.9-1.22s.91.58.91,1.22v7.62h2.65v-7.54c0-.67.07-1.33.91-1.31s.9.68.9,1.34v7.45h2.65v-7.29C113.7,356.47,113.71,356.22,113.68,355.9Z" style="fill: #f4f4e6"/>
        <path d="M97.49,352.62h-7a6.67,6.67,0,0,0-.73.07v2.61h7.52c1,0,1.31.3,1.33,1.31v3.65a1.08,1.08,0,0,1-.89,1.24,1.09,1.09,0,0,1-.34,0H93.6c-.66,0-1.21-.17-1.21-.92s.61-.87,1.24-.87h3v-2.66H93.31a3.51,3.51,0,0,0-3.55,3.47h0v.07a3.56,3.56,0,0,0,3.58,3.54h4.33a3.53,3.53,0,0,0,3.6-3.45v0h0v-4.37a3.58,3.58,0,0,0-3.5-3.65h-.23Z" style="fill: #f4f4e6"/>
        <path d="M145.28,355.3h7.29v-2.65c-2.78,0-5.46,0-8.17,0a3.3,3.3,0,0,0-3.18,3c-.12,2.8,0,5.67,0,8.48h2.63v-4.37h8.75v-2.65h-8.72C143.67,355.58,143.92,355.3,145.28,355.3Z" style="fill: #f4f4e6"/>
        <path d="M157.35,361.57c-.59,0-1.17-.11-1.22-.81-.07-1,0-2,0-3.14h4.31V355h-4.34v-2.34h-2.66v8.22a3.15,3.15,0,0,0,2.66,3.24c2.19.2,4.33,0,6.48,0v-2.55Z" style="fill: #f4f4e6"/>
        <path d="M77,354.21c-2.19-.13-4.33,0-6.48,0v2.43h4.37c1.36,0,1.72.35,1.74,1.69v1.54c0,1.62-.23,1.83-1.83,1.83H70.5v2.43c2,0,4,.07,5.91,0a2.74,2.74,0,0,0,2.83-2.48v-4.33C79.24,355.88,78.16,354.28,77,354.21Z" style="fill: #f4f4e6"/>
        <path d="M85.51,361.49c-2.66,0-2.6.09-2.58-2.57v-6.3H80.35c0,2.84-.09,5.67,0,8.45a3.42,3.42,0,0,0,3.4,3.07h5.74v-2.66Z" style="fill: #f4f4e6"/>
        <path d="M66.43,349.63V361a2.83,2.83,0,0,0,2.75,2.92h.23V349.69h-.81C67.94,349.63,67.23,349.63,66.43,349.63Z" style="fill: #f4f4e6"/>
        <path d="M125.13,357.32c-2.1-.13-4.21,0-6.35,0v2.43h4.48c1.13,0,1.46.32,1.46,1.46v2.88a3.25,3.25,0,0,0,3-3.18C127.87,359.13,126.73,357.42,125.13,357.32Z" style="fill: #f4f4e6"/>
        <path d="M114.73,364.09h8.91v-2.72h-8.91Z" style="fill: #f4f4e6"/>
        <path d="M127.18,352.87h-8.39v2.74h8.38Z" style="fill: #f4f4e6"/>
        <path d="M117.71,359.63v-6.77a3.35,3.35,0,0,0-3,3.65A3.17,3.17,0,0,0,117.71,359.63Z" style="fill: #f4f4e6"/>
        <path d="M136.7,352.64c-1.56,0-3.14-.05-4.72,0A3.46,3.46,0,0,0,128.6,356v4.72a3.47,3.47,0,0,0,3.4,3.39h4.72a3.53,3.53,0,0,0,3.39-3.39c.05-1.57.05-3.14,0-4.72A3.52,3.52,0,0,0,136.7,352.64Zm.73,7.76a1,1,0,0,1-.88,1.1h-4.3a.91.91,0,0,1-1-.81h0v-4.35a1,1,0,0,1,.81-1.06.68.68,0,0,1,.27,0h4.05a1,1,0,0,1,1.09.81.94.94,0,0,1,0,.23v4.05Z" style="fill: #f4f4e6"/>
      </g>
      <path d="M46.54,358H13.14a5,5,0,0,1-5-5V24a5,5,0,0,1,5-5H43.47" style="fill: none;stroke: #f4f4e6;stroke-miterlimit: 10"/>
      <path d="M167.72,19h29.42a5,5,0,0,1,5,5V353a5,5,0,0,1-5,5H163" style="fill: none;stroke: #f4f4e6;stroke-miterlimit: 10"/>
      <path d="M34.22,335.77h1.55v7H34.22Z" style="fill: #f4f4e6"/>
      <path d="M145.44,335.86H147v7h-1.55Z" style="fill: #f4f4e6"/>
      <g>
        <path d="M79.32,316.52h1.55v7H79.32Z" style="fill: #f4f4e6"/>
        <path d="M83.62,319.36v4.15H82.07v-7h1.45l2.58,4.15v-4.15h1.55v7H86.2Z" style="fill: #f4f4e6"/>
      </g>
      <g>
        <path d="M118.78,321.07c0,1.68-1.1,2.54-2.8,2.54s-2.78-.86-2.78-2.54V319c0-1.68,1.1-2.54,2.8-2.54s2.78.86,2.78,2.54ZM117.23,319a1.24,1.24,0,0,0-2.48,0v2.12a1.24,1.24,0,0,0,2.48,0Z" style="fill: #f4f4e6"/>
        <path d="M125.41,316.52v4.56c0,1.68-1.1,2.54-2.8,2.54s-2.78-.86-2.78-2.54v-4.56h1.55v4.56a1.24,1.24,0,0,0,2.48,0v-4.56Z" style="fill: #f4f4e6"/>
        <path d="M126,316.52h5.51v1.35h-2v5.65H128v-5.65h-2Z" style="fill: #f4f4e6"/>
      </g>
      <g>
        <path d="M34.08,62.1c0,1.68-1.1,2.54-2.8,2.54H28.5v-7h2.8c1.68,0,2.78.86,2.78,2.54Zm-1.55-1.92A1.1,1.1,0,0,0,31.3,59H30v4.3h1.23a1.11,1.11,0,0,0,1.25-1.19Z" style="fill: #f4f4e6"/>
        <path d="M35.18,57.65h3A2.11,2.11,0,0,1,40.56,60a2.07,2.07,0,0,1-1.21,2.14l1.31,2.53h-1.8l-1.14-2.33h-1v2.33H35.18ZM36.73,61h1.38c.52,0,.85-.24.85-1s-.34-1-.85-1H36.73Z" style="fill: #f4f4e6"/>
        <path d="M41.56,57.65h1.55v7H41.56Z" style="fill: #f4f4e6"/>
        <path d="M43.71,57.65h1.68L47,62.72l1.59-5.07h1.53l-2.29,7H46Z" style="fill: #f4f4e6"/>
        <path d="M50.69,57.65h4.88V59H52.24v1.47h2.83v1.35H52.24v1.48h3.33v1.35H50.69Z" style="fill: #f4f4e6"/>
      </g>
      <g>
        <path d="M60.56,335.77h1.55v7H60.56Z" style="fill: #f4f4e6"/>
        <path d="M63.31,335.77h1.55v7H63.31Z" style="fill: #f4f4e6"/>
      </g>
      <g>
        <path d="M172.29,335.77h1.55v7h-1.55Z" style="fill: #f4f4e6"/>
        <path d="M175,335.77h1.55v7H175Z" style="fill: #f4f4e6"/>
      </g>
      <g>
        <path d="M93.54,52.67h4.68V54H95.09v1.77h2.63v1.35H95.09v2.53H93.54Z" style="fill: #f4f4e6"/>
        <path d="M98.82,52.67h3A2.11,2.11,0,0,1,104.2,55,2.07,2.07,0,0,1,103,57.14l1.31,2.53h-1.8l-1.14-2.33h-1v2.33H98.82ZM100.37,56h1.38c.52,0,.85-.24.85-1s-.34-1-.85-1h-1.38Z" style="fill: #f4f4e6"/>
        <path d="M105.2,52.67h4.88V54h-3.33v1.47h2.83v1.35h-2.83v1.48h3.33v1.35H105.2Z" style="fill: #f4f4e6"/>
        <path d="M113.76,59.77c-1.68,0-2.78-.86-2.78-2.54V55.11c0-1.68,1.1-2.54,2.8-2.54s2.78.86,2.78,2.54v2.12a2.32,2.32,0,0,1-1.08,2.13l1.28,1.21-1.1,1.1ZM115,55.11a1.24,1.24,0,0,0-2.48,0v2.12a1.24,1.24,0,0,0,2.48,0Z" style="fill: #f4f4e6"/>
      </g>
      <g>
        <g>
          <path d="M165.15,19.63l-.06-.06-6.45-6.45,0,0h-3.69l.13.13,6.41,6.41-6.92,6.92-.13.13h3.69l0,0,5.81-5.81.06-.06h0l1.11-1.11Zm-10-6.42,0,0h1.42Zm-.5,13.41h0l2.82-2.82Zm6.9-7h0Z" style="fill: #b300c1"/>
          <path d="M155.49,20.64h0l.9-.9,0,0,0,0-5.26-5.26,0,0h-3l.11.11,5.23,5.23-5.64,5.64-.11.11h3l0,0,4.74-4.74Zm-7.22-6.2,0,0h1.17Zm-.4,10.94h0l2.4-2.4Z" style="fill: #b300c1"/>
          <path d="M148.23,19.74l0,0,0,0-4.76-4.76,0,0h-2.72l.1.1,4.72,4.72-5.1,5.1-.1.1h2.72l0,0,4.28-4.28,0,0h0ZM140.9,15l0,0h1Zm-.37,9.89h0l2.1-2.1Zm5.09-5.16,0,0,0,0Z" style="fill: #b300c1"/>
        </g>
        <g>
          <path d="M50.14,19.76l6.92-6.92.13-.13H53.5l0,0-5.81,5.81-.06.06h0l-1.11,1.11-.06.06.06.06L53,26.28l0,0h3.69l-.13-.13Zm6.82-7h0l-2.85,2.85Z" style="fill: #b300c1"/>
          <path d="M58.18,19.71l5.64-5.64.11-.11h-3l0,0-4.74,4.74,0,0h0l-.9.9,0,0,0,0L60.49,25l0,0h3l-.11-.11ZM63.75,14h0l-2.34,2.34Z" style="fill: #b300c1"/>
          <path d="M66.06,19.69l5.1-5.1.1-.1H68.53l0,0-4.28,4.28,0,0h0l-.82.82,0,0,0,0,4.76,4.76,0,0h2.72l-.1-.1Zm5-5.14h0L69,16.68ZM66,19.71h0l0,0Z" style="fill: #b300c1"/>
        </g>
        <g>
          <g>
            <path d="M117.29,18l-3.63-3.63,0,0H100.68l0,12.74v0l0,0,3.63,3.63V18Zm-16.5-1.3h0Z" style="fill: #f4f4e6"/>
            <polygon points="126.85 10.69 130.43 7.1 95.73 7.1 92.17 10.69 126.85 10.69" style="fill: #f4f4e6"/>
          </g>
          <g>
            <polygon points="82.67 17.31 82.74 17.39 82.82 17.31 85.25 14.87 85.33 14.8 85.25 14.72 77.7 7.13 77.66 7.1 77.62 7.1 72.73 7.1 72.46 7.1 72.65 7.29 82.67 17.31" style="fill: #f4f4e6"/>
            <polygon points="94.05 14.3 93.79 14.3 88.93 14.3 88.89 14.3 88.85 14.33 71.34 31.85 71.15 32.04 71.42 32.04 76.25 32.04 76.3 32.04 76.33 32.01 93.86 14.49 94.05 14.3" style="fill: #f4f4e6"/>
            <polygon points="126.37 14.8 126.45 14.87 128.88 17.31 128.96 17.39 129.04 17.31 139.05 7.29 139.24 7.1 138.97 7.1 134.09 7.1 134.04 7.1 134.01 7.13 126.45 14.72 126.37 14.8" style="fill: #f4f4e6"/>
            <polygon points="91.05 20.52 90.97 20.44 90.89 20.52 88.47 22.94 88.39 23.02 88.47 23.1 97.23 31.82 97.27 31.85 97.31 31.85 102.09 31.85 102.36 31.85 102.17 31.66 91.05 20.52" style="fill: #f4f4e6"/>
            <polygon points="122.88 14.36 122.85 14.32 122.81 14.32 117.93 14.32 117.66 14.32 117.85 14.51 135.19 31.82 135.22 31.85 135.26 31.85 140.1 31.85 140.36 31.85 140.18 31.66 122.88 14.36" style="fill: #f4f4e6"/>
            <path d="M120.81,20.52l-.08-.08-.08.08L109.54,31.66l-.19.19h5.09l0,0,8.77-8.72.08-.08-.08-.08ZM123.13,23l0,0h0Z" style="fill: #f4f4e6"/>
          </g>
        </g>
        <g>
          <path d="M86.37,37.08v1.8h5.15v1.54H86.37v2.92H84.59v-7.8h7.89v1.54Z" style="fill: #b300c1"/>
          <path d="M96.46,40.7V39.25h5.11V40.7Z" style="fill: #b300c1"/>
          <path d="M110,42.15c1.16,0,2.26-.29,2.26-1.15s-1.07-1-2.43-1h-1.16V38.64h1.16c1.14,0,2.19-.25,2.19-1s-1.09-.95-2.07-.95a3.26,3.26,0,0,0-2.76,1.19l-1.29-.86a5,5,0,0,1,4.05-1.76c2,0,3.89.71,3.89,2.17a1.92,1.92,0,0,1-1.87,1.78c1,.16,2.17.7,2.17,1.91,0,1.55-1.82,2.41-4.1,2.41a5.31,5.31,0,0,1-4.31-1.85l1.42-.81A3.29,3.29,0,0,0,110,42.15Z" style="fill: #b300c1"/>
          <path d="M122.76,42.09c1.36,0,2.33-.31,2.33-1.21s-1-1.27-2.46-1.27a6.73,6.73,0,0,0-2.6.51l-1.31-.51.67-4.07h6.72V37h-5.37l-.32,2a5.69,5.69,0,0,1,2.86-.71c1.88,0,3.64.85,3.64,2.65,0,1.47-1.35,2.68-4.15,2.68a6.12,6.12,0,0,1-4.4-1.66l1.09-1A4.9,4.9,0,0,0,122.76,42.09Z" style="fill: #b300c1"/>
        </g>
      </g>
      <line x1="42.23" y1="111.4" x2="42.23" y2="170.96" style="fill: none;stroke: #f4f4e6;stroke-miterlimit: 10"/>
      <line x1="168.72" y1="111.4" x2="168.72" y2="170.96" style="fill: none;stroke: #f4f4e6;stroke-miterlimit: 10"/>
      <g>
        <path d="M159.05,57.65h3a2.11,2.11,0,0,1,2.4,2.33,2.07,2.07,0,0,1-1.21,2.14l1.31,2.53h-1.8l-1.14-2.33h-1v2.33h-1.55ZM160.6,61H162c.52,0,.85-.24.85-1s-.34-1-.85-1H160.6Z" style="fill: #f4f4e6"/>
        <path d="M165.43,57.65h4.88V59H167v1.47h2.83v1.35H167v1.48h3.33v1.35h-4.88Z" style="fill: #f4f4e6"/>
        <path d="M174.18,62l-1.15-.2a2,2,0,0,1-1.92-2c0-1.49,1-2.21,2.69-2.21s2.69.72,2.69,2.13v.17h-1.55v-.17c0-.52-.42-.78-1.14-.78s-1.09.21-1.09.75c0,.37.29.62.71.69l1.15.2c1.26.22,1.92.9,1.92,2,0,1.5-1,2.22-2.69,2.22s-2.69-.72-2.69-2.13v-.17h1.55v.17c0,.52.42.78,1.14.78s1.09-.2,1.09-.76C174.89,62.26,174.6,62,174.18,62Z" style="fill: #f4f4e6"/>
      </g>
      <g>
        <line x1="174.42" y1="210.92" x2="163.81" y2="210.92" style="fill: none;stroke: #414042;stroke-miterlimit: 10"/>
        <line x1="186.32" y1="210.92" x2="174.42" y2="210.92" style="fill: none;stroke: #414042;stroke-miterlimit: 10"/>
        <line x1="197.91" y1="232.33" x2="197.91" y2="226.01" style="fill: none;stroke: #414042;stroke-miterlimit: 10"/>
        <path d="M24.37,279.16l-5.76-2.4-.36-.19" style="fill: none;stroke: #414042;stroke-miterlimit: 10"/>
        <line x1="197.91" y1="258.92" x2="197.91" y2="252.23" style="fill: none;stroke: #414042;stroke-miterlimit: 10"/>
        <line x1="61.53" y1="294.67" x2="71.83" y2="298.97" style="fill: none;stroke: #414042;stroke-miterlimit: 10"/>
        <line x1="197.91" y1="245.32" x2="197.91" y2="238.79" style="fill: none;stroke: #414042;stroke-miterlimit: 10"/>
        <line x1="153.44" y1="210.92" x2="142.07" y2="210.92" style="fill: none;stroke: #414042;stroke-miterlimit: 10"/>
        <line x1="131.17" y1="210.92" x2="142.07" y2="210.92" style="fill: none;stroke: #414042;stroke-miterlimit: 10"/>
        <line x1="119.48" y1="210.92" x2="131.17" y2="210.92" style="fill: none;stroke: #414042;stroke-miterlimit: 10"/>
        <line x1="163.81" y1="210.92" x2="153.44" y2="210.92" style="fill: none;stroke: #414042;stroke-miterlimit: 10"/>
        <line x1="105.99" y1="210.92" x2="119.48" y2="210.92" style="fill: none;stroke: #414042;stroke-miterlimit: 10"/>
        <path d="M197.91,219.83v-4.59a3.4,3.4,0,0,0-.29-1.37" style="fill: none;stroke: #414042;stroke-miterlimit: 10"/>
        <line x1="12.5" y1="244.93" x2="12.5" y2="252.54" style="fill: none;stroke: #414042;stroke-miterlimit: 10"/>
        <line x1="12.5" y1="231.07" x2="12.5" y2="237.99" style="fill: none;stroke: #414042;stroke-miterlimit: 10"/>
        <line x1="12.5" y1="237.99" x2="12.5" y2="244.93" style="fill: none;stroke: #414042;stroke-miterlimit: 10"/>
        <path d="M18.25,276.56A12.76,12.76,0,0,1,13.71,273" style="fill: none;stroke: #414042;stroke-miterlimit: 10"/>
        <line x1="12.5" y1="217.28" x2="12.5" y2="224.16" style="fill: none;stroke: #414042;stroke-miterlimit: 10"/>
        <line x1="12.5" y1="252.54" x2="12.5" y2="259.54" style="fill: none;stroke: #414042;stroke-miterlimit: 10"/>
        <line x1="52.69" y1="290.98" x2="61.53" y2="294.67" style="fill: none;stroke: #414042;stroke-miterlimit: 10"/>
        <line x1="12.5" y1="224.16" x2="12.5" y2="231.07" style="fill: none;stroke: #414042;stroke-miterlimit: 10"/>
        <line x1="30.82" y1="281.85" x2="37.6" y2="284.68" style="fill: none;stroke: #414042;stroke-miterlimit: 10"/>
        <line x1="37.6" y1="284.68" x2="44.84" y2="287.7" style="fill: none;stroke: #414042;stroke-miterlimit: 10"/>
        <line x1="44.84" y1="287.7" x2="52.69" y2="290.98" style="fill: none;stroke: #414042;stroke-miterlimit: 10"/>
        <line x1="12.5" y1="259.54" x2="12.5" y2="266.56" style="fill: none;stroke: #414042;stroke-miterlimit: 10"/>
        <line x1="24.37" y1="279.16" x2="30.82" y2="281.85" style="fill: none;stroke: #414042;stroke-miterlimit: 10"/>
        <path d="M12.5,266.56v3.08A5.63,5.63,0,0,0,13.71,273" style="fill: none;stroke: #414042;stroke-miterlimit: 10"/>
        <path d="M12.5,217.28v-2c0-2.39,4.13-4.33,9.21-4.33h1.92" style="fill: none;stroke: #414042;stroke-miterlimit: 10"/>
        <line x1="40.89" y1="210.92" x2="67.26" y2="210.92" style="fill: none;stroke: #414042;stroke-miterlimit: 10"/>
        <line x1="40.89" y1="210.92" x2="23.63" y2="210.92" style="fill: none;stroke: #414042;stroke-miterlimit: 10"/>
        <line x1="105.99" y1="210.92" x2="67.26" y2="210.92" style="fill: none;stroke: #414042;stroke-miterlimit: 10"/>
        <line x1="197.91" y1="219.83" x2="197.91" y2="226.01" style="fill: none;stroke: #414042;stroke-miterlimit: 10"/>
        <line x1="197.91" y1="245.32" x2="197.91" y2="252.23" style="fill: none;stroke: #414042;stroke-miterlimit: 10"/>
        <path d="M186.32,210.92h4.23c4.06,0,6.33,1.24,7.08,3" style="fill: none;stroke: #414042;stroke-miterlimit: 10"/>
        <line x1="197.91" y1="232.33" x2="197.91" y2="238.79" style="fill: none;stroke: #414042;stroke-miterlimit: 10"/>
        <polyline points="108.46 311.8 105.51 313.04 87.17 305.38" style="fill: none;stroke: #414042;stroke-miterlimit: 10"/>
        <line x1="71.83" y1="298.97" x2="87.17" y2="305.38" style="fill: none;stroke: #414042;stroke-miterlimit: 10"/>
        <line x1="197.91" y1="258.92" x2="197.91" y2="265.65" style="fill: none;stroke: #414042;stroke-miterlimit: 10"/>
        <path d="M197.91,265.65v4.08c0,2.6-2.1,5.11-5.89,7l-32.91,13.81" style="fill: none;stroke: #414042;stroke-miterlimit: 10"/>
        <line x1="159.11" y1="290.55" x2="108.46" y2="311.8" style="fill: none;stroke: #414042;stroke-miterlimit: 10"/>
        <path d="M142.07,210.92c-22.85,14.75-48,28.76-62.08,21.53-23.92-12.25-48.68-.78-67.49,12.49" style="fill: none;stroke: #414042;stroke-miterlimit: 10"/>
        <path d="M131.17,210.92c-20,12.19-40.34,21.73-52.49,15.5-23.37-12-47.54-1.3-66.17,11.57" style="fill: none;stroke: #414042;stroke-miterlimit: 10"/>
        <path d="M119.48,210.92c-16.43,9-32.08,14.63-42.13,9.48-22.82-11.69-46.4-1.78-64.85,10.67" style="fill: none;stroke: #414042;stroke-miterlimit: 10"/>
        <path d="M106,210.92c-11.77,5.11-22.43,7.31-30,3.45a47.59,47.59,0,0,0-8.77-3.45" style="fill: none;stroke: #414042;stroke-miterlimit: 10"/>
        <path d="M12.5,224.16c8.6-5.67,18.25-10.7,28.39-13.24" style="fill: none;stroke: #414042;stroke-miterlimit: 10"/>
        <path d="M12.5,217.28a116.45,116.45,0,0,1,11.13-6.36" style="fill: none;stroke: #414042;stroke-miterlimit: 10"/>
        <path d="M174.42,210.92c-26.4,16.64-69,49.54-89.08,39.23-26.28-13.45-53.55,1.69-72.84,16.41" style="fill: none;stroke: #414042;stroke-miterlimit: 10"/>
        <path d="M163.81,210.92c-26.23,17.35-61.88,42.38-79.79,33.2-25.68-13.15-52.32,1-71.53,15.42" style="fill: none;stroke: #414042;stroke-miterlimit: 10"/>
        <path d="M153.44,210.92c-24.88,16.48-54.82,35.34-70.73,27.18-25.09-12.85-51.1.4-70.2,14.44" style="fill: none;stroke: #414042;stroke-miterlimit: 10"/>
        <path d="M52.69,291c13.47-5,28.11-6.15,42.44,1.19,24.21,12.4,80.84-37.72,102.78-46.85" style="fill: none;stroke: #414042;stroke-miterlimit: 10"/>
        <path d="M44.84,287.7c15.2-7.1,32.29-10.1,49-1.55,24.7,12.66,83.21-39.79,104.11-47.36" style="fill: none;stroke: #414042;stroke-miterlimit: 10"/>
        <path d="M37.6,284.68c16.59-9.11,36-14.24,54.9-4.56,25.25,12.94,85.79-42.14,105.42-47.78" style="fill: none;stroke: #414042;stroke-miterlimit: 10"/>
        <path d="M30.82,281.85c17.7-11,39.34-18.51,60.35-7.75C117,287.34,179.82,229.37,197.91,226" style="fill: none;stroke: #414042;stroke-miterlimit: 10"/>
        <path d="M24.37,279.16c18.54-12.65,42.4-22.91,65.49-11.09,26.52,13.59,92-47.85,108.06-48.24" style="fill: none;stroke: #414042;stroke-miterlimit: 10"/>
        <path d="M18.25,276.56C37.35,262.5,63.41,249.19,88.54,262c27.12,13.89,95-50.69,109.09-48.18" style="fill: none;stroke: #414042;stroke-miterlimit: 10"/>
        <path d="M186.32,210.92c-24,12.43-76.14,56.86-99.1,45.1C60.65,242.44,33,258.1,13.71,273" style="fill: none;stroke: #414042;stroke-miterlimit: 10"/>
        <path d="M108.46,311.8a18.92,18.92,0,0,1-8-1.93,46.9,46.9,0,0,0-13.31-4.49" style="fill: none;stroke: #414042;stroke-miterlimit: 10"/>
        <path d="M197.91,265.65c-10,5.44-24,15.53-38.81,24.9" style="fill: none;stroke: #414042;stroke-miterlimit: 10"/>
        <path d="M71.83,299a47.18,47.18,0,0,1,27.33,4.88c22.84,11.7,74.56-32.25,98.76-44.92" style="fill: none;stroke: #414042;stroke-miterlimit: 10"/>
        <path d="M61.53,294.67c11.73-3.17,24.13-3.09,36.32,3.15,23.27,11.92,76.49-33.9,100.07-45.59" style="fill: none;stroke: #414042;stroke-miterlimit: 10"/>
      </g>
      <g>
        <rect x="15.81" y="217.83" width="178.38" height="21.88" rx="5" ry="5" style="fill: #353535"/>
        <rect x="15.81" y="217.83" width="178.38" height="21.88" rx="5" ry="5" style="fill: none;stroke: #f4f4e6;stroke-miterlimit: 10"/>
      </g>
      <g>
        <path d="M97.07,201.35l-1.64,3.12-1.64-3.12v3.95H92.24v-7h1.5l1.69,3.22,1.69-3.22h1.5v7H97.07Z" style="fill: #f4f4e6"/>
        <path d="M105.3,202.86c0,1.68-1.1,2.54-2.8,2.54s-2.78-.86-2.78-2.54v-2.12c0-1.68,1.1-2.54,2.8-2.54s2.78.86,2.78,2.54Zm-1.55-2.12a1.24,1.24,0,0,0-2.48,0v2.12a1.24,1.24,0,0,0,2.48,0Z" style="fill: #f4f4e6"/>
        <path d="M112,202.76c0,1.68-1.1,2.54-2.8,2.54H106.4v-7h2.8c1.68,0,2.78.86,2.78,2.54Zm-1.55-1.92a1.1,1.1,0,0,0-1.23-1.19h-1.25V204h1.23a1.11,1.11,0,0,0,1.25-1.19Z" style="fill: #f4f4e6"/>
        <path d="M113.08,198.31H118v1.35h-3.33v1.47h2.83v1.35h-2.83V204H118v1.35h-4.88Z" style="fill: #f4f4e6"/>
      </g>
      <path d="M105.51,313.5l-87-36.14c-3.85-1.9-6-4.44-6-7.08v-55c0-2.38,4-4.31,9-4.31H188.89c5,0,9,1.93,9,4.31v55.14c0,2.59-2.06,5.09-5.78,7Z" style="fill: none;stroke: #b300c1;stroke-miterlimit: 10;stroke-width: 0.740000009536743px"/>
      <g>
        <path d="M102.07,299.59l-1.64,3.12-1.64-3.12v3.95H97.24v-7h1.5l1.69,3.22,1.69-3.22h1.5v7h-1.55Z" style="fill: #f4f4e6"/>
        <path d="M104.82,296.55h1.55v7h-1.55Z" style="fill: #f4f4e6"/>
        <path d="M110.12,301.31l-1.4,2.23H107l2.29-3.46L107,296.55h1.85l1.37,2.23,1.41-2.23h1.75L111.06,300l2.29,3.54H111.5Z" style="fill: #f4f4e6"/>
      </g>
      <line x1="56" y1="239.86" x2="56" y2="271.26" style="fill: none;stroke: #f4f4e6;stroke-miterlimit: 10"/>
      <line x1="149.81" y1="270.77" x2="108.73" y2="270.77" style="fill: none;stroke: #f4f4e6;stroke-miterlimit: 10"/>
    </g>
  </g>
</svg>
