<?xml version="1.0" encoding="UTF-8" standalone="no"?>
<!-- Created with Inkscape (http://www.inkscape.org/) -->

<svg
   xmlns:dc="http://purl.org/dc/elements/1.1/"
   xmlns:cc="http://creativecommons.org/ns#"
   xmlns:rdf="http://www.w3.org/1999/02/22-rdf-syntax-ns#"
   xmlns:svg="http://www.w3.org/2000/svg"
   xmlns="http://www.w3.org/2000/svg"
   xmlns:sodipodi="http://sodipodi.sourceforge.net/DTD/sodipodi-0.dtd"
   xmlns:inkscape="http://www.inkscape.org/namespaces/inkscape"
   width="30.83222mm"
   height="128.85208mm"
   viewBox="0 0 30.83222 128.85208"
   version="1.1"
   id="svg16170"
   inkscape:version="0.92.4 5da689c313, 2019-01-14"
   sodipodi:docname="Permutation6.svg">
  <defs
     id="defs16164" />
  <sodipodi:namedview
     id="base"
     pagecolor="#ffffff"
     bordercolor="#666666"
     borderopacity="1.0"
     inkscape:pageopacity="0.0"
     inkscape:pageshadow="2"
     inkscape:zoom="1.4"
     inkscape:cx="46.67877"
     inkscape:cy="265.06763"
     inkscape:document-units="mm"
     inkscape:current-layer="layer6"
     showgrid="false"
     inkscape:window-width="1600"
     inkscape:window-height="882"
     inkscape:window-x="0"
     inkscape:window-y="18"
     inkscape:window-maximized="0"
     fit-margin-top="0"
     fit-margin-left="0"
     fit-margin-right="0"
     fit-margin-bottom="0"
     inkscape:snap-bbox="true"
     inkscape:snap-nodes="false"
     inkscape:snap-others="false"
     inkscape:snap-bbox-midpoints="true" />
  <metadata
     id="metadata16167">
    <rdf:RDF>
      <cc:Work
         rdf:about="">
        <dc:format>image/svg+xml</dc:format>
        <dc:type
           rdf:resource="http://purl.org/dc/dcmitype/StillImage" />
        <dc:title />
      </cc:Work>
    </rdf:RDF>
  </metadata>
  <g
     inkscape:label="Layer 1"
     inkscape:groupmode="layer"
     id="layer1"
     transform="translate(-85.125559,-54.169194)"
     style="display:inline">
    <path
       inkscape:connector-curvature="0"
       id="path3540"
       d="M 85.301948,182.84489 H 115.78139 V 54.345583 H 85.301948 Z m 0,0"
       style="fill:#e8e6e6;fill-opacity:1;fill-rule:nonzero;stroke:#ababab;stroke-width:0.35277778;stroke-linecap:butt;stroke-linejoin:miter;stroke-miterlimit:4;stroke-opacity:1" />
    <path
       inkscape:connector-curvature="0"
       id="path3542"
       d="m 111.87603,172.36491 h -8.66786 c -0.36794,0 -0.66696,-0.29766 -0.66696,-0.6656 v -7.8934 h 10.00041 v 7.8934 c 0,0.36794 -0.29764,0.6656 -0.66559,0.6656"
       style="fill:#000000;fill-opacity:1;fill-rule:nonzero;stroke:none;stroke-width:0.35277778" />
    <path
       inkscape:connector-curvature="0"
       id="path3544"
       d="m 97.869657,172.36491 h -8.667856 c -0.367947,0 -0.665586,-0.29766 -0.665586,-0.6656 v -7.8934 h 9.999028 v 7.8934 c 0,0.36794 -0.297639,0.6656 -0.665586,0.6656"
       style="fill:#000000;fill-opacity:1;fill-rule:nonzero;stroke:none;stroke-width:0.35277778" />
    <path
       inkscape:connector-curvature="0"
       id="path3546"
       d="m 89.291371,63.191207 c 0.110243,0 0.21082,-0.0096 0.285256,-0.0689 0.0744,-0.05788 0.12125,-0.170875 0.12125,-0.377582 0,-0.206706 -0.04823,-0.318329 -0.124001,-0.376205 -0.07719,-0.05788 -0.179141,-0.06615 -0.289384,-0.06615 h -0.509905 v 0.888834 z m -0.999066,-1.289844 h 0.999066 c 0.297639,0 0.520912,0.04134 0.669714,0.163989 0.147461,0.124023 0.223237,0.334864 0.223237,0.672483 0,0.340374 -0.07853,0.552591 -0.225989,0.677993 -0.150213,0.125402 -0.376202,0.16812 -0.673841,0.16812 h -0.509905 v 0.737253 h -0.482282 z m 0,0"
       style="fill:#000000;fill-opacity:1;fill-rule:nonzero;stroke:none;stroke-width:0.35277778" />
    <path
       inkscape:connector-curvature="0"
       id="path3548"
       d="m 90.588112,61.901363 h 1.609548 v 0.425814 h -1.123103 v 0.540191 h 0.886072 v 0.425817 h -0.886072 v 0.611847 h 1.123103 v 0.416169 h -1.609548 z m 0,0"
       style="fill:#000000;fill-opacity:1;fill-rule:nonzero;stroke:none;stroke-width:0.35277778" />
    <path
       inkscape:connector-curvature="0"
       id="path3550"
       d="m 93.594978,63.158134 c 0.130916,0 0.231528,-0.01654 0.301801,-0.07855 0.0689,-0.06064 0.10474,-0.165365 0.10474,-0.351402 0,-0.187413 -0.03997,-0.293522 -0.111654,-0.354154 -0.07303,-0.05926 -0.177765,-0.07166 -0.301766,-0.07166 h -0.476815 v 0.855762 z m 1.050078,1.163067 h -0.555343 l -0.51816,-0.770326 h -0.460269 v 0.770326 h -0.482317 v -2.419838 h 0.966011 c 0.297674,0 0.522288,0.03583 0.671124,0.15572 0.148802,0.118512 0.220486,0.327974 0.220486,0.664213 0,0.238401 -0.03584,0.399631 -0.107491,0.512632 -0.07306,0.112999 -0.180551,0.177765 -0.321098,0.210838 z m 0,0"
       style="fill:#000000;fill-opacity:1;fill-rule:nonzero;stroke:none;stroke-width:0.35277778" />
    <path
       inkscape:connector-curvature="0"
       id="path3552"
       d="m 96.067174,64.321201 -0.596688,-1.593015 v 1.593015 h -0.432682 v -2.419838 h 0.571852 l 0.665622,1.765268 0.666961,-1.765268 h 0.571888 v 2.419838 h -0.4699 v -1.593015 l -0.593936,1.593015 z m 0,0"
       style="fill:#000000;fill-opacity:1;fill-rule:nonzero;stroke:none;stroke-width:0.35277778" />
    <path
       inkscape:connector-curvature="0"
       id="path3554"
       d="m 99.052027,64.354274 c -0.344523,0 -0.600851,-0.04134 -0.76895,-0.170879 -0.168134,-0.130913 -0.252201,-0.352778 -0.252201,-0.713821 v -1.568211 h 0.487821 v 1.533758 c 0,0.198438 0.04135,0.31695 0.128165,0.38723 0.08682,0.07166 0.21911,0.09233 0.412044,0.09233 0.188771,0 0.32385,-0.01792 0.409258,-0.08406 0.08544,-0.06615 0.125412,-0.183278 0.125412,-0.388606 v -1.540647 h 0.465774 v 1.561317 c 0,0.356912 -0.07853,0.580157 -0.245288,0.713825 -0.166723,0.133671 -0.417548,0.177769 -0.762035,0.177769"
       style="fill:#000000;fill-opacity:1;fill-rule:nonzero;stroke:none;stroke-width:0.35277778" />
    <path
       inkscape:connector-curvature="0"
       id="path3556"
       d="m 101.21967,62.327177 h -0.78687 v -0.425814 h 2.05744 v 0.425814 h -0.78412 v 1.994024 h -0.48645 z m 0,0"
       style="fill:#000000;fill-opacity:1;fill-rule:nonzero;stroke:none;stroke-width:0.35277778" />
    <path
       inkscape:connector-curvature="0"
       id="path3558"
       d="m 103.57199,62.539397 c -0.0661,0.179144 -0.12541,0.337619 -0.17776,0.475421 -0.0219,0.06064 -0.0441,0.119892 -0.0648,0.176389 -0.0413,0.114378 -0.0772,0.203951 -0.0979,0.259073 -0.0109,0.02618 -0.0166,0.04134 -0.0166,0.04134 h 0.71247 z m -0.66424,1.781804 h -0.48507 l 0.93708,-2.436372 h 0.44785 l 0.93709,2.436372 h -0.51125 l -0.16125,-0.435463 h -1.00182 z m 0,0"
       style="fill:#000000;fill-opacity:1;fill-rule:nonzero;stroke:none;stroke-width:0.35277778" />
    <path
       inkscape:connector-curvature="0"
       id="path3560"
       d="m 105.46401,62.327177 h -0.78683 v -0.425814 h 2.0574 v 0.425814 h -0.78412 v 1.994024 h -0.48645 z m 0,0"
       style="fill:#000000;fill-opacity:1;fill-rule:nonzero;stroke:none;stroke-width:0.35277778" />
    <path
       inkscape:connector-curvature="0"
       id="path3562"
       d="m 107.1342,61.901363 h 0.49057 v 2.419838 h -0.49057 z m 0,0"
       style="fill:#000000;fill-opacity:1;fill-rule:nonzero;stroke:none;stroke-width:0.35277778" />
    <path
       inkscape:connector-curvature="0"
       id="path3564"
       d="m 109.2109,63.949129 c 0.2081,0 0.36107,-0.04134 0.46164,-0.157096 0.10062,-0.114377 0.14747,-0.300411 0.14747,-0.591177 v -0.179148 c 0,-0.290763 -0.051,-0.475421 -0.15159,-0.588419 -0.10199,-0.113002 -0.25633,-0.152965 -0.4644,-0.152965 -0.20807,0 -0.35966,0.03996 -0.45889,0.14883 -0.10058,0.111619 -0.14884,0.296277 -0.14884,0.585664 v 0.180524 c 0,0.289387 0.0483,0.478179 0.15159,0.593936 0.10199,0.115754 0.25495,0.159851 0.46302,0.159851 m -0.007,0.412034 c -0.21911,0 -0.41755,-0.02342 -0.58427,-0.09095 -0.16538,-0.06752 -0.29767,-0.183279 -0.38862,-0.367937 -0.0923,-0.186038 -0.14333,-0.440973 -0.14333,-0.790995 0,-0.348643 0.051,-0.603582 0.14333,-0.789616 0.0923,-0.186034 0.22736,-0.301791 0.3955,-0.369316 0.16535,-0.0689 0.36378,-0.09095 0.58427,-0.09095 0.21911,0 0.41755,0.02067 0.5843,0.08819 0.16673,0.06753 0.29902,0.181903 0.39138,0.365182 0.0896,0.184658 0.14192,0.440972 0.14192,0.789615 0,0.348644 -0.051,0.604958 -0.14471,0.790995 -0.0937,0.187413 -0.22737,0.303167 -0.39271,0.372068 -0.16814,0.07166 -0.36657,0.09371 -0.58706,0.09371"
       style="fill:#000000;fill-opacity:1;fill-rule:nonzero;stroke:none;stroke-width:0.35277778" />
    <path
       inkscape:connector-curvature="0"
       id="path3566"
       d="m 110.7791,61.901363 h 0.48232 l 1.06525,1.540648 v -1.540648 h 0.46577 v 2.419838 h -0.41755 l -1.12998,-1.642622 v 1.642622 h -0.46581 z m 0,0"
       style="fill:#000000;fill-opacity:1;fill-rule:nonzero;stroke:none;stroke-width:0.35277778" />
    <path
       inkscape:connector-curvature="0"
       id="path3568"
       d="m 92.046072,143.29244 c -0.115747,0 -0.23428,-0.011 -0.330729,-0.0234 -0.09507,-0.0124 -0.172262,-0.0262 -0.208104,-0.0386 l 0.04826,-0.25907 c 0.02081,0.004 0.06615,0.0124 0.124001,0.0193 0.05651,0.01 0.124037,0.0179 0.190183,0.0262 0.06477,0.007 0.12954,0.011 0.17914,0.011 0.110244,0 0.181893,-0.008 0.227366,-0.0358 0.0441,-0.0262 0.06064,-0.073 0.06064,-0.15434 0,-0.0717 -0.01094,-0.11162 -0.05373,-0.14056 -0.04272,-0.0289 -0.117158,-0.0441 -0.245322,-0.0703 -0.140547,-0.0276 -0.246662,-0.0537 -0.323815,-0.0882 -0.07856,-0.0345 -0.128164,-0.0785 -0.159843,-0.14194 -0.03034,-0.062 -0.04272,-0.14332 -0.04272,-0.25632 0,-0.16123 0.05098,-0.27009 0.147425,-0.33899 0.09649,-0.0675 0.237032,-0.0951 0.413421,-0.0951 0.0937,0 0.206692,0.007 0.304553,0.0193 0.09645,0.011 0.177765,0.0234 0.212196,0.0345 l -0.0496,0.2632 c -0.04822,-0.008 -0.12125,-0.0193 -0.205317,-0.0289 -0.08132,-0.008 -0.176389,-0.0165 -0.264583,-0.0165 -0.08957,0 -0.150213,0.011 -0.188807,0.0358 -0.03718,0.0262 -0.05373,0.0675 -0.05373,0.13091 0,0.0744 0.01235,0.11438 0.05373,0.14332 0.04272,0.0289 0.114406,0.0441 0.238407,0.0689 0.135044,0.0275 0.241159,0.051 0.319723,0.0827 0.07853,0.0331 0.133667,0.0744 0.169474,0.13642 0.03457,0.0634 0.04826,0.14746 0.04826,0.26321 0,0.17363 -0.04826,0.28663 -0.148837,0.35691 -0.100612,0.0703 -0.253576,0.0965 -0.461645,0.0965"
       style="fill:#000000;fill-opacity:1;fill-rule:nonzero;stroke:none;stroke-width:0.35277778" />
    <path
       inkscape:connector-curvature="0"
       id="path3570"
       d="m 92.91835,141.72699 h 1.030782 v 0.27147 h -0.719314 v 0.34589 h 0.567725 v 0.27285 h -0.567725 v 0.39136 h 0.719314 v 0.26734 H 92.91835 Z m 0,0"
       style="fill:#000000;fill-opacity:1;fill-rule:nonzero;stroke:none;stroke-width:0.35277778" />
    <path
       inkscape:connector-curvature="0"
       id="path3572"
       d="m 94.858628,143.04991 c 0.133668,0 0.231528,-0.0303 0.296298,-0.10749 0.06339,-0.0758 0.0937,-0.19844 0.0937,-0.38448 v -0.11437 c 0,-0.18604 -0.03175,-0.30868 -0.09645,-0.3831 -0.06614,-0.0744 -0.164006,-0.10335 -0.297673,-0.10335 -0.133668,0 -0.230118,0.0275 -0.294888,0.1006 -0.06339,0.0744 -0.0937,0.19568 -0.0937,0.38171 v 0.11438 c 0,0.18604 0.03034,0.31006 0.09645,0.38723 0.06477,0.0786 0.163972,0.10887 0.296263,0.10887 m 0.742773,0.50849 h -0.412045 l -0.17085,-0.27698 c -0.05376,0.008 -0.106116,0.008 -0.164006,0.008 -0.140547,0 -0.267335,-0.0124 -0.373451,-0.0551 -0.106116,-0.0413 -0.191523,-0.11438 -0.249414,-0.23013 -0.05927,-0.11714 -0.09232,-0.27975 -0.09232,-0.50437 0,-0.22324 0.03316,-0.38585 0.09232,-0.50436 0.05927,-0.11989 0.146085,-0.1943 0.253541,-0.23702 0.106116,-0.0441 0.232904,-0.0579 0.373451,-0.0579 0.140582,0 0.268746,0.0138 0.374826,0.0565 0.106116,0.0441 0.191559,0.11576 0.24945,0.23427 0.05785,0.11713 0.09095,0.28111 0.09095,0.50436 0,0.17777 -0.02081,0.31419 -0.05927,0.42168 -0.03859,0.10886 -0.09645,0.18879 -0.166723,0.24253 z m 0,0"
       style="fill:#000000;fill-opacity:1;fill-rule:nonzero;stroke:none;stroke-width:0.35277778" />
    <path
       inkscape:connector-curvature="0"
       id="path3574"
       d="m 105.48744,143.29657 c -0.14193,0 -0.26596,-0.0152 -0.36792,-0.0579 -0.10336,-0.0441 -0.1833,-0.11575 -0.2384,-0.23426 -0.0551,-0.11713 -0.0841,-0.27975 -0.0841,-0.50437 0,-0.22324 0.0318,-0.38722 0.0868,-0.50436 0.0565,-0.11851 0.13779,-0.19154 0.24253,-0.23564 0.10336,-0.0441 0.22874,-0.0579 0.37345,-0.0579 0.12679,0 0.23012,0.008 0.31143,0.0179 0.0799,0.01 0.1378,0.022 0.17364,0.0317 l -0.0469,0.26872 c -0.11712,-0.022 -0.277,-0.0441 -0.44235,-0.0441 -0.14058,0 -0.2329,0.0275 -0.29076,0.0992 -0.0579,0.0717 -0.0813,0.18741 -0.0813,0.3638 v 0.11438 c 0,0.17363 0.0208,0.29352 0.0799,0.37069 0.0579,0.0799 0.15572,0.11438 0.30452,0.11438 0.0992,0 0.18193,-0.011 0.22878,-0.0193 v -0.53192 h 0.29076 v 0.74552 c -0.0372,0.011 -0.10612,0.0262 -0.19844,0.04 -0.0937,0.0124 -0.20948,0.0234 -0.34177,0.0234"
       style="fill:#000000;fill-opacity:1;fill-rule:nonzero;stroke:none;stroke-width:0.35277778" />
    <path
       inkscape:connector-curvature="0"
       id="path3576"
       d="m 106.97573,142.13489 c -0.0427,0.11438 -0.0813,0.21497 -0.11437,0.30454 -0.0138,0.0386 -0.0275,0.0772 -0.0414,0.113 -0.0261,0.073 -0.0496,0.12954 -0.062,0.16537 -0.008,0.0165 -0.0109,0.0262 -0.0109,0.0262 h 0.45611 z m -0.42442,1.14101 h -0.31144 l 0.60082,-1.55994 h 0.28526 l 0.60081,1.55994 h -0.32797 l -0.10337,-0.27974 h -0.64078 z m 0,0"
       style="fill:#000000;fill-opacity:1;fill-rule:nonzero;stroke:none;stroke-width:0.35277778" />
    <path
       inkscape:connector-curvature="0"
       id="path3578"
       d="m 108.18978,141.99984 h -0.50299 v -0.27285 h 1.31604 v 0.27285 h -0.50161 v 1.27606 h -0.31144 z m 0,0"
       style="fill:#000000;fill-opacity:1;fill-rule:nonzero;stroke:none;stroke-width:0.35277778" />
    <path
       inkscape:connector-curvature="0"
       id="path3580"
       d="m 109.23986,141.72699 h 1.02937 v 0.27147 h -0.71931 v 0.34589 h 0.56772 v 0.27285 h -0.56772 v 0.39136 h 0.71931 v 0.26734 h -1.02937 z m 0,0"
       style="fill:#000000;fill-opacity:1;fill-rule:nonzero;stroke:none;stroke-width:0.35277778" />
    <path
       inkscape:connector-curvature="0"
       id="path3582"
       d="m 90.800308,129.1262 c -0.141923,0 -0.26596,-0.0138 -0.367912,-0.0579 -0.103364,-0.0427 -0.183304,-0.11575 -0.238408,-0.23288 -0.05514,-0.11851 -0.08407,-0.27974 -0.08407,-0.50436 0,-0.22325 0.03175,-0.38723 0.08682,-0.50574 0.05651,-0.11714 0.13642,-0.19017 0.239783,-0.23427 0.103364,-0.0441 0.22599,-0.0579 0.367948,-0.0579 0.128129,0 0.219075,0.008 0.289383,0.0165 0.03457,0.005 0.06477,0.011 0.08957,0.0165 0.02469,0.005 0.04685,0.01 0.06339,0.0124 l -0.05376,0.26458 c -0.05648,-0.008 -0.11437,-0.0179 -0.177765,-0.0248 -0.06202,-0.007 -0.133667,-0.011 -0.214982,-0.011 -0.13642,0 -0.227366,0.0275 -0.283881,0.0992 -0.05785,0.0703 -0.0799,0.18604 -0.0799,0.36243 v 0.11575 c 0,0.17226 0.02328,0.29077 0.08132,0.36656 0.05786,0.0758 0.150178,0.10886 0.286632,0.10886 0.100577,0 0.187396,-0.01 0.254917,-0.0193 0.03316,-0.004 0.06064,-0.01 0.08407,-0.0152 0.02328,-0.005 0.04135,-0.008 0.05235,-0.011 l 0.05101,0.26046 c -0.04135,0.0138 -0.09098,0.0262 -0.161254,0.0344 -0.07165,0.01 -0.16122,0.0165 -0.285256,0.0165"
       style="fill:#000000;fill-opacity:1;fill-rule:nonzero;stroke:none;stroke-width:0.35277778" />
    <path
       inkscape:connector-curvature="0"
       id="path3584"
       d="m 91.50036,127.55662 h 0.311432 v 1.28295 h 0.755156 v 0.26596 H 91.50036 Z m 0,0"
       style="fill:#000000;fill-opacity:1;fill-rule:nonzero;stroke:none;stroke-width:0.35277778" />
    <path
       inkscape:connector-curvature="0"
       id="path3586"
       d="m 92.802604,127.55662 h 1.030781 v 0.27285 h -0.719349 v 0.34589 h 0.567761 v 0.27147 h -0.567761 v 0.39274 h 0.719349 v 0.26596 h -1.030781 z m 0,0"
       style="fill:#000000;fill-opacity:1;fill-rule:nonzero;stroke:none;stroke-width:0.35277778" />
    <path
       inkscape:connector-curvature="0"
       id="path3588"
       d="m 94.767682,127.96452 c -0.04272,0.11438 -0.08128,0.21635 -0.114371,0.30455 -0.01376,0.0386 -0.02752,0.0772 -0.04135,0.11299 -0.02752,0.0744 -0.0496,0.13092 -0.06339,0.16537 -0.0071,0.0179 -0.0095,0.0276 -0.0095,0.0276 h 0.456147 z m -0.425803,1.14101 h -0.310056 l 0.59944,-1.55994 h 0.286632 l 0.600815,1.55994 h -0.327977 l -0.103328,-0.27836 h -0.642162 z m 0,0"
       style="fill:#000000;fill-opacity:1;fill-rule:nonzero;stroke:none;stroke-width:0.35277778" />
    <path
       inkscape:connector-curvature="0"
       id="path3590"
       d="m 96.364848,128.36139 c 0.08407,0 0.148802,-0.011 0.19431,-0.051 0.0441,-0.0386 0.06615,-0.1061 0.06615,-0.22462 0,-0.11989 -0.02469,-0.18741 -0.07031,-0.226 -0.04685,-0.0386 -0.11437,-0.0469 -0.194275,-0.0469 H 96.05617 v 0.54846 z m 0.673841,0.74414 h -0.356905 l -0.33073,-0.49196 h -0.294887 v 0.49196 h -0.30868 v -1.54891 h 0.617361 c 0.191523,0 0.334857,0.022 0.42993,0.0992 0.09511,0.0772 0.141958,0.20946 0.141958,0.42581 0,0.15159 -0.02328,0.25494 -0.0689,0.32798 -0.04688,0.0717 -0.115782,0.113 -0.205352,0.13504 z m 0,0"
       style="fill:#000000;fill-opacity:1;fill-rule:nonzero;stroke:none;stroke-width:0.35277778" />
    <path
       inkscape:connector-curvature="0"
       id="path3592"
       d="m 104.07357,127.55662 h 0.31835 l 0.27146,0.99219 0.27284,-0.96739 h 0.24253 l 0.26459,0.96739 0.27837,-0.99219 h 0.29489 l -0.44923,1.55994 h -0.23286 l -0.28942,-1.0666 -0.29627,1.0666 h -0.23978 z m 0,0"
       style="fill:#000000;fill-opacity:1;fill-rule:nonzero;stroke:none;stroke-width:0.35277778" />
    <path
       inkscape:connector-curvature="0"
       id="path3594"
       d="m 106.86274,128.36139 c 0.0827,0 0.14884,-0.011 0.19293,-0.051 0.0441,-0.0386 0.0661,-0.1061 0.0661,-0.22462 0,-0.11989 -0.0247,-0.18741 -0.0703,-0.226 -0.0468,-0.0386 -0.11437,-0.0469 -0.19427,-0.0469 h -0.30455 v 0.54846 z m 0.67246,0.74414 h -0.35552 l -0.33211,-0.49196 h -0.29489 v 0.49196 H 106.244 v -1.54891 h 0.61874 c 0.19015,0 0.33486,0.022 0.42993,0.0992 0.0937,0.0772 0.14058,0.20946 0.14058,0.42581 0,0.15159 -0.0233,0.25494 -0.0689,0.32798 -0.0469,0.0717 -0.11578,0.113 -0.20535,0.13504 z m 0,0"
       style="fill:#000000;fill-opacity:1;fill-rule:nonzero;stroke:none;stroke-width:0.35277778" />
    <path
       inkscape:connector-curvature="0"
       id="path3596"
       d="m 107.7819,127.55662 h 0.31419 v 1.54891 h -0.31419 z m 0,0"
       style="fill:#000000;fill-opacity:1;fill-rule:nonzero;stroke:none;stroke-width:0.35277778" />
    <path
       inkscape:connector-curvature="0"
       id="path3598"
       d="m 108.84161,127.82947 h -0.50299 v -0.27285 h 1.316 v 0.27285 h -0.50158 v 1.27606 h -0.31143 z m 0,0"
       style="fill:#000000;fill-opacity:1;fill-rule:nonzero;stroke:none;stroke-width:0.35277778" />
    <path
       inkscape:connector-curvature="0"
       id="path3600"
       d="m 109.89165,127.55662 h 1.03079 v 0.27285 h -0.71935 v 0.34589 h 0.56638 v 0.27147 h -0.56638 v 0.39274 h 0.71935 v 0.26596 h -1.03079 z m 0,0"
       style="fill:#000000;fill-opacity:1;fill-rule:nonzero;stroke:none;stroke-width:0.35277778" />
    <path
       inkscape:connector-curvature="0"
       id="path3602"
       d="m 97.166853,99.652723 c -0.170886,0 -0.337608,-0.01791 -0.480942,-0.04134 -0.144674,-0.02341 -0.265959,-0.05512 -0.343112,-0.08268 l 0.133668,-0.350022 c 0.04547,0.01654 0.15434,0.04685 0.282504,0.07303 0.128129,0.02755 0.276966,0.04823 0.407882,0.04823 0.100612,0 0.16951,-0.0055 0.217734,-0.03583 0.04822,-0.0303 0.07578,-0.08681 0.0937,-0.195681 0.01658,-0.09509 0.01658,-0.148828 -0.02752,-0.190169 -0.0441,-0.04134 -0.133668,-0.0689 -0.294887,-0.117134 -0.172262,-0.05098 -0.301802,-0.09646 -0.392748,-0.150204 -0.09095,-0.05375 -0.146085,-0.117133 -0.170885,-0.202573 -0.02469,-0.08544 -0.02187,-0.194304 0.0056,-0.344508 0.03859,-0.214977 0.125413,-0.347268 0.250825,-0.424439 0.125377,-0.07717 0.286632,-0.100598 0.474028,-0.100598 0.137795,0 0.286632,0.01378 0.418923,0.03447 0.130916,0.02066 0.243911,0.04548 0.314184,0.06752 l -0.121249,0.35002 c -0.06615,-0.01654 -0.173638,-0.03996 -0.293512,-0.05788 -0.119909,-0.01654 -0.252201,-0.03168 -0.363819,-0.03168 -0.08269,0 -0.139171,0.0083 -0.180517,0.03858 -0.04135,0.03031 -0.06615,0.08268 -0.08132,0.166746 -0.01658,0.09784 -0.01517,0.151585 0.02893,0.192923 0.04269,0.04134 0.126753,0.07028 0.281093,0.114377 0.176389,0.05099 0.307305,0.09509 0.402414,0.147452 0.0937,0.05237 0.151553,0.112999 0.17914,0.198438 0.02611,0.08544 0.02328,0.198437 -0.0035,0.348641 -0.04272,0.231511 -0.125412,0.367938 -0.249449,0.445109 -0.124001,0.07855 -0.289384,0.09922 -0.487821,0.09922"
       style="fill:#000000;fill-opacity:1;fill-rule:nonzero;stroke:none;stroke-width:0.35277778" />
    <path
       inkscape:connector-curvature="0"
       id="path3604"
       d="m 98.526988,97.564993 h 0.414796 l -0.140582,0.80064 h 0.86681 l 0.140547,-0.80064 h 0.414801 l -0.363825,2.065682 h -0.414796 l 0.155716,-0.883322 H 98.73368 l -0.158468,0.883322 h -0.412044 z m 0,0"
       style="fill:#000000;fill-opacity:1;fill-rule:nonzero;stroke:none;stroke-width:0.35277778" />
    <path
       inkscape:connector-curvature="0"
       id="path3606"
       d="m 100.70289,97.564993 h 0.41754 l -0.36516,2.065682 h -0.41754 z m 0,0"
       style="fill:#000000;fill-opacity:1;fill-rule:nonzero;stroke:none;stroke-width:0.35277778" />
    <path
       inkscape:connector-curvature="0"
       id="path3608"
       d="m 101.59862,97.564993 h 1.31879 l -0.0648,0.363803 h -0.90399 l -0.10474,0.592558 h 0.6918 l -0.062,0.347268 h -0.6918 l -0.13504,0.762053 h -0.41201 z m 0,0"
       style="fill:#000000;fill-opacity:1;fill-rule:nonzero;stroke:none;stroke-width:0.35277778" />
    <path
       inkscape:connector-curvature="0"
       id="path3610"
       d="m 103.70704,97.928796 h -0.64354 l 0.0647,-0.363803 h 1.69915 l -0.0648,0.363803 h -0.64357 l -0.29901,1.701879 h -0.4148 z m 0,0"
       style="fill:#000000;fill-opacity:1;fill-rule:nonzero;stroke:none;stroke-width:0.35277778" />
    <path
       inkscape:connector-curvature="0"
       id="path3612"
       d="m 111.79475,96.89251 c 0,0.339 -0.277,0.615987 -0.61461,0.615987 h -2.94488 c -0.33899,0 -0.61599,-0.276987 -0.61599,-0.615987 v -2.053275 c 0,-0.338998 0.277,-0.615982 0.61599,-0.615982 h 2.94488 c 0.33761,0 0.61461,0.276984 0.61461,0.615982 z m 0,0"
       style="fill:#000000;fill-opacity:1;fill-rule:nonzero;stroke:none;stroke-width:0.35277778" />
    <path
       inkscape:connector-curvature="0"
       id="path3614"
       d="m 93.464062,96.89251 c 0,0.339 -0.276966,0.615987 -0.614609,0.615987 h -2.946224 c -0.337644,0 -0.614609,-0.276987 -0.614609,-0.615987 v -2.053275 c 0,-0.338998 0.276965,-0.615982 0.614609,-0.615982 h 2.946224 c 0.337643,0 0.614609,0.276984 0.614609,0.615982 z m 0,0"
       style="fill:#000000;fill-opacity:1;fill-rule:nonzero;stroke:none;stroke-width:0.35277778" />
    <path
       inkscape:connector-curvature="0"
       id="path3616"
       d="m 93.81684,122.40138 c 0,0.34864 -0.285256,0.63528 -0.633907,0.63528 h -3.206679 c -0.34865,0 -0.635282,-0.28664 -0.635282,-0.63528 v -2.01469 c 0,-0.34865 0.286632,-0.63528 0.635282,-0.63528 h 3.206679 c 0.348651,0 0.633907,0.28663 0.633907,0.63528 z m 0,0"
       style="fill:#000000;fill-opacity:1;fill-rule:nonzero;stroke:none;stroke-width:0.35277778" />
    <path
       inkscape:connector-curvature="0"
       id="path3618"
       d="m 111.83885,122.40138 c 0,0.34864 -0.28664,0.63528 -0.63529,0.63528 h -3.20671 c -0.34865,0 -0.63387,-0.28664 -0.63387,-0.63528 v -2.01469 c 0,-0.34865 0.28522,-0.63528 0.63387,-0.63528 h 3.20671 c 0.34865,0 0.63529,0.28663 0.63529,0.63528 z m 0,0"
       style="fill:#000000;fill-opacity:1;fill-rule:nonzero;stroke:none;stroke-width:0.35277778" />
    <path
       inkscape:connector-curvature="0"
       id="path3620"
       d="m 95.635868,178.09341 c 0.07715,0 0.07715,0 0.243911,-0.0207 0.08128,-0.01 0.150212,-0.0358 0.19431,-0.0648 v -0.63252 c -0.03316,-0.022 -0.09924,-0.04 -0.183304,-0.0455 -0.173637,-0.0124 -0.173637,-0.0124 -0.252165,-0.0124 -0.0882,0 -0.151589,0.0165 -0.192935,0.0799 -0.04134,0.0634 -0.06064,0.11988 -0.06064,0.30316 0,0.18604 0.01799,0.24116 0.05789,0.30731 0.03997,0.0661 0.103364,0.0854 0.192934,0.0854 m 0.08266,0.85714 c -0.09783,0 -0.202565,-0.005 -0.292135,-0.0124 -0.08957,-0.007 -0.166723,-0.0152 -0.21082,-0.0248 l 0.02893,-0.24254 c 0.06477,0.01 0.146085,0.0179 0.228741,0.0234 0.08269,0.005 0.16951,0.008 0.242535,0.008 0.148837,0 0.238407,-0.01 0.290759,-0.0703 0.05239,-0.0593 0.06756,-0.16675 0.06756,-0.36519 v -0.051 c -0.04272,0.0289 -0.117158,0.062 -0.224649,0.0813 -0.217735,0.0386 -0.217735,0.0386 -0.326567,0.0386 -0.07306,0 -0.146085,-0.008 -0.209479,-0.0413 -0.06339,-0.0331 -0.119874,-0.0937 -0.158468,-0.19431 -0.03997,-0.10059 -0.06339,-0.19017 -0.06339,-0.39412 0,-0.24942 0.0551,-0.42305 0.139171,-0.51814 0.08269,-0.0951 0.192934,-0.11575 0.307304,-0.11575 0.106116,0 0.106116,0 0.325226,0.0248 0.103364,0.011 0.183268,0.0372 0.221862,0.0606 l 0.05651,-0.11025 h 0.217699 v 1.21957 c 0,0.26321 -0.02611,0.43408 -0.119874,0.53881 -0.0937,0.10473 -0.254952,0.1447 -0.520911,0.1447"
       style="fill:#000000;fill-opacity:1;fill-rule:nonzero;stroke:none;stroke-width:0.35277778" />
    <path
       inkscape:connector-curvature="0"
       id="path3622"
       d="m 96.663862,177.04748 h 0.231528 l 0.04272,0.15572 c 0.05648,-0.033 0.126753,-0.0744 0.209444,-0.10887 0.08269,-0.0344 0.183303,-0.0648 0.288008,-0.0799 l 0.02752,0.26458 c -0.07719,0.01 -0.175013,0.0262 -0.268746,0.0482 -0.09507,0.0234 -0.186019,0.0524 -0.242534,0.0854 v 0.96187 h -0.288008 z m 0,0"
       style="fill:#000000;fill-opacity:1;fill-rule:nonzero;stroke:none;stroke-width:0.35277778" />
    <path
       inkscape:connector-curvature="0"
       id="path3624"
       d="m 98.01987,178.16232 c 0.07165,0 0.151588,-0.0179 0.224613,-0.0413 0.07302,-0.0234 0.136419,-0.0537 0.179141,-0.0772 v -0.29903 c -0.165347,0 -0.279753,0.005 -0.361033,0.0152 -0.08269,0.01 -0.130916,0.0234 -0.164006,0.0413 -0.02752,0.0165 -0.04135,0.0427 -0.0496,0.0744 -0.0081,0.0331 -0.0095,0.0703 -0.0095,0.10336 0,0.0758 0.01658,0.12126 0.04685,0.14744 0.03034,0.0276 0.0744,0.0358 0.133667,0.0358 m -0.112994,0.23151 c -0.08819,0 -0.177765,-0.022 -0.243911,-0.0841 -0.06752,-0.0606 -0.111619,-0.16399 -0.111619,-0.32522 0,-0.16123 0.02752,-0.27286 0.12125,-0.3266 0.07303,-0.0427 0.161219,-0.0675 0.279753,-0.0813 0.118498,-0.0138 0.268711,-0.0152 0.471276,-0.0152 v -0.0593 c 0,-0.0937 -0.0081,-0.15847 -0.04272,-0.20119 -0.03457,-0.0427 -0.09783,-0.0606 -0.203941,-0.0606 -0.199813,0 -0.358281,0.0276 -0.45339,0.0482 l -0.03993,-0.2384 c 0.08266,-0.0165 0.257669,-0.0524 0.500204,-0.0524 0.19431,0 0.326601,0.0317 0.409292,0.10335 0.08128,0.073 0.114371,0.18879 0.114371,0.35829 v 0.91502 h -0.227365 l -0.04272,-0.1378 c -0.03457,0.0207 -0.101988,0.0606 -0.19431,0.0937 -0.09232,0.0345 -0.208103,0.0634 -0.336232,0.0634"
       style="fill:#000000;fill-opacity:1;fill-rule:nonzero;stroke:none;stroke-width:0.35277778" />
    <path
       inkscape:connector-curvature="0"
       id="path3626"
       d="m 98.852214,177.04748 h 0.304517 c 0.07031,0.18052 0.135044,0.34313 0.191559,0.48507 0.02328,0.0606 0.04685,0.11989 0.07027,0.17777 0.02328,0.0593 0.0441,0.11024 0.06202,0.15572 0.01799,0.0455 0.03175,0.0827 0.04272,0.11024 0.01093,0.0289 0.01658,0.0427 0.01658,0.0427 l 0.373451,-0.97152 h 0.270089 l -0.738649,1.89205 h -0.288008 l 0.228777,-0.58429 z m 0,0"
       style="fill:#000000;fill-opacity:1;fill-rule:nonzero;stroke:none;stroke-width:0.35277778" />
    <path
       inkscape:connector-curvature="0"
       id="path3628"
       d="m 100.81313,178.39934 c -0.0937,0 -0.19981,-0.01 -0.29214,-0.022 -0.0937,-0.0124 -0.17363,-0.0289 -0.21911,-0.0455 l 0.0372,-0.21635 c 0.0386,0.011 0.11575,0.0262 0.20532,0.04 0.0882,0.0138 0.18881,0.0248 0.2715,0.0248 0.12675,0 0.20531,-0.011 0.25216,-0.04 0.0469,-0.0289 0.0606,-0.0785 0.0606,-0.15572 0,-0.0565 -0.0123,-0.0909 -0.0551,-0.11437 -0.0441,-0.0234 -0.11437,-0.0386 -0.23011,-0.0551 -0.20948,-0.0289 -0.3404,-0.0565 -0.4203,-0.11438 -0.0799,-0.0579 -0.10749,-0.14745 -0.10749,-0.30317 0,-0.14883 0.0482,-0.24667 0.13917,-0.30868 0.091,-0.0606 0.22599,-0.0854 0.40654,-0.0854 0.10057,0 0.20531,0.005 0.29488,0.0138 0.0882,0.008 0.15985,0.0207 0.19844,0.0303 l -0.04,0.22049 c -0.0441,-0.007 -0.12538,-0.0179 -0.21219,-0.0276 -0.0868,-0.01 -0.17918,-0.0152 -0.2467,-0.0152 -0.10058,0 -0.16673,0.01 -0.20669,0.0358 -0.04,0.0276 -0.0565,0.0675 -0.0565,0.12816 0,0.0662 0.0138,0.10473 0.0634,0.12816 0.0496,0.0234 0.13504,0.0358 0.27837,0.0524 0.1874,0.022 0.30731,0.0538 0.38033,0.11438 0.0731,0.0606 0.0992,0.14745 0.0992,0.28388 0,0.1819 -0.0524,0.29076 -0.15159,0.3514 -0.10061,0.062 -0.25082,0.0799 -0.44926,0.0799"
       style="fill:#000000;fill-opacity:1;fill-rule:nonzero;stroke:none;stroke-width:0.35277778" />
    <path
       inkscape:connector-curvature="0"
       id="path3630"
       d="m 102.23391,178.40623 c -0.22187,0 -0.3845,-0.0441 -0.49195,-0.15434 -0.10474,-0.11025 -0.15713,-0.28663 -0.15713,-0.55122 0,-0.2632 0.0538,-0.43821 0.16263,-0.54846 0.10887,-0.11024 0.27284,-0.15434 0.49745,-0.15434 0.0703,0 0.15022,0.007 0.22328,0.0165 0.0716,0.01 0.13779,0.022 0.18326,0.0331 l -0.0482,0.24115 c -0.0841,-0.0179 -0.21498,-0.0427 -0.36657,-0.0427 -0.11987,0 -0.20944,0.0152 -0.26871,0.0799 -0.0606,0.0648 -0.0896,0.17639 -0.0896,0.36794 0,0.19292 0.0317,0.31006 0.0923,0.37758 0.0606,0.0675 0.15159,0.0882 0.27009,0.0882 0.13229,0 0.26596,-0.0207 0.36519,-0.0469 l 0.051,0.23427 c -0.0565,0.0152 -0.12541,0.0303 -0.19843,0.0413 -0.073,0.011 -0.15159,0.0179 -0.22462,0.0179"
       style="fill:#000000;fill-opacity:1;fill-rule:nonzero;stroke:none;stroke-width:0.35277778" />
    <path
       inkscape:connector-curvature="0"
       id="path3632"
       d="m 103.28399,178.16232 c 0.0716,0 0.15155,-0.0179 0.22461,-0.0413 0.073,-0.0234 0.13642,-0.0537 0.17914,-0.0772 v -0.29903 c -0.16538,0 -0.27975,0.005 -0.36107,0.0152 -0.0827,0.01 -0.13088,0.0234 -0.16397,0.0413 -0.0275,0.0165 -0.0413,0.0427 -0.0496,0.0744 -0.008,0.0331 -0.01,0.0703 -0.01,0.10336 0,0.0758 0.0166,0.12126 0.0469,0.14744 0.0303,0.0276 0.0744,0.0358 0.1337,0.0358 m -0.11303,0.23151 c -0.0882,0 -0.17776,-0.022 -0.24391,-0.0841 -0.0675,-0.0606 -0.11162,-0.16399 -0.11162,-0.32522 0,-0.16123 0.0275,-0.27286 0.12129,-0.3266 0.073,-0.0427 0.16122,-0.0675 0.27972,-0.0813 0.11853,-0.0138 0.26874,-0.0152 0.47131,-0.0152 v -0.0593 c 0,-0.0937 -0.008,-0.15847 -0.0427,-0.20119 -0.0346,-0.0427 -0.0979,-0.0606 -0.20394,-0.0606 -0.19982,0 -0.35832,0.0276 -0.45339,0.0482 l -0.04,-0.23839 c 0.0827,-0.0165 0.2577,-0.0524 0.50024,-0.0524 0.19431,0 0.3266,0.0317 0.40929,0.10335 0.0813,0.073 0.11437,0.1888 0.11437,0.35829 v 0.91502 h -0.2274 l -0.0427,-0.1378 c -0.0346,0.0207 -0.10195,0.0606 -0.19428,0.0937 -0.0924,0.0345 -0.2081,0.0634 -0.33626,0.0634"
       style="fill:#000000;fill-opacity:1;fill-rule:nonzero;stroke:none;stroke-width:0.35277778" />
    <path
       inkscape:connector-curvature="0"
       id="path3634"
       d="m 104.27617,176.26062 h 0.28522 v 2.11391 h -0.28522 z m 0,0"
       style="fill:#000000;fill-opacity:1;fill-rule:nonzero;stroke:none;stroke-width:0.35277778" />
    <path
       inkscape:connector-curvature="0"
       id="path3636"
       d="m 105.70379,177.55598 c 0,-0.13367 -0.0208,-0.21911 -0.0689,-0.2701 -0.0496,-0.051 -0.124,-0.0689 -0.23011,-0.0689 -0.0827,0 -0.15434,0.0165 -0.20536,0.0675 -0.051,0.051 -0.084,0.13504 -0.0937,0.27147 z m -0.22874,0.85025 c -0.22736,0 -0.39412,-0.0441 -0.50299,-0.15434 -0.11024,-0.11025 -0.16259,-0.28663 -0.16259,-0.55122 0,-0.27147 0.0634,-0.44924 0.17085,-0.55948 0.10749,-0.10887 0.2577,-0.15021 0.43271,-0.15021 0.19431,0 0.3404,0.0372 0.43547,0.13505 0.0951,0.0978 0.1433,0.25356 0.1433,0.48921 v 0.12953 h -0.89157 c 0,0.17501 0.0358,0.27698 0.0992,0.33762 0.0634,0.0606 0.15712,0.0772 0.27837,0.0772 0.0661,0 0.14471,-0.004 0.21774,-0.011 0.0717,-0.007 0.14192,-0.0179 0.19156,-0.0303 l 0.0427,0.23426 c -0.0455,0.0124 -0.12129,0.0262 -0.20398,0.0358 -0.0827,0.011 -0.17364,0.0179 -0.25079,0.0179"
       style="fill:#000000;fill-opacity:1;fill-rule:nonzero;stroke:none;stroke-width:0.35277778" />
    <path
       inkscape:connector-curvature="0"
       id="path3638"
       d="m 98.453927,123.95029 c 0.06893,0 0.135079,-0.005 0.188807,-0.0372 0.05235,-0.0317 0.09232,-0.0909 0.111619,-0.20394 0.02187,-0.11025 0,-0.18191 -0.0441,-0.22324 -0.0441,-0.0427 -0.12125,-0.0551 -0.217735,-0.0551 h -0.381705 l -0.08957,0.51952 z m -0.0992,0.87368 c 0.07165,0 0.135044,-0.008 0.191559,-0.0441 0.05373,-0.0358 0.09232,-0.1006 0.11437,-0.21359 0.01799,-0.11576 0.0035,-0.19155 -0.04134,-0.23978 -0.04547,-0.0468 -0.119874,-0.062 -0.214983,-0.062 h -0.435469 l -0.0992,0.55948 z m -0.589809,-1.73219 h 0.724853 c 0.277001,0 0.468524,0.0358 0.58293,0.12402 0.11437,0.0882 0.150177,0.23013 0.110243,0.44786 -0.02469,0.13918 -0.06477,0.23427 -0.125413,0.30455 -0.06064,0.0689 -0.141958,0.10886 -0.245286,0.13642 0.09232,0.0317 0.172261,0.0827 0.220486,0.16261 0.04685,0.0841 0.06202,0.19706 0.03581,0.35416 -0.03856,0.21222 -0.112995,0.34588 -0.22599,0.42581 -0.11437,0.0841 -0.267335,0.11162 -0.456141,0.11162 h -0.985273 z m 0,0"
       style="fill:#000000;fill-opacity:1;fill-rule:nonzero;stroke:none;stroke-width:0.35277778" />
    <path
       inkscape:connector-curvature="0"
       id="path3640"
       d="m 99.732747,123.09315 h 0.417553 l -0.365166,2.0643 h -0.417547 z m 0,0"
       style="fill:#000000;fill-opacity:1;fill-rule:nonzero;stroke:none;stroke-width:0.35277778" />
    <path
       inkscape:connector-curvature="0"
       id="path3642"
       d="m 101.01848,123.45695 h -0.64354 l 0.0648,-0.3638 h 1.69912 l -0.0648,0.3638 h -0.64357 l -0.29901,1.7005 h -0.4148 z m 0,0"
       style="fill:#000000;fill-opacity:1;fill-rule:nonzero;stroke:none;stroke-width:0.35277778" />
    <path
       inkscape:connector-curvature="0"
       id="path3644"
       d="m 102.85815,125.18088 c -0.17089,0 -0.33761,-0.0193 -0.48094,-0.0413 -0.14468,-0.0248 -0.26596,-0.0551 -0.34312,-0.0841 l 0.13367,-0.35002 c 0.0455,0.0165 0.15434,0.0468 0.28251,0.073 0.12816,0.0276 0.27696,0.0496 0.40788,0.0496 0.10061,0 0.16951,-0.007 0.21773,-0.0372 0.0482,-0.0289 0.0758,-0.0868 0.0937,-0.1943 0.0166,-0.0965 0.0166,-0.14883 -0.0275,-0.19017 -0.0441,-0.0427 -0.13367,-0.0703 -0.29489,-0.11713 -0.17226,-0.0524 -0.3018,-0.0978 -0.39274,-0.15021 -0.091,-0.0537 -0.14609,-0.11713 -0.17089,-0.20257 -0.0247,-0.0868 -0.0219,-0.1943 0.006,-0.34589 0.0386,-0.2136 0.12541,-0.34589 0.25083,-0.42306 0.12537,-0.0785 0.28663,-0.10059 0.47402,-0.10059 0.13783,0 0.28664,0.0138 0.41893,0.0331 0.13091,0.0207 0.24391,0.0455 0.31422,0.0689 l -0.12129,0.34864 c -0.0661,-0.0165 -0.17364,-0.0386 -0.29351,-0.0565 -0.11991,-0.0179 -0.2522,-0.033 -0.36382,-0.033 -0.0827,0 -0.13917,0.01 -0.18052,0.04 -0.0413,0.0289 -0.0661,0.0827 -0.0813,0.16537 -0.0166,0.0992 -0.0152,0.15296 0.0289,0.19292 0.0427,0.0413 0.12676,0.0703 0.2811,0.11438 0.17639,0.0524 0.3073,0.0965 0.40241,0.14745 0.0937,0.0537 0.15159,0.11438 0.17914,0.19981 0.0261,0.0854 0.0233,0.19707 -0.004,0.34865 -0.0427,0.23013 -0.12541,0.36793 -0.24945,0.4451 -0.124,0.0772 -0.28938,0.0992 -0.48782,0.0992"
       style="fill:#000000;fill-opacity:1;fill-rule:nonzero;stroke:none;stroke-width:0.35277778" />
    <path
       inkscape:connector-curvature="0"
       id="path3646"
       d="m 109.85585,108.44598 h -0.24808 v -0.26045 h 0.55676 v 1.54892 h -0.30868 z m 0,0"
       style="fill:#000000;fill-opacity:1;fill-rule:nonzero;stroke:none;stroke-width:0.35277778" />
    <path
       inkscape:connector-curvature="0"
       id="path3648"
       d="m 110.41119,109.50018 0.45198,-0.38998 c 0.0979,-0.0841 0.16676,-0.14332 0.21361,-0.19155 0.0455,-0.0482 0.0717,-0.0868 0.0854,-0.12953 0.0138,-0.0413 0.0166,-0.0896 0.0166,-0.15434 0,-0.0744 -0.0152,-0.12541 -0.0565,-0.1571 -0.0427,-0.0317 -0.113,-0.0455 -0.22874,-0.0455 -0.091,0 -0.18193,0.007 -0.25771,0.0165 -0.0758,0.008 -0.13367,0.0193 -0.16259,0.0262 l -0.0413,-0.26459 c 0.0496,-0.0138 0.12538,-0.0262 0.20944,-0.0358 0.0841,-0.008 0.17364,-0.0152 0.25633,-0.0152 0.22462,0 0.36933,0.0276 0.46027,0.0992 0.0896,0.0703 0.12125,0.18604 0.12125,0.35967 0,0.0937 -0.008,0.16261 -0.0303,0.22325 -0.0208,0.062 -0.0593,0.11575 -0.11712,0.17776 -0.0565,0.062 -0.13646,0.13229 -0.24395,0.22876 l -0.26317,0.23289 h 0.70277 v 0.25356 h -1.11619 z m 0,0"
       style="fill:#000000;fill-opacity:1;fill-rule:nonzero;stroke:none;stroke-width:0.35277778" />
    <path
       inkscape:connector-curvature="0"
       id="path3650"
       d="m 109.75661,115.33893 h -0.24804 v -0.26045 h 0.55672 v 1.54892 h -0.30868 z m 0,0"
       style="fill:#000000;fill-opacity:1;fill-rule:nonzero;stroke:none;stroke-width:0.35277778" />
    <path
       inkscape:connector-curvature="0"
       id="path3652"
       d="m 111.0809,116.32423 h -0.78133 v -0.28663 l 0.59531,-0.96463 h 0.31281 l -0.61186,0.99494 h 0.48507 v -0.44097 h 0.30043 v 0.44097 h 0.17776 v 0.25632 h -0.17776 v 0.30317 h -0.30043 z m 0,0"
       style="fill:#000000;fill-opacity:1;fill-rule:nonzero;stroke:none;stroke-width:0.35277778" />
    <path
       inkscape:connector-curvature="0"
       id="path3654"
       d="m 95.601401,103.00963 h -0.854392 v -0.27286 h 1.171328 v 0.27423 l -0.592526,1.27468 h -0.343146 z m 0,0"
       style="fill:#000000;fill-opacity:1;fill-rule:nonzero;stroke:none;stroke-width:0.35277778" />
    <path
       inkscape:connector-curvature="0"
       id="path3656"
       d="m 104.95968,102.99722 h -0.24807 v -0.26045 h 0.55675 v 1.54891 h -0.30868 z m 0,0"
       style="fill:#000000;fill-opacity:1;fill-rule:nonzero;stroke:none;stroke-width:0.35277778" />
    <path
       inkscape:connector-curvature="0"
       id="path3658"
       d="m 106.18611,104.04728 c 0.11991,0 0.20257,-0.0248 0.2522,-0.0965 0.051,-0.0689 0.0717,-0.18052 0.0717,-0.35553 v -0.1695 c 0,-0.17363 -0.0219,-0.28663 -0.073,-0.35553 -0.0524,-0.0675 -0.13508,-0.091 -0.25633,-0.091 -0.1199,0 -0.20118,0.0234 -0.2522,0.0896 -0.0496,0.0675 -0.0703,0.17776 -0.0703,0.35277 v 0.1695 c 0,0.17363 0.0219,0.28801 0.0744,0.35829 0.051,0.0703 0.13367,0.0978 0.25354,0.0978 m -0.006,0.26458 c -0.15158,0 -0.27146,-0.0207 -0.36657,-0.0703 -0.0951,-0.051 -0.16259,-0.12953 -0.20807,-0.24804 -0.0441,-0.11989 -0.0634,-0.27699 -0.0634,-0.48369 0,-0.31006 0.0482,-0.50988 0.15022,-0.63252 0.10333,-0.12265 0.26458,-0.16675 0.49332,-0.16675 0.22737,0 0.38725,0.0441 0.49057,0.16537 0.10337,0.11989 0.14884,0.3197 0.14884,0.62976 0,0.31006 -0.0482,0.51263 -0.15159,0.63528 -0.10333,0.12402 -0.26458,0.17087 -0.49332,0.17087"
       style="fill:#000000;fill-opacity:1;fill-rule:nonzero;stroke:none;stroke-width:0.35277778" />
    <path
       inkscape:connector-curvature="0"
       id="path3660"
       d="m 90.250468,109.50294 c 0.220486,-0.008 0.383117,-0.0179 0.498863,-0.0345 0.115747,-0.0165 0.190183,-0.04 0.230117,-0.073 0.05101,-0.0358 0.06339,-0.10611 0.06339,-0.18328 0,-0.0744 -0.01658,-0.1378 -0.06061,-0.17225 -0.03722,-0.0289 -0.111619,-0.0551 -0.232904,-0.0758 -0.12125,-0.0207 -0.289383,-0.0372 -0.512621,-0.0413 l 0.02081,-0.73725 H 91.2497 v 0.27285 h -0.730356 l -0.0085,0.23289 c 0.199814,0.0124 0.351402,0.0344 0.465773,0.0648 0.112994,0.0303 0.188806,0.0675 0.241159,0.11024 0.04964,0.0413 0.08132,0.091 0.09924,0.1502 0.0194,0.0593 0.02328,0.12541 0.02328,0.20395 0,0.1447 -0.02328,0.2577 -0.101988,0.33211 -0.05786,0.0661 -0.155717,0.11576 -0.310057,0.14745 -0.155716,0.0331 -0.369323,0.0524 -0.658707,0.0606 z m 0,0"
       style="fill:#000000;fill-opacity:1;fill-rule:nonzero;stroke:none;stroke-width:0.35277778" />
    <path
       inkscape:connector-curvature="0"
       id="path3662"
       d="m 90.244965,116.39589 c 0.220486,-0.008 0.383116,-0.0193 0.498863,-0.0372 0.117122,-0.0165 0.190147,-0.04 0.231493,-0.0717 0.04964,-0.0386 0.06202,-0.10473 0.06202,-0.1819 0,-0.0744 -0.01517,-0.13368 -0.05927,-0.16812 -0.03856,-0.0289 -0.09232,-0.0455 -0.155717,-0.0579 -0.06198,-0.0124 -0.136419,-0.0207 -0.213571,-0.0289 v -0.1943 l 0.308681,-0.3073 H 90.22154 v -0.2701 h 1.022491 v 0.26872 l -0.330729,0.32798 c 0.124037,0.0234 0.232904,0.0606 0.303178,0.11851 0.08957,0.0703 0.118533,0.17363 0.118533,0.3197 0,0.1447 -0.02328,0.25632 -0.101988,0.33073 -0.05789,0.0661 -0.15434,0.11438 -0.308681,0.14746 -0.155716,0.0344 -0.370699,0.0537 -0.660082,0.062 z m 0,0"
       style="fill:#000000;fill-opacity:1;fill-rule:nonzero;stroke:none;stroke-width:0.35277778" />
    <path
       inkscape:connector-curvature="0"
       id="path3664"
       d="m 90.730034,171.29279 c -0.141922,0 -0.265959,-0.0138 -0.367947,-0.0579 -0.103329,-0.0427 -0.183268,-0.11576 -0.238372,-0.23289 -0.05514,-0.11851 -0.08407,-0.27974 -0.08407,-0.50436 0,-0.22325 0.03175,-0.38723 0.08682,-0.50574 0.05648,-0.11714 0.136419,-0.19017 0.239783,-0.23427 0.103329,-0.0441 0.22599,-0.0579 0.367912,-0.0579 0.128164,0 0.21911,0.008 0.289384,0.0165 0.03457,0.005 0.06477,0.011 0.08961,0.0165 0.02469,0.005 0.04685,0.01 0.06336,0.0124 l -0.05373,0.26458 c -0.05652,-0.008 -0.114371,-0.0179 -0.177765,-0.0248 -0.06202,-0.007 -0.133668,-0.011 -0.214983,-0.011 -0.136419,0 -0.227365,0.0276 -0.28388,0.0992 -0.05786,0.0703 -0.0799,0.18604 -0.0799,0.36242 v 0.11576 c 0,0.17226 0.02328,0.29077 0.08128,0.36656 0.05789,0.0758 0.150213,0.10886 0.286632,0.10886 0.100612,0 0.187431,-0.01 0.254952,-0.0193 0.03316,-0.004 0.06064,-0.01 0.08407,-0.0152 0.02328,-0.005 0.04135,-0.008 0.05235,-0.011 l 0.05098,0.26045 c -0.04131,0.0138 -0.09095,0.0262 -0.161219,0.0345 -0.07165,0.01 -0.16122,0.0165 -0.285256,0.0165"
       style="fill:#ffffff;fill-opacity:1;fill-rule:nonzero;stroke:none;stroke-width:0.35277778" />
    <path
       inkscape:connector-curvature="0"
       id="path3666"
       d="m 91.441093,169.72321 h 0.311468 v 1.28295 h 0.755156 v 0.26596 h -1.066624 z m 0,0"
       style="fill:#ffffff;fill-opacity:1;fill-rule:nonzero;stroke:none;stroke-width:0.35277778" />
    <path
       inkscape:connector-curvature="0"
       id="path3668"
       d="m 93.404796,171.03372 c 0.133702,0 0.231527,-0.0262 0.294922,-0.10059 0.06477,-0.073 0.0937,-0.19155 0.0937,-0.37758 v -0.11576 c 0,-0.18466 -0.03175,-0.30455 -0.09645,-0.3762 -0.06477,-0.073 -0.162631,-0.0979 -0.296298,-0.0979 -0.133668,0 -0.230117,0.0248 -0.294887,0.0951 -0.06339,0.0717 -0.09507,0.18879 -0.09507,0.3762 v 0.11438 c 0,0.18603 0.03175,0.3073 0.09783,0.38034 0.06477,0.0744 0.162595,0.10197 0.296263,0.10197 m -0.0042,0.26459 c -0.140547,0 -0.268711,-0.0152 -0.374827,-0.0593 -0.106115,-0.0427 -0.190147,-0.11576 -0.248038,-0.23564 -0.05927,-0.11852 -0.09232,-0.2825 -0.09232,-0.50574 0,-0.22325 0.03316,-0.38723 0.09232,-0.50574 0.05789,-0.11852 0.144709,-0.19293 0.252166,-0.23702 0.107491,-0.0427 0.232904,-0.0579 0.374826,-0.0579 0.140582,0 0.26737,0.0138 0.373451,0.0579 0.106115,0.0427 0.191558,0.11437 0.250825,0.23288 0.05786,0.11851 0.09095,0.2825 0.09095,0.50574 0,0.22325 -0.03175,0.38723 -0.09232,0.50574 -0.05927,0.11989 -0.146086,0.19431 -0.252201,0.23978 -0.107492,0.0455 -0.234245,0.0593 -0.374827,0.0593"
       style="fill:#ffffff;fill-opacity:1;fill-rule:nonzero;stroke:none;stroke-width:0.35277778" />
    <path
       inkscape:connector-curvature="0"
       id="path3670"
       d="m 95.046059,171.29279 c -0.141958,0 -0.265959,-0.0138 -0.367947,-0.0579 -0.103329,-0.0427 -0.183269,-0.11576 -0.238408,-0.23289 -0.05373,-0.11851 -0.08266,-0.27974 -0.08266,-0.50436 0,-0.22325 0.03034,-0.38723 0.08682,-0.50574 0.0551,-0.11714 0.13642,-0.19017 0.239748,-0.23427 0.101988,-0.0441 0.226025,-0.0579 0.367947,-0.0579 0.126788,0 0.21911,0.008 0.289384,0.0165 0.03316,0.005 0.06339,0.011 0.08819,0.0165 0.02469,0.005 0.04685,0.01 0.06477,0.0124 l -0.05373,0.26458 c -0.05789,-0.008 -0.115746,-0.0179 -0.179141,-0.0248 -0.06202,-0.007 -0.132291,-0.011 -0.214982,-0.011 -0.135043,0 -0.227365,0.0276 -0.28388,0.0992 -0.05789,0.0703 -0.07994,0.18604 -0.07994,0.36242 v 0.11576 c 0,0.17226 0.02328,0.29077 0.08132,0.36656 0.05789,0.0758 0.151588,0.10886 0.288007,0.10886 0.09924,0 0.186055,-0.01 0.253577,-0.0193 0.03316,-0.004 0.06061,-0.01 0.08544,-0.0152 0.02187,-0.005 0.03993,-0.008 0.05098,-0.011 l 0.05235,0.26045 c -0.04272,0.0138 -0.09095,0.0262 -0.161219,0.0345 -0.07165,0.01 -0.162596,0.0165 -0.286632,0.0165"
       style="fill:#ffffff;fill-opacity:1;fill-rule:nonzero;stroke:none;stroke-width:0.35277778" />
    <path
       inkscape:connector-curvature="0"
       id="path3672"
       d="m 96.670777,169.72321 h 0.347239 l -0.588398,0.62287 0.62424,0.92604 h -0.363819 l -0.4699,-0.70418 -0.144675,0.15159 v 0.55259 h -0.312843 v -1.54891 h 0.312843 v 0.62563 z m 0,0"
       style="fill:#ffffff;fill-opacity:1;fill-rule:nonzero;stroke:none;stroke-width:0.35277778" />
    <path
       inkscape:connector-curvature="0"
       id="path3674"
       d="m 105.48885,171.29279 c -0.14196,0 -0.266,-0.0138 -0.36795,-0.0579 -0.10336,-0.0427 -0.18327,-0.11576 -0.23703,-0.23289 -0.0551,-0.11851 -0.0841,-0.27974 -0.0841,-0.50436 0,-0.22325 0.0303,-0.38723 0.0868,-0.50574 0.0551,-0.11714 0.13642,-0.19017 0.23978,-0.23427 0.10199,-0.0441 0.22599,-0.0579 0.36795,-0.0579 0.12679,0 0.21911,0.008 0.28938,0.0165 0.0346,0.005 0.0634,0.011 0.0882,0.0165 0.0247,0.005 0.0468,0.01 0.0648,0.0124 l -0.0538,0.26458 c -0.0565,-0.008 -0.11437,-0.0179 -0.17776,-0.0248 -0.0634,-0.007 -0.13367,-0.011 -0.21633,-0.011 -0.13508,0 -0.22602,0.0276 -0.28388,0.0992 -0.0565,0.0703 -0.0799,0.18604 -0.0799,0.36242 v 0.11576 c 0,0.17226 0.0233,0.29077 0.0813,0.36656 0.0579,0.0758 0.15159,0.10886 0.28801,0.10886 0.10058,0 0.1874,-0.01 0.25354,-0.0193 0.0332,-0.004 0.062,-0.01 0.0854,-0.0152 0.0219,-0.005 0.04,-0.008 0.051,-0.011 l 0.0524,0.26045 c -0.0413,0.0138 -0.091,0.0262 -0.16122,0.0345 -0.0717,0.01 -0.16263,0.0165 -0.28663,0.0165"
       style="fill:#ffffff;fill-opacity:1;fill-rule:nonzero;stroke:none;stroke-width:0.35277778" />
    <path
       inkscape:connector-curvature="0"
       id="path3676"
       d="m 106.65601,169.99606 h -0.50295 v -0.27285 h 1.316 v 0.27285 h -0.50158 v 1.27606 h -0.31147 z m 0,0"
       style="fill:#ffffff;fill-opacity:1;fill-rule:nonzero;stroke:none;stroke-width:0.35277778" />
    <path
       inkscape:connector-curvature="0"
       id="path3678"
       d="m 108.33449,170.52798 c 0.0827,0 0.1488,-0.011 0.1929,-0.051 0.0441,-0.0386 0.0675,-0.10611 0.0675,-0.22462 0,-0.11989 -0.0261,-0.18742 -0.0717,-0.226 -0.0468,-0.0386 -0.11299,-0.0469 -0.19293,-0.0469 h -0.30452 v 0.54846 z m 0.67247,0.74414 h -0.35553 l -0.33211,-0.49195 h -0.29351 v 0.49195 h -0.31005 v -1.54891 h 0.61873 c 0.19153,0 0.33486,0.022 0.42993,0.0992 0.0951,0.0772 0.14196,0.20946 0.14196,0.42581 0,0.15159 -0.0247,0.25494 -0.0703,0.32798 -0.0455,0.0716 -0.11574,0.11299 -0.20531,0.13504 z m 0,0"
       style="fill:#ffffff;fill-opacity:1;fill-rule:nonzero;stroke:none;stroke-width:0.35277778" />
    <path
       inkscape:connector-curvature="0"
       id="path3680"
       d="m 109.25362,169.72321 h 0.31006 v 1.28295 h 0.75519 v 0.26596 h -1.06525 z m 0,0"
       style="fill:#ffffff;fill-opacity:1;fill-rule:nonzero;stroke:none;stroke-width:0.35277778" />
    <path
       inkscape:connector-curvature="0"
       id="path3682"
       d="m 91.48519,96.593478 c -0.129504,0 -0.24391,-0.01378 -0.337608,-0.05237 -0.09507,-0.03996 -0.168134,-0.107487 -0.217734,-0.214974 -0.0496,-0.107485 -0.07715,-0.256316 -0.07715,-0.461643 0,-0.205327 0.02893,-0.355534 0.0799,-0.464399 0.05101,-0.107484 0.125412,-0.17363 0.220486,-0.214974 0.09236,-0.03996 0.206728,-0.05237 0.336268,-0.05237 0.117122,0 0.201189,0.0069 0.265959,0.01516 0.03034,0.0055 0.05786,0.01101 0.08128,0.01516 0.02187,0.0041 0.04272,0.0096 0.05927,0.01241 l -0.0496,0.242535 c -0.05239,-0.0083 -0.106116,-0.01791 -0.162631,-0.02341 -0.05923,-0.0069 -0.122625,-0.01101 -0.198437,-0.01101 -0.124002,0 -0.208069,0.02617 -0.260421,0.09095 -0.05239,0.06477 -0.07306,0.170878 -0.07306,0.333486 v 0.104733 c 0,0.158475 0.02187,0.267337 0.07444,0.336238 0.05373,0.06891 0.139171,0.100599 0.263208,0.100599 0.09232,0 0.172226,-0.0096 0.232868,-0.01791 0.03034,-0.0041 0.05652,-0.0096 0.07856,-0.01378 0.02081,-0.0055 0.03718,-0.0083 0.04685,-0.0097 l 0.04823,0.2384 c -0.03859,0.01101 -0.08407,0.02342 -0.148837,0.03171 -0.06477,0.0083 -0.148801,0.01516 -0.261831,0.01516"
       style="fill:#ffffff;fill-opacity:1;fill-rule:nonzero;stroke:none;stroke-width:0.35277778" />
    <path
       inkscape:connector-curvature="0"
       id="path3684"
       d="m 109.25775,95.149295 h 0.28525 v 1.175467 h 0.69318 v 0.243909 h -0.97843 z m 0,0"
       style="fill:#ffffff;fill-opacity:1;fill-rule:nonzero;stroke:none;stroke-width:0.35277778" />
    <path
       inkscape:connector-curvature="0"
       id="path3686"
       d="M 91.452135,120.92274 H 91.22477 v -0.2384 h 0.50987 v 1.41938 h -0.282505 z m 0,0"
       style="fill:#ffffff;fill-opacity:1;fill-rule:nonzero;stroke:none;stroke-width:0.35277778" />
    <path
       inkscape:connector-curvature="0"
       id="path3688"
       d="m 108.8595,120.92412 h -0.22737 v -0.2384 h 0.51125 v 1.42076 h -0.28388 z m 0,0"
       style="fill:#ffffff;fill-opacity:1;fill-rule:nonzero;stroke:none;stroke-width:0.35277778" />
    <path
       inkscape:connector-curvature="0"
       id="path3690"
       d="m 110.01019,121.90804 c 0.11024,0 0.18051,-0.011 0.22461,-0.0482 0.0455,-0.0372 0.0606,-0.0965 0.0606,-0.1943 0,-0.0827 -0.01,-0.13643 -0.04,-0.17088 -0.0318,-0.0331 -0.0868,-0.0455 -0.17776,-0.0455 -0.0703,0 -0.13921,0.004 -0.19982,0.011 -0.0606,0.008 -0.11303,0.0193 -0.15434,0.0275 v 0.12126 c 0,0.11714 0.0166,0.19155 0.0592,0.23703 0.0441,0.0455 0.11578,0.062 0.2274,0.062 m -0.004,0.2191 c -0.16534,0 -0.28247,-0.0193 -0.36378,-0.062 -0.0827,-0.0427 -0.13092,-0.11024 -0.15847,-0.20532 -0.0275,-0.0951 -0.0358,-0.21911 -0.0358,-0.37483 v -0.12816 c 0,-0.12815 0.008,-0.22737 0.0289,-0.3073 0.0208,-0.0799 0.0565,-0.14056 0.11441,-0.18879 0.11437,-0.0992 0.3817,-0.16398 0.80338,-0.19982 l 0.0303,0.23427 c -0.2122,0.0262 -0.35553,0.0468 -0.45749,0.0689 -0.10198,0.0234 -0.15987,0.0496 -0.19431,0.0813 -0.0303,0.0248 -0.0427,0.0606 -0.0468,0.1006 -0.004,0.0207 -0.004,0.0427 -0.004,0.0661 v 0.0675 c 0.0317,-0.008 0.0951,-0.022 0.16673,-0.0317 0.0703,-0.008 0.15021,-0.0152 0.21085,-0.0152 0.12817,0 0.22324,0.007 0.29214,0.0303 0.0689,0.0234 0.11299,0.0634 0.13917,0.12678 0.0261,0.0634 0.0358,0.15021 0.0358,0.27009 0,0.0992 -0.01,0.18466 -0.04,0.25356 -0.0303,0.0689 -0.0827,0.12265 -0.16535,0.15986 -0.0827,0.0358 -0.19844,0.0537 -0.35556,0.0537"
       style="fill:#ffffff;fill-opacity:1;fill-rule:nonzero;stroke:none;stroke-width:0.35277778" />
    <path
       inkscape:connector-curvature="0"
       id="path3692"
       d="m 107.48423,149.50326 -6.48642,-3.13642 c -0.25083,-0.12127 -0.45752,-0.44924 -0.45752,-0.72898 v -3.40376"
       style="fill:none;stroke:#000000;stroke-width:0.35277778;stroke-linecap:butt;stroke-linejoin:miter;stroke-miterlimit:10;stroke-opacity:1" />
    <path
       inkscape:connector-curvature="0"
       id="path3694"
       d="m 92.681354,95.868631 h 2.295807 c 0.183268,0 0.409258,-0.128159 0.502991,-0.286634 l 4.893418,-8.324728 c 0.0923,-0.157097 0.24253,-0.155718 0.3321,0.0028 l 4.71841,8.319219 c 0.0909,0.159856 0.31418,0.289391 0.49745,0.289391 h 2.3041"
       style="fill:none;stroke:#000000;stroke-width:0.35277778;stroke-linecap:butt;stroke-linejoin:miter;stroke-miterlimit:10;stroke-opacity:1" />
    <path
       inkscape:connector-curvature="0"
       id="path3696"
       d="m 92.817773,121.39403 h 2.295808 c 0.183268,0 0.407881,-0.13091 0.498863,-0.28938 l 4.763876,-8.3206 c 0.0909,-0.15848 0.24116,-0.15985 0.33348,-10e-4 l 4.84657,8.32335 c 0.0937,0.15847 0.31831,0.28801 0.50158,0.28801 h 2.3041"
       style="fill:none;stroke:#000000;stroke-width:0.35277778;stroke-linecap:butt;stroke-linejoin:miter;stroke-miterlimit:10;stroke-opacity:1" />
    <path
       inkscape:connector-curvature="0"
       id="path3698"
       d="m 98.535243,163.80591 c 0,2.76159 -2.237917,4.99953 -4.999532,4.99953 -2.76158,0 -5.000872,-2.23794 -5.000872,-4.99953 0,-2.76159 2.239292,-5.0009 5.000872,-5.0009 2.761615,0 4.999532,2.23931 4.999532,5.0009"
       style="fill:#000000;fill-opacity:1;fill-rule:nonzero;stroke:none;stroke-width:0.35277778" />
    <path
       inkscape:connector-curvature="0"
       id="path3700"
       d="m 112.54162,163.80591 c 0,2.76159 -2.2393,4.99953 -4.9995,4.99953 -2.76162,0 -5.00091,-2.23794 -5.00091,-4.99953 0,-2.76159 2.23929,-5.0009 5.00091,-5.0009 2.7602,0 4.9995,2.23931 4.9995,5.0009"
       style="fill:#000000;fill-opacity:1;fill-rule:nonzero;stroke:none;stroke-width:0.35277778" />
  </g>
  <g
     inkscape:groupmode="layer"
     id="layer6"
     inkscape:label="widgets"
     style="display:none">
    <circle
       style="display:inline;opacity:1;vector-effect:none;fill:#ff0000;fill-opacity:1;fill-rule:evenodd;stroke:none;stroke-width:1;stroke-linecap:butt;stroke-linejoin:miter;stroke-miterlimit:4;stroke-dasharray:none;stroke-dashoffset:0;stroke-opacity:1;paint-order:normal"
       id="path67332"
       cx="15.416113"
       cy="32.829697"
       r="4.2763124" />
    <rect
       style="display:inline;opacity:1;vector-effect:none;fill:#ffff00;fill-opacity:1;fill-rule:evenodd;stroke:none;stroke-width:0.58691031;stroke-linecap:butt;stroke-linejoin:miter;stroke-miterlimit:4;stroke-dasharray:none;stroke-dashoffset:0;stroke-opacity:1;paint-order:normal"
       id="rect67430"
       width="25.984291"
       height="4.5241013"
       x="2.4239633"
       y="15.563565" />
    <circle
       style="display:inline;opacity:1;vector-effect:none;fill:#ff0000;fill-opacity:1;fill-rule:evenodd;stroke:none;stroke-width:1;stroke-linecap:butt;stroke-linejoin:miter;stroke-miterlimit:4;stroke-dasharray:none;stroke-dashoffset:0;stroke-opacity:1;paint-order:normal"
       id="path67332-4"
       cx="15.416113"
       cy="58.272419"
       r="4.2763124" />
    <circle
       style="display:inline;opacity:1;vector-effect:none;fill:#ff0000;fill-opacity:1;fill-rule:evenodd;stroke:none;stroke-width:1;stroke-linecap:butt;stroke-linejoin:miter;stroke-miterlimit:4;stroke-dasharray:none;stroke-dashoffset:0;stroke-opacity:1;paint-order:normal"
       id="path67332-3"
       cx="8.4163647"
       cy="81.377289"
       r="4.2763124" />
    <circle
       style="display:inline;opacity:1;vector-effect:none;fill:#ff0000;fill-opacity:1;fill-rule:evenodd;stroke:none;stroke-width:1;stroke-linecap:butt;stroke-linejoin:miter;stroke-miterlimit:4;stroke-dasharray:none;stroke-dashoffset:0;stroke-opacity:1;paint-order:normal"
       id="path67332-9"
       cx="22.415854"
       cy="81.377289"
       r="4.2763124" />
    <circle
       r="1.252503"
       cy="88.325363"
       cx="15.416113"
       id="circle67398"
       style="display:inline;opacity:1;vector-effect:none;fill:#ff00ff;fill-opacity:1;fill-rule:evenodd;stroke:none;stroke-width:0.2928932;stroke-linecap:butt;stroke-linejoin:miter;stroke-miterlimit:4;stroke-dasharray:none;stroke-dashoffset:0;stroke-opacity:1;paint-order:normal" />
    <circle
       r="4.2763124"
       cy="95.332001"
       cx="8.4163647"
       id="circle67346"
       style="display:inline;opacity:1;vector-effect:none;fill:#0000ff;fill-opacity:1;fill-rule:evenodd;stroke:none;stroke-width:1;stroke-linecap:butt;stroke-linejoin:miter;stroke-miterlimit:4;stroke-dasharray:none;stroke-dashoffset:0;stroke-opacity:1;paint-order:normal" />
    <circle
       r="4.2763124"
       cy="95.332001"
       cx="22.41654"
       id="circle67346-0"
       style="display:inline;opacity:1;vector-effect:none;fill:#0000ff;fill-opacity:1;fill-rule:evenodd;stroke:none;stroke-width:1;stroke-linecap:butt;stroke-linejoin:miter;stroke-miterlimit:4;stroke-dasharray:none;stroke-dashoffset:0;stroke-opacity:1;paint-order:normal" />
    <circle
       style="display:inline;opacity:1;vector-effect:none;fill:#00ff00;fill-opacity:1;fill-rule:evenodd;stroke:none;stroke-width:1;stroke-linecap:butt;stroke-linejoin:miter;stroke-miterlimit:4;stroke-dasharray:none;stroke-dashoffset:0;stroke-opacity:1;paint-order:normal"
       id="circle67396"
       cx="22.415854"
       cy="109.33217"
       r="4.2763124" />
    <circle
       r="4.2763124"
       cy="109.63603"
       cx="8.409483"
       id="circle67652"
       style="display:inline;opacity:1;vector-effect:none;fill:#00ff00;fill-opacity:1;fill-rule:evenodd;stroke:none;stroke-width:1;stroke-linecap:butt;stroke-linejoin:miter;stroke-miterlimit:4;stroke-dasharray:none;stroke-dashoffset:0;stroke-opacity:1;paint-order:normal" />
  </g>
</svg>
