<?xml version="1.0" encoding="UTF-8" standalone="no"?>
<svg
   xmlns:dc="http://purl.org/dc/elements/1.1/"
   xmlns:cc="http://creativecommons.org/ns#"
   xmlns:rdf="http://www.w3.org/1999/02/22-rdf-syntax-ns#"
   xmlns:svg="http://www.w3.org/2000/svg"
   xmlns="http://www.w3.org/2000/svg"
   xmlns:sodipodi="http://sodipodi.sourceforge.net/DTD/sodipodi-0.dtd"
   xmlns:inkscape="http://www.inkscape.org/namespaces/inkscape"
   width="5.200717mm"
   height="5.1993399mm"
   viewBox="0 0 5.200717 5.1993399"
   version="1.1"
   id="svg12737"
   sodipodi:docname="TL1105_White_1.svg"
   inkscape:version="1.0 (4035a4fb49, 2020-05-01)">
  <defs
     id="defs12731">
    <clipPath
       id="clip422">
      <rect
         id="rect4393"
         height="8"
         width="15"
         y="0"
         x="0" />
    </clipPath>
    <clipPath
       id="clip423">
      <path
         id="path4390"
         d="M 0.816406,0.648438 H 14.136719 V 7.601562 H 0.816406 Z m 0,0" />
    </clipPath>
    <mask
       id="mask212">
      <g
         id="g4387"
         filter="url(#alpha)"
         transform="scale(0.26458333)">
        <rect
           id="rect4385"
           style="fill:#000000;fill-opacity:0.330002;stroke:none"
           height="3351.5"
           width="3052.8701"
           y="0"
           x="0" />
      </g>
    </mask>
    <filter
       height="1"
       width="1"
       y="0"
       x="0"
       filterUnits="objectBoundingBox"
       id="alpha">
      <feColorMatrix
         id="feColorMatrix567"
         values="0 0 0 0 1 0 0 0 0 1 0 0 0 0 1 0 0 0 1 0"
         in="SourceGraphic"
         type="matrix" />
    </filter>
    <clipPath
       id="clipPath13081">
      <rect
         id="rect13079"
         height="8"
         width="15"
         y="0"
         x="0" />
    </clipPath>
    <clipPath
       id="clipPath13085">
      <path
         id="path13083"
         d="M 0.816406,0.648438 H 14.136719 V 7.601562 H 0.816406 Z m 0,0" />
    </clipPath>
  </defs>
  <sodipodi:namedview
     id="base"
     pagecolor="#ffffff"
     bordercolor="#666666"
     borderopacity="1.0"
     inkscape:pageopacity="0.0"
     inkscape:pageshadow="2"
     inkscape:zoom="11.2"
     inkscape:cx="21.286343"
     inkscape:cy="12.034609"
     inkscape:document-units="mm"
     inkscape:current-layer="layer1"
     inkscape:document-rotation="0"
     showgrid="false"
     inkscape:snap-bbox="true"
     inkscape:snap-nodes="false"
     inkscape:bbox-paths="true"
     inkscape:bbox-nodes="true"
     inkscape:snap-bbox-edge-midpoints="true"
     inkscape:snap-bbox-midpoints="true"
     inkscape:window-width="1600"
     inkscape:window-height="882"
     inkscape:window-x="0"
     inkscape:window-y="18"
     inkscape:window-maximized="1"
     fit-margin-top="0"
     fit-margin-left="0"
     fit-margin-right="0"
     fit-margin-bottom="0" />
  <metadata
     id="metadata12734">
    <rdf:RDF>
      <cc:Work
         rdf:about="">
        <dc:format>image/svg+xml</dc:format>
        <dc:type
           rdf:resource="http://purl.org/dc/dcmitype/StillImage" />
        <dc:title></dc:title>
      </cc:Work>
    </rdf:RDF>
  </metadata>
  <g
     inkscape:label="Layer 1"
     inkscape:groupmode="layer"
     id="layer1"
     transform="translate(-55.607975,-109.28128)">
    <path
       style="fill:#000000;fill-opacity:1;fill-rule:nonzero;stroke:none;stroke-width:0.352777"
       d="m 60.808692,111.88164 c 0,1.43591 -1.164442,2.59898 -2.600357,2.59898 -1.435915,0 -2.60036,-1.16307 -2.60036,-2.59898 0,-1.43592 1.164445,-2.60036 2.60036,-2.60036 1.435915,0 2.600357,1.16444 2.600357,2.60036"
       id="path8213" />
    <path
       style="fill:#f3f3f3;fill-opacity:1;fill-rule:nonzero;stroke:none;stroke-width:0.352777"
       d="m 60.557888,111.88164 c 0,1.29811 -1.05144,2.34957 -2.349553,2.34957 -1.296733,0 -2.349556,-1.05146 -2.349556,-2.34957 0,-1.29812 1.052823,-2.34958 2.349556,-2.34958 1.298113,0 2.349553,1.05146 2.349553,2.34958"
       id="path8215" />
    <path
       style="opacity:0.25;fill:#ffffff;fill-opacity:1;fill-rule:nonzero;stroke:none;stroke-width:0.352777"
       d="m 58.208335,114.03139 c -1.26366,0 -2.291679,-0.9991 -2.345421,-2.25037 -0.0014,0.0346 -0.0041,0.0661 -0.0041,0.10062 0,1.29811 1.052823,2.34957 2.349556,2.34957 1.298113,0 2.349553,-1.05146 2.349553,-2.34957 0,-0.0346 -0.0028,-0.0661 -0.0041,-0.10062 -0.05236,1.25127 -1.081758,2.25037 -2.345419,2.25037"
       id="path8217" />
    <g
       transform="matrix(-0.35284456,0,0,-0.35284456,60.846398,112.21147)"
       id="use8219"
       clip-path="url(#clip422)"
       style="opacity:0.25">
      <g
         clip-path="url(#clip423)"
         clip-rule="nonzero"
         id="g13134">
        <path
           style="fill:#000000;fill-opacity:1;fill-rule:nonzero;stroke:none"
           d="m 7.476562,7.03125 c -3.582031,0 -6.5,-2.832031 -6.648437,-6.378906 -0.003906,0.09375 -0.011719,0.1875 -0.011719,0.28125 0,3.679687 2.980469,6.660156 6.660156,6.660156 3.675782,0 6.660157,-2.980469 6.660157,-6.660156 0,-0.09375 -0.0078,-0.1875 -0.01172,-0.28125 C 13.972656,4.199219 11.058594,7.03125 7.476562,7.03125"
           id="path13132" />
      </g>
    </g>
  </g>
</svg>
