<?xml version="1.0" encoding="UTF-8" standalone="no"?>
<svg
   xmlns:dc="http://purl.org/dc/elements/1.1/"
   xmlns:cc="http://creativecommons.org/ns#"
   xmlns:rdf="http://www.w3.org/1999/02/22-rdf-syntax-ns#"
   xmlns:svg="http://www.w3.org/2000/svg"
   xmlns="http://www.w3.org/2000/svg"
   xmlns:sodipodi="http://sodipodi.sourceforge.net/DTD/sodipodi-0.dtd"
   xmlns:inkscape="http://www.inkscape.org/namespaces/inkscape"
   inkscape:version="1.0 (4035a4fb49, 2020-05-01)"
   sodipodi:docname="TL1105_White_0.svg"
   id="svg12737"
   version="1.1"
   viewBox="0 0 5.200717 5.1993399"
   height="5.1993399mm"
   width="5.200717mm">
  <defs
     id="defs12731">
    <clipPath
       id="clip422">
      <rect
         x="0"
         y="0"
         width="15"
         height="8"
         id="rect4393" />
    </clipPath>
    <clipPath
       id="clip423">
      <path
         d="M 0.816406,0.648438 H 14.136719 V 7.601562 H 0.816406 Z m 0,0"
         id="path4390" />
    </clipPath>
    <mask
       id="mask212">
      <g
         transform="scale(0.26458333)"
         filter="url(#alpha)"
         id="g4387">
        <rect
           x="0"
           y="0"
           width="3052.8701"
           height="3351.5"
           style="fill:#000000;fill-opacity:0.330002;stroke:none"
           id="rect4385" />
      </g>
    </mask>
    <filter
       id="alpha"
       filterUnits="objectBoundingBox"
       x="0"
       y="0"
       width="1"
       height="1">
      <feColorMatrix
         type="matrix"
         in="SourceGraphic"
         values="0 0 0 0 1 0 0 0 0 1 0 0 0 0 1 0 0 0 1 0"
         id="feColorMatrix567" />
    </filter>
    <clipPath
       id="clipPath13081">
      <rect
         x="0"
         y="0"
         width="15"
         height="8"
         id="rect13079" />
    </clipPath>
    <clipPath
       id="clipPath13085">
      <path
         d="M 0.816406,0.648438 H 14.136719 V 7.601562 H 0.816406 Z m 0,0"
         id="path13083" />
    </clipPath>
  </defs>
  <sodipodi:namedview
     fit-margin-bottom="0"
     fit-margin-right="0"
     fit-margin-left="0"
     fit-margin-top="0"
     inkscape:window-maximized="1"
     inkscape:window-y="18"
     inkscape:window-x="0"
     inkscape:window-height="882"
     inkscape:window-width="1600"
     inkscape:snap-bbox-midpoints="true"
     inkscape:snap-bbox-edge-midpoints="true"
     inkscape:bbox-nodes="true"
     inkscape:bbox-paths="true"
     inkscape:snap-nodes="false"
     inkscape:snap-bbox="true"
     showgrid="false"
     inkscape:document-rotation="0"
     inkscape:current-layer="layer1"
     inkscape:document-units="mm"
     inkscape:cy="12.034609"
     inkscape:cx="21.286343"
     inkscape:zoom="11.2"
     inkscape:pageshadow="2"
     inkscape:pageopacity="0.0"
     borderopacity="1.0"
     bordercolor="#666666"
     pagecolor="#ffffff"
     id="base" />
  <metadata
     id="metadata12734">
    <rdf:RDF>
      <cc:Work
         rdf:about="">
        <dc:format>image/svg+xml</dc:format>
        <dc:type
           rdf:resource="http://purl.org/dc/dcmitype/StillImage" />
        <dc:title></dc:title>
      </cc:Work>
    </rdf:RDF>
  </metadata>
  <g
     transform="translate(-55.607975,-109.28128)"
     id="layer1"
     inkscape:groupmode="layer"
     inkscape:label="Layer 1">
    <path
       id="path8213"
       d="m 55.607975,111.88026 c 0,-1.43591 1.164442,-2.59898 2.600357,-2.59898 1.435915,0 2.60036,1.16307 2.60036,2.59898 0,1.43592 -1.164445,2.60036 -2.60036,2.60036 -1.435915,0 -2.600357,-1.16444 -2.600357,-2.60036"
       style="fill:#000000;fill-opacity:1;fill-rule:nonzero;stroke:none;stroke-width:0.352777" />
    <path
       id="path8215"
       d="m 55.858779,111.88026 c 0,-1.29811 1.05144,-2.34957 2.349553,-2.34957 1.296733,0 2.349556,1.05146 2.349556,2.34957 0,1.29812 -1.052823,2.34958 -2.349556,2.34958 -1.298113,0 -2.349553,-1.05146 -2.349553,-2.34958"
       style="fill:#f3f3f3;fill-opacity:1;fill-rule:nonzero;stroke:none;stroke-width:0.352777" />
    <path
       id="path8217"
       d="m 58.208332,109.73051 c 1.26366,0 2.291679,0.9991 2.345421,2.25037 0.0014,-0.0346 0.0041,-0.0661 0.0041,-0.10062 0,-1.29811 -1.052823,-2.34957 -2.349556,-2.34957 -1.298113,0 -2.349553,1.05146 -2.349553,2.34957 0,0.0346 0.0028,0.0661 0.0041,0.10062 0.05236,-1.25127 1.081758,-2.25037 2.345419,-2.25037"
       style="opacity:0.25;fill:#ffffff;fill-opacity:1;fill-rule:nonzero;stroke:none;stroke-width:0.352777" />
    <g
       style="opacity:0.25"
       clip-path="url(#clip422)"
       id="use8219"
       transform="matrix(0.35284456,0,0,0.35284456,55.570269,111.55043)">
      <g
         id="g13134"
         clip-rule="nonzero"
         clip-path="url(#clip423)">
        <path
           id="path13132"
           d="m 7.476562,7.03125 c -3.582031,0 -6.5,-2.832031 -6.648437,-6.378906 -0.003906,0.09375 -0.011719,0.1875 -0.011719,0.28125 0,3.679687 2.980469,6.660156 6.660156,6.660156 3.675782,0 6.660157,-2.980469 6.660157,-6.660156 0,-0.09375 -0.0078,-0.1875 -0.01172,-0.28125 C 13.972656,4.199219 11.058594,7.03125 7.476562,7.03125"
           style="fill:#000000;fill-opacity:1;fill-rule:nonzero;stroke:none" />
      </g>
    </g>
  </g>
</svg>
