<?xml version="1.0" encoding="UTF-8" standalone="no"?>
<!-- Created with Inkscape (http://www.inkscape.org/) -->

<svg
   xmlns:dc="http://purl.org/dc/elements/1.1/"
   xmlns:cc="http://creativecommons.org/ns#"
   xmlns:rdf="http://www.w3.org/1999/02/22-rdf-syntax-ns#"
   xmlns:svg="http://www.w3.org/2000/svg"
   xmlns="http://www.w3.org/2000/svg"
   xmlns:sodipodi="http://sodipodi.sourceforge.net/DTD/sodipodi-0.dtd"
   xmlns:inkscape="http://www.inkscape.org/namespaces/inkscape"
   width="30.798809mm"
   height="128.78522mm"
   viewBox="0 0 30.798809 128.78522"
   version="1.1"
   id="svg18117"
   inkscape:version="0.92.4 5da689c313, 2019-01-14"
   sodipodi:docname="Variant.svg">
  <defs
     id="defs18111" />
  <sodipodi:namedview
     id="base"
     pagecolor="#ffffff"
     bordercolor="#666666"
     borderopacity="1.0"
     inkscape:pageopacity="0.0"
     inkscape:pageshadow="2"
     inkscape:zoom="1.4"
     inkscape:cx="55.491533"
     inkscape:cy="228.45869"
     inkscape:document-units="mm"
     inkscape:current-layer="layer5"
     showgrid="false"
     fit-margin-top="0"
     fit-margin-left="0"
     fit-margin-right="0"
     fit-margin-bottom="0"
     inkscape:window-width="1600"
     inkscape:window-height="882"
     inkscape:window-x="0"
     inkscape:window-y="18"
     inkscape:window-maximized="0"
     inkscape:snap-bbox="true"
     inkscape:snap-bbox-midpoints="true"
     inkscape:snap-nodes="false"
     inkscape:snap-others="false" />
  <metadata
     id="metadata18114">
    <rdf:RDF>
      <cc:Work
         rdf:about="">
        <dc:format>image/svg+xml</dc:format>
        <dc:type
           rdf:resource="http://purl.org/dc/dcmitype/StillImage" />
        <dc:title />
      </cc:Work>
    </rdf:RDF>
  </metadata>
  <g
     inkscape:label="Layer 1"
     inkscape:groupmode="layer"
     id="layer1"
     transform="translate(-28.445834,-95.02406)">
    <path
       inkscape:connector-curvature="0"
       id="path304"
       d="m 28.570718,223.68439 h 30.54904 V 95.148944 h -30.54904 z m 0,0"
       style="fill:#e8e6e6;fill-opacity:1;fill-rule:nonzero;stroke:#ababab;stroke-width:0.24976836;stroke-linecap:butt;stroke-linejoin:miter;stroke-miterlimit:4;stroke-opacity:1" />
    <path
       inkscape:connector-curvature="0"
       id="path728"
       d="m 41.189933,213.19874 h -8.667856 c -0.367948,0 -0.665587,-0.29765 -0.665587,-0.66559 v -7.89341 h 10.000404 v 7.89341 c 0,0.36794 -0.299014,0.66559 -0.666961,0.66559"
       style="fill:#000000;fill-opacity:1;fill-rule:nonzero;stroke:none;stroke-width:0.35277778" />
    <path
       inkscape:connector-curvature="0"
       id="path730"
       d="m 55.196304,213.19874 h -8.667855 c -0.367948,0 -0.665586,-0.29765 -0.665586,-0.66559 v -7.89341 h 10.000403 v 7.89341 c 0,0.36794 -0.299014,0.66559 -0.666962,0.66559"
       style="fill:#000000;fill-opacity:1;fill-rule:nonzero;stroke:none;stroke-width:0.35277778" />
    <path
       inkscape:connector-curvature="0"
       id="path732"
       d="m 35.381517,114.37962 c 0.07027,0 0.135043,-0.005 0.183268,-0.0441 0.04685,-0.0372 0.07715,-0.11025 0.07715,-0.24254 0,-0.13229 -0.03175,-0.20257 -0.0799,-0.23978 -0.04964,-0.0372 -0.11437,-0.0427 -0.184679,-0.0427 h -0.326567 v 0.56913 z m -0.63941,-0.82545 h 0.63941 c 0.191523,0 0.333481,0.0262 0.428554,0.10473 0.09507,0.0785 0.143299,0.21498 0.143299,0.42995 0,0.21911 -0.0496,0.35416 -0.144674,0.43408 -0.09645,0.0813 -0.241159,0.10749 -0.431342,0.10749 h -0.326566 v 0.47267 h -0.308681 z m 0,0"
       style="fill:#000000;fill-opacity:1;fill-rule:nonzero;stroke:none;stroke-width:0.35277778" />
    <path
       inkscape:connector-curvature="0"
       id="path734"
       d="m 36.883574,114.86469 c 0.133668,0 0.231493,-0.0262 0.296263,-0.1006 0.06339,-0.073 0.0937,-0.19155 0.0937,-0.37758 v -0.11576 c 0,-0.18603 -0.03175,-0.30454 -0.09645,-0.3762 -0.06615,-0.073 -0.163971,-0.0978 -0.297674,-0.0978 -0.133667,0 -0.230117,0.0248 -0.294887,0.0951 -0.06339,0.0717 -0.0937,0.18879 -0.0937,0.37482 v 0.11576 c 0,0.18603 0.03034,0.30592 0.09645,0.38034 0.06477,0.0744 0.164006,0.10197 0.296298,0.10197 m -0.0042,0.26458 c -0.140547,0 -0.267335,-0.0152 -0.373415,-0.0593 -0.10612,-0.0427 -0.191563,-0.11712 -0.249454,-0.23563 -0.05923,-0.11851 -0.09232,-0.2825 -0.09232,-0.50574 0,-0.22324 0.03316,-0.38723 0.09232,-0.50574 0.05927,-0.11851 0.146085,-0.19293 0.253576,-0.23702 0.106116,-0.0427 0.232869,-0.0579 0.373451,-0.0579 0.140547,0 0.268711,0.0138 0.374826,0.0565 0.106081,0.0441 0.191523,0.11575 0.249414,0.23426 0.05789,0.11713 0.09095,0.2825 0.09095,0.50574 0,0.22324 -0.03175,0.38723 -0.09095,0.50574 -0.06064,0.11989 -0.146085,0.19431 -0.252165,0.2384 -0.107492,0.0455 -0.235656,0.0606 -0.376238,0.0606"
       style="fill:#000000;fill-opacity:1;fill-rule:nonzero;stroke:none;stroke-width:0.35277778" />
    <path
       inkscape:connector-curvature="0"
       id="path736"
       d="m 38.359455,115.11962 c -0.117157,0 -0.234279,-0.01 -0.330729,-0.022 -0.09649,-0.0124 -0.173637,-0.0276 -0.209479,-0.0386 l 0.04822,-0.26044 c 0.02187,0.005 0.06752,0.0124 0.125412,0.0207 0.05651,0.01 0.124037,0.0179 0.190183,0.0248 0.06477,0.007 0.128129,0.011 0.177765,0.011 0.110243,0 0.181892,-0.008 0.227365,-0.0345 0.0441,-0.0275 0.06064,-0.0744 0.06064,-0.15572 0,-0.0717 -0.01093,-0.11162 -0.05239,-0.14056 -0.04272,-0.0276 -0.118499,-0.0441 -0.245286,-0.0689 -0.140547,-0.0276 -0.248038,-0.0551 -0.325226,-0.0896 -0.07853,-0.033 -0.128129,-0.0772 -0.158468,-0.14056 -0.03175,-0.062 -0.0441,-0.14469 -0.0441,-0.25632 0,-0.16123 0.05239,-0.27147 0.147461,-0.33899 0.09645,-0.0689 0.237031,-0.0951 0.41342,-0.0951 0.09507,0 0.208069,0.007 0.304554,0.0179 0.09783,0.011 0.17914,0.0234 0.213571,0.0358 l -0.05098,0.26182 c -0.04823,-0.008 -0.121285,-0.0179 -0.203941,-0.0276 -0.08269,-0.01 -0.176389,-0.0165 -0.264584,-0.0165 -0.08957,0 -0.150212,0.01 -0.188806,0.0345 -0.03859,0.0262 -0.0551,0.0689 -0.0551,0.1323 0,0.073 0.01235,0.11299 0.0551,0.14193 0.04135,0.0289 0.11437,0.0441 0.237031,0.0689 0.13642,0.0289 0.241159,0.051 0.321064,0.0827 0.07856,0.0331 0.133667,0.0744 0.168133,0.13643 0.03457,0.0634 0.04822,0.14745 0.04822,0.26458 0,0.17364 -0.04822,0.28525 -0.148837,0.35691 -0.100577,0.0689 -0.252165,0.0951 -0.460234,0.0951"
       style="fill:#000000;fill-opacity:1;fill-rule:nonzero;stroke:none;stroke-width:0.35277778" />
    <path
       inkscape:connector-curvature="0"
       id="path738"
       d="m 48.807711,113.55417 h 0.310091 l 0.682096,0.9853 v -0.9853 h 0.296298 v 1.54892 h -0.265959 l -0.723477,-1.05145 v 1.05145 h -0.299049 z m 0,0"
       style="fill:#000000;fill-opacity:1;fill-rule:nonzero;stroke:none;stroke-width:0.35277778" />
    <path
       inkscape:connector-curvature="0"
       id="path740"
       d="m 50.426925,113.55417 h 1.030782 v 0.27286 h -0.719349 v 0.3445 h 0.566384 v 0.27286 h -0.566384 v 0.39274 h 0.719349 v 0.26596 h -1.030782 z m 0,0"
       style="fill:#000000;fill-opacity:1;fill-rule:nonzero;stroke:none;stroke-width:0.35277778" />
    <path
       inkscape:connector-curvature="0"
       id="path742"
       d="m 52.338275,115.12376 c -0.140581,0 -0.264583,-0.0138 -0.367947,-0.0579 -0.103364,-0.0427 -0.183268,-0.11575 -0.237031,-0.23289 -0.0551,-0.11851 -0.08407,-0.28112 -0.08407,-0.50436 0,-0.22324 0.03175,-0.38723 0.08682,-0.50574 0.05652,-0.11713 0.13783,-0.19017 0.242534,-0.23427 0.103364,-0.0441 0.228777,-0.0579 0.373451,-0.0579 0.126788,0 0.230152,0.008 0.311432,0.0166 0.07994,0.01 0.13783,0.022 0.173637,0.0317 l -0.04685,0.2701 c -0.117122,-0.022 -0.276965,-0.0455 -0.442348,-0.0455 -0.140546,0 -0.232904,0.0289 -0.290759,0.0992 -0.05789,0.0717 -0.08269,0.18741 -0.08269,0.3638 v 0.11575 c 0,0.17226 0.02187,0.29353 0.08132,0.3707 0.05785,0.0785 0.15434,0.11437 0.304553,0.11437 0.09783,0 0.181892,-0.0124 0.228741,-0.0207 v -0.53054 h 0.29076 v 0.74414 c -0.03722,0.0124 -0.106116,0.0275 -0.198438,0.04 -0.0937,0.0138 -0.21082,0.0234 -0.343112,0.0234"
       style="fill:#000000;fill-opacity:1;fill-rule:nonzero;stroke:none;stroke-width:0.35277778" />
    <path
       inkscape:connector-curvature="0"
       id="path744"
       d="m 36.081534,102.69937 h 0.51816 l 0.67938,1.79558 0.672465,-1.79558 h 0.498862 l -0.95638,2.48322 h -0.456106 z m 0,0"
       style="fill:#000000;fill-opacity:1;fill-rule:nonzero;stroke:none;stroke-width:0.35277778" />
    <path
       inkscape:connector-curvature="0"
       id="path746"
       d="m 39.51699,103.3498 c -0.0689,0.1819 -0.12954,0.34313 -0.181892,0.48507 -0.02328,0.0606 -0.0441,0.12264 -0.06615,0.17914 -0.04272,0.11714 -0.07856,0.20809 -0.100613,0.26321 -0.01093,0.0289 -0.01517,0.0441 -0.01517,0.0441 h 0.724817 z m -0.676628,1.81625 h -0.496076 l 0.956345,-2.48322 h 0.456142 l 0.956345,2.48322 h -0.522252 l -0.164007,-0.44373 h -1.022491 z m 0,0"
       style="fill:#000000;fill-opacity:1;fill-rule:nonzero;stroke:none;stroke-width:0.35277778" />
    <path
       inkscape:connector-curvature="0"
       id="path748"
       d="m 42.053956,103.97956 c 0.133667,0 0.237031,-0.0165 0.308681,-0.0785 0.07027,-0.062 0.106115,-0.1695 0.106115,-0.3583 0,-0.19154 -0.03997,-0.30041 -0.112995,-0.36104 -0.07444,-0.0606 -0.180516,-0.0744 -0.30868,-0.0744 h -0.48507 v 0.87229 z m 1.072127,1.18649 h -0.566385 l -0.527791,-0.7841 h -0.4699 v 0.7841 h -0.491948 v -2.46668 h 0.983897 c 0.304553,0 0.533294,0.0358 0.684883,0.15847 0.151588,0.12127 0.225989,0.33349 0.225989,0.67799 0,0.24116 -0.03856,0.40652 -0.110243,0.5209 -0.0744,0.11576 -0.184644,0.1819 -0.327942,0.21635 z m 0,0"
       style="fill:#000000;fill-opacity:1;fill-rule:nonzero;stroke:none;stroke-width:0.35277778" />
    <path
       inkscape:connector-curvature="0"
       id="path750"
       d="m 43.51054,102.69937 h 0.500239 v 2.46806 H 43.51054 Z m 0,0"
       style="fill:#000000;fill-opacity:1;fill-rule:nonzero;stroke:none;stroke-width:0.35277778" />
    <path
       inkscape:connector-curvature="0"
       id="path752"
       d="m 45.550055,103.3498 c -0.06752,0.1819 -0.128165,0.34313 -0.180517,0.48507 -0.02328,0.0606 -0.04551,0.12264 -0.06615,0.17914 -0.04272,0.11714 -0.07856,0.20809 -0.100612,0.26321 -0.01093,0.0289 -0.01658,0.0441 -0.01658,0.0441 h 0.726228 z m -0.676628,1.81625 h -0.494701 l 0.956346,-2.48322 h 0.456142 l 0.956345,2.48322 h -0.522288 l -0.165347,-0.44373 h -1.021115 z m 0,0"
       style="fill:#000000;fill-opacity:1;fill-rule:nonzero;stroke:none;stroke-width:0.35277778" />
    <path
       inkscape:connector-curvature="0"
       id="path754"
       d="m 47.104464,102.69937 h 0.491984 l 1.087261,1.56958 v -1.56958 h 0.472652 v 2.46668 h -0.424427 l -1.152031,-1.67569 v 1.67569 h -0.475439 z m 0,0"
       style="fill:#000000;fill-opacity:1;fill-rule:nonzero;stroke:none;stroke-width:0.35277778" />
    <path
       inkscape:connector-curvature="0"
       id="path756"
       d="m 50.324937,103.13345 h -0.802005 v -0.43408 h 2.09737 v 0.43408 h -0.800629 v 2.0326 h -0.494736 z m 0,0"
       style="fill:#000000;fill-opacity:1;fill-rule:nonzero;stroke:none;stroke-width:0.35277778" />
    <path
       inkscape:connector-curvature="0"
       id="path758"
       d="m 32.952007,108.18258 h 0.228776 l 0.4699,1.24023 0.471276,-1.24023 h 0.21911 l -0.595312,1.55443 h -0.198438 z m 0,0"
       style="fill:#000000;fill-opacity:1;fill-rule:nonzero;stroke:none;stroke-width:0.35277778" />
    <path
       inkscape:connector-curvature="0"
       id="path760"
       d="m 35.189958,109.5551 c 0.13642,0 0.248039,-0.0275 0.322439,-0.10748 0.07581,-0.0813 0.117158,-0.21635 0.117158,-0.43822 v -0.10886 c 0,-0.22049 -0.04272,-0.35692 -0.118533,-0.43822 -0.07715,-0.0813 -0.188772,-0.10749 -0.326567,-0.10749 -0.135078,0 -0.246697,0.0248 -0.321098,0.10473 -0.07578,0.0813 -0.118498,0.21636 -0.118498,0.43684 v 0.10887 c 0,0.22186 0.04272,0.35829 0.119874,0.43959 0.07719,0.0827 0.18743,0.11024 0.325225,0.11024 m -0.0056,0.19431 c -0.126788,0 -0.245321,-0.0138 -0.344522,-0.0579 -0.100613,-0.0455 -0.181893,-0.11989 -0.238408,-0.23565 -0.05648,-0.11713 -0.08957,-0.27974 -0.08957,-0.50023 0,-0.2191 0.03316,-0.38309 0.09095,-0.50022 0.05789,-0.11851 0.139206,-0.19293 0.239784,-0.2384 0.100612,-0.0441 0.21911,-0.0593 0.347274,-0.0593 0.126788,0 0.245286,0.0138 0.345899,0.0579 0.0992,0.0455 0.180516,0.11988 0.238372,0.23564 0.05651,0.11713 0.08957,0.27974 0.08957,0.50022 0,0.21912 -0.03316,0.38172 -0.09095,0.50023 -0.05786,0.11714 -0.140547,0.19293 -0.239784,0.23703 -0.100576,0.0455 -0.21911,0.0606 -0.348615,0.0606"
       style="fill:#000000;fill-opacity:1;fill-rule:nonzero;stroke:none;stroke-width:0.35277778" />
    <path
       inkscape:connector-curvature="0"
       id="path762"
       d="m 36.189025,108.18258 h 0.220486 v 1.3491 h 0.803417 v 0.1943 h -1.023903 z m 0,0"
       style="fill:#000000;fill-opacity:1;fill-rule:nonzero;stroke:none;stroke-width:0.35277778" />
    <path
       inkscape:connector-curvature="0"
       id="path764"
       d="m 37.726925,108.38239 h -0.50987 v -0.19843 h 1.236098 v 0.19843 h -0.505742 v 1.34359 h -0.220486 z m 0,0"
       style="fill:#000000;fill-opacity:1;fill-rule:nonzero;stroke:none;stroke-width:0.35277778" />
    <path
       inkscape:connector-curvature="0"
       id="path766"
       d="m 39.144915,108.48161 -0.274214,0.72347 h 0.548463 z m -0.471276,1.24437 h -0.217734 l 0.593937,-1.55305 h 0.199813 l 0.593937,1.55305 h -0.227366 l -0.125412,-0.33211 h -0.691762 z m 0,0"
       style="fill:#000000;fill-opacity:1;fill-rule:nonzero;stroke:none;stroke-width:0.35277778" />
    <path
       inkscape:connector-curvature="0"
       id="path768"
       d="m 40.670397,109.74665 c -0.124002,0 -0.238372,-0.01 -0.333481,-0.051 -0.09645,-0.04 -0.175013,-0.10886 -0.230117,-0.226 -0.05514,-0.11713 -0.08544,-0.28249 -0.08544,-0.51401 0,-0.23013 0.03175,-0.39687 0.08682,-0.51538 0.05648,-0.11851 0.136419,-0.18879 0.235655,-0.23013 0.0992,-0.0413 0.216324,-0.0524 0.345864,-0.0524 0.111619,0 0.209479,0.007 0.288008,0.0179 0.07719,0.011 0.135043,0.0234 0.166758,0.0358 l -0.03722,0.19154 c -0.04547,-0.008 -0.107492,-0.0193 -0.180517,-0.0289 -0.0744,-0.008 -0.158468,-0.0152 -0.241159,-0.0152 -0.152964,0 -0.260456,0.0262 -0.330729,0.10749 -0.0689,0.0799 -0.101988,0.21635 -0.101988,0.42995 v 0.10886 c 0,0.20947 0.03316,0.34589 0.101988,0.43133 0.07165,0.0854 0.177765,0.11851 0.327977,0.11851 0.14471,0 0.232904,-0.0152 0.288008,-0.0289 v -0.54708 h 0.20948 v 0.7028 c -0.03722,0.0124 -0.103364,0.0276 -0.190183,0.0413 -0.08819,0.0138 -0.195686,0.0234 -0.319722,0.0234"
       style="fill:#000000;fill-opacity:1;fill-rule:nonzero;stroke:none;stroke-width:0.35277778" />
    <path
       inkscape:connector-curvature="0"
       id="path770"
       d="m 41.538583,108.18258 h 0.957721 v 0.19981 h -0.737235 v 0.44098 h 0.571888 v 0.19568 h -0.571888 v 0.51263 h 0.737235 v 0.1943 h -0.957721 z m 0,0"
       style="fill:#000000;fill-opacity:1;fill-rule:nonzero;stroke:none;stroke-width:0.35277778" />
    <path
       inkscape:connector-curvature="0"
       id="path772"
       d="m 43.379625,108.18258 h 0.957756 v 0.19981 h -0.73727 v 0.44098 h 0.571888 v 0.19568 h -0.571888 v 0.51263 h 0.73727 v 0.1943 h -0.957756 z m 0,0"
       style="fill:#000000;fill-opacity:1;fill-rule:nonzero;stroke:none;stroke-width:0.35277778" />
    <path
       inkscape:connector-curvature="0"
       id="path774"
       d="m 45.139386,108.91156 -0.482318,-0.7276 h 0.257704 l 0.374827,0.56913 0.36516,-0.56913 h 0.235656 l -0.479566,0.74689 0.526415,0.79513 H 45.68097 l -0.420299,-0.63665 -0.41342,0.63665 h -0.23428 z m 0,0"
       style="fill:#000000;fill-opacity:1;fill-rule:nonzero;stroke:none;stroke-width:0.35277778" />
    <path
       inkscape:connector-curvature="0"
       id="path776"
       d="m 46.844008,109.0094 c 0.09236,0 0.172262,-0.008 0.230152,-0.051 0.05648,-0.0427 0.09095,-0.12126 0.09095,-0.26458 0,-0.14469 -0.03584,-0.22462 -0.0937,-0.26871 -0.05927,-0.0441 -0.140582,-0.0524 -0.231528,-0.0524 H 46.47197 v 0.63665 z m -0.591149,-0.82682 h 0.591149 c 0.183304,0 0.318347,0.0317 0.407917,0.11024 0.08957,0.0785 0.133668,0.20395 0.133668,0.3955 0,0.19017 -0.04547,0.31832 -0.136419,0.39687 -0.09095,0.0799 -0.227401,0.11163 -0.409293,0.11163 h -0.367912 v 0.52916 h -0.21911 z m 0,0"
       style="fill:#000000;fill-opacity:1;fill-rule:nonzero;stroke:none;stroke-width:0.35277778" />
    <path
       inkscape:connector-curvature="0"
       id="path778"
       d="m 48.171088,108.48161 -0.275625,0.72347 h 0.548463 z m -0.471311,1.24437 h -0.217735 l 0.593937,-1.55305 h 0.199813 l 0.593937,1.55305 h -0.228741 l -0.125413,-0.33211 h -0.690386 z m 0,0"
       style="fill:#000000;fill-opacity:1;fill-rule:nonzero;stroke:none;stroke-width:0.35277778" />
    <path
       inkscape:connector-curvature="0"
       id="path780"
       d="m 49.156361,108.18258 h 0.214983 l 0.775829,1.1479 v -1.1479 h 0.212231 v 1.5434 h -0.19431 l -0.796502,-1.1796 v 1.1796 h -0.212231 z m 0,0"
       style="fill:#000000;fill-opacity:1;fill-rule:nonzero;stroke:none;stroke-width:0.35277778" />
    <path
       inkscape:connector-curvature="0"
       id="path782"
       d="m 51.285445,109.53995 c 0.137795,0 0.243911,-0.0289 0.31556,-0.10887 0.07165,-0.0813 0.108867,-0.21359 0.108867,-0.42444 v -0.10197 c 0,-0.21084 -0.03722,-0.34451 -0.108867,-0.42443 -0.07165,-0.0785 -0.177765,-0.10749 -0.31556,-0.10749 h -0.314184 v 1.1672 z m -0.53467,-1.35737 h 0.537422 c 0.139171,0 0.257704,0.0138 0.355529,0.0579 0.09645,0.0427 0.170886,0.11438 0.221863,0.22876 0.05098,0.11437 0.07719,0.27147 0.07719,0.48644 0,0.21498 -0.02611,0.37207 -0.07719,0.48507 -0.05098,0.11438 -0.125413,0.18604 -0.221863,0.22876 -0.09783,0.0427 -0.216358,0.0565 -0.355529,0.0565 h -0.537422 z m 0,0"
       style="fill:#000000;fill-opacity:1;fill-rule:nonzero;stroke:none;stroke-width:0.35277778" />
    <path
       inkscape:connector-curvature="0"
       id="path784"
       d="m 52.279009,108.18258 h 0.957721 v 0.19981 h -0.737235 v 0.44098 h 0.571888 v 0.19568 h -0.571888 v 0.51263 h 0.737235 v 0.1943 h -0.957721 z m 0,0"
       style="fill:#000000;fill-opacity:1;fill-rule:nonzero;stroke:none;stroke-width:0.35277778" />
    <path
       inkscape:connector-curvature="0"
       id="path786"
       d="m 54.12005,108.98735 c 0.09924,0 0.180552,-0.008 0.235656,-0.051 0.05652,-0.0413 0.08682,-0.11713 0.08682,-0.25355 0,-0.13781 -0.03316,-0.21636 -0.09095,-0.25907 -0.05789,-0.0427 -0.13917,-0.051 -0.235655,-0.051 h -0.344488 v 0.6146 z m 0.6229,0.73863 h -0.256328 l -0.359657,-0.54984 h -0.35553 v 0.54984 h -0.220486 v -1.5434 h 0.569101 c 0.183304,0 0.318347,0.0289 0.409293,0.10473 0.08957,0.0758 0.133667,0.19982 0.133667,0.39136 0,0.1447 -0.02752,0.24805 -0.07856,0.32108 -0.05235,0.0717 -0.128129,0.11438 -0.225989,0.13643 z m 0,0"
       style="fill:#000000;fill-opacity:1;fill-rule:nonzero;stroke:none;stroke-width:0.35277778" />
    <path
       inkscape:connector-curvature="0"
       id="path788"
       d="m 36.362662,170.86541 c 0.219111,-0.008 0.381706,-0.0179 0.498864,-0.0345 0.115746,-0.0165 0.188771,-0.04 0.230116,-0.073 0.0496,-0.0358 0.06202,-0.10611 0.06202,-0.18328 0,-0.0744 -0.01517,-0.1378 -0.05927,-0.17226 -0.03718,-0.0289 -0.111618,-0.0551 -0.232868,-0.0758 -0.121285,-0.0207 -0.289384,-0.0358 -0.514033,-0.0413 l 0.02081,-0.73725 h 0.993564 v 0.27285 h -0.730356 l -0.0095,0.23289 c 0.199814,0.0124 0.351402,0.0345 0.465773,0.0648 0.11437,0.0303 0.188771,0.0675 0.242535,0.11025 0.0496,0.0413 0.07994,0.091 0.09783,0.1502 0.0194,0.0593 0.02469,0.12541 0.02469,0.20395 0,0.14469 -0.02469,0.2577 -0.101953,0.33211 -0.05789,0.0662 -0.155716,0.11575 -0.310056,0.14745 -0.155716,0.033 -0.370699,0.0524 -0.660083,0.0606 z m 0,0"
       style="fill:#000000;fill-opacity:1;fill-rule:nonzero;stroke:none;stroke-width:0.35277778" />
    <path
       inkscape:connector-curvature="0"
       id="path790"
       d="m 37.153661,183.83274 h -0.853017 v -0.27285 h 1.169952 v 0.27561 l -0.59256,1.27331 H 36.5363 Z m 0,0"
       style="fill:#000000;fill-opacity:1;fill-rule:nonzero;stroke:none;stroke-width:0.35277778" />
    <path
       inkscape:connector-curvature="0"
       id="path792"
       d="m 36.800883,141.80809 h -0.248038 v -0.26045 h 0.556719 v 1.54892 h -0.308681 z m 0,0"
       style="fill:#000000;fill-opacity:1;fill-rule:nonzero;stroke:none;stroke-width:0.35277778" />
    <path
       inkscape:connector-curvature="0"
       id="path794"
       d="m 36.340614,156.86454 c 0.220486,-0.008 0.381706,-0.0179 0.498863,-0.0358 0.117122,-0.0165 0.188771,-0.04 0.231493,-0.073 0.04822,-0.0372 0.06064,-0.10335 0.06064,-0.18052 0,-0.0744 -0.01376,-0.13367 -0.05789,-0.16813 -0.03856,-0.0289 -0.09232,-0.0455 -0.155716,-0.0579 -0.06339,-0.0124 -0.136419,-0.0207 -0.213572,-0.0289 v -0.1943 l 0.30868,-0.3073 H 36.31719 v -0.2701 h 1.022491 v 0.26872 l -0.33073,0.32797 c 0.124037,0.0234 0.232904,0.0606 0.303178,0.11851 0.08957,0.0703 0.118498,0.17363 0.118498,0.31833 0,0.14607 -0.02328,0.25769 -0.101953,0.3321 -0.05789,0.0648 -0.15434,0.11438 -0.308681,0.14745 -0.155716,0.0331 -0.370698,0.0538 -0.661458,0.062 z m 0,0"
       style="fill:#000000;fill-opacity:1;fill-rule:nonzero;stroke:none;stroke-width:0.35277778" />
    <path
       inkscape:connector-curvature="0"
       id="path796"
       d="m 50.910619,170.88194 c 0.119874,0 0.195686,-0.0124 0.243911,-0.0537 0.0496,-0.04 0.06614,-0.10473 0.06614,-0.21084 0,-0.0909 -0.0095,-0.14883 -0.0441,-0.18603 -0.03457,-0.0372 -0.0937,-0.051 -0.192934,-0.051 -0.07853,0 -0.152964,0.006 -0.217734,0.0124 -0.06752,0.01 -0.125378,0.0207 -0.169475,0.0289 v 0.13366 c 0,0.12816 0.01799,0.20809 0.06615,0.2577 0.04685,0.0496 0.124001,0.0689 0.248038,0.0689 m -0.0056,0.23978 c -0.177764,0 -0.305929,-0.022 -0.396875,-0.0689 -0.08957,-0.0469 -0.141958,-0.12127 -0.172261,-0.22462 -0.02893,-0.10335 -0.03722,-0.2384 -0.03722,-0.4079 v -0.14057 c 0,-0.13918 0.0081,-0.24804 0.03034,-0.33486 0.02328,-0.0868 0.06202,-0.15296 0.125412,-0.20671 0.124037,-0.10748 0.416172,-0.17776 0.876442,-0.21773 l 0.03175,0.25632 c -0.230118,0.0276 -0.387209,0.051 -0.497453,0.0758 -0.111619,0.0248 -0.175013,0.0524 -0.213606,0.0868 -0.03175,0.0276 -0.04547,0.0661 -0.05098,0.11162 -0.0035,0.022 -0.0042,0.0455 -0.0042,0.0703 v 0.0744 c 0.03457,-0.01 0.103328,-0.0234 0.181892,-0.0331 0.07853,-0.011 0.163971,-0.0179 0.231493,-0.0179 0.139206,0 0.242535,0.008 0.318346,0.0331 0.0744,0.0262 0.122626,0.0689 0.151589,0.13781 0.02893,0.0703 0.03856,0.16398 0.03856,0.29489 0,0.10887 -0.01093,0.2012 -0.0441,0.27699 -0.03316,0.0758 -0.08957,0.13367 -0.17914,0.17363 -0.09095,0.04 -0.216359,0.0606 -0.389961,0.0606"
       style="fill:#000000;fill-opacity:1;fill-rule:nonzero;stroke:none;stroke-width:0.35277778" />
    <path
       inkscape:connector-curvature="0"
       id="path798"
       d="m 51.012572,184.19517 c 0.09373,-0.0413 0.141958,-0.0689 0.166758,-0.10335 0.02328,-0.0358 0.02328,-0.0786 0.02328,-0.15572 0,-0.0606 -0.02752,-0.0965 -0.07994,-0.11851 -0.05373,-0.0207 -0.129505,-0.0275 -0.228741,-0.0275 -0.09507,0 -0.162596,0.007 -0.205317,0.0275 -0.0441,0.022 -0.06339,0.0579 -0.06339,0.11851 0,0.0468 0.0056,0.0785 0.02328,0.10335 0.01799,0.0248 0.04685,0.0413 0.09232,0.0593 0.02187,0.01 0.04822,0.0193 0.07994,0.0303 0.02893,0.01 0.06615,0.022 0.107492,0.0372 z m -0.118498,0.68626 c 0.119909,0 0.205316,-0.011 0.261831,-0.0372 0.05652,-0.0276 0.08269,-0.073 0.08269,-0.14331 0,-0.0579 -0.0056,-0.1006 -0.02611,-0.13229 -0.02187,-0.0317 -0.05789,-0.0551 -0.114406,-0.0786 -0.02893,-0.0124 -0.06477,-0.0262 -0.104704,-0.04 -0.03997,-0.0138 -0.08957,-0.0303 -0.143334,-0.0496 l -0.06202,-0.022 c -0.07578,0.0331 -0.125377,0.0579 -0.16122,0.0827 -0.03457,0.0248 -0.05235,0.0524 -0.06202,0.0882 -0.01093,0.0372 -0.01235,0.0841 -0.01235,0.15158 0,0.0703 0.02752,0.11576 0.08403,0.14332 0.05652,0.0262 0.141957,0.0372 0.257704,0.0372 m 0,0.25218 c -0.237032,0 -0.396875,-0.0276 -0.497452,-0.0951 -0.100612,-0.0661 -0.141958,-0.17364 -0.141958,-0.33073 0,-0.0813 0.0042,-0.14057 0.02081,-0.19017 0.01658,-0.0496 0.04547,-0.0868 0.09095,-0.12265 0.04547,-0.0344 0.110243,-0.0662 0.199813,-0.10335 -0.103328,-0.0482 -0.165347,-0.0937 -0.199813,-0.14883 -0.03581,-0.0565 -0.04547,-0.12265 -0.04547,-0.21222 0,-0.15296 0.04272,-0.25218 0.136419,-0.31419 0.09373,-0.0606 0.237031,-0.0813 0.43822,-0.0813 0.202565,0 0.352778,0.0207 0.452015,0.0813 0.0992,0.062 0.147425,0.16123 0.147425,0.31419 0,0.0923 -0.0042,0.15434 -0.03718,0.20533 -0.03316,0.051 -0.09511,0.0951 -0.210856,0.14745 0.125413,0.0537 0.20119,0.0992 0.245287,0.16123 0.0441,0.062 0.05652,0.14194 0.05652,0.26321 0,0.15709 -0.04547,0.26458 -0.148837,0.33073 -0.10474,0.0675 -0.268711,0.0951 -0.505742,0.0951"
       style="fill:#000000;fill-opacity:1;fill-rule:nonzero;stroke:none;stroke-width:0.35277778" />
    <path
       inkscape:connector-curvature="0"
       id="path800"
       d="m 51.044286,156.79426 h -0.781367 v -0.28664 l 0.595312,-0.96462 h 0.312844 l -0.611858,0.99494 h 0.485069 v -0.44097 h 0.300426 v 0.44097 h 0.177765 v 0.25632 h -0.177765 v 0.30317 h -0.300426 z m 0,0"
       style="fill:#000000;fill-opacity:1;fill-rule:nonzero;stroke:none;stroke-width:0.35277778" />
    <path
       inkscape:connector-curvature="0"
       id="path802"
       d="m 50.337355,142.86229 0.451979,-0.38999 c 0.09786,-0.0841 0.166758,-0.14331 0.213607,-0.19154 0.04547,-0.0482 0.07165,-0.0868 0.08544,-0.12954 0.01376,-0.0413 0.01658,-0.0896 0.01658,-0.15434 0,-0.0744 -0.01517,-0.1254 -0.05651,-0.15709 -0.04272,-0.0317 -0.112994,-0.0455 -0.228741,-0.0455 -0.09095,0 -0.181927,0.008 -0.257704,0.0165 -0.07578,0.008 -0.133667,0.0193 -0.162595,0.0262 l -0.04135,-0.26459 c 0.0496,-0.0138 0.125378,-0.0262 0.209444,-0.0344 0.08407,-0.01 0.173638,-0.0165 0.256329,-0.0165 0.224613,0 0.369323,0.0276 0.460269,0.0992 0.08957,0.0703 0.12125,0.18604 0.12125,0.35967 0,0.0937 -0.0081,0.16261 -0.03034,0.22325 -0.02081,0.062 -0.05927,0.11575 -0.117123,0.17776 -0.05651,0.062 -0.136454,0.13229 -0.24391,0.22876 l -0.263207,0.23289 h 0.702768 v 0.25356 h -1.116189 z m 0,0"
       style="fill:#000000;fill-opacity:1;fill-rule:nonzero;stroke:none;stroke-width:0.35277778" />
    <path
       inkscape:connector-curvature="0"
       id="path804"
       d="m 38.960271,218.92725 c 0.07715,0 0.07715,0 0.243911,-0.0207 0.08132,-0.01 0.150212,-0.0358 0.19431,-0.0648 v -0.63252 c -0.03316,-0.022 -0.09924,-0.04 -0.183304,-0.0455 -0.173601,-0.0124 -0.173601,-0.0124 -0.252165,-0.0124 -0.0882,0 -0.151589,0.0165 -0.192934,0.0799 -0.04135,0.0634 -0.06064,0.11989 -0.06064,0.30317 0,0.18603 0.01799,0.24115 0.05789,0.3073 0.03997,0.0661 0.103364,0.0854 0.192934,0.0854 m 0.08269,0.85714 c -0.09786,0 -0.2026,-0.005 -0.29217,-0.0124 -0.08957,-0.007 -0.166723,-0.0152 -0.21082,-0.0248 l 0.02893,-0.24254 c 0.06477,0.01 0.146086,0.0179 0.228742,0.0234 0.08269,0.006 0.169509,0.008 0.242534,0.008 0.148837,0 0.238408,-0.01 0.290795,-0.0703 0.05235,-0.0593 0.06752,-0.16674 0.06752,-0.36518 v -0.051 c -0.04272,0.0289 -0.117158,0.062 -0.224614,0.0813 -0.217734,0.0386 -0.217734,0.0386 -0.326602,0.0386 -0.07306,0 -0.146085,-0.008 -0.209479,-0.0413 -0.06339,-0.0331 -0.119874,-0.0937 -0.158468,-0.1943 -0.03997,-0.10059 -0.06339,-0.19017 -0.06339,-0.39412 0,-0.24943 0.05514,-0.42306 0.139171,-0.51814 0.08269,-0.0951 0.192934,-0.11576 0.307305,-0.11576 0.106115,0 0.106115,0 0.325226,0.0248 0.103363,0.011 0.183267,0.0372 0.221861,0.0606 l 0.05652,-0.11024 h 0.217735 v 1.21956 c 0,0.2632 -0.02611,0.43408 -0.119909,0.53881 -0.0937,0.10473 -0.254917,0.1447 -0.520877,0.1447"
       style="fill:#000000;fill-opacity:1;fill-rule:nonzero;stroke:none;stroke-width:0.35277778" />
    <path
       inkscape:connector-curvature="0"
       id="path806"
       d="m 39.988266,217.88132 h 0.231528 l 0.04272,0.15571 c 0.05648,-0.033 0.126788,-0.0744 0.209444,-0.10886 0.08269,-0.0345 0.183304,-0.0648 0.288008,-0.0799 l 0.02752,0.26459 c -0.07719,0.01 -0.175013,0.0262 -0.268711,0.0482 -0.09511,0.0234 -0.186055,0.0524 -0.242535,0.0854 v 0.96187 h -0.288043 z m 0,0"
       style="fill:#000000;fill-opacity:1;fill-rule:nonzero;stroke:none;stroke-width:0.35277778" />
    <path
       inkscape:connector-curvature="0"
       id="path808"
       d="m 41.344273,218.99615 c 0.07165,0 0.151589,-0.0179 0.224614,-0.0413 0.07302,-0.0234 0.136419,-0.0538 0.17914,-0.0772 v -0.29904 c -0.165347,0 -0.279717,0.006 -0.361033,0.0152 -0.08269,0.01 -0.130916,0.0234 -0.164006,0.0414 -0.02752,0.0165 -0.04131,0.0427 -0.0496,0.0744 -0.0081,0.033 -0.0095,0.0703 -0.0095,0.10335 0,0.0758 0.01658,0.12127 0.04685,0.14745 0.03034,0.0275 0.0744,0.0358 0.133668,0.0358 m -0.112995,0.23151 c -0.08819,0 -0.177765,-0.022 -0.243911,-0.0841 -0.06752,-0.0606 -0.111618,-0.16398 -0.111618,-0.32522 0,-0.16122 0.02752,-0.27285 0.121249,-0.32659 0.07306,-0.0427 0.161255,-0.0675 0.279753,-0.0813 0.118498,-0.0138 0.268711,-0.0152 0.471276,-0.0152 v -0.0593 c 0,-0.0937 -0.0081,-0.15847 -0.04272,-0.20119 -0.03457,-0.0427 -0.09783,-0.0606 -0.203941,-0.0606 -0.199814,0 -0.358281,0.0276 -0.453355,0.0482 l -0.03997,-0.2384 c 0.08266,-0.0165 0.257669,-0.0524 0.500204,-0.0524 0.19431,0 0.326602,0.0317 0.409293,0.10335 0.08132,0.073 0.11437,0.18879 0.11437,0.35829 v 0.91502 h -0.227365 l -0.04272,-0.13781 c -0.03457,0.0207 -0.101989,0.0606 -0.19431,0.0937 -0.09232,0.0344 -0.208069,0.0634 -0.336233,0.0634"
       style="fill:#000000;fill-opacity:1;fill-rule:nonzero;stroke:none;stroke-width:0.35277778" />
    <path
       inkscape:connector-curvature="0"
       id="path810"
       d="m 42.176617,217.88132 h 0.304553 c 0.07027,0.18052 0.135043,0.34312 0.191523,0.48507 0.02328,0.0606 0.04685,0.11988 0.07027,0.17776 0.02328,0.0593 0.0441,0.11024 0.06202,0.15572 0.01799,0.0455 0.03175,0.0827 0.04272,0.11024 0.01094,0.0289 0.01658,0.0427 0.01658,0.0427 l 0.37345,-0.97151 h 0.270087 l -0.738611,1.89204 h -0.288008 l 0.228741,-0.58429 z m 0,0"
       style="fill:#000000;fill-opacity:1;fill-rule:nonzero;stroke:none;stroke-width:0.35277778" />
    <path
       inkscape:connector-curvature="0"
       id="path812"
       d="m 44.137567,219.23317 c -0.09373,0 -0.199813,-0.01 -0.29217,-0.022 -0.0937,-0.0124 -0.173602,-0.0289 -0.21911,-0.0455 l 0.03722,-0.21636 c 0.03859,0.011 0.115746,0.0262 0.205316,0.04 0.0882,0.0138 0.188807,0.0248 0.271498,0.0248 0.126789,0 0.205317,-0.011 0.252166,-0.04 0.04685,-0.0289 0.06064,-0.0785 0.06064,-0.15571 0,-0.0565 -0.01235,-0.0909 -0.05514,-0.11438 -0.0441,-0.0234 -0.11437,-0.0386 -0.230117,-0.0551 -0.209444,-0.0289 -0.34036,-0.0565 -0.420299,-0.11438 -0.07994,-0.0579 -0.107492,-0.14745 -0.107492,-0.30317 0,-0.14882 0.04823,-0.24666 0.139171,-0.30868 0.09098,-0.0606 0.226025,-0.0854 0.406541,-0.0854 0.100577,0 0.205317,0.005 0.294887,0.0138 0.08819,0.008 0.159844,0.0207 0.198438,0.0303 l -0.03997,0.22049 c -0.0441,-0.007 -0.125377,-0.0179 -0.212196,-0.0276 -0.08682,-0.01 -0.17914,-0.0152 -0.246662,-0.0152 -0.100612,0 -0.166758,0.01 -0.206728,0.0358 -0.03997,0.0276 -0.05648,0.0675 -0.05648,0.12816 0,0.0661 0.01376,0.10473 0.06339,0.12815 0.0496,0.0234 0.135043,0.0358 0.278341,0.0524 0.187431,0.022 0.307305,0.0537 0.38033,0.11437 0.07306,0.0606 0.09924,0.14746 0.09924,0.28388 0,0.1819 -0.05235,0.29077 -0.151589,0.3514 -0.100612,0.062 -0.25079,0.0799 -0.449228,0.0799"
       style="fill:#000000;fill-opacity:1;fill-rule:nonzero;stroke:none;stroke-width:0.35277778" />
    <path
       inkscape:connector-curvature="0"
       id="path814"
       d="m 45.55831,219.24006 c -0.221862,0 -0.384458,-0.0441 -0.491949,-0.15434 -0.10474,-0.11024 -0.157092,-0.28663 -0.157092,-0.55122 0,-0.2632 0.05373,-0.43821 0.162595,-0.54846 0.108867,-0.11024 0.272839,-0.15433 0.496112,-0.15433 0.07165,0 0.151553,0.007 0.224613,0.0165 0.07165,0.01 0.137795,0.022 0.183268,0.0331 l -0.04822,0.24115 c -0.08407,-0.0179 -0.214983,-0.0427 -0.366572,-0.0427 -0.119874,0 -0.209444,0.0152 -0.268711,0.0799 -0.06064,0.0648 -0.08957,0.17639 -0.08957,0.36794 0,0.19292 0.03175,0.31005 0.09232,0.37758 0.06064,0.0675 0.151589,0.0882 0.270087,0.0882 0.132291,0 0.265959,-0.0207 0.365195,-0.0468 l 0.05098,0.23427 c -0.05648,0.0152 -0.125377,0.0303 -0.198438,0.0413 -0.07302,0.011 -0.151588,0.0179 -0.224613,0.0179"
       style="fill:#000000;fill-opacity:1;fill-rule:nonzero;stroke:none;stroke-width:0.35277778" />
    <path
       inkscape:connector-curvature="0"
       id="path816"
       d="m 46.608388,218.99615 c 0.07165,0 0.151589,-0.0179 0.224614,-0.0413 0.07303,-0.0234 0.136419,-0.0538 0.17914,-0.0772 v -0.29904 c -0.165347,0 -0.279753,0.006 -0.361033,0.0152 -0.08269,0.01 -0.130915,0.0234 -0.164006,0.0414 -0.02752,0.0165 -0.04134,0.0427 -0.0496,0.0744 -0.0081,0.033 -0.0095,0.0703 -0.0095,0.10335 0,0.0758 0.01658,0.12127 0.04685,0.14745 0.03034,0.0275 0.0744,0.0358 0.133668,0.0358 m -0.112995,0.23151 c -0.08819,0 -0.177765,-0.022 -0.24391,-0.0841 -0.06756,-0.0606 -0.111655,-0.16398 -0.111655,-0.32522 0,-0.16122 0.02752,-0.27285 0.121285,-0.32659 0.07303,-0.0427 0.16122,-0.0675 0.279753,-0.0813 0.118498,-0.0138 0.268711,-0.0152 0.471276,-0.0152 v -0.0593 c 0,-0.0937 -0.0081,-0.15847 -0.04272,-0.20119 -0.03457,-0.0427 -0.09783,-0.0606 -0.203941,-0.0606 -0.199813,0 -0.358281,0.0276 -0.45339,0.0482 l -0.03997,-0.2384 c 0.08269,-0.0165 0.257704,-0.0524 0.500239,-0.0524 0.19431,0 0.326602,0.0317 0.409293,0.10335 0.08128,0.073 0.11437,0.18879 0.11437,0.35829 v 0.91502 h -0.227365 l -0.04272,-0.13781 c -0.03457,0.0207 -0.101988,0.0606 -0.19431,0.0937 -0.09232,0.0344 -0.208104,0.0634 -0.336233,0.0634"
       style="fill:#000000;fill-opacity:1;fill-rule:nonzero;stroke:none;stroke-width:0.35277778" />
    <path
       inkscape:connector-curvature="0"
       id="path818"
       d="m 47.600575,217.09446 h 0.285257 v 2.11391 h -0.285257 z m 0,0"
       style="fill:#000000;fill-opacity:1;fill-rule:nonzero;stroke:none;stroke-width:0.35277778" />
    <path
       inkscape:connector-curvature="0"
       id="path820"
       d="m 49.028197,218.38981 c 0,-0.13367 -0.02082,-0.21911 -0.0689,-0.27009 -0.0496,-0.051 -0.124001,-0.0689 -0.230117,-0.0689 -0.08269,0 -0.15434,0.0165 -0.205316,0.0675 -0.05101,0.051 -0.08407,0.13505 -0.09373,0.27147 z m -0.228741,0.85025 c -0.227366,0 -0.394124,-0.0441 -0.502991,-0.15434 -0.110243,-0.11024 -0.162595,-0.28663 -0.162595,-0.55122 0,-0.27147 0.06339,-0.44924 0.170885,-0.55948 0.107492,-0.10886 0.257669,-0.1502 0.432682,-0.1502 0.19431,0 0.340396,0.0372 0.435469,0.13504 0.09507,0.0978 0.143334,0.25356 0.143334,0.48921 v 0.12953 h -0.891611 c 0,0.17501 0.03584,0.27699 0.09924,0.33762 0.06336,0.0606 0.157092,0.0772 0.278341,0.0772 0.06615,0 0.14471,-0.004 0.217735,-0.011 0.07165,-0.007 0.141957,-0.0179 0.191558,-0.0303 l 0.04272,0.23427 c -0.04547,0.0124 -0.121285,0.0262 -0.203976,0.0358 -0.08266,0.011 -0.173602,0.0179 -0.250789,0.0179"
       style="fill:#000000;fill-opacity:1;fill-rule:nonzero;stroke:none;stroke-width:0.35277778" />
    <path
       inkscape:connector-curvature="0"
       id="path1236"
       d="m 35.385644,211.37146 c 0.07027,0 0.135044,-0.007 0.181893,-0.0455 0.04822,-0.0372 0.07856,-0.10887 0.07856,-0.24116 0,-0.13229 -0.03175,-0.20395 -0.07994,-0.24115 -0.0496,-0.0372 -0.115747,-0.0427 -0.184644,-0.0427 h -0.326602 v 0.57051 z m -0.640785,-0.82682 h 0.640785 c 0.190148,0 0.333481,0.0262 0.428555,0.10473 0.09507,0.0799 0.141958,0.21498 0.141958,0.43132 0,0.21774 -0.04964,0.35278 -0.14471,0.43409 -0.09645,0.0799 -0.241159,0.10749 -0.42993,0.10749 h -0.326602 v 0.47266 h -0.310056 z m 0,0"
       style="fill:#ffffff;fill-opacity:1;fill-rule:nonzero;stroke:none;stroke-width:0.35277778" />
    <path
       inkscape:connector-curvature="0"
       id="path1238"
       d="m 36.887702,211.85516 c 0.133667,0 0.231493,-0.0248 0.294887,-0.0992 0.06477,-0.0744 0.0937,-0.19293 0.0937,-0.37896 v -0.11438 c 0,-0.18604 -0.03175,-0.30593 -0.09645,-0.37758 -0.06477,-0.0717 -0.163972,-0.0965 -0.296263,-0.0965 -0.133668,0 -0.230152,0.0248 -0.294922,0.0937 -0.06339,0.0717 -0.09507,0.19017 -0.09507,0.3762 v 0.11438 c 0,0.18604 0.03175,0.3073 0.09783,0.38034 0.06477,0.0744 0.16263,0.10198 0.296298,0.10198 m -0.0042,0.26458 c -0.140582,0 -0.268746,-0.0152 -0.374827,-0.0579 -0.106115,-0.0441 -0.190182,-0.11713 -0.248073,-0.23565 -0.05923,-0.11988 -0.09232,-0.28249 -0.09232,-0.50711 0,-0.22324 0.03316,-0.38585 0.09232,-0.50574 0.05789,-0.11851 0.144709,-0.19293 0.252201,-0.23565 0.106115,-0.0441 0.232868,-0.0579 0.374826,-0.0579 0.140547,0 0.267335,0.0124 0.373451,0.0565 0.106115,0.0427 0.191523,0.11575 0.25079,0.23288 0.05789,0.11851 0.09095,0.2825 0.09095,0.50574 0,0.22325 -0.03175,0.38723 -0.09232,0.50574 -0.05927,0.11989 -0.146086,0.19431 -0.252166,0.23978 -0.107492,0.0455 -0.23428,0.0593 -0.374827,0.0593"
       style="fill:#ffffff;fill-opacity:1;fill-rule:nonzero;stroke:none;stroke-width:0.35277778" />
    <path
       inkscape:connector-curvature="0"
       id="path1240"
       d="m 38.362207,212.11147 c -0.115782,0 -0.23428,-0.011 -0.330729,-0.0234 -0.09511,-0.0124 -0.172262,-0.0276 -0.208104,-0.0386 l 0.04822,-0.26045 c 0.02081,0.005 0.06615,0.0124 0.124037,0.0207 0.05651,0.01 0.124037,0.0179 0.190183,0.0248 0.06477,0.007 0.12954,0.0124 0.17914,0.0124 0.110243,0 0.181892,-0.008 0.227366,-0.0358 0.0441,-0.0276 0.06064,-0.073 0.06064,-0.15434 0,-0.0717 -0.01093,-0.11163 -0.05376,-0.14056 -0.04269,-0.0289 -0.117122,-0.0455 -0.245286,-0.0703 -0.140546,-0.0276 -0.246662,-0.0537 -0.323814,-0.0882 -0.07856,-0.0345 -0.128165,-0.0785 -0.159879,-0.14193 -0.03034,-0.062 -0.04272,-0.14332 -0.04272,-0.25632 0,-0.16123 0.05101,-0.2701 0.147461,-0.339 0.09649,-0.0675 0.237031,-0.0951 0.41342,-0.0951 0.0937,0 0.206693,0.007 0.304553,0.0193 0.09645,0.011 0.177765,0.0234 0.212196,0.0345 l -0.0496,0.26183 c -0.04822,-0.007 -0.121249,-0.0179 -0.205316,-0.0275 -0.08132,-0.008 -0.176389,-0.0165 -0.264584,-0.0165 -0.08957,0 -0.150213,0.011 -0.188807,0.0358 -0.03718,0.0248 -0.05373,0.0675 -0.05373,0.13091 0,0.073 0.01235,0.113 0.05373,0.14194 0.04272,0.0289 0.114371,0.0455 0.238408,0.0703 0.135043,0.0275 0.241159,0.0496 0.319722,0.0827 0.07853,0.0331 0.133668,0.0744 0.169475,0.13643 0.03457,0.062 0.04823,0.14607 0.04823,0.2632 0,0.17363 -0.04823,0.28663 -0.148802,0.35691 -0.100612,0.0703 -0.253577,0.0965 -0.461645,0.0965"
       style="fill:#ffffff;fill-opacity:1;fill-rule:nonzero;stroke:none;stroke-width:0.35277778" />
    <path
       inkscape:connector-curvature="0"
       id="path1242"
       d="m 48.811873,210.54464 h 0.308681 l 0.682131,0.98668 v -0.98668 h 0.297639 v 1.55029 h -0.265959 l -0.723477,-1.05282 v 1.05282 h -0.299015 z m 0,0"
       style="fill:#ffffff;fill-opacity:1;fill-rule:nonzero;stroke:none;stroke-width:0.35277778" />
    <path
       inkscape:connector-curvature="0"
       id="path1244"
       d="m 50.431053,210.54464 h 1.029406 v 0.27285 h -0.71935 v 0.34589 h 0.567761 v 0.27285 h -0.567761 v 0.39136 h 0.71935 v 0.26734 h -1.029406 z m 0,0"
       style="fill:#ffffff;fill-opacity:1;fill-rule:nonzero;stroke:none;stroke-width:0.35277778" />
    <path
       inkscape:connector-curvature="0"
       id="path1246"
       d="m 52.342403,212.1156 c -0.141958,0 -0.265959,-0.0152 -0.367947,-0.0579 -0.103364,-0.0441 -0.183268,-0.11575 -0.237032,-0.23426 -0.0551,-0.11713 -0.08403,-0.27974 -0.08403,-0.50436 0,-0.22324 0.03034,-0.38723 0.08678,-0.50574 0.05514,-0.11714 0.13783,-0.19017 0.241159,-0.23427 0.103364,-0.0441 0.230152,-0.0579 0.374826,-0.0579 0.126789,0 0.230153,0.008 0.311468,0.0179 0.0799,0.01 0.136419,0.022 0.173602,0.0303 l -0.04685,0.2701 c -0.117122,-0.022 -0.276966,-0.0441 -0.442348,-0.0441 -0.140547,0 -0.234245,0.0275 -0.292135,0.0992 -0.05789,0.0703 -0.08132,0.18603 -0.08132,0.3638 v 0.11438 c 0,0.17225 0.02187,0.29352 0.07994,0.37069 0.05789,0.0786 0.155716,0.11438 0.305928,0.11438 0.09783,0 0.181893,-0.0124 0.228742,-0.0193 v -0.53192 h 0.289383 v 0.74552 c -0.03718,0.011 -0.104704,0.0262 -0.198437,0.0386 -0.09232,0.0138 -0.209444,0.0248 -0.341736,0.0248"
       style="fill:#ffffff;fill-opacity:1;fill-rule:nonzero;stroke:none;stroke-width:0.35277778" />
    <path
       inkscape:connector-curvature="0"
       id="path1320"
       d="m 36.862901,120.36168 v 14.27785"
       style="fill:none;stroke:#000000;stroke-width:0.35277778;stroke-linecap:butt;stroke-linejoin:miter;stroke-miterlimit:10;stroke-opacity:1" />
    <path
       inkscape:connector-curvature="0"
       id="path1322"
       d="m 50.862394,120.36168 v 14.27785"
       style="fill:none;stroke:#000000;stroke-width:0.35277778;stroke-linecap:butt;stroke-linejoin:miter;stroke-miterlimit:10;stroke-opacity:1" />
    <path
       inkscape:connector-curvature="0"
       id="path1324"
       d="m 43.864694,193.82352 2.020217,-3.07578 c 0.152965,-0.23427 0.507118,-0.42443 0.786871,-0.42443 h 4.156146"
       style="fill:none;stroke:#000000;stroke-width:0.35277778;stroke-linecap:butt;stroke-linejoin:miter;stroke-miterlimit:4;stroke-opacity:1" />
    <path
       inkscape:connector-curvature="0"
       id="path1326"
       d="m 43.864694,179.82403 2.020217,-3.07716 c 0.152965,-0.23288 0.507118,-0.42443 0.786871,-0.42443 h 4.156146"
       style="fill:none;stroke:#000000;stroke-width:0.35277778;stroke-linecap:butt;stroke-linejoin:miter;stroke-miterlimit:4;stroke-opacity:1" />
    <path
       inkscape:connector-curvature="0"
       id="path1328"
       d="m 43.864694,165.82316 2.020217,-3.07578 c 0.152965,-0.23289 0.507118,-0.42443 0.786871,-0.42443 h 4.156146"
       style="fill:none;stroke:#000000;stroke-width:0.35277778;stroke-linecap:butt;stroke-linejoin:miter;stroke-miterlimit:4;stroke-opacity:1" />
    <path
       inkscape:connector-curvature="0"
       id="path1330"
       d="m 43.864694,151.82367 2.020217,-3.07578 c 0.152965,-0.23427 0.507118,-0.42444 0.786871,-0.42444 h 4.156146"
       style="fill:none;stroke:#000000;stroke-width:0.35277778;stroke-linecap:butt;stroke-linejoin:miter;stroke-miterlimit:4;stroke-opacity:1" />
    <path
       inkscape:connector-curvature="0"
       id="path1332"
       d="m 43.864694,144.82324 -2.021558,3.07578 c -0.152964,0.23289 -0.507118,0.42443 -0.785495,0.42443 h -4.157557"
       style="fill:none;stroke:#000000;stroke-width:0.35277778;stroke-linecap:butt;stroke-linejoin:miter;stroke-miterlimit:4;stroke-opacity:1" />
    <path
       inkscape:connector-curvature="0"
       id="path1334"
       d="m 43.864694,158.82273 -2.021558,3.07578 c -0.152964,0.23427 -0.507118,0.42444 -0.785495,0.42444 h -4.157557"
       style="fill:none;stroke:#000000;stroke-width:0.35277778;stroke-linecap:butt;stroke-linejoin:miter;stroke-miterlimit:4;stroke-opacity:1" />
    <path
       inkscape:connector-curvature="0"
       id="path1336"
       d="m 43.864694,172.8236 -2.021558,3.07578 c -0.152964,0.23289 -0.507118,0.42444 -0.785495,0.42444 h -4.157557"
       style="fill:none;stroke:#000000;stroke-width:0.35277778;stroke-linecap:butt;stroke-linejoin:miter;stroke-miterlimit:4;stroke-opacity:1" />
    <path
       inkscape:connector-curvature="0"
       id="path1338"
       d="m 43.864694,186.82309 -2.021558,3.07578 c -0.152964,0.23289 -0.507118,0.42444 -0.785495,0.42444 h -4.157557"
       style="fill:none;stroke:#000000;stroke-width:0.35277778;stroke-linecap:butt;stroke-linejoin:miter;stroke-miterlimit:4;stroke-opacity:1" />
    <path
       inkscape:connector-curvature="0"
       id="path1364"
       d="m 41.856894,204.62734 c 0,2.76159 -2.239292,4.99953 -5.000907,4.99953 -2.760204,0 -4.999497,-2.23794 -4.999497,-4.99953 0,-2.76159 2.239293,-5.0009 4.999497,-5.0009 2.761615,0 5.000907,2.23931 5.000907,5.0009"
       style="fill:#000000;fill-opacity:1;fill-rule:nonzero;stroke:none;stroke-width:0.35277778" />
    <path
       inkscape:connector-curvature="0"
       id="path1366"
       d="m 55.863266,204.62734 c 0,2.76159 -2.239292,4.99953 -5.000872,4.99953 -2.760239,0 -4.999531,-2.23794 -4.999531,-4.99953 0,-2.76159 2.239292,-5.0009 4.999531,-5.0009 2.76158,0 5.000872,2.23931 5.000872,5.0009"
       style="fill:#000000;fill-opacity:1;fill-rule:nonzero;stroke:none;stroke-width:0.35277778" />
  </g>
  <g
     inkscape:groupmode="layer"
     id="layer5"
     inkscape:label="widgets"
     style="display:none">
    <circle
       r="4.2763124"
       cy="25.299036"
       cx="22.415855"
       id="circle67678"
       style="display:inline;opacity:1;vector-effect:none;fill:#ff0000;fill-opacity:1;fill-rule:evenodd;stroke:none;stroke-width:1;stroke-linecap:butt;stroke-linejoin:miter;stroke-miterlimit:4;stroke-dasharray:none;stroke-dashoffset:0;stroke-opacity:1;paint-order:normal" />
    <circle
       style="display:inline;opacity:1;vector-effect:none;fill:#ff0000;fill-opacity:1;fill-rule:evenodd;stroke:none;stroke-width:1;stroke-linecap:butt;stroke-linejoin:miter;stroke-miterlimit:4;stroke-dasharray:none;stroke-dashoffset:0;stroke-opacity:1;paint-order:normal"
       id="path67332"
       cx="8.414299"
       cy="25.299036"
       r="4.2763124" />
    <circle
       style="display:inline;opacity:1;vector-effect:none;fill:#ff0000;fill-opacity:1;fill-rule:evenodd;stroke:none;stroke-width:1;stroke-linecap:butt;stroke-linejoin:miter;stroke-miterlimit:4;stroke-dasharray:none;stroke-dashoffset:0;stroke-opacity:1;paint-order:normal"
       id="circle67680"
       cx="8.414299"
       cy="53.298897"
       r="4.2763124" />
    <circle
       r="4.2763124"
       cy="53.298897"
       cx="22.415855"
       id="circle67682"
       style="display:inline;opacity:1;vector-effect:none;fill:#ff0000;fill-opacity:1;fill-rule:evenodd;stroke:none;stroke-width:1;stroke-linecap:butt;stroke-linejoin:miter;stroke-miterlimit:4;stroke-dasharray:none;stroke-dashoffset:0;stroke-opacity:1;paint-order:normal" />
    <circle
       r="4.2763124"
       cy="67.298698"
       cx="8.414299"
       id="circle67684"
       style="display:inline;opacity:1;vector-effect:none;fill:#ff0000;fill-opacity:1;fill-rule:evenodd;stroke:none;stroke-width:1;stroke-linecap:butt;stroke-linejoin:miter;stroke-miterlimit:4;stroke-dasharray:none;stroke-dashoffset:0;stroke-opacity:1;paint-order:normal" />
    <circle
       style="display:inline;opacity:1;vector-effect:none;fill:#ff0000;fill-opacity:1;fill-rule:evenodd;stroke:none;stroke-width:1;stroke-linecap:butt;stroke-linejoin:miter;stroke-miterlimit:4;stroke-dasharray:none;stroke-dashoffset:0;stroke-opacity:1;paint-order:normal"
       id="circle67686"
       cx="22.415855"
       cy="67.298698"
       r="4.2763124" />
    <circle
       style="display:inline;opacity:1;vector-effect:none;fill:#ff0000;fill-opacity:1;fill-rule:evenodd;stroke:none;stroke-width:1;stroke-linecap:butt;stroke-linejoin:miter;stroke-miterlimit:4;stroke-dasharray:none;stroke-dashoffset:0;stroke-opacity:1;paint-order:normal"
       id="circle67688"
       cx="8.414299"
       cy="81.297684"
       r="4.2763124" />
    <circle
       r="4.2763124"
       cy="81.297684"
       cx="22.415855"
       id="circle67690"
       style="display:inline;opacity:1;vector-effect:none;fill:#ff0000;fill-opacity:1;fill-rule:evenodd;stroke:none;stroke-width:1;stroke-linecap:butt;stroke-linejoin:miter;stroke-miterlimit:4;stroke-dasharray:none;stroke-dashoffset:0;stroke-opacity:1;paint-order:normal" />
    <circle
       r="4.2763124"
       cy="95.298744"
       cx="8.414299"
       id="circle67692"
       style="display:inline;opacity:1;vector-effect:none;fill:#ff0000;fill-opacity:1;fill-rule:evenodd;stroke:none;stroke-width:1;stroke-linecap:butt;stroke-linejoin:miter;stroke-miterlimit:4;stroke-dasharray:none;stroke-dashoffset:0;stroke-opacity:1;paint-order:normal" />
    <circle
       style="display:inline;opacity:1;vector-effect:none;fill:#ff0000;fill-opacity:1;fill-rule:evenodd;stroke:none;stroke-width:1;stroke-linecap:butt;stroke-linejoin:miter;stroke-miterlimit:4;stroke-dasharray:none;stroke-dashoffset:0;stroke-opacity:1;paint-order:normal"
       id="circle67694"
       cx="22.415855"
       cy="95.298744"
       r="4.2763124" />
    <circle
       style="display:inline;opacity:1;vector-effect:none;fill:#ff00ff;fill-opacity:1;fill-rule:evenodd;stroke:none;stroke-width:0.2928932;stroke-linecap:butt;stroke-linejoin:miter;stroke-miterlimit:4;stroke-dasharray:none;stroke-dashoffset:0;stroke-opacity:1;paint-order:normal"
       id="circle67400"
       cx="15.415421"
       cy="49.800056"
       r="1.2525029" />
    <circle
       r="1.2525029"
       cy="56.800301"
       cx="15.415421"
       id="circle67711"
       style="display:inline;opacity:1;vector-effect:none;fill:#ff00ff;fill-opacity:1;fill-rule:evenodd;stroke:none;stroke-width:0.2928932;stroke-linecap:butt;stroke-linejoin:miter;stroke-miterlimit:4;stroke-dasharray:none;stroke-dashoffset:0;stroke-opacity:1;paint-order:normal" />
    <circle
       r="1.2525029"
       cy="63.800053"
       cx="15.415421"
       id="circle67715"
       style="display:inline;opacity:1;vector-effect:none;fill:#ff00ff;fill-opacity:1;fill-rule:evenodd;stroke:none;stroke-width:0.2928932;stroke-linecap:butt;stroke-linejoin:miter;stroke-miterlimit:4;stroke-dasharray:none;stroke-dashoffset:0;stroke-opacity:1;paint-order:normal" />
    <circle
       style="display:inline;opacity:1;vector-effect:none;fill:#ff00ff;fill-opacity:1;fill-rule:evenodd;stroke:none;stroke-width:0.2928932;stroke-linecap:butt;stroke-linejoin:miter;stroke-miterlimit:4;stroke-dasharray:none;stroke-dashoffset:0;stroke-opacity:1;paint-order:normal"
       id="circle67717"
       cx="15.415421"
       cy="70.800293"
       r="1.2525029" />
    <circle
       style="display:inline;opacity:1;vector-effect:none;fill:#ff00ff;fill-opacity:1;fill-rule:evenodd;stroke:none;stroke-width:0.2928932;stroke-linecap:butt;stroke-linejoin:miter;stroke-miterlimit:4;stroke-dasharray:none;stroke-dashoffset:0;stroke-opacity:1;paint-order:normal"
       id="circle67719"
       cx="15.415421"
       cy="77.800423"
       r="1.2525029" />
    <circle
       r="1.2525029"
       cy="84.800659"
       cx="15.415421"
       id="circle67721"
       style="display:inline;opacity:1;vector-effect:none;fill:#ff00ff;fill-opacity:1;fill-rule:evenodd;stroke:none;stroke-width:0.2928932;stroke-linecap:butt;stroke-linejoin:miter;stroke-miterlimit:4;stroke-dasharray:none;stroke-dashoffset:0;stroke-opacity:1;paint-order:normal" />
    <circle
       r="1.2525029"
       cy="91.801285"
       cx="15.415421"
       id="circle67723"
       style="display:inline;opacity:1;vector-effect:none;fill:#ff00ff;fill-opacity:1;fill-rule:evenodd;stroke:none;stroke-width:0.2928932;stroke-linecap:butt;stroke-linejoin:miter;stroke-miterlimit:4;stroke-dasharray:none;stroke-dashoffset:0;stroke-opacity:1;paint-order:normal" />
    <circle
       style="display:inline;opacity:1;vector-effect:none;fill:#ff00ff;fill-opacity:1;fill-rule:evenodd;stroke:none;stroke-width:0.2928932;stroke-linecap:butt;stroke-linejoin:miter;stroke-miterlimit:4;stroke-dasharray:none;stroke-dashoffset:0;stroke-opacity:1;paint-order:normal"
       id="circle67725"
       cx="15.415421"
       cy="98.801521"
       r="1.2525029" />
    <circle
       style="display:inline;opacity:1;vector-effect:none;fill:#00ff00;fill-opacity:1;fill-rule:evenodd;stroke:none;stroke-width:1;stroke-linecap:butt;stroke-linejoin:miter;stroke-miterlimit:4;stroke-dasharray:none;stroke-dashoffset:0;stroke-opacity:1;paint-order:normal"
       id="circle67392"
       cx="8.4163628"
       cy="109.29804"
       r="4.2763124" />
    <circle
       r="4.2763124"
       cy="109.60259"
       cx="22.417231"
       id="circle67742"
       style="display:inline;opacity:1;vector-effect:none;fill:#00ff00;fill-opacity:1;fill-rule:evenodd;stroke:none;stroke-width:1;stroke-linecap:butt;stroke-linejoin:miter;stroke-miterlimit:4;stroke-dasharray:none;stroke-dashoffset:0;stroke-opacity:1;paint-order:normal" />
    <circle
       r="4.2763124"
       cy="39.299908"
       cx="22.415169"
       id="circle67346"
       style="display:inline;opacity:1;vector-effect:none;fill:#0000ff;fill-opacity:1;fill-rule:evenodd;stroke:none;stroke-width:1;stroke-linecap:butt;stroke-linejoin:miter;stroke-miterlimit:4;stroke-dasharray:none;stroke-dashoffset:0;stroke-opacity:1;paint-order:normal" />
    <circle
       style="display:inline;opacity:1;vector-effect:none;fill:#0000ff;fill-opacity:1;fill-rule:evenodd;stroke:none;stroke-width:1;stroke-linecap:butt;stroke-linejoin:miter;stroke-miterlimit:4;stroke-dasharray:none;stroke-dashoffset:0;stroke-opacity:1;paint-order:normal"
       id="circle67759"
       cx="8.4163628"
       cy="39.299908"
       r="4.2763124" />
  </g>
</svg>
