<?xml version="1.0" encoding="UTF-8" standalone="no"?>
<!-- Generator: Adobe Illustrator 22.0.0, SVG Export Plug-In . SVG Version: 6.00 Build 0)  -->

<svg
   xmlns:dc="http://purl.org/dc/elements/1.1/"
   xmlns:cc="http://creativecommons.org/ns#"
   xmlns:rdf="http://www.w3.org/1999/02/22-rdf-syntax-ns#"
   xmlns:svg="http://www.w3.org/2000/svg"
   xmlns="http://www.w3.org/2000/svg"
   xmlns:sodipodi="http://sodipodi.sourceforge.net/DTD/sodipodi-0.dtd"
   xmlns:inkscape="http://www.inkscape.org/namespaces/inkscape"
   version="1.1"
   id="svg3336"
   inkscape:version="0.91 r13725"
   sodipodi:docname="AutodafeKnobRed_BlackBG.svg"
   x="0px"
   y="0px"
   viewBox="0 0 35 35"
   xml:space="preserve"><metadata
     id="metadata3693"><rdf:RDF><cc:Work
         rdf:about=""><dc:format>image/svg+xml</dc:format><dc:type
           rdf:resource="http://purl.org/dc/dcmitype/StillImage" /><dc:title /></cc:Work></rdf:RDF></metadata><defs
     id="defs3691" /><sodipodi:namedview
     bordercolor="#666666"
     borderopacity="1"
     gridtolerance="10"
     guidetolerance="10"
     id="namedview3355"
     inkscape:current-layer="svg3336"
     inkscape:cx="13.137493"
     inkscape:cy="0.91951022"
     inkscape:pageopacity="0"
     inkscape:pageshadow="2"
     inkscape:window-height="996"
     inkscape:window-maximized="1"
     inkscape:window-width="1920"
     inkscape:window-x="0"
     inkscape:window-y="1"
     inkscape:zoom="22.627416"
     objecttolerance="10"
     pagecolor="#ffffff"
     showgrid="false" /><g
     id="svg3405"
     transform="translate(0,-0.700002)"
     inkscape:version="0.91 r13725"
     sodipodi:docname="AutodafeKnob.svg"
     display="none" /><g
     id="g3653"><g
       id="Layer_2_1_"
       transform="matrix(0.90215002,0,0,0.90400901,1.3402371,1.4949719)"><rect
         id="rect3340"
         x="-1.5"
         y="-1.7"
         fill="#E6E6E6"
         width="38.8"
         height="38.7" /></g><circle
       fill="#B70000"
       cx="17.5"
       cy="17.5"
       r="17.2"
       id="circle3657" /><path
       fill="#9C0000"
       d="M5.6,8.6L1.4,23.7c2.5,6.5,8.8,11.1,16.1,11.1c7.3,0,13.6-4.6,16.1-11L29.3,8.3L11.5,19L5.6,8.6z"
       id="path3659" /><g
       id="g3661"><path
         fill="#A80000"
         d="M10.5,30.2c-1.6-3.5-4.1-6.7-7-8.8c-0.5-0.4-0.6-1-0.3-1.5c1.7-3.2,2.5-7.1,2.5-11c0-0.6,0.4-1,1-1.2    c3.4-0.9,7.1-2.6,10.2-4.9c0.5-0.4,1.1-0.4,1.5,0c3,2.5,6.7,4.2,10.2,4.9c0.6,0.1,1,0.6,1,1.2c-0.1,3.8,0.8,7.7,2.5,11    c0.3,0.5,0.1,1.1-0.3,1.5c-3,2.3-5.5,5.4-7,8.8c-0.2,0.6-0.8,0.8-1.4,0.7c-4-1-8.1-0.8-11.3,0C11.3,31,10.7,30.8,10.5,30.2z"
         id="path3663" /></g><g
       id="g3665"><path
         fill="#A80000"
         d="M10.5,30.2c-1.6-3.5-4.1-6.7-7-8.8c-0.5-0.4-0.6-1-0.3-1.5c1.7-3.2,2.5-7.1,2.5-11c0-0.6,0.4-1,1-1.2    c3.4-0.9,7.1-2.6,10.2-4.9c0.5-0.4,1.1-0.4,1.5,0c3,2.5,6.7,4.2,10.2,4.9c0.6,0.1,1,0.6,1,1.2c-0.1,3.8,0.8,7.7,2.5,11    c0.3,0.5,0.1,1.1-0.3,1.5c-3,2.3-5.5,5.4-7,8.8c-0.2,0.6-0.8,0.8-1.4,0.7c-4-1-8.1-0.8-11.3,0C11.3,31,10.7,30.8,10.5,30.2z"
         id="path3667" /></g><path
       fill="#800000"
       d="M10.5,30.2c-1.6-3.5-4.1-6.7-7-8.8c-0.5-0.4-0.6-1-0.3-1.5c1.7-3.2,27.1-3.3,28.8,0   c0.3,0.5,0.1,1.1-0.3,1.5c-3,2.3-5.5,5.4-7,8.8c-0.2,0.6-0.8,0.8-1.4,0.7c-4-1-8.1-0.8-11.3,0C11.3,31,10.7,30.8,10.5,30.2z"
       id="path3669" /><path
       fill="#800000"
       d="M10.5,30.2c-1.6-3.5-4.1-6.7-7-8.8c-0.5-0.4-0.6-1-0.3-1.5c1.7-3.2,27.1-3.3,28.8,0   c0.3,0.5,0.1,1.1-0.3,1.5c-3,2.3-5.5,5.4-7,8.8c-0.2,0.6-0.8,0.8-1.4,0.7c-4-1-8.1-0.8-11.3,0C11.3,31,10.7,30.8,10.5,30.2z"
       id="path3671" /><g
       id="g3673"><path
         fill="#BF1B21"
         d="M10.5,30.2c-1.2-3.7-3.7-6.9-7-8.8c-0.5-0.3-0.7-1-0.3-1.5c2.2-3.2,3.1-7.2,2.5-11C5.5,8.3,6,7.7,6.6,7.7    c3.9-0.3,7.5-2,10.2-4.9c0.4-0.4,1.1-0.4,1.5,0c2.7,2.9,6.3,4.6,10.2,4.9c0.6,0,1,0.6,1,1.2c-0.6,3.9,0.3,7.8,2.5,11    c0.3,0.5,0.2,1.2-0.3,1.5c-3.4,2-5.9,5.1-7,8.8c-0.2,0.6-0.8,0.9-1.4,0.7c-4-1.5-8.1-1.2-11.3,0C11.3,31.1,10.7,30.8,10.5,30.2z"
         id="path3675" /></g><g
       id="g3677"><path
         fill="#FF0000"
         d="M10.5,30.2c-1.2-3.7-3.7-6.9-7-8.8c-0.5-0.3-0.7-1-0.3-1.5c2.2-3.2,3.1-7.2,2.5-11C5.5,8.3,6,7.7,6.6,7.7    c3.9-0.3,7.5-2,10.2-4.9c0.4-0.4,1.1-0.4,1.5,0c2.7,2.9,6.3,4.6,10.2,4.9c0.6,0,1,0.6,1,1.2c-0.6,3.9,0.3,7.8,2.5,11    c0.3,0.5,0.2,1.2-0.3,1.5c-3.4,2-5.9,5.1-7,8.8c-0.2,0.6-0.8,0.9-1.4,0.7c-4-1.5-8.1-1.2-11.3,0C11.3,31.1,10.7,30.8,10.5,30.2z"
         id="path3679" /></g><g
       id="g3681"><path
         fill="#D40000"
         d="M10.6,30c-1.1-3.6-3.6-6.7-6.9-8.6c-0.5-0.3-0.7-1-0.3-1.4c2.4-3,3.3-6.8,2.5-10.7    C5.7,8.7,6.2,8.2,6.7,8.1c3.9-0.1,7.4-1.9,10-4.8c0.4-0.4,1.1-0.4,1.5,0c2.6,2.9,6.2,4.5,10,4.8c0.6,0,1,0.6,0.9,1.2    c-0.6,3.7,0.3,7.6,2.5,10.7c0.3,0.5,0.2,1.2-0.3,1.4c-3.3,1.9-5.8,5-6.9,8.6c-0.2,0.6-0.8,0.9-1.4,0.6c-3.9-1.5-7.9-1.2-11.1,0    C11.4,30.9,10.8,30.6,10.6,30z"
         id="path3683" /></g><g
       id="g3685"><path
         fill="#CB0000"
         d="M10.5,30.2c-1.2-3.7-3.7-6.8-7-8.7c-0.5-0.3-0.6-1.8-0.2-1.3c5.6,7.4,20.2,9.7,28.5,0    c0.4-0.5,0.3,1.1-0.2,1.4c-3.4,1.9-5.9,5-7,8.7c-0.2,0.6-0.8,0.9-1.4,0.7c-4-1.5-8.1-1.2-11.3,0C11.3,31.1,10.7,30.8,10.5,30.2z"
         id="path3687" /></g><path
       fill="#FFE1EA"
       d="M17.6,17.5h-0.2c-0.3,0-0.6-0.3-0.6-0.6V3.7c0-0.3,0.4-0.6,0.7-0.6h0.1c0.3,0,0.7,0.3,0.7,0.6v13.2   C18.2,17.2,18,17.5,17.6,17.5z"
       id="path3689" /></g><path
     style="fill:#000000;fill-opacity:1;stroke:#000000;stroke-width:0;stroke-miterlimit:4;stroke-dasharray:none;stroke-opacity:1"
     d="m 0.03184531,17.450456 0,-17.4566993 17.45669969,0 17.456699,0 0,17.4566993 0,17.4567 -17.456699,0 -17.45669969,0 0,-17.4567 z M 19.715823,34.683208 c 4.98928,-0.648406 9.442668,-3.440952 12.264044,-7.690301 0.592206,-0.891936 1.495371,-2.638048 1.598337,-3.090101 0.03322,-0.145841 0.194864,-0.697956 0.359211,-1.226922 C 36.195689,15.407425 33.463165,7.5244716 27.211263,3.2718669 24.7163,1.5747682 22.174442,0.65904526 19.079535,0.34235257 17.859422,0.217502 16.060342,0.27591461 14.7927,0.48153769 7.9440147,1.5924567 2.4661469,6.6199255 0.78184496,13.340398 c -0.62556782,2.496055 -0.65602527,5.414158 -0.0834904,7.999146 0.23687948,1.069507 0.90688814,3.017901 1.32205114,3.844539 2.6129227,5.20264 7.506355,8.721251 13.2142363,9.501662 1.1688,0.159805 3.241038,0.158631 4.481181,-0.0025 z"
     id="path3695"
     inkscape:connector-curvature="0" /><path
     style="fill:#1a1a1a;fill-opacity:1;stroke:#000000;stroke-width:0;stroke-miterlimit:4;stroke-dasharray:none;stroke-opacity:1"
     d="m 0.0318453,17.450456 0,-17.4566993 17.4566997,0 17.456699,0 0,17.4566993 0,17.4567 -17.456699,0 -17.4566997,0 0,-17.4567 z M 19.907726,34.68525 c 3.736226,-0.531052 7.173416,-2.25487 9.867079,-4.948534 2.56315,-2.563149 4.095576,-5.579546 4.735269,-9.32081 C 35.332087,15.608338 34.065868,10.664667 31.011232,6.7554656 30.329354,5.8828245 28.767534,4.3610288 27.852559,3.6777388 24.851831,1.4368391 21.306765,0.25892175 17.563271,0.25892175 c -2.704996,0 -5.053271,0.51675797 -7.410959,1.63084475 -6.4406627,3.0434288 -10.32389157,9.6391145 -9.85325376,16.7358055 0.12163125,1.834063 0.34404702,2.918264 0.97487376,4.752173 0.8348588,2.427062 1.9571449,4.251854 3.7912953,6.164495 2.620021,2.732141 6.1297187,4.560506 9.8600557,5.136562 1.084252,0.167435 3.824862,0.170982 4.982443,0.0064 l 0,5e-6 z"
     id="path3783"
     inkscape:connector-curvature="0" /><path
     style="fill:#1a1a1a;fill-opacity:1;stroke:#000000;stroke-width:0;stroke-miterlimit:4;stroke-dasharray:none;stroke-opacity:1"
     d="m 0.0318453,17.450456 0,-17.4566993 17.4566997,0 17.456699,0 0,17.4566993 0,17.4567 -17.456699,0 -17.4566997,0 0,-17.4567 z M 19.779888,34.685219 c 3.872814,-0.507682 7.376104,-2.292069 10.174065,-5.182118 2.243235,-2.317067 3.454869,-4.517989 4.250842,-7.721616 C 35.211954,17.72788 34.78489,13.630447 32.970323,9.9374462 31.570991,7.0895307 29.646916,4.8801723 27.05995,3.1507399 24.031297,1.1260327 20.677466,0.17141392 17.002409,0.28800869 15.268285,0.34302545 14.249146,0.49564789 12.759768,0.92337076 6.5671032,2.7017934 1.9445914,7.6988735 0.60048594,14.067936 c -0.18764523,0.88916 -0.23725696,1.410688 -0.27552571,2.896384 -0.0692271,2.687582 0.18356556,4.301341 1.04171487,6.650019 1.7560537,4.806162 5.6908964,8.639065 10.5911499,10.316763 1.022032,0.349912 2.507165,0.698519 3.276817,0.769171 0.315988,0.02901 0.591097,0.06753 0.611353,0.08562 0.101975,0.09104 3.04624,0.01569 3.933893,-0.10067 z"
     id="path3785"
     inkscape:connector-curvature="0" /><path
     style="fill:#1a1a1a;fill-opacity:1;stroke:#000000;stroke-width:0;stroke-miterlimit:4;stroke-dasharray:none;stroke-opacity:1"
     d="m 0.0318453,17.450456 0,-17.4566993 17.4566997,0 17.456699,0 0,17.4566993 0,17.4567 -17.456699,0 -17.4566997,0 0,-17.4567 z M 20.360372,34.6032 c 2.380776,-0.435282 4.706324,-1.34889 6.585726,-2.587248 2.757366,-1.816858 5.085791,-4.538169 6.344867,-7.415467 0.425296,-0.971903 0.976059,-2.928077 1.216841,-4.321916 0.249248,-1.442846 0.274906,-3.842475 0.05591,-5.229128 C 33.09931,5.7768988 24.961526,-0.58131592 15.75224,0.35165307 13.63474,0.56617152 11.779674,1.1171205 9.754564,2.1329448 5.6776808,4.1779678 2.6796392,7.611773 1.1945548,11.937146 c -0.70918352,2.065528 -0.9476189,3.771331 -0.86948347,6.220417 0.0699999,2.194085 0.38941748,3.768526 1.17968757,5.814795 1.8045722,4.672632 5.7705629,8.395794 10.6557851,10.003355 1.073754,0.353335 2.558131,0.690262 3.471845,0.788045 0.773036,0.08273 3.995952,-0.02672 4.727983,-0.160558 z"
     id="path3787"
     inkscape:connector-curvature="0" /><path
     style="fill:#1a1a1a;fill-opacity:1;stroke:#000000;stroke-width:0;stroke-miterlimit:4;stroke-dasharray:none;stroke-opacity:1"
     d="m 0.0318453,17.450456 0,-17.4566993 17.4566997,0 17.456699,0 0,17.4566993 0,17.4567 -17.456699,0 -17.4566997,0 0,-17.4567 z M 18.859038,34.73539 c 5.893872,-0.361153 11.409792,-4.074463 14.121775,-9.506759 0.601963,-1.205773 1.228078,-3.216898 1.52297,-4.891881 0.291811,-1.657482 0.237424,-4.447784 -0.1209,-6.202745 C 33.004289,7.3820852 27.777832,2.0582147 21.155386,0.65996846 12.908918,-1.0811699 4.6440015,3.300337 1.5347396,11.061526 c -0.79693075,1.989259 -1.12273968,3.533495 -1.20809773,5.726017 -0.0925126,2.376297 0.17542546,4.253614 0.91416573,6.405134 0.9115312,2.65476 2.2113279,4.720429 4.21848,6.704111 2.2742475,2.247654 5.3228124,3.885285 8.4944304,4.563046 1.690146,0.361177 2.63857,0.414455 4.90532,0.275556 z"
     id="path3789"
     inkscape:connector-curvature="0" /><path
     style="fill:#1a1a1a;fill-opacity:1;stroke:#000000;stroke-width:0;stroke-miterlimit:4;stroke-dasharray:none;stroke-opacity:1"
     d="m 0.0318453,17.450456 0,-17.4566993 17.4566997,0 17.456699,0 0,17.4566993 0,17.4567 -17.456699,0 -17.4566997,0 0,-17.4567 z M 20.184389,34.59663 c 5.31227,-0.775027 10.257209,-4.358912 12.68178,-9.191222 0.869775,-1.733511 1.492808,-3.858014 1.733892,-5.912455 0.128718,-1.096901 0.05662,-3.90357 -0.125135,-4.870924 C 33.503995,9.4542837 30.554251,5.1906331 26.161283,2.6052339 24.258793,1.4855588 22.11628,0.74818757 19.830836,0.42653531 18.671418,0.26335942 16.042963,0.28711332 14.925283,0.47086784 11.0868,1.1019411 7.8354078,2.7781201 5.1965256,5.4862998 3.7154805,7.0062375 2.8610338,8.234879 1.9396577,10.169474 0.99624645,12.150335 0.53336169,13.911775 0.36922321,16.145528 0.04818219,20.51456 1.2299825,24.615193 3.7830855,27.991013 c 0.7620413,1.007602 2.3573564,2.595622 3.3640221,3.348638 2.4315052,1.818837 5.5185204,3.068898 8.3800694,3.393436 0.851995,0.09663 3.614347,0.01569 4.657212,-0.136457 z"
     id="path3791"
     inkscape:connector-curvature="0" /><path
     style="fill:#1a1a1a;fill-opacity:1;stroke:#000000;stroke-width:0;stroke-miterlimit:4;stroke-dasharray:none;stroke-opacity:1"
     d="m 0.0318453,17.450456 0,-17.4566993 17.4566997,0 17.456699,0 0,17.4566993 0,17.4567 -17.456699,0 -17.4566997,0 0,-17.4567 z M 19.760201,34.633511 c 1.673553,-0.173667 3.397423,-0.686652 5.171759,-1.539 1.925684,-0.925051 3.322964,-1.918818 4.842566,-3.444107 2.482608,-2.491899 4.039701,-5.534942 4.682238,-9.15055 0.326503,-1.83726 0.265096,-4.739559 -0.139822,-6.608488 C 33.76858,11.360368 32.44125,8.5978116 30.812814,6.5982681 30.205804,5.852925 28.799494,4.4653159 28.095147,3.9167392 25.827632,2.1506991 23.158225,0.98828961 20.272778,0.51044056 18.996522,0.29908414 16.493691,0.25965433 15.234642,0.43106935 8.7133448,1.3189206 3.2660266,5.8296898 1.1858638,12.064462 c -0.46722781,1.4004 -0.69049143,2.519083 -0.80770205,4.047065 -0.25623089,3.340281 0.37531266,6.518293 1.87654805,9.443042 1.6763941,3.265999 4.5783946,6.044399 7.9646292,7.625405 1.839286,0.858747 4.09326,1.470595 5.810798,1.577358 0.670358,0.04167 2.824341,-0.02983 3.730064,-0.123821 z"
     id="path3793"
     inkscape:connector-curvature="0" /><path
     style="fill:#1a1a1a;fill-opacity:1;stroke:#000000;stroke-width:0;stroke-miterlimit:4;stroke-dasharray:none;stroke-opacity:1"
     d="m 0.0318453,17.450456 0,-17.4566993 17.4566997,0 17.456699,0 0,17.4566993 0,17.4567 -17.456699,0 -17.4566997,0 0,-17.4567 z M 19.666792,34.636688 c 2.953822,-0.302338 6.222267,-1.692074 8.689002,-3.694543 3.33341,-2.706028 5.363194,-6.262114 6.162178,-10.795844 0.149427,-0.847905 0.145579,-4.202865 -0.0059,-5.170719 C 34.060479,12.090972 32.896338,9.3689872 31.091578,6.9778867 30.364597,6.0147198 28.758496,4.4193735 27.785788,3.6942323 25.761241,2.18496 23.331595,1.1106525 20.76543,0.59006646 19.897624,0.4140188 19.526066,0.39172072 17.488545,0.39341308 15.330267,0.39520575 15.122913,0.40981681 14.080435,0.63356273 7.9634866,1.9464362 3.1288476,6.2433399 1.1757005,12.102961 c -0.46331918,1.39 -0.69057082,2.587825 -0.79139089,4.171358 -0.26848099,4.216904 0.79071879,8.027596 3.16431959,11.384301 0.6949002,0.982715 2.5955588,2.924536 3.5800861,3.657618 2.1543251,1.604119 4.9190917,2.809615 7.4872077,3.26458 0.907932,0.160847 3.721217,0.191967 5.050869,0.05587 z"
     id="path3795"
     inkscape:connector-curvature="0" /><path
     style="fill:#1a1a1a;fill-opacity:1;stroke:#000000;stroke-width:0;stroke-miterlimit:4;stroke-dasharray:none;stroke-opacity:1"
     d="m 0.0318453,17.450456 0,-17.4566993 17.4566997,0 17.456699,0 0,17.4566993 0,17.4567 -17.456699,0 -17.4566997,0 0,-17.4567 z M 19.514991,34.638648 c 2.922389,-0.277123 5.864704,-1.461701 8.425722,-3.392199 1.044798,-0.78757 2.788972,-2.562511 3.524958,-3.587138 2.343394,-3.262436 3.40262,-7.107703 3.133154,-11.374167 C 34.428392,13.586675 33.715164,11.270976 32.295401,8.8064183 29.622008,4.1656882 24.745507,0.96761867 19.525701,0.43189104 18.185372,0.29432814 15.470332,0.36576577 14.439147,0.56572756 7.4380133,1.9233483 2.0319135,7.2400363 0.63411085,14.142441 c -0.18413547,0.909268 -0.2043471,1.247758 -0.20280349,3.396403 0.001619,2.253826 0.0149319,2.448008 0.23948742,3.493228 1.15636542,5.382441 4.52831002,9.688691 9.43732222,12.052236 1.667486,0.802845 3.250223,1.292907 5.126525,1.587324 0.48167,0.07558 3.370218,0.05332 4.280349,-0.03298 z"
     id="path3797"
     inkscape:connector-curvature="0" /><rect
     style="fill:#1a1a1a;fill-opacity:1;stroke:#000000;stroke-width:0;stroke-miterlimit:4;stroke-dasharray:none;stroke-opacity:1"
     id="rect3439"
     width="35.377438"
     height="0.79549479"
     x="-0.17677651"
     y="34.823223" /><rect
     style="fill:#1a1a1a;fill-opacity:1;stroke:#000000;stroke-width:0;stroke-miterlimit:4;stroke-dasharray:none;stroke-opacity:1"
     id="rect3443"
     width="0.97227186"
     height="36.681168"
     x="-0.88388354"
     y="-1.1508358" /><rect
     style="fill:#1a1a1a;fill-opacity:1;stroke:#000000;stroke-width:0;stroke-miterlimit:4;stroke-dasharray:none;stroke-opacity:1"
     id="rect3445"
     width="38.316349"
     height="1.5909903"
     x="-1.2816311"
     y="-1.5485834" /><rect
     style="fill:#1a1a1a;fill-opacity:1;stroke:#000000;stroke-width:0;stroke-miterlimit:4;stroke-dasharray:none;stroke-opacity:1"
     id="rect3447"
     width="0.79545981"
     height="37.565014"
     x="34.869221"
     y="-1.9905074" /></svg>