<?xml version="1.0" encoding="UTF-8" standalone="no"?>
<!-- Generator: Adobe Illustrator 22.0.0, SVG Export Plug-In . SVG Version: 6.00 Build 0)  -->

<svg
   xmlns:dc="http://purl.org/dc/elements/1.1/"
   xmlns:cc="http://creativecommons.org/ns#"
   xmlns:rdf="http://www.w3.org/1999/02/22-rdf-syntax-ns#"
   xmlns:svg="http://www.w3.org/2000/svg"
   xmlns="http://www.w3.org/2000/svg"
   xmlns:sodipodi="http://sodipodi.sourceforge.net/DTD/sodipodi-0.dtd"
   xmlns:inkscape="http://www.inkscape.org/namespaces/inkscape"
   version="1.1"
   id="svg3336"
   inkscape:version="0.91 r13725"
   sodipodi:docname="AutodafeKnobRedBig_BlackBG.svg"
   x="0px"
   y="0px"
   viewBox="0 0 50 50"
   xml:space="preserve"><metadata
     id="metadata3547"><rdf:RDF><cc:Work
         rdf:about=""><dc:format>image/svg+xml</dc:format><dc:type
           rdf:resource="http://purl.org/dc/dcmitype/StillImage" /><dc:title /></cc:Work></rdf:RDF></metadata><defs
     id="defs3545" /><sodipodi:namedview
     bordercolor="#666666"
     borderopacity="1"
     gridtolerance="10"
     guidetolerance="10"
     id="namedview3355"
     inkscape:current-layer="Layer_2_2_"
     inkscape:cx="4.8567498"
     inkscape:cy="22.515729"
     inkscape:pageopacity="0"
     inkscape:pageshadow="2"
     inkscape:window-height="996"
     inkscape:window-maximized="1"
     inkscape:window-width="1920"
     inkscape:window-x="0"
     inkscape:window-y="1"
     inkscape:zoom="11.638655"
     objecttolerance="10"
     pagecolor="#ffffff"
     showgrid="false" /><g
     id="svg3405"
     transform="translate(0,14.299998)"
     inkscape:version="0.91 r13725"
     sodipodi:docname="AutodafeKnob.svg"
     display="none" /><g
     id="g3507"><g
       id="Layer_2_2_"
       transform="matrix(1.3051842,0,0,1.3006962,1.7745428,1.9597154)"><rect
         id="rect3340_1_"
         x="-1.4"
         y="-1.5"
         fill="#E6E6E6"
         width="38.3"
         height="38.4" /><path
         style="fill:#000000;fill-opacity:1;stroke:#000000;stroke-width:0;stroke-miterlimit:4;stroke-dasharray:none;stroke-opacity:1"
         d="m -0.05790717,24.949614 0,-24.95992893 25.00288917,0 25.002889,0 0,24.95992893 0,24.959929 -25.002889,0 -25.00288917,0 0,-24.959929 z M 28.674518,49.568124 c 6.548255,-0.998451 12.452293,-4.568328 16.345208,-9.88313 1.252542,-1.710033 2.206688,-3.413901 2.9831,-5.327077 2.222521,-5.476568 2.423459,-11.610651 0.563433,-17.200148 C 45.905595,9.1622999 39.288739,3.0044064 31.131264,0.93211192 25.106205,-0.59847139 18.507345,0.22550674 13.130902,3.1797584 6.8836289,6.6125143 2.3847597,12.530866 0.8020025,19.39867 0.31220862,21.523953 0.16520375,23.12349 0.22548051,25.671714 0.31585516,29.492338 1.009823,32.394108 2.6418597,35.775607 6.3813655,43.523677 13.710346,48.708155 22.32222,49.697376 c 1.521031,0.174717 4.795744,0.108086 6.352298,-0.129252 z"
         id="path3549"
         inkscape:connector-curvature="0"
         transform="matrix(0.76617538,0,0,0.76881904,-1.359611,-1.5066665)" /><path
         style="fill:#333333;fill-opacity:1;stroke:#000000;stroke-width:0;stroke-miterlimit:4;stroke-dasharray:none;stroke-opacity:1"
         d="m -0.05790744,24.949614 0,-24.95992893 25.00288944,0 25.002889,0 0,24.95992893 0,24.959929 -25.002889,0 -25.00288944,0 0,-24.959929 z M 28.639567,49.608811 c 1.996467,-0.310569 3.854549,-0.821244 5.670758,-1.558549 C 44.010863,44.112247 50.185366,34.616444 49.83399,24.176329 49.622943,17.905687 47.191381,12.190456 42.822505,7.6962806 38.973107,3.7364821 34.181068,1.2600289 28.713079,0.40474288 27.648006,0.23814761 27.14538,0.2118121 25.030902,0.2118121 c -2.753095,0 -3.795323,0.11589294 -6.057401,0.67356642 C 9.9842168,3.1015208 2.9426134,10.228086 0.80066066,19.277489 c -0.50215171,2.12151 -0.55806562,2.688308 -0.55531064,5.629165 0.002726,2.909868 0.0789249,3.745299 0.52422836,5.747544 0.43602202,1.960513 1.33416832,4.276073 2.43734492,6.283851 3.8711698,7.045519 10.7859757,11.740148 18.7961527,12.761164 1.265041,0.161248 5.379031,0.105208 6.636491,-0.0904 z"
         id="path3749"
         inkscape:connector-curvature="0"
         transform="matrix(0.76617538,0,0,0.76881904,-1.359611,-1.5066665)" /><path
         style="fill:#1a1a1a;fill-opacity:1;stroke:#000000;stroke-width:0;stroke-miterlimit:4;stroke-dasharray:none;stroke-opacity:1"
         d="m -0.05790744,24.949614 0,-24.95992893 25.00288944,0 25.002889,0 0,24.95992893 0,24.959929 -25.002889,0 -25.00288944,0 0,-24.959929 z M 27.952202,49.700862 c 0.53089,-0.0631 0.947767,-0.122043 1.202888,-0.170085 0.118141,-0.02225 0.369459,-0.06316 0.558484,-0.09091 0.189025,-0.02775 0.421011,-0.07652 0.515523,-0.108372 0.204484,-0.06891 0.163146,-0.05956 0.644405,-0.145788 0.212653,-0.0381 0.425307,-0.09269 0.472563,-0.121318 0.04726,-0.02862 0.163249,-0.06328 0.257762,-0.07701 0.09451,-0.01373 0.229837,-0.04969 0.300722,-0.0799 0.07088,-0.03021 0.175766,-0.0648 0.23307,-0.07685 0.180821,-0.03802 1.266652,-0.402458 1.35646,-0.455266 0.04726,-0.02779 0.129348,-0.05713 0.182425,-0.06522 0.08812,-0.01342 0.284304,-0.09354 1.020464,-0.416769 0.488047,-0.214289 2.406356,-1.1777 2.749458,-1.380831 0.189025,-0.11191 0.401679,-0.231496 0.472563,-0.265746 0.07088,-0.03425 0.148213,-0.08479 0.171842,-0.112322 0.02363,-0.02753 0.187951,-0.126135 0.365162,-0.219128 0.177211,-0.09299 0.322202,-0.190156 0.322202,-0.21592 0,-0.02576 0.135325,-0.119721 0.300722,-0.208793 0.165397,-0.08907 0.300722,-0.194525 0.300722,-0.23434 0,-0.03981 0.058,-0.07239 0.128881,-0.07239 0.07089,0 0.128881,-0.03606 0.128881,-0.08013 0,-0.04407 0.06766,-0.101814 0.150361,-0.128316 0.0827,-0.0265 0.296085,-0.174098 0.474192,-0.327992 0.178107,-0.153894 0.444553,-0.376467 0.592104,-0.494608 0.825526,-0.660983 2.013744,-1.810738 2.693783,-2.606584 0.235702,-0.275841 0.509345,-0.593778 0.608095,-0.706527 0.09875,-0.112748 0.253406,-0.308277 0.343682,-0.434509 0.09027,-0.126232 0.231799,-0.290525 0.314498,-0.365095 0.0827,-0.07457 0.150361,-0.167288 0.150361,-0.206036 0,-0.0667 0.07632,-0.172498 0.322202,-0.446687 0.05907,-0.06587 0.107401,-0.161187 0.107401,-0.211819 0,-0.05063 0.03033,-0.09206 0.06739,-0.09206 0.03707,0 0.143395,-0.1229 0.236282,-0.273114 0.09289,-0.150212 0.255469,-0.411196 0.361293,-0.579964 0.105823,-0.168766 0.232401,-0.384178 0.281282,-0.478691 0.04888,-0.09451 0.180958,-0.326498 0.293504,-0.515523 0.178391,-0.299615 0.757766,-1.453814 1.121372,-2.233935 0.309174,-0.663339 0.474251,-1.074416 0.474251,-1.180991 0,-0.06403 0.03386,-0.153141 0.07525,-0.198034 0.07584,-0.08226 0.49088,-1.290592 0.576199,-1.677523 0.05045,-0.228801 0.05077,-0.23002 0.18923,-0.723958 0.05299,-0.189025 0.115514,-0.440343 0.138949,-0.558484 0.02343,-0.11814 0.06432,-0.311462 0.09086,-0.429602 0.02654,-0.118141 0.06887,-0.327541 0.09406,-0.465333 0.0252,-0.137792 0.0597,-0.273117 0.07667,-0.300722 0.01697,-0.02761 0.05584,-0.262844 0.08637,-0.522754 0.03053,-0.25991 0.07234,-0.588556 0.09292,-0.730325 0.227287,-1.566129 0.228128,-4.656723 0.0017,-6.403071 -0.07717,-0.595258 -0.137889,-1.006676 -0.177249,-1.2009 -0.05609,-0.276804 -0.118036,-0.588973 -0.170485,-0.859206 -0.02293,-0.118141 -0.0634,-0.311462 -0.08994,-0.429603 -0.02654,-0.118141 -0.06699,-0.311462 -0.0899,-0.429603 -0.02291,-0.118141 -0.08648,-0.350126 -0.141269,-0.515524 -0.05479,-0.165397 -0.107783,-0.347731 -0.117756,-0.405188 -0.02734,-0.157482 -0.479456,-1.515408 -0.53736,-1.613945 -0.02777,-0.04726 -0.05654,-0.124585 -0.06392,-0.171841 -0.0074,-0.04726 -0.07446,-0.231614 -0.149044,-0.409683 -0.07459,-0.178068 -0.136508,-0.342797 -0.137604,-0.366063 -0.0011,-0.02327 -0.06155,-0.157483 -0.134354,-0.298262 -0.0728,-0.140778 -0.131269,-0.275854 -0.129933,-0.300168 0.0052,-0.09442 -0.794766,-1.624892 -0.909038,-1.739164 -0.06653,-0.06653 -0.120958,-0.173429 -0.120958,-0.237563 0,-0.06413 -0.0507,-0.167699 -0.112669,-0.230144 -0.06197,-0.06245 -0.204146,-0.297194 -0.315952,-0.521661 -0.111806,-0.224468 -0.235094,-0.408123 -0.273974,-0.408123 -0.03888,0 -0.07069,-0.058 -0.07069,-0.128881 0,-0.07088 -0.03866,-0.128881 -0.08592,-0.128881 -0.04726,0 -0.08592,-0.058 -0.08592,-0.128881 0,-0.07088 -0.03866,-0.12888 -0.08592,-0.12888 -0.04726,0 -0.08592,-0.058 -0.08592,-0.128881 0,-0.07089 -0.03606,-0.128881 -0.08013,-0.128881 -0.04407,0 -0.101836,-0.06766 -0.128364,-0.150361 -0.02653,-0.0827 -0.144366,-0.266354 -0.261864,-0.408123 C 44.978066,10.201346 44.852175,10.046438 44.815804,9.9988751 43.609014,8.4207111 41.94459,6.7432939 40.212588,5.3597214 40.035116,5.2179524 39.807849,5.0342972 39.70755,4.9515986 39.607251,4.8689001 39.502104,4.8011469 39.473893,4.801036 39.445682,4.8009251 39.287275,4.6850231 39.121878,4.5434759 38.95648,4.4019287 38.772825,4.2860266 38.713755,4.2859157 c -0.05907,-1.108e-4 -0.107401,-0.038866 -0.107401,-0.086122 0,-0.047256 -0.058,-0.085921 -0.128881,-0.085921 -0.07088,0 -0.128881,-0.038664 -0.128881,-0.085921 0,-0.047256 -0.058,-0.085921 -0.128881,-0.085921 -0.07088,0 -0.12888,-0.037928 -0.12888,-0.084284 0,-0.046356 -0.09666,-0.1085439 -0.214802,-0.1381954 -0.118141,-0.029651 -0.214801,-0.085882 -0.214801,-0.1249563 0,-0.039075 -0.135325,-0.1199788 -0.300722,-0.1797871 -0.165398,-0.059809 -0.300722,-0.1312599 -0.300722,-0.1587809 0,-0.027521 -0.473638,-0.276656 -1.052528,-0.553633 C 35.428367,2.4254186 34.84936,2.1447685 34.720575,2.0787287 34.59179,2.0126889 34.466833,1.9585971 34.442893,1.9585248 34.418953,1.9584524 34.253672,1.897368 34.075603,1.8227815 33.897534,1.7481951 33.693845,1.6755044 33.62296,1.6612469 c -0.07088,-0.014258 -0.138547,-0.033714 -0.150361,-0.043237 -0.01181,-0.00952 -0.05048,-0.022739 -0.08592,-0.02937 -0.03544,-0.00663 -0.103105,-0.035385 -0.150361,-0.063898 -0.08773,-0.052934 -0.658097,-0.2455165 -0.842851,-0.2845861 -0.05625,-0.011895 -0.160272,-0.04635 -0.231157,-0.076566 -0.07088,-0.030216 -0.206209,-0.068911 -0.300722,-0.08599 C 31.767078,1.0605208 31.631751,1.0225248 31.560866,0.9931632 31.489982,0.96380235 31.335325,0.9209273 31.217184,0.89788589 31.099043,0.87484448 30.760785,0.7968597 30.4655,0.72458631 30.170214,0.65231295 29.76424,0.5697628 29.563334,0.54114153 29.362428,0.51252027 29.120722,0.47353188 29.026209,0.45450067 27.93486,0.23474485 27.261065,0.19838481 24.64426,0.21803714 c -1.929681,0.014492 -2.537629,0.0535517 -3.630421,0.23324889 -0.153734,0.0252799 -0.38572,0.0633689 -0.515523,0.0846423 -0.43835,0.0718407 -0.892882,0.17171736 -1.267053,0.27841573 -0.04726,0.0134756 -0.163249,0.0439735 -0.257762,0.067773 -0.09451,0.0237996 -0.2975,0.0813573 -0.451083,0.12790604 -0.153583,0.046549 -0.279242,0.068565 -0.279242,0.048925 0,-0.01964 -0.193321,0.040491 -0.429603,0.1336249 -0.236281,0.093133 -0.429602,0.1458315 -0.429602,0.1171066 0,-0.028725 -0.04833,-0.013867 -0.107401,0.033017 -0.05907,0.046884 -0.262058,0.1314417 -0.451083,0.1879059 -0.37032,0.1106191 -0.827999,0.2845319 -1.37473,0.5223816 -0.189025,0.082234 -0.638795,0.2719807 -0.999489,0.4216603 -0.360694,0.1496797 -0.877679,0.4057495 -1.148858,0.5690442 -0.271177,0.1632946 -0.512305,0.2968993 -0.535841,0.2968993 -0.08128,0 -1.096403,0.6355484 -1.124957,0.7043138 -0.01575,0.037934 -0.08342,0.068971 -0.150361,0.068971 -0.06695,0 -0.121721,0.038664 -0.121721,0.085921 0,0.047256 -0.058,0.085921 -0.128881,0.085921 -0.07088,0 -0.128881,0.038664 -0.128881,0.085921 0,0.047256 -0.04872,0.085921 -0.108279,0.085921 -0.05955,0 -0.212523,0.096661 -0.339932,0.2148014 -0.12741,0.1181408 -0.273218,0.2148015 -0.324021,0.2148015 -0.0508,0 -0.114622,0.057996 -0.141823,0.1288809 -0.0272,0.070884 -0.10453,0.1288808 -0.171841,0.1288808 -0.067312,0 -0.1446404,0.057996 -0.1718412,0.1288809 -0.027202,0.070885 -0.1029887,0.1288809 -0.1684163,0.1288809 -0.065429,0 -0.167253,0.077329 -0.226277,0.1718411 -0.059024,0.094513 -0.1459293,0.1718412 -0.193122,0.1718412 -0.1021269,0 -0.1617197,0.055955 -1.7631118,1.6555114 -1.4629838,1.4613058 -2.062094,2.1217369 -2.062094,2.2731565 0,0.060279 -0.030411,0.1095994 -0.06758,0.1095994 -0.087012,0 -0.7057048,0.8266373 -0.7057048,0.9428943 0,0.04848 -0.038664,0.08815 -0.085921,0.08815 -0.047256,0 -0.085921,0.058 -0.085921,0.128881 0,0.07089 -0.038664,0.128881 -0.085921,0.128881 -0.047256,0 -0.085921,0.058 -0.085921,0.128881 0,0.07088 -0.038664,0.128881 -0.085921,0.128881 -0.047256,0 -0.085921,0.058 -0.085921,0.128881 0,0.07088 -0.038664,0.128881 -0.085921,0.128881 -0.047256,0 -0.085921,0.058 -0.085921,0.12888 0,0.07089 -0.036059,0.128881 -0.080131,0.128881 -0.044072,0 -0.1072795,0.08699 -0.1404614,0.193322 -0.033182,0.106326 -0.087815,0.212653 -0.1214069,0.236281 -0.033592,0.02363 -0.1153753,0.146844 -0.1817409,0.273814 -0.2968907,0.568006 -1.3090908,2.62545 -1.3870237,2.819327 -0.047489,0.118141 -0.136106,0.311462 -0.1969266,0.429603 -0.060821,0.118141 -0.1187389,0.253466 -0.1287074,0.300722 -0.00997,0.04726 -0.052157,0.175432 -0.093752,0.284835 -0.041595,0.109403 -0.075627,0.246661 -0.075627,0.305018 0,0.05836 -0.046397,0.152501 -0.1031047,0.209208 -0.056708,0.05671 -0.071306,0.103105 -0.03244,0.103105 0.038866,0 0.022532,0.058 -0.036297,0.128881 -0.058829,0.07088 -0.078161,0.128881 -0.04296,0.128881 0.035201,0 0.015869,0.058 -0.04296,0.128881 -0.058829,0.07088 -0.084868,0.128881 -0.057865,0.128881 0.027003,0 -0.00745,0.135325 -0.076553,0.300722 -0.069107,0.165397 -0.1044383,0.300722 -0.078513,0.300722 0.025925,0 0.00895,0.07135 -0.037717,0.158549 -0.046669,0.0872 -0.10805757,0.270857 -0.13641884,0.408123 -0.0283612,0.137265 -0.0628199,0.288237 -0.0765749,0.335494 -0.0630375,0.21657 -0.14027996,0.537462 -0.18613886,0.773285 -0.10348039,0.532134 -0.13328821,0.692442 -0.16284276,0.875777 -0.0167051,0.103627 -0.0534879,0.225813 -0.0817395,0.271525 -0.16080754,0.260192 -0.24434936,5.169353 -0.11791846,6.929233 0.0339492,0.472563 0.12309757,1.16852 0.19810738,1.54657 0.0750098,0.378051 0.15396229,0.784025 0.17545,0.902166 0.0214877,0.118141 0.0586912,0.301623 0.0826745,0.407736 0.0239833,0.106115 0.0476713,0.222108 0.0526402,0.257762 0.004969,0.03566 0.0639379,0.238816 0.1310422,0.45147 0.0671044,0.212653 0.13867894,0.460663 0.15905444,0.551131 0.055511,0.246472 0.314705,1.026084 0.3737982,1.12432 0.028427,0.04726 0.055616,0.105253 0.060421,0.128881 0.010178,0.05005 0.1051393,0.304447 0.2164876,0.579964 0.042971,0.106327 0.1208643,0.299648 0.1730957,0.429603 0.052231,0.129955 0.1423624,0.352274 0.2002911,0.494043 0.1640472,0.401473 1.0606277,2.19504 1.2885173,2.577618 0.1125964,0.189025 0.292466,0.508005 0.3997102,0.708844 0.1072442,0.20084 0.2268003,0.365163 0.2656801,0.365163 0.03888,0 0.070691,0.058 0.070691,0.128881 0,0.07088 0.038664,0.128881 0.085921,0.128881 0.047256,0 0.085921,0.058 0.085921,0.12888 0,0.07089 0.038664,0.128881 0.085921,0.128881 0.047256,0 0.085921,0.058 0.085921,0.128881 0,0.07089 0.036059,0.128881 0.080131,0.128881 0.044072,0 0.1018352,0.06766 0.1283632,0.150361 0.026528,0.0827 0.1443665,0.266354 0.2618636,0.408123 0.2567801,0.309824 0.2710596,0.327693 0.6489467,0.812089 0.164112,0.210368 0.3950462,0.499589 0.513187,0.642712 0.3143806,0.380862 2.3932628,2.444284 2.8394088,2.818294 0.2104376,0.176411 0.4755232,0.398731 0.589081,0.494043 0.1135578,0.09531 0.2295506,0.173913 0.2577617,0.174667 0.028211,7.74e-4 0.1821921,0.116748 0.3421791,0.257762 0.159986,0.141015 0.314643,0.256481 0.343682,0.256592 0.02904,8.6e-5 0.188122,0.116615 0.353519,0.258899 0.165397,0.142284 0.407049,0.306289 0.537004,0.364455 0.129955,0.05817 0.236282,0.130473 0.236282,0.160682 0,0.03021 0.06766,0.07765 0.150361,0.105413 0.172061,0.05777 0.432915,0.220896 0.603953,0.377677 0.06444,0.05907 0.169639,0.107401 0.233772,0.107401 0.06413,0 0.169673,0.05307 0.234531,0.117924 0.10869,0.10869 1.988587,1.08351 2.086786,1.082103 0.02381,-3.44e-4 0.158887,0.05915 0.300161,0.132208 0.141274,0.07305 0.256862,0.111611 0.256862,0.08568 0,-0.02593 0.09666,0.01619 0.214801,0.0936 0.118141,0.07741 0.214802,0.116073 0.214802,0.08592 0,-0.03015 0.0883,0.003 0.196213,0.07374 0.107917,0.07071 0.291572,0.146057 0.408123,0.167437 0.11655,0.02138 0.221575,0.04658 0.233389,0.056 0.01181,0.0094 0.06014,0.02679 0.107401,0.0386 0.04726,0.01181 0.105253,0.03115 0.128881,0.04296 0.02363,0.01181 0.08162,0.03115 0.128881,0.04296 0.04726,0.01181 0.105252,0.03115 0.128881,0.04296 0.02363,0.01181 0.08162,0.03115 0.128881,0.04296 0.04726,0.01181 0.105252,0.03115 0.12888,0.04296 0.02363,0.01181 0.07196,0.02965 0.107401,0.03964 0.03544,0.01 0.122437,0.04337 0.193321,0.07418 0.07088,0.03081 0.20621,0.06725 0.300722,0.08098 0.09451,0.01373 0.210506,0.04775 0.257762,0.07559 0.09629,0.05673 0.9597,0.268998 1.161439,0.285534 0.07172,0.0059 0.180614,0.04173 0.241997,0.07966 0.06138,0.03794 0.133451,0.04713 0.160148,0.02044 0.0267,-0.0267 0.111511,-0.01484 0.188473,0.02635 0.07696,0.04119 0.332864,0.100486 0.568668,0.13177 0.235803,0.03128 0.544727,0.07518 0.686496,0.09755 0.141768,0.02237 0.489059,0.06091 0.771757,0.08564 0.282699,0.02473 0.529574,0.06055 0.548614,0.07959 0.04816,0.04816 4.778072,-0.02633 5.252553,-0.08272 z"
         id="path3751"
         inkscape:connector-curvature="0"
         transform="matrix(0.76617538,0,0,0.76881904,-1.359611,-1.5066665)" /><path
         style="fill:#1a1a1a;fill-opacity:1;stroke:#000000;stroke-width:0;stroke-miterlimit:4;stroke-dasharray:none;stroke-opacity:1"
         d="m -0.05790744,24.949614 0,-24.95992893 25.00288944,0 25.002889,0 0,24.95992893 0,24.959929 -25.002889,0 -25.00288944,0 0,-24.959929 z M 28.536767,49.613934 c 2.563916,-0.379577 5.009126,-1.149838 7.40128,-2.331466 2.501988,-1.235881 4.400608,-2.568374 6.353481,-4.459012 7.03683,-6.812578 9.388086,-17.062491 6.051375,-26.37998 -0.392833,-1.096951 -1.317927,-3.033507 -1.945511,-4.072658 -0.268284,-0.444221 -0.487789,-0.84053 -0.487789,-0.880685 0,-0.04016 -0.03213,-0.07301 -0.0714,-0.07301 -0.03927,0 -0.126266,-0.105785 -0.193322,-0.235079 -0.06706,-0.129294 -0.167459,-0.293617 -0.223117,-0.365163 -0.05566,-0.07154 -0.303846,-0.400732 -0.551527,-0.731527 C 42.548184,6.9840944 39.52633,4.4898276 35.937961,2.71257 35.061049,2.2782505 34.307096,1.9128522 34.26251,1.9005739 34.217923,1.8882957 33.562816,1.6688031 32.806715,1.4128126 31.431547,0.94722699 29.573214,0.52014717 28.038123,0.31690066 27.545458,0.25167181 26.319255,0.21113488 24.944982,0.21464484 23.049885,0.219485 22.459178,0.2523023 21.422238,0.41035429 20.284484,0.58377249 18.780643,0.91372071 17.684693,1.2303856 16.518427,1.5673672 14.301786,2.5092504 13.044981,3.2018671 12.261616,3.6335746 10.395228,4.8304507 10.176066,5.0416439 10.110365,5.104956 9.9587036,5.2209077 9.8390394,5.2993144 8.9787415,5.8630035 6.4160037,8.3977227 5.4925868,9.5982472 3.9838987,11.559677 2.1482302,14.837079 1.6585829,16.443476 c -0.057617,0.189026 -0.1387517,0.380414 -0.1802993,0.425307 -0.041548,0.04489 -0.075541,0.151745 -0.075541,0.237448 0,0.0857 -0.036099,0.22296 -0.08022,0.305018 -0.1249533,0.23239 -0.58145896,2.027585 -0.7720149,3.035927 -0.22987507,1.216401 -0.35066832,2.794225 -0.35058109,4.579356 2.4659e-4,5.041925 1.07717309,8.743429 3.91035699,13.440287 0.1396607,0.23153 0.4201098,0.648871 0.5298892,0.788537 0.055731,0.0709 0.3367799,0.445043 0.6245537,0.831421 1.5744528,2.113932 3.8840661,4.249651 6.2828285,5.809782 3.025535,1.967779 6.650841,3.282225 10.476127,3.798383 1.180169,0.159244 5.230542,0.108866 6.513085,-0.08101 z"
         id="path3753"
         inkscape:connector-curvature="0"
         transform="matrix(0.76617538,0,0,0.76881904,-1.359611,-1.5066665)" /><path
         style="fill:#1a1a1a;fill-opacity:1;stroke:#000000;stroke-width:0;stroke-miterlimit:4;stroke-dasharray:none;stroke-opacity:1"
         d="m -0.05790744,24.949614 0,-24.95992893 25.00288944,0 25.002889,0 0,24.95992893 0,24.959929 -25.002889,0 -25.00288944,0 0,-24.959929 z M 27.238677,49.733848 c 3.053239,-0.249146 5.784778,-1.0255 8.747099,-2.486088 C 46.195137,42.213983 51.650214,30.968557 49.294654,19.812032 47.949484,13.440969 44.099028,7.8445681 38.553525,4.2004635 35.467307,2.1724235 32.10622,0.91088636 28.338845,0.36652587 26.886317,0.15664526 23.263581,0.15422812 21.76592,0.36214032 17.188735,0.99756614 12.940017,2.8154386 9.4363168,5.637531 8.3902174,6.4801225 6.2007963,8.6993985 5.4228083,9.7057665 4.2069214,11.27858 2.8416338,13.593284 2.082174,15.369469 c -0.6802928,1.591033 -1.39062388,4.114866 -1.66857762,5.92852 -0.21589763,1.408737 -0.26451785,4.808539 -0.0919442,6.429261 0.3353317,3.149258 0.94950422,5.241536 2.41297702,8.220198 2.7341209,5.564861 7.3322958,9.831506 13.0586808,12.117148 2.23061,0.89033 5.012137,1.560947 7.046617,1.698918 1.018683,0.06908 3.384098,0.05313 4.39875,-0.02967 z"
         id="path3755"
         inkscape:connector-curvature="0"
         transform="matrix(0.76617538,0,0,0.76881904,-1.359611,-1.5066665)" /><rect
         style="fill:#1a1a1a;fill-opacity:1;stroke:#000000;stroke-width:0;stroke-miterlimit:4;stroke-dasharray:none;stroke-opacity:1"
         id="rect3917"
         width="42.131348"
         height="4.1616149"
         x="-2.215404"
         y="36.603996" /></g><circle
       fill="#B70000"
       cx="25"
       cy="25"
       r="24.8"
       id="circle3511" /><path
       fill="#9C0000"
       d="M8,12.3L1.9,33.9C5.5,43.2,14.5,49.7,25,49.7c10.5,0,19.5-6.6,23.1-15.8l-6.2-22.1L16.4,27.2L8,12.3z"
       id="path3513" /><g
       id="g3515"><path
         fill="#A80000"
         d="M14.9,43.2c-2.3-5.1-6-9.6-10.1-12.7c-0.7-0.5-0.9-1.4-0.5-2.1C6.8,23.9,8,18.2,7.9,12.7    c0-0.9,0.5-1.5,1.4-1.7c4.9-1.3,10.2-3.8,14.6-7c0.7-0.5,1.5-0.6,2.2,0c4.4,3.6,9.6,6.1,14.6,7c0.8,0.2,1.4,0.8,1.4,1.7    c-0.1,5.4,1.1,11.1,3.6,15.8c0.4,0.8,0.2,1.6-0.5,2.1c-4.3,3.3-7.9,7.7-10.1,12.7c-0.3,0.8-1.1,1.2-2,0.9    c-5.7-1.5-11.6-1.1-16.2,0C16.1,44.4,15.3,44,14.9,43.2z"
         id="path3517" /></g><g
       id="g3519"><path
         fill="#A80000"
         d="M14.9,43.2c-2.3-5.1-6-9.6-10.1-12.7c-0.7-0.5-0.9-1.4-0.5-2.1C6.8,23.9,8,18.2,7.9,12.7    c0-0.9,0.5-1.5,1.4-1.7c4.9-1.3,10.2-3.8,14.6-7c0.7-0.5,1.5-0.6,2.2,0c4.4,3.6,9.6,6.1,14.6,7c0.8,0.2,1.4,0.8,1.4,1.7    c-0.1,5.4,1.1,11.1,3.6,15.8c0.4,0.8,0.2,1.6-0.5,2.1c-4.3,3.3-7.9,7.7-10.1,12.7c-0.3,0.8-1.1,1.2-2,0.9    c-5.7-1.5-11.6-1.1-16.2,0C16.1,44.4,15.3,44,14.9,43.2z"
         id="path3521" /></g><path
       fill="#800000"
       d="M14.9,43.2c-2.3-5.1-6-9.6-10.1-12.7c-0.7-0.5-0.9-1.4-0.5-2.1c2.4-4.6,38.8-4.7,41.3,0   c0.4,0.8,0.2,1.6-0.5,2.1c-4.3,3.3-7.9,7.7-10.1,12.7c-0.3,0.8-1.1,1.2-2,0.9c-5.7-1.5-11.6-1.1-16.2,0   C16.1,44.4,15.3,44,14.9,43.2z"
       id="path3523" /><path
       fill="#800000"
       d="M14.9,43.2c-2.3-5.1-6-9.6-10.1-12.7c-0.7-0.5-0.9-1.4-0.5-2.1c2.4-4.6,38.8-4.7,41.3,0   c0.4,0.8,0.2,1.6-0.5,2.1c-4.3,3.3-7.9,7.7-10.1,12.7c-0.3,0.8-1.1,1.2-2,0.9c-5.7-1.5-11.6-1.1-16.2,0   C16.1,44.4,15.3,44,14.9,43.2z"
       id="path3525" /><g
       id="g3527"><path
         fill="#BF1B21"
         d="M14.9,43.2c-1.7-5.3-5.3-9.9-10.1-12.7c-0.7-0.4-1-1.4-0.5-2.1c3.1-4.6,4.4-10.3,3.6-15.8    c-0.1-0.9,0.5-1.6,1.4-1.7c5.6-0.4,10.8-2.9,14.6-7c0.6-0.6,1.6-0.6,2.2,0c3.8,4.1,9,6.6,14.6,7c0.9,0.1,1.5,0.9,1.4,1.7    c-0.8,5.5,0.5,11.2,3.6,15.8c0.5,0.7,0.3,1.7-0.5,2.1c-4.8,2.8-8.4,7.3-10.1,12.7c-0.3,0.8-1.2,1.3-2,0.9    c-5.7-2.2-11.6-1.8-16.2,0C16.1,44.5,15.2,44.1,14.9,43.2z"
         id="path3529" /></g><g
       id="g3531"><path
         fill="#FF0000"
         d="M14.9,43.2c-1.7-5.3-5.3-9.9-10.1-12.7c-0.7-0.4-1-1.4-0.5-2.1c3.1-4.6,4.4-10.3,3.6-15.8    c-0.1-0.9,0.5-1.6,1.4-1.7c5.6-0.4,10.8-2.9,14.6-7c0.6-0.6,1.6-0.6,2.2,0c3.8,4.1,9,6.6,14.6,7c0.9,0.1,1.5,0.9,1.4,1.7    c-0.8,5.5,0.5,11.2,3.6,15.8c0.5,0.7,0.3,1.7-0.5,2.1c-4.8,2.8-8.4,7.3-10.1,12.7c-0.3,0.8-1.2,1.3-2,0.9    c-5.7-2.2-11.6-1.8-16.2,0C16.1,44.5,15.2,44.1,14.9,43.2z"
         id="path3533" /></g><g
       id="g3535"><path
         fill="#D40000"
         d="M15.1,43c-1.6-5.2-5.2-9.6-10-12.3c-0.7-0.4-1-1.4-0.5-2.1c3.4-4.5,4.7-9.9,3.6-15.4    c-0.2-0.8,0.5-1.6,1.3-1.7c5.5-0.4,10.6-2.9,14.4-6.8c0.6-0.6,1.6-0.6,2.2,0c3.8,4,8.9,6.4,14.4,6.8c0.9,0.1,1.5,0.8,1.3,1.7    c-0.8,5.4,0.5,10.9,3.6,15.4c0.5,0.7,0.3,1.7-0.5,2.1c-4.8,2.7-8.3,7.1-10,12.3c-0.3,0.8-1.2,1.2-2,0.9c-5.6-2.2-11.4-1.7-16,0    C16.2,44.2,15.3,43.8,15.1,43z"
         id="path3537" /></g><g
       id="g3539"><path
         fill="#CB0000"
         d="M14.9,43.3C13.3,38,9.7,33.5,4.8,30.8c-0.7-0.4-0.8-2.6-0.3-1.9c8.1,10.7,28.9,13.9,40.9-0.1    c0.6-0.6,0.4,1.5-0.3,1.9c-4.8,2.8-8.4,7.2-10.1,12.5c-0.3,0.8-1.2,1.2-2,0.9c-5.7-2.2-11.6-1.8-16.2,0    C16.1,44.5,15.2,44.1,14.9,43.3z"
         id="path3541" /></g><path
       fill="#FFE1EA"
       d="M25,25L25,25c-0.4,0-0.8-0.3-0.8-0.8V5.1c0-0.4,0.3-0.7,0.8-0.7l0,0c0.4,0,0.8,0.3,0.8,0.7v19.1   C25.8,24.7,25.4,25,25,25z"
       id="path3543" /></g></svg>