<?xml version="1.0" encoding="UTF-8" standalone="no"?>
<!-- Generator: Adobe Illustrator 19.0.0, SVG Export Plug-In . SVG Version: 6.00 Build 0)  -->

<svg
   xmlns:dc="http://purl.org/dc/elements/1.1/"
   xmlns:cc="http://creativecommons.org/ns#"
   xmlns:rdf="http://www.w3.org/1999/02/22-rdf-syntax-ns#"
   xmlns:svg="http://www.w3.org/2000/svg"
   xmlns="http://www.w3.org/2000/svg"
   xmlns:xlink="http://www.w3.org/1999/xlink"
   xmlns:sodipodi="http://sodipodi.sourceforge.net/DTD/sodipodi-0.dtd"
   xmlns:inkscape="http://www.inkscape.org/namespaces/inkscape"
   version="1.1"
   id="Layer_1"
   x="0px"
   y="0px"
   viewBox="0 0 180 180"
   xml:space="preserve"
   sodipodi:docname="BINSONDISC9_Scary Piggy-Skull.svg"
   width="180"
   height="180"
   inkscape:version="0.92.4 (5da689c313, 2019-01-14)"><metadata
     id="metadata59"><rdf:RDF><cc:Work
         rdf:about=""><dc:format>image/svg+xml</dc:format><dc:type
           rdf:resource="http://purl.org/dc/dcmitype/StillImage" /><dc:title></dc:title></cc:Work></rdf:RDF></metadata><defs
     id="defs57"><linearGradient
       inkscape:collect="always"
       id="linearGradient1200"><stop
         style="stop-color:#595959;stop-opacity:1"
         offset="0"
         id="stop1196" /><stop
         style="stop-color:#a8aaff;stop-opacity:1"
         offset="1"
         id="stop1198" /></linearGradient><linearGradient
       inkscape:collect="always"
       xlink:href="#linearGradient1200"
       id="linearGradient1202"
       x1="38.338783"
       y1="-194.4128"
       x2="503.742"
       y2="-199.871"
       gradientUnits="userSpaceOnUse" /><linearGradient
       inkscape:collect="always"
       xlink:href="#linearGradient1200"
       id="linearGradient1210"
       x1="503.742"
       y1="-76"
       x2="78.224251"
       y2="95.175468"
       gradientUnits="userSpaceOnUse" /></defs><sodipodi:namedview
     pagecolor="#ffffff"
     bordercolor="#666666"
     borderopacity="1"
     objecttolerance="10"
     gridtolerance="10"
     guidetolerance="10"
     inkscape:pageopacity="0"
     inkscape:pageshadow="2"
     inkscape:window-width="1920"
     inkscape:window-height="1028"
     id="namedview55"
     showgrid="false"
     inkscape:pagecheckerboard="false"
     inkscape:showpageshadow="false"
     inkscape:zoom="4.5388888"
     inkscape:cx="90"
     inkscape:cy="89.999998"
     inkscape:window-x="-8"
     inkscape:window-y="-8"
     inkscape:window-maximized="1"
     inkscape:current-layer="Layer_1-5" /><g
     id="g892"
     transform="matrix(0.3515625,0,0,0.36328116,0,117.60937)"><path
       inkscape:connector-curvature="0"
       id="path2"
       d="M 503.742,-76 C 503.742,60.82 392.82,171.742 256,171.742 119.18,171.742 8.258,60.82 8.258,-76 Z"
       style="fill:url(#linearGradient1210);fill-opacity:1" /><path
       inkscape:connector-curvature="0"
       id="path4"
       d="m 8.258,-76 c 0,-136.82 110.922,-247.742 247.742,-247.742 136.82,0 247.742,110.922 247.742,247.742 z"
       style="fill:url(#linearGradient1202);fill-opacity:1" /><g
       transform="translate(0,-332)"
       id="g12"
       style="display:inline;fill:#ea4f00"><path
         inkscape:connector-curvature="0"
         id="path6"
         d="m 163.525,107.905 c -15.686,0 -28.401,12.715 -28.401,28.4 v 70.256 l 55.887,-77.419 c -3.174,-12.216 -14.273,-21.237 -27.486,-21.237 z"
         style="fill:#ea4f00" /><path
         inkscape:connector-curvature="0"
         id="path8"
         d="m 348.475,107.905 c -13.213,0 -24.311,9.02 -27.486,21.239 -0.008,0.008 55.887,77.419 55.887,77.419 v -70.256 c -10e-4,-15.686 -12.716,-28.402 -28.401,-28.402 z"
         style="fill:#ea4f00" /><path
         inkscape:connector-curvature="0"
         id="path10"
         d="M 404.227,256 C 427.647,356.506 379.199,437.127 256,437.127 132.801,437.127 84.353,356.506 107.773,256 Z"
         style="fill:#ea4f00" /></g><path
       inkscape:connector-curvature="0"
       id="path14"
       d="M 404.227,-76 H 107.773 c 5.362,-23.012 14.49,-47.06 27.351,-71.427 12.839,-23.486 32.317,-42.788 55.891,-55.428 19.357,-10.372 41.489,-16.263 64.985,-16.263 23.508,0 45.629,5.88 64.985,16.274 23.574,12.629 43.041,31.931 55.891,55.384 12.861,24.4 21.989,48.448 27.351,71.46 z"
       style="fill:#fc7f3f" /><g
       transform="translate(0,-332)"
       id="g20"><path
         inkscape:connector-curvature="0"
         id="path16"
         d="m 208.947,222.239 c -4.562,0 -8.258,-3.696 -8.258,-8.258 v -7.372 l -16.857,-2.178 c -4.522,-0.585 -7.716,-4.725 -7.133,-9.248 0.585,-4.522 4.729,-7.72 9.248,-7.133 l 24.057,3.107 c 4.117,0.532 7.2,4.039 7.2,8.19 v 14.632 c 0.001,4.562 -3.697,8.26 -8.257,8.26 z"
         style="fill:#945136" /><path
         inkscape:connector-curvature="0"
         id="path18"
         d="m 303.053,222.239 c -4.562,0 -8.258,-3.696 -8.258,-8.258 v -14.632 c 0,-4.152 3.083,-7.658 7.2,-8.19 l 24.057,-3.107 c 4.522,-0.59 8.663,2.608 9.248,7.133 0.584,4.523 -2.61,8.663 -7.133,9.248 l -16.857,2.178 v 7.372 c 10e-4,4.558 -3.695,8.256 -8.257,8.256 z"
         style="fill:#945136" /></g><g
       transform="translate(0,-332)"
       id="g24" /><g
       transform="translate(0,-332)"
       id="g26" /><g
       transform="translate(0,-332)"
       id="g28" /><g
       transform="translate(0,-332)"
       id="g30" /><g
       transform="translate(0,-332)"
       id="g32" /><g
       transform="translate(0,-332)"
       id="g34" /><g
       transform="translate(0,-332)"
       id="g36" /><g
       transform="translate(0,-332)"
       id="g38" /><g
       transform="translate(0,-332)"
       id="g40" /><g
       transform="translate(0,-332)"
       id="g42" /><g
       transform="translate(0,-332)"
       id="g44" /><g
       transform="translate(0,-332)"
       id="g46" /><g
       transform="translate(0,-332)"
       id="g48" /><g
       transform="translate(0,-332)"
       id="g50" /><g
       transform="translate(0,-332)"
       id="g52" /><g
       id="Layer_1-5"
       transform="matrix(0.90172717,0,0,0.87263944,99.307027,-308.14303)"
       style="stroke-width:3.15444016"><path
         id="path1183"
         d="m 95.253,291.138 c 0.797,-0.787 2.104,-1.376 3.485,-1.76 2.812,-0.75 5.951,-0.893 9.056,-0.777 3.117,0.112 6.254,0.478 9.377,0.962 -3.007,-0.969 -6.063,-1.833 -9.207,-2.452 -3.143,-0.613 -6.373,-1.02 -9.783,-0.681 -1.696,0.21 -3.49,0.59 -5.209,1.73 -0.852,0.544 -1.668,1.361 -2.223,2.388 -0.566,1.02 -0.834,2.235 -0.797,3.38 0.04,0.791 0.192,1.537 0.419,2.241 -2.75,-0.285 -5.528,-0.323 -8.284,-0.085 -6.634,0.547 -13.114,2.664 -18.767,6 -5.669,3.319 -10.49,7.89 -13.987,13.229 2.68,-1.76 5.249,-3.508 7.936,-5.013 2.664,-1.531 5.395,-2.857 8.165,-3.999 5.537,-2.286 11.305,-3.742 17.166,-4.241 5.856,-0.505 11.798,-0.093 17.571,1.327 5.783,1.418 11.389,3.77 16.496,7.593 -1.602,-2.778 -3.904,-5.166 -6.468,-7.203 -2.595,-2.007 -5.508,-3.619 -8.573,-4.86 -0.476,-0.192 -0.962,-0.357 -1.445,-0.531 l 0.012,-0.013 c -0.089,-0.02 -0.195,-0.057 -0.3,-0.092 -0.089,-0.03 -0.181,-0.063 -0.279,-0.102 -1.115,-0.453 -2.724,-1.498 -3.45,-2.116 -0.885,-0.715 -1.512,-1.667 -1.729,-2.522 -0.092,-0.427 -0.085,-0.816 0.035,-1.213 0.117,-0.394 0.361,-0.814 0.783,-1.19 m 154.094,186.753 c -1.222,1.622 -2.583,2.922 -4.129,3.649 -3.038,1.495 -6.916,1.265 -11.133,0.951 -4.196,-0.296 -8.825,-0.788 -13.6,0.333 -2.359,0.57 -4.713,1.636 -6.551,3.26 -1.841,1.618 -3.129,3.68 -3.779,5.848 1.748,-1.464 3.503,-2.649 5.354,-3.355 1.839,-0.723 3.72,-1.027 5.664,-1.085 3.895,-0.127 8.003,0.652 12.468,0.98 2.235,0.15 4.582,0.229 7.04,-0.131 2.433,-0.351 5.055,-1.215 7.158,-2.898 2.123,-1.669 3.447,-4.004 4.147,-6.27 0.662,-2.304 0.808,-4.607 0.629,-6.86 -1.085,2.004 -2.06,3.934 -3.268,5.578 m -97.627,8.193 c -1.838,-1.624 -4.192,-2.69 -6.551,-3.26 -4.775,-1.121 -9.404,-0.629 -13.601,-0.333 -4.215,0.314 -8.093,0.544 -11.131,-0.951 -1.547,-0.727 -2.907,-2.027 -4.129,-3.649 -1.208,-1.644 -2.183,-3.574 -3.267,-5.578 -0.182,2.253 -0.034,4.556 0.628,6.86 0.701,2.266 2.022,4.601 4.146,6.27 2.104,1.683 4.726,2.547 7.157,2.898 2.459,0.36 4.806,0.281 7.041,0.131 4.466,-0.328 8.572,-1.107 12.468,-0.98 1.944,0.058 3.825,0.362 5.665,1.085 1.852,0.706 3.605,1.891 5.354,3.355 -0.651,-2.168 -1.938,-4.23 -3.78,-5.848 m 21.061,-34.52 c -6.772,-0.016 -13.544,1.334 -19.744,3.833 -3.099,1.258 -6.056,2.787 -8.856,4.506 -1.385,0.887 -2.76,1.76 -4.094,2.686 -0.666,0.464 -1.332,0.921 -2.005,1.361 -0.668,0.466 -1.349,0.87 -2.082,1.251 1.654,-0.117 3.257,-0.649 4.812,-1.125 1.563,-0.485 3.078,-1.039 4.609,-1.518 3.045,-1 6.051,-1.942 9.08,-2.693 6.045,-1.515 12.144,-2.317 18.269,-2.302 6.124,0.032 12.252,0.833 18.356,2.22 6.106,1.407 12.158,3.37 18.393,5.418 -5.018,-4.232 -10.81,-7.527 -17.021,-9.931 -6.228,-2.349 -12.943,-3.686 -19.717,-3.706 M 287.086,304.639 c -5.76,-3.337 -12.277,-5.407 -18.93,-6.096 -4.002,-0.414 -8.073,-0.339 -12.062,0.269 0.849,-1.421 1.525,-2.98 1.811,-4.746 0.117,-0.948 0.134,-1.948 -0.131,-2.973 -0.28,-1.026 -0.885,-1.998 -1.676,-2.684 -1.65,-1.325 -3.501,-1.559 -5.112,-1.562 -1.64,0.02 -3.188,0.291 -4.695,0.641 -3.002,0.738 -5.827,1.856 -8.586,3.075 2.92,-0.747 5.878,-1.374 8.819,-1.594 1.466,-0.092 2.929,-0.092 4.293,0.121 1.358,0.201 2.601,0.744 3.195,1.475 0.275,0.376 0.413,0.763 0.457,1.211 0.024,0.459 -0.073,0.979 -0.231,1.508 -0.38,1.074 -1.067,2.158 -1.911,3.108 -1.262,1.406 -3.711,3.767 -5.758,5.043 -0.611,0.256 -1.212,0.534 -1.809,0.823 -0.035,0.008 -0.074,0.022 -0.108,0.028 l 0.016,0.017 c -1.821,0.891 -3.57,1.923 -5.177,3.146 -2.635,2.042 -4.974,4.491 -6.491,7.364 5.029,-4.072 10.733,-6.336 16.618,-7.557 5.891,-1.2 11.946,-1.366 17.91,-0.748 5.968,0.632 11.852,2.081 17.471,4.361 5.631,2.275 10.942,5.419 16.001,9.444 -3.155,-5.668 -8.171,-10.337 -13.914,-13.674 m 44.146,-150.901 c -4.242,-15.922 -12.384,-37.654 -27.916,-59.987 -0.617,0.88 -0.965,1.975 -1.158,3.113 -0.251,1.484 -0.265,3.054 -0.211,4.627 0.318,6.323 1.361,12.797 1.795,19.406 0.426,6.605 0.332,13.416 -1.077,20.186 -0.565,2.858 -0.682,5.754 -0.352,8.623 0.325,2.872 1.122,5.7 2.192,8.462 2.174,5.535 5.577,10.708 9.338,15.757 1.887,2.534 3.905,5.014 5.919,7.623 1.01,1.302 2.028,2.633 3.036,4.045 1.006,1.422 2.013,2.9 2.946,4.704 0.461,0.909 0.911,1.903 1.257,3.135 0.325,1.224 0.616,2.75 0.241,4.61 l -0.312,1.355 c -0.079,0.336 -0.166,0.669 -0.216,1.01 l -0.18,1.013 -0.127,1.038 c -0.334,2.761 -0.262,5.874 -0.188,9.042 0.149,6.37 0.488,12.955 0.575,19.481 l 0.115,9.812 c 0.02,1.635 0.003,3.27 -0.009,4.904 l -0.027,4.835 c 0.019,3.029 0.137,6.039 0.432,8.981 1.931,-11.48 4.803,-29.539 9.101,-58.035 l 0.317,-2.1 c 0.51,-3.373 1.072,-21.004 -5.491,-45.64 m -13.366,42.356 c 0.023,-0.086 0.01,-0.052 0.006,-0.038 l -0.011,0.043 v 0.015 z m 12.525,111.581 c -0.312,0.242 -0.639,0.471 -0.979,0.683 l -1.07,0.646 c -0.383,0.171 -0.769,0.33 -1.156,0.486 -0.766,0.349 -1.563,0.49 -2.351,0.665 -0.786,0.167 -1.547,0.157 -2.313,0.218 -0.733,-0.034 -1.474,-0.061 -2.174,-0.152 -1.391,-0.206 -2.695,-0.53 -3.916,-0.944 -2.443,-0.827 -4.618,-1.916 -6.697,-3.068 -4.131,-2.332 -7.886,-4.95 -11.721,-7.375 -1.918,-1.206 -3.85,-2.37 -5.875,-3.333 -2.016,-0.949 -4.175,-1.728 -6.472,-1.521 2.223,-0.633 4.668,-0.249 6.898,0.346 2.257,0.604 4.436,1.426 6.583,2.28 4.28,1.72 8.461,3.609 12.637,5.042 2.081,0.701 4.167,1.284 6.147,1.562 1.965,0.275 3.858,0.235 5.116,-0.34 1.264,-0.557 2.026,-1.391 2.709,-2.736 0.412,-0.829 2.017,-8.739 3.248,-15.099 -1.329,-1.034 -2.662,-2.268 -3.78,-3.636 -2.575,-3.141 -4.153,-6.706 -5.249,-10.164 -2.151,-6.971 -2.665,-13.836 -2.83,-20.583 l -0.138,-9.766 -0.181,-9.693 -0.496,-19.516 c -0.007,-3.327 -0.039,-6.742 0.468,-10.436 l 0.202,-1.378 0.276,-1.381 c 0.084,-0.463 0.206,-0.915 0.323,-1.368 l 0.253,-0.974 c -0.004,-0.06 -0.014,-0.139 -0.042,-0.252 -0.075,-0.338 -0.265,-0.849 -0.523,-1.395 -0.523,-1.106 -1.295,-2.36 -2.132,-3.613 -0.845,-1.261 -1.762,-2.542 -2.706,-3.838 -1.895,-2.587 -3.842,-5.262 -5.736,-8.019 -2.024,-2.946 -3.971,-6.034 -5.694,-9.295 -1.394,-1.909 -3.04,-3.73 -4.84,-5.435 -2.632,-2.489 -5.58,-4.756 -8.698,-6.817 -3.121,-2.06 -6.416,-3.921 -9.833,-5.564 -3.421,-1.632 -6.95,-3.085 -10.649,-4.099 3.822,0.358 7.621,1.189 11.354,2.227 3.733,1.051 7.417,2.349 11.022,3.913 2.308,1.004 4.581,2.132 6.808,3.387 -0.554,-2.306 -0.929,-4.671 -1.05,-7.07 -0.183,-3.613 0.216,-7.28 1.202,-10.738 0.778,-2.704 1.33,-5.495 1.727,-8.338 -1.361,-4.108 -3.899,-11.065 -4.395,-12.413 -0.731,-1.814 -1.527,-3.65 -2.472,-5.463 -1.85,-3.636 -4.013,-7.213 -6.331,-10.706 -4.659,-6.982 -9.91,-13.68 -15.592,-19.993 -5.687,-6.311 -11.774,-12.309 -18.423,-17.642 -3.324,-2.664 -6.787,-5.167 -10.448,-7.362 -3.66,-2.185 -7.526,-4.087 -11.668,-5.28 4.239,0.785 8.337,2.324 12.257,4.177 3.924,1.864 7.686,4.062 11.327,6.441 7.283,4.766 14.071,10.262 20.507,16.147 6.435,5.893 12.486,12.225 18.075,19.059 2.785,3.427 5.448,6.986 7.887,10.808 0.064,0.101 0.12,0.191 0.18,0.288 -0.009,-2.587 0,-5.196 0.241,-7.842 0.157,-1.672 0.377,-3.365 0.886,-5.046 0.43,-1.403 1.106,-2.892 2.262,-3.977 C 297.493,85.524 291.934,78.612 285.56,71.803 248.92,32.66 207.18,11.922 164.832,11.813 126.054,17.08 79.955,40.383 50.008,69.875 23.793,95.694 10.5,134.364 10.5,184.813 c 0,26.816 6.158,62.548 11.649,82.184 0.348,-0.93 0.687,-1.867 1.008,-2.815 0.686,-2.048 1.314,-4.124 1.926,-6.212 1.174,-4.187 2.195,-8.438 2.96,-12.733 0.778,-4.294 1.299,-8.633 1.388,-12.986 0.023,-2.173 -0.095,-4.348 -0.481,-6.485 -0.361,-2.139 -1.028,-4.247 -2.283,-6.12 1.701,1.493 2.856,3.579 3.727,5.704 0.84,2.154 1.38,4.41 1.784,6.678 0.766,4.547 0.885,9.155 0.727,13.727 -0.183,4.574 -0.679,9.127 -1.437,13.646 -0.657,3.855 -1.505,7.681 -2.615,11.498 0.189,2.361 0.387,4.792 0.401,4.861 0.026,0.138 0.07,0.299 0.107,0.452 0.071,0.307 0.161,0.622 0.253,0.939 0.177,0.631 0.389,1.269 0.614,1.897 0.443,1.266 0.988,2.49 1.582,3.683 1.196,2.381 2.705,4.556 4.536,6.321 1.825,1.771 3.982,3.13 6.437,3.853 2.361,0.785 4.819,0.762 7.452,0.017 2.628,-0.728 5.318,-2.078 8.095,-3.399 2.775,-1.327 5.68,-2.634 8.736,-3.495 3.046,-0.881 6.228,-1.288 9.346,-1.176 3.122,0.12 6.172,0.705 9.088,1.618 -3.014,-0.509 -6.07,-0.662 -9.048,-0.369 -2.978,0.303 -5.857,1.087 -8.545,2.28 -2.7,1.179 -5.209,2.744 -7.74,4.411 -2.539,1.652 -5.11,3.464 -8.226,4.831 -1.553,0.675 -3.257,1.215 -5.059,1.47 -1.795,0.258 -3.687,0.23 -5.458,-0.088 -3.529,-0.522 -6.955,-2.044 -9.83,-4.15 -2.899,-2.103 -5.291,-4.732 -7.252,-7.563 -0.605,-0.881 -1.168,-1.785 -1.707,-2.702 -0.303,0.439 -0.609,0.872 -0.911,1.3 -1.351,1.894 -2.749,3.684 -3.591,5.121 -0.837,1.494 -1.048,2.301 -0.92,3.672 0.129,1.354 0.637,3.129 1.413,4.949 0.332,0.899 0.813,1.838 1.235,2.763 l 1.464,3.074 c 1.938,4.18 3.573,8.456 5.302,12.289 0.844,1.923 1.736,3.683 2.678,5.034 0.962,1.368 1.838,2.116 2.802,2.515 0.5,0.208 1.08,0.351 1.786,0.411 l 0.252,0.04 0.464,0.029 c 0.317,0.022 0.646,0.036 0.951,0.066 0.623,0.052 1.236,0.112 1.837,0.187 2.413,0.285 4.732,0.69 7.031,1.207 4.584,1.035 9.078,2.346 13.445,4.094 4.367,1.734 8.635,3.815 12.629,6.483 2.002,1.319 3.92,2.802 5.725,4.443 1.804,1.639 3.496,3.452 4.936,5.489 0.717,1.019 1.397,2.067 1.987,3.176 0.319,0.537 0.574,1.116 0.839,1.685 0.128,0.281 0.274,0.577 0.384,0.846 l 0.315,0.788 c 0.837,2.104 1.649,4.213 2.416,6.337 1.518,4.253 2.913,8.538 4.127,12.868 l 1.646,6.017 c 1.923,-2.046 4.531,-3.431 5.987,-3.451 0.233,-1.677 0.492,-3.323 0.774,-4.946 l 2.062,-11.378 c 0.647,-3.774 1.274,-7.547 1.629,-11.338 0.169,-1.894 0.307,-3.796 0.288,-5.698 0.045,-0.961 -0.084,-1.893 -0.137,-2.851 -0.014,-0.484 -0.107,-0.946 -0.204,-1.414 L 103,336.98 l 0.517,1.351 c 0.178,0.452 0.358,0.911 0.453,1.385 0.221,0.941 0.52,1.889 0.642,2.852 0.356,1.922 0.552,3.863 0.717,5.808 0.311,3.892 0.344,7.783 0.357,11.662 l -0.071,11.562 c 0.001,0.674 0.01,1.34 0.017,2.006 0.825,-0.306 1.858,-0.084 3.189,1.04 0.688,0.583 1.272,1.076 1.782,1.507 l 0.272,-0.678 c 0.482,-1.191 0.884,-2.492 1.333,-3.737 l 1.199,-3.868 1.108,-3.921 c 1.42,-5.259 2.613,-10.605 3.61,-15.987 0.975,-5.383 1.806,-10.814 2.162,-16.28 0.166,-2.731 0.272,-5.473 0.158,-8.212 l -0.024,-1.031 -0.099,-1.021 -0.207,-2.049 c -0.038,-0.693 -0.209,-1.355 -0.35,-2.029 l -0.432,-2.027 0.674,1.963 c 0.223,0.658 0.477,1.314 0.599,1.998 l 0.458,2.038 0.227,1.023 0.149,1.033 c 0.45,2.757 0.68,5.54 0.847,8.33 0.308,5.583 0.134,11.17 -0.192,16.749 -0.349,5.579 -0.902,11.147 -1.703,16.708 l -0.65,4.171 -0.125,0.683 c 0.564,-0.255 1.123,-0.274 1.653,0.054 3.23,2 6.355,2.29 7.605,4.95 1.25,2.66 9.375,-11.2 11.375,-7.7 0.779,1.363 2.156,3.649 3.628,5.721 0.26,-0.867 0.51,-1.744 0.747,-2.636 0.815,-3.122 1.519,-6.321 2.161,-9.536 0.633,-3.219 1.191,-6.461 1.669,-9.718 0.448,-3.26 0.92,-6.525 0.878,-9.831 0.706,3.247 0.905,6.597 1.12,9.916 0.187,3.326 0.292,6.661 0.315,10.004 0.016,3.344 -0.033,6.695 -0.216,10.088 -0.082,1.458 -0.205,2.932 -0.369,4.43 2.418,-3.451 9.793,-7.522 11.703,-5.938 1.633,1.352 5.882,5.704 9.65,7.079 l 4.797,-31.77 1.803,29.342 c 3.958,-4.332 8.65,-12.012 10.788,-10.497 1.927,1.365 5.951,6.994 8.844,9.46 -0.358,-0.665 -0.683,-1.336 -0.97,-2.008 -1.275,-2.931 -2,-5.909 -2.488,-8.854 -0.475,-2.949 -0.686,-5.881 -0.725,-8.79 -0.031,-2.908 0.084,-5.8 0.415,-8.653 0.336,2.847 0.887,5.652 1.57,8.398 0.687,2.743 1.538,5.427 2.593,7.969 1.059,2.534 2.32,4.948 3.859,6.978 0.528,0.719 1.099,1.376 1.694,1.971 1.945,-1.687 4.254,-2.655 5.784,-1.125 2.5,2.5 8.16,8.583 10,7 1.144,-0.985 3.234,-3.802 4.952,-5.553 -1.294,-4.202 -2.218,-8.436 -2.94,-12.686 -0.942,-5.622 -1.525,-11.27 -1.718,-16.925 -0.093,-2.826 -0.092,-5.656 0.064,-8.475 0.165,-2.814 0.464,-5.638 1.142,-8.361 -0.349,2.784 -0.31,5.58 -0.142,8.358 0.177,2.779 0.507,5.546 0.929,8.293 0.845,5.494 2.072,10.92 3.624,16.214 1.553,5.283 3.46,10.47 5.898,15.206 0.946,1.819 1.993,3.568 3.145,5.118 1.297,-1.505 3.445,-1.268 5.288,-0.362 -0.121,-0.288 -0.237,-0.575 -0.354,-0.862 -1.018,-2.611 -1.586,-5.185 -2.004,-7.729 -0.811,-5.086 -0.939,-10.07 -0.879,-15.016 0.08,-4.945 0.425,-9.845 0.916,-14.716 0.526,-4.867 1.118,-9.721 2.079,-14.504 -0.298,4.857 -0.222,9.728 -0.081,14.572 0.177,4.845 0.501,9.676 1.082,14.441 0.59,4.753 1.387,9.489 2.733,13.89 0.673,2.189 1.482,4.306 2.501,6.11 0.344,0.621 0.723,1.191 1.117,1.701 0.797,-0.827 1.671,-1.114 2.638,-0.014 0.761,0.867 1.845,3.332 3.029,6.585 0.17,-12.18 2.266,-23.546 7.481,-27.785 9.244,-7.514 14.13,-7.987 16.665,-5.72 5.182,-4.153 10.83,-6.766 15.984,-8.397 1.322,-0.627 2.645,-1.247 3.976,-1.858 5.955,-2.72 11.995,-5.206 18.251,-7.411 1.572,-0.548 3.166,-1.043 4.826,-1.484 0.832,-0.219 1.677,-0.422 2.587,-0.585 0.45,-0.083 0.928,-0.149 1.435,-0.2 0.27,-0.018 0.52,-0.042 0.826,-0.041 0.058,0 0.124,0.005 0.182,0.005 0.044,-0.055 0.103,-0.13 0.17,-0.218 0.266,-0.362 0.588,-0.921 0.871,-1.53 0.576,-1.237 1.076,-2.667 1.513,-4.129 1.352,-4.663 2.325,-9.602 3.105,-14.57 m -5.104,20.457 c -0.096,-0.012 -0.183,-0.01 -0.262,-0.005 0.131,0.006 0.453,0.036 0.262,0.005 m -15.628,8.641 c -0.022,0.007 -0.043,0.012 -0.065,0.019 l 0.048,0.022 c 0.006,-0.015 0.011,-0.027 0.017,-0.041 m -10.363,26.107 c -3.276,-0.172 -7.653,0.156 -12.338,1.962 -0.36,3.228 -0.646,6.463 -0.871,9.702 -0.764,11.26 -0.837,22.56 -0.547,33.832 0.312,11.272 1.02,22.534 2.264,33.698 0.627,5.577 1.386,11.137 2.419,16.585 0.496,2.733 1.127,5.406 1.823,8.01 0.192,0.613 0.375,1.233 0.571,1.839 7.532,-7.057 8.276,-17.96 3.046,-37.929 -3.648,-13.928 -0.246,-44.673 3.633,-67.699 m -11.995,110.902 c -0.138,-0.365 -0.265,-0.724 -0.382,-1.076 -0.532,-1.511 -0.863,-2.962 -1.232,-4.423 -0.622,-2.899 -1.139,-5.773 -1.508,-8.634 -0.783,-5.726 -1.261,-11.426 -1.605,-17.125 -0.679,-11.396 -0.805,-22.776 -0.534,-34.143 0.293,-11.363 0.953,-22.718 2.306,-34.001 0.362,-2.998 0.776,-5.992 1.253,-8.974 -2.744,1.216 -5.562,2.967 -8.301,5.427 -3.206,16.045 -10.258,46.343 -15.641,49.461 0.319,1.849 0.415,3.692 0.186,5.222 0.095,3.016 0.009,5.525 -0.343,6.464 -1,2.666 -5.333,6 -6.167,5.166 0.06,2.619 -0.805,4.126 -2.178,4.855 -0.063,0.157 -0.126,0.312 -0.189,0.468 -1.101,2.773 -2.177,5.558 -3.216,8.356 -1.034,2.798 -2.036,5.607 -2.939,8.445 -0.448,1.419 -0.875,2.845 -1.237,4.284 -0.179,0.721 -0.35,1.445 -0.466,2.174 -0.112,0.73 -0.236,1.471 -0.108,2.212 -0.292,-0.703 -0.339,-1.483 -0.392,-2.238 -0.049,-0.76 -0.041,-1.52 -0.025,-2.279 0.036,-1.518 0.14,-3.032 0.266,-4.542 0.261,-3.017 0.622,-6.021 1.019,-9.019 0.357,-2.671 0.75,-5.337 1.162,-7.999 -1.351,-0.453 -2.732,-1.093 -4.03,-1.849 -5.415,2.598 -4.727,11.62 -11.732,10.695 l -7.462,20.687 0.877,-21.539 c -3.501,0.841 -3.6,4.779 -10.016,3.123 -8.5,-2.196 -10.759,-12.073 -11.093,-11.321 -0.333,0.754 -5.074,11.987 -13.241,5.154 -7.231,-6.051 -7.748,5.49 -15.083,-1.497 -5.499,7.321 -12.233,3.342 -15.25,-0.991 -4,11.172 -11.148,6.439 -17,2.97 -7.028,5.164 -9.883,7.768 -16.75,0 -1.909,-2.159 -4.155,-0.337 -7.018,0.961 l 2.353,24.057 -8.699,-23.401 c -0.989,-0.32 -2.031,-0.867 -3.136,-1.738 -2.25,2 -5.086,2.71 -7.816,2.526 0.437,1.941 0.882,3.881 1.303,5.828 0.696,3.271 1.383,6.542 1.979,9.836 0.569,3.291 1.211,6.607 1.284,9.949 -0.735,-3.243 -2.002,-6.309 -3.206,-9.395 -1.227,-3.076 -2.543,-6.124 -3.865,-9.164 -1.42,-3.239 -2.873,-6.471 -4.344,-9.69 -0.955,-0.789 -1.73,-1.712 -2.215,-2.739 -2.37,-5.012 -10.37,-6.988 -11.12,-9.75 -0.328,-1.207 -1.232,-3.927 -1.876,-7.255 -0.613,-1.607 -1.045,-3.894 -1.364,-7.056 -0.002,-0.023 -0.002,-0.046 -0.004,-0.069 -1.54,-4.17 -2.876,-8.832 -3.506,-9.882 -0.936,-1.561 -4.547,-27.404 -7.129,-46.61 -1.165,-0.801 -2.359,-1.587 -3.566,-2.352 0.23,1.443 0.448,2.889 0.649,4.336 1.416,10.348 2.211,20.771 2.673,31.208 0.444,10.442 0.54,20.903 0.17,31.403 -0.189,5.252 -0.489,10.511 -1.026,15.814 -0.274,2.654 -0.588,5.311 -1.056,8.019 -0.099,0.671 -0.233,1.356 -0.376,2.042 -0.149,0.692 -0.254,1.361 -0.441,2.07 l -0.547,2.121 -0.491,1.465 c -0.952,4.466 -1.899,9.936 -2.048,12.244 5.296,7.04 26.055,32.832 53.068,43.243 5.972,2.301 10.416,3.622 14.129,4.298 0.892,-1.201 1.78,-1.896 2.597,-2.489 1.819,-1.264 3.515,-2.037 5.206,-2.748 3.369,-1.383 6.681,-2.362 10.003,-3.26 6.638,-1.756 13.274,-3.09 19.94,-4.196 -6.179,2.698 -12.266,5.614 -18.072,8.834 -2.174,1.216 -4.321,2.484 -6.316,3.829 0.868,-0.13 1.761,-0.271 2.7,-0.419 8.515,-1.348 20.153,-3.193 44.34,-0.869 5.848,-0.369 12.507,0.172 19.543,0.745 4.226,0.343 8.535,0.693 12.862,0.885 -1.691,-1.544 -3.55,-3.022 -5.601,-4.291 -2.171,-1.362 -4.491,-2.588 -6.913,-3.649 -2.425,-1.054 -4.94,-1.983 -7.548,-2.673 2.701,-0.139 5.436,-0.022 8.176,0.253 2.742,0.284 5.491,0.767 8.241,1.467 2.751,0.688 5.468,1.702 8.158,2.962 1.966,0.932 6.603,3.601 9.916,5.758 20.401,-1.726 39.653,-11.16 51.005,-45.99 z M 56.279,451.175 c 0.089,-0.32 0.184,-0.634 0.261,-0.967 0.61,-2.37 1.108,-4.841 1.567,-7.324 0.913,-4.976 1.617,-10.053 2.211,-15.15 1.184,-10.202 1.92,-20.506 2.309,-30.823 0.372,-10.317 0.415,-20.664 -0.161,-30.981 -0.116,-1.998 -0.266,-3.993 -0.438,-5.987 -5.439,-3.276 -10.887,-5.962 -14.745,-7.217 3.28,21.726 6.559,51.577 6.62,62.559 0.051,9.157 -1.426,17.433 -2.505,23.475 -0.496,2.775 -1.096,6.137 -1.121,7.711 1.472,1.312 3.87,3.166 6.002,4.704 M 97.81,435.801 c 3.309,2.868 6.147,4.099 7.232,3.826 0.116,-0.028 0.291,-0.071 0.473,-0.541 0.887,-2.275 0.988,-8.731 1.057,-13.003 0.045,-2.88 0.078,-4.513 0.23,-5.463 -0.227,-0.505 -1.361,-1.649 -2.821,-2.284 -0.959,-0.417 -1.476,-0.349 -1.552,-0.307 l -1.703,-1.04 1.701,1.049 c -2.678,4.342 -6.631,16.018 -4.617,17.763 m -1.877,-19.42 c -0.219,-0.57 -0.508,-1.142 -0.756,-1.502 -0.026,0.033 -0.053,0.07 -0.08,0.109 -2.928,4.113 -6.073,11.293 -5.282,13 l 0.129,0.279 c 0.372,0.803 1.08,2.334 1.709,3.386 1.327,-4.373 3.653,-12.955 4.28,-15.272 m -13.443,3.481 c 0.385,3.812 0.887,5.52 1.206,6.264 0.045,-0.05 0.092,-0.103 0.143,-0.163 2.251,-2.652 5.707,-12.394 7.008,-16.393 -3.594,2.462 -8.676,7.131 -8.357,10.292 m 45.01,-11.549 c 0,-4.499 -3.5,-27.756 -4.459,-30.913 -0.016,-0.019 -0.034,-0.038 -0.049,-0.058 -0.38,-0.448 -1.17,-1.375 -1.844,-1.272 -0.336,0.054 -2.126,0.627 -4.594,6.66 -3.434,11.492 -0.256,27.926 1.664,30 0.467,0.506 2.434,0.689 4.914,-0.282 2.532,-0.99 4.368,-2.73 4.368,-4.135 m -15.266,29.259 0.96,0.545 c 2.757,1.568 6.186,3.518 7.391,3.049 0.375,-0.148 0.635,-0.818 0.756,-1.204 1.481,-4.695 0.608,-18.065 0.035,-19.701 -0.527,-0.923 -3.733,-2.585 -5.082,-2.675 l -0.586,1.34 c -2.705,6.18 -7.23,16.523 -3.474,18.646 m 32.803,-50.618 c -1.579,-4.659 -4.666,-9.9 -6.436,-9.941 h -0.012 c -0.617,0 -1.761,1.1 -2.976,4.209 -3.49,8.928 -3.237,22.984 -2.194,26.527 0.594,2.024 2.053,3.781 3.898,4.699 2.12,1.054 4.729,1.108 7.768,0.163 0.732,-7.466 0.629,-23.658 -0.048,-25.657 m 24.105,-3.648 c -0.394,-0.913 -4.135,-4.901 -8.256,-5.109 -2.84,-0.131 -5.334,1.652 -7.388,5.34 -1.362,2.486 -2.972,23.462 -2.194,31.061 16.578,2.892 20.647,1.103 21.102,-0.942 1.279,-5.772 -2.311,-27.969 -3.264,-30.35 m -11.264,37.091 c 2.012,7.623 4.824,17.869 5.635,20.003 0.717,0.257 2.66,0.438 4.291,-0.118 0.709,-0.241 1.194,-0.583 1.328,-0.937 0.641,-1.663 0.494,-10.106 -0.021,-17.863 -4.695,-0.87 -9.297,-1.308 -11.233,-1.085 m -5.924,2.014 c -4.379,-2.091 -8.878,-3.551 -10.656,-3.544 1.657,11.246 4.618,21.634 6.465,22.541 1.996,0.911 3.578,1.156 4.453,0.686 0.812,-0.436 1.16,-1.65 1.308,-2.593 0.528,-3.344 -0.824,-12.68 -1.57,-17.09 m -15.685,-2.85 h -0.001 c -4.322,-2.643 -6.351,-3.089 -7.229,-3.089 -0.315,0 -0.483,0.058 -0.553,0.092 -0.169,0.081 -0.238,0.575 -0.252,0.673 l -0.006,0.049 c -1.502,9.98 -2.049,21.892 -0.467,23.717 1.56,1.8 6.405,2.828 9.597,2.044 1.09,-0.268 1.835,-0.725 1.944,-1.192 0.823,-3.492 -1.965,-19.355 -3.033,-22.294 m 41.248,21.36 c 2.505,0.797 3.478,0.832 4.356,-1.549 1.211,-3.289 2.423,-13.146 2.966,-18.314 -3.658,-0.9 -7.288,-1.307 -8.473,-0.928 -0.154,3.271 0.068,17.751 1.151,20.791 m 22.232,-28.568 c -0.035,-9.249 -0.684,-26.457 -1.9,-28.662 -1.622,-2.226 -6.597,-7.082 -10.683,-6.665 -2.189,0.221 -4.073,2.026 -5.597,5.367 -2.312,5.067 -3.943,25.502 -1.282,30.798 0.347,0.691 1.434,1.237 3.06,1.537 5.694,1.048 14.323,-1.186 16.402,-2.375 m 17.572,-26.286 c -5.254,-8.119 -7.548,-9.481 -8.494,-9.481 -0.052,0 -0.1,0.005 -0.144,0.012 -0.35,0.059 -1.109,0.833 -1.743,3.367 -1.045,4.178 -3.062,22.981 1.47,28.785 1.419,1.818 3.409,2.811 5.917,2.951 3.039,0.171 5.713,-0.95 6.584,-1.534 0.15,-3.092 -0.523,-19.36 -3.59,-24.1 m -8.363,32.232 c 0.175,1.718 1.777,17.169 3.153,22.893 0.633,2.629 2.096,4.076 3.152,4.103 0.008,0 0.017,10e-4 0.026,10e-4 0.772,0 1.503,-0.916 1.96,-2.457 1.686,-5.703 1.696,-21.045 1.342,-24.096 -0.965,-0.606 -4.397,-1.432 -7.391,-1.114 -1.47,0.153 -2.095,0.518 -2.242,0.67 m -17.935,21.765 c 1.753,0.401 5.589,0.953 6.632,-1.528 1.786,-4.239 4.966,-17.01 5.438,-21.384 -1.98,0.415 -5.616,1.668 -7.771,2.41 -1.737,0.597 -3.054,1.049 -4.052,1.344 -0.31,7.94 -0.459,16.336 -0.247,19.158 m 36.213,2.14 c 2.511,2.503 3.399,2.264 3.432,2.253 0.332,-0.1 1.113,-1.045 1.696,-3.903 1.465,-7.173 2.929,-16.937 2.24,-20.848 -0.226,-1.275 -3.237,-2.955 -5.863,-2.955 -0.084,0 -0.168,0.001 -0.252,0.004 -1.708,0.073 -1.771,0.767 -1.797,1.064 l -0.006,0.055 c -1.212,10.277 -1.28,22.505 0.55,24.33 M 241.519,392.7 c -0.622,5.778 -0.659,15.32 1.809,18.288 0.507,0.61 0.96,0.712 1.297,0.734 1.177,0.074 2.068,0.118 2.7,0.106 -0.175,-0.899 -0.404,-2.197 -0.324,-3.86 0.143,-2.988 -2.255,-8.069 -3.842,-11.433 -0.891,-1.888 -1.409,-3.005 -1.64,-3.835 m 5.927,-8.177 c 0.003,1.576 0.151,3.554 0.43,5.205 1.365,8.024 4.235,15.469 5.819,18.767 0.128,-0.52 0.263,-1.197 0.39,-2.075 0.59,-4.051 -3.938,-16.537 -6.639,-21.897 m -6.281,35.911 c 0.609,9.422 3.506,16.591 7.046,17.433 0.872,0.207 1.552,0.193 1.826,-0.04 0.792,-0.678 0.556,-3.634 0.478,-4.605 -0.046,-0.588 -0.078,-1.516 -0.116,-2.644 -0.081,-2.454 -0.319,-9.633 -1.283,-11.55 -0.523,0.035 -1.109,0.054 -1.717,0.074 -1.742,0.056 -5.367,0.175 -6.173,1.064 -0.038,0.042 -0.074,0.081 -0.061,0.268 m 15.336,-3.683 c -0.602,0.616 -1.258,1.082 -1.833,1.418 0.032,0.299 0.068,0.655 0.111,1.081 0.547,5.471 1.06,9.381 1.537,11.69 0.337,-0.879 0.642,-2.09 1.092,-3.943 l 0.401,-1.638 c 0.614,-2.475 -0.38,-6.342 -1.308,-8.608 m -29.709,-6.817 c 1.633,1.384 6.439,3.618 8.428,2.242 1.672,-2.58 -1.029,-20.983 -3.368,-26.021 -1.719,-3.703 -3.453,-5.592 -4.172,-5.948 -0.103,0.135 -0.275,0.413 -0.469,0.944 l -0.321,0.868 c -0.668,1.787 -1.786,4.778 -1.979,6.815 -0.302,3.183 0.673,18.749 1.881,21.1 M 109.5,386.113 c -0.024,-2.305 -1.102,-3.578 -1.708,-3.644 -0.44,-0.046 -1.631,0.898 -2.345,4.149 -2.783,12.686 -2.169,22.057 1.617,25.383 2.049,-0.274 3.22,-0.554 3.861,-0.753 -0.438,-4.554 -1.843,-19.854 -1.425,-25.135 m -10.819,2.675 c -0.092,-0.466 -0.297,-0.774 -0.553,-0.797 -0.318,-0.017 -0.944,0.365 -1.233,1.545 -1.771,7.263 -2.367,18.445 1.067,20.768 0.599,0.273 1.163,0.511 1.68,0.716 -1.385,-5.469 -3.394,-15.756 -0.961,-22.232 m 247.929,-187.915 -0.317,2.097 c -5.872,38.928 -9.925,64.001 -12.093,74.801 0.241,0.215 0.495,0.428 0.762,0.642 0.541,0.438 1.148,0.874 1.897,1.451 0.728,0.594 1.709,1.278 2.724,2.752 0.491,0.721 0.912,1.658 1.106,2.583 0.193,0.937 0.187,1.475 0.212,2.017 0.016,1.036 -0.03,1.924 -0.089,2.808 -0.119,1.753 -0.319,3.427 -0.541,5.093 -0.448,3.327 -1.003,6.596 -1.634,9.855 -0.635,3.258 -1.377,6.493 -2.21,9.723 -0.842,3.23 -1.781,6.444 -3.017,9.66 -0.622,1.611 -1.307,3.22 -2.234,4.868 -0.475,0.825 -1.001,1.666 -1.785,2.546 -0.421,0.443 -0.869,0.897 -1.579,1.334 -0.687,0.426 -1.745,0.832 -2.908,0.73 -1.061,-0.197 -2.554,0.027 -4.07,0.272 -1.512,0.26 -3.056,0.607 -4.605,0.961 -4.948,8.623 0.364,14.602 2.133,20.58 1.661,5.619 -4.145,17.798 -10.441,17.054 -3.076,20.42 -5.425,44.499 -2.586,55.346 5.026,19.183 7.327,38.513 -9.145,50.445 -8.353,24.564 -21.457,39.965 -40.056,47 -16.148,6.108 -33.068,4.729 -47.995,3.517 -6.818,-0.556 -13.26,-1.079 -18.45,-0.708 l -0.422,0.031 -0.42,-0.041 c -23.194,-2.262 -34.188,-0.521 -42.215,0.752 -4.033,0.639 -7.527,1.193 -11.41,1.193 -5.95,0 -12.814,-1.301 -23.938,-5.589 C 80.408,512.747 57.41,482.979 53.113,477.133 L 53,476.98 c -1.118,-1.49 -2.174,-2.914 0.351,-15.695 -5.044,-3.154 -10.811,-8.362 -10.887,-8.437 -3.173,-3.174 -2.321,-7.943 -0.91,-15.845 1.067,-5.979 2.395,-13.419 2.349,-21.662 -0.048,-8.799 -2.055,-27.969 -4.359,-45.641 -9.269,-5.447 -13.752,-8.153 -7.544,-16.054 4.063,-5.171 2.406,-12.281 -0.505,-18.335 -0.202,-0.03 -0.406,-0.069 -0.614,-0.121 l -1.199,-0.299 c -0.4,-0.099 -0.796,-0.21 -1.186,-0.39 -0.771,-0.345 -1.589,-0.636 -2.271,-1.124 -0.704,-0.455 -1.433,-0.91 -1.999,-1.46 -0.609,-0.53 -1.205,-1.075 -1.663,-1.647 -0.502,-0.568 -0.987,-1.143 -1.36,-1.714 -1.622,-2.3 -2.731,-4.555 -3.696,-6.702 -1.887,-4.321 -3.42,-8.391 -5.171,-12.333 l -1.334,-3.002 c -0.478,-1.115 -0.983,-2.18 -1.403,-3.383 -0.877,-2.308 -1.699,-4.86 -1.836,-7.968 -0.061,-0.748 0.04,-1.602 0.083,-2.394 0.118,-0.81 0.279,-1.65 0.51,-2.437 0.272,-0.764 0.526,-1.583 0.894,-2.238 l 0.527,-1.025 0.566,-0.895 c 1.533,-2.341 3.06,-3.94 4.384,-5.611 0.314,-0.391 0.623,-0.776 0.926,-1.16 C 9.284,262.728 0.5,217.926 0.5,184.813 0.5,131.586 14.796,90.518 42.992,62.75 74.939,31.287 122.375,7.386 163.837,1.857 L 164.5,1.813 c 45.3,0 89.687,21.839 128.361,63.156 52.586,56.178 55.777,122.499 53.749,135.904 m -142.032,7.994 -0.118,-0.075 c 0.027,0.072 0.051,0.145 0.077,0.217 0.013,-0.048 0.027,-0.094 0.041,-0.142 M 253,272.313 c -27.5,-13 -47,-25.5 -49.5,-42.5 -0.952,-6.469 -0.678,-11.921 0.025,-16.197 -1.063,-1.657 -2.128,-3.295 -3.245,-4.889 -2.41,-3.464 -4.932,-6.797 -7.652,-9.87 -1.539,-1.752 -3.155,-3.431 -4.837,-4.989 -0.106,0.037 -0.208,0.063 -0.32,0.115 -0.378,0.19 -0.772,0.507 -1.167,0.887 -0.767,0.815 -1.457,1.955 -1.984,3.226 -1.048,2.572 -1.528,5.587 -1.566,8.615 -0.019,3.038 0.371,6.141 1.2,9.159 0.815,3.024 2.066,5.964 3.713,8.721 -2.117,-2.411 -3.936,-5.141 -5.352,-8.107 -1.429,-2.961 -2.457,-6.151 -3.047,-9.477 -0.561,-3.33 -0.706,-6.807 0.015,-10.389 0.383,-1.787 0.994,-3.615 2.1,-5.395 0.354,-0.531 0.753,-1.055 1.208,-1.558 -2.733,-1.883 -5.614,-3.354 -8.631,-4.21 -0.432,-0.15 -0.873,-0.248 -1.314,-0.336 -0.445,-0.085 -0.868,-0.221 -1.334,-0.265 l -1.37,-0.193 c -0.448,-0.028 -0.898,-0.051 -1.345,-0.094 -1.778,-0.099 -3.471,0.078 -5.058,0.507 -2.306,0.594 -4.405,1.959 -6.366,3.815 1.095,0.821 1.825,1.826 2.278,2.759 0.252,0.501 0.407,0.98 0.586,1.466 0.121,0.466 0.263,0.941 0.349,1.395 0.664,3.626 0.356,6.847 0,10.055 -0.4,3.189 -1.008,6.3 -1.738,9.369 -0.742,3.064 -1.561,6.107 -2.648,9.046 0.522,-3.081 0.757,-6.193 0.916,-9.293 0.146,-3.098 0.162,-6.196 -0.028,-9.235 -0.205,-3.001 -0.582,-6.096 -1.553,-8.505 -0.117,-0.298 -0.262,-0.548 -0.383,-0.822 -0.152,-0.218 -0.283,-0.468 -0.429,-0.636 -0.286,-0.368 -0.566,-0.476 -0.666,-0.486 -0.117,0.073 -0.123,0.09 -0.37,0.189 -0.109,0.032 -0.306,0.159 -0.451,0.2 -0.204,0.129 -0.408,0.251 -0.611,0.359 l -0.082,-0.174 c -1.6,2.172 -3.187,4.487 -4.945,6.737 -0.266,0.335 -0.536,0.668 -0.809,1.001 4.625,1.222 8.274,20.63 -3.922,40.332 -13,21 -67,36.667 -85.334,33.667 -18.333,-3 -14,-32 -12.333,-40 1.667,-8 -1.333,-14.334 -6.033,-22.334 5.968,-34.333 50.367,-44.666 72.366,-40.666 3.191,0.58 5.883,1.561 8.191,2.812 -0.209,-0.383 -0.404,-0.774 -0.616,-1.154 -2.872,-5.17 -6.057,-10.184 -9.842,-14.73 -1.934,-2.217 -3.949,-4.416 -6.291,-6.22 -2.313,-1.821 -4.876,-3.448 -7.823,-4.208 3.038,0.262 5.956,1.475 8.652,2.958 2.739,1.467 5.19,3.379 7.585,5.35 4.697,4.046 8.855,8.678 12.708,13.517 3.866,4.84 7.327,9.963 10.655,15.173 2.951,4.589 5.625,9.322 8.261,14.091 0.541,-0.518 0.983,-1.058 1.251,-1.636 1.773,-3.825 3.4,-7.844 5.876,-11.774 1.247,-1.952 2.72,-3.892 4.599,-5.595 1.843,-1.729 4.161,-3.139 6.653,-4.02 2.495,-0.898 5.122,-1.207 7.625,-1.196 l 1.866,0.088 1.818,0.224 c 0.604,0.057 1.215,0.218 1.824,0.331 0.611,0.117 1.217,0.248 1.805,0.435 4.778,1.351 9.021,3.894 12.547,6.947 1.767,1.535 3.419,3.16 4.883,4.917 1.489,1.733 2.853,3.548 4.08,5.43 1.096,1.666 2.09,3.38 3.014,5.124 0.166,-0.329 0.35,-0.698 0.57,-1.141 1.384,-2.777 2.815,-5.525 4.301,-8.245 2.973,-5.437 6.145,-10.769 9.659,-15.896 3.528,-5.105 7.351,-10.08 11.976,-14.338 2.309,-2.111 4.856,-4.044 7.735,-5.366 2.843,-1.341 6.194,-1.838 9.105,-0.878 -3.042,-0.452 -5.989,0.548 -8.379,2.191 -2.42,1.64 -4.456,3.79 -6.269,6.1 -3.619,4.643 -6.437,9.909 -8.964,15.276 -1.218,2.614 -2.351,5.269 -3.426,7.951 4.922,-4.478 12.997,-8.456 27.705,-11.185 32.333,-6 66.666,28.667 68,35.667 1.333,7 -10.27,55.702 -8.27,60.333 2,4.632 -23.897,14.667 -51.397,1.667 m -71.131,-39.429 c -6,-9.667 -6.702,-0.905 -6.702,2.429 0,3.333 -4.108,4.114 -7.441,-1.219 -3.333,-5.333 -8.124,-10.476 -8.059,-5.45 0.137,10.796 -14,59.002 -16,66.669 -2,7.667 -6.334,36.667 12.333,33.333 18.667,-3.333 3.116,-10.333 14.783,-13.333 11.666,-3 1.55,11.598 19.55,13.598 18,2 17,-16.265 16.334,-21.931 C 206,301.313 187.869,242.551 181.869,232.884 M 44.532,169.99 c -2.569,4.984 -5.369,9.774 -8.563,14.422 -0.401,0.584 -0.795,1.165 -1.237,1.747 -0.414,0.572 -0.879,1.174 -1.361,1.779 -0.163,0.209 -0.109,0.137 -0.16,0.181 -0.032,0.006 -0.067,0.066 -0.105,0.118 -0.082,0.081 -0.162,0.265 -0.248,0.435 -0.168,0.362 -0.319,0.869 -0.448,1.389 -0.471,2.186 -0.568,4.859 -0.566,7.496 -0.007,2.662 0.104,5.381 0.175,8.123 0.081,2.74 0.148,5.523 -0.019,8.299 -1.836,-5.223 -3.725,-10.349 -5.012,-15.85 -0.611,-2.767 -1.162,-5.564 -1.08,-8.806 0.047,-0.83 0.096,-1.675 0.328,-2.618 0.124,-0.476 0.243,-0.948 0.472,-1.473 0.107,-0.257 0.209,-0.51 0.37,-0.785 l 0.389,-0.68 c 0.578,-1.01 1.177,-2.217 1.776,-3.375 2.363,-4.725 4.631,-9.594 6.737,-14.451 l 1.555,-3.645 c 0.478,-1.22 1.006,-2.433 1.444,-3.655 0.968,-2.428 1.795,-4.855 2.492,-7.242 l 0.492,-1.767 c 0.141,-0.577 0.246,-1.138 0.375,-1.707 0.244,-1.168 0.437,-2.527 0.626,-3.797 0.416,-2.58 0.703,-5.186 0.968,-7.786 0.2,-2.005 0.342,-4.011 0.45,-6.014 l -0.476,-0.034 c 0.174,-1.548 0.389,-3.086 0.632,-4.616 0.019,-1.638 0.013,-3.272 -0.05,-4.897 -0.222,-5.131 -0.893,-10.229 -2.707,-14.889 -0.906,-2.326 -2.141,-4.52 -3.81,-6.454 -1.67,-1.924 -3.802,-3.574 -6.304,-4.792 2.771,0.163 5.606,1.057 8.094,2.655 2.507,1.574 4.632,3.784 6.332,6.232 1.064,1.552 1.952,3.188 2.724,4.869 1.268,-3.746 2.727,-7.421 4.389,-11.001 C 58.041,87.11 64.599,77.62 72.727,69.775 80.84,61.921 90.468,55.771 100.8,51.679 c 5.17,-2.042 10.492,-3.606 15.877,-4.787 5.397,-1.149 10.862,-1.811 16.323,-2.246 -5.417,0.849 -10.786,1.921 -16.016,3.458 -5.219,1.568 -10.309,3.499 -15.171,5.861 -9.722,4.735 -18.424,11.319 -25.479,19.274 -7.072,7.951 -12.478,17.239 -16.225,27.093 -3.704,9.863 -5.864,20.333 -6.229,30.678 l -0.471,-0.034 c 0.057,1.999 0.051,3.995 -0.011,5.983 -0.094,2.835 -0.332,5.656 -0.644,8.475 -0.177,1.429 -0.355,2.77 -0.634,4.275 -0.154,0.763 -0.296,1.543 -0.468,2.291 l -0.577,2.177 c -0.011,0.035 -0.024,0.067 -0.034,0.102 3.034,-1.36 6.1,-2.522 9.183,-3.583 3.72,-1.276 7.478,-2.369 11.268,-3.306 1.893,-0.471 3.797,-0.898 5.712,-1.26 1.915,-0.335 3.846,-0.724 5.796,-0.669 -1.914,0.278 -3.722,0.982 -5.528,1.632 -1.801,0.676 -3.578,1.414 -5.336,2.191 -3.516,1.548 -6.965,3.238 -10.307,5.076 -3.336,1.839 -6.603,3.786 -9.618,5.945 l -2.187,1.664 c -0.73,0.549 -1.352,1.169 -2.028,1.741 -0.325,0.264 -0.601,0.55 -0.863,0.838 -0.828,1.841 -1.687,3.658 -2.601,5.442"
         inkscape:connector-curvature="0"
         style="fill:#0a0b09;stroke-width:3.15444016" /></g></g></svg>