<?xml version="1.0" encoding="UTF-8" standalone="no"?>
<!-- Generator: Adobe Illustrator 19.0.0, SVG Export Plug-In . SVG Version: 6.00 Build 0)  -->

<svg
   xmlns:dc="http://purl.org/dc/elements/1.1/"
   xmlns:cc="http://creativecommons.org/ns#"
   xmlns:rdf="http://www.w3.org/1999/02/22-rdf-syntax-ns#"
   xmlns:svg="http://www.w3.org/2000/svg"
   xmlns="http://www.w3.org/2000/svg"
   xmlns:sodipodi="http://sodipodi.sourceforge.net/DTD/sodipodi-0.dtd"
   xmlns:inkscape="http://www.inkscape.org/namespaces/inkscape"
   version="1.1"
   id="Layer_1"
   x="0px"
   y="0px"
   viewBox="0 0 128.37375 128.37375"
   xml:space="preserve"
   width="180"
   height="180"
   sodipodi:docname="BINSONDISC11_halloween.svg"
   inkscape:version="0.92.4 (5da689c313, 2019-01-14)"><metadata
     id="metadata41"><rdf:RDF><cc:Work
         rdf:about=""><dc:format>image/svg+xml</dc:format><dc:type
           rdf:resource="http://purl.org/dc/dcmitype/StillImage" /><dc:title></dc:title></cc:Work></rdf:RDF></metadata><defs
     id="defs39"><filter
       color-interpolation-filters="sRGB"
       id="filter4662-3"><feGaussianBlur
         stdDeviation="1.2245795"
         id="feGaussianBlur4664-0" /></filter><radialGradient
       r="121.57"
       gradientTransform="matrix(1.0323,0.5471,-0.46829,0.88357,85.229,-114.71)"
       cx="266.63"
       cy="252.86"
       gradientUnits="userSpaceOnUse"
       id="radialGradient5356"><stop
         offset="0"
         style="stop-color:#800000"
         id="stop3859-2" /><stop
         offset="1"
         style="stop-color:#800000;stop-opacity:0"
         id="stop3861-3" /></radialGradient><radialGradient
       r="121.57"
       gradientTransform="matrix(0.10323,1.5174,-0.99769,0.06787,302.54,-305.18)"
       cx="257.55"
       cy="67.148"
       gradientUnits="userSpaceOnUse"
       id="radialGradient5364"><stop
         offset="0"
         style="stop-color:#ffd42a"
         id="stop5360" /><stop
         offset="1"
         style="stop-color:#ffd42a;stop-opacity:0"
         id="stop5362" /></radialGradient><radialGradient
       r="22.264"
       gradientTransform="matrix(0.50727,2.4775e-8,-2.0316e-7,1.1184,118.95,-6.36)"
       cx="259.03"
       cy="79.854"
       gradientUnits="userSpaceOnUse"
       id="radialGradient5925"><stop
         offset="0"
         style="stop-color:#00ff00"
         id="stop5402" /><stop
         offset="1"
         style="stop-color:#00ff00;stop-opacity:0"
         id="stop5404" /></radialGradient></defs><sodipodi:namedview
     pagecolor="#ffffff"
     bordercolor="#666666"
     borderopacity="1"
     objecttolerance="10"
     gridtolerance="10"
     guidetolerance="10"
     inkscape:pageopacity="0"
     inkscape:pageshadow="2"
     inkscape:window-width="1920"
     inkscape:window-height="1028"
     id="namedview37"
     showgrid="false"
     inkscape:pagecheckerboard="false"
     inkscape:showpageshadow="false"
     inkscape:zoom="4.5129136"
     inkscape:cx="90"
     inkscape:cy="90.209625"
     inkscape:window-x="-8"
     inkscape:window-y="-8"
     inkscape:window-maximized="1"
     inkscape:current-layer="g34"
     showborder="true" /><g
     id="g865"
     transform="matrix(0.3515625,0,0,0.3515625,0,83.242354)"><g
       transform="translate(0,-236.77825)"
       id="g34"><path
         inkscape:connector-curvature="0"
         id="path8"
         d="m 182.579,7.495 c 96.69,0 175.07,78.39 175.07,175.08 0,96.69 -78.38,175.08 -175.07,175.08 -96.7,0 -175.08,-78.39 -175.08,-175.08 0,-96.69 78.38,-175.08 175.08,-175.08 z m 107.27,194.48 c 0,-14.81 -12,-26.81 -26.81,-26.81 -14.8,0 -26.81,12 -26.81,26.81 0,14.8 12.01,26.81 26.81,26.81 14.81,0 26.81,-12.01 26.81,-26.81 z m -127.73,-89.09 c 0,-10.02 -8.12,-18.14 -18.13,-18.14 -10.02,0 -18.14,8.12 -18.14,18.14 0,10.01 8.12,18.13 18.14,18.13 10.01,0 18.13,-8.12 18.13,-18.13 z m -6.31,137.97 c 0,-12.19 -9.88,-22.07 -22.07,-22.07 -12.2,0 -22.08,9.88 -22.08,22.07 0,12.2 9.88,22.08 22.08,22.08 12.19,0 22.07,-9.88 22.07,-22.08 z"
         style="fill:#fcb514" /><g
         id="g12"
         style="fill:#f4dbaa"><path
           inkscape:connector-curvature="0"
           id="path10"
           d="m 92.499,182.575 c 0,-82.032 56.421,-150.881 132.578,-169.874 -13.607,-3.394 -27.84,-5.206 -42.498,-5.206 -96.7,0 -175.08,78.39 -175.08,175.08 0,96.69 78.38,175.08 175.08,175.08 14.658,0 28.891,-1.812 42.498,-5.206 C 148.92,333.457 92.499,264.607 92.499,182.575 Z"
           style="fill:#f4dbaa" /></g><g
         id="g32"><path
           inkscape:connector-curvature="0"
           id="path18"
           d="M 182.576,0 C 81.903,0 0,81.903 0,182.576 c 0,100.673 81.903,182.576 182.576,182.576 100.673,0 182.576,-81.903 182.576,-182.576 C 365.152,81.903 283.249,0 182.576,0 Z m 0,350.152 C 90.175,350.152 15,274.978 15,182.576 15,90.174 90.175,15 182.576,15 c 92.401,0 167.576,75.174 167.576,167.576 0,92.402 -75.174,167.576 -167.576,167.576 z"
           style="fill:#333333" /><path
           inkscape:connector-curvature="0"
           id="path20"
           d="m 143.984,87.247 c -14.135,0 -25.634,11.5 -25.634,25.634 0,14.134 11.499,25.634 25.634,25.634 14.135,0 25.635,-11.5 25.635,-25.634 0,-14.134 -11.5,-25.634 -25.635,-25.634 z m 0,36.268 c -5.863,0 -10.634,-4.771 -10.634,-10.634 0,-5.863 4.771,-10.634 10.634,-10.634 5.864,0 10.635,4.771 10.635,10.634 0,5.863 -4.77,10.634 -10.635,10.634 z"
           style="fill:#333333" /><path
           inkscape:connector-curvature="0"
           id="path22"
           d="m 263.039,167.667 c -18.917,0 -34.307,15.39 -34.307,34.307 0,18.917 15.39,34.307 34.307,34.307 18.917,0 34.308,-15.39 34.308,-34.307 0,-18.917 -15.391,-34.307 -34.308,-34.307 z m 0,53.615 c -10.646,0 -19.307,-8.661 -19.307,-19.307 0,-10.646 8.661,-19.307 19.307,-19.307 10.646,0 19.308,8.661 19.308,19.307 0,10.646 -8.661,19.307 -19.308,19.307 z"
           style="fill:#333333" /><path
           inkscape:connector-curvature="0"
           id="path24"
           d="m 133.735,221.282 c -16.309,0 -29.576,13.268 -29.576,29.576 0,16.308 13.268,29.576 29.576,29.576 16.308,0 29.576,-13.268 29.576,-29.576 0,-16.308 -13.267,-29.576 -29.576,-29.576 z m 0,44.152 c -8.037,0 -14.576,-6.539 -14.576,-14.576 0,-8.037 6.539,-14.576 14.576,-14.576 8.037,0 14.576,6.539 14.576,14.576 0,8.037 -6.539,14.576 -14.576,14.576 z"
           style="fill:#333333" /><circle
           id="circle26"
           r="7.5"
           cy="102.635"
           cx="256.729"
           style="fill:#333333" /><circle
           id="circle28"
           r="7.5"
           cy="167.285"
           cx="89.579002"
           style="fill:#333333" /><circle
           id="circle30"
           r="7.5"
           cy="269.785"
           cx="206.269"
           style="fill:#333333" /><g
           transform="matrix(1.1828933,0,0,1.1861312,-111.07069,-64.528033)"
           id="g5408"
           style="display:inline;stroke-width:6.22247648"
           inkscape:label="pumpkin"><path
             d="m 245.11,93.097 c -38.076,0.60597 -75.07,20.576 -96.844,51.625 -21.559,30.014 -28.082,70.106 -17.537,105.53 10.821,36.902 39.987,67.961 76.384,80.639 34.673,12.453 74.982,8.266 106.06,-11.54 31.076,-19.318 52.756,-53.151 56.714,-89.659 3.9418,-33.372 -6.4453,-68.13 -28.381,-93.557 C 317.995,108.296 281.65,91.869 245.105,93.098 Z"
             style="fill:#000000;stroke-width:6.22247648;filter:url(#filter4662-3)"
             id="path5250"
             inkscape:connector-curvature="0" /><path
             transform="translate(-1.1108,24.757)"
             d="m 370.91,190.75 a 121.57,121.57 0 1 1 -243.13,0 121.57,121.57 0 1 1 243.13,0 z"
             style="fill:#ff6600;stroke-width:6.22247648"
             id="path5252"
             inkscape:connector-curvature="0" /><path
             transform="matrix(0.98452,0,0,1,2.1226,22.247)"
             d="m 370.91,190.75 a 121.57,121.57 0 1 1 -243.13,0 121.57,121.57 0 1 1 243.13,0 z"
             style="fill:url(#radialGradient5356);stroke-width:6.22247648"
             id="path5254"
             inkscape:connector-curvature="0" /><path
             transform="translate(-2.3657,28.521)"
             d="m 370.91,190.75 a 121.57,121.57 0 1 1 -243.13,0 121.57,121.57 0 1 1 243.13,0 z"
             style="fill:url(#radialGradient5364);stroke-width:6.22247648"
             id="path5256"
             inkscape:connector-curvature="0" /><path
             d="m 243.89,96.597 c -57.601,3.2559 -103.41,56.365 -103.41,121.41 0,65.168 45.985,118.34 103.74,121.41 -54.034,-3.2559 -96.991,-56.365 -96.991,-121.41 0,-65.041 42.957,-118.15 96.991,-121.41 -0.11252,0.006 -0.22386,-0.006 -0.33628,0 z m 10.873,0 c 54.034,3.2559 96.991,56.365 96.991,121.41 0,65.041 -42.957,118.15 -96.991,121.41 57.758,-3.069 103.74,-56.239 103.74,-121.41 0,-65.167 -45.987,-118.34 -103.74,-121.41 z"
             style="fill:#803300;stroke-width:6.22247648"
             id="path5366"
             inkscape:connector-curvature="0" /><path
             d="m 248.67,96.597 c -40.693,3.2559 -73.054,56.365 -73.054,121.41 0,65.168 32.487,118.34 73.292,121.41 -38.173,-3.2559 -68.52,-56.365 -68.52,-121.41 0,-65.041 30.348,-118.15 68.52,-121.41 -0.0795,0.006 -0.15815,-0.006 -0.23757,0 z m 7.6816,0 c 38.173,3.2559 68.52,56.365 68.52,121.41 0,65.041 -30.348,118.15 -68.52,121.41 40.804,-3.069 73.292,-56.239 73.292,-121.41 0,-65.167 -32.488,-118.34 -73.292,-121.41 z"
             style="fill:#803300;stroke-width:6.22247648"
             id="path5374"
             inkscape:connector-curvature="0" /><path
             d="m 248.35,96.597 c -18.149,3.2559 -32.581,56.365 -32.581,121.41 0,65.168 14.489,118.34 32.687,121.41 -17.024,-3.2559 -30.559,-56.365 -30.559,-121.41 0,-65.041 13.535,-118.15 30.559,-121.41 -0.0355,0.006 -0.0705,-0.006 -0.10595,0 z m 3.4259,0 c 17.024,3.2559 30.559,56.365 30.559,121.41 0,65.041 -13.535,118.15 -30.559,121.41 18.198,-3.069 32.687,-56.239 32.687,-121.41 0,-65.167 -14.489,-118.34 -32.687,-121.41 z"
             style="fill:#803300;stroke-width:6.22247648"
             id="path5376"
             inkscape:connector-curvature="0" /><path
             d="m 179.17,198.83 c -6.2045,-4.6222 14.524,-54.305 24.963,-56.176 7.3937,-1.4263 38.57,39.287 34.385,46.119 -2.8236,9.0521 -53.573,16.47 -59.348,10.057 z"
             style="fill:#ffff00;stroke:#000000;stroke-width:1.71261215px"
             id="path5388"
             inkscape:connector-curvature="0" /><path
             d="m 181.59,197.15 c -5.6928,-4.2408 13.326,-49.824 22.904,-51.541 6.784,-1.3086 35.389,36.045 31.549,42.313 -2.5908,8.3052 -49.155,15.111 -54.454,9.2275 z"
             style="fill:#000000;stroke:#000000;stroke-width:1.71261215px"
             id="path5352"
             inkscape:connector-curvature="0" /><path
             d="m 183.92,226.77 c -0.007,0.49757 -0.0511,0.98719 -0.0511,1.4869 0,45.146 29.381,81.743 65.626,81.743 33.91,0 61.815,-32.041 65.268,-73.14 -0.63346,1.5945 -1.2488,3.2069 -1.9662,4.7438 -1.0813,2.3165 -2.2361,4.5874 -3.4984,6.7617 -1.2623,2.1744 -2.6286,4.2475 -4.0601,6.2661 -1.4315,2.0186 -2.9309,3.9568 -4.5198,5.8059 -1.5889,1.8491 -3.2704,3.609 -5.0049,5.2749 -1.7345,1.6659 -3.5195,3.2394 -5.388,4.7084 -1.8684,1.469 -3.806,2.8482 -5.7965,4.1066 -1.9906,1.2584 -4.0531,2.3999 -6.154,3.434 -2.1009,1.0341 -4.2355,1.9652 -6.4349,2.7613 -2.1994,0.79613 -4.4551,1.4734 -6.7413,2.0179 -2.2863,0.54445 -4.6098,0.95999 -6.9712,1.2391 -2.3613,0.27907 -4.7509,0.42482 -7.1754,0.42482 -2.4246,0 -4.8397,-0.14575 -7.201,-0.42482 -2.3613,-0.27907 -4.6849,-0.69461 -6.9712,-1.2391 -2.2863,-0.54445 -4.5163,-1.2218 -6.7158,-2.0179 -2.1994,-0.79614 -4.3596,-1.7272 -6.4604,-2.7613 -2.1009,-1.0341 -4.1379,-2.1756 -6.1285,-3.434 -1.9905,-1.2584 -3.9281,-2.6376 -5.7965,-4.1066 -1.8684,-1.469 -3.679,-3.0426 -5.4135,-4.7084 -1.7345,-1.6659 -3.3905,-3.4258 -4.9794,-5.2749 -1.5889,-1.8491 -3.1138,-3.7873 -4.5453,-5.8059 -1.4315,-2.0186 -2.7723,-4.0917 -4.0346,-6.2661 -1.2623,-2.1744 -2.4425,-4.4452 -3.5239,-6.7617 -1.0813,-2.3165 -2.0735,-4.7062 -2.9621,-7.1512 -0.8886,-2.4449 -1.6652,-4.9456 -2.3493,-7.5052 -0.0159,-0.0594 -0.0353,-0.11753 -0.0511,-0.17701 z"
             style="fill:#ff6600;stroke-width:6.22247648"
             id="path5386"
             inkscape:connector-curvature="0" /><path
             d="m 187.01,237.89 c -0.007,0.41271 -0.0483,0.81885 -0.0483,1.2333 0,31.672 19.877,58.272 46.748,65.723 0.69595,0.193 2.0098,-6.5907 2.5719,-7.2658 1.2281,-1.475 -0.0633,-0.38778 -0.0633,-0.38778 l 18.467,1.1877 c 0,0 0.30034,1.339 3.0271,7.8882 0.16859,0.40491 0.91597,-0.11842 1.3714,-0.18637 27.51,-4.1041 48.756,-29.369 51.673,-59.823 -0.59911,1.3226 -1.1811,2.6601 -1.8596,3.9349 -1.0227,1.9215 -2.1148,3.8051 -3.3086,5.6087 -1.1938,1.8036 -2.4861,3.5232 -3.8399,5.1976 -1.3538,1.6744 -2.7719,3.2821 -4.2746,4.8158 -1.5027,1.5338 -3.093,2.9936 -4.7335,4.3754 -1.6405,1.3818 -3.3286,2.6871 -5.0958,3.9056 -1.7671,1.2185 -3.5996,2.3625 -5.4822,3.4063 -1.8826,1.0438 -3.8333,1.9906 -5.8203,2.8484 -1.9869,0.85777 -0.45636,8.7176 -2.5365,9.378 -2.0802,0.66037 -12.2,2.8898 -14.362,3.3415 -2.1623,0.45161 0.0769,-7.9589 -2.1563,-7.7274 -2.2332,0.23148 -4.4932,0.35238 -6.7863,0.35238 -2.2931,0 -4.5772,-0.1209 -6.8104,-0.35238 -2.2332,-0.23148 -4.4308,-0.57616 -6.5931,-1.0278 -2.1623,-0.45161 -4.2714,-1.0134 -6.3516,-1.6738 -2.0802,-0.66037 0.31362,9.8239 -1.6733,8.9662 -1.987,-0.85778 -11.456,-5.9737 -13.339,-7.0175 -1.8826,-1.0438 -0.60934,-9.2754 -2.3764,-10.494 -1.7671,-1.2185 -3.4794,-2.5237 -5.1199,-3.9056 -1.6405,-1.3818 -3.2066,-2.8416 -4.7094,-4.3754 -1.5027,-1.5338 -2.9449,-3.1415 -4.2988,-4.8158 -1.3538,-1.6744 -2.622,-3.394 -3.8158,-5.1976 -1.1938,-1.8036 -2.3101,-3.6872 -3.3328,-5.6087 -1.0227,-1.9215 -1.961,-3.9037 -2.8014,-5.9317 -0.84041,-2.028 -1.5748,-4.1022 -2.2218,-6.2254 -0.015,-0.0492 -0.0334,-0.0975 -0.0483,-0.14682 z"
             style="fill:#000000;stroke-width:6.22247648"
             id="path5384"
             inkscape:connector-curvature="0" /><path
             d="m 318.08,199.46 c 6.2045,-4.6222 -14.524,-54.305 -24.963,-56.176 -7.3937,-1.4263 -38.57,39.287 -34.385,46.119 2.8236,9.0521 53.573,16.47 59.348,10.057 z"
             style="fill:#ffff00;stroke:#000000;stroke-width:1.71261215px"
             id="path5392"
             inkscape:connector-curvature="0" /><path
             d="m 315.66,197.78 c 5.6928,-4.2408 -13.326,-49.824 -22.904,-51.541 -6.784,-1.3086 -35.389,36.045 -31.549,42.313 2.5908,8.3052 49.155,15.111 54.454,9.2275 z"
             style="fill:#000000;stroke:#000000;stroke-width:1.71261215px"
             id="path5394"
             inkscape:connector-curvature="0" /><path
             d="m 228.39,97.383 c 0,0 5.0196,6.9019 11.922,9.4117 6.902,2.5098 21.961,-0.62745 25.098,-2.5098 3.1372,-1.8824 5.647,-4.3921 5.647,-4.3921 0,0 1.8824,-5.0196 -5.0196,-6.2745 -6.902,-1.2549 -10.667,0.62745 -11.922,-3.7647 -1.2549,-4.3922 0,-26.353 0,-26.353 0,0 -1.2549,-5.6471 -5.0196,-4.3922 -3.7647,1.2549 -5.0196,31.373 -5.0196,31.373 0,0 0.62745,1.8824 -5.0196,3.1372 -5.6471,1.2549 -11.294,0.62745 -11.294,0.62745 z"
             style="fill:#008000;stroke:#008000;stroke-width:1.71261215px"
             id="path5396"
             inkscape:connector-curvature="0" /><path
             d="m 228.39,97.383 c 0,0 5.0196,6.9019 11.922,9.4117 6.902,2.5098 21.961,-0.62745 25.098,-2.5098 3.1372,-1.8824 5.647,-4.3921 5.647,-4.3921 0,0 1.8824,-5.0196 -5.0196,-6.2745 -6.902,-1.2549 -10.667,0.62745 -11.922,-3.7647 -1.2549,-4.3922 0,-26.353 0,-26.353 0,0 -1.2549,-5.6471 -5.0196,-4.3922 -3.7647,1.2549 -5.0196,31.373 -5.0196,31.373 0,0 0.62745,1.8824 -5.0196,3.1372 -5.6471,1.2549 -11.294,0.62745 -11.294,0.62745 z"
             style="fill:url(#radialGradient5925);stroke:#008000;stroke-width:1.71261215px"
             id="path5398"
             inkscape:connector-curvature="0" /></g></g></g></g></svg>