<?xml version="1.0" encoding="UTF-8" standalone="no"?>
<!-- Created with Inkscape (http://www.inkscape.org/) -->

<svg
   xmlns:dc="http://purl.org/dc/elements/1.1/"
   xmlns:cc="http://creativecommons.org/ns#"
   xmlns:rdf="http://www.w3.org/1999/02/22-rdf-syntax-ns#"
   xmlns:svg="http://www.w3.org/2000/svg"
   xmlns="http://www.w3.org/2000/svg"
   xmlns:xlink="http://www.w3.org/1999/xlink"
   xmlns:sodipodi="http://sodipodi.sourceforge.net/DTD/sodipodi-0.dtd"
   xmlns:inkscape="http://www.inkscape.org/namespaces/inkscape"
   width="180"
   height="180"
   id="svg2163"
   sodipodi:version="0.32"
   inkscape:version="0.92.4 (5da689c313, 2019-01-14)"
   sodipodi:docname="BINSONDISC4_Female Skeleton.svg"
   inkscape:output_extension="org.inkscape.output.svg.inkscape"
   inkscape:export-filename="/home/dan/Desktop/Pages DIZ/OpenClipart.Projects/Appollonio/Appolinio Original1.png"
   inkscape:export-xdpi="90"
   inkscape:export-ydpi="90"
   version="1.1">
  <defs
     id="defs2165">
    <linearGradient
       inkscape:collect="always"
       id="linearGradient825">
      <stop
         style="stop-color:#0b7b97;stop-opacity:1"
         offset="0"
         id="stop821" />
      <stop
         style="stop-color:#ffcc1a;stop-opacity:1"
         offset="1"
         id="stop823" />
    </linearGradient>
    <linearGradient
       inkscape:collect="always"
       xlink:href="#linearGradient825"
       id="linearGradient827"
       x1="52.661884"
       y1="1003.801"
       x2="224.89214"
       y2="1044.5924"
       gradientUnits="userSpaceOnUse" />
  </defs>
  <sodipodi:namedview
     id="base"
     pagecolor="#ffffff"
     bordercolor="#666666"
     borderopacity="1.0"
     gridtolerance="10000"
     guidetolerance="10"
     objecttolerance="10"
     inkscape:pageopacity="0.0"
     inkscape:pageshadow="2"
     inkscape:zoom="4.607732"
     inkscape:cx="90.00002"
     inkscape:cy="89.352535"
     inkscape:document-units="px"
     inkscape:current-layer="layer1"
     inkscape:window-width="1920"
     inkscape:window-height="1028"
     inkscape:window-x="-8"
     inkscape:window-y="-8"
     showgrid="false"
     inkscape:pagecheckerboard="false"
     inkscape:showpageshadow="false"
     inkscape:window-maximized="1" />
  <metadata
     id="metadata2168">
    <rdf:RDF>
      <cc:Work
         rdf:about="">
        <dc:format>image/svg+xml</dc:format>
        <dc:type
           rdf:resource="http://purl.org/dc/dcmitype/StillImage" />
        <dc:title></dc:title>
      </cc:Work>
    </rdf:RDF>
  </metadata>
  <g
     inkscape:label="Layer 1"
     inkscape:groupmode="layer"
     id="layer1"
     transform="translate(0,-872.36218)">
    <path
       style="fill:url(#linearGradient827);fill-opacity:1;fill-rule:evenodd;stroke:#000000;stroke-width:0.99999994;stroke-opacity:1"
       d="M 180.00004,963.00961 A 90.000016,90.000016 0 0 1 90.000017,1053.0097 90.000016,90.000016 0 0 1 5.4509265e-7,963.00961 90.000016,90.000016 0 0 1 90.000017,873.00959 90.000016,90.000016 0 0 1 180.00004,963.00961 Z"
       id="path818"
       inkscape:connector-curvature="0" />
    <g
       id="g48688"
       transform="matrix(0.1087605,0,0,0.1087605,53.619177,872.63433)"
       style="stroke-width:9.19451427">
	<path
   id="path48660"
   d="m 337.365,1625 c -1.401,-1.156 -3.601,-0.283 -4.756,-1.514 -4.151,-4.426 -6.854,3.646 -13.885,-1.801 -2.913,-2.257 -10.507,0.035 -10.601,-5.361 -0.009,-0.536 -0.443,-0.885 -1.026,-1.007 -8.634,-1.815 -2.219,-8.136 -7.007,-7.712 -2.24,0.198 -6.196,-4.695 -5.886,-7.274 0.828,-6.893 -5.193,-14.978 10.492,-25.623 3.136,-2.129 5.211,-4.958 6.201,-8.63 1.585,-5.878 4.55,-11.209 6.931,-16.76 1.531,-3.569 2.527,-7.339 4.367,-10.79 3.001,-5.626 6.284,-11.134 8.019,-17.353 0.154,-0.552 0.754,-0.946 0.502,-1.656 -1.81,-5.097 -0.902,-10.684 -2.558,-15.726 -1.68,-5.116 -2.549,-10.399 -4.053,-15.528 -1.816,-6.196 -3.93,-12.306 -5.774,-18.494 -5.287,-17.737 -5.203,-29.539 -9.284,-39.735 -1.568,-3.917 -0.854,-8.453 -2.487,-12.394 -11.598,-27.982 -15.887,-44.396 -18.575,-52.621 -16.557,-50.664 -11.227,-43.023 -16.394,-62.003 -0.068,-0.25 -0.255,-0.498 -0.239,-0.737 0.56,-8.346 -2.862,-16.122 -3.329,-24.399 -0.753,-13.342 -0.339,-71.013 -0.22,-79.598 0.209,-15.153 6.076,-29.403 0.147,-48.546 -4.737,-15.294 -4.218,-33.696 -5.564,-48.767 -2.404,-26.913 -39.237,-103.534 -48.782,-150.7 -2.184,-10.793 -11.34,-34.889 -13.506,-50.867 -0.63,-4.652 -1.976,-9.209 -3.538,-13.658 -0.712,-2.029 -0.13,-4.132 -0.652,-6.162 -1.404,-5.453 -3.495,-10.865 -3.929,-16.401 -0.655,-8.351 -2.559,-16.497 -3.179,-24.846 -0.472,-6.349 -0.139,-12.756 -1.809,-19.085 -3.024,-11.466 1.397,-43.261 -0.799,-58.6 -1.344,-9.391 0.156,-26.2 0.349,-27.2 3.489,-18 -1.064,-4.21 8.088,-29.938 10.309,-28.979 15.399,-29.425 13.787,-36.957 -2.557,-11.949 2.467,-20.18 9.445,-34.119 28.855,-57.637 19.049,-36.289 53.107,-84.479 1.166,-1.65 5.229,-1.433 3.39,-5.356 -1.098,-2.342 -0.734,-9.765 -2.211,-13.966 -2.691,-7.654 -0.645,-15.691 -2.058,-23.345 -2.602,-14.095 -0.946,-31.746 -4.395,-25.832 -21.685,37.181 -37.565,48.319 -43.507,73.345 -2.337,9.841 -7.017,8.153 -10.266,26.294 -8.032,44.852 -34.209,60.161 -57.756,97.611 -2.529,4.023 -40.457,50.654 -52.743,74.386 -0.28,0.541 -0.527,1.054 -1.259,1.167 -1.055,0.163 -1.48,1.07 -1.369,1.917 0.715,5.448 -1.635,15.049 -1.226,18.993 1.321,12.74 6.384,23.941 4.654,38.902 -0.385,3.332 1.685,21.225 2.149,23.669 1.409,7.432 -2.588,14.693 -2.214,25.754 0.186,5.488 -2.611,7.456 -7.802,5.748 -7.53,-2.478 -10.883,-8.371 -10.672,-15.841 0.119,-4.19 0.331,-8.552 -2.89,-12.211 -1.524,1.858 -0.99,4.117 -1.089,6.088 -0.354,7.065 -1.854,13.871 -4.133,20.516 -2.611,7.616 0.29,12.901 -1.163,19.445 -1.993,8.975 3.315,15.955 -1.715,29.633 -0.945,2.571 -4.889,5.675 -6.75,3.976 -1.937,-1.769 -2.233,-0.579 -2.114,1.214 0.296,4.468 -4.271,6.852 -3.441,4.195 1.708,-5.471 0.042,-15.958 2.12,-15.696 0.542,0.068 0.985,0.505 0.931,1.088 -0.193,2.109 1.495,3.202 2.438,4.702 1.026,1.631 2.006,1.675 3.16,0.105 2.101,-2.859 2.028,-6.296 2.583,-9.554 1.917,-11.255 -3.915,-7.206 -0.761,-16.982 3.166,-9.815 -2.696,-12.899 1.554,-22.692 2.875,-6.626 0.453,-4.822 3.426,-12.101 1.502,-3.677 0.776,-12.427 2.539,-16.42 1.451,-3.287 0.222,-6.025 -1.39,-8.722 -1.46,-2.443 -1.695,-5.244 -2.421,-7.895 -0.188,-0.687 0.288,-1.556 0.777,-2.394 1.226,4.849 5.49,7.974 6.958,12.298 2.093,6.165 5.587,12.027 4.551,19.181 -0.69,4.767 0.79,9.466 5.126,12.541 0.999,0.709 1.155,2.148 2.484,2.515 1.102,0.305 2.039,1.268 3.314,0.118 1.234,-1.112 1.72,-2.392 1.267,-3.851 -1.511,-4.868 3.113,-16.099 1.598,-23.881 -1.58,-8.118 -0.445,-17.663 -2.42,-21.79 -0.334,-0.698 -0.355,-1.474 -0.102,-2.276 2.315,-7.33 0.534,-14.457 -1.013,-21.625 -5.561,-25.771 -1.259,-21.625 -1.347,-32.728 -0.047,-5.866 1.114,-10.803 2.439,-11.338 6.106,-2.466 3.686,-6.678 14.49,-21.485 51.022,-69.931 45.102,-64.108 68.92,-90.733 1.573,-1.759 2.315,-4.014 3.938,-5.768 6.284,-6.792 9.438,-15.529 14.225,-23.255 3.612,-5.831 6.155,-16.019 6.647,-19.244 0.639,-4.187 2.518,-8.037 3.048,-12.239 1.31,-10.378 7.443,-18.822 11.335,-28.166 3.188,-7.654 2.439,-11.712 11.764,-23.699 6.756,-8.684 14.337,-18.704 29.85,-44.588 1.224,-2.043 0.846,-4.521 2.465,-6.377 0.516,-0.591 -0.433,-1.582 -0.844,-2.317 -2.228,-3.983 -2.655,-8.288 -2.53,-12.752 0.028,-1.007 -2.598,-20.572 4.433,-33.486 0.78,-1.432 -0.136,-2.286 -0.708,-3.285 -2.942,-5.136 -4.494,-10.644 -4.45,-16.573 0.004,-0.6 -0.488,-1.591 0.533,-1.715 0.848,-0.103 1.058,0.842 1.132,1.49 0.426,3.751 1.665,7.211 3.393,10.554 1.885,3.645 3.004,3.879 5.673,0.948 2.694,-2.958 5.478,-1.831 2.944,0.691 -5.202,5.179 -8.144,11.534 -9.367,18.673 -6.246,36.475 8.514,44.355 13.409,50.322 0.166,0.202 0.632,0.157 0.963,0.227 -0.362,-4.697 -0.744,-9.293 -1.048,-13.894 -0.283,-4.287 3.323,-4.89 0.581,-10.97 -2.822,-6.256 -1.795,-12.87 -0.54,-19.366 0.652,-3.377 0.992,-6.942 4.668,-8.749 0.576,-0.283 0.555,-0.989 0.505,-1.637 -2.33,-29.818 11.791,-19.915 4.97,-38.49 -1.905,0.486 0.805,3.51 -2.634,2.381 -2.739,-0.899 -3.913,-3.195 -5.64,-5.153 -5.997,-6.803 -11.329,-10.598 -13.343,-20.989 -0.919,-4.74 11.254,-9.073 8.123,-19.516 -0.959,-3.2 -0.179,-6.349 -3.617,-10.001 -2.862,-3.041 -2.648,-5.108 1.106,-7.66 -7.04,-1.112 -8.54,-0.589 -13.994,-3.373 -2.953,-1.507 -5.787,-1.278 -8.748,-0.534 -0.818,0.206 -1.621,0.876 -2.413,0.099 -3.642,-3.571 5.308,-12.352 11.564,-11.523 5.464,0.724 10.768,1.216 16.233,-0.683 5.303,-1.843 11.18,-1.097 16.614,-2.578 3.057,-0.833 31.333,-6.086 44.585,-5.137 8.262,0.592 16.489,1.659 24.801,1.691 3.39,0.013 6.632,2.509 10.051,1.601 4.485,-1.192 8.846,-0.092 13.258,-0.112 4.982,-0.022 2.55,5.294 5.712,1.996 2.106,-2.196 6.416,-3.359 8.196,-1.617 2.12,2.074 7.193,2.346 9.451,0.303 1.193,-1.079 2.509,-1.561 4.028,-1.392 3.462,0.385 6.635,-0.849 9.899,-1.613 12.377,-2.9 15.771,-0.594 23.309,-2.71 11.351,-3.187 17.586,-1.409 47.957,-4.199 1.823,-0.168 3.606,0.052 5.393,0.016 9.01,-0.183 24.867,-9.104 40.549,0.823 3.846,2.435 3.245,4.786 1.039,4.68 -3.816,-0.183 -4.741,2.367 -8.066,2.441 -3.853,0.086 -7.507,0.936 -11.106,2.259 -6.221,2.287 -27.076,4.169 -31.235,3.611 -2.055,-0.276 -4.04,-0.88 -6.111,-0.145 -0.693,0.246 -1.467,0.049 -1.984,-0.388 -3.437,-2.906 -7.565,-1.55 -11.368,-1.723 -3.819,-0.174 -7.671,0.461 -11.512,0.667 -1.05,0.056 -2.159,0.292 -2.152,1.346 0.009,1.31 1.267,0.489 1.857,0.476 1.749,-0.038 3.226,0.152 4.705,1.372 11.742,9.684 8.288,9.245 11.779,13.796 0.466,-5.268 4.001,-7.798 8.003,-8.798 13.187,-3.294 17.314,1.76 34.872,-4.338 4.85,-1.684 6.567,0.503 4.205,4.588 -2.961,5.123 -3.511,10.553 -2.188,16.25 1.373,5.912 9.402,9.92 5.002,14.01 -11.155,10.371 -9.358,4.435 -15.52,15.816 -4.269,7.885 -3.68,10.121 -13.996,17.406 -2.535,1.79 -5.017,0.015 -5.383,-3.063 -1.389,-11.686 5.376,-21.183 -10.371,-47.126 -0.778,-1.281 -2.469,-3.3 -3.736,-2.697 -0.911,0.434 -0.102,1.499 -0.009,2.303 2.869,24.969 -17.081,28.25 -28.301,33.723 -11.731,5.723 -30.288,5.862 -38.034,4.693 -7.377,-1.113 -9.386,14.895 26.029,14.071 7.11,-0.165 13.806,-4.241 16.633,-4.553 6.26,-0.69 10.836,-4.644 15.731,-7.996 1.478,-1.012 2.127,-2.661 3.575,-4.054 -1.682,-0.669 -3.778,-0.028 -4.304,-2.11 -1.843,-7.291 -1.343,-6.399 1.944,-9.21 2.817,-2.41 6.382,-4.038 7.793,-7.907 0.508,-1.394 1.674,-1.422 2.611,-0.196 13.952,18.263 -1.875,23.013 6.123,32.626 3.075,3.696 4.464,8.291 5.182,13.091 0.441,2.946 -1.012,5.378 -1.75,7.968 -1.363,4.78 2.131,7.446 4.441,14.739 1.95,6.158 7.787,-1.446 10.575,-7.285 0.527,-1.105 0.831,-3.372 2.401,-2.66 1.258,0.571 -0.277,2.231 -0.715,3.312 -2.223,5.495 -4.84,10.731 -10.183,13.979 -1.211,0.736 -0.968,2.019 -0.706,3.068 4.342,17.372 -0.333,26.092 6.797,62.497 2.993,15.284 10.736,39.773 11.344,41.927 5.474,19.392 3.602,18.487 3.709,32.099 0.086,10.915 3.482,8.289 0.264,33.493 -4.408,34.527 0.742,45.461 5.023,70.045 2.456,14.101 10.755,50.994 16.338,70.847 8.313,29.561 8.818,48.186 12.77,65.601 3.043,13.407 6.406,9.277 5.579,16.113 -1.294,10.696 3.886,16.809 2.997,25.481 -2.354,22.952 1.008,12.621 -1.596,31.185 -0.568,4.051 0.038,8.069 -0.231,12.107 -0.467,7.005 -1.951,13.845 -2.927,20.765 -1.072,7.598 1.694,20.012 -1.133,30.336 -1.449,5.29 1.41,10.18 -0.787,16.956 -2.38,7.341 6.54,19.994 5.839,12.238 -0.055,-0.604 0.182,-1.35 -0.895,-1.565 -6.696,-1.339 -0.896,-3.88 -0.73,-21.628 0.003,-0.346 -0.026,-0.72 0.091,-1.033 2.467,-6.606 0.632,-13.782 2.768,-20.48 0.891,-2.794 -1.83,-8.951 0.672,-11.147 0.35,-0.307 0.406,-0.71 -0.156,-1.008 -3.458,-1.833 -2.123,-4.855 -1.607,-7.452 1.733,-8.718 5.208,-16.136 5.063,-19.18 -0.393,-8.266 1.309,-16.445 0.97,-24.715 -0.092,-2.234 0.436,-4.469 1.651,-6.441 3.811,-6.183 6.321,2.958 9.291,-1.021 0.628,-0.841 2.249,-1.623 3.103,0.301 0.72,1.621 2.033,0.125 2.565,-0.875 0.506,-0.949 2.041,-1.797 1.348,-2.835 -0.943,-1.413 -1.928,0.284 -2.857,0.612 -2.103,0.742 -5.25,-1.393 -5.834,-4.495 -0.408,-2.165 -1.421,-4.076 -2.181,-6.046 -0.635,-1.649 -2.71,-2.643 -3.086,-4.725 -2.309,6.424 5.209,9.387 4.267,12.251 -1.369,4.164 -2.379,4.438 -5.48,1.261 -4.713,-4.829 -4.453,-11.379 -3.425,-18.358 0.672,-4.566 4.094,-0.874 3.817,-4.214 -0.057,-0.693 0.378,-1.73 -0.743,-1.945 -1.169,-0.225 -2.482,-0.548 -2.671,-1.724 -0.31,-1.929 -0.742,-3.994 -0.07,-5.884 0.523,-1.472 0.879,-3.218 2.643,-3.967 0.6,-0.255 0.993,-0.837 0.649,-1.489 -0.325,-0.616 -0.928,-0.178 -1.405,-0.116 -2.772,0.365 -2.491,3.819 -6.762,-0.511 -7.116,-7.215 -2.521,-10.393 -2.607,-12.806 -0.461,-12.783 2.489,-15.394 -0.261,-26.816 -1.202,-4.991 -1.691,-9.986 -1.575,-15.104 0,0 -3.192,-14.415 -3.397,-25.562 -0.039,-2.104 -0.973,-4.14 -1.406,-6.228 -1.652,-7.962 -2.514,-15.202 -4.313,-25.76 -2.979,-17.481 -6.637,-29.182 -8.24,-45.575 -2.374,-24.283 -18.536,-47.749 -9.724,-68.22 1.191,-2.767 3.299,-4.357 6.1,-5.214 2.366,-0.724 2.849,-0.334 3.225,3.007 2.687,-2.263 5.932,-3.522 7.56,-6.884 1.205,-2.488 6.551,-4.748 9.232,-4.083 1.804,0.447 6.483,-1.069 9.817,-1.953 -1.567,-0.906 -2.624,-0.217 -3.64,-0.211 -3.357,0.021 -6.623,0.536 -9.717,1.916 -0.314,0.14 -0.705,0.362 -0.986,0.283 -4.715,-1.335 -8.347,2.232 -12.582,2.756 -6.549,0.81 -8.712,1.016 -11.473,-4.911 -0.928,-1.993 -4.807,-2.592 -2.869,-8.631 3.653,-11.382 6.493,-33.961 7.467,-47.029 0.245,-3.287 1.198,-6.432 1.489,-9.716 0.144,-1.618 -0.438,-3.023 -0.288,-4.565 0.097,-1.001 2.776,-25.435 1.795,-31.6 0,0 1.101,-66.346 1.101,-66.346 2.078,-23.851 -0.701,-23.923 -0.769,-31.708 -0.193,-21.91 -1.989,-18.127 -2.828,-24.221 -0.031,-0.225 -0.267,-0.572 -0.45,-0.602 -2.627,-0.426 -3.163,-2.828 -4.445,-4.561 -12.694,-17.154 5.386,-35.125 14.584,-31.724 1.979,0.732 4.129,0.836 6.17,1.329 8.35,2.018 16.823,15.006 17.604,31.263 0.322,6.714 -4.567,7.518 -3.976,12.323 0.417,3.392 -0.834,6.403 -1.224,9.593 -3.941,32.214 -3.715,123.028 -1.424,165.118 0.62,11.399 14.699,11.921 15.944,22.229 1.709,14.156 0.995,15.477 -8.43,19.227 6.128,3.835 10.381,5.067 10.333,15.236 -0.015,3.255 -0.9,6.427 -0.247,9.787 0.46,2.366 -0.434,4.965 -0.481,7.464 -0.113,6.069 1.017,12.06 1.343,18.116 1.871,34.796 7.459,59.137 8.679,78.028 3.819,59.107 13.442,94.693 13.442,94.693 -2.133,4.157 4.26,5.165 1.435,10.849 -2.282,4.592 -5.457,1.779 -7.847,1.779 0.137,3.291 4.622,0.543 3.287,5.863 -2.65,10.554 -2.669,10.356 -1.669,10.867 4.959,2.535 7.268,7.048 8.919,12.01 1.163,3.495 1.093,3.519 -1.17,7.022 6.849,-0.129 7.247,15.082 18.997,25.366 1.706,1.493 2.47,3.524 1.897,5.877 -0.189,0.775 -0.327,1.907 0.407,2.126 2.977,0.889 3.246,3.633 4.096,5.841 1.457,3.784 3.793,7.389 4.096,11.432 1.003,13.362 9.263,16.358 4.485,21.236 -0.317,0.324 -0.442,1.048 -0.017,1.1 1.724,0.213 3.137,2.183 5.067,1.015 1.823,-1.104 0.879,-2.531 0.237,-3.817 -2.745,-5.502 -3.524,-11.711 -6.066,-17.238 -2.014,-4.379 -2.032,-9.121 -3.454,-13.533 -2.222,-6.897 -7.25,-7.142 -6.44,-10.866 0.919,-4.22 -2.734,-3.841 -3.913,-8.612 -6.031,-24.412 -7.325,-19.477 -11.323,-28.218 -2.45,-5.356 -5.31,-10.439 -5.61,-16.636 -0.413,-8.554 -3.822,-37.516 -2.085,-51.283 0.525,-4.158 -1.658,-26.207 -1.368,-31.274 0.509,-8.891 -0.314,-17.767 -0.225,-26.661 0.285,-28.286 1.038,-19.66 2.151,-42.775 0.049,-1.008 -0.902,-40.37 -8.824,-64.227 -4.17,-12.559 -8.491,-19.36 -8.785,-34.854 -0.332,-17.564 -4.585,-16.396 -2.985,-28.542 0.463,-3.512 1.483,-35.35 1.784,-38.727 0.628,-7.047 0.836,-12.878 -0.378,-39.642 -4.316,-95.17 7.897,-78.608 -7.918,-129.966 -0.576,-1.869 -6.922,-17.647 -21.372,-31.323 -8.709,-8.242 -26.462,-17.114 -32.775,-19.208 -17.395,-5.772 -44.885,-26.805 -56.19,-31.995 -2.122,-0.974 -13.749,-10.36 -23.769,-23.893 -18.814,-25.41 -39.925,-79.494 -40.562,-80.497 -6.042,-9.51 -3.539,-30.523 -5.658,-40.448 -2.167,-10.149 -5.488,-13.484 -9.473,-25.687 -0.503,-1.539 -1.123,-2.985 -2.163,-4.069 -6.57,-6.841 -18.843,-25.47 -25.539,-28.857 -1,-0.506 -24.843,-16.709 -39.271,-13.986 -5.839,1.102 -8.835,-2.842 -26.062,3.932 -3.002,1.18 -16.403,5.592 -19.9,8.326 -3.71,2.899 -8.101,4.769 -11.365,8.414 -2.809,3.136 -20.877,18.372 -27.403,38.235 -1.154,3.512 -2.541,6.947 -3.821,10.417 -1.264,3.423 -1.023,7.108 -1.871,10.615 -1.867,7.716 -0.714,15.631 -1.291,23.447 -1.71,23.153 10.264,27.285 20.548,41.973 3.973,5.675 12.618,7.911 14.195,13.25 0.727,-1.368 0.12,-2.124 0.108,-2.897 -0.072,-4.706 1.471,-0.699 4.789,-4.358 4.306,-4.747 4.571,-5.352 6.624,-5.09 5.891,0.753 0.845,-7.128 -3.395,-11.457 -2.587,-2.642 -12.994,6.244 -16.105,8.713 -1,0.794 0.357,2.774 -1.582,3.209 -1.505,0.338 -3.275,-2.738 -1.783,-5.248 5.464,-9.196 18.935,-16.816 25.305,-4.392 0.315,0.615 14.676,28.634 15.054,29.219 2.31,3.578 6.914,3.702 9.393,0.375 1.526,-2.047 3.221,-3.876 5.726,-4.714 1.891,-0.633 2.065,-3.028 3.406,-2.225 0.717,0.43 0.819,1.097 0.735,1.807 -0.658,5.591 -2.481,1.331 -7.154,7.607 -2.906,3.904 -8.77,5.197 -12.694,2.374 -4.616,-3.32 -8.162,-18.518 -11.653,-21.874 -0.266,3.817 -5.406,3.342 -8.683,9.036 -0.357,0.621 -0.814,1.099 -1.571,1.242 -2.192,0.414 -2.884,1.857 -1.659,3.79 25.492,40.236 45.207,39.21 61.695,48.42 3.396,1.897 7.229,2.154 10.793,3.396 1.557,0.543 3.13,-0.806 4.425,-1.827 13.509,-10.653 14.546,-9.592 22.525,-25.244 3.934,-7.718 8.011,-7.493 13.694,-32.654 0.746,-3.304 -2.381,-8.205 -0.608,-8.895 1.047,-0.407 1.189,0.693 1.613,1.285 5.555,7.745 -2.771,23.581 1.73,22.78 2.733,-0.487 4.32,1.741 6.242,2.907 1.275,0.773 0.562,2.46 -0.567,3.56 -0.824,0.803 -2.014,1.482 -0.768,2.986 1.059,1.279 2.031,1.692 3.525,0.785 4.104,-2.491 11.088,2.953 6.308,5.785 -12.271,7.271 -16.822,8.851 -23.415,10.45 -0.827,0.201 -2.008,0.361 -1.726,1.478 0.284,1.124 1.508,0.634 2.219,0.452 4.16,-1.068 8.368,-2.03 12.054,-4.421 3.775,-2.449 7.098,-0.745 10.145,-2.223 1.619,-0.785 2.997,0.85 3.981,2.246 3.306,4.692 5.511,-0.33 8.612,5.505 4.086,7.688 -4.344,7.452 -6.329,14.827 -0.166,0.618 -0.348,1.256 -0.862,1.54 -2.784,1.537 -0.832,2.148 0.531,2.858 13.178,6.869 0.352,9.556 6.221,14.95 3.026,2.78 3.64,6.426 3.997,10.129 0.272,2.83 -2.983,5.551 -5.639,4.619 -6.021,-2.113 -17.972,-1.929 -19.352,-0.224 10.325,5.548 15.174,-1.219 22.48,2.431 2.854,1.425 6.315,1.735 9.47,2.245 10.536,1.703 33.069,10.456 31.128,14.338 -0.435,0.87 -1.169,0.469 -1.784,0.148 -0.636,-0.332 -1.131,0.031 -1.712,0.19 -2.013,0.551 -4.056,0.92 -6.138,0.294 -0.967,-0.291 -2.162,-0.328 -2.726,0.365 -4.511,5.549 -9.094,-5.929 -31.313,-5.756 -1,0.008 -6.207,0.816 -5.038,3.943 1.478,3.955 2.414,5.499 0.463,6.897 -7.231,5.182 -5.147,-0.586 -23.363,-0.862 -4.301,-0.065 -5.323,-1.242 -4.433,-5.5 0.517,-2.473 -1.96,-4.495 -5.003,-3.871 -5.248,1.076 -10.484,2.239 -15.264,4.829 -1.964,1.064 -4.186,1.576 -6.065,2.857 -0.533,0.363 -1.387,0.657 -1.957,0.496 -6.214,-1.748 -12.222,1.952 -13.702,-1.074 -1.111,-2.27 5.198,-5.104 6.198,-5.854 4.433,-3.322 8.879,-6.685 14.38,-8.015 15.505,-3.749 18.214,-6.575 28.811,-6.747 1.389,-0.023 2.684,-0.351 4.17,-0.944 -1.49,-1.759 -3.208,-1.402 -4.876,-1.085 -2.425,0.461 -3.364,-0.533 -2.691,-2.931 1.451,-5.167 1.087,-5.939 -2.732,-6.644 -7.923,-1.462 -5.425,-8.274 -1.887,-9.717 3.04,-1.239 3.813,-4.768 6.748,-6.161 1.091,-0.518 -0.061,-1.999 -0.694,-2.624 -6.723,-6.643 -10.188,0.107 -12.585,-6.228 -2.449,-6.474 4.63,-4.211 3.52,-8.994 -0.331,-1.427 -0.267,-3.156 -2.436,-3.403 -1.073,-0.122 -1.619,-1.43 -2.944,-1.437 -6.008,-0.033 -4.242,6.046 -7.781,8.204 -3.335,2.034 -6.252,4.616 -9.307,6.994 -2.886,2.247 -1.694,5.632 -1.251,8.492 2.026,13.073 5.139,16.815 0.854,16.975 -3.703,0.138 -5.247,1.079 -30.93,13.608 -27.218,13.278 -15.345,10.825 -34.631,15.051 -37.709,8.263 -37.179,4.486 -57.942,44.049 -15.086,28.746 -9.793,39.764 -14.896,52.446 -8.833,21.951 -24.942,50.307 -41.518,104.896 -3.623,11.931 -12.849,39.597 -22.704,47.216 -10.835,8.376 -28.943,41.126 -34.586,53.549 -11.477,25.267 -12.504,15.998 -25.487,57.325 -2.583,8.223 -4.425,16.667 -7.491,24.745 -0.435,1.146 -0.099,2.532 -0.351,3.827 -1.093,5.63 -3.147,10.925 -5.238,16.23 -1.133,2.874 -1.459,6.007 -2.715,8.886 -1.899,4.353 -2.289,9.138 -3.514,13.693 -0.497,1.849 -0.418,3.989 -0.065,5.897 0.492,2.652 -0.105,5.18 -0.274,7.753 -0.089,1.362 -0.785,2.485 -1.633,3.669 -2.946,4.113 -9.18,33.305 -9.19,40.585 0,0 -15.309,44.708 -16.426,50.914 -0.62,3.447 -0.703,6.984 -2.146,10.623 3.404,-1.543 3.397,-4.469 8.559,-18.625 2.843,-7.796 7.117,-15.244 7.345,-23.875 0.018,-0.666 0.326,-1.332 0.546,-1.982 7.821,-23.147 7.282,-24.759 12.169,-25 0.851,-0.042 1.964,0.445 2.072,-0.751 0.105,-1.166 -0.711,-2.378 -1.902,-2.434 -1.793,-0.085 -1.832,-1.064 -1.913,-2.387 -0.062,-1 -2.507,-13.585 4.39,-11.081 -0.829,-3.715 -3.012,-7.105 -2.098,-11.241 0.622,-2.815 2.733,-5.785 5.631,-6.114 8.548,-0.97 6.373,3.533 10.652,2.168 0.401,-0.128 0.837,-0.708 0.922,-1.147 0.153,-0.793 -0.654,-0.611 -1.077,-0.704 -2.194,-0.484 -4.405,-0.898 -6.329,-2.17 -0.548,-0.362 -1.176,-0.399 -1.755,-0.19 -2.608,0.94 -3.481,-0.814 -3.58,-2.716 -0.199,-3.857 -4.314,-14.042 -0.169,-18.935 1.227,-1.449 0.54,-3.604 1.973,-5.131 1.877,-1.998 3.26,-4.458 5.135,-6.459 4.481,-4.783 6.748,-10.817 9.582,-16.52 2.298,-4.625 4.064,-3.252 9.844,-20.06 3.723,-10.828 7.277,-6.977 14.515,-26.028 7.177,-18.888 32.664,-44.234 47.645,-85.154 1.086,-2.968 2.843,-5.303 5.044,-7.402 1.725,-1.645 3.931,-0.791 5.939,-1.017 4.289,-0.484 7.063,2.755 8.476,6.835 4.143,-3.098 8.372,-4.388 13.19,-1.478 -3.514,-5.56 -3.618,-6.103 -4.675,-6.003 -4.094,0.388 -7.948,-1.647 -12.079,-1.096 -4.697,0.626 -10.468,-6.021 -9.613,-10.883 0.359,-2.042 0.787,-4.064 1.033,-6.133 0.799,-6.732 8.622,-2.313 18.282,-17.515 6.129,-9.645 7.395,-27.611 14.44,-44.614 23.497,-56.712 8.949,-36.876 33.407,-92.991 3.196,-7.332 7.962,-16.823 6.673,-21.129 -2.671,-8.921 -3.072,-10.713 -1.033,-14.744 5.158,-10.201 14.881,-13.268 20.182,-11.164 8.052,3.196 9.295,3.195 9.434,4.012 0.718,4.214 4.683,6.526 5.885,10.49 1.971,6.499 0.728,8.692 -3.649,11.775 -12.35,8.698 -8.941,6.845 -15.476,22.255 -13.64,32.164 -8.974,16.755 -18.782,44.904 -3.269,9.381 -6.394,18.827 -9.861,28.123 -3.685,9.88 -5.522,20.275 -9.29,30.102 -1.66,4.328 0.337,4.965 -3.286,14.247 -3.06,7.842 -4.176,16.185 -5.67,24.365 -3.166,17.329 11.869,25.949 -1.745,35.885 -1.448,1.057 -1.973,1.568 -1.326,3.775 5.771,19.678 -7.985,13.269 -24.152,40.732 -30.645,52.059 -57.418,84.595 -64.774,95.498 -1.688,2.501 -2.925,5.323 -5.102,7.492 -1.546,1.541 -1.652,1.529 -3.072,-0.745 -6.478,17.006 -4.308,3.341 -9.533,33.277 -0.594,3.402 -2.741,3.687 -9.694,6.52 4.582,3.669 3.212,8.535 2.614,13.242 -0.211,1.659 -1.086,2.984 -2.843,3.312 -3.466,0.648 0.306,13.44 -3.586,17.713 -0.813,0.893 -0.289,1.771 0.058,2.661 1.103,2.827 1.965,5.528 0.96,8.769 -0.986,3.18 1.474,5.182 2.612,10.664 0.956,4.607 2.131,9.078 5.561,12.576 0.522,0.532 0.786,1.339 0.575,1.914 -1.429,3.884 2.784,5.551 2.403,14.952 -0.306,7.554 3.933,9.962 -0.017,13.277 -0.942,0.79 -1.704,1.426 0.218,2.271 2.526,1.111 1.893,3.688 1.782,5.756 -0.124,2.313 -0.572,4.627 -1.085,6.894 -0.243,1.074 -0.26,2.954 -1.788,2.714 -1.398,-0.22 -3.149,-1.331 -3.25,-2.907 -0.332,-5.162 -4.085,-9.687 1.449,-13.412 -4.241,-1.585 -4.622,-5.254 -5.164,-8.827 -0.514,-3.383 -4.394,-10.105 -3.592,-11.525 2.531,-4.482 -3.461,-5.085 -3.487,-9.891 -0.02,-3.786 -2.582,-6.524 -3.612,-9.872 -0.402,-1.307 -1.439,-2.331 -2.551,-3.219 -2.875,-2.293 -3.201,-5.827 -0.787,-8.703 0.786,-0.937 1.638,-1.788 1.63,-3.339 -3.963,0.925 -4.176,0.655 -4.146,1.591 0.23,7.114 -1.779,13.906 -3.016,20.809 -0.137,0.766 -0.421,1.566 -0.315,2.304 0.908,6.309 0.061,12.753 1.451,19.012 0.615,2.772 0.627,5.288 -1.64,7.408 -2.43,2.273 1.741,2.37 0.023,8.045 -3.871,12.782 3.805,20.181 -0.741,23.789 -0.254,0.202 -0.369,0.471 -0.258,0.89 1.438,5.458 -0.632,11.154 1.107,16.598 -3.782,8.096 4.926,20.606 -0.026,21.841 -2.191,0.546 -3.066,-0.976 -3.524,-2.849 -1.127,-4.619 -6.254,-7.576 -2.203,-11.352 0.78,-0.727 0.041,-1.197 -0.311,-1.752 -2.537,-3.994 -3.015,-8.506 -3.246,-13.074 -0.263,-5.18 -0.412,-8.187 4.751,-8.38 -5.862,-2.522 -6.456,-6.961 -6.533,-11.914 -0.055,-3.524 -0.505,-7.03 -0.06,-10.572 0.296,-2.356 -1.41,-3.903 -1.981,-3.828 -0.711,0.094 -0.5,1.016 -0.798,1.441 -2.004,2.86 -1.32,5.771 -0.681,8.876 0.732,3.556 -0.039,7.251 0.441,10.891 0.621,4.703 4.181,7.942 0.905,10.586 -0.924,0.745 -1.237,1.922 -0.111,2.904 4.775,4.167 1.845,12.854 3.06,16.401 1.608,4.696 -5.63,7.671 -6.262,2.707 -0.645,-5.069 -3.303,-13.613 -1.156,-16.681 2.775,-3.965 -5.674,-2.15 -3.153,-7.6 0.282,-0.609 -0.11,-1.175 -0.187,-1.763 -1.312,-9.97 0.287,-10.965 -2.315,-14.333 -1.6,-2.071 -0.347,-5.852 2.082,-6.941 0.627,-0.281 1.526,-0.37 1.378,-1.247 -0.154,-0.914 -1.04,-1.474 -1.845,-1.669 -0.974,-0.236 -0.974,0.812 -1.063,1.389 -0.719,4.649 -6.793,1.294 -7.773,4.102 -0.446,1.279 -1.211,1.861 -2.548,1.512 -1.634,-0.425 -1.163,-1.589 -1.163,-3.818 -2.107,2.314 -3.296,7.301 -2.262,9.52 1.253,-0.508 1.005,-2.193 2.174,-2.762 0.741,-0.361 1.571,-0.565 2.262,-0.233 3.257,1.566 -0.449,-3.606 4.104,-3.475 1.752,0.05 3.347,1.143 3.071,2.85 -0.919,5.671 2.079,10.827 1.836,16.41 -0.374,8.588 -2.83,7.093 0.601,16.315 0.841,2.261 0.326,4.429 0.229,6.62 -0.066,1.504 -1.521,1.275 -2.628,1.462 -1.921,0.325 -3.285,-0.098 -4.229,-1.974 -2.116,-4.202 -1.032,-8.418 -0.153,-12.601 1.211,-5.764 -2.185,-2.649 -2.4,-10.374 -0.097,-3.49 -0.138,-6.985 0.319,-10.489 -1.488,3.536 -2.696,7.117 -2.476,11.034 0.211,3.76 -3.619,5.23 0.426,12.793 0.92,1.72 0.392,3.788 0.214,5.628 -0.775,8.017 2.607,10.624 4.593,18.87 2.188,9.086 7.524,4.126 7.491,8.368 -0.02,2.573 -6.452,2.776 -9.539,-3.72 -1.196,-2.517 -1.487,-5.291 -2.278,-7.906 -0.937,-3.096 -2.461,-5.895 -3.468,-8.92 -1.017,-3.056 -4.941,-0.647 -6.122,-8.294 -0.256,-1.658 -0.527,-3.231 -1.582,-4.577 0,-4.514 0,-9.028 0,-13.542 2.607,-3.161 -0.75,-2.566 2.371,-11.179 1.781,-4.916 3.091,-10.026 5.18,-14.8 1.508,-3.447 2.883,-6.818 3.128,-10.578 0.527,-8.087 4.38,-10.767 8.169,-25.495 0.549,-2.134 2.068,-3.902 2.23,-6.023 0.29,-3.798 1.718,-7.213 2.969,-10.705 2.623,-7.322 2.238,-0.965 5.21,-20.026 1.008,-6.465 1.936,-12.921 4.238,-19.122 0.891,-2.402 2.414,-4.731 2.331,-7.362 -0.227,-7.268 2.165,-9.189 3.345,-18.824 0.735,-6.001 1.208,-12.065 4.131,-17.559 0.232,-0.436 0.239,-1.001 0.312,-1.511 1.186,-8.234 4.468,-11.499 5.434,-16.665 1.644,-8.792 2.266,-12.642 14.404,-51.633 3.159,-10.147 1.641,-4.584 10.564,-21.726 20.284,-38.969 31.266,-62.874 48.347,-77.507 0.938,-0.803 1.657,-1.685 2.198,-2.826 4.791,-10.095 4.447,-3.982 10.122,-19.406 16.745,-45.508 12.872,-47.71 40.831,-109.176 9.667,-21.251 5.929,-7.094 12.271,-45.301 1.414,-8.516 6.124,-15.691 9.88,-23.173 4.011,-7.99 14.587,-29.611 23.323,-35.238 19.726,-12.706 32.374,-9.965 48.691,-14.853 5.044,-1.511 3.569,-3.637 12.33,-6.837 3.097,-1.131 5.744,-3.135 8.572,-4.731 27.966,-15.776 31.633,-11.144 30.98,-17.635 -0.48,-4.775 -2.489,-9.171 -3.011,-13.905 -0.112,-1.014 -0.947,-0.99 -1.735,-1.177 -6.626,-1.575 -12.558,-0.93 -20.803,-5.925 -1.731,-1.049 -20.121,-8.921 -26.575,-14.518 -7.055,-6.118 -2.86,1.314 -18.879,-18.431 -4.089,-5.04 -8.133,-10.068 -11.694,-15.502 -1.556,-2.373 -2.36,-5.19 -5.306,-6.765 -9.12,-4.873 -20.518,-18.727 -26.069,-26.249 -10.956,-14.846 -6.703,-27.93 -7.536,-38.742 -0.359,-4.651 1.316,-22.493 3.043,-26.414 4.064,-9.226 4.688,-16.29 14.418,-29.196 6.087,-8.074 17.292,-20.916 25.793,-26.248 6.882,-4.316 28.055,-14.041 40.207,-14.653 2.595,-0.131 5.295,-0.666 7.733,-1.863 12.923,0 11.624,2.338 18.814,2.515 2.627,0.065 3.584,0.848 15.118,7.194 2.775,1.527 7.715,2.861 18.599,13.752 18.128,18.14 24.526,36.877 27.51,44.079 8.172,19.72 2.845,29.479 7.125,41.89 2.133,6.185 3.766,12.589 6.899,18.424 23.753,44.231 29.368,76.898 72.137,99.586 11.921,6.324 8.282,9.15 54.249,29.745 5.746,2.574 10.911,5.962 16.155,9.28 3.588,2.271 5.995,5.902 9.059,8.715 15.858,14.56 22.219,43.061 23.954,48.77 4.063,13.368 2.586,30.371 2.365,38.282 -2.807,100.309 -0.003,21.793 -0.454,104.046 -0.356,65.064 -4.446,27.036 1.821,74.437 0.516,3.904 -0.087,8.025 1.459,11.712 3.034,7.233 16.07,51.311 14.759,64.541 -0.125,1.259 0.181,2.593 0.46,3.854 2.913,13.166 -1.955,34.628 -1.283,75.77 0.2,12.251 1.459,24.457 1.104,36.749 -0.27,9.347 -0.578,34.725 1.761,45.671 0.464,2.169 1.157,4.462 0.564,6.681 -3.571,13.344 8.96,28.238 12.441,36.799 4.109,10.107 7.355,23.235 12.695,29.813 5.844,7.198 2.146,7.895 6.911,21.562 1.953,5.601 3.988,11.174 5.987,16.759 0,0.694 0,1.389 0,2.083 -4.917,7.065 -17.498,-0.458 -18.72,-2.649 -2.176,-3.903 -4.216,-7.921 -7.491,-11.049 -2.512,-2.399 -6.587,-8.82 -7.719,-4.739 -2.12,7.643 2.521,29.262 3.774,34.435 0.547,2.256 -1.01,3.842 -3.278,3.474 -0.592,-0.096 -1.387,-0.575 -1.64,0.064 -0.741,1.878 -2.905,2.232 -4.254,4.265 5.621,-1.085 3.67,3.803 5.219,6.259 1.174,-3.826 -1.729,-10.21 2.931,-9.783 3.503,0.32 -0.58,7.527 2.908,25.504 0.98,5.049 -1.258,9.166 -2.999,23.033 -0.166,1.326 -2.153,4.915 -4.129,3.188 -3.023,-2.641 3.285,-3.561 1.246,-6.365 -1.061,-1.459 -0.327,-2.34 0.275,-3.633 1.753,-3.763 1.406,-8.038 2.568,-11.977 0.31,-1.05 -0.192,-2.123 -1.283,-3.237 -0.275,1.684 -2.366,1.878 -1.929,3.918 0.762,3.551 -1.376,6.909 -0.989,10.501 0.07,0.649 -0.575,1.405 -0.965,2.067 -0.408,0.691 -0.987,1.295 -1.874,1.085 -1.553,-0.368 -1.061,-1.8 -2.443,-7.325 -0.873,-3.493 0.46,-7.273 -1.454,-10.629 -0.929,-1.628 -1.016,-3.44 -0.941,-5.271 0.608,-14.811 -6.132,-14.017 1.648,-17.108 0.11,-0.044 0.147,-0.269 0.263,-0.496 -1.203,-0.992 -4.758,-0.797 -5.149,-6.155 -0.225,-3.08 -1.09,-6.111 -1.34,-9.19 -0.546,-6.73 -11.916,-14.397 -1.694,-16.591 2.056,-0.441 3.6,-1.644 5.178,-2.847 3.096,-2.361 4.935,-1.508 4.369,2.353 -0.463,3.161 -0.899,6.319 -0.185,9.509 1.205,5.376 2.663,10.648 5.951,15.568 0.204,-1.466 0.257,-2.569 -0.166,-3.627 -1.88,-4.703 -2.585,-18.424 -3.916,-27.266 -0.58,-3.852 2.616,-4.675 1.621,-6.745 -1.626,-3.382 -0.709,-7.879 -4.648,-10.294 -0.716,-0.439 -0.902,-1.887 -0.137,-2.564 0.675,-0.597 1.351,0.351 1.998,0.75 1.173,0.723 2.376,1.406 3.605,2.027 6.151,3.108 3.365,6.125 6.095,9.342 3.726,4.389 7.481,8.753 11.451,13.39 -0.033,-0.667 0.078,-1.09 -0.085,-1.302 -1.578,-2.054 -2.599,-4.227 -2.057,-6.933 0.177,-0.884 -0.247,-1.897 -1.014,-2.265 -2.422,-1.161 -2.848,-3.574 -3.785,-5.653 -2.271,-5.039 -4.864,-4.435 -4.275,-8.423 0.557,-3.771 -1.704,-0.447 -7.096,-7.296 -9.7,-12.323 -9.995,-8.814 -16.177,-15.822 -0.618,-0.701 -1.438,-2.426 -2.534,-1.395 -0.735,0.692 0.247,2.241 0.849,3.266 1.088,1.852 2.962,0.333 3.198,1.819 0.402,2.527 2.252,4.51 2.673,6.945 2.695,15.583 3.378,18.926 5.72,22.725 5.357,8.688 -6.025,15.594 -12.741,11.344 -1.128,6.89 -1.142,6.877 -4.081,10.116 -0.834,0.919 -1.542,1.307 -2.9,0.756 -4.828,-1.96 -3.772,-1.184 -6.145,3.994 2.831,0.501 4.93,-0.467 7.209,-1.967 3.137,-2.065 6.987,-1.245 7.036,3.124 0.031,2.752 0.351,5.522 0.339,8.292 -0.004,0.814 0.21,1.893 0.736,2.081 0.915,0.327 1.153,-0.767 1.465,-1.455 0.967,-2.134 2.901,-1.377 2.956,0.519 0.123,4.282 5.366,41.434 5.837,45.801 0.566,5.249 5.468,11.694 2.878,12.768 -3.756,1.557 -3.062,-5.329 -6.08,-7.608 -2.06,7.877 1.928,15.92 -3.853,16.647 -1.841,0.232 -7.772,-0.469 -8.221,-1.469 -1.016,-2.263 -2.816,-4.079 -3.36,-6.654 -0.401,-1.895 -0.676,-3.939 -1.831,-5.863 -0.806,1.306 -0.448,2.412 -0.415,3.504 0.083,2.767 -1.991,4.642 -4.589,4.245 -0.498,-0.076 -1.064,-0.1 -1.526,0.06 -2.922,1.01 -4.367,-5.106 -7.132,-10.366 -1.952,-3.714 -1.041,-7.856 -2.192,-11.753 -0.773,-2.619 -1.306,-5.679 -1.349,-8.78 -1.891,3.109 -2.721,6.243 -2.784,9.673 -0.095,5.176 -2.874,6.864 -4.895,5.175 -10.04,-8.391 -6.141,-17.123 -6.109,-28.081 0.003,-1 1.487,-1.333 0.789,-5.805 -0.88,-5.641 1.412,-13.151 1.302,-21.153 -0.33,-23.992 -1.095,-1.25 2.361,-30.43 0.686,-5.79 -0.138,-8.956 0.381,-14.086 0.921,-9.094 2.312,-18.201 0.21,-27.325 -0.182,-0.789 0.262,-1.456 0.448,-2.183 2.906,-11.358 -1.809,-5.009 -2.158,-25.209 -0.146,-8.429 -5.34,-6.317 -6.803,-20.234 -1.313,-12.486 -3.048,-30.446 -13.772,-67.12 -1.85,-6.328 -21.364,-100.773 -20.833,-107.661 0.795,-10.334 -0.002,-1.803 0.036,-12.876 0.027,-7.866 4.959,-26.217 3.246,-34.187 -3.75,-17.445 -1.714,-24.451 -1.888,-25.992 -2.52,-22.338 -6.274,-24.412 -8.335,-35.271 -1.326,-6.985 -4.035,-13.684 -5.325,-20.751 -0.491,-2.693 -0.64,-5.43 -1.293,-8.114 -0.825,-3.395 -1.837,-6.746 -2.309,-10.252 -0.135,-1 -0.868,-12.2 -2.884,-8.204 -7.293,14.451 2.891,-4.857 -7.442,58.315 -1.428,8.73 -6.694,31.466 -8.43,36.733 -2.398,7.273 4.748,26.819 5.67,30.834 3.482,15.156 3.578,30.333 8.042,44.549 2.661,8.474 7.374,16.238 8.754,25.134 0.719,4.636 2.773,8.898 3.506,13.517 0.499,3.15 0.995,6.305 1.655,9.424 0.442,2.089 1.473,3.975 1.862,6.157 1.176,6.604 3.289,29.603 3.311,30.62 0.576,26.554 10.783,53.675 0.371,121.25 -19.615,127.312 -40.85,166.025 -48.492,192.903 -1.224,4.305 -3.041,8.338 -4.696,12.468 -11.304,28.203 -9.527,32.086 -9.288,47.424 0.935,59.81 -2.163,58.482 2.149,64.84 0.343,0.505 0.328,1.357 0.253,2.022 -0.484,4.294 0.684,3.168 3.989,19.749 4.356,21.853 13.048,59.094 6.922,105.703 -7.13,54.257 -5.495,52.001 -9.088,65.355 -1.453,5.401 -1.428,11.016 -3.287,16.409 -11.65,33.783 -11.118,53.786 -13.124,62.274 -0.534,2.26 -0.989,4.644 -0.856,6.935 0.696,12.028 -12.081,55.57 -2.143,73.274 3.293,5.867 7.437,11.381 9.547,17.789 1.818,5.521 4.583,9.664 9.757,12.57 3.942,2.214 7.177,5.658 11.038,8.054 2.825,1.753 5.397,3.501 6.445,6.742 3.15,9.741 3.991,12.769 1.169,15.631 -5.268,5.341 1.557,5.38 -2.987,10.805 -3.461,4.133 -13.411,17.482 -25.087,14.808 -1.576,-0.361 -10.309,-2.598 -12.405,-5.352 -0.516,-0.678 -1.506,-1.503 -2.681,-1.273 -6.224,1.216 -11.538,-1.565 -16.01,-4.98 -14.336,-10.948 -8.882,-17.59 -19.491,-21.05 -4.697,-1.532 -2.336,0.532 -2.213,4.839 0.561,19.537 -22.416,22.86 -29.191,32.056 -5.579,7.574 -12.457,13.371 -21.342,16.655 -0.868,0 -1.736,0 -2.604,0 z m 58.699,-97.465 c 3.64,-1.806 7.815,-1.961 11.478,-3.783 -3.494,-0.151 -6.824,0.546 -10.015,1.903 -0.776,0.33 -2.002,0.491 -1.469,1.889 -0.883,-1.037 -2.068,-1.122 -3.311,-1.091 -0.875,0.022 -1.588,0.126 -1.365,1.292 0.351,1.848 1.368,1.07 4.682,-0.21 z M 339.712,513.302 c 2.732,-0.289 3.491,-4.379 9.796,-4.578 4.934,-0.156 1.914,-4.303 7.502,-5.877 1.74,-0.49 3.648,-0.751 5.078,-2.15 -1.634,-2.289 -6.266,-1.457 -5.196,-3.835 1.282,-2.85 1.001,-6.083 2.382,-8.952 1.885,-3.917 8.796,-9.269 14.329,-7.074 1.422,0.564 3.085,1.211 4.784,0.49 -3.115,-2.403 -6.312,-3.749 -10.176,-2.586 -0.869,0.261 -1.99,-0.055 -2.414,-1.106 -0.918,-2.274 1.765,-5.446 3.668,-4.486 1.226,0.619 2.319,0.161 3.516,-0.01 1.844,-0.264 1.424,-1.064 0.66,-2.005 -4.196,-5.159 -4.672,-6.132 -5.672,-5.223 -8.766,7.969 -3.592,8.048 -9.805,15.755 -5.184,6.43 -15.804,15.428 -18.448,31.639 -3.938,8.123 -8.644,17.427 -4.384,16.407 4.978,-1.193 10.312,-0.239 15.129,-2.562 0.949,-0.458 2.135,-0.72 3.29,-0.283 1.527,0.578 1.721,-0.928 0.963,-1.74 -0.351,-0.376 -0.99,-0.604 -1.141,-1.026 -0.615,-1.723 -3.257,-2.268 -2.673,-4.654 1.195,-4.882 0.872,-4.09 -5.195,-3.55 -2.461,0.22 -4.914,0.39 -5.993,-2.594 z m 18.033,31.803 c -4.715,-1.14 -9.2,-1.989 -9.552,-7.121 -0.411,-6.002 -14.307,-0.142 -19.328,2.647 -4.212,2.339 -5.964,10.125 -18.832,14.627 -5.355,1.873 -3.894,-3.488 -6.527,-2.076 -2.772,1.488 1.179,8.023 6.393,9.711 6.409,2.074 -1.572,9.262 -5.869,5.381 -3.371,-3.044 -8.868,-3.085 -11.38,-11.362 -5.159,-16.997 -16.354,-11.271 -13.008,-59.15 0.295,-4.221 1.89,-8.835 -3.257,-11.548 -0.263,-0.139 -0.363,-0.576 -0.553,-0.866 -3.035,-4.619 -6.044,-5.015 -4.975,1.664 1.286,8.037 0.596,16.193 1.789,24.266 1.045,7.072 1.682,14.222 2.631,21.324 0.597,4.47 3.887,8.749 0.72,13.562 -0.624,0.948 -0.71,2.291 -1.786,3.201 -5.139,4.345 -1.841,3.738 -16.916,23.324 -10.973,14.257 -15.131,17.794 -31.552,50.477 -11.028,21.95 -14.662,26.604 -14.412,38.991 0.079,3.924 1.869,8.083 -0.944,11.844 -1.257,1.681 -18.41,42.795 -19.906,54.02 -3.586,26.907 0.132,32.465 -0.18,47.821 -0.479,23.582 0.257,34.262 0.52,36.536 0.544,4.699 1.79,9.345 1.268,14.14 -3.928,36.041 35.521,151.441 37.804,165.759 1.131,7.095 11.561,30.015 12.078,31.315 10.032,25.24 15.478,42.703 18.458,54.453 0.984,3.878 0.421,8.149 1.822,11.77 3.519,9.099 3.238,18.692 4.01,28.048 3.187,38.631 9.322,33.165 6.688,54.913 -0.992,8.187 -2.576,16.267 -2.743,24.593 -0.194,9.671 2.071,19.234 0.786,28.934 -0.768,5.802 0.8,19.895 0.243,36.822 -1.429,43.426 22.201,114.218 39.472,154.275 1.197,2.777 0.627,5.603 1.337,8.299 1.269,4.819 2.046,9.76 3.958,14.424 2.645,6.453 2.151,13.564 4.02,20.23 0,0 4.325,18.419 14.037,52.961 0.642,2.282 -1.033,3.218 -0.729,5.754 0.818,6.844 -4.152,12.354 -8.905,23.914 -6.074,14.774 -11.844,32.741 -19.259,36.376 -9.849,4.828 -7.476,11.869 -7.928,19.77 -0.059,1.039 0.217,1.906 0.935,2.589 0.448,0.427 0.617,1.454 1.534,1.064 2.049,-0.873 -1.39,-5.191 0.391,-6.75 2.775,-2.431 1.455,-7.205 5.399,-8.787 0.517,-0.208 0.196,-0.937 0.145,-1.446 -0.263,-2.637 1.229,-4.89 3.074,-5.918 5.097,-2.839 9.296,-7.27 15.258,-8.633 1.258,-0.288 2.688,-1.489 1.593,-3.102 -0.963,-1.419 -0.615,-2.353 0.313,-3.444 4.139,-4.872 7.113,-19.03 14.276,-24.492 0.483,-0.369 1.217,-1.009 0.688,-1.441 -2.307,-1.881 -1.23,-4.536 -1.748,-6.806 -1.362,-5.976 2.508,-10.755 7.399,-12.634 1.742,-0.669 3.549,-1.233 4.904,-2.712 -1.051,-1.142 -2.088,-0.821 -3.092,-0.234 -1.043,0.61 -2.18,1.149 -3.037,1.969 -2.262,2.166 -3.754,-0.266 -5.556,-0.788 -1.404,-0.407 -1.729,-1.506 -1.782,-2.832 -0.113,-2.855 -0.14,-5.657 0.4,-8.524 0.256,-1.359 2.189,-4.643 -2.135,-4.222 -0.424,0.041 -0.968,-0.887 -1.417,-1.4 -2.869,-3.278 -1.958,-6.368 -6.214,-25.372 -2.645,-11.808 -12.001,-44.646 -12.001,-44.646 0.634,-5.723 -1.827,-10.873 -3.149,-16.175 -2.068,-8.289 -3.949,-27.245 -6.373,-31.094 -4.54,-7.206 -20.198,-131.028 -20.312,-132.045 -4.625,-41.272 -1.384,-44.877 -5.956,-51.774 -1.821,-2.747 -4.001,-5.438 -4.041,-9.633 -0.061,-6.402 4.46,-20.12 6.357,-14.428 2.184,6.555 8.081,2.864 12.794,11.504 1.128,2.067 2.431,4.038 3.695,6.116 0.432,-0.744 0.175,-1.346 0.011,-2 -1.408,-5.628 -6.139,-8.625 -9.798,-12.474 -3.739,-3.934 -6.128,-0.77 -4.119,-18.458 0.037,-0.324 0.302,-0.616 0.435,-0.935 1.608,-3.843 5.304,-3.945 8.536,-4.373 2.774,-0.367 6.108,-1.442 7.86,2.343 0.732,1.582 3.167,1.393 3.7,3.389 0.702,2.627 3.155,2.991 3.377,1.698 0.235,-1.376 -1.294,-3.288 -2.116,-3.625 -3.406,-1.394 -3.194,-3.972 -5.195,-9.852 -1.177,-3.456 -4.586,-5.695 -4.987,-9.544 -0.227,-2.188 -2.995,-3.791 -3.668,2.654 -0.249,2.385 -0.832,2.887 -2.882,1.744 -2.079,-1.159 -4.374,-1.582 -6.525,-2.455 -5.006,-2.031 -1.251,-1.406 -8.895,-10.058 -1.416,-1.602 -0.729,-3.738 -2.522,-7.004 -3.982,-7.256 3.015,-9.113 3.616,-15.147 1.623,-16.311 4.167,-24.132 0.691,-39.396 -6.968,-30.601 -24.619,-132.935 -33.149,-160.839 -2.122,-6.942 -9.919,-72.722 -32.592,-86.728 -12.131,-7.494 -8.311,-10.94 -11.053,-14.531 -8.879,-11.627 7.434,-23.186 5.861,-30.86 -0.72,-3.512 -0.584,-7.073 -0.525,-10.625 0.08,-4.791 2.621,-7.962 7.226,-9.068 0.413,-0.099 1.01,-0.066 1.209,-0.33 2.32,-3.075 6.081,-3.449 9.226,-4.938 8.272,-3.917 7.042,10.851 11.463,9.651 2.827,-0.767 5.672,-1.544 7.366,-4.356 4.432,-7.358 4.443,-11.62 8.999,-13.55 4.201,-1.779 2.021,-1.543 0.149,-6.044 -1.357,-3.263 -1.602,-6.252 1.655,-8.738 1.121,-0.856 1.809,-2.272 2.727,-3.407 0.496,-0.613 0.817,-1.308 0.013,-1.762 -4.454,-2.514 -6.951,-12.658 -9.119,-14.899 -1.477,-1.528 -2.829,-3.31 -3.342,-5.199 -3.234,-11.906 -18.825,-14.265 -21.271,-21.798 -7.161,-22.059 -5.939,-22.255 -4.206,-34.315 0.7,-4.873 3.684,-8.87 5.699,-13.16 2.683,-5.712 5.284,-11.593 9.189,-16.713 1.274,-1.67 1.663,-3.85 3.106,-5.6 1.738,-2.107 4.298,-2.484 6.247,-3.994 7.593,-5.882 14.367,-4.03 33.648,0.534 51.237,12.128 40.015,40.343 49.208,45.057 2.278,1.168 5.018,1.536 6.751,3.732 0.521,0.66 1.191,1.547 2.135,1.177 1.973,-0.774 -1.23,-4.881 1.992,-7.728 8.958,-7.914 -2.295,-7.104 -7.646,-16.018 -1.079,-1.797 -1.079,-3.876 0.154,-5.397 1.118,-1.38 2.89,-0.828 4.568,-0.311 15.997,4.923 13.549,3.646 15.308,2.923 7.87,-3.236 3.29,-2.165 20.508,-1.432 11.142,0.475 10.664,9.1 17.958,5.314 6.77,-3.514 10.133,-0.64 10.674,1.629 1.176,4.928 -3.654,5.793 -10.495,7.847 -4.129,1.239 -0.834,3.932 -1.683,10.196 -0.293,2.16 1.477,4.455 -0.432,6.44 -2.8,2.911 1.76,3.079 8.81,-3.287 10.57,-9.546 12.334,-16.992 17.666,-20.194 7.024,-4.218 7.319,-9.015 20.746,-9.83 20.456,-1.241 18.993,-4.956 28.016,-5.317 4.652,-0.186 9.014,0.447 12.192,3.068 5.322,4.39 9.832,9.97 11.81,16.728 3.159,10.791 9.367,22.252 9.284,29.784 -0.129,11.752 2.782,21.258 -4.038,30.372 -2.988,3.994 -6.211,7.536 -11.407,8.206 -2.673,0.345 -5.635,0.513 -7.955,-1.038 -2.295,-1.534 -6.059,-1.326 -7.689,0.981 -1.828,2.587 -3.511,5.325 -5.665,7.615 -1.321,1.404 -1.811,2.494 -0.737,4.012 4.388,6.2 1.217,12.345 -0.393,18.331 -0.682,2.536 -2.175,5.357 -5.596,5.914 -3.847,0.626 1.752,3.797 4.007,4.441 10.326,2.949 11.841,8.211 18.331,-0.515 2.653,-3.567 4.827,-3.831 8.67,-1.489 5.892,3.591 4.862,6.176 10.404,7.903 8.18,2.55 1.026,15.916 4.577,23.799 3.51,7.792 3.112,15.978 2.311,24.158 -0.731,7.462 -12.596,14.964 -15.209,21.002 -10.199,23.572 -27.35,91.983 -29.851,98.847 -2.812,7.717 -21.81,114.908 -21.111,126.389 0.395,6.491 0.408,12.973 -0.77,19.39 -1.137,6.194 0.309,12.223 0.971,18.302 0.418,3.838 0.67,7.741 3.169,11.004 1.154,1.508 2.283,12.98 -2.087,20.067 -2.043,3.313 -2.129,7.404 -6.56,9.927 -4.678,2.665 -8.577,3.34 -13.332,1.639 -3.74,-1.338 -7.669,1.334 -7.835,5.229 -0.047,1.103 -1.538,6.579 3.35,4.12 2.93,-1.474 6.229,-1.339 9.122,-2.751 5.399,-2.634 10.241,9.33 7.032,15.402 -5.131,9.708 -4.823,22.565 -6.561,29.106 -1.185,4.458 -1.77,9.057 -0.577,13.575 2.832,10.723 -1.517,102.898 -2.103,105.983 -0.273,1.437 -0.678,2.931 -0.539,4.352 1.746,17.86 -15.82,153.788 -13.138,179.737 0.204,1.973 2.216,2.185 2.197,0.194 -0.068,-6.867 2.546,-13.021 3.853,-28.695 0.546,-6.544 2.577,-12.853 2.826,-19.415 1.016,-26.824 13.65,-69.294 13.09,-243.471 -0.033,-10.394 -4.385,-3.183 -2.506,-14.931 0.552,-3.451 2.27,-6.642 1.982,-10.307 -0.878,-11.167 7.522,-18.984 8.966,-11.779 2.236,11.16 9.366,17.201 8.526,25.203 -1.068,10.171 -2.581,9.102 -1.534,23.165 0.451,6.051 -0.971,12.061 -0.292,18.13 0.997,8.914 -0.032,28.094 -0.642,40.359 -0.249,5.002 0.477,10.085 -0.099,15.031 0,10e-4 -7.223,104.069 -7.223,104.07 -1.006,33.877 -16.993,108.004 -15.129,123.667 0.327,2.749 -0.468,4.761 -2.912,6.06 -0.471,0.25 -1.056,0.441 -1.016,1.021 0.051,0.745 0.694,1.449 1.283,1.477 8.797,0.409 17.371,38.368 39.039,43.05 3.468,0.749 5.626,4.036 9.344,3.824 1.185,-0.068 2.651,4.633 4.074,4.17 1.577,-0.513 0.116,-2.217 0.275,-3.42 0.201,-1.525 0.152,-2.923 -1.737,-4.07 -6.984,-4.24 -13.101,-9.75 -20.028,-14.106 -2.518,-1.583 -17.18,-32.265 -17.71,-33.511 -5.355,-12.607 0.149,-18.083 -0.26,-26.208 -0.321,-6.363 7.512,-52.349 9.274,-66.89 5.159,-42.573 16.191,-47.211 22.126,-121.506 0.201,-2.511 1.246,-4.893 1.076,-7.437 -0.405,-6.064 0.642,-12.075 0.657,-18.129 0.004,-1.608 -0.748,-3.159 -0.089,-4.846 1.734,-4.442 -1.528,-10.324 -1.031,-13.793 0.766,-5.342 0.23,-10.388 -1.097,-15.561 -0.666,-2.597 -2.735,-26.168 -2.903,-27.656 -0.58,-5.125 -5.103,-29.581 -6.904,-37.742 -8.954,-40.573 0.673,-28.399 -3.664,-66.437 -0.427,-3.749 -0.355,-24.242 4.672,-35.835 2.492,-5.748 2.538,-12.356 4.782,-18.318 1.489,-3.955 2.537,-8.063 3.346,-12.204 0.352,-1.8 2.087,-2.796 2.25,-4.571 0.007,-0.079 20.581,-62.164 20.607,-62.225 3.945,-9.562 7.809,-26.947 8.517,-29.629 19.507,-73.912 12.296,-55.246 19.384,-90.578 4.066,-20.268 -0.596,-8.397 3.924,-32.195 1.583,-8.334 0.094,-16.823 1.536,-25.196 0.873,-5.069 0.062,-10.298 -0.487,-15.419 -0.834,-7.772 -0.285,-14.853 -2.519,-27.962 -0.808,-4.743 -0.918,-9.615 -1.198,-14.447 -0.438,-7.558 -2.054,-15.004 -2.725,-22.559 -0.458,-5.151 2.061,2.468 -2.212,-17.4 -1.495,-6.952 -3.836,-13.716 -4.676,-20.819 -1.17,-9.883 -5.131,-18.927 -8.617,-28.088 -7.232,-19.006 -3.685,-19.64 -6.773,-33.392 -1.251,-5.57 -1.16,-11.395 -3.204,-16.85 -3.076,-8.211 -5.663,-16.543 -5.052,-25.498 0.068,-1 -1.057,-5.431 -0.622,-8.422 0.761,-5.245 3.258,-10.029 4.6,-15.18 4.357,-16.715 11.452,-64.787 8.7,-65.863 -1.225,-0.479 -2.253,3.159 -4.141,5.264 -3.088,3.443 0.88,13.617 -5.034,22.393 -0.659,0.978 -1.761,1.34 -2.283,2.372 -1.333,2.633 -3.12,5.021 -5.611,6.531 -5.502,3.334 -0.689,9.597 -10.57,19.516 -7.277,7.305 -5.299,12.547 -10.437,20.192 -2.217,3.299 -4.323,6.463 -7.896,8.255 -5.797,2.906 -13.856,3.377 -14.088,-1.931 -0.14,-3.193 4.617,-2.495 9.025,-6.622 1.477,-1.382 1.823,-5.662 0.359,-6.663 -2.757,-1.885 -5.511,-4.172 -8.618,-5.051 -4.037,-1.143 -6.924,-3.553 -9.476,-6.413 -5.754,-6.446 -1.407,-12.681 -8.908,-24.598 -3.942,-6.263 -3.213,-8.862 -8.92,-20.947 -13.01,-27.546 -4.219,-39.142 -20.64,-23.116 -0.783,0.764 -1.219,1.817 0.085,2.251 1.465,0.488 3.214,1.177 4.398,-0.723 0.898,-1.44 1.534,-0.962 2.211,0.237 1.691,2.995 1.496,3.979 -1.653,6.656 4.221,2.455 6.511,6.009 6.473,10.965 -0.031,4.034 4.755,6.32 -1.216,9.689 -0.564,0.318 -1.428,0.366 -1.516,1.228 -0.108,1.049 3.263,4.992 4.287,5.508 4.221,2.124 9.209,3.368 10.457,9.022 0.346,1.569 0.302,2.942 -0.76,4.128 -1.637,1.829 -3.835,0.059 -6.887,-1.239 -3.055,-1.3 -8.292,-1.844 -8.779,0.738 -0.851,4.514 -3.591,6.237 -8.148,5.222 -0.718,-0.16 -1.408,-0.644 -2.341,0.658 3.632,0.5 6.417,3.594 10.26,1.518 3.262,-1.762 29.287,6.217 26.3,13.196 -1.283,2.998 -4.946,0.231 -20.042,-5.388 -10.439,-3.885 -4.763,3.264 -18.747,8.581 -1.837,0.698 -1.388,1.965 -7.918,2.194 -2.192,0.077 -4.211,-0.529 -6.375,-0.585 1.623,2.103 3.93,3.451 6.219,2.715 3.582,-1.15 7.328,-0.835 10.883,-1.943 3.374,-1.052 5.27,0.45 5.438,3.884 0.24,4.892 1.276,5.834 5.522,4.717 6.135,-1.614 7.067,4.563 5.554,7.769 -2.068,4.382 -7.092,-1.485 -10.198,3.857 -2.784,4.788 -7.394,6.958 -12.74,6.234 -5.017,-0.679 -10.185,-0.035 -15.074,-1.738 -2.121,-0.738 -4.514,3.147 -8.858,-3.589 -1.718,-2.664 -0.159,-5.063 -3.249,-5.456 -1.18,-0.15 -11.081,2.196 -9.413,-7.033 1.026,-5.676 9.845,1.163 11.591,-4.109 1.272,-3.843 4.51,-4.179 7.581,-4.917 1.24,-0.301 2.521,-0.38 3.653,-1.852 z m 22.605,914.63 c 1.9,-0.654 1.051,-8.452 1.586,-12.887 1.391,-11.528 2.177,-23.14 1.752,-34.787 -0.031,-0.856 -0.035,-1.786 0.253,-2.571 2.176,-5.934 0.842,-12.012 0.675,-18.013 -3.236,-116.256 7.322,7.836 -9.307,-204.815 -0.919,-11.747 -6.058,-12.779 -6.78,-17.249 -3.093,-19.15 -3.218,-24.668 -3.355,-27.898 -0.22,-5.174 2.675,-7.013 6.814,-4.496 3.975,2.418 10.589,-0.828 9.22,6.204 -1.32,6.783 5.265,7.53 8.249,10.685 3.011,3.185 8.722,3.29 11.539,-0.06 1.826,-2.172 3.354,-4.604 4.896,-6.998 0.383,-0.595 1.271,-1.611 0.108,-2.214 -1.129,-0.586 -1.493,0.609 -1.79,1.336 -4.329,10.624 -17.779,7.871 -20.547,1.711 -3.21,-7.145 1.96,-11.311 0.713,-16.365 -0.155,-0.627 0.128,-1.466 -0.899,-1.599 -0.833,-0.108 -1.294,0.372 -1.627,1.027 -1.675,3.296 -7.712,2.186 -9.454,1.501 -4.973,-1.957 -5.24,-1.417 -7.931,-10.61 -1.7,-5.806 -3.093,-11.653 -3.366,-17.781 -0.127,-2.848 0.587,-4.886 2.94,-5.978 4.451,-2.065 7.36,-6.325 11.963,-8.112 0.279,-0.109 0.545,-0.472 0.652,-0.775 3.981,-11.266 6.528,-5.648 17.133,-41.192 1.774,-5.946 3.394,-12.092 4.281,-18.33 0.625,-4.399 2.944,-8.415 3.67,-12.648 1.188,-6.927 3.302,-13.539 5.322,-20.183 3.224,-10.607 29.988,-142.014 30.298,-157.877 0.603,-30.902 -10.498,-30.594 -1.495,-37.43 2.03,-1.541 3.751,-3.324 5.229,-5.372 1.801,-2.494 -0.311,-11.103 -4.082,-11.147 -1.942,-0.023 -3.7,-0.775 -5.485,-1.395 -0.561,-0.195 -0.924,-0.608 -1.536,0.094 -5.983,6.864 8.077,5.428 -13.921,20.948 -5.425,3.828 -7.047,10.79 -12.23,14.955 -3.157,2.538 -6.49,4.734 -10.358,5.211 -3.404,0.419 -15.449,3.833 -21.867,-0.181 -8.297,-5.189 0.348,-7.353 -6.547,-15.562 -9.65,-11.489 -7.759,-16.383 -11.829,-13.213 -18.07,14.078 -17.858,12.602 -17.591,15.783 2.038,24.21 -4.342,45.813 -1.531,99.989 3.913,75.423 24.901,124.175 16.836,166.997 -0.188,1 -7.116,41.488 -5.363,54.769 0.187,1.417 10.183,44.118 12.496,46.951 9.219,11.295 -3.497,56.756 -0.525,94.606 0.995,12.666 12.252,83.572 14.955,93.098 2.568,9.049 -0.491,18.34 1.579,24.893 0,0 -1.612,3.618 5.035,61.618 0.205,1.798 0.798,3.548 1.222,5.362 z m -56.979,-303.982 c 2.075,-1.423 2.075,-1.423 3.417,-4.578 1.313,-3.085 3.681,-3.639 6.077,-1.425 3.528,3.257 7.675,5.794 6.147,13.462 -5.758,28.889 1.216,72.815 1.535,90.059 0.019,1.001 1.925,45.528 2.919,53.772 3.765,31.224 1.479,-3.292 10.309,82.163 2.072,20.052 4.488,30.878 11.727,71.233 1.702,9.489 0.678,12.739 3.981,24.491 1.144,4.073 3.083,7.963 3.152,12.273 0.063,3.938 1.491,7.425 3.006,10.92 2.793,6.443 -2.308,13.71 -5.644,11.23 -3.733,-2.777 -5.129,-5.105 -13.091,-5.027 -1.961,0.019 -2.137,2.112 -0.071,1.816 4.346,-0.624 7.52,1.66 10.84,3.979 3.075,2.148 4.241,4.784 3.667,8.385 -0.85,5.333 2.16,9.545 -3.646,10.097 -0.802,0.076 -1.662,-0.381 -2.544,0.177 0.66,1.587 5.995,3.696 7.005,8.472 0.73,3.451 1.599,6.82 2.724,10.147 0.951,2.812 -2.051,5.262 -3.919,4.463 -2.714,-1.162 -5.556,-2.048 -7.178,-5.043 -3.505,-6.47 -11.148,-4.049 -11.111,-3.048 0.125,3.409 5.702,-1.286 4.577,5.394 2.938,-0.871 5.268,-0.592 7.082,1.058 4.072,3.703 12.481,4.653 11.676,12.86 -0.307,3.131 5.967,4.679 -0.749,12.552 -2.066,2.421 -3.432,2.407 -5.243,-0.204 -0.984,-1.418 -1.592,-1.755 -4.964,5.862 -2.684,6.063 -6.53,1.192 -7.783,2.167 2.598,3.767 3.984,4.694 0.244,8.476 -7.768,7.853 -16.508,2.557 -15.145,-0.922 1.465,-3.743 3.727,-6.802 7.356,-8.663 0.892,-0.458 1.08,-0.96 0.86,-1.844 -0.472,-1.888 1.442,-5.353 1.688,-9.863 0.202,-3.703 2.672,-5.277 5.308,-6.978 1.051,-0.678 2.98,0.62 3.048,-0.691 0.084,-1.636 -2.157,-1.265 -3.297,-1.924 -5.559,-3.21 -3.146,4.245 -6.631,7.71 -4.347,4.322 -6.073,10.679 -11.162,14.442 -1,0.74 -1.714,7.073 -7.29,10.253 -0.672,0.383 -1.343,0.815 -1.171,1.81 0.516,2.983 -1.633,5.2 -2.348,7.838 -0.544,2.005 -4.867,2.432 -5.006,0.101 -0.153,-2.562 -0.075,-8.283 2.418,-8.628 2.503,-0.346 2.039,-0.465 1.417,-2.566 -1.06,-3.579 1.319,-7.373 4.886,-9.371 4.033,-2.258 -2.419,-4.388 2.523,-8.096 2.705,-2.029 4.248,-6.025 3.487,-8.689 -3.482,1.587 -2.753,9.569 -9.652,12.878 -0.794,0.381 -1.311,1.026 -1.424,2.019 -0.408,3.605 -2.37,6.455 -4.674,9.087 -2.827,3.229 0.522,3.067 -2.193,9.543 -0.75,1.789 -3.381,1.384 -3.857,-0.165 -0.278,-0.905 -0.301,-1.91 -0.687,-2.757 -0.653,-1.434 0.491,-3.227 -1.034,-4.651 -0.539,1.973 -1.396,3.665 -1.534,5.594 -0.091,1.277 -1.235,1.704 -2.19,1.919 -0.986,0.223 -1.119,-0.851 -1.391,-1.547 -0.655,-1.673 -1.925,-3.083 -2.065,-4.981 -0.066,-0.89 -0.824,-0.958 -1.331,-0.618 -1.184,0.796 -2.793,0.259 -3.859,1.368 -0.462,0.481 -1.813,-0.107 -1.602,1.179 0.09,0.548 0.462,1.19 0.907,1.51 0.863,0.619 1.438,-0.185 1.914,-0.743 1.283,-1.502 2.396,-0.315 2.307,0.87 -0.165,2.213 -1.206,4.843 1.664,4.583 2.507,-0.228 3.339,0.896 3.638,3.197 0.29,2.23 4.263,3.723 5.77,2.091 3.616,-3.915 1.602,6.065 8.73,2.955 3.007,-1.312 1.687,-5.013 4.299,-4.571 1.055,0.179 0.885,1.268 1.12,2.094 1.986,6.979 7.645,3.468 9.653,3.795 3.547,0.577 6.096,-0.976 8.107,-3.483 3.495,-4.356 4.807,-3.307 7.023,-6.785 3.277,-5.141 7.114,-9.762 12.399,-12.991 0.495,-0.302 0.761,-0.756 0.786,-1.277 0.239,-4.958 6.117,0.953 11.279,-5.56 6.304,-7.954 7.246,-8.699 6.709,-11.257 -2.003,-9.542 -2.816,-10.575 -2.336,-16.809 0.312,-4.053 1.637,-8.086 1.225,-12.076 -0.7,-6.774 0.283,-13.426 0.625,-20.12 0.088,-1.732 1.678,-3.44 1.606,-5.117 -0.22,-5.072 -1.05,-10.108 -2.718,-14.939 -6.762,-19.58 0.897,-0.308 -7.311,-35.411 -0.549,-2.349 0.218,-4.758 -0.561,-6.946 -5.318,-14.949 -8.604,-86.285 -10.194,-93.87 -3.334,-15.905 -3.06,-32.721 -4.638,-39.849 -1.098,-4.958 -2.639,-9.869 -2.114,-15.08 0.099,-0.985 -0.222,-2.081 -0.591,-3.033 -1.55,-4.004 -4.392,-25.775 -4.493,-26.777 -1.423,-14.099 -4.254,-17.637 -1.208,-47.316 0.104,-1.009 2.843,-38.283 3.534,-41.904 1.785,-9.35 -1.548,-5.227 -5.477,-20.513 -6.383,-24.834 -7.089,-22.545 -9.547,-39.874 -0.558,-3.935 -2.356,-21.886 -0.607,-27.028 2.433,-7.156 1.347,-11.432 2.36,-15.075 1.738,-6.251 2.465,-23.206 3.479,-27.943 3.866,-18.058 -2.897,-51.268 -6.812,-69.18 -1.615,-7.386 -3.314,-27.227 -6.009,-42.993 -1.734,-10.144 -3.585,-20.285 -3.785,-30.59 -0.17,-8.736 -2.128,-17.335 -1.802,-26.07 0.113,-3.024 -1.13,-5.979 -0.318,-8.959 0.938,-3.436 2.473,-76.419 2.499,-77.421 0.032,-1.25 -0.053,-2.638 -0.858,-3.441 -2.737,-2.732 -5.391,-5.725 -8.63,-7.718 -7.428,-4.571 -7.04,-6.752 -8.515,-5.39 -2.909,2.687 -7.397,4.535 -8.428,8.183 -1.528,5.407 -5.459,7.137 -9.513,9.604 -11.883,7.232 -15.645,-4.47 -31.736,-5.244 -4.004,-0.193 -4.292,-7.684 -3.871,-9.865 0.774,-4.003 0.632,-14.768 -2.94,-12.872 -7.757,4.117 -2.042,15.453 1.622,23.973 1.35,3.139 4.477,2.468 4.238,6.402 -0.427,7.043 -1.702,12.289 -0.717,20.655 5.696,48.397 58.386,248.106 71.811,260.558 4.721,14.726 5.117,13.14 -0.354,26.43 -1.621,3.937 -2.281,7.329 -7.393,6.797 -3.347,-0.348 0.555,-4.742 -3.598,-6.254 0.095,1.315 -0.115,2.541 0.661,3.432 2.497,2.865 0.111,4.929 0.619,11.892 0.496,6.766 -2.964,1.535 -1.1,14.353 z m 84.731,-455.241 c -3.435,-1.983 -2.26,0.276 -8.919,-3.292 -4.211,-2.256 -4.582,1.979 -10.432,5.831 -5.944,3.914 -4.137,8.829 -5.936,15.584 -1.647,6.184 -5.88,5.349 -10.512,5.109 -5.093,-0.263 -8.596,-0.901 -8.302,1.497 0.229,1.87 2.154,0.676 4.296,0.819 3.563,0.238 4.887,2.109 4.5,6.287 -0.285,3.078 -2.499,4.89 -5.474,4.481 -7.035,-0.969 -4.855,0.672 -12.658,11.578 -2.664,3.724 -8.668,-2.978 -9.435,-8.787 -0.552,-4.182 -3.577,-2.688 -8.169,-6.779 -1.518,-1.353 -1.869,-5.56 -0.464,-7.702 2.319,-3.535 6.525,2.162 7.772,-0.927 0.619,-1.535 0.279,-3.226 -1.374,-3.666 -1.633,-0.435 -3.399,-1.471 -5.23,-0.267 -0.535,0.352 -1.335,0.591 -1.954,0.037 -3.285,-2.941 -9.292,-3.635 -8.358,-10.085 0,0 -1.964,-6.351 -2.598,-9.995 -0.8,-4.601 -3.953,-6.109 -8.198,-4.036 -4.205,2.054 -6.577,5.497 -11.223,3.838 -19.781,-7.061 -11.687,32.956 5.919,41.894 5.652,2.869 24.725,9.998 32.581,11.408 5.355,0.961 10.801,0.874 16.143,1.85 6.539,1.194 12.498,-2 18.787,-2.822 6.605,-0.864 20.004,-7.682 30.736,-21.612 10.66,-13.842 6.47,-25.644 -1.498,-30.243 z m -108.251,493.93 c -5.055,6.782 8.628,139.5 26.478,217.113 9.458,41.122 11.661,48.423 10.458,59.901 -0.435,4.154 2.298,2.87 0.917,7.977 -0.695,2.571 -1.469,5.12 -2.177,7.687 -0.614,2.228 0.868,6.802 2.702,8.111 1.151,-7.949 0.094,-7.946 0.339,-13.085 0.146,-3.049 1.018,-5.897 1.221,-8.867 0.678,-9.936 -3.373,-41.582 -3.724,-48.016 -0.476,-8.732 -2.515,-17.373 -3.756,-26.07 -0.595,-4.171 -2.035,-8.187 -1.945,-12.496 0.061,-2.905 0.085,-5.973 -0.753,-8.698 -1.545,-5.027 -2.204,-10.238 -3.674,-15.254 -1.122,-3.827 0.018,-7.891 -1.479,-11.661 -0.469,-1.181 -1.114,-2.287 -1.207,-3.659 -1.062,-15.748 -3.506,-22.68 -7.249,-47.264 -12.129,-79.68 -9.083,-88.603 -16.151,-105.719 z m 66.407,-823.708 c 1.251,-1.044 0.486,-2.945 -0.016,-4.416 -0.55,-1.61 -1.787,-0.734 -2.824,-0.747 -3.314,-0.04 -6.694,-0.939 -9.836,0.937 -0.243,0.145 -0.697,0.048 -1.013,-0.058 -4.416,-1.485 -16.674,-0.494 -24.798,-4.571 -12.567,-6.307 -12.851,-17.163 -19.123,-3.898 -5.71,12.079 19.554,25.43 32.941,23.211 7.023,-1.163 9.134,2.513 24.669,-10.458 z m 179.548,245.384 c -0.13,2.049 0.491,3.578 0.919,5.086 16.318,57.44 10.446,66.048 16.105,96.819 0.785,4.268 8.219,56.898 8.245,57.172 0.466,5.023 1.51,10.295 -1.139,15.177 -0.853,1.573 1.057,1.65 1.104,0.527 0.115,-2.733 2.294,-4.984 2.045,-7.689 -0.46,-5.004 2.427,-8.997 2.141,-12.6 -7.56,-95.295 -16.526,-109.116 -25.089,-145.159 -0.795,-3.339 -1.903,-6.384 -4.331,-9.333 z M 297.437,378.709 c -2.322,2.96 1.138,2.471 2.107,7.868 0.335,1.867 -0.115,3.95 0.916,5.59 12.653,20.118 27.024,17.454 29.55,18.683 5.88,2.862 22.708,3.742 33.375,-6.775 5.853,-5.771 1.018,-12.132 -2.361,-10.909 -4.568,1.654 -18.609,8.566 -33.781,6.117 -2.736,-0.442 -4.431,-2.567 -7.011,-3.175 -15.894,-3.743 -21.746,-16.455 -22.795,-17.399 z m 174.961,23.514 c 4.312,-3.794 5.056,-7.472 3.84,-12.44 -0.552,-2.257 -0.923,-2.565 -2.667,-1.013 -5.412,4.816 -15.689,11.655 -22.814,11.913 -14.041,0.509 -3.286,2.487 -20.99,3.302 -20.81,0.958 -28.952,-10.434 -29.328,-3.538 -0.195,3.585 2.997,7.28 6.86,7.839 25.646,3.715 45.504,11.178 65.099,-6.063 z m -12.667,35.61 c 12.577,-2.237 11.517,-5.035 18.556,-12.208 2.196,-2.238 3.025,-7.171 1.895,-7.712 -0.612,-0.293 -1.087,0.354 -1.578,0.674 -2.895,1.892 -5.708,4.148 -9.006,5.075 -8.842,2.485 -17.022,7.18 -26.52,7.557 -13.272,0.527 -11.75,0.472 -35.256,-6.472 -2.412,-0.713 -3.635,1.902 -2.743,3.083 1.763,2.335 3.354,4.824 6.165,6.159 26.686,12.677 41.603,5.069 48.487,3.844 z m 9.851,-110.011 c -1.629,6.086 -1.782,8.914 -5.29,9.992 -3.354,1.031 -3.645,-3.284 -10.171,-9.454 -5.375,-5.082 1.943,-4.739 -1.273,-7.273 -0.637,-0.502 -0.959,0.056 -0.964,0.608 -0.031,3.194 -2.577,5.365 -3.305,8.306 -0.737,2.975 -6.095,9.943 -9.586,11.145 -7.824,2.694 -18.269,12.909 -29.953,8.754 -3.87,-1.376 -5.095,-0.234 -6.683,1.871 -0.532,0.705 -0.726,1.495 0.015,2.084 12.284,9.756 28.733,0.304 38.452,-0.67 1.274,-0.128 2.349,-0.938 3.335,-1.867 10.385,-9.788 19.094,-3.485 25.248,-18.22 0.611,-1.463 1.372,-2.986 0.175,-5.276 z m -148.057,-7.819 c -3.115,-0.989 -5.766,0.315 -8.487,0.443 -3.968,0.187 -8.118,-0.335 -11.868,0.661 -29.399,7.804 -26.315,7.68 -24.356,9.643 0.533,0.534 1.203,0.606 1.923,0.588 7.794,-0.194 8.025,4.869 16.426,5.444 2.841,0.194 5.122,1.175 7.021,3.341 3.783,4.315 -2.253,4.454 -4.194,8.38 -2.987,6.043 -5.124,12.299 -5.629,19.13 -0.964,13.032 -5.925,10.623 -4.073,18.888 3.456,-4.127 1.398,-11.154 5.094,-11.016 4.194,0.156 -0.84,-4.684 1.145,-7.806 2.336,-3.676 0.449,-7.756 2.636,-11.7 8.237,-14.86 13.992,-13.297 15.033,-19.723 1.061,-6.546 3.737,-12.045 9.329,-16.273 z m 6.372,145.114 c 0,-0.045 0,-0.09 0,-0.134 9.925,0 11.609,2.998 32.34,-14.866 1.823,-1.571 0.072,-3.04 -1.454,-2.162 -5.116,2.945 -20.607,8.369 -31.991,8.015 -3.811,-0.118 -7.279,-1.361 -10.912,-1.991 -6.567,-1.138 -13.438,-1.536 -18.669,-6.69 -2.917,-2.874 -7.002,-4.514 -8.954,-8.441 -0.335,-0.673 -0.746,-1.58 -1.717,-1.093 -0.957,0.48 -0.458,1.401 -0.214,2.083 8.096,22.688 12.309,15.14 26.387,23.345 4.058,2.365 5.221,1.934 15.184,1.934 z m -32.233,-50.384 c 0.916,5.11 0.092,9.998 4.119,14.419 4.66,5.115 9.849,8.453 16.46,9.888 26.564,5.768 23.282,-1.855 32.692,-3.531 5.926,-1.055 8.745,-6.152 13.044,-9.297 0.709,-0.519 1.094,-1.461 0.489,-2.319 -0.656,-0.931 -1.404,-0.179 -2.054,0.118 -1.011,0.462 -11.474,7.863 -32.129,6.646 -3.558,-0.21 -19.531,-2.468 -21.578,-5.279 -2.017,-2.769 -4.728,-4.792 -7.114,-7.162 -1.127,-1.121 -1.522,-2.985 -3.929,-3.483 z M 107.256,702.724 c 0.594,-0.396 1.235,-0.581 1.391,-0.964 1.434,-3.508 5.138,-6.965 4.897,-8.418 -0.819,-4.924 17.214,-49.171 51.458,-104.036 1.623,-2.6 3.682,-5.237 3.61,-8.468 -0.043,-1.926 0.161,-3.77 1.158,-5.186 2.358,-3.349 2.999,-7.516 5.448,-10.771 0.61,-0.81 0.706,-1.586 0.464,-2.668 -5.808,7.409 -9.077,11.402 -9.723,16.7 -0.578,4.742 -2.283,4.474 -9.297,16.201 -2.28,3.812 -18.847,23.019 -41.373,83.419 -2.412,6.467 -4.09,13.185 -6.785,19.556 -0.587,1.389 -1.303,2.799 -1.248,4.635 z M 584.85,968.633 c -1.792,0.938 -1.916,2.414 -1.594,3.59 2.518,9.203 -0.568,27.22 11.485,22.861 2.424,-0.877 -0.708,-8.985 2.381,-14.97 1.103,-2.137 -1.651,-47.363 -4.31,-47.069 -3.565,0.394 5.136,9.479 -2.519,12.887 -5.627,2.506 -7.861,0.263 -7.615,-2.344 0.358,-3.801 -0.441,-7.424 -1.089,-11.014 -0.462,-2.557 0.283,-5.502 -1.636,-7.812 -0.999,0.779 -0.979,1.757 -0.955,2.703 0.288,11.267 -0.525,22.531 0.021,33.803 0.175,3.615 -1.084,6.97 -3.159,9.978 -0.165,0.239 -0.276,0.778 -0.14,0.924 2.494,2.671 0.413,5.42 0.143,8.116 -0.134,1.336 -0.663,2.79 -2.316,2.55 -1.433,-0.208 -1.48,-1.67 -1.973,-2.904 -1.425,-3.565 1.863,-7.851 -1.82,-10.966 -0.197,-0.167 -0.043,-0.696 -0.177,-1.001 -1.04,-2.365 0.593,-5.025 -0.832,-7.361 -1.943,3.826 0.625,10.637 0.713,14.423 0.144,6.186 2.985,11.003 6.022,15.906 0.329,0.531 0.708,0.459 1.292,0.363 2.392,-0.395 1.893,-2.086 1.989,-3.737 0.433,-7.399 2.679,-14.575 2.79,-22.022 0.017,-1.15 1.138,-1.771 1.732,-0.433 0.197,0.443 0.292,1.04 1.364,0.925 -0.504,-2.846 0.139,-5.678 0.29,-8.545 0.187,-3.565 -0.365,-7.667 4.141,-9.892 2.17,-1.072 3.074,-0.56 3.893,1.064 1.032,2.048 1.224,4.384 0.974,6.594 -1.52,13.432 3.506,17.31 0.096,21.62 -0.164,0.207 -0.135,0.695 -0.017,0.979 2.679,6.494 -1.339,14.614 -4.213,14.294 -1.486,-0.165 -2.881,-1.055 -2.57,-2.686 0.737,-3.872 -2.026,-7.754 0.148,-11.583 0.139,-0.245 0.084,-0.754 -0.085,-0.997 -1.676,-2.407 -1.579,-5.372 -2.454,-8.244 z M 455.379,466.778 c 13.958,-3.179 11.016,-3.363 26.108,-18.517 0.44,-0.442 1.319,-0.903 0.61,-1.688 -0.6,-0.664 -1.277,-0.188 -1.844,0.228 -7.47,5.477 -12.486,6.266 -18.312,8.344 -6.262,2.233 -12.247,5.878 -19.373,4.256 -0.407,-0.093 -0.863,0.007 -1.293,0.051 -10.315,1.044 -26.057,-4.432 -31.328,-8.008 -3.188,-2.163 -3.314,6.131 1.213,8.604 14.361,7.843 39.08,7.901 44.219,6.73 z m -73.002,310.499 c -6.113,10.513 -6.653,10.785 -5.365,13.091 2.288,4.097 6.11,6.369 10.213,7.975 9.089,3.557 23.524,-9.524 22.803,-13.299 -0.464,-2.43 -3.105,-5.01 -5.659,-5.353 -3.173,-0.426 -6.237,-1.092 -9.14,-2.57 -1.828,-0.931 -10.388,-4.082 -12.852,0.156 z m -7.435,-435.355 c -7.647,5.346 -14.879,0.238 -20.91,0.574 -8.977,0.5 -19.326,-9.315 -20.913,-10.136 -2.931,-1.517 -4.029,-4.411 -5.744,-6.774 -0.893,-1.231 -1.417,-3.397 0.276,-4.962 0.275,-0.255 0.359,-0.584 0.107,-0.906 -0.271,-0.347 -0.621,-0.091 -0.944,-0.106 -2.29,-0.109 -2.806,1.225 -3.364,3.218 -0.878,3.138 -1.621,6.477 -0.577,9.339 6.271,17.192 25.562,18.541 37.052,19.023 7,0.294 10.565,-4.637 14.959,-8.481 0.091,-0.08 0.031,-0.333 0.058,-0.789 z m -89.218,452.141 c 2.638,-0.614 23.792,-2.627 17.043,-11.176 -9.017,-11.422 -10.076,-14.6 -13.971,-11.734 -5.742,4.226 -6.777,9.064 -9.971,13.354 -2.125,2.853 -1.647,5.692 1.022,8.043 1.676,1.477 3.772,0.969 5.877,1.513 z m 46.061,-6.963 c -1.3,0.02 -10.05,4.641 -12.004,6.009 -3.92,2.747 1.012,5.789 5.059,8.573 6.503,4.473 6.77,5.826 10.427,4.036 2.505,-1.225 3.935,-3.542 6.039,-5.153 4.99,-3.821 12.843,-7.056 11.974,-8.915 -3.154,-6.744 -8.823,-1.123 -14.993,-2.978 -2.132,-0.641 -4.332,-1.057 -6.502,-1.572 z M 314.041,510.511 c 14.827,-2.702 24.351,-9.589 23.691,-11.014 -0.077,-0.167 -0.588,-0.33 -0.609,-0.299 -1.397,2.069 -3.482,0.474 -5.149,0.983 -17.862,5.45 -28.697,1.729 -45.278,-7.54 -5.705,-3.189 0.17,6.913 4.563,12.254 4.083,4.965 16.906,4.126 22.782,5.616 z m 117.28,-25.272 c -3.625,-1.065 -3.151,6.325 14.509,7.625 2.358,0.174 4.899,0.843 7.421,-0.119 10.47,-3.995 15.418,-3.626 20.74,-8.827 2.559,-2.501 5.503,-4.763 5.994,-8.685 0.093,-0.743 0.338,-1.672 -0.413,-2.165 -0.799,-0.524 -1.443,0.173 -2.064,0.631 -2.083,1.537 -4.087,3.25 -6.766,3.644 -3.365,0.495 -17.026,9.597 -27.018,8.78 -0.1,-0.009 -12.31,-0.857 -12.403,-0.884 z M 417.4,1562.209 c 0.388,2.882 0.508,5.682 2.337,7.555 2.273,2.328 2.556,4.82 2.074,7.724 -0.583,3.513 7.146,2.126 10.779,7.155 0.551,0.762 1.6,1.287 2.264,0.723 1.121,-0.953 1.714,-0.133 2.459,0.32 4.049,2.459 7.903,5.147 11.07,8.75 2.253,2.564 -3.049,5.905 -7.678,3.458 -1.752,-0.926 -3.494,-0.374 -5.251,-0.509 1.881,1.92 4.674,1.203 6.744,2.851 1.977,1.574 4.836,2.35 7.076,0.905 2.111,-1.362 4.876,-2.785 4.407,-6.246 -0.103,-0.763 0.493,-0.467 1.033,-0.481 2.123,-0.052 2.71,-2.061 3.918,-3.308 1.52,-1.569 -1.942,-2.61 -0.439,-3.743 1.842,-1.389 2.551,-0.333 4.25,0.791 0.001,-1.205 0.195,-2.175 1.159,-2.578 3.049,-1.278 -0.818,-3.99 -0.956,-7.224 -0.086,-1.995 0.921,-3.844 -2.329,-3.515 -0.137,0.014 -0.355,-0.547 -0.497,-0.858 -1.18,-2.58 -4.2,-2.453 -2.686,1.474 1.364,3.539 4.099,8.37 0.238,7.421 -0.64,-0.158 -1.343,-0.518 -1.772,-1.003 -1.943,-2.198 -4.84,-2.48 -7.259,-3.705 -0.625,-0.316 -1.567,-1.125 -2.272,0.037 -0.407,0.671 -0.198,1.365 0.154,1.976 1.156,2.003 3.534,-1.07 4.315,0.435 1.294,2.491 6.599,5.483 3.55,8.341 -1.648,1.545 -3.579,2.385 -7.024,-2.438 -1.016,-1.422 -1.437,-3.56 -3.986,-2.172 -0.455,0.248 -0.923,-0.279 -1.225,-0.749 -2.156,-3.357 -2.889,-4.962 -4.779,-2.995 -1.344,1.398 -5.756,1.161 -7.227,-0.152 -2.741,-2.447 -4.672,-5.555 -6.916,-8.399 -1.842,-2.335 -3.665,-4.778 -3.853,-7.964 -0.046,-0.835 -0.4,-1.487 -1.678,-1.877 z M 342.778,482.582 c 6.281,-2.58 7.168,-8.637 3.74,-6.359 -5.907,3.924 -11.51,9.051 -18.94,5.928 -3.464,-1.456 -17.316,3.347 -38.396,-12.169 -3.634,-2.675 -5.456,2.05 -2.297,5.051 3.009,2.859 6.819,4.349 10.375,6.277 4.22,2.287 9.132,2.542 13.436,4.613 15.72,7.565 24.16,-0.087 32.082,-3.341 z m 106.241,31.112 c 2.789,0.69 5.568,-2.63 9.138,-2.63 3.861,0 6.607,-2.248 9.286,-4.596 0.634,-0.555 2.02,-1.24 1.315,-2.055 -1.547,-1.789 -2.082,-2.115 -5.02,-1.153 -7.156,2.344 -18.292,7.306 -30.92,2.254 -16.691,-6.678 -16.317,-6.657 -17.035,-5.657 -1.917,2.671 6.68,9.991 14.525,11.903 5.831,1.421 11.826,0.987 18.711,1.934 z M 421.432,331.986 c 7.41,-0.83 11.779,-5.825 15.613,-11.354 1.039,-1.499 1.73,-2.919 3.772,-2.927 1.365,-0.005 1.498,-1.598 -0.267,-1.508 -7.316,0.374 -12.363,3.629 -18.346,2.308 -1.468,-0.324 -2.586,1.4 -5.224,2.564 -4.174,1.842 -7.106,5.458 -11.051,7.635 -1.314,0.725 -0.998,2.064 -0.465,3.238 0.913,2.01 1.791,-0.571 5.695,-0.212 3.446,0.318 6.917,-0.34 10.273,0.256 z m 151.586,530.518 c -2.504,1.706 -2.175,10.139 -2.022,13.167 0.447,8.861 -2.288,19.785 -2.206,26.237 0.135,10.643 -3.042,13.549 -1.535,17.957 0.5,1.463 0.584,2.98 0.183,4.354 -2.896,9.925 1.699,15.922 -2.839,17.355 -0.513,0.162 -1.271,0.076 -0.995,1.092 1.017,3.742 0.566,5.065 1.711,4.568 4.871,-2.12 1.457,5.786 3.46,11.395 2.435,-1.443 0.038,-1.581 2.563,-28.892 0.253,-2.74 2.686,-6.941 0.29,-8.163 -2.79,-1.423 -3.801,-4.726 -2.445,-7.611 0.678,-1.442 0.938,-2.936 1.019,-4.514 0.764,-14.989 2.768,-19.197 2.675,-28.958 -0.041,-4.297 -0.315,-8.609 0.432,-12.889 0.287,-1.65 1.019,-3.358 -0.291,-5.098 z m -179.352,699.631 c -3.508,-0.939 -10.49,4.098 -0.348,6.624 1.795,0.447 -0.384,-4.943 3.427,-1.716 1.85,1.567 2.44,3.937 3.704,5.879 1.643,2.523 3.956,4.485 5.312,7.277 5.125,10.554 17.967,15.716 19.637,13.864 0.594,-0.659 -0.352,-1.377 -0.698,-2.001 -2.194,-3.949 -5.893,-2.094 -7.381,-6.806 -1.367,-4.329 -9.138,-2.847 -11.881,-9.457 -3.608,-8.694 -3.673,-8.218 -1.544,-13.393 0.418,-1.015 2.3,-1.513 1.726,-2.609 -0.41,-0.782 -2.029,-0.936 -3.114,-1.357 -5.334,-2.07 -0.486,3.617 -8.84,3.695 z M 310.789,529.763 c 13.193,-5.068 13.19,-3.619 17.073,-8.483 0.749,-0.938 0.078,-2.227 -0.983,-1.271 -3.553,3.205 -8.259,3.111 -12.496,4.345 -7.428,2.164 -14.533,-2.633 -22.174,-4.487 -2.251,-0.546 -3.647,-2.434 -3.652,-4.806 -0.004,-1.95 -1.059,-3.225 -2.121,-4.555 -0.373,-0.467 -0.798,-1.398 -1.615,-0.876 -0.721,0.461 -0.309,1.245 -0.069,1.889 5.415,14.526 -2.245,2.904 8.305,16.045 2.275,2.832 12.057,4.379 17.732,2.199 z M 456.89,526.96 c -9.728,3.852 -21.821,1.826 -30.787,-2.464 -1.071,-0.512 -2.275,-2.124 -3.284,-0.47 -0.752,1.233 0.982,2.82 2.161,3.659 25.914,18.435 39.977,-3.92 31.91,-0.725 z M 343.103,318.7 c -1.394,0.415 -2.928,-0.645 -3.393,0.715 -0.363,1.061 0.488,2.617 1.448,3.083 6.144,2.979 6.329,7.82 28.798,3.951 1.759,-0.303 2.107,-1.609 1.689,-3.169 -0.966,-3.604 -2.526,0.273 -9.77,-1.204 -6.331,-1.291 -12.719,-2.306 -18.772,-3.376 z m -63.172,448.512 c 2.186,-1.763 3.408,-3.427 3.191,-5.303 -0.475,-4.109 -0.434,-8.371 -2.98,-12.04 -3.275,-4.719 -8.526,-6.244 -13.325,-8.47 -0.824,-0.382 -2.208,-0.552 -3.85,0.424 2.116,0.098 3.317,0.912 4.624,1.523 4.028,1.885 5.801,5.688 7.535,9.253 2.157,4.436 6.256,8.27 4.805,14.613 z m 141.836,-2.553 c 2.592,-0.011 0.97,-1.229 4.541,-7.681 4.004,-7.235 7.604,-6.586 10.619,-8.815 0.518,-0.383 1.485,-0.451 1.383,-1.352 -0.433,-3.834 -12.299,-0.594 -14.517,5.244 -1.545,4.062 0.02,8.45 -2.026,12.604 z m -125.742,371.543 c -0.336,-6.172 3.344,-10.799 5.82,-15.789 1.111,-2.239 3.484,-3.337 6.248,-4.075 3.089,-0.825 5.276,-1.032 7.636,1.402 1.705,1.759 4.446,2.154 6.14,4.126 -0.247,-2.052 -1.719,-3.117 -2.735,-4.49 -5.454,-7.369 -17.007,-1.831 -20.273,3.922 -1.182,2.082 -3.715,3.734 -3.541,6.136 0.211,2.918 0.013,5.856 0.705,8.768 z m 108.058,403.486 c 7.654,1.966 7.341,-4.746 10.622,1.4 2.202,4.126 7.065,0.948 4.124,7.735 4.751,-0.703 3.533,3.251 6.055,1.915 0.798,-0.423 1.509,-0.864 1.532,-1.898 0.032,-1.455 -1.161,-1.178 -2.001,-1.479 -3.058,-1.098 -4.594,-3.836 -6.279,-6.271 -1.247,-1.801 0.37,-3.178 1.524,-4.463 0.473,-0.527 0.045,-1.394 -0.948,-0.9 -5.923,2.941 -11.982,-0.344 -14.629,3.961 z M 387.342,502.59 c -14.542,-7.668 -15.519,-2.223 -19.711,-2.484 -1.69,-0.105 -2.096,1.736 0.027,2.048 6.29,0.926 12.548,2.651 19.684,0.436 z m -56.67,1063.92 c 1.846,0.124 2.11,1.679 3.183,2.443 2.406,1.713 5.115,0.503 7.344,0.489 3.271,-0.02 6.502,-2.493 10.185,-1.162 1.292,0.467 2.906,-1.113 2.459,-2.456 -0.372,-1.12 -1.373,-0.314 -1.937,-0.083 -4.054,1.657 -4.692,1.365 -5.795,-2.936 -1.293,0.621 -2.195,6.366 -6.528,3.464 -1.592,-1.066 -3.369,1.366 -4.937,-0.22 -1.304,-1.321 -2.409,-0.891 -3.974,0.461 z M 584.28,872.327 c 1.256,25.483 0.341,19.351 3.821,25.672 0.224,-1.548 0.608,0.739 -1.436,-22 -0.123,-1.377 -0.843,-2.548 -2.385,-3.672 z M 75.199,749.294 c -3.96,5.704 3.227,4.049 2.493,9.36 -0.386,2.796 -6.226,0.331 -5.993,3.001 0.088,1 -0.454,3.67 2.093,2.029 1.957,-1.261 3.845,-2.638 6.234,-3.048 2.709,-0.465 2.36,-2.789 0.592,-3.793 -2.116,-1.202 -3.08,-3.206 -3.892,-5.327 -0.335,-0.875 -0.452,-1.868 -1.527,-2.222 z M 356.22,1533.39 c -0.086,-0.58 -0.368,-1.159 -0.911,-1.161 -1.839,-0.01 -3.641,-0.386 -5.324,1.17 -2.278,2.106 -3.797,5.212 -7.244,5.912 -1.2,0.244 -0.409,1.875 0.476,1.624 2.249,-0.636 3.193,0.519 3.67,2.484 0.053,0.217 0.508,0.469 0.776,0.469 0.373,-10e-4 0.51,-0.365 0.533,-0.751 0.245,-4.06 3.1,-7.615 7.108,-8.836 0.505,-0.154 1.042,-0.203 0.916,-0.911 z M 300.899,770.337 c -1.14,-0.082 -2.667,0.035 -3.31,1.155 -0.555,0.967 0.604,2.001 1.22,2.885 0.588,0.845 1.182,1.776 1.999,2.348 1.104,0.775 1.571,2.886 2.465,2.706 1.281,-0.258 0.374,-1.324 1.359,-3.761 1.548,-3.839 0.577,-5.304 -3.733,-5.333 z m 193.268,-318.9 c -0.003,-0.415 0.085,-0.952 -0.439,-1.084 -1.557,-0.393 -1.098,3.131 -2.763,6.534 -1.401,2.864 -1.503,5.594 -0.146,8.424 0.241,0.503 0.115,1.38 0.954,1.332 0.76,-0.043 0.728,-0.806 0.911,-1.378 1.735,-5.422 1.52,-8.066 1.483,-13.828 z m 94.527,354.295 c -1.921,-3.889 -6.756,-2.32 -8.504,-2.26 -2.004,0.068 -3.768,-0.05 -3.655,2.71 0.027,0.666 -0.649,0.936 -1.006,1.388 -1.025,1.299 -2.907,1.198 -3.884,2.693 5.231,-3.158 6.788,1.875 7.514,-1.581 0.454,-2.161 1.739,-3.364 4.102,-3.386 1.816,-0.017 3.604,-0.005 5.433,0.436 z M 27.858,885.337 c 0.152,-2.571 1.244,-5.158 1.207,-7.548 -0.057,-3.663 1.339,-6.906 1.699,-10.39 0.137,-1.319 1.455,-3.324 -0.25,-3.698 -2.41,-0.527 -4.027,12.815 -2.656,21.636 z m 367.974,661.103 c 1.527,-0.893 1.796,-2.466 2.683,-3.565 2,-2.477 -2.45,-0.253 -3.709,-4.983 -0.484,-1.821 -2.228,-3.321 -3.477,-4.916 -1.164,-1.488 -3.148,0.777 -1.738,1.977 3.504,2.981 5.379,6.883 6.241,11.487 z M 63.713,841.408 c -2.535,-1.691 -6.758,-1.189 -8.376,-5.146 -0.055,-0.135 -0.548,-0.263 -0.613,-0.192 -0.216,0.239 -0.504,0.603 -0.456,0.862 0.667,3.582 -0.765,9.217 2.241,6.844 1.115,-0.88 2.362,-1.406 3.744,-1.582 1.167,-0.148 2.444,0.291 3.46,-0.786 z m 354.878,707.831 c -4.783,2.24 -14.055,8.199 -11.999,9.392 1.543,0.896 4.785,-3.564 7.454,-4.091 2.58,-0.509 3.421,-2.615 4.545,-5.301 z M 578.598,812.627 c -3.576,3.045 -0.132,6.089 -1.6,10.312 -0.976,2.807 4.421,1.623 3.418,-0.107 -1.829,-3.153 -0.496,-6.803 -1.818,-10.205 z m -181.12,291.454 c 3.445,0.66 6.49,1.151 8.782,3.512 0.372,0.383 0.967,0.392 1.478,0.219 1.257,-0.427 -0.858,-4.366 -5.275,-5.672 -2.062,-0.61 -3.403,0.297 -4.985,1.941 z M 595.35,846.671 c -4.382,0.54 -4.376,0.526 -7.726,-0.971 -0.734,-0.328 -1.862,-1.091 -2.245,-0.182 -1.986,4.716 6.86,5.96 9.971,1.153 z M 361.119,664.694 c 1.035,1.706 2.818,0.646 4.147,0.763 2.526,0.221 5.025,1.07 7.584,0.672 3.153,-0.49 1.634,-2.635 -0.147,-2.335 -3.818,0.642 -7.774,-1.337 -11.584,0.9 z m 10.975,-138.715 c -5.222,-1.173 -10.362,-1.731 -15.033,2.191 5.062,-1.009 10.22,-0.314 15.033,-2.191 z m 97.231,1047.08 c 0.257,-1.337 -0.893,-2.393 -1.678,-3.609 -0.402,-0.623 -0.923,-1.128 -1.689,-0.832 -2.232,0.864 1.977,3.783 -1.181,6.136 -2.653,1.977 4.593,3.685 4.548,-1.695 z M 493.517,447.33 c 1.276,-2.19 -0.068,1.784 -0.04,-12.519 0.001,-0.763 -0.64,-1.21 -1.477,-0.568 -1.106,0.849 -2.057,4.675 -1.014,5.483 3.11,2.408 0.609,6.381 2.531,7.604 z M 320.39,1590.256 c -2.379,1.108 -7.264,10.77 -3.518,10.852 0.706,0.016 1.224,-0.348 1.23,-1.046 0.028,-3.446 2.618,-6.285 2.288,-9.806 z m 117.168,-14.447 c -0.135,0.31 -0.803,0.967 0.146,1.145 1.767,0.332 2.973,-1.167 4.554,-1.518 1.904,-0.423 -4.725,-5.379 -5.99,-3.005 -0.509,0.955 1.835,2.127 1.29,3.378 z m -90.234,-28.218 c -0.137,2.463 -0.238,4.621 -1.754,6.343 -0.307,0.348 -0.588,0.929 -0.043,1.006 1.511,0.214 3.098,2.549 4.614,-0.107 0.292,-0.51 1.15,-0.697 1.747,-1.033 -0.132,-0.231 -0.264,-0.462 -0.396,-0.693 -6.048,0.699 -0.662,-2.931 -4.168,-5.516 z m 79.076,46.668 c 4.924,-0.748 6.864,3.815 7.246,1.491 0.612,-3.729 -2.481,-6.111 -4.493,-3.6 -0.513,0.639 -1.326,1.039 -2.753,2.109 z M 539.463,598.424 c -3.297,-3.511 -1.413,-8.325 -3.349,-12.11 -1.487,5.058 -0.156,10.427 3.349,12.11 z M 31.587,892.188 c -0.095,-1.932 -1.527,-3.167 -2.496,-4.645 -0.306,-0.466 -0.466,-1.319 -1.252,-0.858 -0.556,0.325 -0.533,1.065 -0.331,1.652 1.99,5.782 2.199,6.196 3.272,5.894 0.873,-0.246 0.749,-1.24 0.807,-2.043 z m 372.465,619.238 c -1.883,-0.975 -2.695,-2.92 -4.163,-4.189 -1.481,-1.281 -1.665,0.489 -2.301,1.014 -0.752,0.62 -0.634,1.151 0.298,1.765 1.881,1.24 4.116,0.731 6.166,1.41 z m -38.487,64.984 c -1.459,-0.039 -0.751,1.549 0.976,5.912 0.698,1.765 2.504,-0.92 1.77,-2.618 -0.588,-1.361 -1.247,-2.677 -2.746,-3.294 z M 477.283,354.408 c -1.778,3.114 -1.134,6.201 -1.604,9.339 2.077,-1.743 2.836,-5.863 1.604,-9.339 z m -32.614,-38.312 c 2.149,-0.333 7.627,2.868 7.42,-0.415 -0.123,-1.943 -1.816,-1.047 -7.42,0.415 z m 136.167,516.115 c -1.455,1.158 -1.599,2.647 -2.445,3.698 -2.016,2.507 3.008,3.374 2.815,0.791 -0.106,-1.409 -0.231,-2.816 -0.37,-4.489 z m -272.073,764.943 c -1.766,-6.178 -7.006,2.429 -2.631,1.335 0.976,-0.244 2.169,-0.268 2.631,-1.335 z M 572.801,801.176 c -1.043,-1.574 -2.325,-2.915 -2.714,-4.824 -0.353,-1.731 -2.718,-0.304 -1.638,0.944 1.27,1.469 2.385,3.114 4.352,3.88 z m 3.895,106.362 c 0.818,-2.901 0.908,-5.799 0.327,-8.721 -0.998,2.874 -0.673,5.813 -0.327,8.721 z m 9.336,-80.793 c 0.907,-0.865 2.084,-1.718 2.847,-2.85 0.681,-1.011 -3.848,-0.918 -3.985,1.637 -0.032,0.58 0.068,1.225 1.138,1.213 z m -268.45,335.823 c -2.262,-0.07 -4.275,-1.571 -5.979,1.088 2.135,0.661 3.922,0.424 5.979,-1.088 z M 561.595,960.984 c 0.264,-0.973 0.382,-1.748 -0.726,-1.598 -0.631,0.085 -1.737,-0.275 -1.662,1.034 0.055,0.953 0.183,2.212 1.135,2.356 1.28,0.193 1.189,-1.13 1.253,-1.792 z m -176.319,150.68 c -0.021,0.598 0.088,1.584 0.635,1.418 1.275,-0.388 1.563,-1.836 2.128,-2.898 0.593,-1.116 -3.046,-1.396 -2.763,1.48 z m -63.871,477.276 c 1.675,-0.665 3.348,0.048 3.939,-1.663 0.199,-0.575 -0.342,-1.069 -0.812,-1.124 -1.7,-0.197 -2.255,1.082 -3.127,2.787 z m 15.408,-33.03 c 0.023,-0.795 -0.294,-1.278 -0.878,-1.172 -1.143,0.209 -2.444,0.335 -2.912,1.671 -0.489,1.396 3.065,0.531 3.79,-0.499 z m 1.815,0.68 c -3.286,1.291 2.56,4.354 2.218,1.468 -0.155,-1.304 -1.738,-0.518 -2.218,-1.468 z M 59.753,810.886 c 1.104,-2.152 1.467,-4.314 0.636,-6.554 0.183,1.181 -0.615,2.156 -0.632,3.286 -0.017,1.09 -0.004,2.179 -0.004,3.268 z m 293.542,780.267 c -1.893,0.047 -0.789,2.152 0.987,2.291 1.724,0.135 0.928,-2.338 -0.987,-2.291 z m 80.204,-20.855 c -0.77,-1.606 -1.66,-2.538 -2.664,-3.36 -0.13,-0.106 -0.623,0.126 -0.862,0.312 -0.096,0.075 -0.031,0.612 0.077,0.656 1.157,0.475 1.535,2.003 3.449,2.392 z"
   inkscape:connector-curvature="0"
   style="stroke-width:9.19451427" />

	<path
   id="path48662"
   d="m 388.314,154.355 c 0.911,8.024 -9.768,12.161 -10.359,6.685 -0.172,-1.59 1.179,-1.376 2.139,-1.573 6.652,-1.364 3.321,-3.854 6.057,-24.385 0.523,-3.928 -1.654,-6.648 -4.101,-15.408 -1.576,-5.64 -8.628,-15.903 -16.481,-13.546 -8.184,2.458 -7.714,8.91 -7.875,11.832 -0.047,0.851 0.633,2.151 -0.859,2.266 -1.276,0.099 -1.375,-1.267 -1.519,-2.089 -2.692,-15.386 14.82,-23.381 28.433,-6.04 1.382,1.76 1.55,4.499 2.185,6.816 5.169,18.876 0.63,20.02 2.38,35.442 z"
   inkscape:connector-curvature="0"
   style="stroke-width:9.19451427" />

	<path
   id="path48664"
   d="m 293.881,168.127 c -2.747,-5.796 -3.037,-6.467 -1.537,-7.415 5.577,-3.526 10.778,-7.813 17.562,-8.921 1.723,-0.281 2.956,-1.379 4.423,-2.08 3.51,-1.677 7.519,1.915 2.672,4.532 -5.443,2.939 -9.448,2.507 -11.906,6.778 -1.632,2.835 -6.513,3.034 -7.201,6.961 -0.227,1.29 -3.151,1.964 -4.013,0.145 z"
   inkscape:connector-curvature="0"
   style="stroke-width:9.19451427" />

	<path
   id="path48666"
   d="m 326.826,206.034 c -4.397,0.875 -8.214,2.683 -11.059,6.29 -0.404,0.512 -1.118,1.034 -1.729,1.088 -5.857,0.513 -5.671,7.333 -8.42,6.607 -1.494,-0.394 -2.025,-1.83 -2.551,-3.057 -0.408,-0.954 0.303,-1.557 1.265,-1.873 2.948,-0.97 -1.908,-4.882 2.995,-6.508 3.951,-1.311 4.204,-7.193 13.233,-5.545 1.522,0.278 3.021,0.017 4.519,-0.664 3.007,-1.368 5.015,3.011 1.747,3.662 z"
   inkscape:connector-curvature="0"
   style="stroke-width:9.19451427" />

	<path
   id="path48668"
   d="m 304.231,134.793 c 0.756,0.318 2.604,-0.605 2.845,0.863 0.262,1.597 -1.656,1.519 -2.699,1.636 -9.196,1.03 -19.613,11.194 -21.257,13.571 -0.761,1.1 -1.655,2.626 -3.271,1.492 -2.881,-2.022 -1.208,-5.321 1.437,-7.609 6.513,-5.632 13.58,-10.071 22.945,-9.953 z"
   inkscape:connector-curvature="0"
   style="stroke-width:9.19451427" />

	<path
   id="path48670"
   d="m 48.253,914.159 c -3.955,1.315 -5.907,-0.51 -7.475,-8.825 -0.914,-4.848 5.132,-4.589 6.088,-1.291 0.615,2.123 0.426,4.247 0.321,6.609 1.776,-0.947 0.795,-2.306 1.004,-3.356 0.166,-0.836 0.043,-1.993 1.135,-2.029 1.059,-0.035 1.419,0.078 1.187,10.211 -0.077,3.355 1.969,4.223 4.46,11.475 0.355,1.034 1.225,1.58 1.97,2.314 -3.638,1.369 -3.938,1.228 -4.947,-2.226 -0.916,-3.137 -4.784,-6.371 -3.743,-12.882 z"
   inkscape:connector-curvature="0"
   style="stroke-width:9.19451427" />

	<path
   id="path48672"
   d="m 377.745,146.096 c -2.744,3.244 -7.36,0.082 -5.559,-3.355 2.336,-4.459 -3.324,-7.78 -7.374,-10.801 -1.609,-1.2 -2.866,-3.788 -0.947,-4.636 1.693,-0.748 0.88,1.819 2.972,2.664 3.187,1.288 5.911,3.25 8.119,5.834 0.862,1.009 2.214,0.484 2.891,1.281 1.504,1.771 2.052,6.467 -0.102,9.013 z"
   inkscape:connector-curvature="0"
   style="stroke-width:9.19451427" />

	<path
   id="path48674"
   d="m 58.315,915.751 c 0.293,1.315 -0.088,2.451 -1.636,2.704 -1.544,0.253 -1.832,-0.926 -2.121,-2.028 -3.125,-11.921 -3.692,-6.36 0.817,-12.432 0.824,-1.11 2.285,-0.596 2.622,0.994 0.659,3.102 -0.549,6.867 0.318,10.762 z"
   inkscape:connector-curvature="0"
   style="stroke-width:9.19451427" />

	<path
   id="path48676"
   d="m 373.521,111.485 c 2.771,-0.099 0.933,3.458 -0.92,3.519 -4.69,0.153 -6.642,2.953 -7.086,7.251 -0.093,0.901 -0.329,1.835 -1.495,1.699 -3.709,-0.434 -0.893,-12.097 9.501,-12.469 z"
   inkscape:connector-curvature="0"
   style="stroke-width:9.19451427" />

	<path
   id="path48678"
   d="m 317.665,221.482 c -0.718,-0.16 -1.846,0.146 -2.159,-1.126 -0.428,-1.739 0.107,-2.429 5.292,-5.515 2.567,-1.528 5.254,2.152 2.142,3.581 -1.835,0.842 -2.672,3.313 -5.275,3.06 z"
   inkscape:connector-curvature="0"
   style="stroke-width:9.19451427" />

	<path
   id="path48680"
   d="m 329.561,219.973 c -0.092,2.412 -5.142,1.884 -6.529,5.256 -0.229,0.557 -1.126,0.399 -1.061,-0.233 0.14,-1.348 0.314,-2.935 1.627,-3.633 1.793,-0.954 3.624,-2.555 5.963,-1.39 z"
   inkscape:connector-curvature="0"
   style="stroke-width:9.19451427" />

	<path
   id="path48682"
   d="m 347.166,602.828 c 0.762,-1.566 2.915,-2.505 4.993,-1.187 0.865,0.549 1.851,0.366 2.787,0.46 7.762,0.784 15.437,2.739 23.337,1.656 2.441,-0.334 3.98,0.406 4.11,3.275 0.208,4.613 4.263,1.516 9.277,4.135 2.746,1.434 3.028,5.938 -0.775,6.88 -3.517,0.872 -8.556,-1.257 -7.871,3.338 0.783,5.26 -2.046,7.795 -5.198,7.243 -9.074,-1.589 -13.566,0.203 -27.016,-1.198 -1.774,-0.185 -2.917,-1.444 -3.638,-3 -1.156,-2.495 -2.687,-4.883 -2.925,-7.692 -0.197,-2.321 -1.388,-2.643 -3.33,-2.171 -2.921,0.711 -6.647,-1.175 -7.878,-3.907 -1.013,-2.249 0.91,-4.749 3.963,-5.053 4.253,-0.424 8.117,1.425 10.164,-2.779 z"
   inkscape:connector-curvature="0"
   style="stroke-width:9.19451427" />

	<path
   id="path48684"
   d="m 355.991,575.585 c 2.421,0.935 5.436,0.294 8.402,-0.047 3.147,-0.363 5.801,1.58 8.869,1.499 3.969,-0.105 9.979,-3.362 10.829,3.665 0.474,3.914 2.431,1.9 8.243,3.335 6.276,1.55 5.239,11.172 1.058,8.678 -2.283,-1.362 -4.871,-0.963 -7.275,-1.574 -1.078,-0.274 -2.161,0.007 -2.361,1.636 -1.486,12.069 -15.883,7.337 -22.361,7.324 -4.451,-0.009 -8.138,-1.639 -11.701,-3.902 -4.411,-2.801 3.347,-8.977 -4.636,-8.047 -2.453,0.286 -4.927,-0.013 -7.421,0.236 -3.066,0.306 -4.372,-7.33 0.211,-7.431 3.232,-0.071 6.211,-1.627 9.456,-1.302 1.126,0.113 2.08,-0.144 2.547,-1.285 1.048,-2.56 3.22,-2.852 6.14,-2.785 z"
   inkscape:connector-curvature="0"
   style="stroke-width:9.19451427" />

	<path
   id="path48686"
   d="m 348.976,1610.087 c -0.004,3.415 -1.637,4.807 -4.702,4.101 -2.925,-0.674 -4.484,2.917 -7.467,2.13 -1.446,-0.381 -2.665,-1.452 -2.987,-2.98 -0.53,-2.517 3.382,-3.191 4.049,-4.523 3.433,-6.852 8.057,-1.171 9.28,-1.055 1.676,0.159 1.987,1.115 1.827,2.327 z"
   inkscape:connector-curvature="0"
   style="stroke-width:9.19451427" />

</g>
  </g>
</svg>
