<?xml version="1.0" encoding="UTF-8" standalone="no"?>
<!-- Generator: Adobe Illustrator 19.0.0, SVG Export Plug-In . SVG Version: 6.00 Build 0)  -->

<svg
   xmlns:dc="http://purl.org/dc/elements/1.1/"
   xmlns:cc="http://creativecommons.org/ns#"
   xmlns:rdf="http://www.w3.org/1999/02/22-rdf-syntax-ns#"
   xmlns:svg="http://www.w3.org/2000/svg"
   xmlns="http://www.w3.org/2000/svg"
   xmlns:sodipodi="http://sodipodi.sourceforge.net/DTD/sodipodi-0.dtd"
   xmlns:inkscape="http://www.inkscape.org/namespaces/inkscape"
   version="1.1"
   id="Layer_1"
   x="0px"
   y="0px"
   viewBox="0 0 138.52266 138.52266"
   xml:space="preserve"
   width="180"
   height="180"
   sodipodi:docname="donut-svgrepo-com.svg"
   inkscape:version="0.92.2 5c3e80d, 2017-08-06"><metadata
     id="metadata45"><rdf:RDF><cc:Work
         rdf:about=""><dc:format>image/svg+xml</dc:format><dc:type
           rdf:resource="http://purl.org/dc/dcmitype/StillImage" /><dc:title></dc:title></cc:Work></rdf:RDF></metadata><defs
     id="defs43" /><sodipodi:namedview
     pagecolor="#ffffff"
     bordercolor="#666666"
     borderopacity="1"
     objecttolerance="10"
     gridtolerance="10"
     guidetolerance="10"
     inkscape:pageopacity="0"
     inkscape:pageshadow="2"
     inkscape:window-width="1088"
     inkscape:window-height="508"
     id="namedview41"
     showgrid="false"
     inkscape:pagecheckerboard="true"
     inkscape:showpageshadow="false"
     inkscape:zoom="0.4609375"
     inkscape:cx="256"
     inkscape:cy="256"
     inkscape:window-x="0"
     inkscape:window-y="0"
     inkscape:window-maximized="0"
     inkscape:current-layer="Layer_1" /><g
     id="g871"
     transform="matrix(0.3515634,0,0,0.35156251,0,89.82329)"><g
       transform="translate(0,-255.49735)"
       id="g38"><path
         inkscape:connector-curvature="0"
         id="path2"
         d="m 347.593,148.083 c 4.79,14.73 -6.29,32.61 -6.29,48.93 0,16.32 11.08,34.2 6.29,48.92 -4.95,15.27 -24.59,23.19 -33.83,35.89 -9.34,12.83 -10.87,33.92 -23.7,43.26 -12.71,9.24 -33.19,4.24 -48.45,9.2 -14.73,4.78 -28.28,21.02 -44.6,21.02 -16.32,0 -29.88,-16.24 -44.61,-21.02 -15.26,-4.96 -35.74,0.04 -48.45,-9.2 -12.83,-9.34 -14.36,-30.43 -23.69,-43.26 -9.25,-12.7 -28.88,-20.62 -33.84,-35.89 -4.78,-14.72 6.29,-32.6 6.29,-48.92 0,-16.32 -11.07,-34.2 -6.29,-48.93 4.96,-15.26 24.59,-23.18 33.84,-35.89 9.33,-12.83 10.86,-33.92 23.69,-43.25 12.71,-9.25 33.19,-4.25 48.45,-9.2 14.73,-4.79 28.29,-21.03 44.61,-21.03 16.32,0 29.87,16.24 44.6,21.03 15.26,4.95 35.74,-0.05 48.45,9.2 12.83,9.33 14.36,30.42 23.7,43.25 9.24,12.71 28.88,20.63 33.83,35.89 z m -86.18,48.93 c 0,-35.57 -28.83,-64.41 -64.4,-64.41 -35.57,0 -64.41,28.84 -64.41,64.41 0,35.57 28.84,64.4 64.41,64.4 35.57,0 64.4,-28.83 64.4,-64.4 z"
         style="fill:#d64394" /><path
         inkscape:connector-curvature="0"
         id="path4"
         d="m 141.453,325.083 c -12.83,-9.34 -14.36,-30.43 -23.69,-43.26 -9.25,-12.7 -28.88,-20.62 -33.84,-35.89 -4.78,-14.72 6.29,-32.6 6.29,-48.92 0,-16.32 -11.07,-34.2 -6.29,-48.93 4.96,-15.26 24.59,-23.18 33.84,-35.89 9.33,-12.83 10.86,-33.92 23.69,-43.25 12.71,-9.25 33.19,-4.25 48.45,-9.2 8.76,-2.85 17.1,-9.75 25.86,-14.87 -5.97,-3.49 -12.13,-6.16 -18.75,-6.16 -16.32,0 -29.88,16.24 -44.61,21.03 -15.26,4.95 -35.74,-0.05 -48.45,9.2 -12.83,9.33 -14.36,30.42 -23.69,43.25 -9.25,12.71 -28.88,20.63 -33.84,35.89 -4.78,14.73 6.29,32.61 6.29,48.93 0,16.32 -11.07,34.2 -6.29,48.92 4.96,15.27 24.59,23.19 33.84,35.89 9.33,12.83 10.86,33.92 23.69,43.26 12.71,9.24 33.19,4.24 48.45,9.2 14.73,4.78 28.29,21.02 44.61,21.02 6.62,0 12.78,-2.67 18.75,-6.16 -8.76,-5.12 -17.1,-12.02 -25.86,-14.86 -15.26,-4.96 -35.74,0.04 -48.45,-9.2 z"
         style="fill:#bc3987" /><path
         inkscape:connector-curvature="0"
         id="path6"
         d="m 197.013,7.503 c 104.66,0 189.51,84.84 189.51,189.51 0,104.66 -84.85,189.51 -189.51,189.51 -104.67,0 -189.51,-84.85 -189.51,-189.51 0,-104.67 84.84,-189.51 189.51,-189.51 z m 144.29,189.51 c 0,-16.32 11.08,-34.2 6.29,-48.93 -4.95,-15.26 -24.59,-23.18 -33.83,-35.89 -9.34,-12.83 -10.87,-33.92 -23.7,-43.25 -12.71,-9.25 -33.19,-4.25 -48.45,-9.2 -14.73,-4.79 -28.28,-21.03 -44.6,-21.03 -16.32,0 -29.88,16.24 -44.61,21.03 -15.26,4.95 -35.74,-0.05 -48.45,9.2 -12.83,9.33 -14.36,30.42 -23.69,43.25 -9.25,12.71 -28.88,20.63 -33.84,35.89 -4.78,14.73 6.29,32.61 6.29,48.93 0,16.32 -11.07,34.2 -6.29,48.92 4.96,15.27 24.59,23.19 33.84,35.89 9.33,12.83 10.86,33.92 23.69,43.26 12.71,9.24 33.19,4.24 48.45,9.2 14.73,4.78 28.29,21.02 44.61,21.02 16.32,0 29.87,-16.24 44.6,-21.02 15.26,-4.96 35.74,0.04 48.45,-9.2 12.83,-9.34 14.36,-30.43 23.7,-43.26 9.24,-12.7 28.88,-20.62 33.83,-35.89 4.79,-14.72 -6.29,-32.6 -6.29,-48.92 z"
         style="fill:#f7b239" /><path
         inkscape:connector-curvature="0"
         id="path8"
         d="m 197.013,7.503 c 104.66,0 189.51,84.84 189.51,189.51 0,104.66 -84.85,189.51 -189.51,189.51 -104.67,0 -189.51,-84.85 -189.51,-189.51 0,-104.67 84.84,-189.51 189.51,-189.51 z m 144.29,189.51 c 0,-16.32 11.08,-34.2 6.29,-48.93 -4.95,-15.26 -24.59,-23.18 -33.83,-35.89 -9.34,-12.83 -10.87,-33.92 -23.7,-43.25 -12.71,-9.25 -33.19,-4.25 -48.45,-9.2 -14.73,-4.79 -28.28,-21.03 -44.6,-21.03 -16.32,0 -29.88,16.24 -44.61,21.03 -15.26,4.95 -35.74,-0.05 -48.45,9.2 -12.83,9.33 -14.36,30.42 -23.69,43.25 -9.25,12.71 -28.88,20.63 -33.84,35.89 -4.78,14.73 6.29,32.61 6.29,48.93 0,16.32 -11.07,34.2 -6.29,48.92 4.96,15.27 24.59,23.19 33.84,35.89 9.33,12.83 10.86,33.92 23.69,43.26 12.71,9.24 33.19,4.24 48.45,9.2 14.73,4.78 28.29,21.02 44.61,21.02 16.32,0 29.87,-16.24 44.6,-21.02 15.26,-4.96 35.74,0.04 48.45,-9.2 12.83,-9.34 14.36,-30.43 23.7,-43.26 9.24,-12.7 28.88,-20.62 33.83,-35.89 4.79,-14.72 -6.29,-32.6 -6.29,-48.92 z"
         style="fill:#f7b239" /><path
         inkscape:connector-curvature="0"
         id="path10"
         d="m 25.502,197.013 c 0,-101.652 80.021,-184.594 180.51,-189.292 -2.983,-0.14 -5.982,-0.218 -8.999,-0.218 -104.67,0 -189.51,84.84 -189.51,189.51 0,104.66 84.84,189.51 189.51,189.51 3.017,0 6.016,-0.079 8.999,-0.218 -100.49,-4.699 -180.51,-87.649 -180.51,-189.292 z"
         style="fill:#e09b2d" /><path
         inkscape:connector-curvature="0"
         id="path12"
         d="m 276.532,313.989 c -2.316,0 -4.601,-1.07 -6.068,-3.086 -2.277,-3.127 -1.784,-7.426 1.019,-9.966 1.338,-1.965 3.998,-8.993 4.892,-11.354 3.042,-8.034 6.489,-17.138 12.727,-25.706 6.177,-8.49 13.724,-14.516 20.382,-19.832 1.961,-1.564 6.719,-5.363 8.739,-7.496 -0.425,-2.9 -1.987,-8.663 -2.556,-10.761 -2.281,-8.419 -4.863,-17.945 -4.863,-28.776 0,-10.837 2.584,-20.365 4.863,-28.772 0.841,-3.104 2.105,-7.771 2.539,-10.75 0.598,-4.099 4.408,-6.925 8.504,-6.34 4.099,0.598 6.937,4.404 6.34,8.504 -0.564,3.87 -1.915,8.854 -2.901,12.494 -2.039,7.521 -4.345,16.024 -4.345,24.864 0,8.835 2.304,17.337 4.337,24.839 2.751,10.144 3.809,15.281 2.815,18.943 -0.032,0.117 -0.066,0.233 -0.104,0.35 -1.288,3.972 -5.363,7.722 -14.011,14.624 -5.917,4.725 -12.624,10.079 -17.612,16.936 -5.052,6.939 -8.119,15.041 -10.825,22.188 -3.892,10.281 -6.182,15.27 -9.462,17.658 -1.333,0.971 -2.879,1.439 -4.41,1.439 z m -4.421,-13.563 c -0.002,0.001 -0.004,0.003 -0.007,0.005 0.002,-0.002 0.005,-0.004 0.007,-0.005 z m 46.218,-62.682 z m 0.63,-2.074 z"
         style="fill:#ffffff" /><path
         inkscape:connector-curvature="0"
         id="path14"
         d="m 292.429,129.106 c -2.529,0 -4.997,-1.279 -6.41,-3.597 -4.389,-7.197 -7.18,-14.568 -9.642,-21.072 -0.801,-2.112 -3.003,-7.928 -4.417,-10.548 -1.976,-0.353 -5.763,-0.669 -11.3,-0.942 -8.594,-0.426 -18.333,-0.908 -28.476,-4.198 -8.029,-2.61 -14.794,-6.601 -20.353,-10.159 -3.488,-2.233 -4.506,-6.872 -2.272,-10.36 2.233,-3.49 6.871,-4.506 10.36,-2.272 4.758,3.046 10.486,6.44 16.898,8.525 8.241,2.674 16.923,3.104 24.583,3.482 12.248,0.606 16.631,1.394 19.541,3.512 3.279,2.385 5.568,7.368 9.458,17.637 2.344,6.192 4.763,12.582 8.425,18.588 2.156,3.536 1.038,8.151 -2.499,10.308 -1.218,0.742 -2.565,1.096 -3.896,1.096 z M 273.096,94.159 Z m 0,0 z m -1.738,-1.243 v 0 c 0,-10e-4 0,-10e-4 0,0 z m 0,-10e-4 v 0 c 0,0 0,0 0,0 z"
         style="fill:#ffffff" /><circle
         id="circle16"
         r="7.5"
         cy="61.783001"
         cx="197.502"
         style="fill:#ffffff" /><g
         id="g36"><path
           inkscape:connector-curvature="0"
           id="path18"
           d="M 197.009,0 C 88.378,0 0,88.378 0,197.01 c 0,108.632 88.378,197.01 197.009,197.01 108.631,0 197.01,-88.378 197.01,-197.01 C 394.019,88.378 305.641,0 197.009,0 Z m 0,379.02 C 96.649,379.02 15,297.37 15,197.01 15,96.65 96.649,15 197.009,15 c 100.361,0 182.01,81.649 182.01,182.01 0,100.361 -81.649,182.01 -182.01,182.01 z"
           style="fill:#333333" /><path
           inkscape:connector-curvature="0"
           id="path20"
           d="m 197.009,125.104 c -39.649,0 -71.905,32.257 -71.905,71.906 0,39.648 32.256,71.905 71.905,71.905 39.649,0 71.906,-32.257 71.906,-71.905 0,-39.65 -32.257,-71.906 -71.906,-71.906 z m 0,128.811 c -31.378,0 -56.905,-25.527 -56.905,-56.905 0,-31.378 25.527,-56.906 56.905,-56.906 31.378,0 56.906,25.528 56.906,56.906 0,31.378 -25.527,56.905 -56.906,56.905 z"
           style="fill:#333333" /><path
           inkscape:connector-curvature="0"
           id="path22"
           d="m 348.805,197.01 c 0,-5.779 1.719,-12.122 3.539,-18.838 2.887,-10.654 5.872,-21.67 2.387,-32.406 -3.635,-11.192 -13.143,-18.784 -21.532,-25.481 -5.249,-4.191 -10.206,-8.149 -13.374,-12.502 -3.233,-4.442 -5.505,-10.443 -7.91,-16.797 -3.961,-10.463 -8.057,-21.282 -17.439,-28.11 -9.289,-6.761 -20.795,-7.33 -31.922,-7.882 -6.838,-0.339 -13.296,-0.659 -18.623,-2.389 -4.979,-1.616 -10.19,-5.057 -15.709,-8.698 -9.013,-5.949 -19.228,-12.691 -31.211,-12.691 -11.983,0 -22.199,6.742 -31.212,12.691 -5.518,3.642 -10.729,7.082 -15.708,8.698 -5.326,1.729 -11.785,2.05 -18.623,2.389 -11.127,0.552 -22.633,1.121 -31.922,7.882 -9.383,6.828 -13.479,17.647 -17.439,28.109 -2.405,6.354 -4.677,12.354 -7.91,16.798 -3.168,4.353 -8.125,8.311 -13.375,12.502 -8.389,6.697 -17.896,14.289 -21.531,25.481 -3.486,10.735 -0.5,21.752 2.386,32.406 1.82,6.716 3.539,13.06 3.539,18.838 0,5.778 -1.719,12.121 -3.539,18.837 -2.887,10.654 -5.872,21.671 -2.386,32.406 3.634,11.193 13.143,18.785 21.532,25.483 5.249,4.19 10.206,8.148 13.374,12.5 3.233,4.443 5.505,10.444 7.91,16.798 3.961,10.463 8.057,21.281 17.439,28.11 9.29,6.761 20.795,7.33 31.922,7.881 6.838,0.339 13.296,0.659 18.623,2.389 4.979,1.616 10.19,5.057 15.708,8.698 9.013,5.949 19.229,12.692 31.212,12.692 11.983,0 22.199,-6.743 31.211,-12.692 5.518,-3.642 10.729,-7.082 15.709,-8.698 5.326,-1.729 11.785,-2.05 18.623,-2.389 11.126,-0.551 22.632,-1.12 31.922,-7.881 9.383,-6.829 13.479,-17.648 17.439,-28.11 2.405,-6.354 4.677,-12.355 7.91,-16.798 3.167,-4.352 8.125,-8.31 13.373,-12.5 8.39,-6.698 17.898,-14.29 21.532,-25.482 3.485,-10.736 0.5,-21.753 -2.387,-32.407 -1.82,-6.715 -3.538,-13.059 -3.538,-18.837 z m -10.94,22.76 c 2.419,8.929 4.704,17.362 2.597,23.853 -2.243,6.911 -9.229,12.487 -16.623,18.392 -5.795,4.626 -11.786,9.409 -16.144,15.396 -4.419,6.073 -7.159,13.313 -9.81,20.313 -3.328,8.792 -6.473,17.097 -12.237,21.292 -5.673,4.129 -14.497,4.565 -23.838,5.028 -7.517,0.372 -15.289,0.757 -22.514,3.103 -6.913,2.245 -13.23,6.415 -19.339,10.447 -7.955,5.251 -15.47,10.211 -22.949,10.211 -7.479,0 -14.994,-4.96 -22.949,-10.211 -6.109,-4.032 -12.426,-8.202 -19.339,-10.447 -7.224,-2.346 -14.997,-2.73 -22.514,-3.103 -9.341,-0.463 -18.164,-0.899 -23.837,-5.028 -5.765,-4.195 -8.909,-12.5 -12.237,-21.292 -2.65,-7.001 -5.391,-14.24 -9.811,-20.313 -4.357,-5.986 -10.348,-10.771 -16.142,-15.396 -7.395,-5.904 -14.38,-11.481 -16.625,-18.394 -2.107,-6.488 0.178,-14.922 2.598,-23.851 1.996,-7.367 4.061,-14.985 4.061,-22.76 0,-7.775 -2.064,-15.394 -4.061,-22.761 -2.419,-8.929 -4.705,-17.362 -2.598,-23.851 2.244,-6.912 9.229,-12.488 16.624,-18.393 5.794,-4.626 11.786,-9.41 16.143,-15.397 4.42,-6.073 7.16,-13.313 9.811,-20.313 3.329,-8.792 6.472,-17.096 12.237,-21.291 5.673,-4.129 14.497,-4.566 23.838,-5.029 7.517,-0.372 15.289,-0.757 22.513,-3.103 6.913,-2.245 13.229,-6.415 19.338,-10.447 7.955,-5.25 15.469,-10.21 22.949,-10.21 7.48,0 14.994,4.96 22.949,10.21 6.109,4.033 12.427,8.202 19.34,10.447 7.224,2.346 14.996,2.73 22.513,3.103 9.342,0.463 18.165,0.9 23.838,5.029 5.766,4.195 8.909,12.5 12.237,21.292 2.65,7 5.391,14.239 9.811,20.313 4.357,5.987 10.349,10.771 16.144,15.397 7.395,5.904 14.379,11.481 16.623,18.392 2.107,6.49 -0.178,14.923 -2.598,23.852 -1.996,7.367 -4.061,14.985 -4.061,22.761 0.002,7.773 2.066,15.391 4.062,22.759 z"
           style="fill:#333333" /><path
           inkscape:connector-curvature="0"
           id="path24"
           d="m 172.548,94.805 20.999,13.499 c 1.255,0.807 2.66,1.192 4.049,1.192 2.467,0 4.883,-1.216 6.315,-3.445 2.24,-3.484 1.231,-8.125 -2.253,-10.364 L 180.66,82.188 c -3.485,-2.24 -8.125,-1.232 -10.365,2.253 -2.24,3.484 -1.231,8.124 2.253,10.364 z"
           style="fill:#333333" /><path
           inkscape:connector-curvature="0"
           id="path26"
           d="m 230.251,279.567 -21.706,12.327 c -3.603,2.045 -4.864,6.623 -2.818,10.226 1.381,2.432 3.918,3.797 6.528,3.797 1.255,0 2.527,-0.315 3.697,-0.979 l 21.706,-12.327 c 3.603,-2.045 4.864,-6.623 2.818,-10.226 -2.044,-3.601 -6.622,-4.863 -10.225,-2.818 z"
           style="fill:#333333" /><path
           inkscape:connector-curvature="0"
           id="path28"
           d="m 133.138,269.063 c -0.361,-4.126 -3.999,-7.175 -8.124,-6.819 -4.126,0.36 -7.18,3.998 -6.819,8.124 l 2.172,24.869 c 0.341,3.904 3.616,6.848 7.463,6.848 0.219,0 0.439,-0.009 0.661,-0.028 4.126,-0.36 7.18,-3.998 6.819,-8.124 z"
           style="fill:#333333" /><path
           inkscape:connector-curvature="0"
           id="path30"
           d="m 94.167,144.37 c -0.008,0 -0.015,0 -0.022,0 -4.132,0 -7.487,3.344 -7.5,7.479 l -0.073,24.964 c -0.012,4.142 3.336,7.51 7.478,7.521 0.008,0 0.015,0 0.022,0 4.132,0 7.487,-3.344 7.5,-7.479 l 0.073,-24.964 c 0.012,-4.141 -3.336,-7.509 -7.478,-7.521 z"
           style="fill:#333333" /><path
           inkscape:connector-curvature="0"
           id="path32"
           d="m 302.603,137.47 -24.639,-4.016 c -4.088,-0.667 -7.942,2.108 -8.608,6.196 -0.666,4.088 2.107,7.942 6.196,8.608 l 24.639,4.016 c 0.408,0.066 0.814,0.099 1.215,0.099 3.611,0 6.794,-2.615 7.394,-6.295 0.665,-4.088 -2.109,-7.942 -6.197,-8.608 z"
           style="fill:#333333" /><path
           inkscape:connector-curvature="0"
           id="path34"
           d="m 293.692,210.524 c -0.008,0 -0.015,0 -0.021,0 -4.132,0 -7.488,3.344 -7.5,7.479 l -0.072,24.964 c -0.012,4.142 3.336,7.51 7.479,7.521 0.008,0 0.015,0 0.021,0 4.132,0 7.488,-3.344 7.5,-7.479 l 0.072,-24.964 c 0.012,-4.141 -3.336,-7.509 -7.479,-7.521 z"
           style="fill:#333333" /></g></g></g></svg>