<?xml version="1.0" encoding="UTF-8" standalone="no"?>
<!-- Generator: Adobe Illustrator 19.0.0, SVG Export Plug-In . SVG Version: 6.00 Build 0)  -->

<svg
   xmlns:dc="http://purl.org/dc/elements/1.1/"
   xmlns:cc="http://creativecommons.org/ns#"
   xmlns:rdf="http://www.w3.org/1999/02/22-rdf-syntax-ns#"
   xmlns:svg="http://www.w3.org/2000/svg"
   xmlns="http://www.w3.org/2000/svg"
   xmlns:sodipodi="http://sodipodi.sourceforge.net/DTD/sodipodi-0.dtd"
   xmlns:inkscape="http://www.inkscape.org/namespaces/inkscape"
   version="1.1"
   id="Layer_1"
   x="0px"
   y="0px"
   viewBox="0 0 180 180"
   xml:space="preserve"
   sodipodi:docname="BINSONDISC12.svg"
   width="180"
   height="180"
   inkscape:version="0.92.2 5c3e80d, 2017-08-06"><metadata
     id="metadata61"><rdf:RDF><cc:Work
         rdf:about=""><dc:format>image/svg+xml</dc:format><dc:type
           rdf:resource="http://purl.org/dc/dcmitype/StillImage" /><dc:title /></cc:Work></rdf:RDF></metadata><defs
     id="defs59" /><sodipodi:namedview
     pagecolor="#ffffff"
     bordercolor="#666666"
     borderopacity="1"
     objecttolerance="10"
     gridtolerance="10"
     guidetolerance="10"
     inkscape:pageopacity="0"
     inkscape:pageshadow="2"
     inkscape:window-width="1387"
     inkscape:window-height="816"
     id="namedview57"
     showgrid="false"
     inkscape:pagecheckerboard="true"
     inkscape:showpageshadow="false"
     inkscape:zoom="2.7345711"
     inkscape:cx="58.526256"
     inkscape:cy="84.6674"
     inkscape:window-x="591"
     inkscape:window-y="45"
     inkscape:window-maximized="0"
     inkscape:current-layer="Layer_1" /><g
     id="g909"><g
       transform="matrix(0.36885246,0,0,0.36870136,-0.03688749,113.63376)"
       id="g898"><circle
         style="fill:#2a3332"
         cx="244.10001"
         cy="-64.000015"
         r="244"
         id="circle2" /><path
         style="fill:#121c1b"
         d="m 71.3,-236.80001 c 95.2,-95.2 249.6,-95.2 344.8,0 95.2,95.2 95.2,249.599998 0,344.8"
         id="path4"
         inkscape:connector-curvature="0" /><circle
         style="fill:#f74d19"
         cx="244.10001"
         cy="-64.000015"
         r="104.8"
         id="circle6" /><path
         style="fill:#ff7a17"
         d="m 139.3,-64.000012 c 0,-57.599998 47.2,-104.799998 104.8,-104.799998 57.6,0 104.8,47.2 104.8,104.799998"
         id="path8"
         inkscape:connector-curvature="0" /><path
         style="fill:#e0360e"
         d="m 263.3,-79.200012 -36.8,36.8 69.6,69.6 c 8,-4.8 15.2,-10.4 22.4,-16.8 5.6,-5.6000002 11.2,-12.8000002 15.2,-19.2000002 z"
         id="path10"
         inkscape:connector-curvature="0" /><circle
         style="fill:#d3dee2"
         cx="244.10001"
         cy="-64.000015"
         r="29.6"
         id="circle12" /><path
         style="fill:#ebf0f2"
         d="m 244.1,-34.400012 c -16,0 -29.6,-13.6 -29.6,-29.6 0,-16 12.8,-29.6 29.6,-29.6"
         id="path14"
         inkscape:connector-curvature="0" /><g
         id="g24"
         transform="translate(0,-308.20001)"><path
           style="fill:#726c6a"
           d="m 244.1,448.2 c -112.8,0 -204,-91.2 -204,-204 0,-4 3.2,-8 8,-8 4,0 8,3.2 8,8 -0.8,104 84,188.8 188,188.8 4,0 8,3.2 8,8 0,4 -4,7.2 -8,7.2 z"
           id="path16"
           inkscape:connector-curvature="0" /><path
           style="fill:#726c6a"
           d="m 440.9,252.2 c -4,0 -8,-3.2 -8,-8 0,-104 -84.8,-188.8 -188.8,-188.8 -4,0 -8,-3.2 -8,-8 0,-4 3.2,-8 8,-8 112.8,0 204,92 204,204 0,4.8 -3.2,8.8 -7.2,8.8 z"
           id="path18"
           inkscape:connector-curvature="0" /><path
           style="fill:#726c6a"
           d="M 244.1,401 C 157.7,401 87.3,330.6 87.3,244.2 c 0,-4 3.2,-8 8,-8 4,0 8,3.2 8,8 0,77.6 63.2,141.6 141.6,141.6 4,0 8,3.2 8,8 -0.8,4 -4.8,7.2 -8.8,7.2 z"
           id="path20"
           inkscape:connector-curvature="0" /><path
           style="fill:#726c6a"
           d="m 392.9,252.2 c -4,0 -8,-3.2 -8,-8 0,-77.6 -63.2,-141.6 -141.6,-141.6 -4,0 -8,-3.2 -8,-8 0,-4 3.2,-8 8,-8 86.4,0 156.8,70.4 156.8,156.8 0.8,4.8 -2.4,8.8 -7.2,8.8 z"
           id="path22"
           inkscape:connector-curvature="0" /></g><g
         id="g26"
         transform="translate(0,-308.20001)" /><g
         id="g28"
         transform="translate(0,-308.20001)" /><g
         id="g30"
         transform="translate(0,-308.20001)" /><g
         id="g32"
         transform="translate(0,-308.20001)" /><g
         id="g34"
         transform="translate(0,-308.20001)" /><g
         id="g36"
         transform="translate(0,-308.20001)" /><g
         id="g38"
         transform="translate(0,-308.20001)" /><g
         id="g40"
         transform="translate(0,-308.20001)" /><g
         id="g42"
         transform="translate(0,-308.20001)" /><g
         id="g44"
         transform="translate(0,-308.20001)" /><g
         id="g46"
         transform="translate(0,-308.20001)" /><g
         id="g48"
         transform="translate(0,-308.20001)" /><g
         id="g50"
         transform="translate(0,-308.20001)" /><g
         id="g52"
         transform="translate(0,-308.20001)" /><g
         id="g54"
         transform="translate(0,-308.20001)" /></g><circle
       transform="scale(1,-1)"
       r="32.063984"
       cy="-90"
       cx="89.906372"
       id="path843"
       style="fill:#f9f9dd;fill-opacity:0.57339448;stroke:none;stroke-width:1;stroke-miterlimit:4;stroke-dasharray:none;stroke-opacity:1" /><g
       id="text841"
       style="font-style:normal;font-weight:normal;font-size:40px;line-height:1.25;font-family:'Bitstream Vera Sans';letter-spacing:0px;word-spacing:0px;fill:#000000;fill-opacity:1;stroke:none;stroke-width:1px;stroke-linecap:butt;stroke-linejoin:miter;stroke-opacity:1"
       inkscape:transform-center-y="-24.802169"
       inkscape:transform-center-x="0.07347823"
       transform="rotate(-54.139191,90.163632,89.995375)"
       aria-label="NYSTHI"><path
         inkscape:connector-curvature="0"
         id="path899"
         style="font-style:normal;font-variant:normal;font-weight:800;font-stretch:condensed;font-size:13.33333302px;font-family:Futura;-inkscape-font-specification:'Futura, Ultra-Bold Condensed';font-variant-ligatures:normal;font-variant-caps:normal;font-variant-numeric:normal;font-feature-settings:normal;text-align:start;writing-mode:lr-tb;text-anchor:start"
         d="m 122.15761,89.278282 -9.96538,1.317423 -0.33959,-2.568796 3.31988,-1.811404 q 0.2953,-0.150679 0.67754,-0.33912 0.3814,-0.194895 0.88201,-0.431819 l 0.84109,-0.393576 q -1.27769,0.319952 -2.19041,0.519418 -0.91272,0.199467 -1.53878,0.282232 l -2.23963,0.296079 -0.33959,-2.568796 9.96538,-1.317423 0.33959,2.568796 -3.48684,1.840043 q -0.55918,0.290636 -1.04603,0.532308 -0.49415,0.236071 -0.94179,0.426591 1.04095,-0.222986 1.81679,-0.364955 0.77585,-0.141969 1.36319,-0.219615 l 2.54298,-0.336182 z" /><path
         inkscape:connector-curvature="0"
         id="path901"
         style="font-style:normal;font-variant:normal;font-weight:800;font-stretch:condensed;font-size:13.33333302px;font-family:Futura;-inkscape-font-specification:'Futura, Ultra-Bold Condensed';font-variant-ligatures:normal;font-variant-caps:normal;font-variant-numeric:normal;font-feature-settings:normal;text-align:start;writing-mode:lr-tb;text-anchor:start"
         d="m 119.1315,76.699056 1.00466,2.52211 -3.95554,1.575651 -4.46017,4.460704 -1.04803,-2.630978 1.20435,-1.005335 q 0.35223,-0.294481 0.68626,-0.546675 0.33163,-0.258241 0.64264,-0.480244 -0.56951,0.06568 -0.97941,0.109822 -0.41594,0.04655 -0.6771,0.05948 l -1.58024,0.09687 -1.0408,-2.612834 6.24785,0.02708 z" /><path
         inkscape:connector-curvature="0"
         id="path903"
         style="font-style:normal;font-variant:normal;font-weight:800;font-stretch:condensed;font-size:13.33333302px;font-family:Futura;-inkscape-font-specification:'Futura, Ultra-Bold Condensed';font-variant-ligatures:normal;font-variant-caps:normal;font-variant-numeric:normal;font-feature-settings:normal;text-align:start;writing-mode:lr-tb;text-anchor:start"
         d="m 117.80921,74.476909 -2.62231,1.758862 q 0.46228,-1.274296 -0.0563,-2.047474 -0.19583,-0.291969 -0.47053,-0.374259 -0.2801,-0.07866 -0.51259,0.07728 -0.33522,0.224844 -0.38586,0.838915 l -0.04,0.55987 q -0.0292,0.552618 -0.12542,0.993472 -0.10167,0.444481 -0.27944,0.798891 -0.18317,0.358037 -0.44059,0.640445 -0.25742,0.282407 -0.59805,0.510878 -0.58394,0.391664 -1.40327,0.549252 -0.38804,0.06429 -0.75102,0.04905 -0.36839,-0.01161 -0.71357,-0.117171 -0.96862,-0.275355 -1.57424,-1.178297 -0.54036,-0.805618 -0.66082,-1.908545 l 2.55203,-1.711718 q -0.24219,0.562244 -0.24978,1.076882 -0.013,0.518264 0.21548,0.858894 0.17408,0.259529 0.43789,0.325598 0.26203,0.0751 0.46749,-0.0627 0.33523,-0.224844 0.35679,-0.905643 l 0.0256,-0.534551 q 0.0349,-1.058222 0.36892,-1.729063 0.33034,-0.676249 1.05486,-1.162202 1.23276,-0.826847 2.53705,-0.612022 1.3043,0.214826 2.07675,1.366482 0.5331,0.794804 0.79091,1.938877 z" /><path
         inkscape:connector-curvature="0"
         id="path905"
         style="font-style:normal;font-variant:normal;font-weight:800;font-stretch:condensed;font-size:13.33333302px;font-family:Futura;-inkscape-font-specification:'Futura, Ultra-Bold Condensed';font-variant-ligatures:normal;font-variant-caps:normal;font-variant-numeric:normal;font-feature-settings:normal;text-align:start;writing-mode:lr-tb;text-anchor:start"
         d="m 111.83821,66.572742 1.9039,1.935342 -5.44866,5.360135 1.05011,1.067455 -1.71721,1.68931 -4.04521,-4.112021 1.71721,-1.68931 1.0912,1.109224 z" /><path
         inkscape:connector-curvature="0"
         id="path907"
         style="font-style:normal;font-variant:normal;font-weight:800;font-stretch:condensed;font-size:13.33333302px;font-family:Futura;-inkscape-font-specification:'Futura, Ultra-Bold Condensed';font-variant-ligatures:normal;font-variant-caps:normal;font-variant-numeric:normal;font-feature-settings:normal;text-align:start;writing-mode:lr-tb;text-anchor:start"
         d="m 104.57425,61.282438 2.27441,1.482378 -2.20757,3.387068 1.08538,0.707418 2.20758,-3.387067 2.2744,1.482379 -5.48871,8.421307 -2.27441,-1.482379 1.94096,-2.978001 -1.08539,-0.707419 -1.94096,2.978001 -2.274403,-1.482379 z" /><path
         inkscape:connector-curvature="0"
         id="path909"
         style="font-style:normal;font-variant:normal;font-weight:800;font-stretch:condensed;font-size:13.33333302px;font-family:Futura;-inkscape-font-specification:'Futura, Ultra-Bold Condensed';font-variant-ligatures:normal;font-variant-caps:normal;font-variant-numeric:normal;font-feature-settings:normal;text-align:start;writing-mode:lr-tb;text-anchor:start"
         d="m 100.71979,59.774311 2.51479,1.022839 -3.7872,9.311362 -2.514792,-1.022838 z" /></g><g
       id="text856"
       style="font-style:normal;font-weight:normal;font-size:40px;line-height:1.25;font-family:'Bitstream Vera Sans';letter-spacing:0px;word-spacing:0px;fill:#000000;fill-opacity:1;stroke:none;stroke-width:1px;stroke-linecap:butt;stroke-linejoin:miter;stroke-opacity:1"
       inkscape:transform-center-y="22.825631"
       inkscape:transform-center-x="-0.24040013"
       transform="rotate(140.91692,89.683503,89.735085)"
       aria-label="NYECHOEcoeco"><path
         inkscape:connector-curvature="0"
         id="path874"
         style="font-style:normal;font-variant:normal;font-weight:800;font-stretch:condensed;font-size:13.33333302px;font-family:Futura;-inkscape-font-specification:'Futura, Ultra-Bold Condensed';font-variant-ligatures:normal;font-variant-caps:normal;font-variant-numeric:normal;font-feature-settings:normal;text-align:start;writing-mode:lr-tb;text-anchor:start"
         d="m 122.15761,89.278282 -9.96538,1.317423 -0.33959,-2.568796 3.31988,-1.811404 q 0.2953,-0.150679 0.67754,-0.33912 0.3814,-0.194895 0.88201,-0.431819 l 0.84109,-0.393576 q -1.27769,0.319952 -2.19041,0.519418 -0.91272,0.199467 -1.53878,0.282232 l -2.23963,0.296079 -0.33959,-2.568796 9.96538,-1.317423 0.33959,2.568796 -3.48684,1.840043 q -0.55918,0.290636 -1.04603,0.532308 -0.49415,0.236071 -0.94179,0.426591 1.04095,-0.222986 1.81679,-0.364955 0.77585,-0.141969 1.36319,-0.219615 l 2.54298,-0.336182 z" /><path
         inkscape:connector-curvature="0"
         id="path876"
         style="font-style:normal;font-variant:normal;font-weight:800;font-stretch:condensed;font-size:13.33333302px;font-family:Futura;-inkscape-font-specification:'Futura, Ultra-Bold Condensed';font-variant-ligatures:normal;font-variant-caps:normal;font-variant-numeric:normal;font-feature-settings:normal;text-align:start;writing-mode:lr-tb;text-anchor:start"
         d="m 119.12639,76.701027 1.01392,2.518402 -3.94973,1.590172 -4.44375,4.477061 -1.05769,-2.62711 1.20065,-1.009754 q 0.35114,-0.295773 0.68425,-0.549192 0.33067,-0.259458 0.64087,-0.482602 -0.56927,0.06777 -0.979,0.11342 -0.41577,0.04808 -0.67688,0.06197 l -1.57987,0.102677 -1.05039,-2.608992 6.2479,0.0041 z" /><path
         inkscape:connector-curvature="0"
         id="path878"
         style="font-style:normal;font-variant:normal;font-weight:800;font-stretch:condensed;font-size:10.66666698px;font-family:Futura;-inkscape-font-specification:'Futura, Ultra-Bold Condensed';font-variant-ligatures:normal;font-variant-caps:normal;font-variant-numeric:normal;font-feature-settings:normal;text-align:start;writing-mode:lr-tb;text-anchor:start"
         d="m 117.82093,74.097242 -6.73349,4.396422 -2.20676,-3.379828 1.58307,-1.033615 1.01938,1.561263 0.98124,-0.640671 -0.91402,-1.399903 1.52201,-0.99375 0.91402,1.399903 1.02921,-0.671992 -1.01937,-1.561263 1.61795,-1.056394 z" /><path
         inkscape:connector-curvature="0"
         id="path880"
         style="font-style:normal;font-variant:normal;font-weight:800;font-stretch:condensed;font-size:10.66666698px;font-family:Futura;-inkscape-font-specification:'Futura, Ultra-Bold Condensed';font-variant-ligatures:normal;font-variant-caps:normal;font-variant-numeric:normal;font-feature-settings:normal;text-align:start;writing-mode:lr-tb;text-anchor:start"
         d="m 110.17118,68.316359 1.79696,-1.47732 q 0.70417,0.336657 1.09126,0.759025 0.91142,0.994486 0.80474,2.342724 -0.1211,1.50981 -1.61859,2.882219 -1.4015,1.284434 -2.90461,1.347946 -1.49927,0.05999 -2.59367,-1.134158 -0.35542,-0.387811 -0.57901,-0.924702 l 1.69332,-1.551878 q -0.0298,0.68436 0.31503,1.060652 0.45043,0.491483 1.12233,0.384371 0.67573,-0.11063 1.42064,-0.793316 0.36093,-0.330785 0.58173,-0.660306 0.2208,-0.329521 0.30049,-0.6357 0.0762,-0.310019 0.007,-0.593178 -0.0687,-0.283159 -0.29045,-0.525061 -0.38005,-0.414689 -1.14759,-0.481318 z" /><path
         inkscape:connector-curvature="0"
         id="path882"
         style="font-style:normal;font-variant:normal;font-weight:800;font-stretch:condensed;font-size:10.66666698px;font-family:Futura;-inkscape-font-specification:'Futura, Ultra-Bold Condensed';font-variant-ligatures:normal;font-variant-caps:normal;font-variant-numeric:normal;font-feature-settings:normal;text-align:start;writing-mode:lr-tb;text-anchor:start"
         d="m 106.92764,62.689289 1.73968,1.300219 -1.9363,2.59074 0.8302,0.620488 1.9363,-2.590739 1.73968,1.300219 -4.81425,6.441388 -1.73967,-1.300219 1.70244,-2.277849 -0.8302,-0.620488 -1.70245,2.277848 -1.73967,-1.300219 z" /><path
         inkscape:connector-curvature="0"
         id="path884"
         style="font-style:normal;font-variant:normal;font-weight:800;font-stretch:condensed;font-size:10.66666698px;font-family:Futura;-inkscape-font-specification:'Futura, Ultra-Bold Condensed';font-variant-ligatures:normal;font-variant-caps:normal;font-variant-numeric:normal;font-feature-settings:normal;text-align:start;writing-mode:lr-tb;text-anchor:start"
         d="m 98.916843,63.230962 q 0.772757,-1.668257 2.017427,-2.360243 1.23776,-0.689449 2.45232,-0.126847 1.07752,0.499118 1.47789,1.654627 0.50034,1.46012 -0.4366,3.482823 -0.89753,1.937636 -2.38392,2.494695 -1.10387,0.412808 -2.134129,-0.06442 -1.261826,-0.584493 -1.531298,-1.960628 -0.269473,-1.376135 0.53831,-3.120008 z m 2.052897,0.933708 q -0.91724,1.98017 -0.2178,2.304158 0.34972,0.161995 0.79847,-0.261538 0.4265,-0.387914 0.85995,-1.32365 0.42687,-0.921559 0.47426,-1.519525 0.0405,-0.59543 -0.2998,-0.753046 -0.34972,-0.161994 -0.7708,0.251391 -0.43053,0.409007 -0.84428,1.30221 z" /><path
         inkscape:connector-curvature="0"
         id="path886"
         style="font-style:normal;font-variant:normal;font-weight:800;font-stretch:condensed;font-size:8px;font-family:Futura;-inkscape-font-specification:'Futura, Ultra-Bold Condensed';font-variant-ligatures:normal;font-variant-caps:normal;font-variant-numeric:normal;font-feature-settings:normal;text-align:start;writing-mode:lr-tb;text-anchor:start"
         d="m 99.807519,59.459794 -1.597951,5.815714 -2.919157,-0.802081 0.375684,-1.367295 1.348462,0.370509 0.232862,-0.847497 -1.209096,-0.332216 0.361195,-1.314563 1.209096,0.332217 0.244246,-0.888931 -1.348462,-0.370509 0.383964,-1.397429 z" /><path
         inkscape:connector-curvature="0"
         id="path888"
         style="font-style:normal;font-variant:normal;font-weight:800;font-stretch:condensed;font-size:8px;font-family:Futura;-inkscape-font-specification:'Futura, Ultra-Bold Condensed';font-variant-ligatures:normal;font-variant-caps:normal;font-variant-numeric:normal;font-feature-settings:normal;text-align:start;writing-mode:lr-tb;text-anchor:start"
         d="m 93.867952,59.544743 0.2395,-1.421369 q 0.141266,0.008 0.245918,0.02163 0.105301,0.0098 0.174636,0.0215 0.693351,0.116829 1.089339,0.611375 0.268479,0.334415 0.382499,0.856714 0.11402,0.522299 0.02705,1.038461 -0.154474,0.916764 -0.821357,1.442166 -0.661732,0.518348 -1.513013,0.374907 -0.05007,-0.0084 -0.126465,-0.02527 -0.07639,-0.01683 -0.182946,-0.04271 l 0.228466,-1.355886 q 0.693436,0.06931 0.811563,-0.631747 0.05322,-0.31586 -0.07602,-0.583239 -0.135044,-0.256473 -0.373865,-0.296714 -0.02311,-0.0039 -0.04622,-0.0078 -0.02761,-6.91e-4 -0.05908,-0.002 z" /><path
         inkscape:connector-curvature="0"
         id="path890"
         style="font-style:normal;font-variant:normal;font-weight:800;font-stretch:condensed;font-size:8px;font-family:Futura;-inkscape-font-specification:'Futura, Ultra-Bold Condensed';font-variant-ligatures:normal;font-variant-caps:normal;font-variant-numeric:normal;font-feature-settings:normal;text-align:start;writing-mode:lr-tb;text-anchor:start"
         d="m 89.649209,59.920448 q 0.05466,-0.975032 0.625234,-1.522079 0.570576,-0.547047 1.475405,-0.496323 0.889229,0.04985 1.382732,0.668283 0.489385,0.622117 0.433414,1.620549 -0.05597,0.998432 -0.624176,1.572999 -0.564525,0.578685 -1.442053,0.529492 -0.92433,-0.05182 -1.416959,-0.685851 -0.492629,-0.634036 -0.433597,-1.68707 z m 1.514307,0.135751 q -0.01312,0.234007 0.0076,0.422962 0.02049,0.192856 0.07156,0.32874 0.05085,0.139784 0.128598,0.218477 0.07775,0.07869 0.179152,0.08438 0.198906,0.01115 0.335552,-0.262881 0.134678,-0.238931 0.162226,-0.730347 0.02711,-0.483615 -0.07958,-0.743901 -0.105162,-0.287587 -0.307969,-0.298956 -0.191106,-0.01071 -0.331433,0.259199 -0.142076,0.301114 -0.165689,0.722328 z" /><path
         inkscape:connector-curvature="0"
         id="path892"
         style="font-style:normal;font-variant:normal;font-weight:800;font-stretch:condensed;font-size:5.33333349px;font-family:Futura;-inkscape-font-specification:'Futura, Ultra-Bold Condensed';font-variant-ligatures:normal;font-variant-caps:normal;font-variant-numeric:normal;font-feature-settings:normal;text-align:start;writing-mode:lr-tb;text-anchor:start"
         d="m 87.895863,58.952205 -1.020383,0.03677 q 0.08144,-0.497573 0.384544,-0.765094 0.300649,-0.264774 0.810254,-0.293561 0.603205,-0.03408 0.967557,0.32094 0.362047,0.360363 0.399207,1.018168 0.03775,0.668206 -0.305063,1.110119 -0.342662,0.444513 -0.922467,0.477266 -0.577205,0.03261 -0.943467,-0.35621 -0.366409,-0.391415 -0.404744,-1.070021 l -0.0052,-0.184895 1.528813,-0.08636 q -0.04258,-0.430575 -0.268783,-0.417797 -0.176802,0.01 -0.22024,0.210673 z m 0.02154,0.796929 q 0.0044,0.078 0.02628,0.141973 0.02187,0.06397 0.05832,0.108863 0.03384,0.04504 0.07951,0.06854 0.04582,0.0261 0.09782,0.02317 0.109201,-0.0062 0.171073,-0.111388 0.06202,-0.10262 0.05321,-0.258621 z" /><path
         inkscape:connector-curvature="0"
         id="path894"
         style="font-style:normal;font-variant:normal;font-weight:800;font-stretch:condensed;font-size:5.33333349px;font-family:Futura;-inkscape-font-specification:'Futura, Ultra-Bold Condensed';font-variant-ligatures:normal;font-variant-caps:normal;font-variant-numeric:normal;font-feature-settings:normal;text-align:start;writing-mode:lr-tb;text-anchor:start"
         d="m 85.048472,59.221536 -0.124348,-0.952858 q 0.09161,-0.02246 0.160998,-0.03414 0.06905,-0.01426 0.115528,-0.02033 0.464809,-0.06066 0.813658,0.177453 0.236346,0.160872 0.41084,0.471635 0.174493,0.310762 0.219649,0.656786 0.0802,0.61458 -0.242554,1.079526 -0.320848,0.459444 -0.89153,0.533919 -0.03357,0.0044 -0.08555,0.0085 -0.05198,0.0042 -0.12496,0.0084 l -0.118619,-0.908959 q 0.4556,-0.09097 0.394268,-0.560944 -0.02763,-0.211747 -0.162146,-0.35702 -0.136084,-0.13719 -0.296185,-0.116296 -0.01549,0.002 -0.03099,0.004 -0.01774,0.0049 -0.03806,0.01022 z" /><path
         inkscape:connector-curvature="0"
         id="path896"
         style="font-style:normal;font-variant:normal;font-weight:800;font-stretch:condensed;font-size:5.33333349px;font-family:Futura;-inkscape-font-specification:'Futura, Ultra-Bold Condensed';font-variant-ligatures:normal;font-variant-caps:normal;font-variant-numeric:normal;font-feature-settings:normal;text-align:start;writing-mode:lr-tb;text-anchor:start"
         d="m 82.364552,60.204538 q -0.132038,-0.637512 0.141702,-1.087804 0.27374,-0.450292 0.865351,-0.572823 0.581411,-0.120419 1.005418,0.193338 0.421985,0.316835 0.557192,0.969647 0.135207,0.652812 -0.132286,1.120426 -0.264415,0.469636 -0.838176,0.58847 -0.604361,0.125172 -1.030481,-0.198785 -0.426119,-0.323957 -0.56872,-1.012469 z m 0.998834,-0.172301 q 0.03169,0.153003 0.07744,0.27118 0.04628,0.120727 0.102487,0.199507 0.05674,0.08133 0.120322,0.118689 0.06359,0.03736 0.129887,0.02363 0.130053,-0.02694 0.171077,-0.226911 0.04578,-0.177026 -0.02077,-0.498332 -0.06549,-0.316206 -0.178872,-0.465586 -0.117078,-0.167231 -0.249681,-0.139767 -0.124952,0.02588 -0.169055,0.223834 -0.03988,0.218354 0.01716,0.493759 z" /></g></g></svg>