<?xml version="1.0" encoding="UTF-8" standalone="no"?>
<!-- Generator: Adobe Illustrator 19.2.1, SVG Export Plug-In . SVG Version: 6.00 Build 0)  -->

<svg
   xmlns:dc="http://purl.org/dc/elements/1.1/"
   xmlns:cc="http://creativecommons.org/ns#"
   xmlns:rdf="http://www.w3.org/1999/02/22-rdf-syntax-ns#"
   xmlns:svg="http://www.w3.org/2000/svg"
   xmlns="http://www.w3.org/2000/svg"
   xmlns:sodipodi="http://sodipodi.sourceforge.net/DTD/sodipodi-0.dtd"
   xmlns:inkscape="http://www.inkscape.org/namespaces/inkscape"
   version="1.1"
   x="0px"
   y="0px"
   viewBox="0 0 180 180"
   xml:space="preserve"
   id="svg179"
   sodipodi:docname="BINSONDISC3_Red Pirate.svg"
   width="180"
   height="180"
   inkscape:version="0.92.4 (5da689c313, 2019-01-14)"><metadata
     id="metadata185"><rdf:RDF><cc:Work
         rdf:about=""><dc:format>image/svg+xml</dc:format><dc:type
           rdf:resource="http://purl.org/dc/dcmitype/StillImage" /><dc:title></dc:title></cc:Work></rdf:RDF></metadata><defs
     id="defs183" /><sodipodi:namedview
     pagecolor="#ffffff"
     bordercolor="#666666"
     borderopacity="1"
     objecttolerance="10"
     gridtolerance="10"
     guidetolerance="10"
     inkscape:pageopacity="0"
     inkscape:pageshadow="2"
     inkscape:window-width="1920"
     inkscape:window-height="1080"
     id="namedview181"
     showgrid="false"
     inkscape:pagecheckerboard="false"
     inkscape:showpageshadow="false"
     inkscape:zoom="4.6357174"
     inkscape:cx="78.993979"
     inkscape:cy="90.06985"
     inkscape:window-x="0"
     inkscape:window-y="0"
     inkscape:window-maximized="1"
     inkscape:current-layer="svg179" /><style
     type="text/css"
     id="style2">
	.st0{display:none;}
	.st1{display:inline;fill:#227E53;}
	.st2{display:inline;fill:#C03922;}
	.st3{display:inline;fill:#FFFFFF;}
	.st4{display:inline;}
	.st5{fill:#FFFFFF;}
	.st6{fill:#C03922;}
	.st7{fill:#1D71B8;}
	.st8{clip-path:url(#SVGID_2_);}
	.st9{clip-path:url(#SVGID_6_);}
	.st10{clip-path:url(#SVGID_10_);}
	.st11{fill-rule:evenodd;clip-rule:evenodd;fill:#E5AA46;}
	.st12{fill-rule:evenodd;clip-rule:evenodd;fill:#74962C;}
	.st13{fill-rule:evenodd;clip-rule:evenodd;fill:#812811;}
	.st14{fill-rule:evenodd;clip-rule:evenodd;fill:#FFE496;}
	.st15{fill-rule:evenodd;clip-rule:evenodd;fill:#F7C062;}
	.st16{fill:#C83325;}
	.st17{fill:#E62D22;}
	.st18{fill-rule:evenodd;clip-rule:evenodd;fill:#FFECB7;}
	.st19{fill:#CB8550;}
	.st20{fill:#EEBD6E;}
	.st21{fill:#9F2016;}
	.st22{fill:#DE5040;}
	.st23{fill:#F8AB36;}
	.st24{fill:#E2942C;}
	.st25{fill:#689E46;}
	.st26{fill:#7EBB5D;}
	.st27{fill-rule:evenodd;clip-rule:evenodd;fill:#FFE7B1;}
	.st28{fill-rule:evenodd;clip-rule:evenodd;fill:#FFF2D9;}
	.st29{fill:#FBF1E4;}
	.st30{fill:#F0A800;}
	.st31{fill:#227E53;}
	.st32{opacity:0.2;}
	.st33{fill:#231F20;}
	.st34{fill:#E1E0D1;}
	.st35{display:inline;fill:none;stroke:#FFFFFF;stroke-width:4;stroke-miterlimit:10;}
	.st36{display:inline;fill:none;stroke:#FFFFFF;stroke-width:3;stroke-miterlimit:10;}
	.st37{clip-path:url(#SVGID_14_);}
	.st38{clip-path:url(#SVGID_18_);}
	.st39{clip-path:url(#SVGID_22_);}
	.st40{display:inline;fill-rule:evenodd;clip-rule:evenodd;fill:none;stroke:#FFFFFF;stroke-width:2;stroke-miterlimit:10;}
	.st41{display:inline;fill:none;stroke:#FFFFFF;stroke-width:5;stroke-miterlimit:10;}
	.st42{clip-path:url(#SVGID_26_);}
	.st43{clip-path:url(#SVGID_30_);}
	.st44{clip-path:url(#SVGID_34_);}
	.st45{clip-path:url(#SVGID_38_);}
	.st46{clip-path:url(#SVGID_42_);}
	.st47{clip-path:url(#SVGID_46_);}
	.st48{clip-path:url(#SVGID_50_);}
	.st49{clip-path:url(#SVGID_54_);}
	.st50{clip-path:url(#SVGID_58_);}
	.st51{clip-path:url(#SVGID_62_);}
	.st52{clip-path:url(#SVGID_66_);}
	.st53{clip-path:url(#SVGID_70_);}
	.st54{fill-rule:evenodd;clip-rule:evenodd;fill:none;stroke:#FFFFFF;stroke-width:2;stroke-miterlimit:10;}
	.st55{fill:none;stroke:#FFFFFF;stroke-width:5;stroke-miterlimit:10;}
	.st56{clip-path:url(#SVGID_74_);}
	.st57{clip-path:url(#SVGID_76_);}
	.st58{clip-path:url(#SVGID_80_);}
	.st59{clip-path:url(#SVGID_84_);}
	.st60{fill-rule:evenodd;clip-rule:evenodd;fill:none;stroke:#FFFFFF;stroke-width:1.552;stroke-miterlimit:10;}
	.st61{fill:none;stroke:#FFFFFF;stroke-width:3.88;stroke-miterlimit:10;}
	.st62{fill:none;stroke:#FFFFFF;stroke-width:2.91;stroke-miterlimit:10;}
	.st63{fill:#324B7F;}
	.st64{fill:#F1F2F2;}
	.st65{fill:#E71D73;}
	.st66{clip-path:url(#SVGID_88_);}
	.st67{clip-path:url(#SVGID_92_);}
	.st68{clip-path:url(#SVGID_96_);}
	.st69{fill:none;stroke:#FFFFFF;stroke-width:3;stroke-miterlimit:10;}
	.st70{fill:none;stroke:#C03922;stroke-miterlimit:10;}
	.st71{fill:none;}
	.st72{clip-path:url(#SVGID_100_);}
	.st73{clip-path:url(#SVGID_104_);}
	.st74{clip-path:url(#SVGID_108_);}
</style><g
     id="Livello_1"
     class="st0"
     style="display:none"
     transform="translate(0,73)" /><g
     id="_x31_40x200_prima_campagna"
     class="st0"
     style="display:none"
     transform="translate(0,73)" /><g
     id="_x31_40x200_prima_campagna_totem_vicino"
     class="st0"
     style="display:none"
     transform="translate(0,73)" /><g
     id="_x31_40x200_siamo_aperti"
     class="st0"
     style="display:none"
     transform="translate(0,73)" /><g
     id="_x31_40x200_aperti_dal_24_x2F_08"
     class="st0"
     style="display:none"
     transform="translate(0,73)" /><g
     id="_x31_40x200_aperti_dal_24_x2F_08_copia"
     class="st0"
     style="display:none"
     transform="translate(0,73)" /><g
     id="g1322"
     transform="matrix(2.0190654,0,0,2.0153761,-18.016367,-165.26118)"
     style="display:none"><path
       style="fill:#f9f9dd;fill-opacity:0.76585364;stroke:#ffffff;stroke-width:5;stroke-miterlimit:10"
       inkscape:connector-curvature="0"
       id="path10"
       d="m 95.6,127.2 c 0,-1.2 -0.2,-2.4 -0.4,-3.5 0.2,-5.4 -0.8,-10.8 -3.4,-15.4 C 90.6,106 89,104 87.3,102 86.8,101.4 86.2,100.8 85.7,100.2 79.3,92.2 69.9,86.6 59,85.1 57.9,85 56.9,84.9 55.8,84.8 51.2,84.2 46.5,84.4 42.1,86 c -1.4,0.5 -2.8,1.1 -4.1,1.8 -2.7,1.4 -5.3,2.4 -7.7,4.4 -1.2,1 -2.6,1.6 -3.9,2.5 -1.2,0.9 -2.4,1.8 -3.5,2.8 -0.7,0.7 -1.3,1.4 -1.9,2.1 -2.5,2.8 -4.9,5.8 -6.3,9.4 -0.6,1.7 -1,3.5 -1.4,5.2 -0.4,1.9 -0.8,3.8 -1.1,5.7 -0.3,1.8 -0.3,3.5 -0.4,5.3 -0.3,3.8 -0.9,7.5 0.3,11.2 0.4,1.1 0.9,2.2 1.5,3.3 1,2 2,4 3.1,6 0.6,1.2 1.2,2.4 1.9,3.5 1.6,2.4 3.8,4.3 5.8,6.3 0.9,0.9 1.7,1.9 2.5,2.8 0.9,1.1 2.5,2 3.7,2.8 4.4,3 9.4,5.2 14.8,6.3 4.7,1.4 9.6,1.8 14.3,0.8 1.4,-0.3 2.8,-0.7 4.2,-1.2 1.8,-0.6 3.6,-1.1 5.3,-1.8 1.8,-0.8 3.5,-1.6 5.2,-2.6 3.4,-1.9 7,-3.8 10,-6.3 2.5,-2 4.4,-4.5 5.9,-7.3 1.4,-2.7 2.7,-5.6 3.4,-8.5 0.1,-0.6 0.3,-1.2 0.4,-1.7 0.6,-3.9 1.7,-7.7 1.5,-11.6 z"
       class="st55" /><g
       transform="translate(0,73)"
       id="g116"><g
         id="g114"><g
           id="g100"><g
             id="g14"><path
               class="st19"
               d="m 93.8,67.5 c 0.1,-0.6 0.3,-1.2 0.4,-1.7 0.7,-3.8 1.7,-7.6 1.6,-11.6 0,-1.2 -0.2,-2.4 -0.4,-3.5 C 95.6,45.3 94.6,39.9 92,35.3 90.8,33 89.2,31 87.5,29 87,28.4 86.4,27.8 85.9,27.2 79.5,19.2 70.1,13.6 59.2,12.1 58.1,12 57.1,11.9 56,11.8 51.4,11.2 46.7,11.4 42.3,13 c -1.4,0.5 -2.8,1.1 -4.1,1.8 -2.7,1.4 -5.3,2.4 -7.7,4.4 -1.2,1 -2.6,1.6 -3.9,2.5 -1.2,0.9 -2.4,1.8 -3.5,2.8 -0.7,0.7 -1.3,1.4 -1.9,2.1 -2.5,2.8 -4.9,5.8 -6.3,9.4 -0.6,1.7 -1,3.5 -1.4,5.2 -0.4,1.9 -0.8,3.8 -1.1,5.7 -0.3,1.8 -0.3,3.5 -0.4,5.3 -0.3,3.8 -0.9,7.5 0.3,11.2 0.4,1.1 0.9,2.2 1.5,3.3 1,2 2,4 3.1,6 0.6,1.2 1.2,2.4 1.9,3.5 1.6,2.4 3.8,4.3 5.8,6.3 0.9,0.9 1.7,1.9 2.5,2.8 0.9,1.1 2.5,2 3.7,2.8 4.4,3 9.4,5.2 14.8,6.3 4.7,1.4 9.6,1.8 14.3,0.8 1.4,-0.3 2.8,-0.7 4.2,-1.2 1.8,-0.6 3.6,-1.1 5.3,-1.8 1.8,-0.8 3.5,-1.6 5.2,-2.6 3.4,-1.9 7,-3.8 10,-6.3 2.5,-2 4.4,-4.5 5.9,-7.3 1.3,-2.7 2.6,-5.5 3.3,-8.5 z"
               id="path12"
               inkscape:connector-curvature="0"
               style="fill:#cb8550" /></g><g
             id="g18"><path
               class="st20"
               d="m 88,74.6 c 0.3,-0.5 0.5,-1 0.7,-1.5 1.4,-3.4 3.1,-6.7 3.8,-10.4 0.2,-1.1 0.3,-2.2 0.4,-3.3 1.2,-4.9 1.4,-10.1 0,-15 C 92.2,42 91.2,39.8 90,37.6 89.6,36.9 89.3,36.3 88.9,35.6 84.6,26.9 77.1,19.8 67.2,16.2 c -1,-0.3 -1.9,-0.7 -2.9,-0.9 -4.1,-1.5 -8.5,-2.2 -12.9,-1.7 -1.4,0.2 -2.8,0.5 -4.2,0.8 -2.8,0.7 -5.4,1.2 -8,2.5 -1.3,0.7 -2.8,1 -4.1,1.5 -1.3,0.5 -2.6,1.2 -3.8,1.9 -0.7,0.5 -1.5,1 -2.2,1.5 -2.9,2.1 -5.7,4.4 -7.7,7.4 -0.9,1.4 -1.7,3 -2.4,4.5 -0.8,1.7 -1.5,3.4 -2.2,5.1 -0.6,1.6 -1,3.2 -1.5,4.8 -1,3.5 -2.4,6.7 -2,10.5 0.1,1.1 0.4,2.2 0.7,3.3 0.5,2.1 1.1,4.1 1.6,6.2 0.3,1.2 0.6,2.4 1.1,3.6 1,2.5 2.6,4.8 4.1,7 0.7,1 1.2,2.1 1.7,3.1 0.6,1.2 1.9,2.4 2.9,3.4 3.5,3.7 7.6,6.7 12.4,8.8 4,2.2 8.5,3.6 13.1,3.7 1.4,0 2.7,-0.1 4.1,-0.3 1.8,-0.2 3.5,-0.3 5.3,-0.6 1.8,-0.3 3.6,-0.8 5.4,-1.3 3.5,-1.1 7.2,-2.1 10.5,-3.8 2.7,-1.3 5,-3.3 6.9,-5.6 1.9,-2 3.6,-4.4 4.9,-7 z"
               id="path16"
               inkscape:connector-curvature="0"
               style="fill:#eebd6e" /></g><g
             id="g22"><path
               class="st21"
               d="m 77.8,82.2 c 0.4,-0.4 0.7,-0.8 1.1,-1.2 2.3,-2.6 4.8,-5 6.4,-8.1 0.5,-0.9 0.9,-1.9 1.3,-2.8 2.5,-4 4.2,-8.5 4.4,-13.2 0.1,-2.3 -0.2,-4.6 -0.5,-6.8 C 90.4,49.4 90.3,48.7 90.1,48 88.9,39.1 84.3,30.6 76.7,24.5 76,23.9 75.2,23.4 74.4,22.8 71.2,20.2 67.5,18.3 63.5,17.5 62.2,17.2 60.9,17.1 59.5,17 56.8,16.8 54.3,16.4 51.7,16.8 50.4,17 49,16.9 47.6,17 c -1.3,0.1 -2.6,0.3 -3.9,0.6 -0.8,0.2 -1.6,0.4 -2.4,0.7 -3.2,1 -6.4,2.2 -9,4.3 -1.2,1 -2.3,2.2 -3.4,3.3 -1.2,1.3 -2.3,2.5 -3.4,3.8 -1,1.2 -1.8,2.5 -2.7,3.8 -1.9,2.8 -4.1,5.2 -4.8,8.7 -0.2,1 -0.3,2.1 -0.4,3.2 -0.1,2 -0.3,4 -0.4,5.9 -0.1,1.2 -0.2,2.3 -0.1,3.5 0.1,2.5 0.9,5 1.5,7.4 0.3,1.1 0.4,2.2 0.6,3.3 0.2,1.3 1,2.6 1.5,3.8 2,4.3 4.8,8.2 8.4,11.4 2.9,3.1 6.4,5.7 10.5,7.1 1.2,0.4 2.4,0.7 3.7,1 1.6,0.3 3.2,0.8 4.8,1 1.7,0.2 3.4,0.3 5.1,0.4 3.4,0.1 7,0.2 10.4,-0.2 2.8,-0.4 5.3,-1.4 7.7,-2.9 2.4,-1.4 4.6,-3 6.5,-4.9 z"
               id="path20"
               inkscape:connector-curvature="0"
               style="fill:#9f2016" /></g><g
             id="g26"><path
               class="st22"
               d="m 68.7,85.7 c 0.4,-0.3 0.9,-0.5 1.3,-0.8 2.7,-1.8 5.6,-3.4 7.9,-5.8 0.7,-0.7 1.3,-1.5 1.9,-2.3 3.3,-3 6,-6.8 7.3,-11 0.6,-2.1 1,-4.2 1.2,-6.4 0.1,-0.7 0.1,-1.3 0.1,-2 1,-8.5 -1,-17.4 -6.6,-24.8 -0.5,-0.7 -1.1,-1.4 -1.7,-2.1 -2.3,-3.1 -5.2,-5.8 -8.7,-7.5 -1.1,-0.6 -2.3,-1 -3.5,-1.4 -2.4,-0.8 -4.6,-1.8 -7.1,-2.1 -1.3,-0.1 -2.5,-0.6 -3.8,-0.9 -1.2,-0.2 -2.5,-0.4 -3.7,-0.4 -0.8,0 -1.6,0 -2.3,0.1 -3.2,0.2 -6.4,0.5 -9.3,1.7 -1.4,0.6 -2.7,1.4 -4,2.2 -1.4,0.9 -2.7,1.7 -4.1,2.7 -1.2,0.9 -2.3,1.9 -3.4,2.8 -2.4,2.1 -5,3.8 -6.5,6.8 -0.5,0.9 -0.8,1.9 -1.1,2.8 -0.6,1.8 -1.2,3.6 -1.8,5.4 -0.4,1.1 -0.7,2.1 -0.9,3.2 -0.5,2.4 -0.4,4.8 -0.4,7.2 0,1.1 -0.2,2.1 -0.3,3.1 -0.1,1.2 0.3,2.7 0.5,3.9 0.8,4.4 2.4,8.6 4.9,12.5 1.9,3.6 4.5,6.8 7.9,9 1,0.7 2,1.3 3.1,1.8 1.4,0.7 2.7,1.5 4.2,2.1 1.5,0.6 3,1.1 4.6,1.6 3.1,0.9 6.4,1.9 9.6,2.3 2.7,0.3 5.2,0 7.8,-0.8 2.3,-0.7 4.7,-1.6 6.9,-2.9 z"
               id="path24"
               inkscape:connector-curvature="0"
               style="fill:#de5040" /></g><g
             id="g30"><path
               class="st23"
               d="m 57.4,85.9 c 0.4,-0.1 0.9,-0.2 1.3,-0.3 2.9,-0.8 5.9,-1.4 8.5,-2.8 0.8,-0.4 1.6,-0.9 2.3,-1.4 3.8,-1.7 7.2,-4.2 9.5,-7.5 1.2,-1.6 2.1,-3.4 2.9,-5.2 0.3,-0.6 0.5,-1.1 0.7,-1.7 3.4,-7.1 4.2,-15.4 1.5,-23.5 -0.3,-0.8 -0.5,-1.6 -0.9,-2.3 -1.1,-3.4 -2.9,-6.6 -5.4,-9.1 -0.8,-0.8 -1.7,-1.6 -2.6,-2.3 -1.9,-1.4 -3.5,-2.9 -5.6,-3.9 -1.1,-0.5 -2,-1.3 -3,-1.8 -1,-0.6 -2,-1.1 -3.1,-1.5 -0.7,-0.2 -1.4,-0.4 -2.1,-0.6 -2.8,-0.8 -5.7,-1.5 -8.6,-1.2 -1.4,0.1 -2.7,0.4 -4.1,0.8 -1.4,0.3 -2.9,0.7 -4.3,1.1 -1.3,0.4 -2.5,1 -3.8,1.5 -2.7,1.1 -5.5,1.8 -7.6,4 -0.7,0.6 -1.2,1.4 -1.8,2.1 -1,1.4 -2.1,2.8 -3.1,4.1 -0.6,0.8 -1.2,1.6 -1.7,2.5 -1.1,1.9 -1.7,4 -2.4,6.1 -0.3,0.9 -0.7,1.8 -1.1,2.6 -0.5,1 -0.5,2.4 -0.7,3.5 -0.6,4 -0.4,8.2 0.6,12.3 0.6,3.7 1.9,7.2 4.2,10.1 0.7,0.9 1.4,1.7 2.2,2.5 1,1 1.9,2.1 3,3.1 1.1,1 2.3,1.9 3.5,2.7 2.4,1.7 5,3.5 7.7,4.8 2.2,1.1 4.6,1.5 7,1.6 2.3,0.3 4.7,0.2 7,-0.3 z"
               id="path28"
               inkscape:connector-curvature="0"
               style="fill:#f8ab36" /></g><g
             id="g34"><path
               class="st20"
               d="m 42.4,50.1 c 0.6,0.3 1.3,0.5 2,0.5 0.5,0 1,-0.2 1.5,-0.6 3.3,-3.2 -0.3,-5.9 -2.6,-5.3 -2.8,0.6 -4.5,3.7 -0.9,5.4 z"
               id="path32"
               inkscape:connector-curvature="0"
               style="fill:#eebd6e" /></g><g
             id="g38"><path
               class="st20"
               d="m 45.1,47.1 c 0.6,0.3 1.3,0.5 2,0.5 0.5,0 1,-0.2 1.5,-0.6 3.3,-3.2 -0.3,-5.9 -2.6,-5.3 -2.8,0.7 -4.5,3.8 -0.9,5.4 z"
               id="path36"
               inkscape:connector-curvature="0"
               style="fill:#eebd6e" /></g><g
             id="g42"><path
               class="st20"
               d="m 64.4,56.5 c 0.6,0.3 1.3,0.5 2,0.5 0.5,0 1,-0.2 1.5,-0.6 3.3,-3.2 -0.3,-5.9 -2.6,-5.3 -2.8,0.7 -4.6,3.8 -0.9,5.4 z"
               id="path40"
               inkscape:connector-curvature="0"
               style="fill:#eebd6e" /></g><g
             id="g46"><path
               class="st20"
               d="m 48.5,36.5 c 0.6,0.3 1.3,0.5 2,0.5 0.5,0 1,-0.2 1.5,-0.6 3.3,-3.2 -0.3,-5.9 -2.6,-5.3 -2.8,0.6 -4.6,3.7 -0.9,5.4 z"
               id="path44"
               inkscape:connector-curvature="0"
               style="fill:#eebd6e" /></g><g
             id="g50"><path
               class="st20"
               d="m 58.3,67.6 c 0.6,0.3 1.3,0.5 2,0.5 0.5,0 1,-0.2 1.5,-0.6 3.3,-3.2 -0.3,-5.9 -2.6,-5.3 -2.8,0.7 -4.5,3.8 -0.9,5.4 z"
               id="path48"
               inkscape:connector-curvature="0"
               style="fill:#eebd6e" /></g><g
             id="g54"><path
               class="st20"
               d="m 62.6,37.3 c 0.4,0.2 0.8,0.3 1.2,0.3 0.3,0 0.6,-0.1 0.9,-0.4 1.9,-1.9 -0.2,-3.5 -1.6,-3.2 -1.6,0.5 -2.6,2.3 -0.5,3.3 z"
               id="path52"
               inkscape:connector-curvature="0"
               style="fill:#eebd6e" /></g><g
             id="g58"><path
               class="st20"
               d="m 46.3,72.9 c 0.4,0.2 0.8,0.3 1.2,0.3 0.3,0 0.6,-0.1 0.9,-0.4 1.9,-1.9 -0.2,-3.5 -1.6,-3.2 -1.6,0.5 -2.7,2.3 -0.5,3.3 z"
               id="path56"
               inkscape:connector-curvature="0"
               style="fill:#eebd6e" /></g><g
             id="g62"><path
               class="st24"
               d="m 46.7,61.6 c 0.4,0.2 0.8,0.3 1.2,0.3 0.3,0 0.6,-0.1 0.9,-0.4 1.9,-1.9 -0.2,-3.5 -1.6,-3.2 -1.6,0.5 -2.6,2.3 -0.5,3.3 z"
               id="path60"
               inkscape:connector-curvature="0"
               style="fill:#e2942c" /></g><g
             id="g66"><path
               class="st24"
               d="m 53.9,56 c 0.6,0.3 1.4,0.5 2,0.5 0.5,0 1.1,-0.2 1.5,-0.6 3.3,-3.2 -0.3,-6 -2.7,-5.4 -2.7,0.6 -4.5,3.8 -0.8,5.5 z"
               id="path64"
               inkscape:connector-curvature="0"
               style="fill:#e2942c" /></g><g
             id="g70"><path
               class="st24"
               d="m 70.8,46.1 c 0.4,0.2 0.8,0.3 1.2,0.3 0.3,0 0.6,-0.1 0.9,-0.4 2,-1.9 -0.2,-3.6 -1.6,-3.3 -1.7,0.5 -2.7,2.4 -0.5,3.4 z"
               id="path68"
               inkscape:connector-curvature="0"
               style="fill:#e2942c" /></g><g
             id="g74"><path
               class="st24"
               d="m 34.6,55.6 c 0.4,0.2 0.8,0.3 1.2,0.3 0.3,0 0.6,-0.1 0.9,-0.4 2,-1.9 -0.2,-3.6 -1.6,-3.3 -1.7,0.5 -2.8,2.4 -0.5,3.4 z"
               id="path72"
               inkscape:connector-curvature="0"
               style="fill:#e2942c" /></g><g
             id="g78"><path
               class="st24"
               d="m 33.3,43.2 c 0.4,0.2 0.8,0.3 1.2,0.3 0.3,0 0.6,-0.1 0.9,-0.4 2,-1.9 -0.2,-3.6 -1.6,-3.3 -1.6,0.5 -2.7,2.4 -0.5,3.4 z"
               id="path76"
               inkscape:connector-curvature="0"
               style="fill:#e2942c" /></g><g
             id="g82"><path
               class="st24"
               d="m 67.4,72.9 c 0.4,0.2 0.8,0.3 1.2,0.3 0.3,0 0.6,-0.1 0.9,-0.4 2,-1.9 -0.2,-3.6 -1.6,-3.3 -1.6,0.5 -2.7,2.4 -0.5,3.4 z"
               id="path80"
               inkscape:connector-curvature="0"
               style="fill:#e2942c" /></g><g
             id="g86"><path
               class="st24"
               d="m 34.6,68.9 c 0.4,0.2 0.8,0.3 1.2,0.3 0.3,0 0.6,-0.1 0.9,-0.4 1.9,-1.9 -0.2,-3.5 -1.6,-3.2 -1.6,0.5 -2.7,2.3 -0.5,3.3 z"
               id="path84"
               inkscape:connector-curvature="0"
               style="fill:#e2942c" /></g><g
             id="g90"><path
               class="st24"
               d="m 55.3,80.3 c 0.4,0.2 0.8,0.3 1.2,0.3 0.3,0 0.6,-0.1 0.9,-0.4 2,-1.9 -0.2,-3.6 -1.6,-3.3 -1.7,0.5 -2.7,2.3 -0.5,3.4 z"
               id="path88"
               inkscape:connector-curvature="0"
               style="fill:#e2942c" /></g><g
             id="g94"><path
               class="st20"
               d="m 77.5,59.1 c 0.4,0.2 0.8,0.3 1.2,0.3 0.3,0 0.6,-0.1 0.9,-0.4 1.9,-1.9 -0.2,-3.5 -1.6,-3.2 -1.6,0.5 -2.7,2.3 -0.5,3.3 z"
               id="path92"
               inkscape:connector-curvature="0"
               style="fill:#eebd6e" /></g><g
             id="g98"><path
               class="st20"
               d="m 58.9,28.1 c 0.4,0.2 0.8,0.3 1.2,0.3 0.3,0 0.6,-0.1 0.9,-0.4 1.9,-1.9 -0.2,-3.5 -1.6,-3.2 -1.7,0.5 -2.7,2.3 -0.5,3.3 z"
               id="path96"
               inkscape:connector-curvature="0"
               style="fill:#eebd6e" /></g></g><g
           id="g104"><path
             class="st20"
             d="m 43,32.1 c 0.4,0.2 0.8,0.3 1.2,0.3 0.3,0 0.6,-0.1 0.9,-0.4 1.9,-1.9 -0.2,-3.5 -1.6,-3.2 -1.7,0.5 -2.7,2.3 -0.5,3.3 z"
             id="path102"
             inkscape:connector-curvature="0"
             style="fill:#eebd6e" /></g><g
           id="g108"><path
             class="st20"
             d="m 34,61.4 c 0.4,0.2 0.8,0.3 1.2,0.3 0.3,0 0.6,-0.1 0.9,-0.4 1.9,-1.9 -0.2,-3.5 -1.6,-3.2 -1.7,0.5 -2.7,2.3 -0.5,3.3 z"
             id="path106"
             inkscape:connector-curvature="0"
             style="fill:#eebd6e" /></g><g
           id="g112"><path
             class="st24"
             d="m 31.3,43.2 c 0.6,0.3 1.4,0.5 2,0.5 0.5,0 1.1,-0.2 1.5,-0.6 3.3,-3.2 -0.3,-6 -2.7,-5.4 -2.7,0.7 -4.5,3.8 -0.8,5.5 z"
             id="path110"
             inkscape:connector-curvature="0"
             style="fill:#e2942c" /></g></g></g><g
       transform="translate(0,73)"
       id="g122"><path
         class="st25"
         d="m 59.3,45.8 c 0.2,0.4 0.5,0.8 1,1.2 0.1,0.1 0.1,0.1 0.2,0.2 2.7,-3.9 5.8,-7.4 8.6,-11.3 -4,2.6 -6.7,6.3 -9.8,9.9 z"
         id="path118"
         inkscape:connector-curvature="0"
         style="fill:#689e46" /><path
         class="st26"
         d="m 71.6,34.7 0.2,-1.9 c 0.1,-0.7 -0.7,-1.2 -1.3,-0.8 -2.6,1.6 -5.5,2.6 -7.8,4.6 -2.1,1.8 -4.9,6.3 -3.4,9.3 3.1,-3.5 5.8,-7.3 9.8,-10 -2.8,3.9 -5.9,7.4 -8.6,11.3 3.2,2.2 8,-2.9 9.5,-5.4 1.2,-2.2 1.4,-4.7 1.6,-7.1 z"
         id="path120"
         inkscape:connector-curvature="0"
         style="fill:#7ebb5d" /></g><g
       transform="translate(0,73)"
       id="g128"><path
         class="st25"
         d="m 45.8,41.8 c -0.1,0.4 -0.3,0.7 -0.6,1 0,0 -0.1,0.1 -0.1,0.1 -2.4,-2.6 -5,-4.9 -7.5,-7.6 3.1,1.6 5.5,4.1 8.2,6.5 z"
         id="path124"
         inkscape:connector-curvature="0"
         style="fill:#689e46" /><path
         class="st26"
         d="m 35.5,34.7 -0.3,-1.4 c -0.1,-0.5 0.4,-1 0.9,-0.7 2.1,0.9 4.4,1.4 6.3,2.6 1.7,1.2 4.2,4.2 3.4,6.6 -2.7,-2.3 -5.1,-4.9 -8.3,-6.5 2.5,2.7 5.1,4.9 7.5,7.6 -2.2,2 -6.2,-1.3 -7.6,-3.1 -1.1,-1.4 -1.5,-3.3 -1.9,-5.1 z"
         id="path126"
         inkscape:connector-curvature="0"
         style="fill:#7ebb5d" /></g><g
       transform="translate(0,73)"
       id="g134"><path
         class="st25"
         d="m 62.5,61.8 c 0.1,-0.4 0.3,-0.7 0.5,-1 0,-0.1 0.1,-0.1 0.1,-0.1 2.6,2.5 5.4,4.5 8.1,7 -3.3,-1.5 -5.8,-3.8 -8.7,-5.9 z"
         id="path130"
         inkscape:connector-curvature="0"
         style="fill:#689e46" /><path
         class="st26"
         d="m 73.3,68 0.4,1.4 c 0.2,0.5 -0.3,1 -0.8,0.8 -2.1,-0.7 -4.5,-1 -6.4,-2.2 -1.8,-1 -4.6,-3.9 -3.9,-6.3 2.9,2.1 5.4,4.5 8.8,5.8 -2.7,-2.5 -5.5,-4.5 -8.1,-7 2,-2.1 6.3,0.9 7.8,2.5 1.1,1.4 1.7,3.2 2.2,5 z"
         id="path132"
         inkscape:connector-curvature="0"
         style="fill:#7ebb5d" /></g><g
       transform="translate(0,73)"
       id="g160"><g
         id="g140"><path
           class="st27"
           d="m 68.7,46 c 8.7,-2.1 14.6,8.3 2.6,11.1 C 59.7,59.9 59.9,48 68.7,46 Z"
           id="path136"
           inkscape:connector-curvature="0"
           style="clip-rule:evenodd;fill:#ffe7b1;fill-rule:evenodd" /><path
           class="st28"
           d="m 68.9,46.8 c 7.5,-1.8 12.5,7.1 2.2,9.5 -9.9,2.3 -9.7,-7.8 -2.2,-9.5 z"
           id="path138"
           inkscape:connector-curvature="0"
           style="clip-rule:evenodd;fill:#fff2d9;fill-rule:evenodd" /></g><g
         id="g146"><path
           class="st27"
           d="M 60.2,35.5 C 58.4,44.3 46.6,45.3 49,33.2 51.3,21.5 61.9,26.7 60.2,35.5 Z"
           id="path142"
           inkscape:connector-curvature="0"
           style="clip-rule:evenodd;fill:#ffe7b1;fill-rule:evenodd" /><path
           class="st28"
           d="m 59.4,35.4 c -1.5,7.5 -11.7,8.4 -9.6,-1.9 2,-10.1 11.1,-5.7 9.6,1.9 z"
           id="path144"
           inkscape:connector-curvature="0"
           style="clip-rule:evenodd;fill:#fff2d9;fill-rule:evenodd" /></g><g
         id="g152"><path
           class="st27"
           d="m 40.3,45.9 c 9,0.3 11.9,11.8 -0.4,11.4 -12,-0.4 -8.6,-11.7 0.4,-11.4 z"
           id="path148"
           inkscape:connector-curvature="0"
           style="clip-rule:evenodd;fill:#ffe7b1;fill-rule:evenodd" /><path
           class="st28"
           d="M 40.3,46.7 C 48,47 50.5,56.8 40,56.5 29.7,56.2 32.6,46.5 40.3,46.7 Z"
           id="path150"
           inkscape:connector-curvature="0"
           style="clip-rule:evenodd;fill:#fff2d9;fill-rule:evenodd" /></g><g
         id="g158"><path
           class="st27"
           d="M 60.2,70.7 C 58.4,79.5 46.6,80.5 49,68.4 51.3,56.7 61.9,61.9 60.2,70.7 Z"
           id="path154"
           inkscape:connector-curvature="0"
           style="clip-rule:evenodd;fill:#ffe7b1;fill-rule:evenodd" /><path
           class="st28"
           d="m 59.4,70.5 c -1.5,7.5 -11.7,8.4 -9.6,-1.9 2,-10 11.1,-5.6 9.6,1.9 z"
           id="path156"
           inkscape:connector-curvature="0"
           style="clip-rule:evenodd;fill:#fff2d9;fill-rule:evenodd" /></g></g><g
       transform="translate(0,73)"
       id="g166"><path
         class="st25"
         d="m 45.2,59.8 c 0.5,0.1 0.9,0.4 1.4,0.8 0.1,0.1 0.1,0.1 0.2,0.2 -3.4,3.3 -6.3,7 -9.7,10.4 1.9,-4.5 5.2,-7.8 8.1,-11.4 z"
         id="path162"
         inkscape:connector-curvature="0"
         style="fill:#689e46" /><path
         class="st26"
         d="m 36.4,73.8 -1.9,0.5 c -0.7,0.2 -1.3,-0.5 -1,-1.2 1.1,-2.8 1.6,-5.9 3.2,-8.5 1.4,-2.3 5.4,-5.9 8.5,-4.9 -3,3.7 -6.2,7 -8.2,11.3 3.4,-3.4 6.3,-7.1 9.7,-10.4 2.7,2.8 -1.5,8.4 -3.7,10.3 -1.8,1.6 -4.2,2.3 -6.6,2.9 z"
         id="path164"
         inkscape:connector-curvature="0"
         style="fill:#7ebb5d" /></g><g
       transform="translate(0,73)"
       id="g172"><path
         class="st25"
         d="m 56.8,56.2 c -0.2,0.3 -0.5,0.5 -0.9,0.7 -0.1,0 -0.1,0.1 -0.2,0.1 -1.2,-3.3 -2.9,-6.4 -4.2,-9.8 2.4,2.6 3.6,5.8 5.3,9 z"
         id="path168"
         inkscape:connector-curvature="0"
         style="fill:#689e46" /><path
         class="st26"
         d="M 49.8,45.8 50,44.4 c 0.1,-0.5 0.7,-0.7 1.1,-0.4 1.6,1.6 3.6,2.9 4.8,4.8 1.2,1.7 2.4,5.5 0.8,7.4 -1.6,-3.1 -2.9,-6.4 -5.3,-9.1 1.3,3.4 3,6.5 4.2,9.8 -2.8,1 -5.3,-3.5 -5.9,-5.7 -0.5,-1.7 -0.2,-3.6 0.1,-5.4 z"
         id="path170"
         inkscape:connector-curvature="0"
         style="fill:#7ebb5d" /></g></g><path
     style="display:inline;fill:#ff0000;fill-rule:evenodd;stroke:#000000;stroke-width:2;stroke-miterlimit:4;stroke-dasharray:none;stroke-opacity:1"
     d="M 178.1817,89.830574 A 88.227989,88.227989 0 0 1 89.953712,178.05856 88.227989,88.227989 0 0 1 1.7257233,89.830574 88.227989,88.227989 0 0 1 89.953712,1.6025848 88.227989,88.227989 0 0 1 178.1817,89.830574 Z"
     id="path906"
     inkscape:connector-curvature="0" /><ellipse
     style="display:inline;fill:#fbe870;fill-rule:evenodd"
     id="path913"
     cx="90"
     cy="90"
     rx="4.7457595"
     ry="4.9614758" /><g
     transform="translate(-178.44234,-213.46995)"
     id="layer1"><g
       transform="translate(20.32,125.63)"
       id="Layer_1"><path
         d="m 322.28065,140.8965 c -0.0751,1.82155 0.71636,5.53316 -6.18758,17.05433 -7.70789,12.86629 -19.59506,23.55848 -31.25074,32.21735 -7.02907,5.22097 -14.23331,9.45967 -21.71285,13.21039 -1.94574,-0.63502 -4.34194,-1.47025 -7.01968,-2.5182 -0.0188,-0.003 -0.0344,-0.0125 -0.0532,-0.0188 1.85815,-0.92283 3.86646,-1.95514 6.06245,-3.12508 21.52829,-11.45548 25.51674,-18.36255 25.32905,-18.55023 -0.18769,-0.1877 -5.59948,6.11875 -24.15598,16.92356 -2.70276,1.57349 -5.47122,2.99995 -8.29286,4.30128 -2.08963,-0.86338 -4.1386,-1.80497 -5.88727,-2.69338 9.01235,-3.90712 18.61593,-8.77148 26.48648,-13.97367 12.10927,-8.00507 23.51157,-17.38655 32.55207,-27.92233 8.26158,-9.62361 11.65568,-14.57899 12.17809,-15.55561 0.81646,-1.53532 2.13031,-3.6503 1.952,0.65035 z m -5.49312,10.58802 c -0.25652,-0.087 -2.08026,4.68636 -8.59317,12.66953 -6.49728,7.96753 -12.32825,12.7568 -12.06548,13.01645 0.25965,0.25963 5.23975,-3.27211 12.84753,-12.75681 6.84451,-8.53061 8.07389,-12.84314 7.81112,-12.92917 z m -47.98036,6.11282 c -0.9541,0.25964 -1.42646,-0.90406 -1.49841,-1.86128 -0.17518,-2.25606 0.20959,-3.60557 0.0219,-4.80961 -0.20958,-1.36358 0.53493,-3.57084 -1.16368,-2.83916 -0.96349,0.41512 -0.16267,1.48809 0.18456,2.61581 0.34723,1.12802 0.25963,4.9266 0.25963,5.72742 0,1.38892 0.78206,2.20225 2.86544,2.94989 2.3962,0.86339 0.49113,6.47538 -1.82061,7.11666 -2.40246,0.66944 -3.75072,-0.98851 -5.47123,-0.69446 -3.03749,0.52241 -2.43061,3.47231 -3.03749,4.42641 -0.60686,0.9541 -0.60686,0.9541 -1.64855,1.99579 -0.76641,0.76641 -1.26692,1.37954 -1.80498,1.86441 0.0845,0.0719 0.1439,0.19707 0.15954,0.40667 0.0657,0.91343 0.79769,1.61415 0.79769,2.52445 0,0.91031 -0.29092,1.23564 -1.46399,1.49528 -1.16995,0.25965 -1.68611,-0.19395 -1.75179,-0.58497 -0.0657,-0.39103 0.097,-1.81436 0.28778,-2.57451 0.0594,-0.25026 0.14703,-0.40354 0.23775,-0.50677 -0.95098,0.17205 -2.13969,0.24087 -2.97179,0.24087 h -0.0939 c 0.20021,0.13451 0.41918,0.36287 0.55682,0.78205 0.33159,0.98851 0.38164,1.73303 0.44733,2.318 0.0657,0.58498 -0.71635,0.78205 -1.4984,0.84775 -0.78206,0.0657 -1.69236,-0.19396 -1.82374,-0.52242 -0.12826,-0.32533 0.0845,-1.67984 0.21897,-2.38368 0.0813,-0.42857 0.51616,-0.7977 0.854,-1.02293 -0.88216,0.0188 -1.81749,0.05 -2.77472,0.0657 0.25339,0.27216 0.50364,0.61001 0.56308,0.93534 0.13138,0.70071 0.4223,1.75805 0.35974,2.21163 -0.0688,0.4536 -0.26277,0.58498 -1.4984,0.65067 -1.23878,0.0657 -1.65482,-0.12825 -1.78621,-0.3879 -0.13138,-0.26277 0.0938,-1.82374 0.25025,-2.46815 0.0845,-0.3441 0.34098,-0.68507 0.57872,-0.93845 -0.77267,-0.007 -1.5422,-0.0375 -2.28984,-0.10011 0.18457,0.5099 1.02292,1.38267 0.80082,2.78723 -0.12513,0.77892 -0.49113,1.10425 -2.18036,1.10738 -0.976,0.003 -1.42645,-0.65067 -1.42959,-1.10425 -0.007,-1.24816 0.52242,-2.12092 0.80083,-3.01246 -0.93847,-0.10636 -1.5078,-0.18144 -1.97078,-0.37538 0.0657,0.4223 0.31596,1.53281 0.4536,2.66835 0.0876,0.71636 -0.25964,1.10738 -1.10739,1.10738 -0.84461,0 -1.36702,-0.45359 -1.36702,-0.84461 0,-1.04169 1.52969,-2.97805 1.65482,-3.06251 0.0125,-0.009 0.0282,-0.0219 0.0438,-0.0313 -0.0876,-0.0532 -0.1783,-0.11575 -0.2659,-0.18457 -0.78205,-0.60687 -1.73615,-1.47025 -2.24292,-3.67251 -0.50989,-2.20225 -0.32846,-3.54425 -2.02395,-4.56091 -1.69235,-1.01667 -4.74547,1.41394 -6.27204,1.2544 -1.69862,-0.1783 -3.84769,-3.57553 -3.98532,-5.17717 -0.16268,-1.87067 1.6642,-1.00102 2.70276,-3.36907 0.66005,-1.5078 0.003,-3.3941 0.003,-7.62718 0,-4.23497 1.45773,-6.39123 2.37743,-8.4693 0.66943,-1.51249 -0.25964,-2.63707 0.92282,-6.58956 1.00728,-3.37533 1.91758,-4.63098 1.91758,-4.63098 0,0 -1.62353,1.33668 -2.58076,4.48647 -0.84462,2.78753 -0.58497,4.19304 -1.2638,6.39498 -0.67882,2.20193 -1.70174,3.65249 -2.21163,7.04001 -0.50677,3.38784 0.3441,7.51863 -0.50677,8.88566 -0.57559,0.92282 -2.47754,-0.0751 -2.72467,-3.4723 -0.21272,-2.91799 -0.59123,-8.68546 -0.0845,-12.07299 0.5099,-3.38784 0.81021,-2.12811 2.60267,-8.3573 2.11153,-7.34157 11.32096,-11.81115 22.31659,-11.961 9.60671,-0.13106 13.11655,2.98056 16.25413,5.94359 3.2721,3.09067 5.55569,7.41322 6.25014,10.19043 0.69447,2.77722 1.30134,3.92965 1.73616,6.2733 0.43482,2.34271 0.2002,5.74588 -0.22523,7.43823 -0.46923,1.88256 -1.39518,5.17655 -2.6402,5.51753 z m -26.34884,-7.45795 c -1.23877,-1.95262 -4.56093,-2.29047 -7.09789,-2.4084 -2.79974,-0.13045 -4.33256,0.73137 -4.62349,2.86418 -0.23461,1.71957 0.0657,4.29627 0.65067,6.18258 0.5099,1.6423 2.5401,3.84143 4.29815,3.57866 1.41394,-0.20646 4.4264,-2.46189 6.18446,-4.48897 1.0542,-1.21374 1.18246,-4.78771 0.5881,-5.72805 z m 3.90712,5.27134 c -0.65379,0.0469 -1.62979,2.21163 -2.08338,4.94568 -0.30031,1.80185 -1.49528,4.31692 -1.23877,5.85912 0.17205,1.03544 1.13241,1.18246 1.69236,0.0657 0.45671,-0.91344 0.71636,-1.75805 1.36702,-1.75805 0.65067,0 2.08964,3.81327 2.93113,3.71005 0.97287,-0.11887 2.16784,-1.62667 2.01768,-3.5161 -0.13138,-1.62667 -0.78204,-3.25333 -1.75804,-4.94569 -0.976,-1.69236 -2.28359,-4.40451 -2.928,-4.36071 z m 15.81932,-5.27134 c -0.976,-1.30227 -2.66836,-2.4084 -5.99051,-2.21288 -2.74656,0.16141 -5.48061,1.27067 -5.72774,3.12382 -0.25964,1.95262 0.29405,2.97148 1.36702,4.2947 1.10739,1.36703 4.23246,4.03538 6.25016,4.16677 2.01768,0.13138 3.77574,-0.32534 4.03537,-2.34302 0.26277,-2.0177 1.0417,-5.72806 0.0657,-7.02939 z m -4.4921,31.69807 c 1.5641,-1.5641 1.30446,-4.23246 1.95512,-7.61717 0.65067,-3.38471 1.82062,-4.4264 2.60267,-5.59635 0.78205,-1.17308 2.64646,-1.01354 2.86543,-0.52242 0.25964,0.58811 -0.53492,4.53903 -1.30446,7.09477 -1.16994,3.90712 -1.23564,5.46809 -1.30133,7.48579 -0.0532,1.72363 -2.79974,3.05937 -4.23245,4.4264 -1.43272,1.3639 -2.73406,3.90399 -4.49211,4.42328 -1.75805,0.52241 -4.23245,-0.3879 -6.90081,-0.32533 -2.66835,0.0657 -5.33984,0.71635 -6.76943,0.19395 -1.43271,-0.51928 -3.06251,-2.928 -4.88625,-4.55467 -1.82061,-1.62666 -3.96968,-2.60266 -4.62035,-4.16363 -0.65067,-1.5641 0,-3.45042 -0.13139,-5.85912 -0.12826,-2.40872 -0.77892,-3.904 -1.43271,-5.33672 -0.65067,-1.43272 -0.21585,-2.46502 0.84774,-2.8623 1.56097,-0.58498 2.66836,0.71635 3.45041,3.18763 0.81645,2.58077 1.53907,4.09795 1.69235,6.25015 0.19708,2.73092 0.58811,3.25333 1.49841,4.22933 0.51928,0.55682 1.47652,0.88841 2.48067,1.16682 -0.18456,-0.488 -0.35036,-1.12302 -0.2659,-2.27421 0.0406,-0.5881 0.51928,-0.78205 1.56097,-0.84774 1.04169,-0.0626 1.73302,0.19708 1.75805,0.71949 0.0876,1.71426 -0.33159,2.44938 -0.63189,3.02497 0.56307,0.0876 1.38892,0.13764 2.33989,0.16579 -0.35348,-0.70696 -0.72887,-1.5203 -0.732,-2.86856 0,-0.76953 0.5881,-0.65066 1.5641,-0.71323 0.976,-0.0657 1.98015,-0.0782 2.01769,0.58498 0.0751,1.33887 -0.38164,2.20851 -0.80082,3.02497 0.70384,0.003 1.41707,-0.003 2.09903,-0.0125 -0.28467,-0.88215 -0.53492,-2.02082 -0.3879,-3.01246 0.0594,-0.39416 0.91344,-0.5224 1.69548,-0.58497 0.77893,-0.0657 1.7299,0.31907 1.75805,0.77892 0.0563,1.01354 -0.25025,1.9958 -0.60374,2.76846 0.46923,-0.0125 0.8759,-0.0251 1.18559,-0.0344 0.29718,-0.009 0.59123,-0.0282 0.88841,-0.0625 -0.33472,-0.6319 -0.66318,-1.43272 -0.62565,-2.08339 0.0282,-0.52554 1.17309,-1.62979 2.08339,-1.5641 0.72574,0.0532 1.50467,0.20646 1.54533,0.59749 0.0845,0.82272 -0.17518,1.7205 -0.49113,2.46814 1.0198,-0.38163 1.96138,-0.94158 2.72154,-1.69547 z m 20.63049,27.14028 c 0,0 0.10011,1.34825 -2.94051,2.47128 -1.78933,0.66318 -2.1303,1.0104 -11.66194,-2.40871 -2.87169,-1.02919 -18.51582,-5.50252 -31.21006,-12.95076 -18.41886,-10.80482 -23.66172,-17.17383 -23.97454,-16.92357 -0.31283,0.25026 3.77261,7.09475 25.1351,18.55023 16.91106,9.06553 22.81085,10.08845 29.78987,12.55973 8.55876,3.03436 9.43465,3.09692 10.59834,4.4921 1.27005,1.52031 0.77579,4.81743 0.77579,4.81743 0,0 -15.519,-4.40763 -27.14027,-9.30953 -12.98517,-5.47123 -25.00685,-11.45235 -36.57494,-20.10808 -11.56652,-8.65886 -23.36579,-19.35106 -31.01737,-32.21735 -6.84951,-11.52148 -6.06339,-15.23278 -6.13847,-17.05433 -0.17831,-4.30065 1.12552,-2.18567 1.93886,-0.65035 0.51677,0.97631 3.88522,5.93169 12.0833,15.55561 8.97575,10.53578 20.29015,19.91726 32.30807,27.92233 11.0363,7.34814 23.05485,12.69737 34.64797,17.41157 12.83188,5.22096 23.38018,7.8424 23.38018,7.8424 z m -88.99421,3.57866 c 2.73811,0 4.42765,2.14594 4.42765,4.74861 0,4.36384 -3.88772,4.13236 -3.97093,4.88312 -0.0835,0.75077 1.1349,1.27944 3.05938,0.976 1.30758,-0.20646 2.49567,-2.20851 2.99556,-1.62666 0.49989,0.58185 -2.72842,4.55466 -5.79468,4.55466 -3.32059,0 -6.51135,-2.8623 -6.51135,-6.96338 -3.2e-4,-4.68604 2.53948,-6.57235 5.79437,-6.57235 z m 7.03188,-0.0657 c 2.26545,0 2.59641,0.79143 3.25583,2.928 0.61564,1.99891 1.98141,2.49004 2.27859,2.4744 0.29717,-0.0157 -0.83116,-0.88528 -1.43272,-2.5401 -0.52085,-1.42958 -1.28006,-3.12194 1.62823,-3.12194 2.80224,0 2.78879,1.19497 3.18889,2.27733 0.65379,1.75492 2.40559,3.07502 2.67149,3.05938 0.26276,-0.0157 -1.36703,-1.69236 -1.75805,-3.19077 -0.30031,-1.14805 -0.2659,-2.08338 1.36702,-2.08338 1.36702,0 2.21164,1.5641 3.38471,3.64749 1.02293,1.81748 2.06774,5.93419 0.0657,6.11563 -2.95928,0.27216 -11.77299,0.53179 -12.95639,-0.19395 -2.09276,-1.28569 -2.86481,-2.928 -3.45103,-5.33671 -0.71261,-2.92799 -0.63284,-4.03538 1.75773,-4.03538 z m 10.09189,-4.75174 c -0.32533,0.39102 -0.39102,2.53697 -2.92987,2.53697 -2.53885,0 -4.36165,-1.82061 -4.36165,-5.07394 0,-3.25334 2.27858,-4.94881 5.33796,-4.94881 3.06095,0 5.53535,1.36702 7.94407,4.16675 2.38682,2.77472 3.22518,6.13754 4.4264,7.16046 1.73929,1.47652 4.10421,1.09175 4.27,1.42646 0.16892,0.33159 -2.18661,1.43585 -2.14908,4.58595 0.0313,2.73717 0.22211,5.70271 1.06985,7.13543 0.84774,1.42958 1.82374,2.47128 2.14907,2.40558 0.32534,-0.0657 0.3879,-2.27733 2.47441,-2.27733 2.27733,0 3.45041,1.49528 3.45041,4.62036 0,3.12507 -2.47441,3.97281 -5.66517,3.97281 -3.18764,0 -5.92482,-1.952 -6.96651,-5.46809 -1.04169,-3.51611 -2.01768,-8.26784 -3.31902,-11.71512 -1.30446,-3.45041 -3.58179,-7.28872 -4.23245,-7.94251 -0.65067,-0.65066 -1.17309,-0.976 -1.49842,-0.58497 z m 14.48358,3.7945 c -3.25959,-0.20019 -3.55676,-2.55574 -3.55676,-2.55574 0,0 6.29394,-1.85815 15.04665,-4.87373 2.14907,1.21687 3.28773,1.82374 5.60573,2.80912 -3.21579,1.08549 -5.21784,1.81437 -6.18759,2.12718 -7.5327,2.44 -8.92788,2.61205 -10.90803,2.49317 z m 25.69505,-0.77892 c -11.80583,4.82994 -25.98598,8.83091 -25.98598,8.83091 0,0 -0.49425,-3.294 0.78205,-4.81743 1.36703,-1.62666 3.64749,-2.01456 10.67656,-4.4921 2.62143,-0.91969 4.77989,-1.63918 7.72666,-2.64959 3.23768,1.63918 4.78615,2.28985 6.80071,3.12821 z m 24.19664,14.10193 c 2.07087,0 2.1303,2.21164 2.45563,2.27733 0.32221,0.0657 1.29196,-0.976 2.13344,-2.40558 0.83836,-1.43272 1.29195,-4.6923 1.16369,-7.42636 -0.12826,-2.73405 -1.78933,-3.48481 -1.66107,-3.98219 0.12199,-0.50052 2.08963,-0.79144 3.60056,-2.05211 1.61102,-1.34512 2.08651,-4.07291 4.45768,-6.84763 2.38995,-2.79974 4.84559,-4.16676 7.88307,-4.16676 3.03436,0 5.29918,1.69548 5.29918,4.94881 0,3.25333 -1.81123,5.07394 -4.33256,5.07394 -2.5182,0 -2.5839,-2.14595 -2.90611,-2.53697 -0.32219,-0.39103 -0.84147,-0.0657 -1.48589,0.58497 -0.64754,0.6538 -2.9061,4.4921 -4.20117,7.94251 -1.29195,3.44728 -2.26169,8.19901 -3.29713,11.71512 -1.0323,3.51296 -3.74759,5.46809 -6.91332,5.46809 -3.16575,0 -5.62138,-0.84774 -5.62138,-3.97281 0,-3.12507 1.16369,-4.62036 3.42538,-4.62036 z m 16.99552,-12.56285 c 1.62041,0 1.65482,0.93532 1.35764,2.08337 -0.3879,1.49842 -1.74554,3.19077 -1.74554,3.19077 0,0 2.00205,-1.30446 2.64959,-3.05938 0.39728,-1.08236 0.38477,-2.27733 3.16574,-2.27733 2.88733,0 2.13343,1.69236 1.61728,3.12194 -0.59749,1.65483 -1.42333,2.5401 -1.42333,2.5401 0,0 1.64856,-0.47548 2.26169,-2.4744 0.65379,-2.13656 0.98226,-2.928 3.23143,-2.928 2.37118,0 2.45251,1.10739 1.74554,4.03538 -0.58498,2.40871 -1.35139,4.05103 -3.42851,5.33671 -1.17308,0.72574 -9.92265,0.46611 -12.85691,0.19395 -1.98641,-0.18144 -0.94784,-4.29815 0.0657,-6.11563 1.16056,-2.08339 2.00205,-3.64748 3.35969,-3.64748 z m 14.60245,10.87049 c 1.9301,0.15954 3.10005,-0.41292 3.03748,-0.976 -0.0626,-0.56307 -3.94153,-0.51928 -3.94153,-4.88312 0,-2.60267 1.67672,-4.74861 4.39512,-4.74861 3.23143,0 5.74963,1.88631 5.74963,6.57235 0,4.10108 -3.16574,7.04784 -6.45973,6.96338 -4.92067,-0.122 -6.37841,-4.05415 -5.75277,-4.55466 0.62564,-0.50051 1.23877,1.4859 2.9718,1.62666 z"
         id="path2763"
         inkscape:connector-curvature="0"
         style="stroke-width:0.99999988" /></g></g></svg>