<?xml version="1.0" encoding="UTF-8" standalone="no"?>
<!-- Created with Inkscape (http://www.inkscape.org/) -->

<svg
   xmlns:dc="http://purl.org/dc/elements/1.1/"
   xmlns:cc="http://creativecommons.org/ns#"
   xmlns:rdf="http://www.w3.org/1999/02/22-rdf-syntax-ns#"
   xmlns:svg="http://www.w3.org/2000/svg"
   xmlns="http://www.w3.org/2000/svg"
   xmlns:sodipodi="http://sodipodi.sourceforge.net/DTD/sodipodi-0.dtd"
   xmlns:inkscape="http://www.inkscape.org/namespaces/inkscape"
   id="svg2"
   sodipodi:version="0.32"
   inkscape:version="0.92.2 5c3e80d, 2017-08-06"
   width="180"
   height="180"
   xml:space="preserve"
   sodipodi:docname="JIRAJIRADISK.svg"
   version="1.0"
   inkscape:output_extension="org.inkscape.output.svg.inkscape"><metadata
     id="metadata7"><rdf:RDF><cc:Work
         rdf:about=""><dc:format>image/svg+xml</dc:format><dc:type
           rdf:resource="http://purl.org/dc/dcmitype/StillImage" /><dc:title /></cc:Work></rdf:RDF></metadata><defs
     id="defs5"><linearGradient
       x1="0"
       y1="0"
       x2="1"
       y2="0"
       gradientUnits="userSpaceOnUse"
       gradientTransform="matrix(142.02281,-142.02281,-142.02281,-142.02281,223.25781,497.83008)"
       spreadMethod="pad"
       id="linearGradient1215"><stop
         style="stop-opacity:0.95609754;stop-color:#ca5ab3"
         offset="0"
         id="stop1205" /><stop
         style="stop-opacity:1;stop-color:#feffff"
         offset="0.365169"
         id="stop1207" /><stop
         style="stop-opacity:1;stop-color:#feff2f"
         offset="0.36516899"
         id="stop1209" /><stop
         style="stop-opacity:1;stop-color:#6649ad"
         offset="0.82896107"
         id="stop1211" /><stop
         style="stop-opacity:1;stop-color:#3f70ff"
         offset="1"
         id="stop1213" /></linearGradient><linearGradient
       id="linearGradient1195"
       spreadMethod="pad"
       gradientTransform="matrix(142.02281,-142.02281,-142.02281,-142.02281,223.25781,497.83008)"
       gradientUnits="userSpaceOnUse"
       y2="0"
       x2="1"
       y1="0"
       x1="0"><stop
         id="stop1185"
         offset="0"
         style="stop-opacity:0.95609754;stop-color:#ca5ab3" /><stop
         id="stop1187"
         offset="0.365169"
         style="stop-opacity:1;stop-color:#feffff" /><stop
         id="stop1189"
         offset="0.36516899"
         style="stop-opacity:1;stop-color:#feff2f" /><stop
         id="stop1191"
         offset="0.5869571"
         style="stop-opacity:1;stop-color:#66b999" /><stop
         id="stop1193"
         offset="1"
         style="stop-opacity:1;stop-color:#8370ff" /></linearGradient><inkscape:perspective
       sodipodi:type="inkscape:persp3d"
       inkscape:vp_x="0 : 526.18109 : 1"
       inkscape:vp_y="0 : 1000 : 0"
       inkscape:vp_z="744.09448 : 526.18109 : 1"
       inkscape:persp3d-origin="372.04724 : 350.78739 : 1"
       id="perspective9" /><clipPath
       clipPathUnits="userSpaceOnUse"
       id="clipPath17"><path
         d="M 0,841.89 H 595.276 V 0 H 0 Z"
         id="path19"
         inkscape:connector-curvature="0" /></clipPath><linearGradient
       x1="0"
       y1="0"
       x2="1"
       y2="0"
       gradientUnits="userSpaceOnUse"
       gradientTransform="matrix(244.58781,-244.58781,-244.58781,-244.58781,175.34424,543.23828)"
       spreadMethod="pad"
       id="linearGradient35"><stop
         style="stop-opacity:1;stop-color:#7ea7d1"
         offset="0"
         id="stop37" /><stop
         style="stop-opacity:1;stop-color:#2651a5"
         offset="0.241573"
         id="stop39" /><stop
         style="stop-opacity:1;stop-color:#2651a5"
         offset="0.241573"
         id="stop41" /><stop
         style="stop-opacity:1;stop-color:#2651a5"
         offset="1"
         id="stop43" /></linearGradient><linearGradient
       x1="0"
       y1="0"
       x2="1"
       y2="0"
       gradientUnits="userSpaceOnUse"
       gradientTransform="matrix(173.90959,-173.90959,-173.90959,-173.90959,210.68359,507.89893)"
       spreadMethod="pad"
       id="linearGradient63"><stop
         style="stop-opacity:1;stop-color:#4393d7"
         offset="0"
         id="stop65" /><stop
         style="stop-opacity:1;stop-color:#6cbfea"
         offset="0.960674"
         id="stop67" /><stop
         style="stop-opacity:1;stop-color:#6cbfea"
         offset="0.960674"
         id="stop69" /><stop
         style="stop-opacity:1;stop-color:#6cbfea"
         offset="1"
         id="stop71" /></linearGradient><linearGradient
       x1="0"
       y1="0"
       x2="1"
       y2="0"
       gradientUnits="userSpaceOnUse"
       gradientTransform="matrix(142.02281,-142.02281,-142.02281,-142.02281,223.25781,497.83008)"
       spreadMethod="pad"
       id="linearGradient87"><stop
         style="stop-opacity:1;stop-color:#caedf8"
         offset="0"
         id="stop89" /><stop
         style="stop-opacity:1;stop-color:#feffff"
         offset="0.365169"
         id="stop91" /><stop
         style="stop-opacity:1;stop-color:#feffff"
         offset="0.365169"
         id="stop93" /><stop
         style="stop-opacity:1;stop-color:#caedf8"
         offset="0.775281"
         id="stop95" /><stop
         style="stop-opacity:1;stop-color:#feffff"
         offset="1"
         id="stop97" /></linearGradient></defs><sodipodi:namedview
     inkscape:window-height="774"
     inkscape:window-width="1220"
     inkscape:pageshadow="2"
     inkscape:pageopacity="0.0"
     guidetolerance="10.0"
     gridtolerance="10.0"
     objecttolerance="10.0"
     borderopacity="1.0"
     bordercolor="#666666"
     pagecolor="#ffffff"
     id="base"
     showgrid="false"
     inkscape:zoom="1.062"
     inkscape:cx="-95.74388"
     inkscape:cy="-66.704927"
     inkscape:window-x="86"
     inkscape:window-y="0"
     inkscape:current-layer="g11"
     inkscape:window-maximized="0"
     inkscape:pagecheckerboard="true"
     inkscape:showpageshadow="false" /><g
     id="g11"
     inkscape:label="top"
     transform="matrix(1.25,0,0,-1.25,63.301372,474.06091)"
     style="display:inline;opacity:1"><circle
       style="opacity:1;fill:#808080;fill-opacity:1;stroke:none;stroke-width:0.80701071;stroke-miterlimit:4;stroke-dasharray:none;stroke-opacity:0.95609753"
       id="path1132"
       cx="21.358902"
       cy="-307.24875"
       transform="scale(1,-1)"
       r="72" /><g
       aria-label="JIRA JIRA DISK"
       transform="matrix(1,0,0,-1,9.7928425,-149.39361)"
       style="font-style:normal;font-variant:normal;font-weight:800;font-stretch:condensed;font-size:14.9333334px;line-height:1.25;font-family:Futura;-inkscape-font-specification:'Futura, Ultra-Bold Condensed';font-variant-ligatures:normal;font-variant-caps:normal;font-variant-numeric:normal;font-feature-settings:normal;text-align:start;letter-spacing:0px;word-spacing:0px;writing-mode:lr-tb;text-anchor:start;fill:#000000;fill-opacity:1;stroke:none;stroke-width:0.80000001px;stroke-linecap:butt;stroke-linejoin:miter;stroke-opacity:1"
       id="text1175"><path
         d="m -36.285503,-145.00693 v -3.15 q 0.517708,0.67084 1.217708,0.67084 0.933333,0 0.933333,-1.4 v -7.21146 h 3.040625 v 7.81667 q 0,0.99895 -0.175,1.59687 -0.160416,0.59063 -0.590625,1.08646 -0.83125,0.95521 -2.442708,0.95521 -0.853125,0 -1.983333,-0.36459 z"
         style="font-style:normal;font-variant:normal;font-weight:800;font-stretch:condensed;font-size:14.9333334px;font-family:Futura;-inkscape-font-specification:'Futura, Ultra-Bold Condensed';font-variant-ligatures:normal;font-variant-caps:normal;font-variant-numeric:normal;font-feature-settings:normal;text-align:start;writing-mode:lr-tb;text-anchor:start;stroke-width:0.80000001px"
         id="path1823"
         inkscape:connector-curvature="0" /><path
         d="m -26.478212,-144.83922 h -3.040625 v -11.25833 h 3.040625 z"
         style="font-style:normal;font-variant:normal;font-weight:800;font-stretch:condensed;font-size:14.9333334px;font-family:Futura;-inkscape-font-specification:'Futura, Ultra-Bold Condensed';font-variant-ligatures:normal;font-variant-caps:normal;font-variant-numeric:normal;font-feature-settings:normal;text-align:start;writing-mode:lr-tb;text-anchor:start;stroke-width:0.80000001px"
         id="path1825"
         inkscape:connector-curvature="0" /><path
         d="m -16.904254,-144.83922 h -3.288541 l -1.502084,-4.01041 q -0.02188,-0.10209 -0.08021,-0.2698 -0.05104,-0.1677 -0.13125,-0.40104 l 0.02188,0.74375 v 3.9375 h -3.026042 v -11.25833 h 3.113542 q 2.05625,0 3.077083,0.80937 1.297917,1.03542 1.297917,2.94584 0,2.04166 -1.742708,2.82187 z m -4.965625,-6.04479 h 0.204167 q 0.525,0 0.875,-0.40104 0.35,-0.40104 0.35,-1.02083 0,-1.26146 -1.319792,-1.26146 h -0.109375 z"
         style="font-style:normal;font-variant:normal;font-weight:800;font-stretch:condensed;font-size:14.9333334px;font-family:Futura;-inkscape-font-specification:'Futura, Ultra-Bold Condensed';font-variant-ligatures:normal;font-variant-caps:normal;font-variant-numeric:normal;font-feature-settings:normal;text-align:start;writing-mode:lr-tb;text-anchor:start;stroke-width:0.80000001px"
         id="path1827"
         inkscape:connector-curvature="0" /><path
         d="m -7.7896696,-144.83922 h -3.1427084 l -0.226042,-1.42916 h -2.048958 l -0.247917,1.42916 h -3.142708 l 2.705208,-11.25833 h 3.71875 z m -3.7260414,-3.84271 -0.196875,-1.3125 q -0.0073,-0.007 -0.02917,-0.19687 -0.01458,-0.16042 -0.153125,-1.26875 -0.01458,-0.12396 -0.03646,-0.33542 -0.02187,-0.21875 -0.05833,-0.54687 l -0.09479,-1.06459 q -0.01458,0.15313 -0.04375,0.34271 -0.02187,0.18959 -0.05104,0.41563 -0.05104,0.45208 -0.07292,0.62708 -0.02187,0.175 -0.02917,0.21146 l -0.211459,1.36354 -0.30625,1.76458 z"
         style="font-style:normal;font-variant:normal;font-weight:800;font-stretch:condensed;font-size:14.9333334px;font-family:Futura;-inkscape-font-specification:'Futura, Ultra-Bold Condensed';font-variant-ligatures:normal;font-variant-caps:normal;font-variant-numeric:normal;font-feature-settings:normal;text-align:start;writing-mode:lr-tb;text-anchor:start;stroke-width:0.80000001px"
         id="path1829"
         inkscape:connector-curvature="0" /><path
         d="m -3.2105026,-145.00693 v -3.15 q 0.5177083,0.67084 1.2177083,0.67084 0.9333334,0 0.9333334,-1.4 v -7.21146 h 3.040625 v 7.81667 q 0,0.99895 -0.175,1.59687 -0.1604167,0.59063 -0.590625,1.08646 -0.83125004,0.95521 -2.4427084,0.95521 -0.853125,0 -1.9833333,-0.36459 z"
         style="font-style:normal;font-variant:normal;font-weight:800;font-stretch:condensed;font-size:14.9333334px;font-family:Futura;-inkscape-font-specification:'Futura, Ultra-Bold Condensed';font-variant-ligatures:normal;font-variant-caps:normal;font-variant-numeric:normal;font-feature-settings:normal;text-align:start;writing-mode:lr-tb;text-anchor:start;stroke-width:0.80000001px"
         id="path1831"
         inkscape:connector-curvature="0" /><path
         d="m 6.5967903,-144.83922 h -3.040625 v -11.25833 h 3.040625 z"
         style="font-style:normal;font-variant:normal;font-weight:800;font-stretch:condensed;font-size:14.9333334px;font-family:Futura;-inkscape-font-specification:'Futura, Ultra-Bold Condensed';font-variant-ligatures:normal;font-variant-caps:normal;font-variant-numeric:normal;font-feature-settings:normal;text-align:start;writing-mode:lr-tb;text-anchor:start;stroke-width:0.80000001px"
         id="path1833"
         inkscape:connector-curvature="0" /><path
         d="m 16.170745,-144.83922 h -3.288542 l -1.502083,-4.01041 q -0.02187,-0.10209 -0.08021,-0.2698 -0.05104,-0.1677 -0.13125,-0.40104 l 0.02188,0.74375 v 3.9375 H 8.1644951 v -11.25833 h 3.1135419 q 2.05625,0 3.077083,0.80937 1.297917,1.03542 1.297917,2.94584 0,2.04166 -1.742709,2.82187 z m -4.965625,-6.04479 h 0.204167 q 0.525,0 0.875,-0.40104 0.35,-0.40104 0.35,-1.02083 0,-1.26146 -1.319792,-1.26146 H 11.20512 Z"
         style="font-style:normal;font-variant:normal;font-weight:800;font-stretch:condensed;font-size:14.9333334px;font-family:Futura;-inkscape-font-specification:'Futura, Ultra-Bold Condensed';font-variant-ligatures:normal;font-variant-caps:normal;font-variant-numeric:normal;font-feature-settings:normal;text-align:start;writing-mode:lr-tb;text-anchor:start;stroke-width:0.80000001px"
         id="path1835"
         inkscape:connector-curvature="0" /><path
         d="m 25.285329,-144.83922 h -3.142708 l -0.226042,-1.42916 h -2.048958 l -0.247917,1.42916 h -3.142708 l 2.705208,-11.25833 h 3.71875 z m -3.726041,-3.84271 -0.196875,-1.3125 q -0.0073,-0.007 -0.02917,-0.19687 -0.01458,-0.16042 -0.153125,-1.26875 -0.01458,-0.12396 -0.03646,-0.33542 -0.02188,-0.21875 -0.05833,-0.54687 l -0.09479,-1.06459 q -0.01458,0.15313 -0.04375,0.34271 -0.02188,0.18959 -0.05104,0.41563 -0.05104,0.45208 -0.07292,0.62708 -0.02187,0.175 -0.02917,0.21146 l -0.211459,1.36354 -0.30625,1.76458 z"
         style="font-style:normal;font-variant:normal;font-weight:800;font-stretch:condensed;font-size:14.9333334px;font-family:Futura;-inkscape-font-specification:'Futura, Ultra-Bold Condensed';font-variant-ligatures:normal;font-variant-caps:normal;font-variant-numeric:normal;font-feature-settings:normal;text-align:start;writing-mode:lr-tb;text-anchor:start;stroke-width:0.80000001px"
         id="path1837"
         inkscape:connector-curvature="0" /><path
         d="m 30.651998,-144.83922 v -11.25833 h 2.625 q 2.253125,0 3.507292,1.21042 1.647917,1.58229 1.647917,4.42604 0,2.8 -1.392709,4.32396 -1.188542,1.29791 -3.54375,1.29791 z m 3.040625,-2.71979 q 1.633333,-0.0802 1.633333,-2.81458 0,-1.34896 -0.415625,-2.12917 -0.415625,-0.7875 -1.122916,-0.7875 h -0.09479 z"
         style="font-style:normal;font-variant:normal;font-weight:800;font-stretch:condensed;font-size:14.9333334px;font-family:Futura;-inkscape-font-specification:'Futura, Ultra-Bold Condensed';font-variant-ligatures:normal;font-variant-caps:normal;font-variant-numeric:normal;font-feature-settings:normal;text-align:start;writing-mode:lr-tb;text-anchor:start;stroke-width:0.80000001px"
         id="path1839"
         inkscape:connector-curvature="0" /><path
         d="m 42.763454,-144.83922 h -3.040625 v -11.25833 h 3.040625 z"
         style="font-style:normal;font-variant:normal;font-weight:800;font-stretch:condensed;font-size:14.9333334px;font-family:Futura;-inkscape-font-specification:'Futura, Ultra-Bold Condensed';font-variant-ligatures:normal;font-variant-caps:normal;font-variant-numeric:normal;font-feature-settings:normal;text-align:start;writing-mode:lr-tb;text-anchor:start;stroke-width:0.80000001px"
         id="path1841"
         inkscape:connector-curvature="0" /><path
         d="m 44.090542,-145.1163 v -3.53646 q 0.896875,1.225 1.939583,1.225 0.39375,0 0.641667,-0.20417 0.247917,-0.21145 0.247917,-0.525 0,-0.45208 -0.539584,-0.88229 l -0.495833,-0.38646 q -0.495833,-0.37187 -0.845833,-0.73645 -0.35,-0.37188 -0.56875,-0.75834 -0.21875,-0.39375 -0.320834,-0.80937 -0.102083,-0.41563 -0.102083,-0.875 0,-0.7875 0.364583,-1.64792 0.182292,-0.40104 0.422917,-0.72917 0.240625,-0.33541 0.554167,-0.59062 0.860416,-0.72917 2.078125,-0.72917 1.086458,0 2.1875,0.57604 v 3.44167 q -0.371875,-0.57604 -0.845834,-0.90417 -0.473958,-0.33541 -0.933333,-0.33541 -0.35,0 -0.576042,0.20416 -0.233333,0.19688 -0.233333,0.47396 0,0.45209 0.619792,0.89688 l 0.48125,0.35729 q 0.9625,0.69271 1.378125,1.42187 0.422916,0.72917 0.422916,1.70625 0,1.6625 -1.013541,2.74167 -1.013542,1.07917 -2.566667,1.07917 -1.071875,0 -2.296875,-0.47396 z"
         style="font-style:normal;font-variant:normal;font-weight:800;font-stretch:condensed;font-size:14.9333334px;font-family:Futura;-inkscape-font-specification:'Futura, Ultra-Bold Condensed';font-variant-ligatures:normal;font-variant-caps:normal;font-variant-numeric:normal;font-feature-settings:normal;text-align:start;writing-mode:lr-tb;text-anchor:start;stroke-width:0.80000001px"
         id="path1843"
         inkscape:connector-curvature="0" /><path
         d="m 59.417622,-144.83922 h -3.28125 l -2.019792,-5.19166 0.08021,5.19166 h -3.040625 v -11.25833 h 3.040625 l -0.08021,4.82708 1.79375,-4.82708 h 3.208334 l -2.428125,5.43229 z"
         style="font-style:normal;font-variant:normal;font-weight:800;font-stretch:condensed;font-size:14.9333334px;font-family:Futura;-inkscape-font-specification:'Futura, Ultra-Bold Condensed';font-variant-ligatures:normal;font-variant-caps:normal;font-variant-numeric:normal;font-feature-settings:normal;text-align:start;writing-mode:lr-tb;text-anchor:start;stroke-width:0.80000001px"
         id="path1845"
         inkscape:connector-curvature="0" /></g></g></svg>