<?xml version="1.0" encoding="UTF-8" standalone="no"?>
<!-- Generator: Adobe Illustrator 19.0.0, SVG Export Plug-In . SVG Version: 6.00 Build 0)  -->

<svg
   xmlns:dc="http://purl.org/dc/elements/1.1/"
   xmlns:cc="http://creativecommons.org/ns#"
   xmlns:rdf="http://www.w3.org/1999/02/22-rdf-syntax-ns#"
   xmlns:svg="http://www.w3.org/2000/svg"
   xmlns="http://www.w3.org/2000/svg"
   xmlns:sodipodi="http://sodipodi.sourceforge.net/DTD/sodipodi-0.dtd"
   xmlns:inkscape="http://www.inkscape.org/namespaces/inkscape"
   version="1.1"
   id="Layer_1"
   x="0px"
   y="0px"
   viewBox="0 0 128.37375 128.37375"
   xml:space="preserve"
   width="180"
   height="180"
   sodipodi:docname="biscuit-svgrepo-com.svg"
   inkscape:version="0.92.2 5c3e80d, 2017-08-06"><metadata
     id="metadata41"><rdf:RDF><cc:Work
         rdf:about=""><dc:format>image/svg+xml</dc:format><dc:type
           rdf:resource="http://purl.org/dc/dcmitype/StillImage" /><dc:title></dc:title></cc:Work></rdf:RDF></metadata><defs
     id="defs39" /><sodipodi:namedview
     pagecolor="#ffffff"
     bordercolor="#666666"
     borderopacity="1"
     objecttolerance="10"
     gridtolerance="10"
     guidetolerance="10"
     inkscape:pageopacity="0"
     inkscape:pageshadow="2"
     inkscape:window-width="999"
     inkscape:window-height="601"
     id="namedview37"
     showgrid="false"
     inkscape:pagecheckerboard="true"
     inkscape:showpageshadow="false"
     inkscape:zoom="0.4609375"
     inkscape:cx="256"
     inkscape:cy="256"
     inkscape:window-x="0"
     inkscape:window-y="0"
     inkscape:window-maximized="0"
     inkscape:current-layer="Layer_1" /><g
     id="g865"
     transform="matrix(0.3515625,0,0,0.3515625,0,83.242354)"><g
       transform="translate(0,-236.77825)"
       id="g34"><path
         inkscape:connector-curvature="0"
         id="path2"
         d="m 263.039,175.165 c 14.81,0 26.81,12 26.81,26.81 0,14.8 -12,26.81 -26.81,26.81 -14.8,0 -26.81,-12.01 -26.81,-26.81 0,-14.81 12.01,-26.81 26.81,-26.81 z"
         style="fill:#b27214" /><path
         inkscape:connector-curvature="0"
         id="path4"
         d="m 133.739,228.785 c 12.19,0 22.07,9.88 22.07,22.07 0,12.2 -9.88,22.08 -22.07,22.08 -12.2,0 -22.08,-9.88 -22.08,-22.08 0,-12.19 9.88,-22.07 22.08,-22.07 z"
         style="fill:#b27214" /><path
         inkscape:connector-curvature="0"
         id="path6"
         d="m 143.989,94.745 c 10.01,0 18.13,8.12 18.13,18.14 0,10.01 -8.12,18.13 -18.13,18.13 -10.02,0 -18.14,-8.12 -18.14,-18.13 0,-10.02 8.12,-18.14 18.14,-18.14 z"
         style="fill:#b27214" /><path
         inkscape:connector-curvature="0"
         id="path8"
         d="m 182.579,7.495 c 96.69,0 175.07,78.39 175.07,175.08 0,96.69 -78.38,175.08 -175.07,175.08 -96.7,0 -175.08,-78.39 -175.08,-175.08 0,-96.69 78.38,-175.08 175.08,-175.08 z m 107.27,194.48 c 0,-14.81 -12,-26.81 -26.81,-26.81 -14.8,0 -26.81,12 -26.81,26.81 0,14.8 12.01,26.81 26.81,26.81 14.81,0 26.81,-12.01 26.81,-26.81 z m -127.73,-89.09 c 0,-10.02 -8.12,-18.14 -18.13,-18.14 -10.02,0 -18.14,8.12 -18.14,18.14 0,10.01 8.12,18.13 18.14,18.13 10.01,0 18.13,-8.12 18.13,-18.13 z m -6.31,137.97 c 0,-12.19 -9.88,-22.07 -22.07,-22.07 -12.2,0 -22.08,9.88 -22.08,22.07 0,12.2 9.88,22.08 22.08,22.08 12.19,0 22.07,-9.88 22.07,-22.08 z"
         style="fill:#f7b239" /><g
         id="g12"><path
           inkscape:connector-curvature="0"
           id="path10"
           d="m 92.499,182.575 c 0,-82.032 56.421,-150.881 132.578,-169.874 -13.607,-3.394 -27.84,-5.206 -42.498,-5.206 -96.7,0 -175.08,78.39 -175.08,175.08 0,96.69 78.38,175.08 175.08,175.08 14.658,0 28.891,-1.812 42.498,-5.206 C 148.92,333.457 92.499,264.607 92.499,182.575 Z"
           style="fill:#e09b2d" /></g><path
         inkscape:connector-curvature="0"
         id="path14"
         d="m 322.677,249.217 c -0.977,0 -1.968,-0.191 -2.923,-0.596 -3.814,-1.616 -5.596,-6.018 -3.979,-9.832 7.548,-17.815 11.375,-36.729 11.375,-56.214 0,-53.119 -29.117,-101.879 -75.988,-127.251 -3.643,-1.972 -4.997,-6.523 -3.025,-10.166 1.972,-3.643 6.522,-4.998 10.166,-3.025 51.719,27.996 83.848,81.811 83.848,140.442 0,21.507 -4.228,42.389 -12.564,62.065 -1.213,2.86 -3.989,4.577 -6.91,4.577 z"
         style="fill:#ffffff" /><circle
         id="circle16"
         r="7.5"
         cy="36.516998"
         cx="224.21201"
         style="fill:#ffffff" /><g
         id="g32"><path
           inkscape:connector-curvature="0"
           id="path18"
           d="M 182.576,0 C 81.903,0 0,81.903 0,182.576 c 0,100.673 81.903,182.576 182.576,182.576 100.673,0 182.576,-81.903 182.576,-182.576 C 365.152,81.903 283.249,0 182.576,0 Z m 0,350.152 C 90.175,350.152 15,274.978 15,182.576 15,90.174 90.175,15 182.576,15 c 92.401,0 167.576,75.174 167.576,167.576 0,92.402 -75.174,167.576 -167.576,167.576 z"
           style="fill:#333333" /><path
           inkscape:connector-curvature="0"
           id="path20"
           d="m 143.984,87.247 c -14.135,0 -25.634,11.5 -25.634,25.634 0,14.134 11.499,25.634 25.634,25.634 14.135,0 25.635,-11.5 25.635,-25.634 0,-14.134 -11.5,-25.634 -25.635,-25.634 z m 0,36.268 c -5.863,0 -10.634,-4.771 -10.634,-10.634 0,-5.863 4.771,-10.634 10.634,-10.634 5.864,0 10.635,4.771 10.635,10.634 0,5.863 -4.77,10.634 -10.635,10.634 z"
           style="fill:#333333" /><path
           inkscape:connector-curvature="0"
           id="path22"
           d="m 263.039,167.667 c -18.917,0 -34.307,15.39 -34.307,34.307 0,18.917 15.39,34.307 34.307,34.307 18.917,0 34.308,-15.39 34.308,-34.307 0,-18.917 -15.391,-34.307 -34.308,-34.307 z m 0,53.615 c -10.646,0 -19.307,-8.661 -19.307,-19.307 0,-10.646 8.661,-19.307 19.307,-19.307 10.646,0 19.308,8.661 19.308,19.307 0,10.646 -8.661,19.307 -19.308,19.307 z"
           style="fill:#333333" /><path
           inkscape:connector-curvature="0"
           id="path24"
           d="m 133.735,221.282 c -16.309,0 -29.576,13.268 -29.576,29.576 0,16.308 13.268,29.576 29.576,29.576 16.308,0 29.576,-13.268 29.576,-29.576 0,-16.308 -13.267,-29.576 -29.576,-29.576 z m 0,44.152 c -8.037,0 -14.576,-6.539 -14.576,-14.576 0,-8.037 6.539,-14.576 14.576,-14.576 8.037,0 14.576,6.539 14.576,14.576 0,8.037 -6.539,14.576 -14.576,14.576 z"
           style="fill:#333333" /><circle
           id="circle26"
           r="7.5"
           cy="102.635"
           cx="256.729"
           style="fill:#333333" /><circle
           id="circle28"
           r="7.5"
           cy="167.285"
           cx="89.579002"
           style="fill:#333333" /><circle
           id="circle30"
           r="7.5"
           cy="269.785"
           cx="206.269"
           style="fill:#333333" /></g></g></g></svg>