<?xml version="1.0" encoding="UTF-8" standalone="no"?>
<!-- Generator: Adobe Illustrator 19.0.0, SVG Export Plug-In . SVG Version: 6.00 Build 0)  -->

<svg
   xmlns:dc="http://purl.org/dc/elements/1.1/"
   xmlns:cc="http://creativecommons.org/ns#"
   xmlns:rdf="http://www.w3.org/1999/02/22-rdf-syntax-ns#"
   xmlns:svg="http://www.w3.org/2000/svg"
   xmlns="http://www.w3.org/2000/svg"
   xmlns:sodipodi="http://sodipodi.sourceforge.net/DTD/sodipodi-0.dtd"
   xmlns:inkscape="http://www.inkscape.org/namespaces/inkscape"
   version="1.1"
   id="Layer_1"
   x="0px"
   y="0px"
   viewBox="0 0 180 180"
   xml:space="preserve"
   sodipodi:docname="BINSONDISC8.svg"
   width="180"
   height="180"
   inkscape:version="0.92.2 5c3e80d, 2017-08-06"><metadata
     id="metadata53"><rdf:RDF><cc:Work
         rdf:about=""><dc:format>image/svg+xml</dc:format><dc:type
           rdf:resource="http://purl.org/dc/dcmitype/StillImage" /><dc:title /></cc:Work></rdf:RDF></metadata><defs
     id="defs51" /><sodipodi:namedview
     pagecolor="#ffffff"
     bordercolor="#666666"
     borderopacity="1"
     objecttolerance="10"
     gridtolerance="10"
     guidetolerance="10"
     inkscape:pageopacity="0"
     inkscape:pageshadow="2"
     inkscape:window-width="1066"
     inkscape:window-height="683"
     id="namedview49"
     showgrid="false"
     inkscape:pagecheckerboard="true"
     inkscape:showpageshadow="false"
     inkscape:zoom="0.47565111"
     inkscape:cx="-138.75717"
     inkscape:cy="248.08099"
     inkscape:window-x="506"
     inkscape:window-y="83"
     inkscape:window-maximized="0"
     inkscape:current-layer="Layer_1" /><g
     id="g876"><g
       transform="matrix(0.36278766,0,0,0.36278474,0,114.69874)"
       id="g868"><path
         style="fill:#334d5c"
         d="M 248.075,-316.16199 C 111.07,-316.16199 0,-205.09999 0,-68.078987 c 0,137.005 111.07,248.078997 248.075,248.078997 137.013,0 248.083,-111.073997 248.083,-248.078997 0,-137.021003 -111.07,-248.083003 -248.083,-248.083003 z"
         id="path2"
         inkscape:connector-curvature="0" /><path
         style="fill:#c47516"
         d="m 407.361,10.457013 v 4.785 l -156.965,-87.906 c -1.438,-0.805 -3.191,-0.805 -4.63,0 l -156.943,87.893 v -4.685 h -3.291 v 8.988 c -0.008,0.11 -0.022,0.218 -0.022,0.329 0,1.715 0.926,3.296 2.423,4.134 l 157.833,88.391997 c 0.719,0.402 1.517,0.604 2.315,0.604 0.798,0 1.596,-0.202 2.315,-0.604 L 408.229,23.995013 c 1.497,-0.838 2.423,-2.419 2.423,-4.134 v -9.405 z"
         id="path4"
         inkscape:connector-curvature="0" /><path
         style="fill:#d68922"
         d="M 408.229,6.6030127 250.396,-81.788987 c -1.438,-0.805 -3.191,-0.805 -4.63,0 L 87.933,6.6030127 c -1.497,0.838 -2.423,2.419 -2.423,4.1340003 0,1.715 0.926,3.296 2.423,4.134 l 157.833,88.392997 c 0.719,0.402 1.517,0.604 2.315,0.604 0.798,0 1.596,-0.202 2.315,-0.604 L 408.229,14.871013 c 1.497,-0.838 2.423,-2.419 2.423,-4.134 0,-1.7150003 -0.926,-3.2970003 -2.423,-4.1340003 z"
         id="path6"
         inkscape:connector-curvature="0" /><path
         style="fill:#e79e2f"
         d="M 345.664,9.5020127 261.491,-241.43099 c -0.475,-1.418 -1.803,-2.373 -3.298,-2.373 h -19.435 c -1.491,0 -2.817,0.95 -3.295,2.364 L 150.501,9.4930127 c -0.43,1.2710003 -0.092,2.6750003 0.87,3.6100003 1.751,1.703 43.517,41.698 98.51,41.698 55.084,0 93.415,-40.102 95.019,-41.809 0.878,-0.934 1.171,-2.275 0.764,-3.4900003 z"
         id="path8"
         inkscape:connector-curvature="0" /><g
         id="g14"
         transform="translate(0,-316.16199)"><path
           style="fill:#f7e7d3"
           d="m 315.293,235.123 c -16.5,9.773 -39.03,18.971 -65.412,18.971 -27.112,0 -50.99,-9.716 -68.456,-19.775 l -14.063,41.535 c 17.304,12.258 47.167,28.778 82.518,28.778 34.785,0 62.874,-15.986 79.268,-28.203 z"
           id="path10"
           inkscape:connector-curvature="0" /><path
           style="fill:#f7e7d3"
           d="m 284.564,143.517 c -10.544,3.215 -22.178,5.289 -34.683,5.289 -13.41,0 -26.026,-2.381 -37.471,-6 l -15.163,44.787 c 15.048,6.638 32.989,11.751 52.634,11.751 18.803,0 35.65,-4.676 49.753,-10.899 z"
           id="path12"
           inkscape:connector-curvature="0" /></g><path
         style="fill:#d38722"
         d="m 261.491,-241.43099 c -0.475,-1.418 -1.435,-2.404 -3.298,-2.842 -1.863,-0.438 -4.585,-1.141 -9.849,-1.141 -5.264,0 -7.81,0.57 -9.586,1.141 -1.775,0.571 -2.702,1.349 -3.225,2.669 4.827,1.104 8.574,1.806 13.469,1.806 3.974,0 8.643,-0.702 12.527,-1.517 z"
         id="path16"
         inkscape:connector-curvature="0" /></g></g><g
     id="g18"
     transform="translate(0,-316.16199)" /><g
     id="g20"
     transform="translate(0,-316.16199)" /><g
     id="g22"
     transform="translate(0,-316.16199)" /><g
     id="g24"
     transform="translate(0,-316.16199)" /><g
     id="g26"
     transform="translate(0,-316.16199)" /><g
     id="g28"
     transform="translate(0,-316.16199)" /><g
     id="g30"
     transform="translate(0,-316.16199)" /><g
     id="g32"
     transform="translate(0,-316.16199)" /><g
     id="g34"
     transform="translate(0,-316.16199)" /><g
     id="g36"
     transform="translate(0,-316.16199)" /><g
     id="g38"
     transform="translate(0,-316.16199)" /><g
     id="g40"
     transform="translate(0,-316.16199)" /><g
     id="g42"
     transform="translate(0,-316.16199)" /><g
     id="g44"
     transform="translate(0,-316.16199)" /><g
     id="g46"
     transform="translate(0,-316.16199)" /></svg>