<?xml version="1.0" encoding="UTF-8" standalone="no"?>
<!-- Generator: Adobe Illustrator 19.0.0, SVG Export Plug-In . SVG Version: 6.00 Build 0)  -->

<svg
   xmlns:dc="http://purl.org/dc/elements/1.1/"
   xmlns:cc="http://creativecommons.org/ns#"
   xmlns:rdf="http://www.w3.org/1999/02/22-rdf-syntax-ns#"
   xmlns:svg="http://www.w3.org/2000/svg"
   xmlns="http://www.w3.org/2000/svg"
   xmlns:sodipodi="http://sodipodi.sourceforge.net/DTD/sodipodi-0.dtd"
   xmlns:inkscape="http://www.inkscape.org/namespaces/inkscape"
   version="1.1"
   id="Layer_1"
   x="0px"
   y="0px"
   viewBox="0 0 180 180"
   xml:space="preserve"
   sodipodi:docname="hamster-ball-svgrepo-com.svg"
   width="180"
   height="180"
   inkscape:version="0.92.2 5c3e80d, 2017-08-06"><metadata
     id="metadata59"><rdf:RDF><cc:Work
         rdf:about=""><dc:format>image/svg+xml</dc:format><dc:type
           rdf:resource="http://purl.org/dc/dcmitype/StillImage" /><dc:title></dc:title></cc:Work></rdf:RDF></metadata><defs
     id="defs57" /><sodipodi:namedview
     pagecolor="#ffffff"
     bordercolor="#666666"
     borderopacity="1"
     objecttolerance="10"
     gridtolerance="10"
     guidetolerance="10"
     inkscape:pageopacity="0"
     inkscape:pageshadow="2"
     inkscape:window-width="952"
     inkscape:window-height="617"
     id="namedview55"
     showgrid="false"
     inkscape:pagecheckerboard="true"
     inkscape:showpageshadow="false"
     inkscape:zoom="0.4609375"
     inkscape:cx="256"
     inkscape:cy="256"
     inkscape:window-x="0"
     inkscape:window-y="0"
     inkscape:window-maximized="0"
     inkscape:current-layer="Layer_1" /><g
     id="g892"
     transform="matrix(0.3515625,0,0,0.36328116,0,117.60937)"><path
       inkscape:connector-curvature="0"
       id="path2"
       d="M 503.742,-76 C 503.742,60.82 392.82,171.742 256,171.742 119.18,171.742 8.258,60.82 8.258,-76 Z"
       style="fill:#ffc9c2" /><path
       inkscape:connector-curvature="0"
       id="path4"
       d="m 8.258,-76 c 0,-136.82 110.922,-247.742 247.742,-247.742 136.82,0 247.742,110.922 247.742,247.742 z"
       style="fill:#ffdbd6" /><g
       transform="translate(0,-332)"
       id="g12"><path
         inkscape:connector-curvature="0"
         id="path6"
         d="m 163.525,107.905 c -15.686,0 -28.401,12.715 -28.401,28.4 v 70.256 l 55.887,-77.419 c -3.174,-12.216 -14.273,-21.237 -27.486,-21.237 z"
         style="fill:#fea793" /><path
         inkscape:connector-curvature="0"
         id="path8"
         d="m 348.475,107.905 c -13.213,0 -24.311,9.02 -27.486,21.239 -0.008,0.008 55.887,77.419 55.887,77.419 v -70.256 c -10e-4,-15.686 -12.716,-28.402 -28.401,-28.402 z"
         style="fill:#fea793" /><path
         inkscape:connector-curvature="0"
         id="path10"
         d="M 404.227,256 C 427.647,356.506 379.199,437.127 256,437.127 132.801,437.127 84.353,356.506 107.773,256 Z"
         style="fill:#fea793" /></g><path
       inkscape:connector-curvature="0"
       id="path14"
       d="M 404.227,-76 H 107.773 c 5.362,-23.012 14.49,-47.06 27.351,-71.427 12.839,-23.486 32.317,-42.788 55.891,-55.428 19.357,-10.372 41.489,-16.263 64.985,-16.263 23.508,0 45.629,5.88 64.985,16.274 23.574,12.629 43.041,31.931 55.891,55.384 12.861,24.4 21.989,48.448 27.351,71.46 z"
       style="fill:#ffc9c2" /><g
       transform="translate(0,-332)"
       id="g20"><path
         inkscape:connector-curvature="0"
         id="path16"
         d="m 208.947,222.239 c -4.562,0 -8.258,-3.696 -8.258,-8.258 v -7.372 l -16.857,-2.178 c -4.522,-0.585 -7.716,-4.725 -7.133,-9.248 0.585,-4.522 4.729,-7.72 9.248,-7.133 l 24.057,3.107 c 4.117,0.532 7.2,4.039 7.2,8.19 v 14.632 c 0.001,4.562 -3.697,8.26 -8.257,8.26 z"
         style="fill:#945136" /><path
         inkscape:connector-curvature="0"
         id="path18"
         d="m 303.053,222.239 c -4.562,0 -8.258,-3.696 -8.258,-8.258 v -14.632 c 0,-4.152 3.083,-7.658 7.2,-8.19 l 24.057,-3.107 c 4.522,-0.59 8.663,2.608 9.248,7.133 0.584,4.523 -2.61,8.663 -7.133,9.248 l -16.857,2.178 v 7.372 c 10e-4,4.558 -3.695,8.256 -8.257,8.256 z"
         style="fill:#945136" /></g><path
       inkscape:connector-curvature="0"
       id="path22"
       d="M 503.742,-67.742 H 8.258 C 3.696,-67.742 0,-71.438 0,-76 c 0,-4.562 3.696,-8.258 8.258,-8.258 h 495.484 c 4.562,0 8.258,3.696 8.258,8.258 0,4.562 -3.696,8.258 -8.258,8.258 z"
       style="fill:#ffdbd6" /><g
       transform="translate(0,-332)"
       id="g24" /><g
       transform="translate(0,-332)"
       id="g26" /><g
       transform="translate(0,-332)"
       id="g28" /><g
       transform="translate(0,-332)"
       id="g30" /><g
       transform="translate(0,-332)"
       id="g32" /><g
       transform="translate(0,-332)"
       id="g34" /><g
       transform="translate(0,-332)"
       id="g36" /><g
       transform="translate(0,-332)"
       id="g38" /><g
       transform="translate(0,-332)"
       id="g40" /><g
       transform="translate(0,-332)"
       id="g42" /><g
       transform="translate(0,-332)"
       id="g44" /><g
       transform="translate(0,-332)"
       id="g46" /><g
       transform="translate(0,-332)"
       id="g48" /><g
       transform="translate(0,-332)"
       id="g50" /><g
       transform="translate(0,-332)"
       id="g52" /></g></svg>