<?xml version="1.0" encoding="UTF-8" standalone="no"?>
<!-- Created with Inkscape (http://www.inkscape.org/) -->

<svg
   xmlns:dc="http://purl.org/dc/elements/1.1/"
   xmlns:cc="http://creativecommons.org/ns#"
   xmlns:rdf="http://www.w3.org/1999/02/22-rdf-syntax-ns#"
   xmlns:svg="http://www.w3.org/2000/svg"
   xmlns="http://www.w3.org/2000/svg"
   xmlns:sodipodi="http://sodipodi.sourceforge.net/DTD/sodipodi-0.dtd"
   xmlns:inkscape="http://www.inkscape.org/namespaces/inkscape"
   width="180"
   height="180"
   id="svg2163"
   sodipodi:version="0.32"
   inkscape:version="0.92.2 5c3e80d, 2017-08-06"
   sodipodi:docname="Optical_Illusion_clip_art.svg"
   inkscape:output_extension="org.inkscape.output.svg.inkscape"
   inkscape:export-filename="/home/dan/Desktop/Pages DIZ/OpenClipart.Projects/Appollonio/Appolinio Original1.png"
   inkscape:export-xdpi="90"
   inkscape:export-ydpi="90"
   version="1.1">
  <defs
     id="defs2165" />
  <sodipodi:namedview
     id="base"
     pagecolor="#ffffff"
     bordercolor="#666666"
     borderopacity="1.0"
     gridtolerance="10000"
     guidetolerance="10"
     objecttolerance="10"
     inkscape:pageopacity="0.0"
     inkscape:pageshadow="2"
     inkscape:zoom="1.979899"
     inkscape:cx="46.553644"
     inkscape:cy="62.857143"
     inkscape:document-units="px"
     inkscape:current-layer="layer1"
     inkscape:window-width="1097"
     inkscape:window-height="786"
     inkscape:window-x="41"
     inkscape:window-y="28"
     showgrid="false"
     inkscape:pagecheckerboard="true"
     inkscape:showpageshadow="false"
     inkscape:window-maximized="0" />
  <metadata
     id="metadata2168">
    <rdf:RDF>
      <cc:Work
         rdf:about="">
        <dc:format>image/svg+xml</dc:format>
        <dc:type
           rdf:resource="http://purl.org/dc/dcmitype/StillImage" />
        <dc:title></dc:title>
      </cc:Work>
    </rdf:RDF>
  </metadata>
  <g
     inkscape:label="Layer 1"
     inkscape:groupmode="layer"
     id="layer1"
     transform="translate(0,-872.36218)">
    <path
       style="fill:#000000;stroke-width:0.51481324"
       d="m 81.985194,1052.1416 c -2.590524,-0.1903 -3.801726,-0.3285 -6.531219,-0.7452 -0.3079,-0.047 -1.273584,-0.2147 -2.145968,-0.3726 -0.872388,-0.1579 -1.796086,-0.3231 -2.052671,-0.3672 -1.569225,-0.2693 -6.922457,-1.7133 -9.703525,-2.6174 -2.962893,-0.9633 -4.391926,-1.4917 -7.464246,-2.7604 -1.064759,-0.4397 -7.250889,-3.4753 -8.397284,-4.1206 -4.32514,-2.4348 -9.239453,-5.7367 -13.062442,-8.7765 -4.073648,-3.2392 -10.3555,-9.4031 -12.958681,-12.7154 -3.522303,-4.4819 -4.826818,-6.298 -6.822998,-9.4989 -1.447332,-2.3209 -3.3606805,-5.9639 -3.2359332,-6.1613 0.067759,-0.1073 0.035319,-0.1414 -0.072438,-0.076 C 9.033193,1004.2349 4.710489,993.29925 3.6333201,988.99264 3.4826758,988.39032 3.1925009,987.32256 2.9884857,986.61985 1.9663636,983.09915 0.60723902,974.99888 0.44659521,971.47044 l -0.0830886,-1.82523 0.17061736,1.55145 c 0.73148353,6.65088 1.42714873,10.39825 2.99670673,16.14244 2.5040885,9.16439 6.1748267,17.1085 11.4749663,24.834 5.240871,7.639 12.334226,14.9588 19.927681,20.5638 2.158961,1.5935 7.211711,4.9146 8.89074,5.8436 9.986462,5.5256 19.371635,8.8655 29.597543,10.5328 5.286109,0.8619 7.523275,1.0196 14.254923,1.0046 6.726412,-0.015 8.673924,-0.1698 14.461986,-1.1501 12.74588,-2.1588 24.90533,-7.1008 35.7351,-14.5237 3.78265,-2.5928 7.96661,-6.0492 11.485,-9.488 10.33244,-10.0987 17.55441,-21.4816 22.23833,-35.05084 3.73829,-10.82985 5.41528,-22.23533 4.89769,-33.31043 -0.46193,-9.88377 -2.54779,-19.4622 -6.24033,-28.65611 -1.15113,-2.86614 -4.17755,-9.00471 -5.6692,-11.49894 -1.06243,-1.77655 -4.05143,-6.19415 -5.55739,-8.21354 -3.78892,-5.08078 -9.90969,-11.34714 -14.71618,-15.06627 -0.51318,-0.39707 -0.97502,-0.76913 -1.02634,-0.82677 -0.42254,-0.47465 -5.72096,-4.09588 -8.5839,-5.86671 -3.44139,-2.12862 -9.05151,-4.91601 -12.2812,-6.10192 -0.68626,-0.25199 -1.49966,-0.56553 -1.80756,-0.69678 -2.5542,-1.08867 -8.5713,-2.94196 -11.8495,-3.64968 -3.28602,-0.70941 -7.40532,-1.42088 -9.610219,-1.65984 -5.050742,-0.54741 -13.048255,-0.67885 -17.167777,-0.28217 -10.477396,1.00889 -20.24601,3.467 -28.55075,7.18433 -1.181891,0.52903 -5.987919,2.87927 -6.904428,3.3764 -4.094799,2.22106 -9.853549,6.01193 -12.955914,8.52861 -6.642024,5.38813 -12.209578,11.30827 -17.077557,18.15906 -1.523643,2.14423 -2.046245,2.82451 -1.686145,2.19491 1.398467,-2.44519 6.367736,-8.84311 9.498291,-12.22904 1.380769,-1.49338 5.072447,-5.04819 6.539529,-6.29703 0.707571,-0.60233 1.670362,-1.43386 2.139535,-1.84787 0.914178,-0.8067 5.193938,-4.01676 7.136325,-5.35264 5.034693,-3.46266 12.725943,-7.41552 18.535335,-9.52611 0.821069,-0.2983 1.618812,-0.57408 1.772761,-0.61284 0.15395,-0.0387 0.741759,-0.24824 1.306243,-0.46553 1.620243,-0.6237 7.440254,-2.22862 10.26334,-2.83024 7.229316,-1.54057 15.76336,-2.25662 22.765965,-1.91019 15.967516,0.78996 31.182696,5.5519 44.089756,13.79889 3.2729,2.0912 7.9305,5.47338 9.99274,7.25636 8.23574,7.1204 13.86596,13.79313 19.06429,22.59423 1.7671,2.99182 4.2597,7.97863 5.2345,10.4724 0.43163,1.10427 0.93612,2.3363 1.12107,2.73784 0.55884,1.21329 2.82094,8.36641 3.14579,9.9475 0.0928,0.45174 0.42867,2.01232 0.74634,3.46794 0.52987,2.42802 1.35041,7.83675 1.59219,10.49507 0.26749,2.9409 0.33096,10.28523 0.11831,13.68921 -0.22026,3.52608 -0.91376,8.71075 -1.69678,12.68535 -2.47713,12.5739 -9.19706,27.28949 -16.95842,37.13649 -3.60771,4.5771 -4.80823,5.9112 -8.96014,9.957 -4.28626,4.1766 -6.96458,6.4085 -11.39791,9.4981 -4.71548,3.2862 -10.92687,6.7415 -16.06701,8.9378 -8.82742,3.7719 -19.42489,6.3712 -28.905092,7.0897 -3.005816,0.2278 -10.349629,0.1907 -13.902164,-0.07 z m -2.239274,-4.3948 c -0.307899,-0.042 -1.777425,-0.2032 -3.265607,-0.3581 -8.700179,-0.9052 -18.131598,-3.5232 -26.218177,-7.2779 -2.35081,-1.0915 -5.196764,-2.5093 -6.345585,-3.1614 -4.997338,-2.8363 -9.145446,-5.6946 -13.807892,-9.5145 -3.184115,-2.6087 -8.494704,-7.9073 -10.484285,-10.4605 -0.289013,-0.3709 -1.206334,-1.5208 -2.038501,-2.5554 C 12.229152,1007.7597 7.5145748,998.77356 4.7331478,989.92134 4.1941235,988.20591 3.6924011,986.5149 3.6181825,986.16354 3.5439745,985.81217 3.3731539,985.19616 3.2385996,984.79462 2.6439972,983.02011 1.3587633,976.10966 0.99814369,972.7481 0.71804636,970.13705 0.53450398,967.81346 0.5331766,966.86172 0.5320836,966.07315 0.4595671,965.7201 0.298309,965.71817 c -0.17965394,-0.002 -0.18150706,-0.035 -0.008042,-0.1428 0.29086729,-0.18082 0.21669036,-2.14175 -0.0924531,-2.44414 -0.12697531,-0.12418 -0.21274467,-0.62516 -0.19564494,-1.14286 l 0.03042556,-0.92173 0.12577286,1.00387 c 0.14282054,1.13993 0.17000834,1.09141 0.2870101,-0.51203 0.0496179,-0.68005 0.0133623,-1.1082 -0.0886167,-1.04653 -0.0949361,0.0574 -0.22536776,0.0209 -0.28982101,-0.0812 -0.06446887,-0.10203 -0.04928472,-0.1862 0.03376742,-0.18706 0.0830261,-10e-4 0.16238243,-0.98729 0.17631729,-2.1921 0.0179066,-1.54714 0.10013106,-2.28076 0.27990471,-2.49756 0.14002003,-0.16885 0.16007644,-0.25164 0.0445947,-0.184 -0.23810536,0.13947 -0.20156346,-0.44114 0.22725732,-3.61211 0.48084359,-3.55558 0.78311589,-5.28085 1.50996139,-8.61877 0.2953231,-1.35617 0.5596585,-2.18578 0.6743439,-2.11645 0.1087772,0.0658 0.1310095,0.0228 0.052486,-0.10143 -0.1596027,-0.2526 0.4657271,-2.77437 0.6590036,-2.65753 0.0721,0.0436 0.091995,-0.067 0.044189,-0.24582 -0.047786,-0.17881 0.01597,-0.56906 0.1417222,-0.86725 0.125752,-0.29818 0.2393651,-0.58322 0.2524671,-0.63341 0.013097,-0.0502 0.1334352,-0.52228 0.2674013,-1.04909 0.1503632,-0.59134 0.3200332,-0.91162 0.4433803,-0.83704 0.1292969,0.0782 0.1537727,0.004 0.069372,-0.21171 -0.1677336,-0.42754 0.5805685,-2.64777 0.8924032,-2.64777 0.1293437,0 0.3384342,-0.33708 0.4646131,-0.74909 0.1262101,-0.41199 0.2797329,-0.8772 0.3411879,-1.0338 0.073079,-0.18635 0.037,-0.23957 -0.1044932,-0.15405 -0.1436326,0.0868 -0.1768535,0.0305 -0.099043,-0.16788 0.093749,-0.23896 0.1486246,-0.24996 0.2749284,-0.0551 0.11024,0.17012 0.1586294,0.1772 0.160623,0.0235 0.00344,-0.26333 1.5004876,-3.72473 2.2614857,-5.22879 0.5641872,-1.11511 0.6675248,-1.49418 0.3559869,-1.30585 -0.1077986,0.0652 -0.1357725,-0.0126 -0.067327,-0.18706 0.08313,-0.21191 0.1567086,-0.23594 0.2534718,-0.0828 0.08134,0.12873 0.7521692,-0.91424 1.6630882,-2.58564 0.839704,-1.54078 1.707166,-3.08889 1.927679,-3.44025 13.589309,-21.65291 34.922154,-36.0312 59.573777,-40.15262 6.891465,-1.15216 11.632193,-1.48226 18.016532,-1.25453 5.066452,0.18072 9.211759,0.67303 13.799829,1.6389 0.97502,0.20525 1.89872,0.39908 2.05267,0.43071 0.15395,0.0316 1.27531,0.314 2.49191,0.62751 8.70195,2.24244 16.52974,5.64618 25.04271,10.88926 0.31353,0.19309 1.77237,1.21351 3.24189,2.26757 12.71962,9.12372 22.40786,21.0056 28.42567,34.86187 1.30344,3.00128 1.60687,3.78549 2.7542,7.1184 1.98701,5.77213 3.4153,12.59127 4.12881,19.71248 0.32038,3.1976 0.26207,11.4564 -0.10668,15.10987 -0.70667,7.00153 -1.97186,13.4015 -3.68742,18.653 -1.27488,3.90249 -3.39073,9.31049 -4.3576,11.13777 -0.23902,0.45174 -0.72058,1.43737 -1.07011,2.19027 -1.08541,2.338 -3.32532,6.1279 -5.71707,9.6733 -7.00904,10.3897 -17.40061,20.0799 -28.19375,26.2908 -10.57341,6.0845 -22.41283,10.019 -34.355858,11.4174 -2.367718,0.2772 -14.124154,0.5265 -15.561302,0.33 z m 11.756191,-2.3288 c 0.307905,-0.051 1.063656,-0.1357 1.67946,-0.1872 0.986028,-0.083 2.01044,-0.2375 6.904429,-1.0445 2.29367,-0.3782 9.69633,-2.3249 11.00978,-2.8953 0.20525,-0.089 0.83505,-0.3234 1.39954,-0.5206 8.54261,-2.984 17.10686,-7.7048 24.47274,-13.49 2.35832,-1.8522 6.63467,-5.6535 8.09484,-7.1956 6.99131,-7.3835 11.15151,-13.1916 15.2559,-21.2991 1.70248,-3.36294 2.37436,-4.82529 3.11571,-6.78142 0.3234,-0.85331 0.67278,-1.75344 0.77645,-2.0003 0.28403,-0.67649 1.74838,-5.20427 2.18656,-6.7608 1.417,-5.03378 2.57068,-11.52343 3.01755,-16.97449 0.20285,-2.47471 0.27039,-10.50151 0.0973,-11.56757 -0.0509,-0.31369 -0.1354,-1.14531 -0.18766,-1.84802 -1.02409,-13.76436 -6.15001,-28.21437 -14.02227,-39.52907 -5.77192,-8.29589 -12.07608,-14.8188 -19.64413,-20.32578 -1.67991,-1.22239 -5.532,-3.74407 -6.5583,-4.29325 -0.46006,-0.24617 -1.1184,-0.63452 -1.46298,-0.863 -0.3446,-0.22847 -1.05836,-0.6262 -1.58616,-0.88384 -0.52779,-0.25763 -1.42149,-0.70419 -1.98598,-0.99233 -6.69875,-3.4195 -12.17604,-5.32932 -21.1798,-7.38502 -2.41361,-0.55106 -6.202757,-1.10612 -9.983439,-1.46245 -3.082976,-0.29057 -12.032072,-0.26121 -14.461984,0.0474 -0.821068,0.10429 -1.9547,0.23884 -2.519184,0.29898 -1.539408,0.16403 -2.272844,0.2734 -5.13167,0.76528 -14.194541,2.44225 -27.669975,8.69163 -39.398216,18.27135 -2.434619,1.9886 -7.205332,6.64111 -9.589653,9.35203 -1.756849,1.9975 -5.608193,6.995 -6.439415,8.3558 -0.105499,0.17273 -0.601579,0.93005 -1.102368,1.68297 -1.748272,2.62837 -4.4486612,7.56897 -5.9206128,10.83228 -2.4051495,5.33221 -4.6963111,12.64368 -5.8713415,18.73643 -1.3052331,6.76785 -1.64203802,10.16718 -1.63660358,16.51833 0.007964,9.31229 1.01997198,16.30615 3.68440238,25.46194 2.7767109,9.54172 7.8976995,19.23125 14.2768195,27.01335 0.781731,0.9537 1.471685,1.775 1.533208,1.8252 0.06153,0.05 0.870262,0.9537 1.797206,2.0078 1.744826,1.9841 5.114613,5.2638 7.036343,6.8482 0.606428,0.4999 1.404171,1.1637 1.772761,1.4749 1.229246,1.0381 5.310925,4.0054 7.335411,5.3328 3.566257,2.3382 8.582436,5.042 12.079845,6.5112 0.7746,0.3253 1.786256,0.7637 2.248105,0.9741 1.956361,0.891 7.031828,2.5921 10.636557,3.5651 3.70247,0.9993 7.767408,1.7403 12.121792,2.2099 1.389727,0.1498 2.820702,0.3071 3.179916,0.3494 0.870613,0.1026 12.255686,-0.016 12.969132,-0.1352 z m -13.528952,-2.0646 c -3.998632,-0.2788 -6.067596,-0.5252 -9.143705,-1.089 -8.510865,-1.5598 -15.36788,-3.824 -22.859263,-7.5481 -4.29646,-2.1358 -8.533393,-4.6776 -11.569592,-6.9408 -0.615798,-0.459 -1.875386,-1.3984 -2.79909,-2.0876 -7.320317,-5.4615 -15.408614,-14.7427 -19.964107,-22.9083 -2.2310915,-3.99924 -4.4317781,-8.71895 -5.322146,-11.41416 -0.2321348,-0.70271 -0.4732489,-1.3598 -0.535797,-1.46018 -0.062543,-0.10039 -0.2076486,-0.51106 -0.3224328,-0.91262 -0.1147843,-0.40156 -0.545656,-1.87998 -0.9574811,-3.28541 -1.842753,-6.28877 -2.6907281,-11.0113 -3.2118459,-17.88725 -0.32176132,-4.24572 -0.1007765,-12.17041 0.4555453,-16.3358 0.2305732,-1.72639 0.8683231,-5.43813 1.1446934,-6.6621 0.1586814,-0.7027 0.3988012,-1.77046 0.5336106,-2.37279 2.1097119,-9.42607 6.3195993,-19.07917 11.9402725,-27.37844 11.539951,-17.03947 28.705994,-29.07603 48.690815,-34.14124 1.426753,-0.36161 2.749325,-0.61778 2.939046,-0.56926 0.189706,0.0485 0.344926,0.0245 0.344926,-0.0533 0,-0.0779 0.272908,-0.18868 0.60647,-0.24628 0.333557,-0.0576 1.488182,-0.26574 2.565835,-0.46256 1.077648,-0.19681 2.589161,-0.41544 3.358909,-0.48585 0.769754,-0.0704 1.444576,-0.15447 1.499623,-0.18681 0.05503,-0.0323 0.852775,-0.11421 1.772762,-0.18193 0.919971,-0.0677 1.73193,-0.15845 1.804373,-0.20163 0.346191,-0.20642 10.742919,-0.0431 13.300675,0.20891 7.935785,0.78197 15.009055,2.502 22.862555,5.55957 3.7698,1.46769 10.89176,5.10671 13.29041,6.79085 0.33221,0.23326 0.74982,0.50623 0.92801,0.60661 2.66837,1.50319 9.91629,7.26455 12.20614,9.70264 0.31876,0.33942 1.32645,1.37527 2.23926,2.3019 5.65377,5.73924 11.20689,13.82556 14.81945,21.57968 3.74812,8.04507 6.46272,17.88103 7.17831,26.00952 0.386,4.38495 0.44885,5.58616 0.44045,8.41902 -0.0165,5.55095 -0.71778,12.29043 -1.77352,17.04293 -0.15613,0.70271 -0.43826,1.9758 -0.627,2.8291 -0.4436,2.00553 -2.00439,7.02529 -3.04456,9.79177 -1.58888,4.22596 -3.9584,9.15148 -6.09799,12.67591 -0.61494,1.013 -1.11808,1.8786 -1.11808,1.9235 0,0.045 -0.15826,0.3042 -0.35167,0.5762 -0.19341,0.272 -0.96247,1.398 -1.70899,2.5023 -8.5716,12.6791 -21.76103,23.5001 -36.10031,29.6178 -2.22904,0.951 -9.35719,3.473 -10.567,3.7388 -0.24352,0.053 -1.40846,0.3418 -2.58875,0.6409 -3.272697,0.829 -5.726028,1.2898 -9.42361,1.7702 -4.188754,0.5442 -11.059501,0.7866 -14.835201,0.5233 z m 9.901815,-2.3462 c 11.304789,-1.0254 22.985216,-4.5537 32.457806,-9.8044 2.03609,-1.1286 1.98326,-1.0968 4.90951,-2.9539 16.72853,-10.6164 29.06868,-27.1818 34.54619,-46.37465 1.86174,-6.52338 2.66758,-11.35317 3.1063,-18.61734 0.17836,-2.95315 0.12014,-8.37128 -0.10547,-9.81414 -0.035,-0.22393 -0.11871,-1.10529 -0.186,-1.95859 -0.44542,-5.64802 -2.47888,-14.53347 -4.51126,-19.71249 -3.35815,-8.55733 -6.56914,-14.30079 -11.7859,-21.08138 -6.5859,-8.56014 -15.06789,-15.74977 -24.76043,-20.98783 -8.40908,-4.54443 -18.00424,-7.7355 -27.151208,-9.02967 -2.247098,-0.31791 -2.96271,-0.39988 -4.797072,-0.5494 -1.876026,-0.15292 -12.727586,-0.1145 -13.397037,0.0474 -0.20527,0.0496 -1.044994,0.14587 -1.866063,0.2138 -2.284899,0.18909 -8.578269,1.30209 -11.406565,2.01729 -2.310765,0.58434 -7.659386,2.2322 -8.560305,2.63736 -0.205265,0.0923 -1.42287,0.5982 -2.70579,1.12418 -7.3877,3.02898 -14.291183,7.15477 -20.526687,12.26753 -1.918529,1.5731 -7.011145,6.49141 -9.008393,8.70012 -1.409922,1.55916 -4.774305,5.83771 -6.129404,7.79484 -5.785818,8.35641 -10.1395467,18.39563 -12.3714448,28.52721 -0.6104112,2.77089 -1.3613161,7.0748 -1.5126162,8.66983 -0.066671,0.70272 -0.1637671,1.52408 -0.2157846,1.82524 -0.052018,0.30116 -0.1496813,2.18488 -0.2170131,4.18603 -0.1932869,5.74422 0.1058101,11.03693 0.9290024,16.43906 0.4140218,2.71695 1.6900734,8.4881 2.1994842,9.9475 0.087623,0.25098 0.310247,0.99019 0.4947575,1.64271 0.5020972,1.77572 2.1542649,6.19183 3.2435624,8.66984 2.4741782,5.62835 6.9816252,12.87475 10.6722402,17.15725 0.173023,0.2007 0.619574,0.7346 0.992308,1.1864 1.180422,1.4306 5.726286,6.0566 7.471083,7.6027 13.180505,11.68 30.278289,18.9611 47.677898,20.3037 3.304403,0.2551 9.262909,0.2188 12.514301,-0.076 z m -12.607602,-2.0191 c -5.797446,-0.4126 -11.478843,-1.4206 -17.35438,-3.0791 -1.878738,-0.5303 -1.653542,-0.4547 -5.224977,-1.7551 -7.600759,-2.7675 -14.829823,-6.7867 -21.646315,-12.0348 -5.02317,-3.8674 -10.554995,-9.5579 -14.193313,-14.6004 -0.398375,-0.5521 -0.779496,-1.0449 -0.846913,-1.0951 -0.247949,-0.1846 -2.575894,-3.8034 -3.766648,-5.8553 -1.353581,-2.33249 -3.1146719,-5.89142 -4.0629186,-8.21061 C 6.1331347,987.3713 4.6277489,982.44756 3.6273492,977.4937 2.9929984,974.35244 2.8338069,973.24919 2.2579648,968.00251 2.017642,965.81296 2.0935471,955.59692 2.3657634,953.49194 c 0.5875855,-4.54361 0.9639359,-6.75556 1.7390563,-10.22129 1.7216649,-7.69794 4.9495017,-16.0258 8.5955083,-22.17654 0.357058,-0.60232 0.844934,-1.42368 1.08421,-1.82522 1.498161,-2.51436 6.385926,-9.19065 6.981232,-9.53585 0.130779,-0.0758 0.271064,-0.23384 0.311784,-0.35113 0.291589,-0.84017 6.439947,-6.97183 9.590922,-9.56488 6.552849,-5.39256 13.746352,-9.6527 21.553021,-12.76414 4.590199,-1.82951 12.157007,-3.94202 15.954835,-4.4543 0.307905,-0.0415 1.441537,-0.2007 2.519184,-0.35369 6.423156,-0.91191 12.876466,-1.04269 19.220443,-0.3895 2.2796,0.23471 5.441495,0.70209 6.158008,0.91025 0.153949,0.0447 0.601468,0.13043 0.994481,0.19044 0.93288,0.14245 5.020432,1.11073 6.096552,1.44419 3.06453,0.9496 6.54988,2.15771 7.93078,2.74902 0.30788,0.13185 1.35754,0.58103 2.33256,0.99819 4.45673,1.90676 11.54964,6.04629 15.38642,8.97973 2.99548,2.29021 7.18095,6.04931 9.71602,8.72623 8.28489,8.74852 14.5989,19.66166 17.89952,30.93763 0.1763,0.60232 0.39183,1.30048 0.47895,1.55145 0.67438,1.94244 1.8562,7.96925 2.237,11.40768 0.12228,1.10426 0.29322,2.5827 0.37983,3.28542 0.15979,1.29634 0.0827,11.54458 -0.0982,13.05038 -0.0543,0.45174 -0.18579,1.56058 -0.29228,2.46406 -0.24427,2.07269 -0.83143,5.6348 -1.20341,7.30093 -0.1569,0.70271 -0.36259,1.64726 -0.4571,2.099 -0.52006,2.48574 -2.30635,7.86904 -3.87616,11.68148 -4.19749,10.19405 -10.30511,19.16392 -18.24431,26.79442 -4.83049,4.6426 -9.47406,8.19 -15.11512,11.5469 -2.02084,1.2026 -6.08364,3.3138 -7.46425,3.8787 -0.61579,0.252 -1.70745,0.7248 -2.42587,1.0507 -2.24165,1.0167 -8.28984,3.0265 -11.42473,3.7964 -3.53621,0.8684 -7.592782,1.5956 -10.968026,1.9663 -2.298579,0.2524 -10.683186,0.466 -12.689222,0.3232 z m 12.442341,-2.6136 c 10.174968,-1.2581 20.120837,-4.5545 29.300707,-9.7111 9.16293,-5.1471 17.8811,-12.8381 24.16918,-21.3216 0.6379,-0.8606 1.25233,-1.6699 1.36538,-1.7983 0.11307,-0.1285 1.00044,-1.5248 1.97195,-3.1029 0.97153,-1.57817 1.84707,-2.99258 1.94567,-3.14316 0.0986,-0.15059 0.89246,-1.67972 1.76412,-3.39807 1.60764,-3.16931 3.23647,-7.0341 4.22183,-10.01737 0.29842,-0.90349 0.66703,-2.01232 0.81913,-2.46407 0.3077,-0.9139 1.69649,-6.48453 1.86566,-7.48342 0.0595,-0.35137 0.14414,-0.76204 0.18809,-0.91263 0.21437,-0.73462 0.84047,-5.49828 1.03155,-7.84848 1.01968,-12.54192 -1.03463,-25.09866 -5.97222,-36.50458 -1.57021,-3.62724 -4.11785,-8.42912 -5.43786,-10.24947 -0.19322,-0.26646 -0.35131,-0.534 -0.35131,-0.59454 0,-0.35364 -4.02178,-5.73491 -6.06914,-8.12071 -9.29298,-10.82921 -21.12245,-18.66552 -34.64879,-22.95275 -1.77531,-0.5627 -3.39578,-1.08783 -3.60105,-1.16698 -0.20527,-0.0792 -0.625137,-0.18839 -0.933036,-0.24277 -0.307899,-0.0544 -1.651465,-0.342 -2.985697,-0.63919 -7.322357,-1.63089 -16.896523,-2.09774 -24.725329,-1.20562 -6.469765,0.73725 -14.538212,2.71404 -19.500347,4.77765 -0.615806,0.25608 -1.744883,0.72271 -2.509057,1.03693 -7.59269,3.12205 -15.655255,8.27532 -21.441146,13.70434 -6.067621,5.69334 -9.803512,10.14867 -13.781728,16.43569 -2.020774,3.19358 -4.6855321,8.35351 -5.7970358,11.22517 -0.2137181,0.55213 -0.6418413,1.66095 -0.9513544,2.46406 -0.309539,0.8031 -0.8251651,2.3226 -1.1458021,3.37667 -0.3206682,1.05407 -0.6563019,2.12183 -0.7458556,2.3728 -0.4992915,1.39932 -1.8349708,7.62424 -2.3106454,10.76884 -0.8946989,5.91478 -1.0264111,14.04335 -0.3223548,19.89501 0.6570932,5.46139 1.6366296,10.21636 3.0079764,14.60184 1.0761173,3.44135 1.1948369,3.77235 2.3410294,6.52763 5.6645963,13.61668 15.1237493,25.01638 27.6091033,33.27298 1.129658,0.7471 2.221302,1.4575 2.425877,1.5786 3.622417,2.1459 8.631194,4.7008 10.851193,5.5349 0.599693,0.2253 1.846094,0.6934 2.7698,1.0401 1.437424,0.5396 3.304512,1.1628 5.598183,1.8687 2.879299,0.886 7.915877,1.8988 11.794149,2.3717 4.197915,0.5118 4.278432,0.5156 9.945477,0.4596 3.856311,-0.038 5.905099,-0.1463 8.243703,-0.4355 z m -17.294107,-2.0232 c -3.199191,-0.3314 -5.623637,-0.6936 -8.024065,-1.1986 -1.636182,-0.3442 -6.21824,-1.516 -6.717823,-1.7179 -0.205265,-0.083 -1.422875,-0.4992 -2.705793,-0.925 -11.563635,-3.8377 -23.509586,-11.7525 -31.395149,-20.8008 -2.922506,-3.3534 -3.849725,-4.5222 -5.382908,-6.7851 C 9.1720103,992.56553 5.2827546,982.01678 3.7856662,969.28016 3.4270298,966.22906 3.2814921,958.55371 3.519155,955.22591 c 0.8019438,-11.22854 4.3980834,-23.16208 9.790636,-32.4895 1.388997,-2.40256 4.722187,-7.42272 5.456328,-8.21789 0.18302,-0.19824 0.706837,-0.85322 1.16403,-1.45549 2.003998,-2.63995 4.502112,-5.29218 8.445572,-8.96656 1.397402,-1.30205 5.709334,-4.78093 6.912531,-5.57707 3.21456,-2.12699 5.02889,-3.27043 5.736872,-3.61556 0.461854,-0.22514 0.965687,-0.51551 1.119635,-0.64524 0.529855,-0.44655 6.628071,-3.33259 8.8638,-4.19489 4.916257,-1.89613 9.375936,-3.19386 13.715558,-3.99109 6.270679,-1.15202 9.123388,-1.38798 15.581623,-1.28888 5.1318,0.0788 5.590776,0.10372 8.210674,0.44648 0.821069,0.10741 1.82874,0.23934 2.239274,0.29313 0.410535,0.0538 1.334233,0.21823 2.052672,0.36541 0.718433,0.14714 1.590832,0.31206 1.938667,0.36644 2.18671,0.3419 9.948353,2.7581 12.896523,4.0147 13.9407,5.94189 24.4681,14.51694 33.12261,26.97986 7.03068,10.12457 11.63348,23.4404 12.49604,36.15091 0.11349,1.67249 0.12866,10.84943 0.0182,11.02423 -0.0469,0.0743 -0.1776,1.03291 -0.2903,2.13016 -0.55334,5.38745 -1.8385,11.24255 -3.62478,16.51419 -1.80842,5.33699 -3.87681,9.70717 -7.35861,15.5475 -1.23272,2.06775 -4.81707,6.98905 -6.48359,8.90195 -6.42669,7.3768 -12.28414,12.2406 -20.60194,17.107 -1.357,0.794 -6.14079,3.1416 -8.02407,3.9378 -5.68119,2.4019 -11.698181,4.2064 -16.514654,4.953 -0.307899,0.048 -1.147629,0.1781 -1.866062,0.2897 -5.625543,0.8743 -12.829831,1.0912 -18.100808,0.5451 z m 12.167496,-2.095 c 3.135093,-0.295 5.537837,-0.6427 8.359195,-1.2098 4.108247,-0.8257 10.094253,-2.6901 13.495323,-4.2032 0.64861,-0.2886 1.25635,-0.5247 1.35049,-0.5247 0.38178,0 6.78052,-3.3299 9.13309,-4.7529 7.0482,-4.2631 13.37972,-9.8406 19.15773,-16.8761 1.53786,-1.8726 4.74527,-6.43772 5.77072,-8.21352 0.11594,-0.20076 0.54798,-0.93999 0.9601,-1.64271 2.25172,-3.83945 4.87268,-9.92072 6.37187,-14.78436 1.55778,-5.05359 2.54666,-10.20184 3.01511,-15.69696 0.2091,-2.45266 0.26167,-9.13927 0.0883,-11.22517 -0.15822,-1.90336 -0.65957,-6.04269 -0.84004,-6.93586 -0.0913,-0.45175 -0.30499,-1.56058 -0.4749,-2.46406 -0.52946,-2.8154 -1.55786,-6.432 -2.85463,-10.03876 -2.8549,-7.94056 -7.59426,-16.05839 -12.8665,-22.03839 -4.73664,-5.37251 -9.62423,-9.69117 -15.24872,-13.47369 -0.51318,-0.3451 -0.97503,-0.66853 -1.02635,-0.71873 -0.0513,-0.0502 -0.42919,-0.26312 -0.83973,-0.47316 -0.41052,-0.21005 -1.58389,-0.85101 -2.60744,-1.42436 -6.70404,-3.75523 -15.907511,-7.08233 -22.491092,-8.13063 -0.667118,-0.10621 -1.422875,-0.22882 -1.679454,-0.27246 -0.256585,-0.0436 -1.264261,-0.16994 -2.23928,-0.28068 -0.975012,-0.11074 -2.192623,-0.25903 -2.705787,-0.32954 -0.513169,-0.0705 -3.410229,-0.12293 -6.437918,-0.11649 -4.504019,0.01 -6.098604,0.0847 -8.770489,0.41312 -16.556735,2.03512 -31.15994,8.96706 -42.735557,20.28595 -10.834506,10.5942 -17.6442548,23.09855 -20.8751525,38.33179 -1.0724839,5.05662 -1.507775,9.86869 -1.4199235,15.69697 0.077399,5.13475 0.2557412,7.28102 0.9554614,11.49893 1.7850875,10.76039 5.9813576,21.03664 12.0742856,29.56877 1.292967,1.8105 3.336777,4.4605 3.660075,4.7455 0.05693,0.05 0.644721,0.7073 1.306211,1.4602 4.337108,4.9366 10.919593,10.3208 17.028819,13.9288 1.572413,0.9286 6.59446,3.4725 8.079544,4.0925 4.147366,1.7317 6.052554,2.3874 10.818759,3.7233 3.088165,0.8656 7.618481,1.6743 11.573991,2.0662 3.32775,0.3296 9.48962,0.3364 12.913919,0.014 z m -12.048792,-1.941 c -7.743656,-0.5447 -15.929734,-2.5337 -23.296412,-5.6604 -5.713994,-2.4253 -10.15248,-5.0618 -16.388504,-9.7349 -3.014809,-2.2593 -8.158218,-7.4306 -11.217673,-11.2786 -1.797251,-2.2605 -3.798436,-5.05175 -3.798436,-5.29808 0,-0.0873 -0.238276,-0.5021 -0.529519,-0.92174 -1.782398,-2.56823 -4.283761,-7.70563 -6.2368215,-12.80948 -1.5139018,-3.95621 -3.402301,-12.02986 -3.5921523,-15.35788 -0.029442,-0.51622 -0.1008754,-1.09117 -0.1587334,-1.27766 -0.3284242,-1.05861 -0.5260212,-9.63829 -0.2915388,-12.6594 0.1994969,-2.57075 0.6482596,-6.13636 1.0337506,-8.21353 0.6587797,-3.54974 2.2460517,-9.4477 3.1928514,-11.864 1.21304,-3.09569 1.810079,-4.53113 2.163687,-5.20189 0.211662,-0.40156 0.405526,-0.84781 0.430819,-0.9917 0.08556,-0.48706 2.200695,-4.47279 3.396615,-6.40049 3.802032,-6.12849 7.069655,-10.19029 11.828745,-14.70368 7.284938,-6.90884 15.061996,-11.83442 24.124174,-15.27902 5.590596,-2.12503 11.718673,-3.57848 18.38072,-4.35952 3.097998,-0.36321 12.201341,-0.31594 15.488317,0.0804 10.779642,1.29984 20.510341,4.68888 29.390481,10.23618 9.48676,5.92625 18.07662,14.73724 23.33367,23.93438 2.52389,4.41552 3.16793,5.71834 4.60155,9.30868 2.06468,5.17072 3.02929,8.58981 4.04927,14.35285 2.98468,16.86369 -0.47756,34.66686 -9.63576,49.54802 -4.40534,7.15826 -10.09203,13.62366 -16.28402,18.51396 -0.56449,0.4458 -1.06832,0.8599 -1.11965,0.9201 -0.19642,0.2306 -3.70288,2.6881 -5.03836,3.5311 -0.76975,0.4859 -1.73544,1.1064 -2.14597,1.3788 -0.80909,0.537 -4.70599,2.6196 -6.0647,3.2412 -5.67929,2.5981 -9.649583,3.9781 -15.02181,5.2211 -7.222054,1.6711 -13.765663,2.2256 -20.59459,1.7452 z m 10.862742,-2.3864 c 3.490262,-0.357 4.845769,-0.5924 8.798817,-1.5288 10.710001,-2.5367 20.570401,-7.4851 29.333811,-14.721 3.69197,-3.0484 9.58045,-9.4762 12.08819,-13.19527 0.40616,-0.60232 0.88004,-1.2594 1.0531,-1.46018 0.17305,-0.20077 0.47992,-0.65252 0.68191,-1.00388 0.20199,-0.35135 0.84278,-1.41912 1.42395,-2.3728 1.16453,-1.91096 3.16712,-5.81702 3.93022,-7.66595 0.26931,-0.65252 0.56757,-1.35068 0.66277,-1.55145 1.93624,-4.08312 4.12624,-12.59321 4.88496,-18.98239 0.37082,-3.12288 0.32042,-12.36012 -0.0847,-15.51445 -0.18048,-1.40542 -0.37241,-2.76065 -0.4265,-3.01163 -0.0541,-0.25096 -0.30121,-1.52405 -0.54919,-2.8291 -0.58948,-3.10226 -1.78681,-7.37714 -2.69813,-9.6331 -0.0901,-0.2231 -0.35333,-0.89847 -0.58493,-1.5008 -0.23158,-0.60232 -0.70524,-1.70598 -1.05255,-2.45257 -0.34733,-0.74659 -0.81316,-1.77329 -1.03517,-2.28154 -0.42444,-0.97178 -1.77966,-3.58132 -2.42306,-4.66582 -1.19418,-2.0129 -4.26777,-6.53349 -4.87726,-7.17342 -0.26787,-0.28124 -0.48703,-0.57376 -0.48703,-0.65005 0,-0.0763 -0.14696,-0.29834 -0.32655,-0.49346 -0.17962,-0.1951 -0.78726,-0.88821 -1.35035,-1.54022 -3.39856,-3.93534 -7.73361,-7.94387 -11.7606,-10.87475 -4.96475,-3.61343 -11.39979,-7.07344 -16.606105,-8.92883 -0.769748,-0.27432 -1.567491,-0.56901 -1.772756,-0.65487 -1.476766,-0.61775 -9.11848,-2.54316 -11.142094,-2.80736 -0.235123,-0.0307 -1.561125,-0.20731 -2.946678,-0.39247 -3.41965,-0.45697 -12.51557,-0.46542 -16.246665,-0.0151 -6.446091,0.77802 -11.761907,2.08998 -17.902276,4.4183 -10.801292,4.09569 -20.879637,11.4704 -28.56063,20.89894 -3.351635,4.11421 -5.265478,7.02623 -7.977076,12.13752 -3.7133145,6.99953 -6.7307699,17.47637 -7.4122399,25.73574 -0.06627,0.80309 -0.1547722,1.66551 -0.1966861,1.91648 -0.1129988,0.67668 -0.108215,8.33419 0.00594,9.49425 0.054167,0.55045 0.1889872,1.90431 0.2996228,3.00857 0.5985324,5.97383 2.891896,14.80302 5.0254802,19.34743 0.09427,0.20078 0.393716,0.89894 0.665453,1.55144 1.744145,4.18818 5.593337,10.38032 9.175102,14.75989 4.640591,5.6742 10.687003,10.9039 17.107403,14.7966 4.670674,2.8319 9.216257,4.9286 14.424865,6.6535 5.948594,1.97 10.26323,2.8158 17.689544,3.4678 1.962295,0.1723 8.26899,0.011 11.168049,-0.2852 z m -11.54126,-1.7279 c -14.867667,-0.9825 -28.257842,-6.1964 -39.46722,-15.3679 -2.196464,-1.7971 -6.862079,-6.3666 -8.117376,-7.9502 -0.307897,-0.3884 -0.989666,-1.2227 -1.515012,-1.854 -1.473219,-1.77044 -4.168398,-5.77671 -5.518659,-8.20328 -4.520781,-8.12434 -7.0170252,-15.81309 -8.207297,-25.27942 -0.3878075,-3.08436 -0.330496,-13.37976 0.090933,-16.33581 1.4817741,-10.39359 4.668796,-19.54413 9.53955,-27.38997 2.617086,-4.2156 3.525387,-5.47755 6.096106,-8.4696 4.450617,-5.18001 9.514236,-9.62824 15.095998,-13.26133 9.15362,-5.95796 20.336933,-9.70943 31.723067,-10.6416 4.271753,-0.34971 12.240491,-0.0387 16.141438,0.63006 11.665258,1.99974 21.44442,6.29706 30.79003,13.53031 2.07208,1.60372 6.97152,6.2697 8.88195,8.45872 4.78117,5.47839 8.76183,11.90072 11.36964,18.34356 6.47909,16.00728 6.70291,32.78369 0.65683,49.2301 -4.43955,12.07633 -12.91623,23.29686 -23.4276,31.01106 -4.7595,3.4929 -10.7144,6.8281 -15.77202,8.8334 -3.168256,1.2562 -9.939132,3.2092 -12.592132,3.6322 -2.369529,0.3777 -4.581016,0.6878 -6.046695,0.8477 -1.753278,0.1913 -8.075178,0.3448 -9.721531,0.236 z m 10.356647,-2.4969 c 1.077647,-0.1611 2.295253,-0.3429 2.705787,-0.4039 5.016927,-0.7458 10.952051,-2.52 16.203226,-4.8437 9.676858,-4.2822 19.067218,-11.5125 25.349658,-19.51863 0.27471,-0.35011 0.82319,-1.04723 1.21881,-1.54917 1.09277,-1.38642 2.47028,-3.4285 3.84525,-5.70042 5.2514,-8.67707 8.42652,-18.50243 9.27623,-28.70515 0.7425,-8.91531 -0.38272,-17.95483 -3.29322,-26.45653 -1.26777,-3.70314 -1.69659,-4.70177 -3.52252,-8.20292 -2.01602,-3.86565 -2.36411,-4.46734 -3.8129,-6.59074 -3.41247,-5.00139 -8.32895,-10.47051 -12.23522,-13.61056 -0.61581,-0.495 -1.16163,-0.94543 -1.21295,-1.00092 -0.0513,-0.0555 -0.4292,-0.34297 -0.83973,-0.63883 -0.41053,-0.29585 -0.84659,-0.63003 -0.96902,-0.7426 -0.12242,-0.11259 -1.54996,-1.06869 -3.17232,-2.12466 -2.87966,-1.87439 -5.63606,-3.42387 -8.08136,-4.54284 -0.66712,-0.30529 -1.716782,-0.78687 -2.332586,-1.07022 -2.203539,-1.01389 -8.163966,-2.95251 -10.356647,-3.36848 -0.359214,-0.0681 -1.644297,-0.32126 -2.855744,-0.56247 -1.211448,-0.2412 -2.72296,-0.48665 -3.358914,-0.54542 -0.635954,-0.0588 -1.828069,-0.19258 -2.649137,-0.29735 -2.950171,-0.37644 -8.831512,-0.32638 -13.382556,0.11389 -8.682845,0.84001 -18.093835,3.82234 -25.412809,8.05333 -3.185085,1.84125 -4.602476,2.76267 -7.016475,4.56128 -3.427244,2.55357 -5.891018,4.82864 -10.172807,9.39371 -3.028546,3.22888 -7.583775,10.04917 -9.748348,14.59568 -2.247851,4.72138 -4.013881,9.84264 -5.1927377,15.05814 -1.953805,8.64413 -2.0450192,18.71499 -0.2495989,27.56096 0.5966949,2.93987 2.4309216,9.19713 3.1567366,10.76885 0.09273,0.20078 0.518624,1.1864 0.946434,2.19028 4.145563,9.72753 11.235917,18.76609 19.770786,25.20329 1.889293,1.4249 2.380439,1.7647 4.640708,3.21 6.165394,3.9425 12.976818,6.7829 20.64113,8.6076 2.345267,0.5584 6.32213,1.1863 8.457931,1.3354 0.890352,0.062 1.655254,0.1447 1.699813,0.1834 0.235461,0.2043 10.183848,-0.095 11.9551,-0.3603 z m -10.284375,-1.665 c -0.04576,-0.045 -0.886678,-0.096 -1.868697,-0.1139 -4.594093,-0.084 -11.710826,-1.501 -17.308475,-3.4469 -9.493347,-3.3001 -18.439864,-9.0663 -25.075572,-16.1615 C 17.50996,993.586 12.221208,983.22178 9.8881691,971.37918 9.6805206,970.32511 9.4630025,969.05201 9.404827,968.55007 9.346667,968.04813 9.2515853,967.26784 9.1935711,966.81611 8.6128307,962.29423 8.7133209,953.79389 9.3974978,949.5677 c 0.6983612,-4.31393 2.9111402,-12.30713 4.0928102,-14.78437 0.143656,-0.30116 0.42668,-0.95944 0.628936,-1.46287 0.446426,-1.11116 2.835765,-5.88565 3.51529,-7.02445 0.72008,-1.20675 4.649305,-6.96634 5.044239,-7.39407 0.186374,-0.20181 0.67474,-0.7758 1.085274,-1.27553 1.980378,-2.41064 5.503933,-5.87181 8.501894,-8.35136 0.455631,-0.37685 0.954376,-0.7948 1.108331,-0.9288 0.153944,-0.13401 0.57066,-0.44169 0.926011,-0.68376 0.355349,-0.24207 0.814574,-0.58617 1.020519,-0.76467 0.570168,-0.49425 4.860063,-3.24177 6.54405,-4.19124 1.336685,-0.75363 4.302561,-2.18852 6.064708,-2.93408 0.359209,-0.15198 1.127266,-0.48036 1.706752,-0.72974 3.126047,-1.34521 10.503285,-3.23654 14.994503,-3.84418 2.890308,-0.39105 12.234146,-0.54609 14.835195,-0.24615 3.767038,0.43438 7.234985,1.01343 8.523019,1.42311 0.325738,0.1036 0.829574,0.22878 1.119635,0.27816 1.24446,0.21186 6.340561,1.88543 7.991636,2.62447 0.205269,0.0919 0.793079,0.34596 1.306243,0.56464 3.890257,1.65779 8.436717,4.26969 11.949227,6.86473 0.7909,0.58432 1.6859,1.23879 1.98888,1.45439 2.33219,1.65949 7.14533,6.36504 9.77401,9.5555 2.14603,2.60469 5.11073,6.96867 6.50992,9.58246 1.75739,3.28301 4.11816,8.84529 4.84962,11.4264 0.15356,0.54184 0.44285,1.56011 0.64289,2.26282 0.69133,2.42849 1.34995,5.86503 1.81899,9.49119 0.4168,3.22234 0.41484,10.57394 -0.004,13.98543 -1.19385,9.73044 -4.01051,17.99998 -8.88246,26.07836 -4.93751,8.18709 -12.17513,15.69091 -19.97018,20.70461 -3.96879,2.5527 -4.36391,2.7822 -7.07412,4.1102 -6.783884,3.3241 -13.288514,5.2724 -21.01011,6.2933 -2.233324,0.2953 -8.875476,0.5786 -9.071434,0.3869 z m 7.671884,-2.2709 c 0.667118,-0.096 1.611903,-0.2243 2.099524,-0.2852 1.066831,-0.1331 4.700034,-0.8636 6.764271,-1.36 4.302096,-1.0346 10.742065,-3.6408 15.325417,-6.2018 2.04191,-1.141 7.44341,-4.8096 8.09367,-5.4971 0.0513,-0.054 0.76509,-0.6441 1.58616,-1.3107 3.26407,-2.6501 7.65675,-7.35004 10.2904,-11.01011 2.70962,-3.76571 5.78529,-9.04317 6.70149,-11.49895 0.18725,-0.50194 0.44274,-1.07689 0.56771,-1.27766 0.31877,-0.51205 2.00502,-5.36278 2.47455,-7.1184 1.00812,-3.76934 1.71979,-7.33911 1.96499,-9.85623 0.0587,-0.60233 0.15446,-1.58796 0.21286,-2.19028 0.0584,-0.60233 0.12971,-2.40931 0.1584,-4.01551 0.12742,-7.13451 -0.90815,-13.68653 -3.25265,-20.57953 -1.99542,-5.86666 -4.63462,-10.89932 -8.51066,-16.22889 -2.77974,-3.82215 -7.20192,-8.46527 -10.48858,-11.01258 -0.64762,-0.50195 -1.27511,-0.99695 -1.39442,-1.10003 -0.52694,-0.45522 -3.85698,-2.82085 -4.7888,-3.4019 -0.56449,-0.352 -1.42593,-0.89103 -1.91434,-1.19787 -3.55352,-2.23249 -10.606326,-5.13818 -15.626647,-6.438 -7.48474,-1.9379 -17.225343,-2.39037 -25.098541,-1.16586 -8.499724,1.32194 -16.155734,4.16063 -23.512387,8.71794 -6.51618,4.03663 -12.900427,9.99264 -17.436794,16.26718 -1.123078,1.55338 -2.809982,4.08306 -2.809982,4.21383 0,0.0607 -0.158525,0.3284 -0.352299,0.59486 -0.447228,0.61508 -2.576442,4.67255 -3.271332,6.23395 -3.621391,8.13725 -5.6304774,17.7056 -5.4995669,26.19205 0.1340029,8.68779 1.4476739,15.29936 4.5876059,23.08915 3.180636,7.89068 7.456987,14.20172 13.855505,20.44784 3.474665,3.3919 6.613422,5.7991 11.206776,8.5948 7.790062,4.7412 18.040286,7.9951 26.777991,8.5006 0.923704,0.053 1.720921,0.1354 1.771606,0.1822 0.154507,0.1425 8.222917,-0.1015 9.518073,-0.2878 z m -12.782525,-1.9537 c -5.869535,-0.6145 -10.975022,-1.8398 -16.42135,-3.9409 -2.221643,-0.8572 -6.421623,-2.9036 -8.117378,-3.9553 -0.667114,-0.4137 -1.440669,-0.8769 -1.719014,-1.0294 -0.463608,-0.254 -3.485694,-2.345 -4.22028,-2.92 -2.180699,-1.7072 -4.119021,-3.3468 -5.282513,-4.4685 -8.734983,-8.42139 -14.879905,-19.84074 -16.945295,-31.49015 -0.735887,-4.15056 -0.958647,-6.75146 -0.945686,-11.04262 0.03183,-10.56327 2.052512,-18.93254 6.852259,-28.3808 0.662546,-1.3042 1.261365,-2.41303 1.330701,-2.46405 0.06935,-0.0511 0.370808,-0.54454 0.669922,-1.09667 2.677858,-4.94307 8.442141,-11.4169 14.308685,-16.06996 3.371545,-2.67414 8.779955,-5.99473 12.089897,-7.42281 0.575124,-0.24813 1.465533,-0.63722 1.978702,-0.86463 3.2805,-1.45375 8.810541,-3.0358 13.342346,-3.81704 6.506791,-1.1217 15.31442,-1.0144 21.461341,0.26144 0.974123,0.20219 1.981066,0.4095 2.23765,0.46069 1.41856,0.28306 4.235139,1.09489 6.31151,1.81919 4.492749,1.56717 12.04231,5.55183 15.24151,8.04444 8.58885,6.69191 13.7323,12.74203 17.96459,21.13127 3.08738,6.11982 5.07419,12.6382 5.93,19.45529 0.36303,2.89166 0.49678,8.91551 0.26144,11.77274 -0.91434,11.10035 -4.53677,21.04562 -11.05165,30.34201 -2.6676,3.8065 -6.62435,8.14516 -10.22458,11.21156 -2.57539,2.1935 -8.40913,6.3008 -9.48555,6.6784 -0.16427,0.058 -0.520777,0.2551 -0.792254,0.4389 -0.711864,0.4819 -5.441662,2.7625 -6.931712,3.3424 -1.789591,0.6964 -7.220951,2.4206 -8.08574,2.5669 -0.398051,0.067 -1.353513,0.274 -2.123261,0.4592 -4.536532,1.0918 -12.389538,1.5275 -17.63429,0.9784 z m 13.062434,-2.3396 c 4.591912,-0.6944 9.319378,-1.9211 13.06244,-3.3894 1.984199,-0.7783 6.285884,-2.8361 7.514519,-3.5946 0.540821,-0.3339 1.025698,-0.6071 1.077502,-0.6071 0.183564,0 4.211962,-2.6798 5.229022,-3.4785 3.33219,-2.6167 4.57687,-3.6937 6.58624,-5.69896 5.77909,-5.76716 9.55283,-11.26039 12.75456,-18.56606 2.54497,-5.80707 4.36982,-13.33847 4.64363,-19.16491 0.28573,-6.08055 -0.0724,-10.83174 -1.2302,-16.32045 -0.48587,-2.30322 -2.17951,-7.61296 -2.96934,-9.30909 -0.23755,-0.51015 -0.49259,-1.11682 -0.56672,-1.34817 -0.22026,-0.6872 -2.2231,-4.56451 -3.27121,-6.33272 -4.90079,-8.26796 -12.67495,-15.71705 -21.650636,-20.74533 -0.975013,-0.54622 -2.10865,-1.14481 -2.519179,-1.33022 -0.410534,-0.1854 -1.434369,-0.65523 -2.275181,-1.04408 -1.691213,-0.78211 -6.746807,-2.47448 -9.179737,-3.07294 -9.005357,-2.21517 -19.326268,-2.14916 -28.51157,0.18235 -8.797252,2.23301 -16.593176,6.25924 -23.455619,12.11373 -5.37889,4.58884 -10.492705,10.85403 -13.353932,16.36054 -0.443385,0.8533 -0.868858,1.63359 -0.945523,1.73398 -0.07664,0.10038 -0.600468,1.20922 -1.164057,2.46406 -7.333196,16.32748 -6.889337,35.09188 1.200245,50.74137 1.459952,2.82431 1.693228,3.21952 3.383295,5.7317 5.53891,8.23318 13.13207,14.8226 22.332235,19.3801 2.3669,1.1725 5.924582,2.5614 8.583893,3.3511 1.077647,0.32 2.169293,0.6545 2.425882,0.7433 0.483587,0.1675 4.375446,0.9177 6.578761,1.2681 0.693281,0.1103 1.99486,0.2487 2.892401,0.3076 0.897556,0.059 1.663739,0.1355 1.702649,0.1702 0.03888,0.035 1.844305,0.034 4.012036,0 3.073887,-0.05 4.639437,-0.1701 7.113594,-0.5442 z m -11.300536,-1.4487 c -0.05729,-0.061 -0.561127,-0.1191 -1.11964,-0.1302 -0.941443,-0.019 -3.511963,-0.267 -4.374383,-0.4224 -0.20527,-0.037 -0.793079,-0.1269 -1.306243,-0.1999 -0.513169,-0.073 -1.730774,-0.3353 -2.705793,-0.5829 -0.975018,-0.2476 -2.10865,-0.5229 -2.519184,-0.6117 -3.177643,-0.6878 -10.481203,-3.7971 -13.71556,-5.8392 -0.15395,-0.097 -0.531828,-0.3113 -0.839725,-0.4758 -2.914591,-1.5573 -8.107759,-5.80423 -11.317468,-9.25547 -10.074172,-10.83222 -15.257614,-24.62032 -14.83347,-39.4575 0.132317,-4.62869 0.647778,-8.8192 1.436901,-11.68147 0.110692,-0.40155 0.247623,-0.93542 0.304279,-1.1864 0.529079,-2.34371 2.322006,-7.25769 3.762646,-10.31254 6.626978,-14.05217 19.353985,-25.10527 34.11829,-29.63088 4.251749,-1.30325 7.476978,-1.95456 11.88301,-2.39963 3.020766,-0.30514 8.989646,-0.25677 11.407237,0.0924 0.307904,0.0445 1.021674,0.13167 1.586158,0.19377 1.79429,0.1974 5.522496,0.95858 7.557552,1.54303 11.017061,3.16397 20.721352,9.54453 28.028242,18.42853 2.9334,3.56658 5.58943,7.77012 7.15033,11.31644 0.41978,0.95367 0.87362,1.93929 1.00856,2.19026 0.13495,0.25097 0.66836,1.68834 1.18537,3.19416 1.47442,4.29435 2.37533,8.45695 2.92323,13.50669 0.17279,1.59253 0.12318,7.76511 -0.0807,10.03877 -0.34065,3.7991 -1.50475,9.42173 -2.51299,12.13777 -0.16767,0.45175 -0.5156,1.43736 -0.77312,2.19027 -1.22452,3.57999 -4.02508,8.93475 -6.64931,12.71363 -4.0699,5.86067 -10.76684,12.21307 -16.750649,15.88887 -5.976496,3.6713 -11.374214,5.9252 -17.540988,7.3245 -3.008278,0.6826 -3.45981,0.7667 -5.598188,1.0424 -2.231904,0.2878 -9.532294,0.5767 -9.714384,0.3845 z m 8.387314,-2.2279 c 1.374116,-0.1496 3.263504,-0.4395 4.198644,-0.6442 0.935155,-0.2048 1.91021,-0.4122 2.166794,-0.461 1.498895,-0.2851 6.322015,-1.833 8.490584,-2.725 2.004209,-0.8244 6.243044,-3.0115 8.137788,-4.199 4.370815,-2.7391 8.560375,-6.3133 12.185775,-10.39591 2.69391,-3.03361 4.01513,-4.7933 5.90205,-7.86057 8.26966,-13.44277 10.32512,-29.51847 5.69283,-44.52351 -2.54734,-8.2513 -6.74996,-15.18391 -13.12861,-21.65675 -7.78163,-7.89653 -17.793186,-13.18434 -28.592443,-15.10167 -1.074483,-0.19076 -2.499404,-0.40497 -3.166522,-0.47601 -0.667119,-0.0711 -1.464857,-0.1606 -1.772762,-0.19899 -3.059015,-0.38143 -9.129822,-0.19878 -13.205676,0.39731 -10.647287,1.55718 -20.369524,6.17653 -28.777594,13.67318 -5.036254,4.49033 -9.982999,11.28461 -12.823931,17.61345 -4.095616,9.124 -5.654301,18.31016 -4.810939,28.35336 0.534355,6.36312 2.639217,13.49727 5.736538,19.44318 4.313893,8.28132 9.954642,14.57171 18.053204,20.13233 2.440868,1.676 7.670226,4.353 10.636554,5.4452 0.615804,0.2267 1.534057,0.5644 2.040579,0.7503 0.506508,0.1861 0.95841,0.3016 1.004223,0.2568 0.04581,-0.045 0.239224,2e-4 0.429846,0.1 0.623284,0.3263 3.387335,1.0461 5.482457,1.4277 5.721197,1.0422 10.68074,1.2421 16.120611,0.6499 z m -10.05591,-1.7528 c -2.241346,-0.173 -5.263918,-0.6291 -8.117373,-1.2248 -1.507442,-0.3147 -5.574115,-1.5779 -6.531216,-2.0287 -0.20527,-0.097 -0.793079,-0.3343 -1.306243,-0.5279 -7.873685,-2.9712 -16.180369,-9.28387 -21.526211,-16.35884 -1.540585,-2.0389 -2.079484,-2.7901 -2.079484,-2.8987 0,-0.0464 -0.369438,-0.62324 -0.820989,-1.28188 -1.637998,-2.38924 -4.247908,-7.97363 -5.254306,-11.24261 -0.548608,-1.78192 -1.228376,-4.43406 -1.497056,-5.84074 -0.04792,-0.25097 -0.167494,-0.86698 -0.265726,-1.36893 -0.531114,-2.71427 -0.681394,-4.5292 -0.725465,-8.76109 -0.0502,-4.82141 0.326864,-8.04628 1.515257,-12.95912 0.660234,-2.72941 2.205518,-7.29372 2.865785,-8.46467 0.247704,-0.4393 0.450381,-0.88337 0.450381,-0.9868 0,-0.10345 0.428183,-1.01712 0.951498,-2.03039 6.044923,-11.70419 15.959632,-20.66124 28.06577,-25.3549 8.711582,-3.37757 18.849659,-4.37928 27.990939,-2.76569 1.436862,0.25363 3.116321,0.58828 3.73212,0.74367 0.615804,0.15538 1.281033,0.31543 1.478297,0.35568 1.002581,0.2045 5.042642,1.64427 7.012287,2.49897 10.63049,4.613 19.84184,13.24535 25.20767,23.62318 2.11733,4.09502 3.46606,7.73846 4.45278,12.02851 0.98573,4.28581 1.21193,6.4534 1.20816,11.5776 -0.005,6.07324 -0.45825,9.49875 -1.94653,14.69309 -3.4124,11.90985 -11.36981,22.6946 -22.006285,29.82536 -3.238868,2.1714 -7.070338,4.113 -10.994017,5.5714 -7.03871,2.6163 -14.705076,3.7309 -21.860043,3.1783 z m 9.516917,-2.1605 c 9.014424,-1.1558 17.236951,-4.5013 24.632022,-10.0221 2.618886,-1.95512 7.353516,-6.47481 9.100896,-8.68773 1.28391,-1.62597 3.40172,-4.60404 3.40172,-4.78349 0,-0.0637 0.1162,-0.24556 0.25821,-0.40404 0.9455,-1.05518 3.61354,-6.32813 4.71735,-9.32305 1.41266,-3.83289 1.79442,-5.24192 2.62094,-9.67372 0.46197,-2.47685 0.49382,-2.99771 0.49681,-8.12226 0.003,-5.1722 -0.0249,-5.62743 -0.50402,-8.21354 -1.8288,-9.87144 -5.51645,-17.51776 -12.02342,-24.93055 -5.26159,-5.99403 -12.500175,-10.91752 -20.102292,-13.67301 -3.811544,-1.38155 -6.809859,-2.09055 -11.945095,-2.82465 -1.369483,-0.19577 -8.183689,-0.24703 -10.26334,-0.0772 -9.208122,0.75194 -18.817598,4.48987 -26.390434,10.26544 -2.269377,1.73078 -6.094487,5.37557 -7.979436,7.60328 -6.400667,7.5646 -10.494545,17.04385 -11.705853,27.10464 -0.341798,2.83873 -0.340423,9.23456 0.0025,11.95526 0.674295,5.34895 1.918197,9.80955 4.122856,14.78435 1.195637,2.69799 3.241355,6.20944 5.087094,8.73199 0.466516,0.63759 0.974177,1.33618 1.12812,1.55244 0.517131,0.72638 4.335672,4.86934 5.076593,5.50789 5.198552,4.48027 8.394309,6.64425 12.917237,8.74675 5.600783,2.6037 12.211567,4.3593 17.834575,4.7364 1.788768,0.1199 7.86844,-0.042 9.516917,-0.2531 z m -10.569246,-1.8255 c -2.189469,-0.2251 -5.892486,-0.8715 -7.524597,-1.3135 -0.773574,-0.2094 -1.742398,-0.4637 -2.152932,-0.565 -0.410535,-0.1014 -0.998344,-0.2833 -1.306243,-0.4043 -0.3079,-0.121 -1.063658,-0.4002 -1.679462,-0.6205 -3.113058,-1.1134 -8.51917,-4.06237 -11.569588,-6.31111 -4.572263,-3.37062 -9.255013,-8.40166 -12.095135,-12.99478 -3.987856,-6.44924 -6.179282,-12.74502 -7.199903,-20.68466 -0.09681,-0.7529 -0.149399,-3.42231 -0.116912,-5.93201 0.08705,-6.72448 0.797498,-10.51723 3.128374,-16.70084 3.978559,-10.55474 11.500846,-19.44301 21.228643,-25.08358 1.834679,-1.06382 2.46485,-1.37871 5.318278,-2.65756 3.705539,-1.66073 8.740196,-3.00804 13.715563,-3.67036 3.318718,-0.44179 9.533897,-0.29815 13.528952,0.31264 6.175697,0.9442 13.436057,3.7458 18.862457,7.27856 5.454119,3.55083 10.507289,8.67218 13.992539,14.18138 6.78388,10.72342 9.05656,22.39729 6.81568,35.00961 -1.08769,6.12186 -4.21939,13.54143 -7.92492,18.77561 -0.52566,0.74249 -1.07911,1.52398 -1.22992,1.73663 -0.75315,1.06198 -2.61502,3.19031 -4.30953,4.92627 -6.35538,6.5109 -15.036804,11.5044 -23.523823,13.5306 -3.850808,0.9194 -6.177226,1.204 -10.426644,1.2756 -2.206615,0.037 -4.695514,0 -5.530877,-0.089 z m 10.755854,-2.0922 c 19.221671,-2.8885 34.78867,-16.95153 39.64623,-35.8159 0.99038,-3.84613 1.36857,-7.02371 1.36465,-11.46531 -0.007,-7.58948 -1.62351,-14.14391 -5.22269,-21.17266 -1.09296,-2.13443 -3.97873,-6.64178 -4.61586,-7.20966 -0.0563,-0.0502 -0.47546,-0.54302 -0.93143,-1.09514 -4.05219,-4.90675 -9.166508,-8.95817 -14.752583,-11.6866 -6.407742,-3.12977 -12.813429,-4.66073 -20.246775,-4.83899 -5.921095,-0.142 -11.320281,0.75942 -16.981168,2.83505 -8.183119,3.00043 -14.11874,7.14758 -19.986525,13.96432 -3.954353,4.59388 -7.569374,11.41234 -9.289961,17.52221 -3.195114,11.34601 -1.993537,23.89243 3.260756,34.04732 3.99559,7.72221 10.186371,14.35542 17.431842,18.67765 5.853237,3.49171 11.823931,5.53601 18.753926,6.42131 2.526894,0.3227 8.869954,0.2221 11.569588,-0.1836 z m -8.770494,-1.4872 c -2.007269,-0.1695 -4.629703,-0.4739 -5.318278,-0.6173 -0.410534,-0.086 -1.250264,-0.2501 -1.866063,-0.3659 -4.534303,-0.8526 -11.316269,-3.7429 -15.58162,-6.64061 -2.887639,-1.96176 -6.535119,-5.24 -8.96106,-8.05392 -1.95738,-2.27045 -4.351744,-5.89886 -5.763034,-8.73331 -1.172182,-2.35422 -3.031639,-7.26139 -3.261162,-8.60637 -0.05139,-0.30116 -0.180973,-0.83656 -0.287944,-1.18977 -0.106975,-0.35321 -0.225356,-0.88709 -0.26309,-1.1864 -0.03771,-0.2993 -0.159265,-0.87273 -0.270111,-1.27429 -0.110847,-0.40156 -0.29513,-1.63359 -0.409526,-2.73784 -1.076046,-10.38825 1.150483,-20.38548 6.447316,-28.94883 6.416513,-10.37349 16.277196,-17.53621 27.97702,-20.32222 8.413664,-2.0035 16.842371,-1.63555 25.250788,1.10228 9.381592,3.05471 17.615238,9.47811 23.023068,17.96123 5.56773,8.73396 7.94482,18.9417 6.77943,29.11241 -0.48227,4.20872 -1.79528,9.20673 -3.26065,12.41155 -1.23121,2.69271 -2.23707,4.70643 -2.66043,5.32606 -0.2867,0.41963 -0.52128,0.81292 -0.52128,0.87398 0,0.1933 -2.17796,3.28793 -2.49532,3.54555 -0.16707,0.13564 -0.30378,0.32357 -0.30378,0.41764 0,0.2566 -2.52398,3.1513 -4.02286,4.61374 -4.316661,4.21173 -7.806033,6.61714 -13.387069,9.22843 -4.403273,2.06019 -9.088075,3.36709 -14.024225,3.91209 -1.180746,0.1303 -5.902111,0.2493 -6.82012,0.1718 z m 4.495269,-1.9102 c 6.908069,-0.1625 15.179152,-2.88185 21.636174,-7.11347 7.249372,-4.75091 13.200861,-11.91611 16.497841,-19.86227 0.54388,-1.31083 1.05505,-2.32491 1.13594,-2.25352 0.0809,0.0714 0.0904,0.033 0.0211,-0.0853 -0.0693,-0.11829 0.12101,-1.06285 0.42287,-2.09902 1.15904,-3.97862 1.8332,-8.66553 1.76741,-12.28775 -0.0371,-2.04504 -0.24789,-5.58317 -0.34186,-5.73906 -0.0337,-0.0559 -0.11674,-0.5741 -0.1845,-1.15151 -0.40733,-3.47085 -2.56182,-9.69707 -4.68396,-13.53607 -0.45799,-0.82851 -0.79069,-1.56117 -0.73934,-1.62815 0.0514,-0.067 0.0408,-0.084 -0.0235,-0.0379 -0.0643,0.0461 -0.45349,-0.42613 -0.86492,-1.0495 -3.94203,-5.97284 -9.058353,-10.6929 -15.407404,-14.21414 -2.542604,-1.41015 -3.603032,-1.85755 -7.104756,-2.99756 -4.571741,-1.48836 -8.802101,-2.1146 -13.920596,-2.06074 -10.008775,0.10533 -18.901614,3.23526 -26.690131,9.39384 -5.606698,4.43338 -10.418574,10.88866 -13.117559,17.59756 -2.701417,6.71501 -3.762108,14.35362 -2.940764,21.1779 1.017381,8.45303 3.945658,15.40926 9.440634,22.42651 1.109168,1.41643 4.760607,5.00029 6.434689,6.31561 6.411006,5.03706 14.279802,8.2618 22.021365,9.02464 1.89424,0.1866 4.713765,0.3293 4.953745,0.2505 0.05609,-0.018 0.815467,-0.05 1.687496,-0.071 z m -5.4283,-1.91949 c -3.623463,-0.42265 -6.965397,-1.1221 -9.516917,-1.99181 -8.19657,-2.79389 -14.745498,-7.58804 -20.071095,-14.69309 -3.963062,-5.28727 -6.701322,-12.3792 -7.553222,-19.56248 -0.284684,-2.40046 -0.138384,-8.65313 0.257617,-11.01011 0.789971,-4.70204 2.211394,-8.93203 4.354655,-12.95913 0.267144,-0.50194 0.61573,-1.15902 0.774645,-1.46019 2.596664,-4.92102 9.262774,-11.76777 14.171085,-14.5551 5.578238,-3.16777 8.99438,-4.47674 14.131016,-5.4146 7.803425,-1.42477 15.165244,-0.75065 22.672658,2.0761 2.327579,0.87641 3.891208,1.66087 6.689292,3.35607 10.135651,6.14057 17.130601,16.87347 18.812611,28.86559 0.52534,3.74546 0.36069,10.73654 -0.31379,13.32417 -0.0916,0.35136 -0.21682,0.9263 -0.27829,1.27766 -0.48913,2.79594 -1.9553,6.79835 -3.77768,10.31255 -4.15428,8.0109 -11.257709,14.8214 -19.304277,18.50822 -4.325255,1.98177 -6.769346,2.76216 -10.971571,3.50309 -1.893475,0.33386 -8.473172,0.61009 -10.076737,0.42306 z m 8.437515,-1.99646 c 4.293325,-0.56769 7.916824,-1.6157 11.604501,-3.35632 6.414998,-3.02796 10.12307,-5.9977 15.289019,-12.24474 0.12452,-0.15058 0.69487,-0.97193 1.26741,-1.82522 2.10845,-3.14228 3.53253,-6.07245 4.79023,-9.85625 1.49855,-4.50838 1.9627,-7.40573 1.97367,-12.32029 0.0149,-6.68659 -1.32086,-12.11461 -4.46926,-18.16103 -3.6938,-7.09386 -9.754056,-13.04952 -16.780247,-16.49065 -4.777359,-2.33974 -8.641005,-3.44091 -14.182074,-4.04202 -1.287863,-0.13972 -5.991123,-0.14792 -7.107103,-0.0124 -5.795541,0.70373 -9.045157,1.59709 -13.630932,3.74731 -11.521612,5.40235 -19.747959,16.29425 -21.992028,29.11806 -0.796309,4.55046 -0.685816,10.28557 0.283636,14.72278 2.536558,11.61001 9.906178,21.266 20.426889,26.76419 2.47634,1.29415 7.194066,2.97329 9.620339,3.42409 4.58096,0.85114 9.089403,1.03715 12.90595,0.5325 z m -6.851362,-1.57343 c -4.997876,-0.26316 -10.547243,-1.77296 -14.835198,-4.03617 -1.642787,-0.86707 -5.036853,-3.04954 -5.971399,-3.83973 -4.099537,-3.46634 -7.081541,-6.93012 -9.067307,-10.53228 -0.193696,-0.35135 -0.444645,-0.76203 -0.557682,-0.91261 -0.387049,-0.51565 -2.279426,-5.02601 -2.773595,-6.61068 -2.101485,-6.73893 -2.201394,-14.869 -0.26308,-21.40659 0.425293,-1.43447 1.273106,-3.8255 1.747403,-4.92812 1.030983,-2.39684 3.379214,-6.38572 4.629196,-7.86355 0.162812,-0.19249 0.767136,-0.92493 1.342925,-1.62763 1.877561,-2.29145 4.40184,-4.55542 7.535386,-6.75833 3.037637,-2.13549 7.936029,-4.32698 11.58883,-5.18473 7.909437,-1.85731 14.314827,-1.64003 21.535663,0.73052 6.014787,1.97461 11.595021,5.57713 15.520548,10.01981 6.114692,6.92026 9.408272,15.03964 9.672682,23.84512 0.18662,6.21556 -1.20723,12.49193 -4.02883,18.14147 -1.69086,3.38548 -4.943928,8.02012 -5.425168,7.7292 -0.114336,-0.0691 -0.143257,-0.0331 -0.06849,0.0852 0.292731,0.46329 -4.190539,4.65017 -7.020647,6.55654 -7.179005,4.83574 -15.057893,7.0403 -23.56124,6.59257 z m 6.437918,-1.90025 c 4.620442,-0.54378 8.358164,-1.71119 12.782524,-3.99241 5.328002,-2.74714 9.705576,-6.67763 13.363488,-11.99868 1.068042,-1.55365 2.712192,-4.61341 3.269112,-6.08378 1.98111,-5.23048 2.6937,-8.78731 2.72423,-13.59796 0.0549,-8.64575 -2.85929,-16.64838 -8.488919,-23.31157 -0.737939,-0.87342 -3.18255,-3.23744 -4.336691,-4.19372 -7.065044,-5.85384 -16.571009,-8.64935 -26.245066,-7.71814 -6.576455,0.63304 -13.230402,3.29633 -18.283082,7.31791 -0.679529,0.54087 -1.448221,1.14766 -1.708194,1.34844 -0.259989,0.20076 -1.328751,1.26853 -2.375055,2.3728 -3.436092,3.62643 -6.394545,8.55063 -7.950339,13.2329 -1.329402,4.00097 -1.787482,6.9295 -1.798692,11.49895 -0.02665,10.87519 4.970254,21.0908 13.668814,27.94426 1.907019,1.50254 3.814043,2.66313 6.437332,3.91775 6.077507,2.90659 12.52796,4.01795 18.940538,3.26325 z m -7.464251,-1.80387 c -4.599324,-0.58326 -9.350599,-2.19561 -13.062398,-4.43275 -1.692709,-1.02022 -4.468494,-3.09733 -4.605354,-3.44617 -0.05443,-0.13873 -0.163637,-0.21311 -0.242681,-0.16533 -0.244138,0.14758 -3.257341,-3.04807 -4.841706,-5.13487 -2.125088,-2.79899 -5.299244,-9.21053 -4.972348,-10.04376 0.05227,-0.13325 0.02715,-0.24228 -0.05582,-0.24228 -0.25094,0 -0.986517,-2.66866 -1.232597,-4.4718 -0.0685,-0.50194 -0.174996,-1.2001 -0.236686,-1.55145 -0.222419,-1.26708 -0.0945,-6.8467 0.20295,-8.85236 0.57225,-3.85853 2.171592,-8.53587 3.974862,-11.6247 2.01417,-3.45008 3.582278,-5.43988 6.49916,-8.24689 9.084027,-8.74184 23.26088,-11.53852 35.202894,-6.94452 4.464369,1.7174 7.753525,3.78546 11.198984,7.04136 6.538481,6.17875 10.238405,14.83058 10.238405,23.94122 0,10.28108 -4.150336,19.30436 -12.024112,26.14168 -4.632987,4.02313 -10.393089,6.72956 -16.704787,7.84885 -2.236323,0.39659 -6.931973,0.48899 -9.338762,0.18377 z m 10.6696,-2.09662 c 6.239463,-1.31456 11.868977,-4.32097 16.401885,-8.75934 5.292174,-5.18179 8.65189,-12.01467 9.51328,-19.34783 0.21837,-1.859 0.15645,-7.14872 -0.0974,-8.31951 -0.0653,-0.30116 -0.29027,-1.36892 -0.49996,-2.3728 -0.72784,-3.48468 -2.482535,-7.4582 -4.850924,-10.98501 -1.867833,-2.78142 -5.603524,-6.40082 -8.55713,-8.29076 -4.242156,-2.71445 -8.684183,-4.33903 -13.656235,-4.99451 -1.44493,-0.19048 -6.097433,-0.13766 -7.990085,0.0907 -5.57529,0.67276 -11.557496,3.20732 -15.895162,6.73449 -2.536742,2.06274 -5.529045,5.40605 -7.200531,8.04513 -1.334628,2.10723 -2.845695,5.60598 -3.744407,8.66984 -1.073846,3.66102 -1.354408,9.21666 -0.686669,13.59796 0.751401,4.93048 3.464844,10.92699 6.772549,14.96688 1.160866,1.41782 4.18106,4.27051 5.639113,5.32632 4.014614,2.90709 8.124292,4.72102 12.689225,5.6007 2.703064,0.5209 2.995405,0.54105 6.904431,0.47579 2.620976,-0.0437 3.887028,-0.14924 5.25802,-0.43808 z m -8.150416,-1.23581 c -1.676472,-0.14814 -4.94514,-0.86241 -6.889091,-1.50541 C 50.425549,983.0076 42.725332,973.682 41.122177,962.34295 c -1.253972,-8.86918 1.705677,-18.15765 7.87691,-24.72075 6.342454,-6.74517 15.168442,-10.1865 24.372796,-9.50314 10.191531,0.75666 19.037191,6.43798 24.003663,15.41694 1.488072,2.6903 2.945974,7.32546 3.359564,10.68123 0.77979,6.32705 -0.869936,13.72416 -4.295657,19.26097 -1.433358,2.31666 -2.318562,3.43276 -4.470823,5.63697 -4.046298,4.14398 -9.671445,7.17246 -15.768227,8.48934 -2.180943,0.47108 -5.713326,0.66014 -8.210674,0.43946 z m 6.867535,-1.90609 c 4.896699,-0.78192 8.618559,-2.25205 12.487899,-4.93269 6.022043,-4.17203 10.068471,-10.31602 11.760595,-17.85702 0.315962,-1.40806 0.392039,-2.40294 0.404767,-5.29316 0.01791,-4.07391 -0.256195,-5.95707 -1.328413,-9.12614 -1.48585,-4.3916 -3.54964,-7.62408 -7.050245,-11.04265 -2.681827,-2.61897 -5.096737,-4.22118 -8.493551,-5.63518 -0.667114,-0.27769 -1.380883,-0.57714 -1.586153,-0.66542 -0.680309,-0.2926 -3.146815,-0.88769 -4.945062,-1.19308 -3.269901,-0.55531 -8.216462,-0.34257 -11.289678,0.48556 -4.595649,1.23837 -7.984582,2.98073 -11.382979,5.85231 -3.047191,2.57481 -5.15278,5.23151 -6.99177,8.82178 -3.231567,6.30897 -3.928322,13.16732 -2.058376,20.26103 0.573697,2.17637 0.715336,2.54213 1.983793,5.12334 3.977904,8.0947 11.674276,13.67869 20.87521,15.14571 1.654791,0.26384 6.106297,0.29635 7.613963,0.0556 z m -6.044842,-1.62792 c -1.482946,-0.16382 -5.229105,-1.12197 -6.570989,-1.68062 -3.025987,-1.25977 -5.021816,-2.48204 -7.378165,-4.51845 -3.636863,-3.14305 -6.200314,-7.04401 -7.733507,-11.76857 -0.968319,-2.98388 -1.132945,-4.05406 -1.179226,-7.66596 -0.06333,-4.94132 0.629354,-7.97616 2.794846,-12.24512 1.57339,-3.10168 2.730513,-4.67302 5.232808,-7.10597 3.037991,-2.95379 6.037613,-4.76293 10.102082,-6.09283 2.854495,-0.93399 5.305775,-1.31958 8.315209,-1.30803 3.390636,0.013 5.028405,0.26292 8.096863,1.23544 7.772,2.46326 13.962365,8.55568 16.593533,16.33098 0.946227,2.79616 1.296894,5.05677 1.283313,8.27292 -0.01411,3.33755 -0.380905,5.60872 -1.38548,8.57857 -1.386281,4.09816 -3.461174,7.3584 -6.683285,10.50122 -3.805272,3.71165 -8.770457,6.28594 -13.918342,7.21623 -1.851899,0.33466 -5.664526,0.46068 -7.56966,0.25019 z m 7.01477,-1.7241 c 3.300988,-0.37034 7.294268,-1.8964 10.449948,-3.99354 5.13484,-3.41242 9.041372,-9.05691 10.436175,-15.0791 0.421398,-1.81949 0.468569,-2.14554 0.593951,-4.10677 0.351937,-5.50517 -1.441161,-11.42554 -4.834931,-15.96376 -0.790835,-1.05754 -3.805422,-4.08412 -4.609042,-4.62738 -3.000143,-2.02819 -4.895819,-2.98853 -7.557553,-3.82871 -2.568245,-0.81065 -3.554215,-0.94196 -7.091039,-0.94439 -2.839119,-0.002 -3.660562,0.0634 -5.308201,0.4224 -9.457633,2.0606 -16.708048,9.30997 -18.880147,18.87743 -0.56641,2.49481 -0.64663,7.11224 -0.164027,9.44109 0.389916,1.8816 0.737319,3.14835 1.176306,4.28927 4.079145,10.6014 14.373463,16.79408 25.78856,15.51346 z m -6.25131,-1.8106 c -2.645348,-0.47812 -6.818964,-2.16352 -8.490584,-3.42868 -3.860845,-2.92209 -5.612764,-4.91559 -7.370033,-8.38635 -1.208574,-2.38704 -1.810045,-4.2174 -2.250885,-6.84981 -0.260426,-1.55518 -0.245851,-5.54765 0.02613,-7.15231 0.212708,-1.25508 0.810785,-3.49451 1.103026,-4.13023 0.0923,-0.20079 0.357075,-0.8168 0.588408,-1.36894 1.288946,-3.0765 3.7202,-6.19309 6.584122,-8.44011 3.460597,-2.71518 7.044145,-4.21333 11.5131,-4.8132 2.020704,-0.27124 2.611444,-0.28138 4.734649,-0.0813 2.577776,0.24295 5.653349,1.07944 7.756232,2.1095 2.914977,1.42786 6.223841,4.14681 8.085182,6.6437 1.826278,2.44989 3.054836,5.06816 3.86262,8.23184 0.388255,1.52064 0.442683,2.16062 0.442349,5.2019 -3.17e-4,3.03228 -0.05374,3.66285 -0.425369,5.01939 -1.307029,4.77123 -3.228436,8.10295 -6.485704,11.24624 -3.509189,3.38641 -7.437417,5.41345 -11.998372,6.19141 -1.857032,0.31676 -5.940199,0.32043 -7.674851,0.007 z m 8.746887,-1.76199 c 3.282666,-0.65857 6.738723,-2.26987 9.161748,-4.27144 6.022719,-4.97515 8.788463,-12.43303 7.446969,-20.08099 -0.264664,-1.50885 -1.048071,-3.96408 -1.601582,-5.01936 -0.131634,-0.25097 -0.239865,-0.52138 -0.240479,-0.60091 -5.2e-4,-0.0795 -0.08455,-0.2438 -0.186494,-0.36505 -0.101948,-0.12125 -0.611176,-0.856 -1.131617,-1.63278 -0.874627,-1.30538 -2.84246,-3.43426 -4.194985,-4.53829 -3.570039,-2.91416 -8.687061,-4.52751 -13.625632,-4.29602 -2.521105,0.11816 -4.020135,0.41087 -6.282193,1.22666 -6.945205,2.50474 -12.191712,8.83014 -13.310045,16.04712 -1.733049,11.1839 5.481634,21.56679 16.340961,23.51685 2.480352,0.4454 5.446529,0.45093 7.623349,0.0142 z m -5.937289,-1.46618 c -3.04939,-0.50823 -6.498451,-2.13778 -9.10252,-4.30057 -2.381845,-1.97822 -4.733754,-5.67954 -5.778842,-9.09447 -0.469329,-1.53358 -0.502737,-1.87308 -0.502737,-5.11064 0,-3.26534 0.03003,-3.56391 0.514028,-5.11065 2.357692,-7.53478 8.524211,-12.69243 16.259111,-13.59906 9.451662,-1.10784 18.329044,5.21585 20.247301,14.42293 0.46198,2.21738 0.49835,5.611 0.08173,7.62551 -1.579583,7.6378 -7.705042,13.68626 -15.279111,15.08709 -1.518748,0.28089 -4.975534,0.32376 -6.43896,0.0799 z m 9.349288,-2.23953 c 2.775545,-0.92408 4.453193,-1.93872 6.519518,-3.94303 0.984799,-0.95525 2.111117,-2.22961 2.502933,-2.83193 4.370932,-6.71935 3.724661,-15.27546 -1.581619,-20.93963 -5.786322,-6.17658 -15.421157,-7.05207 -22.305511,-2.02686 -4.614753,3.36854 -7.05711,8.19686 -7.000996,13.84034 0.02499,2.5119 0.08141,2.91878 0.663813,4.78637 0.69337,2.22348 1.957683,4.49698 3.461211,6.22392 4.397484,5.05097 11.433472,6.9907 17.740651,4.89082 z m -7.027216,-1.11028 c -3.839347,-0.79398 -7.292983,-3.06719 -9.328966,-6.14038 -6.749997,-10.18873 0.448487,-23.57916 12.68788,-23.60165 4.138719,-0.008 7.392869,1.34899 10.449948,4.35645 2.039345,2.00622 3.140954,3.92113 3.95512,6.87512 0.457315,1.65924 0.449236,5.46748 -0.0152,7.18757 -0.909482,3.36812 -3.047376,6.57256 -5.734075,8.5947 -1.307383,0.984 -3.356265,2.0033 -4.588966,2.28299 -0.491967,0.11164 -1.303015,0.31761 -1.802296,0.45773 -1.112066,0.3121 -4.085729,0.30547 -5.623419,-0.0125 z m 8.316463,-1.97668 c 0.673985,-0.24878 1.57669,-0.62762 2.006015,-0.84184 0.429326,-0.21424 0.780592,-0.33108 0.780592,-0.25966 0,0.0714 0.104966,0.005 0.233259,-0.14695 0.128292,-0.15224 0.724685,-0.67791 1.325315,-1.16813 1.755719,-1.43302 3.074429,-3.29366 4.005784,-5.65197 0.980427,-2.48261 1.037696,-6.43069 0.128386,-8.85237 -0.874231,-2.3283 -1.525468,-3.35192 -3.208806,-5.04368 -4.554428,-4.57717 -12.048105,-4.89842 -17.461137,-0.74854 -4.447779,3.40984 -6.168497,9.63126 -4.132379,14.94103 1.773672,4.62535 5.898753,7.84282 10.7123,8.35538 1.705768,0.18163 4.257044,-0.0836 5.610671,-0.58327 z M 78.0487,971.28321 c -2.370107,-0.4889 -4.086025,-1.41692 -5.867256,-3.17312 -2.117624,-2.08786 -3.188036,-4.67273 -3.183127,-7.68671 0.0056,-3.428 1.28439,-6.32837 3.813819,-8.64974 2.004563,-1.83969 5.035084,-2.86969 8.146726,-2.76888 1.803119,0.0584 2.781963,0.30889 4.758458,1.21766 1.373741,0.63162 3.791821,3.06391 4.526902,4.55347 1.565867,3.17313 1.72536,6.40496 0.46797,9.48207 -2.081186,5.09307 -7.488414,8.09279 -12.663492,7.02525 z m 6.329552,-1.78922 c 2.507055,-0.89011 4.277745,-2.35346 5.414771,-4.47493 0.991441,-1.84986 1.30617,-3.26267 1.175452,-5.27684 -0.310102,-4.77847 -3.877023,-8.33119 -8.610069,-8.57577 -3.912331,-0.20219 -7.353459,1.74937 -9.057717,5.13688 -3.187417,6.33559 1.195737,13.55842 8.256153,13.60495 1.253637,0.008 1.897488,-0.0863 2.82141,-0.41429 z m -3.139481,-1.28815 c -3.817275,-0.90798 -6.429646,-4.80964 -5.696138,-8.50733 0.49583,-2.49959 1.977859,-4.46889 4.189441,-5.56686 2.335772,-1.15962 4.866148,-1.1183 7.127966,0.11641 2.674967,1.46026 4.169197,4.64361 3.620387,7.71297 -0.79412,4.44141 -4.967518,7.26146 -9.241656,6.24481 z m 5.181382,-1.67723 c 1.237443,-0.41241 2.443815,-1.53035 3.136477,-2.90656 0.4999,-0.99324 0.587403,-1.37021 0.587403,-2.53065 0,-1.10477 -0.09325,-1.54826 -0.491395,-2.33687 -0.614232,-1.21658 -1.036577,-1.92726 -1.040179,-1.75024 -0.0016,0.0746 -0.373998,-0.1415 -0.827747,-0.48028 -1.534484,-1.14564 -3.837056,-1.31609 -5.633939,-0.41704 -3.39885,1.70059 -4.291758,6.03854 -1.823483,8.85905 0.619422,0.70783 1.67946,1.4008 2.590936,1.69375 0.708803,0.22781 2.642099,0.1554 3.501927,-0.13116 z M 85.294767,965.17 c -2.207772,-0.48601 -3.497076,-3.04467 -2.585876,-5.13174 0.264122,-0.605 1.939511,-2.26827 2.113449,-2.09815 0.0405,0.0396 0.411091,-0.002 0.823531,-0.0928 2.252746,-0.49507 4.536136,1.72884 4.210824,4.10116 -0.283028,2.06387 -2.54962,3.66448 -4.561928,3.22149 z m 3.702512,-1.99032 c 1.582103,-1.54747 -0.518203,-4.12037 -2.306992,-2.82608 -0.875949,0.6338 -1.092098,1.51574 -0.599755,2.447 0.359125,0.67929 0.760253,0.90017 1.647154,0.90707 0.545021,0.004 0.843296,-0.12079 1.259593,-0.52799 z M 47.997032,939.52893 c 0.05908,-0.15058 0.02608,-0.27379 -0.07334,-0.27379 -0.0994,0 -0.180747,0.12321 -0.180747,0.27379 0,0.15058 0.033,0.27378 0.07334,0.27378 0.04034,0 0.121666,-0.1232 0.180747,-0.27378 z m 60.579558,63.06167 c 0,-0.1004 -0.079,-0.1825 -0.1756,-0.1825 -0.0966,0 -0.22749,0.082 -0.29092,0.1825 -0.0634,0.1004 0.0156,0.1825 0.17559,0.1825 0.16,0 0.29093,-0.082 0.29093,-0.1825 z m 41.23997,4.5523 c 0,-0.1063 -0.084,-0.1425 -0.1866,-0.081 -0.10263,0.062 -0.1866,0.149 -0.1866,0.1933 0,0.044 0.084,0.08 0.1866,0.08 0.10263,0 0.1866,-0.087 0.1866,-0.1933 z M 0.47995662,957.64434 c -0.0413881,-0.32627 -0.0752597,-0.0593 -0.0752597,0.59319 0,0.65253 0.0338715,0.91946 0.0752597,0.5932 0.0413985,-0.32626 0.0413985,-0.86014 0,-1.18639 z M 5.5253887,933.14063 c 0.1061329,-0.30117 0.2559234,-0.71185 0.3328436,-0.91262 0.094275,-0.24607 0.078175,-0.30556 -0.04942,-0.18252 -0.104108,0.10038 -0.3273364,0.59002 -0.4960902,1.08807 -0.1687486,0.49805 -0.2333528,0.82659 -0.1435701,0.73009 0.089788,-0.0965 0.2500934,-0.42186 0.3562367,-0.72302 z m -5.30078294,34.67935 c 5.7259e-4,-0.90349 0.0325858,-1.25007 0.0711526,-0.77022 0.0385512,0.47988 0.0381087,1.2191 -0.001041,1.64271 -0.0391342,0.42362 -0.0706893,0.031 -0.0701063,-0.87249 z M 0.0188155,963.98701 c -0.0020822,-0.40156 0.03444413,-0.58732 0.08115218,-0.41281 0.04670804,0.17451 0.04841541,0.50305 0.0037999,0.73009 -0.04464151,0.22704 -0.08285434,0.0843 -0.08492609,-0.31728 z m 6.8630794,-35.40945 c 0,-0.1004 0.081397,-0.30574 0.1808876,-0.45632 0.099517,-0.15057 0.1809085,-0.19164 0.1809085,-0.0912 0,0.10038 -0.081392,0.30572 -0.1809085,0.4563 -0.099491,0.15058 -0.1808876,0.19165 -0.1808876,0.0913 z m 0.5673313,-1.46019 c 0,-0.10038 0.1200157,-0.38786 0.266683,-0.63884 0.1466725,-0.25097 0.2666934,-0.37416 0.2666934,-0.27377 0,0.10038 -0.1200209,0.38785 -0.2666934,0.63883 -0.1466673,0.25097 -0.266683,0.37418 -0.266683,0.27378 z m 1.1121231,-2.3728 c 0,-0.10039 0.081402,-0.30572 0.180898,-0.45631 0.099501,-0.15057 0.1808929,-0.19164 0.1808929,-0.0913 0,0.10038 -0.081392,0.30573 -0.1808929,0.4563 -0.099496,0.15058 -0.180898,0.19165 -0.180898,0.0913 z m 2.3268657,-4.65434 c 0.463905,-0.90348 0.885469,-1.6427 0.93679,-1.6427 0.05131,0 -0.286277,0.73922 -0.750177,1.6427 -0.46391,0.90349 -0.885469,1.64271 -0.936779,1.64271 -0.05132,0 0.286266,-0.73922 0.750166,-1.64271 z m 1.399544,-2.55531 c 0.109865,-0.20077 0.241734,-0.36505 0.293059,-0.36505 0.05131,0 0.0034,0.16428 -0.106445,0.36505 -0.10986,0.20077 -0.241734,0.36505 -0.293054,0.36505 -0.05132,0 -0.0034,-0.16428 0.10644,-0.36505 z m 0.559825,-0.91262 c 0.109851,-0.20077 0.241723,-0.36505 0.293053,-0.36505 0.05131,0 0.0034,0.16428 -0.106448,0.36505 -0.109852,0.20078 -0.241724,0.36504 -0.293044,0.36504 -0.05133,0 -0.0034,-0.16426 0.106439,-0.36504 z m 0.559818,-0.91262 c 0.109856,-0.20077 0.241728,-0.36505 0.293054,-0.36505 0.05131,0 0.0034,0.16428 -0.106449,0.36505 -0.109851,0.20078 -0.241728,0.36505 -0.293039,0.36505 -0.05131,0 -0.0034,-0.16427 0.106434,-0.36505 z m 0.527537,-0.84496 c 0.105336,-0.18779 0.327719,-0.5057 0.494147,-0.70648 0.280898,-0.33885 0.281986,-0.32331 0.01501,0.21658 -0.15819,0.3199 -0.380567,0.63781 -0.494167,0.70649 -0.147914,0.0894 -0.152162,0.0279 -0.01499,-0.21659 z"
       id="path2161"
       inkscape:connector-curvature="0" />
  </g>
</svg>
