<?xml version="1.0" encoding="UTF-8" standalone="no"?>
<!-- Generator: Adobe Illustrator 19.2.1, SVG Export Plug-In . SVG Version: 6.00 Build 0)  -->

<svg
   xmlns:dc="http://purl.org/dc/elements/1.1/"
   xmlns:cc="http://creativecommons.org/ns#"
   xmlns:rdf="http://www.w3.org/1999/02/22-rdf-syntax-ns#"
   xmlns:svg="http://www.w3.org/2000/svg"
   xmlns="http://www.w3.org/2000/svg"
   xmlns:sodipodi="http://sodipodi.sourceforge.net/DTD/sodipodi-0.dtd"
   xmlns:inkscape="http://www.inkscape.org/namespaces/inkscape"
   version="1.1"
   x="0px"
   y="0px"
   viewBox="0 0 180 180"
   xml:space="preserve"
   id="svg179"
   sodipodi:docname="pizza.svg"
   width="180"
   height="180"
   inkscape:version="0.92.2 5c3e80d, 2017-08-06"><metadata
     id="metadata185"><rdf:RDF><cc:Work
         rdf:about=""><dc:format>image/svg+xml</dc:format><dc:type
           rdf:resource="http://purl.org/dc/dcmitype/StillImage" /><dc:title></dc:title></cc:Work></rdf:RDF></metadata><defs
     id="defs183" /><sodipodi:namedview
     pagecolor="#ffffff"
     bordercolor="#666666"
     borderopacity="1"
     objecttolerance="10"
     gridtolerance="10"
     guidetolerance="10"
     inkscape:pageopacity="0"
     inkscape:pageshadow="2"
     inkscape:window-width="1214"
     inkscape:window-height="809"
     id="namedview181"
     showgrid="false"
     inkscape:pagecheckerboard="true"
     inkscape:showpageshadow="false"
     inkscape:zoom="2.2056075"
     inkscape:cx="53.5"
     inkscape:cy="53.5"
     inkscape:window-x="0"
     inkscape:window-y="0"
     inkscape:window-maximized="0"
     inkscape:current-layer="svg179" /><style
     type="text/css"
     id="style2">
	.st0{display:none;}
	.st1{display:inline;fill:#227E53;}
	.st2{display:inline;fill:#C03922;}
	.st3{display:inline;fill:#FFFFFF;}
	.st4{display:inline;}
	.st5{fill:#FFFFFF;}
	.st6{fill:#C03922;}
	.st7{fill:#1D71B8;}
	.st8{clip-path:url(#SVGID_2_);}
	.st9{clip-path:url(#SVGID_6_);}
	.st10{clip-path:url(#SVGID_10_);}
	.st11{fill-rule:evenodd;clip-rule:evenodd;fill:#E5AA46;}
	.st12{fill-rule:evenodd;clip-rule:evenodd;fill:#74962C;}
	.st13{fill-rule:evenodd;clip-rule:evenodd;fill:#812811;}
	.st14{fill-rule:evenodd;clip-rule:evenodd;fill:#FFE496;}
	.st15{fill-rule:evenodd;clip-rule:evenodd;fill:#F7C062;}
	.st16{fill:#C83325;}
	.st17{fill:#E62D22;}
	.st18{fill-rule:evenodd;clip-rule:evenodd;fill:#FFECB7;}
	.st19{fill:#CB8550;}
	.st20{fill:#EEBD6E;}
	.st21{fill:#9F2016;}
	.st22{fill:#DE5040;}
	.st23{fill:#F8AB36;}
	.st24{fill:#E2942C;}
	.st25{fill:#689E46;}
	.st26{fill:#7EBB5D;}
	.st27{fill-rule:evenodd;clip-rule:evenodd;fill:#FFE7B1;}
	.st28{fill-rule:evenodd;clip-rule:evenodd;fill:#FFF2D9;}
	.st29{fill:#FBF1E4;}
	.st30{fill:#F0A800;}
	.st31{fill:#227E53;}
	.st32{opacity:0.2;}
	.st33{fill:#231F20;}
	.st34{fill:#E1E0D1;}
	.st35{display:inline;fill:none;stroke:#FFFFFF;stroke-width:4;stroke-miterlimit:10;}
	.st36{display:inline;fill:none;stroke:#FFFFFF;stroke-width:3;stroke-miterlimit:10;}
	.st37{clip-path:url(#SVGID_14_);}
	.st38{clip-path:url(#SVGID_18_);}
	.st39{clip-path:url(#SVGID_22_);}
	.st40{display:inline;fill-rule:evenodd;clip-rule:evenodd;fill:none;stroke:#FFFFFF;stroke-width:2;stroke-miterlimit:10;}
	.st41{display:inline;fill:none;stroke:#FFFFFF;stroke-width:5;stroke-miterlimit:10;}
	.st42{clip-path:url(#SVGID_26_);}
	.st43{clip-path:url(#SVGID_30_);}
	.st44{clip-path:url(#SVGID_34_);}
	.st45{clip-path:url(#SVGID_38_);}
	.st46{clip-path:url(#SVGID_42_);}
	.st47{clip-path:url(#SVGID_46_);}
	.st48{clip-path:url(#SVGID_50_);}
	.st49{clip-path:url(#SVGID_54_);}
	.st50{clip-path:url(#SVGID_58_);}
	.st51{clip-path:url(#SVGID_62_);}
	.st52{clip-path:url(#SVGID_66_);}
	.st53{clip-path:url(#SVGID_70_);}
	.st54{fill-rule:evenodd;clip-rule:evenodd;fill:none;stroke:#FFFFFF;stroke-width:2;stroke-miterlimit:10;}
	.st55{fill:none;stroke:#FFFFFF;stroke-width:5;stroke-miterlimit:10;}
	.st56{clip-path:url(#SVGID_74_);}
	.st57{clip-path:url(#SVGID_76_);}
	.st58{clip-path:url(#SVGID_80_);}
	.st59{clip-path:url(#SVGID_84_);}
	.st60{fill-rule:evenodd;clip-rule:evenodd;fill:none;stroke:#FFFFFF;stroke-width:1.552;stroke-miterlimit:10;}
	.st61{fill:none;stroke:#FFFFFF;stroke-width:3.88;stroke-miterlimit:10;}
	.st62{fill:none;stroke:#FFFFFF;stroke-width:2.91;stroke-miterlimit:10;}
	.st63{fill:#324B7F;}
	.st64{fill:#F1F2F2;}
	.st65{fill:#E71D73;}
	.st66{clip-path:url(#SVGID_88_);}
	.st67{clip-path:url(#SVGID_92_);}
	.st68{clip-path:url(#SVGID_96_);}
	.st69{fill:none;stroke:#FFFFFF;stroke-width:3;stroke-miterlimit:10;}
	.st70{fill:none;stroke:#C03922;stroke-miterlimit:10;}
	.st71{fill:none;}
	.st72{clip-path:url(#SVGID_100_);}
	.st73{clip-path:url(#SVGID_104_);}
	.st74{clip-path:url(#SVGID_108_);}
</style><g
     id="Livello_1"
     class="st0"
     style="display:none"
     transform="translate(0,73)" /><g
     id="_x31_40x200_prima_campagna"
     class="st0"
     style="display:none"
     transform="translate(0,73)" /><g
     id="_x31_40x200_prima_campagna_totem_vicino"
     class="st0"
     style="display:none"
     transform="translate(0,73)" /><g
     id="_x31_40x200_siamo_aperti"
     class="st0"
     style="display:none"
     transform="translate(0,73)" /><g
     id="_x31_40x200_aperti_dal_24_x2F_08"
     class="st0"
     style="display:none"
     transform="translate(0,73)" /><g
     id="_x31_40x200_aperti_dal_24_x2F_08_copia"
     class="st0"
     style="display:none"
     transform="translate(0,73)" /><g
     id="g1322"
     transform="matrix(2.0190654,0,0,2.0153761,-18.016367,-165.26118)"><path
       style="fill:#f9f9dd;fill-opacity:0.76585364;stroke:#ffffff;stroke-width:5;stroke-miterlimit:10"
       inkscape:connector-curvature="0"
       id="path10"
       d="m 95.6,127.2 c 0,-1.2 -0.2,-2.4 -0.4,-3.5 0.2,-5.4 -0.8,-10.8 -3.4,-15.4 C 90.6,106 89,104 87.3,102 86.8,101.4 86.2,100.8 85.7,100.2 79.3,92.2 69.9,86.6 59,85.1 57.9,85 56.9,84.9 55.8,84.8 51.2,84.2 46.5,84.4 42.1,86 c -1.4,0.5 -2.8,1.1 -4.1,1.8 -2.7,1.4 -5.3,2.4 -7.7,4.4 -1.2,1 -2.6,1.6 -3.9,2.5 -1.2,0.9 -2.4,1.8 -3.5,2.8 -0.7,0.7 -1.3,1.4 -1.9,2.1 -2.5,2.8 -4.9,5.8 -6.3,9.4 -0.6,1.7 -1,3.5 -1.4,5.2 -0.4,1.9 -0.8,3.8 -1.1,5.7 -0.3,1.8 -0.3,3.5 -0.4,5.3 -0.3,3.8 -0.9,7.5 0.3,11.2 0.4,1.1 0.9,2.2 1.5,3.3 1,2 2,4 3.1,6 0.6,1.2 1.2,2.4 1.9,3.5 1.6,2.4 3.8,4.3 5.8,6.3 0.9,0.9 1.7,1.9 2.5,2.8 0.9,1.1 2.5,2 3.7,2.8 4.4,3 9.4,5.2 14.8,6.3 4.7,1.4 9.6,1.8 14.3,0.8 1.4,-0.3 2.8,-0.7 4.2,-1.2 1.8,-0.6 3.6,-1.1 5.3,-1.8 1.8,-0.8 3.5,-1.6 5.2,-2.6 3.4,-1.9 7,-3.8 10,-6.3 2.5,-2 4.4,-4.5 5.9,-7.3 1.4,-2.7 2.7,-5.6 3.4,-8.5 0.1,-0.6 0.3,-1.2 0.4,-1.7 0.6,-3.9 1.7,-7.7 1.5,-11.6 z"
       class="st55" /><g
       transform="translate(0,73)"
       id="g116"><g
         id="g114"><g
           id="g100"><g
             id="g14"><path
               class="st19"
               d="m 93.8,67.5 c 0.1,-0.6 0.3,-1.2 0.4,-1.7 0.7,-3.8 1.7,-7.6 1.6,-11.6 0,-1.2 -0.2,-2.4 -0.4,-3.5 C 95.6,45.3 94.6,39.9 92,35.3 90.8,33 89.2,31 87.5,29 87,28.4 86.4,27.8 85.9,27.2 79.5,19.2 70.1,13.6 59.2,12.1 58.1,12 57.1,11.9 56,11.8 51.4,11.2 46.7,11.4 42.3,13 c -1.4,0.5 -2.8,1.1 -4.1,1.8 -2.7,1.4 -5.3,2.4 -7.7,4.4 -1.2,1 -2.6,1.6 -3.9,2.5 -1.2,0.9 -2.4,1.8 -3.5,2.8 -0.7,0.7 -1.3,1.4 -1.9,2.1 -2.5,2.8 -4.9,5.8 -6.3,9.4 -0.6,1.7 -1,3.5 -1.4,5.2 -0.4,1.9 -0.8,3.8 -1.1,5.7 -0.3,1.8 -0.3,3.5 -0.4,5.3 -0.3,3.8 -0.9,7.5 0.3,11.2 0.4,1.1 0.9,2.2 1.5,3.3 1,2 2,4 3.1,6 0.6,1.2 1.2,2.4 1.9,3.5 1.6,2.4 3.8,4.3 5.8,6.3 0.9,0.9 1.7,1.9 2.5,2.8 0.9,1.1 2.5,2 3.7,2.8 4.4,3 9.4,5.2 14.8,6.3 4.7,1.4 9.6,1.8 14.3,0.8 1.4,-0.3 2.8,-0.7 4.2,-1.2 1.8,-0.6 3.6,-1.1 5.3,-1.8 1.8,-0.8 3.5,-1.6 5.2,-2.6 3.4,-1.9 7,-3.8 10,-6.3 2.5,-2 4.4,-4.5 5.9,-7.3 1.3,-2.7 2.6,-5.5 3.3,-8.5 z"
               id="path12"
               inkscape:connector-curvature="0"
               style="fill:#cb8550" /></g><g
             id="g18"><path
               class="st20"
               d="m 88,74.6 c 0.3,-0.5 0.5,-1 0.7,-1.5 1.4,-3.4 3.1,-6.7 3.8,-10.4 0.2,-1.1 0.3,-2.2 0.4,-3.3 1.2,-4.9 1.4,-10.1 0,-15 C 92.2,42 91.2,39.8 90,37.6 89.6,36.9 89.3,36.3 88.9,35.6 84.6,26.9 77.1,19.8 67.2,16.2 c -1,-0.3 -1.9,-0.7 -2.9,-0.9 -4.1,-1.5 -8.5,-2.2 -12.9,-1.7 -1.4,0.2 -2.8,0.5 -4.2,0.8 -2.8,0.7 -5.4,1.2 -8,2.5 -1.3,0.7 -2.8,1 -4.1,1.5 -1.3,0.5 -2.6,1.2 -3.8,1.9 -0.7,0.5 -1.5,1 -2.2,1.5 -2.9,2.1 -5.7,4.4 -7.7,7.4 -0.9,1.4 -1.7,3 -2.4,4.5 -0.8,1.7 -1.5,3.4 -2.2,5.1 -0.6,1.6 -1,3.2 -1.5,4.8 -1,3.5 -2.4,6.7 -2,10.5 0.1,1.1 0.4,2.2 0.7,3.3 0.5,2.1 1.1,4.1 1.6,6.2 0.3,1.2 0.6,2.4 1.1,3.6 1,2.5 2.6,4.8 4.1,7 0.7,1 1.2,2.1 1.7,3.1 0.6,1.2 1.9,2.4 2.9,3.4 3.5,3.7 7.6,6.7 12.4,8.8 4,2.2 8.5,3.6 13.1,3.7 1.4,0 2.7,-0.1 4.1,-0.3 1.8,-0.2 3.5,-0.3 5.3,-0.6 1.8,-0.3 3.6,-0.8 5.4,-1.3 3.5,-1.1 7.2,-2.1 10.5,-3.8 2.7,-1.3 5,-3.3 6.9,-5.6 1.9,-2 3.6,-4.4 4.9,-7 z"
               id="path16"
               inkscape:connector-curvature="0"
               style="fill:#eebd6e" /></g><g
             id="g22"><path
               class="st21"
               d="m 77.8,82.2 c 0.4,-0.4 0.7,-0.8 1.1,-1.2 2.3,-2.6 4.8,-5 6.4,-8.1 0.5,-0.9 0.9,-1.9 1.3,-2.8 2.5,-4 4.2,-8.5 4.4,-13.2 0.1,-2.3 -0.2,-4.6 -0.5,-6.8 C 90.4,49.4 90.3,48.7 90.1,48 88.9,39.1 84.3,30.6 76.7,24.5 76,23.9 75.2,23.4 74.4,22.8 71.2,20.2 67.5,18.3 63.5,17.5 62.2,17.2 60.9,17.1 59.5,17 56.8,16.8 54.3,16.4 51.7,16.8 50.4,17 49,16.9 47.6,17 c -1.3,0.1 -2.6,0.3 -3.9,0.6 -0.8,0.2 -1.6,0.4 -2.4,0.7 -3.2,1 -6.4,2.2 -9,4.3 -1.2,1 -2.3,2.2 -3.4,3.3 -1.2,1.3 -2.3,2.5 -3.4,3.8 -1,1.2 -1.8,2.5 -2.7,3.8 -1.9,2.8 -4.1,5.2 -4.8,8.7 -0.2,1 -0.3,2.1 -0.4,3.2 -0.1,2 -0.3,4 -0.4,5.9 -0.1,1.2 -0.2,2.3 -0.1,3.5 0.1,2.5 0.9,5 1.5,7.4 0.3,1.1 0.4,2.2 0.6,3.3 0.2,1.3 1,2.6 1.5,3.8 2,4.3 4.8,8.2 8.4,11.4 2.9,3.1 6.4,5.7 10.5,7.1 1.2,0.4 2.4,0.7 3.7,1 1.6,0.3 3.2,0.8 4.8,1 1.7,0.2 3.4,0.3 5.1,0.4 3.4,0.1 7,0.2 10.4,-0.2 2.8,-0.4 5.3,-1.4 7.7,-2.9 2.4,-1.4 4.6,-3 6.5,-4.9 z"
               id="path20"
               inkscape:connector-curvature="0"
               style="fill:#9f2016" /></g><g
             id="g26"><path
               class="st22"
               d="m 68.7,85.7 c 0.4,-0.3 0.9,-0.5 1.3,-0.8 2.7,-1.8 5.6,-3.4 7.9,-5.8 0.7,-0.7 1.3,-1.5 1.9,-2.3 3.3,-3 6,-6.8 7.3,-11 0.6,-2.1 1,-4.2 1.2,-6.4 0.1,-0.7 0.1,-1.3 0.1,-2 1,-8.5 -1,-17.4 -6.6,-24.8 -0.5,-0.7 -1.1,-1.4 -1.7,-2.1 -2.3,-3.1 -5.2,-5.8 -8.7,-7.5 -1.1,-0.6 -2.3,-1 -3.5,-1.4 -2.4,-0.8 -4.6,-1.8 -7.1,-2.1 -1.3,-0.1 -2.5,-0.6 -3.8,-0.9 -1.2,-0.2 -2.5,-0.4 -3.7,-0.4 -0.8,0 -1.6,0 -2.3,0.1 -3.2,0.2 -6.4,0.5 -9.3,1.7 -1.4,0.6 -2.7,1.4 -4,2.2 -1.4,0.9 -2.7,1.7 -4.1,2.7 -1.2,0.9 -2.3,1.9 -3.4,2.8 -2.4,2.1 -5,3.8 -6.5,6.8 -0.5,0.9 -0.8,1.9 -1.1,2.8 -0.6,1.8 -1.2,3.6 -1.8,5.4 -0.4,1.1 -0.7,2.1 -0.9,3.2 -0.5,2.4 -0.4,4.8 -0.4,7.2 0,1.1 -0.2,2.1 -0.3,3.1 -0.1,1.2 0.3,2.7 0.5,3.9 0.8,4.4 2.4,8.6 4.9,12.5 1.9,3.6 4.5,6.8 7.9,9 1,0.7 2,1.3 3.1,1.8 1.4,0.7 2.7,1.5 4.2,2.1 1.5,0.6 3,1.1 4.6,1.6 3.1,0.9 6.4,1.9 9.6,2.3 2.7,0.3 5.2,0 7.8,-0.8 2.3,-0.7 4.7,-1.6 6.9,-2.9 z"
               id="path24"
               inkscape:connector-curvature="0"
               style="fill:#de5040" /></g><g
             id="g30"><path
               class="st23"
               d="m 57.4,85.9 c 0.4,-0.1 0.9,-0.2 1.3,-0.3 2.9,-0.8 5.9,-1.4 8.5,-2.8 0.8,-0.4 1.6,-0.9 2.3,-1.4 3.8,-1.7 7.2,-4.2 9.5,-7.5 1.2,-1.6 2.1,-3.4 2.9,-5.2 0.3,-0.6 0.5,-1.1 0.7,-1.7 3.4,-7.1 4.2,-15.4 1.5,-23.5 -0.3,-0.8 -0.5,-1.6 -0.9,-2.3 -1.1,-3.4 -2.9,-6.6 -5.4,-9.1 -0.8,-0.8 -1.7,-1.6 -2.6,-2.3 -1.9,-1.4 -3.5,-2.9 -5.6,-3.9 -1.1,-0.5 -2,-1.3 -3,-1.8 -1,-0.6 -2,-1.1 -3.1,-1.5 -0.7,-0.2 -1.4,-0.4 -2.1,-0.6 -2.8,-0.8 -5.7,-1.5 -8.6,-1.2 -1.4,0.1 -2.7,0.4 -4.1,0.8 -1.4,0.3 -2.9,0.7 -4.3,1.1 -1.3,0.4 -2.5,1 -3.8,1.5 -2.7,1.1 -5.5,1.8 -7.6,4 -0.7,0.6 -1.2,1.4 -1.8,2.1 -1,1.4 -2.1,2.8 -3.1,4.1 -0.6,0.8 -1.2,1.6 -1.7,2.5 -1.1,1.9 -1.7,4 -2.4,6.1 -0.3,0.9 -0.7,1.8 -1.1,2.6 -0.5,1 -0.5,2.4 -0.7,3.5 -0.6,4 -0.4,8.2 0.6,12.3 0.6,3.7 1.9,7.2 4.2,10.1 0.7,0.9 1.4,1.7 2.2,2.5 1,1 1.9,2.1 3,3.1 1.1,1 2.3,1.9 3.5,2.7 2.4,1.7 5,3.5 7.7,4.8 2.2,1.1 4.6,1.5 7,1.6 2.3,0.3 4.7,0.2 7,-0.3 z"
               id="path28"
               inkscape:connector-curvature="0"
               style="fill:#f8ab36" /></g><g
             id="g34"><path
               class="st20"
               d="m 42.4,50.1 c 0.6,0.3 1.3,0.5 2,0.5 0.5,0 1,-0.2 1.5,-0.6 3.3,-3.2 -0.3,-5.9 -2.6,-5.3 -2.8,0.6 -4.5,3.7 -0.9,5.4 z"
               id="path32"
               inkscape:connector-curvature="0"
               style="fill:#eebd6e" /></g><g
             id="g38"><path
               class="st20"
               d="m 45.1,47.1 c 0.6,0.3 1.3,0.5 2,0.5 0.5,0 1,-0.2 1.5,-0.6 3.3,-3.2 -0.3,-5.9 -2.6,-5.3 -2.8,0.7 -4.5,3.8 -0.9,5.4 z"
               id="path36"
               inkscape:connector-curvature="0"
               style="fill:#eebd6e" /></g><g
             id="g42"><path
               class="st20"
               d="m 64.4,56.5 c 0.6,0.3 1.3,0.5 2,0.5 0.5,0 1,-0.2 1.5,-0.6 3.3,-3.2 -0.3,-5.9 -2.6,-5.3 -2.8,0.7 -4.6,3.8 -0.9,5.4 z"
               id="path40"
               inkscape:connector-curvature="0"
               style="fill:#eebd6e" /></g><g
             id="g46"><path
               class="st20"
               d="m 48.5,36.5 c 0.6,0.3 1.3,0.5 2,0.5 0.5,0 1,-0.2 1.5,-0.6 3.3,-3.2 -0.3,-5.9 -2.6,-5.3 -2.8,0.6 -4.6,3.7 -0.9,5.4 z"
               id="path44"
               inkscape:connector-curvature="0"
               style="fill:#eebd6e" /></g><g
             id="g50"><path
               class="st20"
               d="m 58.3,67.6 c 0.6,0.3 1.3,0.5 2,0.5 0.5,0 1,-0.2 1.5,-0.6 3.3,-3.2 -0.3,-5.9 -2.6,-5.3 -2.8,0.7 -4.5,3.8 -0.9,5.4 z"
               id="path48"
               inkscape:connector-curvature="0"
               style="fill:#eebd6e" /></g><g
             id="g54"><path
               class="st20"
               d="m 62.6,37.3 c 0.4,0.2 0.8,0.3 1.2,0.3 0.3,0 0.6,-0.1 0.9,-0.4 1.9,-1.9 -0.2,-3.5 -1.6,-3.2 -1.6,0.5 -2.6,2.3 -0.5,3.3 z"
               id="path52"
               inkscape:connector-curvature="0"
               style="fill:#eebd6e" /></g><g
             id="g58"><path
               class="st20"
               d="m 46.3,72.9 c 0.4,0.2 0.8,0.3 1.2,0.3 0.3,0 0.6,-0.1 0.9,-0.4 1.9,-1.9 -0.2,-3.5 -1.6,-3.2 -1.6,0.5 -2.7,2.3 -0.5,3.3 z"
               id="path56"
               inkscape:connector-curvature="0"
               style="fill:#eebd6e" /></g><g
             id="g62"><path
               class="st24"
               d="m 46.7,61.6 c 0.4,0.2 0.8,0.3 1.2,0.3 0.3,0 0.6,-0.1 0.9,-0.4 1.9,-1.9 -0.2,-3.5 -1.6,-3.2 -1.6,0.5 -2.6,2.3 -0.5,3.3 z"
               id="path60"
               inkscape:connector-curvature="0"
               style="fill:#e2942c" /></g><g
             id="g66"><path
               class="st24"
               d="m 53.9,56 c 0.6,0.3 1.4,0.5 2,0.5 0.5,0 1.1,-0.2 1.5,-0.6 3.3,-3.2 -0.3,-6 -2.7,-5.4 -2.7,0.6 -4.5,3.8 -0.8,5.5 z"
               id="path64"
               inkscape:connector-curvature="0"
               style="fill:#e2942c" /></g><g
             id="g70"><path
               class="st24"
               d="m 70.8,46.1 c 0.4,0.2 0.8,0.3 1.2,0.3 0.3,0 0.6,-0.1 0.9,-0.4 2,-1.9 -0.2,-3.6 -1.6,-3.3 -1.7,0.5 -2.7,2.4 -0.5,3.4 z"
               id="path68"
               inkscape:connector-curvature="0"
               style="fill:#e2942c" /></g><g
             id="g74"><path
               class="st24"
               d="m 34.6,55.6 c 0.4,0.2 0.8,0.3 1.2,0.3 0.3,0 0.6,-0.1 0.9,-0.4 2,-1.9 -0.2,-3.6 -1.6,-3.3 -1.7,0.5 -2.8,2.4 -0.5,3.4 z"
               id="path72"
               inkscape:connector-curvature="0"
               style="fill:#e2942c" /></g><g
             id="g78"><path
               class="st24"
               d="m 33.3,43.2 c 0.4,0.2 0.8,0.3 1.2,0.3 0.3,0 0.6,-0.1 0.9,-0.4 2,-1.9 -0.2,-3.6 -1.6,-3.3 -1.6,0.5 -2.7,2.4 -0.5,3.4 z"
               id="path76"
               inkscape:connector-curvature="0"
               style="fill:#e2942c" /></g><g
             id="g82"><path
               class="st24"
               d="m 67.4,72.9 c 0.4,0.2 0.8,0.3 1.2,0.3 0.3,0 0.6,-0.1 0.9,-0.4 2,-1.9 -0.2,-3.6 -1.6,-3.3 -1.6,0.5 -2.7,2.4 -0.5,3.4 z"
               id="path80"
               inkscape:connector-curvature="0"
               style="fill:#e2942c" /></g><g
             id="g86"><path
               class="st24"
               d="m 34.6,68.9 c 0.4,0.2 0.8,0.3 1.2,0.3 0.3,0 0.6,-0.1 0.9,-0.4 1.9,-1.9 -0.2,-3.5 -1.6,-3.2 -1.6,0.5 -2.7,2.3 -0.5,3.3 z"
               id="path84"
               inkscape:connector-curvature="0"
               style="fill:#e2942c" /></g><g
             id="g90"><path
               class="st24"
               d="m 55.3,80.3 c 0.4,0.2 0.8,0.3 1.2,0.3 0.3,0 0.6,-0.1 0.9,-0.4 2,-1.9 -0.2,-3.6 -1.6,-3.3 -1.7,0.5 -2.7,2.3 -0.5,3.4 z"
               id="path88"
               inkscape:connector-curvature="0"
               style="fill:#e2942c" /></g><g
             id="g94"><path
               class="st20"
               d="m 77.5,59.1 c 0.4,0.2 0.8,0.3 1.2,0.3 0.3,0 0.6,-0.1 0.9,-0.4 1.9,-1.9 -0.2,-3.5 -1.6,-3.2 -1.6,0.5 -2.7,2.3 -0.5,3.3 z"
               id="path92"
               inkscape:connector-curvature="0"
               style="fill:#eebd6e" /></g><g
             id="g98"><path
               class="st20"
               d="m 58.9,28.1 c 0.4,0.2 0.8,0.3 1.2,0.3 0.3,0 0.6,-0.1 0.9,-0.4 1.9,-1.9 -0.2,-3.5 -1.6,-3.2 -1.7,0.5 -2.7,2.3 -0.5,3.3 z"
               id="path96"
               inkscape:connector-curvature="0"
               style="fill:#eebd6e" /></g></g><g
           id="g104"><path
             class="st20"
             d="m 43,32.1 c 0.4,0.2 0.8,0.3 1.2,0.3 0.3,0 0.6,-0.1 0.9,-0.4 1.9,-1.9 -0.2,-3.5 -1.6,-3.2 -1.7,0.5 -2.7,2.3 -0.5,3.3 z"
             id="path102"
             inkscape:connector-curvature="0"
             style="fill:#eebd6e" /></g><g
           id="g108"><path
             class="st20"
             d="m 34,61.4 c 0.4,0.2 0.8,0.3 1.2,0.3 0.3,0 0.6,-0.1 0.9,-0.4 1.9,-1.9 -0.2,-3.5 -1.6,-3.2 -1.7,0.5 -2.7,2.3 -0.5,3.3 z"
             id="path106"
             inkscape:connector-curvature="0"
             style="fill:#eebd6e" /></g><g
           id="g112"><path
             class="st24"
             d="m 31.3,43.2 c 0.6,0.3 1.4,0.5 2,0.5 0.5,0 1.1,-0.2 1.5,-0.6 3.3,-3.2 -0.3,-6 -2.7,-5.4 -2.7,0.7 -4.5,3.8 -0.8,5.5 z"
             id="path110"
             inkscape:connector-curvature="0"
             style="fill:#e2942c" /></g></g></g><g
       transform="translate(0,73)"
       id="g122"><path
         class="st25"
         d="m 59.3,45.8 c 0.2,0.4 0.5,0.8 1,1.2 0.1,0.1 0.1,0.1 0.2,0.2 2.7,-3.9 5.8,-7.4 8.6,-11.3 -4,2.6 -6.7,6.3 -9.8,9.9 z"
         id="path118"
         inkscape:connector-curvature="0"
         style="fill:#689e46" /><path
         class="st26"
         d="m 71.6,34.7 0.2,-1.9 c 0.1,-0.7 -0.7,-1.2 -1.3,-0.8 -2.6,1.6 -5.5,2.6 -7.8,4.6 -2.1,1.8 -4.9,6.3 -3.4,9.3 3.1,-3.5 5.8,-7.3 9.8,-10 -2.8,3.9 -5.9,7.4 -8.6,11.3 3.2,2.2 8,-2.9 9.5,-5.4 1.2,-2.2 1.4,-4.7 1.6,-7.1 z"
         id="path120"
         inkscape:connector-curvature="0"
         style="fill:#7ebb5d" /></g><g
       transform="translate(0,73)"
       id="g128"><path
         class="st25"
         d="m 45.8,41.8 c -0.1,0.4 -0.3,0.7 -0.6,1 0,0 -0.1,0.1 -0.1,0.1 -2.4,-2.6 -5,-4.9 -7.5,-7.6 3.1,1.6 5.5,4.1 8.2,6.5 z"
         id="path124"
         inkscape:connector-curvature="0"
         style="fill:#689e46" /><path
         class="st26"
         d="m 35.5,34.7 -0.3,-1.4 c -0.1,-0.5 0.4,-1 0.9,-0.7 2.1,0.9 4.4,1.4 6.3,2.6 1.7,1.2 4.2,4.2 3.4,6.6 -2.7,-2.3 -5.1,-4.9 -8.3,-6.5 2.5,2.7 5.1,4.9 7.5,7.6 -2.2,2 -6.2,-1.3 -7.6,-3.1 -1.1,-1.4 -1.5,-3.3 -1.9,-5.1 z"
         id="path126"
         inkscape:connector-curvature="0"
         style="fill:#7ebb5d" /></g><g
       transform="translate(0,73)"
       id="g134"><path
         class="st25"
         d="m 62.5,61.8 c 0.1,-0.4 0.3,-0.7 0.5,-1 0,-0.1 0.1,-0.1 0.1,-0.1 2.6,2.5 5.4,4.5 8.1,7 -3.3,-1.5 -5.8,-3.8 -8.7,-5.9 z"
         id="path130"
         inkscape:connector-curvature="0"
         style="fill:#689e46" /><path
         class="st26"
         d="m 73.3,68 0.4,1.4 c 0.2,0.5 -0.3,1 -0.8,0.8 -2.1,-0.7 -4.5,-1 -6.4,-2.2 -1.8,-1 -4.6,-3.9 -3.9,-6.3 2.9,2.1 5.4,4.5 8.8,5.8 -2.7,-2.5 -5.5,-4.5 -8.1,-7 2,-2.1 6.3,0.9 7.8,2.5 1.1,1.4 1.7,3.2 2.2,5 z"
         id="path132"
         inkscape:connector-curvature="0"
         style="fill:#7ebb5d" /></g><g
       transform="translate(0,73)"
       id="g160"><g
         id="g140"><path
           class="st27"
           d="m 68.7,46 c 8.7,-2.1 14.6,8.3 2.6,11.1 C 59.7,59.9 59.9,48 68.7,46 Z"
           id="path136"
           inkscape:connector-curvature="0"
           style="clip-rule:evenodd;fill:#ffe7b1;fill-rule:evenodd" /><path
           class="st28"
           d="m 68.9,46.8 c 7.5,-1.8 12.5,7.1 2.2,9.5 -9.9,2.3 -9.7,-7.8 -2.2,-9.5 z"
           id="path138"
           inkscape:connector-curvature="0"
           style="clip-rule:evenodd;fill:#fff2d9;fill-rule:evenodd" /></g><g
         id="g146"><path
           class="st27"
           d="M 60.2,35.5 C 58.4,44.3 46.6,45.3 49,33.2 51.3,21.5 61.9,26.7 60.2,35.5 Z"
           id="path142"
           inkscape:connector-curvature="0"
           style="clip-rule:evenodd;fill:#ffe7b1;fill-rule:evenodd" /><path
           class="st28"
           d="m 59.4,35.4 c -1.5,7.5 -11.7,8.4 -9.6,-1.9 2,-10.1 11.1,-5.7 9.6,1.9 z"
           id="path144"
           inkscape:connector-curvature="0"
           style="clip-rule:evenodd;fill:#fff2d9;fill-rule:evenodd" /></g><g
         id="g152"><path
           class="st27"
           d="m 40.3,45.9 c 9,0.3 11.9,11.8 -0.4,11.4 -12,-0.4 -8.6,-11.7 0.4,-11.4 z"
           id="path148"
           inkscape:connector-curvature="0"
           style="clip-rule:evenodd;fill:#ffe7b1;fill-rule:evenodd" /><path
           class="st28"
           d="M 40.3,46.7 C 48,47 50.5,56.8 40,56.5 29.7,56.2 32.6,46.5 40.3,46.7 Z"
           id="path150"
           inkscape:connector-curvature="0"
           style="clip-rule:evenodd;fill:#fff2d9;fill-rule:evenodd" /></g><g
         id="g158"><path
           class="st27"
           d="M 60.2,70.7 C 58.4,79.5 46.6,80.5 49,68.4 51.3,56.7 61.9,61.9 60.2,70.7 Z"
           id="path154"
           inkscape:connector-curvature="0"
           style="clip-rule:evenodd;fill:#ffe7b1;fill-rule:evenodd" /><path
           class="st28"
           d="m 59.4,70.5 c -1.5,7.5 -11.7,8.4 -9.6,-1.9 2,-10 11.1,-5.6 9.6,1.9 z"
           id="path156"
           inkscape:connector-curvature="0"
           style="clip-rule:evenodd;fill:#fff2d9;fill-rule:evenodd" /></g></g><g
       transform="translate(0,73)"
       id="g166"><path
         class="st25"
         d="m 45.2,59.8 c 0.5,0.1 0.9,0.4 1.4,0.8 0.1,0.1 0.1,0.1 0.2,0.2 -3.4,3.3 -6.3,7 -9.7,10.4 1.9,-4.5 5.2,-7.8 8.1,-11.4 z"
         id="path162"
         inkscape:connector-curvature="0"
         style="fill:#689e46" /><path
         class="st26"
         d="m 36.4,73.8 -1.9,0.5 c -0.7,0.2 -1.3,-0.5 -1,-1.2 1.1,-2.8 1.6,-5.9 3.2,-8.5 1.4,-2.3 5.4,-5.9 8.5,-4.9 -3,3.7 -6.2,7 -8.2,11.3 3.4,-3.4 6.3,-7.1 9.7,-10.4 2.7,2.8 -1.5,8.4 -3.7,10.3 -1.8,1.6 -4.2,2.3 -6.6,2.9 z"
         id="path164"
         inkscape:connector-curvature="0"
         style="fill:#7ebb5d" /></g><g
       transform="translate(0,73)"
       id="g172"><path
         class="st25"
         d="m 56.8,56.2 c -0.2,0.3 -0.5,0.5 -0.9,0.7 -0.1,0 -0.1,0.1 -0.2,0.1 -1.2,-3.3 -2.9,-6.4 -4.2,-9.8 2.4,2.6 3.6,5.8 5.3,9 z"
         id="path168"
         inkscape:connector-curvature="0"
         style="fill:#689e46" /><path
         class="st26"
         d="M 49.8,45.8 50,44.4 c 0.1,-0.5 0.7,-0.7 1.1,-0.4 1.6,1.6 3.6,2.9 4.8,4.8 1.2,1.7 2.4,5.5 0.8,7.4 -1.6,-3.1 -2.9,-6.4 -5.3,-9.1 1.3,3.4 3,6.5 4.2,9.8 -2.8,1 -5.3,-3.5 -5.9,-5.7 -0.5,-1.7 -0.2,-3.6 0.1,-5.4 z"
         id="path170"
         inkscape:connector-curvature="0"
         style="fill:#7ebb5d" /></g></g></svg>