<?xml version="1.0" encoding="UTF-8" standalone="no"?>
<!-- Created with Inkscape (http://www.inkscape.org/) -->

<svg
   xmlns:dc="http://purl.org/dc/elements/1.1/"
   xmlns:cc="http://creativecommons.org/ns#"
   xmlns:rdf="http://www.w3.org/1999/02/22-rdf-syntax-ns#"
   xmlns:svg="http://www.w3.org/2000/svg"
   xmlns="http://www.w3.org/2000/svg"
   xmlns:sodipodi="http://sodipodi.sourceforge.net/DTD/sodipodi-0.dtd"
   xmlns:inkscape="http://www.inkscape.org/namespaces/inkscape"
   width="180"
   height="180"
   id="svg2"
   version="1.1"
   inkscape:version="0.92.2 5c3e80d, 2017-08-06"
   sodipodi:docname="clipart-zebra-pizza-1082.svg"
   inkscape:export-filename="/home/knoppix/0/p.png"
   inkscape:export-xdpi="250"
   inkscape:export-ydpi="250">
  <defs
     id="defs4">
    <inkscape:perspective
       sodipodi:type="inkscape:persp3d"
       inkscape:vp_x="0 : 526.18109 : 1"
       inkscape:vp_y="0 : 1000 : 0"
       inkscape:vp_z="744.09448 : 526.18109 : 1"
       inkscape:persp3d-origin="372.04724 : 350.78739 : 1"
       id="perspective10" />
  </defs>
  <sodipodi:namedview
     id="base"
     pagecolor="#ffffff"
     bordercolor="#666666"
     borderopacity="1.0"
     inkscape:pageopacity="1"
     inkscape:pageshadow="2"
     inkscape:zoom="1"
     inkscape:cx="176"
     inkscape:cy="80"
     inkscape:document-units="px"
     inkscape:current-layer="layer1"
     showgrid="false"
     inkscape:showpageshadow="false"
     inkscape:window-width="1440"
     inkscape:window-height="834"
     inkscape:window-x="0"
     inkscape:window-y="1"
     inkscape:window-maximized="1"
     inkscape:snap-grids="false"
     inkscape:snap-to-guides="false"
     showguides="true"
     inkscape:guide-bbox="true"
     inkscape:snap-object-midpoints="false"
     inkscape:object-nodes="false"
     inkscape:snap-center="false"
     inkscape:snap-smooth-nodes="false"
     inkscape:object-paths="true"
     inkscape:snap-midpoints="false"
     inkscape:snap-intersection-paths="true"
     inkscape:snap-nodes="false"
     inkscape:pagecheckerboard="true">
    <inkscape:grid
       type="xygrid"
       id="grid2833"
       empspacing="1"
       visible="true"
       enabled="true"
       snapvisiblegridlinesonly="true"
       spacingx="15"
       spacingy="15"
       originx="0"
       originy="0" />
  </sodipodi:namedview>
  <g
     inkscape:label="Layer 1"
     inkscape:groupmode="layer"
     id="layer1"
     transform="translate(0,-872.36218)">
    <g
       id="g890"
       transform="matrix(0.24965314,0,0,0.2496535,0.12487015,789.51148)">
      <g
         id="g863">
        <circle
           style="fill:none;fill-opacity:1;stroke:#000000;stroke-width:0.16666667"
           id="path2829"
           transform="matrix(6,0,0,6,-1260,-1107.6378)"
           cx="270"
           cy="300"
           r="60" />
        <path
           style="color:#000000;display:inline;overflow:visible;visibility:visible;fill:none;fill-opacity:1;fill-rule:nonzero;stroke:#000000;stroke-width:1px;marker:none;enable-background:accumulate"
           d="M 105,615 615,105"
           id="path2831"
           transform="translate(0,332.36218)"
           sodipodi:nodetypes="cc"
           inkscape:connector-curvature="0" />
        <path
           sodipodi:nodetypes="cc"
           id="path2835"
           d="m 615,947.36218 -510,-510"
           style="color:#000000;display:inline;overflow:visible;visibility:visible;fill:none;stroke:#000000;stroke-width:1px;marker:none;enable-background:accumulate"
           inkscape:connector-curvature="0" />
        <path
           style="color:#000000;display:inline;overflow:visible;visibility:visible;fill:none;stroke:#000000;stroke-width:1px;marker:none;enable-background:accumulate"
           d="M 360,1052.3622 V 332.36218"
           id="path2837"
           sodipodi:nodetypes="cc"
           inkscape:connector-curvature="0" />
        <path
           sodipodi:nodetypes="cc"
           id="path2839"
           d="M 0,692.36218 H 720"
           style="color:#000000;display:inline;overflow:visible;visibility:visible;fill:none;stroke:#000000;stroke-width:1px;marker:none;enable-background:accumulate"
           inkscape:connector-curvature="0" />
        <ellipse
           style="fill:none;stroke:#000000;stroke-width:0.99771494"
           id="path2878"
           transform="matrix(1.0233049,0,0,0.98170731,-64.067729,339.67924)"
           cx="414.40994"
           cy="359.25467"
           rx="175.90062"
           ry="183.35403" />
        <ellipse
           transform="matrix(1.5349576,0,0,1.4725612,-276.10171,163.33768)"
           id="path2880"
           style="fill:none;stroke:#000000"
           cx="414.40994"
           cy="359.25467"
           rx="175.90062"
           ry="183.35403" />
        <ellipse
           transform="matrix(0.51165247,0,0,0.49085367,147.96613,516.02071)"
           id="path2882"
           style="fill:none;stroke:#000000;stroke-width:1.99542975"
           cx="414.40994"
           cy="359.25467"
           rx="175.90062"
           ry="183.35403" />
        <path
           style="fill:#000000;fill-opacity:1;stroke:none"
           d="m 328.24845,326.52625 -29.81367,-29.92631 5.96274,-5.24507 c 9.16616,-8.06295 28.05451,-16.57034 41.39451,-18.64427 6.3207,-0.98265 11.84552,-1.4333 12.2774,-1.00142 0.43187,0.43187 0.6069,19.6758 0.38895,42.7643 l -0.39627,41.97907 z"
           id="path3051"
           transform="translate(0,332.36218)"
           inkscape:connector-curvature="0" />
        <path
           style="fill:#000000;fill-opacity:1;stroke:none"
           d="m 393.1068,328.78785 30.54537,-30.61588 4.89945,5.64693 c 10.01225,11.53976 19.69683,36.34062 19.69683,50.44081 v 5.14402 h -42.84351 -42.84351 z"
           id="path3053"
           transform="translate(0,332.36218)"
           inkscape:connector-curvature="0" />
        <path
           style="fill:#000000;fill-opacity:1;stroke:none"
           d="m 361.78882,406.16394 v -43.0243 l 30.15821,30.1582 30.1582,30.15821 -5.18926,4.42004 c -11.22661,9.56245 -31.55461,18.36696 -46.80528,20.2724 l -8.32187,1.03975 z"
           id="path3055"
           transform="translate(0,332.36218)"
           inkscape:connector-curvature="0" />
        <path
           style="fill:#000000;fill-opacity:1;stroke:none"
           d="m 290.59217,414.93168 c -9.92962,-12.71229 -16.64636,-29.32931 -18.98021,-46.95652 l -0.93749,-7.08075 h 42.9345 42.9345 l -29.78571,29.81366 c -16.38214,16.39752 -30.23873,29.81367 -30.79243,29.81367 -0.55371,0 -2.97162,-2.51553 -5.37316,-5.59006 z"
           id="path3057"
           transform="translate(0,332.36218)"
           inkscape:connector-curvature="0" />
        <path
           style="fill:#000000;fill-opacity:1;stroke:none"
           d="m 418.77833,290.45265 c -8.4485,-8.99302 -31.54023,-19.07764 -48.41808,-21.14514 l -8.57143,-1.04999 v -43.34157 -43.34156 l 13.78882,0.86907 c 34.78944,2.1927 76.15117,19.8166 101.96213,43.44526 l 7.23042,6.61909 -30.54537,30.65293 c -16.79996,16.85911 -30.93768,30.65292 -31.41718,30.65292 -0.47949,0 -2.29268,-1.51245 -4.02931,-3.36101 z"
           id="path3059"
           transform="translate(0,332.36218)"
           inkscape:connector-curvature="0" />
        <path
           style="fill:#000000;fill-opacity:1;stroke:none"
           d="m 455.83267,454.19304 -30.40092,-30.42808 5.54275,-6.46633 c 10.47164,-12.2165 20.13405,-37.19946 20.22943,-52.30484 l 0.0259,-4.09938 h 43.98818 43.98818 l -0.85516,8.57143 c -3.60881,36.17183 -11.80966,61.61844 -27.82073,86.32562 -7.16339,11.05403 -21.47985,28.82966 -23.21938,28.82966 -0.59252,0 -14.75772,-13.69264 -31.47823,-30.42808 z"
           id="path3061"
           transform="translate(0,332.36218)"
           inkscape:connector-curvature="0" />
        <path
           style="fill:#000000;fill-opacity:1;stroke:none"
           d="m 329.14671,535.95104 c -31.7677,-5.79661 -65.33605,-21.99351 -86.2421,-41.61225 l -7.97257,-7.48165 30.4677,-30.37986 30.46771,-30.37986 9.68171,6.90873 c 14.41712,10.28784 32.08452,17.2676 43.8196,17.31156 9.98028,0.0374 9.43869,-2.53883 9.43869,44.89768 v 43.07032 l -9.31677,-0.16127 c -5.12422,-0.0887 -14.27901,-1.06673 -20.34397,-2.1734 z"
           id="path3063"
           transform="translate(0,332.36218)"
           inkscape:connector-curvature="0" />
        <path
           style="fill:#000000;fill-opacity:1;stroke:none"
           d="m 181.81954,347.85093 c 2.75759,-38.41025 17.3473,-73.75626 42.92718,-103.99822 l 8.098,-9.57392 30.79233,30.73292 30.79234,30.73291 -5.75046,7.27487 c -10.87757,13.76116 -19.31247,35.59448 -19.31247,49.98935 v 6.39489 H 225.1783 180.99013 Z"
           id="path3065"
           transform="translate(0,332.36218)"
           inkscape:connector-curvature="0" />
        <path
           style="fill:#000000;fill-opacity:1;stroke:none"
           d="m 201.81446,200.17494 -30.81683,-30.84306 9.30864,-8.25521 C 228.16717,118.63202 282.12433,96.39925 348,91.979332 l 10.80745,-0.725124 v 43.888422 43.88843 l -7.08074,0.006 c -35.25998,0.0299 -83.49342,19.44271 -111.18143,44.748 l -7.914,7.23295 z"
           id="path3067"
           transform="translate(0,332.36218)"
           inkscape:connector-curvature="0" />
        <path
           style="fill:#000000;fill-opacity:1;stroke:none"
           d="m 540.66604,350.8323 c -0.007,-12.13031 -3.91787,-33.18376 -8.99251,-48.40623 -7.32714,-21.9793 -17.36575,-39.87594 -33.12975,-59.06302 l -8.99441,-10.94751 30.3675,-30.39463 30.3675,-30.39462 5.73033,5.56574 c 3.15169,3.06115 10.5922,11.9384 16.53448,19.72722 33.56048,43.98926 51.26187,91.57179 55.31693,148.69566 l 0.97883,13.78882 h -44.08707 -44.08706 l -0.005,-8.57143 z"
           id="path3069"
           transform="translate(0,332.36218)"
           inkscape:connector-curvature="0" />
        <path
           style="fill:#000000;fill-opacity:1;stroke:none"
           d="m 361.78882,584.79573 v -42.93098 l 16.72995,-1.86029 c 19.75146,-2.19626 38.85084,-7.29368 55.47479,-14.80563 18.68204,-8.44196 28.91844,-15.07575 48.63379,-31.5176 l 5.31058,-4.42882 30.46582,30.58563 30.46582,30.58564 -8.19876,7.49979 c -32.55479,29.7794 -73.363,51.75388 -115.52795,62.2097 -17.87425,4.43236 -39.58752,7.59354 -52.15787,7.59354 h -11.19617 z"
           id="path3071"
           transform="translate(0,332.36218)"
           inkscape:connector-curvature="0" />
        <path
           style="fill:#000000;fill-opacity:1;stroke:none"
           d="M 161.17797,539.88812 C 120.88216,495.63525 95.991915,436.60113 92.466284,376.91925 l -0.946647,-16.02484 h 43.457573 c 23.90166,0 43.45757,0.26433 43.45757,0.5874 0,0.32307 0.69711,7.53425 1.54913,16.02484 3.7792,37.66058 18.10344,71.67017 42.10031,99.95749 l 8.2357,9.70816 -30.78729,30.51315 -30.78729,30.51316 z"
           id="path3073"
           transform="translate(0,332.36218)"
           inkscape:connector-curvature="0" />
        <path
           style="fill:#000000;fill-opacity:1;stroke:none"
           d="M 543.57193,160.23886 C 526.08004,141.9335 485.53929,116.98254 455.32407,105.92638 429.92142,96.6312 396.43342,89.61422 377.26311,89.569707 c -4.82142,-0.0112 -10.27553,-0.424836 -12.12025,-0.919202 l -3.35404,-0.898847 V 44.466111 1.1805636 l 19.00621,0.9686513 c 81.37606,4.14733 160.59502,37.9089591 223.19438,95.1212461 l 8.4533,7.725839 -30.28225,30.3093 c -16.65524,16.67012 -30.99531,30.30931 -31.86682,30.30931 -0.87152,0 -3.89629,-2.41923 -6.72171,-5.37605 z"
           id="path3075"
           transform="translate(0,332.36218)"
           inkscape:connector-curvature="0" />
        <path
           style="fill:#000000;fill-opacity:1;stroke:none"
           d="m 583.48672,581.90939 -30.97291,-31.06142 4.66458,-4.41777 c 7.88003,-7.4631 23.52086,-27.6036 31.90479,-41.0834 25.78582,-41.45883 37.838,-79.48575 41.8847,-132.15425 l 0.94491,-12.29814 h 43.07466 43.07466 v 11.98422 c 0,49.22242 -18.4051,115.43146 -45.01129,161.91999 -14.32366,25.0275 -32.85569,50.43214 -51.26062,70.27064 l -7.33057,7.90155 z"
           id="path3077"
           transform="translate(0,332.36218)"
           inkscape:connector-curvature="0" />
        <path
           style="fill:#000000;fill-opacity:1;stroke:none"
           d="M 1.6430252,342.63354 C 4.7765317,291.3094 16.278802,247.30032 38.363474,202.13665 53.898753,170.36664 79.652309,133.29117 99.700122,113.83487 l 6.506168,-6.3142 30.43539,30.46258 30.4354,30.46259 -8.92726,10.13733 c -37.49002,42.57168 -59.20961,89.60606 -66.830239,144.72274 -1.279186,9.25179 -2.325792,21.15863 -2.325792,26.45963 v 9.63819 H 44.80647 0.6191506 Z"
           id="path3079"
           transform="translate(0,332.36218)"
           inkscape:connector-curvature="0" />
        <path
           style="fill:#000000;fill-opacity:1;stroke:none"
           d="M 331.97516,717.67804 C 313.074,715.85503 288.30874,711.65923 271.57743,707.44529 215.65716,693.36124 159.76747,663.18388 118.80745,624.9579 l -11.18012,-10.43387 30.63646,-30.7387 30.63646,-30.73871 9.61199,8.71947 c 39.09366,35.46367 87.40603,58.16518 141.89407,66.67467 7.98497,1.24702 19.8918,2.26731 26.45963,2.26731 h 11.94151 v 43.97516 43.97516 L 348,718.41982 c -5.9441,-0.13121 -13.15528,-0.46501 -16.02484,-0.74178 z"
           id="path3081"
           transform="translate(0,332.36218)"
           inkscape:connector-curvature="0" />
      </g>
    </g>
  </g>
  <metadata
     id="metadata31">
    <rdf:RDF>
      <cc:Work>
        <dc:format>image/svg+xml</dc:format>
        <dc:type
           rdf:resource="http://purl.org/dc/dcmitype/StillImage" />
        <cc:license
           rdf:resource="http://creativecommons.org/publicdomain/zero/1.0/" />
        <dc:publisher>
          <cc:Agent
             rdf:about="http://openclipart.org/">
            <dc:title>Open Clip Art Library</dc:title>
          </cc:Agent>
        </dc:publisher>
        <dc:title>zebra pizza</dc:title>
        <dc:date>2011-03-30T23:36:12</dc:date>
        <dc:description>I'm kinda picky and I don't like how there are still so parts of this that didn't turn out the way I planned. I used the fill tool in inkscape and it isn't perfect but it was too good to just delete\n</dc:description>
        <dc:source>http://openclipart.org/detail/129991/zebra-pizza-by-10binary</dc:source>
        <dc:creator>
          <cc:Agent>
            <dc:title>10binary</dc:title>
          </cc:Agent>
        </dc:creator>
        <dc:subject>
          <rdf:Bag>
            <rdf:li>4</rdf:li>
            <rdf:li>circle</rdf:li>
            <rdf:li>clip art</rdf:li>
            <rdf:li>clipart</rdf:li>
            <rdf:li>pizza</rdf:li>
            <rdf:li>ring</rdf:li>
            <rdf:li>zebra</rdf:li>
          </rdf:Bag>
        </dc:subject>
      </cc:Work>
      <cc:License
         rdf:about="http://creativecommons.org/publicdomain/zero/1.0/">
        <cc:permits
           rdf:resource="http://creativecommons.org/ns#Reproduction" />
        <cc:permits
           rdf:resource="http://creativecommons.org/ns#Distribution" />
        <cc:permits
           rdf:resource="http://creativecommons.org/ns#DerivativeWorks" />
      </cc:License>
    </rdf:RDF>
  </metadata>
</svg>
