<?xml version="1.0" encoding="UTF-8" standalone="no"?>
<!-- Created with Inkscape (http://www.inkscape.org/) -->

<svg
   xmlns:dc="http://purl.org/dc/elements/1.1/"
   xmlns:cc="http://creativecommons.org/ns#"
   xmlns:rdf="http://www.w3.org/1999/02/22-rdf-syntax-ns#"
   xmlns:svg="http://www.w3.org/2000/svg"
   xmlns="http://www.w3.org/2000/svg"
   xmlns:sodipodi="http://sodipodi.sourceforge.net/DTD/sodipodi-0.dtd"
   xmlns:inkscape="http://www.inkscape.org/namespaces/inkscape"
   id="svg2"
   sodipodi:version="0.32"
   inkscape:version="0.92.2 5c3e80d, 2017-08-06"
   width="180"
   height="180"
   xml:space="preserve"
   sodipodi:docname="JIRAJIRADISK.svg"
   version="1.0"
   inkscape:output_extension="org.inkscape.output.svg.inkscape"><metadata
     id="metadata7"><rdf:RDF><cc:Work
         rdf:about=""><dc:format>image/svg+xml</dc:format><dc:type
           rdf:resource="http://purl.org/dc/dcmitype/StillImage" /><dc:title /></cc:Work></rdf:RDF></metadata><defs
     id="defs5"><linearGradient
       x1="0"
       y1="0"
       x2="1"
       y2="0"
       gradientUnits="userSpaceOnUse"
       gradientTransform="matrix(142.02281,-142.02281,-142.02281,-142.02281,223.25781,497.83008)"
       spreadMethod="pad"
       id="linearGradient1215"><stop
         style="stop-opacity:0.95609754;stop-color:#ca5ab3"
         offset="0"
         id="stop1205" /><stop
         style="stop-opacity:1;stop-color:#feffff"
         offset="0.365169"
         id="stop1207" /><stop
         style="stop-opacity:1;stop-color:#feff2f"
         offset="0.36516899"
         id="stop1209" /><stop
         style="stop-opacity:1;stop-color:#6649ad"
         offset="0.82896107"
         id="stop1211" /><stop
         style="stop-opacity:1;stop-color:#3f70ff"
         offset="1"
         id="stop1213" /></linearGradient><linearGradient
       id="linearGradient1195"
       spreadMethod="pad"
       gradientTransform="matrix(142.02281,-142.02281,-142.02281,-142.02281,223.25781,497.83008)"
       gradientUnits="userSpaceOnUse"
       y2="0"
       x2="1"
       y1="0"
       x1="0"><stop
         id="stop1185"
         offset="0"
         style="stop-opacity:0.95609754;stop-color:#ca5ab3" /><stop
         id="stop1187"
         offset="0.365169"
         style="stop-opacity:1;stop-color:#feffff" /><stop
         id="stop1189"
         offset="0.36516899"
         style="stop-opacity:1;stop-color:#feff2f" /><stop
         id="stop1191"
         offset="0.5869571"
         style="stop-opacity:1;stop-color:#66b999" /><stop
         id="stop1193"
         offset="1"
         style="stop-opacity:1;stop-color:#8370ff" /></linearGradient><inkscape:perspective
       sodipodi:type="inkscape:persp3d"
       inkscape:vp_x="0 : 526.18109 : 1"
       inkscape:vp_y="0 : 1000 : 0"
       inkscape:vp_z="744.09448 : 526.18109 : 1"
       inkscape:persp3d-origin="372.04724 : 350.78739 : 1"
       id="perspective9" /><clipPath
       clipPathUnits="userSpaceOnUse"
       id="clipPath17"><path
         d="M 0,841.89 H 595.276 V 0 H 0 Z"
         id="path19"
         inkscape:connector-curvature="0" /></clipPath><linearGradient
       x1="0"
       y1="0"
       x2="1"
       y2="0"
       gradientUnits="userSpaceOnUse"
       gradientTransform="matrix(244.58781,-244.58781,-244.58781,-244.58781,175.34424,543.23828)"
       spreadMethod="pad"
       id="linearGradient35"><stop
         style="stop-opacity:1;stop-color:#7ea7d1"
         offset="0"
         id="stop37" /><stop
         style="stop-opacity:1;stop-color:#2651a5"
         offset="0.241573"
         id="stop39" /><stop
         style="stop-opacity:1;stop-color:#2651a5"
         offset="0.241573"
         id="stop41" /><stop
         style="stop-opacity:1;stop-color:#2651a5"
         offset="1"
         id="stop43" /></linearGradient><linearGradient
       x1="0"
       y1="0"
       x2="1"
       y2="0"
       gradientUnits="userSpaceOnUse"
       gradientTransform="matrix(173.90959,-173.90959,-173.90959,-173.90959,210.68359,507.89893)"
       spreadMethod="pad"
       id="linearGradient63"><stop
         style="stop-opacity:1;stop-color:#4393d7"
         offset="0"
         id="stop65" /><stop
         style="stop-opacity:1;stop-color:#6cbfea"
         offset="0.960674"
         id="stop67" /><stop
         style="stop-opacity:1;stop-color:#6cbfea"
         offset="0.960674"
         id="stop69" /><stop
         style="stop-opacity:1;stop-color:#6cbfea"
         offset="1"
         id="stop71" /></linearGradient><linearGradient
       x1="0"
       y1="0"
       x2="1"
       y2="0"
       gradientUnits="userSpaceOnUse"
       gradientTransform="matrix(142.02281,-142.02281,-142.02281,-142.02281,223.25781,497.83008)"
       spreadMethod="pad"
       id="linearGradient87"><stop
         style="stop-opacity:1;stop-color:#caedf8"
         offset="0"
         id="stop89" /><stop
         style="stop-opacity:1;stop-color:#feffff"
         offset="0.365169"
         id="stop91" /><stop
         style="stop-opacity:1;stop-color:#feffff"
         offset="0.365169"
         id="stop93" /><stop
         style="stop-opacity:1;stop-color:#caedf8"
         offset="0.775281"
         id="stop95" /><stop
         style="stop-opacity:1;stop-color:#feffff"
         offset="1"
         id="stop97" /></linearGradient></defs><sodipodi:namedview
     inkscape:window-height="774"
     inkscape:window-width="1220"
     inkscape:pageshadow="2"
     inkscape:pageopacity="0.0"
     guidetolerance="10.0"
     gridtolerance="10.0"
     objecttolerance="10.0"
     borderopacity="1.0"
     bordercolor="#666666"
     pagecolor="#ffffff"
     id="base"
     showgrid="false"
     inkscape:zoom="1.062"
     inkscape:cx="77.514124"
     inkscape:cy="121.61899"
     inkscape:window-x="86"
     inkscape:window-y="0"
     inkscape:current-layer="g11"
     inkscape:window-maximized="0"
     inkscape:pagecheckerboard="true"
     inkscape:showpageshadow="false" /><g
     id="g11"
     inkscape:label="top"
     transform="matrix(1.25,0,0,-1.25,63.301372,474.06091)"
     style="display:inline;opacity:1"><g
       id="g2140"><g
         id="g2062"><path
           style="display:inline;opacity:0.6;fill:#ffffff;stroke-width:0.4118506"
           d="m 14.946667,235.42519 c -2.07242,0.15224 -3.04138,0.2628 -5.2249797,0.59616 -0.24632,0.0376 -1.0188703,0.17176 -1.7167703,0.29808 -0.69791,0.12632 -1.43687,0.25848 -1.64214,0.29376 -1.25538,0.21544 -5.53797003,1.37064 -7.76282,2.09392 -2.37031,0.77064 -3.51354,1.19336 -5.9714,2.20832 -0.8518,0.35176 -5.80071,2.78024 -6.71782,3.29648 -3.46012,1.94784 -7.39157,4.58936 -10.44996,7.0212 -3.25892,2.59136 -8.2844,7.52248 -10.36694,10.17232 -2.81785,3.58552 -3.86146,5.0384 -5.4584,7.59912 -1.15787,1.85672 -2.68855,4.77112 -2.58875,4.92904 0.0542,0.0858 0.0283,0.11312 -0.058,0.0608 -0.40367,-0.24384 -3.86184,8.50468 -4.72357,11.94997 -0.12052,0.48185 -0.35266,1.33606 -0.51587,1.89823 -0.8177,2.81656 -1.905,9.29678 -2.03351,12.11953 l -0.0665,1.46018 0.13649,-1.24116 c 0.58519,-5.3207 1.14172,-8.3186 2.39737,-12.91395 2.00327,-7.33151 4.93986,-13.6868 9.17997,-19.8672 4.1927,-6.1112 9.86738,-11.96704 15.94215,-16.45104 1.72716,-1.2748 5.76936,-3.93168 7.11259,-4.67488 7.98917,-4.42048 15.49730997,-7.0924 23.67803,-8.42624 4.22889,-0.68952 6.01862,-0.81568 11.40394,-0.80368 5.38113,0.012 6.939137,0.13584 11.569587,0.92008 10.19671,1.72704 19.92427,5.68064 28.58808,11.61896 3.02612,2.07424 6.37329,4.83936 9.188,7.5904 8.26595,8.07896 14.04353,17.18528 17.79067,28.04067 2.99063,8.66388 4.33222,17.78827 3.91815,26.64835 -0.36955,7.90701 -2.03823,15.56976 -4.99227,22.92489 -0.9209,2.29291 -3.34204,7.20376 -4.53536,9.19915 -0.84994,1.42124 -3.24114,4.95532 -4.44591,6.57083 -3.03113,4.06462 -7.92775,9.07771 -11.77294,12.05302 -0.41055,0.31765 -0.78002,0.6153 -0.82107,0.66141 -0.33804,0.37972 -4.57677,3.27671 -6.86712,4.69337 -2.75312,1.7029 -7.24121,3.93281 -9.82496,4.88154 -0.54901,0.20159 -1.19973,0.45242 -1.44605,0.55742 -2.04336,0.87094 -6.85704,2.35357 -9.4796,2.91974 -2.62882,0.56753 -5.92426,1.13671 -7.68818,1.32788 -4.040587,0.43792 -10.438597,0.54308 -13.734217,0.22573 -8.38192,-0.80711 -16.19681,-2.7736 -22.8406,-5.74746 -0.94551,-0.42323 -4.79034,-2.30342 -5.52354,-2.70112 -3.27584,-1.77685 -7.88284,-4.80955 -10.36474,-6.82289 -5.31361,-4.3105 -9.76766,-9.04662 -13.66204,-14.52725 -1.21892,-1.71538 -1.637,-2.25961 -1.34892,-1.75593 1.11878,1.95616 5.09419,7.07449 7.59864,9.78324 1.10461,1.1947 4.05795,4.03855 5.23162,5.03762 0.56606,0.48186 1.33629,1.14709 1.71163,1.4783 0.73134,0.64536 4.15515,3.2134 5.70906,4.28211 4.02775,2.77013 10.18075,5.93241 14.82826,7.62089 0.65686,0.23864 1.29505,0.45926 1.41821,0.49027 0.12316,0.031 0.59341,0.19859 1.045,0.37242 1.29618997,0.49896 5.9522,1.7829 8.21067,2.26419 5.78345,1.23246 12.61069,1.8053 18.21278,1.52816 12.774007,-0.63197 24.946147,-4.44152 35.271797,-11.03912 2.61832,-1.67296 6.3444,-4.3787 7.99419,-5.80508 6.58867,-5.69632 11.09285,-11.03451 15.25151,-18.07539 1.41368,-2.39345 3.40776,-6.3829 4.1876,-8.37792 0.34531,-0.88341 0.7489,-1.86904 0.89686,-2.19027 0.44707,-0.97063 2.25675,-6.69313 2.51663,-7.958 0.0742,-0.36139 0.34294,-1.60986 0.59707,-2.77435 0.4239,-1.94242 1.08033,-6.2694 1.27376,-8.39606 0.21399,-2.35272 0.26476,-8.22818 0.0947,-10.95137 -0.17621,-2.82086 -0.73101,-6.9686 -1.35743,-10.14828 -1.9817,-10.05912 -7.35765,-21.83159 -13.56673,-29.70919 -2.88617,-3.66168 -3.84659,-4.72896 -7.16812,-7.9656 -3.429,-3.34128 -5.57166,-5.1268 -9.11832,-7.59848 -3.77239,-2.62896 -8.7415,-5.3932 -12.85361,-7.15024 -7.06194,-3.01752 -15.53991,-5.09696 -23.12408,-5.67176 -2.404647,-0.18224 -8.279697,-0.15256 -11.121727,0.056 z m -1.79142,3.51584 c -0.24632,0.0336 -1.42194,0.16256 -2.61249,0.28648 -6.96014,0.72416 -14.50528,2.81856 -20.97454,5.82232 -1.88065,0.8732 -4.15741,2.00744 -5.07647,2.52912 -3.99787,2.26904 -7.31636,4.55568 -11.04631,7.6116 -2.54729,2.08696 -6.79577,6.32584 -8.38743,8.3684 -0.23121,0.29672 -0.96507,1.21664 -1.6308,2.04432 -4.28538,5.32744 -8.05704,12.51635 -10.28218,19.59813 -0.43122,1.37234 -0.8326,2.72515 -0.89197,3.00624 -0.0594,0.28109 -0.19603,0.7739 -0.30367,1.09513 -0.47568,1.41961 -1.50387,6.94797 -1.79236,9.63722 -0.22408,2.08884 -0.37092,3.94771 -0.37198,4.70911 -8.7e-4,0.63085 -0.0589,0.91329 -0.18789,0.91484 -0.14373,0.002 -0.14521,0.028 -0.006,0.11424 0.23269,0.14465 0.17335,1.7134 -0.074,1.95531 -0.10158,0.0993 -0.1702,0.50013 -0.15652,0.91429 l 0.0243,0.73738 0.10062,-0.8031 c 0.11426,-0.91194 0.13601,-0.87312 0.22961,0.40963 0.0397,0.54404 0.0107,0.88656 -0.0709,0.83722 -0.0759,-0.0459 -0.1803,-0.0167 -0.23186,0.065 -0.0516,0.0816 -0.0394,0.14896 0.027,0.14965 0.0664,8e-4 0.12991,0.78983 0.14105,1.75368 0.0143,1.23771 0.0801,1.82461 0.22393,1.99805 0.11201,0.13508 0.12806,0.20131 0.0357,0.1472 -0.19049,-0.11158 -0.16125,0.35291 0.1818,2.88969 0.38468,2.84446 0.6265,4.22468 1.20797,6.89501 0.23626,1.08494 0.44773,1.74863 0.53948,1.69316 0.087,-0.0526 0.10481,-0.0182 0.042,0.0811 -0.12768,0.20208 0.37258,2.21949 0.5272,2.12602 0.0577,-0.0349 0.0736,0.0536 0.0354,0.19666 -0.0382,0.14304 0.0128,0.45524 0.11338,0.6938 0.1006,0.23854 0.19149,0.46657 0.20197,0.50672 0.0105,0.0402 0.10675,0.41783 0.21392,0.83928 0.12029,0.47307 0.25603,0.72929 0.35471,0.66963 0.10343,-0.0626 0.12302,-0.003 0.0555,0.16937 -0.13419,0.34203 0.46445,2.11821 0.71392,2.11821 0.10347,0 0.27075,0.26967 0.37169,0.59927 0.10097,0.3296 0.22379,0.70176 0.27295,0.82704 0.0585,0.14908 0.0296,0.19166 -0.0836,0.12324 -0.11491,-0.0694 -0.14148,-0.0244 -0.0792,0.13431 0.075,0.19117 0.1189,0.19997 0.21994,0.0441 0.0882,-0.1361 0.12691,-0.14176 0.1285,-0.0188 0.003,0.21066 1.20039,2.97978 1.80919,4.18303 0.45135,0.89209 0.53402,1.19534 0.28479,1.04468 -0.0862,-0.0522 -0.10862,0.0101 -0.0539,0.14965 0.0665,0.16953 0.12537,0.18875 0.20278,0.0662 0.0651,-0.10299 0.60173,0.73139 1.33047,2.06851 0.67176,1.23262 1.36573,2.47111 1.54214,2.7522 10.87145,17.32233 27.93772,28.82496 47.65902,32.1221 5.51317,0.92172 9.30576,1.1858 14.41323,1.00362 4.053157,-0.14458 7.369407,-0.53842 11.039857,-1.31112 0.78002,-0.1642 1.51898,-0.31926 1.64214,-0.34457 0.12316,-0.0253 1.02025,-0.2512 1.99353,-0.50201 6.96156,-1.79395 13.22379,-4.51694 20.03417,-8.7114 0.25082,-0.15448 1.41789,-0.97081 2.59351,-1.81406 10.17569,-7.29898 17.92629,-16.80448 22.74053,-27.8895 1.04276,-2.40102 1.2855,-3.02839 2.20336,-5.69472 1.58961,-4.6177 2.73224,-10.07301 3.30305,-15.76998 0.25631,-2.55808 0.20966,-9.16512 -0.0853,-12.0879 -0.56533,-5.60122 -1.57749,-10.7212 -2.94993,-14.9224 -1.01991,-3.12199 -2.71259,-7.44839 -3.48608,-8.91021 -0.19122,-0.3614 -0.57647,-1.1499 -0.85609,-1.75222 -0.86833,-1.8704 -2.66026,-4.90232 -4.57366,-7.73864 -5.60723,-8.31176 -13.92049,-16.06392 -22.555,-21.03264 -8.45873,-4.8676 -17.93026,-8.0152 -27.484677,-9.13392 -1.89418,-0.22176 -11.29933,-0.4212 -12.44905,-0.264 z m 9.40495,1.86304 c 0.24633,0.0408 0.85093,0.10856 1.34357,0.14976 0.78882,0.0664 1.60835,0.19 5.523537,0.8356 1.83494,0.30256 7.75707,1.85992 8.80783,2.31624 0.1642,0.0712 0.66804,0.25872 1.11963,0.41648 6.83409,2.3872 13.68549,6.16384 19.57819,10.792 1.88666,1.48176 5.30774,4.5228 6.47587,5.75648 5.59305,5.9068 8.92121,10.55328 12.20472,17.03928 1.36199,2.69035 1.89949,3.86023 2.49257,5.42514 0.25872,0.68264 0.53823,1.40275 0.62116,1.60024 0.22723,0.54119 1.39871,4.16341 1.74925,5.40864 1.1336,4.02702 2.05654,9.21874 2.41404,13.57959 0.16228,1.97977 0.21631,8.40121 0.0778,9.25406 -0.0407,0.25095 -0.10832,0.91624 -0.15013,1.47841 -0.81927,11.01149 -4.92001,22.5715 -11.21781,31.62326 -4.61754,6.63671 -9.66087,11.85504 -15.71531,16.26062 -1.34393,0.97791 -4.4256,2.99526 -5.24664,3.4346 -0.36805,0.19694 -0.89472,0.50762 -1.17038,0.6904 -0.27568,0.18278 -0.84669,0.50096 -1.26893,0.70707 -0.42223,0.20611 -1.13719,0.56336 -1.58878,0.79387 -5.359,2.7356 -9.74084,4.26345 -16.94384,5.90801 -1.93089,0.44085 -4.96221,0.8849 -7.986757,1.16996 -2.46638,0.23246 -9.62566,0.20897 -11.56959,-0.0379 -0.65685,-0.0834 -1.56376,-0.19107 -2.01534,-0.23918 -1.2315297,-0.13122 -1.81828,-0.21872 -4.10534,-0.61222 -11.35563,-1.9538 -22.13598,-6.95331 -31.51857,-14.61708 -1.9477,-1.59088 -5.76427,-5.31289 -7.67172,-7.48163 -1.40548,-1.598 -4.48656,-5.596 -5.15154,-6.68464 -0.0844,-0.13818 -0.48126,-0.74404 -0.88189,-1.34637 -1.39862,-2.1027 -3.55893,-6.05518 -4.73649,-8.66583 -1.92412,-4.26577 -3.75705,-10.11494 -4.69707,-14.98914 -1.04419,-5.41428 -1.31363,-8.13375 -1.30929,-13.21467 0.006,-7.44983 0.81598,-13.04492 2.94753,-20.36955 2.22136,-7.63338 6.31815,-15.385 11.42145,-21.61068 0.62539,-0.76296 1.17735,-1.42 1.22657,-1.46016 0.0492,-0.04 0.69621,-0.76296 1.43776,-1.60624 1.39586,-1.58728 4.09169,-4.21104 5.62908,-5.47856 0.48514,-0.39992 1.12333,-0.93096 1.41821,-1.17992 0.98339,-0.83048 4.24874,-3.20432 5.86832,-4.26624 2.85301,-1.87056 6.86595,-4.0336 9.66388,-5.20896 0.61968,-0.26024 1.429,-0.61096 1.79848,-0.77928 1.56509,-0.7128 5.62547,-2.07368 8.50924997,-2.85208 2.96198003,-0.79944 6.21393003,-1.39224 9.69743033,-1.76792 1.1117797,-0.11984 2.2565597,-0.24568 2.5439397,-0.27952 0.69649,-0.0821 9.80455,0.0128 10.3753,0.10816 z m -10.82316,1.65168 c -3.19891,0.22304 -4.85408,0.42016 -7.31497,0.8712 -6.80869,1.24784 -12.2943,3.0592 -18.28741,6.03848 -3.43716,1.70864 -6.82671,3.74208 -9.25567,5.55264 -0.49264,0.3672 -1.50031,1.11872 -2.23927,1.67008 -5.85626,4.3692 -12.32689,11.79416 -15.97129,18.32664 -1.78487,3.19939 -3.54542,6.97516 -4.25771,9.13133 -0.18571,0.56217 -0.3786,1.08784 -0.42864,1.16814 -0.05,0.0803 -0.16612,0.40885 -0.25795,0.7301 -0.0918,0.32125 -0.43652,1.50398 -0.76598,2.62833 -1.47421,5.03101 -2.15259,8.80904 -2.56948,14.3098 -0.25741,3.39657 -0.0806,9.73633 0.36444,13.06864 0.18445,1.38111 0.69465,4.3505 0.91575,5.32968 0.12695,0.56216 0.31904,1.41637 0.42689,1.89823 1.68777,7.54086 5.05568,15.26334 9.55222,21.90275 9.23196,13.63158 22.96479,23.26083 38.95264997,27.31299 1.14140003,0.28929 2.19946003,0.49423 2.35124003,0.45541 0.15176,-0.0388 0.27594,-0.0196 0.27594,0.0426 0,0.0623 0.21832,0.15095 0.48517,0.19703 0.26685,0.0461 1.19055,0.21259 2.05267,0.37004 0.86212,0.15745 2.07133,0.33236 2.68713,0.38868 0.6158003,0.0563 1.1556603,0.12358 1.1997003,0.14945 0.044,0.0258 0.6822197,0.0914 1.4182097,0.14555 0.73597,0.0542 1.38554,0.12676 1.44349,0.1613 0.27696,0.16514 8.59434,0.0345 10.64055,-0.16713 6.348627,-0.62557 12.007237,-2.0016 18.290037,-4.44765 3.01584,-1.17416 8.71341,-4.08537 10.63233,-5.43268 0.26577,-0.18661 0.59986,-0.40499 0.74241,-0.48529 2.13469,-1.20255 7.93303,-5.81164 9.76491,-7.76211 0.25501,-0.27154 1.06116,-1.10022 1.79141,-1.84152 4.52301,-4.5914 8.96551,-11.06045 11.85556,-17.26375 2.99849,-6.43605 5.17017,-14.30482 5.74265,-20.80761 0.3088,-3.50796 0.35908,-4.46893 0.35236,-6.73522 -0.0132,-4.44076 -0.57423,-9.83234 -1.41882,-13.63435 -0.1249,-0.56216 -0.35061,-1.58064 -0.5016,-2.26328 -0.35488,-1.60442 -1.60351,-5.62023 -2.43565,-7.83341 -1.2711,-3.38077 -3.16672,-7.32119 -4.87839,-10.14073 -0.49195,-0.8104 -0.89446,-1.50288 -0.89446,-1.5388 0,-0.036 -0.12661,-0.24336 -0.28134,-0.46096 -0.15473,-0.2176 -0.76998,-1.1184 -1.36719,-2.00184 -6.85728,-10.14328 -17.40883,-18.80008 -28.88025,-23.69424 -1.78323,-0.7608 -7.48575,-2.7784 -8.4536,-2.99104 -0.19482,-0.0424 -1.12677,-0.27344 -2.071,-0.51272 -2.61816,-0.6632 -4.58082,-1.03184 -7.538887,-1.41616 -3.351,-0.43536 -8.8476,-0.62928 -11.86816,-0.41864 z m 7.92145,1.87696 c 9.043827,0.82032 18.388177,3.64296 25.966247,7.84352 1.62887,0.90288 1.58661,0.87744 3.92761,2.36312 13.38282,8.49312 23.25494,21.74544 27.63695,37.09972 1.48939,5.2187 2.13406,9.08254 2.48504,14.89387 0.14269,2.36252 0.0961,6.69703 -0.0844,7.85132 -0.028,0.17914 -0.095,0.88423 -0.1488,1.56687 -0.35634,4.51841 -1.98311,11.62677 -3.60901,15.76999 -2.68652,6.84586 -5.25531,11.44063 -9.42872,16.8651 -5.26872,6.84812 -12.05431,12.59982 -19.80834,16.79027 -6.72727,3.63554 -14.4034,6.1884 -21.720967,7.22373 -1.79768,0.25433 -2.37017,0.31991 -3.83766,0.43952 -1.50082,0.12234 -10.18207,0.0916 -10.71763,-0.0379 -0.16422,-0.0397 -0.8359997,-0.11669 -1.4928497,-0.17104 C 6.998037,372.67953 1.963337,371.78913 -0.29929299,371.21697 -2.147913,370.7495 -6.426803,369.43121 -7.147543,369.10708 c -0.16421,-0.0738 -1.13829,-0.47856 -2.16463,-0.89934 -5.91016,-2.42318 -11.43295,-5.72382 -16.42135,-9.81402 -1.53482,-1.25848 -5.60891,-5.19313 -7.20671,-6.9601 -1.12794,-1.24733 -3.81945,-4.67017 -4.90353,-6.23587 -4.62865,-6.68513 -8.11163,-14.71651 -9.89715,-22.82177 -0.48833,-2.21671 -1.08906,-5.65984 -1.2101,-6.93586 -0.0533,-0.56218 -0.13101,-1.21927 -0.17262,-1.4602 -0.0416,-0.24092 -0.11975,-1.7479 -0.17361,-3.34882 -0.15463,-4.59538 0.0846,-8.82954 0.7432,-13.15125 0.33122,-2.17356 1.35206,-6.79048 1.75959,-7.958 0.0701,-0.20078 0.24819,-0.79215 0.3958,-1.31417 0.40168,-1.42057 1.72341,-4.95346 2.59485,-6.93587 1.97934,-4.50268 5.5853,-10.2998 8.53779,-13.7258 0.13842,-0.16056 0.49566,-0.58768 0.79385,-0.94912 0.94434,-1.14448 4.58103,-4.84528 5.97687,-6.08216 10.5444,-9.344 24.22263,-15.16888 38.1423203,-16.24296 2.6435197,-0.20408 7.4103197,-0.17504 10.0114397,0.0608 z m -10.0860797,1.61528 c -4.6379603,0.33008 -9.18308033,1.13648 -13.8835103,2.46328 -1.50299,0.42424 -1.32283,0.36376 -4.17998,1.40408 -6.0806,2.214 -11.86386,5.42936 -17.31705,9.62784 -4.01854,3.09392 -8.444,7.64632 -11.35465,11.68032 -0.3187,0.44168 -0.6236,0.83592 -0.67753,0.87608 -0.19836,0.14768 -2.06072,3.04272 -3.01332,4.68424 -1.08286,1.86599 -2.49174,4.71314 -3.25033,6.56849 -1.63102,3.98911 -2.83533,7.9281 -3.63565,11.89119 -0.50748,2.51301 -0.63483,3.39561 -1.09551,7.59295 -0.19226,1.75164 -0.13153,9.92448 0.0862,11.60846 0.47007,3.63489 0.77115,5.40445 1.39125,8.17703 1.37733,6.15835 3.9596,12.82064 6.8764,17.74123 0.28565,0.48186 0.67595,1.13895 0.86737,1.46018 1.19853,2.01149 5.10874,7.35252 5.58499,7.62868 0.10462,0.0606 0.21685,0.18707 0.24943,0.2809 0.23327,0.67214 5.15195,5.57747 7.67273,7.65191 5.24228,4.31405 10.99708,7.72216 17.24242,10.21131 3.67216,1.46361 9.72559997,3.15362 12.76387,3.56344 0.24632,0.0332 1.15323,0.16056 2.01534,0.28295 5.13853,0.72953 10.30118,0.83415 15.37636,0.3116 1.82368,-0.18777 4.3532,-0.56167 4.926407,-0.7282 0.12316,-0.0358 0.48117,-0.10434 0.79558,-0.15235 0.74631,-0.11396 4.01635,-0.88858 4.87724,-1.15535 2.45163,-0.75968 5.23991,-1.72617 6.34463,-2.19922 0.2463,-0.10548 1.08603,-0.46482 1.86605,-0.79855 3.56538,-1.52541 9.23971,-4.83703 12.30913,-7.18378 2.39639,-1.83217 5.74476,-4.83945 7.77282,-6.98099 6.62791,-6.99881 11.67912,-15.72933 14.31961,-24.7501 0.14104,-0.48186 0.31347,-1.04039 0.38316,-1.24116 0.53951,-1.55395 1.48496,-6.3754 1.7896,-9.12615 0.0978,-0.8834 0.23458,-2.06616 0.30387,-2.62833 0.12783,-1.03707 0.0662,-9.23567 -0.0786,-10.44031 -0.0434,-0.36139 -0.14863,-1.24846 -0.23383,-1.97124 -0.19541,-1.65816 -0.66514,-4.50785 -0.96272,-5.84075 -0.12552,-0.56217 -0.29008,-1.31781 -0.36568,-1.6792 -0.41605,-1.98859 -1.84508,-6.29523 -3.10093,-9.34518 -3.35799,-8.15524 -8.24409,-15.33114 -14.59545,-21.43554 -3.86439,-3.71408 -7.57925,-6.552 -12.0921,-9.23752 -1.61667,-0.96208 -4.86691,-2.65104 -5.9714,-3.10296 -0.49263,-0.2016 -1.36596,-0.57984 -1.94069,-0.84056 -1.79332,-0.81336 -6.63187,-2.4212 -9.13979,-3.03712 -2.828957,-0.69472 -6.074217,-1.27648 -8.774417,-1.57304 -1.83886,-0.20192 -8.54655,-0.3728 -10.1513797,-0.25856 z m 9.9538697,2.09088 c 8.139977,1.00648 16.096667,3.6436 23.440567,7.76888 7.33034,4.11768 14.30488,10.27048 19.33534,17.05728 0.51032,0.68848 1.00187,1.33592 1.09231,1.43864 0.0905,0.1028 0.80035,1.21984 1.57756,2.48232 0.77722,1.26254 1.47765,2.39406 1.55653,2.51453 0.0789,0.12047 0.71397,1.34377 1.4113,2.71845 1.28611,2.53545 2.58918,5.62728 3.37746,8.0139 0.23874,0.72279 0.53363,1.60986 0.65531,1.97126 0.24616,0.73112 1.35719,5.18762 1.49253,5.98673 0.0476,0.2811 0.11531,0.60963 0.15047,0.73011 0.17149,0.58769 0.67237,4.39862 0.82524,6.27878 0.81574,10.03354 -0.82771,20.07893 -4.77778,29.20367 -1.25617,2.90179 -3.29428,6.74329 -4.35029,8.19957 -0.15457,0.21317 -0.28104,0.4272 -0.28104,0.47563 0,0.28292 -3.21743,4.58793 -4.85532,6.49657 -7.43438,8.66337 -16.89796,14.93242 -27.71903,18.3622 -1.42025,0.45016 -2.71662,0.87027 -2.88084,0.93359 -0.16421,0.0634 -0.50011,0.15071 -0.74643,0.19421 -0.24632,0.0435 -1.32117,0.2736 -2.38855,0.51135 -5.857887,1.30472 -13.517227,1.6782 -19.780267,0.9645 -5.17581,-0.5898 -11.63057,-2.17123 -15.60028,-3.82212 -0.49264,-0.20486 -1.3959,-0.57817 -2.00724,-0.82954 -6.07416,-2.49764 -12.52421,-6.62026 -17.15292,-10.96348 -4.8541,-4.55467 -7.84281,-8.11893 -11.02538,-13.14855 -1.61662,-2.55486 -3.74843,-6.68281 -4.63763,-8.98013 -0.17098,-0.44171 -0.51348,-1.32876 -0.76109,-1.97125 -0.24763,-0.64248 -0.66013,-1.85808 -0.91664,-2.70134 -0.25653,-0.84325 -0.52504,-1.69746 -0.59668,-1.89824 -0.39943,-1.11945 -1.46798,-6.09939 -1.84852,-8.61507 -0.71576,-4.73182 -0.82113,-11.23468 -0.25788,-15.91601 0.52567,-4.36911 1.3093,-8.17309 2.40638,-11.68147 0.86089,-2.75308 0.95587,-3.01788 1.87282,-5.22211 4.53168,-10.89334 12.099,-20.0131 22.08729,-26.61838 0.90372,-0.59768 1.77704,-1.166 1.9407,-1.26288 2.89793,-1.71672 6.90495,-3.76064 8.68095,-4.42792 0.47976,-0.18024 1.47688,-0.55472 2.21584,-0.83208 1.14994,-0.43168 2.64361,-0.93024 4.47855,-1.49496 2.30344,-0.7088 6.3327,-1.51904 9.43532,-1.89736 3.35833,-0.40944 3.42274,-0.41248 7.95638,-0.36768 3.08505,0.0304 4.72408,0.11704 6.59496,0.3484 z m -13.83528,1.61856 c -2.55936,0.26512 -4.49891,0.55488 -6.41925999,0.95888 -1.30894001,0.27536 -4.97459001,1.2128 -5.37425001,1.37432 -0.16422,0.0664 -1.1383,0.39936 -2.16464,0.74 -9.25091,3.07016 -18.80767,9.402 -25.11612,16.64064 -2.338,2.68272 -3.07978,3.61776 -4.30632,5.42808 -5.61429,8.2867 -8.7257,16.7257 -9.92337,26.91499 -0.28691,2.44088 -0.40334,8.58116 -0.21321,11.2434 0.64156,8.98284 3.51847,18.52967 7.83251,25.9916 1.1112,1.92205 3.77775,5.93818 4.36507,6.57432 0.14641,0.15859 0.56547,0.68257 0.93122,1.16439 1.6032,2.11196 3.60169,4.23374 6.75646,7.17325 1.11792,1.04164 4.56746,3.82474 5.53002,4.46165 2.57165,1.70159 4.02311,2.61635 4.5895,2.89245 0.36948,0.18011 0.77255,0.41241 0.89571,0.51619 0.42388,0.35724 5.30245,2.66607 7.09104,3.35591 3.933,1.51691 7.50075,2.55509 10.97244,3.19288 5.01655,0.92161 7.29871,1.11038 12.4653,1.0311 4.10545,-0.063 4.47263,-0.083 6.56855,-0.35718 0.65685,-0.0859 1.46299,-0.19148 1.79141,-0.23451 0.32843,-0.043 1.06739,-0.17458 1.64214,-0.29233 0.57475,-0.11771 1.27267,-0.24964 1.55094,-0.29315 1.749357,-0.27352 7.958677,-2.20648 10.317207,-3.21176 11.15256,-4.75351 19.57448,-11.61355 26.49809,-21.58389 5.62455,-8.09965 9.30679,-18.75232 9.99683,-28.92072 0.0908,-1.338 0.10293,-8.67955 0.0146,-8.81939 -0.0375,-0.0594 -0.14208,-0.82633 -0.23224,-1.70413 -0.44267,-4.30996 -1.4708,-8.99404 -2.89982,-13.21135 -1.44674,-4.26959 -3.10145,-7.76574 -5.88689,-12.438 -0.98617,-1.6542 -3.85365,-5.59124 -5.18687,-7.12156 -5.14135,-5.90144 -9.82731,-9.79248 -16.48155,-13.6856 -1.0856,-0.6352 -4.91263,-2.51328 -6.41926,-3.15024 -4.54495,-1.92152 -9.358537,-3.36512 -13.211717,-3.9624 -0.24632,-0.0384 -0.9181,-0.14248 -1.49285,-0.23176 -4.50044,-0.69944 -10.2638697,-0.87296 -14.48065,-0.43608 z m 9.73399,1.676 c 2.50808,0.236 4.43028,0.51416 6.68736,0.96784 3.2866,0.66056 8.075397,2.15208 10.796257,3.36256 0.51889,0.23088 1.00508,0.41976 1.08039,0.41976 0.30543,0 5.42442,2.66392 7.30647,3.80232 5.63856,3.41048 10.70378,7.87248 15.32619,13.50088 1.23029,1.49808 3.79621,5.15018 4.61657,6.57082 0.0927,0.1606 0.43839,0.75199 0.76808,1.31416 1.80138,3.07156 3.89815,7.93658 5.0975,11.82749 1.24622,4.04287 2.03733,8.16148 2.41209,12.55757 0.16728,1.96213 0.20933,7.31142 0.0706,8.98014 -0.12658,1.52269 -0.52766,4.83415 -0.67203,5.54869 -0.073,0.3614 -0.244,1.24846 -0.37992,1.97124 -0.42357,2.25232 -1.24629,5.1456 -2.28371,8.03101 -2.28392,6.35245 -6.07541,12.84671 -10.2932,17.63071 -3.78931,4.29801 -7.69938,7.75294 -12.19897,10.77896 -0.41055,0.27608 -0.78003,0.53482 -0.82108,0.57498 -0.041,0.0402 -0.34336,0.2105 -0.67179,0.37853 -0.32841,0.16804 -1.26711,0.68081 -2.08595,1.13949 -5.36323,3.00418 -12.72601,5.66586 -17.992867,6.5045 -0.5337,0.085 -1.1383,0.18306 -1.34357,0.21797 -0.20526,0.0349 -1.01141,0.13595 -1.79142,0.22454 -0.78001,0.0886 -1.7541,0.20723 -2.16463,0.26363 -0.41054,0.0564 -2.72819,0.0984 -5.15034,0.0932 -3.60321,-0.008 -4.87888,-0.0678 -7.01639,-0.3305 -13.24539,-1.6281 -24.92795,-7.17365 -34.18844,-16.22876 -8.66761,-8.47536 -14.11541,-18.47884 -16.70013,-30.66543 -0.85798,-4.0453 -1.20622,-7.89495 -1.13594,-12.55758 0.0619,-4.1078 0.2046,-5.82481 0.76437,-9.19914 1.42807,-8.60832 4.78509,-16.82932 9.65943,-23.65502 1.03438,-1.4484 2.66942,-3.5684 2.92806,-3.7964 0.0455,-0.04 0.51578,-0.56584 1.04497,-1.16816 3.46969,-3.94928 8.73568,-8.25664 13.62306,-11.14304 1.25793,-0.74288 5.27556,-2.778 6.46363,-3.274 3.31789,-1.38536 4.84204,-1.90992 8.65501,-2.97864 2.47053,-0.69248 6.09478,-1.33944 9.25919,-1.65296 2.6622,-0.26368 7.5917,-0.26912 10.33114,-0.0112 z m -9.63903,1.5528 c -6.19492999,0.43576 -12.74379,2.02696 -18.63713,4.52832 -4.5712,1.94024 -8.12198,4.04944 -13.1108,7.78792 -2.41185,1.80744 -6.52658,5.94448 -8.97414,9.02288 -1.4378,1.8084 -3.03875,4.0414 -3.03875,4.23846 0,0.0698 -0.19062,0.40168 -0.42362,0.7374 -1.42591,2.05458 -3.42701,6.1645 -4.98945,10.24758 -1.21113,3.16497 -2.72184,9.62389 -2.87373,12.28631 -0.0236,0.41297 -0.0807,0.87293 -0.12698,1.02212 -0.26274,0.84689 -0.42082,7.71064 -0.23323,10.12752 0.15959,2.0566 0.5186,4.90909 0.827,6.57083 0.52702,2.83979 1.79684,7.55816 2.55428,9.4912 0.97043,2.47655 1.44806,3.6249 1.73095,4.16151 0.16933,0.32125 0.32442,0.67825 0.34465,0.79336 0.0684,0.38965 1.76056,3.57823 2.7173,5.12039 3.04162,4.90279 5.65572,8.15223 9.46299,11.76295 5.82795,5.52707 12.0496,9.46753 19.29934,12.22321 4.47248,1.70003 9.37494001,2.86279 14.70458,3.48762 2.47839,0.29057 9.76107,0.25275 12.39065,-0.0643 8.623717,-1.03987 16.408277,-3.75111 23.512387,-8.18895 7.58941,-4.741 14.46129,-11.78979 18.66693,-19.1475 2.01912,-3.53242 2.53435,-4.57467 3.68124,-7.44694 1.65175,-4.13658 2.42344,-6.87185 3.23942,-11.48228 2.38774,-13.49096 -0.38205,-27.73349 -7.70861,-39.63842 -3.52427,-5.72661 -8.07362,-10.89893 -13.02721,-14.81117 -0.4516,-0.35664 -0.85466,-0.68792 -0.89572,-0.73608 -0.15714,-0.18448 -2.96231,-2.15048 -4.03069,-2.82488 -0.6158,-0.38872 -1.38835,-0.88512 -1.71678,-1.10304 -0.64727,-0.4296 -3.76479,-2.09568 -4.85176,-2.59296 -4.54343,-2.07848 -7.71966,-3.18248 -12.017447,-4.17688 -5.77764,-1.33688 -11.01253,-1.78048 -16.47567,-1.39616 z m 8.69019,1.90912 c 2.79221,0.2856 3.87662,0.47392 7.03906,1.22304 8.567997,2.02936 16.456317,5.98808 23.467047,11.7768 2.95357,2.43872 7.66436,7.58096 9.67055,10.55622 0.32493,0.48185 0.70403,1.00752 0.84248,1.16814 0.13844,0.16062 0.38394,0.52202 0.54553,0.8031 0.16159,0.28108 0.67422,1.1353 1.13916,1.89824 0.93162,1.52877 2.53369,4.65362 3.14417,6.13276 0.21545,0.52202 0.45406,1.08055 0.53022,1.24116 1.54899,3.2665 3.30099,10.07457 3.90797,15.18592 0.29665,2.4983 0.25633,9.88809 -0.0678,12.41156 -0.14439,1.12433 -0.29793,2.20852 -0.3412,2.4093 -0.0433,0.20077 -0.24097,1.21924 -0.43935,2.26328 -0.47159,2.48181 -1.42945,5.90171 -2.15851,7.70648 -0.0721,0.17848 -0.28266,0.71878 -0.46794,1.20064 -0.18527,0.48186 -0.56419,1.36479 -0.84204,1.96206 -0.27787,0.59727 -0.65053,1.41863 -0.82814,1.82523 -0.33955,0.77742 -1.42373,2.86506 -1.93845,3.73266 -0.95534,1.61032 -3.41421,5.22679 -3.9018,5.73873 -0.2143,0.22499 -0.38963,0.45901 -0.38963,0.52004 0,0.061 -0.11757,0.23867 -0.26124,0.39477 -0.14369,0.15608 -0.62981,0.71057 -1.08028,1.23218 -2.71885,3.14827 -6.18689,6.35509 -9.40848,8.6998 -3.9718,2.89074 -9.11983,5.65875 -13.28488,7.14306 -0.6158,0.21946 -1.25399,0.45521 -1.41821,0.5239 -1.18141,0.4942 -7.294777,2.03452 -8.913667,2.24588 -0.1881,0.0246 -1.2489,0.16585 -2.35735,0.31398 -2.73572,0.36558 -10.01245,0.37234 -12.99733,0.0121 -5.15687,-0.62242 -9.40953,-1.67198 -14.32182,-3.53464 -8.64103,-3.27655 -16.70371,-9.17632 -22.8485,-16.71915 -2.68131,-3.29137 -4.21239,-5.62099 -6.38167,-9.71002 -2.97065,-5.59962 -5.38461,-13.98109 -5.92979,-20.58859 -0.053,-0.64247 -0.12382,-1.33241 -0.15735,-1.53318 -0.0904,-0.54135 -0.0866,-6.66736 0.005,-7.5954 0.0433,-0.44036 0.15119,-1.52345 0.2397,-2.40686 0.47883,-4.77907 2.31352,-11.84242 4.02039,-15.47795 0.0754,-0.16062 0.31497,-0.71915 0.53236,-1.24115 1.39531,-3.35054 4.47467,-8.30425 7.34008,-11.80791 3.71247,-4.53936 8.5496,-8.72312 13.68592,-11.83728 3.73654,-2.26552 7.37301,-3.94288 11.53989,-5.3228 4.75888,-1.576 8.21059001,-2.25264 14.15164,-2.77424 1.56984,-0.13784 6.61519,-0.009 8.93444,0.22816 z m -9.23301,1.38232 c -11.89413,0.786 -22.60627,4.95712 -31.57377,12.29432 -1.75717,1.43768 -5.48966,5.09328 -6.4939,6.36016 -0.24632,0.31072 -0.79174,0.97816 -1.21201,1.4832 -1.17858,1.41635 -3.33472,4.62137 -4.41493,6.56262 -3.61662,6.49948 -5.61362,12.65048 -6.56584,20.22354 -0.31024,2.46749 -0.26439,10.70381 0.0727,13.06865 1.18542,8.31487 3.73504,15.6353 7.63164,21.91198 2.09367,3.37248 2.82031,4.38204 4.87689,6.77568 3.56049,4.144 7.61139,7.70259 12.0768,10.60906 7.32289,4.76637 16.26954,7.76754 25.37845,8.51328 3.4174,0.27977 9.79239,0.031 12.91315,-0.50405 9.332207,-1.59979 17.155537,-5.03765 24.632027,-10.82425 1.65766,-1.28297 5.57721,-5.01576 7.10556,-6.76697 3.82493,-4.38271 7.00946,-9.52058 9.09571,-14.67485 5.18327,-12.80582 5.36233,-26.22695 0.52546,-39.38408 -3.55164,-9.66107 -10.33298,-18.63749 -18.74208,-24.80885 -3.8076,-2.79432 -8.57152,-5.46248 -12.61761,-7.06672 -2.534607,-1.00496 -7.951307,-2.56736 -10.073707,-2.90576 -1.89562,-0.30216 -3.66481,-0.55024 -4.83736,-0.67816 -1.40262,-0.15304 -6.46014,-0.27584 -7.77722,-0.1888 z m 8.28532,1.99752 c 0.86212,0.12888 1.8362,0.27432 2.16463,0.32312 4.01355,0.59664 8.76165,2.016 12.962587,3.87496 7.74148,3.42576 15.25377,9.21 20.27972,15.6149 0.21977,0.28009 0.65855,0.83779 0.97505,1.23934 0.87422,1.10914 1.97622,2.7428 3.0762,4.56034 4.20112,6.94165 6.74122,14.80194 7.42098,22.96412 0.594,7.13225 -0.30617,14.36386 -2.63457,21.16522 -1.01422,2.96251 -1.35727,3.76142 -2.81802,6.56234 -1.61281,3.09252 -1.89129,3.57387 -3.05032,5.27259 -2.72997,4.00111 -6.66316,8.37641 -9.78817,10.88845 -0.49265,0.396 -0.92931,0.75634 -0.97036,0.80073 -0.041,0.0444 -0.34336,0.27438 -0.67179,0.51107 -0.32842,0.23668 -0.67727,0.50402 -0.77521,0.59408 -0.0979,0.0901 -1.23997,0.85495 -2.53786,1.69973 -2.30373,1.49951 -4.50885,2.73909 -6.46509,3.63427 -0.53369,0.24423 -1.37342,0.62949 -1.86607,0.85617 -1.76283,0.81112 -6.531167,2.36201 -8.285307,2.69479 -0.28738,0.0545 -1.31544,0.25701 -2.2846,0.44997 -0.96916,0.19296 -2.17837,0.38932 -2.68713,0.43634 -0.50877,0.047 -1.46246,0.15406 -2.11931,0.23788 -2.36014,0.30115 -7.06521,0.2611 -10.70605,-0.0911 -6.94627,-0.67201 -14.47507,-3.05787 -20.33025,-6.44267 -2.54806,-1.473 -3.68198,-2.21013 -5.61318,-3.64902 -2.74179,-2.04286 -4.71281,-3.86291 -8.13824,-7.51497 -2.42284,-2.5831 -6.06702,-8.03933 -7.79868,-11.67654 -1.79828,-3.77711 -3.2111,-7.87411 -4.15419,-12.04651 -1.56304,-6.91531 -1.63602,-14.972 -0.19968,-22.04877 0.47736,-2.3519 1.94474,-7.35771 2.52539,-8.61508 0.0742,-0.16063 0.4149,-0.94912 0.75715,-1.75223 3.31645,-7.78202 8.98873,-15.01287 15.81663,-20.16263 1.51143,-1.13992 1.90435,-1.41176 3.71256,-2.568 4.93232,-3.154 10.38146,-5.42632 16.51291,-6.88608 1.87621,-0.44672 5.05769997,-0.94904 6.76634,-1.06832 0.71228,-0.0496 1.3242,-0.11576 1.35985,-0.14672 0.18837,-0.16344 8.14708,0.076 9.56408,0.28824 z m -8.2275,1.332 c -0.0366,0.036 -0.70934,0.0768 -1.49496,0.0911 -3.67527003,0.0672 -9.36866,1.2008 -13.84678,2.75752 -7.59467,2.64008 -14.75189,7.25304 -20.06045,12.9292 -6.53229,6.98464 -10.76329,15.27602 -12.62972,24.7501 -0.16612,0.84325 -0.34014,1.86173 -0.38668,2.26329 -0.0465,0.40155 -0.12259,1.02578 -0.169,1.38716 -0.46459,3.61751 -0.3842,10.41778 0.16314,13.79873 0.55869,3.45115 2.32891,9.84571 3.27425,11.8275 0.11492,0.24093 0.34134,0.76755 0.50315,1.17029 0.35714,0.88893 2.26861,4.70852 2.81223,5.61956 0.57606,0.9654 3.71944,5.57308 4.03539,5.91526 0.1491,0.16145 0.53979,0.62064 0.86822,1.02042 1.5843,1.92852 4.40314,4.69745 6.80151,6.68109 0.36451,0.30148 0.7635,0.63584 0.88667,0.74304 0.12315,0.10721 0.45653,0.35335 0.74081,0.54701 0.28428,0.19366 0.65166,0.46894 0.81641,0.61174 0.45614,0.3954 3.88805,2.59341 5.23524,3.35299 1.06935,0.6029 3.44205,1.75081 4.85177,2.34726 0.28737,0.12159 0.90181,0.38429 1.3654,0.58379 2.50084,1.07617 8.40263,2.58924 11.9956,3.07535 2.31225,0.31284 9.78732,0.43687 11.86816,0.19692 3.01363,-0.34751 5.78799,-0.81075 6.81842,-1.13849 0.26059,-0.0829 0.66366,-0.18302 0.89571,-0.22253 0.99556,-0.16949 5.07244,-1.50834 6.393297,-2.09957 0.16422,-0.0735 0.63447,-0.27677 1.045,-0.45172 3.1122,-1.32623 6.74937,-3.41575 9.55938,-5.49178 0.63272,-0.46746 1.34872,-0.99103 1.5911,-1.16351 1.86576,-1.32759 5.71627,-5.09203 7.81921,-7.6444 1.71683,-2.08375 4.08859,-5.57494 5.20794,-7.66597 1.40591,-2.62641 3.29453,-7.07623 3.87969,-9.14112 0.12285,-0.43347 0.35428,-1.24809 0.51432,-1.81026 0.55306,-1.94279 1.07996,-4.69202 1.45519,-7.59295 0.33344,-2.57787 0.33187,-8.45915 -0.003,-11.18834 -0.95508,-7.78436 -3.20841,-14.39999 -7.10597,-20.86269 -3.95001,-6.54967 -9.7401,-12.55273 -15.97614,-16.56369 -3.17504,-2.04216 -3.49113,-2.22576 -5.6593,-3.28816 -5.427107,-2.65928 -10.630807,-4.21792 -16.808087,-5.03464 -1.78666,-0.23624 -7.10038,-0.46288 -7.25715,-0.30952 z m 6.13751,1.81672 c 0.53369,0.0768 1.28952,0.17944 1.67962,0.22816 0.85346,0.10648 3.76003,0.69088 5.41142,1.088 3.44168,0.82768 8.593647,2.91264 12.260327,4.96144 1.63353,0.9128 5.95473,3.84768 6.47494,4.39768 0.041,0.0432 0.61207,0.51528 1.26893,1.04856 2.61125,2.12008 6.1254,5.88003 8.23232,8.80809 2.16769,3.01257 4.62823,7.23453 5.36119,9.19916 0.1498,0.40155 0.35419,0.86151 0.45417,1.02213 0.25501,0.40964 1.60401,4.29022 1.97964,5.69472 0.80649,3.01547 1.37583,5.87129 1.57199,7.88498 0.047,0.48187 0.12357,1.27037 0.17029,1.75223 0.0467,0.48186 0.10376,1.92744 0.12672,3.2124 0.10193,5.70761 -0.72652,10.94923 -2.60212,16.46363 -1.59634,4.69333 -3.7077,8.71945 -6.80853,12.98311 -2.22379,3.05772 -5.76154,6.77222 -8.39087,8.81006 -0.51809,0.40156 -1.02008,0.79756 -1.11553,0.88003 -0.42155,0.36417 -3.08559,2.25668 -3.83104,2.72152 -0.45159,0.2816 -1.14075,0.71282 -1.53147,0.95829 -2.84282,1.786 -8.485057,4.11055 -12.501317,5.1504 -5.9878,1.55032 -13.78028,1.9123 -20.07883999,0.93269 -6.79978001,-1.05755 -12.92458001,-3.3285 -18.80991001,-6.97435 -5.21294,-3.2293 -10.32034,-7.99411 -13.94943,-13.01374 -0.89846,-1.24271 -2.24799,-3.26645 -2.24799,-3.37107 0,-0.0486 -0.12682,-0.26272 -0.28184,-0.47589 -0.35778,-0.49206 -2.06115,-3.73804 -2.61706,-4.98716 -2.89712,-6.5098 -4.50438,-14.16448 -4.39966,-20.95364 0.10721,-6.95023 1.15814,-12.23949 3.67009,-18.47132 2.54451,-6.31254 5.96559,-11.36137 11.0844,-16.35827 2.77973,-2.71352 5.29074,-4.63928 8.96542,-6.87584 6.23205,-3.79296 14.43223,-6.39608 21.4224,-6.80048 0.73896,-0.0424 1.37673,-0.10832 1.41728,-0.14576 0.12361,-0.114 6.57833,0.0812 7.61446,0.23024 z m -10.22602,1.56296 c -4.69563,0.4916 -8.78002,1.47184 -13.13708,3.15272 -1.77732,0.68576 -5.1373,2.32288 -6.4939,3.16424 -0.53369,0.33096 -1.15254,0.70152 -1.37521,0.82352 -0.37089,0.2032 -2.78856,1.876 -3.37623,2.336 -1.74456,1.36576 -3.29522,2.67744 -4.22601,3.5748 -6.98799,6.73711 -11.90392,15.87259 -13.55623,25.19212 -0.58871,3.32045 -0.76692,5.40117 -0.75655,8.8341 0.0255,8.45061 1.64201,15.14603 5.4818,22.70464 0.53004,1.04336 1.0091,1.93042 1.06456,1.97124 0.0555,0.0409 0.29665,0.43563 0.53594,0.87733 2.14229,3.95446 6.75371,9.13352 11.44695,12.85597 2.69724,2.13931 7.02396,4.79579 9.67192,5.93825 0.4601,0.1985 1.17242,0.50978 1.58296,0.6917 2.6244,1.163 7.04843,2.42864 10.67388,3.05364 5.20543,0.89736 12.25153,0.81152 17.16907,-0.20916 0.7793,-0.16175 1.58485,-0.3276 1.79012,-0.36855 1.13485,-0.22645 3.38811,-0.87591 5.04921,-1.45535 3.594197,-1.25374 9.633847,-4.44146 12.193207,-6.43555 6.87108,-5.35353 10.98584,-10.19363 14.37167,-16.90502 2.4699,-4.89585 4.05935,-10.11056 4.744,-15.56423 0.29042,-2.31333 0.39742,-7.13241 0.20915,-9.41819 -0.73147,-8.88028 -3.62941,-16.8365 -8.84132,-24.27361 -2.13408,-3.0452 -5.29948,-6.51613 -8.17966,-8.96925 -2.06031,-1.7548 -6.72731,-5.04064 -7.58844,-5.34272 -0.13142,-0.0464 -0.41662,-0.20408 -0.63381,-0.35112 -0.56949,-0.38552 -4.353317,-2.21 -5.545357,-2.67392 -1.43168,-0.55712 -5.77677,-1.93648 -6.4686,-2.05352 -0.31844,-0.0536 -1.08281,-0.2192 -1.69861,-0.36736 -3.62922,-0.87344 -9.91163,-1.222 -14.10743,-0.78272 z m 10.44995,1.87168 c 3.67353,0.55552 7.4555,1.53688 10.44995,2.71152 1.58736,0.62264 5.028707,2.26888 6.011617,2.87568 0.43265,0.26712 0.82056,0.48568 0.862,0.48568 0.14685,0 3.36957,2.14384 4.18322,2.7828 2.66575,2.09336 3.66149,2.95496 5.26899,4.55917 4.62327,4.61373 7.64226,9.00831 10.20365,14.85285 2.03597,4.64565 3.49585,10.67077 3.7149,15.33193 0.22858,4.86444 -0.0579,8.66539 -0.98416,13.05636 -0.3887,1.84257 -1.74361,6.09036 -2.37547,7.44727 -0.19004,0.40812 -0.39407,0.89345 -0.45338,1.07853 -0.17621,0.54976 -1.77848,3.65161 -2.61697,5.06618 -3.92063,6.61437 -10.13996,12.57364 -17.3205,16.59626 -0.78002,0.43698 -1.68692,0.91585 -2.01535,1.06418 -0.32843,0.14832 -1.147487,0.52418 -1.820137,0.83526 -1.35297,0.62569 -5.39745,1.97959 -7.3438,2.45836 -7.20428,1.77213 -15.46101,1.71932 -22.80925,-0.14588 -7.0378,-1.78641 -13.27454,-5.0074 -18.7645,-9.69099 -4.30311,-3.67107 -8.39416,-8.68322 -10.68314,-13.08843 -0.35471,-0.68264 -0.69509,-1.30687 -0.75642,-1.38718 -0.0613,-0.0803 -0.48038,-0.96738 -0.93125,-1.97125 -5.86655,-13.06199 -5.51147,-28.07351 0.9602,-40.5931 1.16796,-2.25945 1.35458,-2.57562 2.70664,-4.58536 4.43112,-6.58654 10.50565,-11.85808 17.86578,-15.50408 1.89352,-0.938 4.73967,-2.04912 6.86712,-2.68088 0.86212,-0.256 1.73543,-0.5236 1.9407,-0.59464 0.38687,-0.134 3.50036,-0.73416 5.26301001,-1.01448 0.55463,-0.0882 1.59588996,-0.19896 2.31391999,-0.24608 0.71805,-0.0472 1.33099,-0.1084 1.36212,-0.13616 0.0311,-0.028 1.47545,-0.0272 3.20963,0 2.45911,0.04 3.7115503,0.13608 5.69088,0.43536 z m -9.04043,1.15896 c -0.0458,0.0488 -0.4489,0.0953 -0.89571,0.10416 -0.75316003,0.0152 -2.80957,0.2136 -3.49951,0.33792 -0.16422,0.0296 -0.63446,0.10152 -1.045,0.15992 -0.41053,0.0584 -1.38461,0.26824 -2.16463,0.46632 -0.78001,0.19808 -1.68692,0.41832 -2.01535,0.48936 -2.54211,0.55024 -8.38496,3.03768 -10.97244,4.67136 -0.12316,0.0776 -0.42547,0.24904 -0.67178,0.38064 -2.33168,1.24584 -6.48621,4.64338 -9.05398,7.40438 -8.05934,8.66577 -12.20609,19.69625 -11.86678,31.566 0.10586,3.70295 0.51823,7.05536 1.14953,9.34517 0.0885,0.32124 0.19809,0.74834 0.24342,0.94912 0.42326,1.87497 1.8576,5.80616 3.01012,8.25004 5.30158,11.24173 15.48318,20.08421 27.29463,23.7047 3.4014,1.0426 5.98158,1.56365 9.50641,1.9197 2.41661,0.24412 7.1917103,0.20542 9.12579,-0.0739 0.24632,-0.0356 0.81733,-0.10533 1.26892,-0.15501 1.43543,-0.15792 4.418,-0.76687 6.04605,-1.23443 8.813647,-2.53117 16.577077,-7.63562 22.422587,-14.74282 2.34672,-2.85326 4.47154,-6.2161 5.72026,-9.05315 0.33583,-0.76294 0.6989,-1.55143 0.80685,-1.75221 0.10796,-0.20078 0.53469,-1.35067 0.9483,-2.55533 1.17953,-3.43548 1.90026,-6.76556 2.33858,-10.80535 0.13823,-1.27402 0.0985,-6.21209 -0.0646,-8.03102 -0.27252,-3.03928 -1.2038,-7.53738 -2.01039,-9.71021 -0.13414,-0.3614 -0.41248,-1.14989 -0.6185,-1.75222 -0.97961,-2.86399 -3.22006,-7.1478 -5.31944,-10.1709 -3.25592,-4.68854 -8.61348,-9.77046 -13.40052,-12.7111 -4.781197,-2.93704 -9.099367,-4.74016 -14.032797,-5.8596 -2.40662,-0.54608 -2.76784,-0.61336 -4.47855,-0.83392 -1.78552,-0.23024 -7.62583,-0.46136 -7.7715,-0.3076 z m 6.7098503,1.78232 c 1.0992897,0.11968 2.6107997,0.3516 3.3589097,0.51536 0.74813,0.16384 1.52817,0.32976 1.73344,0.3688 1.19912,0.22808 5.05761,1.4664 6.79247,2.18 1.60337,0.65952 4.994427,2.4092 6.510227,3.3592 3.49665,2.19128 6.8483,5.05064 9.74862,8.31673 2.15513,2.42689 3.2121,3.83464 4.72164,6.28845 6.61573,10.75422 8.2601,23.61478 4.55426,35.61881 -2.03787,6.60104 -5.39996,12.14713 -10.50288,17.3254 -6.22531,6.31723 -14.234547,10.54748 -22.873957,12.08134 -0.85959,0.15261 -1.99952,0.32398 -2.53322,0.38081 -0.53369,0.0569 -1.1718797,0.12848 -1.4182097,0.15919 -2.4472103,0.30514 -7.3038603,0.15902 -10.5645403,-0.31785 -8.51783,-1.24574 -16.29562,-4.94122 -23.02207,-10.93854 -4.02901,-3.59227 -7.9864,-9.02769 -10.25915,-14.09076 -3.27649,-7.2992 -4.52344,-14.64813 -3.84875,-22.68269 0.42748,-5.0905 2.11137,-10.79782 4.58923,-15.55455 3.45111,-6.62505 7.96371,-11.65736 14.44256,-16.10586 1.9527,-1.3408 6.13618,-3.4824 8.50925,-4.35616 0.49264,-0.18136 1.22724,-0.45152 1.63246,-0.60024 0.40521,-0.14888 0.76673,-0.24128 0.80338,-0.20544 0.0366,0.036 0.19138,-1.6e-4 0.34387,-0.08 0.49863,-0.26104 2.70987,-0.83688 4.38597,-1.14216 4.57696,-0.83376 8.54459,-0.99368 12.8964903,-0.51992 z m -8.0447303,1.40224 c -1.79307999,0.1384 -4.21113,0.50328 -6.4939,0.97984 -1.20595,0.25176 -4.45929,1.26232 -5.22497,1.62296 -0.16422,0.0776 -0.63446,0.26744 -1.04499,0.42232 -6.29895,2.37696 -12.9443,7.4271 -17.22097,13.08707 -1.23247,1.63112 -1.66359,2.23208 -1.66359,2.31896 0,0.0371 -0.29555,0.49859 -0.65679,1.02551 -1.3104,1.91139 -3.39833,6.3789 -4.20345,8.99408 -0.43888,1.42554 -0.9827,3.54725 -1.19764,4.6726 -0.0383,0.20077 -0.134,0.69358 -0.21258,1.09514 -0.42489,2.17142 -0.54512,3.62336 -0.58037,7.00887 -0.0402,3.85713 0.26149,6.43703 1.2122,10.3673 0.52819,2.18353 1.76442,5.83498 2.29263,6.77174 0.19816,0.35144 0.3603,0.70669 0.3603,0.78944 0,0.0828 0.34255,0.81369 0.7612,1.62431 4.83594,9.36335 12.76771,16.52899 22.45262,20.28392 6.96926,2.70205 15.07973,3.50342 22.39275,2.21255 1.14949,-0.2029 2.49306,-0.47062 2.9857,-0.59494 0.49264,-0.1243 1.02482,-0.25234 1.18263,-0.28454 0.80207,-0.1636 4.03412,-1.31542 5.60984,-1.99918 8.504387,-3.6904 15.873467,-10.59628 20.166127,-18.89854 1.69387,-3.27602 2.77285,-6.19077 3.56223,-9.62281 0.78858,-3.42865 0.96954,-5.16272 0.96652,-9.26208 -0.004,-4.85859 -0.3666,-7.599 -1.55722,-11.75447 -2.72992,-9.52788 -9.09585,-18.15568 -17.60503,-23.86029 -2.591087,-1.73712 -5.656267,-3.2904 -8.795207,-4.45712 -5.63097,-2.09304 -11.76407,-2.98472 -17.48804,-2.54264 z m 7.6135303,1.7284 c 7.2115397,0.92464 13.7895697,3.60104 19.7056267,8.01768 2.0951,1.5641 5.88281,5.17985 7.28071,6.95018 1.02713,1.30078 2.72138,3.68324 2.72138,3.8268 0,0.051 0.093,0.19644 0.20657,0.32323 0.7564,0.84414 2.89083,5.0625 3.77388,7.45844 1.13012,3.06631 1.43553,4.19354 2.09675,7.73898 0.36957,1.98148 0.39505,2.39816 0.39745,6.4978 0.002,4.13776 -0.0199,4.50195 -0.40322,6.57084 -1.46304,7.89715 -4.41316,14.0142 -9.61874,19.94444 -4.20927,4.79522 -10.000137,8.73401 -16.081827,10.9384 -3.04924,1.10524 -5.44789,1.67244 -9.5560797,2.25972 -1.0955903,0.15662 -6.5469503,0.19763 -8.2106703,0.0618 -7.3665,-0.60155 -15.05408,-3.59189 -21.11235,-8.21235 -1.8155,-1.38462 -4.87559,-4.30045 -6.38355,-6.08262 -5.12053,-6.05168 -8.39563,-13.63508 -9.36468,-21.68371 -0.27344,-2.27099 -0.27234,-7.38765 0.002,-9.56421 0.53944,-4.27916 1.53456,-7.84764 3.29829,-11.82748 0.95651,-2.1584 2.59308,-4.96756 4.06967,-6.9856 0.37321,-0.51007 0.77934,-1.06894 0.9025,-1.24195 0.4137,-0.5811 3.46853,-3.89547 4.06127,-4.40631 4.15884,-3.58422 6.71545,-5.3154 10.33379,-6.9974 4.48063,-2.08296 9.76925,-3.48744 14.26766,-3.78912 1.43102,-0.0959 6.29475,0.0336 7.6135303,0.20248 z m -8.45539033,1.4604 c -1.75157997,0.18008 -4.71398997,0.6972 -6.01967997,1.0508 -0.61886,0.16752 -1.39392,0.37096 -1.72235,0.452 -0.32842,0.0811 -0.79867,0.22664 -1.04499,0.32344 -0.24632,0.0968 -0.85093,0.32016 -1.34357,0.4964 -2.49045,0.89072 -6.81534,3.2499 -9.25567,5.04889 -3.65781,2.69649 -7.40401,6.72133 -9.67611,10.39582 -3.19028,5.15939 -4.94342,10.19602 -5.75992,16.54773 -0.0774,0.60232 -0.11952,2.73785 -0.0935,4.74561 0.0696,5.37958 0.638,8.41378 2.5027,13.36067 3.18285,8.44379 9.20068,15.55441 16.98291,20.06687 1.46775,0.85105 1.97188,1.10296 4.25463,2.12604 2.96443,1.32859 6.99215,2.40644 10.97244997,2.93629 2.65497003,0.35343 7.62711003,0.23852 10.82316003,-0.25011 4.94055,-0.75536 10.74885,-2.99664 15.089967,-5.82285 4.36329,-2.84066 8.40583,-6.93774 11.19403,-11.3451 5.4271,-8.57874 7.24524,-17.91783 5.45254,-28.00769 -0.87015,-4.89749 -3.37551,-10.83315 -6.33994,-15.02049 -0.42052,-0.59399 -0.86328,-1.21918 -0.98393,-1.3893 -0.60252,-0.84959 -2.09202,-2.55225 -3.44763,-3.94102 -5.0843,-5.20872 -12.029437,-9.20352 -18.819057,-10.82448 -3.08064,-0.73552 -4.94178,-0.9632 -8.34131,-1.02048 -1.76529,-0.0296 -3.75641,0 -4.42470003,0.0712 z m 8.60468033,1.67376 c 15.3773397,2.3108 27.8309367,13.56122 31.7169867,28.65272 0.7923,3.07691 1.09485,5.61897 1.09172,9.17225 -0.006,6.07158 -1.29881,11.31513 -4.17815,16.93813 -0.87437,1.70754 -3.18299,5.31342 -3.69269,5.76773 -0.045,0.0402 -0.38037,0.43441 -0.74515,0.87611 -3.24175,3.9254 -7.3332,7.16653 -11.802057,9.34928 -5.1262,2.50381 -10.25075,3.72858 -16.19743,3.87119 -4.73687003,0.1136 -9.05622,-0.60754 -13.58493,-2.26804 -6.5465,-2.40034 -11.29499,-5.71806 -15.98922,-11.17146 -3.16348,-3.6751 -6.0555,-9.12987 -7.43197,-14.01776 -2.55609,-9.07681 -1.59483,-19.11395 2.60861,-27.23786 3.19647,-6.17777 8.14909,-11.48434 13.94547,-14.94212 4.68259,-2.79337 9.45914,-4.42881 15.00313997,-5.13705 2.02152003,-0.25816 7.09596003,-0.17768 9.25567033,0.14688 z m -7.0163903,1.18976 c -1.60582003,0.1356 -3.70377,0.37912 -4.25463,0.49384 -0.32842,0.0688 -1.00021,0.20008 -1.49285,0.29272 -3.62744,0.68208 -9.05301,2.99432 -12.46529,5.31249 -2.31011,1.56941 -5.2281,4.192 -7.16885,6.44313 -1.56591,1.81636 -3.4814,4.71909 -4.61043,6.98665 -0.93774,1.88338 -2.42531,5.80912 -2.60893,6.8851 -0.0411,0.24093 -0.14478,0.66925 -0.23035,0.95182 -0.0856,0.28256 -0.18029,0.70967 -0.21048,0.94912 -0.0302,0.23944 -0.12741,0.69818 -0.21608,1.01943 -0.0887,0.32125 -0.23611,1.30687 -0.32762,2.19027 -0.86084,8.3106 0.92038,16.30838 5.15785,23.15906 5.13321,8.2988 13.02175,14.02897 22.38161,16.25778 6.73094,1.6028 13.4739003,1.30844 20.20063,-0.88182 7.50528,-2.44377 14.092197,-7.58249 18.418457,-14.36899 4.45419,-6.98717 6.35586,-15.15336 5.42355,-23.28993 -0.38582,-3.36697 -1.43623,-7.36538 -2.60852,-9.92924 -0.98497,-2.15417 -1.78966,-3.76514 -2.12835,-4.26085 -0.22936,-0.3357 -0.41702,-0.65033 -0.41702,-0.69918 0,-0.15464 -1.74237,-2.63034 -1.99626,-2.83644 -0.13365,-0.10851 -0.24302,-0.25886 -0.24302,-0.33411 0,-0.20528 -2.01919,-2.52104 -3.21829,-3.69099 -3.45333,-3.36939 -6.244827,-5.29372 -10.709657,-7.38275 -3.52262,-1.64815 -7.27046,-2.69367 -11.21938,-3.12967 -0.9446,-0.10424 -4.72169,-0.19944 -5.45609,-0.13744 z m 3.59621,1.52816 c 5.52646,0.13 12.14333,2.30548 17.30894,5.69078 5.799497,3.80072 10.560687,9.53288 13.198277,15.88981 0.4351,1.04867 0.84404,1.85993 0.90875,1.80282 0.0647,-0.0571 0.0723,-0.0264 0.0169,0.0682 -0.0554,0.0946 0.0968,0.85028 0.33829,1.67922 0.92724,3.18289 1.46656,6.93242 1.41393,9.8302 -0.0297,1.63603 -0.19831,4.46653 -0.27349,4.59124 -0.027,0.0447 -0.0934,0.45928 -0.1476,0.92121 -0.32586,2.77668 -2.04945,7.75766 -3.74716,10.82886 -0.3664,0.66281 -0.63256,1.24893 -0.59148,1.30252 0.0411,0.0536 0.0326,0.0672 -0.0188,0.0303 -0.0514,-0.0369 -0.36279,0.3409 -0.69193,0.8396 -3.15363,4.77827 -7.24668,8.55432 -12.325927,11.37131 -2.03408,1.12812 -2.88242,1.48604 -5.6838,2.39805 -3.6574,1.19069 -7.04168,1.69168 -11.13648,1.64859 -8.00702,-0.0843 -15.12129,-2.58821 -21.3521,-7.51507 -4.48536,-3.54671 -8.33486,-8.71093 -10.49405,-14.07805 -2.16114,-5.37201 -3.00969,-11.4829 -2.35261,-16.94232 0.8139,-6.76242 3.15652,-12.32741 7.5525,-17.94121 0.88734,-1.13314 3.80849,-4.00023 5.14776,-5.05249 5.1288,-4.02965 11.42384,-6.60944 17.61708997,-7.21971 1.51539003,-0.14928 3.77101003,-0.26344 3.96299003,-0.2004 0.0449,0.0144 0.65238,0.04 1.35,0.0568 z m -4.34264,1.53559 c -2.89877,0.33812 -5.57232,0.89768 -7.61353,1.59345 -6.55726,2.23511 -11.7964,6.07043 -16.05688,11.75447 -3.17045,4.22982 -5.36106,9.90336 -6.04258,15.64999 -0.22774,1.92037 -0.1107,6.9225 0.2061,8.80809 0.63197,3.76163 1.76911,7.14562 3.48372,10.3673 0.21372,0.40155 0.49259,0.92722 0.61972,1.16815 2.07733,3.93682 7.41022,9.41422 11.33687,11.64408 4.46259,2.53422 7.1955,3.58139 11.30481,4.33168 6.24274,1.13982 12.13219,0.60052 18.13812,-1.66088 1.86207,-0.70113 3.11297,-1.32869 5.35144,-2.68485 8.108517,-4.91246 13.704477,-13.49878 15.050087,-23.09248 0.42027,-2.99636 0.28855,-8.58923 -0.25103,-10.65933 -0.0733,-0.28109 -0.17346,-0.74104 -0.22263,-1.02213 -0.39131,-2.23675 -1.56424,-5.43868 -3.02215,-8.25004 -3.32342,-6.40872 -9.006167,-11.85712 -15.443417,-14.80658 -3.46021,-1.58541 -5.41548,-2.20973 -8.7772597,-2.80247 C 7.833697,278.2895 2.569937,278.06852 1.287087,278.21814 Z m 6.75001,1.59717 c 3.43466,0.45415 6.33346,1.29256 9.2836,2.68506 5.13201,2.42236 8.09846,4.79816 12.231217,9.79579 0.0996,0.12046 0.5559,0.77754 1.01393,1.46017 1.68676,2.51383 2.82602,4.85796 3.83218,7.88501 1.19884,3.6067 1.57016,5.92458 1.57894,9.85623 0.0119,5.34927 -1.05669,9.69169 -3.57541,14.52882 -2.95504,5.67509 -7.803237,10.43962 -13.424197,13.19252 -3.82189,1.87179 -6.9128,2.75273 -11.34566,3.23362 -1.03029,0.11177 -4.7929,0.11833 -5.68568,0.01 -4.63643,-0.56299 -7.23613,-1.27767 -10.90475,-2.99785 -9.21729,-4.32188 -15.79836,-13.0354 -17.59362,-23.29445 -0.63705,-3.64037 -0.54865,-8.22845 0.22691,-11.77822 2.02925,-9.28801 7.92494,-17.0128 16.34151,-21.41136 1.98107,-1.03532 5.75525,-2.37863 7.69627,-2.73927 3.66477,-0.68091 7.27153,-0.82972 10.32476,-0.426 z m -5.48109,1.25874 c -3.9983,0.21053 -8.43779,1.41837 -11.86816,3.22894 -1.31422,0.69366 -4.02948,2.43963 -4.77711,3.07178 -3.27963,2.77308 -5.66524,5.5441 -7.25385,8.42583 -0.15496,0.28108 -0.35572,0.60962 -0.44615,0.73009 -0.30963,0.41252 -1.82354,4.02081 -2.21887,5.28854 -1.68119,5.39115 -1.76112,11.8952 -0.21047,17.12527 0.34024,1.14758 1.01849,3.0604 1.39793,3.9425 0.82478,1.91747 2.70337,5.10858 3.70335,6.29084 0.13025,0.15399 0.61371,0.73994 1.07434,1.3021 1.50205,1.83316 3.52148,3.64434 6.02831,5.40667 2.43011,1.70839 6.34883,3.46158 9.27107,4.14778 6.32755,1.48585 11.45186,1.31203 17.22853,-0.58441 4.81183,-1.57969 9.27602,-4.46171 12.416437,-8.01585 4.89175,-5.53621 7.52662,-12.03171 7.73814,-19.0761 0.1493,-4.97245 -0.96578,-9.99354 -3.22306,-14.51318 -1.35269,-2.70838 -3.95514,-6.41609 -4.34013,-6.18336 -0.0915,0.0553 -0.11461,0.0265 -0.0548,-0.0682 0.23418,-0.37063 -3.352437,-3.72013 -5.616517,-5.24523 -5.74321,-3.86855 -12.0463197,-5.6322 -18.849,-5.27401 z m 5.15034,1.5202 c 3.69635,0.43503 6.68653,1.36896 10.22602,3.19393 4.2624,2.19771 7.76446,5.34211 10.690787,9.59895 0.85443,1.24292 2.16975,3.69072 2.61529,4.86702 1.58489,4.18439 2.15496,7.02985 2.17938,10.87837 0.0439,6.9166 -2.28743,13.3187 -6.79113,18.64926 -0.59035,0.69873 -2.546037,2.58995 -3.469347,3.35497 -5.65204,4.68307 -13.2568097,6.91948 -20.99606,6.17451 -5.26116,-0.50643 -10.58432,-2.63706 -14.62647,-5.85432 -0.54362,-0.4327 -1.15857,-0.91813 -1.36655,-1.07876 -0.20799,-0.1606 -1.063,-1.01482 -1.90004,-1.89824 -2.74888,-2.90114 -5.11564,-6.8405 -6.36028,-10.58632 -1.06352,-3.20077 -1.42998,-5.5436 -1.43895,-9.19916 -0.0213,-8.70015 3.9762,-16.87264 10.93505,-22.35541 1.52562,-1.20203 3.05124,-2.1305 5.14987,-3.1342 4.862,-2.32527 10.02237,-3.21436 15.15243,-2.6106 z m -5.9714,1.4431 c -3.67946,0.46661 -7.48048,1.75649 -10.44992,3.5462 -1.35417,0.81618 -3.5748,2.47786 -3.68428,2.75694 -0.0435,0.11098 -0.13091,0.17048 -0.19415,0.13226 -0.19531,-0.11806 -2.60587,2.43846 -3.87336,4.1079 -1.70007,2.23919 -4.2394,7.36842 -3.97788,8.03501 0.0418,0.1066 0.0217,0.19382 -0.0447,0.19382 -0.20075,0 -0.78922,2.13493 -0.98608,3.57744 -0.0548,0.40155 -0.14,0.96008 -0.18935,1.24116 -0.17793,1.01366 -0.0756,5.47736 0.16236,7.08189 0.4578,3.08682 1.73727,6.82869 3.17989,9.29976 1.61134,2.76006 2.86582,4.3519 5.19933,6.59751 7.26722,6.99347 18.6087,9.23082 28.16231,5.55562 3.5715,-1.37392 6.20283,-3.02837 8.95919,-5.63309 5.230787,-4.943 8.190727,-11.86447 8.190727,-19.15298 0,-8.22486 -3.32027,-15.44349 -9.619287,-20.91334 -3.70639,-3.21851 -8.31448,-5.38365 -13.3638297,-6.27908 -1.7890603,-0.31728 -5.5455803,-0.3912 -7.4710103,-0.14702 z m 8.53568,1.6773 c 4.99157,1.05164 9.49518,3.45677 13.12151,7.00747 4.233737,4.14543 6.921507,9.61174 7.610617,15.47826 0.1747,1.4872 0.12516,5.71898 -0.0779,6.65561 -0.0522,0.24093 -0.23221,1.09514 -0.39997,1.89824 -0.58227,2.78775 -1.98602,5.96656 -3.88074,8.78801 -1.494257,2.22514 -4.482807,5.12066 -6.845697,6.63261 -3.39373,2.17156 -6.94735,3.47122 -10.9249897,3.99561 -1.1559403,0.15238 -4.8779503,0.11012 -6.3920703,-0.0726 -4.46023,-0.53821 -9.246,-2.56586 -12.71613,-5.3876 -2.02939,-1.65019 -4.42323,-4.32484 -5.76042,-6.4361 -1.06771,-1.68578 -2.27656,-4.48478 -2.99553,-6.93587 -0.85908,-2.92882 -1.08352,-7.37333 -0.54933,-10.87837 0.60112,-3.94438 2.77187,-8.74159 5.41804,-11.97351 0.92869,-1.13425 3.34484,-3.4164 4.51129,-4.26105 3.21169,-2.32567 6.49943,-3.77682 10.15137997,-4.48056 2.16245003,-0.41672 2.39632003,-0.43284 5.52354003,-0.38063 2.09678,0.035 3.1096203,0.11939 4.20642,0.35046 z m -6.52034,0.98864 c -1.34117,0.11852 -3.95611003,0.68993 -5.51127,1.20433 -8.54007,2.82477 -14.70024,10.28525 -15.98277,19.35649 -1.00318,7.09535 1.36454,14.52612 6.30153,19.7766 5.07396,5.39614 12.13474997,8.1492 19.49824,7.60251 8.15322,-0.60532 15.22975,-5.15038 19.202927,-12.33355 1.19046,-2.15224 2.35678,-5.86037 2.68765,-8.54498 0.62383,-5.06164 -0.69595,-10.97933 -3.43652,-15.40878 -1.146687,-1.85333 -1.854847,-2.74621 -3.576657,-4.50958 -3.23704,-3.31518 -7.73716,-5.73796 -12.61459,-6.79147 -1.74475,-0.37686 -4.57066,-0.52811 -6.56854,-0.35157 z m 5.4940303,1.52488 c 3.9173597,0.62553 6.8948497,1.80164 9.9903197,3.94615 4.81764,3.33762 8.054777,8.25282 9.408477,14.28562 0.25277,1.12644 0.31363,1.92235 0.32381,4.23452 0.0143,3.25913 -0.20495,4.76566 -1.06273,7.30092 -1.18868,3.51328 -2.839707,6.09926 -5.640187,8.83412 -2.14546,2.09517 -4.07739,3.37694 -6.79485,4.50814 -0.53369,0.22215 -1.1047,0.46171 -1.26892,0.53234 -0.54425,0.23408 -2.51745,0.71015 -3.95605,0.95446 -2.61592,0.44425 -6.57317,0.27406 -9.03174,-0.38845 -3.67652,-0.99069 -6.38767,-2.38458 -9.10638,-4.68185 -2.43776,-2.05984 -4.12223,-4.1852 -5.59342,-7.05742 -2.58525,-5.04718 -3.14266,-10.53386 -1.6467,-16.20882 0.45896,-1.7411 0.57227,-2.03371 1.58703,-4.09868 3.18233,-6.47576 9.33942,-10.94295 16.70017,-12.11657 1.32383,-0.21107 4.88504,-0.23708 6.0911703,-0.0445 z M 4.408447,289.5305 c -1.18636,0.13106 -4.18329003,0.89758 -5.25678999,1.3445 -2.42079001,1.00781 -4.01746001,1.98563 -5.90253001,3.61476 -2.9095,2.51444 -4.96026,5.63521 -6.18681,9.41486 -0.77466,2.3871 -0.90636,3.24324 -0.94338,6.13276 -0.0507,3.95306 0.50348,6.38093 2.23588,9.7961 1.25871,2.48134 2.18441,3.73842 4.18624,5.68478 2.43039,2.36303 4.83009,3.81034 8.08166997,4.87426 2.28359003,0.74719 4.24462003,1.05566 6.65216003,1.04642 2.7125103,-0.0104 4.02273,-0.21033 6.4775,-0.98835 6.2176,-1.97061 11.16989,-6.84454 13.274817,-13.06478 0.75699,-2.23693 1.03752,-4.04542 1.02666,-6.61834 -0.0113,-2.67004 -0.30473,-4.48697 -1.10839,-6.86285 -1.10902,-3.27853 -2.768937,-5.88673 -5.346627,-8.40098 -3.04421,-2.96932 -7.01637,-5.02875 -11.13467,-5.77299 -1.4815197,-0.26772 -4.53162,-0.36854 -6.05573,-0.20015 z m 5.61181,1.37928 c 2.64079,0.29627 5.83542,1.51712 8.35997,3.19483 4.10787,2.72994 7.23309,7.24553 8.348937,12.06329 0.33711,1.45559 0.37485,1.71643 0.47516,3.28541 0.28155,4.40414 -1.15293,9.14043 -3.867947,12.77101 -0.63267,0.84603 -3.04434,3.2673 -3.68723,3.7019 -2.40012,1.62256 -3.91666,2.39083 -6.04605,3.06297 -2.05459,0.64852 -2.84337,0.75357 -5.67283,0.75551 -2.27129,0.002 -2.92845,-0.0507 -4.24656,-0.33792 -7.56611,-1.64848 -13.36644,-7.44797 -15.10412,-15.10194 -0.45312,-1.99585 -0.5173,-5.68979 -0.13122,-7.55287 0.31193,-1.50528 0.58986,-2.51868 0.94105,-3.43142 3.26331,-8.48112 11.49876997,-13.43526 20.63084,-12.41077 z m -5.00104,1.44848 c -2.11628,0.3825 -5.45516999,1.73082 -6.79247,2.74295 -3.08868,2.33767 -4.49021,3.93247 -5.89603,6.70908 -0.96686,1.90963 -1.44803,3.37392 -1.80071,5.47985 -0.20834,1.24414 -0.19668,4.43812 0.0209,5.72184 0.17017,1.00407 0.64863,2.79561 0.88243,3.30419 0.0738,0.16063 0.28566,0.65344 0.47072,1.09515 1.03116,2.4612 2.97616,4.95447 5.2673,6.75209 2.76847997,2.17214 5.63532,3.37066 9.21048,3.85056 1.61656,0.21699 2.08915,0.2251 3.78772,0.065 2.06222,-0.19436 4.52268,-0.86355 6.20498,-1.6876 2.33199,-1.14229 4.97908,-3.31745 6.46815,-5.31496 1.46103,-1.95991 2.44387,-4.05453 3.090097,-6.58547 0.3106,-1.21652 0.35415,-1.7285 0.35388,-4.16152 -2.6e-4,-2.42583 -0.043,-2.93028 -0.3403,-4.01552 -1.045617,-3.81698 -2.582747,-6.48236 -5.188557,-8.99699 -2.80735,-2.70913 -5.94994,-4.33076 -9.5987,-4.95313 -1.4856297,-0.25341 -4.75216,-0.25634 -6.13988,-0.006 z m 6.99751,1.40959 c 2.62613,0.52686 5.39097,1.8159 7.3294,3.41716 4.81817,3.98012 7.030767,9.94642 5.95757,16.06479 -0.21173,1.20708 -0.83845,3.17126 -1.28126,4.01549 -0.10531,0.20077 -0.19189,0.4171 -0.19239,0.48073 -4.1e-4,0.0636 -0.0676,0.19504 -0.14919,0.29204 -0.0816,0.097 -0.48894,0.6848 -0.90529,1.30622 -0.69971,1.0443 -2.27397,2.74741 -3.35599,3.63063 -2.85604,2.33133 -6.94965,3.62201 -10.90051,3.43682 -2.01689,-0.0945 -3.21611,-0.3287 -5.02576,-0.98133 -5.55616,-2.00379 -9.75337,-7.06411 -10.64803,-12.8377 -1.38644,-8.94712 4.38531,-17.25343 13.07277,-18.81348 1.98428,-0.35632 4.35722,-0.36074 6.09868,-0.0114 z m -4.74984,1.17295 c -2.43951,0.40658 -5.19876,1.71022 -7.28201003,3.44045 -1.90547997,1.58258 -3.78699997,4.54364 -4.62306997,7.27558 -0.37547,1.22687 -0.40219,1.49847 -0.40219,4.08851 0,2.61228 0.024,2.85113 0.41122,4.08852 1.88615,6.02783 6.81937,10.15395 13.00729,10.87925 7.56133,0.88627 14.66324,-4.17268 16.19784,-11.53834 0.36958,-1.77391 0.39868,-4.4888 0.0654,-6.10041 -1.26367,-6.11024 -6.16403,-10.94901 -12.22329,-12.06967 -1.215,-0.22472 -3.98043,-0.25901 -5.15117,-0.0639 z m 7.47944,1.79162 c 2.22043,0.73927 3.56255,1.55098 5.21561,3.15443 0.78784,0.7642 1.6889,1.78369 2.00235,2.26554 3.49674,5.37548 2.97973,12.22037 -1.2653,16.75171 -4.62906,4.94126 -12.33692,5.64165 -17.84441,1.62148 -3.69179999,-2.69483 -5.64569,-6.55748 -5.60079,-11.07227 0.02,-2.00952 0.0651,-2.33502 0.53105,-3.82909 0.55469,-1.77879 1.56614001,-3.59759 2.76895997,-4.97914 C 4.071787,296.6043 9.7005773,295.05252 14.746327,296.73242 Z m -5.6217797,0.88823 c -3.0714803,0.63518 -5.8343803,2.45375 -7.4631703,4.9123 -5.4,8.15099 0.35879,18.86333 10.1503,18.88132 3.31098,0.006 5.9143,-1.07919 8.35997,-3.48516 1.63147,-1.60497 2.51276,-3.1369 3.16409,-5.50009 0.36585,-1.3274 0.35939,-4.37399 -0.0122,-5.75006 -0.72758,-2.6945 -2.4379,-5.25805 -4.58726,-6.87576 -1.04591,-0.7872 -2.68501,-1.60264 -3.67117,-1.82639 -0.39358,-0.0893 -1.04242,-0.25409 -1.44184,-0.36619 -0.88965,-0.24968 -3.26858,-0.24437 -4.4987397,0.01 z m 6.6531697,1.58134 c 0.53919,0.19903 1.26135,0.5021 1.60481,0.67347 0.34347,0.1714 0.62448,0.26487 0.62448,0.20773 0,-0.0571 0.084,-0.004 0.18661,0.11756 0.10263,0.12179 0.57975,0.54233 1.06025,0.93451 1.40458,1.14641 2.45954,2.63492 3.20463,4.52157 0.78434,1.98609 0.83015,5.14455 0.10271,7.0819 -0.69939,1.86264 -1.22038,2.68153 -2.56705,4.03494 -3.64354,3.66174 -9.63849,3.91874 -13.96891,0.59883 -3.55822,-2.72787 -4.9348,-7.705 -3.3059,-11.95282 1.41893,-3.70028 4.719,-6.27426 8.56984,-6.68431 1.36461,-0.1453 3.40563,0.0669 4.48853,0.46662 z m -3.98025,0.90991 c -1.8960797,0.39112 -3.26882,1.13354 -4.6938,2.5385 -1.6941,1.67029 -2.55043,3.73818 -2.54651,6.14937 0.004,2.7424 1.02752,5.06269 3.05106,6.91979 1.6036503,1.47175 4.02807,2.29575 6.51738,2.2151 1.4425,-0.0467 2.22557,-0.24711 3.80677,-0.97412 1.09899,-0.5053 3.03346,-2.45113 3.62152,-3.64278 1.2527,-2.5385 1.38029,-5.12397 0.37438,-7.58566 -1.66495,-4.07445 -5.99074,-6.47423 -10.1308,-5.6202 z m 5.06364,1.43138 c 2.00565,0.71209 3.4222,1.88277 4.33182,3.57994 0.79316,1.47989 1.04494,2.61014 0.94036,4.22148 -0.24808,3.82277 -3.10161,6.66495 -6.88805,6.86061 -3.12987,0.16175 -5.8827697,-1.39949 -7.24618,-4.1095 -2.54993,-5.06847 0.9565903,-10.84674 6.60492,-10.88396 1.00291,-0.006 1.51799,0.069 2.25713,0.33143 z m -2.51158,1.03052 c -3.05382,0.72638 -5.1437197,3.84771 -4.5569097,6.80586 0.3966597,1.99968 1.5822797,3.57512 3.3515497,4.45349 1.86862,0.9277 3.89292,0.89464 5.70238,-0.0931 2.13997,-1.1682 3.33535,-3.71488 2.89631,-6.17037 -0.6353,-3.55313 -3.97402,-5.80917 -7.39333,-4.99585 z m 4.14511,1.34178 c 0.98995,0.32993 1.95505,1.22428 2.50918,2.32525 0.39992,0.79459 0.46992,1.09617 0.46992,2.02452 0,0.88382 -0.0746,1.23861 -0.39312,1.8695 -0.49138,0.97326 -0.82926,1.54181 -0.83214,1.40019 -0.001,-0.0597 -0.2992,0.1132 -0.6622,0.38422 -1.22758,0.91652 -3.06964,1.05288 -4.50715,0.33364 -2.71908,-1.36048 -3.43341,-4.83084 -1.45879,-7.08724 0.49554,-0.56627 1.34357,-1.12064 2.07275,-1.355 0.56704,-0.18225 2.11368,-0.12432 2.80155,0.10492 z m -0.90031,1.08689 c -1.76622,0.38881 -2.79767,2.43574 -2.06871,4.10539 0.2113,0.484 1.55161,1.81462 1.69076,1.67852 0.0324,-0.0317 0.32888,0.002 0.65883,0.0742 1.8022,0.39606 3.62891,-1.38307 3.36866,-3.28092 -0.22642,-1.6511 -2.0397,-2.93159 -3.64954,-2.5772 z m 2.96201,1.59226 c 1.26568,1.23797 -0.41457,3.29629 -1.8456,2.26086 -0.70076,-0.50704 -0.87367,-1.21259 -0.4798,-1.9576 0.2873,-0.54343 0.6082,-0.72013 1.31772,-0.72565 0.43602,-0.003 0.67464,0.0966 1.00768,0.42239 z m -32.8002,18.9206 c 0.0473,0.12046 0.0209,0.21903 -0.0587,0.21903 -0.0795,0 -0.1446,-0.0986 -0.1446,-0.21903 0,-0.12047 0.0264,-0.21903 0.0587,-0.21903 0.0323,0 0.0973,0.0986 0.1446,0.21903 z m 48.463647,-50.44934 c 0,0.0803 -0.0632,0.146 -0.14048,0.146 -0.0773,0 -0.182,-0.0656 -0.23274,-0.146 -0.0507,-0.0803 0.0125,-0.146 0.14047,-0.146 0.128,0 0.23275,0.0656 0.23275,0.146 z m 32.99197,-3.64184 c 0,0.085 -0.0672,0.114 -0.14928,0.0648 -0.0821,-0.0496 -0.14928,-0.1192 -0.14928,-0.15464 0,-0.0352 0.0672,-0.064 0.14928,-0.064 0.0821,0 0.14928,0.0696 0.14928,0.15464 z M -50.257523,311.023 c -0.0331,0.26102 -0.0602,0.0474 -0.0602,-0.47455 0,-0.52203 0.0271,-0.73557 0.0602,-0.47456 0.0331,0.26101 0.0331,0.68811 0,0.94911 z m 4.03634,19.60297 c 0.0849,0.24093 0.20474,0.56948 0.26628,0.73009 0.0754,0.19686 0.0625,0.24445 -0.0395,0.14602 -0.0833,-0.0803 -0.26187,-0.47202 -0.39688,-0.87046 -0.13499,-0.39844 -0.18668,-0.66127 -0.11485,-0.58407 0.0718,0.0772 0.20007,0.33749 0.28499,0.57842 z m -4.24062,-27.74348 c 4.5e-4,0.72279 0.0261,1.00005 0.0569,0.61617 0.0308,-0.3839 0.0305,-0.97528 -8.4e-4,-1.31416 -0.0313,-0.3389 -0.0566,-0.0248 -0.0561,0.69799 z m -0.16464,3.06637 c -0.002,0.32125 0.0276,0.46986 0.0649,0.33025 0.0374,-0.13961 0.0387,-0.40244 0.003,-0.58407 -0.0357,-0.18163 -0.0663,-0.0674 -0.0679,0.25382 z m 5.49047,28.32756 c 0,0.0803 0.0651,0.2446 0.14471,0.36506 0.0796,0.12046 0.14472,0.15331 0.14472,0.073 0,-0.0803 -0.0651,-0.24458 -0.14472,-0.36504 -0.0796,-0.12046 -0.14471,-0.15332 -0.14471,-0.073 z m 0.45386,1.16816 c 0,0.0803 0.096,0.31028 0.21335,0.51107 0.11734,0.20077 0.21335,0.29933 0.21335,0.21901 0,-0.0803 -0.096,-0.31028 -0.21335,-0.51106 -0.11734,-0.20078 -0.21335,-0.29934 -0.21335,-0.21902 z m 0.8897,1.89824 c 0,0.0803 0.0651,0.24457 0.14472,0.36504 0.0796,0.12046 0.14471,0.15332 0.14471,0.073 0,-0.0803 -0.0651,-0.24458 -0.14471,-0.36504 -0.0796,-0.12046 -0.14472,-0.15332 -0.14472,-0.073 z m 1.86149,3.72347 c 0.37113,0.72278 0.70838,1.31416 0.74943,1.31416 0.041,0 -0.22902,-0.59138 -0.60014,-1.31416 -0.37112,-0.72279 -0.70837,-1.31417 -0.74942,-1.31417 -0.0411,0 0.22901,0.59138 0.60013,1.31417 z m 1.11964,2.04425 c 0.0879,0.16061 0.19339,0.29204 0.23445,0.29204 0.041,0 0.003,-0.13143 -0.0852,-0.29204 -0.0879,-0.16062 -0.19339,-0.29204 -0.23445,-0.29204 -0.0411,0 -0.003,0.13142 0.0851,0.29204 z m 0.44786,0.73009 c 0.0879,0.16062 0.19338,0.29204 0.23444,0.29204 0.041,0 0.003,-0.13142 -0.0852,-0.29204 -0.0879,-0.16062 -0.19338,-0.29203 -0.23444,-0.29203 -0.0411,0 -0.003,0.13141 0.0851,0.29203 z m 0.44785,0.7301 c 0.0879,0.16061 0.19338,0.29204 0.23445,0.29204 0.041,0 0.003,-0.13143 -0.0852,-0.29204 -0.0879,-0.16063 -0.19339,-0.29204 -0.23444,-0.29204 -0.041,0 -0.003,0.13141 0.0851,0.29204 z m 0.42203,0.67597 c 0.0843,0.15023 0.26218,0.40456 0.39532,0.56518 0.22472,0.27108 0.22559,0.25865 0.012,-0.17326 -0.12655,-0.25592 -0.30445,-0.51025 -0.39533,-0.5652 -0.11834,-0.0715 -0.12173,-0.0223 -0.012,0.17328 z"
           id="3"
           inkscape:connector-curvature="0"
           inkscape:label="3" /><g
           id="4"
           transform="matrix(0.19972251,0,0,-0.1997228,-50.541236,445.52931)"
           style="display:inline;opacity:0.5"
           inkscape:label="4"><g
             id="g863"><path
               transform="matrix(6,0,0,6,-1260,-1107.6378)"
               style="fill:none;fill-opacity:1;stroke:#000000;stroke-width:0.16666667"
               d="m 330,300 a 60,60 0 0 1 -60,60 60,60 0 0 1 -60,-60 60,60 0 0 1 60,-60 60,60 0 0 1 60,60 z"
               id="path2829"
               inkscape:connector-curvature="0" /><path
               style="color:#000000;display:inline;overflow:visible;visibility:visible;fill:none;fill-opacity:1;fill-rule:nonzero;stroke:#000000;stroke-width:1px;marker:none;enable-background:accumulate"
               d="M 105,615 615,105"
               id="path2831"
               transform="translate(0,332.36218)"
               sodipodi:nodetypes="cc"
               inkscape:connector-curvature="0" /><path
               sodipodi:nodetypes="cc"
               id="path2835"
               d="m 615,947.36218 -510,-510"
               style="color:#000000;display:inline;overflow:visible;visibility:visible;fill:none;stroke:#000000;stroke-width:1px;marker:none;enable-background:accumulate"
               inkscape:connector-curvature="0" /><path
               style="color:#000000;display:inline;overflow:visible;visibility:visible;fill:none;stroke:#000000;stroke-width:1px;marker:none;enable-background:accumulate"
               d="M 360,1052.3622 V 332.36218"
               id="path2837"
               sodipodi:nodetypes="cc"
               inkscape:connector-curvature="0" /><path
               sodipodi:nodetypes="cc"
               id="path2839"
               d="M 0,692.36218 H 720"
               style="color:#000000;display:inline;overflow:visible;visibility:visible;fill:none;stroke:#000000;stroke-width:1px;marker:none;enable-background:accumulate"
               inkscape:connector-curvature="0" /><path
               transform="matrix(1.0233049,0,0,0.98170731,-64.067729,339.67924)"
               style="fill:none;stroke:#000000;stroke-width:0.99771494"
               d="M 590.31056,359.25467 A 175.90062,183.35403 0 0 1 414.40994,542.6087 175.90062,183.35403 0 0 1 238.50932,359.25467 175.90062,183.35403 0 0 1 414.40994,175.90063 175.90062,183.35403 0 0 1 590.31056,359.25467 Z"
               id="path2878"
               inkscape:connector-curvature="0" /><path
               transform="matrix(1.5349576,0,0,1.4725612,-276.10171,163.33768)"
               style="fill:none;stroke:#000000"
               d="M 590.31056,359.25467 A 175.90062,183.35403 0 0 1 414.40994,542.6087 175.90062,183.35403 0 0 1 238.50932,359.25467 175.90062,183.35403 0 0 1 414.40994,175.90063 175.90062,183.35403 0 0 1 590.31056,359.25467 Z"
               id="path2880"
               inkscape:connector-curvature="0" /><path
               transform="matrix(0.51165247,0,0,0.49085367,147.96613,516.02071)"
               style="fill:none;stroke:#000000;stroke-width:1.99542975"
               d="M 590.31056,359.25467 A 175.90062,183.35403 0 0 1 414.40994,542.6087 175.90062,183.35403 0 0 1 238.50932,359.25467 175.90062,183.35403 0 0 1 414.40994,175.90063 175.90062,183.35403 0 0 1 590.31056,359.25467 Z"
               id="path2882"
               inkscape:connector-curvature="0" /><path
               style="fill:#000000;fill-opacity:1;stroke:none"
               d="m 328.24845,326.52625 -29.81367,-29.92631 5.96274,-5.24507 c 9.16616,-8.06295 28.05451,-16.57034 41.39451,-18.64427 6.3207,-0.98265 11.84552,-1.4333 12.2774,-1.00142 0.43187,0.43187 0.6069,19.6758 0.38895,42.7643 l -0.39627,41.97907 z"
               id="path3051"
               transform="translate(0,332.36218)"
               inkscape:connector-curvature="0" /><path
               style="fill:#000000;fill-opacity:1;stroke:none"
               d="m 393.1068,328.78785 30.54537,-30.61588 4.89945,5.64693 c 10.01225,11.53976 19.69683,36.34062 19.69683,50.44081 v 5.14402 h -42.84351 -42.84351 z"
               id="path3053"
               transform="translate(0,332.36218)"
               inkscape:connector-curvature="0" /><path
               style="fill:#000000;fill-opacity:1;stroke:none"
               d="m 361.78882,406.16394 v -43.0243 l 30.15821,30.1582 30.1582,30.15821 -5.18926,4.42004 c -11.22661,9.56245 -31.55461,18.36696 -46.80528,20.2724 l -8.32187,1.03975 z"
               id="path3055"
               transform="translate(0,332.36218)"
               inkscape:connector-curvature="0" /><path
               style="fill:#000000;fill-opacity:1;stroke:none"
               d="m 290.59217,414.93168 c -9.92962,-12.71229 -16.64636,-29.32931 -18.98021,-46.95652 l -0.93749,-7.08075 h 42.9345 42.9345 l -29.78571,29.81366 c -16.38214,16.39752 -30.23873,29.81367 -30.79243,29.81367 -0.55371,0 -2.97162,-2.51553 -5.37316,-5.59006 z"
               id="path3057"
               transform="translate(0,332.36218)"
               inkscape:connector-curvature="0" /><path
               style="fill:#000000;fill-opacity:1;stroke:none"
               d="m 418.77833,290.45265 c -8.4485,-8.99302 -31.54023,-19.07764 -48.41808,-21.14514 l -8.57143,-1.04999 v -43.34157 -43.34156 l 13.78882,0.86907 c 34.78944,2.1927 76.15117,19.8166 101.96213,43.44526 l 7.23042,6.61909 -30.54537,30.65293 c -16.79996,16.85911 -30.93768,30.65292 -31.41718,30.65292 -0.47949,0 -2.29268,-1.51245 -4.02931,-3.36101 z"
               id="path3059"
               transform="translate(0,332.36218)"
               inkscape:connector-curvature="0" /><path
               style="fill:#000000;fill-opacity:1;stroke:none"
               d="m 455.83267,454.19304 -30.40092,-30.42808 5.54275,-6.46633 c 10.47164,-12.2165 20.13405,-37.19946 20.22943,-52.30484 l 0.0259,-4.09938 h 43.98818 43.98818 l -0.85516,8.57143 c -3.60881,36.17183 -11.80966,61.61844 -27.82073,86.32562 -7.16339,11.05403 -21.47985,28.82966 -23.21938,28.82966 -0.59252,0 -14.75772,-13.69264 -31.47823,-30.42808 z"
               id="path3061"
               transform="translate(0,332.36218)"
               inkscape:connector-curvature="0" /><path
               style="fill:#000000;fill-opacity:1;stroke:none"
               d="m 329.14671,535.95104 c -31.7677,-5.79661 -65.33605,-21.99351 -86.2421,-41.61225 l -7.97257,-7.48165 30.4677,-30.37986 30.46771,-30.37986 9.68171,6.90873 c 14.41712,10.28784 32.08452,17.2676 43.8196,17.31156 9.98028,0.0374 9.43869,-2.53883 9.43869,44.89768 v 43.07032 l -9.31677,-0.16127 c -5.12422,-0.0887 -14.27901,-1.06673 -20.34397,-2.1734 z"
               id="path3063"
               transform="translate(0,332.36218)"
               inkscape:connector-curvature="0" /><path
               style="fill:#000000;fill-opacity:1;stroke:none"
               d="m 181.81954,347.85093 c 2.75759,-38.41025 17.3473,-73.75626 42.92718,-103.99822 l 8.098,-9.57392 30.79233,30.73292 30.79234,30.73291 -5.75046,7.27487 c -10.87757,13.76116 -19.31247,35.59448 -19.31247,49.98935 v 6.39489 H 225.1783 180.99013 Z"
               id="path3065"
               transform="translate(0,332.36218)"
               inkscape:connector-curvature="0" /><path
               style="fill:#000000;fill-opacity:1;stroke:none"
               d="m 201.81446,200.17494 -30.81683,-30.84306 9.30864,-8.25521 C 228.16717,118.63202 282.12433,96.39925 348,91.979332 l 10.80745,-0.725124 v 43.888422 43.88843 l -7.08074,0.006 c -35.25998,0.0299 -83.49342,19.44271 -111.18143,44.748 l -7.914,7.23295 z"
               id="path3067"
               transform="translate(0,332.36218)"
               inkscape:connector-curvature="0" /><path
               style="fill:#000000;fill-opacity:1;stroke:none"
               d="m 540.66604,350.8323 c -0.007,-12.13031 -3.91787,-33.18376 -8.99251,-48.40623 -7.32714,-21.9793 -17.36575,-39.87594 -33.12975,-59.06302 l -8.99441,-10.94751 30.3675,-30.39463 30.3675,-30.39462 5.73033,5.56574 c 3.15169,3.06115 10.5922,11.9384 16.53448,19.72722 33.56048,43.98926 51.26187,91.57179 55.31693,148.69566 l 0.97883,13.78882 h -44.08707 -44.08706 l -0.005,-8.57143 z"
               id="path3069"
               transform="translate(0,332.36218)"
               inkscape:connector-curvature="0" /><path
               style="fill:#000000;fill-opacity:1;stroke:none"
               d="m 361.78882,584.79573 v -42.93098 l 16.72995,-1.86029 c 19.75146,-2.19626 38.85084,-7.29368 55.47479,-14.80563 18.68204,-8.44196 28.91844,-15.07575 48.63379,-31.5176 l 5.31058,-4.42882 30.46582,30.58563 30.46582,30.58564 -8.19876,7.49979 c -32.55479,29.7794 -73.363,51.75388 -115.52795,62.2097 -17.87425,4.43236 -39.58752,7.59354 -52.15787,7.59354 h -11.19617 z"
               id="path3071"
               transform="translate(0,332.36218)"
               inkscape:connector-curvature="0" /><path
               style="fill:#000000;fill-opacity:1;stroke:none"
               d="M 161.17797,539.88812 C 120.88216,495.63525 95.991915,436.60113 92.466284,376.91925 l -0.946647,-16.02484 h 43.457573 c 23.90166,0 43.45757,0.26433 43.45757,0.5874 0,0.32307 0.69711,7.53425 1.54913,16.02484 3.7792,37.66058 18.10344,71.67017 42.10031,99.95749 l 8.2357,9.70816 -30.78729,30.51315 -30.78729,30.51316 z"
               id="path3073"
               transform="translate(0,332.36218)"
               inkscape:connector-curvature="0" /><path
               style="fill:#000000;fill-opacity:1;stroke:none"
               d="M 543.57193,160.23886 C 526.08004,141.9335 485.53929,116.98254 455.32407,105.92638 429.92142,96.6312 396.43342,89.61422 377.26311,89.569707 c -4.82142,-0.0112 -10.27553,-0.424836 -12.12025,-0.919202 l -3.35404,-0.898847 V 44.466111 1.1805636 l 19.00621,0.9686513 c 81.37606,4.14733 160.59502,37.9089591 223.19438,95.1212461 l 8.4533,7.725839 -30.28225,30.3093 c -16.65524,16.67012 -30.99531,30.30931 -31.86682,30.30931 -0.87152,0 -3.89629,-2.41923 -6.72171,-5.37605 z"
               id="path3075"
               transform="translate(0,332.36218)"
               inkscape:connector-curvature="0" /><path
               style="fill:#000000;fill-opacity:1;stroke:none"
               d="m 583.48672,581.90939 -30.97291,-31.06142 4.66458,-4.41777 c 7.88003,-7.4631 23.52086,-27.6036 31.90479,-41.0834 25.78582,-41.45883 37.838,-79.48575 41.8847,-132.15425 l 0.94491,-12.29814 h 43.07466 43.07466 v 11.98422 c 0,49.22242 -18.4051,115.43146 -45.01129,161.91999 -14.32366,25.0275 -32.85569,50.43214 -51.26062,70.27064 l -7.33057,7.90155 z"
               id="path3077"
               transform="translate(0,332.36218)"
               inkscape:connector-curvature="0" /><path
               style="fill:#000000;fill-opacity:1;stroke:none"
               d="M 1.6430252,342.63354 C 4.7765317,291.3094 16.278802,247.30032 38.363474,202.13665 53.898753,170.36664 79.652309,133.29117 99.700122,113.83487 l 6.506168,-6.3142 30.43539,30.46258 30.4354,30.46259 -8.92726,10.13733 c -37.49002,42.57168 -59.20961,89.60606 -66.830239,144.72274 -1.279186,9.25179 -2.325792,21.15863 -2.325792,26.45963 v 9.63819 H 44.80647 0.6191506 Z"
               id="path3079"
               transform="translate(0,332.36218)"
               inkscape:connector-curvature="0" /><path
               style="fill:#000000;fill-opacity:1;stroke:none"
               d="M 331.97516,717.67804 C 313.074,715.85503 288.30874,711.65923 271.57743,707.44529 215.65716,693.36124 159.76747,663.18388 118.80745,624.9579 l -11.18012,-10.43387 30.63646,-30.7387 30.63646,-30.73871 9.61199,8.71947 c 39.09366,35.46367 87.40603,58.16518 141.89407,66.67467 7.98497,1.24702 19.8918,2.26731 26.45963,2.26731 h 11.94151 v 43.97516 43.97516 L 348,718.41982 c -5.9441,-0.13121 -13.15528,-0.46501 -16.02484,-0.74178 z"
               id="path3081"
               transform="translate(0,332.36218)"
               inkscape:connector-curvature="0" /></g></g><g
           transform="matrix(0,-0.8,-0.8,0,258.90094,579.63155)"
           id="5"
           style="display:inline;opacity:0.5"
           inkscape:label="5"><path
             d="m 495.8855,296.8873 a 99.821106,99.821106 0 0 1 -13.37349,49.91055 L 396.06439,296.8873 Z"
             transform="matrix(0,-0.90161293,0.90161293,0,72.8011,654.02432)"
             id="path2861"
             style="fill:#ff0000;fill-opacity:1;stroke:none"
             inkscape:connector-curvature="0" /><path
             d="m 495.8855,296.8873 a 99.821106,99.821106 0 0 1 -13.37349,49.91055 L 396.06439,296.8873 Z"
             transform="matrix(0.45080647,-0.7808197,0.7808197,0.45080647,-69.885314,472.34371)"
             id="path2863"
             style="fill:#ff8000;fill-opacity:1;stroke:none"
             inkscape:connector-curvature="0" /><path
             d="m 495.8855,296.8873 a 99.821106,99.821106 0 0 1 -13.37349,49.91055 L 396.06439,296.8873 Z"
             transform="matrix(0.7808197,-0.45080647,0.45080647,0.7808197,-102.61507,243.66048)"
             id="path2865"
             style="fill:#ffff00;fill-opacity:1;stroke:none"
             inkscape:connector-curvature="0" /><path
             d="m 495.8855,296.8873 a 99.821106,99.821106 0 0 1 -13.37349,49.91055 L 396.06439,296.8873 Z"
             transform="matrix(0.90161293,0,0,0.90161293,-16.61825,29.250118)"
             id="path2867"
             style="fill:#80ff00;fill-opacity:1;stroke:none"
             inkscape:connector-curvature="0" /><path
             d="m 495.8855,296.8873 a 99.821106,99.821106 0 0 1 -13.37349,49.91055 L 396.06439,296.8873 Z"
             transform="matrix(0.7808197,0.45080647,-0.45080647,0.7808197,165.06236,-113.4363)"
             id="path2869"
             style="fill:#00ff00;fill-opacity:1;stroke:none"
             inkscape:connector-curvature="0" /><path
             d="m 495.8855,296.8873 a 99.821106,99.821106 0 0 1 -13.37349,49.91055 L 396.06439,296.8873 Z"
             transform="matrix(0.45080647,0.7808197,-0.7808197,0.45080647,393.74559,-146.16605)"
             id="path2871"
             style="fill:#00ff80;fill-opacity:1;stroke:none"
             inkscape:connector-curvature="0" /><path
             d="m 495.8855,296.8873 a 99.821106,99.821106 0 0 1 -13.37349,49.91055 L 396.06439,296.8873 Z"
             transform="matrix(0,0.90161293,-0.90161293,0,608.15596,-60.169232)"
             id="path2873"
             style="fill:#00ffff;fill-opacity:1;stroke:none"
             inkscape:connector-curvature="0" /><path
             d="m 495.8855,296.8873 a 99.821106,99.821106 0 0 1 -13.37349,49.91055 L 396.06439,296.8873 Z"
             transform="matrix(-0.45080647,0.7808197,-0.7808197,-0.45080647,750.84237,121.51138)"
             id="path2875"
             style="fill:#0080ff;fill-opacity:1;stroke:none"
             inkscape:connector-curvature="0" /><path
             d="m 495.8855,296.8873 a 99.821106,99.821106 0 0 1 -13.37349,49.91055 L 396.06439,296.8873 Z"
             transform="matrix(-0.7808197,0.45080647,-0.45080647,-0.7808197,783.57212,350.19461)"
             id="path2877"
             style="fill:#0000ff;fill-opacity:1;stroke:none"
             inkscape:connector-curvature="0" /><path
             d="m 495.8855,296.8873 a 99.821106,99.821106 0 0 1 -13.37349,49.91055 L 396.06439,296.8873 Z"
             transform="matrix(-0.90161293,0,0,-0.90161293,697.57531,564.60497)"
             id="path2879"
             style="fill:#8000ff;fill-opacity:1;stroke:none"
             inkscape:connector-curvature="0" /><path
             d="m 495.8855,296.8873 a 99.821106,99.821106 0 0 1 -13.37349,49.91055 L 396.06439,296.8873 Z"
             transform="matrix(-0.7808197,-0.45080647,0.45080647,-0.7808197,515.89469,707.29139)"
             id="path2881"
             style="fill:#ff00ff;fill-opacity:1;stroke:none"
             inkscape:connector-curvature="0" /><path
             d="m 495.8855,296.8873 a 99.821106,99.821106 0 0 1 -13.37349,49.91055 L 396.06439,296.8873 Z"
             transform="matrix(-0.45080647,-0.7808197,0.7808197,-0.45080647,287.21146,740.02114)"
             id="path2883"
             style="fill:#ff0080;fill-opacity:1;stroke:none"
             inkscape:connector-curvature="0" /></g><circle
           style="fill:#808080;fill-opacity:1;stroke:none;stroke-width:0.40000001;stroke-miterlimit:4;stroke-dasharray:none;stroke-opacity:1"
           id="path839"
           cx="21.358902"
           cy="-307.24872"
           r="8"
           transform="scale(1,-1)" /><circle
           cy="-307.24872"
           cx="21.358902"
           id="circle841"
           style="fill:#333333;fill-opacity:1;stroke:none;stroke-width:0.2;stroke-miterlimit:4;stroke-dasharray:none;stroke-opacity:1"
           r="4"
           transform="scale(1,-1)" /><g
           transform="matrix(0.92866271,0,0,-0.93311723,-12.474975,375.86129)"
           id="g825"><path
             d="m 32.122518,70.659883 c -0.875407,0 -1.5875,-0.711844 -1.5875,-1.58725 0,-0.875406 0.712093,-1.587499 1.5875,-1.587499 0.875406,0 1.5875,0.712093 1.5875,1.587499 0,0.875406 -0.712094,1.58725 -1.5875,1.58725"
             style="fill:#536c53;fill-opacity:1;fill-rule:nonzero;stroke:#6f7953;stroke-width:0.26458332;stroke-miterlimit:4;stroke-dasharray:none;stroke-opacity:0.69756099"
             id="path6833"
             inkscape:connector-curvature="0" /><path
             inkscape:connector-curvature="0"
             id="path6843"
             style="fill:#3e4837;fill-opacity:1;fill-rule:nonzero;stroke:none;stroke-width:0.28636625"
             d="m 32.317371,70.101129 h -0.389457 v -2.056992 h 0.389457 z" /><path
             inkscape:connector-curvature="0"
             id="path6845"
             style="fill:#3e4837;fill-opacity:1;fill-rule:nonzero;stroke:none;stroke-width:0.28636625"
             d="m 33.151139,69.267362 h -2.056993 v -0.389457 h 2.056993 z" /></g><g
           id="g861"
           transform="matrix(0.92866271,0,0,-0.93311723,-5.4122292,376.61276)"><path
             inkscape:connector-curvature="0"
             id="path855"
             style="fill:#536c53;fill-opacity:1;fill-rule:nonzero;stroke:#6f7953;stroke-width:0.26458332;stroke-miterlimit:4;stroke-dasharray:none;stroke-opacity:0.69756099"
             d="m 32.122518,70.659883 c -0.875407,0 -1.5875,-0.711844 -1.5875,-1.58725 0,-0.875406 0.712093,-1.587499 1.5875,-1.587499 0.875406,0 1.5875,0.712093 1.5875,1.587499 0,0.875406 -0.712094,1.58725 -1.5875,1.58725" /><path
             d="m 32.317371,70.101129 h -0.389457 v -2.056992 h 0.389457 z"
             style="fill:#3e4837;fill-opacity:1;fill-rule:nonzero;stroke:none;stroke-width:0.28636625"
             id="path857"
             inkscape:connector-curvature="0" /><path
             d="m 33.151139,69.267362 h -2.056993 v -0.389457 h 2.056993 z"
             style="fill:#3e4837;fill-opacity:1;fill-rule:nonzero;stroke:none;stroke-width:0.28636625"
             id="path859"
             inkscape:connector-curvature="0" /></g><g
           transform="matrix(0.92866271,0,0,-0.93311723,-2.733548,370.39855)"
           id="g869"><path
             d="m 32.122518,70.659883 c -0.875407,0 -1.5875,-0.711844 -1.5875,-1.58725 0,-0.875406 0.712093,-1.587499 1.5875,-1.587499 0.875406,0 1.5875,0.712093 1.5875,1.587499 0,0.875406 -0.712094,1.58725 -1.5875,1.58725"
             style="fill:#536c53;fill-opacity:1;fill-rule:nonzero;stroke:#6f7953;stroke-width:0.26458332;stroke-miterlimit:4;stroke-dasharray:none;stroke-opacity:0.69756099"
             id="path863"
             inkscape:connector-curvature="0" /><path
             inkscape:connector-curvature="0"
             id="path865"
             style="fill:#3e4837;fill-opacity:1;fill-rule:nonzero;stroke:none;stroke-width:0.28636625"
             d="m 32.317371,70.101129 h -0.389457 v -2.056992 h 0.389457 z" /><path
             inkscape:connector-curvature="0"
             id="path867"
             style="fill:#3e4837;fill-opacity:1;fill-rule:nonzero;stroke:none;stroke-width:0.28636625"
             d="m 33.151139,69.267362 h -2.056993 v -0.389457 h 2.056993 z" /></g><g
           id="g877"
           transform="matrix(0.92866271,0,0,-0.93311723,-7.8036451,366.02281)"><path
             inkscape:connector-curvature="0"
             id="path871"
             style="fill:#536c53;fill-opacity:1;fill-rule:nonzero;stroke:#6f7953;stroke-width:0.26458332;stroke-miterlimit:4;stroke-dasharray:none;stroke-opacity:0.69756099"
             d="m 32.122518,70.659883 c -0.875407,0 -1.5875,-0.711844 -1.5875,-1.58725 0,-0.875406 0.712093,-1.587499 1.5875,-1.587499 0.875406,0 1.5875,0.712093 1.5875,1.587499 0,0.875406 -0.712094,1.58725 -1.5875,1.58725" /><path
             d="m 32.317371,70.101129 h -0.389457 v -2.056992 h 0.389457 z"
             style="fill:#3e4837;fill-opacity:1;fill-rule:nonzero;stroke:none;stroke-width:0.28636625"
             id="path873"
             inkscape:connector-curvature="0" /><path
             d="m 33.151139,69.267362 h -2.056993 v -0.389457 h 2.056993 z"
             style="fill:#3e4837;fill-opacity:1;fill-rule:nonzero;stroke:none;stroke-width:0.28636625"
             id="path875"
             inkscape:connector-curvature="0" /></g><g
           transform="matrix(0.92866271,0,0,-0.93311723,-13.81512,369.41693)"
           id="g885"><path
             d="m 32.122518,70.659883 c -0.875407,0 -1.5875,-0.711844 -1.5875,-1.58725 0,-0.875406 0.712093,-1.587499 1.5875,-1.587499 0.875406,0 1.5875,0.712093 1.5875,1.587499 0,0.875406 -0.712094,1.58725 -1.5875,1.58725"
             style="fill:#536c53;fill-opacity:1;fill-rule:nonzero;stroke:#6f7953;stroke-width:0.26458332;stroke-miterlimit:4;stroke-dasharray:none;stroke-opacity:0.69756099"
             id="path879"
             inkscape:connector-curvature="0" /><path
             inkscape:connector-curvature="0"
             id="path881"
             style="fill:#3e4837;fill-opacity:1;fill-rule:nonzero;stroke:none;stroke-width:0.28636625"
             d="m 32.317371,70.101129 h -0.389457 v -2.056992 h 0.389457 z" /><path
             inkscape:connector-curvature="0"
             id="path883"
             style="fill:#3e4837;fill-opacity:1;fill-rule:nonzero;stroke:none;stroke-width:0.28636625"
             d="m 33.151139,69.267362 h -2.056993 v -0.389457 h 2.056993 z" /></g></g><g
         id="text1175"
         style="font-style:normal;font-variant:normal;font-weight:800;font-stretch:condensed;font-size:14.9333334px;line-height:1.25;font-family:Futura;-inkscape-font-specification:'Futura, Ultra-Bold Condensed';font-variant-ligatures:normal;font-variant-caps:normal;font-variant-numeric:normal;font-feature-settings:normal;text-align:start;letter-spacing:0px;word-spacing:0px;writing-mode:lr-tb;text-anchor:start;fill:#000000;fill-opacity:1;stroke:none;stroke-width:0.80000001px;stroke-linecap:butt;stroke-linejoin:miter;stroke-opacity:1"
         transform="matrix(1,0,0,-1,9.792845,138.60639)"
         aria-label="JIRA JIRA DISK"><path
           inkscape:connector-curvature="0"
           id="path1823"
           style="font-style:normal;font-variant:normal;font-weight:800;font-stretch:condensed;font-size:14.9333334px;font-family:Futura;-inkscape-font-specification:'Futura, Ultra-Bold Condensed';font-variant-ligatures:normal;font-variant-caps:normal;font-variant-numeric:normal;font-feature-settings:normal;text-align:start;writing-mode:lr-tb;text-anchor:start;stroke-width:0.80000001px"
           d="m -36.285503,-145.00693 v -3.15 q 0.517708,0.67084 1.217708,0.67084 0.933333,0 0.933333,-1.4 v -7.21146 h 3.040625 v 7.81667 q 0,0.99895 -0.175,1.59687 -0.160416,0.59063 -0.590625,1.08646 -0.83125,0.95521 -2.442708,0.95521 -0.853125,0 -1.983333,-0.36459 z" /><path
           inkscape:connector-curvature="0"
           id="path1825"
           style="font-style:normal;font-variant:normal;font-weight:800;font-stretch:condensed;font-size:14.9333334px;font-family:Futura;-inkscape-font-specification:'Futura, Ultra-Bold Condensed';font-variant-ligatures:normal;font-variant-caps:normal;font-variant-numeric:normal;font-feature-settings:normal;text-align:start;writing-mode:lr-tb;text-anchor:start;stroke-width:0.80000001px"
           d="m -26.478212,-144.83922 h -3.040625 v -11.25833 h 3.040625 z" /><path
           inkscape:connector-curvature="0"
           id="path1827"
           style="font-style:normal;font-variant:normal;font-weight:800;font-stretch:condensed;font-size:14.9333334px;font-family:Futura;-inkscape-font-specification:'Futura, Ultra-Bold Condensed';font-variant-ligatures:normal;font-variant-caps:normal;font-variant-numeric:normal;font-feature-settings:normal;text-align:start;writing-mode:lr-tb;text-anchor:start;stroke-width:0.80000001px"
           d="m -16.904254,-144.83922 h -3.288541 l -1.502084,-4.01041 q -0.02188,-0.10209 -0.08021,-0.2698 -0.05104,-0.1677 -0.13125,-0.40104 l 0.02188,0.74375 v 3.9375 h -3.026042 v -11.25833 h 3.113542 q 2.05625,0 3.077083,0.80937 1.297917,1.03542 1.297917,2.94584 0,2.04166 -1.742708,2.82187 z m -4.965625,-6.04479 h 0.204167 q 0.525,0 0.875,-0.40104 0.35,-0.40104 0.35,-1.02083 0,-1.26146 -1.319792,-1.26146 h -0.109375 z" /><path
           inkscape:connector-curvature="0"
           id="path1829"
           style="font-style:normal;font-variant:normal;font-weight:800;font-stretch:condensed;font-size:14.9333334px;font-family:Futura;-inkscape-font-specification:'Futura, Ultra-Bold Condensed';font-variant-ligatures:normal;font-variant-caps:normal;font-variant-numeric:normal;font-feature-settings:normal;text-align:start;writing-mode:lr-tb;text-anchor:start;stroke-width:0.80000001px"
           d="m -7.7896696,-144.83922 h -3.1427084 l -0.226042,-1.42916 h -2.048958 l -0.247917,1.42916 h -3.142708 l 2.705208,-11.25833 h 3.71875 z m -3.7260414,-3.84271 -0.196875,-1.3125 q -0.0073,-0.007 -0.02917,-0.19687 -0.01458,-0.16042 -0.153125,-1.26875 -0.01458,-0.12396 -0.03646,-0.33542 -0.02187,-0.21875 -0.05833,-0.54687 l -0.09479,-1.06459 q -0.01458,0.15313 -0.04375,0.34271 -0.02187,0.18959 -0.05104,0.41563 -0.05104,0.45208 -0.07292,0.62708 -0.02187,0.175 -0.02917,0.21146 l -0.211459,1.36354 -0.30625,1.76458 z" /><path
           inkscape:connector-curvature="0"
           id="path1831"
           style="font-style:normal;font-variant:normal;font-weight:800;font-stretch:condensed;font-size:14.9333334px;font-family:Futura;-inkscape-font-specification:'Futura, Ultra-Bold Condensed';font-variant-ligatures:normal;font-variant-caps:normal;font-variant-numeric:normal;font-feature-settings:normal;text-align:start;writing-mode:lr-tb;text-anchor:start;stroke-width:0.80000001px"
           d="m -3.2105026,-145.00693 v -3.15 q 0.5177083,0.67084 1.2177083,0.67084 0.9333334,0 0.9333334,-1.4 v -7.21146 h 3.040625 v 7.81667 q 0,0.99895 -0.175,1.59687 -0.1604167,0.59063 -0.590625,1.08646 -0.83125004,0.95521 -2.4427084,0.95521 -0.853125,0 -1.9833333,-0.36459 z" /><path
           inkscape:connector-curvature="0"
           id="path1833"
           style="font-style:normal;font-variant:normal;font-weight:800;font-stretch:condensed;font-size:14.9333334px;font-family:Futura;-inkscape-font-specification:'Futura, Ultra-Bold Condensed';font-variant-ligatures:normal;font-variant-caps:normal;font-variant-numeric:normal;font-feature-settings:normal;text-align:start;writing-mode:lr-tb;text-anchor:start;stroke-width:0.80000001px"
           d="m 6.5967903,-144.83922 h -3.040625 v -11.25833 h 3.040625 z" /><path
           inkscape:connector-curvature="0"
           id="path1835"
           style="font-style:normal;font-variant:normal;font-weight:800;font-stretch:condensed;font-size:14.9333334px;font-family:Futura;-inkscape-font-specification:'Futura, Ultra-Bold Condensed';font-variant-ligatures:normal;font-variant-caps:normal;font-variant-numeric:normal;font-feature-settings:normal;text-align:start;writing-mode:lr-tb;text-anchor:start;stroke-width:0.80000001px"
           d="m 16.170745,-144.83922 h -3.288542 l -1.502083,-4.01041 q -0.02187,-0.10209 -0.08021,-0.2698 -0.05104,-0.1677 -0.13125,-0.40104 l 0.02188,0.74375 v 3.9375 H 8.1644951 v -11.25833 h 3.1135419 q 2.05625,0 3.077083,0.80937 1.297917,1.03542 1.297917,2.94584 0,2.04166 -1.742709,2.82187 z m -4.965625,-6.04479 h 0.204167 q 0.525,0 0.875,-0.40104 0.35,-0.40104 0.35,-1.02083 0,-1.26146 -1.319792,-1.26146 H 11.20512 Z" /><path
           inkscape:connector-curvature="0"
           id="path1837"
           style="font-style:normal;font-variant:normal;font-weight:800;font-stretch:condensed;font-size:14.9333334px;font-family:Futura;-inkscape-font-specification:'Futura, Ultra-Bold Condensed';font-variant-ligatures:normal;font-variant-caps:normal;font-variant-numeric:normal;font-feature-settings:normal;text-align:start;writing-mode:lr-tb;text-anchor:start;stroke-width:0.80000001px"
           d="m 25.285329,-144.83922 h -3.142708 l -0.226042,-1.42916 h -2.048958 l -0.247917,1.42916 h -3.142708 l 2.705208,-11.25833 h 3.71875 z m -3.726041,-3.84271 -0.196875,-1.3125 q -0.0073,-0.007 -0.02917,-0.19687 -0.01458,-0.16042 -0.153125,-1.26875 -0.01458,-0.12396 -0.03646,-0.33542 -0.02188,-0.21875 -0.05833,-0.54687 l -0.09479,-1.06459 q -0.01458,0.15313 -0.04375,0.34271 -0.02188,0.18959 -0.05104,0.41563 -0.05104,0.45208 -0.07292,0.62708 -0.02187,0.175 -0.02917,0.21146 l -0.211459,1.36354 -0.30625,1.76458 z" /><path
           inkscape:connector-curvature="0"
           id="path1839"
           style="font-style:normal;font-variant:normal;font-weight:800;font-stretch:condensed;font-size:14.9333334px;font-family:Futura;-inkscape-font-specification:'Futura, Ultra-Bold Condensed';font-variant-ligatures:normal;font-variant-caps:normal;font-variant-numeric:normal;font-feature-settings:normal;text-align:start;writing-mode:lr-tb;text-anchor:start;stroke-width:0.80000001px"
           d="m 30.651998,-144.83922 v -11.25833 h 2.625 q 2.253125,0 3.507292,1.21042 1.647917,1.58229 1.647917,4.42604 0,2.8 -1.392709,4.32396 -1.188542,1.29791 -3.54375,1.29791 z m 3.040625,-2.71979 q 1.633333,-0.0802 1.633333,-2.81458 0,-1.34896 -0.415625,-2.12917 -0.415625,-0.7875 -1.122916,-0.7875 h -0.09479 z" /><path
           inkscape:connector-curvature="0"
           id="path1841"
           style="font-style:normal;font-variant:normal;font-weight:800;font-stretch:condensed;font-size:14.9333334px;font-family:Futura;-inkscape-font-specification:'Futura, Ultra-Bold Condensed';font-variant-ligatures:normal;font-variant-caps:normal;font-variant-numeric:normal;font-feature-settings:normal;text-align:start;writing-mode:lr-tb;text-anchor:start;stroke-width:0.80000001px"
           d="m 42.763454,-144.83922 h -3.040625 v -11.25833 h 3.040625 z" /><path
           inkscape:connector-curvature="0"
           id="path1843"
           style="font-style:normal;font-variant:normal;font-weight:800;font-stretch:condensed;font-size:14.9333334px;font-family:Futura;-inkscape-font-specification:'Futura, Ultra-Bold Condensed';font-variant-ligatures:normal;font-variant-caps:normal;font-variant-numeric:normal;font-feature-settings:normal;text-align:start;writing-mode:lr-tb;text-anchor:start;stroke-width:0.80000001px"
           d="m 44.090542,-145.1163 v -3.53646 q 0.896875,1.225 1.939583,1.225 0.39375,0 0.641667,-0.20417 0.247917,-0.21145 0.247917,-0.525 0,-0.45208 -0.539584,-0.88229 l -0.495833,-0.38646 q -0.495833,-0.37187 -0.845833,-0.73645 -0.35,-0.37188 -0.56875,-0.75834 -0.21875,-0.39375 -0.320834,-0.80937 -0.102083,-0.41563 -0.102083,-0.875 0,-0.7875 0.364583,-1.64792 0.182292,-0.40104 0.422917,-0.72917 0.240625,-0.33541 0.554167,-0.59062 0.860416,-0.72917 2.078125,-0.72917 1.086458,0 2.1875,0.57604 v 3.44167 q -0.371875,-0.57604 -0.845834,-0.90417 -0.473958,-0.33541 -0.933333,-0.33541 -0.35,0 -0.576042,0.20416 -0.233333,0.19688 -0.233333,0.47396 0,0.45209 0.619792,0.89688 l 0.48125,0.35729 q 0.9625,0.69271 1.378125,1.42187 0.422916,0.72917 0.422916,1.70625 0,1.6625 -1.013541,2.74167 -1.013542,1.07917 -2.566667,1.07917 -1.071875,0 -2.296875,-0.47396 z" /><path
           inkscape:connector-curvature="0"
           id="path1845"
           style="font-style:normal;font-variant:normal;font-weight:800;font-stretch:condensed;font-size:14.9333334px;font-family:Futura;-inkscape-font-specification:'Futura, Ultra-Bold Condensed';font-variant-ligatures:normal;font-variant-caps:normal;font-variant-numeric:normal;font-feature-settings:normal;text-align:start;writing-mode:lr-tb;text-anchor:start;stroke-width:0.80000001px"
           d="m 59.417622,-144.83922 h -3.28125 l -2.019792,-5.19166 0.08021,5.19166 h -3.040625 v -11.25833 h 3.040625 l -0.08021,4.82708 1.79375,-4.82708 h 3.208334 l -2.428125,5.43229 z" /></g></g></g></svg>