<svg xmlns="http://www.w3.org/2000/svg" width="90" height="380" viewBox="0 0 90 380">
  <title>XFXOverdrivePanel</title>
  <g id="Layer_2" data-name="Layer 2">
    <g id="svg8">
      <rect width="90" height="380" style="fill: #202020"/>
      <g>
        <path d="M44.49,117.4H50v1.35H48v5.65H46.47v-5.65h-2Z" style="fill: #f4f4e6"/>
        <path d="M56.13,122c0,1.68-1.1,2.54-2.8,2.54s-2.78-.86-2.78-2.54v-2.12c0-1.68,1.1-2.54,2.8-2.54s2.78.86,2.78,2.54Zm-1.55-2.12a1.24,1.24,0,0,0-2.48,0V122a1.24,1.24,0,0,0,2.48,0Z" style="fill: #f4f4e6"/>
        <path d="M58.78,120.25v4.15H57.23v-7h1.45l2.58,4.15V117.4h1.55v7H61.36Z" style="fill: #f4f4e6"/>
        <path d="M64,117.4h4.88v1.35H65.56v1.47h2.83v1.35H65.56V123h3.33v1.35H64Z" style="fill: #f4f4e6"/>
      </g>
      <g>
        <path d="M49,176.69c0,1.68-1.1,2.54-2.8,2.54H43.43v-7h2.8c1.68,0,2.78.86,2.78,2.54Zm-1.55-1.92a1.1,1.1,0,0,0-1.23-1.19H45v4.3h1.23a1.11,1.11,0,0,0,1.25-1.19Z" style="fill: #f4f4e6"/>
        <path d="M50.11,172.24h3a2.11,2.11,0,0,1,2.4,2.33,2.07,2.07,0,0,1-1.21,2.14l1.31,2.53h-1.8l-1.14-2.33h-1v2.33H50.11Zm1.55,3.32H53c.52,0,.85-.24.85-1s-.34-1-.85-1H51.66Z" style="fill: #f4f4e6"/>
        <path d="M56.49,172.24H58v7H56.49Z" style="fill: #f4f4e6"/>
        <path d="M58.64,172.24h1.68l1.58,5.07,1.59-5.07H65l-2.29,7h-1.8Z" style="fill: #f4f4e6"/>
        <path d="M65.62,172.24H70.5v1.35H67.17v1.47H70v1.35H67.17v1.48H70.5v1.35H65.62Z" style="fill: #f4f4e6"/>
      </g>
      <line x1="20.22" y1="149.71" x2="55.42" y2="149.71" style="fill: none;stroke: #f4f4e6;stroke-miterlimit: 10"/>
      <g>
        <path d="M53.94,229.13l-1.64,3.12-1.64-3.12v3.95H49.11v-7h1.5l1.69,3.22L54,226.08h1.5v7H53.94Z" style="fill: #f4f4e6"/>
        <path d="M56.69,226.08h1.55v7H56.69Z" style="fill: #f4f4e6"/>
        <path d="M62,230.85l-1.4,2.23H58.84l2.29-3.46-2.29-3.54h1.85l1.37,2.23,1.41-2.23h1.75l-2.29,3.46,2.29,3.54H63.37Z" style="fill: #f4f4e6"/>
      </g>
      <line x1="20.22" y1="204.32" x2="55.42" y2="204.32" style="fill: none;stroke: #f4f4e6;stroke-miterlimit: 10"/>
      <g>
        <path d="M42.71,280.92h1.55v5.65h3.33v1.35H42.71Z" style="fill: #f4f4e6"/>
        <path d="M48.39,280.92h4.88v1.35H49.94v1.47h2.83v1.35H49.94v1.48h3.33v1.35H48.39Z" style="fill: #f4f4e6"/>
        <path d="M53.68,280.92h1.68L56.93,286l1.59-5.07h1.53l-2.29,7H56Z" style="fill: #f4f4e6"/>
        <path d="M60.65,280.92h4.88v1.35H62.2v1.47H65v1.35H62.2v1.48h3.33v1.35H60.65Z" style="fill: #f4f4e6"/>
        <path d="M66.53,280.92h1.55v5.65h3.33v1.35H66.53Z" style="fill: #f4f4e6"/>
      </g>
      <line x1="20.22" y1="257.16" x2="55.42" y2="257.16" style="fill: none;stroke: #f4f4e6;stroke-miterlimit: 10"/>
      <path d="M8.33,361.5H9a5,5,0,0,1-5-5V20.5a5,5,0,0,1,5-5h.33" style="fill: none;stroke: #f4f4e6;stroke-miterlimit: 10"/>
      <path d="M80.63,15.5H81a5,5,0,0,1,5,5v336a5,5,0,0,1-5,5h-.33" style="fill: none;stroke: #f4f4e6;stroke-miterlimit: 10"/>
      <path d="M19.6,346.28h1.55v7H19.6Z" style="fill: #f4f4e6"/>
      <g>
        <path d="M63.68,302h1.55v7H63.68Z" style="fill: #f4f4e6"/>
        <path d="M68,304.88V309H66.43v-7h1.45l2.58,4.15V302H72v7H70.56Z" style="fill: #f4f4e6"/>
      </g>
      <g>
        <path d="M68.16,334.09c0,1.68-1.1,2.54-2.8,2.54s-2.78-.86-2.78-2.54V332c0-1.68,1.1-2.54,2.8-2.54s2.78.86,2.78,2.54ZM66.61,332a1.24,1.24,0,0,0-2.48,0v2.12a1.24,1.24,0,0,0,2.48,0Z" style="fill: #f4f4e6"/>
        <path d="M74.79,329.53v4.56c0,1.68-1.1,2.54-2.8,2.54s-2.78-.86-2.78-2.54v-4.56h1.55v4.56a1.24,1.24,0,0,0,2.48,0v-4.56Z" style="fill: #f4f4e6"/>
        <path d="M75.39,329.53H80.9v1.35h-2v5.65H77.37v-5.65h-2Z" style="fill: #f4f4e6"/>
      </g>
      <g>
        <path d="M45.8,346.28h1.55v7H45.8Z" style="fill: #f4f4e6"/>
        <path d="M48.55,346.28H50.1v7H48.55Z" style="fill: #f4f4e6"/>
      </g>
      <g>
        <path d="M26.71,36.67h4.88V38H28.26v1.47h2.83v1.35H28.26v1.48h3.33v1.35H26.71Z" style="fill: #f4f4e6"/>
        <path d="M34.14,39.52v4.15H32.59v-7H34l2.58,4.15V36.67h1.55v7H36.72Z" style="fill: #f4f4e6"/>
        <path d="M45.25,43.67H43.57l-.45-1.48H40.75l-.45,1.48H38.77l2.29-7H43Zm-4.09-2.83H42.7l-.77-2.52Z" style="fill: #f4f4e6"/>
        <path d="M45.85,36.67h3.24a1.79,1.79,0,0,1,2,1.86,1.7,1.7,0,0,1-.89,1.62,1.68,1.68,0,0,1,1,1.66,1.79,1.79,0,0,1-2,1.86H45.85Zm1.55,2.82h1.42c.5,0,.71-.26.71-.74s-.22-.73-.71-.73H47.4Zm0,2.83h1.52c.49,0,.71-.25.71-.73s-.21-.75-.71-.75H47.4Z" style="fill: #f4f4e6"/>
        <path d="M52.23,36.67h1.55v5.65h3.33v1.35H52.23Z" style="fill: #f4f4e6"/>
        <path d="M57.91,36.67h4.88V38H59.46v1.47h2.83v1.35H59.46v1.48h3.33v1.35H57.91Z" style="fill: #f4f4e6"/>
      </g>
      <g>
        <path d="M20.11,358.31l-.18-.05.18.06Z" style="fill: #f22020"/>
        <path d="M20,358.31l.19.07-.08,0,.24.08A1.63,1.63,0,0,1,20,358.31Z" style="fill: #f22020"/>
        <path d="M20.19,358.41l.15.06A.53.53,0,0,0,20.19,358.41Z" style="fill: #f22020"/>
        <path d="M19.4,358.45s0,0,.06.06A.17.17,0,0,0,19.4,358.45Z" style="fill: #f22020"/>
        <path d="M20.68,359.63c-.05-.08,0-.06,0-.09l.11.11c0-.06-.07-.1-.13-.18s.07-.05.07-.06a.51.51,0,0,1,.1.11c0-.06-.13-.17-.11-.2l0,0a.41.41,0,0,1-.05-.25.28.28,0,0,0,0-.21l-.07,0c0-.11,0-.21-.33-.39,0,0,0,0-.07,0s0,0,.09.1c-.11,0,0,.06-.12,0s0,0,.05.09.09.11.08.13-.09-.06-.16-.1v-.09H20c-.06-.05,0,0-.12-.11.07.06.07.07.07.09s0,0,.08.12,0,0,0,0l.14.08c.08.08.08.12.07.16s0,0,0,.08,0,0-.08,0l-.08-.09c0,.06.2.21.16.2l-.18-.2c.19.21-.06,0,.05.12a.42.42,0,0,1-.11-.14s.07.09.05.09l-.14-.18c.14.18,0,0-.09-.07s.16.18.13.18-.06-.06-.08-.08.1.12.09.13l-.12-.16,0,0c0,.06.07.08.12.16a2.77,2.77,0,0,1-.28-.33,2,2,0,0,1-.11-.18l0,.06a1.4,1.4,0,0,1-.16-.19c-.07-.06,0,0,0,.11l.07.08c0,.05-.05,0-.08-.09a2.92,2.92,0,0,0,.2.28,1.38,1.38,0,0,1-.18-.18l.09.12c-.08-.09.06.09,0,0s0-.07-.07-.11-.08-.1-.06-.05l-.12-.11s0,.06-.07-.06c.1.16,0,.12.08.21l-.07-.11c.08.13,0,0,.07.18l0-.05.09.16-.1-.12c0,.05,0,.06-.05,0,.1.16.12.2.12.24s-.09.14,0,.36a1.41,1.41,0,0,0,.14.26s0-.05,0-.06.15.18.24.27l-.09-.12c-.06-.11.06.06,0-.07l.14.2c-.07-.1,0,0,0,0l-.1-.16a1.86,1.86,0,0,1,.18.22l-.09-.12c.07.07,0,0,.17.19,0,0-.07-.09-.05-.08l.09.12s0-.07,0,0a.56.56,0,0,1,.09.16c.05,0-.29-.43-.27-.43l.06.07-.06-.09.07.09c-.19-.28.06,0,0-.17s.12.13.12.1l-.08-.12a4.64,4.64,0,0,1,.43.48l-.09-.12c-.07-.1.07.05.13.12s-.05,0-.11-.14c.08.08-.1-.17,0-.1s0,.06.07.1c-.07-.14,0-.08,0-.13a2.24,2.24,0,0,0,.32.12l0-.05c.11.09.05,0,.12,0Z" style="fill: #0a8900"/>
        <path d="M19.77,358.45l-.11-.07,0,0a.06.06,0,0,0,0,0C19.82,358.45,19.75,358.41,19.77,358.45Z" style="fill: #f22020"/>
        <polygon points="20.1 358.63 20.06 358.6 20.06 358.61 20.1 358.63" style="fill: #f22020"/>
        <path d="M19.82,358.67h0a.09.09,0,0,1,0-.06l0-.05a.17.17,0,0,0,0,.05A.08.08,0,0,0,19.82,358.67Z" style="fill: #f22020"/>
        <path d="M19.31,358.36c0-.06,0,0-.05-.08l0,.06Z" style="fill: #f22020"/>
        <path d="M18.88,358l.12.18Z" style="fill: #f22020"/>
        <path d="M19.07,358.31a.12.12,0,0,0,0-.06S19.07,358.28,19.07,358.31Z" style="fill: #f22020"/>
        <path d="M16.82,359l-.43-.12a3.83,3.83,0,0,0-2.08,7.37l.12,0a3.75,3.75,0,0,0,1.76,0,3.45,3.45,0,0,0,2.7-2.24,3.78,3.78,0,0,0-.94-4.31.74.74,0,0,1-.08-1c.21-.33.51,0,.74.22a.82.82,0,0,0,1,.16,3.63,3.63,0,0,1-.91-.34A1.23,1.23,0,0,0,16.82,359Z" style="fill: #0a8900"/>
      </g>
      <path d="M50,361.56a2.1,2.1,0,0,0-3.09-1.71.77.77,0,0,1-.59.05,2.09,2.09,0,0,0-2.87.7h0a2.06,2.06,0,0,0-.3,1.23v4.64h1.57V362c0-.39.07-.73.54-.73s.54.34.54.73v4.54h1.57V362c0-.4,0-.79.54-.78s.54.41.54.8v4.43H50v-4.34C50,361.9,50,361.75,50,361.56Z" style="fill: #f4f4e6"/>
      <path d="M40.36,359.61H36.18l-.43,0v1.55h4.48c.61,0,.78.18.79.78v2.17a.64.64,0,0,1-.53.74.65.65,0,0,1-.2,0H38c-.39,0-.72-.1-.72-.55s.36-.52.74-.52h1.8v-1.58h-2a2.09,2.09,0,0,0-2.11,2.06h0v0a2.12,2.12,0,0,0,2.13,2.1h2.58a2.1,2.1,0,0,0,2.14-2.05v0h0v-2.6a2.13,2.13,0,0,0-2.08-2.17h-.14Z" style="fill: #f4f4e6"/>
      <path d="M68.79,361.2h4.34v-1.57c-1.65,0-3.25,0-4.86,0a2,2,0,0,0-1.89,1.77c-.07,1.67,0,3.37,0,5h1.56v-2.6h5.21v-1.57H67.94C67.84,361.37,68,361.2,68.79,361.2Z" style="fill: #f4f4e6"/>
      <path d="M76,364.94c-.35,0-.7-.06-.72-.48,0-.6,0-1.21,0-1.87h2.57V361H75.24v-1.39H73.66v4.89a1.88,1.88,0,0,0,1.58,1.93c1.3.12,2.58,0,3.86,0v-1.52Z" style="fill: #f4f4e6"/>
      <path d="M28.18,360.56c-1.3-.07-2.58,0-3.86,0V362h2.6c.81,0,1,.21,1,1v.92c0,1-.13,1.09-1.09,1.09H24.3v1.45c1.19,0,2.36,0,3.52,0A1.63,1.63,0,0,0,29.5,365v-2.58C29.5,361.55,28.86,360.6,28.18,360.56Z" style="fill: #f4f4e6"/>
      <path d="M33.23,364.89c-1.58,0-1.55.05-1.54-1.53v-3.75H30.16c0,1.69-.05,3.37,0,5a2,2,0,0,0,2,1.83H35.6v-1.58Z" style="fill: #f4f4e6"/>
      <path d="M21.88,357.83v6.79a1.68,1.68,0,0,0,1.63,1.74h.13v-8.48h-.48C22.78,357.83,22.35,357.83,21.88,357.83Z" style="fill: #f4f4e6"/>
      <path d="M56.81,362.41c-1.25-.08-2.51,0-3.78,0v1.45H55.7c.67,0,.87.19.87.87v1.71a2,2,0,0,0,.24-4Z" style="fill: #f4f4e6"/>
      <path d="M50.62,366.44h5.3v-1.62h-5.3Z" style="fill: #f4f4e6"/>
      <path d="M58,359.76H53v1.63h5Z" style="fill: #f4f4e6"/>
      <path d="M52.39,363.78v-4a2,2,0,0,0-1.79,2.17A1.89,1.89,0,0,0,52.39,363.78Z" style="fill: #f4f4e6"/>
      <path d="M63.69,359.62c-.93,0-1.87,0-2.81,0a2.06,2.06,0,0,0-2,2v2.81a2.06,2.06,0,0,0,2,2H63.7a2.1,2.1,0,0,0,2-2c0-.93,0-1.87,0-2.81A2.1,2.1,0,0,0,63.69,359.62Zm.43,4.62a.59.59,0,0,1-.52.65H61a.54.54,0,0,1-.6-.48h0v-2.59a.57.57,0,0,1,.48-.63.41.41,0,0,1,.16,0h2.41a.58.58,0,0,1,.65.48.56.56,0,0,1,0,.13v2.41Z" style="fill: #f4f4e6"/>
      <g>
        <path d="M8.37,27.89c0-1.76,1.29-2.8,3.35-2.8s3.35,1,3.35,2.8-1.29,2.8-3.35,2.8S8.37,29.65,8.37,27.89Zm5.47,0c0-1.13-.82-1.76-2.12-1.76s-2.12.63-2.12,1.76.81,1.76,2.12,1.76S13.84,29,13.84,27.89Z" style="fill: #0a8900"/>
        <path d="M18.76,25.25l2,4.07,2-4.07H24l-2.66,5.27H20.1l-2.66-5.27Z" style="fill: #0a8900"/>
        <path d="M32.42,29.51v1H27V25.25h5.35v1H28.19v1.08h3.47v1H28.19v1.16Z" style="fill: #0a8900"/>
        <path d="M40.32,30.52l-1.51-1.79H36.9v1.79h-1.2V25.25h3.63c1.29,0,2.26.59,2.26,1.74a1.67,1.67,0,0,1-1.47,1.66l1.63,1.87Zm-1-2.78c.63,0,1.1-.15,1.1-.74s-.47-.74-1.1-.74H36.89v1.47Z" style="fill: #0a8900"/>
        <path d="M51,27.89c0,1.64-1.27,2.63-3.26,2.63H45V25.25h2.8C49.75,25.25,51,26.25,51,27.89Zm-1.23,0c0-1.08-.86-1.61-2.12-1.61h-1.5V29.5h1.5C48.94,29.5,49.8,29,49.8,27.89Z" style="fill: #0a8900"/>
        <path d="M59,30.52l-1.51-1.79h-1.9v1.79h-1.2V25.25H58c1.29,0,2.26.59,2.26,1.74a1.67,1.67,0,0,1-1.47,1.66l1.62,1.87Zm-1-2.78c.63,0,1.1-.15,1.1-.74s-.47-.74-1.1-.74H55.53v1.47Z" style="fill: #0a8900"/>
        <path d="M63.6,30.52V25.25h1.2v5.27Z" style="fill: #0a8900"/>
        <path d="M69.1,25.25l2,4.07,2-4.07h1.3l-2.66,5.27H70.44l-2.66-5.27Z" style="fill: #0a8900"/>
        <path d="M82.75,29.51v1H77.33V25.25h5.35v1H78.53v1.08H82v1H78.53v1.16Z" style="fill: #0a8900"/>
      </g>
      <g>
        <path d="M79.59,14.95l0,0-3.75-3.75H73.65l.08.08L77.46,15l-4,4-.08.08h2.16l3.38-3.38,0,0h0l.64-.64Zm-5.81-3.73,0,0h.83ZM73.49,19h0l1.64-1.64Zm4-4.07h0Z" style="fill: #0a8900"/>
        <path d="M74,15.53h0l.52-.52,0,0,0,0-3.06-3.06H69.67l.06.06,3,3L69.5,18.26l-.06.06h1.76l2.76-2.76Zm-4.2-3.6h0Zm-.23,6.36h0l1.39-1.39Z" style="fill: #0a8900"/>
        <path d="M69.75,15l0,0,0,0L67,12.2H65.4l.06.06L68.2,15l-3,3-.06.06h1.59l2.49-2.49,0,0h0Zm-4.26-2.78h0ZM65.28,18h0l1.22-1.22Zm3-3,0,0,0,0Z" style="fill: #0a8900"/>
      </g>
      <g>
        <path d="M12.72,15l4-4,.08-.08H14.66l-3.38,3.38,0,0h0l-.64.64,0,0,0,0,3.75,3.75h2.16l-.08-.08Zm4-4.05h0L15,12.62Z" style="fill: #0a8900"/>
        <path d="M17.39,15l3.28-3.28.06-.06H19l-2.76,2.76,0,0h0l-.52.52,0,0,0,0,3.06,3.06H20.5L20.43,18Zm3.24-3.31h0L19.29,13Z" style="fill: #0a8900"/>
        <path d="M22,15l3-3L25,12H23.4l-2.49,2.49,0,0h0l-.47.47,0,0,0,0,2.76,2.76h1.59l-.06-.06Zm2.92-3h0l-1.24,1.24Zm-3,3h0l0,0Z" style="fill: #0a8900"/>
      </g>
      <g>
        <path d="M51.76,14,49.65,11.9l0,0H42.1l0,7.41v0l0,0,2.11,2.11V14Zm-9.59-.75h0Z" style="fill: #f4f4e6"/>
        <polygon points="57.32 9.74 59.4 7.66 39.23 7.66 37.15 9.74 57.32 9.74" style="fill: #f4f4e6"/>
      </g>
      <g>
        <polygon points="31.63 13.59 31.67 13.64 31.72 13.59 33.13 12.18 33.18 12.13 33.13 12.09 28.74 7.68 28.72 7.66 28.69 7.66 25.85 7.66 25.7 7.66 25.81 7.77 31.63 13.59" style="fill: #f4f4e6"/>
        <polygon points="38.25 11.85 38.1 11.85 35.27 11.85 35.25 11.85 35.23 11.86 25.04 22.05 24.93 22.16 25.09 22.16 27.9 22.16 27.93 22.16 27.95 22.14 38.14 11.96 38.25 11.85" style="fill: #f4f4e6"/>
        <polygon points="57.04 12.13 57.09 12.18 58.5 13.59 58.55 13.64 58.59 13.59 64.42 7.77 64.53 7.66 64.37 7.66 61.53 7.66 61.5 7.66 61.48 7.68 57.09 12.09 57.04 12.13" style="fill: #f4f4e6"/>
        <polygon points="36.5 15.46 36.46 15.42 36.41 15.46 35 16.87 34.96 16.92 35 16.96 40.1 22.03 40.12 22.05 40.15 22.05 42.92 22.05 43.08 22.05 42.97 21.94 36.5 15.46" style="fill: #f4f4e6"/>
        <polygon points="55.02 11.88 55 11.86 54.97 11.86 52.13 11.86 51.98 11.86 52.09 11.97 62.17 22.03 62.19 22.05 62.21 22.05 65.02 22.05 65.18 22.05 65.07 21.94 55.02 11.88" style="fill: #f4f4e6"/>
        <path d="M53.81,15.46l0,0,0,0-6.47,6.48-.11.11h3l0,0L55.22,17l0,0,0,0Zm1.35,1.47h0Z" style="fill: #f4f4e6"/>
      </g>
      <line x1="20.01" y1="95.44" x2="55.92" y2="95.44" style="fill: none;stroke: #f4f4e6;stroke-miterlimit: 10"/>
    </g>
  </g>
</svg>
