<svg xmlns="http://www.w3.org/2000/svg" width="30.1" height="30.1" viewBox="0 0 30.1 30.1">
  <title>XFXTubeSmallKnob</title>
  <g id="Layer_2" data-name="Layer 2">
    <g id="svg8">
      <circle id="path2985" cx="15.05" cy="15.05" r="15.05" style="fill: #bcbec0"/>
      <path id="path3832" d="M15.05,27.22c-4.4,0-1.9,2.19-5.86.28s-.69-1.32-3.43-4.76-2.9-.12-3.88-4.41.6-1.36,1.58-5.65-1.72-2.34,1-5.78,1.44-.38,5.41-2.29.76-2.8,5.16-2.8,1.19.89,5.16,2.8,2.66-1.15,5.41,2.29,0,1.49,1,5.78,2.56,1.36,1.58,5.65-1.13,1-3.88,4.41.53,2.85-3.43,4.76-1.46-.28-5.86-.28Z" style="fill: #262626"/>
      <ellipse id="path2985-1" cx="15.05" cy="15.05" rx="8.85" ry="8.89" style="fill: #f4f4e6"/>
      <circle id="path3381" cx="15.05" cy="0.87" r="0.6" style="fill: red"/>
      <line x1="15.05" y1="13.12" x2="15.05" y2="6.16" style="fill: none;stroke: #0091c4;stroke-width: 1.7000000000000002px"/>
      <line x1="15.05" y1="1.81" x2="15.05" style="fill: none;stroke: #0091c4;stroke-width: 1.7000000000000002px"/>
    </g>
  </g>
</svg>
