<svg xmlns="http://www.w3.org/2000/svg" width="150" height="380" viewBox="0 0 150 380">
  <title>XFXTubePanel</title>
  <g id="Layer_2" data-name="Layer 2">
    <g id="svg8">
      <g>
        <path d="M57,35.92h4.88v1.35H58.56v1.47h2.83v1.35H58.56v1.48h3.33v1.35H57Z" style="fill: #f4f4e6"/>
        <path d="M64.44,38.77v4.15H62.89v-7h1.45l2.58,4.15V35.92h1.55v7H67Z" style="fill: #f4f4e6"/>
        <path d="M75.54,42.91H73.86l-.45-1.48H71l-.45,1.48H69.07l2.29-7h1.9Zm-4.09-2.83H73l-.77-2.52Z" style="fill: #f4f4e6"/>
        <path d="M76.15,35.92h3.24a1.79,1.79,0,0,1,2,1.86,1.7,1.7,0,0,1-.89,1.62,1.68,1.68,0,0,1,1,1.66,1.79,1.79,0,0,1-2,1.86H76.15Zm1.55,2.82h1.42c.5,0,.71-.26.71-.74s-.22-.73-.71-.73H77.7Zm0,2.83h1.52c.49,0,.71-.25.71-.73s-.21-.75-.71-.75H77.7Z" style="fill: #f4f4e6"/>
        <path d="M82.53,35.92h1.55v5.65H87.4v1.35H82.53Z" style="fill: #f4f4e6"/>
        <path d="M88.21,35.92h4.88v1.35H89.76v1.47h2.83v1.35H89.76v1.48h3.33v1.35H88.21Z" style="fill: #f4f4e6"/>
      </g>
      <rect width="150" height="380" style="fill: #202020"/>
      <g>
        <path d="M18.35,117.4h3.24a1.79,1.79,0,0,1,2,1.86,1.7,1.7,0,0,1-.89,1.62,1.68,1.68,0,0,1,1,1.66,1.79,1.79,0,0,1-2,1.86H18.35Zm1.55,2.82h1.42c.5,0,.71-.26.71-.74s-.22-.73-.71-.73H19.9Zm0,2.83h1.52c.49,0,.71-.25.71-.73s-.21-.75-.71-.75H19.9Z" style="fill: #f4f4e6"/>
        <path d="M30.61,124.39H28.93l-.45-1.48H26.11l-.45,1.48H24.13l2.29-7h1.9Zm-4.09-2.83h1.54L27.29,119Z" style="fill: #f4f4e6"/>
        <path d="M34.08,121.71l-1.15-.2a2,2,0,0,1-1.92-2c0-1.49,1-2.21,2.69-2.21s2.69.72,2.69,2.13v.17H34.84v-.17c0-.52-.42-.78-1.14-.78s-1.09.21-1.09.75c0,.37.29.62.71.69l1.15.2c1.26.22,1.92.9,1.92,2,0,1.5-1,2.22-2.69,2.22S31,123.77,31,122.36v-.17h1.55v.17c0,.52.42.78,1.14.78s1.09-.2,1.09-.76C34.79,122,34.5,121.78,34.08,121.71Z" style="fill: #f4f4e6"/>
        <path d="M40.26,121.71l-1.15-.2a2,2,0,0,1-1.92-2c0-1.49,1-2.21,2.69-2.21s2.69.72,2.69,2.13v.17H41v-.17c0-.52-.42-.78-1.14-.78s-1.09.21-1.09.75c0,.37.29.62.71.69l1.15.2c1.26.22,1.92.9,1.92,2,0,1.5-1,2.22-2.69,2.22s-2.69-.72-2.69-2.13v-.17h1.55v.17c0,.52.42.78,1.14.78s1.09-.2,1.09-.76C41,122,40.68,121.78,40.26,121.71Z" style="fill: #f4f4e6"/>
      </g>
      <g>
        <path d="M54.55,176.69c0,1.68-1.1,2.54-2.8,2.54H49v-7h2.8c1.68,0,2.78.86,2.78,2.54ZM53,174.78a1.1,1.1,0,0,0-1.23-1.19H50.52v4.3h1.23A1.11,1.11,0,0,0,53,176.69Z" style="fill: #f4f4e6"/>
        <path d="M55.65,172.24H57.2v7H55.65Z" style="fill: #f4f4e6"/>
        <path d="M61.27,176.54l-1.15-.2a2,2,0,0,1-1.92-2c0-1.49,1-2.21,2.69-2.21s2.69.72,2.69,2.13v.17H62v-.17c0-.52-.42-.78-1.14-.78s-1.09.21-1.09.75c0,.37.29.62.71.69l1.15.2c1.26.22,1.92.9,1.92,2,0,1.5-1,2.22-2.69,2.22s-2.69-.72-2.69-2.13V177h1.55v.17c0,.52.42.78,1.14.78s1.09-.2,1.09-.76C62,176.84,61.69,176.62,61.27,176.54Z" style="fill: #f4f4e6"/>
        <path d="M64,172.24h5.51v1.35h-2v5.65H66v-5.65H64Z" style="fill: #f4f4e6"/>
      </g>
      <line x1="22.22" y1="150.39" x2="57.42" y2="150.39" style="fill: none;stroke: #f4f4e6;stroke-miterlimit: 10"/>
      <g>
        <path d="M55.8,229.13l-1.64,3.12-1.64-3.12v3.95H51v-7h1.5l1.69,3.22,1.69-3.22h1.5v7H55.8Z" style="fill: #f4f4e6"/>
        <path d="M58.55,226.08H60.1v7H58.55Z" style="fill: #f4f4e6"/>
        <path d="M63.85,230.85l-1.4,2.23H60.7L63,229.62l-2.29-3.54h1.85l1.37,2.23,1.41-2.23h1.75l-2.29,3.46,2.29,3.54H65.23Z" style="fill: #f4f4e6"/>
      </g>
      <line x1="22.22" y1="204.02" x2="57.42" y2="204.02" style="fill: none;stroke: #f4f4e6;stroke-miterlimit: 10"/>
      <g>
        <path d="M45,280.92h1.55v5.65h3.33v1.35H45Z" style="fill: #f4f4e6"/>
        <path d="M50.65,280.92h4.88v1.35H52.2v1.47H55v1.35H52.2v1.48h3.33v1.35H50.65Z" style="fill: #f4f4e6"/>
        <path d="M55.93,280.92h1.68L59.19,286l1.59-5.07h1.53l-2.29,7h-1.8Z" style="fill: #f4f4e6"/>
        <path d="M62.91,280.92h4.88v1.35H64.46v1.47h2.83v1.35H64.46v1.48h3.33v1.35H62.91Z" style="fill: #f4f4e6"/>
        <path d="M68.79,280.92h1.55v5.65h3.33v1.35H68.79Z" style="fill: #f4f4e6"/>
      </g>
      <g>
        <path d="M99.11,344.35l-1.64,3.12-1.64-3.12v3.95H94.28v-7h1.5l1.69,3.22,1.69-3.22h1.5v7H99.11Z" style="fill: #f4f4e6"/>
        <path d="M107.34,345.86c0,1.68-1.1,2.54-2.8,2.54s-2.78-.86-2.78-2.54v-2.12c0-1.68,1.1-2.54,2.8-2.54s2.78.86,2.78,2.54Zm-1.55-2.12a1.24,1.24,0,0,0-2.48,0v2.12a1.24,1.24,0,0,0,2.48,0Z" style="fill: #f4f4e6"/>
        <path d="M114,345.76c0,1.68-1.1,2.54-2.8,2.54h-2.78v-7h2.8c1.68,0,2.78.86,2.78,2.54Zm-1.55-1.92a1.1,1.1,0,0,0-1.23-1.19H110v4.3h1.23a1.11,1.11,0,0,0,1.25-1.19Z" style="fill: #f4f4e6"/>
        <path d="M115.12,341.3H120v1.35h-3.33v1.47h2.83v1.35h-2.83v1.48H120v1.35h-4.88Z" style="fill: #f4f4e6"/>
        <path d="M121,341.3h1.55v5.65h3.33v1.35H121Z" style="fill: #f4f4e6"/>
      </g>
      <line x1="22.15" y1="257.55" x2="57.35" y2="257.55" style="fill: none;stroke: #f4f4e6;stroke-miterlimit: 10"/>
      <path d="M38.33,361.5H10a5,5,0,0,1-5-5V20.5a5,5,0,0,1,5-5H39.33" style="fill: none;stroke: #f4f4e6;stroke-miterlimit: 10"/>
      <path d="M20.6,346.28h1.55v7H20.6Z" style="fill: #f4f4e6"/>
      <g>
        <path d="M68.92,334.09c0,1.68-1.1,2.54-2.8,2.54s-2.78-.86-2.78-2.54V332c0-1.68,1.1-2.54,2.8-2.54s2.78.86,2.78,2.54ZM67.37,332a1.24,1.24,0,0,0-2.48,0v2.12a1.24,1.24,0,0,0,2.48,0Z" style="fill: #f4f4e6"/>
        <path d="M75.55,329.53v4.56c0,1.68-1.1,2.54-2.8,2.54S70,335.77,70,334.09v-4.56h1.55v4.56a1.24,1.24,0,0,0,2.48,0v-4.56Z" style="fill: #f4f4e6"/>
        <path d="M76.16,329.53h5.51v1.35h-2v5.65H78.13v-5.65h-2Z" style="fill: #f4f4e6"/>
      </g>
      <g>
        <path d="M64.45,301.91H66v7H64.45Z" style="fill: #f4f4e6"/>
        <path d="M68.74,304.76v4.15H67.2v-7h1.45l2.58,4.15v-4.15h1.55v7H71.32Z" style="fill: #f4f4e6"/>
      </g>
      <g>
        <path d="M46.8,346.28h1.55v7H46.8Z" style="fill: #f4f4e6"/>
        <path d="M49.55,346.28H51.1v7H49.55Z" style="fill: #f4f4e6"/>
      </g>
      <g>
        <path d="M97.08,166.24h5.51v1.35h-2v5.65H99.06v-5.65h-2Z" style="fill: #f4f4e6"/>
        <path d="M108.72,170.8c0,1.68-1.1,2.54-2.8,2.54s-2.78-.86-2.78-2.54v-2.12c0-1.68,1.1-2.54,2.8-2.54s2.78.86,2.78,2.54Zm-1.55-2.12a1.24,1.24,0,0,0-2.48,0v2.12a1.24,1.24,0,0,0,2.48,0Z" style="fill: #f4f4e6"/>
        <path d="M111.37,169.09v4.15h-1.55v-7h1.45l2.58,4.15v-4.15h1.55v7H114Z" style="fill: #f4f4e6"/>
        <path d="M116.6,166.24h4.88v1.35h-3.33v1.47H121v1.35h-2.83v1.48h3.33v1.35H116.6Z" style="fill: #f4f4e6"/>
      </g>
      <g>
        <path d="M94.54,225.62l-1.4,2.23H91.4l2.29-3.46-2.29-3.54h1.85l1.37,2.23L96,220.85h1.75l-2.29,3.46,2.29,3.54H95.92Z" style="fill: #f4f4e6"/>
        <path d="M97.67,224.62H100v1.25H97.67Z" style="fill: #f4f4e6"/>
        <path d="M100.9,220.85h3.24a1.79,1.79,0,0,1,2,1.86,1.7,1.7,0,0,1-.89,1.62,1.68,1.68,0,0,1,1,1.66,1.79,1.79,0,0,1-2,1.86H100.9Zm1.55,2.82h1.42c.5,0,.71-.26.71-.74s-.22-.73-.71-.73h-1.42Zm0,2.83H104c.49,0,.71-.25.71-.73s-.21-.75-.71-.75h-1.52Z" style="fill: #f4f4e6"/>
        <path d="M113.16,227.84h-1.68l-.45-1.48h-2.37l-.45,1.48h-1.53l2.29-7h1.9ZM109.07,225h1.54l-.77-2.52Z" style="fill: #f4f4e6"/>
        <path d="M116.63,225.16l-1.15-.2a2,2,0,0,1-1.92-2c0-1.49,1-2.21,2.69-2.21s2.69.72,2.69,2.13V223h-1.55v-.17c0-.52-.42-.78-1.14-.78s-1.09.21-1.09.75c0,.37.29.62.71.69l1.15.2c1.26.22,1.92.9,1.92,2,0,1.5-1,2.22-2.69,2.22s-2.69-.72-2.69-2.13v-.17h1.55v.17c0,.52.42.78,1.14.78s1.09-.2,1.09-.76C117.34,225.46,117.05,225.23,116.63,225.16Z" style="fill: #f4f4e6"/>
        <path d="M122.81,225.16l-1.15-.2a2,2,0,0,1-1.92-2c0-1.49,1-2.21,2.69-2.21s2.69.72,2.69,2.13V223h-1.55v-.17c0-.52-.42-.78-1.14-.78s-1.09.21-1.09.75c0,.37.29.62.71.69l1.15.2c1.26.22,1.92.9,1.92,2,0,1.5-1,2.22-2.69,2.22s-2.69-.72-2.69-2.13v-.17h1.55v.17c0,.52.42.78,1.14.78s1.09-.2,1.09-.76C123.52,225.46,123.23,225.23,122.81,225.16Z" style="fill: #f4f4e6"/>
      </g>
      <g>
        <path d="M49.11,358.31l-.18-.05.18.06Z" style="fill: #f22020"/>
        <path d="M49,358.31l.19.07-.08,0,.24.08A1.63,1.63,0,0,1,49,358.31Z" style="fill: #f22020"/>
        <path d="M49.19,358.41l.15.06A.53.53,0,0,0,49.19,358.41Z" style="fill: #f22020"/>
        <path d="M48.4,358.45s0,0,.06.06A.17.17,0,0,0,48.4,358.45Z" style="fill: #f22020"/>
        <path d="M49.68,359.63c-.05-.08,0-.06,0-.09l.11.11c0-.06-.07-.1-.13-.18s.07-.05.07-.06a.51.51,0,0,1,.1.11c0-.06-.13-.17-.11-.2l0,0a.41.41,0,0,1-.05-.25.28.28,0,0,0,0-.21l-.07,0c0-.11,0-.21-.33-.39,0,0,0,0-.07,0s0,0,.09.1c-.11,0,0,.06-.12,0s0,0,.05.09.09.11.08.13-.09-.06-.16-.1v-.09H49c-.06-.05,0,0-.12-.11.07.06.07.07.07.09s0,0,.08.12,0,0,0,0l.14.08c.08.08.08.12.07.16s0,0,0,.08,0,0-.08,0l-.08-.09c0,.06.2.21.16.2l-.18-.2c.19.21-.06,0,.05.12a.42.42,0,0,1-.11-.14s.07.09.05.09l-.14-.18c.14.18,0,0-.09-.07s.16.18.13.18-.06-.06-.08-.08.1.12.09.13l-.12-.16,0,0c0,.06.07.08.12.16a2.77,2.77,0,0,1-.28-.33,2,2,0,0,1-.11-.18l0,.06a1.4,1.4,0,0,1-.16-.19c-.07-.06,0,0,0,.11l.07.08c0,.05-.05,0-.08-.09a2.92,2.92,0,0,0,.2.28,1.38,1.38,0,0,1-.18-.18l.09.12c-.08-.09.06.09,0,0s0-.07-.07-.11-.08-.1-.06-.05l-.12-.11s0,.06-.07-.06c.1.16,0,.12.08.21l-.07-.11c.08.13,0,0,.07.18l0-.05.09.16-.1-.12c0,.05,0,.06-.05,0,.1.16.12.2.12.24s-.09.14,0,.36a1.41,1.41,0,0,0,.14.26s0-.05,0-.06.15.18.24.27l-.09-.12c-.06-.11.06.06,0-.07l.14.2c-.07-.1,0,0,0,0l-.1-.16a1.86,1.86,0,0,1,.18.22l-.09-.12c.07.07,0,0,.17.19,0,0-.07-.09-.05-.08l.09.12s0-.07,0,0a.56.56,0,0,1,.09.16c.05,0-.29-.43-.27-.43l.06.07-.06-.09.07.09c-.19-.28.06,0,0-.17s.12.13.12.1l-.08-.12a4.64,4.64,0,0,1,.43.48l-.09-.12c-.07-.1.07.05.13.12s-.05,0-.11-.14c.08.08-.1-.17,0-.1s0,.06.07.1c-.07-.14,0-.08,0-.13a2.24,2.24,0,0,0,.32.12l0-.05c.11.09.05,0,.12,0Z" style="fill: #0091c4"/>
        <path d="M48.77,358.45l-.11-.07,0,0a.06.06,0,0,0,0,0C48.82,358.45,48.75,358.41,48.77,358.45Z" style="fill: #f22020"/>
        <polygon points="49.1 358.63 49.06 358.6 49.06 358.61 49.1 358.63" style="fill: #f22020"/>
        <path d="M48.82,358.67h0a.09.09,0,0,1,0-.06l0-.05a.17.17,0,0,0,0,.05A.08.08,0,0,0,48.82,358.67Z" style="fill: #f22020"/>
        <path d="M48.31,358.36c0-.06,0,0-.05-.08l0,.06Z" style="fill: #f22020"/>
        <path d="M47.88,358l.12.18Z" style="fill: #f22020"/>
        <path d="M48.07,358.31a.12.12,0,0,0,0-.06S48.07,358.28,48.07,358.31Z" style="fill: #f22020"/>
        <path d="M45.82,359l-.43-.12a3.83,3.83,0,0,0-2.08,7.37l.12,0a3.75,3.75,0,0,0,1.76,0,3.45,3.45,0,0,0,2.7-2.24,3.78,3.78,0,0,0-.94-4.31.74.74,0,0,1-.08-1c.21-.33.51,0,.74.22a.82.82,0,0,0,1,.16,3.63,3.63,0,0,1-.91-.34A1.23,1.23,0,0,0,45.82,359Z" style="fill: #0091c4"/>
      </g>
      <path d="M79,361.56a2.1,2.1,0,0,0-3.09-1.71.77.77,0,0,1-.59.05,2.09,2.09,0,0,0-2.87.7h0a2.06,2.06,0,0,0-.3,1.23v4.64h1.57V362c0-.39.07-.73.54-.73s.54.34.54.73v4.54h1.57V362c0-.4,0-.79.54-.78s.54.41.54.8v4.43H79v-4.34C79,361.9,79,361.75,79,361.56Z" style="fill: #f4f4e6"/>
      <path d="M69.36,359.61H65.18l-.43,0v1.55h4.48c.61,0,.78.18.79.78v2.17a.64.64,0,0,1-.53.74.65.65,0,0,1-.2,0H67c-.39,0-.72-.1-.72-.55s.36-.52.74-.52h1.8v-1.58h-2a2.09,2.09,0,0,0-2.11,2.06h0v0a2.12,2.12,0,0,0,2.13,2.1h2.58a2.1,2.1,0,0,0,2.14-2.05v0h0v-2.6a2.13,2.13,0,0,0-2.08-2.17h-.14Z" style="fill: #f4f4e6"/>
      <path d="M97.79,361.2h4.34v-1.57c-1.65,0-3.25,0-4.86,0a2,2,0,0,0-1.89,1.77c-.07,1.67,0,3.37,0,5h1.56v-2.6h5.21v-1.57H96.94C96.84,361.37,97,361.2,97.79,361.2Z" style="fill: #f4f4e6"/>
      <path d="M105,364.94c-.35,0-.7-.06-.72-.48,0-.6,0-1.21,0-1.87h2.57V361h-2.58v-1.39h-1.58v4.89a1.88,1.88,0,0,0,1.58,1.93c1.3.12,2.58,0,3.86,0v-1.52Z" style="fill: #f4f4e6"/>
      <path d="M57.18,360.56c-1.3-.07-2.58,0-3.86,0V362h2.6c.81,0,1,.21,1,1v.92c0,1-.13,1.09-1.09,1.09H53.3v1.45c1.19,0,2.36,0,3.52,0A1.63,1.63,0,0,0,58.5,365v-2.58C58.5,361.55,57.86,360.6,57.18,360.56Z" style="fill: #f4f4e6"/>
      <path d="M62.23,364.89c-1.58,0-1.55.05-1.54-1.53v-3.75H59.16c0,1.69-.05,3.37,0,5a2,2,0,0,0,2,1.83H64.6v-1.58Z" style="fill: #f4f4e6"/>
      <path d="M50.88,357.83v6.79a1.68,1.68,0,0,0,1.63,1.74h.13v-8.48h-.48C51.78,357.83,51.35,357.83,50.88,357.83Z" style="fill: #f4f4e6"/>
      <path d="M85.81,362.41c-1.25-.08-2.51,0-3.78,0v1.45H84.7c.67,0,.87.19.87.87v1.71a2,2,0,0,0,.24-4Z" style="fill: #f4f4e6"/>
      <path d="M79.62,366.44h5.3v-1.62h-5.3Z" style="fill: #f4f4e6"/>
      <path d="M87,359.76H82v1.63h5Z" style="fill: #f4f4e6"/>
      <path d="M81.39,363.78v-4a2,2,0,0,0-1.79,2.17A1.89,1.89,0,0,0,81.39,363.78Z" style="fill: #f4f4e6"/>
      <path d="M92.69,359.62c-.93,0-1.87,0-2.81,0a2.06,2.06,0,0,0-2,2v2.81a2.06,2.06,0,0,0,2,2H92.7a2.1,2.1,0,0,0,2-2c0-.93,0-1.87,0-2.81A2.1,2.1,0,0,0,92.69,359.62Zm.43,4.62a.59.59,0,0,1-.52.65H90a.54.54,0,0,1-.6-.48h0v-2.59a.57.57,0,0,1,.48-.63.41.41,0,0,1,.16,0h2.41a.58.58,0,0,1,.65.48.56.56,0,0,1,0,.13v2.41Z" style="fill: #f4f4e6"/>
      <g>
        <path d="M64,26.87H61.7V31.1H60.5V26.87H58.21v-1H64Z" style="fill: #0091c4"/>
        <path d="M72.9,25.83v2.78c0,1.58-1,2.65-3,2.65s-3-1.07-3-2.65V25.83h1.2v2.69a1.75,1.75,0,0,0,3.51,0V25.83Z" style="fill: #0091c4"/>
        <path d="M82.45,29.65c0,.93-.8,1.44-2.06,1.44H76.47V25.83h3.62c1.26,0,2.06.5,2.06,1.35A1.14,1.14,0,0,1,81,28.34C81.8,28.39,82.45,28.82,82.45,29.65ZM77.65,28h2.23c.65,0,1.06-.11,1.06-.59s-.41-.59-1.06-.59H77.65Zm3.56,1.55c0-.53-.4-.63-1.08-.63H77.65v1.26h2.48C80.81,30.15,81.21,30,81.21,29.52Z" style="fill: #0091c4"/>
        <path d="M91.16,30.09v1H85.74V25.83h5.35v1H86.94v1.08H90.4v1H86.94v1.16Z" style="fill: #0091c4"/>
      </g>
      <g>
        <path d="M109.51,15.52l0,0-3.75-3.75h-2.16l.08.08,3.73,3.73-4,4-.08.08h2.16l3.38-3.38,0,0h0l.64-.64Zm-5.81-3.73,0,0h.83Zm-.29,7.8h0L105,17.94Zm4-4.07h0Z" style="fill: #0091c4"/>
        <path d="M103.89,16.11h0l.52-.52,0,0,0,0-3.06-3.06H99.59l.06.06,3,3-3.28,3.28-.06.06h1.76l2.76-2.76Zm-4.2-3.6h0Zm-.23,6.36h0l1.39-1.39Z" style="fill: #0091c4"/>
        <path d="M99.67,15.59l0,0,0,0L96.9,12.78H95.31l.06.06,2.75,2.75-3,3-.06.06h1.59l2.49-2.49,0,0h0ZM95.4,12.81h0Zm-.21,5.75h0l1.22-1.22Zm3-3,0,0,0,0Z" style="fill: #0091c4"/>
      </g>
      <g>
        <path d="M42.63,15.6l4-4,.08-.08H44.57l-3.38,3.38,0,0h0l-.64.64,0,0,0,0,3.75,3.75h2.16l-.08-.08Zm4-4.05h0L45,13.2Z" style="fill: #0091c4"/>
        <path d="M47.31,15.57l3.28-3.28.06-.06H48.89L46.14,15l0,0h0l-.52.52,0,0,0,0,3.06,3.06h1.76l-.06-.06Zm3.24-3.31h0L49.2,13.62Z" style="fill: #0091c4"/>
        <path d="M51.88,15.56l3-3,.06-.06H53.32L50.83,15l0,0h0l-.47.47,0,0,0,0,2.76,2.76h1.59l-.06-.06Zm2.92-3h0l-1.24,1.24Zm-3,3h0l0,0Z" style="fill: #0091c4"/>
      </g>
      <g>
        <path d="M81.67,14.58l-2.11-2.11,0,0H72l0,7.41v0l0,0L74.13,22V14.58Zm-9.59-.75h0Z" style="fill: #f4f4e6"/>
        <polygon points="87.23 10.32 89.31 8.23 69.14 8.23 67.07 10.32 87.23 10.32" style="fill: #f4f4e6"/>
      </g>
      <g>
        <polygon points="61.54 14.17 61.59 14.22 61.63 14.17 63.05 12.76 63.09 12.71 63.05 12.67 58.65 8.25 58.63 8.23 58.61 8.23 55.77 8.23 55.61 8.23 55.72 8.35 61.54 14.17" style="fill: #f4f4e6"/>
        <polygon points="68.17 12.42 68.01 12.42 65.19 12.42 65.16 12.42 65.14 12.44 54.96 22.63 54.85 22.74 55 22.74 57.81 22.74 57.84 22.74 57.86 22.72 68.06 12.53 68.17 12.42" style="fill: #f4f4e6"/>
        <polygon points="86.95 12.71 87 12.76 88.42 14.17 88.46 14.22 88.51 14.17 94.33 8.35 94.44 8.23 94.28 8.23 91.44 8.23 91.42 8.23 91.4 8.25 87 12.67 86.95 12.71" style="fill: #f4f4e6"/>
        <polygon points="66.42 16.04 66.37 15.99 66.32 16.04 64.92 17.45 64.87 17.49 64.92 17.54 70.01 22.61 70.03 22.63 70.06 22.63 72.84 22.63 72.99 22.63 72.88 22.52 66.42 16.04" style="fill: #f4f4e6"/>
        <polygon points="84.93 12.46 84.91 12.44 84.88 12.44 82.05 12.44 81.89 12.44 82 12.55 92.08 22.61 92.1 22.63 92.13 22.63 94.94 22.63 95.09 22.63 94.98 22.52 84.93 12.46" style="fill: #f4f4e6"/>
        <path d="M83.73,16l0,0,0,0-6.47,6.48-.11.11h3l0,0,5.1-5.07,0,0,0,0Zm1.35,1.47h0Z" style="fill: #f4f4e6"/>
      </g>
      <g>
        <path d="M72.77,120.32l-1.64,3.12-1.64-3.12v3.95H67.94v-7h1.5l1.69,3.22,1.69-3.22h1.5v7H72.77Z" style="fill: #f4f4e6"/>
        <path d="M75.52,117.28h1.55v7H75.52Z" style="fill: #f4f4e6"/>
        <path d="M83.84,121.73c0,1.68-1.1,2.54-2.8,2.54H78.27v-7h2.8c1.68,0,2.78.86,2.78,2.54Zm-1.55-1.92a1.1,1.1,0,0,0-1.23-1.19H79.82v4.3H81a1.11,1.11,0,0,0,1.25-1.19Z" style="fill: #f4f4e6"/>
      </g>
      <g>
        <path d="M106.25,117.28h5.51v1.35h-2v5.65h-1.55v-5.65h-2Z" style="fill: #f4f4e6"/>
        <path d="M112.41,117.28h3a2.11,2.11,0,0,1,2.4,2.33,2.07,2.07,0,0,1-1.21,2.14l1.31,2.53h-1.8l-1.14-2.33h-1v2.33h-1.55Zm1.55,3.32h1.38c.52,0,.85-.24.85-1s-.34-1-.85-1H114Z" style="fill: #f4f4e6"/>
        <path d="M118.79,117.28h4.88v1.35h-3.33v1.47h2.83v1.35h-2.83v1.48h3.33v1.35h-4.88Z" style="fill: #f4f4e6"/>
        <path d="M124.67,117.28h3.24a1.79,1.79,0,0,1,2,1.86,1.7,1.7,0,0,1-.89,1.62,1.68,1.68,0,0,1,1,1.66,1.79,1.79,0,0,1-2,1.86h-3.34Zm1.55,2.82h1.42c.5,0,.71-.26.71-.74s-.22-.73-.71-.73h-1.42Zm0,2.83h1.52c.49,0,.71-.25.71-.73s-.21-.75-.71-.75h-1.52Z" style="fill: #f4f4e6"/>
      </g>
      <path d="M87.74,301.81H86.06l-.45-1.48H83.25l-.45,1.48H81.27l2.29-7h1.9ZM83.66,299H85.2l-.77-2.52Z" style="fill: #f4f4e6"/>
      <path d="M96.28,285.48h3.24a1.79,1.79,0,0,1,2,1.86,1.7,1.7,0,0,1-.89,1.62,1.68,1.68,0,0,1,1,1.66,1.79,1.79,0,0,1-2,1.86H96.28Zm1.55,2.82h1.42c.5,0,.71-.26.71-.74s-.22-.73-.71-.73H97.83Zm0,2.83h1.52c.49,0,.71-.25.71-.73s-.21-.75-.71-.75H97.83Z" style="fill: #f4f4e6"/>
      <path d="M121.22,290V290c0,1.68-1.1,2.54-2.8,2.54s-2.78-.86-2.78-2.54v-2.12c0-1.68,1.1-2.54,2.8-2.54s2.78.86,2.78,2.54V288h-1.55v-.06a1.24,1.24,0,0,0-2.48,0V290a1.24,1.24,0,0,0,2.48,0V290Z" style="fill: #f4f4e6"/>
      <path d="M134.49,299.16c0,1.68-1.1,2.54-2.8,2.54h-2.78v-7h2.8c1.68,0,2.78.86,2.78,2.54Zm-1.55-1.92a1.1,1.1,0,0,0-1.23-1.19h-1.25v4.3h1.23a1.11,1.11,0,0,0,1.25-1.19Z" style="fill: #f4f4e6"/>
      <path d="M110.87,361.5H139.2a5,5,0,0,0,5-5V20.5a5,5,0,0,0-5-5H109.87" style="fill: none;stroke: #f4f4e6;stroke-miterlimit: 10"/>
      <g>
        <g>
          <g>
            <path d="M107.38,276.82h-.19A19.8,19.8,0,0,1,96.9,274" style="fill: none;stroke: #414042;stroke-miterlimit: 10"/>
            <path d="M116.37,274.58a20,20,0,0,0,7.17-6.32" style="fill: none;stroke: #414042;stroke-miterlimit: 10"/>
            <path d="M126,250.37a19.81,19.81,0,0,1,1.07,5.39" style="fill: none;stroke: #414042;stroke-miterlimit: 10"/>
            <path d="M87.32,257.65c0-.24,0-.48,0-.73a19.94,19.94,0,0,1,.54-4.6" style="fill: none;stroke: #414042;stroke-miterlimit: 10"/>
            <path d="M96.9,274a20,20,0,0,1-6.07-5.72" style="fill: none;stroke: #414042;stroke-miterlimit: 10"/>
            <path d="M127.05,255.75c0,.39,0,.78,0,1.17a19.93,19.93,0,0,1-.58,4.79" style="fill: none;stroke: #414042;stroke-miterlimit: 10"/>
            <path d="M107.38,276.82a19.8,19.8,0,0,0,9-2.24" style="fill: none;stroke: #414042;stroke-miterlimit: 10"/>
            <path d="M90.83,268.24a19.81,19.81,0,0,1-2.62-5.35" style="fill: none;stroke: #414042;stroke-miterlimit: 10"/>
            <path d="M126.51,261.71a19.8,19.8,0,0,1-3,6.55" style="fill: none;stroke: #414042;stroke-miterlimit: 10"/>
            <path d="M92.81,243.18a20,20,0,0,1,4.44-3.49" style="fill: none;stroke: #414042;stroke-miterlimit: 10"/>
            <path d="M126,250.37a19.83,19.83,0,0,0-2.57-5" style="fill: none;stroke: #414042;stroke-miterlimit: 10"/>
            <path d="M88.21,262.89a19.85,19.85,0,0,1-.89-5.24" style="fill: none;stroke: #414042;stroke-miterlimit: 10"/>
            <path d="M119.2,241.06a19.8,19.8,0,0,0-8.51-3.72" style="fill: none;stroke: #414042;stroke-miterlimit: 10"/>
            <path d="M92.81,243.18a20,20,0,0,0-3,4" style="fill: none;stroke: #414042;stroke-miterlimit: 10"/>
            <path d="M110.69,237.34a19.75,19.75,0,0,0-6.75,0" style="fill: none;stroke: #414042;stroke-miterlimit: 10"/>
            <path d="M103.94,237.3a19.76,19.76,0,0,0-6.69,2.4" style="fill: none;stroke: #414042;stroke-miterlimit: 10"/>
            <path d="M87.84,252.32a19.76,19.76,0,0,1,2-5.11" style="fill: none;stroke: #414042;stroke-miterlimit: 10"/>
            <path d="M119.2,241.06a20,20,0,0,1,4.21,4.34" style="fill: none;stroke: #414042;stroke-miterlimit: 10"/>
            <path d="M123.41,245.4c-8.52,3.1-16.13,4-21.77,1.14a42,42,0,0,0-8.83-3.35" style="fill: none;stroke: #414042;stroke-miterlimit: 10"/>
            <path d="M119.2,241.06c-7.28,2.24-13.77,2.66-18.72.12-1.07-.55-2.15-1-3.22-1.48" style="fill: none;stroke: #414042;stroke-miterlimit: 10"/>
            <path d="M110.69,237.34a23.89,23.89,0,0,1-6.75,0" style="fill: none;stroke: #414042;stroke-miterlimit: 10"/>
            <path d="M126.51,261.71c-7.85,2.63-14.85,3.27-20.12.56a41.33,41.33,0,0,0-19.07-4.63" style="fill: none;stroke: #414042;stroke-miterlimit: 10"/>
            <path d="M127.05,255.75c-8.54,3.11-16.18,4.06-21.83,1.16a41.26,41.26,0,0,0-17.39-4.59" style="fill: none;stroke: #414042;stroke-miterlimit: 10"/>
            <path d="M126,250.37c-8.58,3.14-16.26,4.11-21.93,1.2a41.34,41.34,0,0,0-14.22-4.35" style="fill: none;stroke: #414042;stroke-miterlimit: 10"/>
            <path d="M107.38,276.82A41,41,0,0,0,96.9,274" style="fill: none;stroke: #414042;stroke-miterlimit: 10"/>
            <path d="M116.37,274.58a16.8,16.8,0,0,1-7.14-1.72,41.3,41.3,0,0,0-18.4-4.62" style="fill: none;stroke: #414042;stroke-miterlimit: 10"/>
            <path d="M123.54,268.26c-6,1.41-11.28,1.39-15.49-.77a41.35,41.35,0,0,0-19.84-4.61" style="fill: none;stroke: #414042;stroke-miterlimit: 10"/>
          </g>
          <g>
            <path d="M120.37,244.07a3.59,3.59,0,0,0-.56-.16l.56.2Z" style="fill: #f22020"/>
            <path d="M120.14,244.07l.59.21-.25-.13a5.35,5.35,0,0,1,.72.25A5,5,0,0,1,120.14,244.07Z" style="fill: #f22020"/>
            <path d="M120.63,244.38l.46.2A1.62,1.62,0,0,0,120.63,244.38Z" style="fill: #f22020"/>
            <path d="M118.22,244.48c0,.07.1.1.18.2A.52.52,0,0,0,118.22,244.48Z" style="fill: #f22020"/>
            <path d="M121.21,248.11c-.16-.25,0-.2,0-.28l.35.35c0-.2-.23-.31-.39-.56.23.2.21-.16.23-.2a1.56,1.56,0,0,1,.31.35c0-.2-.41-.53-.33-.61l.08.1a1.27,1.27,0,0,1-.16-.77.86.86,0,0,0,0-.64l-.23-.1c0-.33,0-.64-1-1.18,0,.07-.13.07-.21.1s-.1.1.28.31c-.35-.13.1.2-.36,0-.13,0,0,.13.16.28s.28.35.25.41-.28-.2-.49-.31v-.26h-.44c-.2-.16,0-.1-.38-.35.23.2.21.23.23.28s0,.13.25.36,0-.07.1-.1l.44.25c.25.25.25.38.23.49s-.1.13-.1.25-.08.1-.25,0l-.25-.28c.1.2.61.64.49.61l-.56-.61c.59.66-.2,0,.16.36a1.3,1.3,0,0,1-.35-.44c-.13-.07.21.28.16.28l-.44-.56c.44.54-.13,0-.28-.23.12.13.49.54.41.54s-.2-.2-.25-.25.31.38.28.41a5.18,5.18,0,0,1-.36-.48l-.13-.07c.1.2.23.25.36.49a8.5,8.5,0,0,1-.85-1,6.25,6.25,0,0,1-.35-.54l.08.2a4.28,4.28,0,0,1-.49-.59c-.21-.2,0,.13,0,.33l.23.25c0,.16-.16-.13-.25-.28a8.94,8.94,0,0,0,.61.85,4.23,4.23,0,0,1-.54-.54l.28.38c-.25-.28.2.28,0,.1s-.13-.23-.21-.35c0,.16-.25-.31-.2-.16l-.36-.35s0,.2-.21-.2c.31.48.13.36.25.64l-.23-.35c.25.41-.1,0,.23.54l-.1-.16.28.49-.31-.38c.1.16,0,.2-.16,0,.31.48.36.61.36.72-.38-.16-.28.44-.1,1.1a4.31,4.31,0,0,0,.44.81c.13.08,0-.16,0-.2s.46.56.72.82l-.28-.36c-.2-.35.2.2-.08-.23l.44.61c-.23-.31,0-.1.13,0l-.31-.48a5.69,5.69,0,0,1,.56.69l-.28-.38c.21.23,0-.13.51.59,0-.1-.21-.28-.16-.25l.28.38c0-.13-.08-.23.1,0a1.73,1.73,0,0,1,.28.48c.16,0-.9-1.33-.82-1.33l.2.23-.2-.28.23.28c-.59-.87.2,0-.1-.53,0-.1.36.41.36.31l-.25-.36a14.23,14.23,0,0,1,1.33,1.48c-.21-.31-.07-.07-.28-.38s.21.16.41.36c-.1-.23-.16-.13-.33-.44.25.25-.31-.53,0-.31s.1.2.21.31c-.23-.44,0-.25,0-.41a6.88,6.88,0,0,0,1,.36l-.13-.16c.33.28.16-.1.36,0Z" style="fill: #0091c4"/>
            <path d="M119.35,244.48l-.33-.21.12.07a.19.19,0,0,0,.1.1C119.48,244.48,119.27,244.38,119.35,244.48Z" style="fill: #f22020"/>
            <polygon points="120.35 245.04 120.24 244.94 120.24 244.97 120.35 245.04" style="fill: #f22020"/>
            <path d="M119.48,245.15h0a.27.27,0,0,1-.08-.2l-.1-.16a.51.51,0,0,0,.08.16A.23.23,0,0,0,119.48,245.15Z" style="fill: #f22020"/>
            <path d="M117.94,244.22c-.13-.2,0-.13-.16-.25l.13.2Z" style="fill: #f22020"/>
            <path d="M116.62,243.1c.41.61,0,0,.38.54C116.88,243.46,116.75,243.28,116.62,243.1Z" style="fill: #f22020"/>
            <path d="M117.18,244.07a.37.37,0,0,0-.1-.2C117,243.77,117.18,244,117.18,244.07Z" style="fill: #f22020"/>
            <path d="M109.38,246.29c-.41-.13-.87-.23-1.33-.36a11.75,11.75,0,0,0-6.38,22.61l.38.1a11.49,11.49,0,0,0,5.39.15,10.6,10.6,0,0,0,8.28-6.88c1.68-4.91,1.12-9.56-2.88-13.23a2.26,2.26,0,0,1-.25-3.14c.66-1,1.56,0,2.27.69a2.51,2.51,0,0,0,3.12.49,11.12,11.12,0,0,1-2.78-1.05C112.92,244.07,111.24,244.17,109.38,246.29Z" style="fill: #0091c4"/>
          </g>
        </g>
        <circle cx="107.13" cy="256.92" r="20.4" style="fill: none;stroke: #0091c4;stroke-miterlimit: 10;stroke-width: 0.75px"/>
      </g>
      <g>
        <path d="M57.2,35.92h4.88v1.35H58.75v1.47h2.83v1.35H58.75v1.48h3.33v1.35H57.2Z" style="fill: #f4f4e6"/>
        <path d="M64.63,38.77v4.15H63.08v-7h1.45l2.58,4.15V35.92h1.55v7H67.21Z" style="fill: #f4f4e6"/>
        <path d="M75.74,42.92H74.06l-.45-1.48H71.24l-.45,1.48H69.26l2.29-7h1.9Zm-4.09-2.83h1.54l-.77-2.52Z" style="fill: #f4f4e6"/>
        <path d="M76.34,35.92h3.24a1.79,1.79,0,0,1,2,1.86,1.7,1.7,0,0,1-.89,1.62,1.68,1.68,0,0,1,1,1.66,1.79,1.79,0,0,1-2,1.86H76.34Zm1.55,2.82h1.42c.5,0,.71-.26.71-.74s-.22-.73-.71-.73H77.89Zm0,2.83h1.52c.49,0,.71-.25.71-.73s-.21-.75-.71-.75H77.89Z" style="fill: #f4f4e6"/>
        <path d="M82.72,35.92h1.55v5.65H87.6v1.35H82.72Z" style="fill: #f4f4e6"/>
        <path d="M88.4,35.92h4.88v1.35H90v1.47h2.83v1.35H90v1.48h3.33v1.35H88.4Z" style="fill: #f4f4e6"/>
      </g>
    </g>
  </g>
</svg>
