<?xml version="1.0" encoding="UTF-8" standalone="no"?>
<!-- Generator: Adobe Illustrator 24.0.2, SVG Export Plug-In . SVG Version: 6.00 Build 0)  -->

<svg
   xmlns:dc="http://purl.org/dc/elements/1.1/"
   xmlns:cc="http://creativecommons.org/ns#"
   xmlns:rdf="http://www.w3.org/1999/02/22-rdf-syntax-ns#"
   xmlns:svg="http://www.w3.org/2000/svg"
   xmlns="http://www.w3.org/2000/svg"
   xmlns:xlink="http://www.w3.org/1999/xlink"
   xmlns:sodipodi="http://sodipodi.sourceforge.net/DTD/sodipodi-0.dtd"
   xmlns:inkscape="http://www.inkscape.org/namespaces/inkscape"
   version="1.0"
   id="Layer_1"
   x="0px"
   y="0px"
   width="20.00001px"
   height="20px"
   viewBox="0 0 20.00001 20"
   enable-background="new 0 0 20.00001 20"
   xml:space="preserve"
   sodipodi:docname="nysthi_gate_in.svg"
   inkscape:version="0.92.2 5c3e80d, 2017-08-06"><metadata
     id="metadata34"><rdf:RDF><cc:Work
         rdf:about=""><dc:format>image/svg+xml</dc:format><dc:type
           rdf:resource="http://purl.org/dc/dcmitype/StillImage" /><dc:title></dc:title></cc:Work></rdf:RDF></metadata><defs
     id="defs32" /><sodipodi:namedview
     pagecolor="#ffffff"
     bordercolor="#666666"
     borderopacity="1"
     objecttolerance="10"
     gridtolerance="10"
     guidetolerance="10"
     inkscape:pageopacity="0"
     inkscape:pageshadow="2"
     inkscape:window-width="748"
     inkscape:window-height="480"
     id="namedview30"
     showgrid="false"
     inkscape:pagecheckerboard="true"
     inkscape:zoom="11.8"
     inkscape:cx="10.000005"
     inkscape:cy="10"
     inkscape:window-x="0"
     inkscape:window-y="0"
     inkscape:window-maximized="0"
     inkscape:current-layer="Layer_1" /><g
     id="JACKS"><g
       id="g26"><defs
         id="defs3"><rect
           id="SVGID_1_"
           y="-0.00001"
           width="20.00005"
           height="20" /></defs><clipPath
         id="SVGID_2_"><use
           xlink:href="#SVGID_1_"
           overflow="visible"
           id="use5" /></clipPath><g
         id="XMLID_933_"
         clip-path="url(#SVGID_2_)"><g
           id="g23"><g
             id="g21"><path
               id="path7255_2_"
               fill="#F2C433"
               d="M0,10c0-5.51512,4.48483-9.99999,10.00001-9.99999C15.51509,0.00001,20,4.48488,20,10       s-4.48491,9.99999-9.99999,9.99999C4.48483,19.99999,0,15.51512,0,10" /><path
               id="path7261_2_"
               fill="#E5E5E5"
               d="M4.99996,9.99999C4.99996,7.24267,7.24268,5,9.99999,5       c2.7573,0,4.99997,2.24268,4.99997,4.99999s-2.24267,4.99998-4.99997,4.99998c-2.75732,0-5.00003-2.24268-5.00003-4.99999" /><path
               id="path7265_2_"
               d="M9.99999,13.50001c-1.93224,0-3.50005-1.56776-3.50005-3.49999       c0-1.93224,1.56779-3.50001,3.50005-3.50001c1.93223,0,3.49995,1.56776,3.49995,3.50001       C13.49994,11.93224,11.93222,13.50001,9.99999,13.50001" /><g
               id="g19"><g
                 id="g13"><path
                   fill="#CC9B12"
                   d="M10.00004,4.99999c2.76123,0,5,2.23877,5,5s-2.23877,5-5,5s-5-2.23877-5-5         S7.23881,4.99999,10.00004,4.99999 M10.00004,3.99999c-3.30859,0-6,2.69141-6,6s2.69141,6,6,6s6-2.69141,6-6         S13.30864,3.99999,10.00004,3.99999L10.00004,3.99999z"
                   id="path11" /></g><g
                 id="g17"><path
                   fill="#CC9B12"
                   d="M10.00004,0.99999c4.9624,0,9,4.0376,9,9s-4.0376,9-9,9s-9-4.0376-9-9         S5.03764,0.99999,10.00004,0.99999 M10.00004-0.00001c-5.52295,0-10,4.47705-10,10s4.47705,10,10,10s10-4.47705,10-10         S15.52299-0.00001,10.00004-0.00001L10.00004-0.00001z"
                   id="path15" /></g></g></g></g></g></g></g></svg>