<?xml version="1.0" encoding="UTF-8" standalone="no"?>
<!-- Generator: Adobe Illustrator 24.0.2, SVG Export Plug-In . SVG Version: 6.00 Build 0)  -->

<svg
   xmlns:dc="http://purl.org/dc/elements/1.1/"
   xmlns:cc="http://creativecommons.org/ns#"
   xmlns:rdf="http://www.w3.org/1999/02/22-rdf-syntax-ns#"
   xmlns:svg="http://www.w3.org/2000/svg"
   xmlns="http://www.w3.org/2000/svg"
   xmlns:sodipodi="http://sodipodi.sourceforge.net/DTD/sodipodi-0.dtd"
   xmlns:inkscape="http://www.inkscape.org/namespaces/inkscape"
   version="1.0"
   id="Layer_1"
   x="0px"
   y="0px"
   width="40"
   height="40"
   viewBox="0 0 40 39.999999"
   enable-background="new 0 0 77 76.98184"
   xml:space="preserve"
   sodipodi:docname="nysthi_tape_shadow_40.svg"
   inkscape:version="0.92.2 5c3e80d, 2017-08-06"><metadata
     id="metadata32"><rdf:RDF><cc:Work
         rdf:about=""><dc:format>image/svg+xml</dc:format><dc:type
           rdf:resource="http://purl.org/dc/dcmitype/StillImage" /><dc:title></dc:title></cc:Work></rdf:RDF></metadata><defs
     id="defs30" /><sodipodi:namedview
     pagecolor="#ffffff"
     bordercolor="#666666"
     borderopacity="1"
     objecttolerance="10"
     gridtolerance="10"
     guidetolerance="10"
     inkscape:pageopacity="0"
     inkscape:pageshadow="2"
     inkscape:window-width="1311"
     inkscape:window-height="785"
     id="namedview28"
     showgrid="false"
     inkscape:pagecheckerboard="true"
     inkscape:zoom="4.3354951"
     inkscape:cx="1.2504517"
     inkscape:cy="42.408064"
     inkscape:window-x="28"
     inkscape:window-y="21"
     inkscape:window-maximized="0"
     inkscape:current-layer="Layer_1" /><path
     style="opacity:0.7;fill:#b3b3b3;stroke:none;stroke-width:0.51973867;stroke-opacity:1"
     d="M 20,0.25 A 19.75,19.75 0 0 0 0.25,20 19.75,19.75 0 0 0 20,39.75 19.75,19.75 0 0 0 39.75,20 19.75,19.75 0 0 0 20,0.25 Z M 7.1121505,7.6907636 c 0.1008742,0 1.5121333,1.3078081 2.9834115,2.7123764 A 13.797668,13.797715 37.759555 0 0 9.1017681,11.538035 13.797668,13.797715 37.759555 0 0 6.7335139,16.237999 C 4.7672464,15.667197 3.1034029,15.138557 3.0080566,15.043213 2.7668883,14.802044 3.5881505,12.638132 4.5347836,11.021343 5.3169202,9.6855079 6.8609201,7.6907636 7.1121505,7.6907636 Z m 25.7066715,0 c 0.314521,0 1.95109,2.0948607 2.772268,3.5488284 0.788735,1.396522 1.648439,3.647397 1.46379,3.832044 -0.05844,0.05844 -1.876257,0.59742 -3.800575,1.150121 a 13.797668,13.797715 37.759555 0 0 -3.37829,-5.834858 C 31.333017,8.9912507 32.729238,7.6907636 32.818822,7.6907636 Z M 16.648103,33.366982 a 13.797668,13.797715 37.759555 0 0 6.707854,0 c 0.442105,1.835089 0.837247,3.565068 0.817164,3.70617 -0.04469,0.314004 -0.222945,0.400602 -1.155196,0.564402 -1.442067,0.253372 -4.534166,0.250967 -5.968853,-0.0051 -0.62557,-0.111552 -1.18905,-0.254128 -1.251632,-0.316715 -0.05729,-0.05729 0.329326,-1.822543 0.850663,-3.948782 z"
     id="ellipse2"
     inkscape:connector-curvature="0" /></svg>