<?xml version="1.0" encoding="UTF-8" standalone="no"?>
<!-- Generator: Adobe Illustrator 24.0.2, SVG Export Plug-In . SVG Version: 6.00 Build 0)  -->

<svg
   xmlns:dc="http://purl.org/dc/elements/1.1/"
   xmlns:cc="http://creativecommons.org/ns#"
   xmlns:rdf="http://www.w3.org/1999/02/22-rdf-syntax-ns#"
   xmlns:svg="http://www.w3.org/2000/svg"
   xmlns="http://www.w3.org/2000/svg"
   xmlns:sodipodi="http://sodipodi.sourceforge.net/DTD/sodipodi-0.dtd"
   xmlns:inkscape="http://www.inkscape.org/namespaces/inkscape"
   version="1.0"
   id="Layer_1"
   x="0px"
   y="0px"
   width="40"
   height="40"
   viewBox="0 0 40 39.999999"
   enable-background="new 0 0 77 76.98184"
   xml:space="preserve"
   sodipodi:docname="nysthi_tape_40.svg"
   inkscape:version="0.92.2 5c3e80d, 2017-08-06"><metadata
     id="metadata32"><rdf:RDF><cc:Work
         rdf:about=""><dc:format>image/svg+xml</dc:format><dc:type
           rdf:resource="http://purl.org/dc/dcmitype/StillImage" /><dc:title /></cc:Work></rdf:RDF></metadata><defs
     id="defs30" /><sodipodi:namedview
     pagecolor="#ffffff"
     bordercolor="#666666"
     borderopacity="1"
     objecttolerance="10"
     gridtolerance="10"
     guidetolerance="10"
     inkscape:pageopacity="0"
     inkscape:pageshadow="2"
     inkscape:window-width="1426"
     inkscape:window-height="769"
     id="namedview28"
     showgrid="false"
     inkscape:pagecheckerboard="true"
     inkscape:zoom="12.262632"
     inkscape:cx="6.7740637"
     inkscape:cy="19.432279"
     inkscape:window-x="61"
     inkscape:window-y="0"
     inkscape:window-maximized="0"
     inkscape:current-layer="Layer_1" /><g
     id="g846"><ellipse
       style="fill:#2e3a3d;stroke-width:0.51948231"
       id="ellipse2"
       ry="13.790864"
       rx="13.790911"
       cy="28.063066"
       cx="-3.5316591"
       transform="rotate(-52.173107)" /><path
       inkscape:connector-curvature="0"
       id="path851"
       d="M 19.99026,0.26948166 A 19.74026,19.74026 0 0 0 0.25,20.009742 19.74026,19.74026 0 0 0 19.99026,39.75 19.74026,19.74026 0 0 0 39.73052,20.009742 19.74026,19.74026 0 0 0 19.99026,0.26948166 Z M 7.1087688,7.7065763 c 0.2207584,0 6.5777252,6.1049677 6.5777142,6.3169647 0,0.08855 -0.267828,0.526538 -0.595574,0.973011 -0.32774,0.446473 -0.757475,1.200425 -0.954748,1.675122 -0.278431,0.669977 -0.438909,0.858248 -0.71733,0.843141 C 11.221559,17.504109 9.2906441,16.988103 7.1270285,16.368305 4.9634129,15.748508 3.1091687,15.15787 3.006696,15.0554 2.7656467,14.814349 3.5865038,12.651505 4.53267,11.035513 5.3144207,9.7003368 6.8576623,7.7065763 7.1087688,7.7065763 Z m 25.6939912,0 c 0.314365,0 1.950128,2.0938275 2.770901,3.5470787 0.788346,1.395833 1.647626,3.645597 1.463068,3.830153 -0.125964,0.125965 -8.253807,2.447629 -8.574473,2.44927 -0.121626,6.23e-4 -0.400627,-0.398493 -0.619926,-0.887784 -0.2193,-0.489291 -0.666174,-1.262777 -0.993304,-1.717736 -0.32713,-0.454958 -0.55115,-0.912408 -0.497159,-1.016639 0.190361,-0.367496 6.259224,-6.2043427 6.450893,-6.2043427 z M 19.937501,28.473622 c 1.146435,-0.0052 2.11451,0.03839 2.150973,0.0974 0.198903,0.321888 2.117257,8.191427 2.072849,8.503448 -0.04467,0.31385 -0.222835,0.400405 -1.154627,0.564125 -1.441356,0.253247 -4.531927,0.250722 -5.965906,-0.0052 -0.625262,-0.111496 -1.188468,-0.254005 -1.251018,-0.316561 -0.06255,-0.06255 0.37628,-2.075356 0.975044,-4.473418 l 1.088675,-4.360794 z"
       style="opacity:1;fill:#656666;fill-opacity:1;stroke:none;stroke-width:1.8969506;stroke-miterlimit:4;stroke-dasharray:none;stroke-dashoffset:0;stroke-opacity:1" /><path
       d="m 20.000255,0.51948005 c 10.741423,0 19.480265,8.73896625 19.480265,19.48058195 0,10.741553 -8.738842,19.480457 -19.480265,19.480457 -10.7416836,0 -19.48077448,-8.738904 -19.48077448,-19.480457 0,-10.7416157 8.73909088,-19.48058195 19.48077448,-19.48058195 M 11.525465,18.105153 c 0.392654,0 0.739143,-0.251055 0.862421,-0.624494 0.344711,-1.042384 0.891589,-1.988384 1.625153,-2.811615 0.32493,-0.364691 0.305906,-0.916572 -0.04338,-1.256598 L 7.8109766,7.4252982 C 7.640774,7.2595372 7.4160416,7.1682229 7.1783688,7.1682229 6.9254753,7.1683476 6.6817195,7.2746281 6.5094857,7.4597969 4.6223117,9.4891424 3.1972883,11.953568 2.3891532,14.586545 c -0.0728,0.236275 -0.047943,0.486 0.07026,0.703127 0.1176935,0.216618 0.3132623,0.372998 0.550426,0.440213 l 8.2685658,2.340899 c 0.08066,0.02283 0.163865,0.03437 0.24706,0.03437 m 16.94907,0 c 0.08345,0 0.166649,-0.01161 0.247309,-0.03443 l 8.268312,-2.340837 c 0.236909,-0.06709 0.432478,-0.223215 0.550171,-0.439709 0.118203,-0.216997 0.143569,-0.46666 0.07102,-0.703314 C 36.802452,11.953376 35.377688,9.4888878 33.490509,7.4601762 33.318281,7.2746281 33.07452,7.1682229 32.821626,7.1682229 c -0.237418,1.247e-4 -0.462156,0.09119 -0.632608,0.2568208 l -6.158171,5.9872153 c -0.349787,0.339767 -0.369065,0.891844 -0.04388,1.256722 0.733564,0.823294 1.280437,1.769289 1.624899,2.811486 0.123527,0.373631 0.470016,0.624686 0.86267,0.624686 m -8.47428,9.913122 c -0.54586,0 -1.092738,-0.05568 -1.625154,-0.165444 -0.06088,-0.01249 -0.123023,-0.01883 -0.184659,-0.01883 -0.417003,0 -0.779221,0.28187 -0.880681,0.685054 l -2.106587,8.32881 c -0.06037,0.239003 -0.02258,0.48638 0.106281,0.696593 0.129361,0.211163 0.333807,0.357839 0.575537,0.413007 1.34385,0.306795 2.72854,0.462343 4.115263,0.462343 1.386722,0 2.771153,-0.155553 4.114498,-0.462343 0.241985,-0.05517 0.446431,-0.201844 0.575792,-0.413007 0.128858,-0.210213 0.16665,-0.45759 0.106026,-0.696847 l -2.106077,-8.328047 c -0.101715,-0.403688 -0.463933,-0.685558 -0.880936,-0.685558 -0.06189,0 -0.124036,0.0063 -0.184914,0.0189 -0.531906,0.109694 -1.07853,0.165372 -1.624389,0.165372 m 0,-28.0182754737662 C 8.9544416,-4.7376624e-7 0,8.9543164 0,20.000062 0,31.045683 8.9544416,40 20.000255,40 31.045808,40 40,31.045683 40,20.000062 40,8.9543164 31.045808,-4.7376624e-7 20.000255,-4.7376625e-7 Z M 11.525465,17.585672 c -0.035,0 -0.07051,-0.0048 -0.105771,-0.01477 L 3.1513818,15.230062 C 2.940852,15.170389 2.8211273,14.948696 2.8855532,14.739371 3.6881091,12.125163 5.0735584,9.7666385 6.8899688,7.8136411 6.9675844,7.7301917 7.072852,7.6877034 7.178374,7.6877034 c 0.097403,0 0.1948052,0.03627 0.2703948,0.1098338 l 6.1586862,5.9874078 c 0.149657,0.145595 0.156758,0.382509 0.01775,0.538442 -0.766285,0.859948 -1.360592,1.875698 -1.730415,2.994181 -0.05404,0.163283 -0.205216,0.268104 -0.36933,0.268104 z m 16.94907,0 c -0.16386,0 -0.315288,-0.104758 -0.369319,-0.268109 -0.369824,-1.118483 -0.964135,-2.134234 -1.730416,-2.994182 -0.139003,-0.155932 -0.131901,-0.392846 0.01801,-0.538379 l 6.158432,-5.98747 c 0.07559,-0.073558 0.172992,-0.1098338 0.270394,-0.1098338 0.105522,0 0.210785,0.042488 0.288406,0.1260676 1.816405,1.9528727 3.201854,4.3113972 4.004665,6.9256052 0.06418,0.209392 -0.05555,0.43108 -0.266084,0.490691 l -8.268311,2.340836 c -0.03526,0.01002 -0.07077,0.01477 -0.105777,0.01477 z m -8.47428,10.952083 c 0.592535,0 1.171111,-0.06094 1.729402,-0.176098 0.02689,-0.0055 0.05352,-0.0082 0.0799,-0.0082 0.175019,0 0.332795,0.117122 0.37718,0.292966 l 2.106332,8.328556 c 0.05378,0.213003 -0.07939,0.427086 -0.29373,0.475979 -1.285766,0.293605 -2.624291,0.449346 -3.999085,0.449346 -1.375304,0 -2.713574,-0.155741 -3.999595,-0.449346 -0.214338,-0.04889 -0.347507,-0.262976 -0.29373,-0.475979 l 2.106332,-8.328556 c 0.04439,-0.175844 0.202161,-0.292966 0.37718,-0.292966 0.02638,0 0.05301,0.0026 0.0799,0.0082 0.558545,0.115158 1.137127,0.176098 1.729912,0.176098 z"
       id="path6"
       inkscape:connector-curvature="0"
       style="fill:#2e3a3d;fill-opacity:1;stroke-width:0.51948053" /><path
       d="m 23.040281,25.990005 c -0.258728,0 -0.49919,-0.138748 -0.628042,-0.362468 l -0.119216,-0.206473 c -0.726966,0.308188 -1.497059,0.464182 -2.293018,0.464182 -0.795958,0 -1.566052,-0.155994 -2.293018,-0.464182 l -0.119216,0.206473 c -0.128857,0.22372 -0.369319,0.362468 -0.628041,0.362468 -0.126826,0 -0.251626,-0.03374 -0.361709,-0.0974 -0.167917,-0.09639 -0.287642,-0.252893 -0.337865,-0.439834 -0.05022,-0.187194 -0.02435,-0.382509 0.07255,-0.550171 l 0.119725,-0.207995 C 15.198369,23.744166 14.358779,22.308239 14.161943,20.776176 H 13.920468 C 13.479112,20.693231 13.195527,20.36881 13.195527,20 c 0,-0.369065 0.274961,-0.688161 0.66812,-0.775923 l 0.02841,-0.0063 h 0.269886 c 0.19734,-1.528255 1.03693,-2.962411 2.290483,-3.912338 l -0.119725,-0.207995 c -0.09689,-0.167662 -0.122769,-0.362976 -0.07255,-0.550171 0.05022,-0.186941 0.169948,-0.343444 0.337865,-0.440089 0.110083,-0.06341 0.234883,-0.09715 0.361709,-0.09715 0.258727,0 0.499189,0.138748 0.628041,0.362468 l 0.119216,0.206473 C 18.433948,14.270788 19.204042,14.114793 20,14.114793 c 0.795959,0 1.566052,0.155995 2.293018,0.464182 l 0.119216,-0.206473 c 0.128857,-0.22372 0.369319,-0.362468 0.628042,-0.362468 0.126826,0 0.252129,0.03348 0.362218,0.09715 0.167413,0.09689 0.287641,0.253143 0.337865,0.440089 0.04971,0.187449 0.02435,0.382763 -0.07306,0.55068 l -0.119725,0.207486 c 1.254058,0.950182 2.093143,2.384083 2.290484,3.912338 h 0.269885 l 0.0279,0.0063 c 0.393667,0.08751 0.668628,0.406603 0.668628,0.775923 0,0.369064 -0.283584,0.693231 -0.674208,0.771106 l -0.291698,0.0028 c -0.196328,1.532821 -1.035917,2.969766 -2.290993,3.920707 l 0.119725,0.207995 c 0.09689,0.167158 0.122769,0.362467 0.07306,0.549413 -0.05022,0.187449 -0.169948,0.343953 -0.337865,0.440846 -0.110089,0.06367 -0.235392,0.09715 -0.362218,0.09715 z"
       id="path10"
       inkscape:connector-curvature="0"
       style="fill:#808080;stroke-width:0.51948053" /><path
       d="m 23.040281,14.269672 c 0.07889,0 0.158784,0.0201 0.232093,0.0624 0.222707,0.128473 0.298805,0.413076 0.170457,0.63559 l -0.237163,0.410535 c 1.342327,0.932743 2.258015,2.434561 2.399298,4.099283 h 0.474582 c 0.256951,0.05726 0.4652,0.265574 0.4652,0.522587 0,0.256951 -0.208249,0.465262 -0.4652,0.516374 h -0.474582 c -0.141283,1.670873 -1.056971,3.172686 -2.399298,4.105429 l 0.237163,0.410535 c 0.128348,0.222514 0.05225,0.507117 -0.170457,0.635589 -0.0733,0.0423 -0.153205,0.0624 -0.232093,0.0624 -0.160816,0 -0.31732,-0.08345 -0.40331,-0.232727 l -0.236405,-0.40946 C 21.672327,25.432353 20.858868,25.625568 20,25.625568 c -0.858868,0 -1.672332,-0.19322 -2.400317,-0.537361 l -0.236405,0.40946 c -0.08624,0.149273 -0.242748,0.232727 -0.403564,0.232727 -0.07889,0 -0.158784,-0.0201 -0.232093,-0.0624 -0.222452,-0.128472 -0.298805,-0.413075 -0.170203,-0.635589 L 16.794327,24.62187 C 15.452,23.689127 14.536312,22.187314 14.395283,20.516441 h -0.474836 c -0.256951,-0.05111 -0.4652,-0.259423 -0.4652,-0.516374 0,-0.257013 0.208249,-0.465325 0.4652,-0.522587 h 0.474836 c 0.141029,-1.664722 1.056717,-3.166535 2.399044,-4.099283 l -0.236909,-0.410535 c -0.128602,-0.222514 -0.05225,-0.507117 0.170203,-0.63559 0.0733,-0.0423 0.153205,-0.0624 0.232093,-0.0624 0.160816,0 0.31732,0.08345 0.403564,0.232728 l 0.236405,0.409459 C 18.327668,14.567714 19.141132,14.374498 20,14.374498 c 0.858868,0 1.672332,0.193221 2.400566,0.537361 L 22.636971,14.5024 c 0.08599,-0.149278 0.242494,-0.232728 0.40331,-0.232728 m 0,-0.51948 v 0 c -0.351055,-6.3e-5 -0.678016,0.188779 -0.853289,0.492722 l -0.0063,0.01091 C 21.485387,13.988945 20.754109,13.855018 20,13.855018 c -0.754109,0 -1.485392,0.133927 -2.1804,0.398805 l -0.0063,-0.01116 c -0.175527,-0.303813 -0.502488,-0.492467 -0.853543,-0.492467 -0.172228,0 -0.342431,0.04566 -0.491833,0.132026 -0.227782,0.131517 -0.390624,0.343891 -0.458858,0.597922 -0.06798,0.254223 -0.03298,0.519673 0.09867,0.747449 l 0.0074,0.013 c -1.14854,0.940478 -1.933085,2.280213 -2.176846,3.717408 h -0.01776 -0.05707 l -0.0558,0.01243 c -0.513392,0.114395 -0.871803,0.537808 -0.871803,1.029641 0,0.492592 0.3716,0.924057 0.883221,1.025896 l 0.05022,0.01 h 0.05124 0.0175 c 0.243507,1.440301 1.028307,2.782441 2.177356,3.723491 l -0.0079,0.01331 c -0.131392,0.227527 -0.166395,0.492971 -0.09841,0.747195 0.06823,0.254031 0.231075,0.466405 0.458857,0.597922 0.149402,0.08637 0.3196,0.132026 0.491833,0.132026 0.351055,0 0.678016,-0.188655 0.853289,-0.492338 l 0.0066,-0.01129 c 0.695008,0.264878 1.426291,0.398805 2.1804,0.398805 0.754109,0 1.485392,-0.133927 2.18065,-0.398805 l 0.0063,0.01116 c 0.175273,0.303683 0.502234,0.492468 0.853289,0.492468 0.172228,0 0.342431,-0.04566 0.491834,-0.132026 0.47027,-0.271216 0.632103,-0.874592 0.360696,-1.344992 l -0.0079,-0.01357 c 1.149044,-0.940987 1.933594,-2.283065 2.177356,-3.723366 h 0.01725 0.05124 l 0.05022,-0.01 c 0.511616,-0.101839 0.883221,-0.533304 0.883221,-1.025896 0,-0.491834 -0.358411,-0.915241 -0.871803,-1.029641 L 26.136623,18.958 h -0.05707 -0.0175 c -0.244016,-1.437071 -1.028561,-2.776863 -2.177101,-3.717278 l 0.0076,-0.01319 c 0.271662,-0.470717 0.109834,-1.074093 -0.360696,-1.345439 -0.149153,-0.08624 -0.319356,-0.131901 -0.491584,-0.131901 z"
       id="path12"
       inkscape:connector-curvature="0"
       style="fill:#2e3a3d;fill-opacity:1;stroke-width:0.51948053" /><circle
       style="fill:#2e3a3d;stroke-width:0.51948053"
       id="circle16"
       r="3.6363637"
       cy="19.996965"
       cx="20.009403" /><circle
       style="fill:#656666;stroke-width:0.51948053"
       id="circle18"
       r="4.1558442"
       cy="19.996965"
       cx="20.009403" /><circle
       style="fill:#808080;stroke-width:0.51948053"
       id="circle20"
       r="2.0779221"
       cy="19.996965"
       cx="20.009403" /><circle
       style="fill:#e5e5e5;stroke-width:0.51948053"
       id="circle22"
       r="1.5584415"
       cy="19.996965"
       cx="20.009403" /></g></svg>