<?xml version="1.0" encoding="utf-8"?>
<!-- Generator: Adobe Illustrator 24.3.0, SVG Export Plug-In . SVG Version: 6.00 Build 0)  -->
<svg version="1.0" id="Layer_1" xmlns="http://www.w3.org/2000/svg" xmlns:xlink="http://www.w3.org/1999/xlink" x="0px" y="0px"
	 width="120px" height="380px" viewBox="0 0 120 380" enable-background="new 0 0 120 380" xml:space="preserve">
<g id="base" display="none">
</g>
<g id="BACKGROUND">
	<g>
		<rect y="-0.00002" fill="#E5E5E5" width="120" height="380"/>
	</g>
</g>
<g id="PRINT">
	<path fill="none" stroke="#1E282B" stroke-width="0.75" stroke-linejoin="round" stroke-miterlimit="10" d="M4.26757,33.10173
		h14.65682c3.46694,0,6.27746-2.81051,6.27746-6.27746s-2.81051-6.27746-6.27746-6.27746H4.26757c0,0,0-7.64107,0-7.64107h111.46422
		v155.24942H4.26757C4.26757,168.15517,4.26757,33.10172,4.26757,33.10173z"/>
	
		<rect x="4.98055" y="176.4881" fill="none" stroke="#1E282B" stroke-width="0.75" stroke-linejoin="round" stroke-miterlimit="10" width="110.03891" height="138.22278"/>
	
		<line fill="none" stroke="#1E282B" stroke-width="0.5" stroke-miterlimit="10" x1="0.306" y1="364.70258" x2="120" y2="364.70258"/>
	<g>
		<g>
			<rect x="17.64077" y="8.23683" fill="#E5E5E5" width="84.68244" height="8.38125"/>
		</g>
		<g>
			<path fill="#1E282B" stroke="#1E282B" stroke-width="0.25" stroke-linejoin="round" stroke-miterlimit="10" d="
				M20.79492,13.93943h0.52051c0.05566,0.54395,0.55078,1.06348,1.32715,1.06348c0.87891,0,1.31934-0.57568,1.31934-1.09521
				c0-0.59961-0.53613-0.8877-1.08008-1.02344l-0.74316-0.17578c-1.13574-0.27197-1.30371-0.93555-1.30371-1.37549
				c0-0.91162,0.83984-1.53516,1.75098-1.53516c0.93555,0,1.67969,0.57568,1.71094,1.49512h-0.52734
				c-0.03223-0.60742-0.53613-0.99951-1.19922-0.99951c-0.62402,0-1.20703,0.42383-1.20703,1.03955
				c0,0.25586,0.0791,0.6958,0.90332,0.8877l0.74316,0.17578c0.87207,0.21582,1.47949,0.6875,1.47949,1.4873
				c0,0.77539-0.63965,1.61523-1.84668,1.61523C21.5625,15.499,20.83496,14.73924,20.79492,13.93943z"/>
			<path fill="#1E282B" stroke="#1E282B" stroke-width="0.25" stroke-linejoin="round" stroke-miterlimit="10" d="M26.09863,9.89402
				h0.52734v5.50879h-0.52734V9.89402z"/>
			<path fill="#1E282B" stroke="#1E282B" stroke-width="0.25" stroke-linejoin="round" stroke-miterlimit="10" d="
				M34.39941,15.40281l-0.56738-4.56543l-1.95898,3.99756h-0.48828l-1.97461-4.01367l-0.56738,4.58154h-0.51172l0.67969-5.50879
				h0.49512l2.11914,4.37354l2.11914-4.37354h0.4873l0.6875,5.50879H34.39941z"/>
			<path fill="#1E282B" stroke="#1E282B" stroke-width="0.25" stroke-linejoin="round" stroke-miterlimit="10" d="
				M40.36914,11.57273c0,0.85596-0.44824,1.6792-1.59961,1.6792h-1.61426v2.15088h-0.52832V9.89402h2.16699
				C39.9209,9.89402,40.36914,10.72557,40.36914,11.57273z M39.84082,11.57273c0-0.59131-0.29492-1.18311-1.05469-1.18311h-1.63086
				v2.3667h1.59082C39.53711,12.75633,39.84082,12.17283,39.84082,11.57273z"/>
			<path fill="#1E282B" stroke="#1E282B" stroke-width="0.25" stroke-linejoin="round" stroke-miterlimit="10" d="M41.88281,9.89402
				h0.52832v5.01318h2.3418v0.49561h-2.87012V9.89402z"/>
			<path fill="#1E282B" stroke="#1E282B" stroke-width="0.25" stroke-linejoin="round" stroke-miterlimit="10" d="
				M49.38477,14.90721v0.49561H46.1543v-5.5088h3.14258v0.49561h-2.62305v2.06299h2.28711v0.49561h-2.28711v1.95898H49.38477z"/>
			<path fill="#1E282B" stroke="#1E282B" stroke-width="0.25" stroke-linejoin="round" stroke-miterlimit="10" d="
				M53.08984,13.24412l1.52637,2.15869h-0.63867l-1.51172-2.15869H51.5459v2.15869h-0.52734V9.89402h2.04688
				c1.15137,0,1.59082,0.83154,1.59082,1.67871C54.65625,12.41258,54.22461,13.22019,53.08984,13.24412z M51.5459,12.75633h1.3916
				c0.86328,0,1.19141-0.52783,1.19141-1.18359c0-0.65527-0.35156-1.18311-1.05566-1.18311H51.5459V12.75633z"/>
			<path fill="#1E282B" stroke="#1E282B" stroke-width="0.25" stroke-linejoin="round" stroke-miterlimit="10" d="
				M61.94531,10.38963h-1.75977v5.01318H59.6582v-5.01318h-1.75098V9.89402h4.03809V10.38963z"/>
			<path fill="#1E282B" stroke="#1E282B" stroke-width="0.25" stroke-linejoin="round" stroke-miterlimit="10" d="
				M65.76074,13.93943h-2.54297l-0.55176,1.46338h-0.55957l2.10352-5.50879h0.55957l2.09473,5.50879H66.3125L65.76074,13.93943z
				 M65.57715,13.46775l-1.08789-2.87012l-1.08691,2.87012H65.57715z"/>
			<path fill="#1E282B" stroke="#1E282B" stroke-width="0.25" stroke-linejoin="round" stroke-miterlimit="10" d="
				M71.88086,11.57273c0,0.85596-0.44824,1.6792-1.59961,1.6792h-1.61426v2.15088h-0.52832V9.89402h2.16699
				C71.43262,9.89402,71.88086,10.72557,71.88086,11.57273z M71.35254,11.57273c0-0.59131-0.29492-1.18311-1.05469-1.18311h-1.63086
				v2.3667h1.59082C71.04883,12.75633,71.35254,12.17283,71.35254,11.57273z"/>
			<path fill="#1E282B" stroke="#1E282B" stroke-width="0.25" stroke-linejoin="round" stroke-miterlimit="10" d="M76.625,14.90721
				v0.49561h-3.23047v-5.5088h3.14258v0.49561h-2.62305v2.06299h2.28711v0.49561h-2.28711v1.95898H76.625z"/>
			<path fill="#1E282B" stroke="#1E282B" stroke-width="0.25" stroke-linejoin="round" stroke-miterlimit="10" d="
				M80.35547,12.66014c0-1.55908,1.22266-2.8623,2.7666-2.8623c0.77539,0,1.4707,0.31982,1.9502,0.83984l-0.375,0.32764
				c-0.39258-0.40771-0.95996-0.67188-1.5752-0.67188c-1.25586,0-2.23926,1.0874-2.23926,2.3667s0.9834,2.34277,2.23926,2.34277
				c0.61523,0,1.1748-0.25586,1.5752-0.67139l0.375,0.33545c-0.47949,0.51172-1.1748,0.83203-1.9502,0.83203
				C81.57812,15.499,80.35547,14.21971,80.35547,12.66014z"/>
			<path fill="#1E282B" stroke="#1E282B" stroke-width="0.25" stroke-linejoin="round" stroke-miterlimit="10" d="
				M89.96875,10.38963h-1.75977v5.01318h-0.52734v-5.01318h-1.75098V9.89402h4.03809V10.38963z"/>
			<path fill="#1E282B" stroke="#1E282B" stroke-width="0.25" stroke-linejoin="round" stroke-miterlimit="10" d="
				M93.42578,13.24412l1.52637,2.15869h-0.63867l-1.51172-2.15869h-0.91992v2.15869h-0.52734V9.89402h2.04688
				c1.15137,0,1.59082,0.83154,1.59082,1.67871C94.99219,12.41258,94.56055,13.22019,93.42578,13.24412z M91.88184,12.75633h1.3916
				c0.86328,0,1.19141-0.52783,1.19141-1.18359c0-0.65527-0.35156-1.18311-1.05566-1.18311h-1.52734
				C91.88185,10.38963,91.88185,12.75633,91.88184,12.75633z"/>
			<path fill="#1E282B" stroke="#1E282B" stroke-width="0.25" stroke-linejoin="round" stroke-miterlimit="10" d="M96.66602,9.89402
				h0.52832v5.01318h2.3418v0.49561h-2.87012V9.89402z"/>
		</g>
	</g>
	<g>
		<g>
			<rect x="66.00016" y="172.29747" fill="#E5E5E5" width="44.02752" height="8.38126"/>
		</g>
		<g>
			<path fill="#1E282B" stroke="#1E282B" stroke-width="0.25" stroke-linejoin="round" stroke-miterlimit="10" d="
				M69.42969,174.4502v2.06299h2.03809v0.49561h-2.03809v2.45459h-0.52832v-5.50879h3.10254v0.49561H69.42969z"/>
			<path fill="#1E282B" stroke="#1E282B" stroke-width="0.25" stroke-linejoin="round" stroke-miterlimit="10" d="
				M72.95801,176.7207c0-1.56689,1.21484-2.8623,2.78223-2.8623s2.78223,1.29541,2.78223,2.8623
				c0,1.55957-1.21484,2.83887-2.78223,2.83887S72.95801,178.28027,72.95801,176.7207z M77.99512,176.7207
				c0-1.2793-0.9834-2.3667-2.25488-2.3667s-2.25488,1.0874-2.25488,2.3667s0.9834,2.34277,2.25488,2.34277
				S77.99512,178,77.99512,176.7207z"/>
			<path fill="#1E282B" stroke="#1E282B" stroke-width="0.25" stroke-linejoin="round" stroke-miterlimit="10" d="
				M82.23633,177.30469l1.52734,2.15869h-0.64062l-1.51074-2.15869h-0.91895v2.15869h-0.52832v-5.50879h2.04688
				c1.15137,0,1.59082,0.83154,1.59082,1.67871C83.80273,176.47314,83.37109,177.28076,82.23633,177.30469z M80.69336,176.81689
				h1.39062c0.86328,0,1.19141-0.52783,1.19141-1.18359c0-0.65527-0.35156-1.18311-1.05566-1.18311h-1.52637V176.81689z"/>
			<path fill="#1E282B" stroke="#1E282B" stroke-width="0.25" stroke-linejoin="round" stroke-miterlimit="10" d="
				M91.69824,173.95459l-1.86328,5.50879h-0.49512l-1.10352-3.82178l-1.0957,3.82178h-0.49609l-1.8623-5.50879h0.55957
				l1.54297,4.68506l1.12695-3.88574h0.45605l1.12793,3.91016l1.54297-4.70947H91.69824z"/>
			<path fill="#1E282B" stroke="#1E282B" stroke-width="0.25" stroke-linejoin="round" stroke-miterlimit="10" d="M95.73242,178
				h-2.54297l-0.55176,1.46338h-0.55957l2.10352-5.50879h0.55957l2.09473,5.50879h-0.55176L95.73242,178z M95.54883,177.52832
				l-1.08789-2.87012l-1.08691,2.87012H95.54883z"/>
			<path fill="#1E282B" stroke="#1E282B" stroke-width="0.25" stroke-linejoin="round" stroke-miterlimit="10" d="
				M100.18066,177.30469l1.52637,2.15869h-0.63867l-1.51172-2.15869h-0.91992v2.15869h-0.52734v-5.50879h2.04688
				c1.15137,0,1.59082,0.83154,1.59082,1.67871C101.74707,176.47314,101.31543,177.28076,100.18066,177.30469z M98.63672,176.81689
				h1.3916c0.86328,0,1.19141-0.52783,1.19141-1.18359c0-0.65527-0.35156-1.18311-1.05566-1.18311h-1.52734
				C98.63673,174.4502,98.63673,176.81689,98.63672,176.81689z"/>
			<path fill="#1E282B" stroke="#1E282B" stroke-width="0.25" stroke-linejoin="round" stroke-miterlimit="10" d="
				M103.4209,173.95459h2.08691c1.55957,0,2.46289,1.19922,2.46289,2.76611c0,1.55957-0.90332,2.74268-2.46289,2.74268h-2.08691
				V173.95459z M105.50781,178.96777c1.25586,0,1.93457-0.97559,1.93457-2.24707c0-1.2793-0.67871-2.27051-1.93457-2.27051h-1.55859
				v4.51758H105.50781z"/>
		</g>
	</g>
	<g>
		<g>
			<rect x="8.1237" y="172.29747" fill="#E5E5E5" width="46.87721" height="8.38126"/>
		</g>
		<g>
			<path fill="#1E282B" stroke="#1E282B" stroke-width="0.25" stroke-linejoin="round" stroke-miterlimit="10" d="
				M13.69336,177.94434c0,0.7832-0.58301,1.51904-1.55859,1.51904H9.93555v-5.50879h1.99902
				c0.8877,0,1.46289,0.50342,1.46289,1.35889c0,0.49609-0.21582,1.00781-0.72754,1.21533
				C13.37402,176.71289,13.69336,177.36865,13.69336,177.94434z M10.46387,174.4502v1.87109h1.56641
				c0.54395,0,0.83984-0.42383,0.83984-0.96777c0-0.55957-0.35938-0.90332-0.94336-0.90332H10.46387z M13.16602,177.9043
				c0-0.5918-0.42383-1.11963-1.14355-1.11963h-1.55859v2.18311h1.58301C12.75781,178.96777,13.16602,178.47168,13.16602,177.9043z"
				/>
			<path fill="#1E282B" stroke="#1E282B" stroke-width="0.25" stroke-linejoin="round" stroke-miterlimit="10" d="M18.25391,178
				h-2.54297l-0.55176,1.46338h-0.55957l2.10352-5.50879h0.55957l2.09473,5.50879h-0.55176L18.25391,178z M18.07031,177.52832
				l-1.08789-2.87012l-1.08691,2.87012H18.07031z"/>
			<path fill="#1E282B" stroke="#1E282B" stroke-width="0.25" stroke-linejoin="round" stroke-miterlimit="10" d="
				M20.15234,176.7207c0-1.55908,1.22266-2.8623,2.7666-2.8623c0.77539,0,1.4707,0.31982,1.9502,0.83984l-0.375,0.32764
				c-0.39258-0.40771-0.95996-0.67188-1.5752-0.67188c-1.25586,0-2.23926,1.0874-2.23926,2.3667s0.9834,2.34277,2.23926,2.34277
				c0.61523,0,1.1748-0.25586,1.5752-0.67139l0.375,0.33545c-0.47949,0.51172-1.1748,0.83203-1.9502,0.83203
				C21.375,179.55957,20.15234,178.28027,20.15234,176.7207z"/>
			<path fill="#1E282B" stroke="#1E282B" stroke-width="0.25" stroke-linejoin="round" stroke-miterlimit="10" d="
				M29.30176,179.46338l-2.40723-2.42285v2.42285H26.375v-5.50879h0.51953v2.59033l2.06348-2.59033h0.65527l-2.25488,2.82227
				l2.6543,2.68652H29.30176z"/>
			<path fill="#1E282B" stroke="#1E282B" stroke-width="0.25" stroke-linejoin="round" stroke-miterlimit="10" d="
				M37.41211,173.95459l-1.86328,5.50879h-0.49512l-1.10352-3.82178l-1.0957,3.82178H32.3584l-1.8623-5.50879h0.55957
				l1.54297,4.68506l1.12695-3.88574h0.45605l1.12793,3.91016l1.54297-4.70947H37.41211z"/>
			<path fill="#1E282B" stroke="#1E282B" stroke-width="0.25" stroke-linejoin="round" stroke-miterlimit="10" d="M41.44629,178
				h-2.54297l-0.55176,1.46338h-0.55957l2.10352-5.50879h0.55957l2.09473,5.50879h-0.55176L41.44629,178z M41.2627,177.52832
				l-1.08789-2.87012l-1.08691,2.87012H41.2627z"/>
			<path fill="#1E282B" stroke="#1E282B" stroke-width="0.25" stroke-linejoin="round" stroke-miterlimit="10" d="
				M45.89453,177.30469l1.52637,2.15869h-0.63867l-1.51172-2.15869h-0.91992v2.15869h-0.52734v-5.50879h2.04688
				c1.15137,0,1.59082,0.83154,1.59082,1.67871C47.46094,176.47314,47.0293,177.28076,45.89453,177.30469z M44.35059,176.81689
				h1.3916c0.86328,0,1.19141-0.52783,1.19141-1.18359c0-0.65527-0.35156-1.18311-1.05566-1.18311H44.3506v2.3667H44.35059z"/>
			<path fill="#1E282B" stroke="#1E282B" stroke-width="0.25" stroke-linejoin="round" stroke-miterlimit="10" d="
				M49.13574,173.95459h2.08691c1.55957,0,2.46289,1.19922,2.46289,2.76611c0,1.55957-0.90332,2.74268-2.46289,2.74268h-2.08691
				V173.95459z M51.22266,178.96777c1.25488,0,1.93457-0.97559,1.93457-2.24707c0-1.2793-0.67969-2.27051-1.93457-2.27051h-1.55957
				v4.51758H51.22266z"/>
		</g>
	</g>
	<g>
		<path fill="#1E282B" d="M38.6439,374.46884h-0.12793c-0.52441,0-0.63477-0.61475-0.63477-1.13037v-1.06592h0.60254
			c0.06934,0,0.125-0.05615,0.125-0.125v-0.42383c0-0.06885-0.05566-0.125-0.125-0.125H37.8812v-0.53906
			c0-0.06885-0.05566-0.125-0.125-0.125h-0.51172c-0.06934,0-0.125,0.05615-0.125,0.125v0.53076h-1.05762
			c-0.50586,0-0.85938-0.3335-0.85938-0.81055c0-0.45117,0.33105-0.77832,0.78711-0.77832
			c0.30078,0,0.57617,0.14111,0.73633,0.37695c0.03906,0.05664,0.11523,0.0708,0.17188,0.03418l0.41504-0.27197
			c0.05762-0.0376,0.07422-0.11523,0.03613-0.17285c-0.29199-0.44727-0.78809-0.7041-1.35938-0.7041
			c-0.88281,0-1.54883,0.63477-1.54883,1.47656c0,0.47168,0.19238,0.90234,0.50488,1.16016
			c-0.56543,0.29443-0.91992,0.88574-0.91992,1.56592c0,1.01318,0.76855,1.74854,1.82812,1.74854
			c0.64551,0,1.20801-0.24805,1.53711-0.66211c0.17188,0.40967,0.57422,0.646,1.125,0.646h0.12793
			c0.06934,0,0.125-0.05615,0.125-0.125v-0.47998C38.7689,374.52499,38.71324,374.46884,38.6439,374.46884z M35.92515,374.47714
			c-0.68555,0-1.14551-0.42871-1.14551-1.06641c0-0.66992,0.53711-1.13818,1.30566-1.13818h1.03418v1.12012
			C37.09703,374.03134,36.60679,374.47714,35.92515,374.47714z"/>
		<g>
			<path fill="#1E282B" stroke="#1E282B" stroke-width="0.25" stroke-linejoin="round" stroke-miterlimit="10" d="
				M9.57227,369.60986v5.50879H9.0293l-2.82227-4.58936v4.58936H5.67969v-5.50879h0.55078l2.81445,4.58154v-4.58154H9.57227z"/>
			<path fill="#1E282B" stroke="#1E282B" stroke-width="0.25" stroke-linejoin="round" stroke-miterlimit="10" d="
				M15.34961,369.60986l-2.10352,2.92627v2.58252h-0.52734v-2.58252l-2.07031-2.92627h0.62305l1.71875,2.41455l1.72656-2.41455
				H15.34961z"/>
			<path fill="#1E282B" stroke="#1E282B" stroke-width="0.25" stroke-linejoin="round" stroke-miterlimit="10" d="
				M15.94336,373.65527h0.51953c0.05664,0.54395,0.55078,1.06348,1.32812,1.06348c0.87891,0,1.31836-0.57568,1.31836-1.09521
				c0-0.59961-0.53516-0.8877-1.08008-1.02344l-0.74219-0.17578c-1.13672-0.27197-1.30469-0.93555-1.30469-1.37549
				c0-0.91162,0.83984-1.53516,1.75195-1.53516c0.93555,0,1.67969,0.57568,1.71094,1.49512h-0.52734
				c-0.0332-0.60742-0.53516-0.99951-1.19922-0.99951c-0.625,0-1.20703,0.42383-1.20703,1.03955
				c0,0.25586,0.08008,0.6958,0.90234,0.8877l0.74414,0.17578c0.87109,0.21582,1.47852,0.6875,1.47852,1.4873
				c0,0.77539-0.63867,1.61523-1.8457,1.61523C16.71094,375.21484,15.98242,374.45508,15.94336,373.65527z"/>
			<path fill="#1E282B" stroke="#1E282B" stroke-width="0.25" stroke-linejoin="round" stroke-miterlimit="10" d="
				M24.35742,370.10547h-1.75977v5.01318h-0.52734v-5.01318h-1.75v-0.49561h4.03711V370.10547z"/>
			<path fill="#1E282B" stroke="#1E282B" stroke-width="0.25" stroke-linejoin="round" stroke-miterlimit="10" d="
				M29.62891,369.60986v5.50879h-0.52734v-2.50244h-3.0293v2.50244h-0.5293v-5.50879h0.5293v2.53467h3.0293v-2.53467H29.62891z"/>
			<path fill="#1E282B" stroke="#1E282B" stroke-width="0.25" stroke-linejoin="round" stroke-miterlimit="10" d="
				M31.46289,369.60986h0.5293v5.50879h-0.5293V369.60986z"/>
		</g>
	</g>
	<g>
		<path fill="#1E282B" stroke="#1E282B" stroke-width="0.25" stroke-linejoin="round" stroke-miterlimit="10" d="
			M45.98047,371.38525c0,0.85547-0.44824,1.6792-1.59961,1.6792h-1.61523v2.15088h-0.52734v-5.50879h2.16699
			C45.53223,369.70654,45.98047,370.53809,45.98047,371.38525z M45.45312,371.38525c0-0.59131-0.2959-1.18311-1.05566-1.18311
			h-1.63184v2.3667h1.5918C45.14844,372.56885,45.45312,371.98486,45.45312,371.38525z"/>
		<path fill="#1E282B" stroke="#1E282B" stroke-width="0.25" stroke-linejoin="round" stroke-miterlimit="10" d="
			M51.19629,369.70654l-2.10352,2.92627v2.58252h-0.52734v-2.58252l-2.07129-2.92627h0.62402l1.71875,2.41455l1.72754-2.41455
			H51.19629z"/>
		<path fill="#1E282B" stroke="#1E282B" stroke-width="0.25" stroke-linejoin="round" stroke-miterlimit="10" d="
			M55.49219,374.71973v0.49561h-3.23047v-5.50879h3.14258v0.49561h-2.62305v2.06299h2.28711v0.49561h-2.28711v1.95898H55.49219z"/>
		<path fill="#1E282B" stroke="#1E282B" stroke-width="0.25" stroke-linejoin="round" stroke-miterlimit="10" d="
			M58.99707,373.05664l1.52637,2.15869h-0.63867l-1.51172-2.15869h-0.91992v2.15869h-0.52734v-5.50879h2.04688
			c1.15137,0,1.59082,0.83154,1.59082,1.67871C60.56348,372.2251,60.13184,373.03271,58.99707,373.05664z M57.45312,372.56885
			h1.3916c0.86328,0,1.19141-0.52783,1.19141-1.18359c0-0.65527-0.35156-1.18311-1.05566-1.18311h-1.52734v2.3667H57.45312z"/>
		<path fill="#1E282B" stroke="#1E282B" stroke-width="0.25" stroke-linejoin="round" stroke-miterlimit="10" d="
			M64.33398,369.70654h2.08691c1.55957,0,2.46289,1.19922,2.46289,2.76611c0,1.55908-0.90332,2.74268-2.46289,2.74268h-2.08691
			V369.70654z M66.4209,374.71973c1.25488,0,1.93457-0.97559,1.93457-2.24707c0-1.2793-0.67969-2.27051-1.93457-2.27051h-1.55957
			v4.51758H66.4209z"/>
		<path fill="#1E282B" stroke="#1E282B" stroke-width="0.25" stroke-linejoin="round" stroke-miterlimit="10" d="M70.3418,369.70654
			h0.52734v5.50879H70.3418V369.70654z"/>
		<path fill="#1E282B" stroke="#1E282B" stroke-width="0.25" stroke-linejoin="round" stroke-miterlimit="10" d="
			M72.31836,373.75195h0.51953c0.05664,0.54395,0.55176,1.06348,1.32812,1.06348c0.87891,0,1.31934-0.57568,1.31934-1.09521
			c0-0.59961-0.53613-0.8877-1.08008-1.02344l-0.74316-0.17578c-1.13574-0.27197-1.30371-0.93555-1.30371-1.37549
			c0-0.91162,0.83984-1.53516,1.75098-1.53516c0.93555,0,1.67969,0.57568,1.71094,1.49512h-0.52734
			c-0.03223-0.60742-0.53516-0.99951-1.19922-0.99951c-0.62402,0-1.20703,0.42383-1.20703,1.03955
			c0,0.25586,0.08008,0.6958,0.90332,0.8877l0.74316,0.17578c0.87207,0.21582,1.47949,0.6875,1.47949,1.4873
			c0,0.77539-0.63965,1.61475-1.84668,1.61475C73.08594,375.31104,72.3584,374.55176,72.31836,373.75195z"/>
		<path fill="#1E282B" stroke="#1E282B" stroke-width="0.25" stroke-linejoin="round" stroke-miterlimit="10" d="M77.0459,373.75195
			h0.52051c0.05566,0.54395,0.55078,1.06348,1.32715,1.06348c0.87891,0,1.31934-0.57568,1.31934-1.09521
			c0-0.59961-0.53613-0.8877-1.08008-1.02344l-0.74316-0.17578c-1.13574-0.27197-1.30371-0.93555-1.30371-1.37549
			c0-0.91162,0.83984-1.53516,1.75098-1.53516c0.93555,0,1.67969,0.57568,1.71094,1.49512h-0.52734
			c-0.03223-0.60742-0.53613-0.99951-1.19922-0.99951c-0.62402,0-1.20703,0.42383-1.20703,1.03955
			c0,0.25586,0.0791,0.6958,0.90332,0.8877l0.74316,0.17578c0.87207,0.21582,1.47949,0.6875,1.47949,1.4873
			c0,0.77539-0.63965,1.61475-1.84668,1.61475C77.81348,375.31104,77.08594,374.55176,77.0459,373.75195z"/>
		<path fill="#1E282B" stroke="#1E282B" stroke-width="0.25" stroke-linejoin="round" stroke-miterlimit="10" d="
			M81.75098,372.47266c0-1.56689,1.21484-2.8623,2.78223-2.8623s2.78223,1.29541,2.78223,2.8623
			c0,1.55908-1.21484,2.83838-2.78223,2.83838S81.75098,374.03174,81.75098,372.47266z M86.78809,372.47266
			c0-1.2793-0.9834-2.3667-2.25488-2.3667s-2.25488,1.0874-2.25488,2.3667s0.9834,2.34277,2.25488,2.34277
			S86.78809,373.75195,86.78809,372.47266z"/>
		<path fill="#1E282B" stroke="#1E282B" stroke-width="0.25" stroke-linejoin="round" stroke-miterlimit="10" d="M88.3584,372.47266
			c0-1.55908,1.22266-2.8623,2.7666-2.8623c0.77539,0,1.4707,0.31982,1.9502,0.83936l-0.375,0.32812
			c-0.39258-0.40771-0.95996-0.67188-1.5752-0.67188c-1.25586,0-2.23926,1.0874-2.23926,2.3667s0.9834,2.34277,2.23926,2.34277
			c0.61523,0,1.1748-0.25586,1.5752-0.67139l0.375,0.33594c-0.47949,0.51172-1.1748,0.83105-1.9502,0.83105
			C89.58105,375.31104,88.3584,374.03174,88.3584,372.47266z"/>
		<path fill="#1E282B" stroke="#1E282B" stroke-width="0.25" stroke-linejoin="round" stroke-miterlimit="10" d="
			M94.38184,369.70654h0.52832v5.50879h-0.52832V369.70654z"/>
		<path fill="#1E282B" stroke="#1E282B" stroke-width="0.25" stroke-linejoin="round" stroke-miterlimit="10" d="
			M99.62793,373.75195h-2.54297l-0.55176,1.46338h-0.55957l2.10352-5.50879h0.55957l2.09473,5.50879h-0.55176L99.62793,373.75195z
			 M99.44434,373.28027l-1.08789-2.87012l-1.08691,2.87012H99.44434z"/>
		<path fill="#1E282B" stroke="#1E282B" stroke-width="0.25" stroke-linejoin="round" stroke-miterlimit="10" d="
			M104.73242,370.20215h-1.75977v5.01318h-0.52734v-5.01318h-1.75098v-0.49561h4.03809V370.20215z"/>
		<path fill="#1E282B" stroke="#1E282B" stroke-width="0.25" stroke-linejoin="round" stroke-miterlimit="10" d="
			M109.14844,374.71973v0.49561h-3.23047v-5.50879h3.14258v0.49561h-2.62305v2.06299h2.28711v0.49561h-2.28711v1.95898H109.14844z"
			/>
		<path fill="#1E282B" stroke="#1E282B" stroke-width="0.25" stroke-linejoin="round" stroke-miterlimit="10" d="
			M110.20605,373.75195h0.52051c0.05566,0.54395,0.55078,1.06348,1.32715,1.06348c0.87891,0,1.31934-0.57568,1.31934-1.09521
			c0-0.59961-0.53613-0.8877-1.08008-1.02344l-0.74316-0.17578c-1.13574-0.27197-1.30371-0.93555-1.30371-1.37549
			c0-0.91162,0.83984-1.53516,1.75098-1.53516c0.93555,0,1.67969,0.57568,1.71094,1.49512h-0.52734
			c-0.03223-0.60742-0.53613-0.99951-1.19922-0.99951c-0.62402,0-1.20703,0.42383-1.20703,1.03955
			c0,0.25586,0.0791,0.6958,0.90332,0.8877l0.74316,0.17578c0.87207,0.21582,1.47949,0.6875,1.47949,1.4873
			c0,0.77539-0.63965,1.61475-1.84668,1.61475C110.97363,375.31104,110.24609,374.55176,110.20605,373.75195z"/>
	</g>
	<path fill="none" stroke="#1E282B" stroke-width="0.75" stroke-linejoin="round" stroke-miterlimit="10" d="M77.04424,188.07446
		L72.37937,190.22c-0.31592,0.14531-0.67611-0.08549-0.67611-0.43323v-4.29109c0-0.34772,0.36019-0.57852,0.67611-0.43321
		l4.66487,2.14554C77.41438,187.37825,77.41438,187.90422,77.04424,188.07446z"/>
	<path fill="#1E282B" stroke="#1E282B" stroke-width="0.75" stroke-linejoin="round" stroke-miterlimit="10" d="M48.60738,104.10999
		l-4.66488,2.14555c-0.31591,0.1453-0.67611-0.08549-0.67611-0.43322v-4.29109c0-0.34773,0.36019-0.57853,0.67611-0.43323
		l4.66488,2.14555C48.9775,103.41375,48.9775,103.93974,48.60738,104.10999z"/>
	<path fill="none" stroke="#1E282B" stroke-width="0.75" stroke-linejoin="round" stroke-miterlimit="10" d="M73.81802,217.44684
		l-3.9174,2.15222c-0.29077,0.15976-0.64639-0.05063-0.64639-0.38239v-4.30444c0-0.33176,0.35561-0.54214,0.64639-0.38239
		l3.9174,2.15222C74.11964,216.84778,74.11964,217.28113,73.81802,217.44684z"/>
	<path fill="none" stroke="#1E282B" stroke-width="0.75" stroke-linejoin="round" stroke-miterlimit="10" d="M80.08206,217.44684
		l-3.9174,2.15222c-0.29077,0.15976-0.64639-0.05063-0.64639-0.38239v-4.30444c0-0.33176,0.35562-0.54214,0.64639-0.38239
		l3.9174,2.15222C80.38368,216.84778,80.38368,217.28113,80.08206,217.44684z"/>
	<path fill="none" stroke="#1E282B" stroke-width="0.75" stroke-linejoin="round" stroke-miterlimit="10" d="M43.62385,188.07446
		l4.66488,2.14554c0.31591,0.14531,0.67611-0.08549,0.67611-0.43323v-4.29109c0-0.34772-0.36019-0.57852-0.67611-0.43321
		l-4.66488,2.14554C43.25372,187.37825,43.25372,187.90422,43.62385,188.07446z"/>
	<path fill="none" stroke="#1E282B" stroke-width="0.75" stroke-linejoin="round" stroke-miterlimit="10" d="M46.85008,217.44684
		l3.9174,2.15222c0.29077,0.15976,0.64639-0.05063,0.64639-0.38239v-4.30444c0-0.33176-0.35562-0.54214-0.64639-0.38239
		l-3.9174,2.15222C46.54845,216.84778,46.54845,217.28113,46.85008,217.44684z"/>
	<path fill="none" stroke="#1E282B" stroke-width="0.75" stroke-linejoin="round" stroke-miterlimit="10" d="M40.58603,217.44684
		l3.91741,2.15222c0.29077,0.15976,0.64639-0.05063,0.64639-0.38239v-4.30444c0-0.33176-0.35562-0.54214-0.64639-0.38239
		l-3.91741,2.15222C40.28441,216.84778,40.28441,217.28113,40.58603,217.44684z"/>
	<path fill="none" stroke="#1E282B" stroke-width="0.75" stroke-linejoin="round" stroke-miterlimit="10" d="M72.31802,246.46552
		l-3.9174,2.15222c-0.29077,0.15976-0.64639-0.05063-0.64639-0.38239v-4.30444c0-0.33176,0.35561-0.54214,0.64639-0.38239
		l3.9174,2.15222C72.61964,245.86646,72.61964,246.2998,72.31802,246.46552z"/>
	<g>
		<path fill="#1E282B" stroke="#1E282B" stroke-width="0.25" stroke-linejoin="round" stroke-miterlimit="10" d="
			M76.48633,242.96973h0.51855l-2.69727,5.49854h-0.51074L76.48633,242.96973z"/>
		<path fill="#1E282B" stroke="#1E282B" stroke-width="0.25" stroke-linejoin="round" stroke-miterlimit="10" d="
			M81.02734,247.97363v0.49463h-3.18359v-0.21533l2.07422-2.49805c0.31152-0.38281,0.53516-0.79785,0.53516-1.10938
			c0-0.60645-0.43848-1.00537-1.06934-1.00537c-0.58301,0-1.02148,0.31104-1.11719,0.81396l-0.45508-0.11182
			c0.12793-0.73389,0.74219-1.18896,1.57227-1.18896c0.93359,0,1.58008,0.59033,1.58008,1.49219
			c0,0.43896-0.25586,0.94189-0.59082,1.34082l-1.66797,1.9873H81.02734z"/>
	</g>
	<path fill="none" stroke="#1E282B" stroke-width="0.75" stroke-linejoin="round" stroke-miterlimit="10" d="M38.85474,246.46552
		l3.9174,2.15222c0.29077,0.15976,0.64639-0.05063,0.64639-0.38239v-4.30444c0-0.33176-0.35562-0.54214-0.64639-0.38239
		l-3.9174,2.15222C38.55312,245.86646,38.55312,246.2998,38.85474,246.46552z"/>
	<g>
		<path fill="#1E282B" stroke="#1E282B" stroke-width="0.25" stroke-linejoin="round" stroke-miterlimit="10" d="
			M48.63379,242.96973h0.51855l-2.69727,5.49854h-0.51074L48.63379,242.96973z"/>
		<path fill="#1E282B" stroke="#1E282B" stroke-width="0.25" stroke-linejoin="round" stroke-miterlimit="10" d="M53.1748,247.97363
			v0.49463h-3.18359v-0.21533l2.07422-2.49805c0.31152-0.38281,0.53516-0.79785,0.53516-1.10938
			c0-0.60645-0.43848-1.00537-1.06934-1.00537c-0.58301,0-1.02148,0.31104-1.11719,0.81396l-0.45508-0.11182
			c0.12793-0.73389,0.74219-1.18896,1.57227-1.18896c0.93359,0,1.58008,0.59033,1.58008,1.49219
			c0,0.43896-0.25586,0.94189-0.59082,1.34082l-1.66797,1.9873H53.1748z"/>
	</g>
	<g>
		<path fill="#1E282B" stroke="#1E282B" stroke-width="0.75" stroke-linejoin="round" stroke-miterlimit="10" d="
			M47.54495,121.03932h0.73661c0.31282,0,0.56641-0.25359,0.56641-0.56641v-4.02298c0-0.31282-0.25359-0.56641-0.56641-0.56641
			h-0.73661c-0.31282,0-0.56641,0.25359-0.56641,0.56641v4.02298C46.97854,120.78574,47.23213,121.03932,47.54495,121.03932z"/>
		<path fill="#1E282B" stroke="#1E282B" stroke-width="0.75" stroke-linejoin="round" stroke-miterlimit="10" d="
			M43.71817,121.03932h0.73661c0.31282,0,0.56641-0.25359,0.56641-0.56641v-4.02298c0-0.31282-0.25359-0.56641-0.56641-0.56641
			h-0.73661c-0.31282,0-0.56641,0.25359-0.56641,0.56641v4.02298C43.15176,120.78574,43.40535,121.03932,43.71817,121.03932z"/>
	</g>
	
		<line fill="none" stroke="#1E282B" stroke-width="0.75" stroke-linejoin="round" stroke-miterlimit="10" x1="43.08915" y1="202.98988" x2="20.03545" y2="202.98988"/>
	<polyline fill="none" stroke="#1E282B" stroke-width="0.75" stroke-linejoin="round" stroke-miterlimit="10" points="
		43.25782,139.99995 18.5,139.99995 18.5,111.35233 	"/>
	
		<line fill="none" stroke="#1E282B" stroke-width="0.75" stroke-linejoin="round" stroke-miterlimit="10" x1="43.08915" y1="231.59167" x2="20.03545" y2="231.59167"/>
	
		<line fill="none" stroke="#1E282B" stroke-width="0.75" stroke-linejoin="round" stroke-miterlimit="10" x1="43.08915" y1="260.19348" x2="20.03545" y2="260.19348"/>
	
		<line fill="none" stroke="#1E282B" stroke-width="0.75" stroke-linejoin="round" stroke-miterlimit="10" x1="76.48706" y1="202.98988" x2="99.54076" y2="202.98988"/>
	
		<line fill="none" stroke="#1E282B" stroke-width="0.75" stroke-linejoin="round" stroke-miterlimit="10" x1="76.48706" y1="231.59167" x2="99.54076" y2="231.59167"/>
	
		<line fill="none" stroke="#1E282B" stroke-width="0.75" stroke-linejoin="round" stroke-miterlimit="10" x1="76.48706" y1="260.19348" x2="99.54076" y2="260.19348"/>
	
		<line fill="none" stroke="#1E282B" stroke-width="0.75" stroke-linejoin="round" stroke-miterlimit="10" x1="45.75244" y1="288.99997" x2="101.74707" y2="288.99997"/>
	
		<line fill="none" stroke="#1E282B" stroke-width="0.75" stroke-linejoin="round" stroke-miterlimit="10" x1="74.21582" y1="112.85505" x2="74.21582" y2="139.23985"/>
	
		<line fill="none" stroke="#1E282B" stroke-width="0.75" stroke-linejoin="round" stroke-miterlimit="10" x1="101.50015" y1="112.85505" x2="101.50015" y2="139.23985"/>
	<g>
		<path fill="#1E282B" stroke="#1E282B" stroke-width="0.25" stroke-linejoin="round" stroke-miterlimit="10" d="
			M71.03223,156.34473l-1.66992,4.48242h-0.5371l-1.39258-3.66699l-1.33398,3.66699h-0.53711l-1.71777-4.48242h0.66211
			l1.31445,3.56055l1.30566-3.56055h0.63379l1.31445,3.55078l1.30566-3.55078H71.03223z"/>
		<path fill="#1E282B" stroke="#1E282B" stroke-width="0.25" stroke-linejoin="round" stroke-miterlimit="10" d="M71.6582,158.58105
			c0-1.4209,1.06543-2.35156,2.3418-2.35156s2.35156,0.93066,2.35156,2.35156s-1.0752,2.36133-2.35156,2.36133
			S71.6582,160.00195,71.6582,158.58105z M75.7373,158.58105c0-1.05566-0.79688-1.76562-1.7373-1.76562
			c-0.9502,0-1.72754,0.70996-1.72754,1.76562S73.0498,160.35645,74,160.35645
			C74.94043,160.35645,75.7373,159.63672,75.7373,158.58105z"/>
		<path fill="#1E282B" stroke="#1E282B" stroke-width="0.25" stroke-linejoin="round" stroke-miterlimit="10" d="
			M84.13672,156.34473l-1.66992,4.48242h-0.53711l-1.39258-3.66699l-1.33398,3.66699h-0.53711l-1.71777-4.48242h0.66211
			l1.31445,3.56055l1.30566-3.56055h0.63379l1.31445,3.55078l1.30566-3.55078H84.13672z"/>
	</g>
	<g>
		<path fill="#1E282B" stroke="#1E282B" stroke-width="0.25" stroke-linejoin="round" stroke-miterlimit="10" d="
			M91.26172,154.69434c0-0.25928,0.2207-0.44189,0.4707-0.44189c0.26855,0,0.47949,0.18262,0.47949,0.44189
			c0,0.24951-0.21094,0.43164-0.47949,0.43164C91.48242,155.12598,91.26172,154.94385,91.26172,154.69434z M91.4248,156.34521
			h0.61426v4.48193H91.4248V156.34521z"/>
		<path fill="#1E282B" stroke="#1E282B" stroke-width="0.25" stroke-linejoin="round" stroke-miterlimit="10" d="M97.61621,158.2168
			v2.61035h-0.61426v-2.58203c0-0.86377-0.54688-1.41064-1.26758-1.41064c-0.71973,0-1.47754,0.42236-1.49707,1.50684v2.48584
			h-0.61426v-4.48193h0.61426v0.80615c0.26855-0.64307,0.99805-0.92139,1.55469-0.92139
			C96.87695,156.22998,97.61621,156.97852,97.61621,158.2168z"/>
		<path fill="#1E282B" stroke="#1E282B" stroke-width="0.25" stroke-linejoin="round" stroke-miterlimit="10" d="
			M103.30859,158.84033h-3.85742c0.10547,0.95996,0.77734,1.5166,1.67871,1.5166c0.61523,0,1.16211-0.29736,1.45898-0.78711
			l0.52832,0.23047c-0.39355,0.71973-1.16113,1.14209-2.00586,1.14209c-1.2666,0-2.28418-0.9502-2.28418-2.37061
			s1.01758-2.3418,2.28418-2.3418c1.27637,0,2.20703,0.92139,2.20703,2.3418
			C103.31836,158.6582,103.31836,158.75391,103.30859,158.84033z M102.71387,158.3125
			c-0.08594-0.93115-0.72949-1.49707-1.60254-1.49707c-0.88281,0-1.53613,0.53711-1.65137,1.49707H102.71387z"/>
		<path fill="#1E282B" stroke="#1E282B" stroke-width="0.25" stroke-linejoin="round" stroke-miterlimit="10" d="
			M107.30273,156.36426l-0.11523,0.58545c-0.23047-0.09619-0.44141-0.125-0.60449-0.125c-1.06543,0-1.3916,1.20947-1.3916,2.31299
			v1.68945h-0.62402v-4.48193h0.62402v1.09375c0.2207-0.7583,0.70117-1.20898,1.40137-1.20898
			C106.84277,156.22998,107.12988,156.27783,107.30273,156.36426z"/>
		<path fill="#1E282B" stroke="#1E282B" stroke-width="0.25" stroke-linejoin="round" stroke-miterlimit="10" d="
			M110.14453,156.87305h-1.02734v3.9541h-0.60449v-3.9541h-0.81641v-0.52783h0.81641v-1.67969h0.60449v1.67969h1.02734V156.87305z"
			/>
		<path fill="#1E282B" stroke="#1E282B" stroke-width="0.25" stroke-linejoin="round" stroke-miterlimit="10" d="
			M110.74023,160.47217c0-0.26904,0.2207-0.46094,0.47949-0.46094c0.27832,0,0.49902,0.19189,0.49902,0.46094
			c0,0.25879-0.2207,0.45117-0.49902,0.45117C110.96094,160.92334,110.74023,160.73096,110.74023,160.47217z"/>
	</g>
	<g>
		<path fill="#1E282B" stroke="#1E282B" stroke-width="0.25" stroke-linejoin="round" stroke-miterlimit="10" d="M41.12695,158.2168
			v2.61035h-0.61523v-2.58203c0-0.86377-0.54688-1.41064-1.26758-1.41064c-0.71875,0-1.47656,0.42236-1.49609,1.50684v2.48584
			h-0.61523v-6.91992h0.61523v3.24414c0.26758-0.64307,0.99805-0.92139,1.55469-0.92139
			C40.38672,156.22998,41.12695,156.97852,41.12695,158.2168z"/>
		<path fill="#1E282B" stroke="#1E282B" stroke-width="0.25" stroke-linejoin="round" stroke-miterlimit="10" d="
			M42.33594,158.58105c0-1.42041,1.06641-2.35107,2.3418-2.35107c1.27734,0,2.35156,0.93066,2.35156,2.35107
			c0,1.4209-1.07422,2.36133-2.35156,2.36133C43.40234,160.94238,42.33594,160.00195,42.33594,158.58105z M46.41602,158.58105
			c0-1.05566-0.79688-1.76562-1.73828-1.76562c-0.94922,0-1.72656,0.70996-1.72656,1.76562
			c0,1.05615,0.77734,1.77588,1.72656,1.77588C45.61914,160.35693,46.41602,159.63721,46.41602,158.58105z"/>
		<path fill="#1E282B" stroke="#1E282B" stroke-width="0.25" stroke-linejoin="round" stroke-miterlimit="10" d="
			M48.29883,153.90723h0.61328v6.91992h-0.61328V153.90723z"/>
		<path fill="#1E282B" stroke="#1E282B" stroke-width="0.25" stroke-linejoin="round" stroke-miterlimit="10" d="
			M54.86328,153.90723v6.91992H54.25v-0.87354c-0.33594,0.61426-1.03711,0.98877-1.78516,0.98877
			c-1.24805,0-2.27539-0.99805-2.27539-2.36133c0-1.36279,1.01758-2.35107,2.27539-2.35107c0.75781,0,1.44922,0.36475,1.78516,0.979
			v-3.30176H54.86328z M54.25,158.60059c0-1.08447-0.8457-1.78516-1.73828-1.78516c-0.93945,0-1.70703,0.76758-1.70703,1.75635
			c0,0.99805,0.76758,1.78516,1.70703,1.78516C53.44336,160.35693,54.25,159.63721,54.25,158.60059z"/>
	</g>
	<g>
		<path fill="#1E282B" stroke="#1E282B" stroke-width="0.25" stroke-linejoin="round" stroke-miterlimit="10" d="
			M11.77539,156.87305h-1.02734v3.9541h-0.60547v-3.9541H9.32617v-0.52832h0.81641v-1.67969h0.60547v1.67969h1.02734V156.87305z"/>
		<path fill="#1E282B" stroke="#1E282B" stroke-width="0.25" stroke-linejoin="round" stroke-miterlimit="10" d="
			M12.36133,158.58105c0-1.4209,1.06445-2.35156,2.3418-2.35156c1.27539,0,2.35156,0.93066,2.35156,2.35156
			s-1.07617,2.36133-2.35156,2.36133C13.42578,160.94238,12.36133,160.00195,12.36133,158.58105z M16.43945,158.58105
			c0-1.05566-0.79688-1.76562-1.73633-1.76562c-0.95117,0-1.72852,0.70996-1.72852,1.76562s0.77734,1.77539,1.72852,1.77539
			C15.64258,160.35645,16.43945,159.63672,16.43945,158.58105z"/>
		<path fill="#1E282B" stroke="#1E282B" stroke-width="0.25" stroke-linejoin="round" stroke-miterlimit="10" d="
			M22.68945,156.34473v3.86816c0,2.16895-0.9707,2.9082-2.42773,2.9082c-0.75977,0-1.49805-0.375-1.93945-1.10449l0.51758-0.28711
			c0.32617,0.53711,0.88281,0.80566,1.42188,0.80566c1.09375,0,1.8125-0.55664,1.8125-2.28418v-0.28809
			c-0.33594,0.60449-1.03516,0.97949-1.78516,0.97949c-1.24805,0-2.27344-0.99805-2.27344-2.36133s1.01758-2.35156,2.27344-2.35156
			c0.75781,0,1.44922,0.37402,1.78516,0.97949v-0.86426H22.68945z M22.07422,158.60059c0-1.08496-0.84375-1.78516-1.73633-1.78516
			c-0.94141,0-1.70898,0.76758-1.70898,1.75586c0,0.99805,0.76758,1.78516,1.70898,1.78516
			C21.26758,160.35645,22.07422,159.63672,22.07422,158.60059z"/>
		<path fill="#1E282B" stroke="#1E282B" stroke-width="0.25" stroke-linejoin="round" stroke-miterlimit="10" d="
			M24.27344,153.90723h0.61523v6.91992h-0.61523V153.90723z"/>
		<path fill="#1E282B" stroke="#1E282B" stroke-width="0.25" stroke-linejoin="round" stroke-miterlimit="10" d="
			M26.32812,160.47168c0-0.26855,0.2207-0.46094,0.48047-0.46094c0.27734,0,0.49805,0.19238,0.49805,0.46094
			c0,0.25879-0.2207,0.45117-0.49805,0.45117C26.54883,160.92285,26.32812,160.73047,26.32812,160.47168z"/>
	</g>
	<g>
		<path fill="#1E282B" stroke="#1E282B" stroke-width="0.25" stroke-linejoin="round" stroke-miterlimit="10" d="
			M41.36474,307.22803c0,1.36279-1.01758,2.35156-2.27539,2.35156c-0.75781,0-1.44922-0.37451-1.78516-0.98877v3.05225h-0.61426
			v-6.66064h0.61426v0.88281c0.32617-0.61426,1.03711-0.99805,1.78516-0.99805
			C40.34716,304.86719,41.36474,305.86523,41.36474,307.22803z M40.75927,307.23779c0-0.99805-0.76758-1.78516-1.71777-1.78516
			c-0.93066,0-1.7373,0.71973-1.7373,1.75635c0,1.08447,0.84473,1.78516,1.7373,1.78516
			C39.9917,308.99414,40.75927,308.22607,40.75927,307.23779z"/>
		<path fill="#1E282B" stroke="#1E282B" stroke-width="0.25" stroke-linejoin="round" stroke-miterlimit="10" d="
			M45.37744,305.00146l-0.11523,0.58545c-0.23047-0.09619-0.44141-0.125-0.60449-0.125c-1.06543,0-1.3916,1.20947-1.3916,2.31299
			v1.68945H42.6421v-4.48193h0.62402v1.09375c0.2207-0.7583,0.70117-1.20898,1.40137-1.20898
			C44.91748,304.86719,45.20459,304.91504,45.37744,305.00146z"/>
		<path fill="#1E282B" stroke="#1E282B" stroke-width="0.25" stroke-linejoin="round" stroke-miterlimit="10" d="
			M50.23388,307.47754h-3.85742c0.10547,0.95996,0.77734,1.5166,1.67969,1.5166c0.61328,0,1.16113-0.29736,1.45801-0.78711
			l0.52832,0.23047c-0.39355,0.71973-1.16113,1.14209-2.00586,1.14209c-1.2666,0-2.28418-0.9502-2.28418-2.37061
			s1.01758-2.3418,2.28418-2.3418c1.27637,0,2.20703,0.92139,2.20703,2.3418
			C50.24364,307.29541,50.24364,307.39111,50.23388,307.47754z M49.63916,306.94971
			c-0.08594-0.93115-0.72949-1.49707-1.60254-1.49707c-0.88281,0-1.53613,0.53711-1.65137,1.49707H49.63916z"/>
		<path fill="#1E282B" stroke="#1E282B" stroke-width="0.25" stroke-linejoin="round" stroke-miterlimit="10" d="
			M55.19873,304.98242l-1.90039,4.48193h-0.63379l-1.87207-4.48193h0.65332l1.53516,3.7334l1.55469-3.7334H55.19873z"/>
	</g>
	<g>
		<path fill="#1E282B" stroke="#1E282B" stroke-width="0.25" stroke-linejoin="round" stroke-miterlimit="10" d="M69.50439,306.854
			v2.61035h-0.61426v-2.58203c0-0.86377-0.54688-1.41064-1.26758-1.41064c-0.71973,0-1.47754,0.42236-1.49707,1.50684v2.48584
			h-0.61426v-4.48193h0.61426v0.80615c0.26855-0.64307,0.99805-0.92139,1.55469-0.92139
			C68.76515,304.86719,69.50439,305.61572,69.50439,306.854z"/>
		<path fill="#1E282B" stroke="#1E282B" stroke-width="0.25" stroke-linejoin="round" stroke-miterlimit="10" d="
			M75.19581,307.47754h-3.85742c0.10547,0.95996,0.77734,1.5166,1.6797,1.5166c0.61328,0,1.16113-0.29736,1.45801-0.78711
			l0.52832,0.23047c-0.39355,0.71973-1.16113,1.14209-2.00586,1.14209c-1.2666,0-2.28418-0.9502-2.28418-2.37061
			s1.01758-2.3418,2.28418-2.3418c1.27637,0,2.20703,0.92139,2.20703,2.3418
			C75.20558,307.29541,75.20558,307.39111,75.19581,307.47754z M74.60107,306.94971
			c-0.08594-0.93115-0.72948-1.49707-1.60254-1.49707c-0.8828,0-1.53613,0.53711-1.65137,1.49707H74.60107z"/>
		<path fill="#1E282B" stroke="#1E282B" stroke-width="0.25" stroke-linejoin="round" stroke-miterlimit="10" d="
			M79.20947,309.46436l-1.40137-1.95801l-1.41992,1.95801H75.6587l1.78516-2.4668l-1.45898-2.01514h0.74902l1.07422,1.50684
			l1.06543-1.50684h0.74902l-1.44922,2.00586l1.77539,2.47607H79.20947z"/>
		<path fill="#1E282B" stroke="#1E282B" stroke-width="0.25" stroke-linejoin="round" stroke-miterlimit="10" d="
			M82.81982,305.51025h-1.02734v3.9541H81.188v-3.9541H80.3716v-0.52783H81.188v-1.67969h0.60448v1.67969h1.02734
			C82.81982,304.98242,82.81982,305.51025,82.81982,305.51025z"/>
	</g>
	<g>
		<path fill="#1E282B" stroke="#1E282B" stroke-width="0.25" stroke-linejoin="round" stroke-miterlimit="10" d="
			M97.47656,305.00146l-0.11523,0.58545c-0.23047-0.09619-0.44141-0.125-0.60352-0.125c-1.06641,0-1.39258,1.20947-1.39258,2.31299
			v1.68945h-0.62305v-4.48193h0.62305v1.09375c0.2207-0.7583,0.70117-1.20898,1.40234-1.20898
			C97.01758,304.86719,97.30469,304.91504,97.47656,305.00146z"/>
		<path fill="#1E282B" stroke="#1E282B" stroke-width="0.25" stroke-linejoin="round" stroke-miterlimit="10" d="M102.37305,306.854
			v2.61035h-0.61328v-2.58203c0-0.86377-0.54688-1.41064-1.26758-1.41064s-1.47852,0.42236-1.49805,1.50684v2.48584h-0.61328
			v-4.48193h0.61328v0.80615c0.26953-0.64307,0.99805-0.92139,1.55469-0.92139
			C101.63477,304.86719,102.37305,305.61572,102.37305,306.854z"/>
		<path fill="#1E282B" stroke="#1E282B" stroke-width="0.25" stroke-linejoin="round" stroke-miterlimit="10" d="
			M108.25781,302.54443v6.91992h-0.61523v-0.87354c-0.33594,0.61426-1.03516,0.98877-1.78516,0.98877
			c-1.24805,0-2.27344-0.99805-2.27344-2.36133c0-1.36279,1.01758-2.35107,2.27344-2.35107c0.75781,0,1.44922,0.36475,1.78516,0.979
			v-3.30176H108.25781z M107.64258,307.23779c0-1.08447-0.84375-1.78516-1.73633-1.78516
			c-0.94141,0-1.70898,0.76758-1.70898,1.75635c0,0.99805,0.76758,1.78516,1.70898,1.78516
			C106.83594,308.99414,107.64258,308.27441,107.64258,307.23779z"/>
	</g>
	<g>
		<path fill="#1E282B" stroke="#1E282B" stroke-width="0.25" stroke-linejoin="round" stroke-miterlimit="10" d="M6.78906,308.27441
			h0.56641c0.06641,0.37402,0.41211,0.75781,1.06445,0.75781c0.64258,0,1.03711-0.33545,1.03711-0.78662
			c0-0.36475-0.25-0.60498-0.71094-0.72021l-0.64258-0.15332c-0.63281-0.15381-1.14258-0.47998-1.14258-1.22852
			c0-0.72949,0.625-1.27637,1.47852-1.27637c0.74805,0,1.43945,0.4126,1.46875,1.21875H9.3125
			c-0.0293-0.40332-0.42188-0.67188-0.86328-0.67188c-0.51953,0-0.87305,0.31689-0.87305,0.73926
			c0,0.42188,0.36328,0.60449,0.68945,0.68115l0.66211,0.16309c0.875,0.21143,1.14258,0.73926,1.14258,1.25732
			c0,0.79688-0.71875,1.32471-1.65039,1.32471C7.64258,309.57959,6.86523,309.12842,6.78906,308.27441z"/>
		<path fill="#1E282B" stroke="#1E282B" stroke-width="0.25" stroke-linejoin="round" stroke-miterlimit="10" d="
			M15.49414,307.47754h-3.85742c0.10547,0.95996,0.77734,1.5166,1.67773,1.5166c0.61523,0,1.16211-0.29736,1.45898-0.78711
			l0.5293,0.23047c-0.39453,0.71973-1.16211,1.14209-2.00586,1.14209c-1.26758,0-2.28516-0.9502-2.28516-2.37061
			s1.01758-2.3418,2.28516-2.3418c1.27539,0,2.20703,0.92139,2.20703,2.3418
			C15.50391,307.29541,15.50391,307.39111,15.49414,307.47754z M14.89844,306.94971
			c-0.08594-0.93115-0.72852-1.49707-1.60156-1.49707c-0.88281,0-1.53711,0.53711-1.65234,1.49707H14.89844z"/>
		<path fill="#1E282B" stroke="#1E282B" stroke-width="0.25" stroke-linejoin="round" stroke-miterlimit="10" d="
			M16.75195,302.54443h0.61523v6.91992h-0.61523V302.54443z"/>
		<path fill="#1E282B" stroke="#1E282B" stroke-width="0.25" stroke-linejoin="round" stroke-miterlimit="10" d="M23.125,307.47754
			h-3.85742c0.10547,0.95996,0.77734,1.5166,1.67969,1.5166c0.61328,0,1.16211-0.29736,1.45898-0.78711l0.52734,0.23047
			c-0.39258,0.71973-1.16016,1.14209-2.00586,1.14209c-1.26562,0-2.2832-0.9502-2.2832-2.37061s1.01758-2.3418,2.2832-2.3418
			c1.27734,0,2.20703,0.92139,2.20703,2.3418C23.13477,307.29541,23.13477,307.39111,23.125,307.47754z M22.53125,306.94971
			c-0.08594-0.93115-0.73047-1.49707-1.60352-1.49707c-0.88281,0-1.53516,0.53711-1.65039,1.49707H22.53125z"/>
		<path fill="#1E282B" stroke="#1E282B" stroke-width="0.25" stroke-linejoin="round" stroke-miterlimit="10" d="
			M24.07812,307.21826c0-1.42041,1.09375-2.35107,2.36914-2.35107c0.64453,0,1.21094,0.23975,1.61328,0.61426l-0.38477,0.42236
			c-0.30664-0.27832-0.72852-0.45117-1.20898-0.45117c-0.97852,0-1.77539,0.70996-1.77539,1.76562
			c0,1.04639,0.79688,1.77588,1.77539,1.77588c0.48047,0,0.90234-0.17285,1.20898-0.45117l0.38477,0.42236
			c-0.40234,0.38379-0.96875,0.61426-1.61328,0.61426C25.17188,309.57959,24.07812,308.63916,24.07812,307.21826z"/>
		<path fill="#1E282B" stroke="#1E282B" stroke-width="0.25" stroke-linejoin="round" stroke-miterlimit="10" d="
			M31.18164,305.51025H30.1543v3.9541h-0.60547v-3.9541h-0.81641v-0.52783h0.81641v-1.67969h0.60547v1.67969h1.02734V305.51025z"/>
	</g>
	<path fill="none" stroke="#1E282B" stroke-width="0.5" stroke-linecap="round" stroke-miterlimit="10" d="M32.51564,103.67677
		c1.1951,2.18995,1.87431,4.70186,1.87431,7.37241c0,2.63066-0.65907,5.10738-1.8211,7.27406"/>
	<path fill="#808080" d="M92.98974,94.70234l10.79708-6.2332c0.7312-0.42213,0.77927-1.45971,0.09023-1.94763l-8.50306-6.02107
		c-0.68905-0.48792-1.65179-0.09802-1.80714,0.73186l-2.29404,12.2543C91.0908,94.45889,92.13306,95.1969,92.98974,94.70234z"/>
	<path fill="#808080" d="M92.98974,21.28605l10.79708,6.2332c0.7312,0.42213,0.77927,1.45971,0.09023,1.94763l-8.50306,6.02108
		c-0.68905,0.48792-1.65179,0.09802-1.80714-0.73186l-2.29403-12.25427C91.0908,21.52952,92.13306,20.79149,92.98974,21.28605z"/>
	<g>
		<path fill="#808080" d="M107.33594,81.92491l-9.84375-4.9082c5.9248-11.88428,5.83496-26.02637-0.24121-37.83105l9.78125-5.03418
			C114.70508,49.0587,114.81836,66.91808,107.33594,81.92491z"/>
	</g>
	<g>
		<path fill="#E5E5E5" stroke="#E5E5E5" stroke-width="0.5" stroke-miterlimit="10" d="M107.81055,44.58934l-0.62109-1.87988
			l-5.35938,1.77197l-0.18457-0.56445l5.35645-1.77197l-0.61816-1.87158l0.5293-0.17432l1.42676,4.31543L107.81055,44.58934z"/>
		<path fill="#E5E5E5" stroke="#E5E5E5" stroke-width="0.5" stroke-miterlimit="10" d="M105.68359,46.3408
			c1.73242-0.32471,3.41602,0.75049,3.74121,2.48291c0.32422,1.73242-0.85547,3.34521-2.58887,3.66895
			c-1.72266,0.32324-3.38867-0.75537-3.71484-2.48779C102.79883,48.27293,103.96094,46.66355,105.68359,46.3408z
			 M106.72656,51.90965c1.41406-0.26416,2.41309-1.57764,2.15039-2.98242c-0.26367-1.40576-1.66992-2.26758-3.08301-2.00244
			c-1.41602,0.26416-2.3877,1.57178-2.12402,2.97705C103.93457,51.30809,105.3125,52.17478,106.72656,51.90965z"/>
		<path fill="#E5E5E5" stroke="#E5E5E5" stroke-width="0.5" stroke-miterlimit="10" d="M105.97266,54.54393l4.12012-0.11475
			l0.01758,0.59326l-4.12109,0.11572c-1.04395,0.0293-1.59082,0.78271-1.56543,1.66553
			c0.02539,0.88037,0.61133,1.60303,1.65527,1.57422l4.12109-0.11572l0.0166,0.59424l-4.12012,0.11475
			c-1.3584,0.03906-2.21582-0.95508-2.24805-2.15137C103.81445,55.62254,104.61426,54.58348,105.97266,54.54393z"/>
		<path fill="#E5E5E5" stroke="#E5E5E5" stroke-width="0.5" stroke-miterlimit="10" d="M107.04883,60.89891
			c1.74414,0.20361,3.04199,1.74121,2.84082,3.46875c-0.10059,0.8667-0.5498,1.60352-1.19336,2.07227l-0.31738-0.46338
			c0.50781-0.38574,0.87695-0.98584,0.95703-1.67432c0.16309-1.40527-0.92578-2.64648-2.35547-2.81348
			c-1.43164-0.16602-2.75,0.7959-2.91211,2.2002c-0.08203,0.68848,0.13184,1.34766,0.54492,1.84961l-0.42383,0.37646
			c-0.51074-0.60254-0.77832-1.42334-0.67676-2.2915C103.71484,61.89793,105.30371,60.69578,107.04883,60.89891z"/>
		<path fill="#E5E5E5" stroke="#E5E5E5" stroke-width="0.5" stroke-miterlimit="10" d="M107.84375,73.30125l-5.98828-1.61816
			l0.1543-0.57471l2.7207,0.73486l0.89062-3.29297l-2.7207-0.73535l0.15625-0.57324l5.98633,1.61816l-0.1543,0.57422
			l-2.75488-0.74512l-0.89062,3.29395l2.75488,0.74512L107.84375,73.30125z"/>
	</g>
	<g>
		<path fill="#1E282B" stroke="#1E282B" stroke-width="0.25" stroke-linejoin="round" stroke-miterlimit="10" d="
			M97.30077,326.22461H94.7578l-0.55176,1.46387h-0.55957l2.10352-5.50977h0.55957l2.09473,5.50977h-0.55176L97.30077,326.22461z
			 M97.11718,325.75293l-1.08789-2.87012l-1.08691,2.87012H97.11718z"/>
		<path fill="#1E282B" stroke="#1E282B" stroke-width="0.25" stroke-linejoin="round" stroke-miterlimit="10" d="
			M99.54198,325.84082v-3.66211h0.52832v3.66211c0,0.92773,0.65527,1.43164,1.43945,1.43164
			c0.7832,0,1.43848-0.50391,1.43848-1.43164v-3.66211h0.52832v3.66211c0,1.20703-0.9043,1.94336-1.9668,1.94336
			C100.44628,327.78418,99.54198,327.04785,99.54198,325.84082z"/>
		<path fill="#1E282B" stroke="#1E282B" stroke-width="0.25" stroke-linejoin="round" stroke-miterlimit="10" d="
			M108.62109,327.68848l-1.64746-2.53516l-1.64746,2.53516h-0.62305l1.95898-2.9668l-1.71094-2.54297h0.63086l1.3916,2.11914
			l1.3916-2.11914h0.63184l-1.71191,2.54297l1.96777,2.9668H108.62109z"/>
		<path fill="#1E282B" stroke="#1E282B" stroke-width="0.25" stroke-linejoin="round" stroke-miterlimit="10" d="M93.44238,334.5459
			c0-1.56738,1.21484-2.86328,2.78223-2.86328s2.78223,1.2959,2.78223,2.86328c0,1.55859-1.21484,2.83789-2.78223,2.83789
			S93.44238,336.10449,93.44238,334.5459z M98.47948,334.5459c0-1.2793-0.9834-2.36719-2.25488-2.36719
			s-2.25488,1.08789-2.25488,2.36719s0.9834,2.3418,2.25488,2.3418S98.47948,335.8252,98.47948,334.5459z"/>
		<path fill="#1E282B" stroke="#1E282B" stroke-width="0.25" stroke-linejoin="round" stroke-miterlimit="10" d="
			M100.57714,335.44043v-3.66113h0.52832v3.66113c0,0.92773,0.65527,1.43164,1.43945,1.43164
			c0.7832,0,1.43848-0.50391,1.43848-1.43164v-3.66113h0.52832v3.66113c0,1.20801-0.9043,1.94336-1.9668,1.94336
			C101.48144,337.38379,100.57714,336.64844,100.57714,335.44043z"/>
		<path fill="#1E282B" stroke="#1E282B" stroke-width="0.25" stroke-linejoin="round" stroke-miterlimit="10" d="
			M109.86425,332.27441h-1.75977v5.01367h-0.52734v-5.01367h-1.75098v-0.49512h4.03809V332.27441z"/>
	</g>
	<g>
		<path fill="#1E282B" stroke="#1E282B" stroke-width="0.25" stroke-linejoin="round" stroke-miterlimit="10" d="M67.49218,322.2168
			v5.50879h-0.52734v-2.50293h-3.03027v2.50293h-0.52832v-5.50879h0.52832v2.53418h3.03027v-2.53418H67.49218z"/>
		<path fill="#1E282B" stroke="#1E282B" stroke-width="0.25" stroke-linejoin="round" stroke-miterlimit="10" d="
			M69.12695,324.98242c0-1.56641,1.21484-2.8623,2.78223-2.8623s2.78223,1.2959,2.78223,2.8623
			c0,1.55957-1.21484,2.83887-2.78223,2.83887S69.12695,326.54199,69.12695,324.98242z M74.16405,324.98242
			c0-1.2793-0.9834-2.36621-2.25488-2.36621s-2.25488,1.08691-2.25488,2.36621s0.9834,2.34277,2.25488,2.34277
			S74.16405,326.26172,74.16405,324.98242z"/>
		<path fill="#1E282B" stroke="#1E282B" stroke-width="0.25" stroke-linejoin="round" stroke-miterlimit="10" d="M76.33398,322.2168
			h0.52832v5.0127h2.3418v0.49609h-2.87012V322.2168z"/>
		<path fill="#1E282B" stroke="#1E282B" stroke-width="0.25" stroke-linejoin="round" stroke-miterlimit="10" d="M80.60644,322.2168
			h2.08691c1.55957,0,2.46289,1.19922,2.46289,2.76562c0,1.55957-0.90332,2.74316-2.46289,2.74316h-2.08691V322.2168z
			 M82.69335,327.22949c1.25488,0,1.93457-0.97559,1.93457-2.24707c0-1.2793-0.67969-2.27051-1.93457-2.27051h-1.55957v4.51758
			H82.69335z"/>
		<path fill="#1E282B" stroke="#1E282B" stroke-width="0.25" stroke-linejoin="round" stroke-miterlimit="10" d="
			M66.14257,334.58301c0-1.56738,1.21484-2.8623,2.78223-2.8623s2.78223,1.29492,2.78223,2.8623
			c0,1.55859-1.21484,2.83789-2.78223,2.83789S66.14257,336.1416,66.14257,334.58301z M71.17968,334.58301
			c0-1.2793-0.9834-2.36719-2.25488-2.36719s-2.25488,1.08789-2.25488,2.36719s0.9834,2.34277,2.25488,2.34277
			S71.17968,335.8623,71.17968,334.58301z"/>
		<path fill="#1E282B" stroke="#1E282B" stroke-width="0.25" stroke-linejoin="round" stroke-miterlimit="10" d="
			M73.27734,335.47852v-3.66211h0.52832v3.66211c0,0.92773,0.65527,1.43066,1.43945,1.43066
			c0.7832,0,1.43848-0.50293,1.43848-1.43066v-3.66211h0.52832v3.66211c0,1.20703-0.9043,1.94238-1.9668,1.94238
			C74.18163,337.4209,73.27734,336.68555,73.27734,335.47852z"/>
		<path fill="#1E282B" stroke="#1E282B" stroke-width="0.25" stroke-linejoin="round" stroke-miterlimit="10" d="M82.56445,332.3125
			h-1.75977v5.0127h-0.52734v-5.0127h-1.75098v-0.49609h4.03809V332.3125z"/>
	</g>
	<g>
		<path fill="#1E282B" stroke="#1E282B" stroke-width="0.25" stroke-linejoin="round" stroke-miterlimit="10" d="
			M34.87109,324.98242c0-1.55859,1.22266-2.8623,2.7666-2.8623c0.77539,0,1.4707,0.32031,1.9502,0.83984l-0.375,0.32812
			c-0.39258-0.4082-0.95996-0.67188-1.5752-0.67188c-1.25586,0-2.23926,1.08691-2.23926,2.36621s0.9834,2.34277,2.23926,2.34277
			c0.61523,0,1.1748-0.25586,1.5752-0.6709l0.375,0.33496c-0.47949,0.51172-1.1748,0.83203-1.9502,0.83203
			C36.09374,327.82129,34.87109,326.54199,34.87109,324.98242z"/>
		<path fill="#1E282B" stroke="#1E282B" stroke-width="0.25" stroke-linejoin="round" stroke-miterlimit="10" d="M41.09472,322.2168
			h0.52832v5.0127h2.3418v0.49609h-2.87012V322.2168z"/>
		<path fill="#1E282B" stroke="#1E282B" stroke-width="0.25" stroke-linejoin="round" stroke-miterlimit="10" d="M45.3662,322.2168
			h0.52832v5.50879H45.3662V322.2168z"/>
		<path fill="#1E282B" stroke="#1E282B" stroke-width="0.25" stroke-linejoin="round" stroke-miterlimit="10" d="
			M47.51855,324.98242c0-1.55859,1.22266-2.8623,2.7666-2.8623c0.77539,0,1.4707,0.32031,1.9502,0.83984l-0.375,0.32812
			c-0.39258-0.4082-0.95996-0.67188-1.5752-0.67188c-1.25586,0-2.23926,1.08691-2.23926,2.36621s0.9834,2.34277,2.23926,2.34277
			c0.61523,0,1.1748-0.25586,1.5752-0.6709l0.375,0.33496c-0.47949,0.51172-1.1748,0.83203-1.9502,0.83203
			C48.7412,327.82129,47.51855,326.54199,47.51855,324.98242z"/>
		<path fill="#1E282B" stroke="#1E282B" stroke-width="0.25" stroke-linejoin="round" stroke-miterlimit="10" d="
			M56.66894,327.72559l-2.40723-2.42285v2.42285h-0.51953v-5.50879h0.51953v2.58984l2.06348-2.58984h0.65527l-2.25488,2.82227
			l2.6543,2.68652H56.66894z"/>
		<path fill="#1E282B" stroke="#1E282B" stroke-width="0.25" stroke-linejoin="round" stroke-miterlimit="10" d="
			M37.82323,334.58301c0-1.56738,1.21484-2.8623,2.78223-2.8623s2.78223,1.29492,2.78223,2.8623
			c0,1.55859-1.21484,2.83789-2.78223,2.83789S37.82323,336.1416,37.82323,334.58301z M42.86034,334.58301
			c0-1.2793-0.9834-2.36719-2.25488-2.36719s-2.25488,1.08789-2.25488,2.36719s0.9834,2.34277,2.25488,2.34277
			S42.86034,335.8623,42.86034,334.58301z"/>
		<path fill="#1E282B" stroke="#1E282B" stroke-width="0.25" stroke-linejoin="round" stroke-miterlimit="10" d="M44.958,335.47852
			v-3.66211h0.52832v3.66211c0,0.92773,0.65527,1.43066,1.43945,1.43066c0.7832,0,1.43848-0.50293,1.43848-1.43066v-3.66211h0.52832
			v3.66211c0,1.20703-0.9043,1.94238-1.9668,1.94238C45.8623,337.4209,44.958,336.68555,44.958,335.47852z"/>
		<path fill="#1E282B" stroke="#1E282B" stroke-width="0.25" stroke-linejoin="round" stroke-miterlimit="10" d="M54.24511,332.3125
			h-1.75977v5.0127H51.958v-5.0127h-1.75098v-0.49609h4.03809V332.3125z"/>
	</g>
	<g>
		<path fill="#1E282B" stroke="#1E282B" stroke-width="0.25" stroke-linejoin="round" stroke-miterlimit="10" d="
			M14.76855,327.72559l-0.56738-4.56543l-1.95898,3.99707H11.7539l-1.97461-4.01367l-0.56738,4.58203H8.70019l0.67969-5.50879
			h0.49512l2.11914,4.37305l2.11914-4.37305h0.4873l0.6875,5.50879H14.76855z"/>
		<path fill="#1E282B" stroke="#1E282B" stroke-width="0.25" stroke-linejoin="round" stroke-miterlimit="10" d="M16.5957,324.98242
			c0-1.56641,1.21484-2.8623,2.78223-2.8623s2.78223,1.2959,2.78223,2.8623c0,1.55957-1.21484,2.83887-2.78223,2.83887
			S16.5957,326.54199,16.5957,324.98242z M21.6328,324.98242c0-1.2793-0.9834-2.36621-2.25488-2.36621
			s-2.25488,1.08691-2.25488,2.36621s0.9834,2.34277,2.25488,2.34277S21.6328,326.26172,21.6328,324.98242z"/>
		<path fill="#1E282B" stroke="#1E282B" stroke-width="0.25" stroke-linejoin="round" stroke-miterlimit="10" d="M23.8037,322.2168
			h2.08691c1.55957,0,2.46289,1.19922,2.46289,2.76562c0,1.55957-0.90332,2.74316-2.46289,2.74316H23.8037V322.2168z
			 M25.89062,327.22949c1.25586,0,1.93457-0.97559,1.93457-2.24707c0-1.2793-0.67871-2.27051-1.93457-2.27051h-1.55859v4.51758
			H25.89062z"/>
		<path fill="#1E282B" stroke="#1E282B" stroke-width="0.25" stroke-linejoin="round" stroke-miterlimit="10" d="
			M15.27929,331.81641h0.52734v5.50879h-0.52734V331.81641z"/>
		<path fill="#1E282B" stroke="#1E282B" stroke-width="0.25" stroke-linejoin="round" stroke-miterlimit="10" d="M21.7246,331.81641
			v5.50879h-0.54297l-2.82227-4.58887v4.58887h-0.52832v-5.50879h0.55176l2.81445,4.58105v-4.58105H21.7246z"/>
	</g>
	
		<line fill="none" stroke="#1E282B" stroke-width="0.75" stroke-linejoin="round" stroke-miterlimit="10" x1="45.99967" y1="351.00015" x2="101.39469" y2="351.00015"/>
	<path fill="none" stroke="#1E282B" stroke-width="0.75" stroke-linejoin="round" stroke-miterlimit="10" d="M6.98769,27.26514
		l5.02789,1.92146c0.30899,0.11808,0.64044-0.11008,0.64044-0.44086v-3.84292c0-0.33078-0.33145-0.55894-0.64044-0.44086
		l-5.02789,1.92146C6.58306,26.53805,6.58306,27.1105,6.98769,27.26514z"/>
</g>
<g id="SCREEN">
</g>
<g id="DISPLAY">
</g>
<g id="Symbols">
</g>
<g id="Layer_12">
</g>
<g id="Calque_4" display="none">
</g>
</svg>
