<?xml version="1.0" encoding="UTF-8" standalone="no"?>
<!-- Generator: Adobe Illustrator 24.0.2, SVG Export Plug-In . SVG Version: 6.00 Build 0)  -->

<svg
   xmlns:dc="http://purl.org/dc/elements/1.1/"
   xmlns:cc="http://creativecommons.org/ns#"
   xmlns:rdf="http://www.w3.org/1999/02/22-rdf-syntax-ns#"
   xmlns:svg="http://www.w3.org/2000/svg"
   xmlns="http://www.w3.org/2000/svg"
   xmlns:sodipodi="http://sodipodi.sourceforge.net/DTD/sodipodi-0.dtd"
   xmlns:inkscape="http://www.inkscape.org/namespaces/inkscape"
   version="1.0"
   id="Layer_1"
   x="0px"
   y="0px"
   width="77px"
   height="76.98184px"
   viewBox="0 0 77 76.98184"
   enable-background="new 0 0 77 76.98184"
   xml:space="preserve"
   sodipodi:docname="nysthi_tape_shadow.svg"
   inkscape:version="0.92.2 5c3e80d, 2017-08-06"><metadata
     id="metadata32"><rdf:RDF><cc:Work
         rdf:about=""><dc:format>image/svg+xml</dc:format><dc:type
           rdf:resource="http://purl.org/dc/dcmitype/StillImage" /><dc:title /></cc:Work></rdf:RDF></metadata><defs
     id="defs30" /><sodipodi:namedview
     pagecolor="#ffffff"
     bordercolor="#666666"
     borderopacity="1"
     objecttolerance="10"
     gridtolerance="10"
     guidetolerance="10"
     inkscape:pageopacity="0"
     inkscape:pageshadow="2"
     inkscape:window-width="1311"
     inkscape:window-height="785"
     id="namedview28"
     showgrid="false"
     inkscape:pagecheckerboard="true"
     inkscape:zoom="4.3354951"
     inkscape:cx="43.690818"
     inkscape:cy="42.408064"
     inkscape:window-x="28"
     inkscape:window-y="21"
     inkscape:window-maximized="0"
     inkscape:current-layer="Layer_1" /><path
     style="fill:#b3b3b3;stroke-width:1.00000346;stroke:none;stroke-opacity:1;opacity:0.7"
     d="M 38.5 0.48242188 A 38 38 0 0 0 0.5 38.482422 A 38 38 0 0 0 38.5 76.482422 A 38 38 0 0 0 76.5 38.482422 A 38 38 0 0 0 38.5 0.48242188 z M 13.703125 14.798828 C 13.897212 14.798828 16.612546 17.315117 19.443359 20.017578 A 26.547413 26.547503 37.826893 0 0 17.53125 22.201172 A 26.547413 26.547503 37.826893 0 0 12.974609 31.244141 C 9.1914107 30.145889 5.9900916 29.12876 5.8066406 28.945312 C 5.3426206 28.481291 6.9227706 24.317815 8.7441406 21.207031 C 10.249011 18.636817 13.219745 14.798828 13.703125 14.798828 z M 63.164062 14.798828 C 63.769216 14.798828 66.918058 18.829446 68.498047 21.626953 C 70.015612 24.313933 71.669726 28.644729 71.314453 29 C 71.202011 29.112443 67.704439 30.149466 64.001953 31.212891 A 26.547413 26.547503 37.826893 0 0 57.501953 19.986328 C 60.305298 17.301031 62.991698 14.798828 63.164062 14.798828 z M 32.050781 64.201172 A 26.547413 26.547503 37.826893 0 0 44.957031 64.201172 C 45.807664 67.731976 46.567936 71.060544 46.529297 71.332031 C 46.443307 71.936191 46.100339 72.102809 44.306641 72.417969 C 41.53203 72.905469 35.582676 72.900843 32.822266 72.408203 C 31.618636 72.193573 30.534473 71.919248 30.414062 71.798828 C 30.303842 71.688607 31.047702 68.292164 32.050781 64.201172 z "
     id="ellipse2" /></svg>