<?xml version="1.0" encoding="UTF-8" standalone="no"?>
<!-- Generator: Adobe Illustrator 24.0.2, SVG Export Plug-In . SVG Version: 6.00 Build 0)  -->

<svg
   xmlns:dc="http://purl.org/dc/elements/1.1/"
   xmlns:cc="http://creativecommons.org/ns#"
   xmlns:rdf="http://www.w3.org/1999/02/22-rdf-syntax-ns#"
   xmlns:svg="http://www.w3.org/2000/svg"
   xmlns="http://www.w3.org/2000/svg"
   xmlns:sodipodi="http://sodipodi.sourceforge.net/DTD/sodipodi-0.dtd"
   xmlns:inkscape="http://www.inkscape.org/namespaces/inkscape"
   version="1.0"
   id="Layer_1"
   x="0px"
   y="0px"
   width="77px"
   height="76.98184px"
   viewBox="0 0 77 76.98184"
   enable-background="new 0 0 77 76.98184"
   xml:space="preserve"
   sodipodi:docname="nysthi_tape.svg"
   inkscape:version="0.92.2 5c3e80d, 2017-08-06"><metadata
     id="metadata32"><rdf:RDF><cc:Work
         rdf:about=""><dc:format>image/svg+xml</dc:format><dc:type
           rdf:resource="http://purl.org/dc/dcmitype/StillImage" /><dc:title /></cc:Work></rdf:RDF></metadata><defs
     id="defs30" /><sodipodi:namedview
     pagecolor="#ffffff"
     bordercolor="#666666"
     borderopacity="1"
     objecttolerance="10"
     gridtolerance="10"
     guidetolerance="10"
     inkscape:pageopacity="0"
     inkscape:pageshadow="2"
     inkscape:window-width="1311"
     inkscape:window-height="785"
     id="namedview28"
     showgrid="false"
     inkscape:pagecheckerboard="true"
     inkscape:zoom="3.065658"
     inkscape:cx="-21.519741"
     inkscape:cy="38.490921"
     inkscape:window-x="87"
     inkscape:window-y="29"
     inkscape:window-maximized="0"
     inkscape:current-layer="Layer_1" /><ellipse
     transform="rotate(-52.173107)"
     cx="-6.7840919"
     cy="54.010262"
     rx="26.547503"
     ry="26.547413"
     id="ellipse2"
     style="fill:#2e3a3d;stroke-width:1.00000346" /><path
     style="opacity:1;fill:#2e89dc;fill-opacity:1;stroke:none;stroke-width:3.65162992;stroke-miterlimit:4;stroke-dasharray:none;stroke-dashoffset:0;stroke-opacity:1"
     d="M 38.5,0.48184612 A 38,38 0 0 0 0.5,38.481846 38,38 0 0 0 38.5,76.481842 38,38 0 0 0 76.5,38.481846 38,38 0 0 0 38.5,0.48184612 Z M 13.70313,14.798253 c 0.42496,0 12.66212,11.752062 12.6621,12.160156 0,0.170458 -0.51557,1.013586 -1.14648,1.873047 -0.6309,0.85946 -1.45814,2.310817 -1.83789,3.224609 -0.53598,1.289707 -0.8449,1.652128 -1.38086,1.623047 -0.37975,-0.02061 -4.09676,-1.013921 -8.26172,-2.207031 -4.1649601,-1.19311 -7.7343801,-2.330088 -7.9316401,-2.527344 -0.46402,-0.464022 1.11613,-4.627497 2.9375,-7.738281 C 10.24901,18.636242 13.21975,14.798253 13.70313,14.798253 Z m 49.460932,0 c 0.605153,0 3.753996,4.030618 5.333985,6.828125 1.517565,2.68698 3.171679,7.017775 2.816406,7.373046 -0.24248,0.242481 -15.888579,4.711686 -16.50586,4.714844 -0.234131,0.0012 -0.771208,-0.767099 -1.193359,-1.708984 C 53.193083,31.063398 52.33285,29.574439 51.703125,28.698643 51.0734,27.822848 50.64216,26.942257 50.746093,26.741612 51.112538,26.034182 62.7951,14.798253 63.164062,14.798253 Z M 38.398438,54.774815 c 2.206888,-0.01002 4.070432,0.07391 4.140624,0.1875 0.382889,0.619633 4.07572,15.768497 3.990235,16.369137 -0.08599,0.60416 -0.428959,0.77078 -2.222657,1.08594 -2.774611,0.4875 -8.72396,0.48264 -11.48437,-0.01 -1.20363,-0.21463 -2.2878,-0.48896 -2.40821,-0.60938 -0.12041,-0.12041 0.72434,-3.99506 1.87696,-8.61133 l 2.0957,-8.394529 z"
     id="path851"
     inkscape:connector-curvature="0" /><path
     style="fill:#0e74af"
     inkscape:connector-curvature="0"
     id="path6"
     d="M 38.50049,0.98183 C 59.17773,0.98183 76,17.80434 76,38.48195 76,59.15944 59.17773,75.98183 38.50049,75.98183 17.82275,75.98183 1,59.15944 1,38.48195 1,17.80434 17.82275,0.98183 38.50049,0.98183 M 22.18652,34.83425 c 0.75586,0 1.42285,-0.48328 1.66016,-1.20215 0.66357,-2.00659 1.71631,-3.82764 3.12842,-5.41236 0.62549,-0.70203 0.58887,-1.7644 -0.0835,-2.41895 L 15.03613,14.27553 c -0.32764,-0.31909 -0.76025,-0.49487 -1.21777,-0.49487 -0.48682,2.4e-4 -0.95605,0.20483 -1.2876,0.56128 -3.63281,3.90649 -6.37598,8.65051 -7.93164,13.71899 -0.14014,0.45483 -0.09229,0.93555 0.13525,1.35352 0.22656,0.41699 0.60303,0.71802 1.05957,0.84741 l 15.91699,4.50623 c 0.15528,0.04394 0.31544,0.06616 0.47559,0.06616 m 32.62696,0 c 0.16064,0 0.3208,-0.02234 0.47607,-0.06628 l 15.9165,-4.50611 c 0.45605,-0.12915 0.83252,-0.42969 1.05908,-0.84644 0.22754,-0.41772 0.27637,-0.89832 0.13672,-1.35388 -1.55713,-5.06946 -4.2998,-9.8136 -7.93262,-13.71887 -0.33154,-0.35718 -0.80078,-0.56201 -1.2876,-0.56201 -0.45703,2.4e-4 -0.88965,0.17554 -1.21777,0.49438 L 50.10938,25.80043 c -0.67334,0.65405 -0.71045,1.7168 -0.08447,2.41919 1.41211,1.58484 2.46484,3.40588 3.12793,5.41211 0.23779,0.71924 0.90478,1.20252 1.66064,1.20252 M 38.50049,53.91701 c -1.05078,0 -2.10352,-0.10718 -3.12842,-0.31848 -0.11719,-0.02405 -0.23682,-0.03625 -0.35547,-0.03625 -0.80273,0 -1.5,0.5426 -1.69531,1.31873 l -4.05518,16.03296 c -0.11621,0.46008 -0.04346,0.93628 0.20459,1.34094 0.24902,0.40649 0.64258,0.68884 1.10791,0.79504 2.58691,0.59058 5.25244,0.89001 7.92188,0.89001 2.66944,0 5.33447,-0.29944 7.92041,-0.89001 0.46582,-0.1062 0.85938,-0.38855 1.1084,-0.79504 0.24805,-0.40466 0.3208,-0.88086 0.2041,-1.34143 L 43.6792,54.88199 c -0.1958,-0.7771 -0.89307,-1.3197 -1.6958,-1.3197 -0.11914,0 -0.23877,0.01221 -0.35596,0.03638 -1.02392,0.21116 -2.07617,0.31834 -3.12695,0.31834 m 0,-53.93518 C 17.2373,-0.01817 0,17.21889 0,38.48195 0,59.74477 17.2373,76.98183 38.50049,76.98183 59.76318,76.98183 77,59.74477 77,38.48195 77,17.21889 59.76318,-0.01817 38.50049,-0.01817 Z M 22.18652,33.83425 c -0.06738,0 -0.13574,-0.0092 -0.20361,-0.02844 L 6.06641,29.2997 C 5.66114,29.18483 5.43067,28.75807 5.55469,28.35512 c 1.54492,-5.03235 4.21191,-9.57251 7.7085,-13.33203 0.14941,-0.16064 0.35205,-0.24243 0.55518,-0.24243 0.1875,0 0.375,0.06982 0.52051,0.21143 l 11.85547,11.52576 c 0.28809,0.28027 0.30176,0.73633 0.03418,1.0365 -1.4751,1.6554 -2.61914,3.61072 -3.33105,5.7638 -0.10402,0.31432 -0.39504,0.5161 -0.71096,0.5161 z m 32.62696,0 c -0.31543,0 -0.60693,-0.20166 -0.71094,-0.51611 -0.71191,-2.15308 -1.85596,-4.1084 -3.33105,-5.7638 -0.26758,-0.30017 -0.25391,-0.75623 0.03467,-1.03638 L 62.66114,14.99208 c 0.14551,-0.1416 0.33301,-0.21143 0.52051,-0.21143 0.20313,0 0.40576,0.08179 0.55518,0.24268 3.49658,3.75928 6.16357,8.29944 7.70898,13.33179 0.12354,0.40308 -0.10693,0.82983 -0.51221,0.94458 l -15.9165,4.50611 c -0.06788,0.01928 -0.13624,0.02844 -0.20362,0.02844 z M 38.50049,54.91701 c 1.14063,0 2.25439,-0.11731 3.3291,-0.33899 0.05176,-0.01062 0.10303,-0.01575 0.15381,-0.01575 0.33691,0 0.64063,0.22546 0.72607,0.56396 l 4.05469,16.03247 c 0.10352,0.41003 -0.15283,0.82214 -0.56543,0.91626 -2.4751,0.56519 -5.05176,0.86499 -7.69824,0.86499 -2.64746,0 -5.22363,-0.2998 -7.69922,-0.86499 -0.4126,-0.09412 -0.66895,-0.50623 -0.56543,-0.91626 l 4.05469,-16.03247 c 0.08545,-0.3385 0.38916,-0.56396 0.72607,-0.56396 0.05078,0 0.10205,0.0051 0.15381,0.01575 1.0752,0.22168 2.18897,0.33899 3.33008,0.33899 z" /><g
     id="g14"><path
       d="m 44.35254,50.01259 c -0.49805,0 -0.96094,-0.26709 -1.20898,-0.69775 l -0.22949,-0.39746 c -1.39941,0.59326 -2.88184,0.89355 -4.41406,0.89355 -1.53222,0 -3.01465,-0.30029 -4.41406,-0.89355 l -0.22949,0.39746 c -0.24805,0.43066 -0.71094,0.69775 -1.20898,0.69775 -0.24414,0 -0.48438,-0.06494 -0.69629,-0.1875 -0.32324,-0.18555 -0.55371,-0.48682 -0.65039,-0.84668 -0.09668,-0.36035 -0.04688,-0.73633 0.13965,-1.05908 l 0.23047,-0.40039 C 29.25686,45.68935 27.64065,42.92519 27.26174,39.97597 H 26.7969 c -0.84961,-0.15967 -1.39551,-0.78418 -1.39551,-1.49414 0,-0.71045 0.5293,-1.32471 1.28613,-1.49365 l 0.05469,-0.01221 h 0.51953 c 0.37988,-2.94189 1.99609,-5.70264 4.40918,-7.53125 l -0.23047,-0.40039 c -0.18652,-0.32275 -0.23633,-0.69873 -0.13965,-1.05908 0.09668,-0.35986 0.32715,-0.66113 0.65039,-0.84717 0.21191,-0.12207 0.45215,-0.18701 0.69629,-0.18701 0.49805,0 0.96094,0.26709 1.20898,0.69775 l 0.22949,0.39746 c 1.39941,-0.59326 2.88184,-0.89355 4.41406,-0.89355 1.53222,0 3.01465,0.30029 4.41406,0.89355 l 0.22949,-0.39746 c 0.24805,-0.43066 0.71094,-0.69775 1.20898,-0.69775 0.24414,0 0.48535,0.06445 0.69727,0.18701 0.32227,0.18652 0.55371,0.4873 0.65039,0.84717 0.0957,0.36084 0.04688,0.73682 -0.14063,1.06006 l -0.23047,0.39941 c 2.41406,1.8291 4.0293,4.58936 4.40918,7.53125 h 0.51953 l 0.05371,0.01221 c 0.75781,0.16846 1.28711,0.78271 1.28711,1.49365 0,0.71045 -0.5459,1.33447 -1.29785,1.48438 l -0.56152,0.0054 c -0.37793,2.95068 -1.99414,5.7168 -4.41016,7.54736 l 0.23047,0.40039 c 0.18652,0.32178 0.23633,0.69775 0.14063,1.05762 -0.09668,0.36084 -0.32715,0.66211 -0.65039,0.84863 -0.21192,0.12256 -0.45313,0.18701 -0.69727,0.18701 z"
       id="path10"
       inkscape:connector-curvature="0"
       style="fill:#808080" /><path
       d="m 44.35254,27.45095 c 0.15186,0 0.30566,0.0387 0.44678,0.12012 0.42871,0.24731 0.5752,0.79517 0.32813,1.22351 l -0.45654,0.79028 c 2.58398,1.79553 4.34668,4.68653 4.61865,7.89112 h 0.91357 c 0.49463,0.11023 0.89551,0.51123 0.89551,1.00598 0,0.49463 -0.40088,0.89563 -0.89551,0.99402 h -0.91357 c -0.27197,3.21643 -2.03467,6.10742 -4.61865,7.90295 l 0.45654,0.79028 c 0.24707,0.42834 0.10059,0.9762 -0.32813,1.22351 -0.14111,0.08142 -0.29492,0.12012 -0.44678,0.12012 -0.30957,0 -0.61084,-0.16064 -0.77637,-0.448 l -0.45508,-0.78821 c -1.40186,0.66248 -2.96777,1.03442 -4.62109,1.03442 -1.65332,0 -3.21924,-0.37195 -4.62061,-1.03442 l -0.45508,0.78821 c -0.16602,0.28735 -0.46729,0.448 -0.77686,0.448 -0.15186,0 -0.30566,-0.0387 -0.44678,-0.12012 -0.42822,-0.24731 -0.5752,-0.79517 -0.32764,-1.22351 l 0.45605,-0.79028 C 29.7451,45.5834 27.9824,42.69241 27.71092,39.47598 h -0.91406 c -0.49463,-0.09839 -0.89551,-0.49939 -0.89551,-0.99402 0,-0.49475 0.40088,-0.89575 0.89551,-1.00598 h 0.91406 c 0.27148,-3.20459 2.03418,-6.09558 4.61816,-7.89112 l -0.45605,-0.79028 c -0.24756,-0.42834 -0.10059,-0.9762 0.32764,-1.22351 0.14111,-0.08142 0.29492,-0.12012 0.44678,-0.12012 0.30957,0 0.61084,0.16064 0.77686,0.448 l 0.45508,0.78821 c 1.40137,-0.66248 2.96729,-1.03442 4.62061,-1.03442 1.65332,0 3.21924,0.37195 4.62109,1.03442 l 0.45508,-0.78821 c 0.16553,-0.28736 0.4668,-0.448 0.77637,-0.448 m 0,-1 v 0 c -0.67578,-1.2e-4 -1.30518,0.3634 -1.64258,0.94849 l -0.01221,0.021 c -1.33838,-0.50989 -2.74609,-0.7677 -4.19775,-0.7677 -1.45166,0 -2.85938,0.25781 -4.19727,0.7677 l -0.01221,-0.02148 c -0.33789,-0.58484 -0.96729,-0.948 -1.64307,-0.948 -0.33154,0 -0.65918,0.08789 -0.94678,0.25415 -0.43848,0.25317 -0.75195,0.66199 -0.8833,1.151 -0.13086,0.48938 -0.06348,1.00037 0.18994,1.43884 l 0.01416,0.02502 c -2.21094,1.81042 -3.72119,4.38941 -4.19043,7.15601 H 26.79686 26.687 l -0.10742,0.02393 c -0.98828,0.22021 -1.67822,1.03528 -1.67822,1.98206 0,0.94824 0.71533,1.77881 1.7002,1.97485 l 0.09668,0.01917 h 0.09863 0.03369 c 0.46875,2.77258 1.97949,5.3562 4.19141,7.16772 l -0.01514,0.02563 c -0.25293,0.43799 -0.32031,0.94897 -0.18945,1.43835 0.13135,0.48901 0.44482,0.89783 0.8833,1.151 0.2876,0.16626 0.61523,0.25415 0.94678,0.25415 0.67578,0 1.30518,-0.36316 1.64258,-0.94775 l 0.0127,-0.02173 c 1.33789,0.50989 2.74561,0.7677 4.19727,0.7677 1.45166,0 2.85938,-0.25781 4.19775,-0.7677 l 0.01221,0.02148 c 0.3374,0.58459 0.9668,0.948 1.64258,0.948 0.33154,0 0.65918,-0.08789 0.94678,-0.25415 0.90527,-0.52209 1.2168,-1.68359 0.69434,-2.58911 l -0.01514,-0.02612 c 2.21191,-1.8114 3.72217,-4.3949 4.19141,-7.16748 h 0.0332 0.09863 l 0.09668,-0.01917 c 0.98486,-0.19604 1.7002,-1.02661 1.7002,-1.97485 0,-0.94678 -0.68994,-1.76184 -1.67822,-1.98206 L 50.313,36.47598 h -0.10986 -0.03369 c -0.46973,-2.76636 -1.97998,-5.34546 -4.19092,-7.15576 l 0.01465,-0.02539 c 0.52295,-0.90613 0.21143,-2.06763 -0.69434,-2.58997 -0.28712,-0.16602 -0.61476,-0.25391 -0.9463,-0.25391 z"
       id="path12"
       inkscape:connector-curvature="0"
       style="fill:#0e74af" /></g><circle
     cx="38.518101"
     cy="38.47599"
     r="7"
     id="circle16"
     style="fill:#2e3a3d" /><circle
     cx="38.518101"
     cy="38.47599"
     r="8"
     id="circle18"
     style="fill:#656666" /><circle
     cx="38.518101"
     cy="38.47599"
     r="4"
     id="circle20"
     style="fill:#808080" /><circle
     cx="38.518101"
     cy="38.47599"
     r="3"
     id="circle22"
     style="fill:#e5e5e5" /></svg>