<?xml version="1.0" encoding="UTF-8" standalone="no"?>
<!-- Generator: Adobe Illustrator 23.0.3, SVG Export Plug-In . SVG Version: 6.00 Build 0)  -->

<svg
   xmlns:dc="http://purl.org/dc/elements/1.1/"
   xmlns:cc="http://creativecommons.org/ns#"
   xmlns:rdf="http://www.w3.org/1999/02/22-rdf-syntax-ns#"
   xmlns:svg="http://www.w3.org/2000/svg"
   xmlns="http://www.w3.org/2000/svg"
   xmlns:sodipodi="http://sodipodi.sourceforge.net/DTD/sodipodi-0.dtd"
   xmlns:inkscape="http://www.inkscape.org/namespaces/inkscape"
   version="1.0"
   id="Layer_1"
   x="0px"
   y="0px"
   viewBox="0 0 20 20"
   enable-background="new 0 0 20 20"
   xml:space="preserve"
   sodipodi:docname="buchla_audio_in_20_2.svg"
   inkscape:version="0.92.2 5c3e80d, 2017-08-06"><metadata
     id="metadata17"><rdf:RDF><cc:Work
         rdf:about=""><dc:format>image/svg+xml</dc:format><dc:type
           rdf:resource="http://purl.org/dc/dcmitype/StillImage" /><dc:title /></cc:Work></rdf:RDF></metadata><defs
     id="defs15" /><sodipodi:namedview
     pagecolor="#ffffff"
     bordercolor="#666666"
     borderopacity="1"
     objecttolerance="10"
     gridtolerance="10"
     guidetolerance="10"
     inkscape:pageopacity="0"
     inkscape:pageshadow="2"
     inkscape:window-width="1157"
     inkscape:window-height="702"
     id="namedview13"
     showgrid="false"
     inkscape:pagecheckerboard="true"
     inkscape:zoom="11.313708"
     inkscape:cx="0.0042718733"
     inkscape:cy="10"
     inkscape:window-x="105"
     inkscape:window-y="27"
     inkscape:window-maximized="0"
     inkscape:current-layer="Layer_1" /><path
     sodipodi:type="star"
     style="opacity:1;fill:#e5e5e5;fill-opacity:1;stroke:#646464;stroke-width:0.24018081;stroke-miterlimit:4;stroke-dasharray:none;stroke-dashoffset:0;stroke-opacity:1"
     id="path834"
     sodipodi:sides="6"
     sodipodi:cx="4.7266941"
     sodipodi:cy="15.11821"
     sodipodi:r1="4.9827337"
     sodipodi:r2="4.3151741"
     sodipodi:arg1="0.72522991"
     sodipodi:arg2="1.2488287"
     inkscape:flatsided="true"
     inkscape:rounded="0"
     inkscape:randomized="0"
     d="M 8.4555076,18.423295 3.7288136,19.999999 1.2531479e-8,16.694915 0.99788057,11.813125 5.7245747,10.23642 9.4533882,13.541505 Z"
     transform="matrix(0,-2.0585206,1.9691119,0,-19.768666,19.848134)" /><path
     transform="matrix(0,-2.0585206,1.9691119,0,-20.03945,19.346633)"
     d="M 8.4555076,18.423295 3.7288136,19.999999 1.2531479e-8,16.694915 0.99788057,11.813125 5.7245747,10.23642 9.4533882,13.541505 Z"
     inkscape:randomized="0"
     inkscape:rounded="0"
     inkscape:flatsided="true"
     sodipodi:arg2="1.2488287"
     sodipodi:arg1="0.72522991"
     sodipodi:r2="4.3151741"
     sodipodi:r1="4.9827337"
     sodipodi:cy="15.11821"
     sodipodi:cx="4.7266941"
     sodipodi:sides="6"
     id="path861"
     style="opacity:1;fill:#e5e5e5;fill-opacity:1;stroke:none;stroke-width:0.24018081;stroke-miterlimit:4;stroke-dasharray:none;stroke-dashoffset:0;stroke-opacity:1"
     sodipodi:type="star" /><path
     id="path873"
     d="m 16.055997,10.223593 c 0,3.240629 -2.636538,5.876404 -5.878036,5.876404 -3.241489,0 -5.8779577,-2.635775 -5.8779577,-5.876404 0,-3.2406206 2.6364697,-5.8763753 5.8779577,-5.8763753 3.241498,0 5.878036,2.6357743 5.878036,5.8764043"
     inkscape:connector-curvature="0"
     style="fill:none;stroke:#636563;stroke-width:0.60000002;stroke-miterlimit:4;stroke-dasharray:none;stroke-opacity:1" /><path
     style="fill:#b4b4b4;stroke:#636663;stroke-width:0.24437545;fill-opacity:1"
     inkscape:connector-curvature="0"
     d="m 15.777798,9.9014197 c 0,3.2406313 -2.636449,5.8764073 -5.8778371,5.8764073 -3.2413786,0 -5.8777587,-2.635776 -5.8777587,-5.8764073 0,-3.2406215 2.6363801,-5.8763777 5.8777587,-5.8763777 3.2413881,0 5.8778371,2.6357758 5.8778371,5.876407"
     id="path7261_43_" /><path
     inkscape:connector-curvature="0"
     d="m 9.8999707,6.6092313 c 1.8179483,0 3.2930063,1.4746802 3.2930063,3.2921786 0,1.8175181 -1.475048,3.2921881 -3.2930063,3.2921881 -1.8179286,0 -3.2929089,-1.47467 -3.2929089,-3.2921881 0,-1.8175081 1.4749803,-3.2921786 3.2929089,-3.2921786"
     id="path7265_43_"
     style="stroke-width:0.97750181;fill:#4d4d4d" /></svg>