<?xml version="1.0" encoding="UTF-8" standalone="no"?>
<!-- Generator: Adobe Illustrator 23.0.3, SVG Export Plug-In . SVG Version: 6.00 Build 0)  -->

<svg
   xmlns:dc="http://purl.org/dc/elements/1.1/"
   xmlns:cc="http://creativecommons.org/ns#"
   xmlns:rdf="http://www.w3.org/1999/02/22-rdf-syntax-ns#"
   xmlns:svg="http://www.w3.org/2000/svg"
   xmlns="http://www.w3.org/2000/svg"
   xmlns:sodipodi="http://sodipodi.sourceforge.net/DTD/sodipodi-0.dtd"
   xmlns:inkscape="http://www.inkscape.org/namespaces/inkscape"
   version="1.0"
   id="Layer_1"
   x="0px"
   y="0px"
   viewBox="0 0 20.000001 20"
   enable-background="new 0 0 20.00002 20.00001"
   xml:space="preserve"
   sodipodi:docname="pyerSYNCIn20.svg"
   width="20"
   height="20"
   inkscape:version="0.92.2 5c3e80d, 2017-08-06"><metadata
     id="metadata25"><rdf:RDF><cc:Work
         rdf:about=""><dc:format>image/svg+xml</dc:format><dc:type
           rdf:resource="http://purl.org/dc/dcmitype/StillImage" /><dc:title /></cc:Work></rdf:RDF></metadata><defs
     id="defs23" /><sodipodi:namedview
     pagecolor="#ffffff"
     bordercolor="#666666"
     borderopacity="1"
     objecttolerance="10"
     gridtolerance="10"
     guidetolerance="10"
     inkscape:pageopacity="0"
     inkscape:pageshadow="2"
     inkscape:window-width="1124"
     inkscape:window-height="579"
     id="namedview21"
     showgrid="false"
     inkscape:pagecheckerboard="true"
     inkscape:zoom="11.8"
     inkscape:cx="13.353696"
     inkscape:cy="9.9999999"
     inkscape:window-x="171"
     inkscape:window-y="136"
     inkscape:window-maximized="0"
     inkscape:current-layer="Layer_1" /><path
     style="fill:#8d3dae;fill-opacity:1"
     inkscape:connector-curvature="0"
     d="M 10,19.99999 C 4.48488,19.99999 10e-6,15.51516 10e-6,9.9999805 1e-5,4.4849005 4.48488,-9.5367432e-6 10,-9.5367432e-6 15.51512,-9.5367432e-6 19.99999,4.4849005 19.99999,9.9999805 19.99999,15.51516 15.51512,19.99999 10,19.99999"
     id="path7255_37_" /><path
     style="fill:#e5e5e5"
     inkscape:connector-curvature="0"
     d="m 10,15.00003 c -2.75732,0 -5,-2.24272 -5,-5.0000395 0,-2.7573 2.24268,-4.99996 5,-4.99996 2.75732,0 4.99998,2.24266 4.99998,4.9999695 0,2.75732 -2.24268,5.00003 -4.99998,5.00003"
     id="path7261_37_" /><path
     inkscape:connector-curvature="0"
     d="m 13.50001,9.9999905 c 0,1.9322395 -1.56777,3.5000495 -3.49999,3.5000495 -1.93224,0 -3.50001,-1.56779 -3.50001,-3.5000495 0,-1.93223 1.56777,-3.49995 3.50001,-3.49995 1.93222,1e-5 3.49999,1.56773 3.49999,3.49995"
     id="path7265_37_" /><g
     id="g7"
     transform="translate(0,-9.5367432e-6)"
     style="fill:#800080"><path
       d="m 10.00001,5 c 2.76147,0 5,2.23859 5,5 0,2.76141 -2.23853,5 -5,5 -2.76147,0 -5,-2.23859 -5,-5 0,-2.76141 2.23852,-5 5,-5 m 0,-0.75 c -3.17065,0 -5.75,2.57947 -5.75,5.75 0,3.17053 2.57935,5.75 5.75,5.75 3.17065,0 5.75,-2.57947 5.75,-5.75 0,-3.17053 -2.57935,-5.75 -5.75,-5.75 z"
       id="path5"
       inkscape:connector-curvature="0"
       style="fill:#800080" /></g><g
     id="g11"
     transform="translate(0,-9.5367432e-6)"
     style="fill:#6e126e;fill-opacity:1"><path
       d="m 10.00001,0.75 c 5.10059,0 9.25,4.14954 9.25,9.25 0,5.10046 -4.14941,9.25 -9.25,9.25 -5.10059,0 -9.25,-4.14954 -9.25,-9.25 0,-5.10046 4.14941,-9.25 9.25,-9.25 m 0,-0.75 c -5.52295,0 -10,4.47717 -10,10 0,5.52283 4.47705,10 10,10 5.52295,0 10,-4.47717 10,-10 0,-5.52283 -4.47705,-10 -10,-10 z"
       id="path9"
       inkscape:connector-curvature="0"
       style="fill:#6e126e;fill-opacity:1" /></g></svg>