<?xml version="1.0" encoding="UTF-8" standalone="no"?>
<!-- Generator: Adobe Illustrator 23.0.3, SVG Export Plug-In . SVG Version: 6.00 Build 0)  -->

<svg
   xmlns:dc="http://purl.org/dc/elements/1.1/"
   xmlns:cc="http://creativecommons.org/ns#"
   xmlns:rdf="http://www.w3.org/1999/02/22-rdf-syntax-ns#"
   xmlns:svg="http://www.w3.org/2000/svg"
   xmlns="http://www.w3.org/2000/svg"
   xmlns:sodipodi="http://sodipodi.sourceforge.net/DTD/sodipodi-0.dtd"
   xmlns:inkscape="http://www.inkscape.org/namespaces/inkscape"
   version="1.0"
   id="Layer_1"
   x="0px"
   y="0px"
   viewBox="0 0 20 20"
   enable-background="new 0 0 20 20"
   xml:space="preserve"
   sodipodi:docname="pyerCVOut20.svg"
   inkscape:version="0.92.2 5c3e80d, 2017-08-06"><metadata
     id="metadata24"><rdf:RDF><cc:Work
         rdf:about=""><dc:format>image/svg+xml</dc:format><dc:type
           rdf:resource="http://purl.org/dc/dcmitype/StillImage" /><dc:title /></cc:Work></rdf:RDF></metadata><defs
     id="defs22" /><sodipodi:namedview
     pagecolor="#ffffff"
     bordercolor="#666666"
     borderopacity="1"
     objecttolerance="10"
     gridtolerance="10"
     guidetolerance="10"
     inkscape:pageopacity="0"
     inkscape:pageshadow="2"
     inkscape:window-width="1239"
     inkscape:window-height="735"
     id="namedview20"
     showgrid="false"
     inkscape:pagecheckerboard="true"
     inkscape:zoom="11.8"
     inkscape:cx="-5.5932203"
     inkscape:cy="10"
     inkscape:window-x="90"
     inkscape:window-y="60"
     inkscape:window-maximized="0"
     inkscape:current-layer="Layer_1" /><g
     id="g827"><path
       id="path7255_38_"
       d="M 9.99999,19.99998 C 4.48487,19.99998 0,15.51515 0,9.99997 0,4.48489 4.48487,-2e-5 9.99999,-2e-5 c 5.51512,0 9.99999,4.48491 9.99999,9.99999 0,5.51518 -4.48487,10.00001 -9.99999,10.00001"
       inkscape:connector-curvature="0"
       style="fill:#2886dc;fill-opacity:1" /><path
       id="path7261_38_"
       d="M 9.99999,15.00002 C 7.24267,15.00002 5,12.7573 5,9.99999 5,7.24269 7.24268,5.00002 9.99999,5.00002 c 2.75731,0 4.99998,2.24266 4.99998,4.99997 0,2.75732 -2.24268,5.00003 -4.99998,5.00003"
       inkscape:connector-curvature="0"
       style="fill:#969696;fill-opacity:1" /><path
       id="path7265_38_"
       d="m 13.5,9.99999 c 0,1.93224 -1.56777,3.50005 -3.49999,3.50005 C 8.06777,13.50004 6.5,11.93224 6.5,9.99999 6.5,8.06776 8.06777,6.50004 10.00001,6.50004 11.93223,6.50004 13.5,8.06776 13.5,9.99999"
       inkscape:connector-curvature="0" /><path
       d="m 9.99999,4.99998 c 2.76147,0 5,2.23859 5,5 0,2.76141 -2.23853,5 -5,5 -2.76147,0 -5,-2.23859 -5,-5 0,-2.76141 2.23853,-5 5,-5 m 0,-0.75 c -3.17065,0 -5.75,2.57947 -5.75,5.75 0,3.17053 2.57935,5.75 5.75,5.75 3.17065,0 5.75,-2.57947 5.75,-5.75 0,-3.17053 -2.57935,-5.75 -5.75,-5.75 z"
       id="path5"
       inkscape:connector-curvature="0"
       style="fill:#0e74b0;fill-opacity:1" /><path
       d="m 9.99999,0.74998 c 5.10059,0 9.25,4.14954 9.25,9.25 0,5.10046 -4.14941,9.25 -9.25,9.25 -5.10059,0 -9.25,-4.14954 -9.25,-9.25 0,-5.10046 4.14941,-9.25 9.25,-9.25 m 0,-0.75 c -5.52295,0 -10,4.47717 -10,10 0,5.52283 4.47705,10 10,10 5.52295,0 10,-4.47717 10,-10 0,-5.52283 -4.47705,-10 -10,-10 z"
       id="path9"
       inkscape:connector-curvature="0"
       style="fill:#0e74b0;fill-opacity:1" /></g></svg>