<?xml version="1.0" encoding="UTF-8" standalone="no"?>
<!-- Created with Inkscape (http://www.inkscape.org/) -->

<svg
   xmlns:dc="http://purl.org/dc/elements/1.1/"
   xmlns:cc="http://creativecommons.org/ns#"
   xmlns:rdf="http://www.w3.org/1999/02/22-rdf-syntax-ns#"
   xmlns:svg="http://www.w3.org/2000/svg"
   xmlns="http://www.w3.org/2000/svg"
   xmlns:sodipodi="http://sodipodi.sourceforge.net/DTD/sodipodi-0.dtd"
   xmlns:inkscape="http://www.inkscape.org/namespaces/inkscape"
   width="81.279999mm"
   height="128.5mm"
   viewBox="0 0 81.279999 128.5"
   version="1.1"
   id="svg8"
   inkscape:version="0.92.3 (2405546, 2018-03-11)"
   sodipodi:docname="SHEight.svg">
  <defs
     id="defs2" />
  <sodipodi:namedview
     id="base"
     pagecolor="#000000"
     bordercolor="#666666"
     borderopacity="1.0"
     inkscape:pageopacity="0.72156863"
     inkscape:pageshadow="2"
     inkscape:zoom="1.4"
     inkscape:cx="244.58155"
     inkscape:cy="222.64065"
     inkscape:document-units="mm"
     inkscape:current-layer="layer1"
     showgrid="false"
     inkscape:pagecheckerboard="true"
     inkscape:object-nodes="false"
     inkscape:snap-bbox="true"
     inkscape:snap-bbox-midpoints="false"
     inkscape:snap-nodes="true"
     showguides="false"
     inkscape:guide-bbox="true"
     inkscape:bbox-nodes="false"
     inkscape:snap-text-baseline="true"
     inkscape:window-width="1920"
     inkscape:window-height="1027"
     inkscape:window-x="-8"
     inkscape:window-y="22"
     inkscape:window-maximized="1"
     inkscape:snap-bbox-edge-midpoints="true">
    <inkscape:grid
       type="xygrid"
       id="grid815"
       units="mm"
       spacingx="0.1"
       spacingy="0.1" />
    <sodipodi:guide
       position="32.000001,129"
       orientation="1,0"
       id="guide2293"
       inkscape:locked="false" />
    <sodipodi:guide
       position="6.0000002,129"
       orientation="1,0"
       id="guide2297"
       inkscape:locked="false" />
    <sodipodi:guide
       position="75.000003,129"
       orientation="1,0"
       id="guide2299"
       inkscape:locked="false" />
    <sodipodi:guide
       position="-1,106"
       orientation="0,1"
       id="guide2301"
       inkscape:locked="false" />
    <sodipodi:guide
       position="-1,94.000003"
       orientation="0,1"
       id="guide2303"
       inkscape:locked="false" />
    <sodipodi:guide
       position="-1,82.000003"
       orientation="0,1"
       id="guide2305"
       inkscape:locked="false" />
    <sodipodi:guide
       position="-1,70.000002"
       orientation="0,1"
       id="guide2307"
       inkscape:locked="false" />
    <sodipodi:guide
       position="-1,58.000002"
       orientation="0,1"
       id="guide2309"
       inkscape:locked="false" />
    <sodipodi:guide
       position="-1,46.000002"
       orientation="0,1"
       id="guide2311"
       inkscape:locked="false" />
    <sodipodi:guide
       position="-1,34.000001"
       orientation="0,1"
       id="guide2313"
       inkscape:locked="false" />
    <sodipodi:guide
       position="-1,22.000001"
       orientation="0,1"
       id="guide2315"
       inkscape:locked="false" />
    <sodipodi:guide
       position="16.000001,129"
       orientation="1,0"
       id="guide3435"
       inkscape:locked="false" />
    <sodipodi:guide
       position="-1,9.0000003"
       orientation="0,1"
       id="guide4649"
       inkscape:locked="false" />
    <sodipodi:guide
       position="-1,118"
       orientation="0,1"
       id="guide2835"
       inkscape:locked="false" />
    <sodipodi:guide
       position="26.000001,129"
       orientation="1,0"
       id="guide2837"
       inkscape:locked="false" />
    <sodipodi:guide
       position="36.000002,129"
       orientation="1,0"
       id="guide2839"
       inkscape:locked="false" />
    <sodipodi:guide
       position="46.000002,129"
       orientation="1,0"
       id="guide2841"
       inkscape:locked="false" />
    <sodipodi:guide
       position="56.000003,129"
       orientation="1,0"
       id="guide2843"
       inkscape:locked="false" />
    <sodipodi:guide
       position="66.000003,129"
       orientation="1,0"
       id="guide2845"
       inkscape:locked="false" />
    <sodipodi:guide
       position="75.000004,112.06994"
       orientation="0,1"
       id="guide2769"
       inkscape:locked="false" />
  </sodipodi:namedview>
  <metadata
     id="metadata5">
    <rdf:RDF>
      <cc:Work
         rdf:about="">
        <dc:format>image/svg+xml</dc:format>
        <dc:type
           rdf:resource="http://purl.org/dc/dcmitype/StillImage" />
        <dc:title />
      </cc:Work>
    </rdf:RDF>
  </metadata>
  <g
     inkscape:label="Layer 1"
     inkscape:groupmode="layer"
     id="layer1"
     transform="translate(0,-168.5)">
    <path
       style="opacity:1;fill:#53676c;fill-opacity:1;stroke:none;stroke-width:2.15173483;stroke-linecap:round;stroke-linejoin:miter;stroke-miterlimit:4;stroke-dasharray:none;stroke-dashoffset:0.3023622;stroke-opacity:1;paint-order:markers fill stroke"
       d="M 1.2665861,168.5 H 80.013413 c 0.701688,0 1.266586,0.5649 1.266586,1.26659 v 125.96682 c 0,0.70169 -0.564898,1.26659 -1.266586,1.26659 H 1.2665861 C 0.56489739,297 0,296.4351 0,295.73341 V 169.76659 C 0,169.0649 0.56489739,168.5 1.2665861,168.5 Z"
       id="rect2906"
       inkscape:connector-curvature="0" />
    <path
       style="opacity:1;fill:#2c89a0;fill-opacity:1;stroke:none;stroke-width:2.14256597;stroke-linecap:round;stroke-linejoin:miter;stroke-miterlimit:4;stroke-dasharray:none;stroke-dashoffset:0.3023622;stroke-opacity:1;paint-order:markers fill stroke"
       d="M 4.9793811,185.38449 H 7.0206189 C 7.563196,185.38449 8,185.82129 8,186.36387 v 105.77337 c 0,0.54258 -0.436804,0.97938 -0.9793811,0.97938 H 4.9793811 C 4.436804,293.11662 4,292.67982 4,292.13724 V 186.36387 c 0,-0.54258 0.436804,-0.97938 0.9793811,-0.97938 z"
       id="rect4722"
       inkscape:connector-curvature="0" />
    <path
       style="opacity:1;fill:#2c89a0;fill-opacity:1;stroke:none;stroke-width:2.16499996;stroke-linecap:round;stroke-linejoin:miter;stroke-miterlimit:4;stroke-dasharray:none;stroke-dashoffset:0.3023622;stroke-opacity:1;paint-order:markers fill stroke"
       d="m 14.999998,181.11664 h 2.000004 c 0.553999,0 0.999998,0.446 0.999998,1 v 110 c 0,0.554 -0.445999,1 -0.999998,1 h -2.000004 c -0.553999,0 -0.999998,-0.446 -0.999998,-1 v -110 c 0,-0.554 0.445999,-1 0.999998,-1 z"
       id="rect4724"
       inkscape:connector-curvature="0" />
    <path
       style="opacity:1;fill:#2c89a0;fill-opacity:1;stroke:none;stroke-width:2.14178157;stroke-linecap:round;stroke-linejoin:miter;stroke-miterlimit:4;stroke-dasharray:none;stroke-dashoffset:0.3023622;stroke-opacity:1;paint-order:markers fill stroke"
       d="m 24.978664,185.29001 h 2.042672 c 0.54218,0 0.978664,0.43648 0.978664,0.97866 V 291.9646 c 0,0.54218 -0.436484,0.97867 -0.978664,0.97867 H 24.978664 C 24.436484,292.94327 24,292.50678 24,291.9646 V 186.26867 c 0,-0.54218 0.436484,-0.97866 0.978664,-0.97866 z"
       id="rect4726"
       inkscape:connector-curvature="0" />
    <path
       style="opacity:1;fill:#2c89a0;fill-opacity:1;stroke:none;stroke-width:2.16531324;stroke-linecap:round;stroke-linejoin:miter;stroke-miterlimit:4;stroke-dasharray:none;stroke-dashoffset:0.3023622;stroke-opacity:1;paint-order:markers fill stroke"
       d="m 35.000287,185.10101 h 1.999426 c 0.554159,0 1.000287,0.44613 1.000287,1.00029 v 106.03068 c 0,0.55415 -0.446128,1.00028 -1.000287,1.00028 H 35.000287 C 34.446128,293.13226 34,292.68613 34,292.13198 V 186.1013 c 0,-0.55416 0.446128,-1.00029 1.000287,-1.00029 z"
       id="rect4728"
       inkscape:connector-curvature="0" />
    <path
       style="opacity:1;fill:#2c89a0;fill-opacity:1;stroke:none;stroke-width:2.10571694;stroke-linecap:round;stroke-linejoin:miter;stroke-miterlimit:4;stroke-dasharray:none;stroke-dashoffset:0.3023622;stroke-opacity:1;paint-order:markers fill stroke"
       d="m 44.945983,185.19551 h 2.108034 c 0.524075,0 0.945983,0.42191 0.945983,0.94598 v 105.95028 c 0,0.52408 -0.421908,0.94599 -0.945983,0.94599 H 44.945983 C 44.421908,293.03776 44,292.61585 44,292.09177 V 186.14149 c 0,-0.52407 0.421908,-0.94598 0.945983,-0.94598 z"
       id="rect4732"
       inkscape:connector-curvature="0" />
    <path
       style="opacity:1;fill:#2c89a0;fill-opacity:1;stroke:none;stroke-width:2.10756111;stroke-linecap:round;stroke-linejoin:miter;stroke-miterlimit:4;stroke-dasharray:none;stroke-dashoffset:0.3023622;stroke-opacity:1;paint-order:markers fill stroke"
       d="m 54.947637,185.10101 h 2.104718 c 0.524993,0 0.947641,0.42265 0.947641,0.94764 v 106.13597 c 0,0.525 -0.422648,0.94764 -0.947641,0.94764 h -2.104718 c -0.524993,0 -0.947641,-0.42264 -0.947641,-0.94764 V 186.04865 c 0,-0.52499 0.422648,-0.94764 0.947641,-0.94764 z"
       id="rect4734"
       inkscape:connector-curvature="0" />
    <path
       style="opacity:1;fill:#2c89a0;fill-opacity:1;stroke:none;stroke-width:2.1463213;stroke-linecap:round;stroke-linejoin:miter;stroke-miterlimit:4;stroke-dasharray:none;stroke-dashoffset:0.3023622;stroke-opacity:1;paint-order:markers fill stroke"
       d="m 62.964631,185.00657 c -0.534517,0 -0.964798,0.42289 -0.964798,0.94823 v 98.31655 7.86259 0.0254 c 0,0.46036 0.330602,0.84205 0.772046,0.92943 0.07347,0.0168 0.14908,0.0279 0.227894,0.0279 h 16.000055 c 0.554,0 0.99994,-0.43828 0.99994,-0.98276 v -7.86259 c 0,-0.54448 -0.44594,-0.98275 -0.99994,-0.98275 h -8.999966 v -97.33381 c 0,-0.52534 -0.430284,-0.94823 -0.964801,-0.94823 z"
       id="rect3768"
       inkscape:connector-curvature="0" />
    <path
       style="opacity:1;fill:#c8beb7;fill-opacity:1;stroke:none;stroke-width:2.16499996;stroke-linecap:round;stroke-linejoin:miter;stroke-miterlimit:4;stroke-dasharray:none;stroke-dashoffset:0.3023622;stroke-opacity:1;paint-order:markers fill stroke"
       d="M 2.2665864,270.2334 H 78.733413 c 0.701689,0 1.266587,0.5649 1.266587,1.26659 v 7.46682 c 0,0.70169 -0.564898,1.26659 -1.266587,1.26659 H 2.2665864 c -0.7016891,0 -1.26658676,-0.5649 -1.26658676,-1.26659 v -7.46682 c 0,-0.70169 0.56489766,-1.26659 1.26658676,-1.26659 z"
       id="rect3707"
       inkscape:connector-curvature="0" />
    <path
       style="opacity:1;fill:#c8beb7;fill-opacity:1;stroke:none;stroke-width:2.16499996;stroke-linecap:round;stroke-linejoin:miter;stroke-miterlimit:4;stroke-dasharray:none;stroke-dashoffset:0.3023622;stroke-opacity:1;paint-order:markers fill stroke"
       d="M 2.2665862,258.23334 H 78.733413 c 0.701689,0 1.266586,0.5649 1.266586,1.26658 v 7.46683 c 0,0.70169 -0.564897,1.26659 -1.266586,1.26659 H 2.2665862 c -0.701689,0 -1.26658674,-0.5649 -1.26658674,-1.26659 v -7.46683 c 0,-0.70168 0.56489774,-1.26658 1.26658674,-1.26658 z"
       id="rect3707-6"
       inkscape:connector-curvature="0" />
    <path
       style="opacity:1;fill:#c8beb7;fill-opacity:1;stroke:none;stroke-width:2.16499996;stroke-linecap:round;stroke-linejoin:miter;stroke-miterlimit:4;stroke-dasharray:none;stroke-dashoffset:0.3023622;stroke-opacity:1;paint-order:markers fill stroke"
       d="M 2.2665862,246.23328 H 78.733413 c 0.701689,0 1.266586,0.56489 1.266586,1.26658 v 7.46683 c 0,0.70169 -0.564897,1.26659 -1.266586,1.26659 H 2.2665862 c -0.701689,0 -1.26658674,-0.5649 -1.26658674,-1.26659 v -7.46683 c 0,-0.70169 0.56489774,-1.26658 1.26658674,-1.26658 z"
       id="rect3707-5"
       inkscape:connector-curvature="0" />
    <path
       style="opacity:1;fill:#c8beb7;fill-opacity:1;stroke:none;stroke-width:2.16499996;stroke-linecap:round;stroke-linejoin:miter;stroke-miterlimit:4;stroke-dasharray:none;stroke-dashoffset:0.3023622;stroke-opacity:1;paint-order:markers fill stroke"
       d="M 2.2665864,234.23328 H 78.733413 c 0.701689,0 1.266587,0.56489 1.266587,1.26658 v 7.46683 c 0,0.70169 -0.564898,1.26659 -1.266587,1.26659 H 2.2665864 c -0.7016891,0 -1.26658676,-0.5649 -1.26658676,-1.26659 v -7.46683 c 0,-0.70169 0.56489766,-1.26658 1.26658676,-1.26658 z"
       id="rect3707-57"
       inkscape:connector-curvature="0" />
    <path
       style="opacity:1;fill:#c8beb7;fill-opacity:1;stroke:none;stroke-width:2.16499996;stroke-linecap:round;stroke-linejoin:miter;stroke-miterlimit:4;stroke-dasharray:none;stroke-dashoffset:0.3023622;stroke-opacity:1;paint-order:markers fill stroke"
       d="M 2.2665862,222.23328 H 78.733413 c 0.701689,0 1.266586,0.56489 1.266586,1.26658 v 7.46683 c 0,0.70169 -0.564897,1.26659 -1.266586,1.26659 H 2.2665862 c -0.701689,0 -1.26658674,-0.5649 -1.26658674,-1.26659 v -7.46683 c 0,-0.70169 0.56489774,-1.26658 1.26658674,-1.26658 z"
       id="rect3707-1"
       inkscape:connector-curvature="0" />
    <path
       style="opacity:1;fill:#c8beb7;fill-opacity:1;stroke:none;stroke-width:2.16499996;stroke-linecap:round;stroke-linejoin:miter;stroke-miterlimit:4;stroke-dasharray:none;stroke-dashoffset:0.3023622;stroke-opacity:1;paint-order:markers fill stroke"
       d="M 2.2665864,210.23328 H 78.733413 c 0.701689,0 1.266587,0.56489 1.266587,1.26658 v 7.46683 c 0,0.70169 -0.564898,1.26659 -1.266587,1.26659 H 2.2665864 c -0.7016891,0 -1.26658676,-0.5649 -1.26658676,-1.26659 v -7.46683 c 0,-0.70169 0.56489766,-1.26658 1.26658676,-1.26658 z"
       id="rect3707-8"
       inkscape:connector-curvature="0" />
    <path
       style="opacity:1;fill:#c8beb7;fill-opacity:1;stroke:none;stroke-width:2.16499996;stroke-linecap:round;stroke-linejoin:miter;stroke-miterlimit:4;stroke-dasharray:none;stroke-dashoffset:0.3023622;stroke-opacity:1;paint-order:markers fill stroke"
       d="M 2.2665864,198.23328 H 78.733413 c 0.701689,0 1.266587,0.56489 1.266587,1.26658 v 7.46683 c 0,0.70169 -0.564898,1.26659 -1.266587,1.26659 H 2.2665864 c -0.7016891,0 -1.26658676,-0.5649 -1.26658676,-1.26659 v -7.46683 c 0,-0.70169 0.56489766,-1.26658 1.26658676,-1.26658 z"
       id="rect3707-9"
       inkscape:connector-curvature="0" />
    <path
       style="opacity:1;fill:#c8beb7;fill-opacity:1;stroke:none;stroke-width:2.16499996;stroke-linecap:round;stroke-linejoin:miter;stroke-miterlimit:4;stroke-dasharray:none;stroke-dashoffset:0.3023622;stroke-opacity:1;paint-order:markers fill stroke"
       d="M 2.2665864,186.23328 H 78.733413 c 0.701689,0 1.266587,0.56489 1.266587,1.26658 v 7.46683 c 0,0.70169 -0.564898,1.26659 -1.266587,1.26659 H 2.2665864 c -0.7016891,0 -1.26658676,-0.5649 -1.26658676,-1.26659 v -7.46683 c 0,-0.70169 0.56489766,-1.26658 1.26658676,-1.26658 z"
       id="rect3707-3"
       inkscape:connector-curvature="0" />
    <g
       aria-label="S&amp;H/Eight"
       style="font-style:normal;font-variant:normal;font-weight:bold;font-stretch:normal;font-size:2.11666656px;line-height:1.25;font-family:sans-serif;-inkscape-font-specification:'sans-serif Bold';letter-spacing:0px;word-spacing:0px;fill:#87cdde;fill-opacity:1;stroke:none;stroke-width:0.26458332"
       id="text2289">
      <path
         d="m 44.699327,173.88204 v 1.60817 q -0.181901,-0.062 -0.281119,-0.062 -0.19017,0 -0.326595,0.14056 -0.136426,0.14056 -0.136426,0.339 0,0.1695 0.148828,0.42994 l 0.128158,0.22325 q 0.347265,0.60358 0.347265,1.16582 0,0.82269 -0.587044,1.39319 -0.58291,0.57051 -1.42627,0.57051 -0.405143,0 -0.802018,-0.18603 v -1.63298 q 0.239779,0.15296 0.425814,0.15296 0.219108,0 0.363802,-0.12402 0.148828,-0.12816 0.148828,-0.31833 0,-0.12402 -0.235644,-0.54157 -0.376205,-0.66145 -0.376205,-1.32291 0,-0.79789 0.566374,-1.37253 0.570508,-0.57877 1.360124,-0.57877 0.347265,0 0.682128,0.11575 z"
         style="font-style:normal;font-variant:normal;font-weight:bold;font-stretch:normal;font-size:8.46666622px;font-family:'Bauhaus 93';-inkscape-font-specification:'Bauhaus 93 Bold';fill:#87cdde;fill-opacity:1;stroke-width:0.26458332"
         id="path2862"
         inkscape:connector-curvature="0" />
      <path
         d="m 48.837576,177.12732 h 1.050065 q 0.01654,0.1943 0.01654,0.27285 0,0.50023 -0.243912,0.94258 l 0.79375,1.20716 H 48.98227 l -0.165365,-0.19844 q -0.483691,0.339 -1.008724,0.339 -0.760677,0 -1.298112,-0.52503 -0.5333,-0.52917 -0.5333,-1.27744 0,-0.8475 0.735872,-1.45108 -0.396875,-0.50436 -0.396875,-1.03766 0,-0.67386 0.471289,-1.15342 0.475423,-0.47955 1.141016,-0.47955 0.657324,0 1.132747,0.46302 0.475423,0.46302 0.475423,1.09967 0,0.0868 -0.0083,0.21497 H 48.2505 q -0.03307,-0.42167 -0.293522,-0.42167 -0.243913,0 -0.243913,0.23564 0,0.0827 0.07028,0.18603 z m -1.339453,0.38034 q -0.202572,0.14883 -0.202572,0.34726 0,0.19017 0.11989,0.32247 0.124023,0.13229 0.30179,0.13229 0.132292,0 0.285254,-0.11162 z"
         style="font-style:normal;font-variant:normal;font-weight:bold;font-stretch:normal;font-size:8.46666622px;font-family:'Bauhaus 93';-inkscape-font-specification:'Bauhaus 93 Bold';fill:#87cdde;fill-opacity:1;stroke-width:0.26458332"
         id="path2864"
         inkscape:connector-curvature="0" />
      <path
         d="m 54.149913,175.92429 v 1.48828 h -0.467155 v 2.13734 h -1.67845 v -5.64306 h 1.67845 v 2.01744 z m 1.963704,-2.01744 v 5.64306 h -1.67845 v -5.64306 z"
         style="font-style:normal;font-variant:normal;font-weight:bold;font-stretch:normal;font-size:8.46666622px;font-family:'Bauhaus 93';-inkscape-font-specification:'Bauhaus 93 Bold';fill:#87cdde;fill-opacity:1;stroke-width:0.26458332"
         id="path2866"
         inkscape:connector-curvature="0" />
      <path
         d="m 59.222471,173.90685 -1.542025,6.7138 h -0.752408 l 1.53789,-6.7138 z"
         style="font-style:normal;font-variant:normal;font-weight:bold;font-stretch:normal;font-size:8.46666622px;font-family:'Bauhaus 93';-inkscape-font-specification:'Bauhaus 93 Bold';fill:#87cdde;fill-opacity:1;stroke-width:0.26458332"
         id="path2868"
         inkscape:connector-curvature="0" />
      <path
         d="m 63.199489,176.10206 v 1.25677 h -1.095541 q -0.223242,0 -0.318326,0.0661 -0.09095,0.0661 -0.09095,0.22324 0,0.17777 0.09508,0.23564 0.09508,0.0538 0.388607,0.0538 h 1.128613 v 1.6123 h -1.318783 q -0.930175,0 -1.422135,-0.44235 -0.49196,-0.44648 -0.49196,-1.28571 v -2.21175 q 0,-0.81029 0.463021,-1.25677 0.467155,-0.44648 1.310514,-0.44648 h 1.459343 v 1.62057 H 62.23624 q -0.434082,0 -0.434082,0.28112 0,0.16536 0.103353,0.23151 0.103353,0.062 0.367936,0.062 z"
         style="font-style:normal;font-variant:normal;font-weight:bold;font-stretch:normal;font-size:8.46666622px;font-family:'Bauhaus 93';-inkscape-font-specification:'Bauhaus 93 Bold';fill:#87cdde;fill-opacity:1;stroke-width:0.26458332"
         id="path2870"
         inkscape:connector-curvature="0" />
      <path
         d="m 65.704762,175.4282 v 4.12171 h -1.546159 v -4.12171 z m -0.768945,-1.83968 q 0.314193,0 0.541569,0.22324 0.23151,0.21911 0.23151,0.5209 0,0.32246 -0.219108,0.52917 -0.214974,0.2067 -0.553971,0.2067 -0.338997,0 -0.558106,-0.2067 -0.214973,-0.20671 -0.214973,-0.52917 0,-0.30179 0.227376,-0.5209 0.23151,-0.22324 0.545703,-0.22324 z"
         style="font-style:normal;font-variant:normal;font-weight:bold;font-stretch:normal;font-size:8.46666622px;font-family:'Bauhaus 93';-inkscape-font-specification:'Bauhaus 93 Bold';fill:#87cdde;fill-opacity:1;stroke-width:0.26458332"
         id="path2872"
         inkscape:connector-curvature="0" />
      <path
         d="m 68.821884,177.85079 v 1.418 q -0.334863,0.12403 -0.640787,0.12403 -0.748275,0 -1.269174,-0.56638 -0.516764,-0.56637 -0.516764,-1.38493 0,-0.8847 0.624251,-1.49241 0.624252,-0.60772 1.533757,-0.60772 0.483691,0 0.926041,0.19431 0.442351,0.1943 0.694532,0.52089 0.421679,0.54157 0.421679,1.57097 v 1.35599 q 0,1.10381 -0.628385,1.79007 -0.624251,0.6904 -1.628841,0.6904 -0.305925,0 -0.773079,-0.15297 v -1.40559 q 0.30179,0.16536 0.611848,0.16536 0.417546,0 0.644922,-0.27699 0.227377,-0.27285 0.227377,-0.78548 v -1.55029 q 0,-0.64906 -0.525033,-0.64906 -0.223242,0 -0.392741,0.17364 -0.165364,0.1695 -0.165364,0.39274 0,0.23564 0.157096,0.39274 0.16123,0.15709 0.396875,0.15709 0.157096,0 0.30179,-0.0744 z"
         style="font-style:normal;font-variant:normal;font-weight:bold;font-stretch:normal;font-size:8.46666622px;font-family:'Bauhaus 93';-inkscape-font-specification:'Bauhaus 93 Bold';fill:#87cdde;fill-opacity:1;stroke-width:0.26458332"
         id="path2874"
         inkscape:connector-curvature="0" />
      <path
         d="m 73.04695,173.90685 v 1.72392 q 0.392741,-0.28525 0.785482,-0.28525 0.595312,0 0.942578,0.42995 0.3514,0.42994 0.3514,1.16168 v 2.61276 h -1.546159 v -2.17868 q 0,-0.26458 -0.05788,-0.35553 -0.05374,-0.091 -0.214974,-0.091 -0.260449,0 -0.260449,0.38447 v 2.24069 h -1.546159 v -5.64306 z"
         style="font-style:normal;font-variant:normal;font-weight:bold;font-stretch:normal;font-size:8.46666622px;font-family:'Bauhaus 93';-inkscape-font-specification:'Bauhaus 93 Bold';fill:#87cdde;fill-opacity:1;stroke-width:0.26458332"
         id="path2876"
         inkscape:connector-curvature="0" />
      <path
         d="m 77.40844,173.90685 v 1.57923 h 0.694531 v 1.63297 H 77.40844 q 0,0.49196 0.152962,0.678 0.157097,0.18603 0.570508,0.18603 v 1.62471 q -0.119889,0.004 -0.177767,0.004 -0.525032,0 -0.992187,-0.24391 -0.463021,-0.24391 -0.744141,-0.66146 -0.355534,-0.5333 -0.355534,-1.41386 v -3.38584 z"
         style="font-style:normal;font-variant:normal;font-weight:bold;font-stretch:normal;font-size:8.46666622px;font-family:'Bauhaus 93';-inkscape-font-specification:'Bauhaus 93 Bold';fill:#87cdde;fill-opacity:1;stroke-width:0.26458332"
         id="path2878"
         inkscape:connector-curvature="0" />
    </g>
    <g
       id="text4647"
       style="font-style:normal;font-variant:normal;font-weight:bold;font-stretch:normal;font-size:2.11666656px;line-height:1.25;font-family:sans-serif;-inkscape-font-specification:'sans-serif Bold';letter-spacing:0px;word-spacing:0px;fill:#c8beb7;fill-opacity:1;stroke:none;stroke-width:0.26458332"
       transform="rotate(-90,5.9075083,-3.9707333)"
       aria-label="Signal">
      <path
         inkscape:connector-curvature="0"
         id="path2896"
         style="font-size:3.17499995px;text-align:end;text-anchor:end;fill:#c8beb7;fill-opacity:1;stroke-width:0.26458332"
         d="m -287.88938,6.2744629 q 0,0.3410644 -0.2899,0.5550049 -0.28836,0.2123901 -0.78445,0.2123901 -0.28681,0 -0.50075,-0.049609 -0.21239,-0.05116 -0.39842,-0.1286743 v -0.553455 h 0.0651 q 0.18448,0.1472779 0.41238,0.2263428 0.22944,0.079065 0.44028,0.079065 0.0543,0 0.14263,-0.0093 0.0884,-0.0093 0.14417,-0.031006 0.0682,-0.027905 0.11163,-0.069763 0.0449,-0.041858 0.0449,-0.1240235 0,-0.075964 -0.0651,-0.1302246 -0.0636,-0.05581 -0.18758,-0.085266 -0.13023,-0.031006 -0.27596,-0.057361 -0.14417,-0.027905 -0.2713,-0.069763 -0.29145,-0.094568 -0.42013,-0.2557984 -0.12712,-0.1627807 -0.12712,-0.4030761 0,-0.322461 0.28835,-0.5255493 0.28991,-0.2046387 0.74415,-0.2046387 0.22789,0 0.44958,0.044958 0.22324,0.043408 0.38602,0.1100708 v 0.5317505 h -0.0636 q -0.13953,-0.1116211 -0.34261,-0.1860352 -0.20154,-0.075964 -0.41238,-0.075964 -0.0744,0 -0.14883,0.010852 -0.0729,0.0093 -0.14108,0.037207 -0.0605,0.023254 -0.10387,0.071313 -0.0434,0.046509 -0.0434,0.1069702 0,0.091467 0.0698,0.1410767 0.0698,0.048059 0.26355,0.088367 0.12712,0.026355 0.24339,0.05116 0.11783,0.024805 0.2527,0.068213 0.2651,0.086816 0.39068,0.2371949 0.12712,0.1488281 0.12712,0.3875732 z" />
      <path
         inkscape:connector-curvature="0"
         id="path2898"
         style="font-size:3.17499995px;text-align:end;text-anchor:end;fill:#c8beb7;fill-opacity:1;stroke-width:0.26458332"
         d="m -286.953,7 h -0.55811 V 5.259021 h 0.55811 z m 0.0155,-1.9890258 h -0.58911 v -0.42323 h 0.58911 z" />
      <path
         inkscape:connector-curvature="0"
         id="path2900"
         style="font-size:3.17499995px;text-align:end;text-anchor:end;fill:#c8beb7;fill-opacity:1;stroke-width:0.26458332"
         d="m -284.73298,6.8000122 q 0,0.2449463 -0.0698,0.4123779 -0.0698,0.1674317 -0.19533,0.2619995 -0.12558,0.096118 -0.30386,0.1379761 -0.17673,0.043408 -0.39998,0.043408 -0.18138,0 -0.35811,-0.021704 -0.17519,-0.021704 -0.30386,-0.05271 V 7.1457275 h 0.0682 q 0.10232,0.040308 0.2496,0.072864 0.14728,0.034107 0.26355,0.034107 0.15503,0 0.25115,-0.029456 0.0977,-0.027905 0.14882,-0.080615 0.0481,-0.049609 0.0698,-0.1271241 0.0217,-0.077515 0.0217,-0.1860351 v -0.032556 q -0.10077,0.082166 -0.22324,0.1302246 -0.12247,0.048059 -0.27285,0.048059 -0.36587,0 -0.56431,-0.2201416 -0.19844,-0.2201416 -0.19844,-0.6697265 0,-0.2154908 0.0605,-0.3720703 0.0605,-0.1565796 0.17054,-0.2728516 0.10232,-0.1085205 0.25114,-0.1689819 0.15038,-0.060461 0.30696,-0.060461 0.14108,0 0.2558,0.034107 0.11627,0.032556 0.21084,0.091467 l 0.0202,-0.077515 h 0.54106 z m -0.55811,-0.3488159 V 5.6620972 q -0.0481,-0.020154 -0.11782,-0.031006 -0.0698,-0.012402 -0.12557,-0.012402 -0.22015,0 -0.33022,0.127124 -0.11007,0.1255737 -0.11007,0.3519165 0,0.2511475 0.093,0.3503662 0.0946,0.099219 0.27905,0.099219 0.0837,0 0.16433,-0.026355 0.0806,-0.026355 0.14728,-0.069763 z" />
      <path
         inkscape:connector-curvature="0"
         id="path2902"
         style="font-size:3.17499995px;text-align:end;text-anchor:end;fill:#c8beb7;fill-opacity:1;stroke-width:0.26458332"
         d="m -282.45715,7 h -0.56121 V 6.1364868 q 0,-0.1054199 -0.0109,-0.2092895 -0.0109,-0.1054199 -0.0372,-0.1550293 -0.031,-0.057361 -0.0915,-0.083716 -0.0589,-0.026355 -0.16588,-0.026355 -0.076,0 -0.15503,0.024805 -0.0775,0.024805 -0.16898,0.079065 V 7 h -0.5581 V 5.259021 h 0.5581 v 0.1922363 q 0.14883,-0.1162719 0.28526,-0.1782836 0.13797,-0.062012 0.3054,-0.062012 0.28216,0 0.44029,0.1643311 0.15968,0.164331 0.15968,0.4914429 z" />
      <path
         inkscape:connector-curvature="0"
         id="path2904"
         style="font-size:3.17499995px;text-align:end;text-anchor:end;fill:#c8beb7;fill-opacity:1;stroke-width:0.26458332"
         d="M -280.88826,6.5457642 V 6.1829956 q -0.11317,0.0093 -0.24494,0.026355 -0.13178,0.015503 -0.19999,0.037207 -0.0837,0.026355 -0.12867,0.077515 -0.0434,0.049609 -0.0434,0.1317749 0,0.05426 0.009,0.088367 0.009,0.034106 0.0465,0.065112 0.0356,0.031006 0.0853,0.046509 0.0496,0.013953 0.15503,0.013953 0.0837,0 0.16898,-0.034106 0.0868,-0.034107 0.15193,-0.089917 z m 0,0.2697509 q -0.0449,0.034107 -0.11162,0.082166 -0.0667,0.048059 -0.12557,0.075964 -0.0822,0.037207 -0.17053,0.05426 -0.0884,0.018604 -0.19379,0.018604 -0.24805,0 -0.41548,-0.153479 -0.16743,-0.153479 -0.16743,-0.3922241 0,-0.1906861 0.0853,-0.3116089 0.0853,-0.1209229 0.24184,-0.190686 0.15503,-0.069763 0.38447,-0.099219 0.22945,-0.029456 0.47594,-0.043408 v -0.0093 q 0,-0.1441772 -0.11782,-0.1984374 -0.11782,-0.055811 -0.34726,-0.055811 -0.13798,0 -0.29456,0.049609 -0.15658,0.048059 -0.22479,0.074414 h -0.0512 V 5.2962281 q 0.0884,-0.023254 0.2868,-0.05426 0.19999,-0.032556 0.39998,-0.032556 0.47594,0 0.68678,0.1472779 0.21239,0.1457275 0.21239,0.4588867 V 7 h -0.55346 z" />
      <path
         inkscape:connector-curvature="0"
         id="path2906"
         style="font-size:3.17499995px;text-align:end;text-anchor:end;fill:#c8beb7;fill-opacity:1;stroke-width:0.26458332"
         d="m -279.26355,7 h -0.5581 V 4.5877442 h 0.5581 z" />
    </g>
    <g
       id="text4647-8"
       style="font-style:normal;font-variant:normal;font-weight:bold;font-stretch:normal;font-size:2.11666656px;line-height:1.25;font-family:sans-serif;-inkscape-font-specification:'sans-serif Bold';letter-spacing:0px;word-spacing:0px;fill:#c8beb7;fill-opacity:1;stroke:none;stroke-width:0.26458332"
       transform="rotate(-90,1.0583334,1.0583333)"
       aria-label="Probs">
      <path
         inkscape:connector-curvature="0"
         id="path2920"
         style="font-size:3.17499995px;text-align:end;text-anchor:end;fill:#c8beb7;fill-opacity:1;stroke-width:0.26458332"
         d="m -286.99486,25.420251 q 0,0.15503 -0.0543,0.303858 -0.0543,0.147278 -0.15503,0.248047 -0.13798,0.136426 -0.30851,0.206189 -0.16898,0.06976 -0.42168,0.06976 h -0.37052 V 27 h -0.59531 v -2.308386 h 0.97978 q 0.22015,0 0.37052,0.03876 0.15193,0.03721 0.26821,0.113172 0.13952,0.09147 0.21239,0.234094 0.0744,0.142627 0.0744,0.342614 z m -0.61547,0.01395 q 0,-0.09767 -0.0527,-0.167432 -0.0527,-0.07131 -0.12247,-0.09922 -0.093,-0.03721 -0.18138,-0.04031 -0.0884,-0.0047 -0.23565,-0.0047 h -0.10232 v 0.691431 h 0.17053 q 0.15193,0 0.2496,-0.0186 0.0992,-0.0186 0.16588,-0.07441 0.0574,-0.04961 0.0822,-0.117822 0.0264,-0.06976 0.0264,-0.168982 z" />
      <path
         inkscape:connector-curvature="0"
         id="path2922"
         style="font-size:3.17499995px;text-align:end;text-anchor:end;fill:#c8beb7;fill-opacity:1;stroke-width:0.26458332"
         d="m -285.3438,25.790772 h -0.0496 q -0.0356,-0.0124 -0.11472,-0.0186 -0.0791,-0.0062 -0.13177,-0.0062 -0.11938,0 -0.21084,0.0155 -0.0915,0.0155 -0.19689,0.05271 V 27 h -0.55811 v -1.740979 h 0.55811 v 0.255798 q 0.18448,-0.15813 0.32091,-0.209289 0.13642,-0.05271 0.25115,-0.05271 0.0294,0 0.0667,0.0016 0.0372,0.0015 0.0651,0.0047 z" />
      <path
         inkscape:connector-curvature="0"
         id="path2924"
         style="font-size:3.17499995px;text-align:end;text-anchor:end;fill:#c8beb7;fill-opacity:1;stroke-width:0.26458332"
         d="m -283.2447,26.130286 q 0,0.429431 -0.25115,0.677478 -0.2496,0.246496 -0.70228,0.246496 -0.45269,0 -0.70384,-0.246496 -0.24959,-0.248047 -0.24959,-0.677478 0,-0.432532 0.25115,-0.679029 0.25269,-0.246496 0.70228,-0.246496 0.45578,0 0.70383,0.248047 0.2496,0.248047 0.2496,0.677478 z m -0.68678,0.42323 q 0.0543,-0.06666 0.0806,-0.159681 0.0279,-0.09457 0.0279,-0.260449 0,-0.153479 -0.0279,-0.257348 -0.0279,-0.10387 -0.0775,-0.165882 -0.0496,-0.06356 -0.11937,-0.08992 -0.0698,-0.02636 -0.15038,-0.02636 -0.0806,0 -0.14418,0.0217 -0.062,0.02171 -0.11937,0.08682 -0.0512,0.06046 -0.0822,0.165881 -0.0294,0.10542 -0.0294,0.2651 0,0.142627 0.0264,0.248047 0.0264,0.10387 0.0775,0.167432 0.0496,0.06046 0.11782,0.08837 0.0698,0.02791 0.15813,0.02791 0.076,0 0.14418,-0.02481 0.0698,-0.02636 0.11782,-0.08682 z" />
      <path
         inkscape:connector-curvature="0"
         id="path2926"
         style="font-size:3.17499995px;text-align:end;text-anchor:end;fill:#c8beb7;fill-opacity:1;stroke-width:0.26458332"
         d="m -281.02468,26.105481 q 0,0.410828 -0.2279,0.669727 -0.22634,0.258898 -0.56585,0.258898 -0.14573,0 -0.2558,-0.03101 -0.11007,-0.03101 -0.20929,-0.08992 L -282.30677,27 h -0.53486 v -2.412256 h 0.55811 v 0.852661 q 0.12867,-0.102319 0.262,-0.165881 0.13487,-0.06356 0.31006,-0.06356 0.33021,0 0.50849,0.238745 0.17829,0.237195 0.17829,0.655774 z m -0.57516,0.01085 q 0,-0.232544 -0.0791,-0.358118 -0.0791,-0.125573 -0.28215,-0.125573 -0.0791,0 -0.16278,0.0248 -0.0837,0.02325 -0.15968,0.06821 v 0.874365 q 0.0605,0.0217 0.11472,0.02946 0.0543,0.0078 0.13023,0.0078 0.22169,0 0.33021,-0.130224 0.10852,-0.130225 0.10852,-0.390674 z" />
      <path
         inkscape:connector-curvature="0"
         id="path2928"
         style="font-size:3.17499995px;text-align:end;text-anchor:end;fill:#c8beb7;fill-opacity:1;stroke-width:0.26458332"
         d="m -279.10852,26.448096 q 0,0.269751 -0.24185,0.435632 -0.24184,0.164331 -0.66197,0.164331 -0.23255,0 -0.42168,-0.04341 -0.18914,-0.04341 -0.30386,-0.09612 v -0.458887 h 0.0512 q 0.0419,0.02946 0.0961,0.06511 0.0558,0.03411 0.15658,0.07441 0.0868,0.03566 0.19689,0.06201 0.11007,0.02481 0.23564,0.02481 0.16433,0 0.2434,-0.03566 0.0791,-0.03721 0.0791,-0.10852 0,-0.06356 -0.0465,-0.09147 -0.0465,-0.02945 -0.17673,-0.05581 -0.062,-0.01395 -0.16898,-0.02946 -0.10542,-0.01705 -0.19224,-0.04031 -0.23719,-0.06201 -0.35192,-0.192237 -0.11472,-0.131775 -0.11472,-0.327112 0,-0.251147 0.2372,-0.417028 0.23874,-0.167432 0.65112,-0.167432 0.19534,0 0.37362,0.04031 0.17984,0.03876 0.2806,0.08371 v 0.440284 h -0.048 q -0.12403,-0.08527 -0.28371,-0.137976 -0.15813,-0.05426 -0.32091,-0.05426 -0.13487,0 -0.22789,0.03721 -0.0915,0.03721 -0.0915,0.10542 0,0.06201 0.0419,0.09457 0.0419,0.03256 0.19689,0.06511 0.0853,0.01705 0.18293,0.03411 0.0992,0.0155 0.19844,0.04031 0.22014,0.05736 0.32556,0.181385 0.10542,0.122473 0.10542,0.306958 z" />
    </g>
    <path
       style="opacity:1;fill:#2c89a0;fill-opacity:1;stroke:none;stroke-width:2.37163854;stroke-linecap:round;stroke-linejoin:miter;stroke-miterlimit:4;stroke-dasharray:none;stroke-dashoffset:0.3023622;stroke-opacity:1;paint-order:markers fill stroke"
       d="M 2.2577603,172.11664 H 19.74224 c 0.696799,0 1.25776,0.56096 1.25776,1.25776 v 9.48448 c 0,0.6968 -0.560961,1.25776 -1.25776,1.25776 H 2.2577603 C 1.5609611,184.11664 1,183.55568 1,182.85888 v -9.48448 c 0,-0.6968 0.5609611,-1.25776 1.2577603,-1.25776 z"
       id="rect5763"
       inkscape:connector-curvature="0" />
    <g
       aria-label="Common TRG"
       style="font-style:normal;font-variant:normal;font-weight:bold;font-stretch:normal;font-size:2.11666656px;line-height:1.25;font-family:sans-serif;-inkscape-font-specification:'sans-serif Bold';letter-spacing:0px;word-spacing:0px;fill:#c8beb7;fill-opacity:1;stroke:none;stroke-width:0.26458332"
       id="text4812-8">
      <path
         d="m 3.9306646,174.41297 q -0.1715657,0 -0.3172933,-0.0506 -0.144694,-0.0506 -0.2490804,-0.1509 -0.1043864,-0.10025 -0.162264,-0.25011 -0.056844,-0.14987 -0.056844,-0.34624 0,-0.18293 0.054777,-0.33176 0.054777,-0.14883 0.1591634,-0.25528 0.1002523,-0.10232 0.2480469,-0.15813 0.1488281,-0.0558 0.3245279,-0.0558 0.097152,0 0.1746664,0.0114 0.078548,0.0103 0.144694,0.0279 0.069246,0.0196 0.1250569,0.0444 0.056844,0.0238 0.099219,0.0444 v 0.3731 h -0.045475 q -0.028939,-0.0248 -0.07338,-0.0589 -0.043408,-0.0341 -0.099219,-0.0672 -0.056844,-0.0331 -0.1229899,-0.0558 -0.066146,-0.0227 -0.1415934,-0.0227 -0.083716,0 -0.1591634,0.0269 -0.075448,0.0258 -0.1395263,0.0868 -0.060978,0.0589 -0.099219,0.15606 -0.037207,0.0971 -0.037207,0.23565 0,0.14469 0.040308,0.24184 0.041341,0.0971 0.1033529,0.15297 0.063045,0.0568 0.1405598,0.0816 0.077515,0.0238 0.1529623,0.0238 0.072347,0 0.1426269,-0.0217 0.071314,-0.0217 0.1312582,-0.0589 0.050643,-0.03 0.094051,-0.0641 0.043408,-0.0341 0.071313,-0.0589 h 0.041341 v 0.36794 q -0.057878,0.0258 -0.1105876,0.0486 -0.05271,0.0227 -0.1105875,0.0393 -0.075448,0.0217 -0.1415935,0.0331 -0.066146,0.0114 -0.181901,0.0114 z"
         style="fill:#c8beb7;fill-opacity:1;stroke-width:0.26458332"
         id="path3005"
         inkscape:connector-curvature="0" />
      <path
         d="m 5.9346765,173.80319 q 0,0.28628 -0.1674316,0.45165 -0.1663981,0.16433 -0.4681885,0.16433 -0.3017903,0 -0.469222,-0.16433 -0.1663981,-0.16537 -0.1663981,-0.45165 0,-0.28836 0.1674317,-0.45269 0.1684651,-0.16433 0.4681884,-0.16433 0.3038574,0 0.469222,0.16536 0.1663981,0.16537 0.1663981,0.45166 z m -0.4578532,0.28215 q 0.036173,-0.0444 0.053743,-0.10645 0.018604,-0.0631 0.018604,-0.17364 0,-0.10232 -0.018604,-0.17156 -0.018604,-0.0693 -0.051676,-0.11059 -0.033073,-0.0424 -0.079582,-0.0599 -0.046509,-0.0176 -0.1002523,-0.0176 -0.053743,0 -0.096118,0.0145 -0.041341,0.0145 -0.079582,0.0579 -0.034106,0.0403 -0.054777,0.11059 -0.019637,0.0703 -0.019637,0.17673 0,0.0951 0.01757,0.16537 0.01757,0.0692 0.051676,0.11162 0.033073,0.0403 0.078548,0.0589 0.046509,0.0186 0.1054199,0.0186 0.050643,0 0.096118,-0.0165 0.046509,-0.0176 0.078548,-0.0579 z"
         style="fill:#c8beb7;fill-opacity:1;stroke-width:0.26458332"
         id="path3007"
         inkscape:connector-curvature="0" />
      <path
         d="M 7.3382082,173.56031 V 174.383 H 6.9640709 v -0.57981 q 0,-0.0848 -0.00413,-0.14366 -0.00413,-0.0599 -0.022738,-0.0972 -0.018604,-0.0372 -0.056844,-0.0537 -0.037207,-0.0176 -0.1054199,-0.0176 -0.054777,0 -0.1064535,0.0227 -0.051676,0.0217 -0.093018,0.0465 V 174.383 H 6.2033938 v -1.16066 h 0.3720703 v 0.12816 q 0.096118,-0.0755 0.1839681,-0.11782 0.08785,-0.0424 0.1943034,-0.0424 0.1147217,0 0.2025716,0.0517 0.08785,0.0506 0.1374593,0.14986 0.1116211,-0.0941 0.217041,-0.14779 0.1054199,-0.0537 0.2067057,-0.0537 0.1881022,0 0.2852539,0.11266 0.098185,0.11265 0.098185,0.32453 V 174.383 H 7.726815 v -0.57981 q 0,-0.0858 -0.00413,-0.1447 -0.0031,-0.0589 -0.021704,-0.0961 -0.01757,-0.0372 -0.055811,-0.0537 -0.038241,-0.0176 -0.1074869,-0.0176 -0.046509,0 -0.090951,0.0165 -0.044442,0.0155 -0.1085205,0.0527 z"
         style="fill:#c8beb7;fill-opacity:1;stroke-width:0.26458332"
         id="path3009"
         inkscape:connector-curvature="0" />
      <path
         d="M 9.5788985,173.56031 V 174.383 H 9.2047611 v -0.57981 q 0,-0.0848 -0.00413,-0.14366 -0.00413,-0.0599 -0.022738,-0.0972 -0.018603,-0.0372 -0.056844,-0.0537 -0.037207,-0.0176 -0.1054199,-0.0176 -0.054777,0 -0.1064535,0.0227 -0.051676,0.0217 -0.093018,0.0465 V 174.383 H 8.4440841 v -1.16066 h 0.3720703 v 0.12816 q 0.096118,-0.0755 0.1839681,-0.11782 0.08785,-0.0424 0.1943033,-0.0424 0.1147217,0 0.2025716,0.0517 0.08785,0.0506 0.1374593,0.14986 0.1116211,-0.0941 0.217041,-0.14779 0.10542,-0.0537 0.2067058,-0.0537 0.1881025,0 0.2852535,0.11266 0.09819,0.11265 0.09819,0.32453 V 174.383 H 9.9675052 v -0.57981 q 0,-0.0858 -0.00413,-0.1447 -0.0031,-0.0589 -0.021704,-0.0961 -0.01757,-0.0372 -0.055811,-0.0537 -0.038241,-0.0176 -0.107487,-0.0176 -0.046509,0 -0.09095,0.0165 -0.044442,0.0155 -0.1085205,0.0527 z"
         style="fill:#c8beb7;fill-opacity:1;stroke-width:0.26458332"
         id="path3011"
         inkscape:connector-curvature="0" />
      <path
         d="m 11.871265,173.80319 q 0,0.28628 -0.167432,0.45165 -0.166398,0.16433 -0.468188,0.16433 -0.301791,0 -0.469222,-0.16433 -0.166399,-0.16537 -0.166399,-0.45165 0,-0.28836 0.167432,-0.45269 0.168465,-0.16433 0.468189,-0.16433 0.303857,0 0.469222,0.16536 0.166398,0.16537 0.166398,0.45166 z m -0.457854,0.28215 q 0.03617,-0.0444 0.05374,-0.10645 0.0186,-0.0631 0.0186,-0.17364 0,-0.10232 -0.0186,-0.17156 -0.0186,-0.0693 -0.05168,-0.11059 -0.03307,-0.0424 -0.07958,-0.0599 -0.04651,-0.0176 -0.100252,-0.0176 -0.05374,0 -0.09612,0.0145 -0.04134,0.0145 -0.07958,0.0579 -0.03411,0.0403 -0.05478,0.11059 -0.01964,0.0703 -0.01964,0.17673 0,0.0951 0.01757,0.16537 0.01757,0.0692 0.05168,0.11162 0.03307,0.0403 0.07855,0.0589 0.04651,0.0186 0.10542,0.0186 0.05064,0 0.09612,-0.0165 0.04651,-0.0176 0.07855,-0.0579 z"
         style="fill:#c8beb7;fill-opacity:1;stroke-width:0.26458332"
         id="path3013"
         inkscape:connector-curvature="0" />
      <path
         d="m 13.305803,174.383 h -0.374137 v -0.57568 q 0,-0.0703 -0.0072,-0.13953 -0.0072,-0.0703 -0.02481,-0.10335 -0.02067,-0.0382 -0.06098,-0.0558 -0.03927,-0.0176 -0.110588,-0.0176 -0.05064,0 -0.103352,0.0165 -0.05168,0.0165 -0.112655,0.0527 v 0.82269 h -0.37207 v -1.16066 h 0.37207 v 0.12816 q 0.09922,-0.0775 0.190169,-0.11886 0.09198,-0.0413 0.203605,-0.0413 0.188103,0 0.293522,0.10956 0.106454,0.10955 0.106454,0.32763 z"
         style="fill:#c8beb7;fill-opacity:1;stroke-width:0.26458332"
         id="path3015"
         inkscape:connector-curvature="0" />
      <path
         d="M 15.597136,173.14173 H 15.116545 V 174.383 H 14.71967 v -1.24127 h -0.480591 v -0.29766 h 1.358057 z"
         style="fill:#c8beb7;fill-opacity:1;stroke-width:0.26458332"
         id="path3017"
         inkscape:connector-curvature="0" />
      <path
         d="m 16.698877,173.31536 q 0,-0.0579 -0.02377,-0.0992 -0.02377,-0.0413 -0.08165,-0.0651 -0.04031,-0.0165 -0.09405,-0.0196 -0.05374,-0.004 -0.125057,-0.004 h -0.143661 v 0.41444 h 0.121957 q 0.09508,0 0.159163,-0.009 0.06408,-0.009 0.107487,-0.0424 0.04134,-0.032 0.05994,-0.0703 0.01964,-0.0393 0.01964,-0.10439 z m 0.619083,1.06764 h -0.484725 l -0.419612,-0.56431 H 16.230688 V 174.383 H 15.83588 v -1.53893 h 0.665593 q 0.136426,0 0.234611,0.0155 0.09818,0.0155 0.183968,0.0672 0.08682,0.0517 0.137459,0.13436 0.05168,0.0816 0.05168,0.20567 0,0.17054 -0.07958,0.27802 -0.07855,0.10749 -0.225309,0.1788 z"
         style="fill:#c8beb7;fill-opacity:1;stroke-width:0.26458332"
         id="path3019"
         inkscape:connector-curvature="0" />
      <path
         d="m 18.854817,174.29515 q -0.103353,0.0403 -0.273885,0.0806 -0.170532,0.0393 -0.340031,0.0393 -0.392741,0 -0.614949,-0.2129 -0.222209,-0.21394 -0.222209,-0.59015 0,-0.35863 0.224276,-0.57774 0.224275,-0.22014 0.625285,-0.22014 0.151928,0 0.289388,0.0279 0.137459,0.0269 0.305924,0.10852 v 0.36071 h -0.04444 q -0.02894,-0.0217 -0.08475,-0.061 -0.05581,-0.0403 -0.107487,-0.0682 -0.05994,-0.0331 -0.14056,-0.0568 -0.07958,-0.0238 -0.169499,-0.0238 -0.10542,0 -0.191202,0.031 -0.08578,0.031 -0.153996,0.0951 -0.06511,0.062 -0.103353,0.15813 -0.03721,0.0951 -0.03721,0.22014 0,0.25528 0.135392,0.39068 0.135392,0.13539 0.399976,0.13539 0.02274,0 0.04961,-0.001 0.02791,-0.001 0.05064,-0.003 v -0.30179 h -0.306958 v -0.29042 h 0.710034 z"
         style="fill:#c8beb7;fill-opacity:1;stroke-width:0.26458332"
         id="path3021"
         inkscape:connector-curvature="0" />
    </g>
    <path
       style="opacity:1;fill:#2c89a0;fill-opacity:1;stroke:none;stroke-width:2.16499996;stroke-linecap:round;stroke-linejoin:miter;stroke-miterlimit:4;stroke-dasharray:none;stroke-dashoffset:0.3023622;stroke-opacity:1;paint-order:markers fill stroke"
       d="m 27.25776,172.11664 h 9.48448 c 0.696799,0 1.25776,0.56096 1.25776,1.25776 v 9.48448 c 0,0.6968 -0.560961,1.25776 -1.25776,1.25776 H 27.25776 C 26.560961,184.11664 26,183.55568 26,182.85888 v -9.48448 c 0,-0.6968 0.560961,-1.25776 1.25776,-1.25776 z"
       id="rect5858"
       inkscape:connector-curvature="0" />
    <g
       aria-label="TRG Out"
       style="font-style:normal;font-variant:normal;font-weight:bold;font-stretch:normal;font-size:2.11666656px;line-height:1.25;font-family:sans-serif;-inkscape-font-specification:'sans-serif Bold';letter-spacing:0px;word-spacing:0px;fill:#c8beb7;fill-opacity:1;stroke:none;stroke-width:0.26458332"
       id="text4812-8-7">
      <path
         d="m 28.496855,173.14483 h -0.48059 v 1.24126 H 27.61939 v -1.24126 h -0.480591 v -0.29766 h 1.358056 z"
         style="fill:#c8beb7;fill-opacity:1;stroke-width:0.26458332"
         id="path3025"
         inkscape:connector-curvature="0" />
      <path
         d="m 29.598597,173.31846 q 0,-0.0579 -0.02377,-0.0992 -0.02377,-0.0413 -0.08165,-0.0651 -0.04031,-0.0165 -0.09405,-0.0196 -0.05374,-0.004 -0.125057,-0.004 h -0.143661 v 0.41444 h 0.121957 q 0.09508,0 0.159163,-0.009 0.06408,-0.009 0.107487,-0.0424 0.04134,-0.032 0.05994,-0.0703 0.01964,-0.0393 0.01964,-0.10438 z m 0.619083,1.06763 h -0.484724 l -0.419613,-0.5643 h -0.182935 v 0.5643 H 28.7356 v -1.53892 h 0.665593 q 0.136426,0 0.234611,0.0155 0.09819,0.0155 0.183968,0.0672 0.08682,0.0517 0.137459,0.13436 0.05168,0.0816 0.05168,0.20567 0,0.17053 -0.07958,0.27802 -0.07855,0.10749 -0.225309,0.1788 z"
         style="fill:#c8beb7;fill-opacity:1;stroke-width:0.26458332"
         id="path3027"
         inkscape:connector-curvature="0" />
      <path
         d="m 31.754537,174.29824 q -0.103352,0.0403 -0.273885,0.0806 -0.170532,0.0393 -0.340031,0.0393 -0.39274,0 -0.614949,-0.2129 -0.222209,-0.21394 -0.222209,-0.59015 0,-0.35863 0.224276,-0.57774 0.224276,-0.22014 0.625285,-0.22014 0.151928,0 0.289388,0.0279 0.137459,0.0269 0.305924,0.10852 v 0.3607 h -0.04444 q -0.02894,-0.0217 -0.08475,-0.061 -0.05581,-0.0403 -0.107487,-0.0682 -0.05994,-0.0331 -0.14056,-0.0568 -0.07958,-0.0238 -0.169498,-0.0238 -0.10542,0 -0.191203,0.031 -0.08578,0.031 -0.153996,0.0951 -0.06511,0.062 -0.103353,0.15813 -0.03721,0.0951 -0.03721,0.22014 0,0.25528 0.135392,0.39067 0.135393,0.1354 0.399976,0.1354 0.02274,0 0.04961,-0.001 0.02791,-0.001 0.05064,-0.003 v -0.30179 h -0.306958 v -0.29042 h 0.710034 z"
         style="fill:#c8beb7;fill-opacity:1;stroke-width:0.26458332"
         id="path3029"
         inkscape:connector-curvature="0" />
      <path
         d="m 34.329057,173.61715 q 0,0.36793 -0.21084,0.58498 -0.210839,0.216 -0.58291,0.216 -0.371036,0 -0.581876,-0.216 -0.21084,-0.21705 -0.21084,-0.58498 0,-0.37104 0.21084,-0.58601 0.21084,-0.21601 0.581876,-0.21601 0.370004,0 0.581877,0.21601 0.211873,0.21497 0.211873,0.58601 z m -0.526066,0.38964 q 0.05788,-0.0703 0.08578,-0.16537 0.02791,-0.0961 0.02791,-0.22531 0,-0.13849 -0.03204,-0.23564 -0.03204,-0.0971 -0.08372,-0.1571 -0.05271,-0.062 -0.121956,-0.0899 -0.06821,-0.0279 -0.142627,-0.0279 -0.07545,0 -0.142627,0.0269 -0.06615,0.0269 -0.121956,0.0889 -0.05168,0.0579 -0.08475,0.16019 -0.03204,0.10129 -0.03204,0.23565 0,0.13746 0.03101,0.23461 0.03204,0.0961 0.08372,0.1571 0.05168,0.061 0.120922,0.0899 0.06925,0.0289 0.145728,0.0289 0.07648,0 0.145727,-0.0289 0.06925,-0.03 0.120923,-0.092 z"
         style="fill:#c8beb7;fill-opacity:1;stroke-width:0.26458332"
         id="path3031"
         inkscape:connector-curvature="0" />
      <path
         d="m 35.766695,174.38609 h -0.37207 v -0.12815 q -0.103353,0.0785 -0.189136,0.11988 -0.08578,0.0403 -0.204638,0.0403 -0.192237,0 -0.296623,-0.11059 -0.103353,-0.11058 -0.103353,-0.32659 v -0.75551 h 0.374137 v 0.57568 q 0,0.0879 0.0052,0.14676 0.0062,0.0579 0.02687,0.0961 0.01964,0.0382 0.05891,0.0558 0.04031,0.0176 0.111621,0.0176 0.04754,0 0.10542,-0.0176 0.05788,-0.0176 0.111621,-0.0517 v -0.82269 h 0.37207 z"
         style="fill:#c8beb7;fill-opacity:1;stroke-width:0.26458332"
         id="path3033"
         inkscape:connector-curvature="0" />
      <path
         d="m 36.861202,174.37576 q -0.05994,0.0155 -0.127124,0.0238 -0.06718,0.009 -0.164331,0.009 -0.217041,0 -0.323494,-0.0879 -0.10542,-0.0879 -0.10542,-0.30076 v -0.5426 h -0.152962 v -0.25218 h 0.152962 v -0.33176 h 0.37207 v 0.33176 h 0.348299 v 0.25218 h -0.348299 v 0.41135 q 0,0.061 10e-4,0.10645 10e-4,0.0455 0.01654,0.0816 0.01447,0.0362 0.05064,0.0579 0.03721,0.0207 0.107487,0.0207 0.02894,0 0.07545,-0.0124 0.04754,-0.0124 0.06615,-0.0227 h 0.03101 z"
         style="fill:#c8beb7;fill-opacity:1;stroke-width:0.26458332"
         id="path3035"
         inkscape:connector-curvature="0" />
    </g>
    <path
       style="opacity:1;fill:#2c89a0;fill-opacity:1;stroke:none;stroke-width:2.16499996;stroke-linecap:round;stroke-linejoin:miter;stroke-miterlimit:4;stroke-dasharray:none;stroke-dashoffset:0.3023622;stroke-opacity:1;paint-order:markers fill stroke"
       d="m 21.25776,175.61664 h 4.48448 c 0.696799,0 1.25776,0.56096 1.25776,1.25776 v 2.48448 c 0,0.6968 -0.560961,1.25776 -1.25776,1.25776 H 21.25776 C 20.560961,180.61664 20,180.05568 20,179.35888 v -2.48448 c 0,-0.6968 0.560961,-1.25776 1.25776,-1.25776 z"
       id="rect5878"
       inkscape:connector-curvature="0" />
    <g
       style="display:inline;opacity:1"
       id="g1583"
       transform="translate(35.923624,-5.7722842)">
      <path
         style="opacity:1;fill:#ffffff;fill-opacity:1;stroke:#8c8c8c;stroke-width:0.02;stroke-linecap:butt;stroke-linejoin:round;stroke-miterlimit:4;stroke-dasharray:none;stroke-opacity:1;paint-order:markers fill stroke"
         d="m 2.5999999,293.75 h 5 v 2.5 h -5 z"
         id="rect1572"
         inkscape:connector-curvature="0" />
      <g
         id="text1570"
         style="font-style:normal;font-variant:normal;font-weight:normal;font-stretch:normal;font-size:2.82222223px;line-height:1.25;font-family:'Bauhaus 93';-inkscape-font-specification:'Bauhaus 93, ';letter-spacing:0px;word-spacing:0px;fill:#000000;fill-opacity:1;stroke:none;stroke-width:0.26458332"
         aria-label="mm">
        <path
           id="path1574"
           style="stroke-width:0.26458332"
           d="M 4.9484157,295.70074 H 4.4330294 v -0.74138 q 0,-0.0854 -0.017914,-0.11851 -0.017914,-0.0331 -0.064768,-0.0331 -0.086816,0 -0.086816,0.15296 v 0.74 h -0.515387 v -0.74138 q 0,-0.0854 -0.019293,-0.11851 -0.017914,-0.0331 -0.064768,-0.0331 -0.085438,0 -0.085438,0.15296 v 0.74 h -0.515386 v -0.84611 q 0,-0.23151 0.1557184,-0.39274 0.1557183,-0.16261 0.3775824,-0.16261 0.2287544,0 0.4106554,0.19293 0.2025716,-0.19293 0.4051432,-0.19293 0.2576932,0 0.4134115,0.18741 0.1226454,0.14608 0.1226454,0.42582 z"
           inkscape:connector-curvature="0" />
        <path
           id="path1576"
           style="stroke-width:0.26458332"
           d="M 7.1367404,295.70074 H 6.6213541 v -0.74138 q 0,-0.0854 -0.017914,-0.11851 -0.017914,-0.0331 -0.064768,-0.0331 -0.086816,0 -0.086816,0.15296 v 0.74 h -0.515387 v -0.74138 q 0,-0.0854 -0.019292,-0.11851 -0.017915,-0.0331 -0.064768,-0.0331 -0.085438,0 -0.085438,0.15296 v 0.74 h -0.515387 v -0.84611 q 0,-0.23151 0.1557183,-0.39274 0.1557184,-0.16261 0.3775825,-0.16261 0.2287544,0 0.4106554,0.19293 0.2025716,-0.19293 0.4051432,-0.19293 0.2576932,0 0.4134115,0.18741 0.1226454,0.14608 0.1226454,0.42582 z"
           inkscape:connector-curvature="0" />
      </g>
    </g>
    <g
       aria-label="Trigger"
       transform="rotate(-90)"
       style="font-style:normal;font-variant:normal;font-weight:bold;font-stretch:normal;font-size:2.11666656px;line-height:1.25;font-family:sans-serif;-inkscape-font-specification:'sans-serif Bold';letter-spacing:0px;word-spacing:0px;fill:#c8beb7;fill-opacity:1;stroke:none;stroke-width:0.26458332"
       id="text1017">
      <path
         d="m -290.74515,5.1256348 h -0.64079 v 1.6550239 h -0.52917 V 5.1256348 h -0.64079 v -0.396875 h 1.81075 z"
         style="font-size:2.82222223px;fill:#c8beb7;fill-opacity:1;stroke-width:0.26458332"
         id="path1019"
         inkscape:connector-curvature="0" />
      <path
         d="m -289.33267,5.7057889 h -0.0441 q -0.0317,-0.011024 -0.10198,-0.016536 -0.0703,-0.00551 -0.11713,-0.00551 -0.10611,0 -0.18741,0.01378 -0.0813,0.01378 -0.17501,0.046853 v 1.0362847 h -0.4961 V 5.2331218 h 0.4961 v 0.2273763 q 0.16398,-0.1405599 0.28525,-0.1860351 0.12127,-0.046853 0.22324,-0.046853 0.0262,0 0.0593,0.00138 0.0331,0.00138 0.0579,0.00413 z"
         style="font-size:2.82222223px;fill:#c8beb7;fill-opacity:1;stroke-width:0.26458332"
         id="path1021"
         inkscape:connector-curvature="0" />
      <path
         d="m -288.5527,6.7806587 h -0.49609 V 5.2331218 h 0.49609 z m 0.0138,-1.768023 h -0.52365 V 4.6364313 h 0.52365 z"
         style="font-size:2.82222223px;fill:#c8beb7;fill-opacity:1;stroke-width:0.26458332"
         id="path1023"
         inkscape:connector-curvature="0" />
      <path
         d="m -286.57934,6.6028918 q 0,0.21773 -0.062,0.3665582 -0.062,0.1488281 -0.17363,0.2328884 -0.11162,0.085438 -0.27009,0.1226454 -0.1571,0.038585 -0.35554,0.038585 -0.16123,0 -0.31833,-0.019293 -0.15571,-0.019292 -0.27009,-0.046853 V 6.9101943 h 0.0606 q 0.091,0.035829 0.22187,0.064768 0.13091,0.030317 0.23426,0.030317 0.13781,0 0.22325,-0.026183 0.0868,-0.024805 0.13229,-0.071658 0.0427,-0.044097 0.062,-0.1129991 0.0193,-0.068902 0.0193,-0.1653646 v -0.028939 q -0.0896,0.073036 -0.19844,0.1157552 -0.10886,0.042719 -0.24253,0.042719 -0.32522,0 -0.50161,-0.1956814 -0.17639,-0.1956814 -0.17639,-0.5953125 0,-0.1915473 0.0537,-0.3307292 0.0537,-0.1391818 0.15158,-0.2425347 0.091,-0.096463 0.22324,-0.1502062 0.13367,-0.053744 0.27286,-0.053744 0.1254,0 0.22737,0.030317 0.10336,0.028939 0.18742,0.081304 l 0.0179,-0.068902 h 0.48094 z m -0.4961,-0.3100586 V 5.5914118 q -0.0427,-0.017915 -0.10473,-0.027561 -0.062,-0.011024 -0.11162,-0.011024 -0.19568,0 -0.29352,0.1129991 -0.0978,0.1116211 -0.0978,0.3128147 0,0.2232422 0.0827,0.3114366 0.0841,0.088194 0.24805,0.088194 0.0744,0 0.14607,-0.023427 0.0717,-0.023427 0.13091,-0.062012 z"
         style="font-size:2.82222223px;fill:#c8beb7;fill-opacity:1;stroke-width:0.26458332"
         id="path1025"
         inkscape:connector-curvature="0" />
      <path
         d="m -284.60599,6.6028918 q 0,0.21773 -0.062,0.3665582 -0.062,0.1488281 -0.17363,0.2328884 -0.11162,0.085438 -0.27009,0.1226454 -0.1571,0.038585 -0.35554,0.038585 -0.16123,0 -0.31832,-0.019293 -0.15572,-0.019292 -0.2701,-0.046853 V 6.9101943 h 0.0606 q 0.091,0.035829 0.22187,0.064768 0.13091,0.030317 0.23426,0.030317 0.13781,0 0.22325,-0.026183 0.0868,-0.024805 0.13229,-0.071658 0.0427,-0.044097 0.062,-0.1129991 0.0193,-0.068902 0.0193,-0.1653646 v -0.028939 q -0.0896,0.073036 -0.19844,0.1157552 -0.10886,0.042719 -0.24253,0.042719 -0.32522,0 -0.50161,-0.1956814 -0.17639,-0.1956814 -0.17639,-0.5953125 0,-0.1915473 0.0538,-0.3307292 0.0537,-0.1391818 0.15158,-0.2425347 0.091,-0.096463 0.22324,-0.1502062 0.13367,-0.053744 0.27286,-0.053744 0.1254,0 0.22737,0.030317 0.10336,0.028939 0.18742,0.081304 l 0.0179,-0.068902 h 0.48094 z m -0.4961,-0.3100586 V 5.5914118 q -0.0427,-0.017915 -0.10473,-0.027561 -0.062,-0.011024 -0.11162,-0.011024 -0.19568,0 -0.29352,0.1129991 -0.0978,0.1116211 -0.0978,0.3128147 0,0.2232422 0.0827,0.3114366 0.0841,0.088194 0.24805,0.088194 0.0744,0 0.14607,-0.023427 0.0717,-0.023427 0.13091,-0.062012 z"
         style="font-size:2.82222223px;fill:#c8beb7;fill-opacity:1;stroke-width:0.26458332"
         id="path1027"
         inkscape:connector-curvature="0" />
      <path
         d="m -282.61335,6.0985298 h -1.1355 q 0.011,0.1819011 0.1378,0.2783637 0.12816,0.096463 0.3762,0.096463 0.1571,0 0.30455,-0.0565 0.14745,-0.0565 0.23289,-0.1212673 h 0.0551 v 0.398253 q -0.16812,0.067524 -0.31695,0.097841 -0.14883,0.030317 -0.32935,0.030317 -0.46578,0 -0.71382,-0.2094618 -0.24805,-0.2094618 -0.24805,-0.5966906 0,-0.3830946 0.23427,-0.6063368 0.23564,-0.2246202 0.64492,-0.2246202 0.37758,0 0.56775,0.1915473 0.19017,0.1901693 0.19017,0.5484592 z m -0.49334,-0.290766 q -0.004,-0.1557184 -0.0772,-0.2342665 -0.073,-0.078548 -0.22738,-0.078548 -0.14331,0 -0.23564,0.074414 -0.0923,0.074414 -0.10335,0.2384007 z"
         style="font-size:2.82222223px;fill:#c8beb7;fill-opacity:1;stroke-width:0.26458332"
         id="path1029"
         inkscape:connector-curvature="0" />
      <path
         d="m -281.14161,5.7057889 h -0.0441 q -0.0317,-0.011024 -0.10198,-0.016536 -0.0703,-0.00551 -0.11713,-0.00551 -0.10611,0 -0.18741,0.01378 -0.0813,0.01378 -0.17502,0.046853 v 1.0362847 h -0.49609 V 5.2331218 h 0.49609 v 0.2273763 q 0.16399,-0.1405599 0.28526,-0.1860351 0.12127,-0.046853 0.22324,-0.046853 0.0262,0 0.0593,0.00138 0.0331,0.00138 0.0579,0.00413 z"
         style="font-size:2.82222223px;fill:#c8beb7;fill-opacity:1;stroke-width:0.26458332"
         id="path1031"
         inkscape:connector-curvature="0" />
    </g>
    <g
       aria-label="Divider"
       transform="rotate(-90)"
       style="font-style:normal;font-variant:normal;font-weight:bold;font-stretch:normal;font-size:2.11666656px;line-height:1.25;font-family:sans-serif;-inkscape-font-specification:'sans-serif Bold';letter-spacing:0px;word-spacing:0px;fill:#c8beb7;fill-opacity:1;stroke:none;stroke-width:0.26458332"
       id="text1036">
      <path
         d="m -290.31957,36.026872 q 0,0.286632 -0.13091,0.514008 -0.13091,0.225999 -0.33073,0.347266 -0.15021,0.09095 -0.32935,0.12678 -0.17915,0.03583 -0.42444,0.03583 h -0.72347 v -2.051899 h 0.74414 q 0.25081,0 0.43271,0.04272 0.1819,0.04134 0.30592,0.118511 0.21222,0.129536 0.33349,0.350022 0.12264,0.219108 0.12264,0.516764 z m -0.54708,-0.0041 q 0,-0.202572 -0.0744,-0.345888 -0.073,-0.144694 -0.23289,-0.225998 -0.0813,-0.03996 -0.16674,-0.05374 -0.0841,-0.01516 -0.25494,-0.01516 h -0.13367 v 1.284332 h 0.13367 q 0.18879,0 0.27699,-0.01654 0.0882,-0.01791 0.17225,-0.06339 0.14469,-0.08268 0.21222,-0.220486 0.0675,-0.139182 0.0675,-0.343132 z"
         style="font-size:2.82222223px;fill:#c8beb7;fill-opacity:1;stroke-width:0.26458332"
         id="path1114"
         inkscape:connector-curvature="0" />
      <path
         d="m -289.44727,37.050755 h -0.49609 v -1.547537 h 0.49609 z m 0.0138,-1.768023 h -0.52365 v -0.376205 h 0.52365 z"
         style="font-size:2.82222223px;fill:#c8beb7;fill-opacity:1;stroke-width:0.26458332"
         id="path1116"
         inkscape:connector-curvature="0" />
      <path
         d="m -287.42017,35.503218 -0.5967,1.547537 h -0.56223 l -0.59256,-1.547537 h 0.52503 l 0.35829,1.063845 0.35416,-1.063845 z"
         style="font-size:2.82222223px;fill:#c8beb7;fill-opacity:1;stroke-width:0.26458332"
         id="path1118"
         inkscape:connector-curvature="0" />
      <path
         d="m -286.6471,37.050755 h -0.49609 v -1.547537 h 0.49609 z m 0.0138,-1.768023 h -0.52365 v -0.376205 h 0.52365 z"
         style="font-size:2.82222223px;fill:#c8beb7;fill-opacity:1;stroke-width:0.26458332"
         id="path1120"
         inkscape:connector-curvature="0" />
      <path
         d="m -284.67374,37.050755 h -0.4961 v -0.161231 q -0.12816,0.104731 -0.23978,0.15434 -0.11162,0.04961 -0.25769,0.04961 -0.2825,0 -0.452,-0.21773 -0.1695,-0.21773 -0.1695,-0.587045 0,-0.197059 0.0565,-0.348643 0.0579,-0.152962 0.1571,-0.261827 0.0937,-0.103353 0.22738,-0.159853 0.13367,-0.05788 0.26734,-0.05788 0.13918,0 0.22737,0.03032 0.0896,0.02894 0.18328,0.07441 v -0.658702 h 0.4961 z m -0.4961,-0.427192 v -0.759299 q -0.0524,-0.02205 -0.11024,-0.03169 -0.0579,-0.0096 -0.10611,-0.0096 -0.19568,0 -0.29352,0.122645 -0.0978,0.121267 -0.0978,0.337619 0,0.227377 0.0785,0.330729 0.0786,0.101975 0.25219,0.101975 0.0675,0 0.14331,-0.0248 0.0758,-0.02618 0.13367,-0.06752 z"
         style="font-size:2.82222223px;fill:#c8beb7;fill-opacity:1;stroke-width:0.26458332"
         id="path1122"
         inkscape:connector-curvature="0" />
      <path
         d="m -282.6811,36.368626 h -1.1355 q 0.011,0.181901 0.1378,0.278363 0.12816,0.09646 0.3762,0.09646 0.1571,0 0.30455,-0.0565 0.14745,-0.0565 0.23289,-0.121267 h 0.0551 v 0.398253 q -0.16812,0.06752 -0.31695,0.09784 -0.14883,0.03032 -0.32935,0.03032 -0.46578,0 -0.71382,-0.209462 -0.24805,-0.209462 -0.24805,-0.596691 0,-0.383094 0.23427,-0.606336 0.23564,-0.224621 0.64492,-0.224621 0.37758,0 0.56775,0.191548 0.19017,0.190169 0.19017,0.548459 z m -0.49334,-0.290766 q -0.004,-0.155719 -0.0772,-0.234267 -0.073,-0.07855 -0.22738,-0.07855 -0.14331,0 -0.23564,0.07441 -0.0923,0.07441 -0.10335,0.238401 z"
         style="font-size:2.82222223px;fill:#c8beb7;fill-opacity:1;stroke-width:0.26458332"
         id="path1124"
         inkscape:connector-curvature="0" />
      <path
         d="m -281.20936,35.975885 h -0.0441 q -0.0317,-0.01102 -0.10198,-0.01654 -0.0703,-0.0055 -0.11713,-0.0055 -0.10611,0 -0.18742,0.01378 -0.0813,0.01378 -0.17501,0.04685 v 1.036285 h -0.49609 v -1.547537 h 0.49609 v 0.227376 q 0.16399,-0.14056 0.28526,-0.186035 0.12126,-0.04685 0.22324,-0.04685 0.0262,0 0.0593,0.0014 0.0331,0.0014 0.0579,0.0041 z"
         style="font-size:2.82222223px;fill:#c8beb7;fill-opacity:1;stroke-width:0.26458332"
         id="path1126"
         inkscape:connector-curvature="0" />
    </g>
    <g
       aria-label="Range-"
       transform="rotate(-90)"
       style="font-style:normal;font-variant:normal;font-weight:bold;font-stretch:normal;font-size:2.11666656px;line-height:1.25;font-family:sans-serif;-inkscape-font-specification:'sans-serif Bold';letter-spacing:0px;word-spacing:0px;fill:#c8beb7;fill-opacity:1;stroke:none;stroke-width:0.26458332"
       id="text1040">
      <path
         d="m -291.29741,45.31098 q 0,-0.07717 -0.0317,-0.132292 -0.0317,-0.05512 -0.10886,-0.08682 -0.0537,-0.02205 -0.1254,-0.02618 -0.0717,-0.0055 -0.16674,-0.0055 h -0.19155 v 0.552593 h 0.16261 q 0.12678,0 0.21221,-0.0124 0.0854,-0.0124 0.14332,-0.0565 0.0551,-0.04272 0.0799,-0.09371 0.0262,-0.05237 0.0262,-0.139182 z m 0.82544,1.423513 h -0.6463 l -0.55948,-0.752409 h -0.24391 v 0.752409 h -0.52641 v -2.051899 h 0.88745 q 0.1819,0 0.31282,0.02067 0.13091,0.02067 0.24529,0.08957 0.11575,0.0689 0.18328,0.179145 0.0689,0.108865 0.0689,0.27423 0,0.227376 -0.10611,0.370692 -0.10473,0.143316 -0.30041,0.238401 z"
         style="font-size:2.82222223px;fill:#c8beb7;fill-opacity:1;stroke-width:0.26458332"
         id="path1101"
         inkscape:connector-curvature="0" />
      <path
         d="m -289.32819,46.330728 v -0.322461 q -0.1006,0.0083 -0.21773,0.02343 -0.11714,0.01378 -0.17777,0.03307 -0.0744,0.02343 -0.11438,0.0689 -0.0386,0.0441 -0.0386,0.117133 0,0.04823 0.008,0.07855 0.008,0.03032 0.0413,0.05788 0.0317,0.02756 0.0758,0.04134 0.0441,0.0124 0.1378,0.0124 0.0744,0 0.15021,-0.03032 0.0772,-0.03032 0.13505,-0.07993 z m 0,0.239779 q -0.04,0.03032 -0.0992,0.07304 -0.0593,0.04272 -0.11162,0.06752 -0.073,0.03307 -0.15159,0.04823 -0.0785,0.01654 -0.17225,0.01654 -0.22049,0 -0.36932,-0.136425 -0.14883,-0.136426 -0.14883,-0.348644 0,-0.169499 0.0758,-0.276986 0.0758,-0.107487 0.21497,-0.169498 0.1378,-0.06201 0.34175,-0.08819 0.20395,-0.02618 0.42306,-0.03859 v -0.0083 q 0,-0.128158 -0.10473,-0.176389 -0.10473,-0.04961 -0.30868,-0.04961 -0.12265,0 -0.26183,0.0441 -0.13918,0.04272 -0.19981,0.06615 h -0.0455 v -0.373449 q 0.0786,-0.02067 0.25494,-0.04823 0.17777,-0.02894 0.35553,-0.02894 0.42306,0 0.61047,0.130914 0.1888,0.129535 0.1888,0.407899 v 1.052821 h -0.49196 z"
         style="font-size:2.82222223px;fill:#c8beb7;fill-opacity:1;stroke-width:0.26458332"
         id="path1103"
         inkscape:connector-curvature="0" />
      <path
         d="m -286.82568,46.734493 h -0.49885 v -0.767567 q 0,-0.09371 -0.01,-0.186035 -0.01,-0.09371 -0.0331,-0.137804 -0.0276,-0.05099 -0.0813,-0.07441 -0.0524,-0.02343 -0.14745,-0.02343 -0.0675,0 -0.1378,0.02205 -0.0689,0.02205 -0.15021,0.07028 v 1.096918 h -0.49609 v -1.547537 h 0.49609 v 0.170877 q 0.13229,-0.103353 0.25356,-0.158474 0.12264,-0.05512 0.27147,-0.05512 0.25081,0 0.39137,0.146072 0.14193,0.146072 0.14193,0.436838 z"
         style="font-size:2.82222223px;fill:#c8beb7;fill-opacity:1;stroke-width:0.26458332"
         id="path1105"
         inkscape:connector-curvature="0" />
      <path
         d="m -284.86335,46.556726 q 0,0.21773 -0.062,0.366558 -0.062,0.148829 -0.17363,0.232889 -0.11163,0.08544 -0.2701,0.122645 -0.1571,0.03858 -0.35553,0.03858 -0.16123,0 -0.31833,-0.01929 -0.15572,-0.01929 -0.2701,-0.04685 v -0.387229 h 0.0606 q 0.091,0.03583 0.22186,0.06477 0.13091,0.03032 0.23427,0.03032 0.1378,0 0.22324,-0.02618 0.0868,-0.02481 0.13229,-0.07166 0.0427,-0.0441 0.062,-0.112999 0.0193,-0.0689 0.0193,-0.165365 v -0.02894 q -0.0896,0.07304 -0.19844,0.115755 -0.10887,0.04272 -0.24254,0.04272 -0.32521,0 -0.5016,-0.195682 -0.17639,-0.195681 -0.17639,-0.595312 0,-0.191548 0.0537,-0.330729 0.0537,-0.139182 0.15159,-0.242535 0.091,-0.09646 0.22324,-0.150206 0.13367,-0.05374 0.27285,-0.05374 0.1254,0 0.22738,0.03032 0.10335,0.02894 0.18741,0.0813 l 0.0179,-0.0689 h 0.48094 z m -0.49609,-0.310058 v -0.701422 q -0.0427,-0.01791 -0.10474,-0.02756 -0.062,-0.01102 -0.11162,-0.01102 -0.19568,0 -0.29352,0.112999 -0.0978,0.111621 -0.0978,0.312815 0,0.223242 0.0827,0.311437 0.0841,0.08819 0.24805,0.08819 0.0744,0 0.14607,-0.02343 0.0717,-0.02343 0.13092,-0.06201 z"
         style="font-size:2.82222223px;fill:#c8beb7;fill-opacity:1;stroke-width:0.26458332"
         id="path1107"
         inkscape:connector-curvature="0" />
      <path
         d="m -282.87071,46.052364 h -1.1355 q 0.011,0.181901 0.1378,0.278364 0.12816,0.09646 0.37621,0.09646 0.15709,0 0.30454,-0.0565 0.14745,-0.0565 0.23289,-0.121267 h 0.0551 v 0.398253 q -0.16812,0.06752 -0.31694,0.09784 -0.14883,0.03032 -0.32936,0.03032 -0.46577,0 -0.71382,-0.209461 -0.24805,-0.209462 -0.24805,-0.596691 0,-0.383095 0.23427,-0.606337 0.23564,-0.22462 0.64492,-0.22462 0.37758,0 0.56775,0.191547 0.19017,0.19017 0.19017,0.54846 z m -0.49333,-0.290766 q -0.004,-0.155718 -0.0772,-0.234266 -0.073,-0.07855 -0.22738,-0.07855 -0.14332,0 -0.23565,0.07441 -0.0923,0.07441 -0.10335,0.2384 z"
         style="font-size:2.82222223px;fill:#c8beb7;fill-opacity:1;stroke-width:0.26458332"
         id="path1109"
         inkscape:connector-curvature="0" />
      <path
         d="m -281.55193,46.020669 h -1.05144 v -0.396875 h 1.05144 z"
         style="font-size:2.82222223px;fill:#c8beb7;fill-opacity:1;stroke-width:0.26458332"
         id="path1111"
         inkscape:connector-curvature="0" />
    </g>
    <g
       aria-label="Range+"
       transform="rotate(-90)"
       style="font-style:normal;font-variant:normal;font-weight:bold;font-stretch:normal;font-size:2.11666656px;line-height:1.25;font-family:sans-serif;-inkscape-font-specification:'sans-serif Bold';letter-spacing:0px;word-spacing:0px;fill:#c8beb7;fill-opacity:1;stroke:none;stroke-width:0.26458332"
       id="text1040-3">
      <path
         d="m -291.2694,55.310984 q 0,-0.07717 -0.0317,-0.132292 -0.0317,-0.05512 -0.10887,-0.08682 -0.0537,-0.02205 -0.1254,-0.02618 -0.0716,-0.0055 -0.16674,-0.0055 h -0.19155 v 0.552593 h 0.16261 q 0.12678,0 0.21222,-0.0124 0.0854,-0.0124 0.14332,-0.0565 0.0551,-0.04272 0.0799,-0.09371 0.0262,-0.05237 0.0262,-0.139181 z m 0.82545,1.423513 h -0.6463 l -0.55948,-0.752409 h -0.24392 v 0.752409 h -0.52641 v -2.051899 h 0.88746 q 0.1819,0 0.31281,0.02067 0.13092,0.02067 0.24529,0.08957 0.11576,0.0689 0.18328,0.179145 0.0689,0.108865 0.0689,0.27423 0,0.227376 -0.10611,0.370692 -0.10473,0.143316 -0.30042,0.238401 z"
         style="font-size:2.82222223px;fill:#c8beb7;fill-opacity:1;stroke-width:0.26458332"
         id="path1088"
         inkscape:connector-curvature="0" />
      <path
         d="m -289.30018,56.330732 v -0.322461 q -0.1006,0.0083 -0.21773,0.02343 -0.11713,0.01378 -0.17777,0.03307 -0.0744,0.02343 -0.11437,0.0689 -0.0386,0.0441 -0.0386,0.117134 0,0.04823 0.008,0.07855 0.008,0.03032 0.0413,0.05788 0.0317,0.02756 0.0758,0.04134 0.0441,0.0124 0.13781,0.0124 0.0744,0 0.1502,-0.03032 0.0772,-0.03032 0.13505,-0.07993 z m 0,0.239779 q -0.04,0.03032 -0.0992,0.07304 -0.0592,0.04272 -0.11162,0.06752 -0.073,0.03307 -0.15158,0.04823 -0.0786,0.01654 -0.17226,0.01654 -0.22048,0 -0.36931,-0.136426 -0.14883,-0.136425 -0.14883,-0.348643 0,-0.169499 0.0758,-0.276986 0.0758,-0.107487 0.21498,-0.169499 0.1378,-0.06201 0.34175,-0.08819 0.20395,-0.02618 0.42306,-0.03858 v -0.0083 q 0,-0.128158 -0.10473,-0.176389 -0.10473,-0.04961 -0.30868,-0.04961 -0.12265,0 -0.26183,0.0441 -0.13918,0.04272 -0.19982,0.06614 h -0.0455 V 55.22001 q 0.0785,-0.02067 0.25493,-0.04823 0.17777,-0.02894 0.35554,-0.02894 0.42306,0 0.61047,0.130914 0.18879,0.129535 0.18879,0.407899 v 1.052821 h -0.49196 z"
         style="font-size:2.82222223px;fill:#c8beb7;fill-opacity:1;stroke-width:0.26458332"
         id="path1090"
         inkscape:connector-curvature="0" />
      <path
         d="m -286.79766,56.734497 h -0.49885 V 55.96693 q 0,-0.09371 -0.01,-0.186035 -0.01,-0.09371 -0.0331,-0.137804 -0.0276,-0.05099 -0.0813,-0.07441 -0.0524,-0.02343 -0.14745,-0.02343 -0.0675,0 -0.13781,0.02205 -0.0689,0.02205 -0.1502,0.07028 v 1.096918 h -0.4961 V 55.18696 h 0.4961 v 0.170877 q 0.13229,-0.103353 0.25355,-0.158474 0.12265,-0.05512 0.27148,-0.05512 0.2508,0 0.39136,0.146072 0.14194,0.146072 0.14194,0.436838 z"
         style="font-size:2.82222223px;fill:#c8beb7;fill-opacity:1;stroke-width:0.26458332"
         id="path1092"
         inkscape:connector-curvature="0" />
      <path
         d="m -284.83534,56.55673 q 0,0.21773 -0.062,0.366558 -0.062,0.148828 -0.17363,0.232889 -0.11162,0.08544 -0.2701,0.122645 -0.15709,0.03859 -0.35553,0.03859 -0.16123,0 -0.31833,-0.01929 -0.15571,-0.01929 -0.27009,-0.04685 v -0.387228 h 0.0606 q 0.091,0.03583 0.22187,0.06477 0.13091,0.03032 0.23426,0.03032 0.13781,0 0.22325,-0.02618 0.0868,-0.02481 0.13229,-0.07166 0.0427,-0.0441 0.062,-0.113 0.0193,-0.0689 0.0193,-0.165364 v -0.02894 q -0.0896,0.07304 -0.19844,0.115755 -0.10886,0.04272 -0.24253,0.04272 -0.32522,0 -0.50161,-0.195681 -0.17639,-0.195681 -0.17639,-0.595312 0,-0.191548 0.0537,-0.33073 0.0537,-0.139181 0.15158,-0.242534 0.091,-0.09646 0.22324,-0.150207 0.13367,-0.05374 0.27286,-0.05374 0.1254,0 0.22737,0.03032 0.10335,0.02894 0.18741,0.0813 l 0.0179,-0.0689 h 0.48093 z m -0.49609,-0.310058 V 55.54525 q -0.0427,-0.01791 -0.10473,-0.02756 -0.062,-0.01102 -0.11162,-0.01102 -0.19568,0 -0.29352,0.112999 -0.0978,0.111621 -0.0978,0.312815 0,0.223242 0.0827,0.311436 0.0841,0.08819 0.24805,0.08819 0.0744,0 0.14607,-0.02343 0.0717,-0.02343 0.13091,-0.06201 z"
         style="font-size:2.82222223px;fill:#c8beb7;fill-opacity:1;stroke-width:0.26458332"
         id="path1094"
         inkscape:connector-curvature="0" />
      <path
         d="m -282.84269,56.052368 h -1.13551 q 0.011,0.181901 0.13781,0.278364 0.12816,0.09646 0.3762,0.09646 0.1571,0 0.30455,-0.0565 0.14745,-0.0565 0.23289,-0.121267 h 0.0551 v 0.398253 q -0.16812,0.06752 -0.31695,0.09784 -0.14883,0.03032 -0.32935,0.03032 -0.46578,0 -0.71382,-0.209462 -0.24805,-0.209461 -0.24805,-0.59669 0,-0.383095 0.23427,-0.606337 0.23564,-0.22462 0.64492,-0.22462 0.37758,0 0.56775,0.191547 0.19017,0.190169 0.19017,0.548459 z m -0.49334,-0.290766 q -0.004,-0.155718 -0.0772,-0.234266 -0.073,-0.07855 -0.22738,-0.07855 -0.14331,0 -0.23564,0.07441 -0.0923,0.07442 -0.10335,0.238401 z"
         style="font-size:2.82222223px;fill:#c8beb7;fill-opacity:1;stroke-width:0.26458332"
         id="path1096"
         inkscape:connector-curvature="0" />
      <path
         d="m -280.57995,56.006893 h -0.7345 v 0.727604 h -0.37758 v -0.727604 h -0.73449 v -0.369314 h 0.73449 v -0.727605 h 0.37758 v 0.727605 h 0.7345 z"
         style="font-size:2.82222223px;fill:#c8beb7;fill-opacity:1;stroke-width:0.26458332"
         id="path1098"
         inkscape:connector-curvature="0" />
    </g>
    <g
       aria-label="POLY"
       style="font-style:normal;font-variant:normal;font-weight:bold;font-stretch:normal;font-size:2.11666656px;line-height:1.25;font-family:sans-serif;-inkscape-font-specification:'sans-serif Bold';letter-spacing:0px;word-spacing:0px;fill:#c8beb7;fill-opacity:1;stroke:none;stroke-width:0.26458332"
       id="text1062"
       transform="translate(-1.2630319e-6,-1.00001)">
      <path
         d="m 64.245069,284.7163 q 0,0.10336 -0.03617,0.20258 -0.03617,0.0982 -0.103353,0.16536 -0.09198,0.0909 -0.205673,0.13746 -0.112654,0.0465 -0.281119,0.0465 H 63.37174 v 0.50126 h -0.396875 v -1.53892 h 0.65319 q 0.146762,0 0.247014,0.0258 0.101286,0.0248 0.1788,0.0755 0.09302,0.061 0.141594,0.15606 0.04961,0.0951 0.04961,0.22841 z m -0.410311,0.009 q 0,-0.0651 -0.03514,-0.11162 -0.03514,-0.0476 -0.08165,-0.0661 -0.06201,-0.0248 -0.120922,-0.0269 -0.05891,-0.003 -0.157097,-0.003 h -0.06821 v 0.46095 h 0.113689 q 0.101285,0 0.166398,-0.0124 0.06614,-0.0124 0.110587,-0.0496 0.03824,-0.0331 0.05478,-0.0786 0.01757,-0.0465 0.01757,-0.11265 z"
         style="fill:#c8beb7;fill-opacity:1;stroke-width:0.26458332"
         id="path1079"
         inkscape:connector-curvature="0" />
      <path
         d="m 66.021705,285.00052 q 0,0.36794 -0.21084,0.58498 -0.21084,0.21601 -0.58291,0.21601 -0.371037,0 -0.581877,-0.21601 -0.21084,-0.21704 -0.21084,-0.58498 0,-0.37103 0.21084,-0.58601 0.21084,-0.216 0.581877,-0.216 0.370003,0 0.581876,0.216 0.211874,0.21498 0.211874,0.58601 z m -0.526066,0.38965 q 0.05788,-0.0703 0.08578,-0.16537 0.02791,-0.0961 0.02791,-0.22531 0,-0.13849 -0.03204,-0.23564 -0.03204,-0.0971 -0.08371,-0.1571 -0.05271,-0.062 -0.121957,-0.0899 -0.06821,-0.0279 -0.142627,-0.0279 -0.07545,0 -0.142627,0.0269 -0.06615,0.0269 -0.121956,0.0889 -0.05168,0.0579 -0.08475,0.1602 -0.03204,0.10129 -0.03204,0.23564 0,0.13746 0.03101,0.23462 0.03204,0.0961 0.08372,0.15709 0.05168,0.061 0.120923,0.0899 0.06925,0.0289 0.145727,0.0289 0.07648,0 0.145728,-0.0289 0.06925,-0.03 0.120923,-0.092 z"
         style="fill:#c8beb7;fill-opacity:1;stroke-width:0.26458332"
         id="path1081"
         inkscape:connector-curvature="0" />
      <path
         d="m 67.433505,285.76947 h -1.11001 v -1.53892 h 0.396875 v 1.24126 h 0.713135 z"
         style="fill:#c8beb7;fill-opacity:1;stroke-width:0.26458332"
         id="path1083"
         inkscape:connector-curvature="0" />
      <path
         d="m 69.025139,284.23055 -0.567407,0.94361 v 0.59531 h -0.396875 v -0.57671 l -0.576709,-0.96221 h 0.450618 l 0.332796,0.59531 0.321428,-0.59531 z"
         style="fill:#c8beb7;fill-opacity:1;stroke-width:0.26458332"
         id="path1085"
         inkscape:connector-curvature="0" />
    </g>
    <g
       aria-label="OUT"
       style="font-style:normal;font-variant:normal;font-weight:bold;font-stretch:normal;font-size:2.11666656px;line-height:1.25;font-family:sans-serif;-inkscape-font-specification:'sans-serif Bold';letter-spacing:0px;word-spacing:0px;fill:#c8beb7;fill-opacity:1;stroke:none;stroke-width:0.26458332"
       id="text1070"
       transform="translate(1.2369681e-6,-1.00001)">
      <path
         d="m 65.180411,287.00052 q 0,0.36794 -0.210839,0.58498 -0.21084,0.21601 -0.582911,0.21601 -0.371036,0 -0.581876,-0.21601 -0.21084,-0.21704 -0.21084,-0.58498 0,-0.37103 0.21084,-0.58601 0.21084,-0.216 0.581876,-0.216 0.370004,0 0.581877,0.216 0.211873,0.21498 0.211873,0.58601 z m -0.526066,0.38965 q 0.05788,-0.0703 0.08578,-0.16537 0.02791,-0.0961 0.02791,-0.22531 0,-0.13849 -0.03204,-0.23564 -0.03204,-0.0971 -0.08372,-0.1571 -0.05271,-0.062 -0.121956,-0.0899 -0.06821,-0.0279 -0.142627,-0.0279 -0.07545,0 -0.142627,0.0269 -0.06615,0.0269 -0.121956,0.0889 -0.05168,0.0579 -0.08475,0.1602 -0.03204,0.10129 -0.03204,0.23564 0,0.13746 0.03101,0.23462 0.03204,0.0961 0.08372,0.15709 0.05168,0.061 0.120922,0.0899 0.06925,0.0289 0.145728,0.0289 0.07648,0 0.145728,-0.0289 0.06925,-0.03 0.120922,-0.092 z"
         style="fill:#c8beb7;fill-opacity:1;stroke-width:0.26458332"
         id="path1072"
         inkscape:connector-curvature="0" />
      <path
         d="m 66.829923,287.2124 q 0,0.28525 -0.173633,0.43718 -0.173633,0.15193 -0.511596,0.15193 -0.337964,0 -0.511597,-0.15193 -0.172599,-0.15193 -0.172599,-0.43615 v -0.98288 h 0.398942 v 0.96014 q 0,0.1602 0.06718,0.23875 0.06718,0.0786 0.218075,0.0786 0.148828,0 0.217041,-0.0754 0.06925,-0.0754 0.06925,-0.24185 v -0.96014 h 0.398942 z"
         style="fill:#c8beb7;fill-opacity:1;stroke-width:0.26458332"
         id="path1074"
         inkscape:connector-curvature="0" />
      <path
         d="m 68.406054,286.5282 h -0.480591 v 1.24127 h -0.396875 v -1.24127 h -0.48059 v -0.29765 h 1.358056 z"
         style="fill:#c8beb7;fill-opacity:1;stroke-width:0.26458332"
         id="path1076"
         inkscape:connector-curvature="0" />
    </g>
  </g>
</svg>
