<?xml version="1.0" encoding="UTF-8" standalone="no"?>
<!-- Created with Inkscape (http://www.inkscape.org/) -->

<svg
   xmlns:dc="http://purl.org/dc/elements/1.1/"
   xmlns:cc="http://creativecommons.org/ns#"
   xmlns:rdf="http://www.w3.org/1999/02/22-rdf-syntax-ns#"
   xmlns:svg="http://www.w3.org/2000/svg"
   xmlns="http://www.w3.org/2000/svg"
   xmlns:sodipodi="http://sodipodi.sourceforge.net/DTD/sodipodi-0.dtd"
   xmlns:inkscape="http://www.inkscape.org/namespaces/inkscape"
   width="15.24mm"
   height="128.5mm"
   viewBox="0 0 15.24 128.5"
   version="1.1"
   id="svg966"
   inkscape:version="0.92.3 (2405546, 2018-03-11)"
   sodipodi:docname="SMExpL.svg">
  <defs
     id="defs960" />
  <sodipodi:namedview
     id="base"
     pagecolor="#ffffff"
     bordercolor="#666666"
     borderopacity="1.0"
     inkscape:pageopacity="0.0"
     inkscape:pageshadow="2"
     inkscape:zoom="5.6"
     inkscape:cx="23.913013"
     inkscape:cy="132.07398"
     inkscape:document-units="mm"
     inkscape:current-layer="layer1"
     showgrid="true"
     inkscape:pagecheckerboard="true"
     showguides="true"
     inkscape:guide-bbox="true"
     inkscape:object-nodes="false"
     inkscape:snap-bbox="false"
     inkscape:snap-bbox-edge-midpoints="false"
     inkscape:snap-nodes="false"
     inkscape:snap-others="true"
     inkscape:window-width="1920"
     inkscape:window-height="1027"
     inkscape:window-x="-8"
     inkscape:window-y="22"
     inkscape:window-maximized="1"
     inkscape:snap-text-baseline="true">
    <inkscape:grid
       type="xygrid"
       id="grid1511"
       units="mm"
       spacingx="0.1"
       spacingy="0.1" />
    <sodipodi:guide
       position="28.000001,112"
       orientation="0,1"
       id="guide1530"
       inkscape:locked="false"
       inkscape:label=""
       inkscape:color="rgb(0,0,255)" />
    <sodipodi:guide
       position="7.5000002,121"
       orientation="1,0"
       id="guide1553"
       inkscape:locked="false" />
    <sodipodi:guide
       position="10.5,118"
       orientation="0,1"
       id="guide1557"
       inkscape:locked="false"
       inkscape:label=""
       inkscape:color="rgb(0,0,255)" />
    <sodipodi:guide
       position="34.000001,105"
       orientation="0,1"
       id="guide2508"
       inkscape:locked="false"
       inkscape:label=""
       inkscape:color="rgb(0,0,255)" />
    <sodipodi:guide
       position="17,93.000002"
       orientation="0,1"
       id="guide2510"
       inkscape:locked="false" />
    <sodipodi:guide
       position="7.5000002,81.000002"
       orientation="0,1"
       id="guide2529"
       inkscape:locked="false" />
    <sodipodi:guide
       position="7.5000002,69.000001"
       orientation="0,1"
       id="guide2531"
       inkscape:locked="false" />
    <sodipodi:guide
       position="7.5000002,57.000001"
       orientation="0,1"
       id="guide2533"
       inkscape:locked="false" />
    <sodipodi:guide
       position="7.5000002,45.000001"
       orientation="0,1"
       id="guide2535"
       inkscape:locked="false" />
    <sodipodi:guide
       position="7.5000002,33.000001"
       orientation="0,1"
       id="guide2537"
       inkscape:locked="false" />
    <sodipodi:guide
       position="7.5000002,21"
       orientation="0,1"
       id="guide2539"
       inkscape:locked="false" />
  </sodipodi:namedview>
  <metadata
     id="metadata963">
    <rdf:RDF>
      <cc:Work
         rdf:about="">
        <dc:format>image/svg+xml</dc:format>
        <dc:type
           rdf:resource="http://purl.org/dc/dcmitype/StillImage" />
        <dc:title />
      </cc:Work>
    </rdf:RDF>
  </metadata>
  <g
     inkscape:label="Layer 1"
     inkscape:groupmode="layer"
     id="layer1"
     transform="translate(0,-168.5)">
    <path
       style="opacity:1;fill:#53676c;fill-opacity:1;stroke:none;stroke-width:2.2582171;stroke-linecap:round;stroke-linejoin:miter;stroke-miterlimit:4;stroke-dasharray:none;stroke-dashoffset:0.3023622;stroke-opacity:1;paint-order:markers fill stroke"
       d="M 1.2648406,168.5 H 13.975159 c 0.700722,0 1.264841,0.56412 1.264841,1.26484 V 295.73516 C 15.24,296.43588 14.675881,297 13.975159,297 H 1.2648406 C 0.56411891,297 0,296.43588 0,295.73516 V 169.76484 C 0,169.06412 0.56411891,168.5 1.2648406,168.5 Z"
       id="rect1513"
       inkscape:connector-curvature="0" />
    <path
       style="opacity:1;fill:#c8beb7;fill-opacity:1;stroke:none;stroke-width:2.18743587;stroke-linecap:round;stroke-linejoin:miter;stroke-miterlimit:4;stroke-dasharray:none;stroke-dashoffset:0.3023622;stroke-opacity:1;paint-order:markers fill stroke"
       d="M 5.583331,179 H 9.416669 C 11.678835,179 13.5,180.82117 13.5,183.08333 v 89.83334 C 13.5,275.17883 11.678835,277 9.416669,277 H 5.583331 C 3.321165,277 1.5,275.17883 1.5,272.91667 V 183.08333 C 1.5,180.82117 3.321165,179 5.583331,179 Z"
       id="rect2971-4"
       inkscape:connector-curvature="0" />
    <g
       transform="translate(-3.694e-4,-2.1e-4)"
       aria-label="ACTIVE"
       style="font-style:normal;font-variant:normal;font-weight:bold;font-stretch:normal;font-size:2.11666656px;line-height:1.25;font-family:sans-serif;-inkscape-font-specification:'sans-serif Bold';text-align:center;letter-spacing:0px;word-spacing:0px;text-anchor:middle;fill:#c8beb7;fill-opacity:1;stroke:none;stroke-width:0.26458332"
       id="text1517-73-6">
      <path
         d="M 4.6970705,282.5 H 4.2867596 L 4.1803062,282.18891 H 3.6097984 L 3.5033449,282.5 H 3.1033694 l 0.5684407,-1.53892 h 0.4568196 z m -0.6128825,-0.59325 -0.1891357,-0.5519 -0.1891358,0.5519 z"
         style="text-align:center;text-anchor:middle;fill:#c8beb7;fill-opacity:1;stroke-width:0.26458332"
         id="path1765"
         inkscape:connector-curvature="0" />
      <path
         d="m 5.6158774,282.52997 q -0.1715658,0 -0.3172933,-0.0506 -0.144694,-0.0506 -0.2490804,-0.1509 -0.1043864,-0.10025 -0.162264,-0.25011 -0.056844,-0.14986 -0.056844,-0.34623 0,-0.18294 0.054777,-0.33176 0.054777,-0.14883 0.1591634,-0.25529 0.1002522,-0.10232 0.2480468,-0.15813 0.1488281,-0.0558 0.324528,-0.0558 0.097152,0 0.1746663,0.0114 0.078548,0.0103 0.144694,0.0279 0.069247,0.0196 0.125057,0.0444 0.056844,0.0238 0.099219,0.0444 v 0.3731 h -0.045475 q -0.028939,-0.0248 -0.07338,-0.0589 -0.043408,-0.0341 -0.099219,-0.0672 -0.056844,-0.0331 -0.1229899,-0.0558 -0.066146,-0.0227 -0.1415934,-0.0227 -0.083716,0 -0.1591634,0.0269 -0.075448,0.0258 -0.1395264,0.0868 -0.060978,0.0589 -0.099219,0.15607 -0.037207,0.0971 -0.037207,0.23564 0,0.1447 0.040308,0.24185 0.041341,0.0971 0.1033528,0.15296 0.063045,0.0568 0.1405599,0.0817 0.077515,0.0238 0.1529622,0.0238 0.072347,0 0.142627,-0.0217 0.071313,-0.0217 0.1312581,-0.0589 0.050643,-0.03 0.094051,-0.0641 0.043408,-0.0341 0.071313,-0.0589 h 0.041341 v 0.36794 q -0.057878,0.0258 -0.1105875,0.0486 -0.05271,0.0227 -0.1105876,0.0393 -0.075448,0.0217 -0.1415934,0.0331 -0.066146,0.0114 -0.181901,0.0114 z"
         style="text-align:center;text-anchor:middle;fill:#c8beb7;fill-opacity:1;stroke-width:0.26458332"
         id="path1767"
         inkscape:connector-curvature="0" />
      <path
         d="M 7.6581298,281.25873 H 7.177539 V 282.5 H 6.780664 v -1.24127 H 6.3000732 v -0.29765 h 1.3580566 z"
         style="text-align:center;text-anchor:middle;fill:#c8beb7;fill-opacity:1;stroke-width:0.26458332"
         id="path1769"
         inkscape:connector-curvature="0" />
      <path
         d="M 8.7288653,282.5 H 7.8276284 v -0.27285 h 0.2521809 v -0.99322 H 7.8276284 v -0.27285 h 0.9012369 v 0.27285 h -0.252181 v 0.99322 h 0.252181 z"
         style="text-align:center;text-anchor:middle;fill:#c8beb7;fill-opacity:1;stroke-width:0.26458332"
         id="path1771"
         inkscape:connector-curvature="0" />
      <path
         d="M 10.449691,280.96108 9.8884846,282.5 H 9.4440673 l -0.561206,-1.53892 h 0.416512 l 0.3720703,1.08107 0.3720704,-1.08107 z"
         style="text-align:center;text-anchor:middle;fill:#c8beb7;fill-opacity:1;stroke-width:0.26458332"
         id="path1773"
         inkscape:connector-curvature="0" />
      <path
         d="m 11.783976,282.5 h -1.113111 v -1.53892 h 1.113111 v 0.29765 h -0.718303 v 0.26562 h 0.666626 v 0.29766 h -0.666626 v 0.38033 h 0.718303 z"
         style="text-align:center;text-anchor:middle;fill:#c8beb7;fill-opacity:1;stroke-width:0.26458332"
         id="path1775"
         inkscape:connector-curvature="0" />
    </g>
    <g
       aria-label="IN 9"
       style="font-style:normal;font-variant:normal;font-weight:bold;font-stretch:normal;font-size:2.11666656px;line-height:1.25;font-family:sans-serif;-inkscape-font-specification:'sans-serif Bold';text-align:center;letter-spacing:0px;word-spacing:0px;text-anchor:middle;fill:#2c89a0;fill-opacity:1;stroke:none;stroke-width:0.26458332"
       id="text2421">
      <path
         d="M 5.9383383,192 H 5.0371014 v -0.27285 h 0.2521809 v -0.99322 H 5.0371014 v -0.27285 h 0.9012369 v 0.27285 h -0.252181 v 0.99322 h 0.252181 z"
         style="text-align:center;text-anchor:middle;fill:#2c89a0;fill-opacity:1;stroke-width:0.26458332"
         id="path2542"
         inkscape:connector-curvature="0" />
      <path
         d="M 7.6632975,192 H 7.2808919 l -0.65319,-1.05627 V 192 H 6.2638998 v -1.53892 h 0.4743896 l 0.561206,0.8816 v -0.8816 h 0.3638021 z"
         style="text-align:center;text-anchor:middle;fill:#2c89a0;fill-opacity:1;stroke-width:0.26458332"
         id="path2544"
         inkscape:connector-curvature="0" />
      <path
         d="m 9.9515298,191.14424 q 0,0.19327 -0.049609,0.35967 -0.049609,0.16639 -0.1508952,0.28008 -0.109554,0.12299 -0.271818,0.185 -0.162264,0.061 -0.3782714,0.061 -0.076481,0 -0.1653646,-0.009 -0.088883,-0.009 -0.1167887,-0.0165 v -0.30282 h 0.041341 q 0.031006,0.0145 0.08785,0.031 0.057878,0.0165 0.1570964,0.0165 0.080615,0 0.1581298,-0.0196 0.077515,-0.0207 0.1333252,-0.0641 0.060978,-0.0465 0.1002523,-0.11576 0.039274,-0.0703 0.05271,-0.16846 -0.089917,0.0517 -0.1674317,0.0796 -0.076481,0.0269 -0.1912028,0.0269 -0.086816,0 -0.1663981,-0.0207 -0.078548,-0.0217 -0.1436604,-0.0661 -0.085783,-0.061 -0.1374593,-0.16019 -0.050643,-0.10026 -0.050643,-0.25218 0,-0.24702 0.1715657,-0.40205 0.1725993,-0.15606 0.451652,-0.15606 0.1436605,0 0.254248,0.0382 0.1116211,0.0372 0.1922364,0.11472 0.094051,0.0889 0.1415934,0.22635 0.047542,0.13745 0.047542,0.33486 z m -0.3958415,-0.0579 q 0,-0.12609 -0.024805,-0.2067 -0.023771,-0.0816 -0.066146,-0.1261 -0.029972,-0.0331 -0.069246,-0.0475 -0.039274,-0.0145 -0.082682,-0.0145 -0.040308,0 -0.077515,0.0145 -0.036174,0.0134 -0.07028,0.0475 -0.032039,0.0331 -0.05271,0.0868 -0.019637,0.0537 -0.019637,0.12816 0,0.0724 0.021704,0.12195 0.021704,0.0486 0.059945,0.0775 0.036174,0.0279 0.084749,0.0393 0.049609,0.0114 0.107487,0.0114 0.046509,0 0.1012858,-0.0114 0.054777,-0.0124 0.084749,-0.0248 0,-0.0114 0.00103,-0.032 0.00207,-0.0217 0.00207,-0.0641 z"
         style="text-align:center;text-anchor:middle;fill:#2c89a0;fill-opacity:1;stroke-width:0.26458332"
         id="path2546"
         inkscape:connector-curvature="0" />
    </g>
    <g
       aria-label="IN 10"
       style="font-style:normal;font-variant:normal;font-weight:bold;font-stretch:normal;font-size:2.11666656px;line-height:1.25;font-family:sans-serif;-inkscape-font-specification:'sans-serif Bold';text-align:center;letter-spacing:0px;word-spacing:0px;text-anchor:middle;fill:#2c89a0;fill-opacity:1;stroke:none;stroke-width:0.26458332"
       id="text2421-6">
      <path
         d="M 5.1859295,204 H 4.2846926 v -0.27285 h 0.2521809 v -0.99322 H 4.2846926 v -0.27285 h 0.9012369 v 0.27285 h -0.252181 v 0.99322 h 0.252181 z"
         style="text-align:center;text-anchor:middle;fill:#2c89a0;fill-opacity:1;stroke-width:0.26458332"
         id="path2549"
         inkscape:connector-curvature="0" />
      <path
         d="M 6.9108887,204 H 6.5284831 L 5.875293,202.94373 V 204 H 5.511491 v -1.53892 h 0.4743896 l 0.561206,0.8816 v -0.8816 h 0.3638021 z"
         style="text-align:center;text-anchor:middle;fill:#2c89a0;fill-opacity:1;stroke-width:0.26458332"
         id="path2551"
         inkscape:connector-curvature="0" />
      <path
         d="M 9.1350422,204 H 8.1077148 v -0.26872 h 0.324528 v -0.81338 h -0.324528 v -0.25115 q 0.074414,0 0.1426269,-0.008 0.068213,-0.009 0.1136882,-0.031 0.053743,-0.0258 0.080615,-0.0672 0.026872,-0.0413 0.031006,-0.10335 h 0.3420979 v 1.27434 h 0.3172933 z"
         style="text-align:center;text-anchor:middle;fill:#2c89a0;fill-opacity:1;stroke-width:0.26458332"
         id="path2553"
         inkscape:connector-curvature="0" />
      <path
         d="m 10.726676,203.23002 q 0,0.1943 -0.03514,0.3483 -0.03514,0.15296 -0.109554,0.25115 -0.07648,0.10025 -0.19637,0.15193 -0.11989,0.0506 -0.29559,0.0506 -0.1725988,0 -0.2945552,-0.0517 -0.1219563,-0.0517 -0.1974039,-0.15296 -0.076481,-0.10129 -0.1105876,-0.25115 -0.034106,-0.15089 -0.034106,-0.3452 0,-0.2005 0.03514,-0.34829 0.03514,-0.1478 0.1116211,-0.25012 0.076481,-0.10128 0.1984375,-0.15193 0.1219564,-0.0506 0.2914551,-0.0506 0.176734,0 0.296623,0.0527 0.119889,0.0517 0.196371,0.15503 0.07545,0.10129 0.109554,0.25011 0.03411,0.1478 0.03411,0.3421 z m -0.399975,0 q 0,-0.27905 -0.05478,-0.39687 -0.05478,-0.11886 -0.181902,-0.11886 -0.1271235,0 -0.1819006,0.11886 -0.054777,0.11782 -0.054777,0.39894 0,0.27388 0.055811,0.39481 0.05581,0.12092 0.1808666,0.12092 0.125057,0 0.180868,-0.12092 0.05581,-0.12093 0.05581,-0.39688 z"
         style="text-align:center;text-anchor:middle;fill:#2c89a0;fill-opacity:1;stroke-width:0.26458332"
         id="path2555"
         inkscape:connector-curvature="0" />
    </g>
    <g
       aria-label="IN 11"
       style="font-style:normal;font-variant:normal;font-weight:bold;font-stretch:normal;font-size:2.11666656px;line-height:1.25;font-family:sans-serif;-inkscape-font-specification:'sans-serif Bold';text-align:center;letter-spacing:0px;word-spacing:0px;text-anchor:middle;fill:#2c89a0;fill-opacity:1;stroke:none;stroke-width:0.26458332"
       id="text2421-3">
      <path
         d="M 5.1859295,216 H 4.2846926 v -0.27285 h 0.2521809 v -0.99322 H 4.2846926 v -0.27285 h 0.9012369 v 0.27285 h -0.252181 v 0.99322 h 0.252181 z"
         style="text-align:center;text-anchor:middle;fill:#2c89a0;fill-opacity:1;stroke-width:0.26458332"
         id="path2558"
         inkscape:connector-curvature="0" />
      <path
         d="M 6.9108887,216 H 6.5284831 L 5.875293,214.94373 V 216 H 5.511491 v -1.53892 h 0.4743896 l 0.561206,0.8816 v -0.8816 h 0.3638021 z"
         style="text-align:center;text-anchor:middle;fill:#2c89a0;fill-opacity:1;stroke-width:0.26458332"
         id="path2560"
         inkscape:connector-curvature="0" />
      <path
         d="M 9.1350422,216 H 8.1077148 v -0.26872 h 0.324528 v -0.81338 h -0.324528 v -0.25115 q 0.074414,0 0.1426269,-0.008 0.068213,-0.009 0.1136882,-0.031 0.053743,-0.0258 0.080615,-0.0672 0.026872,-0.0413 0.031006,-0.10335 h 0.3420979 v 1.27434 h 0.3172933 z"
         style="text-align:center;text-anchor:middle;fill:#2c89a0;fill-opacity:1;stroke-width:0.26458332"
         id="path2562"
         inkscape:connector-curvature="0" />
      <path
         d="M 10.63986,216 H 9.6125323 v -0.26872 H 9.9370602 V 214.9179 H 9.6125323 v -0.25115 q 0.074414,0 0.1426269,-0.008 0.068213,-0.009 0.1136882,-0.031 0.053743,-0.0258 0.080615,-0.0672 0.026872,-0.0413 0.031006,-0.10335 h 0.3420976 v 1.27434 h 0.317294 z"
         style="text-align:center;text-anchor:middle;fill:#2c89a0;fill-opacity:1;stroke-width:0.26458332"
         id="path2564"
         inkscape:connector-curvature="0" />
    </g>
    <g
       aria-label="IN 12"
       style="font-style:normal;font-variant:normal;font-weight:bold;font-stretch:normal;font-size:2.11666656px;line-height:1.25;font-family:sans-serif;-inkscape-font-specification:'sans-serif Bold';text-align:center;letter-spacing:0px;word-spacing:0px;text-anchor:middle;fill:#2c89a0;fill-opacity:1;stroke:none;stroke-width:0.26458332"
       id="text2421-30">
      <path
         d="M 5.1859295,228 H 4.2846926 v -0.27285 h 0.2521809 v -0.99322 H 4.2846926 v -0.27285 h 0.9012369 v 0.27285 h -0.252181 v 0.99322 h 0.252181 z"
         style="text-align:center;text-anchor:middle;fill:#2c89a0;fill-opacity:1;stroke-width:0.26458332"
         id="path2567"
         inkscape:connector-curvature="0" />
      <path
         d="M 6.9108887,228 H 6.5284831 L 5.875293,226.94373 V 228 H 5.511491 v -1.53892 h 0.4743896 l 0.561206,0.8816 v -0.8816 h 0.3638021 z"
         style="text-align:center;text-anchor:middle;fill:#2c89a0;fill-opacity:1;stroke-width:0.26458332"
         id="path2569"
         inkscape:connector-curvature="0" />
      <path
         d="M 9.1350422,228 H 8.1077148 v -0.26872 h 0.324528 v -0.81338 h -0.324528 v -0.25115 q 0.074414,0 0.1426269,-0.008 0.068213,-0.009 0.1136882,-0.031 0.053743,-0.0258 0.080615,-0.0672 0.026872,-0.0413 0.031006,-0.10335 h 0.3420979 v 1.27434 h 0.3172933 z"
         style="text-align:center;text-anchor:middle;fill:#2c89a0;fill-opacity:1;stroke-width:0.26458332"
         id="path2571"
         inkscape:connector-curvature="0" />
      <path
         d="M 10.737011,228 H 9.5288165 v -0.25425 q 0.1384928,-0.10025 0.2769856,-0.2129 0.1395264,-0.11266 0.2232419,-0.19431 0.125057,-0.12092 0.177767,-0.21084 0.05271,-0.0899 0.05271,-0.17777 0,-0.10541 -0.06821,-0.16226 -0.06718,-0.0579 -0.1943031,-0.0579 -0.095085,0 -0.2005045,0.0393 -0.1043864,0.0393 -0.1943034,0.10025 H 9.569127 v -0.3421 q 0.073381,-0.032 0.2160074,-0.0641 0.1436605,-0.032 0.2873206,-0.032 0.289388,0 0.441317,0.12196 0.151929,0.12092 0.151929,0.34313 0,0.14573 -0.07338,0.27699 -0.07235,0.13126 -0.222208,0.27078 -0.09405,0.0868 -0.189136,0.1602 -0.09508,0.0724 -0.135392,0.10128 h 0.69143 z"
         style="text-align:center;text-anchor:middle;fill:#2c89a0;fill-opacity:1;stroke-width:0.26458332"
         id="path2573"
         inkscape:connector-curvature="0" />
    </g>
    <g
       aria-label="IN 13"
       style="font-style:normal;font-variant:normal;font-weight:bold;font-stretch:normal;font-size:2.11666656px;line-height:1.25;font-family:sans-serif;-inkscape-font-specification:'sans-serif Bold';text-align:center;letter-spacing:0px;word-spacing:0px;text-anchor:middle;fill:#2c89a0;fill-opacity:1;stroke:none;stroke-width:0.26458332"
       id="text2421-8">
      <path
         d="M 5.1859295,240 H 4.2846926 v -0.27285 h 0.2521809 v -0.99322 H 4.2846926 v -0.27285 h 0.9012369 v 0.27285 h -0.252181 v 0.99322 h 0.252181 z"
         style="text-align:center;text-anchor:middle;fill:#2c89a0;fill-opacity:1;stroke-width:0.26458332"
         id="path2576"
         inkscape:connector-curvature="0" />
      <path
         d="M 6.9108887,240 H 6.5284831 L 5.875293,238.94373 V 240 H 5.511491 v -1.53892 h 0.4743896 l 0.561206,0.8816 v -0.8816 h 0.3638021 z"
         style="text-align:center;text-anchor:middle;fill:#2c89a0;fill-opacity:1;stroke-width:0.26458332"
         id="path2578"
         inkscape:connector-curvature="0" />
      <path
         d="M 9.1350422,240 H 8.1077148 v -0.26872 h 0.324528 v -0.81338 h -0.324528 v -0.25115 q 0.074414,0 0.1426269,-0.008 0.068213,-0.009 0.1136882,-0.031 0.053743,-0.0258 0.080615,-0.0672 0.026872,-0.0413 0.031006,-0.10335 h 0.3420979 v 1.27434 h 0.3172933 z"
         style="text-align:center;text-anchor:middle;fill:#2c89a0;fill-opacity:1;stroke-width:0.26458332"
         id="path2580"
         inkscape:connector-curvature="0" />
      <path
         d="m 10.586116,239.2786 q 0.05064,0.0434 0.08061,0.10128 0.02997,0.0579 0.02997,0.154 0,0.10852 -0.04341,0.20257 -0.04237,0.0941 -0.131259,0.16123 -0.08682,0.0651 -0.204638,0.10025 -0.116789,0.0341 -0.284221,0.0341 -0.1912024,0 -0.3286617,-0.03 -0.1364258,-0.03 -0.2222086,-0.0672 v -0.33797 h 0.040308 q 0.088883,0.0537 0.2118733,0.093 0.1240235,0.0393 0.2263428,0.0393 0.059945,0 0.1302242,-0.009 0.07028,-0.0103 0.118856,-0.0434 0.03824,-0.0258 0.06098,-0.062 0.02274,-0.0372 0.02274,-0.10645 0,-0.0672 -0.03101,-0.10335 -0.03101,-0.0372 -0.08165,-0.0527 -0.05064,-0.0165 -0.121956,-0.0176 -0.071314,-0.002 -0.1322916,-0.002 h -0.084749 v -0.27492 h 0.08785 q 0.080616,0 0.1426266,-0.005 0.06201,-0.005 0.10542,-0.0238 0.04548,-0.0196 0.06821,-0.0517 0.02274,-0.0331 0.02274,-0.0961 0,-0.0465 -0.02377,-0.0744 -0.02377,-0.0289 -0.05994,-0.0455 -0.04031,-0.0186 -0.09509,-0.0248 -0.05478,-0.006 -0.094051,-0.006 -0.097152,0 -0.2108399,0.0341 -0.1136881,0.0331 -0.2201415,0.0961 h -0.038241 v -0.33383 q 0.084749,-0.0341 0.2304769,-0.0651 0.1457275,-0.032 0.2955885,-0.032 0.145728,0 0.255282,0.0258 0.109554,0.0248 0.180868,0.0672 0.08475,0.0506 0.12609,0.12299 0.04134,0.0724 0.04134,0.1695 0,0.12816 -0.07958,0.22945 -0.07958,0.10025 -0.209806,0.12815 v 0.0145 q 0.05271,0.007 0.111621,0.0289 0.05891,0.0217 0.107487,0.0631 z"
         style="text-align:center;text-anchor:middle;fill:#2c89a0;fill-opacity:1;stroke-width:0.26458332"
         id="path2582"
         inkscape:connector-curvature="0" />
    </g>
    <g
       aria-label="IN 14"
       style="font-style:normal;font-variant:normal;font-weight:bold;font-stretch:normal;font-size:2.11666656px;line-height:1.25;font-family:sans-serif;-inkscape-font-specification:'sans-serif Bold';text-align:center;letter-spacing:0px;word-spacing:0px;text-anchor:middle;fill:#2c89a0;fill-opacity:1;stroke:none;stroke-width:0.26458332"
       id="text2421-2">
      <path
         d="M 5.1859295,252 H 4.2846926 v -0.27285 h 0.2521809 v -0.99322 H 4.2846926 v -0.27285 h 0.9012369 v 0.27285 h -0.252181 v 0.99322 h 0.252181 z"
         style="text-align:center;text-anchor:middle;fill:#2c89a0;fill-opacity:1;stroke-width:0.26458332"
         id="path2585"
         inkscape:connector-curvature="0" />
      <path
         d="M 6.9108887,252 H 6.5284831 L 5.875293,250.94373 V 252 H 5.511491 v -1.53892 h 0.4743896 l 0.561206,0.8816 v -0.8816 h 0.3638021 z"
         style="text-align:center;text-anchor:middle;fill:#2c89a0;fill-opacity:1;stroke-width:0.26458332"
         id="path2587"
         inkscape:connector-curvature="0" />
      <path
         d="M 9.1350422,252 H 8.1077148 v -0.26872 h 0.324528 v -0.81338 h -0.324528 v -0.25115 q 0.074414,0 0.1426269,-0.008 0.068213,-0.009 0.1136882,-0.031 0.053743,-0.0258 0.080615,-0.0672 0.026872,-0.0413 0.031006,-0.10335 h 0.3420979 v 1.27434 h 0.3172933 z"
         style="text-align:center;text-anchor:middle;fill:#2c89a0;fill-opacity:1;stroke-width:0.26458332"
         id="path2589"
         inkscape:connector-curvature="0" />
      <path
         d="m 10.758715,251.6455 h -0.209806 v 0.35863 H 10.169604 V 251.6455 H 9.4244301 v -0.29146 l 0.7203689,-0.89296 h 0.40411 v 0.9033 h 0.209806 z m -0.589111,-0.28112 v -0.55604 l -0.4475177,0.55604 z"
         style="text-align:center;text-anchor:middle;fill:#2c89a0;fill-opacity:1;stroke-width:0.26458332"
         id="path2591"
         inkscape:connector-curvature="0" />
    </g>
    <g
       aria-label="IN 15"
       style="font-style:normal;font-variant:normal;font-weight:bold;font-stretch:normal;font-size:2.11666656px;line-height:1.25;font-family:sans-serif;-inkscape-font-specification:'sans-serif Bold';text-align:center;letter-spacing:0px;word-spacing:0px;text-anchor:middle;fill:#2c89a0;fill-opacity:1;stroke:none;stroke-width:0.26458332"
       id="text2421-0">
      <path
         d="M 5.1859295,264 H 4.2846926 v -0.27285 h 0.2521809 v -0.99322 H 4.2846926 v -0.27285 h 0.9012369 v 0.27285 h -0.252181 v 0.99322 h 0.252181 z"
         style="text-align:center;text-anchor:middle;fill:#2c89a0;fill-opacity:1;stroke-width:0.26458332"
         id="path2594"
         inkscape:connector-curvature="0" />
      <path
         d="M 6.9108887,264 H 6.5284831 L 5.875293,262.94373 V 264 H 5.511491 v -1.53892 h 0.4743896 l 0.561206,0.8816 v -0.8816 h 0.3638021 z"
         style="text-align:center;text-anchor:middle;fill:#2c89a0;fill-opacity:1;stroke-width:0.26458332"
         id="path2596"
         inkscape:connector-curvature="0" />
      <path
         d="M 9.1350422,264 H 8.1077148 v -0.26872 h 0.324528 v -0.81338 h -0.324528 v -0.25115 q 0.074414,0 0.1426269,-0.008 0.068213,-0.009 0.1136882,-0.031 0.053743,-0.0258 0.080615,-0.0672 0.026872,-0.0413 0.031006,-0.10335 h 0.3420979 v 1.27434 h 0.3172933 z"
         style="text-align:center;text-anchor:middle;fill:#2c89a0;fill-opacity:1;stroke-width:0.26458332"
         id="path2598"
         inkscape:connector-curvature="0" />
      <path
         d="m 10.703938,263.4791 q 0,0.11989 -0.04548,0.22324 -0.04444,0.10232 -0.130224,0.1757 -0.09508,0.0786 -0.219108,0.11679 -0.12299,0.0372 -0.28112,0.0372 -0.1850019,-0.001 -0.3131594,-0.03 -0.127124,-0.0279 -0.2077392,-0.063 V 263.599 h 0.043408 q 0.094051,0.0558 0.2025716,0.093 0.1085205,0.0372 0.2160074,0.0372 0.065112,0 0.1405606,-0.0145 0.07648,-0.0155 0.120922,-0.0548 0.03514,-0.032 0.05271,-0.0651 0.0186,-0.0331 0.0186,-0.10232 0,-0.0538 -0.0248,-0.092 -0.02377,-0.0393 -0.06201,-0.063 -0.05581,-0.0341 -0.134358,-0.0444 -0.07855,-0.0114 -0.1426274,-0.0114 -0.093018,0 -0.1788005,0.0165 -0.084749,0.0155 -0.1488281,0.031 H 9.56499 v -0.86816 h 1.094507 v 0.29455 H 9.9380938 v 0.25115 q 0.032039,-0.002 0.080615,-0.003 0.04961,-0.002 0.08682,-0.002 0.127124,0 0.226343,0.0248 0.100252,0.0238 0.172599,0.0672 0.09405,0.0568 0.146762,0.15089 0.05271,0.093 0.05271,0.23461 z"
         style="text-align:center;text-anchor:middle;fill:#2c89a0;fill-opacity:1;stroke-width:0.26458332"
         id="path2600"
         inkscape:connector-curvature="0" />
    </g>
    <g
       aria-label="IN 16"
       style="font-style:normal;font-variant:normal;font-weight:bold;font-stretch:normal;font-size:2.11666656px;line-height:1.25;font-family:sans-serif;-inkscape-font-specification:'sans-serif Bold';text-align:center;letter-spacing:0px;word-spacing:0px;text-anchor:middle;fill:#2c89a0;fill-opacity:1;stroke:none;stroke-width:0.26458332"
       id="text2421-1">
      <path
         d="M 5.1859295,276 H 4.2846926 v -0.27285 h 0.2521809 v -0.99322 H 4.2846926 v -0.27285 h 0.9012369 v 0.27285 h -0.252181 v 0.99322 h 0.252181 z"
         style="text-align:center;text-anchor:middle;fill:#2c89a0;fill-opacity:1;stroke-width:0.26458332"
         id="path2603"
         inkscape:connector-curvature="0" />
      <path
         d="M 6.9108887,276 H 6.5284831 L 5.875293,274.94373 V 276 H 5.511491 v -1.53892 h 0.4743896 l 0.561206,0.8816 v -0.8816 h 0.3638021 z"
         style="text-align:center;text-anchor:middle;fill:#2c89a0;fill-opacity:1;stroke-width:0.26458332"
         id="path2605"
         inkscape:connector-curvature="0" />
      <path
         d="M 9.1350422,276 H 8.1077148 v -0.26872 h 0.324528 v -0.81338 h -0.324528 v -0.25115 q 0.074414,0 0.1426269,-0.008 0.068213,-0.009 0.1136882,-0.031 0.053743,-0.0258 0.080615,-0.0672 0.026872,-0.0413 0.031006,-0.10335 h 0.3420979 v 1.27434 h 0.3172933 z"
         style="text-align:center;text-anchor:middle;fill:#2c89a0;fill-opacity:1;stroke-width:0.26458332"
         id="path2607"
         inkscape:connector-curvature="0" />
      <path
         d="m 10.734944,275.476 q 0,0.11886 -0.04341,0.22324 -0.04341,0.10439 -0.121956,0.1757 -0.08372,0.0765 -0.194304,0.11679 -0.109554,0.0403 -0.257348,0.0403 -0.1384931,0 -0.2532148,-0.0372 -0.1136881,-0.0382 -0.1953369,-0.11575 -0.094051,-0.0889 -0.1436604,-0.22945 -0.049609,-0.14056 -0.049609,-0.33589 0,-0.20257 0.046509,-0.35967 0.046509,-0.1571 0.1519287,-0.27802 0.1012858,-0.11576 0.2625162,-0.17983 0.1622642,-0.0641 0.3855062,-0.0641 0.07545,0 0.165365,0.0103 0.08992,0.0103 0.116789,0.0155 v 0.30282 h -0.03927 q -0.02791,-0.0134 -0.09508,-0.03 -0.06615,-0.0176 -0.150895,-0.0176 -0.198438,0 -0.309025,0.0971 -0.1105882,0.0971 -0.1333258,0.27078 0.079582,-0.0475 0.1674318,-0.0765 0.08888,-0.03 0.191203,-0.03 0.08992,0 0.166398,0.0207 0.07752,0.0207 0.143661,0.0661 0.08578,0.0599 0.137459,0.16123 0.05168,0.10128 0.05168,0.25321 z m -0.470255,0.23254 q 0.03204,-0.0351 0.05064,-0.0827 0.01964,-0.0486 0.01964,-0.13126 0,-0.0754 -0.0217,-0.12299 -0.0217,-0.0486 -0.05994,-0.0775 -0.03721,-0.0289 -0.08785,-0.0393 -0.05064,-0.0114 -0.104386,-0.0114 -0.04548,0 -0.095085,0.0103 -0.049609,0.0103 -0.09095,0.0258 0,0.0103 -0.00103,0.0341 -0.00103,0.0238 -0.00103,0.0599 0,0.12713 0.024805,0.20981 0.025838,0.0817 0.068213,0.12505 0.028939,0.032 0.068213,0.0475 0.03927,0.0145 0.08475,0.0145 0.03411,0 0.07545,-0.0155 0.04134,-0.0155 0.07028,-0.0465 z"
         style="text-align:center;text-anchor:middle;fill:#2c89a0;fill-opacity:1;stroke-width:0.26458332"
         id="path2609"
         inkscape:connector-curvature="0" />
    </g>
  </g>
</svg>
