<?xml version="1.0" encoding="UTF-8" standalone="no"?>
<!-- Created with Inkscape (http://www.inkscape.org/) -->

<svg
   xmlns:dc="http://purl.org/dc/elements/1.1/"
   xmlns:cc="http://creativecommons.org/ns#"
   xmlns:rdf="http://www.w3.org/1999/02/22-rdf-syntax-ns#"
   xmlns:svg="http://www.w3.org/2000/svg"
   xmlns="http://www.w3.org/2000/svg"
   xmlns:sodipodi="http://sodipodi.sourceforge.net/DTD/sodipodi-0.dtd"
   xmlns:inkscape="http://www.inkscape.org/namespaces/inkscape"
   width="15.24mm"
   height="128.5mm"
   viewBox="0 0 15.24 128.5"
   version="1.1"
   id="svg966"
   inkscape:version="0.92.3 (2405546, 2018-03-11)"
   sodipodi:docname="SMExpR.svg">
  <defs
     id="defs960" />
  <sodipodi:namedview
     id="base"
     pagecolor="#ffffff"
     bordercolor="#666666"
     borderopacity="1.0"
     inkscape:pageopacity="0.0"
     inkscape:pageshadow="2"
     inkscape:zoom="4.4194175"
     inkscape:cx="25.457802"
     inkscape:cy="134.30371"
     inkscape:document-units="mm"
     inkscape:current-layer="layer1"
     showgrid="true"
     inkscape:pagecheckerboard="true"
     showguides="true"
     inkscape:guide-bbox="true"
     inkscape:object-nodes="false"
     inkscape:snap-bbox="false"
     inkscape:snap-bbox-edge-midpoints="false"
     inkscape:snap-nodes="false"
     inkscape:snap-others="true"
     inkscape:window-width="1920"
     inkscape:window-height="1027"
     inkscape:window-x="-8"
     inkscape:window-y="22"
     inkscape:window-maximized="1"
     inkscape:snap-text-baseline="true"
     inkscape:bbox-nodes="false">
    <inkscape:grid
       type="xygrid"
       id="grid1511"
       units="mm"
       spacingx="0.1"
       spacingy="0.1" />
    <sodipodi:guide
       position="28.000001,112"
       orientation="0,1"
       id="guide1530"
       inkscape:locked="false"
       inkscape:label=""
       inkscape:color="rgb(0,0,255)" />
    <sodipodi:guide
       position="7.5000002,121"
       orientation="1,0"
       id="guide1553"
       inkscape:locked="false" />
    <sodipodi:guide
       position="10.5,118"
       orientation="0,1"
       id="guide1557"
       inkscape:locked="false"
       inkscape:label=""
       inkscape:color="rgb(0,0,255)" />
    <sodipodi:guide
       position="24.000001,105"
       orientation="0,1"
       id="guide1513"
       inkscape:locked="false"
       inkscape:label=""
       inkscape:color="rgb(0,0,255)" />
    <sodipodi:guide
       position="8.0000002,93.000002"
       orientation="0,1"
       id="guide1546"
       inkscape:locked="false" />
    <sodipodi:guide
       position="9.0000002,81.000002"
       orientation="0,1"
       id="guide1566"
       inkscape:locked="false" />
    <sodipodi:guide
       position="12,69.000002"
       orientation="0,1"
       id="guide1576"
       inkscape:locked="false" />
    <sodipodi:guide
       position="11,57.000001"
       orientation="0,1"
       id="guide1590"
       inkscape:locked="false" />
    <sodipodi:guide
       position="9.0000002,45.000001"
       orientation="0,1"
       id="guide1600"
       inkscape:locked="false" />
    <sodipodi:guide
       position="9.0000002,33.000001"
       orientation="0,1"
       id="guide1610"
       inkscape:locked="false" />
    <sodipodi:guide
       position="9.0000002,21"
       orientation="0,1"
       id="guide1620"
       inkscape:locked="false" />
    <sodipodi:guide
       position="7.5000002,12"
       orientation="0,1"
       id="guide1675"
       inkscape:locked="false" />
  </sodipodi:namedview>
  <metadata
     id="metadata963">
    <rdf:RDF>
      <cc:Work
         rdf:about="">
        <dc:format>image/svg+xml</dc:format>
        <dc:type
           rdf:resource="http://purl.org/dc/dcmitype/StillImage" />
        <dc:title />
      </cc:Work>
    </rdf:RDF>
  </metadata>
  <g
     inkscape:label="Layer 1"
     inkscape:groupmode="layer"
     id="layer1"
     transform="translate(0,-168.5)">
    <path
       style="opacity:1;fill:#53676c;fill-opacity:1;stroke:none;stroke-width:2.2582171;stroke-linecap:round;stroke-linejoin:miter;stroke-miterlimit:4;stroke-dasharray:none;stroke-dashoffset:0.3023622;stroke-opacity:1;paint-order:markers fill stroke"
       d="M 1.2648406,168.5 H 13.975159 c 0.700722,0 1.264841,0.56412 1.264841,1.26484 V 295.73516 C 15.24,296.43588 14.675881,297 13.975159,297 H 1.2648406 C 0.56411891,297 0,296.43588 0,295.73516 V 169.76484 C 0,169.06412 0.56411891,168.5 1.2648406,168.5 Z"
       id="rect1513"
       inkscape:connector-curvature="0" />
    <path
       style="opacity:1;fill:#2c89a0;fill-opacity:1;stroke:none;stroke-width:2.23254228;stroke-linecap:round;stroke-linejoin:miter;stroke-miterlimit:4;stroke-dasharray:none;stroke-dashoffset:0.3023622;stroke-opacity:1;paint-order:markers fill stroke"
       d="M 5.7534698,179 H 9.7465302 C 12.102953,179 14,180.82117 14,183.08333 v 89.83334 C 14,275.17883 12.102953,277 9.7465302,277 H 5.7534698 C 3.3970469,277 1.5,275.17883 1.5,272.91667 V 183.08333 C 1.5,180.82117 3.3970469,179 5.7534698,179 Z"
       id="rect2971-4"
       inkscape:connector-curvature="0" />
    <g
       aria-label="OUT 9"
       style="font-style:normal;font-variant:normal;font-weight:bold;font-stretch:normal;font-size:2.11666656px;line-height:1.25;font-family:sans-serif;-inkscape-font-specification:'sans-serif Bold';text-align:center;letter-spacing:0px;word-spacing:0px;text-anchor:middle;fill:#c8beb7;fill-opacity:1;stroke:none;stroke-width:0.26458332"
       id="text1517">
      <path
         d="m 5.5983074,191.23105 q 0,0.36794 -0.2108398,0.58498 -0.2108399,0.21601 -0.5829102,0.21601 -0.3710367,0 -0.5818766,-0.21601 -0.2108398,-0.21704 -0.2108398,-0.58498 0,-0.37103 0.2108398,-0.58601 0.2108399,-0.216 0.5818766,-0.216 0.3700033,0 0.5818766,0.216 0.2118734,0.21498 0.2118734,0.58601 z m -0.5260661,0.38965 q 0.057878,-0.0703 0.085783,-0.16537 0.027905,-0.0961 0.027905,-0.22531 0,-0.13849 -0.032039,-0.23564 -0.032039,-0.0972 -0.083716,-0.1571 -0.05271,-0.062 -0.1219564,-0.0899 -0.068213,-0.0279 -0.1426269,-0.0279 -0.075448,0 -0.142627,0.0269 -0.066146,0.0269 -0.1219564,0.0889 -0.051676,0.0579 -0.084749,0.1602 -0.032039,0.10129 -0.032039,0.23564 0,0.13746 0.031006,0.23462 0.032039,0.0961 0.083716,0.15709 0.051676,0.061 0.1209228,0.0899 0.069246,0.0289 0.1457276,0.0289 0.076481,0 0.1457275,-0.0289 0.069246,-0.03 0.1209228,-0.092 z"
         style="text-align:center;text-anchor:middle;fill:#c8beb7;fill-opacity:1;stroke-width:0.26458332"
         id="path1678"
         inkscape:connector-curvature="0" />
      <path
         d="m 7.247819,191.44293 q 0,0.28525 -0.1736328,0.43718 -0.1736328,0.15193 -0.5115967,0.15193 -0.3379638,0 -0.5115966,-0.15193 -0.1725993,-0.15193 -0.1725993,-0.43615 v -0.98288 h 0.3989421 v 0.96014 q 0,0.1602 0.067179,0.23875 0.067179,0.0786 0.2180745,0.0786 0.1488282,0 0.217041,-0.0754 0.069247,-0.0755 0.069247,-0.24185 v -0.96014 h 0.398942 z"
         style="text-align:center;text-anchor:middle;fill:#c8beb7;fill-opacity:1;stroke-width:0.26458332"
         id="path1680"
         inkscape:connector-curvature="0" />
      <path
         d="M 8.8239501,190.75873 H 8.3433593 V 192 h -0.396875 v -1.24127 H 7.4658935 v -0.29765 h 1.3580566 z"
         style="text-align:center;text-anchor:middle;fill:#c8beb7;fill-opacity:1;stroke-width:0.26458332"
         id="path1682"
         inkscape:connector-curvature="0" />
      <path
         d="m 10.95612,191.14424 q 0,0.19327 -0.04961,0.35967 -0.04961,0.16639 -0.150895,0.28008 -0.109554,0.12299 -0.271818,0.185 -0.162264,0.061 -0.378271,0.061 -0.07648,0 -0.165365,-0.009 -0.088883,-0.009 -0.1167887,-0.0165 v -0.30282 h 0.041341 q 0.031006,0.0145 0.08785,0.031 0.057878,0.0165 0.1570967,0.0165 0.08061,0 0.15813,-0.0196 0.07751,-0.0207 0.133325,-0.0641 0.06098,-0.0465 0.100252,-0.11576 0.03927,-0.0703 0.05271,-0.16846 -0.08992,0.0517 -0.167432,0.0796 -0.07648,0.0269 -0.191202,0.0269 -0.08682,0 -0.166399,-0.0207 -0.078548,-0.0217 -0.14366,-0.0661 -0.085783,-0.061 -0.1374593,-0.16019 -0.050643,-0.10026 -0.050643,-0.25218 0,-0.24702 0.1715657,-0.40205 0.1725996,-0.15606 0.4516526,-0.15606 0.14366,0 0.254248,0.0382 0.111621,0.0372 0.192236,0.11472 0.09405,0.0889 0.141593,0.22635 0.04754,0.13745 0.04754,0.33486 z m -0.395842,-0.0579 q 0,-0.12609 -0.02481,-0.2067 -0.02377,-0.0816 -0.06614,-0.1261 -0.02997,-0.0331 -0.06925,-0.0475 -0.03927,-0.0145 -0.08268,-0.0145 -0.04031,0 -0.07752,0.0145 -0.03617,0.0134 -0.07028,0.0475 -0.03204,0.0331 -0.05271,0.0868 -0.01964,0.0537 -0.01964,0.12816 0,0.0724 0.0217,0.12195 0.0217,0.0486 0.05994,0.0775 0.03617,0.0279 0.08475,0.0393 0.04961,0.0114 0.107487,0.0114 0.04651,0 0.101286,-0.0114 0.05478,-0.0124 0.08475,-0.0248 0,-0.0114 10e-4,-0.032 0.0021,-0.0217 0.0021,-0.0641 z"
         style="text-align:center;text-anchor:middle;fill:#c8beb7;fill-opacity:1;stroke-width:0.26458332"
         id="path1684"
         inkscape:connector-curvature="0" />
    </g>
    <g
       style="font-style:normal;font-variant:normal;font-weight:bold;font-stretch:normal;font-size:2.11666656px;line-height:1.25;font-family:sans-serif;-inkscape-font-specification:'sans-serif Bold';letter-spacing:0px;word-spacing:0px;fill:#000000;fill-opacity:1;stroke:none;stroke-width:0.26458332"
       id="text1525" />
    <g
       aria-label="OUT 10"
       style="font-style:normal;font-variant:normal;font-weight:bold;font-stretch:normal;font-size:2.11666656px;line-height:1.25;font-family:sans-serif;-inkscape-font-specification:'sans-serif Bold';text-align:center;letter-spacing:0px;word-spacing:0px;text-anchor:middle;fill:#c8beb7;fill-opacity:1;stroke:none;stroke-width:0.26458332"
       id="text1517-8">
      <path
         d="m 4.8458986,203.23105 q 0,0.36794 -0.2108399,0.58498 -0.2108398,0.21601 -0.5829101,0.21601 -0.3710367,0 -0.5818766,-0.21601 -0.2108398,-0.21704 -0.2108398,-0.58498 0,-0.37103 0.2108398,-0.58601 0.2108399,-0.216 0.5818766,-0.216 0.3700033,0 0.5818766,0.216 0.2118734,0.21498 0.2118734,0.58601 z m -0.5260661,0.38965 q 0.057878,-0.0703 0.085783,-0.16537 0.027905,-0.0961 0.027905,-0.22531 0,-0.13849 -0.032039,-0.23564 -0.032039,-0.0972 -0.083716,-0.1571 -0.05271,-0.062 -0.1219564,-0.0899 -0.068213,-0.0279 -0.142627,-0.0279 -0.075448,0 -0.1426269,0.0269 -0.066146,0.0269 -0.1219564,0.0889 -0.051676,0.0579 -0.084749,0.1602 -0.032039,0.10129 -0.032039,0.23564 0,0.13746 0.031006,0.23462 0.032039,0.0961 0.083716,0.15709 0.051676,0.061 0.1209228,0.0899 0.069246,0.0289 0.1457275,0.0289 0.076481,0 0.1457276,-0.0289 0.069246,-0.03 0.1209228,-0.092 z"
         style="text-align:center;text-anchor:middle;fill:#c8beb7;fill-opacity:1;stroke-width:0.26458332"
         id="path1688"
         inkscape:connector-curvature="0" />
      <path
         d="m 6.4954102,203.44293 q 0,0.28525 -0.1736328,0.43718 -0.1736328,0.15193 -0.5115967,0.15193 -0.3379638,0 -0.5115966,-0.15193 -0.1725993,-0.15193 -0.1725993,-0.43615 v -0.98288 h 0.398942 v 0.96014 q 0,0.1602 0.067179,0.23875 0.067179,0.0786 0.2180745,0.0786 0.1488281,0 0.217041,-0.0754 0.069246,-0.0755 0.069246,-0.24185 v -0.96014 h 0.3989421 z"
         style="text-align:center;text-anchor:middle;fill:#c8beb7;fill-opacity:1;stroke-width:0.26458332"
         id="path1690"
         inkscape:connector-curvature="0" />
      <path
         d="M 8.0715412,202.75873 H 7.5909504 V 204 H 7.1940755 v -1.24127 H 6.7134847 v -0.29765 h 1.3580565 z"
         style="text-align:center;text-anchor:middle;fill:#c8beb7;fill-opacity:1;stroke-width:0.26458332"
         id="path1692"
         inkscape:connector-curvature="0" />
      <path
         d="M 10.139632,204 H 9.1123046 v -0.26872 h 0.324528 v -0.81338 h -0.324528 v -0.25115 q 0.074414,0 0.1426269,-0.008 0.068213,-0.009 0.1136882,-0.031 0.053743,-0.0258 0.080615,-0.0672 0.026872,-0.0413 0.031006,-0.10335 h 0.3420979 v 1.27434 h 0.3172934 z"
         style="text-align:center;text-anchor:middle;fill:#c8beb7;fill-opacity:1;stroke-width:0.26458332"
         id="path1694"
         inkscape:connector-curvature="0" />
      <path
         d="m 11.731266,203.23002 q 0,0.1943 -0.03514,0.3483 -0.03514,0.15296 -0.109554,0.25115 -0.07648,0.10025 -0.196371,0.15193 -0.119889,0.0506 -0.295589,0.0506 -0.172599,0 -0.294555,-0.0517 -0.121957,-0.0517 -0.197404,-0.15296 -0.07648,-0.10129 -0.110588,-0.25115 -0.03411,-0.15089 -0.03411,-0.3452 0,-0.2005 0.03514,-0.34829 0.03514,-0.1478 0.111621,-0.25012 0.07648,-0.10128 0.198437,-0.15193 0.121957,-0.0506 0.291455,-0.0506 0.176734,0 0.296623,0.0527 0.119889,0.0517 0.19637,0.15503 0.07545,0.10129 0.109554,0.25011 0.03411,0.1478 0.03411,0.3421 z m -0.399976,0 q 0,-0.27905 -0.05478,-0.39687 -0.05478,-0.11886 -0.181901,-0.11886 -0.127124,0 -0.181901,0.11886 -0.05478,0.11782 -0.05478,0.39894 0,0.27388 0.05581,0.39481 0.05581,0.12092 0.180867,0.12092 0.125057,0 0.180868,-0.12092 0.05581,-0.12093 0.05581,-0.39688 z"
         style="text-align:center;text-anchor:middle;fill:#c8beb7;fill-opacity:1;stroke-width:0.26458332"
         id="path1696"
         inkscape:connector-curvature="0" />
    </g>
    <g
       aria-label="OUT 11"
       style="font-style:normal;font-variant:normal;font-weight:bold;font-stretch:normal;font-size:2.11666656px;line-height:1.25;font-family:sans-serif;-inkscape-font-specification:'sans-serif Bold';text-align:center;letter-spacing:0px;word-spacing:0px;text-anchor:middle;fill:#c8beb7;fill-opacity:1;stroke:none;stroke-width:0.26458332"
       id="text1517-7">
      <path
         d="m 4.8458986,215.23105 q 0,0.36794 -0.2108399,0.58498 -0.2108398,0.21601 -0.5829101,0.21601 -0.3710367,0 -0.5818766,-0.21601 -0.2108398,-0.21704 -0.2108398,-0.58498 0,-0.37103 0.2108398,-0.58601 0.2108399,-0.216 0.5818766,-0.216 0.3700033,0 0.5818766,0.216 0.2118734,0.21498 0.2118734,0.58601 z m -0.5260661,0.38965 q 0.057878,-0.0703 0.085783,-0.16537 0.027905,-0.0961 0.027905,-0.22531 0,-0.13849 -0.032039,-0.23564 -0.032039,-0.0972 -0.083716,-0.1571 -0.05271,-0.062 -0.1219564,-0.0899 -0.068213,-0.0279 -0.142627,-0.0279 -0.075448,0 -0.1426269,0.0269 -0.066146,0.0269 -0.1219564,0.0889 -0.051676,0.0579 -0.084749,0.1602 -0.032039,0.10129 -0.032039,0.23564 0,0.13746 0.031006,0.23462 0.032039,0.0961 0.083716,0.15709 0.051676,0.061 0.1209228,0.0899 0.069246,0.0289 0.1457275,0.0289 0.076481,0 0.1457276,-0.0289 0.069246,-0.03 0.1209228,-0.092 z"
         style="text-align:center;text-anchor:middle;fill:#c8beb7;fill-opacity:1;stroke-width:0.26458332"
         id="path1699"
         inkscape:connector-curvature="0" />
      <path
         d="m 6.4954102,215.44293 q 0,0.28525 -0.1736328,0.43718 -0.1736328,0.15193 -0.5115967,0.15193 -0.3379638,0 -0.5115966,-0.15193 -0.1725993,-0.15193 -0.1725993,-0.43615 v -0.98288 h 0.398942 v 0.96014 q 0,0.1602 0.067179,0.23875 0.067179,0.0786 0.2180745,0.0786 0.1488281,0 0.217041,-0.0754 0.069246,-0.0755 0.069246,-0.24185 v -0.96014 h 0.3989421 z"
         style="text-align:center;text-anchor:middle;fill:#c8beb7;fill-opacity:1;stroke-width:0.26458332"
         id="path1701"
         inkscape:connector-curvature="0" />
      <path
         d="M 8.0715412,214.75873 H 7.5909504 V 216 H 7.1940755 v -1.24127 H 6.7134847 v -0.29765 h 1.3580565 z"
         style="text-align:center;text-anchor:middle;fill:#c8beb7;fill-opacity:1;stroke-width:0.26458332"
         id="path1703"
         inkscape:connector-curvature="0" />
      <path
         d="M 10.139632,216 H 9.1123046 v -0.26872 h 0.324528 v -0.81338 h -0.324528 v -0.25115 q 0.074414,0 0.1426269,-0.008 0.068213,-0.009 0.1136882,-0.031 0.053743,-0.0258 0.080615,-0.0672 0.026872,-0.0413 0.031006,-0.10335 h 0.3420979 v 1.27434 h 0.3172934 z"
         style="text-align:center;text-anchor:middle;fill:#c8beb7;fill-opacity:1;stroke-width:0.26458332"
         id="path1705"
         inkscape:connector-curvature="0" />
      <path
         d="m 11.644449,216 h -1.027327 v -0.26872 h 0.324528 v -0.81338 h -0.324528 v -0.25115 q 0.07441,0 0.142627,-0.008 0.06821,-0.009 0.113688,-0.031 0.05374,-0.0258 0.08062,-0.0672 0.02687,-0.0413 0.03101,-0.10335 h 0.342098 v 1.27434 h 0.317293 z"
         style="text-align:center;text-anchor:middle;fill:#c8beb7;fill-opacity:1;stroke-width:0.26458332"
         id="path1707"
         inkscape:connector-curvature="0" />
    </g>
    <g
       aria-label="OUT 12"
       style="font-style:normal;font-variant:normal;font-weight:bold;font-stretch:normal;font-size:2.11666656px;line-height:1.25;font-family:sans-serif;-inkscape-font-specification:'sans-serif Bold';text-align:center;letter-spacing:0px;word-spacing:0px;text-anchor:middle;fill:#c8beb7;fill-opacity:1;stroke:none;stroke-width:0.26458332"
       id="text1517-0">
      <path
         d="m 4.8458986,227.23105 q 0,0.36794 -0.2108399,0.58498 -0.2108398,0.21601 -0.5829101,0.21601 -0.3710367,0 -0.5818766,-0.21601 -0.2108398,-0.21704 -0.2108398,-0.58498 0,-0.37103 0.2108398,-0.58601 0.2108399,-0.216 0.5818766,-0.216 0.3700033,0 0.5818766,0.216 0.2118734,0.21498 0.2118734,0.58601 z m -0.5260661,0.38965 q 0.057878,-0.0703 0.085783,-0.16537 0.027905,-0.0961 0.027905,-0.22531 0,-0.13849 -0.032039,-0.23564 -0.032039,-0.0972 -0.083716,-0.1571 -0.05271,-0.062 -0.1219564,-0.0899 -0.068213,-0.0279 -0.142627,-0.0279 -0.075448,0 -0.1426269,0.0269 -0.066146,0.0269 -0.1219564,0.0889 -0.051676,0.0579 -0.084749,0.1602 -0.032039,0.10129 -0.032039,0.23564 0,0.13746 0.031006,0.23462 0.032039,0.0961 0.083716,0.15709 0.051676,0.061 0.1209228,0.0899 0.069246,0.0289 0.1457275,0.0289 0.076481,0 0.1457276,-0.0289 0.069246,-0.03 0.1209228,-0.092 z"
         style="text-align:center;text-anchor:middle;fill:#c8beb7;fill-opacity:1;stroke-width:0.26458332"
         id="path1710"
         inkscape:connector-curvature="0" />
      <path
         d="m 6.4954102,227.44293 q 0,0.28525 -0.1736328,0.43718 -0.1736328,0.15193 -0.5115967,0.15193 -0.3379638,0 -0.5115966,-0.15193 -0.1725993,-0.15193 -0.1725993,-0.43615 v -0.98288 h 0.398942 v 0.96014 q 0,0.1602 0.067179,0.23875 0.067179,0.0786 0.2180745,0.0786 0.1488281,0 0.217041,-0.0754 0.069246,-0.0755 0.069246,-0.24185 v -0.96014 h 0.3989421 z"
         style="text-align:center;text-anchor:middle;fill:#c8beb7;fill-opacity:1;stroke-width:0.26458332"
         id="path1712"
         inkscape:connector-curvature="0" />
      <path
         d="M 8.0715412,226.75873 H 7.5909504 V 228 H 7.1940755 v -1.24127 H 6.7134847 v -0.29765 h 1.3580565 z"
         style="text-align:center;text-anchor:middle;fill:#c8beb7;fill-opacity:1;stroke-width:0.26458332"
         id="path1714"
         inkscape:connector-curvature="0" />
      <path
         d="M 10.139632,228 H 9.1123046 v -0.26872 h 0.324528 v -0.81338 h -0.324528 v -0.25115 q 0.074414,0 0.1426269,-0.008 0.068213,-0.009 0.1136882,-0.031 0.053743,-0.0258 0.080615,-0.0672 0.026872,-0.0413 0.031006,-0.10335 h 0.3420979 v 1.27434 h 0.3172934 z"
         style="text-align:center;text-anchor:middle;fill:#c8beb7;fill-opacity:1;stroke-width:0.26458332"
         id="path1716"
         inkscape:connector-curvature="0" />
      <path
         d="m 11.741601,228 h -1.208195 v -0.25425 q 0.138493,-0.10025 0.276986,-0.2129 0.139526,-0.11266 0.223242,-0.19431 0.125057,-0.12092 0.177767,-0.21084 0.05271,-0.0899 0.05271,-0.17777 0,-0.10541 -0.06821,-0.16226 -0.06718,-0.0579 -0.194303,-0.0579 -0.09508,0 -0.200505,0.0393 -0.104386,0.0393 -0.194303,0.10025 h -0.03307 v -0.3421 q 0.07338,-0.032 0.216007,-0.0641 0.143661,-0.032 0.287321,-0.032 0.289388,0 0.441317,0.12196 0.151929,0.12092 0.151929,0.34313 0,0.14573 -0.07338,0.27699 -0.07235,0.13126 -0.222208,0.27078 -0.09405,0.0868 -0.189136,0.1602 -0.09509,0.0724 -0.135392,0.10128 h 0.69143 z"
         style="text-align:center;text-anchor:middle;fill:#c8beb7;fill-opacity:1;stroke-width:0.26458332"
         id="path1718"
         inkscape:connector-curvature="0" />
    </g>
    <g
       aria-label="OUT 13"
       style="font-style:normal;font-variant:normal;font-weight:bold;font-stretch:normal;font-size:2.11666656px;line-height:1.25;font-family:sans-serif;-inkscape-font-specification:'sans-serif Bold';text-align:center;letter-spacing:0px;word-spacing:0px;text-anchor:middle;fill:#c8beb7;fill-opacity:1;stroke:none;stroke-width:0.26458332"
       id="text1517-9">
      <path
         d="m 4.8458986,239.23105 q 0,0.36794 -0.2108399,0.58498 -0.2108398,0.21601 -0.5829101,0.21601 -0.3710367,0 -0.5818766,-0.21601 -0.2108398,-0.21704 -0.2108398,-0.58498 0,-0.37103 0.2108398,-0.58601 0.2108399,-0.216 0.5818766,-0.216 0.3700033,0 0.5818766,0.216 0.2118734,0.21498 0.2118734,0.58601 z m -0.5260661,0.38965 q 0.057878,-0.0703 0.085783,-0.16537 0.027905,-0.0961 0.027905,-0.22531 0,-0.13849 -0.032039,-0.23564 -0.032039,-0.0972 -0.083716,-0.1571 -0.05271,-0.062 -0.1219564,-0.0899 -0.068213,-0.0279 -0.142627,-0.0279 -0.075448,0 -0.1426269,0.0269 -0.066146,0.0269 -0.1219564,0.0889 -0.051676,0.0579 -0.084749,0.1602 -0.032039,0.10129 -0.032039,0.23564 0,0.13746 0.031006,0.23462 0.032039,0.0961 0.083716,0.15709 0.051676,0.061 0.1209228,0.0899 0.069246,0.0289 0.1457275,0.0289 0.076481,0 0.1457276,-0.0289 0.069246,-0.03 0.1209228,-0.092 z"
         style="text-align:center;text-anchor:middle;fill:#c8beb7;fill-opacity:1;stroke-width:0.26458332"
         id="path1721"
         inkscape:connector-curvature="0" />
      <path
         d="m 6.4954102,239.44293 q 0,0.28525 -0.1736328,0.43718 -0.1736328,0.15193 -0.5115967,0.15193 -0.3379638,0 -0.5115966,-0.15193 -0.1725993,-0.15193 -0.1725993,-0.43615 v -0.98288 h 0.398942 v 0.96014 q 0,0.1602 0.067179,0.23875 0.067179,0.0786 0.2180745,0.0786 0.1488281,0 0.217041,-0.0754 0.069246,-0.0755 0.069246,-0.24185 v -0.96014 h 0.3989421 z"
         style="text-align:center;text-anchor:middle;fill:#c8beb7;fill-opacity:1;stroke-width:0.26458332"
         id="path1723"
         inkscape:connector-curvature="0" />
      <path
         d="M 8.0715412,238.75873 H 7.5909504 V 240 H 7.1940755 v -1.24127 H 6.7134847 v -0.29765 h 1.3580565 z"
         style="text-align:center;text-anchor:middle;fill:#c8beb7;fill-opacity:1;stroke-width:0.26458332"
         id="path1725"
         inkscape:connector-curvature="0" />
      <path
         d="M 10.139632,240 H 9.1123046 v -0.26872 h 0.324528 v -0.81338 h -0.324528 v -0.25115 q 0.074414,0 0.1426269,-0.008 0.068213,-0.009 0.1136882,-0.031 0.053743,-0.0258 0.080615,-0.0672 0.026872,-0.0413 0.031006,-0.10335 h 0.3420979 v 1.27434 h 0.3172934 z"
         style="text-align:center;text-anchor:middle;fill:#c8beb7;fill-opacity:1;stroke-width:0.26458332"
         id="path1727"
         inkscape:connector-curvature="0" />
      <path
         d="m 11.590706,239.2786 q 0.05064,0.0434 0.08061,0.10128 0.02997,0.0579 0.02997,0.154 0,0.10852 -0.04341,0.20257 -0.04237,0.0941 -0.131258,0.16123 -0.08682,0.0651 -0.204638,0.10025 -0.116789,0.0341 -0.284221,0.0341 -0.191203,0 -0.328662,-0.03 -0.136426,-0.03 -0.222209,-0.0672 v -0.33797 h 0.04031 q 0.08888,0.0537 0.211873,0.093 0.124024,0.0393 0.226343,0.0393 0.05995,0 0.130225,-0.009 0.07028,-0.0103 0.118856,-0.0434 0.03824,-0.0258 0.06098,-0.062 0.02274,-0.0372 0.02274,-0.10645 0,-0.0672 -0.031,-0.10335 -0.03101,-0.0372 -0.08165,-0.0527 -0.05064,-0.0165 -0.121957,-0.0176 -0.07131,-0.002 -0.132291,-0.002 h -0.08475 v -0.27492 h 0.08785 q 0.08062,0 0.142627,-0.005 0.06201,-0.005 0.10542,-0.0238 0.04548,-0.0196 0.06821,-0.0517 0.02274,-0.0331 0.02274,-0.0961 0,-0.0465 -0.02377,-0.0744 -0.02377,-0.0289 -0.05994,-0.0455 -0.04031,-0.0186 -0.09509,-0.0248 -0.05478,-0.006 -0.09405,-0.006 -0.09715,0 -0.21084,0.0341 -0.113688,0.0331 -0.220141,0.0961 h -0.03824 v -0.33383 q 0.08475,-0.0341 0.230477,-0.0651 0.145728,-0.032 0.295589,-0.032 0.145728,0 0.255282,0.0258 0.109554,0.0248 0.180867,0.0672 0.08475,0.0506 0.126091,0.12299 0.04134,0.0724 0.04134,0.1695 0,0.12816 -0.07958,0.22945 -0.07958,0.10025 -0.209806,0.12815 v 0.0145 q 0.05271,0.007 0.111621,0.0289 0.05891,0.0217 0.107487,0.0631 z"
         style="text-align:center;text-anchor:middle;fill:#c8beb7;fill-opacity:1;stroke-width:0.26458332"
         id="path1729"
         inkscape:connector-curvature="0" />
    </g>
    <g
       aria-label="OUT 14"
       style="font-style:normal;font-variant:normal;font-weight:bold;font-stretch:normal;font-size:2.11666656px;line-height:1.25;font-family:sans-serif;-inkscape-font-specification:'sans-serif Bold';text-align:center;letter-spacing:0px;word-spacing:0px;text-anchor:middle;fill:#c8beb7;fill-opacity:1;stroke:none;stroke-width:0.26458332"
       id="text1517-79">
      <path
         d="m 4.8458986,251.23105 q 0,0.36794 -0.2108399,0.58498 -0.2108398,0.21601 -0.5829101,0.21601 -0.3710367,0 -0.5818766,-0.21601 -0.2108398,-0.21704 -0.2108398,-0.58498 0,-0.37103 0.2108398,-0.58601 0.2108399,-0.216 0.5818766,-0.216 0.3700033,0 0.5818766,0.216 0.2118734,0.21498 0.2118734,0.58601 z m -0.5260661,0.38965 q 0.057878,-0.0703 0.085783,-0.16537 0.027905,-0.0961 0.027905,-0.22531 0,-0.13849 -0.032039,-0.23564 -0.032039,-0.0972 -0.083716,-0.1571 -0.05271,-0.062 -0.1219564,-0.0899 -0.068213,-0.0279 -0.142627,-0.0279 -0.075448,0 -0.1426269,0.0269 -0.066146,0.0269 -0.1219564,0.0889 -0.051676,0.0579 -0.084749,0.1602 -0.032039,0.10129 -0.032039,0.23564 0,0.13746 0.031006,0.23462 0.032039,0.0961 0.083716,0.15709 0.051676,0.061 0.1209228,0.0899 0.069246,0.0289 0.1457275,0.0289 0.076481,0 0.1457276,-0.0289 0.069246,-0.03 0.1209228,-0.092 z"
         style="text-align:center;text-anchor:middle;fill:#c8beb7;fill-opacity:1;stroke-width:0.26458332"
         id="path1732"
         inkscape:connector-curvature="0" />
      <path
         d="m 6.4954102,251.44293 q 0,0.28525 -0.1736328,0.43718 -0.1736328,0.15193 -0.5115967,0.15193 -0.3379638,0 -0.5115966,-0.15193 -0.1725993,-0.15193 -0.1725993,-0.43615 v -0.98288 h 0.398942 v 0.96014 q 0,0.1602 0.067179,0.23875 0.067179,0.0786 0.2180745,0.0786 0.1488281,0 0.217041,-0.0754 0.069246,-0.0755 0.069246,-0.24185 v -0.96014 h 0.3989421 z"
         style="text-align:center;text-anchor:middle;fill:#c8beb7;fill-opacity:1;stroke-width:0.26458332"
         id="path1734"
         inkscape:connector-curvature="0" />
      <path
         d="M 8.0715412,250.75873 H 7.5909504 V 252 H 7.1940755 v -1.24127 H 6.7134847 v -0.29765 h 1.3580565 z"
         style="text-align:center;text-anchor:middle;fill:#c8beb7;fill-opacity:1;stroke-width:0.26458332"
         id="path1736"
         inkscape:connector-curvature="0" />
      <path
         d="M 10.139632,252 H 9.1123046 v -0.26872 h 0.324528 v -0.81338 h -0.324528 v -0.25115 q 0.074414,0 0.1426269,-0.008 0.068213,-0.009 0.1136882,-0.031 0.053743,-0.0258 0.080615,-0.0672 0.026872,-0.0413 0.031006,-0.10335 h 0.3420979 v 1.27434 h 0.3172934 z"
         style="text-align:center;text-anchor:middle;fill:#c8beb7;fill-opacity:1;stroke-width:0.26458332"
         id="path1738"
         inkscape:connector-curvature="0" />
      <path
         d="m 11.763305,251.6455 h -0.209806 v 0.35863 H 11.174194 V 251.6455 H 10.42902 v -0.29146 l 0.720369,-0.89296 h 0.40411 v 0.9033 h 0.209806 z m -0.589111,-0.28112 v -0.55604 l -0.447518,0.55604 z"
         style="text-align:center;text-anchor:middle;fill:#c8beb7;fill-opacity:1;stroke-width:0.26458332"
         id="path1740"
         inkscape:connector-curvature="0" />
    </g>
    <g
       aria-label="OUT 15"
       style="font-style:normal;font-variant:normal;font-weight:bold;font-stretch:normal;font-size:2.11666656px;line-height:1.25;font-family:sans-serif;-inkscape-font-specification:'sans-serif Bold';text-align:center;letter-spacing:0px;word-spacing:0px;text-anchor:middle;fill:#c8beb7;fill-opacity:1;stroke:none;stroke-width:0.26458332"
       id="text1517-85">
      <path
         d="m 4.8458986,263.23105 q 0,0.36794 -0.2108399,0.58498 -0.2108398,0.21601 -0.5829101,0.21601 -0.3710367,0 -0.5818766,-0.21601 -0.2108398,-0.21704 -0.2108398,-0.58498 0,-0.37103 0.2108398,-0.58601 0.2108399,-0.216 0.5818766,-0.216 0.3700033,0 0.5818766,0.216 0.2118734,0.21498 0.2118734,0.58601 z m -0.5260661,0.38965 q 0.057878,-0.0703 0.085783,-0.16537 0.027905,-0.0961 0.027905,-0.22531 0,-0.13849 -0.032039,-0.23564 -0.032039,-0.0972 -0.083716,-0.1571 -0.05271,-0.062 -0.1219564,-0.0899 -0.068213,-0.0279 -0.142627,-0.0279 -0.075448,0 -0.1426269,0.0269 -0.066146,0.0269 -0.1219564,0.0889 -0.051676,0.0579 -0.084749,0.1602 -0.032039,0.10129 -0.032039,0.23564 0,0.13746 0.031006,0.23462 0.032039,0.0961 0.083716,0.15709 0.051676,0.061 0.1209228,0.0899 0.069246,0.0289 0.1457275,0.0289 0.076481,0 0.1457276,-0.0289 0.069246,-0.03 0.1209228,-0.092 z"
         style="text-align:center;text-anchor:middle;fill:#c8beb7;fill-opacity:1;stroke-width:0.26458332"
         id="path1743"
         inkscape:connector-curvature="0" />
      <path
         d="m 6.4954102,263.44293 q 0,0.28525 -0.1736328,0.43718 -0.1736328,0.15193 -0.5115967,0.15193 -0.3379638,0 -0.5115966,-0.15193 -0.1725993,-0.15193 -0.1725993,-0.43615 v -0.98288 h 0.398942 v 0.96014 q 0,0.1602 0.067179,0.23875 0.067179,0.0786 0.2180745,0.0786 0.1488281,0 0.217041,-0.0754 0.069246,-0.0754 0.069246,-0.24185 v -0.96014 h 0.3989421 z"
         style="text-align:center;text-anchor:middle;fill:#c8beb7;fill-opacity:1;stroke-width:0.26458332"
         id="path1745"
         inkscape:connector-curvature="0" />
      <path
         d="M 8.0715412,262.75873 H 7.5909504 V 264 H 7.1940755 v -1.24127 H 6.7134847 v -0.29765 h 1.3580565 z"
         style="text-align:center;text-anchor:middle;fill:#c8beb7;fill-opacity:1;stroke-width:0.26458332"
         id="path1747"
         inkscape:connector-curvature="0" />
      <path
         d="M 10.139632,264 H 9.1123046 v -0.26872 h 0.324528 v -0.81338 h -0.324528 v -0.25115 q 0.074414,0 0.1426269,-0.008 0.068213,-0.009 0.1136882,-0.031 0.053743,-0.0258 0.080615,-0.0672 0.026872,-0.0413 0.031006,-0.10335 h 0.3420979 v 1.27434 h 0.3172934 z"
         style="text-align:center;text-anchor:middle;fill:#c8beb7;fill-opacity:1;stroke-width:0.26458332"
         id="path1749"
         inkscape:connector-curvature="0" />
      <path
         d="m 11.708528,263.4791 q 0,0.11989 -0.04547,0.22324 -0.04444,0.10232 -0.130225,0.1757 -0.09508,0.0786 -0.219108,0.11679 -0.12299,0.0372 -0.281119,0.0372 -0.185002,-0.001 -0.31316,-0.03 -0.127124,-0.0279 -0.207739,-0.063 V 263.599 h 0.04341 q 0.09405,0.0558 0.202572,0.093 0.10852,0.0372 0.216007,0.0372 0.06511,0 0.14056,-0.0145 0.07648,-0.0155 0.120923,-0.0548 0.03514,-0.032 0.05271,-0.0651 0.0186,-0.0331 0.0186,-0.10232 0,-0.0538 -0.0248,-0.092 -0.02377,-0.0393 -0.06201,-0.063 -0.05581,-0.0341 -0.134358,-0.0444 -0.07855,-0.0114 -0.142627,-0.0114 -0.09302,0 -0.178801,0.0165 -0.08475,0.0155 -0.148828,0.031 h -0.04547 v -0.86816 h 1.094507 v 0.29455 h -0.721403 v 0.25115 q 0.03204,-0.002 0.08061,-0.003 0.04961,-0.002 0.08682,-0.002 0.127124,0 0.226343,0.0248 0.100252,0.0238 0.172599,0.0672 0.09405,0.0568 0.146761,0.15089 0.05271,0.093 0.05271,0.23461 z"
         style="text-align:center;text-anchor:middle;fill:#c8beb7;fill-opacity:1;stroke-width:0.26458332"
         id="path1751"
         inkscape:connector-curvature="0" />
    </g>
    <g
       aria-label="OUT 16"
       style="font-style:normal;font-variant:normal;font-weight:bold;font-stretch:normal;font-size:2.11666656px;line-height:1.25;font-family:sans-serif;-inkscape-font-specification:'sans-serif Bold';text-align:center;letter-spacing:0px;word-spacing:0px;text-anchor:middle;fill:#c8beb7;fill-opacity:1;stroke:none;stroke-width:0.26458332"
       id="text1517-73">
      <path
         d="m 4.8458986,275.23105 q 0,0.36794 -0.2108399,0.58498 -0.2108398,0.21601 -0.5829101,0.21601 -0.3710367,0 -0.5818766,-0.21601 -0.2108398,-0.21704 -0.2108398,-0.58498 0,-0.37103 0.2108398,-0.58601 0.2108399,-0.216 0.5818766,-0.216 0.3700033,0 0.5818766,0.216 0.2118734,0.21498 0.2118734,0.58601 z m -0.5260661,0.38965 q 0.057878,-0.0703 0.085783,-0.16537 0.027905,-0.0961 0.027905,-0.22531 0,-0.13849 -0.032039,-0.23564 -0.032039,-0.0972 -0.083716,-0.1571 -0.05271,-0.062 -0.1219564,-0.0899 -0.068213,-0.0279 -0.142627,-0.0279 -0.075448,0 -0.1426269,0.0269 -0.066146,0.0269 -0.1219564,0.0889 -0.051676,0.0579 -0.084749,0.1602 -0.032039,0.10129 -0.032039,0.23564 0,0.13746 0.031006,0.23462 0.032039,0.0961 0.083716,0.15709 0.051676,0.061 0.1209228,0.0899 0.069246,0.0289 0.1457275,0.0289 0.076481,0 0.1457276,-0.0289 0.069246,-0.03 0.1209228,-0.092 z"
         style="text-align:center;text-anchor:middle;fill:#c8beb7;fill-opacity:1;stroke-width:0.26458332"
         id="path1754"
         inkscape:connector-curvature="0" />
      <path
         d="m 6.4954102,275.44293 q 0,0.28525 -0.1736328,0.43718 -0.1736328,0.15193 -0.5115967,0.15193 -0.3379638,0 -0.5115966,-0.15193 -0.1725993,-0.15193 -0.1725993,-0.43615 v -0.98288 h 0.398942 v 0.96014 q 0,0.1602 0.067179,0.23875 0.067179,0.0786 0.2180745,0.0786 0.1488281,0 0.217041,-0.0754 0.069246,-0.0754 0.069246,-0.24185 v -0.96014 h 0.3989421 z"
         style="text-align:center;text-anchor:middle;fill:#c8beb7;fill-opacity:1;stroke-width:0.26458332"
         id="path1756"
         inkscape:connector-curvature="0" />
      <path
         d="M 8.0715412,274.75873 H 7.5909504 V 276 H 7.1940755 v -1.24127 H 6.7134847 v -0.29765 h 1.3580565 z"
         style="text-align:center;text-anchor:middle;fill:#c8beb7;fill-opacity:1;stroke-width:0.26458332"
         id="path1758"
         inkscape:connector-curvature="0" />
      <path
         d="M 10.139632,276 H 9.1123046 v -0.26872 h 0.324528 v -0.81338 h -0.324528 v -0.25115 q 0.074414,0 0.1426269,-0.008 0.068213,-0.009 0.1136882,-0.031 0.053743,-0.0258 0.080615,-0.0672 0.026872,-0.0413 0.031006,-0.10335 h 0.3420979 v 1.27434 h 0.3172934 z"
         style="text-align:center;text-anchor:middle;fill:#c8beb7;fill-opacity:1;stroke-width:0.26458332"
         id="path1760"
         inkscape:connector-curvature="0" />
      <path
         d="m 11.739534,275.476 q 0,0.11886 -0.04341,0.22324 -0.04341,0.10439 -0.121956,0.1757 -0.08372,0.0765 -0.194304,0.11679 -0.109554,0.0403 -0.257348,0.0403 -0.138493,0 -0.253215,-0.0372 -0.113688,-0.0382 -0.195337,-0.11575 -0.09405,-0.0889 -0.14366,-0.22945 -0.04961,-0.14056 -0.04961,-0.33589 0,-0.20257 0.04651,-0.35967 0.04651,-0.1571 0.151929,-0.27802 0.101286,-0.11576 0.262516,-0.17983 0.162264,-0.0641 0.385506,-0.0641 0.07545,0 0.165365,0.0103 0.08992,0.0103 0.116789,0.0155 v 0.30282 h -0.03927 q -0.02791,-0.0134 -0.09508,-0.03 -0.06615,-0.0176 -0.150895,-0.0176 -0.198438,0 -0.309025,0.0971 -0.110588,0.0971 -0.133326,0.27078 0.07958,-0.0475 0.167432,-0.0765 0.08888,-0.03 0.191203,-0.03 0.08992,0 0.166398,0.0207 0.07752,0.0207 0.14366,0.0661 0.08578,0.0599 0.13746,0.16123 0.05168,0.10128 0.05168,0.25321 z m -0.470255,0.23254 q 0.03204,-0.0351 0.05064,-0.0827 0.01964,-0.0486 0.01964,-0.13126 0,-0.0754 -0.0217,-0.12299 -0.0217,-0.0486 -0.05994,-0.0775 -0.03721,-0.0289 -0.08785,-0.0393 -0.05064,-0.0114 -0.104387,-0.0114 -0.04547,0 -0.09508,0.0103 -0.04961,0.0103 -0.09095,0.0258 0,0.0103 -10e-4,0.0341 -0.001,0.0238 -0.001,0.0599 0,0.12713 0.02481,0.20981 0.02584,0.0817 0.06821,0.12505 0.02894,0.032 0.06821,0.0475 0.03927,0.0145 0.08475,0.0145 0.03411,0 0.07545,-0.0155 0.04134,-0.0155 0.07028,-0.0465 z"
         style="text-align:center;text-anchor:middle;fill:#c8beb7;fill-opacity:1;stroke-width:0.26458332"
         id="path1762"
         inkscape:connector-curvature="0" />
    </g>
    <g
       aria-label="ACTIVE"
       style="font-style:normal;font-variant:normal;font-weight:bold;font-stretch:normal;font-size:2.11666656px;line-height:1.25;font-family:sans-serif;-inkscape-font-specification:'sans-serif Bold';text-align:center;letter-spacing:0px;word-spacing:0px;text-anchor:middle;fill:#c8beb7;fill-opacity:1;stroke:none;stroke-width:0.26458332"
       id="text1517-73-6">
      <path
         d="M 4.6970705,282.5 H 4.2867596 L 4.1803062,282.18891 H 3.6097984 L 3.5033449,282.5 H 3.1033694 l 0.5684407,-1.53892 h 0.4568196 z m -0.6128825,-0.59325 -0.1891357,-0.5519 -0.1891358,0.5519 z"
         style="text-align:center;text-anchor:middle;fill:#c8beb7;fill-opacity:1;stroke-width:0.26458332"
         id="path1765"
         inkscape:connector-curvature="0" />
      <path
         d="m 5.6158774,282.52997 q -0.1715658,0 -0.3172933,-0.0506 -0.144694,-0.0506 -0.2490804,-0.1509 -0.1043864,-0.10025 -0.162264,-0.25011 -0.056844,-0.14986 -0.056844,-0.34623 0,-0.18294 0.054777,-0.33176 0.054777,-0.14883 0.1591634,-0.25529 0.1002522,-0.10232 0.2480468,-0.15813 0.1488281,-0.0558 0.324528,-0.0558 0.097152,0 0.1746663,0.0114 0.078548,0.0103 0.144694,0.0279 0.069247,0.0196 0.125057,0.0444 0.056844,0.0238 0.099219,0.0444 v 0.3731 h -0.045475 q -0.028939,-0.0248 -0.07338,-0.0589 -0.043408,-0.0341 -0.099219,-0.0672 -0.056844,-0.0331 -0.1229899,-0.0558 -0.066146,-0.0227 -0.1415934,-0.0227 -0.083716,0 -0.1591634,0.0269 -0.075448,0.0258 -0.1395264,0.0868 -0.060978,0.0589 -0.099219,0.15607 -0.037207,0.0971 -0.037207,0.23564 0,0.1447 0.040308,0.24185 0.041341,0.0971 0.1033528,0.15296 0.063045,0.0568 0.1405599,0.0817 0.077515,0.0238 0.1529622,0.0238 0.072347,0 0.142627,-0.0217 0.071313,-0.0217 0.1312581,-0.0589 0.050643,-0.03 0.094051,-0.0641 0.043408,-0.0341 0.071313,-0.0589 h 0.041341 v 0.36794 q -0.057878,0.0258 -0.1105875,0.0486 -0.05271,0.0227 -0.1105876,0.0393 -0.075448,0.0217 -0.1415934,0.0331 -0.066146,0.0114 -0.181901,0.0114 z"
         style="text-align:center;text-anchor:middle;fill:#c8beb7;fill-opacity:1;stroke-width:0.26458332"
         id="path1767"
         inkscape:connector-curvature="0" />
      <path
         d="M 7.6581298,281.25873 H 7.177539 V 282.5 H 6.780664 v -1.24127 H 6.3000732 v -0.29765 h 1.3580566 z"
         style="text-align:center;text-anchor:middle;fill:#c8beb7;fill-opacity:1;stroke-width:0.26458332"
         id="path1769"
         inkscape:connector-curvature="0" />
      <path
         d="M 8.7288653,282.5 H 7.8276284 v -0.27285 h 0.2521809 v -0.99322 H 7.8276284 v -0.27285 h 0.9012369 v 0.27285 h -0.252181 v 0.99322 h 0.252181 z"
         style="text-align:center;text-anchor:middle;fill:#c8beb7;fill-opacity:1;stroke-width:0.26458332"
         id="path1771"
         inkscape:connector-curvature="0" />
      <path
         d="M 10.449691,280.96108 9.8884846,282.5 H 9.4440673 l -0.561206,-1.53892 h 0.416512 l 0.3720703,1.08107 0.3720704,-1.08107 z"
         style="text-align:center;text-anchor:middle;fill:#c8beb7;fill-opacity:1;stroke-width:0.26458332"
         id="path1773"
         inkscape:connector-curvature="0" />
      <path
         d="m 11.783976,282.5 h -1.113111 v -1.53892 h 1.113111 v 0.29765 h -0.718303 v 0.26562 h 0.666626 v 0.29766 h -0.666626 v 0.38033 h 0.718303 z"
         style="text-align:center;text-anchor:middle;fill:#c8beb7;fill-opacity:1;stroke-width:0.26458332"
         id="path1775"
         inkscape:connector-curvature="0" />
    </g>
  </g>
</svg>
