<?xml version="1.0" encoding="UTF-8" standalone="no"?>
<!DOCTYPE svg PUBLIC "-//W3C//DTD SVG 1.1//EN" "http://www.w3.org/Graphics/SVG/1.1/DTD/svg11.dtd">
<svg width="100%" height="100%" viewBox="0 0 270 380" version="1.1" xmlns="http://www.w3.org/2000/svg" xmlns:xlink="http://www.w3.org/1999/xlink" xml:space="preserve" xmlns:serif="http://www.serif.com/" style="fill-rule:evenodd;clip-rule:evenodd;stroke-linejoin:round;stroke-miterlimit:2;">
    <g id="Layer-2" serif:id="Layer 2">
        <g id="text989">
        </g>
        <rect id="rect4689" x="-0.689" y="0" width="270" height="380" style="fill:rgb(44,45,48);fill-rule:nonzero;"/>
        <g id="text4987">
        </g>
        <g id="text1042">
        </g>
        <rect id="rect4778-3" x="2" y="294" width="266" height="73" style="fill:rgb(158,161,168);"/>
        <g id="text2090">
        </g>
        <g id="text1439" transform="matrix(1.0155,0,0,0.984732,24,0.999995)">
            <path id="path1470" d="M174.077,284.577L174.077,285.536C173.803,285.403 173.574,285.336 173.39,285.336C173.137,285.336 172.92,285.4 172.738,285.526C172.557,285.649 172.407,285.841 172.287,286.101C172.171,286.36 172.084,286.69 172.025,287.09C171.971,287.487 171.943,287.957 171.943,288.501C171.943,290.457 172.444,291.434 173.446,291.434C173.621,291.434 173.831,291.38 174.077,291.27L174.077,292.25C173.821,292.394 173.533,292.465 173.215,292.465C171.612,292.465 170.81,291.156 170.81,288.537C170.81,287.121 171.005,286.068 171.395,285.377C171.788,284.687 172.388,284.341 173.195,284.341C173.492,284.341 173.786,284.42 174.077,284.577L174.077,284.577Z" style="fill:rgb(158,161,168);fill-rule:nonzero;"/>
            <path id="path1472" d="M174.339,284.449L175.39,284.449L175.867,287.372L175.949,287.901L176.118,289.05C176.146,289.244 176.17,289.422 176.19,289.583C176.214,289.744 176.235,289.889 176.252,290.019L176.303,290.409C176.313,290.33 176.322,290.26 176.329,290.198C176.335,290.137 176.342,290.086 176.349,290.045L176.487,289.127L176.667,287.921C176.684,287.812 176.699,287.711 176.713,287.619C176.73,287.526 176.746,287.444 176.759,287.372L177.272,284.449L178.267,284.449L176.713,292.368L175.867,292.368L174.339,284.449Z" style="fill:rgb(158,161,168);fill-rule:nonzero;"/>
        </g>
        <g id="text1575" transform="matrix(0.799637,0,0,0.926347,66.2593,-7)">
            <path id="path1577" d="M176.006,330.473L177.873,330.473C178.646,330.473 179.22,330.657 179.597,331.025C180.074,331.502 180.313,332.231 180.313,333.213C180.313,333.967 180.186,334.573 179.931,335.032C179.681,335.487 179.323,335.768 178.855,335.877L180.79,340.995L179.352,340.995L177.423,335.843L177.423,340.995L176.006,340.995L176.006,330.473ZM177.423,335.135C177.973,335.135 178.362,335.007 178.589,334.753C178.816,334.498 178.93,334.069 178.93,333.465C178.93,333.138 178.905,332.858 178.855,332.627C178.809,332.395 178.734,332.206 178.63,332.061C178.53,331.916 178.398,331.809 178.234,331.741C178.075,331.672 177.885,331.638 177.662,331.638L177.423,331.638L177.423,335.135Z" style="fill:rgb(44,45,48);fill-rule:nonzero;"/>
            <path id="path1579" d="M181.894,330.473L185.663,330.473L185.663,331.672L183.312,331.672L183.312,335.005L185.397,335.005L185.397,336.204L183.312,336.204L183.312,339.796L185.663,339.796L185.663,340.995L181.894,340.995L181.894,330.473Z" style="fill:rgb(44,45,48);fill-rule:nonzero;"/>
            <path id="path1581" d="M190.474,330.691L190.474,332.075C190.043,331.766 189.654,331.611 189.309,331.611C188.936,331.611 188.632,331.743 188.396,332.006C188.159,332.256 188.041,332.59 188.041,333.008C188.041,333.376 188.125,333.692 188.293,333.956C188.38,334.096 188.521,334.278 188.716,334.501C188.916,334.723 189.173,334.991 189.486,335.305C190.063,335.891 190.456,336.398 190.665,336.825C190.874,337.238 190.979,337.745 190.979,338.344C190.979,339.158 190.749,339.828 190.29,340.355C189.831,340.868 189.243,341.125 188.525,341.125C187.921,341.125 187.405,340.959 186.978,340.627L186.978,339.224C187.482,339.592 187.941,339.776 188.355,339.776C188.741,339.776 189.043,339.648 189.261,339.394C189.479,339.135 189.588,338.785 189.588,338.344C189.588,337.963 189.504,337.62 189.336,337.315C189.25,337.17 189.129,337.004 188.975,336.818C188.82,336.627 188.627,336.416 188.396,336.184C188.037,335.83 187.739,335.516 187.503,335.244C187.267,334.971 187.092,334.732 186.978,334.528C186.76,334.128 186.651,333.624 186.651,333.015C186.651,332.193 186.865,331.541 187.292,331.059C187.723,330.573 188.303,330.33 189.029,330.33C189.534,330.33 190.015,330.45 190.474,330.691L190.474,330.691Z" style="fill:rgb(44,45,48);fill-rule:nonzero;"/>
            <path id="path1583" d="M192.171,330.473L195.94,330.473L195.94,331.672L193.589,331.672L193.589,335.005L195.674,335.005L195.674,336.204L193.589,336.204L193.589,339.796L195.94,339.796L195.94,340.995L192.171,340.995L192.171,330.473Z" style="fill:rgb(44,45,48);fill-rule:nonzero;"/>
            <path id="path1585" d="M196.403,330.473L201.017,330.473L201.017,331.713L199.429,331.713L199.429,340.995L198.039,340.995L198.039,331.713L196.403,331.713L196.403,330.473Z" style="fill:rgb(44,45,48);fill-rule:nonzero;"/>
        </g>
        <g id="text1606" transform="matrix(0.773911,0,0,0.985629,106.62,3.55015)">
            <path id="path1739" d="M138.75,335.524L139.993,335.524L141.319,339.47C141.703,340.584 142.043,341.773 142.337,343.037C142.23,342.273 142.151,341.581 142.1,340.962C142.049,340.343 142.023,339.76 142.023,339.214L142.023,335.524L143.362,335.524L143.362,345.414L142.113,345.414L140.621,340.962C140.484,340.548 140.354,340.123 140.23,339.688C140.11,339.252 139.999,338.795 139.897,338.317C139.888,338.257 139.873,338.184 139.852,338.099C139.835,338.014 139.814,337.915 139.788,337.804C139.801,337.915 139.811,338.011 139.82,338.093C139.829,338.169 139.835,338.236 139.839,338.291L139.91,339.297L139.98,340.52C139.985,340.589 139.987,340.672 139.987,340.77C139.991,340.868 139.993,340.979 139.993,341.103L140.064,345.414L138.75,345.414L138.75,335.524Z" style="fill:rgb(44,45,48);fill-rule:nonzero;"/>
            <path id="path1741" d="M144.899,335.524L148.441,335.524L148.441,336.651L146.232,336.651L146.232,339.784L148.192,339.784L148.192,340.911L146.232,340.911L146.232,344.286L148.441,344.286L148.441,345.414L144.899,345.414L144.899,335.524Z" style="fill:rgb(44,45,48);fill-rule:nonzero;"/>
            <path id="path1743" d="M148.992,335.524L150.286,335.524L150.971,337.439C151.24,338.195 151.401,338.748 151.452,339.098C151.499,338.88 151.55,338.669 151.605,338.464C151.665,338.259 151.727,338.054 151.791,337.849L151.881,337.561L152.515,335.524L153.86,335.524L152.028,340.392L153.86,345.414L152.515,345.414L151.862,343.531C151.729,343.155 151.623,342.818 151.541,342.519C151.46,342.22 151.403,341.955 151.369,341.724C151.334,342.01 151.277,342.284 151.196,342.544L150.971,343.249L150.856,343.62L150.286,345.414L148.877,345.414L150.747,340.392L148.992,335.524Z" style="fill:rgb(44,45,48);fill-rule:nonzero;"/>
            <path id="path1745" d="M153.796,335.524L158.132,335.524L158.132,336.69L156.64,336.69L156.64,345.414L155.333,345.414L155.333,336.69L153.796,336.69L153.796,335.524Z" style="fill:rgb(44,45,48);fill-rule:nonzero;"/>
        </g>
        <g id="text1610" transform="matrix(0.764552,0,0,0.985629,35.369,3.55013)">
            <path id="path1730" d="M164.32,335.524L166.075,335.524C166.92,335.524 167.535,335.738 167.919,336.165C168.304,336.596 168.496,337.279 168.496,338.214C168.496,339.53 168.109,340.379 167.337,340.764C166.948,340.939 166.386,341.026 165.652,341.026L165.652,345.414L164.32,345.414L164.32,335.524ZM165.652,339.886C166.203,339.886 166.583,339.775 166.792,339.553C167.006,339.327 167.112,338.925 167.112,338.349C167.112,337.76 167.01,337.328 166.805,337.055C166.6,336.782 166.278,336.645 165.838,336.645L165.652,336.645L165.652,339.886Z" style="fill:rgb(44,45,48);fill-rule:nonzero;"/>
            <path id="path1732" d="M169.521,335.524L171.276,335.524C172.002,335.524 172.542,335.697 172.896,336.043C173.345,336.491 173.569,337.177 173.569,338.099C173.569,338.808 173.449,339.378 173.21,339.809C172.975,340.236 172.638,340.501 172.198,340.603L174.017,345.414L172.666,345.414L170.853,340.571L170.853,345.414L169.521,345.414L169.521,335.524ZM170.853,339.905C171.37,339.905 171.735,339.786 171.948,339.547C172.162,339.307 172.269,338.904 172.269,338.336C172.269,338.029 172.245,337.766 172.198,337.548C172.155,337.33 172.085,337.153 171.987,337.017C171.893,336.88 171.769,336.78 171.615,336.716C171.466,336.651 171.286,336.619 171.077,336.619L170.853,336.619L170.853,339.905Z" style="fill:rgb(44,45,48);fill-rule:nonzero;"/>
            <path id="path1734" d="M175.055,335.524L178.597,335.524L178.597,336.651L176.387,336.651L176.387,339.784L178.347,339.784L178.347,340.911L176.387,340.911L176.387,344.286L178.597,344.286L178.597,345.414L175.055,345.414L175.055,335.524Z" style="fill:rgb(44,45,48);fill-rule:nonzero;"/>
            <path id="path1736" d="M179.032,335.524L180.346,335.524L180.941,339.175L181.044,339.835L181.255,341.27C181.289,341.513 181.319,341.735 181.345,341.936C181.375,342.136 181.4,342.318 181.422,342.48L181.486,342.967C181.499,342.869 181.509,342.781 181.518,342.704C181.526,342.628 181.535,342.563 181.544,342.512L181.716,341.366L181.941,339.86C181.962,339.724 181.981,339.598 181.998,339.483C182.02,339.367 182.039,339.265 182.056,339.175L182.696,335.524L183.939,335.524L181.998,345.414L180.941,345.414L179.032,335.524Z" style="fill:rgb(44,45,48);fill-rule:nonzero;"/>
        </g>
        <g id="text1933" transform="matrix(0.966303,0,0,1.03487,0,20.6488)">
            <path id="path2004" d="M6.991,320.466L6.991,321.607C6.665,321.449 6.393,321.369 6.173,321.369C5.872,321.369 5.614,321.444 5.398,321.595C5.183,321.741 5.004,321.969 4.862,322.278C4.723,322.587 4.62,322.98 4.55,323.456C4.485,323.927 4.453,324.487 4.453,325.133C4.453,327.459 5.049,328.623 6.24,328.623C6.448,328.623 6.698,328.558 6.991,328.427L6.991,329.593C6.686,329.763 6.344,329.849 5.966,329.849C4.058,329.849 3.105,328.291 3.105,325.176C3.105,323.492 3.336,322.24 3.8,321.418C4.268,320.597 4.982,320.186 5.941,320.186C6.295,320.186 6.645,320.279 6.991,320.466L6.991,320.466Z" style="fill:rgb(44,45,48);fill-rule:nonzero;"/>
            <path id="path2006" d="M12.694,325.255C12.694,326.919 12.509,328.1 12.139,328.8C11.769,329.499 11.149,329.849 10.279,329.849C9.364,329.849 8.719,329.473 8.345,328.72C7.975,327.984 7.79,326.677 7.79,324.798C7.79,323.122 7.973,321.937 8.339,321.241C8.709,320.542 9.335,320.192 10.218,320.192C11.007,320.192 11.592,320.462 11.975,321.003C12.227,321.365 12.41,321.88 12.524,322.547C12.638,323.165 12.694,324.068 12.694,325.255L12.694,325.255ZM11.365,325.389C11.365,323.759 11.291,322.677 11.145,322.144C10.999,321.607 10.7,321.339 10.248,321.339C9.797,321.339 9.496,321.585 9.345,322.077C9.199,322.573 9.126,323.569 9.126,325.066C9.126,326.445 9.203,327.401 9.358,327.933C9.516,328.438 9.813,328.69 10.248,328.69C10.675,328.69 10.968,328.454 11.127,327.982C11.285,327.514 11.365,326.65 11.365,325.389L11.365,325.389Z" style="fill:rgb(44,45,48);fill-rule:nonzero;"/>
            <path id="path2008" d="M13.957,320.314L15.202,320.314L15.202,326.969C15.202,327.649 15.263,328.1 15.385,328.324C15.511,328.547 15.759,328.659 16.129,328.659C16.499,328.659 16.743,328.562 16.861,328.366C16.983,328.167 17.044,327.762 17.044,327.152L17.044,320.314L18.289,320.314L18.289,327.152C18.289,328.177 18.132,328.871 17.819,329.233C17.445,329.643 16.873,329.849 16.105,329.849C15.259,329.849 14.663,329.584 14.317,329.056C14.077,328.694 13.957,327.998 13.957,326.969L13.957,320.314Z" style="fill:rgb(44,45,48);fill-rule:nonzero;"/>
            <path id="path2010" d="M19.74,320.314L20.924,320.314L22.187,324.072C22.553,325.133 22.876,326.266 23.157,327.47C23.055,326.742 22.98,326.083 22.931,325.493C22.882,324.903 22.858,324.348 22.858,323.828L22.858,320.314L24.133,320.314L24.133,329.733L22.943,329.733L21.522,325.493C21.392,325.099 21.268,324.694 21.15,324.279C21.036,323.864 20.93,323.429 20.832,322.974C20.824,322.917 20.81,322.848 20.79,322.766C20.773,322.685 20.753,322.591 20.729,322.486C20.741,322.591 20.751,322.683 20.759,322.76C20.767,322.833 20.773,322.896 20.777,322.949L20.845,323.907L20.912,325.072C20.916,325.137 20.918,325.217 20.918,325.31C20.922,325.404 20.924,325.509 20.924,325.627L20.991,329.733L19.74,329.733L19.74,320.314Z" style="fill:rgb(44,45,48);fill-rule:nonzero;"/>
            <path id="path2012" d="M24.846,320.314L28.976,320.314L28.976,321.424L27.555,321.424L27.555,329.733L26.311,329.733L26.311,321.424L24.846,321.424L24.846,320.314Z" style="fill:rgb(44,45,48);fill-rule:nonzero;"/>
        </g>
        <g id="text1937" transform="matrix(0.830238,0,0,1.20447,0,-16)">
            <path id="path1989" d="M6.952,290.824L6.952,291.805C6.673,291.668 6.439,291.6 6.25,291.6C5.991,291.6 5.769,291.665 5.584,291.794C5.399,291.92 5.245,292.115 5.123,292.381C5.004,292.647 4.915,292.984 4.856,293.393C4.8,293.798 4.772,294.278 4.772,294.834C4.772,296.833 5.284,297.832 6.308,297.832C6.486,297.832 6.701,297.776 6.952,297.664L6.952,298.665C6.69,298.812 6.397,298.886 6.072,298.886C4.433,298.886 3.613,297.547 3.613,294.871C3.613,293.424 3.813,292.348 4.211,291.642C4.613,290.936 5.226,290.583 6.051,290.583C6.355,290.583 6.655,290.664 6.952,290.824L6.952,290.824Z" style="fill:rgb(44,45,48);fill-rule:nonzero;"/>
            <path id="path1991" d="M7.864,290.693L8.933,290.693L8.933,296.412C8.933,296.995 8.986,297.383 9.091,297.575C9.199,297.767 9.412,297.864 9.73,297.864C10.048,297.864 10.258,297.78 10.359,297.612C10.464,297.441 10.516,297.093 10.516,296.569L10.516,290.693L11.586,290.693L11.586,296.569C11.586,297.449 11.451,298.045 11.182,298.356C10.861,298.709 10.37,298.886 9.709,298.886C8.982,298.886 8.47,298.659 8.173,298.204C7.967,297.893 7.864,297.296 7.864,296.412L7.864,290.693Z" style="fill:rgb(44,45,48);fill-rule:nonzero;"/>
            <path id="path1993" d="M12.833,290.693L14.269,290.693C14.863,290.693 15.305,290.835 15.595,291.118C15.962,291.485 16.146,292.046 16.146,292.8C16.146,293.38 16.048,293.847 15.852,294.2C15.66,294.549 15.384,294.766 15.024,294.85L16.513,298.786L15.407,298.786L13.923,294.824L13.923,298.786L12.833,298.786L12.833,290.693ZM13.923,294.278C14.346,294.278 14.645,294.181 14.82,293.985C14.994,293.789 15.082,293.459 15.082,292.994C15.082,292.743 15.062,292.528 15.024,292.35C14.989,292.171 14.931,292.026 14.851,291.915C14.774,291.803 14.673,291.721 14.547,291.668C14.425,291.616 14.278,291.59 14.107,291.59L13.923,291.59L13.923,294.278Z" style="fill:rgb(44,45,48);fill-rule:nonzero;"/>
            <path id="path1995" d="M17.362,290.693L18.798,290.693C19.392,290.693 19.834,290.835 20.124,291.118C20.491,291.485 20.674,292.046 20.674,292.8C20.674,293.38 20.576,293.847 20.381,294.2C20.188,294.549 19.912,294.766 19.553,294.85L21.041,298.786L19.935,298.786L18.452,294.824L18.452,298.786L17.362,298.786L17.362,290.693ZM18.452,294.278C18.875,294.278 19.173,294.181 19.348,293.985C19.523,293.789 19.61,293.459 19.61,292.994C19.61,292.743 19.591,292.528 19.553,292.35C19.518,292.171 19.46,292.026 19.38,291.915C19.303,291.803 19.201,291.721 19.076,291.668C18.953,291.616 18.806,291.59 18.635,291.59L18.452,291.59L18.452,294.278Z" style="fill:rgb(44,45,48);fill-rule:nonzero;"/>
            <path id="path1997" d="M21.89,290.693L24.789,290.693L24.789,291.616L22.98,291.616L22.98,294.179L24.584,294.179L24.584,295.101L22.98,295.101L22.98,297.864L24.789,297.864L24.789,298.786L21.89,298.786L21.89,290.693Z" style="fill:rgb(44,45,48);fill-rule:nonzero;"/>
            <path id="path1999" d="M25.79,290.693L26.807,290.693L27.892,293.922C28.206,294.834 28.484,295.807 28.725,296.842C28.638,296.216 28.573,295.65 28.531,295.143C28.489,294.637 28.468,294.16 28.468,293.712L28.468,290.693L29.564,290.693L29.564,298.786L28.542,298.786L27.32,295.143C27.208,294.804 27.102,294.457 27.001,294.1C26.903,293.744 26.812,293.37 26.728,292.979C26.721,292.93 26.709,292.87 26.691,292.8C26.677,292.73 26.66,292.65 26.639,292.559C26.649,292.65 26.658,292.729 26.665,292.795C26.672,292.858 26.677,292.912 26.681,292.958L26.738,293.781L26.796,294.782C26.8,294.838 26.801,294.906 26.801,294.986C26.805,295.066 26.807,295.157 26.807,295.259L26.864,298.786L25.79,298.786L25.79,290.693Z" style="fill:rgb(44,45,48);fill-rule:nonzero;"/>
            <path id="path2001" d="M30.177,290.693L33.725,290.693L33.725,291.647L32.504,291.647L32.504,298.786L31.435,298.786L31.435,291.647L30.177,291.647L30.177,290.693Z" style="fill:rgb(44,45,48);fill-rule:nonzero;"/>
        </g>
        <g id="text2017" transform="matrix(0.779843,0,0,1.06859,59,-3.99999)">
            <path id="path2033" d="M160.289,333.385L161.801,333.385C162.262,333.385 162.65,333.436 162.965,333.539C163.256,333.637 163.516,333.812 163.745,334.065C164.088,334.443 164.332,334.935 164.477,335.542C164.623,336.128 164.696,336.969 164.696,338.064C164.696,339.069 164.615,339.888 164.454,340.522C164.296,341.128 164.036,341.591 163.674,341.91C163.229,342.308 162.431,342.507 161.281,342.507L160.289,342.507L160.289,333.385ZM161.518,341.432C162.266,341.432 162.766,341.205 163.018,340.752C163.278,340.299 163.408,339.419 163.408,338.111C163.408,336.705 163.284,335.738 163.036,335.211C162.788,334.683 162.333,334.419 161.671,334.419L161.518,334.419L161.518,341.432Z" style="fill:rgb(44,45,48);fill-rule:nonzero;"/>
            <path id="path2036" d="M165.913,333.385L169.18,333.385L169.18,334.425L167.142,334.425L167.142,337.314L168.95,337.314L168.95,338.354L167.142,338.354L167.142,341.467L169.18,341.467L169.18,342.507L165.913,342.507L165.913,333.385Z" style="fill:rgb(44,45,48);fill-rule:nonzero;"/>
            <path id="path2038" d="M170.309,333.385L171.537,333.385L171.537,341.467L173.546,341.467L173.546,342.507L170.309,342.507L170.309,333.385Z" style="fill:rgb(44,45,48);fill-rule:nonzero;"/>
            <path id="path2040" d="M174.326,333.385L177.593,333.385L177.593,334.425L175.555,334.425L175.555,337.314L177.363,337.314L177.363,338.354L175.555,338.354L175.555,341.467L177.593,341.467L177.593,342.507L174.326,342.507L174.326,333.385Z" style="fill:rgb(44,45,48);fill-rule:nonzero;"/>
            <path id="path2042" d="M177.995,333.385L181.994,333.385L181.994,334.46L180.618,334.46L180.618,342.507L179.413,342.507L179.413,334.46L177.995,334.46L177.995,333.385Z" style="fill:rgb(44,45,48);fill-rule:nonzero;"/>
            <path id="path2044" d="M182.668,333.385L185.935,333.385L185.935,334.425L183.897,334.425L183.897,337.314L185.705,337.314L185.705,338.354L183.897,338.354L183.897,341.467L185.935,341.467L185.935,342.507L182.668,342.507L182.668,333.385Z" style="fill:rgb(44,45,48);fill-rule:nonzero;"/>
        </g>
        <g id="text2021" transform="matrix(0.989132,0,0,1.01099,0,-22)">
            <path id="path2023" d="M70.769,352.262L72.068,352.262L72.068,360.805L74.191,360.805L74.191,361.904L70.769,361.904L70.769,352.262Z" style="fill:rgb(44,45,48);fill-rule:nonzero;"/>
            <path id="path2025" d="M79.842,357.32C79.842,359.023 79.653,360.232 79.274,360.948C78.895,361.664 78.26,362.022 77.37,362.022C76.433,362.022 75.773,361.637 75.39,360.867C75.011,360.113 74.822,358.775 74.822,356.852C74.822,355.137 75.009,353.923 75.384,353.211C75.763,352.495 76.404,352.137 77.307,352.137C78.115,352.137 78.714,352.414 79.106,352.968C79.364,353.338 79.551,353.865 79.668,354.548C79.784,355.18 79.842,356.105 79.842,357.32L79.842,357.32ZM78.481,357.457C78.481,355.788 78.406,354.681 78.256,354.135C78.106,353.586 77.8,353.311 77.338,353.311C76.876,353.311 76.568,353.563 76.414,354.067C76.264,354.575 76.189,355.595 76.189,357.127C76.189,358.538 76.268,359.516 76.427,360.061C76.589,360.578 76.893,360.836 77.338,360.836C77.775,360.836 78.075,360.594 78.238,360.111C78.4,359.633 78.481,358.748 78.481,357.457L78.481,357.457Z" style="fill:rgb(44,45,48);fill-rule:nonzero;"/>
            <path id="path2027" d="M82.484,352.262L83.495,352.262L85.562,361.904L84.276,361.904L83.914,360.024L82.003,360.024L81.635,361.904L80.386,361.904L82.484,352.262ZM83.727,359.019L83.439,357.482C83.248,356.438 83.092,355.322 82.971,354.135C82.913,354.714 82.838,355.301 82.746,355.896C82.655,356.488 82.546,357.116 82.421,357.782L82.184,359.019L83.727,359.019Z" style="fill:rgb(44,45,48);fill-rule:nonzero;"/>
            <path id="path2029" d="M86.33,352.262L87.929,352.262C88.416,352.262 88.826,352.316 89.159,352.424C89.467,352.529 89.742,352.714 89.984,352.98C90.346,353.38 90.604,353.9 90.758,354.541C90.912,355.162 90.989,356.05 90.989,357.208C90.989,358.269 90.904,359.135 90.733,359.805C90.566,360.447 90.292,360.936 89.909,361.273C89.438,361.693 88.595,361.904 87.38,361.904L86.33,361.904L86.33,352.262ZM87.629,360.767C88.42,360.767 88.949,360.528 89.215,360.049C89.49,359.57 89.628,358.64 89.628,357.258C89.628,355.771 89.496,354.749 89.234,354.192C88.972,353.634 88.491,353.355 87.792,353.355L87.629,353.355L87.629,360.767Z" style="fill:rgb(44,45,48);fill-rule:nonzero;"/>
        </g>
        <g id="text2140" transform="matrix(0.881068,0,0,1.13499,40,-5)">
            <path id="path2142" d="M82.57,298.977L82.57,300.106C82.217,299.854 81.9,299.728 81.618,299.728C81.314,299.728 81.066,299.835 80.873,300.05C80.68,300.254 80.584,300.527 80.584,300.868C80.584,301.168 80.652,301.426 80.79,301.641C80.86,301.756 80.975,301.904 81.134,302.086C81.298,302.268 81.507,302.487 81.763,302.742C82.234,303.221 82.555,303.634 82.725,303.983C82.896,304.32 82.981,304.734 82.981,305.223C82.981,305.887 82.794,306.434 82.419,306.864C82.045,307.283 81.565,307.493 80.979,307.493C80.485,307.493 80.065,307.357 79.716,307.087L79.716,305.941C80.128,306.241 80.502,306.391 80.84,306.391C81.155,306.391 81.401,306.287 81.579,306.08C81.757,305.868 81.846,305.583 81.846,305.223C81.846,304.912 81.778,304.632 81.641,304.383C81.57,304.265 81.472,304.129 81.346,303.977C81.22,303.822 81.062,303.649 80.873,303.46C80.58,303.171 80.337,302.915 80.144,302.692C79.951,302.47 79.809,302.275 79.716,302.108C79.538,301.782 79.449,301.37 79.449,300.874C79.449,300.202 79.623,299.67 79.972,299.277C80.324,298.88 80.797,298.682 81.39,298.682C81.802,298.682 82.195,298.78 82.569,298.977L82.57,298.977Z" style="fill:rgb(44,45,48);fill-rule:nonzero;"/>
            <path id="path2144" d="M83.955,298.799L87.03,298.799L87.03,299.778L85.111,299.778L85.111,302.498L86.814,302.498L86.814,303.477L85.111,303.477L85.111,306.408L87.03,306.408L87.03,307.387L83.955,307.387L83.955,298.799Z" style="fill:rgb(44,45,48);fill-rule:nonzero;"/>
            <path id="path2146" d="M88.093,298.799L89.25,298.799L89.25,306.408L91.141,306.408L91.141,307.387L88.093,307.387L88.093,298.799Z" style="fill:rgb(44,45,48);fill-rule:nonzero;"/>
            <path id="path2148" d="M97.604,298.938L97.604,299.978C97.308,299.833 97.059,299.761 96.859,299.761C96.585,299.761 96.349,299.83 96.153,299.967C95.956,300.1 95.793,300.308 95.663,300.59C95.537,300.872 95.442,301.229 95.379,301.663C95.32,302.093 95.29,302.603 95.29,303.193C95.29,305.314 95.834,306.375 96.92,306.375C97.109,306.375 97.337,306.315 97.604,306.197L97.604,307.259C97.326,307.415 97.015,307.493 96.67,307.493C94.931,307.493 94.061,306.072 94.061,303.232C94.061,301.697 94.273,300.555 94.695,299.806C95.122,299.056 95.773,298.682 96.648,298.682C96.97,298.682 97.289,298.767 97.604,298.938L97.604,298.938Z" style="fill:rgb(44,45,48);fill-rule:nonzero;"/>
            <path id="path2150" d="M97.888,298.799L99.028,298.799L99.546,301.969L99.635,302.542L99.818,303.788C99.848,304 99.874,304.192 99.896,304.367C99.922,304.541 99.944,304.699 99.963,304.839L100.018,305.262C100.03,305.177 100.039,305.101 100.046,305.034C100.054,304.967 100.061,304.912 100.069,304.867L100.219,303.872L100.414,302.564C100.432,302.446 100.449,302.336 100.464,302.236C100.482,302.136 100.499,302.047 100.514,301.969L101.07,298.799L102.149,298.799L100.464,307.387L99.546,307.387L97.888,298.799Z" style="fill:rgb(44,45,48);fill-rule:nonzero;"/>
        </g>
        <g id="text2302" transform="matrix(0.946892,0,0,1.05609,-50,-4)">
            <path id="path2304" d="M128.739,337.333L129.707,337.333L131.686,346.562L130.455,346.562L130.108,344.763L128.279,344.763L127.926,346.562L126.73,346.562L128.739,337.333ZM129.929,343.801L129.654,342.33C129.47,341.33 129.321,340.262 129.205,339.126C129.149,339.68 129.078,340.242 128.99,340.812C128.902,341.378 128.799,341.979 128.679,342.617L128.452,343.801L129.929,343.801Z" style="fill:rgb(44,45,48);fill-rule:nonzero;"/>
            <path id="path2306" d="M132.421,337.333L133.952,337.333C134.418,337.333 134.811,337.384 135.129,337.488C135.424,337.588 135.687,337.765 135.918,338.02C136.265,338.403 136.512,338.901 136.66,339.514C136.807,340.108 136.881,340.959 136.881,342.067C136.881,343.083 136.799,343.912 136.636,344.554C136.476,345.167 136.213,345.636 135.847,345.959C135.396,346.361 134.589,346.562 133.426,346.562L132.421,346.562L132.421,337.333ZM133.665,345.474C134.422,345.474 134.928,345.245 135.183,344.787C135.446,344.329 135.578,343.438 135.578,342.115C135.578,340.692 135.452,339.714 135.201,339.18C134.95,338.646 134.49,338.379 133.82,338.379L133.665,338.379L133.665,345.474Z" style="fill:rgb(44,45,48);fill-rule:nonzero;"/>
            <path id="path2308" d="M138.112,337.333L139.643,337.333C140.109,337.333 140.501,337.384 140.82,337.488C141.115,337.588 141.378,337.765 141.609,338.02C141.956,338.403 142.203,338.901 142.351,339.514C142.498,340.108 142.572,340.959 142.572,342.067C142.572,343.083 142.49,343.912 142.327,344.554C142.167,345.167 141.904,345.636 141.538,345.959C141.087,346.361 140.28,346.562 139.117,346.562L138.112,346.562L138.112,337.333ZM139.356,345.474C140.113,345.474 140.619,345.245 140.874,344.787C141.137,344.329 141.269,343.438 141.269,342.115C141.269,340.692 141.143,339.714 140.892,339.18C140.641,338.646 140.181,338.379 139.511,338.379L139.356,338.379L139.356,345.474Z" style="fill:rgb(44,45,48);fill-rule:nonzero;"/>
        </g>
        <g id="text1315">
            <path id="path1554" d="M114.292,17.789L111.042,17.789L111.042,15.344L106.659,15.344L106.659,12.797L110.299,5.727L114.292,5.727L114.292,12.75L115.323,12.75L115.323,15.344L114.292,15.344L114.292,17.789ZM111.19,12.75L111.19,10.492C111.19,10.388 111.195,10.221 111.206,9.992C111.221,9.763 111.242,9.469 111.268,9.109L110.784,10.141C110.544,10.646 110.305,11.117 110.065,11.555C109.825,11.987 109.586,12.385 109.346,12.75L111.19,12.75Z" style="fill:rgb(158,161,168);fill-rule:nonzero;"/>
            <path id="path1556" d="M124.714,17.789L121.456,17.789L121.456,12.937L119.901,12.937L119.901,17.789L116.643,17.789L116.643,5.727L119.901,5.727L119.901,9.992L121.456,9.992L121.456,5.727L124.714,5.727L124.714,17.789Z" style="fill:rgb(158,161,168);fill-rule:nonzero;"/>
            <path id="path1558" d="M135.081,17.789L131.714,17.789L131.471,16.258L129.276,16.258L129.01,17.789L125.643,17.789L128.542,5.727L132.526,5.727L135.081,17.789ZM131.089,13.672L130.878,12.266C130.872,12.26 130.862,12.19 130.846,12.055C130.836,11.94 130.781,11.487 130.682,10.695C130.672,10.607 130.659,10.487 130.643,10.336C130.627,10.18 130.607,9.984 130.581,9.75L130.479,8.609C130.469,8.719 130.453,8.841 130.432,8.977C130.417,9.112 130.398,9.26 130.377,9.422C130.341,9.745 130.315,9.969 130.299,10.094C130.284,10.219 130.273,10.294 130.268,10.32L130.041,11.781L129.713,13.672L131.089,13.672Z" style="fill:rgb(158,161,168);fill-rule:nonzero;"/>
            <path id="path1561" d="M136.018,17.789L136.018,5.727L139.128,5.727L140.76,9.961C140.849,10.211 140.948,10.497 141.057,10.82C141.172,11.143 141.297,11.516 141.432,11.937L141.768,13C141.648,11.953 141.557,11.057 141.495,10.312C141.432,9.568 141.401,8.943 141.401,8.437L141.401,5.727L144.51,5.727L144.51,17.789L141.401,17.789L139.76,13.352C139.589,12.878 139.432,12.435 139.292,12.023C139.156,11.607 139.036,11.211 138.932,10.836C139,11.685 139.049,12.424 139.081,13.055C139.112,13.685 139.128,14.237 139.128,14.711L139.128,17.789L136.018,17.789Z" style="fill:rgb(158,161,168);fill-rule:nonzero;"/>
            <path id="path1563" d="M146.206,17.789L146.206,5.727L149.018,5.727C150.628,5.727 151.88,6.159 152.776,7.023C153.953,8.154 154.542,9.734 154.542,11.766C154.542,13.766 154.044,15.31 153.049,16.398C152.201,17.326 150.935,17.789 149.253,17.789L146.206,17.789ZM149.464,14.875C150.63,14.818 151.214,13.812 151.214,11.859C151.214,10.896 151.065,10.135 150.768,9.578C150.471,9.016 150.07,8.734 149.565,8.734L149.464,8.734L149.464,14.875Z" style="fill:rgb(158,161,168);fill-rule:nonzero;"/>
            <path id="path1565" d="M155.667,17.492L155.667,13.703C156.307,14.578 157,15.016 157.745,15.016C158.026,15.016 158.255,14.943 158.432,14.797C158.609,14.646 158.698,14.458 158.698,14.234C158.698,13.911 158.505,13.596 158.12,13.289L157.589,12.875C157.234,12.609 156.932,12.346 156.682,12.086C156.432,11.82 156.229,11.549 156.073,11.273C155.917,10.992 155.802,10.703 155.729,10.406C155.656,10.109 155.62,9.797 155.62,9.469C155.62,8.906 155.75,8.318 156.01,7.703C156.141,7.417 156.292,7.156 156.464,6.922C156.635,6.682 156.833,6.471 157.057,6.289C157.672,5.768 158.414,5.508 159.284,5.508C160.06,5.508 160.841,5.714 161.628,6.125L161.628,9.812C161.362,9.401 161.06,9.078 160.721,8.844C160.383,8.604 160.049,8.484 159.721,8.484C159.471,8.484 159.266,8.557 159.104,8.703C158.937,8.844 158.854,9.013 158.854,9.211C158.854,9.534 159.075,9.854 159.518,10.172L160.034,10.555C160.721,11.049 161.214,11.557 161.51,12.078C161.812,12.599 161.964,13.208 161.964,13.906C161.964,15.094 161.602,16.073 160.878,16.844C160.154,17.615 159.237,18 158.128,18C157.362,18 156.542,17.831 155.667,17.492L155.667,17.492Z" style="fill:rgb(158,161,168);fill-rule:nonzero;"/>
        </g>
        <g id="g1410" transform="matrix(0.754051,0,0,1,-93.6901,-10)">
            <g id="path1448" transform="matrix(1,0,0,1,-3.59334,2)">
                <path d="M136.936,51.937L139.686,51.937L139.686,64L138.132,64L138.132,53.32L136.936,53.32L136.936,51.937Z" style="fill:rgb(158,161,168);fill-rule:nonzero;"/>
            </g>
            <g id="path1451" transform="matrix(1,0,0,1,-3.59334,-4.99999)">
                <path d="M137.358,86.859L135.764,86.859L135.749,86.383C135.749,85.065 135.947,84.138 136.343,83.602C136.744,83.06 137.415,82.789 138.358,82.789C140.134,82.789 141.022,83.773 141.022,85.742C141.022,87.07 140.358,88.984 139.03,91.484L138.069,93.289C138.064,93.299 138.048,93.331 138.022,93.383C137.996,93.435 137.96,93.51 137.913,93.609L140.897,93.609L140.897,95L135.6,95C135.689,94.802 135.874,94.409 136.155,93.82C136.436,93.232 136.819,92.438 137.303,91.438C137.715,90.563 138.059,89.82 138.335,89.211C138.611,88.602 138.819,88.102 138.96,87.711C139.241,86.93 139.382,86.255 139.382,85.687C139.382,84.687 139.035,84.187 138.342,84.187C137.676,84.187 137.342,84.807 137.342,86.047L137.35,86.734L137.358,86.859Z" style="fill:rgb(158,161,168);fill-rule:nonzero;"/>
            </g>
            <g id="path1454" transform="matrix(1,0,0,1,-3.59334,-12)">
                <path d="M137.421,117.031L135.874,117.031L135.874,116.711C135.874,116.174 135.918,115.714 136.007,115.328C136.1,114.943 136.244,114.625 136.436,114.375C136.634,114.125 136.884,113.943 137.186,113.828C137.488,113.708 137.85,113.648 138.272,113.648C139.158,113.648 139.803,113.898 140.21,114.398C140.616,114.898 140.819,115.693 140.819,116.781C140.819,117.677 140.725,118.323 140.538,118.719C140.355,119.12 140.004,119.424 139.483,119.633C140.046,119.826 140.434,120.125 140.647,120.531C140.861,120.932 140.967,121.576 140.967,122.461C140.967,123.674 140.738,124.568 140.28,125.141C139.822,125.714 139.108,126 138.139,126C136.483,126 135.655,125.049 135.655,123.148L135.655,123.023L135.655,122.938C135.655,122.88 135.658,122.844 135.663,122.828L137.186,122.828C137.181,122.917 137.176,122.995 137.171,123.062L137.171,123.219C137.171,123.63 137.259,123.958 137.436,124.203C137.619,124.448 137.866,124.57 138.179,124.57C138.382,124.57 138.554,124.531 138.694,124.453C138.84,124.37 138.957,124.24 139.046,124.062C139.14,123.88 139.207,123.646 139.249,123.359C139.291,123.073 139.311,122.727 139.311,122.32C139.311,121.586 139.2,121.057 138.976,120.734C138.757,120.411 138.39,120.25 137.874,120.25C137.817,120.25 137.754,120.255 137.686,120.265C137.619,120.271 137.541,120.279 137.452,120.289L137.452,118.883L137.679,118.883C138.309,118.883 138.736,118.747 138.96,118.476C139.184,118.206 139.296,117.693 139.296,116.937C139.296,115.687 138.981,115.062 138.351,115.062C137.726,115.062 137.413,115.596 137.413,116.664L137.421,117.031Z" style="fill:rgb(158,161,168);fill-rule:nonzero;"/>
            </g>
            <g id="path1457" transform="matrix(1,0,0,1,-3.59334,-47)">
                <path d="M139.495,274.312C140.036,274.51 140.409,274.826 140.612,275.258C140.815,275.69 140.917,276.391 140.917,277.359C140.917,278.609 140.706,279.529 140.284,280.117C139.867,280.706 139.211,281 138.315,281C137.414,281 136.753,280.706 136.331,280.117C135.914,279.529 135.706,278.609 135.706,277.359C135.706,276.391 135.807,275.69 136.01,275.258C136.214,274.826 136.586,274.51 137.128,274.312C136.648,274.104 136.31,273.797 136.112,273.391C135.914,272.953 135.815,272.362 135.815,271.617C135.815,271.102 135.862,270.656 135.956,270.281C136.055,269.906 136.206,269.599 136.409,269.359C136.612,269.115 136.87,268.935 137.182,268.82C137.5,268.706 137.878,268.648 138.315,268.648C138.753,268.648 139.128,268.706 139.44,268.82C139.753,268.935 140.01,269.115 140.214,269.359C140.417,269.599 140.565,269.906 140.659,270.281C140.758,270.656 140.807,271.102 140.807,271.617C140.807,272.362 140.708,272.953 140.51,273.391C140.312,273.797 139.974,274.104 139.495,274.312L139.495,274.312ZM139.206,271.75C139.206,270.615 138.906,270.047 138.307,270.047C137.714,270.047 137.417,270.609 137.417,271.734C137.417,272.984 137.716,273.609 138.315,273.609C138.909,273.609 139.206,272.99 139.206,271.75ZM139.315,277.547C139.315,277.125 139.297,276.766 139.26,276.469C139.224,276.167 139.164,275.922 139.081,275.734C138.997,275.547 138.891,275.409 138.76,275.32C138.635,275.232 138.484,275.187 138.307,275.187C137.958,275.187 137.703,275.367 137.542,275.727C137.385,276.086 137.307,276.667 137.307,277.469C137.307,278.87 137.643,279.57 138.315,279.57C138.982,279.57 139.315,278.896 139.315,277.547L139.315,277.547Z" style="fill:rgb(158,161,168);fill-rule:nonzero;"/>
            </g>
            <g id="path1460" transform="matrix(1,0,0,1,-3.59334,-40)">
                <path d="M135.616,237.938L141.007,237.938L137.35,250L135.616,250L138.967,239.312L135.616,239.312L135.616,237.938Z" style="fill:rgb(158,161,168);fill-rule:nonzero;"/>
            </g>
            <g id="path1463" transform="matrix(1,0,0,1,-3.59334,-33)">
                <path d="M138.163,206.797L139.889,206.797L138.757,209.117C138.559,209.539 138.358,209.987 138.155,210.461C137.957,210.935 137.749,211.44 137.53,211.977C137.983,211.617 138.418,211.437 138.835,211.437C139.507,211.437 140.025,211.729 140.389,212.312C140.733,212.859 140.905,213.839 140.905,215.25C140.905,216.583 140.704,217.544 140.303,218.133C139.902,218.711 139.249,219 138.342,219C137.415,219 136.746,218.68 136.335,218.039C135.923,217.393 135.717,216.341 135.717,214.883C135.717,213.659 135.879,212.492 136.202,211.383C136.368,210.831 136.613,210.18 136.936,209.43C137.264,208.68 137.673,207.802 138.163,206.797ZM139.35,215.242C139.35,214.826 139.332,214.471 139.296,214.18C139.259,213.883 139.199,213.643 139.116,213.461C139.033,213.273 138.926,213.138 138.796,213.055C138.671,212.966 138.517,212.922 138.335,212.922C138.152,212.922 137.996,212.966 137.866,213.055C137.741,213.138 137.637,213.271 137.553,213.453C137.47,213.635 137.41,213.875 137.374,214.172C137.337,214.464 137.319,214.815 137.319,215.227C137.319,216.805 137.658,217.594 138.335,217.594C139.012,217.594 139.35,216.81 139.35,215.242L139.35,215.242Z" style="fill:rgb(158,161,168);fill-rule:nonzero;"/>
            </g>
            <g id="path1466" transform="matrix(1,0,0,1,-3.59334,-26)">
                <path d="M136.944,175.797L140.78,175.797L140.78,177.195L138.178,177.195L137.788,180.227L137.983,180.227C138.457,180.227 138.876,180.302 139.241,180.453C139.611,180.604 139.921,180.825 140.171,181.117C140.421,181.409 140.611,181.768 140.741,182.195C140.871,182.622 140.936,183.109 140.936,183.656C140.936,185.01 140.642,186.075 140.053,186.852C139.465,187.617 138.647,188 137.6,188C137.012,188 136.374,187.833 135.686,187.5L136.092,186.062C136.65,186.354 137.116,186.5 137.491,186.5C138.022,186.5 138.444,186.26 138.757,185.781C139.069,185.297 139.225,184.646 139.225,183.828C139.225,182.281 138.561,181.508 137.233,181.508C136.905,181.508 136.574,181.557 136.241,181.656L136.944,175.797Z" style="fill:rgb(158,161,168);fill-rule:nonzero;"/>
            </g>
            <g id="path1469" transform="matrix(1,0,0,1,-3.59334,-19)">
                <path d="M138.823,144.937L140.331,144.937L140.331,152.453L141.104,152.453L141.104,153.695L140.331,153.695L140.331,157L138.823,157L138.823,153.695L135.518,153.695L135.518,152.313L138.823,144.937ZM138.823,152.453L138.823,147.391L136.792,152.453L138.823,152.453Z" style="fill:rgb(158,161,168);fill-rule:nonzero;"/>
            </g>
            <path id="path1380" d="M134.823,258L133.089,258L134.253,255.656C134.461,255.229 134.667,254.792 134.87,254.344C135.079,253.891 135.282,253.419 135.48,252.93C135.079,253.253 134.664,253.414 134.237,253.414C133.524,253.414 132.998,253.128 132.659,252.555C132.321,251.977 132.151,251.081 132.151,249.867C132.151,248.409 132.349,247.365 132.745,246.734C133.141,246.104 133.8,245.789 134.722,245.789C135.654,245.789 136.321,246.107 136.722,246.742C137.123,247.378 137.323,248.435 137.323,249.914C137.323,251.008 137.198,252.018 136.948,252.945C136.829,253.404 136.657,253.917 136.433,254.484C136.209,255.047 135.93,255.68 135.597,256.383L134.964,257.703L134.823,258ZM135.737,249.656C135.737,248.068 135.396,247.273 134.714,247.273C134.037,247.273 133.698,248.057 133.698,249.625C133.698,250.448 133.776,251.044 133.933,251.414C134.094,251.784 134.355,251.969 134.714,251.969C135.073,251.969 135.334,251.786 135.495,251.422C135.657,251.052 135.737,250.464 135.737,249.656Z" style="fill:rgb(158,161,168);fill-rule:nonzero;"/>
            <g id="text1376">
                <path id="path1384" d="M126.901,269.797L129.651,269.797L129.651,281.859L128.097,281.859L128.097,271.18L126.901,271.18L126.901,269.797Z" style="fill:rgb(158,161,168);fill-rule:nonzero;"/>
                <path id="path1386" d="M137.323,275.922C137.323,278.089 137.115,279.651 136.698,280.609C136.287,281.536 135.586,282 134.597,282C133.607,282 132.904,281.534 132.487,280.602C132.076,279.695 131.87,278.104 131.87,275.828C131.87,273.552 132.076,271.961 132.487,271.055C132.899,270.117 133.599,269.648 134.589,269.648C135.506,269.648 136.183,270.06 136.62,270.883C137.089,271.753 137.323,273.432 137.323,275.922ZM135.667,275.922C135.667,274.099 135.589,272.839 135.433,272.141C135.276,271.448 134.993,271.102 134.581,271.102C134.17,271.102 133.883,271.445 133.722,272.133C133.566,272.82 133.487,274.057 133.487,275.844C133.487,277.63 133.566,278.87 133.722,279.562C133.883,280.25 134.17,280.594 134.581,280.594C134.987,280.594 135.269,280.253 135.425,279.57C135.586,278.919 135.667,277.703 135.667,275.922L135.667,275.922Z" style="fill:rgb(158,161,168);fill-rule:nonzero;"/>
            </g>
        </g>
        <g id="path1550" transform="matrix(1,0,0,1,0,-12)">
            <path d="M56.648,19.938L57.914,19.938L60.5,32L58.891,32L58.437,29.648L56.047,29.648L55.586,32L54.023,32L56.648,19.938ZM58.203,28.391L57.844,26.469C57.604,25.161 57.409,23.766 57.258,22.281C57.185,23.005 57.091,23.74 56.977,24.484C56.862,25.224 56.727,26.01 56.57,26.844L56.273,28.391L58.203,28.391Z" style="fill:rgb(158,161,168);fill-rule:nonzero;"/>
        </g>
        <g id="path1546" transform="matrix(1,0,0,1,0,-12)">
            <path d="M200.93,19.938L203.133,19.938C204.857,19.938 205.719,21.008 205.719,23.148C205.719,23.966 205.607,24.573 205.383,24.969C205.159,25.365 204.763,25.664 204.195,25.867C204.846,26.128 205.292,26.461 205.531,26.867C205.776,27.268 205.898,27.872 205.898,28.68C205.898,30.893 204.951,32 203.055,32L200.93,32L200.93,19.938ZM202.461,25.25C203.091,25.25 203.529,25.104 203.773,24.813C204.018,24.505 204.141,23.966 204.141,23.195C204.141,21.893 203.672,21.242 202.734,21.242L202.609,21.242L202.539,21.242C202.497,21.242 202.471,21.245 202.461,21.25L202.461,25.25ZM202.461,30.609C203.128,30.609 203.589,30.466 203.844,30.18C204.099,29.893 204.227,29.375 204.227,28.625C204.227,27.854 204.094,27.315 203.828,27.008C203.568,26.695 203.112,26.539 202.461,26.539L202.461,30.609Z" style="fill:rgb(158,161,168);fill-rule:nonzero;"/>
        </g>
        <g id="text1327" transform="matrix(1,0,0,1,-8,-12)">
            <rect id="path1518" x="24" y="37.937" width="1.625" height="12.063" style="fill:rgb(158,161,168);fill-rule:nonzero;"/>
            <path id="path1520" d="M27.5,37.937L29.016,37.937L30.633,42.75C31.102,44.109 31.516,45.56 31.875,47.102C31.745,46.169 31.648,45.326 31.586,44.57C31.523,43.815 31.492,43.104 31.492,42.437L31.492,37.937L33.125,37.937L33.125,50L31.602,50L29.781,44.57C29.615,44.065 29.456,43.547 29.305,43.016C29.159,42.484 29.023,41.927 28.898,41.344C28.888,41.271 28.87,41.182 28.844,41.078C28.823,40.974 28.797,40.854 28.766,40.719C28.781,40.854 28.794,40.971 28.805,41.07C28.815,41.164 28.823,41.245 28.828,41.313L28.914,42.539L29,44.031C29.005,44.115 29.008,44.216 29.008,44.336C29.013,44.456 29.016,44.591 29.016,44.742L29.102,50L27.5,50L27.5,37.937Z" style="fill:rgb(158,161,168);fill-rule:nonzero;"/>
        </g>
        <g id="text1331" transform="matrix(0.903508,0,0,1.1068,4,-12)">
            <path id="path1523" d="M44.272,34.143L45.719,34.143L46.375,38.166L46.488,38.893L46.721,40.474C46.759,40.743 46.792,40.987 46.82,41.208C46.853,41.43 46.881,41.63 46.905,41.808L46.975,42.345C46.989,42.237 47.001,42.14 47.011,42.055C47.02,41.971 47.029,41.9 47.039,41.844L47.229,40.58L47.477,38.921C47.5,38.771 47.521,38.632 47.54,38.505C47.564,38.378 47.585,38.265 47.604,38.166L48.309,34.143L49.679,34.143L47.54,45.041L46.375,45.041L44.272,34.143Z" style="fill:rgb(158,161,168);fill-rule:nonzero;"/>
            <path id="path1525" d="M55.961,39.86C55.961,41.785 55.747,43.152 55.319,43.961C54.89,44.771 54.173,45.175 53.166,45.175C52.107,45.175 51.361,44.74 50.928,43.87C50.5,43.018 50.286,41.505 50.286,39.331C50.286,37.392 50.498,36.02 50.921,35.216C51.349,34.406 52.074,34.002 53.095,34.002C54.008,34.002 54.686,34.314 55.128,34.94C55.42,35.359 55.632,35.954 55.763,36.726C55.895,37.441 55.961,38.486 55.961,39.86L55.961,39.86ZM54.422,40.016C54.422,38.129 54.338,36.877 54.168,36.26C53.999,35.639 53.653,35.329 53.131,35.329C52.608,35.329 52.26,35.613 52.086,36.183C51.916,36.757 51.832,37.91 51.832,39.641C51.832,41.237 51.921,42.343 52.1,42.959C52.284,43.542 52.627,43.834 53.131,43.834C53.625,43.834 53.963,43.561 54.147,43.015C54.331,42.474 54.422,41.474 54.422,40.016L54.422,40.016Z" style="fill:rgb(158,161,168);fill-rule:nonzero;"/>
            <path id="path1527" d="M57.422,34.143L58.89,34.143L58.89,43.799L61.29,43.799L61.29,45.041L57.422,45.041L57.422,34.143Z" style="fill:rgb(158,161,168);fill-rule:nonzero;"/>
            <path id="path1529" d="M61.1,34.143L65.878,34.143L65.878,35.427L64.234,35.427L64.234,45.041L62.794,45.041L62.794,35.427L61.1,35.427L61.1,34.143Z" style="fill:rgb(158,161,168);fill-rule:nonzero;"/>
            <path id="path1531" d="M68.038,34.143L69.182,34.143L71.518,45.041L70.064,45.041L69.655,42.917L67.495,42.917L67.078,45.041L65.667,45.041L68.038,34.143ZM69.443,41.78L69.118,40.044C68.902,38.863 68.725,37.601 68.589,36.26C68.523,36.914 68.438,37.578 68.335,38.251C68.231,38.919 68.109,39.63 67.968,40.383L67.7,41.78L69.443,41.78Z" style="fill:rgb(158,161,168);fill-rule:nonzero;"/>
            <path id="path1533" d="M74.97,39.31L77.638,39.31L77.638,39.733C77.638,41.855 77.452,43.288 77.081,44.032C76.713,44.794 76.026,45.175 75.019,45.175C73.979,45.175 73.238,44.752 72.796,43.905C72.358,43.058 72.139,41.634 72.139,39.634C72.139,37.347 72.379,35.825 72.859,35.067C73.311,34.357 74.005,34.002 74.942,34.002C75.657,34.002 76.215,34.173 76.615,34.517C77.019,34.865 77.335,35.437 77.561,36.232L76.191,36.804C76.13,36.517 76.062,36.277 75.986,36.084C75.911,35.886 75.829,35.733 75.739,35.625C75.561,35.404 75.292,35.293 74.935,35.293C74.445,35.293 74.111,35.594 73.932,36.197C73.754,36.827 73.664,37.959 73.664,39.592C73.664,41.244 73.756,42.361 73.939,42.945C74.123,43.528 74.469,43.82 74.977,43.82C75.443,43.82 75.77,43.613 75.958,43.199C76.151,42.757 76.248,42.046 76.248,41.067L76.248,40.771L76.248,40.552L74.97,40.552L74.97,39.31Z" style="fill:rgb(158,161,168);fill-rule:nonzero;"/>
            <path id="path1535" d="M79.106,34.143L83.01,34.143L83.01,35.385L80.575,35.385L80.575,38.837L82.735,38.837L82.735,40.079L80.575,40.079L80.575,43.799L83.01,43.799L83.01,45.041L79.106,45.041L79.106,34.143Z" style="fill:rgb(158,161,168);fill-rule:nonzero;"/>
        </g>
        <g id="text1335" transform="matrix(1,0,0,1,10,-12)">
            <path id="path1538" d="M91.281,44.117C91.281,46.247 91.044,47.76 90.57,48.656C90.096,49.552 89.302,50 88.188,50C87.016,50 86.19,49.518 85.711,48.555C85.237,47.612 85,45.937 85,43.531C85,41.385 85.234,39.867 85.703,38.977C86.177,38.081 86.979,37.633 88.109,37.633C89.12,37.633 89.87,37.979 90.359,38.672C90.682,39.135 90.917,39.794 91.063,40.648C91.208,41.44 91.281,42.596 91.281,44.117L91.281,44.117ZM89.578,44.289C89.578,42.201 89.484,40.815 89.297,40.133C89.109,39.445 88.727,39.102 88.148,39.102C87.57,39.102 87.185,39.417 86.992,40.047C86.805,40.682 86.711,41.958 86.711,43.875C86.711,45.641 86.81,46.865 87.008,47.547C87.211,48.193 87.591,48.516 88.148,48.516C88.695,48.516 89.07,48.214 89.273,47.609C89.477,47.01 89.578,45.904 89.578,44.289L89.578,44.289Z" style="fill:rgb(158,161,168);fill-rule:nonzero;"/>
            <path id="path1540" d="M92.898,37.789L94.492,37.789L94.492,46.312C94.492,47.182 94.57,47.76 94.727,48.047C94.888,48.333 95.206,48.477 95.68,48.477C96.154,48.477 96.466,48.352 96.617,48.102C96.773,47.846 96.852,47.328 96.852,46.547L96.852,37.789L98.445,37.789L98.445,46.547C98.445,47.859 98.245,48.747 97.844,49.211C97.365,49.737 96.633,50 95.648,50C94.565,50 93.802,49.661 93.359,48.984C93.052,48.521 92.898,47.63 92.898,46.312L92.898,37.789Z" style="fill:rgb(158,161,168);fill-rule:nonzero;"/>
            <path id="path1542" d="M99.344,37.789L104.633,37.789L104.633,39.211L102.813,39.211L102.813,49.852L101.219,49.852L101.219,39.211L99.344,39.211L99.344,37.789Z" style="fill:rgb(158,161,168);fill-rule:nonzero;"/>
        </g>
        <g id="text1352" transform="matrix(0.891202,0,0,1.12208,20,-12)">
            <path id="path1507" d="M213.417,33.678L215.325,33.678C216.244,33.678 216.912,33.91 217.33,34.374C217.748,34.843 217.956,35.585 217.956,36.602C217.956,38.032 217.536,38.955 216.696,39.373C216.274,39.563 215.663,39.659 214.865,39.659L214.865,44.428L213.417,44.428L213.417,33.678ZM214.865,38.419C215.464,38.419 215.877,38.298 216.104,38.057C216.336,37.811 216.453,37.375 216.453,36.748C216.453,36.108 216.341,35.639 216.118,35.342C215.896,35.045 215.545,34.896 215.067,34.896L214.865,34.896L214.865,38.419Z" style="fill:rgb(158,161,168);fill-rule:nonzero;"/>
            <path id="path1509" d="M224.452,39.317C224.452,41.216 224.241,42.564 223.819,43.363C223.396,44.161 222.689,44.56 221.695,44.56C220.651,44.56 219.915,44.131 219.488,43.272C219.066,42.432 218.855,40.94 218.855,38.795C218.855,36.883 219.063,35.53 219.481,34.736C219.904,33.938 220.618,33.538 221.626,33.538C222.526,33.538 223.195,33.847 223.631,34.464C223.919,34.878 224.128,35.465 224.257,36.226C224.387,36.932 224.452,37.962 224.452,39.317L224.452,39.317ZM222.935,39.471C222.935,37.609 222.851,36.375 222.684,35.766C222.517,35.154 222.176,34.847 221.66,34.847C221.145,34.847 220.802,35.128 220.63,35.69C220.463,36.256 220.379,37.393 220.379,39.102C220.379,40.675 220.468,41.766 220.644,42.374C220.825,42.949 221.164,43.237 221.66,43.237C222.148,43.237 222.482,42.968 222.663,42.43C222.844,41.896 222.935,40.909 222.935,39.471L222.935,39.471Z" style="fill:rgb(158,161,168);fill-rule:nonzero;"/>
            <path id="path1511" d="M225.894,33.678L227.801,33.678C228.591,33.678 229.178,33.866 229.563,34.242C230.05,34.729 230.294,35.474 230.294,36.477C230.294,37.247 230.164,37.867 229.904,38.336C229.649,38.8 229.282,39.088 228.804,39.199L230.781,44.428L229.312,44.428L227.342,39.164L227.342,44.428L225.894,44.428L225.894,33.678ZM227.342,38.44C227.904,38.44 228.3,38.31 228.532,38.05C228.765,37.79 228.881,37.352 228.881,36.734C228.881,36.4 228.855,36.115 228.804,35.878C228.758,35.641 228.681,35.448 228.574,35.3C228.472,35.151 228.338,35.042 228.17,34.973C228.008,34.903 227.813,34.868 227.586,34.868L227.342,34.868L227.342,38.44Z" style="fill:rgb(158,161,168);fill-rule:nonzero;"/>
            <path id="path1513" d="M231.192,33.678L235.906,33.678L235.906,34.945L234.284,34.945L234.284,44.428L232.863,44.428L232.863,34.945L231.192,34.945L231.192,33.678Z" style="fill:rgb(158,161,168);fill-rule:nonzero;"/>
            <path id="path1515" d="M238.036,33.678L239.164,33.678L241.469,44.428L240.035,44.428L239.631,42.332L237.5,42.332L237.089,44.428L235.697,44.428L238.036,33.678ZM239.422,41.211L239.102,39.498C238.888,38.333 238.714,37.089 238.579,35.766C238.514,36.412 238.431,37.066 238.329,37.73C238.227,38.389 238.106,39.09 237.967,39.833L237.702,41.211L239.422,41.211Z" style="fill:rgb(158,161,168);fill-rule:nonzero;"/>
        </g>
        <g id="text1422" transform="matrix(1,0,0,1,-6,-12)">
            <rect id="path1502" x="130" y="37.937" width="1.625" height="12.063" style="fill:rgb(158,161,168);fill-rule:nonzero;"/>
            <path id="path1504" d="M133.5,37.937L135.016,37.937L136.633,42.75C137.102,44.109 137.516,45.56 137.875,47.102C137.745,46.169 137.648,45.326 137.586,44.57C137.523,43.815 137.492,43.104 137.492,42.437L137.492,37.937L139.125,37.937L139.125,50L137.602,50L135.781,44.57C135.615,44.065 135.456,43.547 135.305,43.016C135.159,42.484 135.023,41.927 134.898,41.344C134.888,41.271 134.87,41.182 134.844,41.078C134.823,40.974 134.797,40.854 134.766,40.719C134.781,40.854 134.794,40.971 134.805,41.07C134.815,41.164 134.823,41.245 134.828,41.313L134.914,42.539L135,44.031C135.005,44.115 135.008,44.216 135.008,44.336C135.013,44.456 135.016,44.591 135.016,44.742L135.102,50L133.5,50L133.5,37.937Z" style="fill:rgb(158,161,168);fill-rule:nonzero;"/>
        </g>
        <g id="text1426" transform="matrix(0.903508,0,0,1.1068,10,-12)">
            <path id="path1487" d="M161.592,34.143L163.039,34.143L163.696,38.166L163.809,38.893L164.042,40.474C164.079,40.743 164.112,40.987 164.141,41.208C164.174,41.43 164.202,41.63 164.225,41.808L164.296,42.345C164.31,42.237 164.322,42.14 164.331,42.055C164.34,41.971 164.35,41.9 164.359,41.844L164.55,40.58L164.797,38.921C164.821,38.771 164.842,38.632 164.861,38.505C164.884,38.378 164.905,38.265 164.924,38.166L165.63,34.143L166.999,34.143L164.861,45.041L163.696,45.041L161.592,34.143Z" style="fill:rgb(158,161,168);fill-rule:nonzero;"/>
            <path id="path1489" d="M173.282,39.86C173.282,41.785 173.067,43.152 172.639,43.961C172.211,44.771 171.493,45.175 170.486,45.175C169.428,45.175 168.682,44.74 168.249,43.87C167.821,43.018 167.606,41.505 167.606,39.331C167.606,37.392 167.818,36.02 168.242,35.216C168.67,34.406 169.395,34.002 170.416,34.002C171.329,34.002 172.006,34.314 172.449,34.94C172.74,35.359 172.952,35.954 173.084,36.726C173.216,37.441 173.282,38.486 173.282,39.86L173.282,39.86ZM171.743,40.016C171.743,38.129 171.658,36.877 171.489,36.26C171.319,35.639 170.973,35.329 170.451,35.329C169.929,35.329 169.581,35.613 169.406,36.183C169.237,36.757 169.152,37.91 169.152,39.641C169.152,41.237 169.242,42.343 169.421,42.959C169.604,43.542 169.948,43.834 170.451,43.834C170.945,43.834 171.284,43.561 171.468,43.015C171.651,42.474 171.743,41.474 171.743,40.016L171.743,40.016Z" style="fill:rgb(158,161,168);fill-rule:nonzero;"/>
            <path id="path1491" d="M174.743,34.143L176.211,34.143L176.211,43.799L178.611,43.799L178.611,45.041L174.743,45.041L174.743,34.143Z" style="fill:rgb(158,161,168);fill-rule:nonzero;"/>
            <path id="path1493" d="M178.42,34.143L183.199,34.143L183.199,35.427L181.554,35.427L181.554,45.041L180.114,45.041L180.114,35.427L178.42,35.427L178.42,34.143Z" style="fill:rgb(158,161,168);fill-rule:nonzero;"/>
            <path id="path1495" d="M185.359,34.143L186.502,34.143L188.839,45.041L187.385,45.041L186.975,42.917L184.815,42.917L184.399,45.041L182.987,45.041L185.359,34.143ZM186.764,41.78L186.439,40.044C186.222,38.863 186.046,37.601 185.91,36.26C185.844,36.914 185.759,37.578 185.655,38.251C185.552,38.919 185.43,39.63 185.288,40.383L185.02,41.78L186.764,41.78Z" style="fill:rgb(158,161,168);fill-rule:nonzero;"/>
            <path id="path1497" d="M192.291,39.31L194.959,39.31L194.959,39.733C194.959,41.855 194.773,43.288 194.401,44.032C194.034,44.794 193.347,45.175 192.34,45.175C191.3,45.175 190.559,44.752 190.116,43.905C189.679,43.058 189.46,41.634 189.46,39.634C189.46,37.347 189.7,35.825 190.18,35.067C190.632,34.357 191.326,34.002 192.262,34.002C192.978,34.002 193.535,34.173 193.935,34.517C194.34,34.865 194.655,35.437 194.881,36.232L193.512,36.804C193.451,36.517 193.382,36.277 193.307,36.084C193.232,35.886 193.149,35.733 193.06,35.625C192.881,35.404 192.613,35.293 192.255,35.293C191.766,35.293 191.432,35.594 191.253,36.197C191.074,36.827 190.985,37.959 190.985,39.592C190.985,41.244 191.076,42.361 191.26,42.945C191.444,43.528 191.789,43.82 192.298,43.82C192.763,43.82 193.091,43.613 193.279,43.199C193.472,42.757 193.568,42.046 193.568,41.067L193.568,40.771L193.568,40.552L192.291,40.552L192.291,39.31Z" style="fill:rgb(158,161,168);fill-rule:nonzero;"/>
            <path id="path1499" d="M196.427,34.143L200.33,34.143L200.33,35.385L197.895,35.385L197.895,38.837L200.055,38.837L200.055,40.079L197.895,40.079L197.895,43.799L200.33,43.799L200.33,45.041L196.427,45.041L196.427,34.143Z" style="fill:rgb(158,161,168);fill-rule:nonzero;"/>
        </g>
        <g id="text1430" transform="matrix(1,0,0,1,10,-12)">
            <path id="path1480" d="M243.281,44.117C243.281,46.247 243.044,47.76 242.57,48.656C242.096,49.552 241.302,50 240.188,50C239.016,50 238.19,49.518 237.711,48.555C237.237,47.612 237,45.937 237,43.531C237,41.385 237.234,39.867 237.703,38.977C238.177,38.081 238.979,37.633 240.109,37.633C241.12,37.633 241.87,37.979 242.359,38.672C242.682,39.135 242.917,39.794 243.063,40.648C243.208,41.44 243.281,42.596 243.281,44.117L243.281,44.117ZM241.578,44.289C241.578,42.201 241.484,40.815 241.297,40.133C241.109,39.445 240.727,39.102 240.149,39.102C239.57,39.102 239.185,39.417 238.992,40.047C238.805,40.682 238.711,41.958 238.711,43.875C238.711,45.641 238.81,46.865 239.008,47.547C239.211,48.193 239.591,48.516 240.149,48.516C240.695,48.516 241.07,48.214 241.274,47.609C241.477,47.01 241.578,45.904 241.578,44.289L241.578,44.289Z" style="fill:rgb(158,161,168);fill-rule:nonzero;"/>
            <path id="path1482" d="M244.899,37.789L246.492,37.789L246.492,46.312C246.492,47.182 246.57,47.76 246.727,48.047C246.888,48.333 247.206,48.477 247.68,48.477C248.154,48.477 248.466,48.352 248.617,48.102C248.774,47.846 248.852,47.328 248.852,46.547L248.852,37.789L250.445,37.789L250.445,46.547C250.445,47.859 250.245,48.747 249.844,49.211C249.365,49.737 248.633,50 247.649,50C246.565,50 245.802,49.661 245.359,48.984C245.052,48.521 244.899,47.63 244.899,46.312L244.899,37.789Z" style="fill:rgb(158,161,168);fill-rule:nonzero;"/>
            <path id="path1484" d="M251.344,37.789L256.633,37.789L256.633,39.211L254.813,39.211L254.813,49.852L253.219,49.852L253.219,39.211L251.344,39.211L251.344,37.789Z" style="fill:rgb(158,161,168);fill-rule:nonzero;"/>
        </g>
        <g id="text1377" transform="matrix(0.733386,0,0,0.954477,0.900001,-6)">
            <path id="path1379" d="M2.863,319.547L6.577,319.547L6.577,320.729L4.26,320.729L4.26,324.013L6.315,324.013L6.315,325.195L4.26,325.195L4.26,328.734L6.577,328.734L6.577,329.916L2.863,329.916L2.863,319.547Z" style="fill:rgb(44,45,48);fill-rule:nonzero;"/>
            <path id="path1382" d="M7.86,319.547L9.163,319.547L10.553,323.684C10.956,324.852 11.312,326.099 11.621,327.425C11.509,326.623 11.426,325.898 11.373,325.249C11.319,324.6 11.292,323.988 11.292,323.415L11.292,319.547L12.696,319.547L12.696,329.916L11.386,329.916L9.821,325.249C9.678,324.814 9.541,324.369 9.412,323.912C9.286,323.456 9.17,322.976 9.062,322.475C9.053,322.412 9.038,322.336 9.015,322.247C8.997,322.157 8.975,322.054 8.948,321.938C8.962,322.054 8.973,322.155 8.982,322.24C8.991,322.321 8.997,322.39 9.002,322.448L9.076,323.503L9.15,324.785C9.154,324.857 9.156,324.944 9.156,325.047C9.161,325.15 9.163,325.267 9.163,325.396L9.237,329.916L7.86,329.916L7.86,319.547Z" style="fill:rgb(44,45,48);fill-rule:nonzero;"/>
            <path id="path1387" d="M15.973,319.547L17.061,319.547L19.284,329.916L17.901,329.916L17.511,327.895L15.456,327.895L15.06,329.916L13.716,329.916L15.973,319.547ZM17.31,326.814L17.001,325.161C16.795,324.038 16.627,322.838 16.497,321.562C16.434,322.184 16.354,322.815 16.255,323.456C16.157,324.091 16.04,324.767 15.906,325.484L15.651,326.814L17.31,326.814Z" style="fill:rgb(44,45,48);fill-rule:nonzero;"/>
            <path id="path1389" d="M20.11,319.547L22.004,319.547C23.486,319.547 24.227,320.467 24.227,322.307C24.227,323.01 24.131,323.532 23.938,323.872C23.746,324.212 23.405,324.47 22.917,324.644C23.477,324.868 23.86,325.155 24.066,325.504C24.276,325.849 24.381,326.368 24.381,327.062C24.381,328.965 23.567,329.916 21.937,329.916L20.11,329.916L20.11,319.547ZM21.426,324.114C21.968,324.114 22.344,323.988 22.555,323.738C22.765,323.473 22.87,323.01 22.87,322.347C22.87,321.228 22.467,320.668 21.661,320.668L21.554,320.668L21.494,320.668C21.458,320.668 21.435,320.671 21.426,320.675L21.426,324.114ZM21.426,328.721C22,328.721 22.396,328.598 22.615,328.352C22.835,328.105 22.944,327.66 22.944,327.015C22.944,326.352 22.83,325.889 22.602,325.625C22.378,325.356 21.986,325.222 21.426,325.222L21.426,328.721Z" style="fill:rgb(44,45,48);fill-rule:nonzero;"/>
            <path id="path1391" d="M25.778,319.547L27.175,319.547L27.175,328.734L29.459,328.734L29.459,329.916L25.778,329.916L25.778,319.547Z" style="fill:rgb(44,45,48);fill-rule:nonzero;"/>
            <path id="path1393" d="M30.345,319.547L34.059,319.547L34.059,320.729L31.742,320.729L31.742,324.013L33.797,324.013L33.797,325.195L31.742,325.195L31.742,328.734L34.059,328.734L34.059,329.916L30.345,329.916L30.345,319.547Z" style="fill:rgb(44,45,48);fill-rule:nonzero;"/>
            <rect id="path1395" x="38.19" y="319.547" width="1.397" height="10.369" style="fill:rgb(44,45,48);fill-rule:nonzero;"/>
            <path id="path1397" d="M41.198,319.547L42.501,319.547L43.891,323.684C44.294,324.852 44.65,326.099 44.959,327.425C44.847,326.623 44.765,325.898 44.711,325.249C44.657,324.6 44.63,323.988 44.63,323.415L44.63,319.547L46.034,319.547L46.034,329.916L44.724,329.916L43.159,325.249C43.016,324.814 42.88,324.369 42.75,323.912C42.624,323.456 42.508,322.976 42.4,322.475C42.391,322.412 42.376,322.336 42.353,322.247C42.336,322.157 42.313,322.054 42.286,321.938C42.3,322.054 42.311,322.155 42.32,322.24C42.329,322.321 42.336,322.39 42.34,322.448L42.414,323.503L42.488,324.785C42.492,324.857 42.495,324.944 42.495,325.047C42.499,325.15 42.501,325.267 42.501,325.396L42.575,329.916L41.198,329.916L41.198,319.547Z" style="fill:rgb(44,45,48);fill-rule:nonzero;"/>
            <path id="path1399" d="M50.258,323.106L50.258,324.308C49.945,324.076 49.616,323.959 49.271,323.959C49.155,323.959 49.047,323.979 48.949,324.02C48.85,324.06 48.763,324.116 48.687,324.188C48.615,324.255 48.557,324.338 48.512,324.436C48.472,324.53 48.452,324.631 48.452,324.738C48.452,325.07 48.752,325.464 49.352,325.92C49.593,326.108 49.795,326.283 49.956,326.444C50.117,326.605 50.24,326.758 50.325,326.901C50.5,327.183 50.587,327.539 50.587,327.969C50.587,328.591 50.406,329.09 50.043,329.466C49.685,329.838 49.204,330.024 48.599,330.024C48.228,330.024 47.852,329.914 47.471,329.695L47.471,328.452C47.843,328.73 48.194,328.869 48.525,328.869C49.112,328.869 49.405,328.58 49.405,328.002C49.405,327.787 49.352,327.602 49.244,327.445C49.195,327.369 49.116,327.281 49.009,327.183C48.902,327.08 48.769,326.966 48.613,326.84C48.071,326.42 47.704,326.066 47.511,325.779C47.323,325.484 47.229,325.128 47.229,324.711C47.229,324.152 47.402,323.693 47.746,323.335C48.096,322.981 48.55,322.804 49.11,322.804C49.504,322.804 49.887,322.905 50.258,323.106L50.258,323.106Z" style="fill:rgb(44,45,48);fill-rule:nonzero;"/>
        </g>
        <g id="text80-1" transform="matrix(1.00498,0,0,0.995044,89.3112,8.00126)">
            <path id="path4726-1" d="M29.851,371.706L29.851,363.943L31.853,363.943L32.903,366.668C32.96,366.829 33.024,367.013 33.094,367.221C33.168,367.429 33.249,367.668 33.336,367.94L33.552,368.624C33.475,367.95 33.416,367.373 33.376,366.894C33.336,366.415 33.316,366.013 33.316,365.687L33.316,363.943L35.317,363.943L35.317,371.706L33.316,371.706L32.26,368.85C32.149,368.545 32.049,368.26 31.958,367.995C31.871,367.727 31.794,367.472 31.727,367.231C31.77,367.777 31.802,368.253 31.822,368.659C31.843,369.065 31.853,369.42 31.853,369.725L31.853,371.706L29.851,371.706Z" style="fill:rgb(158,161,168);fill-rule:nonzero;"/>
            <path id="path4728-5" d="M39.887,371.706L37.791,371.706L37.791,368.418L35.865,363.943L38.052,363.943L38.429,365.094C38.503,365.319 38.568,365.535 38.625,365.743C38.686,365.951 38.739,366.15 38.786,366.341C38.863,366.056 38.93,365.811 38.987,365.607C39.044,365.399 39.095,365.232 39.138,365.104L39.52,363.943L41.692,363.943L39.887,368.418L39.887,371.706Z" style="fill:rgb(158,161,168);fill-rule:nonzero;"/>
            <path id="path4730-3" d="M41.894,371.515L41.894,369.076C42.306,369.639 42.752,369.921 43.231,369.921C43.412,369.921 43.56,369.874 43.673,369.78C43.787,369.683 43.844,369.562 43.844,369.418C43.844,369.21 43.72,369.008 43.472,368.81L43.13,368.543C42.902,368.372 42.708,368.203 42.547,368.035C42.386,367.865 42.256,367.69 42.155,367.513C42.054,367.332 41.981,367.146 41.934,366.954C41.887,366.763 41.863,366.562 41.863,366.351C41.863,365.989 41.947,365.61 42.115,365.215C42.199,365.03 42.296,364.863 42.406,364.712C42.517,364.558 42.644,364.422 42.789,364.305C43.184,363.969 43.662,363.802 44.222,363.802C44.721,363.802 45.224,363.934 45.73,364.199L45.73,366.572C45.559,366.308 45.365,366.1 45.147,365.949C44.929,365.795 44.714,365.718 44.503,365.718C44.342,365.718 44.21,365.765 44.106,365.858C43.999,365.949 43.945,366.058 43.945,366.185C43.945,366.393 44.087,366.599 44.372,366.804L44.704,367.05C45.147,367.368 45.463,367.695 45.655,368.03C45.849,368.366 45.946,368.758 45.946,369.207C45.946,369.971 45.713,370.601 45.247,371.098C44.781,371.594 44.191,371.842 43.477,371.842C42.985,371.842 42.457,371.733 41.894,371.515L41.894,371.515Z" style="fill:rgb(158,161,168);fill-rule:nonzero;"/>
            <path id="path4732-9" d="M49.576,371.706L47.48,371.706L47.48,365.803L46.323,365.803L46.323,363.943L50.778,363.943L50.778,365.803L49.576,365.803L49.576,371.706Z" style="fill:rgb(158,161,168);fill-rule:nonzero;"/>
            <path id="path4734-6" d="M56.525,371.706L54.428,371.706L54.428,368.584L53.428,368.584L53.428,371.706L51.331,371.706L51.331,363.943L53.428,363.943L53.428,366.688L54.428,366.688L54.428,363.943L56.525,363.943L56.525,371.706Z" style="fill:rgb(158,161,168);fill-rule:nonzero;"/>
            <rect id="path4736-3" x="57.606" y="363.943" width="2.097" height="7.763" style="fill:rgb(158,161,168);fill-rule:nonzero;"/>
        </g>
        <g id="text2490" transform="matrix(0.874605,0,0,1.13133,10.2745,0)">
            <path id="path2522" d="M139.942,311.65L139.942,312.754C139.598,312.507 139.288,312.384 139.012,312.384C138.715,312.384 138.472,312.489 138.283,312.7C138.095,312.899 138.001,313.166 138.001,313.499C138.001,313.793 138.068,314.045 138.202,314.255C138.271,314.368 138.383,314.513 138.539,314.69C138.699,314.868 138.903,315.082 139.154,315.332C139.614,315.8 139.928,316.204 140.095,316.545C140.261,316.875 140.345,317.279 140.345,317.758C140.345,318.407 140.162,318.942 139.796,319.363C139.429,319.772 138.96,319.977 138.387,319.977C137.905,319.977 137.493,319.845 137.152,319.58L137.152,318.46C137.555,318.753 137.921,318.9 138.251,318.9C138.559,318.9 138.8,318.799 138.974,318.596C139.148,318.389 139.235,318.11 139.235,317.758C139.235,317.453 139.168,317.18 139.034,316.937C138.965,316.821 138.869,316.688 138.746,316.54C138.622,316.387 138.468,316.219 138.283,316.034C137.997,315.751 137.759,315.501 137.571,315.283C137.382,315.066 137.243,314.875 137.152,314.712C136.978,314.393 136.891,313.991 136.891,313.505C136.891,312.848 137.061,312.328 137.402,311.944C137.747,311.556 138.209,311.362 138.789,311.362C139.192,311.362 139.576,311.458 139.942,311.65L139.942,311.65Z" style="fill:rgb(44,45,48);fill-rule:nonzero;"/>
            <path id="path2524" d="M142.624,311.476L143.505,311.476L145.305,319.874L144.185,319.874L143.869,318.237L142.205,318.237L141.884,319.874L140.796,319.874L142.624,311.476ZM143.706,317.361L143.456,316.023C143.289,315.113 143.153,314.141 143.048,313.108C142.997,313.612 142.932,314.123 142.852,314.641C142.772,315.156 142.678,315.704 142.569,316.284L142.363,317.361L143.706,317.361Z" style="fill:rgb(44,45,48);fill-rule:nonzero;"/>
            <path id="path2526" d="M145.109,311.476L146.224,311.476L146.73,314.576L146.817,315.136L146.997,316.355C147.026,316.561 147.051,316.75 147.073,316.92C147.098,317.091 147.12,317.245 147.138,317.383L147.193,317.796C147.204,317.713 147.213,317.638 147.22,317.573C147.227,317.508 147.235,317.453 147.242,317.41L147.389,316.436L147.579,315.158C147.597,315.042 147.613,314.935 147.628,314.837C147.646,314.739 147.662,314.652 147.677,314.576L148.221,311.476L149.276,311.476L147.628,319.874L146.731,319.874L145.109,311.476Z" style="fill:rgb(44,45,48);fill-rule:nonzero;"/>
            <path id="path2528" d="M149.89,311.476L152.898,311.476L152.898,312.433L151.022,312.433L151.022,315.093L152.686,315.093L152.686,316.05L151.022,316.05L151.022,318.917L152.898,318.917L152.898,319.874L149.89,319.874L149.89,311.476Z" style="fill:rgb(44,45,48);fill-rule:nonzero;"/>
        </g>
        <g id="text2494" transform="matrix(0.817448,0,0,1.22332,0,0)">
            <path id="path2509" d="M275.247,288.15L276.534,288.15C276.927,288.15 277.257,288.193 277.525,288.281C277.774,288.364 277.995,288.514 278.189,288.728C278.481,289.05 278.689,289.469 278.813,289.986C278.937,290.485 278.999,291.201 278.999,292.134C278.999,292.989 278.93,293.686 278.793,294.226C278.659,294.743 278.437,295.137 278.129,295.408C277.75,295.747 277.071,295.916 276.092,295.916L275.247,295.916L275.247,288.15ZM276.293,295.001C276.93,295.001 277.356,294.808 277.571,294.422C277.792,294.037 277.903,293.287 277.903,292.174C277.903,290.977 277.797,290.153 277.586,289.704C277.374,289.255 276.987,289.03 276.424,289.03L276.293,289.03L276.293,295.001Z" style="fill:rgb(44,45,48);fill-rule:nonzero;"/>
            <path id="path2511" d="M280.035,288.15L282.817,288.15L282.817,289.035L281.082,289.035L281.082,291.495L282.621,291.495L282.621,292.38L281.082,292.38L281.082,295.031L282.817,295.031L282.817,295.916L280.035,295.916L280.035,288.15Z" style="fill:rgb(44,45,48);fill-rule:nonzero;"/>
            <path id="path2513" d="M283.778,288.15L284.824,288.15L284.824,295.031L286.534,295.031L286.534,295.916L283.778,295.916L283.778,288.15Z" style="fill:rgb(44,45,48);fill-rule:nonzero;"/>
            <path id="path2515" d="M290.438,288.15L291.253,288.15L292.917,295.916L291.881,295.916L291.59,294.402L290.05,294.402L289.754,295.916L288.748,295.916L290.438,288.15ZM291.439,293.592L291.207,292.355C291.053,291.513 290.927,290.615 290.83,289.659C290.783,290.125 290.723,290.598 290.649,291.077C290.575,291.554 290.488,292.06 290.387,292.596L290.196,293.592L291.439,293.592Z" style="fill:rgb(44,45,48);fill-rule:nonzero;"/>
            <path id="path2517" d="M293.536,288.15L294.582,288.15L294.582,295.031L296.293,295.031L296.293,295.916L293.536,295.916L293.536,288.15Z" style="fill:rgb(44,45,48);fill-rule:nonzero;"/>
            <path id="path2519" d="M296.957,288.15L298.003,288.15L298.003,295.031L299.713,295.031L299.713,295.916L296.957,295.916L296.957,288.15Z" style="fill:rgb(44,45,48);fill-rule:nonzero;"/>
        </g>
        <g id="text1421" transform="matrix(0.971834,0,0,1.02898,-38,-1.09903)">
            <path id="path1427" d="M187.275,274.252L188.621,274.252C189.269,274.252 189.74,274.415 190.035,274.743C190.33,275.073 190.477,275.597 190.477,276.314C190.477,277.323 190.181,277.974 189.588,278.269C189.29,278.403 188.86,278.47 188.296,278.47L188.296,281.835L187.275,281.835L187.275,274.252ZM188.296,277.596C188.719,277.596 189.01,277.511 189.171,277.341C189.334,277.167 189.416,276.859 189.416,276.417C189.416,275.966 189.338,275.635 189.18,275.425C189.023,275.216 188.776,275.111 188.439,275.111L188.296,275.111L188.296,277.596Z" style="fill:rgb(158,161,168);fill-rule:nonzero;"/>
            <path id="path1429" d="M195.059,278.23C195.059,279.569 194.91,280.52 194.612,281.083C194.314,281.646 193.815,281.928 193.114,281.928C192.378,281.928 191.859,281.625 191.558,281.019C191.26,280.427 191.111,279.374 191.111,277.861C191.111,276.512 191.258,275.558 191.553,274.998C191.851,274.435 192.355,274.153 193.065,274.153C193.701,274.153 194.172,274.371 194.48,274.807C194.683,275.098 194.83,275.512 194.922,276.049C195.014,276.547 195.059,277.274 195.059,278.23L195.059,278.23ZM193.989,278.338C193.989,277.025 193.93,276.154 193.812,275.725C193.694,275.293 193.453,275.077 193.09,275.077C192.726,275.077 192.484,275.275 192.363,275.671C192.245,276.07 192.186,276.873 192.186,278.077C192.186,279.187 192.248,279.957 192.373,280.386C192.501,280.792 192.74,280.995 193.09,280.995C193.434,280.995 193.669,280.805 193.797,280.425C193.925,280.049 193.989,279.353 193.989,278.338L193.989,278.338Z" style="fill:rgb(158,161,168);fill-rule:nonzero;"/>
            <path id="path1431" d="M196.076,274.252L197.422,274.252C197.978,274.252 198.393,274.384 198.664,274.649C199.008,274.993 199.18,275.519 199.18,276.226C199.18,276.769 199.088,277.207 198.905,277.537C198.725,277.865 198.466,278.068 198.129,278.146L199.524,281.835L198.487,281.835L197.098,278.122L197.098,281.835L196.076,281.835L196.076,274.252ZM197.098,277.611C197.494,277.611 197.774,277.519 197.937,277.336C198.101,277.153 198.183,276.843 198.183,276.408C198.183,276.172 198.165,275.971 198.129,275.804C198.096,275.637 198.042,275.501 197.967,275.396C197.895,275.291 197.8,275.214 197.682,275.165C197.567,275.116 197.43,275.091 197.269,275.091L197.098,275.091L197.098,277.611Z" style="fill:rgb(158,161,168);fill-rule:nonzero;"/>
            <path id="path1433" d="M199.814,274.252L203.139,274.252L203.139,275.145L201.994,275.145L201.994,281.835L200.992,281.835L200.992,275.145L199.814,275.145L199.814,274.252Z" style="fill:rgb(158,161,168);fill-rule:nonzero;"/>
            <path id="path1435" d="M204.641,274.252L205.437,274.252L207.063,281.835L206.051,281.835L205.766,280.356L204.263,280.356L203.973,281.835L202.991,281.835L204.641,274.252ZM205.619,279.566L205.393,278.357C205.242,277.536 205.119,276.658 205.024,275.725C204.979,276.18 204.92,276.642 204.848,277.11C204.776,277.575 204.69,278.069 204.592,278.593L204.406,279.566L205.619,279.566Z" style="fill:rgb(158,161,168);fill-rule:nonzero;"/>
            <path id="path1437" d="M211.566,277.847L213.423,277.847L213.423,278.141C213.423,279.618 213.294,280.615 213.035,281.132C212.78,281.663 212.301,281.928 211.601,281.928C210.877,281.928 210.361,281.633 210.054,281.044C209.749,280.455 209.597,279.464 209.597,278.073C209.597,276.481 209.764,275.422 210.098,274.895C210.412,274.401 210.895,274.153 211.547,274.153C212.044,274.153 212.432,274.273 212.711,274.512C212.992,274.754 213.212,275.152 213.369,275.705L212.416,276.103C212.374,275.903 212.326,275.736 212.274,275.602C212.221,275.465 212.164,275.358 212.102,275.283C211.977,275.129 211.791,275.052 211.542,275.052C211.201,275.052 210.969,275.262 210.844,275.681C210.72,276.119 210.658,276.907 210.658,278.043C210.658,279.192 210.722,279.97 210.849,280.376C210.977,280.782 211.218,280.985 211.571,280.985C211.895,280.985 212.123,280.841 212.254,280.553C212.388,280.245 212.455,279.751 212.455,279.07L212.455,278.863L212.455,278.711L211.566,278.711L211.566,277.847Z" style="fill:rgb(158,161,168);fill-rule:nonzero;"/>
            <path id="path1439" d="M214.444,274.252L215.466,274.252L215.466,280.97L217.136,280.97L217.136,281.835L214.444,281.835L214.444,274.252Z" style="fill:rgb(158,161,168);fill-rule:nonzero;"/>
            <path id="path1441" d="M221.581,278.23C221.581,279.569 221.432,280.52 221.134,281.083C220.836,281.646 220.336,281.928 219.636,281.928C218.899,281.928 218.38,281.625 218.079,281.019C217.781,280.427 217.632,279.374 217.632,277.861C217.632,276.512 217.779,275.558 218.074,274.998C218.372,274.435 218.876,274.153 219.587,274.153C220.222,274.153 220.693,274.371 221.001,274.807C221.204,275.098 221.351,275.512 221.443,276.049C221.535,276.547 221.581,277.274 221.581,278.23L221.581,278.23ZM220.51,278.338C220.51,277.025 220.451,276.154 220.333,275.725C220.215,275.293 219.975,275.077 219.611,275.077C219.248,275.077 219.005,275.275 218.884,275.671C218.766,276.07 218.708,276.873 218.708,278.077C218.708,279.187 218.77,279.957 218.894,280.386C219.022,280.792 219.261,280.995 219.611,280.995C219.955,280.995 220.191,280.805 220.318,280.425C220.446,280.049 220.51,279.353 220.51,278.338L220.51,278.338Z" style="fill:rgb(158,161,168);fill-rule:nonzero;"/>
            <path id="path1443" d="M222.597,274.252L223.982,274.252C225.066,274.252 225.608,274.924 225.608,276.27C225.608,276.784 225.538,277.166 225.397,277.414C225.256,277.663 225.007,277.852 224.65,277.979C225.06,278.143 225.339,278.353 225.49,278.608C225.644,278.86 225.721,279.24 225.721,279.747C225.721,281.139 225.125,281.835 223.933,281.835L222.597,281.835L222.597,274.252ZM223.56,277.591C223.956,277.591 224.231,277.5 224.385,277.316C224.539,277.123 224.616,276.784 224.616,276.3C224.616,275.481 224.321,275.072 223.732,275.072L223.653,275.072L223.609,275.072C223.583,275.072 223.567,275.073 223.56,275.077L223.56,277.591ZM223.56,280.96C223.979,280.96 224.269,280.87 224.429,280.69C224.59,280.51 224.67,280.184 224.67,279.713C224.67,279.228 224.586,278.889 224.419,278.696C224.256,278.5 223.969,278.402 223.56,278.402L223.56,280.96Z" style="fill:rgb(158,161,168);fill-rule:nonzero;"/>
            <path id="path1445" d="M227.862,274.252L228.658,274.252L230.284,281.835L229.272,281.835L228.987,280.356L227.484,280.356L227.194,281.835L226.212,281.835L227.862,274.252ZM228.84,279.566L228.614,278.357C228.463,277.536 228.34,276.658 228.245,275.725C228.2,276.18 228.141,276.642 228.069,277.11C227.997,277.575 227.911,278.069 227.813,278.593L227.627,279.566L228.84,279.566Z" style="fill:rgb(158,161,168);fill-rule:nonzero;"/>
            <path id="path1447" d="M230.888,274.252L231.909,274.252L231.909,280.97L233.579,280.97L233.579,281.835L230.888,281.835L230.888,274.252Z" style="fill:rgb(158,161,168);fill-rule:nonzero;"/>
        </g>
        <g id="text1425" transform="matrix(0.92542,0,0,1.08059,0,-7.09599)">
            <path id="path1450" d="M8.645,300.023L9.925,300.023C10.455,300.023 10.849,300.149 11.108,300.402C11.435,300.729 11.599,301.229 11.599,301.902C11.599,302.419 11.511,302.835 11.337,303.15C11.165,303.461 10.919,303.655 10.598,303.729L11.926,307.239L10.94,307.239L9.617,303.706L9.617,307.239L8.645,307.239L8.645,300.023ZM9.617,303.22C9.994,303.22 10.26,303.133 10.416,302.958C10.572,302.784 10.65,302.489 10.65,302.075C10.65,301.85 10.633,301.659 10.598,301.5C10.567,301.341 10.516,301.212 10.444,301.112C10.376,301.012 10.285,300.939 10.173,300.892C10.064,300.846 9.933,300.822 9.78,300.822L9.617,300.822L9.617,303.22Z" style="fill:rgb(44,45,48);fill-rule:nonzero;"/>
            <path id="path1452" d="M12.683,300.023L15.268,300.023L15.268,300.846L13.655,300.846L13.655,303.131L15.085,303.131L15.085,303.954L13.655,303.954L13.655,306.417L15.268,306.417L15.268,307.239L12.683,307.239L12.683,300.023Z" style="fill:rgb(44,45,48);fill-rule:nonzero;"/>
            <path id="path1455" d="M18.567,300.173L18.567,301.121C18.271,300.909 18.005,300.803 17.768,300.803C17.513,300.803 17.304,300.894 17.142,301.075C16.98,301.246 16.899,301.475 16.899,301.762C16.899,302.014 16.956,302.231 17.072,302.411C17.131,302.508 17.227,302.632 17.361,302.785C17.499,302.938 17.675,303.122 17.89,303.337C18.285,303.739 18.555,304.086 18.698,304.379C18.841,304.662 18.913,305.01 18.913,305.421C18.913,305.979 18.756,306.439 18.441,306.8C18.126,307.152 17.723,307.328 17.231,307.328C16.816,307.328 16.463,307.214 16.17,306.987L16.17,306.024C16.515,306.277 16.83,306.403 17.114,306.403C17.379,306.403 17.586,306.315 17.735,306.141C17.885,305.963 17.96,305.723 17.96,305.421C17.96,305.159 17.902,304.924 17.787,304.715C17.728,304.616 17.645,304.502 17.539,304.374C17.433,304.243 17.301,304.099 17.142,303.94C16.896,303.697 16.692,303.482 16.529,303.295C16.367,303.108 16.248,302.944 16.17,302.804C16.02,302.53 15.945,302.184 15.945,301.766C15.945,301.202 16.092,300.755 16.385,300.425C16.681,300.092 17.078,299.925 17.576,299.925C17.922,299.925 18.253,300.007 18.567,300.173L18.567,300.173Z" style="fill:rgb(44,45,48);fill-rule:nonzero;"/>
            <path id="path1458" d="M19.731,300.023L22.316,300.023L22.316,300.846L20.703,300.846L20.703,303.131L22.133,303.131L22.133,303.954L20.703,303.954L20.703,306.417L22.316,306.417L22.316,307.239L19.731,307.239L19.731,300.023Z" style="fill:rgb(44,45,48);fill-rule:nonzero;"/>
            <path id="path1461" d="M22.634,300.023L25.798,300.023L25.798,300.874L24.709,300.874L24.709,307.239L23.755,307.239L23.755,300.874L22.634,300.874L22.634,300.023Z" style="fill:rgb(44,45,48);fill-rule:nonzero;"/>
            <path id="path1464" d="M28.611,300.023L30.257,300.023L30.257,307.239L29.326,307.239L29.326,300.85L28.611,300.85L28.611,300.023Z" style="fill:rgb(44,45,48);fill-rule:nonzero;"/>
        </g>
        <g id="text1477" transform="matrix(0.841554,0,0,1.18828,0,0)">
            <path id="path1479" d="M118.828,251.731L120.284,251.731C120.887,251.731 121.335,251.875 121.629,252.162C122.001,252.534 122.188,253.103 122.188,253.868C122.188,254.457 122.088,254.93 121.89,255.288C121.695,255.642 121.415,255.862 121.05,255.947L122.56,259.939L121.438,259.939L119.933,255.92L119.933,259.939L118.828,259.939L118.828,251.731ZM119.933,255.367C120.362,255.367 120.665,255.268 120.843,255.07C121.02,254.871 121.108,254.536 121.108,254.065C121.108,253.81 121.089,253.592 121.05,253.411C121.014,253.23 120.956,253.083 120.874,252.97C120.796,252.856 120.694,252.773 120.566,252.72C120.442,252.667 120.293,252.64 120.12,252.64L119.933,252.64L119.933,255.367Z" style="fill:rgb(44,45,48);fill-rule:nonzero;"/>
            <path id="path1481" d="M124.59,251.731L125.452,251.731L127.211,259.939L126.116,259.939L125.808,258.339L124.181,258.339L123.867,259.939L122.804,259.939L124.59,251.731ZM125.648,257.483L125.404,256.175C125.241,255.286 125.108,254.336 125.005,253.326C124.956,253.819 124.892,254.318 124.814,254.825C124.736,255.328 124.644,255.864 124.537,256.431L124.335,257.483L125.648,257.483Z" style="fill:rgb(44,45,48);fill-rule:nonzero;"/>
            <path id="path1483" d="M127.865,251.731L128.897,251.731L129.997,255.006C130.316,255.931 130.598,256.918 130.842,257.967C130.754,257.333 130.688,256.758 130.646,256.245C130.603,255.731 130.582,255.247 130.582,254.793L130.582,251.731L131.693,251.731L131.693,259.939L130.656,259.939L129.418,256.245C129.304,255.901 129.196,255.548 129.093,255.187C128.994,254.825 128.902,254.446 128.817,254.049C128.81,253.999 128.797,253.939 128.78,253.868C128.766,253.797 128.748,253.716 128.727,253.624C128.737,253.716 128.746,253.796 128.753,253.863C128.76,253.927 128.765,253.982 128.769,254.028L128.827,254.862L128.886,255.878C128.889,255.934 128.891,256.004 128.891,256.085C128.895,256.167 128.897,256.259 128.897,256.362L128.955,259.939L127.865,259.939L127.865,251.731Z" style="fill:rgb(44,45,48);fill-rule:nonzero;"/>
            <path id="path1485" d="M132.969,251.731L134.33,251.731C134.744,251.731 135.094,251.777 135.377,251.869C135.639,251.958 135.873,252.116 136.079,252.342C136.387,252.683 136.607,253.126 136.738,253.672C136.869,254.2 136.935,254.956 136.935,255.942C136.935,256.845 136.862,257.582 136.717,258.153C136.575,258.699 136.341,259.115 136.015,259.402C135.614,259.76 134.897,259.939 133.862,259.939L132.969,259.939L132.969,251.731ZM134.075,258.972C134.748,258.972 135.198,258.768 135.425,258.36C135.659,257.953 135.776,257.161 135.776,255.984C135.776,254.719 135.664,253.849 135.441,253.374C135.218,252.899 134.808,252.661 134.213,252.661L134.075,252.661L134.075,258.972Z" style="fill:rgb(44,45,48);fill-rule:nonzero;"/>
            <path id="path1488" d="M142.139,256.037C142.139,257.487 141.978,258.516 141.655,259.126C141.333,259.736 140.792,260.04 140.034,260.04C139.237,260.04 138.675,259.712 138.349,259.057C138.026,258.415 137.865,257.276 137.865,255.639C137.865,254.178 138.025,253.145 138.343,252.539C138.666,251.93 139.212,251.625 139.981,251.625C140.668,251.625 141.179,251.86 141.512,252.332C141.732,252.647 141.891,253.096 141.99,253.677C142.09,254.216 142.139,255.002 142.139,256.037L142.139,256.037ZM140.98,256.154C140.98,254.733 140.917,253.79 140.789,253.326C140.661,252.858 140.401,252.624 140.007,252.624C139.614,252.624 139.352,252.839 139.221,253.267C139.093,253.7 139.029,254.568 139.029,255.872C139.029,257.074 139.097,257.907 139.231,258.371C139.37,258.81 139.628,259.03 140.007,259.03C140.38,259.03 140.635,258.825 140.773,258.414C140.911,258.006 140.98,257.253 140.98,256.154L140.98,256.154Z" style="fill:rgb(44,45,48);fill-rule:nonzero;"/>
            <path id="path1490" d="M143.628,251.731L144.574,251.731L145.297,255.08C145.386,255.499 145.465,255.918 145.536,256.34C145.611,256.758 145.678,257.198 145.738,257.659C145.745,257.598 145.751,257.552 145.754,257.52C145.758,257.485 145.761,257.46 145.765,257.446L145.919,256.505L146.057,255.612L146.179,255.022L146.823,251.731L147.78,251.731L148.535,259.939L147.477,259.939L147.291,257.154C147.283,257.012 147.276,256.89 147.269,256.787C147.266,256.684 147.264,256.599 147.264,256.532L147.216,255.431L147.19,254.421C147.19,254.414 147.188,254.4 147.184,254.379C147.184,254.354 147.183,254.322 147.179,254.283L147.153,254.448C147.124,254.643 147.098,254.813 147.073,254.958C147.052,255.103 147.032,255.226 147.015,255.325L146.876,256.074L146.823,256.356L146.132,259.939L145.388,259.939L144.739,256.845C144.651,256.438 144.571,256.025 144.5,255.607C144.433,255.185 144.371,254.744 144.314,254.283L143.995,259.939L142.953,259.939L143.628,251.731Z" style="fill:rgb(44,45,48);fill-rule:nonzero;"/>
        </g>
    </g>
</svg>
