<?xml version="1.0" encoding="UTF-8" standalone="no"?>
<!DOCTYPE svg PUBLIC "-//W3C//DTD SVG 1.1//EN" "http://www.w3.org/Graphics/SVG/1.1/DTD/svg11.dtd">
<svg width="100%" height="100%" viewBox="0 0 270 380" version="1.1" xmlns="http://www.w3.org/2000/svg" xmlns:xlink="http://www.w3.org/1999/xlink" xml:space="preserve" xmlns:serif="http://www.serif.com/" style="fill-rule:evenodd;clip-rule:evenodd;stroke-linejoin:round;stroke-miterlimit:2;">
    <g id="Layer-2" serif:id="Layer 2">
        <g id="text989">
        </g>
        <rect id="rect4689" x="0.05" y="0" width="270" height="380" style="fill:rgb(44,45,48);"/>
        <g id="text80" transform="matrix(1.00498,0,0,0.995047,90.0498,4.99997)">
            <path id="path4726" d="M29.851,371.706L29.851,363.943L31.853,363.943L32.903,366.668C32.96,366.829 33.024,367.013 33.094,367.221C33.168,367.429 33.249,367.668 33.336,367.94L33.552,368.624C33.475,367.95 33.416,367.373 33.376,366.894C33.336,366.415 33.316,366.013 33.316,365.687L33.316,363.943L35.317,363.943L35.317,371.706L33.316,371.706L32.26,368.85C32.149,368.545 32.049,368.26 31.958,367.995C31.871,367.727 31.794,367.472 31.727,367.231C31.77,367.777 31.802,368.253 31.822,368.659C31.843,369.065 31.853,369.42 31.853,369.725L31.853,371.706L29.851,371.706Z" style="fill:rgb(158,161,168);fill-rule:nonzero;"/>
            <path id="path4728" d="M39.887,371.706L37.791,371.706L37.791,368.418L35.865,363.943L38.052,363.943L38.429,365.094C38.503,365.319 38.568,365.535 38.625,365.743C38.686,365.951 38.739,366.15 38.786,366.341C38.863,366.056 38.93,365.811 38.987,365.607C39.044,365.399 39.095,365.232 39.138,365.104L39.52,363.943L41.692,363.943L39.887,368.418L39.887,371.706Z" style="fill:rgb(158,161,168);fill-rule:nonzero;"/>
            <path id="path4730" d="M41.894,371.515L41.894,369.076C42.306,369.639 42.752,369.921 43.231,369.921C43.412,369.921 43.56,369.874 43.673,369.78C43.787,369.683 43.844,369.562 43.844,369.418C43.844,369.21 43.72,369.008 43.472,368.81L43.13,368.543C42.902,368.372 42.708,368.203 42.547,368.035C42.386,367.865 42.256,367.69 42.155,367.513C42.054,367.332 41.981,367.146 41.934,366.954C41.887,366.763 41.863,366.562 41.863,366.351C41.863,365.989 41.947,365.61 42.115,365.215C42.199,365.03 42.296,364.863 42.406,364.712C42.517,364.558 42.644,364.422 42.789,364.305C43.184,363.969 43.662,363.802 44.222,363.802C44.721,363.802 45.224,363.934 45.73,364.199L45.73,366.572C45.559,366.308 45.365,366.1 45.147,365.949C44.929,365.795 44.714,365.718 44.503,365.718C44.342,365.718 44.21,365.765 44.106,365.858C43.999,365.949 43.945,366.058 43.945,366.185C43.945,366.393 44.087,366.599 44.372,366.804L44.704,367.05C45.147,367.368 45.463,367.695 45.655,368.03C45.849,368.366 45.946,368.758 45.946,369.207C45.946,369.971 45.713,370.601 45.247,371.098C44.781,371.594 44.191,371.842 43.477,371.842C42.985,371.842 42.457,371.733 41.894,371.515L41.894,371.515Z" style="fill:rgb(158,161,168);fill-rule:nonzero;"/>
            <path id="path4732" d="M49.576,371.706L47.48,371.706L47.48,365.803L46.323,365.803L46.323,363.943L50.778,363.943L50.778,365.803L49.576,365.803L49.576,371.706Z" style="fill:rgb(158,161,168);fill-rule:nonzero;"/>
            <path id="path4734" d="M56.525,371.706L54.428,371.706L54.428,368.584L53.428,368.584L53.428,371.706L51.331,371.706L51.331,363.943L53.428,363.943L53.428,366.688L54.428,366.688L54.428,363.943L56.525,363.943L56.525,371.706Z" style="fill:rgb(158,161,168);fill-rule:nonzero;"/>
            <rect id="path4736" x="57.606" y="363.943" width="2.097" height="7.763" style="fill:rgb(158,161,168);fill-rule:nonzero;"/>
        </g>
        <g id="text4987">
        </g>
        <g id="text1042">
        </g>
        <g id="text910" transform="matrix(0.835383,0,0,1.19706,0,12)">
            <path id="path1013" d="M2.394,280.512L3.726,280.512L3.726,287.633C3.726,288.359 3.791,288.842 3.921,289.082C4.056,289.321 4.322,289.441 4.718,289.441C5.113,289.441 5.375,289.336 5.501,289.127C5.631,288.914 5.696,288.481 5.696,287.829L5.696,280.512L7.028,280.512L7.028,287.829C7.028,288.925 6.86,289.667 6.525,290.054C6.125,290.493 5.514,290.713 4.691,290.713C3.786,290.713 3.149,290.43 2.779,289.865C2.522,289.478 2.394,288.734 2.394,287.633L2.394,280.512Z" style="fill:rgb(158,161,168);fill-rule:nonzero;"/>
            <path id="path1015" d="M8.581,280.512L9.847,280.512L11.198,284.533C11.59,285.668 11.936,286.88 12.236,288.168C12.127,287.389 12.047,286.684 11.994,286.053C11.942,285.422 11.916,284.829 11.916,284.272L11.916,280.512L13.28,280.512L13.28,290.589L12.008,290.589L10.487,286.053C10.348,285.631 10.215,285.198 10.089,284.755C9.967,284.311 9.854,283.845 9.749,283.358C9.741,283.297 9.725,283.223 9.704,283.136C9.686,283.049 9.665,282.949 9.638,282.836C9.652,282.949 9.662,283.047 9.671,283.13C9.68,283.208 9.686,283.275 9.691,283.332L9.762,284.356L9.834,285.603C9.839,285.673 9.841,285.757 9.841,285.858C9.845,285.958 9.847,286.071 9.847,286.197L9.919,290.589L8.581,290.589L8.581,280.512Z" style="fill:rgb(158,161,168);fill-rule:nonzero;"/>
            <rect id="path1017" x="14.847" y="280.512" width="1.357" height="10.077" style="fill:rgb(158,161,168);fill-rule:nonzero;"/>
            <path id="path1019" d="M16.968,280.512L21.386,280.512L21.386,281.7L19.865,281.7L19.865,290.589L18.534,290.589L18.534,281.7L16.968,281.7L16.968,280.512Z" style="fill:rgb(158,161,168);fill-rule:nonzero;"/>
            <path id="path1021" d="M21.928,280.512L23.364,280.512L24.029,282.705C24.051,282.771 24.073,282.842 24.094,282.921C24.116,282.999 24.142,283.084 24.173,283.175C24.421,283.967 24.591,284.633 24.682,285.172C24.76,284.633 24.825,284.256 24.878,284.043L25.087,283.143L25.165,282.79L25.726,280.512L27.142,280.512L25.387,286.256L25.387,290.589L24.029,290.589L24.029,286.256L21.928,280.512Z" style="fill:rgb(158,161,168);fill-rule:nonzero;"/>
            <path id="path1023" d="M31.143,280.512L32.305,280.512L33.192,284.624C33.301,285.137 33.399,285.653 33.486,286.171C33.577,286.684 33.66,287.224 33.734,287.789C33.743,287.715 33.749,287.659 33.754,287.62C33.758,287.576 33.762,287.546 33.767,287.528L33.956,286.373L34.126,285.277L34.276,284.552L35.065,280.512L36.24,280.512L37.167,290.589L35.868,290.589L35.64,287.169C35.631,286.995 35.622,286.845 35.614,286.719C35.609,286.593 35.607,286.488 35.607,286.406L35.548,285.055L35.516,283.815C35.516,283.806 35.514,283.789 35.509,283.763C35.509,283.732 35.507,283.693 35.503,283.645L35.47,283.847C35.435,284.087 35.403,284.296 35.372,284.474C35.346,284.652 35.322,284.802 35.3,284.924L35.131,285.845L35.065,286.19L34.217,290.589L33.303,290.589L32.507,286.791C32.398,286.29 32.3,285.784 32.213,285.27C32.131,284.752 32.055,284.211 31.985,283.645L31.593,290.589L30.314,290.589L31.143,280.512Z" style="fill:rgb(158,161,168);fill-rule:nonzero;"/>
            <rect id="path1025" x="38.289" y="280.512" width="1.357" height="10.077" style="fill:rgb(158,161,168);fill-rule:nonzero;"/>
            <path id="path1027" d="M40.528,280.512L41.846,280.512L42.545,282.464C42.819,283.234 42.982,283.797 43.034,284.154C43.082,283.932 43.134,283.717 43.191,283.508C43.252,283.299 43.315,283.09 43.38,282.882L43.471,282.588L44.118,280.512L45.488,280.512L43.622,285.473L45.488,290.589L44.118,290.589L43.452,288.67C43.317,288.288 43.208,287.944 43.126,287.639C43.043,287.335 42.984,287.065 42.949,286.83C42.915,287.122 42.856,287.4 42.773,287.665L42.545,288.383L42.427,288.762L41.846,290.589L40.411,290.589L42.316,285.473L40.528,280.512Z" style="fill:rgb(158,161,168);fill-rule:nonzero;"/>
        </g>
        <g id="text918" transform="matrix(0.835383,0,0,1.19706,0,6)">
            <path id="path1000" d="M2.394,260.463L6.003,260.463L6.003,261.612L3.752,261.612L3.752,264.803L5.749,264.803L5.749,265.952L3.752,265.952L3.752,269.391L6.003,269.391L6.003,270.54L2.394,270.54L2.394,260.463Z" style="fill:rgb(158,161,168);fill-rule:nonzero;"/>
            <path id="path1002" d="M7.25,260.463L8.516,260.463L9.867,264.484C10.258,265.619 10.604,266.831 10.905,268.119C10.796,267.34 10.715,266.635 10.663,266.004C10.611,265.373 10.585,264.779 10.585,264.222L10.585,260.463L11.949,260.463L11.949,270.54L10.676,270.54L9.155,266.004C9.016,265.582 8.884,265.149 8.757,264.705C8.636,264.262 8.522,263.796 8.418,263.309C8.409,263.248 8.394,263.174 8.372,263.087C8.355,263 8.333,262.9 8.307,262.787C8.32,262.9 8.331,262.998 8.34,263.08C8.348,263.159 8.355,263.226 8.359,263.283L8.431,264.307L8.503,265.554C8.507,265.623 8.509,265.708 8.509,265.808C8.514,265.908 8.516,266.022 8.516,266.148L8.588,270.54L7.25,270.54L7.25,260.463Z" style="fill:rgb(158,161,168);fill-rule:nonzero;"/>
            <path id="path1004" d="M12.712,260.463L14.05,260.463L14.657,264.183L14.762,264.856L14.977,266.317C15.012,266.565 15.042,266.792 15.068,266.996C15.099,267.201 15.125,267.386 15.147,267.551L15.212,268.047C15.225,267.947 15.236,267.858 15.245,267.779C15.253,267.701 15.262,267.636 15.271,267.584L15.447,266.415L15.675,264.882C15.697,264.742 15.717,264.614 15.734,264.497C15.756,264.379 15.775,264.275 15.793,264.183L16.446,260.463L17.712,260.463L15.734,270.54L14.657,270.54L12.712,260.463Z" style="fill:rgb(158,161,168);fill-rule:nonzero;"/>
            <path id="path1006" d="M26.261,265.75C26.261,267.529 26.063,268.793 25.667,269.542C25.271,270.29 24.608,270.664 23.677,270.664C22.698,270.664 22.008,270.262 21.608,269.457C21.212,268.669 21.014,267.27 21.014,265.26C21.014,263.468 21.21,262.199 21.601,261.455C21.997,260.707 22.667,260.333 23.612,260.333C24.456,260.333 25.082,260.622 25.491,261.201C25.761,261.588 25.957,262.138 26.079,262.852C26.2,263.513 26.261,264.479 26.261,265.75ZM24.839,265.893C24.839,264.149 24.76,262.991 24.604,262.421C24.447,261.847 24.127,261.56 23.644,261.56C23.161,261.56 22.839,261.823 22.678,262.349C22.522,262.88 22.443,263.946 22.443,265.547C22.443,267.022 22.526,268.045 22.691,268.615C22.861,269.154 23.179,269.424 23.644,269.424C24.101,269.424 24.414,269.172 24.584,268.667C24.754,268.167 24.839,267.242 24.839,265.893L24.839,265.893Z" style="fill:rgb(158,161,168);fill-rule:nonzero;"/>
            <path id="path1008" d="M27.612,260.463L28.944,260.463L28.944,267.584C28.944,268.31 29.009,268.793 29.139,269.032C29.274,269.272 29.54,269.391 29.936,269.391C30.332,269.391 30.593,269.287 30.719,269.078C30.849,268.865 30.915,268.432 30.915,267.779L30.915,260.463L32.246,260.463L32.246,267.779C32.246,268.876 32.078,269.618 31.743,270.005C31.343,270.444 30.732,270.664 29.91,270.664C29.005,270.664 28.367,270.381 27.997,269.816C27.741,269.428 27.612,268.684 27.612,267.584L27.612,260.463Z" style="fill:rgb(158,161,168);fill-rule:nonzero;"/>
            <path id="path1010" d="M32.997,260.463L37.415,260.463L37.415,261.651L35.894,261.651L35.894,270.54L34.563,270.54L34.563,261.651L32.997,261.651L32.997,260.463Z" style="fill:rgb(158,161,168);fill-rule:nonzero;"/>
        </g>
        <g id="text922" transform="matrix(0.835383,0,0,1.19706,0,4)">
            <path id="path987" d="M2.394,240.414L3.732,240.414L4.339,244.134L4.443,244.806L4.659,246.268C4.694,246.516 4.724,246.743 4.75,246.947C4.781,247.152 4.807,247.336 4.828,247.502L4.894,247.998C4.907,247.898 4.918,247.808 4.926,247.73C4.935,247.652 4.944,247.587 4.952,247.534L5.129,246.366L5.357,244.832C5.379,244.693 5.398,244.565 5.416,244.447C5.438,244.33 5.457,244.226 5.475,244.134L6.127,240.414L7.393,240.414L5.416,250.491L4.339,250.491L2.394,240.414Z" style="fill:rgb(158,161,168);fill-rule:nonzero;"/>
            <path id="path989" d="M12.06,240.577L12.06,241.798C11.712,241.628 11.42,241.543 11.185,241.543C10.863,241.543 10.587,241.624 10.356,241.785C10.126,241.941 9.934,242.185 9.782,242.516C9.634,242.846 9.523,243.266 9.449,243.775C9.38,244.28 9.345,244.878 9.345,245.57C9.345,248.059 9.982,249.303 11.257,249.303C11.479,249.303 11.746,249.233 12.06,249.094L12.06,250.341C11.733,250.523 11.368,250.615 10.963,250.615C8.923,250.615 7.902,248.948 7.902,245.616C7.902,243.814 8.15,242.474 8.646,241.595C9.147,240.716 9.91,240.277 10.937,240.277C11.316,240.277 11.69,240.377 12.06,240.577L12.06,240.577Z" style="fill:rgb(158,161,168);fill-rule:nonzero;"/>
            <path id="path991" d="M14.997,240.414L16.054,240.414L18.214,250.491L16.87,250.491L16.491,248.526L14.494,248.526L14.109,250.491L12.804,250.491L14.997,240.414ZM16.295,247.476L15.995,245.87C15.795,244.778 15.632,243.612 15.506,242.372C15.445,242.977 15.366,243.59 15.271,244.212C15.175,244.83 15.062,245.487 14.931,246.183L14.683,247.476L16.295,247.476Z" style="fill:rgb(158,161,168);fill-rule:nonzero;"/>
            <path id="path993" d="M26.829,245.7C26.829,247.48 26.631,248.744 26.235,249.492C25.839,250.241 25.176,250.615 24.245,250.615C23.266,250.615 22.576,250.212 22.176,249.407C21.78,248.62 21.582,247.221 21.582,245.211C21.582,243.418 21.778,242.15 22.169,241.406C22.565,240.658 23.235,240.284 24.179,240.284C25.023,240.284 25.65,240.573 26.059,241.152C26.329,241.539 26.524,242.089 26.646,242.803C26.768,243.464 26.829,244.43 26.829,245.7ZM25.406,245.844C25.406,244.099 25.328,242.942 25.171,242.372C25.015,241.798 24.695,241.511 24.212,241.511C23.729,241.511 23.407,241.774 23.246,242.3C23.089,242.831 23.011,243.897 23.011,245.498C23.011,246.973 23.094,247.996 23.259,248.566C23.429,249.105 23.746,249.375 24.212,249.375C24.669,249.375 24.982,249.122 25.152,248.618C25.321,248.117 25.406,247.193 25.406,245.844L25.406,245.844Z" style="fill:rgb(158,161,168);fill-rule:nonzero;"/>
            <path id="path995" d="M28.18,240.414L29.511,240.414L29.511,247.534C29.511,248.261 29.577,248.744 29.707,248.983C29.842,249.223 30.108,249.342 30.503,249.342C30.899,249.342 31.16,249.238 31.287,249.029C31.417,248.816 31.482,248.383 31.482,247.73L31.482,240.414L32.814,240.414L32.814,247.73C32.814,248.827 32.646,249.568 32.311,249.956C31.911,250.395 31.3,250.615 30.477,250.615C29.572,250.615 28.935,250.332 28.565,249.766C28.308,249.379 28.18,248.635 28.18,247.534L28.18,240.414Z" style="fill:rgb(158,161,168);fill-rule:nonzero;"/>
            <path id="path997" d="M33.564,240.414L37.983,240.414L37.983,241.602L36.462,241.602L36.462,250.491L35.131,250.491L35.131,241.602L33.564,241.602L33.564,240.414Z" style="fill:rgb(158,161,168);fill-rule:nonzero;"/>
        </g>
        <g id="text926" transform="matrix(0.835383,0,0,1.19706,0,2)">
            <path id="path976" d="M2.394,220.365L3.732,220.365L4.339,224.085L4.443,224.757L4.659,226.219C4.694,226.467 4.724,226.693 4.75,226.898C4.781,227.102 4.807,227.287 4.828,227.453L4.894,227.949C4.907,227.848 4.918,227.759 4.926,227.681C4.935,227.603 4.944,227.537 4.952,227.485L5.129,226.317L5.357,224.783C5.379,224.644 5.398,224.516 5.416,224.398C5.438,224.281 5.457,224.176 5.475,224.085L6.127,220.365L7.393,220.365L5.416,230.442L4.339,230.442L2.394,220.365Z" style="fill:rgb(158,161,168);fill-rule:nonzero;"/>
            <path id="path978" d="M12.06,220.528L12.06,221.748C11.712,221.579 11.42,221.494 11.185,221.494C10.863,221.494 10.587,221.574 10.356,221.735C10.126,221.892 9.934,222.136 9.782,222.466C9.634,222.797 9.523,223.217 9.449,223.726C9.38,224.231 9.345,224.829 9.345,225.521C9.345,228.009 9.982,229.254 11.257,229.254C11.479,229.254 11.746,229.184 12.06,229.045L12.06,230.292C11.733,230.474 11.368,230.566 10.963,230.566C8.923,230.566 7.902,228.899 7.902,225.566C7.902,223.765 8.15,222.425 8.646,221.546C9.147,220.667 9.91,220.228 10.937,220.228C11.316,220.228 11.69,220.328 12.06,220.528L12.06,220.528Z" style="fill:rgb(158,161,168);fill-rule:nonzero;"/>
            <path id="path980" d="M14.997,220.365L16.054,220.365L18.214,230.442L16.87,230.442L16.491,228.477L14.494,228.477L14.109,230.442L12.804,230.442L14.997,220.365ZM16.295,227.426L15.995,225.821C15.795,224.729 15.632,223.563 15.506,222.323C15.445,222.928 15.366,223.541 15.271,224.163C15.175,224.781 15.062,225.438 14.931,226.134L14.683,227.426L16.295,227.426Z" style="fill:rgb(158,161,168);fill-rule:nonzero;"/>
            <rect id="path982" x="21.784" y="220.365" width="1.357" height="10.077" style="fill:rgb(158,161,168);fill-rule:nonzero;"/>
            <path id="path984" d="M24.708,220.365L25.974,220.365L27.325,224.385C27.717,225.521 28.063,226.732 28.363,228.02C28.254,227.242 28.174,226.537 28.121,225.906C28.069,225.275 28.043,224.681 28.043,224.124L28.043,220.365L29.407,220.365L29.407,230.442L28.134,230.442L26.614,225.906C26.474,225.484 26.342,225.051 26.216,224.607C26.094,224.163 25.981,223.698 25.876,223.21C25.868,223.149 25.852,223.076 25.831,222.988C25.813,222.901 25.791,222.801 25.765,222.688C25.778,222.801 25.789,222.899 25.798,222.982C25.807,223.06 25.813,223.128 25.817,223.184L25.889,224.209L25.961,225.456C25.965,225.525 25.968,225.61 25.968,225.71C25.972,225.81 25.974,225.923 25.974,226.049L26.046,230.442L24.708,230.442L24.708,220.365Z" style="fill:rgb(158,161,168);fill-rule:nonzero;"/>
        </g>
        <g id="text930" transform="matrix(0.832989,0,0,1.2005,0,0)">
            <path id="path959" d="M2.401,199.742L6,199.742L6,200.887L3.755,200.887L3.755,204.069L5.746,204.069L5.746,205.215L3.755,205.215L3.755,208.644L6,208.644L6,209.79L2.401,209.79L2.401,199.742Z" style="fill:rgb(158,161,168);fill-rule:nonzero;"/>
            <path id="path961" d="M7.243,199.742L8.505,199.742L9.852,203.75C10.243,204.883 10.588,206.091 10.887,207.375C10.779,206.599 10.698,205.896 10.646,205.267C10.594,204.638 10.568,204.046 10.568,203.49L10.568,199.742L11.928,199.742L11.928,209.79L10.659,209.79L9.143,205.267C9.004,204.846 8.872,204.414 8.746,203.972C8.625,203.529 8.512,203.065 8.408,202.579C8.399,202.518 8.384,202.445 8.362,202.358C8.345,202.271 8.323,202.171 8.297,202.059C8.31,202.171 8.321,202.269 8.33,202.351C8.338,202.429 8.345,202.497 8.349,202.553L8.421,203.575L8.492,204.818C8.497,204.887 8.499,204.972 8.499,205.072C8.503,205.171 8.505,205.284 8.505,205.41L8.577,209.79L7.243,209.79L7.243,199.742Z" style="fill:rgb(158,161,168);fill-rule:nonzero;"/>
            <path id="path963" d="M13.49,199.742L15.156,199.742C15.664,199.742 16.091,199.798 16.438,199.911C16.759,200.019 17.046,200.212 17.297,200.49C17.675,200.907 17.944,201.449 18.104,202.117C18.265,202.763 18.345,203.69 18.345,204.896C18.345,206.002 18.256,206.905 18.078,207.603C17.905,208.271 17.618,208.781 17.219,209.132C16.729,209.571 15.85,209.79 14.583,209.79L13.49,209.79L13.49,199.742ZM14.844,208.605C15.668,208.605 16.219,208.356 16.497,207.857C16.783,207.358 16.926,206.388 16.926,204.948C16.926,203.399 16.79,202.334 16.516,201.753C16.243,201.171 15.742,200.881 15.013,200.881L14.844,200.881L14.844,208.605Z" style="fill:rgb(158,161,168);fill-rule:nonzero;"/>
            <path id="path965" d="M26.388,199.904L26.388,201.121C26.041,200.952 25.751,200.868 25.516,200.868C25.195,200.868 24.92,200.948 24.69,201.108C24.46,201.265 24.269,201.508 24.117,201.837C23.97,202.167 23.859,202.586 23.785,203.093C23.716,203.596 23.681,204.193 23.681,204.883C23.681,207.364 24.317,208.605 25.588,208.605C25.809,208.605 26.076,208.536 26.388,208.397L26.388,209.64C26.063,209.822 25.699,209.913 25.295,209.913C23.26,209.913 22.243,208.252 22.243,204.928C22.243,203.132 22.49,201.796 22.985,200.92C23.484,200.043 24.245,199.605 25.269,199.605C25.647,199.605 26.02,199.705 26.388,199.904L26.388,199.904Z" style="fill:rgb(158,161,168);fill-rule:nonzero;"/>
            <path id="path967" d="M26.72,199.742L28.152,199.742L28.816,201.928C28.838,201.993 28.859,202.065 28.881,202.143C28.903,202.221 28.929,202.306 28.959,202.397C29.206,203.186 29.376,203.85 29.467,204.388C29.545,203.85 29.61,203.475 29.662,203.262L29.87,202.364L29.948,202.013L30.508,199.742L31.92,199.742L30.169,205.469L30.169,209.79L28.816,209.79L28.816,205.469L26.72,199.742Z" style="fill:rgb(158,161,168);fill-rule:nonzero;"/>
            <path id="path969" d="M36.462,199.904L36.462,201.121C36.115,200.952 35.825,200.868 35.59,200.868C35.269,200.868 34.994,200.948 34.764,201.108C34.534,201.265 34.343,201.508 34.191,201.837C34.044,202.167 33.933,202.586 33.859,203.093C33.79,203.596 33.755,204.193 33.755,204.883C33.755,207.364 34.391,208.605 35.662,208.605C35.883,208.605 36.15,208.536 36.462,208.397L36.462,209.64C36.137,209.822 35.773,209.913 35.369,209.913C33.334,209.913 32.317,208.252 32.317,204.928C32.317,203.132 32.564,201.796 33.059,200.92C33.558,200.043 34.319,199.605 35.343,199.605C35.721,199.605 36.094,199.705 36.462,199.904L36.462,199.904Z" style="fill:rgb(158,161,168);fill-rule:nonzero;"/>
            <path id="path971" d="M37.595,199.742L38.948,199.742L38.948,208.644L41.161,208.644L41.161,209.79L37.595,209.79L37.595,199.742Z" style="fill:rgb(158,161,168);fill-rule:nonzero;"/>
            <path id="path973" d="M42.02,199.742L45.619,199.742L45.619,200.887L43.374,200.887L43.374,204.069L45.365,204.069L45.365,205.215L43.374,205.215L43.374,208.644L45.619,208.644L45.619,209.79L42.02,209.79L42.02,199.742Z" style="fill:rgb(158,161,168);fill-rule:nonzero;"/>
        </g>
        <g id="text934" transform="matrix(0.832989,0,0,1.2005,0,-2)">
            <path id="path944" d="M2.401,179.75L6,179.75L6,180.895L3.755,180.895L3.755,184.078L5.746,184.078L5.746,185.223L3.755,185.223L3.755,188.653L6,188.653L6,189.798L2.401,189.798L2.401,179.75Z" style="fill:rgb(158,161,168);fill-rule:nonzero;"/>
            <path id="path946" d="M7.243,179.75L8.505,179.75L9.852,183.759C10.243,184.891 10.588,186.099 10.887,187.384C10.779,186.607 10.698,185.904 10.646,185.275C10.594,184.646 10.568,184.054 10.568,183.498L10.568,179.75L11.928,179.75L11.928,189.798L10.659,189.798L9.143,185.275C9.004,184.854 8.872,184.423 8.746,183.98C8.625,183.537 8.512,183.073 8.408,182.587C8.399,182.527 8.384,182.453 8.362,182.366C8.345,182.279 8.323,182.18 8.297,182.067C8.31,182.18 8.321,182.277 8.33,182.36C8.338,182.438 8.345,182.505 8.349,182.561L8.421,183.583L8.492,184.826C8.497,184.895 8.499,184.98 8.499,185.08C8.503,185.18 8.505,185.292 8.505,185.418L8.577,189.798L7.243,189.798L7.243,179.75Z" style="fill:rgb(158,161,168);fill-rule:nonzero;"/>
            <path id="path948" d="M13.49,179.75L15.156,179.75C15.664,179.75 16.091,179.806 16.438,179.919C16.759,180.028 17.046,180.221 17.297,180.498C17.675,180.915 17.944,181.457 18.104,182.125C18.265,182.772 18.345,183.698 18.345,184.904C18.345,186.01 18.256,186.913 18.078,187.611C17.905,188.279 17.618,188.789 17.219,189.141C16.729,189.579 15.85,189.798 14.583,189.798L13.49,189.798L13.49,179.75ZM14.844,188.614C15.668,188.614 16.219,188.364 16.497,187.865C16.783,187.366 16.926,186.397 16.926,184.956C16.926,183.407 16.79,182.342 16.516,181.761C16.243,181.18 15.742,180.889 15.013,180.889L14.844,180.889L14.844,188.614Z" style="fill:rgb(158,161,168);fill-rule:nonzero;"/>
            <path id="path950" d="M22.445,179.75L24.228,179.75C24.965,179.75 25.514,179.926 25.874,180.277C26.33,180.733 26.558,181.429 26.558,182.366C26.558,183.086 26.436,183.665 26.193,184.104C25.955,184.538 25.612,184.806 25.165,184.911L27.013,189.798L25.64,189.798L23.798,184.878L23.798,189.798L22.445,189.798L22.445,179.75ZM23.798,184.201C24.323,184.201 24.694,184.08 24.911,183.837C25.128,183.594 25.237,183.184 25.237,182.607C25.237,182.295 25.213,182.028 25.165,181.806C25.122,181.585 25.05,181.405 24.95,181.266C24.855,181.127 24.729,181.026 24.573,180.96C24.421,180.895 24.239,180.863 24.026,180.863L23.798,180.863L23.798,184.201Z" style="fill:rgb(158,161,168);fill-rule:nonzero;"/>
            <rect id="path952" x="28.067" y="179.75" width="1.354" height="10.048" style="fill:rgb(158,161,168);fill-rule:nonzero;"/>
            <path id="path954" d="M34.334,179.958L34.334,181.279C33.922,180.984 33.551,180.837 33.222,180.837C32.866,180.837 32.575,180.963 32.35,181.214C32.124,181.453 32.011,181.772 32.011,182.171C32.011,182.522 32.091,182.824 32.252,183.075C32.334,183.21 32.469,183.383 32.655,183.596C32.846,183.809 33.091,184.065 33.391,184.364C33.942,184.924 34.317,185.407 34.517,185.815C34.716,186.21 34.816,186.694 34.816,187.266C34.816,188.043 34.597,188.683 34.159,189.186C33.721,189.676 33.159,189.922 32.473,189.922C31.896,189.922 31.404,189.763 30.996,189.447L30.996,188.106C31.478,188.457 31.916,188.633 32.311,188.633C32.679,188.633 32.968,188.512 33.176,188.269C33.384,188.021 33.488,187.687 33.488,187.266C33.488,186.902 33.408,186.574 33.248,186.284C33.165,186.145 33.05,185.987 32.903,185.809C32.755,185.626 32.571,185.425 32.35,185.203C32.007,184.865 31.723,184.566 31.497,184.305C31.271,184.045 31.104,183.817 30.996,183.622C30.788,183.24 30.684,182.759 30.684,182.177C30.684,181.392 30.888,180.77 31.295,180.31C31.707,179.845 32.261,179.613 32.955,179.613C33.436,179.613 33.896,179.728 34.334,179.958L34.334,179.958Z" style="fill:rgb(158,161,168);fill-rule:nonzero;"/>
            <path id="path956" d="M35.955,179.75L39.554,179.75L39.554,180.895L37.308,180.895L37.308,184.078L39.3,184.078L39.3,185.223L37.308,185.223L37.308,188.653L39.554,188.653L39.554,189.798L35.955,189.798L35.955,179.75Z" style="fill:rgb(158,161,168);fill-rule:nonzero;"/>
        </g>
        <g id="text1045" transform="matrix(0.835383,0,0,1.19706,0,-14)">
            <path id="path1149" d="M2.394,168.571L3.752,168.571L3.752,177.499L5.971,177.499L5.971,178.648L2.394,178.648L2.394,168.571Z" style="fill:rgb(158,161,168);fill-rule:nonzero;"/>
            <path id="path1151" d="M11.877,173.858C11.877,175.637 11.679,176.901 11.283,177.649C10.887,178.398 10.224,178.772 9.293,178.772C8.314,178.772 7.624,178.369 7.224,177.565C6.828,176.777 6.63,175.378 6.63,173.368C6.63,171.575 6.826,170.307 7.217,169.563C7.613,168.815 8.283,168.441 9.227,168.441C10.071,168.441 10.698,168.73 11.107,169.309C11.377,169.696 11.572,170.246 11.694,170.96C11.816,171.621 11.877,172.587 11.877,173.858L11.877,173.858ZM10.454,174.001C10.454,172.256 10.376,171.099 10.219,170.529C10.063,169.955 9.743,169.668 9.26,169.668C8.777,169.668 8.455,169.931 8.294,170.457C8.137,170.988 8.059,172.054 8.059,173.655C8.059,175.13 8.142,176.153 8.307,176.723C8.477,177.262 8.794,177.532 9.26,177.532C9.717,177.532 10.03,177.28 10.2,176.775C10.369,176.274 10.454,175.35 10.454,174.001L10.454,174.001Z" style="fill:rgb(158,161,168);fill-rule:nonzero;"/>
            <path id="path1153" d="M18.273,173.858C18.273,175.637 18.075,176.901 17.679,177.649C17.283,178.398 16.62,178.772 15.688,178.772C14.709,178.772 14.02,178.369 13.62,177.565C13.224,176.777 13.026,175.378 13.026,173.368C13.026,171.575 13.221,170.307 13.613,169.563C14.009,168.815 14.679,168.441 15.623,168.441C16.467,168.441 17.094,168.73 17.503,169.309C17.773,169.696 17.968,170.246 18.09,170.96C18.212,171.621 18.273,172.587 18.273,173.858L18.273,173.858ZM16.85,174.001C16.85,172.256 16.772,171.099 16.615,170.529C16.459,169.955 16.139,169.668 15.656,169.668C15.173,169.668 14.851,169.931 14.69,170.457C14.533,170.988 14.455,172.054 14.455,173.655C14.455,175.13 14.538,176.153 14.703,176.723C14.873,177.262 15.19,177.532 15.656,177.532C16.113,177.532 16.426,177.28 16.596,176.775C16.765,176.274 16.85,175.35 16.85,174.001L16.85,174.001Z" style="fill:rgb(158,161,168);fill-rule:nonzero;"/>
            <path id="path1155" d="M19.624,168.571L21.412,168.571C22.274,168.571 22.9,168.789 23.292,169.224C23.683,169.663 23.879,170.359 23.879,171.312C23.879,172.652 23.485,173.518 22.698,173.91C22.302,174.088 21.73,174.177 20.981,174.177L20.981,178.648L19.624,178.648L19.624,168.571ZM20.981,173.016C21.543,173.016 21.93,172.902 22.143,172.676C22.361,172.446 22.469,172.037 22.469,171.449C22.469,170.849 22.365,170.409 22.156,170.131C21.947,169.852 21.619,169.713 21.171,169.713L20.981,169.713L20.981,173.016Z" style="fill:rgb(158,161,168);fill-rule:nonzero;"/>
            <path id="path1157" d="M24.923,168.571L28.532,168.571L28.532,169.72L26.281,169.72L26.281,172.911L28.278,172.911L28.278,174.06L26.281,174.06L26.281,177.499L28.532,177.499L28.532,178.648L24.923,178.648L24.923,168.571Z" style="fill:rgb(158,161,168);fill-rule:nonzero;"/>
            <path id="path1159" d="M29.779,168.571L31.45,168.571C31.959,168.571 32.387,168.628 32.735,168.741C33.057,168.85 33.345,169.043 33.597,169.322C33.976,169.739 34.245,170.283 34.406,170.953C34.567,171.602 34.648,172.53 34.648,173.74C34.648,174.85 34.559,175.755 34.38,176.455C34.206,177.125 33.919,177.636 33.519,177.989C33.027,178.428 32.146,178.648 30.875,178.648L29.779,178.648L29.779,168.571ZM31.137,177.46C31.963,177.46 32.516,177.21 32.794,176.71C33.081,176.209 33.225,175.237 33.225,173.792C33.225,172.239 33.088,171.171 32.814,170.588C32.54,170.005 32.037,169.713 31.306,169.713L31.137,169.713L31.137,177.46Z" style="fill:rgb(158,161,168);fill-rule:nonzero;"/>
        </g>
        <g id="text1049" transform="matrix(0.835383,0,0,1.19706,0,-16)">
            <path id="path1136" d="M2.394,148.522L6.813,148.522L6.813,149.71L5.292,149.71L5.292,158.599L3.96,158.599L3.96,149.71L2.394,149.71L2.394,148.522Z" style="fill:rgb(158,161,168);fill-rule:nonzero;"/>
            <path id="path1138" d="M7.557,148.522L9.345,148.522C10.084,148.522 10.635,148.698 10.996,149.051C11.453,149.507 11.681,150.206 11.681,151.146C11.681,151.868 11.559,152.449 11.316,152.888C11.076,153.323 10.733,153.593 10.285,153.697L12.138,158.599L10.761,158.599L8.914,153.665L8.914,158.599L7.557,158.599L7.557,148.522ZM8.914,152.986C9.44,152.986 9.812,152.864 10.03,152.621C10.248,152.377 10.356,151.966 10.356,151.387C10.356,151.074 10.332,150.806 10.285,150.584C10.241,150.362 10.169,150.182 10.069,150.043C9.973,149.903 9.847,149.801 9.691,149.736C9.538,149.671 9.356,149.638 9.142,149.638L8.914,149.638L8.914,152.986Z" style="fill:rgb(158,161,168);fill-rule:nonzero;"/>
            <rect id="path1140" x="13.195" y="148.522" width="1.357" height="10.077" style="fill:rgb(158,161,168);fill-rule:nonzero;"/>
            <path id="path1142" d="M18.534,153.299L21.001,153.299L21.001,153.691C21.001,155.653 20.829,156.978 20.485,157.665C20.146,158.37 19.511,158.723 18.58,158.723C17.618,158.723 16.933,158.331 16.524,157.548C16.119,156.765 15.917,155.449 15.917,153.599C15.917,151.485 16.139,150.077 16.583,149.377C17,148.72 17.642,148.391 18.508,148.391C19.169,148.391 19.685,148.55 20.055,148.868C20.429,149.19 20.72,149.718 20.929,150.454L19.663,150.982C19.606,150.717 19.543,150.495 19.474,150.317C19.404,150.134 19.328,149.993 19.245,149.892C19.08,149.688 18.832,149.586 18.501,149.586C18.049,149.586 17.74,149.864 17.575,150.421C17.409,151.004 17.327,152.051 17.327,153.56C17.327,155.088 17.411,156.121 17.581,156.66C17.751,157.2 18.071,157.47 18.541,157.47C18.971,157.47 19.274,157.278 19.448,156.895C19.626,156.486 19.715,155.829 19.715,154.924L19.715,154.65L19.715,154.448L18.534,154.448L18.534,153.299Z" style="fill:rgb(158,161,168);fill-rule:nonzero;"/>
            <rect id="path1144" x="25.126" y="148.522" width="1.357" height="10.077" style="fill:rgb(158,161,168);fill-rule:nonzero;"/>
            <path id="path1146" d="M28.05,148.522L29.316,148.522L30.667,152.542C31.058,153.678 31.404,154.89 31.704,156.177C31.596,155.399 31.515,154.694 31.463,154.063C31.411,153.432 31.385,152.838 31.385,152.281L31.385,148.522L32.749,148.522L32.749,158.599L31.476,158.599L29.955,154.063C29.816,153.641 29.683,153.208 29.557,152.764C29.435,152.32 29.322,151.855 29.218,151.367C29.209,151.307 29.194,151.233 29.172,151.146C29.155,151.059 29.133,150.958 29.107,150.845C29.12,150.958 29.131,151.056 29.139,151.139C29.148,151.217 29.155,151.285 29.159,151.341L29.231,152.366L29.303,153.613C29.307,153.682 29.309,153.767 29.309,153.867C29.313,153.967 29.316,154.08 29.316,154.206L29.387,158.599L28.05,158.599L28.05,148.522Z" style="fill:rgb(158,161,168);fill-rule:nonzero;"/>
        </g>
        <g id="text1053" transform="matrix(0.835383,0,0,1.19706,0,-18)">
            <path id="path1121" d="M2.394,128.473L6.813,128.473L6.813,129.661L5.292,129.661L5.292,138.55L3.96,138.55L3.96,129.661L2.394,129.661L2.394,128.473Z" style="fill:rgb(158,161,168);fill-rule:nonzero;"/>
            <path id="path1123" d="M8.81,128.473L9.867,128.473L12.027,138.55L10.683,138.55L10.304,136.585L8.307,136.585L7.922,138.55L6.617,138.55L8.81,128.473ZM10.108,135.534L9.808,133.929C9.608,132.837 9.445,131.671 9.319,130.431C9.258,131.035 9.179,131.649 9.084,132.271C8.988,132.889 8.875,133.546 8.744,134.242L8.496,135.534L10.108,135.534Z" style="fill:rgb(158,161,168);fill-rule:nonzero;"/>
            <path id="path1125" d="M12.83,128.473L14.618,128.473C15.48,128.473 16.106,128.69 16.498,129.125C16.889,129.565 17.085,130.261 17.085,131.214C17.085,132.554 16.691,133.42 15.904,133.811C15.508,133.99 14.936,134.079 14.187,134.079L14.187,138.55L12.83,138.55L12.83,128.473ZM14.187,132.917C14.749,132.917 15.136,132.804 15.349,132.578C15.567,132.347 15.675,131.938 15.675,131.351C15.675,130.75 15.571,130.311 15.362,130.033C15.153,129.754 14.825,129.615 14.377,129.615L14.187,129.615L14.187,132.917Z" style="fill:rgb(158,161,168);fill-rule:nonzero;"/>
            <path id="path1127" d="M20.094,128.473L24.512,128.473L24.512,129.661L22.992,129.661L22.992,138.55L21.66,138.55L21.66,129.661L20.094,129.661L20.094,128.473Z" style="fill:rgb(158,161,168);fill-rule:nonzero;"/>
            <path id="path1129" d="M25.256,128.473L27.044,128.473C27.784,128.473 28.334,128.649 28.696,129.001C29.152,129.458 29.381,130.157 29.381,131.096C29.381,131.819 29.259,132.399 29.015,132.839C28.776,133.274 28.432,133.544 27.984,133.648L29.838,138.55L28.461,138.55L26.614,133.616L26.614,138.55L25.256,138.55L25.256,128.473ZM26.614,132.937C27.14,132.937 27.512,132.815 27.73,132.571C27.947,132.328 28.056,131.917 28.056,131.338C28.056,131.025 28.032,130.757 27.984,130.535C27.941,130.313 27.869,130.133 27.769,129.993C27.673,129.854 27.547,129.752 27.39,129.687C27.238,129.621 27.055,129.589 26.842,129.589L26.614,129.589L26.614,132.937Z" style="fill:rgb(158,161,168);fill-rule:nonzero;"/>
            <rect id="path1131" x="30.895" y="128.473" width="1.357" height="10.077" style="fill:rgb(158,161,168);fill-rule:nonzero;"/>
            <path id="path1133" d="M36.234,133.25L38.701,133.25L38.701,133.642C38.701,135.604 38.529,136.929 38.185,137.616C37.846,138.321 37.21,138.674 36.279,138.674C35.318,138.674 34.633,138.282 34.224,137.499C33.819,136.716 33.617,135.399 33.617,133.55C33.617,131.436 33.838,130.028 34.282,129.328C34.7,128.671 35.342,128.342 36.208,128.342C36.869,128.342 37.384,128.501 37.754,128.819C38.128,129.141 38.42,129.669 38.629,130.405L37.363,130.933C37.306,130.668 37.243,130.446 37.173,130.268C37.104,130.085 37.028,129.943 36.945,129.843C36.78,129.639 36.532,129.537 36.201,129.537C35.749,129.537 35.44,129.815 35.274,130.372C35.109,130.955 35.026,132.001 35.026,133.511C35.026,135.038 35.111,136.072 35.281,136.611C35.45,137.151 35.77,137.42 36.24,137.42C36.671,137.42 36.973,137.229 37.147,136.846C37.326,136.437 37.415,135.78 37.415,134.875L37.415,134.601L37.415,134.399L36.234,134.399L36.234,133.25Z" style="fill:rgb(158,161,168);fill-rule:nonzero;"/>
        </g>
        <g id="text1057" transform="matrix(0.835383,0,0,1.19706,0,-20)">
            <path id="path1110" d="M6.055,108.632L6.055,109.957C5.642,109.661 5.27,109.513 4.939,109.513C4.583,109.513 4.291,109.64 4.065,109.892C3.839,110.131 3.726,110.451 3.726,110.851C3.726,111.204 3.806,111.506 3.967,111.759C4.05,111.893 4.185,112.067 4.372,112.281C4.563,112.494 4.809,112.751 5.109,113.051C5.662,113.612 6.038,114.097 6.238,114.506C6.438,114.902 6.538,115.387 6.538,115.962C6.538,116.74 6.319,117.382 5.879,117.887C5.44,118.379 4.876,118.624 4.189,118.624C3.61,118.624 3.116,118.466 2.707,118.148L2.707,116.803C3.19,117.156 3.63,117.332 4.026,117.332C4.396,117.332 4.685,117.21 4.894,116.967C5.103,116.719 5.207,116.384 5.207,115.962C5.207,115.596 5.127,115.268 4.966,114.976C4.883,114.837 4.768,114.678 4.62,114.5C4.472,114.317 4.287,114.115 4.065,113.893C3.721,113.553 3.436,113.253 3.21,112.992C2.984,112.731 2.816,112.503 2.707,112.307C2.499,111.924 2.394,111.441 2.394,110.858C2.394,110.07 2.599,109.446 3.008,108.985C3.421,108.519 3.976,108.286 4.672,108.286C5.155,108.286 5.616,108.402 6.055,108.632L6.055,108.632Z" style="fill:rgb(158,161,168);fill-rule:nonzero;"/>
            <path id="path1112" d="M11.636,108.587L11.636,109.807C11.287,109.637 10.996,109.553 10.761,109.553C10.439,109.553 10.163,109.633 9.932,109.794C9.702,109.951 9.51,110.194 9.358,110.525C9.21,110.856 9.099,111.276 9.025,111.785C8.955,112.289 8.921,112.888 8.921,113.579C8.921,116.068 9.558,117.313 10.833,117.313C11.055,117.313 11.322,117.243 11.636,117.104L11.636,118.35C11.309,118.533 10.944,118.624 10.539,118.624C8.499,118.624 7.478,116.958 7.478,113.625C7.478,111.824 7.726,110.484 8.222,109.605C8.723,108.726 9.486,108.286 10.513,108.286C10.892,108.286 11.266,108.387 11.636,108.587L11.636,108.587Z" style="fill:rgb(158,161,168);fill-rule:nonzero;"/>
            <path id="path1114" d="M14.572,108.424L15.63,108.424L17.79,118.5L16.446,118.5L16.067,116.536L14.07,116.536L13.685,118.5L12.38,118.5L14.572,108.424ZM15.871,115.485L15.571,113.88C15.371,112.788 15.208,111.622 15.081,110.381C15.021,110.986 14.942,111.6 14.847,112.222C14.751,112.84 14.638,113.497 14.507,114.193L14.259,115.485L15.871,115.485Z" style="fill:rgb(158,161,168);fill-rule:nonzero;"/>
            <path id="path1116" d="M18.593,108.424L19.95,108.424L19.95,117.352L22.169,117.352L22.169,118.5L18.593,118.5L18.593,108.424Z" style="fill:rgb(158,161,168);fill-rule:nonzero;"/>
            <path id="path1118" d="M23.031,108.424L26.64,108.424L26.64,109.572L24.388,109.572L24.388,112.764L26.385,112.764L26.385,113.912L24.388,113.912L24.388,117.352L26.64,117.352L26.64,118.5L23.031,118.5L23.031,108.424Z" style="fill:rgb(158,161,168);fill-rule:nonzero;"/>
        </g>
        <g id="text1061" transform="matrix(0.835383,0,0,1.19706,0,-22)">
            <path id="path1095" d="M2.394,88.498L3.752,88.498L3.752,97.427L5.971,97.427L5.971,98.575L2.394,98.575L2.394,88.498Z" style="fill:rgb(158,161,168);fill-rule:nonzero;"/>
            <rect id="path1097" x="6.832" y="88.498" width="1.357" height="10.077" style="fill:rgb(158,161,168);fill-rule:nonzero;"/>
            <path id="path1099" d="M9.756,88.498L11.022,88.498L12.373,92.519C12.765,93.654 13.111,94.866 13.411,96.154C13.302,95.375 13.221,94.67 13.169,94.039C13.117,93.408 13.091,92.815 13.091,92.258L13.091,88.498L14.455,88.498L14.455,98.575L13.182,98.575L11.662,94.039C11.522,93.617 11.39,93.184 11.264,92.741C11.142,92.297 11.029,91.831 10.924,91.344C10.915,91.283 10.9,91.209 10.878,91.122C10.861,91.035 10.839,90.935 10.813,90.822C10.826,90.935 10.837,91.033 10.846,91.115C10.855,91.194 10.861,91.261 10.865,91.318L10.937,92.342L11.009,93.589C11.013,93.659 11.016,93.743 11.016,93.844C11.02,93.944 11.022,94.057 11.022,94.183L11.094,98.575L9.756,98.575L9.756,88.498Z" style="fill:rgb(158,161,168);fill-rule:nonzero;"/>
            <rect id="path1101" x="18.012" y="94.607" width="2.376" height="1.018" style="fill:rgb(158,161,168);fill-rule:nonzero;"/>
            <path id="path1103" d="M23.931,88.498L27.54,88.498L27.54,89.647L25.289,89.647L25.289,92.838L27.286,92.838L27.286,93.987L25.289,93.987L25.289,97.427L27.54,97.427L27.54,98.575L23.931,98.575L23.931,88.498Z" style="fill:rgb(158,161,168);fill-rule:nonzero;"/>
            <path id="path1105" d="M28.102,88.498L29.42,88.498L30.118,90.45C30.392,91.22 30.556,91.783 30.608,92.14C30.656,91.918 30.708,91.703 30.765,91.494C30.825,91.285 30.889,91.076 30.954,90.867L31.045,90.574L31.691,88.498L33.062,88.498L31.195,93.458L33.062,98.575L31.691,98.575L31.026,96.656C30.891,96.274 30.782,95.93 30.699,95.625C30.617,95.321 30.558,95.051 30.523,94.816C30.488,95.107 30.429,95.386 30.347,95.651L30.118,96.369L30.001,96.748L29.42,98.575L27.984,98.575L29.89,93.458L28.102,88.498Z" style="fill:rgb(158,161,168);fill-rule:nonzero;"/>
            <path id="path1107" d="M33.799,88.498L35.588,88.498C36.449,88.498 37.076,88.716 37.467,89.151C37.859,89.59 38.055,90.287 38.055,91.239C38.055,92.58 37.661,93.445 36.873,93.837C36.477,94.015 35.905,94.105 35.157,94.105L35.157,98.575L33.799,98.575L33.799,88.498ZM35.157,92.943C35.718,92.943 36.105,92.83 36.318,92.604C36.536,92.373 36.645,91.964 36.645,91.377C36.645,90.776 36.54,90.337 36.332,90.058C36.123,89.78 35.794,89.641 35.346,89.641L35.157,89.641L35.157,92.943Z" style="fill:rgb(158,161,168);fill-rule:nonzero;"/>
        </g>
        <g id="text1065" transform="matrix(0.835383,0,0,1.19706,0,-24)">
            <path id="path1084" d="M2.394,68.325L4.065,68.325C4.574,68.325 5.003,68.382 5.351,68.495C5.673,68.604 5.96,68.797 6.212,69.076C6.591,69.493 6.86,70.037 7.021,70.707C7.182,71.356 7.263,72.285 7.263,73.494C7.263,74.604 7.174,75.509 6.995,76.209C6.821,76.879 6.534,77.39 6.134,77.743C5.642,78.182 4.761,78.402 3.491,78.402L2.394,78.402L2.394,68.325ZM3.752,77.214C4.578,77.214 5.131,76.964 5.409,76.464C5.696,75.963 5.84,74.991 5.84,73.546C5.84,71.993 5.703,70.925 5.429,70.342C5.155,69.759 4.652,69.467 3.921,69.467L3.752,69.467L3.752,77.214Z" style="fill:rgb(158,161,168);fill-rule:nonzero;"/>
            <path id="path1086" d="M8.607,68.325L12.216,68.325L12.216,69.474L9.965,69.474L9.965,72.665L11.962,72.665L11.962,73.814L9.965,73.814L9.965,77.253L12.216,77.253L12.216,78.402L8.607,78.402L8.607,68.325Z" style="fill:rgb(158,161,168);fill-rule:nonzero;"/>
            <path id="path1088" d="M17.418,68.488L17.418,69.709C17.07,69.539 16.778,69.454 16.543,69.454C16.221,69.454 15.945,69.535 15.715,69.696C15.484,69.852 15.293,70.096 15.14,70.427C14.992,70.757 14.881,71.177 14.807,71.686C14.738,72.191 14.703,72.789 14.703,73.481C14.703,75.97 15.34,77.214 16.615,77.214C16.837,77.214 17.105,77.145 17.418,77.005L17.418,78.252C17.092,78.435 16.726,78.526 16.322,78.526C14.281,78.526 13.261,76.86 13.261,73.527C13.261,71.725 13.509,70.385 14.005,69.506C14.505,68.628 15.269,68.188 16.295,68.188C16.674,68.188 17.048,68.288 17.418,68.488L17.418,68.488Z" style="fill:rgb(158,161,168);fill-rule:nonzero;"/>
            <path id="path1090" d="M20.355,68.325L21.412,68.325L23.572,78.402L22.228,78.402L21.849,76.438L19.852,76.438L19.467,78.402L18.162,78.402L20.355,68.325ZM21.654,75.387L21.353,73.781C21.153,72.689 20.99,71.523 20.864,70.283C20.803,70.888 20.725,71.501 20.629,72.124C20.533,72.741 20.42,73.398 20.29,74.095L20.042,75.387L21.654,75.387Z" style="fill:rgb(158,161,168);fill-rule:nonzero;"/>
            <path id="path1092" d="M23.102,68.325L24.538,68.325L25.204,70.518C25.226,70.583 25.247,70.655 25.269,70.733C25.291,70.812 25.317,70.897 25.348,70.988C25.596,71.78 25.765,72.446 25.857,72.985C25.935,72.446 26,72.069 26.052,71.856L26.261,70.955L26.34,70.603L26.901,68.325L28.317,68.325L26.561,74.068L26.561,78.402L25.204,78.402L25.204,74.068L23.102,68.325Z" style="fill:rgb(158,161,168);fill-rule:nonzero;"/>
        </g>
        <g id="text1069" transform="matrix(0.835383,0,0,1.19706,0,-26)">
            <path id="path1071" d="M4.587,48.276L5.644,48.276L7.805,58.353L6.46,58.353L6.082,56.388L4.084,56.388L3.699,58.353L2.394,58.353L4.587,48.276ZM5.886,55.338L5.586,53.732C5.385,52.64 5.222,51.474 5.096,50.234C5.035,50.839 4.957,51.452 4.861,52.074C4.765,52.692 4.652,53.349 4.522,54.045L4.274,55.338L5.886,55.338Z" style="fill:rgb(158,161,168);fill-rule:nonzero;"/>
            <path id="path1073" d="M7.596,48.276L12.014,48.276L12.014,49.464L10.493,49.464L10.493,58.353L9.162,58.353L9.162,49.464L7.596,49.464L7.596,48.276Z" style="fill:rgb(158,161,168);fill-rule:nonzero;"/>
            <path id="path1075" d="M11.955,48.276L16.374,48.276L16.374,49.464L14.853,49.464L14.853,58.353L13.522,58.353L13.522,49.464L11.955,49.464L11.955,48.276Z" style="fill:rgb(158,161,168);fill-rule:nonzero;"/>
            <path id="path1077" d="M18.371,48.276L19.428,48.276L21.588,58.353L20.244,58.353L19.865,56.388L17.868,56.388L17.483,58.353L16.178,58.353L18.371,48.276ZM19.67,55.338L19.369,53.732C19.169,52.64 19.006,51.474 18.88,50.234C18.819,50.839 18.741,51.452 18.645,52.074C18.549,52.692 18.436,53.349 18.306,54.045L18.058,55.338L19.67,55.338Z" style="fill:rgb(158,161,168);fill-rule:nonzero;"/>
            <path id="path1079" d="M26.268,48.439L26.268,49.66C25.92,49.49 25.628,49.405 25.393,49.405C25.071,49.405 24.795,49.486 24.564,49.647C24.334,49.803 24.142,50.047 23.99,50.378C23.842,50.708 23.731,51.128 23.657,51.637C23.588,52.142 23.553,52.74 23.553,53.432C23.553,55.921 24.19,57.165 25.465,57.165C25.687,57.165 25.955,57.095 26.268,56.956L26.268,58.203C25.941,58.385 25.576,58.477 25.171,58.477C23.131,58.477 22.11,56.81 22.11,53.478C22.11,51.676 22.358,50.336 22.854,49.457C23.355,48.578 24.118,48.139 25.145,48.139C25.524,48.139 25.898,48.239 26.268,48.439L26.268,48.439Z" style="fill:rgb(158,161,168);fill-rule:nonzero;"/>
            <path id="path1081" d="M27.403,48.276L28.761,48.276L28.761,53.158L30.654,48.276L32.024,48.276L30.04,53.158L32.181,58.353L30.654,58.353L28.761,53.158L28.761,58.353L27.403,58.353L27.403,48.276Z" style="fill:rgb(158,161,168);fill-rule:nonzero;"/>
        </g>
        <g id="g1290" transform="matrix(0.958333,0,0,1,11.25,0)">
            <rect id="rect1280" x="222" y="0" width="48" height="380" style="fill:rgb(158,161,168);"/>
            <g id="text1164" transform="matrix(0.835383,0,0,1.19706,-33.0673,0)">
                <path id="path1166" d="M320.742,12.192L323.209,12.192L323.209,12.583C323.209,14.545 323.037,15.87 322.693,16.558C322.354,17.263 321.719,17.615 320.788,17.615C319.826,17.615 319.141,17.223 318.732,16.44C318.327,15.657 318.125,14.341 318.125,12.492C318.125,10.377 318.347,8.97 318.791,8.269C319.208,7.612 319.85,7.284 320.716,7.284C321.377,7.284 321.893,7.443 322.263,7.76C322.637,8.082 322.928,8.611 323.137,9.346L321.871,9.875C321.814,9.609 321.751,9.387 321.682,9.209C321.612,9.026 321.536,8.885 321.453,8.785C321.288,8.58 321.04,8.478 320.709,8.478C320.257,8.478 319.948,8.757 319.783,9.313C319.617,9.896 319.534,10.943 319.534,12.453C319.534,13.98 319.619,15.013 319.789,15.553C319.959,16.092 320.279,16.362 320.748,16.362C321.179,16.362 321.482,16.171 321.656,15.788C321.834,15.379 321.923,14.722 321.923,13.817L321.923,13.543L321.923,13.34L320.742,13.34L320.742,12.192Z" style="fill:rgb(44,45,48);fill-rule:nonzero;"/>
                <path id="path1168" d="M324.566,7.414L325.924,7.414L325.924,16.342L328.143,16.342L328.143,17.491L324.566,17.491L324.566,7.414Z" style="fill:rgb(44,45,48);fill-rule:nonzero;"/>
                <path id="path1170" d="M334.049,12.701C334.049,14.48 333.851,15.744 333.455,16.493C333.059,17.241 332.396,17.615 331.465,17.615C330.486,17.615 329.796,17.213 329.396,16.408C329,15.62 328.802,14.221 328.802,12.211C328.802,10.419 328.998,9.15 329.389,8.406C329.785,7.658 330.455,7.284 331.4,7.284C332.244,7.284 332.87,7.573 333.279,8.152C333.549,8.539 333.745,9.089 333.867,9.803C333.988,10.464 334.049,11.43 334.049,12.701ZM332.627,12.844C332.627,11.1 332.548,9.942 332.392,9.372C332.235,8.798 331.915,8.511 331.432,8.511C330.949,8.511 330.627,8.774 330.466,9.3C330.31,9.831 330.231,10.897 330.231,12.498C330.231,13.973 330.314,14.996 330.479,15.566C330.649,16.105 330.967,16.375 331.432,16.375C331.889,16.375 332.202,16.123 332.372,15.618C332.542,15.118 332.627,14.193 332.627,12.844L332.627,12.844Z" style="fill:rgb(44,45,48);fill-rule:nonzero;"/>
                <path id="path1172" d="M335.4,7.414L337.241,7.414C338.681,7.414 339.401,8.308 339.401,10.097C339.401,10.78 339.307,11.287 339.12,11.617C338.933,11.948 338.603,12.198 338.128,12.368C338.672,12.585 339.044,12.864 339.244,13.203C339.449,13.538 339.551,14.043 339.551,14.717C339.551,16.567 338.759,17.491 337.175,17.491L335.4,17.491L335.4,7.414ZM336.679,11.852C337.206,11.852 337.571,11.73 337.776,11.487C337.98,11.23 338.083,10.78 338.083,10.136C338.083,9.048 337.691,8.504 336.908,8.504L336.803,8.504L336.745,8.504C336.71,8.504 336.688,8.506 336.679,8.511L336.679,11.852ZM336.679,16.329C337.236,16.329 337.621,16.21 337.835,15.97C338.048,15.731 338.154,15.298 338.154,14.672C338.154,14.028 338.043,13.577 337.822,13.321C337.604,13.06 337.223,12.929 336.679,12.929L336.679,16.329Z" style="fill:rgb(44,45,48);fill-rule:nonzero;"/>
                <path id="path1174" d="M342.397,7.414L343.454,7.414L345.614,17.491L344.27,17.491L343.891,15.527L341.894,15.527L341.509,17.491L340.204,17.491L342.397,7.414ZM343.695,14.476L343.395,12.87C343.195,11.778 343.032,10.612 342.906,9.372C342.845,9.977 342.766,10.59 342.671,11.213C342.575,11.83 342.462,12.487 342.331,13.184L342.083,14.476L343.695,14.476Z" style="fill:rgb(44,45,48);fill-rule:nonzero;"/>
                <path id="path1176" d="M346.417,7.414L347.774,7.414L347.774,16.342L349.993,16.342L349.993,17.491L346.417,17.491L346.417,7.414Z" style="fill:rgb(44,45,48);fill-rule:nonzero;"/>
            </g>
        </g>
        <g id="text1253">
            <path id="path1255" d="M84.608,11.508C85.853,12.049 86.476,12.997 86.476,14.352C86.476,15.404 86.085,16.276 85.304,16.969C84.522,17.656 83.541,18 82.358,18C81.213,18 80.241,17.648 79.444,16.945C78.647,16.237 78.249,15.375 78.249,14.359C78.249,13.005 78.934,12.055 80.304,11.508C79.095,11.096 78.491,10.255 78.491,8.984C78.491,7.979 78.851,7.148 79.569,6.492C80.293,5.836 81.207,5.508 82.312,5.508C83.447,5.508 84.384,5.831 85.124,6.477C85.879,7.122 86.257,7.927 86.257,8.891C86.257,9.516 86.127,10.036 85.866,10.453C85.606,10.87 85.187,11.221 84.608,11.508ZM83.155,14C83.155,13.187 82.89,12.781 82.358,12.781C82.244,12.781 82.137,12.812 82.038,12.875C81.944,12.938 81.861,13.023 81.788,13.133C81.72,13.242 81.666,13.375 81.624,13.531C81.588,13.682 81.569,13.849 81.569,14.031C81.569,14.391 81.642,14.68 81.788,14.898C81.939,15.112 82.134,15.219 82.374,15.219C82.489,15.219 82.593,15.19 82.686,15.133C82.785,15.07 82.869,14.987 82.937,14.883C83.004,14.773 83.056,14.646 83.093,14.5C83.134,14.349 83.155,14.182 83.155,14L83.155,14ZM83.054,9.156C83.054,8.839 82.991,8.583 82.866,8.391C82.741,8.198 82.575,8.102 82.366,8.102C82.163,8.102 82.002,8.193 81.882,8.375C81.762,8.557 81.702,8.799 81.702,9.102C81.702,9.836 81.929,10.203 82.382,10.203C82.83,10.203 83.054,9.854 83.054,9.156L83.054,9.156Z" style="fill:rgb(158,161,168);fill-rule:nonzero;"/>
            <path id="path1257" d="M101.515,17.789L98.147,17.789L97.905,16.258L95.71,16.258L95.444,17.789L92.077,17.789L94.976,5.727L98.96,5.727L101.515,17.789ZM97.522,13.672L97.312,12.266C97.306,12.26 97.296,12.19 97.28,12.055C97.27,11.94 97.215,11.487 97.116,10.695C97.106,10.607 97.093,10.487 97.077,10.336C97.061,10.18 97.041,9.984 97.015,9.75L96.913,8.609C96.903,8.719 96.887,8.841 96.866,8.977C96.85,9.112 96.832,9.26 96.811,9.422C96.775,9.745 96.749,9.969 96.733,10.094C96.718,10.219 96.707,10.294 96.702,10.32L96.475,11.781L96.147,13.672L97.522,13.672Z" style="fill:rgb(158,161,168);fill-rule:nonzero;"/>
            <path id="path1259" d="M106.663,17.789L103.405,17.789L103.405,8.617L101.608,8.617L101.608,5.727L108.53,5.727L108.53,8.617L106.663,8.617L106.663,17.789Z" style="fill:rgb(158,161,168);fill-rule:nonzero;"/>
            <path id="path1261" d="M113.601,17.789L110.343,17.789L110.343,8.617L108.546,8.617L108.546,5.727L115.468,5.727L115.468,8.617L113.601,8.617L113.601,17.789Z" style="fill:rgb(158,161,168);fill-rule:nonzero;"/>
            <path id="path1263" d="M124.733,17.789L121.366,17.789L121.124,16.258L118.929,16.258L118.663,17.789L115.296,17.789L118.194,5.727L122.179,5.727L124.733,17.789ZM120.741,13.672L120.53,12.266C120.525,12.26 120.515,12.19 120.499,12.055C120.489,11.94 120.434,11.487 120.335,10.695C120.325,10.607 120.311,10.487 120.296,10.336C120.28,10.18 120.259,9.984 120.233,9.75L120.132,8.609C120.121,8.719 120.106,8.841 120.085,8.977C120.069,9.112 120.051,9.26 120.03,9.422C119.994,9.745 119.968,9.969 119.952,10.094C119.936,10.219 119.926,10.294 119.921,10.32L119.694,11.781L119.366,13.672L120.741,13.672Z" style="fill:rgb(158,161,168);fill-rule:nonzero;"/>
            <path id="path1265" d="M132.452,14.078L132.265,17.562C131.541,17.854 130.892,18 130.319,18C128.97,18 127.835,17.505 126.913,16.516C125.882,15.406 125.366,13.836 125.366,11.805C125.366,9.904 125.851,8.378 126.819,7.227C127.788,6.081 129.082,5.508 130.702,5.508C131.228,5.508 131.765,5.607 132.312,5.805L132.312,9.25C131.827,8.766 131.33,8.523 130.819,8.523C130.153,8.523 129.632,8.807 129.257,9.375C128.882,9.948 128.694,10.74 128.694,11.75C128.694,12.24 128.741,12.677 128.835,13.062C128.929,13.448 129.062,13.773 129.233,14.039C129.41,14.305 129.627,14.508 129.882,14.648C130.137,14.789 130.429,14.859 130.757,14.859C131.319,14.859 131.884,14.599 132.452,14.078L132.452,14.078Z" style="fill:rgb(158,161,168);fill-rule:nonzero;"/>
            <path id="path1267" d="M142.866,17.789L139.351,17.789L137.187,12.227L137.272,17.789L134.015,17.789L134.015,5.727L137.272,5.727L137.187,10.898L139.108,5.727L142.546,5.727L139.944,11.547L142.866,17.789Z" style="fill:rgb(158,161,168);fill-rule:nonzero;"/>
            <path id="path1269" d="M148.608,17.789L148.608,5.727L151.421,5.727C153.03,5.727 154.283,6.159 155.179,7.023C156.356,8.154 156.944,9.734 156.944,11.766C156.944,13.766 156.447,15.31 155.452,16.398C154.603,17.326 153.338,17.789 151.655,17.789L148.608,17.789ZM151.866,14.875C153.033,14.818 153.616,13.812 153.616,11.859C153.616,10.896 153.468,10.135 153.171,9.578C152.874,9.016 152.473,8.734 151.968,8.734L151.866,8.734L151.866,14.875Z" style="fill:rgb(158,161,168);fill-rule:nonzero;"/>
            <path id="path1271" d="M158.327,17.789L158.327,5.727L164.382,5.727L164.382,8.562L161.585,8.562L161.585,10.32L164.093,10.32L164.093,13.047L161.585,13.047L161.585,14.891L164.382,14.891L164.382,17.789L158.327,17.789Z" style="fill:rgb(158,161,168);fill-rule:nonzero;"/>
            <path id="path1273" d="M172.546,14.078L172.358,17.562C171.634,17.854 170.986,18 170.413,18C169.064,18 167.929,17.505 167.007,16.516C165.976,15.406 165.46,13.836 165.46,11.805C165.46,9.904 165.944,8.378 166.913,7.227C167.882,6.081 169.176,5.508 170.796,5.508C171.322,5.508 171.858,5.607 172.405,5.805L172.405,9.25C171.921,8.766 171.423,8.523 170.913,8.523C170.246,8.523 169.726,8.807 169.351,9.375C168.976,9.948 168.788,10.74 168.788,11.75C168.788,12.24 168.835,12.677 168.929,13.062C169.022,13.448 169.155,13.773 169.327,14.039C169.504,14.305 169.72,14.508 169.976,14.648C170.231,14.789 170.522,14.859 170.851,14.859C171.413,14.859 171.978,14.599 172.546,14.078L172.546,14.078Z" style="fill:rgb(158,161,168);fill-rule:nonzero;"/>
            <path id="path1275" d="M182.702,17.789L179.335,17.789L179.093,16.258L176.897,16.258L176.632,17.789L173.265,17.789L176.163,5.727L180.147,5.727L182.702,17.789ZM178.71,13.672L178.499,12.266C178.494,12.26 178.483,12.19 178.468,12.055C178.457,11.94 178.403,11.487 178.304,10.695C178.293,10.607 178.28,10.487 178.265,10.336C178.249,10.18 178.228,9.984 178.202,9.75L178.1,8.609C178.09,8.719 178.074,8.841 178.054,8.977C178.038,9.112 178.02,9.26 177.999,9.422C177.962,9.745 177.936,9.969 177.921,10.094C177.905,10.219 177.895,10.294 177.889,10.32L177.663,11.781L177.335,13.672L178.71,13.672Z" style="fill:rgb(158,161,168);fill-rule:nonzero;"/>
            <path id="path1277" d="M189.046,17.789L185.788,17.789L185.788,12.68L182.796,5.727L186.194,5.727L186.78,7.516C186.895,7.865 186.996,8.201 187.085,8.523C187.179,8.846 187.262,9.156 187.335,9.453C187.455,9.01 187.559,8.63 187.647,8.312C187.736,7.99 187.814,7.729 187.882,7.531L188.476,5.727L191.851,5.727L189.046,12.68L189.046,17.789Z" style="fill:rgb(158,161,168);fill-rule:nonzero;"/>
        </g>
    </g>
</svg>
