<?xml version="1.0" encoding="UTF-8" standalone="no"?>
<!DOCTYPE svg PUBLIC "-//W3C//DTD SVG 1.1//EN" "http://www.w3.org/Graphics/SVG/1.1/DTD/svg11.dtd">
<svg width="100%" height="100%" viewBox="0 0 150 380" version="1.1" xmlns="http://www.w3.org/2000/svg" xmlns:xlink="http://www.w3.org/1999/xlink" xml:space="preserve" xmlns:serif="http://www.serif.com/" style="fill-rule:evenodd;clip-rule:evenodd;stroke-linejoin:round;stroke-miterlimit:2;">
    <g id="Layer-2" serif:id="Layer 2">
        <g id="text989">
        </g>
        <rect id="rect4689" x="0" y="0" width="150" height="380" style="fill:rgb(44,45,48);fill-rule:nonzero;"/>
        <g id="text80" transform="matrix(1.00498,0,0,0.995047,30,4.99997)">
            <path id="path4726" d="M29.851,371.706L29.851,363.943L31.853,363.943L32.903,366.668C32.96,366.829 33.024,367.013 33.094,367.221C33.168,367.429 33.249,367.668 33.336,367.94L33.552,368.624C33.475,367.95 33.416,367.373 33.376,366.894C33.336,366.415 33.316,366.013 33.316,365.687L33.316,363.943L35.317,363.943L35.317,371.706L33.316,371.706L32.26,368.85C32.149,368.545 32.049,368.26 31.958,367.995C31.871,367.727 31.794,367.472 31.727,367.231C31.77,367.777 31.802,368.253 31.822,368.659C31.843,369.065 31.853,369.42 31.853,369.725L31.853,371.706L29.851,371.706Z" style="fill:rgb(158,161,168);fill-rule:nonzero;"/>
            <path id="path4728" d="M39.887,371.706L37.791,371.706L37.791,368.418L35.865,363.943L38.052,363.943L38.429,365.094C38.503,365.319 38.568,365.535 38.625,365.743C38.686,365.951 38.739,366.15 38.786,366.341C38.863,366.056 38.93,365.811 38.987,365.607C39.044,365.399 39.095,365.232 39.138,365.104L39.52,363.943L41.692,363.943L39.887,368.418L39.887,371.706Z" style="fill:rgb(158,161,168);fill-rule:nonzero;"/>
            <path id="path4730" d="M41.894,371.515L41.894,369.076C42.306,369.639 42.752,369.921 43.231,369.921C43.412,369.921 43.56,369.874 43.673,369.78C43.787,369.683 43.844,369.562 43.844,369.418C43.844,369.21 43.72,369.008 43.472,368.81L43.13,368.543C42.902,368.372 42.708,368.203 42.547,368.035C42.386,367.865 42.256,367.69 42.155,367.513C42.054,367.332 41.981,367.146 41.934,366.954C41.887,366.763 41.863,366.562 41.863,366.351C41.863,365.989 41.947,365.61 42.115,365.215C42.199,365.03 42.296,364.863 42.406,364.712C42.517,364.558 42.644,364.422 42.789,364.305C43.184,363.969 43.662,363.802 44.222,363.802C44.721,363.802 45.224,363.934 45.73,364.199L45.73,366.572C45.559,366.308 45.365,366.1 45.147,365.949C44.929,365.795 44.714,365.718 44.503,365.718C44.342,365.718 44.21,365.765 44.106,365.858C43.999,365.949 43.945,366.058 43.945,366.185C43.945,366.393 44.087,366.599 44.372,366.804L44.704,367.05C45.147,367.368 45.463,367.695 45.655,368.03C45.849,368.366 45.946,368.758 45.946,369.207C45.946,369.971 45.713,370.601 45.247,371.098C44.781,371.594 44.191,371.842 43.477,371.842C42.985,371.842 42.457,371.733 41.894,371.515L41.894,371.515Z" style="fill:rgb(158,161,168);fill-rule:nonzero;"/>
            <path id="path4732" d="M49.576,371.706L47.48,371.706L47.48,365.803L46.323,365.803L46.323,363.943L50.778,363.943L50.778,365.803L49.576,365.803L49.576,371.706Z" style="fill:rgb(158,161,168);fill-rule:nonzero;"/>
            <path id="path4734" d="M56.525,371.706L54.428,371.706L54.428,368.584L53.428,368.584L53.428,371.706L51.331,371.706L51.331,363.943L53.428,363.943L53.428,366.688L54.428,366.688L54.428,363.943L56.525,363.943L56.525,371.706Z" style="fill:rgb(158,161,168);fill-rule:nonzero;"/>
            <rect id="path4736" x="57.606" y="363.943" width="2.097" height="7.763" style="fill:rgb(158,161,168);fill-rule:nonzero;"/>
        </g>
        <g id="text4987">
        </g>
        <g id="text1042">
        </g>
        <g id="text1035">
            <path id="path1216" d="M4,55.958L6.896,55.958L6.896,56.875L5.083,56.875L5.083,59.417L6.719,59.417L6.719,60.333L5.083,60.333L5.083,64L4,64L4,55.958Z" style="fill:rgb(158,161,168);fill-rule:nonzero;"/>
            <path id="path1218" d="M8.75,55.958L9.594,55.958L11.318,64L10.245,64L9.943,62.432L8.349,62.432L8.042,64L7,64L8.75,55.958ZM9.786,61.594L9.547,60.312C9.387,59.441 9.257,58.51 9.156,57.521C9.108,58.003 9.045,58.493 8.969,58.99C8.892,59.483 8.802,60.007 8.698,60.562L8.5,61.594L9.786,61.594Z" style="fill:rgb(158,161,168);fill-rule:nonzero;"/>
            <path id="path1220" d="M11.958,55.958L13.292,55.958C13.698,55.958 14.04,56.003 14.318,56.094C14.575,56.181 14.804,56.335 15.005,56.557C15.307,56.891 15.523,57.325 15.651,57.859C15.78,58.377 15.844,59.118 15.844,60.083C15.844,60.969 15.773,61.691 15.63,62.25C15.491,62.785 15.262,63.193 14.943,63.474C14.55,63.825 13.847,64 12.833,64L11.958,64L11.958,55.958ZM13.042,63.052C13.701,63.052 14.142,62.852 14.365,62.453C14.594,62.054 14.708,61.278 14.708,60.125C14.708,58.885 14.599,58.033 14.38,57.568C14.161,57.102 13.76,56.87 13.177,56.87L13.042,56.87L13.042,63.052Z" style="fill:rgb(158,161,168);fill-rule:nonzero;"/>
            <path id="path1222" d="M16.917,55.958L19.797,55.958L19.797,56.875L18,56.875L18,59.422L19.594,59.422L19.594,60.339L18,60.339L18,63.083L19.797,63.083L19.797,64L16.917,64L16.917,55.958Z" style="fill:rgb(158,161,168);fill-rule:nonzero;"/>
            <rect id="path1224" x="23" y="55.958" width="1.083" height="8.042" style="fill:rgb(158,161,168);fill-rule:nonzero;"/>
            <path id="path1226" d="M25.333,55.958L26.344,55.958L27.422,59.167C27.734,60.073 28.01,61.04 28.25,62.068C28.163,61.446 28.099,60.884 28.057,60.38C28.016,59.877 27.995,59.403 27.995,58.958L27.995,55.958L29.083,55.958L29.083,64L28.068,64L26.854,60.38C26.743,60.043 26.637,59.698 26.536,59.344C26.439,58.99 26.349,58.618 26.266,58.229C26.259,58.181 26.247,58.122 26.229,58.052C26.215,57.983 26.198,57.903 26.177,57.813C26.187,57.903 26.196,57.981 26.203,58.047C26.21,58.109 26.215,58.163 26.219,58.208L26.276,59.026L26.333,60.021C26.337,60.076 26.339,60.144 26.339,60.224C26.342,60.304 26.344,60.394 26.344,60.495L26.401,64L25.333,64L25.333,55.958Z" style="fill:rgb(158,161,168);fill-rule:nonzero;"/>
        </g>
        <g id="text1039" transform="matrix(0.969351,0,0,1.03162,0,0)">
            <path id="path1200" d="M4.126,77.412L6.934,77.412L6.934,78.3L5.177,78.3L5.177,80.764L6.762,80.764L6.762,81.653L5.177,81.653L5.177,85.207L4.126,85.207L4.126,77.412Z" style="fill:rgb(158,161,168);fill-rule:nonzero;"/>
            <path id="path1203" d="M8.731,77.412L9.549,77.412L11.22,85.207L10.18,85.207L9.887,83.687L8.342,83.687L8.044,85.207L7.035,85.207L8.731,77.412ZM9.736,82.874L9.503,81.632C9.349,80.788 9.222,79.886 9.125,78.926C9.078,79.394 9.017,79.869 8.943,80.35C8.869,80.828 8.781,81.336 8.68,81.875L8.489,82.874L9.736,82.874Z" style="fill:rgb(158,161,168);fill-rule:nonzero;"/>
            <path id="path1205" d="M11.841,77.412L13.133,77.412C13.527,77.412 13.859,77.456 14.128,77.543C14.377,77.627 14.599,77.777 14.794,77.992C15.087,78.315 15.296,78.736 15.42,79.255C15.545,79.756 15.607,80.475 15.607,81.41C15.607,82.269 15.538,82.969 15.4,83.511C15.266,84.029 15.043,84.424 14.734,84.697C14.353,85.037 13.672,85.207 12.689,85.207L11.841,85.207L11.841,77.412ZM12.891,84.288C13.531,84.288 13.958,84.095 14.173,83.707C14.396,83.32 14.507,82.568 14.507,81.451C14.507,80.249 14.401,79.423 14.189,78.972C13.976,78.521 13.588,78.295 13.022,78.295L12.891,78.295L12.891,84.288Z" style="fill:rgb(158,161,168);fill-rule:nonzero;"/>
            <path id="path1207" d="M16.647,77.412L19.439,77.412L19.439,78.3L17.697,78.3L17.697,80.769L19.242,80.769L19.242,81.658L17.697,81.658L17.697,84.318L19.439,84.318L19.439,85.207L16.647,85.207L16.647,77.412Z" style="fill:rgb(158,161,168);fill-rule:nonzero;"/>
            <path id="path1209" d="M26.447,81.501C26.447,82.878 26.294,83.856 25.987,84.435C25.681,85.013 25.168,85.303 24.448,85.303C23.69,85.303 23.157,84.992 22.847,84.369C22.541,83.76 22.388,82.678 22.388,81.123C22.388,79.736 22.539,78.755 22.842,78.179C23.148,77.6 23.667,77.311 24.397,77.311C25.05,77.311 25.535,77.535 25.851,77.982C26.06,78.282 26.211,78.708 26.305,79.26C26.4,79.771 26.447,80.518 26.447,81.501L26.447,81.501ZM25.346,81.612C25.346,80.263 25.286,79.367 25.164,78.926C25.043,78.482 24.796,78.26 24.422,78.26C24.049,78.26 23.8,78.464 23.675,78.871C23.554,79.281 23.493,80.106 23.493,81.345C23.493,82.486 23.557,83.277 23.685,83.718C23.816,84.135 24.062,84.344 24.422,84.344C24.776,84.344 25.018,84.148 25.149,83.758C25.281,83.371 25.346,82.656 25.346,81.612L25.346,81.612Z" style="fill:rgb(158,161,168);fill-rule:nonzero;"/>
            <path id="path1211" d="M27.492,77.412L28.522,77.412L28.522,82.92C28.522,83.482 28.572,83.856 28.673,84.041C28.778,84.226 28.983,84.318 29.289,84.318C29.595,84.318 29.797,84.238 29.895,84.076C29.996,83.911 30.047,83.576 30.047,83.071L30.047,77.412L31.076,77.412L31.076,83.071C31.076,83.92 30.947,84.493 30.688,84.793C30.378,85.133 29.905,85.303 29.269,85.303C28.569,85.303 28.076,85.084 27.79,84.647C27.591,84.347 27.492,83.771 27.492,82.92L27.492,77.412Z" style="fill:rgb(158,161,168);fill-rule:nonzero;"/>
            <path id="path1213" d="M31.657,77.412L35.075,77.412L35.075,78.331L33.899,78.331L33.899,85.207L32.869,85.207L32.869,78.331L31.657,78.331L31.657,77.412Z" style="fill:rgb(158,161,168);fill-rule:nonzero;"/>
        </g>
        <g id="text1043" transform="matrix(0.995516,0,0,1.0045,0,0)">
            <path id="path1184" d="M4.018,103.492L6.901,103.492L6.901,104.405L5.096,104.405L5.096,106.935L6.725,106.935L6.725,107.848L5.096,107.848L5.096,111.498L4.018,111.498L4.018,103.492Z" style="fill:rgb(158,161,168);fill-rule:nonzero;"/>
            <path id="path1186" d="M8.747,103.492L9.587,103.492L11.303,111.498L10.235,111.498L9.934,109.937L8.347,109.937L8.042,111.498L7.005,111.498L8.747,103.492ZM9.779,109.102L9.54,107.827C9.381,106.959 9.251,106.033 9.151,105.048C9.103,105.528 9.041,106.016 8.964,106.51C8.888,107.001 8.799,107.523 8.695,108.076L8.498,109.102L9.779,109.102Z" style="fill:rgb(158,161,168);fill-rule:nonzero;"/>
            <path id="path1188" d="M11.941,103.492L13.268,103.492C13.672,103.492 14.013,103.537 14.289,103.627C14.545,103.713 14.773,103.867 14.974,104.089C15.275,104.42 15.489,104.852 15.617,105.385C15.745,105.9 15.809,106.638 15.809,107.599C15.809,108.48 15.738,109.199 15.596,109.756C15.458,110.288 15.23,110.694 14.912,110.974C14.521,111.323 13.821,111.498 12.812,111.498L11.941,111.498L11.941,103.492ZM13.019,110.554C13.676,110.554 14.115,110.355 14.336,109.958C14.564,109.56 14.678,108.788 14.678,107.64C14.678,106.406 14.569,105.558 14.352,105.094C14.134,104.631 13.735,104.4 13.154,104.4L13.019,104.4L13.019,110.554Z" style="fill:rgb(158,161,168);fill-rule:nonzero;"/>
            <path id="path1191" d="M16.877,103.492L19.744,103.492L19.744,104.405L17.955,104.405L17.955,106.94L19.542,106.94L19.542,107.853L17.955,107.853L17.955,110.585L19.744,110.585L19.744,111.498L16.877,111.498L16.877,103.492Z" style="fill:rgb(158,161,168);fill-rule:nonzero;"/>
            <path id="path1193" d="M22.933,103.492L25.8,103.492L25.8,104.405L24.011,104.405L24.011,106.94L25.598,106.94L25.598,107.853L24.011,107.853L24.011,110.585L25.8,110.585L25.8,111.498L22.933,111.498L22.933,103.492Z" style="fill:rgb(158,161,168);fill-rule:nonzero;"/>
            <path id="path1195" d="M26.246,103.492L27.293,103.492L27.848,105.043C28.066,105.654 28.196,106.102 28.237,106.385C28.275,106.209 28.317,106.038 28.362,105.872C28.41,105.706 28.46,105.54 28.512,105.374L28.584,105.141L29.098,103.492L30.187,103.492L28.704,107.433L30.187,111.498L29.098,111.498L28.569,109.973C28.462,109.669 28.375,109.396 28.31,109.154C28.244,108.912 28.197,108.698 28.17,108.511C28.142,108.743 28.095,108.964 28.03,109.175L27.848,109.745L27.755,110.046L27.293,111.498L26.153,111.498L27.667,107.433L26.246,103.492Z" style="fill:rgb(158,161,168);fill-rule:nonzero;"/>
            <path id="path1197" d="M30.773,103.492L32.193,103.492C32.878,103.492 33.375,103.665 33.686,104.011C33.998,104.36 34.153,104.913 34.153,105.67C34.153,106.735 33.84,107.422 33.215,107.734C32.9,107.875 32.446,107.946 31.851,107.946L31.851,111.498L30.773,111.498L30.773,103.492ZM31.851,107.023C32.297,107.023 32.605,106.933 32.774,106.754C32.947,106.57 33.033,106.245 33.033,105.779C33.033,105.302 32.95,104.953 32.784,104.731C32.618,104.51 32.357,104.4 32.001,104.4L31.851,104.4L31.851,107.023Z" style="fill:rgb(158,161,168);fill-rule:nonzero;"/>
        </g>
        <g id="text1047" transform="matrix(1.02086,0,0,0.979566,0,0)">
            <path id="path1169" d="M4.014,130.527L5.088,130.527L5.657,132.116C5.88,132.744 6.013,133.203 6.056,133.493C6.095,133.313 6.137,133.137 6.183,132.967C6.233,132.797 6.284,132.627 6.337,132.457L6.412,132.217L6.938,130.527L8.055,130.527L6.534,134.568L8.055,138.736L6.938,138.736L6.396,137.173C6.286,136.861 6.197,136.581 6.13,136.333C6.063,136.085 6.015,135.865 5.987,135.673C5.958,135.911 5.91,136.138 5.843,136.354L5.657,136.939L5.561,137.247L5.088,138.736L3.918,138.736L5.471,134.568L4.014,130.527Z" style="fill:rgb(158,161,168);fill-rule:nonzero;"/>
            <path id="path1171" d="M8.656,130.527L11.612,130.527L11.612,131.462L9.762,131.462L9.762,134.057L11.431,134.057L11.431,134.993L9.762,134.993L9.762,138.736L8.656,138.736L8.656,130.527Z" style="fill:rgb(158,161,168);fill-rule:nonzero;"/>
            <path id="path1173" d="M13.505,130.527L14.366,130.527L16.126,138.736L15.031,138.736L14.722,137.136L13.095,137.136L12.782,138.736L11.718,138.736L13.505,130.527ZM14.563,136.28L14.318,134.972C14.155,134.082 14.022,133.132 13.92,132.122C13.87,132.614 13.806,133.114 13.728,133.621C13.65,134.124 13.558,134.66 13.452,135.227L13.25,136.28L14.563,136.28Z" style="fill:rgb(158,161,168);fill-rule:nonzero;"/>
            <path id="path1175" d="M16.78,130.527L18.141,130.527C18.556,130.527 18.905,130.573 19.189,130.665C19.451,130.753 19.685,130.911 19.89,131.138C20.199,131.478 20.419,131.921 20.55,132.467C20.681,132.995 20.747,133.752 20.747,134.738C20.747,135.642 20.674,136.379 20.529,136.95C20.387,137.495 20.153,137.912 19.827,138.199C19.426,138.557 18.708,138.736 17.673,138.736L16.78,138.736L16.78,130.527ZM17.886,137.768C18.559,137.768 19.01,137.565 19.236,137.157C19.47,136.749 19.587,135.957 19.587,134.78C19.587,133.515 19.476,132.645 19.252,132.17C19.029,131.695 18.62,131.457 18.024,131.457L17.886,131.457L17.886,137.768Z" style="fill:rgb(158,161,168);fill-rule:nonzero;"/>
            <rect id="path1177" x="21.842" y="130.527" width="1.106" height="8.209" style="fill:rgb(158,161,168);fill-rule:nonzero;"/>
            <path id="path1179" d="M24.224,130.527L25.255,130.527L26.356,133.802C26.675,134.727 26.957,135.714 27.201,136.763C27.113,136.129 27.047,135.555 27.005,135.041C26.962,134.527 26.941,134.043 26.941,133.589L26.941,130.527L28.052,130.527L28.052,138.736L27.015,138.736L25.776,135.041C25.663,134.697 25.555,134.344 25.452,133.983C25.353,133.621 25.261,133.242 25.176,132.845C25.168,132.795 25.156,132.735 25.138,132.664C25.124,132.593 25.106,132.512 25.085,132.419C25.096,132.512 25.105,132.591 25.112,132.659C25.119,132.723 25.124,132.777 25.128,132.824L25.186,133.658L25.245,134.674C25.248,134.731 25.25,134.8 25.25,134.881C25.254,134.963 25.255,135.055 25.255,135.158L25.314,138.736L24.224,138.736L24.224,130.527Z" style="fill:rgb(158,161,168);fill-rule:nonzero;"/>
            <path id="path1181" d="M31.295,134.419L33.305,134.419L33.305,134.738C33.305,136.336 33.165,137.416 32.885,137.976C32.609,138.55 32.091,138.837 31.333,138.837C30.549,138.837 29.991,138.518 29.658,137.88C29.328,137.242 29.163,136.17 29.163,134.663C29.163,132.941 29.344,131.794 29.706,131.223C30.046,130.688 30.569,130.42 31.274,130.42C31.813,130.42 32.233,130.55 32.534,130.808C32.839,131.071 33.077,131.501 33.247,132.1L32.215,132.531C32.169,132.315 32.118,132.134 32.061,131.989C32.004,131.84 31.942,131.725 31.875,131.643C31.74,131.477 31.538,131.393 31.269,131.393C30.9,131.393 30.649,131.62 30.514,132.074C30.379,132.549 30.312,133.401 30.312,134.631C30.312,135.876 30.381,136.717 30.519,137.157C30.657,137.596 30.918,137.816 31.301,137.816C31.652,137.816 31.898,137.66 32.04,137.348C32.185,137.015 32.258,136.48 32.258,135.743L32.258,135.519L32.258,135.354L31.295,135.354L31.295,134.419Z" style="fill:rgb(158,161,168);fill-rule:nonzero;"/>
        </g>
        <g id="text995">
        </g>
        <g id="text1027">
            <path id="path1144" d="M33.883,17.789L30.516,17.789L30.273,16.258L28.078,16.258L27.812,17.789L24.445,17.789L27.344,5.727L31.328,5.727L33.883,17.789ZM29.891,13.672L29.68,12.266C29.674,12.26 29.664,12.19 29.648,12.055C29.638,11.94 29.583,11.487 29.484,10.695C29.474,10.607 29.461,10.487 29.445,10.336C29.43,10.18 29.409,9.984 29.383,9.75L29.281,8.609C29.271,8.719 29.255,8.841 29.234,8.977C29.219,9.112 29.201,9.26 29.18,9.422C29.143,9.745 29.117,9.969 29.102,10.094C29.086,10.219 29.076,10.294 29.07,10.32L28.844,11.781L28.516,13.672L29.891,13.672Z" style="fill:rgb(158,161,168);fill-rule:nonzero;"/>
            <path id="path1146" d="M39.742,5.727L43,5.727L43,14.258C43,14.971 42.888,15.549 42.664,15.992C42.445,16.456 42.081,16.875 41.57,17.25C40.883,17.75 40.047,18 39.063,18C37.948,18 37.013,17.724 36.258,17.172C35.299,16.469 34.82,15.344 34.82,13.797L34.82,5.727L38.078,5.727L38.078,13.508C38.078,14.034 38.141,14.406 38.266,14.625C38.396,14.844 38.612,14.953 38.914,14.953C39.227,14.953 39.443,14.852 39.562,14.648C39.682,14.435 39.742,14.057 39.742,13.516L39.742,5.727Z" style="fill:rgb(158,161,168);fill-rule:nonzero;"/>
            <path id="path1148" d="M48.906,17.789L45.648,17.789L45.648,8.617L43.852,8.617L43.852,5.727L50.773,5.727L50.773,8.617L48.906,8.617L48.906,17.789Z" style="fill:rgb(158,161,168);fill-rule:nonzero;"/>
            <path id="path1150" d="M60.594,11.797C60.594,13.635 60.174,15.13 59.336,16.281C58.503,17.427 57.417,18 56.078,18C54.891,18 53.872,17.56 53.023,16.68C51.956,15.565 51.422,13.893 51.422,11.664C51.422,9.529 51.979,7.896 53.094,6.766C53.922,5.927 54.904,5.508 56.039,5.508C57.43,5.508 58.536,6.076 59.359,7.211C60.182,8.346 60.594,9.875 60.594,11.797ZM57.211,11.82C57.211,9.638 56.826,8.547 56.055,8.547C55.669,8.547 55.362,8.833 55.133,9.406C54.909,9.937 54.797,10.719 54.797,11.75C54.797,12.766 54.901,13.555 55.109,14.117C55.323,14.674 55.617,14.953 55.992,14.953C56.378,14.953 56.674,14.677 56.883,14.125C57.102,13.573 57.211,12.805 57.211,11.82L57.211,11.82Z" style="fill:rgb(158,161,168);fill-rule:nonzero;"/>
            <path id="path1152" d="M66.586,5.797C66.299,6.365 66.044,6.945 65.82,7.539C65.596,8.128 65.404,8.75 65.242,9.406C64.93,10.672 64.773,11.896 64.773,13.078C64.773,14.26 64.93,15.484 65.242,16.75C65.404,17.406 65.596,18.029 65.82,18.617C66.044,19.206 66.299,19.784 66.586,20.352L64.242,21.609C62.732,18.896 61.977,16.052 61.977,13.078C61.977,10.115 62.732,7.268 64.242,4.539L66.586,5.797Z" style="fill:rgb(158,161,168);fill-rule:nonzero;"/>
            <path id="path1154" d="M76.547,17.789L72.93,17.789L72.328,16.07C72.135,15.544 71.979,15.039 71.859,14.555C71.745,15.034 71.573,15.583 71.344,16.203L70.742,17.789L67.195,17.789L70.125,11.531L67.359,5.727L70.984,5.727L71.523,7.359C71.581,7.51 71.635,7.687 71.688,7.891C71.745,8.094 71.802,8.323 71.859,8.578C71.99,8.057 72.099,7.656 72.188,7.375L72.688,5.727L76.336,5.727L73.586,11.531L76.547,17.789Z" style="fill:rgb(158,161,168);fill-rule:nonzero;"/>
            <path id="path1156" d="M77.141,20.352C77.719,19.211 78.164,18.01 78.477,16.75C78.789,15.484 78.945,14.26 78.945,13.078C78.945,11.854 78.786,10.63 78.469,9.406C78.313,8.776 78.122,8.164 77.898,7.57C77.68,6.971 77.427,6.38 77.141,5.797L79.484,4.539C80.995,7.253 81.75,10.099 81.75,13.078C81.75,16.052 80.995,18.896 79.484,21.609L77.141,20.352Z" style="fill:rgb(158,161,168);fill-rule:nonzero;"/>
            <path id="path1158" d="M86.703,17.789L83.445,17.789L83.445,5.727L89.203,5.727L89.203,8.562L86.703,8.562L86.703,10.32L89.031,10.32L89.031,13.047L86.703,13.047L86.703,17.789Z" style="fill:rgb(158,161,168);fill-rule:nonzero;"/>
            <path id="path1160" d="M98.883,17.789L95.516,17.789L95.273,16.258L93.078,16.258L92.812,17.789L89.445,17.789L92.344,5.727L96.328,5.727L98.883,17.789ZM94.891,13.672L94.68,12.266C94.674,12.26 94.664,12.19 94.648,12.055C94.638,11.94 94.583,11.487 94.484,10.695C94.474,10.607 94.461,10.487 94.445,10.336C94.43,10.18 94.409,9.984 94.383,9.75L94.281,8.609C94.271,8.719 94.255,8.841 94.234,8.977C94.219,9.112 94.2,9.26 94.18,9.422C94.143,9.745 94.117,9.969 94.101,10.094C94.086,10.219 94.075,10.294 94.07,10.32L93.843,11.781L93.515,13.672L94.891,13.672Z" style="fill:rgb(158,161,168);fill-rule:nonzero;"/>
            <path id="path1162" d="M99.82,17.789L99.82,5.727L102.633,5.727C104.242,5.727 105.495,6.159 106.391,7.023C107.568,8.154 108.156,9.734 108.156,11.766C108.156,13.766 107.659,15.31 106.664,16.398C105.815,17.326 104.549,17.789 102.867,17.789L99.82,17.789ZM103.078,14.875C104.245,14.818 104.828,13.812 104.828,11.859C104.828,10.896 104.68,10.135 104.383,9.578C104.086,9.016 103.685,8.734 103.18,8.734L103.078,8.734L103.078,14.875Z" style="fill:rgb(158,161,168);fill-rule:nonzero;"/>
            <path id="path1164" d="M109.539,17.789L109.539,5.727L115.594,5.727L115.594,8.562L112.797,8.562L112.797,10.32L115.305,10.32L115.305,13.047L112.797,13.047L112.797,14.891L115.594,14.891L115.594,17.789L109.539,17.789Z" style="fill:rgb(158,161,168);fill-rule:nonzero;"/>
            <path id="path1166" d="M125.555,17.789L122.031,17.789L120.422,13.492C120.406,13.419 120.378,13.323 120.336,13.203C120.299,13.083 120.253,12.94 120.195,12.773L120.219,13.57L120.219,17.789L116.977,17.789L116.977,5.727L120.313,5.727C121.781,5.727 122.88,6.016 123.609,6.594C124.536,7.333 125,8.385 125,9.75C125,11.208 124.378,12.216 123.133,12.773L125.555,17.789ZM120.234,11.312L120.453,11.312C120.828,11.312 121.141,11.169 121.391,10.883C121.641,10.596 121.766,10.232 121.766,9.789C121.766,8.888 121.294,8.437 120.352,8.437L120.234,8.437L120.234,11.312Z" style="fill:rgb(158,161,168);fill-rule:nonzero;"/>
        </g>
        <g id="text1070" transform="matrix(1,0,0,1,0.0208309,0)">
            <path id="path1135" d="M39.979,31.859L43.505,31.859L43.505,32.807L42.292,32.807L42.292,39.901L41.229,39.901L41.229,32.807L39.979,32.807L39.979,31.859Z" style="fill:rgb(158,161,168);fill-rule:nonzero;"/>
            <path id="path1137" d="M44.099,31.859L45.526,31.859C46.116,31.859 46.556,32 46.844,32.281C47.208,32.646 47.391,33.203 47.391,33.953C47.391,34.53 47.293,34.993 47.099,35.344C46.908,35.691 46.634,35.906 46.276,35.99L47.755,39.901L46.656,39.901L45.182,35.964L45.182,39.901L44.099,39.901L44.099,31.859ZM45.182,35.422C45.602,35.422 45.899,35.325 46.073,35.13C46.247,34.936 46.333,34.608 46.333,34.146C46.333,33.896 46.314,33.682 46.276,33.505C46.241,33.328 46.184,33.184 46.104,33.073C46.028,32.962 45.927,32.88 45.802,32.828C45.681,32.776 45.535,32.75 45.365,32.75L45.182,32.75L45.182,35.422Z" style="fill:rgb(158,161,168);fill-rule:nonzero;"/>
            <rect id="path1139" x="48.599" y="31.859" width="1.083" height="8.042" style="fill:rgb(158,161,168);fill-rule:nonzero;"/>
            <path id="path1141" d="M52.859,35.672L54.828,35.672L54.828,35.984C54.828,37.55 54.691,38.608 54.417,39.156C54.146,39.719 53.639,40 52.896,40C52.128,40 51.582,39.688 51.255,39.063C50.932,38.438 50.771,37.387 50.771,35.911C50.771,34.224 50.948,33.101 51.302,32.542C51.635,32.017 52.148,31.755 52.839,31.755C53.366,31.755 53.778,31.882 54.073,32.135C54.372,32.392 54.604,32.814 54.771,33.401L53.76,33.823C53.715,33.611 53.665,33.434 53.609,33.292C53.554,33.146 53.493,33.033 53.427,32.953C53.295,32.79 53.097,32.708 52.833,32.708C52.472,32.708 52.226,32.931 52.094,33.375C51.962,33.84 51.896,34.675 51.896,35.88C51.896,37.099 51.964,37.924 52.099,38.354C52.234,38.785 52.49,39 52.865,39C53.208,39 53.45,38.847 53.589,38.542C53.731,38.215 53.802,37.691 53.802,36.969L53.802,36.75L53.802,36.589L52.859,36.589L52.859,35.672Z" style="fill:rgb(158,161,168);fill-rule:nonzero;"/>
        </g>
        <g id="text1074" transform="matrix(1,0,0,1,-0.926216,0)">
            <path id="path1126" d="M67.926,31.958L71.452,31.958L71.452,32.906L70.239,32.906L70.239,40L69.176,40L69.176,32.906L67.926,32.906L67.926,31.958Z" style="fill:rgb(158,161,168);fill-rule:nonzero;"/>
            <path id="path1130" d="M73.046,31.958L73.89,31.958L75.614,40L74.541,40L74.239,38.432L72.645,38.432L72.338,40L71.296,40L73.046,31.958ZM74.082,37.594L73.843,36.312C73.683,35.441 73.553,34.51 73.452,33.521C73.404,34.003 73.341,34.493 73.265,34.99C73.188,35.483 73.098,36.007 72.994,36.562L72.796,37.594L74.082,37.594Z" style="fill:rgb(158,161,168);fill-rule:nonzero;"/>
            <path id="path1132" d="M76.254,31.958L77.681,31.958C78.369,31.958 78.869,32.132 79.181,32.479C79.494,32.83 79.65,33.385 79.65,34.146C79.65,35.215 79.336,35.906 78.707,36.219C78.391,36.361 77.935,36.432 77.338,36.432L77.338,40L76.254,40L76.254,31.958ZM77.338,35.505C77.786,35.505 78.095,35.415 78.265,35.234C78.438,35.05 78.525,34.724 78.525,34.255C78.525,33.776 78.442,33.425 78.275,33.203C78.108,32.981 77.846,32.87 77.489,32.87L77.338,32.87L77.338,35.505Z" style="fill:rgb(158,161,168);fill-rule:nonzero;"/>
        </g>
        <g id="text1078" transform="matrix(1,0,0,1,-2.62847,0)">
            <path id="path1116" d="M97.816,36.078C97.816,37.498 97.658,38.507 97.342,39.104C97.026,39.701 96.497,40 95.753,40C94.972,40 94.422,39.679 94.102,39.036C93.786,38.408 93.628,37.292 93.628,35.687C93.628,34.257 93.785,33.245 94.097,32.651C94.413,32.054 94.948,31.755 95.701,31.755C96.375,31.755 96.875,31.986 97.201,32.448C97.417,32.757 97.573,33.196 97.67,33.766C97.767,34.293 97.816,35.064 97.816,36.078L97.816,36.078ZM96.681,36.193C96.681,34.8 96.618,33.877 96.493,33.422C96.368,32.964 96.113,32.734 95.727,32.734C95.342,32.734 95.085,32.944 94.957,33.365C94.832,33.788 94.769,34.639 94.769,35.917C94.769,37.094 94.835,37.91 94.967,38.365C95.102,38.795 95.356,39.01 95.727,39.01C96.092,39.01 96.342,38.809 96.477,38.406C96.613,38.007 96.681,37.269 96.681,36.193L96.681,36.193Z" style="fill:rgb(158,161,168);fill-rule:nonzero;"/>
            <path id="path1118" d="M98.894,31.859L99.957,31.859L99.957,37.542C99.957,38.122 100.009,38.507 100.113,38.698C100.22,38.889 100.432,38.984 100.748,38.984C101.064,38.984 101.273,38.901 101.373,38.734C101.477,38.564 101.53,38.219 101.53,37.698L101.53,31.859L102.592,31.859L102.592,37.698C102.592,38.573 102.458,39.165 102.191,39.474C101.872,39.825 101.384,40 100.727,40C100.005,40 99.497,39.774 99.201,39.323C98.997,39.014 98.894,38.42 98.894,37.542L98.894,31.859Z" style="fill:rgb(158,161,168);fill-rule:nonzero;"/>
            <path id="path1122" d="M103.191,31.859L106.717,31.859L106.717,32.807L105.503,32.807L105.503,39.901L104.441,39.901L104.441,32.807L103.191,32.807L103.191,31.859Z" style="fill:rgb(158,161,168);fill-rule:nonzero;"/>
        </g>
        <g id="text1232">
            <rect id="path1235" x="57.078" y="199.859" width="1.083" height="8.042" style="fill:rgb(158,161,168);fill-rule:nonzero;"/>
            <path id="path1237" d="M59.411,199.859L60.422,199.859L61.5,203.068C61.812,203.974 62.089,204.941 62.328,205.969C62.241,205.347 62.177,204.785 62.135,204.281C62.094,203.778 62.073,203.304 62.073,202.859L62.073,199.859L63.161,199.859L63.161,207.901L62.146,207.901L60.932,204.281C60.821,203.944 60.715,203.599 60.615,203.245C60.517,202.891 60.427,202.519 60.344,202.13C60.337,202.082 60.325,202.023 60.307,201.953C60.294,201.884 60.276,201.804 60.255,201.714C60.266,201.804 60.274,201.882 60.281,201.948C60.288,202.01 60.294,202.064 60.297,202.109L60.354,202.927L60.412,203.922C60.415,203.977 60.417,204.045 60.417,204.125C60.42,204.205 60.422,204.295 60.422,204.396L60.479,207.901L59.412,207.901L59.411,199.859Z" style="fill:rgb(158,161,168);fill-rule:nonzero;"/>
            <path id="path1239" d="M66.437,202.62L66.437,203.552C66.194,203.372 65.939,203.281 65.672,203.281C65.582,203.281 65.498,203.297 65.422,203.328C65.345,203.359 65.278,203.403 65.219,203.458C65.163,203.51 65.118,203.575 65.083,203.651C65.052,203.724 65.036,203.802 65.036,203.885C65.036,204.142 65.269,204.448 65.734,204.802C65.922,204.948 66.078,205.083 66.203,205.208C66.328,205.333 66.424,205.451 66.49,205.562C66.625,205.781 66.693,206.057 66.693,206.391C66.693,206.873 66.552,207.26 66.271,207.552C65.993,207.84 65.62,207.984 65.151,207.984C64.863,207.984 64.571,207.899 64.276,207.729L64.276,206.766C64.564,206.981 64.837,207.089 65.094,207.089C65.549,207.089 65.776,206.865 65.776,206.417C65.776,206.25 65.734,206.106 65.651,205.984C65.613,205.925 65.552,205.858 65.469,205.781C65.385,205.701 65.283,205.613 65.161,205.516C64.741,205.189 64.457,204.915 64.307,204.693C64.161,204.464 64.089,204.188 64.089,203.865C64.089,203.431 64.222,203.075 64.49,202.797C64.76,202.523 65.113,202.385 65.547,202.385C65.852,202.385 66.149,202.464 66.438,202.62L66.437,202.62Z" style="fill:rgb(158,161,168);fill-rule:nonzero;"/>
            <path id="path1242" d="M73.698,204.813L74.385,205.359L73.526,206.557L74.385,207.901L73.198,207.901L72.818,207.276C72.422,207.724 71.962,207.948 71.438,207.948C70.948,207.948 70.523,207.757 70.161,207.375C69.807,206.99 69.63,206.53 69.63,205.995C69.63,205.634 69.714,205.293 69.88,204.974C70.047,204.651 70.337,204.278 70.75,203.854C70.319,203.174 70.104,202.536 70.104,201.943C70.104,201.502 70.25,201.137 70.542,200.849C70.837,200.564 71.212,200.422 71.667,200.422C72.125,200.422 72.491,200.554 72.766,200.818C73.043,201.085 73.182,201.432 73.182,201.859C73.182,202.224 73.097,202.554 72.927,202.849C72.847,202.995 72.729,203.165 72.573,203.359C72.417,203.55 72.219,203.766 71.979,204.005L73.042,205.745L73.698,204.813ZM71.536,203.203C71.686,203.047 71.811,202.91 71.911,202.792C72.012,202.67 72.089,202.564 72.141,202.474C72.248,202.293 72.302,202.097 72.302,201.885C72.302,201.687 72.25,201.531 72.146,201.417C72.042,201.299 71.905,201.24 71.734,201.24C71.557,201.24 71.405,201.309 71.276,201.448C71.151,201.583 71.089,201.745 71.089,201.932C71.089,202.2 71.238,202.623 71.536,203.203L71.536,203.203ZM71.25,204.682C70.847,205.127 70.646,205.543 70.646,205.932C70.646,206.245 70.734,206.507 70.911,206.719C71.089,206.934 71.302,207.042 71.552,207.042C71.83,207.042 72.102,206.872 72.37,206.531L71.25,204.682Z" style="fill:rgb(158,161,168);fill-rule:nonzero;"/>
            <path id="path1244" d="M81.479,204.078C81.479,205.498 81.321,206.507 81.005,207.104C80.689,207.701 80.16,208 79.417,208C78.635,208 78.085,207.679 77.766,207.036C77.45,206.408 77.292,205.292 77.292,203.688C77.292,202.257 77.448,201.245 77.76,200.651C78.076,200.054 78.611,199.755 79.365,199.755C80.038,199.755 80.538,199.986 80.865,200.448C81.08,200.757 81.236,201.196 81.333,201.766C81.431,202.293 81.479,203.064 81.479,204.078L81.479,204.078ZM80.344,204.193C80.344,202.8 80.281,201.877 80.156,201.422C80.031,200.964 79.776,200.734 79.391,200.734C79.005,200.734 78.748,200.944 78.62,201.365C78.495,201.788 78.432,202.639 78.432,203.917C78.432,205.094 78.498,205.91 78.63,206.365C78.766,206.795 79.019,207.01 79.391,207.01C79.755,207.01 80.005,206.809 80.141,206.406C80.276,206.007 80.344,205.269 80.344,204.193L80.344,204.193Z" style="fill:rgb(158,161,168);fill-rule:nonzero;"/>
            <path id="path1246" d="M82.557,199.859L83.62,199.859L83.62,205.542C83.62,206.122 83.672,206.507 83.776,206.698C83.884,206.889 84.095,206.984 84.411,206.984C84.727,206.984 84.936,206.901 85.036,206.734C85.141,206.564 85.193,206.219 85.193,205.698L85.193,199.859L86.255,199.859L86.255,205.698C86.255,206.573 86.122,207.165 85.854,207.474C85.535,207.825 85.047,208 84.391,208C83.668,208 83.16,207.774 82.865,207.323C82.66,207.014 82.557,206.42 82.557,205.542L82.557,199.859Z" style="fill:rgb(158,161,168);fill-rule:nonzero;"/>
            <path id="path1248" d="M86.854,199.859L90.38,199.859L90.38,200.807L89.167,200.807L89.167,207.901L88.104,207.901L88.104,200.807L86.854,200.807L86.854,199.859Z" style="fill:rgb(158,161,168);fill-rule:nonzero;"/>
            <path id="path1250" d="M92.667,202.62L92.667,203.552C92.424,203.372 92.168,203.281 91.901,203.281C91.811,203.281 91.727,203.297 91.651,203.328C91.575,203.359 91.507,203.403 91.448,203.458C91.392,203.51 91.347,203.575 91.312,203.651C91.281,203.724 91.266,203.802 91.266,203.885C91.266,204.142 91.498,204.448 91.964,204.802C92.151,204.948 92.307,205.083 92.432,205.208C92.557,205.333 92.653,205.451 92.719,205.562C92.854,205.781 92.922,206.057 92.922,206.391C92.922,206.873 92.781,207.26 92.5,207.552C92.222,207.84 91.849,207.984 91.38,207.984C91.092,207.984 90.8,207.899 90.505,207.729L90.505,206.766C90.793,206.981 91.066,207.089 91.323,207.089C91.778,207.089 92.005,206.865 92.005,206.417C92.005,206.25 91.964,206.106 91.88,205.984C91.842,205.925 91.781,205.858 91.698,205.781C91.615,205.701 91.512,205.613 91.391,205.516C90.97,205.189 90.686,204.915 90.536,204.693C90.391,204.464 90.318,204.188 90.318,203.865C90.318,203.431 90.451,203.075 90.719,202.797C90.99,202.523 91.342,202.385 91.776,202.385C92.082,202.385 92.378,202.464 92.667,202.62L92.667,202.62Z" style="fill:rgb(158,161,168);fill-rule:nonzero;"/>
        </g>
        <g id="path1254" transform="matrix(1,0,0,1,4.93652,162)">
            <path d="M7.063,60.953L9.126,60.953L9.126,70L7.96,70L7.96,61.99L7.063,61.99L7.063,60.953Z" style="fill:rgb(158,161,168);fill-rule:nonzero;"/>
        </g>
        <g id="path1259" transform="matrix(1,0,0,1,80.9385,136)">
            <path d="M7.38,89.895L6.185,89.895L6.173,89.537C6.173,88.549 6.321,87.854 6.618,87.451C6.919,87.045 7.423,86.842 8.13,86.842C9.462,86.842 10.128,87.58 10.128,89.057C10.128,90.053 9.63,91.488 8.634,93.363L7.913,94.717C7.909,94.725 7.897,94.748 7.878,94.787C7.858,94.826 7.831,94.883 7.796,94.957L10.034,94.957L10.034,96L6.062,96C6.128,95.852 6.267,95.557 6.478,95.115C6.688,94.674 6.976,94.078 7.339,93.328C7.647,92.672 7.905,92.115 8.112,91.658C8.319,91.201 8.476,90.826 8.581,90.533C8.792,89.947 8.897,89.441 8.897,89.016C8.897,88.266 8.638,87.891 8.118,87.891C7.618,87.891 7.368,88.355 7.368,89.285L7.374,89.801L7.38,89.895Z" style="fill:rgb(158,161,168);fill-rule:nonzero;"/>
        </g>
        <g id="path1264" transform="matrix(1,0,0,1,5.89746,146)">
            <path d="M7.427,115.273L6.267,115.273L6.267,115.033C6.267,114.631 6.3,114.285 6.366,113.996C6.437,113.707 6.544,113.469 6.688,113.281C6.837,113.094 7.024,112.957 7.251,112.871C7.478,112.781 7.749,112.736 8.065,112.736C8.729,112.736 9.214,112.924 9.519,113.299C9.823,113.674 9.976,114.27 9.976,115.086C9.976,115.758 9.905,116.242 9.765,116.539C9.628,116.84 9.364,117.068 8.974,117.225C9.396,117.369 9.687,117.594 9.847,117.898C10.007,118.199 10.087,118.682 10.087,119.346C10.087,120.256 9.915,120.926 9.571,121.355C9.228,121.785 8.692,122 7.966,122C6.724,122 6.103,121.287 6.103,119.861L6.103,119.768L6.103,119.703C6.103,119.66 6.104,119.633 6.108,119.621L7.251,119.621C7.247,119.687 7.243,119.746 7.239,119.797L7.239,119.914C7.239,120.223 7.306,120.469 7.438,120.652C7.575,120.836 7.761,120.928 7.995,120.928C8.147,120.928 8.276,120.898 8.382,120.84C8.491,120.777 8.579,120.68 8.646,120.547C8.716,120.41 8.767,120.234 8.798,120.02C8.829,119.805 8.845,119.545 8.845,119.24C8.845,118.689 8.761,118.293 8.593,118.051C8.429,117.809 8.153,117.687 7.767,117.687C7.724,117.687 7.677,117.691 7.626,117.699C7.575,117.703 7.517,117.709 7.45,117.717L7.45,116.662L7.62,116.662C8.093,116.662 8.413,116.561 8.581,116.358C8.749,116.154 8.833,115.77 8.833,115.203C8.833,114.266 8.597,113.797 8.124,113.797C7.655,113.797 7.421,114.197 7.421,114.998L7.427,115.273Z" style="fill:rgb(158,161,168);fill-rule:nonzero;"/>
        </g>
        <g id="path1268" transform="matrix(1,0,0,1,81,120)">
            <path d="M8.479,138.953L9.609,138.953L9.609,144.59L10.189,144.59L10.189,145.521L9.609,145.521L9.609,148L8.479,148L8.479,145.521L6,145.521L6,144.484L8.479,138.953ZM8.479,144.59L8.479,140.793L6.955,144.59L8.479,144.59Z" style="fill:rgb(158,161,168);fill-rule:nonzero;"/>
        </g>
        <g id="path1272" transform="matrix(1,0,0,1,5.87403,130)">
            <path d="M7.069,164.848L9.946,164.848L9.946,165.896L7.995,165.896L7.702,168.17L7.849,168.17C8.204,168.17 8.519,168.227 8.792,168.34C9.069,168.453 9.302,168.619 9.489,168.838C9.677,169.057 9.819,169.326 9.917,169.646C10.015,169.967 10.063,170.332 10.063,170.742C10.063,171.758 9.843,172.557 9.401,173.139C8.96,173.713 8.347,174 7.562,174C7.12,174 6.642,173.875 6.126,173.625L6.431,172.547C6.849,172.766 7.198,172.875 7.479,172.875C7.878,172.875 8.194,172.695 8.429,172.336C8.663,171.973 8.78,171.484 8.78,170.871C8.78,169.711 8.282,169.131 7.286,169.131C7.04,169.131 6.792,169.168 6.542,169.242L7.069,164.848Z" style="fill:rgb(158,161,168);fill-rule:nonzero;"/>
        </g>
        <g id="path1276" transform="matrix(1.0001,0,0,1,80.85,104)">
            <path d="M7.983,190.848L9.278,190.848L8.429,192.588C8.28,192.904 8.13,193.24 7.978,193.596C7.829,193.951 7.673,194.33 7.509,194.732C7.849,194.463 8.175,194.328 8.487,194.328C8.991,194.328 9.38,194.547 9.653,194.984C9.911,195.395 10.04,196.129 10.04,197.188C10.04,198.188 9.89,198.908 9.589,199.35C9.288,199.783 8.798,200 8.118,200C7.423,200 6.921,199.76 6.612,199.279C6.304,198.795 6.149,198.006 6.149,196.912C6.149,195.994 6.271,195.119 6.513,194.287C6.638,193.873 6.821,193.385 7.063,192.822C7.31,192.26 7.616,191.602 7.983,190.848ZM8.874,197.182C8.874,196.869 8.86,196.604 8.833,196.385C8.806,196.162 8.761,195.982 8.698,195.846C8.636,195.705 8.556,195.604 8.458,195.541C8.364,195.475 8.249,195.441 8.112,195.441C7.976,195.441 7.858,195.475 7.761,195.541C7.667,195.603 7.589,195.703 7.526,195.84C7.464,195.977 7.419,196.156 7.392,196.379C7.364,196.598 7.351,196.861 7.351,197.17C7.351,198.353 7.604,198.945 8.112,198.945C8.62,198.945 8.874,198.357 8.874,197.182L8.874,197.182Z" style="fill:rgb(158,161,168);fill-rule:nonzero;"/>
        </g>
        <g id="path1305" transform="matrix(1,0,0,1,2,4)">
            <path d="M10,327.958L13.594,327.958L11.156,336L10,336L12.234,328.875L10,328.875L10,327.958Z" style="fill:rgb(158,161,168);fill-rule:nonzero;"/>
        </g>
        <g id="path1302" transform="matrix(1.00001,0,0,0.999994,2,3.99999)">
            <path d="M87.526,331.544C87.887,331.676 88.135,331.886 88.27,332.174C88.406,332.462 88.473,332.929 88.473,333.575C88.473,334.408 88.333,335.021 88.052,335.413C87.774,335.806 87.336,336.002 86.739,336.002C86.138,336.002 85.697,335.806 85.416,335.413C85.138,335.021 84.999,334.408 84.999,333.575C84.999,332.929 85.067,332.462 85.203,332.174C85.338,331.886 85.586,331.676 85.947,331.544C85.628,331.405 85.402,331.2 85.27,330.929C85.138,330.637 85.072,330.243 85.072,329.747C85.072,329.403 85.104,329.106 85.166,328.856C85.232,328.606 85.333,328.401 85.468,328.242C85.604,328.078 85.776,327.959 85.984,327.882C86.196,327.806 86.447,327.768 86.739,327.768C87.031,327.768 87.281,327.806 87.489,327.882C87.697,327.959 87.869,328.078 88.005,328.242C88.14,328.401 88.239,328.606 88.302,328.856C88.368,329.106 88.401,329.403 88.401,329.747C88.401,330.243 88.335,330.637 88.203,330.929C88.071,331.2 87.845,331.405 87.526,331.544L87.526,331.544ZM87.333,329.835C87.333,329.078 87.133,328.7 86.734,328.7C86.338,328.7 86.14,329.075 86.14,329.825C86.14,330.658 86.34,331.075 86.739,331.075C87.135,331.075 87.333,330.662 87.333,329.835ZM87.406,333.7C87.406,333.419 87.394,333.179 87.369,332.981C87.345,332.78 87.305,332.617 87.25,332.492C87.194,332.367 87.123,332.275 87.036,332.216C86.953,332.156 86.852,332.127 86.734,332.127C86.501,332.127 86.331,332.247 86.224,332.486C86.119,332.726 86.067,333.113 86.067,333.648C86.067,334.582 86.291,335.049 86.739,335.049C87.184,335.049 87.406,334.599 87.406,333.7L87.406,333.7Z" style="fill:rgb(158,161,168);fill-rule:nonzero;"/>
        </g>
        <g id="text1310">
            <path id="path1312" d="M120,31.859L122.88,31.859L122.88,32.776L121.083,32.776L121.083,35.323L122.677,35.323L122.677,36.24L121.083,36.24L121.083,38.984L122.88,38.984L122.88,39.901L120,39.901L120,31.859Z" style="fill:rgb(158,161,168);fill-rule:nonzero;"/>
            <path id="path1314" d="M127.901,36.078C127.901,37.498 127.743,38.507 127.427,39.104C127.111,39.701 126.582,40 125.839,40C125.057,40 124.507,39.679 124.187,39.036C123.872,38.408 123.714,37.292 123.714,35.687C123.714,34.257 123.87,33.245 124.182,32.651C124.498,32.054 125.033,31.755 125.786,31.755C126.46,31.755 126.96,31.986 127.286,32.448C127.502,32.757 127.658,33.196 127.755,33.766C127.852,34.293 127.901,35.064 127.901,36.078L127.901,36.078ZM126.766,36.193C126.766,34.8 126.703,33.877 126.578,33.422C126.453,32.964 126.198,32.734 125.812,32.734C125.427,32.734 125.17,32.944 125.042,33.365C124.917,33.788 124.854,34.639 124.854,35.917C124.854,37.094 124.92,37.91 125.052,38.365C125.188,38.795 125.441,39.01 125.813,39.01C126.177,39.01 126.427,38.809 126.563,38.406C126.698,38.007 126.766,37.269 126.766,36.193L126.766,36.193Z" style="fill:rgb(158,161,168);fill-rule:nonzero;"/>
            <path id="path1316" d="M128.979,31.859L131.875,31.859L131.875,32.776L130.062,32.776L130.062,35.318L131.698,35.318L131.698,36.234L130.062,36.234L130.062,39.901L128.979,39.901L128.979,31.859Z" style="fill:rgb(158,161,168);fill-rule:nonzero;"/>
            <path id="path1318" d="M135.75,34.51L135.75,39.901L134.755,39.901L134.755,39.208C134.613,39.503 134.47,39.707 134.328,39.818C134.186,39.929 133.998,39.984 133.766,39.984C133.318,39.984 132.99,39.755 132.781,39.297C132.573,38.839 132.469,38.12 132.469,37.141C132.469,36.207 132.573,35.521 132.781,35.083C132.99,34.642 133.318,34.422 133.766,34.422C134.175,34.422 134.505,34.655 134.755,35.12L134.755,34.51L135.75,34.51ZM133.5,37.182C133.5,37.891 133.547,38.385 133.641,38.667C133.738,38.948 133.908,39.089 134.151,39.089C134.373,39.089 134.535,38.943 134.635,38.651C134.736,38.339 134.786,37.858 134.786,37.208C134.786,36.556 134.736,36.073 134.635,35.76C134.535,35.469 134.373,35.323 134.151,35.323C133.915,35.323 133.747,35.462 133.646,35.74C133.549,35.997 133.5,36.477 133.5,37.182L133.5,37.182Z" style="fill:rgb(158,161,168);fill-rule:nonzero;"/>
            <path id="path1320" d="M139.958,31.052L139.958,39.901L138.964,39.901L138.964,39.208C138.821,39.503 138.679,39.707 138.536,39.818C138.394,39.929 138.205,39.984 137.969,39.984C137.524,39.984 137.198,39.757 136.99,39.302C136.781,38.844 136.677,38.125 136.677,37.146C136.677,36.674 136.703,36.266 136.755,35.922C136.807,35.578 136.885,35.295 136.99,35.073C137.097,34.851 137.234,34.688 137.401,34.583C137.568,34.476 137.766,34.422 137.995,34.422C138.214,34.422 138.394,34.474 138.536,34.578C138.606,34.627 138.677,34.696 138.75,34.786C138.823,34.877 138.894,34.988 138.964,35.12L138.964,31.052L139.958,31.052ZM137.708,37.182C137.708,37.891 137.755,38.385 137.849,38.667C137.946,38.948 138.116,39.089 138.359,39.089C138.582,39.089 138.743,38.943 138.844,38.651C138.944,38.339 138.995,37.858 138.995,37.208C138.995,36.556 138.944,36.073 138.844,35.76C138.743,35.469 138.582,35.323 138.359,35.323C138.123,35.323 137.955,35.462 137.854,35.74C137.757,35.997 137.708,36.477 137.708,37.182L137.708,37.182Z" style="fill:rgb(158,161,168);fill-rule:nonzero;"/>
            <path id="path1322" d="M143.172,38.083L144.099,38.083C144.026,39.351 143.505,39.984 142.536,39.984C142.248,39.984 142,39.931 141.792,39.823C141.587,39.715 141.417,39.549 141.281,39.323C141.146,39.097 141.045,38.811 140.979,38.464C140.917,38.116 140.885,37.703 140.885,37.224C140.885,36.273 141.017,35.568 141.281,35.109C141.549,34.651 141.96,34.422 142.516,34.422C143.595,34.422 144.135,35.373 144.135,37.276L144.135,37.401L141.859,37.401C141.859,38.554 142.089,39.13 142.547,39.13C142.964,39.13 143.172,38.781 143.172,38.083L143.172,38.083ZM143.12,36.682C143.078,36.116 143.014,35.745 142.927,35.568C142.837,35.37 142.691,35.271 142.49,35.271C142.285,35.271 142.139,35.37 142.052,35.568C141.965,35.745 141.901,36.116 141.859,36.682L143.12,36.682Z" style="fill:rgb(158,161,168);fill-rule:nonzero;"/>
        </g>
        <g id="text1327" transform="matrix(0.8322,0,0,1.20163,0,0)">
            <path id="path1356" d="M4.807,126.46L7.216,126.46L7.216,127.223L5.708,127.223L5.708,129.338L7.069,129.338L7.069,130.101L5.708,130.101L5.708,133.152L4.807,133.152L4.807,126.46Z" style="fill:rgb(158,161,168);fill-rule:nonzero;"/>
            <path id="path1358" d="M8.759,126.46L9.462,126.46L10.896,133.152L10.003,133.152L9.752,131.847L8.426,131.847L8.17,133.152L7.303,133.152L8.759,126.46ZM9.622,131.15L9.423,130.083C9.29,129.358 9.181,128.584 9.098,127.76C9.057,128.162 9.005,128.569 8.942,128.982C8.878,129.393 8.803,129.829 8.716,130.291L8.551,131.15L9.622,131.15Z" style="fill:rgb(158,161,168);fill-rule:nonzero;"/>
            <path id="path1360" d="M11.429,126.46L12.539,126.46C12.877,126.46 13.162,126.497 13.393,126.572C13.607,126.645 13.797,126.773 13.965,126.958C14.216,127.236 14.396,127.597 14.503,128.042C14.609,128.472 14.663,129.089 14.663,129.893C14.663,130.629 14.604,131.23 14.485,131.696C14.37,132.141 14.179,132.48 13.913,132.714C13.587,133.006 13.001,133.152 12.158,133.152L11.429,133.152L11.429,126.46ZM12.331,132.363C12.88,132.363 13.247,132.197 13.432,131.865C13.623,131.532 13.718,130.887 13.718,129.927C13.718,128.896 13.627,128.186 13.445,127.799C13.263,127.412 12.929,127.218 12.444,127.218L12.331,127.218L12.331,132.363Z" style="fill:rgb(158,161,168);fill-rule:nonzero;"/>
            <path id="path1362" d="M15.556,126.46L17.953,126.46L17.953,127.223L16.457,127.223L16.457,129.342L17.784,129.342L17.784,130.105L16.457,130.105L16.457,132.389L17.953,132.389L17.953,133.152L15.556,133.152L15.556,126.46Z" style="fill:rgb(158,161,168);fill-rule:nonzero;"/>
            <rect id="path1364" x="20.618" y="126.46" width="0.902" height="6.692" style="fill:rgb(158,161,168);fill-rule:nonzero;"/>
            <path id="path1366" d="M22.56,126.46L23.401,126.46L24.298,129.13C24.558,129.884 24.788,130.689 24.987,131.544C24.915,131.027 24.862,130.559 24.827,130.14C24.792,129.721 24.775,129.326 24.775,128.956L24.775,126.46L25.681,126.46L25.681,133.152L24.836,133.152L23.826,130.14C23.733,129.859 23.645,129.572 23.561,129.277C23.48,128.982 23.405,128.673 23.336,128.35C23.33,128.309 23.32,128.26 23.306,128.202C23.294,128.144 23.28,128.078 23.262,128.003C23.271,128.078 23.278,128.143 23.284,128.198C23.29,128.25 23.294,128.295 23.297,128.332L23.345,129.013L23.392,129.841C23.395,129.887 23.397,129.943 23.397,130.01C23.4,130.076 23.401,130.151 23.401,130.235L23.449,133.152L22.56,133.152L22.56,126.46Z" style="fill:rgb(158,161,168);fill-rule:nonzero;"/>
            <path id="path1368" d="M28.026,126.46L30.96,126.46L30.96,127.249L29.95,127.249L29.95,133.152L29.066,133.152L29.066,127.249L28.026,127.249L28.026,126.46Z" style="fill:rgb(158,161,168);fill-rule:nonzero;"/>
            <rect id="path1370" x="31.454" y="126.46" width="0.902" height="6.692" style="fill:rgb(158,161,168);fill-rule:nonzero;"/>
            <path id="path1372" d="M33.712,126.46L34.484,126.46L35.073,129.19C35.146,129.531 35.211,129.874 35.269,130.218C35.329,130.559 35.384,130.917 35.433,131.293C35.439,131.243 35.443,131.206 35.446,131.18C35.449,131.151 35.452,131.131 35.455,131.119L35.581,130.352L35.693,129.624L35.793,129.143L36.317,126.46L37.098,126.46L37.713,133.152L36.851,133.152L36.699,130.881C36.693,130.765 36.687,130.666 36.682,130.582C36.679,130.498 36.677,130.429 36.677,130.374L36.638,129.476L36.617,128.653C36.617,128.647 36.615,128.636 36.612,128.618C36.612,128.598 36.611,128.572 36.608,128.54L36.586,128.674C36.563,128.833 36.541,128.972 36.521,129.091C36.504,129.209 36.488,129.309 36.473,129.39L36.361,130.001L36.317,130.231L35.754,133.152L35.147,133.152L34.618,130.629C34.546,130.297 34.481,129.96 34.423,129.619C34.368,129.276 34.318,128.916 34.272,128.54L34.012,133.152L33.162,133.152L33.712,126.46Z" style="fill:rgb(158,161,168);fill-rule:nonzero;"/>
            <path id="path1374" d="M38.459,126.46L40.856,126.46L40.856,127.223L39.36,127.223L39.36,129.342L40.687,129.342L40.687,130.105L39.36,130.105L39.36,132.389L40.856,132.389L40.856,133.152L38.459,133.152L38.459,126.46Z" style="fill:rgb(158,161,168);fill-rule:nonzero;"/>
        </g>
        <g id="text1331" transform="matrix(0.778458,0,0,1.28459,0,0)">
            <path id="path1333" d="M5.138,136.899L7.393,136.899L7.393,137.613L5.982,137.613L5.982,139.591L7.255,139.591L7.255,140.305L5.982,140.305L5.982,143.159L5.138,143.159L5.138,136.899Z" style="fill:rgb(158,161,168);fill-rule:nonzero;"/>
            <path id="path1335" d="M8.836,136.899L9.493,136.899L10.835,143.159L10,143.159L9.765,141.939L8.524,141.939L8.285,143.159L7.474,143.159L8.836,136.899ZM9.643,141.286L9.456,140.289C9.332,139.61 9.231,138.886 9.152,138.115C9.114,138.491 9.066,138.872 9.006,139.259C8.947,139.643 8.877,140.051 8.795,140.483L8.641,141.286L9.643,141.286Z" style="fill:rgb(158,161,168);fill-rule:nonzero;"/>
            <path id="path1337" d="M11.334,136.899L12.372,136.899C12.688,136.899 12.954,136.934 13.17,137.005C13.37,137.072 13.549,137.192 13.705,137.365C13.941,137.625 14.108,137.963 14.208,138.379C14.308,138.782 14.358,139.359 14.358,140.11C14.358,140.8 14.303,141.362 14.192,141.797C14.084,142.213 13.905,142.531 13.657,142.75C13.351,143.023 12.804,143.159 12.015,143.159L11.334,143.159L11.334,136.899ZM12.177,142.421C12.69,142.421 13.034,142.266 13.207,141.955C13.385,141.644 13.474,141.04 13.474,140.143C13.474,139.178 13.389,138.514 13.219,138.152C13.049,137.79 12.736,137.609 12.282,137.609L12.177,137.609L12.177,142.421Z" style="fill:rgb(158,161,168);fill-rule:nonzero;"/>
            <path id="path1339" d="M15.193,136.899L17.436,136.899L17.436,137.613L16.037,137.613L16.037,139.595L17.277,139.595L17.277,140.309L16.037,140.309L16.037,142.446L17.436,142.446L17.436,143.159L15.193,143.159L15.193,136.899Z" style="fill:rgb(158,161,168);fill-rule:nonzero;"/>
            <path id="path1341" d="M23.063,140.183C23.063,141.289 22.94,142.074 22.694,142.539C22.448,143.004 22.036,143.236 21.458,143.236C20.849,143.236 20.421,142.986 20.172,142.486C19.926,141.997 19.803,141.128 19.803,139.879C19.803,138.766 19.925,137.978 20.168,137.515C20.414,137.05 20.831,136.818 21.417,136.818C21.941,136.818 22.331,136.998 22.585,137.357C22.752,137.598 22.874,137.94 22.95,138.383C23.025,138.794 23.063,139.394 23.063,140.183L23.063,140.183ZM22.179,140.272C22.179,139.189 22.131,138.47 22.033,138.115C21.936,137.759 21.737,137.58 21.437,137.58C21.137,137.58 20.937,137.744 20.837,138.071C20.74,138.401 20.691,139.063 20.691,140.058C20.691,140.974 20.743,141.609 20.845,141.963C20.951,142.298 21.148,142.466 21.437,142.466C21.721,142.466 21.916,142.309 22.021,141.996C22.127,141.685 22.179,141.11 22.179,140.272L22.179,140.272Z" style="fill:rgb(158,161,168);fill-rule:nonzero;"/>
            <path id="path1343" d="M23.902,136.899L24.73,136.899L24.73,141.323C24.73,141.774 24.77,142.074 24.851,142.223C24.935,142.371 25.1,142.446 25.346,142.446C25.592,142.446 25.754,142.381 25.832,142.251C25.913,142.119 25.954,141.85 25.954,141.444L25.954,136.899L26.781,136.899L26.781,141.444C26.781,142.125 26.677,142.586 26.469,142.827C26.22,143.1 25.84,143.236 25.33,143.236C24.767,143.236 24.371,143.061 24.142,142.709C23.982,142.469 23.902,142.006 23.902,141.323L23.902,136.899Z" style="fill:rgb(158,161,168);fill-rule:nonzero;"/>
            <path id="path1345" d="M27.247,136.899L29.992,136.899L29.992,137.637L29.048,137.637L29.048,143.159L28.22,143.159L28.22,137.637L27.247,137.637L27.247,136.899Z" style="fill:rgb(158,161,168);fill-rule:nonzero;"/>
            <path id="path1347" d="M31.675,136.899L34.42,136.899L34.42,137.637L33.475,137.637L33.475,143.159L32.648,143.159L32.648,137.637L31.675,137.637L31.675,136.899Z" style="fill:rgb(158,161,168);fill-rule:nonzero;"/>
            <rect id="path1349" x="34.882" y="136.899" width="0.843" height="6.26" style="fill:rgb(158,161,168);fill-rule:nonzero;"/>
            <path id="path1351" d="M36.994,136.899L37.716,136.899L38.267,139.453C38.335,139.772 38.396,140.093 38.45,140.414C38.507,140.733 38.558,141.068 38.604,141.42C38.609,141.374 38.613,141.339 38.616,141.314C38.619,141.287 38.621,141.268 38.624,141.258L38.742,140.54L38.847,139.859L38.94,139.409L39.431,136.899L40.161,136.899L40.736,143.159L39.929,143.159L39.788,141.035C39.782,140.927 39.777,140.833 39.771,140.755C39.769,140.677 39.767,140.612 39.767,140.56L39.73,139.721L39.71,138.951C39.71,138.945 39.709,138.935 39.706,138.918C39.706,138.899 39.705,138.875 39.702,138.845L39.681,138.971C39.66,139.12 39.639,139.249 39.621,139.36C39.604,139.471 39.59,139.564 39.576,139.64L39.471,140.212L39.43,140.426L38.903,143.159L38.336,143.159L37.842,140.799C37.774,140.489 37.713,140.174 37.659,139.855C37.608,139.533 37.561,139.197 37.517,138.845L37.274,143.159L36.479,143.159L36.994,136.899Z" style="fill:rgb(158,161,168);fill-rule:nonzero;"/>
            <path id="path1353" d="M41.434,136.899L43.676,136.899L43.676,137.613L42.277,137.613L42.277,139.595L43.518,139.595L43.518,140.309L42.277,140.309L42.277,142.446L43.676,142.446L43.676,143.159L41.434,143.159L41.434,136.899Z" style="fill:rgb(158,161,168);fill-rule:nonzero;"/>
        </g>
        <g id="text1379" transform="matrix(0.903508,0,0,1.1068,0,-1.1224)">
            <path id="path1381" d="M6.641,30.791L8.544,30.791L8.544,31.393L7.353,31.393L7.353,33.064L8.427,33.064L8.427,33.666L7.353,33.666L7.353,36.075L6.641,36.075L6.641,30.791Z" style="fill:rgb(158,161,168);fill-rule:nonzero;"/>
            <path id="path1383" d="M9.762,30.791L10.316,30.791L11.449,36.075L10.744,36.075L10.546,35.045L9.498,35.045L9.297,36.075L8.612,36.075L9.762,30.791ZM10.443,34.494L10.286,33.652C10.181,33.08 10.095,32.468 10.029,31.818C9.997,32.135 9.956,32.457 9.906,32.783C9.856,33.107 9.796,33.451 9.728,33.817L9.598,34.494L10.443,34.494Z" style="fill:rgb(158,161,168);fill-rule:nonzero;"/>
            <path id="path1385" d="M11.87,30.791L12.746,30.791C13.013,30.791 13.238,30.821 13.421,30.88C13.589,30.937 13.74,31.039 13.872,31.185C14.071,31.404 14.212,31.689 14.297,32.04C14.381,32.38 14.423,32.867 14.423,33.502C14.423,34.083 14.377,34.558 14.283,34.925C14.192,35.277 14.041,35.545 13.831,35.73C13.573,35.96 13.111,36.075 12.445,36.075L11.87,36.075L11.87,30.791ZM12.582,35.452C13.016,35.452 13.305,35.321 13.451,35.059C13.602,34.796 13.677,34.287 13.677,33.529C13.677,32.715 13.605,32.154 13.462,31.849C13.318,31.543 13.054,31.39 12.671,31.39L12.582,31.39L12.582,35.452Z" style="fill:rgb(158,161,168);fill-rule:nonzero;"/>
            <path id="path1387" d="M15.128,30.791L17.021,30.791L17.021,31.393L15.84,31.393L15.84,33.067L16.887,33.067L16.887,33.669L15.84,33.669L15.84,35.473L17.021,35.473L17.021,36.075L15.128,36.075L15.128,30.791Z" style="fill:rgb(158,161,168);fill-rule:nonzero;"/>
            <path id="path1389" d="M20.888,30.901L20.888,31.595C20.671,31.44 20.476,31.363 20.303,31.363C20.116,31.363 19.963,31.429 19.844,31.561C19.726,31.687 19.666,31.854 19.666,32.064C19.666,32.249 19.709,32.408 19.793,32.54C19.836,32.611 19.907,32.702 20.005,32.814C20.106,32.926 20.234,33.06 20.392,33.218C20.682,33.512 20.879,33.766 20.984,33.981C21.089,34.188 21.141,34.443 21.141,34.744C21.141,35.152 21.026,35.489 20.796,35.754C20.565,36.011 20.27,36.14 19.909,36.14C19.606,36.14 19.347,36.057 19.132,35.89L19.132,35.185C19.386,35.37 19.616,35.463 19.824,35.463C20.018,35.463 20.169,35.399 20.279,35.271C20.388,35.141 20.443,34.965 20.443,34.744C20.443,34.552 20.401,34.38 20.317,34.227C20.273,34.154 20.213,34.071 20.135,33.977C20.058,33.882 19.961,33.775 19.844,33.659C19.664,33.481 19.515,33.324 19.396,33.187C19.277,33.05 19.19,32.93 19.132,32.827C19.023,32.627 18.968,32.373 18.968,32.068C18.968,31.655 19.075,31.327 19.29,31.085C19.507,30.841 19.798,30.719 20.163,30.719C20.416,30.719 20.658,30.78 20.888,30.901L20.888,30.901Z" style="fill:rgb(158,161,168);fill-rule:nonzero;"/>
            <path id="path1391" d="M21.402,30.791L23.718,30.791L23.718,31.414L22.921,31.414L22.921,36.075L22.223,36.075L22.223,31.414L21.402,31.414L21.402,30.791Z" style="fill:rgb(158,161,168);fill-rule:nonzero;"/>
            <path id="path1393" d="M24.766,30.791L25.32,30.791L26.453,36.075L25.748,36.075L25.549,35.045L24.502,35.045L24.3,36.075L23.616,36.075L24.766,30.791ZM25.447,34.494L25.289,33.652C25.184,33.08 25.099,32.468 25.033,31.818C25.001,32.135 24.96,32.457 24.909,32.783C24.859,33.107 24.8,33.451 24.731,33.817L24.601,34.494L25.447,34.494Z" style="fill:rgb(158,161,168);fill-rule:nonzero;"/>
            <path id="path1395" d="M26.343,30.791L28.66,30.791L28.66,31.414L27.863,31.414L27.863,36.075L27.165,36.075L27.165,31.414L26.343,31.414L26.343,30.791Z" style="fill:rgb(158,161,168);fill-rule:nonzero;"/>
            <path id="path1397" d="M29.051,30.791L29.749,30.791L29.749,34.525C29.749,34.906 29.783,35.159 29.851,35.285C29.922,35.41 30.061,35.473 30.269,35.473C30.477,35.473 30.613,35.418 30.68,35.309C30.748,35.197 30.782,34.97 30.782,34.628L30.782,30.791L31.48,30.791L31.48,34.628C31.48,35.203 31.393,35.592 31.217,35.795C31.007,36.025 30.686,36.14 30.255,36.14C29.781,36.14 29.446,35.992 29.252,35.695C29.118,35.492 29.051,35.102 29.051,34.525L29.051,30.791Z" style="fill:rgb(158,161,168);fill-rule:nonzero;"/>
            <path id="path1399" d="M34.057,30.901L34.057,31.595C33.841,31.44 33.646,31.363 33.472,31.363C33.285,31.363 33.132,31.429 33.014,31.561C32.895,31.687 32.836,31.854 32.836,32.064C32.836,32.249 32.878,32.408 32.962,32.54C33.006,32.611 33.076,32.702 33.174,32.814C33.275,32.926 33.404,33.06 33.561,33.218C33.851,33.512 34.048,33.766 34.153,33.981C34.258,34.188 34.311,34.443 34.311,34.744C34.311,35.152 34.195,35.489 33.965,35.754C33.735,36.011 33.439,36.14 33.079,36.14C32.775,36.14 32.516,36.057 32.302,35.89L32.302,35.185C32.555,35.37 32.785,35.463 32.993,35.463C33.187,35.463 33.339,35.399 33.448,35.271C33.558,35.141 33.613,34.965 33.613,34.744C33.613,34.552 33.57,34.38 33.486,34.227C33.443,34.154 33.382,34.071 33.305,33.977C33.227,33.882 33.13,33.775 33.014,33.659C32.833,33.481 32.684,33.324 32.565,33.187C32.447,33.05 32.359,32.93 32.302,32.827C32.192,32.627 32.138,32.373 32.138,32.068C32.138,31.655 32.245,31.327 32.459,31.085C32.676,30.841 32.967,30.719 33.332,30.719C33.585,30.719 33.827,30.78 34.057,30.901L34.057,30.901Z" style="fill:rgb(158,161,168);fill-rule:nonzero;"/>
        </g>
    </g>
</svg>
