<?xml version="1.0" encoding="UTF-8" standalone="no"?>
<!DOCTYPE svg PUBLIC "-//W3C//DTD SVG 1.1//EN" "http://www.w3.org/Graphics/SVG/1.1/DTD/svg11.dtd">
<svg width="100%" height="100%" viewBox="0 0 30 380" version="1.1" xmlns="http://www.w3.org/2000/svg" xmlns:xlink="http://www.w3.org/1999/xlink" xml:space="preserve" xmlns:serif="http://www.serif.com/" style="fill-rule:evenodd;clip-rule:evenodd;stroke-linejoin:round;stroke-miterlimit:2;">
    <g id="Layer-2" serif:id="Layer 2">
        <g id="text989">
        </g>
        <g id="g1290" transform="matrix(0.625,0,0,1,-138.75,1.29245e-05)">
            <rect id="rect1280" x="222" y="0" width="48" height="380" style="fill:rgb(189,195,197);"/>
            <g id="text1164" transform="matrix(0.835383,0,0,1.19706,-33.0673,0)">
                <path id="path1166" d="M320.742,12.192L323.209,12.192L323.209,12.583C323.209,14.545 323.037,15.87 322.693,16.558C322.354,17.263 321.719,17.615 320.788,17.615C319.826,17.615 319.141,17.223 318.732,16.44C318.327,15.657 318.125,14.341 318.125,12.492C318.125,10.377 318.347,8.97 318.791,8.269C319.208,7.612 319.85,7.284 320.716,7.284C321.377,7.284 321.893,7.443 322.263,7.76C322.637,8.082 322.928,8.611 323.137,9.346L321.871,9.875C321.814,9.609 321.751,9.387 321.682,9.209C321.612,9.026 321.536,8.885 321.453,8.785C321.288,8.58 321.04,8.478 320.709,8.478C320.257,8.478 319.948,8.757 319.783,9.313C319.617,9.896 319.534,10.943 319.534,12.453C319.534,13.98 319.619,15.013 319.789,15.553C319.959,16.092 320.279,16.362 320.748,16.362C321.179,16.362 321.482,16.171 321.656,15.788C321.834,15.379 321.923,14.722 321.923,13.817L321.923,13.543L321.923,13.34L320.742,13.34L320.742,12.192Z" style="fill:rgb(189,195,197);fill-rule:nonzero;"/>
                <path id="path1168" d="M324.566,7.414L325.924,7.414L325.924,16.342L328.143,16.342L328.143,17.491L324.566,17.491L324.566,7.414Z" style="fill:rgb(189,195,197);fill-rule:nonzero;"/>
                <path id="path1170" d="M334.049,12.701C334.049,14.48 333.851,15.744 333.455,16.493C333.059,17.241 332.396,17.615 331.465,17.615C330.486,17.615 329.796,17.213 329.396,16.408C329,15.62 328.802,14.221 328.802,12.211C328.802,10.419 328.998,9.15 329.389,8.406C329.785,7.658 330.455,7.284 331.4,7.284C332.244,7.284 332.87,7.573 333.279,8.152C333.549,8.539 333.745,9.089 333.867,9.803C333.988,10.464 334.049,11.43 334.049,12.701ZM332.627,12.844C332.627,11.1 332.548,9.942 332.392,9.372C332.235,8.798 331.915,8.511 331.432,8.511C330.949,8.511 330.627,8.774 330.466,9.3C330.31,9.831 330.231,10.897 330.231,12.498C330.231,13.973 330.314,14.996 330.479,15.566C330.649,16.105 330.967,16.375 331.432,16.375C331.889,16.375 332.202,16.123 332.372,15.618C332.542,15.118 332.627,14.193 332.627,12.844L332.627,12.844Z" style="fill:rgb(189,195,197);fill-rule:nonzero;"/>
                <path id="path1172" d="M335.4,7.414L337.241,7.414C338.681,7.414 339.401,8.308 339.401,10.097C339.401,10.78 339.307,11.287 339.12,11.617C338.933,11.948 338.603,12.198 338.128,12.368C338.672,12.585 339.044,12.864 339.244,13.203C339.449,13.538 339.551,14.043 339.551,14.717C339.551,16.567 338.759,17.491 337.175,17.491L335.4,17.491L335.4,7.414ZM336.679,11.852C337.206,11.852 337.571,11.73 337.776,11.487C337.98,11.23 338.083,10.78 338.083,10.136C338.083,9.048 337.691,8.504 336.908,8.504L336.803,8.504L336.745,8.504C336.71,8.504 336.688,8.506 336.679,8.511L336.679,11.852ZM336.679,16.329C337.236,16.329 337.621,16.21 337.835,15.97C338.048,15.731 338.154,15.298 338.154,14.672C338.154,14.028 338.043,13.577 337.822,13.321C337.604,13.06 337.223,12.929 336.679,12.929L336.679,16.329Z" style="fill:rgb(189,195,197);fill-rule:nonzero;"/>
                <path id="path1174" d="M342.397,7.414L343.454,7.414L345.614,17.491L344.27,17.491L343.891,15.527L341.894,15.527L341.509,17.491L340.204,17.491L342.397,7.414ZM343.695,14.476L343.395,12.87C343.195,11.778 343.032,10.612 342.906,9.372C342.845,9.977 342.766,10.59 342.671,11.213C342.575,11.83 342.462,12.487 342.331,13.184L342.083,14.476L343.695,14.476Z" style="fill:rgb(189,195,197);fill-rule:nonzero;"/>
                <path id="path1176" d="M346.417,7.414L347.774,7.414L347.774,16.342L349.993,16.342L349.993,17.491L346.417,17.491L346.417,7.414Z" style="fill:rgb(189,195,197);fill-rule:nonzero;"/>
            </g>
        </g>
        <rect id="rect4689" x="0" y="0" width="30" height="380" style="fill:rgb(44,45,48);"/>
        <g id="text4987">
        </g>
        <g id="text1042">
        </g>
        <g id="text1332">
        </g>
        <g id="text1171">
        </g>
        <g id="text1197">
        </g>
        <g id="text1132" transform="matrix(0.193986,0,0,1.31561,0.681818,74.8088)">
            <path id="path1217" d="M6.282,230.32L5.161,230.32L3.582,226.393L2.761,230.32L1.64,230.32L2.86,224.475L3.985,224.475L5.568,228.386L6.385,224.475L7.502,224.475L6.282,230.32Z" style="fill:rgb(158,161,168);fill-rule:nonzero;"/>
            <path id="path1226" d="M10.448,230.32L9.248,230.32L9.723,228.044L8.112,224.475L9.392,224.475L10.117,226.126C10.29,226.522 10.406,226.807 10.464,226.983C10.563,226.81 10.677,226.627 10.807,226.433L11.362,225.659L12.187,224.475L13.582,224.475L10.903,228.155L10.448,230.32Z" style="fill:rgb(158,161,168);fill-rule:nonzero;"/>
            <path id="path1235" d="M13.148,228.426L14.292,228.367C14.308,228.731 14.371,228.977 14.48,229.104C14.655,229.312 14.979,229.415 15.453,229.415C15.846,229.415 16.13,229.345 16.306,229.204C16.481,229.063 16.569,228.893 16.569,228.693C16.569,228.521 16.497,228.374 16.354,228.255C16.253,228.167 15.975,228.025 15.52,227.828C15.068,227.632 14.738,227.468 14.528,227.338C14.32,227.205 14.157,227.033 14.037,226.823C13.917,226.613 13.858,226.367 13.858,226.086C13.858,225.594 14.036,225.186 14.392,224.862C14.748,224.537 15.264,224.375 15.939,224.375C16.625,224.375 17.155,224.536 17.53,224.858C17.907,225.179 18.115,225.607 18.152,226.142L17,226.193C16.97,225.914 16.869,225.7 16.697,225.551C16.524,225.403 16.269,225.328 15.931,225.328C15.599,225.328 15.361,225.387 15.217,225.504C15.076,225.621 15.006,225.768 15.006,225.946C15.006,226.114 15.071,226.252 15.201,226.361C15.332,226.473 15.62,226.625 16.067,226.819C16.739,227.109 17.167,227.344 17.351,227.525C17.624,227.791 17.761,228.133 17.761,228.55C17.761,229.066 17.557,229.507 17.147,229.874C16.741,230.238 16.173,230.42 15.445,230.42C14.942,230.42 14.506,230.336 14.137,230.169C13.77,229.999 13.511,229.763 13.359,229.463C13.208,229.163 13.137,228.817 13.148,228.426L13.148,228.426Z" style="fill:rgb(158,161,168);fill-rule:nonzero;"/>
            <path id="path1242" d="M20.963,230.32L19.759,230.32L20.78,225.452L19.065,225.452L19.269,224.475L23.874,224.475L23.671,225.452L21.98,225.452L20.963,230.32Z" style="fill:rgb(158,161,168);fill-rule:nonzero;"/>
            <path id="path1255" d="M27.443,227.709L25.182,227.709L24.636,230.32L23.431,230.32L24.656,224.475L25.856,224.475L25.385,226.732L27.646,226.732L28.121,224.475L29.321,224.475L28.101,230.32L26.896,230.32L27.443,227.709Z" style="fill:rgb(158,161,168);fill-rule:nonzero;"/>
            <path id="path1261" d="M29.261,230.32L30.485,224.475L31.685,224.475L30.465,230.32L29.261,230.32Z" style="fill:rgb(158,161,168);fill-rule:nonzero;"/>
            <path id="path1263" d="M38.448,227.776L39.273,228.271C39.196,228.42 39.095,228.582 38.97,228.757C38.848,228.93 38.734,229.066 38.627,229.164C38.779,229.326 38.973,229.507 39.21,229.706L38.488,230.456C38.397,230.408 38.282,230.327 38.141,230.213C38.003,230.098 37.886,229.991 37.79,229.89C37.599,230.041 37.358,230.167 37.068,230.268C36.779,230.369 36.466,230.42 36.131,230.42C35.525,230.42 35.049,230.261 34.704,229.942C34.358,229.62 34.185,229.226 34.185,228.761C34.185,228.466 34.253,228.192 34.389,227.94C34.527,227.685 34.705,227.467 34.923,227.286C35.08,227.156 35.335,226.996 35.689,226.807C35.516,226.433 35.429,226.106 35.429,225.827C35.429,225.417 35.578,225.073 35.876,224.794C36.176,224.515 36.571,224.375 37.06,224.375C37.48,224.375 37.813,224.487 38.057,224.71C38.304,224.931 38.428,225.19 38.428,225.488C38.428,225.74 38.322,226.014 38.109,226.309C37.899,226.601 37.552,226.87 37.068,227.114C37.22,227.37 37.409,227.662 37.635,227.992C37.77,228.194 37.879,228.339 37.961,228.426C38.097,228.291 38.259,228.074 38.448,227.776ZM36.654,226.333C36.967,226.173 37.188,226.013 37.316,225.85C37.406,225.733 37.451,225.615 37.451,225.496C37.451,225.387 37.414,225.298 37.339,225.228C37.268,225.157 37.168,225.121 37.04,225.121C36.881,225.121 36.748,225.177 36.642,225.288C36.535,225.397 36.482,225.541 36.482,225.719C36.482,225.889 36.539,226.094 36.654,226.333L36.654,226.333ZM36.103,227.613C35.577,227.876 35.314,228.223 35.314,228.654C35.314,228.898 35.392,229.099 35.549,229.256C35.706,229.413 35.915,229.491 36.175,229.491C36.491,229.491 36.817,229.381 37.152,229.16C36.751,228.671 36.401,228.155 36.103,227.613Z" style="fill:rgb(158,161,168);fill-rule:nonzero;"/>
            <path id="path1265" d="M42.029,230.32L43.253,224.475L44.828,224.475C45.266,224.475 45.547,224.481 45.669,224.495C45.911,224.519 46.126,224.568 46.315,224.642C46.506,224.717 46.679,224.822 46.833,224.957C46.99,225.09 47.125,225.251 47.236,225.44C47.35,225.629 47.438,225.847 47.499,226.094C47.56,226.338 47.591,226.607 47.591,226.899C47.591,227.529 47.47,228.089 47.228,228.578C46.989,229.064 46.687,229.451 46.323,229.738C46.044,229.962 45.684,230.126 45.242,230.233C44.993,230.291 44.608,230.32 44.09,230.32L42.029,230.32ZM43.428,229.379L44.038,229.379C44.48,229.379 44.799,229.353 44.995,229.3C45.195,229.244 45.377,229.141 45.542,228.993C45.778,228.777 45.977,228.49 46.14,228.131C46.302,227.772 46.383,227.35 46.383,226.863C46.383,226.449 46.315,226.138 46.18,225.93C46.047,225.72 45.882,225.581 45.685,225.512C45.547,225.464 45.301,225.44 44.947,225.44L44.25,225.44L43.428,229.379Z" style="fill:rgb(158,161,168);fill-rule:nonzero;"/>
            <path id="path1268" d="M47.858,230.32L49.082,224.475L50.283,224.475L49.062,230.32L47.858,230.32Z" style="fill:rgb(158,161,168);fill-rule:nonzero;"/>
            <path id="path1270" d="M50.358,228.426L51.503,228.367C51.519,228.731 51.581,228.977 51.69,229.104C51.866,229.312 52.19,229.415 52.663,229.415C53.056,229.415 53.341,229.345 53.516,229.204C53.692,229.063 53.78,228.893 53.78,228.693C53.78,228.521 53.708,228.374 53.564,228.255C53.463,228.167 53.185,228.025 52.731,227.828C52.279,227.632 51.948,227.468 51.738,227.338C51.531,227.205 51.367,227.033 51.248,226.823C51.128,226.613 51.068,226.367 51.068,226.086C51.068,225.594 51.246,225.186 51.602,224.862C51.959,224.537 52.474,224.375 53.149,224.375C53.835,224.375 54.366,224.536 54.74,224.858C55.118,225.179 55.325,225.607 55.362,226.142L54.21,226.193C54.181,225.914 54.08,225.7 53.907,225.551C53.734,225.403 53.479,225.328 53.142,225.328C52.809,225.328 52.571,225.387 52.428,225.504C52.287,225.621 52.216,225.768 52.216,225.946C52.216,226.114 52.282,226.252 52.412,226.361C52.542,226.473 52.831,226.625 53.277,226.819C53.95,227.109 54.378,227.344 54.561,227.525C54.835,227.791 54.972,228.133 54.972,228.55C54.972,229.066 54.767,229.507 54.358,229.874C53.951,230.238 53.383,230.42 52.655,230.42C52.153,230.42 51.717,230.336 51.347,230.169C50.98,229.999 50.721,229.763 50.57,229.463C50.418,229.163 50.348,228.817 50.358,228.426L50.358,228.426Z" style="fill:rgb(158,161,168);fill-rule:nonzero;"/>
            <path id="path1272" d="M55.813,228.426L56.957,228.367C56.973,228.731 57.036,228.977 57.145,229.104C57.32,229.312 57.645,229.415 58.118,229.415C58.511,229.415 58.796,229.345 58.971,229.204C59.147,229.063 59.234,228.893 59.234,228.693C59.234,228.521 59.163,228.374 59.019,228.255C58.918,228.167 58.64,228.025 58.186,227.828C57.734,227.632 57.403,227.468 57.193,227.338C56.985,227.205 56.822,227.033 56.702,226.823C56.583,226.613 56.523,226.367 56.523,226.086C56.523,225.594 56.701,225.186 57.057,224.862C57.413,224.537 57.929,224.375 58.604,224.375C59.29,224.375 59.82,224.536 60.195,224.858C60.573,225.179 60.78,225.607 60.817,226.142L59.665,226.193C59.636,225.914 59.535,225.7 59.362,225.551C59.189,225.403 58.934,225.328 58.596,225.328C58.264,225.328 58.026,225.387 57.883,225.504C57.742,225.621 57.671,225.768 57.671,225.946C57.671,226.114 57.736,226.252 57.867,226.361C57.997,226.473 58.285,226.625 58.732,226.819C59.404,227.109 59.832,227.344 60.016,227.525C60.29,227.791 60.427,228.133 60.427,228.55C60.427,229.066 60.222,229.507 59.812,229.874C59.406,230.238 58.838,230.42 58.11,230.42C57.607,230.42 57.171,230.336 56.802,230.169C56.435,229.999 56.176,229.763 56.024,229.463C55.873,229.163 55.802,228.817 55.813,228.426L55.813,228.426Z" style="fill:rgb(158,161,168);fill-rule:nonzero;"/>
            <path id="path1274" d="M61.463,228.028C61.463,227.682 61.515,227.318 61.619,226.935C61.754,226.422 61.96,225.977 62.237,225.599C62.516,225.222 62.867,224.924 63.289,224.706C63.712,224.485 64.193,224.375 64.733,224.375C65.456,224.375 66.039,224.6 66.483,225.049C66.93,225.498 67.153,226.094 67.153,226.835C67.153,227.452 67.008,228.049 66.719,228.626C66.429,229.202 66.035,229.646 65.538,229.957C65.041,230.268 64.479,230.424 63.852,230.424C63.307,230.424 62.85,230.3 62.48,230.053C62.111,229.806 61.849,229.5 61.695,229.136C61.54,228.769 61.463,228.4 61.463,228.028L61.463,228.028ZM62.651,228.004C62.651,228.405 62.774,228.741 63.018,229.013C63.263,229.284 63.585,229.419 63.983,229.419C64.308,229.419 64.619,229.313 64.916,229.1C65.217,228.885 65.464,228.561 65.658,228.127C65.855,227.691 65.953,227.267 65.953,226.855C65.953,226.395 65.829,226.035 65.582,225.775C65.335,225.512 65.02,225.38 64.637,225.38C64.05,225.38 63.571,225.654 63.202,226.201C62.835,226.749 62.651,227.35 62.651,228.004L62.651,228.004Z" style="fill:rgb(158,161,168);fill-rule:nonzero;"/>
            <path id="path1276" d="M71.667,228.215L72.879,228.398C72.643,229.055 72.288,229.557 71.815,229.906C71.341,230.251 70.787,230.424 70.152,230.424C69.437,230.424 68.877,230.209 68.473,229.778C68.072,229.347 67.871,228.723 67.871,227.904C67.871,227.239 68.005,226.632 68.274,226.082C68.545,225.529 68.92,225.106 69.398,224.814C69.877,224.521 70.398,224.375 70.961,224.375C71.594,224.375 72.106,224.545 72.496,224.885C72.887,225.223 73.117,225.684 73.186,226.269L72.034,226.381C71.97,226.041 71.846,225.795 71.663,225.643C71.482,225.489 71.24,225.412 70.937,225.412C70.605,225.412 70.294,225.513 70.004,225.715C69.717,225.917 69.487,226.233 69.314,226.664C69.142,227.092 69.055,227.52 69.055,227.948C69.055,228.416 69.167,228.777 69.39,229.032C69.616,229.288 69.897,229.415 70.232,229.415C70.543,229.415 70.827,229.314 71.085,229.112C71.345,228.91 71.539,228.611 71.667,228.215L71.667,228.215Z" style="fill:rgb(158,161,168);fill-rule:nonzero;"/>
            <path id="path1278" d="M73.282,230.32L74.506,224.475L75.706,224.475L74.486,230.32L73.282,230.32Z" style="fill:rgb(158,161,168);fill-rule:nonzero;"/>
            <path id="path1281" d="M79.426,229.028L77.11,229.028L76.408,230.32L75.172,230.32L78.477,224.475L79.813,224.475L80.762,230.32L79.622,230.32L79.426,229.028ZM79.279,228.055L78.94,225.703L77.528,228.055L79.279,228.055Z" style="fill:rgb(158,161,168);fill-rule:nonzero;"/>
            <path id="path1283" d="M83.438,230.32L82.234,230.32L83.254,225.452L81.54,225.452L81.743,224.475L86.349,224.475L86.145,225.452L84.455,225.452L83.438,230.32Z" style="fill:rgb(158,161,168);fill-rule:nonzero;"/>
            <path id="path1285" d="M85.886,230.32L87.106,224.475L91.441,224.475L91.237,225.452L88.107,225.452L87.828,226.78L90.854,226.78L90.651,227.756L87.625,227.756L87.258,229.343L90.659,229.343L90.452,230.32L85.886,230.32Z" style="fill:rgb(158,161,168);fill-rule:nonzero;"/>
            <path id="path1287" d="M91.524,228.426L92.669,228.367C92.685,228.731 92.747,228.977 92.856,229.104C93.032,229.312 93.356,229.415 93.829,229.415C94.222,229.415 94.507,229.345 94.682,229.204C94.858,229.063 94.945,228.893 94.945,228.693C94.945,228.521 94.874,228.374 94.73,228.255C94.629,228.167 94.351,228.025 93.897,227.828C93.445,227.632 93.114,227.468 92.904,227.338C92.697,227.205 92.533,227.033 92.413,226.823C92.294,226.613 92.234,226.367 92.234,226.086C92.234,225.594 92.412,225.186 92.768,224.862C93.125,224.537 93.64,224.375 94.315,224.375C95.001,224.375 95.532,224.536 95.906,224.858C96.284,225.179 96.491,225.607 96.528,226.142L95.376,226.193C95.347,225.914 95.246,225.7 95.073,225.551C94.9,225.403 94.645,225.328 94.307,225.328C93.975,225.328 93.737,225.387 93.594,225.504C93.453,225.621 93.382,225.768 93.382,225.946C93.382,226.114 93.448,226.252 93.578,226.361C93.708,226.473 93.996,226.625 94.443,226.819C95.116,227.109 95.544,227.344 95.727,227.525C96.001,227.791 96.138,228.133 96.138,228.55C96.138,229.066 95.933,229.507 95.524,229.874C95.117,230.238 94.549,230.42 93.821,230.42C93.319,230.42 92.883,230.336 92.513,230.169C92.146,229.999 91.887,229.763 91.736,229.463C91.584,229.163 91.514,228.817 91.524,228.426L91.524,228.426Z" style="fill:rgb(158,161,168);fill-rule:nonzero;"/>
            <path id="path1289" d="M99.272,227.661L101.493,227.661L101.261,228.765L99.04,228.765L99.272,227.661Z" style="fill:rgb(158,161,168);fill-rule:nonzero;"/>
            <path id="path1291" d="M104.236,228.426L105.38,228.367C105.396,228.731 105.459,228.977 105.568,229.104C105.743,229.312 106.068,229.415 106.541,229.415C106.934,229.415 107.219,229.345 107.394,229.204C107.57,229.063 107.657,228.893 107.657,228.693C107.657,228.521 107.586,228.374 107.442,228.255C107.341,228.167 107.063,228.025 106.609,227.828C106.157,227.632 105.826,227.468 105.616,227.338C105.408,227.205 105.245,227.033 105.125,226.823C105.006,226.613 104.946,226.367 104.946,226.086C104.946,225.594 105.124,225.186 105.48,224.862C105.836,224.537 106.352,224.375 107.027,224.375C107.713,224.375 108.243,224.536 108.618,224.858C108.996,225.179 109.203,225.607 109.24,226.142L108.088,226.193C108.059,225.914 107.958,225.7 107.785,225.551C107.612,225.403 107.357,225.328 107.019,225.328C106.687,225.328 106.449,225.387 106.306,225.504C106.165,225.621 106.094,225.768 106.094,225.946C106.094,226.114 106.159,226.252 106.29,226.361C106.42,226.473 106.708,226.625 107.155,226.819C107.827,227.109 108.255,227.344 108.439,227.525C108.713,227.791 108.85,228.133 108.85,228.55C108.85,229.066 108.645,229.507 108.235,229.874C107.829,230.238 107.261,230.42 106.533,230.42C106.03,230.42 105.595,230.336 105.225,230.169C104.858,229.999 104.599,229.763 104.447,229.463C104.296,229.163 104.225,228.817 104.236,228.426L104.236,228.426Z" style="fill:rgb(158,161,168);fill-rule:nonzero;"/>
            <path id="path1293" d="M112.761,227.198L115.377,227.198L114.851,229.706C114.542,229.906 114.163,230.074 113.714,230.213C113.268,230.351 112.812,230.42 112.346,230.42C111.623,230.42 111.069,230.257 110.684,229.93C110.157,229.483 109.894,228.836 109.894,227.988C109.894,227.419 110.007,226.874 110.233,226.353C110.504,225.726 110.89,225.239 111.389,224.893C111.889,224.548 112.477,224.375 113.152,224.375C113.827,224.375 114.368,224.532 114.775,224.846C115.184,225.159 115.455,225.617 115.588,226.217L114.468,226.345C114.369,226.015 114.21,225.767 113.989,225.599C113.771,225.432 113.496,225.348 113.164,225.348C112.776,225.348 112.42,225.449 112.095,225.651C111.771,225.853 111.517,226.165 111.334,226.588C111.15,227.011 111.058,227.472 111.058,227.972C111.058,228.463 111.17,228.828 111.393,229.064C111.617,229.298 111.944,229.415 112.374,229.415C112.632,229.415 112.897,229.379 113.168,229.308C113.439,229.233 113.673,229.145 113.87,229.044L114.049,228.175L112.558,228.175L112.761,227.198Z" style="fill:rgb(158,161,168);fill-rule:nonzero;"/>
            <path id="path1295" d="M119.683,229.028L117.367,229.028L116.665,230.32L115.429,230.32L118.734,224.475L120.07,224.475L121.019,230.32L119.879,230.32L119.683,229.028ZM119.536,228.055L119.197,225.703L117.785,228.055L119.536,228.055Z" style="fill:rgb(158,161,168);fill-rule:nonzero;"/>
            <path id="path1297" d="M125.991,228.215L127.204,228.398C126.967,229.055 126.612,229.557 126.139,229.906C125.666,230.251 125.111,230.424 124.476,230.424C123.761,230.424 123.202,230.209 122.797,229.778C122.396,229.347 122.195,228.723 122.195,227.904C122.195,227.239 122.33,226.632 122.598,226.082C122.869,225.529 123.244,225.106 123.723,224.814C124.201,224.521 124.722,224.375 125.286,224.375C125.918,224.375 126.43,224.545 126.821,224.885C127.212,225.223 127.441,225.684 127.511,226.269L126.358,226.381C126.294,226.041 126.171,225.795 125.987,225.643C125.807,225.489 125.565,225.412 125.262,225.412C124.929,225.412 124.618,225.513 124.329,225.715C124.042,225.917 123.812,226.233 123.639,226.664C123.466,227.092 123.38,227.52 123.38,227.948C123.38,228.416 123.491,228.777 123.715,229.032C123.94,229.288 124.221,229.415 124.556,229.415C124.867,229.415 125.151,229.314 125.409,229.112C125.67,228.91 125.864,228.611 125.991,228.215Z" style="fill:rgb(158,161,168);fill-rule:nonzero;"/>
            <path id="path1299" d="M130.134,227.661L132.355,227.661L132.124,228.765L129.903,228.765L130.134,227.661Z" style="fill:rgb(158,161,168);fill-rule:nonzero;"/>
            <path id="path1301" d="M139.588,230.32L138.468,230.32L136.889,226.393L136.068,230.32L134.947,230.32L136.167,224.475L137.292,224.475L138.875,228.386L139.692,224.475L140.809,224.475L139.588,230.32Z" style="fill:rgb(158,161,168);fill-rule:nonzero;"/>
            <path id="path1303" d="M144.644,229.028L142.328,229.028L141.626,230.32L140.39,230.32L143.695,224.475L145.031,224.475L145.98,230.32L144.84,230.32L144.644,229.028ZM144.497,228.055L144.158,225.703L142.746,228.055L144.497,228.055Z" style="fill:rgb(158,161,168);fill-rule:nonzero;"/>
        </g>
        <g id="text1066" transform="matrix(0.720211,0,0,1.41177,0,-8.47572)">
            <path id="path1564" d="M11.561,57.617L10.414,57.617L11.58,52.045L14.055,52.045C14.48,52.045 14.811,52.09 15.047,52.178C15.285,52.264 15.476,52.424 15.62,52.657C15.767,52.89 15.841,53.173 15.841,53.505C15.841,53.978 15.699,54.37 15.415,54.679C15.131,54.986 14.702,55.176 14.127,55.249C14.274,55.381 14.412,55.554 14.541,55.77C14.797,56.206 15.082,56.821 15.396,57.617L14.165,57.617C14.066,57.303 13.872,56.812 13.583,56.146C13.426,55.786 13.259,55.544 13.082,55.42C12.973,55.347 12.783,55.31 12.512,55.31L12.044,55.31L11.561,57.617ZM12.219,54.474L12.827,54.474C13.443,54.474 13.851,54.437 14.051,54.364C14.253,54.29 14.412,54.175 14.526,54.018C14.64,53.861 14.697,53.696 14.697,53.524C14.697,53.321 14.615,53.169 14.45,53.068C14.348,53.007 14.129,52.976 13.792,52.976L12.531,52.976L12.219,54.474Z" style="fill:rgb(158,161,168);fill-rule:nonzero;"/>
            <path id="path1567" d="M20.47,57.617L19.402,57.617L17.897,53.873L17.114,57.617L16.046,57.617L17.209,52.045L18.281,52.045L19.79,55.774L20.569,52.045L21.633,52.045L20.47,57.617Z" style="fill:rgb(158,161,168);fill-rule:nonzero;"/>
            <path id="path1570" d="M21.66,57.617L22.826,52.045L24.328,52.045C24.746,52.045 25.013,52.052 25.129,52.064C25.36,52.087 25.565,52.134 25.745,52.205C25.928,52.276 26.092,52.376 26.239,52.505C26.389,52.632 26.517,52.785 26.623,52.965C26.732,53.145 26.816,53.353 26.874,53.588C26.932,53.821 26.961,54.077 26.961,54.356C26.961,54.956 26.846,55.49 26.616,55.956C26.387,56.42 26.1,56.788 25.753,57.062C25.487,57.275 25.143,57.432 24.723,57.533C24.485,57.589 24.119,57.617 23.624,57.617L21.66,57.617ZM22.994,56.72L23.575,56.72C23.996,56.72 24.3,56.695 24.487,56.644C24.677,56.591 24.851,56.493 25.008,56.351C25.233,56.146 25.423,55.872 25.578,55.53C25.733,55.188 25.81,54.785 25.81,54.322C25.81,53.927 25.745,53.63 25.616,53.432C25.489,53.232 25.332,53.099 25.145,53.033C25.013,52.988 24.779,52.965 24.442,52.965L23.776,52.965L22.994,56.72Z" style="fill:rgb(158,161,168);fill-rule:nonzero;"/>
            <path id="path1572" d="M27.117,56.488L28.174,56.321C28.268,56.544 28.384,56.702 28.523,56.796C28.663,56.887 28.853,56.933 29.093,56.933C29.342,56.933 29.541,56.877 29.69,56.766C29.794,56.69 29.846,56.597 29.846,56.488C29.846,56.415 29.819,56.349 29.766,56.29C29.71,56.235 29.56,56.166 29.314,56.085C28.655,55.867 28.247,55.695 28.09,55.568C27.844,55.371 27.721,55.112 27.721,54.793C27.721,54.474 27.841,54.199 28.079,53.968C28.411,53.647 28.903,53.486 29.557,53.486C30.077,53.486 30.469,53.581 30.735,53.771C31.001,53.961 31.17,54.218 31.241,54.542L30.234,54.717C30.18,54.57 30.094,54.46 29.975,54.386C29.813,54.288 29.618,54.238 29.39,54.238C29.162,54.238 28.997,54.276 28.896,54.352C28.797,54.428 28.748,54.516 28.748,54.614C28.748,54.716 28.798,54.799 28.9,54.865C28.963,54.906 29.167,54.977 29.512,55.078C30.044,55.233 30.4,55.385 30.58,55.534C30.833,55.744 30.96,55.998 30.96,56.294C30.96,56.677 30.799,57.009 30.477,57.29C30.155,57.571 29.702,57.712 29.116,57.712C28.534,57.712 28.083,57.605 27.763,57.393C27.447,57.177 27.231,56.876 27.117,56.488L27.117,56.488Z" style="fill:rgb(158,161,168);fill-rule:nonzero;"/>
        </g>
        <rect id="rect1234" x="0" y="19" width="30" height="1" style="fill:rgb(158,161,168);"/>
        <g id="text1583" transform="matrix(0.662312,0,0,1.50986,4.5,-9)">
            <path id="path1621" d="M4.683,25.08L3.628,25.08L4.523,20.813L3.02,20.813L3.198,19.957L7.235,19.957L7.057,20.813L5.575,20.813L4.683,25.08Z" style="fill:rgb(158,161,168);fill-rule:nonzero;"/>
            <path id="path1623" d="M7.906,25.08L6.85,25.08L7.923,19.957L10.199,19.957C10.59,19.957 10.894,19.998 11.111,20.079C11.33,20.158 11.506,20.305 11.639,20.519C11.774,20.734 11.841,20.994 11.841,21.299C11.841,21.735 11.711,22.095 11.45,22.379C11.189,22.661 10.794,22.835 10.265,22.903C10.4,23.024 10.527,23.184 10.646,23.382C10.881,23.783 11.143,24.349 11.432,25.08L10.3,25.08C10.209,24.792 10.031,24.341 9.765,23.728C9.621,23.397 9.467,23.175 9.304,23.06C9.204,22.993 9.029,22.959 8.78,22.959L8.35,22.959L7.906,25.08ZM8.51,22.19L9.07,22.19C9.636,22.19 10.011,22.156 10.195,22.089C10.381,22.021 10.527,21.915 10.632,21.771C10.737,21.626 10.789,21.475 10.789,21.316C10.789,21.13 10.713,20.99 10.562,20.897C10.469,20.841 10.267,20.813 9.957,20.813L8.797,20.813L8.51,22.19Z" style="fill:rgb(158,161,168);fill-rule:nonzero;"/>
            <path id="path1625" d="M11.957,25.08L13.03,19.957L14.082,19.957L13.012,25.08L11.957,25.08Z" style="fill:rgb(158,161,168);fill-rule:nonzero;"/>
            <path id="path1627" d="M16.839,22.344L19.132,22.344L18.671,24.542C18.4,24.717 18.068,24.865 17.674,24.986C17.283,25.107 16.883,25.168 16.476,25.168C15.842,25.168 15.356,25.025 15.018,24.738C14.557,24.347 14.326,23.779 14.326,23.036C14.326,22.537 14.425,22.06 14.623,21.603C14.861,21.053 15.199,20.627 15.637,20.324C16.075,20.021 16.59,19.869 17.182,19.869C17.774,19.869 18.248,20.007 18.604,20.282C18.963,20.557 19.201,20.957 19.317,21.484L18.335,21.596C18.249,21.307 18.109,21.089 17.916,20.942C17.725,20.796 17.483,20.722 17.192,20.722C16.852,20.722 16.54,20.811 16.255,20.988C15.971,21.165 15.749,21.439 15.588,21.809C15.427,22.18 15.347,22.584 15.347,23.022C15.347,23.453 15.445,23.772 15.64,23.98C15.836,24.185 16.123,24.287 16.5,24.287C16.726,24.287 16.958,24.256 17.196,24.193C17.433,24.127 17.638,24.051 17.811,23.962L17.968,23.2L16.661,23.2L16.839,22.344Z" style="fill:rgb(158,161,168);fill-rule:nonzero;"/>
            <path id="path1629" d="M21.491,25.08L22.564,19.957L23.616,19.957L22.547,25.08L21.491,25.08Z" style="fill:rgb(158,161,168);fill-rule:nonzero;"/>
            <path id="path1631" d="M27.618,25.08L26.636,25.08L25.252,21.638L24.532,25.08L23.55,25.08L24.619,19.957L25.605,19.957L26.992,23.385L27.709,19.957L28.687,19.957L27.618,25.08Z" style="fill:rgb(158,161,168);fill-rule:nonzero;"/>
        </g>
        <rect id="rect1440" x="0" y="154" width="30" height="1" style="fill:rgb(36,100,211);"/>
        <rect id="rect1472" x="0" y="367" width="30" height="1" style="fill:rgb(158,161,168);"/>
        <g id="text1440" transform="matrix(0.582052,0,0,1.71806,0,0)">
            <path id="path1575" d="M1.718,10.363L3.114,3.697L4.91,3.697C5.41,3.697 5.73,3.705 5.87,3.72C6.146,3.747 6.391,3.803 6.606,3.888C6.825,3.973 7.022,4.093 7.198,4.247C7.376,4.399 7.529,4.582 7.657,4.797C7.787,5.013 7.887,5.261 7.957,5.543C8.027,5.822 8.062,6.128 8.062,6.462C8.062,7.18 7.924,7.818 7.648,8.376C7.375,8.931 7.031,9.372 6.615,9.699C6.297,9.954 5.886,10.142 5.383,10.263C5.098,10.33 4.66,10.363 4.069,10.363L1.718,10.363ZM3.314,9.29L4.01,9.29C4.513,9.29 4.877,9.26 5.101,9.199C5.329,9.135 5.536,9.019 5.724,8.849C5.994,8.603 6.221,8.276 6.406,7.867C6.591,7.458 6.684,6.976 6.684,6.421C6.684,5.948 6.606,5.593 6.452,5.357C6.3,5.117 6.112,4.958 5.888,4.879C5.73,4.825 5.45,4.797 5.047,4.797L4.251,4.797L3.314,9.29Z" style="fill:rgb(158,161,168);fill-rule:nonzero;"/>
            <path id="path1577" d="M9.821,3.697L11.19,3.697L10.435,7.317L10.249,8.208C10.237,8.284 10.231,8.355 10.231,8.422C10.231,8.685 10.326,8.904 10.517,9.076C10.711,9.246 10.991,9.331 11.358,9.331C11.689,9.331 11.962,9.269 12.177,9.145C12.392,9.02 12.559,8.835 12.677,8.59C12.795,8.344 12.915,7.927 13.036,7.339L13.8,3.697L15.169,3.697L14.41,7.344C14.249,8.111 14.064,8.697 13.855,9.104C13.646,9.51 13.329,9.84 12.904,10.095C12.48,10.35 11.943,10.477 11.295,10.477C10.519,10.477 9.924,10.287 9.512,9.909C9.1,9.527 8.894,9.037 8.894,8.44C8.894,8.315 8.904,8.181 8.925,8.035C8.938,7.938 8.991,7.662 9.085,7.207L9.821,3.697Z" style="fill:rgb(158,161,168);fill-rule:nonzero;"/>
            <path id="path1579" d="M19.521,8.89L16.879,8.89L16.078,10.363L14.669,10.363L18.438,3.697L19.962,3.697L21.044,10.363L19.743,10.363L19.521,8.89ZM19.352,7.78L18.966,5.098L17.356,7.78L19.352,7.78Z" style="fill:rgb(158,161,168);fill-rule:nonzero;"/>
            <path id="path1582" d="M21.922,10.363L23.318,3.697L24.686,3.697L23.527,9.249L26.919,9.249L26.687,10.363L21.922,10.363Z" style="fill:rgb(158,161,168);fill-rule:nonzero;"/>
            <path id="path1584" d="M31.398,10.363L30.025,10.363L31.421,3.697L34.381,3.697C34.89,3.697 35.286,3.75 35.568,3.856C35.853,3.959 36.082,4.15 36.255,4.429C36.43,4.708 36.518,5.046 36.518,5.443C36.518,6.01 36.349,6.478 36.009,6.848C35.67,7.215 35.156,7.442 34.468,7.53C34.643,7.688 34.809,7.896 34.963,8.153C35.269,8.675 35.61,9.411 35.986,10.363L34.513,10.363C34.395,9.987 34.163,9.401 33.817,8.603C33.629,8.173 33.429,7.883 33.217,7.735C33.087,7.647 32.859,7.603 32.535,7.603L31.976,7.603L31.398,10.363ZM32.185,6.603L32.912,6.603C33.649,6.603 34.137,6.559 34.377,6.471C34.619,6.383 34.809,6.245 34.945,6.057C35.081,5.869 35.15,5.672 35.15,5.466C35.15,5.223 35.051,5.041 34.854,4.92C34.733,4.847 34.471,4.811 34.067,4.811L32.558,4.811L32.185,6.603Z" style="fill:rgb(158,161,168);fill-rule:nonzero;"/>
            <path id="path1586" d="M42.057,10.363L40.779,10.363L38.978,5.884L38.042,10.363L36.764,10.363L38.155,3.697L39.438,3.697L41.243,8.158L42.175,3.697L43.448,3.697L42.057,10.363Z" style="fill:rgb(158,161,168);fill-rule:nonzero;"/>
            <path id="path1588" d="M43.48,10.363L44.876,3.697L46.672,3.697C47.173,3.697 47.493,3.705 47.632,3.72C47.908,3.747 48.153,3.803 48.369,3.888C48.587,3.973 48.784,4.093 48.96,4.247C49.139,4.399 49.292,4.582 49.419,4.797C49.549,5.013 49.649,5.261 49.719,5.543C49.789,5.822 49.824,6.128 49.824,6.462C49.824,7.18 49.686,7.818 49.41,8.376C49.137,8.931 48.793,9.372 48.378,9.699C48.059,9.954 47.649,10.142 47.145,10.263C46.86,10.33 46.422,10.363 45.831,10.363L43.48,10.363ZM45.076,9.29L45.772,9.29C46.275,9.29 46.639,9.26 46.863,9.199C47.091,9.135 47.298,9.019 47.486,8.849C47.756,8.603 47.984,8.276 48.169,7.867C48.353,7.458 48.446,6.976 48.446,6.421C48.446,5.948 48.369,5.593 48.214,5.357C48.062,5.117 47.874,4.958 47.65,4.879C47.493,4.825 47.212,4.797 46.809,4.797L46.013,4.797L45.076,9.29Z" style="fill:rgb(158,161,168);fill-rule:nonzero;"/>
        </g>
        <g id="g1600" transform="matrix(0.720211,0,0,1.41177,0,126.525)">
            <path id="path1592" d="M11.561,57.617L10.414,57.617L11.58,52.045L14.055,52.045C14.48,52.045 14.811,52.09 15.047,52.178C15.285,52.264 15.476,52.424 15.62,52.657C15.767,52.89 15.841,53.173 15.841,53.505C15.841,53.978 15.699,54.37 15.415,54.679C15.131,54.986 14.702,55.176 14.127,55.249C14.274,55.381 14.412,55.554 14.541,55.77C14.797,56.206 15.082,56.821 15.396,57.617L14.165,57.617C14.066,57.303 13.872,56.812 13.583,56.146C13.426,55.786 13.259,55.544 13.082,55.42C12.973,55.347 12.783,55.31 12.512,55.31L12.044,55.31L11.561,57.617ZM12.219,54.474L12.827,54.474C13.443,54.474 13.851,54.437 14.051,54.364C14.253,54.29 14.412,54.175 14.526,54.018C14.64,53.861 14.697,53.696 14.697,53.524C14.697,53.321 14.615,53.169 14.45,53.068C14.348,53.007 14.129,52.976 13.792,52.976L12.531,52.976L12.219,54.474Z" style="fill:rgb(158,161,168);fill-rule:nonzero;"/>
            <path id="path1594" d="M20.47,57.617L19.402,57.617L17.897,53.873L17.114,57.617L16.046,57.617L17.209,52.045L18.281,52.045L19.79,55.774L20.569,52.045L21.633,52.045L20.47,57.617Z" style="fill:rgb(158,161,168);fill-rule:nonzero;"/>
            <path id="path1596" d="M21.66,57.617L22.826,52.045L24.328,52.045C24.746,52.045 25.013,52.052 25.129,52.064C25.36,52.087 25.565,52.134 25.745,52.205C25.928,52.276 26.092,52.376 26.239,52.505C26.389,52.632 26.517,52.785 26.623,52.965C26.732,53.145 26.816,53.353 26.874,53.588C26.932,53.821 26.961,54.077 26.961,54.356C26.961,54.956 26.846,55.49 26.616,55.956C26.387,56.42 26.1,56.788 25.753,57.062C25.487,57.275 25.143,57.432 24.723,57.533C24.485,57.589 24.119,57.617 23.624,57.617L21.66,57.617ZM22.994,56.72L23.575,56.72C23.996,56.72 24.3,56.695 24.487,56.644C24.677,56.591 24.851,56.493 25.008,56.351C25.233,56.146 25.423,55.872 25.578,55.53C25.733,55.188 25.81,54.785 25.81,54.322C25.81,53.927 25.745,53.63 25.616,53.432C25.489,53.232 25.332,53.099 25.145,53.033C25.013,52.988 24.779,52.965 24.442,52.965L23.776,52.965L22.994,56.72Z" style="fill:rgb(158,161,168);fill-rule:nonzero;"/>
            <path id="path1598" d="M27.117,56.488L28.174,56.321C28.268,56.544 28.384,56.702 28.523,56.796C28.663,56.887 28.853,56.933 29.093,56.933C29.342,56.933 29.541,56.877 29.69,56.766C29.794,56.69 29.846,56.597 29.846,56.488C29.846,56.415 29.819,56.349 29.766,56.29C29.71,56.235 29.56,56.166 29.314,56.085C28.655,55.867 28.247,55.695 28.09,55.568C27.844,55.371 27.721,55.112 27.721,54.793C27.721,54.474 27.841,54.199 28.079,53.968C28.411,53.647 28.903,53.486 29.557,53.486C30.077,53.486 30.469,53.581 30.735,53.771C31.001,53.961 31.17,54.218 31.241,54.542L30.234,54.717C30.18,54.57 30.094,54.46 29.975,54.386C29.813,54.288 29.618,54.238 29.39,54.238C29.162,54.238 28.997,54.276 28.896,54.352C28.797,54.428 28.748,54.516 28.748,54.614C28.748,54.716 28.798,54.799 28.9,54.865C28.963,54.906 29.167,54.977 29.512,55.078C30.044,55.233 30.4,55.385 30.58,55.534C30.833,55.744 30.96,55.998 30.96,56.294C30.96,56.677 30.799,57.009 30.477,57.29C30.155,57.571 29.702,57.712 29.116,57.712C28.534,57.712 28.083,57.605 27.763,57.393C27.447,57.177 27.231,56.876 27.117,56.488L27.117,56.488Z" style="fill:rgb(158,161,168);fill-rule:nonzero;"/>
        </g>
        <rect id="rect1602" x="0" y="154" width="30" height="1" style="fill:rgb(158,161,168);"/>
        <g id="g1617" transform="matrix(0.662312,0,0,1.50986,4.5,126.001)">
            <path id="path1604" d="M4.683,25.08L3.628,25.08L4.523,20.813L3.02,20.813L3.198,19.957L7.235,19.957L7.057,20.813L5.575,20.813L4.683,25.08Z" style="fill:rgb(158,161,168);fill-rule:nonzero;"/>
            <path id="path1607" d="M7.906,25.08L6.85,25.08L7.923,19.957L10.199,19.957C10.59,19.957 10.894,19.998 11.111,20.079C11.33,20.158 11.506,20.305 11.639,20.519C11.774,20.734 11.841,20.994 11.841,21.299C11.841,21.735 11.711,22.095 11.45,22.379C11.189,22.661 10.794,22.835 10.265,22.903C10.4,23.024 10.527,23.184 10.646,23.382C10.881,23.783 11.143,24.349 11.432,25.08L10.3,25.08C10.209,24.792 10.031,24.341 9.765,23.728C9.621,23.397 9.467,23.175 9.304,23.06C9.204,22.993 9.029,22.959 8.78,22.959L8.35,22.959L7.906,25.08ZM8.51,22.19L9.07,22.19C9.636,22.19 10.011,22.156 10.195,22.089C10.381,22.021 10.527,21.915 10.632,21.771C10.737,21.626 10.789,21.475 10.789,21.316C10.789,21.13 10.713,20.99 10.562,20.897C10.469,20.841 10.267,20.813 9.957,20.813L8.797,20.813L8.51,22.19Z" style="fill:rgb(158,161,168);fill-rule:nonzero;"/>
            <path id="path1609" d="M11.957,25.08L13.03,19.957L14.082,19.957L13.012,25.08L11.957,25.08Z" style="fill:rgb(158,161,168);fill-rule:nonzero;"/>
            <path id="path1611" d="M16.839,22.344L19.132,22.344L18.671,24.542C18.4,24.717 18.068,24.865 17.674,24.986C17.283,25.107 16.883,25.168 16.476,25.168C15.842,25.168 15.356,25.025 15.018,24.738C14.557,24.347 14.326,23.779 14.326,23.036C14.326,22.537 14.425,22.06 14.623,21.603C14.861,21.053 15.199,20.627 15.637,20.324C16.075,20.021 16.59,19.869 17.182,19.869C17.774,19.869 18.248,20.007 18.604,20.282C18.963,20.557 19.201,20.957 19.317,21.484L18.335,21.596C18.249,21.307 18.109,21.089 17.916,20.942C17.725,20.796 17.483,20.722 17.192,20.722C16.852,20.722 16.54,20.811 16.255,20.988C15.971,21.165 15.749,21.439 15.588,21.809C15.427,22.18 15.347,22.584 15.347,23.022C15.347,23.453 15.445,23.772 15.64,23.98C15.836,24.185 16.123,24.287 16.5,24.287C16.726,24.287 16.958,24.256 17.196,24.193C17.433,24.127 17.638,24.051 17.811,23.962L17.968,23.2L16.661,23.2L16.839,22.344Z" style="fill:rgb(158,161,168);fill-rule:nonzero;"/>
            <path id="path1613" d="M21.491,25.08L22.564,19.957L23.616,19.957L22.547,25.08L21.491,25.08Z" style="fill:rgb(158,161,168);fill-rule:nonzero;"/>
            <path id="path1615" d="M27.618,25.08L26.636,25.08L25.252,21.638L24.532,25.08L23.55,25.08L24.619,19.957L25.605,19.957L26.992,23.385L27.709,19.957L28.687,19.957L27.618,25.08Z" style="fill:rgb(158,161,168);fill-rule:nonzero;"/>
        </g>
        <rect id="rect1619" x="0" y="289" width="30" height="1" style="fill:rgb(158,161,168);"/>
        <g id="text1639" transform="matrix(0.819386,0,0,1.34263,21.8,2.16096)">
            <path id="path1652" d="M1.465,230.025L2.556,224.811L3.627,224.811L2.539,230.025L1.465,230.025Z" style="fill:rgb(158,161,168);fill-rule:nonzero;"/>
            <path id="path1654" d="M7.699,230.025L6.699,230.025L5.291,226.522L4.559,230.025L3.559,230.025L4.647,224.811L5.65,224.811L7.062,228.3L7.791,224.811L8.787,224.811L7.699,230.025Z" style="fill:rgb(158,161,168);fill-rule:nonzero;"/>
        </g>
        <g id="text1643" transform="matrix(0.635619,0,0,1.59298,-0.142857,7.93448)">
            <path id="path1645" d="M1.798,198.554C1.798,198.303 1.836,198.039 1.911,197.761C2.009,197.388 2.159,197.064 2.36,196.79C2.563,196.516 2.818,196.3 3.125,196.141C3.432,195.981 3.781,195.901 4.173,195.901C4.699,195.901 5.122,196.064 5.445,196.39C5.769,196.717 5.932,197.149 5.932,197.688C5.932,198.136 5.826,198.57 5.616,198.989C5.405,199.408 5.12,199.73 4.758,199.956C4.397,200.182 3.989,200.295 3.533,200.295C3.137,200.295 2.805,200.205 2.537,200.026C2.268,199.846 2.078,199.624 1.966,199.36C1.854,199.093 1.798,198.825 1.798,198.554L1.798,198.554ZM2.661,198.537C2.661,198.829 2.75,199.073 2.928,199.27C3.105,199.467 3.339,199.565 3.629,199.565C3.864,199.565 4.09,199.488 4.307,199.334C4.525,199.177 4.704,198.942 4.845,198.627C4.988,198.31 5.06,198.002 5.06,197.703C5.06,197.369 4.97,197.107 4.79,196.918C4.611,196.726 4.382,196.631 4.104,196.631C3.677,196.631 3.329,196.83 3.061,197.228C2.794,197.625 2.661,198.062 2.661,198.537L2.661,198.537Z" style="fill:rgb(158,161,168);fill-rule:nonzero;"/>
            <path id="path1647" d="M7.024,195.973L7.896,195.973L7.415,198.279L7.296,198.847C7.288,198.895 7.284,198.941 7.284,198.983C7.284,199.151 7.345,199.29 7.467,199.4C7.59,199.508 7.769,199.562 8.003,199.562C8.213,199.562 8.387,199.523 8.524,199.444C8.661,199.364 8.767,199.247 8.843,199.09C8.918,198.934 8.994,198.668 9.072,198.294L9.558,195.973L10.43,195.973L9.946,198.296C9.844,198.785 9.726,199.159 9.593,199.418C9.46,199.676 9.258,199.887 8.988,200.049C8.717,200.211 8.375,200.292 7.962,200.292C7.468,200.292 7.089,200.172 6.827,199.93C6.564,199.687 6.433,199.375 6.433,198.995C6.433,198.915 6.439,198.83 6.453,198.737C6.461,198.675 6.495,198.499 6.554,198.21L7.024,195.973Z" style="fill:rgb(158,161,168);fill-rule:nonzero;"/>
            <path id="path1649" d="M12.27,200.22L11.395,200.22L12.136,196.683L10.891,196.683L11.038,195.973L14.384,195.973L14.236,196.683L13.008,196.683L12.27,200.22Z" style="fill:rgb(158,161,168);fill-rule:nonzero;"/>
        </g>
        <g id="text1672" transform="matrix(0.614607,0,0,1.62706,0,0)">
            <path id="path1674" d="M1.627,183.378L2.639,178.543L3.942,178.543C4.305,178.543 4.537,178.549 4.638,178.56C4.838,178.58 5.016,178.621 5.172,178.682C5.33,178.743 5.473,178.83 5.601,178.942C5.73,179.052 5.842,179.185 5.934,179.341C6.028,179.498 6.101,179.678 6.151,179.882C6.202,180.085 6.227,180.307 6.227,180.548C6.227,181.069 6.127,181.532 5.927,181.937C5.729,182.339 5.48,182.659 5.179,182.896C4.948,183.081 4.65,183.217 4.285,183.305C4.078,183.354 3.761,183.378 3.332,183.378L1.627,183.378ZM2.785,182.599L3.289,182.599C3.654,182.599 3.918,182.577 4.081,182.534C4.245,182.487 4.396,182.403 4.532,182.28C4.728,182.102 4.893,181.864 5.027,181.567C5.161,181.271 5.228,180.921 5.228,180.519C5.228,180.176 5.172,179.918 5.06,179.747C4.95,179.573 4.814,179.458 4.651,179.401C4.537,179.361 4.333,179.341 4.041,179.341L3.464,179.341L2.785,182.599Z" style="fill:rgb(158,161,168);fill-rule:nonzero;"/>
            <path id="path1676" d="M7.504,178.543L8.496,178.543L7.949,181.168L7.814,181.815C7.805,181.87 7.8,181.921 7.8,181.97C7.8,182.161 7.87,182.319 8.008,182.444C8.149,182.568 8.352,182.629 8.618,182.629C8.858,182.629 9.056,182.584 9.212,182.494C9.368,182.404 9.489,182.27 9.574,182.092C9.66,181.914 9.747,181.611 9.835,181.185L10.389,178.543L11.382,178.543L10.831,181.188C10.714,181.744 10.58,182.17 10.429,182.464C10.277,182.759 10.047,182.998 9.739,183.183C9.432,183.368 9.042,183.46 8.572,183.46C8.009,183.46 7.578,183.323 7.279,183.048C6.98,182.771 6.831,182.416 6.831,181.983C6.831,181.893 6.839,181.795 6.854,181.689C6.863,181.619 6.901,181.419 6.969,181.089L7.504,178.543Z" style="fill:rgb(158,161,168);fill-rule:nonzero;"/>
            <path id="path1678" d="M14.538,182.309L12.622,182.309L12.041,183.378L11.019,183.378L13.753,178.543L14.857,178.543L15.642,183.378L14.699,183.378L14.538,182.309ZM14.415,181.505L14.135,179.559L12.968,181.505L14.415,181.505Z" style="fill:rgb(158,161,168);fill-rule:nonzero;"/>
            <path id="path1680" d="M16.279,183.378L17.291,178.543L18.284,178.543L17.443,182.57L19.903,182.57L19.735,183.378L16.279,183.378Z" style="fill:rgb(158,161,168);fill-rule:nonzero;"/>
            <path id="path1682" d="M22.093,183.378L23.105,178.543L24.098,178.543L23.088,183.378L22.093,183.378Z" style="fill:rgb(158,161,168);fill-rule:nonzero;"/>
            <path id="path1684" d="M27.873,183.378L26.947,183.378L25.641,180.129L24.962,183.378L24.035,183.378L25.044,178.543L25.974,178.543L27.283,181.778L27.959,178.543L28.882,178.543L27.873,183.378Z" style="fill:rgb(158,161,168);fill-rule:nonzero;"/>
            <path id="path1686" d="M31.306,183.378L30.244,183.378L29.377,178.543L30.37,178.543L30.983,182.2L32.985,178.543L33.971,178.543L31.306,183.378Z" style="fill:rgb(158,161,168);fill-rule:nonzero;"/>
            <path id="path1688" d="M33.4,183.378L34.409,178.543L37.994,178.543L37.826,179.351L35.237,179.351L35.006,180.449L37.509,180.449L37.341,181.257L34.838,181.257L34.535,182.57L37.348,182.57L37.176,183.378L33.4,183.378Z" style="fill:rgb(158,161,168);fill-rule:nonzero;"/>
            <path id="path1690" d="M38.927,183.378L37.931,183.378L38.944,178.543L41.091,178.543C41.46,178.543 41.747,178.582 41.951,178.659C42.158,178.733 42.324,178.872 42.449,179.074C42.577,179.276 42.64,179.522 42.64,179.81C42.64,180.221 42.517,180.56 42.271,180.829C42.025,181.095 41.652,181.26 41.153,181.323C41.281,181.438 41.401,181.588 41.513,181.775C41.735,182.153 41.982,182.687 42.255,183.378L41.186,183.378C41.1,183.105 40.932,182.68 40.682,182.102C40.545,181.789 40.4,181.579 40.246,181.472C40.152,181.408 39.987,181.376 39.752,181.376L39.346,181.376L38.927,183.378ZM39.498,180.651L40.025,180.651C40.56,180.651 40.914,180.619 41.087,180.555C41.263,180.491 41.4,180.391 41.499,180.255C41.598,180.118 41.648,179.976 41.648,179.826C41.648,179.65 41.576,179.518 41.433,179.43C41.346,179.378 41.155,179.351 40.863,179.351L39.768,179.351L39.498,180.651Z" style="fill:rgb(158,161,168);fill-rule:nonzero;"/>
            <path id="path1692" d="M44.777,183.378L43.781,183.378L44.626,179.351L43.208,179.351L43.376,178.543L47.185,178.543L47.016,179.351L45.618,179.351L44.777,183.378Z" style="fill:rgb(158,161,168);fill-rule:nonzero;"/>
        </g>
        <g id="g1699" transform="matrix(0.819386,0,0,1.34263,21.8,34.161)">
            <path id="path1695" d="M1.465,230.025L2.556,224.811L3.627,224.811L2.539,230.025L1.465,230.025Z" style="fill:rgb(158,161,168);fill-rule:nonzero;"/>
            <path id="path1697" d="M7.699,230.025L6.699,230.025L5.291,226.522L4.559,230.025L3.559,230.025L4.647,224.811L5.65,224.811L7.062,228.3L7.791,224.811L8.787,224.811L7.699,230.025Z" style="fill:rgb(158,161,168);fill-rule:nonzero;"/>
        </g>
        <g id="g1707" transform="matrix(0.635619,0,0,1.59298,-0.142857,39.9345)">
            <path id="path1701" d="M1.798,198.554C1.798,198.303 1.836,198.039 1.911,197.761C2.009,197.388 2.159,197.064 2.36,196.79C2.563,196.516 2.818,196.3 3.125,196.141C3.432,195.981 3.781,195.901 4.173,195.901C4.699,195.901 5.122,196.064 5.445,196.39C5.769,196.717 5.932,197.149 5.932,197.688C5.932,198.136 5.826,198.57 5.616,198.989C5.405,199.408 5.12,199.73 4.758,199.956C4.397,200.182 3.989,200.295 3.533,200.295C3.137,200.295 2.805,200.205 2.537,200.026C2.268,199.846 2.078,199.624 1.966,199.36C1.854,199.093 1.798,198.825 1.798,198.554L1.798,198.554ZM2.661,198.537C2.661,198.829 2.75,199.073 2.928,199.27C3.105,199.467 3.339,199.565 3.629,199.565C3.864,199.565 4.09,199.488 4.307,199.334C4.525,199.177 4.704,198.942 4.845,198.627C4.988,198.31 5.06,198.002 5.06,197.703C5.06,197.369 4.97,197.107 4.79,196.918C4.611,196.726 4.382,196.631 4.104,196.631C3.677,196.631 3.329,196.83 3.061,197.228C2.794,197.625 2.661,198.062 2.661,198.537L2.661,198.537Z" style="fill:rgb(158,161,168);fill-rule:nonzero;"/>
            <path id="path1703" d="M7.024,195.973L7.896,195.973L7.415,198.279L7.296,198.847C7.288,198.895 7.284,198.941 7.284,198.983C7.284,199.151 7.345,199.29 7.467,199.4C7.59,199.508 7.769,199.562 8.003,199.562C8.213,199.562 8.387,199.523 8.524,199.444C8.661,199.364 8.767,199.247 8.843,199.09C8.918,198.934 8.994,198.668 9.072,198.294L9.558,195.973L10.43,195.973L9.946,198.296C9.844,198.785 9.726,199.159 9.593,199.418C9.46,199.676 9.258,199.887 8.988,200.049C8.717,200.211 8.375,200.292 7.962,200.292C7.468,200.292 7.089,200.172 6.827,199.93C6.564,199.687 6.433,199.375 6.433,198.995C6.433,198.915 6.439,198.83 6.453,198.737C6.461,198.675 6.495,198.499 6.554,198.21L7.024,195.973Z" style="fill:rgb(158,161,168);fill-rule:nonzero;"/>
            <path id="path1705" d="M12.27,200.22L11.395,200.22L12.136,196.683L10.891,196.683L11.038,195.973L14.384,195.973L14.236,196.683L13.008,196.683L12.27,200.22Z" style="fill:rgb(158,161,168);fill-rule:nonzero;"/>
        </g>
    </g>
</svg>
