<?xml version="1.0" encoding="UTF-8" standalone="no"?>
<!DOCTYPE svg PUBLIC "-//W3C//DTD SVG 1.1//EN" "http://www.w3.org/Graphics/SVG/1.1/DTD/svg11.dtd">
<svg width="100%" height="100%" viewBox="0 0 60 380" version="1.1" xmlns="http://www.w3.org/2000/svg" xmlns:xlink="http://www.w3.org/1999/xlink" xml:space="preserve" xmlns:serif="http://www.serif.com/" style="fill-rule:evenodd;clip-rule:evenodd;stroke-linejoin:round;stroke-miterlimit:2;">
    <g id="Layer-2" serif:id="Layer 2">
        <g id="text989">
        </g>
        <g id="g1290" transform="matrix(1.25,0,0,1,-277.5,0)">
            <rect id="rect1280" x="222" y="0" width="48" height="380" style="fill:rgb(189,195,197);"/>
            <g id="text1164" transform="matrix(0.835383,0,0,1.19706,-33.0673,0)">
                <path id="path1166" d="M320.742,12.192L323.209,12.192L323.209,12.583C323.209,14.545 323.037,15.87 322.693,16.558C322.354,17.263 321.719,17.615 320.788,17.615C319.826,17.615 319.141,17.223 318.732,16.44C318.327,15.657 318.125,14.341 318.125,12.492C318.125,10.377 318.347,8.97 318.791,8.269C319.208,7.612 319.85,7.284 320.716,7.284C321.377,7.284 321.893,7.443 322.263,7.76C322.637,8.082 322.928,8.611 323.137,9.346L321.871,9.875C321.814,9.609 321.751,9.387 321.682,9.209C321.612,9.026 321.536,8.885 321.453,8.785C321.288,8.58 321.04,8.478 320.709,8.478C320.257,8.478 319.948,8.757 319.783,9.313C319.617,9.896 319.534,10.943 319.534,12.453C319.534,13.98 319.619,15.013 319.789,15.553C319.959,16.092 320.279,16.362 320.748,16.362C321.179,16.362 321.482,16.171 321.656,15.788C321.834,15.379 321.923,14.722 321.923,13.817L321.923,13.543L321.923,13.34L320.742,13.34L320.742,12.192Z" style="fill:rgb(189,195,197);fill-rule:nonzero;"/>
                <path id="path1168" d="M324.566,7.414L325.924,7.414L325.924,16.342L328.143,16.342L328.143,17.491L324.566,17.491L324.566,7.414Z" style="fill:rgb(189,195,197);fill-rule:nonzero;"/>
                <path id="path1170" d="M334.049,12.701C334.049,14.48 333.851,15.744 333.455,16.493C333.059,17.241 332.396,17.615 331.465,17.615C330.486,17.615 329.796,17.213 329.396,16.408C329,15.62 328.802,14.221 328.802,12.211C328.802,10.419 328.998,9.15 329.389,8.406C329.785,7.658 330.455,7.284 331.4,7.284C332.244,7.284 332.87,7.573 333.279,8.152C333.549,8.539 333.745,9.089 333.867,9.803C333.988,10.464 334.049,11.43 334.049,12.701ZM332.627,12.844C332.627,11.1 332.548,9.942 332.392,9.372C332.235,8.798 331.915,8.511 331.432,8.511C330.949,8.511 330.627,8.774 330.466,9.3C330.31,9.831 330.231,10.897 330.231,12.498C330.231,13.973 330.314,14.996 330.479,15.566C330.649,16.105 330.967,16.375 331.432,16.375C331.889,16.375 332.202,16.123 332.372,15.618C332.542,15.118 332.627,14.193 332.627,12.844L332.627,12.844Z" style="fill:rgb(189,195,197);fill-rule:nonzero;"/>
                <path id="path1172" d="M335.4,7.414L337.241,7.414C338.681,7.414 339.401,8.308 339.401,10.097C339.401,10.78 339.307,11.287 339.12,11.617C338.933,11.948 338.603,12.198 338.128,12.368C338.672,12.585 339.044,12.864 339.244,13.203C339.449,13.538 339.551,14.043 339.551,14.717C339.551,16.567 338.759,17.491 337.175,17.491L335.4,17.491L335.4,7.414ZM336.679,11.852C337.206,11.852 337.571,11.73 337.776,11.487C337.98,11.23 338.083,10.78 338.083,10.136C338.083,9.048 337.691,8.504 336.908,8.504L336.803,8.504L336.745,8.504C336.71,8.504 336.688,8.506 336.679,8.511L336.679,11.852ZM336.679,16.329C337.236,16.329 337.621,16.21 337.835,15.97C338.048,15.731 338.154,15.298 338.154,14.672C338.154,14.028 338.043,13.577 337.822,13.321C337.604,13.06 337.223,12.929 336.679,12.929L336.679,16.329Z" style="fill:rgb(189,195,197);fill-rule:nonzero;"/>
                <path id="path1174" d="M342.397,7.414L343.454,7.414L345.614,17.491L344.27,17.491L343.891,15.527L341.894,15.527L341.509,17.491L340.204,17.491L342.397,7.414ZM343.695,14.476L343.395,12.87C343.195,11.778 343.032,10.612 342.906,9.372C342.845,9.977 342.766,10.59 342.671,11.213C342.575,11.83 342.462,12.487 342.331,13.184L342.083,14.476L343.695,14.476Z" style="fill:rgb(189,195,197);fill-rule:nonzero;"/>
                <path id="path1176" d="M346.417,7.414L347.774,7.414L347.774,16.342L349.993,16.342L349.993,17.491L346.417,17.491L346.417,7.414Z" style="fill:rgb(189,195,197);fill-rule:nonzero;"/>
            </g>
        </g>
        <rect id="rect4689" x="0" y="0" width="60" height="380" style="fill:rgb(44,45,48);"/>
        <g id="text4987">
        </g>
        <g id="text1042">
        </g>
        <g id="text1171">
        </g>
        <g id="text1197">
        </g>
        <g id="text1132" transform="matrix(0.401829,0,0,1.31561,0.340909,74.8088)">
            <path id="path1217" d="M6.282,230.32L5.161,230.32L3.582,226.393L2.761,230.32L1.64,230.32L2.86,224.475L3.985,224.475L5.568,228.386L6.385,224.475L7.502,224.475L6.282,230.32Z" style="fill:rgb(158,161,168);fill-rule:nonzero;"/>
            <path id="path1226" d="M10.448,230.32L9.248,230.32L9.723,228.044L8.112,224.475L9.392,224.475L10.117,226.126C10.29,226.522 10.406,226.807 10.464,226.983C10.563,226.81 10.677,226.627 10.807,226.433L11.362,225.659L12.187,224.475L13.582,224.475L10.903,228.155L10.448,230.32Z" style="fill:rgb(158,161,168);fill-rule:nonzero;"/>
            <path id="path1235" d="M13.148,228.426L14.292,228.367C14.308,228.731 14.371,228.977 14.48,229.104C14.655,229.312 14.979,229.415 15.453,229.415C15.846,229.415 16.13,229.345 16.306,229.204C16.481,229.063 16.569,228.893 16.569,228.693C16.569,228.521 16.497,228.374 16.354,228.255C16.253,228.167 15.975,228.025 15.52,227.828C15.068,227.632 14.738,227.468 14.528,227.338C14.32,227.205 14.157,227.033 14.037,226.823C13.917,226.613 13.858,226.367 13.858,226.086C13.858,225.594 14.036,225.186 14.392,224.862C14.748,224.537 15.264,224.375 15.939,224.375C16.625,224.375 17.155,224.536 17.53,224.858C17.907,225.179 18.115,225.607 18.152,226.142L17,226.193C16.97,225.914 16.869,225.7 16.697,225.551C16.524,225.403 16.269,225.328 15.931,225.328C15.599,225.328 15.361,225.387 15.217,225.504C15.076,225.621 15.006,225.768 15.006,225.946C15.006,226.114 15.071,226.252 15.201,226.361C15.332,226.473 15.62,226.625 16.067,226.819C16.739,227.109 17.167,227.344 17.351,227.525C17.624,227.791 17.761,228.133 17.761,228.55C17.761,229.066 17.557,229.507 17.147,229.874C16.741,230.238 16.173,230.42 15.445,230.42C14.942,230.42 14.506,230.336 14.137,230.169C13.77,229.999 13.511,229.763 13.359,229.463C13.208,229.163 13.137,228.817 13.148,228.426L13.148,228.426Z" style="fill:rgb(158,161,168);fill-rule:nonzero;"/>
            <path id="path1242" d="M20.963,230.32L19.759,230.32L20.78,225.452L19.065,225.452L19.269,224.475L23.874,224.475L23.671,225.452L21.98,225.452L20.963,230.32Z" style="fill:rgb(158,161,168);fill-rule:nonzero;"/>
            <path id="path1255" d="M27.443,227.709L25.182,227.709L24.636,230.32L23.431,230.32L24.656,224.475L25.856,224.475L25.385,226.732L27.646,226.732L28.121,224.475L29.321,224.475L28.101,230.32L26.896,230.32L27.443,227.709Z" style="fill:rgb(158,161,168);fill-rule:nonzero;"/>
            <path id="path1261" d="M29.261,230.32L30.485,224.475L31.685,224.475L30.465,230.32L29.261,230.32Z" style="fill:rgb(158,161,168);fill-rule:nonzero;"/>
            <path id="path1263" d="M38.448,227.776L39.273,228.271C39.196,228.42 39.095,228.582 38.97,228.757C38.848,228.93 38.734,229.066 38.627,229.164C38.779,229.326 38.973,229.507 39.21,229.706L38.488,230.456C38.397,230.408 38.282,230.327 38.141,230.213C38.003,230.098 37.886,229.991 37.79,229.89C37.599,230.041 37.358,230.167 37.068,230.268C36.779,230.369 36.466,230.42 36.131,230.42C35.525,230.42 35.049,230.261 34.704,229.942C34.358,229.62 34.185,229.226 34.185,228.761C34.185,228.466 34.253,228.192 34.389,227.94C34.527,227.685 34.705,227.467 34.923,227.286C35.08,227.156 35.335,226.996 35.689,226.807C35.516,226.433 35.429,226.106 35.429,225.827C35.429,225.417 35.578,225.073 35.876,224.794C36.176,224.515 36.571,224.375 37.06,224.375C37.48,224.375 37.813,224.487 38.057,224.71C38.304,224.931 38.428,225.19 38.428,225.488C38.428,225.74 38.322,226.014 38.109,226.309C37.899,226.601 37.552,226.87 37.068,227.114C37.22,227.37 37.409,227.662 37.635,227.992C37.77,228.194 37.879,228.339 37.961,228.426C38.097,228.291 38.259,228.074 38.448,227.776ZM36.654,226.333C36.967,226.173 37.188,226.013 37.316,225.85C37.406,225.733 37.451,225.615 37.451,225.496C37.451,225.387 37.414,225.298 37.339,225.228C37.268,225.157 37.168,225.121 37.04,225.121C36.881,225.121 36.748,225.177 36.642,225.288C36.535,225.397 36.482,225.541 36.482,225.719C36.482,225.889 36.539,226.094 36.654,226.333L36.654,226.333ZM36.103,227.613C35.577,227.876 35.314,228.223 35.314,228.654C35.314,228.898 35.392,229.099 35.549,229.256C35.706,229.413 35.915,229.491 36.175,229.491C36.491,229.491 36.817,229.381 37.152,229.16C36.751,228.671 36.401,228.155 36.103,227.613Z" style="fill:rgb(158,161,168);fill-rule:nonzero;"/>
            <path id="path1265" d="M42.029,230.32L43.253,224.475L44.828,224.475C45.266,224.475 45.547,224.481 45.669,224.495C45.911,224.519 46.126,224.568 46.315,224.642C46.506,224.717 46.679,224.822 46.833,224.957C46.99,225.09 47.125,225.251 47.236,225.44C47.35,225.629 47.438,225.847 47.499,226.094C47.56,226.338 47.591,226.607 47.591,226.899C47.591,227.529 47.47,228.089 47.228,228.578C46.989,229.064 46.687,229.451 46.323,229.738C46.044,229.962 45.684,230.126 45.242,230.233C44.993,230.291 44.608,230.32 44.09,230.32L42.029,230.32ZM43.428,229.379L44.038,229.379C44.48,229.379 44.799,229.353 44.995,229.3C45.195,229.244 45.377,229.141 45.542,228.993C45.778,228.777 45.977,228.49 46.14,228.131C46.302,227.772 46.383,227.35 46.383,226.863C46.383,226.449 46.315,226.138 46.18,225.93C46.047,225.72 45.882,225.581 45.685,225.512C45.547,225.464 45.301,225.44 44.947,225.44L44.25,225.44L43.428,229.379Z" style="fill:rgb(158,161,168);fill-rule:nonzero;"/>
            <path id="path1268" d="M47.858,230.32L49.082,224.475L50.283,224.475L49.062,230.32L47.858,230.32Z" style="fill:rgb(158,161,168);fill-rule:nonzero;"/>
            <path id="path1270" d="M50.358,228.426L51.503,228.367C51.519,228.731 51.581,228.977 51.69,229.104C51.866,229.312 52.19,229.415 52.663,229.415C53.056,229.415 53.341,229.345 53.516,229.204C53.692,229.063 53.78,228.893 53.78,228.693C53.78,228.521 53.708,228.374 53.564,228.255C53.463,228.167 53.185,228.025 52.731,227.828C52.279,227.632 51.948,227.468 51.738,227.338C51.531,227.205 51.367,227.033 51.248,226.823C51.128,226.613 51.068,226.367 51.068,226.086C51.068,225.594 51.246,225.186 51.602,224.862C51.959,224.537 52.474,224.375 53.149,224.375C53.835,224.375 54.366,224.536 54.74,224.858C55.118,225.179 55.325,225.607 55.362,226.142L54.21,226.193C54.181,225.914 54.08,225.7 53.907,225.551C53.734,225.403 53.479,225.328 53.142,225.328C52.809,225.328 52.571,225.387 52.428,225.504C52.287,225.621 52.216,225.768 52.216,225.946C52.216,226.114 52.282,226.252 52.412,226.361C52.542,226.473 52.831,226.625 53.277,226.819C53.95,227.109 54.378,227.344 54.561,227.525C54.835,227.791 54.972,228.133 54.972,228.55C54.972,229.066 54.767,229.507 54.358,229.874C53.951,230.238 53.383,230.42 52.655,230.42C52.153,230.42 51.717,230.336 51.347,230.169C50.98,229.999 50.721,229.763 50.57,229.463C50.418,229.163 50.348,228.817 50.358,228.426L50.358,228.426Z" style="fill:rgb(158,161,168);fill-rule:nonzero;"/>
            <path id="path1272" d="M55.813,228.426L56.957,228.367C56.973,228.731 57.036,228.977 57.145,229.104C57.32,229.312 57.645,229.415 58.118,229.415C58.511,229.415 58.796,229.345 58.971,229.204C59.147,229.063 59.234,228.893 59.234,228.693C59.234,228.521 59.163,228.374 59.019,228.255C58.918,228.167 58.64,228.025 58.186,227.828C57.734,227.632 57.403,227.468 57.193,227.338C56.985,227.205 56.822,227.033 56.702,226.823C56.583,226.613 56.523,226.367 56.523,226.086C56.523,225.594 56.701,225.186 57.057,224.862C57.413,224.537 57.929,224.375 58.604,224.375C59.29,224.375 59.82,224.536 60.195,224.858C60.573,225.179 60.78,225.607 60.817,226.142L59.665,226.193C59.636,225.914 59.535,225.7 59.362,225.551C59.189,225.403 58.934,225.328 58.596,225.328C58.264,225.328 58.026,225.387 57.883,225.504C57.742,225.621 57.671,225.768 57.671,225.946C57.671,226.114 57.736,226.252 57.867,226.361C57.997,226.473 58.285,226.625 58.732,226.819C59.404,227.109 59.832,227.344 60.016,227.525C60.29,227.791 60.427,228.133 60.427,228.55C60.427,229.066 60.222,229.507 59.812,229.874C59.406,230.238 58.838,230.42 58.11,230.42C57.607,230.42 57.171,230.336 56.802,230.169C56.435,229.999 56.176,229.763 56.024,229.463C55.873,229.163 55.802,228.817 55.813,228.426L55.813,228.426Z" style="fill:rgb(158,161,168);fill-rule:nonzero;"/>
            <path id="path1274" d="M61.463,228.028C61.463,227.682 61.515,227.318 61.619,226.935C61.754,226.422 61.96,225.977 62.237,225.599C62.516,225.222 62.867,224.924 63.289,224.706C63.712,224.485 64.193,224.375 64.733,224.375C65.456,224.375 66.039,224.6 66.483,225.049C66.93,225.498 67.153,226.094 67.153,226.835C67.153,227.452 67.008,228.049 66.719,228.626C66.429,229.202 66.035,229.646 65.538,229.957C65.041,230.268 64.479,230.424 63.852,230.424C63.307,230.424 62.85,230.3 62.48,230.053C62.111,229.806 61.849,229.5 61.695,229.136C61.54,228.769 61.463,228.4 61.463,228.028L61.463,228.028ZM62.651,228.004C62.651,228.405 62.774,228.741 63.018,229.013C63.263,229.284 63.585,229.419 63.983,229.419C64.308,229.419 64.619,229.313 64.916,229.1C65.217,228.885 65.464,228.561 65.658,228.127C65.855,227.691 65.953,227.267 65.953,226.855C65.953,226.395 65.829,226.035 65.582,225.775C65.335,225.512 65.02,225.38 64.637,225.38C64.05,225.38 63.571,225.654 63.202,226.201C62.835,226.749 62.651,227.35 62.651,228.004L62.651,228.004Z" style="fill:rgb(158,161,168);fill-rule:nonzero;"/>
            <path id="path1276" d="M71.667,228.215L72.879,228.398C72.643,229.055 72.288,229.557 71.815,229.906C71.341,230.251 70.787,230.424 70.152,230.424C69.437,230.424 68.877,230.209 68.473,229.778C68.072,229.347 67.871,228.723 67.871,227.904C67.871,227.239 68.005,226.632 68.274,226.082C68.545,225.529 68.92,225.106 69.398,224.814C69.877,224.521 70.398,224.375 70.961,224.375C71.594,224.375 72.106,224.545 72.496,224.885C72.887,225.223 73.117,225.684 73.186,226.269L72.034,226.381C71.97,226.041 71.846,225.795 71.663,225.643C71.482,225.489 71.24,225.412 70.937,225.412C70.605,225.412 70.294,225.513 70.004,225.715C69.717,225.917 69.487,226.233 69.314,226.664C69.142,227.092 69.055,227.52 69.055,227.948C69.055,228.416 69.167,228.777 69.39,229.032C69.616,229.288 69.897,229.415 70.232,229.415C70.543,229.415 70.827,229.314 71.085,229.112C71.345,228.91 71.539,228.611 71.667,228.215L71.667,228.215Z" style="fill:rgb(158,161,168);fill-rule:nonzero;"/>
            <path id="path1278" d="M73.282,230.32L74.506,224.475L75.706,224.475L74.486,230.32L73.282,230.32Z" style="fill:rgb(158,161,168);fill-rule:nonzero;"/>
            <path id="path1281" d="M79.426,229.028L77.11,229.028L76.408,230.32L75.172,230.32L78.477,224.475L79.813,224.475L80.762,230.32L79.622,230.32L79.426,229.028ZM79.279,228.055L78.94,225.703L77.528,228.055L79.279,228.055Z" style="fill:rgb(158,161,168);fill-rule:nonzero;"/>
            <path id="path1283" d="M83.438,230.32L82.234,230.32L83.254,225.452L81.54,225.452L81.743,224.475L86.349,224.475L86.145,225.452L84.455,225.452L83.438,230.32Z" style="fill:rgb(158,161,168);fill-rule:nonzero;"/>
            <path id="path1285" d="M85.886,230.32L87.106,224.475L91.441,224.475L91.237,225.452L88.107,225.452L87.828,226.78L90.854,226.78L90.651,227.756L87.625,227.756L87.258,229.343L90.659,229.343L90.452,230.32L85.886,230.32Z" style="fill:rgb(158,161,168);fill-rule:nonzero;"/>
            <path id="path1287" d="M91.524,228.426L92.669,228.367C92.685,228.731 92.747,228.977 92.856,229.104C93.032,229.312 93.356,229.415 93.829,229.415C94.222,229.415 94.507,229.345 94.682,229.204C94.858,229.063 94.945,228.893 94.945,228.693C94.945,228.521 94.874,228.374 94.73,228.255C94.629,228.167 94.351,228.025 93.897,227.828C93.445,227.632 93.114,227.468 92.904,227.338C92.697,227.205 92.533,227.033 92.413,226.823C92.294,226.613 92.234,226.367 92.234,226.086C92.234,225.594 92.412,225.186 92.768,224.862C93.125,224.537 93.64,224.375 94.315,224.375C95.001,224.375 95.532,224.536 95.906,224.858C96.284,225.179 96.491,225.607 96.528,226.142L95.376,226.193C95.347,225.914 95.246,225.7 95.073,225.551C94.9,225.403 94.645,225.328 94.307,225.328C93.975,225.328 93.737,225.387 93.594,225.504C93.453,225.621 93.382,225.768 93.382,225.946C93.382,226.114 93.448,226.252 93.578,226.361C93.708,226.473 93.996,226.625 94.443,226.819C95.116,227.109 95.544,227.344 95.727,227.525C96.001,227.791 96.138,228.133 96.138,228.55C96.138,229.066 95.933,229.507 95.524,229.874C95.117,230.238 94.549,230.42 93.821,230.42C93.319,230.42 92.883,230.336 92.513,230.169C92.146,229.999 91.887,229.763 91.736,229.463C91.584,229.163 91.514,228.817 91.524,228.426L91.524,228.426Z" style="fill:rgb(158,161,168);fill-rule:nonzero;"/>
            <path id="path1289" d="M99.272,227.661L101.493,227.661L101.261,228.765L99.04,228.765L99.272,227.661Z" style="fill:rgb(158,161,168);fill-rule:nonzero;"/>
            <path id="path1291" d="M104.236,228.426L105.38,228.367C105.396,228.731 105.459,228.977 105.568,229.104C105.743,229.312 106.068,229.415 106.541,229.415C106.934,229.415 107.219,229.345 107.394,229.204C107.57,229.063 107.657,228.893 107.657,228.693C107.657,228.521 107.586,228.374 107.442,228.255C107.341,228.167 107.063,228.025 106.609,227.828C106.157,227.632 105.826,227.468 105.616,227.338C105.408,227.205 105.245,227.033 105.125,226.823C105.006,226.613 104.946,226.367 104.946,226.086C104.946,225.594 105.124,225.186 105.48,224.862C105.836,224.537 106.352,224.375 107.027,224.375C107.713,224.375 108.243,224.536 108.618,224.858C108.996,225.179 109.203,225.607 109.24,226.142L108.088,226.193C108.059,225.914 107.958,225.7 107.785,225.551C107.612,225.403 107.357,225.328 107.019,225.328C106.687,225.328 106.449,225.387 106.306,225.504C106.165,225.621 106.094,225.768 106.094,225.946C106.094,226.114 106.159,226.252 106.29,226.361C106.42,226.473 106.708,226.625 107.155,226.819C107.827,227.109 108.255,227.344 108.439,227.525C108.713,227.791 108.85,228.133 108.85,228.55C108.85,229.066 108.645,229.507 108.235,229.874C107.829,230.238 107.261,230.42 106.533,230.42C106.03,230.42 105.595,230.336 105.225,230.169C104.858,229.999 104.599,229.763 104.447,229.463C104.296,229.163 104.225,228.817 104.236,228.426L104.236,228.426Z" style="fill:rgb(158,161,168);fill-rule:nonzero;"/>
            <path id="path1293" d="M112.761,227.198L115.377,227.198L114.851,229.706C114.542,229.906 114.163,230.074 113.714,230.213C113.268,230.351 112.812,230.42 112.346,230.42C111.623,230.42 111.069,230.257 110.684,229.93C110.157,229.483 109.894,228.836 109.894,227.988C109.894,227.419 110.007,226.874 110.233,226.353C110.504,225.726 110.89,225.239 111.389,224.893C111.889,224.548 112.477,224.375 113.152,224.375C113.827,224.375 114.368,224.532 114.775,224.846C115.184,225.159 115.455,225.617 115.588,226.217L114.468,226.345C114.369,226.015 114.21,225.767 113.989,225.599C113.771,225.432 113.496,225.348 113.164,225.348C112.776,225.348 112.42,225.449 112.095,225.651C111.771,225.853 111.517,226.165 111.334,226.588C111.15,227.011 111.058,227.472 111.058,227.972C111.058,228.463 111.17,228.828 111.393,229.064C111.617,229.298 111.944,229.415 112.374,229.415C112.632,229.415 112.897,229.379 113.168,229.308C113.439,229.233 113.673,229.145 113.87,229.044L114.049,228.175L112.558,228.175L112.761,227.198Z" style="fill:rgb(158,161,168);fill-rule:nonzero;"/>
            <path id="path1295" d="M119.683,229.028L117.367,229.028L116.665,230.32L115.429,230.32L118.734,224.475L120.07,224.475L121.019,230.32L119.879,230.32L119.683,229.028ZM119.536,228.055L119.197,225.703L117.785,228.055L119.536,228.055Z" style="fill:rgb(158,161,168);fill-rule:nonzero;"/>
            <path id="path1297" d="M125.991,228.215L127.204,228.398C126.967,229.055 126.612,229.557 126.139,229.906C125.666,230.251 125.111,230.424 124.476,230.424C123.761,230.424 123.202,230.209 122.797,229.778C122.396,229.347 122.195,228.723 122.195,227.904C122.195,227.239 122.33,226.632 122.598,226.082C122.869,225.529 123.244,225.106 123.723,224.814C124.201,224.521 124.722,224.375 125.286,224.375C125.918,224.375 126.43,224.545 126.821,224.885C127.212,225.223 127.441,225.684 127.511,226.269L126.358,226.381C126.294,226.041 126.171,225.795 125.987,225.643C125.807,225.489 125.565,225.412 125.262,225.412C124.929,225.412 124.618,225.513 124.329,225.715C124.042,225.917 123.812,226.233 123.639,226.664C123.466,227.092 123.38,227.52 123.38,227.948C123.38,228.416 123.491,228.777 123.715,229.032C123.94,229.288 124.221,229.415 124.556,229.415C124.867,229.415 125.151,229.314 125.409,229.112C125.67,228.91 125.864,228.611 125.991,228.215Z" style="fill:rgb(158,161,168);fill-rule:nonzero;"/>
            <path id="path1299" d="M130.134,227.661L132.355,227.661L132.124,228.765L129.903,228.765L130.134,227.661Z" style="fill:rgb(158,161,168);fill-rule:nonzero;"/>
            <path id="path1301" d="M139.588,230.32L138.468,230.32L136.889,226.393L136.068,230.32L134.947,230.32L136.167,224.475L137.292,224.475L138.875,228.386L139.692,224.475L140.809,224.475L139.588,230.32Z" style="fill:rgb(158,161,168);fill-rule:nonzero;"/>
            <path id="path1303" d="M144.644,229.028L142.328,229.028L141.626,230.32L140.39,230.32L143.695,224.475L145.031,224.475L145.98,230.32L144.84,230.32L144.644,229.028ZM144.497,228.055L144.158,225.703L142.746,228.055L144.497,228.055Z" style="fill:rgb(158,161,168);fill-rule:nonzero;"/>
        </g>
        <rect id="rect1212" x="0" y="367" width="60" height="1" style="fill:rgb(36,100,211);"/>
        <rect id="rect1234" x="0" y="19" width="60" height="1" style="fill:rgb(158,161,168);"/>
        <rect id="rect1240" x="0" y="76" width="60" height="2" style="fill:rgb(197,200,209);"/>
        <rect id="rect1266" x="0" y="66" width="20" height="2" style="fill:rgb(158,161,168);"/>
        <rect id="rect1268" x="0" y="96" width="60" height="2" style="fill:rgb(197,200,209);"/>
        <rect id="rect1270" x="38" y="86" width="22" height="2" style="fill:rgb(158,161,168);"/>
        <rect id="rect1272" x="0" y="116" width="60" height="2" style="fill:rgb(197,200,209);"/>
        <rect id="rect1274" x="36" y="106" width="24" height="2" style="fill:rgb(158,161,168);"/>
        <rect id="rect1276" x="0" y="136" width="60" height="2" style="fill:rgb(197,200,209);"/>
        <rect id="rect1278" x="34" y="126" width="26" height="2" style="fill:rgb(158,161,168);"/>
        <rect id="rect1281" x="0" y="156" width="60" height="2" style="fill:rgb(197,200,209);"/>
        <rect id="rect1283" x="34" y="146" width="26" height="2" style="fill:rgb(158,161,168);"/>
        <rect id="rect1285" x="36" y="166" width="24" height="2" style="fill:rgb(158,161,168);"/>
        <rect id="rect1343" x="0" y="193" width="60" height="1" style="fill:rgb(36,100,211);"/>
        <g id="text1283" transform="matrix(0.660275,0,0,1.51452,0,0)">
            <path id="path1305" d="M7.573,11.754L9.177,4.092L11.242,4.092C11.816,4.092 12.184,4.101 12.344,4.118C12.661,4.15 12.944,4.214 13.191,4.312C13.442,4.409 13.668,4.547 13.87,4.725C14.076,4.899 14.252,5.11 14.398,5.357C14.548,5.604 14.663,5.89 14.743,6.214C14.823,6.535 14.864,6.887 14.864,7.27C14.864,8.096 14.705,8.829 14.388,9.47C14.074,10.108 13.679,10.615 13.201,10.991C12.836,11.284 12.364,11.5 11.785,11.639C11.458,11.716 10.954,11.754 10.275,11.754L7.573,11.754ZM9.407,10.521L10.207,10.521C10.785,10.521 11.203,10.486 11.461,10.416C11.722,10.343 11.961,10.209 12.177,10.014C12.487,9.732 12.749,9.355 12.961,8.885C13.174,8.415 13.28,7.861 13.28,7.223C13.28,6.679 13.191,6.272 13.013,6C12.839,5.725 12.623,5.542 12.365,5.451C12.184,5.388 11.862,5.357 11.398,5.357L10.484,5.357L9.407,10.521Z" style="fill:rgb(158,161,168);fill-rule:nonzero;"/>
            <path id="path1328" d="M16.886,4.092L18.459,4.092L17.592,8.253L17.377,9.277C17.363,9.364 17.357,9.446 17.357,9.523C17.357,9.826 17.466,10.077 17.686,10.275C17.909,10.47 18.231,10.568 18.653,10.568C19.032,10.568 19.346,10.496 19.593,10.354C19.841,10.211 20.032,9.998 20.168,9.716C20.304,9.434 20.442,8.955 20.581,8.279L21.459,4.092L23.032,4.092L22.16,8.284C21.975,9.165 21.762,9.84 21.522,10.307C21.282,10.773 20.917,11.153 20.43,11.446C19.942,11.739 19.325,11.885 18.58,11.885C17.688,11.885 17.005,11.667 16.531,11.232C16.057,10.793 15.82,10.23 15.82,9.543C15.82,9.401 15.832,9.246 15.857,9.078C15.87,8.967 15.931,8.65 16.039,8.127L16.886,4.092Z" style="fill:rgb(158,161,168);fill-rule:nonzero;"/>
            <path id="path1359" d="M28.034,10.061L24.998,10.061L24.078,11.754L22.458,11.754L26.79,4.092L28.541,4.092L29.785,11.754L28.29,11.754L28.034,10.061ZM27.841,8.786L27.397,5.702L25.546,8.786L27.841,8.786Z" style="fill:rgb(158,161,168);fill-rule:nonzero;"/>
            <path id="path1362" d="M30.794,11.754L32.398,4.092L33.971,4.092L32.639,10.474L36.538,10.474L36.271,11.754L30.794,11.754Z" style="fill:rgb(158,161,168);fill-rule:nonzero;"/>
            <path id="path1391" d="M41.649,11.754L40.071,11.754L41.675,4.092L44.79,4.092C45.344,4.092 45.781,4.159 46.102,4.291C46.426,4.42 46.682,4.636 46.87,4.939C47.058,5.239 47.153,5.598 47.153,6.016C47.153,6.402 47.078,6.779 46.928,7.145C46.778,7.51 46.593,7.803 46.374,8.023C46.158,8.242 45.924,8.409 45.673,8.524C45.423,8.636 45.085,8.721 44.659,8.78C44.412,8.815 43.949,8.833 43.269,8.833L42.261,8.833L41.649,11.754ZM42.522,7.563L43.008,7.563C43.841,7.563 44.396,7.51 44.675,7.406C44.954,7.301 45.173,7.134 45.334,6.904C45.494,6.674 45.574,6.422 45.574,6.146C45.574,5.962 45.532,5.81 45.449,5.692C45.369,5.573 45.254,5.488 45.104,5.436C44.957,5.38 44.628,5.352 44.116,5.352L42.987,5.352L42.522,7.563Z" style="fill:rgb(158,161,168);fill-rule:nonzero;"/>
            <path id="path1393" d="M48.83,4.092L50.403,4.092L49.536,8.253L49.321,9.277C49.308,9.364 49.301,9.446 49.301,9.523C49.301,9.826 49.41,10.077 49.63,10.275C49.853,10.47 50.175,10.568 50.597,10.568C50.977,10.568 51.29,10.496 51.538,10.354C51.785,10.211 51.977,9.998 52.113,9.716C52.248,9.434 52.386,8.955 52.525,8.279L53.403,4.092L54.977,4.092L54.104,8.284C53.919,9.165 53.707,9.84 53.466,10.307C53.226,10.773 52.862,11.153 52.374,11.446C51.886,11.739 51.269,11.885 50.524,11.885C49.632,11.885 48.949,11.667 48.475,11.232C48.001,10.793 47.764,10.23 47.764,9.543C47.764,9.401 47.776,9.246 47.801,9.078C47.815,8.967 47.876,8.65 47.984,8.127L48.83,4.092Z" style="fill:rgb(158,161,168);fill-rule:nonzero;"/>
            <path id="path1395" d="M55.003,11.754L56.607,4.092L58.18,4.092L56.848,10.474L60.747,10.474L60.48,11.754L55.003,11.754Z" style="fill:rgb(158,161,168);fill-rule:nonzero;"/>
            <path id="path1412" d="M61.745,9.272L63.245,9.193C63.266,9.671 63.348,9.993 63.49,10.16C63.72,10.432 64.145,10.568 64.766,10.568C65.281,10.568 65.654,10.476 65.884,10.291C66.114,10.106 66.229,9.883 66.229,9.622C66.229,9.395 66.135,9.204 65.947,9.047C65.814,8.932 65.45,8.746 64.854,8.488C64.262,8.23 63.828,8.016 63.553,7.845C63.281,7.671 63.067,7.446 62.91,7.171C62.753,6.895 62.675,6.573 62.675,6.204C62.675,5.559 62.909,5.024 63.375,4.599C63.842,4.174 64.518,3.962 65.403,3.962C66.302,3.962 66.997,4.172 67.489,4.594C67.983,5.016 68.255,5.577 68.304,6.277L66.794,6.345C66.755,5.979 66.623,5.699 66.396,5.503C66.17,5.308 65.835,5.211 65.393,5.211C64.957,5.211 64.645,5.287 64.457,5.441C64.273,5.594 64.18,5.787 64.18,6.021C64.18,6.24 64.266,6.422 64.436,6.564C64.607,6.711 64.985,6.911 65.571,7.165C66.452,7.545 67.013,7.854 67.253,8.091C67.612,8.439 67.792,8.887 67.792,9.434C67.792,10.11 67.523,10.688 66.987,11.169C66.454,11.646 65.71,11.885 64.755,11.885C64.097,11.885 63.525,11.775 63.041,11.556C62.56,11.333 62.22,11.024 62.022,10.631C61.823,10.237 61.731,9.784 61.745,9.272L61.745,9.272Z" style="fill:rgb(158,161,168);fill-rule:nonzero;"/>
            <path id="path1420" d="M68.654,11.754L70.253,4.092L75.935,4.092L75.668,5.373L71.565,5.373L71.199,7.113L75.166,7.113L74.9,8.394L70.933,8.394L70.452,10.474L74.91,10.474L74.638,11.754L68.654,11.754Z" style="fill:rgb(158,161,168);fill-rule:nonzero;"/>
            <path id="path1429" d="M77.414,11.754L75.835,11.754L77.44,4.092L80.842,4.092C81.428,4.092 81.882,4.153 82.206,4.275C82.534,4.394 82.797,4.613 82.996,4.934C83.198,5.254 83.299,5.643 83.299,6.099C83.299,6.751 83.104,7.289 82.713,7.714C82.323,8.136 81.732,8.397 80.941,8.498C81.144,8.679 81.333,8.918 81.511,9.214C81.863,9.814 82.255,10.66 82.687,11.754L80.994,11.754C80.858,11.322 80.591,10.648 80.194,9.732C79.978,9.237 79.748,8.904 79.504,8.733C79.354,8.632 79.093,8.582 78.72,8.582L78.077,8.582L77.414,11.754ZM78.318,7.432L79.154,7.432C80.001,7.432 80.562,7.381 80.837,7.28C81.116,7.179 81.333,7.021 81.49,6.805C81.647,6.589 81.725,6.362 81.725,6.125C81.725,5.847 81.612,5.638 81.386,5.498C81.246,5.415 80.945,5.373 80.482,5.373L78.746,5.373L78.318,7.432Z" style="fill:rgb(158,161,168);fill-rule:nonzero;"/>
        </g>
        <g id="text1434" transform="matrix(0.873163,0,0,1.14526,-4,0)">
            <path id="path1547" d="M30.047,59.712L31.373,59.712L31.102,61.005L29.777,61.005L30.047,59.712Z" style="fill:rgb(158,161,168);fill-rule:nonzero;"/>
            <path id="path1549" d="M32.623,58.779C32.623,58.092 32.74,57.395 32.973,56.689C33.259,55.827 33.626,55.186 34.074,54.766C34.522,54.346 35.02,54.136 35.568,54.136C36.121,54.136 36.575,54.337 36.93,54.738C37.288,55.139 37.467,55.723 37.467,56.488C37.467,57.188 37.336,57.928 37.075,58.709C36.817,59.487 36.467,60.084 36.025,60.501C35.583,60.915 35.085,61.121 34.532,61.121C33.978,61.121 33.521,60.921 33.16,60.52C32.802,60.118 32.623,59.538 32.623,58.779ZM33.939,59.05C33.939,59.417 33.998,59.675 34.116,59.824C34.235,59.974 34.387,60.048 34.574,60.048C34.823,60.048 35.043,59.933 35.236,59.703C35.494,59.395 35.723,58.788 35.922,57.883C36.081,57.165 36.16,56.595 36.16,56.175C36.16,55.833 36.1,55.587 35.978,55.438C35.86,55.286 35.708,55.209 35.521,55.209C35.284,55.209 35.074,55.323 34.891,55.55C34.62,55.88 34.387,56.46 34.191,57.291C34.023,58.009 33.939,58.595 33.939,59.05L33.939,59.05Z" style="fill:rgb(158,161,168);fill-rule:nonzero;"/>
            <path id="path1551" d="M37.943,58.779C37.943,58.092 38.059,57.395 38.293,56.689C38.579,55.827 38.946,55.186 39.394,54.766C39.842,54.346 40.34,54.136 40.887,54.136C41.441,54.136 41.895,54.337 42.25,54.738C42.607,55.139 42.786,55.723 42.786,56.488C42.786,57.188 42.655,57.928 42.394,58.709C42.136,59.487 41.786,60.084 41.344,60.501C40.903,60.915 40.405,61.121 39.851,61.121C39.297,61.121 38.84,60.921 38.479,60.52C38.121,60.118 37.943,59.538 37.943,58.779L37.943,58.779ZM39.259,59.05C39.259,59.417 39.318,59.675 39.436,59.824C39.554,59.974 39.706,60.048 39.893,60.048C40.142,60.048 40.363,59.933 40.556,59.703C40.814,59.395 41.043,58.788 41.242,57.883C41.4,57.165 41.48,56.595 41.48,56.175C41.48,55.833 41.419,55.587 41.298,55.438C41.179,55.286 41.027,55.209 40.84,55.209C40.604,55.209 40.394,55.323 40.21,55.55C39.94,55.88 39.706,56.46 39.51,57.291C39.343,58.009 39.259,58.595 39.259,59.05L39.259,59.05Z" style="fill:rgb(158,161,168);fill-rule:nonzero;"/>
            <path id="path1553" d="M45.171,56.297L43.859,56.101C43.965,55.466 44.211,54.981 44.597,54.645C44.986,54.306 45.471,54.136 46.053,54.136C46.69,54.136 47.191,54.309 47.555,54.654C47.919,54.999 48.101,55.438 48.101,55.97C48.101,56.241 48.045,56.513 47.933,56.787C47.821,57.057 47.637,57.342 47.382,57.64C47.199,57.852 46.899,58.152 46.482,58.541C46.065,58.927 45.788,59.191 45.651,59.334C45.517,59.474 45.388,59.624 45.264,59.782L47.634,59.782L47.382,61.005L43.225,61.005C43.268,60.669 43.366,60.35 43.519,60.048C43.674,59.743 43.867,59.46 44.097,59.199C44.328,58.938 44.749,58.516 45.362,57.934C45.822,57.493 46.113,57.205 46.235,57.071C46.452,56.829 46.602,56.619 46.682,56.441C46.763,56.264 46.804,56.104 46.804,55.961C46.804,55.73 46.735,55.544 46.598,55.401C46.465,55.258 46.294,55.186 46.085,55.186C45.874,55.186 45.689,55.267 45.53,55.429C45.371,55.587 45.251,55.877 45.171,56.297L45.171,56.297Z" style="fill:rgb(158,161,168);fill-rule:nonzero;"/>
        </g>
        <g id="text1438" transform="matrix(0.837722,0,0,1.19371,-4,0)">
            <path id="path1539" d="M34.682,74.06L35.938,74.06L35.682,75.285L34.426,75.285L34.682,74.06Z" style="fill:rgb(158,161,168);fill-rule:nonzero;"/>
            <path id="path1541" d="M37.123,73.176C37.123,72.525 37.233,71.864 37.454,71.195C37.725,70.379 38.073,69.772 38.497,69.374C38.922,68.976 39.393,68.777 39.912,68.777C40.437,68.777 40.867,68.967 41.203,69.348C41.542,69.728 41.711,70.28 41.711,71.005C41.711,71.668 41.588,72.37 41.34,73.11C41.095,73.846 40.764,74.412 40.345,74.807C39.927,75.199 39.455,75.395 38.931,75.395C38.406,75.395 37.973,75.205 37.631,74.825C37.292,74.445 37.123,73.895 37.123,73.176L37.123,73.176ZM38.369,73.432C38.369,73.78 38.425,74.025 38.537,74.166C38.649,74.308 38.794,74.378 38.971,74.378C39.206,74.378 39.416,74.269 39.598,74.051C39.843,73.759 40.059,73.185 40.248,72.327C40.398,71.646 40.474,71.107 40.474,70.709C40.474,70.385 40.416,70.152 40.301,70.011C40.189,69.866 40.045,69.794 39.868,69.794C39.644,69.794 39.445,69.902 39.271,70.117C39.015,70.429 38.794,70.979 38.608,71.766C38.449,72.446 38.369,73.002 38.369,73.432L38.369,73.432Z" style="fill:rgb(158,161,168);fill-rule:nonzero;"/>
            <path id="path1543" d="M43.97,70.824L42.728,70.638C42.828,70.037 43.061,69.577 43.427,69.259C43.795,68.938 44.255,68.777 44.806,68.777C45.41,68.777 45.884,68.941 46.229,69.268C46.574,69.595 46.747,70.011 46.747,70.515C46.747,70.771 46.693,71.029 46.587,71.288C46.481,71.545 46.307,71.814 46.066,72.097C45.892,72.298 45.607,72.582 45.213,72.95C44.818,73.316 44.555,73.566 44.426,73.702C44.299,73.835 44.177,73.976 44.059,74.126L46.304,74.126L46.066,75.285L42.127,75.285C42.168,74.966 42.261,74.664 42.405,74.378C42.553,74.089 42.735,73.821 42.954,73.574C43.172,73.326 43.571,72.927 44.152,72.376C44.588,71.957 44.863,71.685 44.978,71.558C45.185,71.328 45.326,71.129 45.403,70.961C45.479,70.793 45.518,70.641 45.518,70.506C45.518,70.288 45.453,70.111 45.323,69.975C45.196,69.84 45.034,69.772 44.837,69.772C44.636,69.772 44.461,69.849 44.311,70.002C44.16,70.152 44.047,70.426 43.97,70.824L43.97,70.824Z" style="fill:rgb(158,161,168);fill-rule:nonzero;"/>
        </g>
        <g id="text1442" transform="matrix(0.837722,0,0,1.19371,-4,0)">
            <path id="path1509" d="M37.202,90.925L38.458,90.925L38.201,92.149L36.946,92.149L37.202,90.925Z" style="fill:rgb(158,161,168);fill-rule:nonzero;"/>
            <path id="path1521" d="M41.451,87.689L40.208,87.503C40.309,86.902 40.541,86.442 40.907,86.124C41.275,85.803 41.735,85.642 42.286,85.642C42.89,85.642 43.365,85.806 43.709,86.133C44.054,86.46 44.227,86.875 44.227,87.379C44.227,87.636 44.174,87.894 44.068,88.153C43.961,88.409 43.788,88.679 43.546,88.962C43.372,89.162 43.088,89.447 42.693,89.815C42.298,90.181 42.036,90.431 41.906,90.567C41.779,90.699 41.657,90.841 41.539,90.991L43.785,90.991L43.546,92.149L39.607,92.149C39.648,91.831 39.741,91.529 39.886,91.243C40.033,90.954 40.216,90.686 40.434,90.439C40.652,90.191 41.051,89.792 41.632,89.241C42.068,88.822 42.343,88.549 42.458,88.423C42.665,88.193 42.806,87.994 42.883,87.826C42.959,87.658 42.998,87.506 42.998,87.371C42.998,87.153 42.933,86.976 42.803,86.84C42.677,86.705 42.514,86.637 42.317,86.637C42.117,86.637 41.941,86.713 41.791,86.867C41.641,87.017 41.527,87.291 41.451,87.689L41.451,87.689Z" style="fill:rgb(158,161,168);fill-rule:nonzero;"/>
        </g>
        <g id="path1504" transform="matrix(0.837722,0,0,1.19371,-4,0)">
            <path d="M38.811,105.182L39.05,104.05C40.143,103.572 40.989,103.017 41.588,102.383L42.361,102.383L40.995,108.904L39.718,108.904L40.659,104.412C40.394,104.583 40.087,104.74 39.74,104.881C39.395,105.022 39.085,105.123 38.811,105.182L38.811,105.182Z" style="fill:rgb(158,161,168);fill-rule:nonzero;"/>
        </g>
        <g id="path1496" transform="matrix(0.837722,0,0,1.19371,-4.00003,0)">
            <path d="M38.281,123.855L39.497,123.709C39.547,124.054 39.637,124.292 39.766,124.425C39.899,124.558 40.074,124.624 40.292,124.624C40.581,124.624 40.82,124.527 41.008,124.332C41.2,124.138 41.296,123.888 41.296,123.585C41.296,123.32 41.219,123.11 41.066,122.957C40.913,122.801 40.706,122.723 40.447,122.723C40.382,122.723 40.314,122.729 40.244,122.741L40.465,121.684C40.509,121.69 40.552,121.693 40.593,121.693C40.932,121.693 41.19,121.607 41.367,121.436C41.543,121.263 41.632,121.028 41.632,120.734C41.632,120.524 41.571,120.359 41.451,120.238C41.333,120.118 41.176,120.057 40.982,120.057C40.799,120.057 40.636,120.125 40.491,120.26C40.347,120.393 40.232,120.621 40.146,120.946L38.988,120.716C39.136,120.238 39.34,119.871 39.603,119.615C40.001,119.232 40.49,119.04 41.07,119.04C41.666,119.04 42.118,119.207 42.428,119.54C42.737,119.87 42.892,120.266 42.892,120.729C42.892,121.065 42.793,121.369 42.596,121.64C42.398,121.911 42.127,122.11 41.782,122.237C42.056,122.381 42.258,122.568 42.388,122.798C42.517,123.028 42.582,123.268 42.582,123.519C42.582,123.996 42.413,124.435 42.074,124.836C41.611,125.384 41.014,125.658 40.283,125.658C39.735,125.658 39.283,125.502 38.926,125.19C38.573,124.874 38.358,124.429 38.281,123.855L38.281,123.855Z" style="fill:rgb(158,161,168);fill-rule:nonzero;"/>
        </g>
        <g id="text1454" transform="matrix(0.837722,0,0,1.19371,-5.89609,0)">
            <path id="path1475" d="M38.281,138.58L38.52,137.448C39.613,136.971 40.459,136.415 41.057,135.782L41.831,135.782L40.465,142.302L39.187,142.302L40.129,137.811C39.863,137.982 39.557,138.138 39.209,138.279C38.864,138.421 38.555,138.521 38.281,138.58L38.281,138.58Z" style="fill:rgb(158,161,168);fill-rule:nonzero;"/>
            <path id="path1480" d="M42.83,140.194C42.83,139.542 42.94,138.882 43.161,138.213C43.432,137.397 43.78,136.79 44.205,136.392C44.629,135.994 45.101,135.795 45.619,135.795C46.144,135.795 46.574,135.985 46.91,136.365C47.249,136.745 47.418,137.298 47.418,138.023C47.418,138.686 47.295,139.387 47.047,140.127C46.802,140.864 46.471,141.43 46.052,141.825C45.634,142.217 45.162,142.413 44.638,142.413C44.113,142.413 43.68,142.223 43.338,141.842C42.999,141.462 42.83,140.913 42.83,140.194L42.83,140.194ZM44.076,140.45C44.076,140.798 44.132,141.042 44.244,141.184C44.356,141.325 44.501,141.396 44.678,141.396C44.913,141.396 45.123,141.287 45.305,141.069C45.55,140.777 45.767,140.202 45.955,139.345C46.106,138.664 46.181,138.125 46.181,137.727C46.181,137.403 46.123,137.17 46.008,137.028C45.896,136.884 45.752,136.812 45.575,136.812C45.351,136.812 45.152,136.919 44.978,137.134C44.722,137.447 44.501,137.996 44.315,138.783C44.156,139.464 44.076,140.02 44.076,140.45L44.076,140.45Z" style="fill:rgb(158,161,168);fill-rule:nonzero;"/>
        </g>
        <rect id="rect1458" x="40" y="66" width="20" height="2" style="fill:rgb(158,161,168);"/>
        <rect id="rect1460" x="0" y="86" width="22" height="2" style="fill:rgb(158,161,168);"/>
        <rect id="rect1463" x="0" y="106" width="24" height="2" style="fill:rgb(158,161,168);"/>
        <rect id="rect1465" x="0" y="126" width="26" height="2" style="fill:rgb(158,161,168);"/>
        <rect id="rect1467" x="0" y="146" width="26" height="2" style="fill:rgb(158,161,168);"/>
        <rect id="rect1469" x="0" y="166" width="24" height="2" style="fill:rgb(158,161,168);"/>
        <g id="text1583" transform="matrix(0.662312,0,0,1.50986,0,-3)">
            <path id="path1621" d="M4.683,25.08L3.628,25.08L4.523,20.813L3.02,20.813L3.198,19.957L7.235,19.957L7.057,20.813L5.575,20.813L4.683,25.08Z" style="fill:rgb(158,161,168);fill-rule:nonzero;"/>
            <path id="path1623" d="M7.906,25.08L6.85,25.08L7.923,19.957L10.199,19.957C10.59,19.957 10.894,19.998 11.111,20.079C11.33,20.158 11.506,20.305 11.639,20.519C11.774,20.734 11.841,20.994 11.841,21.299C11.841,21.735 11.711,22.095 11.45,22.379C11.189,22.661 10.794,22.835 10.265,22.903C10.4,23.024 10.527,23.184 10.646,23.382C10.881,23.783 11.143,24.349 11.432,25.08L10.3,25.08C10.209,24.792 10.031,24.341 9.765,23.728C9.621,23.397 9.467,23.175 9.304,23.06C9.204,22.993 9.029,22.959 8.78,22.959L8.35,22.959L7.906,25.08ZM8.51,22.19L9.07,22.19C9.636,22.19 10.011,22.156 10.195,22.089C10.381,22.021 10.527,21.915 10.632,21.771C10.737,21.626 10.789,21.475 10.789,21.316C10.789,21.13 10.713,20.99 10.562,20.897C10.469,20.841 10.267,20.813 9.957,20.813L8.797,20.813L8.51,22.19Z" style="fill:rgb(158,161,168);fill-rule:nonzero;"/>
            <path id="path1625" d="M11.957,25.08L13.03,19.957L14.082,19.957L13.012,25.08L11.957,25.08Z" style="fill:rgb(158,161,168);fill-rule:nonzero;"/>
            <path id="path1627" d="M16.839,22.344L19.132,22.344L18.671,24.542C18.4,24.717 18.068,24.865 17.674,24.986C17.283,25.107 16.883,25.168 16.476,25.168C15.842,25.168 15.356,25.025 15.018,24.738C14.557,24.347 14.326,23.779 14.326,23.036C14.326,22.537 14.425,22.06 14.623,21.603C14.861,21.053 15.199,20.627 15.637,20.324C16.075,20.021 16.59,19.869 17.182,19.869C17.774,19.869 18.248,20.007 18.604,20.282C18.963,20.557 19.201,20.957 19.317,21.484L18.335,21.596C18.249,21.307 18.109,21.089 17.916,20.942C17.725,20.796 17.483,20.722 17.192,20.722C16.852,20.722 16.54,20.811 16.255,20.988C15.971,21.165 15.749,21.439 15.588,21.809C15.427,22.18 15.347,22.584 15.347,23.022C15.347,23.453 15.445,23.772 15.64,23.98C15.836,24.185 16.123,24.287 16.5,24.287C16.726,24.287 16.958,24.256 17.196,24.193C17.433,24.127 17.638,24.051 17.811,23.962L17.968,23.2L16.661,23.2L16.839,22.344Z" style="fill:rgb(158,161,168);fill-rule:nonzero;"/>
            <path id="path1629" d="M21.491,25.08L22.564,19.957L23.616,19.957L22.547,25.08L21.491,25.08Z" style="fill:rgb(158,161,168);fill-rule:nonzero;"/>
            <path id="path1631" d="M27.618,25.08L26.636,25.08L25.252,21.638L24.532,25.08L23.55,25.08L24.619,19.957L25.605,19.957L26.992,23.385L27.709,19.957L28.687,19.957L27.618,25.08Z" style="fill:rgb(158,161,168);fill-rule:nonzero;"/>
        </g>
        <g id="text1587" transform="matrix(0.665298,0,0,1.50308,0,-1)">
            <path id="path1634" d="M3.007,34.171L4.015,34.118C4.029,34.439 4.084,34.655 4.18,34.768C4.334,34.95 4.62,35.041 5.036,35.041C5.383,35.041 5.633,34.979 5.788,34.855C5.942,34.731 6.019,34.581 6.019,34.406C6.019,34.254 5.956,34.125 5.83,34.02C5.741,33.943 5.496,33.817 5.096,33.644C4.698,33.471 4.407,33.327 4.222,33.212C4.039,33.095 3.895,32.944 3.79,32.759C3.685,32.574 3.632,32.358 3.632,32.11C3.632,31.677 3.789,31.318 4.102,31.032C4.416,30.747 4.87,30.604 5.465,30.604C6.069,30.604 6.535,30.745 6.865,31.029C7.198,31.312 7.38,31.689 7.413,32.159L6.399,32.205C6.373,31.959 6.284,31.77 6.132,31.639C5.98,31.508 5.755,31.443 5.458,31.443C5.165,31.443 4.956,31.494 4.829,31.597C4.705,31.7 4.643,31.83 4.643,31.987C4.643,32.134 4.7,32.256 4.815,32.352C4.93,32.45 5.184,32.585 5.577,32.756C6.169,33.011 6.546,33.218 6.707,33.377C6.949,33.611 7.069,33.912 7.069,34.28C7.069,34.734 6.889,35.122 6.528,35.445C6.17,35.766 5.671,35.926 5.029,35.926C4.587,35.926 4.203,35.852 3.878,35.705C3.555,35.555 3.327,35.348 3.193,35.084C3.06,34.819 2.998,34.515 3.007,34.171Z" style="fill:rgb(158,161,168);fill-rule:nonzero;"/>
            <path id="path1636" d="M7.648,35.838L8.723,30.691L12.539,30.691L12.36,31.552L9.604,31.552L9.358,32.721L12.023,32.721L11.844,33.581L9.179,33.581L8.856,34.978L11.851,34.978L11.668,35.838L7.648,35.838Z" style="fill:rgb(158,161,168);fill-rule:nonzero;"/>
            <path id="path1638" d="M12.479,35.838L13.557,30.691L14.614,30.691L13.719,34.978L16.338,34.978L16.159,35.838L12.479,35.838Z" style="fill:rgb(158,161,168);fill-rule:nonzero;"/>
            <path id="path1640" d="M16.833,35.838L17.91,30.691L21.513,30.691L21.33,31.552L18.788,31.552L18.528,32.787L21.021,32.787L20.842,33.648L18.349,33.648L17.893,35.838L16.833,35.838Z" style="fill:rgb(158,161,168);fill-rule:nonzero;"/>
            <path id="path1642" d="M21.428,33.497L23.384,33.497L23.18,34.469L21.225,34.469L21.428,33.497Z" style="fill:rgb(158,161,168);fill-rule:nonzero;"/>
            <path id="path1644" d="M25.884,35.838L24.823,35.838L25.722,31.552L24.212,31.552L24.391,30.691L28.446,30.691L28.267,31.552L26.779,31.552L25.884,35.838Z" style="fill:rgb(158,161,168);fill-rule:nonzero;"/>
            <path id="path1646" d="M29.12,35.838L28.06,35.838L29.138,30.691L31.424,30.691C31.817,30.691 32.122,30.732 32.34,30.814C32.56,30.894 32.737,31.041 32.87,31.257C33.006,31.472 33.074,31.733 33.074,32.04C33.074,32.477 32.943,32.839 32.68,33.124C32.418,33.408 32.022,33.583 31.49,33.651C31.626,33.773 31.754,33.933 31.873,34.132C32.109,34.535 32.373,35.103 32.663,35.838L31.525,35.838C31.434,35.548 31.255,35.095 30.988,34.48C30.843,34.147 30.689,33.924 30.525,33.809C30.424,33.741 30.249,33.707 29.998,33.707L29.566,33.707L29.12,35.838ZM29.728,32.935L30.29,32.935C30.858,32.935 31.235,32.901 31.42,32.833C31.607,32.765 31.754,32.659 31.859,32.514C31.964,32.368 32.017,32.216 32.017,32.057C32.017,31.87 31.941,31.73 31.789,31.636C31.695,31.58 31.493,31.552 31.181,31.552L30.016,31.552L29.728,32.935Z" style="fill:rgb(158,161,168);fill-rule:nonzero;"/>
            <path id="path1648" d="M33.19,35.838L34.267,30.691L35.324,30.691L34.25,35.838L33.19,35.838Z" style="fill:rgb(158,161,168);fill-rule:nonzero;"/>
            <path id="path1650" d="M38.094,33.089L40.397,33.089L39.934,35.298C39.662,35.473 39.329,35.622 38.933,35.744C38.54,35.865 38.139,35.926 37.729,35.926C37.092,35.926 36.604,35.782 36.265,35.494C35.802,35.101 35.57,34.531 35.57,33.785C35.57,33.284 35.669,32.804 35.868,32.345C36.107,31.793 36.446,31.364 36.886,31.06C37.326,30.756 37.844,30.604 38.438,30.604C39.033,30.604 39.509,30.742 39.867,31.018C40.228,31.294 40.466,31.697 40.583,32.226L39.597,32.338C39.51,32.048 39.37,31.829 39.175,31.682C38.984,31.534 38.741,31.46 38.449,31.46C38.107,31.46 37.793,31.549 37.508,31.727C37.222,31.905 36.999,32.18 36.837,32.552C36.676,32.924 36.595,33.33 36.595,33.77C36.595,34.203 36.693,34.524 36.89,34.732C37.087,34.938 37.374,35.041 37.754,35.041C37.981,35.041 38.213,35.01 38.452,34.947C38.691,34.881 38.897,34.804 39.07,34.715L39.228,33.95L37.915,33.95L38.094,33.089Z" style="fill:rgb(158,161,168);fill-rule:nonzero;"/>
        </g>
        <g id="text1346" transform="matrix(0.841792,0,0,1.18794,-2,-4)">
            <path id="path1431" d="M12.079,52.03L13.091,52.183C12.894,52.732 12.597,53.151 12.202,53.442C11.807,53.73 11.344,53.875 10.814,53.875C10.217,53.875 9.75,53.695 9.412,53.335C9.077,52.976 8.91,52.454 8.91,51.77C8.91,51.216 9.022,50.708 9.246,50.249C9.472,49.787 9.785,49.434 10.185,49.19C10.584,48.946 11.019,48.824 11.49,48.824C12.018,48.824 12.445,48.966 12.772,49.25C13.098,49.532 13.29,49.917 13.348,50.405L12.385,50.499C12.332,50.215 12.229,50.009 12.076,49.883C11.925,49.754 11.723,49.69 11.47,49.69C11.192,49.69 10.933,49.774 10.691,49.943C10.451,50.111 10.259,50.375 10.115,50.735C9.971,51.092 9.898,51.45 9.898,51.807C9.898,52.198 9.992,52.5 10.178,52.713C10.367,52.926 10.601,53.032 10.881,53.032C11.14,53.032 11.378,52.948 11.593,52.779C11.811,52.611 11.973,52.361 12.079,52.03L12.079,52.03Z" style="fill:rgb(158,161,168);fill-rule:nonzero;"/>
            <path id="path1433" d="M15.911,53.788L14.839,53.788L13.964,48.907L14.966,48.907L15.585,52.6L17.606,48.907L18.602,48.907L15.911,53.788Z" style="fill:rgb(158,161,168);fill-rule:nonzero;"/>
            <path id="path1435" d="M19.873,53.788L20.896,48.907L21.898,48.907L20.879,53.788L19.873,53.788Z" style="fill:rgb(158,161,168);fill-rule:nonzero;"/>
            <path id="path1437" d="M25.71,53.788L24.774,53.788L23.456,50.509L22.77,53.788L21.834,53.788L22.853,48.907L23.792,48.907L25.114,52.173L25.796,48.907L26.729,48.907L25.71,53.788Z" style="fill:rgb(158,161,168);fill-rule:nonzero;"/>
        </g>
        <rect id="rect1440" x="0" y="193" width="60" height="1" style="fill:rgb(158,161,168);"/>
        <rect id="rect1442" x="0" y="250" width="60" height="2" style="fill:rgb(197,200,209);"/>
        <rect id="rect1444" x="0" y="240" width="20" height="2" style="fill:rgb(158,161,168);"/>
        <rect id="rect1446" x="0" y="270" width="60" height="2" style="fill:rgb(197,200,209);"/>
        <rect id="rect1448" x="38" y="260" width="22" height="2" style="fill:rgb(158,161,168);"/>
        <rect id="rect1450" x="0" y="290" width="60" height="2" style="fill:rgb(197,200,209);"/>
        <rect id="rect1452" x="36" y="280" width="24" height="2" style="fill:rgb(158,161,168);"/>
        <rect id="rect1454" x="0" y="310" width="60" height="2" style="fill:rgb(197,200,209);"/>
        <rect id="rect1456" x="34" y="300" width="26" height="2" style="fill:rgb(158,161,168);"/>
        <rect id="rect1459" x="0" y="330" width="60" height="2" style="fill:rgb(197,200,209);"/>
        <rect id="rect1461" x="34" y="320" width="26" height="2" style="fill:rgb(158,161,168);"/>
        <rect id="rect1470" x="36" y="340" width="24" height="2" style="fill:rgb(158,161,168);"/>
        <rect id="rect1472" x="0" y="367" width="60" height="1" style="fill:rgb(158,161,168);"/>
        <g id="g1490" transform="matrix(0.873163,0,0,1.14526,-4,174)">
            <path id="path1482" d="M30.047,59.712L31.373,59.712L31.102,61.005L29.777,61.005L30.047,59.712Z" style="fill:rgb(158,161,168);fill-rule:nonzero;"/>
            <path id="path1484" d="M32.623,58.779C32.623,58.092 32.74,57.395 32.973,56.689C33.259,55.827 33.626,55.186 34.074,54.766C34.522,54.346 35.02,54.136 35.568,54.136C36.121,54.136 36.575,54.337 36.93,54.738C37.288,55.139 37.467,55.723 37.467,56.488C37.467,57.188 37.336,57.928 37.075,58.709C36.817,59.487 36.467,60.084 36.025,60.501C35.583,60.915 35.085,61.121 34.532,61.121C33.978,61.121 33.521,60.921 33.16,60.52C32.802,60.118 32.623,59.538 32.623,58.779ZM33.939,59.05C33.939,59.417 33.998,59.675 34.116,59.824C34.235,59.974 34.387,60.048 34.574,60.048C34.823,60.048 35.043,59.933 35.236,59.703C35.494,59.395 35.723,58.788 35.922,57.883C36.081,57.165 36.16,56.595 36.16,56.175C36.16,55.833 36.1,55.587 35.978,55.438C35.86,55.286 35.708,55.209 35.521,55.209C35.284,55.209 35.074,55.323 34.891,55.55C34.62,55.88 34.387,56.46 34.191,57.291C34.023,58.009 33.939,58.595 33.939,59.05L33.939,59.05Z" style="fill:rgb(158,161,168);fill-rule:nonzero;"/>
            <path id="path1486" d="M37.943,58.779C37.943,58.092 38.059,57.395 38.293,56.689C38.579,55.827 38.946,55.186 39.394,54.766C39.842,54.346 40.34,54.136 40.887,54.136C41.441,54.136 41.895,54.337 42.25,54.738C42.607,55.139 42.786,55.723 42.786,56.488C42.786,57.188 42.655,57.928 42.394,58.709C42.136,59.487 41.786,60.084 41.344,60.501C40.903,60.915 40.405,61.121 39.851,61.121C39.297,61.121 38.84,60.921 38.479,60.52C38.121,60.118 37.943,59.538 37.943,58.779L37.943,58.779ZM39.259,59.05C39.259,59.417 39.318,59.675 39.436,59.824C39.554,59.974 39.706,60.048 39.893,60.048C40.142,60.048 40.363,59.933 40.556,59.703C40.814,59.395 41.043,58.788 41.242,57.883C41.4,57.165 41.48,56.595 41.48,56.175C41.48,55.833 41.419,55.587 41.298,55.438C41.179,55.286 41.027,55.209 40.84,55.209C40.604,55.209 40.394,55.323 40.21,55.55C39.94,55.88 39.706,56.46 39.51,57.291C39.343,58.009 39.259,58.595 39.259,59.05L39.259,59.05Z" style="fill:rgb(158,161,168);fill-rule:nonzero;"/>
            <path id="path1488" d="M45.171,56.297L43.859,56.101C43.965,55.466 44.211,54.981 44.597,54.645C44.986,54.306 45.471,54.136 46.053,54.136C46.69,54.136 47.191,54.309 47.555,54.654C47.919,54.999 48.101,55.438 48.101,55.97C48.101,56.241 48.045,56.513 47.933,56.787C47.821,57.057 47.637,57.342 47.382,57.64C47.199,57.852 46.899,58.152 46.482,58.541C46.065,58.927 45.788,59.191 45.651,59.334C45.517,59.474 45.388,59.624 45.264,59.782L47.634,59.782L47.382,61.005L43.225,61.005C43.268,60.669 43.366,60.35 43.519,60.048C43.674,59.743 43.867,59.46 44.097,59.199C44.328,58.938 44.749,58.516 45.362,57.934C45.822,57.493 46.113,57.205 46.235,57.071C46.452,56.829 46.602,56.619 46.682,56.441C46.763,56.264 46.804,56.104 46.804,55.961C46.804,55.73 46.735,55.544 46.598,55.401C46.465,55.258 46.294,55.186 46.085,55.186C45.874,55.186 45.689,55.267 45.53,55.429C45.371,55.587 45.251,55.877 45.171,56.297L45.171,56.297Z" style="fill:rgb(158,161,168);fill-rule:nonzero;"/>
        </g>
        <g id="g1547" transform="matrix(0.837722,0,0,1.19371,-4,174)">
            <path id="path1492" d="M34.682,74.06L35.938,74.06L35.682,75.285L34.426,75.285L34.682,74.06Z" style="fill:rgb(158,161,168);fill-rule:nonzero;"/>
            <path id="path1494" d="M37.123,73.176C37.123,72.525 37.233,71.864 37.454,71.195C37.725,70.379 38.073,69.772 38.497,69.374C38.922,68.976 39.393,68.777 39.912,68.777C40.437,68.777 40.867,68.967 41.203,69.348C41.542,69.728 41.711,70.28 41.711,71.005C41.711,71.668 41.588,72.37 41.34,73.11C41.095,73.846 40.764,74.412 40.345,74.807C39.927,75.199 39.455,75.395 38.931,75.395C38.406,75.395 37.973,75.205 37.631,74.825C37.292,74.445 37.123,73.895 37.123,73.176L37.123,73.176ZM38.369,73.432C38.369,73.78 38.425,74.025 38.537,74.166C38.649,74.308 38.794,74.378 38.971,74.378C39.206,74.378 39.416,74.269 39.598,74.051C39.843,73.759 40.059,73.185 40.248,72.327C40.398,71.646 40.474,71.107 40.474,70.709C40.474,70.385 40.416,70.152 40.301,70.011C40.189,69.866 40.045,69.794 39.868,69.794C39.644,69.794 39.445,69.902 39.271,70.117C39.015,70.429 38.794,70.979 38.608,71.766C38.449,72.446 38.369,73.002 38.369,73.432L38.369,73.432Z" style="fill:rgb(158,161,168);fill-rule:nonzero;"/>
            <path id="path1545" d="M43.97,70.824L42.728,70.638C42.828,70.037 43.061,69.577 43.427,69.259C43.795,68.938 44.255,68.777 44.806,68.777C45.41,68.777 45.884,68.941 46.229,69.268C46.574,69.595 46.747,70.011 46.747,70.515C46.747,70.771 46.693,71.029 46.587,71.288C46.481,71.545 46.307,71.814 46.066,72.097C45.892,72.298 45.607,72.582 45.213,72.95C44.818,73.316 44.555,73.566 44.426,73.702C44.299,73.835 44.177,73.976 44.059,74.126L46.304,74.126L46.066,75.285L42.127,75.285C42.168,74.966 42.261,74.664 42.405,74.378C42.553,74.089 42.735,73.821 42.954,73.574C43.172,73.326 43.571,72.927 44.152,72.376C44.588,71.957 44.863,71.685 44.978,71.558C45.185,71.328 45.326,71.129 45.403,70.961C45.479,70.793 45.518,70.641 45.518,70.506C45.518,70.288 45.453,70.111 45.323,69.975C45.196,69.84 45.034,69.772 44.837,69.772C44.636,69.772 44.461,69.849 44.311,70.002C44.16,70.152 44.047,70.426 43.97,70.824L43.97,70.824Z" style="fill:rgb(158,161,168);fill-rule:nonzero;"/>
        </g>
        <g id="g1559" transform="matrix(0.837722,0,0,1.19371,-4,174)">
            <path id="path1555" d="M37.202,90.925L38.458,90.925L38.201,92.149L36.946,92.149L37.202,90.925Z" style="fill:rgb(158,161,168);fill-rule:nonzero;"/>
            <path id="path1557" d="M41.451,87.689L40.208,87.503C40.309,86.902 40.541,86.442 40.907,86.124C41.275,85.803 41.735,85.642 42.286,85.642C42.89,85.642 43.365,85.806 43.709,86.133C44.054,86.46 44.227,86.875 44.227,87.379C44.227,87.636 44.174,87.894 44.068,88.153C43.961,88.409 43.788,88.679 43.546,88.962C43.372,89.162 43.088,89.447 42.693,89.815C42.298,90.181 42.036,90.431 41.906,90.567C41.779,90.699 41.657,90.841 41.539,90.991L43.785,90.991L43.546,92.149L39.607,92.149C39.648,91.831 39.741,91.529 39.886,91.243C40.033,90.954 40.216,90.686 40.434,90.439C40.652,90.191 41.051,89.792 41.632,89.241C42.068,88.822 42.343,88.549 42.458,88.423C42.665,88.193 42.806,87.994 42.883,87.826C42.959,87.658 42.998,87.506 42.998,87.371C42.998,87.153 42.933,86.976 42.803,86.84C42.677,86.705 42.514,86.637 42.317,86.637C42.117,86.637 41.941,86.713 41.791,86.867C41.641,87.017 41.527,87.291 41.451,87.689L41.451,87.689Z" style="fill:rgb(158,161,168);fill-rule:nonzero;"/>
        </g>
        <g id="path1561" transform="matrix(0.837722,0,0,1.19371,-4,174)">
            <path d="M38.811,105.182L39.05,104.05C40.143,103.572 40.989,103.017 41.588,102.383L42.361,102.383L40.995,108.904L39.718,108.904L40.659,104.412C40.394,104.583 40.087,104.74 39.74,104.881C39.395,105.022 39.085,105.123 38.811,105.182L38.811,105.182Z" style="fill:rgb(158,161,168);fill-rule:nonzero;"/>
        </g>
        <g id="path1565" transform="matrix(0.837722,0,0,1.19371,-4.00003,174)">
            <path d="M38.281,123.855L39.497,123.709C39.547,124.054 39.637,124.292 39.766,124.425C39.899,124.558 40.074,124.624 40.292,124.624C40.581,124.624 40.82,124.527 41.008,124.332C41.2,124.138 41.296,123.888 41.296,123.585C41.296,123.32 41.219,123.11 41.066,122.957C40.913,122.801 40.706,122.723 40.447,122.723C40.382,122.723 40.314,122.729 40.244,122.741L40.465,121.684C40.509,121.69 40.552,121.693 40.593,121.693C40.932,121.693 41.19,121.607 41.367,121.436C41.543,121.263 41.632,121.028 41.632,120.734C41.632,120.524 41.571,120.359 41.451,120.238C41.333,120.118 41.176,120.057 40.982,120.057C40.799,120.057 40.636,120.125 40.491,120.26C40.347,120.393 40.232,120.621 40.146,120.946L38.988,120.716C39.136,120.238 39.34,119.871 39.603,119.615C40.001,119.232 40.49,119.04 41.07,119.04C41.666,119.04 42.118,119.207 42.428,119.54C42.737,119.87 42.892,120.266 42.892,120.729C42.892,121.065 42.793,121.369 42.596,121.64C42.398,121.911 42.127,122.11 41.782,122.237C42.056,122.381 42.258,122.568 42.388,122.798C42.517,123.028 42.582,123.268 42.582,123.519C42.582,123.996 42.413,124.435 42.074,124.836C41.611,125.384 41.014,125.658 40.283,125.658C39.735,125.658 39.283,125.502 38.926,125.19C38.573,124.874 38.358,124.429 38.281,123.855L38.281,123.855Z" style="fill:rgb(158,161,168);fill-rule:nonzero;"/>
        </g>
        <g id="g1573" transform="matrix(0.837722,0,0,1.19371,-5.89609,174)">
            <path id="path1569" d="M38.281,138.58L38.52,137.448C39.613,136.971 40.459,136.415 41.057,135.782L41.831,135.782L40.465,142.302L39.187,142.302L40.129,137.811C39.863,137.982 39.557,138.138 39.209,138.279C38.864,138.421 38.555,138.521 38.281,138.58L38.281,138.58Z" style="fill:rgb(158,161,168);fill-rule:nonzero;"/>
            <path id="path1571" d="M42.83,140.194C42.83,139.542 42.94,138.882 43.161,138.213C43.432,137.397 43.78,136.79 44.205,136.392C44.629,135.994 45.101,135.795 45.619,135.795C46.144,135.795 46.574,135.985 46.91,136.365C47.249,136.745 47.418,137.298 47.418,138.023C47.418,138.686 47.295,139.387 47.047,140.127C46.802,140.864 46.471,141.43 46.052,141.825C45.634,142.217 45.162,142.413 44.638,142.413C44.113,142.413 43.68,142.223 43.338,141.842C42.999,141.462 42.83,140.913 42.83,140.194L42.83,140.194ZM44.076,140.45C44.076,140.798 44.132,141.042 44.244,141.184C44.356,141.325 44.501,141.396 44.678,141.396C44.913,141.396 45.123,141.287 45.305,141.069C45.55,140.777 45.767,140.202 45.955,139.345C46.106,138.664 46.181,138.125 46.181,137.727C46.181,137.403 46.123,137.17 46.008,137.028C45.896,136.884 45.752,136.812 45.575,136.812C45.351,136.812 45.152,136.919 44.978,137.134C44.722,137.447 44.501,137.996 44.315,138.783C44.156,139.464 44.076,140.02 44.076,140.45L44.076,140.45Z" style="fill:rgb(158,161,168);fill-rule:nonzero;"/>
        </g>
        <rect id="rect1575" x="40" y="240" width="20" height="2" style="fill:rgb(158,161,168);"/>
        <rect id="rect1577" x="0" y="260" width="22" height="2" style="fill:rgb(158,161,168);"/>
        <rect id="rect1579" x="0" y="280" width="24" height="2" style="fill:rgb(158,161,168);"/>
        <rect id="rect1581" x="0" y="300" width="26" height="2" style="fill:rgb(158,161,168);"/>
        <rect id="rect1583" x="0" y="320" width="26" height="2" style="fill:rgb(158,161,168);"/>
        <rect id="rect1585" x="0" y="340" width="24" height="2" style="fill:rgb(158,161,168);"/>
        <g id="g1600" transform="matrix(0.662312,0,0,1.50986,0,171)">
            <path id="path1587" d="M4.683,25.08L3.628,25.08L4.523,20.813L3.02,20.813L3.198,19.957L7.235,19.957L7.057,20.813L5.575,20.813L4.683,25.08Z" style="fill:rgb(158,161,168);fill-rule:nonzero;"/>
            <path id="path1590" d="M7.906,25.08L6.85,25.08L7.923,19.957L10.199,19.957C10.59,19.957 10.894,19.998 11.111,20.079C11.33,20.158 11.506,20.305 11.639,20.519C11.774,20.734 11.841,20.994 11.841,21.299C11.841,21.735 11.711,22.095 11.45,22.379C11.189,22.661 10.794,22.835 10.265,22.903C10.4,23.024 10.527,23.184 10.646,23.382C10.881,23.783 11.143,24.349 11.432,25.08L10.3,25.08C10.209,24.792 10.031,24.341 9.765,23.728C9.621,23.397 9.467,23.175 9.304,23.06C9.204,22.993 9.029,22.959 8.78,22.959L8.35,22.959L7.906,25.08ZM8.51,22.19L9.07,22.19C9.636,22.19 10.011,22.156 10.195,22.089C10.381,22.021 10.527,21.915 10.632,21.771C10.737,21.626 10.789,21.475 10.789,21.316C10.789,21.13 10.713,20.99 10.562,20.897C10.469,20.841 10.267,20.813 9.957,20.813L8.797,20.813L8.51,22.19Z" style="fill:rgb(158,161,168);fill-rule:nonzero;"/>
            <path id="path1592" d="M11.957,25.08L13.03,19.957L14.082,19.957L13.012,25.08L11.957,25.08Z" style="fill:rgb(158,161,168);fill-rule:nonzero;"/>
            <path id="path1594" d="M16.839,22.344L19.132,22.344L18.671,24.542C18.4,24.717 18.068,24.865 17.674,24.986C17.283,25.107 16.883,25.168 16.476,25.168C15.842,25.168 15.356,25.025 15.018,24.738C14.557,24.347 14.326,23.779 14.326,23.036C14.326,22.537 14.425,22.06 14.623,21.603C14.861,21.053 15.199,20.627 15.637,20.324C16.075,20.021 16.59,19.869 17.182,19.869C17.774,19.869 18.248,20.007 18.604,20.282C18.963,20.557 19.201,20.957 19.317,21.484L18.335,21.596C18.249,21.307 18.109,21.089 17.916,20.942C17.725,20.796 17.483,20.722 17.192,20.722C16.852,20.722 16.54,20.811 16.255,20.988C15.971,21.165 15.749,21.439 15.588,21.809C15.427,22.18 15.347,22.584 15.347,23.022C15.347,23.453 15.445,23.772 15.64,23.98C15.836,24.185 16.123,24.287 16.5,24.287C16.726,24.287 16.958,24.256 17.196,24.193C17.433,24.127 17.638,24.051 17.811,23.962L17.968,23.2L16.661,23.2L16.839,22.344Z" style="fill:rgb(158,161,168);fill-rule:nonzero;"/>
            <path id="path1596" d="M21.491,25.08L22.564,19.957L23.616,19.957L22.547,25.08L21.491,25.08Z" style="fill:rgb(158,161,168);fill-rule:nonzero;"/>
            <path id="path1598" d="M27.618,25.08L26.636,25.08L25.252,21.638L24.532,25.08L23.55,25.08L24.619,19.957L25.605,19.957L26.992,23.385L27.709,19.957L28.687,19.957L27.618,25.08Z" style="fill:rgb(158,161,168);fill-rule:nonzero;"/>
        </g>
        <g id="g1621" transform="matrix(0.665298,0,0,1.50308,0,173)">
            <path id="path1602" d="M3.007,34.171L4.015,34.118C4.029,34.439 4.084,34.655 4.18,34.768C4.334,34.95 4.62,35.041 5.036,35.041C5.383,35.041 5.633,34.979 5.788,34.855C5.942,34.731 6.019,34.581 6.019,34.406C6.019,34.254 5.956,34.125 5.83,34.02C5.741,33.943 5.496,33.817 5.096,33.644C4.698,33.471 4.407,33.327 4.222,33.212C4.039,33.095 3.895,32.944 3.79,32.759C3.685,32.574 3.632,32.358 3.632,32.11C3.632,31.677 3.789,31.318 4.102,31.032C4.416,30.747 4.87,30.604 5.465,30.604C6.069,30.604 6.535,30.745 6.865,31.029C7.198,31.312 7.38,31.689 7.413,32.159L6.399,32.205C6.373,31.959 6.284,31.77 6.132,31.639C5.98,31.508 5.755,31.443 5.458,31.443C5.165,31.443 4.956,31.494 4.829,31.597C4.705,31.7 4.643,31.83 4.643,31.987C4.643,32.134 4.7,32.256 4.815,32.352C4.93,32.45 5.184,32.585 5.577,32.756C6.169,33.011 6.546,33.218 6.707,33.377C6.949,33.611 7.069,33.912 7.069,34.28C7.069,34.734 6.889,35.122 6.528,35.445C6.17,35.766 5.671,35.926 5.029,35.926C4.587,35.926 4.203,35.852 3.878,35.705C3.555,35.555 3.327,35.348 3.193,35.084C3.06,34.819 2.998,34.515 3.007,34.171Z" style="fill:rgb(158,161,168);fill-rule:nonzero;"/>
            <path id="path1604" d="M7.648,35.838L8.723,30.691L12.539,30.691L12.36,31.552L9.604,31.552L9.358,32.721L12.023,32.721L11.844,33.581L9.179,33.581L8.856,34.978L11.851,34.978L11.668,35.838L7.648,35.838Z" style="fill:rgb(158,161,168);fill-rule:nonzero;"/>
            <path id="path1607" d="M12.479,35.838L13.557,30.691L14.614,30.691L13.719,34.978L16.338,34.978L16.159,35.838L12.479,35.838Z" style="fill:rgb(158,161,168);fill-rule:nonzero;"/>
            <path id="path1609" d="M16.833,35.838L17.91,30.691L21.513,30.691L21.33,31.552L18.788,31.552L18.528,32.787L21.021,32.787L20.842,33.648L18.349,33.648L17.893,35.838L16.833,35.838Z" style="fill:rgb(158,161,168);fill-rule:nonzero;"/>
            <path id="path1611" d="M21.428,33.497L23.384,33.497L23.18,34.469L21.225,34.469L21.428,33.497Z" style="fill:rgb(158,161,168);fill-rule:nonzero;"/>
            <path id="path1613" d="M25.884,35.838L24.823,35.838L25.722,31.552L24.212,31.552L24.391,30.691L28.446,30.691L28.267,31.552L26.779,31.552L25.884,35.838Z" style="fill:rgb(158,161,168);fill-rule:nonzero;"/>
            <path id="path1615" d="M29.12,35.838L28.06,35.838L29.138,30.691L31.424,30.691C31.817,30.691 32.122,30.732 32.34,30.814C32.56,30.894 32.737,31.041 32.87,31.257C33.006,31.472 33.074,31.733 33.074,32.04C33.074,32.477 32.943,32.839 32.68,33.124C32.418,33.408 32.022,33.583 31.49,33.651C31.626,33.773 31.754,33.933 31.873,34.132C32.109,34.535 32.373,35.103 32.663,35.838L31.525,35.838C31.434,35.548 31.255,35.095 30.988,34.48C30.843,34.147 30.689,33.924 30.525,33.809C30.424,33.741 30.249,33.707 29.998,33.707L29.566,33.707L29.12,35.838ZM29.728,32.935L30.29,32.935C30.858,32.935 31.235,32.901 31.42,32.833C31.607,32.765 31.754,32.659 31.859,32.514C31.964,32.368 32.017,32.216 32.017,32.057C32.017,31.87 31.941,31.73 31.789,31.636C31.695,31.58 31.493,31.552 31.181,31.552L30.016,31.552L29.728,32.935Z" style="fill:rgb(158,161,168);fill-rule:nonzero;"/>
            <path id="path1617" d="M33.19,35.838L34.267,30.691L35.324,30.691L34.25,35.838L33.19,35.838Z" style="fill:rgb(158,161,168);fill-rule:nonzero;"/>
            <path id="path1619" d="M38.094,33.089L40.397,33.089L39.934,35.298C39.662,35.473 39.329,35.622 38.933,35.744C38.54,35.865 38.139,35.926 37.729,35.926C37.092,35.926 36.604,35.782 36.265,35.494C35.802,35.101 35.57,34.531 35.57,33.785C35.57,33.284 35.669,32.804 35.868,32.345C36.107,31.793 36.446,31.364 36.886,31.06C37.326,30.756 37.844,30.604 38.438,30.604C39.033,30.604 39.509,30.742 39.867,31.018C40.228,31.294 40.466,31.697 40.583,32.226L39.597,32.338C39.51,32.048 39.37,31.829 39.175,31.682C38.984,31.534 38.741,31.46 38.449,31.46C38.107,31.46 37.793,31.549 37.508,31.727C37.222,31.905 36.999,32.18 36.837,32.552C36.676,32.924 36.595,33.33 36.595,33.77C36.595,34.203 36.693,34.524 36.89,34.732C37.087,34.938 37.374,35.041 37.754,35.041C37.981,35.041 38.213,35.01 38.452,34.947C38.691,34.881 38.897,34.804 39.07,34.715L39.228,33.95L37.915,33.95L38.094,33.089Z" style="fill:rgb(158,161,168);fill-rule:nonzero;"/>
        </g>
        <g id="g1632" transform="matrix(0.841792,0,0,1.18794,-2,170)">
            <path id="path1624" d="M12.079,52.03L13.091,52.183C12.894,52.732 12.597,53.151 12.202,53.442C11.807,53.73 11.344,53.875 10.814,53.875C10.217,53.875 9.75,53.695 9.412,53.335C9.077,52.976 8.91,52.454 8.91,51.77C8.91,51.216 9.022,50.708 9.246,50.249C9.472,49.787 9.785,49.434 10.185,49.19C10.584,48.946 11.019,48.824 11.49,48.824C12.018,48.824 12.445,48.966 12.772,49.25C13.098,49.532 13.29,49.917 13.348,50.405L12.385,50.499C12.332,50.215 12.229,50.009 12.076,49.883C11.925,49.754 11.723,49.69 11.47,49.69C11.192,49.69 10.933,49.774 10.691,49.943C10.451,50.111 10.259,50.375 10.115,50.735C9.971,51.092 9.898,51.45 9.898,51.807C9.898,52.198 9.992,52.5 10.178,52.713C10.367,52.926 10.601,53.032 10.881,53.032C11.14,53.032 11.378,52.948 11.593,52.779C11.811,52.611 11.973,52.361 12.079,52.03L12.079,52.03Z" style="fill:rgb(158,161,168);fill-rule:nonzero;"/>
            <path id="path1626" d="M15.911,53.788L14.839,53.788L13.964,48.907L14.966,48.907L15.585,52.6L17.606,48.907L18.602,48.907L15.911,53.788Z" style="fill:rgb(158,161,168);fill-rule:nonzero;"/>
            <path id="path1628" d="M19.873,53.788L20.896,48.907L21.898,48.907L20.879,53.788L19.873,53.788Z" style="fill:rgb(158,161,168);fill-rule:nonzero;"/>
            <path id="path1630" d="M25.71,53.788L24.774,53.788L23.456,50.509L22.77,53.788L21.834,53.788L22.853,48.907L23.792,48.907L25.114,52.173L25.796,48.907L26.729,48.907L25.71,53.788Z" style="fill:rgb(158,161,168);fill-rule:nonzero;"/>
        </g>
        <g id="text1459" transform="matrix(0.705712,0,0,1.41701,0.999999,0)">
            <path id="path1563" d="M13.865,122.01L14.904,122.177C14.732,122.639 14.479,122.991 14.144,123.231C13.809,123.472 13.42,123.593 12.978,123.593C12.474,123.593 12.075,123.442 11.779,123.142C11.484,122.842 11.336,122.428 11.336,121.902C11.336,121.472 11.425,121.066 11.604,120.684C11.783,120.302 12.052,120.001 12.412,119.783C12.772,119.562 13.167,119.452 13.597,119.452C14.063,119.452 14.436,119.573 14.714,119.816C14.992,120.06 15.148,120.38 15.183,120.777L14.166,120.885C14.142,120.664 14.073,120.502 13.962,120.397C13.852,120.293 13.708,120.241 13.53,120.241C13.323,120.241 13.131,120.318 12.952,120.472C12.774,120.626 12.636,120.857 12.539,121.165C12.445,121.47 12.397,121.757 12.397,122.025C12.397,122.258 12.455,122.438 12.569,122.565C12.683,122.691 12.826,122.755 12.997,122.755C13.168,122.755 13.333,122.693 13.492,122.569C13.651,122.444 13.775,122.258 13.865,122.01L13.865,122.01Z" style="fill:rgb(158,161,168);fill-rule:nonzero;"/>
            <path id="path1566" d="M17.406,123.5L16.486,123.5L15.693,119.545L16.743,119.545L17.023,121.269C17.1,121.736 17.146,122.046 17.161,122.2C17.18,122.158 17.266,121.998 17.417,121.719C17.571,121.439 17.666,121.27 17.701,121.213L18.684,119.545L19.838,119.545L17.406,123.5Z" style="fill:rgb(158,161,168);fill-rule:nonzero;"/>
        </g>
        <g id="text1463" transform="matrix(0.688941,0,0,1.4515,1,0)">
            <path id="path1462" d="M57.721,116.704L58.71,116.704L58.626,117.1C58.837,116.925 59.035,116.801 59.219,116.726C59.403,116.65 59.601,116.613 59.812,116.613C60.216,116.613 60.541,116.752 60.786,117.031C61.033,117.31 61.157,117.725 61.157,118.278C61.157,118.974 60.945,119.561 60.52,120.041C60.157,120.451 59.727,120.656 59.23,120.656C58.718,120.656 58.332,120.448 58.07,120.034L57.652,122.037L56.609,122.037L57.721,116.704ZM58.35,118.918C58.35,119.218 58.423,119.452 58.568,119.619C58.716,119.784 58.889,119.867 59.088,119.867C59.26,119.867 59.426,119.805 59.586,119.681C59.746,119.555 59.878,119.348 59.982,119.06C60.089,118.769 60.142,118.5 60.142,118.252C60.142,117.964 60.073,117.743 59.935,117.591C59.797,117.436 59.621,117.358 59.408,117.358C59.209,117.358 59.027,117.43 58.863,117.573C58.7,117.713 58.574,117.922 58.485,118.198C58.395,118.472 58.35,118.712 58.35,118.918L58.35,118.918Z" style="fill:rgb(158,161,168);fill-rule:nonzero;"/>
            <path id="path1464" d="M65.258,118.958L62.64,118.958C62.638,118.999 62.636,119.03 62.636,119.052C62.636,119.309 62.709,119.516 62.855,119.674C63.002,119.832 63.182,119.91 63.393,119.91C63.739,119.91 64.009,119.731 64.203,119.372L65.138,119.529C64.956,119.904 64.712,120.187 64.407,120.376C64.104,120.562 63.763,120.656 63.385,120.656C62.867,120.656 62.445,120.492 62.12,120.165C61.795,119.835 61.633,119.4 61.633,118.86C61.633,118.331 61.78,117.861 62.073,117.449C62.473,116.892 63.044,116.613 63.785,116.613C64.258,116.613 64.634,116.759 64.912,117.053C65.191,117.344 65.33,117.752 65.33,118.278C65.33,118.53 65.306,118.757 65.258,118.958L65.258,118.958ZM64.378,118.322C64.38,118.275 64.381,118.24 64.381,118.216C64.381,117.93 64.317,117.716 64.189,117.573C64.06,117.43 63.888,117.358 63.673,117.358C63.457,117.358 63.263,117.439 63.091,117.602C62.921,117.764 62.806,118.004 62.745,118.322L64.378,118.322Z" style="fill:rgb(158,161,168);fill-rule:nonzero;"/>
            <path id="path1466" d="M66.392,116.704L67.366,116.704L67.21,117.453C67.574,116.893 67.967,116.613 68.392,116.613C68.542,116.613 68.703,116.65 68.875,116.726L68.475,117.58C68.381,117.546 68.28,117.529 68.173,117.529C67.994,117.529 67.811,117.597 67.624,117.733C67.44,117.868 67.296,118.05 67.192,118.278C67.088,118.503 66.985,118.862 66.883,119.354L66.628,120.565L65.585,120.565L66.392,116.704Z" style="fill:rgb(158,161,168);fill-rule:nonzero;"/>
            <path id="path1468" d="M69.649,115.235L70.693,115.235L70.497,116.18L69.453,116.18L69.649,115.235ZM69.344,116.704L70.387,116.704L69.58,120.565L68.537,120.565L69.344,116.704Z" style="fill:rgb(158,161,168);fill-rule:nonzero;"/>
            <path id="path1490" d="M70.755,118.961C70.755,118.246 70.956,117.677 71.358,117.253C71.763,116.826 72.294,116.613 72.951,116.613C73.52,116.613 73.965,116.77 74.285,117.085C74.605,117.398 74.765,117.82 74.765,118.351C74.765,118.976 74.565,119.516 74.165,119.972C73.765,120.428 73.229,120.656 72.558,120.656C72.194,120.656 71.872,120.583 71.591,120.437C71.31,120.292 71.1,120.086 70.962,119.819C70.824,119.553 70.755,119.267 70.755,118.961L70.755,118.961ZM73.729,118.216C73.729,117.969 73.656,117.771 73.51,117.624C73.367,117.473 73.182,117.398 72.954,117.398C72.729,117.398 72.529,117.468 72.354,117.609C72.18,117.747 72.044,117.95 71.947,118.216C71.85,118.48 71.802,118.724 71.802,118.947C71.802,119.223 71.877,119.443 72.027,119.605C72.177,119.767 72.366,119.848 72.594,119.848C72.88,119.848 73.12,119.726 73.314,119.481C73.59,119.135 73.728,118.713 73.728,118.216L73.729,118.216Z" style="fill:rgb(158,161,168);fill-rule:nonzero;"/>
            <path id="path1559" d="M78.72,120.565L77.731,120.565L77.819,120.147C77.63,120.328 77.443,120.459 77.259,120.539C77.077,120.617 76.871,120.656 76.641,120.656C76.241,120.656 75.916,120.52 75.666,120.248C75.419,119.975 75.295,119.571 75.295,119.038C75.295,118.42 75.47,117.861 75.819,117.362C76.168,116.862 76.63,116.613 77.204,116.613C77.723,116.613 78.112,116.819 78.371,117.231L78.789,115.235L79.833,115.235L78.72,120.565ZM76.31,118.994C76.31,119.27 76.379,119.486 76.517,119.641C76.658,119.796 76.83,119.874 77.033,119.874C77.222,119.874 77.398,119.81 77.56,119.681C77.725,119.55 77.856,119.352 77.953,119.085C78.052,118.818 78.102,118.563 78.102,118.318C78.102,118.039 78.027,117.814 77.877,117.642C77.726,117.47 77.553,117.384 77.357,117.384C77.051,117.384 76.801,117.553 76.604,117.893C76.408,118.232 76.31,118.599 76.31,118.994L76.31,118.994Z" style="fill:rgb(158,161,168);fill-rule:nonzero;"/>
        </g>
        <g id="text1463-9" transform="matrix(0.732339,0,0,1.36549,2,2)">
            <path id="path1581" d="M34.82,135.879C34.82,135.119 35.034,134.513 35.461,134.063C35.892,133.609 36.456,133.382 37.154,133.382C37.76,133.382 38.232,133.55 38.572,133.885C38.913,134.217 39.083,134.665 39.083,135.23C39.083,135.894 38.87,136.469 38.445,136.953C38.02,137.438 37.45,137.68 36.737,137.68C36.35,137.68 36.008,137.602 35.709,137.448C35.41,137.293 35.187,137.074 35.04,136.791C34.893,136.508 34.82,136.203 34.82,135.879ZM37.981,135.087C37.981,134.824 37.904,134.614 37.749,134.457C37.597,134.297 37.4,134.217 37.158,134.217C36.918,134.217 36.706,134.292 36.52,134.441C36.335,134.588 36.191,134.803 36.088,135.087C35.984,135.367 35.933,135.626 35.933,135.863C35.933,136.157 36.013,136.39 36.173,136.563C36.332,136.736 36.533,136.822 36.775,136.822C37.079,136.822 37.334,136.692 37.541,136.432C37.834,136.063 37.981,135.615 37.981,135.087L37.981,135.087Z" style="fill:rgb(158,161,168);fill-rule:nonzero;"/>
            <path id="path1583" d="M40.346,133.479L41.455,133.479L40.949,135.91C40.887,136.201 40.856,136.383 40.856,136.455C40.856,136.573 40.9,136.675 40.988,136.76C41.075,136.845 41.187,136.888 41.324,136.888C41.422,136.888 41.519,136.869 41.614,136.833C41.709,136.795 41.807,136.738 41.908,136.663C42.008,136.586 42.098,136.498 42.178,136.401C42.258,136.303 42.333,136.174 42.402,136.014C42.451,135.896 42.504,135.702 42.561,135.434L42.97,133.479L44.079,133.479L43.222,137.583L42.186,137.583L42.302,137.027C41.848,137.462 41.355,137.68 40.822,137.68C40.484,137.68 40.219,137.583 40.025,137.39C39.832,137.197 39.736,136.938 39.736,136.613C39.736,136.471 39.779,136.189 39.867,135.767L40.346,133.479Z" style="fill:rgb(158,161,168);fill-rule:nonzero;"/>
            <path id="path1585" d="M44.613,134.302L44.783,133.479L45.324,133.479L45.459,132.822L46.731,132.057L46.433,133.479L47.109,133.479L46.939,134.302L46.259,134.302L45.9,136.022C45.835,136.334 45.803,136.511 45.803,136.555C45.803,136.64 45.83,136.707 45.884,136.756C45.938,136.803 46.036,136.826 46.178,136.826C46.227,136.826 46.349,136.817 46.545,136.798L46.371,137.622C46.181,137.66 45.985,137.68 45.784,137.68C45.392,137.68 45.108,137.605 44.93,137.455C44.752,137.303 44.663,137.093 44.663,136.826C44.663,136.699 44.711,136.408 44.806,135.952L45.15,134.302L44.613,134.302Z" style="fill:rgb(158,161,168);fill-rule:nonzero;"/>
        </g>
        <g id="g1602" transform="matrix(0.705712,0,0,1.41701,0.999999,174)">
            <path id="path1588" d="M13.865,122.01L14.904,122.177C14.732,122.639 14.479,122.991 14.144,123.231C13.809,123.472 13.42,123.593 12.978,123.593C12.474,123.593 12.075,123.442 11.779,123.142C11.484,122.842 11.336,122.428 11.336,121.902C11.336,121.472 11.425,121.066 11.604,120.684C11.783,120.302 12.052,120.001 12.412,119.783C12.772,119.562 13.167,119.452 13.597,119.452C14.063,119.452 14.436,119.573 14.714,119.816C14.992,120.06 15.148,120.38 15.183,120.777L14.166,120.885C14.142,120.664 14.073,120.502 13.962,120.397C13.852,120.293 13.708,120.241 13.53,120.241C13.323,120.241 13.131,120.318 12.952,120.472C12.774,120.626 12.636,120.857 12.539,121.165C12.445,121.47 12.397,121.757 12.397,122.025C12.397,122.258 12.455,122.438 12.569,122.565C12.683,122.691 12.826,122.755 12.997,122.755C13.168,122.755 13.333,122.693 13.492,122.569C13.651,122.444 13.775,122.258 13.865,122.01L13.865,122.01Z" style="fill:rgb(158,161,168);fill-rule:nonzero;"/>
            <path id="path1600" d="M17.406,123.5L16.486,123.5L15.693,119.545L16.743,119.545L17.023,121.269C17.1,121.736 17.146,122.046 17.161,122.2C17.18,122.158 17.266,121.998 17.417,121.719C17.571,121.439 17.666,121.27 17.701,121.213L18.684,119.545L19.838,119.545L17.406,123.5Z" style="fill:rgb(158,161,168);fill-rule:nonzero;"/>
        </g>
        <g id="g1639" transform="matrix(0.688941,0,0,1.4515,1,174)">
            <path id="path1605" d="M57.721,116.704L58.71,116.704L58.626,117.1C58.837,116.925 59.035,116.801 59.219,116.726C59.403,116.65 59.601,116.613 59.812,116.613C60.216,116.613 60.541,116.752 60.786,117.031C61.033,117.31 61.157,117.725 61.157,118.278C61.157,118.974 60.945,119.561 60.52,120.041C60.157,120.451 59.727,120.656 59.23,120.656C58.718,120.656 58.332,120.448 58.07,120.034L57.652,122.037L56.609,122.037L57.721,116.704ZM58.35,118.918C58.35,119.218 58.423,119.452 58.568,119.619C58.716,119.784 58.889,119.867 59.088,119.867C59.26,119.867 59.426,119.805 59.586,119.681C59.746,119.555 59.878,119.348 59.982,119.06C60.089,118.769 60.142,118.5 60.142,118.252C60.142,117.964 60.073,117.743 59.935,117.591C59.797,117.436 59.621,117.358 59.408,117.358C59.209,117.358 59.027,117.43 58.863,117.573C58.7,117.713 58.574,117.922 58.485,118.198C58.395,118.472 58.35,118.712 58.35,118.918L58.35,118.918Z" style="fill:rgb(158,161,168);fill-rule:nonzero;"/>
            <path id="path1620" d="M65.258,118.958L62.64,118.958C62.638,118.999 62.636,119.03 62.636,119.052C62.636,119.309 62.709,119.516 62.855,119.674C63.002,119.832 63.182,119.91 63.393,119.91C63.739,119.91 64.009,119.731 64.203,119.372L65.138,119.529C64.956,119.904 64.712,120.187 64.407,120.376C64.104,120.562 63.763,120.656 63.385,120.656C62.867,120.656 62.445,120.492 62.12,120.165C61.795,119.835 61.633,119.4 61.633,118.86C61.633,118.331 61.78,117.861 62.073,117.449C62.473,116.892 63.044,116.613 63.785,116.613C64.258,116.613 64.634,116.759 64.912,117.053C65.191,117.344 65.33,117.752 65.33,118.278C65.33,118.53 65.306,118.757 65.258,118.958L65.258,118.958ZM64.378,118.322C64.38,118.275 64.381,118.24 64.381,118.216C64.381,117.93 64.317,117.716 64.189,117.573C64.06,117.43 63.888,117.358 63.673,117.358C63.457,117.358 63.263,117.439 63.091,117.602C62.921,117.764 62.806,118.004 62.745,118.322L64.378,118.322Z" style="fill:rgb(158,161,168);fill-rule:nonzero;"/>
            <path id="path1622" d="M66.392,116.704L67.366,116.704L67.21,117.453C67.574,116.893 67.967,116.613 68.392,116.613C68.542,116.613 68.703,116.65 68.875,116.726L68.475,117.58C68.381,117.546 68.28,117.529 68.173,117.529C67.994,117.529 67.811,117.597 67.624,117.733C67.44,117.868 67.296,118.05 67.192,118.278C67.088,118.503 66.985,118.862 66.883,119.354L66.628,120.565L65.585,120.565L66.392,116.704Z" style="fill:rgb(158,161,168);fill-rule:nonzero;"/>
            <path id="path1632" d="M69.649,115.235L70.693,115.235L70.497,116.18L69.453,116.18L69.649,115.235ZM69.344,116.704L70.387,116.704L69.58,120.565L68.537,120.565L69.344,116.704Z" style="fill:rgb(158,161,168);fill-rule:nonzero;"/>
            <path id="path1635" d="M70.755,118.961C70.755,118.246 70.956,117.677 71.358,117.253C71.763,116.826 72.294,116.613 72.951,116.613C73.52,116.613 73.965,116.77 74.285,117.085C74.605,117.398 74.765,117.82 74.765,118.351C74.765,118.976 74.565,119.516 74.165,119.972C73.765,120.428 73.229,120.656 72.558,120.656C72.194,120.656 71.872,120.583 71.591,120.437C71.31,120.292 71.1,120.086 70.962,119.819C70.824,119.553 70.755,119.267 70.755,118.961L70.755,118.961ZM73.729,118.216C73.729,117.969 73.656,117.771 73.51,117.624C73.367,117.473 73.182,117.398 72.954,117.398C72.729,117.398 72.529,117.468 72.354,117.609C72.18,117.747 72.044,117.95 71.947,118.216C71.85,118.48 71.802,118.724 71.802,118.947C71.802,119.223 71.877,119.443 72.027,119.605C72.177,119.767 72.366,119.848 72.594,119.848C72.88,119.848 73.12,119.726 73.314,119.481C73.59,119.135 73.728,118.713 73.728,118.216L73.729,118.216Z" style="fill:rgb(158,161,168);fill-rule:nonzero;"/>
            <path id="path1637" d="M78.72,120.565L77.731,120.565L77.819,120.147C77.63,120.328 77.443,120.459 77.259,120.539C77.077,120.617 76.871,120.656 76.641,120.656C76.241,120.656 75.916,120.52 75.666,120.248C75.419,119.975 75.295,119.571 75.295,119.038C75.295,118.42 75.47,117.861 75.819,117.362C76.168,116.862 76.63,116.613 77.204,116.613C77.723,116.613 78.112,116.819 78.371,117.231L78.789,115.235L79.833,115.235L78.72,120.565ZM76.31,118.994C76.31,119.27 76.379,119.486 76.517,119.641C76.658,119.796 76.83,119.874 77.033,119.874C77.222,119.874 77.398,119.81 77.56,119.681C77.725,119.55 77.856,119.352 77.953,119.085C78.052,118.818 78.102,118.563 78.102,118.318C78.102,118.039 78.027,117.814 77.877,117.642C77.726,117.47 77.553,117.384 77.357,117.384C77.051,117.384 76.801,117.553 76.604,117.893C76.408,118.232 76.31,118.599 76.31,118.994L76.31,118.994Z" style="fill:rgb(158,161,168);fill-rule:nonzero;"/>
        </g>
        <g id="g1647" transform="matrix(0.732339,0,0,1.36549,2,176)">
            <path id="path1641" d="M34.82,135.879C34.82,135.119 35.034,134.513 35.461,134.063C35.892,133.609 36.456,133.382 37.154,133.382C37.76,133.382 38.232,133.55 38.572,133.885C38.913,134.217 39.083,134.665 39.083,135.23C39.083,135.894 38.87,136.469 38.445,136.953C38.02,137.438 37.45,137.68 36.737,137.68C36.35,137.68 36.008,137.602 35.709,137.448C35.41,137.293 35.187,137.074 35.04,136.791C34.893,136.508 34.82,136.203 34.82,135.879ZM37.981,135.087C37.981,134.824 37.904,134.614 37.749,134.457C37.597,134.297 37.4,134.217 37.158,134.217C36.918,134.217 36.706,134.292 36.52,134.441C36.335,134.588 36.191,134.803 36.088,135.087C35.984,135.367 35.933,135.626 35.933,135.863C35.933,136.157 36.013,136.39 36.173,136.563C36.332,136.736 36.533,136.822 36.775,136.822C37.079,136.822 37.334,136.692 37.541,136.432C37.834,136.063 37.981,135.615 37.981,135.087L37.981,135.087Z" style="fill:rgb(158,161,168);fill-rule:nonzero;"/>
            <path id="path1643" d="M40.346,133.479L41.455,133.479L40.949,135.91C40.887,136.201 40.856,136.383 40.856,136.455C40.856,136.573 40.9,136.675 40.988,136.76C41.075,136.845 41.187,136.888 41.324,136.888C41.422,136.888 41.519,136.869 41.614,136.833C41.709,136.795 41.807,136.738 41.908,136.663C42.008,136.586 42.098,136.498 42.178,136.401C42.258,136.303 42.333,136.174 42.402,136.014C42.451,135.896 42.504,135.702 42.561,135.434L42.97,133.479L44.079,133.479L43.222,137.583L42.186,137.583L42.302,137.027C41.848,137.462 41.355,137.68 40.822,137.68C40.484,137.68 40.219,137.583 40.025,137.39C39.832,137.197 39.736,136.938 39.736,136.613C39.736,136.471 39.779,136.189 39.867,135.767L40.346,133.479Z" style="fill:rgb(158,161,168);fill-rule:nonzero;"/>
            <path id="path1645" d="M44.613,134.302L44.783,133.479L45.324,133.479L45.459,132.822L46.731,132.057L46.433,133.479L47.109,133.479L46.939,134.302L46.259,134.302L45.9,136.022C45.835,136.334 45.803,136.511 45.803,136.555C45.803,136.64 45.83,136.707 45.884,136.756C45.938,136.803 46.036,136.826 46.178,136.826C46.227,136.826 46.349,136.817 46.545,136.798L46.371,137.622C46.181,137.66 45.985,137.68 45.784,137.68C45.392,137.68 45.108,137.605 44.93,137.455C44.752,137.303 44.663,137.093 44.663,136.826C44.663,136.699 44.711,136.408 44.806,135.952L45.15,134.302L44.613,134.302Z" style="fill:rgb(158,161,168);fill-rule:nonzero;"/>
        </g>
    </g>
</svg>
