<?xml version="1.0" encoding="UTF-8" standalone="no"?>
<!DOCTYPE svg PUBLIC "-//W3C//DTD SVG 1.1//EN" "http://www.w3.org/Graphics/SVG/1.1/DTD/svg11.dtd">
<svg width="100%" height="100%" viewBox="0 0 90 380" version="1.1" xmlns="http://www.w3.org/2000/svg" xmlns:xlink="http://www.w3.org/1999/xlink" xml:space="preserve" xmlns:serif="http://www.serif.com/" style="fill-rule:evenodd;clip-rule:evenodd;">
    <g id="Layer-2" serif:id="Layer 2">
        <g id="text989">
        </g>
        <rect id="rect4689" x="0" y="0" width="90" height="380" style="fill:rgb(183,196,200);fill-rule:nonzero;"/>
        <rect id="rect4689-7" x="0" y="0" width="90" height="380" style="fill:url(#_Linear1);"/>
        <g id="text4987">
        </g>
        <g id="text1042">
        </g>
        <g id="text2090">
        </g>
        <g id="text1132" transform="matrix(0.609672,0,0,1.31561,0,74.8088)">
            <path id="path1217" d="M6.282,230.32L5.161,230.32L3.582,226.393L2.761,230.32L1.64,230.32L2.86,224.475L3.985,224.475L5.568,228.386L6.385,224.475L7.502,224.475L6.282,230.32Z" style="fill:rgb(36,100,211);fill-rule:nonzero;"/>
            <path id="path1226" d="M10.448,230.32L9.248,230.32L9.723,228.044L8.112,224.475L9.392,224.475L10.117,226.126C10.29,226.522 10.406,226.807 10.464,226.983C10.563,226.81 10.677,226.627 10.807,226.433L11.362,225.659L12.187,224.475L13.582,224.475L10.903,228.155L10.448,230.32Z" style="fill:rgb(36,100,211);fill-rule:nonzero;"/>
            <path id="path1235" d="M13.148,228.426L14.292,228.367C14.308,228.731 14.371,228.977 14.48,229.104C14.655,229.312 14.979,229.415 15.453,229.415C15.846,229.415 16.13,229.345 16.306,229.204C16.481,229.063 16.569,228.893 16.569,228.693C16.569,228.521 16.497,228.374 16.354,228.255C16.253,228.167 15.975,228.025 15.52,227.828C15.068,227.632 14.738,227.468 14.528,227.338C14.32,227.205 14.157,227.033 14.037,226.823C13.917,226.613 13.858,226.367 13.858,226.086C13.858,225.594 14.036,225.186 14.392,224.862C14.748,224.537 15.264,224.375 15.939,224.375C16.625,224.375 17.155,224.536 17.53,224.858C17.908,225.179 18.115,225.607 18.152,226.142L17,226.193C16.97,225.914 16.869,225.7 16.697,225.551C16.524,225.403 16.269,225.328 15.931,225.328C15.599,225.328 15.361,225.387 15.217,225.504C15.076,225.621 15.006,225.768 15.006,225.946C15.006,226.114 15.071,226.252 15.201,226.361C15.332,226.473 15.62,226.625 16.067,226.819C16.739,227.109 17.167,227.344 17.351,227.525C17.624,227.791 17.761,228.133 17.761,228.55C17.761,229.066 17.557,229.507 17.147,229.874C16.741,230.238 16.173,230.42 15.445,230.42C14.942,230.42 14.506,230.336 14.137,230.169C13.77,229.999 13.511,229.763 13.359,229.463C13.208,229.163 13.137,228.817 13.148,228.426L13.148,228.426Z" style="fill:rgb(36,100,211);fill-rule:nonzero;"/>
            <path id="path1242" d="M20.963,230.32L19.759,230.32L20.78,225.452L19.065,225.452L19.269,224.475L23.874,224.475L23.671,225.452L21.98,225.452L20.963,230.32Z" style="fill:rgb(36,100,211);fill-rule:nonzero;"/>
            <path id="path1255" d="M27.443,227.709L25.182,227.709L24.636,230.32L23.431,230.32L24.656,224.475L25.856,224.475L25.385,226.732L27.646,226.732L28.121,224.475L29.321,224.475L28.101,230.32L26.896,230.32L27.443,227.709Z" style="fill:rgb(36,100,211);fill-rule:nonzero;"/>
            <path id="path1261" d="M29.261,230.32L30.485,224.475L31.685,224.475L30.465,230.32L29.261,230.32Z" style="fill:rgb(36,100,211);fill-rule:nonzero;"/>
            <path id="path1263" d="M38.448,227.776L39.273,228.271C39.196,228.42 39.095,228.582 38.97,228.757C38.848,228.93 38.734,229.066 38.627,229.164C38.779,229.326 38.973,229.507 39.21,229.706L38.488,230.456C38.397,230.408 38.282,230.327 38.141,230.213C38.003,230.098 37.886,229.991 37.79,229.89C37.599,230.041 37.358,230.167 37.068,230.268C36.779,230.369 36.466,230.42 36.131,230.42C35.525,230.42 35.049,230.261 34.704,229.942C34.358,229.62 34.185,229.226 34.185,228.761C34.185,228.466 34.253,228.192 34.389,227.94C34.527,227.685 34.705,227.467 34.923,227.286C35.08,227.156 35.335,226.996 35.689,226.807C35.516,226.433 35.429,226.106 35.429,225.827C35.429,225.417 35.578,225.073 35.876,224.794C36.176,224.515 36.571,224.375 37.06,224.375C37.48,224.375 37.813,224.487 38.057,224.71C38.304,224.931 38.428,225.19 38.428,225.488C38.428,225.74 38.322,226.014 38.109,226.309C37.899,226.601 37.552,226.87 37.068,227.114C37.22,227.37 37.409,227.662 37.635,227.992C37.77,228.194 37.879,228.339 37.961,228.426C38.097,228.291 38.259,228.074 38.448,227.776ZM36.654,226.333C36.967,226.173 37.188,226.013 37.316,225.85C37.406,225.733 37.451,225.615 37.451,225.496C37.451,225.387 37.414,225.298 37.339,225.228C37.268,225.157 37.168,225.121 37.04,225.121C36.881,225.121 36.748,225.177 36.642,225.288C36.535,225.397 36.482,225.541 36.482,225.719C36.482,225.889 36.539,226.094 36.654,226.333L36.654,226.333ZM36.103,227.613C35.577,227.876 35.314,228.223 35.314,228.654C35.314,228.898 35.392,229.099 35.549,229.256C35.706,229.413 35.915,229.491 36.175,229.491C36.491,229.491 36.817,229.381 37.152,229.16C36.751,228.671 36.401,228.155 36.103,227.613Z" style="fill:rgb(36,100,211);fill-rule:nonzero;"/>
            <path id="path1265" d="M42.029,230.32L43.253,224.475L44.828,224.475C45.266,224.475 45.547,224.481 45.669,224.495C45.911,224.519 46.126,224.568 46.315,224.642C46.506,224.717 46.679,224.822 46.833,224.957C46.99,225.09 47.125,225.251 47.236,225.44C47.35,225.629 47.438,225.847 47.499,226.094C47.56,226.338 47.591,226.607 47.591,226.899C47.591,227.529 47.47,228.089 47.228,228.578C46.989,229.064 46.687,229.451 46.323,229.738C46.044,229.962 45.684,230.126 45.242,230.233C44.993,230.291 44.608,230.32 44.09,230.32L42.029,230.32ZM43.428,229.379L44.038,229.379C44.48,229.379 44.799,229.353 44.995,229.3C45.195,229.244 45.377,229.141 45.542,228.993C45.778,228.777 45.977,228.49 46.14,228.131C46.302,227.772 46.383,227.35 46.383,226.863C46.383,226.449 46.315,226.138 46.18,225.93C46.047,225.72 45.882,225.581 45.685,225.512C45.547,225.464 45.301,225.44 44.947,225.44L44.25,225.44L43.428,229.379Z" style="fill:rgb(36,100,211);fill-rule:nonzero;"/>
            <path id="path1268" d="M47.858,230.32L49.082,224.475L50.283,224.475L49.062,230.32L47.858,230.32Z" style="fill:rgb(36,100,211);fill-rule:nonzero;"/>
            <path id="path1270" d="M50.358,228.426L51.503,228.367C51.519,228.731 51.581,228.977 51.69,229.104C51.866,229.312 52.19,229.415 52.663,229.415C53.056,229.415 53.341,229.345 53.516,229.204C53.692,229.063 53.78,228.893 53.78,228.693C53.78,228.521 53.708,228.374 53.564,228.255C53.463,228.167 53.185,228.025 52.731,227.828C52.279,227.632 51.948,227.468 51.738,227.338C51.531,227.205 51.367,227.033 51.248,226.823C51.128,226.613 51.068,226.367 51.068,226.086C51.068,225.594 51.246,225.186 51.602,224.862C51.959,224.537 52.474,224.375 53.149,224.375C53.835,224.375 54.366,224.536 54.74,224.858C55.118,225.179 55.325,225.607 55.362,226.142L54.21,226.193C54.181,225.914 54.08,225.7 53.907,225.551C53.734,225.403 53.479,225.328 53.142,225.328C52.809,225.328 52.571,225.387 52.428,225.504C52.287,225.621 52.216,225.768 52.216,225.946C52.216,226.114 52.282,226.252 52.412,226.361C52.542,226.473 52.831,226.625 53.277,226.819C53.95,227.109 54.378,227.344 54.561,227.525C54.835,227.791 54.972,228.133 54.972,228.55C54.972,229.066 54.767,229.507 54.358,229.874C53.951,230.238 53.383,230.42 52.655,230.42C52.153,230.42 51.717,230.336 51.347,230.169C50.98,229.999 50.721,229.763 50.57,229.463C50.418,229.163 50.348,228.817 50.358,228.426L50.358,228.426Z" style="fill:rgb(36,100,211);fill-rule:nonzero;"/>
            <path id="path1272" d="M55.813,228.426L56.957,228.367C56.973,228.731 57.036,228.977 57.145,229.104C57.32,229.312 57.645,229.415 58.118,229.415C58.511,229.415 58.796,229.345 58.971,229.204C59.147,229.063 59.234,228.893 59.234,228.693C59.234,228.521 59.163,228.374 59.019,228.255C58.918,228.167 58.64,228.025 58.186,227.828C57.734,227.632 57.403,227.468 57.193,227.338C56.985,227.205 56.822,227.033 56.702,226.823C56.583,226.613 56.523,226.367 56.523,226.086C56.523,225.594 56.701,225.186 57.057,224.862C57.413,224.537 57.929,224.375 58.604,224.375C59.29,224.375 59.82,224.536 60.195,224.858C60.573,225.179 60.78,225.607 60.817,226.142L59.665,226.193C59.636,225.914 59.535,225.7 59.362,225.551C59.189,225.403 58.934,225.328 58.596,225.328C58.264,225.328 58.026,225.387 57.883,225.504C57.742,225.621 57.671,225.768 57.671,225.946C57.671,226.114 57.736,226.252 57.867,226.361C57.997,226.473 58.285,226.625 58.732,226.819C59.404,227.109 59.832,227.344 60.016,227.525C60.29,227.791 60.427,228.133 60.427,228.55C60.427,229.066 60.222,229.507 59.812,229.874C59.406,230.238 58.838,230.42 58.11,230.42C57.607,230.42 57.171,230.336 56.802,230.169C56.435,229.999 56.176,229.763 56.024,229.463C55.873,229.163 55.802,228.817 55.813,228.426L55.813,228.426Z" style="fill:rgb(36,100,211);fill-rule:nonzero;"/>
            <path id="path1274" d="M61.463,228.028C61.463,227.682 61.515,227.318 61.619,226.935C61.754,226.422 61.96,225.977 62.237,225.599C62.516,225.222 62.867,224.924 63.289,224.706C63.712,224.485 64.193,224.375 64.733,224.375C65.456,224.375 66.039,224.6 66.483,225.049C66.93,225.498 67.153,226.094 67.153,226.835C67.153,227.452 67.008,228.049 66.719,228.626C66.429,229.202 66.035,229.646 65.538,229.957C65.041,230.268 64.479,230.424 63.852,230.424C63.307,230.424 62.85,230.3 62.48,230.053C62.111,229.806 61.849,229.5 61.695,229.136C61.54,228.769 61.463,228.4 61.463,228.028L61.463,228.028ZM62.651,228.004C62.651,228.405 62.774,228.741 63.018,229.013C63.263,229.284 63.585,229.419 63.983,229.419C64.308,229.419 64.619,229.313 64.916,229.1C65.217,228.885 65.464,228.561 65.658,228.127C65.855,227.691 65.953,227.267 65.953,226.855C65.953,226.395 65.829,226.035 65.582,225.775C65.335,225.512 65.02,225.38 64.637,225.38C64.05,225.38 63.571,225.654 63.202,226.201C62.835,226.749 62.651,227.35 62.651,228.004L62.651,228.004Z" style="fill:rgb(36,100,211);fill-rule:nonzero;"/>
            <path id="path1276" d="M71.667,228.215L72.879,228.398C72.643,229.055 72.288,229.557 71.815,229.906C71.341,230.251 70.787,230.424 70.152,230.424C69.437,230.424 68.877,230.209 68.473,229.778C68.072,229.347 67.871,228.723 67.871,227.904C67.871,227.239 68.005,226.632 68.274,226.082C68.545,225.529 68.92,225.106 69.398,224.814C69.877,224.521 70.398,224.375 70.961,224.375C71.594,224.375 72.106,224.545 72.496,224.885C72.887,225.223 73.117,225.684 73.186,226.269L72.034,226.381C71.97,226.041 71.846,225.795 71.663,225.643C71.482,225.489 71.24,225.412 70.937,225.412C70.605,225.412 70.294,225.513 70.004,225.715C69.717,225.917 69.487,226.233 69.314,226.664C69.142,227.092 69.055,227.52 69.055,227.948C69.055,228.416 69.167,228.777 69.39,229.032C69.616,229.288 69.897,229.415 70.232,229.415C70.543,229.415 70.827,229.314 71.085,229.112C71.345,228.91 71.539,228.611 71.667,228.215L71.667,228.215Z" style="fill:rgb(36,100,211);fill-rule:nonzero;"/>
            <path id="path1278" d="M73.282,230.32L74.506,224.475L75.706,224.475L74.486,230.32L73.282,230.32Z" style="fill:rgb(36,100,211);fill-rule:nonzero;"/>
            <path id="path1281" d="M79.426,229.028L77.11,229.028L76.408,230.32L75.172,230.32L78.477,224.475L79.813,224.475L80.762,230.32L79.622,230.32L79.426,229.028ZM79.279,228.055L78.94,225.703L77.528,228.055L79.279,228.055Z" style="fill:rgb(36,100,211);fill-rule:nonzero;"/>
            <path id="path1283" d="M83.438,230.32L82.234,230.32L83.254,225.452L81.54,225.452L81.743,224.475L86.349,224.475L86.145,225.452L84.455,225.452L83.438,230.32Z" style="fill:rgb(36,100,211);fill-rule:nonzero;"/>
            <path id="path1285" d="M85.886,230.32L87.106,224.475L91.441,224.475L91.237,225.452L88.107,225.452L87.828,226.78L90.854,226.78L90.651,227.756L87.625,227.756L87.258,229.343L90.659,229.343L90.452,230.32L85.886,230.32Z" style="fill:rgb(36,100,211);fill-rule:nonzero;"/>
            <path id="path1287" d="M91.524,228.426L92.669,228.367C92.685,228.731 92.747,228.977 92.856,229.104C93.032,229.312 93.356,229.415 93.829,229.415C94.222,229.415 94.507,229.345 94.682,229.204C94.858,229.063 94.945,228.893 94.945,228.693C94.945,228.521 94.874,228.374 94.73,228.255C94.629,228.167 94.351,228.025 93.897,227.828C93.445,227.632 93.114,227.468 92.904,227.338C92.697,227.205 92.533,227.033 92.413,226.823C92.294,226.613 92.234,226.367 92.234,226.086C92.234,225.594 92.412,225.186 92.768,224.862C93.125,224.537 93.64,224.375 94.315,224.375C95.001,224.375 95.532,224.536 95.906,224.858C96.284,225.179 96.491,225.607 96.528,226.142L95.376,226.193C95.347,225.914 95.246,225.7 95.073,225.551C94.9,225.403 94.645,225.328 94.307,225.328C93.975,225.328 93.737,225.387 93.594,225.504C93.453,225.621 93.382,225.768 93.382,225.946C93.382,226.114 93.448,226.252 93.578,226.361C93.708,226.473 93.996,226.625 94.443,226.819C95.116,227.109 95.544,227.344 95.727,227.525C96.001,227.791 96.138,228.133 96.138,228.55C96.138,229.066 95.933,229.507 95.524,229.874C95.117,230.238 94.549,230.42 93.821,230.42C93.319,230.42 92.883,230.336 92.513,230.169C92.146,229.999 91.887,229.763 91.736,229.463C91.584,229.163 91.514,228.817 91.524,228.426L91.524,228.426Z" style="fill:rgb(36,100,211);fill-rule:nonzero;"/>
            <path id="path1289" d="M99.272,227.661L101.493,227.661L101.261,228.765L99.04,228.765L99.272,227.661Z" style="fill:rgb(36,100,211);fill-rule:nonzero;"/>
            <path id="path1291" d="M104.236,228.426L105.38,228.367C105.396,228.731 105.459,228.977 105.568,229.104C105.743,229.312 106.068,229.415 106.541,229.415C106.934,229.415 107.219,229.345 107.394,229.204C107.57,229.063 107.657,228.893 107.657,228.693C107.657,228.521 107.586,228.374 107.442,228.255C107.341,228.167 107.063,228.025 106.609,227.828C106.157,227.632 105.826,227.468 105.616,227.338C105.408,227.205 105.245,227.033 105.125,226.823C105.006,226.613 104.946,226.367 104.946,226.086C104.946,225.594 105.124,225.186 105.48,224.862C105.836,224.537 106.352,224.375 107.027,224.375C107.713,224.375 108.243,224.536 108.618,224.858C108.996,225.179 109.203,225.607 109.24,226.142L108.088,226.193C108.059,225.914 107.958,225.7 107.785,225.551C107.612,225.403 107.357,225.328 107.019,225.328C106.687,225.328 106.449,225.387 106.306,225.504C106.165,225.621 106.094,225.768 106.094,225.946C106.094,226.114 106.159,226.252 106.29,226.361C106.42,226.473 106.708,226.625 107.155,226.819C107.827,227.109 108.255,227.344 108.439,227.525C108.713,227.791 108.85,228.133 108.85,228.55C108.85,229.066 108.645,229.507 108.235,229.874C107.829,230.238 107.261,230.42 106.533,230.42C106.03,230.42 105.595,230.336 105.225,230.169C104.858,229.999 104.599,229.763 104.447,229.463C104.296,229.163 104.225,228.817 104.236,228.426L104.236,228.426Z" style="fill:rgb(36,100,211);fill-rule:nonzero;"/>
            <path id="path1293" d="M112.761,227.198L115.377,227.198L114.851,229.706C114.542,229.906 114.163,230.074 113.714,230.213C113.268,230.351 112.812,230.42 112.346,230.42C111.623,230.42 111.069,230.257 110.684,229.93C110.157,229.483 109.894,228.836 109.894,227.988C109.894,227.419 110.007,226.874 110.233,226.353C110.504,225.726 110.89,225.239 111.389,224.893C111.889,224.548 112.477,224.375 113.152,224.375C113.827,224.375 114.368,224.532 114.775,224.846C115.184,225.159 115.455,225.617 115.588,226.217L114.468,226.345C114.369,226.015 114.21,225.767 113.989,225.599C113.771,225.432 113.496,225.348 113.164,225.348C112.776,225.348 112.42,225.449 112.095,225.651C111.771,225.853 111.517,226.165 111.334,226.588C111.15,227.011 111.058,227.472 111.058,227.972C111.058,228.463 111.17,228.828 111.393,229.064C111.617,229.298 111.944,229.415 112.374,229.415C112.632,229.415 112.897,229.379 113.168,229.308C113.439,229.233 113.673,229.145 113.87,229.044L114.049,228.175L112.558,228.175L112.761,227.198Z" style="fill:rgb(36,100,211);fill-rule:nonzero;"/>
            <path id="path1295" d="M119.683,229.028L117.367,229.028L116.665,230.32L115.429,230.32L118.734,224.475L120.07,224.475L121.019,230.32L119.879,230.32L119.683,229.028ZM119.536,228.055L119.197,225.703L117.785,228.055L119.536,228.055Z" style="fill:rgb(36,100,211);fill-rule:nonzero;"/>
            <path id="path1297" d="M125.991,228.215L127.204,228.398C126.967,229.055 126.612,229.557 126.139,229.906C125.666,230.251 125.111,230.424 124.476,230.424C123.761,230.424 123.202,230.209 122.797,229.778C122.396,229.347 122.195,228.723 122.195,227.904C122.195,227.239 122.33,226.632 122.598,226.082C122.869,225.529 123.244,225.106 123.723,224.814C124.201,224.521 124.722,224.375 125.286,224.375C125.918,224.375 126.43,224.545 126.821,224.885C127.212,225.223 127.441,225.684 127.511,226.269L126.358,226.381C126.294,226.041 126.171,225.795 125.987,225.643C125.807,225.489 125.565,225.412 125.262,225.412C124.929,225.412 124.618,225.513 124.329,225.715C124.042,225.917 123.812,226.233 123.639,226.664C123.466,227.092 123.38,227.52 123.38,227.948C123.38,228.416 123.491,228.777 123.715,229.032C123.94,229.288 124.221,229.415 124.556,229.415C124.867,229.415 125.151,229.314 125.409,229.112C125.67,228.91 125.864,228.611 125.991,228.215Z" style="fill:rgb(36,100,211);fill-rule:nonzero;"/>
            <path id="path1299" d="M130.134,227.661L132.355,227.661L132.124,228.765L129.903,228.765L130.134,227.661Z" style="fill:rgb(36,100,211);fill-rule:nonzero;"/>
            <path id="path1301" d="M139.588,230.32L138.468,230.32L136.889,226.393L136.068,230.32L134.947,230.32L136.167,224.475L137.292,224.475L138.875,228.386L139.692,224.475L140.809,224.475L139.588,230.32Z" style="fill:rgb(36,100,211);fill-rule:nonzero;"/>
            <path id="path1303" d="M144.644,229.028L142.328,229.028L141.626,230.32L140.39,230.32L143.695,224.475L145.031,224.475L145.98,230.32L144.84,230.32L144.644,229.028ZM144.497,228.055L144.158,225.703L142.746,228.055L144.497,228.055Z" style="fill:rgb(36,100,211);fill-rule:nonzero;"/>
        </g>
        <rect id="rect1321" x="0" y="0" width="90" height="380" style="fill:rgb(44,45,48);"/>
        <path id="path1051" d="M45.506,40.494L45.506,33.49L49.947,33.49L49.947,40.494L54.388,40.494L54.388,33.49" style="fill:none;stroke:rgb(158,161,168);stroke-width:1.01px;"/>
        <path id="path1055" d="M61.279,40.602L70.401,34.19L70.401,40.602" style="fill:none;stroke:rgb(158,161,168);stroke-width:0.97px;"/>
        <path id="path1057" d="M86.608,40.602L77.486,34.19L77.486,40.602" style="fill:none;stroke:rgb(158,161,168);stroke-width:0.97px;"/>
        <path id="path1070-0" d="M36.389,40.5L33.917,40.5L33.917,32.555L33.917,40.5L31.445,40.5L31.445,32.555L31.445,40.5L28.972,40.5L28.972,32.555L28.972,40.5L26.5,40.5L26.5,32.555L26.5,40.5" style="fill:none;stroke:rgb(158,161,168);stroke-width:1px;"/>
        <g id="text1424" transform="matrix(0.891276,0,0,0.852029,0,7.2182)">
            <path id="path1438" d="M38.079,24.167L39.49,24.38C39.215,25.145 38.801,25.729 38.251,26.135C37.7,26.537 37.054,26.738 36.315,26.738C35.482,26.738 34.831,26.488 34.361,25.986C33.893,25.485 33.66,24.758 33.66,23.805C33.66,23.031 33.816,22.324 34.128,21.683C34.444,21.039 34.88,20.547 35.438,20.207C35.995,19.866 36.601,19.696 37.257,19.696C37.994,19.696 38.589,19.894 39.044,20.29C39.499,20.683 39.767,21.22 39.847,21.901L38.506,22.031C38.432,21.635 38.288,21.349 38.074,21.172C37.864,20.993 37.582,20.903 37.229,20.903C36.843,20.903 36.48,21.021 36.143,21.256C35.809,21.491 35.541,21.859 35.34,22.361C35.139,22.859 35.038,23.357 35.038,23.856C35.038,24.4 35.168,24.821 35.428,25.118C35.691,25.415 36.018,25.564 36.408,25.564C36.77,25.564 37.101,25.446 37.401,25.211C37.704,24.976 37.93,24.628 38.079,24.167Z" style="fill:rgb(158,161,168);fill-rule:nonzero;"/>
            <path id="path1440" d="M40.056,26.618L41.481,19.812L42.879,19.812L41.695,25.48L45.158,25.48L44.921,26.618L40.056,26.618Z" style="fill:rgb(158,161,168);fill-rule:nonzero;"/>
            <path id="path1442" d="M46.272,23.948C46.272,23.546 46.332,23.122 46.453,22.676C46.611,22.079 46.851,21.561 47.173,21.121C47.498,20.682 47.906,20.335 48.398,20.082C48.89,19.825 49.45,19.696 50.079,19.696C50.92,19.696 51.6,19.958 52.116,20.481C52.636,21.004 52.896,21.697 52.896,22.56C52.896,23.278 52.728,23.973 52.39,24.645C52.053,25.316 51.595,25.833 51.016,26.195C50.438,26.557 49.783,26.738 49.053,26.738C48.418,26.738 47.886,26.594 47.456,26.307C47.026,26.019 46.721,25.663 46.541,25.239C46.362,24.812 46.272,24.382 46.272,23.948ZM47.655,23.921C47.655,24.388 47.798,24.779 48.082,25.095C48.367,25.411 48.742,25.568 49.206,25.568C49.583,25.568 49.946,25.445 50.292,25.197C50.642,24.946 50.93,24.569 51.156,24.064C51.385,23.557 51.499,23.063 51.499,22.584C51.499,22.048 51.355,21.629 51.067,21.326C50.78,21.019 50.413,20.866 49.967,20.866C49.283,20.866 48.726,21.185 48.296,21.822C47.869,22.46 47.655,23.159 47.655,23.921L47.655,23.921Z" style="fill:rgb(158,161,168);fill-rule:nonzero;"/>
            <path id="path1455" d="M58.151,24.167L59.562,24.38C59.287,25.145 58.874,25.729 58.323,26.135C57.772,26.537 57.127,26.738 56.387,26.738C55.555,26.738 54.903,26.488 54.433,25.986C53.966,25.485 53.732,24.758 53.732,23.805C53.732,23.031 53.888,22.324 54.201,21.683C54.516,21.039 54.953,20.547 55.51,20.207C56.067,19.866 56.673,19.696 57.329,19.696C58.066,19.696 58.662,19.894 59.117,20.29C59.572,20.683 59.839,21.22 59.92,21.901L58.578,22.031C58.504,21.635 58.36,21.349 58.146,21.172C57.936,20.993 57.654,20.903 57.302,20.903C56.915,20.903 56.553,21.021 56.215,21.256C55.881,21.491 55.613,21.859 55.412,22.361C55.211,22.859 55.111,23.357 55.111,23.856C55.111,24.4 55.241,24.821 55.501,25.118C55.764,25.415 56.09,25.564 56.48,25.564C56.842,25.564 57.173,25.446 57.473,25.211C57.777,24.976 58.003,24.628 58.151,24.167L58.151,24.167Z" style="fill:rgb(158,161,168);fill-rule:nonzero;"/>
            <path id="path1457" d="M60.078,26.618L61.498,19.812L62.9,19.812L62.296,22.704L65.444,19.812L67.319,19.812L64.265,22.482L66.507,26.618L64.924,26.618L63.243,23.377L61.92,24.533L61.484,26.618L60.078,26.618Z" style="fill:rgb(158,161,168);fill-rule:nonzero;"/>
        </g>
        <g id="text1485" transform="matrix(0.409227,0,0,1.50184,1.3934,14.2345)">
            <path id="path1514" d="M2.199,59.525L3.257,59.525L2.673,62.322L2.529,63.011C2.52,63.069 2.515,63.124 2.515,63.176C2.515,63.38 2.589,63.548 2.737,63.682C2.887,63.813 3.103,63.879 3.387,63.879C3.642,63.879 3.853,63.831 4.019,63.735C4.185,63.639 4.314,63.496 4.406,63.306C4.497,63.116 4.59,62.794 4.683,62.34L5.274,59.525L6.331,59.525L5.744,62.343C5.62,62.936 5.477,63.389 5.316,63.703C5.154,64.017 4.909,64.272 4.581,64.469C4.253,64.666 3.839,64.764 3.338,64.764C2.738,64.764 2.279,64.618 1.96,64.325C1.642,64.03 1.482,63.652 1.482,63.19C1.482,63.094 1.491,62.99 1.507,62.877C1.516,62.802 1.557,62.589 1.63,62.238L2.199,59.525Z" style="fill:rgb(158,161,168);fill-rule:nonzero;"/>
            <path id="path1516" d="M6.482,63.007L7.491,62.955C7.505,63.276 7.56,63.492 7.656,63.605C7.81,63.787 8.096,63.879 8.513,63.879C8.86,63.879 9.111,63.817 9.265,63.692C9.42,63.568 9.497,63.418 9.497,63.243C9.497,63.09 9.434,62.962 9.307,62.856C9.218,62.779 8.973,62.654 8.573,62.48C8.175,62.307 7.883,62.163 7.698,62.048C7.515,61.931 7.371,61.78 7.266,61.595C7.16,61.41 7.108,61.193 7.108,60.945C7.108,60.511 7.265,60.152 7.579,59.866C7.892,59.58 8.347,59.437 8.942,59.437C9.546,59.437 10.014,59.579 10.344,59.863C10.676,60.146 10.859,60.523 10.892,60.994L9.876,61.04C9.851,60.794 9.762,60.605 9.609,60.474C9.457,60.343 9.232,60.277 8.935,60.277C8.642,60.277 8.432,60.329 8.306,60.432C8.182,60.535 8.12,60.665 8.12,60.822C8.12,60.969 8.177,61.091 8.292,61.187C8.407,61.286 8.661,61.42 9.054,61.591C9.647,61.847 10.024,62.054 10.186,62.213C10.427,62.448 10.548,62.749 10.548,63.116C10.548,63.571 10.367,63.96 10.006,64.283C9.648,64.604 9.148,64.764 8.506,64.764C8.063,64.764 7.679,64.69 7.354,64.543C7.03,64.393 6.802,64.186 6.668,63.921C6.535,63.656 6.473,63.352 6.482,63.007L6.482,63.007Z" style="fill:rgb(158,161,168);fill-rule:nonzero;"/>
            <path id="path1518" d="M11.127,64.676L12.203,59.525L16.022,59.525L15.843,60.386L13.084,60.386L12.839,61.556L15.505,61.556L15.326,62.417L12.659,62.417L12.336,63.815L15.333,63.815L15.151,64.676L11.127,64.676Z" style="fill:rgb(158,161,168);fill-rule:nonzero;"/>
            <path id="path1520" d="M19.012,64.676L17.951,64.676L19.03,59.525L21.317,59.525C21.711,59.525 22.016,59.566 22.234,59.648C22.454,59.728 22.631,59.875 22.765,60.091C22.901,60.306 22.968,60.568 22.968,60.875C22.968,61.313 22.837,61.674 22.575,61.96C22.313,62.244 21.916,62.419 21.384,62.487C21.52,62.609 21.647,62.77 21.767,62.969C22.003,63.372 22.267,63.941 22.557,64.676L21.419,64.676C21.328,64.386 21.148,63.933 20.881,63.317C20.736,62.984 20.582,62.76 20.418,62.645C20.317,62.577 20.141,62.544 19.89,62.544L19.458,62.544L19.012,64.676ZM19.62,61.771L20.182,61.771C20.751,61.771 21.128,61.737 21.314,61.669C21.501,61.601 21.647,61.494 21.753,61.349C21.858,61.204 21.911,61.051 21.911,60.892C21.911,60.705 21.835,60.564 21.682,60.47C21.589,60.414 21.386,60.386 21.075,60.386L19.908,60.386L19.62,61.771Z" style="fill:rgb(158,161,168);fill-rule:nonzero;"/>
            <path id="path1522" d="M27.248,64.676L26.261,64.676L24.869,61.215L24.146,64.676L23.158,64.676L24.233,59.525L25.224,59.525L26.619,62.972L27.339,59.525L28.323,59.525L27.248,64.676Z" style="fill:rgb(158,161,168);fill-rule:nonzero;"/>
            <path id="path1524" d="M28.348,64.676L29.427,59.525L30.815,59.525C31.201,59.525 31.448,59.531 31.556,59.543C31.769,59.564 31.959,59.607 32.125,59.673C32.294,59.738 32.446,59.831 32.582,59.95C32.72,60.067 32.838,60.209 32.937,60.375C33.038,60.542 33.115,60.734 33.169,60.952C33.223,61.167 33.25,61.404 33.25,61.661C33.25,62.217 33.143,62.71 32.93,63.141C32.719,63.569 32.453,63.91 32.132,64.163C31.886,64.36 31.569,64.505 31.18,64.599C30.96,64.65 30.621,64.676 30.164,64.676L28.348,64.676ZM29.581,63.847L30.119,63.847C30.508,63.847 30.789,63.824 30.962,63.777C31.138,63.728 31.298,63.637 31.443,63.506C31.652,63.317 31.828,63.064 31.971,62.747C32.113,62.431 32.185,62.059 32.185,61.63C32.185,61.265 32.125,60.991 32.006,60.808C31.889,60.623 31.743,60.5 31.57,60.439C31.448,60.397 31.231,60.376 30.92,60.376L30.305,60.376L29.581,63.847Z" style="fill:rgb(158,161,168);fill-rule:nonzero;"/>
        </g>
        <g id="text1489" transform="matrix(0.780952,0,0,1.70732,-3.33333,2.117)">
            <path id="path1491" d="M9.733,21.084L10.661,21.225C10.48,21.727 10.208,22.111 9.846,22.378C9.484,22.642 9.06,22.774 8.574,22.774C8.027,22.774 7.599,22.61 7.29,22.28C6.983,21.951 6.829,21.473 6.829,20.846C6.829,20.338 6.932,19.873 7.137,19.452C7.345,19.029 7.632,18.706 7.998,18.482C8.364,18.258 8.762,18.147 9.193,18.147C9.678,18.147 10.069,18.277 10.368,18.537C10.667,18.795 10.843,19.148 10.896,19.596L10.014,19.681C9.965,19.421 9.871,19.233 9.73,19.117C9.592,18.999 9.407,18.94 9.175,18.94C8.921,18.94 8.683,19.017 8.461,19.172C8.242,19.326 8.066,19.568 7.934,19.898C7.801,20.225 7.735,20.552 7.735,20.88C7.735,21.238 7.821,21.514 7.992,21.71C8.164,21.905 8.379,22.003 8.635,22.003C8.873,22.003 9.091,21.925 9.288,21.771C9.487,21.616 9.636,21.387 9.733,21.084Z" style="fill:rgb(158,161,168);fill-rule:nonzero;"/>
            <path id="path1493" d="M11.033,22.695L11.97,18.223L12.888,18.223L12.11,21.948L14.386,21.948L14.23,22.695L11.033,22.695Z" style="fill:rgb(158,161,168);fill-rule:nonzero;"/>
            <path id="path1495" d="M14.819,22.695L15.752,18.223L16.674,18.223L16.277,20.123L18.345,18.223L19.578,18.223L17.57,19.977L19.044,22.695L18.004,22.695L16.899,20.566L16.03,21.325L15.743,22.695L14.819,22.695Z" style="fill:rgb(158,161,168);fill-rule:nonzero;"/>
            <path id="path1497" d="M21.036,22.695L21.972,18.223L22.891,18.223L21.957,22.695L21.036,22.695Z" style="fill:rgb(158,161,168);fill-rule:nonzero;"/>
            <path id="path1499" d="M26.384,22.695L25.526,22.695L24.318,19.69L23.69,22.695L22.833,22.695L23.766,18.223L24.626,18.223L25.838,21.215L26.463,18.223L27.317,18.223L26.384,22.695Z" style="fill:rgb(158,161,168);fill-rule:nonzero;"/>
        </g>
        <g id="text1504" transform="matrix(0.620947,0,0,1.61044,0,2)">
            <path id="path1574" d="M3.221,79.71L4.227,74.906L5.869,74.906C6.225,74.906 6.474,74.917 6.616,74.939C6.852,74.972 7.051,75.037 7.215,75.136C7.379,75.234 7.504,75.365 7.589,75.529C7.674,75.693 7.717,75.874 7.717,76.073C7.717,76.339 7.642,76.571 7.494,76.767C7.345,76.962 7.116,77.109 6.806,77.21C7.053,77.277 7.245,77.399 7.382,77.573C7.522,77.746 7.592,77.942 7.592,78.16C7.592,78.448 7.51,78.722 7.346,78.982C7.183,79.24 6.956,79.426 6.668,79.539C6.38,79.653 5.985,79.71 5.485,79.71L3.221,79.71ZM4.807,76.846L5.56,76.846C5.899,76.846 6.143,76.822 6.291,76.774C6.44,76.726 6.551,76.647 6.625,76.538C6.7,76.429 6.737,76.312 6.737,76.187C6.737,76.065 6.702,75.964 6.632,75.886C6.562,75.807 6.463,75.755 6.334,75.728C6.262,75.715 6.088,75.709 5.813,75.709L5.046,75.709L4.807,76.846ZM4.371,78.936L5.325,78.936C5.724,78.936 5.992,78.911 6.127,78.861C6.265,78.809 6.374,78.723 6.455,78.606C6.538,78.488 6.58,78.363 6.58,78.232C6.58,78.072 6.521,77.941 6.403,77.839C6.285,77.734 6.088,77.681 5.813,77.681L4.633,77.681L4.371,78.936Z" style="fill:rgb(158,161,168);fill-rule:nonzero;"/>
            <path id="path1576" d="M8.034,79.71L9.04,74.906L10.027,74.906L9.024,79.71L8.034,79.71Z" style="fill:rgb(158,161,168);fill-rule:nonzero;"/>
            <path id="path1578" d="M12.029,79.71L11.039,79.71L11.878,75.709L10.469,75.709L10.636,74.906L14.421,74.906L14.254,75.709L12.864,75.709L12.029,79.71Z" style="fill:rgb(158,161,168);fill-rule:nonzero;"/>
            <path id="path1580" d="M14.191,78.153L15.132,78.104C15.145,78.403 15.196,78.606 15.286,78.71C15.43,78.881 15.697,78.966 16.085,78.966C16.409,78.966 16.643,78.908 16.787,78.792C16.931,78.676 17.003,78.537 17.003,78.373C17.003,78.231 16.944,78.111 16.826,78.012C16.743,77.94 16.515,77.823 16.141,77.662C15.77,77.5 15.498,77.366 15.325,77.259C15.155,77.149 15.021,77.009 14.922,76.836C14.824,76.663 14.775,76.461 14.775,76.23C14.775,75.826 14.921,75.49 15.214,75.224C15.507,74.957 15.93,74.824 16.485,74.824C17.049,74.824 17.485,74.956 17.793,75.221C18.103,75.485 18.273,75.837 18.304,76.276L17.357,76.318C17.333,76.089 17.25,75.913 17.108,75.791C16.966,75.668 16.756,75.607 16.479,75.607C16.206,75.607 16.01,75.655 15.892,75.751C15.776,75.848 15.718,75.969 15.718,76.115C15.718,76.253 15.772,76.366 15.879,76.456C15.986,76.548 16.223,76.673 16.59,76.833C17.143,77.071 17.494,77.264 17.645,77.413C17.87,77.631 17.983,77.912 17.983,78.255C17.983,78.679 17.815,79.041 17.478,79.343C17.144,79.642 16.677,79.792 16.079,79.792C15.666,79.792 15.308,79.723 15.004,79.585C14.703,79.445 14.49,79.252 14.365,79.005C14.241,78.758 14.183,78.474 14.191,78.153L14.191,78.153Z" style="fill:rgb(158,161,168);fill-rule:nonzero;"/>
            <path id="path1582" d="M21.836,77.563L19.978,77.563L19.529,79.71L18.54,79.71L19.546,74.906L20.532,74.906L20.145,76.761L22.003,76.761L22.393,74.906L23.38,74.906L22.377,79.71L21.387,79.71L21.836,77.563Z" style="fill:rgb(158,161,168);fill-rule:nonzero;"/>
            <path id="path1584" d="M23.33,79.71L24.336,74.906L25.323,74.906L24.32,79.71L23.33,79.71Z" style="fill:rgb(158,161,168);fill-rule:nonzero;"/>
            <path id="path1586" d="M25.221,79.71L26.227,74.906L29.589,74.906L29.419,75.709L27.046,75.709L26.804,76.862L29.13,76.862L28.963,77.665L26.637,77.665L26.211,79.71L25.221,79.71Z" style="fill:rgb(158,161,168);fill-rule:nonzero;"/>
            <path id="path1588" d="M31.427,79.71L30.438,79.71L31.277,75.709L29.868,75.709L30.035,74.906L33.819,74.906L33.652,75.709L32.263,75.709L31.427,79.71Z" style="fill:rgb(158,161,168);fill-rule:nonzero;"/>
        </g>
        <g id="text1508" transform="matrix(0.578636,0,0,1.7282,3,2)">
            <path id="path1557" d="M81.226,74.275L82.162,69.802L83.081,69.802L82.147,74.275L81.226,74.275Z" style="fill:rgb(158,161,168);fill-rule:nonzero;"/>
            <path id="path1559" d="M86.575,74.275L85.717,74.275L84.509,71.27L83.88,74.275L83.023,74.275L83.957,69.802L84.817,69.802L86.029,72.795L86.654,69.802L87.509,69.802L86.575,74.275Z" style="fill:rgb(158,161,168);fill-rule:nonzero;"/>
            <path id="path1561" d="M91.091,74.275L90.233,74.275L89.025,71.27L88.396,74.275L87.539,74.275L88.473,69.802L89.333,69.802L90.545,72.795L91.17,69.802L92.025,69.802L91.091,74.275Z" style="fill:rgb(158,161,168);fill-rule:nonzero;"/>
            <path id="path1563" d="M92.031,74.275L92.965,69.802L96.282,69.802L96.126,70.55L93.73,70.55L93.517,71.566L95.833,71.566L95.677,72.313L93.361,72.313L93.08,73.528L95.683,73.528L95.525,74.275L92.031,74.275Z" style="fill:rgb(158,161,168);fill-rule:nonzero;"/>
            <path id="path1565" d="M97.145,74.275L96.224,74.275L97.16,69.802L99.147,69.802C99.489,69.802 99.754,69.838 99.943,69.909C100.134,69.978 100.288,70.106 100.404,70.293C100.522,70.48 100.581,70.707 100.581,70.974C100.581,71.354 100.467,71.668 100.239,71.917C100.011,72.163 99.667,72.315 99.205,72.374C99.323,72.48 99.434,72.619 99.537,72.792C99.743,73.142 99.972,73.637 100.224,74.275L99.235,74.275C99.156,74.023 99,73.629 98.768,73.094C98.642,72.806 98.508,72.611 98.366,72.512C98.278,72.453 98.126,72.423 97.908,72.423L97.533,72.423L97.145,74.275ZM97.673,71.752L98.161,71.752C98.656,71.752 98.983,71.722 99.144,71.663C99.307,71.604 99.434,71.512 99.525,71.386C99.617,71.26 99.663,71.127 99.663,70.989C99.663,70.826 99.596,70.704 99.464,70.623C99.383,70.574 99.207,70.55 98.936,70.55L97.923,70.55L97.673,71.752Z" style="fill:rgb(158,161,168);fill-rule:nonzero;"/>
            <path id="path1567" d="M104.691,74.275L103.709,74.275L102.906,69.802L103.825,69.802L104.392,73.186L106.245,69.802L107.157,69.802L104.691,74.275Z" style="fill:rgb(158,161,168);fill-rule:nonzero;"/>
            <path id="path1569" d="M109.87,72.664L110.797,72.805C110.616,73.307 110.345,73.692 109.983,73.958C109.621,74.222 109.196,74.355 108.71,74.355C108.163,74.355 107.735,74.19 107.425,73.86C107.118,73.531 106.965,73.053 106.965,72.426C106.965,71.918 107.067,71.453 107.273,71.032C107.48,70.609 107.767,70.285 108.133,70.061C108.5,69.838 108.898,69.726 109.33,69.726C109.814,69.726 110.205,69.856 110.504,70.116C110.803,70.375 110.979,70.728 111.032,71.175L110.15,71.261C110.102,71 110.007,70.812 109.867,70.696C109.728,70.578 109.543,70.519 109.311,70.519C109.057,70.519 108.819,70.596 108.597,70.751C108.377,70.906 108.202,71.148 108.069,71.477C107.937,71.805 107.871,72.132 107.871,72.46C107.871,72.818 107.956,73.094 108.127,73.29C108.3,73.485 108.515,73.583 108.771,73.583C109.009,73.583 109.227,73.505 109.424,73.351C109.624,73.196 109.772,72.967 109.87,72.664L109.87,72.664Z" style="fill:rgb(158,161,168);fill-rule:nonzero;"/>
            <path id="path1571" d="M111.435,72.521C111.435,72.256 111.475,71.978 111.554,71.685C111.658,71.292 111.816,70.951 112.027,70.662C112.241,70.374 112.509,70.146 112.833,69.979C113.156,69.81 113.524,69.726 113.937,69.726C114.491,69.726 114.937,69.898 115.277,70.241C115.619,70.585 115.79,71.041 115.79,71.608C115.79,72.08 115.679,72.537 115.457,72.978C115.235,73.42 114.934,73.76 114.554,73.998C114.173,74.236 113.743,74.355 113.263,74.355C112.846,74.355 112.496,74.26 112.213,74.071C111.931,73.882 111.73,73.648 111.612,73.369C111.494,73.088 111.435,72.806 111.435,72.521L111.435,72.521ZM112.344,72.503C112.344,72.81 112.438,73.067 112.625,73.275C112.812,73.482 113.059,73.586 113.364,73.586C113.612,73.586 113.85,73.505 114.078,73.342C114.308,73.177 114.497,72.929 114.645,72.597C114.796,72.264 114.871,71.939 114.871,71.624C114.871,71.272 114.777,70.996 114.587,70.797C114.398,70.595 114.157,70.495 113.864,70.495C113.415,70.495 113.048,70.704 112.766,71.123C112.485,71.542 112.344,72.002 112.344,72.503L112.344,72.503Z" style="fill:rgb(158,161,168);fill-rule:nonzero;"/>
        </g>
        <g id="text1512" transform="matrix(0.488878,0,0,1.79497,-47.3842,30.3612)">
            <path id="path1527" d="M214.117,40.82L215.002,40.82L214.514,43.159L214.394,43.735C214.386,43.784 214.382,43.83 214.382,43.873C214.382,44.043 214.444,44.184 214.567,44.296C214.692,44.405 214.873,44.46 215.11,44.46C215.324,44.46 215.5,44.42 215.639,44.34C215.778,44.259 215.886,44.14 215.962,43.981C216.039,43.823 216.116,43.553 216.195,43.173L216.688,40.82L217.572,40.82L217.082,43.176C216.978,43.672 216.859,44.051 216.723,44.313C216.588,44.576 216.384,44.789 216.109,44.954C215.835,45.118 215.488,45.201 215.069,45.201C214.568,45.201 214.184,45.078 213.918,44.833C213.651,44.587 213.518,44.27 213.518,43.884C213.518,43.804 213.525,43.717 213.538,43.623C213.546,43.56 213.581,43.382 213.641,43.088L214.117,40.82Z" style="fill:rgb(158,161,168);fill-rule:nonzero;"/>
            <path id="path1529" d="M217.699,43.732L218.542,43.688C218.554,43.956 218.6,44.137 218.68,44.231C218.809,44.384 219.048,44.46 219.397,44.46C219.687,44.46 219.896,44.408 220.026,44.305C220.155,44.201 220.22,44.075 220.22,43.928C220.22,43.801 220.167,43.693 220.061,43.605C219.986,43.541 219.782,43.436 219.447,43.291C219.114,43.146 218.87,43.026 218.715,42.93C218.563,42.832 218.442,42.705 218.354,42.551C218.266,42.396 218.222,42.215 218.222,42.007C218.222,41.645 218.353,41.344 218.615,41.105C218.878,40.866 219.258,40.747 219.755,40.747C220.261,40.747 220.651,40.865 220.928,41.102C221.206,41.339 221.358,41.655 221.386,42.048L220.537,42.086C220.515,41.881 220.441,41.723 220.314,41.613C220.186,41.504 219.998,41.449 219.749,41.449C219.505,41.449 219.329,41.492 219.224,41.578C219.12,41.664 219.068,41.773 219.068,41.904C219.068,42.028 219.116,42.129 219.212,42.21C219.308,42.292 219.52,42.405 219.849,42.548C220.345,42.761 220.66,42.934 220.795,43.068C220.997,43.263 221.098,43.515 221.098,43.823C221.098,44.203 220.947,44.528 220.646,44.798C220.346,45.066 219.928,45.201 219.391,45.201C219.021,45.201 218.7,45.139 218.427,45.015C218.157,44.89 217.966,44.717 217.854,44.495C217.743,44.274 217.691,44.02 217.699,43.732L217.699,43.732Z" style="fill:rgb(158,161,168);fill-rule:nonzero;"/>
            <path id="path1531" d="M221.583,45.127L222.482,40.82L225.675,40.82L225.525,41.54L223.219,41.54L223.014,42.518L225.243,42.518L225.094,43.238L222.864,43.238L222.593,44.407L225.1,44.407L224.947,45.127L221.583,45.127Z" style="fill:rgb(158,161,168);fill-rule:nonzero;"/>
            <path id="path1533" d="M229.424,45.127L228.478,45.127L227.705,40.82L228.59,40.82L229.136,44.078L230.92,40.82L231.798,40.82L229.424,45.127Z" style="fill:rgb(158,161,168);fill-rule:nonzero;"/>
            <path id="path1535" d="M234.41,43.576L235.303,43.711C235.129,44.195 234.867,44.565 234.519,44.822C234.17,45.076 233.762,45.204 233.293,45.204C232.767,45.204 232.354,45.045 232.057,44.728C231.761,44.41 231.613,43.95 231.613,43.347C231.613,42.857 231.712,42.41 231.91,42.004C232.109,41.597 232.386,41.285 232.738,41.07C233.091,40.854 233.475,40.747 233.89,40.747C234.356,40.747 234.733,40.872 235.021,41.123C235.309,41.371 235.478,41.711 235.529,42.142L234.68,42.224C234.633,41.974 234.542,41.793 234.407,41.681C234.274,41.567 234.096,41.511 233.872,41.511C233.627,41.511 233.398,41.585 233.185,41.734C232.973,41.883 232.804,42.116 232.677,42.433C232.549,42.748 232.486,43.064 232.486,43.379C232.486,43.724 232.568,43.99 232.732,44.178C232.899,44.366 233.105,44.46 233.352,44.46C233.581,44.46 233.791,44.386 233.981,44.237C234.173,44.088 234.316,43.868 234.41,43.576L234.41,43.576Z" style="fill:rgb(158,161,168);fill-rule:nonzero;"/>
            <path id="path1537" d="M235.917,43.438C235.917,43.183 235.955,42.915 236.032,42.633C236.132,42.255 236.283,41.927 236.487,41.649C236.693,41.37 236.951,41.151 237.263,40.99C237.574,40.828 237.929,40.747 238.326,40.747C238.859,40.747 239.289,40.912 239.616,41.243C239.945,41.574 240.11,42.013 240.11,42.559C240.11,43.014 240.003,43.453 239.789,43.879C239.576,44.304 239.286,44.631 238.92,44.86C238.553,45.089 238.139,45.204 237.677,45.204C237.275,45.204 236.939,45.112 236.666,44.93C236.394,44.748 236.201,44.523 236.088,44.255C235.974,43.984 235.917,43.712 235.917,43.438L235.917,43.438ZM236.793,43.42C236.793,43.716 236.883,43.964 237.063,44.163C237.243,44.363 237.48,44.463 237.774,44.463C238.013,44.463 238.242,44.385 238.461,44.228C238.683,44.069 238.865,43.83 239.008,43.511C239.153,43.19 239.225,42.878 239.225,42.574C239.225,42.235 239.134,41.97 238.952,41.778C238.77,41.584 238.538,41.487 238.256,41.487C237.823,41.487 237.47,41.689 237.198,42.092C236.928,42.496 236.793,42.938 236.793,43.42L236.793,43.42Z" style="fill:rgb(158,161,168);fill-rule:nonzero;"/>
        </g>
        <g id="text1637" transform="matrix(0.646279,0,0,1.54732,0,-4)">
            <path id="path1639" d="M4.424,123.674L3.095,123.674L5.3,121.145L4.059,118.677L5.133,118.677L5.62,119.615C5.636,119.649 5.747,119.879 5.954,120.306C5.968,120.329 5.983,120.36 5.998,120.398C6.276,120.06 6.509,119.783 6.697,119.567L7.484,118.677L8.776,118.677L6.489,121.308L7.72,123.674L6.561,123.674L6.186,122.921C5.99,122.523 5.861,122.238 5.797,122.065C5.709,122.199 5.48,122.476 5.112,122.897L4.424,123.674Z" style="fill:rgb(158,161,168);fill-rule:nonzero;"/>
            <path id="path1641" d="M8.578,121.714C8.578,121.419 8.623,121.107 8.711,120.78C8.827,120.342 9.003,119.961 9.24,119.638C9.478,119.316 9.778,119.061 10.139,118.875C10.501,118.686 10.912,118.592 11.373,118.592C11.991,118.592 12.49,118.784 12.869,119.168C13.251,119.552 13.442,120.061 13.442,120.695C13.442,121.222 13.318,121.732 13.07,122.225C12.823,122.718 12.486,123.098 12.062,123.364C11.637,123.629 11.156,123.762 10.62,123.762C10.154,123.762 9.763,123.657 9.448,123.445C9.132,123.234 8.908,122.973 8.776,122.662C8.644,122.348 8.578,122.032 8.578,121.714ZM9.594,121.694C9.594,122.037 9.699,122.324 9.908,122.556C10.117,122.788 10.392,122.904 10.732,122.904C11.01,122.904 11.275,122.813 11.53,122.631C11.787,122.447 11.998,122.17 12.164,121.799C12.332,121.427 12.416,121.064 12.416,120.712C12.416,120.319 12.31,120.011 12.099,119.788C11.888,119.564 11.619,119.451 11.291,119.451C10.789,119.451 10.38,119.685 10.064,120.153C9.751,120.621 9.594,121.135 9.594,121.694L9.594,121.694Z" style="fill:rgb(158,161,168);fill-rule:nonzero;"/>
            <path id="path1643" d="M14.73,123.674L13.701,123.674L14.747,118.677L16.966,118.677C17.348,118.677 17.644,118.717 17.856,118.797C18.069,118.874 18.241,119.017 18.37,119.226C18.502,119.435 18.568,119.688 18.568,119.986C18.568,120.411 18.441,120.762 18.186,121.039C17.932,121.314 17.547,121.485 17.031,121.55C17.163,121.669 17.286,121.824 17.402,122.017C17.632,122.408 17.887,122.96 18.169,123.674L17.065,123.674C16.976,123.392 16.802,122.952 16.543,122.355C16.403,122.032 16.253,121.815 16.093,121.704C15.996,121.638 15.825,121.605 15.582,121.605L15.163,121.605L14.73,123.674ZM15.32,120.855L15.865,120.855C16.417,120.855 16.783,120.822 16.963,120.756C17.144,120.69 17.286,120.587 17.389,120.446C17.491,120.305 17.542,120.158 17.542,120.003C17.542,119.821 17.468,119.685 17.32,119.594C17.23,119.54 17.033,119.512 16.731,119.512L15.599,119.512L15.32,120.855Z" style="fill:rgb(158,161,168);fill-rule:nonzero;"/>
        </g>
        <g id="text1648" transform="matrix(0.65638,0,0,1.5765,0,-10.6615)">
            <path id="path1650" d="M83.793,125.697L84.852,120.622L88.615,120.622L88.438,121.47L85.721,121.47L85.479,122.623L88.106,122.623L87.929,123.471L85.302,123.471L84.984,124.849L87.936,124.849L87.756,125.697L83.793,125.697Z" style="fill:rgb(158,161,168);fill-rule:nonzero;"/>
            <path id="path1652" d="M89.373,125.697L88.023,125.697L90.262,123.128L89.002,120.622L90.093,120.622L90.588,121.574C90.604,121.609 90.717,121.843 90.927,122.277C90.941,122.3 90.956,122.331 90.972,122.37C91.253,122.027 91.49,121.745 91.682,121.526L92.481,120.622L93.793,120.622L91.47,123.295L92.72,125.697L91.543,125.697L91.162,124.932C90.964,124.528 90.832,124.238 90.768,124.063C90.678,124.199 90.446,124.481 90.072,124.908L89.373,125.697Z" style="fill:rgb(158,161,168);fill-rule:nonzero;"/>
            <path id="path1654" d="M95.472,125.697L94.426,125.697L95.313,121.47L93.824,121.47L94.001,120.622L97.999,120.622L97.822,121.47L96.355,121.47L95.472,125.697Z" style="fill:rgb(158,161,168);fill-rule:nonzero;"/>
            <path id="path1656" d="M99.518,125.697L100.581,120.622L101.623,120.622L100.564,125.697L99.518,125.697Z" style="fill:rgb(158,161,168);fill-rule:nonzero;"/>
            <path id="path1658" d="M105.586,125.697L104.614,125.697L103.243,122.287L102.53,125.697L101.557,125.697L102.616,120.622L103.592,120.622L104.967,124.018L105.676,120.622L106.645,120.622L105.586,125.697Z" style="fill:rgb(158,161,168);fill-rule:nonzero;"/>
        </g>
        <g id="text1663" transform="matrix(0.734782,0,0,1.36095,0,0)">
            <path id="path1669" d="M82.461,262.685L83.648,262.685L82.993,265.823L82.832,266.595C82.821,266.661 82.816,266.723 82.816,266.781C82.816,267.009 82.899,267.199 83.064,267.349C83.232,267.496 83.476,267.569 83.794,267.569C84.08,267.569 84.317,267.515 84.503,267.408C84.69,267.3 84.834,267.14 84.937,266.927C85.039,266.714 85.143,266.352 85.248,265.842L85.911,262.685L87.097,262.685L86.439,265.846C86.3,266.511 86.139,267.02 85.958,267.372C85.777,267.724 85.502,268.011 85.134,268.232C84.766,268.452 84.301,268.563 83.738,268.563C83.066,268.563 82.55,268.398 82.193,268.07C81.836,267.739 81.657,267.314 81.657,266.797C81.657,266.689 81.666,266.572 81.684,266.446C81.695,266.362 81.741,266.122 81.822,265.728L82.461,262.685Z" style="fill:rgb(158,161,168);fill-rule:nonzero;"/>
            <path id="path1671" d="M91.706,268.464L90.598,268.464L89.037,264.581L88.225,268.464L87.117,268.464L88.324,262.685L89.435,262.685L91.001,266.552L91.809,262.685L92.913,262.685L91.706,268.464Z" style="fill:rgb(158,161,168);fill-rule:nonzero;"/>
            <path id="path1673" d="M92.869,268.464L94.08,262.685L95.266,262.685L94.06,268.464L92.869,268.464Z" style="fill:rgb(158,161,168);fill-rule:nonzero;"/>
        </g>
        <g id="text1667" transform="matrix(0.652369,0,0,1.53288,0,0)">
            <path id="path1676" d="M3.067,236.717L4.054,236.666C4.068,236.98 4.122,237.192 4.216,237.302C4.367,237.481 4.647,237.57 5.055,237.57C5.395,237.57 5.64,237.51 5.791,237.388C5.943,237.267 6.018,237.12 6.018,236.948C6.018,236.799 5.957,236.672 5.833,236.569C5.746,236.494 5.506,236.371 5.114,236.201C4.724,236.031 4.438,235.89 4.257,235.778C4.078,235.663 3.937,235.515 3.834,235.334C3.731,235.153 3.679,234.941 3.679,234.698C3.679,234.273 3.833,233.921 4.14,233.642C4.447,233.362 4.892,233.222 5.475,233.222C6.067,233.222 6.524,233.361 6.848,233.638C7.173,233.916 7.352,234.285 7.384,234.746L6.39,234.791C6.365,234.55 6.278,234.365 6.129,234.237C5.979,234.108 5.759,234.044 5.468,234.044C5.181,234.044 4.976,234.095 4.852,234.195C4.731,234.296 4.67,234.424 4.67,234.577C4.67,234.722 4.726,234.841 4.838,234.935C4.951,235.031 5.2,235.163 5.585,235.331C6.165,235.581 6.534,235.784 6.693,235.94C6.929,236.169 7.047,236.464 7.047,236.824C7.047,237.269 6.87,237.65 6.517,237.966C6.166,238.28 5.677,238.437 5.048,238.437C4.615,238.437 4.239,238.365 3.92,238.221C3.603,238.074 3.38,237.871 3.249,237.612C3.118,237.353 3.057,237.054 3.067,236.717L3.067,236.717Z" style="fill:rgb(158,161,168);fill-rule:nonzero;"/>
            <path id="path1678" d="M11.268,236.535L12.314,236.693C12.11,237.26 11.804,237.693 11.396,237.994C10.987,238.292 10.509,238.441 9.961,238.441C9.344,238.441 8.861,238.255 8.513,237.883C8.166,237.512 7.993,236.973 7.993,236.267C7.993,235.693 8.109,235.169 8.341,234.694C8.575,234.217 8.898,233.853 9.311,233.6C9.724,233.348 10.173,233.222 10.659,233.222C11.205,233.222 11.647,233.369 11.984,233.662C12.321,233.953 12.519,234.351 12.579,234.856L11.585,234.952C11.53,234.659 11.423,234.447 11.265,234.316C11.109,234.183 10.9,234.116 10.639,234.116C10.352,234.116 10.084,234.203 9.834,234.378C9.586,234.552 9.388,234.825 9.239,235.197C9.089,235.566 9.015,235.935 9.015,236.304C9.015,236.708 9.111,237.02 9.304,237.24C9.499,237.46 9.741,237.57 10.03,237.57C10.298,237.57 10.544,237.483 10.766,237.309C10.991,237.135 11.158,236.877 11.268,236.535L11.268,236.535Z" style="fill:rgb(158,161,168);fill-rule:nonzero;"/>
            <path id="path1680" d="M12.734,238.351L13.79,233.308L14.826,233.308L13.948,237.508L16.515,237.508L16.339,238.351L12.734,238.351Z" style="fill:rgb(158,161,168);fill-rule:nonzero;"/>
            <path id="path1682" d="M17.196,236.057L19.112,236.057L18.913,237.01L16.996,237.01L17.196,236.057Z" style="fill:rgb(158,161,168);fill-rule:nonzero;"/>
            <path id="path1684" d="M19.694,236.373C19.694,236.075 19.738,235.761 19.828,235.431C19.945,234.988 20.123,234.604 20.361,234.278C20.602,233.952 20.905,233.695 21.269,233.507C21.634,233.317 22.049,233.222 22.515,233.222C23.139,233.222 23.642,233.416 24.025,233.803C24.41,234.191 24.603,234.705 24.603,235.345C24.603,235.877 24.478,236.392 24.228,236.889C23.978,237.387 23.639,237.77 23.21,238.038C22.781,238.307 22.296,238.441 21.754,238.441C21.284,238.441 20.89,238.334 20.571,238.121C20.252,237.908 20.026,237.644 19.893,237.33C19.76,237.013 19.694,236.694 19.694,236.373L19.694,236.373ZM20.719,236.352C20.719,236.699 20.824,236.989 21.035,237.223C21.246,237.457 21.524,237.574 21.868,237.574C22.148,237.574 22.416,237.482 22.673,237.298C22.932,237.113 23.145,236.833 23.313,236.459C23.483,236.083 23.567,235.717 23.567,235.362C23.567,234.965 23.461,234.654 23.248,234.429C23.034,234.202 22.762,234.089 22.432,234.089C21.925,234.089 21.512,234.325 21.194,234.797C20.877,235.27 20.719,235.788 20.719,236.352Z" style="fill:rgb(158,161,168);fill-rule:nonzero;"/>
            <path id="path1686" d="M24.83,238.351L25.886,233.308L29.416,233.308L29.237,234.151L26.746,234.151L26.492,235.362L28.934,235.362L28.759,236.205L26.316,236.205L25.869,238.351L24.83,238.351Z" style="fill:rgb(158,161,168);fill-rule:nonzero;"/>
            <path id="path1688" d="M29.137,238.351L30.193,233.308L33.723,233.308L33.544,234.151L31.054,234.151L30.799,235.362L33.242,235.362L33.066,236.205L30.624,236.205L30.176,238.351L29.137,238.351Z" style="fill:rgb(158,161,168);fill-rule:nonzero;"/>
        </g>
        <rect id="rect1234" x="0" y="19.947" width="90" height="1" style="fill:rgb(158,161,168);"/>
        <rect id="rect1375" x="0" y="367.947" width="90" height="1" style="fill:rgb(158,161,168);"/>
        <g id="text1373" transform="matrix(0.943571,0,0,1.0598,0,0)">
            <path id="path1375" d="M2.12,16.793L4.383,5.986L8.076,5.986C8.877,5.986 9.437,6.01 9.757,6.059C10.287,6.133 10.737,6.281 11.106,6.502C11.474,6.723 11.754,7.018 11.946,7.386C12.138,7.755 12.234,8.163 12.234,8.61C12.234,9.21 12.066,9.731 11.732,10.173C11.398,10.61 10.882,10.942 10.184,11.168C10.74,11.32 11.172,11.593 11.482,11.986C11.796,12.375 11.953,12.814 11.953,13.306C11.953,13.955 11.769,14.571 11.401,15.156C11.032,15.736 10.523,16.154 9.875,16.409C9.226,16.665 8.339,16.793 7.213,16.793L2.12,16.793ZM5.687,10.35L7.383,10.35C8.145,10.35 8.693,10.296 9.027,10.188C9.361,10.08 9.612,9.903 9.779,9.657C9.946,9.411 10.029,9.148 10.029,8.868C10.029,8.593 9.951,8.367 9.793,8.19C9.636,8.013 9.413,7.895 9.123,7.836C8.96,7.807 8.57,7.792 7.951,7.792L6.226,7.792L5.687,10.35ZM4.707,15.053L6.852,15.053C7.752,15.053 8.354,14.996 8.658,14.883C8.968,14.765 9.214,14.574 9.395,14.308C9.582,14.043 9.676,13.763 9.676,13.468C9.676,13.109 9.543,12.814 9.277,12.583C9.012,12.348 8.57,12.23 7.951,12.23L5.297,12.23L4.707,15.053Z" style="fill:rgb(158,161,168);fill-rule:nonzero;"/>
            <path id="path1377" d="M13.745,12.554C13.745,11.915 13.841,11.242 14.032,10.534C14.283,9.586 14.664,8.762 15.175,8.065C15.691,7.367 16.34,6.816 17.121,6.413C17.902,6.005 18.792,5.801 19.789,5.801C21.126,5.801 22.205,6.217 23.026,7.047C23.851,7.878 24.264,8.979 24.264,10.35C24.264,11.49 23.996,12.593 23.461,13.66C22.925,14.726 22.198,15.547 21.279,16.122C20.36,16.697 19.32,16.984 18.16,16.984C17.153,16.984 16.308,16.756 15.624,16.299C14.941,15.842 14.457,15.277 14.172,14.603C13.887,13.925 13.745,13.242 13.745,12.554ZM15.941,12.51C15.941,13.252 16.168,13.873 16.62,14.375C17.072,14.876 17.666,15.127 18.404,15.127C19.003,15.127 19.578,14.93 20.129,14.537C20.684,14.139 21.141,13.539 21.5,12.738C21.863,11.932 22.045,11.148 22.045,10.387C22.045,9.536 21.817,8.871 21.36,8.389C20.903,7.902 20.32,7.659 19.613,7.659C18.526,7.659 17.642,8.165 16.959,9.178C16.281,10.19 15.941,11.301 15.941,12.51Z" style="fill:rgb(158,161,168);fill-rule:nonzero;"/>
            <path id="path1379" d="M32.233,11.964L28.053,11.964L27.043,16.793L24.817,16.793L27.08,5.986L29.299,5.986L28.429,10.158L32.609,10.158L33.486,5.986L35.705,5.986L33.449,16.793L31.223,16.793L32.233,11.964Z" style="fill:rgb(158,161,168);fill-rule:nonzero;"/>
            <path id="path1381" d="M38.152,14.043L36.988,14.043L37.651,8.529L38.182,5.986L40.401,5.986L39.833,8.721L38.152,14.043ZM36.427,14.751L38.521,14.751L38.093,16.793L36,16.793L36.427,14.751Z" style="fill:rgb(158,161,168);fill-rule:nonzero;"/>
            <path id="path1383" d="M49.372,16.793L47.3,16.793L44.381,9.532L42.863,16.793L40.791,16.793L43.047,5.986L45.126,5.986L48.052,13.217L49.564,5.986L51.628,5.986L49.372,16.793Z" style="fill:rgb(158,161,168);fill-rule:nonzero;"/>
            <path id="path1385" d="M57.658,11.021L62.493,11.021L61.52,15.657C60.95,16.026 60.25,16.338 59.419,16.594C58.594,16.849 57.751,16.977 56.891,16.977C55.554,16.977 54.53,16.675 53.817,16.07C52.844,15.245 52.357,14.048 52.357,12.48C52.357,11.429 52.566,10.421 52.984,9.458C53.485,8.298 54.198,7.399 55.122,6.76C56.046,6.121 57.132,5.801 58.38,5.801C59.628,5.801 60.628,6.091 61.38,6.671C62.137,7.251 62.638,8.097 62.884,9.207L60.813,9.443C60.631,8.834 60.336,8.374 59.928,8.065C59.525,7.755 59.016,7.6 58.402,7.6C57.685,7.6 57.026,7.787 56.427,8.16C55.827,8.534 55.358,9.111 55.019,9.893C54.679,10.674 54.51,11.527 54.51,12.451C54.51,13.36 54.716,14.033 55.129,14.471C55.542,14.903 56.146,15.119 56.943,15.119C57.419,15.119 57.908,15.053 58.41,14.92C58.911,14.783 59.343,14.62 59.707,14.434L60.039,12.827L57.282,12.827L57.658,11.021Z" style="fill:rgb(158,161,168);fill-rule:nonzero;"/>
            <path id="path1387" d="M63.437,16.793L65.7,5.986L67.919,5.986L66.039,14.987L71.538,14.987L71.162,16.793L63.437,16.793Z" style="fill:rgb(158,161,168);fill-rule:nonzero;"/>
            <path id="path1389" d="M72.607,16.793L74.863,5.986L82.876,5.986L82.5,7.792L76.713,7.792L76.197,10.247L81.792,10.247L81.416,12.053L75.821,12.053L75.143,14.987L81.431,14.987L81.048,16.793L72.607,16.793Z" style="fill:rgb(158,161,168);fill-rule:nonzero;"/>
            <path id="path1391" d="M84.962,16.793L82.736,16.793L84.999,5.986L89.798,5.986C90.624,5.986 91.265,6.072 91.722,6.244C92.184,6.411 92.555,6.72 92.835,7.173C93.12,7.625 93.263,8.173 93.263,8.816C93.263,9.735 92.987,10.495 92.437,11.094C91.887,11.689 91.054,12.058 89.938,12.2C90.223,12.456 90.491,12.792 90.742,13.21C91.238,14.055 91.791,15.249 92.4,16.793L90.012,16.793C89.82,16.183 89.444,15.232 88.884,13.94C88.579,13.242 88.255,12.773 87.911,12.532C87.7,12.389 87.331,12.318 86.805,12.318L85.898,12.318L84.962,16.793ZM86.238,10.696L87.417,10.696C88.611,10.696 89.402,10.625 89.791,10.482C90.184,10.34 90.491,10.116 90.712,9.812C90.933,9.507 91.044,9.188 91.044,8.853C91.044,8.46 90.884,8.165 90.565,7.969C90.368,7.851 89.943,7.792 89.289,7.792L86.842,7.792L86.238,10.696Z" style="fill:rgb(158,161,168);fill-rule:nonzero;"/>
        </g>
    </g>
    <defs>
        <linearGradient id="_Linear1" x1="0" y1="0" x2="1" y2="0" gradientUnits="userSpaceOnUse" gradientTransform="matrix(132.001,422.26,-422.26,132.001,3.28473,17.7404)"><stop offset="0" style="stop-color:rgb(243,239,239);stop-opacity:0.81"/><stop offset="1" style="stop-color:rgb(207,223,237);stop-opacity:0"/></linearGradient>
    </defs>
</svg>
