<?xml version="1.0" encoding="UTF-8" standalone="no"?>
<!DOCTYPE svg PUBLIC "-//W3C//DTD SVG 1.1//EN" "http://www.w3.org/Graphics/SVG/1.1/DTD/svg11.dtd">
<svg width="100%" height="100%" viewBox="0 0 75 380" version="1.1" xmlns="http://www.w3.org/2000/svg" xmlns:xlink="http://www.w3.org/1999/xlink" xml:space="preserve" xmlns:serif="http://www.serif.com/" style="fill-rule:evenodd;clip-rule:evenodd;stroke-linejoin:round;stroke-miterlimit:2;">
    <g id="Layer-2" serif:id="Layer 2">
        <g id="text989">
        </g>
        <rect id="rect4689" x="0" y="0" width="75" height="380" style="fill:rgb(44,45,48);fill-rule:nonzero;"/>
        <g id="text4987">
        </g>
        <g id="text1042">
        </g>
        <g id="text2090">
        </g>
        <g id="text80" transform="matrix(0.87098,0,0,0.995047,-1.5,6.99997)">
            <path id="path4726" d="M29.851,371.706L29.851,363.943L31.853,363.943L32.903,366.668C32.96,366.829 33.024,367.013 33.094,367.221C33.168,367.429 33.249,367.668 33.336,367.94L33.552,368.624C33.475,367.95 33.416,367.373 33.376,366.894C33.336,366.415 33.316,366.013 33.316,365.687L33.316,363.943L35.317,363.943L35.317,371.706L33.316,371.706L32.26,368.85C32.149,368.545 32.049,368.26 31.958,367.995C31.871,367.727 31.794,367.472 31.727,367.231C31.77,367.777 31.802,368.253 31.822,368.659C31.843,369.065 31.853,369.42 31.853,369.725L31.853,371.706L29.851,371.706Z" style="fill:rgb(158,161,168);fill-rule:nonzero;"/>
            <path id="path4728" d="M39.887,371.706L37.791,371.706L37.791,368.418L35.865,363.943L38.052,363.943L38.429,365.094C38.503,365.319 38.568,365.535 38.625,365.743C38.686,365.951 38.739,366.15 38.786,366.341C38.863,366.056 38.93,365.811 38.987,365.607C39.044,365.399 39.095,365.232 39.138,365.104L39.52,363.943L41.692,363.943L39.887,368.418L39.887,371.706Z" style="fill:rgb(158,161,168);fill-rule:nonzero;"/>
            <path id="path4730" d="M41.894,371.515L41.894,369.076C42.306,369.639 42.752,369.921 43.231,369.921C43.412,369.921 43.56,369.874 43.673,369.78C43.787,369.683 43.844,369.562 43.844,369.418C43.844,369.21 43.72,369.008 43.472,368.81L43.13,368.543C42.902,368.372 42.708,368.203 42.547,368.035C42.386,367.865 42.256,367.69 42.155,367.513C42.054,367.332 41.981,367.146 41.934,366.954C41.887,366.763 41.863,366.562 41.863,366.351C41.863,365.989 41.947,365.61 42.115,365.215C42.199,365.03 42.296,364.863 42.406,364.712C42.517,364.558 42.644,364.422 42.789,364.305C43.184,363.969 43.662,363.802 44.222,363.802C44.721,363.802 45.224,363.934 45.73,364.199L45.73,366.572C45.559,366.308 45.365,366.1 45.147,365.949C44.929,365.795 44.714,365.718 44.503,365.718C44.342,365.718 44.21,365.765 44.106,365.858C43.999,365.949 43.945,366.058 43.945,366.185C43.945,366.393 44.087,366.599 44.372,366.804L44.704,367.05C45.147,367.368 45.463,367.695 45.655,368.03C45.849,368.366 45.946,368.758 45.946,369.207C45.946,369.971 45.713,370.601 45.247,371.098C44.781,371.594 44.191,371.842 43.477,371.842C42.985,371.842 42.457,371.733 41.894,371.515L41.894,371.515Z" style="fill:rgb(158,161,168);fill-rule:nonzero;"/>
            <path id="path4732" d="M49.576,371.706L47.48,371.706L47.48,365.803L46.323,365.803L46.323,363.943L50.778,363.943L50.778,365.803L49.576,365.803L49.576,371.706Z" style="fill:rgb(158,161,168);fill-rule:nonzero;"/>
            <path id="path4734" d="M56.525,371.706L54.428,371.706L54.428,368.584L53.428,368.584L53.428,371.706L51.331,371.706L51.331,363.943L53.428,363.943L53.428,366.688L54.428,366.688L54.428,363.943L56.525,363.943L56.525,371.706Z" style="fill:rgb(158,161,168);fill-rule:nonzero;"/>
            <rect id="path4736" x="57.606" y="363.943" width="2.097" height="7.763" style="fill:rgb(158,161,168);fill-rule:nonzero;"/>
        </g>
        <g id="text955" transform="matrix(0.744713,0,0,1.2491,16.5698,0.000271233)">
            <path id="path1021" d="M1.249,14.213L1.249,2.947L4.788,2.947C6.111,2.947 7.091,3.239 7.729,3.822C8.376,4.421 8.699,5.194 8.699,6.143C8.699,7.554 7.999,8.317 6.598,8.434C7.395,8.551 7.979,8.814 8.349,9.222C8.724,9.631 8.911,10.219 8.911,10.988C8.911,11.956 8.597,12.734 7.969,13.323C7.347,13.916 6.527,14.213 5.51,14.213L1.249,14.213ZM4.292,11.769C4.35,11.774 4.401,11.778 4.445,11.783L4.555,11.783C4.934,11.783 5.236,11.684 5.459,11.484C5.688,11.285 5.802,11.017 5.802,10.682C5.802,10.346 5.688,10.083 5.459,9.893C5.236,9.704 4.927,9.609 4.533,9.609L4.292,9.609L4.292,11.769ZM4.292,7.325L4.496,7.325C4.861,7.325 5.148,7.24 5.357,7.07C5.571,6.899 5.678,6.661 5.678,6.354C5.678,5.703 5.321,5.377 4.606,5.377C4.572,5.377 4.528,5.379 4.474,5.384C4.426,5.384 4.365,5.386 4.292,5.391L4.292,7.325Z" style="fill:rgb(158,161,168);fill-rule:nonzero;"/>
            <path id="path1023" d="M18.222,14.213L14.931,14.213L13.428,10.2C13.413,10.132 13.386,10.042 13.347,9.93C13.313,9.818 13.269,9.684 13.216,9.529L13.238,10.273L13.238,14.213L10.21,14.213L10.21,2.947L13.325,2.947C14.697,2.947 15.724,3.217 16.405,3.757C17.271,4.448 17.703,5.43 17.703,6.705C17.703,8.067 17.122,9.008 15.96,9.529L18.222,14.213ZM13.252,8.164L13.457,8.164C13.807,8.164 14.099,8.03 14.332,7.763C14.566,7.495 14.683,7.155 14.683,6.741C14.683,5.9 14.242,5.479 13.362,5.479L13.252,5.479L13.252,8.164Z" style="fill:rgb(158,161,168);fill-rule:nonzero;"/>
            <rect id="path1025" x="19.229" y="2.947" width="3.043" height="11.266" style="fill:rgb(158,161,168);fill-rule:nonzero;"/>
            <path id="path1027" d="M23.84,14.213L23.84,2.947L26.467,2.947C27.97,2.947 29.14,3.351 29.977,4.158C31.076,5.214 31.626,6.69 31.626,8.587C31.626,10.455 31.161,11.898 30.232,12.914C29.439,13.78 28.257,14.213 26.686,14.213L23.84,14.213ZM26.883,11.491C27.973,11.438 28.517,10.499 28.517,8.675C28.517,7.775 28.379,7.065 28.101,6.544C27.824,6.019 27.45,5.756 26.978,5.756L26.883,5.756L26.883,11.491Z" style="fill:rgb(158,161,168);fill-rule:nonzero;"/>
            <path id="path1029" d="M36.836,7.697L41.083,7.697L41.083,8.164C41.083,10.334 40.759,11.895 40.112,12.849C39.407,13.89 38.363,14.41 36.982,14.41C35.624,14.41 34.559,13.899 33.786,12.878C33.017,11.847 32.633,10.431 32.633,8.631C32.633,6.807 33.02,5.369 33.793,4.319C34.566,3.268 35.624,2.743 36.967,2.743C38.748,2.743 40.039,3.672 40.842,5.53L37.894,6.61C37.85,6.255 37.748,5.975 37.587,5.771C37.432,5.562 37.235,5.457 36.996,5.457C36.16,5.457 35.741,6.607 35.741,8.908C35.741,9.886 35.834,10.596 36.019,11.039C36.203,11.482 36.498,11.703 36.901,11.703C37.062,11.703 37.208,11.664 37.339,11.586C37.471,11.508 37.58,11.399 37.668,11.258C37.76,11.117 37.831,10.947 37.879,10.747C37.933,10.543 37.959,10.317 37.959,10.069L36.836,10.069L36.836,7.697Z" style="fill:rgb(158,161,168);fill-rule:nonzero;"/>
            <path id="path1031" d="M42.374,14.213L42.374,2.947L48.029,2.947L48.029,5.596L45.417,5.596L45.417,7.237L47.759,7.237L47.759,9.784L45.417,9.784L45.417,11.506L48.029,11.506L48.029,14.213L42.374,14.213Z" style="fill:rgb(158,161,168);fill-rule:nonzero;"/>
            <path id="path1033" d="M49.08,13.936L49.08,10.397C49.678,11.214 50.325,11.623 51.021,11.623C51.283,11.623 51.498,11.555 51.663,11.418C51.828,11.277 51.911,11.102 51.911,10.893C51.911,10.592 51.731,10.297 51.371,10.01L50.875,9.623C50.544,9.375 50.262,9.13 50.028,8.886C49.795,8.638 49.605,8.385 49.459,8.128C49.313,7.865 49.206,7.595 49.138,7.318C49.07,7.04 49.036,6.749 49.036,6.442C49.036,5.917 49.158,5.367 49.401,4.793C49.522,4.525 49.664,4.282 49.824,4.063C49.985,3.84 50.169,3.643 50.379,3.472C50.953,2.986 51.646,2.743 52.458,2.743C53.183,2.743 53.913,2.935 54.647,3.319L54.647,6.763C54.399,6.379 54.117,6.077 53.801,5.858C53.485,5.635 53.173,5.523 52.867,5.523C52.633,5.523 52.441,5.591 52.29,5.727C52.135,5.858 52.057,6.016 52.057,6.201C52.057,6.503 52.264,6.802 52.677,7.099L53.159,7.456C53.801,7.918 54.261,8.393 54.538,8.879C54.82,9.366 54.961,9.935 54.961,10.587C54.961,11.696 54.623,12.61 53.947,13.33C53.271,14.05 52.414,14.41 51.378,14.41C50.663,14.41 49.897,14.252 49.08,13.936L49.08,13.936Z" style="fill:rgb(158,161,168);fill-rule:nonzero;"/>
        </g>
        <g id="text1218" transform="matrix(0.860905,0,0,1.16157,2,-5.00001)">
            <path id="path1220" d="M14.665,297.3L14.665,298.403C14.321,298.157 14.011,298.034 13.735,298.034C13.438,298.034 13.195,298.139 13.007,298.349C12.819,298.548 12.724,298.815 12.724,299.148C12.724,299.441 12.791,299.693 12.926,299.903C12.994,300.016 13.107,300.161 13.262,300.338C13.422,300.516 13.627,300.73 13.877,300.98C14.337,301.447 14.65,301.851 14.817,302.192C14.984,302.521 15.067,302.925 15.067,303.404C15.067,304.052 14.884,304.587 14.518,305.007C14.152,305.416 13.683,305.621 13.11,305.621C12.628,305.621 12.217,305.489 11.877,305.224L11.877,304.105C12.279,304.398 12.645,304.545 12.974,304.545C13.282,304.545 13.523,304.443 13.697,304.241C13.871,304.034 13.958,303.755 13.958,303.404C13.958,303.099 13.891,302.826 13.757,302.583C13.688,302.467 13.592,302.335 13.469,302.186C13.346,302.034 13.192,301.865 13.007,301.681C12.721,301.398 12.483,301.148 12.295,300.931C12.107,300.713 11.967,300.523 11.877,300.36C11.703,300.041 11.616,299.639 11.616,299.153C11.616,298.498 11.786,297.978 12.127,297.594C12.471,297.206 12.933,297.012 13.512,297.012C13.915,297.012 14.299,297.108 14.665,297.3L14.665,297.3Z" style="fill:rgb(158,161,168);fill-rule:nonzero;"/>
            <path id="path1222" d="M16.415,297.126L17.382,297.126L18.121,300.55C18.212,300.978 18.293,301.407 18.366,301.838C18.442,302.266 18.511,302.715 18.572,303.186C18.58,303.125 18.585,303.078 18.589,303.045C18.592,303.009 18.596,302.983 18.6,302.969L18.757,302.007L18.899,301.094L19.024,300.49L19.681,297.126L20.66,297.126L21.431,305.518L20.35,305.518L20.16,302.67C20.152,302.525 20.145,302.4 20.138,302.295C20.134,302.19 20.132,302.103 20.132,302.034L20.083,300.909L20.056,299.876C20.056,299.869 20.054,299.855 20.051,299.833C20.051,299.807 20.049,299.775 20.045,299.735L20.018,299.904C19.989,300.103 19.962,300.277 19.937,300.425C19.915,300.574 19.895,300.699 19.877,300.8L19.736,301.567L19.681,301.855L18.975,305.518L18.214,305.518L17.551,302.355C17.46,301.938 17.379,301.516 17.306,301.088C17.237,300.657 17.174,300.206 17.116,299.735L16.79,305.518L15.725,305.518L16.415,297.126Z" style="fill:rgb(158,161,168);fill-rule:nonzero;"/>
            <path id="path1224" d="M26.567,301.529C26.567,303.01 26.403,304.063 26.073,304.686C25.743,305.309 25.191,305.621 24.415,305.621C23.6,305.621 23.026,305.286 22.692,304.616C22.363,303.96 22.198,302.795 22.198,301.121C22.198,299.628 22.361,298.572 22.687,297.952C23.017,297.329 23.575,297.017 24.361,297.017C25.064,297.017 25.585,297.258 25.926,297.74C26.151,298.063 26.314,298.521 26.415,299.115C26.517,299.666 26.567,300.471 26.567,301.529L26.567,301.529ZM25.383,301.648C25.383,300.195 25.317,299.231 25.187,298.757C25.056,298.278 24.79,298.039 24.388,298.039C23.986,298.039 23.718,298.258 23.584,298.697C23.453,299.139 23.388,300.027 23.388,301.36C23.388,302.588 23.457,303.44 23.594,303.915C23.736,304.364 24,304.588 24.388,304.588C24.768,304.588 25.029,304.378 25.171,303.958C25.312,303.541 25.383,302.771 25.383,301.648Z" style="fill:rgb(158,161,168);fill-rule:nonzero;"/>
            <path id="path1226" d="M31.894,301.529C31.894,303.01 31.729,304.063 31.399,304.686C31.069,305.309 30.517,305.621 29.741,305.621C28.926,305.621 28.352,305.286 28.019,304.616C27.689,303.96 27.524,302.795 27.524,301.121C27.524,299.628 27.687,298.572 28.013,297.952C28.343,297.329 28.901,297.017 29.687,297.017C30.39,297.017 30.912,297.258 31.252,297.74C31.477,298.063 31.64,298.521 31.742,299.115C31.843,299.666 31.894,300.471 31.894,301.529L31.894,301.529ZM30.709,301.648C30.709,300.195 30.644,299.231 30.513,298.757C30.383,298.278 30.116,298.039 29.714,298.039C29.312,298.039 29.044,298.258 28.91,298.697C28.779,299.139 28.714,300.027 28.714,301.36C28.714,302.588 28.783,303.44 28.921,303.915C29.062,304.364 29.327,304.588 29.714,304.588C30.095,304.588 30.356,304.378 30.497,303.958C30.638,303.541 30.709,302.771 30.709,301.648L30.709,301.648Z" style="fill:rgb(158,161,168);fill-rule:nonzero;"/>
            <path id="path1228" d="M32.437,297.126L36.117,297.126L36.117,298.115L34.85,298.115L34.85,305.518L33.742,305.518L33.742,298.115L32.437,298.115L32.437,297.126Z" style="fill:rgb(158,161,168);fill-rule:nonzero;"/>
            <path id="path1230" d="M36.736,297.126L37.867,297.126L37.867,300.409L39.524,300.409L39.524,297.126L40.655,297.126L40.655,305.518L39.524,305.518L39.524,301.365L37.867,301.365L37.867,305.518L36.736,305.518L36.736,297.126Z" style="fill:rgb(158,161,168);fill-rule:nonzero;"/>
        </g>
        <g id="g1299">
            <rect id="rect1207" x="0" y="21" width="75" height="137" style="fill:rgb(158,161,168);"/>
            <g id="text1151" transform="matrix(0.914908,0,0,1.09301,0,6)">
                <path id="path1190" d="M9.564,110.543L11.196,110.543C11.871,110.543 12.373,110.704 12.703,111.026C13.12,111.442 13.328,112.08 13.328,112.938C13.328,113.597 13.217,114.127 12.995,114.528C12.776,114.925 12.463,115.171 12.054,115.267L13.745,119.74L12.488,119.74L10.803,115.237L10.803,119.74L9.564,119.74L9.564,110.543ZM10.803,114.617C11.283,114.617 11.623,114.506 11.821,114.284C12.02,114.061 12.119,113.686 12.119,113.158C12.119,112.872 12.097,112.628 12.054,112.425C12.014,112.223 11.948,112.058 11.857,111.931C11.77,111.804 11.655,111.711 11.512,111.651C11.373,111.591 11.206,111.562 11.011,111.562L10.803,111.562L10.803,114.617Z" style="fill:rgb(44,45,48);fill-rule:nonzero;"/>
                <path id="path1192" d="M14.71,110.543L18.004,110.543L18.004,111.591L15.949,111.591L15.949,114.504L17.772,114.504L17.772,115.552L15.949,115.552L15.949,118.691L18.004,118.691L18.004,119.74L14.71,119.74L14.71,110.543Z" style="fill:rgb(44,45,48);fill-rule:nonzero;"/>
                <path id="path1194" d="M22.209,110.734L22.209,111.943C21.832,111.673 21.493,111.538 21.191,111.538C20.865,111.538 20.599,111.653 20.393,111.883C20.186,112.102 20.083,112.394 20.083,112.759C20.083,113.081 20.156,113.357 20.303,113.587C20.379,113.71 20.502,113.869 20.673,114.063C20.847,114.258 21.072,114.492 21.346,114.766C21.85,115.278 22.193,115.721 22.376,116.094C22.559,116.456 22.65,116.899 22.65,117.423C22.65,118.134 22.45,118.719 22.048,119.18C21.647,119.629 21.133,119.853 20.506,119.853C19.978,119.853 19.527,119.708 19.154,119.418L19.154,118.191C19.594,118.513 19.996,118.674 20.357,118.674C20.694,118.674 20.958,118.562 21.149,118.34C21.34,118.114 21.435,117.808 21.435,117.423C21.435,117.089 21.362,116.789 21.215,116.523C21.139,116.396 21.034,116.251 20.899,116.089C20.764,115.922 20.595,115.737 20.393,115.535C20.079,115.225 19.819,114.951 19.612,114.713C19.406,114.474 19.253,114.266 19.154,114.087C18.963,113.738 18.868,113.297 18.868,112.765C18.868,112.046 19.054,111.476 19.428,111.055C19.805,110.63 20.311,110.418 20.947,110.418C21.387,110.418 21.808,110.523 22.209,110.734L22.209,110.734Z" style="fill:rgb(44,45,48);fill-rule:nonzero;"/>
                <path id="path1196" d="M23.692,110.543L26.986,110.543L26.986,111.591L24.931,111.591L24.931,114.504L26.754,114.504L26.754,115.552L24.931,115.552L24.931,118.691L26.986,118.691L26.986,119.74L23.692,119.74L23.692,110.543Z" style="fill:rgb(44,45,48);fill-rule:nonzero;"/>
                <path id="path1198" d="M27.391,110.543L31.424,110.543L31.424,111.627L30.036,111.627L30.036,119.74L28.821,119.74L28.821,111.627L27.391,111.627L27.391,110.543Z" style="fill:rgb(44,45,48);fill-rule:nonzero;"/>
            </g>
            <g id="text991" transform="matrix(0.541531,0,0,1.11987,42.1875,-86.151)">
                <path id="path993" d="M2.885,161.874L4.431,161.874C5.176,161.874 5.717,162.062 6.056,162.438C6.394,162.817 6.563,163.419 6.563,164.243C6.563,165.401 6.223,166.149 5.542,166.488C5.2,166.642 4.705,166.719 4.059,166.719L4.059,170.583L2.885,170.583L2.885,161.874ZM4.059,165.715C4.544,165.715 4.878,165.617 5.063,165.422C5.251,165.222 5.345,164.869 5.345,164.361C5.345,163.842 5.255,163.462 5.074,163.222C4.894,162.981 4.61,162.861 4.222,162.861L4.059,162.861L4.059,165.715Z" style="fill:rgb(44,45,48);fill-rule:nonzero;"/>
                <path id="path995" d="M7.466,161.874L9.011,161.874C9.651,161.874 10.126,162.026 10.439,162.33C10.833,162.725 11.031,163.329 11.031,164.141C11.031,164.765 10.926,165.268 10.715,165.647C10.508,166.023 10.211,166.257 9.824,166.347L11.426,170.583L10.235,170.583L8.639,166.319L8.639,170.583L7.466,170.583L7.466,161.874ZM8.639,165.732C9.094,165.732 9.416,165.627 9.604,165.416C9.792,165.205 9.886,164.85 9.886,164.35C9.886,164.079 9.865,163.848 9.824,163.656C9.786,163.464 9.724,163.308 9.638,163.188C9.555,163.068 9.446,162.979 9.31,162.923C9.179,162.866 9.021,162.838 8.837,162.838L8.639,162.838L8.639,165.732Z" style="fill:rgb(44,45,48);fill-rule:nonzero;"/>
                <path id="path997" d="M16.61,166.443C16.61,167.981 16.439,169.073 16.096,169.72C15.754,170.367 15.181,170.69 14.376,170.69C13.53,170.69 12.934,170.343 12.588,169.647C12.246,168.966 12.074,167.757 12.074,166.02C12.074,164.47 12.244,163.374 12.582,162.731C12.924,162.084 13.503,161.761 14.32,161.761C15.049,161.761 15.591,162.011 15.944,162.511C16.177,162.846 16.347,163.321 16.452,163.938C16.557,164.51 16.61,165.345 16.61,166.443L16.61,166.443ZM15.38,166.567C15.38,165.059 15.312,164.058 15.177,163.566C15.042,163.069 14.765,162.821 14.348,162.821C13.93,162.821 13.652,163.049 13.513,163.504C13.377,163.963 13.31,164.884 13.31,166.268C13.31,167.543 13.381,168.426 13.524,168.919C13.671,169.385 13.945,169.619 14.348,169.619C14.743,169.619 15.013,169.4 15.16,168.964C15.307,168.532 15.38,167.733 15.38,166.567L15.38,166.567Z" style="fill:rgb(44,45,48);fill-rule:nonzero;"/>
                <path id="path999" d="M17.777,161.874L19.368,161.874C20.613,161.874 21.235,162.646 21.235,164.192C21.235,164.782 21.154,165.221 20.993,165.506C20.831,165.792 20.545,166.008 20.135,166.155C20.605,166.343 20.927,166.584 21.1,166.877C21.277,167.167 21.365,167.603 21.365,168.186C21.365,169.784 20.681,170.583 19.312,170.583L17.777,170.583L17.777,161.874ZM18.883,165.709C19.338,165.709 19.654,165.604 19.831,165.394C20.007,165.172 20.096,164.782 20.096,164.226C20.096,163.286 19.757,162.816 19.08,162.816L18.99,162.816L18.939,162.816C18.909,162.816 18.891,162.817 18.883,162.821L18.883,165.709ZM18.883,169.579C19.364,169.579 19.697,169.476 19.881,169.269C20.066,169.062 20.158,168.688 20.158,168.146C20.158,167.59 20.062,167.2 19.87,166.979C19.682,166.753 19.353,166.64 18.883,166.64L18.883,169.579Z" style="fill:rgb(44,45,48);fill-rule:nonzero;"/>
                <path id="path1001" d="M23.825,161.874L24.738,161.874L26.606,170.583L25.443,170.583L25.116,168.885L23.39,168.885L23.057,170.583L21.929,170.583L23.825,161.874ZM24.947,167.977L24.688,166.589C24.515,165.645 24.374,164.638 24.265,163.566C24.212,164.089 24.144,164.619 24.061,165.157C23.979,165.691 23.881,166.258 23.768,166.86L23.554,167.977L24.947,167.977Z" style="fill:rgb(44,45,48);fill-rule:nonzero;"/>
                <path id="path1003" d="M27.299,161.874L28.89,161.874C30.135,161.874 30.757,162.646 30.757,164.192C30.757,164.782 30.676,165.221 30.515,165.506C30.353,165.792 30.067,166.008 29.657,166.155C30.127,166.343 30.449,166.584 30.622,166.877C30.799,167.167 30.887,167.603 30.887,168.186C30.887,169.784 30.203,170.583 28.834,170.583L27.299,170.583L27.299,161.874ZM28.405,165.709C28.86,165.709 29.176,165.604 29.353,165.394C29.529,165.172 29.618,164.782 29.618,164.226C29.618,163.286 29.279,162.816 28.602,162.816L28.512,162.816L28.461,162.816C28.431,162.816 28.412,162.817 28.405,162.821L28.405,165.709ZM28.405,169.579C28.886,169.579 29.219,169.476 29.403,169.269C29.588,169.062 29.68,168.688 29.68,168.146C29.68,167.59 29.584,167.2 29.392,166.979C29.204,166.753 28.875,166.64 28.405,166.64L28.405,169.579Z" style="fill:rgb(44,45,48);fill-rule:nonzero;"/>
                <rect id="path1005" x="32.06" y="161.874" width="1.173" height="8.71" style="fill:rgb(44,45,48);fill-rule:nonzero;"/>
                <path id="path1007" d="M34.587,161.874L35.761,161.874L35.761,169.59L37.679,169.59L37.679,170.583L34.587,170.583L34.587,161.874Z" style="fill:rgb(44,45,48);fill-rule:nonzero;"/>
                <rect id="path1009" x="38.423" y="161.874" width="1.173" height="8.71" style="fill:rgb(44,45,48);fill-rule:nonzero;"/>
                <path id="path1011" d="M40.257,161.874L44.075,161.874L44.075,162.9L42.761,162.9L42.761,170.583L41.61,170.583L41.61,162.9L40.257,162.9L40.257,161.874Z" style="fill:rgb(44,45,48);fill-rule:nonzero;"/>
                <path id="path1013" d="M44.544,161.874L45.785,161.874L46.36,163.769C46.379,163.825 46.398,163.887 46.416,163.955C46.435,164.023 46.458,164.096 46.484,164.175C46.699,164.86 46.845,165.435 46.924,165.901C46.992,165.435 47.048,165.11 47.093,164.925L47.274,164.147L47.342,163.842L47.827,161.874L49.051,161.874L47.533,166.838L47.533,170.583L46.36,170.583L46.36,166.838L44.544,161.874Z" style="fill:rgb(44,45,48);fill-rule:nonzero;"/>
            </g>
            <g id="text963" transform="matrix(0.759676,0,0,1.11761,-0.9375,6.02843)">
                <path id="path983" d="M2.88,79.722L6.706,79.722L6.706,80.751L5.389,80.751L5.389,88.449L4.236,88.449L4.236,80.751L2.88,80.751L2.88,79.722Z" style="fill:rgb(44,45,48);fill-rule:nonzero;"/>
                <path id="path985" d="M8.436,79.722L9.351,79.722L11.222,88.449L10.058,88.449L9.73,86.748L8.001,86.748L7.667,88.449L6.537,88.449L8.436,79.722ZM9.561,85.838L9.301,84.447C9.127,83.501 8.986,82.492 8.877,81.418C8.824,81.941 8.756,82.473 8.673,83.012C8.59,83.547 8.492,84.116 8.379,84.719L8.164,85.838L9.561,85.838Z" style="fill:rgb(44,45,48);fill-rule:nonzero;"/>
                <path id="path987" d="M11.918,79.722L13.466,79.722C14.212,79.722 14.755,79.91 15.094,80.287C15.433,80.668 15.603,81.271 15.603,82.096C15.603,83.256 15.262,84.006 14.58,84.345C14.237,84.5 13.741,84.577 13.093,84.577L13.093,88.449L11.918,88.449L11.918,79.722ZM13.093,83.571C13.579,83.571 13.915,83.473 14.099,83.277C14.288,83.077 14.382,82.723 14.382,82.215C14.382,81.695 14.292,81.314 14.111,81.073C13.93,80.832 13.645,80.711 13.257,80.711L13.093,80.711L13.093,83.571Z" style="fill:rgb(44,45,48);fill-rule:nonzero;"/>
                <rect id="path989" x="18.231" y="85.012" width="2.057" height="0.882" style="fill:rgb(44,45,48);fill-rule:nonzero;"/>
                <path id="path991" d="M22.663,79.722L26.489,79.722L26.489,80.751L25.172,80.751L25.172,88.449L24.019,88.449L24.019,80.751L22.663,80.751L22.663,79.722Z" style="fill:rgb(44,45,48);fill-rule:nonzero;"/>
                <path id="path994" d="M27.134,79.722L28.682,79.722C29.323,79.722 29.8,79.874 30.113,80.18C30.508,80.575 30.706,81.18 30.706,81.994C30.706,82.62 30.601,83.123 30.39,83.503C30.182,83.88 29.885,84.114 29.496,84.204L31.102,88.449L29.909,88.449L28.309,84.176L28.309,88.449L27.134,88.449L27.134,79.722ZM28.309,83.588C28.765,83.588 29.088,83.483 29.276,83.272C29.464,83.061 29.559,82.704 29.559,82.203C29.559,81.932 29.538,81.7 29.496,81.508C29.459,81.316 29.397,81.159 29.31,81.039C29.227,80.918 29.118,80.83 28.982,80.773C28.85,80.717 28.692,80.688 28.507,80.688L28.309,80.688L28.309,83.588Z" style="fill:rgb(44,45,48);fill-rule:nonzero;"/>
                <rect id="path996" x="32.017" y="79.722" width="1.176" height="8.727" style="fill:rgb(44,45,48);fill-rule:nonzero;"/>
                <path id="path998" d="M36.641,83.859L38.778,83.859L38.778,84.199C38.778,85.898 38.629,87.045 38.331,87.641C38.037,88.251 37.487,88.556 36.681,88.556C35.848,88.556 35.254,88.217 34.9,87.539C34.55,86.861 34.374,85.721 34.374,84.119C34.374,82.288 34.567,81.069 34.951,80.462C35.313,79.893 35.869,79.609 36.618,79.609C37.191,79.609 37.638,79.746 37.958,80.021C38.282,80.3 38.535,80.758 38.715,81.395L37.619,81.853C37.57,81.623 37.515,81.431 37.455,81.276C37.395,81.118 37.329,80.996 37.257,80.909C37.114,80.732 36.899,80.643 36.613,80.643C36.221,80.643 35.953,80.884 35.81,81.367C35.667,81.872 35.595,82.778 35.595,84.085C35.595,85.408 35.669,86.303 35.816,86.77C35.963,87.238 36.24,87.471 36.647,87.471C37.02,87.471 37.282,87.305 37.432,86.974C37.587,86.62 37.664,86.051 37.664,85.267L37.664,85.029L37.664,84.854L36.641,84.854L36.641,83.859Z" style="fill:rgb(44,45,48);fill-rule:nonzero;"/>
                <rect id="path1000" x="42.35" y="79.722" width="1.176" height="8.727" style="fill:rgb(44,45,48);fill-rule:nonzero;"/>
                <path id="path1002" d="M44.882,79.722L45.979,79.722L47.149,83.204C47.488,84.187 47.787,85.237 48.047,86.352C47.953,85.678 47.884,85.067 47.838,84.521C47.793,83.974 47.77,83.46 47.77,82.978L47.77,79.722L48.952,79.722L48.952,88.449L47.85,88.449L46.533,84.521C46.412,84.155 46.297,83.78 46.188,83.396C46.082,83.012 45.984,82.608 45.894,82.186C45.886,82.134 45.873,82.069 45.854,81.994C45.839,81.919 45.82,81.832 45.798,81.734C45.809,81.832 45.819,81.917 45.826,81.988C45.834,82.056 45.839,82.115 45.843,82.164L45.905,83.051L45.967,84.131C45.971,84.191 45.973,84.264 45.973,84.351C45.977,84.438 45.979,84.536 45.979,84.645L46.041,88.449L44.882,88.449L44.882,79.722Z" style="fill:rgb(44,45,48);fill-rule:nonzero;"/>
            </g>
            <g id="text967" transform="matrix(1.07387,0,0,1.08427,29.25,-84.1902)">
                <path id="path969" d="M13.511,140.131L15.713,140.131L15.713,140.481C15.713,142.233 15.56,143.415 15.253,144.029C14.95,144.658 14.383,144.973 13.552,144.973C12.693,144.973 12.081,144.623 11.716,143.924C11.355,143.225 11.175,142.05 11.175,140.399C11.175,138.512 11.373,137.255 11.769,136.63C12.142,136.043 12.715,135.75 13.487,135.75C14.078,135.75 14.538,135.892 14.868,136.175C15.202,136.463 15.463,136.935 15.649,137.591L14.519,138.063C14.468,137.826 14.412,137.628 14.35,137.469C14.288,137.306 14.22,137.179 14.146,137.09C13.998,136.907 13.777,136.816 13.482,136.816C13.078,136.816 12.802,137.065 12.654,137.562C12.507,138.082 12.433,139.016 12.433,140.364C12.433,141.728 12.509,142.65 12.66,143.132C12.812,143.613 13.097,143.854 13.517,143.854C13.901,143.854 14.171,143.683 14.326,143.341C14.486,142.976 14.565,142.39 14.565,141.582L14.565,141.337L14.565,141.157L13.511,141.157L13.511,140.131Z" style="fill:rgb(44,45,48);fill-rule:nonzero;"/>
                <path id="path971" d="M18.207,135.866L19.15,135.866L21.079,144.862L19.879,144.862L19.541,143.108L17.758,143.108L17.414,144.862L16.249,144.862L18.207,135.866ZM19.366,142.17L19.098,140.737C18.919,139.762 18.774,138.721 18.661,137.614C18.607,138.154 18.537,138.702 18.451,139.257C18.366,139.809 18.265,140.395 18.148,141.017L17.927,142.17L19.366,142.17Z" style="fill:rgb(44,45,48);fill-rule:nonzero;"/>
                <path id="path973" d="M20.892,135.866L24.837,135.866L24.837,136.927L23.479,136.927L23.479,144.862L22.291,144.862L22.291,136.927L20.892,136.927L20.892,135.866Z" style="fill:rgb(44,45,48);fill-rule:nonzero;"/>
                <path id="path975" d="M25.501,135.866L28.723,135.866L28.723,136.892L26.713,136.892L26.713,139.741L28.496,139.741L28.496,140.766L26.713,140.766L26.713,143.837L28.723,143.837L28.723,144.862L25.501,144.862L25.501,135.866Z" style="fill:rgb(44,45,48);fill-rule:nonzero;"/>
                <rect id="path977" x="32.306" y="135.866" width="1.212" height="8.996" style="fill:rgb(44,45,48);fill-rule:nonzero;"/>
                <path id="path979" d="M34.916,135.866L36.046,135.866L37.252,139.455C37.602,140.469 37.911,141.551 38.179,142.701C38.082,142.005 38.01,141.376 37.963,140.813C37.916,140.25 37.893,139.72 37.893,139.222L37.893,135.866L39.111,135.866L39.111,144.862L37.975,144.862L36.617,140.813C36.493,140.436 36.374,140.05 36.262,139.653C36.153,139.257 36.052,138.842 35.959,138.407C35.951,138.352 35.937,138.286 35.918,138.209C35.903,138.131 35.883,138.042 35.86,137.941C35.871,138.042 35.881,138.129 35.889,138.203C35.897,138.273 35.903,138.333 35.906,138.383L35.97,139.298L36.035,140.411C36.038,140.473 36.04,140.549 36.04,140.638C36.044,140.727 36.046,140.828 36.046,140.941L36.11,144.862L34.916,144.862L34.916,135.866Z" style="fill:rgb(44,45,48);fill-rule:nonzero;"/>
            </g>
            <g id="text1038" transform="matrix(0.8163,0,0,1.07191,-0.9375,12)">
                <path id="path1041" d="M5.042,52.014L7.268,52.014L7.268,52.367C7.268,54.138 7.113,55.333 6.803,55.954C6.496,56.59 5.923,56.908 5.083,56.908C4.215,56.908 3.597,56.554 3.228,55.848C2.862,55.141 2.68,53.953 2.68,52.284C2.68,50.376 2.88,49.106 3.281,48.474C3.657,47.881 4.237,47.585 5.018,47.585C5.615,47.585 6.08,47.728 6.414,48.014C6.751,48.305 7.015,48.782 7.203,49.446L6.06,49.923C6.009,49.683 5.952,49.483 5.89,49.322C5.827,49.157 5.758,49.029 5.683,48.939C5.534,48.755 5.31,48.662 5.012,48.662C4.604,48.662 4.325,48.914 4.176,49.416C4.027,49.942 3.952,50.887 3.952,52.249C3.952,53.627 4.028,54.56 4.182,55.047C4.335,55.534 4.623,55.777 5.047,55.777C5.436,55.777 5.709,55.604 5.866,55.259C6.027,54.89 6.108,54.297 6.108,53.48L6.108,53.233L6.108,53.05L5.042,53.05L5.042,52.014Z" style="fill:rgb(44,45,48);fill-rule:nonzero;"/>
                <path id="path1043" d="M9.789,47.702L10.743,47.702L12.692,56.796L11.479,56.796L11.137,55.023L9.335,55.023L8.988,56.796L7.81,56.796L9.789,47.702ZM10.961,54.075L10.69,52.626C10.509,51.641 10.362,50.588 10.248,49.469C10.193,50.015 10.122,50.569 10.036,51.13C9.95,51.688 9.847,52.281 9.73,52.909L9.506,54.075L10.961,54.075Z" style="fill:rgb(44,45,48);fill-rule:nonzero;"/>
                <path id="path1045" d="M12.504,47.702L16.491,47.702L16.491,48.774L15.119,48.774L15.119,56.796L13.917,56.796L13.917,48.774L12.504,48.774L12.504,47.702Z" style="fill:rgb(44,45,48);fill-rule:nonzero;"/>
                <path id="path1048" d="M17.162,47.702L20.419,47.702L20.419,48.739L18.387,48.739L18.387,51.619L20.19,51.619L20.19,52.655L18.387,52.655L18.387,55.759L20.419,55.759L20.419,56.796L17.162,56.796L17.162,47.702Z" style="fill:rgb(44,45,48);fill-rule:nonzero;"/>
                <path id="path1050" d="M24.471,47.702L25.52,47.702L26.321,51.413C26.419,51.876 26.507,52.341 26.586,52.809C26.668,53.272 26.743,53.759 26.81,54.269C26.817,54.203 26.823,54.151 26.827,54.116C26.831,54.077 26.835,54.049 26.839,54.034L27.01,52.991L27.163,52.002L27.298,51.348L28.011,47.702L29.071,47.702L29.907,56.796L28.735,56.796L28.529,53.71C28.521,53.553 28.514,53.417 28.506,53.303C28.502,53.189 28.5,53.095 28.5,53.021L28.447,51.801L28.417,50.682C28.417,50.675 28.415,50.659 28.411,50.635C28.411,50.608 28.41,50.573 28.406,50.529L28.376,50.712C28.345,50.928 28.315,51.116 28.288,51.277C28.264,51.438 28.243,51.574 28.223,51.684L28.07,52.514L28.011,52.826L27.245,56.796L26.421,56.796L25.702,53.368C25.604,52.917 25.516,52.459 25.437,51.996C25.363,51.529 25.294,51.04 25.231,50.529L24.878,56.796L23.723,56.796L24.471,47.702Z" style="fill:rgb(44,45,48);fill-rule:nonzero;"/>
                <path id="path1052" d="M35.473,52.473C35.473,54.079 35.294,55.219 34.937,55.895C34.58,56.57 33.981,56.908 33.141,56.908C32.257,56.908 31.635,56.545 31.274,55.818C30.917,55.108 30.738,53.845 30.738,52.031C30.738,50.414 30.915,49.269 31.268,48.598C31.625,47.922 32.23,47.585 33.082,47.585C33.844,47.585 34.409,47.846 34.778,48.368C35.022,48.717 35.198,49.214 35.308,49.858C35.418,50.455 35.473,51.326 35.473,52.473L35.473,52.473ZM34.189,52.602C34.189,51.028 34.119,49.984 33.977,49.469C33.836,48.951 33.547,48.692 33.111,48.692C32.676,48.692 32.385,48.929 32.24,49.404C32.098,49.883 32.028,50.845 32.028,52.29C32.028,53.621 32.102,54.544 32.252,55.058C32.405,55.545 32.691,55.789 33.111,55.789C33.524,55.789 33.806,55.561 33.96,55.106C34.113,54.654 34.189,53.82 34.189,52.602L34.189,52.602Z" style="fill:rgb(44,45,48);fill-rule:nonzero;"/>
                <path id="path1054" d="M36.692,47.702L38.2,47.702C38.659,47.702 39.046,47.753 39.36,47.855C39.651,47.954 39.91,48.128 40.138,48.38C40.479,48.757 40.723,49.247 40.868,49.852C41.013,50.437 41.086,51.275 41.086,52.367C41.086,53.368 41.005,54.185 40.844,54.817C40.687,55.422 40.428,55.883 40.067,56.201C39.623,56.598 38.828,56.796 37.682,56.796L36.692,56.796L36.692,47.702ZM37.917,55.724C38.663,55.724 39.162,55.498 39.413,55.047C39.672,54.595 39.802,53.718 39.802,52.414C39.802,51.012 39.678,50.048 39.431,49.522C39.184,48.996 38.73,48.733 38.07,48.733L37.917,48.733L37.917,55.724Z" style="fill:rgb(44,45,48);fill-rule:nonzero;"/>
                <path id="path1056" d="M42.299,47.702L45.556,47.702L45.556,48.739L43.524,48.739L43.524,51.619L45.326,51.619L45.326,52.655L43.524,52.655L43.524,55.759L45.556,55.759L45.556,56.796L42.299,56.796L42.299,47.702Z" style="fill:rgb(44,45,48);fill-rule:nonzero;"/>
            </g>
            <g id="text1160" transform="matrix(1.22301,0,0,1.09021,7.5,4)">
                <path id="path1181" d="M8.177,17.549L9.81,17.549C11.087,17.549 11.726,18.343 11.726,19.929C11.726,20.536 11.643,20.985 11.477,21.279C11.311,21.572 11.018,21.794 10.597,21.945C11.08,22.138 11.41,22.385 11.587,22.686C11.769,22.983 11.859,23.431 11.859,24.029C11.859,25.67 11.157,26.49 9.752,26.49L8.177,26.49L8.177,17.549ZM9.312,21.487C9.779,21.487 10.103,21.379 10.284,21.163C10.466,20.935 10.557,20.536 10.557,19.964C10.557,18.999 10.209,18.517 9.514,18.517L9.422,18.517L9.369,18.517C9.339,18.517 9.319,18.518 9.312,18.522L9.312,21.487ZM9.312,25.46C9.806,25.46 10.147,25.353 10.337,25.141C10.526,24.929 10.62,24.545 10.62,23.989C10.62,23.417 10.522,23.018 10.325,22.79C10.132,22.558 9.794,22.443 9.312,22.443L9.312,25.46Z" style="fill:rgb(44,45,48);fill-rule:nonzero;"/>
                <path id="path1183" d="M13.064,17.549L14.651,17.549C15.307,17.549 15.795,17.706 16.116,18.019C16.521,18.424 16.724,19.043 16.724,19.877C16.724,20.518 16.616,21.034 16.399,21.424C16.187,21.81 15.882,22.049 15.484,22.142L17.129,26.49L15.907,26.49L14.268,22.113L14.268,26.49L13.064,26.49L13.064,17.549ZM14.268,21.51C14.736,21.51 15.066,21.402 15.259,21.186C15.452,20.97 15.548,20.605 15.548,20.092C15.548,19.814 15.527,19.576 15.485,19.379C15.446,19.182 15.382,19.022 15.293,18.899C15.208,18.775 15.097,18.684 14.958,18.627C14.822,18.569 14.66,18.54 14.471,18.54L14.268,18.54L14.268,21.51Z" style="fill:rgb(44,45,48);fill-rule:nonzero;"/>
                <rect id="path1185" x="18.067" y="17.549" width="1.204" height="8.941" style="fill:rgb(44,45,48);fill-rule:nonzero;"/>
                <path id="path1187" d="M20.661,17.549L22.144,17.549C22.596,17.549 22.976,17.6 23.285,17.7C23.57,17.797 23.825,17.968 24.049,18.215C24.385,18.586 24.624,19.069 24.767,19.663C24.91,20.238 24.981,21.063 24.981,22.136C24.981,23.12 24.902,23.923 24.744,24.545C24.59,25.139 24.335,25.593 23.98,25.906C23.543,26.295 22.762,26.49 21.634,26.49L20.661,26.49L20.661,17.549ZM21.866,25.437C22.599,25.437 23.09,25.215 23.337,24.771C23.592,24.327 23.719,23.464 23.719,22.182C23.719,20.804 23.597,19.856 23.354,19.339C23.111,18.822 22.665,18.563 22.016,18.563L21.866,18.563L21.866,25.437Z" style="fill:rgb(44,45,48);fill-rule:nonzero;"/>
                <path id="path1189" d="M28.317,21.788L30.506,21.788L30.506,22.136C30.506,23.877 30.353,25.052 30.048,25.662C29.747,26.288 29.184,26.6 28.357,26.6C27.504,26.6 26.896,26.253 26.533,25.558C26.174,24.863 25.995,23.695 25.995,22.055C25.995,20.178 26.192,18.93 26.585,18.308C26.956,17.725 27.525,17.434 28.294,17.434C28.88,17.434 29.338,17.575 29.666,17.856C29.998,18.142 30.257,18.611 30.442,19.264L29.319,19.733C29.268,19.497 29.212,19.3 29.151,19.142C29.089,18.98 29.021,18.854 28.948,18.766C28.801,18.584 28.581,18.493 28.288,18.493C27.886,18.493 27.612,18.74 27.466,19.235C27.319,19.752 27.246,20.68 27.246,22.02C27.246,23.375 27.321,24.292 27.471,24.771C27.622,25.249 27.906,25.489 28.323,25.489C28.705,25.489 28.973,25.319 29.128,24.979C29.286,24.616 29.365,24.033 29.365,23.23L29.365,22.987L29.365,22.807L28.317,22.807L28.317,21.788Z" style="fill:rgb(44,45,48);fill-rule:nonzero;"/>
                <path id="path1191" d="M31.71,17.549L34.913,17.549L34.913,18.569L32.915,18.569L32.915,21.4L34.687,21.4L34.687,22.42L32.915,22.42L32.915,25.471L34.913,25.471L34.913,26.49L31.71,26.49L31.71,17.549Z" style="fill:rgb(44,45,48);fill-rule:nonzero;"/>
                <path id="path1193" d="M38.844,17.549L40.883,17.549L40.883,26.49L39.73,26.49L39.73,18.574L38.844,18.574L38.844,17.549Z" style="fill:rgb(44,45,48);fill-rule:nonzero;"/>
            </g>
            <g id="text1170" transform="matrix(0.773811,0,0,1.2923,0,6)">
                <path id="path1173" d="M60.589,97.576C60.589,98.949 60.436,99.925 60.13,100.503C59.825,101.08 59.313,101.369 58.594,101.369C57.838,101.369 57.306,101.059 56.997,100.437C56.691,99.829 56.538,98.75 56.538,97.198C56.538,95.814 56.689,94.835 56.992,94.261C57.297,93.683 57.815,93.394 58.543,93.394C59.195,93.394 59.679,93.618 59.994,94.064C60.203,94.363 60.354,94.788 60.448,95.339C60.542,95.849 60.589,96.595 60.589,97.576L60.589,97.576ZM59.491,97.687C59.491,96.34 59.43,95.446 59.309,95.006C59.188,94.563 58.941,94.341 58.569,94.341C58.196,94.341 57.947,94.545 57.823,94.951C57.702,95.361 57.642,96.184 57.642,97.42C57.642,98.558 57.705,99.347 57.833,99.787C57.964,100.204 58.209,100.412 58.569,100.412C58.921,100.412 59.163,100.217 59.294,99.828C59.425,99.441 59.49,98.728 59.49,97.687L59.491,97.687Z" style="fill:rgb(44,45,48);fill-rule:nonzero;"/>
                <path id="path1175" d="M61.632,93.495L62.609,93.495L63.652,96.598C63.954,97.475 64.221,98.41 64.453,99.405C64.369,98.803 64.307,98.259 64.266,97.772C64.226,97.285 64.206,96.827 64.206,96.397L64.206,93.495L65.259,93.495L65.259,101.274L64.276,101.274L63.103,97.772C62.995,97.446 62.893,97.112 62.795,96.77C62.701,96.427 62.614,96.068 62.533,95.692C62.527,95.645 62.515,95.588 62.498,95.52C62.485,95.453 62.468,95.376 62.448,95.289C62.458,95.376 62.466,95.452 62.473,95.515C62.48,95.576 62.485,95.628 62.488,95.671L62.544,96.462L62.599,97.425C62.602,97.478 62.604,97.544 62.604,97.621C62.607,97.698 62.609,97.786 62.609,97.883L62.664,101.274L61.632,101.274L61.632,93.495Z" style="fill:rgb(44,45,48);fill-rule:nonzero;"/>
                <path id="path1177" d="M66.468,93.495L69.254,93.495L69.254,94.382L67.516,94.382L67.516,96.845L69.057,96.845L69.057,97.732L67.516,97.732L67.516,100.387L69.254,100.387L69.254,101.274L66.468,101.274L66.468,93.495Z" style="fill:rgb(44,45,48);fill-rule:nonzero;"/>
                <path id="path1179" d="M74.947,93.656L74.947,94.679C74.628,94.451 74.34,94.336 74.085,94.336C73.81,94.336 73.585,94.434 73.41,94.629C73.235,94.813 73.148,95.06 73.148,95.369C73.148,95.641 73.21,95.875 73.334,96.069C73.398,96.174 73.502,96.308 73.647,96.472C73.795,96.637 73.984,96.835 74.216,97.067C74.643,97.5 74.933,97.875 75.088,98.19C75.242,98.496 75.319,98.87 75.319,99.314C75.319,99.915 75.15,100.41 74.811,100.8C74.471,101.18 74.036,101.369 73.506,101.369C73.059,101.369 72.678,101.247 72.362,101.002L72.362,99.964C72.735,100.236 73.074,100.372 73.38,100.372C73.665,100.372 73.889,100.278 74.05,100.09C74.211,99.898 74.292,99.64 74.292,99.314C74.292,99.032 74.23,98.778 74.105,98.553C74.041,98.446 73.952,98.323 73.838,98.185C73.724,98.044 73.581,97.888 73.41,97.717C73.145,97.455 72.925,97.223 72.75,97.022C72.575,96.82 72.446,96.644 72.362,96.493C72.201,96.197 72.12,95.824 72.12,95.374C72.12,94.766 72.278,94.284 72.594,93.928C72.913,93.569 73.341,93.389 73.879,93.389C74.251,93.389 74.607,93.478 74.947,93.656L74.947,93.656Z" style="fill:rgb(44,45,48);fill-rule:nonzero;"/>
                <path id="path1182" d="M76.201,93.495L77.249,93.495L77.249,96.538L78.785,96.538L78.785,93.495L79.833,93.495L79.833,101.274L78.785,101.274L78.785,97.425L77.249,97.425L77.249,101.274L76.201,101.274L76.201,93.495Z" style="fill:rgb(44,45,48);fill-rule:nonzero;"/>
                <path id="path1184" d="M84.932,97.576C84.932,98.949 84.779,99.925 84.473,100.503C84.167,101.08 83.655,101.369 82.937,101.369C82.181,101.369 81.649,101.059 81.34,100.437C81.034,99.829 80.881,98.75 80.881,97.198C80.881,95.814 81.032,94.835 81.335,94.261C81.64,93.683 82.157,93.394 82.886,93.394C83.538,93.394 84.021,93.618 84.337,94.064C84.545,94.363 84.696,94.788 84.791,95.339C84.885,95.849 84.932,96.595 84.932,97.576L84.932,97.576ZM83.833,97.687C83.833,96.34 83.773,95.446 83.652,95.006C83.531,94.563 83.284,94.341 82.911,94.341C82.539,94.341 82.29,94.545 82.166,94.951C82.045,95.361 81.984,96.184 81.984,97.42C81.984,98.558 82.048,99.347 82.176,99.787C82.307,100.204 82.552,100.412 82.911,100.412C83.264,100.412 83.506,100.217 83.637,99.828C83.768,99.441 83.833,98.728 83.833,97.687L83.833,97.687Z" style="fill:rgb(44,45,48);fill-rule:nonzero;"/>
                <path id="path1186" d="M85.435,93.495L88.846,93.495L88.846,94.412L87.672,94.412L87.672,101.274L86.644,101.274L86.644,94.412L85.435,94.412L85.435,93.495Z" style="fill:rgb(44,45,48);fill-rule:nonzero;"/>
            </g>
        </g>
        <g id="text1156-1" transform="matrix(0.72953,0,0,1.1994,0.25,-30)">
            <path id="path1173-7" d="M4.511,295.773L6.502,295.773L6.502,296.089C6.502,297.672 6.363,298.741 6.086,299.296C5.812,299.865 5.299,300.149 4.548,300.149C3.772,300.149 3.219,299.833 2.889,299.201C2.562,298.569 2.399,297.507 2.399,296.015C2.399,294.309 2.578,293.173 2.936,292.607C3.273,292.077 3.791,291.812 4.49,291.812C5.023,291.812 5.44,291.94 5.738,292.196C6.04,292.456 6.275,292.883 6.444,293.476L5.422,293.903C5.376,293.689 5.325,293.51 5.269,293.366C5.213,293.218 5.152,293.104 5.085,293.023C4.951,292.858 4.751,292.776 4.484,292.776C4.119,292.776 3.87,293.001 3.737,293.45C3.603,293.92 3.536,294.765 3.536,295.983C3.536,297.216 3.605,298.05 3.742,298.485C3.879,298.921 4.137,299.138 4.516,299.138C4.864,299.138 5.108,298.984 5.248,298.675C5.392,298.345 5.464,297.814 5.464,297.084L5.464,296.863L5.464,296.7L4.511,296.7L4.511,295.773Z" style="fill:rgb(158,161,168);fill-rule:nonzero;"/>
            <path id="path1175-3" d="M7.597,291.917L8.693,291.917L8.693,299.122L10.483,299.122L10.483,300.049L7.597,300.049L7.597,291.917Z" style="fill:rgb(158,161,168);fill-rule:nonzero;"/>
            <path id="path1178-8" d="M15.25,296.184C15.25,297.62 15.09,298.64 14.771,299.244C14.451,299.848 13.916,300.149 13.164,300.149C12.374,300.149 11.818,299.825 11.495,299.175C11.175,298.54 11.015,297.411 11.015,295.789C11.015,294.342 11.173,293.318 11.489,292.718C11.809,292.114 12.35,291.812 13.112,291.812C13.793,291.812 14.298,292.045 14.629,292.512C14.846,292.825 15.004,293.269 15.103,293.845C15.201,294.379 15.25,295.158 15.25,296.184L15.25,296.184ZM14.102,296.299C14.102,294.891 14.039,293.957 13.912,293.497C13.786,293.034 13.528,292.802 13.138,292.802C12.748,292.802 12.488,293.015 12.358,293.439C12.232,293.868 12.169,294.728 12.169,296.02C12.169,297.211 12.236,298.036 12.369,298.496C12.506,298.931 12.762,299.149 13.138,299.149C13.507,299.149 13.759,298.945 13.896,298.538C14.033,298.134 14.102,297.388 14.102,296.299L14.102,296.299Z" style="fill:rgb(158,161,168);fill-rule:nonzero;"/>
            <path id="path1180" d="M16.34,291.917L17.826,291.917C18.988,291.917 19.569,292.639 19.569,294.082C19.569,294.633 19.493,295.042 19.342,295.309C19.191,295.576 18.925,295.778 18.542,295.915C18.981,296.09 19.281,296.315 19.442,296.589C19.607,296.859 19.69,297.267 19.69,297.811C19.69,299.303 19.051,300.049 17.773,300.049L16.34,300.049L16.34,291.917ZM17.373,295.499C17.797,295.499 18.092,295.401 18.257,295.204C18.422,294.997 18.505,294.633 18.505,294.114C18.505,293.236 18.189,292.797 17.557,292.797L17.473,292.797L17.425,292.797C17.397,292.797 17.38,292.799 17.373,292.802L17.373,295.499ZM17.373,299.112C17.822,299.112 18.133,299.015 18.305,298.822C18.477,298.629 18.563,298.28 18.563,297.774C18.563,297.254 18.473,296.891 18.294,296.684C18.119,296.473 17.811,296.368 17.373,296.368L17.373,299.112Z" style="fill:rgb(158,161,168);fill-rule:nonzero;"/>
            <path id="path1183-7" d="M21.986,291.917L22.84,291.917L24.583,300.049L23.498,300.049L23.192,298.464L21.581,298.464L21.27,300.049L20.217,300.049L21.986,291.917ZM23.034,297.616L22.792,296.32C22.631,295.439 22.499,294.498 22.397,293.497C22.348,293.985 22.285,294.481 22.208,294.983C22.13,295.481 22.039,296.011 21.934,296.573L21.734,297.616L23.034,297.616Z" style="fill:rgb(158,161,168);fill-rule:nonzero;"/>
            <path id="path1185-0" d="M25.231,291.917L26.326,291.917L26.326,299.122L28.117,299.122L28.117,300.049L25.231,300.049L25.231,291.917Z" style="fill:rgb(158,161,168);fill-rule:nonzero;"/>
            <path id="path1187-3" d="M31.045,291.917L32.489,291.917C33.085,291.917 33.53,292.06 33.821,292.344C34.19,292.713 34.374,293.276 34.374,294.035C34.374,294.617 34.276,295.086 34.079,295.441C33.886,295.792 33.609,296.01 33.247,296.094L34.743,300.049L33.631,300.049L32.141,296.068L32.141,300.049L31.045,300.049L31.045,291.917ZM32.141,295.52C32.566,295.52 32.866,295.422 33.042,295.225C33.217,295.028 33.305,294.696 33.305,294.229C33.305,293.977 33.286,293.761 33.247,293.582C33.212,293.403 33.154,293.257 33.073,293.145C32.996,293.032 32.894,292.95 32.768,292.897C32.645,292.844 32.497,292.818 32.325,292.818L32.141,292.818L32.141,295.52Z" style="fill:rgb(158,161,168);fill-rule:nonzero;"/>
            <path id="path1189-6" d="M35.596,291.917L38.509,291.917L38.509,292.844L36.692,292.844L36.692,295.42L38.303,295.42L38.303,296.347L36.692,296.347L36.692,299.122L38.509,299.122L38.509,300.049L35.596,300.049L35.596,291.917Z" style="fill:rgb(158,161,168);fill-rule:nonzero;"/>
            <path id="path1191-9" d="M42.227,292.086L42.227,293.155C41.893,292.916 41.593,292.797 41.326,292.797C41.038,292.797 40.803,292.899 40.621,293.102C40.438,293.296 40.347,293.554 40.347,293.877C40.347,294.161 40.412,294.405 40.542,294.609C40.608,294.718 40.717,294.858 40.868,295.03C41.023,295.202 41.221,295.409 41.463,295.652C41.909,296.105 42.213,296.496 42.375,296.826C42.536,297.146 42.617,297.537 42.617,298.001C42.617,298.629 42.439,299.147 42.085,299.554C41.73,299.951 41.275,300.15 40.721,300.15C40.254,300.15 39.855,300.021 39.525,299.765L39.525,298.68C39.915,298.964 40.269,299.107 40.589,299.107C40.887,299.107 41.121,299.008 41.29,298.812C41.458,298.612 41.542,298.341 41.542,298.001C41.542,297.706 41.477,297.441 41.347,297.205C41.281,297.093 41.188,296.965 41.068,296.821C40.949,296.673 40.8,296.51 40.621,296.331C40.343,296.057 40.113,295.815 39.931,295.604C39.748,295.394 39.613,295.209 39.525,295.051C39.357,294.742 39.272,294.352 39.272,293.882C39.272,293.246 39.437,292.742 39.767,292.37C40.101,291.995 40.549,291.807 41.11,291.807C41.5,291.807 41.872,291.9 42.227,292.086L42.227,292.086Z" style="fill:rgb(158,161,168);fill-rule:nonzero;"/>
            <path id="path1193-1" d="M43.538,291.917L46.451,291.917L46.451,292.844L44.634,292.844L44.634,295.42L46.246,295.42L46.246,296.347L44.634,296.347L44.634,299.122L46.451,299.122L46.451,300.049L43.538,300.049L43.538,291.917Z" style="fill:rgb(158,161,168);fill-rule:nonzero;"/>
            <path id="path1195" d="M46.809,291.917L50.375,291.917L50.375,292.876L49.148,292.876L49.148,300.049L48.073,300.049L48.073,292.876L46.809,292.876L46.809,291.917Z" style="fill:rgb(158,161,168);fill-rule:nonzero;"/>
        </g>
        <g id="g1587">
            <rect id="rect1301" x="0" y="171" width="75" height="137" style="fill:rgb(158,161,168);"/>
            <g id="g1313" transform="matrix(0.914908,0,0,1.09301,0,156)">
                <path id="path1303" d="M9.564,110.543L11.196,110.543C11.871,110.543 12.373,110.704 12.703,111.026C13.12,111.442 13.328,112.08 13.328,112.938C13.328,113.597 13.217,114.127 12.995,114.528C12.776,114.925 12.463,115.171 12.054,115.267L13.745,119.74L12.488,119.74L10.803,115.237L10.803,119.74L9.564,119.74L9.564,110.543ZM10.803,114.617C11.283,114.617 11.623,114.506 11.821,114.284C12.02,114.061 12.119,113.686 12.119,113.158C12.119,112.872 12.097,112.628 12.054,112.425C12.014,112.223 11.948,112.058 11.857,111.931C11.77,111.804 11.655,111.711 11.512,111.651C11.373,111.591 11.206,111.562 11.011,111.562L10.803,111.562L10.803,114.617Z" style="fill:rgb(44,45,48);fill-rule:nonzero;"/>
                <path id="path1305" d="M14.71,110.543L18.004,110.543L18.004,111.591L15.949,111.591L15.949,114.504L17.772,114.504L17.772,115.552L15.949,115.552L15.949,118.691L18.004,118.691L18.004,119.74L14.71,119.74L14.71,110.543Z" style="fill:rgb(44,45,48);fill-rule:nonzero;"/>
                <path id="path1307" d="M22.209,110.734L22.209,111.943C21.832,111.673 21.493,111.538 21.191,111.538C20.865,111.538 20.599,111.653 20.393,111.883C20.186,112.102 20.083,112.394 20.083,112.759C20.083,113.081 20.156,113.357 20.303,113.587C20.379,113.71 20.502,113.869 20.673,114.063C20.847,114.258 21.072,114.492 21.346,114.766C21.85,115.278 22.193,115.721 22.376,116.094C22.559,116.456 22.65,116.899 22.65,117.423C22.65,118.134 22.45,118.719 22.048,119.18C21.647,119.629 21.133,119.853 20.506,119.853C19.978,119.853 19.527,119.708 19.154,119.418L19.154,118.191C19.594,118.513 19.996,118.674 20.357,118.674C20.694,118.674 20.958,118.562 21.149,118.34C21.34,118.114 21.435,117.808 21.435,117.423C21.435,117.089 21.362,116.789 21.215,116.523C21.139,116.396 21.034,116.251 20.899,116.089C20.764,115.922 20.595,115.737 20.393,115.535C20.079,115.225 19.819,114.951 19.612,114.713C19.406,114.474 19.253,114.266 19.154,114.087C18.963,113.738 18.868,113.297 18.868,112.765C18.868,112.046 19.054,111.476 19.428,111.055C19.805,110.63 20.311,110.418 20.947,110.418C21.387,110.418 21.808,110.523 22.209,110.734L22.209,110.734Z" style="fill:rgb(44,45,48);fill-rule:nonzero;"/>
                <path id="path1309" d="M23.692,110.543L26.986,110.543L26.986,111.591L24.931,111.591L24.931,114.504L26.754,114.504L26.754,115.552L24.931,115.552L24.931,118.691L26.986,118.691L26.986,119.74L23.692,119.74L23.692,110.543Z" style="fill:rgb(44,45,48);fill-rule:nonzero;"/>
                <path id="path1311" d="M27.391,110.543L31.424,110.543L31.424,111.627L30.036,111.627L30.036,119.74L28.821,119.74L28.821,111.627L27.391,111.627L27.391,110.543Z" style="fill:rgb(44,45,48);fill-rule:nonzero;"/>
            </g>
            <g id="g1338" transform="matrix(0.541531,0,0,1.11987,42.1875,63.849)">
                <path id="path1315" d="M2.885,161.874L4.431,161.874C5.176,161.874 5.717,162.062 6.056,162.438C6.394,162.817 6.563,163.419 6.563,164.243C6.563,165.401 6.223,166.149 5.542,166.488C5.2,166.642 4.705,166.719 4.059,166.719L4.059,170.583L2.885,170.583L2.885,161.874ZM4.059,165.715C4.544,165.715 4.878,165.617 5.063,165.422C5.251,165.222 5.345,164.869 5.345,164.361C5.345,163.842 5.255,163.462 5.074,163.222C4.894,162.981 4.61,162.861 4.222,162.861L4.059,162.861L4.059,165.715Z" style="fill:rgb(44,45,48);fill-rule:nonzero;"/>
                <path id="path1318" d="M7.466,161.874L9.011,161.874C9.651,161.874 10.126,162.026 10.439,162.33C10.833,162.725 11.031,163.329 11.031,164.141C11.031,164.765 10.926,165.268 10.715,165.647C10.508,166.023 10.211,166.257 9.824,166.347L11.426,170.583L10.235,170.583L8.639,166.319L8.639,170.583L7.466,170.583L7.466,161.874ZM8.639,165.732C9.094,165.732 9.416,165.627 9.604,165.416C9.792,165.205 9.886,164.85 9.886,164.35C9.886,164.079 9.865,163.848 9.824,163.656C9.786,163.464 9.724,163.308 9.638,163.188C9.555,163.068 9.446,162.979 9.31,162.923C9.179,162.866 9.021,162.838 8.837,162.838L8.639,162.838L8.639,165.732Z" style="fill:rgb(44,45,48);fill-rule:nonzero;"/>
                <path id="path1320" d="M16.61,166.443C16.61,167.981 16.439,169.073 16.096,169.72C15.754,170.367 15.181,170.69 14.376,170.69C13.53,170.69 12.934,170.343 12.588,169.647C12.246,168.966 12.074,167.757 12.074,166.02C12.074,164.47 12.244,163.374 12.582,162.731C12.924,162.084 13.503,161.761 14.32,161.761C15.049,161.761 15.591,162.011 15.944,162.511C16.177,162.846 16.347,163.321 16.452,163.938C16.557,164.51 16.61,165.345 16.61,166.443L16.61,166.443ZM15.38,166.567C15.38,165.059 15.312,164.058 15.177,163.566C15.042,163.069 14.765,162.821 14.348,162.821C13.93,162.821 13.652,163.049 13.513,163.504C13.377,163.963 13.31,164.884 13.31,166.268C13.31,167.543 13.381,168.426 13.524,168.919C13.671,169.385 13.945,169.619 14.348,169.619C14.743,169.619 15.013,169.4 15.16,168.964C15.307,168.532 15.38,167.733 15.38,166.567L15.38,166.567Z" style="fill:rgb(44,45,48);fill-rule:nonzero;"/>
                <path id="path1322" d="M17.777,161.874L19.368,161.874C20.613,161.874 21.235,162.646 21.235,164.192C21.235,164.782 21.154,165.221 20.993,165.506C20.831,165.792 20.545,166.008 20.135,166.155C20.605,166.343 20.927,166.584 21.1,166.877C21.277,167.167 21.365,167.603 21.365,168.186C21.365,169.784 20.681,170.583 19.312,170.583L17.777,170.583L17.777,161.874ZM18.883,165.709C19.338,165.709 19.654,165.604 19.831,165.394C20.007,165.172 20.096,164.782 20.096,164.226C20.096,163.286 19.757,162.816 19.08,162.816L18.99,162.816L18.939,162.816C18.909,162.816 18.891,162.817 18.883,162.821L18.883,165.709ZM18.883,169.579C19.364,169.579 19.697,169.476 19.881,169.269C20.066,169.062 20.158,168.688 20.158,168.146C20.158,167.59 20.062,167.2 19.87,166.979C19.682,166.753 19.353,166.64 18.883,166.64L18.883,169.579Z" style="fill:rgb(44,45,48);fill-rule:nonzero;"/>
                <path id="path1324" d="M23.825,161.874L24.738,161.874L26.606,170.583L25.443,170.583L25.116,168.885L23.39,168.885L23.057,170.583L21.929,170.583L23.825,161.874ZM24.947,167.977L24.688,166.589C24.515,165.645 24.374,164.638 24.265,163.566C24.212,164.089 24.144,164.619 24.061,165.157C23.979,165.691 23.881,166.258 23.768,166.86L23.554,167.977L24.947,167.977Z" style="fill:rgb(44,45,48);fill-rule:nonzero;"/>
                <path id="path1326" d="M27.299,161.874L28.89,161.874C30.135,161.874 30.757,162.646 30.757,164.192C30.757,164.782 30.676,165.221 30.515,165.506C30.353,165.792 30.067,166.008 29.657,166.155C30.127,166.343 30.449,166.584 30.622,166.877C30.799,167.167 30.887,167.603 30.887,168.186C30.887,169.784 30.203,170.583 28.834,170.583L27.299,170.583L27.299,161.874ZM28.405,165.709C28.86,165.709 29.176,165.604 29.353,165.394C29.529,165.172 29.618,164.782 29.618,164.226C29.618,163.286 29.279,162.816 28.602,162.816L28.512,162.816L28.461,162.816C28.431,162.816 28.412,162.817 28.405,162.821L28.405,165.709ZM28.405,169.579C28.886,169.579 29.219,169.476 29.403,169.269C29.588,169.062 29.68,168.688 29.68,168.146C29.68,167.59 29.584,167.2 29.392,166.979C29.204,166.753 28.875,166.64 28.405,166.64L28.405,169.579Z" style="fill:rgb(44,45,48);fill-rule:nonzero;"/>
                <rect id="path1328" x="32.06" y="161.874" width="1.173" height="8.71" style="fill:rgb(44,45,48);fill-rule:nonzero;"/>
                <path id="path1330" d="M34.587,161.874L35.761,161.874L35.761,169.59L37.679,169.59L37.679,170.583L34.587,170.583L34.587,161.874Z" style="fill:rgb(44,45,48);fill-rule:nonzero;"/>
                <rect id="path1332" x="38.423" y="161.874" width="1.173" height="8.71" style="fill:rgb(44,45,48);fill-rule:nonzero;"/>
                <path id="path1334" d="M40.257,161.874L44.075,161.874L44.075,162.9L42.761,162.9L42.761,170.583L41.61,170.583L41.61,162.9L40.257,162.9L40.257,161.874Z" style="fill:rgb(44,45,48);fill-rule:nonzero;"/>
                <path id="path1336" d="M44.544,161.874L45.785,161.874L46.36,163.769C46.379,163.825 46.398,163.887 46.416,163.955C46.435,164.023 46.458,164.096 46.484,164.175C46.699,164.86 46.845,165.435 46.924,165.901C46.992,165.435 47.048,165.11 47.093,164.925L47.274,164.147L47.342,163.842L47.827,161.874L49.051,161.874L47.533,166.838L47.533,170.583L46.36,170.583L46.36,166.838L44.544,161.874Z" style="fill:rgb(44,45,48);fill-rule:nonzero;"/>
            </g>
            <g id="g1360" transform="matrix(0.759676,0,0,1.11761,-0.9375,156.028)">
                <path id="path1340" d="M2.88,79.722L6.706,79.722L6.706,80.751L5.389,80.751L5.389,88.449L4.236,88.449L4.236,80.751L2.88,80.751L2.88,79.722Z" style="fill:rgb(44,45,48);fill-rule:nonzero;"/>
                <path id="path1342" d="M8.436,79.722L9.351,79.722L11.222,88.449L10.058,88.449L9.73,86.748L8.001,86.748L7.667,88.449L6.537,88.449L8.436,79.722ZM9.561,85.838L9.301,84.447C9.127,83.501 8.986,82.492 8.877,81.418C8.824,81.941 8.756,82.473 8.673,83.012C8.59,83.547 8.492,84.116 8.379,84.719L8.164,85.838L9.561,85.838Z" style="fill:rgb(44,45,48);fill-rule:nonzero;"/>
                <path id="path1344" d="M11.918,79.722L13.466,79.722C14.212,79.722 14.755,79.91 15.094,80.287C15.433,80.668 15.603,81.271 15.603,82.096C15.603,83.256 15.262,84.006 14.58,84.345C14.237,84.5 13.741,84.577 13.093,84.577L13.093,88.449L11.918,88.449L11.918,79.722ZM13.093,83.571C13.579,83.571 13.915,83.473 14.099,83.277C14.288,83.077 14.382,82.723 14.382,82.215C14.382,81.695 14.292,81.314 14.111,81.073C13.93,80.832 13.645,80.711 13.257,80.711L13.093,80.711L13.093,83.571Z" style="fill:rgb(44,45,48);fill-rule:nonzero;"/>
                <rect id="path1346" x="18.231" y="85.012" width="2.057" height="0.882" style="fill:rgb(44,45,48);fill-rule:nonzero;"/>
                <path id="path1348" d="M22.663,79.722L26.489,79.722L26.489,80.751L25.172,80.751L25.172,88.449L24.019,88.449L24.019,80.751L22.663,80.751L22.663,79.722Z" style="fill:rgb(44,45,48);fill-rule:nonzero;"/>
                <path id="path1350" d="M27.134,79.722L28.682,79.722C29.323,79.722 29.8,79.874 30.113,80.18C30.508,80.575 30.706,81.18 30.706,81.994C30.706,82.62 30.601,83.123 30.39,83.503C30.182,83.88 29.885,84.114 29.496,84.204L31.102,88.449L29.909,88.449L28.309,84.176L28.309,88.449L27.134,88.449L27.134,79.722ZM28.309,83.588C28.765,83.588 29.088,83.483 29.276,83.272C29.464,83.061 29.559,82.704 29.559,82.203C29.559,81.932 29.538,81.7 29.496,81.508C29.459,81.316 29.397,81.159 29.31,81.039C29.227,80.918 29.118,80.83 28.982,80.773C28.85,80.717 28.692,80.688 28.507,80.688L28.309,80.688L28.309,83.588Z" style="fill:rgb(44,45,48);fill-rule:nonzero;"/>
                <rect id="path1352" x="32.017" y="79.722" width="1.176" height="8.727" style="fill:rgb(44,45,48);fill-rule:nonzero;"/>
                <path id="path1354" d="M36.641,83.859L38.778,83.859L38.778,84.199C38.778,85.898 38.629,87.045 38.331,87.641C38.037,88.251 37.487,88.556 36.681,88.556C35.848,88.556 35.254,88.217 34.9,87.539C34.55,86.861 34.374,85.721 34.374,84.119C34.374,82.288 34.567,81.069 34.951,80.462C35.313,79.893 35.869,79.609 36.618,79.609C37.191,79.609 37.638,79.746 37.958,80.021C38.282,80.3 38.535,80.758 38.715,81.395L37.619,81.853C37.57,81.623 37.515,81.431 37.455,81.276C37.395,81.118 37.329,80.996 37.257,80.909C37.114,80.732 36.899,80.643 36.613,80.643C36.221,80.643 35.953,80.884 35.81,81.367C35.667,81.872 35.595,82.778 35.595,84.085C35.595,85.408 35.669,86.303 35.816,86.77C35.963,87.238 36.24,87.471 36.647,87.471C37.02,87.471 37.282,87.305 37.432,86.974C37.587,86.62 37.664,86.051 37.664,85.267L37.664,85.029L37.664,84.854L36.641,84.854L36.641,83.859Z" style="fill:rgb(44,45,48);fill-rule:nonzero;"/>
                <rect id="path1356" x="42.35" y="79.722" width="1.176" height="8.727" style="fill:rgb(44,45,48);fill-rule:nonzero;"/>
                <path id="path1358" d="M44.882,79.722L45.979,79.722L47.149,83.204C47.488,84.187 47.787,85.237 48.047,86.352C47.953,85.678 47.884,85.067 47.838,84.521C47.793,83.974 47.77,83.46 47.77,82.978L47.77,79.722L48.952,79.722L48.952,88.449L47.85,88.449L46.533,84.521C46.412,84.155 46.297,83.78 46.188,83.396C46.082,83.012 45.984,82.608 45.894,82.186C45.886,82.134 45.873,82.069 45.854,81.994C45.839,81.919 45.82,81.832 45.798,81.734C45.809,81.832 45.819,81.917 45.826,81.988C45.834,82.056 45.839,82.115 45.843,82.164L45.905,83.051L45.967,84.131C45.971,84.191 45.973,84.264 45.973,84.351C45.977,84.438 45.979,84.536 45.979,84.645L46.041,88.449L44.882,88.449L44.882,79.722Z" style="fill:rgb(44,45,48);fill-rule:nonzero;"/>
            </g>
            <g id="g1374" transform="matrix(1.07387,0,0,1.08427,29.25,65.8098)">
                <path id="path1362" d="M13.511,140.131L15.713,140.131L15.713,140.481C15.713,142.233 15.56,143.415 15.253,144.029C14.95,144.658 14.383,144.973 13.552,144.973C12.693,144.973 12.081,144.623 11.716,143.924C11.355,143.225 11.175,142.05 11.175,140.399C11.175,138.512 11.373,137.255 11.769,136.63C12.142,136.043 12.715,135.75 13.487,135.75C14.078,135.75 14.538,135.892 14.868,136.175C15.202,136.463 15.463,136.935 15.649,137.591L14.519,138.063C14.468,137.826 14.412,137.628 14.35,137.469C14.288,137.306 14.22,137.179 14.146,137.09C13.998,136.907 13.777,136.816 13.482,136.816C13.078,136.816 12.802,137.065 12.654,137.562C12.507,138.082 12.433,139.016 12.433,140.364C12.433,141.728 12.509,142.65 12.66,143.132C12.812,143.613 13.097,143.854 13.517,143.854C13.901,143.854 14.171,143.683 14.326,143.341C14.486,142.976 14.565,142.39 14.565,141.582L14.565,141.337L14.565,141.157L13.511,141.157L13.511,140.131Z" style="fill:rgb(44,45,48);fill-rule:nonzero;"/>
                <path id="path1364" d="M18.207,135.866L19.15,135.866L21.079,144.862L19.879,144.862L19.541,143.108L17.758,143.108L17.414,144.862L16.249,144.862L18.207,135.866ZM19.366,142.17L19.098,140.737C18.919,139.762 18.774,138.721 18.661,137.614C18.607,138.154 18.537,138.702 18.451,139.257C18.366,139.809 18.265,140.395 18.148,141.017L17.927,142.17L19.366,142.17Z" style="fill:rgb(44,45,48);fill-rule:nonzero;"/>
                <path id="path1366" d="M20.892,135.866L24.837,135.866L24.837,136.927L23.479,136.927L23.479,144.862L22.291,144.862L22.291,136.927L20.892,136.927L20.892,135.866Z" style="fill:rgb(44,45,48);fill-rule:nonzero;"/>
                <path id="path1368" d="M25.501,135.866L28.723,135.866L28.723,136.892L26.713,136.892L26.713,139.741L28.496,139.741L28.496,140.766L26.713,140.766L26.713,143.837L28.723,143.837L28.723,144.862L25.501,144.862L25.501,135.866Z" style="fill:rgb(44,45,48);fill-rule:nonzero;"/>
                <rect id="path1370" x="32.306" y="135.866" width="1.212" height="8.996" style="fill:rgb(44,45,48);fill-rule:nonzero;"/>
                <path id="path1372" d="M34.916,135.866L36.046,135.866L37.252,139.455C37.602,140.469 37.911,141.551 38.179,142.701C38.082,142.005 38.01,141.376 37.963,140.813C37.916,140.25 37.893,139.72 37.893,139.222L37.893,135.866L39.111,135.866L39.111,144.862L37.975,144.862L36.617,140.813C36.493,140.436 36.374,140.05 36.262,139.653C36.153,139.257 36.052,138.842 35.959,138.407C35.951,138.352 35.937,138.286 35.918,138.209C35.903,138.131 35.883,138.042 35.86,137.941C35.871,138.042 35.881,138.129 35.889,138.203C35.897,138.273 35.903,138.333 35.906,138.383L35.97,139.298L36.035,140.411C36.038,140.473 36.04,140.549 36.04,140.638C36.044,140.727 36.046,140.828 36.046,140.941L36.11,144.862L34.916,144.862L34.916,135.866Z" style="fill:rgb(44,45,48);fill-rule:nonzero;"/>
            </g>
            <g id="g1392" transform="matrix(0.8163,0,0,1.07191,-0.9375,162)">
                <path id="path1376" d="M5.042,52.014L7.268,52.014L7.268,52.367C7.268,54.138 7.113,55.333 6.803,55.954C6.496,56.59 5.923,56.908 5.083,56.908C4.215,56.908 3.597,56.554 3.228,55.848C2.862,55.141 2.68,53.953 2.68,52.284C2.68,50.376 2.88,49.106 3.281,48.474C3.657,47.881 4.237,47.585 5.018,47.585C5.615,47.585 6.08,47.728 6.414,48.014C6.751,48.305 7.015,48.782 7.203,49.446L6.06,49.923C6.009,49.683 5.952,49.483 5.89,49.322C5.827,49.157 5.758,49.029 5.683,48.939C5.534,48.755 5.31,48.662 5.012,48.662C4.604,48.662 4.325,48.914 4.176,49.416C4.027,49.942 3.952,50.887 3.952,52.249C3.952,53.627 4.028,54.56 4.182,55.047C4.335,55.534 4.623,55.777 5.047,55.777C5.436,55.777 5.709,55.604 5.866,55.259C6.027,54.89 6.108,54.297 6.108,53.48L6.108,53.233L6.108,53.05L5.042,53.05L5.042,52.014Z" style="fill:rgb(44,45,48);fill-rule:nonzero;"/>
                <path id="path1378" d="M9.789,47.702L10.743,47.702L12.692,56.796L11.479,56.796L11.137,55.023L9.335,55.023L8.988,56.796L7.81,56.796L9.789,47.702ZM10.961,54.075L10.69,52.626C10.509,51.641 10.362,50.588 10.248,49.469C10.193,50.015 10.122,50.569 10.036,51.13C9.95,51.688 9.847,52.281 9.73,52.909L9.506,54.075L10.961,54.075Z" style="fill:rgb(44,45,48);fill-rule:nonzero;"/>
                <path id="path1380" d="M12.504,47.702L16.491,47.702L16.491,48.774L15.119,48.774L15.119,56.796L13.917,56.796L13.917,48.774L12.504,48.774L12.504,47.702Z" style="fill:rgb(44,45,48);fill-rule:nonzero;"/>
                <path id="path1382" d="M17.162,47.702L20.419,47.702L20.419,48.739L18.387,48.739L18.387,51.619L20.19,51.619L20.19,52.655L18.387,52.655L18.387,55.759L20.419,55.759L20.419,56.796L17.162,56.796L17.162,47.702Z" style="fill:rgb(44,45,48);fill-rule:nonzero;"/>
                <path id="path1384" d="M24.471,47.702L25.52,47.702L26.321,51.413C26.419,51.876 26.507,52.341 26.586,52.809C26.668,53.272 26.743,53.759 26.81,54.269C26.817,54.203 26.823,54.151 26.827,54.116C26.831,54.077 26.835,54.049 26.839,54.034L27.01,52.991L27.163,52.002L27.298,51.348L28.011,47.702L29.071,47.702L29.907,56.796L28.735,56.796L28.529,53.71C28.521,53.553 28.514,53.417 28.506,53.303C28.502,53.189 28.5,53.095 28.5,53.021L28.447,51.801L28.417,50.682C28.417,50.675 28.415,50.659 28.411,50.635C28.411,50.608 28.41,50.573 28.406,50.529L28.376,50.712C28.345,50.928 28.315,51.116 28.288,51.277C28.264,51.438 28.243,51.574 28.223,51.684L28.07,52.514L28.011,52.826L27.245,56.796L26.421,56.796L25.702,53.368C25.604,52.917 25.516,52.459 25.437,51.996C25.363,51.529 25.294,51.04 25.231,50.529L24.878,56.796L23.723,56.796L24.471,47.702Z" style="fill:rgb(44,45,48);fill-rule:nonzero;"/>
                <path id="path1386" d="M35.473,52.473C35.473,54.079 35.294,55.219 34.937,55.895C34.58,56.57 33.981,56.908 33.141,56.908C32.257,56.908 31.635,56.545 31.274,55.818C30.917,55.108 30.738,53.845 30.738,52.031C30.738,50.414 30.915,49.269 31.268,48.598C31.625,47.922 32.23,47.585 33.082,47.585C33.844,47.585 34.409,47.846 34.778,48.368C35.022,48.717 35.198,49.214 35.308,49.858C35.418,50.455 35.473,51.326 35.473,52.473L35.473,52.473ZM34.189,52.602C34.189,51.028 34.119,49.984 33.977,49.469C33.836,48.951 33.547,48.692 33.111,48.692C32.676,48.692 32.385,48.929 32.24,49.404C32.098,49.883 32.028,50.845 32.028,52.29C32.028,53.621 32.102,54.544 32.252,55.058C32.405,55.545 32.691,55.789 33.111,55.789C33.524,55.789 33.806,55.561 33.96,55.106C34.113,54.654 34.189,53.82 34.189,52.602L34.189,52.602Z" style="fill:rgb(44,45,48);fill-rule:nonzero;"/>
                <path id="path1388" d="M36.692,47.702L38.2,47.702C38.659,47.702 39.046,47.753 39.36,47.855C39.651,47.954 39.91,48.128 40.138,48.38C40.479,48.757 40.723,49.247 40.868,49.852C41.013,50.437 41.086,51.275 41.086,52.367C41.086,53.368 41.005,54.185 40.844,54.817C40.687,55.422 40.428,55.883 40.067,56.201C39.623,56.598 38.828,56.796 37.682,56.796L36.692,56.796L36.692,47.702ZM37.917,55.724C38.663,55.724 39.162,55.498 39.413,55.047C39.672,54.595 39.802,53.718 39.802,52.414C39.802,51.012 39.678,50.048 39.431,49.522C39.184,48.996 38.73,48.733 38.07,48.733L37.917,48.733L37.917,55.724Z" style="fill:rgb(44,45,48);fill-rule:nonzero;"/>
                <path id="path1390" d="M42.299,47.702L45.556,47.702L45.556,48.739L43.524,48.739L43.524,51.619L45.326,51.619L45.326,52.655L43.524,52.655L43.524,55.759L45.556,55.759L45.556,56.796L42.299,56.796L42.299,47.702Z" style="fill:rgb(44,45,48);fill-rule:nonzero;"/>
            </g>
            <g id="g1424" transform="matrix(0.773811,0,0,1.2923,0,156)">
                <path id="path1410" d="M60.589,97.576C60.589,98.949 60.436,99.925 60.13,100.503C59.825,101.08 59.313,101.369 58.594,101.369C57.838,101.369 57.306,101.059 56.997,100.437C56.691,99.829 56.538,98.75 56.538,97.198C56.538,95.814 56.689,94.835 56.992,94.261C57.297,93.683 57.815,93.394 58.543,93.394C59.195,93.394 59.679,93.618 59.994,94.064C60.203,94.363 60.354,94.788 60.448,95.339C60.542,95.849 60.589,96.595 60.589,97.576L60.589,97.576ZM59.491,97.687C59.491,96.34 59.43,95.446 59.309,95.006C59.188,94.563 58.941,94.341 58.569,94.341C58.196,94.341 57.947,94.545 57.823,94.951C57.702,95.361 57.642,96.184 57.642,97.42C57.642,98.558 57.705,99.347 57.833,99.787C57.964,100.204 58.209,100.412 58.569,100.412C58.921,100.412 59.163,100.217 59.294,99.828C59.425,99.441 59.49,98.728 59.49,97.687L59.491,97.687Z" style="fill:rgb(44,45,48);fill-rule:nonzero;"/>
                <path id="path1412" d="M61.632,93.495L62.609,93.495L63.652,96.598C63.954,97.475 64.221,98.41 64.453,99.405C64.369,98.803 64.307,98.259 64.266,97.772C64.226,97.285 64.206,96.827 64.206,96.397L64.206,93.495L65.259,93.495L65.259,101.274L64.276,101.274L63.103,97.772C62.995,97.446 62.893,97.112 62.795,96.77C62.701,96.427 62.614,96.068 62.533,95.692C62.527,95.645 62.515,95.588 62.498,95.52C62.485,95.453 62.468,95.376 62.448,95.289C62.458,95.376 62.466,95.452 62.473,95.515C62.48,95.576 62.485,95.628 62.488,95.671L62.544,96.462L62.599,97.425C62.602,97.478 62.604,97.544 62.604,97.621C62.607,97.698 62.609,97.786 62.609,97.883L62.664,101.274L61.632,101.274L61.632,93.495Z" style="fill:rgb(44,45,48);fill-rule:nonzero;"/>
                <path id="path1414" d="M66.468,93.495L69.254,93.495L69.254,94.382L67.516,94.382L67.516,96.845L69.057,96.845L69.057,97.732L67.516,97.732L67.516,100.387L69.254,100.387L69.254,101.274L66.468,101.274L66.468,93.495Z" style="fill:rgb(44,45,48);fill-rule:nonzero;"/>
                <path id="path1416" d="M74.947,93.656L74.947,94.679C74.628,94.451 74.34,94.336 74.085,94.336C73.81,94.336 73.585,94.434 73.41,94.629C73.235,94.813 73.148,95.06 73.148,95.369C73.148,95.641 73.21,95.875 73.334,96.069C73.398,96.174 73.502,96.308 73.647,96.472C73.795,96.637 73.984,96.835 74.216,97.067C74.643,97.5 74.933,97.875 75.088,98.19C75.242,98.496 75.319,98.87 75.319,99.314C75.319,99.915 75.15,100.41 74.811,100.8C74.471,101.18 74.036,101.369 73.506,101.369C73.059,101.369 72.678,101.247 72.362,101.002L72.362,99.964C72.735,100.236 73.074,100.372 73.38,100.372C73.665,100.372 73.889,100.278 74.05,100.09C74.211,99.898 74.292,99.64 74.292,99.314C74.292,99.032 74.23,98.778 74.105,98.553C74.041,98.446 73.952,98.323 73.838,98.185C73.724,98.044 73.581,97.888 73.41,97.717C73.145,97.455 72.925,97.223 72.75,97.022C72.575,96.82 72.446,96.644 72.362,96.493C72.201,96.197 72.12,95.824 72.12,95.374C72.12,94.766 72.278,94.284 72.594,93.928C72.913,93.569 73.341,93.389 73.879,93.389C74.251,93.389 74.607,93.478 74.947,93.656L74.947,93.656Z" style="fill:rgb(44,45,48);fill-rule:nonzero;"/>
                <path id="path1418" d="M76.201,93.495L77.249,93.495L77.249,96.538L78.785,96.538L78.785,93.495L79.833,93.495L79.833,101.274L78.785,101.274L78.785,97.425L77.249,97.425L77.249,101.274L76.201,101.274L76.201,93.495Z" style="fill:rgb(44,45,48);fill-rule:nonzero;"/>
                <path id="path1420" d="M84.932,97.576C84.932,98.949 84.779,99.925 84.473,100.503C84.167,101.08 83.655,101.369 82.937,101.369C82.181,101.369 81.649,101.059 81.34,100.437C81.034,99.829 80.881,98.75 80.881,97.198C80.881,95.814 81.032,94.835 81.335,94.261C81.64,93.683 82.157,93.394 82.886,93.394C83.538,93.394 84.021,93.618 84.337,94.064C84.545,94.363 84.696,94.788 84.791,95.339C84.885,95.849 84.932,96.595 84.932,97.576L84.932,97.576ZM83.833,97.687C83.833,96.34 83.773,95.446 83.652,95.006C83.531,94.563 83.284,94.341 82.911,94.341C82.539,94.341 82.29,94.545 82.166,94.951C82.045,95.361 81.984,96.184 81.984,97.42C81.984,98.558 82.048,99.347 82.176,99.787C82.307,100.204 82.552,100.412 82.911,100.412C83.264,100.412 83.506,100.217 83.637,99.828C83.768,99.441 83.833,98.728 83.833,97.687L83.833,97.687Z" style="fill:rgb(44,45,48);fill-rule:nonzero;"/>
                <path id="path1422" d="M85.435,93.495L88.846,93.495L88.846,94.412L87.672,94.412L87.672,101.274L86.644,101.274L86.644,94.412L85.435,94.412L85.435,93.495Z" style="fill:rgb(44,45,48);fill-rule:nonzero;"/>
            </g>
            <g id="text1499" transform="matrix(1.03737,0,0,0.963975,0,0)">
                <path id="path1510" d="M16.87,179.596L18.718,179.596C20.164,179.596 20.887,180.494 20.887,182.29C20.887,182.976 20.793,183.484 20.605,183.817C20.417,184.149 20.085,184.4 19.609,184.57C20.155,184.789 20.528,185.068 20.729,185.409C20.935,185.745 21.037,186.252 21.037,186.929C21.037,188.786 20.242,189.714 18.652,189.714L16.87,189.714L16.87,179.596ZM18.154,184.052C18.683,184.052 19.05,183.93 19.255,183.685C19.46,183.428 19.563,182.976 19.563,182.329C19.563,181.237 19.17,180.691 18.383,180.691L18.279,180.691L18.22,180.691C18.185,180.691 18.163,180.693 18.154,180.697L18.154,184.052ZM18.154,188.548C18.713,188.548 19.1,188.428 19.314,188.188C19.528,187.947 19.635,187.513 19.635,186.883C19.635,186.237 19.524,185.785 19.301,185.527C19.082,185.265 18.7,185.134 18.154,185.134L18.154,188.548Z" style="fill:rgb(44,45,48);fill-rule:nonzero;"/>
                <path id="path1512" d="M22.4,179.596L24.196,179.596C24.939,179.596 25.491,179.773 25.854,180.127C26.313,180.586 26.542,181.287 26.542,182.231C26.542,182.956 26.42,183.539 26.175,183.98C25.935,184.417 25.59,184.688 25.14,184.793L27.001,189.714L25.618,189.714L23.764,184.76L23.764,189.714L22.4,189.714L22.4,179.596ZM23.764,184.079C24.292,184.079 24.666,183.956 24.884,183.712C25.103,183.467 25.212,183.054 25.212,182.473C25.212,182.159 25.188,181.89 25.14,181.667C25.096,181.444 25.024,181.263 24.923,181.123C24.827,180.983 24.701,180.881 24.543,180.815C24.39,180.75 24.207,180.717 23.993,180.717L23.764,180.717L23.764,184.079Z" style="fill:rgb(44,45,48);fill-rule:nonzero;"/>
                <rect id="path1514" x="28.062" y="179.596" width="1.363" height="10.118" style="fill:rgb(44,45,48);fill-rule:nonzero;"/>
                <path id="path1516" d="M30.998,179.596L32.676,179.596C33.187,179.596 33.617,179.653 33.967,179.767C34.29,179.876 34.578,180.07 34.832,180.35C35.212,180.769 35.483,181.315 35.644,181.988C35.806,182.639 35.887,183.572 35.887,184.786C35.887,185.9 35.797,186.809 35.618,187.513C35.444,188.185 35.155,188.699 34.753,189.053C34.26,189.494 33.375,189.714 32.099,189.714L30.998,189.714L30.998,179.596ZM32.361,188.522C33.191,188.522 33.746,188.271 34.026,187.768C34.314,187.266 34.458,186.289 34.458,184.839C34.458,183.279 34.321,182.207 34.045,181.621C33.77,181.036 33.266,180.743 32.532,180.743L32.361,180.743L32.361,188.522Z" style="fill:rgb(44,45,48);fill-rule:nonzero;"/>
                <path id="path1518" d="M39.662,184.393L42.139,184.393L42.139,184.786C42.139,186.757 41.966,188.087 41.621,188.777C41.28,189.485 40.642,189.839 39.707,189.839C38.742,189.839 38.054,189.446 37.643,188.659C37.237,187.873 37.034,186.551 37.034,184.695C37.034,182.571 37.257,181.158 37.702,180.455C38.122,179.795 38.766,179.465 39.635,179.465C40.299,179.465 40.817,179.625 41.188,179.944C41.564,180.267 41.857,180.798 42.067,181.536L40.795,182.067C40.738,181.8 40.675,181.578 40.605,181.398C40.535,181.215 40.459,181.073 40.376,180.972C40.21,180.767 39.961,180.664 39.629,180.664C39.174,180.664 38.864,180.944 38.698,181.503C38.532,182.089 38.449,183.139 38.449,184.655C38.449,186.189 38.534,187.226 38.705,187.768C38.875,188.31 39.196,188.581 39.668,188.581C40.101,188.581 40.404,188.388 40.579,188.004C40.758,187.593 40.848,186.934 40.848,186.025L40.848,185.75L40.848,185.547L39.662,185.547L39.662,184.393Z" style="fill:rgb(44,45,48);fill-rule:nonzero;"/>
                <path id="path1520" d="M43.502,179.596L47.126,179.596L47.126,180.75L44.865,180.75L44.865,183.954L46.87,183.954L46.87,185.108L44.865,185.108L44.865,188.561L47.126,188.561L47.126,189.714L43.502,189.714L43.502,179.596Z" style="fill:rgb(44,45,48);fill-rule:nonzero;"/>
                <path id="path1522" d="M52.355,182.886L51.018,182.886L51.005,182.486C51.005,181.381 51.171,180.603 51.503,180.153C51.839,179.699 52.403,179.472 53.194,179.472C54.684,179.472 55.428,180.297 55.428,181.949C55.428,183.063 54.871,184.668 53.757,186.765L52.951,188.279C52.947,188.288 52.934,188.314 52.912,188.358C52.89,188.402 52.86,188.465 52.82,188.548L55.324,188.548L55.324,189.714L50.881,189.714C50.955,189.548 51.11,189.219 51.346,188.725C51.582,188.231 51.903,187.565 52.309,186.726C52.654,185.992 52.943,185.37 53.174,184.858C53.406,184.347 53.58,183.928 53.698,183.6C53.934,182.945 54.052,182.379 54.052,181.903C54.052,181.064 53.762,180.645 53.181,180.645C52.622,180.645 52.342,181.165 52.342,182.204L52.348,182.781L52.355,182.886Z" style="fill:rgb(44,45,48);fill-rule:nonzero;"/>
            </g>
        </g>
    </g>
</svg>
