<?xml version="1.0" encoding="UTF-8" standalone="no"?>
<!DOCTYPE svg PUBLIC "-//W3C//DTD SVG 1.1//EN" "http://www.w3.org/Graphics/SVG/1.1/DTD/svg11.dtd">
<svg width="100%" height="100%" viewBox="0 0 105 380" version="1.1" xmlns="http://www.w3.org/2000/svg" xmlns:xlink="http://www.w3.org/1999/xlink" xml:space="preserve" xmlns:serif="http://www.serif.com/" style="fill-rule:evenodd;clip-rule:evenodd;stroke-linejoin:round;stroke-miterlimit:2;">
    <g id="Layer-2" serif:id="Layer 2">
        <rect id="rect4689" x="1.232" y="0" width="105" height="380" style="fill:rgb(44,45,48);"/>
        <g id="text989">
        </g>
        <g id="text80" transform="matrix(1.00498,0,0,0.995047,7.49999,4.99997)">
            <path id="path4726" d="M29.851,371.706L29.851,363.943L31.853,363.943L32.903,366.668C32.96,366.829 33.024,367.013 33.094,367.221C33.168,367.429 33.249,367.668 33.336,367.94L33.552,368.624C33.475,367.95 33.416,367.373 33.376,366.894C33.336,366.415 33.316,366.013 33.316,365.687L33.316,363.943L35.317,363.943L35.317,371.706L33.316,371.706L32.26,368.85C32.149,368.545 32.049,368.26 31.958,367.995C31.871,367.727 31.794,367.472 31.727,367.231C31.77,367.777 31.802,368.253 31.822,368.659C31.843,369.065 31.853,369.42 31.853,369.725L31.853,371.706L29.851,371.706Z" style="fill:rgb(158,161,168);fill-rule:nonzero;"/>
            <path id="path4728" d="M39.887,371.706L37.791,371.706L37.791,368.418L35.865,363.943L38.052,363.943L38.429,365.094C38.503,365.319 38.568,365.535 38.625,365.743C38.686,365.951 38.739,366.15 38.786,366.341C38.863,366.056 38.93,365.811 38.987,365.607C39.044,365.399 39.095,365.232 39.138,365.104L39.52,363.943L41.692,363.943L39.887,368.418L39.887,371.706Z" style="fill:rgb(158,161,168);fill-rule:nonzero;"/>
            <path id="path4730" d="M41.894,371.515L41.894,369.076C42.306,369.639 42.752,369.921 43.231,369.921C43.412,369.921 43.56,369.874 43.673,369.78C43.787,369.683 43.844,369.562 43.844,369.418C43.844,369.21 43.72,369.008 43.472,368.81L43.13,368.543C42.902,368.372 42.708,368.203 42.547,368.035C42.386,367.865 42.256,367.69 42.155,367.513C42.054,367.332 41.981,367.146 41.934,366.954C41.887,366.763 41.863,366.562 41.863,366.351C41.863,365.989 41.947,365.61 42.115,365.215C42.199,365.03 42.296,364.863 42.406,364.712C42.517,364.558 42.644,364.422 42.789,364.305C43.184,363.969 43.662,363.802 44.222,363.802C44.721,363.802 45.224,363.934 45.73,364.199L45.73,366.572C45.559,366.308 45.365,366.1 45.147,365.949C44.929,365.795 44.714,365.718 44.503,365.718C44.342,365.718 44.21,365.765 44.106,365.858C43.999,365.949 43.945,366.058 43.945,366.185C43.945,366.393 44.087,366.599 44.372,366.804L44.704,367.05C45.147,367.368 45.463,367.695 45.655,368.03C45.849,368.366 45.946,368.758 45.946,369.207C45.946,369.971 45.713,370.601 45.247,371.098C44.781,371.594 44.191,371.842 43.477,371.842C42.985,371.842 42.457,371.733 41.894,371.515L41.894,371.515Z" style="fill:rgb(158,161,168);fill-rule:nonzero;"/>
            <path id="path4732" d="M49.576,371.706L47.48,371.706L47.48,365.803L46.323,365.803L46.323,363.943L50.778,363.943L50.778,365.803L49.576,365.803L49.576,371.706Z" style="fill:rgb(158,161,168);fill-rule:nonzero;"/>
            <path id="path4734" d="M56.525,371.706L54.428,371.706L54.428,368.584L53.428,368.584L53.428,371.706L51.331,371.706L51.331,363.943L53.428,363.943L53.428,366.688L54.428,366.688L54.428,363.943L56.525,363.943L56.525,371.706Z" style="fill:rgb(158,161,168);fill-rule:nonzero;"/>
            <rect id="path4736" x="57.606" y="363.943" width="2.097" height="7.763" style="fill:rgb(158,161,168);fill-rule:nonzero;"/>
        </g>
        <g id="text4987">
        </g>
        <g id="text1020" transform="matrix(0.867252,0,0,0.969696,-19.0527,28.8498)">
            <path id="path979" d="M83.275,88.156L83.275,89.478C82.862,89.183 82.491,89.035 82.161,89.035C81.806,89.035 81.515,89.161 81.289,89.413C81.063,89.651 80.951,89.971 80.951,90.37C80.951,90.721 81.031,91.023 81.191,91.275C81.274,91.409 81.408,91.583 81.595,91.796C81.786,92.008 82.031,92.264 82.331,92.564C82.882,93.124 83.257,93.608 83.457,94.016C83.657,94.411 83.757,94.895 83.757,95.467C83.757,96.244 83.537,96.885 83.099,97.388C82.661,97.878 82.099,98.124 81.413,98.124C80.836,98.124 80.343,97.965 79.935,97.648L79.935,96.307C80.417,96.659 80.855,96.835 81.25,96.835C81.619,96.835 81.908,96.713 82.116,96.47C82.324,96.223 82.428,95.888 82.428,95.467C82.428,95.103 82.348,94.775 82.188,94.484C82.105,94.346 81.99,94.187 81.842,94.009C81.695,93.827 81.51,93.625 81.289,93.404C80.946,93.065 80.662,92.766 80.436,92.505C80.211,92.245 80.043,92.017 79.935,91.822C79.727,91.44 79.622,90.958 79.622,90.376C79.622,89.591 79.826,88.968 80.234,88.508C80.647,88.043 81.2,87.811 81.895,87.811C82.376,87.811 82.836,87.926 83.275,88.156L83.275,88.156Z" style="fill:rgb(158,161,168);fill-rule:nonzero;"/>
            <path id="path982" d="M84.225,87.948L85.658,87.948L86.322,90.135C86.343,90.201 86.365,90.272 86.387,90.35C86.408,90.428 86.434,90.513 86.465,90.604C86.712,91.394 86.882,92.058 86.973,92.596C87.051,92.058 87.116,91.683 87.168,91.47L87.376,90.572L87.454,90.22L88.014,87.948L89.427,87.948L87.676,93.677L87.676,98L86.322,98L86.322,93.677L84.225,87.948Z" style="fill:rgb(158,161,168);fill-rule:nonzero;"/>
            <path id="path984" d="M90.182,87.948L91.445,87.948L92.793,91.958C93.184,93.091 93.529,94.3 93.828,95.585C93.72,94.808 93.639,94.105 93.587,93.475C93.535,92.846 93.509,92.253 93.509,91.698L93.509,87.948L94.87,87.948L94.87,98L93.6,98L92.083,93.475C91.944,93.054 91.812,92.622 91.686,92.18C91.565,91.737 91.452,91.273 91.348,90.786C91.339,90.726 91.324,90.652 91.302,90.565C91.285,90.478 91.263,90.378 91.237,90.266C91.25,90.378 91.261,90.476 91.27,90.559C91.278,90.637 91.285,90.704 91.289,90.76L91.361,91.783L91.432,93.026C91.437,93.095 91.439,93.18 91.439,93.28C91.443,93.38 91.445,93.493 91.445,93.618L91.517,98L90.182,98L90.182,87.948Z" style="fill:rgb(158,161,168);fill-rule:nonzero;"/>
            <path id="path986" d="M100.378,88.111L100.378,89.328C100.03,89.159 99.74,89.074 99.505,89.074C99.184,89.074 98.908,89.155 98.678,89.315C98.448,89.471 98.257,89.714 98.105,90.044C97.958,90.374 97.847,90.793 97.773,91.301C97.704,91.804 97.669,92.401 97.669,93.091C97.669,95.574 98.305,96.815 99.577,96.815C99.798,96.815 100.065,96.746 100.378,96.607L100.378,97.85C100.052,98.033 99.687,98.124 99.284,98.124C97.248,98.124 96.23,96.461 96.23,93.137C96.23,91.34 96.478,90.003 96.973,89.126C97.472,88.25 98.234,87.811 99.258,87.811C99.635,87.811 100.009,87.911 100.378,88.111L100.378,88.111Z" style="fill:rgb(158,161,168);fill-rule:nonzero;"/>
        </g>
        <g id="text1009" transform="matrix(1,0,0,1,1.34331e-06,-8)">
            <path id="path1071" d="M8.147,32.987L8.147,34.204C7.8,34.035 7.509,33.951 7.275,33.951C6.954,33.951 6.678,34.031 6.448,34.191C6.218,34.348 6.027,34.591 5.875,34.921C5.727,35.25 5.617,35.669 5.543,36.177C5.474,36.681 5.439,37.277 5.439,37.967C5.439,40.45 6.075,41.691 7.346,41.691C7.568,41.691 7.835,41.622 8.147,41.483L8.147,42.727C7.822,42.909 7.457,43 7.053,43C5.018,43 4,41.338 4,38.013C4,36.216 4.247,34.879 4.742,34.003C5.241,33.126 6.003,32.688 7.027,32.688C7.405,32.688 7.778,32.787 8.147,32.987L8.147,32.987Z" style="fill:rgb(158,161,168);fill-rule:nonzero;"/>
            <path id="path1074" d="M9.28,32.824L10.634,32.824L10.634,41.73L12.848,41.73L12.848,42.876L9.28,42.876L9.28,32.824Z" style="fill:rgb(158,161,168);fill-rule:nonzero;"/>
            <path id="path1076" d="M13.707,32.824L15.061,32.824L15.061,37.694L16.949,32.824L18.316,32.824L16.337,37.694L18.473,42.876L16.949,42.876L15.061,37.694L15.061,42.876L13.707,42.876L13.707,32.824Z" style="fill:rgb(158,161,168);fill-rule:nonzero;"/>
            <rect id="path1078" x="22.092" y="32.824" width="1.354" height="10.052" style="fill:rgb(158,161,168);fill-rule:nonzero;"/>
            <path id="path1080" d="M25.009,32.824L26.272,32.824L27.62,36.835C28.01,37.967 28.355,39.176 28.655,40.461C28.546,39.684 28.466,38.981 28.414,38.352C28.362,37.722 28.336,37.13 28.336,36.574L28.336,32.824L29.697,32.824L29.697,42.876L28.427,42.876L26.91,38.352C26.771,37.931 26.639,37.499 26.513,37.056C26.391,36.613 26.279,36.149 26.174,35.663C26.166,35.602 26.151,35.528 26.129,35.441C26.112,35.355 26.09,35.255 26.064,35.142C26.077,35.255 26.088,35.352 26.096,35.435C26.105,35.513 26.112,35.58 26.116,35.637L26.188,36.659L26.259,37.902C26.263,37.972 26.266,38.056 26.266,38.156C26.27,38.256 26.272,38.369 26.272,38.495L26.344,42.876L25.009,42.876L25.009,32.824Z" style="fill:rgb(158,161,168);fill-rule:nonzero;"/>
        </g>
        <g id="text1013" transform="matrix(0.835193,0,0,0.997773,11.3333,-8)">
            <path id="path1057" d="M79.822,32.897L81.61,32.897C82.349,32.897 82.899,33.074 83.261,33.426C83.717,33.883 83.946,34.581 83.946,35.521C83.946,36.243 83.824,36.823 83.58,37.263C83.341,37.698 82.997,37.967 82.549,38.072L84.402,42.972L83.026,42.972L81.179,38.039L81.179,42.972L79.822,42.972L79.822,32.897ZM81.179,37.361C81.705,37.361 82.077,37.239 82.295,36.995C82.512,36.752 82.621,36.34 82.621,35.762C82.621,35.449 82.597,35.181 82.549,34.959C82.506,34.738 82.434,34.557 82.334,34.418C82.238,34.279 82.112,34.176 81.956,34.111C81.803,34.046 81.621,34.013 81.407,34.013L81.179,34.013L81.179,37.361Z" style="fill:rgb(158,161,168);fill-rule:nonzero;"/>
            <path id="path1060" d="M85.459,32.897L89.068,32.897L89.068,34.046L86.817,34.046L86.817,37.237L88.813,37.237L88.813,38.385L86.817,38.385L86.817,41.824L89.068,41.824L89.068,42.972L85.459,42.972L85.459,32.897Z" style="fill:rgb(158,161,168);fill-rule:nonzero;"/>
            <path id="path1062" d="M93.674,33.106L93.674,34.431C93.261,34.135 92.889,33.987 92.559,33.987C92.202,33.987 91.91,34.113 91.684,34.366C91.458,34.605 91.345,34.925 91.345,35.325C91.345,35.677 91.425,35.979 91.586,36.232C91.669,36.367 91.804,36.541 91.991,36.754C92.182,36.967 92.428,37.224 92.728,37.524C93.281,38.085 93.657,38.57 93.857,38.979C94.057,39.375 94.157,39.86 94.157,40.434C94.157,41.212 93.938,41.854 93.498,42.359C93.059,42.85 92.496,43.096 91.808,43.096C91.23,43.096 90.736,42.937 90.327,42.62L90.327,41.276C90.81,41.628 91.249,41.804 91.645,41.804C92.015,41.804 92.304,41.682 92.513,41.439C92.722,41.191 92.826,40.856 92.826,40.434C92.826,40.068 92.746,39.74 92.585,39.449C92.502,39.309 92.387,39.151 92.239,38.972C92.091,38.789 91.906,38.587 91.684,38.365C91.341,38.026 91.056,37.726 90.829,37.465C90.603,37.204 90.436,36.976 90.327,36.78C90.118,36.397 90.014,35.914 90.014,35.331C90.014,34.544 90.218,33.92 90.627,33.459C91.04,32.993 91.595,32.76 92.291,32.76C92.774,32.76 93.235,32.876 93.674,33.106L93.674,33.106Z" style="fill:rgb(158,161,168);fill-rule:nonzero;"/>
            <path id="path1064" d="M95.299,32.897L98.907,32.897L98.907,34.046L96.656,34.046L96.656,37.237L98.653,37.237L98.653,38.385L96.656,38.385L96.656,41.824L98.907,41.824L98.907,42.972L95.299,42.972L95.299,32.897Z" style="fill:rgb(158,161,168);fill-rule:nonzero;"/>
            <path id="path1067" d="M99.351,32.897L103.768,32.897L103.768,34.085L102.248,34.085L102.248,42.972L100.917,42.972L100.917,34.085L99.351,34.085L99.351,32.897Z" style="fill:rgb(158,161,168);fill-rule:nonzero;"/>
        </g>
        <g id="text1021" transform="matrix(1,0,0,1,1.34331e-06,23)">
            <path id="path1027" d="M8.147,112.987L8.147,114.204C7.8,114.035 7.509,113.951 7.275,113.951C6.954,113.951 6.678,114.031 6.448,114.191C6.218,114.348 6.027,114.591 5.875,114.921C5.727,115.25 5.617,115.669 5.543,116.177C5.474,116.681 5.439,117.277 5.439,117.967C5.439,120.45 6.075,121.691 7.346,121.691C7.568,121.691 7.835,121.622 8.147,121.483L8.147,122.727C7.822,122.909 7.457,123 7.053,123C5.018,123 4,121.338 4,118.013C4,116.216 4.247,114.879 4.742,114.003C5.241,113.126 6.003,112.687 7.027,112.687C7.405,112.687 7.778,112.787 8.147,112.987L8.147,112.987Z" style="fill:rgb(158,161,168);fill-rule:nonzero;"/>
            <path id="path1029" d="M9.28,112.824L10.634,112.824L10.634,121.73L12.848,121.73L12.848,122.876L9.28,122.876L9.28,112.824Z" style="fill:rgb(158,161,168);fill-rule:nonzero;"/>
            <path id="path1031" d="M13.707,112.824L15.061,112.824L15.061,117.694L16.949,112.824L18.316,112.824L16.337,117.694L18.473,122.876L16.949,122.876L15.061,117.694L15.061,122.876L13.707,122.876L13.707,112.824Z" style="fill:rgb(158,161,168);fill-rule:nonzero;"/>
            <path id="path1033" d="M27.125,118.098C27.125,119.873 26.928,121.134 26.533,121.88C26.138,122.627 25.476,123 24.547,123C23.57,123 22.882,122.599 22.483,121.796C22.088,121.01 21.891,119.615 21.891,117.609C21.891,115.821 22.086,114.556 22.477,113.814C22.872,113.067 23.54,112.694 24.482,112.694C25.324,112.694 25.949,112.983 26.357,113.56C26.626,113.946 26.821,114.495 26.943,115.207C27.064,115.867 27.125,116.83 27.125,118.098L27.125,118.098ZM25.706,118.241C25.706,116.5 25.628,115.346 25.471,114.777C25.315,114.204 24.996,113.918 24.514,113.918C24.033,113.918 23.711,114.181 23.551,114.706C23.395,115.235 23.316,116.299 23.316,117.896C23.316,119.367 23.399,120.387 23.564,120.956C23.733,121.494 24.05,121.763 24.514,121.763C24.97,121.763 25.283,121.511 25.452,121.008C25.621,120.509 25.706,119.586 25.706,118.241L25.706,118.241Z" style="fill:rgb(158,161,168);fill-rule:nonzero;"/>
            <path id="path1035" d="M28.473,112.824L29.801,112.824L29.801,119.927C29.801,120.652 29.866,121.134 29.996,121.372C30.131,121.611 30.395,121.73 30.79,121.73C31.185,121.73 31.446,121.626 31.572,121.418C31.702,121.205 31.767,120.773 31.767,120.122L31.767,112.824L33.095,112.824L33.095,120.122C33.095,121.216 32.928,121.956 32.594,122.342C32.194,122.781 31.585,123 30.764,123C29.862,123 29.226,122.718 28.857,122.154C28.601,121.767 28.473,121.025 28.473,119.927L28.473,112.824Z" style="fill:rgb(158,161,168);fill-rule:nonzero;"/>
            <path id="path1037" d="M33.844,112.824L38.251,112.824L38.251,114.009L36.734,114.009L36.734,122.876L35.406,122.876L35.406,114.009L33.844,114.009L33.844,112.824Z" style="fill:rgb(158,161,168);fill-rule:nonzero;"/>
            <path id="path1039" d="M42.171,112.824L44.462,112.824L44.462,122.876L43.167,122.876L43.167,113.977L42.171,113.977L42.171,112.824Z" style="fill:rgb(158,161,168);fill-rule:nonzero;"/>
        </g>
        <g id="text1118" transform="matrix(1,0,0,0.999996,1.34331e-06,8)">
            <path id="path1140" d="M8.147,206.988L8.147,208.205C7.8,208.036 7.509,207.951 7.275,207.951C6.954,207.951 6.678,208.032 6.448,208.192C6.218,208.348 6.027,208.591 5.875,208.921C5.727,209.251 5.617,209.67 5.543,210.178C5.474,210.681 5.439,211.278 5.439,211.968C5.439,214.451 6.075,215.692 7.346,215.692C7.568,215.692 7.835,215.623 8.147,215.484L8.147,216.727C7.822,216.91 7.457,217.001 7.053,217.001C5.018,217.001 4,215.338 4,212.014C4,210.217 4.247,208.88 4.742,208.003C5.241,207.127 6.003,206.688 7.027,206.688C7.405,206.688 7.778,206.788 8.147,206.988L8.147,206.988Z" style="fill:rgb(158,161,168);fill-rule:nonzero;"/>
            <path id="path1143" d="M9.28,206.825L10.634,206.825L10.634,215.731L12.848,215.731L12.848,216.877L9.28,216.877L9.28,206.825Z" style="fill:rgb(158,161,168);fill-rule:nonzero;"/>
            <path id="path1145" d="M13.707,206.825L15.061,206.825L15.061,211.695L16.949,206.825L18.316,206.825L16.337,211.695L18.473,216.877L16.949,216.877L15.061,211.695L15.061,216.877L13.707,216.877L13.707,206.825Z" style="fill:rgb(158,161,168);fill-rule:nonzero;"/>
            <path id="path1147" d="M27.125,212.098C27.125,213.874 26.928,215.134 26.533,215.881C26.138,216.628 25.476,217.001 24.547,217.001C23.57,217.001 22.882,216.599 22.483,215.796C22.088,215.011 21.891,213.615 21.891,211.61C21.891,209.822 22.086,208.557 22.477,207.815C22.872,207.068 23.54,206.695 24.482,206.695C25.324,206.695 25.949,206.983 26.357,207.561C26.626,207.947 26.821,208.496 26.943,209.208C27.064,209.868 27.125,210.831 27.125,212.098L27.125,212.098ZM25.706,212.242C25.706,210.501 25.628,209.347 25.471,208.778C25.315,208.205 24.996,207.919 24.514,207.919C24.033,207.919 23.711,208.181 23.551,208.706C23.395,209.236 23.316,210.299 23.316,211.897C23.316,213.368 23.399,214.388 23.564,214.957C23.733,215.495 24.05,215.764 24.514,215.764C24.97,215.764 25.283,215.512 25.452,215.009C25.621,214.509 25.706,213.587 25.706,212.242L25.706,212.242Z" style="fill:rgb(158,161,168);fill-rule:nonzero;"/>
            <path id="path1149" d="M28.473,206.825L29.801,206.825L29.801,213.928C29.801,214.653 29.866,215.134 29.996,215.373C30.131,215.612 30.395,215.731 30.79,215.731C31.185,215.731 31.446,215.627 31.572,215.419C31.702,215.206 31.767,214.774 31.767,214.123L31.767,206.825L33.095,206.825L33.095,214.123C33.095,215.217 32.928,215.957 32.594,216.343C32.195,216.782 31.585,217.001 30.764,217.001C29.862,217.001 29.226,216.719 28.857,216.154C28.601,215.768 28.473,215.026 28.473,213.928L28.473,206.825Z" style="fill:rgb(158,161,168);fill-rule:nonzero;"/>
            <path id="path1151" d="M33.844,206.825L38.251,206.825L38.251,208.01L36.734,208.01L36.734,216.877L35.406,216.877L35.406,208.01L33.844,208.01L33.844,206.825Z" style="fill:rgb(158,161,168);fill-rule:nonzero;"/>
            <path id="path1153" d="M42.945,210.093L41.617,210.093L41.604,209.696C41.604,208.598 41.769,207.825 42.099,207.378C42.433,206.927 42.993,206.701 43.779,206.701C45.259,206.701 45.999,207.522 45.999,209.162C45.999,210.269 45.446,211.864 44.339,213.947L43.538,215.451C43.534,215.46 43.521,215.486 43.499,215.529C43.477,215.573 43.447,215.636 43.408,215.718L45.895,215.718L45.895,216.877L41.481,216.877C41.555,216.712 41.709,216.384 41.943,215.894C42.177,215.404 42.496,214.742 42.9,213.908C43.243,213.179 43.529,212.561 43.759,212.053C43.989,211.545 44.163,211.128 44.28,210.803C44.515,210.152 44.632,209.59 44.632,209.117C44.632,208.283 44.343,207.867 43.766,207.867C43.21,207.867 42.933,208.383 42.933,209.416L42.939,209.989L42.945,210.093Z" style="fill:rgb(158,161,168);fill-rule:nonzero;"/>
        </g>
        <g id="text1122" transform="matrix(1,0,0,1,1.34331e-06,6.99999)">
            <path id="path1124" d="M8.147,286.987L8.147,288.204C7.8,288.035 7.509,287.951 7.275,287.951C6.954,287.951 6.678,288.031 6.448,288.191C6.218,288.348 6.027,288.591 5.875,288.921C5.727,289.25 5.617,289.669 5.543,290.177C5.474,290.681 5.439,291.277 5.439,291.967C5.439,294.45 6.075,295.691 7.346,295.691C7.568,295.691 7.835,295.622 8.147,295.483L8.147,296.727C7.822,296.909 7.457,297 7.053,297C5.018,297 4,295.338 4,292.013C4,290.216 4.247,288.879 4.742,288.003C5.241,287.126 6.003,286.687 7.027,286.687C7.405,286.687 7.778,286.787 8.147,286.987L8.147,286.987Z" style="fill:rgb(158,161,168);fill-rule:nonzero;"/>
            <path id="path1126" d="M9.28,286.824L10.634,286.824L10.634,295.73L12.848,295.73L12.848,296.876L9.28,296.876L9.28,286.824Z" style="fill:rgb(158,161,168);fill-rule:nonzero;"/>
            <path id="path1128" d="M13.707,286.824L15.061,286.824L15.061,291.694L16.949,286.824L18.316,286.824L16.337,291.694L18.473,296.876L16.949,296.876L15.061,291.694L15.061,296.876L13.707,296.876L13.707,286.824Z" style="fill:rgb(158,161,168);fill-rule:nonzero;"/>
            <path id="path1130" d="M27.125,292.098C27.125,293.873 26.928,295.134 26.533,295.88C26.138,296.627 25.476,297 24.547,297C23.57,297 22.882,296.599 22.483,295.796C22.088,295.01 21.891,293.615 21.891,291.609C21.891,289.821 22.086,288.556 22.477,287.814C22.872,287.067 23.54,286.694 24.482,286.694C25.324,286.694 25.949,286.983 26.357,287.56C26.626,287.946 26.821,288.495 26.943,289.207C27.064,289.867 27.125,290.83 27.125,292.098L27.125,292.098ZM25.706,292.241C25.706,290.5 25.628,289.346 25.471,288.777C25.315,288.204 24.996,287.918 24.514,287.918C24.033,287.918 23.711,288.181 23.551,288.706C23.395,289.235 23.316,290.299 23.316,291.896C23.316,293.367 23.399,294.387 23.564,294.956C23.733,295.494 24.05,295.763 24.514,295.763C24.97,295.763 25.283,295.511 25.452,295.008C25.621,294.509 25.706,293.586 25.706,292.241L25.706,292.241Z" style="fill:rgb(158,161,168);fill-rule:nonzero;"/>
            <path id="path1132" d="M28.473,286.824L29.801,286.824L29.801,293.927C29.801,294.652 29.866,295.134 29.996,295.372C30.131,295.611 30.395,295.73 30.79,295.73C31.185,295.73 31.446,295.626 31.572,295.418C31.702,295.205 31.767,294.773 31.767,294.122L31.767,286.824L33.095,286.824L33.095,294.122C33.095,295.216 32.928,295.956 32.594,296.342C32.194,296.781 31.585,297 30.764,297C29.862,297 29.226,296.718 28.857,296.154C28.601,295.767 28.473,295.025 28.473,293.927L28.473,286.824Z" style="fill:rgb(158,161,168);fill-rule:nonzero;"/>
            <path id="path1134" d="M33.844,286.824L38.251,286.824L38.251,288.009L36.734,288.009L36.734,296.876L35.406,296.876L35.406,288.009L33.844,288.009L33.844,286.824Z" style="fill:rgb(158,161,168);fill-rule:nonzero;"/>
            <path id="path1136" d="M42.997,289.52L41.708,289.52L41.708,289.253C41.708,288.806 41.745,288.421 41.819,288.1C41.897,287.779 42.016,287.514 42.177,287.306C42.342,287.098 42.55,286.946 42.802,286.85C43.054,286.75 43.355,286.7 43.707,286.7C44.445,286.7 44.983,286.909 45.322,287.325C45.66,287.742 45.829,288.404 45.829,289.311C45.829,290.058 45.751,290.596 45.595,290.926C45.443,291.26 45.15,291.514 44.716,291.687C45.185,291.848 45.508,292.098 45.686,292.436C45.864,292.77 45.953,293.306 45.953,294.044C45.953,295.056 45.762,295.8 45.38,296.277C44.998,296.755 44.404,296.993 43.596,296.993C42.216,296.993 41.526,296.201 41.526,294.617L41.526,294.513L41.526,294.441C41.526,294.394 41.528,294.363 41.532,294.35L42.802,294.35C42.798,294.424 42.793,294.489 42.789,294.546L42.789,294.676C42.789,295.019 42.863,295.292 43.01,295.496C43.162,295.7 43.369,295.802 43.629,295.802C43.798,295.802 43.941,295.769 44.059,295.704C44.18,295.635 44.278,295.526 44.352,295.379C44.43,295.227 44.486,295.032 44.521,294.793C44.556,294.554 44.573,294.266 44.573,293.927C44.573,293.315 44.48,292.875 44.293,292.605C44.111,292.336 43.805,292.202 43.375,292.202C43.327,292.202 43.275,292.206 43.219,292.215C43.162,292.219 43.097,292.225 43.023,292.234L43.023,291.062L43.212,291.062C43.737,291.062 44.093,290.95 44.28,290.724C44.467,290.498 44.56,290.071 44.56,289.441C44.56,288.4 44.297,287.879 43.772,287.879C43.251,287.879 42.991,288.324 42.991,289.213L42.997,289.52Z" style="fill:rgb(158,161,168);fill-rule:nonzero;"/>
        </g>
        <g id="text984" transform="matrix(0.925935,0,0,1.04853,1.52912,4.37113e-07)">
            <path id="path1017" d="M7.806,13.427L7.628,16.75C6.937,17.028 6.319,17.167 5.772,17.167C4.486,17.167 3.403,16.695 2.524,15.751C1.54,14.693 1.049,13.196 1.049,11.258C1.049,9.445 1.51,7.99 2.434,6.892C3.358,5.799 4.593,5.253 6.137,5.253C6.639,5.253 7.151,5.347 7.672,5.536L7.672,8.822C7.21,8.36 6.736,8.129 6.249,8.129C5.613,8.129 5.117,8.4 4.759,8.941C4.401,9.488 4.223,10.243 4.223,11.206C4.223,11.673 4.267,12.09 4.357,12.458C4.446,12.826 4.573,13.136 4.737,13.389C4.906,13.643 5.112,13.836 5.355,13.97C5.598,14.105 5.877,14.172 6.19,14.172C6.726,14.172 7.265,13.923 7.806,13.427Z" style="fill:rgb(158,161,168);fill-rule:nonzero;"/>
            <path id="path1019" d="M14.467,16.966L9.028,16.966L9.028,5.462L12.135,5.462L12.135,14.201L14.467,14.201L14.467,16.966Z" style="fill:rgb(158,161,168);fill-rule:nonzero;"/>
            <path id="path1021" d="M23.833,11.251C23.833,13.004 23.433,14.43 22.633,15.528C21.839,16.62 20.803,17.167 19.526,17.167C18.394,17.167 17.423,16.747 16.613,15.908C15.595,14.845 15.086,13.25 15.086,11.124C15.086,9.088 15.617,7.531 16.68,6.453C17.47,5.653 18.406,5.253 19.489,5.253C20.815,5.253 21.871,5.794 22.656,6.877C23.441,7.96 23.833,9.418 23.833,11.251ZM20.607,11.273C20.607,9.192 20.239,8.151 19.504,8.151C19.137,8.151 18.843,8.425 18.625,8.971C18.411,9.478 18.305,10.223 18.305,11.206C18.305,12.175 18.404,12.927 18.603,13.464C18.806,13.995 19.087,14.261 19.444,14.261C19.812,14.261 20.095,13.998 20.294,13.471C20.503,12.945 20.607,12.212 20.607,11.273L20.607,11.273Z" style="fill:rgb(158,161,168);fill-rule:nonzero;"/>
            <path id="path1023" d="M31.619,13.427L31.44,16.75C30.75,17.028 30.131,17.167 29.585,17.167C28.298,17.167 27.216,16.695 26.336,15.751C25.353,14.693 24.861,13.196 24.861,11.258C24.861,9.445 25.323,7.99 26.247,6.892C27.171,5.799 28.405,5.253 29.95,5.253C30.452,5.253 30.963,5.347 31.485,5.536L31.485,8.822C31.023,8.36 30.549,8.129 30.062,8.129C29.426,8.129 28.929,8.4 28.572,8.941C28.214,9.488 28.035,10.243 28.035,11.206C28.035,11.673 28.08,12.09 28.169,12.458C28.259,12.826 28.385,13.136 28.549,13.389C28.718,13.643 28.924,13.836 29.168,13.97C29.411,14.105 29.689,14.172 30.002,14.172C30.539,14.172 31.078,13.923 31.619,13.427Z" style="fill:rgb(158,161,168);fill-rule:nonzero;"/>
            <path id="path1025" d="M41.551,16.966L38.198,16.966L36.134,11.661L36.216,16.966L33.109,16.966L33.109,5.462L36.216,5.462L36.134,10.394L37.967,5.462L41.245,5.462L38.764,11.012L41.551,16.966Z" style="fill:rgb(158,161,168);fill-rule:nonzero;"/>
            <path id="path1028" d="M58.867,16.966L55.618,16.966L55.387,11.72L55.29,9.627C55.255,10.029 55.216,10.414 55.171,10.782C55.126,11.144 55.072,11.497 55.007,11.84L54.031,16.966L51.498,16.966L50.663,11.832C50.614,11.534 50.547,11.022 50.462,10.297C50.452,10.188 50.43,9.964 50.395,9.627L50.32,11.75L50.045,16.966L46.737,16.966L48.078,5.462L51.945,5.462L52.593,9.336C52.648,9.654 52.695,9.999 52.735,10.372C52.779,10.744 52.819,11.149 52.854,11.586C52.918,10.856 53.008,10.203 53.122,9.627L53.912,5.462L57.749,5.462L58.867,16.966Z" style="fill:rgb(158,161,168);fill-rule:nonzero;"/>
            <path id="path1030" d="M64.954,5.462L68.061,5.462L68.061,13.598C68.061,14.278 67.954,14.83 67.74,15.252C67.532,15.694 67.184,16.094 66.697,16.452C66.042,16.928 65.244,17.167 64.306,17.167C63.243,17.167 62.351,16.904 61.631,16.377C60.717,15.706 60.26,14.634 60.26,13.158L60.26,5.462L63.367,5.462L63.367,12.883C63.367,13.384 63.426,13.739 63.546,13.948C63.67,14.157 63.876,14.261 64.164,14.261C64.462,14.261 64.668,14.164 64.782,13.97C64.897,13.767 64.954,13.407 64.954,12.89L64.954,5.462Z" style="fill:rgb(158,161,168);fill-rule:nonzero;"/>
            <path id="path1032" d="M75.117,16.966L69.678,16.966L69.678,5.462L72.785,5.462L72.785,14.201L75.117,14.201L75.117,16.966Z" style="fill:rgb(158,161,168);fill-rule:nonzero;"/>
            <path id="path1034" d="M79.744,16.966L76.637,16.966L76.637,8.218L74.923,8.218L74.923,5.462L81.524,5.462L81.524,8.218L79.744,8.218L79.744,16.966Z" style="fill:rgb(158,161,168);fill-rule:nonzero;"/>
            <path id="path1036" d="M86.934,16.966L86.934,5.462L89.616,5.462C91.151,5.462 92.345,5.874 93.2,6.699C94.322,7.776 94.884,9.284 94.884,11.221C94.884,13.129 94.409,14.601 93.46,15.639C92.651,16.524 91.444,16.966 89.839,16.966L86.934,16.966ZM90.041,14.187C91.153,14.132 91.71,13.173 91.71,11.311C91.71,10.392 91.568,9.666 91.285,9.135C91.002,8.598 90.619,8.33 90.137,8.33L90.041,8.33L90.041,14.187Z" style="fill:rgb(158,161,168);fill-rule:nonzero;"/>
            <rect id="path1038" x="96.202" y="5.462" width="3.107" height="11.504" style="fill:rgb(158,161,168);fill-rule:nonzero;"/>
            <path id="path1040" d="M105.911,16.966L102.744,16.966L100.107,5.462L103.37,5.462L103.936,8.747C104.15,10.004 104.321,11.41 104.45,12.965C104.505,12.274 104.572,11.628 104.652,11.027C104.731,10.426 104.825,9.84 104.935,9.269L105.672,5.462L109.047,5.462L105.911,16.966Z" style="fill:rgb(158,161,168);fill-rule:nonzero;"/>
        </g>
        <rect id="rect988" x="0" y="128" width="105" height="1" style="fill:rgb(158,161,168);"/>
        <g id="g1119" transform="matrix(0.736984,0,0,0.999998,48.2604,1)">
            <path id="path994" d="M20,93.824L21.667,93.824C22.174,93.824 22.602,93.881 22.949,93.994C23.27,94.102 23.557,94.295 23.809,94.573C24.186,94.99 24.455,95.532 24.616,96.201C24.776,96.847 24.857,97.774 24.857,98.981C24.857,100.087 24.768,100.99 24.59,101.689C24.416,102.357 24.13,102.867 23.73,103.219C23.24,103.657 22.361,103.877 21.094,103.877L20,103.877L20,93.824ZM21.354,102.692C22.179,102.692 22.73,102.442 23.008,101.943C23.294,101.444 23.437,100.474 23.437,99.033C23.437,97.483 23.301,96.418 23.027,95.836C22.754,95.255 22.253,94.964 21.523,94.964L21.354,94.964L21.354,102.692Z" style="fill:rgb(158,161,168);fill-rule:nonzero;"/>
            <rect id="path996" x="26.198" y="93.824" width="1.354" height="10.052" style="fill:rgb(158,161,168);fill-rule:nonzero;"/>
            <path id="path998" d="M28.314,93.824L29.648,93.824L30.254,97.535L30.358,98.206L30.573,99.664C30.608,99.912 30.638,100.137 30.664,100.341C30.694,100.545 30.72,100.73 30.742,100.895L30.807,101.39C30.82,101.29 30.831,101.201 30.84,101.123C30.849,101.044 30.857,100.979 30.866,100.927L31.042,99.762L31.27,98.232C31.291,98.093 31.311,97.965 31.328,97.848C31.35,97.731 31.369,97.626 31.387,97.535L32.038,93.824L33.301,93.824L31.328,103.877L30.254,103.877L28.314,93.824Z" style="fill:rgb(158,161,168);fill-rule:nonzero;"/>
            <rect id="path1000" x="34.036" y="93.824" width="1.354" height="10.052" style="fill:rgb(158,161,168);fill-rule:nonzero;"/>
            <path id="path1002" d="M36.953,93.824L38.62,93.824C39.128,93.824 39.555,93.881 39.902,93.994C40.224,94.102 40.51,94.295 40.762,94.573C41.139,94.99 41.408,95.532 41.569,96.201C41.73,96.847 41.81,97.774 41.81,98.981C41.81,100.087 41.721,100.99 41.543,101.689C41.369,102.357 41.083,102.867 40.684,103.219C40.193,103.657 39.314,103.877 38.047,103.877L36.953,103.877L36.953,93.824ZM38.307,102.692C39.132,102.692 39.683,102.442 39.961,101.943C40.247,101.444 40.391,100.474 40.391,99.033C40.391,97.483 40.254,96.418 39.98,95.836C39.707,95.255 39.206,94.964 38.477,94.964L38.307,94.964L38.307,102.692Z" style="fill:rgb(158,161,168);fill-rule:nonzero;"/>
            <path id="path1004" d="M43.151,93.824L46.751,93.824L46.751,94.97L44.505,94.97L44.505,98.154L46.497,98.154L46.497,99.3L44.505,99.3L44.505,102.731L46.751,102.731L46.751,103.877L43.151,103.877L43.151,93.824Z" style="fill:rgb(158,161,168);fill-rule:nonzero;"/>
            <path id="path1006" d="M47.995,93.824L49.779,93.824C50.517,93.824 51.066,94 51.426,94.352C51.882,94.807 52.109,95.504 52.109,96.442C52.109,97.162 51.988,97.742 51.745,98.18C51.506,98.614 51.163,98.883 50.716,98.987L52.565,103.877L51.191,103.877L49.349,98.955L49.349,103.877L47.995,103.877L47.995,93.824ZM49.349,98.278C49.874,98.278 50.245,98.156 50.462,97.913C50.679,97.67 50.788,97.26 50.788,96.682C50.788,96.37 50.764,96.103 50.716,95.882C50.673,95.66 50.601,95.48 50.501,95.341C50.406,95.202 50.28,95.1 50.124,95.035C49.972,94.97 49.79,94.938 49.577,94.938L49.349,94.938L49.349,98.278Z" style="fill:rgb(158,161,168);fill-rule:nonzero;"/>
        </g>
        <g id="text1010" transform="matrix(1.1033,0,0,0.906373,2,-0.169632)">
            <path id="path1055" d="M41.883,30.512L41.883,31.663C41.725,31.47 41.537,31.374 41.316,31.374C40.695,31.374 40.384,32.046 40.384,33.392C40.384,34.82 40.693,35.534 41.31,35.534C41.484,35.534 41.674,35.457 41.883,35.304L41.883,36.36C41.584,36.517 41.281,36.596 40.974,36.596C39.762,36.596 39.157,35.565 39.157,33.504C39.157,32.406 39.306,31.598 39.605,31.079C39.904,30.555 40.368,30.294 40.998,30.294C41.301,30.294 41.596,30.367 41.883,30.512Z" style="fill:rgb(158,161,168);fill-rule:nonzero;"/>
            <rect id="path1058" x="42.833" y="26.476" width="1.127" height="10.026" style="fill:rgb(158,161,168);fill-rule:nonzero;"/>
            <path id="path1065" d="M48.846,33.498C48.846,35.563 48.207,36.596 46.928,36.596C45.65,36.596 45.01,35.548 45.01,33.451C45.01,31.346 45.648,30.294 46.922,30.294C47.253,30.294 47.538,30.357 47.778,30.483C48.022,30.609 48.222,30.803 48.38,31.067C48.537,31.33 48.653,31.663 48.728,32.064C48.807,32.465 48.846,32.943 48.846,33.498ZM47.677,33.469C47.677,32.666 47.624,32.107 47.518,31.793C47.412,31.474 47.223,31.315 46.952,31.315C46.684,31.315 46.493,31.472 46.379,31.787C46.273,32.101 46.22,32.65 46.22,33.433C46.22,34.216 46.273,34.763 46.379,35.074C46.493,35.388 46.684,35.546 46.952,35.546C47.219,35.546 47.406,35.39 47.512,35.079C47.622,34.788 47.678,34.251 47.678,33.469L47.677,33.469Z" style="fill:rgb(158,161,168);fill-rule:nonzero;"/>
            <path id="path1069" d="M52.386,30.512L52.386,31.663C52.229,31.47 52.04,31.374 51.82,31.374C51.198,31.374 50.888,32.046 50.888,33.392C50.888,34.82 51.196,35.534 51.814,35.534C51.987,35.534 52.178,35.457 52.386,35.304L52.386,36.36C52.087,36.517 51.784,36.596 51.478,36.596C50.266,36.596 49.66,35.565 49.66,33.504C49.66,32.406 49.81,31.598 50.109,31.079C50.408,30.555 50.872,30.294 51.501,30.294C51.804,30.294 52.099,30.367 52.386,30.512Z" style="fill:rgb(158,161,168);fill-rule:nonzero;"/>
            <path id="path1072" d="M53.266,26.476L54.393,26.476L54.393,33.114L55.827,30.394L57.101,30.394L55.543,33.114L57.308,36.502L55.986,36.502L54.393,33.256L54.393,36.502L53.266,36.502L53.266,26.476Z" style="fill:rgb(158,161,168);fill-rule:nonzero;"/>
        </g>
        <g id="text1018" transform="matrix(1.1033,0,0,0.906373,2,-1.00002)">
            <path id="path1041" d="M39.88,41.86L40.969,41.86L41.367,43.602C41.449,43.956 41.518,44.331 41.575,44.728C41.631,45.121 41.677,45.551 41.713,46.019C41.734,45.909 41.744,45.845 41.744,45.827L41.867,45.009C41.913,44.698 42.003,44.229 42.137,43.602L42.504,41.86L43.486,41.86L42.052,47.357L41.367,47.357L39.88,41.86Z" style="fill:rgb(158,161,168);fill-rule:nonzero;"/>
            <path id="path1043" d="M47.225,41.86L47.225,47.357L46.211,47.357L46.211,46.651C46.066,46.951 45.921,47.159 45.775,47.272C45.63,47.385 45.439,47.442 45.202,47.442C44.745,47.442 44.411,47.208 44.198,46.741C43.986,46.273 43.879,45.541 43.879,44.542C43.879,43.59 43.986,42.891 44.198,42.444C44.411,41.995 44.745,41.77 45.202,41.77C45.62,41.77 45.956,42.007 46.211,42.482L46.211,41.86L47.225,41.86ZM44.931,44.585C44.931,45.307 44.979,45.811 45.074,46.098C45.173,46.385 45.347,46.528 45.595,46.528C45.821,46.528 45.986,46.38 46.089,46.082C46.191,45.764 46.243,45.273 46.243,44.611C46.243,43.946 46.191,43.453 46.089,43.135C45.986,42.837 45.821,42.689 45.595,42.689C45.354,42.689 45.182,42.83 45.08,43.114C44.981,43.376 44.931,43.866 44.931,44.585L44.931,44.585Z" style="fill:rgb(158,161,168);fill-rule:nonzero;"/>
            <rect id="path1045" x="48.378" y="38.334" width="1.014" height="9.023" style="fill:rgb(158,161,168);fill-rule:nonzero;"/>
            <path id="path1047" d="M50.544,41.86L51.564,41.86L51.564,47.357L50.544,47.357L50.544,41.86ZM51.022,39.523C51.207,39.523 51.366,39.591 51.5,39.725C51.635,39.86 51.702,40.021 51.702,40.209C51.702,40.4 51.635,40.563 51.5,40.697C51.366,40.832 51.203,40.899 51.012,40.899C50.821,40.899 50.658,40.832 50.523,40.697C50.392,40.566 50.327,40.402 50.327,40.203C50.327,40.019 50.394,39.86 50.529,39.725C50.674,39.591 50.838,39.523 51.022,39.523L51.022,39.523Z" style="fill:rgb(158,161,168);fill-rule:nonzero;"/>
            <path id="path1049" d="M55.85,38.334L55.85,47.357L54.836,47.357L54.836,46.651C54.69,46.951 54.545,47.159 54.4,47.272C54.255,47.385 54.062,47.442 53.821,47.442C53.368,47.442 53.035,47.21 52.823,46.746C52.61,46.279 52.504,45.546 52.504,44.547C52.504,44.066 52.531,43.65 52.584,43.299C52.637,42.949 52.717,42.66 52.823,42.434C52.933,42.207 53.072,42.041 53.242,41.935C53.412,41.825 53.614,41.77 53.848,41.77C54.071,41.77 54.255,41.823 54.4,41.929C54.471,41.979 54.543,42.05 54.618,42.142C54.692,42.234 54.765,42.347 54.836,42.482L54.836,38.334L55.85,38.334ZM53.556,44.585C53.556,45.307 53.603,45.811 53.699,46.098C53.798,46.385 53.972,46.528 54.22,46.528C54.446,46.528 54.611,46.38 54.713,46.082C54.816,45.764 54.867,45.273 54.867,44.611C54.867,43.946 54.816,43.453 54.713,43.135C54.611,42.837 54.446,42.689 54.22,42.689C53.979,42.689 53.807,42.83 53.704,43.114C53.605,43.376 53.556,43.866 53.556,44.585L53.556,44.585Z" style="fill:rgb(158,161,168);fill-rule:nonzero;"/>
        </g>
        <g id="text1123" transform="matrix(0.860891,0,0,1.16159,3,0)">
            <path id="path1125" d="M3.045,81.527L3.953,81.527L5.808,90.181L4.653,90.181L4.328,88.494L2.613,88.494L2.283,90.181L1.162,90.181L3.045,81.527ZM4.16,87.591L3.902,86.212C3.73,85.275 3.59,84.273 3.482,83.208C3.43,83.728 3.362,84.255 3.28,84.789C3.198,85.319 3.101,85.884 2.989,86.481L2.776,87.591L4.16,87.591Z" style="fill:rgb(158,161,168);fill-rule:nonzero;"/>
            <path id="path1127" d="M9.827,81.667L9.827,82.715C9.528,82.569 9.277,82.497 9.076,82.497C8.799,82.497 8.562,82.566 8.364,82.704C8.166,82.838 8.001,83.048 7.87,83.332C7.743,83.616 7.648,83.976 7.585,84.413C7.525,84.847 7.495,85.361 7.495,85.955C7.495,88.092 8.042,89.161 9.137,89.161C9.328,89.161 9.558,89.101 9.827,88.981L9.827,90.052C9.546,90.209 9.232,90.287 8.885,90.287C7.133,90.287 6.256,88.856 6.256,85.994C6.256,84.447 6.469,83.296 6.895,82.541C7.325,81.787 7.981,81.409 8.863,81.409C9.188,81.409 9.509,81.495 9.827,81.667L9.827,81.667Z" style="fill:rgb(158,161,168);fill-rule:nonzero;"/>
            <path id="path1138" d="M10.112,81.527L13.907,81.527L13.907,82.547L12.601,82.547L12.601,90.181L11.458,90.181L11.458,82.547L10.112,82.547L10.112,81.527Z" style="fill:rgb(158,161,168);fill-rule:nonzero;"/>
            <rect id="path1141" x="14.546" y="81.527" width="1.166" height="8.654" style="fill:rgb(158,161,168);fill-rule:nonzero;"/>
            <path id="path1148" d="M16.367,81.527L17.516,81.527L18.038,84.722L18.127,85.299L18.312,86.554C18.342,86.767 18.368,86.962 18.391,87.137C18.417,87.313 18.439,87.472 18.458,87.614L18.514,88.04C18.525,87.954 18.534,87.877 18.542,87.81C18.549,87.743 18.557,87.687 18.564,87.642L18.716,86.638L18.912,85.321C18.931,85.202 18.947,85.092 18.962,84.991C18.981,84.89 18.998,84.8 19.013,84.722L19.573,81.527L20.661,81.527L18.962,90.181L18.038,90.181L16.367,81.527Z" style="fill:rgb(158,161,168);fill-rule:nonzero;"/>
            <path id="path1150" d="M21.294,81.527L24.393,81.527L24.393,82.513L22.46,82.513L22.46,85.254L24.175,85.254L24.175,86.24L22.46,86.24L22.46,89.194L24.393,89.194L24.393,90.181L21.294,90.181L21.294,81.527Z" style="fill:rgb(158,161,168);fill-rule:nonzero;"/>
        </g>
    </g>
</svg>
