<?xml version="1.0" encoding="UTF-8" standalone="no"?>
<!DOCTYPE svg PUBLIC "-//W3C//DTD SVG 1.1//EN" "http://www.w3.org/Graphics/SVG/1.1/DTD/svg11.dtd">
<svg width="100%" height="100%" viewBox="0 0 315 380" version="1.1" xmlns="http://www.w3.org/2000/svg" xmlns:xlink="http://www.w3.org/1999/xlink" xml:space="preserve" xmlns:serif="http://www.serif.com/" style="fill-rule:evenodd;clip-rule:evenodd;stroke-linejoin:round;stroke-miterlimit:2;">
    <g id="Layer-2" serif:id="Layer 2">
        <rect id="rect1189" x="0" y="0" width="315" height="380" style="fill:rgb(44,45,48);"/>
        <g id="text80" transform="matrix(0.87098,0,0,0.995047,118.5,6.99997)">
            <path id="path4726" d="M29.851,371.706L29.851,363.943L31.853,363.943L32.903,366.668C32.96,366.829 33.024,367.013 33.094,367.221C33.168,367.429 33.249,367.668 33.336,367.94L33.552,368.624C33.475,367.95 33.416,367.373 33.376,366.894C33.336,366.415 33.316,366.013 33.316,365.687L33.316,363.943L35.317,363.943L35.317,371.706L33.316,371.706L32.26,368.85C32.149,368.545 32.049,368.26 31.958,367.995C31.871,367.727 31.794,367.472 31.727,367.231C31.77,367.777 31.802,368.253 31.822,368.659C31.843,369.065 31.853,369.42 31.853,369.725L31.853,371.706L29.851,371.706Z" style="fill:rgb(158,161,168);fill-rule:nonzero;"/>
            <path id="path4728" d="M39.887,371.706L37.791,371.706L37.791,368.418L35.865,363.943L38.052,363.943L38.429,365.094C38.503,365.319 38.568,365.535 38.625,365.743C38.686,365.951 38.739,366.15 38.786,366.341C38.863,366.056 38.93,365.811 38.987,365.607C39.044,365.399 39.095,365.232 39.138,365.104L39.52,363.943L41.692,363.943L39.887,368.418L39.887,371.706Z" style="fill:rgb(158,161,168);fill-rule:nonzero;"/>
            <path id="path4730" d="M41.894,371.515L41.894,369.076C42.306,369.639 42.752,369.921 43.231,369.921C43.412,369.921 43.56,369.874 43.673,369.78C43.787,369.683 43.844,369.562 43.844,369.418C43.844,369.21 43.72,369.008 43.472,368.81L43.13,368.543C42.902,368.372 42.708,368.203 42.547,368.035C42.386,367.865 42.256,367.69 42.155,367.513C42.054,367.332 41.981,367.146 41.934,366.954C41.887,366.763 41.863,366.562 41.863,366.351C41.863,365.989 41.947,365.61 42.115,365.215C42.199,365.03 42.296,364.863 42.406,364.712C42.517,364.558 42.644,364.422 42.789,364.305C43.184,363.969 43.662,363.802 44.222,363.802C44.721,363.802 45.224,363.934 45.73,364.199L45.73,366.572C45.559,366.308 45.365,366.1 45.147,365.949C44.929,365.795 44.714,365.718 44.503,365.718C44.342,365.718 44.21,365.765 44.106,365.858C43.999,365.949 43.945,366.058 43.945,366.185C43.945,366.393 44.087,366.599 44.372,366.804L44.704,367.05C45.147,367.368 45.463,367.695 45.655,368.03C45.849,368.366 45.946,368.758 45.946,369.207C45.946,369.971 45.713,370.601 45.247,371.098C44.781,371.594 44.191,371.842 43.477,371.842C42.985,371.842 42.457,371.733 41.894,371.515Z" style="fill:rgb(158,161,168);fill-rule:nonzero;"/>
            <path id="path4732" d="M49.576,371.706L47.48,371.706L47.48,365.803L46.323,365.803L46.323,363.943L50.778,363.943L50.778,365.803L49.576,365.803L49.576,371.706Z" style="fill:rgb(158,161,168);fill-rule:nonzero;"/>
            <path id="path4734" d="M56.525,371.706L54.428,371.706L54.428,368.584L53.428,368.584L53.428,371.706L51.331,371.706L51.331,363.943L53.428,363.943L53.428,366.688L54.428,366.688L54.428,363.943L56.525,363.943L56.525,371.706Z" style="fill:rgb(158,161,168);fill-rule:nonzero;"/>
            <rect id="path4736" x="57.606" y="363.943" width="2.097" height="7.763" style="fill:rgb(158,161,168);"/>
        </g>
        <path id="rect4778-8" d="M232.478,339L261.522,339C264.003,339 266,340.997 266,343.478L266,372.522C266,375.003 264.003,377 261.522,377L232.478,377C229.997,377 228,375.003 228,372.522L228,343.478C228,340.997 229.997,339 232.478,339Z" style="fill:rgb(60,60,60);fill-rule:nonzero;"/>
        <path id="rect4778-3" d="M277.478,339L306.522,339C309.003,339 311,340.997 311,343.478L311,372.522C311,375.003 309.003,377 306.522,377L277.478,377C274.997,377 273,375.003 273,372.522L273,343.478C273,340.997 274.997,339 277.478,339Z" style="fill:rgb(60,60,60);fill-rule:nonzero;"/>
        <path id="rect1034" d="M7.478,339L36.522,339C39.003,339 41,340.997 41,343.478L41,372.522C41,375.003 39.003,377 36.522,377L7.478,377C4.997,377 3,375.003 3,372.522L3,343.478C3,340.997 4.997,339 7.478,339Z" style="fill:rgb(179,179,179);fill-rule:nonzero;"/>
        <path id="rect1048" d="M52.478,339L81.522,339C84.003,339 86,340.997 86,343.478L86,372.522C86,375.003 84.003,377 81.522,377L52.478,377C49.997,377 48,375.003 48,372.522L48,343.478C48,340.997 49.997,339 52.478,339Z" style="fill:rgb(179,179,179);fill-rule:nonzero;"/>
        <g id="text1076">
            <path id="path1127" d="M16.141,375L14.047,375L14.047,369.37L16.141,369.37L16.141,375ZM16.318,367.625C16.318,367.955 16.198,368.24 15.958,368.479C15.712,368.715 15.425,368.833 15.099,368.833C14.762,368.833 14.474,368.714 14.234,368.474C13.998,368.227 13.88,367.939 13.88,367.609C13.88,367.273 13.998,366.986 14.234,366.75C14.481,366.514 14.767,366.396 15.094,366.396C15.438,366.396 15.727,366.516 15.964,366.755C16.2,366.991 16.318,367.281 16.318,367.625Z" style="fill:rgb(44,45,48);fill-rule:nonzero;"/>
            <path id="path1129" d="M22.068,375L19.979,375L19.979,372.021C19.979,371.764 19.953,371.585 19.901,371.484C19.852,371.384 19.766,371.333 19.641,371.333C19.349,371.333 19.203,371.609 19.203,372.161L19.203,375L17.115,375L17.115,369.37L19.203,369.37C19.2,369.509 19.196,369.637 19.193,369.755C19.189,369.873 19.184,369.983 19.177,370.083L19.156,370.443C19.493,369.648 19.986,369.25 20.635,369.25C21.087,369.25 21.438,369.418 21.688,369.755C21.941,370.092 22.068,370.561 22.068,371.161L22.068,375Z" style="fill:rgb(44,45,48);fill-rule:nonzero;"/>
            <path id="path1131" d="M30.12,375L26.318,375L26.318,366.958L28.49,366.958L28.49,373.068L30.12,373.068L30.12,375Z" style="fill:rgb(44,45,48);fill-rule:nonzero;"/>
        </g>
        <g id="text1080">
            <path id="path1120" d="M60.182,375L58.089,375L58.089,369.37L60.182,369.37L60.182,375ZM60.359,367.625C60.359,367.955 60.24,368.24 60,368.479C59.753,368.715 59.467,368.833 59.141,368.833C58.804,368.833 58.516,368.714 58.276,368.474C58.04,368.227 57.922,367.939 57.922,367.609C57.922,367.273 58.04,366.986 58.276,366.75C58.523,366.514 58.809,366.396 59.135,366.396C59.479,366.396 59.769,366.516 60.005,366.755C60.241,366.991 60.359,367.281 60.359,367.625Z" style="fill:rgb(44,45,48);fill-rule:nonzero;"/>
            <path id="path1122" d="M66.109,375L64.021,375L64.021,372.021C64.021,371.764 63.995,371.585 63.943,371.484C63.894,371.384 63.807,371.333 63.682,371.333C63.391,371.333 63.245,371.609 63.245,372.161L63.245,375L61.156,375L61.156,369.37L63.245,369.37C63.241,369.509 63.238,369.637 63.234,369.755C63.231,369.873 63.226,369.983 63.219,370.083L63.198,370.443C63.535,369.648 64.028,369.25 64.677,369.25C65.128,369.25 65.479,369.418 65.729,369.755C65.983,370.092 66.109,370.561 66.109,371.161L66.109,375Z" style="fill:rgb(44,45,48);fill-rule:nonzero;"/>
            <path id="path1124" d="M76.078,375L73.729,375L72.656,372.135C72.646,372.087 72.627,372.023 72.599,371.943C72.575,371.863 72.544,371.767 72.505,371.656L72.521,372.187L72.521,375L70.359,375L70.359,366.958L72.583,366.958C73.562,366.958 74.295,367.151 74.781,367.536C75.399,368.03 75.708,368.731 75.708,369.641C75.708,370.613 75.293,371.285 74.463,371.656L76.078,375ZM72.531,370.682L72.677,370.682C72.927,370.682 73.135,370.587 73.302,370.396C73.469,370.205 73.552,369.962 73.552,369.667C73.552,369.066 73.238,368.766 72.609,368.766L72.531,368.766L72.531,370.682Z" style="fill:rgb(44,45,48);fill-rule:nonzero;"/>
        </g>
        <g id="text1090" transform="matrix(1,0,0,1,104,0)">
            <path id="path1111" d="M136.849,372.156C136.849,373.024 136.609,373.715 136.13,374.229C135.651,374.743 135.009,375 134.203,375C133.412,375 132.781,374.738 132.313,374.214C131.847,373.686 131.615,372.977 131.615,372.089C131.615,371.2 131.852,370.486 132.328,369.948C132.8,369.406 133.427,369.135 134.208,369.135C135.031,369.135 135.677,369.405 136.146,369.943C136.615,370.481 136.849,371.219 136.849,372.156ZM134.823,372.089C134.823,371.88 134.809,371.693 134.781,371.526C134.754,371.356 134.714,371.212 134.661,371.094C134.609,370.972 134.547,370.879 134.474,370.813C134.401,370.747 134.319,370.714 134.229,370.714C134.052,370.714 133.91,370.839 133.802,371.089C133.694,371.307 133.641,371.635 133.641,372.073C133.641,372.504 133.694,372.832 133.802,373.057C133.91,373.307 134.054,373.432 134.234,373.432C134.405,373.432 134.545,373.309 134.656,373.063C134.767,372.788 134.823,372.464 134.823,372.089Z" style="fill:rgb(197,200,209);fill-rule:nonzero;"/>
            <path id="path1113" d="M137.651,369.255L139.74,369.255L139.74,372.427C139.74,372.729 139.769,372.95 139.828,373.089C139.891,373.203 140.009,373.26 140.182,373.26C140.352,373.26 140.467,373.203 140.526,373.089C140.589,372.974 140.62,372.753 140.62,372.427L140.62,369.255L142.708,369.255L142.708,372.708C142.708,372.938 142.689,373.146 142.651,373.333C142.616,373.517 142.559,373.686 142.479,373.839C142.403,373.988 142.302,374.125 142.177,374.25C142.056,374.375 141.91,374.49 141.74,374.594C141.281,374.865 140.762,375 140.182,375C139.596,375 139.076,374.865 138.625,374.594C138.451,374.49 138.302,374.377 138.177,374.255C138.056,374.13 137.955,373.991 137.875,373.839C137.799,373.686 137.741,373.517 137.703,373.333C137.668,373.146 137.651,372.938 137.651,372.708L137.651,369.255Z" style="fill:rgb(197,200,209);fill-rule:nonzero;"/>
            <path id="path1115" d="M146.047,374.885L143.953,374.885L143.953,370.938L143.359,370.938L143.359,369.255L143.953,369.255L143.953,367.599L146.047,367.599L146.047,369.255L146.74,369.255L146.74,370.938L146.047,370.938L146.047,374.885Z" style="fill:rgb(197,200,209);fill-rule:nonzero;"/>
            <path id="path1117" d="M154.385,374.885L150.583,374.885L150.583,366.844L152.755,366.844L152.755,372.953L154.385,372.953L154.385,374.885Z" style="fill:rgb(197,200,209);fill-rule:nonzero;"/>
        </g>
        <g id="text1094" transform="matrix(1,0,0,1,104,0)">
            <path id="path1102" d="M180.891,372.156C180.891,373.024 180.651,373.715 180.172,374.229C179.693,374.743 179.05,375 178.245,375C177.453,375 176.823,374.738 176.354,374.214C175.889,373.686 175.656,372.977 175.656,372.089C175.656,371.2 175.894,370.486 176.37,369.948C176.842,369.406 177.469,369.135 178.25,369.135C179.073,369.135 179.719,369.405 180.188,369.943C180.656,370.481 180.891,371.219 180.891,372.156ZM178.865,372.089C178.865,371.88 178.851,371.693 178.823,371.526C178.795,371.356 178.755,371.212 178.703,371.094C178.651,370.972 178.589,370.879 178.516,370.813C178.443,370.747 178.361,370.714 178.271,370.714C178.094,370.714 177.951,370.839 177.844,371.089C177.736,371.307 177.682,371.635 177.682,372.073C177.682,372.504 177.736,372.832 177.844,373.057C177.951,373.307 178.096,373.432 178.276,373.432C178.446,373.432 178.587,373.309 178.698,373.063C178.809,372.788 178.865,372.464 178.865,372.089Z" style="fill:rgb(197,200,209);fill-rule:nonzero;"/>
            <path id="path1104" d="M181.693,369.255L183.781,369.255L183.781,372.427C183.781,372.729 183.811,372.95 183.87,373.089C183.932,373.203 184.05,373.26 184.224,373.26C184.394,373.26 184.509,373.203 184.568,373.089C184.63,372.974 184.662,372.753 184.662,372.427L184.662,369.255L186.75,369.255L186.75,372.708C186.75,372.938 186.731,373.146 186.693,373.333C186.658,373.517 186.601,373.686 186.521,373.839C186.444,373.988 186.344,374.125 186.219,374.25C186.097,374.375 185.951,374.49 185.781,374.594C185.323,374.865 184.804,375 184.224,375C183.637,375 183.118,374.865 182.667,374.594C182.493,374.49 182.344,374.377 182.219,374.255C182.097,374.13 181.997,373.991 181.917,373.839C181.84,373.686 181.783,373.517 181.745,373.333C181.71,373.146 181.693,372.938 181.693,372.708L181.693,369.255Z" style="fill:rgb(197,200,209);fill-rule:nonzero;"/>
            <path id="path1106" d="M190.089,374.885L187.995,374.885L187.995,370.938L187.401,370.938L187.401,369.255L187.995,369.255L187.995,367.599L190.089,367.599L190.089,369.255L190.781,369.255L190.781,370.938L190.089,370.938L190.089,374.885Z" style="fill:rgb(197,200,209);fill-rule:nonzero;"/>
            <path id="path1108" d="M200.344,374.885L197.995,374.885L196.922,372.021C196.912,371.972 196.892,371.908 196.865,371.828C196.84,371.748 196.809,371.653 196.771,371.542L196.786,372.073L196.786,374.885L194.625,374.885L194.625,366.844L196.849,366.844C197.828,366.844 198.561,367.036 199.047,367.422C199.665,367.915 199.974,368.616 199.974,369.526C199.974,370.498 199.559,371.17 198.729,371.542L200.344,374.885ZM196.797,370.568L196.943,370.568C197.193,370.568 197.401,370.472 197.568,370.281C197.734,370.09 197.818,369.847 197.818,369.552C197.818,368.951 197.504,368.651 196.875,368.651L196.797,368.651L196.797,370.568Z" style="fill:rgb(197,200,209);fill-rule:nonzero;"/>
        </g>
        <g id="g1251" transform="matrix(1,0,0,1,-61.6191,0)">
            <path id="path1172" d="M168.766,13.424L168.547,17.49C167.702,17.83 166.946,18 166.277,18C164.704,18 163.379,17.423 162.303,16.268C161.1,14.974 160.499,13.142 160.499,10.772C160.499,8.554 161.064,6.774 162.194,5.431C163.324,4.094 164.834,3.426 166.724,3.426C167.338,3.426 167.964,3.541 168.602,3.772L168.602,7.792C168.036,7.227 167.456,6.944 166.861,6.944C166.083,6.944 165.475,7.275 165.038,7.937C164.6,8.606 164.382,9.53 164.382,10.708C164.382,11.28 164.436,11.79 164.546,12.24C164.655,12.689 164.81,13.069 165.01,13.379C165.217,13.689 165.469,13.926 165.767,14.09C166.065,14.254 166.405,14.336 166.788,14.336C167.444,14.336 168.103,14.032 168.766,13.424Z" style="fill:rgb(158,161,168);fill-rule:nonzero;"/>
            <path id="path1174" d="M180.605,10.763C180.605,12.908 180.116,14.652 179.138,15.995C178.166,17.332 176.899,18 175.337,18C173.952,18 172.764,17.487 171.773,16.46C170.528,15.159 169.905,13.209 169.905,10.608C169.905,8.117 170.555,6.212 171.855,4.893C172.822,3.915 173.967,3.426 175.292,3.426C176.914,3.426 178.205,4.088 179.165,5.413C180.125,6.737 180.605,8.521 180.605,10.763ZM176.659,10.79C176.659,8.244 176.209,6.971 175.31,6.971C174.86,6.971 174.502,7.306 174.234,7.974C173.973,8.594 173.842,9.505 173.842,10.708C173.842,11.893 173.964,12.814 174.207,13.47C174.456,14.12 174.799,14.445 175.237,14.445C175.687,14.445 176.033,14.123 176.276,13.479C176.531,12.835 176.659,11.939 176.659,10.79Z" style="fill:rgb(158,161,168);fill-rule:nonzero;"/>
            <path id="path1176" d="M182.219,17.754L182.219,3.681L185.846,3.681L187.751,8.621C187.855,8.913 187.97,9.247 188.098,9.624C188.231,10 188.377,10.435 188.535,10.927L188.927,12.167C188.787,10.945 188.681,9.9 188.608,9.031C188.535,8.162 188.499,7.433 188.499,6.844L188.499,3.681L192.126,3.681L192.126,17.754L188.499,17.754L186.585,12.577C186.384,12.024 186.202,11.507 186.038,11.027C185.88,10.541 185.74,10.079 185.618,9.642C185.697,10.632 185.755,11.495 185.792,12.23C185.828,12.966 185.846,13.61 185.846,14.163L185.846,17.754L182.219,17.754Z" style="fill:rgb(158,161,168);fill-rule:nonzero;"/>
            <path id="path1178" d="M200.22,17.754L196.346,17.754L193.12,3.681L197.112,3.681L197.805,7.701C198.066,9.238 198.276,10.957 198.434,12.859C198.5,12.015 198.582,11.225 198.68,10.49C198.777,9.754 198.892,9.037 199.026,8.339L199.928,3.681L204.057,3.681L200.22,17.754Z" style="fill:rgb(158,161,168);fill-rule:nonzero;"/>
            <path id="path1180" d="M215.022,10.763C215.022,12.908 214.533,14.652 213.555,15.995C212.582,17.332 211.316,18 209.754,18C208.368,18 207.181,17.487 206.19,16.46C204.944,15.159 204.322,13.209 204.322,10.608C204.322,8.117 204.972,6.212 206.272,4.893C207.238,3.915 208.384,3.426 209.708,3.426C211.331,3.426 212.622,4.088 213.582,5.413C214.542,6.737 215.022,8.521 215.022,10.763ZM211.076,10.79C211.076,8.244 210.626,6.971 209.727,6.971C209.277,6.971 208.918,7.306 208.651,7.974C208.39,8.594 208.259,9.505 208.259,10.708C208.259,11.893 208.381,12.814 208.624,13.47C208.873,14.12 209.216,14.445 209.654,14.445C210.103,14.445 210.45,14.123 210.693,13.479C210.948,12.835 211.076,11.939 211.076,10.79Z" style="fill:rgb(158,161,168);fill-rule:nonzero;"/>
            <path id="path1182" d="M223.289,17.754L216.635,17.754L216.635,3.681L220.436,3.681L220.436,14.372L223.289,14.372L223.289,17.754Z" style="fill:rgb(158,161,168);fill-rule:nonzero;"/>
            <path id="path1184" d="M230.043,17.754L226.169,17.754L222.943,3.681L226.935,3.681L227.628,7.701C227.889,9.238 228.099,10.957 228.257,12.859C228.323,12.015 228.405,11.225 228.503,10.49C228.6,9.754 228.715,9.037 228.849,8.339L229.751,3.681L233.88,3.681L230.043,17.754Z" style="fill:rgb(158,161,168);fill-rule:nonzero;"/>
            <path id="path1186" d="M243.924,17.754L234.236,17.754L234.236,17.453L237.535,9.915C237.778,9.46 237.973,9.086 238.118,8.794C238.27,8.503 238.38,8.296 238.447,8.174C238.562,7.937 238.799,7.543 239.158,6.99L235.074,6.99L235.074,3.681L244.398,3.681L244.398,4.073L240.935,11.738C240.71,12.23 240.485,12.707 240.26,13.169C240.036,13.631 239.811,14.09 239.586,14.546C239.987,14.515 240.3,14.494 240.525,14.482C240.756,14.464 240.908,14.454 240.98,14.454L243.924,14.372L243.924,17.754Z" style="fill:rgb(158,161,168);fill-rule:nonzero;"/>
            <rect id="path1188" x="245.729" y="3.681" width="3.801" height="14.073" style="fill:rgb(158,161,168);"/>
            <path id="path1190" d="M258.143,17.754L251.49,17.754L251.49,3.681L255.29,3.681L255.29,14.372L258.143,14.372L258.143,17.754Z" style="fill:rgb(158,161,168);fill-rule:nonzero;"/>
            <path id="path1192" d="M265.945,17.754L259.292,17.754L259.292,3.681L263.092,3.681L263.092,14.372L265.945,14.372L265.945,17.754Z" style="fill:rgb(158,161,168);fill-rule:nonzero;"/>
            <path id="path1194" d="M277.74,17.754L273.811,17.754L273.529,15.967L270.967,15.967L270.658,17.754L266.729,17.754L270.111,3.681L274.759,3.681L277.74,17.754ZM273.082,12.951L272.836,11.31C272.83,11.304 272.818,11.222 272.8,11.064C272.788,10.93 272.724,10.401 272.608,9.478C272.596,9.375 272.581,9.235 272.563,9.059C272.545,8.876 272.52,8.648 272.49,8.375L272.371,7.044C272.359,7.172 272.341,7.315 272.317,7.473C272.298,7.631 272.277,7.804 272.253,7.992C272.21,8.369 272.18,8.63 272.162,8.776C272.143,8.922 272.131,9.01 272.125,9.04L271.861,10.745L271.478,12.951L273.082,12.951Z" style="fill:rgb(158,161,168);fill-rule:nonzero;"/>
        </g>
        <rect id="rect1197" x="7.5" y="27.5" width="300" height="155" style="fill:rgb(60,60,60);"/>
        <g id="text1201" transform="matrix(0.699148,0,0,0.969697,-3.24361,12.2727)">
            <path id="path1209" d="M7.5,227.789L9.703,227.789C11.427,227.789 12.289,228.859 12.289,231C12.289,231.818 12.177,232.424 11.953,232.82C11.729,233.216 11.333,233.516 10.766,233.719C11.417,233.979 11.862,234.312 12.102,234.719C12.346,235.12 12.469,235.724 12.469,236.531C12.469,238.745 11.521,239.852 9.625,239.852L7.5,239.852L7.5,227.789ZM9.031,233.102C9.661,233.102 10.099,232.956 10.344,232.664C10.589,232.357 10.711,231.818 10.711,231.047C10.711,229.745 10.242,229.094 9.305,229.094L9.18,229.094L9.109,229.094C9.068,229.094 9.042,229.096 9.031,229.102L9.031,233.102ZM9.031,238.461C9.698,238.461 10.159,238.318 10.414,238.031C10.669,237.745 10.797,237.227 10.797,236.477C10.797,235.706 10.664,235.167 10.398,234.859C10.138,234.547 9.682,234.391 9.031,234.391L9.031,238.461Z" style="fill:rgb(158,161,168);fill-rule:nonzero;"/>
            <path id="path1211" d="M13.039,227.789L14.758,227.789L15.555,230.414C15.581,230.492 15.607,230.578 15.633,230.672C15.659,230.766 15.69,230.867 15.727,230.977C16.023,231.924 16.227,232.721 16.336,233.367C16.43,232.721 16.508,232.271 16.57,232.016L16.82,230.938L16.914,230.516L17.586,227.789L19.281,227.789L17.18,234.664L17.18,239.852L15.555,239.852L15.555,234.664L13.039,227.789Z" style="fill:rgb(158,161,168);fill-rule:nonzero;"/>
            <path id="path1213" d="M20.188,227.789L22.328,227.789C23.359,227.789 24.109,228.049 24.578,228.57C25.047,229.096 25.281,229.93 25.281,231.07C25.281,232.674 24.81,233.711 23.867,234.18C23.393,234.393 22.708,234.5 21.813,234.5L21.813,239.852L20.188,239.852L20.188,227.789ZM21.813,233.109C22.484,233.109 22.948,232.974 23.203,232.703C23.464,232.427 23.594,231.937 23.594,231.234C23.594,230.516 23.469,229.99 23.219,229.656C22.969,229.323 22.576,229.156 22.039,229.156L21.813,229.156L21.813,233.109Z" style="fill:rgb(158,161,168);fill-rule:nonzero;"/>
            <path id="path1215" d="M27.875,227.789L29.141,227.789L31.727,239.852L30.117,239.852L29.664,237.5L27.273,237.5L26.813,239.852L25.25,239.852L27.875,227.789ZM29.43,236.242L29.07,234.32C28.831,233.013 28.635,231.617 28.484,230.133C28.411,230.857 28.318,231.591 28.203,232.336C28.089,233.076 27.953,233.862 27.797,234.695L27.5,236.242L29.43,236.242Z" style="fill:rgb(158,161,168);fill-rule:nonzero;"/>
            <path id="path1217" d="M36.711,228.039L36.711,229.625C36.216,229.271 35.771,229.094 35.375,229.094C34.948,229.094 34.599,229.245 34.328,229.547C34.057,229.833 33.922,230.216 33.922,230.695C33.922,231.117 34.018,231.479 34.211,231.781C34.31,231.943 34.471,232.151 34.695,232.406C34.924,232.661 35.219,232.969 35.578,233.328C36.24,234 36.69,234.581 36.93,235.07C37.169,235.544 37.289,236.125 37.289,236.812C37.289,237.745 37.026,238.513 36.5,239.117C35.974,239.706 35.299,240 34.477,240C33.784,240 33.193,239.81 32.703,239.43L32.703,237.82C33.281,238.242 33.807,238.453 34.281,238.453C34.724,238.453 35.07,238.307 35.32,238.016C35.57,237.719 35.695,237.318 35.695,236.812C35.695,236.375 35.599,235.982 35.406,235.633C35.307,235.466 35.169,235.276 34.992,235.062C34.815,234.844 34.594,234.602 34.328,234.336C33.917,233.93 33.576,233.57 33.305,233.258C33.034,232.945 32.833,232.672 32.703,232.437C32.453,231.979 32.328,231.401 32.328,230.703C32.328,229.76 32.573,229.013 33.063,228.461C33.557,227.904 34.221,227.625 35.055,227.625C35.633,227.625 36.185,227.763 36.711,228.039Z" style="fill:rgb(158,161,168);fill-rule:nonzero;"/>
            <path id="path1219" d="M42.68,228.039L42.68,229.625C42.185,229.271 41.74,229.094 41.344,229.094C40.917,229.094 40.568,229.245 40.297,229.547C40.026,229.833 39.891,230.216 39.891,230.695C39.891,231.117 39.987,231.479 40.18,231.781C40.279,231.943 40.44,232.151 40.664,232.406C40.893,232.661 41.187,232.969 41.547,233.328C42.208,234 42.659,234.581 42.898,235.07C43.138,235.544 43.258,236.125 43.258,236.812C43.258,237.745 42.995,238.513 42.469,239.117C41.943,239.706 41.268,240 40.445,240C39.753,240 39.161,239.81 38.672,239.43L38.672,237.82C39.25,238.242 39.776,238.453 40.25,238.453C40.693,238.453 41.039,238.307 41.289,238.016C41.539,237.719 41.664,237.318 41.664,236.812C41.664,236.375 41.568,235.982 41.375,235.633C41.276,235.466 41.138,235.276 40.961,235.062C40.784,234.844 40.562,234.602 40.297,234.336C39.885,233.93 39.544,233.57 39.273,233.258C39.003,232.945 38.802,232.672 38.672,232.437C38.422,231.979 38.297,231.401 38.297,230.703C38.297,229.76 38.542,229.013 39.031,228.461C39.526,227.904 40.19,227.625 41.023,227.625C41.602,227.625 42.154,227.763 42.68,228.039Z" style="fill:rgb(158,161,168);fill-rule:nonzero;"/>
        </g>
        <rect id="rect1203" x="7.5" y="187.5" width="300" height="35" style="fill:rgb(60,60,60);"/>
        <g id="text1237" transform="matrix(0.96637,0,0,1.0348,2,-7.00006)">
            <path id="path1243" d="M98.306,340.162L100.229,340.162C100.815,340.162 101.308,340.227 101.708,340.358C102.079,340.483 102.409,340.706 102.7,341.026C103.135,341.507 103.446,342.133 103.631,342.904C103.816,343.65 103.909,344.719 103.909,346.111C103.909,347.388 103.806,348.429 103.601,349.235C103.401,350.006 103.07,350.595 102.61,351C102.044,351.506 101.03,351.759 99.568,351.759L98.306,351.759L98.306,340.162ZM99.868,350.392C100.82,350.392 101.455,350.104 101.776,349.528C102.106,348.952 102.272,347.833 102.272,346.171C102.272,344.383 102.114,343.154 101.798,342.483C101.483,341.812 100.905,341.477 100.064,341.477L99.868,341.477L99.868,350.392Z" style="fill:rgb(158,161,168);fill-rule:nonzero;"/>
            <path id="path1245" d="M105.456,340.162L107.514,340.162C108.365,340.162 108.999,340.365 109.414,340.771C109.94,341.296 110.203,342.1 110.203,343.182C110.203,344.013 110.063,344.681 109.782,345.187C109.507,345.688 109.111,345.998 108.596,346.118L110.729,351.759L109.144,351.759L107.018,346.081L107.018,351.759L105.456,351.759L105.456,340.162ZM107.018,345.3C107.624,345.3 108.052,345.159 108.303,344.879C108.553,344.599 108.678,344.125 108.678,343.459C108.678,343.099 108.651,342.791 108.596,342.536C108.546,342.28 108.463,342.072 108.348,341.912C108.238,341.752 108.092,341.634 107.912,341.559C107.737,341.484 107.527,341.447 107.281,341.447L107.018,341.447L107.018,345.3Z" style="fill:rgb(158,161,168);fill-rule:nonzero;"/>
            <path id="path1247" d="M110.931,340.162L112.584,340.162L113.35,342.686C113.375,342.761 113.4,342.844 113.425,342.934C113.45,343.024 113.48,343.121 113.515,343.227C113.801,344.138 113.996,344.904 114.101,345.525C114.191,344.904 114.266,344.471 114.326,344.226L114.567,343.189L114.657,342.783L115.303,340.162L116.932,340.162L114.912,346.772L114.912,351.759L113.35,351.759L113.35,346.772L110.931,340.162Z" style="fill:rgb(158,161,168);fill-rule:nonzero;"/>
        </g>
        <g id="text1241" transform="matrix(0.938407,0,0,1.06564,-2,-7.00006)">
            <path id="path1250" d="M215.258,330.319L216.724,330.319L217.49,335.549L217.614,336.322C217.672,336.74 217.716,337.122 217.745,337.467L217.826,338.422C217.83,338.447 217.835,338.49 217.84,338.554C217.845,338.617 217.852,338.697 217.862,338.794L217.899,338.43C217.957,337.793 218.018,337.207 218.081,336.672C218.149,336.137 218.222,335.644 218.3,335.191L219.109,330.319L220.276,330.319L221.035,335.053C221.146,335.753 221.239,336.402 221.312,337C221.39,337.598 221.453,338.169 221.501,338.714C221.55,338.14 221.604,337.586 221.662,337.051C221.725,336.516 221.791,335.991 221.859,335.476L221.968,334.725L222.617,330.319L224.069,330.319L222.078,341.58L220.896,341.58L220.101,336.716C220.096,336.696 220.084,336.616 220.065,336.475C220.045,336.334 220.016,336.132 219.977,335.87L219.824,334.746C219.814,334.659 219.797,334.528 219.773,334.353C219.754,334.178 219.732,333.956 219.707,333.689L219.671,333.222C219.661,333.334 219.652,333.431 219.642,333.514C219.632,333.597 219.625,333.665 219.62,333.718C219.596,334.039 219.574,334.289 219.554,334.469C219.54,334.644 219.53,334.751 219.525,334.79L219.372,335.87C219.338,336.118 219.311,336.312 219.292,336.453C219.273,336.594 219.258,336.682 219.248,336.716L218.424,341.58L217.206,341.58L215.258,330.319Z" style="fill:rgb(158,161,168);fill-rule:nonzero;"/>
            <path id="path1252" d="M224.973,330.319L229.006,330.319L229.006,331.603L226.49,331.603L226.49,335.169L228.722,335.169L228.722,336.453L226.49,336.453L226.49,340.297L229.006,340.297L229.006,341.58L224.973,341.58L224.973,330.319Z" style="fill:rgb(158,161,168);fill-rule:nonzero;"/>
            <path id="path1254" d="M229.502,330.319L234.44,330.319L234.44,331.647L232.74,331.647L232.74,341.58L231.253,341.58L231.253,331.647L229.502,331.647L229.502,330.319Z" style="fill:rgb(158,161,168);fill-rule:nonzero;"/>
        </g>
        <g id="text1259" transform="matrix(0.882334,0,0,0.981262,275.054,-240.909)">
            <path id="path1261" d="M14.673,251.786L16.788,251.786C17.663,251.786 18.314,251.995 18.742,252.411C19.282,252.952 19.552,253.778 19.552,254.89C19.552,255.744 19.408,256.431 19.12,256.951C18.837,257.466 18.43,257.785 17.9,257.908L20.093,263.706L18.464,263.706L16.279,257.87L16.279,263.706L14.673,263.706L14.673,251.786ZM16.279,257.067C16.902,257.067 17.342,256.923 17.599,256.635C17.856,256.346 17.985,255.86 17.985,255.175C17.985,254.805 17.957,254.488 17.9,254.226C17.849,253.963 17.764,253.75 17.645,253.585C17.532,253.42 17.383,253.299 17.198,253.222C17.017,253.145 16.801,253.106 16.549,253.106L16.279,253.106L16.279,257.067Z" style="fill:rgb(158,161,168);fill-rule:nonzero;"/>
            <path id="path1263" d="M21.343,251.786L25.613,251.786L25.613,253.145L22.949,253.145L22.949,256.92L25.312,256.92L25.312,258.279L22.949,258.279L22.949,262.348L25.613,262.348L25.613,263.706L21.343,263.706L21.343,251.786Z" style="fill:rgb(158,161,168);fill-rule:nonzero;"/>
            <path id="path1265" d="M31.063,252.033L31.063,253.6C30.574,253.25 30.134,253.075 29.743,253.075C29.321,253.075 28.976,253.225 28.709,253.523C28.441,253.806 28.307,254.185 28.307,254.658C28.307,255.075 28.402,255.433 28.593,255.731C28.691,255.891 28.85,256.097 29.072,256.349C29.298,256.601 29.589,256.905 29.944,257.26C30.598,257.924 31.043,258.498 31.28,258.982C31.516,259.45 31.635,260.024 31.635,260.703C31.635,261.624 31.375,262.384 30.855,262.981C30.335,263.562 29.669,263.853 28.855,263.853C28.171,263.853 27.587,263.665 27.103,263.29L27.103,261.699C27.674,262.116 28.194,262.324 28.662,262.324C29.1,262.324 29.442,262.18 29.689,261.892C29.936,261.599 30.06,261.202 30.06,260.703C30.06,260.271 29.965,259.882 29.774,259.537C29.676,259.373 29.54,259.185 29.365,258.974C29.19,258.758 28.971,258.518 28.709,258.256C28.302,257.854 27.965,257.499 27.697,257.19C27.43,256.882 27.231,256.611 27.103,256.38C26.856,255.927 26.732,255.355 26.732,254.666C26.732,253.734 26.974,252.996 27.458,252.45C27.947,251.899 28.603,251.624 29.427,251.624C29.998,251.624 30.544,251.76 31.063,252.033Z" style="fill:rgb(158,161,168);fill-rule:nonzero;"/>
            <path id="path1267" d="M32.986,251.786L37.255,251.786L37.255,253.145L34.592,253.145L34.592,256.92L36.954,256.92L36.954,258.279L34.592,258.279L34.592,262.348L37.255,262.348L37.255,263.706L32.986,263.706L32.986,251.786Z" style="fill:rgb(158,161,168);fill-rule:nonzero;"/>
            <path id="path1269" d="M37.78,251.786L43.007,251.786L43.007,253.191L41.208,253.191L41.208,263.706L39.633,263.706L39.633,253.191L37.78,253.191L37.78,251.786Z" style="fill:rgb(158,161,168);fill-rule:nonzero;"/>
        </g>
        <g id="text1007" transform="matrix(0.772014,0,0,0.969697,-5.81061,-216.667)">
            <path id="path1009" d="M12.742,229.789L14.008,229.789L16.594,241.852L14.984,241.852L14.531,239.5L12.141,239.5L11.68,241.852L10.117,241.852L12.742,229.789ZM14.297,238.242L13.938,236.32C13.698,235.013 13.503,233.617 13.352,232.133C13.279,232.857 13.185,233.591 13.07,234.336C12.956,235.076 12.82,235.862 12.664,236.695L12.367,238.242L14.297,238.242Z" style="fill:rgb(158,161,168);fill-rule:nonzero;"/>
            <path id="path1011" d="M22.195,229.984L22.195,231.445C21.779,231.242 21.43,231.141 21.148,231.141C20.763,231.141 20.432,231.237 20.156,231.43C19.88,231.617 19.651,231.909 19.469,232.305C19.292,232.701 19.159,233.203 19.07,233.813C18.987,234.417 18.945,235.133 18.945,235.961C18.945,238.94 19.708,240.43 21.234,240.43C21.5,240.43 21.82,240.346 22.195,240.18L22.195,241.672C21.805,241.891 21.367,242 20.883,242C18.44,242 17.219,240.005 17.219,236.016C17.219,233.859 17.516,232.255 18.109,231.203C18.708,230.151 19.622,229.625 20.852,229.625C21.305,229.625 21.753,229.745 22.195,229.984Z" style="fill:rgb(158,161,168);fill-rule:nonzero;"/>
            <path id="path1013" d="M22.594,229.789L27.883,229.789L27.883,231.211L26.063,231.211L26.063,241.852L24.469,241.852L24.469,231.211L22.594,231.211L22.594,229.789Z" style="fill:rgb(158,161,168);fill-rule:nonzero;"/>
            <rect id="path1015" x="28.773" y="229.789" width="1.625" height="12.063" style="fill:rgb(158,161,168);"/>
            <path id="path1017" d="M31.313,229.789L32.914,229.789L33.641,234.242L33.766,235.047L34.023,236.797C34.065,237.094 34.102,237.365 34.133,237.609C34.169,237.854 34.201,238.076 34.227,238.273L34.305,238.867C34.32,238.747 34.333,238.641 34.344,238.547C34.354,238.453 34.365,238.375 34.375,238.313L34.586,236.914L34.859,235.078C34.885,234.911 34.909,234.758 34.93,234.617C34.956,234.477 34.979,234.352 35,234.242L35.781,229.789L37.297,229.789L34.93,241.852L33.641,241.852L31.313,229.789Z" style="fill:rgb(158,161,168);fill-rule:nonzero;"/>
            <path id="path1019" d="M38.18,229.789L42.5,229.789L42.5,231.164L39.805,231.164L39.805,234.984L42.195,234.984L42.195,236.359L39.805,236.359L39.805,240.477L42.5,240.477L42.5,241.852L38.18,241.852L38.18,229.789Z" style="fill:rgb(158,161,168);fill-rule:nonzero;"/>
        </g>
        <g id="text1014" transform="matrix(0.960031,0,0,1.03623,1.15913e-05,2.29599)">
            <path id="path1058" d="M215.618,228.427L217.178,228.427L217.178,238.688L219.728,238.688L219.728,240.008L215.618,240.008L215.618,228.427Z" style="fill:rgb(158,161,168);fill-rule:nonzero;"/>
            <path id="path1060" d="M220.718,228.427L224.866,228.427L224.866,229.747L222.278,229.747L222.278,233.415L224.573,233.415L224.573,234.735L222.278,234.735L222.278,238.688L224.866,238.688L224.866,240.008L220.718,240.008L220.718,228.427Z" style="fill:rgb(158,161,168);fill-rule:nonzero;"/>
            <path id="path1062" d="M225.376,228.427L226.913,228.427L227.611,232.702L227.731,233.475L227.979,235.155C228.019,235.44 228.054,235.7 228.084,235.935C228.119,236.17 228.148,236.383 228.173,236.573L228.248,237.143C228.264,237.028 228.276,236.925 228.286,236.835C228.296,236.745 228.306,236.67 228.316,236.61L228.518,235.268L228.781,233.505C228.806,233.345 228.828,233.197 228.848,233.062C228.873,232.927 228.896,232.807 228.916,232.702L229.666,228.427L231.121,228.427L228.848,240.008L227.611,240.008L225.376,228.427Z" style="fill:rgb(158,161,168);fill-rule:nonzero;"/>
            <path id="path1064" d="M231.969,228.427L236.116,228.427L236.116,229.747L233.529,229.747L233.529,233.415L235.824,233.415L235.824,234.735L233.529,234.735L233.529,238.688L236.116,238.688L236.116,240.008L231.969,240.008L231.969,228.427Z" style="fill:rgb(158,161,168);fill-rule:nonzero;"/>
            <path id="path1066" d="M237.549,228.427L239.109,228.427L239.109,238.688L241.659,238.688L241.659,240.008L237.549,240.008L237.549,228.427Z" style="fill:rgb(158,161,168);fill-rule:nonzero;"/>
        </g>
        <g id="text1018" transform="matrix(1.16735,0,0,0.856643,-2.16825,0)">
            <path id="path1051" d="M209.535,271.262C209.535,272.771 209.39,273.858 209.1,274.526C208.813,275.171 208.326,275.494 207.637,275.494C206.948,275.494 206.458,275.169 206.168,274.52C205.882,273.889 205.739,272.782 205.739,271.197C205.739,269.612 205.882,268.505 206.168,267.874C206.455,267.221 206.942,266.895 207.631,266.895C208.27,266.895 208.741,267.181 209.045,267.754C209.372,268.36 209.535,269.529 209.535,271.262ZM208.382,271.262C208.382,269.993 208.328,269.116 208.219,268.63C208.11,268.148 207.912,267.906 207.626,267.906C207.339,267.906 207.14,268.146 207.028,268.624C206.919,269.103 206.864,269.964 206.864,271.208C206.864,272.452 206.919,273.315 207.028,273.797C207.14,274.275 207.339,274.515 207.626,274.515C207.909,274.515 208.105,274.277 208.213,273.802C208.326,273.349 208.382,272.502 208.382,271.262Z" style="fill:rgb(158,161,168);fill-rule:nonzero;"/>
            <path id="path1053" d="M213.745,266.155L213.745,275.396L212.706,275.396L212.706,274.673C212.557,274.981 212.409,275.193 212.26,275.309C212.111,275.425 211.914,275.483 211.667,275.483C211.203,275.483 210.862,275.245 210.645,274.77C210.427,274.292 210.318,273.541 210.318,272.519C210.318,272.026 210.345,271.599 210.4,271.241C210.454,270.882 210.536,270.586 210.645,270.354C210.757,270.122 210.9,269.951 211.074,269.843C211.248,269.73 211.455,269.674 211.694,269.674C211.923,269.674 212.111,269.728 212.26,269.837C212.332,269.888 212.407,269.961 212.483,270.055C212.559,270.149 212.633,270.265 212.706,270.403L212.706,266.155L213.745,266.155ZM211.395,272.557C211.395,273.296 211.444,273.813 211.542,274.107C211.643,274.401 211.821,274.547 212.075,274.547C212.307,274.547 212.476,274.395 212.581,274.091C212.686,273.764 212.739,273.262 212.739,272.584C212.739,271.902 212.686,271.398 212.581,271.072C212.476,270.767 212.307,270.615 212.075,270.615C211.828,270.615 211.653,270.76 211.547,271.05C211.446,271.318 211.395,271.821 211.395,272.557Z" style="fill:rgb(158,161,168);fill-rule:nonzero;"/>
            <path id="path1055" d="M214.985,266.998L216.519,266.998C217.719,266.998 218.319,267.743 218.319,269.234C218.319,269.803 218.241,270.225 218.085,270.501C217.929,270.776 217.654,270.985 217.258,271.126C217.712,271.308 218.022,271.54 218.188,271.822C218.359,272.102 218.444,272.522 218.444,273.084C218.444,274.625 217.784,275.396 216.464,275.396L214.985,275.396L214.985,266.998ZM216.051,270.697C216.49,270.697 216.794,270.595 216.965,270.392C217.135,270.178 217.22,269.803 217.22,269.266C217.22,268.36 216.894,267.906 216.241,267.906L216.154,267.906L216.105,267.906C216.076,267.906 216.058,267.908 216.051,267.912L216.051,270.697ZM216.051,274.428C216.515,274.428 216.836,274.328 217.014,274.129C217.191,273.929 217.28,273.568 217.28,273.046C217.28,272.51 217.188,272.134 217.003,271.92C216.821,271.703 216.504,271.594 216.051,271.594L216.051,274.428Z" style="fill:rgb(158,161,168);fill-rule:nonzero;"/>
        </g>
        <g id="text1022" transform="matrix(1.1799,0,0,0.84753,-1,0)">
            <rect id="path1041" x="222.053" y="275.015" width="2.001" height="0.858" style="fill:rgb(158,161,168);"/>
            <path id="path1043" d="M226.28,269.869L227.495,269.869L226.698,271.502C226.559,271.799 226.418,272.114 226.275,272.447C226.136,272.781 225.989,273.136 225.835,273.514C226.154,273.261 226.46,273.135 226.753,273.135C227.226,273.135 227.591,273.34 227.847,273.75C228.089,274.135 228.21,274.824 228.21,275.817C228.21,276.756 228.069,277.432 227.787,277.846C227.505,278.253 227.045,278.456 226.407,278.456C225.754,278.456 225.284,278.231 224.994,277.78C224.704,277.326 224.56,276.585 224.56,275.559C224.56,274.698 224.673,273.877 224.901,273.096C225.018,272.708 225.19,272.25 225.417,271.722C225.648,271.194 225.936,270.576 226.28,269.869ZM227.116,275.812C227.116,275.519 227.103,275.269 227.078,275.064C227.052,274.855 227.01,274.687 226.951,274.558C226.892,274.427 226.817,274.331 226.726,274.273C226.638,274.21 226.53,274.179 226.401,274.179C226.273,274.179 226.163,274.21 226.071,274.273C225.984,274.331 225.91,274.425 225.852,274.553C225.793,274.681 225.751,274.85 225.725,275.059C225.7,275.264 225.687,275.511 225.687,275.801C225.687,276.911 225.925,277.467 226.401,277.467C226.878,277.467 227.116,276.915 227.116,275.812Z" style="fill:rgb(158,161,168);fill-rule:nonzero;"/>
            <path id="path1045" d="M232.559,269.017L232.559,278.357L231.509,278.357L231.509,277.626C231.358,277.938 231.208,278.152 231.058,278.269C230.907,278.387 230.708,278.445 230.459,278.445C229.989,278.445 229.645,278.205 229.425,277.725C229.205,277.241 229.095,276.483 229.095,275.449C229.095,274.951 229.123,274.52 229.178,274.157C229.233,273.794 229.315,273.496 229.425,273.261C229.539,273.026 229.683,272.854 229.859,272.744C230.035,272.631 230.244,272.574 230.486,272.574C230.717,272.574 230.907,272.629 231.058,272.739C231.131,272.79 231.206,272.863 231.283,272.959C231.36,273.054 231.435,273.171 231.509,273.311L231.509,269.017L232.559,269.017ZM230.184,275.488C230.184,276.235 230.233,276.757 230.332,277.054C230.435,277.351 230.614,277.5 230.871,277.5C231.105,277.5 231.276,277.346 231.382,277.038C231.488,276.708 231.542,276.2 231.542,275.515C231.542,274.826 231.488,274.317 231.382,273.987C231.276,273.679 231.105,273.525 230.871,273.525C230.622,273.525 230.444,273.672 230.338,273.965C230.235,274.236 230.184,274.744 230.184,275.488Z" style="fill:rgb(158,161,168);fill-rule:nonzero;"/>
            <path id="path1047" d="M233.812,269.869L235.362,269.869C236.575,269.869 237.182,270.622 237.182,272.129C237.182,272.704 237.103,273.131 236.946,273.409C236.788,273.688 236.509,273.899 236.11,274.042C236.568,274.225 236.881,274.46 237.05,274.745C237.222,275.028 237.308,275.453 237.308,276.021C237.308,277.578 236.641,278.357 235.307,278.357L233.812,278.357L233.812,269.869ZM234.889,273.607C235.333,273.607 235.641,273.505 235.813,273.3C235.985,273.083 236.071,272.704 236.071,272.162C236.071,271.245 235.742,270.787 235.082,270.787L234.994,270.787L234.944,270.787C234.915,270.787 234.897,270.789 234.89,270.793L234.889,273.607ZM234.889,277.379C235.359,277.379 235.683,277.278 235.863,277.076C236.042,276.875 236.132,276.51 236.132,275.982C236.132,275.44 236.038,275.061 235.852,274.844C235.668,274.624 235.348,274.515 234.889,274.515L234.889,277.379Z" style="fill:rgb(158,161,168);fill-rule:nonzero;"/>
        </g>
        <g id="text1026" transform="matrix(1.12659,0,0,0.887634,-1.99998,0)">
            <rect id="path1028" x="254.751" y="262.596" width="1.913" height="0.82" style="fill:rgb(158,161,168);"/>
            <path id="path1030" d="M258.251,260.315L257.179,260.315L257.168,259.995C257.168,259.108 257.301,258.485 257.568,258.124C257.837,257.76 258.289,257.577 258.923,257.577C260.118,257.577 260.716,258.24 260.716,259.564C260.716,260.457 260.269,261.745 259.375,263.426L258.729,264.64C258.726,264.647 258.715,264.668 258.698,264.703C258.68,264.739 258.656,264.789 258.624,264.856L260.632,264.856L260.632,265.791L257.069,265.791C257.128,265.658 257.252,265.394 257.442,264.998C257.631,264.602 257.888,264.068 258.214,263.395C258.491,262.806 258.722,262.307 258.908,261.897C259.094,261.487 259.234,261.151 259.328,260.888C259.517,260.363 259.612,259.909 259.612,259.527C259.612,258.854 259.379,258.518 258.913,258.518C258.465,258.518 258.24,258.935 258.24,259.769L258.246,260.231L258.251,260.315Z" style="fill:rgb(158,161,168);fill-rule:nonzero;"/>
            <path id="path1032" d="M263.259,257.677L264.273,257.677L264.273,262.733L264.794,262.733L264.794,263.568L264.273,263.568L264.273,265.791L263.259,265.791L263.259,263.568L261.036,263.568L261.036,262.638L263.259,257.677ZM263.259,262.733L263.259,259.327L261.893,262.733L263.259,262.733Z" style="fill:rgb(158,161,168);fill-rule:nonzero;"/>
            <path id="path1034" d="M268.851,256.863L268.851,265.791L267.847,265.791L267.847,265.092C267.703,265.39 267.56,265.595 267.416,265.707C267.272,265.819 267.081,265.875 266.843,265.875C266.395,265.875 266.065,265.646 265.855,265.187C265.645,264.724 265.54,263.999 265.54,263.011C265.54,262.535 265.566,262.123 265.619,261.776C265.671,261.429 265.75,261.144 265.855,260.92C265.964,260.695 266.102,260.531 266.27,260.426C266.439,260.317 266.638,260.263 266.869,260.263C267.09,260.263 267.272,260.315 267.416,260.42C267.486,260.47 267.558,260.54 267.631,260.631C267.705,260.722 267.777,260.834 267.847,260.967L267.847,256.863L268.851,256.863ZM266.58,263.048C266.58,263.763 266.628,264.262 266.722,264.546C266.82,264.83 266.992,264.971 267.237,264.971C267.462,264.971 267.624,264.824 267.726,264.53C267.828,264.215 267.878,263.73 267.878,263.074C267.878,262.416 267.828,261.929 267.726,261.613C267.624,261.319 267.462,261.172 267.237,261.172C266.999,261.172 266.829,261.312 266.728,261.592C266.629,261.852 266.58,262.337 266.58,263.048Z" style="fill:rgb(158,161,168);fill-rule:nonzero;"/>
            <path id="path1037" d="M270.049,257.677L271.531,257.677C272.691,257.677 273.27,258.397 273.27,259.837C273.27,260.387 273.195,260.795 273.044,261.062C272.894,261.328 272.627,261.529 272.246,261.666C272.684,261.841 272.983,262.065 273.144,262.339C273.309,262.608 273.391,263.015 273.391,263.558C273.391,265.047 272.754,265.791 271.478,265.791L270.049,265.791L270.049,257.677ZM271.079,261.251C271.503,261.251 271.797,261.153 271.962,260.957C272.126,260.75 272.209,260.387 272.209,259.869C272.209,258.993 271.893,258.555 271.263,258.555L271.179,258.555L271.131,258.555C271.103,258.555 271.086,258.557 271.079,258.56L271.079,261.251ZM271.079,264.856C271.527,264.856 271.837,264.76 272.009,264.567C272.181,264.374 272.267,264.026 272.267,263.521C272.267,263.003 272.177,262.64 271.999,262.433C271.823,262.223 271.517,262.118 271.079,262.118L271.079,264.856Z" style="fill:rgb(158,161,168);fill-rule:nonzero;"/>
        </g>
        <g id="text1075" transform="matrix(1.05833,0,0,0.944883,0,0)">
            <path id="path1077" d="M85.106,386.76L86.474,386.76C86.891,386.76 87.242,386.807 87.527,386.899C87.791,386.989 88.026,387.147 88.232,387.375C88.543,387.717 88.763,388.163 88.895,388.712C89.027,389.242 89.093,390.003 89.093,390.994C89.093,391.903 89.02,392.644 88.874,393.217C88.731,393.766 88.496,394.185 88.168,394.474C87.766,394.833 87.044,395.013 86.004,395.013L85.106,395.013L85.106,386.76ZM86.217,394.04C86.894,394.04 87.347,393.836 87.575,393.426C87.81,393.016 87.928,392.22 87.928,391.037C87.928,389.764 87.816,388.89 87.591,388.412C87.367,387.935 86.955,387.696 86.356,387.696L86.217,387.696L86.217,394.04Z" style="fill:rgb(158,161,168);fill-rule:nonzero;"/>
            <rect id="path1079" x="89.558" y="391.763" width="1.946" height="0.834" style="fill:rgb(158,161,168);"/>
            <path id="path1081" d="M91.669,386.76L92.744,386.76L93.305,390.593L93.396,391.159C93.439,391.466 93.471,391.746 93.492,391.999L93.551,392.699C93.554,392.716 93.558,392.749 93.561,392.795C93.565,392.842 93.57,392.9 93.577,392.972L93.604,392.705C93.647,392.238 93.691,391.808 93.738,391.416C93.788,391.024 93.841,390.663 93.898,390.331L94.491,386.761L95.347,386.761L95.903,390.23C95.985,390.743 96.052,391.219 96.106,391.657C96.163,392.095 96.209,392.514 96.245,392.913C96.28,392.492 96.319,392.086 96.362,391.694C96.409,391.302 96.457,390.917 96.507,390.54L96.587,389.989L97.062,386.761L98.126,386.761L96.667,395.014L95.801,395.014L95.218,391.448C95.215,391.433 95.206,391.374 95.192,391.272C95.177,391.169 95.156,391.021 95.127,390.828L95.015,390.005C95.008,389.941 94.996,389.845 94.978,389.716C94.963,389.588 94.947,389.426 94.93,389.23L94.903,388.888C94.896,388.97 94.889,389.041 94.881,389.102C94.874,389.163 94.869,389.212 94.865,389.252C94.847,389.487 94.831,389.67 94.817,389.802C94.807,389.93 94.799,390.009 94.796,390.037L94.683,390.828C94.659,391.01 94.639,391.152 94.625,391.256C94.61,391.359 94.6,391.423 94.593,391.448L93.989,395.013L93.096,395.013L91.669,386.76Z" style="fill:rgb(158,161,168);fill-rule:nonzero;"/>
            <path id="path1083" d="M104.295,386.894L104.295,387.894C104.009,387.754 103.771,387.685 103.578,387.685C103.315,387.685 103.088,387.751 102.899,387.883C102.711,388.011 102.554,388.21 102.429,388.481C102.308,388.752 102.217,389.096 102.157,389.513C102.099,389.926 102.071,390.416 102.071,390.983C102.071,393.021 102.593,394.04 103.637,394.04C103.819,394.04 104.038,393.983 104.295,393.869L104.295,394.89C104.027,395.04 103.728,395.115 103.397,395.115C101.725,395.115 100.89,393.75 100.89,391.02C100.89,389.545 101.093,388.448 101.499,387.728C101.909,387.008 102.534,386.648 103.375,386.648C103.685,386.648 103.992,386.73 104.295,386.894Z" style="fill:rgb(158,161,168);fill-rule:nonzero;"/>
            <path id="path1085" d="M104.567,386.76L105.663,386.76L106.16,389.807L106.246,390.358L106.422,391.555C106.45,391.758 106.475,391.943 106.497,392.111C106.522,392.278 106.543,392.43 106.561,392.565L106.614,392.971C106.625,392.89 106.634,392.816 106.641,392.752C106.648,392.688 106.655,392.635 106.663,392.592L106.807,391.635L106.994,390.379C107.012,390.265 107.028,390.16 107.042,390.064C107.06,389.968 107.076,389.882 107.09,389.807L107.625,386.761L108.662,386.761L107.042,395.013L106.16,395.013L104.567,386.76Z" style="fill:rgb(158,161,168);fill-rule:nonzero;"/>
        </g>
        <g id="text1063" transform="matrix(0.930151,0,0,1.07509,-233.5,4)">
            <path id="path1128" d="M300.761,250.469L300.761,258.451L299.863,258.451L299.863,257.826C299.735,258.092 299.607,258.275 299.478,258.375C299.35,258.476 299.179,258.526 298.966,258.526C298.565,258.526 298.271,258.321 298.083,257.91C297.895,257.497 297.801,256.849 297.801,255.965C297.801,255.539 297.825,255.171 297.871,254.861C297.918,254.551 297.989,254.296 298.083,254.096C298.18,253.895 298.304,253.748 298.454,253.654C298.604,253.557 298.783,253.508 298.99,253.508C299.187,253.508 299.35,253.555 299.478,253.649C299.541,253.693 299.605,253.756 299.671,253.837C299.736,253.919 299.801,254.019 299.863,254.138L299.863,250.469L300.761,250.469ZM298.731,255.998C298.731,256.637 298.773,257.083 298.858,257.337C298.946,257.591 299.099,257.718 299.318,257.718C299.519,257.718 299.664,257.586 299.755,257.323C299.846,257.041 299.892,256.607 299.892,256.022C299.892,255.433 299.846,254.998 299.755,254.716C299.664,254.453 299.519,254.321 299.318,254.321C299.105,254.321 298.954,254.446 298.863,254.697C298.775,254.929 298.731,255.363 298.731,255.998Z" style="fill:rgb(158,161,168);fill-rule:nonzero;"/>
            <path id="path1130" d="M301.78,253.588L302.677,253.588L302.677,254.194C302.831,253.938 302.983,253.757 303.133,253.654C303.283,253.551 303.482,253.491 303.73,253.476L303.73,254.415C303.667,254.406 303.614,254.401 303.57,254.401C303.247,254.401 303.017,254.484 302.879,254.65C302.745,254.813 302.677,255.098 302.677,255.505L302.677,258.451L301.78,258.451L301.78,253.588Z" style="fill:rgb(158,161,168);fill-rule:nonzero;"/>
            <path id="path1132" d="M304.129,253.588L305.144,253.588L305.858,256.98L306.694,253.588L307.605,253.588L305.618,260.442L304.674,260.442L305.421,258.061L304.129,253.588Z" style="fill:rgb(158,161,168);fill-rule:nonzero;"/>
        </g>
        <g id="text1067" transform="matrix(0.930151,0,0,1.07509,-236.5,4)">
            <path id="path1121" d="M322.528,253.588L323.477,253.588L323.75,255.153C323.803,255.466 323.85,255.768 323.891,256.059C323.934,256.351 323.969,256.634 323.994,256.91L324.008,257.079L324.027,256.9C324.052,256.675 324.077,256.468 324.102,256.28C324.13,256.089 324.16,255.914 324.191,255.754L324.266,255.383L324.6,253.588L325.253,253.588L325.568,255.383L325.671,255.947C325.693,256.053 325.713,256.186 325.732,256.346C325.751,256.503 325.77,256.689 325.788,256.905L325.807,257.079C325.864,256.496 325.944,255.931 326.047,255.383L326.381,253.588L327.264,253.588L326.122,258.451L325.502,258.451L325.131,256.595C325.087,256.369 325.049,256.139 325.018,255.904C324.987,255.666 324.96,255.414 324.938,255.148C324.935,255.117 324.932,255.079 324.929,255.035C324.926,254.991 324.921,254.94 324.915,254.88C324.896,255.165 324.869,255.442 324.835,255.712C324.801,255.978 324.758,256.244 324.708,256.51L324.332,258.451L323.712,258.451L322.528,253.588Z" style="fill:rgb(158,161,168);fill-rule:nonzero;"/>
            <path id="path1123" d="M329.673,256.811L330.51,256.811C330.444,257.954 329.974,258.526 329.1,258.526C328.84,258.526 328.616,258.477 328.429,258.38C328.244,258.283 328.09,258.133 327.968,257.929C327.846,257.725 327.755,257.467 327.696,257.154C327.639,256.841 327.611,256.468 327.611,256.036C327.611,255.178 327.73,254.542 327.968,254.129C328.209,253.715 328.58,253.508 329.082,253.508C330.056,253.508 330.543,254.367 330.543,256.083L330.543,256.196L328.49,256.196C328.49,257.235 328.696,257.755 329.11,257.755C329.486,257.755 329.673,257.44 329.673,256.811ZM329.626,255.547C329.589,255.037 329.531,254.702 329.453,254.542C329.371,254.363 329.24,254.274 329.058,254.274C328.873,254.274 328.742,254.363 328.663,254.542C328.585,254.702 328.527,255.037 328.49,255.547L329.626,255.547Z" style="fill:rgb(158,161,168);fill-rule:nonzero;"/>
            <path id="path1125" d="M331.454,252.226L332.351,252.226L332.351,253.588L332.84,253.588L332.84,254.302L332.351,254.302L332.351,258.451L331.454,258.451L331.454,254.302L330.961,254.302L330.961,253.588L331.454,253.588L331.454,252.226Z" style="fill:rgb(158,161,168);fill-rule:nonzero;"/>
        </g>
        <g id="text1093" transform="matrix(0.930151,0,0,1.07509,20,0)">
            <path id="path1463" d="M35.418,236.047L36.316,236.047L36.316,236.648C36.563,236.194 36.892,235.967 37.302,235.967C37.75,235.967 38.054,236.194 38.213,236.648C38.451,236.194 38.79,235.967 39.228,235.967C39.57,235.967 39.829,236.058 40.008,236.24C40.19,236.418 40.28,236.683 40.28,237.034L40.28,240.909L39.379,240.909L39.379,237.71C39.379,237.344 39.344,237.098 39.275,236.972C39.209,236.844 39.081,236.78 38.89,236.78C38.674,236.78 38.527,236.846 38.448,236.977C38.373,237.106 38.336,237.35 38.336,237.71L38.336,240.909L37.405,240.909L37.405,237.71C37.405,237.538 37.396,237.392 37.377,237.273C37.362,237.154 37.333,237.059 37.293,236.987C37.252,236.914 37.199,236.863 37.133,236.831C37.067,236.797 36.986,236.78 36.889,236.78C36.682,236.78 36.535,236.85 36.447,236.991C36.359,237.132 36.316,237.372 36.316,237.71L36.316,240.909L35.418,240.909L35.418,236.047Z" style="fill:rgb(158,161,168);fill-rule:nonzero;"/>
            <path id="path1465" d="M41.3,236.047L42.202,236.047L42.202,240.909L41.3,240.909L41.3,236.047ZM41.723,233.98C41.886,233.98 42.026,234.039 42.145,234.158C42.264,234.278 42.324,234.42 42.324,234.586C42.324,234.755 42.264,234.899 42.145,235.018C42.026,235.137 41.882,235.197 41.713,235.197C41.544,235.197 41.4,235.137 41.281,235.018C41.165,234.902 41.107,234.757 41.107,234.581C41.107,234.418 41.167,234.278 41.286,234.158C41.414,234.039 41.56,233.98 41.723,233.98Z" style="fill:rgb(158,161,168);fill-rule:nonzero;"/>
            <path id="path1467" d="M42.747,236.047L43.808,236.047L44.236,236.987C44.286,237.096 44.333,237.212 44.377,237.334C44.421,237.453 44.46,237.58 44.494,237.715C44.519,237.596 44.549,237.481 44.584,237.372C44.618,237.262 44.657,237.154 44.701,237.048L44.762,236.907L45.114,236.047L46.059,236.047L44.959,238.344L46.289,240.909L45.218,240.909L44.79,239.979C44.58,239.544 44.457,239.196 44.419,238.936C44.391,239.187 44.291,239.506 44.119,239.894L43.686,240.909L42.747,240.909L43.963,238.344L42.747,236.047Z" style="fill:rgb(158,161,168);fill-rule:nonzero;"/>
        </g>
        <path id="path1099" d="M67,269C67,273.937 62.937,278 58,278C53.063,278 49,273.937 49,269C49,264.063 53.063,260 58,260C62.937,260 67,264.063 67,269Z" style="fill:rgb(81,170,224);fill-rule:nonzero;"/>
        <path id="path1253" d="M47,12C47,16.937 42.937,21 38,21C33.063,21 29,16.937 29,12C29,7.063 33.063,3 38,3C42.937,3 47,7.063 47,12Z" style="fill:rgb(95,174,149);fill-rule:nonzero;"/>
        <path id="path1255" d="M286,12C286,16.937 281.937,21 277,21C272.063,21 268,16.937 268,12C268,7.063 272.063,3 277,3C281.937,3 286,7.063 286,12Z" style="fill:rgb(252,193,90);fill-rule:nonzero;"/>
        <path id="path1257" d="M47,239C47,243.937 42.937,248 38,248C33.063,248 29,243.937 29,239C29,234.063 33.063,230 38,230C42.937,230 47,234.063 47,239Z" style="fill:rgb(252,193,90);fill-rule:nonzero;"/>
        <path id="path1259" d="M67,239C67,243.937 62.937,248 58,248C53.063,248 49,243.937 49,239C49,234.063 53.063,230 58,230C62.937,230 67,234.063 67,239Z" style="fill:rgb(224,131,81);fill-rule:nonzero;"/>
        <g id="g1311" transform="matrix(0.930151,0,0,1.07509,-233.5,34)">
            <path id="path1305" d="M300.761,250.469L300.761,258.451L299.863,258.451L299.863,257.826C299.735,258.092 299.607,258.275 299.478,258.375C299.35,258.476 299.179,258.526 298.966,258.526C298.565,258.526 298.271,258.321 298.083,257.91C297.895,257.497 297.801,256.849 297.801,255.965C297.801,255.539 297.825,255.171 297.871,254.861C297.918,254.551 297.989,254.296 298.083,254.096C298.18,253.895 298.304,253.748 298.454,253.654C298.604,253.557 298.783,253.508 298.99,253.508C299.187,253.508 299.35,253.555 299.478,253.649C299.541,253.693 299.605,253.756 299.671,253.837C299.736,253.919 299.801,254.019 299.863,254.138L299.863,250.469L300.761,250.469ZM298.731,255.998C298.731,256.637 298.773,257.083 298.858,257.337C298.946,257.591 299.099,257.718 299.318,257.718C299.519,257.718 299.664,257.586 299.755,257.323C299.846,257.041 299.892,256.607 299.892,256.022C299.892,255.433 299.846,254.998 299.755,254.716C299.664,254.453 299.519,254.321 299.318,254.321C299.105,254.321 298.954,254.446 298.863,254.697C298.775,254.929 298.731,255.363 298.731,255.998Z" style="fill:rgb(158,161,168);fill-rule:nonzero;"/>
            <path id="path1307" d="M301.78,253.588L302.677,253.588L302.677,254.194C302.831,253.938 302.983,253.757 303.133,253.654C303.283,253.551 303.482,253.491 303.73,253.476L303.73,254.415C303.667,254.406 303.614,254.401 303.57,254.401C303.247,254.401 303.017,254.484 302.879,254.65C302.745,254.813 302.677,255.098 302.677,255.505L302.677,258.451L301.78,258.451L301.78,253.588Z" style="fill:rgb(158,161,168);fill-rule:nonzero;"/>
            <path id="path1309" d="M304.129,253.588L305.144,253.588L305.858,256.98L306.694,253.588L307.605,253.588L305.618,260.442L304.674,260.442L305.421,258.061L304.129,253.588Z" style="fill:rgb(158,161,168);fill-rule:nonzero;"/>
        </g>
        <g id="g1319" transform="matrix(0.930151,0,0,1.07509,-236.5,34)">
            <path id="path1313" d="M322.528,253.588L323.477,253.588L323.75,255.153C323.803,255.466 323.85,255.768 323.891,256.059C323.934,256.351 323.969,256.634 323.994,256.91L324.008,257.079L324.027,256.9C324.052,256.675 324.077,256.468 324.102,256.28C324.13,256.089 324.16,255.914 324.191,255.754L324.266,255.383L324.6,253.588L325.253,253.588L325.568,255.383L325.671,255.947C325.693,256.053 325.713,256.186 325.732,256.346C325.751,256.503 325.77,256.689 325.788,256.905L325.807,257.079C325.864,256.496 325.944,255.931 326.047,255.383L326.381,253.588L327.264,253.588L326.122,258.451L325.502,258.451L325.131,256.595C325.087,256.369 325.049,256.139 325.018,255.904C324.987,255.666 324.96,255.414 324.938,255.148C324.935,255.117 324.932,255.079 324.929,255.035C324.926,254.991 324.921,254.94 324.915,254.88C324.896,255.165 324.869,255.442 324.835,255.712C324.801,255.978 324.758,256.244 324.708,256.51L324.332,258.451L323.712,258.451L322.528,253.588Z" style="fill:rgb(158,161,168);fill-rule:nonzero;"/>
            <path id="path1315" d="M329.673,256.811L330.51,256.811C330.444,257.954 329.974,258.526 329.1,258.526C328.84,258.526 328.616,258.477 328.429,258.38C328.244,258.283 328.09,258.133 327.968,257.929C327.846,257.725 327.755,257.467 327.696,257.154C327.639,256.841 327.611,256.468 327.611,256.036C327.611,255.178 327.73,254.542 327.968,254.129C328.209,253.715 328.58,253.508 329.082,253.508C330.056,253.508 330.543,254.367 330.543,256.083L330.543,256.196L328.49,256.196C328.49,257.235 328.696,257.755 329.11,257.755C329.486,257.755 329.673,257.44 329.673,256.811ZM329.626,255.547C329.589,255.037 329.531,254.702 329.453,254.542C329.371,254.363 329.24,254.274 329.058,254.274C328.873,254.274 328.742,254.363 328.663,254.542C328.585,254.702 328.527,255.037 328.49,255.547L329.626,255.547Z" style="fill:rgb(158,161,168);fill-rule:nonzero;"/>
            <path id="path1317" d="M331.454,252.226L332.351,252.226L332.351,253.588L332.84,253.588L332.84,254.302L332.351,254.302L332.351,258.451L331.454,258.451L331.454,254.302L330.961,254.302L330.961,253.588L331.454,253.588L331.454,252.226Z" style="fill:rgb(158,161,168);fill-rule:nonzero;"/>
        </g>
        <path id="path1326" d="M67,299C67,303.937 62.937,308 58,308C53.063,308 49,303.937 49,299C49,294.063 53.063,290 58,290C62.937,290 67,294.063 67,299Z" style="fill:rgb(81,170,224);fill-rule:nonzero;"/>
        <path id="path1372" d="M103,299C103,303.937 98.937,308 94,308C89.063,308 85,303.937 85,299C85,294.063 89.063,290 94,290C98.937,290 103,294.063 103,299Z" style="fill:rgb(81,170,224);fill-rule:nonzero;"/>
        <g id="path1404" transform="matrix(0.930151,0,0,1.07509,-4,0)">
            <path d="M93.23,282.489L94.883,282.489L94.883,289.742L93.949,289.742L93.949,283.32L93.23,283.32L93.23,282.489Z" style="fill:rgb(158,161,168);fill-rule:nonzero;"/>
        </g>
        <g id="text1384" transform="matrix(0.930151,0,0,1.07509,-2.39902,0)">
            <path id="path1390" d="M114.226,282.813L115.133,282.813L115.133,287.332L115.598,287.332L115.598,288.079L115.133,288.079L115.133,290.066L114.226,290.066L114.226,288.079L112.239,288.079L112.239,287.248L114.226,282.813ZM114.226,287.332L114.226,284.288L113.005,287.332L114.226,287.332Z" style="fill:rgb(158,161,168);fill-rule:nonzero;"/>
            <path id="path1392" d="M119.572,286.496C119.572,287.799 119.447,288.738 119.196,289.315C118.949,289.872 118.527,290.151 117.932,290.151C117.337,290.151 116.915,289.871 116.664,289.31C116.417,288.765 116.293,287.808 116.293,286.44C116.293,285.071 116.417,284.114 116.664,283.569C116.911,283.006 117.333,282.724 117.928,282.724C118.479,282.724 118.886,282.971 119.149,283.466C119.431,283.989 119.572,284.999 119.572,286.496ZM118.576,286.496C118.576,285.4 118.529,284.642 118.435,284.222C118.341,283.806 118.17,283.597 117.923,283.597C117.676,283.597 117.503,283.804 117.406,284.218C117.312,284.631 117.265,285.375 117.265,286.449C117.265,287.523 117.312,288.269 117.406,288.685C117.503,289.099 117.676,289.305 117.923,289.305C118.167,289.305 118.336,289.1 118.43,288.69C118.527,288.298 118.576,287.567 118.576,286.496Z" style="fill:rgb(158,161,168);fill-rule:nonzero;"/>
            <path id="path1394" d="M123.556,286.496C123.556,287.799 123.43,288.738 123.18,289.315C122.932,289.872 122.511,290.151 121.916,290.151C121.321,290.151 120.898,289.871 120.648,289.31C120.4,288.765 120.277,287.808 120.277,286.44C120.277,285.071 120.4,284.114 120.648,283.569C120.895,283.006 121.316,282.724 121.911,282.724C122.463,282.724 122.87,282.971 123.133,283.466C123.415,283.989 123.556,284.999 123.556,286.496ZM122.56,286.496C122.56,285.4 122.513,284.642 122.419,284.222C122.325,283.806 122.154,283.597 121.907,283.597C121.659,283.597 121.487,283.804 121.39,284.218C121.296,284.631 121.249,285.375 121.249,286.449C121.249,287.523 121.296,288.269 121.39,288.685C121.487,289.099 121.659,289.305 121.907,289.305C122.151,289.305 122.32,289.1 122.414,288.69C122.511,288.298 122.56,287.567 122.56,286.496Z" style="fill:rgb(158,161,168);fill-rule:nonzero;"/>
        </g>
        <g id="text1409" transform="matrix(0.930151,0,0,1.07509,76.5289,-24.7828)">
            <path id="path1412" d="M10.491,286.275L11.388,286.275L11.388,286.876C11.635,286.422 11.964,286.195 12.375,286.195C12.822,286.195 13.126,286.422 13.286,286.876C13.524,286.422 13.862,286.195 14.301,286.195C14.642,286.195 14.902,286.286 15.08,286.468C15.262,286.646 15.353,286.911 15.353,287.262L15.353,291.137L14.451,291.137L14.451,287.938C14.451,287.572 14.417,287.326 14.348,287.201C14.282,287.072 14.153,287.008 13.962,287.008C13.746,287.008 13.599,287.074 13.521,287.205C13.446,287.334 13.408,287.578 13.408,287.938L13.408,291.137L12.478,291.137L12.478,287.938C12.478,287.766 12.469,287.62 12.45,287.501C12.434,287.382 12.406,287.287 12.365,287.215C12.324,287.143 12.271,287.091 12.205,287.06C12.14,287.025 12.058,287.008 11.961,287.008C11.754,287.008 11.607,287.078 11.52,287.219C11.432,287.36 11.388,287.6 11.388,287.938L11.388,291.137L10.491,291.137L10.491,286.275Z" style="fill:rgb(158,161,168);fill-rule:nonzero;"/>
            <path id="path1414" d="M18.251,286.374L18.251,287.215C18.032,287.052 17.802,286.97 17.561,286.97C17.479,286.97 17.404,286.984 17.335,287.013C17.266,287.041 17.205,287.08 17.152,287.13C17.102,287.177 17.061,287.235 17.03,287.304C17.002,287.37 16.988,287.44 16.988,287.515C16.988,287.747 17.198,288.023 17.617,288.342C17.786,288.474 17.927,288.596 18.04,288.709C18.153,288.821 18.239,288.928 18.298,289.028C18.421,289.225 18.482,289.474 18.482,289.775C18.482,290.21 18.355,290.559 18.101,290.823C17.851,291.082 17.514,291.212 17.091,291.212C16.831,291.212 16.568,291.136 16.302,290.982L16.302,290.113C16.562,290.307 16.808,290.404 17.039,290.404C17.45,290.404 17.655,290.202 17.655,289.798C17.655,289.648 17.617,289.518 17.542,289.409C17.508,289.355 17.453,289.294 17.378,289.225C17.302,289.153 17.21,289.073 17.1,288.986C16.722,288.691 16.465,288.444 16.33,288.243C16.199,288.037 16.133,287.788 16.133,287.497C16.133,287.105 16.253,286.784 16.494,286.534C16.739,286.286 17.057,286.162 17.448,286.162C17.724,286.162 17.991,286.233 18.251,286.374Z" style="fill:rgb(158,161,168);fill-rule:nonzero;"/>
            <path id="path1416" d="M21.089,289.498L21.925,289.498C21.859,290.641 21.39,291.212 20.516,291.212C20.256,291.212 20.032,291.164 19.844,291.067C19.659,290.97 19.506,290.819 19.384,290.616C19.261,290.412 19.171,290.154 19.111,289.841C19.055,289.528 19.027,289.155 19.027,288.723C19.027,287.865 19.146,287.229 19.384,286.815C19.625,286.402 19.996,286.195 20.497,286.195C21.471,286.195 21.958,287.053 21.958,288.77L21.958,288.882L19.905,288.882C19.905,289.922 20.112,290.442 20.525,290.442C20.901,290.442 21.089,290.127 21.089,289.498ZM21.042,288.234C21.004,287.724 20.946,287.388 20.868,287.229C20.787,287.05 20.655,286.961 20.473,286.961C20.289,286.961 20.157,287.05 20.079,287.229C20.001,287.388 19.943,287.724 19.905,288.234L21.042,288.234Z" style="fill:rgb(158,161,168);fill-rule:nonzero;"/>
            <path id="path1418" d="M24.748,286.369L24.748,287.285C24.623,287.132 24.473,287.055 24.297,287.055C23.803,287.055 23.555,287.59 23.555,288.662C23.555,289.798 23.801,290.367 24.293,290.367C24.431,290.367 24.582,290.306 24.748,290.184L24.748,291.025C24.51,291.15 24.269,291.212 24.025,291.212C23.06,291.212 22.578,290.392 22.578,288.751C22.578,287.877 22.697,287.233 22.935,286.82C23.173,286.404 23.543,286.195 24.044,286.195C24.285,286.195 24.52,286.253 24.748,286.369Z" style="fill:rgb(158,161,168);fill-rule:nonzero;"/>
            <path id="path1420" d="M27.384,286.374L27.384,287.215C27.165,287.052 26.934,286.97 26.693,286.97C26.612,286.97 26.537,286.984 26.468,287.013C26.399,287.041 26.338,287.08 26.285,287.13C26.234,287.177 26.194,287.235 26.162,287.304C26.134,287.37 26.12,287.44 26.12,287.515C26.12,287.747 26.33,288.023 26.75,288.342C26.919,288.474 27.06,288.596 27.172,288.709C27.285,288.821 27.371,288.928 27.431,289.028C27.553,289.225 27.614,289.474 27.614,289.775C27.614,290.21 27.487,290.559 27.233,290.823C26.983,291.082 26.646,291.212 26.223,291.212C25.964,291.212 25.7,291.136 25.434,290.982L25.434,290.113C25.694,290.307 25.94,290.404 26.172,290.404C26.582,290.404 26.787,290.202 26.787,289.798C26.787,289.648 26.75,289.518 26.674,289.409C26.64,289.355 26.585,289.294 26.51,289.225C26.435,289.153 26.342,289.073 26.233,288.986C25.854,288.691 25.597,288.444 25.462,288.243C25.331,288.037 25.265,287.788 25.265,287.497C25.265,287.105 25.386,286.784 25.627,286.534C25.871,286.286 26.189,286.162 26.581,286.162C26.856,286.162 27.124,286.233 27.384,286.374Z" style="fill:rgb(158,161,168);fill-rule:nonzero;"/>
        </g>
        <g id="text1472" transform="matrix(0.934084,0,0,1.52938,-0.857142,0)">
            <path id="path1474" d="M3.059,191.581L4.451,191.581C5.122,191.581 5.61,191.75 5.915,192.089C6.22,192.431 6.372,192.973 6.372,193.715C6.372,194.759 6.066,195.433 5.452,195.738C5.144,195.877 4.698,195.946 4.116,195.946L4.116,199.427L3.059,199.427L3.059,191.581ZM4.116,195.041C4.553,195.041 4.854,194.953 5.02,194.777C5.19,194.598 5.274,194.279 5.274,193.822C5.274,193.354 5.193,193.012 5.031,192.795C4.868,192.578 4.612,192.47 4.263,192.47L4.116,192.47L4.116,195.041Z" style="fill:rgb(158,161,168);fill-rule:nonzero;"/>
            <path id="path1476" d="M7.185,191.581L8.578,191.581C9.154,191.581 9.582,191.718 9.863,191.992C10.219,192.348 10.397,192.892 10.397,193.624C10.397,194.186 10.302,194.638 10.112,194.98C9.926,195.319 9.658,195.529 9.309,195.611L10.753,199.427L9.68,199.427L8.242,195.585L8.242,199.427L7.185,199.427L7.185,191.581ZM8.242,195.057C8.652,195.057 8.942,194.962 9.111,194.772C9.281,194.582 9.365,194.262 9.365,193.812C9.365,193.568 9.347,193.359 9.309,193.187C9.276,193.014 9.22,192.873 9.142,192.765C9.067,192.656 8.969,192.577 8.847,192.526C8.728,192.475 8.586,192.45 8.42,192.45L8.242,192.45L8.242,195.057Z" style="fill:rgb(158,161,168);fill-rule:nonzero;"/>
            <path id="path1478" d="M11.576,191.581L14.386,191.581L14.386,192.475L12.633,192.475L12.633,194.96L14.188,194.96L14.188,195.854L12.633,195.854L12.633,198.533L14.386,198.533L14.386,199.427L11.576,199.427L11.576,191.581Z" style="fill:rgb(158,161,168);fill-rule:nonzero;"/>
            <path id="path1480" d="M15.357,191.581L16.658,191.581C17.054,191.581 17.388,191.625 17.659,191.713C17.91,191.798 18.133,191.948 18.33,192.165C18.624,192.49 18.834,192.914 18.96,193.436C19.085,193.94 19.148,194.664 19.148,195.605C19.148,196.469 19.078,197.174 18.939,197.72C18.804,198.241 18.58,198.639 18.269,198.914C17.886,199.256 17.2,199.427 16.21,199.427L15.357,199.427L15.357,191.581ZM16.414,198.502C17.057,198.502 17.488,198.307 17.705,197.918C17.928,197.528 18.04,196.771 18.04,195.646C18.04,194.437 17.933,193.605 17.72,193.151C17.506,192.697 17.115,192.47 16.546,192.47L16.414,192.47L16.414,198.502Z" style="fill:rgb(158,161,168);fill-rule:nonzero;"/>
            <path id="path1482" d="M20.195,191.581L23.005,191.581L23.005,192.475L21.252,192.475L21.252,194.96L22.807,194.96L22.807,195.854L21.252,195.854L21.252,198.533L23.005,198.533L23.005,199.427L20.195,199.427L20.195,191.581Z" style="fill:rgb(158,161,168);fill-rule:nonzero;"/>
            <path id="path1484" d="M23.975,191.581L25.032,191.581L25.032,198.533L26.76,198.533L26.76,199.427L23.975,199.427L23.975,191.581Z" style="fill:rgb(158,161,168);fill-rule:nonzero;"/>
            <path id="path1486" d="M28.976,191.581L29.799,191.581L31.481,199.427L30.434,199.427L30.14,197.897L28.585,197.897L28.285,199.427L27.268,199.427L28.976,191.581ZM29.987,197.079L29.753,195.829C29.598,194.979 29.471,194.071 29.372,193.105C29.325,193.576 29.264,194.054 29.189,194.538C29.115,195.019 29.027,195.531 28.925,196.073L28.732,197.079L29.987,197.079Z" style="fill:rgb(158,161,168);fill-rule:nonzero;"/>
            <path id="path1488" d="M31.115,191.581L32.233,191.581L32.752,193.288C32.769,193.339 32.786,193.395 32.803,193.456C32.82,193.517 32.84,193.583 32.864,193.654C33.057,194.271 33.189,194.789 33.26,195.209C33.321,194.789 33.372,194.496 33.412,194.33L33.575,193.629L33.636,193.354L34.073,191.581L35.176,191.581L33.809,196.053L33.809,199.427L32.752,199.427L32.752,196.053L31.115,191.581Z" style="fill:rgb(158,161,168);fill-rule:nonzero;"/>
        </g>
        <g id="text1493" transform="matrix(0.734803,0,0,1.36091,0,0)">
            <path id="path1495" d="M2.722,193.253L5.88,193.253L5.88,194.258L3.91,194.258L3.91,197.051L5.657,197.051L5.657,198.056L3.91,198.056L3.91,201.066L5.88,201.066L5.88,202.071L2.722,202.071L2.722,193.253Z" style="fill:rgb(158,161,168);fill-rule:nonzero;"/>
            <path id="path1497" d="M8.227,193.253L9.152,193.253L11.043,202.071L9.866,202.071L9.535,200.352L7.787,200.352L7.45,202.071L6.308,202.071L8.227,193.253ZM9.364,199.432L9.101,198.028C8.926,197.072 8.783,196.052 8.673,194.967C8.619,195.496 8.551,196.033 8.467,196.577C8.383,197.118 8.284,197.693 8.17,198.302L7.953,199.432L9.364,199.432Z" style="fill:rgb(158,161,168);fill-rule:nonzero;"/>
            <path id="path1499" d="M11.745,193.253L13.31,193.253C13.957,193.253 14.439,193.407 14.755,193.716C15.154,194.116 15.354,194.727 15.354,195.549C15.354,196.181 15.248,196.689 15.035,197.074C14.825,197.455 14.524,197.691 14.132,197.782L15.754,202.071L14.549,202.071L12.933,197.753L12.933,202.071L11.745,202.071L11.745,193.253ZM12.933,197.159C13.394,197.159 13.719,197.053 13.909,196.84C14.1,196.626 14.195,196.267 14.195,195.76C14.195,195.486 14.174,195.252 14.132,195.058C14.094,194.864 14.031,194.706 13.944,194.584C13.86,194.462 13.75,194.373 13.613,194.315C13.479,194.258 13.319,194.23 13.133,194.23L12.933,194.23L12.933,197.159Z" style="fill:rgb(158,161,168);fill-rule:nonzero;"/>
            <path id="path1501" d="M16.679,193.253L17.867,193.253L17.867,201.066L19.809,201.066L19.809,202.071L16.679,202.071L16.679,193.253Z" style="fill:rgb(158,161,168);fill-rule:nonzero;"/>
            <path id="path1503" d="M19.426,193.253L20.683,193.253L21.265,195.172C21.284,195.229 21.303,195.292 21.322,195.361C21.341,195.429 21.364,195.503 21.391,195.583C21.608,196.276 21.756,196.859 21.836,197.331C21.905,196.859 21.962,196.529 22.008,196.343L22.19,195.555L22.259,195.246L22.75,193.253L23.989,193.253L22.453,198.279L22.453,202.071L21.265,202.071L21.265,198.279L19.426,193.253Z" style="fill:rgb(158,161,168);fill-rule:nonzero;"/>
            <path id="path1505" d="M27.073,193.253L28.638,193.253C29.285,193.253 29.767,193.407 30.083,193.716C30.483,194.116 30.682,194.727 30.682,195.549C30.682,196.181 30.576,196.689 30.363,197.074C30.153,197.455 29.852,197.691 29.46,197.782L31.082,202.071L29.877,202.071L28.261,197.753L28.261,202.071L27.073,202.071L27.073,193.253ZM28.261,197.159C28.722,197.159 29.047,197.053 29.238,196.84C29.428,196.626 29.523,196.267 29.523,195.76C29.523,195.486 29.502,195.252 29.46,195.058C29.422,194.864 29.359,194.706 29.272,194.584C29.188,194.462 29.078,194.373 28.941,194.315C28.807,194.258 28.647,194.23 28.461,194.23L28.261,194.23L28.261,197.159Z" style="fill:rgb(158,161,168);fill-rule:nonzero;"/>
            <path id="path1507" d="M32.007,193.253L35.165,193.253L35.165,194.258L33.195,194.258L33.195,197.051L34.943,197.051L34.943,198.056L33.195,198.056L33.195,201.066L35.165,201.066L35.165,202.071L32.007,202.071L32.007,193.253Z" style="fill:rgb(158,161,168);fill-rule:nonzero;"/>
            <path id="path1509" d="M36.256,193.253L39.432,193.253L39.432,194.258L37.444,194.258L37.444,197.045L39.237,197.045L39.237,198.05L37.444,198.05L37.444,202.071L36.256,202.071L36.256,193.253Z" style="fill:rgb(158,161,168);fill-rule:nonzero;"/>
            <path id="path1511" d="M40.345,193.253L41.533,193.253L41.533,201.066L43.475,201.066L43.475,202.071L40.345,202.071L40.345,193.253Z" style="fill:rgb(158,161,168);fill-rule:nonzero;"/>
        </g>
    </g>
</svg>
