<?xml version="1.0" encoding="UTF-8" standalone="no"?>
<!DOCTYPE svg PUBLIC "-//W3C//DTD SVG 1.1//EN" "http://www.w3.org/Graphics/SVG/1.1/DTD/svg11.dtd">
<svg width="100%" height="100%" viewBox="0 0 90 380" version="1.1" xmlns="http://www.w3.org/2000/svg" xmlns:xlink="http://www.w3.org/1999/xlink" xml:space="preserve" xmlns:serif="http://www.serif.com/" style="fill-rule:evenodd;clip-rule:evenodd;stroke-linejoin:round;stroke-miterlimit:2;">
    <g id="Layer-2" serif:id="Layer 2">
        <rect id="rect4689" x="0" y="0" width="90" height="380" style="fill:rgb(44,45,48);"/>
        <g id="text80" transform="matrix(1.00498,0,0,0.995047,-5.56788e-06,4.99997)">
            <path id="path4726" d="M29.851,371.706L29.851,363.943L31.853,363.943L32.903,366.668C32.96,366.829 33.024,367.013 33.094,367.221C33.168,367.429 33.249,367.668 33.336,367.94L33.552,368.624C33.475,367.95 33.416,367.373 33.376,366.894C33.336,366.415 33.316,366.013 33.316,365.687L33.316,363.943L35.317,363.943L35.317,371.706L33.316,371.706L32.26,368.85C32.149,368.545 32.049,368.26 31.958,367.995C31.871,367.727 31.794,367.472 31.727,367.231C31.77,367.777 31.802,368.253 31.822,368.659C31.843,369.065 31.853,369.42 31.853,369.725L31.853,371.706L29.851,371.706Z" style="fill:rgb(158,161,168);fill-rule:nonzero;"/>
            <path id="path4728" d="M39.887,371.706L37.791,371.706L37.791,368.418L35.865,363.943L38.052,363.943L38.429,365.094C38.503,365.319 38.568,365.535 38.625,365.743C38.686,365.951 38.739,366.15 38.786,366.341C38.863,366.056 38.93,365.811 38.987,365.607C39.044,365.399 39.095,365.232 39.138,365.104L39.52,363.943L41.692,363.943L39.887,368.418L39.887,371.706Z" style="fill:rgb(158,161,168);fill-rule:nonzero;"/>
            <path id="path4730" d="M41.894,371.515L41.894,369.076C42.306,369.639 42.752,369.921 43.231,369.921C43.412,369.921 43.56,369.874 43.673,369.78C43.787,369.683 43.844,369.562 43.844,369.418C43.844,369.21 43.72,369.008 43.472,368.81L43.13,368.543C42.902,368.372 42.708,368.203 42.547,368.035C42.386,367.865 42.256,367.69 42.155,367.513C42.054,367.332 41.981,367.146 41.934,366.954C41.887,366.763 41.863,366.562 41.863,366.351C41.863,365.989 41.947,365.61 42.115,365.215C42.199,365.03 42.296,364.863 42.406,364.712C42.517,364.558 42.644,364.422 42.789,364.305C43.184,363.969 43.662,363.802 44.222,363.802C44.721,363.802 45.224,363.934 45.73,364.199L45.73,366.572C45.559,366.308 45.365,366.1 45.147,365.949C44.929,365.795 44.714,365.718 44.503,365.718C44.342,365.718 44.21,365.765 44.106,365.858C43.999,365.949 43.945,366.058 43.945,366.185C43.945,366.393 44.087,366.599 44.372,366.804L44.704,367.05C45.147,367.368 45.463,367.695 45.655,368.03C45.849,368.366 45.946,368.758 45.946,369.207C45.946,369.971 45.713,370.601 45.247,371.098C44.781,371.594 44.191,371.842 43.477,371.842C42.985,371.842 42.457,371.733 41.894,371.515Z" style="fill:rgb(158,161,168);fill-rule:nonzero;"/>
            <path id="path4732" d="M49.576,371.706L47.48,371.706L47.48,365.803L46.323,365.803L46.323,363.943L50.778,363.943L50.778,365.803L49.576,365.803L49.576,371.706Z" style="fill:rgb(158,161,168);fill-rule:nonzero;"/>
            <path id="path4734" d="M56.525,371.706L54.428,371.706L54.428,368.584L53.428,368.584L53.428,371.706L51.331,371.706L51.331,363.943L53.428,363.943L53.428,366.688L54.428,366.688L54.428,363.943L56.525,363.943L56.525,371.706Z" style="fill:rgb(158,161,168);fill-rule:nonzero;"/>
            <rect id="path4736" x="57.606" y="363.943" width="2.097" height="7.763" style="fill:rgb(158,161,168);"/>
        </g>
        <g id="g1328" transform="matrix(1,0,0,1,-24,272.609)">
            <rect id="rect4778-3-6-0-3" x="28" y="35.39" width="34" height="42" style="fill:rgb(179,179,179);"/>
            <g id="g1322" transform="matrix(1,0,0,1,4.02604,0)">
                <path id="path4701-3" d="M39.141,69.39L37.047,69.39L37.047,63.76L39.141,63.76L39.141,69.39ZM39.318,62.015C39.318,62.345 39.198,62.63 38.958,62.869C38.712,63.105 38.425,63.224 38.099,63.224C37.762,63.224 37.474,63.104 37.234,62.864C36.998,62.618 36.88,62.329 36.88,62C36.88,61.663 36.998,61.376 37.234,61.14C37.481,60.904 37.767,60.786 38.094,60.786C38.438,60.786 38.727,60.906 38.964,61.145C39.2,61.382 39.318,61.671 39.318,62.015Z" style="fill:rgb(44,45,48);fill-rule:nonzero;"/>
                <path id="path4703-8" d="M45.068,69.39L42.979,69.39L42.979,66.411C42.979,66.154 42.953,65.975 42.901,65.875C42.852,65.774 42.766,65.724 42.641,65.724C42.349,65.724 42.203,66 42.203,66.552L42.203,69.39L40.115,69.39L40.115,63.76L42.203,63.76C42.2,63.899 42.196,64.027 42.193,64.145C42.189,64.263 42.184,64.373 42.177,64.474L42.156,64.833C42.493,64.038 42.986,63.64 43.635,63.64C44.087,63.64 44.438,63.809 44.688,64.145C44.941,64.482 45.068,64.951 45.068,65.552L45.068,69.39Z" style="fill:rgb(44,45,48);fill-rule:nonzero;"/>
            </g>
        </g>
        <g id="g1364" transform="matrix(1,0,0,1,24,-17.3905)">
            <rect id="rect4778-8" x="28" y="325.39" width="34" height="42" style="fill:rgb(60,60,60);"/>
            <g id="g1357" transform="matrix(1,0,0,1,3.82292,0)">
                <path id="path4899" d="M38.849,360.661C38.849,361.529 38.609,362.22 38.13,362.734C37.651,363.248 37.009,363.505 36.203,363.505C35.411,363.505 34.781,363.243 34.313,362.718C33.847,362.191 33.615,361.482 33.615,360.593C33.615,359.704 33.852,358.991 34.328,358.453C34.8,357.911 35.427,357.64 36.208,357.64C37.031,357.64 37.677,357.909 38.146,358.448C38.615,358.986 38.849,359.724 38.849,360.661ZM36.823,360.593C36.823,360.385 36.809,360.198 36.781,360.031C36.753,359.861 36.714,359.717 36.661,359.599C36.609,359.477 36.547,359.383 36.474,359.317C36.401,359.251 36.319,359.218 36.229,359.218C36.052,359.218 35.91,359.343 35.802,359.593C35.694,359.812 35.641,360.14 35.641,360.578C35.641,361.008 35.694,361.336 35.802,361.562C35.91,361.812 36.054,361.937 36.234,361.937C36.405,361.937 36.545,361.814 36.656,361.567C36.767,361.293 36.823,360.968 36.823,360.593Z" style="fill:rgb(197,200,209);fill-rule:nonzero;"/>
                <path id="path4901" d="M39.651,357.76L41.74,357.76L41.74,360.932C41.74,361.234 41.769,361.454 41.828,361.593C41.891,361.708 42.009,361.765 42.182,361.765C42.352,361.765 42.467,361.708 42.526,361.593C42.589,361.479 42.62,361.258 42.62,360.932L42.62,357.76L44.708,357.76L44.708,361.213C44.708,361.442 44.689,361.651 44.651,361.838C44.616,362.022 44.559,362.191 44.479,362.343C44.403,362.493 44.302,362.63 44.177,362.755C44.056,362.88 43.91,362.994 43.74,363.099C43.281,363.369 42.762,363.505 42.182,363.505C41.595,363.505 41.076,363.369 40.625,363.099C40.451,362.994 40.302,362.882 40.177,362.76C40.056,362.635 39.955,362.496 39.875,362.343C39.799,362.191 39.741,362.022 39.703,361.838C39.668,361.651 39.651,361.442 39.651,361.213L39.651,357.76Z" style="fill:rgb(197,200,209);fill-rule:nonzero;"/>
                <path id="path4903" d="M48.047,363.39L45.953,363.39L45.953,359.442L45.359,359.442L45.359,357.76L45.953,357.76L45.953,356.104L48.047,356.104L48.047,357.76L48.74,357.76L48.74,359.442L48.047,359.442L48.047,363.39Z" style="fill:rgb(197,200,209);fill-rule:nonzero;"/>
            </g>
        </g>
        <g id="text1386">
            <path id="path1431" d="M14.574,67.789L16.715,67.789C17.6,67.789 18.259,68 18.691,68.422C19.238,68.969 19.512,69.805 19.512,70.93C19.512,71.794 19.366,72.49 19.074,73.016C18.788,73.536 18.376,73.859 17.84,73.984L20.059,79.852L18.41,79.852L16.199,73.945L16.199,79.852L14.574,79.852L14.574,67.789ZM16.199,73.133C16.829,73.133 17.275,72.987 17.535,72.695C17.796,72.404 17.926,71.911 17.926,71.219C17.926,70.844 17.897,70.523 17.84,70.258C17.788,69.992 17.702,69.776 17.582,69.609C17.467,69.443 17.316,69.32 17.129,69.242C16.947,69.164 16.728,69.125 16.473,69.125L16.199,69.125L16.199,73.133Z" style="fill:rgb(158,161,168);fill-rule:nonzero;"/>
            <rect id="path1433" x="21.324" y="67.789" width="1.625" height="12.063" style="fill:rgb(158,161,168);"/>
            <path id="path1435" d="M28.848,68.039L28.848,69.625C28.353,69.271 27.908,69.094 27.512,69.094C27.085,69.094 26.736,69.245 26.465,69.547C26.194,69.833 26.059,70.216 26.059,70.695C26.059,71.117 26.155,71.479 26.348,71.781C26.447,71.943 26.608,72.151 26.832,72.406C27.061,72.661 27.355,72.969 27.715,73.328C28.376,74 28.827,74.581 29.066,75.07C29.306,75.544 29.426,76.125 29.426,76.813C29.426,77.745 29.163,78.513 28.637,79.117C28.111,79.706 27.436,80 26.613,80C25.921,80 25.329,79.81 24.84,79.43L24.84,77.82C25.418,78.242 25.944,78.453 26.418,78.453C26.861,78.453 27.207,78.307 27.457,78.016C27.707,77.719 27.832,77.318 27.832,76.813C27.832,76.375 27.736,75.982 27.543,75.633C27.444,75.466 27.306,75.276 27.129,75.063C26.952,74.844 26.73,74.602 26.465,74.336C26.053,73.93 25.712,73.57 25.441,73.258C25.171,72.945 24.97,72.672 24.84,72.438C24.59,71.979 24.465,71.401 24.465,70.703C24.465,69.76 24.71,69.013 25.199,68.461C25.694,67.904 26.358,67.625 27.191,67.625C27.77,67.625 28.322,67.763 28.848,68.039Z" style="fill:rgb(158,161,168);fill-rule:nonzero;"/>
            <path id="path1437" d="M36.832,74.117C36.832,76.247 36.595,77.76 36.121,78.656C35.647,79.552 34.853,80 33.738,80C32.566,80 31.741,79.518 31.262,78.555C30.788,77.612 30.551,75.938 30.551,73.531C30.551,71.385 30.785,69.867 31.254,68.977C31.728,68.081 32.53,67.633 33.66,67.633C34.671,67.633 35.421,67.979 35.91,68.672C36.233,69.135 36.467,69.794 36.613,70.648C36.759,71.44 36.832,72.596 36.832,74.117ZM35.129,74.289C35.129,72.201 35.035,70.815 34.848,70.133C34.66,69.445 34.277,69.102 33.699,69.102C33.121,69.102 32.736,69.417 32.543,70.047C32.355,70.682 32.262,71.958 32.262,73.875C32.262,75.641 32.361,76.865 32.559,77.547C32.762,78.193 33.142,78.516 33.699,78.516C34.246,78.516 34.621,78.214 34.824,77.609C35.027,77.01 35.129,75.904 35.129,74.289Z" style="fill:rgb(158,161,168);fill-rule:nonzero;"/>
            <path id="path1439" d="M38.449,67.789L40.59,67.789C41.475,67.789 42.134,68 42.566,68.422C43.113,68.969 43.387,69.805 43.387,70.93C43.387,71.794 43.241,72.49 42.949,73.016C42.663,73.536 42.251,73.859 41.715,73.984L43.934,79.852L42.285,79.852L40.074,73.945L40.074,79.852L38.449,79.852L38.449,67.789ZM40.074,73.133C40.704,73.133 41.15,72.987 41.41,72.695C41.671,72.404 41.801,71.911 41.801,71.219C41.801,70.844 41.772,70.523 41.715,70.258C41.663,69.992 41.577,69.776 41.457,69.609C41.342,69.443 41.191,69.32 41.004,69.242C40.822,69.164 40.603,69.125 40.348,69.125L40.074,69.125L40.074,73.133Z" style="fill:rgb(158,161,168);fill-rule:nonzero;"/>
            <path id="path1441" d="M49.223,68.039L49.223,69.625C48.728,69.271 48.283,69.094 47.887,69.094C47.46,69.094 47.111,69.245 46.84,69.547C46.569,69.833 46.434,70.216 46.434,70.695C46.434,71.117 46.53,71.479 46.723,71.781C46.822,71.943 46.983,72.151 47.207,72.406C47.436,72.661 47.73,72.969 48.09,73.328C48.751,74 49.202,74.581 49.441,75.07C49.681,75.544 49.801,76.125 49.801,76.813C49.801,77.745 49.538,78.513 49.012,79.117C48.486,79.706 47.811,80 46.988,80C46.296,80 45.704,79.81 45.215,79.43L45.215,77.82C45.793,78.242 46.319,78.453 46.793,78.453C47.236,78.453 47.582,78.307 47.832,78.016C48.082,77.719 48.207,77.318 48.207,76.813C48.207,76.375 48.111,75.982 47.918,75.633C47.819,75.466 47.681,75.276 47.504,75.063C47.327,74.844 47.105,74.602 46.84,74.336C46.428,73.93 46.087,73.57 45.816,73.258C45.546,72.945 45.345,72.672 45.215,72.438C44.965,71.979 44.84,71.401 44.84,70.703C44.84,69.76 45.085,69.013 45.574,68.461C46.069,67.904 46.733,67.625 47.566,67.625C48.145,67.625 48.697,67.763 49.223,68.039Z" style="fill:rgb(158,161,168);fill-rule:nonzero;"/>
            <path id="path1443" d="M50.395,67.789L55.684,67.789L55.684,69.211L53.863,69.211L53.863,79.852L52.27,79.852L52.27,69.211L50.395,69.211L50.395,67.789Z" style="fill:rgb(158,161,168);fill-rule:nonzero;"/>
            <path id="path1445" d="M62.738,74.117C62.738,76.247 62.501,77.76 62.027,78.656C61.553,79.552 60.759,80 59.645,80C58.473,80 57.647,79.518 57.168,78.555C56.694,77.612 56.457,75.938 56.457,73.531C56.457,71.385 56.691,69.867 57.16,68.977C57.634,68.081 58.436,67.633 59.566,67.633C60.577,67.633 61.327,67.979 61.816,68.672C62.139,69.135 62.374,69.794 62.52,70.648C62.665,71.44 62.738,72.596 62.738,74.117ZM61.035,74.289C61.035,72.201 60.941,70.815 60.754,70.133C60.566,69.445 60.184,69.102 59.605,69.102C59.027,69.102 58.642,69.417 58.449,70.047C58.262,70.682 58.168,71.958 58.168,73.875C58.168,75.641 58.267,76.865 58.465,77.547C58.668,78.193 59.048,78.516 59.606,78.516C60.152,78.516 60.527,78.214 60.731,77.609C60.934,77.01 61.035,75.904 61.035,74.289Z" style="fill:rgb(158,161,168);fill-rule:nonzero;"/>
            <path id="path1447" d="M64.355,67.789L66.496,67.789C67.382,67.789 68.04,68 68.473,68.422C69.02,68.969 69.293,69.805 69.293,70.93C69.293,71.794 69.147,72.49 68.855,73.016C68.569,73.536 68.158,73.859 67.621,73.984L69.84,79.852L68.191,79.852L65.98,73.945L65.98,79.852L64.355,79.852L64.355,67.789ZM65.98,73.133C66.611,73.133 67.056,72.987 67.316,72.695C67.577,72.404 67.707,71.911 67.707,71.219C67.707,70.844 67.678,70.523 67.621,70.258C67.569,69.992 67.483,69.776 67.363,69.609C67.249,69.443 67.098,69.32 66.91,69.242C66.728,69.164 66.509,69.125 66.254,69.125L65.98,69.125L65.98,73.133Z" style="fill:rgb(158,161,168);fill-rule:nonzero;"/>
            <path id="path1449" d="M71.105,67.789L75.426,67.789L75.426,69.164L72.73,69.164L72.73,72.984L75.121,72.984L75.121,74.359L72.73,74.359L72.73,78.477L75.426,78.477L75.426,79.852L71.105,79.852L71.105,67.789Z" style="fill:rgb(158,161,168);fill-rule:nonzero;"/>
        </g>
        <g id="text1408">
            <path id="path1418" d="M31.637,187.984L31.637,189.445C31.22,189.242 30.871,189.141 30.59,189.141C30.204,189.141 29.874,189.237 29.598,189.43C29.322,189.617 29.092,189.909 28.91,190.305C28.733,190.7 28.6,191.203 28.512,191.812C28.428,192.417 28.387,193.133 28.387,193.961C28.387,196.94 29.15,198.43 30.676,198.43C30.941,198.43 31.262,198.346 31.637,198.18L31.637,199.672C31.246,199.891 30.809,200 30.324,200C27.882,200 26.66,198.005 26.66,194.016C26.66,191.859 26.957,190.255 27.551,189.203C28.15,188.151 29.064,187.625 30.293,187.625C30.746,187.625 31.194,187.745 31.637,187.984Z" style="fill:rgb(158,161,168);fill-rule:nonzero;"/>
            <path id="path1420" d="M32.996,187.789L34.59,187.789L34.59,196.312C34.59,197.182 34.668,197.76 34.824,198.047C34.986,198.333 35.303,198.477 35.777,198.477C36.251,198.477 36.564,198.352 36.715,198.102C36.871,197.846 36.949,197.328 36.949,196.547L36.949,187.789L38.543,187.789L38.543,196.547C38.543,197.859 38.342,198.747 37.941,199.211C37.462,199.737 36.73,200 35.746,200C34.663,200 33.9,199.661 33.457,198.984C33.15,198.521 32.996,197.63 32.996,196.312L32.996,187.789Z" style="fill:rgb(158,161,168);fill-rule:nonzero;"/>
            <path id="path1422" d="M39.441,187.789L44.73,187.789L44.73,189.211L42.91,189.211L42.91,199.852L41.316,199.852L41.316,189.211L39.441,189.211L39.441,187.789Z" style="fill:rgb(158,161,168);fill-rule:nonzero;"/>
            <path id="path1424" d="M51.785,194.117C51.785,196.247 51.548,197.76 51.074,198.656C50.6,199.552 49.806,200 48.691,200C47.52,200 46.694,199.518 46.215,198.555C45.741,197.612 45.504,195.937 45.504,193.531C45.504,191.385 45.738,189.867 46.207,188.977C46.681,188.081 47.483,187.633 48.613,187.633C49.624,187.633 50.374,187.979 50.863,188.672C51.186,189.135 51.421,189.794 51.566,190.648C51.712,191.44 51.785,192.596 51.785,194.117ZM50.082,194.289C50.082,192.201 49.988,190.815 49.801,190.133C49.613,189.445 49.23,189.102 48.652,189.102C48.074,189.102 47.689,189.417 47.496,190.047C47.309,190.682 47.215,191.958 47.215,193.875C47.215,195.641 47.314,196.865 47.512,197.547C47.715,198.193 48.095,198.516 48.652,198.516C49.199,198.516 49.574,198.214 49.777,197.609C49.98,197.01 50.082,195.904 50.082,194.289Z" style="fill:rgb(158,161,168);fill-rule:nonzero;"/>
            <path id="path1426" d="M53.402,187.789L57.746,187.789L57.746,189.164L55.027,189.164L55.027,192.977L57.48,192.977L57.48,194.352L55.027,194.352L55.027,199.852L53.402,199.852L53.402,187.789Z" style="fill:rgb(158,161,168);fill-rule:nonzero;"/>
            <path id="path1428" d="M58.996,187.789L63.34,187.789L63.34,189.164L60.621,189.164L60.621,192.977L63.074,192.977L63.074,194.352L60.621,194.352L60.621,199.852L58.996,199.852L58.996,187.789Z" style="fill:rgb(158,161,168);fill-rule:nonzero;"/>
        </g>
        <g id="text1324">
            <path id="path1326" d="M19.961,17.789L19.961,5.727L22.773,5.727C24.383,5.727 25.635,6.159 26.531,7.023C27.708,8.154 28.297,9.734 28.297,11.766C28.297,13.766 27.799,15.31 26.805,16.398C25.956,17.326 24.69,17.789 23.008,17.789L19.961,17.789ZM23.219,14.875C24.385,14.818 24.969,13.812 24.969,11.859C24.969,10.896 24.82,10.135 24.523,9.578C24.227,9.016 23.826,8.734 23.32,8.734L23.219,8.734L23.219,14.875Z" style="fill:rgb(158,161,168);fill-rule:nonzero;"/>
            <rect id="path1328" x="29.68" y="5.727" width="3.258" height="12.063" style="fill:rgb(158,161,168);"/>
            <path id="path1330" d="M41.398,14.078L41.211,17.562C40.487,17.854 39.839,18 39.266,18C37.917,18 36.781,17.505 35.859,16.516C34.828,15.406 34.312,13.836 34.312,11.805C34.312,9.904 34.797,8.378 35.766,7.227C36.734,6.081 38.029,5.508 39.648,5.508C40.174,5.508 40.711,5.607 41.258,5.805L41.258,9.25C40.773,8.766 40.276,8.523 39.766,8.523C39.099,8.523 38.578,8.807 38.203,9.375C37.828,9.948 37.641,10.74 37.641,11.75C37.641,12.24 37.687,12.677 37.781,13.062C37.875,13.448 38.008,13.773 38.18,14.039C38.357,14.305 38.573,14.508 38.828,14.648C39.083,14.789 39.375,14.859 39.703,14.859C40.266,14.859 40.831,14.599 41.398,14.078Z" style="fill:rgb(158,161,168);fill-rule:nonzero;"/>
            <path id="path1332" d="M51.555,17.789L48.188,17.789L47.945,16.258L45.75,16.258L45.484,17.789L42.117,17.789L45.016,5.727L49,5.727L51.555,17.789ZM47.563,13.672L47.352,12.266C47.346,12.26 47.336,12.19 47.32,12.055C47.31,11.94 47.255,11.487 47.156,10.695C47.146,10.607 47.133,10.487 47.117,10.336C47.101,10.18 47.081,9.984 47.055,9.75L46.953,8.609C46.943,8.719 46.927,8.841 46.906,8.977C46.891,9.112 46.872,9.26 46.851,9.422C46.815,9.745 46.789,9.969 46.773,10.094C46.758,10.219 46.747,10.294 46.742,10.32L46.515,11.781L46.187,13.672L47.563,13.672Z" style="fill:rgb(158,161,168);fill-rule:nonzero;"/>
            <path id="path1334" d="M52.359,14.242L55.539,14.242C55.539,14.966 55.805,15.328 56.336,15.328C56.602,15.328 56.818,15.227 56.984,15.023C57.151,14.815 57.234,14.544 57.234,14.211C57.234,13.362 56.792,12.938 55.906,12.938C55.844,12.938 55.766,12.943 55.672,12.953C55.578,12.958 55.471,12.966 55.352,12.977L55.352,10.406C55.44,10.411 55.516,10.417 55.578,10.422L55.742,10.422C56.633,10.422 57.078,10.013 57.078,9.195C57.078,8.529 56.846,8.195 56.383,8.195C56.018,8.195 55.81,8.464 55.758,9L55.742,9.164L52.594,9.164C52.682,8.039 53.076,7.151 53.773,6.5C54.466,5.839 55.375,5.508 56.5,5.508C57.573,5.508 58.464,5.846 59.172,6.523C59.896,7.195 60.258,8.026 60.258,9.016C60.258,10.125 59.771,10.971 58.797,11.555C59.875,12.174 60.414,13.107 60.414,14.352C60.414,15.43 60.031,16.307 59.266,16.984C58.51,17.661 57.529,18 56.32,18C55.138,18 54.185,17.669 53.461,17.008C52.727,16.346 52.359,15.484 52.359,14.422L52.359,14.242Z" style="fill:rgb(158,161,168);fill-rule:nonzero;"/>
            <path id="path1336" d="M61.984,14.242L65.164,14.242C65.164,14.966 65.43,15.328 65.961,15.328C66.227,15.328 66.443,15.227 66.609,15.023C66.776,14.815 66.859,14.544 66.859,14.211C66.859,13.362 66.417,12.938 65.531,12.938C65.469,12.938 65.391,12.943 65.297,12.953C65.203,12.958 65.096,12.966 64.977,12.977L64.977,10.406C65.065,10.411 65.141,10.417 65.203,10.422L65.367,10.422C66.258,10.422 66.703,10.013 66.703,9.195C66.703,8.529 66.471,8.195 66.008,8.195C65.643,8.195 65.435,8.464 65.383,9L65.367,9.164L62.219,9.164C62.307,8.039 62.701,7.151 63.399,6.5C64.091,5.839 65,5.508 66.125,5.508C67.198,5.508 68.089,5.846 68.797,6.523C69.521,7.195 69.883,8.026 69.883,9.016C69.883,10.125 69.396,10.971 68.422,11.555C69.5,12.174 70.039,13.107 70.039,14.352C70.039,15.43 69.656,16.307 68.891,16.984C68.136,17.661 67.154,18 65.945,18C64.763,18 63.81,17.669 63.086,17.008C62.352,16.346 61.985,15.484 61.985,14.422L61.984,14.242Z" style="fill:rgb(158,161,168);fill-rule:nonzero;"/>
        </g>
    </g>
</svg>
