<?xml version="1.0" encoding="UTF-8" standalone="no"?>
<!DOCTYPE svg PUBLIC "-//W3C//DTD SVG 1.1//EN" "http://www.w3.org/Graphics/SVG/1.1/DTD/svg11.dtd">
<svg width="100%" height="100%" viewBox="0 0 450 380" version="1.1" xmlns="http://www.w3.org/2000/svg" xmlns:xlink="http://www.w3.org/1999/xlink" xml:space="preserve" xmlns:serif="http://www.serif.com/" style="fill-rule:evenodd;clip-rule:evenodd;stroke-linejoin:round;stroke-miterlimit:2;">
    <g id="Layer-2" serif:id="Layer 2">
        <g id="text989">
        </g>
        <rect id="rect4689" x="0" y="0" width="450" height="380" style="fill:rgb(44,45,48);fill-rule:nonzero;"/>
        <g id="text80" transform="matrix(1.00498,0,0,0.995047,180,4.99997)">
            <path id="path4726" d="M29.851,371.706L29.851,363.943L31.853,363.943L32.903,366.668C32.96,366.829 33.024,367.013 33.095,367.221C33.168,367.429 33.249,367.668 33.336,367.94L33.552,368.624C33.475,367.95 33.416,367.373 33.376,366.894C33.336,366.415 33.316,366.013 33.316,365.687L33.316,363.943L35.317,363.943L35.317,371.706L33.316,371.706L32.26,368.85C32.149,368.545 32.049,368.26 31.958,367.995C31.871,367.727 31.794,367.472 31.727,367.231C31.77,367.777 31.802,368.253 31.822,368.659C31.843,369.065 31.853,369.42 31.853,369.725L31.853,371.706L29.851,371.706Z" style="fill:rgb(158,161,168);fill-rule:nonzero;"/>
            <path id="path4728" d="M39.887,371.706L37.791,371.706L37.791,368.418L35.865,363.943L38.052,363.943L38.429,365.094C38.503,365.319 38.568,365.535 38.625,365.743C38.686,365.951 38.739,366.15 38.786,366.341C38.863,366.056 38.93,365.811 38.987,365.607C39.044,365.399 39.095,365.232 39.138,365.104L39.52,363.943L41.692,363.943L39.887,368.418L39.887,371.706Z" style="fill:rgb(158,161,168);fill-rule:nonzero;"/>
            <path id="path4730" d="M41.894,371.515L41.894,369.076C42.306,369.639 42.752,369.921 43.231,369.921C43.412,369.921 43.56,369.874 43.673,369.78C43.787,369.683 43.844,369.562 43.844,369.418C43.844,369.21 43.72,369.008 43.472,368.81L43.13,368.543C42.903,368.372 42.708,368.203 42.547,368.035C42.386,367.865 42.256,367.69 42.155,367.513C42.054,367.332 41.981,367.146 41.934,366.954C41.887,366.763 41.863,366.562 41.863,366.351C41.863,365.989 41.947,365.61 42.115,365.215C42.199,365.03 42.296,364.863 42.406,364.712C42.517,364.558 42.644,364.422 42.789,364.305C43.184,363.969 43.662,363.802 44.222,363.802C44.721,363.802 45.224,363.934 45.73,364.199L45.73,366.572C45.559,366.308 45.365,366.1 45.147,365.949C44.929,365.795 44.714,365.718 44.503,365.718C44.342,365.718 44.21,365.765 44.106,365.858C43.999,365.949 43.945,366.058 43.945,366.185C43.945,366.393 44.087,366.599 44.372,366.804L44.704,367.05C45.147,367.368 45.463,367.695 45.655,368.03C45.849,368.366 45.946,368.758 45.946,369.207C45.946,369.971 45.713,370.601 45.247,371.098C44.781,371.594 44.191,371.842 43.477,371.842C42.985,371.842 42.457,371.733 41.894,371.515L41.894,371.515Z" style="fill:rgb(158,161,168);fill-rule:nonzero;"/>
            <path id="path4732" d="M49.576,371.706L47.48,371.706L47.48,365.803L46.323,365.803L46.323,363.943L50.778,363.943L50.778,365.803L49.576,365.803L49.576,371.706Z" style="fill:rgb(158,161,168);fill-rule:nonzero;"/>
            <path id="path4734" d="M56.525,371.706L54.428,371.706L54.428,368.584L53.428,368.584L53.428,371.706L51.331,371.706L51.331,363.943L53.428,363.943L53.428,366.688L54.428,366.688L54.428,363.943L56.525,363.943L56.525,371.706Z" style="fill:rgb(158,161,168);fill-rule:nonzero;"/>
            <rect id="path4736" x="57.606" y="363.943" width="2.097" height="7.763" style="fill:rgb(158,161,168);fill-rule:nonzero;"/>
        </g>
        <g id="text4987">
        </g>
        <g id="text1042">
        </g>
        <g id="text2090">
        </g>
        <g id="text1268">
            <path id="path1330" d="M349.898,249.824L351.681,249.824C352.541,249.824 353.166,250.041 353.556,250.475C353.947,250.914 354.142,251.608 354.142,252.559C354.142,253.895 353.75,254.759 352.964,255.15C352.569,255.328 351.998,255.417 351.252,255.417L351.252,259.876L349.898,259.876L349.898,249.824ZM351.252,254.258C351.812,254.258 352.198,254.145 352.411,253.919C352.628,253.689 352.736,253.281 352.736,252.695C352.736,252.096 352.632,251.658 352.424,251.38C352.215,251.102 351.888,250.964 351.441,250.964L351.252,250.964L351.252,254.258Z" style="fill:rgb(158,161,168);fill-rule:nonzero;"/>
            <rect id="path1332" x="355.184" y="249.824" width="1.354" height="10.052" style="fill:rgb(158,161,168);fill-rule:nonzero;"/>
            <path id="path1334" d="M357.3,249.824L361.708,249.824L361.708,251.009L360.191,251.009L360.191,259.876L358.862,259.876L358.862,251.009L357.3,251.009L357.3,249.824Z" style="fill:rgb(158,161,168);fill-rule:nonzero;"/>
            <path id="path1336" d="M366.395,249.987L366.395,251.204C366.048,251.035 365.757,250.951 365.523,250.951C365.201,250.951 364.926,251.031 364.696,251.191C364.466,251.348 364.275,251.591 364.123,251.921C363.975,252.25 363.865,252.669 363.791,253.177C363.721,253.681 363.687,254.277 363.687,254.967C363.687,257.45 364.323,258.691 365.594,258.691C365.816,258.691 366.083,258.622 366.395,258.483L366.395,259.727C366.07,259.909 365.705,260 365.301,260C363.266,260 362.248,258.338 362.248,255.013C362.248,253.216 362.495,251.879 362.99,251.003C363.489,250.126 364.251,249.688 365.275,249.688C365.653,249.688 366.026,249.787 366.395,249.987L366.395,249.987Z" style="fill:rgb(158,161,168);fill-rule:nonzero;"/>
            <path id="path1338" d="M367.528,249.824L368.882,249.824L368.882,253.757L370.868,253.757L370.868,249.824L372.222,249.824L372.222,259.876L370.868,259.876L370.868,254.902L368.882,254.902L368.882,259.876L367.528,259.876L367.528,249.824Z" style="fill:rgb(158,161,168);fill-rule:nonzero;"/>
            <path id="path1340" d="M379.891,250.033L379.891,251.354C379.479,251.059 379.108,250.911 378.778,250.911C378.422,250.911 378.131,251.037 377.905,251.289C377.68,251.528 377.567,251.847 377.567,252.246C377.567,252.598 377.647,252.899 377.808,253.151C377.89,253.286 378.025,253.459 378.211,253.672C378.402,253.885 378.648,254.141 378.947,254.44C379.498,255 379.874,255.484 380.073,255.892C380.273,256.287 380.373,256.771 380.373,257.344C380.373,258.121 380.154,258.761 379.715,259.264C379.277,259.755 378.715,260 378.029,260C377.452,260 376.959,259.842 376.551,259.525L376.551,258.184C377.033,258.535 377.471,258.711 377.866,258.711C378.235,258.711 378.524,258.589 378.732,258.346C378.941,258.099 379.045,257.765 379.045,257.344C379.045,256.979 378.964,256.652 378.804,256.361C378.722,256.222 378.607,256.063 378.459,255.885C378.311,255.703 378.127,255.501 377.905,255.28C377.563,254.941 377.278,254.642 377.053,254.382C376.827,254.121 376.66,253.893 376.551,253.698C376.343,253.316 376.239,252.834 376.239,252.253C376.239,251.467 376.443,250.844 376.851,250.384C377.263,249.92 377.817,249.688 378.511,249.688C378.993,249.688 379.453,249.803 379.891,250.033L379.891,250.033Z" style="fill:rgb(158,161,168);fill-rule:nonzero;"/>
            <path id="path1342" d="M381.512,249.824L382.866,249.824L382.866,253.757L384.852,253.757L384.852,249.824L386.206,249.824L386.206,259.876L384.852,259.876L384.852,254.902L382.866,254.902L382.866,259.876L381.512,259.876L381.512,249.824Z" style="fill:rgb(158,161,168);fill-rule:nonzero;"/>
            <rect id="path1344" x="387.762" y="249.824" width="1.354" height="10.052" style="fill:rgb(158,161,168);fill-rule:nonzero;"/>
            <path id="path1346" d="M390.679,249.824L394.299,249.824L394.299,250.97L392.033,250.97L392.033,254.147L394.077,254.147L394.077,255.293L392.033,255.293L392.033,259.876L390.679,259.876L390.679,249.824Z" style="fill:rgb(158,161,168);fill-rule:nonzero;"/>
            <path id="path1348" d="M394.54,249.824L398.947,249.824L398.947,251.009L397.43,251.009L397.43,259.876L396.102,259.876L396.102,251.009L394.54,251.009L394.54,249.824Z" style="fill:rgb(158,161,168);fill-rule:nonzero;"/>
        </g>
        <g id="text1276" transform="matrix(0.901641,0,0,1.10909,0,0)">
            <path id="path1290" d="M387.013,270.334L388.217,270.334L388.763,273.68L388.857,274.284L389.051,275.599C389.082,275.822 389.109,276.026 389.133,276.21C389.16,276.394 389.184,276.56 389.203,276.709L389.262,277.155C389.274,277.065 389.284,276.985 389.292,276.914C389.299,276.844 389.307,276.785 389.314,276.738L389.473,275.687L389.678,274.308C389.699,274.183 389.716,274.067 389.731,273.962C389.752,273.856 389.769,273.762 389.784,273.68L390.371,270.334L391.51,270.334L389.731,279.397L388.763,279.397L387.013,270.334Z" style="fill:rgb(158,161,168);fill-rule:nonzero;"/>
            <path id="path1292" d="M396.734,275.089C396.734,276.689 396.556,277.826 396.2,278.499C395.844,279.172 395.247,279.509 394.41,279.509C393.529,279.509 392.909,279.147 392.549,278.423C392.193,277.714 392.015,276.456 392.015,274.648C392.015,273.036 392.191,271.895 392.543,271.226C392.899,270.553 393.502,270.216 394.351,270.216C395.11,270.216 395.674,270.477 396.042,270.997C396.284,271.345 396.46,271.84 396.57,272.482C396.679,273.077 396.734,273.946 396.734,275.089L396.734,275.089ZM395.455,275.218C395.455,273.648 395.384,272.607 395.243,272.095C395.102,271.578 394.815,271.32 394.38,271.32C393.946,271.32 393.656,271.557 393.512,272.03C393.371,272.508 393.3,273.466 393.3,274.907C393.3,276.233 393.375,277.153 393.523,277.666C393.676,278.151 393.962,278.393 394.38,278.393C394.791,278.393 395.073,278.166 395.226,277.712C395.378,277.262 395.455,276.431 395.455,275.218L395.455,275.218Z" style="fill:rgb(158,161,168);fill-rule:nonzero;"/>
            <path id="path1294" d="M397.949,270.334L399.17,270.334L399.17,278.364L401.166,278.364L401.166,279.397L397.949,279.397L397.949,270.334Z" style="fill:rgb(158,161,168);fill-rule:nonzero;"/>
            <path id="path1296" d="M402.035,270.334L403.232,270.334L403.232,276.738C403.232,277.392 403.291,277.826 403.408,278.041C403.53,278.256 403.768,278.364 404.125,278.364C404.481,278.364 404.716,278.27 404.829,278.082C404.946,277.891 405.005,277.501 405.005,276.914L405.005,270.334L406.203,270.334L406.203,276.914C406.203,277.9 406.052,278.568 405.751,278.916C405.391,279.311 404.841,279.509 404.101,279.509C403.287,279.509 402.714,279.254 402.381,278.746C402.15,278.397 402.035,277.728 402.035,276.738L402.035,270.334Z" style="fill:rgb(158,161,168);fill-rule:nonzero;"/>
            <path id="path1298" d="M408.028,270.334L409.073,270.334L409.871,274.032C409.969,274.494 410.057,274.957 410.136,275.423C410.218,275.885 410.292,276.37 410.359,276.879C410.366,276.812 410.372,276.762 410.377,276.726C410.383,276.687 410.386,276.66 410.389,276.644L410.559,275.605L410.712,274.619L410.847,273.967L411.557,270.334L412.613,270.334L413.447,279.397L412.279,279.397L412.073,276.321C412.066,276.165 412.058,276.03 412.051,275.916C412.045,275.803 412.043,275.709 412.043,275.634L411.99,274.419L411.96,273.304C411.96,273.296 411.957,273.281 411.952,273.257C411.952,273.23 411.95,273.195 411.945,273.151L411.914,273.333C411.883,273.549 411.854,273.736 411.826,273.897C411.804,274.057 411.782,274.192 411.762,274.302L411.609,275.13L411.55,275.441L410.787,279.397L409.966,279.397L409.249,275.981C409.152,275.531 409.064,275.075 408.985,274.613C408.911,274.147 408.842,273.66 408.78,273.151L408.427,279.397L407.277,279.397L408.028,270.334Z" style="fill:rgb(158,161,168);fill-rule:nonzero;"/>
            <path id="path1300" d="M414.456,270.334L417.702,270.334L417.702,271.367L415.677,271.367L415.677,274.237L417.473,274.237L417.473,275.271L415.677,275.271L415.677,278.364L417.702,278.364L417.702,279.397L414.456,279.397L414.456,270.334Z" style="fill:rgb(158,161,168);fill-rule:nonzero;"/>
            <path id="path1302" d="M422.604,270.334L423.554,270.334L425.497,279.397L424.288,279.397L423.948,277.63L422.151,277.63L421.805,279.397L420.631,279.397L422.604,270.334ZM423.772,276.685L423.502,275.241C423.322,274.259 423.175,273.21 423.062,272.095C423.007,272.639 422.936,273.191 422.85,273.75C422.764,274.306 422.662,274.897 422.545,275.523L422.322,276.685L423.772,276.685Z" style="fill:rgb(158,161,168);fill-rule:nonzero;"/>
            <path id="path1304" d="M425.31,270.334L429.284,270.334L429.284,271.402L427.916,271.402L427.916,279.397L426.718,279.397L426.718,271.402L425.31,271.402L425.31,270.334Z" style="fill:rgb(158,161,168);fill-rule:nonzero;"/>
            <path id="path1306" d="M429.231,270.334L433.205,270.334L433.205,271.402L431.837,271.402L431.837,279.397L430.64,279.397L430.64,271.402L429.231,271.402L429.231,270.334Z" style="fill:rgb(158,161,168);fill-rule:nonzero;"/>
            <path id="path1308" d="M433.874,270.334L437.12,270.334L437.12,271.367L435.095,271.367L435.095,274.237L436.891,274.237L436.891,275.271L435.095,275.271L435.095,278.364L437.12,278.364L437.12,279.397L433.874,279.397L433.874,270.334Z" style="fill:rgb(158,161,168);fill-rule:nonzero;"/>
            <path id="path1310" d="M438.241,270.334L439.38,270.334L440.595,273.95C440.947,274.971 441.259,276.061 441.529,277.219C441.431,276.519 441.358,275.885 441.311,275.317C441.264,274.75 441.241,274.216 441.241,273.715L441.241,270.334L442.468,270.334L442.468,279.397L441.323,279.397L439.955,275.317C439.83,274.938 439.711,274.548 439.598,274.149C439.488,273.75 439.386,273.331 439.292,272.893C439.285,272.838 439.271,272.772 439.251,272.694C439.236,272.615 439.216,272.525 439.192,272.424C439.205,272.525 439.215,272.613 439.223,272.688C439.23,272.758 439.236,272.819 439.241,272.87L439.306,273.791L439.371,274.912C439.376,274.975 439.378,275.051 439.378,275.141C439.383,275.231 439.386,275.333 439.386,275.447L439.45,279.397L438.247,279.397L438.241,270.334Z" style="fill:rgb(158,161,168);fill-rule:nonzero;"/>
        </g>
        <g id="text1043">
            <path id="path1239" d="M378.198,150.033L378.198,151.354C377.786,151.059 377.415,150.911 377.085,150.911C376.729,150.911 376.438,151.037 376.213,151.289C375.987,151.528 375.874,151.847 375.874,152.246C375.874,152.598 375.955,152.899 376.115,153.151C376.198,153.286 376.332,153.459 376.519,153.672C376.71,153.885 376.955,154.141 377.254,154.44C377.806,155 378.181,155.484 378.381,155.892C378.58,156.287 378.68,156.771 378.68,157.344C378.68,158.121 378.461,158.761 378.022,159.264C377.584,159.755 377.022,160 376.336,160C375.759,160 375.266,159.842 374.858,159.525L374.858,158.184C375.34,158.535 375.779,158.711 376.174,158.711C376.542,158.711 376.831,158.589 377.039,158.346C377.248,158.099 377.352,157.765 377.352,157.344C377.352,156.979 377.272,156.651 377.111,156.361C377.029,156.222 376.914,156.063 376.766,155.885C376.618,155.703 376.434,155.501 376.213,155.28C375.87,154.941 375.585,154.642 375.36,154.382C375.134,154.121 374.967,153.893 374.858,153.698C374.65,153.316 374.546,152.834 374.546,152.253C374.546,151.467 374.75,150.844 375.158,150.384C375.57,149.92 376.124,149.688 376.818,149.688C377.3,149.688 377.76,149.803 378.198,150.033L378.198,150.033Z" style="fill:rgb(158,161,168);fill-rule:nonzero;"/>
            <path id="path1241" d="M379.175,149.824L383.583,149.824L383.583,151.009L382.066,151.009L382.066,159.876L380.738,159.876L380.738,151.009L379.175,151.009L379.175,149.824Z" style="fill:rgb(158,161,168);fill-rule:nonzero;"/>
            <path id="path1243" d="M385.575,149.824L386.629,149.824L388.784,159.876L387.443,159.876L387.066,157.917L385.073,157.917L384.689,159.876L383.387,159.876L385.575,149.824ZM386.87,156.868L386.571,155.267C386.371,154.178 386.209,153.014 386.083,151.777C386.022,152.381 385.944,152.993 385.848,153.613C385.753,154.23 385.64,154.885 385.51,155.579L385.263,156.868L386.87,156.868Z" style="fill:rgb(158,161,168);fill-rule:nonzero;"/>
            <path id="path1245" d="M389.585,149.824L391.369,149.824C392.107,149.824 392.656,150 393.016,150.352C393.472,150.807 393.7,151.504 393.7,152.441C393.7,153.162 393.578,153.741 393.335,154.18C393.096,154.614 392.754,154.883 392.306,154.987L394.155,159.876L392.782,159.876L390.939,154.954L390.939,159.876L389.585,159.876L389.585,149.824ZM390.939,154.277C391.464,154.277 391.836,154.156 392.053,153.913C392.27,153.67 392.378,153.26 392.378,152.682C392.378,152.37 392.354,152.103 392.306,151.882C392.263,151.66 392.191,151.48 392.092,151.341C391.996,151.202 391.87,151.1 391.714,151.035C391.562,150.97 391.38,150.938 391.167,150.938L390.939,150.938L390.939,154.277Z" style="fill:rgb(158,161,168);fill-rule:nonzero;"/>
            <path id="path1247" d="M394.54,149.824L398.947,149.824L398.947,151.009L397.43,151.009L397.43,159.876L396.102,159.876L396.102,151.009L394.54,151.009L394.54,149.824Z" style="fill:rgb(158,161,168);fill-rule:nonzero;"/>
        </g>
        <g id="text1047">
            <path id="path1220" d="M357.599,175.033L357.599,176.354C357.187,176.059 356.816,175.911 356.486,175.911C356.13,175.911 355.839,176.037 355.614,176.289C355.388,176.528 355.275,176.847 355.275,177.246C355.275,177.598 355.356,177.899 355.516,178.151C355.599,178.286 355.733,178.459 355.92,178.672C356.111,178.885 356.356,179.141 356.655,179.44C357.207,180 357.582,180.484 357.782,180.892C357.981,181.287 358.081,181.771 358.081,182.344C358.081,183.121 357.862,183.761 357.424,184.264C356.985,184.755 356.423,185 355.737,185C355.16,185 354.668,184.842 354.26,184.525L354.26,183.184C354.741,183.535 355.18,183.711 355.575,183.711C355.944,183.711 356.232,183.589 356.441,183.346C356.649,183.099 356.753,182.765 356.753,182.344C356.753,181.979 356.673,181.651 356.512,181.361C356.43,181.222 356.315,181.063 356.167,180.885C356.02,180.703 355.835,180.501 355.614,180.28C355.271,179.941 354.987,179.642 354.761,179.382C354.535,179.121 354.368,178.893 354.26,178.698C354.051,178.316 353.947,177.834 353.947,177.253C353.947,176.467 354.151,175.844 354.559,175.384C354.971,174.92 355.525,174.688 356.219,174.688C356.701,174.688 357.161,174.803 357.599,175.033L357.599,175.033Z" style="fill:rgb(158,161,168);fill-rule:nonzero;"/>
            <path id="path1222" d="M358.576,174.824L362.984,174.824L362.984,176.009L361.467,176.009L361.467,184.876L360.139,184.876L360.139,176.009L358.576,176.009L358.576,174.824Z" style="fill:rgb(158,161,168);fill-rule:nonzero;"/>
            <path id="path1224" d="M368.862,180.098C368.862,181.873 368.665,183.134 368.27,183.88C367.875,184.627 367.213,185 366.284,185C365.308,185 364.62,184.599 364.221,183.796C363.826,183.01 363.628,181.615 363.628,179.609C363.628,177.821 363.823,176.556 364.214,175.814C364.609,175.067 365.277,174.694 366.219,174.694C367.061,174.694 367.686,174.983 368.094,175.56C368.363,175.946 368.559,176.495 368.68,177.207C368.802,177.867 368.862,178.83 368.862,180.098L368.862,180.098ZM367.443,180.241C367.443,178.5 367.365,177.346 367.209,176.777C367.053,176.204 366.734,175.918 366.252,175.918C365.77,175.918 365.449,176.181 365.288,176.706C365.132,177.235 365.054,178.299 365.054,179.896C365.054,181.367 365.136,182.387 365.301,182.956C365.471,183.494 365.787,183.763 366.252,183.763C366.708,183.763 367.02,183.511 367.189,183.008C367.359,182.509 367.443,181.586 367.443,180.241L367.443,180.241Z" style="fill:rgb(158,161,168);fill-rule:nonzero;"/>
            <path id="path1226" d="M370.21,174.824L371.994,174.824C372.853,174.824 373.478,175.041 373.869,175.475C374.26,175.914 374.455,176.608 374.455,177.559C374.455,178.895 374.062,179.759 373.277,180.15C372.882,180.328 372.311,180.417 371.564,180.417L371.564,184.876L370.21,184.876L370.21,174.824ZM371.564,179.258C372.124,179.258 372.51,179.145 372.723,178.919C372.94,178.689 373.049,178.281 373.049,177.695C373.049,177.096 372.945,176.658 372.736,176.38C372.528,176.102 372.2,175.964 371.753,175.964L371.564,175.964L371.564,179.258Z" style="fill:rgb(158,161,168);fill-rule:nonzero;"/>
            <rect id="path1228" x="374.566" y="180.918" width="2.37" height="1.016" style="fill:rgb(158,161,168);fill-rule:nonzero;"/>
            <path id="path1230" d="M381.655,174.987L381.655,176.204C381.308,176.035 381.017,175.951 380.783,175.951C380.462,175.951 380.186,176.031 379.956,176.191C379.726,176.348 379.535,176.591 379.383,176.921C379.236,177.25 379.125,177.669 379.051,178.177C378.982,178.681 378.947,179.277 378.947,179.967C378.947,182.45 379.583,183.691 380.854,183.691C381.076,183.691 381.343,183.622 381.655,183.483L381.655,184.727C381.33,184.909 380.965,185 380.561,185C378.526,185 377.508,183.338 377.508,180.013C377.508,178.216 377.755,176.879 378.25,176.003C378.749,175.126 379.511,174.687 380.535,174.687C380.913,174.687 381.286,174.787 381.655,174.987L381.655,174.987Z" style="fill:rgb(158,161,168);fill-rule:nonzero;"/>
            <path id="path1232" d="M387.743,180.098C387.743,181.873 387.545,183.134 387.15,183.88C386.755,184.627 386.093,185 385.165,185C384.188,185 383.5,184.599 383.101,183.796C382.706,183.01 382.508,181.615 382.508,179.609C382.508,177.821 382.704,176.556 383.094,175.814C383.489,175.067 384.158,174.694 385.099,174.694C385.941,174.694 386.566,174.983 386.974,175.56C387.244,175.946 387.439,176.495 387.56,177.207C387.682,177.867 387.743,178.83 387.743,180.098L387.743,180.098ZM386.323,180.241C386.323,178.5 386.245,177.346 386.089,176.777C385.933,176.204 385.614,175.918 385.132,175.918C384.65,175.918 384.329,176.181 384.169,176.706C384.012,177.235 383.934,178.299 383.934,179.896C383.934,181.367 384.017,182.387 384.181,182.956C384.351,183.494 384.668,183.763 385.132,183.763C385.588,183.763 385.9,183.511 386.069,183.008C386.239,182.509 386.323,181.586 386.323,180.241L386.323,180.241Z" style="fill:rgb(158,161,168);fill-rule:nonzero;"/>
            <path id="path1234" d="M389.09,174.824L390.353,174.824L391.701,178.835C392.092,179.967 392.437,181.176 392.736,182.461C392.628,181.684 392.547,180.981 392.495,180.352C392.443,179.722 392.417,179.13 392.417,178.574L392.417,174.824L393.778,174.824L393.778,184.876L392.508,184.876L390.991,180.352C390.853,179.931 390.72,179.499 390.594,179.056C390.473,178.613 390.36,178.149 390.256,177.663C390.248,177.602 390.233,177.528 390.21,177.441C390.192,177.355 390.171,177.255 390.145,177.142C390.157,177.255 390.169,177.352 390.179,177.435C390.186,177.513 390.193,177.58 390.198,177.637L390.27,178.659L390.341,179.902C390.346,179.972 390.349,180.056 390.349,180.156C390.354,180.256 390.356,180.369 390.356,180.495L390.428,184.876L389.093,184.876L389.09,174.824Z" style="fill:rgb(158,161,168);fill-rule:nonzero;"/>
            <path id="path1236" d="M394.54,174.824L398.947,174.824L398.947,176.009L397.43,176.009L397.43,184.876L396.102,184.876L396.102,176.009L394.54,176.009L394.54,174.824Z" style="fill:rgb(158,161,168);fill-rule:nonzero;"/>
        </g>
        <g id="text1051">
            <path id="path1209" d="M375.054,199.824L376.838,199.824C377.576,199.824 378.125,200 378.485,200.352C378.941,200.807 379.168,201.504 379.168,202.441C379.168,203.162 379.047,203.741 378.804,204.18C378.565,204.614 378.222,204.883 377.775,204.987L379.624,209.876L378.25,209.876L376.408,204.954L376.408,209.876L375.054,209.876L375.054,199.824ZM376.408,204.277C376.933,204.277 377.304,204.156 377.521,203.913C377.738,203.67 377.847,203.26 377.847,202.682C377.847,202.37 377.823,202.103 377.775,201.882C377.732,201.66 377.66,201.48 377.56,201.341C377.465,201.202 377.339,201.1 377.183,201.035C377.031,200.97 376.849,200.938 376.636,200.938L376.408,200.938L376.408,204.277Z" style="fill:rgb(158,161,168);fill-rule:nonzero;"/>
            <path id="path1211" d="M380.679,199.824L384.279,199.824L384.279,200.97L382.033,200.97L382.033,204.154L384.025,204.154L384.025,205.299L382.033,205.299L382.033,208.73L384.279,208.73L384.279,209.876L380.679,209.876L380.679,199.824Z" style="fill:rgb(158,161,168);fill-rule:nonzero;"/>
            <path id="path1213" d="M388.876,200.033L388.876,201.354C388.463,201.059 388.092,200.911 387.762,200.911C387.406,200.911 387.116,201.037 386.89,201.289C386.664,201.528 386.551,201.847 386.551,202.246C386.551,202.598 386.631,202.899 386.792,203.151C386.874,203.286 387.009,203.459 387.196,203.672C387.387,203.885 387.632,204.141 387.931,204.44C388.483,205 388.858,205.484 389.058,205.892C389.257,206.287 389.357,206.771 389.357,207.344C389.357,208.121 389.138,208.761 388.699,209.264C388.261,209.755 387.699,210 387.013,210C386.436,210 385.943,209.842 385.535,209.525L385.535,208.184C386.017,208.535 386.455,208.711 386.85,208.711C387.219,208.711 387.508,208.589 387.716,208.346C387.925,208.099 388.029,207.765 388.029,207.344C388.029,206.979 387.949,206.651 387.788,206.361C387.706,206.222 387.591,206.063 387.443,205.885C387.295,205.703 387.111,205.501 386.89,205.28C386.547,204.941 386.262,204.642 386.037,204.382C385.811,204.121 385.644,203.893 385.536,203.698C385.327,203.316 385.223,202.834 385.223,202.253C385.223,201.467 385.427,200.844 385.835,200.384C386.247,199.92 386.801,199.688 387.495,199.688C387.977,199.688 388.437,199.803 388.875,200.033L388.876,200.033Z" style="fill:rgb(158,161,168);fill-rule:nonzero;"/>
            <path id="path1215" d="M390.497,199.824L394.097,199.824L394.097,200.97L391.851,200.97L391.851,204.154L393.843,204.154L393.843,205.299L391.851,205.299L391.851,208.73L394.097,208.73L394.097,209.876L390.497,209.876L390.497,199.824Z" style="fill:rgb(158,161,168);fill-rule:nonzero;"/>
            <path id="path1217" d="M394.54,199.824L398.947,199.824L398.947,201.009L397.43,201.009L397.43,209.876L396.102,209.876L396.102,201.009L394.54,201.009L394.54,199.824Z" style="fill:rgb(158,161,168);fill-rule:nonzero;"/>
        </g>
        <g id="text1055">
            <path id="path1200" d="M377.515,224.824L378.869,224.824L378.869,233.73L381.083,233.73L381.083,234.876L377.515,234.876L377.515,224.824Z" style="fill:rgb(158,161,168);fill-rule:nonzero;"/>
            <path id="path1202" d="M386.974,230.098C386.974,231.873 386.777,233.134 386.382,233.88C385.987,234.627 385.325,235 384.396,235C383.42,235 382.732,234.599 382.333,233.796C381.938,233.01 381.74,231.615 381.74,229.609C381.74,227.821 381.935,226.556 382.326,225.814C382.721,225.067 383.389,224.694 384.331,224.694C385.173,224.694 385.798,224.983 386.206,225.56C386.475,225.946 386.671,226.495 386.792,227.207C386.914,227.867 386.974,228.83 386.974,230.098L386.974,230.098ZM385.555,230.241C385.555,228.5 385.477,227.346 385.321,226.777C385.165,226.204 384.846,225.918 384.364,225.918C383.882,225.918 383.561,226.181 383.4,226.706C383.244,227.235 383.166,228.299 383.166,229.896C383.166,231.367 383.248,232.387 383.413,232.956C383.582,233.494 383.899,233.763 384.364,233.763C384.819,233.763 385.132,233.511 385.301,233.008C385.47,232.509 385.555,231.586 385.555,230.241L385.555,230.241Z" style="fill:rgb(158,161,168);fill-rule:nonzero;"/>
            <path id="path1204" d="M393.355,230.098C393.355,231.873 393.157,233.134 392.762,233.88C392.367,234.627 391.705,235 390.777,235C389.8,235 389.112,234.599 388.713,233.796C388.318,233.01 388.12,231.615 388.12,229.609C388.12,227.821 388.316,226.556 388.706,225.814C389.101,225.067 389.77,224.694 390.711,224.694C391.553,224.694 392.178,224.983 392.586,225.56C392.856,225.946 393.051,226.495 393.172,227.207C393.294,227.867 393.355,228.83 393.355,230.098L393.355,230.098ZM391.935,230.241C391.935,228.5 391.857,227.346 391.701,226.777C391.545,226.204 391.226,225.918 390.744,225.918C390.262,225.918 389.941,226.181 389.781,226.706C389.624,227.235 389.546,228.299 389.546,229.896C389.546,231.367 389.629,232.387 389.794,232.956C389.963,233.494 390.28,233.763 390.744,233.763C391.2,233.763 391.512,233.511 391.682,233.008C391.851,232.509 391.936,231.586 391.936,230.241L391.935,230.241Z" style="fill:rgb(158,161,168);fill-rule:nonzero;"/>
            <path id="path1206" d="M394.702,224.824L396.486,224.824C397.346,224.824 397.971,225.041 398.361,225.475C398.752,225.914 398.947,226.608 398.947,227.559C398.947,228.895 398.554,229.759 397.769,230.15C397.374,230.328 396.803,230.417 396.056,230.417L396.056,234.876L394.702,234.876L394.702,224.824ZM396.056,229.258C396.616,229.258 397.003,229.145 397.215,228.919C397.432,228.689 397.541,228.281 397.541,227.695C397.541,227.096 397.437,226.658 397.228,226.38C397.02,226.102 396.692,225.964 396.245,225.964L396.056,225.964L396.056,229.258Z" style="fill:rgb(158,161,168);fill-rule:nonzero;"/>
        </g>
        <g id="text1089" transform="matrix(1,0,0,1,-4.40211,0)">
            <rect id="path1102" x="376.402" y="328.072" width="1.354" height="10.052" style="fill:rgb(158,161,168);fill-rule:nonzero;"/>
            <path id="path1104" d="M379.319,328.072L380.582,328.072L381.929,332.082C382.32,333.215 382.665,334.424 382.965,335.708C382.856,334.931 382.776,334.228 382.724,333.599C382.672,332.97 382.646,332.377 382.646,331.822L382.646,328.072L384.006,328.072L384.006,338.124L382.737,338.124L381.22,333.599C381.081,333.178 380.949,332.746 380.823,332.303C380.701,331.861 380.588,331.396 380.484,330.91C380.476,330.849 380.461,330.776 380.438,330.689C380.421,330.602 380.399,330.502 380.373,330.389C380.386,330.502 380.397,330.6 380.407,330.682C380.415,330.76 380.421,330.828 380.426,330.884L380.498,331.906L380.57,333.15C380.575,333.219 380.577,333.304 380.577,333.404C380.582,333.503 380.585,333.616 380.585,333.742L380.657,338.124L379.322,338.124L379.319,328.072Z" style="fill:rgb(158,161,168);fill-rule:nonzero;"/>
        </g>
        <g id="text1093" transform="matrix(1,0,0,1,1.06653,0)">
            <path id="path1095" d="M419.168,333.221C419.168,334.997 418.97,336.257 418.575,337.004C418.18,337.75 417.519,338.124 416.59,338.124C415.613,338.124 414.925,337.722 414.526,336.919C414.131,336.134 413.933,334.738 413.933,332.733C413.933,330.945 414.129,329.68 414.519,328.937C414.914,328.191 415.583,327.818 416.525,327.818C417.367,327.818 417.992,328.106 418.4,328.684C418.669,329.07 418.864,329.619 418.986,330.331C419.107,330.99 419.168,331.954 419.168,333.221L419.168,333.221ZM417.749,333.365C417.749,331.624 417.67,330.47 417.514,329.901C417.358,329.328 417.039,329.042 416.557,329.042C416.075,329.042 415.754,329.304 415.594,329.829C415.437,330.359 415.359,331.422 415.359,333.02C415.359,334.491 415.442,335.511 415.607,336.079C415.776,336.618 416.093,336.887 416.557,336.887C417.013,336.887 417.326,336.635 417.495,336.132C417.664,335.632 417.749,334.71 417.749,333.365L417.749,333.365Z" style="fill:rgb(158,161,168);fill-rule:nonzero;"/>
            <path id="path1097" d="M420.516,327.948L421.844,327.948L421.844,335.051C421.844,335.776 421.909,336.257 422.039,336.496C422.174,336.735 422.438,336.854 422.833,336.854C423.228,336.854 423.489,336.75 423.615,336.542C423.745,336.329 423.81,335.897 423.81,335.246L423.81,327.948L425.138,327.948L425.138,335.246C425.138,336.34 424.971,337.08 424.637,337.466C424.237,337.905 423.628,338.124 422.807,338.124C421.905,338.124 421.269,337.842 420.9,337.277C420.644,336.891 420.516,336.149 420.516,335.051L420.516,327.948Z" style="fill:rgb(158,161,168);fill-rule:nonzero;"/>
            <path id="path1099" d="M425.887,327.948L430.294,327.948L430.294,329.133L428.777,329.133L428.777,338L427.449,338L427.449,329.133L425.887,329.133L425.887,327.948Z" style="fill:rgb(158,161,168);fill-rule:nonzero;"/>
        </g>
        <g id="text1133" transform="matrix(1,0,0,1,0,50.7167)">
            <path id="path1135" d="M364.128,59.316L364.128,60.637C363.715,60.342 363.344,60.195 363.014,60.195C362.658,60.195 362.368,60.321 362.142,60.572C361.916,60.811 361.803,61.13 361.803,61.529C361.803,61.881 361.884,62.183 362.044,62.434C362.127,62.569 362.261,62.743 362.448,62.955C362.639,63.168 362.884,63.424 363.184,63.723C363.735,64.283 364.11,64.767 364.31,65.175C364.51,65.57 364.609,66.054 364.609,66.627C364.609,67.404 364.39,68.044 363.952,68.548C363.513,69.038 362.951,69.283 362.266,69.283C361.688,69.283 361.196,69.125 360.788,68.808L360.788,67.467C361.27,67.818 361.708,67.994 362.103,67.994C362.472,67.994 362.76,67.873 362.969,67.63C363.177,67.382 363.281,67.048 363.281,66.627C363.281,66.262 363.201,65.935 363.04,65.644C362.958,65.505 362.843,65.347 362.695,65.169C362.548,64.986 362.363,64.785 362.142,64.563C361.799,64.225 361.515,63.925 361.289,63.665C361.063,63.404 360.896,63.177 360.788,62.981C360.579,62.599 360.475,62.118 360.475,61.536C360.475,60.75 360.679,60.128 361.087,59.667C361.5,59.203 362.053,58.971 362.747,58.971C363.229,58.971 363.689,59.086 364.128,59.316L364.128,59.316Z" style="fill:rgb(158,161,168);fill-rule:nonzero;"/>
            <path id="path1137" d="M365.749,59.108L367.533,59.108C368.392,59.108 369.017,59.325 369.408,59.759C369.798,60.197 369.993,60.891 369.993,61.842C369.993,63.179 369.601,64.042 368.815,64.433C368.42,64.611 367.849,64.7 367.103,64.7L367.103,69.16L365.749,69.16L365.749,59.108ZM367.103,63.541C367.663,63.541 368.049,63.428 368.262,63.203C368.479,62.973 368.587,62.565 368.587,61.979C368.587,61.38 368.483,60.941 368.275,60.664C368.066,60.386 367.739,60.247 367.292,60.247L367.103,60.247L367.103,63.541Z" style="fill:rgb(158,161,168);fill-rule:nonzero;"/>
            <path id="path1139" d="M371.035,59.108L374.635,59.108L374.635,60.253L372.389,60.253L372.389,63.437L374.382,63.437L374.382,64.583L372.389,64.583L372.389,68.014L374.635,68.014L374.635,69.16L371.035,69.16L371.035,59.108Z" style="fill:rgb(158,161,168);fill-rule:nonzero;"/>
            <path id="path1141" d="M375.879,59.108L379.479,59.108L379.479,60.253L377.233,60.253L377.233,63.437L379.225,63.437L379.225,64.583L377.233,64.583L377.233,68.014L379.479,68.014L379.479,69.16L375.879,69.16L375.879,59.108Z" style="fill:rgb(158,161,168);fill-rule:nonzero;"/>
            <path id="path1143" d="M380.723,59.108L382.389,59.108C382.897,59.108 383.325,59.164 383.672,59.277C383.993,59.385 384.28,59.578 384.531,59.856C384.909,60.273 385.178,60.815 385.339,61.484C385.499,62.131 385.579,63.057 385.579,64.264C385.579,65.371 385.49,66.273 385.312,66.972C385.139,67.641 384.852,68.15 384.453,68.502C383.963,68.94 383.084,69.16 381.816,69.16L380.723,69.16L380.723,59.108ZM382.077,67.975C382.901,67.975 383.453,67.725 383.73,67.226C384.017,66.727 384.16,65.757 384.16,64.316C384.16,62.766 384.023,61.701 383.75,61.119C383.477,60.538 382.975,60.247 382.246,60.247L382.077,60.247L382.077,67.975Z" style="fill:rgb(158,161,168);fill-rule:nonzero;"/>
            <path id="path1145" d="M393.626,59.27L393.626,60.488C393.279,60.318 392.988,60.234 392.754,60.234C392.433,60.234 392.157,60.314 391.927,60.475C391.697,60.631 391.506,60.874 391.354,61.204C391.207,61.534 391.096,61.953 391.022,62.46C390.952,62.964 390.918,63.561 390.918,64.251C390.918,66.733 391.553,67.975 392.825,67.975C393.047,67.975 393.314,67.905 393.626,67.766L393.626,69.01C393.3,69.192 392.936,69.283 392.532,69.283C390.497,69.283 389.479,67.621 389.479,64.296C389.479,62.499 389.726,61.163 390.221,60.286C390.72,59.409 391.482,58.971 392.506,58.971C392.884,58.971 393.257,59.071 393.626,59.27L393.626,59.27Z" style="fill:rgb(158,161,168);fill-rule:nonzero;"/>
            <path id="path1147" d="M393.958,59.108L395.293,59.108L395.898,62.818L396.003,63.489L396.217,64.947C396.252,65.195 396.283,65.42 396.309,65.624C396.339,65.828 396.365,66.013 396.387,66.178L396.452,66.673C396.464,66.573 396.476,66.484 396.486,66.406C396.493,66.328 396.502,66.262 396.512,66.21L396.688,65.045L396.916,63.515C396.939,63.376 396.958,63.248 396.974,63.131C396.997,63.014 397.017,62.91 397.033,62.818L397.684,59.108L398.947,59.108L396.974,69.16L395.9,69.16L393.958,59.108Z" style="fill:rgb(158,161,168);fill-rule:nonzero;"/>
        </g>
        <g id="text1152" transform="matrix(1,0,0,1,0,-80)">
            <path id="path1154" d="M374.429,109.824L378.856,109.824L375.835,118.691L378.693,118.691L378.693,119.876L374.071,119.876L377.118,110.97L374.429,110.97L374.429,109.824Z" style="fill:rgb(158,161,168);fill-rule:nonzero;"/>
            <path id="path1156" d="M384.735,115.098C384.735,116.873 384.537,118.134 384.142,118.88C383.747,119.627 383.086,120 382.157,120C381.18,120 380.492,119.599 380.093,118.796C379.698,118.01 379.501,116.615 379.501,114.609C379.501,112.821 379.696,111.556 380.086,110.814C380.481,110.067 381.15,109.694 382.092,109.694C382.934,109.694 383.559,109.983 383.967,110.56C384.236,110.946 384.431,111.495 384.553,112.207C384.674,112.867 384.735,113.83 384.735,115.098L384.735,115.098ZM383.316,115.241C383.316,113.5 383.237,112.346 383.081,111.777C382.925,111.204 382.606,110.918 382.124,110.918C381.642,110.918 381.321,111.181 381.161,111.706C381.004,112.235 380.926,113.299 380.926,114.896C380.926,116.367 381.009,117.387 381.174,117.956C381.343,118.494 381.66,118.763 382.124,118.763C382.58,118.763 382.893,118.511 383.062,118.008C383.231,117.509 383.316,116.586 383.316,115.241L383.316,115.241Z" style="fill:rgb(158,161,168);fill-rule:nonzero;"/>
            <path id="path1158" d="M391.115,115.098C391.115,116.873 390.918,118.134 390.523,118.88C390.128,119.627 389.466,120 388.537,120C387.56,120 386.872,119.599 386.473,118.796C386.078,118.01 385.881,116.615 385.881,114.609C385.881,112.821 386.076,111.556 386.467,110.814C386.862,110.067 387.53,109.694 388.472,109.694C389.314,109.694 389.939,109.983 390.347,110.56C390.616,110.946 390.811,111.495 390.933,112.207C391.054,112.867 391.115,113.83 391.115,115.098L391.115,115.098ZM389.696,115.241C389.696,113.5 389.618,112.346 389.461,111.777C389.305,111.204 388.986,110.918 388.504,110.918C388.023,110.918 387.701,111.181 387.541,111.706C387.385,112.235 387.307,113.299 387.307,114.896C387.307,116.367 387.389,117.387 387.554,117.956C387.723,118.494 388.04,118.763 388.505,118.763C388.96,118.763 389.273,118.511 389.442,118.008C389.611,117.509 389.696,116.586 389.696,115.241L389.696,115.241Z" style="fill:rgb(158,161,168);fill-rule:nonzero;"/>
            <path id="path1160" d="M392.938,109.824L394.097,109.824L394.982,113.926C395.091,114.438 395.189,114.952 395.275,115.469C395.366,115.981 395.449,116.519 395.523,117.083C395.53,117.01 395.537,116.953 395.542,116.914C395.547,116.871 395.55,116.84 395.553,116.823L395.742,115.671L395.911,114.577L396.061,113.854L396.849,109.824L398.021,109.824L398.945,119.876L397.649,119.876L397.422,116.465C397.414,116.291 397.405,116.141 397.395,116.016C397.39,115.89 397.388,115.786 397.388,115.703L397.329,114.355L397.295,113.118C397.295,113.11 397.292,113.093 397.287,113.066C397.287,113.036 397.285,112.997 397.28,112.949L397.246,113.151C397.211,113.39 397.179,113.598 397.148,113.776C397.122,113.954 397.099,114.104 397.077,114.225L396.908,115.143L396.843,115.488L395.996,119.876L395.085,119.876L394.29,116.087C394.182,115.588 394.084,115.082 393.998,114.57C393.915,114.054 393.839,113.513 393.77,112.949L393.379,119.876L392.103,119.876L392.938,109.824Z" style="fill:rgb(158,161,168);fill-rule:nonzero;"/>
        </g>
        <g id="text1165" transform="matrix(1,0,0,1,0,4)">
            <path id="path1167" d="M357.652,59.033L357.652,60.354C357.24,60.059 356.869,59.911 356.539,59.911C356.183,59.911 355.892,60.037 355.667,60.289C355.441,60.528 355.328,60.847 355.328,61.246C355.328,61.598 355.408,61.899 355.569,62.151C355.651,62.286 355.786,62.459 355.973,62.672C356.164,62.885 356.409,63.141 356.708,63.44C357.26,64 357.635,64.484 357.835,64.892C358.034,65.287 358.134,65.771 358.134,66.344C358.134,67.121 357.915,67.761 357.477,68.264C357.038,68.755 356.476,69 355.79,69C355.213,69 354.721,68.842 354.313,68.525L354.313,67.184C354.794,67.535 355.233,67.711 355.628,67.711C355.997,67.711 356.285,67.589 356.494,67.346C356.702,67.099 356.806,66.765 356.806,66.344C356.806,65.979 356.726,65.651 356.565,65.361C356.483,65.222 356.368,65.063 356.22,64.885C356.072,64.703 355.888,64.501 355.667,64.28C355.324,63.941 355.04,63.642 354.814,63.382C354.588,63.121 354.421,62.893 354.313,62.698C354.104,62.316 354,61.834 354,61.253C354,60.467 354.204,59.844 354.612,59.384C355.024,58.92 355.578,58.688 356.272,58.688C356.754,58.688 357.214,58.803 357.652,59.033L357.652,59.033Z" style="fill:rgb(158,161,168);fill-rule:nonzero;"/>
            <path id="path1169" d="M364.306,64.098C364.306,65.873 364.109,67.134 363.714,67.88C363.319,68.627 362.657,69 361.728,69C360.751,69 360.063,68.599 359.664,67.796C359.269,67.01 359.072,65.615 359.072,63.609C359.072,61.821 359.267,60.556 359.658,59.814C360.053,59.067 360.721,58.694 361.663,58.694C362.505,58.694 363.13,58.983 363.538,59.56C363.807,59.946 364.002,60.495 364.124,61.207C364.245,61.867 364.306,62.83 364.306,64.098L364.306,64.098ZM362.887,64.241C362.887,62.5 362.809,61.346 362.652,60.777C362.496,60.204 362.177,59.918 361.695,59.918C361.214,59.918 360.892,60.181 360.732,60.706C360.576,61.235 360.497,62.299 360.497,63.896C360.497,65.367 360.58,66.387 360.745,66.956C360.914,67.494 361.231,67.763 361.695,67.763C362.151,67.763 362.464,67.511 362.633,67.008C362.802,66.509 362.887,65.586 362.887,64.241L362.887,64.241Z" style="fill:rgb(158,161,168);fill-rule:nonzero;"/>
            <path id="path1171" d="M365.654,58.824L366.982,58.824L366.982,65.927C366.982,66.652 367.047,67.134 367.177,67.372C367.312,67.611 367.576,67.73 367.971,67.73C368.366,67.73 368.627,67.626 368.753,67.418C368.883,67.205 368.948,66.773 368.948,66.122L368.948,58.824L370.276,58.824L370.276,66.122C370.276,67.216 370.109,67.956 369.775,68.342C369.375,68.781 368.766,69 367.945,69C367.043,69 366.407,68.718 366.038,68.154C365.782,67.767 365.654,67.025 365.654,65.927L365.654,58.824Z" style="fill:rgb(158,161,168);fill-rule:nonzero;"/>
            <path id="path1173" d="M371.826,58.824L373.089,58.824L374.436,62.835C374.827,63.967 375.172,65.176 375.471,66.461C375.363,65.684 375.283,64.981 375.23,64.352C375.178,63.722 375.152,63.13 375.152,62.574L375.152,58.824L376.513,58.824L376.513,68.876L375.244,68.876L373.727,64.352C373.588,63.931 373.455,63.499 373.329,63.056C373.208,62.613 373.095,62.149 372.991,61.663C372.982,61.602 372.967,61.528 372.945,61.441C372.928,61.355 372.906,61.255 372.88,61.142C372.893,61.255 372.904,61.352 372.913,61.435C372.921,61.513 372.928,61.58 372.932,61.637L373.004,62.659L373.076,63.902C373.08,63.972 373.082,64.056 373.082,64.156C373.086,64.256 373.088,64.369 373.088,64.495L373.16,68.876L371.826,68.876L371.826,58.824Z" style="fill:rgb(158,161,168);fill-rule:nonzero;"/>
            <path id="path1175" d="M378.076,58.824L379.742,58.824C380.25,58.824 380.678,58.881 381.025,58.994C381.346,59.102 381.632,59.295 381.884,59.573C382.262,59.99 382.531,60.532 382.691,61.201C382.852,61.847 382.932,62.774 382.932,63.98C382.932,65.087 382.843,65.99 382.665,66.689C382.492,67.357 382.205,67.867 381.806,68.219C381.316,68.657 380.437,68.876 379.169,68.876L378.076,68.876L378.076,58.824ZM379.43,67.691C380.254,67.691 380.806,67.442 381.083,66.943C381.37,66.444 381.513,65.474 381.513,64.033C381.513,62.483 381.376,61.418 381.103,60.836C380.829,60.254 380.328,59.964 379.599,59.964L379.43,59.964L379.43,67.691Z" style="fill:rgb(158,161,168);fill-rule:nonzero;"/>
            <path id="path1177" d="M390.387,59.033L390.387,60.354C389.974,60.059 389.603,59.911 389.273,59.911C388.918,59.911 388.627,60.037 388.401,60.289C388.175,60.528 388.062,60.847 388.062,61.246C388.062,61.598 388.143,61.899 388.303,62.151C388.386,62.286 388.52,62.459 388.707,62.672C388.898,62.885 389.143,63.141 389.442,63.44C389.994,64 390.369,64.484 390.569,64.892C390.768,65.287 390.868,65.771 390.868,66.344C390.868,67.121 390.649,67.761 390.211,68.264C389.772,68.755 389.21,69 388.524,69C387.947,69 387.455,68.842 387.047,68.525L387.047,67.184C387.528,67.535 387.967,67.711 388.362,67.711C388.731,67.711 389.019,67.589 389.228,67.346C389.436,67.099 389.54,66.765 389.54,66.344C389.54,65.979 389.46,65.651 389.299,65.361C389.217,65.222 389.102,65.063 388.954,64.885C388.807,64.703 388.622,64.501 388.401,64.28C388.058,63.941 387.774,63.642 387.548,63.382C387.322,63.121 387.155,62.893 387.047,62.698C386.838,62.316 386.734,61.834 386.734,61.253C386.734,60.467 386.938,59.844 387.346,59.384C387.758,58.92 388.312,58.688 389.006,58.688C389.488,58.688 389.948,58.803 390.386,59.033L390.387,59.033Z" style="fill:rgb(158,161,168);fill-rule:nonzero;"/>
            <path id="path1179" d="M397.04,64.098C397.04,65.873 396.843,67.134 396.448,67.88C396.053,68.627 395.391,69 394.462,69C393.486,69 392.798,68.599 392.398,67.796C392.003,67.01 391.806,65.615 391.806,63.609C391.806,61.821 392.001,60.556 392.392,59.814C392.787,59.067 393.455,58.694 394.397,58.694C395.239,58.694 395.864,58.983 396.272,59.56C396.541,59.946 396.737,60.495 396.858,61.207C396.98,61.867 397.04,62.83 397.04,64.098L397.04,64.098ZM395.621,64.241C395.621,62.5 395.543,61.346 395.387,60.777C395.231,60.204 394.912,59.918 394.43,59.918C393.948,59.918 393.627,60.181 393.466,60.706C393.31,61.235 393.232,62.299 393.232,63.896C393.232,65.367 393.314,66.387 393.479,66.956C393.648,67.494 393.965,67.763 394.43,67.763C394.885,67.763 395.198,67.511 395.367,67.008C395.536,66.509 395.621,65.586 395.621,64.241L395.621,64.241Z" style="fill:rgb(158,161,168);fill-rule:nonzero;"/>
            <path id="path1181" d="M398.388,58.824L399.716,58.824L399.716,65.927C399.716,66.652 399.781,67.134 399.912,67.372C400.046,67.611 400.311,67.73 400.706,67.73C401.101,67.73 401.361,67.626 401.487,67.418C401.617,67.205 401.683,66.773 401.683,66.122L401.683,58.824L403.011,58.824L403.011,66.122C403.011,67.216 402.844,67.956 402.509,68.342C402.11,68.781 401.5,69 400.68,69C399.777,69 399.141,68.718 398.772,68.154C398.516,67.767 398.388,67.025 398.388,65.927L398.388,58.824Z" style="fill:rgb(158,161,168);fill-rule:nonzero;"/>
            <path id="path1183" d="M404.56,58.824L406.344,58.824C407.082,58.824 407.631,59 407.991,59.352C408.447,59.807 408.674,60.504 408.674,61.441C408.674,62.162 408.553,62.741 408.31,63.18C408.071,63.614 407.728,63.883 407.281,63.987L409.13,68.876L407.756,68.876L405.914,63.954L405.914,68.876L404.56,68.876L404.56,58.824ZM405.914,63.277C406.439,63.277 406.81,63.156 407.027,62.913C407.244,62.67 407.353,62.26 407.353,61.682C407.353,61.37 407.329,61.103 407.281,60.882C407.238,60.66 407.166,60.48 407.067,60.341C406.971,60.202 406.845,60.1 406.689,60.035C406.537,59.97 406.355,59.938 406.142,59.938L405.914,59.938L405.914,63.277Z" style="fill:rgb(158,161,168);fill-rule:nonzero;"/>
            <path id="path1185" d="M413.974,58.987L413.974,60.204C413.627,60.035 413.336,59.951 413.102,59.951C412.78,59.951 412.505,60.031 412.275,60.191C412.045,60.348 411.854,60.591 411.702,60.921C411.554,61.25 411.443,61.669 411.37,62.177C411.3,62.681 411.265,63.277 411.265,63.967C411.265,66.45 411.901,67.691 413.173,67.691C413.394,67.691 413.661,67.622 413.974,67.483L413.974,68.727C413.648,68.909 413.284,69 412.88,69C410.844,69 409.826,67.338 409.826,64.013C409.826,62.216 410.074,60.879 410.569,60.003C411.068,59.126 411.83,58.688 412.854,58.688C413.231,58.688 413.605,58.787 413.974,58.987L413.974,58.987Z" style="fill:rgb(158,161,168);fill-rule:nonzero;"/>
            <path id="path1187" d="M415.107,58.824L418.707,58.824L418.707,59.97L416.461,59.97L416.461,63.154L418.453,63.154L418.453,64.299L416.461,64.299L416.461,67.73L418.707,67.73L418.707,68.876L415.107,68.876L415.107,58.824Z" style="fill:rgb(158,161,168);fill-rule:nonzero;"/>
            <path id="path1189" d="M426.064,59.033L426.064,60.354C425.651,60.059 425.28,59.911 424.951,59.911C424.595,59.911 424.304,60.037 424.078,60.289C423.852,60.528 423.739,60.847 423.739,61.246C423.739,61.598 423.82,61.899 423.98,62.151C424.063,62.286 424.197,62.459 424.384,62.672C424.575,62.885 424.82,63.141 425.12,63.44C425.671,64 426.046,64.484 426.246,64.892C426.445,65.287 426.545,65.771 426.545,66.344C426.545,67.121 426.326,67.761 425.888,68.264C425.449,68.755 424.887,69 424.202,69C423.624,69 423.132,68.842 422.724,68.525L422.724,67.184C423.205,67.535 423.644,67.711 424.039,67.711C424.408,67.711 424.696,67.589 424.905,67.346C425.113,67.099 425.217,66.765 425.217,66.344C425.217,65.979 425.137,65.651 424.976,65.361C424.894,65.222 424.779,65.063 424.631,64.885C424.484,64.703 424.299,64.501 424.078,64.28C423.735,63.941 423.451,63.642 423.225,63.382C422.999,63.121 422.832,62.893 422.724,62.698C422.515,62.316 422.411,61.834 422.411,61.253C422.411,60.467 422.615,59.844 423.023,59.384C423.436,58.92 423.989,58.688 424.683,58.688C425.165,58.688 425.625,58.803 426.064,59.033L426.064,59.033Z" style="fill:rgb(158,161,168);fill-rule:nonzero;"/>
            <path id="path1191" d="M427.685,58.824L429.469,58.824C430.328,58.824 430.953,59.041 431.344,59.475C431.734,59.914 431.93,60.608 431.93,61.559C431.93,62.895 431.537,63.759 430.751,64.15C430.356,64.328 429.786,64.417 429.039,64.417L429.039,68.876L427.685,68.876L427.685,58.824ZM429.039,63.258C429.599,63.258 429.985,63.145 430.198,62.919C430.415,62.689 430.523,62.281 430.523,61.695C430.523,61.096 430.419,60.658 430.211,60.38C430.002,60.102 429.675,59.964 429.228,59.964L429.039,59.964L429.039,63.258Z" style="fill:rgb(158,161,168);fill-rule:nonzero;"/>
            <path id="path1193" d="M432.971,58.824L436.572,58.824L436.572,59.97L434.326,59.97L434.326,63.154L436.318,63.154L436.318,64.299L434.326,64.299L434.326,67.73L436.572,67.73L436.572,68.876L432.971,68.876L432.971,58.824Z" style="fill:rgb(158,161,168);fill-rule:nonzero;"/>
            <path id="path1195" d="M437.815,58.824L441.415,58.824L441.415,59.97L439.169,59.97L439.169,63.154L441.161,63.154L441.161,64.299L439.169,64.299L439.169,67.73L441.415,67.73L441.415,68.876L437.815,68.876L437.815,58.824Z" style="fill:rgb(158,161,168);fill-rule:nonzero;"/>
            <path id="path1197" d="M442.659,58.824L444.326,58.824C444.833,58.824 445.261,58.881 445.608,58.994C445.929,59.102 446.216,59.295 446.467,59.573C446.845,59.99 447.114,60.532 447.275,61.201C447.435,61.847 447.516,62.774 447.516,63.98C447.516,65.087 447.427,65.99 447.249,66.689C447.075,67.357 446.789,67.867 446.389,68.219C445.899,68.657 445.02,68.876 443.753,68.876L442.659,68.876L442.659,58.824ZM444.013,67.691C444.838,67.691 445.389,67.442 445.667,66.943C445.953,66.444 446.096,65.474 446.096,64.033C446.096,62.483 445.96,61.418 445.686,60.836C445.413,60.254 444.911,59.964 444.182,59.964L444.013,59.964L444.013,67.691Z" style="fill:rgb(158,161,168);fill-rule:nonzero;"/>
        </g>
        <g id="text1288">
            <path id="path1313" d="M357.853,274.824L359.689,274.824C361.126,274.824 361.844,275.716 361.844,277.5C361.844,278.181 361.751,278.687 361.564,279.017C361.378,279.347 361.048,279.596 360.575,279.766C361.117,279.983 361.488,280.26 361.688,280.599C361.892,280.933 361.994,281.437 361.994,282.109C361.994,283.954 361.204,284.876 359.624,284.876L357.853,284.876L357.853,274.824ZM359.129,279.251C359.655,279.251 360.019,279.13 360.223,278.887C360.427,278.631 360.529,278.181 360.529,277.539C360.529,276.454 360.139,275.911 359.357,275.911L359.253,275.911L359.195,275.911C359.16,275.911 359.138,275.914 359.129,275.918L359.129,279.251ZM359.129,283.717C359.685,283.717 360.069,283.598 360.282,283.359C360.494,283.121 360.601,282.689 360.601,282.064C360.601,281.421 360.49,280.972 360.269,280.716C360.052,280.456 359.672,280.326 359.129,280.326L359.129,283.717Z" style="fill:rgb(158,161,168);fill-rule:nonzero;"/>
            <rect id="path1315" x="363.348" y="274.824" width="1.354" height="10.052" style="fill:rgb(158,161,168);fill-rule:nonzero;"/>
            <path id="path1317" d="M366.265,274.824L367.528,274.824L368.876,278.835C369.266,279.967 369.611,281.176 369.911,282.461C369.802,281.684 369.722,280.981 369.67,280.352C369.618,279.722 369.592,279.13 369.592,278.574L369.592,274.824L370.952,274.824L370.952,284.876L369.683,284.876L368.166,280.352C368.027,279.931 367.895,279.499 367.769,279.056C367.647,278.613 367.534,278.149 367.43,277.663C367.422,277.602 367.406,277.528 367.385,277.441C367.367,277.355 367.346,277.255 367.32,277.142C367.333,277.255 367.343,277.352 367.352,277.435C367.361,277.513 367.367,277.58 367.372,277.637L367.443,278.659L367.515,279.902C367.519,279.972 367.521,280.056 367.521,280.156C367.526,280.256 367.528,280.369 367.528,280.495L367.599,284.876L366.265,284.876L366.265,274.824Z" style="fill:rgb(158,161,168);fill-rule:nonzero;"/>
            <path id="path1319" d="M374.129,274.824L375.184,274.824L377.339,284.876L375.998,284.876L375.62,282.917L373.628,282.917L373.244,284.876L371.942,284.876L374.129,274.824ZM375.425,281.868L375.126,280.267C374.926,279.178 374.763,278.014 374.637,276.777C374.576,277.381 374.498,277.993 374.403,278.613C374.307,279.23 374.195,279.885 374.064,280.579L373.817,281.868L375.425,281.868Z" style="fill:rgb(158,161,168);fill-rule:nonzero;"/>
            <path id="path1321" d="M378.14,274.824L379.468,274.824L379.468,281.927C379.468,282.652 379.533,283.134 379.663,283.372C379.798,283.611 380.063,283.73 380.458,283.73C380.853,283.73 381.113,283.626 381.239,283.418C381.369,283.205 381.434,282.773 381.434,282.122L381.434,274.824L382.762,274.824L382.762,282.122C382.762,283.216 382.595,283.956 382.261,284.342C381.862,284.781 381.252,285 380.432,285C379.529,285 378.893,284.718 378.524,284.154C378.268,283.767 378.14,283.025 378.14,281.927L378.14,274.824Z" style="fill:rgb(158,161,168);fill-rule:nonzero;"/>
            <path id="path1323" d="M384.312,274.824L386.096,274.824C386.833,274.824 387.382,275 387.743,275.352C388.198,275.807 388.426,276.504 388.426,277.441C388.426,278.162 388.305,278.741 388.062,279.18C387.823,279.614 387.48,279.883 387.033,279.987L388.882,284.876L387.508,284.876L385.666,279.954L385.666,284.876L384.312,284.876L384.312,274.824ZM385.666,279.277C386.191,279.277 386.562,279.156 386.779,278.913C386.996,278.67 387.105,278.26 387.105,277.682C387.105,277.37 387.081,277.103 387.033,276.882C386.99,276.66 386.918,276.48 386.818,276.341C386.723,276.202 386.597,276.1 386.441,276.035C386.289,275.97 386.107,275.937 385.894,275.937L385.666,275.937L385.666,279.277Z" style="fill:rgb(158,161,168);fill-rule:nonzero;"/>
            <path id="path1325" d="M391.369,274.824L392.424,274.824L394.579,284.876L393.237,284.876L392.86,282.917L390.868,282.917L390.484,284.876L389.182,284.876L391.369,274.824ZM392.665,281.868L392.365,280.267C392.166,279.178 392.003,278.014 391.877,276.777C391.816,277.381 391.738,277.993 391.643,278.613C391.547,279.23 391.434,279.885 391.304,280.579L391.056,281.868L392.665,281.868Z" style="fill:rgb(158,161,168);fill-rule:nonzero;"/>
            <path id="path1327" d="M395.379,274.824L396.734,274.824L396.734,283.73L398.947,283.73L398.947,284.876L395.379,284.876L395.379,274.824Z" style="fill:rgb(158,161,168);fill-rule:nonzero;"/>
        </g>
        <g id="text1353" transform="matrix(0.842221,0,0,0.775758,0.15051,2.03636)">
            <path id="path1355" d="M27.22,8.033L27.22,9.354C26.808,9.059 26.437,8.911 26.107,8.911C25.751,8.911 25.46,9.037 25.235,9.289C25.009,9.528 24.896,9.847 24.896,10.246C24.896,10.598 24.976,10.899 25.137,11.151C25.22,11.286 25.354,11.459 25.541,11.672C25.732,11.885 25.977,12.141 26.276,12.44C26.828,13 27.203,13.484 27.403,13.892C27.602,14.287 27.702,14.771 27.702,15.344C27.702,16.121 27.483,16.761 27.045,17.264C26.606,17.755 26.044,18 25.358,18C24.781,18 24.289,17.842 23.881,17.525L23.881,16.184C24.362,16.535 24.801,16.711 25.196,16.711C25.565,16.711 25.853,16.589 26.062,16.346C26.27,16.099 26.374,15.765 26.374,15.344C26.374,14.979 26.294,14.651 26.133,14.361C26.051,14.222 25.936,14.063 25.788,13.885C25.641,13.703 25.456,13.501 25.235,13.28C24.892,12.941 24.608,12.642 24.382,12.382C24.156,12.121 23.989,11.893 23.881,11.698C23.672,11.316 23.568,10.834 23.568,10.253C23.568,9.467 23.772,8.844 24.18,8.384C24.592,7.92 25.146,7.687 25.84,7.687C26.322,7.687 26.782,7.803 27.22,8.033Z" style="fill:rgb(158,161,168);fill-rule:nonzero;"/>
            <path id="path1357" d="M28.841,7.824L30.196,7.824L30.196,11.757L32.181,11.757L32.181,7.824L33.535,7.824L33.535,17.876L32.181,17.876L32.181,12.902L30.196,12.902L30.196,17.876L28.841,17.876L28.841,7.824Z" style="fill:rgb(158,161,168);fill-rule:nonzero;"/>
            <path id="path1359" d="M40.124,13.098C40.124,14.873 39.927,16.134 39.532,16.88C39.137,17.627 38.475,18 37.546,18C36.569,18 35.881,17.599 35.482,16.796C35.087,16.01 34.89,14.615 34.89,12.609C34.89,10.821 35.085,9.556 35.476,8.814C35.871,8.067 36.539,7.694 37.481,7.694C38.323,7.694 38.948,7.983 39.356,8.56C39.625,8.946 39.82,9.495 39.942,10.207C40.063,10.867 40.124,11.83 40.124,13.098L40.124,13.098ZM38.705,13.241C38.705,11.5 38.627,10.346 38.47,9.777C38.314,9.204 37.995,8.918 37.513,8.918C37.032,8.918 36.71,9.181 36.55,9.706C36.394,10.235 36.315,11.299 36.315,12.896C36.315,14.367 36.398,15.387 36.563,15.956C36.732,16.494 37.049,16.763 37.513,16.763C37.969,16.763 38.282,16.511 38.451,16.008C38.62,15.509 38.705,14.586 38.705,13.241L38.705,13.241Z" style="fill:rgb(158,161,168);fill-rule:nonzero;"/>
            <path id="path1361" d="M40.716,7.824L42.025,7.824L42.709,12.492L42.819,13.182C42.871,13.556 42.91,13.896 42.937,14.204L43.008,15.057C43.012,15.079 43.017,15.118 43.021,15.174C43.025,15.231 43.032,15.303 43.041,15.389L43.073,15.064C43.125,14.495 43.179,13.972 43.236,13.495C43.297,13.017 43.362,12.577 43.431,12.173L44.154,7.824L45.196,7.824L45.873,12.049C45.972,12.674 46.055,13.254 46.12,13.788C46.19,14.322 46.246,14.832 46.289,15.318C46.333,14.806 46.38,14.311 46.433,13.833C46.489,13.356 46.548,12.887 46.608,12.427L46.706,11.757L47.285,7.824L48.581,7.824L46.804,17.876L45.749,17.876L45.039,13.534C45.035,13.516 45.024,13.445 45.007,13.319C44.99,13.193 44.963,13.013 44.929,12.779L44.792,11.776C44.784,11.698 44.768,11.581 44.746,11.424C44.729,11.268 44.71,11.071 44.688,10.832L44.655,10.415C44.647,10.515 44.638,10.602 44.629,10.676C44.621,10.75 44.614,10.81 44.61,10.858C44.588,11.145 44.568,11.368 44.551,11.529C44.538,11.685 44.529,11.78 44.525,11.815L44.388,12.779C44.358,13 44.334,13.174 44.317,13.299C44.299,13.425 44.286,13.503 44.278,13.534L43.542,17.876L42.455,17.876L40.716,7.824Z" style="fill:rgb(158,161,168);fill-rule:nonzero;"/>
            <rect id="path1363" x="52.149" y="7.824" width="1.354" height="10.052" style="fill:rgb(158,161,168);fill-rule:nonzero;"/>
            <path id="path1365" d="M55.065,7.824L56.328,7.824L57.676,11.835C58.067,12.967 58.412,14.176 58.711,15.461C58.603,14.684 58.522,13.981 58.47,13.352C58.418,12.722 58.392,12.13 58.392,11.574L58.392,7.824L59.753,7.824L59.753,17.876L58.483,17.876L56.966,13.352C56.828,12.931 56.695,12.499 56.569,12.056C56.448,11.613 56.335,11.149 56.231,10.663C56.222,10.602 56.207,10.528 56.185,10.441C56.168,10.355 56.146,10.255 56.12,10.142C56.133,10.255 56.144,10.352 56.153,10.435C56.161,10.513 56.168,10.58 56.172,10.637L56.244,11.659L56.316,12.902C56.32,12.972 56.322,13.056 56.322,13.156C56.326,13.256 56.328,13.369 56.328,13.495L56.4,17.876L55.065,17.876L55.065,7.824Z" style="fill:rgb(158,161,168);fill-rule:nonzero;"/>
            <path id="path1367" d="M61.315,7.824L64.935,7.824L64.935,8.97L62.67,8.97L62.67,12.147L64.714,12.147L64.714,13.293L62.67,13.293L62.67,17.876L61.315,17.876L61.315,7.824Z" style="fill:rgb(158,161,168);fill-rule:nonzero;"/>
            <path id="path1369" d="M71.062,13.098C71.062,14.873 70.864,16.134 70.469,16.88C70.074,17.627 69.412,18 68.483,18C67.507,18 66.819,17.599 66.42,16.796C66.025,16.01 65.827,14.615 65.827,12.609C65.827,10.821 66.022,9.556 66.413,8.814C66.808,8.067 67.476,7.694 68.418,7.694C69.26,7.694 69.885,7.983 70.293,8.56C70.562,8.946 70.758,9.495 70.879,10.207C71.001,10.867 71.062,11.83 71.062,13.098L71.062,13.098ZM69.642,13.241C69.642,11.5 69.564,10.346 69.408,9.777C69.252,9.204 68.933,8.918 68.451,8.918C67.969,8.918 67.648,9.181 67.487,9.706C67.331,10.235 67.253,11.299 67.253,12.896C67.253,14.367 67.335,15.387 67.5,15.956C67.67,16.494 67.986,16.763 68.451,16.763C68.907,16.763 69.219,16.511 69.388,16.008C69.558,15.509 69.642,14.586 69.642,13.241L69.642,13.241Z" style="fill:rgb(158,161,168);fill-rule:nonzero;"/>
        </g>
        <g id="text1374">
            <path id="path1376" d="M188.113,17.754L188.113,3.681L191.395,3.681C193.272,3.681 194.734,4.185 195.779,5.194C197.152,6.513 197.839,8.357 197.839,10.727C197.839,13.06 197.258,14.862 196.098,16.132C195.107,17.213 193.631,17.754 191.668,17.754L188.113,17.754ZM191.914,14.354C193.275,14.287 193.956,13.115 193.956,10.836C193.956,9.712 193.783,8.825 193.436,8.174C193.09,7.518 192.622,7.19 192.033,7.19L191.914,7.19L191.914,14.354Z" style="fill:rgb(158,161,168);fill-rule:nonzero;"/>
            <path id="path1378" d="M209.797,10.763C209.797,12.908 209.308,14.652 208.329,15.995C207.357,17.332 206.09,18 204.529,18C203.143,18 201.955,17.487 200.965,16.46C199.719,15.159 199.096,13.209 199.096,10.608C199.096,8.117 199.747,6.212 201.047,4.893C202.013,3.915 203.158,3.426 204.483,3.426C206.105,3.426 207.397,4.088 208.357,5.413C209.317,6.737 209.797,8.521 209.797,10.763ZM205.85,10.79C205.85,8.244 205.401,6.971 204.501,6.971C204.052,6.971 203.693,7.306 203.426,7.974C203.164,8.594 203.034,9.505 203.034,10.708C203.034,11.893 203.155,12.814 203.398,13.47C203.648,14.12 203.991,14.445 204.428,14.445C204.878,14.445 205.224,14.123 205.467,13.479C205.723,12.835 205.85,11.939 205.85,10.79L205.85,10.79Z" style="fill:rgb(158,161,168);fill-rule:nonzero;"/>
            <path id="path1380" d="M215.211,17.754L211.41,17.754L211.41,3.681L215.092,3.681C216.928,3.681 218.289,4.055 219.176,4.802C220.221,5.683 220.743,6.908 220.743,8.475C220.743,10.183 220.187,11.456 219.076,12.294C218.316,12.859 217.225,13.142 215.803,13.142L215.211,13.142L215.211,17.754ZM215.211,9.979L215.384,9.988C215.846,9.988 216.214,9.849 216.487,9.569C216.76,9.283 216.897,8.895 216.897,8.402C216.897,7.916 216.763,7.521 216.496,7.217C216.229,6.908 215.888,6.753 215.475,6.753L215.211,6.753L215.211,9.979Z" style="fill:rgb(158,161,168);fill-rule:nonzero;"/>
            <path id="path1382" d="M225.893,17.754L222.092,17.754L222.092,3.681L225.775,3.681C227.61,3.681 228.971,4.055 229.858,4.802C230.903,5.683 231.426,6.908 231.426,8.475C231.426,10.183 230.87,11.456 229.758,12.294C228.998,12.859 227.908,13.142 226.486,13.142L225.893,13.142L225.893,17.754ZM225.893,9.979L226.066,9.988C226.528,9.988 226.896,9.849 227.169,9.569C227.443,9.283 227.579,8.895 227.579,8.402C227.579,7.916 227.446,7.521 227.178,7.217C226.911,6.908 226.571,6.753 226.158,6.753L225.893,6.753L225.893,9.979Z" style="fill:rgb(158,161,168);fill-rule:nonzero;"/>
            <path id="path1384" d="M239.428,17.754L232.775,17.754L232.775,3.681L236.576,3.681L236.576,14.372L239.428,14.372L239.428,17.754Z" style="fill:rgb(158,161,168);fill-rule:nonzero;"/>
            <path id="path1386" d="M251.223,17.754L247.294,17.754L247.012,15.967L244.451,15.967L244.141,17.754L240.212,17.754L243.594,3.681L248.242,3.681L251.223,17.754ZM246.565,12.951L246.319,11.31C246.313,11.304 246.301,11.222 246.283,11.064C246.271,10.93 246.207,10.401 246.091,9.478C246.079,9.375 246.064,9.235 246.046,9.059C246.028,8.876 246.003,8.648 245.973,8.375L245.854,7.044C245.842,7.172 245.824,7.315 245.8,7.473C245.782,7.631 245.76,7.804 245.736,7.992C245.693,8.369 245.663,8.63 245.645,8.776C245.627,8.922 245.615,9.01 245.608,9.04L245.344,10.745L244.961,12.951L246.565,12.951Z" style="fill:rgb(158,161,168);fill-rule:nonzero;"/>
            <path id="path1388" d="M252.316,17.754L252.316,3.681L256.737,3.681C258.39,3.681 259.614,4.046 260.41,4.775C261.218,5.522 261.622,6.488 261.622,7.673C261.622,9.435 260.747,10.389 258.997,10.535C259.994,10.681 260.723,11.009 261.185,11.52C261.653,12.03 261.887,12.765 261.887,13.725C261.887,14.934 261.495,15.907 260.711,16.642C259.933,17.383 258.909,17.754 257.639,17.754L252.316,17.754ZM256.117,14.701C256.19,14.707 256.254,14.713 256.309,14.719L256.445,14.719C256.919,14.719 257.296,14.594 257.575,14.345C257.861,14.096 258.004,13.762 258.004,13.342C258.004,12.923 257.861,12.595 257.575,12.358C257.296,12.121 256.91,12.003 256.418,12.003L256.117,12.003L256.117,14.701ZM256.117,9.15L256.372,9.15C256.828,9.15 257.187,9.043 257.448,8.831C257.715,8.618 257.849,8.32 257.849,7.937C257.849,7.123 257.402,6.716 256.509,6.716C256.467,6.716 256.412,6.719 256.345,6.725C256.284,6.725 256.208,6.728 256.117,6.734L256.117,9.15Z" style="fill:rgb(158,161,168);fill-rule:nonzero;"/>
        </g>
    </g>
</svg>
