<?xml version="1.0" encoding="UTF-8" standalone="no"?>
<!DOCTYPE svg PUBLIC "-//W3C//DTD SVG 1.1//EN" "http://www.w3.org/Graphics/SVG/1.1/DTD/svg11.dtd">
<svg width="100%" height="100%" viewBox="0 0 30 380" version="1.1" xmlns="http://www.w3.org/2000/svg" xmlns:xlink="http://www.w3.org/1999/xlink" xml:space="preserve" xmlns:serif="http://www.serif.com/" style="fill-rule:evenodd;clip-rule:evenodd;stroke-linejoin:round;stroke-miterlimit:2;">
    <g id="Layer-2" serif:id="Layer 2">
        <rect id="rect4689" x="-0.008" y="0" width="30" height="380" style="fill:rgb(44,45,48);"/>
        <g id="text989">
        </g>
        <g id="text80" transform="matrix(1.00498,0,0,0.995047,-30,4.99998)">
            <path id="path4726" d="M29.851,371.706L29.851,363.943L31.853,363.943L32.903,366.668C32.96,366.829 33.024,367.013 33.094,367.221C33.168,367.429 33.249,367.668 33.336,367.94L33.552,368.624C33.475,367.95 33.416,367.373 33.376,366.894C33.336,366.415 33.316,366.013 33.316,365.687L33.316,363.943L35.317,363.943L35.317,371.706L33.316,371.706L32.26,368.85C32.149,368.545 32.049,368.26 31.958,367.995C31.871,367.727 31.794,367.472 31.727,367.231C31.77,367.777 31.802,368.253 31.822,368.659C31.843,369.065 31.853,369.42 31.853,369.725L31.853,371.706L29.851,371.706Z" style="fill:rgb(158,161,168);fill-rule:nonzero;"/>
            <path id="path4728" d="M39.887,371.706L37.791,371.706L37.791,368.418L35.865,363.943L38.052,363.943L38.429,365.094C38.503,365.319 38.568,365.535 38.625,365.743C38.686,365.951 38.739,366.15 38.786,366.341C38.863,366.056 38.93,365.811 38.987,365.607C39.044,365.399 39.095,365.232 39.138,365.104L39.52,363.943L41.692,363.943L39.887,368.418L39.887,371.706Z" style="fill:rgb(158,161,168);fill-rule:nonzero;"/>
            <path id="path4730" d="M41.894,371.515L41.894,369.076C42.306,369.639 42.752,369.921 43.231,369.921C43.412,369.921 43.56,369.874 43.673,369.78C43.787,369.683 43.844,369.562 43.844,369.418C43.844,369.21 43.72,369.008 43.472,368.81L43.13,368.543C42.902,368.372 42.708,368.203 42.547,368.035C42.386,367.865 42.256,367.69 42.155,367.513C42.054,367.332 41.981,367.146 41.934,366.954C41.887,366.763 41.863,366.562 41.863,366.351C41.863,365.989 41.947,365.61 42.115,365.215C42.199,365.03 42.296,364.863 42.406,364.712C42.517,364.558 42.644,364.422 42.789,364.305C43.184,363.969 43.662,363.802 44.222,363.802C44.721,363.802 45.224,363.934 45.73,364.199L45.73,366.572C45.559,366.308 45.365,366.1 45.147,365.949C44.929,365.795 44.714,365.718 44.503,365.718C44.342,365.718 44.21,365.765 44.106,365.858C43.999,365.949 43.945,366.058 43.945,366.185C43.945,366.393 44.087,366.599 44.372,366.804L44.704,367.05C45.147,367.368 45.463,367.695 45.655,368.03C45.849,368.366 45.946,368.758 45.946,369.207C45.946,369.971 45.713,370.601 45.247,371.098C44.781,371.594 44.191,371.842 43.477,371.842C42.985,371.842 42.457,371.733 41.894,371.515L41.894,371.515Z" style="fill:rgb(158,161,168);fill-rule:nonzero;"/>
            <path id="path4732" d="M49.576,371.706L47.48,371.706L47.48,365.803L46.323,365.803L46.323,363.943L50.778,363.943L50.778,365.803L49.576,365.803L49.576,371.706Z" style="fill:rgb(158,161,168);fill-rule:nonzero;"/>
            <path id="path4734" d="M56.525,371.706L54.428,371.706L54.428,368.584L53.428,368.584L53.428,371.706L51.331,371.706L51.331,363.943L53.428,363.943L53.428,366.688L54.428,366.688L54.428,363.943L56.525,363.943L56.525,371.706Z" style="fill:rgb(158,161,168);fill-rule:nonzero;"/>
            <rect id="path4736" x="57.606" y="363.943" width="2.097" height="7.763" style="fill:rgb(158,161,168);fill-rule:nonzero;"/>
        </g>
        <g id="text4987">
        </g>
        <g id="text1129">
            <path id="path1241" d="M7.284,86.958L10.81,86.958L10.81,87.906L9.596,87.906L9.596,95L8.534,95L8.534,87.906L7.284,87.906L7.284,86.958Z" style="fill:rgb(158,161,168);fill-rule:nonzero;"/>
            <rect id="path1243" x="11.404" y="86.958" width="1.083" height="8.042" style="fill:rgb(158,161,168);fill-rule:nonzero;"/>
            <path id="path1245" d="M14.117,86.958L15.044,86.958L15.753,90.24C15.839,90.649 15.918,91.061 15.987,91.474C16.06,91.884 16.126,92.314 16.185,92.766C16.192,92.707 16.197,92.661 16.201,92.63C16.204,92.595 16.207,92.571 16.211,92.557L16.362,91.635L16.497,90.76L16.617,90.182L17.247,86.958L18.185,86.958L18.924,95L17.888,95L17.706,92.271C17.699,92.132 17.692,92.012 17.685,91.911C17.681,91.811 17.68,91.727 17.68,91.661L17.633,90.583L17.607,89.594C17.607,89.587 17.605,89.573 17.602,89.552C17.602,89.528 17.6,89.497 17.596,89.458L17.57,89.62C17.543,89.811 17.516,89.977 17.492,90.12C17.471,90.262 17.452,90.382 17.435,90.479L17.299,91.214L17.247,91.49L16.57,95L15.841,95L15.206,91.969C15.119,91.569 15.041,91.165 14.971,90.755C14.905,90.342 14.845,89.91 14.789,89.458L14.477,95L13.456,95L14.117,86.958Z" style="fill:rgb(158,161,168);fill-rule:nonzero;"/>
            <path id="path1247" d="M19.82,86.958L22.701,86.958L22.701,87.875L20.904,87.875L20.904,90.422L22.497,90.422L22.497,91.339L20.904,91.339L20.904,94.083L22.701,94.083L22.701,95L19.82,95L19.82,86.958Z" style="fill:rgb(158,161,168);fill-rule:nonzero;"/>
        </g>
        <g id="text1133">
            <path id="path1228" d="M3.451,40.958L4.784,40.958C5.19,40.958 5.532,41.003 5.81,41.094C6.067,41.181 6.296,41.335 6.497,41.557C6.799,41.891 7.015,42.325 7.143,42.859C7.272,43.377 7.336,44.118 7.336,45.083C7.336,45.969 7.265,46.691 7.122,47.25C6.984,47.785 6.754,48.193 6.435,48.474C6.043,48.825 5.339,49 4.326,49L3.451,49L3.451,40.958ZM4.534,48.052C5.194,48.052 5.635,47.852 5.857,47.453C6.086,47.054 6.201,46.278 6.201,45.125C6.201,43.885 6.091,43.033 5.872,42.568C5.654,42.102 5.253,41.87 4.669,41.87L4.534,41.87L4.534,48.052Z" style="fill:rgb(158,161,168);fill-rule:nonzero;"/>
            <path id="path1230" d="M8.409,40.958L11.289,40.958L11.289,41.875L9.492,41.875L9.492,44.422L11.086,44.422L11.086,45.339L9.492,45.339L9.492,48.083L11.289,48.083L11.289,49L8.409,49L8.409,40.958Z" style="fill:rgb(158,161,168);fill-rule:nonzero;"/>
            <path id="path1232" d="M12.284,40.958L13.367,40.958L13.367,48.083L15.138,48.083L15.138,49L12.284,49L12.284,40.958Z" style="fill:rgb(158,161,168);fill-rule:nonzero;"/>
            <path id="path1234" d="M17.409,40.958L18.253,40.958L19.977,49L18.904,49L18.602,47.432L17.008,47.432L16.701,49L15.659,49L17.409,40.958ZM18.445,46.594L18.206,45.312C18.046,44.441 17.916,43.51 17.815,42.521C17.766,43.003 17.704,43.493 17.628,43.99C17.551,44.483 17.461,45.007 17.357,45.562L17.159,46.594L18.445,46.594Z" style="fill:rgb(158,161,168);fill-rule:nonzero;"/>
            <path id="path1236" d="M19.602,40.958L20.747,40.958L21.279,42.708C21.296,42.76 21.313,42.818 21.331,42.88C21.348,42.943 21.369,43.01 21.393,43.083C21.591,43.715 21.727,44.247 21.799,44.677C21.862,44.247 21.914,43.946 21.956,43.776L22.122,43.057L22.185,42.776L22.633,40.958L23.763,40.958L22.362,45.542L22.362,49L21.279,49L21.279,45.542L19.602,40.958Z" style="fill:rgb(158,161,168);fill-rule:nonzero;"/>
            <path id="path1238" d="M24.701,40.958L26.534,40.958L26.534,49L25.497,49L25.497,41.88L24.701,41.88L24.701,40.958Z" style="fill:rgb(158,161,168);fill-rule:nonzero;"/>
        </g>
        <g id="text1137" transform="matrix(0.999952,0,0,1.00005,0,0)">
            <rect id="path1223" x="11.951" y="51.955" width="1.083" height="8.042" style="fill:rgb(158,161,168);fill-rule:nonzero;"/>
            <path id="path1225" d="M14.285,51.955L15.295,51.955L16.373,55.164C16.686,56.07 16.962,57.037 17.201,58.065C17.114,57.443 17.05,56.881 17.009,56.377C16.967,55.874 16.946,55.4 16.946,54.955L16.946,51.955L18.035,51.955L18.035,59.997L17.019,59.997L15.805,56.377C15.694,56.041 15.588,55.695 15.488,55.341C15.39,54.987 15.3,54.615 15.217,54.226C15.21,54.178 15.198,54.119 15.18,54.049C15.167,53.98 15.149,53.9 15.128,53.81C15.139,53.9 15.147,53.978 15.154,54.044C15.161,54.107 15.167,54.16 15.17,54.205L15.227,55.023L15.285,56.018C15.288,56.074 15.29,56.141 15.29,56.221C15.293,56.301 15.295,56.391 15.295,56.492L15.352,59.997L14.285,59.997L14.285,51.955Z" style="fill:rgb(158,161,168);fill-rule:nonzero;"/>
        </g>
        <g id="text1141" transform="matrix(1,0,0,1,0,-10)">
            <path id="path1218" d="M14.523,131.99L14.523,132.964C14.246,132.828 14.013,132.76 13.826,132.76C13.569,132.76 13.348,132.825 13.164,132.953C12.98,133.078 12.827,133.273 12.706,133.536C12.588,133.8 12.499,134.135 12.44,134.542C12.385,134.944 12.357,135.422 12.357,135.974C12.357,137.96 12.865,138.953 13.883,138.953C14.06,138.953 14.273,138.898 14.523,138.786L14.523,139.781C14.263,139.927 13.971,140 13.648,140C12.02,140 11.206,138.67 11.206,136.01C11.206,134.573 11.404,133.503 11.799,132.802C12.199,132.101 12.808,131.75 13.628,131.75C13.93,131.75 14.228,131.83 14.523,131.99L14.523,131.99Z" style="fill:rgb(158,161,168);fill-rule:nonzero;"/>
            <path id="path1220" d="M14.789,131.859L15.857,131.859L16.341,134.828L16.424,135.365L16.596,136.531C16.624,136.729 16.648,136.91 16.669,137.073C16.694,137.236 16.714,137.384 16.732,137.516L16.784,137.911C16.794,137.832 16.803,137.76 16.81,137.698C16.817,137.635 16.824,137.583 16.831,137.542L16.971,136.609L17.154,135.385C17.171,135.274 17.187,135.172 17.201,135.078C17.218,134.984 17.233,134.901 17.247,134.828L17.768,131.859L18.779,131.859L17.201,139.901L16.341,139.901L14.789,131.859Z" style="fill:rgb(158,161,168);fill-rule:nonzero;"/>
        </g>
        <g id="text1145" transform="matrix(1,0,0,1,0,-10)">
            <path id="path1211" d="M12.635,171.078C12.635,172.498 12.477,173.507 12.161,174.104C11.845,174.701 11.316,175 10.573,175C9.792,175 9.241,174.679 8.922,174.036C8.606,173.408 8.448,172.292 8.448,170.687C8.448,169.257 8.604,168.245 8.917,167.651C9.233,167.054 9.767,166.755 10.521,166.755C11.194,166.755 11.694,166.986 12.021,167.448C12.236,167.757 12.392,168.196 12.49,168.766C12.587,169.293 12.635,170.064 12.635,171.078ZM11.5,171.193C11.5,169.8 11.438,168.877 11.313,168.422C11.188,167.964 10.932,167.734 10.547,167.734C10.161,167.734 9.905,167.944 9.776,168.365C9.651,168.788 9.589,169.639 9.589,170.917C9.589,172.094 9.655,172.91 9.786,173.365C9.922,173.795 10.175,174.01 10.547,174.01C10.911,174.01 11.161,173.809 11.297,173.406C11.432,173.007 11.5,172.269 11.5,171.193L11.5,171.193Z" style="fill:rgb(158,161,168);fill-rule:nonzero;"/>
            <path id="path1213" d="M13.714,166.859L14.776,166.859L14.776,172.542C14.776,173.122 14.828,173.507 14.932,173.698C15.04,173.889 15.252,173.984 15.568,173.984C15.884,173.984 16.092,173.901 16.193,173.734C16.297,173.564 16.349,173.219 16.349,172.698L16.349,166.859L17.411,166.859L17.411,172.698C17.411,173.573 17.278,174.165 17.01,174.474C16.691,174.825 16.203,175 15.547,175C14.825,175 14.316,174.774 14.021,174.323C13.816,174.014 13.714,173.42 13.714,172.542L13.714,166.859Z" style="fill:rgb(158,161,168);fill-rule:nonzero;"/>
            <path id="path1215" d="M18.01,166.859L21.536,166.859L21.536,167.807L20.323,167.807L20.323,174.901L19.26,174.901L19.26,167.807L18.01,167.807L18.01,166.859Z" style="fill:rgb(158,161,168);fill-rule:nonzero;"/>
        </g>
        <g id="text1149" transform="matrix(1,0,0,1,0,-0.999988)">
            <path id="path1202" d="M7.284,247.958L10.81,247.958L10.81,248.906L9.596,248.906L9.596,256L8.534,256L8.534,248.906L7.284,248.906L7.284,247.958Z" style="fill:rgb(158,161,168);fill-rule:nonzero;"/>
            <rect id="path1204" x="11.404" y="247.958" width="1.083" height="8.042" style="fill:rgb(158,161,168);fill-rule:nonzero;"/>
            <path id="path1206" d="M14.117,247.958L15.044,247.958L15.753,251.24C15.839,251.649 15.918,252.061 15.987,252.474C16.06,252.884 16.126,253.314 16.185,253.766C16.192,253.707 16.197,253.661 16.201,253.63C16.204,253.595 16.207,253.571 16.211,253.557L16.362,252.635L16.497,251.76L16.617,251.182L17.247,247.958L18.185,247.958L18.924,256L17.888,256L17.706,253.271C17.699,253.132 17.692,253.012 17.685,252.911C17.681,252.811 17.68,252.727 17.68,252.661L17.633,251.583L17.607,250.594C17.607,250.587 17.605,250.573 17.602,250.552C17.602,250.528 17.6,250.497 17.596,250.458L17.57,250.62C17.543,250.811 17.516,250.977 17.492,251.12C17.471,251.262 17.452,251.382 17.435,251.479L17.299,252.214L17.247,252.49L16.57,256L15.841,256L15.206,252.969C15.119,252.569 15.041,252.165 14.971,251.755C14.905,251.342 14.845,250.91 14.789,250.458L14.477,256L13.456,256L14.117,247.958Z" style="fill:rgb(158,161,168);fill-rule:nonzero;"/>
            <path id="path1208" d="M19.82,247.958L22.701,247.958L22.701,248.875L20.904,248.875L20.904,251.422L22.497,251.422L22.497,252.339L20.904,252.339L20.904,255.083L22.701,255.083L22.701,256L19.82,256L19.82,247.958Z" style="fill:rgb(158,161,168);fill-rule:nonzero;"/>
        </g>
        <g id="text1153" transform="matrix(1,0,0,1,0,-0.999988)">
            <path id="path1189" d="M3.451,201.958L4.784,201.958C5.19,201.958 5.532,202.003 5.81,202.094C6.067,202.181 6.296,202.335 6.497,202.557C6.799,202.891 7.015,203.325 7.143,203.859C7.272,204.377 7.336,205.118 7.336,206.083C7.336,206.969 7.265,207.691 7.122,208.25C6.984,208.785 6.754,209.193 6.435,209.474C6.043,209.825 5.339,210 4.326,210L3.451,210L3.451,201.958ZM4.534,209.052C5.194,209.052 5.635,208.852 5.857,208.453C6.086,208.054 6.201,207.278 6.201,206.125C6.201,204.885 6.091,204.033 5.872,203.568C5.654,203.102 5.253,202.87 4.669,202.87L4.534,202.87L4.534,209.052Z" style="fill:rgb(158,161,168);fill-rule:nonzero;"/>
            <path id="path1191" d="M8.409,201.958L11.289,201.958L11.289,202.875L9.492,202.875L9.492,205.422L11.086,205.422L11.086,206.339L9.492,206.339L9.492,209.083L11.289,209.083L11.289,210L8.409,210L8.409,201.958Z" style="fill:rgb(158,161,168);fill-rule:nonzero;"/>
            <path id="path1193" d="M12.284,201.958L13.367,201.958L13.367,209.083L15.138,209.083L15.138,210L12.284,210L12.284,201.958Z" style="fill:rgb(158,161,168);fill-rule:nonzero;"/>
            <path id="path1195" d="M17.409,201.958L18.253,201.958L19.977,210L18.904,210L18.602,208.432L17.008,208.432L16.701,210L15.659,210L17.409,201.958ZM18.445,207.594L18.206,206.313C18.046,205.441 17.916,204.51 17.815,203.521C17.766,204.003 17.704,204.493 17.628,204.99C17.551,205.483 17.461,206.007 17.357,206.563L17.159,207.594L18.445,207.594Z" style="fill:rgb(158,161,168);fill-rule:nonzero;"/>
            <path id="path1197" d="M19.602,201.958L20.747,201.958L21.279,203.708C21.296,203.76 21.313,203.818 21.331,203.88C21.348,203.943 21.369,204.01 21.393,204.083C21.591,204.715 21.727,205.247 21.799,205.677C21.862,205.247 21.914,204.946 21.956,204.776L22.122,204.057L22.185,203.776L22.633,201.958L23.763,201.958L22.362,206.542L22.362,210L21.279,210L21.279,206.542L19.602,201.958Z" style="fill:rgb(158,161,168);fill-rule:nonzero;"/>
            <path id="path1199" d="M25.32,204.573L24.258,204.573L24.247,204.255C24.247,203.377 24.379,202.759 24.643,202.401C24.911,202.04 25.358,201.859 25.987,201.859C27.171,201.859 27.763,202.516 27.763,203.828C27.763,204.714 27.32,205.99 26.435,207.656L25.794,208.859C25.791,208.866 25.78,208.887 25.763,208.922C25.746,208.957 25.721,209.007 25.69,209.073L27.68,209.073L27.68,210L24.148,210C24.207,209.868 24.331,209.606 24.518,209.214C24.706,208.821 24.961,208.292 25.284,207.625C25.558,207.042 25.787,206.547 25.971,206.141C26.155,205.734 26.294,205.401 26.388,205.141C26.576,204.62 26.669,204.17 26.669,203.792C26.669,203.125 26.438,202.792 25.977,202.792C25.532,202.792 25.31,203.205 25.31,204.031L25.315,204.49L25.32,204.573Z" style="fill:rgb(158,161,168);fill-rule:nonzero;"/>
        </g>
        <g id="text1157" transform="matrix(0.999952,0,0,1.00005,0,-0.999988)">
            <rect id="path1183" x="11.951" y="212.948" width="1.083" height="8.042" style="fill:rgb(158,161,168);fill-rule:nonzero;"/>
            <path id="path1185" d="M14.285,212.948L15.295,212.948L16.373,216.156C16.686,217.062 16.962,218.029 17.201,219.057C17.114,218.436 17.05,217.873 17.009,217.37C16.967,216.866 16.946,216.392 16.946,215.948L16.946,212.948L18.035,212.948L18.035,220.989L17.019,220.989L15.805,217.37C15.694,217.033 15.588,216.687 15.488,216.333C15.39,215.979 15.3,215.607 15.217,215.219C15.21,215.17 15.198,215.111 15.18,215.042C15.167,214.972 15.149,214.892 15.128,214.802C15.139,214.892 15.147,214.97 15.154,215.036C15.161,215.099 15.167,215.153 15.17,215.198L15.227,216.015L15.285,217.01C15.288,217.066 15.29,217.134 15.29,217.213C15.293,217.293 15.295,217.383 15.295,217.484L15.352,220.989L14.285,220.989L14.285,212.948Z" style="fill:rgb(158,161,168);fill-rule:nonzero;"/>
        </g>
        <g id="text1161" transform="matrix(1,0,0,1,0,-11)">
            <path id="path1177" d="M14.523,292.99L14.523,293.964C14.246,293.828 14.013,293.76 13.826,293.76C13.569,293.76 13.348,293.825 13.164,293.953C12.98,294.078 12.827,294.273 12.706,294.536C12.588,294.8 12.499,295.135 12.44,295.542C12.385,295.944 12.357,296.422 12.357,296.974C12.357,298.96 12.865,299.953 13.883,299.953C14.06,299.953 14.273,299.898 14.523,299.786L14.523,300.781C14.263,300.927 13.971,301 13.648,301C12.02,301 11.206,299.67 11.206,297.01C11.206,295.573 11.404,294.503 11.799,293.802C12.199,293.101 12.808,292.75 13.628,292.75C13.93,292.75 14.228,292.83 14.523,292.99L14.523,292.99Z" style="fill:rgb(158,161,168);fill-rule:nonzero;"/>
            <path id="path1179" d="M14.789,292.859L15.857,292.859L16.341,295.828L16.424,296.365L16.596,297.531C16.624,297.729 16.648,297.91 16.669,298.073C16.694,298.236 16.714,298.384 16.732,298.516L16.784,298.911C16.794,298.832 16.803,298.76 16.81,298.698C16.817,298.635 16.824,298.583 16.831,298.542L16.971,297.609L17.154,296.385C17.171,296.274 17.187,296.172 17.201,296.078C17.218,295.984 17.233,295.901 17.247,295.828L17.768,292.859L18.779,292.859L17.201,300.901L16.341,300.901L14.789,292.859Z" style="fill:rgb(158,161,168);fill-rule:nonzero;"/>
        </g>
        <g id="text1165" transform="matrix(1,0,0,1,0,-11)">
            <path id="path1169" d="M12.635,332.078C12.635,333.498 12.477,334.507 12.161,335.104C11.845,335.701 11.316,336 10.573,336C9.792,336 9.241,335.679 8.922,335.036C8.606,334.408 8.448,333.292 8.448,331.687C8.448,330.257 8.604,329.245 8.917,328.651C9.233,328.054 9.767,327.755 10.521,327.755C11.194,327.755 11.694,327.986 12.021,328.448C12.236,328.757 12.392,329.196 12.49,329.766C12.587,330.293 12.635,331.064 12.635,332.078ZM11.5,332.193C11.5,330.8 11.438,329.877 11.313,329.422C11.188,328.964 10.932,328.734 10.547,328.734C10.161,328.734 9.905,328.944 9.776,329.365C9.651,329.788 9.589,330.639 9.589,331.917C9.589,333.094 9.655,333.91 9.786,334.365C9.922,334.795 10.175,335.01 10.547,335.01C10.911,335.01 11.161,334.809 11.297,334.406C11.432,334.007 11.5,333.269 11.5,332.193L11.5,332.193Z" style="fill:rgb(158,161,168);fill-rule:nonzero;"/>
            <path id="path1171" d="M13.714,327.859L14.776,327.859L14.776,333.542C14.776,334.122 14.828,334.507 14.932,334.698C15.04,334.889 15.252,334.984 15.568,334.984C15.884,334.984 16.092,334.901 16.193,334.734C16.297,334.564 16.349,334.219 16.349,333.698L16.349,327.859L17.411,327.859L17.411,333.698C17.411,334.573 17.278,335.165 17.01,335.474C16.691,335.825 16.203,336 15.547,336C14.825,336 14.316,335.774 14.021,335.323C13.816,335.014 13.714,334.42 13.714,333.542L13.714,327.859Z" style="fill:rgb(158,161,168);fill-rule:nonzero;"/>
            <path id="path1173" d="M18.01,327.859L21.536,327.859L21.536,328.807L20.323,328.807L20.323,335.901L19.26,335.901L19.26,328.807L18.01,328.807L18.01,327.859Z" style="fill:rgb(158,161,168);fill-rule:nonzero;"/>
        </g>
        <g id="text893">
            <path id="path895" d="M14.152,18L5.848,18L9.145,13.602C9.52,13.102 9.835,12.656 10.09,12.266C10.345,11.87 10.546,11.521 10.691,11.219C10.978,10.651 11.121,10.068 11.121,9.469C11.121,9.141 11.053,8.88 10.918,8.688C10.783,8.495 10.598,8.398 10.363,8.398C9.842,8.398 9.582,8.888 9.582,9.867L9.582,10.055C9.587,10.128 9.592,10.214 9.598,10.313L6.434,10.313L6.418,9.875C6.418,8.661 6.793,7.667 7.543,6.891C8.298,6.109 9.264,5.719 10.441,5.719C11.577,5.719 12.504,6.089 13.223,6.828C13.947,7.552 14.309,8.497 14.309,9.664C14.309,10.602 14.061,11.513 13.566,12.398C13.316,12.841 12.991,13.307 12.59,13.797C12.194,14.281 11.712,14.792 11.145,15.328C11.634,15.292 12.126,15.266 12.621,15.25C13.121,15.234 13.632,15.227 14.152,15.227L14.152,18Z" style="fill:rgb(158,161,168);fill-rule:nonzero;"/>
            <path id="path897" d="M15.801,18L15.801,5.938L18.613,5.938C20.223,5.938 21.475,6.37 22.371,7.234C23.548,8.365 24.137,9.945 24.137,11.977C24.137,13.977 23.639,15.521 22.645,16.609C21.796,17.536 20.53,18 18.848,18L15.801,18ZM19.059,15.086C20.225,15.029 20.809,14.023 20.809,12.07C20.809,11.107 20.66,10.346 20.363,9.789C20.066,9.227 19.665,8.945 19.16,8.945L19.059,8.945L19.059,15.086Z" style="fill:rgb(158,161,168);fill-rule:nonzero;"/>
        </g>
    </g>
</svg>
