<?xml version="1.0" encoding="UTF-8" standalone="no"?>
<!DOCTYPE svg PUBLIC "-//W3C//DTD SVG 1.1//EN" "http://www.w3.org/Graphics/SVG/1.1/DTD/svg11.dtd">
<svg width="100%" height="100%" viewBox="0 0 15 380" version="1.1" xmlns="http://www.w3.org/2000/svg" xmlns:xlink="http://www.w3.org/1999/xlink" xml:space="preserve" xmlns:serif="http://www.serif.com/" style="fill-rule:evenodd;clip-rule:evenodd;stroke-linejoin:round;stroke-miterlimit:2;">
    <g id="Layer-2" serif:id="Layer 2">
        <g id="text989">
        </g>
        <rect id="rect4689" x="-0.264" y="0" width="15" height="380" style="fill:rgb(44,45,48);fill-rule:nonzero;"/>
        <g id="path4726" transform="matrix(1,0,0,1,-25.2463,11.1351)">
            <path d="M30,365.865L30,358.14L32.011,358.14L33.067,360.852C33.124,361.012 33.188,361.195 33.259,361.402C33.333,361.609 33.414,361.847 33.502,362.118L33.719,362.798C33.642,362.128 33.583,361.554 33.542,361.077C33.502,360.6 33.482,360.2 33.482,359.876L33.482,358.14L35.493,358.14L35.493,365.865L33.482,365.865L32.42,363.023C32.309,362.72 32.208,362.436 32.117,362.173C32.03,361.906 31.952,361.652 31.885,361.412C31.929,361.956 31.961,362.429 31.981,362.833C32.001,363.237 32.011,363.59 32.011,363.894L32.011,365.865L30,365.865Z" style="fill:rgb(158,161,168);fill-rule:nonzero;"/>
        </g>
        <g id="text4987">
        </g>
        <g id="text1042">
        </g>
        <g id="text1059" transform="matrix(1.33244,0,0,0.976267,-2.25,-63.2174)">
            <path id="path1061" d="M5.561,349.662C5.561,350.72 5.443,351.472 5.207,351.917C4.972,352.363 4.577,352.585 4.023,352.585C3.441,352.585 3.031,352.346 2.792,351.867C2.557,351.399 2.439,350.566 2.439,349.371C2.439,348.304 2.556,347.55 2.789,347.107C3.024,346.662 3.423,346.439 3.984,346.439C4.486,346.439 4.859,346.612 5.102,346.956C5.263,347.186 5.379,347.514 5.452,347.938C5.524,348.331 5.561,348.906 5.561,349.662ZM4.714,349.747C4.714,348.709 4.668,348.021 4.574,347.682C4.481,347.34 4.291,347.169 4.004,347.169C3.716,347.169 3.525,347.326 3.429,347.639C3.336,347.955 3.289,348.589 3.289,349.541C3.289,350.419 3.339,351.027 3.437,351.366C3.538,351.687 3.727,351.848 4.004,351.848C4.276,351.848 4.462,351.697 4.563,351.397C4.664,351.1 4.714,350.55 4.714,349.747L4.714,349.747Z" style="fill:rgb(158,161,168);fill-rule:nonzero;"/>
            <path id="path1063" d="M6.364,346.517L7.156,346.517L7.156,350.753C7.156,351.185 7.195,351.472 7.273,351.615C7.353,351.757 7.511,351.828 7.746,351.828C7.982,351.828 8.137,351.766 8.212,351.642C8.29,351.515 8.329,351.257 8.329,350.869L8.329,346.517L9.121,346.517L9.121,350.869C9.121,351.521 9.021,351.963 8.822,352.193C8.584,352.455 8.22,352.585 7.731,352.585C7.192,352.585 6.813,352.417 6.593,352.081C6.441,351.85 6.364,351.408 6.364,350.753L6.364,346.517Z" style="fill:rgb(158,161,168);fill-rule:nonzero;"/>
            <path id="path1065" d="M9.567,346.517L12.196,346.517L12.196,347.224L11.291,347.224L11.291,352.511L10.499,352.511L10.499,347.224L9.567,347.224L9.567,346.517Z" style="fill:rgb(158,161,168);fill-rule:nonzero;"/>
        </g>
        <g id="text945" transform="matrix(0.870514,0,0,1.06117,0.535714,0.093265)">
            <path id="path947" d="M0.533,16.875L0.533,5.566L6.209,5.566L6.209,8.225L3.587,8.225L3.587,9.873L5.938,9.873L5.938,12.429L3.587,12.429L3.587,14.157L6.209,14.157L6.209,16.875L0.533,16.875Z" style="fill:rgb(158,161,168);fill-rule:nonzero;"/>
            <path id="path949" d="M7.506,16.875L7.506,5.566L10.421,5.566L11.952,9.536C12.035,9.77 12.127,10.039 12.23,10.342C12.337,10.644 12.454,10.993 12.581,11.389L12.896,12.385C12.784,11.404 12.699,10.564 12.64,9.865C12.581,9.167 12.552,8.581 12.552,8.108L12.552,5.566L15.467,5.566L15.467,16.875L12.552,16.875L11.014,12.715C10.853,12.27 10.706,11.855 10.575,11.469C10.448,11.079 10.335,10.708 10.238,10.356C10.301,11.152 10.348,11.845 10.377,12.436C10.406,13.027 10.421,13.545 10.421,13.989L10.421,16.875L7.506,16.875Z" style="fill:rgb(158,161,168);fill-rule:nonzero;"/>
        </g>
        <g id="text954" transform="matrix(1.06559,0,0,0.938447,0,0)">
            <path id="path1037" d="M2.764,20.351L3.418,20.351L4.754,26.583L3.922,26.583L3.688,25.368L2.453,25.368L2.215,26.583L1.408,26.583L2.764,20.351ZM3.567,24.718L3.381,23.726C3.258,23.05 3.157,22.329 3.079,21.562C3.041,21.936 2.993,22.316 2.933,22.7C2.874,23.082 2.804,23.489 2.724,23.919L2.57,24.718L3.567,24.718Z" style="fill:rgb(158,161,168);fill-rule:nonzero;"/>
            <path id="path1041" d="M5.25,20.351L6.356,20.351C6.814,20.351 7.154,20.46 7.377,20.678C7.66,20.961 7.801,21.393 7.801,21.974C7.801,22.42 7.726,22.78 7.575,23.051C7.427,23.321 7.215,23.487 6.937,23.552L8.084,26.583L7.232,26.583L6.09,23.532L6.09,26.583L5.25,26.583L5.25,20.351ZM6.09,23.112C6.415,23.112 6.645,23.037 6.78,22.886C6.915,22.735 6.982,22.481 6.982,22.123C6.982,21.929 6.967,21.764 6.937,21.627C6.911,21.489 6.866,21.378 6.804,21.292C6.745,21.206 6.667,21.142 6.57,21.102C6.476,21.062 6.363,21.041 6.231,21.041L6.09,21.041L6.09,23.112Z" style="fill:rgb(158,161,168);fill-rule:nonzero;"/>
            <path id="path1044" d="M11.809,25.13L11.079,25.13L11.079,23.257L11.264,23.261C11.512,23.261 11.679,23.19 11.765,23.047C11.851,22.905 11.894,22.628 11.894,22.216C11.894,21.737 11.86,21.414 11.793,21.247C11.729,21.064 11.613,20.973 11.446,20.973C11.209,20.973 11.091,21.201 11.091,21.659L11.091,21.909L10.344,21.909L10.348,21.671C10.348,21.429 10.368,21.22 10.409,21.045C10.452,20.871 10.519,20.727 10.611,20.614C10.702,20.501 10.818,20.418 10.958,20.367C11.098,20.314 11.267,20.287 11.466,20.287C11.91,20.287 12.221,20.425 12.399,20.702C12.579,20.971 12.669,21.449 12.669,22.135C12.669,22.757 12.607,23.186 12.483,23.423C12.362,23.66 12.138,23.789 11.809,23.81L11.809,25.13ZM11.45,25.651C11.582,25.651 11.696,25.699 11.793,25.796C11.89,25.893 11.938,26.01 11.938,26.147C11.938,26.285 11.89,26.402 11.793,26.498C11.691,26.593 11.574,26.64 11.442,26.64C11.372,26.64 11.306,26.626 11.244,26.599C11.185,26.575 11.133,26.542 11.087,26.498C11.041,26.453 11.005,26.4 10.978,26.341C10.954,26.279 10.941,26.213 10.941,26.143C10.941,26.006 10.99,25.89 11.087,25.796C11.186,25.699 11.307,25.651 11.45,25.651L11.45,25.651Z" style="fill:rgb(158,161,168);fill-rule:nonzero;"/>
        </g>
        <g id="text958" transform="matrix(1.05959,0,0,0.943765,0,-7.00002)">
            <path id="path1026" d="M0.472,45.646L1.307,45.646L1.307,51.137L2.671,51.137L2.671,51.843L0.472,51.843L0.472,45.646Z" style="fill:rgb(158,161,168);fill-rule:nonzero;"/>
            <path id="path1028" d="M6.304,48.897C6.304,49.992 6.182,50.769 5.938,51.229C5.695,51.69 5.287,51.92 4.714,51.92C4.112,51.92 3.688,51.672 3.442,51.177C3.198,50.693 3.077,49.833 3.077,48.596C3.077,47.494 3.197,46.714 3.438,46.257C3.681,45.796 4.093,45.566 4.674,45.566C5.193,45.566 5.578,45.744 5.83,46.1C5.996,46.338 6.116,46.677 6.191,47.115C6.266,47.522 6.304,48.116 6.304,48.897L6.304,48.897ZM5.429,48.986C5.429,47.913 5.38,47.201 5.284,46.851C5.188,46.497 4.991,46.321 4.694,46.321C4.397,46.321 4.199,46.483 4.1,46.806C4.004,47.133 3.956,47.788 3.956,48.773C3.956,49.68 4.007,50.309 4.108,50.659C4.213,50.991 4.408,51.157 4.694,51.157C4.975,51.157 5.168,51.002 5.272,50.692C5.376,50.384 5.429,49.815 5.429,48.986L5.429,48.986Z" style="fill:rgb(158,161,168);fill-rule:nonzero;"/>
            <path id="path1031" d="M10.237,48.897C10.237,49.992 10.115,50.769 9.872,51.229C9.628,51.69 9.22,51.92 8.648,51.92C8.046,51.92 7.621,51.672 7.375,51.177C7.132,50.693 7.01,49.833 7.01,48.596C7.01,47.494 7.13,46.714 7.371,46.257C7.615,45.796 8.027,45.566 8.607,45.566C9.127,45.566 9.512,45.744 9.763,46.1C9.929,46.338 10.05,46.677 10.125,47.115C10.199,47.522 10.237,48.116 10.237,48.897ZM9.362,48.986C9.362,47.913 9.314,47.201 9.217,46.851C9.121,46.497 8.924,46.321 8.627,46.321C8.33,46.321 8.132,46.483 8.033,46.806C7.937,47.133 7.889,47.788 7.889,48.773C7.889,49.68 7.94,50.309 8.042,50.659C8.146,50.991 8.341,51.157 8.627,51.157C8.908,51.157 9.101,51.002 9.205,50.692C9.31,50.384 9.362,49.815 9.362,48.986L9.362,48.986Z" style="fill:rgb(158,161,168);fill-rule:nonzero;"/>
            <path id="path1033" d="M11.068,45.646L12.167,45.646C12.697,45.646 13.083,45.78 13.323,46.048C13.564,46.318 13.685,46.746 13.685,47.332C13.685,48.156 13.442,48.689 12.958,48.93C12.715,49.039 12.363,49.094 11.903,49.094L11.903,51.843L11.068,51.843L11.068,45.646ZM11.903,48.38C12.248,48.38 12.486,48.31 12.617,48.171C12.751,48.029 12.818,47.778 12.818,47.416C12.818,47.047 12.753,46.777 12.625,46.606C12.497,46.434 12.295,46.349 12.019,46.349L11.903,46.349L11.903,48.38Z" style="fill:rgb(158,161,168);fill-rule:nonzero;"/>
        </g>
        <g id="text962" transform="matrix(1.06747,0,0,0.936798,0,-14)">
            <path id="path1016" d="M2.558,74.565L4.087,74.565L4.087,74.808C4.087,76.023 3.98,76.844 3.767,77.27C3.557,77.707 3.163,77.925 2.586,77.925C1.991,77.925 1.566,77.682 1.313,77.197C1.062,76.712 0.937,75.897 0.937,74.751C0.937,73.441 1.074,72.569 1.349,72.135C1.608,71.728 2.006,71.524 2.542,71.524C2.952,71.524 3.271,71.623 3.5,71.82C3.732,72.019 3.913,72.347 4.042,72.802L3.258,73.13C3.223,72.965 3.184,72.828 3.14,72.717C3.097,72.604 3.05,72.516 2.999,72.454C2.896,72.328 2.743,72.264 2.538,72.264C2.258,72.264 2.066,72.437 1.964,72.782C1.861,73.143 1.81,73.791 1.81,74.727C1.81,75.673 1.863,76.313 1.968,76.647C2.073,76.982 2.271,77.149 2.562,77.149C2.829,77.149 3.016,77.03 3.124,76.793C3.235,76.539 3.29,76.132 3.29,75.572L3.29,75.402L3.29,75.277L2.558,75.277L2.558,74.565Z" style="fill:rgb(158,161,168);fill-rule:nonzero;"/>
            <path id="path1018" d="M5.817,71.605L6.472,71.605L7.81,77.848L6.977,77.848L6.743,76.631L5.506,76.631L5.267,77.848L4.459,77.848L5.817,71.605ZM6.622,75.98L6.436,74.986C6.312,74.309 6.211,73.587 6.132,72.818C6.095,73.193 6.046,73.573 5.987,73.959C5.928,74.341 5.857,74.748 5.777,75.18L5.623,75.98L6.622,75.98Z" style="fill:rgb(158,161,168);fill-rule:nonzero;"/>
            <path id="path1020" d="M7.681,71.605L10.418,71.605L10.418,72.341L9.476,72.341L9.476,77.848L8.651,77.848L8.651,72.341L7.681,72.341L7.681,71.605Z" style="fill:rgb(158,161,168);fill-rule:nonzero;"/>
            <path id="path1022" d="M10.879,71.605L13.115,71.605L13.115,72.317L11.72,72.317L11.72,74.294L12.957,74.294L12.957,75.006L11.72,75.006L11.72,77.137L13.115,77.137L13.115,77.848L10.879,77.848L10.879,71.605Z" style="fill:rgb(158,161,168);fill-rule:nonzero;"/>
        </g>
        <g id="text966" transform="matrix(1.04725,0,0,0.95488,0,-1.79733e-05)">
            <path id="path1007" d="M1.81,95.383L2.453,95.383L3.766,101.508L2.949,101.508L2.719,100.314L1.505,100.314L1.271,101.508L0.477,101.508L1.81,95.383ZM2.6,99.675L2.417,98.699C2.296,98.036 2.196,97.327 2.12,96.573C2.083,96.941 2.035,97.314 1.977,97.692C1.919,98.067 1.85,98.467 1.771,98.89L1.62,99.675L2.6,99.675Z" style="fill:rgb(158,161,168);fill-rule:nonzero;"/>
            <path id="path1009" d="M4.254,95.383L5.269,95.383C5.579,95.383 5.839,95.418 6.051,95.486C6.247,95.552 6.421,95.67 6.575,95.839C6.805,96.093 6.969,96.424 7.066,96.831C7.164,97.225 7.213,97.79 7.213,98.525C7.213,99.199 7.159,99.749 7.051,100.175C6.945,100.582 6.77,100.893 6.527,101.107C6.228,101.374 5.693,101.508 4.92,101.508L4.254,101.508L4.254,95.383ZM5.079,100.786C5.581,100.786 5.917,100.634 6.087,100.33C6.261,100.026 6.348,99.435 6.348,98.557C6.348,97.613 6.265,96.963 6.098,96.609C5.932,96.255 5.626,96.077 5.182,96.077L5.079,96.077L5.079,100.786Z" style="fill:rgb(158,161,168);fill-rule:nonzero;"/>
            <path id="path1011" d="M10.073,95.51L10.073,96.315C9.822,96.136 9.596,96.046 9.395,96.046C9.178,96.046 9.001,96.122 8.863,96.276C8.726,96.421 8.657,96.616 8.657,96.859C8.657,97.073 8.706,97.257 8.804,97.41C8.854,97.492 8.936,97.598 9.05,97.728C9.166,97.857 9.316,98.013 9.498,98.196C9.834,98.537 10.063,98.832 10.184,99.08C10.306,99.321 10.367,99.616 10.367,99.965C10.367,100.438 10.233,100.828 9.966,101.135C9.699,101.434 9.357,101.583 8.939,101.583C8.587,101.583 8.287,101.487 8.038,101.294L8.038,100.477C8.332,100.691 8.599,100.798 8.84,100.798C9.064,100.798 9.24,100.724 9.367,100.576C9.494,100.425 9.558,100.221 9.558,99.965C9.558,99.743 9.509,99.543 9.411,99.366C9.361,99.281 9.29,99.185 9.201,99.076C9.111,98.965 8.998,98.842 8.863,98.707C8.654,98.501 8.481,98.319 8.344,98.16C8.206,98.001 8.104,97.862 8.038,97.743C7.911,97.511 7.848,97.217 7.848,96.863C7.848,96.384 7.972,96.005 8.221,95.724C8.472,95.441 8.809,95.3 9.232,95.3C9.526,95.3 9.806,95.37 10.073,95.51L10.073,95.51Z" style="fill:rgb(158,161,168);fill-rule:nonzero;"/>
            <path id="path1013" d="M11.061,95.383L12.148,95.383C12.598,95.383 12.932,95.49 13.152,95.704C13.429,95.982 13.568,96.407 13.568,96.978C13.568,97.417 13.494,97.77 13.346,98.037C13.2,98.301 12.992,98.465 12.719,98.529L13.846,101.508L13.009,101.508L11.886,98.509L11.886,101.508L11.061,101.508L11.061,95.383ZM11.886,98.097C12.206,98.097 12.432,98.022 12.564,97.874C12.697,97.726 12.763,97.476 12.763,97.125C12.763,96.934 12.748,96.772 12.719,96.637C12.693,96.502 12.649,96.392 12.588,96.307C12.53,96.223 12.453,96.161 12.358,96.121C12.266,96.081 12.155,96.062 12.025,96.062L11.886,96.062L11.886,98.097Z" style="fill:rgb(158,161,168);fill-rule:nonzero;"/>
        </g>
        <g id="text970" transform="matrix(0.997439,0,0,1.00257,0,88)">
            <path id="path996" d="M2.621,162.783L2.621,163.55C2.382,163.379 2.166,163.293 1.975,163.293C1.768,163.293 1.599,163.366 1.468,163.512C1.338,163.651 1.272,163.836 1.272,164.067C1.272,164.271 1.319,164.447 1.412,164.593C1.46,164.671 1.538,164.771 1.646,164.895C1.757,165.018 1.899,165.167 2.073,165.341C2.393,165.666 2.611,165.946 2.727,166.183C2.842,166.412 2.9,166.693 2.9,167.026C2.9,167.477 2.773,167.848 2.519,168.14C2.264,168.425 1.938,168.567 1.54,168.567C1.205,168.567 0.919,168.475 0.683,168.291L0.683,167.513C0.962,167.717 1.217,167.819 1.446,167.819C1.66,167.819 1.827,167.749 1.948,167.608C2.069,167.464 2.13,167.27 2.13,167.026C2.13,166.814 2.083,166.624 1.99,166.455C1.942,166.375 1.875,166.283 1.79,166.179C1.704,166.074 1.597,165.957 1.468,165.828C1.27,165.632 1.105,165.458 0.974,165.307C0.843,165.156 0.746,165.023 0.683,164.91C0.562,164.688 0.501,164.409 0.501,164.071C0.501,163.615 0.62,163.254 0.856,162.987C1.096,162.717 1.417,162.583 1.82,162.583C2.099,162.583 2.366,162.649 2.621,162.783L2.621,162.783Z" style="fill:rgb(158,161,168);fill-rule:nonzero;"/>
            <path id="path998" d="M5.851,162.756L5.851,163.463C5.65,163.365 5.481,163.316 5.345,163.316C5.159,163.316 4.999,163.362 4.865,163.455C4.732,163.546 4.621,163.687 4.533,163.879C4.447,164.07 4.383,164.313 4.34,164.608C4.3,164.9 4.279,165.246 4.279,165.647C4.279,167.087 4.648,167.808 5.386,167.808C5.515,167.808 5.67,167.768 5.851,167.687L5.851,168.409C5.662,168.514 5.451,168.567 5.216,168.567C4.035,168.567 3.444,167.603 3.444,165.673C3.444,164.63 3.588,163.855 3.875,163.346C4.165,162.837 4.607,162.583 5.201,162.583C5.42,162.583 5.637,162.641 5.851,162.756L5.851,162.756Z" style="fill:rgb(158,161,168);fill-rule:nonzero;"/>
            <path id="path1000" d="M7.551,162.662L8.163,162.662L9.414,168.495L8.636,168.495L8.417,167.358L7.26,167.358L7.038,168.495L6.282,168.495L7.551,162.662ZM8.303,166.75L8.129,165.821C8.014,165.188 7.919,164.513 7.846,163.795C7.811,164.146 7.765,164.501 7.71,164.861C7.655,165.219 7.589,165.599 7.514,166.002L7.37,166.75L8.303,166.75Z" style="fill:rgb(158,161,168);fill-rule:nonzero;"/>
            <path id="path1002" d="M9.879,162.662L10.665,162.662L10.665,167.831L11.949,167.831L11.949,168.495L9.879,168.495L9.879,162.662Z" style="fill:rgb(158,161,168);fill-rule:nonzero;"/>
            <path id="path1004" d="M12.448,162.662L14.537,162.662L14.537,163.327L13.234,163.327L13.234,165.174L14.39,165.174L14.39,165.839L13.234,165.839L13.234,167.831L14.537,167.831L14.537,168.495L12.448,168.495L12.448,162.662Z" style="fill:rgb(158,161,168);fill-rule:nonzero;"/>
        </g>
        <g id="text974" transform="matrix(1.09454,0,0,0.913625,0,88)">
            <path id="path989" d="M1.827,231.035L2.677,231.035L3.063,233.398L3.129,233.825L3.266,234.754C3.288,234.912 3.307,235.055 3.324,235.185C3.343,235.315 3.36,235.433 3.374,235.538L3.415,235.853C3.423,235.789 3.43,235.733 3.436,235.683C3.441,235.633 3.447,235.592 3.452,235.558L3.564,234.816L3.71,233.842C3.723,233.754 3.736,233.672 3.747,233.597C3.761,233.523 3.773,233.456 3.784,233.398L4.199,231.035L5.003,231.035L3.747,237.437L3.063,237.437L1.827,231.035Z" style="fill:rgb(158,161,168);fill-rule:nonzero;"/>
            <path id="path991" d="M7.967,231.139L7.967,231.914C7.746,231.806 7.561,231.752 7.412,231.752C7.207,231.752 7.032,231.804 6.885,231.906C6.739,232.005 6.617,232.16 6.521,232.37C6.427,232.58 6.356,232.847 6.309,233.17C6.265,233.491 6.243,233.871 6.243,234.311C6.243,235.892 6.648,236.682 7.458,236.682C7.598,236.682 7.768,236.638 7.967,236.549L7.967,237.341C7.76,237.457 7.528,237.515 7.271,237.515C5.975,237.515 5.326,236.457 5.326,234.34C5.326,233.195 5.484,232.344 5.799,231.786C6.117,231.227 6.602,230.948 7.254,230.948C7.495,230.948 7.733,231.012 7.967,231.139L7.967,231.139Z" style="fill:rgb(158,161,168);fill-rule:nonzero;"/>
            <path id="path993" d="M9.833,231.035L10.505,231.035L11.877,237.437L11.023,237.437L10.783,236.189L9.514,236.189L9.269,237.437L8.44,237.437L9.833,231.035ZM10.658,235.521L10.467,234.501C10.34,233.807 10.237,233.067 10.157,232.279C10.118,232.663 10.068,233.053 10.007,233.448C9.946,233.841 9.875,234.258 9.792,234.7L9.634,235.521L10.658,235.521Z" style="fill:rgb(158,161,168);fill-rule:nonzero;"/>
        </g>
        <g id="text978" transform="matrix(1.06445,0,0,0.939455,0,88)">
            <path id="path981" d="M2.349,267.261L4.578,267.261L4.578,267.97L3.187,267.97L3.187,269.942L4.421,269.942L4.421,270.652L3.187,270.652L3.187,272.777L4.578,272.777L4.578,273.486L2.349,273.486L2.349,267.261Z" style="fill:rgb(158,161,168);fill-rule:nonzero;"/>
            <path id="path983" d="M8.465,270.527C8.465,271.626 8.343,272.407 8.098,272.869C7.854,273.332 7.444,273.563 6.869,273.563C6.264,273.563 5.838,273.314 5.59,272.817C5.346,272.33 5.223,271.466 5.223,270.224C5.223,269.117 5.344,268.333 5.586,267.874C5.831,267.411 6.245,267.18 6.828,267.18C7.35,267.18 7.737,267.359 7.989,267.716C8.156,267.956 8.277,268.296 8.352,268.737C8.428,269.145 8.465,269.742 8.465,270.527L8.465,270.527ZM7.586,270.615C7.586,269.538 7.538,268.823 7.441,268.47C7.344,268.116 7.147,267.938 6.848,267.938C6.55,267.938 6.351,268.101 6.252,268.426C6.155,268.754 6.106,269.413 6.106,270.402C6.106,271.313 6.158,271.945 6.26,272.297C6.365,272.63 6.561,272.797 6.848,272.797C7.131,272.797 7.324,272.641 7.429,272.329C7.534,272.02 7.586,271.449 7.586,270.615L7.586,270.615Z" style="fill:rgb(158,161,168);fill-rule:nonzero;"/>
            <path id="path985" d="M11.743,267.362L11.743,268.116C11.528,268.011 11.348,267.958 11.203,267.958C11.004,267.958 10.833,268.008 10.691,268.108C10.548,268.204 10.43,268.355 10.336,268.559C10.245,268.763 10.176,269.023 10.13,269.337C10.087,269.649 10.066,270.019 10.066,270.446C10.066,271.984 10.46,272.752 11.247,272.752C11.384,272.752 11.55,272.709 11.743,272.623L11.743,273.393C11.542,273.506 11.316,273.563 11.066,273.563C9.805,273.563 9.175,272.533 9.175,270.474C9.175,269.361 9.328,268.534 9.634,267.991C9.944,267.448 10.415,267.176 11.05,267.176C11.284,267.176 11.515,267.238 11.743,267.362L11.743,267.362Z" style="fill:rgb(158,161,168);fill-rule:nonzero;"/>
        </g>
        <g id="text1049" transform="matrix(1.10787,0,0,0.902633,0,-1.79733e-05)">
            <path id="path1054" d="M2.708,251.655L3.581,251.655L3.581,257.395L5.007,257.395L5.007,258.134L2.708,258.134L2.708,251.655Z" style="fill:rgb(158,161,168);fill-rule:nonzero;"/>
            <path id="path1056" d="M4.844,251.655L5.704,251.655L6.094,254.047L6.161,254.479L6.3,255.419C6.322,255.578 6.342,255.724 6.359,255.855C6.378,255.987 6.395,256.105 6.409,256.212L6.451,256.531C6.459,256.466 6.466,256.409 6.472,256.359C6.477,256.308 6.483,256.266 6.489,256.233L6.602,255.482L6.749,254.496C6.763,254.406 6.775,254.323 6.787,254.248C6.801,254.172 6.813,254.105 6.824,254.047L7.244,251.655L8.058,251.655L6.787,258.134L6.094,258.134L4.844,251.655Z" style="fill:rgb(158,161,168);fill-rule:nonzero;"/>
            <path id="path1058" d="M8.532,251.655L9.405,251.655L9.405,257.395L10.832,257.395L10.832,258.134L8.532,258.134L8.532,251.655Z" style="fill:rgb(158,161,168);fill-rule:nonzero;"/>
        </g>
    </g>
</svg>
