<?xml version="1.0" encoding="UTF-8" standalone="no"?>
<!DOCTYPE svg PUBLIC "-//W3C//DTD SVG 1.1//EN" "http://www.w3.org/Graphics/SVG/1.1/DTD/svg11.dtd">
<svg width="100%" height="100%" viewBox="0 0 105 380" version="1.1" xmlns="http://www.w3.org/2000/svg" xmlns:xlink="http://www.w3.org/1999/xlink" xml:space="preserve" xmlns:serif="http://www.serif.com/" style="fill-rule:evenodd;clip-rule:evenodd;stroke-linejoin:round;stroke-miterlimit:2;">
    <g id="Layer-2" serif:id="Layer 2">
        <rect id="rect4689" x="0" y="0" width="105" height="380" style="fill:rgb(44,45,48);"/>
        <g id="text989">
        </g>
        <g id="text80" transform="matrix(1.00498,0,0,0.995047,7.49999,4.99997)">
            <path id="path4726" d="M29.851,371.706L29.851,363.943L31.853,363.943L32.903,366.668C32.96,366.829 33.024,367.013 33.094,367.221C33.168,367.429 33.249,367.668 33.336,367.94L33.552,368.624C33.475,367.95 33.416,367.373 33.376,366.894C33.336,366.415 33.316,366.013 33.316,365.687L33.316,363.943L35.317,363.943L35.317,371.706L33.316,371.706L32.26,368.85C32.149,368.545 32.049,368.26 31.958,367.995C31.871,367.727 31.794,367.472 31.727,367.231C31.77,367.777 31.802,368.253 31.822,368.659C31.843,369.065 31.853,369.42 31.853,369.725L31.853,371.706L29.851,371.706Z" style="fill:rgb(158,161,168);fill-rule:nonzero;"/>
            <path id="path4728" d="M39.887,371.706L37.791,371.706L37.791,368.418L35.865,363.943L38.052,363.943L38.429,365.094C38.503,365.319 38.568,365.535 38.625,365.743C38.686,365.951 38.739,366.15 38.786,366.341C38.863,366.056 38.93,365.811 38.987,365.607C39.044,365.399 39.095,365.232 39.138,365.104L39.52,363.943L41.692,363.943L39.887,368.418L39.887,371.706Z" style="fill:rgb(158,161,168);fill-rule:nonzero;"/>
            <path id="path4730" d="M41.894,371.515L41.894,369.076C42.306,369.639 42.752,369.921 43.231,369.921C43.412,369.921 43.56,369.874 43.673,369.78C43.787,369.683 43.844,369.562 43.844,369.418C43.844,369.21 43.72,369.008 43.472,368.81L43.13,368.543C42.902,368.372 42.708,368.203 42.547,368.035C42.386,367.865 42.256,367.69 42.155,367.513C42.054,367.332 41.981,367.146 41.934,366.954C41.887,366.763 41.863,366.562 41.863,366.351C41.863,365.989 41.947,365.61 42.115,365.215C42.199,365.03 42.296,364.863 42.406,364.712C42.517,364.558 42.644,364.422 42.789,364.305C43.184,363.969 43.662,363.802 44.222,363.802C44.721,363.802 45.224,363.934 45.73,364.199L45.73,366.572C45.559,366.308 45.365,366.1 45.147,365.949C44.929,365.795 44.714,365.718 44.503,365.718C44.342,365.718 44.21,365.765 44.106,365.858C43.999,365.949 43.945,366.058 43.945,366.185C43.945,366.393 44.087,366.599 44.372,366.804L44.704,367.05C45.147,367.368 45.463,367.695 45.655,368.03C45.849,368.366 45.946,368.758 45.946,369.207C45.946,369.971 45.713,370.601 45.247,371.098C44.781,371.594 44.191,371.842 43.477,371.842C42.985,371.842 42.457,371.733 41.894,371.515L41.894,371.515Z" style="fill:rgb(158,161,168);fill-rule:nonzero;"/>
            <path id="path4732" d="M49.576,371.706L47.48,371.706L47.48,365.803L46.323,365.803L46.323,363.943L50.778,363.943L50.778,365.803L49.576,365.803L49.576,371.706Z" style="fill:rgb(158,161,168);fill-rule:nonzero;"/>
            <path id="path4734" d="M56.525,371.706L54.428,371.706L54.428,368.584L53.428,368.584L53.428,371.706L51.331,371.706L51.331,363.943L53.428,363.943L53.428,366.688L54.428,366.688L54.428,363.943L56.525,363.943L56.525,371.706Z" style="fill:rgb(158,161,168);fill-rule:nonzero;"/>
            <rect id="path4736" x="57.606" y="363.943" width="2.097" height="7.763" style="fill:rgb(158,161,168);fill-rule:nonzero;"/>
        </g>
        <g id="text4987">
        </g>
        <g id="text1134" transform="matrix(1,0,0,1,-11.1836,64)">
            <path id="path1157" d="M19.418,170.221C19.418,171.997 19.22,173.257 18.826,174.004C18.431,174.75 17.769,175.124 16.84,175.124C15.863,175.124 15.175,174.722 14.776,173.919C14.381,173.134 14.184,171.738 14.184,169.733C14.184,167.945 14.379,166.68 14.77,165.937C15.164,165.191 15.833,164.818 16.775,164.818C17.617,164.818 18.242,165.106 18.65,165.684C18.919,166.07 19.114,166.619 19.236,167.331C19.357,167.99 19.418,168.954 19.418,170.221L19.418,170.221ZM17.999,170.365C17.999,168.624 17.921,167.47 17.764,166.901C17.608,166.328 17.289,166.042 16.807,166.042C16.326,166.042 16.004,166.304 15.844,166.829C15.687,167.359 15.609,168.422 15.609,170.02C15.609,171.491 15.692,172.511 15.857,173.079C16.026,173.618 16.343,173.887 16.807,173.887C17.263,173.887 17.576,173.635 17.745,173.132C17.914,172.632 17.999,171.71 17.999,170.365L17.999,170.365Z" style="fill:rgb(158,161,168);fill-rule:nonzero;"/>
            <path id="path1159" d="M24.711,165.111L24.711,166.328C24.364,166.159 24.073,166.074 23.839,166.074C23.517,166.074 23.242,166.154 23.012,166.315C22.782,166.471 22.591,166.714 22.439,167.044C22.291,167.374 22.181,167.793 22.107,168.301C22.037,168.804 22.003,169.401 22.003,170.091C22.003,172.574 22.638,173.815 23.91,173.815C24.132,173.815 24.398,173.746 24.711,173.607L24.711,174.85C24.385,175.033 24.021,175.124 23.617,175.124C21.582,175.124 20.564,173.461 20.564,170.137C20.564,168.34 20.811,167.003 21.306,166.126C21.805,165.25 22.567,164.811 23.591,164.811C23.969,164.811 24.342,164.911 24.711,165.111L24.711,165.111Z" style="fill:rgb(158,161,168);fill-rule:nonzero;"/>
            <path id="path1161" d="M25.043,164.948L29.451,164.948L29.451,166.133L27.934,166.133L27.934,175L26.605,175L26.605,166.133L25.043,166.133L25.043,164.948Z" style="fill:rgb(158,161,168);fill-rule:nonzero;"/>
            <path id="path1163" d="M31.443,164.948L32.497,164.948L34.652,175L33.311,175L32.934,173.04L30.941,173.04L30.557,175L29.255,175L31.443,164.948ZM32.738,171.992L32.439,170.391C32.239,169.301 32.076,168.138 31.951,166.901C31.89,167.504 31.812,168.116 31.716,168.737C31.621,169.353 31.508,170.009 31.378,170.703L31.13,171.992L32.738,171.992Z" style="fill:rgb(158,161,168);fill-rule:nonzero;"/>
            <path id="path1165" d="M34.418,164.948L35.753,164.948L36.358,168.659L36.462,169.329L36.677,170.788C36.712,171.035 36.742,171.261 36.768,171.465C36.799,171.669 36.825,171.853 36.846,172.018L36.911,172.513C36.924,172.413 36.935,172.324 36.944,172.246C36.953,172.168 36.961,172.103 36.97,172.051L37.146,170.885L37.374,169.355C37.395,169.217 37.415,169.089 37.432,168.971C37.454,168.854 37.474,168.75 37.491,168.659L38.142,164.948L39.405,164.948L37.432,175L36.358,175L34.418,164.948Z" style="fill:rgb(158,161,168);fill-rule:nonzero;"/>
            <path id="path1167" d="M40.141,164.948L43.741,164.948L43.741,166.094L41.495,166.094L41.495,169.277L43.487,169.277L43.487,170.423L41.495,170.423L41.495,173.854L43.741,173.854L43.741,175L40.141,175L40.141,164.948Z" style="fill:rgb(158,161,168);fill-rule:nonzero;"/>
        </g>
        <g id="text1142" transform="matrix(1,0,0,1,42.8672,38.9935)">
            <path id="path1144" d="M12.133,189.948L16.54,189.948L16.54,191.133L15.023,191.133L15.023,200L13.695,200L13.695,191.133L12.133,191.133L12.133,189.948Z" style="fill:rgb(158,161,168);fill-rule:nonzero;"/>
            <path id="path1146" d="M17.283,189.948L18.611,189.948L18.611,197.051C18.611,197.776 18.676,198.257 18.806,198.496C18.941,198.735 19.205,198.854 19.6,198.854C19.995,198.854 20.256,198.75 20.382,198.542C20.512,198.329 20.577,197.897 20.577,197.246L20.577,189.948L21.905,189.948L21.905,197.246C21.905,198.34 21.738,199.08 21.404,199.466C21.004,199.905 20.395,200.124 19.574,200.124C18.671,200.124 18.036,199.842 17.667,199.277C17.411,198.891 17.283,198.149 17.283,197.051L17.283,189.948Z" style="fill:rgb(158,161,168);fill-rule:nonzero;"/>
            <path id="path1148" d="M23.454,189.948L24.717,189.948L26.065,193.958C26.456,195.091 26.801,196.3 27.1,197.585C26.992,196.808 26.911,196.105 26.859,195.475C26.807,194.846 26.781,194.253 26.781,193.698L26.781,189.948L28.142,189.948L28.142,200L26.872,200L25.355,195.475C25.217,195.054 25.084,194.622 24.958,194.18C24.837,193.737 24.724,193.273 24.62,192.786C24.611,192.726 24.596,192.652 24.574,192.565C24.557,192.478 24.535,192.378 24.509,192.266C24.522,192.378 24.533,192.476 24.542,192.559C24.55,192.637 24.557,192.704 24.561,192.76L24.633,193.783L24.704,195.026C24.709,195.095 24.711,195.18 24.711,195.28C24.715,195.38 24.717,195.493 24.717,195.618L24.789,200L23.454,200L23.454,189.948Z" style="fill:rgb(158,161,168);fill-rule:nonzero;"/>
            <rect id="path1150" x="29.704" y="189.948" width="1.354" height="10.052" style="fill:rgb(158,161,168);fill-rule:nonzero;"/>
            <path id="path1152" d="M32.621,189.948L33.884,189.948L35.232,193.958C35.622,195.091 35.967,196.3 36.267,197.585C36.158,196.808 36.078,196.105 36.026,195.475C35.974,194.846 35.948,194.253 35.948,193.698L35.948,189.948L37.309,189.948L37.309,200L36.039,200L34.522,195.475C34.383,195.054 34.251,194.622 34.125,194.18C34.003,193.737 33.891,193.273 33.786,192.786C33.778,192.726 33.763,192.652 33.741,192.565C33.724,192.478 33.702,192.378 33.676,192.266C33.689,192.378 33.7,192.476 33.708,192.559C33.717,192.637 33.724,192.704 33.728,192.76L33.799,193.783L33.871,195.026C33.875,195.095 33.878,195.18 33.878,195.28C33.882,195.38 33.884,195.493 33.884,195.618L33.956,200L32.621,200L32.621,189.948Z" style="fill:rgb(158,161,168);fill-rule:nonzero;"/>
            <path id="path1154" d="M41.28,194.714L43.741,194.714L43.741,195.104C43.741,197.062 43.569,198.383 43.227,199.069C42.888,199.772 42.254,200.124 41.326,200.124C40.366,200.124 39.683,199.733 39.275,198.952C38.871,198.171 38.669,196.858 38.669,195.013C38.669,192.904 38.891,191.5 39.333,190.801C39.75,190.145 40.39,189.818 41.254,189.818C41.914,189.818 42.428,189.976 42.797,190.293C43.17,190.614 43.461,191.141 43.669,191.875L42.406,192.402C42.35,192.138 42.287,191.916 42.217,191.738C42.148,191.556 42.072,191.415 41.99,191.315C41.825,191.111 41.577,191.009 41.247,191.009C40.796,191.009 40.488,191.287 40.323,191.842C40.158,192.424 40.076,193.468 40.076,194.974C40.076,196.497 40.16,197.528 40.329,198.066C40.499,198.605 40.818,198.874 41.286,198.874C41.716,198.874 42.018,198.683 42.191,198.301C42.369,197.893 42.458,197.237 42.458,196.335L42.458,196.061L42.458,195.859L41.28,195.859L41.28,194.714Z" style="fill:rgb(158,161,168);fill-rule:nonzero;"/>
        </g>
        <g id="text879" transform="matrix(1,0,0,1,0,84)">
            <path id="path885" d="M10.661,25.501L11.904,25.501L11.904,26.335C12.247,25.705 12.703,25.391 13.271,25.391C13.892,25.391 14.313,25.705 14.535,26.335C14.864,25.705 15.333,25.391 15.941,25.391C16.414,25.391 16.774,25.516 17.021,25.768C17.273,26.016 17.399,26.382 17.399,26.868L17.399,32.24L16.149,32.24L16.149,27.806C16.149,27.298 16.101,26.957 16.006,26.784C15.915,26.606 15.737,26.517 15.472,26.517C15.173,26.517 14.969,26.608 14.86,26.79C14.756,26.968 14.704,27.307 14.704,27.806L14.704,32.24L13.415,32.24L13.415,27.806C13.415,27.567 13.402,27.365 13.376,27.201C13.354,27.036 13.315,26.903 13.258,26.803C13.202,26.704 13.128,26.632 13.037,26.589C12.946,26.541 12.833,26.517 12.699,26.517C12.412,26.517 12.208,26.615 12.087,26.81C11.965,27.005 11.904,27.337 11.904,27.806L11.904,32.24L10.661,32.24L10.661,25.501Z" style="fill:rgb(158,161,168);fill-rule:nonzero;"/>
            <path id="path887" d="M18.812,25.501L20.062,25.501L20.062,32.24L18.812,32.24L18.812,25.501ZM19.398,22.637C19.623,22.637 19.819,22.719 19.984,22.884C20.149,23.049 20.231,23.247 20.231,23.477C20.231,23.711 20.149,23.911 19.984,24.076C19.819,24.24 19.619,24.323 19.385,24.323C19.15,24.323 18.951,24.24 18.786,24.076C18.625,23.915 18.545,23.713 18.545,23.47C18.545,23.244 18.627,23.049 18.792,22.884C18.97,22.719 19.172,22.637 19.398,22.637Z" style="fill:rgb(158,161,168);fill-rule:nonzero;"/>
            <path id="path889" d="M25.316,21.178L25.316,32.24L24.072,32.24L24.072,31.374C23.894,31.743 23.716,31.997 23.538,32.135C23.36,32.274 23.124,32.344 22.829,32.344C22.273,32.344 21.865,32.059 21.605,31.491C21.344,30.918 21.214,30.02 21.214,28.796C21.214,28.205 21.247,27.695 21.312,27.266C21.377,26.836 21.475,26.482 21.605,26.204C21.739,25.927 21.911,25.723 22.119,25.592C22.327,25.458 22.575,25.391 22.861,25.391C23.135,25.391 23.36,25.456 23.538,25.586C23.625,25.647 23.714,25.734 23.805,25.846C23.896,25.959 23.985,26.098 24.072,26.263L24.072,21.178L25.316,21.178ZM22.503,28.841C22.503,29.727 22.562,30.345 22.679,30.697C22.801,31.048 23.013,31.224 23.317,31.224C23.595,31.224 23.797,31.042 23.923,30.677C24.048,30.286 24.111,29.685 24.111,28.874C24.111,28.058 24.048,27.454 23.923,27.064C23.797,26.699 23.595,26.517 23.317,26.517C23.022,26.517 22.811,26.691 22.686,27.038C22.564,27.359 22.503,27.96 22.503,28.841L22.503,28.841Z" style="fill:rgb(158,161,168);fill-rule:nonzero;"/>
            <path id="path891" d="M26.729,25.501L27.979,25.501L27.979,32.24L26.729,32.24L26.729,25.501ZM27.314,22.637C27.54,22.637 27.735,22.719 27.9,22.884C28.065,23.049 28.148,23.247 28.148,23.477C28.148,23.711 28.065,23.911 27.9,24.076C27.735,24.24 27.536,24.323 27.301,24.323C27.067,24.323 26.867,24.24 26.702,24.076C26.542,23.915 26.462,23.713 26.462,23.47C26.462,23.244 26.544,23.049 26.709,22.884C26.887,22.719 27.089,22.637 27.314,22.637Z" style="fill:rgb(158,161,168);fill-rule:nonzero;"/>
            <path id="path893" d="M29.385,25.501L30.628,25.501L30.628,26.276C30.984,25.686 31.444,25.391 32.008,25.391C32.555,25.391 32.946,25.605 33.18,26.035C33.311,26.278 33.376,26.749 33.376,27.448L33.376,32.24L32.132,32.24L32.126,27.734C32.126,27.279 32.071,26.955 31.963,26.764C31.854,26.573 31.668,26.478 31.403,26.478C31.26,26.478 31.138,26.504 31.038,26.556C30.943,26.604 30.865,26.684 30.804,26.797C30.743,26.905 30.698,27.049 30.667,27.227C30.641,27.405 30.628,27.624 30.628,27.884L30.628,32.24L29.385,32.24L29.385,25.501Z" style="fill:rgb(158,161,168);fill-rule:nonzero;"/>
            <path id="path895" d="M38.753,28.926C38.753,31.204 38.048,32.344 36.637,32.344C35.227,32.344 34.521,31.187 34.521,28.874C34.521,26.552 35.225,25.391 36.631,25.391C36.995,25.391 37.31,25.46 37.575,25.599C37.844,25.738 38.065,25.953 38.239,26.243C38.413,26.534 38.541,26.901 38.623,27.344C38.71,27.786 38.753,28.314 38.753,28.926ZM37.464,28.893C37.464,28.008 37.406,27.392 37.288,27.044C37.171,26.693 36.963,26.517 36.663,26.517C36.368,26.517 36.158,26.691 36.032,27.038C35.915,27.385 35.856,27.99 35.856,28.854C35.856,29.718 35.915,30.321 36.032,30.664C36.158,31.011 36.368,31.185 36.663,31.185C36.959,31.185 37.165,31.013 37.282,30.671C37.403,30.349 37.464,29.757 37.464,28.893L37.464,28.893Z" style="fill:rgb(158,161,168);fill-rule:nonzero;"/>
            <path id="path897" d="M40.055,23.613L41.299,23.613L41.299,25.501L41.976,25.501L41.976,26.491L41.299,26.491L41.299,32.24L40.055,32.24L40.055,26.491L39.372,26.491L39.372,25.501L40.055,25.501L40.055,23.613Z" style="fill:rgb(158,161,168);fill-rule:nonzero;"/>
            <path id="path899" d="M45.479,29.967L46.637,29.967C46.546,31.552 45.895,32.344 44.684,32.344C44.324,32.344 44.014,32.276 43.753,32.142C43.497,32.007 43.285,31.799 43.115,31.517C42.946,31.235 42.82,30.877 42.738,30.443C42.659,30.009 42.62,29.492 42.62,28.893C42.62,27.704 42.785,26.823 43.115,26.25C43.449,25.677 43.964,25.391 44.658,25.391C46.008,25.391 46.683,26.58 46.683,28.958L46.683,29.115L43.838,29.115C43.838,30.556 44.124,31.276 44.697,31.276C45.218,31.276 45.478,30.84 45.478,29.967L45.479,29.967ZM45.413,28.216C45.361,27.509 45.281,27.044 45.173,26.823C45.06,26.576 44.877,26.452 44.626,26.452C44.37,26.452 44.187,26.576 44.079,26.823C43.97,27.044 43.89,27.509 43.838,28.216L45.413,28.216Z" style="fill:rgb(158,161,168);fill-rule:nonzero;"/>
            <path id="path901" d="M50.557,25.501L51.8,25.501L51.8,26.335C52.143,25.705 52.599,25.391 53.167,25.391C53.788,25.391 54.209,25.705 54.43,26.335C54.76,25.705 55.229,25.391 55.837,25.391C56.31,25.391 56.67,25.516 56.917,25.768C57.169,26.016 57.295,26.382 57.295,26.868L57.295,32.24L56.045,32.24L56.045,27.806C56.045,27.298 55.997,26.957 55.902,26.784C55.811,26.606 55.633,26.517 55.368,26.517C55.068,26.517 54.864,26.608 54.756,26.79C54.652,26.968 54.6,27.307 54.6,27.806L54.6,32.24L53.311,32.24L53.311,27.806C53.311,27.567 53.298,27.365 53.271,27.201C53.25,27.036 53.211,26.903 53.154,26.803C53.098,26.704 53.024,26.632 52.933,26.589C52.842,26.541 52.729,26.517 52.594,26.517C52.308,26.517 52.104,26.615 51.982,26.81C51.861,27.005 51.8,27.337 51.8,27.806L51.8,32.24L50.557,32.24L50.557,25.501Z" style="fill:rgb(158,161,168);fill-rule:nonzero;"/>
            <path id="path903" d="M62.555,25.501L62.555,32.24L61.312,32.24L61.312,31.374C61.134,31.743 60.956,31.997 60.778,32.135C60.6,32.274 60.366,32.344 60.075,32.344C59.515,32.344 59.105,32.057 58.844,31.484C58.584,30.911 58.454,30.013 58.454,28.789C58.454,27.622 58.584,26.764 58.844,26.217C59.105,25.666 59.515,25.391 60.075,25.391C60.587,25.391 60.999,25.681 61.312,26.263L61.312,25.501L62.555,25.501ZM59.743,28.841C59.743,29.727 59.801,30.345 59.919,30.697C60.04,31.048 60.253,31.224 60.557,31.224C60.834,31.224 61.036,31.042 61.162,30.677C61.288,30.286 61.351,29.685 61.351,28.874C61.351,28.058 61.288,27.454 61.162,27.064C61.036,26.699 60.834,26.517 60.557,26.517C60.262,26.517 60.051,26.691 59.925,27.038C59.804,27.359 59.743,27.96 59.743,28.841L59.743,28.841Z" style="fill:rgb(158,161,168);fill-rule:nonzero;"/>
            <path id="path905" d="M63.968,35L63.968,25.501L65.212,25.501L65.212,26.374C65.385,26.005 65.563,25.749 65.745,25.605C65.928,25.462 66.166,25.391 66.462,25.391C67.017,25.391 67.423,25.679 67.679,26.257C67.939,26.829 68.07,27.728 68.07,28.952C68.07,30.15 67.937,31.011 67.673,31.536C67.412,32.075 66.993,32.344 66.416,32.344C66.138,32.344 65.91,32.281 65.732,32.155C65.646,32.094 65.559,32.007 65.472,31.895C65.385,31.782 65.298,31.645 65.212,31.484L65.212,35L63.968,35ZM66.781,28.906C66.781,27.99 66.72,27.37 66.598,27.044C66.481,26.693 66.271,26.517 65.967,26.517C65.68,26.517 65.476,26.699 65.355,27.064C65.233,27.402 65.173,28.006 65.173,28.874C65.173,29.742 65.233,30.345 65.355,30.684C65.481,31.044 65.685,31.224 65.967,31.224C66.262,31.224 66.472,31.05 66.598,30.703C66.72,30.382 66.781,29.783 66.781,28.906Z" style="fill:rgb(158,161,168);fill-rule:nonzero;"/>
            <path id="path907" d="M71.989,25.501L73.232,25.501L73.232,26.335C73.575,25.705 74.031,25.391 74.6,25.391C75.22,25.391 75.641,25.705 75.863,26.335C76.192,25.705 76.661,25.391 77.269,25.391C77.742,25.391 78.102,25.516 78.35,25.768C78.601,26.016 78.727,26.382 78.727,26.868L78.727,32.24L77.477,32.24L77.477,27.806C77.477,27.298 77.429,26.957 77.334,26.784C77.243,26.606 77.065,26.517 76.8,26.517C76.501,26.517 76.297,26.608 76.188,26.79C76.084,26.968 76.032,27.307 76.032,27.806L76.032,32.24L74.743,32.24L74.743,27.806C74.743,27.567 74.73,27.365 74.704,27.201C74.682,27.036 74.643,26.903 74.587,26.803C74.53,26.704 74.456,26.632 74.365,26.589C74.274,26.541 74.161,26.517 74.027,26.517C73.74,26.517 73.536,26.615 73.415,26.81C73.293,27.005 73.232,27.337 73.232,27.806L73.232,32.24L71.989,32.24L71.989,25.501Z" style="fill:rgb(158,161,168);fill-rule:nonzero;"/>
            <path id="path909" d="M84.118,28.926C84.118,31.204 83.413,32.344 82.002,32.344C80.591,32.344 79.886,31.187 79.886,28.874C79.886,26.552 80.589,25.391 81.995,25.391C82.36,25.391 82.675,25.46 82.939,25.599C83.209,25.738 83.43,25.953 83.604,26.243C83.777,26.534 83.905,26.901 83.988,27.344C84.074,27.786 84.118,28.314 84.118,28.926L84.118,28.926ZM82.829,28.893C82.829,28.008 82.77,27.392 82.653,27.044C82.536,26.693 82.327,26.517 82.028,26.517C81.733,26.517 81.522,26.691 81.396,27.038C81.279,27.385 81.221,27.99 81.221,28.854C81.221,29.718 81.279,30.321 81.396,30.664C81.522,31.011 81.733,31.185 82.028,31.185C82.323,31.185 82.529,31.013 82.646,30.671C82.768,30.349 82.829,29.757 82.829,28.893L82.829,28.893Z" style="fill:rgb(158,161,168);fill-rule:nonzero;"/>
            <path id="path911" d="M89.118,21.178L89.118,32.24L87.874,32.24L87.874,31.374C87.696,31.743 87.518,31.997 87.341,32.135C87.163,32.274 86.926,32.344 86.631,32.344C86.075,32.344 85.667,32.059 85.407,31.491C85.146,30.918 85.016,30.02 85.016,28.796C85.016,28.205 85.049,27.695 85.114,27.266C85.179,26.836 85.277,26.482 85.407,26.204C85.541,25.927 85.713,25.723 85.921,25.592C86.13,25.458 86.377,25.391 86.663,25.391C86.937,25.391 87.163,25.456 87.34,25.586C87.427,25.647 87.516,25.734 87.607,25.846C87.699,25.959 87.788,26.098 87.874,26.263L87.874,21.178L89.118,21.178ZM86.305,28.841C86.305,29.727 86.364,30.345 86.481,30.697C86.603,31.048 86.815,31.224 87.119,31.224C87.397,31.224 87.599,31.042 87.725,30.677C87.85,30.286 87.913,29.685 87.913,28.874C87.913,28.058 87.85,27.454 87.725,27.064C87.599,26.699 87.397,26.517 87.119,26.517C86.824,26.517 86.614,26.691 86.488,27.038C86.366,27.359 86.305,27.96 86.305,28.841L86.305,28.841Z" style="fill:rgb(158,161,168);fill-rule:nonzero;"/>
            <path id="path913" d="M93.135,29.967L94.294,29.967C94.202,31.552 93.551,32.344 92.34,32.344C91.98,32.344 91.67,32.276 91.41,32.142C91.153,32.007 90.941,31.799 90.771,31.517C90.602,31.235 90.476,30.877 90.394,30.443C90.316,30.009 90.277,29.492 90.277,28.893C90.277,27.704 90.442,26.823 90.771,26.25C91.106,25.677 91.62,25.391 92.314,25.391C93.664,25.391 94.339,26.58 94.339,28.958L94.339,29.115L91.494,29.115C91.494,30.556 91.781,31.276 92.353,31.276C92.874,31.276 93.135,30.84 93.135,29.967L93.135,29.967ZM93.07,28.216C93.018,27.509 92.937,27.044 92.829,26.823C92.716,26.576 92.534,26.452 92.282,26.452C92.026,26.452 91.844,26.576 91.735,26.823C91.627,27.044 91.546,27.509 91.494,28.216L93.07,28.216Z" style="fill:rgb(158,161,168);fill-rule:nonzero;"/>
        </g>
        <g id="text883" transform="matrix(1,0,0,1,0,80)">
            <path id="path916" d="M10.778,75L10.778,65.501L12.021,65.501L12.021,66.374C12.195,66.005 12.373,65.749 12.555,65.605C12.738,65.462 12.976,65.391 13.271,65.391C13.827,65.391 14.233,65.679 14.489,66.257C14.749,66.829 14.88,67.728 14.88,68.952C14.88,70.15 14.747,71.011 14.482,71.536C14.222,72.075 13.803,72.344 13.226,72.344C12.948,72.344 12.72,72.281 12.542,72.155C12.456,72.094 12.369,72.007 12.282,71.895C12.195,71.782 12.108,71.645 12.021,71.484L12.021,75L10.778,75ZM13.59,68.906C13.59,67.99 13.53,67.37 13.408,67.044C13.291,66.693 13.081,66.517 12.777,66.517C12.49,66.517 12.286,66.699 12.165,67.064C12.043,67.402 11.982,68.006 11.982,68.874C11.982,69.742 12.043,70.345 12.165,70.684C12.291,71.044 12.495,71.224 12.777,71.224C13.072,71.224 13.282,71.05 13.408,70.703C13.53,70.382 13.59,69.783 13.59,68.906Z" style="fill:rgb(158,161,168);fill-rule:nonzero;"/>
            <path id="path918" d="M16.038,65.501L17.282,65.501L17.282,70.007C17.291,70.423 17.351,70.72 17.464,70.898C17.581,71.076 17.775,71.165 18.044,71.165C18.326,71.165 18.523,71.087 18.636,70.931C18.749,70.766 18.805,70.48 18.805,70.072L18.805,69.531L18.805,65.501L20.049,65.501L20.049,69.531C20.049,70.473 19.979,71.102 19.84,71.419C19.55,72.036 18.946,72.344 18.031,72.344C17.31,72.344 16.798,72.161 16.494,71.797C16.19,71.428 16.038,70.814 16.038,69.954L16.038,65.501Z" style="fill:rgb(158,161,168);fill-rule:nonzero;"/>
            <path id="path920" d="M21.455,65.501L22.699,65.501L22.699,66.341C22.911,65.985 23.122,65.736 23.33,65.592C23.538,65.449 23.814,65.367 24.157,65.345L24.157,66.647C24.07,66.634 23.996,66.627 23.936,66.627C23.488,66.627 23.169,66.742 22.979,66.973C22.792,67.198 22.699,67.593 22.699,68.157L22.699,72.24L21.455,72.24L21.455,65.501Z" style="fill:rgb(158,161,168);fill-rule:nonzero;"/>
            <path id="path922" d="M27.679,69.967L28.838,69.967C28.747,71.552 28.096,72.344 26.885,72.344C26.525,72.344 26.214,72.276 25.954,72.142C25.698,72.007 25.485,71.799 25.316,71.517C25.146,71.235 25.021,70.877 24.938,70.443C24.86,70.009 24.821,69.492 24.821,68.893C24.821,67.704 24.986,66.823 25.316,66.25C25.65,65.677 26.164,65.391 26.859,65.391C28.209,65.391 28.883,66.58 28.883,68.958L28.883,69.115L26.038,69.115C26.038,70.556 26.325,71.276 26.898,71.276C27.419,71.276 27.679,70.84 27.679,69.967L27.679,69.967ZM27.614,68.216C27.562,67.509 27.482,67.044 27.373,66.823C27.26,66.576 27.078,66.452 26.826,66.452C26.57,66.452 26.388,66.576 26.279,66.823C26.171,67.044 26.09,67.509 26.038,68.216L27.614,68.216Z" style="fill:rgb(158,161,168);fill-rule:nonzero;"/>
            <path id="path924" d="M36.605,75L35.361,75L35.361,71.484C35.275,71.645 35.188,71.782 35.101,71.895C35.014,72.003 34.923,72.092 34.827,72.161C34.736,72.227 34.634,72.272 34.521,72.298C34.413,72.329 34.291,72.344 34.157,72.344C33.58,72.344 33.159,72.075 32.894,71.536C32.633,70.998 32.503,70.137 32.503,68.952C32.503,67.728 32.633,66.829 32.894,66.256C33.154,65.679 33.56,65.391 34.111,65.391C34.406,65.391 34.645,65.462 34.827,65.605C35.01,65.749 35.188,66.005 35.361,66.374L35.361,65.501L36.605,65.501L36.605,75ZM33.792,68.841C33.792,69.727 33.851,70.345 33.968,70.697C34.09,71.048 34.302,71.224 34.606,71.224C34.884,71.224 35.086,71.042 35.212,70.677C35.337,70.286 35.4,69.685 35.4,68.874C35.4,68.058 35.337,67.454 35.212,67.064C35.086,66.699 34.884,66.517 34.606,66.517C34.311,66.517 34.1,66.691 33.975,67.038C33.853,67.359 33.792,67.96 33.792,68.841L33.792,68.841Z" style="fill:rgb(158,161,168);fill-rule:nonzero;"/>
            <path id="path926" d="M37.992,65.501L39.235,65.501L39.235,70.007C39.244,70.423 39.304,70.72 39.417,70.898C39.534,71.076 39.728,71.165 39.997,71.165C40.279,71.165 40.476,71.087 40.589,70.931C40.702,70.766 40.758,70.48 40.758,70.072L40.758,69.531L40.758,65.501L42.002,65.501L42.002,69.531C42.002,70.473 41.933,71.102 41.794,71.419C41.503,72.036 40.9,72.344 39.984,72.344C39.263,72.344 38.751,72.161 38.447,71.797C38.143,71.428 37.992,70.814 37.992,69.954L37.992,65.501Z" style="fill:rgb(158,161,168);fill-rule:nonzero;"/>
            <path id="path928" d="M47.256,65.501L47.256,72.24L46.012,72.24L46.012,71.374C45.834,71.743 45.656,71.997 45.479,72.135C45.301,72.274 45.066,72.344 44.775,72.344C44.215,72.344 43.805,72.057 43.545,71.484C43.285,70.911 43.154,70.013 43.154,68.789C43.154,67.622 43.285,66.764 43.545,66.217C43.805,65.666 44.215,65.391 44.775,65.391C45.288,65.391 45.7,65.681 46.012,66.263L46.012,65.501L47.256,65.501ZM44.443,68.841C44.443,69.727 44.502,70.345 44.619,70.697C44.741,71.048 44.953,71.224 45.257,71.224C45.535,71.224 45.737,71.042 45.863,70.677C45.988,70.286 46.051,69.685 46.051,68.874C46.051,68.058 45.988,67.454 45.863,67.064C45.737,66.699 45.535,66.517 45.257,66.517C44.962,66.517 44.752,66.691 44.626,67.038C44.504,67.359 44.443,67.96 44.443,68.841L44.443,68.841Z" style="fill:rgb(158,161,168);fill-rule:nonzero;"/>
            <path id="path930" d="M48.669,65.501L49.912,65.501L49.912,66.276C50.268,65.686 50.728,65.391 51.292,65.391C51.839,65.391 52.23,65.605 52.464,66.035C52.594,66.278 52.66,66.749 52.66,67.448L52.66,72.24L51.416,72.24L51.41,67.734C51.41,67.279 51.355,66.955 51.247,66.764C51.138,66.573 50.952,66.478 50.687,66.478C50.544,66.478 50.422,66.504 50.322,66.556C50.227,66.604 50.149,66.684 50.088,66.797C50.027,66.905 49.982,67.049 49.951,67.227C49.925,67.404 49.912,67.624 49.912,67.884L49.912,72.24L48.669,72.24L48.669,65.501Z" style="fill:rgb(158,161,168);fill-rule:nonzero;"/>
            <path id="path932" d="M54.209,63.613L55.452,63.613L55.452,65.501L56.13,65.501L56.13,66.491L55.452,66.491L55.452,72.24L54.209,72.24L54.209,66.491L53.525,66.491L53.525,65.501L54.209,65.501L54.209,63.613Z" style="fill:rgb(158,161,168);fill-rule:nonzero;"/>
            <path id="path934" d="M57.028,65.501L58.278,65.501L58.278,72.24L57.028,72.24L57.028,65.501ZM57.614,62.637C57.84,62.637 58.035,62.719 58.2,62.884C58.365,63.049 58.447,63.247 58.447,63.477C58.447,63.711 58.365,63.911 58.2,64.076C58.035,64.24 57.835,64.323 57.601,64.323C57.367,64.323 57.167,64.24 57.002,64.076C56.841,63.915 56.761,63.713 56.761,63.47C56.761,63.244 56.844,63.049 57.008,62.884C57.186,62.719 57.388,62.637 57.614,62.637L57.614,62.637Z" style="fill:rgb(158,161,168);fill-rule:nonzero;"/>
            <path id="path936" d="M59.365,65.501L63.278,65.501L61.025,71.113L63.161,71.113L63.161,72.24L59.183,72.24L61.514,66.602L59.365,66.602L59.365,65.501Z" style="fill:rgb(158,161,168);fill-rule:nonzero;"/>
            <path id="path938" d="M66.794,69.967L67.952,69.967C67.861,71.552 67.21,72.344 65.999,72.344C65.639,72.344 65.329,72.276 65.068,72.142C64.812,72.007 64.6,71.799 64.43,71.517C64.261,71.235 64.135,70.877 64.053,70.443C63.975,70.009 63.936,69.492 63.936,68.893C63.936,67.704 64.1,66.823 64.43,66.25C64.765,65.677 65.279,65.391 65.973,65.391C67.323,65.391 67.998,66.58 67.998,68.958L67.998,69.115L65.153,69.115C65.153,70.556 65.439,71.276 66.012,71.276C66.533,71.276 66.794,70.84 66.794,69.967L66.794,69.967ZM66.728,68.216C66.676,67.509 66.596,67.044 66.488,66.823C66.375,66.576 66.192,66.452 65.941,66.452C65.685,66.452 65.502,66.576 65.394,66.823C65.285,67.044 65.205,67.509 65.153,68.216L66.728,68.216Z" style="fill:rgb(158,161,168);fill-rule:nonzero;"/>
            <path id="path940" d="M71.872,65.501L73.115,65.501L73.115,66.335C73.458,65.705 73.914,65.391 74.482,65.391C75.103,65.391 75.524,65.705 75.745,66.335C76.075,65.705 76.544,65.391 77.152,65.391C77.625,65.391 77.985,65.516 78.232,65.768C78.484,66.016 78.61,66.382 78.61,66.868L78.61,72.24L77.36,72.24L77.36,67.806C77.36,67.298 77.312,66.957 77.217,66.784C77.126,66.606 76.948,66.517 76.683,66.517C76.383,66.517 76.179,66.608 76.071,66.79C75.967,66.968 75.915,67.307 75.915,67.806L75.915,72.24L74.626,72.24L74.626,67.806C74.626,67.567 74.613,67.365 74.587,67.201C74.565,67.036 74.526,66.903 74.469,66.803C74.413,66.704 74.339,66.632 74.248,66.589C74.157,66.541 74.044,66.517 73.909,66.517C73.623,66.517 73.419,66.615 73.297,66.81C73.176,67.005 73.115,67.337 73.115,67.806L73.115,72.24L71.872,72.24L71.872,65.501Z" style="fill:rgb(158,161,168);fill-rule:nonzero;"/>
            <path id="path942" d="M84.001,68.926C84.001,71.204 83.295,72.344 81.885,72.344C80.474,72.344 79.769,71.187 79.769,68.874C79.769,66.552 80.472,65.391 81.878,65.391C82.243,65.391 82.558,65.46 82.822,65.599C83.091,65.738 83.313,65.953 83.486,66.243C83.66,66.534 83.788,66.901 83.87,67.344C83.957,67.786 84.001,68.314 84.001,68.926L84.001,68.926ZM82.712,68.893C82.712,68.008 82.653,67.391 82.536,67.044C82.419,66.693 82.21,66.517 81.911,66.517C81.616,66.517 81.405,66.691 81.279,67.038C81.162,67.385 81.104,67.99 81.104,68.854C81.104,69.718 81.162,70.321 81.279,70.664C81.405,71.011 81.616,71.185 81.911,71.185C82.206,71.185 82.412,71.013 82.529,70.671C82.651,70.349 82.712,69.757 82.712,68.893L82.712,68.893Z" style="fill:rgb(158,161,168);fill-rule:nonzero;"/>
            <path id="path944" d="M89.001,61.178L89.001,72.24L87.757,72.24L87.757,71.374C87.579,71.743 87.401,71.997 87.223,72.135C87.045,72.274 86.809,72.344 86.514,72.344C85.958,72.344 85.55,72.059 85.29,71.491C85.029,70.918 84.899,70.02 84.899,68.796C84.899,68.205 84.932,67.695 84.997,67.266C85.062,66.836 85.16,66.482 85.29,66.204C85.424,65.927 85.596,65.723 85.804,65.592C86.012,65.458 86.26,65.391 86.546,65.391C86.82,65.391 87.045,65.456 87.223,65.586C87.31,65.647 87.399,65.734 87.49,65.846C87.581,65.959 87.67,66.098 87.757,66.263L87.757,61.178L89.001,61.178ZM86.188,68.841C86.188,69.727 86.247,70.345 86.364,70.697C86.485,71.048 86.698,71.224 87.002,71.224C87.28,71.224 87.482,71.042 87.607,70.677C87.733,70.286 87.796,69.685 87.796,68.874C87.796,68.058 87.733,67.454 87.607,67.064C87.482,66.699 87.28,66.517 87.002,66.517C86.707,66.517 86.496,66.691 86.37,67.038C86.249,67.359 86.188,67.96 86.188,68.841L86.188,68.841Z" style="fill:rgb(158,161,168);fill-rule:nonzero;"/>
            <path id="path946" d="M93.018,69.967L94.176,69.967C94.085,71.552 93.434,72.344 92.223,72.344C91.863,72.344 91.553,72.276 91.292,72.142C91.036,72.007 90.824,71.799 90.654,71.517C90.485,71.235 90.359,70.877 90.277,70.443C90.199,70.009 90.159,69.492 90.159,68.893C90.159,67.704 90.324,66.823 90.654,66.25C90.988,65.677 91.503,65.391 92.197,65.391C93.547,65.391 94.222,66.58 94.222,68.958L94.222,69.115L91.377,69.115C91.377,70.556 91.663,71.276 92.236,71.276C92.757,71.276 93.018,70.84 93.018,69.967L93.018,69.967ZM92.952,68.216C92.9,67.509 92.82,67.044 92.712,66.823C92.599,66.576 92.416,66.452 92.165,66.452C91.909,66.452 91.726,66.576 91.618,66.823C91.509,67.044 91.429,67.509 91.377,68.216L92.952,68.216Z" style="fill:rgb(158,161,168);fill-rule:nonzero;"/>
        </g>
        <g id="text917" transform="matrix(0.774428,0,0,1,11.8425,-13)">
            <path id="path919" d="M23.066,43.562L20.449,45L19.332,43.383C18.957,43.487 18.634,43.539 18.363,43.539C17.072,43.539 15.996,43.013 15.137,41.961C14.22,40.841 13.762,39.294 13.762,37.32C13.762,35.409 14.178,33.888 15.012,32.758C15.845,31.617 16.96,31.047 18.355,31.047C19.715,31.047 20.819,31.612 21.668,32.742C22.517,33.872 22.941,35.344 22.941,37.156C22.941,39.224 22.486,40.807 21.574,41.906L23.066,43.562ZM19.566,37.359C19.566,36.844 19.538,36.383 19.48,35.977C19.423,35.57 19.342,35.229 19.238,34.953C19.134,34.672 19.004,34.458 18.848,34.312C18.697,34.161 18.525,34.086 18.332,34.086C17.967,34.086 17.676,34.378 17.457,34.961C17.243,35.586 17.137,36.37 17.137,37.312C17.137,37.812 17.163,38.26 17.215,38.656C17.272,39.052 17.35,39.385 17.449,39.656C17.553,39.927 17.681,40.135 17.832,40.281C17.983,40.422 18.152,40.492 18.34,40.492C18.533,40.492 18.704,40.422 18.855,40.281C19.007,40.141 19.134,39.935 19.238,39.664C19.348,39.393 19.428,39.065 19.48,38.68C19.538,38.294 19.566,37.854 19.566,37.359L19.566,37.359Z" style="fill:rgb(158,161,168);fill-rule:nonzero;"/>
            <path id="path921" d="M29.395,31.266L32.652,31.266L32.652,39.797C32.652,40.51 32.54,41.089 32.316,41.531C32.098,41.995 31.733,42.414 31.223,42.789C30.535,43.289 29.699,43.539 28.715,43.539C27.6,43.539 26.665,43.263 25.91,42.711C24.952,42.008 24.473,40.883 24.473,39.336L24.473,31.266L27.73,31.266L27.73,39.047C27.73,39.573 27.793,39.945 27.918,40.164C28.048,40.383 28.264,40.492 28.566,40.492C28.879,40.492 29.095,40.391 29.215,40.187C29.335,39.974 29.395,39.596 29.395,39.055L29.395,31.266Z" style="fill:rgb(158,161,168);fill-rule:nonzero;"/>
            <path id="path923" d="M42.91,43.328L39.543,43.328L39.301,41.797L37.105,41.797L36.84,43.328L33.473,43.328L36.371,31.266L40.355,31.266L42.91,43.328ZM38.918,39.211L38.707,37.805C38.702,37.799 38.691,37.729 38.676,37.594C38.665,37.479 38.611,37.026 38.512,36.234C38.501,36.146 38.488,36.026 38.473,35.875C38.457,35.719 38.436,35.523 38.41,35.289L38.308,34.148C38.298,34.258 38.282,34.38 38.262,34.516C38.246,34.651 38.228,34.799 38.207,34.961C38.17,35.284 38.144,35.508 38.129,35.633C38.113,35.758 38.103,35.833 38.097,35.859L37.871,37.32L37.543,39.211L38.918,39.211Z" style="fill:rgb(158,161,168);fill-rule:nonzero;"/>
            <path id="path925" d="M43.848,43.328L43.848,31.266L46.957,31.266L48.59,35.5C48.678,35.75 48.777,36.036 48.887,36.359C49.001,36.682 49.126,37.055 49.262,37.477L49.598,38.539C49.478,37.492 49.387,36.596 49.324,35.852C49.262,35.107 49.23,34.482 49.23,33.977L49.23,31.266L52.34,31.266L52.34,43.328L49.23,43.328L47.59,38.891C47.418,38.417 47.262,37.974 47.121,37.562C46.986,37.146 46.866,36.75 46.762,36.375C46.829,37.224 46.879,37.964 46.91,38.594C46.941,39.224 46.957,39.776 46.957,40.25L46.957,43.328L43.848,43.328Z" style="fill:rgb(158,161,168);fill-rule:nonzero;"/>
            <path id="path927" d="M58.246,43.328L54.988,43.328L54.988,34.156L53.191,34.156L53.191,31.266L60.113,31.266L60.113,34.156L58.246,34.156L58.246,43.328Z" style="fill:rgb(158,161,168);fill-rule:nonzero;"/>
            <rect id="path929" x="60.973" y="31.266" width="3.258" height="12.063" style="fill:rgb(158,161,168);fill-rule:nonzero;"/>
            <path id="path931" d="M73.676,43.328L65.371,43.328L65.371,43.07L68.199,36.609C68.408,36.219 68.574,35.898 68.699,35.648C68.829,35.398 68.923,35.221 68.98,35.117C69.079,34.914 69.283,34.576 69.59,34.102L66.09,34.102L66.09,31.266L74.082,31.266L74.082,31.602L71.113,38.172C70.921,38.594 70.728,39.003 70.535,39.398C70.342,39.794 70.15,40.187 69.957,40.578C70.301,40.552 70.569,40.534 70.762,40.523C70.96,40.508 71.09,40.5 71.152,40.5L73.676,40.43L73.676,43.328Z" style="fill:rgb(158,161,168);fill-rule:nonzero;"/>
            <path id="path933" d="M75.223,43.328L75.223,31.266L81.277,31.266L81.277,34.102L78.48,34.102L78.48,35.859L80.988,35.859L80.988,38.586L78.48,38.586L78.48,40.43L81.277,40.43L81.277,43.328L75.223,43.328Z" style="fill:rgb(158,161,168);fill-rule:nonzero;"/>
            <path id="path935" d="M91.238,43.328L87.715,43.328L86.105,39.031C86.09,38.958 86.061,38.862 86.02,38.742C85.983,38.622 85.936,38.479 85.879,38.313L85.902,39.109L85.902,43.328L82.66,43.328L82.66,31.266L85.996,31.266C87.465,31.266 88.564,31.555 89.293,32.133C90.22,32.872 90.684,33.924 90.684,35.289C90.684,36.747 90.061,37.755 88.816,38.312L91.238,43.328ZM85.918,36.852L86.137,36.852C86.512,36.852 86.824,36.708 87.074,36.422C87.324,36.135 87.449,35.771 87.449,35.328C87.449,34.427 86.978,33.977 86.035,33.977L85.918,33.977L85.918,36.852Z" style="fill:rgb(158,161,168);fill-rule:nonzero;"/>
        </g>
        <g id="text969" transform="matrix(1.0257,0,0,0.974947,-3.77474,-58)">
            <rect id="path982" x="14.405" y="332.399" width="1.389" height="10.31" style="fill:rgb(158,161,168);fill-rule:nonzero;"/>
            <path id="path984" d="M17.396,332.399L18.692,332.399L20.074,336.513C20.475,337.675 20.829,338.915 21.136,340.232C21.024,339.435 20.942,338.714 20.889,338.069C20.835,337.423 20.809,336.816 20.809,336.246L20.809,332.399L22.204,332.399L22.204,342.71L20.902,342.71L19.346,338.069C19.204,337.637 19.068,337.194 18.939,336.74C18.814,336.286 18.698,335.809 18.592,335.311C18.583,335.249 18.567,335.173 18.545,335.084C18.527,334.995 18.505,334.892 18.478,334.777C18.491,334.892 18.502,334.993 18.511,335.077C18.52,335.157 18.527,335.226 18.531,335.284L18.605,336.333L18.678,337.608C18.683,337.679 18.685,337.766 18.685,337.868C18.689,337.971 18.692,338.087 18.692,338.216L18.765,342.71L17.396,342.71L17.396,332.399Z" style="fill:rgb(158,161,168);fill-rule:nonzero;"/>
        </g>
        <g id="text973" transform="matrix(0.977955,0,0,1,5.15926,-58)">
            <path id="path975" d="M83.807,329.221C83.807,330.997 83.61,332.257 83.215,333.004C82.82,333.75 82.158,334.124 81.229,334.124C80.253,334.124 79.565,333.722 79.165,332.919C78.77,332.134 78.573,330.738 78.573,328.733C78.573,326.945 78.768,325.68 79.159,324.937C79.554,324.191 80.222,323.818 81.164,323.818C82.006,323.818 82.631,324.106 83.039,324.684C83.308,325.07 83.503,325.619 83.625,326.331C83.747,326.99 83.807,327.954 83.807,329.221L83.807,329.221ZM82.388,329.365C82.388,327.624 82.31,326.47 82.154,325.901C81.997,325.328 81.678,325.042 81.197,325.042C80.715,325.042 80.394,325.304 80.233,325.829C80.077,326.359 79.999,327.422 79.999,329.02C79.999,330.491 80.081,331.511 80.246,332.079C80.415,332.618 80.732,332.887 81.197,332.887C81.652,332.887 81.965,332.635 82.134,332.132C82.303,331.632 82.388,330.71 82.388,329.365L82.388,329.365Z" style="fill:rgb(158,161,168);fill-rule:nonzero;"/>
            <path id="path977" d="M85.155,323.948L86.483,323.948L86.483,331.051C86.483,331.776 86.548,332.257 86.678,332.496C86.813,332.735 87.078,332.854 87.473,332.854C87.868,332.854 88.128,332.75 88.254,332.542C88.384,332.329 88.449,331.897 88.449,331.246L88.449,323.948L89.777,323.948L89.777,331.246C89.777,332.34 89.61,333.08 89.276,333.466C88.877,333.905 88.267,334.124 87.447,334.124C86.544,334.124 85.908,333.842 85.539,333.277C85.283,332.891 85.155,332.149 85.155,331.051L85.155,323.948Z" style="fill:rgb(158,161,168);fill-rule:nonzero;"/>
            <path id="path979" d="M90.526,323.948L94.934,323.948L94.934,325.133L93.417,325.133L93.417,334L92.089,334L92.089,325.133L90.526,325.133L90.526,323.948Z" style="fill:rgb(158,161,168);fill-rule:nonzero;"/>
        </g>
        <g id="text1003" transform="matrix(1,0,0,1,0,-1.76171)">
            <path id="path1005" d="M8.656,69.948L12.256,69.948L12.256,71.094L10.01,71.094L10.01,74.277L12.002,74.277L12.002,75.423L10.01,75.423L10.01,78.854L12.256,78.854L12.256,80L8.656,80L8.656,69.948Z" style="fill:rgb(158,161,168);fill-rule:nonzero;"/>
            <path id="path1007" d="M18.818,80.15L17.965,80.762L17.275,79.779C16.863,80.009 16.427,80.124 15.967,80.124C14.99,80.124 14.3,79.711 13.896,78.887C13.497,78.036 13.298,76.612 13.298,74.616C13.298,72.871 13.493,71.636 13.883,70.911C14.274,70.182 14.936,69.818 15.869,69.818C16.85,69.818 17.54,70.219 17.939,71.022C18.334,71.808 18.532,73.201 18.532,75.202C18.532,77.012 18.343,78.268 17.965,78.971L18.818,80.15ZM16.423,76.81L16.982,77.604C17.074,76.962 17.119,76.237 17.119,75.43C17.119,73.702 17.037,72.535 16.872,71.927C16.707,71.341 16.379,71.048 15.889,71.048C15.429,71.048 15.118,71.298 14.958,71.797C14.797,72.274 14.717,73.238 14.717,74.687C14.717,76.315 14.799,77.426 14.964,78.021C15.129,78.589 15.45,78.874 15.928,78.874C16.119,78.874 16.301,78.813 16.475,78.691L15.615,77.454L16.423,76.81Z" style="fill:rgb(158,161,168);fill-rule:nonzero;"/>
            <path id="path1009" d="M19.88,69.948L21.208,69.948L21.208,77.051C21.208,77.776 21.273,78.257 21.403,78.496C21.538,78.735 21.802,78.854 22.197,78.854C22.592,78.854 22.853,78.75 22.979,78.542C23.109,78.329 23.174,77.897 23.174,77.246L23.174,69.948L24.502,69.948L24.502,77.246C24.502,78.34 24.335,79.08 24.001,79.466C23.601,79.905 22.992,80.124 22.171,80.124C21.268,80.124 20.633,79.842 20.264,79.277C20.008,78.891 19.88,78.149 19.88,77.051L19.88,69.948Z" style="fill:rgb(158,161,168);fill-rule:nonzero;"/>
            <path id="path1011" d="M27.484,69.948L28.538,69.948L30.693,80L29.352,80L28.975,78.04L26.982,78.04L26.598,80L25.296,80L27.484,69.948ZM28.779,76.992L28.48,75.391C28.28,74.301 28.117,73.138 27.992,71.901C27.931,72.504 27.853,73.116 27.757,73.737C27.662,74.353 27.549,75.009 27.419,75.703L27.171,76.992L28.779,76.992Z" style="fill:rgb(158,161,168);fill-rule:nonzero;"/>
            <path id="path1013" d="M31.494,69.948L32.848,69.948L32.848,78.854L35.062,78.854L35.062,80L31.494,80L31.494,69.948Z" style="fill:rgb(158,161,168);fill-rule:nonzero;"/>
            <path id="path1015" d="M38.682,69.948L40.348,69.948C40.856,69.948 41.284,70.004 41.631,70.117C41.952,70.226 42.238,70.419 42.49,70.697C42.868,71.113 43.137,71.656 43.298,72.324C43.458,72.971 43.538,73.898 43.538,75.104C43.538,76.211 43.449,77.114 43.271,77.813C43.098,78.481 42.811,78.991 42.412,79.342C41.922,79.781 41.043,80 39.775,80L38.682,80L38.682,69.948ZM40.036,78.815C40.86,78.815 41.412,78.566 41.689,78.066C41.976,77.567 42.119,76.597 42.119,75.156C42.119,73.607 41.982,72.541 41.709,71.96C41.436,71.378 40.934,71.087 40.205,71.087L40.036,71.087L40.036,78.815Z" style="fill:rgb(158,161,168);fill-rule:nonzero;"/>
            <rect id="path1017" x="44.88" y="69.948" width="1.354" height="10.052" style="fill:rgb(158,161,168);fill-rule:nonzero;"/>
            <path id="path1019" d="M46.995,69.948L48.33,69.948L48.936,73.659L49.04,74.329L49.255,75.788C49.289,76.035 49.32,76.261 49.346,76.465C49.376,76.669 49.402,76.853 49.424,77.018L49.489,77.513C49.502,77.413 49.513,77.324 49.521,77.246C49.53,77.168 49.539,77.103 49.548,77.051L49.723,75.885L49.951,74.355C49.973,74.217 49.992,74.089 50.01,73.971C50.031,73.854 50.051,73.75 50.068,73.659L50.719,69.948L51.982,69.948L50.01,80L48.936,80L46.995,69.948Z" style="fill:rgb(158,161,168);fill-rule:nonzero;"/>
            <rect id="path1021" x="52.718" y="69.948" width="1.354" height="10.052" style="fill:rgb(158,161,168);fill-rule:nonzero;"/>
            <path id="path1023" d="M58.988,70.156L58.988,71.478C58.575,71.183 58.204,71.035 57.874,71.035C57.518,71.035 57.228,71.161 57.002,71.413C56.776,71.651 56.663,71.97 56.663,72.37C56.663,72.721 56.744,73.023 56.904,73.275C56.987,73.409 57.121,73.583 57.308,73.796C57.499,74.008 57.744,74.264 58.044,74.564C58.595,75.124 58.97,75.608 59.17,76.016C59.37,76.411 59.469,76.895 59.469,77.467C59.469,78.244 59.25,78.885 58.812,79.388C58.374,79.878 57.811,80.124 57.126,80.124C56.548,80.124 56.056,79.965 55.648,79.648L55.648,78.307C56.13,78.659 56.568,78.835 56.963,78.835C57.332,78.835 57.62,78.713 57.829,78.47C58.037,78.223 58.141,77.888 58.141,77.467C58.141,77.103 58.061,76.775 57.9,76.484C57.818,76.346 57.703,76.187 57.555,76.009C57.408,75.827 57.223,75.625 57.002,75.404C56.659,75.065 56.375,74.766 56.149,74.505C55.923,74.245 55.756,74.017 55.648,73.822C55.439,73.44 55.335,72.958 55.335,72.376C55.335,71.591 55.539,70.968 55.947,70.508C56.36,70.043 56.913,69.811 57.607,69.811C58.089,69.811 58.549,69.926 58.988,70.156L58.988,70.156Z" style="fill:rgb(158,161,168);fill-rule:nonzero;"/>
            <rect id="path1025" x="60.609" y="69.948" width="1.354" height="10.052" style="fill:rgb(158,161,168);fill-rule:nonzero;"/>
            <path id="path1027" d="M68.558,75.221C68.558,76.997 68.36,78.257 67.965,79.004C67.571,79.75 66.909,80.124 65.98,80.124C65.003,80.124 64.315,79.722 63.916,78.919C63.521,78.134 63.324,76.738 63.324,74.733C63.324,72.945 63.519,71.68 63.91,70.937C64.304,70.191 64.973,69.818 65.915,69.818C66.757,69.818 67.382,70.106 67.79,70.684C68.059,71.07 68.254,71.619 68.376,72.331C68.497,72.99 68.558,73.954 68.558,75.221L68.558,75.221ZM67.139,75.365C67.139,73.624 67.061,72.47 66.904,71.901C66.748,71.328 66.429,71.042 65.947,71.042C65.465,71.042 65.144,71.304 64.984,71.829C64.827,72.359 64.749,73.422 64.749,75.02C64.749,76.491 64.832,77.511 64.997,78.079C65.166,78.618 65.483,78.887 65.947,78.887C66.403,78.887 66.716,78.635 66.885,78.132C67.054,77.632 67.139,76.71 67.139,75.365L67.139,75.365Z" style="fill:rgb(158,161,168);fill-rule:nonzero;"/>
            <path id="path1029" d="M69.906,69.948L71.169,69.948L72.516,73.958C72.907,75.091 73.252,76.3 73.551,77.585C73.443,76.808 73.363,76.105 73.311,75.475C73.258,74.846 73.232,74.253 73.232,73.698L73.232,69.948L74.593,69.948L74.593,80L73.324,80L71.807,75.475C71.668,75.054 71.535,74.622 71.41,74.18C71.288,73.737 71.175,73.273 71.071,72.786C71.062,72.726 71.047,72.652 71.025,72.565C71.008,72.478 70.986,72.378 70.96,72.266C70.973,72.378 70.984,72.476 70.993,72.559C71.001,72.637 71.008,72.704 71.012,72.76L71.084,73.783L71.156,75.026C71.16,75.095 71.162,75.18 71.162,75.28C71.166,75.38 71.169,75.493 71.169,75.618L71.24,80L69.906,80L69.906,69.948Z" style="fill:rgb(158,161,168);fill-rule:nonzero;"/>
            <path id="path1031" d="M79.508,70.156L79.508,71.478C79.096,71.183 78.725,71.035 78.395,71.035C78.039,71.035 77.748,71.161 77.523,71.413C77.297,71.651 77.184,71.97 77.184,72.37C77.184,72.721 77.265,73.023 77.425,73.275C77.508,73.409 77.642,73.583 77.829,73.796C78.02,74.008 78.265,74.264 78.564,74.564C79.116,75.124 79.491,75.608 79.691,76.016C79.89,76.411 79.99,76.895 79.99,77.467C79.99,78.244 79.771,78.885 79.333,79.388C78.894,79.878 78.332,80.124 77.647,80.124C77.069,80.124 76.577,79.965 76.169,79.648L76.169,78.307C76.65,78.659 77.089,78.835 77.484,78.835C77.853,78.835 78.141,78.713 78.35,78.47C78.558,78.223 78.662,77.888 78.662,77.467C78.662,77.103 78.582,76.775 78.421,76.484C78.339,76.346 78.224,76.187 78.076,76.009C77.929,75.827 77.744,75.625 77.523,75.404C77.18,75.065 76.896,74.766 76.67,74.505C76.444,74.245 76.277,74.017 76.169,73.822C75.96,73.44 75.856,72.958 75.856,72.376C75.856,71.591 76.06,70.968 76.468,70.508C76.88,70.043 77.434,69.811 78.128,69.811C78.61,69.811 79.07,69.926 79.508,70.156L79.508,70.156Z" style="fill:rgb(158,161,168);fill-rule:nonzero;"/>
            <path id="path1033" d="M88.923,75.221C88.923,76.997 88.725,78.257 88.33,79.004C87.935,79.75 87.273,80.124 86.344,80.124C85.368,80.124 84.68,79.722 84.281,78.919C83.886,78.134 83.688,76.738 83.688,74.733C83.688,72.945 83.883,71.68 84.274,70.937C84.669,70.191 85.337,69.818 86.279,69.818C87.121,69.818 87.746,70.106 88.154,70.684C88.423,71.07 88.619,71.619 88.74,72.331C88.862,72.99 88.923,73.954 88.923,75.221L88.923,75.221ZM87.503,75.365C87.503,73.624 87.425,72.47 87.269,71.901C87.113,71.328 86.794,71.042 86.312,71.042C85.83,71.042 85.509,71.304 85.348,71.829C85.192,72.359 85.114,73.422 85.114,75.02C85.114,76.491 85.196,77.511 85.361,78.079C85.531,78.618 85.847,78.887 86.312,78.887C86.768,78.887 87.08,78.635 87.249,78.132C87.419,77.632 87.503,76.71 87.503,75.365L87.503,75.365Z" style="fill:rgb(158,161,168);fill-rule:nonzero;"/>
            <path id="path1035" d="M90.27,69.948L93.89,69.948L93.89,71.094L91.624,71.094L91.624,74.271L93.669,74.271L93.669,75.417L91.624,75.417L91.624,80L90.27,80L90.27,69.948Z" style="fill:rgb(158,161,168);fill-rule:nonzero;"/>
            <path id="path1037" d="M95.557,78.49C95.769,78.49 95.954,78.57 96.11,78.73C96.266,78.887 96.344,79.075 96.344,79.297C96.344,79.518 96.266,79.707 96.11,79.863C95.945,80.015 95.756,80.091 95.544,80.091C95.431,80.091 95.324,80.069 95.225,80.026C95.129,79.987 95.044,79.933 94.971,79.863C94.897,79.789 94.838,79.705 94.795,79.609C94.756,79.51 94.736,79.403 94.736,79.29C94.736,79.069 94.814,78.88 94.971,78.724C95.131,78.568 95.327,78.49 95.557,78.49L95.557,78.49ZM95.557,73.164C95.769,73.164 95.954,73.244 96.11,73.405C96.266,73.561 96.344,73.748 96.344,73.965C96.344,74.191 96.266,74.381 96.11,74.538C95.954,74.694 95.765,74.772 95.544,74.772C95.318,74.772 95.127,74.694 94.971,74.538C94.814,74.377 94.736,74.186 94.736,73.965C94.736,73.739 94.814,73.55 94.971,73.398C95.131,73.242 95.327,73.164 95.557,73.164L95.557,73.164Z" style="fill:rgb(158,161,168);fill-rule:nonzero;"/>
        </g>
        <g id="text964" transform="matrix(1.02781,0,0,0.972941,0,-3.12371)">
            <path id="path966" d="M13.992,41.226L13.992,42.478C13.635,42.304 13.336,42.217 13.095,42.217C12.765,42.217 12.482,42.299 12.245,42.464C12.009,42.625 11.813,42.875 11.657,43.214C11.505,43.553 11.391,43.983 11.315,44.505C11.244,45.023 11.208,45.636 11.208,46.345C11.208,48.897 11.862,50.173 13.169,50.173C13.396,50.173 13.671,50.101 13.992,49.959L13.992,51.237C13.657,51.424 13.283,51.518 12.868,51.518C10.776,51.518 9.729,49.809 9.729,46.392C9.729,44.545 9.984,43.171 10.492,42.27C11.005,41.369 11.788,40.918 12.841,40.918C13.229,40.918 13.613,41.021 13.992,41.226L13.992,41.226Z" style="fill:rgb(158,161,168);fill-rule:nonzero;"/>
            <path id="path968" d="M14.333,41.059L15.705,41.059L16.327,44.873L16.434,45.562L16.655,47.061C16.691,47.315 16.722,47.547 16.749,47.757C16.78,47.967 16.807,48.156 16.829,48.326L16.896,48.834C16.909,48.732 16.921,48.64 16.929,48.56C16.938,48.48 16.947,48.413 16.956,48.359L17.137,47.162L17.371,45.589C17.393,45.446 17.413,45.315 17.431,45.194C17.454,45.074 17.474,44.967 17.492,44.873L18.161,41.059L19.459,41.059L17.431,51.391L16.327,51.391L14.333,41.059Z" style="fill:rgb(158,161,168);fill-rule:nonzero;"/>
        </g>
        <g id="path997" transform="matrix(1,0,0,1,0,4)">
            <path d="M51.354,279.948L53.646,279.948L53.646,290L52.35,290L52.35,281.1L51.354,281.1L51.354,279.948Z" style="fill:rgb(158,161,168);fill-rule:nonzero;"/>
        </g>
        <g id="path994" transform="matrix(1,0,0,1,0,4)">
            <path d="M51.706,306.216L50.378,306.216L50.365,305.819C50.365,304.721 50.53,303.948 50.86,303.501C51.194,303.05 51.754,302.824 52.539,302.824C54.019,302.824 54.759,303.645 54.759,305.285C54.759,306.392 54.206,307.987 53.099,310.07L52.298,311.574C52.294,311.583 52.281,311.609 52.259,311.652C52.238,311.696 52.207,311.759 52.168,311.841L54.655,311.841L54.655,313L50.241,313C50.315,312.835 50.469,312.507 50.703,312.017C50.938,311.526 51.257,310.865 51.66,310.031C52.003,309.302 52.29,308.684 52.52,308.176C52.75,307.668 52.923,307.251 53.041,306.926C53.275,306.275 53.392,305.713 53.392,305.24C53.392,304.406 53.103,303.99 52.526,303.99C51.971,303.99 51.693,304.506 51.693,305.539L51.699,306.112L51.706,306.216Z" style="fill:rgb(158,161,168);fill-rule:nonzero;"/>
        </g>
        <g id="path991" transform="matrix(1,0,0,1,0,4)">
            <path d="M51.758,328.526L50.469,328.526L50.469,328.259C50.469,327.812 50.506,327.428 50.579,327.107C50.658,326.786 50.777,326.521 50.937,326.313C51.102,326.104 51.311,325.952 51.562,325.857C51.814,325.757 52.116,325.707 52.467,325.707C53.205,325.707 53.743,325.915 54.082,326.332C54.421,326.749 54.59,327.411 54.59,328.318C54.59,329.064 54.512,329.602 54.355,329.932C54.204,330.267 53.911,330.52 53.477,330.694C53.945,330.855 54.269,331.104 54.447,331.443C54.625,331.777 54.714,332.313 54.714,333.051C54.714,334.062 54.523,334.806 54.141,335.284C53.759,335.761 53.164,336 52.357,336C50.977,336 50.286,335.208 50.286,333.624L50.286,333.52L50.286,333.448C50.286,333.4 50.289,333.37 50.293,333.357L51.562,333.357C51.558,333.431 51.554,333.496 51.55,333.552L51.55,333.682C51.55,334.025 51.623,334.299 51.771,334.503C51.923,334.707 52.129,334.809 52.389,334.809C52.559,334.809 52.702,334.776 52.819,334.711C52.941,334.641 53.038,334.533 53.112,334.385C53.19,334.233 53.247,334.038 53.281,333.799C53.316,333.561 53.333,333.272 53.333,332.934C53.333,332.322 53.24,331.881 53.053,331.612C52.871,331.343 52.565,331.208 52.136,331.208C52.088,331.208 52.036,331.213 51.979,331.221C51.923,331.225 51.858,331.232 51.784,331.241L51.784,330.069L51.973,330.069C52.498,330.069 52.854,329.956 53.04,329.73C53.227,329.505 53.32,329.077 53.32,328.448C53.32,327.406 53.058,326.885 52.533,326.885C52.012,326.885 51.751,327.33 51.751,328.22L51.758,328.526Z" style="fill:rgb(158,161,168);fill-rule:nonzero;"/>
        </g>
        <g id="path988" transform="matrix(1,0,0,1,0,4)">
            <path d="M52.926,348.948L54.183,348.948L54.183,355.211L54.827,355.211L54.827,356.246L54.183,356.246L54.183,359L52.926,359L52.926,356.246L50.173,356.246L50.173,355.094L52.926,348.948ZM52.926,355.211L52.926,350.992L51.234,355.211L52.926,355.211Z" style="fill:rgb(158,161,168);fill-rule:nonzero;"/>
        </g>
        <g id="text959" transform="matrix(0.820813,0,0,1.2183,0,0)">
            <path id="path961" d="M5.729,13.398L3.046,13.398L3.046,3.463L5.645,3.463C6.941,3.463 7.901,3.727 8.528,4.255C9.265,4.877 9.634,5.741 9.634,6.848C9.634,8.053 9.242,8.952 8.457,9.544C7.921,9.943 7.151,10.142 6.147,10.142L5.729,10.142L5.729,13.398ZM5.729,7.909L5.851,7.916C6.177,7.916 6.437,7.817 6.63,7.62C6.823,7.418 6.919,7.144 6.919,6.796C6.919,6.453 6.825,6.174 6.636,5.96C6.447,5.741 6.207,5.632 5.915,5.632L5.729,5.632L5.729,7.909Z" style="fill:rgb(158,161,168);fill-rule:nonzero;"/>
            <path id="path963" d="M17.889,8.463C17.889,9.977 17.544,11.208 16.853,12.156C16.167,13.1 15.273,13.571 14.17,13.571C13.192,13.571 12.354,13.209 11.655,12.484C10.775,11.566 10.336,10.189 10.336,8.353C10.336,6.595 10.795,5.25 11.713,4.319C12.395,3.629 13.203,3.283 14.138,3.283C15.284,3.283 16.195,3.751 16.873,4.686C17.55,5.621 17.889,6.88 17.889,8.463ZM15.103,8.482C15.103,6.685 14.786,5.786 14.151,5.786C13.834,5.786 13.581,6.022 13.392,6.494C13.207,6.931 13.115,7.575 13.115,8.424C13.115,9.261 13.201,9.91 13.373,10.374C13.548,10.833 13.791,11.062 14.1,11.062C14.417,11.062 14.662,10.835 14.833,10.38C15.013,9.925 15.103,9.293 15.103,8.482L15.103,8.482Z" style="fill:rgb(158,161,168);fill-rule:nonzero;"/>
            <path id="path965" d="M23.725,13.398L19.028,13.398L19.028,3.463L21.711,3.463L21.711,11.011L23.725,11.011L23.725,13.398Z" style="fill:rgb(158,161,168);fill-rule:nonzero;"/>
            <path id="path967" d="M28.396,13.398L25.713,13.398L25.713,9.19L23.249,3.463L26.048,3.463L26.53,4.937C26.625,5.224 26.708,5.501 26.781,5.767C26.859,6.033 26.927,6.288 26.987,6.532C27.086,6.168 27.172,5.855 27.245,5.593C27.317,5.327 27.382,5.113 27.438,4.95L27.927,3.463L30.706,3.463L28.396,9.19L28.396,13.398Z" style="fill:rgb(158,161,168);fill-rule:nonzero;"/>
            <path id="path969" d="M35.371,13.398L35.371,3.463L40.357,3.463L40.357,5.799L38.054,5.799L38.054,7.247L40.119,7.247L40.119,9.492L38.054,9.492L38.054,11.011L40.357,11.011L40.357,13.398L35.371,13.398Z" style="fill:rgb(158,161,168);fill-rule:nonzero;"/>
            <path id="path971" d="M48.908,13.591L46.753,14.775L45.833,13.443C45.524,13.529 45.258,13.571 45.035,13.571C43.971,13.571 43.085,13.138 42.378,12.272C41.623,11.35 41.245,10.076 41.245,8.45C41.245,6.876 41.588,5.623 42.275,4.692C42.961,3.753 43.879,3.283 45.029,3.283C46.148,3.283 47.057,3.749 47.757,4.679C48.456,5.61 48.805,6.822 48.805,8.315C48.805,10.018 48.43,11.322 47.679,12.227L48.908,13.591ZM46.026,8.482C46.026,8.057 46.002,7.678 45.955,7.343C45.908,7.009 45.841,6.728 45.756,6.5C45.67,6.269 45.563,6.093 45.434,5.973C45.309,5.848 45.168,5.786 45.009,5.786C44.709,5.786 44.469,6.026 44.289,6.507C44.113,7.021 44.025,7.667 44.025,8.443C44.025,8.855 44.046,9.224 44.089,9.55C44.136,9.876 44.201,10.151 44.282,10.374C44.368,10.597 44.473,10.768 44.597,10.888C44.722,11.004 44.861,11.062 45.016,11.062C45.174,11.062 45.316,11.004 45.44,10.888C45.565,10.773 45.67,10.603 45.756,10.38C45.846,10.157 45.912,9.887 45.955,9.569C46.002,9.252 46.026,8.89 46.026,8.482L46.026,8.482Z" style="fill:rgb(158,161,168);fill-rule:nonzero;"/>
            <path id="path973" d="M54.12,3.463L56.803,3.463L56.803,10.489C56.803,11.077 56.711,11.553 56.526,11.918C56.346,12.3 56.046,12.645 55.626,12.954C55.059,13.366 54.371,13.571 53.56,13.571C52.642,13.571 51.872,13.344 51.25,12.889C50.461,12.31 50.066,11.384 50.066,10.11L50.066,3.463L52.75,3.463L52.75,9.872C52.75,10.305 52.801,10.612 52.904,10.792C53.011,10.972 53.189,11.062 53.438,11.062C53.695,11.062 53.873,10.978 53.972,10.811C54.071,10.635 54.12,10.324 54.12,9.878L54.12,3.463Z" style="fill:rgb(158,161,168);fill-rule:nonzero;"/>
            <path id="path976" d="M65.251,13.398L62.478,13.398L62.278,12.137L60.47,12.137L60.252,13.398L57.479,13.398L59.866,3.463L63.147,3.463L65.251,13.398ZM61.963,10.007L61.789,8.849C61.785,8.844 61.777,8.787 61.764,8.675C61.755,8.581 61.71,8.208 61.629,7.556C61.62,7.483 61.609,7.384 61.597,7.26C61.584,7.131 61.567,6.97 61.545,6.777L61.461,5.838C61.453,5.928 61.44,6.028 61.423,6.14C61.41,6.252 61.395,6.374 61.378,6.507C61.348,6.773 61.326,6.957 61.313,7.06C61.301,7.163 61.292,7.225 61.288,7.247L61.101,8.45L60.831,10.007L61.963,10.007Z" style="fill:rgb(158,161,168);fill-rule:nonzero;"/>
            <path id="path978" d="M70.72,13.398L66.023,13.398L66.023,3.463L68.706,3.463L68.706,11.011L70.72,11.011L70.72,13.398Z" style="fill:rgb(158,161,168);fill-rule:nonzero;"/>
            <path id="path980" d="M75.494,13.398L75.494,3.463L77.81,3.463C79.136,3.463 80.168,3.819 80.905,4.531C81.875,5.462 82.359,6.764 82.359,8.437C82.359,10.084 81.95,11.356 81.131,12.252C80.431,13.016 79.389,13.398 78.004,13.398L75.494,13.398ZM78.177,10.998C79.138,10.951 79.618,10.123 79.618,8.514C79.618,7.721 79.496,7.094 79.252,6.635C79.007,6.172 78.677,5.941 78.261,5.941L78.177,5.941L78.177,10.998Z" style="fill:rgb(158,161,168);fill-rule:nonzero;"/>
            <rect id="path983" x="83.498" y="3.463" width="2.683" height="9.934" style="fill:rgb(158,161,168);fill-rule:nonzero;"/>
            <path id="path985" d="M91.882,13.398L89.147,13.398L86.87,3.463L89.688,3.463L90.177,6.301C90.361,7.386 90.509,8.6 90.621,9.943C90.668,9.346 90.726,8.789 90.795,8.27C90.863,7.751 90.945,7.245 91.039,6.751L91.676,3.463L94.591,3.463L91.882,13.398Z" style="fill:rgb(158,161,168);fill-rule:nonzero;"/>
            <rect id="path987" x="95.286" y="3.463" width="2.683" height="9.934" style="fill:rgb(158,161,168);fill-rule:nonzero;"/>
            <path id="path989" d="M99.14,13.153L99.14,10.033C99.667,10.753 100.238,11.114 100.851,11.114C101.083,11.114 101.272,11.054 101.417,10.933C101.563,10.809 101.636,10.655 101.636,10.47C101.636,10.204 101.477,9.945 101.16,9.692L100.722,9.351C100.431,9.132 100.182,8.915 99.976,8.701C99.77,8.482 99.603,8.259 99.474,8.032C99.346,7.8 99.251,7.562 99.191,7.317C99.131,7.073 99.101,6.816 99.101,6.545C99.101,6.082 99.208,5.597 99.423,5.091C99.53,4.855 99.654,4.641 99.796,4.448C99.938,4.251 100.101,4.077 100.285,3.927C100.791,3.498 101.402,3.283 102.119,3.283C102.758,3.283 103.401,3.453 104.049,3.792L104.049,6.828C103.83,6.49 103.581,6.224 103.303,6.031C103.024,5.833 102.749,5.735 102.479,5.735C102.273,5.735 102.104,5.795 101.971,5.915C101.833,6.031 101.765,6.17 101.765,6.333C101.765,6.599 101.947,6.863 102.312,7.124L102.736,7.44C103.303,7.847 103.708,8.265 103.952,8.694C104.201,9.123 104.326,9.625 104.326,10.2C104.326,11.178 104.027,11.984 103.431,12.619C102.835,13.254 102.08,13.571 101.166,13.571C100.536,13.571 99.86,13.432 99.14,13.153L99.14,13.153Z" style="fill:rgb(158,161,168);fill-rule:nonzero;"/>
            <rect id="path992" x="105.374" y="3.463" width="2.683" height="9.934" style="fill:rgb(158,161,168);fill-rule:nonzero;"/>
            <path id="path995" d="M116.743,8.463C116.743,9.977 116.398,11.208 115.708,12.156C115.021,13.1 114.127,13.571 113.025,13.571C112.047,13.571 111.208,13.209 110.509,12.484C109.629,11.566 109.19,10.189 109.19,8.353C109.19,6.595 109.649,5.25 110.567,4.319C111.249,3.629 112.057,3.283 112.992,3.283C114.138,3.283 115.049,3.751 115.727,4.686C116.405,5.621 116.743,6.88 116.743,8.463ZM113.958,8.482C113.958,6.685 113.64,5.786 113.005,5.786C112.688,5.786 112.435,6.022 112.246,6.494C112.062,6.931 111.969,7.575 111.969,8.424C111.969,9.261 112.055,9.91 112.227,10.374C112.403,10.833 112.645,11.062 112.954,11.062C113.271,11.062 113.516,10.835 113.687,10.38C113.867,9.925 113.957,9.293 113.957,8.482L113.958,8.482Z" style="fill:rgb(158,161,168);fill-rule:nonzero;"/>
            <path id="path998" d="M117.882,13.398L117.882,3.463L120.443,3.463L121.788,6.951C121.861,7.157 121.942,7.393 122.032,7.658C122.127,7.924 122.23,8.231 122.341,8.579L122.618,9.454C122.519,8.591 122.444,7.854 122.393,7.24C122.341,6.627 122.315,6.112 122.315,5.696L122.315,3.463L124.876,3.463L124.876,13.398L122.315,13.398L120.964,9.743C120.823,9.353 120.694,8.988 120.578,8.649C120.467,8.306 120.368,7.98 120.282,7.671C120.338,8.371 120.379,8.98 120.404,9.499C120.43,10.018 120.443,10.472 120.443,10.863L120.443,13.398L117.882,13.398Z" style="fill:rgb(158,161,168);fill-rule:nonzero;"/>
        </g>
    </g>
</svg>
