<?xml version="1.0" encoding="UTF-8" standalone="no"?>
<!DOCTYPE svg PUBLIC "-//W3C//DTD SVG 1.1//EN" "http://www.w3.org/Graphics/SVG/1.1/DTD/svg11.dtd">
<svg width="100%" height="100%" viewBox="0 0 150 380" version="1.1" xmlns="http://www.w3.org/2000/svg" xmlns:xlink="http://www.w3.org/1999/xlink" xml:space="preserve" xmlns:serif="http://www.serif.com/" style="fill-rule:evenodd;clip-rule:evenodd;stroke-linejoin:round;stroke-miterlimit:2;">
    <g id="Layer-2" serif:id="Layer 2">
        <g id="text989">
        </g>
        <rect id="rect4689" x="0" y="0" width="150" height="380" style="fill:rgb(44,45,48);"/>
        <g id="text80" transform="matrix(1.00498,0,0,0.995047,30,4.99997)">
            <path id="path4726" d="M29.851,371.706L29.851,363.943L31.853,363.943L32.903,366.668C32.96,366.829 33.024,367.013 33.094,367.221C33.168,367.429 33.249,367.668 33.336,367.94L33.552,368.624C33.475,367.95 33.416,367.373 33.376,366.894C33.336,366.415 33.316,366.013 33.316,365.687L33.316,363.943L35.317,363.943L35.317,371.706L33.316,371.706L32.26,368.85C32.149,368.545 32.049,368.26 31.958,367.995C31.871,367.727 31.794,367.472 31.727,367.231C31.77,367.777 31.802,368.253 31.822,368.659C31.843,369.065 31.853,369.42 31.853,369.725L31.853,371.706L29.851,371.706Z" style="fill:rgb(158,161,168);fill-rule:nonzero;"/>
            <path id="path4728" d="M39.887,371.706L37.791,371.706L37.791,368.418L35.865,363.943L38.052,363.943L38.429,365.094C38.503,365.319 38.568,365.535 38.625,365.743C38.686,365.951 38.739,366.15 38.786,366.341C38.863,366.056 38.93,365.811 38.987,365.607C39.044,365.399 39.095,365.232 39.138,365.104L39.52,363.943L41.692,363.943L39.887,368.418L39.887,371.706Z" style="fill:rgb(158,161,168);fill-rule:nonzero;"/>
            <path id="path4730" d="M41.894,371.515L41.894,369.076C42.306,369.639 42.752,369.921 43.231,369.921C43.412,369.921 43.56,369.874 43.673,369.78C43.787,369.683 43.844,369.562 43.844,369.418C43.844,369.21 43.72,369.008 43.472,368.81L43.13,368.543C42.902,368.372 42.708,368.203 42.547,368.035C42.386,367.865 42.256,367.69 42.155,367.513C42.054,367.332 41.981,367.146 41.934,366.954C41.887,366.763 41.863,366.562 41.863,366.351C41.863,365.989 41.947,365.61 42.115,365.215C42.199,365.03 42.296,364.863 42.406,364.712C42.517,364.558 42.644,364.422 42.789,364.305C43.184,363.969 43.662,363.802 44.222,363.802C44.721,363.802 45.224,363.934 45.73,364.199L45.73,366.572C45.559,366.308 45.365,366.1 45.147,365.949C44.929,365.795 44.714,365.718 44.503,365.718C44.342,365.718 44.21,365.765 44.106,365.858C43.999,365.949 43.945,366.058 43.945,366.185C43.945,366.393 44.087,366.599 44.372,366.804L44.704,367.05C45.147,367.368 45.463,367.695 45.655,368.03C45.849,368.366 45.946,368.758 45.946,369.207C45.946,369.971 45.713,370.601 45.247,371.098C44.781,371.594 44.191,371.842 43.477,371.842C42.985,371.842 42.457,371.733 41.894,371.515L41.894,371.515Z" style="fill:rgb(158,161,168);fill-rule:nonzero;"/>
            <path id="path4732" d="M49.576,371.706L47.48,371.706L47.48,365.803L46.323,365.803L46.323,363.943L50.778,363.943L50.778,365.803L49.576,365.803L49.576,371.706Z" style="fill:rgb(158,161,168);fill-rule:nonzero;"/>
            <path id="path4734" d="M56.525,371.706L54.428,371.706L54.428,368.584L53.428,368.584L53.428,371.706L51.331,371.706L51.331,363.943L53.428,363.943L53.428,366.688L54.428,366.688L54.428,363.943L56.525,363.943L56.525,371.706Z" style="fill:rgb(158,161,168);fill-rule:nonzero;"/>
            <rect id="path4736" x="57.606" y="363.943" width="2.097" height="7.763" style="fill:rgb(158,161,168);fill-rule:nonzero;"/>
        </g>
        <g id="text4987">
        </g>
        <g id="text1042">
        </g>
        <g id="text1117">
            <path id="path1119" d="M51.766,18L48.508,18L48.508,5.938L54.266,5.938L54.266,8.773L51.766,8.773L51.766,10.531L54.094,10.531L54.094,13.258L51.766,13.258L51.766,18Z" style="fill:rgb(158,161,168);fill-rule:nonzero;"/>
            <path id="path1121" d="M61.242,18L55.539,18L55.539,5.938L58.797,5.938L58.797,15.102L61.242,15.102L61.242,18Z" style="fill:rgb(158,161,168);fill-rule:nonzero;"/>
            <rect id="path1123" x="62.227" y="5.938" width="3.258" height="12.063" style="fill:rgb(158,161,168);fill-rule:nonzero;"/>
            <path id="path1125" d="M70.422,18L67.164,18L67.164,5.938L70.32,5.938C71.893,5.938 73.06,6.258 73.82,6.898C74.716,7.654 75.164,8.703 75.164,10.047C75.164,11.51 74.688,12.602 73.734,13.32C73.083,13.805 72.148,14.047 70.93,14.047L70.422,14.047L70.422,18ZM70.422,11.336L70.57,11.344C70.966,11.344 71.281,11.224 71.516,10.984C71.75,10.74 71.867,10.406 71.867,9.984C71.867,9.568 71.753,9.229 71.523,8.969C71.294,8.703 71.003,8.57 70.648,8.57L70.422,8.57L70.422,11.336Z" style="fill:rgb(158,161,168);fill-rule:nonzero;"/>
            <path id="path1127" d="M79.578,18L76.32,18L76.32,5.938L79.477,5.938C81.049,5.938 82.216,6.258 82.977,6.898C83.872,7.654 84.32,8.703 84.32,10.047C84.32,11.51 83.844,12.602 82.891,13.32C82.24,13.805 81.305,14.047 80.086,14.047L79.578,14.047L79.578,18ZM79.578,11.336L79.727,11.344C80.122,11.344 80.437,11.224 80.672,10.984C80.906,10.74 81.023,10.406 81.023,9.984C81.023,9.568 80.909,9.229 80.68,8.969C80.451,8.703 80.159,8.57 79.805,8.57L79.578,8.57L79.578,11.336Z" style="fill:rgb(158,161,168);fill-rule:nonzero;"/>
            <path id="path1129" d="M85.477,18L85.477,5.938L91.531,5.938L91.531,8.773L88.734,8.773L88.734,10.531L91.242,10.531L91.242,13.258L88.734,13.258L88.734,15.102L91.531,15.102L91.531,18L85.477,18Z" style="fill:rgb(158,161,168);fill-rule:nonzero;"/>
            <path id="path1131" d="M101.492,18L97.969,18L96.359,13.703C96.344,13.63 96.315,13.534 96.273,13.414C96.237,13.294 96.19,13.151 96.133,12.984L96.156,13.781L96.156,18L92.914,18L92.914,5.938L96.25,5.938C97.719,5.938 98.818,6.227 99.547,6.805C100.474,7.544 100.938,8.596 100.938,9.961C100.938,11.419 100.315,12.427 99.07,12.984L101.492,18ZM96.172,11.523L96.391,11.523C96.766,11.523 97.078,11.38 97.328,11.094C97.578,10.807 97.703,10.443 97.703,10C97.703,9.099 97.232,8.648 96.289,8.648L96.172,8.648L96.172,11.523Z" style="fill:rgb(158,161,168);fill-rule:nonzero;"/>
        </g>
        <g id="g1188" transform="matrix(1,0,0,1,12,-14)">
            <path id="path1173" d="M7.063,60.953L9.126,60.953L9.126,70L7.96,70L7.96,61.99L7.063,61.99L7.063,60.953Z" style="fill:rgb(158,161,168);fill-rule:nonzero;"/>
            <path id="path1170" d="M7.38,89.895L6.185,89.895L6.173,89.537C6.173,88.549 6.321,87.854 6.618,87.451C6.919,87.045 7.423,86.842 8.13,86.842C9.462,86.842 10.128,87.58 10.128,89.057C10.128,90.053 9.63,91.488 8.634,93.363L7.913,94.717C7.909,94.725 7.897,94.748 7.878,94.787C7.858,94.826 7.831,94.883 7.796,94.957L10.034,94.957L10.034,96L6.062,96C6.128,95.852 6.267,95.557 6.478,95.115C6.688,94.674 6.976,94.078 7.339,93.328C7.647,92.672 7.905,92.115 8.112,91.658C8.319,91.201 8.476,90.826 8.581,90.533C8.792,89.947 8.897,89.441 8.897,89.016C8.897,88.266 8.638,87.891 8.118,87.891C7.618,87.891 7.368,88.355 7.368,89.285L7.374,89.801L7.38,89.895Z" style="fill:rgb(158,161,168);fill-rule:nonzero;"/>
            <path id="path1167" d="M7.427,115.273L6.267,115.273L6.267,115.033C6.267,114.631 6.3,114.285 6.366,113.996C6.437,113.707 6.544,113.469 6.688,113.281C6.837,113.094 7.024,112.957 7.251,112.871C7.478,112.781 7.749,112.736 8.065,112.736C8.729,112.736 9.214,112.924 9.519,113.299C9.823,113.674 9.976,114.27 9.976,115.086C9.976,115.758 9.905,116.242 9.765,116.539C9.628,116.84 9.364,117.068 8.974,117.225C9.396,117.369 9.687,117.594 9.847,117.898C10.007,118.199 10.087,118.682 10.087,119.346C10.087,120.256 9.915,120.926 9.571,121.355C9.228,121.785 8.692,122 7.966,122C6.724,122 6.103,121.287 6.103,119.861L6.103,119.768L6.103,119.703C6.103,119.66 6.104,119.633 6.108,119.621L7.251,119.621C7.247,119.687 7.243,119.746 7.239,119.797L7.239,119.914C7.239,120.223 7.306,120.469 7.438,120.652C7.575,120.836 7.761,120.928 7.995,120.928C8.147,120.928 8.276,120.898 8.382,120.84C8.491,120.777 8.579,120.68 8.646,120.547C8.716,120.41 8.767,120.234 8.798,120.02C8.829,119.805 8.845,119.545 8.845,119.24C8.845,118.689 8.761,118.293 8.593,118.051C8.429,117.809 8.153,117.687 7.767,117.687C7.724,117.687 7.677,117.691 7.626,117.699C7.575,117.703 7.517,117.709 7.45,117.717L7.45,116.662L7.62,116.662C8.093,116.662 8.413,116.561 8.581,116.358C8.749,116.154 8.833,115.77 8.833,115.203C8.833,114.266 8.597,113.797 8.124,113.797C7.655,113.797 7.421,114.197 7.421,114.998L7.427,115.273Z" style="fill:rgb(158,161,168);fill-rule:nonzero;"/>
            <path id="path1164" d="M8.479,138.953L9.609,138.953L9.609,144.59L10.189,144.59L10.189,145.521L9.609,145.521L9.609,148L8.479,148L8.479,145.521L6,145.521L6,144.484L8.479,138.953ZM8.479,144.59L8.479,140.793L6.955,144.59L8.479,144.59Z" style="fill:rgb(158,161,168);fill-rule:nonzero;"/>
            <path id="path1161" d="M7.069,164.848L9.946,164.848L9.946,165.896L7.995,165.896L7.702,168.17L7.849,168.17C8.204,168.17 8.519,168.227 8.792,168.34C9.069,168.453 9.302,168.619 9.489,168.838C9.677,169.057 9.819,169.326 9.917,169.646C10.015,169.967 10.063,170.332 10.063,170.742C10.063,171.758 9.843,172.557 9.401,173.139C8.96,173.713 8.347,174 7.562,174C7.12,174 6.642,173.875 6.126,173.625L6.431,172.547C6.849,172.766 7.198,172.875 7.479,172.875C7.878,172.875 8.194,172.695 8.429,172.336C8.663,171.973 8.78,171.484 8.78,170.871C8.78,169.711 8.282,169.131 7.286,169.131C7.04,169.131 6.792,169.168 6.542,169.242L7.069,164.848Z" style="fill:rgb(158,161,168);fill-rule:nonzero;"/>
            <path id="path1158" d="M7.983,190.848L9.278,190.848L8.429,192.588C8.28,192.904 8.13,193.24 7.978,193.596C7.829,193.951 7.673,194.33 7.509,194.732C7.849,194.463 8.175,194.328 8.487,194.328C8.991,194.328 9.38,194.547 9.653,194.984C9.911,195.395 10.04,196.129 10.04,197.188C10.04,198.188 9.89,198.908 9.589,199.35C9.288,199.783 8.798,200 8.118,200C7.423,200 6.921,199.76 6.612,199.279C6.304,198.795 6.149,198.006 6.149,196.912C6.149,195.994 6.271,195.119 6.513,194.287C6.638,193.873 6.821,193.385 7.063,192.822C7.31,192.26 7.616,191.602 7.983,190.848ZM8.874,197.182C8.874,196.869 8.86,196.604 8.833,196.385C8.806,196.162 8.761,195.982 8.698,195.846C8.636,195.705 8.556,195.604 8.458,195.541C8.364,195.475 8.249,195.441 8.112,195.441C7.976,195.441 7.858,195.475 7.761,195.541C7.667,195.603 7.589,195.703 7.526,195.84C7.464,195.977 7.419,196.156 7.392,196.379C7.364,196.598 7.351,196.861 7.351,197.17C7.351,198.353 7.604,198.945 8.112,198.945C8.62,198.945 8.874,198.357 8.874,197.182L8.874,197.182Z" style="fill:rgb(158,161,168);fill-rule:nonzero;"/>
        </g>
        <g id="g1214" transform="matrix(1,0,0,1,12,150)">
            <path id="path1190" d="M7.063,60.953L9.126,60.953L9.126,70L7.96,70L7.96,61.99L7.063,61.99L7.063,60.953Z" style="fill:rgb(158,161,168);fill-rule:nonzero;"/>
            <path id="path1194" d="M7.38,89.895L6.185,89.895L6.173,89.537C6.173,88.549 6.321,87.854 6.618,87.451C6.919,87.045 7.423,86.842 8.13,86.842C9.462,86.842 10.128,87.58 10.128,89.057C10.128,90.053 9.63,91.488 8.634,93.363L7.913,94.717C7.909,94.725 7.897,94.748 7.878,94.787C7.858,94.826 7.831,94.883 7.796,94.957L10.034,94.957L10.034,96L6.062,96C6.128,95.852 6.267,95.557 6.478,95.115C6.688,94.674 6.976,94.078 7.339,93.328C7.647,92.672 7.905,92.115 8.112,91.658C8.319,91.201 8.476,90.826 8.581,90.533C8.792,89.947 8.897,89.441 8.897,89.016C8.897,88.266 8.638,87.891 8.118,87.891C7.618,87.891 7.368,88.355 7.368,89.285L7.374,89.801L7.38,89.895Z" style="fill:rgb(158,161,168);fill-rule:nonzero;"/>
            <path id="path1198" d="M7.427,115.273L6.267,115.273L6.267,115.033C6.267,114.631 6.3,114.285 6.366,113.996C6.437,113.707 6.544,113.469 6.688,113.281C6.837,113.094 7.024,112.957 7.251,112.871C7.478,112.781 7.749,112.736 8.065,112.736C8.729,112.736 9.214,112.924 9.519,113.299C9.823,113.674 9.976,114.27 9.976,115.086C9.976,115.758 9.905,116.242 9.765,116.539C9.628,116.84 9.364,117.068 8.974,117.225C9.396,117.369 9.687,117.594 9.847,117.898C10.007,118.199 10.087,118.682 10.087,119.346C10.087,120.256 9.915,120.926 9.571,121.355C9.228,121.785 8.692,122 7.966,122C6.724,122 6.103,121.287 6.103,119.861L6.103,119.768L6.103,119.703C6.103,119.66 6.104,119.633 6.108,119.621L7.251,119.621C7.247,119.687 7.243,119.746 7.239,119.797L7.239,119.914C7.239,120.223 7.306,120.469 7.438,120.652C7.575,120.836 7.761,120.928 7.995,120.928C8.147,120.928 8.276,120.898 8.382,120.84C8.491,120.777 8.579,120.68 8.646,120.547C8.716,120.41 8.767,120.234 8.798,120.02C8.829,119.805 8.845,119.545 8.845,119.24C8.845,118.689 8.761,118.293 8.593,118.051C8.429,117.809 8.153,117.687 7.767,117.687C7.724,117.687 7.677,117.691 7.626,117.699C7.575,117.703 7.517,117.709 7.45,117.717L7.45,116.662L7.62,116.662C8.093,116.662 8.413,116.561 8.581,116.358C8.749,116.154 8.833,115.77 8.833,115.203C8.833,114.266 8.597,113.797 8.124,113.797C7.655,113.797 7.421,114.197 7.421,114.998L7.427,115.273Z" style="fill:rgb(158,161,168);fill-rule:nonzero;"/>
            <path id="path1202" d="M8.479,138.953L9.609,138.953L9.609,144.59L10.189,144.59L10.189,145.521L9.609,145.521L9.609,148L8.479,148L8.479,145.521L6,145.521L6,144.484L8.479,138.953ZM8.479,144.59L8.479,140.793L6.955,144.59L8.479,144.59Z" style="fill:rgb(158,161,168);fill-rule:nonzero;"/>
            <path id="path1206" d="M7.069,164.848L9.946,164.848L9.946,165.896L7.995,165.896L7.702,168.17L7.849,168.17C8.204,168.17 8.519,168.227 8.792,168.34C9.069,168.453 9.302,168.619 9.489,168.838C9.677,169.057 9.819,169.326 9.917,169.646C10.015,169.967 10.063,170.332 10.063,170.742C10.063,171.758 9.843,172.557 9.401,173.139C8.96,173.713 8.347,174 7.562,174C7.12,174 6.642,173.875 6.126,173.625L6.431,172.547C6.849,172.766 7.198,172.875 7.479,172.875C7.878,172.875 8.194,172.695 8.429,172.336C8.663,171.973 8.78,171.484 8.78,170.871C8.78,169.711 8.282,169.131 7.286,169.131C7.04,169.131 6.792,169.168 6.542,169.242L7.069,164.848Z" style="fill:rgb(158,161,168);fill-rule:nonzero;"/>
            <path id="path1210" d="M7.983,190.848L9.278,190.848L8.429,192.588C8.28,192.904 8.13,193.24 7.978,193.596C7.829,193.951 7.673,194.33 7.509,194.732C7.849,194.463 8.175,194.328 8.487,194.328C8.991,194.328 9.38,194.547 9.653,194.984C9.911,195.395 10.04,196.129 10.04,197.188C10.04,198.188 9.89,198.908 9.589,199.35C9.288,199.783 8.798,200 8.118,200C7.423,200 6.921,199.76 6.612,199.279C6.304,198.795 6.149,198.006 6.149,196.912C6.149,195.994 6.271,195.119 6.513,194.287C6.638,193.873 6.821,193.385 7.063,192.822C7.31,192.26 7.616,191.602 7.983,190.848ZM8.874,197.182C8.874,196.869 8.86,196.604 8.833,196.385C8.806,196.162 8.761,195.982 8.698,195.846C8.636,195.705 8.556,195.604 8.458,195.541C8.364,195.475 8.249,195.441 8.112,195.441C7.976,195.441 7.858,195.475 7.761,195.541C7.667,195.603 7.589,195.703 7.526,195.84C7.464,195.977 7.419,196.156 7.392,196.379C7.364,196.598 7.351,196.861 7.351,197.17C7.351,198.353 7.604,198.945 8.112,198.945C8.62,198.945 8.874,198.357 8.874,197.182L8.874,197.182Z" style="fill:rgb(158,161,168);fill-rule:nonzero;"/>
        </g>
        <g id="text1218" transform="matrix(0.908641,0,0,1.10054,10,0)">
            <path id="path1263" d="M21.767,23.587L24.971,23.587L24.971,24.448L23.868,24.448L23.868,30.894L22.903,30.894L22.903,24.448L21.767,24.448L21.767,23.587Z" style="fill:rgb(158,161,168);fill-rule:nonzero;"/>
            <path id="path1265" d="M25.51,23.587L26.807,23.587C27.343,23.587 27.742,23.715 28.004,23.97C28.335,24.301 28.501,24.808 28.501,25.489C28.501,26.013 28.413,26.434 28.236,26.753C28.063,27.068 27.813,27.264 27.488,27.34L28.832,30.894L27.834,30.894L26.495,27.316L26.495,30.894L25.51,30.894L25.51,23.587ZM26.495,26.824C26.876,26.824 27.146,26.736 27.304,26.559C27.462,26.382 27.54,26.084 27.54,25.664C27.54,25.437 27.523,25.243 27.488,25.082C27.457,24.921 27.405,24.79 27.332,24.689C27.263,24.589 27.171,24.514 27.058,24.467C26.947,24.42 26.815,24.396 26.66,24.396L26.495,24.396L26.495,26.824Z" style="fill:rgb(158,161,168);fill-rule:nonzero;"/>
            <rect id="path1267" x="29.599" y="23.587" width="0.984" height="7.307" style="fill:rgb(158,161,168);fill-rule:nonzero;"/>
            <path id="path1269" d="M33.47,27.051L35.259,27.051L35.259,27.335C35.259,28.758 35.135,29.719 34.885,30.217C34.639,30.728 34.179,30.984 33.503,30.984C32.806,30.984 32.309,30.7 32.013,30.132C31.719,29.564 31.573,28.61 31.573,27.269C31.573,25.735 31.733,24.715 32.055,24.207C32.358,23.73 32.823,23.492 33.451,23.492C33.931,23.492 34.305,23.607 34.573,23.838C34.844,24.071 35.056,24.454 35.207,24.988L34.289,25.371C34.248,25.179 34.202,25.018 34.152,24.888C34.101,24.756 34.046,24.653 33.986,24.581C33.866,24.432 33.686,24.358 33.447,24.358C33.118,24.358 32.894,24.56 32.775,24.964C32.655,25.387 32.595,26.146 32.595,27.24C32.595,28.348 32.656,29.097 32.779,29.488C32.902,29.879 33.134,30.075 33.475,30.075C33.787,30.075 34.007,29.936 34.133,29.659C34.262,29.362 34.327,28.886 34.327,28.229L34.327,28.031L34.327,27.884L33.47,27.884L33.47,27.051Z" style="fill:rgb(158,161,168);fill-rule:nonzero;"/>
            <rect id="path1271" x="38.25" y="23.587" width="0.984" height="7.307" style="fill:rgb(158,161,168);fill-rule:nonzero;"/>
            <path id="path1273" d="M40.37,23.587L41.288,23.587L42.268,26.502C42.552,27.325 42.803,28.204 43.02,29.138C42.942,28.573 42.883,28.062 42.845,27.605C42.807,27.147 42.789,26.717 42.789,26.313L42.789,23.587L43.778,23.587L43.778,30.894L42.855,30.894L41.752,27.605C41.651,27.299 41.555,26.985 41.463,26.663C41.375,26.341 41.293,26.004 41.217,25.65C41.211,25.606 41.2,25.552 41.184,25.489C41.172,25.426 41.156,25.354 41.137,25.272C41.146,25.354 41.154,25.425 41.161,25.485C41.167,25.541 41.172,25.59 41.175,25.631L41.227,26.374L41.279,27.278C41.282,27.329 41.284,27.39 41.284,27.463C41.287,27.535 41.289,27.617 41.289,27.709L41.341,30.894L40.371,30.894L40.37,23.587Z" style="fill:rgb(158,161,168);fill-rule:nonzero;"/>
        </g>
        <g id="text1222" transform="matrix(1,0,0,1,8.38623,0)">
            <path id="path1256" d="M56.758,25.854L60.284,25.854L60.284,26.802L59.07,26.802L59.07,33.896L58.008,33.896L58.008,26.802L56.758,26.802L56.758,25.854Z" style="fill:rgb(158,161,168);fill-rule:nonzero;"/>
            <path id="path1258" d="M61.877,25.854L62.721,25.854L64.445,33.896L63.372,33.896L63.07,32.328L61.476,32.328L61.169,33.896L60.127,33.896L61.877,25.854ZM62.914,31.49L62.674,30.208C62.514,29.337 62.384,28.406 62.284,27.417C62.235,27.899 62.172,28.389 62.096,28.885C62.02,29.378 61.929,29.903 61.825,30.458L61.627,31.49L62.914,31.49Z" style="fill:rgb(158,161,168);fill-rule:nonzero;"/>
            <path id="path1260" d="M65.086,25.854L66.513,25.854C67.2,25.854 67.7,26.028 68.013,26.375C68.325,26.726 68.481,27.281 68.481,28.042C68.481,29.111 68.167,29.802 67.539,30.115C67.223,30.257 66.766,30.328 66.169,30.328L66.169,33.896L65.086,33.896L65.086,25.854ZM66.169,29.401C66.617,29.401 66.926,29.311 67.096,29.13C67.27,28.946 67.356,28.62 67.356,28.151C67.356,27.672 67.273,27.321 67.106,27.099C66.94,26.877 66.678,26.766 66.32,26.766L66.169,26.766L66.169,29.401Z" style="fill:rgb(158,161,168);fill-rule:nonzero;"/>
        </g>
        <g id="text1226" transform="matrix(0.802344,0,0,1.24635,34,0)">
            <path id="path1241" d="M106.514,20.828L109.343,20.828L109.343,21.588L108.369,21.588L108.369,27.28L107.517,27.28L107.517,21.588L106.514,21.588L106.514,20.828Z" style="fill:rgb(158,161,168);fill-rule:nonzero;"/>
            <path id="path1243" d="M109.819,20.828L110.964,20.828C111.438,20.828 111.79,20.94 112.022,21.166C112.314,21.459 112.46,21.906 112.46,22.507C112.46,22.97 112.382,23.342 112.226,23.623C112.073,23.902 111.853,24.074 111.566,24.141L112.753,27.28L111.871,27.28L110.689,24.12L110.689,27.28L109.819,27.28L109.819,20.828ZM110.689,23.686C111.026,23.686 111.264,23.608 111.403,23.452C111.543,23.296 111.612,23.033 111.612,22.662C111.612,22.461 111.597,22.29 111.566,22.148C111.538,22.006 111.492,21.89 111.428,21.801C111.367,21.712 111.286,21.647 111.186,21.605C111.088,21.563 110.971,21.542 110.835,21.542L110.689,21.542L110.689,23.686Z" style="fill:rgb(158,161,168);fill-rule:nonzero;"/>
            <rect id="path1245" x="113.43" y="20.828" width="0.869" height="6.452" style="fill:rgb(158,161,168);fill-rule:nonzero;"/>
            <path id="path1247" d="M116.848,23.886L118.428,23.886L118.428,24.137C118.428,25.394 118.318,26.242 118.098,26.682C117.88,27.133 117.474,27.359 116.878,27.359C116.262,27.359 115.823,27.108 115.561,26.607C115.302,26.105 115.173,25.263 115.173,24.079C115.173,22.725 115.315,21.823 115.599,21.375C115.866,20.954 116.277,20.744 116.832,20.744C117.255,20.744 117.585,20.846 117.822,21.049C118.062,21.255 118.248,21.594 118.382,22.064L117.571,22.403C117.535,22.233 117.495,22.091 117.45,21.977C117.405,21.86 117.357,21.769 117.304,21.705C117.198,21.574 117.039,21.509 116.827,21.509C116.538,21.509 116.34,21.687 116.234,22.044C116.128,22.417 116.075,23.087 116.075,24.054C116.075,25.031 116.13,25.693 116.238,26.039C116.347,26.384 116.552,26.557 116.852,26.557C117.128,26.557 117.322,26.434 117.433,26.189C117.548,25.927 117.605,25.506 117.605,24.927L117.605,24.751L117.605,24.622L116.848,24.622L116.848,23.886Z" style="fill:rgb(158,161,168);fill-rule:nonzero;"/>
            <path id="path1249" d="M124.299,24.212C124.299,25.352 124.172,26.161 123.919,26.64C123.665,27.119 123.241,27.359 122.644,27.359C122.018,27.359 121.576,27.101 121.32,26.586C121.066,26.082 120.939,25.186 120.939,23.899C120.939,22.751 121.065,21.939 121.316,21.463C121.569,20.984 121.998,20.744 122.603,20.744C123.143,20.744 123.544,20.929 123.806,21.3C123.979,21.548 124.104,21.9 124.182,22.357C124.26,22.78 124.299,23.399 124.299,24.212L124.299,24.212ZM123.388,24.304C123.388,23.187 123.338,22.446 123.238,22.081C123.138,21.713 122.933,21.53 122.624,21.53C122.314,21.53 122.108,21.698 122.005,22.035C121.905,22.375 121.855,23.058 121.855,24.083C121.855,25.027 121.908,25.682 122.013,26.047C122.122,26.392 122.325,26.565 122.624,26.565C122.916,26.565 123.117,26.404 123.225,26.08C123.334,25.76 123.388,25.168 123.388,24.304L123.388,24.304Z" style="fill:rgb(158,161,168);fill-rule:nonzero;"/>
            <path id="path1251" d="M125.164,20.828L126.017,20.828L126.017,25.387C126.017,25.852 126.059,26.161 126.142,26.314C126.228,26.468 126.398,26.544 126.652,26.544C126.905,26.544 127.073,26.477 127.153,26.344C127.237,26.207 127.279,25.93 127.279,25.512L127.279,20.828L128.131,20.828L128.131,25.512C128.131,26.214 128.024,26.689 127.809,26.937C127.553,27.218 127.162,27.359 126.635,27.359C126.056,27.359 125.648,27.178 125.411,26.816C125.246,26.568 125.164,26.091 125.164,25.387L125.164,20.828Z" style="fill:rgb(158,161,168);fill-rule:nonzero;"/>
            <path id="path1253" d="M128.612,20.828L131.441,20.828L131.441,21.588L130.467,21.588L130.467,27.28L129.615,27.28L129.615,21.588L128.612,21.588L128.612,20.828Z" style="fill:rgb(158,161,168);fill-rule:nonzero;"/>
        </g>
        <g id="text1230" transform="matrix(1,0,0,1,-30.0688,0)">
            <path id="path1232" d="M122.547,29.771L124.516,29.771L124.516,30.083C124.516,31.649 124.378,32.707 124.104,33.255C123.833,33.818 123.326,34.099 122.583,34.099C121.816,34.099 121.269,33.786 120.943,33.161C120.62,32.536 120.458,31.486 120.458,30.01C120.458,28.323 120.635,27.2 120.99,26.641C121.323,26.116 121.835,25.854 122.526,25.854C123.054,25.854 123.465,25.981 123.76,26.234C124.059,26.491 124.292,26.913 124.458,27.5L123.448,27.922C123.403,27.71 123.352,27.533 123.297,27.391C123.241,27.245 123.181,27.132 123.115,27.052C122.983,26.889 122.785,26.807 122.521,26.807C122.16,26.807 121.913,27.03 121.781,27.474C121.649,27.939 121.583,28.774 121.583,29.979C121.583,31.198 121.651,32.023 121.786,32.453C121.922,32.884 122.177,33.099 122.552,33.099C122.896,33.099 123.137,32.946 123.276,32.641C123.418,32.314 123.49,31.79 123.49,31.068L123.49,30.849L123.49,30.687L122.547,30.687L122.547,29.771Z" style="fill:rgb(158,161,168);fill-rule:nonzero;"/>
            <path id="path1234" d="M126.745,25.958L127.589,25.958L129.312,34L128.24,34L127.937,32.432L126.344,32.432L126.036,34L124.995,34L126.745,25.958ZM127.781,31.594L127.542,30.312C127.382,29.441 127.252,28.51 127.151,27.521C127.102,28.003 127.04,28.493 126.964,28.99C126.887,29.483 126.797,30.007 126.693,30.562L126.495,31.594L127.781,31.594Z" style="fill:rgb(158,161,168);fill-rule:nonzero;"/>
            <path id="path1236" d="M129.146,25.958L132.672,25.958L132.672,26.906L131.458,26.906L131.458,34L130.396,34L130.396,26.906L129.146,26.906L129.146,25.958Z" style="fill:rgb(158,161,168);fill-rule:nonzero;"/>
            <path id="path1238" d="M133.266,25.958L136.146,25.958L136.146,26.875L134.349,26.875L134.349,29.422L135.943,29.422L135.943,30.339L134.349,30.339L134.349,33.083L136.146,33.083L136.146,34L133.266,34L133.266,25.958Z" style="fill:rgb(158,161,168);fill-rule:nonzero;"/>
        </g>
        <g id="g1345" transform="matrix(1,0,0,1,162.596,-2.7187)">
            <path id="path1308" d="M-155.872,63.64L-158.315,63.64L-158.315,54.593L-153.997,54.593L-153.997,56.72L-155.872,56.72L-155.872,58.038L-154.126,58.038L-154.126,60.083L-155.872,60.083L-155.872,63.64Z" style="fill:rgb(158,161,168);fill-rule:nonzero;"/>
            <path id="path1310" d="M-154.018,78.64L-158.295,78.64L-158.295,69.593L-155.852,69.593L-155.852,76.466L-154.018,76.466L-154.018,78.64Z" style="fill:rgb(158,161,168);fill-rule:nonzero;"/>
            <rect id="path1312" x="-157.378" y="84.593" width="2.443" height="9.047" style="fill:rgb(158,161,168);fill-rule:nonzero;"/>
            <path id="path1314" d="M-156.713,108.64L-159.156,108.64L-159.156,99.593L-156.789,99.593C-155.609,99.593 -154.734,99.833 -154.164,100.313C-153.492,100.88 -153.156,101.667 -153.156,102.675C-153.156,103.772 -153.514,104.591 -154.229,105.13C-154.717,105.493 -155.418,105.675 -156.332,105.675L-156.713,105.675L-156.713,108.64ZM-156.713,103.642L-156.602,103.648C-156.305,103.648 -156.068,103.558 -155.893,103.378C-155.717,103.194 -155.629,102.944 -155.629,102.628C-155.629,102.316 -155.715,102.062 -155.887,101.866C-156.059,101.667 -156.277,101.568 -156.543,101.568L-156.713,101.568L-156.713,103.642Z" style="fill:rgb(158,161,168);fill-rule:nonzero;"/>
            <path id="path1316" d="M-155.872,123.64L-158.315,123.64L-158.315,114.593L-153.997,114.593L-153.997,116.72L-155.872,116.72L-155.872,118.038L-154.126,118.038L-154.126,120.083L-155.872,120.083L-155.872,123.64Z" style="fill:rgb(158,161,168);fill-rule:nonzero;"/>
            <path id="path1318" d="M-154.018,138.64L-158.295,138.64L-158.295,129.593L-155.852,129.593L-155.852,136.466L-154.018,136.466L-154.018,138.64Z" style="fill:rgb(158,161,168);fill-rule:nonzero;"/>
            <path id="path1320" d="M-152.717,149.145C-152.717,150.524 -153.031,151.645 -153.66,152.509C-154.285,153.368 -155.1,153.798 -156.104,153.798C-156.994,153.798 -157.758,153.468 -158.395,152.808C-159.195,151.972 -159.596,150.718 -159.596,149.046C-159.596,147.444 -159.178,146.22 -158.342,145.372C-157.721,144.743 -156.984,144.429 -156.133,144.429C-155.09,144.429 -154.26,144.854 -153.643,145.706C-153.025,146.558 -152.717,147.704 -152.717,149.145ZM-155.254,149.163C-155.254,147.526 -155.543,146.708 -156.121,146.708C-156.41,146.708 -156.641,146.923 -156.813,147.353C-156.98,147.751 -157.064,148.337 -157.064,149.11C-157.064,149.872 -156.986,150.464 -156.83,150.886C-156.67,151.304 -156.449,151.513 -156.168,151.513C-155.879,151.513 -155.656,151.306 -155.5,150.892C-155.336,150.478 -155.254,149.902 -155.254,149.163L-155.254,149.163Z" style="fill:rgb(158,161,168);fill-rule:nonzero;"/>
            <path id="path1322" d="M-156.713,168.64L-159.156,168.64L-159.156,159.593L-156.789,159.593C-155.609,159.593 -154.734,159.833 -154.164,160.313C-153.492,160.88 -153.156,161.667 -153.156,162.675C-153.156,163.772 -153.514,164.591 -154.229,165.13C-154.717,165.493 -155.418,165.675 -156.332,165.675L-156.713,165.675L-156.713,168.64ZM-156.713,163.642L-156.602,163.648C-156.305,163.648 -156.068,163.558 -155.893,163.378C-155.717,163.194 -155.629,162.944 -155.629,162.628C-155.629,162.316 -155.715,162.062 -155.887,161.866C-156.059,161.667 -156.277,161.568 -156.543,161.568L-156.713,161.568L-156.713,163.642Z" style="fill:rgb(158,161,168);fill-rule:nonzero;"/>
            <path id="path1324" d="M-158.5,183.417L-158.5,180.575C-158.02,181.231 -157.5,181.56 -156.941,181.56C-156.73,181.56 -156.559,181.505 -156.426,181.395C-156.293,181.282 -156.227,181.142 -156.227,180.974C-156.227,180.731 -156.371,180.495 -156.66,180.265L-157.059,179.954C-157.324,179.755 -157.551,179.558 -157.738,179.362C-157.926,179.163 -158.078,178.96 -158.195,178.753C-158.313,178.542 -158.398,178.325 -158.453,178.102C-158.508,177.88 -158.535,177.645 -158.535,177.399C-158.535,176.977 -158.438,176.536 -158.242,176.075C-158.145,175.86 -158.031,175.665 -157.902,175.489C-157.773,175.31 -157.625,175.151 -157.457,175.015C-156.996,174.624 -156.439,174.429 -155.787,174.429C-155.205,174.429 -154.619,174.583 -154.029,174.892L-154.029,177.657C-154.229,177.349 -154.455,177.106 -154.709,176.931C-154.963,176.751 -155.213,176.661 -155.459,176.661C-155.646,176.661 -155.801,176.716 -155.922,176.825C-156.047,176.931 -156.109,177.058 -156.109,177.206C-156.109,177.448 -155.943,177.688 -155.611,177.927L-155.225,178.214C-154.709,178.585 -154.34,178.966 -154.117,179.356C-153.891,179.747 -153.777,180.204 -153.777,180.727C-153.777,181.618 -154.049,182.352 -154.592,182.931C-155.135,183.509 -155.822,183.798 -156.654,183.798C-157.229,183.798 -157.844,183.671 -158.5,183.417L-158.5,183.417Z" style="fill:rgb(158,161,168);fill-rule:nonzero;"/>
        </g>
        <g id="g1380" transform="matrix(1,0,0,1,242.798,94.921)">
            <path id="path1359" d="M-235.21,160L-237.653,160L-237.653,153.121L-239.001,153.121L-239.001,150.953L-233.81,150.953L-233.81,153.121L-235.21,153.121L-235.21,160Z" style="fill:rgb(158,161,168);fill-rule:nonzero;"/>
            <path id="path1361" d="M-233.189,175L-235.831,175L-237.038,171.777C-237.05,171.723 -237.071,171.65 -237.103,171.561C-237.13,171.471 -237.165,171.363 -237.208,171.238L-237.19,171.836L-237.19,175L-239.622,175L-239.622,165.953L-237.12,165.953C-236.018,165.953 -235.194,166.17 -234.647,166.604C-233.952,167.158 -233.604,167.947 -233.604,168.971C-233.604,170.064 -234.071,170.82 -235.005,171.238L-233.189,175ZM-237.179,170.143L-237.015,170.143C-236.733,170.143 -236.499,170.035 -236.312,169.82C-236.124,169.605 -236.03,169.332 -236.03,169C-236.03,168.324 -236.384,167.986 -237.091,167.986L-237.179,167.986L-237.179,170.143Z" style="fill:rgb(158,161,168);fill-rule:nonzero;"/>
            <rect id="path1363" x="-237.627" y="180.953" width="2.443" height="9.047" style="fill:rgb(158,161,168);fill-rule:nonzero;"/>
            <path id="path1365" d="M-236.423,199.768L-233.013,199.768L-233.013,200.143C-233.013,201.885 -233.272,203.139 -233.792,203.904C-234.358,204.74 -235.196,205.158 -236.306,205.158C-237.395,205.158 -238.251,204.748 -238.872,203.928C-239.489,203.1 -239.798,201.963 -239.798,200.518C-239.798,199.053 -239.487,197.898 -238.866,197.055C-238.245,196.211 -237.395,195.789 -236.317,195.789C-234.888,195.789 -233.851,196.535 -233.206,198.027L-235.573,198.895C-235.608,198.609 -235.69,198.385 -235.819,198.221C-235.944,198.053 -236.103,197.969 -236.294,197.969C-236.966,197.969 -237.302,198.893 -237.302,200.74C-237.302,201.525 -237.228,202.096 -237.079,202.451C-236.931,202.807 -236.694,202.984 -236.37,202.984C-236.241,202.984 -236.124,202.953 -236.019,202.891C-235.913,202.828 -235.825,202.74 -235.755,202.627C-235.681,202.514 -235.624,202.377 -235.585,202.217C-235.542,202.053 -235.521,201.871 -235.521,201.672L-236.423,201.672L-236.423,199.768Z" style="fill:rgb(158,161,168);fill-rule:nonzero;"/>
            <path id="path1367" d="M-238.749,219.777L-238.749,216.936C-238.269,217.592 -237.749,217.92 -237.19,217.92C-236.98,217.92 -236.808,217.865 -236.675,217.756C-236.542,217.643 -236.476,217.502 -236.476,217.334C-236.476,217.092 -236.62,216.855 -236.909,216.625L-237.308,216.314C-237.573,216.115 -237.8,215.918 -237.987,215.723C-238.175,215.523 -238.327,215.32 -238.444,215.113C-238.562,214.902 -238.647,214.686 -238.702,214.463C-238.757,214.24 -238.784,214.006 -238.784,213.76C-238.784,213.338 -238.687,212.896 -238.491,212.436C-238.394,212.221 -238.28,212.025 -238.151,211.85C-238.022,211.67 -237.874,211.512 -237.706,211.375C-237.245,210.984 -236.688,210.789 -236.036,210.789C-235.454,210.789 -234.868,210.943 -234.278,211.252L-234.278,214.018C-234.478,213.709 -234.704,213.467 -234.958,213.291C-235.212,213.111 -235.462,213.021 -235.708,213.021C-235.895,213.021 -236.05,213.076 -236.171,213.186C-236.296,213.291 -236.358,213.418 -236.358,213.566C-236.358,213.809 -236.192,214.049 -235.86,214.287L-235.474,214.574C-234.958,214.945 -234.589,215.326 -234.366,215.717C-234.14,216.107 -234.026,216.564 -234.026,217.088C-234.026,217.979 -234.298,218.713 -234.841,219.291C-235.384,219.869 -236.071,220.158 -236.903,220.158C-237.478,220.158 -238.093,220.031 -238.749,219.777L-238.749,219.777Z" style="fill:rgb(158,161,168);fill-rule:nonzero;"/>
        </g>
    </g>
</svg>
