<?xml version="1.0" encoding="UTF-8" standalone="no"?>
<!DOCTYPE svg PUBLIC "-//W3C//DTD SVG 1.1//EN" "http://www.w3.org/Graphics/SVG/1.1/DTD/svg11.dtd">
<svg width="100%" height="100%" viewBox="0 0 450 380" version="1.1" xmlns="http://www.w3.org/2000/svg" xmlns:xlink="http://www.w3.org/1999/xlink" xml:space="preserve" xmlns:serif="http://www.serif.com/" style="fill-rule:evenodd;clip-rule:evenodd;stroke-linejoin:round;stroke-miterlimit:2;">
    <g id="Layer-2" serif:id="Layer 2">
        <g id="text989">
        </g>
        <rect id="rect4689" x="0" y="0" width="450" height="380" style="fill:rgb(44,45,48);fill-rule:nonzero;"/>
        <g id="text80" transform="matrix(1.00498,0,0,0.995047,180,4.99997)">
            <path id="path4726" d="M29.851,371.706L29.851,363.943L31.853,363.943L32.903,366.668C32.96,366.829 33.024,367.013 33.095,367.221C33.168,367.429 33.249,367.668 33.336,367.94L33.552,368.624C33.475,367.95 33.416,367.373 33.376,366.894C33.336,366.415 33.316,366.013 33.316,365.687L33.316,363.943L35.317,363.943L35.317,371.706L33.316,371.706L32.26,368.85C32.149,368.545 32.049,368.26 31.958,367.995C31.871,367.727 31.794,367.472 31.727,367.231C31.77,367.777 31.802,368.253 31.822,368.659C31.843,369.065 31.853,369.42 31.853,369.725L31.853,371.706L29.851,371.706Z" style="fill:rgb(158,161,168);fill-rule:nonzero;"/>
            <path id="path4728" d="M39.887,371.706L37.791,371.706L37.791,368.418L35.865,363.943L38.052,363.943L38.429,365.094C38.503,365.319 38.568,365.535 38.625,365.743C38.686,365.951 38.739,366.15 38.786,366.341C38.863,366.056 38.93,365.811 38.987,365.607C39.044,365.399 39.095,365.232 39.138,365.104L39.52,363.943L41.692,363.943L39.887,368.418L39.887,371.706Z" style="fill:rgb(158,161,168);fill-rule:nonzero;"/>
            <path id="path4730" d="M41.894,371.515L41.894,369.076C42.306,369.639 42.752,369.921 43.231,369.921C43.412,369.921 43.56,369.874 43.673,369.78C43.787,369.683 43.844,369.562 43.844,369.418C43.844,369.21 43.72,369.008 43.472,368.81L43.13,368.543C42.903,368.372 42.708,368.203 42.547,368.035C42.386,367.865 42.256,367.69 42.155,367.513C42.054,367.332 41.981,367.146 41.934,366.954C41.887,366.763 41.863,366.562 41.863,366.351C41.863,365.989 41.947,365.61 42.115,365.215C42.199,365.03 42.296,364.863 42.406,364.712C42.517,364.558 42.644,364.422 42.789,364.305C43.184,363.969 43.662,363.802 44.222,363.802C44.721,363.802 45.224,363.934 45.73,364.199L45.73,366.572C45.559,366.308 45.365,366.1 45.147,365.949C44.929,365.795 44.714,365.718 44.503,365.718C44.342,365.718 44.21,365.765 44.106,365.858C43.999,365.949 43.945,366.058 43.945,366.185C43.945,366.393 44.087,366.599 44.372,366.804L44.704,367.05C45.147,367.368 45.463,367.695 45.655,368.03C45.849,368.366 45.946,368.758 45.946,369.207C45.946,369.971 45.713,370.601 45.247,371.098C44.781,371.594 44.191,371.842 43.477,371.842C42.985,371.842 42.457,371.733 41.894,371.515L41.894,371.515Z" style="fill:rgb(158,161,168);fill-rule:nonzero;"/>
            <path id="path4732" d="M49.576,371.706L47.48,371.706L47.48,365.803L46.323,365.803L46.323,363.943L50.778,363.943L50.778,365.803L49.576,365.803L49.576,371.706Z" style="fill:rgb(158,161,168);fill-rule:nonzero;"/>
            <path id="path4734" d="M56.525,371.706L54.428,371.706L54.428,368.584L53.428,368.584L53.428,371.706L51.331,371.706L51.331,363.943L53.428,363.943L53.428,366.688L54.428,366.688L54.428,363.943L56.525,363.943L56.525,371.706Z" style="fill:rgb(158,161,168);fill-rule:nonzero;"/>
            <rect id="path4736" x="57.606" y="363.943" width="2.097" height="7.763" style="fill:rgb(158,161,168);fill-rule:nonzero;"/>
        </g>
        <g id="text4987">
        </g>
        <g id="text1042">
        </g>
        <g id="g932" transform="matrix(1,0,0,1,90,0)">
            <g id="g1585" transform="matrix(1,0,0,1,-4,0)">
                <path id="path1388" d="M84.858,9.615L89.767,9.615L89.767,10.198C89.767,12.908 89.393,14.859 88.645,16.049C87.83,17.35 86.624,18 85.027,18C83.458,18 82.227,17.362 81.333,16.086C80.444,14.798 80,13.03 80,10.781C80,8.503 80.447,6.707 81.341,5.395C82.235,4.082 83.458,3.426 85.01,3.426C87.068,3.426 88.561,4.586 89.489,6.908L86.081,8.257C86.031,7.813 85.912,7.464 85.727,7.208C85.547,6.947 85.319,6.816 85.044,6.816C84.077,6.816 83.593,8.253 83.593,11.128C83.593,12.349 83.7,13.236 83.914,13.789C84.127,14.342 84.467,14.618 84.934,14.618C85.12,14.618 85.288,14.57 85.44,14.473C85.592,14.375 85.718,14.239 85.82,14.063C85.927,13.886 86.008,13.674 86.064,13.424C86.126,13.169 86.157,12.887 86.157,12.577L84.858,12.577L84.858,9.615Z" style="fill:rgb(158,161,168);fill-rule:nonzero;"/>
                <path id="path1390" d="M100.521,17.754L96.717,17.754L94.979,12.741C94.962,12.656 94.931,12.543 94.887,12.404C94.847,12.264 94.797,12.097 94.735,11.902L94.76,12.832L94.76,17.754L91.26,17.754L91.26,3.681L94.861,3.681C96.447,3.681 97.633,4.018 98.42,4.693C99.421,5.556 99.922,6.783 99.922,8.375C99.922,10.076 99.25,11.252 97.906,11.902L100.521,17.754ZM94.777,10.198L95.013,10.198C95.418,10.198 95.755,10.031 96.025,9.697C96.295,9.362 96.43,8.937 96.43,8.421C96.43,7.369 95.921,6.844 94.903,6.844L94.777,6.844L94.777,10.198Z" style="fill:rgb(158,161,168);fill-rule:nonzero;"/>
                <path id="path1392" d="M111.063,17.754L107.428,17.754L107.167,15.967L104.797,15.967L104.51,17.754L100.875,17.754L104.004,3.681L108.305,3.681L111.063,17.754ZM106.754,12.951L106.526,11.31C106.52,11.304 106.509,11.222 106.492,11.064C106.481,10.93 106.422,10.401 106.315,9.478C106.304,9.375 106.29,9.235 106.273,9.059C106.256,8.876 106.233,8.648 106.205,8.375L106.096,7.044C106.085,7.172 106.068,7.315 106.045,7.473C106.028,7.631 106.009,7.804 105.986,7.992C105.947,8.369 105.919,8.63 105.902,8.776C105.885,8.922 105.874,9.01 105.868,9.04L105.624,10.745L105.269,12.951L106.754,12.951Z" style="fill:rgb(158,161,168);fill-rule:nonzero;"/>
                <path id="path1394" d="M112.076,17.754L112.076,3.681L115.432,3.681L117.195,8.621C117.291,8.913 117.398,9.247 117.516,9.624C117.639,10 117.774,10.435 117.921,10.927L118.283,12.167C118.154,10.945 118.056,9.9 117.988,9.031C117.921,8.162 117.887,7.433 117.887,6.844L117.887,3.681L121.244,3.681L121.244,17.754L117.887,17.754L116.116,12.577C115.93,12.024 115.761,11.507 115.61,11.027C115.463,10.541 115.334,10.079 115.222,9.642C115.295,10.632 115.348,11.495 115.382,12.23C115.416,12.966 115.432,13.61 115.432,14.163L115.432,17.754L112.076,17.754Z" style="fill:rgb(158,161,168);fill-rule:nonzero;"/>
            </g>
            <g id="g1579" transform="matrix(1,0,0,1,4,0)">
                <path id="path1396" d="M127.62,17.754L124.103,17.754L124.103,7.053L122.163,7.053L122.163,3.681L129.636,3.681L129.636,7.053L127.62,7.053L127.62,17.754Z" style="fill:rgb(158,161,168);fill-rule:nonzero;"/>
                <path id="path1398" d="M135.877,3.681L139.394,3.681L139.394,13.634C139.394,14.467 139.273,15.141 139.032,15.658C138.795,16.198 138.402,16.687 137.851,17.125C137.109,17.708 136.206,18 135.143,18C133.94,18 132.931,17.678 132.115,17.034C131.081,16.214 130.564,14.901 130.564,13.096L130.564,3.681L134.081,3.681L134.081,12.759C134.081,13.373 134.148,13.807 134.283,14.062C134.424,14.318 134.657,14.445 134.983,14.445C135.321,14.445 135.554,14.327 135.683,14.09C135.813,13.841 135.877,13.4 135.877,12.768L135.877,3.681Z" style="fill:rgb(158,161,168);fill-rule:nonzero;"/>
                <path id="path1401" d="M141.225,17.754L141.225,3.681L144.581,3.681L146.344,8.621C146.44,8.913 146.547,9.247 146.665,9.624C146.788,10 146.923,10.435 147.069,10.927L147.432,12.167C147.303,10.945 147.204,9.9 147.137,9.031C147.07,8.162 147.036,7.433 147.036,6.844L147.036,3.681L150.393,3.681L150.393,17.754L147.036,17.754L145.265,12.577C145.079,12.024 144.91,11.507 144.758,11.027C144.612,10.541 144.483,10.079 144.371,9.642C144.444,10.632 144.497,11.495 144.531,12.23C144.564,12.966 144.581,13.61 144.581,14.163L144.581,17.754L141.225,17.754Z" style="fill:rgb(158,161,168);fill-rule:nonzero;"/>
                <rect id="path1403" x="152.223" y="3.681" width="3.517" height="14.073" style="fill:rgb(158,161,168);fill-rule:nonzero;"/>
                <path id="path1405" d="M157.275,17.408L157.275,12.987C157.967,14.008 158.714,14.518 159.518,14.518C159.822,14.518 160.07,14.433 160.261,14.263C160.452,14.087 160.547,13.868 160.547,13.607C160.547,13.23 160.339,12.862 159.923,12.504L159.35,12.021C158.967,11.711 158.641,11.404 158.371,11.1C158.102,10.79 157.882,10.474 157.714,10.152C157.545,9.824 157.421,9.487 157.342,9.141C157.264,8.794 157.224,8.43 157.224,8.047C157.224,7.391 157.365,6.704 157.646,5.987C157.787,5.653 157.95,5.349 158.135,5.076C158.321,4.796 158.534,4.55 158.776,4.337C159.44,3.73 160.241,3.426 161.18,3.426C162.018,3.426 162.861,3.666 163.71,4.146L163.71,8.448C163.424,7.968 163.097,7.591 162.732,7.318C162.366,7.038 162.007,6.898 161.652,6.898C161.382,6.898 161.16,6.984 160.986,7.154C160.806,7.318 160.716,7.515 160.716,7.746C160.716,8.123 160.955,8.497 161.433,8.867L161.99,9.314C162.732,9.891 163.263,10.484 163.584,11.091C163.91,11.699 164.073,12.41 164.073,13.224C164.073,14.609 163.682,15.752 162.901,16.651C162.119,17.55 161.129,18 159.932,18C159.105,18 158.22,17.803 157.275,17.408L157.275,17.408Z" style="fill:rgb(158,161,168);fill-rule:nonzero;"/>
                <path id="path1407" d="M178.85,17.754L175.173,17.754L174.911,11.337L174.801,8.776C174.762,9.268 174.717,9.739 174.666,10.189C174.616,10.632 174.554,11.064 174.481,11.483L173.376,17.754L170.508,17.754L169.564,11.474C169.507,11.109 169.432,10.484 169.336,9.596C169.325,9.463 169.3,9.189 169.26,8.776L169.176,11.374L168.864,17.754L165.119,17.754L166.637,3.681L171.014,3.681L171.748,8.421C171.81,8.809 171.863,9.232 171.908,9.687C171.959,10.143 172.004,10.638 172.043,11.173C172.116,10.28 172.218,9.481 172.347,8.776L173.241,3.681L177.585,3.681L178.85,17.754Z" style="fill:rgb(158,161,168);fill-rule:nonzero;"/>
                <path id="path1413" d="M190,10.763C190,12.908 189.547,14.652 188.642,15.995C187.742,17.332 186.57,18 185.125,18C183.843,18 182.744,17.487 181.827,16.46C180.674,15.159 180.098,13.209 180.098,10.608C180.098,8.117 180.7,6.212 181.903,4.893C182.797,3.915 183.857,3.426 185.083,3.426C186.584,3.426 187.779,4.088 188.667,5.413C189.556,6.737 190,8.521 190,10.763ZM186.348,10.79C186.348,8.244 185.932,6.971 185.1,6.971C184.684,6.971 184.352,7.306 184.104,7.974C183.863,8.594 183.742,9.505 183.742,10.708C183.742,11.893 183.854,12.814 184.079,13.47C184.31,14.12 184.627,14.445 185.032,14.445C185.448,14.445 185.769,14.123 185.994,13.479C186.23,12.835 186.348,11.939 186.348,10.79L186.348,10.79Z" style="fill:rgb(158,161,168);fill-rule:nonzero;"/>
            </g>
        </g>
        <path id="path1428" d="M15.071,294L100.929,294C104.846,294 108,297.995 108,302.957L108,361.043C108,366.005 104.846,370 100.929,370L15.071,370C11.154,370 8,366.005 8,361.043L8,302.957C8,297.995 11.154,294 15.071,294Z" style="fill:rgb(158,161,168);fill-rule:nonzero;"/>
        <path id="rect4778-3-6-0-3" d="M349.071,294L434.929,294C438.846,294 442,297.995 442,302.957L442,361.043C442,366.005 438.846,370 434.929,370L349.071,370C345.154,370 342,366.005 342,361.043L342,302.957C342,297.995 345.154,294 349.071,294Z" style="fill:rgb(158,161,168);fill-rule:nonzero;"/>
        <g id="text1472" transform="matrix(0.842173,0,0,1.1874,180,24)">
            <path id="path1536" d="M206.021,265.111L203.338,265.111L203.338,257.559L201.859,257.559L201.859,255.178L207.558,255.178L207.558,257.559L206.021,257.559L206.021,265.111Z" style="fill:rgb(44,45,48);fill-rule:nonzero;"/>
            <path id="path1538" d="M212.319,255.178L215.001,255.178L215.001,262.203C215.001,262.791 214.909,263.267 214.725,263.631C214.544,264.013 214.244,264.358 213.824,264.667C213.258,265.079 212.57,265.284 211.759,265.284C210.841,265.284 210.071,265.057 209.45,264.603C208.661,264.024 208.266,263.097 208.266,261.824L208.266,255.178L210.948,255.178L210.948,261.586C210.948,262.019 211,262.325 211.103,262.505C211.21,262.686 211.388,262.776 211.637,262.776C211.894,262.776 212.072,262.692 212.171,262.525C212.269,262.349 212.319,262.038 212.319,261.592L212.319,255.178Z" style="fill:rgb(44,45,48);fill-rule:nonzero;"/>
            <path id="path1540" d="M216.397,265.111L216.397,255.178L218.957,255.178L220.302,258.665C220.375,258.871 220.456,259.107 220.546,259.373C220.641,259.638 220.744,259.945 220.855,260.292L221.132,261.167C221.033,260.305 220.958,259.568 220.907,258.954C220.855,258.341 220.829,257.827 220.829,257.411L220.829,255.178L223.39,255.178L223.39,265.111L220.829,265.111L219.479,261.457C219.337,261.067 219.208,260.702 219.093,260.363C218.981,260.02 218.882,259.694 218.797,259.385C218.852,260.084 218.893,260.693 218.919,261.212C218.945,261.731 218.958,262.186 218.958,262.576L218.958,265.111L216.397,265.111Z" style="fill:rgb(44,45,48);fill-rule:nonzero;"/>
            <path id="path1542" d="M224.786,265.111L224.786,255.178L229.771,255.178L229.771,257.513L227.468,257.513L227.468,258.961L229.533,258.961L229.533,261.206L227.468,261.206L227.468,262.724L229.771,262.724L229.771,265.111L224.786,265.111Z" style="fill:rgb(44,45,48);fill-rule:nonzero;"/>
            <path id="path1544" d="M242.026,265.111L239.253,265.111L239.054,263.85L237.246,263.85L237.027,265.111L234.255,265.111L236.641,255.178L239.922,255.178L242.026,265.111ZM238.739,261.721L238.565,260.563C238.561,260.558 238.552,260.5 238.539,260.389C238.531,260.295 238.486,259.921 238.404,259.27C238.396,259.197 238.385,259.098 238.372,258.974C238.359,258.845 238.342,258.684 238.321,258.491L238.237,257.552C238.228,257.642 238.215,257.743 238.198,257.854C238.185,257.966 238.17,258.088 238.153,258.221C238.123,258.487 238.102,258.671 238.089,258.774C238.076,258.877 238.068,258.939 238.063,258.961L237.877,260.164L237.606,261.721L238.739,261.721Z" style="fill:rgb(44,45,48);fill-rule:nonzero;"/>
            <path id="path1546" d="M254.518,255.236C254.283,255.704 254.072,256.182 253.888,256.671C253.704,257.155 253.545,257.668 253.412,258.208C253.155,259.25 253.026,260.258 253.026,261.232C253.026,262.205 253.155,263.213 253.412,264.255C253.545,264.796 253.704,265.308 253.888,265.793C254.072,266.277 254.283,266.753 254.518,267.221L252.589,268.256C251.345,266.022 250.723,263.68 250.723,261.232C250.723,258.791 251.345,256.448 252.589,254.201L254.518,255.236Z" style="fill:rgb(44,45,48);fill-rule:nonzero;"/>
            <path id="path1548" d="M260.411,265.111L255.715,265.111L255.715,255.178L258.398,255.178L258.398,262.724L260.411,262.724L260.411,265.111Z" style="fill:rgb(44,45,48);fill-rule:nonzero;"/>
            <path id="path1550" d="M268.735,265.111L265.963,265.111L265.763,263.85L263.956,263.85L263.737,265.111L260.964,265.111L263.351,255.178L266.632,255.178L268.735,265.111ZM265.448,261.721L265.274,260.563C265.27,260.558 265.261,260.5 265.249,260.389C265.24,260.295 265.195,259.921 265.113,259.27C265.105,259.197 265.094,259.098 265.081,258.974C265.069,258.845 265.051,258.684 265.03,258.491L264.946,257.552C264.938,257.642 264.925,257.743 264.908,257.854C264.895,257.966 264.88,258.088 264.863,258.221C264.833,258.487 264.811,258.671 264.798,258.774C264.785,258.877 264.777,258.939 264.773,258.961L264.586,260.164L264.316,261.721L265.448,261.721Z" style="fill:rgb(44,45,48);fill-rule:nonzero;"/>
            <path id="path1552" d="M269.308,267.221C269.784,266.282 270.15,265.293 270.408,264.255C270.665,263.213 270.794,262.205 270.794,261.232C270.794,260.224 270.663,259.216 270.401,258.208C270.273,257.689 270.116,257.185 269.932,256.697C269.752,256.203 269.544,255.717 269.308,255.236L271.238,254.201C272.481,256.435 273.103,258.779 273.103,261.232C273.103,263.68 272.481,266.022 271.238,268.256L269.308,267.221Z" style="fill:rgb(44,45,48);fill-rule:nonzero;"/>
        </g>
        <g id="text1476" transform="matrix(0.818392,0,0,1.22191,180,18)">
            <path id="path1517" d="M211.594,272.697L214.155,272.697L214.155,279.404C214.155,279.964 214.067,280.419 213.891,280.767C213.719,281.131 213.432,281.461 213.031,281.756C212.49,282.149 211.833,282.345 211.059,282.345C210.183,282.345 209.448,282.128 208.854,281.694C208.101,281.142 207.724,280.257 207.724,279.041L207.724,272.697L210.285,272.697L210.285,278.814C210.285,279.227 210.335,279.52 210.433,279.692C210.535,279.864 210.705,279.95 210.943,279.95C211.188,279.95 211.358,279.87 211.452,279.711C211.547,279.543 211.594,279.246 211.594,278.82L211.594,272.697Z" style="fill:rgb(44,45,48);fill-rule:nonzero;"/>
            <path id="path1519" d="M215.285,281.946L215.285,278.967C215.788,279.655 216.333,279.999 216.919,279.999C217.14,279.999 217.32,279.942 217.459,279.827C217.598,279.709 217.668,279.561 217.668,279.385C217.668,279.131 217.516,278.883 217.213,278.642L216.796,278.316C216.517,278.108 216.28,277.901 216.083,277.696C215.887,277.487 215.727,277.274 215.604,277.057C215.481,276.836 215.391,276.609 215.334,276.376C215.277,276.142 215.248,275.897 215.248,275.639C215.248,275.196 215.35,274.734 215.555,274.251C215.657,274.025 215.776,273.821 215.911,273.636C216.046,273.448 216.202,273.282 216.378,273.139C216.861,272.729 217.445,272.525 218.128,272.525C218.739,272.525 219.353,272.686 219.971,273.01L219.971,275.909C219.762,275.585 219.525,275.331 219.259,275.147C218.992,274.959 218.73,274.865 218.472,274.865C218.276,274.865 218.114,274.922 217.987,275.037C217.856,275.147 217.791,275.28 217.791,275.436C217.791,275.69 217.965,275.942 218.313,276.191L218.718,276.492C219.259,276.881 219.645,277.28 219.879,277.69C220.116,278.099 220.235,278.578 220.235,279.127C220.235,280.061 219.951,280.83 219.381,281.436C218.812,282.042 218.092,282.345 217.219,282.345C216.618,282.345 215.973,282.212 215.285,281.946Z" style="fill:rgb(44,45,48);fill-rule:nonzero;"/>
            <path id="path1521" d="M221.236,282.18L221.236,272.697L225.996,272.697L225.996,274.926L223.797,274.926L223.797,276.308L225.769,276.308L225.769,278.452L223.797,278.452L223.797,279.901L225.996,279.901L225.996,282.18L221.236,282.18Z" style="fill:rgb(44,45,48);fill-rule:nonzero;"/>
            <path id="path1523" d="M230.867,282.18L230.867,272.697L233.078,272.697C234.343,272.697 235.328,273.037 236.032,273.716C236.957,274.605 237.42,275.847 237.42,277.444C237.42,279.017 237.029,280.231 236.247,281.086C235.579,281.815 234.584,282.18 233.262,282.18L230.867,282.18ZM233.428,279.889C234.345,279.844 234.803,279.053 234.803,277.518C234.803,276.76 234.687,276.163 234.453,275.725C234.22,275.282 233.905,275.061 233.507,275.061L233.428,275.061L233.428,279.889Z" style="fill:rgb(44,45,48);fill-rule:nonzero;"/>
            <path id="path1525" d="M245.478,277.469C245.478,278.914 245.148,280.089 244.489,280.994C243.834,281.895 242.98,282.345 241.928,282.345C240.994,282.345 240.194,281.999 239.526,281.307C238.687,280.431 238.267,279.117 238.267,277.364C238.267,275.686 238.705,274.402 239.582,273.514C240.233,272.854 241.005,272.525 241.897,272.525C242.99,272.525 243.86,272.971 244.507,273.864C245.154,274.756 245.478,275.958 245.478,277.469ZM242.818,277.487C242.818,275.772 242.515,274.914 241.909,274.914C241.606,274.914 241.365,275.139 241.185,275.59C241.009,276.007 240.921,276.621 240.921,277.432C240.921,278.231 241.003,278.851 241.166,279.293C241.334,279.731 241.566,279.95 241.86,279.95C242.163,279.95 242.397,279.733 242.561,279.299C242.732,278.865 242.818,278.261 242.818,277.487L242.818,277.487Z" style="fill:rgb(44,45,48);fill-rule:nonzero;"/>
            <path id="path1527" d="M257.092,282.18L254.322,282.18L253.057,278.802C253.044,278.744 253.022,278.669 252.989,278.574C252.961,278.48 252.924,278.368 252.879,278.237L252.897,278.863L252.897,282.18L250.348,282.18L250.348,272.697L252.971,272.697C254.126,272.697 254.989,272.924 255.563,273.378C256.292,273.96 256.656,274.787 256.656,275.86C256.656,277.006 256.167,277.798 255.188,278.237L257.092,282.18ZM252.909,277.088L253.081,277.088C253.376,277.088 253.622,276.975 253.818,276.75C254.015,276.525 254.113,276.238 254.113,275.89C254.113,275.182 253.743,274.828 253.002,274.828L252.909,274.828L252.909,277.088Z" style="fill:rgb(44,45,48);fill-rule:nonzero;"/>
            <path id="path1529" d="M257.94,282.18L257.94,272.697L262.699,272.697L262.699,274.926L260.501,274.926L260.501,276.308L262.472,276.308L262.472,278.452L260.501,278.452L260.501,279.901L262.699,279.901L262.699,282.18L257.94,282.18Z" style="fill:rgb(44,45,48);fill-rule:nonzero;"/>
            <path id="path1531" d="M277.329,282.18L274.651,282.18L274.461,277.856L274.381,276.13C274.352,276.462 274.32,276.779 274.283,277.082C274.246,277.381 274.201,277.672 274.148,277.954L273.343,282.18L271.255,282.18L270.567,277.948C270.526,277.702 270.471,277.28 270.401,276.683C270.393,276.593 270.375,276.408 270.346,276.13L270.284,277.88L270.057,282.18L267.33,282.18L268.436,272.697L271.623,272.697L272.158,275.89C272.203,276.152 272.242,276.437 272.274,276.744C272.311,277.051 272.344,277.385 272.373,277.745C272.426,277.143 272.5,276.605 272.594,276.13L273.245,272.697L276.408,272.697L277.329,282.18Z" style="fill:rgb(44,45,48);fill-rule:nonzero;"/>
            <rect id="path1533" x="278.478" y="272.697" width="2.561" height="9.483" style="fill:rgb(44,45,48);fill-rule:nonzero;"/>
        </g>
        <g id="text1480" transform="matrix(0.875405,0,0,1.14233,0,0)">
            <rect id="path1494" x="24.242" y="296.071" width="2.74" height="10.144" style="fill:rgb(44,45,48);fill-rule:nonzero;"/>
            <path id="path1496" d="M28.394,306.214L28.394,296.071L31.009,296.071L32.382,299.631C32.456,299.842 32.54,300.083 32.632,300.354C32.728,300.626 32.833,300.939 32.947,301.294L33.23,302.187C33.129,301.307 33.052,300.553 33,299.927C32.947,299.301 32.921,298.775 32.921,298.35L32.921,296.071L35.535,296.071L35.535,306.214L32.921,306.214L31.541,302.483C31.397,302.084 31.265,301.712 31.147,301.366C31.033,301.015 30.932,300.683 30.845,300.367C30.902,301.081 30.943,301.703 30.97,302.233C30.996,302.763 31.009,303.227 31.009,303.626L31.009,306.214L28.394,306.214Z" style="fill:rgb(44,45,48);fill-rule:nonzero;"/>
            <path id="path1498" d="M40.791,305.965L40.791,302.778C41.33,303.514 41.912,303.882 42.539,303.882C42.775,303.882 42.968,303.821 43.117,303.698C43.266,303.571 43.34,303.413 43.34,303.225C43.34,302.953 43.178,302.689 42.854,302.43L42.407,302.082C42.109,301.859 41.855,301.637 41.645,301.418C41.435,301.195 41.264,300.967 41.133,300.735C41.001,300.499 40.905,300.256 40.844,300.006C40.782,299.756 40.752,299.493 40.752,299.218C40.752,298.745 40.861,298.25 41.08,297.733C41.19,297.492 41.317,297.273 41.461,297.076C41.606,296.874 41.772,296.697 41.961,296.544C42.477,296.106 43.101,295.887 43.833,295.887C44.485,295.887 45.142,296.06 45.804,296.406L45.804,299.507C45.58,299.161 45.326,298.889 45.042,298.692C44.757,298.491 44.477,298.39 44.201,298.39C43.991,298.39 43.818,298.451 43.682,298.574C43.542,298.692 43.472,298.834 43.472,299.001C43.472,299.272 43.658,299.542 44.03,299.809L44.464,300.131C45.042,300.547 45.456,300.974 45.705,301.412C45.959,301.85 46.086,302.362 46.086,302.949C46.086,303.948 45.782,304.771 45.173,305.419C44.564,306.067 43.793,306.392 42.861,306.392C42.217,306.392 41.527,306.249 40.791,305.965Z" style="fill:rgb(44,45,48);fill-rule:nonzero;"/>
            <rect id="path1500" x="47.157" y="296.071" width="2.74" height="10.144" style="fill:rgb(44,45,48);fill-rule:nonzero;"/>
            <path id="path1502" d="M54.837,300.348L58.661,300.348L58.661,300.768C58.661,302.721 58.369,304.127 57.787,304.986C57.152,305.923 56.212,306.392 54.968,306.392C53.746,306.392 52.787,305.932 52.091,305.012C51.399,304.083 51.053,302.809 51.053,301.188C51.053,299.546 51.401,298.252 52.098,297.306C52.794,296.36 53.746,295.887 54.955,295.887C56.558,295.887 57.721,296.723 58.444,298.396L55.79,299.369C55.75,299.049 55.658,298.797 55.514,298.613C55.374,298.425 55.196,298.331 54.982,298.331C54.228,298.331 53.852,299.366 53.852,301.438C53.852,302.318 53.935,302.958 54.101,303.356C54.268,303.755 54.533,303.954 54.896,303.954C55.041,303.954 55.172,303.919 55.29,303.849C55.409,303.779 55.507,303.681 55.586,303.554C55.669,303.427 55.733,303.273 55.776,303.094C55.825,302.91 55.849,302.706 55.849,302.483L54.837,302.483L54.837,300.348Z" style="fill:rgb(44,45,48);fill-rule:nonzero;"/>
            <path id="path1504" d="M59.823,306.214L59.823,296.071L62.438,296.071L63.811,299.631C63.886,299.842 63.969,300.083 64.061,300.354C64.157,300.626 64.262,300.939 64.376,301.294L64.659,302.187C64.558,301.307 64.481,300.553 64.429,299.927C64.376,299.301 64.35,298.775 64.35,298.35L64.35,296.071L66.965,296.071L66.965,306.214L64.35,306.214L62.97,302.483C62.826,302.084 62.694,301.712 62.576,301.366C62.462,301.015 62.361,300.683 62.274,300.367C62.331,301.081 62.372,301.703 62.399,302.233C62.425,302.763 62.438,303.227 62.438,303.626L62.438,306.214L59.823,306.214Z" style="fill:rgb(44,45,48);fill-rule:nonzero;"/>
            <path id="path1506" d="M75.774,306.214L72.943,306.214L72.739,304.927L70.893,304.927L70.67,306.214L67.838,306.214L70.276,296.071L73.626,296.071L75.774,306.214ZM72.417,302.752L72.24,301.569C72.236,301.565 72.227,301.506 72.214,301.392C72.205,301.296 72.159,300.915 72.076,300.249C72.067,300.175 72.056,300.074 72.043,299.947C72.03,299.815 72.012,299.651 71.99,299.454L71.905,298.495C71.896,298.587 71.883,298.69 71.865,298.804C71.852,298.918 71.837,299.042 71.819,299.178C71.789,299.45 71.767,299.638 71.754,299.743C71.741,299.848 71.732,299.912 71.727,299.934L71.537,301.162L71.261,302.752L72.417,302.752Z" style="fill:rgb(44,45,48);fill-rule:nonzero;"/>
            <path id="path1508" d="M81.359,306.214L76.563,306.214L76.563,296.071L79.302,296.071L79.302,303.777L81.359,303.777L81.359,306.214Z" style="fill:rgb(44,45,48);fill-rule:nonzero;"/>
            <path id="path1510" d="M93.69,301.175C93.69,302.721 93.337,303.978 92.632,304.946C91.931,305.91 91.018,306.392 89.893,306.392C88.894,306.392 88.038,306.022 87.324,305.281C86.426,304.344 85.977,302.938 85.977,301.064C85.977,299.268 86.446,297.895 87.383,296.944C88.079,296.239 88.905,295.887 89.86,295.887C91.029,295.887 91.96,296.364 92.652,297.319C93.344,298.274 93.69,299.559 93.69,301.175ZM90.845,301.195C90.845,299.36 90.521,298.442 89.873,298.442C89.549,298.442 89.29,298.683 89.098,299.165C88.909,299.612 88.815,300.269 88.815,301.136C88.815,301.99 88.903,302.653 89.078,303.126C89.258,303.595 89.505,303.829 89.82,303.829C90.145,303.829 90.394,303.597 90.569,303.133C90.753,302.669 90.845,302.023 90.845,301.195L90.845,301.195Z" style="fill:rgb(44,45,48);fill-rule:nonzero;"/>
            <path id="path1512" d="M98.992,296.071L101.731,296.071L101.731,303.245C101.731,303.845 101.637,304.331 101.449,304.703C101.265,305.093 100.958,305.446 100.529,305.761C99.951,306.181 99.248,306.392 98.42,306.392C97.483,306.392 96.697,306.159 96.062,305.695C95.256,305.104 94.853,304.158 94.853,302.857L94.853,296.071L97.592,296.071L97.592,302.614C97.592,303.056 97.645,303.37 97.75,303.554C97.859,303.737 98.041,303.829 98.295,303.829C98.558,303.829 98.74,303.744 98.841,303.573C98.941,303.394 98.992,303.076 98.992,302.621L98.992,296.071Z" style="fill:rgb(44,45,48);fill-rule:nonzero;"/>
            <path id="path1514" d="M106.698,306.214L103.958,306.214L103.958,298.501L102.447,298.501L102.447,296.071L108.268,296.071L108.268,298.501L106.698,298.501L106.698,306.214Z" style="fill:rgb(44,45,48);fill-rule:nonzero;"/>
        </g>
        <g id="text1780" transform="matrix(0.720357,0,0,1.28142,26.9232,2)">
            <path id="path1786" d="M448.531,243.258L448.531,240.418C449.011,241.074 449.53,241.402 450.088,241.402C450.299,241.402 450.471,241.347 450.604,241.238C450.737,241.124 450.803,240.984 450.803,240.816C450.803,240.574 450.659,240.338 450.37,240.107L449.971,239.797C449.706,239.598 449.479,239.401 449.292,239.205C449.105,239.006 448.952,238.803 448.835,238.596C448.718,238.385 448.632,238.169 448.577,237.946C448.523,237.724 448.495,237.489 448.495,237.243C448.495,236.822 448.593,236.381 448.788,235.92C448.886,235.705 448.999,235.51 449.128,235.334C449.257,235.155 449.405,234.996 449.573,234.86C450.034,234.469 450.59,234.274 451.242,234.274C451.824,234.274 452.41,234.428 452.999,234.737L452.999,237.501C452.8,237.193 452.574,236.951 452.32,236.775C452.066,236.595 451.816,236.505 451.57,236.505C451.383,236.505 451.229,236.56 451.108,236.669C450.983,236.775 450.92,236.902 450.92,237.05C450.92,237.292 451.086,237.532 451.418,237.771L451.805,238.057C452.32,238.428 452.689,238.809 452.911,239.2C453.138,239.59 453.251,240.047 453.251,240.57C453.251,241.46 452.98,242.194 452.437,242.772C451.894,243.35 451.207,243.639 450.376,243.639C449.802,243.639 449.187,243.512 448.531,243.258L448.531,243.258Z" style="fill:rgb(44,45,48);fill-rule:nonzero;"/>
            <path id="path1788" d="M463.512,243.481L460.958,243.481L460.777,239.358L460.701,237.712C460.673,238.028 460.642,238.331 460.607,238.62C460.572,238.905 460.529,239.182 460.478,239.451L459.711,243.481L457.72,243.481L457.064,239.445C457.025,239.211 456.972,238.809 456.906,238.239C456.898,238.153 456.881,237.977 456.853,237.712L456.795,239.381L456.578,243.481L453.978,243.481L455.032,234.438L458.072,234.438L458.581,237.484C458.624,237.733 458.661,238.005 458.692,238.298C458.728,238.59 458.759,238.909 458.786,239.252C458.837,238.678 458.907,238.165 458.997,237.712L459.618,234.438L462.634,234.438L463.512,243.481Z" style="fill:rgb(44,45,48);fill-rule:nonzero;"/>
            <path id="path1790" d="M471.254,238.989C471.254,240.367 470.94,241.487 470.311,242.35C469.686,243.209 468.872,243.639 467.869,243.639C466.979,243.639 466.215,243.309 465.579,242.649C464.779,241.814 464.378,240.56 464.378,238.889C464.378,237.288 464.796,236.064 465.632,235.217C466.253,234.588 466.989,234.274 467.84,234.274C468.882,234.274 469.712,234.7 470.329,235.551C470.946,236.402 471.254,237.548 471.254,238.989ZM468.718,239.006C468.718,237.37 468.429,236.552 467.851,236.552C467.562,236.552 467.332,236.767 467.16,237.196C466.993,237.595 466.909,238.18 466.909,238.953C466.909,239.715 466.987,240.306 467.143,240.728C467.303,241.146 467.524,241.355 467.805,241.355C468.094,241.355 468.316,241.148 468.472,240.734C468.636,240.32 468.718,239.744 468.718,239.006L468.718,239.006Z" style="fill:rgb(44,45,48);fill-rule:nonzero;"/>
            <path id="path1792" d="M478.938,238.989C478.938,240.367 478.624,241.487 477.995,242.35C477.37,243.209 476.556,243.639 475.553,243.639C474.663,243.639 473.899,243.309 473.263,242.649C472.462,241.814 472.062,240.56 472.062,238.889C472.062,237.288 472.48,236.064 473.316,235.217C473.936,234.588 474.672,234.274 475.524,234.274C476.566,234.274 477.396,234.7 478.013,235.551C478.629,236.402 478.938,237.548 478.938,238.989ZM476.402,239.006C476.402,237.37 476.113,236.552 475.535,236.552C475.246,236.552 475.016,236.767 474.844,237.196C474.676,237.595 474.592,238.18 474.592,238.953C474.592,239.715 474.671,240.306 474.827,240.728C474.987,241.146 475.207,241.355 475.489,241.355C475.777,241.355 476,241.148 476.156,240.734C476.32,240.32 476.402,239.744 476.402,239.006L476.402,239.006Z" style="fill:rgb(44,45,48);fill-rule:nonzero;"/>
            <path id="path1794" d="M483.201,243.481L480.759,243.481L480.759,236.605L479.412,236.605L479.412,234.438L484.601,234.438L484.601,236.605L483.201,236.605L483.201,243.481Z" style="fill:rgb(44,45,48);fill-rule:nonzero;"/>
            <path id="path1796" d="M491.295,243.481L488.853,243.481L488.853,239.844L487.688,239.844L487.688,243.481L485.245,243.481L485.245,234.438L487.688,234.438L487.688,237.636L488.853,237.636L488.853,234.438L491.295,234.438L491.295,243.481Z" style="fill:rgb(44,45,48);fill-rule:nonzero;"/>
            <path id="path1798" d="M496.162,243.481L496.162,234.438L498.493,234.438L499.717,237.612C499.783,237.8 499.857,238.015 499.94,238.257C500.025,238.499 500.119,238.778 500.221,239.094L500.472,239.891C500.383,239.106 500.314,238.434 500.268,237.876C500.221,237.318 500.197,236.849 500.197,236.47L500.197,234.438L502.528,234.438L502.528,243.481L500.197,243.481L498.967,240.154C498.839,239.799 498.722,239.467 498.616,239.159C498.514,238.846 498.425,238.549 498.346,238.268C498.397,238.905 498.434,239.459 498.458,239.932C498.48,240.404 498.492,240.818 498.492,241.173L498.492,243.481L496.162,243.481Z" style="fill:rgb(44,45,48);fill-rule:nonzero;"/>
            <path id="path1800" d="M503.799,243.481L503.799,234.438L508.338,234.438L508.338,236.564L506.241,236.564L506.241,237.882L508.121,237.882L508.121,239.926L506.241,239.926L506.241,241.308L508.338,241.308L508.338,243.481L503.799,243.481Z" style="fill:rgb(44,45,48);fill-rule:nonzero;"/>
            <path id="path1802" d="M509.374,243.481L509.374,234.438L513.913,234.438L513.913,236.564L511.817,236.564L511.817,237.882L513.697,237.882L513.697,239.926L511.817,239.926L511.817,241.308L513.913,241.308L513.913,243.481L509.374,243.481Z" style="fill:rgb(44,45,48);fill-rule:nonzero;"/>
            <path id="path1804" d="M514.95,243.481L514.95,234.438L517.058,234.438C518.265,234.438 519.204,234.762 519.875,235.41C520.758,236.258 521.199,237.443 521.199,238.965C521.199,240.465 520.826,241.622 520.08,242.438C519.444,243.133 518.495,243.481 517.234,243.481L514.95,243.481ZM517.392,241.296C518.267,241.253 518.704,240.5 518.704,239.036C518.704,238.313 518.593,237.743 518.37,237.325C518.148,236.904 517.847,236.693 517.468,236.693L517.392,236.693L517.392,241.296Z" style="fill:rgb(44,45,48);fill-rule:nonzero;"/>
            <path id="path1806" d="M526.511,243.481L522.235,243.481L522.235,234.438L524.678,234.438L524.678,241.308L526.511,241.308L526.511,243.481Z" style="fill:rgb(44,45,48);fill-rule:nonzero;"/>
            <path id="path1808" d="M527.249,243.481L527.249,234.438L531.787,234.438L531.787,236.564L529.691,236.564L529.691,237.882L531.571,237.882L531.571,239.926L529.691,239.926L529.691,241.308L531.787,241.308L531.787,243.481L527.249,243.481Z" style="fill:rgb(44,45,48);fill-rule:nonzero;"/>
        </g>
    </g>
</svg>
