<?xml version="1.0" encoding="UTF-8" standalone="no"?>
<!DOCTYPE svg PUBLIC "-//W3C//DTD SVG 1.1//EN" "http://www.w3.org/Graphics/SVG/1.1/DTD/svg11.dtd">
<svg width="100%" height="100%" viewBox="0 0 195 380" version="1.1" xmlns="http://www.w3.org/2000/svg" xmlns:xlink="http://www.w3.org/1999/xlink" xml:space="preserve" xmlns:serif="http://www.serif.com/" style="fill-rule:evenodd;clip-rule:evenodd;stroke-linejoin:round;stroke-miterlimit:2;">
    <g id="Layer-2" serif:id="Layer 2">
        <rect id="rect4689" x="0" y="0" width="195" height="380" style="fill:rgb(44,45,48);fill-rule:nonzero;"/>
        <g id="text989">
        </g>
        <g id="text80" transform="matrix(1.00498,0,0,0.995047,52.5,4.99997)">
            <path id="path4726" d="M29.851,371.706L29.851,363.943L31.853,363.943L32.903,366.668C32.96,366.829 33.024,367.013 33.094,367.221C33.168,367.429 33.249,367.668 33.336,367.94L33.552,368.624C33.475,367.95 33.416,367.373 33.376,366.894C33.336,366.415 33.316,366.013 33.316,365.687L33.316,363.943L35.317,363.943L35.317,371.706L33.316,371.706L32.26,368.85C32.149,368.545 32.049,368.26 31.958,367.995C31.871,367.727 31.794,367.472 31.727,367.231C31.77,367.777 31.802,368.253 31.822,368.659C31.843,369.065 31.853,369.42 31.853,369.725L31.853,371.706L29.851,371.706Z" style="fill:rgb(158,161,168);fill-rule:nonzero;"/>
            <path id="path4728" d="M39.887,371.706L37.791,371.706L37.791,368.418L35.865,363.943L38.052,363.943L38.429,365.094C38.503,365.319 38.568,365.535 38.625,365.743C38.686,365.951 38.739,366.15 38.786,366.341C38.863,366.056 38.93,365.811 38.987,365.607C39.044,365.399 39.095,365.232 39.138,365.104L39.52,363.943L41.692,363.943L39.887,368.418L39.887,371.706Z" style="fill:rgb(158,161,168);fill-rule:nonzero;"/>
            <path id="path4730" d="M41.894,371.515L41.894,369.076C42.306,369.639 42.752,369.921 43.231,369.921C43.412,369.921 43.56,369.874 43.673,369.78C43.787,369.683 43.844,369.562 43.844,369.418C43.844,369.21 43.72,369.008 43.472,368.81L43.13,368.543C42.902,368.372 42.708,368.203 42.547,368.035C42.386,367.865 42.256,367.69 42.155,367.513C42.054,367.332 41.981,367.146 41.934,366.954C41.887,366.763 41.863,366.562 41.863,366.351C41.863,365.989 41.947,365.61 42.115,365.215C42.199,365.03 42.296,364.863 42.406,364.712C42.517,364.558 42.644,364.422 42.789,364.305C43.184,363.969 43.662,363.802 44.222,363.802C44.721,363.802 45.224,363.934 45.73,364.199L45.73,366.572C45.559,366.308 45.365,366.1 45.147,365.949C44.929,365.795 44.714,365.718 44.503,365.718C44.342,365.718 44.21,365.765 44.106,365.858C43.999,365.949 43.945,366.058 43.945,366.185C43.945,366.393 44.087,366.599 44.372,366.804L44.704,367.05C45.147,367.368 45.463,367.695 45.655,368.03C45.849,368.366 45.946,368.758 45.946,369.207C45.946,369.971 45.713,370.601 45.247,371.098C44.781,371.594 44.191,371.842 43.477,371.842C42.985,371.842 42.457,371.733 41.894,371.515L41.894,371.515Z" style="fill:rgb(158,161,168);fill-rule:nonzero;"/>
            <path id="path4732" d="M49.576,371.706L47.48,371.706L47.48,365.803L46.323,365.803L46.323,363.943L50.778,363.943L50.778,365.803L49.576,365.803L49.576,371.706Z" style="fill:rgb(158,161,168);fill-rule:nonzero;"/>
            <path id="path4734" d="M56.525,371.706L54.428,371.706L54.428,368.584L53.428,368.584L53.428,371.706L51.331,371.706L51.331,363.943L53.428,363.943L53.428,366.688L54.428,366.688L54.428,363.943L56.525,363.943L56.525,371.706Z" style="fill:rgb(158,161,168);fill-rule:nonzero;"/>
            <rect id="path4736" x="57.606" y="363.943" width="2.097" height="7.763" style="fill:rgb(158,161,168);fill-rule:nonzero;"/>
        </g>
        <g id="text4987">
        </g>
        <g id="text1321">
        </g>
        <g id="text1418">
        </g>
        <g id="text1120" transform="matrix(1,0,0,1,7.5,0)">
            <path id="path1122" d="M30.678,9.615L35.982,9.615L35.982,10.198C35.982,12.908 35.578,14.859 34.77,16.049C33.889,17.35 32.586,18 30.86,18C29.165,18 27.834,17.362 26.868,16.086C25.908,14.798 25.428,13.03 25.428,10.781C25.428,8.503 25.911,6.707 26.877,5.395C27.843,4.082 29.165,3.426 30.842,3.426C33.066,3.426 34.679,4.586 35.682,6.908L31.999,8.257C31.945,7.813 31.817,7.464 31.617,7.208C31.422,6.947 31.176,6.816 30.878,6.816C29.833,6.816 29.311,8.253 29.311,11.128C29.311,12.349 29.426,13.236 29.657,13.789C29.888,14.342 30.255,14.618 30.76,14.618C30.96,14.618 31.143,14.57 31.307,14.473C31.471,14.375 31.607,14.239 31.717,14.062C31.832,13.886 31.92,13.674 31.981,13.424C32.048,13.169 32.081,12.887 32.081,12.577L30.678,12.577L30.678,9.615Z" style="fill:rgb(158,161,168);fill-rule:nonzero;"/>
            <path id="path1124" d="M47.604,17.754L43.493,17.754L41.615,12.741C41.597,12.656 41.564,12.543 41.515,12.404C41.472,12.264 41.418,12.097 41.351,11.902L41.378,12.832L41.378,17.754L37.596,17.754L37.596,3.681L41.488,3.681C43.201,3.681 44.483,4.018 45.334,4.693C46.416,5.556 46.956,6.783 46.956,8.375C46.956,10.076 46.23,11.252 44.778,11.902L47.604,17.754ZM41.396,10.198L41.652,10.198C42.089,10.198 42.454,10.031 42.745,9.697C43.037,9.362 43.183,8.937 43.183,8.421C43.183,7.369 42.633,6.844 41.533,6.844L41.396,6.844L41.396,10.198Z" style="fill:rgb(158,161,168);fill-rule:nonzero;"/>
            <path id="path1126" d="M58.997,17.754L55.068,17.754L54.786,15.967L52.225,15.967L51.915,17.754L47.986,17.754L51.368,3.681L56.016,3.681L58.997,17.754ZM54.339,12.951L54.093,11.31C54.087,11.304 54.075,11.222 54.057,11.064C54.045,10.93 53.981,10.401 53.865,9.478C53.853,9.375 53.838,9.235 53.82,9.059C53.802,8.876 53.777,8.648 53.747,8.375L53.628,7.044C53.616,7.172 53.598,7.315 53.574,7.473C53.556,7.631 53.534,7.804 53.51,7.992C53.467,8.369 53.437,8.63 53.419,8.776C53.401,8.922 53.389,9.01 53.383,9.04L53.118,10.745L52.735,12.951L54.339,12.951Z" style="fill:rgb(158,161,168);fill-rule:nonzero;"/>
            <path id="path1128" d="M63.891,17.754L60.09,17.754L60.09,3.681L63.773,3.681C65.608,3.681 66.969,4.055 67.856,4.802C68.901,5.683 69.424,6.908 69.424,8.475C69.424,10.183 68.868,11.456 67.756,12.294C66.996,12.859 65.906,13.142 64.484,13.142L63.891,13.142L63.891,17.754ZM63.891,9.979L64.064,9.988C64.526,9.988 64.894,9.849 65.167,9.569C65.441,9.283 65.577,8.895 65.577,8.402C65.577,7.916 65.444,7.521 65.176,7.217C64.909,6.908 64.569,6.753 64.156,6.753L63.891,6.753L63.891,9.979Z" style="fill:rgb(158,161,168);fill-rule:nonzero;"/>
            <path id="path1130" d="M80.188,17.754L76.387,17.754L76.387,12.094L74.574,12.094L74.574,17.754L70.773,17.754L70.773,3.681L74.574,3.681L74.574,8.658L76.387,8.658L76.387,3.681L80.188,3.681L80.188,17.754Z" style="fill:rgb(158,161,168);fill-rule:nonzero;"/>
            <rect id="path1132" x="82.148" y="3.681" width="3.801" height="14.073" style="fill:rgb(158,161,168);fill-rule:nonzero;"/>
            <path id="path1134" d="M95.82,13.424L95.601,17.49C94.756,17.83 94,18 93.331,18C91.758,18 90.433,17.423 89.357,16.268C88.154,14.974 87.553,13.142 87.553,10.772C87.553,8.554 88.118,6.774 89.248,5.431C90.378,4.094 91.888,3.426 93.778,3.426C94.392,3.426 95.018,3.541 95.656,3.772L95.656,7.792C95.09,7.227 94.51,6.944 93.915,6.944C93.137,6.944 92.529,7.275 92.092,7.937C91.654,8.606 91.436,9.53 91.436,10.708C91.436,11.28 91.49,11.79 91.6,12.24C91.709,12.689 91.864,13.069 92.064,13.379C92.271,13.689 92.523,13.926 92.821,14.09C93.119,14.254 93.459,14.336 93.842,14.336C94.498,14.336 95.157,14.032 95.82,13.424L95.82,13.424Z" style="fill:rgb(158,161,168);fill-rule:nonzero;"/>
            <path id="path1136" d="M117.412,17.754L113.438,17.754L113.156,11.337L113.037,8.776C112.995,9.268 112.946,9.739 112.891,10.189C112.837,10.632 112.77,11.064 112.691,11.483L111.497,17.754L108.398,17.754L107.377,11.474C107.316,11.109 107.234,10.484 107.131,9.596C107.119,9.463 107.091,9.189 107.049,8.776L106.958,11.374L106.62,17.754L102.574,17.754L104.214,3.681L108.945,3.681L109.738,8.421C109.804,8.809 109.862,9.232 109.911,9.687C109.965,10.143 110.014,10.638 110.057,11.173C110.136,10.28 110.245,9.481 110.385,8.776L111.351,3.681L116.045,3.681L117.412,17.754Z" style="fill:rgb(158,161,168);fill-rule:nonzero;"/>
            <path id="path1138" d="M119.117,17.754L119.117,3.681L126.18,3.681L126.18,6.99L122.917,6.99L122.917,9.04L125.843,9.04L125.843,12.221L122.917,12.221L122.917,14.372L126.18,14.372L126.18,17.754L119.117,17.754Z" style="fill:rgb(158,161,168);fill-rule:nonzero;"/>
            <path id="path1140" d="M132.706,17.754L128.906,17.754L128.906,7.053L126.809,7.053L126.809,3.681L134.885,3.681L134.885,7.053L132.706,7.053L132.706,17.754Z" style="fill:rgb(158,161,168);fill-rule:nonzero;"/>
            <path id="path1142" d="M135.887,17.754L135.887,3.681L142.951,3.681L142.951,6.99L139.688,6.99L139.688,9.04L142.614,9.04L142.614,12.221L139.688,12.221L139.688,14.372L142.951,14.372L142.951,17.754L135.887,17.754Z" style="fill:rgb(158,161,168);fill-rule:nonzero;"/>
            <path id="path1144" d="M154.572,17.754L150.462,17.754L148.584,12.741C148.566,12.656 148.532,12.543 148.484,12.404C148.441,12.264 148.386,12.097 148.32,11.902L148.347,12.832L148.347,17.754L144.564,17.754L144.564,3.681L148.456,3.681C150.17,3.681 151.452,4.018 152.303,4.693C153.384,5.556 153.925,6.783 153.925,8.375C153.925,10.076 153.199,11.252 151.747,11.902L154.572,17.754ZM148.365,10.198L148.62,10.198C149.058,10.198 149.423,10.031 149.714,9.697C150.006,9.362 150.152,8.937 150.152,8.421C150.152,7.369 149.602,6.844 148.502,6.844L148.365,6.844L148.365,10.198Z" style="fill:rgb(158,161,168);fill-rule:nonzero;"/>
        </g>
        <g id="rect1149" transform="matrix(1,0,0,-1,0,0)">
            <rect x="0" y="-58" width="195" height="18" style="fill:rgb(77,77,77);fill-opacity:0.78;"/>
        </g>
        <g id="rect1219" transform="matrix(1,0,0,-1,0,0)">
            <rect x="0" y="-78" width="195" height="18" style="fill:rgb(26,26,26);"/>
        </g>
        <g id="rect1223" transform="matrix(1,0,0,-1,0,0)">
            <rect x="0" y="-98" width="195" height="18" style="fill:rgb(77,77,77);fill-opacity:0.78;"/>
        </g>
        <g id="rect1227" transform="matrix(1,0,0,-1,0,0)">
            <rect x="0" y="-118" width="195" height="18" style="fill:rgb(26,26,26);"/>
        </g>
        <g id="rect1231" transform="matrix(1,0,0,-1,0,0)">
            <rect x="0" y="-138" width="195" height="18" style="fill:rgb(77,77,77);fill-opacity:0.78;"/>
        </g>
        <g id="rect1235" transform="matrix(1,0,0,-1,0,0)">
            <rect x="0" y="-158" width="195" height="18" style="fill:rgb(26,26,26);"/>
        </g>
        <g id="rect1239" transform="matrix(1,0,0,-1,0,0)">
            <rect x="0" y="-178" width="195" height="18" style="fill:rgb(77,77,77);fill-opacity:0.78;"/>
        </g>
        <g id="rect1243" transform="matrix(1,0,0,-1,0,0)">
            <rect x="0" y="-198" width="195" height="18" style="fill:rgb(26,26,26);"/>
        </g>
        <g id="rect1247" transform="matrix(1,0,0,-1,0,0)">
            <rect x="0" y="-218" width="195" height="18" style="fill:rgb(77,77,77);fill-opacity:0.78;"/>
        </g>
        <g id="rect1251" transform="matrix(1,0,0,-1,0,0)">
            <rect x="0" y="-238" width="195" height="18" style="fill:rgb(26,26,26);"/>
        </g>
        <g id="rect1255" transform="matrix(1,0,0,-1,0,0)">
            <rect x="0" y="-258" width="195" height="18" style="fill:rgb(77,77,77);fill-opacity:0.78;"/>
        </g>
        <g id="rect1259" transform="matrix(1,0,0,-1,0,0)">
            <rect x="0" y="-278" width="195" height="18" style="fill:rgb(26,26,26);"/>
        </g>
        <g id="rect1263" transform="matrix(1,0,0,-1,0,0)">
            <rect x="0" y="-298" width="195" height="18" style="fill:rgb(77,77,77);fill-opacity:0.78;"/>
        </g>
        <g id="rect1267" transform="matrix(1,0,0,-1,0,0)">
            <rect x="0" y="-318" width="195" height="18" style="fill:rgb(26,26,26);"/>
        </g>
        <g id="rect1271" transform="matrix(1,0,0,-1,0,0)">
            <rect x="0" y="-338" width="195" height="18" style="fill:rgb(77,77,77);fill-opacity:0.78;"/>
        </g>
        <g id="rect1275" transform="matrix(1,0,0,-1,0,0)">
            <rect x="0" y="-358" width="195" height="18" style="fill:rgb(26,26,26);"/>
        </g>
    </g>
</svg>
