<?xml version="1.0" encoding="UTF-8" standalone="no"?>
<!DOCTYPE svg PUBLIC "-//W3C//DTD SVG 1.1//EN" "http://www.w3.org/Graphics/SVG/1.1/DTD/svg11.dtd">
<svg width="100%" height="100%" viewBox="0 0 90 380" version="1.1" xmlns="http://www.w3.org/2000/svg" xmlns:xlink="http://www.w3.org/1999/xlink" xml:space="preserve" xmlns:serif="http://www.serif.com/" style="fill-rule:evenodd;clip-rule:evenodd;stroke-linejoin:round;stroke-miterlimit:2;">
    <g id="Layer-2" serif:id="Layer 2">
        <rect id="rect4689" x="0" y="0" width="90" height="380" style="fill:rgb(44,45,48);"/>
        <g id="text989">
        </g>
        <g id="text80" transform="matrix(1.00498,0,0,0.995047,0,4.99997)">
            <path id="path4726" d="M29.851,371.706L29.851,363.943L31.853,363.943L32.903,366.668C32.96,366.829 33.024,367.013 33.094,367.221C33.168,367.429 33.249,367.668 33.336,367.94L33.552,368.624C33.475,367.95 33.416,367.373 33.376,366.894C33.336,366.415 33.316,366.013 33.316,365.687L33.316,363.943L35.317,363.943L35.317,371.706L33.316,371.706L32.26,368.85C32.149,368.545 32.049,368.26 31.958,367.995C31.871,367.727 31.794,367.472 31.727,367.231C31.77,367.777 31.802,368.253 31.822,368.659C31.843,369.065 31.853,369.42 31.853,369.725L31.853,371.706L29.851,371.706Z" style="fill:rgb(158,161,168);fill-rule:nonzero;"/>
            <path id="path4728" d="M39.887,371.706L37.791,371.706L37.791,368.418L35.865,363.943L38.052,363.943L38.429,365.094C38.503,365.319 38.568,365.535 38.625,365.743C38.686,365.951 38.739,366.15 38.786,366.341C38.863,366.056 38.93,365.811 38.987,365.607C39.044,365.399 39.095,365.232 39.138,365.104L39.52,363.943L41.692,363.943L39.887,368.418L39.887,371.706Z" style="fill:rgb(158,161,168);fill-rule:nonzero;"/>
            <path id="path4730" d="M41.894,371.515L41.894,369.076C42.306,369.639 42.752,369.921 43.231,369.921C43.412,369.921 43.56,369.874 43.673,369.78C43.787,369.683 43.844,369.562 43.844,369.418C43.844,369.21 43.72,369.008 43.472,368.81L43.13,368.543C42.902,368.372 42.708,368.203 42.547,368.035C42.386,367.865 42.256,367.69 42.155,367.513C42.054,367.332 41.981,367.146 41.934,366.954C41.887,366.763 41.863,366.562 41.863,366.351C41.863,365.989 41.947,365.61 42.115,365.215C42.199,365.03 42.296,364.863 42.406,364.712C42.517,364.558 42.644,364.422 42.789,364.305C43.184,363.969 43.662,363.802 44.222,363.802C44.721,363.802 45.224,363.934 45.73,364.199L45.73,366.572C45.559,366.308 45.365,366.1 45.147,365.949C44.929,365.795 44.714,365.718 44.503,365.718C44.342,365.718 44.21,365.765 44.106,365.858C43.999,365.949 43.945,366.058 43.945,366.185C43.945,366.393 44.087,366.599 44.372,366.804L44.704,367.05C45.147,367.368 45.463,367.695 45.655,368.03C45.849,368.366 45.946,368.758 45.946,369.207C45.946,369.971 45.713,370.601 45.247,371.098C44.781,371.594 44.191,371.842 43.477,371.842C42.985,371.842 42.457,371.733 41.894,371.515L41.894,371.515Z" style="fill:rgb(158,161,168);fill-rule:nonzero;"/>
            <path id="path4732" d="M49.576,371.706L47.48,371.706L47.48,365.803L46.323,365.803L46.323,363.943L50.778,363.943L50.778,365.803L49.576,365.803L49.576,371.706Z" style="fill:rgb(158,161,168);fill-rule:nonzero;"/>
            <path id="path4734" d="M56.525,371.706L54.428,371.706L54.428,368.584L53.428,368.584L53.428,371.706L51.331,371.706L51.331,363.943L53.428,363.943L53.428,366.688L54.428,366.688L54.428,363.943L56.525,363.943L56.525,371.706Z" style="fill:rgb(158,161,168);fill-rule:nonzero;"/>
            <rect id="path4736" x="57.606" y="363.943" width="2.097" height="7.763" style="fill:rgb(158,161,168);fill-rule:nonzero;"/>
        </g>
        <rect id="rect4778-3-6" x="6" y="27" width="34" height="42" style="fill:rgb(179,179,179);"/>
        <g id="text4613">
            <path id="path4701" d="M17.141,61L15.047,61L15.047,55.37L17.141,55.37L17.141,61ZM17.318,53.625C17.318,53.955 17.198,54.24 16.958,54.479C16.712,54.715 16.425,54.833 16.099,54.833C15.762,54.833 15.474,54.714 15.234,54.474C14.998,54.227 14.88,53.939 14.88,53.609C14.88,53.273 14.998,52.986 15.234,52.75C15.481,52.514 15.767,52.396 16.094,52.396C16.437,52.396 16.727,52.516 16.964,52.755C17.2,52.991 17.318,53.281 17.318,53.625Z" style="fill:rgb(44,45,48);fill-rule:nonzero;"/>
            <path id="path4703" d="M23.068,61L20.979,61L20.979,58.021C20.979,57.764 20.953,57.585 20.901,57.484C20.852,57.384 20.766,57.333 20.641,57.333C20.349,57.333 20.203,57.609 20.203,58.161L20.203,61L18.115,61L18.115,55.37L20.203,55.37C20.2,55.509 20.196,55.637 20.193,55.755C20.189,55.873 20.184,55.983 20.177,56.083L20.156,56.443C20.493,55.648 20.986,55.25 21.635,55.25C22.087,55.25 22.438,55.418 22.688,55.755C22.941,56.092 23.068,56.561 23.068,57.161L23.068,61Z" style="fill:rgb(44,45,48);fill-rule:nonzero;"/>
            <path id="path4705" d="M31.12,61L27.318,61L27.318,52.958L29.49,52.958L29.49,59.068L31.12,59.068L31.12,61Z" style="fill:rgb(44,45,48);fill-rule:nonzero;"/>
        </g>
        <rect id="rect4662" x="50" y="27" width="34" height="42" style="fill:rgb(179,179,179);"/>
        <g id="text4617">
            <path id="path4708" d="M60.182,61L58.089,61L58.089,55.37L60.182,55.37L60.182,61ZM60.359,53.625C60.359,53.955 60.24,54.24 60,54.479C59.753,54.715 59.467,54.833 59.141,54.833C58.804,54.833 58.516,54.714 58.276,54.474C58.04,54.227 57.922,53.939 57.922,53.609C57.922,53.273 58.04,52.986 58.276,52.75C58.523,52.514 58.809,52.396 59.135,52.396C59.479,52.396 59.769,52.516 60.005,52.755C60.241,52.991 60.359,53.281 60.359,53.625L60.359,53.625Z" style="fill:rgb(44,45,48);fill-rule:nonzero;"/>
            <path id="path4710" d="M66.109,61L64.021,61L64.021,58.021C64.021,57.764 63.995,57.585 63.943,57.484C63.894,57.384 63.807,57.333 63.682,57.333C63.391,57.333 63.245,57.609 63.245,58.161L63.245,61L61.156,61L61.156,55.37L63.245,55.37C63.241,55.509 63.238,55.637 63.234,55.755C63.231,55.873 63.226,55.983 63.219,56.083L63.198,56.443C63.535,55.648 64.028,55.25 64.677,55.25C65.128,55.25 65.479,55.418 65.729,55.755C65.983,56.092 66.109,56.561 66.109,57.161L66.109,61Z" style="fill:rgb(44,45,48);fill-rule:nonzero;"/>
            <path id="path4712" d="M76.078,61L73.729,61L72.656,58.135C72.646,58.087 72.627,58.023 72.599,57.943C72.575,57.863 72.544,57.767 72.505,57.656L72.521,58.187L72.521,61L70.359,61L70.359,52.958L72.583,52.958C73.562,52.958 74.295,53.151 74.781,53.536C75.399,54.03 75.708,54.731 75.708,55.641C75.708,56.613 75.293,57.285 74.463,57.656L76.078,61ZM72.531,56.682L72.677,56.682C72.927,56.682 73.135,56.587 73.302,56.396C73.469,56.205 73.552,55.962 73.552,55.667C73.552,55.066 73.238,54.766 72.609,54.766L72.531,54.766L72.531,56.682Z" style="fill:rgb(44,45,48);fill-rule:nonzero;"/>
        </g>
        <g id="g4922">
            <rect id="rect4778" x="6" y="310" width="34" height="42" style="fill:rgb(60,60,60);"/>
            <g id="text4861">
                <path id="path4899" d="M16.849,345.271C16.849,346.139 16.609,346.83 16.13,347.344C15.651,347.858 15.009,348.115 14.203,348.115C13.411,348.115 12.781,347.852 12.313,347.328C11.847,346.8 11.615,346.092 11.615,345.203C11.615,344.314 11.852,343.601 12.328,343.062C12.8,342.521 13.427,342.25 14.208,342.25C15.031,342.25 15.677,342.519 16.146,343.057C16.615,343.595 16.849,344.333 16.849,345.271ZM14.823,345.203C14.823,344.995 14.809,344.807 14.781,344.641C14.753,344.47 14.714,344.326 14.661,344.208C14.609,344.087 14.547,343.993 14.474,343.927C14.401,343.861 14.319,343.828 14.229,343.828C14.052,343.828 13.91,343.953 13.802,344.203C13.694,344.422 13.641,344.75 13.641,345.188C13.641,345.618 13.694,345.946 13.802,346.172C13.91,346.422 14.054,346.547 14.234,346.547C14.405,346.547 14.545,346.424 14.656,346.177C14.767,345.903 14.823,345.578 14.823,345.203L14.823,345.203Z" style="fill:rgb(158,161,168);fill-rule:nonzero;"/>
                <path id="path4901" d="M17.651,342.37L19.74,342.37L19.74,345.542C19.74,345.844 19.769,346.064 19.828,346.203C19.891,346.318 20.009,346.375 20.182,346.375C20.352,346.375 20.467,346.318 20.526,346.203C20.589,346.089 20.62,345.868 20.62,345.542L20.62,342.37L22.708,342.37L22.708,345.823C22.708,346.052 22.689,346.26 22.651,346.448C22.616,346.632 22.559,346.8 22.479,346.953C22.403,347.102 22.302,347.24 22.177,347.365C22.056,347.49 21.91,347.604 21.74,347.708C21.281,347.979 20.762,348.115 20.182,348.115C19.595,348.115 19.076,347.979 18.625,347.708C18.451,347.604 18.302,347.491 18.177,347.37C18.056,347.245 17.955,347.106 17.875,346.953C17.799,346.8 17.741,346.632 17.703,346.448C17.668,346.26 17.651,346.052 17.651,345.823L17.651,342.37Z" style="fill:rgb(158,161,168);fill-rule:nonzero;"/>
                <path id="path4903" d="M26.047,348L23.953,348L23.953,344.052L23.359,344.052L23.359,342.37L23.953,342.37L23.953,340.714L26.047,340.714L26.047,342.37L26.74,342.37L26.74,344.052L26.047,344.052L26.047,348Z" style="fill:rgb(158,161,168);fill-rule:nonzero;"/>
                <path id="path4905" d="M34.385,348L30.583,348L30.583,339.958L32.755,339.958L32.755,346.068L34.385,346.068L34.385,348Z" style="fill:rgb(158,161,168);fill-rule:nonzero;"/>
            </g>
        </g>
        <g id="g4914">
            <rect id="rect4778-3" x="50" y="310" width="34" height="42" style="fill:rgb(60,60,60);"/>
            <g id="text4886">
                <path id="path4890" d="M59.891,345.271C59.891,346.139 59.651,346.83 59.172,347.344C58.693,347.858 58.05,348.115 57.245,348.115C56.453,348.115 55.823,347.852 55.354,347.328C54.889,346.8 54.656,346.092 54.656,345.203C54.656,344.314 54.894,343.601 55.37,343.062C55.842,342.521 56.469,342.25 57.25,342.25C58.073,342.25 58.719,342.519 59.187,343.057C59.656,343.595 59.891,344.333 59.891,345.271ZM57.865,345.203C57.865,344.995 57.851,344.807 57.823,344.641C57.795,344.47 57.755,344.326 57.703,344.208C57.651,344.087 57.589,343.993 57.516,343.927C57.443,343.861 57.361,343.828 57.271,343.828C57.094,343.828 56.951,343.953 56.844,344.203C56.736,344.422 56.682,344.75 56.682,345.187C56.682,345.618 56.736,345.946 56.844,346.172C56.951,346.422 57.095,346.547 57.276,346.547C57.446,346.547 57.587,346.424 57.698,346.177C57.809,345.903 57.865,345.578 57.865,345.203L57.865,345.203Z" style="fill:rgb(158,161,168);fill-rule:nonzero;"/>
                <path id="path4892" d="M60.693,342.37L62.781,342.37L62.781,345.542C62.781,345.844 62.811,346.064 62.87,346.203C62.932,346.318 63.05,346.375 63.224,346.375C63.394,346.375 63.509,346.318 63.568,346.203C63.63,346.089 63.661,345.868 63.661,345.542L63.661,342.37L65.75,342.37L65.75,345.823C65.75,346.052 65.731,346.26 65.693,346.448C65.658,346.632 65.601,346.8 65.521,346.953C65.444,347.102 65.344,347.24 65.219,347.365C65.097,347.49 64.951,347.604 64.781,347.708C64.323,347.979 63.804,348.115 63.224,348.115C62.637,348.115 62.118,347.979 61.667,347.708C61.493,347.604 61.344,347.491 61.219,347.37C61.097,347.245 60.997,347.106 60.917,346.953C60.84,346.8 60.783,346.632 60.745,346.448C60.71,346.26 60.693,346.052 60.693,345.823L60.693,342.37Z" style="fill:rgb(158,161,168);fill-rule:nonzero;"/>
                <path id="path4894" d="M69.089,348L66.995,348L66.995,344.052L66.401,344.052L66.401,342.37L66.995,342.37L66.995,340.714L69.089,340.714L69.089,342.37L69.781,342.37L69.781,344.052L69.089,344.052L69.089,348Z" style="fill:rgb(158,161,168);fill-rule:nonzero;"/>
                <path id="path4896" d="M79.344,348L76.995,348L75.922,345.135C75.912,345.087 75.892,345.023 75.865,344.943C75.84,344.863 75.809,344.767 75.771,344.656L75.786,345.187L75.786,348L73.625,348L73.625,339.958L75.849,339.958C76.828,339.958 77.561,340.151 78.047,340.536C78.665,341.029 78.974,341.731 78.974,342.641C78.974,343.613 78.559,344.285 77.729,344.656L79.344,348ZM75.797,343.682L75.943,343.682C76.193,343.682 76.401,343.587 76.568,343.396C76.734,343.205 76.818,342.962 76.818,342.667C76.818,342.066 76.503,341.766 75.875,341.766L75.797,341.766L75.797,343.682Z" style="fill:rgb(158,161,168);fill-rule:nonzero;"/>
            </g>
        </g>
        <g id="text4926" transform="matrix(0.998063,0,0,1.00194,-6,0)">
            <path id="path5122" d="M16.688,79.845L17.608,79.845L18.312,83.103C18.398,83.51 18.475,83.918 18.544,84.329C18.617,84.735 18.682,85.163 18.741,85.611C18.748,85.552 18.753,85.508 18.756,85.477C18.76,85.442 18.763,85.418 18.767,85.404L18.917,84.489L19.051,83.62L19.17,83.046L19.796,79.845L20.727,79.845L21.461,87.83L20.432,87.83L20.251,85.12C20.244,84.982 20.237,84.863 20.23,84.763C20.227,84.663 20.225,84.58 20.225,84.515L20.178,83.444L20.153,82.462C20.153,82.455 20.151,82.441 20.147,82.42C20.147,82.396 20.146,82.365 20.142,82.327L20.116,82.488C20.089,82.677 20.063,82.843 20.039,82.984C20.018,83.125 19.999,83.244 19.982,83.341L19.847,84.07L19.796,84.344L19.124,87.829L18.4,87.829L17.769,84.82C17.682,84.423 17.605,84.022 17.536,83.615C17.47,83.205 17.41,82.775 17.355,82.327L17.045,87.83L16.031,87.83L16.688,79.845Z" style="fill:rgb(158,161,168);fill-rule:nonzero;"/>
            <rect id="path5124" x="22.35" y="79.845" width="1.076" height="7.985" style="fill:rgb(158,161,168);fill-rule:nonzero;"/>
            <path id="path5126" d="M24.124,79.845L25.169,79.845L25.722,81.391C25.939,82.001 26.069,82.448 26.11,82.731C26.148,82.555 26.189,82.384 26.234,82.219C26.282,82.053 26.332,81.888 26.384,81.722L26.456,81.489L26.968,79.845L28.054,79.845L26.575,83.775L28.054,87.83L26.968,87.83L26.441,86.309C26.334,86.006 26.248,85.733 26.182,85.492C26.117,85.251 26.07,85.037 26.043,84.851C26.015,85.082 25.969,85.302 25.903,85.513L25.722,86.082L25.629,86.382L25.169,87.83L24.031,87.83L25.541,83.775L24.124,79.845Z" style="fill:rgb(158,161,168);fill-rule:nonzero;"/>
        </g>
        <g id="text4930" transform="matrix(0.998063,0,0,1.00194,-6.27871,1.00002)">
            <path id="path5105" d="M16.31,101.802L17.727,101.802C18.41,101.802 18.906,101.975 19.217,102.319C19.527,102.668 19.682,103.219 19.682,103.974C19.682,105.036 19.37,105.722 18.746,106.032C18.432,106.174 17.979,106.245 17.386,106.245L17.386,109.787L16.31,109.787L16.31,101.802ZM17.386,105.324C17.831,105.324 18.138,105.234 18.306,105.055C18.479,104.872 18.565,104.548 18.565,104.083C18.565,103.607 18.482,103.259 18.317,103.038C18.151,102.818 17.891,102.707 17.536,102.707L17.386,102.707L17.386,105.324Z" style="fill:rgb(158,161,168);fill-rule:nonzero;"/>
            <path id="path5107" d="M20.509,101.802L21.926,101.802C22.512,101.802 22.949,101.942 23.235,102.221C23.597,102.583 23.778,103.137 23.778,103.881C23.778,104.454 23.681,104.914 23.488,105.262C23.298,105.607 23.026,105.82 22.671,105.903L24.14,109.787L23.049,109.787L21.585,105.877L21.585,109.787L20.509,109.787L20.509,101.802ZM21.585,105.34C22.002,105.34 22.297,105.243 22.469,105.05C22.642,104.857 22.728,104.531 22.728,104.073C22.728,103.824 22.709,103.612 22.671,103.437C22.637,103.261 22.58,103.118 22.5,103.007C22.425,102.897 22.325,102.816 22.2,102.764C22.08,102.713 21.935,102.687 21.766,102.687L21.585,102.687L21.585,105.34Z" style="fill:rgb(158,161,168);fill-rule:nonzero;"/>
            <path id="path5109" d="M24.977,101.802L27.837,101.802L27.837,102.713L26.053,102.713L26.053,105.241L27.635,105.241L27.635,106.151L26.053,106.151L26.053,108.877L27.837,108.877L27.837,109.787L24.977,109.787L24.977,101.802Z" style="fill:rgb(158,161,168);fill-rule:nonzero;"/>
            <path id="path5111" d="M28.825,101.802L30.149,101.802C30.552,101.802 30.892,101.847 31.167,101.937C31.423,102.023 31.65,102.176 31.85,102.397C32.15,102.728 32.364,103.159 32.491,103.69C32.619,104.204 32.683,104.94 32.683,105.898C32.683,106.777 32.612,107.494 32.471,108.049C32.333,108.58 32.105,108.985 31.788,109.265C31.398,109.613 30.7,109.787 29.694,109.787L28.825,109.787L28.825,101.802ZM29.901,108.846C30.556,108.846 30.993,108.647 31.214,108.251C31.442,107.855 31.555,107.084 31.555,105.939C31.555,104.709 31.447,103.862 31.23,103.4C31.012,102.938 30.614,102.707 30.035,102.707L29.901,102.707L29.901,108.846Z" style="fill:rgb(158,161,168);fill-rule:nonzero;"/>
            <path id="path5113" d="M33.748,101.802L36.608,101.802L36.608,102.713L34.824,102.713L34.824,105.241L36.406,105.241L36.406,106.151L34.824,106.151L34.824,108.877L36.608,108.877L36.608,109.787L33.748,109.787L33.748,101.802Z" style="fill:rgb(158,161,168);fill-rule:nonzero;"/>
            <path id="path5115" d="M37.595,101.802L38.671,101.802L38.671,108.877L40.429,108.877L40.429,109.787L37.595,109.787L37.595,101.802Z" style="fill:rgb(158,161,168);fill-rule:nonzero;"/>
            <path id="path5117" d="M42.684,101.802L43.522,101.802L45.233,109.787L44.168,109.787L43.868,108.23L42.286,108.23L41.981,109.787L40.946,109.787L42.684,101.802ZM43.713,107.398L43.475,106.126C43.317,105.26 43.187,104.336 43.087,103.354C43.039,103.833 42.977,104.319 42.901,104.812C42.825,105.302 42.736,105.822 42.632,106.374L42.436,107.398L43.713,107.398Z" style="fill:rgb(158,161,168);fill-rule:nonzero;"/>
            <path id="path5119" d="M44.861,101.802L45.999,101.802L46.526,103.54C46.543,103.592 46.561,103.649 46.578,103.711C46.595,103.773 46.616,103.84 46.64,103.912C46.837,104.54 46.971,105.067 47.043,105.495C47.105,105.067 47.157,104.769 47.199,104.6L47.364,103.886L47.426,103.607L47.871,101.802L48.993,101.802L47.602,106.353L47.602,109.787L46.526,109.787L46.526,106.353L44.861,101.802Z" style="fill:rgb(158,161,168);fill-rule:nonzero;"/>
        </g>
        <g id="text4934" transform="matrix(0.998063,0,0,1.00194,-6.11871,2.00004)">
            <path id="path5088" d="M16.31,123.76L19.17,123.76L19.17,124.67L17.386,124.67L17.386,127.199L18.968,127.199L18.968,128.109L17.386,128.109L17.386,130.834L19.17,130.834L19.17,131.744L16.31,131.744L16.31,123.76Z" style="fill:rgb(158,161,168);fill-rule:nonzero;"/>
            <path id="path5090" d="M21.295,123.76L22.133,123.76L23.845,131.744L22.78,131.744L22.48,130.188L20.897,130.188L20.592,131.744L19.558,131.744L21.295,123.76ZM22.325,129.355L22.087,128.083C21.928,127.218 21.799,126.294 21.699,125.311C21.651,125.79 21.588,126.276 21.513,126.769C21.437,127.259 21.347,127.78 21.244,128.331L21.047,129.355L22.325,129.355Z" style="fill:rgb(158,161,168);fill-rule:nonzero;"/>
            <path id="path5092" d="M24.481,123.76L25.898,123.76C26.484,123.76 26.92,123.899 27.206,124.179C27.568,124.541 27.749,125.094 27.749,125.839C27.749,126.411 27.653,126.871 27.46,127.219C27.27,127.564 26.998,127.778 26.643,127.861L28.111,131.744L27.02,131.744L25.557,127.835L25.557,131.744L24.481,131.744L24.481,123.76ZM25.557,127.297C25.974,127.297 26.269,127.2 26.441,127.007C26.613,126.814 26.699,126.488 26.699,126.03C26.699,125.782 26.681,125.57 26.643,125.394C26.608,125.218 26.551,125.075 26.472,124.965C26.396,124.854 26.296,124.773 26.172,124.722C26.051,124.67 25.907,124.644 25.738,124.644L25.557,124.644L25.557,127.297Z" style="fill:rgb(158,161,168);fill-rule:nonzero;"/>
            <path id="path5094" d="M28.949,123.76L30.025,123.76L30.025,130.834L31.783,130.834L31.783,131.744L28.949,131.744L28.949,123.76Z" style="fill:rgb(158,161,168);fill-rule:nonzero;"/>
            <path id="path5096" d="M31.436,123.76L32.574,123.76L33.102,125.497C33.119,125.549 33.136,125.606 33.153,125.668C33.17,125.73 33.191,125.797 33.215,125.87C33.412,126.497 33.546,127.025 33.619,127.452C33.681,127.025 33.732,126.726 33.774,126.557L33.939,125.844L34.001,125.564L34.446,123.76L35.568,123.76L34.177,128.31L34.177,131.744L33.102,131.744L33.102,128.31L31.436,123.76Z" style="fill:rgb(158,161,168);fill-rule:nonzero;"/>
            <path id="path5098" d="M36.546,123.76L37.466,123.76L38.169,127.018C38.256,127.424 38.333,127.833 38.402,128.243C38.475,128.65 38.54,129.078 38.599,129.526C38.605,129.467 38.611,129.422 38.614,129.391C38.618,129.357 38.621,129.333 38.624,129.319L38.774,128.404L38.909,127.535L39.028,126.961L39.653,123.76L40.584,123.76L41.319,131.744L40.289,131.744L40.108,129.034C40.102,128.897 40.095,128.778 40.088,128.678C40.084,128.578 40.082,128.495 40.082,128.429L40.036,127.359L40.01,126.376C40.01,126.37 40.008,126.356 40.005,126.335C40.005,126.311 40.003,126.28 40,126.242L39.974,126.402C39.946,126.592 39.92,126.757 39.896,126.899C39.876,127.04 39.857,127.159 39.839,127.255L39.705,127.985L39.653,128.259L38.981,131.744L38.257,131.744L37.626,128.735C37.54,128.338 37.463,127.936 37.394,127.53C37.328,127.119 37.268,126.69 37.213,126.242L36.902,131.744L35.889,131.744L36.546,123.76Z" style="fill:rgb(158,161,168);fill-rule:nonzero;"/>
            <rect id="path5100" x="42.208" y="123.76" width="1.076" height="7.985" style="fill:rgb(158,161,168);fill-rule:nonzero;"/>
            <path id="path5102" d="M43.982,123.76L45.027,123.76L45.58,125.306C45.797,125.916 45.926,126.363 45.968,126.645C46.006,126.469 46.047,126.299 46.092,126.133C46.14,125.968 46.19,125.802 46.242,125.637L46.314,125.404L46.826,123.76L47.912,123.76L46.433,127.69L47.912,131.744L46.826,131.744L46.299,130.224C46.192,129.92 46.106,129.648 46.04,129.407C45.975,129.165 45.928,128.952 45.901,128.766C45.873,128.997 45.826,129.217 45.761,129.427L45.58,129.996L45.487,130.296L45.027,131.744L43.889,131.744L45.399,127.69L43.982,123.76Z" style="fill:rgb(158,161,168);fill-rule:nonzero;"/>
        </g>
        <g id="text4938" transform="matrix(0.998063,0,0,1.00194,-6.11871,2.90161)">
            <path id="path5071" d="M16.31,145.717L17.727,145.717C18.313,145.717 18.749,145.857 19.036,146.136C19.398,146.498 19.579,147.051 19.579,147.796C19.579,148.368 19.482,148.828 19.289,149.177C19.099,149.521 18.827,149.735 18.472,149.818L19.941,153.702L18.849,153.702L17.386,149.792L17.386,153.702L16.31,153.702L16.31,145.717ZM17.386,149.254C17.803,149.254 18.098,149.158 18.27,148.965C18.443,148.772 18.529,148.446 18.529,147.987C18.529,147.739 18.51,147.527 18.472,147.351C18.437,147.175 18.381,147.032 18.301,146.922C18.225,146.812 18.125,146.731 18.001,146.679C17.881,146.627 17.736,146.601 17.567,146.601L17.386,146.601L17.386,149.254Z" style="fill:rgb(158,161,168);fill-rule:nonzero;"/>
            <path id="path5073" d="M24.693,149.906C24.693,151.316 24.536,152.317 24.222,152.91C23.909,153.503 23.383,153.8 22.645,153.8C21.869,153.8 21.323,153.481 21.006,152.843C20.692,152.219 20.535,151.111 20.535,149.518C20.535,148.098 20.69,147.093 21.001,146.503C21.314,145.91 21.845,145.614 22.593,145.614C23.262,145.614 23.759,145.843 24.083,146.301C24.297,146.608 24.452,147.044 24.548,147.61C24.645,148.134 24.693,148.899 24.693,149.906L24.693,149.906ZM23.566,150.02C23.566,148.637 23.504,147.72 23.379,147.268C23.255,146.813 23.002,146.586 22.619,146.586C22.237,146.586 21.982,146.794 21.854,147.212C21.73,147.632 21.668,148.477 21.668,149.746C21.668,150.914 21.733,151.724 21.864,152.176C21.999,152.604 22.25,152.817 22.619,152.817C22.981,152.817 23.23,152.617 23.364,152.217C23.498,151.821 23.566,151.088 23.566,150.02L23.566,150.02Z" style="fill:rgb(158,161,168);fill-rule:nonzero;"/>
            <path id="path5075" d="M29.761,149.906C29.761,151.316 29.604,152.317 29.29,152.91C28.977,153.503 28.451,153.8 27.713,153.8C26.937,153.8 26.391,153.481 26.074,152.843C25.76,152.219 25.603,151.111 25.603,149.518C25.603,148.098 25.758,147.093 26.069,146.503C26.382,145.91 26.913,145.614 27.661,145.614C28.33,145.614 28.827,145.843 29.151,146.301C29.364,146.608 29.52,147.044 29.616,147.61C29.713,148.134 29.761,148.899 29.761,149.906L29.761,149.906ZM28.634,150.02C28.634,148.637 28.571,147.72 28.447,147.268C28.323,146.813 28.07,146.586 27.687,146.586C27.305,146.586 27.049,146.794 26.922,147.212C26.798,147.632 26.736,148.477 26.736,149.746C26.736,150.914 26.801,151.724 26.932,152.176C27.067,152.604 27.318,152.817 27.687,152.817C28.049,152.817 28.297,152.617 28.432,152.217C28.566,151.821 28.634,151.088 28.634,150.02L28.634,150.02Z" style="fill:rgb(158,161,168);fill-rule:nonzero;"/>
            <path id="path5077" d="M31.209,145.717L32.129,145.717L32.833,148.975C32.919,149.382 32.996,149.79 33.065,150.201C33.138,150.607 33.203,151.035 33.262,151.483C33.269,151.424 33.274,151.38 33.277,151.349C33.281,151.314 33.284,151.29 33.288,151.276L33.438,150.361L33.572,149.492L33.691,148.918L34.317,145.717L35.248,145.717L35.982,153.702L34.953,153.702L34.772,150.992C34.765,150.854 34.758,150.735 34.751,150.635C34.748,150.535 34.746,150.452 34.746,150.387L34.699,149.316L34.674,148.334C34.674,148.327 34.672,148.313 34.668,148.292C34.668,148.268 34.667,148.237 34.663,148.199L34.637,148.36C34.61,148.549 34.584,148.715 34.56,148.856C34.539,148.997 34.52,149.116 34.503,149.213L34.369,149.942L34.317,150.216L33.645,153.702L32.921,153.702L32.29,150.692C32.203,150.295 32.126,149.894 32.057,149.487C31.991,149.077 31.931,148.647 31.876,148.199L31.566,153.702L30.552,153.702L31.209,145.717Z" style="fill:rgb(158,161,168);fill-rule:nonzero;"/>
            <path id="path5079" d="M39.535,145.883L39.535,146.932C39.207,146.698 38.912,146.581 38.65,146.581C38.368,146.581 38.137,146.681 37.957,146.881C37.778,147.07 37.689,147.324 37.689,147.641C37.689,147.92 37.752,148.16 37.88,148.36C37.945,148.466 38.052,148.604 38.2,148.773C38.352,148.942 38.547,149.146 38.785,149.384C39.223,149.828 39.521,150.213 39.679,150.537C39.838,150.85 39.917,151.235 39.917,151.69C39.917,152.307 39.743,152.816 39.395,153.215C39.047,153.605 38.6,153.8 38.056,153.8C37.597,153.8 37.206,153.674 36.882,153.422L36.882,152.357C37.264,152.636 37.613,152.776 37.926,152.776C38.219,152.776 38.449,152.679 38.614,152.486C38.78,152.29 38.862,152.024 38.862,151.69C38.862,151.4 38.799,151.14 38.671,150.909C38.605,150.799 38.514,150.673 38.397,150.532C38.28,150.387 38.133,150.226 37.957,150.051C37.685,149.782 37.459,149.544 37.28,149.337C37.101,149.13 36.968,148.949 36.882,148.794C36.716,148.491 36.634,148.108 36.634,147.646C36.634,147.022 36.796,146.527 37.12,146.162C37.447,145.793 37.887,145.609 38.438,145.609C38.821,145.609 39.186,145.7 39.535,145.883L39.535,145.883Z" style="fill:rgb(158,161,168);fill-rule:nonzero;"/>
            <rect id="path5081" x="40.822" y="145.717" width="1.076" height="7.985" style="fill:rgb(158,161,168);fill-rule:nonzero;"/>
            <path id="path5083" d="M42.943,145.717L46.459,145.717L44.06,152.76L46.33,152.76L46.33,153.702L42.658,153.702L45.078,146.627L42.943,146.627L42.943,145.717Z" style="fill:rgb(158,161,168);fill-rule:nonzero;"/>
            <path id="path5085" d="M47.131,145.717L49.991,145.717L49.991,146.627L48.207,146.627L48.207,149.156L49.789,149.156L49.789,150.066L48.207,150.066L48.207,152.791L49.991,152.791L49.991,153.702L47.131,153.702L47.131,145.717Z" style="fill:rgb(158,161,168);fill-rule:nonzero;"/>
        </g>
        <g id="text4942" transform="matrix(0.998063,0,0,1.00194,-6.27871,3.90163)">
            <path id="path5056" d="M16.31,167.674L17.634,167.674C18.038,167.674 18.377,167.719 18.653,167.809C18.908,167.895 19.136,168.048 19.336,168.269C19.635,168.6 19.849,169.031 19.977,169.562C20.104,170.076 20.168,170.812 20.168,171.77C20.168,172.649 20.097,173.366 19.956,173.921C19.818,174.452 19.591,174.857 19.273,175.137C18.884,175.485 18.186,175.659 17.179,175.659L16.31,175.659L16.31,167.674ZM17.386,174.718C18.041,174.718 18.479,174.52 18.699,174.123C18.927,173.727 19.041,172.956 19.041,171.811C19.041,170.581 18.932,169.734 18.715,169.272C18.498,168.81 18.1,168.579 17.52,168.579L17.386,168.579L17.386,174.718Z" style="fill:rgb(158,161,168);fill-rule:nonzero;"/>
            <path id="path5058" d="M21.233,167.674L24.093,167.674L24.093,168.585L22.309,168.585L22.309,171.113L23.891,171.113L23.891,172.024L22.309,172.024L22.309,174.749L24.093,174.749L24.093,175.659L21.233,175.659L21.233,167.674Z" style="fill:rgb(158,161,168);fill-rule:nonzero;"/>
            <path id="path5060" d="M25.081,167.674L26.084,167.674L27.155,170.86C27.465,171.76 27.739,172.72 27.977,173.74C27.891,173.123 27.827,172.565 27.785,172.065C27.744,171.565 27.723,171.094 27.723,170.653L27.723,167.674L28.804,167.674L28.804,175.659L27.796,175.659L26.591,172.065C26.481,171.73 26.375,171.387 26.275,171.036C26.179,170.684 26.089,170.315 26.007,169.929C26,169.881 25.988,169.822 25.97,169.753C25.957,169.684 25.939,169.605 25.919,169.515C25.929,169.605 25.938,169.683 25.944,169.748C25.951,169.81 25.957,169.864 25.96,169.908L26.017,170.72L26.074,171.708C26.077,171.763 26.079,171.83 26.079,171.91C26.082,171.989 26.084,172.079 26.084,172.179L26.141,175.659L25.081,175.659L25.081,167.674Z" style="fill:rgb(158,161,168);fill-rule:nonzero;"/>
            <path id="path5062" d="M32.709,167.84L32.709,168.89C32.381,168.655 32.086,168.538 31.824,168.538C31.542,168.538 31.311,168.638 31.131,168.838C30.952,169.028 30.862,169.281 30.862,169.598C30.862,169.877 30.926,170.117 31.054,170.317C31.119,170.424 31.226,170.562 31.374,170.731C31.526,170.9 31.721,171.103 31.959,171.341C32.397,171.786 32.695,172.17 32.853,172.494C33.012,172.808 33.091,173.192 33.091,173.647C33.091,174.264 32.917,174.773 32.569,175.173C32.221,175.562 31.774,175.757 31.23,175.757C30.771,175.757 30.38,175.631 30.056,175.38L30.056,174.314C30.438,174.594 30.787,174.733 31.1,174.733C31.393,174.733 31.623,174.637 31.788,174.444C31.954,174.247 32.036,173.982 32.036,173.647C32.036,173.358 31.972,173.097 31.845,172.866C31.779,172.756 31.688,172.63 31.571,172.489C31.454,172.344 31.307,172.184 31.131,172.008C30.859,171.739 30.633,171.501 30.454,171.294C30.275,171.088 30.142,170.907 30.056,170.751C29.89,170.448 29.807,170.065 29.807,169.603C29.807,168.979 29.969,168.485 30.294,168.119C30.621,167.75 31.061,167.566 31.612,167.566C31.995,167.566 32.36,167.657 32.709,167.84L32.709,167.84Z" style="fill:rgb(158,161,168);fill-rule:nonzero;"/>
            <rect id="path5064" x="33.996" y="167.674" width="1.076" height="7.985" style="fill:rgb(158,161,168);fill-rule:nonzero;"/>
            <path id="path5066" d="M35.677,167.674L39.178,167.674L39.178,168.616L37.973,168.616L37.973,175.659L36.918,175.659L36.918,168.616L35.677,168.616L35.677,167.674Z" style="fill:rgb(158,161,168);fill-rule:nonzero;"/>
            <path id="path5068" d="M39.607,167.674L40.745,167.674L41.272,169.412C41.289,169.464 41.307,169.521 41.324,169.583C41.341,169.645 41.362,169.712 41.386,169.784C41.582,170.412 41.717,170.939 41.789,171.367C41.851,170.939 41.903,170.641 41.944,170.472L42.11,169.758L42.172,169.479L42.617,167.674L43.739,167.674L42.348,172.225L42.348,175.659L41.272,175.659L41.272,172.225L39.607,167.674Z" style="fill:rgb(158,161,168);fill-rule:nonzero;"/>
        </g>
        <g id="g5148">
            <path id="path5026" d="M10.16,217.902L11.481,217.902C11.884,217.902 12.223,217.946 12.498,218.036C12.753,218.123 12.98,218.276 13.179,218.497C13.479,218.829 13.692,219.261 13.819,219.793C13.947,220.307 14.01,221.045 14.01,222.005C14.01,222.886 13.94,223.604 13.799,224.161C13.661,224.693 13.434,225.098 13.117,225.378C12.729,225.727 12.032,225.902 11.027,225.902L10.16,225.902L10.16,217.902ZM11.234,224.959C11.887,224.959 12.324,224.76 12.545,224.363C12.772,223.965 12.885,223.193 12.885,222.047C12.885,220.813 12.777,219.965 12.56,219.503C12.343,219.04 11.946,218.808 11.368,218.808L11.234,218.808L11.234,224.959Z" style="fill:rgb(158,161,168);fill-rule:nonzero;"/>
            <path id="path5028" d="M15.074,217.902L17.928,217.902L17.928,218.813L16.147,218.813L16.147,221.347L17.726,221.347L17.726,222.259L16.147,222.259L16.147,224.99L17.928,224.99L17.928,225.902L15.074,225.902L15.074,217.902Z" style="fill:rgb(158,161,168);fill-rule:nonzero;"/>
            <path id="path5030" d="M22.041,218.031L22.041,219C21.766,218.865 21.535,218.798 21.35,218.798C21.095,218.798 20.877,218.862 20.694,218.99C20.512,219.114 20.36,219.307 20.24,219.57C20.123,219.832 20.035,220.166 19.977,220.57C19.922,220.971 19.894,221.446 19.894,221.995C19.894,223.971 20.398,224.959 21.406,224.959C21.582,224.959 21.794,224.903 22.041,224.793L22.041,225.782C21.783,225.927 21.494,226 21.174,226C19.56,226 18.754,224.677 18.754,222.031C18.754,220.601 18.95,219.537 19.342,218.839C19.738,218.142 20.342,217.793 21.154,217.793C21.453,217.793 21.749,217.872 22.041,218.031Z" style="fill:rgb(158,161,168);fill-rule:nonzero;"/>
            <path id="path5032" d="M24.364,217.902L25.2,217.902L26.908,225.902L25.845,225.902L25.546,224.342L23.966,224.342L23.662,225.902L22.63,225.902L24.364,217.902ZM25.391,223.508L25.154,222.233C24.995,221.366 24.866,220.44 24.766,219.456C24.718,219.936 24.656,220.423 24.581,220.917C24.505,221.408 24.415,221.929 24.312,222.482L24.116,223.508L25.391,223.508Z" style="fill:rgb(158,161,168);fill-rule:nonzero;"/>
            <path id="path5034" d="M26.537,217.902L27.672,217.902L28.199,219.642C28.216,219.694 28.233,219.751 28.25,219.813C28.268,219.876 28.288,219.943 28.312,220.016C28.508,220.644 28.643,221.173 28.715,221.601C28.777,221.173 28.828,220.874 28.87,220.705L29.035,219.99L29.097,219.71L29.541,217.902L30.661,217.902L29.272,222.461L29.272,225.902L28.199,225.902L28.199,222.461L26.537,217.902Z" style="fill:rgb(158,161,168);fill-rule:nonzero;"/>
        </g>
        <g id="text4979" transform="matrix(0.998063,0,0,1.00194,-6.11871,11.9016)">
            <path id="path5002" d="M18.224,255.297L20.178,255.297L20.178,255.607C20.178,257.162 20.042,258.212 19.77,258.757C19.501,259.315 18.998,259.594 18.26,259.594C17.498,259.594 16.955,259.284 16.631,258.664C16.31,258.043 16.15,257 16.15,255.535C16.15,253.86 16.326,252.744 16.677,252.189C17.008,251.669 17.517,251.408 18.203,251.408C18.727,251.408 19.136,251.534 19.429,251.786C19.725,252.041 19.956,252.46 20.122,253.042L19.118,253.461C19.074,253.251 19.024,253.075 18.968,252.934C18.913,252.789 18.853,252.677 18.787,252.598C18.656,252.436 18.46,252.355 18.198,252.355C17.839,252.355 17.595,252.575 17.464,253.017C17.333,253.479 17.267,254.308 17.267,255.504C17.267,256.714 17.334,257.533 17.469,257.96C17.603,258.388 17.857,258.602 18.229,258.602C18.57,258.602 18.81,258.45 18.948,258.146C19.089,257.822 19.16,257.302 19.16,256.585L19.16,256.368L19.16,256.207L18.224,256.207L18.224,255.297Z" style="fill:rgb(158,161,168);fill-rule:nonzero;"/>
            <path id="path5004" d="M22.392,251.512L23.23,251.512L24.941,259.496L23.876,259.496L23.576,257.94L21.994,257.94L21.688,259.496L20.654,259.496L22.392,251.512ZM23.421,257.107L23.183,255.835C23.024,254.97 22.895,254.046 22.795,253.063C22.747,253.542 22.685,254.028 22.609,254.521C22.533,255.011 22.443,255.532 22.34,256.083L22.144,257.107L23.421,257.107Z" style="fill:rgb(158,161,168);fill-rule:nonzero;"/>
            <rect id="path5006" x="25.577" y="251.512" width="1.076" height="7.985" style="fill:rgb(158,161,168);fill-rule:nonzero;"/>
            <path id="path5008" d="M27.894,251.512L28.897,251.512L29.968,254.697C30.278,255.597 30.552,256.557 30.79,257.578C30.704,256.961 30.64,256.402 30.599,255.902C30.557,255.402 30.537,254.932 30.537,254.49L30.537,251.512L31.617,251.512L31.617,259.496L30.609,259.496L29.404,255.902C29.294,255.568 29.189,255.225 29.089,254.873C28.992,254.521 28.902,254.153 28.82,253.766C28.813,253.718 28.801,253.66 28.783,253.591C28.77,253.522 28.752,253.442 28.732,253.353C28.742,253.442 28.751,253.52 28.758,253.585C28.765,253.648 28.77,253.701 28.773,253.746L28.83,254.558L28.887,255.545C28.89,255.601 28.892,255.668 28.892,255.747C28.896,255.826 28.897,255.916 28.897,256.016L28.954,259.496L27.894,259.496L27.894,251.512Z" style="fill:rgb(158,161,168);fill-rule:nonzero;"/>
        </g>
        <g id="text4983" transform="matrix(0.998063,0,0,1.00194,-6.27871,14.9999)">
            <path id="path4989" d="M16.31,271.473L19.186,271.473L19.186,272.383L17.386,272.383L17.386,274.907L19.01,274.907L19.01,275.817L17.386,275.817L17.386,279.458L16.31,279.458L16.31,271.473Z" style="fill:rgb(158,161,168);fill-rule:nonzero;"/>
            <path id="path4991" d="M20.013,271.473L21.43,271.473C22.016,271.473 22.452,271.613 22.738,271.892C23.1,272.254 23.281,272.807 23.281,273.552C23.281,274.124 23.185,274.585 22.992,274.933C22.802,275.277 22.53,275.491 22.175,275.574L23.643,279.458L22.552,279.458L21.089,275.548L21.089,279.458L20.013,279.458L20.013,271.473ZM21.089,275.01C21.506,275.01 21.801,274.914 21.973,274.721C22.145,274.528 22.231,274.202 22.231,273.743C22.231,273.495 22.212,273.283 22.175,273.107C22.14,272.931 22.083,272.788 22.004,272.678C21.928,272.568 21.828,272.487 21.704,272.435C21.583,272.383 21.439,272.357 21.27,272.357L21.089,272.357L21.089,275.01Z" style="fill:rgb(158,161,168);fill-rule:nonzero;"/>
            <path id="path4993" d="M24.481,271.473L27.341,271.473L27.341,272.383L25.557,272.383L25.557,274.912L27.139,274.912L27.139,275.822L25.557,275.822L25.557,278.547L27.341,278.547L27.341,279.458L24.481,279.458L24.481,271.473Z" style="fill:rgb(158,161,168);fill-rule:nonzero;"/>
            <path id="path4995" d="M28.328,271.473L31.188,271.473L31.188,272.383L29.404,272.383L29.404,274.912L30.986,274.912L30.986,275.822L29.404,275.822L29.404,278.547L31.188,278.547L31.188,279.458L28.328,279.458L28.328,271.473Z" style="fill:rgb(158,161,168);fill-rule:nonzero;"/>
            <path id="path4997" d="M31.979,271.473L35.496,271.473L33.096,278.516L35.367,278.516L35.367,279.458L31.695,279.458L34.115,272.383L31.979,272.383L31.979,271.473Z" style="fill:rgb(158,161,168);fill-rule:nonzero;"/>
            <path id="path4999" d="M36.168,271.473L39.028,271.473L39.028,272.383L37.244,272.383L37.244,274.912L38.826,274.912L38.826,275.822L37.244,275.822L37.244,278.547L39.028,278.547L39.028,279.458L36.168,279.458L36.168,271.473Z" style="fill:rgb(158,161,168);fill-rule:nonzero;"/>
        </g>
        <g id="text4987">
        </g>
        <g id="g5157">
            <path id="path5011" d="M10.16,240.902L11.481,240.902C11.884,240.902 12.223,240.946 12.498,241.036C12.753,241.123 12.98,241.276 13.179,241.497C13.479,241.829 13.692,242.261 13.819,242.793C13.947,243.307 14.01,244.045 14.01,245.005C14.01,245.886 13.94,246.604 13.799,247.161C13.661,247.693 13.434,248.098 13.117,248.378C12.729,248.727 12.032,248.902 11.027,248.902L10.16,248.902L10.16,240.902ZM11.234,247.959C11.887,247.959 12.324,247.76 12.545,247.363C12.772,246.965 12.885,246.193 12.885,245.047C12.885,243.813 12.777,242.965 12.56,242.503C12.343,242.04 11.946,241.808 11.368,241.808L11.234,241.808L11.234,247.959Z" style="fill:rgb(158,161,168);fill-rule:nonzero;"/>
            <path id="path5015" d="M20.343,240.902L21.262,240.902L21.964,244.166C22.05,244.573 22.127,244.983 22.196,245.394C22.268,245.801 22.334,246.23 22.392,246.679C22.399,246.62 22.404,246.575 22.408,246.544C22.411,246.509 22.415,246.485 22.418,246.471L22.568,245.554L22.702,244.684L22.821,244.109L23.445,240.902L24.374,240.902L25.107,248.902L24.08,248.902L23.899,246.187C23.892,246.048 23.886,245.929 23.879,245.829C23.875,245.729 23.874,245.646 23.874,245.58L23.827,244.508L23.801,243.523C23.801,243.516 23.8,243.503 23.796,243.482C23.796,243.458 23.794,243.427 23.791,243.389L23.765,243.549C23.738,243.739 23.712,243.905 23.688,244.047C23.667,244.188 23.648,244.307 23.631,244.404L23.497,245.135L23.445,245.409L22.774,248.901L22.052,248.901L21.422,245.886C21.336,245.489 21.258,245.086 21.19,244.679C21.124,244.268 21.064,243.838 21.009,243.389L20.699,248.902L19.688,248.902L20.343,240.902Z" style="fill:rgb(158,161,168);fill-rule:nonzero;"/>
            <path id="path5017" d="M25.995,240.902L27.409,240.902C28.09,240.902 28.586,241.074 28.895,241.42C29.205,241.769 29.36,242.321 29.36,243.078C29.36,244.142 29.049,244.829 28.426,245.14C28.113,245.282 27.66,245.352 27.068,245.352L27.068,248.902L25.995,248.902L25.995,240.902ZM27.068,244.43C27.512,244.43 27.818,244.34 27.987,244.161C28.159,243.978 28.245,243.653 28.245,243.187C28.245,242.71 28.163,242.361 27.997,242.14C27.832,241.919 27.572,241.808 27.218,241.808L27.068,241.808L27.068,244.43Z" style="fill:rgb(158,161,168);fill-rule:nonzero;"/>
            <rect id="path5019" x="30.186" y="240.902" width="1.074" height="8" style="fill:rgb(158,161,168);fill-rule:nonzero;"/>
            <path id="path5021" d="M32.498,240.902L33.499,240.902L34.568,244.093C34.877,244.995 35.151,245.957 35.388,246.979C35.302,246.361 35.239,245.801 35.197,245.3C35.156,244.8 35.135,244.328 35.135,243.886L35.135,240.902L36.214,240.902L36.214,248.902L35.208,248.902L34.005,245.3C33.895,244.965 33.79,244.622 33.69,244.269C33.594,243.917 33.505,243.547 33.422,243.161C33.415,243.112 33.403,243.054 33.386,242.984C33.372,242.915 33.355,242.836 33.334,242.746C33.344,242.836 33.353,242.914 33.36,242.979C33.367,243.041 33.372,243.095 33.375,243.14L33.432,243.953L33.489,244.943C33.492,244.998 33.494,245.066 33.494,245.145C33.498,245.224 33.499,245.314 33.499,245.414L33.556,248.902L32.498,248.902L32.498,240.902Z" style="fill:rgb(158,161,168);fill-rule:nonzero;"/>
            <path id="path5023" d="M39.363,244.694L41.314,244.694L41.314,245.005C41.314,246.563 41.178,247.615 40.906,248.161C40.637,248.72 40.135,249 39.399,249C38.638,249 38.096,248.689 37.773,248.067C37.453,247.446 37.293,246.401 37.293,244.933C37.293,243.254 37.468,242.136 37.819,241.58C38.15,241.059 38.657,240.798 39.342,240.798C39.865,240.798 40.273,240.924 40.565,241.176C40.861,241.432 41.092,241.851 41.257,242.435L40.255,242.855C40.211,242.644 40.161,242.468 40.106,242.326C40.051,242.181 39.991,242.069 39.925,241.99C39.794,241.827 39.598,241.746 39.337,241.746C38.979,241.746 38.735,241.967 38.604,242.409C38.473,242.872 38.408,243.703 38.408,244.902C38.408,246.114 38.475,246.934 38.609,247.363C38.743,247.791 38.996,248.005 39.368,248.005C39.708,248.005 39.948,247.853 40.085,247.549C40.226,247.225 40.297,246.703 40.297,245.984L40.297,245.767L40.297,245.606L39.363,245.606L39.363,244.694Z" style="fill:rgb(158,161,168);fill-rule:nonzero;"/>
            <path id="path5134" d="M16.474,241L17.31,241L19.019,249L17.955,249L17.656,247.44L16.077,247.44L15.772,249L14.74,249L16.474,241ZM17.501,246.606L17.264,245.332C17.106,244.465 16.977,243.539 16.877,242.554C16.829,243.035 16.767,243.522 16.691,244.016C16.615,244.506 16.526,245.028 16.423,245.58L16.226,246.606L17.501,246.606Z" style="fill:rgb(158,161,168);fill-rule:nonzero;"/>
        </g>
        <g id="text935">
            <path id="path927" d="M10.16,194.349L11.243,194.349L11.243,197.495L12.832,197.495L12.832,194.349L13.915,194.349L13.915,202.391L12.832,202.391L12.832,198.411L11.243,198.411L11.243,202.391L10.16,202.391L10.16,194.349Z" style="fill:rgb(158,161,168);fill-rule:nonzero;"/>
            <path id="path929" d="M15.16,194.349L16.587,194.349C17.275,194.349 17.775,194.523 18.087,194.87C18.4,195.22 18.556,195.776 18.556,196.536C18.556,197.606 18.242,198.297 17.613,198.609C17.297,198.752 16.841,198.823 16.243,198.823L16.243,202.391L15.16,202.391L15.16,194.349ZM16.243,197.896C16.691,197.896 17,197.806 17.17,197.625C17.344,197.441 17.431,197.115 17.431,196.646C17.431,196.167 17.348,195.816 17.181,195.594C17.014,195.372 16.752,195.26 16.394,195.26L16.243,195.26L16.243,197.896Z" style="fill:rgb(158,161,168);fill-rule:nonzero;"/>
            <path id="path931" d="M21.598,194.349L24.493,194.349L24.493,195.266L22.681,195.266L22.681,197.807L24.316,197.807L24.316,198.724L22.681,198.724L22.681,202.391L21.598,202.391L21.598,194.349Z" style="fill:rgb(158,161,168);fill-rule:nonzero;"/>
            <path id="path933" d="M25.327,194.349L26.754,194.349C27.344,194.349 27.783,194.49 28.071,194.771C28.436,195.135 28.618,195.693 28.618,196.443C28.618,197.019 28.521,197.483 28.327,197.833C28.136,198.181 27.861,198.396 27.504,198.479L28.983,202.391L27.884,202.391L26.41,198.453L26.41,202.391L25.327,202.391L25.327,194.349ZM26.41,197.911C26.83,197.911 27.127,197.814 27.301,197.62C27.474,197.425 27.561,197.097 27.561,196.635C27.561,196.385 27.542,196.172 27.504,195.995C27.469,195.818 27.412,195.674 27.332,195.562C27.255,195.451 27.155,195.37 27.03,195.318C26.908,195.266 26.762,195.24 26.592,195.24L26.41,195.24L26.41,197.911Z" style="fill:rgb(158,161,168);fill-rule:nonzero;"/>
            <path id="path935" d="M29.827,194.349L32.707,194.349L32.707,195.266L30.91,195.266L30.91,197.812L32.504,197.812L32.504,198.729L30.91,198.729L30.91,201.474L32.707,201.474L32.707,202.391L29.827,202.391L29.827,194.349Z" style="fill:rgb(158,161,168);fill-rule:nonzero;"/>
            <path id="path937" d="M37.957,202.51L37.275,203L36.723,202.214C36.393,202.398 36.044,202.49 35.676,202.49C34.894,202.49 34.342,202.16 34.019,201.5C33.7,200.819 33.54,199.681 33.54,198.083C33.54,196.688 33.696,195.7 34.009,195.12C34.321,194.536 34.851,194.245 35.598,194.245C36.382,194.245 36.934,194.566 37.254,195.208C37.57,195.837 37.728,196.951 37.728,198.552C37.728,200 37.577,201.005 37.275,201.568L37.957,202.51ZM36.04,199.839L36.488,200.474C36.561,199.96 36.598,199.38 36.598,198.734C36.598,197.352 36.532,196.418 36.4,195.932C36.268,195.464 36.005,195.229 35.613,195.229C35.245,195.229 34.997,195.429 34.868,195.828C34.74,196.21 34.676,196.981 34.676,198.141C34.676,199.443 34.742,200.332 34.874,200.807C35.005,201.262 35.262,201.49 35.644,201.49C35.797,201.49 35.943,201.441 36.082,201.344L35.394,200.354L36.04,199.839Z" style="fill:rgb(158,161,168);fill-rule:nonzero;"/>
        </g>
        <g id="text951">
            <path id="path954" d="M28.391,18L25.133,18L25.133,13.148L23.578,13.148L23.578,18L20.32,18L20.32,5.938L23.578,5.938L23.578,10.203L25.133,10.203L25.133,5.938L28.391,5.938L28.391,18Z" style="fill:rgb(158,161,168);fill-rule:nonzero;"/>
            <rect id="path956" x="30.07" y="5.938" width="3.258" height="12.063" style="fill:rgb(158,161,168);fill-rule:nonzero;"/>
            <path id="path958" d="M40.25,18L36.93,18L34.164,5.938L37.586,5.938L38.18,9.383C38.404,10.701 38.583,12.174 38.719,13.805C38.776,13.081 38.846,12.404 38.93,11.773C39.013,11.143 39.112,10.529 39.227,9.93L40,5.938L43.539,5.938L40.25,18Z" style="fill:rgb(158,161,168);fill-rule:nonzero;"/>
            <path id="path960" d="M44.383,18L44.383,5.938L50.438,5.938L50.438,8.773L47.641,8.773L47.641,10.531L50.148,10.531L50.148,13.258L47.641,13.258L47.641,15.102L50.438,15.102L50.438,18L44.383,18Z" style="fill:rgb(158,161,168);fill-rule:nonzero;"/>
            <path id="path962" d="M60.398,18L56.875,18L55.266,13.703C55.25,13.63 55.221,13.534 55.18,13.414C55.143,13.294 55.096,13.151 55.039,12.984L55.062,13.781L55.062,18L51.82,18L51.82,5.938L55.156,5.938C56.625,5.938 57.724,6.227 58.453,6.805C59.38,7.544 59.844,8.596 59.844,9.961C59.844,11.419 59.221,12.427 57.977,12.984L60.398,18ZM55.078,11.523L55.297,11.523C55.672,11.523 55.984,11.38 56.234,11.094C56.484,10.807 56.609,10.443 56.609,10C56.609,9.099 56.138,8.648 55.195,8.648L55.078,8.648L55.078,11.523Z" style="fill:rgb(158,161,168);fill-rule:nonzero;"/>
            <path id="path964" d="M61.477,18L61.477,5.938L65.266,5.938C66.682,5.938 67.732,6.25 68.414,6.875C69.107,7.516 69.453,8.344 69.453,9.359C69.453,10.87 68.703,11.688 67.203,11.813C68.057,11.937 68.682,12.219 69.078,12.656C69.479,13.094 69.68,13.724 69.68,14.547C69.68,15.583 69.344,16.417 68.672,17.047C68.005,17.682 67.128,18 66.039,18L61.477,18ZM64.734,15.383C64.797,15.388 64.852,15.393 64.898,15.398L65.016,15.398C65.422,15.398 65.745,15.292 65.984,15.078C66.229,14.865 66.352,14.578 66.352,14.219C66.352,13.859 66.229,13.578 65.984,13.375C65.745,13.172 65.414,13.07 64.992,13.07L64.734,13.07L64.734,15.383ZM64.734,10.625L64.953,10.625C65.344,10.625 65.651,10.534 65.875,10.352C66.104,10.169 66.219,9.914 66.219,9.586C66.219,8.888 65.836,8.539 65.07,8.539C65.034,8.539 64.987,8.542 64.93,8.547C64.878,8.547 64.812,8.549 64.734,8.555L64.734,10.625Z" style="fill:rgb(158,161,168);fill-rule:nonzero;"/>
        </g>
    </g>
</svg>
