<?xml version="1.0" encoding="UTF-8" standalone="no"?>
<!DOCTYPE svg PUBLIC "-//W3C//DTD SVG 1.1//EN" "http://www.w3.org/Graphics/SVG/1.1/DTD/svg11.dtd">
<svg width="100%" height="100%" viewBox="0 0 75 380" version="1.1" xmlns="http://www.w3.org/2000/svg" xmlns:xlink="http://www.w3.org/1999/xlink" xml:space="preserve" xmlns:serif="http://www.serif.com/" style="fill-rule:evenodd;clip-rule:evenodd;stroke-linejoin:round;stroke-miterlimit:2;">
    <g id="Layer-2" serif:id="Layer 2">
        <g id="text989">
        </g>
        <rect id="rect4689" x="0" y="0" width="75" height="380" style="fill:rgb(44,45,48);fill-rule:nonzero;"/>
        <g id="text4987">
        </g>
        <g id="text1042">
        </g>
        <g id="text2090">
        </g>
        <g id="text80" transform="matrix(0.87098,0,0,0.995047,-1.5,6.99997)">
            <path id="path4726" d="M29.851,371.706L29.851,363.943L31.853,363.943L32.903,366.668C32.96,366.829 33.024,367.013 33.094,367.221C33.168,367.429 33.249,367.668 33.336,367.94L33.552,368.624C33.475,367.95 33.416,367.373 33.376,366.894C33.336,366.415 33.316,366.013 33.316,365.687L33.316,363.943L35.317,363.943L35.317,371.706L33.316,371.706L32.26,368.85C32.149,368.545 32.049,368.26 31.958,367.995C31.871,367.727 31.794,367.472 31.727,367.231C31.77,367.777 31.802,368.253 31.822,368.659C31.843,369.065 31.853,369.42 31.853,369.725L31.853,371.706L29.851,371.706Z" style="fill:rgb(158,161,168);fill-rule:nonzero;"/>
            <path id="path4728" d="M39.887,371.706L37.791,371.706L37.791,368.418L35.865,363.943L38.052,363.943L38.429,365.094C38.503,365.319 38.568,365.535 38.625,365.743C38.686,365.951 38.739,366.15 38.786,366.341C38.863,366.056 38.93,365.811 38.987,365.607C39.044,365.399 39.095,365.232 39.138,365.104L39.52,363.943L41.692,363.943L39.887,368.418L39.887,371.706Z" style="fill:rgb(158,161,168);fill-rule:nonzero;"/>
            <path id="path4730" d="M41.894,371.515L41.894,369.076C42.306,369.639 42.752,369.921 43.231,369.921C43.412,369.921 43.56,369.874 43.673,369.78C43.787,369.683 43.844,369.562 43.844,369.418C43.844,369.21 43.72,369.008 43.472,368.81L43.13,368.543C42.902,368.372 42.708,368.203 42.547,368.035C42.386,367.865 42.256,367.69 42.155,367.513C42.054,367.332 41.981,367.146 41.934,366.954C41.887,366.763 41.863,366.562 41.863,366.351C41.863,365.989 41.947,365.61 42.115,365.215C42.199,365.03 42.296,364.863 42.406,364.712C42.517,364.558 42.644,364.422 42.789,364.305C43.184,363.969 43.662,363.802 44.222,363.802C44.721,363.802 45.224,363.934 45.73,364.199L45.73,366.572C45.559,366.308 45.365,366.1 45.147,365.949C44.929,365.795 44.714,365.718 44.503,365.718C44.342,365.718 44.21,365.765 44.106,365.858C43.999,365.949 43.945,366.058 43.945,366.185C43.945,366.393 44.087,366.599 44.372,366.804L44.704,367.05C45.147,367.368 45.463,367.695 45.655,368.03C45.849,368.366 45.946,368.758 45.946,369.207C45.946,369.971 45.713,370.601 45.247,371.098C44.781,371.594 44.191,371.842 43.477,371.842C42.985,371.842 42.457,371.733 41.894,371.515L41.894,371.515Z" style="fill:rgb(158,161,168);fill-rule:nonzero;"/>
            <path id="path4732" d="M49.576,371.706L47.48,371.706L47.48,365.803L46.323,365.803L46.323,363.943L50.778,363.943L50.778,365.803L49.576,365.803L49.576,371.706Z" style="fill:rgb(158,161,168);fill-rule:nonzero;"/>
            <path id="path4734" d="M56.525,371.706L54.428,371.706L54.428,368.584L53.428,368.584L53.428,371.706L51.331,371.706L51.331,363.943L53.428,363.943L53.428,366.688L54.428,366.688L54.428,363.943L56.525,363.943L56.525,371.706Z" style="fill:rgb(158,161,168);fill-rule:nonzero;"/>
            <rect id="path4736" x="57.606" y="363.943" width="2.097" height="7.763" style="fill:rgb(158,161,168);fill-rule:nonzero;"/>
        </g>
        <g id="text1071">
        </g>
        <g id="text958" transform="matrix(0.923453,0,0,1.08289,0,0)">
            <path id="path960" d="M2.707,16.429L2.707,12.792C3.106,13.309 3.574,13.567 4.113,13.567C4.831,13.567 5.19,13.028 5.19,11.951L5.19,3.626L8.7,3.626L8.7,12.649C8.7,13.418 8.633,14.033 8.498,14.493C8.375,14.947 8.147,15.365 7.816,15.747C7.177,16.482 6.237,16.849 4.997,16.849C4.34,16.849 3.577,16.709 2.707,16.429Z" style="fill:rgb(158,161,168);fill-rule:nonzero;"/>
            <path id="path962" d="M19.743,16.622L16.115,16.622L15.854,14.972L13.489,14.972L13.203,16.622L9.575,16.622L12.698,3.626L16.991,3.626L19.743,16.622ZM15.442,12.186L15.215,10.671C15.209,10.666 15.198,10.59 15.181,10.444C15.17,10.321 15.111,9.833 15.004,8.98C14.993,8.884 14.979,8.755 14.962,8.592C14.945,8.424 14.923,8.214 14.895,7.961L14.785,6.732C14.774,6.85 14.757,6.982 14.735,7.128C14.718,7.274 14.698,7.434 14.676,7.608C14.637,7.956 14.609,8.197 14.592,8.332C14.575,8.466 14.564,8.548 14.558,8.576L14.314,10.15L13.961,12.186L15.442,12.186Z" style="fill:rgb(158,161,168);fill-rule:nonzero;"/>
            <path id="path964" d="M20.753,16.622L20.753,3.626L24.103,3.626L25.862,8.188C25.957,8.458 26.064,8.766 26.182,9.114C26.305,9.462 26.44,9.863 26.586,10.318L26.948,11.463C26.819,10.335 26.721,9.37 26.653,8.567C26.586,7.765 26.552,7.091 26.552,6.547L26.552,3.626L29.902,3.626L29.902,16.622L26.552,16.622L24.785,11.841C24.6,11.331 24.431,10.854 24.28,10.41C24.134,9.962 24.005,9.535 23.893,9.131C23.965,10.046 24.019,10.843 24.052,11.522C24.086,12.2 24.103,12.795 24.103,13.306L24.103,16.622L20.753,16.622Z" style="fill:rgb(158,161,168);fill-rule:nonzero;"/>
            <path id="path966" d="M31.729,16.622L31.729,3.626L35.079,3.626L36.838,8.188C36.933,8.458 37.04,8.766 37.158,9.114C37.281,9.462 37.416,9.863 37.562,10.318L37.923,11.463C37.794,10.335 37.696,9.37 37.629,8.567C37.562,7.765 37.528,7.091 37.528,6.547L37.528,3.626L40.878,3.626L40.878,16.622L37.528,16.622L35.76,11.841C35.575,11.331 35.407,10.854 35.255,10.41C35.109,9.962 34.98,9.535 34.868,9.131C34.941,10.046 34.994,10.843 35.028,11.522C35.062,12.2 35.079,12.795 35.079,13.306L35.079,16.622L31.729,16.622Z" style="fill:rgb(158,161,168);fill-rule:nonzero;"/>
            <path id="path968" d="M42.704,16.622L42.704,3.626L49.227,3.626L49.227,6.682L46.214,6.682L46.214,8.576L48.916,8.576L48.916,11.513L46.214,11.513L46.214,13.499L49.227,13.499L49.227,16.622L42.704,16.622Z" style="fill:rgb(158,161,168);fill-rule:nonzero;"/>
            <path id="path970" d="M60.253,16.622L56.466,16.622L54.134,10.629L54.227,16.622L50.717,16.622L50.717,3.626L54.227,3.626L54.134,9.198L56.205,3.626L59.908,3.626L57.106,9.897L60.253,16.622Z" style="fill:rgb(158,161,168);fill-rule:nonzero;"/>
            <path id="path972" d="M61.255,16.622L61.255,3.626L67.778,3.626L67.778,6.682L64.765,6.682L64.765,8.576L67.467,8.576L67.467,11.513L64.765,11.513L64.765,13.499L67.778,13.499L67.778,16.622L61.255,16.622Z" style="fill:rgb(158,161,168);fill-rule:nonzero;"/>
            <path id="path974" d="M78.51,16.622L74.714,16.622L72.98,11.993C72.963,11.914 72.932,11.81 72.887,11.681C72.848,11.552 72.797,11.398 72.736,11.219L72.761,12.077L72.761,16.622L69.268,16.622L69.268,3.626L72.862,3.626C74.444,3.626 75.628,3.938 76.414,4.561C77.413,5.358 77.912,6.491 77.912,7.961C77.912,9.532 77.242,10.618 75.9,11.219L78.51,16.622ZM72.778,9.645L73.013,9.645C73.417,9.645 73.754,9.49 74.023,9.182C74.293,8.873 74.427,8.48 74.427,8.003C74.427,7.033 73.92,6.547 72.904,6.547L72.778,6.547L72.778,9.645Z" style="fill:rgb(158,161,168);fill-rule:nonzero;"/>
        </g>
        <g id="text979" transform="matrix(0.84342,0,0,1.18565,-7.93156e-07,3.99998)">
            <path id="path1280" d="M2.371,278.329L3.77,278.329C4.196,278.329 4.555,278.376 4.846,278.471C5.115,278.562 5.356,278.724 5.567,278.957C5.884,279.306 6.11,279.762 6.244,280.322C6.379,280.865 6.446,281.642 6.446,282.655C6.446,283.584 6.372,284.341 6.222,284.927C6.077,285.488 5.836,285.916 5.501,286.211C5.09,286.579 4.352,286.763 3.289,286.763L2.371,286.763L2.371,278.329ZM3.508,285.769C4.199,285.769 4.662,285.559 4.895,285.14C5.135,284.722 5.256,283.908 5.256,282.699C5.256,281.398 5.141,280.504 4.911,280.016C4.682,279.528 4.261,279.284 3.65,279.284L3.508,279.284L3.508,285.769Z" style="fill:rgb(158,161,168);fill-rule:nonzero;"/>
            <path id="path1282" d="M7.572,278.329L10.592,278.329L10.592,279.29L8.708,279.29L8.708,281.961L10.379,281.961L10.379,282.923L8.708,282.923L8.708,285.801L10.592,285.801L10.592,286.763L7.572,286.763L7.572,278.329Z" style="fill:rgb(158,161,168);fill-rule:nonzero;"/>
            <path id="path1284" d="M11.636,278.329L12.772,278.329L12.772,285.801L14.629,285.801L14.629,286.763L11.636,286.763L11.636,278.329Z" style="fill:rgb(158,161,168);fill-rule:nonzero;"/>
            <path id="path1286" d="M15.35,278.329L18.371,278.329L18.371,279.29L16.487,279.29L16.487,281.961L18.158,281.961L18.158,282.923L16.487,282.923L16.487,285.801L18.371,285.801L18.371,286.763L15.35,286.763L15.35,278.329Z" style="fill:rgb(158,161,168);fill-rule:nonzero;"/>
            <path id="path1288" d="M18.743,278.329L22.441,278.329L22.441,279.323L21.168,279.323L21.168,286.763L20.054,286.763L20.054,279.323L18.743,279.323L18.743,278.329Z" style="fill:rgb(158,161,168);fill-rule:nonzero;"/>
            <path id="path1290" d="M23.063,278.329L26.084,278.329L26.084,279.29L24.2,279.29L24.2,281.961L25.871,281.961L25.871,282.923L24.2,282.923L24.2,285.801L26.084,285.801L26.084,286.763L23.063,286.763L23.063,278.329Z" style="fill:rgb(158,161,168);fill-rule:nonzero;"/>
        </g>
        <g id="text983" transform="matrix(0.796787,0,0,1.25504,-7.93156e-07,2.99998)">
            <path id="path1267" d="M2.51,278.875L3.831,278.875C4.234,278.875 4.573,278.92 4.848,279.009C5.102,279.095 5.329,279.248 5.529,279.469C5.828,279.799 6.042,280.229 6.169,280.759C6.296,281.271 6.36,282.006 6.36,282.962C6.36,283.84 6.289,284.555 6.148,285.109C6.011,285.639 5.784,286.043 5.467,286.322C5.078,286.669 4.382,286.843 3.377,286.843L2.51,286.843L2.51,278.875ZM3.583,285.904C4.237,285.904 4.674,285.706 4.894,285.31C5.121,284.915 5.235,284.146 5.235,283.004C5.235,281.775 5.126,280.931 4.91,280.47C4.693,280.009 4.296,279.778 3.718,279.778L3.583,279.778L3.583,285.904Z" style="fill:rgb(158,161,168);fill-rule:nonzero;"/>
            <path id="path1269" d="M7.423,278.875L10.277,278.875L10.277,279.783L8.496,279.783L8.496,282.307L10.075,282.307L10.075,283.215L8.496,283.215L8.496,285.935L10.277,285.935L10.277,286.843L7.423,286.843L7.423,278.875Z" style="fill:rgb(158,161,168);fill-rule:nonzero;"/>
            <path id="path1271" d="M11.262,278.875L12.336,278.875L12.336,285.935L14.09,285.935L14.09,286.843L11.262,286.843L11.262,278.875Z" style="fill:rgb(158,161,168);fill-rule:nonzero;"/>
            <path id="path1273" d="M18.095,278.875L18.931,278.875L20.639,286.843L19.576,286.843L19.277,285.29L17.698,285.29L17.393,286.843L16.361,286.843L18.095,278.875ZM19.122,284.459L18.884,283.189C18.726,282.326 18.597,281.404 18.497,280.423C18.449,280.902 18.387,281.387 18.312,281.879C18.236,282.367 18.147,282.887 18.043,283.437L17.847,284.459L19.122,284.459Z" style="fill:rgb(158,161,168);fill-rule:nonzero;"/>
            <path id="path1275" d="M21.274,278.875L22.347,278.875L22.347,285.935L24.102,285.935L24.102,286.843L21.274,286.843L21.274,278.875Z" style="fill:rgb(158,161,168);fill-rule:nonzero;"/>
            <path id="path1277" d="M24.783,278.875L25.856,278.875L25.856,285.935L27.611,285.935L27.611,286.843L24.783,286.843L24.783,278.875Z" style="fill:rgb(158,161,168);fill-rule:nonzero;"/>
        </g>
        <g id="text995" transform="matrix(0.845729,0,0,1.18241,-7.93156e-07,5.99998)">
            <path id="path1256" d="M8.277,245.157L9.416,245.157L9.416,252.65L11.279,252.65L11.279,253.614L8.277,253.614L8.277,245.157Z" style="fill:rgb(158,161,168);fill-rule:nonzero;"/>
            <path id="path1258" d="M16.236,249.594C16.236,251.087 16.07,252.148 15.737,252.776C15.405,253.404 14.848,253.718 14.067,253.718C13.245,253.718 12.666,253.381 12.33,252.705C11.998,252.044 11.832,250.87 11.832,249.183C11.832,247.679 11.996,246.614 12.325,245.99C12.657,245.362 13.219,245.048 14.012,245.048C14.72,245.048 15.246,245.29 15.589,245.776C15.816,246.101 15.98,246.563 16.082,247.162C16.185,247.717 16.236,248.528 16.236,249.594L16.236,249.594ZM15.042,249.714C15.042,248.25 14.976,247.279 14.844,246.8C14.713,246.318 14.445,246.077 14.039,246.077C13.634,246.077 13.364,246.298 13.229,246.74C13.097,247.186 13.031,248.08 13.031,249.424C13.031,250.662 13.101,251.52 13.24,251.999C13.382,252.451 13.649,252.678 14.039,252.678C14.423,252.678 14.686,252.466 14.828,252.042C14.97,251.622 15.042,250.846 15.042,249.714L15.042,249.714Z" style="fill:rgb(158,161,168);fill-rule:nonzero;"/>
            <path id="path1260" d="M18.553,245.157L19.44,245.157L21.253,253.614L20.125,253.614L19.807,251.966L18.131,251.966L17.808,253.614L16.712,253.614L18.553,245.157ZM19.643,251.084L19.391,249.736C19.223,248.82 19.086,247.841 18.98,246.8C18.929,247.308 18.863,247.823 18.783,248.345C18.702,248.864 18.607,249.415 18.498,249.999L18.29,251.084L19.643,251.084Z" style="fill:rgb(158,161,168);fill-rule:nonzero;"/>
            <path id="path1262" d="M21.927,245.157L23.329,245.157C23.756,245.157 24.116,245.205 24.408,245.3C24.678,245.391 24.919,245.553 25.131,245.787C25.449,246.138 25.675,246.594 25.81,247.156C25.946,247.7 26.013,248.48 26.013,249.495C26.013,250.426 25.938,251.186 25.789,251.774C25.642,252.336 25.401,252.765 25.065,253.061C24.653,253.43 23.913,253.614 22.847,253.614L21.927,253.614L21.927,245.157ZM23.066,252.617C23.76,252.617 24.224,252.408 24.457,251.988C24.698,251.568 24.819,250.751 24.819,249.539C24.819,248.235 24.704,247.339 24.474,246.85C24.244,246.36 23.822,246.116 23.209,246.116L23.066,246.116L23.066,252.617Z" style="fill:rgb(158,161,168);fill-rule:nonzero;"/>
        </g>
        <g id="text999" transform="matrix(0.808422,0,0,1.23698,-7.93156e-07,4.99998)">
            <path id="path1243" d="M2.474,250.511L3.542,250.511L3.542,256.223C3.542,256.806 3.594,257.194 3.699,257.386C3.807,257.578 4.02,257.674 4.338,257.674C4.656,257.674 4.865,257.59 4.966,257.422C5.071,257.251 5.123,256.904 5.123,256.381L5.123,250.511L6.191,250.511L6.191,256.381C6.191,257.26 6.057,257.855 5.788,258.166C5.467,258.518 4.977,258.695 4.317,258.695C3.591,258.695 3.08,258.468 2.783,258.014C2.577,257.703 2.474,257.107 2.474,256.223L2.474,250.511Z" style="fill:rgb(158,161,168);fill-rule:nonzero;"/>
            <path id="path1245" d="M7.438,250.511L8.872,250.511C9.563,250.511 10.066,250.686 10.38,251.035C10.694,251.387 10.851,251.946 10.851,252.71C10.851,253.785 10.535,254.48 9.904,254.794C9.586,254.937 9.127,255.009 8.527,255.009L8.527,258.595L7.438,258.595L7.438,250.511ZM8.527,254.077C8.977,254.077 9.288,253.986 9.459,253.804C9.633,253.619 9.72,253.291 9.72,252.82C9.72,252.338 9.637,251.986 9.469,251.762C9.302,251.539 9.038,251.427 8.678,251.427L8.527,251.427L8.527,254.077Z" style="fill:rgb(158,161,168);fill-rule:nonzero;"/>
            <path id="path1247" d="M11.689,250.511L13.03,250.511C13.438,250.511 13.782,250.556 14.061,250.647C14.319,250.734 14.55,250.89 14.752,251.113C15.056,251.448 15.272,251.885 15.401,252.422C15.531,252.942 15.595,253.688 15.595,254.658C15.595,255.548 15.524,256.274 15.38,256.836C15.241,257.374 15.01,257.784 14.689,258.066C14.295,258.419 13.588,258.595 12.569,258.595L11.689,258.595L11.689,250.511ZM12.778,257.642C13.441,257.642 13.885,257.442 14.108,257.04C14.338,256.639 14.454,255.859 14.454,254.7C14.454,253.454 14.344,252.597 14.124,252.129C13.904,251.661 13.501,251.427 12.914,251.427L12.778,251.427L12.778,257.642Z" style="fill:rgb(158,161,168);fill-rule:nonzero;"/>
            <path id="path1249" d="M17.763,250.511L18.611,250.511L20.344,258.595L19.265,258.595L18.962,257.019L17.36,257.019L17.051,258.595L16.003,258.595L17.763,250.511ZM18.805,256.176L18.564,254.888C18.403,254.012 18.272,253.077 18.171,252.082C18.122,252.567 18.059,253.059 17.983,253.558C17.906,254.054 17.815,254.581 17.71,255.14L17.511,256.176L18.805,256.176Z" style="fill:rgb(158,161,168);fill-rule:nonzero;"/>
            <path id="path1251" d="M20.177,250.511L23.721,250.511L23.721,251.464L22.501,251.464L22.501,258.595L21.433,258.595L21.433,251.464L20.177,251.464L20.177,250.511Z" style="fill:rgb(158,161,168);fill-rule:nonzero;"/>
            <path id="path1253" d="M24.318,250.511L27.214,250.511L27.214,251.433L25.407,251.433L25.407,253.993L27.009,253.993L27.009,254.914L25.407,254.914L25.407,257.674L27.214,257.674L27.214,258.595L24.318,258.595L24.318,250.511Z" style="fill:rgb(158,161,168);fill-rule:nonzero;"/>
        </g>
        <g id="text1003" transform="matrix(0.93486,0,0,1.06968,-7.93156e-07,6.99998)">
            <path id="path1236" d="M9.522,252.412L10.503,252.412L12.507,261.761L11.26,261.761L10.909,259.938L9.056,259.938L8.699,261.761L7.488,261.761L9.522,252.412ZM10.727,258.963L10.449,257.474C10.263,256.461 10.112,255.379 9.994,254.228C9.938,254.79 9.865,255.359 9.776,255.936C9.688,256.509 9.583,257.119 9.462,257.764L9.232,258.963L10.727,258.963Z" style="fill:rgb(158,161,168);fill-rule:nonzero;"/>
            <path id="path1238" d="M13.252,252.412L14.802,252.412C15.274,252.412 15.672,252.465 15.995,252.569C16.293,252.67 16.56,252.85 16.794,253.108C17.145,253.496 17.395,254 17.545,254.622C17.694,255.223 17.769,256.085 17.769,257.207C17.769,258.237 17.686,259.076 17.521,259.726C17.359,260.348 17.093,260.822 16.721,261.149C16.265,261.557 15.448,261.761 14.269,261.761L13.252,261.761L13.252,252.412ZM14.511,260.659C15.278,260.659 15.791,260.427 16.049,259.962C16.316,259.498 16.449,258.596 16.449,257.256C16.449,255.815 16.322,254.824 16.067,254.283C15.813,253.742 15.347,253.472 14.669,253.472L14.511,253.472L14.511,260.659Z" style="fill:rgb(158,161,168);fill-rule:nonzero;"/>
            <path id="path1240" d="M19.016,252.412L20.566,252.412C21.038,252.412 21.436,252.465 21.759,252.569C22.058,252.67 22.324,252.85 22.558,253.108C22.909,253.496 23.16,254 23.309,254.622C23.458,255.223 23.533,256.085 23.533,257.207C23.533,258.237 23.45,259.076 23.285,259.726C23.123,260.348 22.857,260.822 22.485,261.149C22.029,261.557 21.212,261.761 20.033,261.761L19.016,261.761L19.016,252.412ZM20.275,260.659C21.042,260.659 21.555,260.427 21.813,259.962C22.08,259.498 22.213,258.596 22.213,257.256C22.213,255.815 22.086,254.824 21.832,254.283C21.577,253.742 21.111,253.472 20.433,253.472L20.275,253.472L20.275,260.659Z" style="fill:rgb(158,161,168);fill-rule:nonzero;"/>
        </g>
        <g id="text1007" transform="matrix(0.869553,0,0,1.15002,-7.93156e-07,8.99998)">
            <path id="path1227" d="M8.05,199.997L9.593,199.997C10.337,199.997 10.877,200.185 11.215,200.56C11.553,200.939 11.722,201.54 11.722,202.362C11.722,203.519 11.382,204.266 10.703,204.604C10.361,204.758 9.867,204.835 9.222,204.835L9.222,208.693L8.05,208.693L8.05,199.997ZM9.222,203.832C9.706,203.832 10.04,203.735 10.224,203.539C10.412,203.341 10.506,202.988 10.506,202.481C10.506,201.963 10.415,201.583 10.235,201.343C10.055,201.103 9.772,200.983 9.385,200.983L9.222,200.983L9.222,203.832Z" style="fill:rgb(158,161,168);fill-rule:nonzero;"/>
            <path id="path1229" d="M12.623,199.997L14.166,199.997C14.805,199.997 15.279,200.149 15.591,200.453C15.985,200.847 16.182,201.45 16.182,202.261C16.182,202.884 16.077,203.386 15.867,203.765C15.661,204.14 15.364,204.373 14.977,204.463L16.577,208.693L15.388,208.693L13.795,204.435L13.795,208.693L12.623,208.693L12.623,199.997ZM13.795,203.849C14.249,203.849 14.57,203.744 14.758,203.534C14.945,203.324 15.039,202.969 15.039,202.469C15.039,202.199 15.019,201.968 14.977,201.777C14.94,201.585 14.878,201.429 14.791,201.309C14.709,201.189 14.6,201.101 14.465,201.045C14.333,200.988 14.176,200.96 13.992,200.96L13.795,200.96L13.795,203.849Z" style="fill:rgb(158,161,168);fill-rule:nonzero;"/>
            <path id="path1231" d="M17.489,199.997L20.603,199.997L20.603,200.988L18.66,200.988L18.66,203.742L20.384,203.742L20.384,204.733L18.66,204.733L18.66,207.701L20.603,207.701L20.603,208.693L17.489,208.693L17.489,199.997Z" style="fill:rgb(158,161,168);fill-rule:nonzero;"/>
            <path id="path1233" d="M20.986,199.997L22.141,199.997L22.665,203.207L22.755,203.787L22.941,205.049C22.971,205.263 22.997,205.458 23.019,205.634C23.046,205.811 23.068,205.971 23.087,206.113L23.143,206.541C23.155,206.455 23.164,206.378 23.172,206.31C23.179,206.243 23.187,206.186 23.194,206.141L23.346,205.133L23.543,203.81C23.562,203.69 23.579,203.579 23.594,203.478C23.613,203.376 23.63,203.286 23.645,203.207L24.208,199.997L25.3,199.997L23.594,208.693L22.665,208.693L20.986,199.997Z" style="fill:rgb(158,161,168);fill-rule:nonzero;"/>
        </g>
        <g id="text1011" transform="matrix(0.874853,0,0,1.14305,-7.93156e-07,7.99998)">
            <path id="path1218" d="M8.001,218.713L9.101,218.713L10.273,222.203C10.613,223.189 10.914,224.241 11.174,225.359C11.08,224.683 11.01,224.071 10.965,223.524C10.919,222.976 10.897,222.46 10.897,221.977L10.897,218.713L12.081,218.713L12.081,227.462L10.976,227.462L9.656,223.524C9.535,223.157 9.42,222.781 9.31,222.396C9.204,222.011 9.106,221.607 9.016,221.184C9.008,221.131 8.995,221.066 8.976,220.991C8.961,220.915 8.942,220.828 8.919,220.73C8.931,220.828 8.94,220.913 8.948,220.985C8.955,221.053 8.961,221.112 8.965,221.161L9.027,222.05L9.089,223.133C9.093,223.193 9.095,223.267 9.095,223.354C9.099,223.441 9.101,223.539 9.101,223.648L9.163,227.462L8.001,227.462L8.001,218.713Z" style="fill:rgb(158,161,168);fill-rule:nonzero;"/>
            <path id="path1220" d="M13.441,218.713L16.574,218.713L16.574,219.71L14.619,219.71L14.619,222.481L16.353,222.481L16.353,223.478L14.619,223.478L14.619,226.464L16.574,226.464L16.574,227.462L13.441,227.462L13.441,218.713Z" style="fill:rgb(158,161,168);fill-rule:nonzero;"/>
            <path id="path1222" d="M17.062,218.713L18.206,218.713L18.812,220.407C19.05,221.076 19.192,221.565 19.237,221.875C19.279,221.682 19.324,221.495 19.373,221.314C19.426,221.133 19.481,220.951 19.538,220.77L19.617,220.515L20.178,218.713L21.368,218.713L19.747,223.019L21.368,227.462L20.178,227.462L19.6,225.796C19.483,225.463 19.388,225.165 19.317,224.901C19.245,224.636 19.194,224.402 19.164,224.198C19.133,224.451 19.082,224.693 19.011,224.923L18.812,225.546L18.71,225.875L18.206,227.462L16.96,227.462L18.614,223.019L17.062,218.713Z" style="fill:rgb(158,161,168);fill-rule:nonzero;"/>
            <path id="path1224" d="M21.311,218.713L25.147,218.713L25.147,219.744L23.827,219.744L23.827,227.462L22.671,227.462L22.671,219.744L21.311,219.744L21.311,218.713Z" style="fill:rgb(158,161,168);fill-rule:nonzero;"/>
        </g>
        <g id="text1015" transform="matrix(0.917288,0,0,1.09017,-7.93156e-07,9.99998)">
            <path id="path1207" d="M2.18,192.518L3.808,192.518C4.481,192.518 4.983,192.678 5.311,192.999C5.727,193.415 5.935,194.05 5.935,194.906C5.935,195.563 5.824,196.092 5.602,196.492C5.385,196.888 5.072,197.134 4.664,197.229L6.351,201.69L5.097,201.69L3.416,197.199L3.416,201.69L2.18,201.69L2.18,192.518ZM3.416,196.581C3.895,196.581 4.234,196.47 4.432,196.249C4.63,196.027 4.729,195.652 4.729,195.126C4.729,194.841 4.707,194.597 4.664,194.395C4.624,194.193 4.559,194.029 4.468,193.902C4.38,193.775 4.266,193.682 4.123,193.623C3.984,193.563 3.818,193.533 3.624,193.533L3.416,193.533L3.416,196.581Z" style="fill:rgb(158,161,168);fill-rule:nonzero;"/>
            <path id="path1209" d="M7.313,192.518L10.599,192.518L10.599,193.563L8.549,193.563L8.549,196.468L10.367,196.468L10.367,197.514L8.549,197.514L8.549,200.645L10.599,200.645L10.599,201.69L7.313,201.69L7.313,192.518Z" style="fill:rgb(158,161,168);fill-rule:nonzero;"/>
            <path id="path1211" d="M14.793,192.708L14.793,193.914C14.417,193.644 14.078,193.51 13.777,193.51C13.452,193.51 13.187,193.625 12.981,193.854C12.775,194.072 12.672,194.363 12.672,194.728C12.672,195.048 12.745,195.324 12.892,195.553C12.967,195.676 13.09,195.835 13.26,196.029C13.435,196.223 13.658,196.456 13.932,196.73C14.435,197.241 14.777,197.682 14.959,198.055C15.142,198.415 15.233,198.857 15.233,199.379C15.233,200.088 15.033,200.673 14.633,201.132C14.233,201.58 13.72,201.803 13.094,201.803C12.567,201.803 12.118,201.659 11.745,201.37L11.745,200.146C12.185,200.467 12.585,200.627 12.945,200.627C13.282,200.627 13.545,200.516 13.736,200.294C13.926,200.069 14.021,199.764 14.021,199.379C14.021,199.047 13.947,198.748 13.801,198.482C13.726,198.356 13.621,198.211 13.486,198.049C13.351,197.882 13.183,197.698 12.981,197.496C12.668,197.187 12.409,196.914 12.203,196.676C11.997,196.439 11.844,196.231 11.745,196.052C11.555,195.704 11.46,195.264 11.46,194.734C11.46,194.017 11.646,193.448 12.019,193.028C12.395,192.605 12.9,192.393 13.534,192.393C13.973,192.393 14.393,192.498 14.793,192.708L14.793,192.708Z" style="fill:rgb(158,161,168);fill-rule:nonzero;"/>
            <path id="path1213" d="M16.272,192.518L19.558,192.518L19.558,193.563L17.508,193.563L17.508,196.468L19.326,196.468L19.326,197.514L17.508,197.514L17.508,200.645L19.558,200.645L19.558,201.69L16.272,201.69L16.272,192.518Z" style="fill:rgb(158,161,168);fill-rule:nonzero;"/>
            <path id="path1215" d="M19.962,192.518L23.984,192.518L23.984,193.599L22.6,193.599L22.6,201.69L21.388,201.69L21.388,193.599L19.962,193.599L19.962,192.518Z" style="fill:rgb(158,161,168);fill-rule:nonzero;"/>
        </g>
        <g id="text1019" transform="matrix(0.816938,0,0,1.22408,-7.93156e-07,12)">
            <path id="path1194" d="M5.416,138.948L5.416,140.022C5.081,139.782 4.78,139.662 4.512,139.662C4.222,139.662 3.986,139.765 3.803,139.969C3.619,140.163 3.528,140.423 3.528,140.747C3.528,141.033 3.593,141.278 3.723,141.483C3.79,141.592 3.9,141.733 4.051,141.906C4.207,142.079 4.406,142.287 4.649,142.53C5.097,142.985 5.402,143.379 5.565,143.71C5.727,144.031 5.808,144.424 5.808,144.89C5.808,145.521 5.63,146.042 5.274,146.451C4.917,146.849 4.461,147.049 3.903,147.049C3.434,147.049 3.034,146.92 2.702,146.663L2.702,145.573C3.094,145.858 3.45,146.001 3.771,146.001C4.071,146.001 4.305,145.902 4.475,145.705C4.644,145.504 4.729,145.232 4.729,144.89C4.729,144.594 4.663,144.327 4.533,144.091C4.466,143.978 4.372,143.849 4.252,143.705C4.132,143.557 3.983,143.393 3.803,143.213C3.524,142.938 3.293,142.694 3.11,142.483C2.926,142.271 2.79,142.086 2.702,141.927C2.533,141.617 2.448,141.225 2.448,140.752C2.448,140.114 2.614,139.608 2.946,139.234C3.281,138.856 3.73,138.668 4.295,138.668C4.686,138.668 5.06,138.761 5.416,138.948L5.416,138.948Z" style="fill:rgb(158,161,168);fill-rule:nonzero;"/>
            <path id="path1196" d="M9.94,138.911L9.94,139.901C9.658,139.763 9.422,139.694 9.231,139.694C8.97,139.694 8.746,139.759 8.559,139.89C8.372,140.017 8.217,140.214 8.094,140.483C7.974,140.751 7.884,141.091 7.824,141.504C7.767,141.913 7.739,142.398 7.739,142.959C7.739,144.976 8.256,145.985 9.289,145.985C9.469,145.985 9.686,145.929 9.94,145.816L9.94,146.827C9.676,146.975 9.379,147.049 9.051,147.049C7.397,147.049 6.57,145.698 6.57,142.996C6.57,141.535 6.771,140.449 7.173,139.737C7.579,139.024 8.198,138.668 9.03,138.668C9.337,138.668 9.64,138.749 9.94,138.911L9.94,138.911Z" style="fill:rgb(158,161,168);fill-rule:nonzero;"/>
            <path id="path1198" d="M10.861,138.779L13.787,138.779L13.787,139.71L11.961,139.71L11.961,142.297L13.581,142.297L13.581,143.229L11.961,143.229L11.961,146.017L13.787,146.017L13.787,146.948L10.861,146.948L10.861,138.779Z" style="fill:rgb(158,161,168);fill-rule:nonzero;"/>
            <path id="path1200" d="M14.797,138.779L15.824,138.779L16.919,142.038C17.237,142.959 17.517,143.941 17.76,144.985C17.672,144.354 17.607,143.782 17.565,143.271C17.522,142.759 17.501,142.278 17.501,141.826L17.501,138.779L18.607,138.779L18.607,146.948L17.575,146.948L16.342,143.271C16.23,142.929 16.122,142.578 16.02,142.218C15.921,141.858 15.829,141.481 15.745,141.086C15.738,141.036 15.725,140.976 15.708,140.906C15.693,140.835 15.676,140.754 15.655,140.662C15.665,140.754 15.674,140.834 15.681,140.901C15.688,140.964 15.693,141.019 15.697,141.065L15.755,141.895L15.813,142.906C15.817,142.962 15.819,143.031 15.819,143.112C15.822,143.193 15.824,143.285 15.824,143.387L15.882,146.948L14.797,146.948L14.797,138.779Z" style="fill:rgb(158,161,168);fill-rule:nonzero;"/>
            <path id="path1202" d="M19.877,138.779L22.803,138.779L22.803,139.71L20.977,139.71L20.977,142.297L22.596,142.297L22.596,143.229L20.977,143.229L20.977,146.017L22.803,146.017L22.803,146.948L19.877,146.948L19.877,138.779Z" style="fill:rgb(158,161,168);fill-rule:nonzero;"/>
            <path id="path1204" d="M26.538,138.948L26.538,140.022C26.203,139.782 25.902,139.662 25.634,139.662C25.344,139.662 25.108,139.765 24.925,139.969C24.741,140.163 24.649,140.423 24.649,140.747C24.649,141.033 24.715,141.278 24.845,141.483C24.912,141.592 25.022,141.733 25.173,141.906C25.328,142.079 25.528,142.287 25.771,142.53C26.219,142.985 26.524,143.379 26.686,143.71C26.849,144.031 26.93,144.424 26.93,144.89C26.93,145.521 26.752,146.042 26.395,146.451C26.039,146.849 25.582,147.049 25.025,147.049C24.556,147.049 24.156,146.92 23.824,146.663L23.824,145.573C24.216,145.858 24.572,146.001 24.893,146.001C25.193,146.001 25.427,145.902 25.596,145.705C25.766,145.504 25.85,145.232 25.85,144.89C25.85,144.594 25.785,144.327 25.655,144.091C25.588,143.978 25.494,143.849 25.374,143.705C25.254,143.557 25.104,143.393 24.925,143.213C24.646,142.938 24.415,142.694 24.231,142.483C24.048,142.271 23.912,142.086 23.824,141.927C23.655,141.617 23.57,141.225 23.57,140.752C23.57,140.114 23.736,139.608 24.067,139.234C24.402,138.856 24.852,138.668 25.417,138.668C25.808,138.668 26.182,138.761 26.538,138.948L26.538,138.948Z" style="fill:rgb(158,161,168);fill-rule:nonzero;"/>
        </g>
        <g id="text1023" transform="matrix(0.733152,0,0,1.36397,-7.93156e-07,11)">
            <path id="path1178" d="M5.753,139.327L5.753,140.215C5.499,140.092 5.287,140.03 5.116,140.03C4.882,140.03 4.681,140.089 4.513,140.206C4.346,140.32 4.206,140.497 4.095,140.737C3.988,140.978 3.907,141.284 3.853,141.654C3.803,142.021 3.777,142.456 3.777,142.96C3.777,144.77 4.241,145.676 5.169,145.676C5.33,145.676 5.525,145.625 5.753,145.524L5.753,146.431C5.515,146.564 5.249,146.63 4.955,146.63C3.47,146.63 2.728,145.418 2.728,142.993C2.728,141.682 2.908,140.707 3.269,140.068C3.633,139.429 4.189,139.109 4.936,139.109C5.211,139.109 5.484,139.182 5.753,139.327L5.753,139.327Z" style="fill:rgb(158,161,168);fill-rule:nonzero;"/>
            <path id="path1180" d="M6.579,139.209L7.548,139.209L7.548,144.389C7.548,144.918 7.595,145.269 7.69,145.443C7.788,145.617 7.981,145.704 8.269,145.704C8.557,145.704 8.747,145.628 8.839,145.476C8.934,145.321 8.982,145.006 8.982,144.531L8.982,139.209L9.95,139.209L9.95,144.531C9.95,145.329 9.828,145.869 9.585,146.151C9.293,146.47 8.849,146.63 8.25,146.63C7.592,146.63 7.128,146.425 6.859,146.013C6.672,145.731 6.579,145.19 6.579,144.389L6.579,139.209Z" style="fill:rgb(158,161,168);fill-rule:nonzero;"/>
            <path id="path1183" d="M11.08,139.209L12.381,139.209C12.92,139.209 13.32,139.337 13.583,139.593C13.915,139.926 14.081,140.434 14.081,141.117C14.081,141.643 13.993,142.065 13.815,142.385C13.641,142.702 13.391,142.898 13.065,142.974L14.414,146.54L13.412,146.54L12.068,142.95L12.068,146.54L11.08,146.54L11.08,139.209ZM12.068,142.456C12.451,142.456 12.722,142.368 12.88,142.191C13.038,142.013 13.117,141.714 13.117,141.293C13.117,141.065 13.1,140.87 13.065,140.709C13.034,140.548 12.981,140.416 12.908,140.315C12.839,140.214 12.747,140.139 12.633,140.092C12.522,140.044 12.389,140.021 12.234,140.021L12.068,140.021L12.068,142.456Z" style="fill:rgb(158,161,168);fill-rule:nonzero;"/>
            <path id="path1185" d="M15.183,139.209L16.484,139.209C17.022,139.209 17.423,139.337 17.685,139.593C18.018,139.926 18.184,140.434 18.184,141.117C18.184,141.643 18.095,142.065 17.918,142.385C17.744,142.702 17.494,142.898 17.168,142.974L18.516,146.54L17.514,146.54L16.171,142.95L16.171,146.54L15.183,146.54L15.183,139.209ZM16.171,142.456C16.554,142.456 16.824,142.368 16.983,142.191C17.141,142.013 17.22,141.714 17.22,141.293C17.22,141.065 17.203,140.87 17.168,140.709C17.136,140.548 17.084,140.416 17.011,140.315C16.941,140.214 16.85,140.139 16.736,140.092C16.625,140.044 16.492,140.021 16.337,140.021L16.171,140.021L16.171,142.456Z" style="fill:rgb(158,161,168);fill-rule:nonzero;"/>
            <path id="path1187" d="M19.286,139.209L21.911,139.209L21.911,140.044L20.273,140.044L20.273,142.366L21.726,142.366L21.726,143.202L20.273,143.202L20.273,145.704L21.911,145.704L21.911,146.54L19.286,146.54L19.286,139.209Z" style="fill:rgb(158,161,168);fill-rule:nonzero;"/>
            <path id="path1189" d="M22.818,139.209L23.74,139.209L24.722,142.134C25.007,142.96 25.259,143.841 25.477,144.778C25.398,144.212 25.34,143.699 25.302,143.24C25.264,142.781 25.245,142.349 25.245,141.944L25.245,139.209L26.237,139.209L26.237,146.54L25.311,146.54L24.205,143.24C24.104,142.933 24.007,142.618 23.915,142.295C23.827,141.972 23.744,141.633 23.668,141.279C23.662,141.235 23.651,141.181 23.635,141.117C23.622,141.054 23.607,140.981 23.588,140.899C23.597,140.981 23.605,141.052 23.611,141.113C23.618,141.17 23.622,141.219 23.626,141.26L23.678,142.005L23.73,142.912C23.733,142.963 23.735,143.025 23.735,143.097C23.738,143.17 23.74,143.253 23.74,143.344L23.792,146.54L22.818,146.54L22.818,139.209Z" style="fill:rgb(158,161,168);fill-rule:nonzero;"/>
            <path id="path1191" d="M26.793,139.209L30.007,139.209L30.007,140.073L28.901,140.073L28.901,146.54L27.932,146.54L27.932,140.073L26.793,140.073L26.793,139.209Z" style="fill:rgb(158,161,168);fill-rule:nonzero;"/>
        </g>
        <g id="text1027" transform="matrix(0.807141,0,0,1.23894,-7.93156e-07,13)">
            <rect id="path1165" x="2.478" y="120.972" width="1.087" height="8.071" style="fill:rgb(158,161,168);fill-rule:nonzero;"/>
            <path id="path1167" d="M4.82,120.972L5.834,120.972L6.916,124.192C7.23,125.102 7.507,126.072 7.747,127.104C7.66,126.48 7.596,125.915 7.554,125.41C7.512,124.905 7.491,124.429 7.491,123.983L7.491,120.972L8.584,120.972L8.584,129.043L7.564,129.043L6.346,125.41C6.235,125.072 6.128,124.725 6.027,124.37C5.93,124.014 5.839,123.641 5.756,123.251C5.749,123.202 5.736,123.143 5.719,123.073C5.705,123.004 5.688,122.923 5.667,122.833C5.677,122.923 5.686,123.002 5.693,123.068C5.7,123.131 5.705,123.185 5.709,123.23L5.766,124.051L5.824,125.049C5.827,125.105 5.829,125.173 5.829,125.253C5.832,125.333 5.834,125.424 5.834,125.525L5.892,129.043L4.82,129.043L4.82,120.972Z" style="fill:rgb(158,161,168);fill-rule:nonzero;"/>
            <path id="path1169" d="M13.006,121.103L13.006,122.08C12.727,121.944 12.494,121.876 12.306,121.876C12.048,121.876 11.827,121.941 11.642,122.07C11.457,122.195 11.304,122.39 11.182,122.655C11.063,122.92 10.974,123.256 10.915,123.664C10.859,124.068 10.832,124.548 10.832,125.102C10.832,127.095 11.342,128.092 12.363,128.092C12.541,128.092 12.755,128.036 13.006,127.925L13.006,128.923C12.745,129.069 12.452,129.143 12.128,129.143C10.494,129.143 9.676,127.808 9.676,125.138C9.676,123.695 9.875,122.622 10.272,121.918C10.673,121.214 11.285,120.862 12.107,120.862C12.41,120.862 12.71,120.942 13.006,121.103L13.006,121.103Z" style="fill:rgb(158,161,168);fill-rule:nonzero;"/>
            <path id="path1171" d="M13.916,120.972L15.348,120.972C15.941,120.972 16.382,121.113 16.671,121.395C17.037,121.761 17.22,122.321 17.22,123.073C17.22,123.652 17.122,124.117 16.927,124.469C16.735,124.818 16.46,125.034 16.101,125.117L17.586,129.043L16.483,129.043L15.003,125.091L15.003,129.043L13.916,129.043L13.916,120.972ZM15.003,124.548C15.425,124.548 15.723,124.45 15.897,124.255C16.071,124.06 16.159,123.73 16.159,123.267C16.159,123.016 16.139,122.801 16.101,122.624C16.066,122.446 16.009,122.301 15.928,122.19C15.852,122.078 15.751,121.996 15.625,121.944C15.503,121.892 15.357,121.866 15.186,121.866L15.003,121.866L15.003,124.548Z" style="fill:rgb(158,161,168);fill-rule:nonzero;"/>
            <path id="path1173" d="M20.356,125.363L20.356,124.469L21.794,124.469L21.794,123.052L22.698,123.052L22.698,124.469L24.131,124.469L24.131,125.363L22.698,125.363L22.698,126.79L21.794,126.79L21.794,125.363L20.356,125.363Z" style="fill:rgb(158,161,168);fill-rule:nonzero;"/>
            <path id="path1175" d="M25.417,120.972L27.257,120.972L27.257,129.043L26.216,129.043L26.216,121.897L25.417,121.897L25.417,120.972Z" style="fill:rgb(158,161,168);fill-rule:nonzero;"/>
        </g>
        <g id="text1031" transform="matrix(0.824365,0,0,1.21306,-7.93156e-07,14)">
            <path id="path1152" d="M2.426,107.066L3.793,107.066C4.209,107.066 4.56,107.112 4.845,107.205C5.108,107.294 5.343,107.452 5.55,107.68C5.859,108.022 6.08,108.467 6.212,109.015C6.343,109.545 6.409,110.305 6.409,111.295C6.409,112.202 6.336,112.943 6.19,113.516C6.048,114.064 5.813,114.482 5.485,114.77C5.083,115.13 4.362,115.31 3.323,115.31L2.426,115.31L2.426,107.066ZM3.537,114.338C4.213,114.338 4.665,114.133 4.893,113.724C5.128,113.315 5.245,112.519 5.245,111.337C5.245,110.067 5.133,109.193 4.909,108.716C4.685,108.239 4.273,108 3.675,108L3.537,108L3.537,114.338Z" style="fill:rgb(158,161,168);fill-rule:nonzero;"/>
            <path id="path1154" d="M7.509,107.066L10.462,107.066L10.462,108.006L8.62,108.006L8.62,110.617L10.253,110.617L10.253,111.556L8.62,111.556L8.62,114.37L10.462,114.37L10.462,115.31L7.509,115.31L7.509,107.066Z" style="fill:rgb(158,161,168);fill-rule:nonzero;"/>
            <path id="path1156" d="M14.717,107.199L14.717,108.198C14.432,108.059 14.194,107.99 14.001,107.99C13.738,107.99 13.512,108.056 13.323,108.187C13.135,108.315 12.978,108.515 12.853,108.785C12.732,109.056 12.642,109.399 12.581,109.816C12.524,110.229 12.496,110.718 12.496,111.284C12.496,113.32 13.017,114.338 14.06,114.338C14.242,114.338 14.461,114.281 14.717,114.167L14.717,115.187C14.45,115.336 14.151,115.411 13.82,115.411C12.15,115.411 11.316,114.048 11.316,111.321C11.316,109.848 11.519,108.751 11.924,108.032C12.334,107.313 12.958,106.954 13.799,106.954C14.108,106.954 14.414,107.036 14.717,107.199L14.717,107.199Z" style="fill:rgb(158,161,168);fill-rule:nonzero;"/>
            <path id="path1158" d="M15.646,107.066L17.109,107.066C17.714,107.066 18.164,107.21 18.46,107.498C18.833,107.872 19.02,108.443 19.02,109.212C19.02,109.803 18.921,110.278 18.721,110.638C18.525,110.994 18.244,111.215 17.878,111.3L19.394,115.31L18.267,115.31L16.756,111.273L16.756,115.31L15.646,115.31L15.646,107.066ZM16.756,110.718C17.187,110.718 17.491,110.618 17.669,110.419C17.847,110.22 17.936,109.883 17.936,109.41C17.936,109.154 17.917,108.935 17.878,108.753C17.842,108.572 17.783,108.424 17.701,108.31C17.623,108.196 17.52,108.112 17.392,108.059C17.267,108.006 17.118,107.979 16.943,107.979L16.756,107.979L16.756,110.718Z" style="fill:rgb(158,161,168);fill-rule:nonzero;"/>
            <rect id="path1160" x="21.887" y="112.063" width="1.943" height="0.833" style="fill:rgb(158,161,168);fill-rule:nonzero;"/>
            <path id="path1162" d="M24.808,107.066L26.687,107.066L26.687,115.31L25.625,115.31L25.625,108.011L24.808,108.011L24.808,107.066Z" style="fill:rgb(158,161,168);fill-rule:nonzero;"/>
        </g>
        <g id="text1035" transform="matrix(0.822828,0,0,1.21532,-1.08576e-06,16)">
            <path id="path1139" d="M3.067,73.953L4.527,73.953C5.231,73.953 5.742,74.131 6.062,74.486C6.382,74.845 6.542,75.413 6.542,76.191C6.542,77.286 6.22,77.993 5.577,78.312C5.254,78.458 4.787,78.531 4.176,78.531L4.176,82.181L3.067,82.181L3.067,73.953ZM4.176,77.582C4.634,77.582 4.95,77.49 5.124,77.305C5.302,77.117 5.391,76.783 5.391,76.303C5.391,75.813 5.305,75.454 5.135,75.227C4.964,74.999 4.696,74.886 4.33,74.886L4.176,74.886L4.176,77.582Z" style="fill:rgb(158,161,168);fill-rule:nonzero;"/>
            <path id="path1141" d="M7.394,73.953L8.482,73.953L8.482,79.767C8.482,80.361 8.535,80.755 8.641,80.95C8.752,81.146 8.968,81.244 9.292,81.244C9.615,81.244 9.828,81.158 9.931,80.988C10.038,80.814 10.091,80.46 10.091,79.927L10.091,73.953L11.178,73.953L11.178,79.927C11.178,80.823 11.041,81.428 10.768,81.744C10.441,82.103 9.942,82.283 9.27,82.283C8.531,82.283 8.011,82.052 7.709,81.59C7.499,81.274 7.394,80.666 7.394,79.767L7.394,73.953Z" style="fill:rgb(158,161,168);fill-rule:nonzero;"/>
            <path id="path1143" d="M12.447,73.953L13.555,73.953L13.555,81.244L15.367,81.244L15.367,82.181L12.447,82.181L12.447,73.953Z" style="fill:rgb(158,161,168);fill-rule:nonzero;"/>
            <path id="path1145" d="M18.943,74.124L18.943,75.206C18.605,74.964 18.302,74.843 18.032,74.843C17.74,74.843 17.502,74.946 17.317,75.152C17.133,75.348 17.04,75.609 17.04,75.936C17.04,76.223 17.106,76.47 17.237,76.676C17.305,76.787 17.415,76.929 17.568,77.103C17.724,77.277 17.925,77.486 18.17,77.732C18.621,78.19 18.929,78.586 19.092,78.92C19.255,79.243 19.337,79.639 19.337,80.108C19.337,80.744 19.158,81.268 18.799,81.681C18.44,82.082 17.98,82.283 17.419,82.283C16.946,82.283 16.543,82.153 16.209,81.894L16.209,80.796C16.603,81.084 16.962,81.228 17.285,81.228C17.587,81.228 17.824,81.128 17.994,80.929C18.165,80.727 18.25,80.453 18.25,80.108C18.25,79.81 18.184,79.542 18.053,79.304C17.985,79.19 17.891,79.06 17.77,78.915C17.65,78.765 17.499,78.6 17.317,78.419C17.037,78.142 16.804,77.897 16.619,77.684C16.435,77.47 16.298,77.284 16.209,77.124C16.038,76.811 15.953,76.417 15.953,75.941C15.953,75.298 16.12,74.788 16.454,74.412C16.792,74.031 17.245,73.841 17.813,73.841C18.207,73.841 18.584,73.935 18.943,74.124Z" style="fill:rgb(158,161,168);fill-rule:nonzero;"/>
            <path id="path1147" d="M20.27,73.953L23.217,73.953L23.217,74.891L21.378,74.891L21.378,77.497L23.009,77.497L23.009,78.435L21.378,78.435L21.378,81.244L23.217,81.244L23.217,82.181L20.27,82.181L20.27,73.953Z" style="fill:rgb(158,161,168);fill-rule:nonzero;"/>
            <path id="path1149" d="M26.979,74.124L26.979,75.206C26.642,74.964 26.338,74.843 26.068,74.843C25.777,74.843 25.539,74.946 25.354,75.152C25.169,75.348 25.077,75.609 25.077,75.936C25.077,76.223 25.142,76.47 25.274,76.676C25.341,76.787 25.452,76.929 25.604,77.103C25.761,77.277 25.961,77.486 26.207,77.732C26.658,78.19 26.965,78.586 27.128,78.92C27.292,79.243 27.374,79.639 27.374,80.108C27.374,80.744 27.194,81.268 26.835,81.681C26.477,82.082 26.016,82.283 25.455,82.283C24.983,82.283 24.579,82.153 24.245,81.894L24.245,80.796C24.64,81.084 24.999,81.228 25.322,81.228C25.624,81.228 25.86,81.128 26.031,80.929C26.201,80.727 26.286,80.453 26.286,80.108C26.286,79.81 26.221,79.542 26.089,79.304C26.022,79.19 25.928,79.06 25.807,78.915C25.686,78.765 25.535,78.6 25.354,78.419C25.073,78.142 24.84,77.897 24.656,77.684C24.471,77.47 24.334,77.284 24.245,77.124C24.075,76.811 23.99,76.417 23.99,75.941C23.99,75.298 24.157,74.788 24.491,74.412C24.828,74.031 25.281,73.841 25.849,73.841C26.244,73.841 26.62,73.935 26.979,74.124Z" style="fill:rgb(158,161,168);fill-rule:nonzero;"/>
        </g>
        <g id="text1039" transform="matrix(0.733152,0,0,1.36397,-7.93156e-07,15)">
            <path id="path1124" d="M5.753,80.675L5.753,81.563C5.499,81.44 5.287,81.378 5.116,81.378C4.882,81.378 4.681,81.436 4.513,81.554C4.346,81.668 4.206,81.845 4.095,82.085C3.988,82.326 3.907,82.631 3.853,83.002C3.803,83.369 3.777,83.804 3.777,84.308C3.777,86.118 4.241,87.024 5.169,87.024C5.33,87.024 5.525,86.973 5.753,86.872L5.753,87.779C5.515,87.912 5.249,87.978 4.955,87.978C3.47,87.978 2.728,86.766 2.728,84.341C2.728,83.03 2.908,82.055 3.269,81.416C3.633,80.776 4.189,80.457 4.936,80.457C5.211,80.457 5.484,80.53 5.753,80.675L5.753,80.675Z" style="fill:rgb(158,161,168);fill-rule:nonzero;"/>
            <path id="path1126" d="M6.579,80.556L7.548,80.556L7.548,85.737C7.548,86.266 7.595,86.617 7.69,86.791C7.788,86.965 7.981,87.052 8.269,87.052C8.557,87.052 8.747,86.976 8.839,86.824C8.934,86.669 8.982,86.354 8.982,85.879L8.982,80.556L9.95,80.556L9.95,85.879C9.95,86.677 9.828,87.217 9.585,87.499C9.293,87.818 8.849,87.978 8.25,87.978C7.592,87.978 7.128,87.772 6.859,87.361C6.672,87.079 6.579,86.538 6.579,85.737L6.579,80.556Z" style="fill:rgb(158,161,168);fill-rule:nonzero;"/>
            <path id="path1128" d="M11.08,80.556L12.381,80.556C12.92,80.556 13.32,80.685 13.583,80.941C13.915,81.273 14.081,81.782 14.081,82.465C14.081,82.991 13.993,83.413 13.815,83.733C13.641,84.05 13.391,84.246 13.065,84.322L14.414,87.888L13.412,87.888L12.068,84.298L12.068,87.888L11.08,87.888L11.08,80.556ZM12.068,83.804C12.451,83.804 12.722,83.716 12.88,83.538C13.038,83.361 13.117,83.062 13.117,82.641C13.117,82.413 13.1,82.218 13.065,82.057C13.034,81.895 12.981,81.764 12.909,81.663C12.839,81.561 12.747,81.487 12.633,81.44C12.522,81.392 12.389,81.368 12.234,81.368L12.068,81.368L12.068,83.804Z" style="fill:rgb(158,161,168);fill-rule:nonzero;"/>
            <path id="path1130" d="M15.183,80.556L16.484,80.556C17.022,80.556 17.423,80.685 17.685,80.941C18.018,81.273 18.184,81.782 18.184,82.465C18.184,82.991 18.095,83.413 17.918,83.733C17.744,84.05 17.494,84.246 17.168,84.322L18.516,87.888L17.514,87.888L16.171,84.298L16.171,87.888L15.183,87.888L15.183,80.556ZM16.171,83.804C16.554,83.804 16.824,83.716 16.983,83.538C17.141,83.361 17.22,83.062 17.22,82.641C17.22,82.413 17.203,82.218 17.168,82.057C17.136,81.895 17.084,81.764 17.011,81.663C16.941,81.561 16.85,81.487 16.736,81.44C16.625,81.392 16.492,81.368 16.337,81.368L16.171,81.368L16.171,83.804Z" style="fill:rgb(158,161,168);fill-rule:nonzero;"/>
            <path id="path1132" d="M19.286,80.556L21.911,80.556L21.911,81.392L20.273,81.392L20.273,83.714L21.726,83.714L21.726,84.55L20.273,84.55L20.273,87.052L21.911,87.052L21.911,87.888L19.286,87.888L19.286,80.556Z" style="fill:rgb(158,161,168);fill-rule:nonzero;"/>
            <path id="path1134" d="M22.818,80.556L23.74,80.556L24.722,83.481C25.007,84.308 25.259,85.189 25.477,86.126C25.398,85.56 25.34,85.047 25.302,84.588C25.264,84.129 25.245,83.697 25.245,83.291L25.245,80.556L26.237,80.556L26.237,87.888L25.311,87.888L24.205,84.588C24.104,84.281 24.007,83.966 23.915,83.643C23.827,83.32 23.744,82.981 23.668,82.627C23.662,82.582 23.651,82.529 23.635,82.465C23.622,82.402 23.607,82.329 23.588,82.247C23.597,82.329 23.605,82.4 23.611,82.461C23.618,82.518 23.622,82.567 23.626,82.608L23.678,83.353L23.73,84.26C23.733,84.311 23.735,84.373 23.735,84.445C23.738,84.518 23.74,84.601 23.74,84.692L23.792,87.888L22.818,87.888L22.818,80.556Z" style="fill:rgb(158,161,168);fill-rule:nonzero;"/>
            <path id="path1136" d="M26.793,80.556L30.007,80.556L30.007,81.421L28.901,81.421L28.901,87.888L27.932,87.888L27.932,81.421L26.793,81.421L26.793,80.556Z" style="fill:rgb(158,161,168);fill-rule:nonzero;"/>
        </g>
        <g id="text1043" transform="matrix(0.86313,0,0,1.15857,0,-2)">
            <path id="path1111" d="M4.195,21.472L5.101,21.472L6.951,30.103L5.8,30.103L5.476,28.421L3.765,28.421L3.435,30.103L2.317,30.103L4.195,21.472ZM5.308,27.521L5.051,26.145C4.879,25.21 4.74,24.211 4.632,23.149C4.579,23.667 4.512,24.193 4.43,24.726C4.348,25.255 4.251,25.818 4.14,26.414L3.927,27.521L5.308,27.521Z" style="fill:rgb(158,161,168);fill-rule:nonzero;"/>
            <path id="path1113" d="M10.96,21.612L10.96,22.657C10.661,22.512 10.412,22.439 10.211,22.439C9.935,22.439 9.698,22.508 9.501,22.646C9.303,22.78 9.139,22.989 9.009,23.272C8.882,23.555 8.787,23.915 8.724,24.351C8.664,24.783 8.634,25.296 8.634,25.888C8.634,28.02 9.18,29.086 10.272,29.086C10.462,29.086 10.691,29.026 10.96,28.907L10.96,29.975C10.68,30.131 10.367,30.21 10.02,30.21C8.273,30.21 7.399,28.782 7.399,25.927C7.399,24.385 7.611,23.237 8.036,22.484C8.465,21.731 9.119,21.355 9.998,21.355C10.322,21.355 10.643,21.44 10.96,21.612L10.96,21.612Z" style="fill:rgb(158,161,168);fill-rule:nonzero;"/>
            <path id="path1115" d="M11.245,21.472L15.029,21.472L15.029,22.489L13.727,22.489L13.727,30.103L12.586,30.103L12.586,22.489L11.245,22.489L11.245,21.472Z" style="fill:rgb(158,161,168);fill-rule:nonzero;"/>
            <rect id="path1117" x="15.667" y="21.472" width="1.163" height="8.631" style="fill:rgb(158,161,168);fill-rule:nonzero;"/>
            <path id="path1119" d="M17.483,21.472L18.629,21.472L19.149,24.658L19.239,25.234L19.423,26.486C19.453,26.699 19.479,26.893 19.501,27.068C19.528,27.243 19.55,27.401 19.569,27.543L19.624,27.968C19.636,27.882 19.645,27.806 19.652,27.739C19.66,27.672 19.667,27.616 19.675,27.571L19.826,26.57L20.021,25.257C20.04,25.137 20.057,25.027 20.072,24.927C20.09,24.826 20.107,24.737 20.122,24.658L20.681,21.472L21.766,21.472L20.072,30.103L19.149,30.103L17.483,21.472Z" style="fill:rgb(158,161,168);fill-rule:nonzero;"/>
            <path id="path1121" d="M22.397,21.472L25.489,21.472L25.489,22.456L23.56,22.456L23.56,25.19L25.271,25.19L25.271,26.173L23.56,26.173L23.56,29.119L25.489,29.119L25.489,30.103L22.397,30.103L22.397,21.472Z" style="fill:rgb(158,161,168);fill-rule:nonzero;"/>
        </g>
        <g id="text1047" transform="matrix(0.838763,0,0,1.19223,0,-3.00002)">
            <path id="path1102" d="M2.384,37.641L3.514,37.641L3.514,45.073L5.361,45.073L5.361,46.029L2.384,46.029L2.384,37.641Z" style="fill:rgb(158,161,168);fill-rule:nonzero;"/>
            <path id="path1104" d="M10.278,42.041C10.278,43.523 10.113,44.575 9.783,45.198C9.454,45.821 8.902,46.132 8.127,46.132C7.312,46.132 6.738,45.797 6.404,45.127C6.075,44.471 5.91,43.307 5.91,41.634C5.91,40.142 6.073,39.086 6.399,38.467C6.729,37.844 7.286,37.532 8.072,37.532C8.775,37.532 9.296,37.773 9.637,38.255C9.861,38.577 10.024,39.035 10.126,39.629C10.227,40.18 10.278,40.984 10.278,42.041L10.278,42.041ZM9.093,42.161C9.093,40.709 9.028,39.745 8.898,39.271C8.768,38.793 8.501,38.554 8.099,38.554C7.697,38.554 7.429,38.773 7.295,39.211C7.165,39.653 7.1,40.54 7.1,41.873C7.1,43.101 7.169,43.952 7.306,44.426C7.447,44.875 7.712,45.1 8.099,45.1C8.48,45.1 8.74,44.89 8.882,44.47C9.023,44.053 9.093,43.284 9.093,42.161L9.093,42.161Z" style="fill:rgb(158,161,168);fill-rule:nonzero;"/>
            <path id="path1106" d="M15.602,42.041C15.602,43.523 15.437,44.575 15.107,45.198C14.778,45.821 14.225,46.132 13.45,46.132C12.635,46.132 12.061,45.797 11.728,45.127C11.399,44.471 11.234,43.307 11.234,41.634C11.234,40.142 11.397,39.086 11.723,38.467C12.052,37.844 12.61,37.532 13.396,37.532C14.099,37.532 14.62,37.773 14.96,38.255C15.185,38.577 15.348,39.035 15.449,39.629C15.551,40.18 15.602,40.984 15.602,42.041ZM14.417,42.161C14.417,40.709 14.352,39.745 14.222,39.271C14.091,38.793 13.825,38.554 13.423,38.554C13.021,38.554 12.753,38.773 12.619,39.211C12.489,39.653 12.424,40.54 12.424,41.873C12.424,43.101 12.492,43.952 12.63,44.426C12.771,44.875 13.036,45.1 13.423,45.1C13.803,45.1 14.064,44.89 14.205,44.47C14.347,44.053 14.417,43.284 14.417,42.161L14.417,42.161Z" style="fill:rgb(158,161,168);fill-rule:nonzero;"/>
            <path id="path1108" d="M16.726,37.641L18.214,37.641C18.932,37.641 19.453,37.822 19.779,38.184C20.105,38.55 20.268,39.13 20.268,39.923C20.268,41.038 19.94,41.759 19.285,42.085C18.955,42.233 18.479,42.308 17.856,42.308L17.856,46.029L16.726,46.029L16.726,37.641ZM17.856,41.341C18.323,41.341 18.645,41.246 18.823,41.058C19.004,40.866 19.095,40.526 19.095,40.037C19.095,39.537 19.008,39.171 18.834,38.939C18.66,38.708 18.387,38.592 18.013,38.592L17.856,38.592L17.856,41.341Z" style="fill:rgb(158,161,168);fill-rule:nonzero;"/>
        </g>
        <g id="text1055" transform="matrix(0.795439,0,0,1.25717,-1.08576e-06,17)">
            <path id="path1077" d="M2.514,55.583L5.363,55.583L5.363,56.49L3.586,56.49L3.586,59.009L5.162,59.009L5.162,59.915L3.586,59.915L3.586,62.63L5.363,62.63L5.363,63.537L2.514,63.537L2.514,55.583Z" style="fill:rgb(158,161,168);fill-rule:nonzero;"/>
            <path id="path1079" d="M6.347,55.583L7.347,55.583L8.413,58.756C8.722,59.653 8.995,60.609 9.232,61.626C9.146,61.011 9.083,60.455 9.042,59.957C9,59.459 8.98,58.99 8.98,58.55L8.98,55.583L10.057,55.583L10.057,63.537L9.052,63.537L7.852,59.957C7.742,59.624 7.637,59.282 7.537,58.931C7.441,58.581 7.352,58.214 7.269,57.829C7.263,57.781 7.251,57.723 7.233,57.654C7.22,57.585 7.202,57.506 7.182,57.417C7.192,57.506 7.201,57.583 7.208,57.649C7.215,57.71 7.22,57.764 7.223,57.808L7.28,58.617L7.336,59.601C7.34,59.656 7.342,59.723 7.342,59.802C7.345,59.881 7.347,59.97 7.347,60.07L7.403,63.537L6.347,63.537L6.347,55.583Z" style="fill:rgb(158,161,168);fill-rule:nonzero;"/>
            <path id="path1081" d="M11.293,55.583L12.612,55.583C13.014,55.583 13.352,55.627 13.627,55.717C13.881,55.803 14.108,55.955 14.307,56.175C14.606,56.505 14.819,56.934 14.946,57.463C15.073,57.975 15.136,58.708 15.136,59.663C15.136,60.539 15.066,61.253 14.925,61.806C14.788,62.335 14.561,62.739 14.245,63.017C13.857,63.364 13.161,63.537 12.159,63.537L11.293,63.537L11.293,55.583ZM12.365,62.6C13.017,62.6 13.453,62.402 13.673,62.007C13.9,61.612 14.013,60.845 14.013,59.704C14.013,58.478 13.905,57.635 13.689,57.175C13.472,56.714 13.076,56.484 12.499,56.484L12.365,56.484L12.365,62.6Z" style="fill:rgb(158,161,168);fill-rule:nonzero;"/>
            <path id="path1083" d="M22.364,59.756C22.364,61.16 22.208,62.158 21.895,62.749C21.583,63.34 21.059,63.635 20.324,63.635C19.551,63.635 19.007,63.317 18.691,62.682C18.378,62.06 18.222,60.956 18.222,59.369C18.222,57.954 18.377,56.953 18.686,56.366C18.998,55.775 19.527,55.48 20.273,55.48C20.939,55.48 21.433,55.708 21.756,56.165C21.969,56.471 22.124,56.905 22.22,57.468C22.316,57.99 22.364,58.753 22.364,59.756L22.364,59.756ZM21.241,59.869C21.241,58.492 21.179,57.578 21.056,57.128C20.932,56.675 20.68,56.448 20.298,56.448C19.917,56.448 19.663,56.656 19.536,57.072C19.412,57.491 19.35,58.332 19.35,59.596C19.35,60.76 19.416,61.567 19.546,62.017C19.68,62.443 19.931,62.656 20.298,62.656C20.659,62.656 20.906,62.457 21.04,62.059C21.174,61.664 21.241,60.934 21.241,59.869L21.241,59.869Z" style="fill:rgb(158,161,168);fill-rule:nonzero;"/>
            <path id="path1085" d="M23.431,55.583L26.295,55.583L26.295,56.49L24.502,56.49L24.502,59.004L26.12,59.004L26.12,59.91L24.502,59.91L24.502,63.537L23.431,63.537L23.431,55.583Z" style="fill:rgb(158,161,168);fill-rule:nonzero;"/>
            <path id="path1087" d="M29.304,55.583L30.715,55.583C31.395,55.583 31.89,55.755 32.199,56.098C32.508,56.445 32.663,56.994 32.663,57.747C32.663,58.804 32.352,59.488 31.73,59.797C31.418,59.938 30.966,60.008 30.375,60.008L30.375,63.537L29.304,63.537L29.304,55.583ZM30.375,59.091C30.818,59.091 31.124,59.002 31.292,58.823C31.464,58.641 31.55,58.318 31.55,57.855C31.55,57.381 31.467,57.034 31.303,56.814C31.138,56.594 30.878,56.484 30.525,56.484L30.375,56.484L30.375,59.091Z" style="fill:rgb(158,161,168);fill-rule:nonzero;"/>
            <path id="path1089" d="M33.487,55.583L34.538,55.583L34.538,61.203C34.538,61.777 34.589,62.158 34.692,62.347C34.799,62.536 35.008,62.63 35.321,62.63C35.634,62.63 35.84,62.548 35.939,62.383C36.042,62.215 36.094,61.873 36.094,61.358L36.094,55.583L37.145,55.583L37.145,61.358C37.145,62.223 37.013,62.809 36.748,63.115C36.432,63.462 35.95,63.635 35.3,63.635C34.586,63.635 34.083,63.412 33.791,62.965C33.588,62.66 33.487,62.072 33.487,61.203L33.487,55.583Z" style="fill:rgb(158,161,168);fill-rule:nonzero;"/>
            <path id="path1091" d="M38.371,55.583L39.442,55.583L39.442,62.63L41.194,62.63L41.194,63.537L38.371,63.537L38.371,55.583Z" style="fill:rgb(158,161,168);fill-rule:nonzero;"/>
            <path id="path1093" d="M44.651,55.748L44.651,56.793C44.325,56.56 44.031,56.443 43.77,56.443C43.488,56.443 43.258,56.543 43.08,56.742C42.901,56.931 42.812,57.183 42.812,57.499C42.812,57.777 42.875,58.016 43.002,58.215C43.068,58.322 43.174,58.459 43.322,58.628C43.473,58.796 43.667,58.998 43.904,59.235C44.34,59.678 44.637,60.061 44.795,60.384C44.953,60.697 45.032,61.08 45.032,61.533C45.032,62.148 44.859,62.655 44.512,63.053C44.165,63.441 43.72,63.635 43.177,63.635C42.721,63.635 42.331,63.51 42.008,63.259L42.008,62.198C42.389,62.476 42.736,62.615 43.049,62.615C43.341,62.615 43.569,62.519 43.734,62.326C43.899,62.131 43.981,61.866 43.981,61.533C43.981,61.245 43.918,60.985 43.791,60.755C43.725,60.645 43.634,60.52 43.518,60.379C43.401,60.235 43.255,60.075 43.08,59.9C42.808,59.632 42.583,59.395 42.405,59.189C42.226,58.983 42.094,58.803 42.008,58.648C41.843,58.346 41.761,57.965 41.761,57.504C41.761,56.883 41.922,56.39 42.245,56.026C42.571,55.658 43.009,55.475 43.559,55.475C43.94,55.475 44.304,55.566 44.651,55.748L44.651,55.748Z" style="fill:rgb(158,161,168);fill-rule:nonzero;"/>
            <path id="path1095" d="M45.934,55.583L48.783,55.583L48.783,56.49L47.005,56.49L47.005,59.009L48.582,59.009L48.582,59.915L47.005,59.915L47.005,62.63L48.783,62.63L48.783,63.537L45.934,63.537L45.934,55.583Z" style="fill:rgb(158,161,168);fill-rule:nonzero;"/>
            <path id="path1097" d="M52.42,55.748L52.42,56.793C52.094,56.56 51.8,56.443 51.539,56.443C51.257,56.443 51.027,56.543 50.849,56.742C50.67,56.931 50.581,57.183 50.581,57.499C50.581,57.777 50.644,58.016 50.771,58.215C50.837,58.322 50.943,58.459 51.091,58.628C51.242,58.796 51.436,58.998 51.673,59.235C52.109,59.678 52.406,60.061 52.564,60.384C52.722,60.697 52.801,61.08 52.801,61.533C52.801,62.148 52.628,62.655 52.281,63.053C51.934,63.441 51.489,63.635 50.946,63.635C50.49,63.635 50.1,63.51 49.777,63.259L49.777,62.198C50.158,62.476 50.505,62.615 50.818,62.615C51.11,62.615 51.338,62.519 51.503,62.326C51.668,62.131 51.75,61.866 51.75,61.533C51.75,61.245 51.687,60.985 51.559,60.755C51.494,60.645 51.403,60.52 51.286,60.379C51.17,60.235 51.024,60.075 50.849,59.9C50.577,59.632 50.352,59.395 50.174,59.189C49.995,58.983 49.863,58.803 49.777,58.648C49.612,58.346 49.53,57.965 49.53,57.504C49.53,56.883 49.691,56.39 50.014,56.026C50.34,55.658 50.778,55.475 51.328,55.475C51.709,55.475 52.073,55.566 52.42,55.748L52.42,55.748Z" style="fill:rgb(158,161,168);fill-rule:nonzero;"/>
        </g>
        <g id="text1059" transform="matrix(0.84342,0,0,1.18565,0,-3.00002)">
            <path id="path1070" d="M42.683,37.85L45.704,37.85L45.704,38.812L43.82,38.812L43.82,41.483L45.491,41.483L45.491,42.444L43.82,42.444L43.82,45.323L45.704,45.323L45.704,46.284L42.683,46.284L42.683,37.85Z" style="fill:rgb(158,161,168);fill-rule:nonzero;"/>
            <path id="path1072" d="M50.97,42.275C50.97,43.764 50.804,44.822 50.473,45.449C50.142,46.075 49.586,46.388 48.807,46.388C47.988,46.388 47.41,46.051 47.075,45.378C46.744,44.718 46.578,43.548 46.578,41.865C46.578,40.365 46.742,39.303 47.07,38.68C47.401,38.054 47.962,37.741 48.752,37.741C49.459,37.741 49.983,37.983 50.326,38.467C50.551,38.791 50.715,39.252 50.817,39.849C50.919,40.403 50.97,41.211 50.97,42.275L50.97,42.275ZM49.779,42.395C49.779,40.935 49.714,39.966 49.583,39.489C49.451,39.008 49.184,38.768 48.78,38.768C48.375,38.768 48.106,38.988 47.971,39.429C47.84,39.873 47.774,40.765 47.774,42.105C47.774,43.34 47.844,44.196 47.982,44.673C48.124,45.124 48.39,45.35 48.78,45.35C49.162,45.35 49.424,45.139 49.566,44.717C49.708,44.298 49.779,43.524 49.779,42.395L49.779,42.395Z" style="fill:rgb(158,161,168);fill-rule:nonzero;"/>
            <path id="path1074" d="M52.101,37.85L53.237,37.85L53.237,45.323L55.094,45.323L55.094,46.284L52.101,46.284L52.101,37.85Z" style="fill:rgb(158,161,168);fill-rule:nonzero;"/>
        </g>
        <g id="text1004" transform="matrix(0.843403,0,0,1.18567,0,0)">
            <path id="path1006" d="M2.371,51.344L3.868,51.344C4.487,51.344 4.948,51.491 5.25,51.786C5.632,52.169 5.824,52.753 5.824,53.54C5.824,54.144 5.722,54.63 5.518,54.998C5.317,55.362 5.03,55.588 4.655,55.675L6.206,59.778L5.053,59.778L3.508,55.648L3.508,59.778L2.371,59.778L2.371,51.344ZM3.508,55.08C3.948,55.08 4.26,54.978 4.442,54.774C4.624,54.57 4.715,54.226 4.715,53.742C4.715,53.48 4.695,53.256 4.655,53.07C4.618,52.884 4.558,52.733 4.474,52.617C4.394,52.5 4.289,52.414 4.158,52.36C4.03,52.305 3.877,52.278 3.699,52.278L3.508,52.278L3.508,55.08Z" style="fill:rgb(158,161,168);fill-rule:nonzero;"/>
            <path id="path1008" d="M7.091,51.344L10.112,51.344L10.112,52.305L8.227,52.305L8.227,54.976L9.899,54.976L9.899,55.938L8.227,55.938L8.227,58.816L10.112,58.816L10.112,59.778L7.091,59.778L7.091,51.344Z" style="fill:rgb(158,161,168);fill-rule:nonzero;"/>
            <path id="path1010" d="M14.465,51.48L14.465,52.502C14.174,52.36 13.93,52.289 13.733,52.289C13.464,52.289 13.233,52.356 13.04,52.491C12.847,52.622 12.686,52.826 12.559,53.103C12.435,53.379 12.342,53.731 12.28,54.157C12.222,54.579 12.193,55.08 12.193,55.659C12.193,57.742 12.726,58.784 13.793,58.784C13.979,58.784 14.203,58.725 14.465,58.609L14.465,59.652C14.192,59.805 13.886,59.882 13.548,59.882C11.84,59.882 10.986,58.487 10.986,55.697C10.986,54.19 11.193,53.068 11.608,52.332C12.027,51.597 12.666,51.229 13.526,51.229C13.842,51.229 14.156,51.313 14.465,51.48L14.465,51.48Z" style="fill:rgb(158,161,168);fill-rule:nonzero;"/>
        </g>
    </g>
</svg>
