<?xml version="1.0" encoding="UTF-8" standalone="no"?>
<!DOCTYPE svg PUBLIC "-//W3C//DTD SVG 1.1//EN" "http://www.w3.org/Graphics/SVG/1.1/DTD/svg11.dtd">
<svg width="100%" height="100%" viewBox="0 0 105 380" version="1.1" xmlns="http://www.w3.org/2000/svg" xmlns:xlink="http://www.w3.org/1999/xlink" xml:space="preserve" xmlns:serif="http://www.serif.com/" style="fill-rule:evenodd;clip-rule:evenodd;stroke-linecap:round;">
    <g id="Layer-2" serif:id="Layer 2">
        <g id="text989">
        </g>
        <rect id="rect4689" x="0.103" y="0" width="105" height="380" style="fill:rgb(44,45,48);"/>
        <g id="text80" transform="matrix(1.00498,0,0,0.995047,7.49999,4.99997)">
            <path id="path4726" d="M29.851,371.706L29.851,363.943L31.853,363.943L32.903,366.668C32.96,366.829 33.024,367.013 33.094,367.221C33.168,367.429 33.249,367.668 33.336,367.94L33.552,368.624C33.475,367.95 33.416,367.373 33.376,366.894C33.336,366.415 33.316,366.013 33.316,365.687L33.316,363.943L35.317,363.943L35.317,371.706L33.316,371.706L32.26,368.85C32.149,368.545 32.049,368.26 31.958,367.995C31.871,367.727 31.794,367.472 31.727,367.231C31.77,367.777 31.802,368.253 31.822,368.659C31.843,369.065 31.853,369.42 31.853,369.725L31.853,371.706L29.851,371.706Z" style="fill:rgb(158,161,168);fill-rule:nonzero;"/>
            <path id="path4728" d="M39.887,371.706L37.791,371.706L37.791,368.418L35.865,363.943L38.052,363.943L38.429,365.094C38.503,365.319 38.568,365.535 38.625,365.743C38.686,365.951 38.739,366.15 38.786,366.341C38.863,366.056 38.93,365.811 38.987,365.607C39.044,365.399 39.095,365.232 39.138,365.104L39.52,363.943L41.692,363.943L39.887,368.418L39.887,371.706Z" style="fill:rgb(158,161,168);fill-rule:nonzero;"/>
            <path id="path4730" d="M41.894,371.515L41.894,369.076C42.306,369.639 42.752,369.921 43.231,369.921C43.412,369.921 43.56,369.874 43.673,369.78C43.787,369.683 43.844,369.562 43.844,369.418C43.844,369.21 43.72,369.008 43.472,368.81L43.13,368.543C42.902,368.372 42.708,368.203 42.547,368.035C42.386,367.865 42.256,367.69 42.155,367.513C42.054,367.332 41.981,367.146 41.934,366.954C41.887,366.763 41.863,366.562 41.863,366.351C41.863,365.989 41.947,365.61 42.115,365.215C42.199,365.03 42.296,364.863 42.406,364.712C42.517,364.558 42.644,364.422 42.789,364.305C43.184,363.969 43.662,363.802 44.222,363.802C44.721,363.802 45.224,363.934 45.73,364.199L45.73,366.572C45.559,366.308 45.365,366.1 45.147,365.949C44.929,365.795 44.714,365.718 44.503,365.718C44.342,365.718 44.21,365.765 44.106,365.858C43.999,365.949 43.945,366.058 43.945,366.185C43.945,366.393 44.087,366.599 44.372,366.804L44.704,367.05C45.147,367.368 45.463,367.695 45.655,368.03C45.849,368.366 45.946,368.758 45.946,369.207C45.946,369.971 45.713,370.601 45.247,371.098C44.781,371.594 44.191,371.842 43.477,371.842C42.985,371.842 42.457,371.733 41.894,371.515L41.894,371.515Z" style="fill:rgb(158,161,168);fill-rule:nonzero;"/>
            <path id="path4732" d="M49.576,371.706L47.48,371.706L47.48,365.803L46.323,365.803L46.323,363.943L50.778,363.943L50.778,365.803L49.576,365.803L49.576,371.706Z" style="fill:rgb(158,161,168);fill-rule:nonzero;"/>
            <path id="path4734" d="M56.525,371.706L54.428,371.706L54.428,368.584L53.428,368.584L53.428,371.706L51.331,371.706L51.331,363.943L53.428,363.943L53.428,366.688L54.428,366.688L54.428,363.943L56.525,363.943L56.525,371.706Z" style="fill:rgb(158,161,168);fill-rule:nonzero;"/>
            <rect id="path4736" x="57.606" y="363.943" width="2.097" height="7.763" style="fill:rgb(158,161,168);fill-rule:nonzero;"/>
        </g>
        <rect id="rect4778" x="2" y="218" width="101" height="146" style="fill:rgb(158,161,168);"/>
        <g id="text4987">
        </g>
        <path id="path2432" d="M8.502,24.84C8.513,24.806 8.524,24.773 8.534,24.739C8.545,24.705 8.556,24.672 8.566,24.638C8.577,24.605 8.588,24.571 8.599,24.538C8.609,24.504 8.62,24.471 8.631,24.437C8.641,24.404 8.652,24.371 8.663,24.337C8.673,24.304 8.684,24.271 8.695,24.237C8.706,24.204 8.716,24.171 8.727,24.138C8.738,24.105 8.749,24.072 8.759,24.039C8.77,24.006 8.781,23.973 8.791,23.94C8.802,23.907 8.813,23.875 8.823,23.842C8.834,23.809 8.845,23.777 8.856,23.745C8.866,23.713 8.877,23.68 8.888,23.648C8.898,23.616 8.909,23.584 8.92,23.552C8.93,23.52 8.941,23.488 8.952,23.457C8.963,23.425 8.973,23.394 8.984,23.362C8.995,23.331 9.006,23.3 9.016,23.269C9.027,23.238 9.038,23.207 9.048,23.176C9.059,23.146 9.07,23.115 9.08,23.085C9.091,23.055 9.102,23.024 9.113,22.994C9.123,22.965 9.134,22.935 9.145,22.905C9.155,22.875 9.166,22.846 9.177,22.817C9.187,22.787 9.198,22.759 9.209,22.73C9.22,22.701 9.23,22.673 9.241,22.644C9.252,22.616 9.263,22.588 9.273,22.56C9.284,22.532 9.295,22.504 9.305,22.477C9.316,22.45 9.327,22.422 9.337,22.395C9.348,22.369 9.359,22.342 9.37,22.315C9.38,22.289 9.391,22.263 9.402,22.237C9.412,22.211 9.423,22.185 9.434,22.16C9.444,22.135 9.455,22.109 9.466,22.085C9.477,22.06 9.488,22.035 9.498,22.011C9.509,21.986 9.52,21.963 9.53,21.939C9.541,21.915 9.552,21.892 9.562,21.869C9.573,21.846 9.584,21.823 9.594,21.801C9.605,21.778 9.616,21.756 9.627,21.734C9.637,21.712 9.648,21.691 9.659,21.669C9.669,21.648 9.68,21.627 9.691,21.607C9.701,21.586 9.712,21.566 9.723,21.546C9.734,21.526 9.745,21.507 9.755,21.487C9.766,21.468 9.777,21.45 9.787,21.431C9.798,21.412 9.809,21.394 9.819,21.376C9.83,21.358 9.841,21.34 9.851,21.323C9.862,21.307 9.873,21.289 9.884,21.273C9.894,21.257 9.905,21.24 9.916,21.225C9.926,21.209 9.937,21.194 9.948,21.179C9.958,21.164 9.969,21.149 9.98,21.135C9.991,21.121 10.002,21.107 10.012,21.094C10.023,21.08 10.034,21.067 10.044,21.054C10.055,21.042 10.066,21.029 10.076,21.018C10.087,21.006 10.098,20.994 10.108,20.983C10.119,20.972 10.13,20.961 10.141,20.951C10.151,20.94 10.162,20.93 10.173,20.921C10.183,20.911 10.194,20.902 10.205,20.893C10.215,20.884 10.226,20.876 10.237,20.868C10.248,20.86 10.259,20.853 10.269,20.845C10.28,20.838 10.291,20.831 10.301,20.825C10.312,20.819 10.323,20.812 10.333,20.807C10.344,20.802 10.355,20.796 10.365,20.792C10.376,20.788 10.387,20.783 10.398,20.779C10.408,20.775 10.419,20.772 10.43,20.769C10.44,20.766 10.451,20.763 10.462,20.76C10.472,20.758 10.483,20.757 10.494,20.755C10.505,20.754 10.516,20.753 10.526,20.752C10.537,20.751 10.548,20.751 10.558,20.751C10.569,20.751 10.58,20.752 10.59,20.753C10.601,20.754 10.612,20.756 10.622,20.757C10.633,20.759 10.644,20.761 10.655,20.764C10.665,20.767 10.676,20.769 10.687,20.774C10.697,20.777 10.708,20.781 10.719,20.786C10.729,20.789 10.74,20.795 10.751,20.8C10.762,20.805 10.773,20.811 10.783,20.816C10.794,20.821 10.805,20.828 10.815,20.835C10.826,20.842 10.837,20.849 10.847,20.856C10.858,20.864 10.869,20.872 10.879,20.881C10.89,20.889 10.901,20.898 10.912,20.907C10.922,20.916 10.933,20.925 10.944,20.936C10.954,20.946 10.965,20.956 10.976,20.967C10.986,20.978 10.997,20.989 11.008,21C11.019,21.012 11.03,21.024 11.04,21.036C11.051,21.049 11.062,21.062 11.072,21.074C11.083,21.087 11.094,21.1 11.104,21.115C11.115,21.128 11.126,21.142 11.137,21.157C11.147,21.172 11.158,21.187 11.169,21.202C11.179,21.217 11.19,21.233 11.201,21.249C11.211,21.265 11.222,21.282 11.233,21.299C11.243,21.315 11.254,21.333 11.265,21.35C11.276,21.367 11.287,21.386 11.297,21.404C11.308,21.422 11.319,21.44 11.329,21.459C11.34,21.478 11.351,21.497 11.361,21.517C11.372,21.536 11.383,21.556 11.394,21.577C11.404,21.597 11.415,21.618 11.426,21.638C11.436,21.66 11.447,21.681 11.458,21.702C11.468,21.724 11.479,21.745 11.49,21.768C11.5,21.79 11.511,21.812 11.522,21.835C11.533,21.858 11.544,21.881 11.554,21.904C11.565,21.928 11.576,21.951 11.586,21.975C11.597,22 11.608,22.024 11.618,22.048C11.629,22.073 11.64,22.097 11.651,22.123C11.661,22.148 11.672,22.173 11.683,22.199C11.693,22.224 11.704,22.25 11.715,22.276C11.725,22.303 11.736,22.329 11.747,22.356C11.757,22.383 11.768,22.409 11.779,22.437C11.79,22.464 11.801,22.491 11.811,22.519C11.822,22.546 11.833,22.574 11.843,22.602C11.854,22.63 11.865,22.659 11.875,22.687C11.886,22.716 11.897,22.745 11.908,22.774C11.918,22.802 11.929,22.832 11.94,22.861C11.95,22.891 11.961,22.92 11.972,22.95C11.982,22.98 11.993,23.01 12.004,23.04C12.014,23.07 12.025,23.1 12.036,23.131C12.047,23.161 12.058,23.192 12.068,23.223C12.079,23.254 12.09,23.285 12.1,23.316C12.111,23.347 12.122,23.378 12.132,23.41C12.143,23.441 12.154,23.473 12.165,23.505C12.175,23.536 12.186,23.568 12.197,23.6C12.207,23.632 12.218,23.664 12.229,23.697C12.239,23.729 12.25,23.761 12.261,23.794C12.271,23.827 12.282,23.859 12.293,23.891C12.304,23.924 12.315,23.957 12.325,23.99C12.336,24.023 12.347,24.056 12.357,24.089C12.368,24.122 12.379,24.155 12.389,24.188C12.4,24.221 12.411,24.254 12.422,24.288C12.432,24.321 12.443,24.354 12.454,24.387C12.464,24.421 12.475,24.454 12.486,24.488C12.496,24.521 12.507,24.555 12.518,24.588C12.529,24.622 12.539,24.655 12.55,24.689C12.561,24.722 12.572,24.756 12.582,24.79C12.593,24.823 12.604,24.857 12.614,24.89C12.625,24.924 12.636,24.957 12.646,24.991C12.657,25.025 12.668,25.058 12.679,25.092C12.689,25.125 12.7,25.159 12.711,25.192C12.721,25.226 12.732,25.259 12.743,25.292C12.753,25.326 12.764,25.359 12.775,25.392C12.786,25.426 12.796,25.459 12.807,25.492C12.818,25.525 12.829,25.558 12.839,25.591C12.85,25.624 12.861,25.657 12.871,25.69C12.882,25.723 12.893,25.756 12.903,25.788C12.914,25.821 12.925,25.854 12.936,25.886C12.946,25.919 12.957,25.951 12.968,25.983C12.978,26.015 12.989,26.048 13,26.08C13.01,26.111 13.021,26.143 13.032,26.175C13.043,26.207 13.053,26.238 13.064,26.27C13.075,26.301 13.086,26.333 13.096,26.364C13.107,26.395 13.118,26.426 13.128,26.457C13.139,26.488 13.15,26.518 13.16,26.549C13.171,26.58 13.182,26.61 13.193,26.64C13.203,26.67 13.214,26.7 13.225,26.73C13.235,26.76 13.246,26.789 13.257,26.819C13.267,26.848 13.278,26.877 13.289,26.906C13.3,26.935 13.31,26.964 13.321,26.992C13.332,27.021 13.343,27.049 13.353,27.077C13.364,27.105 13.375,27.133 13.385,27.161C13.396,27.189 13.407,27.216 13.417,27.243C13.428,27.271 13.439,27.297 13.45,27.324C13.46,27.351 13.471,27.377 13.482,27.403C13.492,27.429 13.503,27.455 13.514,27.481C13.524,27.507 13.535,27.532 13.546,27.557C13.557,27.583 13.567,27.607 13.578,27.632C13.589,27.656 13.6,27.68 13.61,27.704C13.621,27.729 13.632,27.752 13.642,27.775C13.653,27.799 13.664,27.822 13.674,27.845C13.685,27.867 13.696,27.89 13.707,27.912C13.717,27.934 13.728,27.956 13.739,27.978C13.749,27.999 13.76,28.02 13.771,28.041C13.781,28.063 13.792,28.083 13.803,28.103C13.814,28.124 13.825,28.143 13.835,28.163C13.846,28.183 13.857,28.202 13.867,28.221C13.878,28.239 13.889,28.258 13.899,28.276C13.91,28.294 13.921,28.312 13.931,28.33C13.942,28.347 13.953,28.365 13.964,28.381C13.974,28.398 13.985,28.414 13.996,28.43C14.006,28.446 14.017,28.462 14.028,28.478C14.038,28.493 14.049,28.508 14.06,28.523C14.071,28.537 14.082,28.551 14.092,28.565C14.103,28.579 14.114,28.592 14.124,28.606C14.135,28.619 14.146,28.631 14.156,28.643C14.167,28.656 14.178,28.668 14.188,28.679C14.199,28.691 14.21,28.702 14.221,28.713C14.231,28.724 14.242,28.734 14.253,28.744C14.263,28.754 14.274,28.764 14.285,28.773C14.295,28.782 14.306,28.791 14.317,28.799C14.328,28.808 14.339,28.815 14.349,28.823C14.36,28.831 14.371,28.838 14.381,28.845C14.392,28.852 14.403,28.858 14.413,28.864C14.424,28.869 14.435,28.876 14.445,28.88C14.456,28.885 14.467,28.89 14.478,28.894C14.488,28.898 14.499,28.903 14.51,28.906C14.52,28.909 14.531,28.913 14.542,28.916C14.552,28.918 14.563,28.92 14.574,28.923C14.585,28.925 14.596,28.926 14.606,28.927C14.617,28.928 14.628,28.928 14.638,28.928C14.649,28.929 14.66,28.928 14.67,28.928C14.681,28.927 14.692,28.926 14.702,28.925C14.713,28.923 14.724,28.921 14.735,28.919C14.745,28.917 14.756,28.915 14.767,28.911C14.777,28.908 14.788,28.904 14.799,28.9C14.809,28.897 14.82,28.892 14.831,28.888C14.842,28.883 14.853,28.877 14.863,28.872C14.874,28.868 14.885,28.861 14.895,28.855C14.906,28.849 14.917,28.841 14.927,28.834C14.938,28.827 14.949,28.82 14.959,28.812C14.97,28.803 14.981,28.795 14.992,28.786C15.002,28.777 15.013,28.768 15.024,28.759C15.034,28.749 15.045,28.739 15.056,28.729C15.066,28.718 15.077,28.708 15.088,28.697C15.099,28.685 15.11,28.674 15.12,28.662C15.131,28.65 15.142,28.637 15.152,28.625C15.163,28.612 15.174,28.6 15.184,28.586C15.195,28.573 15.206,28.559 15.217,28.545C15.227,28.531 15.238,28.516 15.249,28.501C15.259,28.486 15.27,28.471 15.281,28.455C15.291,28.439 15.302,28.423 15.313,28.407C15.323,28.39 15.334,28.373 15.345,28.356C15.356,28.34 15.367,28.321 15.377,28.304C15.388,28.286 15.399,28.268 15.409,28.249C15.42,28.231 15.431,28.212 15.441,28.192C15.452,28.173 15.463,28.153 15.474,28.134C15.484,28.114 15.495,28.094 15.506,28.073C15.516,28.052 15.527,28.031 15.538,28.01C15.548,27.989 15.559,27.968 15.57,27.946C15.58,27.924 15.591,27.902 15.602,27.879C15.613,27.857 15.624,27.834 15.634,27.811C15.645,27.787 15.656,27.764 15.666,27.741C15.677,27.717 15.688,27.693 15.698,27.669C15.709,27.644 15.72,27.62 15.731,27.595C15.741,27.57 15.752,27.545 15.763,27.52C15.773,27.495 15.784,27.469 15.795,27.443C15.805,27.417 15.816,27.391 15.827,27.364C15.837,27.338 15.848,27.311 15.859,27.284C15.87,27.258 15.881,27.23 15.891,27.203C15.902,27.176 15.913,27.148 15.923,27.12C15.934,27.092 15.945,27.064 15.955,27.036C15.966,27.007 15.977,26.979 15.988,26.95C15.998,26.921 16.009,26.892 16.02,26.863C16.03,26.833 16.041,26.804 16.052,26.775C16.062,26.745 16.073,26.715 16.084,26.685C16.094,26.655 16.105,26.625 16.116,26.595C16.127,26.565 16.138,26.534 16.148,26.503C16.159,26.473 16.17,26.442 16.18,26.411C16.191,26.38 16.202,26.349 16.212,26.317C16.223,26.286 16.234,26.255 16.245,26.223C16.255,26.192 16.266,26.16 16.277,26.128C16.287,26.096 16.298,26.064 16.309,26.032C16.319,26 16.33,25.967 16.341,25.935C16.351,25.903 16.362,25.87 16.373,25.838C16.384,25.805 16.395,25.772 16.405,25.739C16.416,25.707 16.427,25.674 16.437,25.641C16.448,25.608 16.459,25.575 16.469,25.542C16.48,25.509 16.491,25.476 16.502,25.442C16.512,25.409 16.523,25.376 16.534,25.343C16.544,25.309 16.555,25.276 16.566,25.242C16.576,25.209 16.587,25.175 16.598,25.142C16.609,25.108 16.619,25.075 16.63,25.042C16.641,25.008 16.652,24.974 16.662,24.941C16.673,24.907 16.684,24.874 16.694,24.84" style="fill:none;fill-rule:nonzero;stroke:rgb(158,161,168);stroke-width:1.6px;"/>
        <path id="path2603" d="M20.504,25.018L22.578,22.002L26.733,28.476L28.781,25.018" style="fill:none;stroke:rgb(158,161,168);stroke-width:1.6px;"/>
        <path id="path2605" d="M44.477,25.933L44.477,21.406L48.689,21.406L48.764,28.951L52.857,28.951L52.857,24.424" style="fill:none;stroke:rgb(158,161,168);stroke-width:1.6px;stroke-linecap:butt;"/>
        <g id="path2607" transform="matrix(1,0,0,1,0.0311433,0.00712154)">
            <path d="M40.636,28.921L32.497,22.112L32.497,28.921" style="fill:none;stroke:rgb(158,161,168);stroke-width:1.6px;"/>
        </g>
        <g id="text1042">
        </g>
        <g id="g1246" transform="matrix(1,0,0,1,0,88)">
            <path id="path1223" d="M8,61.349L10.896,61.349L10.896,62.266L9.083,62.266L9.083,64.807L10.719,64.807L10.719,65.724L9.083,65.724L9.083,69.391L8,69.391L8,61.349Z" style="fill:rgb(158,161,168);fill-rule:nonzero;"/>
            <path id="path1225" d="M11.729,61.349L13.156,61.349C13.747,61.349 14.186,61.49 14.474,61.771C14.839,62.135 15.021,62.693 15.021,63.443C15.021,64.019 14.924,64.483 14.729,64.833C14.538,65.181 14.264,65.396 13.906,65.479L15.385,69.391L14.286,69.391L12.813,65.453L12.813,69.391L11.729,69.391L11.729,61.349ZM12.813,64.911C13.233,64.911 13.53,64.814 13.703,64.62C13.877,64.425 13.964,64.097 13.964,63.635C13.964,63.385 13.944,63.172 13.906,62.995C13.872,62.818 13.814,62.674 13.734,62.563C13.658,62.451 13.557,62.37 13.432,62.318C13.311,62.266 13.165,62.24 12.995,62.24L12.813,62.24L12.813,64.911Z" style="fill:rgb(158,161,168);fill-rule:nonzero;"/>
            <path id="path1227" d="M16.229,61.349L19.109,61.349L19.109,62.266L17.313,62.266L17.313,64.813L18.906,64.813L18.906,65.729L17.313,65.729L17.313,68.474L19.109,68.474L19.109,69.391L16.229,69.391L16.229,61.349Z" style="fill:rgb(158,161,168);fill-rule:nonzero;"/>
            <path id="path1229" d="M24.359,69.51L23.677,70L23.125,69.214C22.795,69.398 22.446,69.49 22.078,69.49C21.297,69.49 20.745,69.16 20.422,68.5C20.102,67.819 19.943,66.681 19.943,65.083C19.943,63.688 20.099,62.7 20.411,62.12C20.724,61.536 21.253,61.245 22,61.245C22.785,61.245 23.337,61.566 23.656,62.208C23.972,62.837 24.13,63.951 24.13,65.552C24.13,67 23.979,68.005 23.677,68.568L24.359,69.51ZM22.443,66.839L22.891,67.474C22.964,66.96 23,66.38 23,65.734C23,64.352 22.934,63.418 22.802,62.932C22.67,62.464 22.408,62.229 22.016,62.229C21.648,62.229 21.399,62.429 21.271,62.828C21.142,63.21 21.078,63.981 21.078,65.141C21.078,66.443 21.144,67.332 21.276,67.807C21.408,68.262 21.665,68.49 22.047,68.49C22.2,68.49 22.345,68.441 22.484,68.344L21.797,67.354L22.443,66.839Z" style="fill:rgb(158,161,168);fill-rule:nonzero;"/>
        </g>
        <g id="text983" transform="matrix(1,0,0,1,0,68)">
            <path id="path1197" d="M8,109.958L10.896,109.958L10.896,110.875L9.083,110.875L9.083,113.417L10.719,113.417L10.719,114.333L9.083,114.333L9.083,118L8,118L8,109.958Z" style="fill:rgb(158,161,168);fill-rule:nonzero;"/>
            <path id="path1199" d="M12.109,109.958L13.036,109.958L13.745,113.24C13.832,113.649 13.91,114.061 13.979,114.474C14.052,114.884 14.118,115.314 14.177,115.766C14.184,115.707 14.189,115.661 14.193,115.63C14.196,115.595 14.2,115.571 14.203,115.557L14.354,114.635L14.49,113.76L14.609,113.182L15.24,109.958L16.177,109.958L16.917,118L15.88,118L15.698,115.271C15.691,115.132 15.684,115.012 15.677,114.911C15.674,114.811 15.672,114.727 15.672,114.661L15.625,113.583L15.599,112.594C15.599,112.587 15.597,112.573 15.594,112.552C15.594,112.528 15.592,112.497 15.589,112.458L15.562,112.62C15.535,112.811 15.509,112.977 15.484,113.12C15.464,113.262 15.444,113.382 15.427,113.479L15.292,114.214L15.24,114.49L14.562,118L13.833,118L13.198,114.969C13.111,114.569 13.033,114.165 12.964,113.755C12.898,113.342 12.837,112.91 12.781,112.458L12.469,118L11.448,118L12.109,109.958Z" style="fill:rgb(158,161,168);fill-rule:nonzero;"/>
            <rect id="path1201" x="19.469" y="109.958" width="1.083" height="8.042" style="fill:rgb(158,161,168);fill-rule:nonzero;"/>
            <path id="path1203" d="M21.802,109.958L22.813,109.958L23.891,113.167C24.203,114.073 24.479,115.04 24.719,116.068C24.632,115.446 24.568,114.884 24.526,114.38C24.484,113.877 24.464,113.403 24.464,112.958L24.464,109.958L25.552,109.958L25.552,118L24.536,118L23.323,114.38C23.212,114.043 23.106,113.698 23.005,113.344C22.908,112.99 22.818,112.618 22.734,112.229C22.727,112.181 22.715,112.122 22.698,112.052C22.684,111.983 22.667,111.903 22.646,111.813C22.656,111.903 22.665,111.981 22.672,112.047C22.679,112.109 22.684,112.163 22.687,112.208L22.745,113.026L22.802,114.021C22.806,114.076 22.807,114.144 22.807,114.224C22.811,114.304 22.812,114.394 22.812,114.495L22.87,118L21.802,118L21.802,109.958Z" style="fill:rgb(158,161,168);fill-rule:nonzero;"/>
        </g>
        <g id="text1056" transform="matrix(0.977858,0,0,1.02264,0,0)">
            <path id="path1071" d="M8.181,338.196L11.015,338.196L11.015,339.093L9.241,339.093L9.241,341.58L10.841,341.58L10.841,342.477L9.241,342.477L9.241,346.065L8.181,346.065L8.181,338.196Z" style="fill:rgb(44,45,48);fill-rule:nonzero;"/>
            <path id="path1082" d="M11.83,338.196L13.226,338.196C13.804,338.196 14.234,338.334 14.516,338.609C14.872,338.966 15.051,339.511 15.051,340.245C15.051,340.809 14.956,341.263 14.765,341.606C14.579,341.945 14.31,342.156 13.96,342.238L15.408,346.065L14.332,346.065L12.89,342.212L12.89,346.065L11.83,346.065L11.83,338.196ZM12.89,341.682C13.301,341.682 13.592,341.587 13.762,341.397C13.931,341.207 14.016,340.885 14.016,340.434C14.016,340.189 13.998,339.98 13.96,339.807C13.926,339.633 13.87,339.492 13.792,339.384C13.717,339.275 13.619,339.195 13.497,339.144C13.378,339.093 13.235,339.068 13.068,339.068L12.89,339.068L12.89,341.682Z" style="fill:rgb(44,45,48);fill-rule:nonzero;"/>
            <path id="path1090" d="M16.233,338.196L19.051,338.196L19.051,339.093L17.293,339.093L17.293,341.585L18.853,341.585L18.853,342.482L17.293,342.482L17.293,345.168L19.051,345.168L19.051,346.065L16.233,346.065L16.233,338.196Z" style="fill:rgb(44,45,48);fill-rule:nonzero;"/>
            <path id="path1093" d="M20.025,338.196L22.843,338.196L22.843,339.093L21.085,339.093L21.085,341.585L22.644,341.585L22.644,342.482L21.085,342.482L21.085,345.168L22.843,345.168L22.843,346.065L20.025,346.065L20.025,338.196Z" style="fill:rgb(44,45,48);fill-rule:nonzero;"/>
            <path id="path1095" d="M25.977,338.196L27.374,338.196C28.046,338.196 28.535,338.366 28.841,338.706C29.147,339.049 29.3,339.593 29.3,340.337C29.3,341.383 28.992,342.059 28.378,342.365C28.068,342.504 27.622,342.574 27.037,342.574L27.037,346.065L25.977,346.065L25.977,338.196ZM27.037,341.667C27.475,341.667 27.778,341.579 27.944,341.402C28.114,341.222 28.199,340.902 28.199,340.444C28.199,339.975 28.118,339.632 27.955,339.414C27.791,339.197 27.535,339.088 27.185,339.088L27.037,339.088L27.037,341.667Z" style="fill:rgb(44,45,48);fill-rule:nonzero;"/>
            <path id="path1097" d="M30.115,338.196L31.175,338.196L31.175,341.274L32.73,341.274L32.73,338.196L33.79,338.196L33.79,346.065L32.73,346.065L32.73,342.171L31.175,342.171L31.175,346.065L30.115,346.065L30.115,338.196Z" style="fill:rgb(44,45,48);fill-rule:nonzero;"/>
            <rect id="path1099" x="35.008" y="338.196" width="1.06" height="7.869" style="fill:rgb(44,45,48);fill-rule:nonzero;"/>
            <path id="path1102" d="M39.824,338.196L40.731,338.196L41.424,341.407C41.509,341.808 41.585,342.21 41.653,342.615C41.725,343.016 41.789,343.437 41.847,343.879C41.854,343.821 41.859,343.777 41.862,343.746C41.865,343.712 41.869,343.688 41.872,343.675L42.02,342.773L42.152,341.917L42.27,341.351L42.886,338.196L43.804,338.196L44.527,346.065L43.513,346.065L43.335,343.394C43.328,343.259 43.321,343.141 43.314,343.043C43.311,342.944 43.309,342.863 43.309,342.798L43.264,341.743L43.238,340.775C43.238,340.768 43.237,340.755 43.233,340.734C43.233,340.711 43.232,340.68 43.228,340.643L43.203,340.801C43.176,340.987 43.15,341.15 43.127,341.29C43.106,341.429 43.088,341.546 43.071,341.641L42.938,342.36L42.887,342.63L42.225,346.065L41.51,346.065L40.889,343.099C40.804,342.708 40.727,342.312 40.659,341.912C40.595,341.507 40.535,341.084 40.481,340.643L40.175,346.065L39.176,346.065L39.824,338.196Z" style="fill:rgb(44,45,48);fill-rule:nonzero;"/>
            <path id="path1104" d="M49.343,342.324C49.343,343.714 49.189,344.701 48.88,345.285C48.57,345.87 48.052,346.162 47.325,346.162C46.561,346.162 46.022,345.848 45.71,345.219C45.401,344.604 45.246,343.512 45.246,341.942C45.246,340.542 45.399,339.552 45.705,338.971C46.014,338.387 46.537,338.094 47.274,338.094C47.933,338.094 48.423,338.32 48.742,338.772C48.953,339.075 49.106,339.504 49.201,340.062C49.296,340.578 49.343,341.332 49.343,342.324L49.343,342.324ZM48.232,342.436C48.232,341.074 48.171,340.17 48.049,339.725C47.927,339.277 47.677,339.053 47.3,339.053C46.923,339.053 46.671,339.258 46.546,339.669C46.423,340.084 46.362,340.916 46.362,342.166C46.362,343.318 46.427,344.116 46.556,344.562C46.688,344.983 46.936,345.193 47.3,345.193C47.657,345.193 47.901,344.996 48.034,344.602C48.166,344.212 48.232,343.49 48.232,342.436L48.232,342.436Z" style="fill:rgb(44,45,48);fill-rule:nonzero;"/>
            <path id="path1106" d="M50.398,338.196L51.703,338.196C52.1,338.196 52.435,338.241 52.707,338.329C52.958,338.414 53.183,338.565 53.38,338.782C53.675,339.109 53.886,339.533 54.012,340.056C54.137,340.563 54.2,341.288 54.2,342.233C54.2,343.099 54.13,343.806 53.991,344.353C53.855,344.876 53.631,345.275 53.318,345.55C52.935,345.893 52.247,346.065 51.254,346.065L50.398,346.065L50.398,338.196ZM51.458,345.137C52.104,345.137 52.535,344.942 52.753,344.551C52.977,344.161 53.089,343.401 53.089,342.273C53.089,341.06 52.982,340.226 52.768,339.771C52.554,339.316 52.162,339.088 51.591,339.088L51.458,339.088L51.458,345.137Z" style="fill:rgb(44,45,48);fill-rule:nonzero;"/>
        </g>
        <g id="text1008" transform="matrix(1,0,0,1,1,-2)">
            <path id="path1134" d="M35.635,231.948C35.635,233.392 35.497,234.434 35.219,235.073C34.944,235.691 34.477,236 33.818,236C33.158,236 32.689,235.689 32.411,235.068C32.137,234.464 32,233.403 32,231.885C32,230.368 32.137,229.307 32.411,228.703C32.686,228.078 33.153,227.766 33.813,227.766C34.424,227.766 34.875,228.04 35.167,228.589C35.479,229.168 35.635,230.288 35.635,231.948ZM34.531,231.948C34.531,230.733 34.479,229.892 34.375,229.427C34.271,228.965 34.082,228.734 33.807,228.734C33.533,228.734 33.342,228.964 33.234,229.422C33.13,229.88 33.078,230.705 33.078,231.896C33.078,233.087 33.13,233.913 33.234,234.375C33.342,234.833 33.533,235.062 33.807,235.062C34.078,235.062 34.266,234.835 34.37,234.38C34.477,233.946 34.531,233.135 34.531,231.948L34.531,231.948Z" style="fill:rgb(44,45,48);fill-rule:nonzero;"/>
            <path id="path1136" d="M38.344,227.781C38.847,227.781 39.28,227.962 39.641,228.323C40.005,228.684 40.188,229.111 40.188,229.604C40.188,230.111 40.005,230.543 39.641,230.901C39.276,231.255 38.837,231.432 38.323,231.432C37.806,231.432 37.365,231.255 37,230.901C36.635,230.543 36.453,230.113 36.453,229.609C36.453,229.099 36.635,228.667 37,228.312C37.368,227.958 37.816,227.781 38.344,227.781ZM38.328,228.573C38.04,228.573 37.795,228.674 37.594,228.875C37.396,229.073 37.297,229.316 37.297,229.604C37.297,229.889 37.396,230.132 37.594,230.333C37.795,230.535 38.037,230.635 38.318,230.635C38.599,230.635 38.839,230.535 39.037,230.333C39.238,230.132 39.339,229.889 39.339,229.604C39.339,229.326 39.24,229.085 39.042,228.88C38.844,228.675 38.606,228.573 38.328,228.573L38.328,228.573Z" style="fill:rgb(44,45,48);fill-rule:nonzero;"/>
        </g>
        <g id="text1012" transform="matrix(1,0,0,1,-2.99987,-2)">
            <path id="path1126" d="M65.203,227.849L66.208,227.849L66.208,232.859L66.724,232.859L66.724,233.687L66.208,233.687L66.208,235.891L65.203,235.891L65.203,233.687L63,233.687L63,232.766L65.203,227.849ZM65.203,232.859L65.203,229.484L63.849,232.859L65.203,232.859Z" style="fill:rgb(44,45,48);fill-rule:nonzero;"/>
            <path id="path1129" d="M68.401,227.849L70.958,227.849L70.958,228.781L69.224,228.781L68.964,230.802L69.094,230.802C69.41,230.802 69.689,230.852 69.932,230.953C70.179,231.054 70.385,231.201 70.552,231.396C70.719,231.59 70.845,231.83 70.932,232.115C71.019,232.399 71.062,232.724 71.062,233.089C71.062,233.991 70.866,234.701 70.474,235.219C70.082,235.729 69.536,235.984 68.839,235.984C68.446,235.984 68.021,235.873 67.562,235.651L67.833,234.693C68.205,234.887 68.516,234.984 68.766,234.984C69.12,234.984 69.401,234.825 69.609,234.505C69.818,234.182 69.922,233.748 69.922,233.203C69.922,232.172 69.479,231.656 68.594,231.656C68.375,231.656 68.155,231.689 67.932,231.755L68.401,227.849Z" style="fill:rgb(44,45,48);fill-rule:nonzero;"/>
            <path id="path1131" d="M73.839,227.766C74.342,227.766 74.774,227.946 75.135,228.307C75.5,228.668 75.682,229.095 75.682,229.589C75.682,230.095 75.5,230.528 75.135,230.885C74.771,231.24 74.332,231.417 73.818,231.417C73.3,231.417 72.859,231.24 72.495,230.885C72.13,230.528 71.948,230.097 71.948,229.594C71.948,229.083 72.13,228.651 72.495,228.297C72.863,227.943 73.311,227.766 73.839,227.766ZM73.823,228.557C73.535,228.557 73.29,228.658 73.089,228.859C72.891,229.057 72.792,229.3 72.792,229.589C72.792,229.873 72.891,230.116 73.089,230.318C73.29,230.519 73.531,230.62 73.813,230.62C74.094,230.62 74.333,230.519 74.531,230.318C74.733,230.116 74.833,229.873 74.833,229.589C74.833,229.311 74.735,229.069 74.537,228.865C74.339,228.66 74.101,228.557 73.823,228.557L73.823,228.557Z" style="fill:rgb(44,45,48);fill-rule:nonzero;"/>
        </g>
        <g id="text1024" transform="matrix(1,0,0,1,1,-2)">
            <path id="path1119" d="M33.781,259.906L32.625,259.906L33.401,258.344C33.54,258.059 33.677,257.767 33.813,257.469C33.951,257.167 34.087,256.852 34.219,256.526C33.951,256.741 33.675,256.849 33.391,256.849C32.915,256.849 32.564,256.658 32.339,256.276C32.113,255.891 32,255.293 32,254.484C32,253.512 32.132,252.816 32.396,252.396C32.66,251.976 33.099,251.766 33.714,251.766C34.335,251.766 34.78,251.977 35.047,252.401C35.314,252.825 35.448,253.53 35.448,254.516C35.448,255.245 35.365,255.918 35.198,256.536C35.118,256.842 35.003,257.184 34.854,257.562C34.705,257.937 34.519,258.359 34.297,258.828L33.875,259.708L33.781,259.906ZM34.391,254.344C34.391,253.285 34.163,252.755 33.708,252.755C33.257,252.755 33.031,253.278 33.031,254.323C33.031,254.872 33.083,255.269 33.188,255.516C33.295,255.762 33.469,255.885 33.708,255.885C33.948,255.885 34.122,255.764 34.229,255.521C34.337,255.274 34.391,254.882 34.391,254.344L34.391,254.344Z" style="fill:rgb(44,45,48);fill-rule:nonzero;"/>
            <path id="path1121" d="M39.953,255.948C39.953,257.392 39.814,258.434 39.536,259.073C39.262,259.691 38.795,260 38.135,260C37.476,260 37.007,259.689 36.729,259.068C36.455,258.464 36.318,257.403 36.318,255.885C36.318,254.368 36.455,253.307 36.729,252.703C37.003,252.078 37.47,251.766 38.13,251.766C38.741,251.766 39.193,252.04 39.484,252.589C39.797,253.168 39.953,254.288 39.953,255.948ZM38.849,255.948C38.849,254.733 38.797,253.892 38.693,253.427C38.589,252.965 38.399,252.734 38.125,252.734C37.851,252.734 37.66,252.964 37.552,253.422C37.448,253.88 37.396,254.705 37.396,255.896C37.396,257.087 37.448,257.913 37.552,258.375C37.66,258.833 37.851,259.062 38.125,259.062C38.396,259.062 38.583,258.835 38.688,258.38C38.795,257.946 38.849,257.135 38.849,255.948L38.849,255.948Z" style="fill:rgb(44,45,48);fill-rule:nonzero;"/>
            <path id="path1123" d="M42.661,251.781C43.165,251.781 43.597,251.962 43.958,252.323C44.323,252.684 44.505,253.111 44.505,253.604C44.505,254.111 44.323,254.543 43.958,254.901C43.594,255.255 43.155,255.432 42.641,255.432C42.123,255.432 41.682,255.255 41.318,254.901C40.953,254.543 40.771,254.113 40.771,253.609C40.771,253.099 40.953,252.667 41.318,252.312C41.686,251.958 42.134,251.781 42.661,251.781ZM42.646,252.573C42.358,252.573 42.113,252.674 41.912,252.875C41.714,253.073 41.615,253.316 41.615,253.604C41.615,253.889 41.714,254.132 41.912,254.333C42.113,254.535 42.354,254.635 42.636,254.635C42.917,254.635 43.156,254.535 43.354,254.333C43.556,254.132 43.656,253.889 43.656,253.604C43.656,253.326 43.557,253.085 43.36,252.88C43.162,252.675 42.924,252.573 42.646,252.573L42.646,252.573Z" style="fill:rgb(44,45,48);fill-rule:nonzero;"/>
        </g>
        <g id="text1028" transform="matrix(1,0,0,1,-2.99987,-2)">
            <path id="path1110" d="M59.87,251.865L61.703,251.865L61.703,259.906L60.667,259.906L60.667,252.786L59.87,252.786L59.87,251.865Z" style="fill:rgb(44,45,48);fill-rule:nonzero;"/>
            <path id="path1112" d="M64.302,254.021L63.271,254.021L63.271,253.807C63.271,253.45 63.3,253.142 63.359,252.885C63.422,252.628 63.517,252.417 63.646,252.25C63.778,252.083 63.944,251.962 64.146,251.885C64.347,251.806 64.589,251.766 64.87,251.766C65.46,251.766 65.891,251.932 66.161,252.266C66.432,252.599 66.568,253.128 66.568,253.854C66.568,254.451 66.505,254.882 66.38,255.146C66.259,255.413 66.024,255.616 65.677,255.755C66.052,255.884 66.311,256.083 66.453,256.354C66.595,256.622 66.667,257.05 66.667,257.641C66.667,258.45 66.514,259.045 66.208,259.427C65.903,259.809 65.427,260 64.781,260C63.677,260 63.125,259.366 63.125,258.099L63.125,258.016L63.125,257.958C63.125,257.92 63.127,257.896 63.13,257.885L64.146,257.885C64.142,257.944 64.139,257.997 64.135,258.042L64.135,258.146C64.135,258.42 64.194,258.639 64.312,258.802C64.434,258.965 64.599,259.047 64.807,259.047C64.943,259.047 65.057,259.021 65.151,258.969C65.248,258.913 65.326,258.826 65.385,258.708C65.448,258.587 65.493,258.431 65.521,258.24C65.549,258.049 65.562,257.818 65.562,257.547C65.562,257.057 65.488,256.705 65.338,256.49C65.193,256.274 64.948,256.167 64.604,256.167C64.566,256.167 64.524,256.17 64.479,256.177C64.434,256.181 64.382,256.186 64.323,256.193L64.323,255.255L64.474,255.255C64.894,255.255 65.179,255.165 65.328,254.984C65.477,254.804 65.552,254.462 65.552,253.958C65.552,253.125 65.342,252.708 64.922,252.708C64.505,252.708 64.297,253.064 64.297,253.776L64.302,254.021Z" style="fill:rgb(44,45,48);fill-rule:nonzero;"/>
            <path id="path1114" d="M68.401,251.865L70.958,251.865L70.958,252.797L69.224,252.797L68.964,254.818L69.094,254.818C69.41,254.818 69.689,254.868 69.932,254.969C70.179,255.069 70.385,255.217 70.552,255.411C70.719,255.606 70.845,255.845 70.932,256.13C71.019,256.415 71.062,256.74 71.062,257.104C71.062,258.007 70.866,258.717 70.474,259.234C70.082,259.745 69.536,260 68.839,260C68.446,260 68.021,259.889 67.563,259.667L67.833,258.708C68.205,258.903 68.516,259 68.766,259C69.12,259 69.401,258.84 69.609,258.521C69.818,258.198 69.922,257.764 69.922,257.219C69.922,256.187 69.479,255.672 68.594,255.672C68.375,255.672 68.155,255.705 67.932,255.771L68.401,251.865Z" style="fill:rgb(44,45,48);fill-rule:nonzero;"/>
            <path id="path1116" d="M73.839,251.781C74.342,251.781 74.774,251.962 75.135,252.323C75.5,252.684 75.682,253.111 75.682,253.604C75.682,254.111 75.5,254.543 75.135,254.901C74.771,255.255 74.332,255.432 73.818,255.432C73.3,255.432 72.859,255.255 72.495,254.901C72.13,254.543 71.948,254.113 71.948,253.609C71.948,253.099 72.13,252.667 72.495,252.312C72.863,251.958 73.311,251.781 73.839,251.781ZM73.823,252.573C73.535,252.573 73.29,252.674 73.089,252.875C72.891,253.073 72.792,253.316 72.792,253.604C72.792,253.889 72.891,254.132 73.089,254.333C73.29,254.535 73.531,254.635 73.813,254.635C74.094,254.635 74.333,254.535 74.531,254.333C74.733,254.132 74.833,253.889 74.833,253.604C74.833,253.326 74.735,253.085 74.537,252.88C74.339,252.675 74.101,252.573 73.823,252.573L73.823,252.573Z" style="fill:rgb(44,45,48);fill-rule:nonzero;"/>
        </g>
        <g id="text1036" transform="matrix(1,0,0,1,1,-2)">
            <path id="path1101" d="M30,275.865L31.833,275.865L31.833,283.906L30.797,283.906L30.797,276.786L30,276.786L30,275.865Z" style="fill:rgb(44,45,48);fill-rule:nonzero;"/>
            <path id="path1103" d="M35.88,279.542C36.241,279.674 36.49,279.884 36.625,280.172C36.76,280.46 36.828,280.927 36.828,281.573C36.828,282.406 36.688,283.019 36.406,283.411C36.128,283.804 35.691,284 35.094,284C34.493,284 34.052,283.804 33.771,283.411C33.493,283.019 33.354,282.406 33.354,281.573C33.354,280.927 33.422,280.46 33.557,280.172C33.693,279.884 33.941,279.674 34.302,279.542C33.983,279.403 33.757,279.198 33.625,278.927C33.493,278.635 33.427,278.241 33.427,277.745C33.427,277.401 33.458,277.104 33.521,276.854C33.587,276.604 33.688,276.399 33.823,276.24C33.958,276.076 34.13,275.957 34.339,275.88C34.55,275.804 34.802,275.766 35.094,275.766C35.385,275.766 35.635,275.804 35.844,275.88C36.052,275.957 36.224,276.076 36.359,276.24C36.495,276.399 36.594,276.604 36.656,276.854C36.722,277.104 36.755,277.401 36.755,277.745C36.755,278.241 36.689,278.635 36.557,278.927C36.425,279.198 36.2,279.403 35.88,279.542ZM35.688,277.833C35.688,277.076 35.488,276.698 35.089,276.698C34.693,276.698 34.495,277.073 34.495,277.823C34.495,278.656 34.694,279.073 35.094,279.073C35.49,279.073 35.688,278.66 35.688,277.833ZM35.76,281.698C35.76,281.417 35.748,281.177 35.724,280.979C35.7,280.778 35.66,280.615 35.604,280.49C35.549,280.365 35.477,280.273 35.391,280.214C35.307,280.154 35.207,280.125 35.089,280.125C34.856,280.125 34.686,280.245 34.578,280.484C34.474,280.724 34.422,281.111 34.422,281.646C34.422,282.58 34.646,283.047 35.094,283.047C35.538,283.047 35.76,282.597 35.76,281.698L35.76,281.698Z" style="fill:rgb(44,45,48);fill-rule:nonzero;"/>
            <path id="path1105" d="M41.323,279.948C41.323,281.392 41.184,282.434 40.906,283.073C40.632,283.691 40.165,284 39.505,284C38.845,284 38.377,283.689 38.099,283.068C37.825,282.464 37.688,281.403 37.688,279.885C37.688,278.368 37.825,277.307 38.099,276.703C38.373,276.078 38.84,275.766 39.5,275.766C40.111,275.766 40.562,276.04 40.854,276.589C41.167,277.168 41.323,278.288 41.323,279.948ZM40.219,279.948C40.219,278.733 40.167,277.892 40.063,277.427C39.958,276.965 39.769,276.734 39.495,276.734C39.22,276.734 39.03,276.964 38.922,277.422C38.818,277.88 38.766,278.705 38.766,279.896C38.766,281.087 38.818,281.913 38.922,282.375C39.03,282.833 39.22,283.062 39.495,283.062C39.766,283.062 39.953,282.835 40.057,282.38C40.165,281.946 40.219,281.135 40.219,279.948L40.219,279.948Z" style="fill:rgb(44,45,48);fill-rule:nonzero;"/>
            <path id="path1107" d="M44.031,275.781C44.535,275.781 44.967,275.962 45.328,276.323C45.693,276.684 45.875,277.111 45.875,277.604C45.875,278.111 45.693,278.543 45.328,278.901C44.964,279.255 44.524,279.432 44.01,279.432C43.493,279.432 43.052,279.255 42.688,278.901C42.323,278.543 42.141,278.113 42.141,277.609C42.141,277.099 42.323,276.667 42.688,276.312C43.056,275.958 43.503,275.781 44.031,275.781ZM44.016,276.573C43.728,276.573 43.483,276.674 43.281,276.875C43.083,277.073 42.984,277.316 42.984,277.604C42.984,277.889 43.083,278.132 43.281,278.333C43.483,278.535 43.724,278.635 44.005,278.635C44.287,278.635 44.526,278.535 44.724,278.333C44.925,278.132 45.026,277.889 45.026,277.604C45.026,277.326 44.927,277.085 44.729,276.88C44.531,276.675 44.294,276.573 44.016,276.573L44.016,276.573Z" style="fill:rgb(44,45,48);fill-rule:nonzero;"/>
        </g>
        <g id="text1040" transform="matrix(1,0,0,1,-2.99987,-2)">
            <path id="path1092" d="M59.844,278.479L58.781,278.479L58.771,278.161C58.771,277.283 58.903,276.665 59.167,276.307C59.434,275.946 59.882,275.766 60.51,275.766C61.694,275.766 62.286,276.422 62.286,277.734C62.286,278.62 61.844,279.896 60.958,281.562L60.318,282.766C60.314,282.773 60.304,282.794 60.286,282.828C60.269,282.863 60.244,282.913 60.213,282.979L62.203,282.979L62.203,283.906L58.672,283.906C58.731,283.774 58.854,283.512 59.042,283.12C59.229,282.727 59.484,282.198 59.807,281.531C60.082,280.948 60.311,280.453 60.495,280.047C60.679,279.641 60.818,279.307 60.911,279.047C61.099,278.526 61.193,278.076 61.193,277.698C61.193,277.031 60.962,276.698 60.5,276.698C60.056,276.698 59.833,277.111 59.833,277.937L59.839,278.396L59.844,278.479Z" style="fill:rgb(44,45,48);fill-rule:nonzero;"/>
            <path id="path1094" d="M64.26,278.479L63.198,278.479L63.187,278.161C63.187,277.283 63.319,276.665 63.583,276.307C63.851,275.946 64.298,275.766 64.927,275.766C66.111,275.766 66.703,276.422 66.703,277.734C66.703,278.62 66.26,279.896 65.375,281.562L64.734,282.766C64.731,282.773 64.72,282.794 64.703,282.828C64.685,282.863 64.661,282.913 64.63,282.979L66.62,282.979L66.62,283.906L63.088,283.906C63.147,283.774 63.271,283.512 63.458,283.12C63.646,282.727 63.901,282.198 64.224,281.531C64.498,280.948 64.727,280.453 64.911,280.047C65.095,279.641 65.234,279.307 65.328,279.047C65.515,278.526 65.609,278.076 65.609,277.698C65.609,277.031 65.378,276.698 64.916,276.698C64.472,276.698 64.25,277.111 64.25,277.937L64.255,278.396L64.26,278.479Z" style="fill:rgb(44,45,48);fill-rule:nonzero;"/>
            <path id="path1096" d="M68.401,275.865L70.958,275.865L70.958,276.797L69.224,276.797L68.964,278.818L69.094,278.818C69.41,278.818 69.689,278.868 69.932,278.969C70.179,279.069 70.385,279.217 70.552,279.411C70.719,279.606 70.845,279.845 70.932,280.13C71.019,280.415 71.062,280.74 71.062,281.104C71.062,282.007 70.866,282.717 70.474,283.234C70.082,283.745 69.536,284 68.839,284C68.446,284 68.021,283.889 67.562,283.667L67.833,282.708C68.205,282.903 68.516,283 68.766,283C69.12,283 69.401,282.84 69.609,282.521C69.818,282.198 69.922,281.764 69.922,281.219C69.922,280.187 69.479,279.672 68.594,279.672C68.375,279.672 68.155,279.705 67.932,279.771L68.401,275.865Z" style="fill:rgb(44,45,48);fill-rule:nonzero;"/>
            <path id="path1098" d="M73.839,275.781C74.342,275.781 74.774,275.962 75.135,276.323C75.5,276.684 75.682,277.111 75.682,277.604C75.682,278.111 75.5,278.543 75.135,278.901C74.771,279.255 74.332,279.432 73.818,279.432C73.3,279.432 72.859,279.255 72.495,278.901C72.13,278.543 71.948,278.113 71.948,277.609C71.948,277.099 72.13,276.667 72.495,276.312C72.863,275.958 73.311,275.781 73.839,275.781ZM73.823,276.573C73.535,276.573 73.29,276.674 73.089,276.875C72.891,277.073 72.792,277.316 72.792,277.604C72.792,277.889 72.891,278.132 73.089,278.333C73.29,278.535 73.531,278.635 73.813,278.635C74.094,278.635 74.333,278.535 74.531,278.333C74.733,278.132 74.833,277.889 74.833,277.604C74.833,277.326 74.735,277.085 74.537,276.88C74.339,276.675 74.101,276.573 73.823,276.573L73.823,276.573Z" style="fill:rgb(44,45,48);fill-rule:nonzero;"/>
        </g>
        <g id="text1044" transform="matrix(1,0,0,1,1,-2)">
            <path id="path1083" d="M33.172,302.479L32.109,302.479L32.099,302.161C32.099,301.283 32.231,300.665 32.495,300.307C32.762,299.946 33.21,299.766 33.839,299.766C35.023,299.766 35.615,300.422 35.615,301.734C35.615,302.62 35.172,303.896 34.286,305.563L33.646,306.766C33.642,306.773 33.632,306.794 33.615,306.828C33.597,306.863 33.573,306.913 33.542,306.979L35.531,306.979L35.531,307.906L32,307.906C32.059,307.774 32.182,307.512 32.37,307.12C32.557,306.727 32.813,306.198 33.135,305.531C33.41,304.948 33.639,304.453 33.823,304.047C34.007,303.641 34.146,303.307 34.24,303.047C34.427,302.526 34.521,302.076 34.521,301.698C34.521,301.031 34.29,300.698 33.828,300.698C33.384,300.698 33.161,301.111 33.161,301.938L33.167,302.396L33.172,302.479Z" style="fill:rgb(44,45,48);fill-rule:nonzero;"/>
            <path id="path1085" d="M36.406,299.865L40,299.865L37.562,307.906L36.406,307.906L38.641,300.781L36.406,300.781L36.406,299.865Z" style="fill:rgb(44,45,48);fill-rule:nonzero;"/>
            <path id="path1087" d="M44.333,303.948C44.333,305.392 44.194,306.434 43.917,307.073C43.642,307.691 43.175,308 42.516,308C41.856,308 41.387,307.689 41.109,307.068C40.835,306.464 40.698,305.403 40.698,303.885C40.698,302.368 40.835,301.307 41.109,300.703C41.384,300.078 41.851,299.766 42.51,299.766C43.122,299.766 43.573,300.04 43.865,300.589C44.177,301.168 44.333,302.288 44.333,303.948ZM43.229,303.948C43.229,302.733 43.177,301.892 43.073,301.427C42.969,300.965 42.78,300.734 42.505,300.734C42.231,300.734 42.04,300.964 41.932,301.422C41.828,301.88 41.776,302.705 41.776,303.896C41.776,305.087 41.828,305.913 41.932,306.375C42.04,306.833 42.231,307.063 42.505,307.063C42.776,307.063 42.964,306.835 43.068,306.38C43.175,305.946 43.229,305.135 43.229,303.948L43.229,303.948Z" style="fill:rgb(44,45,48);fill-rule:nonzero;"/>
            <path id="path1089" d="M47.042,299.781C47.545,299.781 47.977,299.962 48.339,300.323C48.703,300.684 48.885,301.111 48.885,301.604C48.885,302.111 48.703,302.543 48.339,302.901C47.974,303.255 47.535,303.432 47.021,303.432C46.503,303.432 46.062,303.255 45.698,302.901C45.333,302.543 45.151,302.113 45.151,301.609C45.151,301.099 45.333,300.667 45.698,300.313C46.066,299.958 46.514,299.781 47.042,299.781ZM47.026,300.573C46.738,300.573 46.493,300.674 46.292,300.875C46.094,301.073 45.995,301.316 45.995,301.604C45.995,301.889 46.094,302.132 46.292,302.333C46.493,302.535 46.735,302.635 47.016,302.635C47.297,302.635 47.537,302.535 47.735,302.333C47.936,302.132 48.037,301.889 48.037,301.604C48.037,301.326 47.938,301.085 47.74,300.88C47.542,300.675 47.304,300.573 47.026,300.573L47.026,300.573Z" style="fill:rgb(44,45,48);fill-rule:nonzero;"/>
        </g>
        <g id="text1048" transform="matrix(1,0,0,1,-2.99987,-2)">
            <path id="path1074" d="M60.948,302.021L59.917,302.021L59.917,301.807C59.917,301.45 59.946,301.142 60.005,300.885C60.068,300.628 60.163,300.417 60.292,300.25C60.424,300.083 60.59,299.962 60.792,299.885C60.993,299.806 61.234,299.766 61.516,299.766C62.106,299.766 62.536,299.932 62.807,300.266C63.078,300.599 63.214,301.128 63.214,301.854C63.214,302.451 63.151,302.882 63.026,303.146C62.905,303.413 62.67,303.616 62.323,303.755C62.698,303.884 62.957,304.083 63.099,304.354C63.241,304.622 63.313,305.05 63.313,305.641C63.313,306.45 63.16,307.045 62.854,307.427C62.549,307.809 62.073,308 61.427,308C60.323,308 59.771,307.366 59.771,306.099L59.771,306.016L59.771,305.958C59.771,305.92 59.773,305.896 59.776,305.885L60.792,305.885C60.788,305.944 60.785,305.997 60.781,306.042L60.781,306.146C60.781,306.42 60.84,306.639 60.958,306.802C61.08,306.965 61.245,307.047 61.453,307.047C61.588,307.047 61.703,307.021 61.797,306.969C61.894,306.913 61.972,306.826 62.031,306.708C62.094,306.587 62.139,306.431 62.167,306.24C62.194,306.049 62.208,305.818 62.208,305.547C62.208,305.057 62.134,304.705 61.984,304.49C61.838,304.274 61.594,304.167 61.25,304.167C61.212,304.167 61.17,304.17 61.125,304.177C61.08,304.181 61.028,304.186 60.969,304.193L60.969,303.255L61.12,303.255C61.54,303.255 61.825,303.165 61.974,302.984C62.123,302.804 62.198,302.462 62.198,301.958C62.198,301.125 61.988,300.708 61.568,300.708C61.151,300.708 60.943,301.064 60.943,301.776L60.948,302.021Z" style="fill:rgb(44,45,48);fill-rule:nonzero;"/>
            <path id="path1076" d="M64.307,299.865L66.141,299.865L66.141,307.906L65.104,307.906L65.104,300.786L64.307,300.786L64.307,299.865Z" style="fill:rgb(44,45,48);fill-rule:nonzero;"/>
            <path id="path1078" d="M68.401,299.865L70.958,299.865L70.958,300.797L69.224,300.797L68.964,302.818L69.094,302.818C69.41,302.818 69.689,302.868 69.932,302.969C70.179,303.069 70.385,303.217 70.552,303.411C70.719,303.606 70.845,303.845 70.932,304.13C71.019,304.415 71.062,304.74 71.062,305.104C71.062,306.007 70.866,306.717 70.474,307.234C70.082,307.745 69.536,308 68.839,308C68.446,308 68.021,307.889 67.563,307.667L67.833,306.708C68.205,306.903 68.516,307 68.766,307C69.12,307 69.401,306.84 69.609,306.521C69.818,306.198 69.922,305.764 69.922,305.219C69.922,304.188 69.479,303.672 68.594,303.672C68.375,303.672 68.155,303.705 67.932,303.771L68.401,299.865Z" style="fill:rgb(44,45,48);fill-rule:nonzero;"/>
            <path id="path1080" d="M73.839,299.781C74.342,299.781 74.774,299.962 75.135,300.323C75.5,300.684 75.682,301.111 75.682,301.604C75.682,302.111 75.5,302.543 75.135,302.901C74.771,303.255 74.332,303.432 73.818,303.432C73.3,303.432 72.859,303.255 72.495,302.901C72.13,302.543 71.948,302.113 71.948,301.609C71.948,301.099 72.13,300.667 72.495,300.313C72.863,299.958 73.311,299.781 73.839,299.781ZM73.823,300.573C73.535,300.573 73.29,300.674 73.089,300.875C72.891,301.073 72.792,301.316 72.792,301.604C72.792,301.889 72.891,302.132 73.089,302.333C73.29,302.535 73.531,302.635 73.813,302.635C74.094,302.635 74.333,302.535 74.531,302.333C74.733,302.132 74.833,301.889 74.833,301.604C74.833,301.326 74.735,301.085 74.537,300.88C74.339,300.675 74.101,300.573 73.823,300.573L73.823,300.573Z" style="fill:rgb(44,45,48);fill-rule:nonzero;"/>
        </g>
        <g id="text1062" transform="matrix(1,0,0,1,0,16)">
            <path id="path1150" d="M8,305.859L10.896,305.859L10.896,306.776L9.083,306.776L9.083,309.318L10.719,309.318L10.719,310.234L9.083,310.234L9.083,313.901L8,313.901L8,305.859Z" style="fill:rgb(44,45,48);fill-rule:nonzero;"/>
            <path id="path1152" d="M11.729,305.859L13.156,305.859C13.747,305.859 14.186,306 14.474,306.281C14.839,306.646 15.021,307.203 15.021,307.953C15.021,308.529 14.924,308.993 14.729,309.344C14.538,309.691 14.264,309.906 13.906,309.99L15.385,313.901L14.286,313.901L12.813,309.964L12.813,313.901L11.729,313.901L11.729,305.859ZM12.813,309.422C13.233,309.422 13.53,309.325 13.703,309.13C13.877,308.936 13.964,308.608 13.964,308.146C13.964,307.896 13.944,307.682 13.906,307.505C13.872,307.328 13.814,307.184 13.734,307.073C13.658,306.962 13.557,306.88 13.432,306.828C13.311,306.776 13.165,306.75 12.995,306.75L12.813,306.75L12.813,309.422Z" style="fill:rgb(44,45,48);fill-rule:nonzero;"/>
            <path id="path1154" d="M16.229,305.859L19.109,305.859L19.109,306.776L17.313,306.776L17.313,309.323L18.906,309.323L18.906,310.24L17.313,310.24L17.313,312.984L19.109,312.984L19.109,313.901L16.229,313.901L16.229,305.859Z" style="fill:rgb(44,45,48);fill-rule:nonzero;"/>
            <path id="path1156" d="M20.104,305.859L22.984,305.859L22.984,306.776L21.188,306.776L21.188,309.323L22.781,309.323L22.781,310.24L21.188,310.24L21.188,312.984L22.984,312.984L22.984,313.901L20.104,313.901L20.104,305.859Z" style="fill:rgb(44,45,48);fill-rule:nonzero;"/>
            <path id="path1158" d="M26.188,305.859L27.615,305.859C28.302,305.859 28.802,306.033 29.115,306.38C29.427,306.731 29.583,307.286 29.583,308.047C29.583,309.116 29.269,309.807 28.641,310.12C28.325,310.262 27.868,310.333 27.271,310.333L27.271,313.901L26.188,313.901L26.188,305.859ZM27.271,309.406C27.719,309.406 28.028,309.316 28.198,309.135C28.372,308.951 28.458,308.625 28.458,308.156C28.458,307.677 28.375,307.326 28.208,307.104C28.042,306.882 27.78,306.771 27.422,306.771L27.271,306.771L27.271,309.406Z" style="fill:rgb(44,45,48);fill-rule:nonzero;"/>
            <path id="path1160" d="M30.417,305.859L31.5,305.859L31.5,309.005L33.089,309.005L33.089,305.859L34.172,305.859L34.172,313.901L33.089,313.901L33.089,309.922L31.5,309.922L31.5,313.901L30.417,313.901L30.417,305.859Z" style="fill:rgb(44,45,48);fill-rule:nonzero;"/>
            <path id="path1162" d="M36.563,305.859L37.406,305.859L39.13,313.901L38.057,313.901L37.755,312.333L36.161,312.333L35.854,313.901L34.813,313.901L36.563,305.859ZM37.599,311.495L37.359,310.214C37.2,309.342 37.069,308.411 36.969,307.422C36.92,307.904 36.858,308.394 36.781,308.891C36.705,309.384 36.615,309.908 36.51,310.464L36.313,311.495L37.599,311.495Z" style="fill:rgb(44,45,48);fill-rule:nonzero;"/>
            <path id="path1164" d="M42.453,306.026L42.453,307.083C42.123,306.847 41.826,306.729 41.562,306.729C41.278,306.729 41.045,306.83 40.865,307.031C40.684,307.222 40.594,307.477 40.594,307.797C40.594,308.078 40.658,308.319 40.786,308.521C40.852,308.628 40.96,308.767 41.109,308.937C41.262,309.108 41.458,309.312 41.698,309.552C42.139,310 42.439,310.387 42.599,310.714C42.759,311.029 42.839,311.417 42.839,311.875C42.839,312.496 42.663,313.009 42.313,313.411C41.962,313.804 41.512,314 40.964,314C40.502,314 40.108,313.873 39.781,313.62L39.781,312.547C40.167,312.828 40.517,312.969 40.833,312.969C41.128,312.969 41.359,312.872 41.526,312.677C41.693,312.479 41.776,312.212 41.776,311.875C41.776,311.583 41.712,311.321 41.583,311.089C41.517,310.977 41.425,310.851 41.307,310.708C41.189,310.562 41.042,310.401 40.865,310.224C40.59,309.953 40.363,309.714 40.182,309.505C40.002,309.297 39.868,309.115 39.781,308.958C39.615,308.653 39.531,308.267 39.531,307.802C39.531,307.174 39.694,306.675 40.021,306.307C40.351,305.936 40.793,305.75 41.349,305.75C41.734,305.75 42.102,305.842 42.453,306.026L42.453,306.026Z" style="fill:rgb(44,45,48);fill-rule:nonzero;"/>
            <path id="path1166" d="M43.75,305.859L46.63,305.859L46.63,306.776L44.833,306.776L44.833,309.323L46.427,309.323L46.427,310.24L44.833,310.24L44.833,312.984L46.63,312.984L46.63,313.901L43.75,313.901L43.75,305.859Z" style="fill:rgb(44,45,48);fill-rule:nonzero;"/>
        </g>
        <g id="text1250" transform="matrix(1,0,0,1,-6.88326,72)">
            <path id="path1261" d="M92.031,65.957L92.914,65.957L93.27,66.738C93.311,66.829 93.35,66.926 93.387,67.027C93.423,67.126 93.456,67.232 93.484,67.344C93.505,67.245 93.53,67.15 93.559,67.059C93.587,66.967 93.62,66.878 93.656,66.789L93.707,66.672L94,65.957L94.785,65.957L93.871,67.867L94.977,70L94.086,70L93.731,69.227C93.556,68.865 93.453,68.576 93.422,68.359C93.398,68.568 93.315,68.833 93.172,69.156L92.813,70L92.031,70L93.043,67.867L92.031,65.957Z" style="fill:rgb(158,161,168);fill-rule:nonzero;"/>
            <path id="path1263" d="M95.73,63.969L97.105,63.969L97.105,70L96.328,70L96.328,64.66L95.73,64.66L95.73,63.969Z" style="fill:rgb(158,161,168);fill-rule:nonzero;"/>
            <path id="path1265" d="M100.941,67.031C100.941,68.115 100.837,68.896 100.629,69.375C100.423,69.839 100.073,70.07 99.578,70.07C99.083,70.07 98.732,69.837 98.523,69.371C98.318,68.918 98.215,68.122 98.215,66.984C98.215,65.846 98.318,65.051 98.523,64.598C98.729,64.129 99.079,63.895 99.574,63.895C100.033,63.895 100.371,64.1 100.59,64.512C100.824,64.947 100.941,65.786 100.941,67.031L100.941,67.031ZM100.113,67.031C100.113,66.12 100.074,65.49 99.996,65.141C99.918,64.794 99.776,64.621 99.57,64.621C99.365,64.621 99.221,64.793 99.141,65.137C99.062,65.48 99.023,66.099 99.023,66.992C99.023,67.885 99.062,68.505 99.141,68.852C99.221,69.195 99.365,69.367 99.57,69.367C99.773,69.367 99.914,69.197 99.992,68.855C100.073,68.53 100.113,67.922 100.113,67.031L100.113,67.031Z" style="fill:rgb(158,161,168);fill-rule:nonzero;"/>
        </g>
        <g id="text1254" transform="matrix(1,0,0,1,-6.88326,73)">
            <path id="path1256" d="M93.949,93.457L94.832,93.457L95.188,94.238C95.229,94.329 95.268,94.426 95.305,94.527C95.341,94.626 95.374,94.732 95.402,94.844C95.423,94.745 95.448,94.65 95.477,94.559C95.505,94.467 95.538,94.378 95.574,94.289L95.625,94.172L95.918,93.457L96.703,93.457L95.789,95.367L96.895,97.5L96.004,97.5L95.648,96.727C95.474,96.365 95.371,96.076 95.34,95.859C95.316,96.068 95.233,96.333 95.09,96.656L94.731,97.5L93.949,97.5L94.961,95.367L93.949,93.457Z" style="fill:rgb(158,161,168);fill-rule:nonzero;"/>
            <path id="path1258" d="M97.648,91.469L99.023,91.469L99.023,97.5L98.246,97.5L98.246,92.16L97.648,92.16L97.648,91.469Z" style="fill:rgb(158,161,168);fill-rule:nonzero;"/>
        </g>
        <g id="g1137" transform="matrix(1,0,0,1,12,-10)">
            <g id="text997" transform="matrix(1,0,0,1,-18.0004,24.1921)">
                <path id="path1012" d="M90.471,26.895L91.268,26.895L91.268,31.156C91.268,31.591 91.307,31.88 91.385,32.023C91.466,32.167 91.624,32.238 91.861,32.238C92.098,32.238 92.255,32.176 92.33,32.051C92.408,31.923 92.447,31.664 92.447,31.273L92.447,26.895L93.244,26.895L93.244,31.273C93.244,31.93 93.144,32.374 92.943,32.605C92.704,32.868 92.338,33 91.846,33C91.304,33 90.923,32.831 90.701,32.492C90.548,32.26 90.471,31.815 90.471,31.156L90.471,26.895Z" style="fill:rgb(158,161,168);fill-rule:nonzero;"/>
                <path id="path1014" d="M94.174,26.895L94.932,26.895L95.74,29.301C95.975,29.98 96.182,30.706 96.361,31.477C96.296,31.01 96.248,30.589 96.217,30.211C96.186,29.833 96.17,29.478 96.17,29.145L96.17,26.895L96.986,26.895L96.986,32.926L96.225,32.926L95.314,30.211C95.231,29.958 95.152,29.699 95.076,29.434C95.003,29.168 94.936,28.889 94.873,28.598C94.868,28.561 94.859,28.517 94.846,28.465C94.836,28.413 94.823,28.353 94.807,28.285C94.815,28.353 94.821,28.411 94.826,28.461C94.832,28.508 94.836,28.548 94.838,28.582L94.881,29.195L94.924,29.941C94.927,29.983 94.928,30.034 94.928,30.094C94.93,30.154 94.932,30.221 94.932,30.297L94.975,32.926L94.174,32.926L94.174,26.895Z" style="fill:rgb(158,161,168);fill-rule:nonzero;"/>
                <rect id="path1016" x="97.924" y="26.895" width="0.813" height="6.031" style="fill:rgb(158,161,168);fill-rule:nonzero;"/>
            </g>
            <g id="text1001" transform="matrix(1,0,0,1,-18.0004,26.3095)">
                <path id="path1007" d="M92.549,54.969L93.65,54.969C94.512,54.969 94.943,55.504 94.943,56.574C94.943,56.983 94.887,57.286 94.775,57.484C94.663,57.682 94.466,57.832 94.182,57.934C94.507,58.064 94.73,58.23 94.85,58.434C94.972,58.634 95.033,58.936 95.033,59.34C95.033,60.447 94.559,61 93.611,61L92.549,61L92.549,54.969ZM93.314,57.625C93.63,57.625 93.848,57.552 93.971,57.406C94.093,57.253 94.154,56.983 94.154,56.598C94.154,55.947 93.92,55.621 93.451,55.621L93.389,55.621L93.354,55.621C93.333,55.621 93.32,55.622 93.314,55.625L93.314,57.625ZM93.314,60.305C93.648,60.305 93.878,60.233 94.006,60.09C94.133,59.947 94.197,59.688 94.197,59.312C94.197,58.927 94.131,58.658 93.998,58.504C93.868,58.348 93.64,58.27 93.314,58.27L93.314,60.305Z" style="fill:rgb(158,161,168);fill-rule:nonzero;"/>
                <rect id="path1009" x="95.846" y="54.969" width="0.813" height="6.031" style="fill:rgb(158,161,168);fill-rule:nonzero;"/>
            </g>
        </g>
        <g id="text1021" transform="matrix(0.999992,0,0,1.00001,54,5)">
            <path id="path1023" d="M8,75.859L11.526,75.859L11.526,76.807L10.313,76.807L10.313,83.9L9.25,83.9L9.25,76.807L8,76.807L8,75.859Z" style="fill:rgb(158,161,168);fill-rule:nonzero;"/>
            <path id="path1025" d="M13.12,75.859L13.964,75.859L15.688,83.9L14.615,83.9L14.313,82.333L12.719,82.333L12.411,83.9L11.37,83.9L13.12,75.859ZM14.156,81.494L13.917,80.213C13.757,79.341 13.627,78.411 13.526,77.421C13.477,77.904 13.415,78.393 13.339,78.89C13.262,79.383 13.172,79.907 13.068,80.463L12.87,81.494L14.156,81.494Z" style="fill:rgb(158,161,168);fill-rule:nonzero;"/>
            <path id="path1027" d="M16.328,75.859L17.755,75.859C18.443,75.859 18.943,76.032 19.255,76.38C19.568,76.73 19.724,77.286 19.724,78.046C19.724,79.116 19.41,79.807 18.781,80.119C18.465,80.261 18.009,80.333 17.411,80.333L17.411,83.9L16.328,83.9L16.328,75.859ZM17.411,79.406C17.859,79.406 18.168,79.315 18.339,79.135C18.512,78.951 18.599,78.624 18.599,78.156C18.599,77.676 18.516,77.326 18.349,77.104C18.182,76.881 17.92,76.77 17.562,76.77L17.411,76.77L17.411,79.406Z" style="fill:rgb(158,161,168);fill-rule:nonzero;"/>
            <path id="path1029" d="M22.125,75.859L25.651,75.859L25.651,76.807L24.437,76.807L24.437,83.9L23.375,83.9L23.375,76.807L22.125,76.807L22.125,75.859Z" style="fill:rgb(158,161,168);fill-rule:nonzero;"/>
            <path id="path1031" d="M26.245,75.859L27.672,75.859C28.262,75.859 28.701,75.999 28.989,76.281C29.354,76.645 29.536,77.202 29.536,77.952C29.536,78.529 29.439,78.992 29.245,79.343C29.054,79.69 28.779,79.906 28.422,79.989L29.901,83.9L28.802,83.9L27.328,79.963L27.328,83.9L26.245,83.9L26.245,75.859ZM27.328,79.421C27.748,79.421 28.045,79.324 28.219,79.13C28.392,78.935 28.479,78.607 28.479,78.145C28.479,77.895 28.46,77.682 28.422,77.505C28.387,77.327 28.33,77.183 28.25,77.072C28.174,76.961 28.073,76.88 27.948,76.827C27.826,76.775 27.68,76.749 27.51,76.749L27.328,76.749L27.328,79.421Z" style="fill:rgb(158,161,168);fill-rule:nonzero;"/>
            <rect id="path1033" x="30.745" y="75.859" width="1.083" height="8.042" style="fill:rgb(158,161,168);fill-rule:nonzero;"/>
            <path id="path1035" d="M35.005,79.671L36.974,79.671L36.974,79.984C36.974,81.55 36.837,82.607 36.562,83.156C36.291,83.718 35.785,83.999 35.042,83.999C34.274,83.999 33.727,83.687 33.401,83.062C33.078,82.437 32.917,81.386 32.917,79.911C32.917,78.223 33.094,77.1 33.448,76.541C33.781,76.017 34.293,75.755 34.984,75.755C35.512,75.755 35.923,75.881 36.219,76.135C36.517,76.392 36.75,76.814 36.916,77.4L35.906,77.822C35.861,77.61 35.811,77.433 35.755,77.291C35.699,77.145 35.639,77.032 35.573,76.952C35.441,76.789 35.243,76.708 34.979,76.708C34.618,76.708 34.371,76.93 34.239,77.374C34.107,77.84 34.042,78.675 34.042,79.88C34.042,81.098 34.109,81.923 34.245,82.353C34.38,82.784 34.635,82.999 35.01,82.999C35.354,82.999 35.595,82.847 35.734,82.541C35.877,82.215 35.948,81.69 35.948,80.968L35.948,80.749L35.948,80.588L35.005,80.588L35.005,79.671Z" style="fill:rgb(158,161,168);fill-rule:nonzero;"/>
        </g>
        <g id="text1013" transform="matrix(1,0,0,1,3.5,19.9297)">
            <path id="path1024" d="M58,118.039L60.172,118.039L60.172,118.727L58.813,118.727L58.813,120.633L60.039,120.633L60.039,121.32L58.813,121.32L58.813,124.07L58,124.07L58,118.039Z" style="fill:rgb(158,161,168);fill-rule:nonzero;"/>
            <rect id="path1026" x="60.797" y="118.039" width="0.813" height="6.031" style="fill:rgb(158,161,168);fill-rule:nonzero;"/>
            <path id="path1028" d="M62.547,118.039L63.305,118.039L64.113,120.445C64.348,121.125 64.555,121.85 64.734,122.621C64.669,122.155 64.621,121.733 64.59,121.355C64.559,120.978 64.543,120.622 64.543,120.289L64.543,118.039L65.359,118.039L65.359,124.07L64.598,124.07L63.688,121.355C63.604,121.103 63.525,120.844 63.449,120.578C63.376,120.313 63.309,120.034 63.246,119.742C63.241,119.706 63.232,119.661 63.219,119.609C63.209,119.557 63.196,119.497 63.18,119.43C63.188,119.497 63.194,119.556 63.2,119.605C63.205,119.652 63.209,119.693 63.211,119.727L63.254,120.34L63.297,121.086C63.3,121.128 63.301,121.178 63.301,121.238C63.303,121.298 63.305,121.366 63.305,121.441L63.348,124.07L62.547,124.07L62.547,118.039Z" style="fill:rgb(158,161,168);fill-rule:nonzero;"/>
            <path id="path1030" d="M66.297,118.039L68.457,118.039L68.457,118.727L67.109,118.727L67.109,120.637L68.305,120.637L68.305,121.324L67.109,121.324L67.109,123.383L68.457,123.383L68.457,124.07L66.297,124.07L66.297,118.039Z" style="fill:rgb(158,161,168);fill-rule:nonzero;"/>
        </g>
        <g id="g1154" transform="matrix(1,0,0,1,12,-10)">
            <g id="text1009" transform="matrix(1,0,0,1,10,0)">
                <path id="path1073" d="M24.465,51.169L25.465,51.169C25.77,51.169 26.026,51.203 26.234,51.27C26.427,51.335 26.599,51.451 26.75,51.618C26.977,51.868 27.138,52.193 27.234,52.595C27.331,52.983 27.379,53.539 27.379,54.262C27.379,54.927 27.326,55.468 27.219,55.887C27.115,56.289 26.943,56.595 26.703,56.805C26.409,57.068 25.882,57.2 25.121,57.2L24.465,57.2L24.465,51.169ZM25.277,56.489C25.772,56.489 26.103,56.339 26.27,56.04C26.441,55.74 26.527,55.158 26.527,54.294C26.527,53.364 26.445,52.725 26.281,52.376C26.117,52.027 25.816,51.852 25.379,51.852L25.277,51.852L25.277,56.489Z" style="fill:rgb(158,161,168);fill-rule:nonzero;"/>
                <rect id="path1075" x="28.184" y="51.169" width="0.813" height="6.031" style="fill:rgb(158,161,168);fill-rule:nonzero;"/>
                <path id="path1077" d="M31.945,51.294L31.945,52.087C31.698,51.91 31.475,51.821 31.277,51.821C31.064,51.821 30.889,51.897 30.754,52.048C30.618,52.191 30.551,52.382 30.551,52.622C30.551,52.833 30.599,53.014 30.695,53.165C30.745,53.246 30.826,53.35 30.938,53.477C31.052,53.605 31.199,53.759 31.379,53.938C31.71,54.274 31.935,54.565 32.055,54.809C32.174,55.046 32.234,55.337 32.234,55.68C32.234,56.147 32.103,56.531 31.84,56.833C31.577,57.127 31.24,57.274 30.828,57.274C30.482,57.274 30.186,57.179 29.941,56.989L29.941,56.184C30.23,56.395 30.493,56.501 30.73,56.501C30.952,56.501 31.125,56.428 31.25,56.282C31.375,56.134 31.437,55.933 31.437,55.68C31.437,55.462 31.389,55.265 31.293,55.091C31.243,55.007 31.174,54.912 31.086,54.805C30.997,54.696 30.887,54.575 30.754,54.442C30.548,54.239 30.378,54.059 30.242,53.903C30.107,53.747 30.007,53.61 29.941,53.493C29.816,53.264 29.754,52.975 29.754,52.626C29.754,52.154 29.876,51.781 30.121,51.505C30.368,51.226 30.701,51.087 31.117,51.087C31.406,51.087 31.682,51.156 31.945,51.294L31.945,51.294Z" style="fill:rgb(158,161,168);fill-rule:nonzero;"/>
                <path id="path1079" d="M35.285,51.266L35.285,51.997C35.077,51.895 34.902,51.845 34.762,51.845C34.569,51.845 34.404,51.893 34.266,51.989C34.128,52.083 34.013,52.229 33.922,52.427C33.833,52.624 33.767,52.876 33.723,53.18C33.681,53.483 33.66,53.841 33.66,54.255C33.66,55.744 34.042,56.489 34.805,56.489C34.938,56.489 35.098,56.447 35.285,56.364L35.285,57.11C35.09,57.22 34.871,57.274 34.629,57.274C33.408,57.274 32.797,56.277 32.797,54.282C32.797,53.204 32.945,52.402 33.242,51.876C33.542,51.35 33.999,51.087 34.613,51.087C34.84,51.087 35.064,51.147 35.285,51.266L35.285,51.266Z" style="fill:rgb(158,161,168);fill-rule:nonzero;"/>
                <path id="path1081" d="M35.965,51.169L37.035,51.169C37.478,51.169 37.807,51.274 38.023,51.485C38.297,51.759 38.434,52.177 38.434,52.739C38.434,53.171 38.361,53.519 38.215,53.782C38.072,54.042 37.866,54.204 37.598,54.266L38.707,57.2L37.883,57.2L36.777,54.247L36.777,57.2L35.965,57.2L35.965,51.169ZM36.777,53.841C37.092,53.841 37.315,53.768 37.445,53.622C37.576,53.476 37.641,53.23 37.641,52.884C37.641,52.696 37.626,52.536 37.598,52.403C37.572,52.27 37.529,52.162 37.469,52.079C37.411,51.996 37.336,51.934 37.242,51.895C37.151,51.856 37.042,51.837 36.914,51.837L36.777,51.837L36.777,53.841Z" style="fill:rgb(158,161,168);fill-rule:nonzero;"/>
                <path id="path1084" d="M39.34,51.169L41.5,51.169L41.5,51.856L40.152,51.856L40.152,53.766L41.348,53.766L41.348,54.454L40.152,54.454L40.152,56.512L41.5,56.512L41.5,57.2L39.34,57.2L39.34,51.169Z" style="fill:rgb(158,161,168);fill-rule:nonzero;"/>
                <path id="path1086" d="M41.766,51.169L44.41,51.169L44.41,51.88L43.5,51.88L43.5,57.2L42.703,57.2L42.703,51.88L41.766,51.88L41.766,51.169Z" style="fill:rgb(158,161,168);fill-rule:nonzero;"/>
                <path id="path1088" d="M44.855,51.169L47.016,51.169L47.016,51.856L45.668,51.856L45.668,53.766L46.863,53.766L46.863,54.454L45.668,54.454L45.668,56.512L47.016,56.512L47.016,57.2L44.855,57.2L44.855,51.169Z" style="fill:rgb(158,161,168);fill-rule:nonzero;"/>
            </g>
            <g id="text1060" transform="matrix(1,0,0,1,10,0.7)">
                <path id="path1062" d="M27.254,80.504L27.949,80.504L28.48,82.965C28.546,83.272 28.604,83.581 28.656,83.891C28.711,84.198 28.76,84.521 28.805,84.859C28.81,84.815 28.814,84.781 28.816,84.758C28.819,84.732 28.822,84.714 28.824,84.703L28.938,84.012L29.039,83.356L29.129,82.922L29.602,80.504L30.305,80.504L30.859,86.535L30.082,86.535L29.945,84.488C29.94,84.384 29.935,84.294 29.93,84.219C29.927,84.143 29.926,84.081 29.926,84.031L29.891,83.223L29.871,82.481C29.871,82.475 29.87,82.465 29.867,82.449C29.867,82.431 29.866,82.408 29.863,82.379L29.844,82.5C29.823,82.643 29.803,82.768 29.785,82.875C29.77,82.982 29.755,83.072 29.742,83.145L29.641,83.695L29.602,83.902L29.094,86.535L28.547,86.535L28.07,84.262C28.005,83.962 27.947,83.659 27.895,83.352C27.845,83.042 27.799,82.718 27.758,82.379L27.523,86.535L26.758,86.535L27.254,80.504Z" style="fill:rgb(158,161,168);fill-rule:nonzero;"/>
                <path id="path1064" d="M34.551,83.668C34.551,84.733 34.432,85.49 34.195,85.938C33.958,86.385 33.561,86.609 33.004,86.609C32.418,86.609 32.005,86.369 31.766,85.887C31.529,85.415 31.41,84.578 31.41,83.375C31.41,82.302 31.527,81.543 31.762,81.098C31.999,80.65 32.4,80.426 32.965,80.426C33.47,80.426 33.845,80.599 34.09,80.945C34.251,81.177 34.368,81.507 34.441,81.934C34.514,82.33 34.551,82.908 34.551,83.668L34.551,83.668ZM33.699,83.754C33.699,82.71 33.652,82.017 33.559,81.676C33.465,81.332 33.273,81.16 32.984,81.16C32.695,81.16 32.503,81.318 32.406,81.633C32.313,81.951 32.266,82.589 32.266,83.547C32.266,84.43 32.315,85.042 32.414,85.383C32.516,85.706 32.706,85.867 32.984,85.867C33.258,85.867 33.445,85.716 33.547,85.414C33.648,85.115 33.699,84.561 33.699,83.754L33.699,83.754Z" style="fill:rgb(158,161,168);fill-rule:nonzero;"/>
                <path id="path1066" d="M35.359,80.504L36.43,80.504C36.872,80.504 37.202,80.609 37.418,80.82C37.691,81.094 37.828,81.512 37.828,82.074C37.828,82.507 37.755,82.854 37.609,83.117C37.466,83.378 37.26,83.539 36.992,83.602L38.102,86.535L37.277,86.535L36.172,83.582L36.172,86.535L35.359,86.535L35.359,80.504ZM36.172,83.176C36.487,83.176 36.71,83.103 36.84,82.957C36.97,82.811 37.035,82.565 37.035,82.219C37.035,82.031 37.021,81.871 36.992,81.738C36.966,81.606 36.923,81.497 36.863,81.414C36.806,81.331 36.73,81.27 36.637,81.231C36.546,81.192 36.436,81.172 36.309,81.172L36.172,81.172L36.172,83.176Z" style="fill:rgb(158,161,168);fill-rule:nonzero;"/>
                <path id="path1068" d="M38.734,80.504L39.805,80.504C40.32,80.504 40.695,80.634 40.93,80.895C41.164,81.158 41.281,81.574 41.281,82.145C41.281,82.947 41.046,83.465 40.574,83.699C40.337,83.806 39.995,83.859 39.547,83.859L39.547,86.535L38.734,86.535L38.734,80.504ZM39.547,83.164C39.883,83.164 40.115,83.096 40.242,82.961C40.372,82.823 40.438,82.578 40.438,82.227C40.438,81.867 40.375,81.604 40.25,81.438C40.125,81.271 39.928,81.188 39.66,81.188L39.547,81.188L39.547,83.164Z" style="fill:rgb(158,161,168);fill-rule:nonzero;"/>
                <path id="path1070" d="M41.906,80.504L42.719,80.504L42.719,82.863L43.91,82.863L43.91,80.504L44.723,80.504L44.723,86.535L43.91,86.535L43.91,83.551L42.719,83.551L42.719,86.535L41.906,86.535L41.906,80.504Z" style="fill:rgb(158,161,168);fill-rule:nonzero;"/>
            </g>
        </g>
        <g id="text1158" transform="matrix(1,0,0,1,-2.34375,-10)">
            <path id="path1161" d="M15.832,51.266L15.832,51.997C15.624,51.895 15.449,51.844 15.309,51.844C15.116,51.844 14.951,51.893 14.813,51.989C14.674,52.083 14.56,52.229 14.469,52.427C14.38,52.624 14.314,52.876 14.27,53.18C14.228,53.483 14.207,53.841 14.207,54.255C14.207,55.744 14.589,56.489 15.352,56.489C15.484,56.489 15.645,56.447 15.832,56.364L15.832,57.11C15.637,57.219 15.418,57.274 15.176,57.274C13.954,57.274 13.344,56.277 13.344,54.282C13.344,53.204 13.492,52.402 13.789,51.876C14.089,51.35 14.546,51.087 15.16,51.087C15.387,51.087 15.611,51.147 15.832,51.266L15.832,51.266Z" style="fill:rgb(158,161,168);fill-rule:nonzero;"/>
            <path id="path1163" d="M16.031,51.169L16.832,51.169L17.195,53.395L17.258,53.798L17.387,54.673C17.408,54.821 17.426,54.956 17.441,55.079C17.46,55.201 17.475,55.312 17.488,55.411L17.527,55.708C17.535,55.648 17.542,55.595 17.547,55.548C17.552,55.501 17.557,55.462 17.562,55.43L17.668,54.731L17.805,53.813C17.818,53.73 17.829,53.653 17.84,53.583C17.853,53.512 17.865,53.45 17.875,53.395L18.266,51.169L19.023,51.169L17.84,57.2L17.195,57.2L16.031,51.169Z" style="fill:rgb(158,161,168);fill-rule:nonzero;"/>
        </g>
        <g id="text1026" transform="matrix(0.913565,0,0,1.09461,0,0)">
            <path id="path1032" d="M13.533,16.251L8.322,16.251L8.322,5.232L11.299,5.232L11.299,13.604L13.533,13.604L13.533,16.251Z" style="fill:rgb(158,161,168);fill-rule:nonzero;"/>
            <path id="path1034" d="M17.408,16.251L14.432,16.251L14.432,5.232L19.692,5.232L19.692,7.822L17.408,7.822L17.408,9.428L19.535,9.428L19.535,11.919L17.408,11.919L17.408,16.251Z" style="fill:rgb(158,161,168);fill-rule:nonzero;"/>
            <path id="path1036" d="M28.956,10.777C28.956,12.457 28.573,13.822 27.807,14.874C27.046,15.921 26.054,16.444 24.831,16.444C23.746,16.444 22.816,16.042 22.04,15.238C21.065,14.22 20.577,12.692 20.577,10.656C20.577,8.705 21.086,7.213 22.104,6.181C22.861,5.415 23.758,5.032 24.795,5.032C26.066,5.032 27.077,5.55 27.828,6.588C28.58,7.625 28.956,9.021 28.956,10.777ZM25.866,10.799C25.866,8.805 25.514,7.808 24.809,7.808C24.457,7.808 24.177,8.07 23.967,8.593C23.763,9.079 23.66,9.792 23.66,10.734C23.66,11.662 23.755,12.383 23.946,12.897C24.141,13.406 24.41,13.661 24.752,13.661C25.104,13.661 25.376,13.408 25.566,12.904C25.766,12.4 25.866,11.698 25.866,10.799L25.866,10.799Z" style="fill:rgb(158,161,168);fill-rule:nonzero;"/>
            <path id="path1038" d="M41.56,16.251L38.449,16.251L38.227,11.227L38.135,9.221C38.101,9.607 38.063,9.975 38.02,10.328C37.978,10.675 37.925,11.013 37.863,11.341L36.928,16.251L34.502,16.251L33.702,11.334C33.655,11.048 33.591,10.558 33.51,9.864C33.5,9.759 33.479,9.545 33.445,9.221L33.374,11.255L33.11,16.251L29.941,16.251L31.226,5.232L34.93,5.232L35.551,8.943C35.603,9.247 35.648,9.578 35.687,9.935C35.729,10.292 35.767,10.68 35.801,11.098C35.863,10.399 35.948,9.773 36.058,9.221L36.814,5.232L40.49,5.232L41.56,16.251Z" style="fill:rgb(158,161,168);fill-rule:nonzero;"/>
            <path id="path1040" d="M47.392,5.232L50.368,5.232L50.368,13.025C50.368,13.677 50.266,14.205 50.061,14.61C49.861,15.033 49.528,15.416 49.062,15.759C48.434,16.216 47.67,16.444 46.771,16.444C45.752,16.444 44.898,16.192 44.208,15.688C43.333,15.045 42.895,14.018 42.895,12.604L42.895,5.232L45.871,5.232L45.871,12.34C45.871,12.821 45.928,13.161 46.043,13.361C46.162,13.561 46.359,13.661 46.635,13.661C46.921,13.661 47.118,13.568 47.227,13.382C47.337,13.187 47.392,12.842 47.392,12.347L47.392,5.232Z" style="fill:rgb(158,161,168);fill-rule:nonzero;"/>
            <path id="path1042" d="M57.127,16.251L51.917,16.251L51.917,5.232L54.893,5.232L54.893,13.604L57.127,13.604L57.127,16.251Z" style="fill:rgb(158,161,168);fill-rule:nonzero;"/>
            <path id="path1044" d="M61.559,16.251L58.583,16.251L58.583,7.872L56.941,7.872L56.941,5.232L63.265,5.232L63.265,7.872L61.559,7.872L61.559,16.251Z" style="fill:rgb(158,161,168);fill-rule:nonzero;"/>
            <rect id="path1046" x="64.05" y="5.232" width="2.976" height="11.02" style="fill:rgb(158,161,168);fill-rule:nonzero;"/>
            <path id="path1048" d="M71.537,16.251L68.561,16.251L68.561,5.232L71.444,5.232C72.881,5.232 73.947,5.524 74.642,6.109C75.46,6.799 75.869,7.758 75.869,8.986C75.869,10.323 75.434,11.32 74.563,11.976C73.968,12.419 73.114,12.64 72.001,12.64L71.537,12.64L71.537,16.251ZM71.537,10.163L71.672,10.171C72.034,10.171 72.322,10.061 72.536,9.842C72.75,9.619 72.857,9.314 72.857,8.929C72.857,8.548 72.753,8.239 72.543,8.001C72.334,7.758 72.067,7.637 71.744,7.637L71.537,7.637L71.537,10.163Z" style="fill:rgb(158,161,168);fill-rule:nonzero;"/>
            <path id="path1050" d="M84.298,16.251L81.322,16.251L81.322,11.819L79.902,11.819L79.902,16.251L76.925,16.251L76.925,5.232L79.902,5.232L79.902,9.129L81.322,9.129L81.322,5.232L84.298,5.232L84.298,16.251Z" style="fill:rgb(158,161,168);fill-rule:nonzero;"/>
            <path id="path1052" d="M93.769,16.251L90.693,16.251L90.472,14.853L88.466,14.853L88.224,16.251L85.148,16.251L87.795,5.232L91.435,5.232L93.769,16.251ZM90.122,12.49L89.929,11.205C89.925,11.201 89.915,11.136 89.901,11.013C89.891,10.908 89.841,10.494 89.751,9.771C89.741,9.69 89.729,9.581 89.715,9.443C89.701,9.3 89.682,9.121 89.658,8.907L89.565,7.865C89.556,7.965 89.542,8.077 89.523,8.201C89.508,8.324 89.492,8.46 89.473,8.607C89.439,8.902 89.416,9.107 89.401,9.221C89.387,9.335 89.377,9.404 89.373,9.428L89.166,10.763L88.866,12.49L90.122,12.49Z" style="fill:rgb(158,161,168);fill-rule:nonzero;"/>
            <path id="path1054" d="M94.39,15.98L94.39,12.519C94.976,13.318 95.608,13.718 96.289,13.718C96.546,13.718 96.755,13.651 96.917,13.518C97.079,13.38 97.159,13.209 97.159,13.004C97.159,12.709 96.983,12.421 96.631,12.14L96.146,11.762C95.822,11.519 95.546,11.279 95.318,11.041C95.09,10.799 94.904,10.551 94.761,10.299C94.619,10.042 94.514,9.778 94.447,9.507C94.381,9.236 94.347,8.95 94.347,8.65C94.347,8.136 94.466,7.599 94.704,7.037C94.823,6.776 94.961,6.538 95.118,6.324C95.275,6.105 95.456,5.912 95.661,5.745C96.222,5.27 96.9,5.032 97.695,5.032C98.404,5.032 99.117,5.22 99.836,5.596L99.836,8.964C99.593,8.588 99.317,8.293 99.008,8.079C98.699,7.86 98.394,7.751 98.094,7.751C97.866,7.751 97.678,7.818 97.531,7.951C97.378,8.079 97.302,8.234 97.302,8.415C97.302,8.71 97.504,9.002 97.909,9.293L98.38,9.642C99.008,10.094 99.458,10.558 99.729,11.034C100.005,11.51 100.143,12.067 100.143,12.704C100.143,13.789 99.812,14.684 99.151,15.388C98.489,16.092 97.652,16.444 96.638,16.444C95.939,16.444 95.19,16.29 94.39,15.98L94.39,15.98Z" style="fill:rgb(158,161,168);fill-rule:nonzero;"/>
            <path id="path1056" d="M101.306,16.251L101.306,5.232L106.838,5.232L106.838,7.822L104.282,7.822L104.282,9.428L106.573,9.428L106.573,11.919L104.282,11.919L104.282,13.604L106.838,13.604L106.838,16.251L101.306,16.251Z" style="fill:rgb(158,161,168);fill-rule:nonzero;"/>
        </g>
        <g id="text1010">
            <path id="path1013" d="M9.979,80.865L13.505,80.865L13.505,81.813L12.292,81.813L12.292,88.906L11.229,88.906L11.229,81.813L9.979,81.813L9.979,80.865Z" style="fill:rgb(158,161,168);fill-rule:nonzero;"/>
            <path id="path1015" d="M15.099,80.865L15.943,80.865L17.667,88.906L16.594,88.906L16.292,87.339L14.698,87.339L14.391,88.906L13.349,88.906L15.099,80.865ZM16.135,86.5L15.896,85.219C15.736,84.347 15.606,83.417 15.505,82.427C15.457,82.91 15.394,83.399 15.318,83.896C15.241,84.389 15.151,84.913 15.047,85.469L14.849,86.5L16.135,86.5Z" style="fill:rgb(158,161,168);fill-rule:nonzero;"/>
            <path id="path1017" d="M18.307,80.865L19.734,80.865C20.422,80.865 20.922,81.038 21.234,81.385C21.547,81.736 21.703,82.292 21.703,83.052C21.703,84.122 21.389,84.813 20.76,85.125C20.444,85.267 19.988,85.339 19.391,85.339L19.391,88.906L18.307,88.906L18.307,80.865ZM19.391,84.411C19.839,84.411 20.148,84.321 20.318,84.141C20.491,83.957 20.578,83.63 20.578,83.161C20.578,82.682 20.495,82.332 20.328,82.109C20.161,81.887 19.899,81.776 19.542,81.776L19.391,81.776L19.391,84.411Z" style="fill:rgb(158,161,168);fill-rule:nonzero;"/>
            <path id="path1019" d="M27.427,81.031L27.427,82.089C27.097,81.852 26.8,81.734 26.536,81.734C26.252,81.734 26.019,81.835 25.839,82.036C25.658,82.227 25.568,82.483 25.568,82.802C25.568,83.083 25.632,83.325 25.76,83.526C25.826,83.634 25.934,83.773 26.083,83.943C26.236,84.113 26.432,84.318 26.672,84.557C27.113,85.005 27.413,85.392 27.573,85.719C27.733,86.035 27.812,86.422 27.812,86.88C27.812,87.502 27.637,88.014 27.286,88.417C26.936,88.809 26.486,89.005 25.937,89.005C25.476,89.005 25.082,88.878 24.755,88.625L24.755,87.552C25.141,87.833 25.491,87.974 25.807,87.974C26.102,87.974 26.333,87.877 26.5,87.682C26.667,87.484 26.75,87.217 26.75,86.88C26.75,86.589 26.686,86.326 26.557,86.094C26.491,85.983 26.399,85.856 26.281,85.714C26.163,85.568 26.016,85.406 25.839,85.229C25.564,84.958 25.337,84.719 25.156,84.51C24.976,84.302 24.842,84.12 24.755,83.964C24.589,83.658 24.505,83.273 24.505,82.807C24.505,82.179 24.668,81.681 24.995,81.313C25.325,80.941 25.767,80.755 26.323,80.755C26.708,80.755 27.076,80.847 27.427,81.031L27.427,81.031Z" style="fill:rgb(158,161,168);fill-rule:nonzero;"/>
            <path id="path1021" d="M28.188,80.865L29.333,80.865L29.865,82.615C29.882,82.667 29.899,82.724 29.917,82.786C29.934,82.849 29.955,82.917 29.979,82.99C30.177,83.621 30.312,84.153 30.385,84.583C30.448,84.153 30.5,83.852 30.542,83.682L30.708,82.964L30.771,82.682L31.219,80.865L32.349,80.865L30.948,85.448L30.948,88.906L29.865,88.906L29.865,85.448L28.188,80.865Z" style="fill:rgb(158,161,168);fill-rule:nonzero;"/>
            <path id="path1037" d="M32.953,80.865L33.964,80.865L35.042,84.073C35.354,84.979 35.63,85.946 35.87,86.974C35.783,86.352 35.719,85.79 35.677,85.286C35.635,84.783 35.615,84.309 35.615,83.865L35.615,80.865L36.703,80.865L36.703,88.906L35.688,88.906L34.474,85.286C34.363,84.95 34.257,84.604 34.156,84.25C34.059,83.896 33.969,83.524 33.885,83.135C33.878,83.087 33.866,83.028 33.849,82.958C33.835,82.889 33.818,82.809 33.797,82.719C33.807,82.809 33.816,82.887 33.823,82.953C33.83,83.016 33.835,83.069 33.839,83.115L33.896,83.932L33.953,84.927C33.957,84.983 33.958,85.05 33.958,85.13C33.962,85.21 33.964,85.3 33.964,85.401L34.021,88.906L32.953,88.906L32.953,80.865Z" style="fill:rgb(158,161,168);fill-rule:nonzero;"/>
            <path id="path1039" d="M41.109,80.995L41.109,81.969C40.832,81.833 40.599,81.766 40.411,81.766C40.155,81.766 39.934,81.83 39.75,81.958C39.566,82.083 39.413,82.278 39.292,82.542C39.174,82.806 39.085,83.141 39.026,83.547C38.97,83.95 38.943,84.427 38.943,84.979C38.943,86.965 39.451,87.958 40.469,87.958C40.646,87.958 40.859,87.903 41.109,87.792L41.109,88.786C40.849,88.932 40.557,89.005 40.234,89.005C38.606,89.005 37.792,87.675 37.792,85.016C37.792,83.578 37.99,82.509 38.385,81.807C38.785,81.106 39.394,80.755 40.214,80.755C40.516,80.755 40.814,80.835 41.109,80.995L41.109,80.995Z" style="fill:rgb(158,161,168);fill-rule:nonzero;"/>
        </g>
        <g id="text1025" transform="matrix(1.01592,0,0,0.984333,0,0)">
            <path id="path1041" d="M7.875,204.961L9.362,204.961C10.079,204.961 10.6,205.142 10.925,205.504C11.251,205.869 11.414,206.448 11.414,207.241C11.414,208.356 11.086,209.076 10.431,209.401C10.102,209.55 9.626,209.624 9.004,209.624L9.004,213.342L7.875,213.342L7.875,204.961ZM9.004,208.658C9.471,208.658 9.793,208.564 9.97,208.375C10.151,208.184 10.241,207.844 10.241,207.355C10.241,206.856 10.155,206.49 9.981,206.258C9.807,206.027 9.534,205.911 9.161,205.911L9.004,205.911L9.004,208.658Z" style="fill:rgb(158,161,168);fill-rule:nonzero;"/>
            <path id="path1043" d="M11.653,204.961L12.744,204.961L13.314,208.853L13.406,209.429C13.45,209.74 13.482,210.024 13.504,210.281L13.564,210.992C13.567,211.01 13.571,211.043 13.574,211.09C13.578,211.137 13.583,211.196 13.591,211.269L13.618,210.997C13.661,210.523 13.706,210.087 13.754,209.689C13.804,209.291 13.858,208.924 13.916,208.587L14.519,204.961L15.387,204.961L15.952,208.484C16.035,209.005 16.104,209.488 16.158,209.933C16.216,210.379 16.263,210.804 16.299,211.209C16.336,210.782 16.375,210.369 16.419,209.971C16.466,209.573 16.515,209.182 16.565,208.799L16.647,208.24L17.13,204.961L18.21,204.961L16.728,213.342L15.849,213.342L15.257,209.722C15.254,209.707 15.244,209.648 15.23,209.543C15.216,209.438 15.194,209.287 15.165,209.092L15.051,208.256C15.044,208.191 15.031,208.093 15.013,207.963C14.998,207.833 14.982,207.668 14.964,207.469L14.937,207.122C14.93,207.205 14.922,207.277 14.915,207.339C14.908,207.4 14.903,207.451 14.899,207.491C14.881,207.729 14.865,207.916 14.85,208.05C14.839,208.18 14.832,208.26 14.828,208.289L14.714,209.092C14.689,209.277 14.669,209.421 14.655,209.526C14.64,209.631 14.629,209.696 14.622,209.722L14.009,213.342L13.102,213.342L11.653,204.961Z" style="fill:rgb(158,161,168);fill-rule:nonzero;"/>
            <rect id="path1045" x="18.368" y="210.042" width="1.976" height="0.847" style="fill:rgb(158,161,168);fill-rule:nonzero;"/>
            <path id="path1047" d="M20.989,204.961L22.477,204.961C23.193,204.961 23.714,205.142 24.04,205.504C24.366,205.869 24.529,206.448 24.529,207.241C24.529,208.356 24.201,209.076 23.546,209.401C23.217,209.55 22.741,209.624 22.119,209.624L22.119,213.342L20.989,213.342L20.989,204.961ZM22.119,208.658C22.585,208.658 22.907,208.564 23.085,208.375C23.266,208.184 23.356,207.844 23.356,207.355C23.356,206.856 23.269,206.49 23.096,206.258C22.922,206.027 22.649,205.911 22.276,205.911L22.119,205.911L22.119,208.658Z" style="fill:rgb(158,161,168);fill-rule:nonzero;"/>
            <path id="path1049" d="M24.768,204.961L25.859,204.961L26.429,208.853L26.521,209.429C26.564,209.74 26.597,210.024 26.619,210.281L26.678,210.992C26.682,211.01 26.686,211.043 26.689,211.09C26.693,211.137 26.698,211.196 26.705,211.269L26.733,210.997C26.776,210.523 26.821,210.087 26.868,209.689C26.919,209.291 26.973,208.924 27.031,208.587L27.634,204.961L28.502,204.961L29.067,208.484C29.15,209.005 29.219,209.488 29.273,209.933C29.331,210.379 29.378,210.804 29.414,211.209C29.45,210.782 29.49,210.369 29.534,209.971C29.581,209.573 29.63,209.182 29.68,208.799L29.762,208.24L30.245,204.961L31.325,204.961L29.843,213.342L28.964,213.342L28.372,209.722C28.368,209.707 28.359,209.648 28.345,209.543C28.33,209.438 28.309,209.287 28.28,209.092L28.166,208.256C28.158,208.191 28.146,208.093 28.128,207.963C28.113,207.833 28.097,207.668 28.079,207.469L28.052,207.122C28.044,207.205 28.037,207.277 28.03,207.339C28.023,207.4 28.017,207.451 28.014,207.491C27.996,207.729 27.979,207.916 27.965,208.05C27.954,208.18 27.947,208.26 27.943,208.289L27.829,209.092C27.804,209.277 27.784,209.421 27.769,209.526C27.755,209.631 27.744,209.696 27.737,209.722L27.123,213.342L26.217,213.342L24.768,204.961Z" style="fill:rgb(158,161,168);fill-rule:nonzero;"/>
            <path id="path1051" d="M32.394,204.961L33.361,204.961L34.099,208.381C34.189,208.808 34.271,209.237 34.343,209.667C34.419,210.094 34.488,210.543 34.549,211.014C34.557,210.952 34.562,210.905 34.566,210.873C34.569,210.836 34.573,210.811 34.577,210.796L34.734,209.836L34.875,208.924L35,208.321L35.657,204.961L36.634,204.961L37.405,213.342L36.324,213.342L36.134,210.498C36.127,210.353 36.12,210.228 36.113,210.123C36.109,210.018 36.107,209.932 36.107,209.863L36.058,208.739L36.031,207.708C36.031,207.7 36.029,207.686 36.026,207.664C36.026,207.639 36.024,207.606 36.02,207.567L35.993,207.735C35.964,207.934 35.937,208.108 35.912,208.256C35.89,208.404 35.87,208.529 35.852,208.631L35.711,209.396L35.657,209.684L34.951,213.342L34.191,213.342L33.529,210.183C33.438,209.767 33.357,209.345 33.285,208.918C33.216,208.488 33.152,208.037 33.095,207.567L32.769,213.342L31.705,213.342L32.394,204.961Z" style="fill:rgb(158,161,168);fill-rule:nonzero;"/>
        </g>
    </g>
</svg>
