<?xml version="1.0" encoding="UTF-8" standalone="no"?>
<!DOCTYPE svg PUBLIC "-//W3C//DTD SVG 1.1//EN" "http://www.w3.org/Graphics/SVG/1.1/DTD/svg11.dtd">
<svg width="100%" height="100%" viewBox="0 0 90 380" version="1.1" xmlns="http://www.w3.org/2000/svg" xmlns:xlink="http://www.w3.org/1999/xlink" xml:space="preserve" xmlns:serif="http://www.serif.com/" style="fill-rule:evenodd;clip-rule:evenodd;stroke-linejoin:round;stroke-miterlimit:2;">
    <g id="Layer-2" serif:id="Layer 2">
        <rect id="rect4689" x="0" y="0" width="90" height="380" style="fill:rgb(44,45,48);"/>
        <g id="text989">
        </g>
        <g id="text80" transform="matrix(1.00498,0,0,0.995047,-3.75429e-06,4.99997)">
            <path id="path4726" d="M29.851,371.706L29.851,363.943L31.853,363.943L32.903,366.668C32.96,366.829 33.024,367.013 33.094,367.221C33.168,367.429 33.249,367.668 33.336,367.94L33.552,368.624C33.475,367.95 33.416,367.373 33.376,366.894C33.336,366.415 33.316,366.013 33.316,365.687L33.316,363.943L35.317,363.943L35.317,371.706L33.316,371.706L32.26,368.85C32.149,368.545 32.049,368.26 31.958,367.995C31.871,367.727 31.794,367.472 31.727,367.231C31.77,367.777 31.802,368.253 31.822,368.659C31.843,369.065 31.853,369.42 31.853,369.725L31.853,371.706L29.851,371.706Z" style="fill:rgb(158,161,168);fill-rule:nonzero;"/>
            <path id="path4728" d="M39.887,371.706L37.791,371.706L37.791,368.418L35.865,363.943L38.052,363.943L38.429,365.094C38.503,365.319 38.568,365.535 38.625,365.743C38.686,365.951 38.739,366.15 38.786,366.341C38.863,366.056 38.93,365.811 38.987,365.607C39.044,365.399 39.095,365.232 39.138,365.104L39.52,363.943L41.692,363.943L39.887,368.418L39.887,371.706Z" style="fill:rgb(158,161,168);fill-rule:nonzero;"/>
            <path id="path4730" d="M41.894,371.515L41.894,369.076C42.306,369.639 42.752,369.921 43.231,369.921C43.412,369.921 43.56,369.874 43.673,369.78C43.787,369.683 43.844,369.562 43.844,369.418C43.844,369.21 43.72,369.008 43.472,368.81L43.13,368.543C42.902,368.372 42.708,368.203 42.547,368.035C42.386,367.865 42.256,367.69 42.155,367.513C42.054,367.332 41.981,367.146 41.934,366.954C41.887,366.763 41.863,366.562 41.863,366.351C41.863,365.989 41.947,365.61 42.115,365.215C42.199,365.03 42.296,364.863 42.406,364.712C42.517,364.558 42.644,364.422 42.789,364.305C43.184,363.969 43.662,363.802 44.222,363.802C44.721,363.802 45.224,363.934 45.73,364.199L45.73,366.572C45.559,366.308 45.365,366.1 45.147,365.949C44.929,365.795 44.714,365.718 44.503,365.718C44.342,365.718 44.21,365.765 44.106,365.858C43.999,365.949 43.945,366.058 43.945,366.185C43.945,366.393 44.087,366.599 44.372,366.804L44.704,367.05C45.147,367.368 45.463,367.695 45.655,368.03C45.849,368.366 45.946,368.758 45.946,369.207C45.946,369.971 45.713,370.601 45.247,371.098C44.781,371.594 44.191,371.842 43.477,371.842C42.985,371.842 42.457,371.733 41.894,371.515L41.894,371.515Z" style="fill:rgb(158,161,168);fill-rule:nonzero;"/>
            <path id="path4732" d="M49.576,371.706L47.48,371.706L47.48,365.803L46.323,365.803L46.323,363.943L50.778,363.943L50.778,365.803L49.576,365.803L49.576,371.706Z" style="fill:rgb(158,161,168);fill-rule:nonzero;"/>
            <path id="path4734" d="M56.525,371.706L54.428,371.706L54.428,368.584L53.428,368.584L53.428,371.706L51.331,371.706L51.331,363.943L53.428,363.943L53.428,366.688L54.428,366.688L54.428,363.943L56.525,363.943L56.525,371.706Z" style="fill:rgb(158,161,168);fill-rule:nonzero;"/>
            <rect id="path4736" x="57.606" y="363.943" width="2.097" height="7.763" style="fill:rgb(158,161,168);fill-rule:nonzero;"/>
        </g>
        <g id="text4987">
        </g>
        <g id="g1175" transform="matrix(1,0,0,1,0,-258)">
            <g id="text938" transform="matrix(0.683031,0,0,0.808081,5.83177,176.869)">
                <path id="path963" d="M14.146,128.039L14.146,129.625C13.651,129.271 13.205,129.094 12.81,129.094C12.382,129.094 12.034,129.245 11.763,129.547C11.492,129.833 11.356,130.216 11.356,130.695C11.356,131.117 11.453,131.479 11.646,131.781C11.744,131.943 11.906,132.151 12.13,132.406C12.359,132.661 12.653,132.969 13.013,133.328C13.674,134 14.125,134.581 14.364,135.07C14.604,135.544 14.724,136.125 14.724,136.812C14.724,137.745 14.461,138.513 13.935,139.117C13.409,139.706 12.734,140 11.911,140C11.218,140 10.627,139.81 10.138,139.43L10.138,137.82C10.716,138.242 11.242,138.453 11.716,138.453C12.159,138.453 12.505,138.307 12.755,138.016C13.005,137.719 13.13,137.318 13.13,136.812C13.13,136.375 13.034,135.982 12.841,135.633C12.742,135.466 12.604,135.276 12.427,135.062C12.25,134.844 12.028,134.602 11.763,134.336C11.351,133.93 11.01,133.57 10.739,133.258C10.468,132.945 10.268,132.672 10.138,132.437C9.888,131.979 9.763,131.401 9.763,130.703C9.763,129.76 10.007,129.013 10.497,128.461C10.992,127.904 11.656,127.625 12.489,127.625C13.067,127.625 13.619,127.763 14.146,128.039Z" style="fill:rgb(158,161,168);fill-rule:nonzero;"/>
                <path id="path965" d="M15.317,127.789L20.606,127.789L20.606,129.211L18.786,129.211L18.786,139.852L17.192,139.852L17.192,129.211L15.317,129.211L15.317,127.789Z" style="fill:rgb(158,161,168);fill-rule:nonzero;"/>
                <path id="path967" d="M22.997,127.789L24.263,127.789L26.849,139.852L25.239,139.852L24.786,137.5L22.396,137.5L21.935,139.852L20.372,139.852L22.997,127.789ZM24.552,136.242L24.192,134.32C23.953,133.013 23.757,131.617 23.606,130.133C23.534,130.857 23.44,131.591 23.325,132.336C23.211,133.076 23.075,133.862 22.919,134.695L22.622,136.242L24.552,136.242Z" style="fill:rgb(158,161,168);fill-rule:nonzero;"/>
                <path id="path969" d="M27.81,127.789L29.95,127.789C30.836,127.789 31.494,128 31.927,128.422C32.474,128.969 32.747,129.805 32.747,130.93C32.747,131.794 32.601,132.49 32.31,133.016C32.023,133.536 31.612,133.859 31.075,133.984L33.294,139.852L31.646,139.852L29.435,133.945L29.435,139.852L27.81,139.852L27.81,127.789ZM29.435,133.133C30.065,133.133 30.51,132.987 30.771,132.695C31.031,132.404 31.161,131.911 31.161,131.219C31.161,130.844 31.132,130.523 31.075,130.258C31.023,129.992 30.937,129.776 30.817,129.609C30.703,129.443 30.552,129.32 30.364,129.242C30.182,129.164 29.963,129.125 29.708,129.125L29.435,129.125L29.435,133.133Z" style="fill:rgb(158,161,168);fill-rule:nonzero;"/>
                <path id="path971" d="M33.755,127.789L39.044,127.789L39.044,129.211L37.224,129.211L37.224,139.852L35.63,139.852L35.63,129.211L33.755,129.211L33.755,127.789Z" style="fill:rgb(158,161,168);fill-rule:nonzero;"/>
            </g>
            <g id="text942" transform="matrix(0.812698,0,0,0.808081,45.769,144.545)">
                <path id="path954" d="M18.817,168.039L18.817,169.625C18.323,169.271 17.877,169.094 17.481,169.094C17.054,169.094 16.705,169.245 16.435,169.547C16.164,169.833 16.028,170.216 16.028,170.695C16.028,171.117 16.125,171.479 16.317,171.781C16.416,171.943 16.578,172.151 16.802,172.406C17.031,172.661 17.325,172.969 17.685,173.328C18.346,174 18.797,174.581 19.036,175.07C19.276,175.544 19.396,176.125 19.396,176.812C19.396,177.745 19.132,178.513 18.606,179.117C18.08,179.706 17.406,180 16.583,180C15.89,180 15.299,179.81 14.81,179.43L14.81,177.82C15.388,178.242 15.914,178.453 16.388,178.453C16.83,178.453 17.177,178.307 17.427,178.016C17.677,177.719 17.802,177.318 17.802,176.812C17.802,176.375 17.705,175.982 17.513,175.633C17.414,175.466 17.276,175.276 17.099,175.062C16.922,174.844 16.7,174.602 16.435,174.336C16.023,173.93 15.682,173.57 15.411,173.258C15.14,172.945 14.94,172.672 14.81,172.437C14.56,171.979 14.435,171.401 14.435,170.703C14.435,169.76 14.679,169.013 15.169,168.461C15.664,167.904 16.328,167.625 17.161,167.625C17.739,167.625 18.291,167.763 18.817,168.039Z" style="fill:rgb(158,161,168);fill-rule:nonzero;"/>
                <path id="path956" d="M19.989,167.789L25.278,167.789L25.278,169.211L23.458,169.211L23.458,179.852L21.864,179.852L21.864,169.211L19.989,169.211L19.989,167.789Z" style="fill:rgb(158,161,168);fill-rule:nonzero;"/>
                <path id="path958" d="M32.333,174.117C32.333,176.247 32.096,177.76 31.622,178.656C31.148,179.552 30.354,180 29.239,180C28.067,180 27.242,179.518 26.763,178.555C26.289,177.612 26.052,175.938 26.052,173.531C26.052,171.385 26.286,169.867 26.755,168.977C27.229,168.081 28.031,167.633 29.161,167.633C30.172,167.633 30.922,167.979 31.411,168.672C31.734,169.135 31.968,169.794 32.114,170.648C32.26,171.44 32.333,172.596 32.333,174.117L32.333,174.117ZM30.63,174.289C30.63,172.201 30.536,170.815 30.349,170.133C30.161,169.445 29.778,169.102 29.2,169.102C28.622,169.102 28.237,169.417 28.044,170.047C27.856,170.682 27.763,171.958 27.763,173.875C27.763,175.641 27.862,176.865 28.06,177.547C28.263,178.193 28.643,178.516 29.2,178.516C29.747,178.516 30.122,178.214 30.325,177.609C30.528,177.01 30.63,175.904 30.63,174.289L30.63,174.289Z" style="fill:rgb(158,161,168);fill-rule:nonzero;"/>
                <path id="path960" d="M33.95,167.789L36.091,167.789C37.122,167.789 37.872,168.049 38.341,168.57C38.81,169.096 39.044,169.93 39.044,171.07C39.044,172.674 38.573,173.711 37.63,174.18C37.156,174.393 36.471,174.5 35.575,174.5L35.575,179.852L33.95,179.852L33.95,167.789ZM35.575,173.109C36.247,173.109 36.711,172.974 36.966,172.703C37.226,172.427 37.356,171.937 37.356,171.234C37.356,170.516 37.231,169.99 36.981,169.656C36.731,169.323 36.338,169.156 35.802,169.156L35.575,169.156L35.575,173.109Z" style="fill:rgb(158,161,168);fill-rule:nonzero;"/>
            </g>
        </g>
        <g id="text918" transform="matrix(1,0,0,1.21212,12.6021,-258.706)">
            <path id="path924" d="M22.424,301.816L23.268,301.816L24.992,309.858L23.919,309.858L23.617,308.29L22.023,308.29L21.716,309.858L20.674,309.858L22.424,301.816ZM23.461,307.452L23.221,306.171C23.062,305.299 22.931,304.369 22.831,303.379C22.782,303.862 22.72,304.351 22.643,304.848C22.567,305.341 22.477,305.865 22.372,306.421L22.174,307.452L23.461,307.452Z" style="fill:rgb(158,161,168);fill-rule:nonzero;"/>
            <path id="path926" d="M25.633,301.816L26.695,301.816L26.695,307.499C26.695,308.079 26.747,308.464 26.852,308.655C26.959,308.846 27.171,308.941 27.487,308.941C27.803,308.941 28.011,308.858 28.112,308.691C28.216,308.521 28.268,308.176 28.268,307.655L28.268,301.816L29.331,301.816L29.331,307.655C29.331,308.53 29.197,309.122 28.93,309.431C28.61,309.782 28.122,309.957 27.466,309.957C26.744,309.957 26.235,309.731 25.94,309.28C25.735,308.971 25.633,308.377 25.633,307.499L25.633,301.816Z" style="fill:rgb(158,161,168);fill-rule:nonzero;"/>
            <path id="path928" d="M29.93,301.816L33.456,301.816L33.456,302.764L32.242,302.764L32.242,309.858L31.18,309.858L31.18,302.764L29.93,302.764L29.93,301.816Z" style="fill:rgb(158,161,168);fill-rule:nonzero;"/>
            <path id="path930" d="M38.159,306.035C38.159,307.455 38.001,308.464 37.685,309.061C37.369,309.659 36.839,309.957 36.096,309.957C35.315,309.957 34.765,309.636 34.445,308.994C34.129,308.365 33.971,307.249 33.971,305.645C33.971,304.214 34.128,303.202 34.44,302.608C34.756,302.011 35.291,301.712 36.044,301.712C36.718,301.712 37.218,301.943 37.544,302.405C37.76,302.714 37.916,303.153 38.013,303.723C38.11,304.251 38.159,305.021 38.159,306.035L38.159,306.035ZM37.023,306.15C37.023,304.757 36.961,303.834 36.836,303.379C36.711,302.921 36.456,302.692 36.07,302.692C35.685,302.692 35.428,302.902 35.299,303.322C35.174,303.745 35.112,304.596 35.112,305.874C35.112,307.051 35.178,307.867 35.31,308.322C35.445,308.752 35.699,308.968 36.07,308.968C36.435,308.968 36.685,308.766 36.82,308.363C36.956,307.964 37.023,307.226 37.023,306.15L37.023,306.15Z" style="fill:rgb(158,161,168);fill-rule:nonzero;"/>
            <path id="path932" d="M41.919,301.983L41.919,303.04C41.589,302.804 41.293,302.686 41.029,302.686C40.744,302.686 40.511,302.787 40.331,302.988C40.15,303.179 40.06,303.435 40.06,303.754C40.06,304.035 40.124,304.277 40.253,304.478C40.319,304.586 40.426,304.724 40.576,304.895C40.728,305.065 40.924,305.27 41.164,305.509C41.605,305.957 41.905,306.344 42.065,306.671C42.225,306.987 42.305,307.374 42.305,307.832C42.305,308.454 42.129,308.966 41.779,309.369C41.428,309.761 40.978,309.957 40.43,309.957C39.968,309.957 39.574,309.83 39.247,309.577L39.247,308.504C39.633,308.785 39.984,308.926 40.299,308.926C40.595,308.926 40.826,308.829 40.992,308.634C41.159,308.436 41.242,308.169 41.242,307.832C41.242,307.54 41.178,307.278 41.049,307.046C40.984,306.935 40.892,306.808 40.773,306.665C40.655,306.52 40.508,306.358 40.331,306.181C40.056,305.91 39.829,305.671 39.648,305.462C39.468,305.254 39.334,305.072 39.247,304.915C39.081,304.61 38.997,304.224 38.997,303.759C38.997,303.131 39.161,302.632 39.487,302.264C39.817,301.893 40.26,301.707 40.815,301.707C41.201,301.707 41.569,301.799 41.919,301.983L41.919,301.983Z" style="fill:rgb(158,161,168);fill-rule:nonzero;"/>
            <path id="path934" d="M44.487,301.816L45.331,301.816L47.055,309.858L45.982,309.858L45.68,308.29L44.086,308.29L43.779,309.858L42.737,309.858L44.487,301.816ZM45.523,307.452L45.284,306.171C45.124,305.299 44.994,304.369 44.893,303.379C44.845,303.862 44.782,304.351 44.706,304.848C44.629,305.341 44.539,305.865 44.435,306.421L44.237,307.452L45.523,307.452Z" style="fill:rgb(158,161,168);fill-rule:nonzero;"/>
            <path id="path936" d="M46.867,301.816L47.935,301.816L48.419,304.785L48.503,305.322L48.675,306.488C48.702,306.686 48.727,306.867 48.747,307.03C48.772,307.193 48.792,307.341 48.81,307.473L48.862,307.869C48.872,307.789 48.881,307.718 48.888,307.655C48.895,307.593 48.902,307.54 48.909,307.499L49.05,306.566L49.232,305.343C49.249,305.231 49.265,305.129 49.279,305.035C49.296,304.942 49.312,304.858 49.326,304.785L49.846,301.816L50.857,301.816L49.279,309.858L48.419,309.858L46.867,301.816Z" style="fill:rgb(158,161,168);fill-rule:nonzero;"/>
            <path id="path938" d="M51.445,301.816L54.326,301.816L54.326,302.733L52.529,302.733L52.529,305.28L54.122,305.28L54.122,306.197L52.529,306.197L52.529,308.941L54.326,308.941L54.326,309.858L51.445,309.858L51.445,301.816Z" style="fill:rgb(158,161,168);fill-rule:nonzero;"/>
        </g>
        <g id="text1321">
        </g>
        <g id="text1142">
            <path id="path1366" d="M28.254,17.789L22.551,17.789L22.551,5.727L25.809,5.727L25.809,14.891L28.254,14.891L28.254,17.789Z" style="fill:rgb(158,161,168);fill-rule:nonzero;"/>
            <path id="path1368" d="M38.074,11.797C38.074,13.635 37.655,15.13 36.816,16.281C35.983,17.427 34.897,18 33.559,18C32.371,18 31.353,17.56 30.504,16.68C29.436,15.565 28.902,13.893 28.902,11.664C28.902,9.529 29.46,7.896 30.574,6.766C31.402,5.927 32.384,5.508 33.52,5.508C34.91,5.508 36.017,6.076 36.84,7.211C37.663,8.346 38.074,9.875 38.074,11.797ZM34.691,11.82C34.691,9.638 34.306,8.547 33.535,8.547C33.15,8.547 32.842,8.833 32.613,9.406C32.389,9.937 32.277,10.719 32.277,11.75C32.277,12.766 32.382,13.555 32.59,14.117C32.803,14.674 33.098,14.953 33.473,14.953C33.858,14.953 34.155,14.677 34.363,14.125C34.582,13.573 34.691,12.805 34.691,11.82L34.691,11.82Z" style="fill:rgb(158,161,168);fill-rule:nonzero;"/>
            <path id="path1370" d="M43.652,10.812L48.199,10.812L48.199,11.312C48.199,13.635 47.853,15.307 47.16,16.328C46.405,17.443 45.288,18 43.809,18C42.355,18 41.215,17.453 40.387,16.359C39.564,15.255 39.152,13.74 39.152,11.812C39.152,9.859 39.566,8.32 40.395,7.195C41.223,6.07 42.355,5.508 43.793,5.508C45.699,5.508 47.082,6.503 47.941,8.492L44.785,9.648C44.738,9.268 44.629,8.969 44.457,8.75C44.29,8.526 44.079,8.414 43.824,8.414C42.928,8.414 42.48,9.646 42.48,12.109C42.48,13.156 42.579,13.917 42.777,14.391C42.975,14.865 43.29,15.102 43.723,15.102C43.895,15.102 44.051,15.06 44.191,14.977C44.332,14.893 44.449,14.776 44.543,14.625C44.642,14.474 44.717,14.292 44.77,14.078C44.827,13.859 44.855,13.617 44.855,13.352L43.652,13.352L43.652,10.812Z" style="fill:rgb(158,161,168);fill-rule:nonzero;"/>
            <path id="path1372" d="M58.02,17.789L54.652,17.789L54.41,16.258L52.215,16.258L51.949,17.789L48.582,17.789L51.48,5.727L55.465,5.727L58.02,17.789ZM54.027,13.672L53.816,12.266C53.811,12.26 53.801,12.19 53.785,12.055C53.775,11.94 53.72,11.487 53.621,10.695C53.611,10.607 53.598,10.487 53.582,10.336C53.566,10.18 53.545,9.984 53.519,9.75L53.418,8.609C53.408,8.719 53.392,8.841 53.371,8.977C53.355,9.112 53.337,9.26 53.316,9.422C53.28,9.745 53.254,9.969 53.238,10.094C53.223,10.219 53.212,10.294 53.207,10.32L52.98,11.781L52.652,13.672L54.027,13.672Z" style="fill:rgb(158,161,168);fill-rule:nonzero;"/>
            <path id="path1374" d="M58.957,17.789L58.957,5.727L62.066,5.727L63.699,9.961C63.788,10.211 63.887,10.497 63.996,10.82C64.111,11.143 64.236,11.516 64.371,11.937L64.707,13C64.587,11.953 64.496,11.057 64.434,10.312C64.371,9.568 64.34,8.943 64.34,8.437L64.34,5.727L67.449,5.727L67.449,17.789L64.34,17.789L62.699,13.352C62.527,12.878 62.371,12.435 62.23,12.023C62.095,11.607 61.975,11.211 61.871,10.836C61.939,11.685 61.988,12.424 62.019,13.055C62.051,13.685 62.066,14.237 62.066,14.711L62.066,17.789L58.957,17.789Z" style="fill:rgb(158,161,168);fill-rule:nonzero;"/>
        </g>
        <g id="text1146" transform="matrix(0.886158,0,0,1.12847,-2.97334e-06,26)">
            <path id="path1346" d="M28.212,115.045L29.412,115.045L29.412,122.937L31.373,122.937L31.373,123.953L28.212,123.953L28.212,115.045Z" style="fill:rgb(158,161,168);fill-rule:nonzero;"/>
            <path id="path1349" d="M36.594,119.718C36.594,121.291 36.419,122.408 36.069,123.07C35.719,123.731 35.133,124.062 34.31,124.062C33.444,124.062 32.835,123.706 32.481,122.995C32.131,122.299 31.956,121.062 31.956,119.285C31.956,117.701 32.129,116.579 32.475,115.922C32.825,115.26 33.417,114.929 34.252,114.929C34.998,114.929 35.552,115.185 35.914,115.697C36.152,116.039 36.325,116.526 36.433,117.156C36.541,117.741 36.594,118.595 36.594,119.718L36.594,119.718ZM35.337,119.845C35.337,118.302 35.267,117.279 35.129,116.776C34.991,116.268 34.708,116.014 34.281,116.014C33.854,116.014 33.569,116.247 33.427,116.712C33.289,117.181 33.219,118.124 33.219,119.539C33.219,120.843 33.292,121.747 33.439,122.251C33.589,122.727 33.869,122.966 34.281,122.966C34.685,122.966 34.962,122.743 35.112,122.297C35.262,121.854 35.337,121.037 35.337,119.845L35.337,119.845Z" style="fill:rgb(158,161,168);fill-rule:nonzero;"/>
            <path id="path1351" d="M39.923,119.268L42.104,119.268L42.104,119.614C42.104,121.349 41.952,122.52 41.648,123.128C41.348,123.751 40.787,124.062 39.964,124.062C39.114,124.062 38.508,123.716 38.146,123.024C37.789,122.331 37.61,121.168 37.61,119.533C37.61,117.664 37.806,116.42 38.198,115.801C38.567,115.22 39.135,114.929 39.9,114.929C40.485,114.929 40.941,115.07 41.268,115.351C41.598,115.635 41.856,116.102 42.041,116.752L40.921,117.22C40.871,116.985 40.816,116.789 40.754,116.631C40.692,116.47 40.625,116.345 40.552,116.256C40.406,116.076 40.187,115.985 39.894,115.985C39.494,115.985 39.221,116.231 39.075,116.724C38.929,117.239 38.856,118.164 38.856,119.499C38.856,120.849 38.931,121.762 39.081,122.239C39.231,122.716 39.514,122.954 39.929,122.954C40.31,122.954 40.577,122.785 40.731,122.447C40.889,122.085 40.968,121.504 40.968,120.704L40.968,120.462L40.968,120.283L39.923,120.283L39.923,119.268Z" style="fill:rgb(158,161,168);fill-rule:nonzero;"/>
            <path id="path1353" d="M45.041,115.045L46.223,115.045L46.76,118.333L46.852,118.927L47.043,120.22C47.073,120.439 47.1,120.639 47.123,120.82C47.15,121.001 47.173,121.164 47.193,121.31L47.25,121.749C47.262,121.66 47.271,121.581 47.279,121.512C47.287,121.443 47.294,121.385 47.302,121.339L47.458,120.306L47.66,118.951C47.679,118.828 47.696,118.714 47.712,118.61C47.731,118.506 47.748,118.414 47.763,118.333L48.34,115.045L49.46,115.045L47.712,123.953L46.76,123.953L45.041,115.045Z" style="fill:rgb(158,161,168);fill-rule:nonzero;"/>
            <path id="path1355" d="M51.173,115.045L52.108,115.045L54.018,123.953L52.829,123.953L52.494,122.216L50.729,122.216L50.389,123.953L49.235,123.953L51.173,115.045ZM52.321,121.287L52.056,119.868C51.879,118.902 51.735,117.872 51.623,116.776C51.569,117.31 51.5,117.852 51.416,118.402C51.331,118.949 51.231,119.529 51.116,120.145L50.896,121.287L52.321,121.287Z" style="fill:rgb(158,161,168);fill-rule:nonzero;"/>
            <path id="path1357" d="M54.727,115.045L55.927,115.045L55.927,122.937L57.889,122.937L57.889,123.953L54.727,123.953L54.727,115.045Z" style="fill:rgb(158,161,168);fill-rule:nonzero;"/>
            <path id="path1359" d="M58.743,115.045L59.92,115.045L59.92,121.339C59.92,121.981 59.977,122.408 60.093,122.62C60.212,122.831 60.446,122.937 60.796,122.937C61.146,122.937 61.377,122.845 61.489,122.66C61.604,122.472 61.662,122.089 61.662,121.512L61.662,115.045L62.839,115.045L62.839,121.512C62.839,122.481 62.691,123.137 62.395,123.479C62.041,123.868 61.5,124.062 60.773,124.062C59.973,124.062 59.41,123.812 59.083,123.312C58.856,122.97 58.743,122.312 58.743,121.339L58.743,115.045Z" style="fill:rgb(158,161,168);fill-rule:nonzero;"/>
            <path id="path1361" d="M64.212,115.045L67.402,115.045L67.402,116.06L65.412,116.06L65.412,118.881L67.177,118.881L67.177,119.897L65.412,119.897L65.412,122.937L67.402,122.937L67.402,123.953L64.212,123.953L64.212,115.045Z" style="fill:rgb(158,161,168);fill-rule:nonzero;"/>
            <path id="path1363" d="M71.32,115.045L73.35,115.045L73.35,123.953L72.202,123.953L72.202,116.066L71.32,116.066L71.32,115.045Z" style="fill:rgb(158,161,168);fill-rule:nonzero;"/>
        </g>
        <g id="text1150" transform="matrix(0.872872,0,0,1.14564,-1.45966e-05,11)">
            <path id="path1326" d="M28.652,156.963L29.834,156.963L29.834,164.737L31.767,164.737L31.767,165.738L28.652,165.738L28.652,156.963Z" style="fill:rgb(158,161,168);fill-rule:nonzero;"/>
            <path id="path1328" d="M36.91,161.566C36.91,163.116 36.737,164.217 36.392,164.868C36.048,165.52 35.47,165.846 34.659,165.846C33.807,165.846 33.206,165.495 32.858,164.794C32.513,164.109 32.341,162.891 32.341,161.14C32.341,159.579 32.511,158.475 32.852,157.827C33.197,157.176 33.78,156.85 34.602,156.85C35.337,156.85 35.883,157.102 36.239,157.606C36.474,157.943 36.644,158.422 36.75,159.043C36.856,159.619 36.91,160.46 36.91,161.566L36.91,161.566ZM35.671,161.692C35.671,160.172 35.602,159.165 35.466,158.668C35.33,158.168 35.051,157.918 34.631,157.918C34.21,157.918 33.93,158.147 33.79,158.606C33.653,159.068 33.585,159.996 33.585,161.39C33.585,162.675 33.657,163.565 33.801,164.061C33.949,164.531 34.225,164.766 34.631,164.766C35.029,164.766 35.301,164.546 35.449,164.107C35.597,163.671 35.671,162.866 35.671,161.692L35.671,161.692Z" style="fill:rgb(158,161,168);fill-rule:nonzero;"/>
            <path id="path1330" d="M40.188,161.123L42.337,161.123L42.337,161.464C42.337,163.173 42.187,164.326 41.888,164.925C41.592,165.539 41.039,165.846 40.228,165.846C39.391,165.846 38.794,165.505 38.438,164.823C38.086,164.141 37.91,162.995 37.91,161.385C37.91,159.543 38.103,158.318 38.489,157.708C38.853,157.136 39.412,156.85 40.166,156.85C40.742,156.85 41.191,156.988 41.513,157.265C41.838,157.545 42.092,158.005 42.274,158.646L41.172,159.106C41.122,158.875 41.067,158.682 41.007,158.526C40.946,158.367 40.88,158.244 40.808,158.157C40.664,157.979 40.448,157.89 40.16,157.89C39.766,157.89 39.497,158.132 39.353,158.617C39.209,159.125 39.137,160.036 39.137,161.351C39.137,162.68 39.211,163.58 39.359,164.05C39.507,164.52 39.785,164.754 40.194,164.754C40.569,164.754 40.833,164.588 40.984,164.254C41.139,163.898 41.217,163.326 41.217,162.538L41.217,162.3L41.217,162.123L40.188,162.123L40.188,161.123Z" style="fill:rgb(158,161,168);fill-rule:nonzero;"/>
            <path id="path1332" d="M45.229,156.963L46.394,156.963L46.923,160.203L47.013,160.788L47.201,162.061C47.231,162.277 47.258,162.474 47.281,162.652C47.307,162.83 47.33,162.991 47.349,163.135L47.406,163.567C47.417,163.48 47.426,163.402 47.434,163.334C47.441,163.266 47.449,163.209 47.457,163.163L47.61,162.146L47.809,160.811C47.828,160.689 47.845,160.578 47.86,160.475C47.879,160.373 47.896,160.282 47.911,160.203L48.48,156.963L49.582,156.963L47.86,165.738L46.923,165.738L45.229,156.963Z" style="fill:rgb(158,161,168);fill-rule:nonzero;"/>
            <path id="path1334" d="M51.27,156.963L52.19,156.963L54.071,165.738L52.901,165.738L52.571,164.027L50.832,164.027L50.497,165.738L49.36,165.738L51.27,156.963ZM52.401,163.112L52.139,161.714C51.965,160.763 51.823,159.748 51.713,158.668C51.66,159.195 51.592,159.729 51.509,160.271C51.425,160.809 51.327,161.381 51.213,161.987L50.997,163.112L52.401,163.112Z" style="fill:rgb(158,161,168);fill-rule:nonzero;"/>
            <path id="path1336" d="M54.77,156.963L55.952,156.963L55.952,164.737L57.885,164.737L57.885,165.738L54.77,165.738L54.77,156.963Z" style="fill:rgb(158,161,168);fill-rule:nonzero;"/>
            <path id="path1338" d="M58.726,156.963L59.885,156.963L59.885,163.163C59.885,163.796 59.942,164.217 60.055,164.425C60.173,164.633 60.404,164.737 60.749,164.737C61.093,164.737 61.321,164.647 61.431,164.465C61.544,164.279 61.601,163.902 61.601,163.334L61.601,156.963L62.76,156.963L62.76,163.334C62.76,164.289 62.615,164.934 62.323,165.272C61.974,165.654 61.442,165.846 60.726,165.846C59.938,165.846 59.383,165.599 59.061,165.107C58.837,164.77 58.726,164.122 58.726,163.163L58.726,156.963Z" style="fill:rgb(158,161,168);fill-rule:nonzero;"/>
            <path id="path1340" d="M64.113,156.963L67.255,156.963L67.255,157.964L65.295,157.964L65.295,160.742L67.034,160.742L67.034,161.743L65.295,161.743L65.295,164.737L67.255,164.737L67.255,165.738L64.113,165.738L64.113,156.963Z" style="fill:rgb(158,161,168);fill-rule:nonzero;"/>
            <path id="path1342" d="M71.79,159.816L70.631,159.816L70.62,159.47C70.62,158.511 70.764,157.837 71.052,157.446C71.343,157.052 71.832,156.855 72.518,156.855C73.81,156.855 74.456,157.571 74.456,159.004C74.456,159.97 73.972,161.362 73.006,163.18L72.307,164.493C72.304,164.501 72.292,164.523 72.273,164.561C72.255,164.599 72.228,164.654 72.194,164.726L74.365,164.726L74.365,165.738L70.512,165.738C70.576,165.594 70.711,165.308 70.915,164.879C71.12,164.451 71.398,163.874 71.751,163.146C72.05,162.51 72.3,161.97 72.501,161.527C72.701,161.083 72.853,160.72 72.955,160.436C73.16,159.867 73.262,159.377 73.262,158.964C73.262,158.236 73.01,157.873 72.506,157.873C72.021,157.873 71.779,158.323 71.779,159.225L71.785,159.725L71.79,159.816Z" style="fill:rgb(158,161,168);fill-rule:nonzero;"/>
        </g>
        <g id="text1154" transform="matrix(0.872872,0,0,1.14564,-1.19574e-05,-4.00002)">
            <path id="path1307" d="M28.672,200.607L29.854,200.607L29.854,208.381L31.787,208.381L31.787,209.381L28.672,209.381L28.672,200.607Z" style="fill:rgb(158,161,168);fill-rule:nonzero;"/>
            <path id="path1309" d="M36.929,205.21C36.929,206.76 36.757,207.86 36.412,208.512C36.068,209.163 35.49,209.489 34.679,209.489C33.827,209.489 33.226,209.139 32.878,208.438C32.533,207.752 32.36,206.534 32.36,204.784C32.36,203.223 32.531,202.119 32.872,201.471C33.217,200.819 33.8,200.493 34.622,200.493C35.357,200.493 35.903,200.745 36.259,201.249C36.494,201.586 36.664,202.066 36.77,202.687C36.876,203.263 36.929,204.104 36.929,205.21L36.929,205.21ZM35.691,205.335C35.691,203.816 35.622,202.808 35.486,202.312C35.35,201.812 35.071,201.562 34.651,201.562C34.23,201.562 33.95,201.791 33.81,202.249C33.673,202.712 33.605,203.64 33.605,205.034C33.605,206.318 33.677,207.208 33.821,207.705C33.969,208.175 34.245,208.409 34.651,208.409C35.048,208.409 35.321,208.19 35.469,207.75C35.617,207.315 35.691,206.51 35.691,205.335L35.691,205.335Z" style="fill:rgb(158,161,168);fill-rule:nonzero;"/>
            <path id="path1311" d="M40.208,204.767L42.356,204.767L42.356,205.108C42.356,206.816 42.207,207.97 41.907,208.569C41.612,209.182 41.059,209.489 40.248,209.489C39.411,209.489 38.814,209.148 38.458,208.466C38.106,207.784 37.93,206.638 37.93,205.028C37.93,203.187 38.123,201.961 38.509,201.351C38.873,200.779 39.432,200.493 40.186,200.493C40.761,200.493 41.21,200.632 41.532,200.908C41.858,201.189 42.112,201.649 42.294,202.289L41.191,202.749C41.142,202.518 41.087,202.325 41.027,202.17C40.966,202.011 40.9,201.888 40.828,201.8C40.684,201.622 40.468,201.533 40.18,201.533C39.786,201.533 39.517,201.776 39.373,202.261C39.229,202.768 39.157,203.679 39.157,204.994C39.157,206.324 39.231,207.224 39.379,207.693C39.526,208.163 39.805,208.398 40.214,208.398C40.589,208.398 40.852,208.231 41.004,207.898C41.159,207.542 41.237,206.97 41.237,206.182L41.237,205.943L41.237,205.767L40.208,205.767L40.208,204.767Z" style="fill:rgb(158,161,168);fill-rule:nonzero;"/>
            <path id="path1313" d="M45.249,200.607L46.414,200.607L46.942,203.846L47.033,204.432L47.221,205.704C47.251,205.92 47.278,206.117 47.3,206.295C47.327,206.474 47.35,206.635 47.369,206.778L47.425,207.21C47.437,207.123 47.446,207.046 47.454,206.977C47.461,206.909 47.469,206.852 47.477,206.807L47.63,205.79L47.829,204.454C47.848,204.333 47.865,204.221 47.88,204.119C47.899,204.017 47.916,203.926 47.931,203.846L48.499,200.607L49.602,200.607L47.88,209.381L46.942,209.381L45.249,200.607Z" style="fill:rgb(158,161,168);fill-rule:nonzero;"/>
            <path id="path1315" d="M51.29,200.607L52.21,200.607L54.091,209.381L52.921,209.381L52.591,207.671L50.852,207.671L50.517,209.381L49.38,209.381L51.29,200.607ZM52.421,206.756L52.159,205.358C51.985,204.407 51.843,203.392 51.733,202.312C51.68,202.838 51.612,203.373 51.528,203.914C51.445,204.452 51.347,205.024 51.233,205.631L51.017,206.756L52.421,206.756Z" style="fill:rgb(158,161,168);fill-rule:nonzero;"/>
            <path id="path1317" d="M54.79,200.607L55.972,200.607L55.972,208.381L57.904,208.381L57.904,209.381L54.79,209.381L54.79,200.607Z" style="fill:rgb(158,161,168);fill-rule:nonzero;"/>
            <path id="path1319" d="M58.746,200.607L59.905,200.607L59.905,206.807C59.905,207.44 59.962,207.86 60.075,208.068C60.193,208.277 60.424,208.381 60.769,208.381C61.113,208.381 61.341,208.29 61.451,208.108C61.564,207.923 61.621,207.546 61.621,206.977L61.621,200.607L62.78,200.607L62.78,206.977C62.78,207.932 62.634,208.578 62.343,208.915C61.994,209.298 61.462,209.489 60.746,209.489C59.958,209.489 59.403,209.243 59.081,208.75C58.857,208.413 58.746,207.765 58.746,206.807L58.746,200.607Z" style="fill:rgb(158,161,168);fill-rule:nonzero;"/>
            <path id="path1321" d="M64.133,200.607L67.275,200.607L67.275,201.607L65.315,201.607L65.315,204.386L67.054,204.386L67.054,205.386L65.315,205.386L65.315,208.381L67.275,208.381L67.275,209.381L64.133,209.381L64.133,200.607Z" style="fill:rgb(158,161,168);fill-rule:nonzero;"/>
            <path id="path1323" d="M71.856,202.96L70.73,202.96L70.73,202.727C70.73,202.336 70.763,202.001 70.827,201.721C70.895,201.44 70.999,201.209 71.14,201.028C71.284,200.846 71.465,200.713 71.685,200.63C71.905,200.543 72.168,200.499 72.475,200.499C73.119,200.499 73.589,200.681 73.884,201.045C74.18,201.408 74.328,201.986 74.328,202.778C74.328,203.429 74.259,203.899 74.123,204.187C73.99,204.479 73.735,204.7 73.356,204.852C73.765,204.992 74.047,205.21 74.203,205.506C74.358,205.797 74.436,206.265 74.436,206.909C74.436,207.792 74.269,208.442 73.936,208.858C73.602,209.275 73.083,209.483 72.378,209.483C71.174,209.483 70.571,208.792 70.571,207.409L70.571,207.318L70.571,207.256C70.571,207.214 70.573,207.188 70.577,207.176L71.685,207.176C71.681,207.241 71.678,207.298 71.674,207.347L71.674,207.46C71.674,207.76 71.738,207.998 71.867,208.176C72,208.355 72.18,208.444 72.407,208.444C72.555,208.444 72.68,208.415 72.782,208.358C72.888,208.298 72.973,208.203 73.038,208.074C73.106,207.942 73.155,207.771 73.185,207.563C73.216,207.354 73.231,207.102 73.231,206.807C73.231,206.273 73.149,205.888 72.987,205.653C72.827,205.418 72.56,205.301 72.185,205.301C72.144,205.301 72.098,205.305 72.049,205.312C72,205.316 71.943,205.322 71.878,205.329L71.878,204.306L72.043,204.306C72.502,204.306 72.812,204.208 72.975,204.011C73.138,203.814 73.22,203.441 73.22,202.891C73.22,201.982 72.99,201.528 72.532,201.528C72.077,201.528 71.85,201.916 71.85,202.693L71.856,202.96Z" style="fill:rgb(158,161,168);fill-rule:nonzero;"/>
        </g>
        <g id="text1158" transform="matrix(0.872872,0,0,1.14564,-3.04997e-06,-19)">
            <path id="path1287" d="M28.641,244.251L29.823,244.251L29.823,252.025L31.755,252.025L31.755,253.025L28.641,253.025L28.641,244.251Z" style="fill:rgb(158,161,168);fill-rule:nonzero;"/>
            <path id="path1289" d="M36.898,248.854C36.898,250.403 36.726,251.504 36.381,252.155C36.036,252.807 35.459,253.133 34.648,253.133C33.795,253.133 33.195,252.782 32.846,252.081C32.502,251.396 32.329,250.178 32.329,248.427C32.329,246.867 32.5,245.762 32.841,245.114C33.185,244.463 33.769,244.137 34.591,244.137C35.326,244.137 35.871,244.389 36.228,244.893C36.462,245.23 36.633,245.709 36.739,246.33C36.845,246.906 36.898,247.747 36.898,248.854L36.898,248.854ZM35.659,248.979C35.659,247.459 35.591,246.452 35.455,245.955C35.318,245.455 35.04,245.205 34.619,245.205C34.199,245.205 33.918,245.434 33.778,245.893C33.642,246.355 33.574,247.283 33.574,248.677C33.574,249.962 33.646,250.852 33.79,251.348C33.937,251.818 34.214,252.053 34.619,252.053C35.017,252.053 35.29,251.833 35.438,251.394C35.585,250.958 35.659,250.153 35.659,248.979L35.659,248.979Z" style="fill:rgb(158,161,168);fill-rule:nonzero;"/>
            <path id="path1291" d="M40.177,248.41L42.325,248.41L42.325,248.751C42.325,250.46 42.176,251.614 41.876,252.212C41.581,252.826 41.028,253.133 40.217,253.133C39.38,253.133 38.783,252.792 38.427,252.11C38.074,251.428 37.898,250.282 37.898,248.672C37.898,246.831 38.092,245.605 38.478,244.995C38.842,244.423 39.4,244.137 40.154,244.137C40.73,244.137 41.179,244.275 41.501,244.552C41.827,244.832 42.081,245.292 42.263,245.933L41.16,246.393C41.111,246.162 41.056,245.969 40.995,245.813C40.935,245.654 40.868,245.531 40.797,245.444C40.653,245.266 40.437,245.177 40.149,245.177C39.755,245.177 39.486,245.419 39.342,245.904C39.198,246.412 39.126,247.323 39.126,248.638C39.126,249.967 39.2,250.867 39.347,251.337C39.495,251.807 39.774,252.042 40.183,252.042C40.558,252.042 40.821,251.875 40.973,251.542C41.128,251.185 41.206,250.613 41.206,249.825L41.206,249.587L41.206,249.411L40.177,249.411L40.177,248.41Z" style="fill:rgb(158,161,168);fill-rule:nonzero;"/>
            <path id="path1293" d="M45.218,244.251L46.383,244.251L46.911,247.49L47.002,248.075L47.19,249.348C47.22,249.564 47.246,249.761 47.269,249.939C47.296,250.117 47.318,250.278 47.337,250.422L47.394,250.854C47.406,250.767 47.415,250.689 47.423,250.621C47.43,250.553 47.438,250.496 47.445,250.45L47.599,249.433L47.798,248.098C47.816,247.977 47.834,247.865 47.849,247.762C47.868,247.66 47.885,247.569 47.9,247.49L48.468,244.251L49.571,244.251L47.849,253.025L46.911,253.025L45.218,244.251Z" style="fill:rgb(158,161,168);fill-rule:nonzero;"/>
            <path id="path1295" d="M51.258,244.251L52.179,244.251L54.06,253.025L52.889,253.025L52.56,251.314L50.821,251.314L50.486,253.025L49.349,253.025L51.258,244.251ZM52.389,250.399L52.128,249.001C51.954,248.05 51.812,247.035 51.702,245.955C51.649,246.482 51.581,247.016 51.497,247.558C51.414,248.096 51.315,248.668 51.202,249.274L50.986,250.399L52.389,250.399Z" style="fill:rgb(158,161,168);fill-rule:nonzero;"/>
            <path id="path1297" d="M54.759,244.251L55.941,244.251L55.941,252.025L57.873,252.025L57.873,253.025L54.759,253.025L54.759,244.251Z" style="fill:rgb(158,161,168);fill-rule:nonzero;"/>
            <path id="path1299" d="M58.714,244.251L59.874,244.251L59.874,250.45C59.874,251.083 59.93,251.504 60.044,251.712C60.161,251.92 60.393,252.025 60.737,252.025C61.082,252.025 61.309,251.934 61.419,251.752C61.533,251.566 61.59,251.189 61.59,250.621L61.59,244.251L62.749,244.251L62.749,250.621C62.749,251.576 62.603,252.222 62.311,252.559C61.963,252.941 61.431,253.133 60.715,253.133C59.927,253.133 59.372,252.886 59.05,252.394C58.826,252.057 58.714,251.409 58.714,250.45L58.714,244.251Z" style="fill:rgb(158,161,168);fill-rule:nonzero;"/>
            <path id="path1301" d="M64.102,244.251L67.244,244.251L67.244,245.251L65.284,245.251L65.284,248.03L67.022,248.03L67.022,249.03L65.284,249.03L65.284,252.025L67.244,252.025L67.244,253.025L64.102,253.025L64.102,244.251Z" style="fill:rgb(158,161,168);fill-rule:nonzero;"/>
            <path id="path1303" d="M72.807,244.251L73.904,244.251L73.904,249.717L74.467,249.717L74.467,250.621L73.904,250.621L73.904,253.025L72.807,253.025L72.807,250.621L70.404,250.621L70.404,249.615L72.807,244.251ZM72.807,249.717L72.807,246.035L71.33,249.717L72.807,249.717Z" style="fill:rgb(158,161,168);fill-rule:nonzero;"/>
        </g>
        <g id="text1162" transform="matrix(0.872872,0,0,1.14564,0.0371986,-34)">
            <path id="path1268" d="M28.641,287.894L29.823,287.894L29.823,295.668L31.755,295.668L31.755,296.668L28.641,296.668L28.641,287.894Z" style="fill:rgb(158,161,168);fill-rule:nonzero;"/>
            <path id="path1270" d="M36.898,292.497C36.898,294.047 36.726,295.147 36.381,295.799C36.036,296.451 35.459,296.776 34.648,296.776C33.795,296.776 33.195,296.426 32.846,295.725C32.502,295.039 32.329,293.821 32.329,292.071C32.329,290.51 32.5,289.406 32.841,288.758C33.185,288.106 33.769,287.781 34.591,287.781C35.326,287.781 35.871,288.032 36.228,288.536C36.462,288.874 36.633,289.353 36.739,289.974C36.845,290.55 36.898,291.391 36.898,292.497L36.898,292.497ZM35.659,292.622C35.659,291.103 35.591,290.095 35.455,289.599C35.318,289.099 35.04,288.849 34.619,288.849C34.199,288.849 33.918,289.078 33.778,289.537C33.642,289.999 33.574,290.927 33.574,292.321C33.574,293.605 33.646,294.496 33.79,294.992C33.937,295.462 34.214,295.697 34.619,295.697C35.017,295.697 35.29,295.477 35.438,295.037C35.585,294.602 35.659,293.797 35.659,292.622L35.659,292.622Z" style="fill:rgb(158,161,168);fill-rule:nonzero;"/>
            <path id="path1272" d="M40.177,292.054L42.325,292.054L42.325,292.395C42.325,294.104 42.176,295.257 41.876,295.856C41.581,296.469 41.028,296.776 40.217,296.776C39.38,296.776 38.783,296.435 38.427,295.753C38.074,295.071 37.898,293.925 37.898,292.315C37.898,290.474 38.092,289.249 38.478,288.639C38.842,288.067 39.4,287.781 40.154,287.781C40.73,287.781 41.179,287.919 41.501,288.195C41.827,288.476 42.081,288.936 42.263,289.576L41.16,290.037C41.111,289.805 41.056,289.612 40.995,289.457C40.935,289.298 40.868,289.175 40.797,289.088C40.653,288.909 40.437,288.82 40.149,288.82C39.755,288.82 39.486,289.063 39.342,289.548C39.198,290.056 39.126,290.967 39.126,292.281C39.126,293.611 39.2,294.511 39.347,294.981C39.495,295.45 39.774,295.685 40.183,295.685C40.558,295.685 40.821,295.519 40.973,295.185C41.128,294.829 41.206,294.257 41.206,293.469L41.206,293.23L41.206,293.054L40.177,293.054L40.177,292.054Z" style="fill:rgb(158,161,168);fill-rule:nonzero;"/>
            <path id="path1274" d="M45.218,287.894L46.383,287.894L46.911,291.133L47.002,291.719L47.19,292.992C47.22,293.208 47.246,293.405 47.269,293.583C47.296,293.761 47.318,293.922 47.337,294.066L47.394,294.498C47.406,294.41 47.415,294.333 47.423,294.265C47.43,294.196 47.438,294.14 47.445,294.094L47.599,293.077L47.798,291.741C47.816,291.62 47.834,291.508 47.849,291.406C47.868,291.304 47.885,291.213 47.9,291.133L48.468,287.894L49.571,287.894L47.849,296.668L46.911,296.668L45.218,287.894Z" style="fill:rgb(158,161,168);fill-rule:nonzero;"/>
            <path id="path1276" d="M51.258,287.894L52.179,287.894L54.06,296.668L52.889,296.668L52.56,294.958L50.821,294.958L50.486,296.668L49.349,296.668L51.258,287.894ZM52.389,294.043L52.128,292.645C51.954,291.694 51.812,290.679 51.702,289.599C51.649,290.126 51.581,290.66 51.497,291.202C51.414,291.74 51.315,292.312 51.202,292.918L50.986,294.043L52.389,294.043Z" style="fill:rgb(158,161,168);fill-rule:nonzero;"/>
            <path id="path1278" d="M54.759,287.894L55.941,287.894L55.941,295.668L57.873,295.668L57.873,296.668L54.759,296.668L54.759,287.894Z" style="fill:rgb(158,161,168);fill-rule:nonzero;"/>
            <path id="path1280" d="M58.714,287.894L59.874,287.894L59.874,294.094C59.874,294.727 59.93,295.147 60.044,295.356C60.161,295.564 60.393,295.668 60.737,295.668C61.082,295.668 61.309,295.577 61.419,295.395C61.533,295.21 61.59,294.833 61.59,294.265L61.59,287.894L62.749,287.894L62.749,294.265C62.749,295.219 62.603,295.865 62.311,296.202C61.963,296.585 61.431,296.776 60.715,296.776C59.927,296.776 59.372,296.53 59.05,296.038C58.826,295.7 58.714,295.053 58.714,294.094L58.714,287.894Z" style="fill:rgb(158,161,168);fill-rule:nonzero;"/>
            <path id="path1282" d="M64.102,287.894L67.244,287.894L67.244,288.894L65.284,288.894L65.284,291.673L67.022,291.673L67.022,292.673L65.284,292.673L65.284,295.668L67.244,295.668L67.244,296.668L64.102,296.668L64.102,287.894Z" style="fill:rgb(158,161,168);fill-rule:nonzero;"/>
            <path id="path1284" d="M71.478,287.894L74.268,287.894L74.268,288.911L72.376,288.911L72.091,291.116L72.234,291.116C72.578,291.116 72.883,291.171 73.148,291.281C73.417,291.391 73.643,291.552 73.825,291.764C74.007,291.976 74.145,292.238 74.24,292.548C74.334,292.859 74.382,293.213 74.382,293.611C74.382,294.596 74.168,295.371 73.739,295.935C73.311,296.492 72.717,296.771 71.955,296.771C71.527,296.771 71.063,296.649 70.563,296.407L70.858,295.361C71.264,295.573 71.603,295.68 71.876,295.68C72.262,295.68 72.569,295.505 72.796,295.157C73.023,294.804 73.137,294.331 73.137,293.736C73.137,292.611 72.654,292.048 71.688,292.048C71.449,292.048 71.209,292.084 70.966,292.156L71.478,287.894Z" style="fill:rgb(158,161,168);fill-rule:nonzero;"/>
        </g>
        <g id="text1379" transform="matrix(0.817491,0,0,1.22326,0,7)">
            <path id="path1381" d="M20.707,97.955L21.814,97.955L21.814,105.236L23.623,105.236L23.623,106.173L20.707,106.173L20.707,97.955Z" style="fill:rgb(158,161,168);fill-rule:nonzero;"/>
            <path id="path1383" d="M28.44,102.266C28.44,103.717 28.279,104.748 27.956,105.358C27.633,105.969 27.092,106.274 26.332,106.274C25.534,106.274 24.972,105.946 24.645,105.289C24.322,104.647 24.161,103.506 24.161,101.867C24.161,100.405 24.321,99.371 24.64,98.764C24.963,98.154 25.509,97.849 26.279,97.849C26.968,97.849 27.478,98.085 27.812,98.557C28.032,98.872 28.192,99.321 28.291,99.903C28.39,100.442 28.44,101.23 28.44,102.266L28.44,102.266ZM27.28,102.383C27.28,100.96 27.216,100.017 27.088,99.552C26.96,99.083 26.7,98.849 26.306,98.849C25.912,98.849 25.649,99.064 25.518,99.493C25.39,99.926 25.327,100.795 25.327,102.101C25.327,103.304 25.394,104.138 25.529,104.603C25.667,105.043 25.926,105.263 26.306,105.263C26.678,105.263 26.934,105.057 27.072,104.645C27.211,104.237 27.28,103.483 27.28,102.383L27.28,102.383Z" style="fill:rgb(158,161,168);fill-rule:nonzero;"/>
            <path id="path1385" d="M31.511,101.851L33.523,101.851L33.523,102.17C33.523,103.771 33.383,104.851 33.102,105.412C32.826,105.986 32.307,106.274 31.548,106.274C30.764,106.274 30.205,105.954 29.872,105.316C29.542,104.677 29.377,103.604 29.377,102.096C29.377,100.371 29.558,99.224 29.92,98.652C30.26,98.117 30.784,97.849 31.49,97.849C32.029,97.849 32.449,97.978 32.751,98.237C33.056,98.5 33.294,98.931 33.464,99.531L32.432,99.962C32.386,99.745 32.334,99.564 32.277,99.419C32.221,99.27 32.158,99.154 32.091,99.073C31.956,98.906 31.754,98.823 31.484,98.823C31.115,98.823 30.863,99.05 30.729,99.504C30.594,99.979 30.526,100.833 30.526,102.064C30.526,103.309 30.596,104.152 30.734,104.592C30.872,105.032 31.133,105.252 31.516,105.252C31.868,105.252 32.114,105.096 32.256,104.784C32.402,104.45 32.474,103.914 32.474,103.176L32.474,102.953L32.474,102.788L31.511,102.788L31.511,101.851Z" style="fill:rgb(158,161,168);fill-rule:nonzero;"/>
            <path id="path1387" d="M41,102.266C41,103.717 40.839,104.748 40.516,105.358C40.193,105.969 39.652,106.274 38.893,106.274C38.095,106.274 37.532,105.946 37.206,105.289C36.883,104.647 36.721,103.506 36.721,101.867C36.721,100.405 36.881,99.371 37.2,98.764C37.523,98.154 38.07,97.849 38.84,97.849C39.528,97.849 40.039,98.085 40.372,98.557C40.592,98.872 40.752,99.321 40.851,99.903C40.951,100.442 41,101.23 41,102.266L41,102.266ZM39.84,102.383C39.84,100.96 39.776,100.017 39.649,99.552C39.521,99.083 39.26,98.849 38.866,98.849C38.472,98.849 38.21,99.064 38.079,99.493C37.951,99.926 37.887,100.795 37.887,102.101C37.887,103.304 37.954,104.138 38.089,104.603C38.228,105.043 38.487,105.263 38.866,105.263C39.239,105.263 39.494,105.057 39.633,104.645C39.771,104.237 39.84,103.483 39.84,102.383L39.84,102.383Z" style="fill:rgb(158,161,168);fill-rule:nonzero;"/>
            <path id="path1389" d="M42.102,97.955L43.135,97.955L44.236,101.234C44.556,102.16 44.838,103.148 45.083,104.198C44.994,103.563 44.928,102.988 44.886,102.474C44.843,101.959 44.822,101.475 44.822,101.021L44.822,97.955L45.934,97.955L45.934,106.173L44.896,106.173L43.656,102.474C43.543,102.13 43.434,101.777 43.332,101.415C43.232,101.053 43.14,100.673 43.055,100.276C43.048,100.226 43.035,100.166 43.017,100.095C43.003,100.024 42.986,99.942 42.964,99.85C42.975,99.942 42.984,100.022 42.991,100.089C42.998,100.153 43.003,100.208 43.007,100.254L43.065,101.09L43.124,102.106C43.127,102.163 43.129,102.232 43.129,102.314C43.132,102.396 43.134,102.488 43.134,102.591L43.193,106.173L42.102,106.173L42.102,97.955Z" style="fill:rgb(158,161,168);fill-rule:nonzero;"/>
            <path id="path1391" d="M48.813,97.955L52.417,97.955L52.417,98.924L51.176,98.924L51.176,106.173L50.091,106.173L50.091,98.924L48.813,98.924L48.813,97.955Z" style="fill:rgb(158,161,168);fill-rule:nonzero;"/>
            <path id="path1393" d="M53.023,97.955L54.482,97.955C55.085,97.955 55.534,98.099 55.828,98.386C56.201,98.759 56.387,99.328 56.387,100.095C56.387,100.684 56.288,101.157 56.089,101.516C55.894,101.871 55.613,102.091 55.248,102.176L56.759,106.173L55.636,106.173L54.13,102.149L54.13,106.173L53.023,106.173L53.023,97.955ZM54.13,101.596C54.56,101.596 54.863,101.496 55.04,101.298C55.218,101.099 55.307,100.764 55.307,100.292C55.307,100.036 55.287,99.818 55.248,99.637C55.212,99.456 55.154,99.309 55.072,99.195C54.994,99.082 54.891,98.998 54.764,98.945C54.639,98.892 54.49,98.865 54.317,98.865L54.13,98.865L54.13,101.596Z" style="fill:rgb(158,161,168);fill-rule:nonzero;"/>
            <rect id="path1395" x="57.622" y="97.955" width="1.107" height="8.217" style="fill:rgb(158,161,168);fill-rule:nonzero;"/>
            <path id="path1397" d="M61.975,101.851L63.987,101.851L63.987,102.17C63.987,103.771 63.847,104.851 63.567,105.412C63.29,105.986 62.772,106.274 62.012,106.274C61.228,106.274 60.67,105.954 60.336,105.316C60.006,104.677 59.841,103.604 59.841,102.096C59.841,100.371 60.022,99.224 60.384,98.652C60.725,98.117 61.248,97.849 61.954,97.849C62.493,97.849 62.914,97.978 63.215,98.237C63.52,98.5 63.758,98.931 63.928,99.531L62.896,99.962C62.85,99.745 62.798,99.564 62.742,99.419C62.685,99.27 62.623,99.154 62.555,99.073C62.42,98.906 62.218,98.823 61.949,98.823C61.58,98.823 61.328,99.05 61.193,99.504C61.058,99.979 60.991,100.833 60.991,102.064C60.991,103.309 61.06,104.152 61.198,104.592C61.337,105.032 61.597,105.252 61.981,105.252C62.332,105.252 62.578,105.096 62.72,104.784C62.866,104.45 62.939,103.914 62.939,103.176L62.939,102.953L62.939,102.788L61.975,102.788L61.975,101.851Z" style="fill:rgb(158,161,168);fill-rule:nonzero;"/>
            <path id="path1399" d="M66.696,97.955L70.299,97.955L70.299,98.924L69.059,98.924L69.059,106.173L67.973,106.173L67.973,98.924L66.696,98.924L66.696,97.955Z" style="fill:rgb(158,161,168);fill-rule:nonzero;"/>
            <path id="path1401" d="M70.906,97.955L72.364,97.955C72.967,97.955 73.416,98.099 73.711,98.386C74.083,98.759 74.27,99.328 74.27,100.095C74.27,100.684 74.17,101.157 73.971,101.516C73.776,101.871 73.496,102.091 73.131,102.176L74.642,106.173L73.519,106.173L72.013,102.149L72.013,106.173L70.906,106.173L70.906,97.955ZM72.013,101.596C72.442,101.596 72.746,101.496 72.923,101.298C73.1,101.099 73.189,100.764 73.189,100.292C73.189,100.036 73.17,99.818 73.131,99.637C73.095,99.456 73.037,99.309 72.955,99.195C72.877,99.082 72.774,98.998 72.646,98.945C72.522,98.892 72.373,98.865 72.199,98.865L72.013,98.865L72.013,101.596Z" style="fill:rgb(158,161,168);fill-rule:nonzero;"/>
            <rect id="path1403" x="75.504" y="97.955" width="1.107" height="8.217" style="fill:rgb(158,161,168);fill-rule:nonzero;"/>
            <path id="path1405" d="M79.858,101.851L81.87,101.851L81.87,102.17C81.87,103.771 81.729,104.851 81.449,105.412C81.172,105.986 80.654,106.274 79.895,106.274C79.111,106.274 78.552,105.954 78.219,105.316C77.889,104.677 77.724,103.604 77.724,102.096C77.724,100.371 77.905,99.224 78.267,98.652C78.607,98.117 79.13,97.849 79.837,97.849C80.376,97.849 80.796,97.978 81.098,98.237C81.403,98.5 81.641,98.931 81.811,99.531L80.779,99.962C80.732,99.745 80.681,99.564 80.624,99.419C80.567,99.27 80.505,99.154 80.438,99.073C80.303,98.906 80.101,98.823 79.831,98.823C79.462,98.823 79.21,99.05 79.075,99.504C78.941,99.979 78.873,100.833 78.873,102.064C78.873,103.309 78.942,104.152 79.081,104.592C79.219,105.032 79.48,105.252 79.863,105.252C80.214,105.252 80.461,105.096 80.603,104.784C80.748,104.45 80.821,103.914 80.821,103.176L80.821,102.953L80.821,102.788L79.858,102.788L79.858,101.851Z" style="fill:rgb(158,161,168);fill-rule:nonzero;"/>
        </g>
        <g id="text1410" transform="matrix(0.872872,0,0,1.14564,0,16)">
            <path id="path1420" d="M28.695,274.801L29.877,274.801L29.877,282.575L31.809,282.575L31.809,283.575L28.695,283.575L28.695,274.801Z" style="fill:rgb(158,161,168);fill-rule:nonzero;"/>
            <path id="path1422" d="M36.952,279.404C36.952,280.954 36.78,282.054 36.435,282.706C36.09,283.357 35.512,283.683 34.702,283.683C33.849,283.683 33.249,283.333 32.9,282.632C32.556,281.946 32.383,280.728 32.383,278.978C32.383,277.417 32.554,276.313 32.895,275.665C33.239,275.013 33.823,274.687 34.645,274.687C35.38,274.687 35.925,274.939 36.282,275.443C36.516,275.78 36.687,276.26 36.793,276.881C36.899,277.457 36.952,278.298 36.952,279.404L36.952,279.404ZM35.713,279.529C35.713,278.01 35.645,277.002 35.509,276.506C35.372,276.006 35.094,275.756 34.673,275.756C34.253,275.756 33.972,275.985 33.832,276.443C33.696,276.906 33.628,277.834 33.628,279.228C33.628,280.512 33.7,281.403 33.844,281.899C33.991,282.369 34.268,282.604 34.673,282.604C35.071,282.604 35.344,282.384 35.492,281.944C35.639,281.509 35.713,280.704 35.713,279.529L35.713,279.529Z" style="fill:rgb(158,161,168);fill-rule:nonzero;"/>
            <path id="path1424" d="M40.231,278.961L42.379,278.961L42.379,279.302C42.379,281.01 42.23,282.164 41.93,282.763C41.635,283.376 41.082,283.683 40.271,283.683C39.434,283.683 38.837,283.342 38.481,282.66C38.128,281.978 37.952,280.832 37.952,279.222C37.952,277.381 38.146,276.155 38.532,275.546C38.896,274.973 39.454,274.687 40.208,274.687C40.784,274.687 41.233,274.826 41.555,275.102C41.881,275.383 42.135,275.843 42.317,276.483L41.214,276.943C41.165,276.712 41.11,276.519 41.049,276.364C40.989,276.205 40.922,276.082 40.851,275.994C40.707,275.816 40.491,275.727 40.203,275.727C39.809,275.727 39.54,275.97 39.396,276.455C39.252,276.962 39.18,277.874 39.18,279.188C39.18,280.518 39.254,281.418 39.401,281.887C39.549,282.357 39.828,282.592 40.237,282.592C40.612,282.592 40.875,282.425 41.027,282.092C41.182,281.736 41.26,281.164 41.26,280.376L41.26,280.137L41.26,279.961L40.231,279.961L40.231,278.961Z" style="fill:rgb(158,161,168);fill-rule:nonzero;"/>
            <path id="path1426" d="M45.272,274.801L46.437,274.801L46.965,278.04L47.056,278.626L47.244,279.899C47.274,280.114 47.3,280.311 47.323,280.49C47.35,280.668 47.372,280.829 47.391,280.973L47.448,281.404C47.46,281.317 47.469,281.24 47.477,281.171C47.484,281.103 47.492,281.046 47.499,281.001L47.653,279.984L47.852,278.648C47.87,278.527 47.887,278.415 47.903,278.313C47.922,278.211 47.939,278.12 47.954,278.04L48.522,274.801L49.625,274.801L47.903,283.575L46.965,283.575L45.272,274.801Z" style="fill:rgb(158,161,168);fill-rule:nonzero;"/>
            <path id="path1428" d="M51.312,274.801L52.233,274.801L54.114,283.575L52.943,283.575L52.614,281.865L50.875,281.865L50.54,283.575L49.403,283.575L51.312,274.801ZM52.443,280.95L52.182,279.552C52.008,278.601 51.866,277.586 51.756,276.506C51.703,277.033 51.634,277.567 51.551,278.108C51.468,278.646 51.369,279.219 51.256,279.825L51.04,280.95L52.443,280.95Z" style="fill:rgb(158,161,168);fill-rule:nonzero;"/>
            <path id="path1430" d="M54.813,274.801L55.995,274.801L55.995,282.575L57.927,282.575L57.927,283.575L54.813,283.575L54.813,274.801Z" style="fill:rgb(158,161,168);fill-rule:nonzero;"/>
            <path id="path1432" d="M58.768,274.801L59.928,274.801L59.928,281.001C59.928,281.634 59.984,282.054 60.098,282.263C60.215,282.471 60.447,282.575 60.791,282.575C61.136,282.575 61.363,282.484 61.473,282.302C61.587,282.117 61.644,281.74 61.644,281.171L61.644,274.801L62.803,274.801L62.803,281.171C62.803,282.126 62.657,282.772 62.365,283.109C62.017,283.492 61.485,283.683 60.769,283.683C59.981,283.683 59.426,283.437 59.104,282.945C58.88,282.607 58.768,281.96 58.768,281.001L58.768,274.801Z" style="fill:rgb(158,161,168);fill-rule:nonzero;"/>
            <path id="path1434" d="M64.155,274.801L67.298,274.801L67.298,275.801L65.338,275.801L65.338,278.58L67.076,278.58L67.076,279.58L65.338,279.58L65.338,282.575L67.298,282.575L67.298,283.575L64.155,283.575L64.155,274.801Z" style="fill:rgb(158,161,168);fill-rule:nonzero;"/>
            <path id="path1436" d="M72.418,274.801L73.674,274.801L72.85,276.489C72.706,276.796 72.56,277.122 72.413,277.466C72.269,277.811 72.117,278.179 71.958,278.569C72.288,278.307 72.604,278.177 72.907,278.177C73.396,278.177 73.773,278.389 74.038,278.813C74.288,279.211 74.413,279.923 74.413,280.95C74.413,281.92 74.267,282.619 73.975,283.047C73.684,283.467 73.208,283.678 72.549,283.678C71.875,283.678 71.388,283.445 71.088,282.979C70.789,282.509 70.64,281.744 70.64,280.683C70.64,279.792 70.757,278.944 70.992,278.137C71.113,277.735 71.291,277.262 71.526,276.716C71.765,276.171 72.062,275.532 72.418,274.801L72.418,274.801ZM73.282,280.944C73.282,280.641 73.269,280.383 73.242,280.171C73.216,279.955 73.172,279.781 73.112,279.649C73.051,279.512 72.973,279.414 72.879,279.353C72.788,279.289 72.676,279.256 72.543,279.256C72.411,279.256 72.297,279.289 72.202,279.353C72.111,279.414 72.036,279.51 71.975,279.643C71.914,279.775 71.871,279.95 71.844,280.166C71.818,280.378 71.805,280.633 71.805,280.933C71.805,282.081 72.051,282.655 72.543,282.655C73.036,282.655 73.282,282.084 73.282,280.944L73.282,280.944Z" style="fill:rgb(158,161,168);fill-rule:nonzero;"/>
        </g>
    </g>
</svg>
