<?xml version="1.0" encoding="UTF-8" standalone="no"?>
<!DOCTYPE svg PUBLIC "-//W3C//DTD SVG 1.1//EN" "http://www.w3.org/Graphics/SVG/1.1/DTD/svg11.dtd">
<svg width="100%" height="100%" viewBox="0 0 75 380" version="1.1" xmlns="http://www.w3.org/2000/svg" xmlns:xlink="http://www.w3.org/1999/xlink" xml:space="preserve" xmlns:serif="http://www.serif.com/" style="fill-rule:evenodd;clip-rule:evenodd;stroke-linejoin:round;stroke-miterlimit:2;">
    <g id="g13122" transform="matrix(0.276024,0,0,0.276024,1156.74,7.55905e-05)">
        <rect id="path25053" x="-4188.05" y="0" width="271.716" height="1376.69" style="fill:rgb(44,45,48);fill-rule:nonzero;"/>
        <g id="text88">
        </g>
        <g id="text92">
        </g>
        <g id="text96">
        </g>
        <g id="text112">
        </g>
        <g id="text890" transform="matrix(1,0,0,1,-32.5307,0)">
            <path id="path4698" d="M-4130.14,97.666L-4127.08,97.666L-4120.83,126.8L-4124.72,126.8L-4125.81,121.121L-4131.59,121.121L-4132.7,126.8L-4136.48,126.8L-4130.14,97.666ZM-4126.38,118.083L-4127.25,113.441C-4127.83,110.284 -4128.3,106.912 -4128.66,103.327C-4128.84,105.076 -4129.07,106.849 -4129.34,108.648C-4129.62,110.435 -4129.95,112.334 -4130.32,114.347L-4131.04,118.083L-4126.38,118.083Z" style="fill:rgb(158,161,168);fill-rule:nonzero;"/>
            <path id="path4700" d="M-4118.51,97.666L-4114.85,97.666L-4110.94,109.29C-4109.81,112.573 -4108.81,116.076 -4107.94,119.8C-4108.26,117.548 -4108.49,115.51 -4108.64,113.686C-4108.79,111.862 -4108.87,110.145 -4108.87,108.535L-4108.87,97.666L-4104.93,97.666L-4104.93,126.8L-4108.61,126.8L-4113,113.686C-4113.4,112.466 -4113.79,111.214 -4114.15,109.931C-4114.51,108.648 -4114.83,107.302 -4115.13,105.893C-4115.16,105.717 -4115.2,105.503 -4115.27,105.252C-4115.32,105 -4115.38,104.711 -4115.46,104.384C-4115.42,104.711 -4115.39,104.994 -4115.36,105.233C-4115.34,105.459 -4115.32,105.654 -4115.3,105.818L-4115.1,108.78L-4114.89,112.384L-4114.89,113.12C-4114.86,113.41 -4114.85,113.737 -4114.85,114.101L-4114.64,126.8L-4118.51,126.8L-4118.51,97.666Z" style="fill:rgb(158,161,168);fill-rule:nonzero;"/>
            <path id="path4702" d="M-4100.4,97.666L-4095.57,97.666C-4094.1,97.666 -4092.86,97.83 -4091.85,98.157C-4090.92,98.472 -4090.09,99.031 -4089.36,99.836C-4088.26,101.044 -4087.49,102.616 -4087.02,104.554C-4086.55,106.428 -4086.32,109.114 -4086.32,112.611C-4086.32,115.819 -4086.58,118.435 -4087.09,120.46C-4087.6,122.398 -4088.43,123.876 -4089.59,124.895C-4091.01,126.165 -4093.55,126.8 -4097.23,126.8L-4100.4,126.8L-4100.4,97.666ZM-4096.47,123.366C-4094.08,123.366 -4092.49,122.643 -4091.68,121.196C-4090.85,119.75 -4090.43,116.938 -4090.43,112.762C-4090.43,108.271 -4090.83,105.183 -4091.62,103.497C-4092.42,101.811 -4093.87,100.969 -4095.98,100.969L-4096.47,100.969L-4096.47,123.366Z" style="fill:rgb(158,161,168);fill-rule:nonzero;"/>
        </g>
        <g id="text894" transform="matrix(1,0,0,1,-32.5307,0)">
            <path id="path4691" d="M-4136.48,387.748L-4132.82,387.748L-4128.91,399.372C-4127.78,402.655 -4126.78,406.158 -4125.91,409.882C-4126.22,407.63 -4126.45,405.592 -4126.61,403.768C-4126.76,401.944 -4126.83,400.227 -4126.83,398.617L-4126.83,387.748L-4122.89,387.748L-4122.89,416.882L-4126.57,416.882L-4130.97,403.768C-4131.37,402.548 -4131.75,401.296 -4132.12,400.013C-4132.47,398.73 -4132.8,397.384 -4133.1,395.975C-4133.12,395.799 -4133.17,395.585 -4133.23,395.334C-4133.28,395.082 -4133.34,394.792 -4133.42,394.466C-4133.38,394.793 -4133.35,395.076 -4133.32,395.315C-4133.3,395.541 -4133.28,395.736 -4133.27,395.9L-4133.06,398.862L-4132.85,402.466L-4132.85,403.202C-4132.83,403.491 -4132.81,403.818 -4132.81,404.183L-4132.61,416.882L-4136.48,416.882L-4136.48,387.748Z" style="fill:rgb(158,161,168);fill-rule:nonzero;"/>
            <path id="path4693" d="M-4103.7,403.032C-4103.7,408.177 -4104.27,411.831 -4105.42,413.995C-4106.56,416.159 -4108.48,417.241 -4111.17,417.241C-4114,417.241 -4116,416.077 -4117.15,413.75C-4118.3,411.473 -4118.87,407.429 -4118.87,401.617C-4118.87,396.434 -4118.3,392.767 -4117.17,390.616C-4116.03,388.453 -4114.09,387.371 -4111.36,387.371C-4108.92,387.371 -4107.11,388.207 -4105.93,389.88C-4105.15,391 -4104.58,392.591 -4104.23,394.654C-4103.88,396.566 -4103.7,399.359 -4103.7,403.032ZM-4107.81,403.447C-4107.81,398.403 -4108.04,395.057 -4108.49,393.409C-4108.94,391.748 -4109.87,390.918 -4111.27,390.918C-4112.66,390.918 -4113.59,391.679 -4114.06,393.201C-4114.51,394.736 -4114.74,397.818 -4114.74,402.447C-4114.74,406.712 -4114.5,409.668 -4114.02,411.316C-4113.53,412.876 -4112.61,413.655 -4111.27,413.655C-4109.94,413.655 -4109.04,412.926 -4108.55,411.467C-4108.06,410.02 -4107.81,407.347 -4107.81,403.447Z" style="fill:rgb(158,161,168);fill-rule:nonzero;"/>
            <path id="path4695" d="M-4101.81,387.748L-4089.04,387.748L-4089.04,391.182L-4093.43,391.182L-4093.43,416.882L-4097.28,416.882L-4097.28,391.182L-4101.81,391.182L-4101.81,387.748Z" style="fill:rgb(158,161,168);fill-rule:nonzero;"/>
        </g>
        <g id="text919" transform="matrix(1,0,0,1,-32.5303,0)">
            <path id="path4686" d="M-4121.31,692.736C-4121.31,697.881 -4121.88,701.536 -4123.02,703.699C-4124.17,705.863 -4126.09,706.945 -4128.78,706.945C-4131.61,706.945 -4133.6,705.781 -4134.76,703.454C-4135.9,701.177 -4136.48,697.133 -4136.48,691.321C-4136.48,686.138 -4135.91,682.472 -4134.78,680.32C-4133.63,678.157 -4131.69,677.075 -4128.97,677.075C-4126.52,677.075 -4124.71,677.912 -4123.53,679.585C-4122.75,680.704 -4122.19,682.295 -4121.83,684.358C-4121.48,686.271 -4121.31,689.063 -4121.31,692.736ZM-4125.42,693.151C-4125.42,688.107 -4125.64,684.761 -4126.1,683.113C-4126.55,681.453 -4127.48,680.622 -4128.87,680.622C-4130.27,680.622 -4131.2,681.383 -4131.66,682.906C-4132.12,684.44 -4132.34,687.522 -4132.34,692.151C-4132.34,696.416 -4132.1,699.372 -4131.63,701.02C-4131.14,702.58 -4130.22,703.36 -4128.87,703.36C-4127.55,703.36 -4126.65,702.63 -4126.15,701.171C-4125.66,699.724 -4125.42,697.051 -4125.42,693.151Z" style="fill:rgb(158,161,168);fill-rule:nonzero;"/>
            <path id="path4688" d="M-4117.4,677.452L-4112.23,677.452C-4110.09,677.452 -4108.5,677.962 -4107.45,678.981C-4106.13,680.302 -4105.47,682.321 -4105.47,685.038C-4105.47,687.126 -4105.83,688.805 -4106.53,690.076C-4107.22,691.334 -4108.22,692.114 -4109.51,692.416L-4104.15,706.586L-4108.13,706.586L-4113.47,692.321L-4113.47,706.586L-4117.4,706.586L-4117.4,677.452ZM-4113.47,690.359C-4111.95,690.359 -4110.88,690.007 -4110.25,689.302C-4109.62,688.598 -4109.3,687.409 -4109.3,685.736C-4109.3,684.83 -4109.37,684.057 -4109.51,683.415C-4109.64,682.773 -4109.85,682.251 -4110.13,681.849C-4110.41,681.446 -4110.78,681.151 -4111.23,680.962C-4111.67,680.773 -4112.2,680.679 -4112.81,680.679L-4113.47,680.679L-4113.47,690.359Z" style="fill:rgb(158,161,168);fill-rule:nonzero;"/>
        </g>
        <g id="text927" transform="matrix(1,0,0,1,-32.5303,0)">
            <path id="path4679" d="M-4136.14,967.157L-4132.32,967.157L-4130.31,972.799C-4129.51,975.025 -4129.04,976.654 -4128.89,977.686C-4128.75,977.044 -4128.6,976.421 -4128.44,975.818C-4128.26,975.214 -4128.08,974.61 -4127.89,974.006L-4127.63,973.157L-4125.76,967.157L-4121.8,967.157L-4127.19,981.497L-4121.8,996.291L-4125.76,996.291L-4127.68,990.743C-4128.07,989.636 -4128.39,988.642 -4128.63,987.762C-4128.86,986.881 -4129.03,986.101 -4129.14,985.422C-4129.24,986.265 -4129.4,987.07 -4129.64,987.837L-4130.31,989.913L-4130.65,991.007L-4132.32,996.291L-4136.48,996.291L-4130.97,981.497L-4136.14,967.157Z" style="fill:rgb(158,161,168);fill-rule:nonzero;"/>
            <path id="path4681" d="M-4105.3,982.441C-4105.3,987.586 -4105.88,991.24 -4107.02,993.404C-4108.16,995.567 -4110.08,996.649 -4112.78,996.649C-4115.61,996.649 -4117.6,995.486 -4118.76,993.158C-4119.9,990.881 -4120.47,986.837 -4120.47,981.025C-4120.47,975.843 -4119.91,972.176 -4118.78,970.025C-4117.63,967.861 -4115.69,966.779 -4112.96,966.779C-4110.52,966.779 -4108.71,967.616 -4107.53,969.289C-4106.75,970.408 -4106.18,972 -4105.83,974.063C-4105.48,975.975 -4105.3,978.767 -4105.3,982.441ZM-4109.42,982.856C-4109.42,977.811 -4109.64,974.465 -4110.1,972.817C-4110.55,971.157 -4111.47,970.327 -4112.87,970.327C-4114.27,970.327 -4115.2,971.088 -4115.66,972.61C-4116.12,974.145 -4116.34,977.226 -4116.34,981.856C-4116.34,986.12 -4116.1,989.076 -4115.63,990.724C-4115.13,992.284 -4114.22,993.064 -4112.87,993.064C-4111.55,993.064 -4110.64,992.334 -4110.15,990.875C-4109.66,989.429 -4109.42,986.755 -4109.42,982.856Z" style="fill:rgb(158,161,168);fill-rule:nonzero;"/>
            <path id="path4683" d="M-4101.4,967.157L-4096.23,967.157C-4094.09,967.157 -4092.5,967.666 -4091.45,968.685C-4090.13,970.006 -4089.47,972.025 -4089.47,974.742C-4089.47,976.83 -4089.82,978.51 -4090.53,979.78C-4091.22,981.038 -4092.22,981.818 -4093.51,982.12L-4088.15,996.291L-4092.13,996.291L-4097.47,982.026L-4097.47,996.291L-4101.4,996.291L-4101.4,967.157ZM-4097.47,980.063C-4095.95,980.063 -4094.88,979.711 -4094.25,979.006C-4093.62,978.302 -4093.3,977.113 -4093.3,975.44C-4093.3,974.534 -4093.37,973.761 -4093.51,973.119C-4093.64,972.478 -4093.84,971.956 -4094.13,971.553C-4094.41,971.151 -4094.78,970.855 -4095.23,970.666C-4095.67,970.478 -4096.2,970.383 -4096.81,970.383L-4097.47,970.383L-4097.47,980.063Z" style="fill:rgb(158,161,168);fill-rule:nonzero;"/>
        </g>
        <g id="text4653" transform="matrix(1,0,0,1,-82.5337,32.6059)">
            <path id="path4666" d="M-4025.68,1325.46L-4025.68,1296.33L-4018.17,1296.33L-4014.22,1306.56C-4014.01,1307.16 -4013.77,1307.85 -4013.51,1308.63C-4013.23,1309.41 -4012.93,1310.31 -4012.6,1311.33L-4011.79,1313.9C-4012.08,1311.37 -4012.3,1309.2 -4012.45,1307.4C-4012.6,1305.61 -4012.68,1304.1 -4012.68,1302.88L-4012.68,1296.33L-4005.16,1296.33L-4005.16,1325.46L-4012.68,1325.46L-4016.64,1314.75C-4017.05,1313.6 -4017.43,1312.53 -4017.77,1311.54C-4018.1,1310.53 -4018.39,1309.58 -4018.64,1308.67C-4018.47,1310.72 -4018.35,1312.51 -4018.28,1314.03C-4018.2,1315.55 -4018.16,1316.88 -4018.16,1318.03L-4018.16,1325.46L-4025.68,1325.46Z" style="fill:rgb(158,161,168);fill-rule:nonzero;"/>
            <path id="path4668" d="M-3988.01,1325.46L-3995.88,1325.46L-3995.88,1313.12L-4003.11,1296.33L-3994.9,1296.33L-3993.49,1300.65C-3993.21,1301.49 -3992.96,1302.3 -3992.75,1303.08C-3992.52,1303.86 -3992.32,1304.61 -3992.14,1305.33C-3991.86,1304.26 -3991.6,1303.34 -3991.39,1302.58C-3991.18,1301.8 -3990.99,1301.17 -3990.82,1300.69L-3989.39,1296.33L-3981.24,1296.33L-3988.01,1313.12L-3988.01,1325.46Z" style="fill:rgb(158,161,168);fill-rule:nonzero;"/>
            <path id="path4670" d="M-3980.48,1324.75L-3980.48,1315.59C-3978.94,1317.71 -3977.26,1318.76 -3975.47,1318.76C-3974.79,1318.76 -3974.23,1318.59 -3973.8,1318.24C-3973.38,1317.87 -3973.16,1317.42 -3973.16,1316.88C-3973.16,1316.1 -3973.63,1315.34 -3974.56,1314.59L-3975.84,1313.59C-3976.7,1312.95 -3977.43,1312.32 -3978.03,1311.69C-3978.64,1311.05 -3979.13,1310.39 -3979.5,1309.73C-3979.88,1309.05 -3980.16,1308.35 -3980.33,1307.63C-3980.51,1306.91 -3980.6,1306.16 -3980.6,1305.37C-3980.6,1304.01 -3980.28,1302.59 -3979.65,1301.1C-3979.34,1300.41 -3978.97,1299.78 -3978.56,1299.22C-3978.14,1298.64 -3977.67,1298.13 -3977.13,1297.69C-3975.64,1296.43 -3973.85,1295.8 -3971.75,1295.8C-3969.87,1295.8 -3967.99,1296.3 -3966.09,1297.29L-3966.09,1306.2C-3966.73,1305.2 -3967.46,1304.42 -3968.28,1303.86C-3969.09,1303.28 -3969.9,1302.99 -3970.69,1302.99C-3971.3,1302.99 -3971.79,1303.17 -3972.18,1303.52C-3972.58,1303.86 -3972.79,1304.27 -3972.79,1304.75C-3972.79,1305.52 -3972.25,1306.3 -3971.18,1307.07L-3969.94,1307.99C-3968.28,1309.18 -3967.09,1310.41 -3966.37,1311.67C-3965.64,1312.93 -3965.28,1314.4 -3965.28,1316.09C-3965.28,1318.95 -3966.15,1321.32 -3967.9,1323.18C-3969.65,1325.04 -3971.86,1325.97 -3974.54,1325.97C-3976.39,1325.97 -3978.37,1325.56 -3980.49,1324.75L-3980.48,1324.75Z" style="fill:rgb(158,161,168);fill-rule:nonzero;"/>
            <path id="path4672" d="M-3951.65,1325.46L-3959.52,1325.46L-3959.52,1303.31L-3963.86,1303.31L-3963.86,1296.33L-3947.14,1296.33L-3947.14,1303.31L-3951.65,1303.31L-3951.65,1325.46Z" style="fill:rgb(158,161,168);fill-rule:nonzero;"/>
            <path id="path4674" d="M-3925.58,1325.46L-3933.44,1325.46L-3933.44,1313.75L-3937.2,1313.75L-3937.2,1325.46L-3945.07,1325.46L-3945.07,1296.33L-3937.2,1296.33L-3937.2,1306.63L-3933.44,1306.63L-3933.44,1296.33L-3925.58,1296.33L-3925.58,1325.46Z" style="fill:rgb(158,161,168);fill-rule:nonzero;"/>
            <rect id="path4676" x="-3921.52" y="1296.33" width="7.868" height="29.134" style="fill:rgb(158,161,168);fill-rule:nonzero;"/>
        </g>
        <g id="text854">
            <path id="path856" d="M-4101.73,64.447L-4122.39,64.447L-4122.39,20.746L-4110.59,20.746L-4110.59,53.947L-4101.73,53.947L-4101.73,64.447Z" style="fill:rgb(158,161,168);fill-rule:nonzero;"/>
            <path id="path858" d="M-4066.15,42.738C-4066.15,49.399 -4067.67,54.815 -4070.71,58.985C-4073.73,63.136 -4077.66,65.211 -4082.51,65.211C-4086.81,65.211 -4090.5,63.617 -4093.58,60.428C-4097.44,56.39 -4099.38,50.333 -4099.38,42.257C-4099.38,34.521 -4097.36,28.605 -4093.32,24.511C-4090.32,21.473 -4086.76,19.954 -4082.65,19.954C-4077.61,19.954 -4073.6,22.011 -4070.62,26.124C-4067.64,30.238 -4066.15,35.776 -4066.15,42.738ZM-4078.41,42.823C-4078.41,34.917 -4079.8,30.964 -4082.59,30.964C-4083.99,30.964 -4085.1,32.002 -4085.93,34.077C-4086.74,36.002 -4087.15,38.832 -4087.15,42.569C-4087.15,46.248 -4086.77,49.107 -4086.02,51.145C-4085.24,53.164 -4084.18,54.173 -4082.82,54.173C-4081.42,54.173 -4080.35,53.173 -4079.59,51.173C-4078.8,49.173 -4078.41,46.39 -4078.41,42.823Z" style="fill:rgb(158,161,168);fill-rule:nonzero;"/>
            <path id="path860" d="M-4045.94,39.172L-4029.47,39.172L-4029.47,40.984C-4029.47,49.399 -4030.72,55.456 -4033.23,59.154C-4035.97,63.192 -4040.02,65.211 -4045.38,65.211C-4050.64,65.211 -4054.77,63.23 -4057.77,59.268C-4060.75,55.267 -4062.24,49.777 -4062.24,42.795C-4062.24,35.719 -4060.74,30.143 -4057.74,26.067C-4054.74,21.992 -4050.64,19.954 -4045.43,19.954C-4038.53,19.954 -4033.52,23.558 -4030.4,30.766L-4041.84,34.955C-4042.01,33.577 -4042.4,32.492 -4043.03,31.7C-4043.63,30.889 -4044.39,30.483 -4045.32,30.483C-4048.56,30.483 -4050.19,34.945 -4050.19,43.87C-4050.19,47.663 -4049.83,50.418 -4049.11,52.135C-4048.39,53.852 -4047.25,54.711 -4045.69,54.711C-4045.06,54.711 -4044.5,54.56 -4043.99,54.258C-4043.48,53.956 -4043.05,53.531 -4042.71,52.984C-4042.36,52.437 -4042.08,51.777 -4041.89,51.003C-4041.69,50.211 -4041.58,49.333 -4041.58,48.371L-4045.94,48.371L-4045.94,39.172Z" style="fill:rgb(158,161,168);fill-rule:nonzero;"/>
            <rect id="path862" x="-4024.46" y="20.746" width="11.802" height="43.701" style="fill:rgb(158,161,168);fill-rule:nonzero;"/>
            <path id="path864" d="M-3982,51.003L-3982.68,63.626C-3985.31,64.683 -3987.65,65.211 -3989.73,65.211C-3994.62,65.211 -3998.73,63.419 -4002.07,59.834C-4005.81,55.815 -4007.67,50.126 -4007.67,42.767C-4007.67,35.879 -4005.92,30.351 -4002.41,26.181C-3998.9,22.029 -3994.21,19.954 -3988.34,19.954C-3986.44,19.954 -3984.49,20.312 -3982.51,21.029L-3982.51,33.511C-3984.27,31.756 -3986.07,30.879 -3987.92,30.879C-3990.33,30.879 -3992.22,31.907 -3993.58,33.964C-3994.94,36.04 -3995.62,38.908 -3995.62,42.569C-3995.62,44.342 -3995.45,45.927 -3995.11,47.324C-3994.77,48.72 -3994.29,49.899 -3993.66,50.862C-3993.02,51.824 -3992.24,52.56 -3991.32,53.069C-3990.39,53.579 -3989.33,53.833 -3988.14,53.833C-3986.11,53.833 -3984.06,52.89 -3982,51.003Z" style="fill:rgb(158,161,168);fill-rule:nonzero;"/>
        </g>
    </g>
</svg>
