<?xml version="1.0" encoding="UTF-8" standalone="no"?>
<!DOCTYPE svg PUBLIC "-//W3C//DTD SVG 1.1//EN" "http://www.w3.org/Graphics/SVG/1.1/DTD/svg11.dtd">
<svg width="100%" height="100%" viewBox="0 0 90 380" version="1.1" xmlns="http://www.w3.org/2000/svg" xmlns:xlink="http://www.w3.org/1999/xlink" xml:space="preserve" xmlns:serif="http://www.serif.com/" style="fill-rule:evenodd;clip-rule:evenodd;">
    <g id="Layer-2" serif:id="Layer 2">
        <g id="text989">
        </g>
        <rect id="rect4689" x="0" y="0" width="90" height="380" style="fill:rgb(44,45,48);"/>
        <g id="text80" transform="matrix(1.00498,0,0,0.995047,-5.56788e-06,4.99997)">
            <path id="path4726" d="M29.851,371.706L29.851,363.943L31.853,363.943L32.903,366.668C32.96,366.829 33.024,367.013 33.094,367.221C33.168,367.429 33.249,367.668 33.336,367.94L33.552,368.624C33.475,367.95 33.416,367.373 33.376,366.894C33.336,366.415 33.316,366.013 33.316,365.687L33.316,363.943L35.317,363.943L35.317,371.706L33.316,371.706L32.26,368.85C32.149,368.545 32.049,368.26 31.958,367.995C31.871,367.727 31.794,367.472 31.727,367.231C31.77,367.777 31.802,368.253 31.822,368.659C31.843,369.065 31.853,369.42 31.853,369.725L31.853,371.706L29.851,371.706Z" style="fill:rgb(158,161,168);fill-rule:nonzero;"/>
            <path id="path4728" d="M39.887,371.706L37.791,371.706L37.791,368.418L35.865,363.943L38.052,363.943L38.429,365.094C38.503,365.319 38.568,365.535 38.625,365.743C38.686,365.951 38.739,366.15 38.786,366.341C38.863,366.056 38.93,365.811 38.987,365.607C39.044,365.399 39.095,365.232 39.138,365.104L39.52,363.943L41.692,363.943L39.887,368.418L39.887,371.706Z" style="fill:rgb(158,161,168);fill-rule:nonzero;"/>
            <path id="path4730" d="M41.894,371.515L41.894,369.076C42.306,369.639 42.752,369.921 43.231,369.921C43.412,369.921 43.56,369.874 43.673,369.78C43.787,369.683 43.844,369.562 43.844,369.418C43.844,369.21 43.72,369.008 43.472,368.81L43.13,368.543C42.902,368.372 42.708,368.203 42.547,368.035C42.386,367.865 42.256,367.69 42.155,367.513C42.054,367.332 41.981,367.146 41.934,366.954C41.887,366.763 41.863,366.562 41.863,366.351C41.863,365.989 41.947,365.61 42.115,365.215C42.199,365.03 42.296,364.863 42.406,364.712C42.517,364.558 42.644,364.422 42.789,364.305C43.184,363.969 43.662,363.802 44.222,363.802C44.721,363.802 45.224,363.934 45.73,364.199L45.73,366.572C45.559,366.308 45.365,366.1 45.147,365.949C44.929,365.795 44.714,365.718 44.503,365.718C44.342,365.718 44.21,365.765 44.106,365.858C43.999,365.949 43.945,366.058 43.945,366.185C43.945,366.393 44.087,366.599 44.372,366.804L44.704,367.05C45.147,367.368 45.463,367.695 45.655,368.03C45.849,368.366 45.946,368.758 45.946,369.207C45.946,369.971 45.713,370.601 45.247,371.098C44.781,371.594 44.191,371.842 43.477,371.842C42.985,371.842 42.457,371.733 41.894,371.515L41.894,371.515Z" style="fill:rgb(158,161,168);fill-rule:nonzero;"/>
            <path id="path4732" d="M49.576,371.706L47.48,371.706L47.48,365.803L46.323,365.803L46.323,363.943L50.778,363.943L50.778,365.803L49.576,365.803L49.576,371.706Z" style="fill:rgb(158,161,168);fill-rule:nonzero;"/>
            <path id="path4734" d="M56.525,371.706L54.428,371.706L54.428,368.584L53.428,368.584L53.428,371.706L51.331,371.706L51.331,363.943L53.428,363.943L53.428,366.688L54.428,366.688L54.428,363.943L56.525,363.943L56.525,371.706Z" style="fill:rgb(158,161,168);fill-rule:nonzero;"/>
            <rect id="path4736" x="57.606" y="363.943" width="2.097" height="7.763" style="fill:rgb(158,161,168);fill-rule:nonzero;"/>
        </g>
        <g id="text4987">
        </g>
        <g id="text1042">
        </g>
        <g id="text995">
        </g>
        <path id="path1051" d="M37.449,38.475L37.449,31.471L41.89,31.471L41.89,38.475L46.331,38.475L46.331,31.471" style="fill:none;stroke:rgb(158,161,168);stroke-width:1.01px;"/>
        <path id="path1055" d="M55.339,38.602L64.461,32.19L64.461,38.602" style="fill:none;stroke:rgb(158,161,168);stroke-width:0.97px;"/>
        <path id="path1057" d="M85.688,38.602L76.567,32.19L76.567,38.602" style="fill:none;stroke:rgb(158,161,168);stroke-width:0.97px;"/>
        <path id="path1070" d="M22.389,38.481L19.917,38.481L19.917,30.537L19.917,38.481L17.445,38.481L17.445,30.537L17.445,38.481L14.972,38.481L14.972,30.537L14.972,38.481L12.5,38.481L12.5,30.537L12.5,38.481" style="fill:none;stroke:rgb(158,161,168);stroke-width:1px;"/>
        <g id="text1074" transform="matrix(1,0,0,1,0,-0.570167)">
            <path id="path1076" d="M30.034,20.56L30.034,21.534C29.756,21.398 29.523,21.331 29.336,21.331C29.079,21.331 28.859,21.395 28.674,21.523C28.49,21.648 28.338,21.843 28.216,22.107C28.098,22.371 28.01,22.706 27.951,23.112C27.895,23.515 27.867,23.992 27.867,24.544C27.867,26.53 28.376,27.523 29.393,27.523C29.57,27.523 29.784,27.468 30.034,27.357L30.034,28.351C29.773,28.497 29.482,28.57 29.159,28.57C27.53,28.57 26.716,27.24 26.716,24.581C26.716,23.143 26.914,22.074 27.31,21.372C27.709,20.671 28.319,20.32 29.138,20.32C29.44,20.32 29.739,20.4 30.034,20.56L30.034,20.56Z" style="fill:rgb(158,161,168);fill-rule:nonzero;"/>
            <path id="path1078" d="M30.94,20.43L32.023,20.43L32.023,27.555L33.794,27.555L33.794,28.471L30.94,28.471L30.94,20.43Z" style="fill:rgb(158,161,168);fill-rule:nonzero;"/>
            <path id="path1080" d="M38.508,24.648C38.508,26.068 38.35,27.077 38.034,27.674C37.718,28.272 37.188,28.57 36.445,28.57C35.664,28.57 35.114,28.249 34.794,27.607C34.478,26.978 34.32,25.862 34.32,24.258C34.32,22.827 34.477,21.815 34.789,21.221C35.105,20.624 35.64,20.325 36.393,20.325C37.067,20.325 37.567,20.556 37.893,21.018C38.109,21.327 38.265,21.766 38.362,22.336C38.459,22.864 38.508,23.634 38.508,24.648L38.508,24.648ZM37.372,24.763C37.372,23.371 37.31,22.447 37.185,21.992C37.06,21.534 36.805,21.305 36.419,21.305C36.034,21.305 35.777,21.515 35.648,21.935C35.523,22.358 35.461,23.209 35.461,24.487C35.461,25.664 35.527,26.48 35.659,26.935C35.794,27.365 36.048,27.581 36.419,27.581C36.784,27.581 37.034,27.379 37.169,26.976C37.305,26.577 37.372,25.839 37.372,24.763L37.372,24.763Z" style="fill:rgb(158,161,168);fill-rule:nonzero;"/>
            <path id="path1082" d="M42.742,20.56L42.742,21.534C42.464,21.398 42.232,21.331 42.044,21.331C41.787,21.331 41.567,21.395 41.383,21.523C41.199,21.648 41.046,21.843 40.924,22.107C40.806,22.371 40.718,22.706 40.659,23.112C40.603,23.515 40.576,23.992 40.576,24.544C40.576,26.53 41.084,27.523 42.102,27.523C42.279,27.523 42.492,27.468 42.742,27.357L42.742,28.351C42.482,28.497 42.19,28.57 41.867,28.57C40.239,28.57 39.424,27.24 39.424,24.581C39.424,23.143 39.622,22.074 40.018,21.372C40.418,20.671 41.027,20.32 41.846,20.32C42.148,20.32 42.447,20.4 42.742,20.56L42.742,20.56Z" style="fill:rgb(158,161,168);fill-rule:nonzero;"/>
            <path id="path1084" d="M43.648,20.43L44.732,20.43L44.732,24.325L46.242,20.43L47.336,20.43L45.753,24.325L47.461,28.471L46.242,28.471L44.732,24.325L44.732,28.471L43.648,28.471L43.648,20.43Z" style="fill:rgb(158,161,168);fill-rule:nonzero;"/>
            <path id="path1086" d="M54.383,24.648C54.383,26.068 54.225,27.077 53.909,27.674C53.593,28.272 53.063,28.57 52.32,28.57C51.539,28.57 50.989,28.249 50.669,27.607C50.353,26.978 50.195,25.862 50.195,24.258C50.195,22.827 50.352,21.815 50.664,21.221C50.98,20.624 51.515,20.325 52.268,20.325C52.942,20.325 53.442,20.556 53.768,21.018C53.984,21.327 54.14,21.766 54.237,22.336C54.334,22.864 54.383,23.634 54.383,24.648L54.383,24.648ZM53.247,24.763C53.247,23.371 53.185,22.447 53.06,21.992C52.935,21.534 52.68,21.305 52.294,21.305C51.909,21.305 51.652,21.515 51.523,21.935C51.398,22.358 51.336,23.209 51.336,24.487C51.336,25.664 51.402,26.48 51.534,26.935C51.669,27.365 51.923,27.581 52.294,27.581C52.659,27.581 52.909,27.379 53.044,26.976C53.18,26.577 53.247,25.839 53.247,24.763Z" style="fill:rgb(158,161,168);fill-rule:nonzero;"/>
            <path id="path1089" d="M55.461,20.43L56.523,20.43L56.523,26.112C56.523,26.692 56.576,27.077 56.68,27.268C56.787,27.459 56.999,27.555 57.315,27.555C57.631,27.555 57.839,27.471 57.94,27.305C58.044,27.134 58.096,26.789 58.096,26.268L58.096,20.43L59.159,20.43L59.159,26.268C59.159,27.143 59.025,27.735 58.758,28.044C58.438,28.395 57.951,28.57 57.294,28.57C56.572,28.57 56.063,28.344 55.768,27.893C55.563,27.584 55.461,26.99 55.461,26.112L55.461,20.43Z" style="fill:rgb(158,161,168);fill-rule:nonzero;"/>
            <path id="path1091" d="M59.758,20.43L63.284,20.43L63.284,21.377L62.07,21.377L62.07,28.471L61.008,28.471L61.008,21.377L59.758,21.377L59.758,20.43Z" style="fill:rgb(158,161,168);fill-rule:nonzero;"/>
        </g>
        <g id="text1096" transform="matrix(1,0,0,1,1,-4.00004)">
            <path id="path1112" d="M9.318,103.96L9.318,104.934C9.04,104.799 8.807,104.731 8.62,104.731C8.363,104.731 8.142,104.795 7.958,104.924C7.774,105.049 7.622,105.243 7.5,105.507C7.382,105.771 7.293,106.106 7.234,106.512C7.179,106.915 7.151,107.392 7.151,107.944C7.151,109.931 7.66,110.924 8.677,110.924C8.854,110.924 9.068,110.868 9.318,110.757L9.318,111.752C9.057,111.898 8.766,111.971 8.443,111.971C6.814,111.971 6,110.641 6,107.981C6,106.543 6.198,105.474 6.594,104.773C6.993,104.071 7.602,103.721 8.422,103.721C8.724,103.721 9.023,103.8 9.318,103.96L9.318,103.96Z" style="fill:rgb(158,161,168);fill-rule:nonzero;"/>
            <path id="path1114" d="M10.224,103.83L11.307,103.83L11.307,110.955L13.078,110.955L13.078,111.872L10.224,111.872L10.224,103.83Z" style="fill:rgb(158,161,168);fill-rule:nonzero;"/>
            <path id="path1116" d="M13.766,103.83L14.849,103.83L14.849,107.726L16.359,103.83L17.453,103.83L15.87,107.726L17.578,111.872L16.359,111.872L14.849,107.726L14.849,111.872L13.766,111.872L13.766,103.83Z" style="fill:rgb(158,161,168);fill-rule:nonzero;"/>
            <rect id="path1118" x="20.474" y="103.83" width="1.083" height="8.042" style="fill:rgb(158,161,168);fill-rule:nonzero;"/>
            <path id="path1122" d="M22.807,103.83L23.818,103.83L24.896,107.038C25.208,107.944 25.484,108.911 25.724,109.939C25.637,109.318 25.573,108.755 25.531,108.252C25.49,107.748 25.469,107.274 25.469,106.83L25.469,103.83L26.557,103.83L26.557,111.872L25.542,111.872L24.328,108.252C24.217,107.915 24.111,107.569 24.01,107.215C23.913,106.861 23.823,106.49 23.74,106.101C23.733,106.052 23.72,105.993 23.703,105.924C23.689,105.854 23.672,105.774 23.651,105.684C23.661,105.774 23.67,105.852 23.677,105.918C23.684,105.981 23.689,106.035 23.693,106.08L23.75,106.898L23.807,107.892C23.811,107.948 23.812,108.016 23.812,108.095C23.816,108.175 23.818,108.266 23.818,108.366L23.875,111.872L22.807,111.872L22.807,103.83Z" style="fill:rgb(158,161,168);fill-rule:nonzero;"/>
        </g>
        <g id="text1100" transform="matrix(1.01294,0,0,0.987223,-3.00001,-4)">
            <path id="path1126" d="M62.594,105.306L62.594,106.292C62.313,106.155 62.077,106.086 61.887,106.086C61.627,106.086 61.403,106.151 61.217,106.282C61.031,106.408 60.876,106.605 60.753,106.872C60.633,107.14 60.544,107.479 60.484,107.891C60.427,108.299 60.399,108.782 60.399,109.341C60.399,111.353 60.915,112.359 61.945,112.359C62.125,112.359 62.341,112.303 62.594,112.19L62.594,113.198C62.33,113.346 62.035,113.42 61.708,113.42C60.058,113.42 59.233,112.073 59.233,109.378C59.233,107.922 59.434,106.839 59.835,106.129C60.239,105.418 60.857,105.063 61.687,105.063C61.993,105.063 62.295,105.144 62.594,105.306L62.594,105.306Z" style="fill:rgb(158,161,168);fill-rule:nonzero;"/>
            <path id="path1130" d="M63.512,105.174L64.609,105.174L64.609,112.391L66.403,112.391L66.403,113.319L63.512,113.319L63.512,105.174Z" style="fill:rgb(158,161,168);fill-rule:nonzero;"/>
            <path id="path1133" d="M67.1,105.174L68.197,105.174L68.197,109.12L69.727,105.174L70.835,105.174L69.231,109.12L70.961,113.319L69.727,113.319L68.197,109.12L68.197,113.319L67.1,113.319L67.1,105.174Z" style="fill:rgb(158,161,168);fill-rule:nonzero;"/>
            <path id="path1135" d="M73.895,105.174L76.828,105.174L76.828,106.102L74.992,106.102L74.992,108.677L76.649,108.677L76.649,109.605L74.992,109.605L74.992,113.319L73.895,113.319L73.895,105.174Z" style="fill:rgb(158,161,168);fill-rule:nonzero;"/>
            <path id="path1137" d="M78.057,105.174L78.996,105.174L79.714,108.497C79.802,108.912 79.881,109.329 79.951,109.748C80.025,110.163 80.092,110.599 80.152,111.056C80.159,110.996 80.164,110.951 80.168,110.919C80.171,110.884 80.175,110.859 80.178,110.845L80.331,109.911L80.468,109.025L80.59,108.439L81.228,105.174L82.178,105.174L82.927,113.319L81.877,113.319L81.692,110.555C81.685,110.414 81.678,110.293 81.671,110.191C81.668,110.089 81.666,110.004 81.666,109.938L81.618,108.846L81.592,107.843C81.592,107.836 81.59,107.822 81.587,107.801C81.587,107.776 81.585,107.745 81.581,107.706L81.555,107.87C81.527,108.063 81.5,108.232 81.476,108.376C81.455,108.52 81.435,108.642 81.418,108.74L81.281,109.484L81.228,109.763L80.542,113.319L79.803,113.319L79.16,110.249C79.072,109.844 78.993,109.435 78.922,109.02C78.856,108.601 78.794,108.163 78.738,107.706L78.421,113.319L77.387,113.319L78.057,105.174Z" style="fill:rgb(158,161,168);fill-rule:nonzero;"/>
        </g>
        <g id="text1145" transform="matrix(1,0,0,1,0,15.6411)">
            <path id="path1151" d="M27.456,136.218L28.523,136.218L29.008,139.187L29.091,139.723L29.263,140.89C29.291,141.088 29.315,141.269 29.336,141.432C29.36,141.595 29.381,141.743 29.398,141.874L29.451,142.27C29.461,142.19 29.47,142.119 29.477,142.057C29.484,141.994 29.49,141.942 29.497,141.901L29.638,140.968L29.82,139.744C29.838,139.633 29.853,139.531 29.867,139.437C29.885,139.343 29.9,139.26 29.914,139.187L30.435,136.218L31.445,136.218L29.867,144.26L29.008,144.26L27.456,136.218Z" style="fill:rgb(158,161,168);fill-rule:nonzero;"/>
            <path id="path1153" d="M36.081,140.437C36.081,141.857 35.923,142.866 35.607,143.463C35.291,144.06 34.761,144.359 34.018,144.359C33.237,144.359 32.687,144.038 32.367,143.395C32.051,142.767 31.893,141.651 31.893,140.046C31.893,138.616 32.049,137.604 32.362,137.01C32.678,136.413 33.213,136.114 33.966,136.114C34.64,136.114 35.14,136.345 35.466,136.807C35.681,137.116 35.838,137.555 35.935,138.124C36.032,138.652 36.081,139.423 36.081,140.437ZM34.945,140.552C34.945,139.159 34.883,138.236 34.758,137.781C34.633,137.322 34.378,137.093 33.992,137.093C33.607,137.093 33.35,137.303 33.221,137.723C33.096,138.147 33.034,138.998 33.034,140.276C33.034,141.453 33.1,142.269 33.232,142.723C33.367,143.154 33.621,143.369 33.992,143.369C34.357,143.369 34.607,143.168 34.742,142.765C34.878,142.366 34.945,141.628 34.945,140.552L34.945,140.552Z" style="fill:rgb(158,161,168);fill-rule:nonzero;"/>
            <path id="path1156" d="M37.159,136.218L38.242,136.218L38.242,143.343L40.013,143.343L40.013,144.26L37.159,144.26L37.159,136.218Z" style="fill:rgb(158,161,168);fill-rule:nonzero;"/>
            <path id="path1160" d="M39.872,136.218L43.398,136.218L43.398,137.166L42.185,137.166L42.185,144.26L41.122,144.26L41.122,137.166L39.872,137.166L39.872,136.218Z" style="fill:rgb(158,161,168);fill-rule:nonzero;"/>
            <path id="path1163" d="M44.992,136.218L45.836,136.218L47.56,144.26L46.487,144.26L46.185,142.692L44.591,142.692L44.284,144.26L43.242,144.26L44.992,136.218ZM46.029,141.854L45.789,140.572C45.629,139.701 45.499,138.77 45.398,137.781C45.35,138.263 45.287,138.753 45.211,139.249C45.135,139.743 45.044,140.267 44.94,140.822L44.742,141.854L46.029,141.854Z" style="fill:rgb(158,161,168);fill-rule:nonzero;"/>
            <path id="path1166" d="M50.107,140.031L52.076,140.031L52.076,140.343C52.076,141.909 51.938,142.966 51.664,143.515C51.393,144.078 50.886,144.359 50.143,144.359C49.376,144.359 48.829,144.046 48.503,143.421C48.18,142.796 48.018,141.746 48.018,140.27C48.018,138.583 48.195,137.46 48.549,136.901C48.883,136.376 49.395,136.114 50.086,136.114C50.614,136.114 51.025,136.241 51.32,136.494C51.619,136.751 51.852,137.173 52.018,137.76L51.008,138.182C50.963,137.97 50.912,137.793 50.857,137.651C50.801,137.505 50.74,137.392 50.674,137.312C50.543,137.149 50.345,137.067 50.081,137.067C49.72,137.067 49.473,137.289 49.341,137.734C49.209,138.199 49.143,139.034 49.143,140.239C49.143,141.458 49.211,142.282 49.346,142.713C49.482,143.144 49.737,143.359 50.112,143.359C50.456,143.359 50.697,143.206 50.836,142.901C50.978,142.574 51.05,142.05 51.05,141.328L51.05,141.109L51.05,140.947L50.107,140.947L50.107,140.031Z" style="fill:rgb(158,161,168);fill-rule:nonzero;"/>
            <path id="path1169" d="M53.159,136.218L56.039,136.218L56.039,137.135L54.242,137.135L54.242,139.682L55.836,139.682L55.836,140.598L54.242,140.598L54.242,143.343L56.039,143.343L56.039,144.26L53.159,144.26L53.159,136.218Z" style="fill:rgb(158,161,168);fill-rule:nonzero;"/>
            <path id="path1172" d="M63.268,140.437C63.268,141.857 63.11,142.866 62.794,143.463C62.478,144.06 61.949,144.359 61.206,144.359C60.424,144.359 59.874,144.038 59.555,143.395C59.239,142.767 59.081,141.651 59.081,140.046C59.081,138.616 59.237,137.604 59.549,137.01C59.865,136.413 60.4,136.114 61.154,136.114C61.827,136.114 62.327,136.345 62.654,136.807C62.869,137.116 63.025,137.555 63.122,138.124C63.22,138.652 63.268,139.423 63.268,140.437L63.268,140.437ZM62.133,140.552C62.133,139.159 62.07,138.236 61.945,137.781C61.82,137.322 61.565,137.093 61.18,137.093C60.794,137.093 60.537,137.303 60.409,137.723C60.284,138.147 60.221,138.998 60.221,140.276C60.221,141.453 60.287,142.269 60.419,142.723C60.555,143.154 60.808,143.369 61.18,143.369C61.544,143.369 61.794,143.168 61.93,142.765C62.065,142.366 62.133,141.628 62.133,140.552L62.133,140.552Z" style="fill:rgb(158,161,168);fill-rule:nonzero;"/>
            <path id="path1175" d="M64.346,136.218L67.242,136.218L67.242,137.135L65.43,137.135L65.43,139.677L67.065,139.677L67.065,140.593L65.43,140.593L65.43,144.26L64.346,144.26L64.346,136.218Z" style="fill:rgb(158,161,168);fill-rule:nonzero;"/>
            <path id="path1177" d="M68.076,136.218L70.971,136.218L70.971,137.135L69.159,137.135L69.159,139.677L70.794,139.677L70.794,140.593L69.159,140.593L69.159,144.26L68.076,144.26L68.076,136.218Z" style="fill:rgb(158,161,168);fill-rule:nonzero;"/>
            <path id="path1179" d="M74.487,136.385L74.487,137.442C74.157,137.206 73.86,137.088 73.596,137.088C73.312,137.088 73.079,137.189 72.898,137.39C72.718,137.581 72.628,137.836 72.628,138.156C72.628,138.437 72.692,138.678 72.82,138.88C72.886,138.987 72.994,139.126 73.143,139.296C73.296,139.466 73.492,139.671 73.732,139.911C74.173,140.359 74.473,140.746 74.633,141.072C74.793,141.388 74.872,141.776 74.872,142.234C74.872,142.855 74.697,143.368 74.346,143.77C73.996,144.163 73.546,144.359 72.997,144.359C72.536,144.359 72.142,144.232 71.815,143.979L71.815,142.906C72.201,143.187 72.551,143.328 72.867,143.328C73.162,143.328 73.393,143.23 73.56,143.036C73.727,142.838 73.81,142.571 73.81,142.234C73.81,141.942 73.746,141.68 73.617,141.447C73.551,141.336 73.459,141.21 73.341,141.067C73.223,140.921 73.076,140.76 72.898,140.583C72.624,140.312 72.397,140.072 72.216,139.864C72.036,139.656 71.902,139.473 71.815,139.317C71.648,139.012 71.565,138.626 71.565,138.161C71.565,137.532 71.728,137.034 72.055,136.666C72.385,136.295 72.827,136.109 73.383,136.109C73.768,136.109 74.136,136.201 74.487,136.385L74.487,136.385Z" style="fill:rgb(158,161,168);fill-rule:nonzero;"/>
            <path id="path1181" d="M75.784,136.218L78.664,136.218L78.664,137.135L76.867,137.135L76.867,139.682L78.461,139.682L78.461,140.598L76.867,140.598L76.867,143.343L78.664,143.343L78.664,144.26L75.784,144.26L75.784,136.218Z" style="fill:rgb(158,161,168);fill-rule:nonzero;"/>
            <path id="path1183" d="M79.018,136.218L82.544,136.218L82.544,137.166L81.331,137.166L81.331,144.26L80.268,144.26L80.268,137.166L79.018,137.166L79.018,136.218Z" style="fill:rgb(158,161,168);fill-rule:nonzero;"/>
        </g>
        <g id="text1149" transform="matrix(1,0,0,1,2,15.6411)">
            <path id="path1186" d="M9.318,136.348L9.318,137.322C9.04,137.187 8.807,137.119 8.62,137.119C8.363,137.119 8.142,137.184 7.958,137.312C7.774,137.437 7.622,137.631 7.5,137.895C7.382,138.159 7.293,138.494 7.234,138.901C7.179,139.303 7.151,139.781 7.151,140.333C7.151,142.319 7.66,143.312 8.677,143.312C8.854,143.312 9.068,143.256 9.318,143.145L9.318,144.14C9.057,144.286 8.766,144.359 8.443,144.359C6.814,144.359 6,143.029 6,140.369C6,138.932 6.198,137.862 6.594,137.161C6.993,136.46 7.602,136.109 8.422,136.109C8.724,136.109 9.023,136.189 9.318,136.348L9.318,136.348Z" style="fill:rgb(158,161,168);fill-rule:nonzero;"/>
            <path id="path1188" d="M9.583,136.218L10.651,136.218L11.135,139.187L11.219,139.723L11.391,140.89C11.418,141.088 11.443,141.269 11.464,141.432C11.488,141.595 11.509,141.743 11.526,141.874L11.578,142.27C11.589,142.19 11.597,142.119 11.604,142.057C11.611,141.994 11.618,141.942 11.625,141.901L11.766,140.968L11.948,139.744C11.965,139.633 11.981,139.531 11.995,139.437C12.012,139.343 12.028,139.26 12.042,139.187L12.563,136.218L13.573,136.218L11.995,144.26L11.135,144.26L9.583,136.218Z" style="fill:rgb(158,161,168);fill-rule:nonzero;"/>
        </g>
        <g id="text1193" transform="matrix(1,0,0,1,9.45831,59.901)">
            <path id="path1203" d="M32.914,191.958L34.341,191.958C35.029,191.958 35.529,192.132 35.841,192.479C36.154,192.83 36.31,193.385 36.31,194.146C36.31,195.215 35.996,195.906 35.367,196.219C35.051,196.361 34.595,196.432 33.997,196.432L33.997,200L32.914,200L32.914,191.958ZM33.997,195.505C34.445,195.505 34.754,195.415 34.924,195.234C35.098,195.05 35.185,194.724 35.185,194.255C35.185,193.776 35.102,193.425 34.935,193.203C34.768,192.981 34.506,192.87 34.148,192.87L33.997,192.87L33.997,195.505Z" style="fill:rgb(158,161,168);fill-rule:nonzero;"/>
            <path id="path1205" d="M41.169,196.177C41.169,197.597 41.011,198.606 40.695,199.203C40.379,199.8 39.85,200.099 39.107,200.099C38.326,200.099 37.775,199.778 37.456,199.135C37.14,198.507 36.982,197.391 36.982,195.786C36.982,194.356 37.138,193.344 37.451,192.75C37.766,192.153 38.301,191.854 39.055,191.854C39.728,191.854 40.228,192.085 40.555,192.547C40.77,192.856 40.926,193.295 41.023,193.865C41.121,194.392 41.169,195.163 41.169,196.177L41.169,196.177ZM40.034,196.292C40.034,194.899 39.971,193.976 39.846,193.521C39.721,193.063 39.466,192.833 39.081,192.833C38.695,192.833 38.438,193.043 38.31,193.464C38.185,193.887 38.122,194.738 38.122,196.016C38.122,197.193 38.188,198.009 38.32,198.464C38.456,198.894 38.709,199.109 39.081,199.109C39.445,199.109 39.695,198.908 39.831,198.505C39.966,198.106 40.034,197.368 40.034,196.292L40.034,196.292Z" style="fill:rgb(158,161,168);fill-rule:nonzero;"/>
            <path id="path1207" d="M42.247,191.958L43.674,191.958C44.265,191.958 44.704,192.099 44.992,192.38C45.357,192.745 45.539,193.302 45.539,194.052C45.539,194.628 45.442,195.092 45.247,195.443C45.056,195.79 44.782,196.005 44.424,196.089L45.904,200L44.805,200L43.331,196.062L43.331,200L42.247,200L42.247,191.958ZM43.331,195.521C43.751,195.521 44.048,195.424 44.221,195.229C44.395,195.035 44.482,194.707 44.482,194.245C44.482,193.995 44.463,193.781 44.424,193.604C44.39,193.427 44.332,193.283 44.253,193.172C44.176,193.061 44.075,192.979 43.95,192.927C43.829,192.875 43.683,192.849 43.513,192.849L43.331,192.849L43.331,195.521Z" style="fill:rgb(158,161,168);fill-rule:nonzero;"/>
            <path id="path1209" d="M46.211,191.958L49.737,191.958L49.737,192.906L48.523,192.906L48.523,200L47.461,200L47.461,192.906L46.211,192.906L46.211,191.958Z" style="fill:rgb(158,161,168);fill-rule:nonzero;"/>
            <path id="path1211" d="M51.331,191.958L52.174,191.958L53.898,200L52.826,200L52.523,198.432L50.93,198.432L50.622,200L49.581,200L51.331,191.958ZM52.367,197.594L52.128,196.312C51.968,195.441 51.838,194.51 51.737,193.521C51.688,194.003 51.626,194.493 51.549,194.99C51.473,195.483 51.383,196.007 51.279,196.562L51.081,197.594L52.367,197.594Z" style="fill:rgb(158,161,168);fill-rule:nonzero;"/>
            <path id="path1213" d="M54.919,191.958L55.846,191.958L56.555,195.24C56.641,195.649 56.72,196.061 56.789,196.474C56.862,196.884 56.928,197.314 56.987,197.766C56.994,197.707 56.999,197.661 57.002,197.63C57.006,197.595 57.01,197.571 57.013,197.557L57.164,196.635L57.299,195.76L57.419,195.182L58.049,191.958L58.987,191.958L59.727,200L58.69,200L58.508,197.271C58.501,197.132 58.494,197.012 58.487,196.911C58.483,196.811 58.482,196.727 58.482,196.661L58.435,195.583L58.409,194.594C58.409,194.587 58.407,194.573 58.403,194.552C58.403,194.528 58.402,194.497 58.398,194.458L58.372,194.62C58.344,194.811 58.318,194.977 58.294,195.12C58.273,195.262 58.254,195.382 58.237,195.479L58.101,196.214L58.049,196.49L57.372,200L56.643,200L56.008,196.969C55.921,196.569 55.843,196.165 55.773,195.755C55.707,195.342 55.647,194.91 55.591,194.458L55.279,200L54.258,200L54.919,191.958Z" style="fill:rgb(158,161,168);fill-rule:nonzero;"/>
            <path id="path1215" d="M60.622,191.958L63.503,191.958L63.503,192.875L61.706,192.875L61.706,195.422L63.299,195.422L63.299,196.339L61.706,196.339L61.706,199.083L63.503,199.083L63.503,200L60.622,200L60.622,191.958Z" style="fill:rgb(158,161,168);fill-rule:nonzero;"/>
            <path id="path1217" d="M64.497,191.958L65.508,191.958L66.586,195.167C66.898,196.073 67.174,197.04 67.414,198.068C67.327,197.446 67.263,196.884 67.221,196.38C67.18,195.877 67.159,195.403 67.159,194.958L67.159,191.958L68.247,191.958L68.247,200L67.232,200L66.018,196.38C65.907,196.043 65.801,195.698 65.7,195.344C65.603,194.99 65.513,194.618 65.43,194.229C65.423,194.181 65.411,194.122 65.393,194.052C65.38,193.983 65.362,193.903 65.341,193.813C65.352,193.903 65.36,193.981 65.367,194.047C65.374,194.109 65.38,194.163 65.383,194.208L65.44,195.026L65.497,196.021C65.501,196.076 65.503,196.144 65.503,196.224C65.506,196.304 65.508,196.394 65.508,196.495L65.565,200L64.498,200L64.497,191.958Z" style="fill:rgb(158,161,168);fill-rule:nonzero;"/>
            <path id="path1219" d="M68.857,191.958L72.383,191.958L72.383,192.906L71.169,192.906L71.169,200L70.107,200L70.107,192.906L68.857,192.906L68.857,191.958Z" style="fill:rgb(158,161,168);fill-rule:nonzero;"/>
            <path id="path1221" d="M77.086,196.177C77.086,197.597 76.928,198.606 76.612,199.203C76.296,199.8 75.766,200.099 75.023,200.099C74.242,200.099 73.692,199.778 73.372,199.135C73.056,198.507 72.898,197.391 72.898,195.786C72.898,194.356 73.055,193.344 73.367,192.75C73.683,192.153 74.218,191.854 74.971,191.854C75.645,191.854 76.145,192.085 76.471,192.547C76.687,192.856 76.843,193.295 76.94,193.865C77.037,194.392 77.086,195.163 77.086,196.177L77.086,196.177ZM75.951,196.292C75.951,194.899 75.888,193.976 75.763,193.521C75.638,193.063 75.383,192.833 74.997,192.833C74.612,192.833 74.355,193.043 74.227,193.464C74.102,193.887 74.039,194.738 74.039,196.016C74.039,197.193 74.105,198.009 74.237,198.464C74.372,198.894 74.626,199.109 74.997,199.109C75.362,199.109 75.612,198.908 75.747,198.505C75.883,198.106 75.95,197.368 75.95,196.292L75.951,196.292Z" style="fill:rgb(158,161,168);fill-rule:nonzero;"/>
        </g>
        <g id="g1201" transform="matrix(1,0,0,1,2,65.6411)">
            <path id="path1197" d="M9.318,136.348L9.318,137.322C9.04,137.187 8.807,137.119 8.62,137.119C8.363,137.119 8.142,137.184 7.958,137.312C7.774,137.437 7.622,137.631 7.5,137.895C7.382,138.159 7.293,138.494 7.234,138.901C7.179,139.303 7.151,139.781 7.151,140.333C7.151,142.319 7.66,143.312 8.677,143.312C8.854,143.312 9.068,143.256 9.318,143.145L9.318,144.14C9.057,144.286 8.766,144.359 8.443,144.359C6.814,144.359 6,143.029 6,140.369C6,138.932 6.198,137.862 6.594,137.161C6.993,136.46 7.602,136.109 8.422,136.109C8.724,136.109 9.023,136.189 9.318,136.348L9.318,136.348Z" style="fill:rgb(158,161,168);fill-rule:nonzero;"/>
            <path id="path1199" d="M9.583,136.218L10.651,136.218L11.135,139.187L11.219,139.723L11.391,140.89C11.418,141.088 11.443,141.269 11.464,141.432C11.488,141.595 11.509,141.743 11.526,141.874L11.578,142.27C11.589,142.19 11.597,142.119 11.604,142.057C11.611,141.994 11.618,141.942 11.625,141.901L11.766,140.968L11.948,139.744C11.965,139.633 11.981,139.531 11.995,139.437C12.012,139.343 12.028,139.26 12.042,139.187L12.563,136.218L13.573,136.218L11.995,144.26L11.135,144.26L9.583,136.218Z" style="fill:rgb(158,161,168);fill-rule:nonzero;"/>
        </g>
        <g id="text1227" transform="matrix(1,0,0,1,-11.4583,-27)">
            <path id="path1235" d="M60.758,232.672L62.727,232.672L62.727,232.984C62.727,234.55 62.589,235.608 62.315,236.156C62.044,236.719 61.537,237 60.794,237C60.027,237 59.48,236.687 59.154,236.062C58.831,235.437 58.669,234.387 58.669,232.911C58.669,231.224 58.846,230.101 59.201,229.542C59.534,229.017 60.046,228.755 60.737,228.755C61.265,228.755 61.676,228.882 61.971,229.135C62.27,229.392 62.503,229.814 62.669,230.401L61.659,230.823C61.614,230.611 61.563,230.434 61.508,230.292C61.452,230.146 61.391,230.033 61.326,229.953C61.194,229.79 60.996,229.708 60.732,229.708C60.371,229.708 60.124,229.931 59.992,230.375C59.86,230.84 59.794,231.675 59.794,232.88C59.794,234.099 59.862,234.924 59.997,235.354C60.133,235.785 60.388,236 60.763,236C61.107,236 61.348,235.847 61.487,235.542C61.629,235.215 61.7,234.691 61.7,233.969L61.7,233.75L61.7,233.589L60.758,233.589L60.758,232.672Z" style="fill:rgb(158,161,168);fill-rule:nonzero;"/>
            <path id="path1237" d="M64.956,228.859L65.799,228.859L67.523,236.901L66.451,236.901L66.148,235.333L64.555,235.333L64.247,236.901L63.206,236.901L64.956,228.859ZM65.992,234.495L65.753,233.214C65.593,232.342 65.463,231.411 65.362,230.422C65.313,230.905 65.251,231.394 65.174,231.891C65.098,232.384 65.008,232.908 64.904,233.464L64.706,234.495L65.992,234.495Z" style="fill:rgb(158,161,168);fill-rule:nonzero;"/>
            <rect id="path1239" x="68.164" y="228.859" width="1.083" height="8.042" style="fill:rgb(158,161,168);fill-rule:nonzero;"/>
            <path id="path1242" d="M70.497,228.859L71.508,228.859L72.586,232.068C72.898,232.974 73.174,233.941 73.414,234.969C73.327,234.347 73.263,233.785 73.221,233.281C73.18,232.778 73.159,232.304 73.159,231.859L73.159,228.859L74.247,228.859L74.247,236.901L73.232,236.901L72.018,233.281C71.907,232.944 71.801,232.599 71.7,232.245C71.603,231.891 71.513,231.519 71.43,231.13C71.423,231.082 71.41,231.023 71.393,230.953C71.38,230.884 71.362,230.804 71.341,230.714C71.352,230.804 71.36,230.882 71.367,230.948C71.374,231.01 71.38,231.064 71.383,231.109L71.44,231.927L71.497,232.922C71.501,232.977 71.503,233.045 71.503,233.125C71.506,233.205 71.508,233.295 71.508,233.396L71.565,236.901L70.498,236.901L70.497,228.859Z" style="fill:rgb(158,161,168);fill-rule:nonzero;"/>
        </g>
        <g id="g1233" transform="matrix(1,0,0,1,2,115.641)">
            <path id="path1229" d="M9.318,136.348L9.318,137.322C9.04,137.187 8.807,137.119 8.62,137.119C8.363,137.119 8.142,137.184 7.958,137.312C7.774,137.437 7.622,137.631 7.5,137.895C7.382,138.159 7.293,138.494 7.234,138.901C7.179,139.303 7.151,139.781 7.151,140.333C7.151,142.319 7.66,143.312 8.677,143.312C8.854,143.312 9.068,143.256 9.318,143.145L9.318,144.14C9.057,144.286 8.766,144.359 8.443,144.359C6.814,144.359 6,143.029 6,140.369C6,138.932 6.198,137.862 6.594,137.161C6.993,136.46 7.602,136.109 8.422,136.109C8.724,136.109 9.023,136.189 9.318,136.348L9.318,136.348Z" style="fill:rgb(158,161,168);fill-rule:nonzero;"/>
            <path id="path1231" d="M9.583,136.218L10.651,136.218L11.135,139.187L11.219,139.723L11.391,140.89C11.418,141.088 11.443,141.269 11.464,141.432C11.488,141.595 11.509,141.743 11.526,141.874L11.578,142.27C11.589,142.19 11.597,142.119 11.604,142.057C11.611,141.994 11.618,141.942 11.625,141.901L11.766,140.968L11.948,139.744C11.965,139.633 11.981,139.531 11.995,139.437C12.012,139.343 12.028,139.26 12.042,139.187L12.563,136.218L13.573,136.218L11.995,144.26L11.135,144.26L9.583,136.218Z" style="fill:rgb(158,161,168);fill-rule:nonzero;"/>
        </g>
        <rect id="rect4778-3" x="1" y="311" width="88" height="53" style="fill:rgb(158,161,168);"/>
        <g id="text1255" transform="matrix(1,0,0,1,0.942141,-6.71416)">
            <path id="path1266" d="M60.98,333.74L60.98,334.797C60.65,334.561 60.353,334.443 60.089,334.443C59.804,334.443 59.572,334.544 59.391,334.745C59.211,334.936 59.12,335.192 59.12,335.511C59.12,335.792 59.185,336.034 59.313,336.235C59.379,336.343 59.487,336.482 59.636,336.652C59.789,336.822 59.985,337.027 60.225,337.266C60.666,337.714 60.966,338.101 61.126,338.428C61.285,338.744 61.365,339.131 61.365,339.589C61.365,340.211 61.19,340.723 60.839,341.126C60.488,341.518 60.039,341.714 59.49,341.714C59.028,341.714 58.634,341.587 58.308,341.334L58.308,340.261C58.693,340.542 59.044,340.683 59.36,340.683C59.655,340.683 59.886,340.586 60.053,340.391C60.219,340.193 60.303,339.926 60.303,339.589C60.303,339.297 60.238,339.035 60.11,338.803C60.044,338.692 59.952,338.565 59.834,338.422C59.716,338.277 59.568,338.115 59.391,337.938C59.117,337.667 58.889,337.428 58.709,337.219C58.528,337.011 58.395,336.829 58.308,336.672C58.141,336.367 58.058,335.982 58.058,335.516C58.058,334.888 58.221,334.389 58.547,334.021C58.877,333.65 59.32,333.464 59.876,333.464C60.261,333.464 60.629,333.556 60.98,333.74L60.98,333.74Z" style="fill:rgb(44,45,48);fill-rule:nonzero;"/>
            <path id="path1268" d="M62.657,333.574L63.584,333.574L64.292,336.855C64.379,337.264 64.457,337.676 64.527,338.089C64.6,338.499 64.666,338.929 64.725,339.381C64.732,339.322 64.737,339.277 64.74,339.245C64.744,339.211 64.747,339.186 64.751,339.172L64.902,338.251L65.037,337.376L65.157,336.797L65.787,333.574L66.725,333.574L67.464,341.615L66.428,341.615L66.245,338.886C66.238,338.747 66.231,338.627 66.225,338.527C66.221,338.426 66.219,338.343 66.219,338.277L66.172,337.199L66.146,336.209C66.146,336.202 66.145,336.188 66.141,336.167C66.141,336.143 66.139,336.112 66.136,336.074L66.11,336.235C66.082,336.426 66.056,336.593 66.032,336.735C66.011,336.877 65.992,336.997 65.974,337.094L65.839,337.829L65.787,338.105L65.11,341.615L64.381,341.615L63.745,338.584C63.658,338.185 63.58,337.78 63.511,337.37C63.445,336.957 63.384,336.525 63.329,336.074L63.016,341.615L61.995,341.615L62.657,333.574Z" style="fill:rgb(44,45,48);fill-rule:nonzero;"/>
            <path id="path1270" d="M72.386,337.792C72.386,339.212 72.228,340.221 71.912,340.818C71.596,341.416 71.067,341.714 70.323,341.714C69.542,341.714 68.992,341.393 68.672,340.751C68.356,340.122 68.199,339.006 68.199,337.402C68.199,335.971 68.355,334.959 68.667,334.365C68.983,333.768 69.518,333.469 70.271,333.469C70.945,333.469 71.445,333.7 71.771,334.162C71.987,334.471 72.143,334.91 72.24,335.48C72.337,336.008 72.386,336.778 72.386,337.792L72.386,337.792ZM71.251,337.907C71.251,336.515 71.188,335.591 71.063,335.136C70.938,334.678 70.683,334.449 70.297,334.449C69.912,334.449 69.655,334.659 69.527,335.079C69.402,335.502 69.339,336.353 69.339,337.631C69.339,338.808 69.405,339.624 69.537,340.079C69.672,340.509 69.926,340.725 70.297,340.725C70.662,340.725 70.912,340.523 71.047,340.12C71.183,339.721 71.251,338.983 71.251,337.907L71.251,337.907Z" style="fill:rgb(44,45,48);fill-rule:nonzero;"/>
            <path id="path1272" d="M77.49,337.792C77.49,339.212 77.332,340.221 77.016,340.818C76.7,341.416 76.171,341.714 75.428,341.714C74.646,341.714 74.096,341.393 73.777,340.751C73.461,340.122 73.303,339.006 73.303,337.402C73.303,335.971 73.459,334.959 73.771,334.365C74.087,333.768 74.622,333.469 75.376,333.469C76.049,333.469 76.549,333.7 76.876,334.162C77.091,334.471 77.247,334.91 77.344,335.48C77.442,336.008 77.49,336.778 77.49,337.792L77.49,337.792ZM76.355,337.907C76.355,336.515 76.292,335.591 76.167,335.136C76.042,334.678 75.787,334.449 75.402,334.449C75.016,334.449 74.759,334.659 74.631,335.079C74.506,335.502 74.443,336.353 74.443,337.631C74.443,338.808 74.509,339.624 74.641,340.079C74.777,340.509 75.03,340.725 75.402,340.725C75.766,340.725 76.016,340.523 76.152,340.12C76.287,339.721 76.355,338.983 76.355,337.907Z" style="fill:rgb(44,45,48);fill-rule:nonzero;"/>
            <path id="path1274" d="M78.011,333.574L81.537,333.574L81.537,334.521L80.323,334.521L80.323,341.615L79.261,341.615L79.261,334.521L78.011,334.521L78.011,333.574Z" style="fill:rgb(44,45,48);fill-rule:nonzero;"/>
            <path id="path1276" d="M82.131,333.574L83.214,333.574L83.214,336.719L84.803,336.719L84.803,333.574L85.886,333.574L85.886,341.615L84.803,341.615L84.803,337.636L83.214,337.636L83.214,341.615L82.131,341.615L82.131,333.574Z" style="fill:rgb(44,45,48);fill-rule:nonzero;"/>
        </g>
        <g id="text1259" transform="matrix(1,0,0,1,0,-3)">
            <path id="path1325" d="M22.547,314.859L23.974,314.859C24.564,314.859 25.003,315 25.292,315.281C25.656,315.646 25.839,316.203 25.839,316.953C25.839,317.53 25.741,317.993 25.547,318.344C25.356,318.691 25.082,318.906 24.724,318.99L26.203,322.901L25.104,322.901L23.63,318.964L23.63,322.901L22.547,322.901L22.547,314.859ZM23.63,318.422C24.05,318.422 24.347,318.325 24.521,318.13C24.694,317.936 24.781,317.608 24.781,317.146C24.781,316.896 24.762,316.682 24.724,316.505C24.689,316.328 24.632,316.184 24.552,316.073C24.476,315.962 24.375,315.88 24.25,315.828C24.128,315.776 23.983,315.75 23.813,315.75L23.63,315.75L23.63,318.422Z" style="fill:rgb(44,45,48);fill-rule:nonzero;"/>
            <path id="path1327" d="M28.193,314.859L29.036,314.859L30.76,322.901L29.688,322.901L29.385,321.333L27.792,321.333L27.484,322.901L26.443,322.901L28.193,314.859ZM29.229,320.495L28.99,319.214C28.83,318.342 28.7,317.411 28.599,316.422C28.55,316.905 28.488,317.394 28.411,317.891C28.335,318.384 28.245,318.908 28.141,319.464L27.943,320.495L29.229,320.495Z" style="fill:rgb(44,45,48);fill-rule:nonzero;"/>
            <path id="path1329" d="M31.401,314.859L32.411,314.859L33.49,318.068C33.802,318.974 34.078,319.941 34.318,320.969C34.231,320.347 34.167,319.785 34.125,319.281C34.083,318.778 34.062,318.304 34.062,317.859L34.062,314.859L35.151,314.859L35.151,322.901L34.135,322.901L32.922,319.281C32.811,318.944 32.705,318.599 32.604,318.245C32.507,317.891 32.417,317.519 32.333,317.13C32.326,317.082 32.314,317.023 32.297,316.953C32.283,316.884 32.266,316.804 32.245,316.714C32.255,316.804 32.264,316.882 32.271,316.948C32.278,317.01 32.283,317.064 32.286,317.109L32.344,317.927L32.401,318.922C32.404,318.977 32.406,319.045 32.406,319.125C32.41,319.205 32.411,319.295 32.411,319.396L32.469,322.901L31.401,322.901L31.401,314.859Z" style="fill:rgb(44,45,48);fill-rule:nonzero;"/>
            <path id="path1331" d="M36.401,314.859L37.734,314.859C38.141,314.859 38.483,314.905 38.76,314.995C39.017,315.082 39.247,315.236 39.448,315.458C39.75,315.792 39.965,316.226 40.094,316.76C40.222,317.278 40.286,318.019 40.286,318.984C40.286,319.87 40.215,320.592 40.073,321.151C39.934,321.686 39.705,322.094 39.385,322.375C38.993,322.726 38.29,322.901 37.276,322.901L36.401,322.901L36.401,314.859ZM37.484,321.953C38.144,321.953 38.585,321.753 38.807,321.354C39.036,320.955 39.151,320.179 39.151,319.026C39.151,317.786 39.042,316.934 38.823,316.469C38.604,316.003 38.203,315.771 37.62,315.771L37.484,315.771L37.484,321.953Z" style="fill:rgb(44,45,48);fill-rule:nonzero;"/>
            <path id="path1333" d="M45.385,319.078C45.385,320.498 45.227,321.507 44.911,322.104C44.595,322.701 44.066,323 43.323,323C42.542,323 41.991,322.679 41.672,322.036C41.356,321.408 41.198,320.292 41.198,318.687C41.198,317.257 41.354,316.245 41.667,315.651C41.983,315.054 42.517,314.755 43.271,314.755C43.944,314.755 44.444,314.986 44.771,315.448C44.986,315.757 45.142,316.196 45.24,316.766C45.337,317.293 45.385,318.064 45.385,319.078L45.385,319.078ZM44.25,319.193C44.25,317.8 44.187,316.877 44.062,316.422C43.937,315.964 43.682,315.734 43.297,315.734C42.911,315.734 42.655,315.944 42.526,316.365C42.401,316.788 42.339,317.639 42.339,318.917C42.339,320.094 42.405,320.91 42.536,321.365C42.672,321.795 42.925,322.01 43.297,322.01C43.661,322.01 43.911,321.809 44.047,321.406C44.182,321.007 44.25,320.269 44.25,319.193Z" style="fill:rgb(44,45,48);fill-rule:nonzero;"/>
            <path id="path1335" d="M46.844,314.859L47.771,314.859L48.479,318.141C48.566,318.55 48.644,318.962 48.714,319.375C48.786,319.785 48.852,320.215 48.911,320.667C48.919,320.608 48.924,320.562 48.927,320.531C48.93,320.497 48.934,320.472 48.938,320.458L49.089,319.536L49.224,318.661L49.344,318.083L49.974,314.859L50.911,314.859L51.651,322.901L50.615,322.901L50.432,320.172C50.425,320.033 50.418,319.913 50.412,319.813C50.408,319.712 50.406,319.628 50.406,319.562L50.359,318.484L50.333,317.495C50.333,317.488 50.332,317.474 50.328,317.453C50.328,317.429 50.326,317.398 50.323,317.359L50.297,317.521C50.269,317.712 50.243,317.878 50.219,318.021C50.198,318.163 50.178,318.283 50.161,318.38L50.026,319.115L49.974,319.391L49.297,322.901L48.567,322.901L47.932,319.87C47.845,319.47 47.767,319.066 47.698,318.656C47.632,318.243 47.571,317.811 47.515,317.359L47.203,322.901L46.182,322.901L46.844,314.859Z" style="fill:rgb(44,45,48);fill-rule:nonzero;"/>
            <path id="path1337" d="M58.781,319.078C58.781,320.498 58.623,321.507 58.307,322.104C57.991,322.701 57.462,323 56.719,323C55.937,323 55.387,322.679 55.068,322.036C54.752,321.408 54.594,320.292 54.594,318.687C54.594,317.257 54.75,316.245 55.062,315.651C55.378,315.054 55.913,314.755 56.667,314.755C57.34,314.755 57.84,314.986 58.167,315.448C58.382,315.757 58.538,316.196 58.635,316.766C58.733,317.293 58.781,318.064 58.781,319.078L58.781,319.078ZM57.646,319.193C57.646,317.8 57.583,316.877 57.458,316.422C57.333,315.964 57.078,315.734 56.693,315.734C56.307,315.734 56.05,315.944 55.922,316.365C55.797,316.788 55.734,317.639 55.734,318.917C55.734,320.094 55.8,320.91 55.932,321.365C56.068,321.795 56.321,322.01 56.693,322.01C57.057,322.01 57.307,321.809 57.443,321.406C57.578,321.007 57.646,320.269 57.646,319.193Z" style="fill:rgb(44,45,48);fill-rule:nonzero;"/>
            <path id="path1339" d="M59.859,314.859L60.922,314.859L60.922,320.542C60.922,321.122 60.974,321.507 61.078,321.698C61.186,321.889 61.398,321.984 61.714,321.984C62.03,321.984 62.238,321.901 62.339,321.734C62.443,321.564 62.495,321.219 62.495,320.698L62.495,314.859L63.557,314.859L63.557,320.698C63.557,321.573 63.424,322.165 63.156,322.474C62.837,322.825 62.349,323 61.693,323C60.97,323 60.462,322.774 60.167,322.323C59.962,322.014 59.859,321.42 59.859,320.542L59.859,314.859Z" style="fill:rgb(44,45,48);fill-rule:nonzero;"/>
            <path id="path1341" d="M64.156,314.859L67.682,314.859L67.682,315.807L66.469,315.807L66.469,322.901L65.406,322.901L65.406,315.807L64.156,315.807L64.156,314.859Z" style="fill:rgb(44,45,48);fill-rule:nonzero;"/>
        </g>
        <g id="text1263" transform="matrix(1,0,0,1,-2,-6.71416)">
            <path id="path1279" d="M8.922,333.74L8.922,334.797C8.592,334.561 8.295,334.443 8.031,334.443C7.747,334.443 7.514,334.544 7.333,334.745C7.153,334.936 7.063,335.192 7.063,335.511C7.063,335.792 7.127,336.034 7.255,336.235C7.321,336.343 7.429,336.482 7.578,336.652C7.731,336.822 7.927,337.027 8.167,337.266C8.608,337.714 8.908,338.101 9.068,338.428C9.227,338.744 9.307,339.131 9.307,339.589C9.307,340.211 9.132,340.723 8.781,341.126C8.431,341.518 7.981,341.714 7.432,341.714C6.97,341.714 6.576,341.587 6.25,341.334L6.25,340.261C6.635,340.542 6.986,340.683 7.302,340.683C7.597,340.683 7.828,340.586 7.995,340.391C8.161,340.193 8.245,339.926 8.245,339.589C8.245,339.297 8.181,339.035 8.052,338.803C7.986,338.692 7.894,338.565 7.776,338.422C7.658,338.277 7.51,338.115 7.333,337.938C7.059,337.667 6.832,337.428 6.651,337.219C6.47,337.011 6.337,336.829 6.25,336.672C6.083,336.367 6,335.982 6,335.516C6,334.888 6.163,334.389 6.49,334.021C6.819,333.65 7.262,333.464 7.818,333.464C8.203,333.464 8.571,333.556 8.922,333.74L8.922,333.74Z" style="fill:rgb(44,45,48);fill-rule:nonzero;"/>
            <path id="path1281" d="M9.703,333.574L13.229,333.574L13.229,334.521L12.016,334.521L12.016,341.615L10.953,341.615L10.953,334.521L9.703,334.521L9.703,333.574Z" style="fill:rgb(44,45,48);fill-rule:nonzero;"/>
            <path id="path1283" d="M13.823,333.574L16.703,333.574L16.703,334.49L14.906,334.49L14.906,337.037L16.5,337.037L16.5,337.954L14.906,337.954L14.906,340.699L16.703,340.699L16.703,341.615L13.823,341.615L13.823,333.574Z" style="fill:rgb(44,45,48);fill-rule:nonzero;"/>
            <path id="path1285" d="M17.698,333.574L19.125,333.574C19.813,333.574 20.313,333.747 20.625,334.094C20.938,334.445 21.094,335.001 21.094,335.761C21.094,336.83 20.78,337.521 20.151,337.834C19.835,337.976 19.378,338.047 18.781,338.047L18.781,341.615L17.698,341.615L17.698,333.574ZM18.781,337.12C19.229,337.12 19.538,337.03 19.708,336.85C19.882,336.666 19.969,336.339 19.969,335.87C19.969,335.391 19.885,335.041 19.719,334.818C19.552,334.596 19.29,334.485 18.932,334.485L18.781,334.485L18.781,337.12Z" style="fill:rgb(44,45,48);fill-rule:nonzero;"/>
            <path id="path1287" d="M21.927,333.574L23.354,333.574C24.042,333.574 24.542,333.747 24.854,334.094C25.167,334.445 25.323,335.001 25.323,335.761C25.323,336.83 25.009,337.521 24.38,337.834C24.064,337.976 23.608,338.047 23.01,338.047L23.01,341.615L21.927,341.615L21.927,333.574ZM23.01,337.12C23.458,337.12 23.767,337.03 23.938,336.85C24.111,336.666 24.198,336.339 24.198,335.87C24.198,335.391 24.115,335.041 23.948,334.818C23.781,334.596 23.519,334.485 23.161,334.485L23.01,334.485L23.01,337.12Z" style="fill:rgb(44,45,48);fill-rule:nonzero;"/>
            <path id="path1289" d="M26.156,333.574L29.036,333.574L29.036,334.49L27.24,334.49L27.24,337.037L28.833,337.037L28.833,337.954L27.24,337.954L27.24,340.699L29.036,340.699L29.036,341.615L26.156,341.615L26.156,333.574Z" style="fill:rgb(44,45,48);fill-rule:nonzero;"/>
            <path id="path1291" d="M30.031,333.574L31.365,333.574C31.771,333.574 32.113,333.619 32.391,333.709C32.648,333.796 32.877,333.95 33.078,334.172C33.38,334.506 33.595,334.94 33.724,335.475C33.852,335.992 33.917,336.733 33.917,337.699C33.917,338.584 33.845,339.306 33.703,339.865C33.564,340.4 33.335,340.808 33.016,341.089C32.623,341.44 31.92,341.615 30.906,341.615L30.031,341.615L30.031,333.574ZM31.115,340.667C31.774,340.667 32.215,340.468 32.438,340.068C32.667,339.669 32.781,338.893 32.781,337.74C32.781,336.501 32.672,335.648 32.453,335.183C32.234,334.718 31.833,334.485 31.25,334.485L31.115,334.485L31.115,340.667Z" style="fill:rgb(44,45,48);fill-rule:nonzero;"/>
        </g>
        <g id="text1389" transform="matrix(1,0,0,1,1,2)">
            <path id="path1414" d="M6,281.859L7.469,281.859C8.618,281.859 9.193,282.573 9.193,284C9.193,284.545 9.118,284.95 8.969,285.214C8.819,285.477 8.556,285.677 8.177,285.813C8.611,285.986 8.908,286.208 9.068,286.479C9.231,286.747 9.313,287.149 9.313,287.688C9.313,289.163 8.681,289.901 7.417,289.901L6,289.901L6,281.859ZM7.021,285.401C7.441,285.401 7.733,285.304 7.896,285.109C8.059,284.905 8.141,284.545 8.141,284.031C8.141,283.163 7.828,282.729 7.203,282.729L7.12,282.729L7.073,282.729C7.045,282.729 7.028,282.731 7.021,282.734L7.021,285.401ZM7.021,288.974C7.465,288.974 7.773,288.878 7.943,288.688C8.113,288.497 8.198,288.151 8.198,287.651C8.198,287.137 8.109,286.778 7.932,286.573C7.759,286.365 7.455,286.26 7.021,286.26L7.021,288.974Z" style="fill:rgb(158,161,168);fill-rule:nonzero;"/>
            <rect id="path1416" x="10.396" y="281.859" width="1.083" height="8.042" style="fill:rgb(158,161,168);fill-rule:nonzero;"/>
            <path id="path1418" d="M12.089,281.859L15.615,281.859L15.615,282.807L14.401,282.807L14.401,289.901L13.339,289.901L13.339,282.807L12.089,282.807L12.089,281.859Z" style="fill:rgb(158,161,168);fill-rule:nonzero;"/>
            <path id="path1420" d="M19.12,282.026L19.12,283.083C18.79,282.847 18.493,282.729 18.229,282.729C17.944,282.729 17.712,282.83 17.531,283.031C17.351,283.222 17.26,283.477 17.26,283.797C17.26,284.078 17.325,284.319 17.453,284.521C17.519,284.628 17.627,284.767 17.776,284.938C17.929,285.108 18.125,285.312 18.365,285.552C18.806,286 19.106,286.387 19.266,286.714C19.425,287.03 19.505,287.417 19.505,287.875C19.505,288.497 19.33,289.009 18.979,289.411C18.628,289.804 18.179,290 17.63,290C17.168,290 16.774,289.873 16.448,289.62L16.448,288.547C16.833,288.828 17.184,288.969 17.5,288.969C17.795,288.969 18.026,288.872 18.193,288.677C18.359,288.479 18.443,288.212 18.443,287.875C18.443,287.583 18.378,287.321 18.25,287.089C18.184,286.977 18.092,286.851 17.974,286.708C17.856,286.563 17.708,286.401 17.531,286.224C17.257,285.953 17.03,285.714 16.849,285.505C16.668,285.297 16.535,285.115 16.448,284.958C16.281,284.653 16.198,284.267 16.198,283.802C16.198,283.174 16.361,282.675 16.687,282.307C17.017,281.936 17.46,281.75 18.016,281.75C18.401,281.75 18.769,281.842 19.12,282.026L19.12,282.026Z" style="fill:rgb(158,161,168);fill-rule:nonzero;"/>
        </g>
        <g id="text1393" transform="matrix(0.836549,0,0,1,-5.98045,1.99999)">
            <path id="path1395" d="M40.62,281.859L41.63,281.859L42.708,285.068C43.021,285.974 43.297,286.941 43.536,287.969C43.45,287.347 43.385,286.785 43.344,286.281C43.302,285.778 43.281,285.304 43.281,284.859L43.281,281.859L44.37,281.859L44.37,289.901L43.354,289.901L42.141,286.281C42.029,285.944 41.924,285.599 41.823,285.245C41.726,284.891 41.635,284.519 41.552,284.13C41.545,284.082 41.533,284.023 41.516,283.953C41.502,283.884 41.485,283.804 41.464,283.714C41.474,283.804 41.483,283.882 41.49,283.948C41.497,284.01 41.502,284.064 41.505,284.109L41.563,284.927L41.62,285.922C41.623,285.977 41.625,286.045 41.625,286.125C41.629,286.205 41.63,286.295 41.63,286.396L41.688,289.901L40.62,289.901L40.62,281.859Z" style="fill:rgb(158,161,168);fill-rule:nonzero;"/>
            <path id="path1397" d="M45.62,281.859L46.682,281.859L46.682,287.542C46.682,288.122 46.734,288.507 46.839,288.698C46.946,288.889 47.158,288.984 47.474,288.984C47.79,288.984 47.998,288.901 48.099,288.734C48.203,288.564 48.255,288.219 48.255,287.698L48.255,281.859L49.318,281.859L49.318,287.698C49.318,288.573 49.184,289.165 48.917,289.474C48.597,289.825 48.109,290 47.453,290C46.731,290 46.222,289.774 45.927,289.323C45.722,289.014 45.62,288.42 45.62,287.542L45.62,281.859Z" style="fill:rgb(158,161,168);fill-rule:nonzero;"/>
            <path id="path1399" d="M50.938,281.859L51.865,281.859L52.573,285.141C52.66,285.55 52.738,285.962 52.807,286.375C52.88,286.785 52.946,287.215 53.005,287.667C53.012,287.608 53.017,287.562 53.021,287.531C53.024,287.497 53.028,287.472 53.031,287.458L53.182,286.536L53.318,285.661L53.437,285.083L54.068,281.859L55.005,281.859L55.745,289.901L54.708,289.901L54.526,287.172C54.519,287.033 54.512,286.913 54.505,286.813C54.502,286.712 54.5,286.629 54.5,286.563L54.453,285.484L54.427,284.495C54.427,284.488 54.425,284.474 54.422,284.453C54.422,284.429 54.42,284.398 54.416,284.359L54.39,284.521C54.363,284.712 54.337,284.878 54.312,285.021C54.291,285.163 54.272,285.283 54.255,285.38L54.12,286.115L54.067,286.391L53.39,289.901L52.661,289.901L52.026,286.87C51.939,286.47 51.861,286.066 51.791,285.656C51.725,285.243 51.665,284.811 51.609,284.359L51.297,289.901L50.276,289.901L50.938,281.859Z" style="fill:rgb(158,161,168);fill-rule:nonzero;"/>
            <path id="path1401" d="M58.208,281.859L59.276,281.859L59.76,284.828L59.844,285.365L60.016,286.531C60.043,286.729 60.068,286.91 60.089,287.073C60.113,287.236 60.134,287.384 60.151,287.516L60.203,287.911C60.213,287.832 60.222,287.76 60.229,287.698C60.236,287.635 60.243,287.583 60.25,287.542L60.391,286.609L60.573,285.385C60.59,285.274 60.606,285.172 60.62,285.078C60.637,284.984 60.653,284.901 60.667,284.828L61.188,281.859L62.198,281.859L60.62,289.901L59.76,289.901L58.208,281.859Z" style="fill:rgb(158,161,168);fill-rule:nonzero;"/>
            <path id="path1403" d="M63.745,281.859L64.589,281.859L66.313,289.901L65.24,289.901L64.937,288.333L63.344,288.333L63.036,289.901L61.995,289.901L63.745,281.859ZM64.781,287.495L64.542,286.214C64.382,285.342 64.252,284.411 64.151,283.422C64.102,283.905 64.04,284.394 63.964,284.891C63.887,285.384 63.797,285.908 63.693,286.464L63.495,287.495L64.781,287.495Z" style="fill:rgb(158,161,168);fill-rule:nonzero;"/>
            <path id="path1405" d="M66.953,281.859L68.036,281.859L68.036,288.984L69.807,288.984L69.807,289.901L66.953,289.901L66.953,281.859Z" style="fill:rgb(158,161,168);fill-rule:nonzero;"/>
            <path id="path1407" d="M70.578,281.859L71.641,281.859L71.641,287.542C71.641,288.122 71.693,288.507 71.797,288.698C71.905,288.889 72.116,288.984 72.432,288.984C72.748,288.984 72.957,288.901 73.057,288.734C73.161,288.564 73.214,288.219 73.214,287.698L73.214,281.859L74.276,281.859L74.276,287.698C74.276,288.573 74.142,289.165 73.875,289.474C73.556,289.825 73.068,290 72.411,290C71.689,290 71.181,289.774 70.885,289.323C70.681,289.014 70.578,288.42 70.578,287.542L70.578,281.859Z" style="fill:rgb(158,161,168);fill-rule:nonzero;"/>
            <path id="path1409" d="M75.516,281.859L78.396,281.859L78.396,282.776L76.599,282.776L76.599,285.323L78.193,285.323L78.193,286.24L76.599,286.24L76.599,288.984L78.396,288.984L78.396,289.901L75.516,289.901L75.516,281.859Z" style="fill:rgb(158,161,168);fill-rule:nonzero;"/>
            <path id="path1411" d="M82.073,282.026L82.073,283.083C81.743,282.847 81.446,282.729 81.182,282.729C80.898,282.729 80.665,282.83 80.484,283.031C80.304,283.222 80.214,283.477 80.214,283.797C80.214,284.078 80.278,284.319 80.406,284.521C80.472,284.628 80.58,284.767 80.729,284.938C80.882,285.108 81.078,285.312 81.318,285.552C81.759,286 82.059,286.387 82.219,286.714C82.378,287.03 82.458,287.417 82.458,287.875C82.458,288.497 82.283,289.009 81.932,289.411C81.582,289.804 81.132,290 80.583,290C80.122,290 79.727,289.873 79.401,289.62L79.401,288.547C79.786,288.828 80.137,288.969 80.453,288.969C80.748,288.969 80.979,288.872 81.146,288.677C81.313,288.479 81.396,288.212 81.396,287.875C81.396,287.583 81.332,287.321 81.203,287.089C81.137,286.977 81.045,286.851 80.927,286.708C80.809,286.563 80.661,286.401 80.484,286.224C80.21,285.953 79.983,285.714 79.802,285.505C79.622,285.297 79.488,285.115 79.401,284.958C79.234,284.653 79.151,284.267 79.151,283.802C79.151,283.174 79.314,282.675 79.641,282.307C79.97,281.936 80.413,281.75 80.969,281.75C81.354,281.75 81.722,281.842 82.073,282.026L82.073,282.026Z" style="fill:rgb(158,161,168);fill-rule:nonzero;"/>
        </g>
        <g id="text1444" transform="matrix(0.862662,0,0,1.1592,0,2)">
            <path id="path1446" d="M81.144,243.136L82.294,243.136C82.645,243.136 82.94,243.175 83.18,243.253C83.401,243.328 83.599,243.461 83.773,243.653C84.033,243.94 84.219,244.315 84.33,244.776C84.441,245.222 84.496,245.862 84.496,246.694C84.496,247.458 84.435,248.081 84.312,248.564C84.192,249.025 83.994,249.377 83.719,249.619C83.38,249.922 82.774,250.073 81.899,250.073L81.144,250.073L81.144,243.136ZM82.079,249.255C82.648,249.255 83.028,249.083 83.22,248.739C83.418,248.394 83.516,247.725 83.516,246.73C83.516,245.661 83.422,244.926 83.233,244.524C83.045,244.123 82.699,243.922 82.196,243.922L82.079,243.922L82.079,249.255Z" style="fill:rgb(158,161,168);fill-rule:nonzero;"/>
            <path id="path1448" d="M85.422,243.136L87.906,243.136L87.906,243.927L86.356,243.927L86.356,246.124L87.731,246.124L87.731,246.915L86.356,246.915L86.356,249.282L87.906,249.282L87.906,250.073L85.422,250.073L85.422,243.136Z" style="fill:rgb(158,161,168);fill-rule:nonzero;"/>
            <path id="path1450" d="M88.212,243.136L89.133,243.136L89.551,245.697L89.623,246.16L89.771,247.166C89.795,247.337 89.816,247.493 89.834,247.633C89.855,247.774 89.873,247.902 89.888,248.015L89.933,248.357C89.942,248.288 89.949,248.227 89.955,248.173C89.961,248.119 89.967,248.074 89.973,248.038L90.094,247.234L90.252,246.178C90.266,246.082 90.28,245.994 90.292,245.913C90.307,245.832 90.32,245.76 90.332,245.697L90.782,243.136L91.653,243.136L90.292,250.073L89.551,250.073L88.212,243.136Z" style="fill:rgb(158,161,168);fill-rule:nonzero;"/>
            <path id="path1452" d="M95.85,244.771C95.85,245.856 95.514,246.398 94.843,246.398C94.505,246.398 94.256,246.266 94.098,246.002C93.942,245.736 93.864,245.32 93.864,244.753C93.864,244.187 93.942,243.772 94.098,243.509C94.253,243.245 94.502,243.113 94.843,243.113C95.188,243.113 95.441,243.248 95.603,243.518C95.767,243.784 95.85,244.202 95.85,244.771L95.85,244.771ZM95.239,244.771C95.239,244.379 95.209,244.097 95.149,243.927C95.089,243.756 94.992,243.671 94.857,243.671C94.722,243.671 94.626,243.751 94.569,243.913C94.515,244.075 94.488,244.358 94.488,244.762C94.488,245.167 94.515,245.45 94.569,245.612C94.626,245.773 94.722,245.854 94.857,245.854C94.992,245.854 95.089,245.77 95.149,245.603C95.209,245.432 95.239,245.155 95.239,244.771L95.239,244.771ZM97.634,243.136L98.204,243.136L94.763,250.073L94.192,250.073L97.634,243.136ZM98.532,248.568C98.532,249.637 98.204,250.172 97.548,250.172C97.213,250.172 96.966,250.042 96.807,249.781C96.648,249.518 96.569,249.106 96.569,248.546C96.569,247.455 96.894,246.91 97.544,246.91C98.203,246.91 98.532,247.463 98.532,248.568L98.532,248.568ZM97.93,248.563C97.93,248.174 97.9,247.894 97.84,247.723C97.783,247.55 97.687,247.463 97.553,247.463C97.418,247.463 97.324,247.544 97.27,247.705C97.219,247.882 97.193,248.164 97.193,248.55C97.193,248.954 97.22,249.237 97.274,249.399C97.328,249.558 97.421,249.637 97.553,249.637C97.804,249.637 97.93,249.279 97.93,248.563Z" style="fill:rgb(158,161,168);fill-rule:nonzero;"/>
        </g>
        <g id="text1492" transform="matrix(0.844683,0,0,1.18388,0,0)">
            <path id="path1496" d="M16.995,15.09L14.906,15.09L14.906,11.902C14.906,11.545 14.8,11.366 14.589,11.366C14.273,11.366 14.115,11.657 14.115,12.241L14.115,15.09L12.026,15.09L12.026,11.98C12.026,11.598 11.908,11.407 11.672,11.407C11.502,11.407 11.38,11.473 11.307,11.605C11.238,11.734 11.203,11.961 11.203,12.288L11.203,15.09L9.115,15.09L9.115,9.46L11.203,9.46L11.203,9.751C11.203,9.98 11.193,10.196 11.172,10.397C11.543,9.692 12.028,9.34 12.625,9.34C13.295,9.34 13.792,9.729 14.115,10.506C14.396,9.729 14.861,9.34 15.51,9.34C16,9.34 16.382,9.519 16.656,9.876C16.882,10.175 16.995,10.624 16.995,11.225L16.995,15.09Z" style="fill:rgb(158,161,168);fill-rule:nonzero;"/>
            <path id="path1498" d="M20.849,13.183L22.891,13.225C22.745,13.881 22.46,14.376 22.037,14.71C21.616,15.039 21.066,15.204 20.385,15.204C19.58,15.204 18.948,14.954 18.49,14.454C18.035,13.947 17.807,13.255 17.807,12.376C17.807,11.484 18.052,10.756 18.542,10.194C19.031,9.628 19.663,9.345 20.438,9.345C21.208,9.345 21.823,9.617 22.281,10.163C22.74,10.711 22.969,11.439 22.969,12.345L22.958,12.715L19.896,12.715C19.92,13.291 20.083,13.579 20.385,13.579C20.622,13.579 20.776,13.447 20.849,13.183ZM20.896,11.59C20.896,11.486 20.884,11.39 20.859,11.303C20.835,11.216 20.8,11.142 20.755,11.079C20.714,11.017 20.663,10.968 20.604,10.933C20.545,10.895 20.481,10.876 20.411,10.876C20.266,10.876 20.148,10.944 20.057,11.079C19.967,11.211 19.922,11.381 19.922,11.59L20.896,11.59Z" style="fill:rgb(158,161,168);fill-rule:nonzero;"/>
            <path id="path1500" d="M26.177,15.09L24.083,15.09L24.083,11.142L23.49,11.142L23.49,9.46L24.083,9.46L24.083,7.803L26.177,7.803L26.177,9.46L26.87,9.46L26.87,11.142L26.177,11.142L26.177,15.09Z" style="fill:rgb(158,161,168);fill-rule:nonzero;"/>
            <path id="path1502" d="M32.557,15.09L30.464,15.09C30.481,14.902 30.495,14.723 30.505,14.553C30.516,14.383 30.526,14.246 30.537,14.142C30.175,14.85 29.691,15.204 29.083,15.204C28.556,15.204 28.137,14.94 27.828,14.413C27.523,13.888 27.37,13.163 27.37,12.236C27.37,11.34 27.528,10.635 27.844,10.121C28.16,9.6 28.59,9.34 29.135,9.34C29.695,9.34 30.146,9.677 30.49,10.35C30.483,10.281 30.477,10.22 30.474,10.168C30.471,10.116 30.467,10.072 30.464,10.038L30.443,9.71L30.427,9.46L32.557,9.46L32.557,15.09ZM30.443,12.204C30.443,11.996 30.434,11.819 30.417,11.673C30.403,11.527 30.379,11.409 30.344,11.319C30.309,11.225 30.264,11.159 30.208,11.121C30.153,11.079 30.085,11.058 30.005,11.058C29.651,11.058 29.474,11.529 29.474,12.47C29.474,13.144 29.632,13.48 29.948,13.48C30.278,13.48 30.443,13.055 30.443,12.204Z" style="fill:rgb(158,161,168);fill-rule:nonzero;"/>
            <path id="path1504" d="M41.098,15.09L38.254,15.09L38.049,13.796L36.195,13.796L35.97,15.09L33.126,15.09L35.574,4.901L38.94,4.901L41.098,15.09ZM37.726,11.612L37.548,10.424C37.543,10.42 37.534,10.36 37.521,10.246C37.512,10.149 37.466,9.766 37.383,9.098C37.374,9.023 37.363,8.922 37.35,8.794C37.336,8.662 37.319,8.497 37.297,8.299L37.211,7.336C37.202,7.428 37.189,7.532 37.171,7.646C37.158,7.76 37.143,7.886 37.125,8.022C37.094,8.295 37.072,8.484 37.059,8.59C37.046,8.695 37.037,8.759 37.033,8.781L36.841,10.015L36.564,11.612L37.726,11.612Z" style="fill:rgb(158,161,168);fill-rule:nonzero;"/>
            <path id="path1506" d="M49.228,15.09L46.384,15.09L46.179,13.796L44.325,13.796L44.1,15.09L41.256,15.09L43.704,4.901L47.07,4.901L49.228,15.09ZM45.856,11.612L45.678,10.424C45.673,10.42 45.664,10.36 45.651,10.246C45.642,10.149 45.596,9.766 45.513,9.098C45.504,9.023 45.493,8.922 45.48,8.794C45.467,8.662 45.449,8.497 45.427,8.299L45.341,7.336C45.332,7.428 45.319,7.532 45.301,7.646C45.288,7.76 45.273,7.886 45.255,8.022C45.224,8.295 45.202,8.484 45.189,8.59C45.176,8.695 45.167,8.759 45.163,8.781L44.971,10.015L44.694,11.612L45.856,11.612Z" style="fill:rgb(158,161,168);fill-rule:nonzero;"/>
            <path id="path1508" d="M57.266,15.09L54.289,15.09L52.93,11.46C52.917,11.399 52.893,11.317 52.857,11.216C52.827,11.115 52.787,10.994 52.739,10.853L52.758,11.526L52.758,15.09L50.02,15.09L50.02,4.901L52.838,4.901C54.078,4.901 55.006,5.145 55.622,5.633C56.405,6.258 56.797,7.147 56.797,8.299C56.797,9.531 56.271,10.382 55.22,10.853L57.266,15.09ZM52.772,9.619L52.956,9.619C53.273,9.619 53.537,9.498 53.748,9.256C53.959,9.014 54.065,8.706 54.065,8.332C54.065,7.571 53.667,7.191 52.871,7.191L52.772,7.191L52.772,9.619Z" style="fill:rgb(158,161,168);fill-rule:nonzero;"/>
            <path id="path1510" d="M58.176,15.09L58.176,4.901L60.552,4.901C61.911,4.901 62.969,5.266 63.726,5.996C64.72,6.951 65.217,8.286 65.217,10.002C65.217,11.691 64.797,12.996 63.957,13.915C63.24,14.698 62.171,15.09 60.75,15.09L58.176,15.09ZM60.928,12.628C61.914,12.58 62.406,11.731 62.406,10.081C62.406,9.267 62.281,8.625 62.03,8.154C61.779,7.679 61.441,7.441 61.014,7.441L60.928,7.441L60.928,12.628Z" style="fill:rgb(158,161,168);fill-rule:nonzero;"/>
            <path id="path1512" d="M70.602,15.09L67.798,15.09L65.462,4.901L68.352,4.901L68.854,7.811C69.043,8.924 69.195,10.169 69.309,11.546C69.357,10.934 69.417,10.363 69.487,9.83C69.557,9.298 69.641,8.779 69.738,8.273L70.391,4.901L73.381,4.901L70.602,15.09Z" style="fill:rgb(158,161,168);fill-rule:nonzero;"/>
            <path id="path1514" d="M81.009,15.09L78.165,15.09L77.96,13.796L76.106,13.796L75.882,15.09L73.037,15.09L75.486,4.901L78.851,4.901L81.009,15.09ZM77.637,11.612L77.459,10.424C77.455,10.42 77.446,10.36 77.432,10.246C77.424,10.149 77.377,9.766 77.294,9.098C77.285,9.023 77.274,8.922 77.261,8.794C77.248,8.662 77.23,8.497 77.208,8.299L77.122,7.336C77.113,7.428 77.1,7.532 77.083,7.646C77.07,7.76 77.054,7.886 77.036,8.022C77.006,8.295 76.984,8.484 76.97,8.59C76.957,8.695 76.949,8.759 76.944,8.781L76.753,10.015L76.476,11.612L77.637,11.612Z" style="fill:rgb(158,161,168);fill-rule:nonzero;"/>
            <path id="path1516" d="M89.047,15.09L86.071,15.09L84.711,11.46C84.698,11.399 84.674,11.317 84.639,11.216C84.608,11.115 84.568,10.994 84.52,10.853L84.539,11.526L84.539,15.09L81.801,15.09L81.801,4.901L84.619,4.901C85.859,4.901 86.788,5.145 87.404,5.633C88.187,6.258 88.578,7.147 88.578,8.299C88.578,9.531 88.053,10.382 87.001,10.853L89.047,15.09ZM84.553,9.619L84.738,9.619C85.054,9.619 85.318,9.498 85.529,9.256C85.741,9.014 85.846,8.706 85.846,8.332C85.846,7.571 85.448,7.191 84.652,7.191L84.553,7.191L84.553,9.619Z" style="fill:rgb(158,161,168);fill-rule:nonzero;"/>
            <path id="path1518" d="M97.434,15.09L94.465,15.09L92.637,10.391L92.709,15.09L89.957,15.09L89.957,4.901L92.709,4.901L92.637,9.269L94.26,4.901L97.164,4.901L94.966,9.817L97.434,15.09Z" style="fill:rgb(158,161,168);fill-rule:nonzero;"/>
        </g>
        <g id="text1523" transform="matrix(1.28149,0,0,1.52945,-17.9999,-124.196)">
            <path id="path1525" d="M43.699,291.143L44.491,291.143C44.872,291.143 45.149,291.24 45.323,291.432C45.496,291.627 45.583,291.935 45.583,292.357C45.583,292.95 45.408,293.333 45.06,293.507C44.885,293.586 44.631,293.625 44.3,293.625L44.3,295.605L43.699,295.605L43.699,291.143ZM44.3,293.111C44.548,293.111 44.72,293.061 44.814,292.961C44.911,292.859 44.959,292.678 44.959,292.418C44.959,292.152 44.912,291.957 44.82,291.834C44.728,291.711 44.582,291.649 44.384,291.649L44.3,291.649L44.3,293.111Z" style="fill:rgb(44,45,48);fill-rule:nonzero;"/>
            <path id="path1527" d="M46.045,291.143L46.635,291.143L46.635,294.296C46.635,294.617 46.663,294.831 46.721,294.937C46.781,295.043 46.898,295.096 47.074,295.096C47.249,295.096 47.365,295.05 47.42,294.957C47.478,294.863 47.507,294.671 47.507,294.382L47.507,291.143L48.097,291.143L48.097,294.382C48.097,294.868 48.022,295.196 47.874,295.368C47.697,295.562 47.426,295.659 47.062,295.659C46.661,295.659 46.379,295.534 46.216,295.284C46.102,295.112 46.045,294.783 46.045,294.296L46.045,291.143Z" style="fill:rgb(44,45,48);fill-rule:nonzero;"/>
            <path id="path1529" d="M48.784,291.143L49.385,291.143L49.385,295.096L50.368,295.096L50.368,295.605L48.784,295.605L48.784,291.143Z" style="fill:rgb(44,45,48);fill-rule:nonzero;"/>
            <path id="path1531" d="M52.306,291.236L52.306,291.822C52.123,291.691 51.959,291.626 51.812,291.626C51.654,291.626 51.525,291.682 51.425,291.793C51.325,291.899 51.275,292.041 51.275,292.218C51.275,292.374 51.311,292.508 51.382,292.62C51.418,292.68 51.478,292.757 51.561,292.851C51.646,292.945 51.755,293.059 51.887,293.192C52.132,293.44 52.299,293.655 52.387,293.836C52.476,294.012 52.52,294.226 52.52,294.481C52.52,294.825 52.423,295.109 52.228,295.333C52.034,295.551 51.784,295.659 51.48,295.659C51.224,295.659 51.005,295.589 50.824,295.449L50.824,294.853C51.038,295.009 51.233,295.087 51.408,295.087C51.572,295.087 51.7,295.033 51.792,294.926C51.885,294.816 51.931,294.667 51.931,294.481C51.931,294.319 51.895,294.173 51.824,294.044C51.787,293.983 51.736,293.912 51.671,293.833C51.605,293.752 51.523,293.663 51.425,293.565C51.273,293.414 51.147,293.281 51.047,293.166C50.946,293.05 50.872,292.949 50.824,292.862C50.732,292.693 50.686,292.479 50.686,292.221C50.686,291.872 50.776,291.596 50.957,291.392C51.14,291.186 51.386,291.083 51.694,291.083C51.908,291.083 52.112,291.134 52.306,291.236L52.306,291.236Z" style="fill:rgb(44,45,48);fill-rule:nonzero;"/>
            <path id="path1533" d="M53.026,291.143L54.624,291.143L54.624,291.652L53.627,291.652L53.627,293.065L54.511,293.065L54.511,293.573L53.627,293.573L53.627,295.096L54.624,295.096L54.624,295.605L53.026,295.605L53.026,291.143Z" style="fill:rgb(44,45,48);fill-rule:nonzero;"/>
        </g>
        <g id="text1223" transform="matrix(1,0,0,1,2,8)">
            <path id="path1225" d="M6.62,127.515L8.047,127.515C8.637,127.515 9.076,127.655 9.365,127.937C9.729,128.301 9.911,128.858 9.911,129.608C9.911,130.185 9.814,130.648 9.62,130.999C9.429,131.346 9.155,131.562 8.797,131.645L10.276,135.556L9.177,135.556L7.703,131.619L7.703,135.556L6.62,135.556L6.62,127.515ZM7.703,131.077C8.123,131.077 8.42,130.98 8.594,130.786C8.767,130.591 8.854,130.263 8.854,129.801C8.854,129.551 8.835,129.338 8.797,129.161C8.762,128.983 8.705,128.839 8.625,128.728C8.549,128.617 8.448,128.536 8.323,128.483C8.201,128.431 8.056,128.405 7.885,128.405L7.703,128.405L7.703,131.077Z" style="fill:rgb(158,161,168);fill-rule:nonzero;"/>
            <path id="path1227" d="M11.12,127.515L14,127.515L14,128.431L12.203,128.431L12.203,130.978L13.797,130.978L13.797,131.895L12.203,131.895L12.203,134.64L14,134.64L14,135.556L11.12,135.556L11.12,127.515Z" style="fill:rgb(158,161,168);fill-rule:nonzero;"/>
            <path id="path1230" d="M17.677,127.681L17.677,128.739C17.347,128.503 17.05,128.384 16.786,128.384C16.502,128.384 16.269,128.485 16.089,128.687C15.908,128.878 15.818,129.133 15.818,129.452C15.818,129.733 15.882,129.975 16.01,130.176C16.076,130.284 16.184,130.423 16.333,130.593C16.486,130.763 16.682,130.968 16.922,131.207C17.363,131.655 17.663,132.042 17.823,132.369C17.983,132.685 18.062,133.072 18.062,133.53C18.062,134.152 17.887,134.664 17.536,135.067C17.186,135.459 16.736,135.655 16.187,135.655C15.726,135.655 15.332,135.529 15.005,135.275L15.005,134.202C15.391,134.483 15.741,134.624 16.057,134.624C16.352,134.624 16.583,134.527 16.75,134.332C16.917,134.134 17,133.867 17,133.53C17,133.239 16.936,132.976 16.807,132.744C16.741,132.633 16.649,132.506 16.531,132.364C16.413,132.218 16.266,132.056 16.089,131.879C15.814,131.608 15.587,131.369 15.406,131.161C15.226,130.952 15.092,130.77 15.005,130.614C14.839,130.308 14.755,129.923 14.755,129.457C14.755,128.829 14.918,128.331 15.245,127.963C15.575,127.591 16.017,127.405 16.573,127.405C16.958,127.405 17.326,127.497 17.677,127.681L17.677,127.681Z" style="fill:rgb(158,161,168);fill-rule:nonzero;"/>
            <path id="path1233" d="M18.974,127.515L21.854,127.515L21.854,128.431L20.057,128.431L20.057,130.978L21.651,130.978L21.651,131.895L20.057,131.895L20.057,134.64L21.854,134.64L21.854,135.556L18.974,135.556L18.974,127.515Z" style="fill:rgb(158,161,168);fill-rule:nonzero;"/>
            <path id="path1240" d="M22.208,127.515L25.734,127.515L25.734,128.463L24.521,128.463L24.521,135.556L23.458,135.556L23.458,128.463L22.208,128.463L22.208,127.515Z" style="fill:rgb(158,161,168);fill-rule:nonzero;"/>
        </g>
    </g>
</svg>
