<?xml version="1.0" encoding="UTF-8" standalone="no"?>
<!DOCTYPE svg PUBLIC "-//W3C//DTD SVG 1.1//EN" "http://www.w3.org/Graphics/SVG/1.1/DTD/svg11.dtd">
<svg width="100%" height="100%" viewBox="0 0 120 380" version="1.1" xmlns="http://www.w3.org/2000/svg" xmlns:xlink="http://www.w3.org/1999/xlink" xml:space="preserve" xmlns:serif="http://www.serif.com/" style="fill-rule:evenodd;clip-rule:evenodd;stroke-linejoin:round;stroke-miterlimit:2;">
    <g id="Layer-2" serif:id="Layer 2">
        <g id="text989">
        </g>
        <rect id="rect4689" x="-0.689" y="0" width="120" height="380" style="fill:rgb(44,45,48);fill-rule:nonzero;"/>
        <g id="text4987">
        </g>
        <g id="text1042">
        </g>
        <g id="text2090">
        </g>
        <g id="text80-1" transform="matrix(1.00498,0,0,0.995044,14.3112,8.00126)">
            <path id="path4726-1" d="M29.851,371.706L29.851,363.943L31.853,363.943L32.903,366.668C32.96,366.829 33.024,367.013 33.094,367.221C33.168,367.429 33.249,367.668 33.336,367.94L33.552,368.624C33.475,367.95 33.416,367.373 33.376,366.894C33.336,366.415 33.316,366.013 33.316,365.687L33.316,363.943L35.317,363.943L35.317,371.706L33.316,371.706L32.26,368.85C32.149,368.545 32.049,368.26 31.958,367.995C31.871,367.727 31.794,367.472 31.727,367.231C31.77,367.777 31.802,368.253 31.822,368.659C31.843,369.065 31.853,369.42 31.853,369.725L31.853,371.706L29.851,371.706Z" style="fill:rgb(158,161,168);fill-rule:nonzero;"/>
            <path id="path4728-5" d="M39.887,371.706L37.791,371.706L37.791,368.418L35.865,363.943L38.052,363.943L38.429,365.094C38.503,365.319 38.568,365.535 38.625,365.743C38.686,365.951 38.739,366.15 38.786,366.341C38.863,366.056 38.93,365.811 38.987,365.607C39.044,365.399 39.095,365.232 39.138,365.104L39.52,363.943L41.692,363.943L39.887,368.418L39.887,371.706Z" style="fill:rgb(158,161,168);fill-rule:nonzero;"/>
            <path id="path4730-3" d="M41.894,371.515L41.894,369.076C42.306,369.639 42.752,369.921 43.231,369.921C43.412,369.921 43.56,369.874 43.673,369.78C43.787,369.683 43.844,369.562 43.844,369.418C43.844,369.21 43.72,369.008 43.472,368.81L43.13,368.543C42.902,368.372 42.708,368.203 42.547,368.035C42.386,367.865 42.256,367.69 42.155,367.513C42.054,367.332 41.981,367.146 41.934,366.954C41.887,366.763 41.863,366.562 41.863,366.351C41.863,365.989 41.947,365.61 42.115,365.215C42.199,365.03 42.296,364.863 42.406,364.712C42.517,364.558 42.644,364.422 42.789,364.305C43.184,363.969 43.662,363.802 44.222,363.802C44.721,363.802 45.224,363.934 45.73,364.199L45.73,366.572C45.559,366.308 45.365,366.1 45.147,365.949C44.929,365.795 44.714,365.718 44.503,365.718C44.342,365.718 44.21,365.765 44.106,365.858C43.999,365.949 43.945,366.058 43.945,366.185C43.945,366.393 44.087,366.599 44.372,366.804L44.704,367.05C45.147,367.368 45.463,367.695 45.655,368.03C45.849,368.366 45.946,368.758 45.946,369.207C45.946,369.971 45.713,370.601 45.247,371.098C44.781,371.594 44.191,371.842 43.477,371.842C42.985,371.842 42.457,371.733 41.894,371.515L41.894,371.515Z" style="fill:rgb(158,161,168);fill-rule:nonzero;"/>
            <path id="path4732-9" d="M49.576,371.706L47.48,371.706L47.48,365.803L46.323,365.803L46.323,363.943L50.778,363.943L50.778,365.803L49.576,365.803L49.576,371.706Z" style="fill:rgb(158,161,168);fill-rule:nonzero;"/>
            <path id="path4734-6" d="M56.525,371.706L54.428,371.706L54.428,368.584L53.428,368.584L53.428,371.706L51.331,371.706L51.331,363.943L53.428,363.943L53.428,366.688L54.428,366.688L54.428,363.943L56.525,363.943L56.525,371.706Z" style="fill:rgb(158,161,168);fill-rule:nonzero;"/>
            <rect id="path4736-3" x="57.606" y="363.943" width="2.097" height="7.763" style="fill:rgb(158,161,168);fill-rule:nonzero;"/>
        </g>
        <g id="text1497">
            <path id="path1500" d="M48.292,17.789L45.042,17.789L45.042,15.344L40.659,15.344L40.659,12.797L44.299,5.727L48.292,5.727L48.292,12.75L49.323,12.75L49.323,15.344L48.292,15.344L48.292,17.789ZM45.19,12.75L45.19,10.492C45.19,10.388 45.195,10.221 45.206,9.992C45.221,9.763 45.242,9.469 45.268,9.109L44.784,10.141C44.544,10.646 44.305,11.117 44.065,11.555C43.825,11.987 43.586,12.385 43.346,12.75L45.19,12.75Z" style="fill:rgb(158,161,168);fill-rule:nonzero;"/>
            <path id="path1503" d="M63.057,17.789L59.651,17.789L59.409,12.289L59.307,10.094C59.271,10.516 59.229,10.919 59.182,11.305C59.135,11.685 59.078,12.055 59.01,12.414L57.987,17.789L55.331,17.789L54.456,12.406C54.404,12.094 54.333,11.557 54.245,10.797C54.234,10.682 54.211,10.448 54.174,10.094L54.096,12.32L53.807,17.789L50.339,17.789L51.745,5.727L55.799,5.727L56.479,9.789C56.536,10.122 56.586,10.484 56.628,10.875C56.674,11.266 56.716,11.69 56.753,12.148C56.82,11.383 56.914,10.698 57.034,10.094L57.862,5.727L61.885,5.727L63.057,17.789Z" style="fill:rgb(158,161,168);fill-rule:nonzero;"/>
            <rect id="path1505" x="64.518" y="5.727" width="3.258" height="12.063" style="fill:rgb(158,161,168);fill-rule:nonzero;"/>
            <path id="path1508" d="M77.964,17.789L74.346,17.789L73.745,16.07C73.552,15.544 73.396,15.039 73.276,14.555C73.161,15.034 72.99,15.583 72.76,16.203L72.159,17.789L68.612,17.789L71.542,11.531L68.776,5.727L72.401,5.727L72.94,7.359C72.997,7.51 73.052,7.687 73.104,7.891C73.161,8.094 73.219,8.323 73.276,8.578C73.406,8.057 73.516,7.656 73.604,7.375L74.104,5.727L77.753,5.727L75.003,11.531L77.964,17.789Z" style="fill:rgb(158,161,168);fill-rule:nonzero;"/>
        </g>
        <rect id="rect1581" x="85" y="26" width="10" height="340" style="fill:rgb(158,161,168);"/>
        <g id="path1549" transform="matrix(1,0,0,1,-63.4096,40)">
            <path d="M151.544,-10.052L152.898,-10.052L152.898,-1.146L155.111,-1.146L155.111,0L151.544,0L151.544,-10.052Z" style="fill:rgb(44,45,48);fill-rule:nonzero;"/>
        </g>
        <g id="path1552" transform="matrix(1,0,0,1,-63.4096,40)">
            <path d="M151.042,9.948L152.826,9.948C153.564,9.948 154.113,10.124 154.473,10.475C154.929,10.931 155.157,11.628 155.157,12.565C155.157,13.286 155.036,13.865 154.792,14.303C154.554,14.737 154.211,15.007 153.764,15.111L155.613,20L154.239,20L152.397,15.078L152.397,20L151.042,20L151.042,9.948ZM152.397,14.401C152.922,14.401 153.293,14.28 153.51,14.036C153.727,13.793 153.835,13.383 153.835,12.806C153.835,12.493 153.812,12.227 153.764,12.005C153.72,11.784 153.649,11.604 153.549,11.465C153.453,11.326 153.328,11.224 153.171,11.159C153.019,11.094 152.837,11.061 152.624,11.061L152.397,11.061L152.397,14.401Z" style="fill:rgb(44,45,48);fill-rule:nonzero;"/>
        </g>
        <g id="path1555" transform="matrix(1,0,0,1,-63.4096,90)">
            <path d="M150.834,109.948L152.169,109.948L152.774,113.659L152.878,114.329L153.093,115.788C153.128,116.035 153.158,116.261 153.184,116.465C153.215,116.669 153.241,116.853 153.263,117.018L153.328,117.513C153.341,117.413 153.352,117.324 153.36,117.246C153.369,117.168 153.377,117.103 153.386,117.051L153.562,115.885L153.79,114.355C153.811,114.217 153.831,114.089 153.848,113.971C153.87,113.854 153.89,113.75 153.907,113.659L154.558,109.948L155.821,109.948L153.848,120L152.774,120L150.834,109.948Z" style="fill:rgb(44,45,48);fill-rule:nonzero;"/>
        </g>
        <g id="path1559" transform="matrix(1,0,0,1,-63.4096,110)">
            <path d="M151.205,149.948L152.989,149.948C153.848,149.948 154.473,150.165 154.864,150.599C155.255,151.037 155.45,151.732 155.45,152.682C155.45,154.019 155.057,154.883 154.272,155.273C153.877,155.451 153.306,155.54 152.559,155.54L152.559,160L151.205,160L151.205,149.948ZM152.559,154.382C153.119,154.382 153.506,154.269 153.718,154.043C153.935,153.813 154.044,153.405 154.044,152.819C154.044,152.22 153.94,151.782 153.731,151.504C153.523,151.226 153.195,151.087 152.748,151.087L152.559,151.087L152.559,154.382Z" style="fill:rgb(44,45,48);fill-rule:nonzero;"/>
        </g>
        <g id="path1562" transform="matrix(1,0,0,1,-63.4096,110)">
            <path d="M154.913,190.033L154.913,191.354C154.501,191.059 154.129,190.911 153.8,190.911C153.444,190.911 153.153,191.037 152.927,191.289C152.702,191.528 152.589,191.847 152.589,192.246C152.589,192.598 152.669,192.899 152.83,193.151C152.912,193.286 153.047,193.459 153.233,193.672C153.424,193.885 153.669,194.141 153.969,194.44C154.52,195 154.896,195.484 155.095,195.892C155.295,196.287 155.395,196.771 155.395,197.344C155.395,198.121 155.175,198.761 154.737,199.264C154.299,199.755 153.737,200 153.051,200C152.474,200 151.981,199.842 151.573,199.525L151.573,198.184C152.055,198.535 152.493,198.711 152.888,198.711C153.257,198.711 153.546,198.589 153.754,198.346C153.962,198.099 154.067,197.765 154.067,197.344C154.067,196.979 153.986,196.651 153.826,196.361C153.743,196.222 153.628,196.063 153.481,195.885C153.333,195.703 153.149,195.501 152.927,195.28C152.584,194.941 152.3,194.642 152.074,194.382C151.849,194.121 151.682,193.893 151.573,193.698C151.365,193.316 151.261,192.834 151.261,192.253C151.261,191.467 151.465,190.844 151.873,190.384C152.285,189.92 152.838,189.688 153.533,189.688C154.014,189.688 154.475,189.803 154.913,190.033L154.913,190.033Z" style="fill:rgb(44,45,48);fill-rule:nonzero;"/>
        </g>
        <g id="path1566" transform="matrix(1,0,0,1,-63.4096,110)">
            <path d="M150.736,229.948L151.895,229.948L152.781,234.049C152.889,234.562 152.987,235.076 153.074,235.592C153.165,236.105 153.247,236.643 153.321,237.207C153.33,237.133 153.336,237.077 153.341,237.038C153.345,236.994 153.349,236.964 153.354,236.947L153.542,235.794L153.712,234.7L153.861,233.978L154.649,229.948L155.821,229.948L156.746,240L155.45,240L155.222,236.589C155.214,236.415 155.205,236.265 155.196,236.139C155.192,236.013 155.19,235.909 155.19,235.827L155.131,234.479L155.099,233.242C155.099,233.234 155.096,233.216 155.092,233.19C155.092,233.16 155.09,233.121 155.086,233.073L155.053,233.275C155.018,233.513 154.986,233.722 154.956,233.9C154.93,234.078 154.906,234.227 154.884,234.349L154.715,235.267L154.65,235.612L153.803,240L152.891,240L152.097,236.211C151.989,235.712 151.891,235.206 151.804,234.694C151.722,234.178 151.646,233.637 151.576,233.073L151.186,240L149.91,240L150.736,229.948Z" style="fill:rgb(44,45,48);fill-rule:nonzero;"/>
        </g>
        <g id="text1585" transform="matrix(0,-1.36415,0.733058,0,-1.24454,0.400973)">
            <path id="path1587" d="M-214.195,159.822L-214.195,160.567C-214.296,160.442 -214.419,160.38 -214.561,160.38C-214.963,160.38 -215.164,160.815 -215.164,161.685C-215.164,162.609 -214.965,163.071 -214.565,163.071C-214.453,163.071 -214.33,163.022 -214.195,162.922L-214.195,163.606C-214.388,163.708 -214.584,163.759 -214.783,163.759C-215.567,163.759 -215.959,163.092 -215.959,161.758C-215.959,161.048 -215.862,160.525 -215.668,160.189C-215.475,159.85 -215.175,159.681 -214.767,159.681C-214.571,159.681 -214.38,159.728 -214.195,159.822L-214.195,159.822Z" style="fill:rgb(158,161,168);fill-rule:nonzero;"/>
            <path id="path1589" d="M-213.626,157.211L-212.897,157.211L-212.897,160.2C-212.688,159.854 -212.418,159.681 -212.087,159.681C-211.766,159.681 -211.537,159.807 -211.4,160.059C-211.324,160.201 -211.285,160.478 -211.285,160.887L-211.285,163.698L-212.015,163.698L-212.018,161.055C-212.018,160.788 -212.05,160.599 -212.114,160.487C-212.177,160.375 -212.287,160.319 -212.442,160.319C-212.526,160.319 -212.597,160.334 -212.656,160.364C-212.712,160.392 -212.758,160.439 -212.793,160.506C-212.829,160.569 -212.856,160.653 -212.874,160.758C-212.889,160.862 -212.897,160.991 -212.897,161.143L-212.897,163.697L-213.626,163.697L-213.626,157.211Z" style="fill:rgb(158,161,168);fill-rule:nonzero;"/>
            <path id="path1591" d="M-208.208,159.746L-208.208,163.698L-208.937,163.698L-208.937,163.19C-209.042,163.406 -209.146,163.555 -209.25,163.636C-209.355,163.718 -209.492,163.759 -209.663,163.759C-209.991,163.759 -210.232,163.591 -210.384,163.255C-210.537,162.919 -210.613,162.392 -210.613,161.674C-210.613,160.989 -210.537,160.487 -210.384,160.166C-210.232,159.843 -209.991,159.681 -209.663,159.681C-209.362,159.681 -209.12,159.852 -208.937,160.193L-208.937,159.746L-208.208,159.746ZM-209.857,161.705C-209.857,162.224 -209.823,162.586 -209.754,162.793C-209.683,162.999 -209.558,163.102 -209.38,163.102C-209.217,163.102 -209.099,162.995 -209.025,162.781C-208.951,162.552 -208.914,162.2 -208.914,161.724C-208.914,161.245 -208.951,160.891 -209.025,160.662C-209.099,160.448 -209.217,160.341 -209.38,160.341C-209.553,160.341 -209.677,160.443 -209.75,160.647C-209.822,160.835 -209.857,161.188 -209.857,161.705L-209.857,161.705Z" style="fill:rgb(158,161,168);fill-rule:nonzero;"/>
            <path id="path1593" d="M-207.38,159.746L-206.646,159.746L-206.646,163.698L-207.38,163.698L-207.38,159.746ZM-207.036,158.066C-206.904,158.066 -206.789,158.114 -206.692,158.211C-206.596,158.308 -206.547,158.424 -206.547,158.558C-206.547,158.696 -206.596,158.813 -206.692,158.91C-206.789,159.006 -206.906,159.055 -207.044,159.055C-207.181,159.055 -207.298,159.006 -207.395,158.91C-207.489,158.816 -207.536,158.697 -207.536,158.555C-207.536,158.422 -207.488,158.308 -207.391,158.211C-207.287,158.114 -207.168,158.066 -207.036,158.066Z" style="fill:rgb(158,161,168);fill-rule:nonzero;"/>
            <path id="path1595" d="M-205.822,159.746L-205.093,159.746L-205.093,160.2C-204.884,159.854 -204.614,159.681 -204.283,159.681C-203.962,159.681 -203.733,159.807 -203.596,160.059C-203.519,160.201 -203.481,160.478 -203.481,160.887L-203.481,163.698L-204.211,163.698L-204.214,161.055C-204.214,160.788 -204.246,160.599 -204.31,160.487C-204.373,160.375 -204.483,160.319 -204.638,160.319C-204.722,160.319 -204.793,160.334 -204.852,160.364C-204.908,160.392 -204.954,160.439 -204.989,160.506C-205.025,160.569 -205.052,160.653 -205.07,160.758C-205.085,160.862 -205.093,160.991 -205.093,161.143L-205.093,163.697L-205.822,163.697L-205.822,159.746Z" style="fill:rgb(158,161,168);fill-rule:nonzero;"/>
        </g>
        <g id="text1600">
            <path id="path1612" d="M2,7.737L3.083,7.737L3.083,10.883L4.672,10.883L4.672,7.737L5.755,7.737L5.755,15.779L4.672,15.779L4.672,11.799L3.083,11.799L3.083,15.779L2,15.779L2,7.737Z" style="fill:rgb(158,161,168);fill-rule:nonzero;"/>
            <path id="path1614" d="M7.38,7.737L8.307,7.737L9.016,11.018C9.102,11.428 9.181,11.839 9.25,12.253C9.323,12.662 9.389,13.093 9.448,13.544C9.455,13.485 9.46,13.44 9.464,13.409C9.467,13.374 9.47,13.35 9.474,13.336L9.625,12.414L9.76,11.539L9.88,10.961L10.51,7.737L11.448,7.737L12.188,15.779L11.151,15.779L10.969,13.049C10.962,12.911 10.955,12.791 10.948,12.69C10.944,12.589 10.943,12.506 10.943,12.44L10.896,11.362L10.87,10.372C10.87,10.365 10.868,10.352 10.865,10.331C10.865,10.306 10.863,10.275 10.859,10.237L10.833,10.398C10.806,10.589 10.78,10.756 10.755,10.898C10.734,11.041 10.715,11.161 10.698,11.258L10.562,11.992L10.51,12.268L9.833,15.779L9.104,15.779L8.469,12.747C8.382,12.348 8.304,11.944 8.234,11.534C8.168,11.121 8.108,10.688 8.052,10.237L7.74,15.779L6.719,15.779L7.38,7.737Z" style="fill:rgb(158,161,168);fill-rule:nonzero;"/>
        </g>
        <g id="g1056" transform="matrix(0.581278,0,0,1.12199,-110.656,-0.441413)">
            <path id="path1049" d="M339.553,7.317L339.553,8.185C339.305,8.064 339.098,8.004 338.931,8.004C338.702,8.004 338.505,8.061 338.341,8.176C338.177,8.287 338.041,8.461 337.933,8.696C337.828,8.931 337.749,9.23 337.696,9.592C337.647,9.951 337.622,10.376 337.622,10.868C337.622,12.638 338.075,13.523 338.982,13.523C339.14,13.523 339.33,13.474 339.553,13.375L339.553,14.262C339.321,14.392 339.061,14.457 338.773,14.457C337.322,14.457 336.596,13.271 336.596,10.901C336.596,9.62 336.772,8.666 337.125,8.041C337.481,7.416 338.024,7.104 338.755,7.104C339.024,7.104 339.29,7.175 339.553,7.317L339.553,7.317Z" style="fill:rgb(158,161,168);fill-rule:nonzero;"/>
            <path id="path1051" d="M339.79,7.201L340.741,7.201L341.173,9.847L341.247,10.325L341.401,11.365C341.425,11.541 341.447,11.702 341.466,11.848C341.487,11.993 341.506,12.125 341.521,12.242L341.568,12.595C341.577,12.524 341.585,12.46 341.591,12.405C341.597,12.349 341.603,12.303 341.609,12.265L341.735,11.435L341.897,10.344C341.912,10.245 341.926,10.153 341.939,10.07C341.954,9.986 341.968,9.912 341.981,9.847L342.445,7.201L343.345,7.201L341.939,14.368L341.173,14.368L339.79,7.201Z" style="fill:rgb(158,161,168);fill-rule:nonzero;"/>
            <path id="path1053" d="M348.651,7.317L348.651,8.185C348.404,8.064 348.197,8.004 348.029,8.004C347.8,8.004 347.604,8.061 347.44,8.176C347.276,8.287 347.14,8.461 347.031,8.696C346.926,8.931 346.847,9.23 346.795,9.592C346.745,9.951 346.72,10.376 346.72,10.868C346.72,12.638 347.174,13.523 348.08,13.523C348.238,13.523 348.429,13.474 348.651,13.375L348.651,14.262C348.419,14.392 348.159,14.457 347.872,14.457C346.42,14.457 345.694,13.271 345.694,10.901C345.694,9.62 345.871,8.666 346.224,8.041C346.58,7.416 347.123,7.104 347.853,7.104C348.122,7.104 348.388,7.175 348.651,7.317L348.651,7.317Z" style="fill:rgb(158,161,168);fill-rule:nonzero;"/>
            <path id="path1055" d="M352.992,10.961C352.992,12.227 352.851,13.126 352.569,13.658C352.288,14.19 351.816,14.457 351.154,14.457C350.457,14.457 349.967,14.17 349.682,13.598C349.4,13.038 349.26,12.043 349.26,10.613C349.26,9.338 349.399,8.436 349.677,7.907C349.959,7.374 350.436,7.108 351.107,7.108C351.707,7.108 352.153,7.314 352.444,7.726C352.636,8.001 352.775,8.392 352.862,8.9C352.948,9.37 352.992,10.057 352.992,10.961ZM351.98,11.063C351.98,9.822 351.924,8.999 351.813,8.594C351.701,8.185 351.474,7.981 351.13,7.981C350.787,7.981 350.558,8.168 350.443,8.543C350.332,8.92 350.276,9.678 350.276,10.817C350.276,11.866 350.335,12.594 350.453,12.999C350.573,13.383 350.799,13.575 351.13,13.575C351.455,13.575 351.678,13.395 351.799,13.036C351.919,12.68 351.98,12.023 351.98,11.063L351.98,11.063Z" style="fill:rgb(158,161,168);fill-rule:nonzero;"/>
            <path id="path1057" d="M354.292,7.201L355.118,7.201L355.749,10.126C355.827,10.491 355.896,10.857 355.958,11.226C356.023,11.591 356.082,11.975 356.134,12.377C356.141,12.324 356.145,12.284 356.148,12.256C356.151,12.225 356.155,12.204 356.158,12.191L356.293,11.37L356.413,10.59L356.52,10.074L357.082,7.201L357.917,7.201L358.576,14.368L357.653,14.368L357.49,11.936C357.484,11.812 357.478,11.705 357.472,11.616C357.469,11.526 357.467,11.452 357.467,11.393L357.425,10.432L357.402,9.55C357.402,9.544 357.401,9.531 357.398,9.513C357.398,9.491 357.396,9.463 357.393,9.429L357.37,9.573C357.345,9.743 357.322,9.892 357.301,10.019C357.282,10.146 357.265,10.252 357.249,10.339L357.129,10.994L357.082,11.24L356.479,14.368L355.829,14.368L355.262,11.667C355.184,11.311 355.115,10.95 355.053,10.585C354.994,10.217 354.94,9.832 354.89,9.429L354.612,14.368L353.702,14.368L354.292,7.201Z" style="fill:rgb(158,161,168);fill-rule:nonzero;"/>
            <path id="path1060" d="M359.375,7.201L360.647,7.201C361.259,7.201 361.705,7.356 361.983,7.665C362.262,7.978 362.401,8.473 362.401,9.151C362.401,10.104 362.121,10.72 361.561,10.998C361.279,11.125 360.872,11.189 360.34,11.189L360.34,14.368L359.375,14.368L359.375,7.201ZM360.34,10.362C360.739,10.362 361.015,10.282 361.166,10.121C361.321,9.957 361.399,9.666 361.399,9.248C361.399,8.821 361.324,8.509 361.176,8.31C361.027,8.112 360.794,8.013 360.475,8.013L360.34,8.013L360.34,10.362Z" style="fill:rgb(158,161,168);fill-rule:nonzero;"/>
        </g>
    </g>
</svg>
