<?xml version="1.0" encoding="UTF-8" standalone="no"?>
<!DOCTYPE svg PUBLIC "-//W3C//DTD SVG 1.1//EN" "http://www.w3.org/Graphics/SVG/1.1/DTD/svg11.dtd">
<svg width="100%" height="100%" viewBox="0 0 105 380" version="1.1" xmlns="http://www.w3.org/2000/svg" xmlns:xlink="http://www.w3.org/1999/xlink" xml:space="preserve" xmlns:serif="http://www.serif.com/" style="fill-rule:evenodd;clip-rule:evenodd;stroke-linejoin:round;stroke-miterlimit:2;">
    <g id="Layer-2" serif:id="Layer 2">
        <rect id="rect4689" x="0" y="0" width="105" height="380" style="fill:rgb(44,45,48);fill-rule:nonzero;"/>
        <g id="text80" transform="matrix(1.00498,0,0,0.995047,7.49999,4.99997)">
            <path id="path4726" d="M29.851,371.706L29.851,363.943L31.853,363.943L32.903,366.668C32.96,366.829 33.024,367.013 33.094,367.221C33.168,367.429 33.249,367.668 33.336,367.94L33.552,368.624C33.475,367.95 33.416,367.373 33.376,366.894C33.336,366.415 33.316,366.013 33.316,365.687L33.316,363.943L35.317,363.943L35.317,371.706L33.316,371.706L32.26,368.85C32.149,368.545 32.049,368.26 31.958,367.995C31.871,367.727 31.794,367.472 31.727,367.231C31.77,367.777 31.802,368.253 31.822,368.659C31.843,369.065 31.853,369.42 31.853,369.725L31.853,371.706L29.851,371.706Z" style="fill:rgb(158,161,168);fill-rule:nonzero;"/>
            <path id="path4728" d="M39.887,371.706L37.791,371.706L37.791,368.418L35.865,363.943L38.052,363.943L38.429,365.094C38.503,365.319 38.568,365.535 38.625,365.743C38.686,365.951 38.739,366.15 38.786,366.341C38.863,366.056 38.93,365.811 38.987,365.607C39.044,365.399 39.095,365.232 39.138,365.104L39.52,363.943L41.692,363.943L39.887,368.418L39.887,371.706Z" style="fill:rgb(158,161,168);fill-rule:nonzero;"/>
            <path id="path4730" d="M41.894,371.515L41.894,369.076C42.306,369.639 42.752,369.921 43.231,369.921C43.412,369.921 43.56,369.874 43.673,369.78C43.787,369.683 43.844,369.562 43.844,369.418C43.844,369.21 43.72,369.008 43.472,368.81L43.13,368.543C42.902,368.372 42.708,368.203 42.547,368.035C42.386,367.865 42.256,367.69 42.155,367.513C42.054,367.332 41.981,367.146 41.934,366.954C41.887,366.763 41.863,366.562 41.863,366.351C41.863,365.989 41.947,365.61 42.115,365.215C42.199,365.03 42.296,364.863 42.406,364.712C42.517,364.558 42.644,364.422 42.789,364.305C43.184,363.969 43.662,363.802 44.222,363.802C44.721,363.802 45.224,363.934 45.73,364.199L45.73,366.572C45.559,366.308 45.365,366.1 45.147,365.949C44.929,365.795 44.714,365.718 44.503,365.718C44.342,365.718 44.21,365.765 44.106,365.858C43.999,365.949 43.945,366.058 43.945,366.185C43.945,366.393 44.087,366.599 44.372,366.804L44.704,367.05C45.147,367.368 45.463,367.695 45.655,368.03C45.849,368.366 45.946,368.758 45.946,369.207C45.946,369.971 45.713,370.601 45.247,371.098C44.781,371.594 44.191,371.842 43.477,371.842C42.985,371.842 42.457,371.733 41.894,371.515L41.894,371.515Z" style="fill:rgb(158,161,168);fill-rule:nonzero;"/>
            <path id="path4732" d="M49.576,371.706L47.48,371.706L47.48,365.803L46.323,365.803L46.323,363.943L50.778,363.943L50.778,365.803L49.576,365.803L49.576,371.706Z" style="fill:rgb(158,161,168);fill-rule:nonzero;"/>
            <path id="path4734" d="M56.525,371.706L54.428,371.706L54.428,368.584L53.428,368.584L53.428,371.706L51.331,371.706L51.331,363.943L53.428,363.943L53.428,366.688L54.428,366.688L54.428,363.943L56.525,363.943L56.525,371.706Z" style="fill:rgb(158,161,168);fill-rule:nonzero;"/>
            <rect id="path4736" x="57.606" y="363.943" width="2.097" height="7.763" style="fill:rgb(158,161,168);fill-rule:nonzero;"/>
        </g>
        <g id="g1220" transform="matrix(1,0,0,1,0,-2)">
            <g id="rect4778-3-6" transform="matrix(1,0,0,1.04328,0,-5.71311)">
                <path d="M15.017,32L89.983,32C95.532,32 100,37.256 100,43.785L100,120.215C100,126.744 95.532,132 89.983,132L15.017,132C9.468,132 5,126.744 5,120.215L5,43.785C5,37.256 9.468,32 15.017,32Z" style="fill:rgb(158,161,168);fill-rule:nonzero;"/>
            </g>
            <g id="text963" transform="matrix(1,0,0,1,0,4)">
                <path id="path1101" d="M40.659,29.865C40.659,31.09 40.379,32.087 39.82,32.854C39.265,33.618 38.541,34 37.648,34C36.857,34 36.178,33.707 35.612,33.12C34.9,32.377 34.544,31.262 34.544,29.776C34.544,28.352 34.916,27.264 35.659,26.51C36.211,25.951 36.865,25.672 37.622,25.672C38.55,25.672 39.287,26.05 39.836,26.807C40.385,27.564 40.659,28.583 40.659,29.865ZM38.404,29.88C38.404,28.425 38.147,27.698 37.633,27.698C37.376,27.698 37.171,27.889 37.018,28.271C36.869,28.625 36.794,29.146 36.794,29.833C36.794,30.51 36.864,31.036 37.003,31.411C37.145,31.783 37.341,31.969 37.591,31.969C37.848,31.969 38.046,31.785 38.185,31.417C38.331,31.049 38.404,30.536 38.404,29.88L38.404,29.88Z" style="fill:rgb(44,45,48);fill-rule:nonzero;"/>
                <path id="path1103" d="M44.862,25.818L47.034,25.818L47.034,31.505C47.034,31.981 46.959,32.366 46.81,32.661C46.664,32.97 46.421,33.25 46.081,33.5C45.622,33.833 45.065,34 44.409,34C43.666,34 43.043,33.816 42.539,33.448C41.9,32.979 41.581,32.229 41.581,31.198L41.581,25.818L43.753,25.818L43.753,31.005C43.753,31.356 43.794,31.604 43.878,31.75C43.964,31.896 44.109,31.969 44.31,31.969C44.518,31.969 44.662,31.901 44.742,31.766C44.822,31.623 44.862,31.372 44.862,31.01L44.862,25.818Z" style="fill:rgb(44,45,48);fill-rule:nonzero;"/>
                <path id="path1105" d="M50.971,33.859L48.8,33.859L48.8,27.745L47.602,27.745L47.602,25.818L52.216,25.818L52.216,27.745L50.971,27.745L50.971,33.859Z" style="fill:rgb(44,45,48);fill-rule:nonzero;"/>
                <path id="path1107" d="M54.961,33.859L52.789,33.859L52.789,25.818L54.893,25.818C55.942,25.818 56.72,26.031 57.227,26.458C57.824,26.962 58.122,27.661 58.122,28.557C58.122,29.533 57.805,30.26 57.169,30.74C56.735,31.063 56.112,31.224 55.3,31.224L54.961,31.224L54.961,33.859ZM54.961,29.417L55.06,29.422C55.324,29.422 55.534,29.342 55.69,29.182C55.846,29.019 55.924,28.797 55.924,28.516C55.924,28.238 55.848,28.012 55.695,27.839C55.543,27.661 55.348,27.573 55.112,27.573L54.961,27.573L54.961,29.417Z" style="fill:rgb(44,45,48);fill-rule:nonzero;"/>
                <path id="path1109" d="M62.175,25.818L64.346,25.818L64.346,31.505C64.346,31.981 64.272,32.366 64.122,32.661C63.977,32.97 63.734,33.25 63.393,33.5C62.935,33.833 62.378,34 61.721,34C60.978,34 60.355,33.816 59.852,33.448C59.213,32.979 58.893,32.229 58.893,31.198L58.893,25.818L61.065,25.818L61.065,31.005C61.065,31.356 61.107,31.604 61.19,31.75C61.277,31.896 61.421,31.969 61.622,31.969C61.831,31.969 61.975,31.901 62.055,31.766C62.135,31.623 62.175,31.372 62.175,31.01L62.175,25.818Z" style="fill:rgb(44,45,48);fill-rule:nonzero;"/>
                <path id="path1111" d="M68.284,33.859L66.112,33.859L66.112,27.745L64.914,27.745L64.914,25.818L69.529,25.818L69.529,27.745L68.284,27.745L68.284,33.859Z" style="fill:rgb(44,45,48);fill-rule:nonzero;"/>
            </g>
            <g id="path1114" transform="matrix(1,0,0,1,0,2)">
                <path d="M13.49,40.638L13.49,42.708L15.892,42.708L15.892,44.375L13.49,44.375L13.49,47.467C13.49,47.806 13.557,48.036 13.691,48.158C13.826,48.275 14.093,48.333 14.492,48.333L15.69,48.333L15.69,50L13.691,50C12.771,50 12.118,49.809 11.732,49.427C11.35,49.041 11.159,48.388 11.159,47.467L11.159,44.375L10,44.375L10,42.708L11.159,42.708L11.159,40.638L13.49,40.638Z" style="fill-rule:nonzero;"/>
            </g>
            <g id="text971" transform="matrix(1.00001,0,0,0.999992,0,6)">
                <path id="path1117" d="M13.49,59.401L13.49,61.472L15.892,61.472L15.892,63.138L13.49,63.138L13.49,66.231C13.49,66.57 13.557,66.8 13.691,66.921C13.826,67.038 14.093,67.097 14.492,67.097L15.69,67.097L15.69,68.764L13.691,68.764C12.771,68.764 12.118,68.573 11.732,68.191C11.35,67.804 11.159,67.151 11.159,66.231L11.159,63.138L10,63.138L10,61.472L11.159,61.472L11.159,59.401L13.49,59.401Z" style="fill-rule:nonzero;"/>
                <path id="path1119" d="M19.629,59.043L21.074,59.043L17.643,70.001L16.204,70.001L19.629,59.043Z" style="fill-rule:nonzero;"/>
                <path id="path1121" d="M24.915,66.921L29.193,66.921L29.193,68.764L22.129,68.764L22.129,66.921L25.677,63.79C25.994,63.503 26.228,63.223 26.38,62.95C26.532,62.676 26.608,62.392 26.608,62.097C26.608,61.641 26.454,61.274 26.146,60.997C25.842,60.719 25.436,60.58 24.928,60.58C24.538,60.58 24.11,60.665 23.646,60.834C23.181,60.999 22.684,61.246 22.155,61.576L22.155,59.441C22.719,59.254 23.277,59.113 23.828,59.017C24.379,58.918 24.92,58.868 25.449,58.868C26.612,58.868 27.515,59.124 28.158,59.636C28.804,60.148 29.128,60.862 29.128,61.778C29.128,62.307 28.991,62.802 28.718,63.262C28.444,63.718 27.869,64.33 26.992,65.098L24.915,66.921Z" style="fill-rule:nonzero;"/>
            </g>
            <g id="text979" transform="matrix(1,0,0,1,0,10)">
                <path id="path1124" d="M13.49,79.401L13.49,81.471L15.892,81.471L15.892,83.138L13.49,83.138L13.49,86.23C13.49,86.569 13.557,86.799 13.691,86.921C13.826,87.038 14.093,87.096 14.492,87.096L15.69,87.096L15.69,88.763L13.691,88.763C12.771,88.763 12.118,88.572 11.732,88.19C11.35,87.804 11.159,87.151 11.159,86.23L11.159,83.138L10,83.138L10,81.471L11.159,81.471L11.159,79.401L13.49,79.401Z" style="fill-rule:nonzero;"/>
                <path id="path1126" d="M19.629,79.043L21.074,79.043L17.643,90L16.204,90L19.629,79.043Z" style="fill-rule:nonzero;"/>
                <path id="path1128" d="M27.285,83.522C27.941,83.691 28.438,83.987 28.776,84.408C29.119,84.824 29.29,85.356 29.29,86.003C29.29,86.966 28.921,87.7 28.184,88.203C27.446,88.702 26.369,88.952 24.954,88.952C24.455,88.952 23.954,88.911 23.451,88.828C22.951,88.75 22.457,88.631 21.966,88.47L21.966,86.536C22.435,86.771 22.899,86.949 23.359,87.07C23.824,87.187 24.28,87.246 24.727,87.246C25.391,87.246 25.898,87.131 26.25,86.901C26.606,86.671 26.784,86.341 26.784,85.911C26.784,85.469 26.602,85.135 26.237,84.909C25.877,84.679 25.343,84.564 24.635,84.564L23.633,84.564L23.633,82.949L24.688,82.949C25.317,82.949 25.786,82.852 26.094,82.656C26.402,82.457 26.556,82.155 26.556,81.751C26.556,81.378 26.406,81.089 26.107,80.885C25.807,80.681 25.384,80.579 24.837,80.579C24.434,80.579 24.026,80.625 23.613,80.716C23.201,80.807 22.791,80.942 22.383,81.12L22.383,79.284C22.878,79.145 23.368,79.041 23.854,78.971C24.34,78.902 24.818,78.867 25.286,78.867C26.549,78.867 27.493,79.075 28.118,79.492C28.748,79.904 29.063,80.527 29.063,81.361C29.063,81.929 28.913,82.396 28.613,82.76C28.314,83.121 27.871,83.375 27.285,83.522L27.285,83.522Z" style="fill-rule:nonzero;"/>
            </g>
            <g id="text983" transform="matrix(1.00001,0,0,0.999989,0,14)">
                <path id="path1131" d="M13.49,99.402L13.49,101.472L15.892,101.472L15.892,103.139L13.49,103.139L13.49,106.232C13.49,106.57 13.557,106.8 13.691,106.922C13.826,107.039 14.093,107.097 14.492,107.097L15.69,107.097L15.69,108.764L13.691,108.764C12.771,108.764 12.118,108.573 11.732,108.191C11.35,107.805 11.159,107.152 11.159,106.232L11.159,103.139L10,103.139L10,101.472L11.159,101.472L11.159,99.402L13.49,99.402Z" style="fill-rule:nonzero;"/>
                <path id="path1133" d="M19.629,99.044L21.074,99.044L17.643,110.001L16.204,110.001L19.629,99.044Z" style="fill-rule:nonzero;"/>
                <path id="path1135" d="M25.983,101.108L23.236,105.177L25.983,105.177L25.983,101.108ZM25.566,99.044L28.353,99.044L28.353,105.177L29.74,105.177L29.74,106.993L28.353,106.993L28.353,108.764L25.983,108.764L25.983,106.993L21.673,106.993L21.673,104.845L25.566,99.044Z" style="fill-rule:nonzero;"/>
            </g>
        </g>
        <g id="g1243" transform="matrix(1,0,0,1,0,-4)">
            <g id="rect1005" transform="matrix(1,0,0,1.03637,0,-9.38289)">
                <path d="M14.017,143L88.983,143C94.532,143 99,149.045 99,156.553L99,244.447C99,251.955 94.532,258 88.983,258L14.017,258C8.468,258 4,251.955 4,244.447L4,156.553C4,149.045 8.468,143 14.017,143Z" style="fill:rgb(158,161,168);fill-rule:nonzero;"/>
            </g>
            <g id="text1009" transform="matrix(1,0,0,1,0,20.5)">
                <rect id="path1139" x="39.089" y="120.318" width="2.172" height="8.042" style="fill:rgb(44,45,48);fill-rule:nonzero;"/>
                <path id="path1141" d="M42.38,128.359L42.38,120.318L44.453,120.318L45.542,123.141C45.601,123.307 45.667,123.498 45.74,123.714C45.816,123.929 45.899,124.177 45.99,124.458L46.214,125.167C46.134,124.469 46.073,123.872 46.031,123.375C45.99,122.878 45.969,122.462 45.969,122.125L45.969,120.318L48.042,120.318L48.042,128.359L45.969,128.359L44.875,125.401C44.76,125.085 44.656,124.79 44.563,124.516C44.472,124.238 44.392,123.974 44.323,123.724C44.368,124.29 44.401,124.783 44.422,125.203C44.443,125.623 44.453,125.991 44.453,126.307L44.453,128.359L42.38,128.359Z" style="fill:rgb(44,45,48);fill-rule:nonzero;"/>
                <path id="path1143" d="M51.344,128.359L49.172,128.359L49.172,120.318L51.276,120.318C52.325,120.318 53.102,120.531 53.609,120.958C54.207,121.462 54.505,122.161 54.505,123.057C54.505,124.033 54.188,124.76 53.552,125.24C53.118,125.563 52.495,125.724 51.682,125.724L51.344,125.724L51.344,128.359ZM51.344,123.917L51.443,123.922C51.707,123.922 51.917,123.842 52.073,123.682C52.229,123.519 52.307,123.297 52.307,123.016C52.307,122.738 52.231,122.512 52.078,122.339C51.925,122.162 51.731,122.073 51.495,122.073L51.344,122.073L51.344,123.917Z" style="fill:rgb(44,45,48);fill-rule:nonzero;"/>
                <path id="path1145" d="M58.557,120.318L60.729,120.318L60.729,126.005C60.729,126.481 60.655,126.866 60.505,127.161C60.359,127.47 60.116,127.75 59.776,128C59.318,128.333 58.76,128.5 58.104,128.5C57.361,128.5 56.738,128.316 56.234,127.948C55.595,127.479 55.276,126.729 55.276,125.698L55.276,120.318L57.448,120.318L57.448,125.505C57.448,125.856 57.49,126.104 57.573,126.25C57.66,126.396 57.804,126.469 58.005,126.469C58.214,126.469 58.358,126.401 58.437,126.266C58.517,126.123 58.557,125.872 58.557,125.51L58.557,120.318Z" style="fill:rgb(44,45,48);fill-rule:nonzero;"/>
                <path id="path1147" d="M64.667,128.359L62.495,128.359L62.495,122.245L61.297,122.245L61.297,120.318L65.911,120.318L65.911,122.245L64.667,122.245L64.667,128.359Z" style="fill:rgb(44,45,48);fill-rule:nonzero;"/>
            </g>
            <g id="path1150" transform="matrix(1.00001,0,0,0.999992,8.49607,29.237)">
                <path d="M1.563,148.032L3.776,148.032L3.776,141.75L1.504,142.219L1.504,140.513L3.763,140.044L6.146,140.044L6.146,148.032L8.359,148.032L8.359,149.764L1.563,149.764L1.563,148.032Z" style="fill-rule:nonzero;"/>
            </g>
            <g id="path1153" transform="matrix(1.00001,0,0,0.999992,8.9453,34.5)">
                <path d="M3.841,166.659L8.119,166.659L8.119,168.501L1.055,168.501L1.055,166.659L4.603,163.527C4.92,163.241 5.154,162.961 5.306,162.687C5.458,162.414 5.534,162.13 5.534,161.835C5.534,161.379 5.38,161.012 5.072,160.734C4.768,160.457 4.362,160.318 3.854,160.318C3.464,160.318 3.036,160.402 2.572,160.572C2.107,160.736 1.61,160.984 1.081,161.314L1.081,159.178C1.645,158.992 2.203,158.851 2.754,158.755C3.305,158.655 3.846,158.605 4.375,158.605C5.538,158.605 6.441,158.861 7.083,159.374C7.73,159.886 8.053,160.6 8.053,161.516C8.053,162.045 7.917,162.54 7.643,163C7.37,163.456 6.795,164.068 5.918,164.836L3.841,166.659Z" style="fill-rule:nonzero;"/>
            </g>
            <g id="path1156" transform="matrix(1,0,0,1,9.10807,39.5482)">
                <path d="M6.211,182.022C6.866,182.191 7.363,182.487 7.702,182.908C8.045,183.324 8.216,183.856 8.216,184.503C8.216,185.466 7.847,186.2 7.109,186.703C6.372,187.202 5.295,187.452 3.88,187.452C3.381,187.452 2.88,187.411 2.376,187.328C1.877,187.25 1.382,187.131 0.892,186.97L0.892,185.036C1.361,185.271 1.825,185.449 2.285,185.57C2.75,185.687 3.205,185.746 3.652,185.746C4.316,185.746 4.824,185.631 5.176,185.401C5.532,185.171 5.71,184.841 5.71,184.411C5.71,183.969 5.527,183.635 5.163,183.409C4.803,183.179 4.269,183.064 3.561,183.064L2.559,183.064L2.559,181.449L3.613,181.449C4.243,181.449 4.711,181.352 5.02,181.156C5.328,180.957 5.482,180.655 5.482,180.251C5.482,179.878 5.332,179.589 5.033,179.385C4.733,179.181 4.31,179.079 3.763,179.079C3.359,179.079 2.951,179.125 2.539,179.216C2.127,179.307 1.717,179.442 1.309,179.62L1.309,177.784C1.803,177.645 2.294,177.541 2.78,177.471C3.266,177.402 3.743,177.367 4.212,177.367C5.475,177.367 6.419,177.575 7.044,177.992C7.674,178.404 7.988,179.027 7.988,179.861C7.988,180.429 7.839,180.896 7.539,181.26C7.24,181.621 6.797,181.875 6.211,182.022L6.211,182.022Z" style="fill-rule:nonzero;"/>
            </g>
            <g id="path1159" transform="matrix(1.00001,0,0,0.999989,5.40103,41)">
                <path d="M8.909,202.346L6.161,206.415L8.909,206.415L8.909,202.346ZM8.492,200.282L11.279,200.282L11.279,206.415L12.665,206.415L12.665,208.231L11.279,208.231L11.279,210.002L8.909,210.002L8.909,208.231L4.599,208.231L4.599,206.083L8.492,200.282Z" style="fill-rule:nonzero;"/>
            </g>
            <g id="text1057" transform="matrix(0.999985,0,0,0.999992,-13.5616,17.5)">
                <rect id="path1162" x="40.562" y="132.459" width="2.172" height="8.042" style="fill-rule:nonzero;"/>
                <path id="path1164" d="M43.854,140.501L43.854,132.459L45.927,132.459L47.015,135.282C47.074,135.449 47.14,135.64 47.213,135.855C47.29,136.071 47.373,136.319 47.463,136.6L47.687,137.308C47.607,136.61 47.547,136.013 47.505,135.517C47.463,135.02 47.442,134.603 47.442,134.267L47.442,132.459L49.515,132.459L49.515,140.501L47.442,140.501L46.349,137.543C46.234,137.227 46.13,136.932 46.036,136.657C45.946,136.38 45.866,136.116 45.797,135.866C45.842,136.432 45.875,136.925 45.896,137.345C45.916,137.765 45.927,138.133 45.927,138.449L45.927,140.501L43.854,140.501Z" style="fill-rule:nonzero;"/>
            </g>
            <g id="text1061" transform="matrix(1.00001,0,0,0.999992,-2.35939,18.3594)">
                <path id="path1167" d="M85.083,137.027L84.958,139.35C84.475,139.544 84.043,139.642 83.661,139.642C82.762,139.642 82.005,139.312 81.39,138.652C80.703,137.913 80.359,136.866 80.359,135.511C80.359,134.244 80.682,133.227 81.328,132.459C81.973,131.695 82.836,131.314 83.916,131.314C84.267,131.314 84.624,131.38 84.989,131.511L84.989,133.808C84.666,133.485 84.334,133.324 83.994,133.324C83.55,133.324 83.203,133.513 82.953,133.892C82.703,134.274 82.578,134.801 82.578,135.475C82.578,135.801 82.609,136.093 82.671,136.35C82.734,136.607 82.822,136.824 82.937,137.001C83.055,137.178 83.199,137.314 83.369,137.407C83.539,137.501 83.734,137.548 83.953,137.548C84.328,137.548 84.704,137.374 85.083,137.027L85.083,137.027Z" style="fill-rule:nonzero;"/>
                <path id="path1169" d="M89.432,139.501L87.218,139.501L85.374,131.459L87.656,131.459L88.051,133.756C88.201,134.635 88.321,135.617 88.411,136.704C88.449,136.222 88.496,135.77 88.552,135.35C88.607,134.93 88.673,134.52 88.749,134.121L89.265,131.459L91.624,131.459L89.432,139.501Z" style="fill-rule:nonzero;"/>
            </g>
        </g>
        <g id="rect1083" transform="matrix(1,0,0,1.0492,0,-17.1227)">
            <path d="M18.141,263L86.859,263C94.139,263 100,267.468 100,273.017L100,337.983C100,343.532 94.139,348 86.859,348L18.141,348C10.861,348 5,343.532 5,337.983L5,273.017C5,267.468 10.861,263 18.141,263Z" style="fill:rgb(158,161,168);fill-rule:nonzero;"/>
        </g>
        <g id="g944">
            <g id="text1087" transform="matrix(1,0,0,1,0,39)">
                <path id="path1173" d="M44.987,230L42.815,230L42.815,223.885L41.617,223.885L41.617,221.958L46.232,221.958L46.232,223.885L44.987,223.885L44.987,230Z" style="fill:rgb(44,45,48);fill-rule:nonzero;"/>
                <rect id="path1175" x="46.805" y="221.958" width="2.172" height="8.042" style="fill:rgb(44,45,48);fill-rule:nonzero;"/>
                <path id="path1177" d="M58.372,230L56.102,230L55.94,226.333L55.872,224.87C55.848,225.151 55.82,225.42 55.789,225.677C55.758,225.931 55.72,226.177 55.674,226.417L54.992,230L53.221,230L52.638,226.411C52.603,226.203 52.556,225.845 52.497,225.339C52.49,225.262 52.475,225.106 52.451,224.87L52.398,226.354L52.206,230L49.893,230L50.831,221.958L53.534,221.958L53.987,224.667C54.025,224.889 54.058,225.13 54.086,225.391C54.117,225.651 54.145,225.934 54.169,226.24C54.214,225.729 54.277,225.273 54.357,224.87L54.909,221.958L57.591,221.958L58.372,230Z" style="fill:rgb(44,45,48);fill-rule:nonzero;"/>
                <path id="path1179" d="M59.346,230L59.346,221.958L63.383,221.958L63.383,223.849L61.518,223.849L61.518,225.021L63.19,225.021L63.19,226.839L61.518,226.839L61.518,228.068L63.383,228.068L63.383,230L59.346,230Z" style="fill:rgb(44,45,48);fill-rule:nonzero;"/>
            </g>
            <g id="text1091" transform="matrix(1.00001,0,0,0.999992,-4,35.8594)">
                <path id="path1182" d="M20.583,237.528L20.458,239.851C19.976,240.045 19.543,240.142 19.161,240.142C18.262,240.142 17.505,239.813 16.891,239.153C16.203,238.413 15.859,237.366 15.859,236.012C15.859,234.745 16.182,233.728 16.828,232.96C17.474,232.196 18.337,231.814 19.417,231.814C19.767,231.814 20.125,231.88 20.489,232.012L20.489,234.309C20.167,233.986 19.835,233.825 19.495,233.825C19.05,233.825 18.703,234.014 18.453,234.392C18.203,234.774 18.078,235.302 18.078,235.976C18.078,236.302 18.109,236.594 18.172,236.851C18.234,237.108 18.323,237.325 18.437,237.502C18.555,237.679 18.7,237.814 18.87,237.908C19.04,238.002 19.234,238.049 19.453,238.049C19.828,238.049 20.205,237.875 20.583,237.528L20.583,237.528Z" style="fill-rule:nonzero;"/>
                <path id="path1184" d="M24.932,240.002L22.719,240.002L20.875,231.96L23.156,231.96L23.552,234.257C23.701,235.135 23.821,236.118 23.911,237.205C23.95,236.722 23.996,236.271 24.052,235.851C24.108,235.431 24.173,235.021 24.25,234.622L24.766,231.96L27.125,231.96L24.932,240.002Z" style="fill-rule:nonzero;"/>
            </g>
            <g id="text1095" transform="matrix(1.00001,0,0,0.999992,4,36)">
                <path id="path1187" d="M65.062,240.002L65.062,231.96L66.937,231.96C68.01,231.96 68.845,232.248 69.442,232.825C70.227,233.578 70.619,234.632 70.619,235.986C70.619,237.32 70.288,238.349 69.625,239.075C69.059,239.693 68.215,240.002 67.093,240.002L65.062,240.002ZM67.234,238.059C68.012,238.021 68.401,237.351 68.401,236.049C68.401,235.406 68.302,234.899 68.104,234.528C67.906,234.153 67.638,233.965 67.302,233.965L67.234,233.965L67.234,238.059Z" style="fill-rule:nonzero;"/>
                <path id="path1189" d="M71.541,240.002L71.541,231.96L75.578,231.96L75.578,233.851L73.713,233.851L73.713,235.023L75.385,235.023L75.385,236.84L73.713,236.84L73.713,238.07L75.578,238.07L75.578,240.002L71.541,240.002Z" style="fill-rule:nonzero;"/>
                <path id="path1191" d="M78.671,240.002L76.5,240.002L76.5,231.96L78.604,231.96C79.652,231.96 80.43,232.174 80.937,232.601C81.534,233.104 81.833,233.804 81.833,234.7C81.833,235.675 81.515,236.403 80.88,236.882C80.446,237.205 79.822,237.366 79.01,237.366L78.671,237.366L78.671,240.002ZM78.671,235.559L78.77,235.564C79.034,235.564 79.244,235.485 79.401,235.325C79.557,235.162 79.635,234.939 79.635,234.658C79.635,234.38 79.559,234.155 79.406,233.981C79.253,233.804 79.059,233.715 78.822,233.715L78.671,233.715L78.671,235.559Z" style="fill-rule:nonzero;"/>
                <path id="path1193" d="M85.411,240.002L83.239,240.002L83.239,233.887L82.041,233.887L82.041,231.96L86.656,231.96L86.656,233.887L85.411,233.887L85.411,240.002Z" style="fill-rule:nonzero;"/>
                <path id="path1195" d="M92.609,240.002L90.437,240.002L90.437,236.767L89.401,236.767L89.401,240.002L87.229,240.002L87.229,231.96L89.401,231.96L89.401,234.804L90.437,234.804L90.437,231.96L92.609,231.96L92.609,240.002Z" style="fill-rule:nonzero;"/>
            </g>
        </g>
        <g id="text899" transform="matrix(0.99996,0,0,1,-1.02803,1.00001)">
            <path id="path910" d="M80.031,305.887L80.914,305.887L81.27,306.668C81.311,306.759 81.35,306.855 81.387,306.957C81.423,307.056 81.456,307.161 81.484,307.273C81.505,307.174 81.53,307.079 81.559,306.988C81.587,306.897 81.62,306.807 81.656,306.719L81.707,306.602L82,305.887L82.785,305.887L81.871,307.797L82.977,309.93L82.086,309.93L81.731,309.156C81.556,308.794 81.453,308.505 81.422,308.289C81.398,308.497 81.315,308.763 81.172,309.086L80.813,309.93L80.031,309.93L81.043,307.797L80.031,305.887Z" style="fill-rule:nonzero;"/>
            <path id="path912" d="M85.387,303.898L86.762,303.898L86.762,309.93L85.984,309.93L85.984,304.59L85.387,304.59L85.387,303.898Z" style="fill-rule:nonzero;"/>
            <path id="path914" d="M90.598,306.961C90.598,308.044 90.493,308.826 90.285,309.305C90.079,309.768 89.729,310 89.234,310C88.74,310 88.388,309.767 88.18,309.301C87.974,308.848 87.871,308.052 87.871,306.914C87.871,305.776 87.974,304.98 88.18,304.527C88.385,304.059 88.736,303.824 89.23,303.824C89.689,303.824 90.027,304.03 90.246,304.441C90.48,304.876 90.598,305.716 90.598,306.961L90.598,306.961ZM89.77,306.961C89.77,306.049 89.73,305.419 89.652,305.07C89.574,304.724 89.432,304.551 89.227,304.551C89.021,304.551 88.878,304.723 88.797,305.066C88.719,305.41 88.68,306.029 88.68,306.922C88.68,307.815 88.719,308.435 88.797,308.781C88.878,309.125 89.021,309.297 89.227,309.297C89.43,309.297 89.57,309.126 89.648,308.785C89.729,308.46 89.77,307.852 89.77,306.961L89.77,306.961Z" style="fill-rule:nonzero;"/>
        </g>
        <g id="text903" transform="matrix(1,0,0,1,-1.03146,0)">
            <path id="path905" d="M81.949,335.957L82.832,335.957L83.188,336.738C83.229,336.829 83.268,336.926 83.305,337.027C83.341,337.126 83.374,337.232 83.402,337.344C83.423,337.245 83.448,337.15 83.477,337.059C83.505,336.967 83.538,336.878 83.574,336.789L83.625,336.672L83.918,335.957L84.703,335.957L83.789,337.867L84.895,340L84.004,340L83.648,339.227C83.474,338.865 83.371,338.575 83.34,338.359C83.316,338.568 83.233,338.833 83.09,339.156L82.73,340L81.949,340L82.961,337.867L81.949,335.957Z" style="fill-rule:nonzero;"/>
            <path id="path907" d="M87.305,333.969L88.68,333.969L88.68,340L87.902,340L87.902,334.66L87.305,334.66L87.305,333.969Z" style="fill-rule:nonzero;"/>
        </g>
        <g id="text910">
            <path id="path913" d="M27.172,17.789L23.766,17.789L23.523,12.289L23.422,10.094C23.385,10.516 23.344,10.919 23.297,11.305C23.25,11.685 23.193,12.055 23.125,12.414L22.102,17.789L19.445,17.789L18.57,12.406C18.518,12.094 18.448,11.557 18.359,10.797C18.349,10.682 18.326,10.448 18.289,10.094L18.211,12.32L17.922,17.789L14.453,17.789L15.859,5.727L19.914,5.727L20.594,9.789C20.651,10.122 20.701,10.484 20.742,10.875C20.789,11.266 20.831,11.69 20.867,12.148C20.935,11.383 21.029,10.698 21.148,10.094L21.977,5.727L26,5.727L27.172,17.789Z" style="fill:rgb(158,161,168);fill-rule:nonzero;"/>
            <path id="path915" d="M37.5,11.797C37.5,13.635 37.081,15.13 36.242,16.281C35.409,17.427 34.323,18 32.984,18C31.797,18 30.779,17.56 29.93,16.68C28.862,15.565 28.328,13.893 28.328,11.664C28.328,9.529 28.885,7.896 30,6.766C30.828,5.927 31.81,5.508 32.945,5.508C34.336,5.508 35.443,6.076 36.266,7.211C37.089,8.346 37.5,9.875 37.5,11.797ZM34.117,11.82C34.117,9.638 33.732,8.547 32.961,8.547C32.576,8.547 32.268,8.833 32.039,9.406C31.815,9.937 31.703,10.719 31.703,11.75C31.703,12.766 31.807,13.555 32.016,14.117C32.229,14.674 32.523,14.953 32.898,14.953C33.284,14.953 33.581,14.677 33.789,14.125C34.008,13.573 34.117,12.805 34.117,11.82L34.117,11.82Z" style="fill:rgb(158,161,168);fill-rule:nonzero;"/>
            <path id="path917" d="M38.883,17.789L38.883,5.727L41.695,5.727C43.305,5.727 44.557,6.159 45.453,7.023C46.63,8.154 47.219,9.734 47.219,11.766C47.219,13.766 46.721,15.31 45.727,16.398C44.878,17.326 43.612,17.789 41.93,17.789L38.883,17.789ZM42.141,14.875C43.307,14.818 43.891,13.812 43.891,11.859C43.891,10.896 43.742,10.135 43.445,9.578C43.148,9.016 42.747,8.734 42.242,8.734L42.141,8.734L42.141,14.875Z" style="fill:rgb(158,161,168);fill-rule:nonzero;"/>
            <path id="path919" d="M48.602,17.789L48.602,5.727L54.656,5.727L54.656,8.562L51.859,8.562L51.859,10.32L54.367,10.32L54.367,13.047L51.859,13.047L51.859,14.891L54.656,14.891L54.656,17.789L48.602,17.789Z" style="fill:rgb(158,161,168);fill-rule:nonzero;"/>
            <path id="path921" d="M61.742,17.789L56.039,17.789L56.039,5.727L59.297,5.727L59.297,14.891L61.742,14.891L61.742,17.789Z" style="fill:rgb(158,161,168);fill-rule:nonzero;"/>
            <path id="path923" d="M70.703,17.789L62.398,17.789L65.695,13.391C66.07,12.891 66.385,12.445 66.641,12.055C66.896,11.659 67.096,11.31 67.242,11.008C67.529,10.44 67.672,9.857 67.672,9.258C67.672,8.93 67.604,8.669 67.469,8.477C67.333,8.284 67.148,8.187 66.914,8.187C66.393,8.187 66.133,8.677 66.133,9.656L66.133,9.844C66.138,9.917 66.143,10.003 66.148,10.102L62.984,10.102L62.969,9.664C62.969,8.451 63.344,7.456 64.094,6.68C64.849,5.898 65.815,5.508 66.992,5.508C68.128,5.508 69.055,5.878 69.773,6.617C70.497,7.341 70.859,8.286 70.859,9.453C70.859,10.391 70.612,11.302 70.117,12.187C69.867,12.63 69.542,13.096 69.141,13.586C68.745,14.07 68.263,14.581 67.695,15.117C68.185,15.081 68.677,15.055 69.172,15.039C69.672,15.023 70.182,15.016 70.703,15.016L70.703,17.789Z" style="fill:rgb(158,161,168);fill-rule:nonzero;"/>
            <path id="path925" d="M75.5,17.789L71.992,17.789L74.898,11.367C75.117,10.893 75.352,10.427 75.602,9.969C75.857,9.505 76.141,9.036 76.453,8.562L72.367,8.562L72.367,5.727L80.922,5.727L75.5,17.789Z" style="fill:rgb(158,161,168);fill-rule:nonzero;"/>
            <path id="path927" d="M85.125,17.789L81.617,17.789L84.523,11.367C84.742,10.893 84.977,10.427 85.227,9.969C85.482,9.505 85.766,9.036 86.078,8.562L81.992,8.562L81.992,5.727L90.547,5.727L85.125,17.789Z" style="fill:rgb(158,161,168);fill-rule:nonzero;"/>
        </g>
    </g>
</svg>
