<?xml version="1.0" encoding="UTF-8" standalone="no"?>
<!DOCTYPE svg PUBLIC "-//W3C//DTD SVG 1.1//EN" "http://www.w3.org/Graphics/SVG/1.1/DTD/svg11.dtd">
<svg width="100%" height="100%" viewBox="0 0 195 380" version="1.1" xmlns="http://www.w3.org/2000/svg" xmlns:xlink="http://www.w3.org/1999/xlink" xml:space="preserve" xmlns:serif="http://www.serif.com/" style="fill-rule:evenodd;clip-rule:evenodd;stroke-linejoin:round;stroke-miterlimit:2;">
    <g id="Layer-2" serif:id="Layer 2">
        <rect id="rect4689" x="0" y="0" width="195" height="380" style="fill:rgb(44,45,48);fill-rule:nonzero;"/>
        <g id="text989">
        </g>
        <g id="text80" transform="matrix(1.00498,0,0,0.995047,52.5,4.99997)">
            <path id="path4726" d="M29.851,371.706L29.851,363.943L31.853,363.943L32.903,366.668C32.96,366.829 33.024,367.013 33.094,367.221C33.168,367.429 33.249,367.668 33.336,367.94L33.552,368.624C33.475,367.95 33.416,367.373 33.376,366.894C33.336,366.415 33.316,366.013 33.316,365.687L33.316,363.943L35.317,363.943L35.317,371.706L33.316,371.706L32.26,368.85C32.149,368.545 32.049,368.26 31.958,367.995C31.871,367.727 31.794,367.472 31.727,367.231C31.77,367.777 31.802,368.253 31.822,368.659C31.843,369.065 31.853,369.42 31.853,369.725L31.853,371.706L29.851,371.706Z" style="fill:rgb(158,161,168);fill-rule:nonzero;"/>
            <path id="path4728" d="M39.887,371.706L37.791,371.706L37.791,368.418L35.865,363.943L38.052,363.943L38.429,365.094C38.503,365.319 38.568,365.535 38.625,365.743C38.686,365.951 38.739,366.15 38.786,366.341C38.863,366.056 38.93,365.811 38.987,365.607C39.044,365.399 39.095,365.232 39.138,365.104L39.52,363.943L41.692,363.943L39.887,368.418L39.887,371.706Z" style="fill:rgb(158,161,168);fill-rule:nonzero;"/>
            <path id="path4730" d="M41.894,371.515L41.894,369.076C42.306,369.639 42.752,369.921 43.231,369.921C43.412,369.921 43.56,369.874 43.673,369.78C43.787,369.683 43.844,369.562 43.844,369.418C43.844,369.21 43.72,369.008 43.472,368.81L43.13,368.543C42.902,368.372 42.708,368.203 42.547,368.035C42.386,367.865 42.256,367.69 42.155,367.513C42.054,367.332 41.981,367.146 41.934,366.954C41.887,366.763 41.863,366.562 41.863,366.351C41.863,365.989 41.947,365.61 42.115,365.215C42.199,365.03 42.296,364.863 42.406,364.712C42.517,364.558 42.644,364.422 42.789,364.305C43.184,363.969 43.662,363.802 44.222,363.802C44.721,363.802 45.224,363.934 45.73,364.199L45.73,366.572C45.559,366.308 45.365,366.1 45.147,365.949C44.929,365.795 44.714,365.718 44.503,365.718C44.342,365.718 44.21,365.765 44.106,365.858C43.999,365.949 43.945,366.058 43.945,366.185C43.945,366.393 44.087,366.599 44.372,366.804L44.704,367.05C45.147,367.368 45.463,367.695 45.655,368.03C45.849,368.366 45.946,368.758 45.946,369.207C45.946,369.971 45.713,370.601 45.247,371.098C44.781,371.594 44.191,371.842 43.477,371.842C42.985,371.842 42.457,371.733 41.894,371.515L41.894,371.515Z" style="fill:rgb(158,161,168);fill-rule:nonzero;"/>
            <path id="path4732" d="M49.576,371.706L47.48,371.706L47.48,365.803L46.323,365.803L46.323,363.943L50.778,363.943L50.778,365.803L49.576,365.803L49.576,371.706Z" style="fill:rgb(158,161,168);fill-rule:nonzero;"/>
            <path id="path4734" d="M56.525,371.706L54.428,371.706L54.428,368.584L53.428,368.584L53.428,371.706L51.331,371.706L51.331,363.943L53.428,363.943L53.428,366.688L54.428,366.688L54.428,363.943L56.525,363.943L56.525,371.706Z" style="fill:rgb(158,161,168);fill-rule:nonzero;"/>
            <rect id="path4736" x="57.606" y="363.943" width="2.097" height="7.763" style="fill:rgb(158,161,168);fill-rule:nonzero;"/>
        </g>
        <g id="text4987">
        </g>
        <g id="text1321">
        </g>
        <g id="text1418">
        </g>
        <g id="rect1149" transform="matrix(1,0,0,-1,0,0)">
            <rect x="0" y="-58" width="195" height="18" style="fill:rgb(77,77,77);fill-opacity:0.78;"/>
        </g>
        <g id="rect1219" transform="matrix(1,0,0,-1,0,0)">
            <rect x="0" y="-78" width="195" height="18" style="fill:rgb(26,26,26);fill-opacity:0.78;"/>
        </g>
        <g id="rect1223" transform="matrix(1,0,0,-1,0,0)">
            <rect x="0" y="-98" width="195" height="18" style="fill:rgb(77,77,77);fill-opacity:0.78;"/>
        </g>
        <g id="rect1227" transform="matrix(1,0,0,-1,0,0)">
            <rect x="0" y="-118" width="195" height="18" style="fill:rgb(26,26,26);fill-opacity:0.78;"/>
        </g>
        <g id="rect1231" transform="matrix(1,0,0,-1,0,0)">
            <rect x="0" y="-138" width="195" height="18" style="fill:rgb(77,77,77);fill-opacity:0.78;"/>
        </g>
        <g id="rect1235" transform="matrix(1,0,0,-1,0,0)">
            <rect x="0" y="-158" width="195" height="18" style="fill:rgb(26,26,26);fill-opacity:0.78;"/>
        </g>
        <g id="rect1239" transform="matrix(1,0,0,-1,0,0)">
            <rect x="0" y="-178" width="195" height="18" style="fill:rgb(77,77,77);fill-opacity:0.78;"/>
        </g>
        <g id="rect1243" transform="matrix(1,0,0,-1,0,0)">
            <rect x="0" y="-198" width="195" height="18" style="fill:rgb(26,26,26);fill-opacity:0.78;"/>
        </g>
        <g id="rect1247" transform="matrix(1,0,0,-1,0,0)">
            <rect x="0" y="-218" width="195" height="18" style="fill:rgb(77,77,77);fill-opacity:0.78;"/>
        </g>
        <g id="rect1251" transform="matrix(1,0,0,-1,0,0)">
            <rect x="0" y="-238" width="195" height="18" style="fill:rgb(26,26,26);fill-opacity:0.78;"/>
        </g>
        <g id="rect1255" transform="matrix(1,0,0,-1,0,0)">
            <rect x="0" y="-258" width="195" height="18" style="fill:rgb(77,77,77);fill-opacity:0.78;"/>
        </g>
        <g id="rect1259" transform="matrix(1,0,0,-1,0,0)">
            <rect x="0" y="-278" width="195" height="18" style="fill:rgb(26,26,26);fill-opacity:0.78;"/>
        </g>
        <g id="rect1263" transform="matrix(1,0,0,-1,0,0)">
            <rect x="0" y="-298" width="195" height="18" style="fill:rgb(77,77,77);fill-opacity:0.78;"/>
        </g>
        <g id="rect1267" transform="matrix(1,0,0,-1,0,0)">
            <rect x="0" y="-318" width="195" height="18" style="fill:rgb(26,26,26);fill-opacity:0.78;"/>
        </g>
        <g id="rect1271" transform="matrix(1,0,0,-1,0,0)">
            <rect x="0" y="-338" width="195" height="18" style="fill:rgb(77,77,77);fill-opacity:0.78;"/>
        </g>
        <g id="rect1275" transform="matrix(1,0,0,-1,0,0)">
            <rect x="0" y="-358" width="195" height="18" style="fill:rgb(26,26,26);fill-opacity:0.78;"/>
        </g>
        <g id="text970" transform="matrix(1,0,0,1,7.5,0)">
            <path id="path972" d="M31.092,17.754L27.118,17.754L26.836,11.337L26.717,8.776C26.675,9.268 26.626,9.739 26.572,10.189C26.517,10.632 26.45,11.064 26.371,11.483L25.177,17.754L22.078,17.754L21.057,11.474C20.997,11.109 20.914,10.484 20.811,9.596C20.799,9.463 20.772,9.189 20.729,8.776L20.638,11.374L20.301,17.754L16.254,17.754L17.895,3.681L22.625,3.681L23.418,8.421C23.485,8.809 23.543,9.232 23.591,9.687C23.646,10.143 23.694,10.638 23.737,11.173C23.816,10.28 23.925,9.481 24.065,8.776L25.031,3.681L29.725,3.681L31.092,17.754Z" style="fill:rgb(158,161,168);fill-rule:nonzero;"/>
            <path id="path974" d="M38.539,3.681L42.34,3.681L42.34,13.634C42.34,14.467 42.209,15.141 41.948,15.658C41.693,16.198 41.267,16.687 40.672,17.125C39.87,17.708 38.895,18 37.746,18C36.446,18 35.355,17.678 34.474,17.034C33.356,16.214 32.797,14.901 32.797,13.096L32.797,3.681L36.598,3.681L36.598,12.759C36.598,13.373 36.671,13.807 36.816,14.062C36.968,14.318 37.22,14.445 37.573,14.445C37.938,14.445 38.19,14.327 38.329,14.09C38.469,13.841 38.539,13.4 38.539,12.768L38.539,3.681Z" style="fill:rgb(158,161,168);fill-rule:nonzero;"/>
            <path id="path976" d="M50.971,17.754L44.318,17.754L44.318,3.681L48.118,3.681L48.118,14.372L50.971,14.372L50.971,17.754Z" style="fill:rgb(158,161,168);fill-rule:nonzero;"/>
            <path id="path978" d="M56.632,17.754L52.831,17.754L52.831,7.053L50.734,7.053L50.734,3.681L58.81,3.681L58.81,7.053L56.632,7.053L56.632,17.754Z" style="fill:rgb(158,161,168);fill-rule:nonzero;"/>
            <rect id="path980" x="59.813" y="3.681" width="3.801" height="14.073" style="fill:rgb(158,161,168);fill-rule:nonzero;"/>
            <path id="path982" d="M71.689,17.754L67.815,17.754L64.589,3.681L68.581,3.681L69.273,7.701C69.535,9.238 69.744,10.957 69.902,12.859C69.969,12.015 70.051,11.225 70.148,10.49C70.246,9.754 70.361,9.037 70.495,8.339L71.397,3.681L75.526,3.681L71.689,17.754Z" style="fill:rgb(158,161,168);fill-rule:nonzero;"/>
            <path id="path984" d="M86.491,10.763C86.491,12.908 86.002,14.652 85.023,15.995C84.051,17.332 82.784,18 81.223,18C79.837,18 78.649,17.487 77.659,16.46C76.413,15.159 75.79,13.209 75.79,10.608C75.79,8.117 76.441,6.212 77.741,4.893C78.707,3.915 79.852,3.426 81.177,3.426C82.799,3.426 84.091,4.088 85.051,5.413C86.011,6.737 86.491,8.521 86.491,10.763ZM82.544,10.79C82.544,8.244 82.095,6.971 81.195,6.971C80.746,6.971 80.387,7.306 80.12,7.974C79.859,8.594 79.728,9.505 79.728,10.708C79.728,11.893 79.849,12.814 80.092,13.47C80.342,14.12 80.685,14.445 81.122,14.445C81.572,14.445 81.918,14.123 82.161,13.479C82.417,12.835 82.544,11.939 82.544,10.79L82.544,10.79Z" style="fill:rgb(158,161,168);fill-rule:nonzero;"/>
            <path id="path986" d="M94.758,17.754L88.104,17.754L88.104,3.681L91.905,3.681L91.905,14.372L94.758,14.372L94.758,17.754Z" style="fill:rgb(158,161,168);fill-rule:nonzero;"/>
            <path id="path988" d="M100.418,17.754L96.617,17.754L96.617,7.053L94.521,7.053L94.521,3.681L102.596,3.681L102.596,7.053L100.418,7.053L100.418,17.754Z" style="fill:rgb(158,161,168);fill-rule:nonzero;"/>
            <rect id="path990" x="103.599" y="3.681" width="3.801" height="14.073" style="fill:rgb(158,161,168);fill-rule:nonzero;"/>
            <path id="path992" d="M123.842,17.754L119.868,17.754L119.586,11.337L119.467,8.776C119.425,9.268 119.376,9.739 119.322,10.189C119.267,10.632 119.2,11.064 119.121,11.483L117.927,17.754L114.828,17.754L113.807,11.474C113.747,11.109 113.664,10.484 113.561,9.596C113.549,9.463 113.522,9.189 113.479,8.776L113.388,11.374L113.051,17.754L109.004,17.754L110.645,3.681L115.375,3.681L116.168,8.421C116.235,8.809 116.293,9.232 116.341,9.687C116.396,10.143 116.444,10.638 116.487,11.173C116.566,10.28 116.675,9.481 116.815,8.776L117.781,3.681L122.475,3.681L123.842,17.754Z" style="fill:rgb(158,161,168);fill-rule:nonzero;"/>
            <path id="path994" d="M125.547,17.754L125.547,3.681L132.611,3.681L132.611,6.99L129.348,6.99L129.348,9.04L132.273,9.04L132.273,12.221L129.348,12.221L129.348,14.372L132.611,14.372L132.611,17.754L125.547,17.754Z" style="fill:rgb(158,161,168);fill-rule:nonzero;"/>
            <path id="path996" d="M139.137,17.754L135.336,17.754L135.336,7.053L133.24,7.053L133.24,3.681L141.315,3.681L141.315,7.053L139.137,7.053L139.137,17.754Z" style="fill:rgb(158,161,168);fill-rule:nonzero;"/>
            <path id="path998" d="M152.326,17.754L148.215,17.754L146.337,12.741C146.319,12.656 146.286,12.543 146.237,12.404C146.194,12.264 146.14,12.097 146.073,11.902L146.1,12.832L146.1,17.754L142.318,17.754L142.318,3.681L146.209,3.681C147.923,3.681 149.205,4.018 150.056,4.693C151.137,5.556 151.678,6.783 151.678,8.375C151.678,10.076 150.952,11.252 149.5,11.902L152.326,17.754ZM146.118,10.198L146.374,10.198C146.811,10.198 147.176,10.031 147.467,9.697C147.759,9.362 147.905,8.937 147.905,8.421C147.905,7.369 147.355,6.844 146.255,6.844L146.118,6.844L146.118,10.198Z" style="fill:rgb(158,161,168);fill-rule:nonzero;"/>
            <path id="path1000" d="M163.746,10.763C163.746,12.908 163.257,14.652 162.279,15.995C161.306,17.332 160.039,18 158.478,18C157.092,18 155.905,17.487 154.914,16.46C153.668,15.159 153.046,13.209 153.046,10.608C153.046,8.117 153.696,6.212 154.996,4.893C155.962,3.915 157.108,3.426 158.432,3.426C160.055,3.426 161.346,4.088 162.306,5.413C163.266,6.737 163.746,8.521 163.746,10.763ZM159.799,10.79C159.799,8.244 159.35,6.971 158.451,6.971C158.001,6.971 157.642,7.306 157.375,7.974C157.114,8.594 156.983,9.505 156.983,10.708C156.983,11.893 157.105,12.814 157.348,13.47C157.597,14.12 157.94,14.445 158.378,14.445C158.827,14.445 159.174,14.123 159.417,13.479C159.672,12.835 159.799,11.939 159.799,10.79L159.799,10.79Z" style="fill:rgb(158,161,168);fill-rule:nonzero;"/>
        </g>
        <g id="text966" transform="matrix(0.81243,0,0,1.23088,-10,0)">
            <path id="path968" d="M92.316,19.456L93.765,19.456C94.364,19.456 94.81,19.599 95.103,19.884C95.473,20.255 95.658,20.821 95.658,21.582C95.658,22.168 95.56,22.638 95.362,22.994C95.168,23.347 94.89,23.566 94.527,23.65L96.029,27.623L94.913,27.623L93.416,23.624L93.416,27.623L92.316,27.623L92.316,19.456ZM93.416,23.074C93.843,23.074 94.144,22.975 94.32,22.778C94.497,22.58 94.585,22.247 94.585,21.778C94.585,21.524 94.565,21.307 94.527,21.127C94.491,20.948 94.433,20.801 94.352,20.688C94.274,20.576 94.172,20.493 94.045,20.44C93.922,20.387 93.774,20.36 93.601,20.36L93.416,20.36L93.416,23.074Z" style="fill:rgb(158,161,168);fill-rule:nonzero;"/>
            <path id="path970" d="M96.886,19.456L99.811,19.456L99.811,20.387L97.986,20.387L97.986,22.973L99.604,22.973L99.604,23.904L97.986,23.904L97.986,26.692L99.811,26.692L99.811,27.623L96.886,27.623L96.886,19.456Z" style="fill:rgb(158,161,168);fill-rule:nonzero;"/>
            <path id="path973" d="M103.545,19.625L103.545,20.699C103.21,20.459 102.908,20.339 102.64,20.339C102.351,20.339 102.115,20.442 101.932,20.646C101.748,20.84 101.657,21.099 101.657,21.424C101.657,21.709 101.722,21.954 101.852,22.159C101.919,22.268 102.029,22.409 102.18,22.582C102.335,22.755 102.535,22.963 102.778,23.206C103.226,23.661 103.531,24.054 103.693,24.386C103.855,24.706 103.936,25.1 103.936,25.565C103.936,26.196 103.758,26.716 103.402,27.125C103.046,27.524 102.589,27.723 102.032,27.723C101.563,27.723 101.163,27.594 100.831,27.337L100.831,26.247C101.223,26.533 101.579,26.676 101.9,26.676C102.2,26.676 102.434,26.577 102.603,26.38C102.773,26.179 102.857,25.907 102.857,25.565C102.857,25.269 102.792,25.003 102.661,24.766C102.594,24.654 102.501,24.525 102.381,24.38C102.261,24.232 102.111,24.068 101.932,23.888C101.653,23.613 101.422,23.37 101.239,23.158C101.055,22.947 100.92,22.762 100.831,22.603C100.662,22.293 100.578,21.901 100.578,21.429C100.578,20.791 100.743,20.285 101.075,19.911C101.41,19.534 101.859,19.345 102.423,19.345C102.815,19.345 103.189,19.438 103.545,19.625L103.545,19.625Z" style="fill:rgb(158,161,168);fill-rule:nonzero;"/>
            <path id="path975" d="M104.862,19.456L107.787,19.456L107.787,20.387L105.962,20.387L105.962,22.973L107.58,22.973L107.58,23.904L105.962,23.904L105.962,26.692L107.787,26.692L107.787,27.623L104.862,27.623L104.862,19.456Z" style="fill:rgb(158,161,168);fill-rule:nonzero;"/>
            <path id="path977" d="M108.146,19.456L111.727,19.456L111.727,20.419L110.495,20.419L110.495,27.623L109.416,27.623L109.416,20.419L108.146,20.419L108.146,19.456Z" style="fill:rgb(158,161,168);fill-rule:nonzero;"/>
            <path id="path979" d="M114.573,19.456L116.022,19.456C116.72,19.456 117.228,19.632 117.545,19.985C117.863,20.341 118.021,20.905 118.021,21.677C118.021,22.764 117.702,23.465 117.064,23.783C116.743,23.927 116.28,23.999 115.673,23.999L115.673,27.623L114.573,27.623L114.573,19.456ZM115.673,23.058C116.128,23.058 116.442,22.966 116.615,22.783C116.791,22.596 116.879,22.265 116.879,21.789C116.879,21.302 116.794,20.946 116.625,20.72C116.456,20.494 116.19,20.382 115.826,20.382L115.673,20.382L115.673,23.058Z" style="fill:rgb(158,161,168);fill-rule:nonzero;"/>
            <path id="path981" d="M118.868,19.456L121.793,19.456L121.793,20.387L119.968,20.387L119.968,22.973L121.586,22.973L121.586,23.904L119.968,23.904L119.968,26.692L121.793,26.692L121.793,27.623L118.868,27.623L118.868,19.456Z" style="fill:rgb(158,161,168);fill-rule:nonzero;"/>
            <path id="path983" d="M123.967,19.456L124.823,19.456L126.574,27.623L125.485,27.623L125.178,26.031L123.559,26.031L123.247,27.623L122.189,27.623L123.967,19.456ZM125.019,25.179L124.776,23.878C124.614,22.993 124.481,22.048 124.379,21.043C124.33,21.533 124.266,22.03 124.189,22.534C124.111,23.035 124.019,23.568 123.914,24.132L123.713,25.179L125.019,25.179Z" style="fill:rgb(158,161,168);fill-rule:nonzero;"/>
            <path id="path985" d="M127.225,19.456L128.325,19.456L128.325,23.412L129.859,19.456L130.97,19.456L129.362,23.412L131.097,27.623L129.859,27.623L128.325,23.412L128.325,27.623L127.225,27.623L127.225,19.456Z" style="fill:rgb(158,161,168);fill-rule:nonzero;"/>
            <path id="path987" d="M134.423,19.456L135.365,19.456L136.084,22.788C136.172,23.204 136.252,23.622 136.322,24.042C136.396,24.458 136.463,24.895 136.523,25.354C136.53,25.294 136.536,25.248 136.539,25.216C136.543,25.181 136.546,25.156 136.55,25.142L136.703,24.206L136.841,23.317L136.962,22.73L137.602,19.456L138.554,19.456L139.305,27.623L138.253,27.623L138.068,24.851C138.061,24.71 138.054,24.588 138.047,24.486C138.043,24.384 138.041,24.299 138.041,24.232L137.994,23.137L137.967,22.132C137.967,22.125 137.965,22.111 137.962,22.09C137.962,22.065 137.96,22.034 137.957,21.995L137.93,22.159C137.902,22.353 137.876,22.522 137.851,22.667C137.83,22.811 137.81,22.933 137.793,23.032L137.655,23.777L137.602,24.058L136.915,27.623L136.174,27.623L135.529,24.544C135.441,24.139 135.361,23.728 135.291,23.312C135.224,22.892 135.162,22.453 135.106,21.995L134.788,27.623L133.752,27.623L134.423,19.456Z" style="fill:rgb(158,161,168);fill-rule:nonzero;"/>
            <rect id="path989" x="140.215" y="19.456" width="1.1" height="8.167" style="fill:rgb(158,161,168);fill-rule:nonzero;"/>
            <path id="path991" d="M142.585,19.456L143.611,19.456L144.706,22.714C145.023,23.634 145.303,24.617 145.547,25.66C145.459,25.029 145.393,24.458 145.351,23.947C145.309,23.435 145.288,22.954 145.288,22.503L145.288,19.456L146.393,19.456L146.393,27.623L145.362,27.623L144.129,23.947C144.016,23.605 143.909,23.254 143.807,22.894C143.708,22.534 143.616,22.157 143.532,21.762C143.524,21.713 143.512,21.653 143.495,21.582C143.48,21.512 143.463,21.431 143.442,21.339C143.452,21.431 143.461,21.51 143.468,21.577C143.475,21.64 143.48,21.695 143.484,21.741L143.542,22.571L143.6,23.582C143.604,23.638 143.606,23.707 143.606,23.788C143.609,23.869 143.611,23.961 143.611,24.063L143.669,27.623L142.585,27.623L142.585,19.456Z" style="fill:rgb(158,161,168);fill-rule:nonzero;"/>
            <path id="path993" d="M150.291,19.456L151.233,19.456L151.952,22.788C152.04,23.204 152.12,23.622 152.19,24.042C152.264,24.458 152.331,24.895 152.391,25.354C152.398,25.294 152.403,25.248 152.407,25.216C152.41,25.181 152.414,25.156 152.418,25.142L152.571,24.206L152.708,23.317L152.83,22.73L153.47,19.456L154.422,19.456L155.173,27.623L154.121,27.623L153.936,24.851C153.928,24.71 153.921,24.588 153.914,24.486C153.911,24.384 153.909,24.299 153.909,24.232L153.862,23.137L153.835,22.132C153.835,22.125 153.833,22.111 153.83,22.09C153.83,22.065 153.828,22.034 153.824,21.995L153.798,22.159C153.77,22.353 153.743,22.522 153.719,22.667C153.698,22.811 153.678,22.933 153.661,23.032L153.523,23.777L153.47,24.058L152.782,27.623L152.042,27.623L151.397,24.544C151.309,24.139 151.229,23.728 151.159,23.312C151.092,22.892 151.03,22.453 150.974,21.995L150.656,27.623L149.619,27.623L150.291,19.456Z" style="fill:rgb(158,161,168);fill-rule:nonzero;"/>
            <path id="path995" d="M157.247,19.456L158.103,19.456L159.854,27.623L158.765,27.623L158.458,26.031L156.839,26.031L156.527,27.623L155.469,27.623L157.247,19.456ZM158.299,25.179L158.056,23.878C157.894,22.993 157.761,22.048 157.659,21.043C157.61,21.533 157.546,22.03 157.469,22.534C157.391,23.035 157.299,23.568 157.194,24.132L156.993,25.179L158.299,25.179Z" style="fill:rgb(158,161,168);fill-rule:nonzero;"/>
            <path id="path997" d="M159.949,19.456L161.018,19.456L161.584,21.037C161.806,21.662 161.938,22.118 161.98,22.407C162.019,22.228 162.062,22.053 162.107,21.884C162.157,21.715 162.208,21.545 162.261,21.376L162.335,21.138L162.858,19.456L163.969,19.456L162.456,23.476L163.969,27.623L162.858,27.623L162.319,26.068C162.21,25.757 162.122,25.479 162.055,25.232C161.988,24.985 161.94,24.766 161.912,24.576C161.884,24.812 161.836,25.038 161.769,25.253L161.584,25.835L161.489,26.142L161.018,27.623L159.854,27.623L161.399,23.476L159.949,19.456Z" style="fill:rgb(158,161,168);fill-rule:nonzero;"/>
            <path id="path999" d="M166.159,19.456L167.243,19.456L167.735,22.471L167.82,23.016L167.994,24.2C168.023,24.401 168.047,24.585 168.068,24.751C168.093,24.916 168.114,25.066 168.132,25.2L168.185,25.602C168.195,25.521 168.204,25.449 168.211,25.385C168.218,25.322 168.225,25.269 168.232,25.227L168.375,24.28L168.56,23.037C168.578,22.924 168.594,22.82 168.608,22.725C168.626,22.63 168.641,22.545 168.655,22.471L169.184,19.456L170.21,19.456L168.608,27.623L167.735,27.623L166.159,19.456Z" style="fill:rgb(158,161,168);fill-rule:nonzero;"/>
            <path id="path1001" d="M171.781,19.456L172.638,19.456L174.389,27.623L173.299,27.623L172.993,26.031L171.374,26.031L171.062,27.623L170.004,27.623L171.781,19.456ZM172.834,25.179L172.591,23.878C172.429,22.993 172.296,22.048 172.194,21.043C172.145,21.533 172.081,22.03 172.004,22.534C171.926,23.035 171.834,23.568 171.729,24.132L171.528,25.179L172.834,25.179Z" style="fill:rgb(158,161,168);fill-rule:nonzero;"/>
            <path id="path1003" d="M175.04,19.456L176.14,19.456L176.14,26.692L177.938,26.692L177.938,27.623L175.04,27.623L175.04,19.456Z" style="fill:rgb(158,161,168);fill-rule:nonzero;"/>
            <path id="path1005" d="M178.721,19.456L179.8,19.456L179.8,25.227C179.8,25.815 179.853,26.207 179.959,26.401C180.068,26.595 180.283,26.692 180.604,26.692C180.925,26.692 181.136,26.607 181.239,26.438C181.344,26.265 181.397,25.914 181.397,25.385L181.397,19.456L182.476,19.456L182.476,25.385C182.476,26.274 182.341,26.875 182.069,27.189C181.745,27.545 181.249,27.723 180.583,27.723C179.849,27.723 179.333,27.494 179.033,27.035C178.825,26.722 178.721,26.119 178.721,25.227L178.721,19.456Z" style="fill:rgb(158,161,168);fill-rule:nonzero;"/>
            <path id="path1007" d="M183.735,19.456L186.66,19.456L186.66,20.387L184.835,20.387L184.835,22.973L186.454,22.973L186.454,23.904L184.835,23.904L184.835,26.692L186.66,26.692L186.66,27.623L183.735,27.623L183.735,19.456Z" style="fill:rgb(158,161,168);fill-rule:nonzero;"/>
            <path id="path1009" d="M190.394,19.625L190.394,20.699C190.059,20.459 189.758,20.339 189.49,20.339C189.201,20.339 188.964,20.442 188.781,20.646C188.598,20.84 188.506,21.099 188.506,21.424C188.506,21.709 188.571,21.954 188.702,22.159C188.769,22.268 188.878,22.409 189.03,22.582C189.185,22.755 189.384,22.963 189.627,23.206C190.075,23.661 190.38,24.054 190.542,24.386C190.705,24.706 190.786,25.1 190.786,25.565C190.786,26.196 190.608,26.716 190.252,27.125C189.895,27.524 189.439,27.723 188.882,27.723C188.413,27.723 188.012,27.594 187.681,27.337L187.681,26.247C188.072,26.533 188.429,26.676 188.749,26.676C189.049,26.676 189.284,26.577 189.453,26.38C189.622,26.179 189.707,25.907 189.707,25.565C189.707,25.269 189.642,25.003 189.511,24.766C189.444,24.654 189.351,24.525 189.231,24.38C189.111,24.232 188.961,24.068 188.781,23.888C188.503,23.613 188.272,23.37 188.088,23.158C187.905,22.947 187.769,22.762 187.681,22.603C187.512,22.293 187.427,21.901 187.427,21.429C187.427,20.791 187.593,20.285 187.924,19.911C188.259,19.534 188.709,19.345 189.273,19.345C189.664,19.345 190.038,19.438 190.394,19.625L190.394,19.625Z" style="fill:rgb(158,161,168);fill-rule:nonzero;"/>
        </g>
    </g>
</svg>
