<?xml version="1.0" encoding="UTF-8" standalone="no"?>
<!DOCTYPE svg PUBLIC "-//W3C//DTD SVG 1.1//EN" "http://www.w3.org/Graphics/SVG/1.1/DTD/svg11.dtd">
<svg width="100%" height="100%" viewBox="0 0 75 380" version="1.1" xmlns="http://www.w3.org/2000/svg" xmlns:xlink="http://www.w3.org/1999/xlink" xml:space="preserve" xmlns:serif="http://www.serif.com/" style="fill-rule:evenodd;clip-rule:evenodd;stroke-linejoin:round;stroke-miterlimit:2;">
    <g id="Layer-2" serif:id="Layer 2">
        <rect id="rect4689" x="0" y="0" width="75" height="380" style="fill:rgb(44,45,48);"/>
        <g id="text989">
        </g>
        <g id="text80" transform="matrix(1.00498,0,0,0.995047,-7.50001,4.99997)">
            <path id="path4726" d="M29.851,371.706L29.851,363.943L31.853,363.943L32.903,366.668C32.96,366.829 33.024,367.013 33.094,367.221C33.168,367.429 33.249,367.668 33.336,367.94L33.552,368.624C33.475,367.95 33.416,367.373 33.376,366.894C33.336,366.415 33.316,366.013 33.316,365.687L33.316,363.943L35.317,363.943L35.317,371.706L33.316,371.706L32.26,368.85C32.149,368.545 32.049,368.26 31.958,367.995C31.871,367.727 31.794,367.472 31.727,367.231C31.77,367.777 31.802,368.253 31.822,368.659C31.843,369.065 31.853,369.42 31.853,369.725L31.853,371.706L29.851,371.706Z" style="fill:rgb(158,161,168);fill-rule:nonzero;"/>
            <path id="path4728" d="M39.887,371.706L37.791,371.706L37.791,368.418L35.865,363.943L38.052,363.943L38.429,365.094C38.503,365.319 38.568,365.535 38.625,365.743C38.686,365.951 38.739,366.15 38.786,366.341C38.863,366.056 38.93,365.811 38.987,365.607C39.044,365.399 39.095,365.232 39.138,365.104L39.52,363.943L41.692,363.943L39.887,368.418L39.887,371.706Z" style="fill:rgb(158,161,168);fill-rule:nonzero;"/>
            <path id="path4730" d="M41.894,371.515L41.894,369.076C42.306,369.639 42.752,369.921 43.231,369.921C43.412,369.921 43.56,369.874 43.673,369.78C43.787,369.683 43.844,369.562 43.844,369.418C43.844,369.21 43.72,369.008 43.472,368.81L43.13,368.543C42.902,368.372 42.708,368.203 42.547,368.035C42.386,367.865 42.256,367.69 42.155,367.513C42.054,367.332 41.981,367.146 41.934,366.954C41.887,366.763 41.863,366.562 41.863,366.351C41.863,365.989 41.947,365.61 42.115,365.215C42.199,365.03 42.296,364.863 42.406,364.712C42.517,364.558 42.644,364.422 42.789,364.305C43.184,363.969 43.662,363.802 44.222,363.802C44.721,363.802 45.224,363.934 45.73,364.199L45.73,366.572C45.559,366.308 45.365,366.1 45.147,365.949C44.929,365.795 44.714,365.718 44.503,365.718C44.342,365.718 44.21,365.765 44.106,365.858C43.999,365.949 43.945,366.058 43.945,366.185C43.945,366.393 44.087,366.599 44.372,366.804L44.704,367.05C45.147,367.368 45.463,367.695 45.655,368.03C45.849,368.366 45.946,368.758 45.946,369.207C45.946,369.971 45.713,370.601 45.247,371.098C44.781,371.594 44.191,371.842 43.477,371.842C42.985,371.842 42.457,371.733 41.894,371.515L41.894,371.515Z" style="fill:rgb(158,161,168);fill-rule:nonzero;"/>
            <path id="path4732" d="M49.576,371.706L47.48,371.706L47.48,365.803L46.323,365.803L46.323,363.943L50.778,363.943L50.778,365.803L49.576,365.803L49.576,371.706Z" style="fill:rgb(158,161,168);fill-rule:nonzero;"/>
            <path id="path4734" d="M56.525,371.706L54.428,371.706L54.428,368.584L53.428,368.584L53.428,371.706L51.331,371.706L51.331,363.943L53.428,363.943L53.428,366.688L54.428,366.688L54.428,363.943L56.525,363.943L56.525,371.706Z" style="fill:rgb(158,161,168);fill-rule:nonzero;"/>
            <rect id="path4736" x="57.606" y="363.943" width="2.097" height="7.763" style="fill:rgb(158,161,168);fill-rule:nonzero;"/>
        </g>
        <rect id="rect4778-3-6" x="2" y="36" width="71" height="130" style="fill:rgb(158,161,168);"/>
        <g id="text4987">
        </g>
        <g id="text938" transform="matrix(1,0,0,1,0,86)">
            <path id="path963" d="M14.146,128.039L14.146,129.625C13.651,129.271 13.205,129.094 12.81,129.094C12.382,129.094 12.034,129.245 11.763,129.547C11.492,129.833 11.356,130.216 11.356,130.695C11.356,131.117 11.453,131.479 11.646,131.781C11.744,131.943 11.906,132.151 12.13,132.406C12.359,132.661 12.653,132.969 13.013,133.328C13.674,134 14.125,134.581 14.364,135.07C14.604,135.544 14.724,136.125 14.724,136.812C14.724,137.745 14.461,138.513 13.935,139.117C13.409,139.706 12.734,140 11.911,140C11.218,140 10.627,139.81 10.138,139.43L10.138,137.82C10.716,138.242 11.242,138.453 11.716,138.453C12.159,138.453 12.505,138.307 12.755,138.016C13.005,137.719 13.13,137.318 13.13,136.812C13.13,136.375 13.034,135.982 12.841,135.633C12.742,135.466 12.604,135.276 12.427,135.062C12.25,134.844 12.028,134.602 11.763,134.336C11.351,133.93 11.01,133.57 10.739,133.258C10.468,132.945 10.268,132.672 10.138,132.437C9.888,131.979 9.763,131.401 9.763,130.703C9.763,129.76 10.007,129.013 10.497,128.461C10.992,127.904 11.656,127.625 12.489,127.625C13.067,127.625 13.619,127.763 14.146,128.039Z" style="fill:rgb(158,161,168);fill-rule:nonzero;"/>
            <path id="path965" d="M15.317,127.789L20.606,127.789L20.606,129.211L18.786,129.211L18.786,139.852L17.192,139.852L17.192,129.211L15.317,129.211L15.317,127.789Z" style="fill:rgb(158,161,168);fill-rule:nonzero;"/>
            <path id="path967" d="M22.997,127.789L24.263,127.789L26.849,139.852L25.239,139.852L24.786,137.5L22.396,137.5L21.935,139.852L20.372,139.852L22.997,127.789ZM24.552,136.242L24.192,134.32C23.953,133.013 23.757,131.617 23.606,130.133C23.534,130.857 23.44,131.591 23.325,132.336C23.211,133.076 23.075,133.862 22.919,134.695L22.622,136.242L24.552,136.242Z" style="fill:rgb(158,161,168);fill-rule:nonzero;"/>
            <path id="path969" d="M27.81,127.789L29.95,127.789C30.836,127.789 31.494,128 31.927,128.422C32.474,128.969 32.747,129.805 32.747,130.93C32.747,131.794 32.601,132.49 32.31,133.016C32.023,133.536 31.612,133.859 31.075,133.984L33.294,139.852L31.646,139.852L29.435,133.945L29.435,139.852L27.81,139.852L27.81,127.789ZM29.435,133.133C30.065,133.133 30.51,132.987 30.771,132.695C31.031,132.404 31.161,131.911 31.161,131.219C31.161,130.844 31.132,130.523 31.075,130.258C31.023,129.992 30.937,129.776 30.817,129.609C30.703,129.443 30.552,129.32 30.364,129.242C30.182,129.164 29.963,129.125 29.708,129.125L29.435,129.125L29.435,133.133Z" style="fill:rgb(158,161,168);fill-rule:nonzero;"/>
            <path id="path971" d="M33.755,127.789L39.044,127.789L39.044,129.211L37.224,129.211L37.224,139.852L35.63,139.852L35.63,129.211L33.755,129.211L33.755,127.789Z" style="fill:rgb(158,161,168);fill-rule:nonzero;"/>
        </g>
        <g id="text942" transform="matrix(1,0,0,1,0,102)">
            <path id="path954" d="M18.817,168.039L18.817,169.625C18.323,169.271 17.877,169.094 17.481,169.094C17.054,169.094 16.705,169.245 16.435,169.547C16.164,169.833 16.028,170.216 16.028,170.695C16.028,171.117 16.125,171.479 16.317,171.781C16.416,171.943 16.578,172.151 16.802,172.406C17.031,172.661 17.325,172.969 17.685,173.328C18.346,174 18.797,174.581 19.036,175.07C19.276,175.544 19.396,176.125 19.396,176.812C19.396,177.745 19.132,178.513 18.606,179.117C18.08,179.706 17.406,180 16.583,180C15.89,180 15.299,179.81 14.81,179.43L14.81,177.82C15.388,178.242 15.914,178.453 16.388,178.453C16.83,178.453 17.177,178.307 17.427,178.016C17.677,177.719 17.802,177.318 17.802,176.812C17.802,176.375 17.705,175.982 17.513,175.633C17.414,175.466 17.276,175.276 17.099,175.062C16.922,174.844 16.7,174.602 16.435,174.336C16.023,173.93 15.682,173.57 15.411,173.258C15.14,172.945 14.94,172.672 14.81,172.437C14.56,171.979 14.435,171.401 14.435,170.703C14.435,169.76 14.679,169.013 15.169,168.461C15.664,167.904 16.328,167.625 17.161,167.625C17.739,167.625 18.291,167.763 18.817,168.039Z" style="fill:rgb(158,161,168);fill-rule:nonzero;"/>
            <path id="path956" d="M19.989,167.789L25.278,167.789L25.278,169.211L23.458,169.211L23.458,179.852L21.864,179.852L21.864,169.211L19.989,169.211L19.989,167.789Z" style="fill:rgb(158,161,168);fill-rule:nonzero;"/>
            <path id="path958" d="M32.333,174.117C32.333,176.247 32.096,177.76 31.622,178.656C31.148,179.552 30.354,180 29.239,180C28.067,180 27.242,179.518 26.763,178.555C26.289,177.612 26.052,175.938 26.052,173.531C26.052,171.385 26.286,169.867 26.755,168.977C27.229,168.081 28.031,167.633 29.161,167.633C30.172,167.633 30.922,167.979 31.411,168.672C31.734,169.135 31.968,169.794 32.114,170.648C32.26,171.44 32.333,172.596 32.333,174.117L32.333,174.117ZM30.63,174.289C30.63,172.201 30.536,170.815 30.349,170.133C30.161,169.445 29.778,169.102 29.2,169.102C28.622,169.102 28.237,169.417 28.044,170.047C27.856,170.682 27.763,171.958 27.763,173.875C27.763,175.641 27.862,176.865 28.06,177.547C28.263,178.193 28.643,178.516 29.2,178.516C29.747,178.516 30.122,178.214 30.325,177.609C30.528,177.01 30.63,175.904 30.63,174.289L30.63,174.289Z" style="fill:rgb(158,161,168);fill-rule:nonzero;"/>
            <path id="path960" d="M33.95,167.789L36.091,167.789C37.122,167.789 37.872,168.049 38.341,168.57C38.81,169.096 39.044,169.93 39.044,171.07C39.044,172.674 38.573,173.711 37.63,174.18C37.156,174.393 36.471,174.5 35.575,174.5L35.575,179.852L33.95,179.852L33.95,167.789ZM35.575,173.109C36.247,173.109 36.711,172.974 36.966,172.703C37.226,172.427 37.356,171.937 37.356,171.234C37.356,170.516 37.231,169.99 36.981,169.656C36.731,169.323 36.338,169.156 35.802,169.156L35.575,169.156L35.575,173.109Z" style="fill:rgb(158,161,168);fill-rule:nonzero;"/>
        </g>
        <g id="text892" transform="matrix(1,0,0,1,5.88053,108)">
            <path id="path907" d="M24.195,145.859L27.721,145.859L27.721,146.807L26.507,146.807L26.507,153.901L25.445,153.901L25.445,146.807L24.195,146.807L24.195,145.859Z" style="fill:rgb(158,161,168);fill-rule:nonzero;"/>
            <path id="path909" d="M28.315,145.859L29.742,145.859C30.332,145.859 30.771,146 31.06,146.281C31.424,146.646 31.606,147.203 31.606,147.953C31.606,148.53 31.509,148.993 31.315,149.344C31.124,149.691 30.85,149.906 30.492,149.99L31.971,153.901L30.872,153.901L29.398,149.964L29.398,153.901L28.315,153.901L28.315,145.859ZM29.398,149.422C29.818,149.422 30.115,149.325 30.289,149.13C30.462,148.936 30.549,148.608 30.549,148.146C30.549,147.896 30.53,147.682 30.492,147.505C30.457,147.328 30.4,147.184 30.32,147.073C30.244,146.962 30.143,146.88 30.018,146.828C29.896,146.776 29.751,146.75 29.58,146.75L29.398,146.75L29.398,149.422Z" style="fill:rgb(158,161,168);fill-rule:nonzero;"/>
            <rect id="path911" x="32.815" y="145.859" width="1.083" height="8.042" style="fill:rgb(158,161,168);fill-rule:nonzero;"/>
            <path id="path913" d="M37.075,149.672L39.044,149.672L39.044,149.984C39.044,151.55 38.907,152.608 38.632,153.156C38.362,153.719 37.855,154 37.112,154C36.344,154 35.797,153.687 35.471,153.062C35.148,152.437 34.987,151.387 34.987,149.911C34.987,148.224 35.164,147.101 35.518,146.542C35.851,146.017 36.363,145.755 37.054,145.755C37.582,145.755 37.994,145.882 38.289,146.135C38.587,146.392 38.82,146.814 38.987,147.401L37.976,147.823C37.931,147.611 37.881,147.434 37.825,147.292C37.77,147.146 37.709,147.033 37.643,146.953C37.511,146.79 37.313,146.708 37.049,146.708C36.688,146.708 36.442,146.931 36.31,147.375C36.178,147.84 36.112,148.675 36.112,149.88C36.112,151.099 36.179,151.924 36.315,152.354C36.45,152.785 36.705,153 37.08,153C37.424,153 37.665,152.847 37.804,152.542C37.947,152.215 38.018,151.691 38.018,150.969L38.018,150.75L38.018,150.589L37.075,150.589L37.075,149.672Z" style="fill:rgb(158,161,168);fill-rule:nonzero;"/>
        </g>
        <g id="text896" transform="matrix(1,0,0,1,5.88053,114)">
            <path id="path898" d="M24.195,195.859L27.721,195.859L27.721,196.807L26.507,196.807L26.507,203.901L25.445,203.901L25.445,196.807L24.195,196.807L24.195,195.859Z" style="fill:rgb(158,161,168);fill-rule:nonzero;"/>
            <path id="path900" d="M28.315,195.859L29.742,195.859C30.332,195.859 30.771,196 31.06,196.281C31.424,196.646 31.606,197.203 31.606,197.953C31.606,198.53 31.509,198.993 31.315,199.344C31.124,199.691 30.85,199.906 30.492,199.99L31.971,203.901L30.872,203.901L29.398,199.964L29.398,203.901L28.315,203.901L28.315,195.859ZM29.398,199.422C29.818,199.422 30.115,199.325 30.289,199.13C30.462,198.936 30.549,198.608 30.549,198.146C30.549,197.896 30.53,197.682 30.492,197.505C30.457,197.328 30.4,197.184 30.32,197.073C30.244,196.962 30.143,196.88 30.018,196.828C29.896,196.776 29.751,196.75 29.58,196.75L29.398,196.75L29.398,199.422Z" style="fill:rgb(158,161,168);fill-rule:nonzero;"/>
            <rect id="path902" x="32.815" y="195.859" width="1.083" height="8.042" style="fill:rgb(158,161,168);fill-rule:nonzero;"/>
            <path id="path904" d="M37.075,199.672L39.044,199.672L39.044,199.984C39.044,201.55 38.907,202.608 38.632,203.156C38.362,203.719 37.855,204 37.112,204C36.344,204 35.797,203.687 35.471,203.062C35.148,202.437 34.987,201.387 34.987,199.911C34.987,198.224 35.164,197.101 35.518,196.542C35.851,196.017 36.363,195.755 37.054,195.755C37.582,195.755 37.994,195.882 38.289,196.135C38.587,196.392 38.82,196.814 38.987,197.401L37.976,197.823C37.931,197.611 37.881,197.434 37.825,197.292C37.77,197.146 37.709,197.033 37.643,196.953C37.511,196.79 37.313,196.708 37.049,196.708C36.688,196.708 36.442,196.931 36.31,197.375C36.178,197.84 36.112,198.675 36.112,199.88C36.112,201.099 36.179,201.924 36.315,202.354C36.45,202.785 36.705,203 37.08,203C37.424,203 37.665,202.847 37.804,202.542C37.947,202.215 38.018,201.691 38.018,200.969L38.018,200.75L38.018,200.589L37.075,200.589L37.075,199.672Z" style="fill:rgb(158,161,168);fill-rule:nonzero;"/>
        </g>
        <g id="text937" transform="matrix(1,0,0,1,2,29.9258)">
            <path id="path1140" d="M3.488,294.066L3.488,294.797C3.28,294.695 3.105,294.644 2.965,294.644C2.772,294.644 2.607,294.693 2.469,294.789C2.331,294.883 2.216,295.029 2.125,295.227C2.036,295.424 1.97,295.676 1.926,295.98C1.884,296.283 1.863,296.641 1.863,297.055C1.863,298.544 2.245,299.289 3.008,299.289C3.141,299.289 3.301,299.247 3.488,299.164L3.488,299.91C3.293,300.019 3.074,300.074 2.832,300.074C1.611,300.074 1,299.077 1,297.082C1,296.004 1.148,295.202 1.445,294.676C1.745,294.15 2.202,293.887 2.816,293.887C3.043,293.887 3.267,293.947 3.488,294.066Z" style="fill:rgb(158,161,168);fill-rule:nonzero;"/>
            <path id="path1142" d="M4.168,293.969L4.98,293.969L4.98,296.328L6.172,296.328L6.172,293.969L6.984,293.969L6.984,300L6.172,300L6.172,297.016L4.98,297.016L4.98,300L4.168,300L4.168,293.969Z" style="fill:rgb(158,161,168);fill-rule:nonzero;"/>
            <path id="path1144" d="M10.938,297.133C10.938,298.198 10.819,298.954 10.582,299.402C10.345,299.85 9.948,300.074 9.391,300.074C8.805,300.074 8.392,299.833 8.152,299.352C7.915,298.88 7.797,298.043 7.797,296.84C7.797,295.767 7.914,295.008 8.148,294.562C8.385,294.115 8.786,293.891 9.352,293.891C9.857,293.891 10.232,294.064 10.477,294.41C10.638,294.642 10.755,294.971 10.828,295.398C10.901,295.794 10.938,296.372 10.938,297.133L10.938,297.133ZM10.086,297.219C10.086,296.174 10.039,295.482 9.945,295.141C9.852,294.797 9.66,294.625 9.371,294.625C9.082,294.625 8.889,294.783 8.793,295.098C8.699,295.415 8.652,296.053 8.652,297.012C8.652,297.894 8.702,298.506 8.801,298.848C8.902,299.171 9.092,299.332 9.371,299.332C9.645,299.332 9.832,299.181 9.934,298.879C10.035,298.579 10.086,298.026 10.086,297.219L10.086,297.219Z" style="fill:rgb(158,161,168);fill-rule:nonzero;"/>
            <path id="path1146" d="M14.766,297.133C14.766,298.198 14.647,298.954 14.41,299.402C14.173,299.85 13.776,300.074 13.219,300.074C12.633,300.074 12.22,299.833 11.98,299.352C11.743,298.88 11.625,298.043 11.625,296.84C11.625,295.767 11.742,295.008 11.977,294.562C12.214,294.115 12.615,293.891 13.18,293.891C13.685,293.891 14.06,294.064 14.305,294.41C14.466,294.642 14.583,294.971 14.656,295.398C14.729,295.794 14.766,296.372 14.766,297.133L14.766,297.133ZM13.914,297.219C13.914,296.174 13.867,295.482 13.773,295.141C13.68,294.797 13.488,294.625 13.199,294.625C12.91,294.625 12.717,294.783 12.621,295.098C12.527,295.415 12.48,296.053 12.48,297.012C12.48,297.894 12.53,298.506 12.629,298.848C12.73,299.171 12.921,299.332 13.199,299.332C13.473,299.332 13.66,299.181 13.762,298.879C13.863,298.579 13.914,298.026 13.914,297.219L13.914,297.219Z" style="fill:rgb(158,161,168);fill-rule:nonzero;"/>
            <path id="path1148" d="M17.586,294.094L17.586,294.887C17.339,294.71 17.116,294.621 16.918,294.621C16.704,294.621 16.53,294.697 16.395,294.848C16.259,294.991 16.191,295.182 16.191,295.422C16.191,295.633 16.24,295.814 16.336,295.965C16.385,296.046 16.466,296.15 16.578,296.277C16.693,296.405 16.84,296.559 17.02,296.738C17.35,297.074 17.576,297.365 17.695,297.609C17.815,297.846 17.875,298.137 17.875,298.48C17.875,298.947 17.743,299.331 17.48,299.633C17.217,299.927 16.88,300.074 16.469,300.074C16.122,300.074 15.827,299.979 15.582,299.789L15.582,298.984C15.871,299.195 16.134,299.301 16.371,299.301C16.592,299.301 16.766,299.228 16.891,299.082C17.016,298.934 17.078,298.733 17.078,298.48C17.078,298.262 17.03,298.065 16.934,297.891C16.884,297.807 16.815,297.712 16.727,297.605C16.638,297.496 16.527,297.375 16.395,297.242C16.189,297.039 16.018,296.859 15.883,296.703C15.747,296.547 15.647,296.41 15.582,296.293C15.457,296.064 15.395,295.775 15.395,295.426C15.395,294.954 15.517,294.581 15.762,294.305C16.009,294.026 16.341,293.887 16.758,293.887C17.047,293.887 17.323,293.956 17.586,294.094L17.586,294.094Z" style="fill:rgb(158,161,168);fill-rule:nonzero;"/>
            <path id="path1150" d="M18.559,293.969L20.719,293.969L20.719,294.656L19.371,294.656L19.371,296.566L20.566,296.566L20.566,297.254L19.371,297.254L19.371,299.312L20.719,299.312L20.719,300L18.559,300L18.559,293.969Z" style="fill:rgb(158,161,168);fill-rule:nonzero;"/>
            <path id="path1152" d="M23.121,293.969L25.293,293.969L25.293,294.656L23.934,294.656L23.934,296.562L25.16,296.562L25.16,297.25L23.934,297.25L23.934,300L23.121,300L23.121,293.969Z" style="fill:rgb(158,161,168);fill-rule:nonzero;"/>
            <rect id="path1154" x="25.918" y="293.969" width="0.812" height="6.031" style="fill:rgb(158,161,168);fill-rule:nonzero;"/>
            <path id="path1156" d="M27.668,293.969L28.48,293.969L28.48,299.312L29.809,299.312L29.809,300L27.668,300L27.668,293.969Z" style="fill:rgb(158,161,168);fill-rule:nonzero;"/>
            <path id="path1158" d="M30.324,293.969L32.484,293.969L32.484,294.656L31.137,294.656L31.137,296.566L32.332,296.566L32.332,297.254L31.137,297.254L31.137,299.312L32.484,299.312L32.484,300L30.324,300L30.324,293.969Z" style="fill:rgb(158,161,168);fill-rule:nonzero;"/>
        </g>
        <g id="text941" transform="matrix(1,0,0,1,2,29.4258)">
            <path id="path1123" d="M5.436,327.469L6.068,327.469L7.361,333.5L6.557,333.5L6.33,332.324L5.135,332.324L4.904,333.5L4.123,333.5L5.436,327.469ZM6.213,331.695L6.033,330.734C5.913,330.081 5.816,329.383 5.74,328.641C5.704,329.003 5.657,329.37 5.6,329.742C5.542,330.112 5.475,330.505 5.396,330.922L5.248,331.695L6.213,331.695Z" style="fill:rgb(158,161,168);fill-rule:nonzero;"/>
            <path id="path1125" d="M7.842,327.469L8.639,327.469L8.639,331.73C8.639,332.165 8.678,332.454 8.756,332.598C8.837,332.741 8.995,332.812 9.232,332.812C9.469,332.812 9.626,332.75 9.701,332.625C9.779,332.497 9.818,332.238 9.818,331.848L9.818,327.469L10.615,327.469L10.615,331.848C10.615,332.504 10.515,332.948 10.314,333.18C10.075,333.443 9.709,333.574 9.217,333.574C8.675,333.574 8.294,333.405 8.072,333.066C7.919,332.835 7.842,332.389 7.842,331.73L7.842,327.469Z" style="fill:rgb(158,161,168);fill-rule:nonzero;"/>
            <path id="path1127" d="M11.064,327.469L13.709,327.469L13.709,328.18L12.799,328.18L12.799,333.5L12.002,333.5L12.002,328.18L11.064,328.18L11.064,327.469Z" style="fill:rgb(158,161,168);fill-rule:nonzero;"/>
            <path id="path1129" d="M17.236,330.633C17.236,331.698 17.118,332.454 16.881,332.902C16.644,333.35 16.247,333.574 15.689,333.574C15.104,333.574 14.691,333.333 14.451,332.852C14.214,332.38 14.096,331.543 14.096,330.34C14.096,329.267 14.213,328.508 14.447,328.062C14.684,327.615 15.085,327.391 15.65,327.391C16.156,327.391 16.531,327.564 16.775,327.91C16.937,328.142 17.054,328.471 17.127,328.898C17.2,329.294 17.236,329.872 17.236,330.633L17.236,330.633ZM16.385,330.719C16.385,329.674 16.338,328.982 16.244,328.641C16.15,328.297 15.959,328.125 15.67,328.125C15.381,328.125 15.188,328.283 15.092,328.598C14.998,328.915 14.951,329.553 14.951,330.512C14.951,331.395 15.001,332.007 15.1,332.348C15.201,332.671 15.391,332.832 15.67,332.832C15.943,332.832 16.131,332.681 16.232,332.379C16.334,332.079 16.385,331.526 16.385,330.719L16.385,330.719Z" style="fill:rgb(158,161,168);fill-rule:nonzero;"/>
            <path id="path1131" d="M20.057,327.594L20.057,328.387C19.809,328.21 19.587,328.121 19.389,328.121C19.175,328.121 19.001,328.197 18.865,328.348C18.73,328.491 18.662,328.682 18.662,328.922C18.662,329.133 18.71,329.314 18.807,329.465C18.856,329.546 18.937,329.65 19.049,329.777C19.163,329.905 19.311,330.059 19.49,330.238C19.821,330.574 20.046,330.865 20.166,331.109C20.286,331.346 20.346,331.637 20.346,331.98C20.346,332.447 20.214,332.831 19.951,333.133C19.688,333.427 19.351,333.574 18.939,333.574C18.593,333.574 18.298,333.479 18.053,333.289L18.053,332.484C18.342,332.695 18.605,332.801 18.842,332.801C19.063,332.801 19.236,332.728 19.361,332.582C19.486,332.434 19.549,332.233 19.549,331.98C19.549,331.762 19.501,331.565 19.404,331.391C19.355,331.307 19.286,331.212 19.197,331.105C19.109,330.996 18.998,330.875 18.865,330.742C18.659,330.539 18.489,330.359 18.354,330.203C18.218,330.047 18.118,329.91 18.053,329.793C17.928,329.564 17.865,329.275 17.865,328.926C17.865,328.454 17.988,328.081 18.232,327.805C18.48,327.526 18.812,327.387 19.229,327.387C19.518,327.387 19.794,327.456 20.057,327.594L20.057,327.594Z" style="fill:rgb(158,161,168);fill-rule:nonzero;"/>
            <path id="path1133" d="M21.982,327.469L22.615,327.469L23.908,333.5L23.104,333.5L22.877,332.324L21.682,332.324L21.451,333.5L20.67,333.5L21.982,327.469ZM22.76,331.695L22.58,330.734C22.46,330.081 22.363,329.383 22.287,328.641C22.251,329.003 22.204,329.37 22.146,329.742C22.089,330.112 22.021,330.505 21.943,330.922L21.795,331.695L22.76,331.695Z" style="fill:rgb(158,161,168);fill-rule:nonzero;"/>
            <path id="path1135" d="M23.768,327.469L24.568,327.469L24.932,329.695L24.994,330.098L25.123,330.973C25.144,331.121 25.162,331.256 25.178,331.379C25.196,331.501 25.212,331.612 25.225,331.711L25.264,332.008C25.271,331.948 25.278,331.895 25.283,331.848C25.288,331.801 25.294,331.762 25.299,331.73L25.404,331.031L25.541,330.113C25.554,330.03 25.566,329.953 25.576,329.883C25.589,329.812 25.601,329.75 25.611,329.695L26.002,327.469L26.76,327.469L25.576,333.5L24.932,333.5L23.768,327.469Z" style="fill:rgb(158,161,168);fill-rule:nonzero;"/>
            <path id="path1137" d="M27.201,327.469L29.361,327.469L29.361,328.156L28.014,328.156L28.014,330.066L29.209,330.066L29.209,330.754L28.014,330.754L28.014,332.812L29.361,332.812L29.361,333.5L27.201,333.5L27.201,327.469Z" style="fill:rgb(158,161,168);fill-rule:nonzero;"/>
        </g>
        <g id="text945" transform="matrix(1,0,0,1,-2,29.9258)">
            <path id="path1106" d="M49,296.727C49.271,296.825 49.457,296.983 49.559,297.199C49.66,297.415 49.711,297.766 49.711,298.25C49.711,298.875 49.605,299.335 49.395,299.629C49.186,299.923 48.858,300.07 48.41,300.07C47.96,300.07 47.629,299.923 47.418,299.629C47.21,299.335 47.105,298.875 47.105,298.25C47.105,297.766 47.156,297.415 47.258,297.199C47.359,296.983 47.546,296.825 47.816,296.727C47.577,296.622 47.408,296.469 47.309,296.266C47.21,296.047 47.16,295.751 47.16,295.379C47.16,295.121 47.184,294.898 47.23,294.711C47.28,294.523 47.355,294.37 47.457,294.25C47.559,294.128 47.688,294.038 47.844,293.98C48.003,293.923 48.191,293.894 48.41,293.894C48.629,293.894 48.816,293.923 48.973,293.98C49.129,294.038 49.258,294.128 49.359,294.25C49.461,294.37 49.535,294.523 49.582,294.711C49.632,294.898 49.656,295.121 49.656,295.379C49.656,295.751 49.607,296.047 49.508,296.266C49.409,296.469 49.24,296.622 49,296.727L49,296.727ZM48.855,295.445C48.855,294.878 48.706,294.594 48.406,294.594C48.109,294.594 47.961,294.875 47.961,295.437C47.961,296.062 48.111,296.375 48.41,296.375C48.707,296.375 48.855,296.065 48.855,295.445ZM48.91,298.344C48.91,298.133 48.901,297.953 48.883,297.805C48.865,297.654 48.835,297.531 48.793,297.437C48.751,297.344 48.698,297.275 48.633,297.23C48.57,297.186 48.495,297.164 48.406,297.164C48.232,297.164 48.104,297.254 48.024,297.434C47.945,297.613 47.906,297.904 47.906,298.305C47.906,299.005 48.074,299.355 48.41,299.355C48.744,299.355 48.91,299.018 48.91,298.344L48.91,298.344Z" style="fill:rgb(158,161,168);fill-rule:nonzero;"/>
            <rect id="path1108" x="50.063" y="297.625" width="1.422" height="0.609" style="fill:rgb(158,161,168);fill-rule:nonzero;"/>
            <path id="path1110" d="M51.469,293.969L54.113,293.969L54.113,294.68L53.203,294.68L53.203,300L52.406,300L52.406,294.68L51.469,294.68L51.469,293.969Z" style="fill:rgb(158,161,168);fill-rule:nonzero;"/>
            <path id="path1112" d="M54.559,293.969L55.629,293.969C56.072,293.969 56.401,294.074 56.617,294.285C56.891,294.559 57.027,294.977 57.027,295.539C57.027,295.971 56.954,296.319 56.809,296.582C56.665,296.842 56.46,297.004 56.191,297.066L57.301,300L56.477,300L55.371,297.047L55.371,300L54.559,300L54.559,293.969ZM55.371,296.641C55.686,296.641 55.909,296.568 56.039,296.422C56.169,296.276 56.234,296.03 56.234,295.684C56.234,295.496 56.22,295.336 56.191,295.203C56.165,295.07 56.122,294.962 56.063,294.879C56.005,294.796 55.93,294.734 55.836,294.695C55.745,294.656 55.635,294.637 55.508,294.637L55.371,294.637L55.371,296.641Z" style="fill:rgb(158,161,168);fill-rule:nonzero;"/>
            <path id="path1114" d="M58.793,293.969L59.426,293.969L60.719,300L59.914,300L59.688,298.824L58.492,298.824L58.262,300L57.48,300L58.793,293.969ZM59.57,298.195L59.391,297.234C59.271,296.581 59.173,295.883 59.098,295.141C59.061,295.503 59.014,295.87 58.957,296.242C58.9,296.612 58.832,297.005 58.754,297.422L58.606,298.195L59.57,298.195Z" style="fill:rgb(158,161,168);fill-rule:nonzero;"/>
            <path id="path1116" d="M63.52,294.066L63.52,294.797C63.311,294.695 63.137,294.644 62.996,294.644C62.803,294.644 62.638,294.693 62.5,294.789C62.362,294.883 62.247,295.029 62.156,295.227C62.068,295.424 62.001,295.676 61.957,295.98C61.915,296.283 61.895,296.641 61.895,297.055C61.895,298.544 62.276,299.289 63.039,299.289C63.172,299.289 63.332,299.247 63.52,299.164L63.52,299.91C63.324,300.019 63.105,300.074 62.863,300.074C61.642,300.074 61.031,299.077 61.031,297.082C61.031,296.004 61.18,295.202 61.477,294.676C61.776,294.15 62.233,293.887 62.848,293.887C63.074,293.887 63.298,293.947 63.52,294.066L63.52,294.066Z" style="fill:rgb(158,161,168);fill-rule:nonzero;"/>
            <path id="path1118" d="M64.199,293.969L65.012,293.969L65.012,296.891L66.145,293.969L66.965,293.969L65.777,296.891L67.059,300L66.145,300L65.012,296.891L65.012,300L64.199,300L64.199,293.969Z" style="fill:rgb(158,161,168);fill-rule:nonzero;"/>
            <path id="path1120" d="M69.648,294.094L69.648,294.887C69.401,294.71 69.178,294.621 68.98,294.621C68.767,294.621 68.592,294.697 68.457,294.848C68.322,294.991 68.254,295.182 68.254,295.422C68.254,295.633 68.302,295.814 68.398,295.965C68.448,296.046 68.529,296.15 68.641,296.277C68.755,296.405 68.902,296.559 69.082,296.738C69.413,297.074 69.638,297.365 69.758,297.609C69.878,297.846 69.938,298.137 69.938,298.48C69.938,298.947 69.806,299.331 69.543,299.633C69.28,299.927 68.943,300.074 68.531,300.074C68.185,300.074 67.889,299.979 67.645,299.789L67.645,298.984C67.934,299.195 68.197,299.301 68.434,299.301C68.655,299.301 68.828,299.228 68.953,299.082C69.078,298.934 69.141,298.733 69.141,298.48C69.141,298.262 69.092,298.065 68.996,297.891C68.947,297.807 68.878,297.712 68.789,297.605C68.701,297.496 68.59,297.375 68.457,297.242C68.251,297.039 68.081,296.859 67.945,296.703C67.81,296.547 67.71,296.41 67.645,296.293C67.52,296.064 67.457,295.775 67.457,295.426C67.457,294.954 67.579,294.581 67.824,294.305C68.072,294.026 68.404,293.887 68.82,293.887C69.109,293.887 69.385,293.956 69.648,294.094L69.648,294.094Z" style="fill:rgb(158,161,168);fill-rule:nonzero;"/>
        </g>
        <g id="text949" transform="matrix(1,0,0,1,-2,30.9258)">
            <path id="path1089" d="M48.697,325.969L49.451,325.969L49.451,329.727L49.838,329.727L49.838,330.348L49.451,330.348L49.451,332L48.697,332L48.697,330.348L47.045,330.348L47.045,329.656L48.697,325.969ZM48.697,329.727L48.697,327.195L47.682,329.727L48.697,329.727Z" style="fill:rgb(158,161,168);fill-rule:nonzero;"/>
            <rect id="path1091" x="50.123" y="329.625" width="1.422" height="0.609" style="fill:rgb(158,161,168);fill-rule:nonzero;"/>
            <path id="path1093" d="M51.529,325.969L54.174,325.969L54.174,326.68L53.264,326.68L53.264,332L52.467,332L52.467,326.68L51.529,326.68L51.529,325.969Z" style="fill:rgb(158,161,168);fill-rule:nonzero;"/>
            <path id="path1095" d="M54.619,325.969L55.689,325.969C56.132,325.969 56.462,326.074 56.678,326.285C56.951,326.559 57.088,326.977 57.088,327.539C57.088,327.971 57.015,328.319 56.869,328.582C56.726,328.842 56.52,329.004 56.252,329.066L57.361,332L56.537,332L55.432,329.047L55.432,332L54.619,332L54.619,325.969ZM55.432,328.641C55.747,328.641 55.969,328.568 56.1,328.422C56.23,328.276 56.295,328.03 56.295,327.684C56.295,327.496 56.281,327.336 56.252,327.203C56.226,327.07 56.183,326.962 56.123,326.879C56.066,326.796 55.99,326.734 55.896,326.695C55.805,326.656 55.696,326.637 55.568,326.637L55.432,326.637L55.432,328.641Z" style="fill:rgb(158,161,168);fill-rule:nonzero;"/>
            <path id="path1097" d="M58.854,325.969L59.486,325.969L60.779,332L59.975,332L59.748,330.824L58.553,330.824L58.322,332L57.541,332L58.854,325.969ZM59.631,330.195L59.451,329.234C59.331,328.581 59.234,327.883 59.158,327.141C59.122,327.503 59.075,327.87 59.018,328.242C58.96,328.612 58.893,329.005 58.814,329.422L58.666,330.195L59.631,330.195Z" style="fill:rgb(158,161,168);fill-rule:nonzero;"/>
            <path id="path1099" d="M63.58,326.066L63.58,326.797C63.372,326.695 63.197,326.645 63.057,326.645C62.864,326.645 62.699,326.693 62.561,326.789C62.423,326.883 62.308,327.029 62.217,327.227C62.128,327.424 62.062,327.676 62.018,327.98C61.976,328.283 61.955,328.641 61.955,329.055C61.955,330.544 62.337,331.289 63.1,331.289C63.232,331.289 63.393,331.247 63.58,331.164L63.58,331.91C63.385,332.02 63.166,332.074 62.924,332.074C61.702,332.074 61.092,331.077 61.092,329.082C61.092,328.004 61.24,327.202 61.537,326.676C61.837,326.15 62.294,325.887 62.908,325.887C63.135,325.887 63.359,325.947 63.58,326.066L63.58,326.066Z" style="fill:rgb(158,161,168);fill-rule:nonzero;"/>
            <path id="path1101" d="M64.26,325.969L65.072,325.969L65.072,328.891L66.205,325.969L67.025,325.969L65.838,328.891L67.119,332L66.205,332L65.072,328.891L65.072,332L64.26,332L64.26,325.969Z" style="fill:rgb(158,161,168);fill-rule:nonzero;"/>
            <path id="path1103" d="M69.709,326.094L69.709,326.887C69.462,326.71 69.239,326.621 69.041,326.621C68.827,326.621 68.653,326.697 68.518,326.848C68.382,326.991 68.314,327.182 68.314,327.422C68.314,327.633 68.363,327.814 68.459,327.965C68.508,328.046 68.589,328.15 68.701,328.277C68.816,328.405 68.963,328.559 69.143,328.738C69.473,329.074 69.699,329.365 69.818,329.609C69.938,329.846 69.998,330.137 69.998,330.48C69.998,330.947 69.867,331.331 69.604,331.633C69.341,331.927 69.003,332.074 68.592,332.074C68.245,332.074 67.95,331.979 67.705,331.789L67.705,330.984C67.994,331.195 68.257,331.301 68.494,331.301C68.716,331.301 68.889,331.228 69.014,331.082C69.139,330.934 69.201,330.733 69.201,330.48C69.201,330.262 69.153,330.065 69.057,329.891C69.007,329.807 68.938,329.712 68.85,329.605C68.761,329.496 68.65,329.375 68.518,329.242C68.312,329.039 68.141,328.859 68.006,328.703C67.87,328.547 67.77,328.41 67.705,328.293C67.58,328.064 67.518,327.775 67.518,327.426C67.518,326.954 67.64,326.581 67.885,326.305C68.132,326.026 68.464,325.887 68.881,325.887C69.17,325.887 69.446,325.956 69.709,326.094L69.709,326.094Z" style="fill:rgb(158,161,168);fill-rule:nonzero;"/>
        </g>
        <g id="text1001" transform="matrix(1,0,0,1,1,-13.0002)">
            <path id="path1082" d="M13.089,78.042L13.089,79.964C12.964,79.977 12.854,79.986 12.76,79.99C12.667,79.997 12.589,80 12.526,80C11.901,80 11.378,79.813 10.958,79.438C10.674,79.184 10.443,78.837 10.266,78.396C10.089,77.955 10,77.502 10,77.037C10,76.21 10.253,75.518 10.76,74.959C11.264,74.406 11.899,74.13 12.667,74.13C12.712,74.13 12.769,74.132 12.839,74.136C12.908,74.139 12.991,74.144 13.089,74.151L13.089,75.985C12.47,76.026 12.161,76.363 12.161,76.995C12.161,77.28 12.238,77.53 12.391,77.745C12.547,77.95 12.733,78.052 12.948,78.052L13.01,78.052C13.035,78.049 13.061,78.045 13.089,78.042L13.089,78.042Z" style="fill:rgb(44,45,48);fill-rule:nonzero;"/>
            <path id="path1084" d="M19.031,79.88L16.943,79.88L16.943,76.901C16.943,76.644 16.917,76.465 16.865,76.365C16.816,76.264 16.729,76.214 16.604,76.214C16.312,76.214 16.167,76.49 16.167,77.042L16.167,79.88L14.078,79.88L14.078,71.083L16.167,71.083L16.167,74.229C16.167,74.399 16.165,74.542 16.161,74.656C16.161,74.771 16.16,74.858 16.156,74.917C16.153,74.976 16.148,75.038 16.141,75.104C16.134,75.17 16.127,75.243 16.12,75.323C16.457,74.528 16.95,74.13 17.599,74.13C18.05,74.13 18.401,74.299 18.651,74.635C18.905,74.972 19.031,75.441 19.031,76.042L19.031,79.88Z" style="fill:rgb(44,45,48);fill-rule:nonzero;"/>
            <path id="path1086" d="M24.161,79.88L21.99,79.88L21.99,73.729L21.12,73.729L21.12,71.839L24.161,71.839L24.161,79.88Z" style="fill:rgb(44,45,48);fill-rule:nonzero;"/>
        </g>
        <g id="text1007" transform="matrix(1,0,0,1,1,-11.0002)">
            <path id="path1075" d="M13.378,108.021L13.378,109.943C13.253,109.957 13.143,109.965 13.049,109.969C12.956,109.976 12.878,109.979 12.815,109.979C12.19,109.979 11.668,109.792 11.247,109.417C10.963,109.163 10.732,108.816 10.555,108.375C10.378,107.934 10.289,107.481 10.289,107.016C10.289,106.189 10.543,105.497 11.049,104.938C11.553,104.386 12.188,104.11 12.956,104.11C13.001,104.11 13.058,104.111 13.128,104.115C13.197,104.118 13.28,104.124 13.378,104.13L13.378,105.964C12.76,106.005 12.451,106.342 12.451,106.974C12.451,107.259 12.527,107.509 12.68,107.724C12.836,107.929 13.022,108.031 13.237,108.031L13.299,108.031C13.324,108.028 13.35,108.024 13.378,108.021L13.378,108.021Z" style="fill:rgb(44,45,48);fill-rule:nonzero;"/>
            <path id="path1077" d="M19.32,109.859L17.232,109.859L17.232,106.88C17.232,106.623 17.206,106.444 17.154,106.344C17.105,106.243 17.018,106.193 16.893,106.193C16.602,106.193 16.456,106.469 16.456,107.021L16.456,109.859L14.367,109.859L14.367,101.063L16.456,101.063L16.456,104.208C16.456,104.378 16.454,104.521 16.451,104.635C16.451,104.75 16.449,104.837 16.445,104.896C16.442,104.955 16.437,105.017 16.43,105.083C16.423,105.149 16.416,105.222 16.409,105.302C16.746,104.507 17.239,104.109 17.888,104.109C18.339,104.109 18.69,104.278 18.94,104.615C19.194,104.951 19.32,105.42 19.32,106.021L19.32,109.859Z" style="fill:rgb(44,45,48);fill-rule:nonzero;"/>
            <path id="path1079" d="M20.273,107.495L22.393,107.495C22.393,107.977 22.57,108.219 22.924,108.219C23.102,108.219 23.246,108.151 23.357,108.016C23.468,107.877 23.523,107.696 23.523,107.474C23.523,106.908 23.228,106.625 22.638,106.625C22.596,106.625 22.544,106.629 22.482,106.636C22.419,106.639 22.348,106.644 22.268,106.651L22.268,104.938C22.327,104.941 22.378,104.945 22.419,104.948L22.529,104.948C23.122,104.948 23.419,104.676 23.419,104.13C23.419,103.686 23.265,103.464 22.956,103.464C22.713,103.464 22.574,103.643 22.539,104L22.529,104.11L20.43,104.11C20.489,103.36 20.751,102.768 21.216,102.334C21.678,101.893 22.284,101.672 23.034,101.672C23.749,101.672 24.343,101.898 24.815,102.349C25.298,102.797 25.539,103.351 25.539,104.011C25.539,104.75 25.214,105.314 24.565,105.703C25.284,106.117 25.643,106.738 25.643,107.568C25.643,108.287 25.388,108.872 24.878,109.323C24.374,109.775 23.72,110 22.914,110C22.126,110 21.49,109.78 21.008,109.339C20.518,108.898 20.273,108.323 20.273,107.615L20.273,107.495Z" style="fill:rgb(44,45,48);fill-rule:nonzero;"/>
        </g>
        <g id="text1011" transform="matrix(1.00001,0,0,0.999993,-0.999992,-13)">
            <path id="path1068" d="M52.588,78.042L52.588,79.964C52.463,79.978 52.354,79.987 52.26,79.99C52.166,79.997 52.088,80.001 52.026,80.001C51.401,80.001 50.878,79.813 50.458,79.438C50.173,79.185 49.942,78.838 49.765,78.397C49.588,77.956 49.5,77.502 49.5,77.037C49.5,76.211 49.753,75.518 50.26,74.959C50.764,74.407 51.399,74.131 52.166,74.131C52.212,74.131 52.269,74.133 52.338,74.136C52.408,74.14 52.491,74.145 52.588,74.152L52.588,75.985C51.97,76.027 51.661,76.364 51.661,76.995C51.661,77.28 51.738,77.53 51.89,77.745C52.047,77.95 52.232,78.053 52.448,78.053L52.51,78.053C52.534,78.049 52.56,78.046 52.588,78.042L52.588,78.042Z" style="fill:rgb(44,45,48);fill-rule:nonzero;"/>
            <path id="path1070" d="M58.531,79.881L56.442,79.881L56.442,76.902C56.442,76.645 56.416,76.466 56.364,76.365C56.316,76.264 56.229,76.214 56.104,76.214C55.812,76.214 55.666,76.49 55.666,77.042L55.666,79.881L53.578,79.881L53.578,71.084L55.666,71.084L55.666,74.23C55.666,74.4 55.665,74.542 55.661,74.657C55.661,74.771 55.659,74.858 55.656,74.917C55.652,74.976 55.647,75.039 55.64,75.105C55.633,75.171 55.626,75.244 55.62,75.323C55.956,74.528 56.449,74.131 57.099,74.131C57.55,74.131 57.901,74.299 58.151,74.636C58.404,74.973 58.531,75.441 58.531,76.042L58.531,79.881Z" style="fill:rgb(44,45,48);fill-rule:nonzero;"/>
            <path id="path1072" d="M64.89,79.881L59.354,79.881L61.552,76.948C61.802,76.615 62.012,76.318 62.182,76.058C62.352,75.794 62.486,75.561 62.583,75.36C62.774,74.981 62.87,74.593 62.87,74.193C62.87,73.974 62.824,73.801 62.734,73.672C62.644,73.544 62.521,73.48 62.364,73.48C62.017,73.48 61.843,73.806 61.843,74.459L61.843,74.584C61.847,74.632 61.851,74.69 61.854,74.756L59.745,74.756L59.734,74.464C59.734,73.655 59.984,72.992 60.484,72.474C60.988,71.954 61.632,71.693 62.416,71.693C63.173,71.693 63.791,71.94 64.271,72.433C64.753,72.915 64.995,73.546 64.995,74.323C64.995,74.948 64.83,75.556 64.5,76.146C64.333,76.441 64.116,76.752 63.849,77.079C63.585,77.402 63.264,77.742 62.885,78.099C63.212,78.075 63.54,78.058 63.87,78.047C64.203,78.037 64.543,78.032 64.89,78.032L64.89,79.881Z" style="fill:rgb(44,45,48);fill-rule:nonzero;"/>
        </g>
        <g id="text1015" transform="matrix(1,0,0,1,-0.999992,-11)">
            <path id="path1061" d="M52.589,108.042L52.589,109.964C52.464,109.977 52.354,109.986 52.26,109.99C52.167,109.997 52.089,110 52.026,110C51.401,110 50.878,109.813 50.458,109.438C50.174,109.184 49.943,108.837 49.766,108.396C49.589,107.955 49.5,107.502 49.5,107.037C49.5,106.21 49.753,105.518 50.26,104.959C50.764,104.406 51.399,104.13 52.167,104.13C52.212,104.13 52.269,104.132 52.339,104.136C52.408,104.139 52.491,104.144 52.589,104.151L52.589,105.985C51.97,106.026 51.661,106.363 51.661,106.995C51.661,107.28 51.738,107.53 51.891,107.745C52.047,107.95 52.233,108.052 52.448,108.052L52.51,108.052C52.535,108.049 52.561,108.045 52.589,108.042L52.589,108.042Z" style="fill:rgb(44,45,48);fill-rule:nonzero;"/>
            <path id="path1063" d="M58.531,109.88L56.443,109.88L56.443,106.901C56.443,106.644 56.417,106.465 56.365,106.365C56.316,106.264 56.229,106.214 56.104,106.214C55.813,106.214 55.667,106.49 55.667,107.042L55.667,109.88L53.578,109.88L53.578,101.083L55.667,101.083L55.667,104.229C55.667,104.399 55.665,104.542 55.661,104.656C55.661,104.771 55.66,104.858 55.656,104.917C55.653,104.976 55.647,105.038 55.641,105.104C55.634,105.17 55.627,105.243 55.62,105.323C55.957,104.528 56.45,104.13 57.099,104.13C57.55,104.13 57.901,104.299 58.151,104.635C58.405,104.972 58.531,105.441 58.531,106.042L58.531,109.88Z" style="fill:rgb(44,45,48);fill-rule:nonzero;"/>
            <path id="path1065" d="M64.422,109.88L62.255,109.88L62.255,108.25L59.333,108.25L59.333,106.552L61.76,101.839L64.422,101.839L64.422,106.521L65.109,106.521L65.109,108.25L64.422,108.25L64.422,109.88ZM62.354,106.521L62.354,105.016C62.354,104.946 62.358,104.835 62.365,104.682C62.375,104.53 62.389,104.333 62.406,104.094L62.083,104.781C61.924,105.118 61.764,105.432 61.604,105.724C61.445,106.012 61.285,106.278 61.125,106.521L62.354,106.521Z" style="fill:rgb(44,45,48);fill-rule:nonzero;"/>
        </g>
        <g id="text1019" transform="matrix(1,0,0,1,1,-9.0002)">
            <path id="path1054" d="M13.38,138.021L13.38,139.943C13.255,139.957 13.146,139.965 13.052,139.969C12.958,139.976 12.88,139.979 12.818,139.979C12.193,139.979 11.67,139.792 11.25,139.417C10.965,139.163 10.734,138.816 10.557,138.375C10.38,137.934 10.292,137.481 10.292,137.016C10.292,136.189 10.545,135.497 11.052,134.938C11.556,134.386 12.191,134.11 12.958,134.11C13.003,134.11 13.061,134.111 13.13,134.115C13.2,134.118 13.283,134.124 13.38,134.13L13.38,135.964C12.762,136.005 12.453,136.342 12.453,136.974C12.453,137.259 12.53,137.509 12.682,137.724C12.839,137.929 13.024,138.031 13.24,138.031L13.302,138.031C13.326,138.028 13.352,138.024 13.38,138.021L13.38,138.021Z" style="fill:rgb(44,45,48);fill-rule:nonzero;"/>
            <path id="path1056" d="M19.323,139.859L17.234,139.859L17.234,136.88C17.234,136.623 17.208,136.444 17.156,136.344C17.108,136.243 17.021,136.193 16.896,136.193C16.604,136.193 16.458,136.469 16.458,137.021L16.458,139.859L14.37,139.859L14.37,131.063L16.458,131.063L16.458,134.208C16.458,134.378 16.457,134.521 16.453,134.635C16.453,134.75 16.451,134.837 16.448,134.896C16.444,134.955 16.439,135.017 16.432,135.083C16.425,135.149 16.418,135.222 16.411,135.302C16.748,134.507 17.241,134.109 17.891,134.109C18.342,134.109 18.693,134.278 18.943,134.615C19.196,134.951 19.323,135.42 19.323,136.021L19.323,139.859Z" style="fill:rgb(44,45,48);fill-rule:nonzero;"/>
            <path id="path1058" d="M20.375,139.375L20.63,137.469C21.273,137.84 21.847,138.026 22.354,138.026C22.684,138.026 22.951,137.943 23.156,137.776C23.365,137.609 23.469,137.392 23.469,137.125C23.469,136.84 23.356,136.62 23.13,136.464C22.905,136.304 22.587,136.224 22.177,136.224C21.729,136.224 21.259,136.318 20.766,136.505L21.391,131.818L25.391,131.818L25.391,133.708L23.099,133.708L22.927,134.609C23.076,134.599 23.198,134.594 23.292,134.594C23.951,134.594 24.509,134.833 24.964,135.313C25.415,135.785 25.641,136.375 25.641,137.083C25.641,137.917 25.349,138.611 24.766,139.167C24.189,139.722 23.462,140 22.583,140C21.833,140 21.097,139.792 20.375,139.375L20.375,139.375Z" style="fill:rgb(44,45,48);fill-rule:nonzero;"/>
        </g>
        <g id="text1023" transform="matrix(1,0,0,1,1,-7.0002)">
            <path id="path1047" d="M13.089,168.042L13.089,169.964C12.964,169.977 12.854,169.986 12.76,169.99C12.667,169.997 12.589,170 12.526,170C11.901,170 11.378,169.813 10.958,169.438C10.674,169.184 10.443,168.837 10.266,168.396C10.089,167.955 10,167.502 10,167.037C10,166.21 10.253,165.518 10.76,164.959C11.264,164.406 11.899,164.13 12.667,164.13C12.712,164.13 12.769,164.132 12.839,164.136C12.908,164.139 12.991,164.144 13.089,164.151L13.089,165.985C12.47,166.026 12.161,166.363 12.161,166.995C12.161,167.28 12.238,167.53 12.391,167.745C12.547,167.95 12.733,168.052 12.948,168.052L13.01,168.052C13.035,168.049 13.061,168.045 13.089,168.042L13.089,168.042Z" style="fill:rgb(44,45,48);fill-rule:nonzero;"/>
            <path id="path1049" d="M19.031,169.88L16.943,169.88L16.943,166.901C16.943,166.644 16.917,166.465 16.865,166.365C16.816,166.264 16.729,166.214 16.604,166.214C16.312,166.214 16.167,166.49 16.167,167.042L16.167,169.88L14.078,169.88L14.078,161.083L16.167,161.083L16.167,164.229C16.167,164.399 16.165,164.542 16.161,164.656C16.161,164.771 16.16,164.858 16.156,164.917C16.153,164.976 16.148,165.038 16.141,165.104C16.134,165.17 16.127,165.243 16.12,165.323C16.457,164.528 16.95,164.13 17.599,164.13C18.05,164.13 18.401,164.299 18.651,164.635C18.905,164.972 19.031,165.441 19.031,166.042L19.031,169.88Z" style="fill:rgb(44,45,48);fill-rule:nonzero;"/>
            <path id="path1051" d="M22.318,169.88L19.979,169.88L21.917,165.599C22.063,165.283 22.219,164.972 22.385,164.667C22.556,164.358 22.745,164.045 22.953,163.729L20.229,163.729L20.229,161.839L25.932,161.839L22.318,169.88Z" style="fill:rgb(44,45,48);fill-rule:nonzero;"/>
        </g>
        <g id="text1027" transform="matrix(1,0,0,1,-0.999992,-9)">
            <path id="path1040" d="M52.669,138.021L52.669,139.943C52.544,139.957 52.435,139.965 52.341,139.969C52.247,139.976 52.169,139.979 52.107,139.979C51.482,139.979 50.959,139.792 50.539,139.417C50.254,139.163 50.023,138.816 49.846,138.375C49.669,137.934 49.581,137.481 49.581,137.016C49.581,136.189 49.834,135.497 50.341,134.938C50.845,134.386 51.48,134.11 52.247,134.11C52.293,134.11 52.35,134.111 52.419,134.115C52.489,134.118 52.572,134.124 52.669,134.13L52.669,135.964C52.051,136.005 51.742,136.342 51.742,136.974C51.742,137.259 51.819,137.509 51.971,137.724C52.128,137.929 52.313,138.031 52.529,138.031L52.591,138.031C52.615,138.028 52.641,138.024 52.669,138.021L52.669,138.021Z" style="fill:rgb(44,45,48);fill-rule:nonzero;"/>
            <path id="path1042" d="M58.612,139.859L56.523,139.859L56.523,136.88C56.523,136.623 56.497,136.444 56.445,136.344C56.397,136.243 56.31,136.193 56.185,136.193C55.893,136.193 55.747,136.469 55.747,137.021L55.747,139.859L53.659,139.859L53.659,131.063L55.747,131.063L55.747,134.208C55.747,134.378 55.746,134.521 55.742,134.635C55.742,134.75 55.74,134.837 55.737,134.896C55.733,134.955 55.728,135.017 55.721,135.083C55.714,135.149 55.707,135.222 55.701,135.302C56.037,134.507 56.53,134.109 57.18,134.109C57.631,134.109 57.982,134.278 58.232,134.615C58.485,134.951 58.612,135.42 58.612,136.021L58.612,139.859Z" style="fill:rgb(44,45,48);fill-rule:nonzero;"/>
            <path id="path1044" d="M63.966,131.818L62.68,134.104C62.631,134.191 62.574,134.288 62.508,134.396C62.442,134.5 62.367,134.615 62.284,134.74C62.572,134.587 62.827,134.51 63.049,134.51C63.602,134.51 64.069,134.76 64.451,135.26C64.836,135.757 65.029,136.365 65.029,137.083C65.029,137.941 64.77,138.644 64.253,139.193C63.735,139.731 63.062,140 62.232,140C61.444,140 60.808,139.734 60.326,139.203C59.843,138.668 59.602,137.965 59.602,137.094C59.602,136.16 60.034,134.87 60.898,133.224L61.633,131.818L63.966,131.818ZM62.94,137.141C62.94,136.432 62.734,136.078 62.32,136.078C61.924,136.078 61.727,136.436 61.727,137.151C61.727,137.894 61.924,138.266 62.32,138.266C62.734,138.266 62.94,137.891 62.94,137.141Z" style="fill:rgb(44,45,48);fill-rule:nonzero;"/>
        </g>
        <g id="text1031" transform="matrix(1,0,0,1,-0.999992,-7)">
            <path id="path1033" d="M52.661,168.021L52.661,169.943C52.536,169.957 52.427,169.965 52.333,169.969C52.24,169.976 52.161,169.979 52.099,169.979C51.474,169.979 50.951,169.792 50.531,169.417C50.247,169.163 50.016,168.816 49.839,168.375C49.661,167.934 49.573,167.481 49.573,167.016C49.573,166.189 49.826,165.497 50.333,164.938C50.837,164.386 51.472,164.11 52.24,164.11C52.285,164.11 52.342,164.111 52.411,164.115C52.481,164.118 52.564,164.124 52.661,164.13L52.661,165.964C52.043,166.005 51.734,166.342 51.734,166.974C51.734,167.259 51.811,167.509 51.964,167.724C52.12,167.929 52.306,168.031 52.521,168.031L52.583,168.031C52.608,168.028 52.634,168.024 52.661,168.021L52.661,168.021Z" style="fill:rgb(44,45,48);fill-rule:nonzero;"/>
            <path id="path1035" d="M58.604,169.859L56.516,169.859L56.516,166.88C56.516,166.623 56.49,166.444 56.437,166.344C56.389,166.243 56.302,166.193 56.177,166.193C55.885,166.193 55.74,166.469 55.74,167.021L55.74,169.859L53.651,169.859L53.651,161.063L55.74,161.063L55.74,164.208C55.74,164.378 55.738,164.521 55.734,164.635C55.734,164.75 55.733,164.837 55.729,164.896C55.725,164.955 55.72,165.017 55.714,165.083C55.706,165.149 55.7,165.222 55.693,165.302C56.03,164.507 56.523,164.109 57.172,164.109C57.623,164.109 57.974,164.278 58.224,164.615C58.477,164.951 58.604,165.42 58.604,166.021L58.604,169.859Z" style="fill:rgb(44,45,48);fill-rule:nonzero;"/>
            <path id="path1037" d="M63.792,165.672C64.622,166.033 65.036,166.665 65.036,167.568C65.036,168.269 64.776,168.851 64.255,169.312C63.734,169.771 63.08,170 62.292,170C61.528,170 60.88,169.766 60.349,169.297C59.818,168.825 59.552,168.25 59.552,167.573C59.552,166.67 60.009,166.036 60.922,165.672C60.116,165.398 59.714,164.837 59.714,163.99C59.714,163.319 59.953,162.766 60.432,162.328C60.915,161.891 61.524,161.672 62.26,161.672C63.017,161.672 63.642,161.887 64.135,162.318C64.639,162.748 64.891,163.285 64.891,163.927C64.891,164.344 64.804,164.691 64.63,164.969C64.457,165.247 64.177,165.481 63.792,165.672L63.792,165.672ZM62.823,167.333C62.823,166.792 62.646,166.521 62.292,166.521C62.215,166.521 62.144,166.542 62.078,166.583C62.016,166.625 61.96,166.682 61.911,166.755C61.866,166.828 61.83,166.917 61.802,167.021C61.778,167.122 61.766,167.233 61.766,167.354C61.766,167.594 61.814,167.786 61.912,167.932C62.012,168.075 62.142,168.146 62.302,168.146C62.379,168.146 62.448,168.127 62.511,168.089C62.577,168.047 62.632,167.991 62.677,167.922C62.722,167.849 62.757,167.764 62.781,167.667C62.809,167.566 62.823,167.455 62.823,167.333L62.823,167.333ZM62.755,164.104C62.755,163.892 62.714,163.722 62.63,163.594C62.547,163.465 62.436,163.401 62.297,163.401C62.162,163.401 62.054,163.462 61.974,163.583C61.894,163.705 61.854,163.866 61.854,164.068C61.854,164.557 62.005,164.802 62.307,164.802C62.606,164.802 62.755,164.569 62.755,164.104L62.755,164.104Z" style="fill:rgb(44,45,48);fill-rule:nonzero;"/>
        </g>
        <g id="text1163" transform="matrix(1,0,0,1,0,22.9694)">
            <path id="path1186" d="M17.199,291.059C17.199,292.124 17.08,292.88 16.843,293.328C16.606,293.776 16.209,294 15.652,294C15.066,294 14.653,293.759 14.413,293.277C14.176,292.806 14.058,291.969 14.058,290.766C14.058,289.693 14.175,288.934 14.41,288.488C14.646,288.04 15.048,287.816 15.613,287.816C16.118,287.816 16.493,287.99 16.738,288.336C16.899,288.568 17.016,288.897 17.089,289.324C17.162,289.72 17.199,290.298 17.199,291.059L17.199,291.059ZM16.347,291.145C16.347,290.1 16.3,289.408 16.206,289.066C16.113,288.723 15.921,288.551 15.632,288.551C15.343,288.551 15.15,288.708 15.054,289.023C14.96,289.341 14.913,289.979 14.913,290.938C14.913,291.82 14.963,292.432 15.062,292.773C15.163,293.096 15.354,293.258 15.632,293.258C15.906,293.258 16.093,293.107 16.195,292.805C16.296,292.505 16.347,291.952 16.347,291.145L16.347,291.145Z" style="fill:rgb(158,161,168);fill-rule:nonzero;"/>
            <path id="path1188" d="M18.007,287.895L18.804,287.895L18.804,292.156C18.804,292.591 18.843,292.88 18.921,293.023C19.002,293.167 19.161,293.238 19.398,293.238C19.635,293.238 19.791,293.176 19.867,293.051C19.945,292.923 19.984,292.664 19.984,292.273L19.984,287.895L20.781,287.895L20.781,292.273C20.781,292.93 20.68,293.374 20.48,293.605C20.24,293.868 19.874,294 19.382,294C18.84,294 18.459,293.831 18.238,293.492C18.084,293.26 18.007,292.815 18.007,292.156L18.007,287.895Z" style="fill:rgb(158,161,168);fill-rule:nonzero;"/>
            <path id="path1190" d="M21.23,287.895L23.874,287.895L23.874,288.605L22.964,288.605L22.964,293.926L22.167,293.926L22.167,288.605L21.23,288.605L21.23,287.895Z" style="fill:rgb(158,161,168);fill-rule:nonzero;"/>
        </g>
        <g id="text1167" transform="matrix(1,0,0,1,0,20.9694)">
            <path id="path1198" d="M17.199,237.059C17.199,238.124 17.08,238.88 16.843,239.328C16.606,239.776 16.209,240 15.652,240C15.066,240 14.653,239.759 14.413,239.277C14.176,238.806 14.058,237.969 14.058,236.766C14.058,235.693 14.175,234.934 14.41,234.488C14.646,234.04 15.048,233.816 15.613,233.816C16.118,233.816 16.493,233.99 16.738,234.336C16.899,234.568 17.016,234.897 17.089,235.324C17.162,235.72 17.199,236.298 17.199,237.059L17.199,237.059ZM16.347,237.145C16.347,236.1 16.3,235.408 16.206,235.066C16.113,234.723 15.921,234.551 15.632,234.551C15.343,234.551 15.15,234.708 15.054,235.023C14.96,235.341 14.913,235.979 14.913,236.938C14.913,237.82 14.963,238.432 15.062,238.773C15.163,239.096 15.354,239.258 15.632,239.258C15.906,239.258 16.093,239.107 16.195,238.805C16.296,238.505 16.347,237.952 16.347,237.145L16.347,237.145Z" style="fill:rgb(158,161,168);fill-rule:nonzero;"/>
            <path id="path1200" d="M18.007,233.895L18.804,233.895L18.804,238.156C18.804,238.591 18.843,238.88 18.921,239.023C19.002,239.167 19.161,239.238 19.398,239.238C19.635,239.238 19.791,239.176 19.867,239.051C19.945,238.923 19.984,238.664 19.984,238.273L19.984,233.895L20.781,233.895L20.781,238.273C20.781,238.93 20.68,239.374 20.48,239.605C20.24,239.868 19.874,240 19.382,240C18.84,240 18.459,239.831 18.238,239.492C18.084,239.26 18.007,238.815 18.007,238.156L18.007,233.895Z" style="fill:rgb(158,161,168);fill-rule:nonzero;"/>
            <path id="path1202" d="M21.23,233.895L23.874,233.895L23.874,234.605L22.964,234.605L22.964,239.926L22.167,239.926L22.167,234.605L21.23,234.605L21.23,233.895Z" style="fill:rgb(158,161,168);fill-rule:nonzero;"/>
        </g>
        <g id="text1171" transform="matrix(1,0,0,1,0,22.8933)">
            <rect id="path1181" x="54.023" y="287.969" width="0.813" height="6.031" style="fill:rgb(158,161,168);fill-rule:nonzero;"/>
            <path id="path1183" d="M55.773,287.969L56.531,287.969L57.34,290.375C57.574,291.055 57.781,291.78 57.961,292.551C57.896,292.085 57.848,291.663 57.816,291.285C57.785,290.908 57.77,290.552 57.77,290.219L57.77,287.969L58.586,287.969L58.586,294L57.824,294L56.914,291.285C56.831,291.033 56.751,290.773 56.676,290.508C56.603,290.242 56.535,289.964 56.473,289.672C56.467,289.635 56.458,289.591 56.445,289.539C56.435,289.487 56.422,289.427 56.406,289.359C56.414,289.427 56.421,289.486 56.426,289.535C56.431,289.582 56.435,289.622 56.438,289.656L56.481,290.27L56.524,291.016C56.526,291.057 56.528,291.108 56.528,291.168C56.53,291.228 56.531,291.296 56.531,291.371L56.574,294L55.773,294L55.773,287.969Z" style="fill:rgb(158,161,168);fill-rule:nonzero;"/>
        </g>
        <g id="text1179" transform="matrix(1,0,0,1,0,20.8933)">
            <rect id="path1193" x="54.023" y="233.969" width="0.813" height="6.031" style="fill:rgb(158,161,168);fill-rule:nonzero;"/>
            <path id="path1195" d="M55.773,233.969L56.531,233.969L57.34,236.375C57.574,237.055 57.781,237.78 57.961,238.551C57.896,238.085 57.848,237.663 57.816,237.285C57.785,236.908 57.77,236.552 57.77,236.219L57.77,233.969L58.586,233.969L58.586,240L57.824,240L56.914,237.285C56.831,237.033 56.751,236.773 56.676,236.508C56.603,236.242 56.535,235.964 56.473,235.672C56.467,235.635 56.458,235.591 56.445,235.539C56.435,235.487 56.422,235.427 56.406,235.359C56.414,235.427 56.421,235.486 56.426,235.535C56.431,235.582 56.435,235.622 56.438,235.656L56.481,236.27L56.524,237.016C56.526,237.057 56.528,237.108 56.528,237.168C56.53,237.228 56.531,237.296 56.531,237.371L56.574,240L55.773,240L55.773,233.969Z" style="fill:rgb(158,161,168);fill-rule:nonzero;"/>
        </g>
        <g id="text985" transform="matrix(0.903837,0,0,1.10639,0,0)">
            <path id="path993" d="M14.262,16.078L11.183,16.078L10.964,11.107L10.872,9.123C10.839,9.504 10.802,9.869 10.759,10.218C10.717,10.561 10.665,10.895 10.604,11.22L9.679,16.078L7.278,16.078L6.487,11.213C6.44,10.931 6.377,10.446 6.297,9.759C6.287,9.655 6.266,9.443 6.233,9.123L6.162,11.136L5.901,16.078L2.766,16.078L4.037,5.176L7.702,5.176L8.316,8.848C8.368,9.149 8.413,9.476 8.45,9.829C8.493,10.182 8.53,10.566 8.563,10.98C8.624,10.288 8.709,9.669 8.817,9.123L9.566,5.176L13.202,5.176L14.262,16.078Z" style="fill:rgb(158,161,168);fill-rule:nonzero;"/>
            <path id="path995" d="M20.031,5.176L22.975,5.176L22.975,12.887C22.975,13.532 22.874,14.054 22.672,14.454C22.474,14.873 22.144,15.252 21.683,15.591C21.062,16.043 20.306,16.269 19.416,16.269C18.409,16.269 17.564,16.02 16.881,15.521C16.015,14.885 15.582,13.868 15.582,12.47L15.582,5.176L18.527,5.176L18.527,12.209C18.527,12.684 18.583,13.021 18.696,13.219C18.814,13.416 19.009,13.515 19.282,13.515C19.565,13.515 19.76,13.423 19.868,13.24C19.977,13.047 20.031,12.706 20.031,12.216L20.031,5.176Z" style="fill:rgb(158,161,168);fill-rule:nonzero;"/>
            <path id="path997" d="M29.662,16.078L24.508,16.078L24.508,5.176L27.452,5.176L27.452,13.459L29.662,13.459L29.662,16.078Z" style="fill:rgb(158,161,168);fill-rule:nonzero;"/>
            <path id="path999" d="M34.047,16.078L31.103,16.078L31.103,7.789L29.479,7.789L29.479,5.176L35.735,5.176L35.735,7.789L34.047,7.789L34.047,16.078Z" style="fill:rgb(158,161,168);fill-rule:nonzero;"/>
            <rect id="path1001" x="36.512" y="5.176" width="2.945" height="10.903" style="fill:rgb(158,161,168);fill-rule:nonzero;"/>
            <path id="path1003" d="M44.78,16.078L41.836,16.078L41.836,7.789L40.212,7.789L40.212,5.176L46.468,5.176L46.468,7.789L44.78,7.789L44.78,16.078Z" style="fill:rgb(158,161,168);fill-rule:nonzero;"/>
            <path id="path1005" d="M54.998,16.078L51.813,16.078L50.359,12.195C50.345,12.129 50.319,12.042 50.281,11.933C50.248,11.825 50.206,11.696 50.154,11.545L50.175,12.265L50.175,16.078L47.245,16.078L47.245,5.176L50.26,5.176C51.587,5.176 52.581,5.437 53.24,5.96C54.078,6.628 54.497,7.579 54.497,8.812C54.497,10.131 53.934,11.041 52.809,11.545L54.998,16.078ZM50.189,10.225L50.387,10.225C50.726,10.225 51.008,10.095 51.234,9.836C51.46,9.577 51.573,9.248 51.573,8.848C51.573,8.033 51.147,7.626 50.295,7.626L50.189,7.626L50.189,10.225Z" style="fill:rgb(158,161,168);fill-rule:nonzero;"/>
            <path id="path1007" d="M63.824,16.078L60.781,16.078L60.562,14.694L58.578,14.694L58.338,16.078L55.294,16.078L57.914,5.176L61.515,5.176L63.824,16.078ZM60.216,12.357L60.025,11.086C60.021,11.081 60.011,11.018 59.997,10.895C59.988,10.792 59.938,10.382 59.849,9.667C59.84,9.587 59.828,9.479 59.814,9.342C59.8,9.201 59.781,9.024 59.757,8.812L59.665,7.781C59.656,7.88 59.642,7.991 59.623,8.113C59.609,8.236 59.592,8.37 59.574,8.516C59.541,8.808 59.517,9.01 59.503,9.123C59.489,9.236 59.479,9.304 59.475,9.328L59.27,10.648L58.973,12.357L60.216,12.357Z" style="fill:rgb(158,161,168);fill-rule:nonzero;"/>
            <path id="path1009" d="M70.801,12.724L70.631,15.874C69.977,16.137 69.391,16.269 68.873,16.269C67.654,16.269 66.628,15.822 65.795,14.927C64.862,13.925 64.396,12.505 64.396,10.67C64.396,8.951 64.834,7.572 65.71,6.532C66.585,5.496 67.755,4.978 69.219,4.978C69.695,4.978 70.18,5.068 70.674,5.246L70.674,8.36C70.236,7.923 69.786,7.704 69.325,7.704C68.723,7.704 68.252,7.96 67.913,8.473C67.574,8.991 67.404,9.707 67.404,10.62C67.404,11.063 67.447,11.458 67.532,11.806C67.616,12.155 67.736,12.449 67.892,12.689C68.052,12.929 68.247,13.113 68.478,13.24C68.708,13.367 68.972,13.43 69.269,13.43C69.777,13.43 70.288,13.195 70.801,12.724L70.801,12.724Z" style="fill:rgb(158,161,168);fill-rule:nonzero;"/>
            <path id="path1011" d="M80.214,16.078L77.036,16.078L75.08,11.051L75.158,16.078L72.213,16.078L72.213,5.176L75.158,5.176L75.08,9.85L76.817,5.176L79.924,5.176L77.573,10.436L80.214,16.078Z" style="fill:rgb(158,161,168);fill-rule:nonzero;"/>
        </g>
        <g id="text990" transform="matrix(0.994356,0,0,1.00568,0,0)">
            <path id="path1014" d="M11.044,31.61L7.54,31.61L5.94,27.337C5.925,27.265 5.896,27.169 5.855,27.05C5.818,26.93 5.772,26.788 5.715,26.622L5.738,27.415L5.738,31.61L2.514,31.61L2.514,19.615L5.831,19.615C7.292,19.615 8.385,19.903 9.11,20.478C10.031,21.213 10.492,22.259 10.492,23.616C10.492,25.066 9.873,26.068 8.636,26.622L11.044,31.61ZM5.754,25.17L5.971,25.17C6.344,25.17 6.655,25.027 6.903,24.742C7.152,24.458 7.276,24.095 7.276,23.655C7.276,22.759 6.808,22.311 5.87,22.311L5.754,22.311L5.754,25.17Z" style="fill:rgb(158,161,168);fill-rule:nonzero;"/>
            <path id="path1016" d="M12.116,31.61L12.116,19.615L18.136,19.615L18.136,22.435L15.355,22.435L15.355,24.183L17.849,24.183L17.849,26.894L15.355,26.894L15.355,28.728L18.136,28.728L18.136,31.61L12.116,31.61Z" style="fill:rgb(158,161,168);fill-rule:nonzero;"/>
            <path id="path1018" d="M26.254,27.92L26.068,31.384C25.348,31.674 24.703,31.819 24.134,31.819C22.792,31.819 21.663,31.327 20.747,30.343C19.721,29.24 19.209,27.679 19.209,25.659C19.209,23.769 19.69,22.251 20.653,21.107C21.617,19.967 22.904,19.398 24.514,19.398C25.037,19.398 25.571,19.496 26.115,19.693L26.115,23.119C25.633,22.637 25.138,22.396 24.631,22.396C23.968,22.396 23.45,22.679 23.077,23.243C22.704,23.813 22.518,24.6 22.518,25.605C22.518,26.091 22.564,26.527 22.658,26.91C22.751,27.293 22.883,27.617 23.054,27.881C23.23,28.145 23.445,28.347 23.699,28.487C23.952,28.627 24.242,28.696 24.569,28.696C25.128,28.696 25.69,28.438 26.254,27.92Z" style="fill:rgb(158,161,168);fill-rule:nonzero;"/>
            <path id="path1020" d="M36.346,25.651C36.346,27.479 35.929,28.966 35.095,30.11C34.266,31.25 33.186,31.819 31.855,31.819C30.675,31.819 29.662,31.382 28.818,30.507C27.756,29.398 27.225,27.736 27.225,25.519C27.225,23.396 27.78,21.772 28.888,20.648C29.711,19.815 30.688,19.398 31.817,19.398C33.199,19.398 34.3,19.962 35.118,21.091C35.936,22.22 36.346,23.74 36.346,25.651ZM32.982,25.675C32.982,23.505 32.599,22.42 31.832,22.42C31.449,22.42 31.143,22.704 30.915,23.274C30.693,23.802 30.581,24.579 30.581,25.605C30.581,26.615 30.685,27.399 30.892,27.959C31.105,28.513 31.397,28.79 31.77,28.79C32.153,28.79 32.448,28.515 32.656,27.966C32.873,27.417 32.982,26.653 32.982,25.675L32.982,25.675Z" style="fill:rgb(158,161,168);fill-rule:nonzero;"/>
            <path id="path1022" d="M46.25,31.61L42.747,31.61L41.146,27.337C41.131,27.265 41.102,27.169 41.061,27.05C41.025,26.93 40.978,26.788 40.921,26.622L40.945,27.415L40.945,31.61L37.721,31.61L37.721,19.615L41.038,19.615C42.498,19.615 43.591,19.903 44.316,20.478C45.238,21.213 45.699,22.259 45.699,23.616C45.699,25.066 45.08,26.068 43.842,26.622L46.25,31.61ZM40.96,25.17L41.178,25.17C41.55,25.17 41.861,25.027 42.11,24.742C42.358,24.458 42.483,24.095 42.483,23.655C42.483,22.759 42.014,22.311 41.077,22.311L40.96,22.311L40.96,25.17Z" style="fill:rgb(158,161,168);fill-rule:nonzero;"/>
            <path id="path1024" d="M47.322,31.61L47.322,19.615L50.119,19.615C51.719,19.615 52.965,20.045 53.856,20.905C55.026,22.029 55.611,23.6 55.611,25.62C55.611,27.609 55.117,29.144 54.127,30.227C53.283,31.149 52.025,31.61 50.352,31.61L47.322,31.61ZM50.562,28.712C51.722,28.655 52.302,27.656 52.302,25.713C52.302,24.755 52.154,23.999 51.859,23.445C51.564,22.886 51.165,22.606 50.663,22.606L50.562,22.606L50.562,28.712Z" style="fill:rgb(158,161,168);fill-rule:nonzero;"/>
            <path id="path1026" d="M56.986,31.61L56.986,19.615L63.007,19.615L63.007,22.435L60.226,22.435L60.226,24.183L62.719,24.183L62.719,26.894L60.226,26.894L60.226,28.728L63.007,28.728L63.007,31.61L56.986,31.61Z" style="fill:rgb(158,161,168);fill-rule:nonzero;"/>
            <path id="path1028" d="M72.911,31.61L69.408,31.61L67.808,27.337C67.792,27.265 67.764,27.169 67.722,27.05C67.686,26.93 67.639,26.788 67.582,26.622L67.606,27.415L67.606,31.61L64.382,31.61L64.382,19.615L67.699,19.615C69.159,19.615 70.252,19.903 70.977,20.478C71.899,21.213 72.36,22.259 72.36,23.616C72.36,25.066 71.741,26.068 70.503,26.622L72.911,31.61ZM67.621,25.17L67.839,25.17C68.212,25.17 68.522,25.027 68.771,24.742C69.02,24.458 69.144,24.095 69.144,23.655C69.144,22.759 68.675,22.311 67.738,22.311L67.621,22.311L67.621,25.17Z" style="fill:rgb(158,161,168);fill-rule:nonzero;"/>
        </g>
    </g>
</svg>
