<?xml version="1.0" encoding="UTF-8" standalone="no"?>
<!DOCTYPE svg PUBLIC "-//W3C//DTD SVG 1.1//EN" "http://www.w3.org/Graphics/SVG/1.1/DTD/svg11.dtd">
<svg width="100%" height="100%" viewBox="0 0 210 380" version="1.1" xmlns="http://www.w3.org/2000/svg" xmlns:xlink="http://www.w3.org/1999/xlink" xml:space="preserve" xmlns:serif="http://www.serif.com/" style="fill-rule:evenodd;clip-rule:evenodd;stroke-linecap:round;">
    <g id="Layer-2" serif:id="Layer 2">
        <g id="text989">
        </g>
        <rect id="rect4689" x="0" y="0" width="105" height="380" style="fill:rgb(44,45,48);"/>
        <g id="text80" transform="matrix(1.00498,0,0,0.995047,7.62755,3.12755)">
            <path id="path4726" d="M29.851,371.706L29.851,363.943L31.853,363.943L32.903,366.668C32.96,366.829 33.024,367.013 33.094,367.221C33.168,367.429 33.249,367.668 33.336,367.94L33.552,368.624C33.475,367.95 33.416,367.373 33.376,366.894C33.336,366.415 33.316,366.013 33.316,365.687L33.316,363.943L35.317,363.943L35.317,371.706L33.316,371.706L32.26,368.85C32.149,368.545 32.049,368.26 31.958,367.995C31.871,367.727 31.794,367.472 31.727,367.231C31.77,367.777 31.802,368.253 31.822,368.659C31.843,369.065 31.853,369.42 31.853,369.725L31.853,371.706L29.851,371.706Z" style="fill:rgb(179,179,179);fill-rule:nonzero;"/>
            <path id="path4728" d="M39.887,371.706L37.791,371.706L37.791,368.418L35.865,363.943L38.052,363.943L38.429,365.094C38.503,365.319 38.568,365.535 38.625,365.743C38.686,365.951 38.739,366.15 38.786,366.341C38.863,366.056 38.93,365.811 38.987,365.607C39.044,365.399 39.095,365.232 39.138,365.104L39.52,363.943L41.692,363.943L39.887,368.418L39.887,371.706Z" style="fill:rgb(179,179,179);fill-rule:nonzero;"/>
            <path id="path4730" d="M41.894,371.515L41.894,369.076C42.306,369.639 42.752,369.921 43.231,369.921C43.412,369.921 43.56,369.874 43.673,369.78C43.787,369.683 43.844,369.562 43.844,369.418C43.844,369.21 43.72,369.008 43.472,368.81L43.13,368.543C42.902,368.372 42.708,368.203 42.547,368.035C42.386,367.865 42.256,367.69 42.155,367.513C42.054,367.332 41.981,367.146 41.934,366.954C41.887,366.763 41.863,366.562 41.863,366.351C41.863,365.989 41.947,365.61 42.115,365.215C42.199,365.03 42.296,364.863 42.406,364.712C42.517,364.558 42.644,364.422 42.789,364.305C43.184,363.969 43.662,363.802 44.222,363.802C44.721,363.802 45.224,363.934 45.73,364.199L45.73,366.572C45.559,366.308 45.365,366.1 45.147,365.949C44.929,365.795 44.714,365.718 44.503,365.718C44.342,365.718 44.21,365.765 44.106,365.858C43.999,365.949 43.945,366.058 43.945,366.185C43.945,366.393 44.087,366.599 44.372,366.804L44.704,367.05C45.147,367.368 45.463,367.695 45.655,368.03C45.849,368.366 45.946,368.758 45.946,369.207C45.946,369.971 45.713,370.601 45.247,371.098C44.781,371.594 44.191,371.842 43.477,371.842C42.985,371.842 42.457,371.733 41.894,371.515L41.894,371.515Z" style="fill:rgb(179,179,179);fill-rule:nonzero;"/>
            <path id="path4732" d="M49.576,371.706L47.48,371.706L47.48,365.803L46.323,365.803L46.323,363.943L50.778,363.943L50.778,365.803L49.576,365.803L49.576,371.706Z" style="fill:rgb(179,179,179);fill-rule:nonzero;"/>
            <path id="path4734" d="M56.525,371.706L54.428,371.706L54.428,368.584L53.428,368.584L53.428,371.706L51.331,371.706L51.331,363.943L53.428,363.943L53.428,366.688L54.428,366.688L54.428,363.943L56.525,363.943L56.525,371.706Z" style="fill:rgb(179,179,179);fill-rule:nonzero;"/>
            <rect id="path4736" x="57.606" y="363.943" width="2.097" height="7.763" style="fill:rgb(179,179,179);fill-rule:nonzero;"/>
        </g>
        <g id="text4987">
        </g>
        <path id="path2432" d="M8.502,104.84C8.513,104.806 8.524,104.773 8.534,104.739C8.545,104.705 8.556,104.672 8.566,104.638C8.577,104.605 8.588,104.571 8.599,104.538C8.609,104.504 8.62,104.471 8.631,104.437C8.641,104.404 8.652,104.371 8.663,104.337C8.673,104.304 8.684,104.271 8.695,104.237C8.706,104.204 8.716,104.171 8.727,104.138C8.738,104.105 8.749,104.072 8.759,104.039C8.77,104.006 8.781,103.973 8.791,103.94C8.802,103.907 8.813,103.875 8.823,103.842C8.834,103.809 8.845,103.777 8.856,103.745C8.866,103.713 8.877,103.68 8.888,103.648C8.898,103.616 8.909,103.584 8.92,103.552C8.93,103.52 8.941,103.488 8.952,103.457C8.963,103.425 8.973,103.394 8.984,103.362C8.995,103.331 9.006,103.3 9.016,103.269C9.027,103.238 9.038,103.207 9.048,103.176C9.059,103.146 9.07,103.115 9.08,103.085C9.091,103.055 9.102,103.024 9.113,102.994C9.123,102.965 9.134,102.935 9.145,102.905C9.155,102.875 9.166,102.846 9.177,102.817C9.187,102.787 9.198,102.759 9.209,102.73C9.22,102.701 9.23,102.673 9.241,102.644C9.252,102.616 9.263,102.588 9.273,102.56C9.284,102.532 9.295,102.504 9.305,102.477C9.316,102.45 9.327,102.422 9.337,102.395C9.348,102.369 9.359,102.342 9.37,102.315C9.38,102.289 9.391,102.263 9.402,102.237C9.412,102.211 9.423,102.185 9.434,102.16C9.444,102.135 9.455,102.109 9.466,102.085C9.477,102.06 9.488,102.035 9.498,102.011C9.509,101.986 9.52,101.963 9.53,101.939C9.541,101.915 9.552,101.892 9.562,101.869C9.573,101.846 9.584,101.823 9.594,101.801C9.605,101.778 9.616,101.756 9.627,101.734C9.637,101.712 9.648,101.691 9.659,101.669C9.669,101.648 9.68,101.627 9.691,101.607C9.701,101.586 9.712,101.566 9.723,101.546C9.734,101.526 9.745,101.507 9.755,101.487C9.766,101.468 9.777,101.45 9.787,101.431C9.798,101.412 9.809,101.394 9.819,101.376C9.83,101.358 9.841,101.34 9.851,101.324C9.862,101.307 9.873,101.289 9.884,101.273C9.894,101.257 9.905,101.24 9.916,101.225C9.926,101.209 9.937,101.194 9.948,101.179C9.958,101.164 9.969,101.149 9.98,101.135C9.991,101.121 10.002,101.107 10.012,101.094C10.023,101.08 10.034,101.067 10.044,101.054C10.055,101.042 10.066,101.029 10.076,101.018C10.087,101.006 10.098,100.994 10.108,100.983C10.119,100.972 10.13,100.961 10.141,100.951C10.151,100.94 10.162,100.93 10.173,100.921C10.183,100.911 10.194,100.902 10.205,100.893C10.215,100.884 10.226,100.876 10.237,100.868C10.248,100.86 10.259,100.853 10.269,100.845C10.28,100.838 10.291,100.831 10.301,100.825C10.312,100.819 10.323,100.813 10.333,100.807C10.344,100.802 10.355,100.796 10.365,100.792C10.376,100.788 10.387,100.783 10.398,100.779C10.408,100.775 10.419,100.772 10.43,100.769C10.44,100.766 10.451,100.763 10.462,100.76C10.472,100.758 10.483,100.757 10.494,100.755C10.505,100.754 10.516,100.753 10.526,100.752C10.537,100.751 10.548,100.751 10.558,100.751C10.569,100.752 10.58,100.752 10.59,100.753C10.601,100.754 10.612,100.756 10.622,100.757C10.633,100.759 10.644,100.761 10.655,100.764C10.665,100.767 10.676,100.769 10.687,100.774C10.697,100.777 10.708,100.782 10.719,100.786C10.729,100.789 10.74,100.795 10.751,100.8C10.762,100.805 10.773,100.811 10.783,100.816C10.794,100.821 10.805,100.828 10.815,100.835C10.826,100.842 10.837,100.849 10.847,100.856C10.858,100.864 10.869,100.872 10.88,100.881C10.89,100.889 10.901,100.898 10.912,100.907C10.922,100.916 10.933,100.926 10.944,100.936C10.954,100.946 10.965,100.956 10.976,100.967C10.986,100.978 10.997,100.989 11.008,101C11.019,101.012 11.03,101.024 11.04,101.036C11.051,101.049 11.062,101.062 11.072,101.074C11.083,101.087 11.094,101.1 11.104,101.115C11.115,101.128 11.126,101.143 11.137,101.157C11.147,101.172 11.158,101.187 11.169,101.202C11.179,101.217 11.19,101.233 11.201,101.249C11.211,101.265 11.222,101.282 11.233,101.299C11.243,101.315 11.254,101.333 11.265,101.35C11.276,101.367 11.287,101.386 11.297,101.404C11.308,101.422 11.319,101.44 11.329,101.459C11.34,101.478 11.351,101.497 11.361,101.517C11.372,101.536 11.383,101.556 11.394,101.577C11.404,101.597 11.415,101.618 11.426,101.638C11.436,101.66 11.447,101.681 11.458,101.702C11.468,101.724 11.479,101.745 11.49,101.768C11.5,101.79 11.511,101.812 11.522,101.835C11.533,101.858 11.544,101.881 11.554,101.904C11.565,101.928 11.576,101.951 11.586,101.975C11.597,102 11.608,102.024 11.618,102.048C11.629,102.073 11.64,102.097 11.651,102.123C11.661,102.148 11.672,102.173 11.683,102.199C11.693,102.224 11.704,102.25 11.715,102.276C11.725,102.303 11.736,102.329 11.747,102.356C11.757,102.383 11.768,102.409 11.779,102.437C11.79,102.464 11.801,102.491 11.811,102.519C11.822,102.546 11.833,102.574 11.843,102.602C11.854,102.63 11.865,102.659 11.875,102.687C11.886,102.716 11.897,102.745 11.908,102.774C11.918,102.802 11.929,102.832 11.94,102.861C11.95,102.891 11.961,102.92 11.972,102.95C11.982,102.98 11.993,103.01 12.004,103.04C12.014,103.07 12.025,103.1 12.036,103.131C12.047,103.161 12.058,103.192 12.068,103.223C12.079,103.254 12.09,103.285 12.1,103.316C12.111,103.347 12.122,103.378 12.132,103.41C12.143,103.441 12.154,103.473 12.165,103.505C12.175,103.536 12.186,103.568 12.197,103.6C12.207,103.632 12.218,103.664 12.229,103.697C12.239,103.729 12.25,103.761 12.261,103.794C12.272,103.827 12.282,103.859 12.293,103.891C12.304,103.924 12.315,103.957 12.325,103.99C12.336,104.023 12.347,104.056 12.357,104.089C12.368,104.122 12.379,104.155 12.389,104.188C12.4,104.221 12.411,104.254 12.422,104.288C12.432,104.321 12.443,104.354 12.454,104.388C12.464,104.421 12.475,104.454 12.486,104.488C12.496,104.521 12.507,104.555 12.518,104.588C12.529,104.622 12.539,104.655 12.55,104.689C12.561,104.722 12.572,104.756 12.582,104.79C12.593,104.823 12.604,104.857 12.614,104.89C12.625,104.924 12.636,104.958 12.646,104.991C12.657,105.025 12.668,105.058 12.679,105.092C12.689,105.125 12.7,105.159 12.711,105.192C12.721,105.226 12.732,105.259 12.743,105.292C12.753,105.326 12.764,105.359 12.775,105.392C12.786,105.426 12.796,105.459 12.807,105.492C12.818,105.525 12.829,105.558 12.839,105.591C12.85,105.625 12.861,105.657 12.871,105.69C12.882,105.723 12.893,105.756 12.903,105.788C12.914,105.821 12.925,105.854 12.936,105.886C12.946,105.919 12.957,105.951 12.968,105.983C12.978,106.015 12.989,106.048 13,106.08C13.01,106.111 13.021,106.143 13.032,106.175C13.043,106.207 13.053,106.238 13.064,106.27C13.075,106.301 13.086,106.333 13.096,106.364C13.107,106.395 13.118,106.426 13.128,106.457C13.139,106.488 13.15,106.518 13.16,106.549C13.171,106.58 13.182,106.61 13.193,106.64C13.203,106.67 13.214,106.7 13.225,106.73C13.235,106.76 13.246,106.789 13.257,106.819C13.267,106.848 13.278,106.877 13.289,106.906C13.3,106.935 13.31,106.964 13.321,106.993C13.332,107.021 13.343,107.049 13.353,107.077C13.364,107.105 13.375,107.133 13.385,107.161C13.396,107.189 13.407,107.216 13.417,107.243C13.428,107.271 13.439,107.297 13.45,107.324C13.46,107.351 13.471,107.377 13.482,107.403C13.492,107.43 13.503,107.455 13.514,107.481C13.524,107.507 13.535,107.532 13.546,107.557C13.557,107.583 13.568,107.607 13.578,107.632C13.589,107.656 13.6,107.681 13.61,107.704C13.621,107.729 13.632,107.752 13.642,107.776C13.653,107.799 13.664,107.822 13.674,107.845C13.685,107.867 13.696,107.89 13.707,107.912C13.717,107.934 13.728,107.956 13.739,107.978C13.749,107.999 13.76,108.021 13.771,108.041C13.781,108.063 13.792,108.083 13.803,108.103C13.814,108.124 13.825,108.143 13.835,108.163C13.846,108.183 13.857,108.202 13.867,108.221C13.878,108.239 13.889,108.258 13.899,108.276C13.91,108.294 13.921,108.312 13.931,108.33C13.942,108.347 13.953,108.365 13.964,108.381C13.974,108.398 13.985,108.414 13.996,108.431C14.006,108.446 14.017,108.462 14.028,108.478C14.038,108.493 14.049,108.508 14.06,108.523C14.071,108.537 14.082,108.551 14.092,108.565C14.103,108.579 14.114,108.592 14.124,108.606C14.135,108.619 14.146,108.631 14.156,108.643C14.167,108.656 14.178,108.668 14.188,108.679C14.199,108.691 14.21,108.702 14.221,108.713C14.231,108.724 14.242,108.734 14.253,108.744C14.263,108.754 14.274,108.764 14.285,108.773C14.295,108.782 14.306,108.791 14.317,108.799C14.328,108.808 14.339,108.815 14.349,108.823C14.36,108.831 14.371,108.838 14.381,108.845C14.392,108.852 14.403,108.858 14.413,108.864C14.424,108.87 14.435,108.876 14.445,108.88C14.456,108.885 14.467,108.89 14.478,108.894C14.488,108.898 14.499,108.903 14.51,108.906C14.52,108.909 14.531,108.913 14.542,108.916C14.552,108.918 14.563,108.92 14.574,108.923C14.585,108.925 14.596,108.926 14.606,108.927C14.617,108.928 14.628,108.928 14.638,108.928C14.649,108.929 14.66,108.928 14.67,108.928C14.681,108.927 14.692,108.926 14.702,108.925C14.713,108.923 14.724,108.921 14.735,108.919C14.745,108.917 14.756,108.915 14.767,108.911C14.777,108.908 14.788,108.904 14.799,108.9C14.809,108.897 14.82,108.892 14.831,108.888C14.842,108.883 14.853,108.877 14.863,108.873C14.874,108.868 14.885,108.861 14.895,108.855C14.906,108.849 14.917,108.842 14.927,108.834C14.938,108.827 14.949,108.82 14.96,108.812C14.97,108.803 14.981,108.795 14.992,108.786C15.002,108.777 15.013,108.768 15.024,108.759C15.034,108.749 15.045,108.739 15.056,108.729C15.066,108.718 15.077,108.708 15.088,108.697C15.099,108.685 15.11,108.674 15.12,108.662C15.131,108.65 15.142,108.637 15.152,108.625C15.163,108.612 15.174,108.6 15.184,108.586C15.195,108.573 15.206,108.559 15.217,108.545C15.227,108.531 15.238,108.516 15.249,108.501C15.259,108.486 15.27,108.471 15.281,108.455C15.291,108.439 15.302,108.423 15.313,108.407C15.323,108.39 15.334,108.373 15.345,108.356C15.356,108.34 15.367,108.321 15.377,108.304C15.388,108.286 15.399,108.268 15.409,108.249C15.42,108.231 15.431,108.212 15.441,108.192C15.452,108.173 15.463,108.154 15.474,108.134C15.484,108.114 15.495,108.094 15.506,108.073C15.516,108.052 15.527,108.032 15.538,108.01C15.548,107.989 15.559,107.968 15.57,107.946C15.58,107.924 15.591,107.902 15.602,107.879C15.613,107.857 15.624,107.834 15.634,107.811C15.645,107.787 15.656,107.764 15.666,107.741C15.677,107.717 15.688,107.693 15.698,107.669C15.709,107.644 15.72,107.62 15.731,107.595C15.741,107.57 15.752,107.545 15.763,107.52C15.773,107.495 15.784,107.469 15.795,107.443C15.805,107.417 15.816,107.391 15.827,107.364C15.837,107.338 15.848,107.311 15.859,107.284C15.87,107.258 15.881,107.23 15.891,107.203C15.902,107.176 15.913,107.148 15.923,107.12C15.934,107.092 15.945,107.064 15.955,107.036C15.966,107.007 15.977,106.979 15.988,106.95C15.998,106.921 16.009,106.892 16.02,106.863C16.03,106.833 16.041,106.804 16.052,106.775C16.062,106.745 16.073,106.715 16.084,106.685C16.094,106.656 16.105,106.625 16.116,106.595C16.127,106.565 16.138,106.534 16.148,106.503C16.159,106.473 16.17,106.442 16.18,106.411C16.191,106.38 16.202,106.349 16.212,106.317C16.223,106.286 16.234,106.255 16.245,106.223C16.255,106.192 16.266,106.16 16.277,106.128C16.287,106.096 16.298,106.064 16.309,106.032C16.319,106 16.33,105.967 16.341,105.935C16.352,105.903 16.362,105.87 16.373,105.838C16.384,105.805 16.395,105.772 16.405,105.74C16.416,105.707 16.427,105.674 16.437,105.641C16.448,105.608 16.459,105.575 16.469,105.542C16.48,105.509 16.491,105.476 16.502,105.442C16.512,105.409 16.523,105.376 16.534,105.343C16.544,105.309 16.555,105.276 16.566,105.242C16.576,105.209 16.587,105.176 16.598,105.142C16.609,105.108 16.619,105.075 16.63,105.042C16.641,105.008 16.652,104.974 16.662,104.941C16.673,104.907 16.684,104.874 16.694,104.84" style="fill:none;fill-rule:nonzero;stroke:rgb(158,161,168);stroke-width:1.6px;"/>
        <path id="path2603" d="M20.504,105.018L22.578,102.002L26.733,108.476L28.781,105.018" style="fill:none;stroke:rgb(158,161,168);stroke-width:1.6px;"/>
        <path id="path2605" d="M44.477,105.933L44.477,101.406L48.689,101.406L48.764,108.951L52.857,108.951L52.857,104.424" style="fill:none;stroke:rgb(158,161,168);stroke-width:1.6px;stroke-linecap:butt;"/>
        <path id="path2607" d="M40.636,108.921L32.497,102.112L32.497,108.921" style="fill:none;stroke:rgb(158,161,168);stroke-width:1.6px;"/>
        <g id="text1042">
        </g>
        <g id="g1246" transform="matrix(1,0,0,1,-4,96)">
            <path id="path1223" d="M8,61.349L10.896,61.349L10.896,62.266L9.083,62.266L9.083,64.807L10.719,64.807L10.719,65.724L9.083,65.724L9.083,69.391L8,69.391L8,61.349Z" style="fill:rgb(158,161,168);fill-rule:nonzero;"/>
            <path id="path1225" d="M11.729,61.349L13.156,61.349C13.747,61.349 14.186,61.49 14.474,61.771C14.839,62.135 15.021,62.693 15.021,63.443C15.021,64.019 14.924,64.483 14.729,64.833C14.538,65.181 14.264,65.396 13.906,65.479L15.385,69.391L14.286,69.391L12.813,65.453L12.813,69.391L11.729,69.391L11.729,61.349ZM12.813,64.911C13.233,64.911 13.53,64.814 13.703,64.62C13.877,64.425 13.964,64.097 13.964,63.635C13.964,63.385 13.944,63.172 13.906,62.995C13.872,62.818 13.814,62.674 13.734,62.563C13.658,62.451 13.557,62.37 13.432,62.318C13.311,62.266 13.165,62.24 12.995,62.24L12.813,62.24L12.813,64.911Z" style="fill:rgb(158,161,168);fill-rule:nonzero;"/>
            <path id="path1227" d="M16.229,61.349L19.109,61.349L19.109,62.266L17.313,62.266L17.313,64.813L18.906,64.813L18.906,65.729L17.313,65.729L17.313,68.474L19.109,68.474L19.109,69.391L16.229,69.391L16.229,61.349Z" style="fill:rgb(158,161,168);fill-rule:nonzero;"/>
            <path id="path1229" d="M24.359,69.51L23.677,70L23.125,69.214C22.795,69.398 22.446,69.49 22.078,69.49C21.297,69.49 20.745,69.16 20.422,68.5C20.102,67.819 19.943,66.681 19.943,65.083C19.943,63.688 20.099,62.7 20.411,62.12C20.724,61.536 21.253,61.245 22,61.245C22.785,61.245 23.337,61.566 23.656,62.208C23.972,62.837 24.13,63.951 24.13,65.552C24.13,67 23.979,68.005 23.677,68.568L24.359,69.51ZM22.443,66.839L22.891,67.474C22.964,66.96 23,66.38 23,65.734C23,64.352 22.934,63.418 22.802,62.932C22.67,62.464 22.408,62.229 22.016,62.229C21.648,62.229 21.399,62.429 21.271,62.828C21.142,63.21 21.078,63.981 21.078,65.141C21.078,66.443 21.144,67.332 21.276,67.807C21.408,68.262 21.665,68.49 22.047,68.49C22.2,68.49 22.345,68.441 22.484,68.344L21.797,67.354L22.443,66.839Z" style="fill:rgb(158,161,168);fill-rule:nonzero;"/>
        </g>
        <g id="text978" transform="matrix(1,0,0,1,-4,104)">
            <path id="path1206" d="M8,85.349L10.896,85.349L10.896,86.266L9.083,86.266L9.083,88.807L10.719,88.807L10.719,89.724L9.083,89.724L9.083,93.391L8,93.391L8,85.349Z" style="fill:rgb(158,161,168);fill-rule:nonzero;"/>
            <path id="path1208" d="M11.729,85.349L13.156,85.349C13.747,85.349 14.186,85.49 14.474,85.771C14.839,86.135 15.021,86.693 15.021,87.443C15.021,88.019 14.924,88.483 14.729,88.833C14.538,89.181 14.264,89.396 13.906,89.479L15.385,93.391L14.286,93.391L12.813,89.453L12.813,93.391L11.729,93.391L11.729,85.349ZM12.813,88.911C13.233,88.911 13.53,88.814 13.703,88.62C13.877,88.425 13.964,88.097 13.964,87.635C13.964,87.385 13.944,87.172 13.906,86.995C13.872,86.818 13.814,86.674 13.734,86.562C13.658,86.451 13.557,86.37 13.432,86.318C13.311,86.266 13.165,86.24 12.995,86.24L12.813,86.24L12.813,88.911Z" style="fill:rgb(158,161,168);fill-rule:nonzero;"/>
            <path id="path1210" d="M16.229,85.349L19.109,85.349L19.109,86.266L17.313,86.266L17.313,88.812L18.906,88.812L18.906,89.729L17.313,89.729L17.313,92.474L19.109,92.474L19.109,93.391L16.229,93.391L16.229,85.349Z" style="fill:rgb(158,161,168);fill-rule:nonzero;"/>
            <path id="path1212" d="M24.359,93.51L23.677,94L23.125,93.214C22.795,93.398 22.446,93.49 22.078,93.49C21.297,93.49 20.745,93.16 20.422,92.5C20.102,91.819 19.943,90.681 19.943,89.083C19.943,87.688 20.099,86.7 20.411,86.12C20.724,85.536 21.253,85.245 22,85.245C22.785,85.245 23.337,85.566 23.656,86.208C23.972,86.837 24.13,87.951 24.13,89.552C24.13,91 23.979,92.005 23.677,92.568L24.359,93.51ZM22.443,90.839L22.891,91.474C22.964,90.96 23,90.38 23,89.734C23,88.352 22.934,87.418 22.802,86.932C22.67,86.464 22.408,86.229 22.016,86.229C21.648,86.229 21.399,86.429 21.271,86.828C21.142,87.21 21.078,87.981 21.078,89.141C21.078,90.443 21.144,91.332 21.276,91.807C21.408,92.262 21.665,92.49 22.047,92.49C22.2,92.49 22.345,92.441 22.484,92.344L21.797,91.354L22.443,90.839Z" style="fill:rgb(158,161,168);fill-rule:nonzero;"/>
            <path id="path1214" d="M27.417,85.349L30.313,85.349L30.313,86.266L28.5,86.266L28.5,88.807L30.135,88.807L30.135,89.724L28.5,89.724L28.5,93.391L27.417,93.391L27.417,85.349Z" style="fill:rgb(158,161,168);fill-rule:nonzero;"/>
            <rect id="path1216" x="31.146" y="85.349" width="1.083" height="8.042" style="fill:rgb(158,161,168);fill-rule:nonzero;"/>
            <path id="path1218" d="M33.479,85.349L34.49,85.349L35.568,88.557C35.88,89.464 36.156,90.431 36.396,91.458C36.309,90.837 36.245,90.274 36.203,89.771C36.161,89.267 36.141,88.793 36.141,88.349L36.141,85.349L37.229,85.349L37.229,93.391L36.214,93.391L35,89.771C34.889,89.434 34.783,89.089 34.682,88.734C34.585,88.38 34.495,88.009 34.411,87.62C34.405,87.571 34.392,87.512 34.375,87.443C34.361,87.373 34.344,87.293 34.323,87.203C34.333,87.293 34.342,87.372 34.349,87.438C34.356,87.5 34.361,87.554 34.365,87.599L34.422,88.417L34.479,89.411C34.483,89.467 34.484,89.535 34.484,89.615C34.488,89.694 34.49,89.785 34.49,89.885L34.547,93.391L33.479,93.391L33.479,85.349Z" style="fill:rgb(158,161,168);fill-rule:nonzero;"/>
            <path id="path1220" d="M38.479,85.349L41.359,85.349L41.359,86.266L39.563,86.266L39.563,88.812L41.156,88.812L41.156,89.729L39.563,89.729L39.563,92.474L41.359,92.474L41.359,93.391L38.479,93.391L38.479,85.349Z" style="fill:rgb(158,161,168);fill-rule:nonzero;"/>
        </g>
        <g id="text983" transform="matrix(1,0,0,1,-4,104)">
            <path id="path1197" d="M8,109.958L10.896,109.958L10.896,110.875L9.083,110.875L9.083,113.417L10.719,113.417L10.719,114.333L9.083,114.333L9.083,118L8,118L8,109.958Z" style="fill:rgb(158,161,168);fill-rule:nonzero;"/>
            <path id="path1199" d="M12.109,109.958L13.036,109.958L13.745,113.24C13.832,113.649 13.91,114.061 13.979,114.474C14.052,114.884 14.118,115.314 14.177,115.766C14.184,115.707 14.189,115.661 14.193,115.63C14.196,115.595 14.2,115.571 14.203,115.557L14.354,114.635L14.49,113.76L14.609,113.182L15.24,109.958L16.177,109.958L16.917,118L15.88,118L15.698,115.271C15.691,115.132 15.684,115.012 15.677,114.911C15.674,114.811 15.672,114.727 15.672,114.661L15.625,113.583L15.599,112.594C15.599,112.587 15.597,112.573 15.594,112.552C15.594,112.528 15.592,112.497 15.589,112.458L15.562,112.62C15.535,112.811 15.509,112.977 15.484,113.12C15.464,113.262 15.444,113.382 15.427,113.479L15.292,114.214L15.24,114.49L14.562,118L13.833,118L13.198,114.969C13.111,114.569 13.033,114.165 12.964,113.755C12.898,113.342 12.837,112.91 12.781,112.458L12.469,118L11.448,118L12.109,109.958Z" style="fill:rgb(158,161,168);fill-rule:nonzero;"/>
            <rect id="path1201" x="19.469" y="109.958" width="1.083" height="8.042" style="fill:rgb(158,161,168);fill-rule:nonzero;"/>
            <path id="path1203" d="M21.802,109.958L22.813,109.958L23.891,113.167C24.203,114.073 24.479,115.04 24.719,116.068C24.632,115.446 24.568,114.884 24.526,114.38C24.484,113.877 24.464,113.403 24.464,112.958L24.464,109.958L25.552,109.958L25.552,118L24.536,118L23.323,114.38C23.212,114.043 23.106,113.698 23.005,113.344C22.908,112.99 22.818,112.618 22.734,112.229C22.727,112.181 22.715,112.122 22.698,112.052C22.684,111.983 22.667,111.903 22.646,111.813C22.656,111.903 22.665,111.981 22.672,112.047C22.679,112.109 22.684,112.163 22.687,112.208L22.745,113.026L22.802,114.021C22.806,114.076 22.807,114.144 22.807,114.224C22.811,114.304 22.812,114.394 22.812,114.495L22.87,118L21.802,118L21.802,109.958Z" style="fill:rgb(158,161,168);fill-rule:nonzero;"/>
        </g>
        <g id="text996" transform="matrix(1,0,0,1,-4,104)">
            <path id="path1176" d="M8,133.859L9.427,133.859C10.115,133.859 10.615,134.033 10.927,134.38C11.24,134.731 11.396,135.286 11.396,136.047C11.396,137.116 11.082,137.807 10.453,138.12C10.137,138.262 9.681,138.333 9.083,138.333L9.083,141.901L8,141.901L8,133.859ZM9.083,137.406C9.531,137.406 9.84,137.316 10.01,137.135C10.184,136.951 10.271,136.625 10.271,136.156C10.271,135.677 10.188,135.326 10.021,135.104C9.854,134.882 9.592,134.771 9.234,134.771L9.083,134.771L9.083,137.406Z" style="fill:rgb(158,161,168);fill-rule:nonzero;"/>
            <path id="path1178" d="M12.229,133.859L13.292,133.859L13.292,139.542C13.292,140.122 13.344,140.507 13.448,140.698C13.556,140.889 13.767,140.984 14.083,140.984C14.399,140.984 14.608,140.901 14.708,140.734C14.813,140.564 14.865,140.219 14.865,139.698L14.865,133.859L15.927,133.859L15.927,139.698C15.927,140.573 15.793,141.165 15.526,141.474C15.207,141.825 14.719,142 14.063,142C13.34,142 12.832,141.774 12.536,141.323C12.332,141.014 12.229,140.42 12.229,139.542L12.229,133.859Z" style="fill:rgb(158,161,168);fill-rule:nonzero;"/>
            <path id="path1180" d="M17.167,133.859L18.25,133.859L18.25,140.984L20.021,140.984L20.021,141.901L17.167,141.901L17.167,133.859Z" style="fill:rgb(158,161,168);fill-rule:nonzero;"/>
            <path id="path1182" d="M23.516,134.026L23.516,135.083C23.186,134.847 22.889,134.729 22.625,134.729C22.34,134.729 22.108,134.83 21.927,135.031C21.747,135.222 21.656,135.477 21.656,135.797C21.656,136.078 21.72,136.319 21.849,136.521C21.915,136.628 22.023,136.767 22.172,136.937C22.325,137.108 22.521,137.312 22.76,137.552C23.201,138 23.502,138.387 23.661,138.714C23.821,139.03 23.901,139.417 23.901,139.875C23.901,140.497 23.726,141.009 23.375,141.411C23.024,141.804 22.575,142 22.026,142C21.564,142 21.17,141.873 20.844,141.62L20.844,140.547C21.229,140.828 21.58,140.969 21.896,140.969C22.191,140.969 22.422,140.872 22.589,140.677C22.755,140.479 22.839,140.212 22.839,139.875C22.839,139.583 22.774,139.321 22.646,139.089C22.58,138.977 22.488,138.851 22.37,138.708C22.252,138.562 22.104,138.401 21.927,138.224C21.653,137.953 21.425,137.714 21.245,137.505C21.064,137.297 20.931,137.115 20.844,136.958C20.677,136.653 20.594,136.267 20.594,135.802C20.594,135.174 20.757,134.675 21.083,134.307C21.413,133.936 21.856,133.75 22.411,133.75C22.797,133.75 23.165,133.842 23.516,134.026L23.516,134.026Z" style="fill:rgb(158,161,168);fill-rule:nonzero;"/>
            <path id="path1184" d="M24.813,133.859L27.693,133.859L27.693,134.776L25.896,134.776L25.896,137.323L27.49,137.323L27.49,138.24L25.896,138.24L25.896,140.984L27.693,140.984L27.693,141.901L24.813,141.901L24.813,133.859Z" style="fill:rgb(158,161,168);fill-rule:nonzero;"/>
            <path id="path1186" d="M30.292,133.859L31.339,133.859L31.885,137.594L31.974,138.146C32.016,138.444 32.047,138.717 32.068,138.964L32.125,139.646C32.128,139.663 32.132,139.694 32.135,139.74C32.139,139.785 32.144,139.842 32.151,139.911L32.177,139.651C32.219,139.196 32.262,138.778 32.307,138.396C32.356,138.014 32.408,137.661 32.464,137.339L33.042,133.859L33.875,133.859L34.417,137.24C34.497,137.74 34.563,138.203 34.615,138.63C34.67,139.057 34.715,139.465 34.75,139.854C34.785,139.444 34.823,139.049 34.865,138.667C34.91,138.285 34.957,137.91 35.005,137.542L35.083,137.005L35.547,133.859L36.583,133.859L35.161,141.901L34.318,141.901L33.75,138.427C33.747,138.413 33.738,138.356 33.724,138.255C33.71,138.155 33.689,138.01 33.661,137.823L33.552,137.021C33.545,136.958 33.533,136.865 33.516,136.74C33.502,136.615 33.486,136.457 33.469,136.266L33.443,135.932C33.436,136.012 33.429,136.082 33.422,136.141C33.415,136.2 33.41,136.248 33.406,136.286C33.389,136.516 33.373,136.694 33.359,136.823C33.349,136.948 33.342,137.024 33.339,137.052L33.229,137.823C33.205,138 33.186,138.139 33.172,138.24C33.158,138.34 33.148,138.403 33.141,138.427L32.552,141.901L31.682,141.901L30.292,133.859Z" style="fill:rgb(158,161,168);fill-rule:nonzero;"/>
            <rect id="path1188" x="37.229" y="133.859" width="1.083" height="8.042" style="fill:rgb(158,161,168);fill-rule:nonzero;"/>
            <path id="path1190" d="M39.563,133.859L40.896,133.859C41.302,133.859 41.644,133.905 41.922,133.995C42.179,134.082 42.408,134.236 42.609,134.458C42.911,134.792 43.127,135.226 43.255,135.76C43.384,136.278 43.448,137.019 43.448,137.984C43.448,138.87 43.377,139.592 43.234,140.151C43.096,140.686 42.866,141.094 42.547,141.375C42.155,141.726 41.451,141.901 40.438,141.901L39.563,141.901L39.563,133.859ZM40.646,140.953C41.306,140.953 41.747,140.753 41.969,140.354C42.198,139.955 42.313,139.179 42.313,138.026C42.313,136.786 42.203,135.934 41.984,135.469C41.766,135.003 41.365,134.771 40.781,134.771L40.646,134.771L40.646,140.953Z" style="fill:rgb(158,161,168);fill-rule:nonzero;"/>
            <path id="path1192" d="M43.88,133.859L47.406,133.859L47.406,134.807L46.193,134.807L46.193,141.901L45.13,141.901L45.13,134.807L43.88,134.807L43.88,133.859Z" style="fill:rgb(158,161,168);fill-rule:nonzero;"/>
            <path id="path1194" d="M48,133.859L49.083,133.859L49.083,137.005L50.672,137.005L50.672,133.859L51.755,133.859L51.755,141.901L50.672,141.901L50.672,137.922L49.083,137.922L49.083,141.901L48,141.901L48,133.859Z" style="fill:rgb(158,161,168);fill-rule:nonzero;"/>
        </g>
        <g id="g975" transform="matrix(1,0,0,1,105.5,-40.0004)">
            <rect id="rect4778-3-6-0" x="-103.5" y="67" width="34" height="42" style="fill:rgb(179,179,179);"/>
            <g id="text4613" transform="matrix(1,0,0,1,-109.5,40)">
                <path id="path4701" d="M17.141,61L15.047,61L15.047,55.37L17.141,55.37L17.141,61ZM17.318,53.625C17.318,53.955 17.198,54.24 16.958,54.479C16.712,54.715 16.425,54.833 16.099,54.833C15.762,54.833 15.474,54.714 15.234,54.474C14.998,54.227 14.88,53.939 14.88,53.609C14.88,53.273 14.998,52.986 15.234,52.75C15.481,52.514 15.767,52.396 16.094,52.396C16.438,52.396 16.727,52.516 16.964,52.755C17.2,52.991 17.318,53.281 17.318,53.625Z" style="fill:rgb(44,45,48);fill-rule:nonzero;"/>
                <path id="path4703" d="M23.068,61L20.979,61L20.979,58.021C20.979,57.764 20.953,57.585 20.901,57.484C20.852,57.384 20.766,57.333 20.641,57.333C20.349,57.333 20.203,57.609 20.203,58.161L20.203,61L18.115,61L18.115,55.37L20.203,55.37C20.2,55.509 20.196,55.637 20.193,55.755C20.189,55.873 20.184,55.983 20.177,56.083L20.156,56.443C20.493,55.648 20.986,55.25 21.635,55.25C22.087,55.25 22.438,55.418 22.688,55.755C22.941,56.092 23.068,56.561 23.068,57.161L23.068,61Z" style="fill:rgb(44,45,48);fill-rule:nonzero;"/>
                <path id="path4705" d="M31.12,61L27.318,61L27.318,52.958L29.49,52.958L29.49,59.068L31.12,59.068L31.12,61Z" style="fill:rgb(44,45,48);fill-rule:nonzero;"/>
            </g>
        </g>
        <g id="text979" transform="matrix(1,0,0,1,4.12952,-8.87442)">
            <path id="path981" d="M24.651,21.859L24.651,13.818L26.724,13.818L27.813,16.641C27.872,16.807 27.938,16.998 28.01,17.214C28.087,17.429 28.17,17.677 28.26,17.958L28.484,18.667C28.405,17.969 28.344,17.372 28.302,16.875C28.26,16.378 28.24,15.962 28.24,15.625L28.24,13.818L30.313,13.818L30.313,21.859L28.24,21.859L27.146,18.901C27.031,18.585 26.927,18.29 26.833,18.016C26.743,17.738 26.663,17.474 26.594,17.224C26.639,17.79 26.672,18.283 26.693,18.703C26.714,19.123 26.724,19.491 26.724,19.807L26.724,21.859L24.651,21.859Z" style="fill:rgb(158,161,168);fill-rule:nonzero;"/>
            <path id="path983" d="M35.047,21.859L32.875,21.859L32.875,18.453L30.88,13.818L33.146,13.818L33.536,15.01C33.613,15.243 33.681,15.467 33.74,15.682C33.802,15.898 33.858,16.104 33.906,16.302C33.986,16.007 34.056,15.753 34.115,15.542C34.174,15.326 34.226,15.153 34.271,15.021L34.667,13.818L36.917,13.818L35.047,18.453L35.047,21.859Z" style="fill:rgb(158,161,168);fill-rule:nonzero;"/>
            <path id="path985" d="M37.125,21.661L37.125,19.135C37.552,19.719 38.014,20.01 38.51,20.01C38.698,20.01 38.851,19.962 38.969,19.865C39.087,19.764 39.146,19.639 39.146,19.49C39.146,19.274 39.017,19.064 38.76,18.859L38.406,18.583C38.17,18.406 37.969,18.231 37.802,18.057C37.635,17.88 37.5,17.7 37.396,17.516C37.292,17.328 37.215,17.135 37.167,16.938C37.118,16.74 37.094,16.531 37.094,16.313C37.094,15.937 37.181,15.545 37.354,15.135C37.441,14.944 37.542,14.771 37.656,14.615C37.771,14.455 37.903,14.314 38.052,14.193C38.462,13.845 38.957,13.672 39.536,13.672C40.054,13.672 40.575,13.809 41.099,14.083L41.099,16.542C40.922,16.267 40.72,16.052 40.495,15.896C40.269,15.736 40.047,15.656 39.828,15.656C39.661,15.656 39.524,15.705 39.417,15.802C39.306,15.896 39.25,16.009 39.25,16.141C39.25,16.356 39.398,16.569 39.693,16.781L40.036,17.036C40.495,17.366 40.823,17.705 41.021,18.052C41.222,18.399 41.323,18.806 41.323,19.271C41.323,20.063 41.082,20.715 40.599,21.229C40.116,21.743 39.505,22 38.766,22C38.255,22 37.708,21.887 37.125,21.661L37.125,21.661Z" style="fill:rgb(158,161,168);fill-rule:nonzero;"/>
            <path id="path987" d="M45.083,21.859L42.911,21.859L42.911,15.745L41.714,15.745L41.714,13.818L46.328,13.818L46.328,15.745L45.083,15.745L45.083,21.859Z" style="fill:rgb(158,161,168);fill-rule:nonzero;"/>
            <path id="path989" d="M52.281,21.859L50.109,21.859L50.109,18.625L49.073,18.625L49.073,21.859L46.901,21.859L46.901,13.818L49.073,13.818L49.073,16.661L50.109,16.661L50.109,13.818L52.281,13.818L52.281,21.859Z" style="fill:rgb(158,161,168);fill-rule:nonzero;"/>
            <rect id="path991" x="53.401" y="13.818" width="2.172" height="8.042" style="fill:rgb(158,161,168);fill-rule:nonzero;"/>
            <path id="path993" d="M62.484,21.859L60.24,21.859L60.078,20.839L58.615,20.839L58.438,21.859L56.193,21.859L58.125,13.818L60.781,13.818L62.484,21.859ZM59.823,19.115L59.682,18.177C59.679,18.174 59.672,18.127 59.662,18.036C59.654,17.96 59.618,17.658 59.552,17.13C59.545,17.071 59.536,16.991 59.526,16.891C59.516,16.786 59.502,16.656 59.484,16.5L59.417,15.74C59.41,15.813 59.399,15.894 59.385,15.984C59.375,16.075 59.363,16.174 59.349,16.281C59.325,16.497 59.307,16.646 59.297,16.729C59.287,16.813 59.28,16.863 59.276,16.88L59.125,17.854L58.906,19.115L59.823,19.115Z" style="fill:rgb(158,161,168);fill-rule:nonzero;"/>
            <path id="path995" d="M65.917,21.859L63.745,21.859L63.745,15.745L62.547,15.745L62.547,13.818L67.161,13.818L67.161,15.745L65.917,15.745L65.917,21.859Z" style="fill:rgb(158,161,168);fill-rule:nonzero;"/>
            <path id="path997" d="M73.708,17.865C73.708,19.09 73.429,20.087 72.87,20.854C72.314,21.618 71.59,22 70.698,22C69.906,22 69.227,21.707 68.661,21.12C67.95,20.377 67.594,19.262 67.594,17.776C67.594,16.352 67.965,15.264 68.708,14.51C69.26,13.951 69.915,13.672 70.672,13.672C71.599,13.672 72.337,14.05 72.885,14.807C73.434,15.564 73.708,16.583 73.708,17.865ZM71.453,17.88C71.453,16.425 71.196,15.698 70.682,15.698C70.425,15.698 70.22,15.889 70.068,16.271C69.918,16.625 69.844,17.146 69.844,17.833C69.844,18.51 69.913,19.036 70.052,19.411C70.194,19.783 70.391,19.969 70.641,19.969C70.898,19.969 71.095,19.785 71.234,19.417C71.38,19.049 71.453,18.536 71.453,17.88L71.453,17.88Z" style="fill:rgb(158,161,168);fill-rule:nonzero;"/>
            <path id="path999" d="M80.349,21.859L78,21.859L76.927,18.995C76.917,18.946 76.898,18.882 76.87,18.802C76.846,18.722 76.814,18.627 76.776,18.516L76.792,19.047L76.792,21.859L74.63,21.859L74.63,13.818L76.854,13.818C77.833,13.818 78.566,14.01 79.052,14.396C79.67,14.889 79.979,15.59 79.979,16.5C79.979,17.472 79.564,18.144 78.734,18.516L80.349,21.859ZM76.802,17.542L76.948,17.542C77.198,17.542 77.406,17.446 77.573,17.255C77.74,17.064 77.823,16.821 77.823,16.526C77.823,15.925 77.509,15.625 76.88,15.625L76.802,15.625L76.802,17.542Z" style="fill:rgb(158,161,168);fill-rule:nonzero;"/>
        </g>
        <g id="g938" transform="matrix(1,0,0,1,19,-0.000362666)">
            <rect id="rect4662" x="50" y="27" width="34" height="42" style="fill:rgb(179,179,179);"/>
            <g id="text4617">
                <path id="path4708" d="M60.182,61L58.089,61L58.089,55.37L60.182,55.37L60.182,61ZM60.359,53.625C60.359,53.955 60.24,54.24 60,54.479C59.753,54.715 59.467,54.833 59.141,54.833C58.804,54.833 58.516,54.714 58.276,54.474C58.04,54.227 57.922,53.939 57.922,53.609C57.922,53.273 58.04,52.986 58.276,52.75C58.523,52.514 58.809,52.396 59.135,52.396C59.479,52.396 59.769,52.516 60.005,52.755C60.241,52.991 60.359,53.281 60.359,53.625L60.359,53.625Z" style="fill:rgb(44,45,48);fill-rule:nonzero;"/>
                <path id="path4710" d="M66.109,61L64.021,61L64.021,58.021C64.021,57.764 63.995,57.585 63.943,57.484C63.894,57.384 63.807,57.333 63.682,57.333C63.391,57.333 63.245,57.609 63.245,58.161L63.245,61L61.156,61L61.156,55.37L63.245,55.37C63.241,55.509 63.238,55.637 63.234,55.755C63.231,55.873 63.226,55.983 63.219,56.083L63.198,56.443C63.535,55.648 64.028,55.25 64.677,55.25C65.128,55.25 65.479,55.418 65.729,55.755C65.983,56.092 66.109,56.561 66.109,57.161L66.109,61Z" style="fill:rgb(44,45,48);fill-rule:nonzero;"/>
                <path id="path4712" d="M76.078,61L73.729,61L72.656,58.135C72.646,58.087 72.627,58.023 72.599,57.943C72.575,57.863 72.544,57.767 72.505,57.656L72.521,58.187L72.521,61L70.359,61L70.359,52.958L72.583,52.958C73.562,52.958 74.295,53.151 74.781,53.536C75.399,54.03 75.708,54.731 75.708,55.641C75.708,56.613 75.293,57.285 74.463,57.656L76.078,61ZM72.531,56.682L72.677,56.682C72.927,56.682 73.135,56.587 73.302,56.396C73.469,56.205 73.552,55.962 73.552,55.667C73.552,55.066 73.238,54.766 72.609,54.766L72.531,54.766L72.531,56.682Z" style="fill:rgb(44,45,48);fill-rule:nonzero;"/>
            </g>
        </g>
        <g id="g4922" transform="matrix(1,0,0,1,-4,6.99971)">
            <rect id="rect4778-8" x="6" y="310" width="34" height="42" style="fill:rgb(60,60,60);"/>
            <g id="text4861">
                <path id="path4899" d="M16.849,345.271C16.849,346.139 16.609,346.83 16.13,347.344C15.651,347.858 15.009,348.115 14.203,348.115C13.411,348.115 12.781,347.852 12.313,347.328C11.847,346.8 11.615,346.092 11.615,345.203C11.615,344.314 11.852,343.601 12.328,343.062C12.8,342.521 13.427,342.25 14.208,342.25C15.031,342.25 15.677,342.519 16.146,343.057C16.615,343.595 16.849,344.333 16.849,345.271ZM14.823,345.203C14.823,344.995 14.809,344.807 14.781,344.641C14.753,344.47 14.714,344.326 14.661,344.208C14.609,344.087 14.547,343.993 14.474,343.927C14.401,343.861 14.319,343.828 14.229,343.828C14.052,343.828 13.91,343.953 13.802,344.203C13.694,344.422 13.641,344.75 13.641,345.188C13.641,345.618 13.694,345.946 13.802,346.172C13.91,346.422 14.054,346.547 14.234,346.547C14.405,346.547 14.545,346.424 14.656,346.177C14.767,345.903 14.823,345.578 14.823,345.203L14.823,345.203Z" style="fill:rgb(249,248,247);fill-rule:nonzero;"/>
                <path id="path4901" d="M17.651,342.37L19.74,342.37L19.74,345.542C19.74,345.844 19.769,346.064 19.828,346.203C19.891,346.318 20.009,346.375 20.182,346.375C20.352,346.375 20.467,346.318 20.526,346.203C20.589,346.089 20.62,345.868 20.62,345.542L20.62,342.37L22.708,342.37L22.708,345.823C22.708,346.052 22.689,346.26 22.651,346.448C22.616,346.632 22.559,346.8 22.479,346.953C22.403,347.102 22.302,347.24 22.177,347.365C22.056,347.49 21.91,347.604 21.74,347.708C21.281,347.979 20.762,348.115 20.182,348.115C19.595,348.115 19.076,347.979 18.625,347.708C18.451,347.604 18.302,347.491 18.177,347.37C18.056,347.245 17.955,347.106 17.875,346.953C17.799,346.8 17.741,346.632 17.703,346.448C17.668,346.26 17.651,346.052 17.651,345.823L17.651,342.37Z" style="fill:rgb(249,248,247);fill-rule:nonzero;"/>
                <path id="path4903" d="M26.047,348L23.953,348L23.953,344.052L23.359,344.052L23.359,342.37L23.953,342.37L23.953,340.714L26.047,340.714L26.047,342.37L26.74,342.37L26.74,344.052L26.047,344.052L26.047,348Z" style="fill:rgb(249,248,247);fill-rule:nonzero;"/>
                <path id="path4905" d="M34.385,348L30.583,348L30.583,339.958L32.755,339.958L32.755,346.068L34.385,346.068L34.385,348Z" style="fill:rgb(249,248,247);fill-rule:nonzero;"/>
            </g>
        </g>
        <g id="g4914" transform="matrix(1,0,0,1,19,6.99945)">
            <rect id="rect4778-3" x="50" y="310" width="34" height="42" style="fill:rgb(60,60,60);"/>
            <g id="text4886">
                <path id="path4890" d="M59.891,345.271C59.891,346.139 59.651,346.83 59.172,347.344C58.693,347.858 58.05,348.115 57.245,348.115C56.453,348.115 55.823,347.852 55.354,347.328C54.889,346.8 54.656,346.092 54.656,345.203C54.656,344.314 54.894,343.601 55.37,343.062C55.842,342.521 56.469,342.25 57.25,342.25C58.073,342.25 58.719,342.519 59.188,343.057C59.656,343.595 59.891,344.333 59.891,345.271ZM57.865,345.203C57.865,344.995 57.851,344.807 57.823,344.641C57.795,344.47 57.755,344.326 57.703,344.208C57.651,344.087 57.589,343.993 57.516,343.927C57.443,343.861 57.361,343.828 57.271,343.828C57.094,343.828 56.951,343.953 56.844,344.203C56.736,344.422 56.682,344.75 56.682,345.187C56.682,345.618 56.736,345.946 56.844,346.172C56.951,346.422 57.095,346.547 57.276,346.547C57.446,346.547 57.587,346.424 57.698,346.177C57.809,345.903 57.865,345.578 57.865,345.203L57.865,345.203Z" style="fill:rgb(249,248,247);fill-rule:nonzero;"/>
                <path id="path4892" d="M60.693,342.37L62.781,342.37L62.781,345.542C62.781,345.844 62.811,346.064 62.87,346.203C62.932,346.318 63.05,346.375 63.224,346.375C63.394,346.375 63.509,346.318 63.568,346.203C63.63,346.089 63.662,345.868 63.662,345.542L63.662,342.37L65.75,342.37L65.75,345.823C65.75,346.052 65.731,346.26 65.693,346.448C65.658,346.632 65.601,346.8 65.521,346.953C65.444,347.102 65.344,347.24 65.219,347.365C65.097,347.49 64.951,347.604 64.781,347.708C64.323,347.979 63.804,348.115 63.224,348.115C62.637,348.115 62.118,347.979 61.667,347.708C61.493,347.604 61.344,347.491 61.219,347.37C61.097,347.245 60.997,347.106 60.917,346.953C60.84,346.8 60.783,346.632 60.745,346.448C60.71,346.26 60.693,346.052 60.693,345.823L60.693,342.37Z" style="fill:rgb(249,248,247);fill-rule:nonzero;"/>
                <path id="path4894" d="M69.089,348L66.995,348L66.995,344.052L66.401,344.052L66.401,342.37L66.995,342.37L66.995,340.714L69.089,340.714L69.089,342.37L69.781,342.37L69.781,344.052L69.089,344.052L69.089,348Z" style="fill:rgb(249,248,247);fill-rule:nonzero;"/>
                <path id="path4896" d="M79.344,348L76.995,348L75.922,345.135C75.912,345.087 75.892,345.023 75.865,344.943C75.84,344.863 75.809,344.767 75.771,344.656L75.786,345.187L75.786,348L73.625,348L73.625,339.958L75.849,339.958C76.828,339.958 77.561,340.151 78.047,340.536C78.665,341.029 78.974,341.731 78.974,342.641C78.974,343.613 78.559,344.285 77.729,344.656L79.344,348ZM75.797,343.682L75.943,343.682C76.193,343.682 76.401,343.587 76.568,343.396C76.734,343.205 76.818,342.962 76.818,342.667C76.818,342.066 76.503,341.766 75.875,341.766L75.797,341.766L75.797,343.682Z" style="fill:rgb(249,248,247);fill-rule:nonzero;"/>
            </g>
        </g>
        <g id="text1056" transform="matrix(1,0,0,1,-4,-2)">
            <path id="path1058" d="M8,81.859L11.526,81.859L11.526,82.807L10.313,82.807L10.313,89.901L9.25,89.901L9.25,82.807L8,82.807L8,81.859Z" style="fill:rgb(158,161,168);fill-rule:nonzero;"/>
            <path id="path1060" d="M13.12,81.859L13.964,81.859L15.688,89.901L14.615,89.901L14.313,88.333L12.719,88.333L12.411,89.901L11.37,89.901L13.12,81.859ZM14.156,87.495L13.917,86.214C13.757,85.342 13.627,84.411 13.526,83.422C13.477,83.905 13.415,84.394 13.339,84.891C13.262,85.384 13.172,85.908 13.068,86.464L12.87,87.495L14.156,87.495Z" style="fill:rgb(158,161,168);fill-rule:nonzero;"/>
            <path id="path1062" d="M16.328,81.859L17.755,81.859C18.443,81.859 18.943,82.033 19.255,82.38C19.568,82.731 19.724,83.286 19.724,84.047C19.724,85.116 19.41,85.807 18.781,86.12C18.465,86.262 18.009,86.333 17.411,86.333L17.411,89.901L16.328,89.901L16.328,81.859ZM17.411,85.406C17.859,85.406 18.168,85.316 18.339,85.135C18.512,84.951 18.599,84.625 18.599,84.156C18.599,83.677 18.516,83.326 18.349,83.104C18.182,82.882 17.92,82.771 17.563,82.771L17.411,82.771L17.411,85.406Z" style="fill:rgb(158,161,168);fill-rule:nonzero;"/>
            <path id="path1064" d="M22.125,81.859L25.651,81.859L25.651,82.807L24.438,82.807L24.438,89.901L23.375,89.901L23.375,82.807L22.125,82.807L22.125,81.859Z" style="fill:rgb(158,161,168);fill-rule:nonzero;"/>
            <path id="path1066" d="M26.245,81.859L27.672,81.859C28.262,81.859 28.701,82 28.99,82.281C29.354,82.646 29.536,83.203 29.536,83.953C29.536,84.53 29.439,84.993 29.245,85.344C29.054,85.691 28.78,85.906 28.422,85.99L29.901,89.901L28.802,89.901L27.328,85.964L27.328,89.901L26.245,89.901L26.245,81.859ZM27.328,85.422C27.748,85.422 28.045,85.325 28.219,85.13C28.392,84.936 28.479,84.608 28.479,84.146C28.479,83.896 28.46,83.682 28.422,83.505C28.387,83.328 28.33,83.184 28.25,83.073C28.174,82.962 28.073,82.88 27.948,82.828C27.826,82.776 27.681,82.75 27.51,82.75L27.328,82.75L27.328,85.422Z" style="fill:rgb(158,161,168);fill-rule:nonzero;"/>
            <rect id="path1068" x="30.745" y="81.859" width="1.083" height="8.042" style="fill:rgb(158,161,168);fill-rule:nonzero;"/>
            <path id="path1070" d="M35.005,85.672L36.974,85.672L36.974,85.984C36.974,87.55 36.837,88.608 36.563,89.156C36.292,89.719 35.785,90 35.042,90C34.274,90 33.727,89.687 33.401,89.062C33.078,88.437 32.917,87.387 32.917,85.911C32.917,84.224 33.094,83.101 33.448,82.542C33.781,82.017 34.293,81.755 34.984,81.755C35.512,81.755 35.924,81.882 36.219,82.135C36.517,82.392 36.75,82.814 36.917,83.401L35.906,83.823C35.861,83.611 35.811,83.434 35.755,83.292C35.7,83.146 35.639,83.033 35.573,82.953C35.441,82.79 35.243,82.708 34.979,82.708C34.618,82.708 34.372,82.931 34.24,83.375C34.108,83.84 34.042,84.675 34.042,85.88C34.042,87.099 34.109,87.924 34.245,88.354C34.38,88.785 34.635,89 35.01,89C35.354,89 35.595,88.847 35.734,88.542C35.877,88.215 35.948,87.691 35.948,86.969L35.948,86.75L35.948,86.589L35.005,86.589L35.005,85.672Z" style="fill:rgb(158,161,168);fill-rule:nonzero;"/>
            <path id="path1072" d="M40.266,81.859L41.693,81.859C42.283,81.859 42.722,82 43.01,82.281C43.375,82.646 43.557,83.203 43.557,83.953C43.557,84.53 43.46,84.993 43.266,85.344C43.075,85.691 42.8,85.906 42.443,85.99L43.922,89.901L42.823,89.901L41.349,85.964L41.349,89.901L40.266,89.901L40.266,81.859ZM41.349,85.422C41.769,85.422 42.066,85.325 42.24,85.13C42.413,84.936 42.5,84.608 42.5,84.146C42.5,83.896 42.481,83.682 42.443,83.505C42.408,83.328 42.351,83.184 42.271,83.073C42.194,82.962 42.094,82.88 41.969,82.828C41.847,82.776 41.701,82.75 41.531,82.75L41.349,82.75L41.349,85.422Z" style="fill:rgb(158,161,168);fill-rule:nonzero;"/>
            <path id="path1074" d="M44.766,81.859L47.646,81.859L47.646,82.776L45.849,82.776L45.849,85.323L47.443,85.323L47.443,86.24L45.849,86.24L45.849,88.984L47.646,88.984L47.646,89.901L44.766,89.901L44.766,81.859Z" style="fill:rgb(158,161,168);fill-rule:nonzero;"/>
            <path id="path1076" d="M51.797,81.99L51.797,82.964C51.519,82.828 51.286,82.76 51.099,82.76C50.842,82.76 50.622,82.825 50.438,82.953C50.253,83.078 50.101,83.273 49.979,83.536C49.861,83.8 49.773,84.135 49.714,84.542C49.658,84.944 49.63,85.422 49.63,85.974C49.63,87.96 50.139,88.953 51.156,88.953C51.333,88.953 51.547,88.898 51.797,88.786L51.797,89.781C51.536,89.927 51.245,90 50.922,90C49.293,90 48.479,88.67 48.479,86.01C48.479,84.573 48.677,83.503 49.073,82.802C49.472,82.101 50.082,81.75 50.901,81.75C51.203,81.75 51.502,81.83 51.797,81.99L51.797,81.99Z" style="fill:rgb(158,161,168);fill-rule:nonzero;"/>
        </g>
        <g id="g1104" transform="matrix(0.780488,0,0,0.60606,16.5732,-4.15151)">
            <path id="path1093" d="M40.266,81.859L41.693,81.859C42.283,81.859 42.722,82 43.01,82.281C43.375,82.646 43.557,83.203 43.557,83.953C43.557,84.53 43.46,84.993 43.266,85.344C43.075,85.691 42.8,85.906 42.443,85.99L43.922,89.901L42.823,89.901L41.349,85.964L41.349,89.901L40.266,89.901L40.266,81.859ZM41.349,85.422C41.769,85.422 42.066,85.325 42.24,85.13C42.413,84.936 42.5,84.608 42.5,84.146C42.5,83.896 42.481,83.682 42.443,83.505C42.408,83.328 42.351,83.184 42.271,83.073C42.194,82.962 42.094,82.88 41.969,82.828C41.847,82.776 41.701,82.75 41.531,82.75L41.349,82.75L41.349,85.422Z" style="fill:rgb(158,161,168);fill-rule:nonzero;"/>
            <path id="path1095" d="M44.766,81.859L47.646,81.859L47.646,82.776L45.849,82.776L45.849,85.323L47.443,85.323L47.443,86.24L45.849,86.24L45.849,88.984L47.646,88.984L47.646,89.901L44.766,89.901L44.766,81.859Z" style="fill:rgb(158,161,168);fill-rule:nonzero;"/>
            <path id="path1097" d="M51.797,81.99L51.797,82.964C51.519,82.828 51.286,82.76 51.099,82.76C50.842,82.76 50.622,82.825 50.438,82.953C50.253,83.078 50.101,83.273 49.979,83.536C49.861,83.8 49.773,84.135 49.714,84.542C49.658,84.944 49.63,85.422 49.63,85.974C49.63,87.96 50.139,88.953 51.156,88.953C51.333,88.953 51.547,88.898 51.797,88.786L51.797,89.781C51.536,89.927 51.245,90 50.922,90C49.293,90 48.479,88.67 48.479,86.01C48.479,84.573 48.677,83.503 49.073,82.802C49.472,82.101 50.082,81.75 50.901,81.75C51.203,81.75 51.502,81.83 51.797,81.99L51.797,81.99Z" style="fill:rgb(158,161,168);fill-rule:nonzero;"/>
        </g>
        <rect id="rect4689-0" x="105" y="0" width="105" height="380" style="fill:rgb(44,45,48);"/>
        <g id="g1027" transform="matrix(2,0,0,1,0,-40)">
            <rect id="rect1005" x="0" y="305" width="105" height="50" style="fill:rgb(158,161,168);"/>
            <path id="path1015" d="M0.002,329.216L104.998,329.75" style="fill:none;stroke:black;stroke-width:0.5px;stroke-linecap:butt;"/>
        </g>
        <g id="text1127">
            <path id="path1130" d="M120.422,31.958L123.964,31.958L121.547,39.052L123.833,39.052L123.833,40L120.135,40L122.573,32.875L120.422,32.875L120.422,31.958Z" style="fill:rgb(158,161,168);fill-rule:nonzero;"/>
            <path id="path1132" d="M128.667,36.177C128.667,37.597 128.509,38.606 128.193,39.203C127.877,39.8 127.347,40.099 126.604,40.099C125.823,40.099 125.273,39.778 124.953,39.135C124.637,38.507 124.479,37.391 124.479,35.786C124.479,34.356 124.635,33.344 124.948,32.75C125.264,32.153 125.799,31.854 126.552,31.854C127.226,31.854 127.726,32.085 128.052,32.547C128.267,32.856 128.424,33.295 128.521,33.865C128.618,34.392 128.667,35.163 128.667,36.177L128.667,36.177ZM127.531,36.292C127.531,34.899 127.469,33.976 127.344,33.521C127.219,33.062 126.964,32.833 126.578,32.833C126.193,32.833 125.936,33.043 125.807,33.464C125.682,33.887 125.62,34.738 125.62,36.016C125.62,37.193 125.686,38.009 125.818,38.464C125.953,38.894 126.207,39.109 126.578,39.109C126.943,39.109 127.193,38.908 127.328,38.505C127.464,38.106 127.531,37.368 127.531,36.292Z" style="fill:rgb(158,161,168);fill-rule:nonzero;"/>
            <path id="path1135" d="M133.771,36.177C133.771,37.597 133.613,38.606 133.297,39.203C132.981,39.8 132.451,40.099 131.708,40.099C130.927,40.099 130.377,39.778 130.057,39.135C129.741,38.507 129.583,37.391 129.583,35.786C129.583,34.356 129.74,33.344 130.052,32.75C130.368,32.153 130.903,31.854 131.656,31.854C132.33,31.854 132.83,32.085 133.156,32.547C133.372,32.856 133.528,33.295 133.625,33.865C133.722,34.392 133.771,35.163 133.771,36.177L133.771,36.177ZM132.635,36.292C132.635,34.899 132.573,33.976 132.448,33.521C132.323,33.062 132.068,32.833 131.682,32.833C131.297,32.833 131.04,33.043 130.911,33.464C130.786,33.887 130.724,34.738 130.724,36.016C130.724,37.193 130.79,38.009 130.922,38.464C131.057,38.894 131.311,39.109 131.682,39.109C132.047,39.109 132.297,38.908 132.432,38.505C132.568,38.106 132.635,37.368 132.635,36.292Z" style="fill:rgb(158,161,168);fill-rule:nonzero;"/>
            <path id="path1137" d="M135.229,31.958L136.156,31.958L136.865,35.24C136.951,35.649 137.03,36.061 137.099,36.474C137.172,36.884 137.238,37.314 137.297,37.766C137.304,37.707 137.309,37.661 137.312,37.63C137.316,37.595 137.319,37.571 137.323,37.557L137.474,36.635L137.609,35.76L137.729,35.182L138.359,31.958L139.297,31.958L140.037,40L139,40L138.818,37.271C138.811,37.132 138.804,37.012 138.797,36.911C138.793,36.811 138.792,36.727 138.792,36.661L138.745,35.583L138.719,34.594C138.719,34.587 138.717,34.573 138.713,34.552C138.713,34.528 138.712,34.497 138.708,34.458L138.682,34.62C138.654,34.811 138.628,34.977 138.604,35.12C138.583,35.262 138.564,35.382 138.547,35.479L138.411,36.214L138.359,36.49L137.682,40L136.953,40L136.318,36.969C136.231,36.569 136.153,36.165 136.083,35.755C136.017,35.342 135.957,34.91 135.901,34.458L135.589,40L134.568,40L135.229,31.958Z" style="fill:rgb(158,161,168);fill-rule:nonzero;"/>
            <path id="path1139" d="M142.5,31.958L146.026,31.958L146.026,32.906L144.812,32.906L144.812,40L143.75,40L143.75,32.906L142.5,32.906L142.5,31.958Z" style="fill:rgb(158,161,168);fill-rule:nonzero;"/>
            <path id="path1141" d="M150.729,36.177C150.729,37.597 150.571,38.606 150.255,39.203C149.939,39.8 149.41,40.099 148.667,40.099C147.885,40.099 147.335,39.778 147.016,39.135C146.7,38.507 146.542,37.391 146.542,35.786C146.542,34.356 146.698,33.344 147.01,32.75C147.326,32.153 147.861,31.854 148.615,31.854C149.288,31.854 149.788,32.085 150.115,32.547C150.33,32.856 150.486,33.295 150.583,33.865C150.681,34.392 150.729,35.163 150.729,36.177L150.729,36.177ZM149.594,36.292C149.594,34.899 149.531,33.976 149.406,33.521C149.281,33.062 149.026,32.833 148.641,32.833C148.255,32.833 147.998,33.043 147.87,33.464C147.745,33.887 147.682,34.738 147.682,36.016C147.682,37.193 147.748,38.009 147.88,38.464C148.016,38.894 148.269,39.109 148.641,39.109C149.005,39.109 149.255,38.908 149.391,38.505C149.526,38.106 149.594,37.368 149.594,36.292Z" style="fill:rgb(158,161,168);fill-rule:nonzero;"/>
            <path id="path1143" d="M156.698,32.125L156.698,33.182C156.368,32.946 156.071,32.828 155.807,32.828C155.523,32.828 155.29,32.929 155.109,33.13C154.929,33.321 154.839,33.576 154.839,33.896C154.839,34.177 154.903,34.418 155.031,34.62C155.097,34.727 155.205,34.866 155.354,35.036C155.507,35.207 155.703,35.411 155.943,35.651C156.384,36.099 156.684,36.486 156.844,36.812C157.003,37.128 157.083,37.516 157.083,37.974C157.083,38.595 156.908,39.108 156.557,39.51C156.207,39.903 155.757,40.099 155.208,40.099C154.747,40.099 154.352,39.972 154.026,39.719L154.026,38.646C154.411,38.927 154.762,39.068 155.078,39.068C155.373,39.068 155.604,38.97 155.771,38.776C155.938,38.578 156.021,38.311 156.021,37.974C156.021,37.682 155.957,37.42 155.828,37.187C155.762,37.076 155.67,36.95 155.552,36.807C155.434,36.661 155.286,36.5 155.109,36.323C154.835,36.052 154.608,35.812 154.427,35.604C154.247,35.396 154.113,35.214 154.026,35.057C153.859,34.752 153.776,34.366 153.776,33.901C153.776,33.273 153.939,32.774 154.266,32.406C154.595,32.035 155.038,31.849 155.594,31.849C155.979,31.849 156.347,31.941 156.698,32.125L156.698,32.125Z" style="fill:rgb(158,161,168);fill-rule:nonzero;"/>
            <path id="path1145" d="M157.995,31.958L159.078,31.958L159.078,39.083L160.849,39.083L160.849,40L157.995,40L157.995,31.958Z" style="fill:rgb(158,161,168);fill-rule:nonzero;"/>
            <rect id="path1147" x="161.536" y="31.958" width="1.083" height="8.042" style="fill:rgb(158,161,168);fill-rule:nonzero;"/>
            <path id="path1149" d="M167.026,32.089L167.026,33.062C166.748,32.927 166.516,32.859 166.328,32.859C166.071,32.859 165.851,32.924 165.667,33.052C165.483,33.177 165.33,33.372 165.208,33.635C165.09,33.899 165.002,34.234 164.943,34.641C164.887,35.043 164.859,35.521 164.859,36.073C164.859,38.059 165.368,39.052 166.385,39.052C166.562,39.052 166.776,38.997 167.026,38.885L167.026,39.88C166.766,40.026 166.474,40.099 166.151,40.099C164.523,40.099 163.708,38.769 163.708,36.109C163.708,34.672 163.906,33.602 164.302,32.901C164.701,32.2 165.311,31.849 166.13,31.849C166.432,31.849 166.731,31.929 167.026,32.089L167.026,32.089Z" style="fill:rgb(158,161,168);fill-rule:nonzero;"/>
            <path id="path1151" d="M167.932,31.958L170.812,31.958L170.812,32.875L169.016,32.875L169.016,35.422L170.609,35.422L170.609,36.339L169.016,36.339L169.016,39.083L170.812,39.083L170.812,40L167.932,40L167.932,31.958Z" style="fill:rgb(158,161,168);fill-rule:nonzero;"/>
        </g>
        <g id="text1156">
            <path id="path1158" d="M120.422,51.458L123.964,51.458L121.547,58.552L123.833,58.552L123.833,59.5L120.135,59.5L122.573,52.375L120.422,52.375L120.422,51.458Z" style="fill:rgb(158,161,168);fill-rule:nonzero;"/>
            <path id="path1160" d="M128.667,55.677C128.667,57.097 128.509,58.106 128.193,58.703C127.877,59.3 127.347,59.599 126.604,59.599C125.823,59.599 125.273,59.278 124.953,58.635C124.637,58.007 124.479,56.891 124.479,55.286C124.479,53.856 124.635,52.844 124.948,52.25C125.264,51.653 125.799,51.354 126.552,51.354C127.226,51.354 127.726,51.585 128.052,52.047C128.267,52.356 128.424,52.795 128.521,53.365C128.618,53.892 128.667,54.663 128.667,55.677L128.667,55.677ZM127.531,55.792C127.531,54.399 127.469,53.476 127.344,53.021C127.219,52.563 126.964,52.333 126.578,52.333C126.193,52.333 125.936,52.543 125.807,52.964C125.682,53.387 125.62,54.238 125.62,55.516C125.62,56.693 125.686,57.509 125.818,57.964C125.953,58.394 126.207,58.609 126.578,58.609C126.943,58.609 127.193,58.408 127.328,58.005C127.464,57.606 127.531,56.868 127.531,55.792Z" style="fill:rgb(158,161,168);fill-rule:nonzero;"/>
            <path id="path1162" d="M133.771,55.677C133.771,57.097 133.613,58.106 133.297,58.703C132.981,59.3 132.451,59.599 131.708,59.599C130.927,59.599 130.377,59.278 130.057,58.635C129.741,58.007 129.583,56.891 129.583,55.286C129.583,53.856 129.74,52.844 130.052,52.25C130.368,51.653 130.903,51.354 131.656,51.354C132.33,51.354 132.83,51.585 133.156,52.047C133.372,52.356 133.528,52.795 133.625,53.365C133.722,53.892 133.771,54.663 133.771,55.677L133.771,55.677ZM132.635,55.792C132.635,54.399 132.573,53.476 132.448,53.021C132.323,52.563 132.068,52.333 131.682,52.333C131.297,52.333 131.04,52.543 130.911,52.964C130.786,53.387 130.724,54.238 130.724,55.516C130.724,56.693 130.79,57.509 130.922,57.964C131.057,58.394 131.311,58.609 131.682,58.609C132.047,58.609 132.297,58.408 132.432,58.005C132.568,57.606 132.635,56.868 132.635,55.792Z" style="fill:rgb(158,161,168);fill-rule:nonzero;"/>
            <path id="path1164" d="M135.229,51.458L136.156,51.458L136.865,54.74C136.951,55.149 137.03,55.561 137.099,55.974C137.172,56.384 137.238,56.814 137.297,57.266C137.304,57.207 137.309,57.161 137.312,57.13C137.316,57.095 137.319,57.071 137.323,57.057L137.474,56.135L137.609,55.26L137.729,54.682L138.359,51.458L139.297,51.458L140.037,59.5L139,59.5L138.818,56.771C138.811,56.632 138.804,56.512 138.797,56.411C138.793,56.311 138.792,56.227 138.792,56.161L138.745,55.083L138.719,54.094C138.719,54.087 138.717,54.073 138.713,54.052C138.713,54.028 138.712,53.997 138.708,53.958L138.682,54.12C138.654,54.311 138.628,54.477 138.604,54.62C138.583,54.762 138.564,54.882 138.547,54.979L138.411,55.714L138.359,55.99L137.682,59.5L136.953,59.5L136.318,56.469C136.231,56.069 136.153,55.665 136.083,55.255C136.017,54.842 135.956,54.41 135.901,53.958L135.588,59.5L134.568,59.5L135.229,51.458Z" style="fill:rgb(158,161,168);fill-rule:nonzero;"/>
            <path id="path1166" d="M142.5,51.458L146.026,51.458L146.026,52.406L144.812,52.406L144.812,59.5L143.75,59.5L143.75,52.406L142.5,52.406L142.5,51.458Z" style="fill:rgb(158,161,168);fill-rule:nonzero;"/>
            <path id="path1168" d="M150.729,55.677C150.729,57.097 150.571,58.106 150.255,58.703C149.939,59.3 149.41,59.599 148.667,59.599C147.885,59.599 147.335,59.278 147.016,58.635C146.7,58.007 146.542,56.891 146.542,55.286C146.542,53.856 146.698,52.844 147.01,52.25C147.326,51.653 147.861,51.354 148.615,51.354C149.288,51.354 149.788,51.585 150.115,52.047C150.33,52.356 150.486,52.795 150.583,53.365C150.681,53.892 150.729,54.663 150.729,55.677L150.729,55.677ZM149.594,55.792C149.594,54.399 149.531,53.476 149.406,53.021C149.281,52.563 149.026,52.333 148.641,52.333C148.255,52.333 147.998,52.543 147.87,52.964C147.745,53.387 147.682,54.238 147.682,55.516C147.682,56.693 147.748,57.509 147.88,57.964C148.016,58.394 148.269,58.609 148.641,58.609C149.005,58.609 149.255,58.408 149.391,58.005C149.526,57.606 149.594,56.868 149.594,55.792Z" style="fill:rgb(158,161,168);fill-rule:nonzero;"/>
            <path id="path1170" d="M155.161,51.458L156.005,51.458L157.729,59.5L156.656,59.5L156.354,57.932L154.76,57.932L154.453,59.5L153.411,59.5L155.161,51.458ZM156.198,57.094L155.958,55.812C155.799,54.941 155.668,54.01 155.568,53.021C155.519,53.503 155.457,53.993 155.38,54.49C155.304,54.983 155.214,55.507 155.109,56.062L154.911,57.094L156.198,57.094Z" style="fill:rgb(158,161,168);fill-rule:nonzero;"/>
            <path id="path1172" d="M158.37,51.458L159.453,51.458L159.453,58.583L161.224,58.583L161.224,59.5L158.37,59.5L158.37,51.458Z" style="fill:rgb(158,161,168);fill-rule:nonzero;"/>
            <path id="path1174" d="M161.911,51.458L162.995,51.458L162.995,58.583L164.766,58.583L164.766,59.5L161.911,59.5L161.911,51.458Z" style="fill:rgb(158,161,168);fill-rule:nonzero;"/>
        </g>
        <g id="text1226">
            <path id="path1380" d="M123.302,72.125L123.302,73.182C122.972,72.946 122.675,72.828 122.411,72.828C122.127,72.828 121.894,72.929 121.714,73.13C121.533,73.321 121.443,73.576 121.443,73.896C121.443,74.177 121.507,74.418 121.635,74.62C121.701,74.727 121.809,74.866 121.958,75.036C122.111,75.207 122.307,75.411 122.547,75.651C122.988,76.099 123.288,76.486 123.448,76.812C123.608,77.128 123.688,77.516 123.688,77.974C123.688,78.595 123.512,79.108 123.161,79.51C122.811,79.903 122.361,80.099 121.813,80.099C121.351,80.099 120.957,79.972 120.63,79.719L120.63,78.646C121.016,78.927 121.366,79.068 121.682,79.068C121.977,79.068 122.208,78.97 122.375,78.776C122.542,78.578 122.625,78.311 122.625,77.974C122.625,77.682 122.561,77.42 122.432,77.187C122.366,77.076 122.274,76.95 122.156,76.807C122.038,76.661 121.891,76.5 121.714,76.323C121.439,76.052 121.212,75.812 121.031,75.604C120.851,75.396 120.717,75.214 120.63,75.057C120.464,74.752 120.38,74.366 120.38,73.901C120.38,73.273 120.543,72.774 120.87,72.406C121.2,72.035 121.642,71.849 122.198,71.849C122.583,71.849 122.951,71.941 123.302,72.125L123.302,72.125Z" style="fill:rgb(158,161,168);fill-rule:nonzero;"/>
            <path id="path1382" d="M124.599,71.958L125.682,71.958L125.682,79.083L127.453,79.083L127.453,80L124.599,80L124.599,71.958Z" style="fill:rgb(158,161,168);fill-rule:nonzero;"/>
            <rect id="path1384" x="128.141" y="71.958" width="1.083" height="8.042" style="fill:rgb(158,161,168);fill-rule:nonzero;"/>
            <path id="path1386" d="M133.63,72.089L133.63,73.062C133.352,72.927 133.12,72.859 132.932,72.859C132.675,72.859 132.455,72.924 132.271,73.052C132.087,73.177 131.934,73.372 131.813,73.635C131.694,73.899 131.606,74.234 131.547,74.641C131.491,75.043 131.464,75.521 131.464,76.073C131.464,78.059 131.972,79.052 132.99,79.052C133.167,79.052 133.38,78.997 133.63,78.885L133.63,79.88C133.37,80.026 133.078,80.099 132.755,80.099C131.127,80.099 130.312,78.769 130.312,76.109C130.312,74.672 130.51,73.602 130.906,72.901C131.306,72.2 131.915,71.849 132.734,71.849C133.036,71.849 133.335,71.929 133.63,72.089L133.63,72.089Z" style="fill:rgb(158,161,168);fill-rule:nonzero;"/>
            <path id="path1388" d="M134.536,71.958L137.417,71.958L137.417,72.875L135.62,72.875L135.62,75.422L137.214,75.422L137.214,76.339L135.62,76.339L135.62,79.083L137.417,79.083L137.417,80L134.536,80L134.536,71.958Z" style="fill:rgb(158,161,168);fill-rule:nonzero;"/>
            <path id="path1390" d="M143.302,72.125L143.302,73.182C142.972,72.946 142.675,72.828 142.411,72.828C142.127,72.828 141.894,72.929 141.714,73.13C141.533,73.321 141.443,73.576 141.443,73.896C141.443,74.177 141.507,74.418 141.635,74.62C141.701,74.727 141.809,74.866 141.958,75.036C142.111,75.207 142.307,75.411 142.547,75.651C142.988,76.099 143.288,76.486 143.448,76.812C143.608,77.128 143.688,77.516 143.688,77.974C143.688,78.595 143.512,79.108 143.161,79.51C142.811,79.903 142.361,80.099 141.813,80.099C141.351,80.099 140.957,79.972 140.63,79.719L140.63,78.646C141.016,78.927 141.366,79.068 141.682,79.068C141.977,79.068 142.208,78.97 142.375,78.776C142.542,78.578 142.625,78.311 142.625,77.974C142.625,77.682 142.561,77.42 142.432,77.187C142.366,77.076 142.274,76.95 142.156,76.807C142.038,76.661 141.891,76.5 141.714,76.323C141.439,76.052 141.212,75.812 141.031,75.604C140.851,75.396 140.717,75.214 140.63,75.057C140.464,74.752 140.38,74.366 140.38,73.901C140.38,73.273 140.543,72.774 140.87,72.406C141.2,72.035 141.642,71.849 142.198,71.849C142.583,71.849 142.951,71.941 143.302,72.125L143.302,72.125Z" style="fill:rgb(158,161,168);fill-rule:nonzero;"/>
            <path id="path1392" d="M144.083,71.958L147.609,71.958L147.609,72.906L146.396,72.906L146.396,80L145.333,80L145.333,72.906L144.083,72.906L144.083,71.958Z" style="fill:rgb(158,161,168);fill-rule:nonzero;"/>
            <path id="path1394" d="M149.203,71.958L150.047,71.958L151.771,80L150.698,80L150.396,78.432L148.802,78.432L148.495,80L147.453,80L149.203,71.958ZM150.24,77.594L150,76.312C149.84,75.441 149.71,74.51 149.609,73.521C149.561,74.003 149.498,74.493 149.422,74.99C149.345,75.483 149.255,76.007 149.151,76.562L148.953,77.594L150.24,77.594Z" style="fill:rgb(158,161,168);fill-rule:nonzero;"/>
            <path id="path1396" d="M152.411,71.958L153.839,71.958C154.429,71.958 154.868,72.099 155.156,72.38C155.521,72.745 155.703,73.302 155.703,74.052C155.703,74.628 155.606,75.092 155.411,75.443C155.22,75.79 154.946,76.005 154.589,76.089L156.068,80L154.969,80L153.495,76.062L153.495,80L152.411,80L152.411,71.958ZM153.495,75.521C153.915,75.521 154.212,75.424 154.385,75.229C154.559,75.035 154.646,74.707 154.646,74.245C154.646,73.995 154.627,73.781 154.589,73.604C154.554,73.427 154.497,73.283 154.417,73.172C154.34,73.061 154.24,72.979 154.115,72.927C153.993,72.875 153.847,72.849 153.677,72.849L153.495,72.849L153.495,75.521Z" style="fill:rgb(158,161,168);fill-rule:nonzero;"/>
            <path id="path1398" d="M156.375,71.958L159.901,71.958L159.901,72.906L158.687,72.906L158.687,80L157.625,80L157.625,72.906L156.375,72.906L156.375,71.958Z" style="fill:rgb(158,161,168);fill-rule:nonzero;"/>
        </g>
        <g id="text1230">
            <path id="path1363" d="M123.302,87.833L123.302,88.891C122.972,88.654 122.675,88.536 122.411,88.536C122.127,88.536 121.894,88.637 121.714,88.839C121.533,89.029 121.443,89.285 121.443,89.604C121.443,89.885 121.507,90.127 121.635,90.328C121.701,90.436 121.809,90.575 121.958,90.745C122.111,90.915 122.307,91.12 122.547,91.359C122.988,91.807 123.288,92.194 123.448,92.521C123.608,92.837 123.688,93.224 123.688,93.682C123.688,94.304 123.512,94.816 123.161,95.219C122.811,95.611 122.361,95.807 121.813,95.807C121.351,95.807 120.957,95.681 120.63,95.427L120.63,94.354C121.016,94.635 121.366,94.776 121.682,94.776C121.977,94.776 122.208,94.679 122.375,94.484C122.542,94.286 122.625,94.019 122.625,93.682C122.625,93.391 122.561,93.128 122.432,92.896C122.366,92.785 122.274,92.658 122.156,92.516C122.038,92.37 121.891,92.208 121.714,92.031C121.439,91.76 121.212,91.521 121.031,91.312C120.851,91.104 120.717,90.922 120.63,90.766C120.464,90.46 120.38,90.075 120.38,89.609C120.38,88.981 120.543,88.483 120.87,88.115C121.2,87.743 121.642,87.557 122.198,87.557C122.583,87.557 122.951,87.649 123.302,87.833L123.302,87.833Z" style="fill:rgb(158,161,168);fill-rule:nonzero;"/>
            <path id="path1365" d="M124.599,87.667L125.682,87.667L125.682,94.792L127.453,94.792L127.453,95.708L124.599,95.708L124.599,87.667Z" style="fill:rgb(158,161,168);fill-rule:nonzero;"/>
            <rect id="path1367" x="128.141" y="87.667" width="1.083" height="8.042" style="fill:rgb(158,161,168);fill-rule:nonzero;"/>
            <path id="path1369" d="M133.63,87.797L133.63,88.771C133.352,88.635 133.12,88.568 132.932,88.568C132.675,88.568 132.455,88.632 132.271,88.76C132.087,88.885 131.934,89.08 131.813,89.344C131.694,89.608 131.606,89.943 131.547,90.349C131.491,90.752 131.464,91.229 131.464,91.781C131.464,93.767 131.972,94.76 132.99,94.76C133.167,94.76 133.38,94.705 133.63,94.594L133.63,95.589C133.37,95.734 133.078,95.807 132.755,95.807C131.127,95.807 130.312,94.477 130.312,91.818C130.312,90.38 130.51,89.311 130.906,88.609C131.306,87.908 131.915,87.557 132.734,87.557C133.036,87.557 133.335,87.637 133.63,87.797L133.63,87.797Z" style="fill:rgb(158,161,168);fill-rule:nonzero;"/>
            <path id="path1371" d="M134.536,87.667L137.417,87.667L137.417,88.583L135.62,88.583L135.62,91.13L137.214,91.13L137.214,92.047L135.62,92.047L135.62,94.792L137.417,94.792L137.417,95.708L134.536,95.708L134.536,87.667Z" style="fill:rgb(158,161,168);fill-rule:nonzero;"/>
            <path id="path1373" d="M140.62,87.667L143.5,87.667L143.5,88.583L141.703,88.583L141.703,91.13L143.297,91.13L143.297,92.047L141.703,92.047L141.703,94.792L143.5,94.792L143.5,95.708L140.62,95.708L140.62,87.667Z" style="fill:rgb(158,161,168);fill-rule:nonzero;"/>
            <path id="path1375" d="M144.495,87.667L145.505,87.667L146.583,90.875C146.896,91.781 147.172,92.748 147.411,93.776C147.325,93.154 147.26,92.592 147.219,92.089C147.177,91.585 147.156,91.111 147.156,90.667L147.156,87.667L148.245,87.667L148.245,95.708L147.229,95.708L146.016,92.089C145.904,91.752 145.799,91.406 145.698,91.052C145.601,90.698 145.51,90.326 145.427,89.937C145.42,89.889 145.408,89.83 145.391,89.76C145.377,89.691 145.36,89.611 145.339,89.521C145.349,89.611 145.358,89.689 145.365,89.755C145.372,89.818 145.377,89.872 145.38,89.917L145.438,90.734L145.495,91.729C145.498,91.785 145.5,91.852 145.5,91.932C145.504,92.012 145.505,92.102 145.505,92.203L145.563,95.708L144.495,95.708L144.495,87.667Z" style="fill:rgb(158,161,168);fill-rule:nonzero;"/>
            <path id="path1377" d="M149.495,87.667L150.828,87.667C151.234,87.667 151.576,87.712 151.854,87.802C152.111,87.889 152.34,88.043 152.542,88.266C152.844,88.599 153.059,89.033 153.188,89.568C153.316,90.085 153.38,90.826 153.38,91.792C153.38,92.677 153.309,93.399 153.167,93.958C153.028,94.493 152.799,94.901 152.479,95.182C152.087,95.533 151.384,95.708 150.37,95.708L149.495,95.708L149.495,87.667ZM150.578,94.76C151.238,94.76 151.679,94.561 151.901,94.161C152.13,93.762 152.245,92.986 152.245,91.833C152.245,90.594 152.135,89.741 151.917,89.276C151.698,88.811 151.297,88.578 150.714,88.578L150.578,88.578L150.578,94.76Z" style="fill:rgb(158,161,168);fill-rule:nonzero;"/>
        </g>
        <g id="text1234">
            <path id="path1342" d="M123.302,112.125L123.302,113.182C122.972,112.946 122.675,112.828 122.411,112.828C122.127,112.828 121.894,112.929 121.714,113.13C121.533,113.321 121.443,113.576 121.443,113.896C121.443,114.177 121.507,114.418 121.635,114.62C121.701,114.727 121.809,114.866 121.958,115.036C122.111,115.207 122.307,115.411 122.547,115.651C122.988,116.099 123.288,116.486 123.448,116.812C123.608,117.128 123.688,117.516 123.688,117.974C123.688,118.595 123.512,119.108 123.161,119.51C122.811,119.903 122.361,120.099 121.813,120.099C121.351,120.099 120.957,119.972 120.63,119.719L120.63,118.646C121.016,118.927 121.366,119.068 121.682,119.068C121.977,119.068 122.208,118.97 122.375,118.776C122.542,118.578 122.625,118.311 122.625,117.974C122.625,117.682 122.561,117.42 122.432,117.187C122.366,117.076 122.274,116.95 122.156,116.807C122.038,116.661 121.891,116.5 121.714,116.323C121.439,116.052 121.212,115.812 121.031,115.604C120.851,115.396 120.717,115.214 120.63,115.057C120.464,114.752 120.38,114.366 120.38,113.901C120.38,113.273 120.543,112.774 120.87,112.406C121.2,112.035 121.642,111.849 122.198,111.849C122.583,111.849 122.951,111.941 123.302,112.125L123.302,112.125Z" style="fill:rgb(158,161,168);fill-rule:nonzero;"/>
            <path id="path1344" d="M124.599,111.958L125.682,111.958L125.682,119.083L127.453,119.083L127.453,120L124.599,120L124.599,111.958Z" style="fill:rgb(158,161,168);fill-rule:nonzero;"/>
            <rect id="path1346" x="128.141" y="111.958" width="1.083" height="8.042" style="fill:rgb(158,161,168);fill-rule:nonzero;"/>
            <path id="path1348" d="M133.63,112.089L133.63,113.062C133.352,112.927 133.12,112.859 132.932,112.859C132.675,112.859 132.455,112.924 132.271,113.052C132.087,113.177 131.934,113.372 131.813,113.635C131.694,113.899 131.606,114.234 131.547,114.641C131.491,115.043 131.464,115.521 131.464,116.073C131.464,118.059 131.972,119.052 132.99,119.052C133.167,119.052 133.38,118.997 133.63,118.885L133.63,119.88C133.37,120.026 133.078,120.099 132.755,120.099C131.127,120.099 130.312,118.769 130.312,116.109C130.312,114.672 130.51,113.602 130.906,112.901C131.306,112.2 131.915,111.849 132.734,111.849C133.036,111.849 133.335,111.929 133.63,112.089L133.63,112.089Z" style="fill:rgb(158,161,168);fill-rule:nonzero;"/>
            <path id="path1350" d="M134.536,111.958L137.417,111.958L137.417,112.875L135.62,112.875L135.62,115.422L137.214,115.422L137.214,116.339L135.62,116.339L135.62,119.083L137.417,119.083L137.417,120L134.536,120L134.536,111.958Z" style="fill:rgb(158,161,168);fill-rule:nonzero;"/>
            <path id="path1352" d="M143.776,112.089L143.776,113.062C143.498,112.927 143.266,112.859 143.078,112.859C142.821,112.859 142.601,112.924 142.417,113.052C142.233,113.177 142.08,113.372 141.958,113.635C141.84,113.899 141.752,114.234 141.693,114.641C141.637,115.043 141.609,115.521 141.609,116.073C141.609,118.059 142.118,119.052 143.135,119.052C143.312,119.052 143.526,118.997 143.776,118.885L143.776,119.88C143.516,120.026 143.224,120.099 142.901,120.099C141.273,120.099 140.458,118.769 140.458,116.109C140.458,114.672 140.656,113.602 141.052,112.901C141.451,112.2 142.061,111.849 142.88,111.849C143.182,111.849 143.481,111.929 143.776,112.089L143.776,112.089Z" style="fill:rgb(158,161,168);fill-rule:nonzero;"/>
            <path id="path1354" d="M144.682,111.958L145.766,111.958L145.766,119.083L147.536,119.083L147.536,120L144.682,120L144.682,111.958Z" style="fill:rgb(158,161,168);fill-rule:nonzero;"/>
            <path id="path1356" d="M148.224,111.958L151.104,111.958L151.104,112.875L149.307,112.875L149.307,115.422L150.901,115.422L150.901,116.339L149.307,116.339L149.307,119.083L151.104,119.083L151.104,120L148.224,120L148.224,111.958Z" style="fill:rgb(158,161,168);fill-rule:nonzero;"/>
            <path id="path1358" d="M153.245,111.958L154.089,111.958L155.812,120L154.74,120L154.437,118.432L152.844,118.432L152.536,120L151.495,120L153.245,111.958ZM154.281,117.594L154.042,116.312C153.882,115.441 153.752,114.51 153.651,113.521C153.602,114.003 153.54,114.493 153.464,114.99C153.387,115.483 153.297,116.007 153.193,116.562L152.995,117.594L154.281,117.594Z" style="fill:rgb(158,161,168);fill-rule:nonzero;"/>
            <path id="path1360" d="M156.453,111.958L157.88,111.958C158.47,111.958 158.91,112.099 159.198,112.38C159.562,112.745 159.745,113.302 159.745,114.052C159.745,114.628 159.648,115.092 159.453,115.443C159.262,115.79 158.988,116.005 158.63,116.089L160.109,120L159.01,120L157.536,116.062L157.536,120L156.453,120L156.453,111.958ZM157.536,115.521C157.957,115.521 158.253,115.424 158.427,115.229C158.601,115.035 158.687,114.707 158.687,114.245C158.687,113.995 158.668,113.781 158.63,113.604C158.595,113.427 158.538,113.283 158.458,113.172C158.382,113.061 158.281,112.979 158.156,112.927C158.035,112.875 157.889,112.849 157.719,112.849L157.536,112.849L157.536,115.521Z" style="fill:rgb(158,161,168);fill-rule:nonzero;"/>
        </g>
        <g id="text1238">
            <path id="path1323" d="M123.302,126.625L123.302,127.682C122.972,127.446 122.675,127.328 122.411,127.328C122.127,127.328 121.894,127.429 121.714,127.63C121.533,127.821 121.443,128.076 121.443,128.396C121.443,128.677 121.507,128.918 121.635,129.12C121.701,129.227 121.809,129.366 121.958,129.536C122.111,129.706 122.307,129.911 122.547,130.151C122.988,130.599 123.288,130.986 123.448,131.312C123.608,131.628 123.688,132.015 123.688,132.474C123.688,133.095 123.512,133.607 123.161,134.01C122.811,134.403 122.361,134.599 121.813,134.599C121.351,134.599 120.957,134.472 120.63,134.219L120.63,133.146C121.016,133.427 121.366,133.568 121.682,133.568C121.977,133.568 122.208,133.47 122.375,133.276C122.542,133.078 122.625,132.811 122.625,132.474C122.625,132.182 122.561,131.92 122.432,131.687C122.366,131.576 122.274,131.449 122.156,131.307C122.038,131.161 121.891,131 121.714,130.823C121.439,130.552 121.212,130.312 121.031,130.104C120.851,129.896 120.717,129.713 120.63,129.557C120.464,129.252 120.38,128.866 120.38,128.401C120.38,127.772 120.543,127.274 120.87,126.906C121.2,126.535 121.642,126.349 122.198,126.349C122.583,126.349 122.951,126.441 123.302,126.625L123.302,126.625Z" style="fill:rgb(158,161,168);fill-rule:nonzero;"/>
            <path id="path1325" d="M124.599,126.458L125.682,126.458L125.682,133.583L127.453,133.583L127.453,134.5L124.599,134.5L124.599,126.458Z" style="fill:rgb(158,161,168);fill-rule:nonzero;"/>
            <rect id="path1327" x="128.141" y="126.458" width="1.083" height="8.042" style="fill:rgb(158,161,168);fill-rule:nonzero;"/>
            <path id="path1329" d="M133.63,126.588L133.63,127.562C133.352,127.427 133.12,127.359 132.932,127.359C132.675,127.359 132.455,127.423 132.271,127.552C132.087,127.677 131.934,127.871 131.813,128.135C131.694,128.399 131.606,128.734 131.547,129.14C131.491,129.543 131.464,130.021 131.464,130.573C131.464,132.559 131.972,133.552 132.99,133.552C133.167,133.552 133.38,133.496 133.63,133.385L133.63,134.38C133.37,134.526 133.078,134.599 132.755,134.599C131.127,134.599 130.312,133.269 130.312,130.609C130.312,129.172 130.51,128.102 130.906,127.401C131.306,126.7 131.915,126.349 132.734,126.349C133.036,126.349 133.335,126.429 133.63,126.588L133.63,126.588Z" style="fill:rgb(158,161,168);fill-rule:nonzero;"/>
            <path id="path1331" d="M134.536,126.458L137.417,126.458L137.417,127.375L135.62,127.375L135.62,129.922L137.214,129.922L137.214,130.838L135.62,130.838L135.62,133.583L137.417,133.583L137.417,134.5L134.536,134.5L134.536,126.458Z" style="fill:rgb(158,161,168);fill-rule:nonzero;"/>
            <path id="path1333" d="M143.302,126.625L143.302,127.682C142.972,127.446 142.675,127.328 142.411,127.328C142.127,127.328 141.894,127.429 141.714,127.63C141.533,127.821 141.443,128.076 141.443,128.396C141.443,128.677 141.507,128.918 141.635,129.12C141.701,129.227 141.809,129.366 141.958,129.536C142.111,129.706 142.307,129.911 142.547,130.151C142.988,130.599 143.288,130.986 143.448,131.312C143.608,131.628 143.688,132.015 143.688,132.474C143.688,133.095 143.512,133.607 143.161,134.01C142.811,134.403 142.361,134.599 141.813,134.599C141.351,134.599 140.957,134.472 140.63,134.219L140.63,133.146C141.016,133.427 141.366,133.568 141.682,133.568C141.977,133.568 142.208,133.47 142.375,133.276C142.542,133.078 142.625,132.811 142.625,132.474C142.625,132.182 142.561,131.92 142.432,131.687C142.366,131.576 142.274,131.449 142.156,131.307C142.038,131.161 141.891,131 141.714,130.823C141.439,130.552 141.212,130.312 141.031,130.104C140.851,129.896 140.717,129.713 140.63,129.557C140.464,129.252 140.38,128.866 140.38,128.401C140.38,127.772 140.543,127.274 140.87,126.906C141.2,126.535 141.642,126.349 142.198,126.349C142.583,126.349 142.951,126.441 143.302,126.625L143.302,126.625Z" style="fill:rgb(158,161,168);fill-rule:nonzero;"/>
            <path id="path1335" d="M145.87,126.458L146.714,126.458L148.437,134.5L147.365,134.5L147.062,132.932L145.469,132.932L145.161,134.5L144.12,134.5L145.87,126.458ZM146.906,132.094L146.667,130.812C146.507,129.941 146.377,129.01 146.276,128.021C146.227,128.503 146.165,128.993 146.089,129.489C146.012,129.982 145.922,130.507 145.818,131.062L145.62,132.094L146.906,132.094Z" style="fill:rgb(158,161,168);fill-rule:nonzero;"/>
            <path id="path1337" d="M148.25,126.458L149.318,126.458L149.802,129.427L149.885,129.963L150.057,131.13C150.085,131.328 150.109,131.509 150.13,131.672C150.154,131.835 150.175,131.982 150.193,132.114L150.245,132.51C150.255,132.43 150.264,132.359 150.271,132.297C150.278,132.234 150.285,132.182 150.292,132.14L150.432,131.208L150.615,129.984C150.632,129.873 150.648,129.771 150.661,129.677C150.679,129.583 150.694,129.5 150.708,129.427L151.229,126.458L152.24,126.458L150.661,134.5L149.802,134.5L148.25,126.458Z" style="fill:rgb(158,161,168);fill-rule:nonzero;"/>
            <path id="path1339" d="M152.828,126.458L155.708,126.458L155.708,127.375L153.911,127.375L153.911,129.922L155.505,129.922L155.505,130.838L153.911,130.838L153.911,133.583L155.708,133.583L155.708,134.5L152.828,134.5L152.828,126.458Z" style="fill:rgb(158,161,168);fill-rule:nonzero;"/>
        </g>
        <g id="text1242">
            <path id="path1300" d="M123.302,152.125L123.302,153.182C122.972,152.946 122.675,152.828 122.411,152.828C122.127,152.828 121.894,152.929 121.714,153.13C121.533,153.321 121.443,153.576 121.443,153.896C121.443,154.177 121.507,154.418 121.635,154.62C121.701,154.727 121.809,154.866 121.958,155.036C122.111,155.207 122.307,155.411 122.547,155.651C122.988,156.099 123.288,156.486 123.448,156.812C123.608,157.128 123.688,157.516 123.688,157.974C123.688,158.595 123.512,159.108 123.161,159.51C122.811,159.903 122.361,160.099 121.813,160.099C121.351,160.099 120.957,159.972 120.63,159.719L120.63,158.646C121.016,158.927 121.366,159.068 121.682,159.068C121.977,159.068 122.208,158.97 122.375,158.776C122.542,158.578 122.625,158.311 122.625,157.974C122.625,157.682 122.561,157.42 122.432,157.187C122.366,157.076 122.274,156.95 122.156,156.807C122.038,156.661 121.891,156.5 121.714,156.323C121.439,156.052 121.212,155.812 121.031,155.604C120.851,155.396 120.717,155.214 120.63,155.057C120.464,154.752 120.38,154.366 120.38,153.901C120.38,153.273 120.543,152.774 120.87,152.406C121.2,152.035 121.642,151.849 122.198,151.849C122.583,151.849 122.951,151.941 123.302,152.125L123.302,152.125Z" style="fill:rgb(158,161,168);fill-rule:nonzero;"/>
            <path id="path1302" d="M124.599,151.958L125.682,151.958L125.682,159.083L127.453,159.083L127.453,160L124.599,160L124.599,151.958Z" style="fill:rgb(158,161,168);fill-rule:nonzero;"/>
            <rect id="path1304" x="128.141" y="151.958" width="1.083" height="8.042" style="fill:rgb(158,161,168);fill-rule:nonzero;"/>
            <path id="path1306" d="M133.63,152.089L133.63,153.062C133.352,152.927 133.12,152.859 132.932,152.859C132.675,152.859 132.455,152.924 132.271,153.052C132.087,153.177 131.934,153.372 131.813,153.635C131.694,153.899 131.606,154.234 131.547,154.641C131.491,155.043 131.464,155.521 131.464,156.073C131.464,158.059 131.972,159.052 132.99,159.052C133.167,159.052 133.38,158.997 133.63,158.885L133.63,159.88C133.37,160.026 133.078,160.099 132.755,160.099C131.127,160.099 130.312,158.769 130.312,156.109C130.312,154.672 130.51,153.602 130.906,152.901C131.306,152.2 131.915,151.849 132.734,151.849C133.036,151.849 133.335,151.929 133.63,152.089L133.63,152.089Z" style="fill:rgb(158,161,168);fill-rule:nonzero;"/>
            <path id="path1308" d="M134.536,151.958L137.417,151.958L137.417,152.875L135.62,152.875L135.62,155.422L137.214,155.422L137.214,156.339L135.62,156.339L135.62,159.083L137.417,159.083L137.417,160L134.536,160L134.536,151.958Z" style="fill:rgb(158,161,168);fill-rule:nonzero;"/>
            <path id="path1310" d="M143.302,152.125L143.302,153.182C142.972,152.946 142.675,152.828 142.411,152.828C142.127,152.828 141.894,152.929 141.714,153.13C141.533,153.321 141.443,153.576 141.443,153.896C141.443,154.177 141.507,154.418 141.635,154.62C141.701,154.727 141.809,154.866 141.958,155.036C142.111,155.207 142.307,155.411 142.547,155.651C142.988,156.099 143.288,156.486 143.448,156.812C143.608,157.128 143.688,157.516 143.688,157.974C143.688,158.595 143.512,159.108 143.161,159.51C142.811,159.903 142.361,160.099 141.813,160.099C141.351,160.099 140.957,159.972 140.63,159.719L140.63,158.646C141.016,158.927 141.366,159.068 141.682,159.068C141.977,159.068 142.208,158.97 142.375,158.776C142.542,158.578 142.625,158.311 142.625,157.974C142.625,157.682 142.561,157.42 142.432,157.187C142.366,157.076 142.274,156.95 142.156,156.807C142.038,156.661 141.891,156.5 141.714,156.323C141.439,156.052 141.212,155.812 141.031,155.604C140.851,155.396 140.717,155.214 140.63,155.057C140.464,154.752 140.38,154.366 140.38,153.901C140.38,153.273 140.543,152.774 140.87,152.406C141.2,152.035 141.642,151.849 142.198,151.849C142.583,151.849 142.951,151.941 143.302,152.125L143.302,152.125Z" style="fill:rgb(158,161,168);fill-rule:nonzero;"/>
            <path id="path1312" d="M144.599,151.958L147.479,151.958L147.479,152.875L145.682,152.875L145.682,155.422L147.276,155.422L147.276,156.339L145.682,156.339L145.682,159.083L147.479,159.083L147.479,160L144.599,160L144.599,151.958Z" style="fill:rgb(158,161,168);fill-rule:nonzero;"/>
            <path id="path1314" d="M148.474,151.958L149.557,151.958L149.557,159.083L151.328,159.083L151.328,160L148.474,160L148.474,151.958Z" style="fill:rgb(158,161,168);fill-rule:nonzero;"/>
            <path id="path1316" d="M152.016,151.958L154.896,151.958L154.896,152.875L153.099,152.875L153.099,155.422L154.693,155.422L154.693,156.339L153.099,156.339L153.099,159.083L154.896,159.083L154.896,160L152.016,160L152.016,151.958Z" style="fill:rgb(158,161,168);fill-rule:nonzero;"/>
            <path id="path1318" d="M159.047,152.089L159.047,153.062C158.769,152.927 158.536,152.859 158.349,152.859C158.092,152.859 157.872,152.924 157.688,153.052C157.503,153.177 157.351,153.372 157.229,153.635C157.111,153.899 157.023,154.234 156.964,154.641C156.908,155.043 156.88,155.521 156.88,156.073C156.88,158.059 157.389,159.052 158.406,159.052C158.583,159.052 158.797,158.997 159.047,158.885L159.047,159.88C158.786,160.026 158.495,160.099 158.172,160.099C156.543,160.099 155.729,158.769 155.729,156.109C155.729,154.672 155.927,153.602 156.323,152.901C156.722,152.2 157.332,151.849 158.151,151.849C158.453,151.849 158.752,151.929 159.047,152.089L159.047,152.089Z" style="fill:rgb(158,161,168);fill-rule:nonzero;"/>
            <path id="path1320" d="M159.312,151.958L162.839,151.958L162.839,152.906L161.625,152.906L161.625,160L160.562,160L160.562,152.906L159.312,152.906L159.312,151.958Z" style="fill:rgb(158,161,168);fill-rule:nonzero;"/>
        </g>
        <g id="text1246">
            <path id="path1281" d="M123.302,166.125L123.302,167.182C122.972,166.946 122.675,166.828 122.411,166.828C122.127,166.828 121.894,166.929 121.714,167.13C121.533,167.321 121.443,167.576 121.443,167.896C121.443,168.177 121.507,168.418 121.635,168.62C121.701,168.727 121.809,168.866 121.958,169.036C122.111,169.207 122.307,169.411 122.547,169.651C122.988,170.099 123.288,170.486 123.448,170.812C123.608,171.128 123.688,171.516 123.688,171.974C123.688,172.595 123.512,173.108 123.161,173.51C122.811,173.903 122.361,174.099 121.813,174.099C121.351,174.099 120.957,173.972 120.63,173.719L120.63,172.646C121.016,172.927 121.366,173.068 121.682,173.068C121.977,173.068 122.208,172.97 122.375,172.776C122.542,172.578 122.625,172.311 122.625,171.974C122.625,171.682 122.561,171.42 122.432,171.187C122.366,171.076 122.274,170.95 122.156,170.807C122.038,170.661 121.891,170.5 121.714,170.323C121.439,170.052 121.212,169.812 121.031,169.604C120.851,169.396 120.717,169.214 120.63,169.057C120.464,168.752 120.38,168.366 120.38,167.901C120.38,167.273 120.543,166.774 120.87,166.406C121.2,166.035 121.642,165.849 122.198,165.849C122.583,165.849 122.951,165.941 123.302,166.125L123.302,166.125Z" style="fill:rgb(158,161,168);fill-rule:nonzero;"/>
            <path id="path1283" d="M124.599,165.958L125.682,165.958L125.682,173.083L127.453,173.083L127.453,174L124.599,174L124.599,165.958Z" style="fill:rgb(158,161,168);fill-rule:nonzero;"/>
            <rect id="path1285" x="128.141" y="165.958" width="1.083" height="8.042" style="fill:rgb(158,161,168);fill-rule:nonzero;"/>
            <path id="path1287" d="M133.63,166.089L133.63,167.062C133.352,166.927 133.12,166.859 132.932,166.859C132.675,166.859 132.455,166.924 132.271,167.052C132.087,167.177 131.934,167.372 131.813,167.635C131.694,167.899 131.606,168.234 131.547,168.641C131.491,169.043 131.464,169.521 131.464,170.073C131.464,172.059 131.972,173.052 132.99,173.052C133.167,173.052 133.38,172.997 133.63,172.885L133.63,173.88C133.37,174.026 133.078,174.099 132.755,174.099C131.127,174.099 130.312,172.769 130.312,170.109C130.312,168.672 130.51,167.602 130.906,166.901C131.306,166.2 131.915,165.849 132.734,165.849C133.036,165.849 133.335,165.929 133.63,166.089L133.63,166.089Z" style="fill:rgb(158,161,168);fill-rule:nonzero;"/>
            <path id="path1289" d="M134.536,165.958L137.417,165.958L137.417,166.875L135.62,166.875L135.62,169.422L137.214,169.422L137.214,170.339L135.62,170.339L135.62,173.083L137.417,173.083L137.417,174L134.536,174L134.536,165.958Z" style="fill:rgb(158,161,168);fill-rule:nonzero;"/>
            <path id="path1291" d="M140.62,165.958L141.703,165.958L141.703,173.083L143.474,173.083L143.474,174L140.62,174L140.62,165.958Z" style="fill:rgb(158,161,168);fill-rule:nonzero;"/>
            <path id="path1293" d="M148.187,170.177C148.187,171.597 148.03,172.606 147.714,173.203C147.398,173.8 146.868,174.099 146.125,174.099C145.344,174.099 144.793,173.778 144.474,173.135C144.158,172.507 144,171.391 144,169.786C144,168.356 144.156,167.344 144.469,166.75C144.785,166.153 145.319,165.854 146.073,165.854C146.747,165.854 147.247,166.085 147.573,166.547C147.788,166.856 147.944,167.295 148.042,167.865C148.139,168.392 148.187,169.163 148.187,170.177L148.187,170.177ZM147.052,170.292C147.052,168.899 146.99,167.976 146.865,167.521C146.74,167.063 146.484,166.833 146.099,166.833C145.714,166.833 145.457,167.043 145.328,167.464C145.203,167.887 145.141,168.738 145.141,170.016C145.141,171.193 145.207,172.009 145.339,172.464C145.474,172.894 145.727,173.109 146.099,173.109C146.464,173.109 146.714,172.908 146.849,172.505C146.984,172.106 147.052,171.368 147.052,170.292Z" style="fill:rgb(158,161,168);fill-rule:nonzero;"/>
            <path id="path1295" d="M150.391,165.958L151.234,165.958L152.958,174L151.885,174L151.583,172.432L149.99,172.432L149.682,174L148.641,174L150.391,165.958ZM151.427,171.594L151.187,170.312C151.028,169.441 150.898,168.51 150.797,167.521C150.748,168.003 150.686,168.493 150.609,168.99C150.533,169.483 150.443,170.007 150.339,170.562L150.141,171.594L151.427,171.594Z" style="fill:rgb(158,161,168);fill-rule:nonzero;"/>
            <path id="path1297" d="M153.599,165.958L154.932,165.958C155.339,165.958 155.681,166.003 155.958,166.094C156.215,166.181 156.444,166.335 156.646,166.557C156.948,166.891 157.163,167.325 157.292,167.859C157.42,168.377 157.484,169.118 157.484,170.083C157.484,170.969 157.413,171.691 157.271,172.25C157.132,172.785 156.903,173.193 156.583,173.474C156.191,173.825 155.488,174 154.474,174L153.599,174L153.599,165.958ZM154.682,173.052C155.342,173.052 155.783,172.852 156.005,172.453C156.234,172.054 156.349,171.278 156.349,170.125C156.349,168.885 156.24,168.033 156.021,167.568C155.802,167.102 155.401,166.87 154.818,166.87L154.682,166.87L154.682,173.052Z" style="fill:rgb(158,161,168);fill-rule:nonzero;"/>
        </g>
        <g id="text1251">
            <path id="path1253" d="M123.302,181.719L123.302,182.776C122.972,182.54 122.675,182.422 122.411,182.422C122.127,182.422 121.894,182.522 121.714,182.724C121.533,182.915 121.443,183.17 121.443,183.489C121.443,183.771 121.507,184.012 121.635,184.213C121.701,184.321 121.809,184.46 121.958,184.63C122.111,184.8 122.307,185.005 122.547,185.245C122.988,185.693 123.288,186.08 123.448,186.406C123.608,186.722 123.688,187.109 123.688,187.568C123.688,188.189 123.512,188.701 123.161,189.104C122.811,189.496 122.361,189.693 121.813,189.693C121.351,189.693 120.957,189.566 120.63,189.312L120.63,188.239C121.016,188.521 121.366,188.661 121.682,188.661C121.977,188.661 122.208,188.564 122.375,188.37C122.542,188.172 122.625,187.904 122.625,187.568C122.625,187.276 122.561,187.014 122.432,186.781C122.366,186.67 122.274,186.543 122.156,186.401C122.038,186.255 121.891,186.094 121.714,185.917C121.439,185.646 121.212,185.406 121.031,185.198C120.851,184.989 120.717,184.807 120.63,184.651C120.464,184.345 120.38,183.96 120.38,183.495C120.38,182.866 120.543,182.368 120.87,182C121.2,181.628 121.642,181.443 122.198,181.443C122.583,181.443 122.951,181.535 123.302,181.719L123.302,181.719Z" style="fill:rgb(158,161,168);fill-rule:nonzero;"/>
            <path id="path1255" d="M124.599,181.552L125.682,181.552L125.682,188.677L127.453,188.677L127.453,189.594L124.599,189.594L124.599,181.552Z" style="fill:rgb(158,161,168);fill-rule:nonzero;"/>
            <rect id="path1257" x="128.141" y="181.552" width="1.083" height="8.042" style="fill:rgb(158,161,168);fill-rule:nonzero;"/>
            <path id="path1259" d="M133.63,181.682L133.63,182.656C133.352,182.521 133.12,182.453 132.932,182.453C132.675,182.453 132.455,182.517 132.271,182.646C132.087,182.771 131.934,182.965 131.813,183.229C131.694,183.493 131.606,183.828 131.547,184.234C131.491,184.637 131.464,185.114 131.464,185.667C131.464,187.653 131.972,188.646 132.99,188.646C133.167,188.646 133.38,188.59 133.63,188.479L133.63,189.474C133.37,189.62 133.078,189.693 132.755,189.693C131.127,189.693 130.312,188.363 130.312,185.703C130.312,184.265 130.51,183.196 130.906,182.495C131.306,181.793 131.915,181.443 132.734,181.443C133.036,181.443 133.335,181.522 133.63,181.682L133.63,181.682Z" style="fill:rgb(158,161,168);fill-rule:nonzero;"/>
            <path id="path1262" d="M134.536,181.552L137.417,181.552L137.417,182.469L135.62,182.469L135.62,185.015L137.214,185.015L137.214,185.932L135.62,185.932L135.62,188.677L137.417,188.677L137.417,189.594L134.536,189.594L134.536,181.552Z" style="fill:rgb(158,161,168);fill-rule:nonzero;"/>
            <path id="path1264" d="M143.776,181.682L143.776,182.656C143.498,182.521 143.266,182.453 143.078,182.453C142.821,182.453 142.601,182.517 142.417,182.646C142.233,182.771 142.08,182.965 141.958,183.229C141.84,183.493 141.752,183.828 141.693,184.234C141.637,184.637 141.609,185.114 141.609,185.667C141.609,187.653 142.118,188.646 143.135,188.646C143.312,188.646 143.526,188.59 143.776,188.479L143.776,189.474C143.516,189.62 143.224,189.693 142.901,189.693C141.273,189.693 140.458,188.363 140.458,185.703C140.458,184.265 140.656,183.196 141.052,182.495C141.451,181.793 142.061,181.443 142.88,181.443C143.182,181.443 143.481,181.522 143.776,181.682L143.776,181.682Z" style="fill:rgb(158,161,168);fill-rule:nonzero;"/>
            <path id="path1266" d="M144.682,181.552L145.766,181.552L145.766,188.677L147.536,188.677L147.536,189.594L144.682,189.594L144.682,181.552Z" style="fill:rgb(158,161,168);fill-rule:nonzero;"/>
            <path id="path1268" d="M148.224,181.552L151.104,181.552L151.104,182.469L149.307,182.469L149.307,185.015L150.901,185.015L150.901,185.932L149.307,185.932L149.307,188.677L151.104,188.677L151.104,189.594L148.224,189.594L148.224,181.552Z" style="fill:rgb(158,161,168);fill-rule:nonzero;"/>
            <path id="path1270" d="M153.245,181.552L154.089,181.552L155.812,189.594L154.74,189.594L154.437,188.026L152.844,188.026L152.536,189.594L151.495,189.594L153.245,181.552ZM154.281,187.187L154.042,185.906C153.882,185.035 153.752,184.104 153.651,183.114C153.602,183.597 153.54,184.087 153.464,184.583C153.387,185.076 153.297,185.601 153.193,186.156L152.995,187.187L154.281,187.187Z" style="fill:rgb(158,161,168);fill-rule:nonzero;"/>
            <path id="path1272" d="M156.453,181.552L157.88,181.552C158.47,181.552 158.91,181.693 159.198,181.974C159.562,182.338 159.745,182.896 159.745,183.646C159.745,184.222 159.648,184.686 159.453,185.036C159.262,185.384 158.988,185.599 158.63,185.682L160.109,189.594L159.01,189.594L157.536,185.656L157.536,189.594L156.453,189.594L156.453,181.552ZM157.536,185.114C157.957,185.114 158.253,185.017 158.427,184.823C158.601,184.628 158.687,184.3 158.687,183.838C158.687,183.588 158.668,183.375 158.63,183.198C158.595,183.021 158.538,182.877 158.458,182.765C158.382,182.654 158.281,182.573 158.156,182.521C158.035,182.469 157.889,182.443 157.719,182.443L157.536,182.443L157.536,185.114Z" style="fill:rgb(158,161,168);fill-rule:nonzero;"/>
            <path id="path1274" d="M164.307,181.552L165.151,181.552L166.875,189.594L165.802,189.594L165.5,188.026L163.906,188.026L163.599,189.594L162.557,189.594L164.307,181.552ZM165.344,187.187L165.104,185.906C164.944,185.035 164.814,184.104 164.714,183.114C164.665,183.597 164.602,184.087 164.526,184.583C164.45,185.076 164.359,185.601 164.255,186.156L164.057,187.187L165.344,187.187Z" style="fill:rgb(158,161,168);fill-rule:nonzero;"/>
            <path id="path1276" d="M167.516,181.552L168.599,181.552L168.599,188.677L170.37,188.677L170.37,189.594L167.516,189.594L167.516,181.552Z" style="fill:rgb(158,161,168);fill-rule:nonzero;"/>
            <path id="path1278" d="M171.057,181.552L172.141,181.552L172.141,188.677L173.911,188.677L173.911,189.594L171.057,189.594L171.057,181.552Z" style="fill:rgb(158,161,168);fill-rule:nonzero;"/>
        </g>
    </g>
</svg>
