<?xml version="1.0" encoding="UTF-8" standalone="no"?>
<!DOCTYPE svg PUBLIC "-//W3C//DTD SVG 1.1//EN" "http://www.w3.org/Graphics/SVG/1.1/DTD/svg11.dtd">
<svg width="100%" height="100%" viewBox="0 0 270 380" version="1.1" xmlns="http://www.w3.org/2000/svg" xmlns:xlink="http://www.w3.org/1999/xlink" xml:space="preserve" xmlns:serif="http://www.serif.com/" style="fill-rule:evenodd;clip-rule:evenodd;stroke-linejoin:round;stroke-miterlimit:2;">
    <g id="Layer-2" serif:id="Layer 2">
        <g id="text989">
        </g>
        <rect id="rect4689" x="-0.689" y="0" width="270" height="380" style="fill:rgb(44,45,48);fill-rule:nonzero;"/>
        <g id="text4987">
        </g>
        <g id="text1042">
        </g>
        <path id="rect4778-3" d="M5.714,307L264.286,307C266.898,307 269,307.684 269,311.601L269,359.929C269,363.846 266.898,367 264.286,367L5.714,367C3.102,367 1,363.846 1,359.929L1,314.071C1,310.154 3.102,307 5.714,307Z" style="fill:rgb(158,161,168);fill-rule:nonzero;"/>
        <g id="text2090">
        </g>
        <g id="text1170" transform="matrix(0.859253,0,0,1,17.331,-8.28844e-07)">
            <rect id="path1336" x="40.93" y="13.789" width="1.625" height="12.063" style="fill:rgb(158,161,168);fill-rule:nonzero;"/>
            <path id="path1338" d="M44.43,13.789L45.945,13.789L47.563,18.602C48.031,19.961 48.445,21.411 48.805,22.953C48.674,22.021 48.578,21.177 48.516,20.422C48.453,19.667 48.422,18.956 48.422,18.289L48.422,13.789L50.055,13.789L50.055,25.852L48.531,25.852L46.711,20.422C46.544,19.917 46.385,19.398 46.234,18.867C46.089,18.336 45.953,17.779 45.828,17.195C45.818,17.122 45.8,17.034 45.773,16.93C45.753,16.826 45.726,16.706 45.695,16.57C45.711,16.706 45.724,16.823 45.734,16.922C45.745,17.016 45.753,17.096 45.758,17.164L45.844,18.391L45.93,19.883C45.935,19.966 45.938,20.068 45.938,20.187C45.943,20.307 45.946,20.443 45.946,20.594L46.032,25.852L44.43,25.852L44.43,13.789Z" style="fill:rgb(158,161,168);fill-rule:nonzero;"/>
            <path id="path1340" d="M51.93,13.789L54.07,13.789C55.102,13.789 55.852,14.049 56.32,14.57C56.789,15.096 57.023,15.93 57.023,17.07C57.023,18.674 56.552,19.711 55.609,20.18C55.135,20.393 54.451,20.5 53.555,20.5L53.555,25.852L51.93,25.852L51.93,13.789ZM53.555,19.109C54.227,19.109 54.69,18.974 54.945,18.703C55.206,18.427 55.336,17.938 55.336,17.234C55.336,16.516 55.211,15.99 54.961,15.656C54.711,15.323 54.318,15.156 53.781,15.156L53.555,15.156L53.555,19.109Z" style="fill:rgb(158,161,168);fill-rule:nonzero;"/>
            <path id="path1342" d="M58.273,13.789L59.867,13.789L59.867,22.313C59.867,23.182 59.945,23.76 60.102,24.047C60.263,24.333 60.581,24.477 61.055,24.477C61.529,24.477 61.841,24.352 61.992,24.102C62.148,23.846 62.227,23.328 62.227,22.547L62.227,13.789L63.82,13.789L63.82,22.547C63.82,23.859 63.62,24.747 63.219,25.211C62.74,25.737 62.008,26 61.023,26C59.94,26 59.177,25.661 58.734,24.984C58.427,24.521 58.273,23.63 58.273,22.313L58.273,13.789Z" style="fill:rgb(158,161,168);fill-rule:nonzero;"/>
            <path id="path1344" d="M64.719,13.789L70.008,13.789L70.008,15.211L68.188,15.211L68.188,25.852L66.594,25.852L66.594,15.211L64.719,15.211L64.719,13.789Z" style="fill:rgb(158,161,168);fill-rule:nonzero;"/>
            <path id="path1346" d="M75.266,14.039L75.266,15.625C74.771,15.271 74.326,15.094 73.93,15.094C73.503,15.094 73.154,15.245 72.883,15.547C72.612,15.833 72.477,16.216 72.477,16.695C72.477,17.117 72.573,17.479 72.766,17.781C72.865,17.943 73.026,18.151 73.25,18.406C73.479,18.661 73.773,18.969 74.133,19.328C74.794,20 75.245,20.581 75.484,21.07C75.724,21.544 75.844,22.125 75.844,22.813C75.844,23.745 75.581,24.513 75.055,25.117C74.529,25.706 73.854,26 73.031,26C72.339,26 71.747,25.81 71.258,25.43L71.258,23.82C71.836,24.242 72.362,24.453 72.836,24.453C73.279,24.453 73.625,24.307 73.875,24.016C74.125,23.719 74.25,23.318 74.25,22.813C74.25,22.375 74.154,21.982 73.961,21.633C73.862,21.466 73.724,21.276 73.547,21.063C73.37,20.844 73.148,20.602 72.883,20.336C72.471,19.93 72.13,19.57 71.859,19.258C71.589,18.945 71.388,18.672 71.258,18.438C71.008,17.979 70.883,17.401 70.883,16.703C70.883,15.76 71.128,15.013 71.617,14.461C72.112,13.904 72.776,13.625 73.609,13.625C74.187,13.625 74.74,13.763 75.266,14.039L75.266,14.039Z" style="fill:rgb(158,161,168);fill-rule:nonzero;"/>
        </g>
        <g id="text1174" transform="matrix(0.787623,0,0,1,26.9338,7.31156e-07)">
            <path id="path1321" d="M206.969,20.117C206.969,22.247 206.732,23.76 206.258,24.656C205.784,25.552 204.99,26 203.875,26C202.703,26 201.878,25.518 201.398,24.555C200.924,23.612 200.688,21.937 200.688,19.531C200.688,17.385 200.922,15.867 201.391,14.977C201.865,14.081 202.667,13.633 203.797,13.633C204.807,13.633 205.557,13.979 206.047,14.672C206.37,15.135 206.604,15.794 206.75,16.648C206.896,17.44 206.969,18.596 206.969,20.117L206.969,20.117ZM205.266,20.289C205.266,18.201 205.172,16.815 204.984,16.133C204.797,15.445 204.414,15.102 203.836,15.102C203.258,15.102 202.872,15.417 202.68,16.047C202.492,16.682 202.398,17.958 202.398,19.875C202.398,21.641 202.497,22.865 202.695,23.547C202.898,24.193 203.279,24.516 203.836,24.516C204.383,24.516 204.758,24.214 204.961,23.609C205.164,23.01 205.266,21.904 205.266,20.289L205.266,20.289Z" style="fill:rgb(158,161,168);fill-rule:nonzero;"/>
            <path id="path1323" d="M208.586,13.789L210.18,13.789L210.18,22.313C210.18,23.182 210.258,23.76 210.414,24.047C210.576,24.333 210.893,24.477 211.367,24.477C211.841,24.477 212.154,24.352 212.305,24.102C212.461,23.846 212.539,23.328 212.539,22.547L212.539,13.789L214.133,13.789L214.133,22.547C214.133,23.859 213.932,24.747 213.531,25.211C213.052,25.737 212.32,26 211.336,26C210.253,26 209.49,25.661 209.047,24.984C208.74,24.521 208.586,23.63 208.586,22.313L208.586,13.789Z" style="fill:rgb(158,161,168);fill-rule:nonzero;"/>
            <path id="path1325" d="M215.031,13.789L220.32,13.789L220.32,15.211L218.5,15.211L218.5,25.852L216.906,25.852L216.906,15.211L215.031,15.211L215.031,13.789Z" style="fill:rgb(158,161,168);fill-rule:nonzero;"/>
            <path id="path1327" d="M221.211,13.789L223.352,13.789C224.383,13.789 225.133,14.049 225.602,14.57C226.07,15.096 226.305,15.93 226.305,17.07C226.305,18.674 225.833,19.711 224.891,20.18C224.417,20.393 223.732,20.5 222.836,20.5L222.836,25.852L221.211,25.852L221.211,13.789ZM222.836,19.109C223.508,19.109 223.971,18.974 224.227,18.703C224.487,18.427 224.617,17.938 224.617,17.234C224.617,16.516 224.492,15.99 224.242,15.656C223.992,15.323 223.599,15.156 223.063,15.156L222.836,15.156L222.836,19.109Z" style="fill:rgb(158,161,168);fill-rule:nonzero;"/>
            <path id="path1329" d="M227.555,13.789L229.148,13.789L229.148,22.313C229.148,23.182 229.227,23.76 229.383,24.047C229.544,24.333 229.862,24.477 230.336,24.477C230.81,24.477 231.122,24.352 231.273,24.102C231.43,23.846 231.508,23.328 231.508,22.547L231.508,13.789L233.102,13.789L233.102,22.547C233.102,23.859 232.901,24.747 232.5,25.211C232.021,25.737 231.289,26 230.305,26C229.221,26 228.458,25.661 228.016,24.984C227.708,24.521 227.555,23.63 227.555,22.313L227.555,13.789Z" style="fill:rgb(158,161,168);fill-rule:nonzero;"/>
            <path id="path1331" d="M234,13.789L239.289,13.789L239.289,15.211L237.469,15.211L237.469,25.852L235.875,25.852L235.875,15.211L234,15.211L234,13.789Z" style="fill:rgb(158,161,168);fill-rule:nonzero;"/>
            <path id="path1333" d="M244.547,14.039L244.547,15.625C244.052,15.271 243.607,15.094 243.211,15.094C242.784,15.094 242.435,15.245 242.164,15.547C241.893,15.833 241.758,16.216 241.758,16.695C241.758,17.117 241.854,17.479 242.047,17.781C242.146,17.943 242.307,18.151 242.531,18.406C242.76,18.661 243.055,18.969 243.414,19.328C244.076,20 244.526,20.581 244.766,21.07C245.005,21.544 245.125,22.125 245.125,22.813C245.125,23.745 244.862,24.513 244.336,25.117C243.81,25.706 243.135,26 242.312,26C241.62,26 241.029,25.81 240.539,25.43L240.539,23.82C241.117,24.242 241.643,24.453 242.117,24.453C242.56,24.453 242.906,24.307 243.156,24.016C243.406,23.719 243.531,23.318 243.531,22.813C243.531,22.375 243.435,21.982 243.242,21.633C243.143,21.466 243.005,21.276 242.828,21.063C242.651,20.844 242.43,20.602 242.164,20.336C241.753,19.93 241.411,19.57 241.141,19.258C240.87,18.945 240.669,18.672 240.539,18.438C240.289,17.979 240.164,17.401 240.164,16.703C240.164,15.76 240.409,15.013 240.898,14.461C241.393,13.904 242.057,13.625 242.891,13.625C243.469,13.625 244.021,13.763 244.547,14.039Z" style="fill:rgb(158,161,168);fill-rule:nonzero;"/>
        </g>
        <g id="g1446" transform="matrix(0.716083,0,0,1,35.9576,-8)">
            <path id="path1448" d="M136.936,51.937L139.686,51.937L139.686,64L138.132,64L138.132,53.32L136.936,53.32L136.936,51.937Z" style="fill:rgb(158,161,168);fill-rule:nonzero;"/>
            <path id="path1451" d="M137.358,86.859L135.764,86.859L135.749,86.383C135.749,85.065 135.947,84.138 136.343,83.602C136.744,83.06 137.415,82.789 138.358,82.789C140.134,82.789 141.022,83.773 141.022,85.742C141.022,87.07 140.358,88.984 139.03,91.484L138.069,93.289C138.064,93.299 138.048,93.331 138.022,93.383C137.996,93.435 137.96,93.51 137.913,93.609L140.897,93.609L140.897,95L135.6,95C135.689,94.802 135.874,94.409 136.155,93.82C136.436,93.232 136.819,92.438 137.303,91.438C137.715,90.563 138.059,89.82 138.335,89.211C138.611,88.602 138.819,88.102 138.96,87.711C139.241,86.93 139.382,86.255 139.382,85.687C139.382,84.687 139.035,84.187 138.342,84.187C137.676,84.187 137.342,84.807 137.342,86.047L137.35,86.734L137.358,86.859Z" style="fill:rgb(158,161,168);fill-rule:nonzero;"/>
            <path id="path1454" d="M137.421,117.031L135.874,117.031L135.874,116.711C135.874,116.174 135.918,115.714 136.007,115.328C136.1,114.943 136.244,114.625 136.436,114.375C136.634,114.125 136.884,113.943 137.186,113.828C137.488,113.708 137.85,113.648 138.272,113.648C139.158,113.648 139.803,113.898 140.21,114.398C140.616,114.898 140.819,115.693 140.819,116.781C140.819,117.677 140.725,118.323 140.538,118.719C140.355,119.12 140.004,119.424 139.483,119.633C140.046,119.826 140.434,120.125 140.647,120.531C140.861,120.932 140.967,121.576 140.967,122.461C140.967,123.674 140.738,124.568 140.28,125.141C139.822,125.714 139.108,126 138.139,126C136.483,126 135.655,125.049 135.655,123.148L135.655,123.023L135.655,122.938C135.655,122.88 135.658,122.844 135.663,122.828L137.186,122.828C137.181,122.917 137.176,122.995 137.171,123.062L137.171,123.219C137.171,123.63 137.259,123.958 137.436,124.203C137.619,124.448 137.866,124.57 138.179,124.57C138.382,124.57 138.554,124.531 138.694,124.453C138.84,124.37 138.957,124.24 139.046,124.062C139.14,123.88 139.207,123.646 139.249,123.359C139.291,123.073 139.311,122.727 139.311,122.32C139.311,121.586 139.2,121.057 138.976,120.734C138.757,120.411 138.39,120.25 137.874,120.25C137.817,120.25 137.754,120.255 137.686,120.265C137.619,120.271 137.541,120.279 137.452,120.289L137.452,118.883L137.679,118.883C138.309,118.883 138.736,118.747 138.96,118.476C139.184,118.206 139.296,117.693 139.296,116.937C139.296,115.687 138.981,115.062 138.351,115.062C137.726,115.062 137.413,115.596 137.413,116.664L137.421,117.031Z" style="fill:rgb(158,161,168);fill-rule:nonzero;"/>
            <path id="path1457" d="M139.495,274.312C140.036,274.51 140.409,274.826 140.612,275.258C140.815,275.69 140.917,276.391 140.917,277.359C140.917,278.609 140.706,279.529 140.284,280.117C139.867,280.706 139.211,281 138.315,281C137.414,281 136.753,280.706 136.331,280.117C135.914,279.529 135.706,278.609 135.706,277.359C135.706,276.391 135.807,275.69 136.01,275.258C136.214,274.826 136.586,274.51 137.128,274.312C136.648,274.104 136.31,273.797 136.112,273.391C135.914,272.953 135.815,272.362 135.815,271.617C135.815,271.102 135.862,270.656 135.956,270.281C136.055,269.906 136.206,269.599 136.409,269.359C136.612,269.115 136.87,268.935 137.182,268.82C137.5,268.706 137.878,268.648 138.315,268.648C138.753,268.648 139.128,268.706 139.44,268.82C139.753,268.935 140.01,269.115 140.214,269.359C140.417,269.599 140.565,269.906 140.659,270.281C140.758,270.656 140.807,271.102 140.807,271.617C140.807,272.362 140.708,272.953 140.51,273.391C140.312,273.797 139.974,274.104 139.495,274.312L139.495,274.312ZM139.206,271.75C139.206,270.615 138.906,270.047 138.307,270.047C137.714,270.047 137.417,270.609 137.417,271.734C137.417,272.984 137.716,273.609 138.315,273.609C138.909,273.609 139.206,272.99 139.206,271.75ZM139.315,277.547C139.315,277.125 139.297,276.766 139.26,276.469C139.224,276.167 139.164,275.922 139.081,275.734C138.997,275.547 138.891,275.409 138.76,275.32C138.635,275.232 138.484,275.187 138.307,275.187C137.958,275.187 137.703,275.367 137.542,275.727C137.385,276.086 137.307,276.667 137.307,277.469C137.307,278.87 137.643,279.57 138.315,279.57C138.982,279.57 139.315,278.896 139.315,277.547L139.315,277.547Z" style="fill:rgb(158,161,168);fill-rule:nonzero;"/>
            <path id="path1460" d="M135.616,237.938L141.007,237.938L137.35,250L135.616,250L138.967,239.312L135.616,239.312L135.616,237.938Z" style="fill:rgb(158,161,168);fill-rule:nonzero;"/>
            <path id="path1463" d="M138.163,206.797L139.889,206.797L138.757,209.117C138.559,209.539 138.358,209.987 138.155,210.461C137.957,210.935 137.749,211.44 137.53,211.977C137.983,211.617 138.418,211.437 138.835,211.437C139.507,211.437 140.025,211.729 140.389,212.312C140.733,212.859 140.905,213.839 140.905,215.25C140.905,216.583 140.704,217.544 140.303,218.133C139.902,218.711 139.249,219 138.342,219C137.415,219 136.746,218.68 136.335,218.039C135.923,217.393 135.717,216.341 135.717,214.883C135.717,213.659 135.879,212.492 136.202,211.383C136.368,210.831 136.613,210.18 136.936,209.43C137.264,208.68 137.673,207.802 138.163,206.797ZM139.35,215.242C139.35,214.826 139.332,214.471 139.296,214.18C139.259,213.883 139.199,213.643 139.116,213.461C139.033,213.273 138.926,213.138 138.796,213.055C138.671,212.966 138.517,212.922 138.335,212.922C138.152,212.922 137.996,212.966 137.866,213.055C137.741,213.138 137.637,213.271 137.553,213.453C137.47,213.635 137.41,213.875 137.374,214.172C137.337,214.464 137.319,214.815 137.319,215.227C137.319,216.805 137.658,217.594 138.335,217.594C139.012,217.594 139.35,216.81 139.35,215.242L139.35,215.242Z" style="fill:rgb(158,161,168);fill-rule:nonzero;"/>
            <path id="path1466" d="M136.944,175.797L140.78,175.797L140.78,177.195L138.178,177.195L137.788,180.227L137.983,180.227C138.457,180.227 138.876,180.302 139.241,180.453C139.611,180.604 139.921,180.825 140.171,181.117C140.421,181.409 140.611,181.768 140.741,182.195C140.871,182.622 140.936,183.109 140.936,183.656C140.936,185.01 140.642,186.075 140.053,186.852C139.465,187.617 138.647,188 137.6,188C137.012,188 136.374,187.833 135.686,187.5L136.092,186.062C136.65,186.354 137.116,186.5 137.491,186.5C138.022,186.5 138.444,186.26 138.757,185.781C139.069,185.297 139.225,184.646 139.225,183.828C139.225,182.281 138.561,181.508 137.233,181.508C136.905,181.508 136.574,181.557 136.241,181.656L136.944,175.797Z" style="fill:rgb(158,161,168);fill-rule:nonzero;"/>
            <path id="path1469" d="M138.823,144.937L140.331,144.937L140.331,152.453L141.104,152.453L141.104,153.695L140.331,153.695L140.331,157L138.823,157L138.823,153.695L135.518,153.695L135.518,152.313L138.823,144.937ZM138.823,152.453L138.823,147.391L136.792,152.453L138.823,152.453Z" style="fill:rgb(158,161,168);fill-rule:nonzero;"/>
        </g>
        <g id="text1606" transform="matrix(0.773911,0,0,0.985629,111.62,3.55015)">
            <path id="path1739" d="M138.75,335.524L139.993,335.524L141.319,339.47C141.703,340.584 142.043,341.773 142.337,343.037C142.23,342.273 142.151,341.581 142.1,340.962C142.049,340.343 142.023,339.76 142.023,339.214L142.023,335.524L143.362,335.524L143.362,345.414L142.113,345.414L140.621,340.962C140.484,340.548 140.354,340.123 140.23,339.688C140.11,339.252 139.999,338.795 139.897,338.317C139.888,338.257 139.873,338.184 139.852,338.099C139.835,338.014 139.814,337.915 139.788,337.804C139.801,337.915 139.811,338.011 139.82,338.093C139.829,338.169 139.835,338.236 139.839,338.291L139.91,339.297L139.98,340.52C139.985,340.589 139.987,340.672 139.987,340.77C139.991,340.868 139.993,340.979 139.993,341.103L140.064,345.414L138.75,345.414L138.75,335.524Z" style="fill-rule:nonzero;"/>
            <path id="path1741" d="M144.899,335.524L148.441,335.524L148.441,336.651L146.232,336.651L146.232,339.784L148.192,339.784L148.192,340.911L146.232,340.911L146.232,344.286L148.441,344.286L148.441,345.414L144.899,345.414L144.899,335.524Z" style="fill-rule:nonzero;"/>
            <path id="path1743" d="M148.992,335.524L150.286,335.524L150.971,337.439C151.24,338.195 151.401,338.748 151.452,339.098C151.499,338.88 151.55,338.669 151.605,338.464C151.665,338.259 151.727,338.054 151.791,337.849L151.881,337.561L152.515,335.524L153.86,335.524L152.028,340.392L153.86,345.414L152.515,345.414L151.862,343.531C151.729,343.155 151.623,342.818 151.541,342.519C151.46,342.22 151.403,341.955 151.369,341.724C151.334,342.01 151.277,342.284 151.196,342.544L150.971,343.249L150.856,343.62L150.286,345.414L148.877,345.414L150.747,340.392L148.992,335.524Z" style="fill-rule:nonzero;"/>
            <path id="path1745" d="M153.796,335.524L158.132,335.524L158.132,336.69L156.64,336.69L156.64,345.414L155.333,345.414L155.333,336.69L153.796,336.69L153.796,335.524Z" style="fill-rule:nonzero;"/>
        </g>
        <g id="text1610" transform="matrix(0.611642,0,0,0.985629,68.4952,3.55013)">
            <path id="path1730" d="M164.32,335.524L166.075,335.524C166.92,335.524 167.535,335.738 167.919,336.165C168.304,336.596 168.496,337.279 168.496,338.214C168.496,339.53 168.109,340.379 167.337,340.764C166.948,340.939 166.386,341.026 165.652,341.026L165.652,345.414L164.32,345.414L164.32,335.524ZM165.652,339.886C166.203,339.886 166.583,339.775 166.792,339.553C167.006,339.327 167.112,338.925 167.112,338.349C167.112,337.76 167.01,337.328 166.805,337.055C166.6,336.782 166.278,336.645 165.838,336.645L165.652,336.645L165.652,339.886Z" style="fill-rule:nonzero;"/>
            <path id="path1732" d="M169.521,335.524L171.276,335.524C172.002,335.524 172.542,335.697 172.896,336.043C173.345,336.491 173.569,337.177 173.569,338.099C173.569,338.808 173.449,339.378 173.21,339.809C172.975,340.236 172.638,340.501 172.198,340.603L174.017,345.414L172.666,345.414L170.853,340.571L170.853,345.414L169.521,345.414L169.521,335.524ZM170.853,339.905C171.37,339.905 171.735,339.786 171.948,339.547C172.162,339.307 172.269,338.904 172.269,338.336C172.269,338.029 172.245,337.766 172.198,337.548C172.155,337.33 172.085,337.153 171.987,337.017C171.893,336.88 171.769,336.78 171.615,336.716C171.466,336.651 171.286,336.619 171.077,336.619L170.853,336.619L170.853,339.905Z" style="fill-rule:nonzero;"/>
            <path id="path1734" d="M175.055,335.524L178.597,335.524L178.597,336.651L176.387,336.651L176.387,339.784L178.347,339.784L178.347,340.911L176.387,340.911L176.387,344.286L178.597,344.286L178.597,345.414L175.055,345.414L175.055,335.524Z" style="fill-rule:nonzero;"/>
            <path id="path1736" d="M179.032,335.524L180.346,335.524L180.941,339.175L181.044,339.835L181.255,341.27C181.289,341.513 181.319,341.735 181.345,341.936C181.375,342.136 181.4,342.318 181.422,342.48L181.486,342.967C181.499,342.869 181.509,342.781 181.518,342.704C181.526,342.628 181.535,342.563 181.544,342.512L181.716,341.366L181.941,339.86C181.962,339.724 181.981,339.598 181.998,339.483C182.02,339.367 182.039,339.265 182.056,339.175L182.696,335.524L183.939,335.524L181.998,345.414L180.941,345.414L179.032,335.524Z" style="fill-rule:nonzero;"/>
        </g>
        <g id="text1933" transform="matrix(0.966303,0,0,1.03487,0,2.64881)">
            <path id="path2004" d="M6.991,320.466L6.991,321.607C6.665,321.449 6.393,321.369 6.173,321.369C5.872,321.369 5.614,321.444 5.398,321.595C5.183,321.741 5.004,321.969 4.862,322.278C4.723,322.587 4.62,322.98 4.55,323.456C4.485,323.927 4.453,324.487 4.453,325.133C4.453,327.459 5.049,328.623 6.24,328.623C6.448,328.623 6.698,328.558 6.991,328.427L6.991,329.593C6.686,329.763 6.344,329.849 5.966,329.849C4.058,329.849 3.105,328.291 3.105,325.176C3.105,323.492 3.336,322.24 3.8,321.418C4.268,320.597 4.982,320.186 5.941,320.186C6.295,320.186 6.645,320.279 6.991,320.466L6.991,320.466Z" style="fill-rule:nonzero;"/>
            <path id="path2006" d="M12.694,325.255C12.694,326.919 12.509,328.1 12.139,328.8C11.769,329.499 11.149,329.849 10.279,329.849C9.364,329.849 8.719,329.473 8.345,328.72C7.975,327.984 7.79,326.677 7.79,324.798C7.79,323.122 7.973,321.937 8.339,321.241C8.709,320.542 9.335,320.192 10.218,320.192C11.007,320.192 11.592,320.462 11.975,321.003C12.227,321.365 12.41,321.88 12.524,322.547C12.638,323.165 12.694,324.068 12.694,325.255L12.694,325.255ZM11.365,325.389C11.365,323.759 11.291,322.677 11.145,322.144C10.999,321.607 10.7,321.339 10.248,321.339C9.797,321.339 9.496,321.585 9.345,322.077C9.199,322.573 9.126,323.569 9.126,325.066C9.126,326.445 9.203,327.401 9.358,327.933C9.516,328.438 9.813,328.69 10.248,328.69C10.675,328.69 10.968,328.454 11.127,327.982C11.285,327.514 11.365,326.65 11.365,325.389L11.365,325.389Z" style="fill-rule:nonzero;"/>
            <path id="path2008" d="M13.957,320.314L15.202,320.314L15.202,326.969C15.202,327.649 15.263,328.1 15.385,328.324C15.511,328.547 15.759,328.659 16.129,328.659C16.499,328.659 16.743,328.562 16.861,328.366C16.983,328.167 17.044,327.762 17.044,327.152L17.044,320.314L18.289,320.314L18.289,327.152C18.289,328.177 18.132,328.871 17.819,329.233C17.445,329.643 16.873,329.849 16.105,329.849C15.259,329.849 14.663,329.584 14.317,329.056C14.077,328.694 13.957,327.998 13.957,326.969L13.957,320.314Z" style="fill-rule:nonzero;"/>
            <path id="path2010" d="M19.74,320.314L20.924,320.314L22.187,324.072C22.553,325.133 22.876,326.266 23.157,327.47C23.055,326.742 22.98,326.083 22.931,325.493C22.882,324.903 22.858,324.348 22.858,323.828L22.858,320.314L24.133,320.314L24.133,329.733L22.943,329.733L21.522,325.493C21.392,325.099 21.268,324.694 21.15,324.279C21.036,323.864 20.93,323.429 20.832,322.974C20.824,322.917 20.81,322.848 20.79,322.766C20.773,322.685 20.753,322.591 20.729,322.486C20.741,322.591 20.751,322.683 20.759,322.76C20.767,322.833 20.773,322.896 20.777,322.949L20.845,323.907L20.912,325.072C20.916,325.137 20.918,325.217 20.918,325.31C20.922,325.404 20.924,325.509 20.924,325.627L20.991,329.733L19.74,329.733L19.74,320.314Z" style="fill-rule:nonzero;"/>
            <path id="path2012" d="M24.846,320.314L28.976,320.314L28.976,321.424L27.555,321.424L27.555,329.733L26.311,329.733L26.311,321.424L24.846,321.424L24.846,320.314Z" style="fill-rule:nonzero;"/>
        </g>
        <g id="text1937" transform="matrix(0.830238,0,0,1.20447,0,2.00002)">
            <path id="path1989" d="M6.952,290.824L6.952,291.805C6.673,291.668 6.439,291.6 6.25,291.6C5.991,291.6 5.769,291.665 5.584,291.794C5.399,291.92 5.245,292.115 5.123,292.381C5.004,292.647 4.915,292.984 4.856,293.393C4.8,293.798 4.772,294.278 4.772,294.834C4.772,296.833 5.284,297.832 6.308,297.832C6.486,297.832 6.701,297.776 6.952,297.664L6.952,298.665C6.69,298.812 6.397,298.886 6.072,298.886C4.433,298.886 3.613,297.547 3.613,294.871C3.613,293.424 3.813,292.348 4.211,291.642C4.613,290.936 5.226,290.583 6.051,290.583C6.355,290.583 6.655,290.664 6.952,290.824L6.952,290.824Z" style="fill-rule:nonzero;"/>
            <path id="path1991" d="M7.864,290.693L8.933,290.693L8.933,296.412C8.933,296.995 8.986,297.383 9.091,297.575C9.199,297.767 9.412,297.864 9.73,297.864C10.048,297.864 10.258,297.78 10.359,297.612C10.464,297.441 10.516,297.093 10.516,296.569L10.516,290.693L11.586,290.693L11.586,296.569C11.586,297.449 11.451,298.045 11.182,298.356C10.861,298.709 10.37,298.886 9.709,298.886C8.982,298.886 8.47,298.659 8.173,298.204C7.967,297.893 7.864,297.296 7.864,296.412L7.864,290.693Z" style="fill-rule:nonzero;"/>
            <path id="path1993" d="M12.833,290.693L14.269,290.693C14.863,290.693 15.305,290.835 15.595,291.118C15.962,291.485 16.146,292.046 16.146,292.8C16.146,293.38 16.048,293.847 15.852,294.2C15.66,294.549 15.384,294.766 15.024,294.85L16.513,298.786L15.407,298.786L13.923,294.824L13.923,298.786L12.833,298.786L12.833,290.693ZM13.923,294.278C14.346,294.278 14.645,294.181 14.82,293.985C14.994,293.789 15.082,293.459 15.082,292.994C15.082,292.743 15.062,292.528 15.024,292.35C14.989,292.171 14.931,292.026 14.851,291.915C14.774,291.803 14.673,291.721 14.547,291.668C14.425,291.616 14.278,291.59 14.107,291.59L13.923,291.59L13.923,294.278Z" style="fill-rule:nonzero;"/>
            <path id="path1995" d="M17.362,290.693L18.798,290.693C19.392,290.693 19.834,290.835 20.124,291.118C20.491,291.485 20.674,292.046 20.674,292.8C20.674,293.38 20.576,293.847 20.381,294.2C20.188,294.549 19.912,294.766 19.553,294.85L21.041,298.786L19.935,298.786L18.452,294.824L18.452,298.786L17.362,298.786L17.362,290.693ZM18.452,294.278C18.875,294.278 19.173,294.181 19.348,293.985C19.523,293.789 19.61,293.459 19.61,292.994C19.61,292.743 19.591,292.528 19.553,292.35C19.518,292.171 19.46,292.026 19.38,291.915C19.303,291.803 19.201,291.721 19.076,291.668C18.953,291.616 18.806,291.59 18.635,291.59L18.452,291.59L18.452,294.278Z" style="fill-rule:nonzero;"/>
            <path id="path1997" d="M21.89,290.693L24.789,290.693L24.789,291.616L22.98,291.616L22.98,294.179L24.584,294.179L24.584,295.101L22.98,295.101L22.98,297.864L24.789,297.864L24.789,298.786L21.89,298.786L21.89,290.693Z" style="fill-rule:nonzero;"/>
            <path id="path1999" d="M25.79,290.693L26.807,290.693L27.892,293.922C28.206,294.834 28.484,295.807 28.725,296.842C28.638,296.216 28.573,295.65 28.531,295.143C28.489,294.637 28.468,294.16 28.468,293.712L28.468,290.693L29.564,290.693L29.564,298.786L28.542,298.786L27.32,295.143C27.208,294.804 27.102,294.457 27.001,294.1C26.903,293.744 26.812,293.37 26.728,292.979C26.721,292.93 26.709,292.87 26.691,292.8C26.677,292.73 26.66,292.65 26.639,292.559C26.649,292.65 26.658,292.729 26.665,292.795C26.672,292.858 26.677,292.912 26.681,292.958L26.738,293.781L26.796,294.782C26.8,294.838 26.801,294.906 26.801,294.986C26.805,295.066 26.807,295.157 26.807,295.259L26.864,298.786L25.79,298.786L25.79,290.693Z" style="fill-rule:nonzero;"/>
            <path id="path2001" d="M30.177,290.693L33.725,290.693L33.725,291.647L32.504,291.647L32.504,298.786L31.435,298.786L31.435,291.647L30.177,291.647L30.177,290.693Z" style="fill-rule:nonzero;"/>
        </g>
        <g id="text2021" transform="matrix(0.741849,0,0,1.01099,12.5,-4)">
            <path id="path2023" d="M70.769,352.262L72.068,352.262L72.068,360.805L74.191,360.805L74.191,361.904L70.769,361.904L70.769,352.262Z" style="fill-rule:nonzero;"/>
            <path id="path2025" d="M79.842,357.32C79.842,359.023 79.653,360.232 79.274,360.948C78.895,361.664 78.26,362.022 77.37,362.022C76.433,362.022 75.773,361.637 75.39,360.867C75.011,360.113 74.822,358.775 74.822,356.852C74.822,355.137 75.009,353.923 75.384,353.211C75.763,352.495 76.404,352.137 77.307,352.137C78.115,352.137 78.714,352.414 79.106,352.968C79.364,353.338 79.551,353.865 79.668,354.548C79.784,355.18 79.842,356.105 79.842,357.32L79.842,357.32ZM78.481,357.457C78.481,355.788 78.406,354.681 78.256,354.135C78.106,353.586 77.8,353.311 77.338,353.311C76.876,353.311 76.568,353.563 76.414,354.067C76.264,354.575 76.189,355.595 76.189,357.127C76.189,358.538 76.268,359.516 76.427,360.061C76.589,360.578 76.893,360.836 77.338,360.836C77.775,360.836 78.075,360.594 78.238,360.111C78.4,359.633 78.481,358.748 78.481,357.457L78.481,357.457Z" style="fill-rule:nonzero;"/>
            <path id="path2027" d="M82.484,352.262L83.495,352.262L85.562,361.904L84.276,361.904L83.914,360.024L82.003,360.024L81.635,361.904L80.386,361.904L82.484,352.262ZM83.727,359.019L83.439,357.482C83.248,356.438 83.092,355.322 82.971,354.135C82.913,354.714 82.838,355.301 82.746,355.896C82.655,356.488 82.546,357.116 82.421,357.782L82.184,359.019L83.727,359.019Z" style="fill-rule:nonzero;"/>
            <path id="path2029" d="M86.33,352.262L87.929,352.262C88.416,352.262 88.826,352.316 89.159,352.424C89.467,352.529 89.742,352.714 89.984,352.98C90.346,353.38 90.604,353.9 90.758,354.541C90.912,355.162 90.989,356.05 90.989,357.208C90.989,358.269 90.904,359.135 90.733,359.805C90.566,360.447 90.292,360.936 89.909,361.273C89.438,361.693 88.595,361.904 87.38,361.904L86.33,361.904L86.33,352.262ZM87.629,360.767C88.42,360.767 88.949,360.528 89.215,360.049C89.49,359.57 89.628,358.64 89.628,357.258C89.628,355.771 89.496,354.749 89.234,354.192C88.972,353.634 88.491,353.355 87.792,353.355L87.629,353.355L87.629,360.767Z" style="fill-rule:nonzero;"/>
        </g>
        <g id="text2140" transform="matrix(0.660793,0,0,1.13499,12.5006,-5)">
            <path id="path2142" d="M82.57,298.977L82.57,300.106C82.217,299.854 81.9,299.728 81.618,299.728C81.314,299.728 81.066,299.835 80.873,300.05C80.68,300.254 80.584,300.527 80.584,300.868C80.584,301.168 80.652,301.426 80.79,301.641C80.86,301.756 80.975,301.904 81.134,302.086C81.298,302.268 81.507,302.487 81.763,302.742C82.234,303.221 82.555,303.634 82.725,303.983C82.896,304.32 82.981,304.734 82.981,305.223C82.981,305.887 82.794,306.434 82.419,306.864C82.045,307.283 81.565,307.493 80.979,307.493C80.485,307.493 80.065,307.357 79.716,307.087L79.716,305.941C80.128,306.241 80.502,306.391 80.84,306.391C81.155,306.391 81.401,306.287 81.579,306.08C81.757,305.868 81.846,305.583 81.846,305.223C81.846,304.912 81.778,304.632 81.641,304.383C81.57,304.265 81.472,304.129 81.346,303.977C81.22,303.822 81.062,303.649 80.873,303.46C80.58,303.171 80.337,302.915 80.144,302.692C79.951,302.47 79.809,302.275 79.716,302.108C79.538,301.782 79.449,301.37 79.449,300.874C79.449,300.202 79.623,299.67 79.972,299.277C80.324,298.88 80.797,298.682 81.39,298.682C81.802,298.682 82.195,298.78 82.569,298.977L82.57,298.977Z" style="fill-rule:nonzero;"/>
            <path id="path2144" d="M83.955,298.799L87.03,298.799L87.03,299.778L85.111,299.778L85.111,302.498L86.814,302.498L86.814,303.477L85.111,303.477L85.111,306.408L87.03,306.408L87.03,307.387L83.955,307.387L83.955,298.799Z" style="fill-rule:nonzero;"/>
            <path id="path2146" d="M88.093,298.799L89.25,298.799L89.25,306.408L91.141,306.408L91.141,307.387L88.093,307.387L88.093,298.799Z" style="fill-rule:nonzero;"/>
            <path id="path2148" d="M97.604,298.938L97.604,299.978C97.308,299.833 97.059,299.761 96.859,299.761C96.585,299.761 96.349,299.83 96.153,299.967C95.956,300.1 95.793,300.308 95.663,300.59C95.537,300.872 95.442,301.229 95.379,301.663C95.32,302.093 95.29,302.603 95.29,303.193C95.29,305.314 95.834,306.375 96.92,306.375C97.109,306.375 97.337,306.315 97.604,306.197L97.604,307.259C97.326,307.415 97.015,307.493 96.67,307.493C94.931,307.493 94.061,306.072 94.061,303.232C94.061,301.697 94.273,300.555 94.695,299.806C95.122,299.056 95.773,298.682 96.648,298.682C96.97,298.682 97.289,298.767 97.604,298.938L97.604,298.938Z" style="fill-rule:nonzero;"/>
            <path id="path2150" d="M97.888,298.799L99.028,298.799L99.546,301.969L99.635,302.542L99.818,303.788C99.848,304 99.874,304.192 99.896,304.367C99.922,304.541 99.944,304.699 99.963,304.839L100.018,305.262C100.03,305.177 100.039,305.101 100.046,305.034C100.054,304.967 100.061,304.912 100.069,304.867L100.219,303.872L100.414,302.564C100.432,302.446 100.449,302.336 100.464,302.236C100.482,302.136 100.499,302.047 100.514,301.969L101.07,298.799L102.149,298.799L100.464,307.387L99.546,307.387L97.888,298.799Z" style="fill-rule:nonzero;"/>
        </g>
        <g id="text2159" transform="matrix(1.10655,0,0,0.969695,-1.40134,-27.9083)">
            <path id="path2161" d="M108.953,330.32L108.953,331.906C108.459,331.552 108.013,331.375 107.617,331.375C107.19,331.375 106.841,331.526 106.571,331.828C106.3,332.114 106.164,332.497 106.164,332.976C106.164,333.398 106.261,333.76 106.453,334.062C106.552,334.224 106.714,334.432 106.938,334.687C107.167,334.942 107.461,335.25 107.821,335.609C108.482,336.281 108.933,336.862 109.172,337.351C109.412,337.825 109.531,338.406 109.531,339.094C109.531,340.026 109.268,340.794 108.742,341.398C108.216,341.987 107.542,342.281 106.719,342.281C106.026,342.281 105.435,342.091 104.946,341.711L104.946,340.101C105.524,340.523 106.05,340.734 106.524,340.734C106.966,340.734 107.313,340.588 107.563,340.297C107.813,340 107.938,339.599 107.938,339.094C107.938,338.656 107.841,338.263 107.649,337.914C107.55,337.747 107.412,337.557 107.235,337.344C107.058,337.125 106.836,336.883 106.571,336.617C106.159,336.211 105.818,335.851 105.547,335.539C105.276,335.226 105.076,334.953 104.946,334.719C104.696,334.26 104.571,333.682 104.571,332.984C104.571,332.041 104.815,331.294 105.305,330.742C105.8,330.185 106.464,329.906 107.297,329.906C107.875,329.906 108.427,330.044 108.953,330.32L108.953,330.32Z" style="fill:rgb(158,161,168);fill-rule:nonzero;"/>
            <path id="path2163" d="M115.633,330.265L115.633,331.726C115.216,331.523 114.867,331.422 114.586,331.422C114.201,331.422 113.87,331.518 113.594,331.711C113.318,331.898 113.089,332.19 112.906,332.586C112.729,332.982 112.597,333.484 112.508,334.094C112.425,334.698 112.383,335.414 112.383,336.242C112.383,339.221 113.146,340.711 114.672,340.711C114.938,340.711 115.258,340.627 115.633,340.461L115.633,341.953C115.242,342.172 114.805,342.281 114.321,342.281C111.878,342.281 110.656,340.286 110.656,336.297C110.656,334.14 110.953,332.536 111.547,331.484C112.146,330.432 113.06,329.906 114.289,329.906C114.742,329.906 115.19,330.026 115.633,330.265L115.633,330.265Z" style="fill:rgb(158,161,168);fill-rule:nonzero;"/>
            <path id="path2165" d="M116.992,330.07L121.313,330.07L121.313,331.445L118.617,331.445L118.617,335.265L121.008,335.265L121.008,336.64L118.617,336.64L118.617,340.758L121.313,340.758L121.313,342.133L116.992,342.133L116.992,330.07Z" style="fill:rgb(158,161,168);fill-rule:nonzero;"/>
            <path id="path2167" d="M122.805,330.07L124.321,330.07L125.938,334.883C126.406,336.242 126.821,337.692 127.18,339.234C127.05,338.302 126.953,337.458 126.891,336.703C126.828,335.948 126.797,335.237 126.797,334.57L126.797,330.07L128.43,330.07L128.43,342.133L126.906,342.133L125.086,336.703C124.92,336.198 124.761,335.679 124.61,335.148C124.464,334.617 124.328,334.06 124.203,333.476C124.193,333.403 124.175,333.315 124.149,333.211C124.128,333.107 124.102,332.987 124.071,332.851C124.086,332.987 124.099,333.104 124.11,333.203C124.12,333.297 124.128,333.377 124.133,333.445L124.219,334.672L124.305,336.164C124.31,336.247 124.313,336.349 124.313,336.469C124.318,336.588 124.321,336.724 124.321,336.875L124.407,342.133L122.805,342.133L122.805,330.07Z" style="fill:rgb(158,161,168);fill-rule:nonzero;"/>
            <path id="path2169" d="M130.305,330.07L134.625,330.07L134.625,331.445L131.93,331.445L131.93,335.265L134.321,335.265L134.321,336.64L131.93,336.64L131.93,340.758L134.625,340.758L134.625,342.133L130.305,342.133L130.305,330.07Z" style="fill:rgb(158,161,168);fill-rule:nonzero;"/>
            <path id="path2171" d="M140.141,330.32L140.141,331.906C139.646,331.552 139.201,331.375 138.805,331.375C138.378,331.375 138.029,331.526 137.758,331.828C137.487,332.114 137.352,332.497 137.352,332.976C137.352,333.398 137.448,333.76 137.641,334.062C137.74,334.224 137.901,334.432 138.125,334.687C138.354,334.942 138.649,335.25 139.008,335.609C139.669,336.281 140.12,336.862 140.36,337.351C140.599,337.825 140.719,338.406 140.719,339.094C140.719,340.026 140.456,340.794 139.93,341.398C139.404,341.987 138.729,342.281 137.906,342.281C137.214,342.281 136.623,342.091 136.133,341.711L136.133,340.101C136.711,340.523 137.237,340.734 137.711,340.734C138.154,340.734 138.5,340.588 138.75,340.297C139,340 139.125,339.599 139.125,339.094C139.125,338.656 139.029,338.263 138.836,337.914C138.737,337.747 138.599,337.557 138.422,337.344C138.245,337.125 138.024,336.883 137.758,336.617C137.347,336.211 137.005,335.851 136.735,335.539C136.464,335.226 136.263,334.953 136.133,334.719C135.883,334.26 135.758,333.682 135.758,332.984C135.758,332.041 136.003,331.294 136.492,330.742C136.987,330.185 137.651,329.906 138.485,329.906C139.063,329.906 139.615,330.044 140.141,330.32L140.141,330.32Z" style="fill:rgb(158,161,168);fill-rule:nonzero;"/>
        </g>
        <g id="text80" transform="matrix(1.00498,0,0,0.995044,89.3112,7.74127)">
            <path id="path4726" d="M29.851,371.706L29.851,363.943L31.853,363.943L32.903,366.668C32.96,366.829 33.024,367.013 33.094,367.221C33.168,367.429 33.249,367.668 33.336,367.94L33.552,368.624C33.475,367.95 33.416,367.373 33.376,366.894C33.336,366.415 33.316,366.013 33.316,365.687L33.316,363.943L35.317,363.943L35.317,371.706L33.316,371.706L32.26,368.85C32.149,368.545 32.049,368.26 31.958,367.995C31.871,367.727 31.794,367.472 31.727,367.231C31.77,367.777 31.802,368.253 31.822,368.659C31.843,369.065 31.853,369.42 31.853,369.725L31.853,371.706L29.851,371.706Z" style="fill:rgb(158,161,168);fill-rule:nonzero;"/>
            <path id="path4728" d="M39.887,371.706L37.791,371.706L37.791,368.418L35.865,363.943L38.052,363.943L38.429,365.094C38.503,365.319 38.568,365.535 38.625,365.743C38.686,365.951 38.739,366.15 38.786,366.341C38.863,366.056 38.93,365.811 38.987,365.607C39.044,365.399 39.095,365.232 39.138,365.104L39.52,363.943L41.692,363.943L39.887,368.418L39.887,371.706Z" style="fill:rgb(158,161,168);fill-rule:nonzero;"/>
            <path id="path4730" d="M41.894,371.515L41.894,369.076C42.306,369.639 42.752,369.921 43.231,369.921C43.412,369.921 43.56,369.874 43.673,369.78C43.787,369.683 43.844,369.562 43.844,369.418C43.844,369.21 43.72,369.008 43.472,368.81L43.13,368.543C42.902,368.372 42.708,368.203 42.547,368.035C42.386,367.865 42.256,367.69 42.155,367.513C42.054,367.332 41.981,367.146 41.934,366.954C41.887,366.763 41.863,366.562 41.863,366.351C41.863,365.989 41.947,365.61 42.115,365.215C42.199,365.03 42.296,364.863 42.406,364.712C42.517,364.558 42.644,364.422 42.789,364.305C43.184,363.969 43.662,363.802 44.222,363.802C44.721,363.802 45.224,363.934 45.73,364.199L45.73,366.572C45.559,366.308 45.365,366.1 45.147,365.949C44.929,365.795 44.714,365.718 44.503,365.718C44.342,365.718 44.21,365.765 44.106,365.858C43.999,365.949 43.945,366.058 43.945,366.185C43.945,366.393 44.087,366.599 44.372,366.804L44.704,367.05C45.147,367.368 45.463,367.695 45.655,368.03C45.849,368.366 45.946,368.758 45.946,369.207C45.946,369.971 45.713,370.601 45.247,371.098C44.781,371.594 44.191,371.842 43.477,371.842C42.985,371.842 42.457,371.733 41.894,371.515L41.894,371.515Z" style="fill:rgb(158,161,168);fill-rule:nonzero;"/>
            <path id="path4732" d="M49.576,371.706L47.48,371.706L47.48,365.803L46.323,365.803L46.323,363.943L50.778,363.943L50.778,365.803L49.576,365.803L49.576,371.706Z" style="fill:rgb(158,161,168);fill-rule:nonzero;"/>
            <path id="path4734" d="M56.525,371.706L54.428,371.706L54.428,368.584L53.428,368.584L53.428,371.706L51.331,371.706L51.331,363.943L53.428,363.943L53.428,366.688L54.428,366.688L54.428,363.943L56.525,363.943L56.525,371.706Z" style="fill:rgb(158,161,168);fill-rule:nonzero;"/>
            <rect id="path4736" x="57.606" y="363.943" width="2.097" height="7.763" style="fill:rgb(158,161,168);fill-rule:nonzero;"/>
        </g>
        <g id="text2302" transform="matrix(0.757513,0,0,1.05609,23.0001,-4)">
            <path id="path2304" d="M128.739,337.333L129.707,337.333L131.686,346.562L130.455,346.562L130.108,344.763L128.279,344.763L127.926,346.562L126.73,346.562L128.739,337.333ZM129.929,343.801L129.654,342.33C129.47,341.33 129.321,340.262 129.205,339.126C129.149,339.68 129.078,340.242 128.99,340.812C128.902,341.378 128.799,341.979 128.679,342.617L128.452,343.801L129.929,343.801Z" style="fill-rule:nonzero;"/>
            <path id="path2306" d="M132.421,337.333L133.952,337.333C134.418,337.333 134.811,337.384 135.129,337.488C135.424,337.588 135.687,337.765 135.918,338.02C136.265,338.403 136.512,338.901 136.66,339.514C136.807,340.108 136.881,340.959 136.881,342.067C136.881,343.083 136.799,343.912 136.636,344.554C136.476,345.167 136.213,345.636 135.847,345.959C135.396,346.361 134.589,346.562 133.426,346.562L132.421,346.562L132.421,337.333ZM133.665,345.474C134.422,345.474 134.928,345.245 135.183,344.787C135.446,344.329 135.578,343.438 135.578,342.115C135.578,340.692 135.452,339.714 135.201,339.18C134.95,338.646 134.49,338.379 133.82,338.379L133.665,338.379L133.665,345.474Z" style="fill-rule:nonzero;"/>
            <path id="path2308" d="M138.112,337.333L139.643,337.333C140.109,337.333 140.501,337.384 140.82,337.488C141.115,337.588 141.378,337.765 141.609,338.02C141.956,338.403 142.203,338.901 142.351,339.514C142.498,340.108 142.572,340.959 142.572,342.067C142.572,343.083 142.49,343.912 142.327,344.554C142.167,345.167 141.904,345.636 141.538,345.959C141.087,346.361 140.28,346.562 139.117,346.562L138.112,346.562L138.112,337.333ZM139.356,345.474C140.113,345.474 140.619,345.245 140.874,344.787C141.137,344.329 141.269,343.438 141.269,342.115C141.269,340.692 141.143,339.714 140.892,339.18C140.641,338.646 140.181,338.379 139.511,338.379L139.356,338.379L139.356,345.474Z" style="fill-rule:nonzero;"/>
        </g>
        <g id="text1032" transform="matrix(0.842348,0,0,1.18716,1.00002,-4)">
            <path id="path1062" d="M124.652,284.825L128.252,284.825L128.252,285.793L127.013,285.793L127.013,293.036L125.928,293.036L125.928,285.793L124.652,285.793L124.652,284.825Z" style="fill-rule:nonzero;"/>
            <path id="path1064" d="M133.054,289.133C133.054,290.583 132.892,291.613 132.57,292.222C132.247,292.832 131.707,293.137 130.948,293.137C130.15,293.137 129.588,292.809 129.262,292.153C128.94,291.512 128.778,290.372 128.778,288.734C128.778,287.273 128.938,286.24 129.257,285.634C129.579,285.024 130.125,284.719 130.895,284.719C131.582,284.719 132.093,284.955 132.426,285.426C132.646,285.742 132.806,286.19 132.905,286.772C133.004,287.311 133.054,288.098 133.054,289.133L133.054,289.133ZM131.894,289.25C131.894,287.828 131.831,286.885 131.703,286.421C131.575,285.953 131.315,285.719 130.921,285.719C130.528,285.719 130.265,285.933 130.134,286.362C130.007,286.795 129.943,287.663 129.943,288.968C129.943,290.17 130.01,291.003 130.145,291.467C130.283,291.907 130.542,292.127 130.921,292.127C131.294,292.127 131.549,291.921 131.687,291.51C131.825,291.102 131.894,290.349 131.894,289.25L131.894,289.25Z" style="fill-rule:nonzero;"/>
            <path id="path1066" d="M136.409,284.825L139.366,284.825L139.366,285.761L137.515,285.761L137.515,288.356L139.185,288.356L139.185,289.292L137.515,289.292L137.515,293.036L136.409,293.036L136.409,284.825Z" style="fill-rule:nonzero;"/>
            <rect id="path1068" x="140.217" y="284.825" width="1.106" height="8.211" style="fill-rule:nonzero;"/>
            <path id="path1070" d="M142.599,284.825L144.056,284.825C144.659,284.825 145.108,284.969 145.402,285.256C145.774,285.628 145.96,286.197 145.96,286.963C145.96,287.552 145.861,288.025 145.662,288.383C145.467,288.737 145.187,288.957 144.822,289.042L146.332,293.036L145.21,293.036L143.705,289.016L143.705,293.036L142.599,293.036L142.599,284.825ZM143.705,288.463C144.134,288.463 144.437,288.363 144.615,288.165C144.792,287.966 144.881,287.631 144.881,287.16C144.881,286.905 144.861,286.687 144.822,286.506C144.787,286.325 144.728,286.178 144.647,286.064C144.569,285.951 144.466,285.868 144.338,285.814C144.214,285.761 144.065,285.735 143.892,285.735L143.705,285.735L143.705,288.463Z" style="fill-rule:nonzero;"/>
            <path id="path1072" d="M149.933,284.995L149.933,286.075C149.596,285.834 149.293,285.713 149.023,285.713C148.733,285.713 148.495,285.816 148.311,286.022C148.126,286.217 148.034,286.477 148.034,286.804C148.034,287.091 148.1,287.337 148.231,287.543C148.298,287.653 148.408,287.794 148.561,287.968C148.717,288.142 148.917,288.351 149.162,288.596C149.612,289.053 149.918,289.448 150.082,289.782C150.245,290.104 150.326,290.499 150.326,290.967C150.326,291.602 150.147,292.125 149.789,292.536C149.431,292.937 148.972,293.137 148.412,293.137C147.94,293.137 147.538,293.008 147.205,292.749L147.205,291.653C147.598,291.941 147.956,292.084 148.279,292.084C148.58,292.084 148.816,291.985 148.986,291.786C149.156,291.584 149.241,291.311 149.241,290.967C149.241,290.67 149.176,290.402 149.045,290.164C148.977,290.051 148.883,289.922 148.763,289.776C148.642,289.627 148.491,289.463 148.311,289.282C148.031,289.005 147.798,288.761 147.614,288.548C147.43,288.335 147.293,288.149 147.205,287.989C147.034,287.677 146.949,287.284 146.949,286.809C146.949,286.167 147.116,285.658 147.449,285.283C147.786,284.903 148.238,284.714 148.805,284.714C149.199,284.714 149.575,284.808 149.933,284.995L149.933,284.995Z" style="fill-rule:nonzero;"/>
            <path id="path1074" d="M150.73,284.825L154.33,284.825L154.33,285.793L153.091,285.793L153.091,293.036L152.007,293.036L152.007,285.793L150.73,285.793L150.73,284.825Z" style="fill-rule:nonzero;"/>
        </g>
        <g id="text1036" transform="matrix(0.840168,0,0,1.19024,10.4697,-40)">
            <path id="path1055" d="M191.069,299.312L192.427,299.312C192.841,299.312 193.189,299.358 193.472,299.45C193.734,299.538 193.967,299.696 194.172,299.922C194.48,300.261 194.699,300.703 194.83,301.248C194.961,301.775 195.026,302.53 195.026,303.513C195.026,304.415 194.954,305.15 194.809,305.719C194.667,306.264 194.434,306.679 194.109,306.966C193.709,307.323 192.993,307.501 191.96,307.501L191.069,307.501L191.069,299.312ZM192.173,306.536C192.844,306.536 193.293,306.333 193.52,305.926C193.753,305.52 193.87,304.729 193.87,303.555C193.87,302.293 193.758,301.425 193.536,300.951C193.313,300.477 192.905,300.24 192.31,300.24L192.173,300.24L192.173,306.536Z" style="fill-rule:nonzero;"/>
            <path id="path1057" d="M196.119,299.312L199.052,299.312L199.052,300.245L197.222,300.245L197.222,302.839L198.845,302.839L198.845,303.773L197.222,303.773L197.222,306.568L199.052,306.568L199.052,307.501L196.119,307.501L196.119,299.312Z" style="fill-rule:nonzero;"/>
            <path id="path1059" d="M200.065,299.312L201.168,299.312L201.168,306.568L202.972,306.568L202.972,307.501L200.065,307.501L200.065,299.312Z" style="fill-rule:nonzero;"/>
        </g>
        <g id="text1040" transform="matrix(0.698918,0,0,1.43078,5.00002,-40)">
            <path id="path1042" d="M306.187,248.991L307.317,248.991C307.661,248.991 307.951,249.03 308.186,249.106C308.404,249.18 308.598,249.311 308.769,249.499C309.025,249.781 309.207,250.149 309.316,250.602C309.425,251.04 309.479,251.668 309.479,252.486C309.479,253.236 309.419,253.848 309.298,254.322C309.18,254.775 308.986,255.12 308.716,255.358C308.383,255.656 307.788,255.804 306.929,255.804L306.187,255.804L306.187,248.991ZM307.105,255.001C307.664,255.001 308.038,254.832 308.226,254.494C308.42,254.155 308.517,253.498 308.517,252.521C308.517,251.471 308.424,250.749 308.239,250.355C308.054,249.961 307.714,249.764 307.22,249.764L307.105,249.764L307.105,255.001Z" style="fill-rule:nonzero;"/>
            <path id="path1044" d="M310.388,248.991L312.828,248.991L312.828,249.768L311.306,249.768L311.306,251.926L312.656,251.926L312.656,252.702L311.306,252.702L311.306,255.028L312.828,255.028L312.828,255.804L310.388,255.804L310.388,248.991Z" style="fill-rule:nonzero;"/>
            <path id="path1046" d="M313.671,248.991L314.589,248.991L314.589,255.028L316.089,255.028L316.089,255.804L313.671,255.804L313.671,248.991Z" style="fill-rule:nonzero;"/>
            <path id="path1048" d="M319.513,248.991L320.228,248.991L321.688,255.804L320.779,255.804L320.523,254.476L319.173,254.476L318.913,255.804L318.03,255.804L319.513,248.991ZM320.391,253.766L320.188,252.68C320.053,251.942 319.942,251.153 319.857,250.315C319.816,250.724 319.763,251.139 319.698,251.559C319.633,251.977 319.557,252.421 319.469,252.892L319.301,253.766L320.391,253.766Z" style="fill-rule:nonzero;"/>
            <path id="path1050" d="M322.231,248.991L323.149,248.991L323.149,255.028L324.649,255.028L324.649,255.804L322.231,255.804L322.231,248.991Z" style="fill-rule:nonzero;"/>
            <path id="path1052" d="M325.231,248.991L326.149,248.991L326.149,255.028L327.649,255.028L327.649,255.804L325.231,255.804L325.231,248.991Z" style="fill-rule:nonzero;"/>
        </g>
        <g id="text1048" transform="matrix(0.61412,0,0,1.22126,45.6222,-4)">
            <path id="path1053" d="M196.017,291.611L197.071,291.611L197.071,297.25C197.071,297.826 197.123,298.208 197.226,298.398C197.333,298.588 197.544,298.682 197.857,298.682C198.171,298.682 198.378,298.6 198.477,298.434C198.581,298.265 198.633,297.922 198.633,297.406L198.633,291.611L199.687,291.611L199.687,297.406C199.687,298.274 199.554,298.862 199.289,299.168C198.972,299.516 198.488,299.69 197.836,299.69C197.12,299.69 196.615,299.466 196.322,299.018C196.119,298.712 196.017,298.122 196.017,297.25L196.017,291.611Z" style="fill-rule:nonzero;"/>
            <path id="path1056" d="M200.917,291.611L202.334,291.611C203.016,291.611 203.512,291.783 203.823,292.128C204.133,292.476 204.288,293.027 204.288,293.782C204.288,294.843 203.976,295.529 203.352,295.839C203.039,295.98 202.585,296.051 201.993,296.051L201.993,299.592L200.917,299.592L200.917,291.611ZM201.993,295.131C202.437,295.131 202.744,295.041 202.913,294.862C203.085,294.68 203.171,294.356 203.171,293.89C203.171,293.415 203.089,293.067 202.923,292.846C202.758,292.626 202.498,292.515 202.143,292.515L201.993,292.515L201.993,295.131Z" style="fill-rule:nonzero;"/>
            <path id="path1058" d="M205.115,291.611L206.438,291.611C206.841,291.611 207.181,291.655 207.457,291.745C207.712,291.831 207.939,291.985 208.139,292.205C208.439,292.536 208.652,292.967 208.78,293.497C208.908,294.011 208.971,294.747 208.971,295.705C208.971,296.584 208.901,297.3 208.759,297.855C208.621,298.386 208.394,298.791 208.077,299.07C207.688,299.418 206.99,299.592 205.983,299.592L205.115,299.592L205.115,291.611ZM206.19,298.651C206.845,298.651 207.283,298.453 207.503,298.057C207.731,297.661 207.844,296.89 207.844,295.746C207.844,294.516 207.736,293.67 207.519,293.208C207.302,292.746 206.903,292.515 206.325,292.515L206.19,292.515L206.19,298.651Z" style="fill-rule:nonzero;"/>
            <path id="path1060" d="M211.111,291.611L211.949,291.611L213.66,299.592L212.595,299.592L212.295,298.036L210.713,298.036L210.408,299.592L209.374,299.592L211.111,291.611ZM212.14,297.204L211.902,295.932C211.744,295.067 211.615,294.144 211.515,293.161C211.466,293.64 211.404,294.126 211.328,294.619C211.253,295.109 211.163,295.629 211.06,296.18L210.863,297.204L212.14,297.204Z" style="fill-rule:nonzero;"/>
            <path id="path1063" d="M213.494,291.611L216.994,291.611L216.994,292.551L215.79,292.551L215.79,299.592L214.735,299.592L214.735,292.551L213.494,292.551L213.494,291.611Z" style="fill-rule:nonzero;"/>
            <path id="path1065" d="M217.583,291.611L220.442,291.611L220.442,292.52L218.659,292.52L218.659,295.048L220.24,295.048L220.24,295.958L218.659,295.958L218.659,298.682L220.442,298.682L220.442,299.592L217.583,299.592L217.583,291.611Z" style="fill-rule:nonzero;"/>
        </g>
        <g id="text1070" transform="matrix(0.738719,0,0,1.3537,1.00002,-4)">
            <rect id="path1073" x="295.106" y="263.082" width="0.97" height="7.201" style="fill-rule:nonzero;"/>
            <path id="path1075" d="M297.195,263.082L298.1,263.082L299.065,265.955C299.345,266.766 299.592,267.632 299.807,268.552C299.729,267.996 299.671,267.492 299.634,267.041C299.597,266.59 299.578,266.166 299.578,265.768L299.578,263.082L300.553,263.082L300.553,270.282L299.643,270.282L298.557,267.041C298.457,266.74 298.362,266.43 298.272,266.113C298.185,265.796 298.104,265.463 298.03,265.115C298.023,265.072 298.013,265.019 297.997,264.957C297.985,264.894 297.969,264.823 297.951,264.742C297.96,264.823 297.968,264.893 297.974,264.952C297.98,265.008 297.985,265.056 297.988,265.096L298.039,265.829L298.091,266.719C298.094,266.769 298.095,266.83 298.095,266.901C298.098,266.973 298.1,267.054 298.1,267.144L298.151,270.282L297.195,270.282L297.195,263.082Z" style="fill-rule:nonzero;"/>
            <path id="path1077" d="M304.074,263.231L304.074,264.178C303.778,263.966 303.513,263.861 303.276,263.861C303.021,263.861 302.813,263.951 302.651,264.131C302.49,264.302 302.409,264.531 302.409,264.817C302.409,265.068 302.466,265.285 302.581,265.465C302.64,265.561 302.737,265.686 302.871,265.838C303.007,265.99 303.183,266.174 303.398,266.388C303.792,266.789 304.061,267.136 304.204,267.428C304.347,267.711 304.419,268.058 304.419,268.468C304.419,269.025 304.262,269.483 303.948,269.844C303.634,270.195 303.231,270.371 302.74,270.371C302.326,270.371 301.974,270.257 301.681,270.031L301.681,269.07C302.026,269.322 302.34,269.448 302.623,269.448C302.888,269.448 303.094,269.361 303.244,269.186C303.393,269.009 303.468,268.77 303.468,268.468C303.468,268.207 303.41,267.972 303.295,267.764C303.236,267.665 303.154,267.551 303.048,267.424C302.942,267.293 302.81,267.148 302.651,266.99C302.406,266.747 302.202,266.533 302.04,266.346C301.879,266.16 301.759,265.996 301.681,265.857C301.532,265.583 301.457,265.238 301.457,264.821C301.457,264.258 301.604,263.812 301.896,263.483C302.191,263.15 302.588,262.984 303.085,262.984C303.43,262.984 303.76,263.066 304.074,263.231L304.074,263.231Z" style="fill-rule:nonzero;"/>
            <path id="path1079" d="M305.235,263.082L307.814,263.082L307.814,263.903L306.205,263.903L306.205,266.183L307.632,266.183L307.632,267.004L306.205,267.004L306.205,269.462L307.814,269.462L307.814,270.282L305.235,270.282L305.235,263.082Z" style="fill-rule:nonzero;"/>
            <path id="path1081" d="M308.705,263.082L309.983,263.082C310.511,263.082 310.904,263.208 311.162,263.459C311.489,263.786 311.652,264.285 311.652,264.957C311.652,265.473 311.565,265.888 311.391,266.202C311.22,266.513 310.974,266.705 310.654,266.78L311.979,270.282L310.995,270.282L309.675,266.757L309.675,270.282L308.705,270.282L308.705,263.082ZM309.675,266.272C310.051,266.272 310.317,266.185 310.472,266.01C310.628,265.836 310.705,265.543 310.705,265.129C310.705,264.905 310.688,264.714 310.654,264.555C310.623,264.397 310.572,264.268 310.5,264.168C310.432,264.069 310.342,263.996 310.23,263.949C310.121,263.903 309.99,263.879 309.838,263.879L309.675,263.879L309.675,266.272Z" style="fill-rule:nonzero;"/>
            <path id="path1083" d="M312.254,263.082L315.411,263.082L315.411,263.931L314.324,263.931L314.324,270.282L313.373,270.282L313.373,263.931L312.254,263.931L312.254,263.082Z" style="fill-rule:nonzero;"/>
        </g>
        <g id="text1062" transform="matrix(0.962179,0,0,1.03931,0,0)">
            <path id="path1067" d="M114.667,17.319L111.01,17.319L111.01,3.779L114.553,3.779C116.318,3.779 117.628,4.138 118.482,4.857C119.487,5.705 119.99,6.883 119.99,8.392C119.99,10.034 119.455,11.259 118.385,12.066C117.654,12.61 116.605,12.882 115.237,12.882L114.667,12.882L114.667,17.319ZM114.667,9.839L114.833,9.847C115.278,9.847 115.631,9.713 115.895,9.444C116.158,9.169 116.289,8.795 116.289,8.321C116.289,7.854 116.161,7.474 115.903,7.181C115.646,6.883 115.319,6.734 114.921,6.734L114.667,6.734L114.667,9.839Z" style="fill:rgb(158,161,168);fill-rule:nonzero;"/>
            <path id="path1069" d="M121.288,17.319L121.288,3.779L128.085,3.779L128.085,6.962L124.945,6.962L124.945,8.935L127.76,8.935L127.76,11.996L124.945,11.996L124.945,14.066L128.085,14.066L128.085,17.319L121.288,17.319Z" style="fill:rgb(158,161,168);fill-rule:nonzero;"/>
            <path id="path1071" d="M133.294,17.319L129.637,17.319L129.637,3.779L133.18,3.779C134.946,3.779 136.255,4.138 137.109,4.857C138.114,5.705 138.617,6.883 138.617,8.392C138.617,10.034 138.082,11.259 137.012,12.066C136.282,12.61 135.232,12.882 133.864,12.882L133.294,12.882L133.294,17.319ZM133.294,9.839L133.461,9.847C133.905,9.847 134.259,9.713 134.522,9.444C134.785,9.169 134.916,8.795 134.916,8.321C134.916,7.854 134.788,7.474 134.53,7.181C134.273,6.883 133.946,6.734 133.548,6.734L133.294,6.734L133.294,9.839Z" style="fill:rgb(158,161,168);fill-rule:nonzero;"/>
            <path id="path1076" d="M143.572,17.319L139.915,17.319L139.915,3.779L143.458,3.779C145.224,3.779 146.533,4.138 147.387,4.857C148.393,5.705 148.896,6.883 148.896,8.392C148.896,10.034 148.361,11.259 147.291,12.066C146.56,12.61 145.51,12.882 144.142,12.882L143.572,12.882L143.572,17.319ZM143.572,9.839L143.739,9.847C144.183,9.847 144.537,9.713 144.8,9.444C145.063,9.169 145.195,8.795 145.195,8.321C145.195,7.854 145.066,7.474 144.809,7.181C144.552,6.883 144.224,6.734 143.827,6.734L143.572,6.734L143.572,9.839Z" style="fill:rgb(158,161,168);fill-rule:nonzero;"/>
            <path id="path1078" d="M150.193,17.319L150.193,3.779L156.99,3.779L156.99,6.962L153.85,6.962L153.85,8.935L156.666,8.935L156.666,11.996L153.85,11.996L153.85,14.066L156.99,14.066L156.99,17.319L150.193,17.319Z" style="fill:rgb(158,161,168);fill-rule:nonzero;"/>
            <path id="path1080" d="M168.172,17.319L164.216,17.319L162.41,12.496C162.392,12.414 162.36,12.306 162.313,12.171C162.272,12.037 162.22,11.876 162.156,11.689L162.182,12.583L162.182,17.319L158.542,17.319L158.542,3.779L162.287,3.779C163.936,3.779 165.169,4.103 165.988,4.752C167.029,5.582 167.549,6.763 167.549,8.295C167.549,9.932 166.85,11.063 165.453,11.689L168.172,17.319ZM162.199,10.049L162.445,10.049C162.866,10.049 163.217,9.888 163.497,9.567C163.778,9.245 163.918,8.836 163.918,8.339C163.918,7.327 163.389,6.822 162.331,6.822L162.199,6.822L162.199,10.049Z" style="fill:rgb(158,161,168);fill-rule:nonzero;"/>
        </g>
    </g>
</svg>
