<?xml version="1.0" encoding="UTF-8" standalone="no"?>
<!DOCTYPE svg PUBLIC "-//W3C//DTD SVG 1.1//EN" "http://www.w3.org/Graphics/SVG/1.1/DTD/svg11.dtd">
<svg width="100%" height="100%" viewBox="0 0 90 380" version="1.1" xmlns="http://www.w3.org/2000/svg" xmlns:xlink="http://www.w3.org/1999/xlink" xml:space="preserve" xmlns:serif="http://www.serif.com/" style="fill-rule:evenodd;clip-rule:evenodd;stroke-linejoin:round;stroke-miterlimit:2;">
    <g id="Layer-2" serif:id="Layer 2">
        <g id="text989">
        </g>
        <rect id="rect4689" x="0" y="0" width="90" height="380" style="fill:rgb(44,45,48);fill-rule:nonzero;"/>
        <g id="text80" transform="matrix(1.00498,0,0,0.995047,-5.56788e-06,4.99997)">
            <path id="path4726" d="M29.851,371.706L29.851,363.943L31.853,363.943L32.903,366.668C32.96,366.829 33.024,367.013 33.094,367.221C33.168,367.429 33.249,367.668 33.336,367.94L33.552,368.624C33.475,367.95 33.416,367.373 33.376,366.894C33.336,366.415 33.316,366.013 33.316,365.687L33.316,363.943L35.317,363.943L35.317,371.706L33.316,371.706L32.26,368.85C32.149,368.545 32.049,368.26 31.958,367.995C31.871,367.727 31.794,367.472 31.727,367.231C31.77,367.777 31.802,368.253 31.822,368.659C31.843,369.065 31.853,369.42 31.853,369.725L31.853,371.706L29.851,371.706Z" style="fill:rgb(158,161,168);fill-rule:nonzero;"/>
            <path id="path4728" d="M39.887,371.706L37.791,371.706L37.791,368.418L35.865,363.943L38.052,363.943L38.429,365.094C38.503,365.319 38.568,365.535 38.625,365.743C38.686,365.951 38.739,366.15 38.786,366.341C38.863,366.056 38.93,365.811 38.987,365.607C39.044,365.399 39.095,365.232 39.138,365.104L39.52,363.943L41.692,363.943L39.887,368.418L39.887,371.706Z" style="fill:rgb(158,161,168);fill-rule:nonzero;"/>
            <path id="path4730" d="M41.894,371.515L41.894,369.076C42.306,369.639 42.752,369.921 43.231,369.921C43.412,369.921 43.56,369.874 43.673,369.78C43.787,369.683 43.844,369.562 43.844,369.418C43.844,369.21 43.72,369.008 43.472,368.81L43.13,368.543C42.902,368.372 42.708,368.203 42.547,368.035C42.386,367.865 42.256,367.69 42.155,367.513C42.054,367.332 41.981,367.146 41.934,366.954C41.887,366.763 41.863,366.562 41.863,366.351C41.863,365.989 41.947,365.61 42.115,365.215C42.199,365.03 42.296,364.863 42.406,364.712C42.517,364.558 42.644,364.422 42.789,364.305C43.184,363.969 43.662,363.802 44.222,363.802C44.721,363.802 45.224,363.934 45.73,364.199L45.73,366.572C45.559,366.308 45.365,366.1 45.147,365.949C44.929,365.795 44.714,365.718 44.503,365.718C44.342,365.718 44.21,365.765 44.106,365.858C43.999,365.949 43.945,366.058 43.945,366.185C43.945,366.393 44.087,366.599 44.372,366.804L44.704,367.05C45.147,367.368 45.463,367.695 45.655,368.03C45.849,368.366 45.946,368.758 45.946,369.207C45.946,369.971 45.713,370.601 45.247,371.098C44.781,371.594 44.191,371.842 43.477,371.842C42.985,371.842 42.457,371.733 41.894,371.515L41.894,371.515Z" style="fill:rgb(158,161,168);fill-rule:nonzero;"/>
            <path id="path4732" d="M49.576,371.706L47.48,371.706L47.48,365.803L46.323,365.803L46.323,363.943L50.778,363.943L50.778,365.803L49.576,365.803L49.576,371.706Z" style="fill:rgb(158,161,168);fill-rule:nonzero;"/>
            <path id="path4734" d="M56.525,371.706L54.428,371.706L54.428,368.584L53.428,368.584L53.428,371.706L51.331,371.706L51.331,363.943L53.428,363.943L53.428,366.688L54.428,366.688L54.428,363.943L56.525,363.943L56.525,371.706Z" style="fill:rgb(158,161,168);fill-rule:nonzero;"/>
            <rect id="path4736" x="57.606" y="363.943" width="2.097" height="7.763" style="fill:rgb(158,161,168);fill-rule:nonzero;"/>
        </g>
        <g id="text4987">
        </g>
        <g id="text1042">
        </g>
        <path id="rect4778-3-6-0-3" d="M10.657,60L79.343,60C82.477,60 85,63.154 85,67.071L85,112.929C85,116.846 82.477,120 79.343,120L10.657,120C7.523,120 5,116.846 5,112.929L5,67.071C5,63.154 7.523,60 10.657,60Z" style="fill:rgb(158,161,168);fill-rule:nonzero;"/>
        <g id="text1406" transform="matrix(1.00212,0,0,0.997882,0,0)">
            <path id="path1413" d="M32.747,18.038L28.939,18.038L28.939,3.935L32.629,3.935C34.468,3.935 35.832,4.31 36.721,5.059C37.768,5.942 38.292,7.169 38.292,8.74C38.292,10.451 37.735,11.727 36.62,12.567C35.859,13.133 34.766,13.416 33.341,13.416L32.747,13.416L32.747,18.038ZM32.747,10.247L32.921,10.256C33.384,10.256 33.752,10.116 34.026,9.836C34.3,9.55 34.437,9.16 34.437,8.667C34.437,8.18 34.303,7.784 34.035,7.479C33.767,7.169 33.426,7.014 33.012,7.014L32.747,7.014L32.747,10.247Z" style="fill:rgb(158,161,168);fill-rule:nonzero;"/>
            <path id="path1415" d="M48.969,18.038L39.26,18.038L43.114,12.896C43.553,12.311 43.921,11.791 44.22,11.334C44.518,10.871 44.752,10.463 44.923,10.11C45.258,9.446 45.425,8.764 45.425,8.064C45.425,7.68 45.346,7.376 45.188,7.151C45.03,6.925 44.813,6.813 44.539,6.813C43.93,6.813 43.626,7.385 43.626,8.53L43.626,8.749C43.632,8.834 43.638,8.935 43.644,9.05L39.945,9.05L39.927,8.539C39.927,7.12 40.365,5.957 41.242,5.05C42.125,4.136 43.255,3.68 44.631,3.68C45.958,3.68 47.042,4.112 47.882,4.977C48.729,5.823 49.152,6.928 49.152,8.292C49.152,9.388 48.863,10.454 48.284,11.489C47.992,12.007 47.611,12.552 47.143,13.124C46.68,13.69 46.116,14.287 45.453,14.914C46.025,14.872 46.601,14.841 47.179,14.823C47.764,14.805 48.36,14.796 48.969,14.796L48.969,18.038Z" style="fill:rgb(158,161,168);fill-rule:nonzero;"/>
            <path id="path1417" d="M57.025,18.038L53.143,18.038L49.91,3.935L53.911,3.935L54.605,7.963C54.867,9.504 55.077,11.227 55.235,13.133C55.302,12.287 55.384,11.495 55.482,10.758C55.579,10.022 55.695,9.303 55.829,8.603L56.733,3.935L60.871,3.935L57.025,18.038Z" style="fill:rgb(158,161,168);fill-rule:nonzero;"/>
        </g>
        <g id="text1422" transform="matrix(0.971931,0,0,1.02888,0,0)">
            <path id="path1608" d="M13.035,108.856L10.491,108.856L10.491,102.016L13.035,102.016L13.035,108.856ZM13.25,99.896C13.25,100.297 13.105,100.643 12.814,100.934C12.514,101.221 12.166,101.364 11.769,101.364C11.36,101.364 11.01,101.219 10.719,100.928C10.432,100.628 10.289,100.278 10.289,99.877C10.289,99.468 10.432,99.12 10.719,98.833C11.019,98.546 11.367,98.403 11.763,98.403C12.181,98.403 12.533,98.548 12.82,98.839C13.107,99.126 13.25,99.479 13.25,99.896Z" style="fill:rgb(44,45,48);fill-rule:nonzero;"/>
            <path id="path1610" d="M20.236,108.856L17.699,108.856L17.699,105.237C17.699,104.925 17.667,104.707 17.604,104.585C17.545,104.463 17.439,104.402 17.287,104.402C16.933,104.402 16.756,104.737 16.756,105.408L16.756,108.856L14.218,108.856L14.218,102.016L16.756,102.016C16.751,102.185 16.747,102.341 16.743,102.484C16.739,102.628 16.732,102.761 16.724,102.883L16.699,103.319C17.108,102.353 17.707,101.87 18.496,101.87C19.044,101.87 19.47,102.075 19.774,102.484C20.082,102.893 20.236,103.463 20.236,104.193L20.236,108.856Z" style="fill:rgb(44,45,48);fill-rule:nonzero;"/>
            <path id="path1612" d="M25.058,108.293L25.981,106.395C26.437,106.871 26.861,107.11 27.253,107.11C27.582,107.11 27.747,106.992 27.747,106.755C27.747,106.553 27.525,106.372 27.082,106.211C25.889,105.789 25.292,105.121 25.292,104.205C25.292,103.535 25.557,102.978 26.089,102.535C26.625,102.092 27.293,101.87 28.095,101.87C28.753,101.87 29.432,102.056 30.132,102.427L29.265,104.281C28.839,103.881 28.491,103.68 28.221,103.68C27.956,103.68 27.823,103.788 27.823,104.003C27.823,104.235 28.076,104.452 28.582,104.655C29.215,104.903 29.645,105.167 29.873,105.446C30.113,105.724 30.234,106.108 30.234,106.597C30.234,107.302 29.978,107.877 29.468,108.325C28.958,108.772 28.302,108.995 27.5,108.995C27.116,108.995 26.734,108.947 26.355,108.85C26.178,108.803 25.984,108.734 25.773,108.641C25.562,108.544 25.323,108.428 25.058,108.293L25.058,108.293Z" style="fill:rgb(44,45,48);fill-rule:nonzero;"/>
            <path id="path1614" d="M33.638,108.856L31.094,108.856L31.094,102.016L33.638,102.016L33.638,108.856ZM33.853,99.896C33.853,100.297 33.708,100.643 33.416,100.934C33.117,101.221 32.769,101.364 32.372,101.364C31.963,101.364 31.613,101.219 31.322,100.928C31.035,100.628 30.892,100.278 30.892,99.877C30.892,99.468 31.035,99.12 31.322,98.833C31.622,98.546 31.97,98.403 32.366,98.403C32.784,98.403 33.136,98.548 33.423,98.839C33.71,99.126 33.853,99.479 33.853,99.896Z" style="fill:rgb(44,45,48);fill-rule:nonzero;"/>
            <path id="path1616" d="M40.87,102.016L40.87,109.052C40.87,109.588 40.797,110.052 40.649,110.444C40.501,110.807 40.261,111.117 39.928,111.375C39.367,111.809 38.654,112.026 37.789,112.026C36.857,112.026 36.142,111.826 35.644,111.425C35.146,111.024 34.838,110.4 34.72,109.552L37.314,109.552C37.331,109.923 37.508,110.109 37.846,110.109C38.061,110.109 38.213,110.033 38.301,109.881C38.39,109.734 38.434,109.487 38.434,109.141L38.434,108.059C37.983,108.649 37.451,108.945 36.84,108.945C36.177,108.945 35.642,108.622 35.233,107.977C34.828,107.331 34.625,106.483 34.625,105.433C34.625,104.387 34.828,103.53 35.233,102.864C35.642,102.202 36.171,101.87 36.821,101.87C37.12,101.87 37.382,101.946 37.605,102.098C37.837,102.254 38.088,102.526 38.358,102.915L38.308,102.016L40.87,102.016ZM38.409,105.414C38.409,104.427 38.228,103.933 37.865,103.933C37.456,103.933 37.251,104.414 37.251,105.376C37.251,106.367 37.449,106.863 37.846,106.863C38.221,106.863 38.409,106.38 38.409,105.414Z" style="fill:rgb(44,45,48);fill-rule:nonzero;"/>
            <path id="path1618" d="M48.052,108.856L45.515,108.856L45.515,105.237C45.515,104.925 45.483,104.707 45.42,104.585C45.361,104.463 45.256,104.402 45.104,104.402C44.749,104.402 44.572,104.737 44.572,105.408L44.572,108.856L42.035,108.856L42.035,102.016L44.572,102.016C44.568,102.185 44.564,102.341 44.56,102.484C44.555,102.628 44.549,102.761 44.541,102.883L44.515,103.319C44.925,102.353 45.524,101.87 46.313,101.87C46.861,101.87 47.287,102.075 47.591,102.484C47.899,102.893 48.053,103.463 48.053,104.193L48.052,108.856Z" style="fill:rgb(44,45,48);fill-rule:nonzero;"/>
            <path id="path1620" d="M55.329,108.856L52.785,108.856C52.807,108.628 52.823,108.411 52.836,108.204C52.849,107.998 52.861,107.831 52.874,107.705C52.435,108.565 51.847,108.995 51.109,108.995C50.467,108.995 49.959,108.675 49.584,108.034C49.212,107.397 49.027,106.515 49.027,105.389C49.027,104.3 49.219,103.444 49.603,102.82C49.987,102.187 50.51,101.87 51.172,101.87C51.851,101.87 52.399,102.28 52.817,103.098C52.809,103.014 52.802,102.94 52.798,102.877C52.794,102.813 52.79,102.761 52.786,102.718L52.76,102.32L52.742,102.016L55.33,102.016L55.329,108.856ZM52.76,105.351C52.76,105.098 52.75,104.882 52.728,104.705C52.712,104.528 52.682,104.385 52.64,104.275C52.598,104.161 52.543,104.081 52.475,104.035C52.408,103.984 52.326,103.959 52.229,103.959C51.798,103.959 51.583,104.53 51.583,105.673C51.583,106.492 51.775,106.901 52.159,106.901C52.56,106.901 52.76,106.384 52.76,105.351L52.76,105.351Z" style="fill:rgb(44,45,48);fill-rule:nonzero;"/>
            <rect id="path1622" x="56.512" y="98.169" width="2.537" height="10.687" style="fill:rgb(44,45,48);fill-rule:nonzero;"/>
            <path id="path1624" d="M70.294,105.54C70.294,106.595 70.003,107.435 69.421,108.059C68.839,108.683 68.058,108.995 67.08,108.995C66.118,108.995 65.352,108.677 64.783,108.04C64.217,107.399 63.935,106.538 63.935,105.458C63.935,104.378 64.224,103.511 64.802,102.858C65.375,102.199 66.137,101.87 67.086,101.87C68.086,101.87 68.87,102.197 69.44,102.851C70.009,103.505 70.294,104.402 70.294,105.54ZM67.833,105.458C67.833,105.205 67.816,104.977 67.782,104.775C67.748,104.568 67.7,104.393 67.637,104.25C67.573,104.102 67.497,103.988 67.409,103.908C67.32,103.828 67.221,103.788 67.111,103.788C66.896,103.788 66.723,103.94 66.592,104.243C66.462,104.509 66.396,104.908 66.396,105.439C66.396,105.962 66.462,106.361 66.592,106.635C66.723,106.939 66.898,107.091 67.118,107.091C67.324,107.091 67.495,106.941 67.63,106.642C67.765,106.308 67.833,105.914 67.833,105.458L67.833,105.458Z" style="fill:rgb(44,45,48);fill-rule:nonzero;"/>
            <path id="path1626" d="M71.269,102.016L73.806,102.016L73.806,105.87C73.806,106.237 73.842,106.504 73.914,106.673C73.99,106.812 74.133,106.882 74.344,106.882C74.551,106.882 74.69,106.812 74.761,106.673C74.837,106.534 74.875,106.266 74.875,105.87L74.875,102.016L77.413,102.016L77.413,106.211C77.413,106.49 77.39,106.743 77.343,106.971C77.301,107.194 77.231,107.399 77.134,107.584C77.042,107.766 76.919,107.932 76.767,108.084C76.62,108.236 76.443,108.375 76.236,108.502C75.679,108.831 75.048,108.995 74.344,108.995C73.631,108.995 73,108.831 72.452,108.502C72.241,108.375 72.06,108.238 71.908,108.091C71.76,107.939 71.638,107.77 71.541,107.584C71.448,107.399 71.378,107.194 71.332,106.971C71.29,106.743 71.269,106.49 71.269,106.211L71.269,102.016Z" style="fill:rgb(44,45,48);fill-rule:nonzero;"/>
            <path id="path1628" d="M81.469,108.856L78.925,108.856L78.925,104.06L78.204,104.06L78.204,102.016L78.925,102.016L78.925,100.004L81.469,100.004L81.469,102.016L82.31,102.016L82.31,104.06L81.469,104.06L81.469,108.856Z" style="fill:rgb(44,45,48);fill-rule:nonzero;"/>
        </g>
        <rect id="rect1428" x="5" y="140" width="80" height="220" style="fill:rgb(158,161,168);"/>
        <g id="text1426" transform="matrix(0.971931,0,0,1.02888,0,8)">
            <path id="path1587" d="M17.356,307.848L14.705,307.848L12.819,301.007L15.388,301.007L15.781,303.007C15.835,303.264 15.886,303.585 15.932,303.969C15.979,304.348 16.025,304.804 16.072,305.336C16.131,304.85 16.188,304.429 16.243,304.07C16.297,303.711 16.352,303.404 16.407,303.146L16.844,301.007L19.349,301.007L17.356,307.848Z" style="fill:rgb(44,45,48);fill-rule:nonzero;"/>
            <path id="path1589" d="M25.974,304.532C25.974,305.587 25.683,306.426 25.101,307.05C24.519,307.675 23.739,307.987 22.76,307.987C21.798,307.987 21.033,307.668 20.463,307.031C19.898,306.39 19.615,305.53 19.615,304.45C19.615,303.37 19.904,302.503 20.482,301.849C21.056,301.191 21.817,300.862 22.766,300.862C23.766,300.862 24.551,301.189 25.12,301.843C25.69,302.497 25.974,303.393 25.974,304.532ZM23.513,304.45C23.513,304.197 23.496,303.969 23.462,303.766C23.429,303.56 23.38,303.385 23.317,303.241C23.254,303.093 23.178,302.98 23.089,302.899C23,302.819 22.901,302.779 22.792,302.779C22.577,302.779 22.404,302.931 22.273,303.235C22.142,303.501 22.077,303.899 22.077,304.431C22.077,304.954 22.142,305.352 22.273,305.627C22.404,305.93 22.579,306.082 22.798,306.082C23.005,306.082 23.176,305.932 23.311,305.633C23.446,305.3 23.513,304.905 23.513,304.45L23.513,304.45Z" style="fill:rgb(44,45,48);fill-rule:nonzero;"/>
            <rect id="path1591" x="26.949" y="297.16" width="2.537" height="10.687" style="fill:rgb(44,45,48);fill-rule:nonzero;"/>
            <path id="path1593" d="M33.555,307.848L31.011,307.848L31.011,303.051L30.29,303.051L30.29,301.007L31.011,301.007L31.011,298.995L33.555,298.995L33.555,301.007L34.397,301.007L34.397,303.051L33.555,303.051L33.555,307.848Z" style="fill:rgb(44,45,48);fill-rule:nonzero;"/>
            <path id="path1595" d="M41.306,307.848L38.763,307.848C38.784,307.62 38.801,307.403 38.813,307.196C38.826,306.989 38.839,306.823 38.851,306.696C38.413,307.557 37.824,307.987 37.086,307.987C36.445,307.987 35.936,307.666 35.561,307.025C35.19,306.388 35.004,305.506 35.004,304.38C35.004,303.292 35.196,302.435 35.58,301.811C35.964,301.178 36.487,300.862 37.149,300.862C37.828,300.862 38.377,301.271 38.794,302.089C38.786,302.005 38.78,301.931 38.775,301.868C38.771,301.805 38.767,301.752 38.763,301.71L38.738,301.311L38.719,301.007L41.307,301.007L41.306,307.848ZM38.737,304.342C38.737,304.089 38.727,303.874 38.706,303.697C38.689,303.52 38.659,303.376 38.617,303.266C38.575,303.153 38.52,303.072 38.453,303.026C38.385,302.975 38.303,302.95 38.206,302.95C37.776,302.95 37.56,303.522 37.56,304.665C37.56,305.483 37.752,305.892 38.136,305.892C38.537,305.892 38.737,305.376 38.737,304.342L38.737,304.342Z" style="fill:rgb(44,45,48);fill-rule:nonzero;"/>
            <path id="path1597" d="M48.539,301.007L48.539,308.044C48.539,308.58 48.465,309.044 48.317,309.436C48.17,309.799 47.929,310.109 47.596,310.366C47.035,310.801 46.322,311.018 45.457,311.018C44.525,311.018 43.81,310.817 43.312,310.417C42.815,310.016 42.507,309.392 42.388,308.544L44.983,308.544C45,308.915 45.177,309.101 45.514,309.101C45.729,309.101 45.881,309.025 45.97,308.873C46.059,308.725 46.103,308.478 46.103,308.132L46.103,307.05C45.651,307.641 45.12,307.936 44.508,307.936C43.846,307.936 43.31,307.614 42.901,306.968C42.496,306.323 42.294,305.475 42.294,304.424C42.294,303.378 42.496,302.522 42.901,301.855C43.31,301.193 43.84,300.862 44.489,300.862C44.789,300.862 45.05,300.938 45.274,301.09C45.506,301.246 45.757,301.518 46.027,301.906L45.976,301.007L48.539,301.007ZM46.078,304.405C46.078,303.418 45.896,302.925 45.533,302.925C45.124,302.925 44.92,303.406 44.92,304.367C44.92,305.359 45.118,305.854 45.514,305.854C45.89,305.854 46.078,305.371 46.078,304.405Z" style="fill:rgb(44,45,48);fill-rule:nonzero;"/>
            <path id="path1599" d="M53.304,305.532L55.784,305.582C55.607,306.38 55.261,306.981 54.746,307.386C54.236,307.786 53.567,307.987 52.741,307.987C51.762,307.987 50.994,307.683 50.437,307.076C49.885,306.46 49.608,305.618 49.608,304.551C49.608,303.467 49.906,302.583 50.501,301.9C51.095,301.212 51.863,300.868 52.804,300.868C53.74,300.868 54.487,301.199 55.044,301.862C55.601,302.528 55.879,303.412 55.879,304.513L55.867,304.962L52.146,304.962C52.175,305.662 52.374,306.013 52.741,306.013C53.028,306.013 53.215,305.852 53.304,305.532L53.304,305.532ZM53.361,303.595C53.361,303.469 53.346,303.353 53.316,303.247C53.287,303.142 53.245,303.051 53.19,302.975C53.139,302.899 53.078,302.84 53.006,302.798C52.935,302.752 52.857,302.729 52.772,302.729C52.595,302.729 52.452,302.811 52.342,302.975C52.232,303.136 52.177,303.342 52.177,303.595L53.361,303.595Z" style="fill:rgb(44,45,48);fill-rule:nonzero;"/>
            <path id="path1601" d="M66.927,304.532C66.927,305.587 66.636,306.426 66.054,307.05C65.472,307.675 64.691,307.987 63.713,307.987C62.751,307.987 61.985,307.668 61.416,307.031C60.851,306.39 60.568,305.53 60.568,304.45C60.568,303.37 60.857,302.503 61.435,301.849C62.008,301.191 62.77,300.862 63.719,300.862C64.719,300.862 65.503,301.189 66.073,301.843C66.642,302.497 66.927,303.393 66.927,304.532ZM64.466,304.45C64.466,304.197 64.449,303.969 64.415,303.766C64.381,303.56 64.333,303.385 64.27,303.241C64.206,303.093 64.13,302.98 64.042,302.899C63.953,302.819 63.854,302.779 63.744,302.779C63.529,302.779 63.356,302.931 63.226,303.235C63.095,303.501 63.029,303.899 63.029,304.431C63.029,304.954 63.095,305.352 63.226,305.627C63.356,305.93 63.531,306.082 63.751,306.082C63.957,306.082 64.128,305.932 64.263,305.633C64.398,305.3 64.466,304.905 64.466,304.45L64.466,304.45Z" style="fill:rgb(44,45,48);fill-rule:nonzero;"/>
            <path id="path1603" d="M67.902,301.007L70.439,301.007L70.439,304.861C70.439,305.228 70.475,305.496 70.547,305.665C70.623,305.804 70.766,305.873 70.977,305.873C71.184,305.873 71.323,305.804 71.395,305.665C71.47,305.525 71.508,305.258 71.508,304.861L71.508,301.007L74.046,301.007L74.046,305.203C74.046,305.481 74.023,305.734 73.976,305.962C73.934,306.186 73.864,306.39 73.767,306.576C73.675,306.757 73.552,306.924 73.4,307.076C73.253,307.228 73.076,307.367 72.869,307.493C72.312,307.822 71.681,307.987 70.977,307.987C70.264,307.987 69.633,307.822 69.085,307.493C68.874,307.367 68.693,307.23 68.541,307.082C68.393,306.93 68.271,306.761 68.174,306.576C68.081,306.39 68.011,306.186 67.965,305.962C67.923,305.734 67.902,305.481 67.902,305.203L67.902,301.007Z" style="fill:rgb(44,45,48);fill-rule:nonzero;"/>
            <path id="path1605" d="M78.102,307.848L75.558,307.848L75.558,303.051L74.837,303.051L74.837,301.007L75.558,301.007L75.558,298.995L78.102,298.995L78.102,301.007L78.943,301.007L78.943,303.051L78.102,303.051L78.102,307.848Z" style="fill:rgb(44,45,48);fill-rule:nonzero;"/>
        </g>
        <g id="text1432" transform="matrix(0.941679,0,0,1.06193,0,0)">
            <path id="path1562" d="M19.398,147.688C19.398,148.596 19.147,149.319 18.646,149.857C18.145,150.394 17.472,150.663 16.63,150.663C15.801,150.663 15.142,150.389 14.651,149.84C14.165,149.288 13.921,148.547 13.921,147.617C13.921,146.687 14.17,145.94 14.668,145.377C15.162,144.81 15.818,144.527 16.635,144.527C17.496,144.527 18.172,144.809 18.662,145.372C19.153,145.935 19.398,146.707 19.398,147.688ZM17.278,147.617C17.278,147.399 17.263,147.203 17.234,147.028C17.205,146.85 17.164,146.7 17.109,146.576C17.055,146.449 16.989,146.351 16.913,146.282C16.837,146.213 16.751,146.178 16.657,146.178C16.471,146.178 16.323,146.309 16.21,146.571C16.097,146.8 16.041,147.143 16.041,147.601C16.041,148.051 16.097,148.394 16.21,148.631C16.323,148.892 16.473,149.023 16.662,149.023C16.84,149.023 16.987,148.894 17.104,148.636C17.22,148.349 17.278,148.009 17.278,147.617L17.278,147.617Z" style="fill:rgb(44,45,48);fill-rule:nonzero;"/>
            <path id="path1564" d="M23.3,148.62L23.3,150.631C23.169,150.645 23.055,150.654 22.956,150.658C22.858,150.665 22.777,150.669 22.711,150.669C22.057,150.669 21.51,150.473 21.071,150.08C20.773,149.815 20.531,149.452 20.346,148.99C20.161,148.529 20.068,148.055 20.068,147.568C20.068,146.703 20.333,145.978 20.864,145.394C21.391,144.816 22.055,144.527 22.858,144.527C22.906,144.527 22.966,144.529 23.038,144.532C23.111,144.536 23.198,144.541 23.3,144.549L23.3,146.467C22.653,146.51 22.33,146.863 22.33,147.524C22.33,147.822 22.41,148.084 22.57,148.309C22.733,148.523 22.927,148.63 23.153,148.63L23.218,148.63C23.243,148.627 23.271,148.623 23.3,148.619L23.3,148.62Z" style="fill:rgb(44,45,48);fill-rule:nonzero;"/>
            <path id="path1566" d="M26.537,150.543L24.346,150.543L24.346,146.413L23.725,146.413L23.725,144.652L24.346,144.652L24.346,142.919L26.537,142.919L26.537,144.652L27.262,144.652L27.262,146.413L26.537,146.413L26.537,150.543Z" style="fill:rgb(44,45,48);fill-rule:nonzero;"/>
            <path id="path1568" d="M33.212,150.543L31.022,150.543C31.04,150.347 31.054,150.16 31.065,149.982C31.076,149.804 31.087,149.661 31.098,149.552C30.72,150.293 30.213,150.663 29.578,150.663C29.025,150.663 28.588,150.387 28.264,149.835C27.945,149.286 27.785,148.527 27.785,147.557C27.785,146.62 27.95,145.882 28.281,145.344C28.611,144.8 29.062,144.527 29.632,144.527C30.217,144.527 30.689,144.879 31.049,145.584C31.042,145.512 31.036,145.448 31.033,145.394C31.029,145.339 31.025,145.294 31.022,145.257L31,144.914L30.984,144.652L33.212,144.652L33.212,150.543ZM31,147.524C31,147.306 30.991,147.121 30.973,146.968C30.958,146.816 30.933,146.692 30.896,146.598C30.86,146.5 30.813,146.431 30.755,146.391C30.697,146.347 30.626,146.325 30.542,146.325C30.172,146.325 29.986,146.818 29.986,147.802C29.986,148.507 30.152,148.859 30.482,148.859C30.827,148.859 31,148.414 31,147.524L31,147.524Z" style="fill:rgb(44,45,48);fill-rule:nonzero;"/>
            <path id="path1570" d="M37.719,150.543L35.436,150.543L33.812,144.652L36.024,144.652L36.362,146.374C36.41,146.596 36.453,146.872 36.493,147.203C36.533,147.53 36.573,147.922 36.613,148.38C36.664,147.962 36.713,147.599 36.76,147.29C36.807,146.981 36.855,146.716 36.902,146.494L37.278,144.652L39.436,144.652L37.719,150.543Z" style="fill:rgb(44,45,48);fill-rule:nonzero;"/>
            <path id="path1572" d="M42.847,148.549L44.983,148.592C44.831,149.279 44.533,149.797 44.09,150.146C43.65,150.491 43.074,150.663 42.362,150.663C41.519,150.663 40.858,150.402 40.379,149.878C39.903,149.348 39.665,148.623 39.665,147.704C39.665,146.77 39.921,146.009 40.433,145.421C40.945,144.829 41.607,144.532 42.417,144.532C43.223,144.532 43.866,144.818 44.346,145.388C44.825,145.962 45.065,146.723 45.065,147.671L45.054,148.058L41.85,148.058C41.875,148.661 42.046,148.963 42.362,148.963C42.609,148.963 42.771,148.825 42.847,148.549L42.847,148.549ZM42.896,146.881C42.896,146.772 42.884,146.672 42.858,146.582C42.833,146.491 42.796,146.413 42.749,146.347C42.706,146.282 42.653,146.231 42.591,146.195C42.529,146.155 42.462,146.135 42.39,146.135C42.237,146.135 42.113,146.206 42.019,146.347C41.924,146.485 41.877,146.663 41.877,146.881L42.896,146.881Z" style="fill:rgb(44,45,48);fill-rule:nonzero;"/>
            <path id="path1574" d="M54.58,147.688C54.58,148.596 54.329,149.319 53.828,149.857C53.327,150.394 52.655,150.663 51.812,150.663C50.983,150.663 50.324,150.389 49.834,149.84C49.347,149.288 49.103,148.547 49.103,147.617C49.103,146.687 49.352,145.94 49.85,145.377C50.344,144.81 51,144.527 51.817,144.527C52.678,144.527 53.354,144.809 53.844,145.372C54.335,145.935 54.58,146.707 54.58,147.688ZM52.46,147.617C52.46,147.399 52.446,147.203 52.417,147.028C52.388,146.85 52.346,146.7 52.291,146.576C52.237,146.449 52.171,146.351 52.095,146.282C52.019,146.213 51.933,146.178 51.839,146.178C51.654,146.178 51.505,146.309 51.392,146.571C51.279,146.8 51.223,147.143 51.223,147.601C51.223,148.051 51.279,148.394 51.392,148.631C51.505,148.892 51.655,149.023 51.844,149.023C52.022,149.023 52.17,148.894 52.286,148.636C52.402,148.349 52.46,148.009 52.46,147.617L52.46,147.617Z" style="fill:rgb(44,45,48);fill-rule:nonzero;"/>
            <path id="path1576" d="M57.855,150.543L55.67,150.543L55.67,146.413L55.038,146.413L55.038,144.652L55.67,144.652L55.67,143.568C55.67,142.809 55.833,142.233 56.16,141.84C56.491,141.448 56.974,141.252 57.61,141.252C57.926,141.252 58.269,141.303 58.64,141.404L58.64,143.432C58.447,143.294 58.298,143.225 58.193,143.225C57.968,143.225 57.855,143.426 57.855,143.83L57.855,144.652L58.64,144.652L58.64,146.413L57.855,146.413L57.855,150.543Z" style="fill:rgb(44,45,48);fill-rule:nonzero;"/>
            <path id="path1578" d="M61.91,150.543L59.724,150.543L59.724,146.413L59.092,146.413L59.092,144.652L59.724,144.652L59.724,143.568C59.724,142.809 59.888,142.233 60.215,141.84C60.546,141.448 61.029,141.252 61.664,141.252C61.981,141.252 62.324,141.303 62.694,141.404L62.694,143.432C62.502,143.294 62.353,143.225 62.248,143.225C62.022,143.225 61.91,143.426 61.91,143.83L61.91,144.652L62.694,144.652L62.694,146.413L61.91,146.413L61.91,150.543Z" style="fill:rgb(44,45,48);fill-rule:nonzero;"/>
            <path id="path1580" d="M63.12,150.058L63.915,148.423C64.308,148.834 64.673,149.039 65.01,149.039C65.294,149.039 65.436,148.938 65.436,148.734C65.436,148.56 65.245,148.404 64.863,148.265C63.835,147.902 63.321,147.326 63.321,146.538C63.321,145.96 63.55,145.481 64.008,145.099C64.469,144.718 65.045,144.527 65.735,144.527C66.302,144.527 66.887,144.687 67.49,145.007L66.743,146.603C66.377,146.258 66.077,146.086 65.844,146.086C65.615,146.086 65.501,146.178 65.501,146.364C65.501,146.563 65.719,146.75 66.155,146.925C66.7,147.139 67.07,147.366 67.267,147.606C67.474,147.846 67.577,148.176 67.577,148.598C67.577,149.205 67.357,149.7 66.918,150.086C66.478,150.471 65.913,150.663 65.223,150.663C64.892,150.663 64.564,150.621 64.237,150.538C64.084,150.498 63.917,150.438 63.735,150.358C63.554,150.275 63.348,150.175 63.12,150.058L63.12,150.058Z" style="fill:rgb(44,45,48);fill-rule:nonzero;"/>
            <path id="path1582" d="M71.337,148.549L73.474,148.592C73.321,149.279 73.023,149.797 72.58,150.146C72.14,150.491 71.564,150.663 70.852,150.663C70.01,150.663 69.348,150.402 68.869,149.878C68.393,149.348 68.155,148.623 68.155,147.704C68.155,146.77 68.411,146.009 68.923,145.421C69.436,144.829 70.097,144.532 70.907,144.532C71.713,144.532 72.356,144.818 72.836,145.388C73.316,145.962 73.555,146.723 73.555,147.671L73.544,148.058L70.34,148.058C70.366,148.661 70.536,148.963 70.852,148.963C71.099,148.963 71.261,148.825 71.337,148.549L71.337,148.549ZM71.386,146.881C71.386,146.772 71.374,146.672 71.348,146.582C71.323,146.491 71.287,146.413 71.239,146.347C71.196,146.282 71.143,146.231 71.081,146.195C71.02,146.155 70.952,146.135 70.88,146.135C70.727,146.135 70.604,146.206 70.509,146.347C70.415,146.485 70.367,146.663 70.367,146.881L71.386,146.881Z" style="fill:rgb(44,45,48);fill-rule:nonzero;"/>
            <path id="path1584" d="M76.912,150.543L74.722,150.543L74.722,146.413L74.1,146.413L74.1,144.652L74.722,144.652L74.722,142.919L76.912,142.919L76.912,144.652L77.637,144.652L77.637,146.413L76.912,146.413L76.912,150.543Z" style="fill:rgb(44,45,48);fill-rule:nonzero;"/>
        </g>
        <g id="text1436" transform="matrix(0.920745,0,0,1.08608,0,0)">
            <path id="path1533" d="M10.861,183.552L11.639,181.954C12.022,182.355 12.379,182.556 12.71,182.556C12.987,182.556 13.125,182.456 13.125,182.257C13.125,182.087 12.939,181.934 12.566,181.799C11.561,181.444 11.058,180.881 11.058,180.11C11.058,179.545 11.282,179.076 11.729,178.703C12.18,178.33 12.743,178.144 13.418,178.144C13.973,178.144 14.544,178.3 15.134,178.613L14.404,180.174C14.045,179.837 13.752,179.668 13.525,179.668C13.301,179.668 13.189,179.758 13.189,179.94C13.189,180.135 13.402,180.318 13.829,180.488C14.362,180.698 14.724,180.92 14.916,181.154C15.118,181.389 15.219,181.712 15.219,182.124C15.219,182.717 15.004,183.202 14.575,183.579C14.145,183.955 13.592,184.144 12.918,184.144C12.594,184.144 12.273,184.103 11.953,184.021C11.804,183.982 11.64,183.923 11.463,183.845C11.285,183.764 11.085,183.666 10.861,183.552L10.861,183.552Z" style="fill:white;fill-rule:nonzero;"/>
            <path id="path1535" d="M18.896,182.076L20.985,182.119C20.836,182.79 20.544,183.296 20.111,183.638C19.681,183.975 19.118,184.144 18.422,184.144C17.598,184.144 16.951,183.888 16.482,183.376C16.017,182.858 15.784,182.149 15.784,181.25C15.784,180.337 16.035,179.593 16.536,179.018C17.036,178.439 17.683,178.149 18.475,178.149C19.264,178.149 19.892,178.428 20.361,178.986C20.83,179.547 21.065,180.291 21.065,181.218L21.054,181.597L17.921,181.597C17.946,182.186 18.113,182.481 18.422,182.481C18.663,182.481 18.821,182.346 18.896,182.076L18.896,182.076ZM18.944,180.446C18.944,180.339 18.931,180.242 18.907,180.153C18.882,180.064 18.846,179.988 18.8,179.924C18.757,179.86 18.706,179.81 18.646,179.774C18.585,179.735 18.519,179.716 18.448,179.716C18.299,179.716 18.178,179.785 18.086,179.924C17.994,180.059 17.948,180.233 17.948,180.446L18.944,180.446Z" style="fill:white;fill-rule:nonzero;"/>
            <path id="path1537" d="M29.958,184.026L27.821,184.026L27.821,180.765C27.821,180.4 27.713,180.217 27.496,180.217C27.173,180.217 27.011,180.515 27.011,181.112L27.011,184.026L24.874,184.026L24.874,180.845C24.874,180.455 24.754,180.259 24.512,180.259C24.338,180.259 24.214,180.327 24.139,180.462C24.068,180.593 24.033,180.826 24.033,181.16L24.033,184.026L21.896,184.026L21.896,178.266L24.033,178.266L24.033,178.565C24.033,178.799 24.022,179.02 24.001,179.226C24.381,178.504 24.876,178.144 25.487,178.144C26.173,178.144 26.681,178.542 27.011,179.337C27.299,178.542 27.775,178.144 28.439,178.144C28.94,178.144 29.331,178.327 29.611,178.693C29.842,178.998 29.958,179.458 29.958,180.073L29.958,184.026Z" style="fill:white;fill-rule:nonzero;"/>
            <path id="path1539" d="M33.091,184.026L30.949,184.026L30.949,178.266L33.091,178.266L33.091,184.026ZM33.272,176.481C33.272,176.819 33.149,177.11 32.904,177.355C32.652,177.597 32.359,177.718 32.025,177.718C31.681,177.718 31.386,177.595 31.141,177.35C30.899,177.098 30.778,176.803 30.778,176.465C30.778,176.121 30.899,175.828 31.141,175.586C31.393,175.345 31.686,175.224 32.02,175.224C32.371,175.224 32.668,175.347 32.91,175.592C33.151,175.833 33.272,176.13 33.272,176.481L33.272,176.481Z" style="fill:white;fill-rule:nonzero;"/>
            <path id="path1541" d="M36.517,184.026L34.375,184.026L34.375,179.988L33.767,179.988L33.767,178.266L34.375,178.266L34.375,176.572L36.517,176.572L36.517,178.266L37.226,178.266L37.226,179.988L36.517,179.988L36.517,184.026Z" style="fill:white;fill-rule:nonzero;"/>
            <path id="path1543" d="M43.05,181.234C43.05,182.122 42.804,182.829 42.314,183.355C41.824,183.881 41.167,184.144 40.343,184.144C39.533,184.144 38.888,183.875 38.409,183.339C37.933,182.799 37.695,182.075 37.695,181.165C37.695,180.256 37.938,179.526 38.425,178.975C38.908,178.421 39.549,178.144 40.348,178.144C41.19,178.144 41.851,178.419 42.33,178.97C42.81,179.52 43.05,180.275 43.05,181.234ZM40.977,181.165C40.977,180.952 40.963,180.76 40.934,180.59C40.906,180.416 40.865,180.268 40.812,180.147C40.758,180.023 40.694,179.927 40.62,179.86C40.545,179.792 40.462,179.758 40.369,179.758C40.188,179.758 40.043,179.886 39.932,180.142C39.822,180.366 39.767,180.702 39.767,181.149C39.767,181.59 39.822,181.925 39.932,182.156C40.043,182.412 40.19,182.54 40.375,182.54C40.549,182.54 40.693,182.414 40.806,182.162C40.92,181.881 40.977,181.549 40.977,181.165L40.977,181.165Z" style="fill:white;fill-rule:nonzero;"/>
            <path id="path1545" d="M48.937,184.026L46.801,184.026L46.801,180.979C46.801,180.716 46.774,180.533 46.721,180.43C46.671,180.327 46.582,180.275 46.454,180.275C46.156,180.275 46.007,180.558 46.007,181.123L46.007,184.026L43.87,184.026L43.87,178.266L46.007,178.266C46.003,178.409 46,178.54 45.996,178.661C45.993,178.782 45.987,178.893 45.98,178.996L45.959,179.364C46.304,178.551 46.808,178.144 47.472,178.144C47.934,178.144 48.293,178.316 48.549,178.661C48.808,179.005 48.938,179.485 48.938,180.099L48.937,184.026Z" style="fill:white;fill-rule:nonzero;"/>
            <path id="path1547" d="M52.87,182.076L54.958,182.119C54.809,182.79 54.518,183.296 54.085,183.638C53.655,183.975 53.092,184.144 52.396,184.144C51.571,184.144 50.925,183.888 50.456,183.376C49.991,182.858 49.758,182.149 49.758,181.25C49.758,180.337 50.008,179.593 50.509,179.018C51.01,178.439 51.657,178.149 52.449,178.149C53.237,178.149 53.866,178.428 54.335,178.986C54.804,179.547 55.038,180.291 55.038,181.218L55.028,181.597L51.895,181.597C51.92,182.186 52.087,182.481 52.396,182.481C52.637,182.481 52.795,182.346 52.87,182.076L52.87,182.076ZM52.918,180.446C52.918,180.339 52.905,180.242 52.88,180.153C52.855,180.064 52.82,179.988 52.774,179.924C52.731,179.86 52.68,179.81 52.619,179.774C52.559,179.735 52.493,179.716 52.422,179.716C52.273,179.716 52.152,179.785 52.06,179.924C51.967,180.059 51.921,180.233 51.921,180.446L52.918,180.446Z" style="fill:white;fill-rule:nonzero;"/>
            <path id="path1549" d="M64.342,181.234C64.342,182.122 64.097,182.829 63.606,183.355C63.116,183.881 62.459,184.144 61.635,184.144C60.825,184.144 60.18,183.875 59.701,183.339C59.225,182.799 58.987,182.075 58.987,181.165C58.987,180.256 59.23,179.526 59.717,178.975C60.2,178.421 60.841,178.144 61.64,178.144C62.482,178.144 63.143,178.419 63.622,178.97C64.102,179.52 64.342,180.275 64.342,181.234ZM62.269,181.165C62.269,180.952 62.255,180.76 62.226,180.59C62.198,180.416 62.157,180.268 62.104,180.147C62.051,180.023 61.987,179.927 61.912,179.86C61.837,179.792 61.754,179.758 61.662,179.758C61.48,179.758 61.335,179.886 61.225,180.142C61.115,180.366 61.059,180.702 61.059,181.149C61.059,181.59 61.115,181.925 61.225,182.156C61.335,182.412 61.482,182.54 61.667,182.54C61.841,182.54 61.985,182.414 62.099,182.162C62.212,181.881 62.269,181.549 62.269,181.165L62.269,181.165Z" style="fill:white;fill-rule:nonzero;"/>
            <path id="path1551" d="M67.544,184.026L65.407,184.026L65.407,179.988L64.789,179.988L64.789,178.266L65.407,178.266L65.407,177.206C65.407,176.464 65.567,175.901 65.887,175.517C66.21,175.133 66.683,174.942 67.304,174.942C67.613,174.942 67.949,174.991 68.311,175.091L68.311,177.073C68.123,176.938 67.978,176.87 67.874,176.87C67.654,176.87 67.544,177.068 67.544,177.462L67.544,178.266L68.311,178.266L68.311,179.988L67.544,179.988L67.544,184.026Z" style="fill:white;fill-rule:nonzero;"/>
            <path id="path1553" d="M71.508,184.026L69.372,184.026L69.372,179.988L68.754,179.988L68.754,178.266L69.372,178.266L69.372,177.206C69.372,176.464 69.532,175.901 69.851,175.517C70.175,175.133 70.647,174.942 71.269,174.942C71.578,174.942 71.913,174.991 72.276,175.091L72.276,177.073C72.087,176.938 71.942,176.87 71.839,176.87C71.619,176.87 71.508,177.068 71.508,177.462L71.508,178.266L72.276,178.266L72.276,179.988L71.508,179.988L71.508,184.026Z" style="fill:white;fill-rule:nonzero;"/>
            <path id="path1555" d="M72.691,183.552L73.469,181.954C73.853,182.355 74.21,182.556 74.54,182.556C74.817,182.556 74.956,182.456 74.956,182.257C74.956,182.087 74.769,181.934 74.396,181.799C73.391,181.444 72.888,180.881 72.888,180.11C72.888,179.545 73.112,179.076 73.56,178.703C74.011,178.33 74.574,178.144 75.249,178.144C75.803,178.144 76.375,178.3 76.965,178.613L76.235,180.174C75.876,179.837 75.583,179.668 75.356,179.668C75.132,179.668 75.02,179.758 75.02,179.94C75.02,180.135 75.233,180.318 75.659,180.488C76.192,180.698 76.554,180.92 76.746,181.154C76.949,181.389 77.05,181.712 77.05,182.124C77.05,182.717 76.835,183.202 76.405,183.579C75.975,183.955 75.423,184.144 74.748,184.144C74.425,184.144 74.103,184.103 73.784,184.021C73.634,183.982 73.471,183.923 73.293,183.845C73.116,183.764 72.915,183.666 72.691,183.552L72.691,183.552Z" style="fill:white;fill-rule:nonzero;"/>
            <path id="path1557" d="M80.727,182.076L82.815,182.119C82.666,182.79 82.375,183.296 81.941,183.638C81.512,183.975 80.949,184.144 80.252,184.144C79.428,184.144 78.782,183.888 78.313,183.376C77.847,182.858 77.615,182.149 77.615,181.25C77.615,180.337 77.865,179.593 78.366,179.018C78.867,178.439 79.513,178.149 80.306,178.149C81.094,178.149 81.723,178.428 82.192,178.986C82.661,179.547 82.895,180.291 82.895,181.218L82.885,181.597L79.752,181.597C79.776,182.186 79.943,182.481 80.252,182.481C80.494,182.481 80.652,182.346 80.727,182.076L80.727,182.076ZM80.775,180.446C80.775,180.339 80.762,180.242 80.737,180.153C80.712,180.064 80.677,179.988 80.631,179.924C80.588,179.86 80.536,179.81 80.476,179.774C80.416,179.735 80.35,179.716 80.279,179.716C80.13,179.716 80.009,179.785 79.917,179.924C79.824,180.059 79.778,180.233 79.778,180.446L80.775,180.446Z" style="fill:white;fill-rule:nonzero;"/>
            <path id="path1559" d="M86.177,184.026L84.035,184.026L84.035,179.988L83.428,179.988L83.428,178.266L84.035,178.266L84.035,176.572L86.177,176.572L86.177,178.266L86.886,178.266L86.886,179.988L86.177,179.988L86.177,184.026Z" style="fill:white;fill-rule:nonzero;"/>
        </g>
        <g id="text1440" transform="matrix(0.920745,0,0,1.08608,0,0)">
            <path id="path1504" d="M10.861,183.557L11.639,181.959C12.022,182.36 12.379,182.561 12.71,182.561C12.987,182.561 13.125,182.462 13.125,182.263C13.125,182.092 12.939,181.939 12.566,181.804C11.561,181.449 11.058,180.886 11.058,180.115C11.058,179.551 11.282,179.082 11.729,178.709C12.18,178.336 12.743,178.149 13.418,178.149C13.973,178.149 14.544,178.305 15.134,178.618L14.404,180.179C14.045,179.842 13.752,179.673 13.525,179.673C13.301,179.673 13.189,179.764 13.189,179.945C13.189,180.14 13.402,180.323 13.829,180.494C14.362,180.703 14.724,180.925 14.916,181.16C15.118,181.394 15.219,181.717 15.219,182.129C15.219,182.723 15.004,183.208 14.575,183.584C14.145,183.961 13.592,184.149 12.918,184.149C12.594,184.149 12.273,184.108 11.953,184.026C11.804,183.987 11.64,183.929 11.463,183.851C11.285,183.769 11.085,183.671 10.861,183.558L10.861,183.557Z" style="fill:rgb(44,45,48);fill-rule:nonzero;"/>
            <path id="path1506" d="M18.896,182.082L20.985,182.124C20.836,182.796 20.544,183.302 20.111,183.643C19.681,183.98 19.118,184.149 18.422,184.149C17.598,184.149 16.951,183.893 16.482,183.382C16.017,182.863 15.784,182.154 15.784,181.256C15.784,180.343 16.035,179.599 16.536,179.023C17.036,178.444 17.683,178.155 18.475,178.155C19.264,178.155 19.892,178.433 20.361,178.991C20.83,179.552 21.065,180.297 21.065,181.224L21.054,181.602L17.921,181.602C17.946,182.192 18.113,182.486 18.422,182.486C18.663,182.486 18.821,182.351 18.896,182.082ZM18.944,180.451C18.944,180.344 18.931,180.247 18.907,180.158C18.882,180.069 18.846,179.993 18.8,179.929C18.757,179.865 18.706,179.815 18.646,179.78C18.585,179.741 18.519,179.721 18.448,179.721C18.299,179.721 18.178,179.79 18.086,179.929C17.994,180.064 17.948,180.238 17.948,180.451L18.944,180.451Z" style="fill:rgb(44,45,48);fill-rule:nonzero;"/>
            <path id="path1508" d="M29.958,184.032L27.821,184.032L27.821,180.771C27.821,180.405 27.713,180.222 27.496,180.222C27.173,180.222 27.011,180.52 27.011,181.117L27.011,184.032L24.874,184.032L24.874,180.851C24.874,180.46 24.754,180.265 24.512,180.265C24.338,180.265 24.214,180.332 24.139,180.467C24.068,180.598 24.033,180.831 24.033,181.165L24.033,184.032L21.896,184.032L21.896,178.272L24.033,178.272L24.033,178.57C24.033,178.805 24.022,179.025 24.001,179.231C24.381,178.51 24.876,178.149 25.487,178.149C26.173,178.149 26.681,178.547 27.011,179.343C27.299,178.547 27.775,178.149 28.439,178.149C28.94,178.149 29.331,178.332 29.611,178.698C29.842,179.003 29.958,179.464 29.958,180.078L29.958,184.032Z" style="fill:rgb(44,45,48);fill-rule:nonzero;"/>
            <path id="path1510" d="M33.091,184.032L30.949,184.032L30.949,178.272L33.091,178.272L33.091,184.032ZM33.272,176.487C33.272,176.824 33.149,177.115 32.904,177.361C32.652,177.602 32.359,177.723 32.025,177.723C31.681,177.723 31.386,177.6 31.141,177.355C30.899,177.103 30.778,176.808 30.778,176.471C30.778,176.126 30.899,175.833 31.141,175.592C31.393,175.35 31.686,175.229 32.02,175.229C32.371,175.229 32.668,175.352 32.91,175.597C33.151,175.838 33.272,176.135 33.272,176.487L33.272,176.487Z" style="fill:rgb(44,45,48);fill-rule:nonzero;"/>
            <path id="path1512" d="M36.517,184.032L34.375,184.032L34.375,179.993L33.767,179.993L33.767,178.272L34.375,178.272L34.375,176.577L36.517,176.577L36.517,178.272L37.226,178.272L37.226,179.993L36.517,179.993L36.517,184.032Z" style="fill:rgb(44,45,48);fill-rule:nonzero;"/>
            <path id="path1514" d="M43.05,181.24C43.05,182.128 42.804,182.835 42.314,183.36C41.824,183.886 41.167,184.149 40.343,184.149C39.533,184.149 38.888,183.881 38.409,183.344C37.933,182.804 37.695,182.08 37.695,181.17C37.695,180.261 37.938,179.531 38.425,178.98C38.908,178.426 39.549,178.149 40.348,178.149C41.19,178.149 41.851,178.424 42.33,178.975C42.81,179.526 43.05,180.281 43.05,181.24ZM40.977,181.17C40.977,180.957 40.963,180.765 40.934,180.595C40.906,180.421 40.865,180.273 40.812,180.153C40.758,180.028 40.694,179.932 40.62,179.865C40.545,179.797 40.462,179.764 40.369,179.764C40.188,179.764 40.043,179.892 39.932,180.147C39.822,180.371 39.767,180.707 39.767,181.154C39.767,181.595 39.822,181.931 39.932,182.161C40.043,182.417 40.19,182.545 40.375,182.545C40.549,182.545 40.693,182.419 40.806,182.167C40.92,181.886 40.977,181.554 40.977,181.17L40.977,181.17Z" style="fill:rgb(44,45,48);fill-rule:nonzero;"/>
            <path id="path1516" d="M48.937,184.032L46.801,184.032L46.801,180.984C46.801,180.721 46.774,180.538 46.721,180.435C46.671,180.332 46.582,180.281 46.454,180.281C46.156,180.281 46.007,180.563 46.007,181.128L46.007,184.032L43.87,184.032L43.87,178.272L46.007,178.272C46.003,178.414 46,178.545 45.996,178.666C45.993,178.787 45.987,178.899 45.98,179.002L45.959,179.369C46.304,178.556 46.808,178.149 47.472,178.149C47.934,178.149 48.293,178.322 48.549,178.666C48.808,179.011 48.938,179.49 48.938,180.105L48.937,184.032Z" style="fill:rgb(44,45,48);fill-rule:nonzero;"/>
            <path id="path1518" d="M52.87,182.082L54.958,182.124C54.809,182.796 54.518,183.302 54.085,183.643C53.655,183.98 53.092,184.149 52.396,184.149C51.571,184.149 50.925,183.893 50.456,183.382C49.991,182.863 49.758,182.154 49.758,181.256C49.758,180.343 50.008,179.599 50.509,179.023C51.01,178.444 51.657,178.155 52.449,178.155C53.237,178.155 53.866,178.433 54.335,178.991C54.804,179.552 55.038,180.297 55.038,181.224L55.028,181.602L51.895,181.602C51.92,182.192 52.087,182.486 52.396,182.486C52.637,182.486 52.795,182.352 52.87,182.082L52.87,182.082ZM52.918,180.451C52.918,180.344 52.905,180.247 52.88,180.158C52.855,180.069 52.82,179.993 52.774,179.929C52.731,179.865 52.68,179.815 52.619,179.78C52.559,179.741 52.493,179.721 52.422,179.721C52.273,179.721 52.152,179.79 52.06,179.929C51.967,180.064 51.921,180.238 51.921,180.451L52.918,180.451Z" style="fill:rgb(44,45,48);fill-rule:nonzero;"/>
            <path id="path1520" d="M64.342,181.24C64.342,182.128 64.097,182.835 63.606,183.36C63.116,183.886 62.459,184.149 61.635,184.149C60.825,184.149 60.18,183.881 59.701,183.344C59.225,182.804 58.987,182.08 58.987,181.17C58.987,180.261 59.23,179.531 59.717,178.98C60.2,178.426 60.841,178.149 61.64,178.149C62.482,178.149 63.143,178.424 63.622,178.975C64.102,179.526 64.342,180.281 64.342,181.24ZM62.269,181.17C62.269,180.957 62.255,180.765 62.226,180.595C62.198,180.421 62.157,180.273 62.104,180.153C62.051,180.028 61.987,179.932 61.912,179.865C61.837,179.797 61.754,179.764 61.662,179.764C61.48,179.764 61.335,179.892 61.225,180.147C61.115,180.371 61.059,180.707 61.059,181.154C61.059,181.595 61.115,181.931 61.225,182.161C61.335,182.417 61.482,182.545 61.667,182.545C61.841,182.545 61.985,182.419 62.099,182.167C62.212,181.886 62.269,181.554 62.269,181.17L62.269,181.17Z" style="fill:rgb(44,45,48);fill-rule:nonzero;"/>
            <path id="path1522" d="M67.544,184.032L65.407,184.032L65.407,179.993L64.789,179.993L64.789,178.272L65.407,178.272L65.407,177.211C65.407,176.469 65.567,175.906 65.887,175.522C66.21,175.139 66.683,174.947 67.304,174.947C67.613,174.947 67.949,174.997 68.311,175.096L68.311,177.078C68.123,176.943 67.978,176.876 67.874,176.876C67.654,176.876 67.544,177.073 67.544,177.467L67.544,178.272L68.311,178.272L68.311,179.993L67.544,179.993L67.544,184.032Z" style="fill:rgb(44,45,48);fill-rule:nonzero;"/>
            <path id="path1524" d="M71.508,184.032L69.372,184.032L69.372,179.993L68.754,179.993L68.754,178.272L69.372,178.272L69.372,177.211C69.372,176.469 69.532,175.906 69.851,175.522C70.175,175.139 70.647,174.947 71.269,174.947C71.578,174.947 71.913,174.997 72.276,175.096L72.276,177.078C72.087,176.943 71.942,176.876 71.839,176.876C71.619,176.876 71.508,177.073 71.508,177.467L71.508,178.272L72.276,178.272L72.276,179.993L71.508,179.993L71.508,184.032Z" style="fill:rgb(44,45,48);fill-rule:nonzero;"/>
            <path id="path1526" d="M72.691,183.557L73.469,181.959C73.853,182.36 74.21,182.561 74.54,182.561C74.817,182.561 74.956,182.462 74.956,182.263C74.956,182.092 74.769,181.939 74.396,181.804C73.391,181.449 72.888,180.886 72.888,180.115C72.888,179.551 73.112,179.082 73.56,178.709C74.011,178.336 74.574,178.149 75.249,178.149C75.803,178.149 76.375,178.305 76.965,178.618L76.235,180.179C75.876,179.842 75.583,179.673 75.356,179.673C75.132,179.673 75.02,179.764 75.02,179.945C75.02,180.14 75.233,180.323 75.659,180.494C76.192,180.703 76.554,180.925 76.746,181.16C76.949,181.394 77.05,181.717 77.05,182.129C77.05,182.723 76.835,183.208 76.405,183.584C75.975,183.961 75.423,184.149 74.748,184.149C74.425,184.149 74.103,184.108 73.784,184.026C73.634,183.987 73.471,183.929 73.293,183.851C73.116,183.769 72.915,183.671 72.691,183.558L72.691,183.557Z" style="fill:rgb(44,45,48);fill-rule:nonzero;"/>
            <path id="path1528" d="M80.727,182.082L82.815,182.124C82.666,182.796 82.375,183.302 81.941,183.643C81.512,183.98 80.949,184.149 80.252,184.149C79.428,184.149 78.782,183.893 78.313,183.382C77.847,182.863 77.615,182.154 77.615,181.256C77.615,180.343 77.865,179.599 78.366,179.023C78.867,178.444 79.513,178.155 80.306,178.155C81.094,178.155 81.723,178.433 82.192,178.991C82.661,179.552 82.895,180.297 82.895,181.224L82.885,181.602L79.752,181.602C79.776,182.192 79.943,182.486 80.252,182.486C80.494,182.486 80.652,182.352 80.727,182.082L80.727,182.082ZM80.775,180.451C80.775,180.344 80.762,180.247 80.737,180.158C80.712,180.069 80.677,179.993 80.631,179.929C80.588,179.865 80.536,179.815 80.476,179.78C80.416,179.741 80.35,179.721 80.279,179.721C80.13,179.721 80.009,179.79 79.917,179.929C79.824,180.064 79.778,180.238 79.778,180.451L80.775,180.451Z" style="fill:rgb(44,45,48);fill-rule:nonzero;"/>
            <path id="path1530" d="M86.177,184.032L84.035,184.032L84.035,179.993L83.428,179.993L83.428,178.272L84.035,178.272L84.035,176.577L86.177,176.577L86.177,178.272L86.886,178.272L86.886,179.993L86.177,179.993L86.177,184.032Z" style="fill:rgb(44,45,48);fill-rule:nonzero;"/>
        </g>
        <g id="text1444" transform="matrix(0.906683,0,0,1.10292,0,0)">
            <path id="path1483" d="M27.528,217.489L25.424,217.489L25.424,213.511L24.816,213.511L24.816,211.816L25.424,211.816L25.424,210.772C25.424,210.041 25.582,209.487 25.897,209.109C26.215,208.731 26.68,208.542 27.292,208.542C27.597,208.542 27.927,208.591 28.284,208.689L28.284,210.641C28.099,210.508 27.955,210.442 27.854,210.442C27.637,210.442 27.528,210.636 27.528,211.024L27.528,211.816L28.284,211.816L28.284,213.511L27.528,213.511L27.528,217.489Z" style="fill:rgb(44,45,48);fill-rule:nonzero;"/>
            <path id="path1485" d="M31.107,217.489L28.998,217.489L28.998,211.816L31.107,211.816L31.107,217.489ZM31.285,210.059C31.285,210.391 31.165,210.678 30.923,210.919C30.675,211.157 30.386,211.276 30.057,211.276C29.718,211.276 29.428,211.155 29.186,210.914C28.949,210.666 28.83,210.375 28.83,210.043C28.83,209.704 28.949,209.415 29.186,209.177C29.435,208.939 29.723,208.82 30.052,208.82C30.399,208.82 30.691,208.941 30.928,209.183C31.166,209.42 31.285,209.712 31.285,210.059L31.285,210.059Z" style="fill:rgb(44,45,48);fill-rule:nonzero;"/>
            <path id="path1487" d="M37.078,217.489L34.974,217.489L34.974,214.487C34.974,214.228 34.948,214.048 34.895,213.947C34.846,213.845 34.759,213.795 34.633,213.795C34.339,213.795 34.192,214.073 34.192,214.629L34.192,217.489L32.088,217.489L32.088,211.816L34.192,211.816C34.189,211.956 34.185,212.086 34.182,212.205C34.178,212.324 34.173,212.434 34.166,212.535L34.145,212.897C34.484,212.096 34.981,211.696 35.635,211.696C36.09,211.696 36.443,211.865 36.695,212.205C36.95,212.544 37.078,213.016 37.078,213.621L37.078,217.489Z" style="fill:rgb(44,45,48);fill-rule:nonzero;"/>
            <path id="path1489" d="M40.95,215.568L43.007,215.61C42.86,216.271 42.573,216.77 42.147,217.106C41.723,217.438 41.169,217.604 40.483,217.604C39.672,217.604 39.035,217.352 38.573,216.848C38.115,216.338 37.886,215.64 37.886,214.755C37.886,213.856 38.133,213.123 38.626,212.556C39.119,211.986 39.756,211.701 40.536,211.701C41.312,211.701 41.931,211.976 42.393,212.525C42.855,213.078 43.086,213.81 43.086,214.723L43.075,215.096L39.99,215.096C40.014,215.677 40.179,215.967 40.483,215.967C40.721,215.967 40.877,215.834 40.95,215.568L40.95,215.568ZM40.998,213.963C40.998,213.858 40.985,213.761 40.961,213.674C40.936,213.587 40.901,213.511 40.856,213.448C40.814,213.385 40.763,213.336 40.704,213.301C40.644,213.263 40.58,213.244 40.51,213.244C40.363,213.244 40.244,213.312 40.153,213.448C40.062,213.581 40.016,213.753 40.016,213.963L40.998,213.963Z" style="fill:rgb(44,45,48);fill-rule:nonzero;"/>
            <path id="path1491" d="M52.247,214.739C52.247,215.614 52.006,216.31 51.523,216.827C51.04,217.345 50.393,217.604 49.582,217.604C48.784,217.604 48.149,217.34 47.677,216.812C47.208,216.28 46.974,215.566 46.974,214.671C46.974,213.775 47.213,213.057 47.693,212.514C48.168,211.969 48.8,211.696 49.587,211.696C50.416,211.696 51.067,211.967 51.539,212.509C52.011,213.051 52.247,213.795 52.247,214.739ZM50.206,214.671C50.206,214.461 50.192,214.272 50.164,214.104C50.136,213.933 50.096,213.788 50.043,213.669C49.991,213.546 49.928,213.452 49.854,213.385C49.781,213.319 49.699,213.286 49.608,213.286C49.429,213.286 49.286,213.412 49.178,213.663C49.069,213.884 49.015,214.214 49.015,214.655C49.015,215.089 49.069,215.419 49.178,215.647C49.286,215.899 49.431,216.025 49.613,216.025C49.784,216.025 49.926,215.9 50.038,215.652C50.15,215.376 50.206,215.049 50.206,214.671L50.206,214.671Z" style="fill:rgb(44,45,48);fill-rule:nonzero;"/>
            <path id="path1493" d="M55.401,217.489L53.296,217.489L53.296,213.511L52.688,213.511L52.688,211.816L53.296,211.816L53.296,210.772C53.296,210.041 53.454,209.487 53.769,209.109C54.087,208.731 54.552,208.542 55.164,208.542C55.469,208.542 55.799,208.591 56.156,208.689L56.156,210.641C55.971,210.508 55.827,210.442 55.726,210.442C55.509,210.442 55.401,210.636 55.401,211.024L55.401,211.816L56.156,211.816L56.156,213.511L55.401,213.511L55.401,217.489Z" style="fill:rgb(44,45,48);fill-rule:nonzero;"/>
            <path id="path1495" d="M59.304,217.489L57.2,217.489L57.2,213.511L56.592,213.511L56.592,211.816L57.2,211.816L57.2,210.772C57.2,210.041 57.358,209.487 57.672,209.109C57.991,208.731 58.456,208.542 59.068,208.542C59.373,208.542 59.703,208.591 60.06,208.689L60.06,210.641C59.874,210.508 59.731,210.442 59.63,210.442C59.413,210.442 59.304,210.636 59.304,211.024L59.304,211.816L60.06,211.816L60.06,213.511L59.304,213.511L59.304,217.489Z" style="fill:rgb(44,45,48);fill-rule:nonzero;"/>
            <path id="path1497" d="M60.469,217.022L61.235,215.447C61.613,215.843 61.965,216.04 62.29,216.04C62.563,216.04 62.699,215.942 62.699,215.747C62.699,215.579 62.515,215.428 62.148,215.295C61.158,214.945 60.663,214.391 60.663,213.632C60.663,213.076 60.884,212.614 61.324,212.247C61.769,211.879 62.323,211.696 62.988,211.696C63.533,211.696 64.097,211.85 64.677,212.158L63.958,213.695C63.605,213.363 63.317,213.196 63.093,213.196C62.872,213.196 62.762,213.286 62.762,213.464C62.762,213.656 62.972,213.837 63.392,214.005C63.916,214.211 64.273,214.43 64.462,214.66C64.662,214.891 64.761,215.21 64.761,215.615C64.761,216.2 64.55,216.677 64.126,217.048C63.703,217.419 63.159,217.604 62.494,217.604C62.176,217.604 61.86,217.564 61.545,217.483C61.398,217.445 61.237,217.387 61.062,217.31C60.887,217.23 60.69,217.133 60.469,217.022L60.469,217.022Z" style="fill:rgb(44,45,48);fill-rule:nonzero;"/>
            <path id="path1499" d="M68.382,215.568L70.438,215.61C70.292,216.271 70.005,216.77 69.578,217.106C69.155,217.438 68.6,217.604 67.915,217.604C67.103,217.604 66.466,217.352 66.005,216.848C65.547,216.338 65.317,215.64 65.317,214.755C65.317,213.856 65.564,213.123 66.057,212.556C66.55,211.986 67.187,211.701 67.967,211.701C68.744,211.701 69.363,211.976 69.825,212.525C70.286,213.078 70.517,213.81 70.517,214.723L70.507,215.096L67.421,215.096C67.446,215.677 67.61,215.967 67.915,215.967C68.153,215.967 68.308,215.834 68.382,215.568L68.382,215.568ZM68.429,213.963C68.429,213.858 68.417,213.761 68.392,213.674C68.368,213.587 68.333,213.511 68.287,213.448C68.245,213.385 68.195,213.336 68.135,213.301C68.076,213.263 68.011,213.244 67.941,213.244C67.794,213.244 67.675,213.312 67.584,213.448C67.493,213.581 67.448,213.753 67.448,213.963L68.429,213.963Z" style="fill:rgb(44,45,48);fill-rule:nonzero;"/>
            <path id="path1501" d="M73.749,217.489L71.64,217.489L71.64,213.511L71.042,213.511L71.042,211.816L71.64,211.816L71.64,210.148L73.749,210.148L73.749,211.816L74.447,211.816L74.447,213.511L73.749,213.511L73.749,217.489Z" style="fill:rgb(44,45,48);fill-rule:nonzero;"/>
        </g>
        <g id="text1448" transform="matrix(0.843398,0,0,1.18568,0,0)">
            <path id="path1450" d="M15.356,233.706L13.311,233.706L11.857,228.43L13.838,228.43L14.141,229.972C14.183,230.171 14.222,230.418 14.258,230.714C14.294,231.007 14.33,231.358 14.366,231.768C14.411,231.394 14.455,231.069 14.497,230.792C14.54,230.516 14.582,230.278 14.624,230.08L14.961,228.43L16.894,228.43L15.356,233.706Z" style="fill:rgb(44,45,48);fill-rule:nonzero;"/>
            <path id="path1452" d="M22.004,231.149C22.004,231.962 21.779,232.61 21.33,233.091C20.881,233.573 20.279,233.814 19.524,233.814C18.783,233.814 18.192,233.568 17.753,233.077C17.317,232.582 17.099,231.918 17.099,231.085C17.099,230.252 17.322,229.584 17.767,229.079C18.21,228.572 18.797,228.318 19.529,228.318C20.301,228.318 20.906,228.57 21.345,229.074C21.784,229.579 22.004,230.27 22.004,231.149ZM20.105,231.085C20.105,230.89 20.092,230.714 20.066,230.558C20.04,230.399 20.003,230.264 19.954,230.153C19.905,230.039 19.847,229.951 19.778,229.889C19.71,229.828 19.634,229.797 19.549,229.797C19.383,229.797 19.25,229.914 19.149,230.148C19.048,230.353 18.997,230.661 18.997,231.071C18.997,231.474 19.048,231.781 19.149,231.993C19.25,232.227 19.385,232.344 19.554,232.344C19.713,232.344 19.845,232.229 19.949,231.998C20.053,231.741 20.105,231.437 20.105,231.085L20.105,231.085Z" style="fill:rgb(44,45,48);fill-rule:nonzero;"/>
            <rect id="path1454" x="22.756" y="225.463" width="1.957" height="8.244" style="fill:rgb(44,45,48);fill-rule:nonzero;"/>
            <path id="path1456" d="M27.851,233.706L25.889,233.706L25.889,230.007L25.333,230.007L25.333,228.43L25.889,228.43L25.889,226.878L27.851,226.878L27.851,228.43L28.5,228.43L28.5,230.007L27.851,230.007L27.851,233.706Z" style="fill:rgb(44,45,48);fill-rule:nonzero;"/>
            <path id="path1458" d="M33.83,233.706L31.868,233.706C31.884,233.53 31.897,233.363 31.907,233.203C31.917,233.044 31.927,232.915 31.936,232.818C31.598,233.482 31.144,233.814 30.575,233.814C30.08,233.814 29.688,233.566 29.398,233.072C29.112,232.58 28.969,231.9 28.969,231.031C28.969,230.192 29.117,229.531 29.413,229.05C29.709,228.562 30.113,228.318 30.623,228.318C31.147,228.318 31.57,228.633 31.892,229.265C31.886,229.2 31.881,229.143 31.878,229.094C31.875,229.045 31.871,229.004 31.868,228.972L31.848,228.664L31.834,228.43L33.83,228.43L33.83,233.706ZM31.848,231.002C31.848,230.807 31.84,230.641 31.824,230.504C31.811,230.368 31.788,230.257 31.756,230.172C31.723,230.085 31.681,230.023 31.629,229.987C31.577,229.948 31.513,229.928 31.438,229.928C31.107,229.928 30.941,230.369 30.941,231.251C30.941,231.882 31.089,232.198 31.385,232.198C31.694,232.198 31.848,231.799 31.848,231.002L31.848,231.002Z" style="fill:rgb(44,45,48);fill-rule:nonzero;"/>
            <path id="path1460" d="M39.409,228.43L39.409,233.857C39.409,234.271 39.352,234.629 39.238,234.931C39.124,235.211 38.939,235.45 38.682,235.649C38.249,235.984 37.699,236.151 37.032,236.151C36.313,236.151 35.761,235.997 35.377,235.688C34.993,235.379 34.756,234.897 34.665,234.243L36.666,234.243C36.679,234.529 36.815,234.673 37.076,234.673C37.242,234.673 37.359,234.614 37.427,234.497C37.496,234.383 37.53,234.193 37.53,233.926L37.53,233.091C37.182,233.547 36.772,233.774 36.3,233.774C35.789,233.774 35.376,233.526 35.06,233.028C34.748,232.53 34.591,231.876 34.591,231.066C34.591,230.259 34.748,229.598 35.06,229.084C35.376,228.573 35.784,228.318 36.285,228.318C36.516,228.318 36.718,228.376 36.89,228.493C37.069,228.614 37.263,228.824 37.471,229.123L37.432,228.43L39.409,228.43ZM37.51,231.051C37.51,230.29 37.37,229.909 37.09,229.909C36.775,229.909 36.617,230.28 36.617,231.022C36.617,231.786 36.77,232.169 37.076,232.169C37.365,232.169 37.51,231.796 37.51,231.051Z" style="fill:rgb(44,45,48);fill-rule:nonzero;"/>
            <path id="path1462" d="M43.084,231.92L44.997,231.959C44.861,232.574 44.594,233.037 44.197,233.35C43.803,233.659 43.287,233.814 42.65,233.814C41.895,233.814 41.303,233.579 40.873,233.111C40.447,232.636 40.234,231.986 40.234,231.163C40.234,230.327 40.463,229.645 40.922,229.118C41.381,228.588 41.973,228.323 42.698,228.323C43.421,228.323 43.997,228.578 44.426,229.089C44.856,229.603 45.07,230.285 45.07,231.134L45.061,231.481L42.191,231.481C42.213,232.021 42.366,232.291 42.65,232.291C42.871,232.291 43.016,232.167 43.084,231.92L43.084,231.92ZM43.128,230.426C43.128,230.329 43.117,230.239 43.094,230.158C43.071,230.077 43.039,230.007 42.996,229.948C42.957,229.889 42.91,229.844 42.855,229.811C42.799,229.776 42.739,229.758 42.674,229.758C42.537,229.758 42.427,229.821 42.342,229.948C42.258,230.072 42.215,230.231 42.215,230.426L43.128,230.426Z" style="fill:rgb(44,45,48);fill-rule:nonzero;"/>
            <path id="path1464" d="M48.648,233.272L49.361,231.808C49.712,232.175 50.039,232.359 50.342,232.359C50.596,232.359 50.722,232.268 50.722,232.086C50.722,231.93 50.552,231.79 50.21,231.666C49.289,231.341 48.829,230.825 48.829,230.119C48.829,229.601 49.034,229.172 49.444,228.83C49.857,228.489 50.373,228.318 50.991,228.318C51.498,228.318 52.022,228.461 52.562,228.747L51.894,230.177C51.565,229.868 51.297,229.714 51.088,229.714C50.883,229.714 50.781,229.797 50.781,229.963C50.781,230.142 50.976,230.309 51.367,230.465C51.855,230.657 52.187,230.861 52.362,231.075C52.548,231.29 52.641,231.586 52.641,231.964C52.641,232.507 52.444,232.951 52.05,233.296C51.656,233.641 51.15,233.814 50.532,233.814C50.236,233.814 49.941,233.776 49.649,233.701C49.512,233.665 49.362,233.612 49.2,233.54C49.037,233.465 48.853,233.376 48.648,233.272L48.648,233.272Z" style="fill:rgb(44,45,48);fill-rule:nonzero;"/>
            <path id="path1466" d="M60.694,233.706L58.737,233.706L58.737,230.719C58.737,230.384 58.637,230.216 58.439,230.216C58.143,230.216 57.995,230.49 57.995,231.036L57.995,233.706L56.038,233.706L56.038,230.792C56.038,230.434 55.927,230.255 55.706,230.255C55.546,230.255 55.432,230.317 55.364,230.441C55.299,230.561 55.266,230.774 55.266,231.08L55.266,233.706L53.309,233.706L53.309,228.43L55.266,228.43L55.266,228.703C55.266,228.918 55.257,229.12 55.237,229.309C55.585,228.648 56.039,228.318 56.599,228.318C57.227,228.318 57.692,228.682 57.995,229.411C58.259,228.682 58.695,228.318 59.303,228.318C59.762,228.318 60.12,228.485 60.377,228.821C60.588,229.1 60.694,229.522 60.694,230.085L60.694,233.706Z" style="fill:rgb(44,45,48);fill-rule:nonzero;"/>
            <path id="path1468" d="M66.36,231.149C66.36,231.962 66.136,232.61 65.687,233.091C65.238,233.573 64.636,233.814 63.881,233.814C63.139,233.814 62.549,233.568 62.109,233.077C61.673,232.582 61.455,231.918 61.455,231.085C61.455,230.252 61.678,229.584 62.124,229.079C62.566,228.572 63.154,228.318 63.886,228.318C64.657,228.318 65.262,228.57 65.702,229.074C66.141,229.579 66.36,230.27 66.36,231.149ZM64.462,231.085C64.462,230.89 64.449,230.714 64.423,230.558C64.397,230.399 64.359,230.264 64.311,230.153C64.262,230.039 64.203,229.951 64.135,229.889C64.066,229.828 63.99,229.797 63.905,229.797C63.739,229.797 63.606,229.914 63.505,230.148C63.404,230.353 63.354,230.661 63.354,231.071C63.354,231.474 63.404,231.781 63.505,231.993C63.606,232.227 63.741,232.344 63.91,232.344C64.07,232.344 64.202,232.229 64.306,231.998C64.41,231.741 64.462,231.437 64.462,231.085L64.462,231.085Z" style="fill:rgb(44,45,48);fill-rule:nonzero;"/>
            <path id="path1470" d="M71.866,231.149C71.866,231.962 71.641,232.61 71.192,233.091C70.743,233.573 70.141,233.814 69.386,233.814C68.645,233.814 68.054,233.568 67.615,233.077C67.179,232.582 66.961,231.918 66.961,231.085C66.961,230.252 67.184,229.584 67.629,229.079C68.072,228.572 68.659,228.318 69.391,228.318C70.163,228.318 70.768,228.57 71.207,229.074C71.646,229.579 71.866,230.27 71.866,231.149ZM69.967,231.085C69.967,230.89 69.954,230.714 69.928,230.558C69.902,230.399 69.865,230.264 69.816,230.153C69.767,230.039 69.709,229.951 69.64,229.889C69.572,229.828 69.496,229.797 69.411,229.797C69.245,229.797 69.112,229.914 69.011,230.148C68.91,230.353 68.859,230.661 68.859,231.071C68.859,231.474 68.91,231.781 69.011,231.993C69.112,232.227 69.247,232.344 69.416,232.344C69.575,232.344 69.707,232.229 69.811,231.998C69.915,231.741 69.967,231.437 69.967,231.085L69.967,231.085Z" style="fill:rgb(44,45,48);fill-rule:nonzero;"/>
            <path id="path1472" d="M74.863,233.706L72.901,233.706L72.901,230.007L72.344,230.007L72.344,228.43L72.901,228.43L72.901,226.878L74.863,226.878L74.863,228.43L75.512,228.43L75.512,230.007L74.863,230.007L74.863,233.706Z" style="fill:rgb(44,45,48);fill-rule:nonzero;"/>
            <path id="path1474" d="M80.871,233.706L78.914,233.706L78.914,230.914C78.914,230.674 78.889,230.506 78.841,230.412C78.795,230.317 78.714,230.27 78.597,230.27C78.323,230.27 78.187,230.529 78.187,231.046L78.187,233.706L76.229,233.706L76.229,225.463L78.187,225.463L78.187,228.411C78.187,228.57 78.185,228.703 78.182,228.811C78.182,228.918 78.18,228.999 78.177,229.055C78.173,229.11 78.169,229.169 78.162,229.23C78.155,229.292 78.149,229.361 78.142,229.435C78.458,228.69 78.92,228.318 79.528,228.318C79.951,228.318 80.28,228.476 80.514,228.791C80.752,229.107 80.871,229.546 80.871,230.109L80.871,233.706Z" style="fill:rgb(44,45,48);fill-rule:nonzero;"/>
            <path id="path1476" d="M83.731,233.706L81.769,233.706L81.769,228.43L83.731,228.43L83.731,233.706ZM83.897,226.795C83.897,227.104 83.785,227.371 83.56,227.595C83.329,227.817 83.061,227.927 82.755,227.927C82.439,227.927 82.169,227.815 81.945,227.591C81.724,227.359 81.613,227.089 81.613,226.78C81.613,226.465 81.724,226.196 81.945,225.975C82.176,225.754 82.444,225.643 82.75,225.643C83.072,225.643 83.344,225.755 83.565,225.98C83.786,226.201 83.897,226.473 83.897,226.795L83.897,226.795Z" style="fill:rgb(44,45,48);fill-rule:nonzero;"/>
            <path id="path1478" d="M89.285,233.706L87.328,233.706L87.328,230.914C87.328,230.674 87.304,230.506 87.255,230.412C87.209,230.317 87.128,230.27 87.011,230.27C86.738,230.27 86.601,230.529 86.601,231.046L86.601,233.706L84.644,233.706L84.644,228.43L86.601,228.43C86.598,228.56 86.594,228.681 86.591,228.791C86.588,228.902 86.583,229.004 86.576,229.099L86.557,229.436C86.872,228.69 87.334,228.318 87.943,228.318C88.366,228.318 88.695,228.476 88.929,228.791C89.166,229.107 89.285,229.546 89.285,230.109L89.285,233.706Z" style="fill:rgb(44,45,48);fill-rule:nonzero;"/>
            <path id="path1480" d="M94.854,228.43L94.854,233.857C94.854,234.271 94.797,234.629 94.684,234.931C94.57,235.211 94.384,235.45 94.127,235.649C93.694,235.984 93.144,236.151 92.477,236.151C91.758,236.151 91.207,235.997 90.823,235.688C90.439,235.379 90.201,234.897 90.11,234.243L92.111,234.243C92.124,234.529 92.261,234.673 92.521,234.673C92.687,234.673 92.804,234.614 92.873,234.497C92.941,234.383 92.975,234.193 92.975,233.926L92.975,233.091C92.627,233.547 92.217,233.774 91.745,233.774C91.234,233.774 90.821,233.526 90.506,233.028C90.193,232.53 90.037,231.876 90.037,231.066C90.037,230.259 90.193,229.598 90.506,229.084C90.821,228.573 91.23,228.318 91.731,228.318C91.962,228.318 92.163,228.376 92.336,228.493C92.515,228.614 92.708,228.824 92.917,229.123L92.878,228.43L94.854,228.43ZM92.956,231.051C92.956,230.29 92.816,229.909 92.536,229.909C92.22,229.909 92.063,230.28 92.063,231.022C92.063,231.786 92.216,232.169 92.521,232.169C92.811,232.169 92.956,231.796 92.956,231.051Z" style="fill:rgb(44,45,48);fill-rule:nonzero;"/>
        </g>
    </g>
</svg>
