<?xml version="1.0" encoding="UTF-8" standalone="no"?>
<!DOCTYPE svg PUBLIC "-//W3C//DTD SVG 1.1//EN" "http://www.w3.org/Graphics/SVG/1.1/DTD/svg11.dtd">
<svg width="100%" height="100%" viewBox="0 0 90 380" version="1.1" xmlns="http://www.w3.org/2000/svg" xmlns:xlink="http://www.w3.org/1999/xlink" xml:space="preserve" xmlns:serif="http://www.serif.com/" style="fill-rule:evenodd;clip-rule:evenodd;stroke-linejoin:round;stroke-miterlimit:2;">
    <g id="Layer-2" serif:id="Layer 2">
        <g id="text989">
        </g>
        <g id="g1290" transform="matrix(1.875,0,0,1,-416.25,0)">
            <path id="rect1280" d="M222.676,0L269.324,0C269.698,0 270,0.302 270,0.676L270,379.324C270,379.698 269.698,380 269.324,380L222.676,380C222.302,380 222,379.698 222,379.324L222,0.676C222,0.302 222.302,0 222.676,0Z" style="fill:rgb(44,45,48);fill-rule:nonzero;"/>
            <g id="text1164" transform="matrix(0.835383,0,0,1.19706,-33.0673,0)">
                <path id="path1166" d="M320.742,12.192L323.209,12.192L323.209,12.583C323.209,14.545 323.037,15.87 322.693,16.558C322.354,17.263 321.719,17.615 320.788,17.615C319.826,17.615 319.141,17.223 318.732,16.44C318.327,15.657 318.125,14.341 318.125,12.492C318.125,10.377 318.347,8.97 318.791,8.269C319.208,7.612 319.85,7.284 320.716,7.284C321.377,7.284 321.893,7.443 322.263,7.76C322.637,8.082 322.928,8.611 323.137,9.346L321.871,9.875C321.814,9.609 321.751,9.387 321.682,9.209C321.612,9.026 321.536,8.885 321.453,8.785C321.288,8.58 321.04,8.478 320.709,8.478C320.257,8.478 319.948,8.757 319.783,9.313C319.617,9.896 319.534,10.943 319.534,12.453C319.534,13.98 319.619,15.013 319.789,15.553C319.959,16.092 320.279,16.362 320.748,16.362C321.179,16.362 321.482,16.171 321.656,15.788C321.834,15.379 321.923,14.722 321.923,13.817L321.923,13.543L321.923,13.34L320.742,13.34L320.742,12.192Z" style="fill:rgb(189,195,197);fill-rule:nonzero;"/>
                <path id="path1168" d="M324.566,7.414L325.924,7.414L325.924,16.342L328.143,16.342L328.143,17.491L324.566,17.491L324.566,7.414Z" style="fill:rgb(189,195,197);fill-rule:nonzero;"/>
                <path id="path1170" d="M334.049,12.701C334.049,14.48 333.851,15.744 333.455,16.493C333.059,17.241 332.396,17.615 331.465,17.615C330.486,17.615 329.796,17.213 329.396,16.408C329,15.62 328.802,14.221 328.802,12.211C328.802,10.419 328.998,9.15 329.389,8.406C329.785,7.658 330.455,7.284 331.4,7.284C332.244,7.284 332.87,7.573 333.279,8.152C333.549,8.539 333.745,9.089 333.867,9.803C333.988,10.464 334.049,11.43 334.049,12.701ZM332.627,12.844C332.627,11.1 332.548,9.942 332.392,9.372C332.235,8.798 331.915,8.511 331.432,8.511C330.949,8.511 330.627,8.774 330.466,9.3C330.31,9.831 330.231,10.897 330.231,12.498C330.231,13.973 330.314,14.996 330.479,15.566C330.649,16.105 330.967,16.375 331.432,16.375C331.889,16.375 332.202,16.123 332.372,15.618C332.542,15.118 332.627,14.193 332.627,12.844L332.627,12.844Z" style="fill:rgb(189,195,197);fill-rule:nonzero;"/>
                <path id="path1172" d="M335.4,7.414L337.241,7.414C338.681,7.414 339.401,8.308 339.401,10.097C339.401,10.78 339.307,11.287 339.12,11.617C338.933,11.948 338.603,12.198 338.128,12.368C338.672,12.585 339.044,12.864 339.244,13.203C339.449,13.538 339.551,14.043 339.551,14.717C339.551,16.567 338.759,17.491 337.175,17.491L335.4,17.491L335.4,7.414ZM336.679,11.852C337.206,11.852 337.571,11.73 337.776,11.487C337.98,11.23 338.083,10.78 338.083,10.136C338.083,9.048 337.691,8.504 336.908,8.504L336.803,8.504L336.745,8.504C336.71,8.504 336.688,8.506 336.679,8.511L336.679,11.852ZM336.679,16.329C337.236,16.329 337.621,16.21 337.835,15.97C338.048,15.731 338.154,15.298 338.154,14.672C338.154,14.028 338.043,13.577 337.822,13.321C337.604,13.06 337.223,12.929 336.679,12.929L336.679,16.329Z" style="fill:rgb(189,195,197);fill-rule:nonzero;"/>
                <path id="path1174" d="M342.397,7.414L343.454,7.414L345.614,17.491L344.27,17.491L343.891,15.527L341.894,15.527L341.509,17.491L340.204,17.491L342.397,7.414ZM343.695,14.476L343.395,12.87C343.195,11.778 343.032,10.612 342.906,9.372C342.845,9.977 342.766,10.59 342.671,11.213C342.575,11.83 342.462,12.487 342.331,13.184L342.083,14.476L343.695,14.476Z" style="fill:rgb(189,195,197);fill-rule:nonzero;"/>
                <path id="path1176" d="M346.417,7.414L347.774,7.414L347.774,16.342L349.993,16.342L349.993,17.491L346.417,17.491L346.417,7.414Z" style="fill:rgb(189,195,197);fill-rule:nonzero;"/>
            </g>
        </g>
        <rect id="rect4689" x="0" y="0" width="90" height="380" style="fill:rgb(44,45,48);fill-rule:nonzero;"/>
        <g id="text4987">
        </g>
        <g id="text1042">
        </g>
        <g id="text1171">
        </g>
        <g id="text1197">
        </g>
        <g id="text1132" transform="matrix(0.609672,0,0,1.31561,0,74.8088)">
            <path id="path1217" d="M6.282,230.32L5.161,230.32L3.582,226.393L2.761,230.32L1.64,230.32L2.86,224.475L3.985,224.475L5.568,228.386L6.385,224.475L7.502,224.475L6.282,230.32Z" style="fill:rgb(158,161,168);fill-rule:nonzero;"/>
            <path id="path1226" d="M10.448,230.32L9.248,230.32L9.723,228.044L8.112,224.475L9.392,224.475L10.117,226.126C10.29,226.522 10.406,226.807 10.464,226.983C10.563,226.81 10.677,226.627 10.807,226.433L11.362,225.659L12.187,224.475L13.582,224.475L10.903,228.155L10.448,230.32Z" style="fill:rgb(158,161,168);fill-rule:nonzero;"/>
            <path id="path1235" d="M13.148,228.426L14.292,228.367C14.308,228.731 14.371,228.977 14.48,229.104C14.655,229.312 14.979,229.415 15.453,229.415C15.846,229.415 16.13,229.345 16.306,229.204C16.481,229.063 16.569,228.893 16.569,228.693C16.569,228.521 16.497,228.374 16.354,228.255C16.253,228.167 15.975,228.025 15.52,227.828C15.068,227.632 14.738,227.468 14.528,227.338C14.32,227.205 14.157,227.033 14.037,226.823C13.917,226.613 13.858,226.367 13.858,226.086C13.858,225.594 14.036,225.186 14.392,224.862C14.748,224.537 15.264,224.375 15.939,224.375C16.625,224.375 17.155,224.536 17.53,224.858C17.908,225.179 18.115,225.607 18.152,226.142L17,226.193C16.97,225.914 16.869,225.7 16.697,225.551C16.524,225.403 16.269,225.328 15.931,225.328C15.599,225.328 15.361,225.387 15.217,225.504C15.076,225.621 15.006,225.768 15.006,225.946C15.006,226.114 15.071,226.252 15.201,226.361C15.332,226.473 15.62,226.625 16.067,226.819C16.739,227.109 17.167,227.344 17.351,227.525C17.624,227.791 17.761,228.133 17.761,228.55C17.761,229.066 17.557,229.507 17.147,229.874C16.741,230.238 16.173,230.42 15.445,230.42C14.942,230.42 14.506,230.336 14.137,230.169C13.77,229.999 13.511,229.763 13.359,229.463C13.208,229.163 13.137,228.817 13.148,228.426L13.148,228.426Z" style="fill:rgb(158,161,168);fill-rule:nonzero;"/>
            <path id="path1242" d="M20.963,230.32L19.759,230.32L20.78,225.452L19.065,225.452L19.269,224.475L23.874,224.475L23.671,225.452L21.98,225.452L20.963,230.32Z" style="fill:rgb(158,161,168);fill-rule:nonzero;"/>
            <path id="path1255" d="M27.443,227.709L25.182,227.709L24.636,230.32L23.431,230.32L24.656,224.475L25.856,224.475L25.385,226.732L27.646,226.732L28.121,224.475L29.321,224.475L28.101,230.32L26.896,230.32L27.443,227.709Z" style="fill:rgb(158,161,168);fill-rule:nonzero;"/>
            <path id="path1261" d="M29.261,230.32L30.485,224.475L31.685,224.475L30.465,230.32L29.261,230.32Z" style="fill:rgb(158,161,168);fill-rule:nonzero;"/>
            <path id="path1263" d="M38.448,227.776L39.273,228.271C39.196,228.42 39.095,228.582 38.97,228.757C38.848,228.93 38.734,229.066 38.627,229.164C38.779,229.326 38.973,229.507 39.21,229.706L38.488,230.456C38.397,230.408 38.282,230.327 38.141,230.213C38.003,230.098 37.886,229.991 37.79,229.89C37.599,230.041 37.358,230.167 37.068,230.268C36.779,230.369 36.466,230.42 36.131,230.42C35.525,230.42 35.049,230.261 34.704,229.942C34.358,229.62 34.185,229.226 34.185,228.761C34.185,228.466 34.253,228.192 34.389,227.94C34.527,227.685 34.705,227.467 34.923,227.286C35.08,227.156 35.335,226.996 35.689,226.807C35.516,226.433 35.429,226.106 35.429,225.827C35.429,225.417 35.578,225.073 35.876,224.794C36.176,224.515 36.571,224.375 37.06,224.375C37.48,224.375 37.813,224.487 38.057,224.71C38.304,224.931 38.428,225.19 38.428,225.488C38.428,225.74 38.322,226.014 38.109,226.309C37.899,226.601 37.552,226.87 37.068,227.114C37.22,227.37 37.409,227.662 37.635,227.992C37.77,228.194 37.879,228.339 37.961,228.426C38.097,228.291 38.259,228.074 38.448,227.776ZM36.654,226.333C36.967,226.173 37.188,226.013 37.316,225.85C37.406,225.733 37.451,225.615 37.451,225.496C37.451,225.387 37.414,225.298 37.339,225.228C37.268,225.157 37.168,225.121 37.04,225.121C36.881,225.121 36.748,225.177 36.642,225.288C36.535,225.397 36.482,225.541 36.482,225.719C36.482,225.889 36.539,226.094 36.654,226.333L36.654,226.333ZM36.103,227.613C35.577,227.876 35.314,228.223 35.314,228.654C35.314,228.898 35.392,229.099 35.549,229.256C35.706,229.413 35.915,229.491 36.175,229.491C36.491,229.491 36.817,229.381 37.152,229.16C36.751,228.671 36.401,228.155 36.103,227.613Z" style="fill:rgb(158,161,168);fill-rule:nonzero;"/>
            <path id="path1265" d="M42.029,230.32L43.253,224.475L44.828,224.475C45.266,224.475 45.547,224.481 45.669,224.495C45.911,224.519 46.126,224.568 46.315,224.642C46.506,224.717 46.679,224.822 46.833,224.957C46.99,225.09 47.125,225.251 47.236,225.44C47.35,225.629 47.438,225.847 47.499,226.094C47.56,226.338 47.591,226.607 47.591,226.899C47.591,227.529 47.47,228.089 47.228,228.578C46.989,229.064 46.687,229.451 46.323,229.738C46.044,229.962 45.684,230.126 45.242,230.233C44.993,230.291 44.608,230.32 44.09,230.32L42.029,230.32ZM43.428,229.379L44.038,229.379C44.48,229.379 44.799,229.353 44.995,229.3C45.195,229.244 45.377,229.141 45.542,228.993C45.778,228.777 45.977,228.49 46.14,228.131C46.302,227.772 46.383,227.35 46.383,226.863C46.383,226.449 46.315,226.138 46.18,225.93C46.047,225.72 45.882,225.581 45.685,225.512C45.547,225.464 45.301,225.44 44.947,225.44L44.25,225.44L43.428,229.379Z" style="fill:rgb(158,161,168);fill-rule:nonzero;"/>
            <path id="path1268" d="M47.858,230.32L49.082,224.475L50.283,224.475L49.062,230.32L47.858,230.32Z" style="fill:rgb(158,161,168);fill-rule:nonzero;"/>
            <path id="path1270" d="M50.358,228.426L51.503,228.367C51.519,228.731 51.581,228.977 51.69,229.104C51.866,229.312 52.19,229.415 52.663,229.415C53.056,229.415 53.341,229.345 53.516,229.204C53.692,229.063 53.78,228.893 53.78,228.693C53.78,228.521 53.708,228.374 53.564,228.255C53.463,228.167 53.185,228.025 52.731,227.828C52.279,227.632 51.948,227.468 51.738,227.338C51.531,227.205 51.367,227.033 51.248,226.823C51.128,226.613 51.068,226.367 51.068,226.086C51.068,225.594 51.246,225.186 51.602,224.862C51.959,224.537 52.474,224.375 53.149,224.375C53.835,224.375 54.366,224.536 54.74,224.858C55.118,225.179 55.325,225.607 55.362,226.142L54.21,226.193C54.181,225.914 54.08,225.7 53.907,225.551C53.734,225.403 53.479,225.328 53.142,225.328C52.809,225.328 52.571,225.387 52.428,225.504C52.287,225.621 52.216,225.768 52.216,225.946C52.216,226.114 52.282,226.252 52.412,226.361C52.542,226.473 52.831,226.625 53.277,226.819C53.95,227.109 54.378,227.344 54.561,227.525C54.835,227.791 54.972,228.133 54.972,228.55C54.972,229.066 54.767,229.507 54.358,229.874C53.951,230.238 53.383,230.42 52.655,230.42C52.153,230.42 51.717,230.336 51.347,230.169C50.98,229.999 50.721,229.763 50.57,229.463C50.418,229.163 50.348,228.817 50.358,228.426L50.358,228.426Z" style="fill:rgb(158,161,168);fill-rule:nonzero;"/>
            <path id="path1272" d="M55.813,228.426L56.957,228.367C56.973,228.731 57.036,228.977 57.145,229.104C57.32,229.312 57.645,229.415 58.118,229.415C58.511,229.415 58.796,229.345 58.971,229.204C59.147,229.063 59.234,228.893 59.234,228.693C59.234,228.521 59.163,228.374 59.019,228.255C58.918,228.167 58.64,228.025 58.186,227.828C57.734,227.632 57.403,227.468 57.193,227.338C56.985,227.205 56.822,227.033 56.702,226.823C56.583,226.613 56.523,226.367 56.523,226.086C56.523,225.594 56.701,225.186 57.057,224.862C57.413,224.537 57.929,224.375 58.604,224.375C59.29,224.375 59.82,224.536 60.195,224.858C60.573,225.179 60.78,225.607 60.817,226.142L59.665,226.193C59.636,225.914 59.535,225.7 59.362,225.551C59.189,225.403 58.934,225.328 58.596,225.328C58.264,225.328 58.026,225.387 57.883,225.504C57.742,225.621 57.671,225.768 57.671,225.946C57.671,226.114 57.736,226.252 57.867,226.361C57.997,226.473 58.285,226.625 58.732,226.819C59.404,227.109 59.832,227.344 60.016,227.525C60.29,227.791 60.427,228.133 60.427,228.55C60.427,229.066 60.222,229.507 59.812,229.874C59.406,230.238 58.838,230.42 58.11,230.42C57.607,230.42 57.171,230.336 56.802,230.169C56.435,229.999 56.176,229.763 56.024,229.463C55.873,229.163 55.802,228.817 55.813,228.426L55.813,228.426Z" style="fill:rgb(158,161,168);fill-rule:nonzero;"/>
            <path id="path1274" d="M61.463,228.028C61.463,227.682 61.515,227.318 61.619,226.935C61.754,226.422 61.96,225.977 62.237,225.599C62.516,225.222 62.867,224.924 63.289,224.706C63.712,224.485 64.193,224.375 64.733,224.375C65.456,224.375 66.039,224.6 66.483,225.049C66.93,225.498 67.153,226.094 67.153,226.835C67.153,227.452 67.008,228.049 66.719,228.626C66.429,229.202 66.035,229.646 65.538,229.957C65.041,230.268 64.479,230.424 63.852,230.424C63.307,230.424 62.85,230.3 62.48,230.053C62.111,229.806 61.849,229.5 61.695,229.136C61.54,228.769 61.463,228.4 61.463,228.028L61.463,228.028ZM62.651,228.004C62.651,228.405 62.774,228.741 63.018,229.013C63.263,229.284 63.585,229.419 63.983,229.419C64.308,229.419 64.619,229.313 64.916,229.1C65.217,228.885 65.464,228.561 65.658,228.127C65.855,227.691 65.953,227.267 65.953,226.855C65.953,226.395 65.829,226.035 65.582,225.775C65.335,225.512 65.02,225.38 64.637,225.38C64.05,225.38 63.571,225.654 63.202,226.201C62.835,226.749 62.651,227.35 62.651,228.004L62.651,228.004Z" style="fill:rgb(158,161,168);fill-rule:nonzero;"/>
            <path id="path1276" d="M71.667,228.215L72.879,228.398C72.643,229.055 72.288,229.557 71.815,229.906C71.341,230.251 70.787,230.424 70.152,230.424C69.437,230.424 68.877,230.209 68.473,229.778C68.072,229.347 67.871,228.723 67.871,227.904C67.871,227.239 68.005,226.632 68.274,226.082C68.545,225.529 68.92,225.106 69.398,224.814C69.877,224.521 70.398,224.375 70.961,224.375C71.594,224.375 72.106,224.545 72.496,224.885C72.887,225.223 73.117,225.684 73.186,226.269L72.034,226.381C71.97,226.041 71.846,225.795 71.663,225.643C71.482,225.489 71.24,225.412 70.937,225.412C70.605,225.412 70.294,225.513 70.004,225.715C69.717,225.917 69.487,226.233 69.314,226.664C69.142,227.092 69.055,227.52 69.055,227.948C69.055,228.416 69.167,228.777 69.39,229.032C69.616,229.288 69.897,229.415 70.232,229.415C70.543,229.415 70.827,229.314 71.085,229.112C71.345,228.91 71.539,228.611 71.667,228.215L71.667,228.215Z" style="fill:rgb(158,161,168);fill-rule:nonzero;"/>
            <path id="path1278" d="M73.282,230.32L74.506,224.475L75.706,224.475L74.486,230.32L73.282,230.32Z" style="fill:rgb(158,161,168);fill-rule:nonzero;"/>
            <path id="path1281" d="M79.426,229.028L77.11,229.028L76.408,230.32L75.172,230.32L78.477,224.475L79.813,224.475L80.762,230.32L79.622,230.32L79.426,229.028ZM79.279,228.055L78.94,225.703L77.528,228.055L79.279,228.055Z" style="fill:rgb(158,161,168);fill-rule:nonzero;"/>
            <path id="path1283" d="M83.438,230.32L82.234,230.32L83.254,225.452L81.54,225.452L81.743,224.475L86.349,224.475L86.145,225.452L84.455,225.452L83.438,230.32Z" style="fill:rgb(158,161,168);fill-rule:nonzero;"/>
            <path id="path1285" d="M85.886,230.32L87.106,224.475L91.441,224.475L91.237,225.452L88.107,225.452L87.828,226.78L90.854,226.78L90.651,227.756L87.625,227.756L87.258,229.343L90.659,229.343L90.452,230.32L85.886,230.32Z" style="fill:rgb(158,161,168);fill-rule:nonzero;"/>
            <path id="path1287" d="M91.524,228.426L92.669,228.367C92.685,228.731 92.747,228.977 92.856,229.104C93.032,229.312 93.356,229.415 93.829,229.415C94.222,229.415 94.507,229.345 94.682,229.204C94.858,229.063 94.945,228.893 94.945,228.693C94.945,228.521 94.874,228.374 94.73,228.255C94.629,228.167 94.351,228.025 93.897,227.828C93.445,227.632 93.114,227.468 92.904,227.338C92.697,227.205 92.533,227.033 92.413,226.823C92.294,226.613 92.234,226.367 92.234,226.086C92.234,225.594 92.412,225.186 92.768,224.862C93.125,224.537 93.64,224.375 94.315,224.375C95.001,224.375 95.532,224.536 95.906,224.858C96.284,225.179 96.491,225.607 96.528,226.142L95.376,226.193C95.347,225.914 95.246,225.7 95.073,225.551C94.9,225.403 94.645,225.328 94.307,225.328C93.975,225.328 93.737,225.387 93.594,225.504C93.453,225.621 93.382,225.768 93.382,225.946C93.382,226.114 93.448,226.252 93.578,226.361C93.708,226.473 93.996,226.625 94.443,226.819C95.116,227.109 95.544,227.344 95.727,227.525C96.001,227.791 96.138,228.133 96.138,228.55C96.138,229.066 95.933,229.507 95.524,229.874C95.117,230.238 94.549,230.42 93.821,230.42C93.319,230.42 92.883,230.336 92.513,230.169C92.146,229.999 91.887,229.763 91.736,229.463C91.584,229.163 91.514,228.817 91.524,228.426L91.524,228.426Z" style="fill:rgb(158,161,168);fill-rule:nonzero;"/>
            <path id="path1289" d="M99.272,227.661L101.493,227.661L101.261,228.765L99.04,228.765L99.272,227.661Z" style="fill:rgb(158,161,168);fill-rule:nonzero;"/>
            <path id="path1291" d="M104.236,228.426L105.38,228.367C105.396,228.731 105.459,228.977 105.568,229.104C105.743,229.312 106.068,229.415 106.541,229.415C106.934,229.415 107.219,229.345 107.394,229.204C107.57,229.063 107.657,228.893 107.657,228.693C107.657,228.521 107.586,228.374 107.442,228.255C107.341,228.167 107.063,228.025 106.609,227.828C106.157,227.632 105.826,227.468 105.616,227.338C105.408,227.205 105.245,227.033 105.125,226.823C105.006,226.613 104.946,226.367 104.946,226.086C104.946,225.594 105.124,225.186 105.48,224.862C105.836,224.537 106.352,224.375 107.027,224.375C107.713,224.375 108.243,224.536 108.618,224.858C108.996,225.179 109.203,225.607 109.24,226.142L108.088,226.193C108.059,225.914 107.958,225.7 107.785,225.551C107.612,225.403 107.357,225.328 107.019,225.328C106.687,225.328 106.449,225.387 106.306,225.504C106.165,225.621 106.094,225.768 106.094,225.946C106.094,226.114 106.159,226.252 106.29,226.361C106.42,226.473 106.708,226.625 107.155,226.819C107.827,227.109 108.255,227.344 108.439,227.525C108.713,227.791 108.85,228.133 108.85,228.55C108.85,229.066 108.645,229.507 108.235,229.874C107.829,230.238 107.261,230.42 106.533,230.42C106.03,230.42 105.595,230.336 105.225,230.169C104.858,229.999 104.599,229.763 104.447,229.463C104.296,229.163 104.225,228.817 104.236,228.426L104.236,228.426Z" style="fill:rgb(158,161,168);fill-rule:nonzero;"/>
            <path id="path1293" d="M112.761,227.198L115.377,227.198L114.851,229.706C114.542,229.906 114.163,230.074 113.714,230.213C113.268,230.351 112.812,230.42 112.346,230.42C111.623,230.42 111.069,230.257 110.684,229.93C110.157,229.483 109.894,228.836 109.894,227.988C109.894,227.419 110.007,226.874 110.233,226.353C110.504,225.726 110.89,225.239 111.389,224.893C111.889,224.548 112.477,224.375 113.152,224.375C113.827,224.375 114.368,224.532 114.775,224.846C115.184,225.159 115.455,225.617 115.588,226.217L114.468,226.345C114.369,226.015 114.21,225.767 113.989,225.599C113.771,225.432 113.496,225.348 113.164,225.348C112.776,225.348 112.42,225.449 112.095,225.651C111.771,225.853 111.517,226.165 111.334,226.588C111.15,227.011 111.058,227.472 111.058,227.972C111.058,228.463 111.17,228.828 111.393,229.064C111.617,229.298 111.944,229.415 112.374,229.415C112.632,229.415 112.897,229.379 113.168,229.308C113.439,229.233 113.673,229.145 113.87,229.044L114.049,228.175L112.558,228.175L112.761,227.198Z" style="fill:rgb(158,161,168);fill-rule:nonzero;"/>
            <path id="path1295" d="M119.683,229.028L117.367,229.028L116.665,230.32L115.429,230.32L118.734,224.475L120.07,224.475L121.019,230.32L119.879,230.32L119.683,229.028ZM119.536,228.055L119.197,225.703L117.785,228.055L119.536,228.055Z" style="fill:rgb(158,161,168);fill-rule:nonzero;"/>
            <path id="path1297" d="M125.991,228.215L127.204,228.398C126.967,229.055 126.612,229.557 126.139,229.906C125.666,230.251 125.111,230.424 124.476,230.424C123.761,230.424 123.202,230.209 122.797,229.778C122.396,229.347 122.195,228.723 122.195,227.904C122.195,227.239 122.33,226.632 122.598,226.082C122.869,225.529 123.244,225.106 123.723,224.814C124.201,224.521 124.722,224.375 125.286,224.375C125.918,224.375 126.43,224.545 126.821,224.885C127.212,225.223 127.441,225.684 127.511,226.269L126.358,226.381C126.294,226.041 126.171,225.795 125.987,225.643C125.807,225.489 125.565,225.412 125.262,225.412C124.929,225.412 124.618,225.513 124.329,225.715C124.042,225.917 123.812,226.233 123.639,226.664C123.466,227.092 123.38,227.52 123.38,227.948C123.38,228.416 123.491,228.777 123.715,229.032C123.94,229.288 124.221,229.415 124.556,229.415C124.867,229.415 125.151,229.314 125.409,229.112C125.67,228.91 125.864,228.611 125.991,228.215Z" style="fill:rgb(158,161,168);fill-rule:nonzero;"/>
            <path id="path1299" d="M130.134,227.661L132.355,227.661L132.124,228.765L129.903,228.765L130.134,227.661Z" style="fill:rgb(158,161,168);fill-rule:nonzero;"/>
            <path id="path1301" d="M139.588,230.32L138.468,230.32L136.889,226.393L136.068,230.32L134.947,230.32L136.167,224.475L137.292,224.475L138.875,228.386L139.692,224.475L140.809,224.475L139.588,230.32Z" style="fill:rgb(158,161,168);fill-rule:nonzero;"/>
            <path id="path1303" d="M144.644,229.028L142.328,229.028L141.626,230.32L140.39,230.32L143.695,224.475L145.031,224.475L145.98,230.32L144.84,230.32L144.644,229.028ZM144.497,228.055L144.158,225.703L142.746,228.055L144.497,228.055Z" style="fill:rgb(158,161,168);fill-rule:nonzero;"/>
        </g>
        <path id="rect1212" d="M0,367L90,367L90,368L0,368L0,367L0,367Z" style="fill:rgb(158,161,168);fill-rule:nonzero;"/>
        <g id="text1442" transform="matrix(0.871748,0,0,1.14712,0,0)">
            <path id="path1635" d="M13.871,15.485L11.471,15.485L13.911,3.837L18.646,3.837C19.488,3.837 20.153,3.937 20.64,4.139C21.133,4.335 21.522,4.663 21.808,5.124C22.095,5.579 22.238,6.125 22.238,6.761C22.238,7.349 22.124,7.921 21.896,8.477C21.668,9.033 21.387,9.478 21.054,9.812C20.725,10.145 20.37,10.4 19.989,10.574C19.608,10.744 19.094,10.874 18.447,10.964C18.071,11.017 17.367,11.043 16.334,11.043L14.8,11.043L13.871,15.485ZM15.198,9.112L15.937,9.112C17.203,9.112 18.048,9.033 18.471,8.874C18.895,8.715 19.229,8.461 19.472,8.111C19.716,7.762 19.838,7.378 19.838,6.959C19.838,6.678 19.774,6.448 19.647,6.268C19.525,6.088 19.351,5.958 19.123,5.879C18.9,5.794 18.4,5.751 17.621,5.751L15.905,5.751L15.198,9.112Z" style="fill:rgb(158,161,168);fill-rule:nonzero;"/>
            <path id="path1637" d="M23.104,10.916C23.104,10.228 23.207,9.502 23.413,8.739C23.684,7.717 24.094,6.829 24.645,6.077C25.201,5.325 25.9,4.732 26.743,4.297C27.585,3.858 28.544,3.638 29.619,3.638C31.06,3.638 32.223,4.086 33.107,4.981C33.997,5.876 34.442,7.063 34.442,8.54C34.442,9.769 34.153,10.959 33.576,12.108C32.999,13.257 32.215,14.142 31.224,14.762C30.233,15.382 29.113,15.691 27.863,15.691C26.777,15.691 25.866,15.445 25.13,14.953C24.393,14.46 23.872,13.851 23.564,13.125C23.257,12.394 23.104,11.658 23.104,10.916ZM25.471,10.868C25.471,11.668 25.715,12.338 26.202,12.879C26.69,13.419 27.331,13.689 28.125,13.689C28.771,13.689 29.391,13.477 29.985,13.054C30.583,12.624 31.076,11.978 31.462,11.115C31.854,10.246 32.05,9.401 32.05,8.58C32.05,7.664 31.804,6.946 31.311,6.427C30.819,5.902 30.191,5.64 29.428,5.64C28.258,5.64 27.304,6.186 26.568,7.277C25.837,8.368 25.471,9.565 25.471,10.868Z" style="fill:rgb(158,161,168);fill-rule:nonzero;"/>
            <path id="path1639" d="M35.062,15.485L37.501,3.837L39.893,3.837L37.867,13.538L43.794,13.538L43.389,15.485L35.062,15.485Z" style="fill:rgb(158,161,168);fill-rule:nonzero;"/>
            <path id="path1641" d="M49.594,15.485L47.203,15.485L48.148,10.948L44.938,3.837L47.489,3.837L48.935,7.126C49.279,7.915 49.51,8.485 49.626,8.834C49.822,8.49 50.05,8.125 50.309,7.738L51.414,6.196L53.059,3.837L55.84,3.837L50.5,11.17L49.594,15.485Z" style="fill:rgb(158,161,168);fill-rule:nonzero;"/>
            <path id="path1643" d="M58.899,15.485L61.338,3.837L63.73,3.837L61.703,13.538L67.631,13.538L67.226,15.485L58.899,15.485Z" style="fill:rgb(158,161,168);fill-rule:nonzero;"/>
            <path id="path1645" d="M71.175,15.485L68.775,15.485L71.214,3.837L75.95,3.837C76.792,3.837 77.457,3.937 77.944,4.139C78.437,4.335 78.826,4.663 79.112,5.124C79.398,5.579 79.541,6.125 79.541,6.761C79.541,7.349 79.427,7.921 79.2,8.477C78.972,9.033 78.691,9.478 78.357,9.812C78.029,10.145 77.674,10.4 77.293,10.574C76.911,10.744 76.398,10.874 75.751,10.964C75.375,11.017 74.671,11.043 73.638,11.043L72.104,11.043L71.175,15.485ZM72.502,9.112L73.24,9.112C74.506,9.112 75.351,9.033 75.775,8.874C76.199,8.715 76.533,8.461 76.776,8.111C77.02,7.762 77.142,7.378 77.142,6.959C77.142,6.678 77.078,6.448 76.951,6.268C76.829,6.088 76.654,5.958 76.427,5.879C76.204,5.794 75.704,5.751 74.925,5.751L73.209,5.751L72.502,9.112Z" style="fill:rgb(158,161,168);fill-rule:nonzero;"/>
            <path id="path1647" d="M86.136,9.263L91.349,9.263L90.3,14.261C89.685,14.659 88.93,14.995 88.035,15.27C87.145,15.546 86.237,15.684 85.31,15.684C83.869,15.684 82.765,15.358 81.997,14.706C80.948,13.816 80.423,12.526 80.423,10.837C80.423,9.703 80.648,8.617 81.099,7.579C81.639,6.329 82.407,5.36 83.403,4.671C84.399,3.982 85.569,3.638 86.915,3.638C88.26,3.638 89.338,3.95 90.149,4.576C90.964,5.201 91.505,6.112 91.77,7.309L89.537,7.563C89.341,6.906 89.023,6.411 88.583,6.077C88.149,5.744 87.601,5.577 86.939,5.577C86.165,5.577 85.456,5.778 84.809,6.181C84.163,6.583 83.657,7.206 83.292,8.048C82.926,8.89 82.743,9.809 82.743,10.805C82.743,11.785 82.966,12.511 83.411,12.982C83.856,13.448 84.507,13.681 85.365,13.681C85.879,13.681 86.406,13.61 86.947,13.467C87.487,13.318 87.953,13.144 88.345,12.942L88.703,11.21L85.731,11.21L86.136,9.263Z" style="fill:rgb(158,161,168);fill-rule:nonzero;"/>
        </g>
        <g id="text1450" transform="matrix(0.795534,0,0,1.25702,0,0)">
            <path id="path1628" d="M9.966,47.568L7.94,47.568L6.285,38.343L8.179,38.343L9.35,45.322L13.17,38.343L15.051,38.343L9.966,47.568Z" style="fill:rgb(158,161,168);fill-rule:nonzero;"/>
            <path id="path1630" d="M20.646,44.246L22.559,44.535C22.185,45.571 21.625,46.364 20.878,46.914C20.132,47.459 19.257,47.732 18.254,47.732C17.126,47.732 16.243,47.392 15.605,46.713C14.971,46.033 14.655,45.047 14.655,43.755C14.655,42.706 14.867,41.747 15.29,40.879C15.718,40.006 16.31,39.339 17.065,38.878C17.82,38.416 18.642,38.186 19.532,38.186C20.53,38.186 21.338,38.454 21.955,38.991C22.571,39.524 22.934,40.252 23.043,41.175L21.225,41.351C21.124,40.814 20.929,40.426 20.639,40.187C20.354,39.943 19.972,39.822 19.494,39.822C18.97,39.822 18.479,39.981 18.021,40.3C17.568,40.619 17.205,41.118 16.933,41.798C16.66,42.473 16.524,43.149 16.524,43.824C16.524,44.562 16.7,45.133 17.052,45.536C17.409,45.939 17.852,46.14 18.38,46.14C18.871,46.14 19.32,45.981 19.727,45.662C20.138,45.343 20.444,44.871 20.646,44.246L20.646,44.246Z" style="fill:rgb(158,161,168);fill-rule:nonzero;"/>
            <path id="path1632" d="M29.317,45.53L25.661,45.53L24.554,47.568L22.603,47.568L27.82,38.343L29.928,38.343L31.425,47.568L29.626,47.568L29.317,45.53ZM29.084,43.994L28.55,40.281L26.322,43.994L29.084,43.994Z" style="fill:rgb(158,161,168);fill-rule:nonzero;"/>
        </g>
        <g id="text1456" transform="matrix(0.689298,0,0,1.45075,0,0)">
            <path id="path1615" d="M46.712,41.216L44.957,41.216L43.523,33.223L45.164,33.223L46.178,39.27L49.488,33.223L51.118,33.223L46.712,41.216Z" style="fill:rgb(158,161,168);fill-rule:nonzero;"/>
            <path id="path1617" d="M55.965,38.337L57.623,38.588C57.299,39.486 56.814,40.173 56.167,40.649C55.52,41.122 54.762,41.358 53.893,41.358C52.916,41.358 52.15,41.063 51.598,40.475C51.049,39.886 50.774,39.031 50.774,37.912C50.774,37.003 50.958,36.172 51.325,35.42C51.696,34.664 52.209,34.086 52.863,33.686C53.517,33.286 54.23,33.086 55,33.086C55.865,33.086 56.565,33.319 57.099,33.784C57.634,34.246 57.948,34.877 58.043,35.676L56.467,35.829C56.38,35.364 56.211,35.027 55.96,34.82C55.713,34.609 55.382,34.504 54.968,34.504C54.513,34.504 54.088,34.642 53.692,34.918C53.299,35.195 52.985,35.627 52.748,36.216C52.512,36.801 52.394,37.387 52.394,37.972C52.394,38.612 52.547,39.106 52.852,39.455C53.161,39.804 53.544,39.978 54.002,39.978C54.428,39.978 54.817,39.84 55.169,39.564C55.526,39.288 55.791,38.879 55.965,38.337L55.965,38.337Z" style="fill:rgb(158,161,168);fill-rule:nonzero;"/>
            <path id="path1619" d="M63.479,39.449L60.311,39.449L59.351,41.216L57.661,41.216L62.181,33.223L64.008,33.223L65.306,41.216L63.746,41.216L63.479,39.449ZM63.277,38.119L62.814,34.902L60.884,38.119L63.277,38.119Z" style="fill:rgb(158,161,168);fill-rule:nonzero;"/>
            <path id="path1621" d="M68.85,40.066L68.85,37.988L66.756,37.988L66.756,36.554L68.85,36.554L68.85,34.477L70.246,34.477L70.246,36.554L72.345,36.554L72.345,37.988L70.246,37.988L70.246,40.066L68.85,40.066Z" style="fill:rgb(158,161,168);fill-rule:nonzero;"/>
            <path id="path1623" d="M72.879,41.216L74.553,33.223L76.194,33.223L74.804,39.88L78.872,39.88L78.594,41.216L72.879,41.216Z" style="fill:rgb(158,161,168);fill-rule:nonzero;"/>
            <path id="path1625" d="M81.304,41.216L79.657,41.216L81.331,33.223L84.581,33.223C85.159,33.223 85.615,33.292 85.949,33.43C86.287,33.564 86.554,33.79 86.751,34.106C86.947,34.419 87.045,34.793 87.045,35.229C87.045,35.633 86.967,36.025 86.811,36.407C86.654,36.789 86.462,37.094 86.233,37.323C86.007,37.552 85.764,37.726 85.502,37.846C85.24,37.963 84.888,38.052 84.444,38.114C84.186,38.15 83.703,38.168 82.994,38.168L81.941,38.168L81.304,41.216ZM82.214,36.843L82.721,36.843C83.59,36.843 84.17,36.789 84.461,36.68C84.751,36.571 84.98,36.396 85.148,36.156C85.315,35.916 85.398,35.653 85.398,35.365C85.398,35.173 85.355,35.015 85.268,34.891C85.184,34.768 85.064,34.678 84.908,34.624C84.755,34.566 84.411,34.537 83.877,34.537L82.699,34.537L82.214,36.843Z" style="fill:rgb(158,161,168);fill-rule:nonzero;"/>
        </g>
        <g id="text1462" transform="matrix(0.811373,0,0,1.23248,0,0)">
            <path id="path1610" d="M83.809,48.682L85.847,38.946L87.847,38.946L86.153,47.055L91.108,47.055L90.769,48.682L83.809,48.682Z" style="fill:rgb(158,161,168);fill-rule:nonzero;"/>
            <path id="path1612" d="M94.07,48.682L92.064,48.682L94.103,38.946L98.061,38.946C98.765,38.946 99.321,39.03 99.728,39.198C100.14,39.362 100.465,39.637 100.705,40.022C100.944,40.403 101.063,40.859 101.063,41.39C101.063,41.881 100.968,42.36 100.778,42.825C100.587,43.289 100.353,43.661 100.074,43.94C99.799,44.219 99.502,44.432 99.184,44.578C98.865,44.72 98.435,44.828 97.895,44.903C97.581,44.948 96.992,44.97 96.129,44.97L94.847,44.97L94.07,48.682ZM95.179,43.356L95.796,43.356C96.855,43.356 97.561,43.289 97.915,43.157C98.269,43.024 98.548,42.811 98.752,42.519C98.956,42.227 99.057,41.906 99.057,41.556C99.057,41.321 99.004,41.129 98.898,40.978C98.796,40.828 98.65,40.719 98.46,40.653C98.274,40.582 97.855,40.547 97.204,40.547L95.77,40.547L95.179,43.356Z" style="fill:rgb(158,161,168);fill-rule:nonzero;"/>
        </g>
        <g id="text1468" transform="matrix(0.859017,0,0,1.16412,0,0)">
            <path id="path1593" d="M17.464,99.682L19.415,99.58C19.442,100.201 19.549,100.621 19.735,100.838C20.034,101.192 20.587,101.368 21.394,101.368C22.065,101.368 22.55,101.248 22.849,101.008C23.148,100.768 23.298,100.478 23.298,100.138C23.298,99.843 23.175,99.594 22.93,99.39C22.758,99.24 22.285,98.998 21.509,98.662C20.739,98.327 20.174,98.048 19.816,97.826C19.463,97.599 19.184,97.307 18.98,96.949C18.776,96.591 18.674,96.171 18.674,95.691C18.674,94.852 18.978,94.156 19.585,93.603C20.193,93.05 21.072,92.774 22.223,92.774C23.393,92.774 24.297,93.048 24.936,93.597C25.58,94.145 25.934,94.875 25.997,95.786L24.032,95.874C23.982,95.398 23.81,95.034 23.515,94.78C23.221,94.526 22.785,94.399 22.21,94.399C21.643,94.399 21.237,94.499 20.993,94.698C20.752,94.898 20.632,95.149 20.632,95.453C20.632,95.738 20.743,95.974 20.965,96.16C21.188,96.35 21.679,96.611 22.441,96.942C23.588,97.436 24.318,97.837 24.63,98.145C25.097,98.599 25.331,99.181 25.331,99.893C25.331,100.772 24.982,101.525 24.284,102.15C23.59,102.771 22.622,103.082 21.38,103.082C20.523,103.082 19.78,102.939 19.15,102.654C18.524,102.364 18.082,101.962 17.824,101.45C17.566,100.938 17.445,100.349 17.464,99.682L17.464,99.682Z" style="fill:rgb(158,161,168);fill-rule:nonzero;"/>
            <path id="path1595" d="M26.364,102.912L28.452,92.944L30.498,92.944L28.418,102.912L26.364,102.912Z" style="fill:rgb(158,161,168);fill-rule:nonzero;"/>
            <path id="path1597" d="M35.863,97.588L40.324,97.588L39.426,101.865C38.9,102.205 38.255,102.493 37.488,102.728C36.727,102.964 35.949,103.082 35.156,103.082C33.923,103.082 32.978,102.803 32.321,102.246C31.423,101.484 30.974,100.38 30.974,98.934C30.974,97.964 31.167,97.035 31.552,96.146C32.015,95.077 32.672,94.247 33.524,93.658C34.376,93.068 35.378,92.774 36.53,92.774C37.681,92.774 38.604,93.041 39.297,93.576C39.995,94.111 40.458,94.891 40.684,95.915L38.774,96.133C38.606,95.571 38.334,95.147 37.958,94.861C37.586,94.576 37.117,94.433 36.55,94.433C35.888,94.433 35.281,94.605 34.728,94.95C34.175,95.294 33.742,95.827 33.429,96.548C33.116,97.268 32.96,98.055 32.96,98.907C32.96,99.746 33.15,100.367 33.531,100.77C33.912,101.169 34.469,101.368 35.204,101.368C35.643,101.368 36.095,101.307 36.557,101.185C37.019,101.058 37.418,100.908 37.754,100.736L38.06,99.254L35.517,99.254L35.863,97.588Z" style="fill:rgb(158,161,168);fill-rule:nonzero;"/>
            <path id="path1599" d="M49.109,102.912L47.198,102.912L44.506,96.214L43.105,102.912L41.194,102.912L43.275,92.944L45.192,92.944L47.892,99.614L49.286,92.944L51.19,92.944L49.109,102.912Z" style="fill:rgb(158,161,168);fill-rule:nonzero;"/>
            <path id="path1601" d="M57.731,100.709L53.78,100.709L52.584,102.912L50.476,102.912L56.113,92.944L58.39,92.944L60.009,102.912L58.064,102.912L57.731,100.709ZM57.479,99.05L56.901,95.038L54.494,99.05L57.479,99.05Z" style="fill:rgb(158,161,168);fill-rule:nonzero;"/>
            <path id="path1603" d="M61.321,102.912L63.409,92.944L65.455,92.944L63.721,101.246L68.794,101.246L68.447,102.912L61.321,102.912Z" style="fill:rgb(158,161,168);fill-rule:nonzero;"/>
            <path id="path1605" d="M73.309,102.912L75.396,92.944L77.443,92.944L75.362,102.912L73.309,102.912Z" style="fill:rgb(158,161,168);fill-rule:nonzero;"/>
            <path id="path1607" d="M85.228,102.912L83.318,102.912L80.625,96.214L79.224,102.912L77.314,102.912L79.394,92.944L81.312,92.944L84.011,99.614L85.405,92.944L87.309,92.944L85.228,102.912Z" style="fill:rgb(158,161,168);fill-rule:nonzero;"/>
        </g>
        <g id="text1480" transform="matrix(0.870078,0,0,1.14932,0,0)">
            <path id="path1582" d="M28.733,147.913L30.92,137.472L33.063,137.472L31.247,146.168L36.56,146.168L36.197,147.913L28.733,147.913Z" style="fill:rgb(158,161,168);fill-rule:nonzero;"/>
            <path id="path1584" d="M37.593,147.913L39.772,137.472L47.514,137.472L47.151,139.217L41.56,139.217L41.061,141.589L46.467,141.589L46.104,143.334L40.698,143.334L40.043,146.168L46.118,146.168L45.748,147.913L37.593,147.913Z" style="fill:rgb(158,161,168);fill-rule:nonzero;"/>
            <path id="path1586" d="M52.556,147.913L50.263,147.913L48.39,137.472L50.534,137.472L51.858,145.371L56.181,137.472L58.311,137.472L52.556,147.913Z" style="fill:rgb(158,161,168);fill-rule:nonzero;"/>
            <path id="path1588" d="M57.079,147.913L59.258,137.472L67,137.472L66.637,139.217L61.046,139.217L60.547,141.589L65.953,141.589L65.59,143.334L60.184,143.334L59.529,146.168L65.604,146.168L65.234,147.913L57.079,147.913Z" style="fill:rgb(158,161,168);fill-rule:nonzero;"/>
            <path id="path1590" d="M66.879,147.913L69.065,137.472L71.209,137.472L69.393,146.168L74.706,146.168L74.343,147.913L66.879,147.913Z" style="fill:rgb(158,161,168);fill-rule:nonzero;"/>
        </g>
        <g id="text1498" transform="matrix(0.841792,0,0,1.18794,0,5.00002)">
            <path id="path1573" d="M41.978,189.923L44.002,190.229C43.607,191.326 43.014,192.165 42.224,192.746C41.434,193.324 40.508,193.612 39.447,193.612C38.253,193.612 37.319,193.253 36.644,192.533C35.973,191.814 35.638,190.771 35.638,189.404C35.638,188.294 35.862,187.28 36.311,186.361C36.764,185.437 37.39,184.731 38.189,184.243C38.988,183.755 39.858,183.511 40.799,183.511C41.855,183.511 42.71,183.795 43.363,184.363C44.015,184.927 44.399,185.697 44.515,186.674L42.59,186.86C42.484,186.292 42.277,185.881 41.971,185.628C41.669,185.371 41.265,185.242 40.759,185.242C40.204,185.242 39.685,185.411 39.201,185.748C38.721,186.085 38.337,186.614 38.049,187.333C37.76,188.048 37.616,188.762 37.616,189.477C37.616,190.258 37.802,190.862 38.175,191.288C38.553,191.714 39.021,191.927 39.58,191.927C40.1,191.927 40.575,191.759 41.005,191.421C41.44,191.084 41.764,190.585 41.978,189.923L41.978,189.923Z" style="fill:rgb(158,161,168);fill-rule:nonzero;"/>
            <path id="path1575" d="M49.642,193.439L47.498,193.439L45.746,183.677L47.751,183.677L48.989,191.062L53.031,183.677L55.022,183.677L49.642,193.439Z" style="fill:rgb(158,161,168);fill-rule:nonzero;"/>
            <path id="path1577" d="M57.566,193.439L59.61,183.677L61.615,183.677L59.577,193.439L57.566,193.439Z" style="fill:rgb(158,161,168);fill-rule:nonzero;"/>
            <path id="path1579" d="M69.239,193.439L67.368,193.439L64.731,186.88L63.359,193.439L61.488,193.439L63.526,183.677L65.403,183.677L68.047,190.209L69.412,183.677L71.277,183.677L69.239,193.439Z" style="fill:rgb(158,161,168);fill-rule:nonzero;"/>
        </g>
        <g id="text1504" transform="matrix(0.821423,0,0,1.2174,0,-20)">
            <path id="path1554" d="M14.136,246.258L12.174,246.258L14.169,236.732L18.399,236.732C19.127,236.732 19.692,236.808 20.095,236.96C20.502,237.107 20.829,237.38 21.076,237.778C21.327,238.177 21.453,238.66 21.453,239.227C21.453,240.038 21.21,240.707 20.725,241.235C20.24,241.759 19.506,242.084 18.522,242.21C18.774,242.435 19.01,242.732 19.231,243.1C19.668,243.845 20.155,244.898 20.693,246.258L18.587,246.258C18.418,245.721 18.087,244.883 17.593,243.743C17.325,243.128 17.039,242.715 16.735,242.502C16.549,242.377 16.224,242.314 15.761,242.314L14.962,242.314L14.136,246.258ZM15.26,240.884L16.3,240.884C17.353,240.884 18.05,240.822 18.392,240.696C18.739,240.57 19.01,240.373 19.205,240.105C19.399,239.836 19.497,239.555 19.497,239.26C19.497,238.913 19.356,238.654 19.075,238.48C18.901,238.376 18.527,238.324 17.95,238.324L15.793,238.324L15.26,240.884Z" style="fill:rgb(158,161,168);fill-rule:nonzero;"/>
            <path id="path1556" d="M21.752,246.258L23.74,236.732L30.803,236.732L30.472,238.324L25.371,238.324L24.916,240.488L29.848,240.488L29.516,242.08L24.585,242.08L23.987,244.666L29.529,244.666L29.192,246.258L21.752,246.258Z" style="fill:rgb(158,161,168);fill-rule:nonzero;"/>
            <path id="path1558" d="M30.939,243.172L32.804,243.074C32.83,243.668 32.932,244.068 33.11,244.276C33.396,244.614 33.924,244.783 34.695,244.783C35.336,244.783 35.8,244.668 36.086,244.439C36.372,244.209 36.515,243.932 36.515,243.607C36.515,243.325 36.398,243.087 36.164,242.892C35.999,242.749 35.546,242.518 34.806,242.197C34.069,241.876 33.53,241.61 33.188,241.398C32.85,241.181 32.583,240.902 32.388,240.56C32.194,240.217 32.096,239.817 32.096,239.357C32.096,238.556 32.386,237.891 32.967,237.363C33.547,236.834 34.388,236.57 35.488,236.57C36.606,236.57 37.47,236.832 38.081,237.356C38.696,237.88 39.034,238.578 39.094,239.448L37.216,239.533C37.169,239.078 37.004,238.729 36.722,238.487C36.441,238.244 36.025,238.123 35.475,238.123C34.933,238.123 34.546,238.218 34.312,238.409C34.082,238.599 33.967,238.84 33.967,239.13C33.967,239.403 34.074,239.628 34.286,239.806C34.498,239.988 34.968,240.237 35.696,240.553C36.792,241.025 37.489,241.409 37.788,241.703C38.234,242.136 38.457,242.693 38.457,243.373C38.457,244.213 38.124,244.933 37.457,245.53C36.794,246.124 35.869,246.42 34.682,246.42C33.863,246.42 33.153,246.284 32.551,246.011C31.953,245.734 31.531,245.351 31.284,244.861C31.037,244.372 30.922,243.808 30.939,243.172L30.939,243.172Z" style="fill:rgb(158,161,168);fill-rule:nonzero;"/>
            <path id="path1560" d="M40.147,242.522C40.147,241.959 40.231,241.365 40.4,240.741C40.621,239.905 40.957,239.18 41.407,238.565C41.862,237.95 42.434,237.464 43.123,237.109C43.812,236.75 44.596,236.57 45.475,236.57C46.653,236.57 47.604,236.936 48.327,237.668C49.055,238.4 49.419,239.37 49.419,240.579C49.419,241.584 49.183,242.557 48.711,243.497C48.239,244.437 47.598,245.16 46.787,245.667C45.977,246.174 45.061,246.427 44.039,246.427C43.151,246.427 42.406,246.226 41.804,245.823C41.202,245.42 40.775,244.922 40.524,244.328C40.272,243.73 40.147,243.128 40.147,242.522L40.147,242.522ZM42.083,242.483C42.083,243.137 42.282,243.685 42.681,244.127C43.079,244.569 43.604,244.79 44.253,244.79C44.782,244.79 45.289,244.616 45.774,244.27C46.263,243.919 46.666,243.39 46.982,242.684C47.303,241.974 47.463,241.283 47.463,240.612C47.463,239.862 47.262,239.275 46.859,238.851C46.456,238.422 45.943,238.207 45.319,238.207C44.362,238.207 43.582,238.654 42.98,239.546C42.382,240.438 42.083,241.417 42.083,242.483Z" style="fill:rgb(158,161,168);fill-rule:nonzero;"/>
            <path id="path1562" d="M57.489,246.258L55.663,246.258L53.09,239.858L51.752,246.258L49.926,246.258L51.914,236.732L53.747,236.732L56.326,243.107L57.658,236.732L59.478,236.732L57.489,246.258Z" style="fill:rgb(158,161,168);fill-rule:nonzero;"/>
            <path id="path1564" d="M65.728,244.153L61.953,244.153L60.81,246.258L58.795,246.258L64.182,236.732L66.359,236.732L67.905,246.258L66.047,246.258L65.728,244.153ZM65.488,242.567L64.936,238.734L62.635,242.567L65.488,242.567Z" style="fill:rgb(158,161,168);fill-rule:nonzero;"/>
            <path id="path1566" d="M76.723,246.258L74.897,246.258L72.324,239.858L70.985,246.258L69.159,246.258L71.148,236.732L72.98,236.732L75.559,243.107L76.892,236.732L78.711,236.732L76.723,246.258Z" style="fill:rgb(158,161,168);fill-rule:nonzero;"/>
            <path id="path1568" d="M85.625,242.827L87.6,243.126C87.214,244.196 86.636,245.015 85.865,245.582C85.094,246.145 84.191,246.427 83.155,246.427C81.99,246.427 81.078,246.076 80.42,245.374C79.766,244.673 79.439,243.655 79.439,242.32C79.439,241.237 79.657,240.248 80.095,239.351C80.537,238.45 81.148,237.761 81.927,237.285C82.707,236.808 83.556,236.57 84.474,236.57C85.505,236.57 86.339,236.847 86.976,237.402C87.613,237.952 87.988,238.703 88.1,239.656L86.222,239.838C86.118,239.284 85.917,238.883 85.618,238.636C85.323,238.385 84.929,238.259 84.435,238.259C83.894,238.259 83.387,238.424 82.915,238.753C82.447,239.082 82.072,239.598 81.791,240.3C81.509,240.997 81.368,241.694 81.368,242.392C81.368,243.154 81.55,243.743 81.914,244.159C82.282,244.575 82.74,244.783 83.285,244.783C83.792,244.783 84.256,244.618 84.676,244.289C85.1,243.96 85.417,243.473 85.625,242.827L85.625,242.827Z" style="fill:rgb(158,161,168);fill-rule:nonzero;"/>
            <path id="path1570" d="M88.341,246.258L90.329,236.732L97.392,236.732L97.061,238.324L91.96,238.324L91.505,240.488L96.437,240.488L96.105,242.08L91.174,242.08L90.576,244.666L96.118,244.666L95.78,246.258L88.341,246.258Z" style="fill:rgb(158,161,168);fill-rule:nonzero;"/>
        </g>
        <g id="text1510" transform="matrix(0.835847,0,0,1.19639,0,-10)">
            <path id="path1535" d="M11.966,280.876L13.863,280.776C13.89,281.38 13.993,281.788 14.174,282C14.465,282.343 15.003,282.515 15.787,282.515C16.44,282.515 16.911,282.398 17.202,282.165C17.493,281.931 17.639,281.649 17.639,281.319C17.639,281.032 17.52,280.79 17.282,280.591C17.114,280.446 16.653,280.21 15.9,279.884C15.15,279.558 14.602,279.286 14.253,279.071C13.91,278.85 13.638,278.566 13.44,278.218C13.242,277.869 13.143,277.462 13.143,276.994C13.143,276.179 13.438,275.502 14.029,274.965C14.619,274.427 15.474,274.158 16.594,274.158C17.731,274.158 18.611,274.425 19.232,274.958C19.858,275.491 20.202,276.201 20.264,277.087L18.353,277.173C18.304,276.71 18.137,276.355 17.85,276.108C17.564,275.862 17.141,275.738 16.581,275.738C16.03,275.738 15.635,275.835 15.397,276.029C15.164,276.223 15.047,276.468 15.047,276.763C15.047,277.041 15.155,277.27 15.371,277.451C15.587,277.636 16.065,277.889 16.806,278.211C17.921,278.691 18.63,279.081 18.935,279.381C19.389,279.822 19.616,280.388 19.616,281.08C19.616,281.936 19.276,282.667 18.597,283.276C17.923,283.879 16.982,284.181 15.774,284.181C14.941,284.181 14.218,284.043 13.605,283.765C12.997,283.483 12.567,283.093 12.316,282.595C12.065,282.096 11.948,281.523 11.966,280.875L11.966,280.876Z" style="fill:rgb(158,161,168);fill-rule:nonzero;"/>
            <path id="path1537" d="M20.621,284.016L22.65,274.323L24.641,274.323L22.617,284.016L20.621,284.016Z" style="fill:rgb(158,161,168);fill-rule:nonzero;"/>
            <path id="path1539" d="M29.857,278.839L34.195,278.839L33.322,282.998C32.811,283.329 32.182,283.608 31.438,283.838C30.697,284.067 29.941,284.181 29.17,284.181C27.971,284.181 27.052,283.91 26.413,283.368C25.54,282.628 25.103,281.554 25.103,280.148C25.103,279.205 25.291,278.301 25.665,277.437C26.115,276.397 26.754,275.59 27.583,275.017C28.412,274.444 29.386,274.158 30.505,274.158C31.625,274.158 32.522,274.418 33.196,274.938C33.875,275.458 34.325,276.216 34.545,277.213L32.687,277.424C32.524,276.878 32.26,276.465 31.894,276.188C31.532,275.91 31.076,275.771 30.525,275.771C29.882,275.771 29.291,275.939 28.753,276.274C28.215,276.609 27.794,277.127 27.49,277.827C27.186,278.528 27.034,279.293 27.034,280.122C27.034,280.937 27.219,281.541 27.589,281.933C27.96,282.321 28.502,282.515 29.216,282.515C29.644,282.515 30.082,282.456 30.532,282.337C30.981,282.213 31.369,282.068 31.695,281.9L31.993,280.459L29.52,280.459L29.857,278.839Z" style="fill:rgb(158,161,168);fill-rule:nonzero;"/>
            <path id="path1541" d="M42.737,284.016L40.879,284.016L38.261,277.504L36.899,284.016L35.041,284.016L37.064,274.323L38.929,274.323L41.554,280.809L42.909,274.323L44.76,274.323L42.737,284.016Z" style="fill:rgb(158,161,168);fill-rule:nonzero;"/>
            <path id="path1543" d="M51.121,281.874L47.28,281.874L46.116,284.016L44.066,284.016L49.547,274.323L51.762,274.323L53.336,284.016L51.445,284.016L51.121,281.874ZM50.876,280.261L50.314,276.36L47.974,280.261L50.876,280.261Z" style="fill:rgb(158,161,168);fill-rule:nonzero;"/>
            <path id="path1545" d="M54.612,284.016L56.642,274.323L58.632,274.323L56.946,282.396L61.878,282.396L61.541,284.016L54.612,284.016Z" style="fill:rgb(158,161,168);fill-rule:nonzero;"/>
            <path id="path1547" d="M66.983,280.214C66.983,279.641 67.069,279.037 67.241,278.403C67.465,277.552 67.807,276.814 68.266,276.188C68.728,275.562 69.31,275.068 70.011,274.707C70.712,274.341 71.51,274.158 72.405,274.158C73.603,274.158 74.571,274.53 75.307,275.275C76.048,276.02 76.418,277.008 76.418,278.237C76.418,279.26 76.178,280.25 75.697,281.206C75.217,282.163 74.564,282.899 73.74,283.414C72.916,283.93 71.984,284.188 70.943,284.188C70.04,284.188 69.282,283.983 68.669,283.573C68.056,283.163 67.622,282.656 67.366,282.052C67.111,281.444 66.983,280.831 66.983,280.214L66.983,280.214ZM68.953,280.175C68.953,280.84 69.156,281.398 69.561,281.847C69.967,282.297 70.5,282.522 71.161,282.522C71.699,282.522 72.215,282.346 72.709,281.993C73.207,281.636 73.617,281.098 73.938,280.38C74.265,279.657 74.428,278.954 74.428,278.27C74.428,277.508 74.223,276.911 73.813,276.479C73.403,276.042 72.881,275.824 72.246,275.824C71.272,275.824 70.478,276.278 69.866,277.186C69.257,278.094 68.953,279.09 68.953,280.175Z" style="fill:rgb(158,161,168);fill-rule:nonzero;"/>
            <path id="path1549" d="M78.911,274.323L80.901,274.323L79.803,279.586L79.532,280.882C79.514,280.992 79.506,281.096 79.506,281.193C79.506,281.576 79.644,281.894 79.922,282.145C80.204,282.392 80.612,282.515 81.145,282.515C81.626,282.515 82.023,282.425 82.335,282.244C82.648,282.063 82.891,281.795 83.063,281.438C83.235,281.081 83.409,280.474 83.585,279.619L84.696,274.323L86.686,274.323L85.582,279.626C85.348,280.741 85.079,281.594 84.775,282.185C84.471,282.775 84.01,283.256 83.393,283.626C82.776,283.996 81.996,284.181 81.053,284.181C79.924,284.181 79.06,283.906 78.461,283.355C77.861,282.8 77.562,282.088 77.562,281.219C77.562,281.039 77.577,280.842 77.608,280.631C77.626,280.49 77.703,280.089 77.839,279.428L78.911,274.323Z" style="fill:rgb(158,161,168);fill-rule:nonzero;"/>
            <path id="path1551" d="M90.885,284.016L88.888,284.016L90.58,275.943L87.737,275.943L88.075,274.323L95.711,274.323L95.374,275.943L92.571,275.943L90.885,284.016Z" style="fill:rgb(158,161,168);fill-rule:nonzero;"/>
        </g>
        <g id="text1524" transform="matrix(0.783753,0,0,1.27591,0,0)">
            <path id="path1526" d="M43.51,31.189L41.737,31.189L41.408,23.594L39.964,31.189L38.277,31.189L40.174,22.1L42.84,22.1L43.119,28.467L46.219,22.1L48.916,22.1L47.013,31.189L45.308,31.189L47.1,23.65L43.51,31.189Z" style="fill:rgb(158,161,168);fill-rule:nonzero;"/>
            <path id="path1528" d="M49.462,27.624C49.462,27.087 49.542,26.521 49.703,25.925C49.914,25.128 50.235,24.435 50.664,23.848C51.098,23.262 51.644,22.799 52.301,22.46C52.958,22.117 53.706,21.945 54.546,21.945C55.67,21.945 56.577,22.294 57.267,22.993C57.962,23.691 58.309,24.617 58.309,25.77C58.309,26.729 58.084,27.657 57.633,28.554C57.182,29.451 56.571,30.141 55.798,30.625C55.025,31.108 54.151,31.35 53.175,31.35C52.328,31.35 51.617,31.158 51.043,30.774C50.468,30.389 50.061,29.914 49.821,29.348C49.582,28.777 49.462,28.203 49.462,27.624ZM51.309,27.587C51.309,28.211 51.499,28.734 51.88,29.155C52.26,29.577 52.76,29.788 53.38,29.788C53.884,29.788 54.368,29.622 54.831,29.292C55.298,28.957 55.682,28.453 55.984,27.779C56.29,27.101 56.443,26.442 56.443,25.801C56.443,25.086 56.25,24.526 55.866,24.121C55.482,23.712 54.992,23.507 54.397,23.507C53.483,23.507 52.739,23.933 52.165,24.785C51.594,25.636 51.309,26.57 51.309,27.587Z" style="fill:rgb(158,161,168);fill-rule:nonzero;"/>
            <path id="path1530" d="M58.774,31.189L60.677,22.1L63.126,22.1C63.808,22.1 64.244,22.11 64.434,22.131C64.81,22.168 65.145,22.245 65.439,22.36C65.736,22.476 66.005,22.639 66.244,22.85C66.488,23.057 66.697,23.307 66.871,23.6C67.048,23.894 67.185,24.233 67.28,24.617C67.375,24.997 67.422,25.415 67.422,25.87C67.422,26.849 67.234,27.719 66.858,28.48C66.486,29.236 66.017,29.837 65.451,30.284C65.017,30.631 64.457,30.887 63.771,31.053C63.382,31.143 62.785,31.189 61.979,31.189L58.774,31.189ZM60.95,29.726L61.898,29.726C62.585,29.726 63.081,29.684 63.386,29.602C63.696,29.515 63.979,29.356 64.236,29.124C64.604,28.79 64.914,28.343 65.166,27.785C65.418,27.227 65.544,26.57 65.544,25.814C65.544,25.169 65.439,24.685 65.228,24.363C65.021,24.036 64.765,23.819 64.459,23.712C64.244,23.638 63.862,23.6 63.312,23.6L62.227,23.6L60.95,29.726Z" style="fill:rgb(158,161,168);fill-rule:nonzero;"/>
            <path id="path1532" d="M67.918,31.189L69.816,22.1L76.555,22.1L76.238,23.619L71.372,23.619L70.938,25.684L75.643,25.684L75.327,27.202L70.621,27.202L70.051,29.67L75.34,29.67L75.017,31.189L67.918,31.189Z" style="fill:rgb(158,161,168);fill-rule:nonzero;"/>
        </g>
    </g>
</svg>
