<?xml version="1.0" encoding="UTF-8" standalone="no"?>
<!DOCTYPE svg PUBLIC "-//W3C//DTD SVG 1.1//EN" "http://www.w3.org/Graphics/SVG/1.1/DTD/svg11.dtd">
<svg width="100%" height="100%" viewBox="0 0 30 380" version="1.1" xmlns="http://www.w3.org/2000/svg" xmlns:xlink="http://www.w3.org/1999/xlink" xml:space="preserve" xmlns:serif="http://www.serif.com/" style="fill-rule:evenodd;clip-rule:evenodd;stroke-linejoin:round;stroke-miterlimit:2;">
    <g id="Layer-2" serif:id="Layer 2">
        <g id="text989">
        </g>
        <rect id="rect4689" x="0.1" y="0" width="30" height="380" style="fill:rgb(44,45,48);"/>
        <g id="text80" transform="matrix(1.00498,0,0,0.995047,-30,4.99997)">
            <path id="path4726" d="M29.851,371.706L29.851,363.943L31.853,363.943L32.903,366.668C32.96,366.829 33.024,367.013 33.094,367.221C33.168,367.429 33.249,367.668 33.336,367.94L33.552,368.624C33.475,367.95 33.416,367.373 33.376,366.894C33.336,366.415 33.316,366.013 33.316,365.687L33.316,363.943L35.317,363.943L35.317,371.706L33.316,371.706L32.26,368.85C32.149,368.545 32.049,368.26 31.958,367.995C31.871,367.727 31.794,367.472 31.727,367.231C31.77,367.777 31.802,368.253 31.822,368.659C31.843,369.065 31.853,369.42 31.853,369.725L31.853,371.706L29.851,371.706Z" style="fill:rgb(158,161,168);fill-rule:nonzero;"/>
            <path id="path4728" d="M39.887,371.706L37.791,371.706L37.791,368.418L35.865,363.943L38.052,363.943L38.429,365.094C38.503,365.319 38.568,365.535 38.625,365.743C38.686,365.951 38.739,366.15 38.786,366.341C38.863,366.056 38.93,365.811 38.987,365.607C39.044,365.399 39.095,365.232 39.138,365.104L39.52,363.943L41.692,363.943L39.887,368.418L39.887,371.706Z" style="fill:rgb(158,161,168);fill-rule:nonzero;"/>
            <path id="path4730" d="M41.894,371.515L41.894,369.076C42.306,369.639 42.752,369.921 43.231,369.921C43.412,369.921 43.56,369.874 43.673,369.78C43.787,369.683 43.844,369.562 43.844,369.418C43.844,369.21 43.72,369.008 43.472,368.81L43.13,368.543C42.902,368.372 42.708,368.203 42.547,368.035C42.386,367.865 42.256,367.69 42.155,367.513C42.054,367.332 41.981,367.146 41.934,366.954C41.887,366.763 41.863,366.562 41.863,366.351C41.863,365.989 41.947,365.61 42.115,365.215C42.199,365.03 42.296,364.863 42.406,364.712C42.517,364.558 42.644,364.422 42.789,364.305C43.184,363.969 43.662,363.802 44.222,363.802C44.721,363.802 45.224,363.934 45.73,364.199L45.73,366.572C45.559,366.308 45.365,366.1 45.147,365.949C44.929,365.795 44.714,365.718 44.503,365.718C44.342,365.718 44.21,365.765 44.106,365.858C43.999,365.949 43.945,366.058 43.945,366.185C43.945,366.393 44.087,366.599 44.372,366.804L44.704,367.05C45.147,367.368 45.463,367.695 45.655,368.03C45.849,368.366 45.946,368.758 45.946,369.207C45.946,369.971 45.713,370.601 45.247,371.098C44.781,371.594 44.191,371.842 43.477,371.842C42.985,371.842 42.457,371.733 41.894,371.515L41.894,371.515Z" style="fill:rgb(158,161,168);fill-rule:nonzero;"/>
            <path id="path4732" d="M49.576,371.706L47.48,371.706L47.48,365.803L46.323,365.803L46.323,363.943L50.778,363.943L50.778,365.803L49.576,365.803L49.576,371.706Z" style="fill:rgb(158,161,168);fill-rule:nonzero;"/>
            <path id="path4734" d="M56.525,371.706L54.428,371.706L54.428,368.584L53.428,368.584L53.428,371.706L51.331,371.706L51.331,363.943L53.428,363.943L53.428,366.688L54.428,366.688L54.428,363.943L56.525,363.943L56.525,371.706Z" style="fill:rgb(158,161,168);fill-rule:nonzero;"/>
            <rect id="path4736" x="57.606" y="363.943" width="2.097" height="7.763" style="fill:rgb(158,161,168);fill-rule:nonzero;"/>
        </g>
        <g id="text4987">
        </g>
        <g id="text1042">
        </g>
        <g id="text1313" transform="matrix(1,0,0,1,0,-10)">
            <path id="path1436" d="M4.865,30.859L5.708,30.859L7.432,38.901L6.359,38.901L6.057,37.333L4.464,37.333L4.156,38.901L3.115,38.901L4.865,30.859ZM5.901,36.495L5.661,35.214C5.502,34.342 5.372,33.411 5.271,32.422C5.222,32.905 5.16,33.394 5.083,33.891C5.007,34.384 4.917,34.908 4.813,35.464L4.615,36.495L5.901,36.495Z" style="fill:rgb(158,161,168);fill-rule:nonzero;"/>
            <path id="path1438" d="M7.266,30.859L10.792,30.859L10.792,31.807L9.578,31.807L9.578,38.901L8.516,38.901L8.516,31.807L7.266,31.807L7.266,30.859Z" style="fill:rgb(158,161,168);fill-rule:nonzero;"/>
            <path id="path1440" d="M10.745,30.859L14.271,30.859L14.271,31.807L13.057,31.807L13.057,38.901L11.995,38.901L11.995,31.807L10.745,31.807L10.745,30.859Z" style="fill:rgb(158,161,168);fill-rule:nonzero;"/>
            <path id="path1442" d="M15.865,30.859L16.708,30.859L18.432,38.901L17.359,38.901L17.057,37.333L15.464,37.333L15.156,38.901L14.115,38.901L15.865,30.859ZM16.901,36.495L16.661,35.214C16.502,34.342 16.372,33.411 16.271,32.422C16.222,32.905 16.16,33.394 16.083,33.891C16.007,34.384 15.917,34.908 15.812,35.464L15.615,36.495L16.901,36.495Z" style="fill:rgb(158,161,168);fill-rule:nonzero;"/>
            <path id="path1444" d="M22.167,30.99L22.167,31.964C21.889,31.828 21.656,31.76 21.469,31.76C21.212,31.76 20.991,31.825 20.807,31.953C20.623,32.078 20.47,32.273 20.349,32.536C20.231,32.8 20.142,33.135 20.083,33.542C20.028,33.944 20,34.422 20,34.974C20,36.96 20.509,37.953 21.526,37.953C21.703,37.953 21.917,37.898 22.167,37.786L22.167,38.781C21.906,38.927 21.615,39 21.292,39C19.663,39 18.849,37.67 18.849,35.01C18.849,33.573 19.047,32.503 19.443,31.802C19.842,31.101 20.451,30.75 21.271,30.75C21.573,30.75 21.872,30.83 22.167,30.99L22.167,30.99Z" style="fill:rgb(158,161,168);fill-rule:nonzero;"/>
            <path id="path1446" d="M23.073,30.859L24.156,30.859L24.156,34.755L25.667,30.859L26.76,30.859L25.177,34.755L26.885,38.901L25.667,38.901L24.156,34.755L24.156,38.901L23.073,38.901L23.073,30.859Z" style="fill:rgb(158,161,168);fill-rule:nonzero;"/>
        </g>
        <g id="text1321" transform="matrix(1,0,0,1,0,-15.0001)">
            <path id="path1431" d="M14.531,64.99L14.531,65.964C14.253,65.828 14.021,65.76 13.833,65.76C13.576,65.76 13.356,65.825 13.172,65.953C12.988,66.078 12.835,66.273 12.714,66.536C12.595,66.8 12.507,67.135 12.448,67.542C12.392,67.944 12.365,68.422 12.365,68.974C12.365,70.96 12.873,71.953 13.891,71.953C14.068,71.953 14.281,71.898 14.531,71.786L14.531,72.781C14.271,72.927 13.979,73 13.656,73C12.028,73 11.214,71.67 11.214,69.01C11.214,67.573 11.411,66.504 11.807,65.802C12.207,65.101 12.816,64.75 13.635,64.75C13.937,64.75 14.236,64.83 14.531,64.99L14.531,64.99Z" style="fill:rgb(158,161,168);fill-rule:nonzero;"/>
            <path id="path1433" d="M14.797,64.859L15.865,64.859L16.349,67.828L16.432,68.365L16.604,69.531C16.632,69.729 16.656,69.91 16.677,70.073C16.701,70.236 16.722,70.384 16.74,70.516L16.792,70.911C16.802,70.832 16.811,70.76 16.818,70.698C16.825,70.635 16.832,70.583 16.839,70.542L16.979,69.609L17.161,68.385C17.179,68.274 17.194,68.172 17.208,68.078C17.226,67.984 17.241,67.901 17.255,67.828L17.776,64.859L18.786,64.859L17.208,72.901L16.349,72.901L14.797,64.859Z" style="fill:rgb(158,161,168);fill-rule:nonzero;"/>
        </g>
        <g id="text1329" transform="matrix(1,0,0,1,0,-19.0001)">
            <path id="path1411" d="M14.531,132.99L14.531,133.964C14.253,133.828 14.021,133.76 13.833,133.76C13.576,133.76 13.356,133.825 13.172,133.953C12.988,134.078 12.835,134.273 12.714,134.537C12.595,134.8 12.507,135.136 12.448,135.542C12.392,135.945 12.365,136.422 12.365,136.974C12.365,138.96 12.873,139.953 13.891,139.953C14.068,139.953 14.281,139.898 14.531,139.787L14.531,140.781C14.271,140.927 13.979,141 13.656,141C12.028,141 11.214,139.67 11.214,137.011C11.214,135.573 11.411,134.504 11.807,133.802C12.207,133.101 12.816,132.75 13.635,132.75C13.937,132.75 14.236,132.83 14.531,132.99L14.531,132.99Z" style="fill:rgb(158,161,168);fill-rule:nonzero;"/>
            <path id="path1413" d="M14.797,132.859L15.865,132.859L16.349,135.828L16.432,136.365L16.604,137.531C16.632,137.729 16.656,137.91 16.677,138.073C16.701,138.236 16.722,138.384 16.74,138.516L16.792,138.912C16.802,138.832 16.811,138.76 16.818,138.698C16.825,138.635 16.832,138.583 16.839,138.542L16.979,137.609L17.161,136.385C17.179,136.274 17.194,136.172 17.208,136.078C17.226,135.984 17.241,135.901 17.255,135.828L17.776,132.859L18.786,132.859L17.208,140.901L16.349,140.901L14.797,132.859Z" style="fill:rgb(158,161,168);fill-rule:nonzero;"/>
        </g>
        <g id="text1341" transform="matrix(1,0,0,1,1.88976e-07,-26.0001)">
            <path id="path1378" d="M7.576,234.86L11.102,234.86L11.102,235.807L9.888,235.807L9.888,242.901L8.826,242.901L8.826,235.807L7.576,235.807L7.576,234.86Z" style="fill:rgb(158,161,168);fill-rule:nonzero;"/>
            <path id="path1381" d="M11.695,234.86L13.122,234.86C13.713,234.86 14.152,235 14.44,235.281C14.805,235.646 14.987,236.203 14.987,236.953C14.987,237.53 14.89,237.993 14.695,238.344C14.504,238.691 14.23,238.906 13.872,238.99L15.352,242.901L14.253,242.901L12.779,238.964L12.779,242.901L11.695,242.901L11.695,234.86ZM12.779,238.422C13.199,238.422 13.496,238.325 13.669,238.13C13.843,237.936 13.93,237.608 13.93,237.146C13.93,236.896 13.911,236.682 13.872,236.505C13.838,236.328 13.78,236.184 13.701,236.073C13.624,235.962 13.523,235.88 13.398,235.828C13.277,235.776 13.131,235.75 12.961,235.75L12.779,235.75L12.779,238.422Z" style="fill:rgb(158,161,168);fill-rule:nonzero;"/>
            <rect id="path1383" x="16.195" y="234.86" width="1.083" height="8.042" style="fill:rgb(158,161,168);fill-rule:nonzero;"/>
            <path id="path1385" d="M20.456,238.672L22.424,238.672L22.424,238.985C22.424,240.55 22.287,241.608 22.013,242.156C21.742,242.719 21.235,243 20.492,243C19.725,243 19.178,242.688 18.852,242.063C18.529,241.438 18.367,240.387 18.367,238.912C18.367,237.224 18.544,236.101 18.898,235.542C19.232,235.018 19.744,234.755 20.435,234.755C20.963,234.755 21.374,234.882 21.669,235.136C21.968,235.393 22.201,235.814 22.367,236.401L21.357,236.823C21.312,236.611 21.261,236.434 21.206,236.292C21.15,236.146 21.089,236.033 21.023,235.953C20.891,235.79 20.694,235.708 20.43,235.708C20.069,235.708 19.822,235.931 19.69,236.375C19.558,236.84 19.492,237.675 19.492,238.88C19.492,240.099 19.56,240.924 19.695,241.354C19.831,241.785 20.086,242 20.461,242C20.805,242 21.046,241.847 21.185,241.542C21.327,241.215 21.398,240.691 21.398,239.969L21.398,239.75L21.398,239.589L20.456,239.589L20.456,238.672Z" style="fill:rgb(158,161,168);fill-rule:nonzero;"/>
        </g>
        <g id="text1349" transform="matrix(1,0,0,1,9.44882e-08,10)">
            <path id="path1351" d="M1.026,302.86L3.906,302.86L3.906,303.776L2.109,303.776L2.109,306.323L3.703,306.323L3.703,307.24L2.109,307.24L2.109,309.985L3.906,309.985L3.906,310.901L1.026,310.901L1.026,302.86Z" style="fill:rgb(158,161,168);fill-rule:nonzero;"/>
            <path id="path1353" d="M4.901,302.86L5.911,302.86L6.99,306.068C7.302,306.974 7.578,307.941 7.818,308.969C7.731,308.347 7.667,307.785 7.625,307.281C7.583,306.778 7.563,306.304 7.563,305.86L7.563,302.86L8.651,302.86L8.651,310.901L7.635,310.901L6.422,307.281C6.311,306.945 6.205,306.599 6.104,306.245C6.007,305.891 5.917,305.519 5.833,305.13C5.826,305.082 5.814,305.023 5.797,304.953C5.783,304.884 5.766,304.804 5.745,304.714C5.755,304.804 5.764,304.882 5.771,304.948C5.778,305.011 5.783,305.064 5.786,305.11L5.844,305.927L5.901,306.922C5.904,306.978 5.906,307.045 5.906,307.125C5.91,307.205 5.911,307.295 5.911,307.396L5.969,310.901L4.901,310.901L4.901,302.86Z" style="fill:rgb(158,161,168);fill-rule:nonzero;"/>
            <path id="path1355" d="M9.26,302.86L10.328,302.86L10.812,305.828L10.896,306.365L11.068,307.531C11.095,307.729 11.12,307.91 11.141,308.073C11.165,308.236 11.186,308.384 11.203,308.516L11.255,308.912C11.266,308.832 11.274,308.761 11.281,308.698C11.288,308.636 11.295,308.584 11.302,308.542L11.443,307.61L11.625,306.386C11.642,306.275 11.658,306.172 11.672,306.078C11.689,305.985 11.705,305.901 11.719,305.828L12.24,302.86L13.25,302.86L11.672,310.901L10.812,310.901L9.26,302.86Z" style="fill:rgb(158,161,168);fill-rule:nonzero;"/>
            <path id="path1357" d="M20.073,307.078C20.073,308.498 19.915,309.507 19.599,310.104C19.283,310.702 18.753,311 18.01,311C17.229,311 16.679,310.679 16.359,310.037C16.043,309.408 15.885,308.292 15.885,306.688C15.885,305.257 16.042,304.245 16.354,303.651C16.67,303.054 17.205,302.755 17.958,302.755C18.632,302.755 19.132,302.986 19.458,303.448C19.674,303.757 19.83,304.196 19.927,304.766C20.024,305.294 20.073,306.064 20.073,307.078L20.073,307.078ZM18.938,307.193C18.938,305.801 18.875,304.877 18.75,304.422C18.625,303.964 18.37,303.735 17.984,303.735C17.599,303.735 17.342,303.945 17.214,304.365C17.089,304.788 17.026,305.639 17.026,306.917C17.026,308.094 17.092,308.91 17.224,309.365C17.359,309.795 17.613,310.011 17.984,310.011C18.349,310.011 18.599,309.809 18.734,309.406C18.87,309.007 18.937,308.269 18.937,307.193L18.938,307.193Z" style="fill:rgb(158,161,168);fill-rule:nonzero;"/>
            <path id="path1359" d="M21.151,302.86L22.214,302.86L22.214,308.542C22.214,309.122 22.266,309.507 22.37,309.698C22.477,309.889 22.689,309.985 23.005,309.985C23.321,309.985 23.53,309.901 23.63,309.735C23.734,309.564 23.786,309.219 23.786,308.698L23.786,302.86L24.849,302.86L24.849,308.698C24.849,309.573 24.715,310.165 24.448,310.474C24.128,310.825 23.641,311 22.984,311C22.262,311 21.753,310.774 21.458,310.323C21.253,310.014 21.151,309.42 21.151,308.542L21.151,302.86Z" style="fill:rgb(158,161,168);fill-rule:nonzero;"/>
            <path id="path1361" d="M25.448,302.86L28.974,302.86L28.974,303.808L27.76,303.808L27.76,310.901L26.698,310.901L26.698,303.808L25.448,303.808L25.448,302.86Z" style="fill:rgb(158,161,168);fill-rule:nonzero;"/>
        </g>
        <g id="text1334" transform="matrix(1,0,0,1,0,-14)">
            <path id="path1347" d="M4.656,98.859L5.99,98.859C6.396,98.859 6.738,98.905 7.016,98.995C7.273,99.082 7.502,99.236 7.703,99.458C8.005,99.792 8.22,100.226 8.349,100.76C8.477,101.278 8.542,102.019 8.542,102.984C8.542,103.87 8.47,104.592 8.328,105.151C8.189,105.686 7.96,106.094 7.641,106.375C7.248,106.726 6.545,106.901 5.531,106.901L4.656,106.901L4.656,98.859ZM5.74,105.953C6.399,105.953 6.84,105.753 7.062,105.354C7.292,104.955 7.406,104.179 7.406,103.026C7.406,101.786 7.297,100.934 7.078,100.469C6.859,100.003 6.458,99.771 5.875,99.771L5.74,99.771L5.74,105.953Z" style="fill:rgb(158,161,168);fill-rule:nonzero;"/>
            <path id="path1349" d="M9.615,98.859L12.495,98.859L12.495,99.776L10.698,99.776L10.698,102.323L12.292,102.323L12.292,103.24L10.698,103.24L10.698,105.984L12.495,105.984L12.495,106.901L9.615,106.901L9.615,98.859Z" style="fill:rgb(158,161,168);fill-rule:nonzero;"/>
            <path id="path1362" d="M16.646,98.99L16.646,99.964C16.368,99.828 16.135,99.76 15.948,99.76C15.691,99.76 15.47,99.825 15.286,99.953C15.102,100.078 14.95,100.273 14.828,100.536C14.71,100.8 14.622,101.135 14.563,101.542C14.507,101.944 14.479,102.422 14.479,102.974C14.479,104.96 14.988,105.953 16.005,105.953C16.182,105.953 16.396,105.898 16.646,105.786L16.646,106.781C16.385,106.927 16.094,107 15.771,107C14.142,107 13.328,105.67 13.328,103.01C13.328,101.573 13.526,100.503 13.922,99.802C14.321,99.101 14.931,98.75 15.75,98.75C16.052,98.75 16.351,98.83 16.646,98.99L16.646,98.99Z" style="fill:rgb(158,161,168);fill-rule:nonzero;"/>
            <path id="path1376" d="M18.99,98.859L19.833,98.859L21.557,106.901L20.484,106.901L20.182,105.333L18.589,105.333L18.281,106.901L17.24,106.901L18.99,98.859ZM20.026,104.495L19.786,103.214C19.627,102.342 19.497,101.411 19.396,100.422C19.347,100.905 19.285,101.394 19.208,101.891C19.132,102.384 19.042,102.908 18.937,103.464L18.74,104.495L20.026,104.495Z" style="fill:rgb(158,161,168);fill-rule:nonzero;"/>
            <path id="path1379" d="M21.182,98.859L22.328,98.859L22.859,100.609C22.877,100.661 22.894,100.719 22.911,100.781C22.929,100.844 22.95,100.911 22.974,100.984C23.172,101.616 23.307,102.148 23.38,102.578C23.443,102.148 23.495,101.847 23.536,101.677L23.703,100.958L23.766,100.677L24.214,98.859L25.344,98.859L23.943,103.443L23.943,106.901L22.859,106.901L22.859,103.443L21.182,98.859Z" style="fill:rgb(158,161,168);fill-rule:nonzero;"/>
        </g>
        <g id="text1433" transform="matrix(1,0,0,1,0,6)">
            <path id="path1450" d="M2.979,142.958L4.063,142.958L4.063,150.083L5.833,150.083L5.833,151L2.979,151L2.979,142.958Z" style="fill:rgb(158,161,168);fill-rule:nonzero;"/>
            <rect id="path1452" x="6.521" y="142.958" width="1.083" height="8.042" style="fill:rgb(158,161,168);fill-rule:nonzero;"/>
            <path id="path1454" d="M8.854,142.958L9.865,142.958L10.943,146.167C11.255,147.073 11.531,148.04 11.771,149.068C11.684,148.446 11.62,147.884 11.578,147.38C11.536,146.877 11.516,146.403 11.516,145.958L11.516,142.958L12.604,142.958L12.604,151L11.589,151L10.375,147.38C10.264,147.043 10.158,146.698 10.057,146.344C9.96,145.99 9.87,145.618 9.786,145.229C9.78,145.181 9.767,145.122 9.75,145.052C9.736,144.983 9.719,144.903 9.698,144.813C9.708,144.903 9.717,144.981 9.724,145.047C9.731,145.109 9.736,145.163 9.74,145.208L9.797,146.026L9.854,147.021C9.858,147.076 9.859,147.144 9.859,147.224C9.863,147.304 9.865,147.394 9.865,147.495L9.922,151L8.854,151L8.854,142.958Z" style="fill:rgb(158,161,168);fill-rule:nonzero;"/>
            <rect id="path1456" x="13.234" y="147.833" width="1.896" height="0.813" style="fill:rgb(158,161,168);fill-rule:nonzero;"/>
            <path id="path1458" d="M15.75,142.958L18.63,142.958L18.63,143.875L16.833,143.875L16.833,146.422L18.427,146.422L18.427,147.339L16.833,147.339L16.833,150.083L18.63,150.083L18.63,151L15.75,151L15.75,142.958Z" style="fill:rgb(158,161,168);fill-rule:nonzero;"/>
            <path id="path1460" d="M19.078,142.958L20.13,142.958L20.687,144.516C20.906,145.13 21.036,145.58 21.078,145.865C21.116,145.687 21.158,145.516 21.203,145.349C21.252,145.182 21.302,145.016 21.354,144.849L21.427,144.615L21.943,142.958L23.036,142.958L21.547,146.917L23.036,151L21.943,151L21.411,149.469C21.304,149.163 21.217,148.889 21.151,148.646C21.085,148.403 21.038,148.188 21.01,148C20.983,148.233 20.936,148.455 20.87,148.667L20.688,149.24L20.594,149.542L20.13,151L18.984,151L20.505,146.917L19.078,142.958Z" style="fill:rgb(158,161,168);fill-rule:nonzero;"/>
            <path id="path1462" d="M23.625,142.958L25.052,142.958C25.74,142.958 26.24,143.132 26.552,143.479C26.865,143.83 27.021,144.385 27.021,145.146C27.021,146.215 26.707,146.906 26.078,147.219C25.762,147.361 25.306,147.432 24.708,147.432L24.708,151L23.625,151L23.625,142.958ZM24.708,146.505C25.156,146.505 25.465,146.415 25.635,146.234C25.809,146.05 25.896,145.724 25.896,145.255C25.896,144.776 25.812,144.425 25.646,144.203C25.479,143.981 25.217,143.87 24.859,143.87L24.708,143.87L24.708,146.505Z" style="fill:rgb(158,161,168);fill-rule:nonzero;"/>
        </g>
        <g id="text1437" transform="matrix(1,0,0,1,0,6.99997)">
            <path id="path1439" d="M8.247,172.026L8.247,173.083C7.918,172.847 7.621,172.729 7.357,172.729C7.072,172.729 6.839,172.83 6.659,173.031C6.478,173.222 6.388,173.477 6.388,173.797C6.388,174.078 6.452,174.319 6.581,174.521C6.647,174.628 6.754,174.767 6.904,174.938C7.056,175.108 7.253,175.313 7.492,175.552C7.933,176 8.234,176.387 8.393,176.714C8.553,177.03 8.633,177.417 8.633,177.875C8.633,178.497 8.457,179.009 8.107,179.411C7.756,179.804 7.306,180 6.758,180C6.296,180 5.902,179.873 5.576,179.62L5.576,178.547C5.961,178.828 6.312,178.969 6.628,178.969C6.923,178.969 7.154,178.872 7.32,178.677C7.487,178.479 7.57,178.212 7.57,177.875C7.57,177.583 7.506,177.321 7.378,177.089C7.312,176.977 7.22,176.851 7.102,176.708C6.984,176.562 6.836,176.401 6.659,176.224C6.385,175.953 6.157,175.714 5.977,175.505C5.796,175.297 5.662,175.115 5.576,174.958C5.409,174.653 5.326,174.267 5.326,173.802C5.326,173.174 5.489,172.675 5.815,172.307C6.145,171.936 6.588,171.75 7.143,171.75C7.529,171.75 7.897,171.842 8.247,172.026L8.247,172.026Z" style="fill:rgb(158,161,168);fill-rule:nonzero;"/>
            <path id="path1441" d="M12.701,171.99L12.701,172.964C12.423,172.828 12.19,172.76 12.003,172.76C11.746,172.76 11.525,172.825 11.341,172.953C11.157,173.078 11.004,173.273 10.883,173.536C10.765,173.8 10.676,174.135 10.617,174.542C10.562,174.944 10.534,175.422 10.534,175.974C10.534,177.96 11.043,178.953 12.06,178.953C12.237,178.953 12.451,178.898 12.701,178.786L12.701,179.781C12.44,179.927 12.148,180 11.826,180C10.197,180 9.383,178.67 9.383,176.01C9.383,174.573 9.581,173.503 9.977,172.802C10.376,172.101 10.985,171.75 11.805,171.75C12.107,171.75 12.405,171.83 12.701,171.99L12.701,171.99Z" style="fill:rgb(158,161,168);fill-rule:nonzero;"/>
            <path id="path1443" d="M15.044,171.859L15.888,171.859L17.612,179.901L16.539,179.901L16.237,178.333L14.643,178.333L14.336,179.901L13.294,179.901L15.044,171.859ZM16.081,177.495L15.841,176.214C15.681,175.342 15.551,174.411 15.451,173.422C15.402,173.905 15.339,174.394 15.263,174.891C15.187,175.384 15.096,175.908 14.992,176.464L14.794,177.495L16.081,177.495Z" style="fill:rgb(158,161,168);fill-rule:nonzero;"/>
            <path id="path1445" d="M18.253,171.859L19.336,171.859L19.336,178.984L21.107,178.984L21.107,179.901L18.253,179.901L18.253,171.859Z" style="fill:rgb(158,161,168);fill-rule:nonzero;"/>
            <path id="path1447" d="M21.794,171.859L24.674,171.859L24.674,172.776L22.878,172.776L22.878,175.323L24.471,175.323L24.471,176.24L22.878,176.24L22.878,178.984L24.674,178.984L24.674,179.901L21.794,179.901L21.794,171.859Z" style="fill:rgb(158,161,168);fill-rule:nonzero;"/>
        </g>
        <g id="text1491" transform="matrix(1,0,0,1,0,-6)">
            <path id="path1493" d="M1.439,268.895L2.252,268.895L2.252,274.238L3.58,274.238L3.58,274.926L1.439,274.926L1.439,268.895Z" style="fill:rgb(158,161,168);fill-rule:nonzero;"/>
            <path id="path1495" d="M7.115,272.059C7.115,273.124 6.997,273.88 6.76,274.328C6.523,274.776 6.126,275 5.568,275C4.982,275 4.57,274.759 4.33,274.277C4.093,273.806 3.975,272.969 3.975,271.766C3.975,270.693 4.092,269.934 4.326,269.488C4.563,269.04 4.964,268.816 5.529,268.816C6.035,268.816 6.41,268.99 6.654,269.336C6.816,269.568 6.933,269.897 7.006,270.324C7.079,270.72 7.115,271.298 7.115,272.059L7.115,272.059ZM6.264,272.145C6.264,271.1 6.217,270.408 6.123,270.066C6.029,269.723 5.838,269.551 5.549,269.551C5.26,269.551 5.067,269.708 4.971,270.023C4.877,270.341 4.83,270.979 4.83,271.938C4.83,272.82 4.88,273.432 4.979,273.773C5.08,274.096 5.27,274.258 5.549,274.258C5.822,274.258 6.01,274.107 6.111,273.805C6.213,273.505 6.264,272.952 6.264,272.145L6.264,272.145Z" style="fill:rgb(158,161,168);fill-rule:nonzero;"/>
            <path id="path1497" d="M10.943,272.059C10.943,273.124 10.825,273.88 10.588,274.328C10.351,274.776 9.954,275 9.396,275C8.811,275 8.398,274.759 8.158,274.277C7.921,273.806 7.803,272.969 7.803,271.766C7.803,270.693 7.92,269.934 8.154,269.488C8.391,269.04 8.792,268.816 9.357,268.816C9.863,268.816 10.238,268.99 10.482,269.336C10.644,269.568 10.761,269.897 10.834,270.324C10.907,270.72 10.943,271.298 10.943,272.059L10.943,272.059ZM10.092,272.145C10.092,271.1 10.045,270.408 9.951,270.066C9.857,269.723 9.666,269.551 9.377,269.551C9.088,269.551 8.895,269.708 8.799,270.023C8.705,270.341 8.658,270.979 8.658,271.938C8.658,272.82 8.708,273.432 8.807,273.773C8.908,274.096 9.098,274.258 9.377,274.258C9.65,274.258 9.838,274.107 9.939,273.805C10.041,273.505 10.092,272.952 10.092,272.145L10.092,272.145Z" style="fill:rgb(158,161,168);fill-rule:nonzero;"/>
            <path id="path1499" d="M11.752,268.895L12.822,268.895C13.338,268.895 13.713,269.025 13.947,269.285C14.182,269.548 14.299,269.965 14.299,270.535C14.299,271.337 14.063,271.855 13.592,272.09C13.355,272.197 13.012,272.25 12.564,272.25L12.564,274.926L11.752,274.926L11.752,268.895ZM12.564,271.555C12.9,271.555 13.132,271.487 13.26,271.352C13.39,271.214 13.455,270.969 13.455,270.617C13.455,270.258 13.393,269.995 13.268,269.828C13.143,269.661 12.946,269.578 12.678,269.578L12.564,269.578L12.564,271.555Z" style="fill:rgb(158,161,168);fill-rule:nonzero;"/>
            <rect id="path1501" x="16.115" y="272.551" width="1.422" height="0.609" style="fill:rgb(158,161,168);fill-rule:nonzero;"/>
            <path id="path1503" d="M19.658,268.895L21.818,268.895L21.818,269.582L20.471,269.582L20.471,271.492L21.666,271.492L21.666,272.18L20.471,272.18L20.471,274.238L21.818,274.238L21.818,274.926L19.658,274.926L19.658,268.895Z" style="fill:rgb(158,161,168);fill-rule:nonzero;"/>
            <path id="path1505" d="M25.584,272.059C25.584,273.124 25.465,273.88 25.229,274.328C24.992,274.776 24.594,275 24.037,275C23.451,275 23.038,274.759 22.799,274.277C22.562,273.806 22.443,272.969 22.443,271.766C22.443,270.693 22.561,269.934 22.795,269.488C23.032,269.04 23.433,268.816 23.998,268.816C24.503,268.816 24.878,268.99 25.123,269.336C25.285,269.568 25.402,269.897 25.475,270.324C25.548,270.72 25.584,271.298 25.584,272.059L25.584,272.059ZM24.732,272.145C24.732,271.1 24.686,270.408 24.592,270.066C24.498,269.723 24.307,269.551 24.018,269.551C23.729,269.551 23.536,269.708 23.439,270.023C23.346,270.341 23.299,270.979 23.299,271.938C23.299,272.82 23.348,273.432 23.447,273.773C23.549,274.096 23.739,274.258 24.018,274.258C24.291,274.258 24.479,274.107 24.58,273.805C24.682,273.505 24.732,272.952 24.732,272.145L24.732,272.145Z" style="fill:rgb(158,161,168);fill-rule:nonzero;"/>
            <path id="path1507" d="M28.76,268.992L28.76,269.723C28.551,269.621 28.377,269.57 28.236,269.57C28.044,269.57 27.878,269.618 27.74,269.715C27.602,269.809 27.488,269.954 27.396,270.152C27.308,270.35 27.242,270.602 27.197,270.906C27.156,271.208 27.135,271.566 27.135,271.98C27.135,273.47 27.516,274.215 28.279,274.215C28.412,274.215 28.572,274.173 28.76,274.09L28.76,274.836C28.564,274.945 28.346,275 28.104,275C26.882,275 26.271,274.003 26.271,272.008C26.271,270.93 26.42,270.128 26.717,269.602C27.016,269.076 27.473,268.813 28.088,268.813C28.314,268.813 28.538,268.872 28.76,268.992L28.76,268.992Z" style="fill:rgb(158,161,168);fill-rule:nonzero;"/>
        </g>
        <g id="text1387" transform="matrix(0.641336,0,0,0.663212,5.41568,7.06218)">
            <path id="path1401" d="M15.182,18L11.814,18L11.572,16.469L9.377,16.469L9.111,18L5.744,18L8.643,5.938L12.627,5.938L15.182,18ZM11.189,13.883L10.979,12.477C10.973,12.471 10.963,12.401 10.947,12.266C10.937,12.151 10.882,11.698 10.783,10.906C10.773,10.818 10.76,10.698 10.744,10.547C10.729,10.391 10.708,10.195 10.682,9.961L10.58,8.82C10.57,8.93 10.554,9.052 10.533,9.188C10.518,9.323 10.499,9.471 10.479,9.633C10.442,9.956 10.416,10.18 10.4,10.305C10.385,10.43 10.374,10.505 10.369,10.531L10.143,11.992L9.814,13.883L11.189,13.883Z" style="fill:rgb(158,161,168);fill-rule:nonzero;"/>
            <path id="path1404" d="M16.119,18L16.119,5.938L18.932,5.938C20.541,5.938 21.794,6.37 22.689,7.234C23.867,8.365 24.455,9.945 24.455,11.977C24.455,13.977 23.958,15.521 22.963,16.609C22.114,17.536 20.848,18 19.166,18L16.119,18ZM19.377,15.086C20.544,15.029 21.127,14.023 21.127,12.07C21.127,11.107 20.979,10.346 20.682,9.789C20.385,9.227 19.984,8.945 19.479,8.945L19.377,8.945L19.377,15.086Z" style="fill:rgb(158,161,168);fill-rule:nonzero;"/>
        </g>
        <g id="text1390">
            <path id="path1402" d="M6.076,10L3.904,10L3.904,1.958L6.008,1.958C7.057,1.958 7.835,2.172 8.342,2.599C8.939,3.102 9.238,3.802 9.238,4.698C9.238,5.674 8.92,6.401 8.285,6.88C7.85,7.203 7.227,7.365 6.415,7.365L6.076,7.365L6.076,10ZM6.076,5.557L6.175,5.563C6.439,5.563 6.649,5.483 6.805,5.323C6.962,5.16 7.04,4.937 7.04,4.656C7.04,4.378 6.963,4.153 6.811,3.979C6.658,3.802 6.463,3.714 6.227,3.714L6.076,3.714L6.076,5.557Z" style="fill:rgb(158,161,168);fill-rule:nonzero;"/>
            <path id="path1406" d="M15.92,6.005C15.92,7.231 15.64,8.227 15.081,8.995C14.526,9.759 13.802,10.141 12.91,10.141C12.118,10.141 11.439,9.847 10.873,9.26C10.161,8.517 9.805,7.403 9.805,5.917C9.805,4.493 10.177,3.405 10.92,2.651C11.472,2.092 12.127,1.812 12.883,1.812C13.811,1.812 14.548,2.191 15.097,2.948C15.646,3.705 15.92,4.724 15.92,6.005ZM13.665,6.021C13.665,4.566 13.408,3.839 12.894,3.839C12.637,3.839 12.432,4.029 12.279,4.411C12.13,4.766 12.055,5.286 12.055,5.974C12.055,6.651 12.125,7.177 12.264,7.552C12.406,7.924 12.602,8.109 12.852,8.109C13.109,8.109 13.307,7.925 13.446,7.557C13.592,7.189 13.665,6.677 13.665,6.021L13.665,6.021Z" style="fill:rgb(158,161,168);fill-rule:nonzero;"/>
            <path id="path1408" d="M20.644,10L16.842,10L16.842,1.958L19.014,1.958L19.014,8.068L20.644,8.068L20.644,10Z" style="fill:rgb(158,161,168);fill-rule:nonzero;"/>
            <path id="path1410" d="M24.425,10L22.253,10L22.253,6.594L20.258,1.958L22.524,1.958L22.915,3.151C22.991,3.384 23.059,3.608 23.118,3.823C23.18,4.038 23.236,4.245 23.285,4.443C23.364,4.148 23.434,3.894 23.493,3.682C23.552,3.467 23.604,3.293 23.649,3.161L24.045,1.958L26.295,1.958L24.425,6.594L24.425,10Z" style="fill:rgb(158,161,168);fill-rule:nonzero;"/>
        </g>
    </g>
</svg>
