<?xml version="1.0" encoding="UTF-8" standalone="no"?>
<!DOCTYPE svg PUBLIC "-//W3C//DTD SVG 1.1//EN" "http://www.w3.org/Graphics/SVG/1.1/DTD/svg11.dtd">
<svg width="100%" height="100%" viewBox="0 0 150 380" version="1.1" xmlns="http://www.w3.org/2000/svg" xmlns:xlink="http://www.w3.org/1999/xlink" xml:space="preserve" xmlns:serif="http://www.serif.com/" style="fill-rule:evenodd;clip-rule:evenodd;stroke-linejoin:round;stroke-miterlimit:2;">
    <g id="Layer-2" serif:id="Layer 2">
        <g id="text989">
        </g>
        <rect id="rect4689" x="-0.689" y="0" width="150" height="380" style="fill:rgb(44,45,48);fill-rule:nonzero;"/>
        <rect id="rect4778" x="2" y="184" width="146" height="180" style="fill:rgb(60,60,60);"/>
        <g id="text80" transform="matrix(1.00498,0,0,0.995047,29.3112,4.99997)">
            <path id="path4726" d="M29.851,371.706L29.851,363.943L31.853,363.943L32.903,366.668C32.96,366.829 33.024,367.013 33.094,367.221C33.168,367.429 33.249,367.668 33.336,367.94L33.552,368.624C33.475,367.95 33.416,367.373 33.376,366.894C33.336,366.415 33.316,366.013 33.316,365.687L33.316,363.943L35.317,363.943L35.317,371.706L33.316,371.706L32.26,368.85C32.149,368.545 32.049,368.26 31.958,367.995C31.871,367.727 31.794,367.472 31.727,367.231C31.77,367.777 31.802,368.253 31.822,368.659C31.843,369.065 31.853,369.42 31.853,369.725L31.853,371.706L29.851,371.706Z" style="fill:rgb(158,161,168);fill-rule:nonzero;"/>
            <path id="path4728" d="M39.887,371.706L37.791,371.706L37.791,368.418L35.865,363.943L38.052,363.943L38.429,365.094C38.503,365.319 38.568,365.535 38.625,365.743C38.686,365.951 38.739,366.15 38.786,366.341C38.863,366.056 38.93,365.811 38.987,365.607C39.044,365.399 39.095,365.232 39.138,365.104L39.52,363.943L41.692,363.943L39.887,368.418L39.887,371.706Z" style="fill:rgb(158,161,168);fill-rule:nonzero;"/>
            <path id="path4730" d="M41.894,371.515L41.894,369.076C42.306,369.639 42.752,369.921 43.231,369.921C43.412,369.921 43.56,369.874 43.673,369.78C43.787,369.683 43.844,369.562 43.844,369.418C43.844,369.21 43.72,369.008 43.472,368.81L43.13,368.543C42.902,368.372 42.708,368.203 42.547,368.035C42.386,367.865 42.256,367.69 42.155,367.513C42.054,367.332 41.981,367.146 41.934,366.954C41.887,366.763 41.863,366.562 41.863,366.351C41.863,365.989 41.947,365.61 42.115,365.215C42.199,365.03 42.296,364.863 42.406,364.712C42.517,364.558 42.644,364.422 42.789,364.305C43.184,363.969 43.662,363.802 44.222,363.802C44.721,363.802 45.224,363.934 45.73,364.199L45.73,366.572C45.559,366.308 45.365,366.1 45.147,365.949C44.929,365.795 44.714,365.718 44.503,365.718C44.342,365.718 44.21,365.765 44.106,365.858C43.999,365.949 43.945,366.058 43.945,366.185C43.945,366.393 44.087,366.599 44.372,366.804L44.704,367.05C45.147,367.368 45.463,367.695 45.655,368.03C45.849,368.366 45.946,368.758 45.946,369.207C45.946,369.971 45.713,370.601 45.247,371.098C44.781,371.594 44.191,371.842 43.477,371.842C42.985,371.842 42.457,371.733 41.894,371.515L41.894,371.515Z" style="fill:rgb(158,161,168);fill-rule:nonzero;"/>
            <path id="path4732" d="M49.576,371.706L47.48,371.706L47.48,365.803L46.323,365.803L46.323,363.943L50.778,363.943L50.778,365.803L49.576,365.803L49.576,371.706Z" style="fill:rgb(158,161,168);fill-rule:nonzero;"/>
            <path id="path4734" d="M56.525,371.706L54.428,371.706L54.428,368.584L53.428,368.584L53.428,371.706L51.331,371.706L51.331,363.943L53.428,363.943L53.428,366.688L54.428,366.688L54.428,363.943L56.525,363.943L56.525,371.706Z" style="fill:rgb(158,161,168);fill-rule:nonzero;"/>
            <rect id="path4736" x="57.606" y="363.943" width="2.097" height="7.763" style="fill:rgb(158,161,168);fill-rule:nonzero;"/>
        </g>
        <g id="text4987">
        </g>
        <g id="text1042">
        </g>
        <g id="text1570" transform="matrix(1,0,0,1,-45.2695,102.602)">
            <path id="path1572" d="M79.241,-86.039L76.624,-84.602L75.506,-86.219C75.131,-86.115 74.809,-86.062 74.538,-86.062C73.246,-86.062 72.171,-86.589 71.311,-87.641C70.395,-88.76 69.936,-90.307 69.936,-92.281C69.936,-94.193 70.353,-95.714 71.186,-96.844C72.02,-97.984 73.134,-98.555 74.53,-98.555C75.889,-98.555 76.993,-97.99 77.842,-96.859C78.691,-95.729 79.116,-94.258 79.116,-92.445C79.116,-90.378 78.66,-88.794 77.749,-87.695L79.241,-86.039ZM75.741,-92.242C75.741,-92.758 75.712,-93.219 75.655,-93.625C75.598,-94.031 75.517,-94.372 75.413,-94.648C75.309,-94.93 75.178,-95.143 75.022,-95.289C74.871,-95.44 74.699,-95.516 74.506,-95.516C74.142,-95.516 73.85,-95.224 73.631,-94.641C73.418,-94.016 73.311,-93.232 73.311,-92.289C73.311,-91.789 73.337,-91.341 73.389,-90.945C73.447,-90.549 73.525,-90.216 73.624,-89.945C73.728,-89.674 73.855,-89.466 74.006,-89.32C74.158,-89.18 74.327,-89.109 74.514,-89.109C74.707,-89.109 74.879,-89.18 75.03,-89.32C75.181,-89.461 75.309,-89.667 75.413,-89.937C75.522,-90.208 75.603,-90.536 75.655,-90.922C75.712,-91.307 75.741,-91.747 75.741,-92.242L75.741,-92.242Z" style="fill:rgb(158,161,168);fill-rule:nonzero;"/>
            <path id="path1574" d="M85.569,-98.336L88.827,-98.336L88.827,-89.805C88.827,-89.091 88.715,-88.513 88.491,-88.07C88.272,-87.607 87.908,-87.187 87.397,-86.812C86.71,-86.312 85.874,-86.062 84.889,-86.062C83.775,-86.062 82.84,-86.339 82.085,-86.891C81.126,-87.594 80.647,-88.719 80.647,-90.266L80.647,-98.336L83.905,-98.336L83.905,-90.555C83.905,-90.029 83.967,-89.656 84.092,-89.437C84.223,-89.219 84.439,-89.109 84.741,-89.109C85.053,-89.109 85.27,-89.211 85.389,-89.414C85.509,-89.628 85.569,-90.005 85.569,-90.547L85.569,-98.336Z" style="fill:rgb(158,161,168);fill-rule:nonzero;"/>
            <path id="path1576" d="M99.085,-86.273L95.717,-86.273L95.475,-87.805L93.28,-87.805L93.014,-86.273L89.647,-86.273L92.546,-98.336L96.53,-98.336L99.085,-86.273ZM95.092,-90.391L94.882,-91.797C94.876,-91.802 94.866,-91.872 94.85,-92.008C94.84,-92.122 94.785,-92.575 94.686,-93.367C94.676,-93.456 94.663,-93.575 94.647,-93.727C94.631,-93.883 94.611,-94.078 94.585,-94.312L94.483,-95.453C94.473,-95.344 94.457,-95.221 94.436,-95.086C94.42,-94.95 94.402,-94.802 94.381,-94.641C94.345,-94.318 94.319,-94.094 94.303,-93.969C94.288,-93.844 94.277,-93.768 94.272,-93.742L94.045,-92.281L93.717,-90.391L95.092,-90.391Z" style="fill:rgb(158,161,168);fill-rule:nonzero;"/>
            <path id="path1578" d="M100.022,-86.273L100.022,-98.336L102.835,-98.336C104.444,-98.336 105.697,-97.904 106.592,-97.039C107.77,-95.909 108.358,-94.328 108.358,-92.297C108.358,-90.297 107.861,-88.753 106.866,-87.664C106.017,-86.737 104.751,-86.273 103.069,-86.273L100.022,-86.273ZM103.28,-89.187C104.447,-89.245 105.03,-90.25 105.03,-92.203C105.03,-93.167 104.881,-93.927 104.585,-94.484C104.288,-95.047 103.887,-95.328 103.381,-95.328L103.28,-95.328L103.28,-89.187Z" style="fill:rgb(158,161,168);fill-rule:nonzero;"/>
            <path id="path1580" d="M117.811,-86.273L114.553,-86.273L114.553,-98.336L117.71,-98.336C119.283,-98.336 120.449,-98.016 121.21,-97.375C122.105,-96.62 122.553,-95.57 122.553,-94.227C122.553,-92.763 122.077,-91.672 121.124,-90.953C120.473,-90.469 119.538,-90.227 118.319,-90.227L117.811,-90.227L117.811,-86.273ZM117.811,-92.937L117.96,-92.93C118.355,-92.93 118.671,-93.049 118.905,-93.289C119.139,-93.534 119.256,-93.867 119.256,-94.289C119.256,-94.706 119.142,-95.044 118.913,-95.305C118.684,-95.57 118.392,-95.703 118.038,-95.703L117.811,-95.703L117.811,-92.937Z" style="fill:rgb(158,161,168);fill-rule:nonzero;"/>
            <path id="path1582" d="M131.897,-86.273L128.53,-86.273L128.288,-87.805L126.092,-87.805L125.827,-86.273L122.46,-86.273L125.358,-98.336L129.342,-98.336L131.897,-86.273ZM127.905,-90.391L127.694,-91.797C127.689,-91.802 127.678,-91.872 127.663,-92.008C127.652,-92.122 127.598,-92.575 127.499,-93.367C127.488,-93.456 127.475,-93.575 127.459,-93.727C127.444,-93.883 127.423,-94.078 127.397,-94.312L127.295,-95.453C127.285,-95.344 127.269,-95.221 127.249,-95.086C127.233,-94.95 127.215,-94.802 127.194,-94.641C127.157,-94.318 127.131,-94.094 127.116,-93.969C127.1,-93.844 127.09,-93.768 127.084,-93.742L126.858,-92.281L126.53,-90.391L127.905,-90.391Z" style="fill:rgb(158,161,168);fill-rule:nonzero;"/>
            <path id="path1584" d="M132.835,-86.273L132.835,-98.336L135.944,-98.336L137.577,-94.102C137.665,-93.852 137.764,-93.565 137.874,-93.242C137.988,-92.919 138.113,-92.547 138.249,-92.125L138.585,-91.062C138.465,-92.109 138.374,-93.005 138.311,-93.75C138.249,-94.495 138.217,-95.12 138.217,-95.625L138.217,-98.336L141.327,-98.336L141.327,-86.273L138.217,-86.273L136.577,-90.711C136.405,-91.185 136.249,-91.628 136.108,-92.039C135.973,-92.456 135.853,-92.852 135.749,-93.227C135.816,-92.378 135.866,-91.638 135.897,-91.008C135.928,-90.378 135.944,-89.825 135.944,-89.352L135.944,-86.273L132.835,-86.273Z" style="fill:rgb(158,161,168);fill-rule:nonzero;"/>
            <path id="path1586" d="M143.022,-86.273L143.022,-98.336L146.132,-98.336L147.764,-94.102C147.853,-93.852 147.952,-93.565 148.061,-93.242C148.176,-92.919 148.301,-92.547 148.436,-92.125L148.772,-91.062C148.652,-92.109 148.561,-93.005 148.499,-93.75C148.436,-94.495 148.405,-95.12 148.405,-95.625L148.405,-98.336L151.514,-98.336L151.514,-86.273L148.405,-86.273L146.764,-90.711C146.592,-91.185 146.436,-91.628 146.296,-92.039C146.16,-92.456 146.04,-92.852 145.936,-93.227C146.004,-92.378 146.053,-91.638 146.085,-91.008C146.116,-90.378 146.131,-89.825 146.131,-89.352L146.131,-86.273L143.022,-86.273Z" style="fill:rgb(158,161,168);fill-rule:nonzero;"/>
            <path id="path1589" d="M153.21,-86.273L153.21,-98.336L159.264,-98.336L159.264,-95.5L156.467,-95.5L156.467,-93.742L158.975,-93.742L158.975,-91.016L156.467,-91.016L156.467,-89.172L159.264,-89.172L159.264,-86.273L153.21,-86.273Z" style="fill:rgb(158,161,168);fill-rule:nonzero;"/>
            <path id="path1591" d="M169.225,-86.273L165.702,-86.273L164.092,-90.57C164.077,-90.643 164.048,-90.74 164.006,-90.859C163.97,-90.979 163.923,-91.122 163.866,-91.289L163.889,-90.492L163.889,-86.273L160.647,-86.273L160.647,-98.336L163.983,-98.336C165.452,-98.336 166.551,-98.047 167.28,-97.469C168.207,-96.729 168.671,-95.677 168.671,-94.312C168.671,-92.854 168.048,-91.846 166.803,-91.289L169.225,-86.273ZM163.905,-92.75L164.124,-92.75C164.499,-92.75 164.811,-92.893 165.061,-93.18C165.311,-93.466 165.436,-93.831 165.436,-94.273C165.436,-95.174 164.965,-95.625 164.022,-95.625L163.905,-95.625L163.905,-92.75Z" style="fill:rgb(158,161,168);fill-rule:nonzero;"/>
        </g>
        <g id="path1896" transform="matrix(0.962506,0,0,1.03895,0,166)">
            <path d="M13.113,23.06L13.925,23.06L15.584,30.8L14.552,30.8L14.261,29.291L12.727,29.291L12.431,30.8L11.429,30.8L13.113,23.06ZM14.11,28.484L13.88,27.251C13.726,26.412 13.601,25.516 13.504,24.564C13.457,25.028 13.397,25.5 13.323,25.978C13.25,26.452 13.163,26.957 13.063,27.492L12.872,28.484L14.11,28.484Z" style="fill:rgb(197,200,209);fill-rule:nonzero;"/>
        </g>
        <g id="path1879" transform="matrix(0.999925,0,0,1.00008,0,166)">
            <path d="M135.01,23.957L136.479,23.957C137.628,23.957 138.203,24.67 138.203,26.097C138.203,26.642 138.128,27.047 137.979,27.31C137.829,27.574 137.566,27.774 137.187,27.909C137.621,28.083 137.918,28.305 138.078,28.576C138.241,28.843 138.322,29.246 138.322,29.784C138.322,31.26 137.691,31.998 136.427,31.998L135.01,31.998L135.01,23.957ZM136.031,27.498C136.451,27.498 136.743,27.401 136.906,27.206C137.069,27.001 137.151,26.642 137.151,26.128C137.151,25.26 136.838,24.826 136.213,24.826L136.13,24.826L136.083,24.826C136.055,24.826 136.038,24.828 136.031,24.831L136.031,27.498ZM136.031,31.071C136.475,31.071 136.783,30.975 136.953,30.784C137.123,30.593 137.208,30.248 137.208,29.748C137.208,29.234 137.119,28.875 136.942,28.67C136.769,28.461 136.465,28.357 136.031,28.357L136.031,31.071Z" style="fill:rgb(197,200,209);fill-rule:nonzero;"/>
        </g>
        <g id="path1874" transform="matrix(1,0,0,1,0,172)">
            <path d="M138.318,139.99L138.318,140.964C138.04,140.828 137.807,140.76 137.62,140.76C137.363,140.76 137.142,140.825 136.958,140.953C136.774,141.078 136.622,141.273 136.5,141.536C136.382,141.8 136.293,142.135 136.234,142.542C136.179,142.944 136.151,143.422 136.151,143.974C136.151,145.96 136.66,146.953 137.677,146.953C137.854,146.953 138.068,146.898 138.318,146.786L138.318,147.781C138.057,147.927 137.766,148 137.443,148C135.814,148 135,146.67 135,144.01C135,142.573 135.198,141.504 135.594,140.802C135.993,140.101 136.602,139.75 137.422,139.75C137.724,139.75 138.023,139.83 138.318,139.99L138.318,139.99Z" style="fill:rgb(197,200,209);fill-rule:nonzero;"/>
        </g>
        <g id="path1893" transform="matrix(1,0,0,1,0,172)">
            <path d="M11,139.958L12.333,139.958C12.74,139.958 13.082,140.003 13.359,140.094C13.616,140.181 13.845,140.335 14.047,140.557C14.349,140.891 14.564,141.325 14.693,141.859C14.821,142.377 14.885,143.118 14.885,144.083C14.885,144.969 14.814,145.691 14.672,146.25C14.533,146.785 14.304,147.193 13.984,147.474C13.592,147.825 12.889,148 11.875,148L11,148L11,139.958ZM12.083,147.052C12.743,147.052 13.184,146.852 13.406,146.453C13.635,146.054 13.75,145.278 13.75,144.125C13.75,142.885 13.641,142.033 13.422,141.568C13.203,141.102 12.802,140.87 12.219,140.87L12.083,140.87L12.083,147.052Z" style="fill:rgb(197,200,209);fill-rule:nonzero;"/>
        </g>
        <g id="text1977" transform="matrix(1,0,0,1,-4,-136)">
            <path id="path2057" d="M18.198,177.859L19.25,177.859L19.807,179.417C20.026,180.031 20.156,180.481 20.198,180.766C20.236,180.589 20.278,180.417 20.323,180.25C20.372,180.083 20.422,179.917 20.474,179.75L20.547,179.516L21.062,177.859L22.156,177.859L20.667,181.818L22.156,185.901L21.062,185.901L20.531,184.37C20.424,184.064 20.337,183.79 20.271,183.547C20.205,183.304 20.158,183.089 20.13,182.901C20.102,183.134 20.056,183.356 19.99,183.568L19.807,184.141L19.714,184.443L19.25,185.901L18.104,185.901L19.625,181.818L18.198,177.859Z" style="fill:rgb(158,161,168);fill-rule:nonzero;"/>
            <path id="path2060" d="M24.953,177.859L26.38,177.859C27.068,177.859 27.568,178.033 27.88,178.38C28.193,178.731 28.349,179.286 28.349,180.047C28.349,181.116 28.035,181.807 27.406,182.12C27.09,182.262 26.634,182.333 26.036,182.333L26.036,185.901L24.953,185.901L24.953,177.859ZM26.036,181.406C26.484,181.406 26.793,181.316 26.964,181.135C27.137,180.951 27.224,180.625 27.224,180.156C27.224,179.677 27.141,179.326 26.974,179.104C26.807,178.882 26.545,178.771 26.187,178.771L26.036,178.771L26.036,181.406Z" style="fill:rgb(158,161,168);fill-rule:nonzero;"/>
            <path id="path2063" d="M33.208,182.078C33.208,183.498 33.05,184.507 32.734,185.104C32.418,185.701 31.889,186 31.146,186C30.365,186 29.814,185.679 29.495,185.036C29.179,184.408 29.021,183.292 29.021,181.687C29.021,180.257 29.177,179.245 29.49,178.651C29.806,178.054 30.34,177.755 31.094,177.755C31.767,177.755 32.267,177.986 32.594,178.448C32.809,178.757 32.965,179.196 33.062,179.766C33.16,180.293 33.208,181.064 33.208,182.078L33.208,182.078ZM32.073,182.193C32.073,180.8 32.01,179.877 31.885,179.422C31.76,178.964 31.505,178.734 31.12,178.734C30.734,178.734 30.477,178.944 30.349,179.365C30.224,179.788 30.161,180.639 30.161,181.917C30.161,183.094 30.227,183.91 30.359,184.365C30.495,184.795 30.748,185.01 31.12,185.01C31.484,185.01 31.734,184.809 31.87,184.406C32.005,184.007 32.073,183.269 32.073,182.193L32.073,182.193Z" style="fill:rgb(158,161,168);fill-rule:nonzero;"/>
            <path id="path2066" d="M36.969,178.026L36.969,179.083C36.639,178.847 36.342,178.729 36.078,178.729C35.793,178.729 35.561,178.83 35.38,179.031C35.2,179.222 35.109,179.477 35.109,179.797C35.109,180.078 35.174,180.319 35.302,180.521C35.368,180.628 35.476,180.767 35.625,180.937C35.778,181.108 35.974,181.312 36.214,181.552C36.655,182 36.955,182.387 37.115,182.714C37.274,183.03 37.354,183.417 37.354,183.875C37.354,184.497 37.179,185.009 36.828,185.411C36.477,185.804 36.028,186 35.479,186C35.017,186 34.623,185.873 34.297,185.62L34.297,184.547C34.682,184.828 35.033,184.969 35.349,184.969C35.644,184.969 35.875,184.872 36.042,184.677C36.208,184.479 36.292,184.212 36.292,183.875C36.292,183.583 36.227,183.321 36.099,183.089C36.033,182.977 35.941,182.851 35.823,182.708C35.705,182.562 35.557,182.401 35.38,182.224C35.106,181.953 34.878,181.714 34.698,181.505C34.517,181.297 34.384,181.115 34.297,180.958C34.13,180.653 34.047,180.267 34.047,179.802C34.047,179.174 34.21,178.675 34.536,178.307C34.866,177.936 35.309,177.75 35.865,177.75C36.25,177.75 36.618,177.842 36.969,178.026L36.969,178.026Z" style="fill:rgb(158,161,168);fill-rule:nonzero;"/>
            <rect id="path2068" x="38.266" y="177.859" width="1.083" height="8.042" style="fill:rgb(158,161,168);fill-rule:nonzero;"/>
            <path id="path2070" d="M39.958,177.859L43.484,177.859L43.484,178.807L42.271,178.807L42.271,185.901L41.208,185.901L41.208,178.807L39.958,178.807L39.958,177.859Z" style="fill:rgb(158,161,168);fill-rule:nonzero;"/>
            <rect id="path2072" x="44.078" y="177.859" width="1.083" height="8.042" style="fill:rgb(158,161,168);fill-rule:nonzero;"/>
            <path id="path2074" d="M50.437,182.078C50.437,183.498 50.28,184.507 49.964,185.104C49.648,185.701 49.118,186 48.375,186C47.594,186 47.043,185.679 46.724,185.036C46.408,184.408 46.25,183.292 46.25,181.687C46.25,180.257 46.406,179.245 46.719,178.651C47.035,178.054 47.569,177.755 48.323,177.755C48.997,177.755 49.497,177.986 49.823,178.448C50.038,178.757 50.194,179.196 50.292,179.766C50.389,180.293 50.437,181.064 50.437,182.078L50.437,182.078ZM49.302,182.193C49.302,180.8 49.24,179.877 49.115,179.422C48.99,178.964 48.734,178.734 48.349,178.734C47.964,178.734 47.707,178.944 47.578,179.365C47.453,179.788 47.391,180.639 47.391,181.917C47.391,183.094 47.457,183.91 47.589,184.365C47.724,184.795 47.977,185.01 48.349,185.01C48.714,185.01 48.964,184.809 49.099,184.406C49.234,184.007 49.302,183.269 49.302,182.193Z" style="fill:rgb(158,161,168);fill-rule:nonzero;"/>
            <path id="path2076" d="M51.516,177.859L52.526,177.859L53.604,181.068C53.917,181.974 54.193,182.941 54.432,183.969C54.345,183.347 54.281,182.785 54.24,182.281C54.198,181.778 54.177,181.304 54.177,180.859L54.177,177.859L55.266,177.859L55.266,185.901L54.25,185.901L53.036,182.281C52.925,181.944 52.819,181.599 52.719,181.245C52.622,180.891 52.531,180.519 52.448,180.13C52.441,180.082 52.429,180.023 52.412,179.953C52.398,179.884 52.38,179.804 52.36,179.714C52.37,179.804 52.379,179.882 52.386,179.948C52.393,180.01 52.398,180.064 52.401,180.109L52.458,180.927L52.516,181.922C52.519,181.977 52.521,182.045 52.521,182.125C52.525,182.205 52.526,182.295 52.526,182.396L52.584,185.901L51.516,185.901L51.516,177.859Z" style="fill:rgb(158,161,168);fill-rule:nonzero;"/>
        </g>
        <g id="text1985" transform="matrix(1,0,0,1,-4,-147)">
            <path id="path2035" d="M17.979,207.859L19.125,207.859L19.656,209.609C19.674,209.661 19.691,209.719 19.708,209.781C19.726,209.844 19.747,209.911 19.771,209.984C19.969,210.616 20.104,211.148 20.177,211.578C20.24,211.148 20.292,210.847 20.333,210.677L20.5,209.958L20.562,209.677L21.01,207.859L22.141,207.859L20.74,212.443L20.74,215.901L19.656,215.901L19.656,212.443L17.979,207.859Z" style="fill:rgb(158,161,168);fill-rule:nonzero;"/>
            <path id="path2037" d="M24.953,207.859L26.38,207.859C27.068,207.859 27.568,208.033 27.88,208.38C28.193,208.731 28.349,209.286 28.349,210.047C28.349,211.116 28.035,211.807 27.406,212.12C27.09,212.262 26.634,212.333 26.036,212.333L26.036,215.901L24.953,215.901L24.953,207.859ZM26.036,211.406C26.484,211.406 26.793,211.316 26.964,211.135C27.137,210.951 27.224,210.625 27.224,210.156C27.224,209.677 27.141,209.326 26.974,209.104C26.807,208.882 26.545,208.771 26.187,208.771L26.036,208.771L26.036,211.406Z" style="fill:rgb(158,161,168);fill-rule:nonzero;"/>
            <path id="path2039" d="M33.208,212.078C33.208,213.498 33.05,214.507 32.734,215.104C32.418,215.701 31.889,216 31.146,216C30.365,216 29.814,215.679 29.495,215.036C29.179,214.408 29.021,213.292 29.021,211.687C29.021,210.257 29.177,209.245 29.49,208.651C29.806,208.054 30.34,207.755 31.094,207.755C31.767,207.755 32.267,207.986 32.594,208.448C32.809,208.757 32.965,209.196 33.062,209.766C33.16,210.293 33.208,211.064 33.208,212.078L33.208,212.078ZM32.073,212.193C32.073,210.8 32.01,209.877 31.885,209.422C31.76,208.964 31.505,208.734 31.12,208.734C30.734,208.734 30.477,208.944 30.349,209.365C30.224,209.788 30.161,210.639 30.161,211.917C30.161,213.094 30.227,213.91 30.359,214.365C30.495,214.795 30.748,215.01 31.12,215.01C31.484,215.01 31.734,214.809 31.87,214.406C32.005,214.007 32.073,213.269 32.073,212.193L32.073,212.193Z" style="fill:rgb(158,161,168);fill-rule:nonzero;"/>
            <path id="path2041" d="M36.969,208.026L36.969,209.083C36.639,208.847 36.342,208.729 36.078,208.729C35.793,208.729 35.561,208.83 35.38,209.031C35.2,209.222 35.109,209.477 35.109,209.797C35.109,210.078 35.174,210.319 35.302,210.521C35.368,210.628 35.476,210.767 35.625,210.937C35.778,211.108 35.974,211.312 36.214,211.552C36.655,212 36.955,212.387 37.115,212.714C37.274,213.03 37.354,213.417 37.354,213.875C37.354,214.497 37.179,215.009 36.828,215.411C36.477,215.804 36.028,216 35.479,216C35.017,216 34.623,215.873 34.297,215.62L34.297,214.547C34.682,214.828 35.033,214.969 35.349,214.969C35.644,214.969 35.875,214.872 36.042,214.677C36.208,214.479 36.292,214.212 36.292,213.875C36.292,213.583 36.227,213.321 36.099,213.089C36.033,212.977 35.941,212.851 35.823,212.708C35.705,212.562 35.557,212.401 35.38,212.224C35.106,211.953 34.878,211.714 34.698,211.505C34.517,211.297 34.384,211.115 34.297,210.958C34.13,210.653 34.047,210.267 34.047,209.802C34.047,209.174 34.21,208.675 34.536,208.307C34.866,207.936 35.309,207.75 35.865,207.75C36.25,207.75 36.618,207.842 36.969,208.026L36.969,208.026Z" style="fill:rgb(158,161,168);fill-rule:nonzero;"/>
            <rect id="path2043" x="38.266" y="207.859" width="1.083" height="8.042" style="fill:rgb(158,161,168);fill-rule:nonzero;"/>
            <path id="path2045" d="M39.958,207.859L43.484,207.859L43.484,208.807L42.271,208.807L42.271,215.901L41.208,215.901L41.208,208.807L39.958,208.807L39.958,207.859Z" style="fill:rgb(158,161,168);fill-rule:nonzero;"/>
            <rect id="path2048" x="44.078" y="207.859" width="1.083" height="8.042" style="fill:rgb(158,161,168);fill-rule:nonzero;"/>
            <path id="path2050" d="M50.437,212.078C50.437,213.498 50.28,214.507 49.964,215.104C49.648,215.701 49.118,216 48.375,216C47.594,216 47.043,215.679 46.724,215.036C46.408,214.408 46.25,213.292 46.25,211.687C46.25,210.257 46.406,209.245 46.719,208.651C47.035,208.054 47.569,207.755 48.323,207.755C48.997,207.755 49.497,207.986 49.823,208.448C50.038,208.757 50.194,209.196 50.292,209.766C50.389,210.293 50.437,211.064 50.437,212.078L50.437,212.078ZM49.302,212.193C49.302,210.8 49.24,209.877 49.115,209.422C48.99,208.964 48.734,208.734 48.349,208.734C47.964,208.734 47.707,208.944 47.578,209.365C47.453,209.788 47.391,210.639 47.391,211.917C47.391,213.094 47.457,213.91 47.589,214.365C47.724,214.795 47.977,215.01 48.349,215.01C48.714,215.01 48.964,214.809 49.099,214.406C49.234,214.007 49.302,213.269 49.302,212.193L49.302,212.193Z" style="fill:rgb(158,161,168);fill-rule:nonzero;"/>
            <path id="path2053" d="M51.516,207.859L52.526,207.859L53.604,211.068C53.917,211.974 54.193,212.941 54.432,213.969C54.345,213.347 54.281,212.785 54.24,212.281C54.198,211.778 54.177,211.304 54.177,210.859L54.177,207.859L55.266,207.859L55.266,215.901L54.25,215.901L53.036,212.281C52.925,211.944 52.819,211.599 52.719,211.245C52.622,210.891 52.531,210.519 52.448,210.13C52.441,210.082 52.429,210.023 52.412,209.953C52.398,209.884 52.38,209.804 52.36,209.714C52.37,209.804 52.379,209.882 52.386,209.948C52.393,210.01 52.398,210.064 52.401,210.109L52.458,210.927L52.516,211.922C52.519,211.977 52.521,212.045 52.521,212.125C52.525,212.205 52.526,212.295 52.526,212.396L52.584,215.901L51.516,215.901L51.516,207.859Z" style="fill:rgb(158,161,168);fill-rule:nonzero;"/>
        </g>
        <g id="text1989" transform="matrix(1,0,0,1,-4,-165)">
            <path id="path2020" d="M27.448,247.859L28.292,247.859L30.016,255.901L28.943,255.901L28.641,254.333L27.047,254.333L26.74,255.901L25.698,255.901L27.448,247.859ZM28.484,253.495L28.245,252.214C28.085,251.342 27.955,250.411 27.854,249.422C27.806,249.905 27.743,250.394 27.667,250.891C27.59,251.384 27.5,251.908 27.396,252.464L27.198,253.495L28.484,253.495Z" style="fill:rgb(158,161,168);fill-rule:nonzero;"/>
            <path id="path2022" d="M30.458,247.859L34,247.859L31.583,254.953L33.87,254.953L33.87,255.901L30.172,255.901L32.609,248.776L30.458,248.776L30.458,247.859Z" style="fill:rgb(158,161,168);fill-rule:nonzero;"/>
            <rect id="path2024" x="34.677" y="247.859" width="1.083" height="8.042" style="fill:rgb(158,161,168);fill-rule:nonzero;"/>
            <path id="path2026" d="M37.391,247.859L38.318,247.859L39.026,251.141C39.113,251.55 39.191,251.962 39.26,252.375C39.333,252.785 39.399,253.215 39.458,253.667C39.465,253.608 39.471,253.562 39.474,253.531C39.477,253.497 39.481,253.472 39.484,253.458L39.635,252.536L39.771,251.661L39.891,251.083L40.521,247.859L41.458,247.859L42.198,255.901L41.161,255.901L40.979,253.172C40.972,253.033 40.965,252.913 40.958,252.813C40.955,252.712 40.953,252.629 40.953,252.563L40.906,251.484L40.88,250.495C40.88,250.488 40.878,250.474 40.875,250.453C40.875,250.429 40.873,250.398 40.87,250.359L40.844,250.521C40.816,250.712 40.79,250.878 40.765,251.021C40.744,251.163 40.725,251.283 40.708,251.38L40.573,252.115L40.521,252.391L39.843,255.901L39.114,255.901L38.479,252.87C38.392,252.47 38.314,252.066 38.245,251.656C38.179,251.243 38.118,250.811 38.062,250.359L37.75,255.901L36.729,255.901L37.391,247.859Z" style="fill:rgb(158,161,168);fill-rule:nonzero;"/>
            <path id="path2028" d="M43.094,247.859L44.156,247.859L44.156,253.542C44.156,254.122 44.208,254.507 44.312,254.698C44.42,254.889 44.632,254.984 44.948,254.984C45.264,254.984 45.472,254.901 45.573,254.734C45.677,254.564 45.729,254.219 45.729,253.698L45.729,247.859L46.792,247.859L46.792,253.698C46.792,254.573 46.658,255.165 46.391,255.474C46.071,255.825 45.583,256 44.927,256C44.205,256 43.696,255.774 43.401,255.323C43.196,255.014 43.094,254.42 43.094,253.542L43.094,247.859Z" style="fill:rgb(158,161,168);fill-rule:nonzero;"/>
            <path id="path2030" d="M47.391,247.859L50.917,247.859L50.917,248.807L49.703,248.807L49.703,255.901L48.641,255.901L48.641,248.807L47.391,248.807L47.391,247.859Z" style="fill:rgb(158,161,168);fill-rule:nonzero;"/>
            <path id="path2032" d="M51.51,247.859L52.594,247.859L52.594,251.005L54.182,251.005L54.182,247.859L55.266,247.859L55.266,255.901L54.182,255.901L54.182,251.922L52.594,251.922L52.594,255.901L51.51,255.901L51.51,247.859Z" style="fill:rgb(158,161,168);fill-rule:nonzero;"/>
        </g>
        <g id="text1994" transform="matrix(1,0,0,1,-4,-176)">
            <path id="path1996" d="M16.661,277.859L17.589,277.859L18.297,281.141C18.384,281.55 18.462,281.962 18.531,282.375C18.604,282.785 18.67,283.215 18.729,283.667C18.736,283.608 18.741,283.562 18.745,283.531C18.748,283.497 18.752,283.472 18.755,283.458L18.906,282.536L19.042,281.661L19.161,281.083L19.792,277.859L20.729,277.859L21.469,285.901L20.432,285.901L20.25,283.172C20.243,283.033 20.236,282.913 20.229,282.813C20.226,282.712 20.224,282.628 20.224,282.563L20.177,281.484L20.151,280.495C20.151,280.488 20.149,280.474 20.146,280.453C20.146,280.429 20.144,280.398 20.141,280.359L20.115,280.521C20.087,280.712 20.061,280.878 20.036,281.021C20.016,281.163 19.997,281.283 19.979,281.38L19.844,282.115L19.792,282.391L19.115,285.901L18.385,285.901L17.75,282.87C17.663,282.47 17.585,282.066 17.516,281.656C17.45,281.243 17.389,280.811 17.333,280.359L17.021,285.901L16,285.901L16.661,277.859Z" style="fill:rgb(158,161,168);fill-rule:nonzero;"/>
            <path id="path1998" d="M23.51,277.859L24.354,277.859L26.078,285.901L25.005,285.901L24.703,284.333L23.109,284.333L22.802,285.901L21.76,285.901L23.51,277.859ZM24.547,283.495L24.307,282.214C24.148,281.342 24.017,280.411 23.917,279.422C23.868,279.905 23.806,280.394 23.729,280.891C23.653,281.384 23.562,281.908 23.458,282.464L23.26,283.495L24.547,283.495Z" style="fill:rgb(158,161,168);fill-rule:nonzero;"/>
            <path id="path2000" d="M28.625,281.672L30.594,281.672L30.594,281.984C30.594,283.55 30.457,284.608 30.182,285.156C29.911,285.719 29.405,286 28.661,286C27.894,286 27.347,285.687 27.021,285.062C26.698,284.437 26.536,283.387 26.536,281.911C26.536,280.224 26.714,279.101 27.068,278.542C27.401,278.017 27.913,277.755 28.604,277.755C29.132,277.755 29.543,277.882 29.839,278.135C30.137,278.392 30.37,278.814 30.536,279.401L29.526,279.823C29.481,279.611 29.431,279.434 29.375,279.292C29.319,279.146 29.259,279.033 29.193,278.953C29.061,278.79 28.863,278.708 28.599,278.708C28.238,278.708 27.991,278.931 27.859,279.375C27.727,279.84 27.661,280.675 27.661,281.88C27.661,283.099 27.729,283.924 27.865,284.354C28,284.785 28.255,285 28.63,285C28.974,285 29.215,284.847 29.354,284.542C29.497,284.215 29.568,283.691 29.568,282.969L29.568,282.75L29.568,282.589L28.625,282.589L28.625,281.672Z" style="fill:rgb(158,161,168);fill-rule:nonzero;"/>
            <path id="path2002" d="M31.677,277.859L32.687,277.859L33.766,281.068C34.078,281.974 34.354,282.941 34.594,283.969C34.507,283.347 34.443,282.785 34.401,282.281C34.359,281.778 34.339,281.304 34.339,280.859L34.339,277.859L35.427,277.859L35.427,285.901L34.411,285.901L33.198,282.281C33.087,281.944 32.981,281.599 32.88,281.245C32.783,280.891 32.693,280.519 32.609,280.13C32.602,280.082 32.59,280.023 32.573,279.953C32.559,279.884 32.542,279.804 32.521,279.714C32.531,279.804 32.54,279.882 32.547,279.948C32.554,280.01 32.559,280.064 32.562,280.109L32.62,280.927L32.677,281.922C32.681,281.977 32.682,282.045 32.682,282.125C32.686,282.205 32.687,282.295 32.687,282.396L32.745,285.901L31.677,285.901L31.677,277.859Z" style="fill:rgb(158,161,168);fill-rule:nonzero;"/>
            <rect id="path2005" x="36.677" y="277.859" width="1.083" height="8.042" style="fill:rgb(158,161,168);fill-rule:nonzero;"/>
            <path id="path2009" d="M38.37,277.859L41.896,277.859L41.896,278.807L40.682,278.807L40.682,285.901L39.62,285.901L39.62,278.807L38.37,278.807L38.37,277.859Z" style="fill:rgb(158,161,168);fill-rule:nonzero;"/>
            <path id="path2011" d="M42.49,277.859L43.552,277.859L43.552,283.542C43.552,284.122 43.604,284.507 43.708,284.698C43.816,284.889 44.028,284.984 44.344,284.984C44.66,284.984 44.868,284.901 44.969,284.734C45.073,284.564 45.125,284.219 45.125,283.698L45.125,277.859L46.187,277.859L46.187,283.698C46.187,284.573 46.054,285.165 45.786,285.474C45.467,285.825 44.979,286 44.323,286C43.601,286 43.092,285.774 42.797,285.323C42.592,285.014 42.49,284.42 42.49,283.542L42.49,277.859Z" style="fill:rgb(158,161,168);fill-rule:nonzero;"/>
            <path id="path2013" d="M47.427,277.859L48.76,277.859C49.167,277.859 49.509,277.905 49.786,277.995C50.043,278.082 50.273,278.236 50.474,278.458C50.776,278.792 50.991,279.226 51.12,279.76C51.248,280.278 51.313,281.019 51.313,281.984C51.313,282.87 51.241,283.592 51.099,284.151C50.96,284.686 50.731,285.094 50.411,285.375C50.019,285.726 49.316,285.901 48.302,285.901L47.427,285.901L47.427,277.859ZM48.51,284.953C49.17,284.953 49.611,284.753 49.833,284.354C50.062,283.955 50.177,283.179 50.177,282.026C50.177,280.786 50.068,279.934 49.849,279.469C49.63,279.003 49.229,278.771 48.646,278.771L48.51,278.771L48.51,284.953Z" style="fill:rgb(158,161,168);fill-rule:nonzero;"/>
            <path id="path2017" d="M52.385,277.859L55.266,277.859L55.266,278.776L53.469,278.776L53.469,281.323L55.062,281.323L55.062,282.24L53.469,282.24L53.469,284.984L55.266,284.984L55.266,285.901L52.385,285.901L52.385,277.859Z" style="fill:rgb(158,161,168);fill-rule:nonzero;"/>
        </g>
        <g id="text2090">
        </g>
        <g id="text2135" transform="matrix(1.06631,0,0,0.937816,12,-154)">
            <path id="path2156" d="M69.676,189.589L69.676,190.409C69.42,190.226 69.19,190.134 68.986,190.134C68.765,190.134 68.584,190.213 68.444,190.369C68.304,190.517 68.234,190.715 68.234,190.962C68.234,191.181 68.284,191.368 68.384,191.524C68.435,191.607 68.518,191.715 68.634,191.847C68.753,191.979 68.905,192.138 69.091,192.324C69.433,192.671 69.666,192.971 69.789,193.224C69.913,193.469 69.975,193.77 69.975,194.125C69.975,194.607 69.839,195.004 69.567,195.317C69.295,195.621 68.947,195.773 68.521,195.773C68.163,195.773 67.857,195.675 67.604,195.478L67.604,194.646C67.903,194.864 68.175,194.973 68.42,194.973C68.649,194.973 68.828,194.898 68.957,194.747C69.087,194.594 69.151,194.386 69.151,194.125C69.151,193.899 69.101,193.696 69.002,193.515C68.951,193.429 68.879,193.331 68.788,193.22C68.696,193.107 68.582,192.982 68.444,192.845C68.232,192.635 68.055,192.449 67.915,192.287C67.775,192.126 67.672,191.984 67.604,191.863C67.475,191.626 67.41,191.327 67.41,190.966C67.41,190.479 67.537,190.093 67.79,189.807C68.046,189.519 68.389,189.375 68.82,189.375C69.119,189.375 69.404,189.446 69.676,189.589L69.676,189.589Z" style="fill:rgb(158,161,168);fill-rule:nonzero;"/>
            <path id="path2158" d="M73.13,189.561L73.13,190.316C72.914,190.211 72.734,190.159 72.588,190.159C72.389,190.159 72.218,190.209 72.075,190.308C71.933,190.405 71.814,190.556 71.72,190.761C71.629,190.965 71.56,191.225 71.514,191.54C71.471,191.852 71.449,192.223 71.449,192.651C71.449,194.191 71.844,194.961 72.633,194.961C72.77,194.961 72.936,194.918 73.13,194.832L73.13,195.603C72.928,195.716 72.702,195.773 72.451,195.773C71.188,195.773 70.557,194.742 70.557,192.679C70.557,191.564 70.71,190.735 71.017,190.191C71.327,189.647 71.799,189.375 72.435,189.375C72.669,189.375 72.901,189.437 73.13,189.561L73.13,189.561Z" style="fill:rgb(158,161,168);fill-rule:nonzero;"/>
            <path id="path2160" d="M74.947,189.46L75.602,189.46L76.938,195.696L76.106,195.696L75.872,194.48L74.636,194.48L74.398,195.696L73.59,195.696L74.947,189.46ZM75.751,193.83L75.565,192.837C75.441,192.161 75.34,191.439 75.262,190.672C75.225,191.046 75.176,191.426 75.117,191.811C75.058,192.193 74.988,192.6 74.907,193.03L74.753,193.83L75.751,193.83Z" style="fill:rgb(158,161,168);fill-rule:nonzero;"/>
            <path id="path2162" d="M77.435,189.46L78.275,189.46L78.275,194.985L79.649,194.985L79.649,195.696L77.435,195.696L77.435,189.46Z" style="fill:rgb(158,161,168);fill-rule:nonzero;"/>
            <path id="path2164" d="M80.182,189.46L82.415,189.46L82.415,190.171L81.022,190.171L81.022,192.146L82.258,192.146L82.258,192.857L81.022,192.857L81.022,194.985L82.415,194.985L82.415,195.696L80.182,195.696L80.182,189.46Z" style="fill:rgb(158,161,168);fill-rule:nonzero;"/>
        </g>
        <g id="text2139" transform="matrix(1.02705,0,0,0.973664,-0.941132,-154)">
            <path id="path2142" d="M106.884,185.636C106.884,186.696 106.766,187.45 106.53,187.896C106.294,188.342 105.898,188.565 105.343,188.565C104.76,188.565 104.349,188.325 104.11,187.845C103.874,187.376 103.756,186.542 103.756,185.344C103.756,184.275 103.873,183.519 104.106,183.076C104.342,182.63 104.742,182.407 105.304,182.407C105.808,182.407 106.181,182.579 106.425,182.924C106.586,183.155 106.702,183.483 106.775,183.908C106.848,184.302 106.884,184.878 106.884,185.636L106.884,185.636ZM106.036,185.721C106.036,184.681 105.989,183.991 105.896,183.651C105.802,183.309 105.612,183.138 105.324,183.138C105.036,183.138 104.844,183.295 104.748,183.609C104.655,183.925 104.608,184.561 104.608,185.515C104.608,186.394 104.657,187.004 104.756,187.343C104.857,187.665 105.046,187.826 105.324,187.826C105.596,187.826 105.783,187.675 105.884,187.375C105.985,187.076 106.036,186.525 106.036,185.721L106.036,185.721Z" style="fill:rgb(158,161,168);fill-rule:nonzero;"/>
            <path id="path2144" d="M107.689,182.484L109.852,182.484L109.852,183.169L108.498,183.169L108.498,185.068L109.72,185.068L109.72,185.752L108.498,185.752L108.498,188.491L107.689,188.491L107.689,182.484Z" style="fill:rgb(158,161,168);fill-rule:nonzero;"/>
            <path id="path2146" d="M110.475,182.484L112.638,182.484L112.638,183.169L111.284,183.169L111.284,185.068L112.505,185.068L112.505,185.752L111.284,185.752L111.284,188.491L110.475,188.491L110.475,182.484Z" style="fill:rgb(158,161,168);fill-rule:nonzero;"/>
            <path id="path2148" d="M115.264,182.609L115.264,183.399C115.017,183.222 114.796,183.134 114.598,183.134C114.386,183.134 114.212,183.209 114.077,183.36C113.942,183.502 113.875,183.693 113.875,183.932C113.875,184.142 113.923,184.322 114.019,184.472C114.068,184.553 114.148,184.657 114.26,184.784C114.374,184.911 114.521,185.064 114.7,185.243C115.029,185.577 115.253,185.866 115.373,186.11C115.492,186.346 115.552,186.635 115.552,186.978C115.552,187.442 115.421,187.825 115.159,188.125C114.897,188.418 114.561,188.565 114.151,188.565C113.806,188.565 113.512,188.47 113.268,188.281L113.268,187.48C113.556,187.69 113.818,187.795 114.054,187.795C114.274,187.795 114.447,187.722 114.571,187.577C114.696,187.429 114.758,187.229 114.758,186.978C114.758,186.76 114.71,186.564 114.614,186.39C114.565,186.307 114.496,186.213 114.408,186.106C114.32,185.997 114.209,185.877 114.077,185.744C113.872,185.542 113.702,185.363 113.568,185.208C113.433,185.052 113.333,184.916 113.268,184.799C113.143,184.571 113.081,184.283 113.081,183.935C113.081,183.466 113.203,183.094 113.447,182.819C113.693,182.541 114.024,182.403 114.439,182.403C114.727,182.403 115.002,182.471 115.264,182.609L115.264,182.609Z" style="fill:rgb(158,161,168);fill-rule:nonzero;"/>
            <path id="path2150" d="M116.232,182.484L118.384,182.484L118.384,183.169L117.042,183.169L117.042,185.071L118.232,185.071L118.232,185.756L117.042,185.756L117.042,187.806L118.384,187.806L118.384,188.491L116.232,188.491L116.232,182.484Z" style="fill:rgb(158,161,168);fill-rule:nonzero;"/>
            <path id="path2152" d="M118.648,182.484L121.282,182.484L121.282,183.192L120.376,183.192L120.376,188.491L119.582,188.491L119.582,183.192L118.648,183.192L118.648,182.484Z" style="fill:rgb(158,161,168);fill-rule:nonzero;"/>
        </g>
        <rect id="rect4662" x="44.311" y="171.568" width="60" height="42.935" style="fill:rgb(158,161,168);"/>
        <g id="text1620" transform="matrix(1,0,0,1,148.926,-14.9972)">
            <path id="path1627" d="M-84.464,222.627L-86.558,222.627L-86.558,216.997L-84.464,216.997L-84.464,222.627ZM-84.287,215.252C-84.287,215.582 -84.407,215.867 -84.647,216.107C-84.893,216.343 -85.179,216.461 -85.506,216.461C-85.843,216.461 -86.131,216.341 -86.37,216.101C-86.607,215.855 -86.725,215.567 -86.725,215.237C-86.725,214.9 -86.607,214.614 -86.37,214.377C-86.124,214.141 -85.837,214.023 -85.511,214.023C-85.167,214.023 -84.877,214.143 -84.641,214.383C-84.405,214.619 -84.287,214.909 -84.287,215.252L-84.287,215.252Z" style="fill:rgb(44,45,48);fill-rule:nonzero;"/>
            <path id="path1629" d="M-78.537,222.627L-80.626,222.627L-80.626,219.648C-80.626,219.391 -80.652,219.212 -80.704,219.112C-80.752,219.011 -80.839,218.961 -80.964,218.961C-81.256,218.961 -81.402,219.237 -81.402,219.789L-81.402,222.627L-83.49,222.627L-83.49,216.997L-81.402,216.997C-81.405,217.136 -81.409,217.265 -81.412,217.383C-81.416,217.501 -81.421,217.61 -81.428,217.711L-81.449,218.07C-81.112,217.275 -80.619,216.877 -79.969,216.877C-79.518,216.877 -79.167,217.046 -78.917,217.383C-78.664,217.719 -78.537,218.188 -78.537,218.789L-78.537,222.627Z" style="fill:rgb(44,45,48);fill-rule:nonzero;"/>
            <path id="path1631" d="M-75.485,225.138L-77.574,225.138L-77.574,216.997L-75.485,216.997L-75.532,217.794C-75.445,217.627 -75.357,217.487 -75.266,217.372C-75.176,217.254 -75.079,217.159 -74.975,217.086C-74.87,217.013 -74.759,216.961 -74.641,216.93C-74.52,216.895 -74.386,216.877 -74.24,216.877C-73.699,216.877 -73.258,217.148 -72.917,217.69C-72.581,218.225 -72.412,218.935 -72.412,219.82C-72.412,220.719 -72.574,221.431 -72.896,221.956C-73.212,222.48 -73.648,222.742 -74.204,222.742C-74.711,222.742 -75.153,222.449 -75.532,221.862C-75.515,222.039 -75.504,222.192 -75.501,222.32C-75.49,222.452 -75.485,222.61 -75.485,222.794L-75.485,225.138ZM-74.574,219.758C-74.574,219.39 -74.617,219.105 -74.704,218.903C-74.787,218.699 -74.907,218.596 -75.063,218.596C-75.386,218.596 -75.548,218.99 -75.548,219.778C-75.548,220.584 -75.391,220.987 -75.079,220.987C-74.923,220.987 -74.799,220.879 -74.709,220.664C-74.619,220.449 -74.574,220.147 -74.574,219.758L-74.574,219.758Z" style="fill:rgb(44,45,48);fill-rule:nonzero;"/>
            <path id="path1633" d="M-71.594,216.997L-69.506,216.997L-69.506,220.169C-69.506,220.471 -69.476,220.692 -69.417,220.831C-69.355,220.945 -69.237,221.002 -69.063,221.002C-68.893,221.002 -68.778,220.945 -68.719,220.831C-68.657,220.716 -68.626,220.495 -68.626,220.169L-68.626,216.997L-66.537,216.997L-66.537,220.45C-66.537,220.679 -66.556,220.888 -66.594,221.075C-66.629,221.259 -66.686,221.428 -66.766,221.581C-66.843,221.73 -66.943,221.867 -67.068,221.992C-67.19,222.117 -67.336,222.232 -67.506,222.336C-67.964,222.607 -68.483,222.742 -69.063,222.742C-69.65,222.742 -70.169,222.607 -70.62,222.336C-70.794,222.232 -70.943,222.119 -71.068,221.997C-71.19,221.872 -71.291,221.733 -71.37,221.581C-71.447,221.428 -71.504,221.259 -71.542,221.075C-71.577,220.888 -71.594,220.68 -71.594,220.45L-71.594,216.997Z" style="fill:rgb(44,45,48);fill-rule:nonzero;"/>
            <path id="path1635" d="M-63.199,222.627L-65.292,222.627L-65.292,218.679L-65.886,218.679L-65.886,216.997L-65.292,216.997L-65.292,215.341L-63.199,215.341L-63.199,216.997L-62.506,216.997L-62.506,218.679L-63.199,218.679L-63.199,222.627Z" style="fill:rgb(44,45,48);fill-rule:nonzero;"/>
        </g>
        <g id="text1624" transform="matrix(1.00001,0,0,0.999994,0,-20)">
            <path id="path1648" d="M62.552,354.762C62.552,355.631 62.312,356.322 61.833,356.835C61.354,357.349 60.711,357.606 59.906,357.606C59.114,357.606 58.484,357.344 58.015,356.82C57.55,356.292 57.317,355.584 57.317,354.695C57.317,353.806 57.555,353.092 58.031,352.554C58.503,352.012 59.13,351.742 59.911,351.742C60.734,351.742 61.38,352.011 61.848,352.549C62.317,353.087 62.552,353.825 62.552,354.762ZM60.526,354.695C60.526,354.486 60.512,354.299 60.484,354.132C60.456,353.962 60.416,353.818 60.364,353.7C60.312,353.578 60.249,353.485 60.177,353.419C60.104,353.353 60.022,353.32 59.932,353.32C59.755,353.32 59.612,353.445 59.505,353.695C59.397,353.914 59.343,354.242 59.343,354.679C59.343,355.11 59.397,355.438 59.505,355.664C59.612,355.914 59.756,356.039 59.937,356.039C60.107,356.039 60.248,355.915 60.359,355.669C60.47,355.394 60.526,355.07 60.526,354.695L60.526,354.695Z" style="fill:rgb(197,200,209);fill-rule:nonzero;"/>
            <path id="path1650" d="M63.354,351.861L65.442,351.861L65.442,355.033C65.442,355.335 65.472,355.556 65.531,355.695C65.593,355.809 65.711,355.867 65.885,355.867C66.055,355.867 66.17,355.809 66.229,355.695C66.291,355.58 66.322,355.36 66.322,355.033L66.322,351.861L68.411,351.861L68.411,355.315C68.411,355.544 68.392,355.752 68.354,355.94C68.319,356.124 68.262,356.292 68.182,356.445C68.105,356.594 68.005,356.731 67.88,356.856C67.758,356.981 67.612,357.096 67.442,357.2C66.984,357.471 66.465,357.606 65.885,357.606C65.298,357.606 64.779,357.471 64.328,357.2C64.154,357.096 64.005,356.983 63.88,356.861C63.758,356.736 63.657,356.598 63.578,356.445C63.501,356.292 63.444,356.124 63.406,355.94C63.371,355.752 63.354,355.544 63.354,355.315L63.354,351.861Z" style="fill:rgb(197,200,209);fill-rule:nonzero;"/>
            <path id="path1652" d="M71.75,357.492L69.656,357.492L69.656,353.544L69.062,353.544L69.062,351.861L69.656,351.861L69.656,350.205L71.75,350.205L71.75,351.861L72.442,351.861L72.442,353.544L71.75,353.544L71.75,357.492Z" style="fill:rgb(197,200,209);fill-rule:nonzero;"/>
            <path id="path1654" d="M75.088,360.002L73,360.002L73,351.861L75.088,351.861L75.041,352.658C75.128,352.492 75.217,352.351 75.307,352.236C75.397,352.118 75.494,352.023 75.599,351.95C75.703,351.877 75.814,351.825 75.932,351.794C76.053,351.759 76.187,351.742 76.333,351.742C76.875,351.742 77.316,352.012 77.656,352.554C77.993,353.089 78.161,353.799 78.161,354.684C78.161,355.584 78,356.296 77.677,356.82C77.361,357.344 76.925,357.606 76.369,357.606C75.862,357.606 75.42,357.313 75.041,356.726C75.059,356.903 75.069,357.056 75.073,357.184C75.083,357.316 75.088,357.474 75.088,357.658L75.088,360.002ZM76,354.622C76,354.254 75.956,353.969 75.869,353.768C75.786,353.563 75.666,353.46 75.51,353.46C75.187,353.46 75.026,353.854 75.026,354.643C75.026,355.448 75.182,355.851 75.494,355.851C75.651,355.851 75.774,355.743 75.864,355.528C75.954,355.313 76,355.011 76,354.622L76,354.622Z" style="fill:rgb(197,200,209);fill-rule:nonzero;"/>
            <path id="path1656" d="M78.979,351.861L81.067,351.861L81.067,355.033C81.067,355.335 81.097,355.556 81.156,355.695C81.218,355.809 81.336,355.867 81.51,355.867C81.68,355.867 81.795,355.809 81.854,355.695C81.916,355.58 81.948,355.36 81.948,355.033L81.948,351.861L84.036,351.861L84.036,355.315C84.036,355.544 84.017,355.752 83.979,355.94C83.944,356.124 83.887,356.292 83.807,356.445C83.731,356.594 83.63,356.731 83.505,356.856C83.383,356.981 83.237,357.096 83.067,357.2C82.609,357.471 82.09,357.606 81.51,357.606C80.923,357.606 80.404,357.471 79.953,357.2C79.779,357.096 79.63,356.983 79.505,356.861C79.383,356.736 79.283,356.598 79.203,356.445C79.126,356.292 79.069,356.124 79.031,355.94C78.996,355.752 78.979,355.544 78.979,355.315L78.979,351.861Z" style="fill:rgb(197,200,209);fill-rule:nonzero;"/>
            <path id="path1658" d="M87.375,357.492L85.281,357.492L85.281,353.544L84.687,353.544L84.687,351.861L85.281,351.861L85.281,350.205L87.375,350.205L87.375,351.861L88.067,351.861L88.067,353.544L87.375,353.544L87.375,357.492Z" style="fill:rgb(197,200,209);fill-rule:nonzero;"/>
            <path id="path1660" d="M88.422,357.028L89.182,355.466C89.557,355.858 89.906,356.054 90.229,356.054C90.5,356.054 90.635,355.957 90.635,355.762C90.635,355.596 90.453,355.447 90.088,355.315C89.106,354.967 88.614,354.417 88.614,353.664C88.614,353.111 88.833,352.653 89.27,352.289C89.711,351.924 90.262,351.742 90.922,351.742C91.463,351.742 92.022,351.894 92.599,352.2L91.885,353.726C91.534,353.396 91.248,353.231 91.026,353.231C90.807,353.231 90.698,353.32 90.698,353.497C90.698,353.688 90.906,353.867 91.323,354.033C91.843,354.238 92.198,354.455 92.385,354.684C92.583,354.914 92.682,355.23 92.682,355.632C92.682,356.212 92.472,356.686 92.052,357.054C91.632,357.422 91.092,357.606 90.432,357.606C90.116,357.606 89.802,357.566 89.489,357.486C89.343,357.448 89.184,357.391 89.01,357.315C88.836,357.235 88.64,357.139 88.422,357.028L88.422,357.028Z" style="fill:rgb(197,200,209);fill-rule:nonzero;"/>
        </g>
        <g id="text1688" transform="matrix(1.00001,0,0,0.999994,-24,-1.40366)">
            <path id="path1730" d="M33.843,124.027L33.843,125.084C33.513,124.848 33.217,124.73 32.953,124.73C32.668,124.73 32.435,124.831 32.255,125.032C32.074,125.223 31.984,125.478 31.984,125.798C31.984,126.079 32.048,126.32 32.177,126.522C32.243,126.629 32.35,126.768 32.5,126.938C32.652,127.108 32.849,127.313 33.088,127.553C33.529,128.001 33.829,128.388 33.989,128.714C34.149,129.03 34.229,129.417 34.229,129.876C34.229,130.497 34.053,131.009 33.703,131.412C33.352,131.805 32.902,132.001 32.354,132.001C31.892,132.001 31.498,131.874 31.171,131.621L31.171,130.548C31.557,130.829 31.908,130.97 32.224,130.97C32.519,130.97 32.75,130.872 32.916,130.678C33.083,130.48 33.166,130.213 33.166,129.876C33.166,129.584 33.102,129.322 32.974,129.089C32.908,128.978 32.816,128.851 32.697,128.709C32.579,128.563 32.432,128.402 32.255,128.225C31.98,127.954 31.753,127.714 31.572,127.506C31.392,127.298 31.258,127.115 31.171,126.959C31.005,126.654 30.921,126.268 30.921,125.803C30.921,125.174 31.085,124.676 31.411,124.308C31.741,123.937 32.184,123.751 32.739,123.751C33.125,123.751 33.493,123.843 33.843,124.027L33.843,124.027Z" style="fill:rgb(158,161,168);fill-rule:nonzero;"/>
            <path id="path1732" d="M34.64,123.86L35.687,123.86L36.234,127.595L36.323,128.147C36.364,128.445 36.395,128.718 36.416,128.964L36.474,129.647C36.477,129.664 36.481,129.695 36.484,129.74C36.487,129.786 36.493,129.843 36.5,129.912L36.526,129.652C36.567,129.197 36.611,128.779 36.656,128.397C36.704,128.015 36.757,127.662 36.812,127.339L37.39,123.86L38.224,123.86L38.765,127.24C38.845,127.74 38.911,128.204 38.963,128.631C39.019,129.058 39.064,129.466 39.099,129.855C39.133,129.445 39.172,129.049 39.213,128.668C39.258,128.286 39.305,127.911 39.354,127.542L39.432,127.006L39.895,123.86L40.932,123.86L39.51,131.902L38.666,131.902L38.099,128.428C38.095,128.414 38.086,128.357 38.073,128.256C38.059,128.155 38.038,128.011 38.01,127.824L37.901,127.022C37.894,126.959 37.881,126.865 37.864,126.74C37.85,126.615 37.835,126.457 37.817,126.266L37.791,125.933C37.784,126.013 37.778,126.082 37.771,126.141C37.764,126.2 37.758,126.249 37.755,126.287C37.738,126.516 37.722,126.695 37.708,126.824C37.698,126.949 37.691,127.025 37.687,127.053L37.578,127.824C37.554,128.001 37.535,128.14 37.521,128.24C37.507,128.341 37.496,128.404 37.489,128.428L36.901,131.902L36.031,131.902L34.64,123.86Z" style="fill:rgb(158,161,168);fill-rule:nonzero;"/>
            <rect id="path1734" x="41.578" y="123.86" width="1.083" height="8.042" style="fill:rgb(158,161,168);fill-rule:nonzero;"/>
            <path id="path1736" d="M43.911,123.86L45.338,123.86C45.928,123.86 46.368,124.001 46.656,124.282C47.02,124.647 47.203,125.204 47.203,125.954C47.203,126.53 47.106,126.994 46.911,127.345C46.72,127.692 46.446,127.907 46.088,127.99L47.567,131.902L46.468,131.902L44.994,127.964L44.994,131.902L43.911,131.902L43.911,123.86ZM44.994,127.423C45.415,127.423 45.711,127.325 45.885,127.131C46.059,126.937 46.145,126.608 46.145,126.147C46.145,125.897 46.126,125.683 46.088,125.506C46.053,125.329 45.996,125.185 45.916,125.074C45.84,124.963 45.739,124.881 45.614,124.829C45.493,124.777 45.347,124.751 45.177,124.751L44.994,124.751L44.994,127.423Z" style="fill:rgb(158,161,168);fill-rule:nonzero;"/>
            <path id="path1738" d="M48.411,123.86L49.494,123.86L49.494,130.985L51.265,130.985L51.265,131.902L48.411,131.902L48.411,123.86Z" style="fill:rgb(158,161,168);fill-rule:nonzero;"/>
        </g>
        <g id="text1692" transform="matrix(1,0,0,1,-20,11.7969)">
            <path id="path1721" d="M85.607,112.693L86.602,112.693L86.602,113.365C86.772,113.08 86.94,112.88 87.107,112.766C87.273,112.651 87.494,112.585 87.768,112.568L87.768,113.609C87.699,113.599 87.64,113.594 87.591,113.594C87.234,113.594 86.978,113.686 86.826,113.87C86.676,114.05 86.602,114.366 86.602,114.818L86.602,118.083L85.607,118.083L85.607,112.693Z" style="fill:rgb(158,161,168);fill-rule:nonzero;"/>
            <path id="path1723" d="M91.602,112.693L91.602,118.083L90.607,118.083L90.607,117.391C90.464,117.686 90.322,117.889 90.18,118C90.037,118.111 89.85,118.167 89.617,118.167C89.169,118.167 88.841,117.938 88.633,117.479C88.424,117.021 88.32,116.302 88.32,115.323C88.32,114.389 88.424,113.703 88.633,113.266C88.841,112.825 89.169,112.604 89.617,112.604C90.027,112.604 90.357,112.837 90.607,113.302L90.607,112.693L91.602,112.693ZM89.352,115.365C89.352,116.073 89.398,116.568 89.492,116.849C89.589,117.13 89.76,117.271 90.003,117.271C90.225,117.271 90.386,117.125 90.487,116.833C90.588,116.521 90.638,116.04 90.638,115.391C90.638,114.738 90.588,114.255 90.487,113.943C90.386,113.651 90.225,113.505 90.003,113.505C89.766,113.505 89.598,113.644 89.497,113.922C89.4,114.179 89.352,114.66 89.352,115.365L89.352,115.365Z" style="fill:rgb(158,161,168);fill-rule:nonzero;"/>
            <path id="path1725" d="M92.852,111.182L93.846,111.182L93.846,112.693L94.388,112.693L94.388,113.484L93.846,113.484L93.846,118.083L92.852,118.083L92.852,113.484L92.305,113.484L92.305,112.693L92.852,112.693L92.852,111.182Z" style="fill:rgb(158,161,168);fill-rule:nonzero;"/>
            <path id="path1727" d="M97.19,116.266L98.117,116.266C98.044,117.533 97.523,118.167 96.555,118.167C96.266,118.167 96.018,118.113 95.81,118.005C95.605,117.898 95.435,117.731 95.299,117.505C95.164,117.28 95.063,116.993 94.997,116.646C94.935,116.299 94.904,115.885 94.904,115.406C94.904,114.455 95.036,113.75 95.299,113.292C95.567,112.833 95.978,112.604 96.534,112.604C97.614,112.604 98.154,113.556 98.154,115.458L98.154,115.583L95.878,115.583C95.878,116.736 96.107,117.312 96.565,117.312C96.982,117.312 97.19,116.964 97.19,116.266L97.19,116.266ZM97.138,114.865C97.096,114.299 97.032,113.927 96.945,113.75C96.855,113.552 96.709,113.453 96.508,113.453C96.303,113.453 96.157,113.552 96.07,113.75C95.983,113.927 95.919,114.299 95.878,114.865L97.138,114.865Z" style="fill:rgb(158,161,168);fill-rule:nonzero;"/>
        </g>
        <g id="text1696" transform="matrix(1,0,0,1,0,11.7083)">
            <path id="path1710" d="M108.903,112.693L108.903,118.083L107.908,118.083L107.908,117.391C107.765,117.686 107.623,117.889 107.481,118C107.338,118.111 107.151,118.167 106.918,118.167C106.47,118.167 106.142,117.938 105.934,117.479C105.726,117.021 105.621,116.302 105.621,115.323C105.621,114.389 105.726,113.703 105.934,113.266C106.142,112.825 106.47,112.604 106.918,112.604C107.328,112.604 107.658,112.837 107.908,113.302L107.908,112.693L108.903,112.693ZM106.653,115.365C106.653,116.073 106.699,116.568 106.793,116.849C106.89,117.13 107.061,117.271 107.304,117.271C107.526,117.271 107.687,117.125 107.788,116.833C107.889,116.521 107.939,116.04 107.939,115.391C107.939,114.738 107.889,114.255 107.788,113.943C107.687,113.651 107.526,113.505 107.304,113.505C107.068,113.505 106.899,113.644 106.798,113.922C106.701,114.179 106.653,114.66 106.653,115.365L106.653,115.365Z" style="fill:rgb(158,161,168);fill-rule:nonzero;"/>
            <path id="path1712" d="M110.033,112.693L111.028,112.693L111.028,113.359C111.302,112.856 111.666,112.604 112.121,112.604C112.618,112.604 112.955,112.856 113.132,113.359C113.396,112.856 113.771,112.604 114.257,112.604C114.635,112.604 114.923,112.705 115.121,112.906C115.323,113.104 115.423,113.398 115.423,113.786L115.423,118.083L114.423,118.083L114.423,114.536C114.423,114.13 114.385,113.858 114.309,113.719C114.236,113.576 114.094,113.505 113.882,113.505C113.642,113.505 113.479,113.578 113.392,113.724C113.309,113.866 113.267,114.137 113.267,114.536L113.267,118.083L112.236,118.083L112.236,114.536C112.236,114.346 112.225,114.184 112.205,114.052C112.187,113.92 112.156,113.814 112.111,113.734C112.066,113.655 112.007,113.597 111.934,113.563C111.861,113.524 111.771,113.505 111.663,113.505C111.434,113.505 111.271,113.583 111.173,113.74C111.076,113.896 111.027,114.161 111.027,114.536L111.027,118.083L110.033,118.083L110.033,112.693Z" style="fill:rgb(158,161,168);fill-rule:nonzero;"/>
            <path id="path1714" d="M116.533,120.292L116.533,112.693L117.528,112.693L117.528,113.391C117.666,113.095 117.809,112.891 117.955,112.776C118.101,112.661 118.291,112.604 118.528,112.604C118.972,112.604 119.297,112.835 119.502,113.297C119.71,113.755 119.814,114.474 119.814,115.453C119.814,116.411 119.708,117.101 119.496,117.521C119.288,117.951 118.953,118.167 118.491,118.167C118.269,118.167 118.087,118.116 117.944,118.016C117.875,117.967 117.805,117.898 117.736,117.807C117.666,117.717 117.597,117.608 117.528,117.479L117.528,120.292L116.533,120.292ZM118.783,115.417C118.783,114.684 118.734,114.187 118.637,113.927C118.543,113.646 118.375,113.505 118.132,113.505C117.903,113.505 117.739,113.651 117.642,113.943C117.545,114.214 117.496,114.696 117.496,115.391C117.496,116.085 117.545,116.568 117.642,116.839C117.743,117.127 117.906,117.271 118.132,117.271C118.368,117.271 118.536,117.132 118.637,116.854C118.734,116.597 118.783,116.118 118.783,115.417Z" style="fill:rgb(158,161,168);fill-rule:nonzero;"/>
            <rect id="path1716" x="120.741" y="109.234" width="0.995" height="8.849" style="fill:rgb(158,161,168);fill-rule:nonzero;"/>
            <path id="path1718" d="M122.866,112.693L123.866,112.693L123.866,118.083L122.866,118.083L122.866,112.693ZM123.335,110.401C123.515,110.401 123.672,110.467 123.804,110.599C123.936,110.731 124.002,110.889 124.002,111.073C124.002,111.26 123.936,111.42 123.804,111.552C123.672,111.684 123.512,111.75 123.324,111.75C123.137,111.75 122.977,111.684 122.845,111.552C122.717,111.424 122.653,111.262 122.653,111.068C122.653,110.887 122.719,110.731 122.851,110.599C122.993,110.467 123.154,110.401 123.335,110.401L123.335,110.401Z" style="fill:rgb(158,161,168);fill-rule:nonzero;"/>
        </g>
        <g id="text1700">
            <path id="path1790" d="M6.922,140.349L9.802,140.349L9.802,141.266L8.005,141.266L8.005,143.813L9.599,143.813L9.599,144.729L8.005,144.729L8.005,147.474L9.802,147.474L9.802,148.391L6.922,148.391L6.922,140.349Z" style="fill:rgb(158,161,168);fill-rule:nonzero;"/>
            <path id="path1792" d="M15.052,148.51L14.37,149L13.817,148.214C13.488,148.398 13.139,148.49 12.771,148.49C11.989,148.49 11.437,148.16 11.114,147.5C10.795,146.819 10.635,145.681 10.635,144.083C10.635,142.688 10.791,141.7 11.104,141.12C11.416,140.536 11.946,140.245 12.692,140.245C13.477,140.245 14.029,140.566 14.349,141.208C14.665,141.837 14.823,142.951 14.823,144.552C14.823,146 14.672,147.005 14.37,147.568L15.052,148.51ZM13.135,145.839L13.583,146.474C13.656,145.96 13.692,145.38 13.692,144.734C13.692,143.352 13.626,142.418 13.495,141.932C13.363,141.464 13.1,141.229 12.708,141.229C12.34,141.229 12.092,141.429 11.963,141.828C11.835,142.21 11.771,142.981 11.771,144.141C11.771,145.443 11.837,146.332 11.968,146.807C12.1,147.262 12.357,147.49 12.739,147.49C12.892,147.49 13.038,147.441 13.177,147.344L12.489,146.354L13.135,145.839Z" style="fill:rgb(158,161,168);fill-rule:nonzero;"/>
            <path id="path1794" d="M15.901,140.349L16.963,140.349L16.963,146.031C16.963,146.611 17.015,146.997 17.12,147.188C17.227,147.378 17.439,147.474 17.755,147.474C18.071,147.474 18.279,147.391 18.38,147.224C18.484,147.054 18.536,146.708 18.536,146.187L18.536,140.349L19.599,140.349L19.599,146.187C19.599,147.062 19.465,147.654 19.198,147.964C18.878,148.314 18.39,148.49 17.734,148.49C17.012,148.49 16.503,148.264 16.208,147.812C16.003,147.503 15.901,146.91 15.901,146.031L15.901,140.349Z" style="fill:rgb(158,161,168);fill-rule:nonzero;"/>
            <path id="path1796" d="M21.984,140.349L22.828,140.349L24.552,148.391L23.479,148.391L23.177,146.823L21.583,146.823L21.276,148.391L20.234,148.391L21.984,140.349ZM23.021,145.984L22.781,144.703C22.621,143.832 22.491,142.901 22.39,141.911C22.342,142.394 22.279,142.884 22.203,143.38C22.126,143.873 22.036,144.398 21.932,144.953L21.734,145.984L23.021,145.984Z" style="fill:rgb(158,161,168);fill-rule:nonzero;"/>
            <path id="path1798" d="M25.192,140.349L26.276,140.349L26.276,147.474L28.047,147.474L28.047,148.391L25.192,148.391L25.192,140.349Z" style="fill:rgb(158,161,168);fill-rule:nonzero;"/>
            <path id="path1800" d="M30.942,140.349L32.37,140.349C33.057,140.349 33.557,140.523 33.87,140.87C34.182,141.22 34.338,141.776 34.338,142.536C34.338,143.606 34.024,144.297 33.396,144.609C33.08,144.752 32.623,144.823 32.026,144.823L32.026,148.391L30.942,148.391L30.942,140.349ZM32.026,143.896C32.474,143.896 32.783,143.806 32.953,143.625C33.126,143.441 33.213,143.115 33.213,142.646C33.213,142.167 33.13,141.816 32.963,141.594C32.797,141.372 32.534,141.26 32.177,141.26L32.026,141.26L32.026,143.896Z" style="fill:rgb(158,161,168);fill-rule:nonzero;"/>
            <path id="path1802" d="M39.198,144.568C39.198,145.988 39.04,146.997 38.724,147.594C38.408,148.191 37.878,148.49 37.135,148.49C36.354,148.49 35.804,148.168 35.484,147.526C35.168,146.898 35.01,145.781 35.01,144.177C35.01,142.747 35.166,141.734 35.479,141.141C35.795,140.543 36.33,140.245 37.083,140.245C37.757,140.245 38.257,140.476 38.583,140.938C38.798,141.247 38.955,141.686 39.052,142.255C39.149,142.783 39.198,143.554 39.198,144.568L39.198,144.568ZM38.062,144.682C38.062,143.29 38,142.366 37.875,141.911C37.75,141.453 37.495,141.224 37.109,141.224C36.724,141.224 36.467,141.434 36.338,141.854C36.213,142.278 36.151,143.128 36.151,144.406C36.151,145.583 36.217,146.399 36.349,146.854C36.484,147.285 36.738,147.5 37.109,147.5C37.474,147.5 37.724,147.299 37.859,146.896C37.995,146.497 38.062,145.759 38.062,144.682L38.062,144.682Z" style="fill:rgb(158,161,168);fill-rule:nonzero;"/>
            <path id="path1804" d="M39.672,140.349L40.718,140.349L41.265,144.083L41.354,144.635C41.396,144.934 41.427,145.207 41.448,145.453L41.505,146.135C41.508,146.153 41.512,146.184 41.516,146.229C41.519,146.274 41.524,146.332 41.531,146.401L41.557,146.141C41.599,145.686 41.642,145.267 41.687,144.885C41.736,144.503 41.788,144.151 41.844,143.828L42.422,140.349L43.255,140.349L43.797,143.729C43.877,144.229 43.943,144.693 43.995,145.12C44.05,145.547 44.095,145.955 44.13,146.344C44.165,145.934 44.203,145.538 44.245,145.156C44.29,144.774 44.337,144.399 44.385,144.031L44.463,143.495L44.927,140.349L45.963,140.349L44.542,148.391L43.698,148.391L43.13,144.917C43.127,144.903 43.118,144.846 43.104,144.745C43.09,144.644 43.069,144.5 43.041,144.312L42.932,143.51C42.925,143.448 42.913,143.354 42.896,143.229C42.882,143.104 42.866,142.946 42.849,142.755L42.823,142.422C42.816,142.502 42.809,142.571 42.802,142.63C42.795,142.689 42.79,142.738 42.787,142.776C42.769,143.005 42.754,143.184 42.74,143.313C42.729,143.438 42.722,143.514 42.719,143.542L42.609,144.312C42.585,144.49 42.566,144.628 42.552,144.729C42.538,144.83 42.528,144.892 42.521,144.917L41.932,148.391L41.062,148.391L39.672,140.349Z" style="fill:rgb(158,161,168);fill-rule:nonzero;"/>
            <path id="path1806" d="M46.609,140.349L49.489,140.349L49.489,141.266L47.692,141.266L47.692,143.813L49.286,143.813L49.286,144.729L47.692,144.729L47.692,147.474L49.489,147.474L49.489,148.391L46.609,148.391L46.609,140.349Z" style="fill:rgb(158,161,168);fill-rule:nonzero;"/>
            <path id="path1808" d="M50.484,140.349L51.911,140.349C52.501,140.349 52.941,140.49 53.229,140.771C53.593,141.135 53.776,141.693 53.776,142.443C53.776,143.019 53.679,143.483 53.484,143.833C53.293,144.181 53.019,144.396 52.661,144.479L54.14,148.391L53.041,148.391L51.567,144.453L51.567,148.391L50.484,148.391L50.484,140.349ZM51.567,143.911C51.988,143.911 52.284,143.814 52.458,143.62C52.632,143.425 52.718,143.097 52.718,142.635C52.718,142.385 52.699,142.172 52.661,141.995C52.626,141.818 52.569,141.674 52.489,141.563C52.413,141.451 52.312,141.37 52.187,141.318C52.066,141.266 51.92,141.24 51.75,141.24L51.567,141.24L51.567,143.911Z" style="fill:rgb(158,161,168);fill-rule:nonzero;"/>
            <path id="path1810" d="M57.192,140.349L58.62,140.349C59.307,140.349 59.807,140.523 60.12,140.87C60.432,141.22 60.588,141.776 60.588,142.536C60.588,143.606 60.274,144.297 59.646,144.609C59.33,144.752 58.873,144.823 58.276,144.823L58.276,148.391L57.192,148.391L57.192,140.349ZM58.276,143.896C58.724,143.896 59.033,143.806 59.203,143.625C59.376,143.441 59.463,143.115 59.463,142.646C59.463,142.167 59.38,141.816 59.213,141.594C59.047,141.372 58.784,141.26 58.427,141.26L58.276,141.26L58.276,143.896Z" style="fill:rgb(158,161,168);fill-rule:nonzero;"/>
            <path id="path1812" d="M62.317,140.349L63.161,140.349L64.885,148.391L63.812,148.391L63.51,146.823L61.916,146.823L61.609,148.391L60.567,148.391L62.317,140.349ZM63.354,145.984L63.114,144.703C62.955,143.832 62.824,142.901 62.724,141.911C62.675,142.394 62.613,142.884 62.536,143.38C62.46,143.873 62.37,144.398 62.265,144.953L62.067,145.984L63.354,145.984Z" style="fill:rgb(158,161,168);fill-rule:nonzero;"/>
            <path id="path1814" d="M65.526,140.349L66.536,140.349L67.614,143.557C67.927,144.464 68.203,145.431 68.442,146.458C68.356,145.837 68.291,145.274 68.25,144.771C68.208,144.267 68.187,143.793 68.187,143.349L68.187,140.349L69.276,140.349L69.276,148.391L68.26,148.391L67.047,144.771C66.935,144.434 66.83,144.089 66.729,143.734C66.632,143.38 66.541,143.009 66.458,142.62C66.451,142.571 66.439,142.512 66.422,142.443C66.408,142.373 66.391,142.293 66.37,142.203C66.38,142.293 66.389,142.372 66.396,142.438C66.403,142.5 66.408,142.554 66.411,142.599L66.469,143.417L66.526,144.411C66.529,144.467 66.531,144.535 66.531,144.615C66.535,144.694 66.536,144.785 66.536,144.885L66.594,148.391L65.526,148.391L65.526,140.349Z" style="fill:rgb(158,161,168);fill-rule:nonzero;"/>
            <path id="path1816" d="M70.526,140.349L71.536,140.349L72.614,143.557C72.927,144.464 73.203,145.431 73.442,146.458C73.356,145.837 73.291,145.274 73.25,144.771C73.208,144.267 73.187,143.793 73.187,143.349L73.187,140.349L74.276,140.349L74.276,148.391L73.26,148.391L72.047,144.771C71.935,144.434 71.83,144.089 71.729,143.734C71.632,143.38 71.541,143.009 71.458,142.62C71.451,142.571 71.439,142.512 71.422,142.443C71.408,142.373 71.391,142.293 71.37,142.203C71.38,142.293 71.389,142.372 71.396,142.438C71.403,142.5 71.408,142.554 71.411,142.599L71.469,143.417L71.526,144.411C71.529,144.467 71.531,144.535 71.531,144.615C71.535,144.694 71.536,144.785 71.536,144.885L71.594,148.391L70.526,148.391L70.526,140.349Z" style="fill:rgb(158,161,168);fill-rule:nonzero;"/>
            <rect id="path1818" x="75.526" y="140.349" width="1.083" height="8.042" style="fill:rgb(158,161,168);fill-rule:nonzero;"/>
            <path id="path1820" d="M77.859,140.349L78.87,140.349L79.948,143.557C80.26,144.464 80.536,145.431 80.776,146.458C80.689,145.837 80.625,145.274 80.583,144.771C80.541,144.267 80.521,143.793 80.521,143.349L80.521,140.349L81.609,140.349L81.609,148.391L80.593,148.391L79.38,144.771C79.269,144.434 79.163,144.089 79.062,143.734C78.965,143.38 78.875,143.009 78.791,142.62C78.784,142.571 78.772,142.512 78.755,142.443C78.741,142.373 78.724,142.293 78.703,142.203C78.713,142.293 78.722,142.372 78.729,142.438C78.736,142.5 78.741,142.554 78.745,142.599L78.802,143.417L78.859,144.411C78.863,144.467 78.864,144.535 78.864,144.615C78.868,144.694 78.87,144.785 78.87,144.885L78.927,148.391L77.859,148.391L77.859,140.349Z" style="fill:rgb(158,161,168);fill-rule:nonzero;"/>
            <path id="path1822" d="M84.786,144.161L86.755,144.161L86.755,144.474C86.755,146.04 86.618,147.097 86.343,147.646C86.073,148.208 85.566,148.49 84.823,148.49C84.055,148.49 83.508,148.177 83.182,147.552C82.859,146.927 82.698,145.877 82.698,144.401C82.698,142.714 82.875,141.59 83.229,141.031C83.562,140.507 84.074,140.245 84.765,140.245C85.293,140.245 85.705,140.372 86,140.625C86.298,140.882 86.531,141.304 86.698,141.891L85.687,142.312C85.642,142.101 85.592,141.924 85.536,141.781C85.481,141.635 85.42,141.523 85.354,141.443C85.222,141.28 85.024,141.198 84.76,141.198C84.399,141.198 84.153,141.42 84.021,141.865C83.889,142.33 83.823,143.165 83.823,144.37C83.823,145.589 83.89,146.413 84.026,146.844C84.161,147.274 84.416,147.49 84.791,147.49C85.135,147.49 85.376,147.337 85.515,147.031C85.658,146.705 85.729,146.181 85.729,145.458L85.729,145.24L85.729,145.078L84.786,145.078L84.786,144.161Z" style="fill:rgb(158,161,168);fill-rule:nonzero;"/>
        </g>
        <g id="text1743" transform="matrix(1,0,0,1,0,-1.00001)">
            <rect id="path1745" x="6.922" y="158.859" width="1.083" height="8.042" style="fill:rgb(158,161,168);fill-rule:nonzero;"/>
            <path id="path1747" d="M9.255,158.859L10.265,158.859L11.343,162.068C11.656,162.974 11.932,163.941 12.172,164.969C12.085,164.347 12.021,163.785 11.979,163.281C11.937,162.778 11.916,162.304 11.916,161.859L11.916,158.859L13.005,158.859L13.005,166.901L11.989,166.901L10.776,163.281C10.665,162.944 10.559,162.599 10.458,162.245C10.361,161.891 10.271,161.519 10.187,161.13C10.18,161.082 10.168,161.023 10.151,160.953C10.137,160.884 10.12,160.804 10.099,160.714C10.109,160.804 10.118,160.882 10.125,160.948C10.132,161.01 10.137,161.064 10.14,161.109L10.198,161.927L10.255,162.922C10.258,162.977 10.26,163.045 10.26,163.125C10.264,163.205 10.265,163.295 10.265,163.396L10.323,166.901L9.255,166.901L9.255,158.859Z" style="fill:rgb(158,161,168);fill-rule:nonzero;"/>
            <path id="path1749" d="M14.255,158.859L17.151,158.859L17.151,159.776L15.338,159.776L15.338,162.318L16.974,162.318L16.974,163.234L15.338,163.234L15.338,166.901L14.255,166.901L14.255,158.859Z" style="fill:rgb(158,161,168);fill-rule:nonzero;"/>
            <rect id="path1751" x="17.984" y="158.859" width="1.083" height="8.042" style="fill:rgb(158,161,168);fill-rule:nonzero;"/>
            <path id="path1753" d="M20.317,158.859L21.328,158.859L22.406,162.068C22.718,162.974 22.995,163.941 23.234,164.969C23.147,164.347 23.083,163.785 23.041,163.281C23,162.778 22.979,162.304 22.979,161.859L22.979,158.859L24.067,158.859L24.067,166.901L23.052,166.901L21.838,163.281C21.727,162.944 21.621,162.599 21.521,162.245C21.423,161.891 21.333,161.519 21.25,161.13C21.243,161.082 21.231,161.023 21.213,160.953C21.199,160.884 21.182,160.804 21.161,160.714C21.172,160.804 21.18,160.882 21.187,160.948C21.194,161.01 21.199,161.064 21.203,161.109L21.26,161.927L21.317,162.922C21.321,162.977 21.323,163.045 21.323,163.125C21.326,163.205 21.328,163.295 21.328,163.396L21.385,166.901L20.317,166.901L20.317,158.859Z" style="fill:rgb(158,161,168);fill-rule:nonzero;"/>
            <rect id="path1755" x="25.317" y="158.859" width="1.083" height="8.042" style="fill:rgb(158,161,168);fill-rule:nonzero;"/>
            <path id="path1757" d="M27.01,158.859L30.536,158.859L30.536,159.807L29.323,159.807L29.323,166.901L28.26,166.901L28.26,159.807L27.01,159.807L27.01,158.859Z" style="fill:rgb(158,161,168);fill-rule:nonzero;"/>
            <path id="path1759" d="M31.13,158.859L34.01,158.859L34.01,159.776L32.213,159.776L32.213,162.323L33.807,162.323L33.807,163.24L32.213,163.24L32.213,165.984L34.01,165.984L34.01,166.901L31.13,166.901L31.13,158.859Z" style="fill:rgb(158,161,168);fill-rule:nonzero;"/>
            <path id="path1761" d="M37.213,158.859L38.547,158.859C38.953,158.859 39.295,158.905 39.573,158.995C39.83,159.082 40.059,159.236 40.26,159.458C40.562,159.792 40.778,160.226 40.906,160.76C41.034,161.278 41.099,162.019 41.099,162.984C41.099,163.87 41.028,164.592 40.885,165.151C40.746,165.686 40.517,166.094 40.198,166.375C39.805,166.726 39.102,166.901 38.088,166.901L37.213,166.901L37.213,158.859ZM38.297,165.953C38.956,165.953 39.397,165.753 39.62,165.354C39.849,164.955 39.963,164.179 39.963,163.026C39.963,161.786 39.854,160.934 39.635,160.469C39.416,160.003 39.015,159.771 38.432,159.771L38.297,159.771L38.297,165.953Z" style="fill:rgb(158,161,168);fill-rule:nonzero;"/>
            <rect id="path1763" x="42.172" y="158.859" width="1.083" height="8.042" style="fill:rgb(158,161,168);fill-rule:nonzero;"/>
            <path id="path1765" d="M47.187,159.026L47.187,160.083C46.857,159.847 46.561,159.729 46.297,159.729C46.012,159.729 45.779,159.83 45.599,160.031C45.418,160.222 45.328,160.477 45.328,160.797C45.328,161.078 45.392,161.319 45.521,161.521C45.587,161.628 45.694,161.767 45.844,161.937C45.996,162.108 46.192,162.312 46.432,162.552C46.873,163 47.173,163.387 47.333,163.714C47.493,164.03 47.573,164.417 47.573,164.875C47.573,165.497 47.397,166.009 47.047,166.411C46.696,166.804 46.246,167 45.698,167C45.236,167 44.842,166.873 44.515,166.62L44.515,165.547C44.901,165.828 45.251,165.969 45.567,165.969C45.863,165.969 46.094,165.872 46.26,165.677C46.427,165.479 46.51,165.212 46.51,164.875C46.51,164.583 46.446,164.321 46.317,164.089C46.251,163.977 46.159,163.851 46.041,163.708C45.923,163.562 45.776,163.401 45.599,163.224C45.324,162.953 45.097,162.714 44.916,162.505C44.736,162.297 44.602,162.115 44.515,161.958C44.349,161.653 44.265,161.267 44.265,160.802C44.265,160.174 44.429,159.675 44.755,159.307C45.085,158.936 45.527,158.75 46.083,158.75C46.468,158.75 46.836,158.842 47.187,159.026L47.187,159.026Z" style="fill:rgb(158,161,168);fill-rule:nonzero;"/>
            <path id="path1767" d="M47.968,158.859L51.495,158.859L51.495,159.807L50.281,159.807L50.281,166.901L49.218,166.901L49.218,159.807L47.968,159.807L47.968,158.859Z" style="fill:rgb(158,161,168);fill-rule:nonzero;"/>
            <path id="path1769" d="M53.088,158.859L53.932,158.859L55.656,166.901L54.583,166.901L54.281,165.333L52.687,165.333L52.38,166.901L51.338,166.901L53.088,158.859ZM54.125,164.495L53.885,163.214C53.725,162.342 53.595,161.411 53.495,160.422C53.446,160.905 53.383,161.394 53.307,161.891C53.231,162.384 53.14,162.908 53.036,163.464L52.838,164.495L54.125,164.495Z" style="fill:rgb(158,161,168);fill-rule:nonzero;"/>
            <path id="path1771" d="M56.297,158.859L57.307,158.859L58.385,162.068C58.698,162.974 58.974,163.941 59.213,164.969C59.126,164.347 59.062,163.785 59.021,163.281C58.979,162.778 58.958,162.304 58.958,161.859L58.958,158.859L60.047,158.859L60.047,166.901L59.031,166.901L57.817,163.281C57.706,162.944 57.6,162.599 57.5,162.245C57.403,161.891 57.312,161.519 57.229,161.13C57.222,161.082 57.21,161.023 57.193,160.953C57.179,160.884 57.161,160.804 57.141,160.714C57.151,160.804 57.16,160.882 57.167,160.948C57.174,161.01 57.179,161.064 57.182,161.109L57.239,161.927L57.297,162.922C57.3,162.977 57.302,163.045 57.302,163.125C57.306,163.205 57.307,163.295 57.307,163.396L57.365,166.901L56.297,166.901L56.297,158.859Z" style="fill:rgb(158,161,168);fill-rule:nonzero;"/>
            <path id="path1773" d="M64.453,158.99L64.453,159.964C64.175,159.828 63.942,159.76 63.755,159.76C63.498,159.76 63.278,159.825 63.093,159.953C62.909,160.078 62.757,160.273 62.635,160.536C62.517,160.8 62.429,161.135 62.37,161.542C62.314,161.944 62.286,162.422 62.286,162.974C62.286,164.96 62.795,165.953 63.812,165.953C63.989,165.953 64.203,165.898 64.453,165.786L64.453,166.781C64.192,166.927 63.901,167 63.578,167C61.949,167 61.135,165.67 61.135,163.01C61.135,161.573 61.333,160.503 61.729,159.802C62.128,159.101 62.738,158.75 63.557,158.75C63.859,158.75 64.158,158.83 64.453,158.99L64.453,158.99Z" style="fill:rgb(158,161,168);fill-rule:nonzero;"/>
            <path id="path1775" d="M65.359,158.859L68.239,158.859L68.239,159.776L66.442,159.776L66.442,162.323L68.036,162.323L68.036,163.24L66.442,163.24L66.442,165.984L68.239,165.984L68.239,166.901L65.359,166.901L65.359,158.859Z" style="fill:rgb(158,161,168);fill-rule:nonzero;"/>
            <path id="path1777" d="M74.599,158.99L74.599,159.964C74.321,159.828 74.088,159.76 73.901,159.76C73.644,159.76 73.423,159.825 73.239,159.953C73.055,160.078 72.903,160.273 72.781,160.536C72.663,160.8 72.574,161.135 72.515,161.542C72.46,161.944 72.432,162.422 72.432,162.974C72.432,164.96 72.941,165.953 73.958,165.953C74.135,165.953 74.349,165.898 74.599,165.786L74.599,166.781C74.338,166.927 74.047,167 73.724,167C72.095,167 71.281,165.67 71.281,163.01C71.281,161.573 71.479,160.503 71.875,159.802C72.274,159.101 72.883,158.75 73.703,158.75C74.005,158.75 74.304,158.83 74.599,158.99L74.599,158.99Z" style="fill:rgb(158,161,168);fill-rule:nonzero;"/>
            <path id="path1779" d="M75.505,158.859L78.385,158.859L78.385,159.776L76.588,159.776L76.588,162.323L78.182,162.323L78.182,163.24L76.588,163.24L76.588,165.984L78.385,165.984L78.385,166.901L75.505,166.901L75.505,158.859Z" style="fill:rgb(158,161,168);fill-rule:nonzero;"/>
            <path id="path1781" d="M79.38,158.859L80.39,158.859L81.468,162.068C81.781,162.974 82.057,163.941 82.297,164.969C82.21,164.347 82.146,163.785 82.104,163.281C82.062,162.778 82.041,162.304 82.041,161.859L82.041,158.859L83.13,158.859L83.13,166.901L82.114,166.901L80.901,163.281C80.79,162.944 80.684,162.599 80.583,162.245C80.486,161.891 80.396,161.519 80.312,161.13C80.305,161.082 80.293,161.023 80.276,160.953C80.262,160.884 80.245,160.804 80.224,160.714C80.234,160.804 80.243,160.882 80.25,160.948C80.257,161.01 80.262,161.064 80.265,161.109L80.323,161.927L80.38,162.922C80.384,162.977 80.385,163.045 80.385,163.125C80.389,163.205 80.391,163.295 80.391,163.396L80.448,166.901L79.38,166.901L79.38,158.859Z" style="fill:rgb(158,161,168);fill-rule:nonzero;"/>
            <path id="path1783" d="M83.739,158.859L87.265,158.859L87.265,159.807L86.052,159.807L86.052,166.901L84.989,166.901L84.989,159.807L83.739,159.807L83.739,158.859Z" style="fill:rgb(158,161,168);fill-rule:nonzero;"/>
            <path id="path1785" d="M87.859,158.859L90.739,158.859L90.739,159.776L88.942,159.776L88.942,162.323L90.536,162.323L90.536,163.24L88.942,163.24L88.942,165.984L90.739,165.984L90.739,166.901L87.859,166.901L87.859,158.859Z" style="fill:rgb(158,161,168);fill-rule:nonzero;"/>
            <path id="path1787" d="M91.734,158.859L93.161,158.859C93.751,158.859 94.191,159 94.479,159.281C94.843,159.646 95.026,160.203 95.026,160.953C95.026,161.53 94.929,161.993 94.734,162.344C94.543,162.691 94.269,162.906 93.911,162.99L95.39,166.901L94.291,166.901L92.817,162.964L92.817,166.901L91.734,166.901L91.734,158.859ZM92.817,162.422C93.238,162.422 93.534,162.325 93.708,162.13C93.882,161.936 93.968,161.608 93.968,161.146C93.968,160.896 93.949,160.682 93.911,160.505C93.876,160.328 93.819,160.184 93.739,160.073C93.663,159.962 93.562,159.88 93.437,159.828C93.316,159.776 93.17,159.75 93,159.75L92.817,159.75L92.817,162.422Z" style="fill:rgb(158,161,168);fill-rule:nonzero;"/>
        </g>
        <rect id="rect1834" x="30" y="342.503" width="90" height="22" style="fill:rgb(158,161,168);"/>
        <g id="text1704" transform="matrix(1,0,0,1,0,0.91665)">
            <path id="path1862" d="M34.766,352.714L34.766,353.729C34.627,353.559 34.46,353.474 34.266,353.474C33.717,353.474 33.443,354.068 33.443,355.255C33.443,356.516 33.715,357.146 34.26,357.146C34.413,357.146 34.582,357.078 34.766,356.943L34.766,357.875C34.502,358.014 34.234,358.083 33.964,358.083C32.894,358.083 32.359,357.174 32.359,355.354C32.359,354.385 32.491,353.672 32.755,353.214C33.019,352.752 33.429,352.521 33.984,352.521C34.252,352.521 34.512,352.585 34.766,352.714L34.766,352.714Z" style="fill:rgb(44,45,48);fill-rule:nonzero;"/>
            <path id="path1864" d="M35.542,349.151L36.536,349.151L36.536,353.229C36.821,352.757 37.189,352.521 37.641,352.521C38.078,352.521 38.391,352.693 38.578,353.036C38.682,353.231 38.734,353.608 38.734,354.167L38.734,358L37.74,358L37.734,354.396C37.734,354.031 37.691,353.773 37.604,353.62C37.517,353.467 37.368,353.391 37.156,353.391C37.042,353.391 36.944,353.411 36.865,353.453C36.788,353.491 36.726,353.556 36.677,353.646C36.628,353.733 36.592,353.847 36.568,353.99C36.547,354.132 36.536,354.307 36.536,354.516L36.536,358L35.542,358L35.542,349.151Z" style="fill:rgb(44,45,48);fill-rule:nonzero;"/>
            <path id="path1866" d="M42.932,352.609L42.932,358L41.938,358L41.938,357.307C41.795,357.602 41.653,357.806 41.51,357.917C41.368,358.028 41.181,358.083 40.948,358.083C40.5,358.083 40.172,357.854 39.964,357.396C39.755,356.937 39.651,356.219 39.651,355.24C39.651,354.306 39.755,353.62 39.964,353.182C40.172,352.741 40.5,352.521 40.948,352.521C41.358,352.521 41.688,352.753 41.938,353.219L41.938,352.609L42.932,352.609ZM40.682,355.281C40.682,355.99 40.729,356.484 40.823,356.766C40.92,357.047 41.09,357.187 41.333,357.187C41.556,357.187 41.717,357.042 41.818,356.75C41.918,356.437 41.969,355.957 41.969,355.307C41.969,354.655 41.918,354.172 41.818,353.859C41.717,353.568 41.556,353.422 41.333,353.422C41.097,353.422 40.929,353.561 40.828,353.839C40.731,354.095 40.682,354.576 40.682,355.281L40.682,355.281Z" style="fill:rgb(44,45,48);fill-rule:nonzero;"/>
            <path id="path1868" d="M44.063,352.609L45.063,352.609L45.063,358L44.063,358L44.063,352.609ZM44.531,350.318C44.712,350.318 44.868,350.384 45,350.516C45.132,350.648 45.198,350.806 45.198,350.99C45.198,351.177 45.132,351.337 45,351.469C44.868,351.601 44.708,351.667 44.521,351.667C44.333,351.667 44.174,351.601 44.042,351.469C43.913,351.34 43.849,351.179 43.849,350.984C43.849,350.804 43.915,350.648 44.047,350.516C44.189,350.384 44.351,350.318 44.531,350.318L44.531,350.318Z" style="fill:rgb(44,45,48);fill-rule:nonzero;"/>
            <path id="path1870" d="M46.188,352.609L47.182,352.609L47.182,353.229C47.467,352.757 47.835,352.521 48.286,352.521C48.724,352.521 49.036,352.693 49.224,353.036C49.328,353.231 49.38,353.608 49.38,354.167L49.38,358L48.385,358L48.38,354.396C48.38,354.031 48.337,353.773 48.25,353.62C48.163,353.467 48.014,353.391 47.802,353.391C47.687,353.391 47.59,353.411 47.51,353.453C47.434,353.491 47.371,353.556 47.323,353.646C47.274,353.733 47.238,353.847 47.213,353.99C47.193,354.132 47.182,354.307 47.182,354.516L47.182,358L46.187,358L46.188,352.609Z" style="fill:rgb(44,45,48);fill-rule:nonzero;"/>
        </g>
        <g id="path1873" transform="matrix(1.28452,0,0,0.778499,-249.376,69.961)">
            <path d="M241.822,353.456L242.479,353.456L243.821,359.717L242.985,359.717L242.75,358.496L241.51,358.496L241.27,359.717L240.459,359.717L241.822,353.456ZM242.629,357.843L242.442,356.846C242.318,356.167 242.216,355.443 242.138,354.673C242.1,355.048 242.052,355.429 241.992,355.816C241.933,356.2 241.862,356.608 241.781,357.041L241.627,357.843L242.629,357.843Z" style="fill:rgb(44,45,48);fill-rule:nonzero;"/>
        </g>
        <g id="path1876" transform="matrix(1.28452,0,0,0.778499,-249.398,69.961)">
            <path d="M254.101,353.456L255.244,353.456C256.139,353.456 256.586,354.012 256.586,355.123C256.586,355.547 256.528,355.862 256.412,356.067C256.295,356.273 256.09,356.428 255.795,356.534C256.133,356.669 256.364,356.842 256.489,357.053C256.616,357.261 256.679,357.574 256.679,357.993C256.679,359.142 256.187,359.717 255.203,359.717L254.1,359.717L254.101,353.456ZM254.895,356.213C255.222,356.213 255.449,356.138 255.576,355.986C255.703,355.827 255.767,355.547 255.767,355.147C255.767,354.471 255.524,354.133 255.037,354.133L254.972,354.133L254.936,354.133C254.914,354.133 254.9,354.135 254.895,354.137L254.895,356.213ZM254.895,358.995C255.241,358.995 255.48,358.921 255.613,358.772C255.745,358.623 255.812,358.354 255.812,357.965C255.812,357.565 255.743,357.285 255.605,357.126C255.47,356.963 255.233,356.882 254.895,356.882L254.895,358.995Z" style="fill:rgb(44,45,48);fill-rule:nonzero;"/>
        </g>
        <g id="path1880" transform="matrix(1.28452,0,0,0.778499,-249.778,69.961)">
            <path d="M270.181,353.558L270.181,354.316C269.964,354.21 269.783,354.158 269.637,354.158C269.437,354.158 269.266,354.208 269.122,354.308C268.979,354.405 268.86,354.556 268.765,354.762C268.674,354.967 268.605,355.228 268.559,355.544C268.515,355.858 268.494,356.23 268.494,356.659C268.494,358.206 268.89,358.979 269.682,358.979C269.82,358.979 269.986,358.935 270.181,358.849L270.181,359.623C269.978,359.737 269.751,359.794 269.499,359.794C268.232,359.794 267.598,358.758 267.598,356.688C267.598,355.569 267.752,354.736 268.06,354.19C268.371,353.644 268.845,353.371 269.483,353.371C269.718,353.371 269.951,353.433 270.181,353.558L270.181,353.558Z" style="fill:rgb(44,45,48);fill-rule:nonzero;"/>
        </g>
        <g id="path1883" transform="matrix(1.28452,0,0,0.778499,-250.62,69.961)">
            <path d="M280.742,353.456L281.78,353.456C282.096,353.456 282.363,353.491 282.579,353.562C282.779,353.629 282.957,353.749 283.114,353.922C283.349,354.182 283.517,354.52 283.617,354.936C283.717,355.339 283.767,355.916 283.767,356.667C283.767,357.357 283.711,357.919 283.601,358.354C283.493,358.77 283.314,359.088 283.065,359.307C282.76,359.58 282.213,359.717 281.423,359.717L280.742,359.717L280.742,353.456ZM281.585,358.979C282.099,358.979 282.442,358.823 282.615,358.512C282.794,358.201 282.883,357.597 282.883,356.7C282.883,355.735 282.798,355.071 282.628,354.709C282.457,354.347 282.145,354.166 281.691,354.166L281.585,354.166L281.585,358.979Z" style="fill:rgb(44,45,48);fill-rule:nonzero;"/>
        </g>
    </g>
</svg>
