<?xml version="1.0" encoding="UTF-8" standalone="no"?>
<!DOCTYPE svg PUBLIC "-//W3C//DTD SVG 1.1//EN" "http://www.w3.org/Graphics/SVG/1.1/DTD/svg11.dtd">
<svg width="100%" height="100%" viewBox="0 0 60 380" version="1.1" xmlns="http://www.w3.org/2000/svg" xmlns:xlink="http://www.w3.org/1999/xlink" xml:space="preserve" xmlns:serif="http://www.serif.com/" style="fill-rule:evenodd;clip-rule:evenodd;stroke-linejoin:round;stroke-miterlimit:2;">
    <g id="Layer-2" serif:id="Layer 2">
        <rect id="rect4689" x="-0.646" y="0" width="60" height="380" style="fill:rgb(44,45,48);"/>
        <g id="text989">
        </g>
        <g id="text80" transform="matrix(1.00498,0,0,0.995047,-15.6455,4.99997)">
            <path id="path4726" d="M29.851,371.706L29.851,363.943L31.853,363.943L32.903,366.668C32.96,366.829 33.024,367.013 33.094,367.221C33.168,367.429 33.249,367.668 33.336,367.94L33.552,368.624C33.475,367.95 33.416,367.373 33.376,366.894C33.336,366.415 33.316,366.013 33.316,365.687L33.316,363.943L35.317,363.943L35.317,371.706L33.316,371.706L32.26,368.85C32.149,368.545 32.049,368.26 31.958,367.995C31.871,367.727 31.794,367.472 31.727,367.231C31.77,367.777 31.802,368.253 31.822,368.659C31.843,369.065 31.853,369.42 31.853,369.725L31.853,371.706L29.851,371.706Z" style="fill:rgb(158,161,168);fill-rule:nonzero;"/>
            <path id="path4728" d="M39.887,371.706L37.791,371.706L37.791,368.418L35.865,363.943L38.052,363.943L38.429,365.094C38.503,365.319 38.568,365.535 38.625,365.743C38.686,365.951 38.739,366.15 38.786,366.341C38.863,366.056 38.93,365.811 38.987,365.607C39.044,365.399 39.095,365.232 39.138,365.104L39.52,363.943L41.692,363.943L39.887,368.418L39.887,371.706Z" style="fill:rgb(158,161,168);fill-rule:nonzero;"/>
            <path id="path4730" d="M41.894,371.515L41.894,369.076C42.306,369.639 42.752,369.921 43.231,369.921C43.412,369.921 43.56,369.874 43.673,369.78C43.787,369.683 43.844,369.562 43.844,369.418C43.844,369.21 43.72,369.008 43.472,368.81L43.13,368.543C42.902,368.372 42.708,368.203 42.547,368.035C42.386,367.865 42.256,367.69 42.155,367.513C42.054,367.332 41.981,367.146 41.934,366.954C41.887,366.763 41.863,366.562 41.863,366.351C41.863,365.989 41.947,365.61 42.115,365.215C42.199,365.03 42.296,364.863 42.406,364.712C42.517,364.558 42.644,364.422 42.789,364.305C43.184,363.969 43.662,363.802 44.222,363.802C44.721,363.802 45.224,363.934 45.73,364.199L45.73,366.572C45.559,366.308 45.365,366.1 45.147,365.949C44.929,365.795 44.714,365.718 44.503,365.718C44.342,365.718 44.21,365.765 44.106,365.858C43.999,365.949 43.945,366.058 43.945,366.185C43.945,366.393 44.087,366.599 44.372,366.804L44.704,367.05C45.147,367.368 45.463,367.695 45.655,368.03C45.849,368.366 45.946,368.758 45.946,369.207C45.946,369.971 45.713,370.601 45.247,371.098C44.781,371.594 44.191,371.842 43.477,371.842C42.985,371.842 42.457,371.733 41.894,371.515L41.894,371.515Z" style="fill:rgb(158,161,168);fill-rule:nonzero;"/>
            <path id="path4732" d="M49.576,371.706L47.48,371.706L47.48,365.803L46.323,365.803L46.323,363.943L50.778,363.943L50.778,365.803L49.576,365.803L49.576,371.706Z" style="fill:rgb(158,161,168);fill-rule:nonzero;"/>
            <path id="path4734" d="M56.525,371.706L54.428,371.706L54.428,368.584L53.428,368.584L53.428,371.706L51.331,371.706L51.331,363.943L53.428,363.943L53.428,366.688L54.428,366.688L54.428,363.943L56.525,363.943L56.525,371.706Z" style="fill:rgb(158,161,168);fill-rule:nonzero;"/>
            <rect id="path4736" x="57.606" y="363.943" width="2.097" height="7.763" style="fill:rgb(158,161,168);fill-rule:nonzero;"/>
        </g>
        <g id="text4987">
        </g>
        <g id="text990" transform="matrix(1.18552,0,0,0.843514,0,0)">
            <path id="path1255" d="M13.017,19.635L9.914,21.339L8.59,19.422C8.145,19.546 7.762,19.607 7.441,19.607C5.91,19.607 4.635,18.984 3.616,17.736C2.529,16.409 1.986,14.575 1.986,12.235C1.986,9.969 2.48,8.166 3.468,6.826C4.456,5.474 5.777,4.798 7.432,4.798C9.044,4.798 10.353,5.468 11.359,6.807C12.365,8.147 12.869,9.892 12.869,12.04C12.869,14.492 12.328,16.369 11.248,17.672L13.017,19.635ZM8.868,12.281C8.868,11.67 8.834,11.123 8.766,10.642C8.698,10.16 8.602,9.756 8.479,9.429C8.355,9.095 8.201,8.842 8.016,8.669C7.836,8.49 7.633,8.4 7.404,8.4C6.972,8.4 6.626,8.746 6.367,9.438C6.114,10.179 5.987,11.108 5.987,12.226C5.987,12.818 6.018,13.349 6.08,13.819C6.148,14.288 6.24,14.683 6.358,15.004C6.481,15.325 6.632,15.572 6.811,15.745C6.991,15.912 7.191,15.995 7.413,15.995C7.642,15.995 7.846,15.912 8.025,15.745C8.204,15.578 8.355,15.335 8.479,15.013C8.608,14.692 8.704,14.303 8.766,13.846C8.834,13.39 8.868,12.868 8.868,12.281L8.868,12.281Z" style="fill:rgb(158,161,168);fill-rule:nonzero;"/>
            <path id="path1257" d="M20.519,5.057L24.381,5.057L24.381,15.171C24.381,16.017 24.248,16.702 23.983,17.227C23.724,17.777 23.291,18.274 22.686,18.718C21.871,19.311 20.88,19.607 19.713,19.607C18.392,19.607 17.284,19.28 16.388,18.626C15.252,17.792 14.684,16.458 14.684,14.624L14.684,5.057L18.546,5.057L18.546,14.282C18.546,14.905 18.62,15.347 18.769,15.606C18.923,15.866 19.179,15.995 19.537,15.995C19.908,15.995 20.164,15.875 20.306,15.634C20.448,15.381 20.519,14.933 20.519,14.291L20.519,5.057Z" style="fill:rgb(158,161,168);fill-rule:nonzero;"/>
            <path id="path1259" d="M36.542,19.357L32.55,19.357L32.263,17.542L29.66,17.542L29.346,19.357L25.354,19.357L28.79,5.057L33.513,5.057L36.542,19.357ZM31.809,14.476L31.559,12.809C31.553,12.803 31.541,12.72 31.522,12.559C31.51,12.423 31.445,11.886 31.328,10.948C31.315,10.843 31.3,10.701 31.281,10.521C31.263,10.336 31.238,10.105 31.207,9.827L31.087,8.475C31.074,8.604 31.056,8.749 31.031,8.91C31.013,9.07 30.991,9.246 30.966,9.438C30.923,9.821 30.892,10.086 30.874,10.234C30.855,10.383 30.843,10.472 30.837,10.503L30.568,12.235L30.179,14.476L31.809,14.476Z" style="fill:rgb(158,161,168);fill-rule:nonzero;"/>
            <path id="path1261" d="M37.653,19.357L37.653,5.057L40.988,5.057C42.896,5.057 44.381,5.569 45.443,6.594C46.838,7.934 47.536,9.808 47.536,12.216C47.536,14.587 46.946,16.418 45.767,17.709C44.76,18.808 43.26,19.357 41.266,19.357L37.653,19.357ZM41.516,15.903C42.899,15.835 43.59,14.643 43.59,12.328C43.59,11.185 43.414,10.284 43.062,9.623C42.71,8.956 42.235,8.623 41.636,8.623L41.516,8.623L41.516,15.903Z" style="fill:rgb(158,161,168);fill-rule:nonzero;"/>
        </g>
        <g id="text994" transform="matrix(0.962506,0,0,1.03895,0,0)">
            <path id="path1239" d="M2.491,30.311L2.491,26.664C3.108,27.507 3.775,27.928 4.492,27.928C4.762,27.928 4.983,27.858 5.153,27.717C5.324,27.572 5.409,27.391 5.409,27.176C5.409,26.865 5.223,26.562 4.852,26.266L4.341,25.867C4,25.612 3.709,25.359 3.469,25.108C3.228,24.852 3.033,24.592 2.882,24.326C2.732,24.055 2.622,23.777 2.551,23.491C2.481,23.205 2.446,22.905 2.446,22.589C2.446,22.047 2.572,21.481 2.822,20.889C2.948,20.614 3.093,20.363 3.258,20.137C3.424,19.907 3.614,19.704 3.83,19.528C4.421,19.027 5.136,18.776 5.973,18.776C6.72,18.776 7.472,18.974 8.229,19.37L8.229,22.92C7.973,22.524 7.682,22.213 7.356,21.987C7.031,21.757 6.71,21.641 6.394,21.641C6.153,21.641 5.955,21.712 5.8,21.852C5.64,21.987 5.559,22.15 5.559,22.341C5.559,22.651 5.772,22.96 6.198,23.266L6.695,23.634C7.356,24.11 7.83,24.599 8.116,25.1C8.407,25.602 8.552,26.188 8.552,26.86C8.552,28.003 8.204,28.945 7.507,29.687C6.81,30.429 5.928,30.8 4.86,30.8C4.123,30.8 3.334,30.637 2.491,30.311Z" style="fill:rgb(158,161,168);fill-rule:nonzero;"/>
            <rect id="path1241" x="9.778" y="18.987" width="3.136" height="11.61" style="fill:rgb(158,161,168);fill-rule:nonzero;"/>
            <path id="path1243" d="M26.479,30.597L23.2,30.597L22.967,25.303L22.869,23.19C22.834,23.596 22.794,23.985 22.749,24.356C22.704,24.722 22.649,25.078 22.584,25.424L21.599,30.597L19.042,30.597L18.2,25.416C18.15,25.115 18.082,24.599 17.997,23.867C17.987,23.757 17.964,23.531 17.929,23.19L17.854,25.333L17.576,30.597L14.237,30.597L15.59,18.987L19.493,18.987L20.147,22.897C20.202,23.218 20.25,23.566 20.29,23.942C20.335,24.318 20.375,24.727 20.41,25.168C20.476,24.431 20.566,23.772 20.681,23.19L21.478,18.987L25.351,18.987L26.479,30.597Z" style="fill:rgb(158,161,168);fill-rule:nonzero;"/>
            <path id="path1245" d="M31.021,30.597L27.885,30.597L27.885,18.987L30.923,18.987C32.437,18.987 33.56,19.295 34.292,19.912C35.154,20.639 35.585,21.649 35.585,22.942C35.585,24.351 35.126,25.401 34.209,26.093C33.582,26.559 32.682,26.792 31.509,26.792L31.021,26.792L31.021,30.597ZM31.021,24.183L31.163,24.19C31.544,24.19 31.848,24.075 32.073,23.845C32.299,23.609 32.412,23.288 32.412,22.882C32.412,22.481 32.301,22.155 32.081,21.905C31.86,21.649 31.58,21.521 31.239,21.521L31.021,21.521L31.021,24.183Z" style="fill:rgb(158,161,168);fill-rule:nonzero;"/>
            <path id="path1247" d="M42.187,30.597L36.698,30.597L36.698,18.987L39.834,18.987L39.834,27.807L42.187,27.807L42.187,30.597Z" style="fill:rgb(158,161,168);fill-rule:nonzero;"/>
            <path id="path1249" d="M43.135,30.597L43.135,18.987L48.962,18.987L48.962,21.717L46.27,21.717L46.27,23.408L48.684,23.408L48.684,26.033L46.27,26.033L46.27,27.807L48.962,27.807L48.962,30.597L43.135,30.597Z" style="fill:rgb(158,161,168);fill-rule:nonzero;"/>
            <path id="path1251" d="M58.55,30.597L55.158,30.597L53.609,26.461C53.594,26.391 53.567,26.298 53.527,26.183C53.492,26.068 53.446,25.93 53.391,25.77L53.414,26.537L53.414,30.597L50.293,30.597L50.293,18.987L53.504,18.987C54.918,18.987 55.976,19.265 56.677,19.822C57.57,20.533 58.016,21.546 58.016,22.86C58.016,24.263 57.417,25.233 56.219,25.77L58.55,30.597ZM53.429,24.363L53.639,24.363C54,24.363 54.301,24.226 54.542,23.95C54.782,23.674 54.903,23.323 54.903,22.897C54.903,22.03 54.449,21.596 53.542,21.596L53.429,21.596L53.429,24.363Z" style="fill:rgb(158,161,168);fill-rule:nonzero;"/>
        </g>
        <g id="text998" transform="matrix(1.11648,0,0,0.895672,0,0)">
            <path id="path1224" d="M2.161,50.791L2.161,46.561C2.876,47.538 3.65,48.026 4.481,48.026C4.795,48.026 5.051,47.945 5.249,47.782C5.447,47.613 5.546,47.404 5.546,47.154C5.546,46.793 5.33,46.442 4.9,46.098L4.307,45.636C3.912,45.34 3.574,45.046 3.295,44.755C3.016,44.459 2.789,44.156 2.615,43.848C2.44,43.534 2.312,43.211 2.231,42.88C2.15,42.548 2.109,42.199 2.109,41.833C2.109,41.205 2.254,40.548 2.545,39.862C2.69,39.542 2.859,39.251 3.051,38.99C3.243,38.722 3.464,38.487 3.714,38.283C4.4,37.702 5.229,37.411 6.2,37.411C7.066,37.411 7.938,37.641 8.816,38.1L8.816,42.217C8.52,41.758 8.183,41.397 7.805,41.135C7.427,40.868 7.055,40.734 6.688,40.734C6.409,40.734 6.179,40.815 5.999,40.978C5.813,41.135 5.72,41.324 5.72,41.545C5.72,41.906 5.967,42.263 6.461,42.618L7.037,43.046C7.805,43.598 8.354,44.165 8.686,44.746C9.023,45.328 9.192,46.008 9.192,46.788C9.192,48.113 8.787,49.207 7.979,50.067C7.171,50.928 6.147,51.358 4.909,51.358C4.054,51.358 3.138,51.169 2.161,50.791L2.161,50.791Z" style="fill:rgb(158,161,168);fill-rule:nonzero;"/>
            <path id="path1227" d="M16.981,51.123L10.613,51.123L10.613,37.655L14.251,37.655L14.251,47.887L16.981,47.887L16.981,51.123Z" style="fill:rgb(158,161,168);fill-rule:nonzero;"/>
            <rect id="path1229" x="18.08" y="37.655" width="3.637" height="13.468" style="fill:rgb(158,161,168);fill-rule:nonzero;"/>
            <path id="path1231" d="M31.164,46.979L30.954,50.87C30.146,51.195 29.422,51.358 28.782,51.358C27.276,51.358 26.009,50.806 24.979,49.701C23.828,48.462 23.252,46.709 23.252,44.441C23.252,42.319 23.793,40.615 24.875,39.33C25.956,38.05 27.401,37.411 29.21,37.411C29.797,37.411 30.396,37.521 31.007,37.742L31.007,41.589C30.466,41.048 29.91,40.778 29.341,40.778C28.596,40.778 28.015,41.095 27.596,41.728C27.177,42.368 26.968,43.252 26.968,44.38C26.968,44.927 27.02,45.415 27.125,45.845C27.23,46.276 27.378,46.639 27.57,46.936C27.768,47.232 28.009,47.459 28.294,47.616C28.579,47.773 28.904,47.852 29.271,47.852C29.899,47.852 30.53,47.561 31.164,46.979L31.164,46.979Z" style="fill:rgb(158,161,168);fill-rule:nonzero;"/>
            <path id="path1233" d="M32.594,51.123L32.594,37.655L39.354,37.655L39.354,40.821L36.231,40.821L36.231,42.784L39.031,42.784L39.031,45.828L36.231,45.828L36.231,47.887L39.354,47.887L39.354,51.123L32.594,51.123Z" style="fill:rgb(158,161,168);fill-rule:nonzero;"/>
            <path id="path1235" d="M50.475,51.123L46.541,51.123L44.744,46.325C44.727,46.244 44.695,46.136 44.648,46.002C44.608,45.869 44.555,45.709 44.491,45.523L44.518,46.412L44.518,51.123L40.898,51.123L40.898,37.655L44.622,37.655C46.262,37.655 47.489,37.978 48.303,38.623C49.338,39.449 49.856,40.624 49.856,42.147C49.856,43.775 49.161,44.901 47.771,45.523L50.475,51.123ZM44.535,43.892L44.779,43.892C45.198,43.892 45.547,43.732 45.826,43.412C46.105,43.092 46.245,42.685 46.245,42.191C46.245,41.185 45.718,40.682 44.666,40.682L44.535,40.682L44.535,43.892Z" style="fill:rgb(158,161,168);fill-rule:nonzero;"/>
        </g>
        <g id="text1002" transform="matrix(0.834856,0,0,1.19781,0,0)">
            <path id="path1192" d="M10.588,50.111L8.403,51.311L7.471,49.961C7.158,50.048 6.888,50.091 6.662,50.091C5.584,50.091 4.686,49.652 3.968,48.774C3.203,47.839 2.82,46.548 2.82,44.9C2.82,43.304 3.168,42.034 3.864,41.091C4.56,40.138 5.49,39.662 6.655,39.662C7.79,39.662 8.712,40.134 9.421,41.078C10.13,42.021 10.484,43.249 10.484,44.763C10.484,46.489 10.103,47.811 9.343,48.728L10.588,50.111ZM7.666,44.932C7.666,44.502 7.642,44.117 7.595,43.778C7.547,43.439 7.479,43.154 7.392,42.923C7.305,42.689 7.197,42.51 7.066,42.389C6.94,42.262 6.797,42.199 6.636,42.199C6.331,42.199 6.088,42.443 5.905,42.93C5.727,43.452 5.638,44.106 5.638,44.893C5.638,45.31 5.66,45.684 5.703,46.015C5.751,46.345 5.816,46.624 5.899,46.85C5.986,47.076 6.092,47.25 6.218,47.372C6.344,47.489 6.486,47.548 6.642,47.548C6.803,47.548 6.947,47.489 7.073,47.372C7.199,47.254 7.305,47.082 7.392,46.856C7.484,46.63 7.551,46.356 7.595,46.034C7.642,45.713 7.666,45.345 7.666,44.932L7.666,44.932Z" style="fill:rgb(158,161,168);fill-rule:nonzero;"/>
            <path id="path1194" d="M15.871,39.845L18.591,39.845L18.591,46.967C18.591,47.563 18.498,48.046 18.311,48.415C18.128,48.802 17.824,49.152 17.398,49.465C16.824,49.883 16.126,50.091 15.304,50.091C14.373,50.091 13.593,49.861 12.962,49.4C12.162,48.813 11.762,47.874 11.762,46.582L11.762,39.845L14.482,39.845L14.482,46.341C14.482,46.78 14.534,47.091 14.639,47.274C14.747,47.456 14.928,47.548 15.18,47.548C15.441,47.548 15.621,47.463 15.721,47.293C15.821,47.115 15.871,46.8 15.871,46.348L15.871,39.845Z" style="fill:rgb(158,161,168);fill-rule:nonzero;"/>
            <path id="path1196" d="M27.155,49.915L24.344,49.915L24.142,48.637L22.309,48.637L22.087,49.915L19.276,49.915L21.696,39.845L25.022,39.845L27.155,49.915ZM23.822,46.478L23.646,45.304C23.642,45.3 23.633,45.241 23.62,45.128C23.611,45.032 23.566,44.654 23.483,43.993C23.474,43.919 23.463,43.819 23.45,43.693C23.437,43.563 23.42,43.399 23.398,43.204L23.313,42.252C23.305,42.343 23.292,42.445 23.274,42.558C23.261,42.671 23.246,42.795 23.229,42.93C23.198,43.2 23.176,43.386 23.163,43.491C23.15,43.595 23.142,43.658 23.137,43.68L22.948,44.9L22.674,46.478L23.822,46.478Z" style="fill:rgb(158,161,168);fill-rule:nonzero;"/>
            <path id="path1200" d="M27.938,49.915L27.938,39.845L30.534,39.845L31.897,43.38C31.971,43.589 32.053,43.828 32.145,44.097C32.24,44.367 32.345,44.678 32.458,45.03L32.738,45.917C32.638,45.043 32.562,44.295 32.51,43.673C32.458,43.052 32.432,42.53 32.432,42.108L32.432,39.845L35.027,39.845L35.027,49.915L32.432,49.915L31.062,46.211C30.918,45.815 30.788,45.445 30.671,45.102C30.557,44.754 30.457,44.423 30.37,44.11C30.427,44.819 30.468,45.437 30.494,45.963C30.521,46.489 30.534,46.95 30.534,47.345L30.534,49.915L27.938,49.915Z" style="fill:rgb(158,161,168);fill-rule:nonzero;"/>
            <path id="path1205" d="M39.958,49.915L37.238,49.915L37.238,42.258L35.738,42.258L35.738,39.845L41.517,39.845L41.517,42.258L39.958,42.258L39.958,49.915Z" style="fill:rgb(158,161,168);fill-rule:nonzero;"/>
            <rect id="path1212" x="42.235" y="39.845" width="2.72" height="10.07" style="fill:rgb(158,161,168);fill-rule:nonzero;"/>
            <path id="path1216" d="M52.84,49.915L45.907,49.915L45.907,49.7L48.268,44.306C48.442,43.98 48.581,43.713 48.685,43.504C48.794,43.295 48.872,43.147 48.92,43.06C49.003,42.891 49.172,42.608 49.429,42.212L46.507,42.212L46.507,39.845L53.179,39.845L53.179,40.125L50.701,45.611C50.54,45.963 50.379,46.304 50.218,46.635C50.057,46.965 49.896,47.293 49.735,47.619C50.022,47.598 50.246,47.583 50.407,47.574C50.572,47.561 50.681,47.554 50.733,47.554L52.84,47.495L52.84,49.915Z" style="fill:rgb(158,161,168);fill-rule:nonzero;"/>
            <path id="path1219" d="M54.131,49.915L54.131,39.845L59.186,39.845L59.186,42.212L56.851,42.212L56.851,43.68L58.945,43.68L58.945,45.956L56.851,45.956L56.851,47.495L59.186,47.495L59.186,49.915L54.131,49.915Z" style="fill:rgb(158,161,168);fill-rule:nonzero;"/>
            <path id="path1221" d="M67.502,49.915L64.56,49.915L63.217,46.328C63.204,46.267 63.18,46.187 63.145,46.087C63.115,45.987 63.076,45.867 63.028,45.728L63.047,46.393L63.047,49.915L60.341,49.915L60.341,39.845L63.126,39.845C64.352,39.845 65.269,40.086 65.878,40.569C66.652,41.186 67.039,42.065 67.039,43.204C67.039,44.421 66.519,45.263 65.48,45.728L67.502,49.915ZM63.06,44.508L63.243,44.508C63.556,44.508 63.817,44.389 64.026,44.15C64.234,43.91 64.339,43.606 64.339,43.236C64.339,42.484 63.945,42.108 63.158,42.108L63.06,42.108L63.06,44.508Z" style="fill:rgb(158,161,168);fill-rule:nonzero;"/>
        </g>
        <rect id="rect1266" x="0" y="64" width="60" height="78" style="fill:rgb(158,161,168);"/>
        <g id="text1006" transform="matrix(1,0,0,1,-5.64844,-8)">
            <rect id="path1187" x="24.666" y="81.938" width="1.625" height="12.062" style="fill:rgb(44,45,48);fill-rule:nonzero;"/>
            <path id="path1189" d="M28.166,81.938L29.682,81.938L31.299,86.75C31.768,88.109 32.182,89.56 32.541,91.102C32.411,90.169 32.315,89.326 32.252,88.57C32.19,87.815 32.158,87.104 32.158,86.438L32.158,81.938L33.791,81.938L33.791,94L32.268,94L30.447,88.57C30.281,88.065 30.122,87.547 29.971,87.016C29.825,86.484 29.69,85.927 29.565,85.344C29.554,85.271 29.536,85.182 29.51,85.078C29.489,84.974 29.463,84.854 29.432,84.719C29.447,84.854 29.461,84.971 29.471,85.07C29.481,85.164 29.489,85.245 29.494,85.312L29.58,86.539L29.666,88.031C29.671,88.115 29.674,88.216 29.674,88.336C29.679,88.456 29.682,88.591 29.682,88.742L29.768,94L28.166,94L28.166,81.938Z" style="fill:rgb(44,45,48);fill-rule:nonzero;"/>
        </g>
        <g id="text1010" transform="matrix(0.821525,0,0,1,0.382434,-8)">
            <path id="path1174" d="M6.526,105.039L6.526,106.625C6.031,106.271 5.586,106.094 5.19,106.094C4.763,106.094 4.414,106.245 4.143,106.547C3.872,106.833 3.737,107.216 3.737,107.695C3.737,108.117 3.833,108.479 4.026,108.781C4.125,108.943 4.286,109.151 4.51,109.406C4.739,109.661 5.033,109.969 5.393,110.328C6.054,111 6.505,111.581 6.744,112.07C6.984,112.544 7.104,113.125 7.104,113.813C7.104,114.745 6.841,115.513 6.315,116.117C5.789,116.706 5.114,117 4.291,117C3.599,117 3.007,116.81 2.518,116.43L2.518,114.82C3.096,115.242 3.622,115.453 4.096,115.453C4.539,115.453 4.885,115.307 5.135,115.016C5.385,114.719 5.51,114.318 5.51,113.813C5.51,113.375 5.414,112.982 5.221,112.633C5.122,112.466 4.984,112.276 4.807,112.063C4.63,111.844 4.408,111.602 4.143,111.336C3.731,110.93 3.39,110.57 3.119,110.258C2.849,109.945 2.648,109.672 2.518,109.438C2.268,108.979 2.143,108.401 2.143,107.703C2.143,106.76 2.388,106.013 2.877,105.461C3.372,104.904 4.036,104.625 4.869,104.625C5.447,104.625 6,104.763 6.526,105.039Z" style="fill:rgb(44,45,48);fill-rule:nonzero;"/>
            <path id="path1176" d="M8.471,104.789L10.096,104.789L10.096,115.477L12.752,115.477L12.752,116.852L8.471,116.852L8.471,104.789Z" style="fill:rgb(44,45,48);fill-rule:nonzero;"/>
            <rect id="path1178" x="13.783" y="104.789" width="1.625" height="12.063" style="fill:rgb(44,45,48);fill-rule:nonzero;"/>
            <path id="path1180" d="M22.018,104.984L22.018,106.445C21.601,106.242 21.252,106.141 20.971,106.141C20.586,106.141 20.255,106.237 19.979,106.43C19.703,106.617 19.474,106.909 19.291,107.305C19.114,107.701 18.981,108.203 18.893,108.812C18.809,109.417 18.768,110.133 18.768,110.961C18.768,113.94 19.531,115.43 21.057,115.43C21.322,115.43 21.643,115.346 22.018,115.18L22.018,116.672C21.627,116.891 21.19,117 20.705,117C18.263,117 17.041,115.005 17.041,111.016C17.041,108.859 17.338,107.255 17.932,106.203C18.531,105.151 19.445,104.625 20.674,104.625C21.127,104.625 21.575,104.745 22.018,104.984L22.018,104.984Z" style="fill:rgb(44,45,48);fill-rule:nonzero;"/>
            <path id="path1182" d="M23.377,104.789L27.697,104.789L27.697,106.164L25.002,106.164L25.002,109.984L27.393,109.984L27.393,111.359L25.002,111.359L25.002,115.477L27.697,115.477L27.697,116.852L23.377,116.852L23.377,104.789Z" style="fill:rgb(44,45,48);fill-rule:nonzero;"/>
            <path id="path1184" d="M33.213,105.039L33.213,106.625C32.718,106.271 32.273,106.094 31.877,106.094C31.45,106.094 31.101,106.245 30.83,106.547C30.559,106.833 30.424,107.216 30.424,107.695C30.424,108.117 30.52,108.479 30.713,108.781C30.812,108.943 30.974,109.151 31.197,109.406C31.427,109.661 31.721,109.969 32.08,110.328C32.742,111 33.192,111.581 33.432,112.07C33.671,112.544 33.791,113.125 33.791,113.813C33.791,114.745 33.528,115.513 33.002,116.117C32.476,116.706 31.802,117 30.979,117C30.286,117 29.695,116.81 29.205,116.43L29.205,114.82C29.783,115.242 30.309,115.453 30.783,115.453C31.226,115.453 31.572,115.307 31.822,115.016C32.072,114.719 32.197,114.318 32.197,113.813C32.197,113.375 32.101,112.982 31.908,112.633C31.809,112.466 31.671,112.276 31.494,112.063C31.317,111.844 31.096,111.602 30.83,111.336C30.419,110.93 30.078,110.57 29.807,110.258C29.536,109.945 29.336,109.672 29.205,109.438C28.955,108.979 28.83,108.401 28.83,107.703C28.83,106.76 29.075,106.013 29.565,105.461C30.059,104.904 30.724,104.625 31.557,104.625C32.135,104.625 32.687,104.763 33.213,105.039Z" style="fill:rgb(44,45,48);fill-rule:nonzero;"/>
        </g>
        <g id="text1014" transform="matrix(1,0,0,1,-5.64844,-8)">
            <path id="path1166" d="M20.44,134.117C20.44,136.247 20.203,137.76 19.729,138.656C19.255,139.552 18.461,140 17.346,140C16.174,140 15.349,139.518 14.869,138.555C14.395,137.612 14.158,135.937 14.158,133.531C14.158,131.385 14.393,129.867 14.862,128.977C15.336,128.081 16.138,127.633 17.268,127.633C18.278,127.633 19.028,127.979 19.518,128.672C19.841,129.135 20.075,129.794 20.221,130.648C20.367,131.44 20.44,132.596 20.44,134.117L20.44,134.117ZM18.737,134.289C18.737,132.201 18.643,130.815 18.455,130.133C18.268,129.445 17.885,129.102 17.307,129.102C16.729,129.102 16.343,129.417 16.151,130.047C15.963,130.682 15.869,131.958 15.869,133.875C15.869,135.641 15.968,136.865 16.166,137.547C16.369,138.193 16.75,138.516 17.307,138.516C17.854,138.516 18.229,138.214 18.432,137.609C18.635,137.01 18.737,135.904 18.737,134.289L18.737,134.289Z" style="fill:rgb(44,45,48);fill-rule:nonzero;"/>
            <path id="path1169" d="M22.057,127.789L23.651,127.789L23.651,136.312C23.651,137.182 23.729,137.76 23.885,138.047C24.046,138.333 24.364,138.477 24.838,138.477C25.312,138.477 25.625,138.352 25.776,138.102C25.932,137.846 26.01,137.328 26.01,136.547L26.01,127.789L27.604,127.789L27.604,136.547C27.604,137.859 27.403,138.747 27.002,139.211C26.523,139.737 25.791,140 24.807,140C23.724,140 22.961,139.661 22.518,138.984C22.211,138.521 22.057,137.63 22.057,136.312L22.057,127.789Z" style="fill:rgb(44,45,48);fill-rule:nonzero;"/>
            <path id="path1171" d="M28.502,127.789L33.791,127.789L33.791,129.211L31.971,129.211L31.971,139.852L30.377,139.852L30.377,129.211L28.502,129.211L28.502,127.789Z" style="fill:rgb(44,45,48);fill-rule:nonzero;"/>
        </g>
        <g id="text1049" transform="matrix(1,0,0,1,-5.64844,-8)">
            <rect id="path1160" x="24.666" y="155.937" width="1.625" height="12.063" style="fill:rgb(158,161,168);fill-rule:nonzero;"/>
            <path id="path1162" d="M28.166,155.937L29.682,155.937L31.299,160.75C31.768,162.109 32.182,163.56 32.541,165.102C32.411,164.169 32.315,163.326 32.252,162.57C32.19,161.815 32.158,161.104 32.158,160.437L32.158,155.937L33.791,155.937L33.791,168L32.268,168L30.447,162.57C30.281,162.065 30.122,161.547 29.971,161.016C29.825,160.484 29.69,159.927 29.565,159.344C29.554,159.271 29.536,159.182 29.51,159.078C29.489,158.974 29.463,158.854 29.432,158.719C29.447,158.854 29.461,158.971 29.471,159.07C29.481,159.164 29.489,159.245 29.494,159.313L29.58,160.539L29.666,162.031C29.671,162.115 29.674,162.216 29.674,162.336C29.679,162.456 29.682,162.591 29.682,162.742L29.768,168L28.166,168L28.166,155.937Z" style="fill:rgb(158,161,168);fill-rule:nonzero;"/>
        </g>
        <g id="text1053" transform="matrix(0.821525,0,0,1,0.382434,-8)">
            <path id="path1147" d="M6.526,179.039L6.526,180.625C6.031,180.271 5.586,180.094 5.19,180.094C4.763,180.094 4.414,180.245 4.143,180.547C3.872,180.833 3.737,181.216 3.737,181.695C3.737,182.117 3.833,182.479 4.026,182.781C4.125,182.943 4.286,183.151 4.51,183.406C4.739,183.661 5.033,183.969 5.393,184.328C6.054,185 6.505,185.581 6.744,186.07C6.984,186.544 7.104,187.125 7.104,187.813C7.104,188.745 6.841,189.513 6.315,190.117C5.789,190.706 5.114,191 4.291,191C3.599,191 3.007,190.81 2.518,190.43L2.518,188.82C3.096,189.242 3.622,189.453 4.096,189.453C4.539,189.453 4.885,189.307 5.135,189.016C5.385,188.719 5.51,188.318 5.51,187.813C5.51,187.375 5.414,186.982 5.221,186.633C5.122,186.466 4.984,186.276 4.807,186.063C4.63,185.844 4.408,185.602 4.143,185.336C3.731,184.93 3.39,184.57 3.119,184.258C2.849,183.945 2.648,183.672 2.518,183.438C2.268,182.979 2.143,182.401 2.143,181.703C2.143,180.76 2.388,180.013 2.877,179.461C3.372,178.904 4.036,178.625 4.869,178.625C5.447,178.625 6,178.763 6.526,179.039Z" style="fill:rgb(158,161,168);fill-rule:nonzero;"/>
            <path id="path1149" d="M8.471,178.789L10.096,178.789L10.096,189.477L12.752,189.477L12.752,190.852L8.471,190.852L8.471,178.789Z" style="fill:rgb(158,161,168);fill-rule:nonzero;"/>
            <rect id="path1151" x="13.783" y="178.789" width="1.625" height="12.062" style="fill:rgb(158,161,168);fill-rule:nonzero;"/>
            <path id="path1153" d="M22.018,178.984L22.018,180.445C21.601,180.242 21.252,180.141 20.971,180.141C20.586,180.141 20.255,180.237 19.979,180.43C19.703,180.617 19.474,180.909 19.291,181.305C19.114,181.701 18.981,182.203 18.893,182.812C18.809,183.417 18.768,184.133 18.768,184.961C18.768,187.94 19.531,189.43 21.057,189.43C21.322,189.43 21.643,189.346 22.018,189.18L22.018,190.672C21.627,190.891 21.19,191 20.705,191C18.263,191 17.041,189.005 17.041,185.016C17.041,182.859 17.338,181.255 17.932,180.203C18.531,179.151 19.445,178.625 20.674,178.625C21.127,178.625 21.575,178.745 22.018,178.984L22.018,178.984Z" style="fill:rgb(158,161,168);fill-rule:nonzero;"/>
            <path id="path1155" d="M23.377,178.789L27.697,178.789L27.697,180.164L25.002,180.164L25.002,183.984L27.393,183.984L27.393,185.359L25.002,185.359L25.002,189.477L27.697,189.477L27.697,190.852L23.377,190.852L23.377,178.789Z" style="fill:rgb(158,161,168);fill-rule:nonzero;"/>
            <path id="path1157" d="M33.213,179.039L33.213,180.625C32.718,180.271 32.273,180.094 31.877,180.094C31.45,180.094 31.101,180.245 30.83,180.547C30.559,180.833 30.424,181.216 30.424,181.695C30.424,182.117 30.52,182.479 30.713,182.781C30.812,182.943 30.974,183.151 31.197,183.406C31.427,183.661 31.721,183.969 32.08,184.328C32.742,185 33.192,185.581 33.432,186.07C33.671,186.544 33.791,187.125 33.791,187.813C33.791,188.745 33.528,189.513 33.002,190.117C32.476,190.706 31.802,191 30.979,191C30.286,191 29.695,190.81 29.205,190.43L29.205,188.82C29.783,189.242 30.309,189.453 30.783,189.453C31.226,189.453 31.572,189.307 31.822,189.016C32.072,188.719 32.197,188.318 32.197,187.813C32.197,187.375 32.101,186.982 31.908,186.633C31.809,186.466 31.671,186.276 31.494,186.063C31.317,185.844 31.096,185.602 30.83,185.336C30.419,184.93 30.078,184.57 29.807,184.258C29.536,183.945 29.336,183.672 29.205,183.438C28.955,182.979 28.83,182.401 28.83,181.703C28.83,180.76 29.075,180.013 29.565,179.461C30.059,178.904 30.724,178.625 31.557,178.625C32.135,178.625 32.687,178.763 33.213,179.039Z" style="fill:rgb(158,161,168);fill-rule:nonzero;"/>
        </g>
        <g id="text1057" transform="matrix(1,0,0,1,-5.64844,-8)">
            <path id="path1138" d="M20.44,208.117C20.44,210.247 20.203,211.76 19.729,212.656C19.255,213.552 18.461,214 17.346,214C16.174,214 15.349,213.518 14.869,212.555C14.395,211.612 14.158,209.937 14.158,207.531C14.158,205.385 14.393,203.867 14.862,202.977C15.336,202.081 16.138,201.633 17.268,201.633C18.278,201.633 19.028,201.979 19.518,202.672C19.841,203.135 20.075,203.794 20.221,204.648C20.367,205.44 20.44,206.596 20.44,208.117L20.44,208.117ZM18.737,208.289C18.737,206.201 18.643,204.815 18.455,204.133C18.268,203.445 17.885,203.102 17.307,203.102C16.729,203.102 16.343,203.417 16.151,204.047C15.963,204.682 15.869,205.958 15.869,207.875C15.869,209.641 15.968,210.865 16.166,211.547C16.369,212.193 16.75,212.516 17.307,212.516C17.854,212.516 18.229,212.214 18.432,211.609C18.635,211.01 18.737,209.904 18.737,208.289L18.737,208.289Z" style="fill:rgb(158,161,168);fill-rule:nonzero;"/>
            <path id="path1140" d="M22.057,201.789L23.651,201.789L23.651,210.312C23.651,211.182 23.729,211.76 23.885,212.047C24.046,212.333 24.364,212.477 24.838,212.477C25.312,212.477 25.625,212.352 25.776,212.102C25.932,211.846 26.01,211.328 26.01,210.547L26.01,201.789L27.604,201.789L27.604,210.547C27.604,211.859 27.403,212.747 27.002,213.211C26.523,213.737 25.791,214 24.807,214C23.724,214 22.961,213.661 22.518,212.984C22.211,212.521 22.057,211.63 22.057,210.312L22.057,201.789Z" style="fill:rgb(158,161,168);fill-rule:nonzero;"/>
            <path id="path1143" d="M28.502,201.789L33.791,201.789L33.791,203.211L31.971,203.211L31.971,213.852L30.377,213.852L30.377,203.211L28.502,203.211L28.502,201.789Z" style="fill:rgb(158,161,168);fill-rule:nonzero;"/>
        </g>
        <rect id="rect1264" x="0" y="212" width="60" height="78" style="fill:rgb(158,161,168);"/>
        <g id="text1061" transform="matrix(1,0,0,1,-5.64844,-8)">
            <rect id="path1132" x="24.666" y="229.937" width="1.625" height="12.062" style="fill:rgb(44,45,48);fill-rule:nonzero;"/>
            <path id="path1134" d="M28.166,229.937L29.682,229.937L31.299,234.75C31.768,236.109 32.182,237.56 32.541,239.102C32.411,238.169 32.315,237.326 32.252,236.57C32.19,235.815 32.158,235.104 32.158,234.437L32.158,229.937L33.791,229.937L33.791,242L32.268,242L30.447,236.57C30.281,236.065 30.122,235.547 29.971,235.016C29.825,234.484 29.69,233.927 29.565,233.344C29.554,233.271 29.536,233.182 29.51,233.078C29.489,232.974 29.463,232.854 29.432,232.719C29.447,232.854 29.461,232.971 29.471,233.07C29.481,233.164 29.489,233.245 29.494,233.313L29.58,234.539L29.666,236.031C29.671,236.115 29.674,236.216 29.674,236.336C29.679,236.456 29.682,236.591 29.682,236.742L29.768,242L28.166,242L28.166,229.937Z" style="fill:rgb(44,45,48);fill-rule:nonzero;"/>
        </g>
        <g id="text1065" transform="matrix(0.821525,0,0,1,0.382434,-8)">
            <path id="path1118" d="M6.526,253.039L6.526,254.625C6.031,254.271 5.586,254.094 5.19,254.094C4.763,254.094 4.414,254.245 4.143,254.547C3.872,254.833 3.737,255.216 3.737,255.695C3.737,256.117 3.833,256.479 4.026,256.781C4.125,256.943 4.286,257.151 4.51,257.406C4.739,257.661 5.033,257.969 5.393,258.328C6.054,259 6.505,259.581 6.744,260.07C6.984,260.544 7.104,261.125 7.104,261.812C7.104,262.745 6.841,263.513 6.315,264.117C5.789,264.706 5.114,265 4.291,265C3.599,265 3.007,264.81 2.518,264.43L2.518,262.82C3.096,263.242 3.622,263.453 4.096,263.453C4.539,263.453 4.885,263.307 5.135,263.016C5.385,262.719 5.51,262.318 5.51,261.812C5.51,261.375 5.414,260.982 5.221,260.633C5.122,260.466 4.984,260.276 4.807,260.062C4.63,259.844 4.408,259.602 4.143,259.336C3.731,258.93 3.39,258.57 3.119,258.258C2.849,257.945 2.648,257.672 2.518,257.437C2.268,256.979 2.143,256.401 2.143,255.703C2.143,254.76 2.388,254.013 2.877,253.461C3.372,252.904 4.036,252.625 4.869,252.625C5.447,252.625 6,252.763 6.526,253.039Z" style="fill:rgb(44,45,48);fill-rule:nonzero;"/>
            <path id="path1120" d="M8.471,252.789L10.096,252.789L10.096,263.477L12.752,263.477L12.752,264.852L8.471,264.852L8.471,252.789Z" style="fill:rgb(44,45,48);fill-rule:nonzero;"/>
            <rect id="path1122" x="13.783" y="252.789" width="1.625" height="12.063" style="fill:rgb(44,45,48);fill-rule:nonzero;"/>
            <path id="path1124" d="M22.018,252.984L22.018,254.445C21.601,254.242 21.252,254.141 20.971,254.141C20.586,254.141 20.255,254.237 19.979,254.43C19.703,254.617 19.474,254.909 19.291,255.305C19.114,255.7 18.981,256.203 18.893,256.812C18.809,257.417 18.768,258.133 18.768,258.961C18.768,261.94 19.531,263.43 21.057,263.43C21.322,263.43 21.643,263.346 22.018,263.18L22.018,264.672C21.627,264.891 21.19,265 20.705,265C18.263,265 17.041,263.005 17.041,259.016C17.041,256.859 17.338,255.255 17.932,254.203C18.531,253.151 19.445,252.625 20.674,252.625C21.127,252.625 21.575,252.745 22.018,252.984L22.018,252.984Z" style="fill:rgb(44,45,48);fill-rule:nonzero;"/>
            <path id="path1126" d="M23.377,252.789L27.697,252.789L27.697,254.164L25.002,254.164L25.002,257.984L27.393,257.984L27.393,259.359L25.002,259.359L25.002,263.477L27.697,263.477L27.697,264.852L23.377,264.852L23.377,252.789Z" style="fill:rgb(44,45,48);fill-rule:nonzero;"/>
            <path id="path1128" d="M33.213,253.039L33.213,254.625C32.718,254.271 32.273,254.094 31.877,254.094C31.45,254.094 31.101,254.245 30.83,254.547C30.559,254.833 30.424,255.216 30.424,255.695C30.424,256.117 30.52,256.479 30.713,256.781C30.812,256.943 30.974,257.151 31.197,257.406C31.427,257.661 31.721,257.969 32.08,258.328C32.742,259 33.192,259.581 33.432,260.07C33.671,260.544 33.791,261.125 33.791,261.812C33.791,262.745 33.528,263.513 33.002,264.117C32.476,264.706 31.802,265 30.979,265C30.286,265 29.695,264.81 29.205,264.43L29.205,262.82C29.783,263.242 30.309,263.453 30.783,263.453C31.226,263.453 31.572,263.307 31.822,263.016C32.072,262.719 32.197,262.318 32.197,261.812C32.197,261.375 32.101,260.982 31.908,260.633C31.809,260.466 31.671,260.276 31.494,260.062C31.317,259.844 31.096,259.602 30.83,259.336C30.419,258.93 30.078,258.57 29.807,258.258C29.536,257.945 29.336,257.672 29.205,257.437C28.955,256.979 28.83,256.401 28.83,255.703C28.83,254.76 29.075,254.013 29.565,253.461C30.059,252.904 30.724,252.625 31.557,252.625C32.135,252.625 32.687,252.763 33.213,253.039Z" style="fill:rgb(44,45,48);fill-rule:nonzero;"/>
        </g>
        <g id="text1069" transform="matrix(1,0,0,1,-5.64844,-8)">
            <path id="path1110" d="M20.44,282.117C20.44,284.247 20.203,285.76 19.729,286.656C19.255,287.552 18.461,288 17.346,288C16.174,288 15.349,287.518 14.869,286.555C14.395,285.612 14.158,283.937 14.158,281.531C14.158,279.385 14.393,277.867 14.862,276.977C15.336,276.081 16.138,275.633 17.268,275.633C18.278,275.633 19.028,275.979 19.518,276.672C19.841,277.135 20.075,277.794 20.221,278.648C20.367,279.44 20.44,280.596 20.44,282.117L20.44,282.117ZM18.737,282.289C18.737,280.2 18.643,278.815 18.455,278.133C18.268,277.445 17.885,277.102 17.307,277.102C16.729,277.102 16.343,277.417 16.151,278.047C15.963,278.682 15.869,279.958 15.869,281.875C15.869,283.641 15.968,284.865 16.166,285.547C16.369,286.193 16.75,286.516 17.307,286.516C17.854,286.516 18.229,286.213 18.432,285.609C18.635,285.01 18.737,283.904 18.737,282.289L18.737,282.289Z" style="fill:rgb(44,45,48);fill-rule:nonzero;"/>
            <path id="path1112" d="M22.057,275.789L23.651,275.789L23.651,284.312C23.651,285.182 23.729,285.76 23.885,286.047C24.046,286.333 24.364,286.477 24.838,286.477C25.312,286.477 25.625,286.352 25.776,286.102C25.932,285.846 26.01,285.328 26.01,284.547L26.01,275.789L27.604,275.789L27.604,284.547C27.604,285.859 27.403,286.747 27.002,287.211C26.523,287.737 25.791,288 24.807,288C23.724,288 22.961,287.661 22.518,286.984C22.211,286.521 22.057,285.63 22.057,284.312L22.057,275.789Z" style="fill:rgb(44,45,48);fill-rule:nonzero;"/>
            <path id="path1114" d="M28.502,275.789L33.791,275.789L33.791,277.211L31.971,277.211L31.971,287.852L30.377,287.852L30.377,277.211L28.502,277.211L28.502,275.789Z" style="fill:rgb(44,45,48);fill-rule:nonzero;"/>
        </g>
        <g id="text1073" transform="matrix(1,0,0,1,-5.64844,-8)">
            <rect id="path1105" x="24.666" y="303.938" width="1.625" height="12.062" style="fill:rgb(158,161,168);fill-rule:nonzero;"/>
            <path id="path1107" d="M28.166,303.938L29.682,303.938L31.299,308.75C31.768,310.109 32.182,311.56 32.541,313.102C32.411,312.169 32.315,311.326 32.252,310.57C32.19,309.815 32.158,309.104 32.158,308.438L32.158,303.938L33.791,303.938L33.791,316L32.268,316L30.447,310.57C30.281,310.065 30.122,309.547 29.971,309.016C29.825,308.484 29.69,307.927 29.565,307.344C29.554,307.271 29.536,307.182 29.51,307.078C29.489,306.974 29.463,306.854 29.432,306.719C29.447,306.854 29.461,306.971 29.471,307.07C29.481,307.164 29.489,307.245 29.494,307.312L29.58,308.539L29.666,310.031C29.671,310.115 29.674,310.216 29.674,310.336C29.679,310.456 29.682,310.591 29.682,310.742L29.768,316L28.166,316L28.166,303.938Z" style="fill:rgb(158,161,168);fill-rule:nonzero;"/>
        </g>
        <g id="text1077" transform="matrix(0.821525,0,0,1,0.382434,-8)">
            <path id="path1092" d="M6.526,327.039L6.526,328.625C6.031,328.271 5.586,328.094 5.19,328.094C4.763,328.094 4.414,328.245 4.143,328.547C3.872,328.833 3.737,329.216 3.737,329.695C3.737,330.117 3.833,330.479 4.026,330.781C4.125,330.943 4.286,331.151 4.51,331.406C4.739,331.661 5.033,331.969 5.393,332.328C6.054,333 6.505,333.581 6.744,334.07C6.984,334.544 7.104,335.125 7.104,335.813C7.104,336.745 6.841,337.513 6.315,338.117C5.789,338.706 5.114,339 4.291,339C3.599,339 3.007,338.81 2.518,338.43L2.518,336.82C3.096,337.242 3.622,337.453 4.096,337.453C4.539,337.453 4.885,337.307 5.135,337.016C5.385,336.719 5.51,336.318 5.51,335.813C5.51,335.375 5.414,334.982 5.221,334.633C5.122,334.466 4.984,334.276 4.807,334.063C4.63,333.844 4.408,333.602 4.143,333.336C3.731,332.93 3.39,332.57 3.119,332.258C2.849,331.945 2.648,331.672 2.518,331.438C2.268,330.979 2.143,330.401 2.143,329.703C2.143,328.76 2.388,328.013 2.877,327.461C3.372,326.904 4.036,326.625 4.869,326.625C5.447,326.625 6,326.763 6.526,327.039Z" style="fill:rgb(158,161,168);fill-rule:nonzero;"/>
            <path id="path1094" d="M8.471,326.789L10.096,326.789L10.096,337.477L12.752,337.477L12.752,338.852L8.471,338.852L8.471,326.789Z" style="fill:rgb(158,161,168);fill-rule:nonzero;"/>
            <rect id="path1096" x="13.783" y="326.789" width="1.625" height="12.063" style="fill:rgb(158,161,168);fill-rule:nonzero;"/>
            <path id="path1098" d="M22.018,326.984L22.018,328.445C21.601,328.242 21.252,328.141 20.971,328.141C20.586,328.141 20.255,328.237 19.979,328.43C19.703,328.617 19.474,328.909 19.291,329.305C19.114,329.701 18.981,330.203 18.893,330.812C18.809,331.417 18.768,332.133 18.768,332.961C18.768,335.94 19.531,337.43 21.057,337.43C21.322,337.43 21.643,337.346 22.018,337.18L22.018,338.672C21.627,338.891 21.19,339 20.705,339C18.263,339 17.041,337.005 17.041,333.016C17.041,330.859 17.338,329.255 17.932,328.203C18.531,327.151 19.445,326.625 20.674,326.625C21.127,326.625 21.575,326.745 22.018,326.984L22.018,326.984Z" style="fill:rgb(158,161,168);fill-rule:nonzero;"/>
            <path id="path1100" d="M23.377,326.789L27.697,326.789L27.697,328.164L25.002,328.164L25.002,331.984L27.393,331.984L27.393,333.359L25.002,333.359L25.002,337.477L27.697,337.477L27.697,338.852L23.377,338.852L23.377,326.789Z" style="fill:rgb(158,161,168);fill-rule:nonzero;"/>
            <path id="path1102" d="M33.213,327.039L33.213,328.625C32.718,328.271 32.273,328.094 31.877,328.094C31.45,328.094 31.101,328.245 30.83,328.547C30.559,328.833 30.424,329.216 30.424,329.695C30.424,330.117 30.52,330.479 30.713,330.781C30.812,330.943 30.974,331.151 31.197,331.406C31.427,331.661 31.721,331.969 32.08,332.328C32.742,333 33.192,333.581 33.432,334.07C33.671,334.544 33.791,335.125 33.791,335.813C33.791,336.745 33.528,337.513 33.002,338.117C32.476,338.706 31.802,339 30.979,339C30.286,339 29.695,338.81 29.205,338.43L29.205,336.82C29.783,337.242 30.309,337.453 30.783,337.453C31.226,337.453 31.572,337.307 31.822,337.016C32.072,336.719 32.197,336.318 32.197,335.813C32.197,335.375 32.101,334.982 31.908,334.633C31.809,334.466 31.671,334.276 31.494,334.063C31.317,333.844 31.096,333.602 30.83,333.336C30.419,332.93 30.078,332.57 29.807,332.258C29.536,331.945 29.336,331.672 29.205,331.438C28.955,330.979 28.83,330.401 28.83,329.703C28.83,328.76 29.075,328.013 29.565,327.461C30.059,326.904 30.724,326.625 31.557,326.625C32.135,326.625 32.687,326.763 33.213,327.039Z" style="fill:rgb(158,161,168);fill-rule:nonzero;"/>
        </g>
        <g id="text1081" transform="matrix(1,0,0,1,-5.64844,-8)">
            <path id="path1084" d="M20.44,356.117C20.44,358.247 20.203,359.76 19.729,360.656C19.255,361.552 18.461,362 17.346,362C16.174,362 15.349,361.518 14.869,360.555C14.395,359.612 14.158,357.938 14.158,355.531C14.158,353.385 14.393,351.867 14.862,350.977C15.336,350.081 16.138,349.633 17.268,349.633C18.278,349.633 19.028,349.979 19.518,350.672C19.841,351.135 20.075,351.794 20.221,352.648C20.367,353.44 20.44,354.596 20.44,356.117L20.44,356.117ZM18.737,356.289C18.737,354.201 18.643,352.815 18.455,352.133C18.268,351.445 17.885,351.102 17.307,351.102C16.729,351.102 16.343,351.417 16.151,352.047C15.963,352.682 15.869,353.958 15.869,355.875C15.869,357.641 15.968,358.865 16.166,359.547C16.369,360.193 16.75,360.516 17.307,360.516C17.854,360.516 18.229,360.214 18.432,359.609C18.635,359.01 18.737,357.904 18.737,356.289L18.737,356.289Z" style="fill:rgb(158,161,168);fill-rule:nonzero;"/>
            <path id="path1087" d="M22.057,349.789L23.651,349.789L23.651,358.313C23.651,359.182 23.729,359.76 23.885,360.047C24.046,360.333 24.364,360.477 24.838,360.477C25.312,360.477 25.625,360.352 25.776,360.102C25.932,359.846 26.01,359.328 26.01,358.547L26.01,349.789L27.604,349.789L27.604,358.547C27.604,359.859 27.403,360.747 27.002,361.211C26.523,361.737 25.791,362 24.807,362C23.724,362 22.961,361.661 22.518,360.984C22.211,360.521 22.057,359.63 22.057,358.313L22.057,349.789Z" style="fill:rgb(158,161,168);fill-rule:nonzero;"/>
            <path id="path1089" d="M28.502,349.789L33.791,349.789L33.791,351.211L31.971,351.211L31.971,361.852L30.377,361.852L30.377,351.211L28.502,351.211L28.502,349.789Z" style="fill:rgb(158,161,168);fill-rule:nonzero;"/>
        </g>
    </g>
</svg>
