<?xml version="1.0" encoding="UTF-8" standalone="no"?>
<!DOCTYPE svg PUBLIC "-//W3C//DTD SVG 1.1//EN" "http://www.w3.org/Graphics/SVG/1.1/DTD/svg11.dtd">
<svg width="100%" height="100%" viewBox="0 0 45 380" version="1.1" xmlns="http://www.w3.org/2000/svg" xmlns:xlink="http://www.w3.org/1999/xlink" xml:space="preserve" xmlns:serif="http://www.serif.com/" style="fill-rule:evenodd;clip-rule:evenodd;stroke-linejoin:round;stroke-miterlimit:2;">
    <g id="Layer-2" serif:id="Layer 2">
        <g id="text989">
        </g>
        <rect id="rect4689" x="0" y="0" width="45" height="380" style="fill:rgb(44,45,48);fill-rule:nonzero;"/>
        <g id="text4987">
        </g>
        <g id="text1042">
        </g>
        <g id="text2090">
        </g>
        <g id="text869" transform="matrix(0.742447,0,0,1.25291,1.56977,0.000269778)">
            <path id="path871" d="M9.24,14.17L5.96,14.17L4.461,10.169C4.447,10.101 4.42,10.011 4.381,9.9C4.347,9.788 4.303,9.655 4.25,9.5L4.272,10.242L4.272,14.17L1.253,14.17L1.253,2.938L4.359,2.938C5.727,2.938 6.75,3.207 7.429,3.745C8.292,4.434 8.724,5.414 8.724,6.684C8.724,8.042 8.144,8.981 6.985,9.5L9.24,14.17ZM4.286,8.139L4.49,8.139C4.839,8.139 5.13,8.006 5.363,7.739C5.596,7.472 5.712,7.133 5.712,6.721C5.712,5.882 5.273,5.462 4.396,5.462L4.286,5.462L4.286,8.139Z" style="fill:rgb(158,161,168);fill-rule:nonzero;"/>
            <path id="path873" d="M18.334,14.17L15.198,14.17L14.973,12.744L12.929,12.744L12.681,14.17L9.546,14.17L12.245,2.938L15.955,2.938L18.334,14.17ZM14.616,10.336L14.42,9.027C14.415,9.022 14.405,8.956 14.391,8.83C14.381,8.724 14.33,8.302 14.238,7.565C14.228,7.482 14.216,7.371 14.202,7.23C14.187,7.084 14.168,6.903 14.144,6.684L14.049,5.622C14.039,5.724 14.025,5.838 14.005,5.964C13.991,6.09 13.974,6.228 13.954,6.379C13.92,6.679 13.896,6.888 13.882,7.004C13.867,7.121 13.857,7.191 13.853,7.215L13.642,8.576L13.336,10.336L14.616,10.336Z" style="fill:rgb(158,161,168);fill-rule:nonzero;"/>
            <path id="path875" d="M23.128,14.17L20.094,14.17L20.094,5.63L18.421,5.63L18.421,2.938L24.866,2.938L24.866,5.63L23.128,5.63L23.128,14.17Z" style="fill:rgb(158,161,168);fill-rule:nonzero;"/>
            <path id="path877" d="M32.01,10.714L31.835,13.959C31.161,14.231 30.558,14.366 30.024,14.366C28.768,14.366 27.711,13.906 26.852,12.984C25.892,11.951 25.412,10.489 25.412,8.598C25.412,6.827 25.863,5.406 26.765,4.335C27.667,3.268 28.872,2.734 30.381,2.734C30.87,2.734 31.37,2.826 31.879,3.011L31.879,6.219C31.428,5.768 30.965,5.542 30.49,5.542C29.869,5.542 29.384,5.807 29.035,6.335C28.686,6.869 28.511,7.606 28.511,8.547C28.511,9.003 28.555,9.41 28.642,9.769C28.729,10.128 28.853,10.431 29.013,10.678C29.178,10.925 29.379,11.115 29.617,11.246C29.854,11.376 30.126,11.442 30.431,11.442C30.955,11.442 31.481,11.199 32.01,10.714Z" style="fill:rgb(158,161,168);fill-rule:nonzero;"/>
            <path id="path879" d="M40.98,14.17L37.946,14.17L37.946,9.652L36.498,9.652L36.498,14.17L33.465,14.17L33.465,2.938L36.498,2.938L36.498,6.91L37.946,6.91L37.946,2.938L40.98,2.938L40.98,14.17Z" style="fill:rgb(158,161,168);fill-rule:nonzero;"/>
            <path id="path881" d="M42.544,14.17L42.544,2.938L48.182,2.938L48.182,5.579L45.577,5.579L45.577,7.215L47.912,7.215L47.912,9.754L45.577,9.754L45.577,11.471L48.182,11.471L48.182,14.17L42.544,14.17Z" style="fill:rgb(158,161,168);fill-rule:nonzero;"/>
            <path id="path883" d="M53.39,14.17L50.357,14.17L50.357,5.63L48.684,5.63L48.684,2.938L55.129,2.938L55.129,5.63L53.39,5.63L53.39,14.17Z" style="fill:rgb(158,161,168);fill-rule:nonzero;"/>
        </g>
        <g id="text888" transform="matrix(0.964085,0,0,1.03725,0,2)">
            <rect id="path894" x="5.186" y="19.112" width="1.306" height="9.691" style="fill:rgb(158,161,168);fill-rule:nonzero;"/>
            <path id="path896" d="M7.998,19.112L9.216,19.112L10.515,22.979C10.892,24.071 11.224,25.236 11.513,26.475C11.408,25.726 11.331,25.048 11.281,24.441C11.231,23.834 11.206,23.263 11.206,22.728L11.206,19.112L12.517,19.112L12.517,28.803L11.293,28.803L9.831,24.441C9.697,24.035 9.569,23.619 9.448,23.192C9.331,22.765 9.222,22.317 9.122,21.849C9.113,21.79 9.099,21.719 9.078,21.635C9.061,21.552 9.04,21.456 9.015,21.347C9.028,21.456 9.038,21.55 9.046,21.629C9.055,21.704 9.061,21.769 9.065,21.824L9.134,22.809L9.203,24.008C9.207,24.075 9.21,24.157 9.21,24.253C9.214,24.349 9.216,24.458 9.216,24.579L9.285,28.803L7.998,28.803L7.998,19.112Z" style="fill:rgb(158,161,168);fill-rule:nonzero;"/>
            <path id="path898" d="M20.489,19.269L20.489,20.443C20.154,20.28 19.874,20.198 19.648,20.198C19.338,20.198 19.072,20.275 18.85,20.43C18.629,20.581 18.445,20.815 18.298,21.133C18.156,21.451 18.049,21.855 17.978,22.345C17.911,22.83 17.878,23.405 17.878,24.071C17.878,26.464 18.491,27.661 19.717,27.661C19.93,27.661 20.187,27.594 20.489,27.46L20.489,28.659C20.175,28.835 19.823,28.923 19.434,28.923C17.472,28.923 16.49,27.32 16.49,24.115C16.49,22.382 16.729,21.094 17.206,20.248C17.687,19.403 18.422,18.98 19.409,18.98C19.773,18.98 20.133,19.077 20.489,19.269L20.489,19.269Z" style="fill:rgb(158,161,168);fill-rule:nonzero;"/>
            <path id="path900" d="M21.581,19.112L22.886,19.112L22.886,27.699L25.02,27.699L25.02,28.803L21.581,28.803L21.581,19.112Z" style="fill:rgb(158,161,168);fill-rule:nonzero;"/>
            <path id="path902" d="M30.701,24.196C30.701,25.908 30.51,27.123 30.129,27.843C29.749,28.563 29.111,28.923 28.215,28.923C27.274,28.923 26.61,28.536 26.225,27.761C25.845,27.004 25.654,25.659 25.654,23.726C25.654,22.002 25.843,20.782 26.219,20.066C26.6,19.347 27.244,18.987 28.152,18.987C28.964,18.987 29.567,19.265 29.96,19.821C30.219,20.194 30.408,20.723 30.525,21.409C30.642,22.046 30.701,22.974 30.701,24.196L30.701,24.196ZM29.332,24.334C29.332,22.656 29.257,21.543 29.106,20.995C28.956,20.443 28.648,20.167 28.184,20.167C27.719,20.167 27.41,20.42 27.255,20.926C27.104,21.437 27.029,22.462 27.029,24.002C27.029,25.42 27.108,26.404 27.267,26.952C27.431,27.471 27.736,27.73 28.184,27.73C28.623,27.73 28.924,27.487 29.088,27.002C29.251,26.521 29.332,25.632 29.332,24.334L29.332,24.334Z" style="fill:rgb(158,161,168);fill-rule:nonzero;"/>
            <path id="path904" d="M35.804,19.269L35.804,20.443C35.469,20.28 35.188,20.198 34.962,20.198C34.653,20.198 34.387,20.275 34.165,20.43C33.944,20.581 33.759,20.815 33.613,21.133C33.471,21.451 33.364,21.855 33.293,22.345C33.226,22.83 33.192,23.405 33.192,24.071C33.192,26.464 33.805,27.661 35.031,27.661C35.245,27.661 35.502,27.594 35.804,27.46L35.804,28.659C35.49,28.835 35.138,28.923 34.749,28.923C32.787,28.923 31.805,27.32 31.805,24.115C31.805,22.382 32.044,21.094 32.521,20.248C33.002,19.403 33.736,18.98 34.724,18.98C35.088,18.98 35.448,19.077 35.804,19.269L35.804,19.269Z" style="fill:rgb(158,161,168);fill-rule:nonzero;"/>
            <path id="path906" d="M36.896,19.112L38.201,19.112L38.201,23.807L40.021,19.112L41.339,19.112L39.431,23.807L41.49,28.803L40.021,28.803L38.201,23.807L38.201,28.803L36.896,28.803L36.896,19.112Z" style="fill:rgb(158,161,168);fill-rule:nonzero;"/>
        </g>
        <g id="text928" transform="matrix(0.913478,0,0,1.09472,0,0)">
            <path id="path949" d="M2.737,61.042L6.763,61.042L6.763,62.125L5.377,62.125L5.377,70.225L4.164,70.225L4.164,62.125L2.737,62.125L2.737,61.042Z" style="fill:rgb(158,161,168);fill-rule:nonzero;"/>
            <path id="path951" d="M8.583,61.042L9.546,61.042L11.515,70.225L10.29,70.225L9.945,68.435L8.125,68.435L7.774,70.225L6.585,70.225L8.583,61.042ZM9.766,67.477L9.493,66.014C9.31,65.019 9.162,63.957 9.047,62.827C8.991,63.378 8.92,63.937 8.833,64.504C8.745,65.067 8.642,65.665 8.523,66.3L8.297,67.477L9.766,67.477Z" style="fill:rgb(158,161,168);fill-rule:nonzero;"/>
            <path id="path953" d="M12.246,61.042L13.876,61.042C14.661,61.042 15.232,61.241 15.589,61.637C15.945,62.038 16.124,62.672 16.124,63.54C16.124,64.761 15.765,65.55 15.047,65.907C14.687,66.07 14.165,66.151 13.483,66.151L13.483,70.225L12.246,70.225L12.246,61.042ZM13.483,65.092C13.995,65.092 14.348,64.989 14.542,64.783C14.74,64.573 14.839,64.2 14.839,63.665C14.839,63.118 14.744,62.718 14.554,62.464C14.363,62.21 14.064,62.083 13.656,62.083L13.483,62.083L13.483,65.092Z" style="fill:rgb(158,161,168);fill-rule:nonzero;"/>
            <path id="path955" d="M18.865,61.042L22.892,61.042L22.892,62.125L21.506,62.125L21.506,70.225L20.293,70.225L20.293,62.125L18.865,62.125L18.865,61.042Z" style="fill:rgb(158,161,168);fill-rule:nonzero;"/>
            <path id="path957" d="M23.57,61.042L25.199,61.042C25.873,61.042 26.375,61.203 26.704,61.524C27.12,61.94 27.328,62.577 27.328,63.433C27.328,64.091 27.217,64.621 26.995,65.021C26.777,65.418 26.464,65.663 26.055,65.759L27.744,70.225L26.49,70.225L24.807,65.729L24.807,70.225L23.57,70.225L23.57,61.042ZM24.807,65.11C25.286,65.11 25.625,64.999 25.824,64.777C26.022,64.555 26.121,64.181 26.121,63.653C26.121,63.368 26.099,63.124 26.055,62.922C26.016,62.72 25.95,62.555 25.859,62.428C25.772,62.301 25.657,62.208 25.514,62.149C25.376,62.089 25.209,62.059 25.015,62.059L24.807,62.059L24.807,65.11Z" style="fill:rgb(158,161,168);fill-rule:nonzero;"/>
            <rect id="path959" x="28.708" y="61.042" width="1.237" height="9.182" style="fill:rgb(158,161,168);fill-rule:nonzero;"/>
            <path id="path961" d="M33.573,65.396L35.821,65.396L35.821,65.753C35.821,67.541 35.664,68.748 35.351,69.374C35.042,70.017 34.463,70.338 33.614,70.338C32.738,70.338 32.114,69.981 31.741,69.267C31.372,68.554 31.188,67.354 31.188,65.669C31.188,63.742 31.39,62.46 31.794,61.822C32.175,61.223 32.76,60.924 33.549,60.924C34.151,60.924 34.621,61.068 34.958,61.358C35.299,61.651 35.565,62.133 35.755,62.803L34.601,63.285C34.55,63.043 34.492,62.84 34.429,62.678C34.366,62.511 34.296,62.383 34.221,62.291C34.07,62.105 33.844,62.012 33.543,62.012C33.131,62.012 32.849,62.266 32.698,62.773C32.548,63.304 32.472,64.258 32.472,65.634C32.472,67.025 32.55,67.967 32.704,68.459C32.859,68.95 33.15,69.196 33.579,69.196C33.971,69.196 34.247,69.022 34.405,68.673C34.568,68.3 34.649,67.701 34.649,66.877L34.649,66.627L34.649,66.442L33.573,66.442L33.573,65.396Z" style="fill:rgb(158,161,168);fill-rule:nonzero;"/>
            <rect id="path963" x="39.579" y="61.042" width="1.237" height="9.182" style="fill:rgb(158,161,168);fill-rule:nonzero;"/>
            <path id="path965" d="M42.244,61.042L43.397,61.042L44.628,64.706C44.985,65.741 45.3,66.845 45.574,68.018C45.475,67.309 45.401,66.666 45.354,66.092C45.306,65.517 45.283,64.975 45.283,64.468L45.283,61.042L46.525,61.042L46.525,70.225L45.366,70.225L43.98,66.092C43.853,65.707 43.732,65.313 43.617,64.908C43.506,64.504 43.403,64.079 43.308,63.635C43.3,63.58 43.286,63.512 43.266,63.433C43.251,63.354 43.231,63.263 43.207,63.16C43.219,63.263 43.229,63.352 43.237,63.427C43.245,63.499 43.251,63.56 43.255,63.612L43.32,64.545L43.385,65.681C43.389,65.745 43.391,65.822 43.391,65.913C43.396,66.004 43.398,66.107 43.398,66.222L43.463,70.225L42.244,70.225L42.244,61.042Z" style="fill:rgb(158,161,168);fill-rule:nonzero;"/>
        </g>
        <g id="text970" transform="matrix(0.815363,0,0,1.03725,137.209,31.8763)">
            <path id="path972" d="M-165.214,105.999L-163.494,105.999C-162.782,105.999 -162.253,106.169 -161.906,106.508C-161.466,106.947 -161.247,107.619 -161.247,108.522C-161.247,109.217 -161.364,109.776 -161.598,110.198C-161.828,110.617 -162.159,110.876 -162.59,110.977L-160.807,115.69L-162.132,115.69L-163.908,110.945L-163.908,115.69L-165.214,115.69L-165.214,105.999ZM-163.908,110.292C-163.402,110.292 -163.044,110.175 -162.835,109.941C-162.625,109.707 -162.521,109.311 -162.521,108.755C-162.521,108.453 -162.544,108.196 -162.59,107.983C-162.632,107.769 -162.701,107.596 -162.797,107.462C-162.889,107.328 -163.01,107.229 -163.161,107.167C-163.308,107.104 -163.483,107.072 -163.688,107.072L-163.908,107.072L-163.908,110.292Z" style="fill:rgb(158,161,168);fill-rule:nonzero;"/>
            <path id="path974" d="M-159.791,105.999L-158.573,105.999L-157.274,109.866C-156.897,110.958 -156.564,112.123 -156.276,113.362C-156.38,112.613 -156.458,111.935 -156.508,111.328C-156.558,110.721 -156.583,110.15 -156.583,109.614L-156.583,105.999L-155.271,105.999L-155.271,115.69L-156.495,115.69L-157.958,111.328C-158.092,110.922 -158.219,110.506 -158.341,110.079C-158.458,109.652 -158.567,109.204 -158.667,108.736C-158.675,108.677 -158.69,108.606 -158.711,108.522C-158.728,108.439 -158.749,108.342 -158.774,108.234C-158.761,108.342 -158.751,108.437 -158.742,108.516C-158.734,108.591 -158.728,108.656 -158.723,108.711L-158.654,109.696L-158.585,110.895C-158.581,110.962 -158.579,111.043 -158.579,111.14C-158.575,111.236 -158.573,111.345 -158.573,111.466L-158.503,115.69L-159.79,115.69L-159.791,105.999Z" style="fill:rgb(158,161,168);fill-rule:nonzero;"/>
            <path id="path976" d="M-153.765,105.999L-152.158,105.999C-151.669,105.999 -151.256,106.054 -150.922,106.162C-150.612,106.267 -150.336,106.453 -150.093,106.721C-149.729,107.123 -149.47,107.646 -149.315,108.29C-149.16,108.914 -149.083,109.807 -149.083,110.97C-149.083,112.037 -149.168,112.908 -149.34,113.581C-149.507,114.226 -149.784,114.717 -150.168,115.056C-150.641,115.479 -151.489,115.69 -152.711,115.69L-153.765,115.69L-153.765,105.999ZM-152.459,114.548C-151.664,114.548 -151.133,114.307 -150.865,113.826C-150.589,113.345 -150.451,112.41 -150.451,111.02C-150.451,109.527 -150.583,108.499 -150.846,107.939C-151.11,107.378 -151.593,107.098 -152.296,107.098L-152.459,107.098L-152.459,114.548Z" style="fill:rgb(158,161,168);fill-rule:nonzero;"/>
            <path id="path978" d="M-140.277,111.083C-140.277,112.795 -140.467,114.01 -140.848,114.73C-141.229,115.45 -141.867,115.809 -142.762,115.809C-143.704,115.809 -144.367,115.422 -144.752,114.648C-145.133,113.891 -145.323,112.546 -145.323,110.612C-145.323,108.888 -145.135,107.669 -144.758,106.953C-144.377,106.233 -143.733,105.874 -142.825,105.874C-142.013,105.874 -141.411,106.152 -141.017,106.708C-140.758,107.081 -140.569,107.61 -140.452,108.296C-140.335,108.932 -140.277,109.861 -140.277,111.083L-140.277,111.083ZM-141.645,111.221C-141.645,109.543 -141.72,108.43 -141.871,107.882C-142.021,107.33 -142.329,107.054 -142.793,107.054C-143.258,107.054 -143.568,107.307 -143.722,107.813C-143.873,108.324 -143.948,109.349 -143.948,110.889C-143.948,112.307 -143.869,113.291 -143.71,113.839C-143.547,114.358 -143.241,114.617 -142.793,114.617C-142.354,114.617 -142.053,114.374 -141.89,113.889C-141.726,113.408 -141.645,112.518 -141.645,111.221L-141.645,111.221Z" style="fill:rgb(158,161,168);fill-rule:nonzero;"/>
            <path id="path980" d="M-138.977,105.999L-137.76,105.999L-136.46,109.866C-136.084,110.958 -135.751,112.123 -135.462,113.362C-135.567,112.613 -135.644,111.935 -135.695,111.328C-135.745,110.721 -135.77,110.15 -135.77,109.614L-135.77,105.999L-134.458,105.999L-134.458,115.69L-135.682,115.69L-137.145,111.328C-137.278,110.922 -137.406,110.506 -137.527,110.079C-137.645,109.652 -137.753,109.204 -137.854,108.736C-137.862,108.677 -137.877,108.606 -137.898,108.522C-137.914,108.439 -137.935,108.342 -137.961,108.234C-137.948,108.342 -137.937,108.437 -137.929,108.516C-137.921,108.591 -137.915,108.656 -137.91,108.711L-137.841,109.696L-137.772,110.895C-137.768,110.962 -137.766,111.043 -137.766,111.14C-137.761,111.236 -137.759,111.345 -137.759,111.466L-137.69,115.69L-138.977,115.69L-138.977,105.999Z" style="fill:rgb(158,161,168);fill-rule:nonzero;"/>
            <path id="path982" d="M-125.439,111.083C-125.439,112.795 -125.629,114.01 -126.01,114.73C-126.391,115.45 -127.029,115.809 -127.924,115.809C-128.866,115.809 -129.529,115.422 -129.914,114.648C-130.295,113.891 -130.485,112.546 -130.485,110.612C-130.485,108.888 -130.297,107.669 -129.92,106.953C-129.539,106.233 -128.895,105.874 -127.987,105.874C-127.175,105.874 -126.573,106.152 -126.179,106.708C-125.92,107.081 -125.732,107.61 -125.614,108.296C-125.497,108.932 -125.439,109.861 -125.439,111.083L-125.439,111.083ZM-126.807,111.221C-126.807,109.543 -126.882,108.43 -127.033,107.882C-127.184,107.33 -127.491,107.054 -127.956,107.054C-128.42,107.054 -128.73,107.307 -128.885,107.813C-129.035,108.324 -129.11,109.349 -129.11,110.889C-129.11,112.307 -129.031,113.291 -128.872,113.839C-128.709,114.358 -128.403,114.617 -127.956,114.617C-127.516,114.617 -127.215,114.374 -127.052,113.889C-126.889,113.408 -126.807,112.518 -126.807,111.221L-126.807,111.221Z" style="fill:rgb(158,161,168);fill-rule:nonzero;"/>
            <path id="path984" d="M-124.139,105.999L-120.65,105.999L-120.65,107.104L-122.834,107.104L-122.834,110.167L-120.863,110.167L-120.863,111.272L-122.834,111.272L-122.834,115.69L-124.139,115.69L-124.139,105.999Z" style="fill:rgb(158,161,168);fill-rule:nonzero;"/>
            <path id="path986" d="M-119.645,105.999L-116.156,105.999L-116.156,107.104L-118.34,107.104L-118.34,110.167L-116.369,110.167L-116.369,111.272L-118.34,111.272L-118.34,115.69L-119.645,115.69L-119.645,105.999Z" style="fill:rgb(158,161,168);fill-rule:nonzero;"/>
        </g>
        <g id="text991" transform="matrix(0.866449,0,0,1.15414,0,0)">
            <path id="path993" d="M2.885,161.874L4.431,161.874C5.176,161.874 5.717,162.062 6.056,162.438C6.394,162.817 6.563,163.419 6.563,164.243C6.563,165.401 6.223,166.149 5.542,166.488C5.2,166.642 4.705,166.719 4.059,166.719L4.059,170.583L2.885,170.583L2.885,161.874ZM4.059,165.715C4.544,165.715 4.878,165.617 5.063,165.422C5.251,165.222 5.345,164.869 5.345,164.361C5.345,163.842 5.255,163.462 5.074,163.222C4.894,162.981 4.61,162.861 4.222,162.861L4.059,162.861L4.059,165.715Z" style="fill:rgb(158,161,168);fill-rule:nonzero;"/>
            <path id="path995" d="M7.466,161.874L9.011,161.874C9.651,161.874 10.126,162.026 10.439,162.33C10.833,162.725 11.031,163.329 11.031,164.141C11.031,164.765 10.926,165.268 10.715,165.647C10.508,166.023 10.211,166.257 9.824,166.347L11.426,170.583L10.235,170.583L8.639,166.319L8.639,170.583L7.466,170.583L7.466,161.874ZM8.639,165.732C9.094,165.732 9.416,165.627 9.604,165.416C9.792,165.205 9.886,164.85 9.886,164.35C9.886,164.079 9.865,163.848 9.824,163.656C9.786,163.464 9.724,163.308 9.638,163.188C9.555,163.068 9.446,162.979 9.31,162.923C9.179,162.866 9.021,162.838 8.837,162.838L8.639,162.838L8.639,165.732Z" style="fill:rgb(158,161,168);fill-rule:nonzero;"/>
            <path id="path997" d="M16.61,166.443C16.61,167.981 16.439,169.073 16.096,169.72C15.754,170.367 15.181,170.69 14.376,170.69C13.53,170.69 12.934,170.343 12.588,169.647C12.246,168.966 12.074,167.757 12.074,166.02C12.074,164.47 12.244,163.374 12.582,162.731C12.924,162.084 13.503,161.761 14.32,161.761C15.049,161.761 15.591,162.011 15.944,162.511C16.177,162.846 16.347,163.321 16.452,163.938C16.557,164.51 16.61,165.345 16.61,166.443L16.61,166.443ZM15.38,166.567C15.38,165.059 15.312,164.058 15.177,163.566C15.042,163.069 14.765,162.821 14.348,162.821C13.93,162.821 13.652,163.049 13.513,163.504C13.377,163.963 13.31,164.884 13.31,166.268C13.31,167.543 13.381,168.426 13.524,168.919C13.671,169.385 13.945,169.619 14.348,169.619C14.743,169.619 15.013,169.4 15.16,168.964C15.307,168.532 15.38,167.733 15.38,166.567L15.38,166.567Z" style="fill:rgb(158,161,168);fill-rule:nonzero;"/>
            <path id="path999" d="M17.777,161.874L19.368,161.874C20.613,161.874 21.235,162.646 21.235,164.192C21.235,164.782 21.154,165.221 20.993,165.506C20.831,165.792 20.545,166.008 20.135,166.155C20.605,166.343 20.927,166.584 21.1,166.877C21.277,167.167 21.365,167.603 21.365,168.186C21.365,169.784 20.681,170.583 19.312,170.583L17.777,170.583L17.777,161.874ZM18.883,165.709C19.338,165.709 19.654,165.604 19.831,165.394C20.007,165.172 20.096,164.782 20.096,164.226C20.096,163.286 19.757,162.816 19.08,162.816L18.99,162.816L18.939,162.816C18.909,162.816 18.891,162.817 18.883,162.821L18.883,165.709ZM18.883,169.579C19.364,169.579 19.697,169.476 19.881,169.269C20.066,169.062 20.158,168.688 20.158,168.146C20.158,167.59 20.062,167.2 19.87,166.979C19.682,166.753 19.353,166.64 18.883,166.64L18.883,169.579Z" style="fill:rgb(158,161,168);fill-rule:nonzero;"/>
            <path id="path1001" d="M23.825,161.874L24.738,161.874L26.606,170.583L25.443,170.583L25.116,168.885L23.39,168.885L23.057,170.583L21.929,170.583L23.825,161.874ZM24.947,167.977L24.688,166.589C24.515,165.645 24.374,164.638 24.265,163.566C24.212,164.089 24.144,164.619 24.061,165.157C23.979,165.691 23.881,166.258 23.768,166.86L23.554,167.977L24.947,167.977Z" style="fill:rgb(158,161,168);fill-rule:nonzero;"/>
            <path id="path1003" d="M27.299,161.874L28.89,161.874C30.135,161.874 30.757,162.646 30.757,164.192C30.757,164.782 30.676,165.221 30.515,165.506C30.353,165.792 30.067,166.008 29.657,166.155C30.127,166.343 30.449,166.584 30.622,166.877C30.799,167.167 30.887,167.603 30.887,168.186C30.887,169.784 30.203,170.583 28.834,170.583L27.299,170.583L27.299,161.874ZM28.405,165.709C28.86,165.709 29.176,165.604 29.353,165.394C29.529,165.172 29.618,164.782 29.618,164.226C29.618,163.286 29.279,162.816 28.602,162.816L28.512,162.816L28.461,162.816C28.431,162.816 28.412,162.817 28.405,162.821L28.405,165.709ZM28.405,169.579C28.886,169.579 29.219,169.476 29.403,169.269C29.588,169.062 29.68,168.688 29.68,168.146C29.68,167.59 29.584,167.2 29.392,166.979C29.204,166.753 28.875,166.64 28.405,166.64L28.405,169.579Z" style="fill:rgb(158,161,168);fill-rule:nonzero;"/>
            <rect id="path1005" x="32.06" y="161.874" width="1.173" height="8.71" style="fill:rgb(158,161,168);fill-rule:nonzero;"/>
            <path id="path1007" d="M34.587,161.874L35.761,161.874L35.761,169.59L37.679,169.59L37.679,170.583L34.587,170.583L34.587,161.874Z" style="fill:rgb(158,161,168);fill-rule:nonzero;"/>
            <rect id="path1009" x="38.423" y="161.874" width="1.173" height="8.71" style="fill:rgb(158,161,168);fill-rule:nonzero;"/>
            <path id="path1011" d="M40.257,161.874L44.075,161.874L44.075,162.9L42.761,162.9L42.761,170.583L41.61,170.583L41.61,162.9L40.257,162.9L40.257,161.874Z" style="fill:rgb(158,161,168);fill-rule:nonzero;"/>
            <path id="path1013" d="M44.544,161.874L45.785,161.874L46.36,163.769C46.379,163.825 46.398,163.887 46.416,163.955C46.435,164.023 46.458,164.096 46.484,164.175C46.699,164.86 46.845,165.435 46.924,165.901C46.992,165.435 47.048,165.11 47.093,164.925L47.274,164.147L47.342,163.842L47.827,161.874L49.051,161.874L47.533,166.838L47.533,170.583L46.36,170.583L46.36,166.838L44.544,161.874Z" style="fill:rgb(158,161,168);fill-rule:nonzero;"/>
        </g>
        <g id="text1018" transform="matrix(0.795275,0,0,1.25743,0,0)">
            <path id="path1020" d="M1.257,184.364L2.676,184.364C3.263,184.364 3.7,184.504 3.986,184.783C4.348,185.146 4.53,185.7 4.53,186.445C4.53,187.018 4.433,187.479 4.24,187.828C4.05,188.173 3.777,188.387 3.422,188.47L4.892,192.358L3.8,192.358L2.334,188.444L2.334,192.358L1.257,192.358L1.257,184.364ZM2.334,187.905C2.752,187.905 3.047,187.809 3.22,187.615C3.392,187.422 3.479,187.096 3.479,186.637C3.479,186.388 3.46,186.176 3.422,186C3.387,185.824 3.33,185.681 3.251,185.57C3.175,185.46 3.075,185.379 2.95,185.327C2.83,185.275 2.685,185.249 2.516,185.249L2.334,185.249L2.334,187.905Z" style="fill:rgb(158,161,168);fill-rule:nonzero;"/>
            <path id="path1022" d="M6.87,184.364L7.709,184.364L9.422,192.358L8.356,192.358L8.056,190.8L6.471,190.8L6.166,192.358L5.13,192.358L6.87,184.364ZM7.9,189.966L7.662,188.692C7.503,187.826 7.374,186.901 7.274,185.917C7.225,186.397 7.163,186.884 7.087,187.377C7.011,187.867 6.922,188.389 6.818,188.941L6.621,189.966L7.9,189.966Z" style="fill:rgb(158,161,168);fill-rule:nonzero;"/>
            <path id="path1024" d="M10.059,184.364L11.064,184.364L12.136,187.553C12.446,188.454 12.721,189.416 12.959,190.437C12.872,189.819 12.809,189.26 12.767,188.76C12.726,188.259 12.705,187.788 12.705,187.346L12.705,184.364L13.787,184.364L13.787,192.358L12.778,192.358L11.571,188.76C11.461,188.425 11.355,188.081 11.255,187.729C11.159,187.377 11.069,187.008 10.986,186.621C10.979,186.573 10.967,186.514 10.95,186.445C10.936,186.376 10.919,186.297 10.898,186.207C10.908,186.297 10.917,186.375 10.924,186.44C10.931,186.502 10.936,186.556 10.939,186.601L10.996,187.413L11.053,188.402C11.057,188.458 11.059,188.525 11.059,188.604C11.062,188.684 11.064,188.773 11.064,188.874L11.121,192.358L10.059,192.358L10.059,184.364Z" style="fill:rgb(158,161,168);fill-rule:nonzero;"/>
            <path id="path1026" d="M16.945,188.154L18.903,188.154L18.903,188.465C18.903,190.021 18.766,191.072 18.494,191.618C18.224,192.177 17.72,192.456 16.982,192.456C16.219,192.456 15.675,192.146 15.351,191.525C15.03,190.903 14.869,189.859 14.869,188.392C14.869,186.715 15.045,185.598 15.397,185.042C15.729,184.521 16.238,184.26 16.925,184.26C17.449,184.26 17.858,184.386 18.152,184.638C18.449,184.894 18.68,185.313 18.846,185.896L17.841,186.316C17.796,186.105 17.746,185.929 17.691,185.788C17.636,185.643 17.575,185.531 17.51,185.451C17.379,185.289 17.182,185.208 16.92,185.208C16.561,185.208 16.316,185.429 16.184,185.871C16.053,186.333 15.988,187.163 15.988,188.361C15.988,189.573 16.055,190.392 16.19,190.82C16.324,191.248 16.578,191.462 16.951,191.462C17.292,191.462 17.532,191.31 17.67,191.007C17.812,190.682 17.883,190.161 17.883,189.443L17.883,189.226L17.883,189.065L16.945,189.065L16.945,188.154Z" style="fill:rgb(158,161,168);fill-rule:nonzero;"/>
            <path id="path1028" d="M19.98,184.364L22.843,184.364L22.843,185.275L21.056,185.275L21.056,187.807L22.641,187.807L22.641,188.718L21.056,188.718L21.056,191.447L22.843,191.447L22.843,192.358L19.98,192.358L19.98,184.364Z" style="fill:rgb(158,161,168);fill-rule:nonzero;"/>
            <path id="path1030" d="M26.405,184.364L27.326,184.364L28.031,187.626C28.117,188.033 28.195,188.442 28.264,188.853C28.336,189.26 28.402,189.688 28.46,190.137C28.467,190.078 28.472,190.033 28.476,190.002C28.479,189.968 28.483,189.944 28.486,189.93L28.636,189.013L28.771,188.144L28.89,187.569L29.517,184.364L30.449,184.364L31.184,192.358L30.153,192.358L29.972,189.645C29.965,189.507 29.958,189.388 29.952,189.288C29.948,189.188 29.946,189.105 29.946,189.039L29.9,187.968L29.874,186.984C29.874,186.977 29.872,186.963 29.869,186.942C29.869,186.918 29.867,186.887 29.864,186.849L29.838,187.01C29.81,187.2 29.784,187.365 29.76,187.507C29.739,187.648 29.72,187.767 29.703,187.864L29.568,188.594L29.517,188.868L28.844,192.358L28.119,192.358L27.487,189.345C27.401,188.948 27.323,188.546 27.254,188.138C27.188,187.728 27.128,187.298 27.073,186.849L26.762,192.358L25.747,192.358L26.405,184.364Z" style="fill:rgb(158,161,168);fill-rule:nonzero;"/>
            <rect id="path1032" x="32.074" y="184.364" width="1.077" height="7.994" style="fill:rgb(158,161,168);fill-rule:nonzero;"/>
            <path id="path1034" d="M34.394,184.364L35.398,184.364L36.47,187.553C36.781,188.454 37.055,189.416 37.293,190.437C37.207,189.819 37.143,189.26 37.102,188.76C37.06,188.259 37.04,187.788 37.04,187.346L37.04,184.364L38.122,184.364L38.122,192.358L37.112,192.358L35.906,188.76C35.795,188.425 35.69,188.081 35.59,187.729C35.493,187.377 35.404,187.008 35.321,186.621C35.314,186.573 35.302,186.514 35.284,186.445C35.271,186.376 35.253,186.297 35.233,186.207C35.243,186.297 35.252,186.375 35.259,186.44C35.265,186.502 35.271,186.556 35.274,186.601L35.331,187.413L35.388,188.402C35.391,188.458 35.393,188.525 35.393,188.604C35.397,188.684 35.398,188.773 35.398,188.874L35.455,192.358L34.394,192.358L34.394,184.364Z" style="fill:rgb(158,161,168);fill-rule:nonzero;"/>
            <path id="path1036" d="M41.938,184.364L42.859,184.364L43.563,187.626C43.65,188.033 43.727,188.442 43.796,188.853C43.869,189.26 43.934,189.688 43.993,190.137C44,190.078 44.005,190.033 44.009,190.002C44.012,189.968 44.016,189.944 44.019,189.93L44.169,189.013L44.304,188.144L44.423,187.569L45.049,184.364L45.981,184.364L46.716,192.358L45.686,192.358L45.505,189.645C45.498,189.507 45.491,189.388 45.484,189.288C45.48,189.188 45.479,189.105 45.479,189.039L45.432,187.968L45.406,186.984C45.406,186.977 45.405,186.963 45.401,186.942C45.401,186.918 45.399,186.887 45.396,186.849L45.37,187.01C45.343,187.2 45.317,187.365 45.292,187.507C45.272,187.648 45.253,187.767 45.236,187.864L45.101,188.594L45.049,188.868L44.376,192.358L43.651,192.358L43.02,189.345C42.933,188.948 42.856,188.546 42.786,188.138C42.721,187.728 42.66,187.298 42.605,186.849L42.295,192.358L41.28,192.358L41.938,184.364Z" style="fill:rgb(158,161,168);fill-rule:nonzero;"/>
            <path id="path1038" d="M48.746,184.364L49.585,184.364L51.299,192.358L50.232,192.358L49.932,190.8L48.347,190.8L48.042,192.358L47.006,192.358L48.746,184.364ZM49.776,189.966L49.538,188.692C49.379,187.826 49.25,186.901 49.15,185.917C49.102,186.397 49.039,186.884 48.964,187.377C48.888,187.867 48.798,188.389 48.694,188.941L48.498,189.966L49.776,189.966Z" style="fill:rgb(158,161,168);fill-rule:nonzero;"/>
            <path id="path1040" d="M51.392,184.364L52.438,184.364L52.992,185.912C53.209,186.523 53.339,186.97 53.38,187.253C53.418,187.077 53.459,186.906 53.504,186.74C53.553,186.575 53.603,186.409 53.654,186.243L53.727,186.01L54.24,184.364L55.327,184.364L53.846,188.299L55.327,192.358L54.24,192.358L53.711,190.836C53.604,190.532 53.518,190.259 53.453,190.018C53.387,189.776 53.34,189.562 53.313,189.376C53.285,189.607 53.239,189.828 53.173,190.039L52.992,190.608L52.899,190.908L52.438,192.358L51.299,192.358L52.81,188.299L51.392,184.364Z" style="fill:rgb(158,161,168);fill-rule:nonzero;"/>
        </g>
        <g id="text1045" transform="matrix(0.945136,0,0,1.05805,0,0)">
            <path id="path1047" d="M2.645,289.991L4.331,289.991C5.143,289.991 5.734,290.196 6.103,290.606C6.472,291.02 6.657,291.677 6.657,292.575C6.657,293.839 6.286,294.655 5.543,295.024C5.17,295.192 4.631,295.276 3.925,295.276L3.925,299.491L2.645,299.491L2.645,289.991ZM3.925,294.181C4.454,294.181 4.819,294.074 5.02,293.861C5.225,293.644 5.328,293.258 5.328,292.704C5.328,292.138 5.229,291.724 5.033,291.461C4.836,291.199 4.526,291.068 4.103,291.068L3.925,291.068L3.925,294.181Z" style="fill:rgb(158,161,168);fill-rule:nonzero;"/>
            <path id="path1049" d="M7.642,289.991L8.897,289.991L8.897,296.704C8.897,297.389 8.958,297.844 9.081,298.07C9.209,298.296 9.459,298.408 9.832,298.408C10.205,298.408 10.452,298.31 10.57,298.113C10.694,297.912 10.755,297.504 10.755,296.888L10.755,289.991L12.01,289.991L12.01,296.889C12.01,297.922 11.852,298.622 11.537,298.987C11.159,299.401 10.583,299.608 9.807,299.608C8.954,299.608 8.353,299.342 8.005,298.808C7.763,298.443 7.642,297.742 7.642,296.704L7.642,289.991Z" style="fill:rgb(158,161,168);fill-rule:nonzero;"/>
            <path id="path1051" d="M13.475,289.991L14.755,289.991L14.755,298.408L16.847,298.408L16.847,299.491L13.475,299.491L13.475,289.991Z" style="fill:rgb(158,161,168);fill-rule:nonzero;"/>
            <path id="path1053" d="M20.976,290.188L20.976,291.437C20.586,291.158 20.235,291.018 19.923,291.018C19.587,291.018 19.312,291.137 19.099,291.375C18.886,291.601 18.779,291.902 18.779,292.28C18.779,292.612 18.855,292.897 19.007,293.135C19.085,293.262 19.212,293.426 19.388,293.627C19.569,293.828 19.8,294.07 20.083,294.353C20.604,294.883 20.959,295.34 21.148,295.726C21.337,296.099 21.431,296.556 21.431,297.098C21.431,297.832 21.224,298.437 20.809,298.913C20.395,299.376 19.864,299.608 19.216,299.608C18.67,299.608 18.205,299.459 17.819,299.159L17.819,297.892C18.274,298.224 18.689,298.39 19.062,298.39C19.411,298.39 19.683,298.275 19.88,298.045C20.077,297.812 20.176,297.496 20.176,297.098C20.176,296.753 20.1,296.443 19.948,296.169C19.87,296.037 19.761,295.888 19.622,295.719C19.482,295.547 19.308,295.356 19.099,295.147C18.775,294.827 18.506,294.544 18.293,294.298C18.079,294.052 17.922,293.837 17.819,293.652C17.622,293.291 17.524,292.836 17.524,292.286C17.524,291.543 17.716,290.955 18.102,290.52C18.492,290.081 19.015,289.862 19.671,289.862C20.126,289.862 20.561,289.97 20.976,290.188L20.976,290.188Z" style="fill:rgb(158,161,168);fill-rule:nonzero;"/>
            <path id="path1055" d="M22.508,289.991L25.91,289.991L25.91,291.074L23.788,291.074L23.788,294.083L25.671,294.083L25.671,295.166L23.788,295.166L23.788,298.408L25.91,298.408L25.91,299.491L22.508,299.491L22.508,289.991Z" style="fill:rgb(158,161,168);fill-rule:nonzero;"/>
            <path id="path1057" d="M34.451,294.975C34.451,296.653 34.265,297.844 33.891,298.55C33.518,299.255 32.892,299.608 32.014,299.608C31.092,299.608 30.441,299.229 30.064,298.47C29.691,297.727 29.504,296.409 29.504,294.513C29.504,292.823 29.689,291.628 30.058,290.926C30.431,290.22 31.063,289.868 31.953,289.868C32.749,289.868 33.339,290.14 33.725,290.686C33.979,291.051 34.164,291.57 34.279,292.243C34.394,292.866 34.451,293.777 34.451,294.975L34.451,294.975ZM33.11,295.11C33.11,293.465 33.036,292.374 32.888,291.837C32.741,291.295 32.439,291.024 31.984,291.024C31.528,291.024 31.225,291.273 31.073,291.769C30.925,292.269 30.852,293.275 30.852,294.784C30.852,296.175 30.929,297.139 31.085,297.676C31.245,298.185 31.545,298.439 31.984,298.439C32.414,298.439 32.71,298.201 32.87,297.725C33.03,297.254 33.11,296.382 33.11,295.11L33.11,295.11Z" style="fill:rgb(158,161,168);fill-rule:nonzero;"/>
            <path id="path1059" d="M35.725,289.991L36.98,289.991L36.98,296.704C36.98,297.389 37.042,297.844 37.165,298.07C37.292,298.296 37.542,298.408 37.915,298.408C38.289,298.408 38.535,298.31 38.654,298.113C38.777,297.912 38.838,297.504 38.838,296.888L38.838,289.991L40.094,289.991L40.094,296.889C40.094,297.922 39.936,298.622 39.62,298.987C39.242,299.401 38.666,299.608 37.891,299.608C37.038,299.608 36.437,299.342 36.088,298.808C35.846,298.443 35.725,297.742 35.725,296.704L35.725,289.991Z" style="fill:rgb(158,161,168);fill-rule:nonzero;"/>
            <path id="path1061" d="M40.801,289.991L44.967,289.991L44.967,291.111L43.533,291.111L43.533,299.491L42.278,299.491L42.278,291.111L40.801,291.111L40.801,289.991Z" style="fill:rgb(158,161,168);fill-rule:nonzero;"/>
        </g>
        <g id="text80" transform="matrix(0.87098,0,0,0.995047,-16.5,6.99997)">
            <path id="path4726" d="M29.851,371.706L29.851,363.943L31.853,363.943L32.903,366.668C32.96,366.829 33.024,367.013 33.094,367.221C33.168,367.429 33.249,367.668 33.336,367.94L33.552,368.624C33.475,367.95 33.416,367.373 33.376,366.894C33.336,366.415 33.316,366.013 33.316,365.687L33.316,363.943L35.317,363.943L35.317,371.706L33.316,371.706L32.26,368.85C32.149,368.545 32.049,368.26 31.958,367.995C31.871,367.727 31.794,367.472 31.727,367.231C31.77,367.777 31.802,368.253 31.822,368.659C31.843,369.065 31.853,369.42 31.853,369.725L31.853,371.706L29.851,371.706Z" style="fill:rgb(158,161,168);fill-rule:nonzero;"/>
            <path id="path4728" d="M39.887,371.706L37.791,371.706L37.791,368.418L35.865,363.943L38.052,363.943L38.429,365.094C38.503,365.319 38.568,365.535 38.625,365.743C38.686,365.951 38.739,366.15 38.786,366.341C38.863,366.056 38.93,365.811 38.987,365.607C39.044,365.399 39.095,365.232 39.138,365.104L39.52,363.943L41.692,363.943L39.887,368.418L39.887,371.706Z" style="fill:rgb(158,161,168);fill-rule:nonzero;"/>
            <path id="path4730" d="M41.894,371.515L41.894,369.076C42.306,369.639 42.752,369.921 43.231,369.921C43.412,369.921 43.56,369.874 43.673,369.78C43.787,369.683 43.844,369.562 43.844,369.418C43.844,369.21 43.72,369.008 43.472,368.81L43.13,368.543C42.902,368.372 42.708,368.203 42.547,368.035C42.386,367.865 42.256,367.69 42.155,367.513C42.054,367.332 41.981,367.146 41.934,366.954C41.887,366.763 41.863,366.562 41.863,366.351C41.863,365.989 41.947,365.61 42.115,365.215C42.199,365.03 42.296,364.863 42.406,364.712C42.517,364.558 42.644,364.422 42.789,364.305C43.184,363.969 43.662,363.802 44.222,363.802C44.721,363.802 45.224,363.934 45.73,364.199L45.73,366.572C45.559,366.308 45.365,366.1 45.147,365.949C44.929,365.795 44.714,365.718 44.503,365.718C44.342,365.718 44.21,365.765 44.106,365.858C43.999,365.949 43.945,366.058 43.945,366.185C43.945,366.393 44.087,366.599 44.372,366.804L44.704,367.05C45.147,367.368 45.463,367.695 45.655,368.03C45.849,368.366 45.946,368.758 45.946,369.207C45.946,369.971 45.713,370.601 45.247,371.098C44.781,371.594 44.191,371.842 43.477,371.842C42.985,371.842 42.457,371.733 41.894,371.515L41.894,371.515Z" style="fill:rgb(158,161,168);fill-rule:nonzero;"/>
            <path id="path4732" d="M49.576,371.706L47.48,371.706L47.48,365.803L46.323,365.803L46.323,363.943L50.778,363.943L50.778,365.803L49.576,365.803L49.576,371.706Z" style="fill:rgb(158,161,168);fill-rule:nonzero;"/>
            <path id="path4734" d="M56.525,371.706L54.428,371.706L54.428,368.584L53.428,368.584L53.428,371.706L51.331,371.706L51.331,363.943L53.428,363.943L53.428,366.688L54.428,366.688L54.428,363.943L56.525,363.943L56.525,371.706Z" style="fill:rgb(158,161,168);fill-rule:nonzero;"/>
            <rect id="path4736" x="57.606" y="363.943" width="2.097" height="7.763" style="fill:rgb(158,161,168);fill-rule:nonzero;"/>
        </g>
    </g>
</svg>
