<?xml version="1.0" encoding="UTF-8" standalone="no"?>
<!DOCTYPE svg PUBLIC "-//W3C//DTD SVG 1.1//EN" "http://www.w3.org/Graphics/SVG/1.1/DTD/svg11.dtd">
<svg width="100%" height="100%" viewBox="0 0 210 380" version="1.1" xmlns="http://www.w3.org/2000/svg" xmlns:xlink="http://www.w3.org/1999/xlink" xml:space="preserve" xmlns:serif="http://www.serif.com/" style="fill-rule:evenodd;clip-rule:evenodd;stroke-linejoin:round;stroke-miterlimit:2;">
    <g id="Layer-2" serif:id="Layer 2">
        <g id="text989">
        </g>
        <rect id="rect4689" x="0" y="0" width="210" height="380" style="fill:rgb(44,45,48);fill-rule:nonzero;"/>
        <g id="text4987">
        </g>
        <g id="text1042">
        </g>
        <g id="text2090">
        </g>
        <g id="g1356" transform="matrix(1,0,0,1,-2.60983e-07,300.5)">
            <g id="g1335">
                <rect id="rect4778-3-6" x="6" y="27.5" width="34" height="42" style="fill:rgb(179,179,179);"/>
                <g id="text4613" transform="matrix(1,0,0,1,-7.55905e-07,4.49973)">
                    <path id="path4701" d="M17.141,61L15.047,61L15.047,55.37L17.141,55.37L17.141,61ZM17.318,53.625C17.318,53.955 17.198,54.24 16.958,54.479C16.712,54.715 16.425,54.833 16.099,54.833C15.762,54.833 15.474,54.714 15.234,54.474C14.998,54.227 14.88,53.939 14.88,53.609C14.88,53.273 14.998,52.986 15.234,52.75C15.481,52.514 15.767,52.396 16.094,52.396C16.438,52.396 16.727,52.516 16.964,52.755C17.2,52.991 17.318,53.281 17.318,53.625Z" style="fill:rgb(44,45,48);fill-rule:nonzero;"/>
                    <path id="path4703" d="M23.068,61L20.979,61L20.979,58.021C20.979,57.764 20.953,57.585 20.901,57.484C20.852,57.384 20.766,57.333 20.641,57.333C20.349,57.333 20.203,57.609 20.203,58.161L20.203,61L18.115,61L18.115,55.37L20.203,55.37C20.2,55.509 20.196,55.637 20.193,55.755C20.189,55.873 20.184,55.983 20.177,56.083L20.156,56.443C20.493,55.648 20.986,55.25 21.635,55.25C22.087,55.25 22.438,55.418 22.688,55.755C22.941,56.092 23.068,56.561 23.068,57.161L23.068,61Z" style="fill:rgb(44,45,48);fill-rule:nonzero;"/>
                    <path id="path4705" d="M31.12,61L27.318,61L27.318,52.958L29.49,52.958L29.49,59.068L31.12,59.068L31.12,61Z" style="fill:rgb(44,45,48);fill-rule:nonzero;"/>
                </g>
            </g>
            <g id="g1342">
                <rect id="rect4662" x="50" y="27.5" width="34" height="42" style="fill:rgb(179,179,179);"/>
                <g id="text4617" transform="matrix(1,0,0,1,-7.55905e-07,4.49973)">
                    <path id="path4708" d="M60.182,61L58.089,61L58.089,55.37L60.182,55.37L60.182,61ZM60.359,53.625C60.359,53.955 60.24,54.24 60,54.479C59.753,54.715 59.467,54.833 59.141,54.833C58.804,54.833 58.516,54.714 58.276,54.474C58.04,54.227 57.922,53.939 57.922,53.609C57.922,53.273 58.04,52.986 58.276,52.75C58.523,52.514 58.809,52.396 59.135,52.396C59.479,52.396 59.769,52.516 60.005,52.755C60.241,52.991 60.359,53.281 60.359,53.625L60.359,53.625Z" style="fill:rgb(44,45,48);fill-rule:nonzero;"/>
                    <path id="path4710" d="M66.109,61L64.021,61L64.021,58.021C64.021,57.764 63.995,57.585 63.943,57.484C63.894,57.384 63.807,57.333 63.682,57.333C63.391,57.333 63.245,57.609 63.245,58.161L63.245,61L61.156,61L61.156,55.37L63.245,55.37C63.241,55.509 63.238,55.637 63.234,55.755C63.231,55.873 63.226,55.983 63.219,56.083L63.198,56.443C63.535,55.648 64.028,55.25 64.677,55.25C65.128,55.25 65.479,55.418 65.729,55.755C65.983,56.092 66.109,56.561 66.109,57.161L66.109,61Z" style="fill:rgb(44,45,48);fill-rule:nonzero;"/>
                    <path id="path4712" d="M76.078,61L73.729,61L72.656,58.135C72.646,58.087 72.627,58.023 72.599,57.943C72.575,57.863 72.544,57.767 72.505,57.656L72.521,58.187L72.521,61L70.359,61L70.359,52.958L72.583,52.958C73.562,52.958 74.295,53.151 74.781,53.536C75.399,54.03 75.708,54.731 75.708,55.641C75.708,56.613 75.293,57.285 74.463,57.656L76.078,61ZM72.531,56.682L72.677,56.682C72.927,56.682 73.135,56.587 73.302,56.396C73.469,56.205 73.552,55.962 73.552,55.667C73.552,55.066 73.238,54.766 72.609,54.766L72.531,54.766L72.531,56.682Z" style="fill:rgb(44,45,48);fill-rule:nonzero;"/>
                </g>
            </g>
        </g>
        <g id="g1402" transform="matrix(1,0,0,1,-2,0)">
            <g id="g4922" transform="matrix(1,0,0,1,122,17.9996)">
                <rect id="rect4778" x="6" y="310" width="34" height="42" style="fill:rgb(60,60,60);"/>
                <g id="text4861">
                    <path id="path4899" d="M16.849,345.271C16.849,346.139 16.609,346.83 16.13,347.344C15.651,347.858 15.009,348.115 14.203,348.115C13.411,348.115 12.781,347.852 12.313,347.328C11.847,346.8 11.615,346.092 11.615,345.203C11.615,344.314 11.852,343.601 12.328,343.062C12.8,342.521 13.427,342.25 14.208,342.25C15.031,342.25 15.677,342.519 16.146,343.057C16.615,343.595 16.849,344.333 16.849,345.271ZM14.823,345.203C14.823,344.995 14.809,344.807 14.781,344.641C14.753,344.47 14.714,344.326 14.661,344.208C14.609,344.087 14.547,343.993 14.474,343.927C14.401,343.861 14.319,343.828 14.229,343.828C14.052,343.828 13.91,343.953 13.802,344.203C13.694,344.422 13.641,344.75 13.641,345.188C13.641,345.618 13.694,345.946 13.802,346.172C13.91,346.422 14.054,346.547 14.234,346.547C14.405,346.547 14.545,346.424 14.656,346.177C14.767,345.903 14.823,345.578 14.823,345.203L14.823,345.203Z" style="fill:rgb(197,200,209);fill-rule:nonzero;"/>
                    <path id="path4901" d="M17.651,342.37L19.74,342.37L19.74,345.542C19.74,345.844 19.769,346.064 19.828,346.203C19.891,346.318 20.009,346.375 20.182,346.375C20.352,346.375 20.467,346.318 20.526,346.203C20.589,346.089 20.62,345.868 20.62,345.542L20.62,342.37L22.708,342.37L22.708,345.823C22.708,346.052 22.689,346.26 22.651,346.448C22.616,346.632 22.559,346.8 22.479,346.953C22.403,347.102 22.302,347.24 22.177,347.365C22.056,347.49 21.91,347.604 21.74,347.708C21.281,347.979 20.762,348.115 20.182,348.115C19.595,348.115 19.076,347.979 18.625,347.708C18.451,347.604 18.302,347.491 18.177,347.37C18.056,347.245 17.955,347.106 17.875,346.953C17.799,346.8 17.741,346.632 17.703,346.448C17.668,346.26 17.651,346.052 17.651,345.823L17.651,342.37Z" style="fill:rgb(197,200,209);fill-rule:nonzero;"/>
                    <path id="path4903" d="M26.047,348L23.953,348L23.953,344.052L23.359,344.052L23.359,342.37L23.953,342.37L23.953,340.714L26.047,340.714L26.047,342.37L26.74,342.37L26.74,344.052L26.047,344.052L26.047,348Z" style="fill:rgb(197,200,209);fill-rule:nonzero;"/>
                    <path id="path4905" d="M34.385,348L30.583,348L30.583,339.958L32.755,339.958L32.755,346.068L34.385,346.068L34.385,348Z" style="fill:rgb(197,200,209);fill-rule:nonzero;"/>
                </g>
            </g>
            <g id="g4914" transform="matrix(1,0,0,1,122,17.9993)">
                <rect id="rect4778-3" x="50" y="310" width="34" height="42" style="fill:rgb(60,60,60);"/>
                <g id="text4886">
                    <path id="path4890" d="M59.891,345.271C59.891,346.139 59.651,346.83 59.172,347.344C58.693,347.858 58.05,348.115 57.245,348.115C56.453,348.115 55.823,347.852 55.354,347.328C54.889,346.8 54.656,346.092 54.656,345.203C54.656,344.314 54.894,343.601 55.37,343.062C55.842,342.521 56.469,342.25 57.25,342.25C58.073,342.25 58.719,342.519 59.188,343.057C59.656,343.595 59.891,344.333 59.891,345.271ZM57.865,345.203C57.865,344.995 57.851,344.807 57.823,344.641C57.795,344.47 57.755,344.326 57.703,344.208C57.651,344.087 57.589,343.993 57.516,343.927C57.443,343.861 57.361,343.828 57.271,343.828C57.094,343.828 56.951,343.953 56.844,344.203C56.736,344.422 56.682,344.75 56.682,345.187C56.682,345.618 56.736,345.946 56.844,346.172C56.951,346.422 57.095,346.547 57.276,346.547C57.446,346.547 57.587,346.424 57.698,346.177C57.809,345.903 57.865,345.578 57.865,345.203L57.865,345.203Z" style="fill:rgb(197,200,209);fill-rule:nonzero;"/>
                    <path id="path4892" d="M60.693,342.37L62.781,342.37L62.781,345.542C62.781,345.844 62.811,346.064 62.87,346.203C62.932,346.318 63.05,346.375 63.224,346.375C63.394,346.375 63.509,346.318 63.568,346.203C63.63,346.089 63.662,345.868 63.662,345.542L63.662,342.37L65.75,342.37L65.75,345.823C65.75,346.052 65.731,346.26 65.693,346.448C65.658,346.632 65.601,346.8 65.521,346.953C65.444,347.102 65.344,347.24 65.219,347.365C65.097,347.49 64.951,347.604 64.781,347.708C64.323,347.979 63.804,348.115 63.224,348.115C62.637,348.115 62.118,347.979 61.667,347.708C61.493,347.604 61.344,347.491 61.219,347.37C61.097,347.245 60.997,347.106 60.917,346.953C60.84,346.8 60.783,346.632 60.745,346.448C60.71,346.26 60.693,346.052 60.693,345.823L60.693,342.37Z" style="fill:rgb(197,200,209);fill-rule:nonzero;"/>
                    <path id="path4894" d="M69.089,348L66.995,348L66.995,344.052L66.401,344.052L66.401,342.37L66.995,342.37L66.995,340.714L69.089,340.714L69.089,342.37L69.781,342.37L69.781,344.052L69.089,344.052L69.089,348Z" style="fill:rgb(197,200,209);fill-rule:nonzero;"/>
                    <path id="path4896" d="M79.344,348L76.995,348L75.922,345.135C75.912,345.087 75.892,345.023 75.865,344.943C75.84,344.863 75.809,344.767 75.771,344.656L75.786,345.187L75.786,348L73.625,348L73.625,339.958L75.849,339.958C76.828,339.958 77.561,340.151 78.047,340.536C78.665,341.029 78.974,341.731 78.974,342.641C78.974,343.613 78.559,344.285 77.729,344.656L79.344,348ZM75.797,343.682L75.943,343.682C76.193,343.682 76.401,343.587 76.568,343.396C76.734,343.205 76.818,342.962 76.818,342.667C76.818,342.066 76.503,341.766 75.875,341.766L75.797,341.766L75.797,343.682Z" style="fill:rgb(197,200,209);fill-rule:nonzero;"/>
                </g>
            </g>
        </g>
        <g id="text1437" transform="matrix(0.883572,0,0,1.13177,0,0)">
            <path id="path1493" d="M72.433,172.963L77.885,172.963L77.885,174.428L76.009,174.428L76.009,185.397L74.366,185.397L74.366,174.428L72.433,174.428L72.433,172.963Z" style="fill:rgb(158,161,168);fill-rule:nonzero;"/>
            <path id="path1495" d="M78.804,172.963L80.446,172.963L80.446,181.749C80.446,182.646 80.527,183.241 80.688,183.537C80.854,183.832 81.182,183.98 81.67,183.98C82.159,183.98 82.481,183.851 82.637,183.593C82.798,183.33 82.878,182.796 82.878,181.99L82.878,172.963L84.521,172.963L84.521,181.99C84.521,183.343 84.315,184.259 83.901,184.737C83.407,185.279 82.653,185.55 81.638,185.55C80.522,185.55 79.735,185.201 79.279,184.503C78.962,184.025 78.803,183.107 78.803,181.749L78.804,172.963Z" style="fill:rgb(158,161,168);fill-rule:nonzero;"/>
            <path id="path1497" d="M86.438,172.963L88.645,172.963C89.557,172.963 90.237,173.18 90.682,173.615C91.246,174.179 91.528,175.04 91.528,176.2C91.528,177.091 91.378,177.808 91.077,178.35C90.782,178.887 90.357,179.22 89.804,179.349L92.092,185.397L90.392,185.397L88.113,179.309L88.113,185.397L86.438,185.397L86.438,172.963ZM88.113,178.471C88.763,178.471 89.222,178.321 89.49,178.02C89.759,177.72 89.893,177.212 89.893,176.498C89.893,176.112 89.863,175.781 89.804,175.508C89.751,175.234 89.662,175.011 89.539,174.839C89.421,174.667 89.265,174.541 89.072,174.461C88.884,174.38 88.658,174.34 88.395,174.34L88.113,174.34L88.113,178.471Z" style="fill:rgb(158,161,168);fill-rule:nonzero;"/>
            <path id="path1499" d="M93.396,172.963L95.667,172.963C97.444,172.963 98.333,174.066 98.333,176.273C98.333,177.116 98.218,177.741 97.987,178.149C97.756,178.557 97.348,178.866 96.763,179.075C97.434,179.344 97.893,179.687 98.14,180.106C98.392,180.519 98.518,181.142 98.518,181.974C98.518,184.256 97.541,185.397 95.587,185.397L93.396,185.397L93.396,172.963ZM94.975,178.439C95.624,178.439 96.075,178.289 96.328,177.988C96.58,177.671 96.706,177.116 96.706,176.321C96.706,174.979 96.223,174.308 95.257,174.308L95.128,174.308L95.055,174.308C95.012,174.308 94.985,174.31 94.975,174.315L94.975,178.439ZM94.975,183.964C95.662,183.964 96.137,183.816 96.4,183.521C96.663,183.225 96.795,182.691 96.795,181.918C96.795,181.123 96.658,180.568 96.384,180.251C96.116,179.929 95.646,179.768 94.975,179.768L94.975,183.964Z" style="fill:rgb(158,161,168);fill-rule:nonzero;"/>
            <path id="path1501" d="M106.386,179.486C106.386,181.682 106.142,183.241 105.654,184.165C105.165,185.088 104.346,185.55 103.197,185.55C101.989,185.55 101.138,185.053 100.644,184.06C100.156,183.088 99.911,181.362 99.911,178.882C99.911,176.67 100.153,175.105 100.636,174.187C101.125,173.263 101.952,172.802 103.117,172.802C104.158,172.802 104.931,173.159 105.436,173.873C105.769,174.351 106.011,175.03 106.161,175.91C106.311,176.726 106.386,177.918 106.386,179.486L106.386,179.486ZM104.631,179.663C104.631,177.51 104.534,176.082 104.341,175.379C104.148,174.67 103.753,174.316 103.157,174.316C102.561,174.316 102.164,174.64 101.965,175.29C101.772,175.945 101.675,177.26 101.675,179.236C101.675,181.056 101.777,182.318 101.981,183.021C102.191,183.687 102.582,184.02 103.157,184.02C103.721,184.02 104.107,183.709 104.317,183.086C104.526,182.468 104.631,181.327 104.631,179.663L104.631,179.663Z" style="fill:rgb(158,161,168);fill-rule:nonzero;"/>
        </g>
        <g id="text1798" transform="matrix(0.927991,0,0,1.0776,60,-90)">
            <path id="path1817" d="M29.634,170.75L34.981,170.75L34.981,172.443L31.634,172.443L31.634,177.136L34.654,177.136L34.654,178.828L31.634,178.828L31.634,185.598L29.634,185.598L29.634,170.75Z" style="fill:rgb(158,161,168);fill-rule:nonzero;"/>
            <rect id="path1819" x="36.519" y="170.75" width="2" height="14.848" style="fill:rgb(158,161,168);fill-rule:nonzero;"/>
            <path id="path1821" d="M40.827,170.75L42.828,170.75L42.828,183.906L46.097,183.906L46.097,185.598L40.827,185.598L40.827,170.75Z" style="fill:rgb(158,161,168);fill-rule:nonzero;"/>
            <path id="path1823" d="M45.838,170.75L52.348,170.75L52.348,172.501L50.107,172.501L50.107,185.598L48.146,185.598L48.146,172.501L45.838,172.501L45.838,170.75Z" style="fill:rgb(158,161,168);fill-rule:nonzero;"/>
            <path id="path1825" d="M53.444,170.75L58.762,170.75L58.762,172.443L55.445,172.443L55.445,177.145L58.387,177.145L58.387,178.838L55.445,178.838L55.445,183.906L58.762,183.906L58.762,185.598L53.444,185.598L53.444,170.75Z" style="fill:rgb(158,161,168);fill-rule:nonzero;"/>
            <path id="path1827" d="M60.599,170.75L63.234,170.75C64.324,170.75 65.135,171.01 65.667,171.529C66.34,172.202 66.677,173.231 66.677,174.616C66.677,175.68 66.497,176.536 66.138,177.184C65.785,177.825 65.279,178.222 64.619,178.376L67.35,185.598L65.321,185.598L62.599,178.328L62.599,185.598L60.599,185.598L60.599,170.75ZM62.599,177.328C63.375,177.328 63.923,177.149 64.244,176.79C64.564,176.431 64.724,175.825 64.724,174.972C64.724,174.51 64.689,174.116 64.619,173.789C64.555,173.462 64.449,173.196 64.301,172.991C64.16,172.786 63.974,172.635 63.744,172.539C63.519,172.443 63.25,172.395 62.936,172.395L62.599,172.395L62.599,177.328Z" style="fill:rgb(158,161,168);fill-rule:nonzero;"/>
        </g>
        <g id="text1802" transform="matrix(1.04638,0,0,1.22872,118.554,-150)">
            <path id="path1804" d="M32.441,198.745L34.127,198.745L34.892,203.434L35.024,204.281L35.296,206.124C35.339,206.436 35.378,206.721 35.411,206.979C35.449,207.237 35.482,207.47 35.509,207.678L35.592,208.304C35.608,208.177 35.622,208.065 35.633,207.966C35.644,207.868 35.655,207.785 35.666,207.72L35.888,206.247L36.176,204.314C36.203,204.139 36.228,203.977 36.25,203.829C36.277,203.681 36.302,203.549 36.324,203.434L37.146,198.745L38.742,198.745L36.25,211.446L34.892,211.446L32.441,198.745Z" style="fill:rgb(158,161,168);fill-rule:nonzero;"/>
            <path id="path1806" d="M46.063,205.408C46.063,207.651 45.814,209.244 45.315,210.187C44.816,211.131 43.979,211.602 42.806,211.602C41.572,211.602 40.703,211.095 40.198,210.08C39.699,209.088 39.45,207.325 39.45,204.791C39.45,202.532 39.696,200.933 40.19,199.995C40.689,199.052 41.534,198.581 42.724,198.581C43.787,198.581 44.577,198.945 45.093,199.675C45.433,200.163 45.679,200.856 45.833,201.756C45.987,202.589 46.063,203.807 46.063,205.408L46.063,205.408ZM44.27,205.589C44.27,203.39 44.171,201.931 43.974,201.213C43.776,200.489 43.373,200.127 42.765,200.127C42.156,200.127 41.75,200.459 41.547,201.122C41.35,201.791 41.251,203.135 41.251,205.153C41.251,207.012 41.355,208.301 41.564,209.019C41.778,209.699 42.178,210.039 42.765,210.039C43.34,210.039 43.735,209.721 43.949,209.085C44.163,208.454 44.27,207.289 44.27,205.589L44.27,205.589Z" style="fill:rgb(158,161,168);fill-rule:nonzero;"/>
            <path id="path1808" d="M47.766,198.745L49.477,198.745L49.477,209.998L52.274,209.998L52.274,211.446L47.766,211.446L47.766,198.745Z" style="fill:rgb(158,161,168);fill-rule:nonzero;"/>
            <path id="path1810" d="M53.491,198.745L55.169,198.745L55.169,207.72C55.169,208.635 55.252,209.244 55.416,209.546C55.586,209.847 55.921,209.998 56.42,209.998C56.919,209.998 57.248,209.867 57.407,209.603C57.571,209.335 57.654,208.789 57.654,207.966L57.654,198.745L59.332,198.745L59.332,207.966C59.332,209.348 59.121,210.283 58.698,210.771C58.194,211.325 57.423,211.602 56.387,211.602C55.246,211.602 54.443,211.246 53.977,210.533C53.653,210.045 53.491,209.107 53.491,207.72L53.491,198.745Z" style="fill:rgb(158,161,168);fill-rule:nonzero;"/>
            <path id="path1812" d="M61.89,198.745L63.354,198.745L64.473,203.927C64.61,204.575 64.733,205.224 64.843,205.877C64.958,206.524 65.062,207.204 65.156,207.917C65.167,207.824 65.175,207.752 65.18,207.703C65.186,207.648 65.191,207.61 65.197,207.588L65.435,206.132L65.649,204.75L65.839,203.837L66.834,198.745L68.315,198.745L69.483,211.446L67.846,211.446L67.558,207.136C67.547,206.916 67.536,206.727 67.525,206.568C67.519,206.409 67.516,206.277 67.516,206.173L67.442,204.47L67.401,202.907C67.401,202.896 67.399,202.874 67.393,202.842C67.393,202.803 67.39,202.754 67.385,202.693L67.344,202.948C67.3,203.25 67.259,203.513 67.22,203.738C67.187,203.963 67.157,204.152 67.13,204.306L66.916,205.466L66.834,205.902L65.764,211.446L64.613,211.446L63.609,206.658C63.472,206.028 63.349,205.389 63.239,204.742C63.135,204.089 63.039,203.406 62.951,202.694L62.458,211.446L60.845,211.446L61.89,198.745Z" style="fill:rgb(158,161,168);fill-rule:nonzero;"/>
            <path id="path1814" d="M70.897,198.745L75.446,198.745L75.446,200.193L72.608,200.193L72.608,204.215L75.126,204.215L75.126,205.663L72.608,205.663L72.608,209.998L75.446,209.998L75.446,211.446L70.897,211.446L70.897,198.745Z" style="fill:rgb(158,161,168);fill-rule:nonzero;"/>
        </g>
        <g id="text930" transform="matrix(0.947682,0,0,1.05521,60,0)">
            <path id="path932" d="M14.76,16.825L10.865,16.825L9.085,12.074C9.068,11.994 9.036,11.887 8.99,11.755C8.95,11.622 8.898,11.464 8.835,11.28L8.861,12.161L8.861,16.825L5.276,16.825L5.276,3.488L8.964,3.488C10.588,3.488 11.803,3.808 12.609,4.447C13.634,5.265 14.147,6.428 14.147,7.937C14.147,9.549 13.459,10.663 12.083,11.28L14.76,16.825ZM8.878,9.664L9.12,9.664C9.534,9.664 9.88,9.506 10.156,9.189C10.433,8.873 10.571,8.469 10.571,7.98C10.571,6.984 10.05,6.486 9.008,6.486L8.878,6.486L8.878,9.664Z" style="fill:rgb(158,161,168);fill-rule:nonzero;"/>
            <path id="path934" d="M25.583,10.2C25.583,12.233 25.12,13.885 24.193,15.158C23.271,16.425 22.071,17.058 20.591,17.058C19.278,17.058 18.152,16.572 17.213,15.598C16.033,14.366 15.443,12.518 15.443,10.053C15.443,7.692 16.059,5.887 17.291,4.637C18.207,3.71 19.292,3.247 20.548,3.247C22.085,3.247 23.309,3.874 24.219,5.13C25.128,6.385 25.583,8.075 25.583,10.2ZM21.843,10.226C21.843,7.813 21.417,6.607 20.565,6.607C20.139,6.607 19.799,6.923 19.546,7.557C19.298,8.144 19.174,9.008 19.174,10.148C19.174,11.271 19.289,12.143 19.52,12.765C19.756,13.381 20.081,13.69 20.496,13.69C20.922,13.69 21.25,13.384 21.48,12.774C21.722,12.164 21.843,11.314 21.843,10.226L21.843,10.226Z" style="fill:rgb(158,161,168);fill-rule:nonzero;"/>
            <path id="path936" d="M27.112,16.825L27.112,3.488L30.222,3.488C32.001,3.488 33.386,3.966 34.377,4.922C35.678,6.172 36.329,7.92 36.329,10.165C36.329,12.377 35.779,14.084 34.679,15.288C33.74,16.313 32.341,16.825 30.481,16.825L27.112,16.825ZM30.714,13.603C32.004,13.54 32.649,12.428 32.649,10.269C32.649,9.204 32.485,8.363 32.157,7.747C31.828,7.125 31.385,6.814 30.826,6.814L30.714,6.814L30.714,13.603Z" style="fill:rgb(158,161,168);fill-rule:nonzero;"/>
            <path id="path938" d="M37.858,16.825L37.858,3.488L44.552,3.488L44.552,6.624L41.459,6.624L41.459,8.567L44.232,8.567L44.232,11.582L41.459,11.582L41.459,13.62L44.552,13.62L44.552,16.825L37.858,16.825Z" style="fill:rgb(158,161,168);fill-rule:nonzero;"/>
            <path id="path940" d="M46.081,16.825L46.081,3.488L49.518,3.488L51.324,8.17C51.422,8.446 51.531,8.763 51.652,9.12C51.779,9.477 51.917,9.889 52.067,10.355L52.438,11.53C52.306,10.373 52.205,9.382 52.136,8.559C52.067,7.735 52.032,7.044 52.032,6.486L52.032,3.488L55.47,3.488L55.47,16.825L52.032,16.825L50.218,11.919C50.028,11.395 49.855,10.905 49.7,10.45C49.55,9.99 49.418,9.552 49.303,9.137C49.377,10.076 49.432,10.894 49.467,11.591C49.501,12.287 49.518,12.898 49.518,13.422L49.518,16.825L46.081,16.825Z" style="fill:rgb(158,161,168);fill-rule:nonzero;"/>
            <path id="path942" d="M62,16.825L58.398,16.825L58.398,6.684L56.411,6.684L56.411,3.488L64.064,3.488L64.064,6.684L62,6.684L62,16.825Z" style="fill:rgb(158,161,168);fill-rule:nonzero;"/>
            <path id="path944" d="M76.131,16.825L72.46,16.825L69.403,3.488L73.186,3.488L73.842,7.298C74.09,8.755 74.289,10.384 74.438,12.187C74.502,11.386 74.579,10.638 74.672,9.941C74.764,9.244 74.873,8.565 75,7.902L75.855,3.488L79.768,3.488L76.131,16.825Z" style="fill:rgb(158,161,168);fill-rule:nonzero;"/>
            <path id="path946" d="M89.52,16.825L80.338,16.825L83.983,11.962C84.398,11.409 84.746,10.917 85.028,10.485C85.31,10.047 85.532,9.662 85.693,9.328C86.01,8.7 86.168,8.055 86.168,7.393C86.168,7.03 86.093,6.742 85.944,6.529C85.794,6.316 85.59,6.209 85.33,6.209C84.755,6.209 84.467,6.751 84.467,7.833L84.467,8.04C84.473,8.121 84.478,8.216 84.484,8.326L80.986,8.326L80.968,7.842C80.968,6.5 81.383,5.4 82.212,4.542C83.047,3.678 84.115,3.247 85.417,3.247C86.672,3.247 87.697,3.655 88.492,4.473C89.292,5.274 89.693,6.319 89.693,7.609C89.693,8.645 89.419,9.653 88.872,10.632C88.596,11.121 88.236,11.637 87.792,12.178C87.355,12.713 86.822,13.278 86.194,13.871C86.736,13.831 87.28,13.802 87.827,13.785C88.38,13.767 88.944,13.759 89.52,13.759L89.52,16.825Z" style="fill:rgb(158,161,168);fill-rule:nonzero;"/>
        </g>
        <g id="text80" transform="matrix(0.87098,0,0,0.995047,66,6.99997)">
            <path id="path4726" d="M29.851,371.706L29.851,363.943L31.853,363.943L32.903,366.668C32.96,366.829 33.024,367.013 33.094,367.221C33.168,367.429 33.249,367.668 33.336,367.94L33.552,368.624C33.475,367.95 33.416,367.373 33.376,366.894C33.336,366.415 33.316,366.013 33.316,365.687L33.316,363.943L35.317,363.943L35.317,371.706L33.316,371.706L32.26,368.85C32.149,368.545 32.049,368.26 31.958,367.995C31.871,367.727 31.794,367.472 31.727,367.231C31.77,367.777 31.802,368.253 31.822,368.659C31.843,369.065 31.853,369.42 31.853,369.725L31.853,371.706L29.851,371.706Z" style="fill:rgb(158,161,168);fill-rule:nonzero;"/>
            <path id="path4728" d="M39.887,371.706L37.791,371.706L37.791,368.418L35.865,363.943L38.052,363.943L38.429,365.094C38.503,365.319 38.568,365.535 38.625,365.743C38.686,365.951 38.739,366.15 38.786,366.341C38.863,366.056 38.93,365.811 38.987,365.607C39.044,365.399 39.095,365.232 39.138,365.104L39.52,363.943L41.692,363.943L39.887,368.418L39.887,371.706Z" style="fill:rgb(158,161,168);fill-rule:nonzero;"/>
            <path id="path4730" d="M41.894,371.515L41.894,369.076C42.306,369.639 42.752,369.921 43.231,369.921C43.412,369.921 43.56,369.874 43.673,369.78C43.787,369.683 43.844,369.562 43.844,369.418C43.844,369.21 43.72,369.008 43.472,368.81L43.13,368.543C42.902,368.372 42.708,368.203 42.547,368.035C42.386,367.865 42.256,367.69 42.155,367.513C42.054,367.332 41.981,367.146 41.934,366.954C41.887,366.763 41.863,366.562 41.863,366.351C41.863,365.989 41.947,365.61 42.115,365.215C42.199,365.03 42.296,364.863 42.406,364.712C42.517,364.558 42.644,364.422 42.789,364.305C43.184,363.969 43.662,363.802 44.222,363.802C44.721,363.802 45.224,363.934 45.73,364.199L45.73,366.572C45.559,366.308 45.365,366.1 45.147,365.949C44.929,365.795 44.714,365.718 44.503,365.718C44.342,365.718 44.21,365.765 44.106,365.858C43.999,365.949 43.945,366.058 43.945,366.185C43.945,366.393 44.087,366.599 44.372,366.804L44.704,367.05C45.147,367.368 45.463,367.695 45.655,368.03C45.849,368.366 45.946,368.758 45.946,369.207C45.946,369.971 45.713,370.601 45.247,371.098C44.781,371.594 44.191,371.842 43.477,371.842C42.985,371.842 42.457,371.733 41.894,371.515L41.894,371.515Z" style="fill:rgb(158,161,168);fill-rule:nonzero;"/>
            <path id="path4732" d="M49.576,371.706L47.48,371.706L47.48,365.803L46.323,365.803L46.323,363.943L50.778,363.943L50.778,365.803L49.576,365.803L49.576,371.706Z" style="fill:rgb(158,161,168);fill-rule:nonzero;"/>
            <path id="path4734" d="M56.525,371.706L54.428,371.706L54.428,368.584L53.428,368.584L53.428,371.706L51.331,371.706L51.331,363.943L53.428,363.943L53.428,366.688L54.428,366.688L54.428,363.943L56.525,363.943L56.525,371.706Z" style="fill:rgb(158,161,168);fill-rule:nonzero;"/>
            <rect id="path4736" x="57.606" y="363.943" width="2.097" height="7.763" style="fill:rgb(158,161,168);fill-rule:nonzero;"/>
        </g>
        <g id="g1433">
            <rect id="rect1324" x="0" y="234" width="210" height="86" style="fill:rgb(197,200,209);"/>
            <path id="path1311" d="M0,232L0,322L210,322L210,232L0,232ZM54.88,244.05C55.434,244.05 57.438,245.249 58.716,246.345C59.221,246.779 59.749,247.135 59.889,247.135C60.029,247.135 60.753,246.866 61.5,246.538C62.246,246.209 63.785,245.78 64.919,245.584C67.402,245.155 69.385,245.252 73.251,245.995C74.721,246.278 76.264,246.562 76.678,246.627C78.04,246.842 77.914,247.778 76.279,249.613C75.659,250.308 74.654,251.231 74.043,251.663C72.839,252.512 71.795,253.826 70.538,256.083C68.688,259.405 68.063,261.13 67.596,264.208C67.432,265.282 67.034,266.932 66.711,267.871C65.665,270.914 66.069,273.393 67.85,274.859C68.997,275.803 69.479,275.933 71.83,275.936C74.06,275.936 76.076,276.316 77.045,276.911C77.679,277.299 79.089,279.419 79.294,280.29C79.366,280.594 79.366,281.032 79.294,281.267C79.027,282.141 77.858,281.769 74.934,279.877C74.247,279.433 73.497,279.165 72.481,279.004C68.078,278.305 64.739,280.473 63.763,284.662C63.488,285.852 63.473,288.443 63.738,289.6C64.209,291.663 62.87,294.914 60.473,297.525C59.745,298.317 59.468,298.763 59.582,298.954C59.687,299.131 60.42,299.295 61.612,299.409C63.697,299.608 66.355,300.25 67.053,300.726C67.717,301.178 67.644,301.954 66.868,302.693C65.794,303.716 65.086,303.729 62.165,302.783C59.557,301.938 58.221,301.89 56.424,302.577C55.08,303.091 54.676,303.149 52.15,303.167C48.515,303.198 48.155,303.447 49.246,305.198C49.658,305.86 49.788,306.324 49.79,307.137C49.792,308.078 49.71,308.293 49.109,308.937L49.107,308.937C48.08,310.039 47.403,309.96 46.127,308.589C45.574,307.995 44.734,306.905 44.26,306.17C43.153,304.453 42.311,303.631 41.079,303.06C39.614,302.383 36.021,302.429 32.799,303.167C27.876,304.295 25.25,304.273 22.808,303.087C21.808,302.602 21.506,302.341 21.27,301.755C21.109,301.354 21.031,300.801 21.097,300.528C21.374,299.382 23.292,297.608 25.688,296.284C27.109,295.498 27.815,294.808 27.652,294.366C27.29,293.386 25.18,292.945 22.236,293.233C18.413,293.607 15.902,293.692 15.76,293.454C15.602,293.189 17.036,292.724 19.103,292.371C21.331,291.99 25.825,292.035 27.155,292.451C28.309,292.812 29.3,293.719 29.298,294.411C29.297,295.23 28.426,296.15 26.229,297.658C23.136,299.78 22.815,300.311 24,301.346L24.64,301.906L27.317,301.79C29.274,301.704 30.656,301.51 32.466,301.066C33.828,300.733 35.591,300.347 36.384,300.21C38.081,299.916 38.072,300.035 36.615,297.498C34.879,294.473 34.268,292.109 34.255,288.36C34.247,285.952 34.698,283.819 35.605,281.973C36.606,279.935 38.897,277.232 41.084,275.51L43.059,273.957L43.183,272.233C43.32,270.325 43.104,270.662 45.683,268.343C46.153,267.92 46.325,267.59 46.325,267.119C46.325,265.717 47.719,263.111 49.972,260.303L50.876,259.174L50.037,258.727C48.77,258.05 46.502,255.967 45.677,254.721C43.783,251.861 43.616,248.368 45.33,247.447C46.655,246.735 49.368,247.252 51.839,248.686C52.318,248.965 52.78,249.193 52.865,249.193C52.95,249.193 53.01,248.428 52.998,247.495C52.967,245.141 53.562,244.05 54.88,244.05L54.88,244.05ZM89.093,253.921L95.517,253.921C99.403,253.921 102.338,254.011 102.947,254.146C104.784,254.555 105.723,255.822 105.723,257.895C105.723,259.258 105.412,260.237 104.888,260.529C104.511,260.739 104.523,260.768 105.119,261.145C106.235,261.851 106.508,262.857 106.511,266.316L106.515,269.35L105.638,269.35L104.761,269.35L104.697,266.269C104.604,261.779 104.936,261.956 96.565,261.949L90.873,261.945L90.873,265.648L90.875,269.35L89.983,269.35L89.093,269.35L89.093,261.637L89.093,253.921ZM136.805,253.923L138.587,253.923L138.587,269.352L137.697,269.352C136.955,269.352 136.805,269.286 136.805,268.961C136.805,268.58 136.79,268.58 136.07,268.961C135.423,269.304 134.884,269.349 131.566,269.342C127.308,269.331 126.591,269.176 125.585,268.042C124.774,267.127 124.533,266.181 124.533,263.899C124.533,261.5 124.789,260.581 125.718,259.661C126.758,258.63 127.671,258.449 131.803,258.449C134.878,258.449 135.431,258.498 136.07,258.837L136.805,259.227L136.805,256.574L136.805,253.923ZM90.873,255.57L90.873,260.327L96.665,260.263C103.195,260.189 103.507,260.125 103.94,258.761C104.377,257.386 103.735,256.185 102.341,255.769C101.97,255.659 99.238,255.57 96.27,255.57L90.873,255.57ZM173.63,256.186L175.412,256.186L175.412,258.449L183.728,258.449L183.728,260.095L179.57,260.095L175.412,260.095L175.412,263.237C175.412,265.752 175.473,266.471 175.721,266.838C176.295,267.689 177.028,267.911 179.27,267.911C181.54,267.911 182.548,267.632 182.925,266.9C183.1,266.562 183.337,266.47 184.052,266.47C184.94,266.47 184.956,266.482 184.823,267.037C184.64,267.803 183.988,268.504 183.034,268.961L183.034,268.963C181.875,269.519 176.873,269.518 175.694,268.961C174.036,268.179 173.63,266.96 173.63,262.759L173.63,260.095L172.937,260.095C172.262,260.095 172.244,260.072 172.244,259.271C172.244,258.467 172.263,258.449 172.937,258.449L173.63,258.449L173.63,257.317L173.63,256.186ZM115.522,258.447L115.522,258.449C119.495,258.449 120.401,258.632 121.434,259.64C122.359,260.543 122.55,261.274 122.55,263.899C122.55,265.462 122.458,266.506 122.279,266.94C121.903,267.852 121.026,268.657 119.999,269.034L119.999,269.032C118.851,269.455 112.14,269.472 111.021,269.058C108.954,268.292 108.506,267.381 108.499,263.945C108.495,261.27 108.68,260.548 109.61,259.64C110.644,258.632 111.549,258.449 115.522,258.449L115.522,258.447ZM156.802,258.449L157.692,258.449C158.554,258.449 158.583,258.468 158.583,259.085L158.583,259.72L159.184,259.195C160.003,258.479 160.573,258.404 164.561,258.483C168.01,258.552 168.023,258.553 168.975,259.168C170.591,260.212 170.749,260.741 170.821,265.391L170.883,269.352L170.096,269.352L169.312,269.352L169.243,265.597C169.183,262.327 169.126,261.769 168.799,261.267C168.098,260.19 167.473,260.005 164.253,259.924C160.921,259.84 159.963,260.068 159.084,261.153C158.587,261.765 158.583,261.807 158.583,265.561L158.583,269.352L157.692,269.352L156.802,269.352L156.802,263.899L156.802,258.449ZM147.558,258.451C151.523,258.449 152.471,258.62 153.535,259.532C154.462,260.325 154.822,261.199 154.822,262.659L154.822,263.797L148.586,263.797L142.348,263.797L142.348,264.899C142.348,265.705 142.47,266.187 142.801,266.699C143.504,267.784 144.267,267.945 148.324,267.871C151.512,267.813 151.874,267.77 152.378,267.378C152.683,267.142 152.981,266.726 153.042,266.453C153.136,266.037 153.292,265.946 154.016,265.892L154.878,265.827L154.757,266.608C154.593,267.657 154.081,268.332 153.035,268.887L153.035,268.889C152.21,269.327 151.942,269.351 147.998,269.337C143.555,269.321 142.735,269.179 141.795,268.267C140.974,267.471 140.71,266.673 140.61,264.685C140.448,261.455 141.113,259.865 143.018,258.944C143.965,258.485 144.261,258.453 147.558,258.451L147.558,258.451ZM147.465,259.888C145.842,259.903 144.262,259.999 143.86,260.173C143.113,260.497 142.348,261.408 142.348,261.973C142.348,262.339 142.609,262.358 147.694,262.358L153.04,262.358L153.04,261.873C153.04,261.197 152.242,260.375 151.332,260.112C150.755,259.946 149.088,259.875 147.465,259.888L147.465,259.888ZM115.557,259.992C112.286,259.992 111.896,260.03 111.266,260.413C110.388,260.947 110.103,261.78 110.089,263.856C110.07,266.214 110.661,267.344 112.099,267.717L112.101,267.717C112.46,267.809 114.177,267.868 115.919,267.846C119.501,267.8 120.086,267.621 120.645,266.398C121.1,265.397 121.085,262.5 120.618,261.549C119.901,260.089 119.586,259.992 115.556,259.992L115.557,259.992ZM131.559,259.992C128.52,259.992 128.126,260.033 127.501,260.415C126.504,261.023 126.318,261.562 126.315,263.859C126.311,266.602 126.668,267.268 128.391,267.73C128.718,267.82 130.321,267.872 131.954,267.846C136.284,267.782 136.805,267.361 136.805,263.93C136.805,261.66 136.611,261.081 135.633,260.449C134.973,260.021 134.694,259.992 131.559,259.992L131.559,259.992ZM151.11,281.904L151.11,281.912L152.149,281.912L155.977,289.311C158.083,293.381 159.882,296.758 159.973,296.817C160.194,296.959 159.947,297.394 164.237,289.208L168.011,282.003L169.039,281.942C169.604,281.908 170.061,281.954 170.058,282.043C170.054,282.134 168.111,285.912 165.742,290.438L161.433,298.665L160.122,298.726L158.81,298.785L158.121,297.491C156.469,294.387 150.071,282.062 150.071,281.984C150.071,281.937 150.538,281.902 151.11,281.904L151.11,281.904ZM180.525,281.916C181.354,281.904 182.173,281.904 182.914,281.927L182.914,281.938C183.901,281.965 184.746,282.017 185.285,282.106C188.725,282.672 189.862,284.001 189.862,287.459C189.862,290.201 189.189,291.319 187.127,292.008C185.999,292.384 185.107,292.472 181.054,292.601C176.507,292.747 174.883,292.957 174.214,293.49C173.519,294.043 173.233,294.757 173.233,295.939L173.233,297.129L189.863,297.129L189.863,298.775L180.559,298.775L171.253,298.775L171.253,297.241C171.253,294.798 171.566,293.669 172.518,292.676C173.808,291.331 174.683,291.137 180.361,290.944C183.029,290.852 185.535,290.678 185.931,290.555C187.528,290.061 188.218,288.879 188.027,286.966C187.812,284.807 187.029,284.102 184.464,283.756C182.612,283.505 178.686,283.507 176.816,283.756C174.682,284.043 173.995,284.453 173.63,285.653L173.333,286.629L172.367,286.629L171.401,286.629L171.535,285.756C171.8,284.035 172.742,283.033 174.702,282.384C175.464,282.131 178.037,281.961 180.525,281.923L180.525,281.916Z" style="fill:rgb(44,45,48);fill-rule:nonzero;"/>
        </g>
        <g id="text1790" transform="matrix(0.930159,0,0,1.07509,60,224.114)">
            <path id="path1841" d="M32.253,76.421L34.24,76.421C35.795,76.421 36.572,77.386 36.572,79.317C36.572,80.055 36.471,80.602 36.269,80.959C36.067,81.316 35.71,81.586 35.198,81.769C35.785,82.004 36.187,82.305 36.403,82.671C36.624,83.033 36.734,83.578 36.734,84.306C36.734,86.303 35.879,87.301 34.169,87.301L32.253,87.301L32.253,76.421ZM33.634,81.213C34.202,81.213 34.597,81.081 34.818,80.818C35.038,80.541 35.149,80.055 35.149,79.359C35.149,78.185 34.726,77.598 33.88,77.598L33.768,77.598L33.704,77.598C33.667,77.598 33.643,77.6 33.634,77.605L33.634,81.213ZM33.634,86.047C34.235,86.047 34.651,85.918 34.881,85.659C35.111,85.401 35.226,84.933 35.226,84.257C35.226,83.562 35.106,83.075 34.867,82.798C34.632,82.516 34.221,82.375 33.634,82.375L33.634,86.047Z" style="fill:rgb(158,161,168);fill-rule:nonzero;"/>
            <path id="path1843" d="M37.249,76.421L38.799,76.421L39.518,78.789C39.541,78.859 39.565,78.937 39.588,79.021C39.612,79.106 39.64,79.197 39.673,79.296C39.94,80.151 40.124,80.87 40.222,81.452C40.307,80.87 40.377,80.463 40.434,80.233L40.659,79.261L40.744,78.88L41.35,76.421L42.879,76.421L40.983,82.622L40.983,87.301L39.518,87.301L39.518,82.622L37.249,76.421Z" style="fill:rgb(158,161,168);fill-rule:nonzero;"/>
            <path id="path1845" d="M43.696,76.421L45.627,76.421C46.557,76.421 47.234,76.656 47.657,77.126C48.079,77.6 48.291,78.352 48.291,79.381C48.291,80.828 47.866,81.762 47.015,82.185C46.588,82.378 45.97,82.474 45.162,82.474L45.162,87.301L43.696,87.301L43.696,76.421ZM45.162,81.22C45.768,81.22 46.186,81.098 46.416,80.853C46.651,80.604 46.769,80.163 46.769,79.529C46.769,78.88 46.656,78.406 46.43,78.105C46.205,77.804 45.85,77.654 45.366,77.654L45.162,77.654L45.162,81.22Z" style="fill:rgb(158,161,168);fill-rule:nonzero;"/>
            <path id="path1847" d="M50.63,76.421L51.772,76.421L54.104,87.301L52.653,87.301L52.244,85.18L50.088,85.18L49.672,87.301L48.263,87.301L50.63,76.421ZM52.033,84.045L51.708,82.312C51.492,81.133 51.316,79.874 51.18,78.535C51.114,79.188 51.03,79.85 50.926,80.522C50.823,81.189 50.701,81.899 50.56,82.65L50.292,84.045L52.033,84.045Z" style="fill:rgb(158,161,168);fill-rule:nonzero;"/>
            <path id="path1849" d="M58.6,76.646L58.6,78.077C58.154,77.758 57.752,77.598 57.395,77.598C57.01,77.598 56.695,77.734 56.451,78.006C56.206,78.265 56.084,78.61 56.084,79.042C56.084,79.423 56.171,79.749 56.345,80.022C56.434,80.167 56.58,80.355 56.782,80.586C56.989,80.816 57.254,81.093 57.578,81.417C58.175,82.023 58.581,82.547 58.797,82.988C59.013,83.416 59.121,83.94 59.121,84.56C59.121,85.401 58.884,86.094 58.41,86.639C57.935,87.169 57.327,87.435 56.585,87.435C55.96,87.435 55.427,87.263 54.985,86.921L54.985,85.469C55.506,85.849 55.981,86.04 56.408,86.04C56.808,86.04 57.12,85.908 57.346,85.645C57.571,85.377 57.684,85.016 57.684,84.56C57.684,84.165 57.597,83.811 57.423,83.496C57.334,83.346 57.209,83.174 57.05,82.981C56.89,82.784 56.69,82.566 56.451,82.326C56.08,81.96 55.772,81.636 55.528,81.354C55.283,81.072 55.103,80.825 54.985,80.614C54.76,80.2 54.647,79.679 54.647,79.049C54.647,78.199 54.868,77.525 55.309,77.027C55.756,76.524 56.354,76.273 57.106,76.273C57.628,76.273 58.126,76.398 58.6,76.647L58.6,76.646Z" style="fill:rgb(158,161,168);fill-rule:nonzero;"/>
            <path id="path1851" d="M63.984,76.646L63.984,78.077C63.537,77.758 63.136,77.598 62.779,77.598C62.393,77.598 62.079,77.734 61.834,78.006C61.59,78.265 61.468,78.61 61.468,79.042C61.468,79.423 61.555,79.749 61.729,80.022C61.818,80.167 61.964,80.355 62.166,80.586C62.372,80.816 62.638,81.093 62.962,81.417C63.558,82.023 63.965,82.547 64.181,82.988C64.397,83.416 64.505,83.94 64.505,84.56C64.505,85.401 64.268,86.094 63.793,86.639C63.319,87.169 62.711,87.435 61.968,87.435C61.343,87.435 60.81,87.263 60.369,86.921L60.369,85.469C60.89,85.849 61.365,86.04 61.792,86.04C62.191,86.04 62.504,85.908 62.729,85.645C62.955,85.377 63.068,85.016 63.068,84.56C63.068,84.165 62.981,83.811 62.807,83.496C62.718,83.346 62.593,83.174 62.433,82.981C62.274,82.784 62.074,82.566 61.834,82.326C61.463,81.96 61.156,81.636 60.911,81.354C60.667,81.072 60.486,80.825 60.369,80.614C60.143,80.2 60.03,79.679 60.03,79.049C60.03,78.199 60.251,77.525 60.693,77.027C61.139,76.524 61.738,76.273 62.49,76.273C63.011,76.273 63.509,76.398 63.984,76.647L63.984,76.646Z" style="fill:rgb(158,161,168);fill-rule:nonzero;"/>
        </g>
        <g id="text1406" transform="matrix(0.909373,0,0,1.09966,0,0)">
            <path id="path1414" d="M28.428,92.393L31.902,92.393L31.902,92.945C31.902,95.708 31.66,97.574 31.176,98.542C30.698,99.535 29.804,100.031 28.492,100.031C27.138,100.031 26.173,99.48 25.597,98.377C25.027,97.274 24.742,95.42 24.742,92.816C24.742,89.838 25.055,87.856 25.68,86.869C26.268,85.944 27.172,85.481 28.391,85.481C29.323,85.481 30.049,85.705 30.57,86.152C31.097,86.606 31.507,87.35 31.801,88.386L30.018,89.13C29.939,88.756 29.85,88.444 29.752,88.193C29.654,87.935 29.546,87.736 29.43,87.595C29.197,87.307 28.848,87.163 28.382,87.163C27.745,87.163 27.31,87.555 27.077,88.34C26.844,89.161 26.728,90.634 26.728,92.761C26.728,94.911 26.847,96.367 27.086,97.127C27.325,97.886 27.775,98.266 28.437,98.266C29.044,98.266 29.47,97.997 29.715,97.457C29.966,96.881 30.092,95.956 30.092,94.682L30.092,94.296L30.092,94.011L28.428,94.011L28.428,92.393Z" style="fill:rgb(158,161,168);fill-rule:nonzero;"/>
            <path id="path1416" d="M35.836,85.665L37.325,85.665L40.368,99.856L38.474,99.856L37.941,97.09L35.129,97.09L34.586,99.856L32.748,99.856L35.836,85.665ZM37.665,95.61L37.243,93.349C36.961,91.811 36.731,90.169 36.553,88.422C36.467,89.274 36.357,90.138 36.222,91.014C36.088,91.884 35.928,92.81 35.744,93.79L35.395,95.61L37.665,95.61Z" style="fill:rgb(158,161,168);fill-rule:nonzero;"/>
            <rect id="path1418" x="41.498" y="85.665" width="1.912" height="14.192" style="fill:rgb(158,161,168);fill-rule:nonzero;"/>
            <path id="path1420" d="M45.616,85.665L47.399,85.665L49.302,91.327C49.853,92.926 50.34,94.633 50.763,96.446C50.61,95.35 50.497,94.357 50.423,93.468C50.35,92.58 50.313,91.743 50.313,90.959L50.313,85.665L52.234,85.665L52.234,99.856L50.441,99.856L48.3,93.468C48.104,92.874 47.917,92.264 47.739,91.639C47.568,91.014 47.408,90.359 47.261,89.672C47.249,89.587 47.227,89.482 47.197,89.36C47.172,89.237 47.142,89.096 47.105,88.937C47.123,89.096 47.139,89.234 47.151,89.351C47.163,89.461 47.172,89.556 47.179,89.636L47.28,91.079L47.381,92.834C47.387,92.932 47.39,93.052 47.39,93.193C47.396,93.334 47.399,93.493 47.399,93.671L47.5,99.856L45.616,99.856L45.616,85.665Z" style="fill:rgb(158,161,168);fill-rule:nonzero;"/>
        </g>
        <rect id="rect1408" x="2" y="28" width="66" height="60" style="fill:rgb(158,161,168);fill-opacity:0.98;"/>
        <rect id="rect1410" x="72" y="28" width="66" height="60" style="fill:rgb(158,161,168);fill-opacity:0.98;"/>
        <rect id="rect1412" x="142" y="28" width="66" height="60" style="fill:rgb(158,161,168);fill-opacity:0.98;"/>
        <g id="text1448" transform="matrix(0.925579,0,0,1.0804,0,0)">
            <path id="path1482" d="M12.965,181.017L15.276,181.017C16.233,181.017 16.944,181.245 17.411,181.7C18.001,182.291 18.297,183.194 18.297,184.408C18.297,185.342 18.139,186.093 17.824,186.661C17.515,187.223 17.071,187.572 16.491,187.707L18.887,194.043L17.107,194.043L14.72,187.665L14.72,194.043L12.965,194.043L12.965,181.017ZM14.72,186.787C15.4,186.787 15.881,186.63 16.162,186.315C16.443,186 16.584,185.469 16.584,184.721C16.584,184.316 16.553,183.97 16.491,183.683C16.435,183.396 16.342,183.163 16.213,182.983C16.089,182.803 15.926,182.671 15.724,182.586C15.527,182.502 15.29,182.46 15.015,182.46L14.72,182.46L14.72,186.787Z" style="fill:rgb(158,161,168);fill-rule:nonzero;"/>
            <path id="path1484" d="M20.051,181.017L21.772,181.017L21.772,190.221C21.772,191.16 21.857,191.784 22.025,192.094C22.2,192.403 22.543,192.558 23.055,192.558C23.566,192.558 23.904,192.423 24.067,192.153C24.236,191.877 24.32,191.318 24.32,190.474L24.32,181.017L26.041,181.017L26.041,190.474C26.041,191.891 25.825,192.85 25.391,193.351C24.874,193.919 24.084,194.203 23.021,194.203C21.851,194.203 21.027,193.837 20.549,193.106C20.217,192.606 20.051,191.644 20.051,190.221L20.051,181.017Z" style="fill:rgb(158,161,168);fill-rule:nonzero;"/>
            <path id="path1486" d="M28.049,181.017L32.714,181.017L32.714,182.502L29.804,182.502L29.804,186.627L32.385,186.627L32.385,188.112L29.804,188.112L29.804,192.558L32.714,192.558L32.714,194.043L28.049,194.043L28.049,181.017Z" style="fill:rgb(158,161,168);fill-rule:nonzero;"/>
            <path id="path1488" d="M33.288,181.017L38.999,181.017L38.999,182.552L37.034,182.552L37.034,194.043L35.313,194.043L35.313,182.552L33.288,182.552L33.288,181.017Z" style="fill:rgb(158,161,168);fill-rule:nonzero;"/>
            <path id="path1490" d="M39.64,181.017L45.377,181.017L41.463,192.507L45.166,192.507L45.166,194.043L39.176,194.043L43.125,182.502L39.64,182.502L39.64,181.017Z" style="fill:rgb(158,161,168);fill-rule:nonzero;"/>
        </g>
        <g id="text1452" transform="matrix(0.967813,0,0,1.03326,0,0)">
            <path id="path1477" d="M188.429,196.598C188.429,199.004 188.161,200.712 187.626,201.723C187.091,202.735 186.194,203.241 184.936,203.241C183.613,203.241 182.68,202.697 182.139,201.609C181.604,200.544 181.337,198.654 181.337,195.937C181.337,193.514 181.601,191.8 182.131,190.794C182.666,189.782 183.571,189.277 184.848,189.277C185.988,189.277 186.835,189.668 187.388,190.45C187.753,190.973 188.017,191.717 188.182,192.682C188.347,193.576 188.429,194.881 188.429,196.598L188.429,196.598ZM186.506,196.792C186.506,194.434 186.4,192.87 186.188,192.099C185.977,191.323 185.544,190.935 184.892,190.935C184.239,190.935 183.804,191.291 183.586,192.002C183.374,192.72 183.269,194.161 183.269,196.325C183.269,198.318 183.38,199.7 183.604,200.471C183.833,201.2 184.262,201.565 184.892,201.565C185.509,201.565 185.933,201.224 186.162,200.541C186.391,199.865 186.506,198.615 186.506,196.792Z" style="fill:rgb(158,161,168);fill-rule:nonzero;"/>
            <path id="path1479" d="M190.255,189.453L192.513,189.453C193.201,189.453 193.781,189.53 194.251,189.682C194.686,189.829 195.074,190.091 195.415,190.468C195.927,191.032 196.292,191.767 196.509,192.673C196.727,193.549 196.836,194.805 196.836,196.44C196.836,197.939 196.715,199.162 196.474,200.109C196.239,201.015 195.851,201.706 195.31,202.182C194.645,202.776 193.454,203.073 191.737,203.073L190.255,203.073L190.255,189.453ZM192.09,201.468C193.207,201.468 193.954,201.129 194.33,200.453C194.718,199.777 194.913,198.463 194.913,196.51C194.913,194.411 194.727,192.967 194.357,192.179C193.986,191.391 193.307,190.997 192.319,190.997L192.09,190.997L192.09,201.468Z" style="fill:rgb(158,161,168);fill-rule:nonzero;"/>
        </g>
        <g id="text1456" transform="matrix(0.942028,0,0,1.06154,0,0)">
            <path id="path1466" d="M123.139,184.406L128.951,184.406L128.951,185.968L126.951,185.968L126.951,197.663L125.199,197.663L125.199,185.968L123.139,185.968L123.139,184.406Z" style="fill:rgb(158,161,168);fill-rule:nonzero;"/>
            <rect id="path1468" x="129.93" y="184.406" width="1.786" height="13.257" style="fill:rgb(158,161,168);fill-rule:nonzero;"/>
            <path id="path1470" d="M136.954,190.691L140.199,190.691L140.199,191.206C140.199,193.788 139.973,195.53 139.521,196.435C139.075,197.362 138.239,197.826 137.014,197.826C135.749,197.826 134.847,197.311 134.309,196.28C133.777,195.25 133.511,193.518 133.511,191.086C133.511,188.304 133.803,186.452 134.387,185.53C134.936,184.666 135.78,184.234 136.919,184.234C137.79,184.234 138.468,184.443 138.954,184.861C139.447,185.284 139.83,185.98 140.105,186.947L138.439,187.643C138.365,187.293 138.282,187.002 138.19,186.767C138.099,186.526 137.998,186.34 137.89,186.209C137.672,185.94 137.346,185.805 136.911,185.805C136.316,185.805 135.909,186.172 135.692,186.904C135.474,187.671 135.365,189.048 135.365,191.034C135.365,193.043 135.477,194.403 135.7,195.113C135.923,195.822 136.344,196.177 136.962,196.177C137.529,196.177 137.927,195.925 138.156,195.422C138.391,194.884 138.508,194.019 138.508,192.829L138.508,192.468L138.508,192.202L136.954,192.202L136.954,190.691Z" style="fill:rgb(158,161,168);fill-rule:nonzero;"/>
            <path id="path1472" d="M141.985,184.406L143.771,184.406L143.771,189.592L146.39,189.592L146.39,184.406L148.176,184.406L148.176,197.663L146.39,197.663L146.39,191.103L143.771,191.103L143.771,197.663L141.985,197.663L141.985,184.406Z" style="fill:rgb(158,161,168);fill-rule:nonzero;"/>
            <path id="path1474" d="M149.172,184.406L154.985,184.406L154.985,185.968L152.984,185.968L152.984,197.663L151.233,197.663L151.233,185.968L149.172,185.968L149.172,184.406Z" style="fill:rgb(158,161,168);fill-rule:nonzero;"/>
        </g>
        <rect id="rect1458" x="2" y="140" width="50" height="50" style="fill:rgb(158,161,168);"/>
        <rect id="rect1460" x="54" y="140" width="50" height="50" style="fill:rgb(158,161,168);"/>
        <rect id="rect1462" x="106" y="140" width="50" height="50" style="fill:rgb(158,161,168);"/>
        <rect id="rect1464" x="158" y="140" width="50" height="50" style="fill:rgb(158,161,168);"/>
    </g>
</svg>
