<?xml version="1.0" encoding="UTF-8" standalone="no"?>
<!DOCTYPE svg PUBLIC "-//W3C//DTD SVG 1.1//EN" "http://www.w3.org/Graphics/SVG/1.1/DTD/svg11.dtd">
<svg width="100%" height="100%" viewBox="0 0 210 380" version="1.1" xmlns="http://www.w3.org/2000/svg" xmlns:xlink="http://www.w3.org/1999/xlink" xml:space="preserve" xmlns:serif="http://www.serif.com/" style="fill-rule:evenodd;clip-rule:evenodd;stroke-linejoin:round;stroke-miterlimit:2;">
    <g id="Layer-2" serif:id="Layer 2">
        <g id="text989">
        </g>
        <rect id="rect4689" x="0" y="0" width="210" height="380" style="fill:rgb(44,45,48);fill-rule:nonzero;"/>
        <g id="text4987">
        </g>
        <g id="text1042">
        </g>
        <g id="text2090">
        </g>
        <g id="g1356" transform="matrix(1,0,0,1,-2.60983e-07,300.5)">
            <g id="g1335">
                <rect id="rect4778-3-6" x="6" y="27.5" width="34" height="42" style="fill:rgb(179,179,179);"/>
                <g id="text4613" transform="matrix(1,0,0,1,-7.55905e-07,4.49973)">
                    <path id="path4701" d="M17.141,61L15.047,61L15.047,55.37L17.141,55.37L17.141,61ZM17.318,53.625C17.318,53.955 17.198,54.24 16.958,54.479C16.712,54.715 16.425,54.833 16.099,54.833C15.762,54.833 15.474,54.714 15.234,54.474C14.998,54.227 14.88,53.939 14.88,53.609C14.88,53.273 14.998,52.986 15.234,52.75C15.481,52.514 15.767,52.396 16.094,52.396C16.438,52.396 16.727,52.516 16.964,52.755C17.2,52.991 17.318,53.281 17.318,53.625Z" style="fill:rgb(44,45,48);fill-rule:nonzero;"/>
                    <path id="path4703" d="M23.068,61L20.979,61L20.979,58.021C20.979,57.764 20.953,57.585 20.901,57.484C20.852,57.384 20.766,57.333 20.641,57.333C20.349,57.333 20.203,57.609 20.203,58.161L20.203,61L18.115,61L18.115,55.37L20.203,55.37C20.2,55.509 20.196,55.637 20.193,55.755C20.189,55.873 20.184,55.983 20.177,56.083L20.156,56.443C20.493,55.648 20.986,55.25 21.635,55.25C22.087,55.25 22.438,55.418 22.688,55.755C22.941,56.092 23.068,56.561 23.068,57.161L23.068,61Z" style="fill:rgb(44,45,48);fill-rule:nonzero;"/>
                    <path id="path4705" d="M31.12,61L27.318,61L27.318,52.958L29.49,52.958L29.49,59.068L31.12,59.068L31.12,61Z" style="fill:rgb(44,45,48);fill-rule:nonzero;"/>
                </g>
            </g>
            <g id="g1342">
                <rect id="rect4662" x="50" y="27.5" width="34" height="42" style="fill:rgb(179,179,179);"/>
                <g id="text4617" transform="matrix(1,0,0,1,-7.55905e-07,4.49973)">
                    <path id="path4708" d="M60.182,61L58.089,61L58.089,55.37L60.182,55.37L60.182,61ZM60.359,53.625C60.359,53.955 60.24,54.24 60,54.479C59.753,54.715 59.467,54.833 59.141,54.833C58.804,54.833 58.516,54.714 58.276,54.474C58.04,54.227 57.922,53.939 57.922,53.609C57.922,53.273 58.04,52.986 58.276,52.75C58.523,52.514 58.809,52.396 59.135,52.396C59.479,52.396 59.769,52.516 60.005,52.755C60.241,52.991 60.359,53.281 60.359,53.625L60.359,53.625Z" style="fill:rgb(44,45,48);fill-rule:nonzero;"/>
                    <path id="path4710" d="M66.109,61L64.021,61L64.021,58.021C64.021,57.764 63.995,57.585 63.943,57.484C63.894,57.384 63.807,57.333 63.682,57.333C63.391,57.333 63.245,57.609 63.245,58.161L63.245,61L61.156,61L61.156,55.37L63.245,55.37C63.241,55.509 63.238,55.637 63.234,55.755C63.231,55.873 63.226,55.983 63.219,56.083L63.198,56.443C63.535,55.648 64.028,55.25 64.677,55.25C65.128,55.25 65.479,55.418 65.729,55.755C65.983,56.092 66.109,56.561 66.109,57.161L66.109,61Z" style="fill:rgb(44,45,48);fill-rule:nonzero;"/>
                    <path id="path4712" d="M76.078,61L73.729,61L72.656,58.135C72.646,58.087 72.627,58.023 72.599,57.943C72.575,57.863 72.544,57.767 72.505,57.656L72.521,58.187L72.521,61L70.359,61L70.359,52.958L72.583,52.958C73.562,52.958 74.295,53.151 74.781,53.536C75.399,54.03 75.708,54.731 75.708,55.641C75.708,56.613 75.293,57.285 74.463,57.656L76.078,61ZM72.531,56.682L72.677,56.682C72.927,56.682 73.135,56.587 73.302,56.396C73.469,56.205 73.552,55.962 73.552,55.667C73.552,55.066 73.238,54.766 72.609,54.766L72.531,54.766L72.531,56.682Z" style="fill:rgb(44,45,48);fill-rule:nonzero;"/>
                </g>
            </g>
        </g>
        <g id="g1402" transform="matrix(1,0,0,1,-2,0)">
            <g id="g4922" transform="matrix(1,0,0,1,122,17.9996)">
                <rect id="rect4778" x="6" y="310" width="34" height="42" style="fill:rgb(60,60,60);"/>
                <g id="text4861">
                    <path id="path4899" d="M16.849,345.271C16.849,346.139 16.609,346.83 16.13,347.344C15.651,347.858 15.009,348.115 14.203,348.115C13.411,348.115 12.781,347.852 12.313,347.328C11.847,346.8 11.615,346.092 11.615,345.203C11.615,344.314 11.852,343.601 12.328,343.062C12.8,342.521 13.427,342.25 14.208,342.25C15.031,342.25 15.677,342.519 16.146,343.057C16.615,343.595 16.849,344.333 16.849,345.271ZM14.823,345.203C14.823,344.995 14.809,344.807 14.781,344.641C14.753,344.47 14.714,344.326 14.661,344.208C14.609,344.087 14.547,343.993 14.474,343.927C14.401,343.861 14.319,343.828 14.229,343.828C14.052,343.828 13.91,343.953 13.802,344.203C13.694,344.422 13.641,344.75 13.641,345.188C13.641,345.618 13.694,345.946 13.802,346.172C13.91,346.422 14.054,346.547 14.234,346.547C14.405,346.547 14.545,346.424 14.656,346.177C14.767,345.903 14.823,345.578 14.823,345.203L14.823,345.203Z" style="fill:rgb(197,200,209);fill-rule:nonzero;"/>
                    <path id="path4901" d="M17.651,342.37L19.74,342.37L19.74,345.542C19.74,345.844 19.769,346.064 19.828,346.203C19.891,346.318 20.009,346.375 20.182,346.375C20.352,346.375 20.467,346.318 20.526,346.203C20.589,346.089 20.62,345.868 20.62,345.542L20.62,342.37L22.708,342.37L22.708,345.823C22.708,346.052 22.689,346.26 22.651,346.448C22.616,346.632 22.559,346.8 22.479,346.953C22.403,347.102 22.302,347.24 22.177,347.365C22.056,347.49 21.91,347.604 21.74,347.708C21.281,347.979 20.762,348.115 20.182,348.115C19.595,348.115 19.076,347.979 18.625,347.708C18.451,347.604 18.302,347.491 18.177,347.37C18.056,347.245 17.955,347.106 17.875,346.953C17.799,346.8 17.741,346.632 17.703,346.448C17.668,346.26 17.651,346.052 17.651,345.823L17.651,342.37Z" style="fill:rgb(197,200,209);fill-rule:nonzero;"/>
                    <path id="path4903" d="M26.047,348L23.953,348L23.953,344.052L23.359,344.052L23.359,342.37L23.953,342.37L23.953,340.714L26.047,340.714L26.047,342.37L26.74,342.37L26.74,344.052L26.047,344.052L26.047,348Z" style="fill:rgb(197,200,209);fill-rule:nonzero;"/>
                    <path id="path4905" d="M34.385,348L30.583,348L30.583,339.958L32.755,339.958L32.755,346.068L34.385,346.068L34.385,348Z" style="fill:rgb(197,200,209);fill-rule:nonzero;"/>
                </g>
            </g>
            <g id="g4914" transform="matrix(1,0,0,1,122,17.9993)">
                <rect id="rect4778-3" x="50" y="310" width="34" height="42" style="fill:rgb(60,60,60);"/>
                <g id="text4886">
                    <path id="path4890" d="M59.891,345.271C59.891,346.139 59.651,346.83 59.172,347.344C58.693,347.858 58.05,348.115 57.245,348.115C56.453,348.115 55.823,347.852 55.354,347.328C54.889,346.8 54.656,346.092 54.656,345.203C54.656,344.314 54.894,343.601 55.37,343.062C55.842,342.521 56.469,342.25 57.25,342.25C58.073,342.25 58.719,342.519 59.188,343.057C59.656,343.595 59.891,344.333 59.891,345.271ZM57.865,345.203C57.865,344.995 57.851,344.807 57.823,344.641C57.795,344.47 57.755,344.326 57.703,344.208C57.651,344.087 57.589,343.993 57.516,343.927C57.443,343.861 57.361,343.828 57.271,343.828C57.094,343.828 56.951,343.953 56.844,344.203C56.736,344.422 56.682,344.75 56.682,345.187C56.682,345.618 56.736,345.946 56.844,346.172C56.951,346.422 57.095,346.547 57.276,346.547C57.446,346.547 57.587,346.424 57.698,346.177C57.809,345.903 57.865,345.578 57.865,345.203L57.865,345.203Z" style="fill:rgb(197,200,209);fill-rule:nonzero;"/>
                    <path id="path4892" d="M60.693,342.37L62.781,342.37L62.781,345.542C62.781,345.844 62.811,346.064 62.87,346.203C62.932,346.318 63.05,346.375 63.224,346.375C63.394,346.375 63.509,346.318 63.568,346.203C63.63,346.089 63.662,345.868 63.662,345.542L63.662,342.37L65.75,342.37L65.75,345.823C65.75,346.052 65.731,346.26 65.693,346.448C65.658,346.632 65.601,346.8 65.521,346.953C65.444,347.102 65.344,347.24 65.219,347.365C65.097,347.49 64.951,347.604 64.781,347.708C64.323,347.979 63.804,348.115 63.224,348.115C62.637,348.115 62.118,347.979 61.667,347.708C61.493,347.604 61.344,347.491 61.219,347.37C61.097,347.245 60.997,347.106 60.917,346.953C60.84,346.8 60.783,346.632 60.745,346.448C60.71,346.26 60.693,346.052 60.693,345.823L60.693,342.37Z" style="fill:rgb(197,200,209);fill-rule:nonzero;"/>
                    <path id="path4894" d="M69.089,348L66.995,348L66.995,344.052L66.401,344.052L66.401,342.37L66.995,342.37L66.995,340.714L69.089,340.714L69.089,342.37L69.781,342.37L69.781,344.052L69.089,344.052L69.089,348Z" style="fill:rgb(197,200,209);fill-rule:nonzero;"/>
                    <path id="path4896" d="M79.344,348L76.995,348L75.922,345.135C75.912,345.087 75.892,345.023 75.865,344.943C75.84,344.863 75.809,344.767 75.771,344.656L75.786,345.187L75.786,348L73.625,348L73.625,339.958L75.849,339.958C76.828,339.958 77.561,340.151 78.047,340.536C78.665,341.029 78.974,341.731 78.974,342.641C78.974,343.613 78.559,344.285 77.729,344.656L79.344,348ZM75.797,343.682L75.943,343.682C76.193,343.682 76.401,343.587 76.568,343.396C76.734,343.205 76.818,342.962 76.818,342.667C76.818,342.066 76.503,341.766 75.875,341.766L75.797,341.766L75.797,343.682Z" style="fill:rgb(197,200,209);fill-rule:nonzero;"/>
                </g>
            </g>
        </g>
        <g id="text1802" transform="matrix(1.04638,0,0,1.22872,118.554,-42.0292)">
            <path id="path1804" d="M32.441,198.745L34.127,198.745L34.892,203.434L35.024,204.281L35.296,206.124C35.339,206.436 35.378,206.721 35.411,206.979C35.449,207.237 35.482,207.47 35.509,207.678L35.592,208.304C35.608,208.177 35.622,208.065 35.633,207.966C35.644,207.868 35.655,207.785 35.666,207.72L35.888,206.247L36.176,204.314C36.203,204.139 36.228,203.977 36.25,203.829C36.277,203.681 36.302,203.549 36.324,203.434L37.146,198.745L38.742,198.745L36.25,211.446L34.892,211.446L32.441,198.745Z" style="fill:rgb(158,161,168);fill-rule:nonzero;"/>
            <path id="path1806" d="M46.063,205.408C46.063,207.651 45.814,209.244 45.315,210.187C44.816,211.131 43.979,211.602 42.806,211.602C41.572,211.602 40.703,211.095 40.198,210.08C39.699,209.088 39.45,207.325 39.45,204.791C39.45,202.532 39.696,200.933 40.19,199.995C40.689,199.052 41.534,198.581 42.724,198.581C43.787,198.581 44.577,198.945 45.093,199.675C45.433,200.163 45.679,200.856 45.833,201.756C45.987,202.589 46.063,203.807 46.063,205.408L46.063,205.408ZM44.27,205.589C44.27,203.39 44.171,201.931 43.974,201.213C43.776,200.489 43.373,200.127 42.765,200.127C42.156,200.127 41.75,200.459 41.547,201.122C41.35,201.791 41.251,203.135 41.251,205.153C41.251,207.012 41.355,208.301 41.564,209.019C41.778,209.699 42.178,210.039 42.765,210.039C43.34,210.039 43.735,209.721 43.949,209.085C44.163,208.454 44.27,207.289 44.27,205.589L44.27,205.589Z" style="fill:rgb(158,161,168);fill-rule:nonzero;"/>
            <path id="path1808" d="M47.766,198.745L49.477,198.745L49.477,209.998L52.274,209.998L52.274,211.446L47.766,211.446L47.766,198.745Z" style="fill:rgb(158,161,168);fill-rule:nonzero;"/>
            <path id="path1810" d="M53.491,198.745L55.169,198.745L55.169,207.72C55.169,208.635 55.252,209.244 55.416,209.546C55.586,209.847 55.921,209.998 56.42,209.998C56.919,209.998 57.248,209.867 57.407,209.603C57.571,209.335 57.654,208.789 57.654,207.966L57.654,198.745L59.332,198.745L59.332,207.966C59.332,209.348 59.121,210.283 58.698,210.771C58.194,211.325 57.423,211.602 56.387,211.602C55.246,211.602 54.443,211.246 53.977,210.533C53.653,210.045 53.491,209.107 53.491,207.72L53.491,198.745Z" style="fill:rgb(158,161,168);fill-rule:nonzero;"/>
            <path id="path1812" d="M61.89,198.745L63.354,198.745L64.473,203.927C64.61,204.575 64.733,205.224 64.843,205.877C64.958,206.524 65.062,207.204 65.156,207.917C65.167,207.824 65.175,207.752 65.18,207.703C65.186,207.648 65.191,207.61 65.197,207.588L65.435,206.132L65.649,204.75L65.839,203.837L66.834,198.745L68.315,198.745L69.483,211.446L67.846,211.446L67.558,207.136C67.547,206.916 67.536,206.727 67.525,206.568C67.519,206.409 67.516,206.277 67.516,206.173L67.442,204.47L67.401,202.907C67.401,202.896 67.399,202.874 67.393,202.842C67.393,202.803 67.39,202.754 67.385,202.693L67.344,202.948C67.3,203.25 67.259,203.513 67.22,203.738C67.187,203.963 67.157,204.152 67.13,204.306L66.916,205.466L66.834,205.902L65.764,211.446L64.613,211.446L63.609,206.658C63.472,206.028 63.349,205.389 63.239,204.742C63.135,204.089 63.039,203.406 62.951,202.694L62.458,211.446L60.845,211.446L61.89,198.745Z" style="fill:rgb(158,161,168);fill-rule:nonzero;"/>
            <path id="path1814" d="M70.897,198.745L75.446,198.745L75.446,200.193L72.608,200.193L72.608,204.215L75.126,204.215L75.126,205.663L72.608,205.663L72.608,209.998L75.446,209.998L75.446,211.446L70.897,211.446L70.897,198.745Z" style="fill:rgb(158,161,168);fill-rule:nonzero;"/>
        </g>
        <g id="text80" transform="matrix(0.87098,0,0,0.995047,66,6.99997)">
            <path id="path4726" d="M29.851,371.706L29.851,363.943L31.853,363.943L32.903,366.668C32.96,366.829 33.024,367.013 33.094,367.221C33.168,367.429 33.249,367.668 33.336,367.94L33.552,368.624C33.475,367.95 33.416,367.373 33.376,366.894C33.336,366.415 33.316,366.013 33.316,365.687L33.316,363.943L35.317,363.943L35.317,371.706L33.316,371.706L32.26,368.85C32.149,368.545 32.049,368.26 31.958,367.995C31.871,367.727 31.794,367.472 31.727,367.231C31.77,367.777 31.802,368.253 31.822,368.659C31.843,369.065 31.853,369.42 31.853,369.725L31.853,371.706L29.851,371.706Z" style="fill:rgb(158,161,168);fill-rule:nonzero;"/>
            <path id="path4728" d="M39.887,371.706L37.791,371.706L37.791,368.418L35.865,363.943L38.052,363.943L38.429,365.094C38.503,365.319 38.568,365.535 38.625,365.743C38.686,365.951 38.739,366.15 38.786,366.341C38.863,366.056 38.93,365.811 38.987,365.607C39.044,365.399 39.095,365.232 39.138,365.104L39.52,363.943L41.692,363.943L39.887,368.418L39.887,371.706Z" style="fill:rgb(158,161,168);fill-rule:nonzero;"/>
            <path id="path4730" d="M41.894,371.515L41.894,369.076C42.306,369.639 42.752,369.921 43.231,369.921C43.412,369.921 43.56,369.874 43.673,369.78C43.787,369.683 43.844,369.562 43.844,369.418C43.844,369.21 43.72,369.008 43.472,368.81L43.13,368.543C42.902,368.372 42.708,368.203 42.547,368.035C42.386,367.865 42.256,367.69 42.155,367.513C42.054,367.332 41.981,367.146 41.934,366.954C41.887,366.763 41.863,366.562 41.863,366.351C41.863,365.989 41.947,365.61 42.115,365.215C42.199,365.03 42.296,364.863 42.406,364.712C42.517,364.558 42.644,364.422 42.789,364.305C43.184,363.969 43.662,363.802 44.222,363.802C44.721,363.802 45.224,363.934 45.73,364.199L45.73,366.572C45.559,366.308 45.365,366.1 45.147,365.949C44.929,365.795 44.714,365.718 44.503,365.718C44.342,365.718 44.21,365.765 44.106,365.858C43.999,365.949 43.945,366.058 43.945,366.185C43.945,366.393 44.087,366.599 44.372,366.804L44.704,367.05C45.147,367.368 45.463,367.695 45.655,368.03C45.849,368.366 45.946,368.758 45.946,369.207C45.946,369.971 45.713,370.601 45.247,371.098C44.781,371.594 44.191,371.842 43.477,371.842C42.985,371.842 42.457,371.733 41.894,371.515L41.894,371.515Z" style="fill:rgb(158,161,168);fill-rule:nonzero;"/>
            <path id="path4732" d="M49.576,371.706L47.48,371.706L47.48,365.803L46.323,365.803L46.323,363.943L50.778,363.943L50.778,365.803L49.576,365.803L49.576,371.706Z" style="fill:rgb(158,161,168);fill-rule:nonzero;"/>
            <path id="path4734" d="M56.525,371.706L54.428,371.706L54.428,368.584L53.428,368.584L53.428,371.706L51.331,371.706L51.331,363.943L53.428,363.943L53.428,366.688L54.428,366.688L54.428,363.943L56.525,363.943L56.525,371.706Z" style="fill:rgb(158,161,168);fill-rule:nonzero;"/>
            <rect id="path4736" x="57.606" y="363.943" width="2.097" height="7.763" style="fill:rgb(158,161,168);fill-rule:nonzero;"/>
        </g>
        <g id="text1790" transform="matrix(0.930159,0,0,1.07509,60,224.114)">
            <path id="path1841" d="M32.253,76.421L34.24,76.421C35.795,76.421 36.572,77.386 36.572,79.317C36.572,80.055 36.471,80.602 36.269,80.959C36.067,81.316 35.71,81.586 35.198,81.769C35.785,82.004 36.187,82.305 36.403,82.671C36.624,83.033 36.734,83.578 36.734,84.306C36.734,86.303 35.879,87.301 34.169,87.301L32.253,87.301L32.253,76.421ZM33.634,81.213C34.202,81.213 34.597,81.081 34.818,80.818C35.038,80.541 35.149,80.055 35.149,79.359C35.149,78.185 34.726,77.598 33.88,77.598L33.768,77.598L33.704,77.598C33.667,77.598 33.643,77.6 33.634,77.605L33.634,81.213ZM33.634,86.047C34.235,86.047 34.651,85.918 34.881,85.659C35.111,85.401 35.226,84.933 35.226,84.257C35.226,83.562 35.106,83.075 34.867,82.798C34.632,82.516 34.221,82.375 33.634,82.375L33.634,86.047Z" style="fill:rgb(158,161,168);fill-rule:nonzero;"/>
            <path id="path1843" d="M37.249,76.421L38.799,76.421L39.518,78.789C39.541,78.859 39.565,78.937 39.588,79.021C39.612,79.106 39.64,79.197 39.673,79.296C39.94,80.151 40.124,80.87 40.222,81.452C40.307,80.87 40.377,80.463 40.434,80.233L40.659,79.261L40.744,78.88L41.35,76.421L42.879,76.421L40.983,82.622L40.983,87.301L39.518,87.301L39.518,82.622L37.249,76.421Z" style="fill:rgb(158,161,168);fill-rule:nonzero;"/>
            <path id="path1845" d="M43.696,76.421L45.627,76.421C46.557,76.421 47.234,76.656 47.657,77.126C48.079,77.6 48.291,78.352 48.291,79.381C48.291,80.828 47.866,81.762 47.015,82.185C46.588,82.378 45.97,82.474 45.162,82.474L45.162,87.301L43.696,87.301L43.696,76.421ZM45.162,81.22C45.768,81.22 46.186,81.098 46.416,80.853C46.651,80.604 46.769,80.163 46.769,79.529C46.769,78.88 46.656,78.406 46.43,78.105C46.205,77.804 45.85,77.654 45.366,77.654L45.162,77.654L45.162,81.22Z" style="fill:rgb(158,161,168);fill-rule:nonzero;"/>
            <path id="path1847" d="M50.63,76.421L51.772,76.421L54.104,87.301L52.653,87.301L52.244,85.18L50.088,85.18L49.672,87.301L48.263,87.301L50.63,76.421ZM52.033,84.045L51.708,82.312C51.492,81.133 51.316,79.874 51.18,78.535C51.114,79.188 51.03,79.85 50.926,80.522C50.823,81.189 50.701,81.899 50.56,82.65L50.292,84.045L52.033,84.045Z" style="fill:rgb(158,161,168);fill-rule:nonzero;"/>
            <path id="path1849" d="M58.6,76.646L58.6,78.077C58.154,77.758 57.752,77.598 57.395,77.598C57.01,77.598 56.695,77.734 56.451,78.006C56.206,78.265 56.084,78.61 56.084,79.042C56.084,79.423 56.171,79.749 56.345,80.022C56.434,80.167 56.58,80.355 56.782,80.586C56.989,80.816 57.254,81.093 57.578,81.417C58.175,82.023 58.581,82.547 58.797,82.988C59.013,83.416 59.121,83.94 59.121,84.56C59.121,85.401 58.884,86.094 58.41,86.639C57.935,87.169 57.327,87.435 56.585,87.435C55.96,87.435 55.427,87.263 54.985,86.921L54.985,85.469C55.506,85.849 55.981,86.04 56.408,86.04C56.808,86.04 57.12,85.908 57.346,85.645C57.571,85.377 57.684,85.016 57.684,84.56C57.684,84.165 57.597,83.811 57.423,83.496C57.334,83.346 57.209,83.174 57.05,82.981C56.89,82.784 56.69,82.566 56.451,82.326C56.08,81.96 55.772,81.636 55.528,81.354C55.283,81.072 55.103,80.825 54.985,80.614C54.76,80.2 54.647,79.679 54.647,79.049C54.647,78.199 54.868,77.525 55.309,77.027C55.756,76.524 56.354,76.273 57.106,76.273C57.628,76.273 58.126,76.398 58.6,76.647L58.6,76.646Z" style="fill:rgb(158,161,168);fill-rule:nonzero;"/>
            <path id="path1851" d="M63.984,76.646L63.984,78.077C63.537,77.758 63.136,77.598 62.779,77.598C62.393,77.598 62.079,77.734 61.834,78.006C61.59,78.265 61.468,78.61 61.468,79.042C61.468,79.423 61.555,79.749 61.729,80.022C61.818,80.167 61.964,80.355 62.166,80.586C62.372,80.816 62.638,81.093 62.962,81.417C63.558,82.023 63.965,82.547 64.181,82.988C64.397,83.416 64.505,83.94 64.505,84.56C64.505,85.401 64.268,86.094 63.793,86.639C63.319,87.169 62.711,87.435 61.968,87.435C61.343,87.435 60.81,87.263 60.369,86.921L60.369,85.469C60.89,85.849 61.365,86.04 61.792,86.04C62.191,86.04 62.504,85.908 62.729,85.645C62.955,85.377 63.068,85.016 63.068,84.56C63.068,84.165 62.981,83.811 62.807,83.496C62.718,83.346 62.593,83.174 62.433,82.981C62.274,82.784 62.074,82.566 61.834,82.326C61.463,81.96 61.156,81.636 60.911,81.354C60.667,81.072 60.486,80.825 60.369,80.614C60.143,80.2 60.03,79.679 60.03,79.049C60.03,78.199 60.251,77.525 60.693,77.027C61.139,76.524 61.738,76.273 62.49,76.273C63.011,76.273 63.509,76.398 63.984,76.647L63.984,76.646Z" style="fill:rgb(158,161,168);fill-rule:nonzero;"/>
        </g>
        <g id="text1406" transform="matrix(0.909373,0,0,1.09966,70,107.971)">
            <path id="path1414" d="M28.428,92.393L31.902,92.393L31.902,92.945C31.902,95.708 31.66,97.574 31.176,98.542C30.698,99.535 29.804,100.031 28.492,100.031C27.138,100.031 26.173,99.48 25.597,98.377C25.027,97.274 24.742,95.42 24.742,92.816C24.742,89.838 25.055,87.856 25.68,86.869C26.268,85.944 27.172,85.481 28.391,85.481C29.323,85.481 30.049,85.705 30.57,86.152C31.097,86.606 31.507,87.35 31.801,88.386L30.018,89.13C29.939,88.756 29.85,88.444 29.752,88.193C29.654,87.935 29.546,87.736 29.43,87.595C29.197,87.307 28.848,87.163 28.382,87.163C27.745,87.163 27.31,87.555 27.077,88.34C26.844,89.161 26.728,90.634 26.728,92.761C26.728,94.911 26.847,96.367 27.086,97.127C27.325,97.886 27.775,98.266 28.437,98.266C29.044,98.266 29.47,97.997 29.715,97.457C29.966,96.881 30.092,95.956 30.092,94.682L30.092,94.296L30.092,94.011L28.428,94.011L28.428,92.393Z" style="fill:rgb(158,161,168);fill-rule:nonzero;"/>
            <path id="path1416" d="M35.836,85.665L37.325,85.665L40.368,99.856L38.474,99.856L37.941,97.09L35.129,97.09L34.586,99.856L32.748,99.856L35.836,85.665ZM37.665,95.61L37.243,93.349C36.961,91.811 36.731,90.169 36.553,88.422C36.467,89.274 36.357,90.138 36.222,91.014C36.088,91.884 35.928,92.81 35.744,93.79L35.395,95.61L37.665,95.61Z" style="fill:rgb(158,161,168);fill-rule:nonzero;"/>
            <rect id="path1418" x="41.498" y="85.665" width="1.912" height="14.192" style="fill:rgb(158,161,168);fill-rule:nonzero;"/>
            <path id="path1420" d="M45.616,85.665L47.399,85.665L49.302,91.327C49.853,92.926 50.34,94.633 50.763,96.446C50.61,95.35 50.497,94.357 50.423,93.468C50.35,92.58 50.313,91.743 50.313,90.959L50.313,85.665L52.234,85.665L52.234,99.856L50.441,99.856L48.3,93.468C48.104,92.874 47.917,92.264 47.739,91.639C47.568,91.014 47.408,90.359 47.261,89.672C47.249,89.587 47.227,89.482 47.197,89.36C47.172,89.237 47.142,89.096 47.105,88.937C47.123,89.096 47.139,89.234 47.151,89.351C47.163,89.461 47.172,89.556 47.179,89.636L47.28,91.079L47.381,92.834C47.387,92.932 47.39,93.052 47.39,93.193C47.396,93.334 47.399,93.493 47.399,93.671L47.5,99.856L45.616,99.856L45.616,85.665Z" style="fill:rgb(158,161,168);fill-rule:nonzero;"/>
        </g>
        <path id="rect1408" d="M14,130L56,130C62.648,130 68,135.352 68,142L68,178C68,184.648 62.648,190 56,190L14,190C7.352,190 2,184.648 2,178L2,142C2,135.352 7.352,130 14,130Z" style="fill:rgb(158,161,168);fill-rule:nonzero;"/>
        <path id="rect1412" d="M154,130L196,130C202.648,130 208,135.352 208,142L208,178C208,184.648 202.648,190 196,190L154,190C147.352,190 142,184.648 142,178L142,142C142,135.352 147.352,130 154,130Z" style="fill:rgb(158,161,168);fill-rule:nonzero;"/>
        <rect id="rect1458" x="2" y="30" width="50" height="50" style="fill:rgb(158,161,168);"/>
        <rect id="rect1460" x="54" y="30" width="50" height="50" style="fill:rgb(158,161,168);"/>
        <rect id="rect1462" x="106" y="30" width="50" height="50" style="fill:rgb(158,161,168);"/>
        <rect id="rect1464" x="158" y="30" width="50" height="50" style="fill:rgb(158,161,168);"/>
        <g id="text1007" transform="matrix(0.862622,0,0,1.15926,0,0)">
            <path id="path1066" d="M19.707,82.972L21.857,82.972C23.54,82.972 24.381,84.016 24.381,86.105C24.381,86.903 24.272,87.495 24.053,87.882C23.835,88.268 23.448,88.56 22.894,88.759C23.53,89.013 23.964,89.338 24.198,89.734C24.437,90.126 24.556,90.715 24.556,91.503C24.556,93.663 23.631,94.744 21.781,94.744L19.707,94.744L19.707,82.972ZM21.202,88.156C21.817,88.156 22.244,88.014 22.483,87.729C22.721,87.429 22.841,86.903 22.841,86.151C22.841,84.88 22.383,84.245 21.469,84.245L21.347,84.245L21.278,84.245C21.237,84.245 21.212,84.248 21.202,84.253L21.202,88.156ZM21.202,93.386C21.852,93.386 22.302,93.247 22.551,92.967C22.8,92.688 22.925,92.182 22.925,91.45C22.925,90.698 22.795,90.172 22.536,89.872C22.282,89.567 21.837,89.414 21.202,89.414L21.202,93.386Z" style="fill:rgb(158,161,168);fill-rule:nonzero;"/>
            <path id="path1068" d="M27.88,82.972L29.116,82.972L31.639,94.744L30.069,94.744L29.626,92.449L27.293,92.449L26.844,94.744L25.319,94.744L27.88,82.972ZM29.398,91.221L29.047,89.346C28.813,88.07 28.623,86.708 28.475,85.259C28.404,85.966 28.313,86.682 28.201,87.409C28.089,88.131 27.957,88.898 27.804,89.712L27.515,91.221L29.398,91.221Z" style="fill:rgb(158,161,168);fill-rule:nonzero;"/>
            <path id="path1070" d="M36.503,83.216L36.503,84.763C36.021,84.418 35.586,84.245 35.2,84.245C34.783,84.245 34.442,84.392 34.178,84.687C33.914,84.967 33.782,85.34 33.782,85.808C33.782,86.22 33.876,86.573 34.064,86.868C34.16,87.025 34.318,87.229 34.536,87.478C34.76,87.727 35.047,88.027 35.398,88.377C36.043,89.033 36.483,89.6 36.717,90.078C36.951,90.54 37.068,91.107 37.068,91.778C37.068,92.688 36.811,93.437 36.298,94.027C35.784,94.601 35.126,94.888 34.323,94.888C33.647,94.888 33.07,94.703 32.592,94.332L32.592,92.761C33.156,93.173 33.67,93.379 34.132,93.379C34.564,93.379 34.902,93.236 35.146,92.952C35.39,92.662 35.512,92.271 35.512,91.778C35.512,91.351 35.418,90.967 35.23,90.626C35.134,90.464 34.999,90.278 34.826,90.07C34.653,89.856 34.437,89.62 34.178,89.361C33.777,88.964 33.444,88.614 33.179,88.309C32.915,88.004 32.719,87.737 32.592,87.508C32.348,87.061 32.226,86.497 32.226,85.816C32.226,84.896 32.465,84.166 32.943,83.627C33.426,83.084 34.074,82.812 34.887,82.812C35.451,82.812 35.99,82.946 36.503,83.216Z" style="fill:rgb(158,161,168);fill-rule:nonzero;"/>
            <path id="path1072" d="M42.328,83.216L42.328,84.763C41.845,84.418 41.411,84.245 41.025,84.245C40.608,84.245 40.267,84.392 40.003,84.687C39.739,84.967 39.606,85.34 39.606,85.808C39.606,86.22 39.701,86.573 39.889,86.868C39.985,87.025 40.143,87.229 40.361,87.478C40.585,87.727 40.872,88.027 41.223,88.377C41.868,89.033 42.308,89.6 42.542,90.078C42.776,90.54 42.893,91.107 42.893,91.778C42.893,92.688 42.636,93.437 42.122,94.027C41.609,94.601 40.951,94.888 40.148,94.888C39.472,94.888 38.895,94.703 38.417,94.332L38.417,92.761C38.981,93.173 39.495,93.379 39.957,93.379C40.389,93.379 40.727,93.236 40.971,92.952C41.215,92.662 41.337,92.271 41.337,91.778C41.337,91.351 41.243,90.967 41.055,90.626C40.958,90.464 40.824,90.278 40.651,90.07C40.478,89.856 40.262,89.62 40.003,89.361C39.601,88.964 39.268,88.614 39.004,88.309C38.74,88.004 38.544,87.737 38.417,87.508C38.173,87.061 38.051,86.497 38.051,85.816C38.051,84.896 38.29,84.166 38.768,83.627C39.251,83.084 39.899,82.812 40.712,82.812C41.276,82.812 41.815,82.946 42.328,83.216L42.328,83.216Z" style="fill:rgb(158,161,168);fill-rule:nonzero;"/>
        </g>
        <g id="text1015" transform="matrix(0.808839,0,0,1.26837,0,-2.48705)">
            <path id="path1038" d="M145.961,77.649L150.801,77.649L150.801,78.95L149.135,78.95L149.135,88.686L147.677,88.686L147.677,78.95L145.961,78.95L145.961,77.649Z" style="fill:rgb(158,161,168);fill-rule:nonzero;"/>
            <path id="path1040" d="M151.616,77.649L153.575,77.649C154.385,77.649 154.988,77.842 155.384,78.228C155.884,78.728 156.134,79.493 156.134,80.522C156.134,81.314 156.001,81.95 155.734,82.431C155.472,82.908 155.095,83.203 154.604,83.318L156.635,88.686L155.126,88.686L153.103,83.282L153.103,88.686L151.616,88.686L151.616,77.649ZM153.103,82.538C153.68,82.538 154.087,82.405 154.326,82.138C154.564,81.871 154.683,81.421 154.683,80.787C154.683,80.444 154.657,80.151 154.604,79.908C154.557,79.665 154.478,79.467 154.368,79.314C154.264,79.162 154.125,79.05 153.954,78.978C153.787,78.907 153.587,78.871 153.353,78.871L153.103,78.871L153.103,82.538Z" style="fill:rgb(158,161,168);fill-rule:nonzero;"/>
            <path id="path1042" d="M157.793,77.649L161.746,77.649L161.746,78.907L159.28,78.907L159.28,82.403L161.467,82.403L161.467,83.661L159.28,83.661L159.28,87.428L161.746,87.428L161.746,88.686L157.793,88.686L157.793,77.649Z" style="fill:rgb(158,161,168);fill-rule:nonzero;"/>
            <path id="path1044" d="M163.111,77.649L165.127,77.649C166.705,77.649 167.494,78.628 167.494,80.587C167.494,81.335 167.391,81.89 167.186,82.252C166.981,82.615 166.619,82.889 166.1,83.075C166.695,83.313 167.103,83.618 167.322,83.99C167.546,84.357 167.658,84.909 167.658,85.648C167.658,87.674 166.791,88.686 165.056,88.686L163.111,88.686L163.111,77.649ZM164.513,82.51C165.089,82.51 165.49,82.376 165.714,82.109C165.938,81.828 166.05,81.335 166.05,80.63C166.05,79.438 165.621,78.842 164.763,78.842L164.648,78.842L164.584,78.842C164.546,78.842 164.522,78.845 164.513,78.85L164.513,82.51ZM164.513,87.414C165.123,87.414 165.544,87.283 165.778,87.021C166.011,86.759 166.128,86.284 166.128,85.598C166.128,84.893 166.007,84.399 165.764,84.118C165.525,83.832 165.108,83.689 164.513,83.689L164.513,87.414Z" style="fill:rgb(158,161,168);fill-rule:nonzero;"/>
            <path id="path1046" d="M169.145,77.649L170.632,77.649L170.632,87.428L173.063,87.428L173.063,88.686L169.145,88.686L169.145,77.649Z" style="fill:rgb(158,161,168);fill-rule:nonzero;"/>
            <path id="path1048" d="M174.006,77.649L177.96,77.649L177.96,78.907L175.493,78.907L175.493,82.403L177.681,82.403L177.681,83.661L175.493,83.661L175.493,87.428L177.96,87.428L177.96,88.686L174.006,88.686L174.006,77.649Z" style="fill:rgb(158,161,168);fill-rule:nonzero;"/>
        </g>
        <g id="g1082">
            <path id="path1306" d="M158.996,17.823L158.996,1.823L164.539,1.823C166.612,1.823 168.147,2.238 169.145,3.067C170.158,3.917 170.665,5.015 170.665,6.362C170.665,8.366 169.568,9.45 167.374,9.616C168.623,9.782 169.537,10.155 170.116,10.735C170.703,11.316 170.996,12.151 170.996,13.243C170.996,14.618 170.505,15.723 169.522,16.559C168.547,17.402 167.263,17.823 165.671,17.823L158.996,17.823ZM163.762,14.352C163.854,14.359 163.934,14.366 164.002,14.372L164.174,14.372C164.768,14.372 165.24,14.231 165.591,13.948C165.949,13.664 166.128,13.284 166.128,12.808C166.128,12.331 165.949,11.958 165.591,11.688C165.24,11.419 164.757,11.284 164.139,11.284L163.762,11.284L163.762,14.352ZM163.762,8.041L164.082,8.041C164.654,8.041 165.103,7.92 165.431,7.678C165.766,7.436 165.934,7.098 165.934,6.663C165.934,5.737 165.374,5.274 164.254,5.274C164.2,5.274 164.132,5.278 164.048,5.284C163.972,5.284 163.877,5.288 163.762,5.295L163.762,8.041Z" style="fill:rgb(255,0,102);fill-rule:nonzero;"/>
            <path id="path1093" d="M48.094,17.754L44.769,17.754L43.251,12.741C43.236,12.656 43.209,12.543 43.17,12.404C43.135,12.264 43.091,12.097 43.037,11.902L43.059,12.832L43.059,17.754L40,17.754L40,3.681L43.148,3.681C44.533,3.681 45.57,4.018 46.258,4.693C47.133,5.556 47.57,6.783 47.57,8.375C47.57,10.076 46.983,11.252 45.809,11.902L48.094,17.754ZM43.074,10.198L43.28,10.198C43.634,10.198 43.929,10.031 44.165,9.697C44.401,9.362 44.519,8.937 44.519,8.421C44.519,7.369 44.074,6.844 43.184,6.844L43.074,6.844L43.074,10.198Z" style="fill:rgb(158,161,168);fill-rule:nonzero;"/>
            <path id="path1095" d="M57.138,17.754L53.725,17.754L53.158,15.749C52.976,15.135 52.829,14.546 52.715,13.98C52.607,14.539 52.445,15.181 52.229,15.904L51.661,17.754L48.315,17.754L51.079,10.453L48.47,3.681L51.89,3.681L52.399,5.586C52.453,5.762 52.504,5.969 52.553,6.206C52.607,6.443 52.661,6.71 52.715,7.008C52.838,6.4 52.942,5.932 53.025,5.604L53.497,3.681L56.939,3.681L54.345,10.453L57.138,17.754Z" style="fill:rgb(158,161,168);fill-rule:nonzero;"/>
            <path id="path1097" d="M61.885,9.615L66.175,9.615L66.175,10.198C66.175,12.908 65.849,14.859 65.195,16.049C64.483,17.35 63.428,18 62.033,18C60.662,18 59.586,17.362 58.804,16.086C58.028,14.798 57.639,13.03 57.639,10.781C57.639,8.503 58.03,6.707 58.812,5.395C59.593,4.082 60.662,3.426 62.018,3.426C63.817,3.426 65.121,4.586 65.932,6.908L62.954,8.257C62.91,7.813 62.807,7.464 62.645,7.208C62.487,6.947 62.288,6.816 62.047,6.816C61.202,6.816 60.78,8.253 60.78,11.128C60.78,12.349 60.873,13.236 61.06,13.789C61.246,14.342 61.544,14.618 61.952,14.618C62.114,14.618 62.261,14.57 62.394,14.473C62.527,14.375 62.637,14.239 62.726,14.063C62.819,13.886 62.89,13.674 62.939,13.424C62.993,13.169 63.021,12.887 63.021,12.577L61.885,12.577L61.885,9.615Z" style="fill:rgb(158,161,168);fill-rule:nonzero;"/>
            <path id="path1099" d="M73.267,17.754L70.193,17.754L70.193,6.99L68.962,6.99L68.962,3.681L73.267,3.681L73.267,17.754Z" style="fill:rgb(158,161,168);fill-rule:nonzero;"/>
            <path id="path1101" d="M83.623,10.809C83.623,13.008 83.269,14.758 82.562,16.059C81.854,17.353 80.903,18 79.709,18C78.417,18 77.404,17.347 76.672,16.04C75.945,14.74 75.581,12.923 75.581,10.59C75.581,8.384 75.945,6.64 76.672,5.358C77.404,4.07 78.392,3.426 79.635,3.426C80.889,3.426 81.866,4.079 82.569,5.385C83.272,6.692 83.623,8.5 83.623,10.809ZM80.586,10.781C80.586,8.065 80.255,6.707 79.591,6.707C78.933,6.707 78.603,7.922 78.603,10.353C78.603,13.257 78.925,14.71 79.569,14.71C79.918,14.71 80.174,14.394 80.336,13.762C80.503,13.124 80.586,12.13 80.586,10.781Z" style="fill:rgb(158,161,168);fill-rule:nonzero;"/>
            <path id="path1103" d="M92.705,10.809C92.705,13.008 92.351,14.758 91.643,16.059C90.936,17.353 89.985,18 88.791,18C87.498,18 86.486,17.347 85.754,16.04C85.026,14.74 84.663,12.923 84.663,10.59C84.663,8.384 85.026,6.64 85.754,5.358C86.486,4.07 87.474,3.426 88.717,3.426C89.97,3.426 90.948,4.079 91.651,5.385C92.353,6.692 92.705,8.5 92.705,10.809ZM89.668,10.781C89.668,8.065 89.336,6.707 88.673,6.707C88.014,6.707 87.685,7.922 87.685,10.353C87.685,13.257 88.007,14.71 88.65,14.71C88.999,14.71 89.255,14.394 89.417,13.762C89.584,13.124 89.668,12.13 89.668,10.781L89.668,10.781Z" style="fill:rgb(158,161,168);fill-rule:nonzero;"/>
            <path id="path1105" d="M104.956,13.424L104.779,17.49C104.096,17.83 103.484,18 102.943,18C101.671,18 100.599,17.423 99.73,16.268C98.757,14.974 98.27,13.142 98.27,10.772C98.27,8.554 98.727,6.774 99.641,5.431C100.555,4.094 101.776,3.426 103.305,3.426C103.801,3.426 104.307,3.541 104.823,3.772L104.823,7.792C104.366,7.227 103.897,6.944 103.415,6.944C102.786,6.944 102.295,7.275 101.941,7.938C101.587,8.606 101.41,9.53 101.41,10.708C101.41,11.28 101.454,11.79 101.543,12.24C101.631,12.689 101.757,13.069 101.919,13.379C102.086,13.689 102.29,13.926 102.531,14.09C102.771,14.254 103.047,14.336 103.356,14.336C103.887,14.336 104.42,14.032 104.956,13.424L104.956,13.424Z" style="fill:rgb(158,161,168);fill-rule:nonzero;"/>
            <path id="path1107" d="M114.045,17.754L110.971,17.754L110.971,12.094L109.504,12.094L109.504,17.754L106.43,17.754L106.43,3.681L109.504,3.681L109.504,8.658L110.971,8.658L110.971,3.681L114.045,3.681L114.045,17.754Z" style="fill:rgb(158,161,168);fill-rule:nonzero;"/>
            <path id="path1109" d="M123.826,17.754L120.649,17.754L120.421,15.967L118.349,15.967L118.099,17.754L114.922,17.754L117.657,3.681L121.416,3.681L123.826,17.754ZM120.06,12.951L119.861,11.31C119.855,11.304 119.846,11.222 119.831,11.064C119.821,10.93 119.77,10.401 119.676,9.478C119.666,9.375 119.654,9.235 119.64,9.059C119.625,8.876 119.605,8.648 119.581,8.375L119.485,7.044C119.475,7.172 119.46,7.315 119.441,7.473C119.426,7.631 119.409,7.804 119.389,7.992C119.355,8.369 119.33,8.63 119.315,8.776C119.301,8.922 119.291,9.01 119.286,9.04L119.072,10.745L118.762,12.951L120.06,12.951Z" style="fill:rgb(158,161,168);fill-rule:nonzero;"/>
            <path id="path1111" d="M124.711,17.754L124.711,3.681L127.645,3.681L129.185,8.621C129.269,8.913 129.362,9.247 129.465,9.624C129.573,10 129.691,10.435 129.819,10.927L130.136,12.167C130.023,10.945 129.937,9.9 129.878,9.031C129.819,8.162 129.79,7.433 129.79,6.844L129.79,3.681L132.723,3.681L132.723,17.754L129.79,17.754L128.242,12.577C128.08,12.024 127.932,11.507 127.799,11.027C127.672,10.541 127.559,10.079 127.46,9.642C127.524,10.632 127.571,11.495 127.6,12.23C127.63,12.966 127.645,13.61 127.645,14.163L127.645,17.754L124.711,17.754Z" style="fill:rgb(158,161,168);fill-rule:nonzero;"/>
            <path id="path1113" d="M134.323,17.754L134.323,3.681L137.257,3.681L138.797,8.621C138.881,8.913 138.974,9.247 139.077,9.624C139.186,10 139.303,10.435 139.431,10.927L139.748,12.167C139.635,10.945 139.549,9.9 139.49,9.031C139.431,8.162 139.402,7.433 139.402,6.844L139.402,3.681L142.336,3.681L142.336,17.754L139.402,17.754L137.854,12.577C137.692,12.024 137.544,11.507 137.412,11.027C137.284,10.541 137.171,10.079 137.072,9.642C137.136,10.632 137.183,11.495 137.213,12.23C137.242,12.966 137.257,13.61 137.257,14.163L137.257,17.754L134.323,17.754Z" style="fill:rgb(158,161,168);fill-rule:nonzero;"/>
            <path id="path1115" d="M143.935,17.754L143.935,3.681L149.648,3.681L149.648,6.99L147.009,6.99L147.009,9.04L149.375,9.04L149.375,12.221L147.009,12.221L147.009,14.372L149.648,14.372L149.648,17.754L143.935,17.754Z" style="fill:rgb(158,161,168);fill-rule:nonzero;"/>
            <path id="path1117" d="M156.334,17.754L150.953,17.754L150.953,3.681L154.026,3.681L154.026,14.372L156.334,14.372L156.334,17.754Z" style="fill:rgb(158,161,168);fill-rule:nonzero;"/>
        </g>
        <g id="text1008" transform="matrix(0.827479,0,0,1.20849,0,0)">
            <path id="path1083" d="M87.36,79.438L88.695,79.438L89.716,84.165C89.841,84.755 89.953,85.348 90.054,85.943C90.159,86.533 90.254,87.154 90.339,87.804C90.349,87.719 90.356,87.654 90.361,87.609C90.366,87.559 90.371,87.524 90.376,87.504L90.594,86.176L90.789,84.915L90.962,84.082L91.87,79.438L93.22,79.438L94.286,91.023L92.792,91.023L92.53,87.091C92.52,86.891 92.51,86.718 92.5,86.573C92.495,86.428 92.492,86.308 92.492,86.213L92.425,84.66L92.387,83.235C92.387,83.224 92.385,83.204 92.38,83.174C92.38,83.139 92.377,83.094 92.372,83.039L92.335,83.272C92.295,83.547 92.257,83.787 92.222,83.992C92.192,84.197 92.165,84.37 92.14,84.51L91.945,85.568L91.87,85.966L90.894,91.023L89.844,91.023L88.928,86.656C88.803,86.081 88.691,85.498 88.591,84.908C88.496,84.312 88.408,83.69 88.328,83.039L87.878,91.023L86.407,91.023L87.36,79.438Z" style="fill:rgb(158,161,168);fill-rule:nonzero;"/>
            <rect id="path1085" x="95.576" y="79.438" width="1.561" height="11.585" style="fill:rgb(158,161,168);fill-rule:nonzero;"/>
            <path id="path1087" d="M98.937,79.438L100.858,79.438C101.443,79.438 101.936,79.503 102.336,79.633C102.706,79.758 103.036,79.981 103.326,80.301C103.762,80.781 104.072,81.406 104.257,82.177C104.442,82.922 104.534,83.99 104.534,85.38C104.534,86.656 104.432,87.696 104.227,88.502C104.027,89.272 103.697,89.86 103.236,90.265C102.671,90.77 101.658,91.023 100.198,91.023L98.937,91.023L98.937,79.438ZM100.498,89.657C101.448,89.657 102.083,89.369 102.404,88.794C102.734,88.219 102.899,87.101 102.899,85.44C102.899,83.655 102.741,82.427 102.426,81.756C102.111,81.086 101.533,80.751 100.693,80.751L100.498,80.751L100.498,89.657Z" style="fill:rgb(158,161,168);fill-rule:nonzero;"/>
        </g>
        <g id="text1012" transform="matrix(0.85293,0,0,1.17243,0,0)">
            <path id="path1064" d="M191.106,82.04L193.171,82.04C194.167,82.04 194.89,82.291 195.343,82.793C195.795,83.301 196.021,84.105 196.021,85.206C196.021,86.754 195.566,87.754 194.657,88.206C194.199,88.412 193.538,88.515 192.674,88.515L192.674,93.679L191.106,93.679L191.106,82.04ZM192.674,87.173C193.322,87.173 193.77,87.043 194.016,86.781C194.267,86.515 194.393,86.043 194.393,85.364C194.393,84.671 194.272,84.163 194.031,83.841C193.79,83.52 193.41,83.359 192.893,83.359L192.674,83.359L192.674,87.173Z" style="fill:rgb(158,161,168);fill-rule:nonzero;"/>
            <path id="path1067" d="M197.227,82.04L199.293,82.04C200.147,82.04 200.783,82.243 201.2,82.65C201.728,83.178 201.992,83.985 201.992,85.07C201.992,85.904 201.851,86.575 201.569,87.083C201.293,87.585 200.896,87.897 200.378,88.018L202.519,93.679L200.929,93.679L198.795,87.98L198.795,93.679L197.227,93.679L197.227,82.04ZM198.795,87.196C199.403,87.196 199.833,87.055 200.084,86.774C200.336,86.492 200.461,86.017 200.461,85.349C200.461,84.987 200.434,84.678 200.378,84.422C200.328,84.165 200.245,83.957 200.13,83.796C200.019,83.635 199.873,83.517 199.692,83.442C199.516,83.366 199.305,83.329 199.059,83.329L198.795,83.329L198.795,87.196Z" style="fill:rgb(158,161,168);fill-rule:nonzero;"/>
            <path id="path1069" d="M203.74,82.04L207.909,82.04L207.909,83.366L205.308,83.366L205.308,87.053L207.615,87.053L207.615,88.38L205.308,88.38L205.308,92.352L207.909,92.352L207.909,93.679L203.74,93.679L203.74,82.04Z" style="fill:rgb(158,161,168);fill-rule:nonzero;"/>
            <path id="path1071" d="M213.231,82.281L213.231,83.811C212.754,83.469 212.324,83.299 211.942,83.299C211.53,83.299 211.194,83.444 210.932,83.736C210.671,84.012 210.54,84.382 210.54,84.844C210.54,85.251 210.633,85.6 210.819,85.892C210.915,86.048 211.07,86.249 211.287,86.495C211.508,86.741 211.792,87.038 212.138,87.384C212.777,88.033 213.211,88.593 213.443,89.066C213.674,89.523 213.789,90.083 213.789,90.747C213.789,91.646 213.536,92.387 213.028,92.97C212.52,93.538 211.87,93.822 211.075,93.822C210.407,93.822 209.837,93.639 209.364,93.272L209.364,91.719C209.922,92.126 210.43,92.33 210.887,92.33C211.314,92.33 211.648,92.189 211.89,91.908C212.131,91.621 212.251,91.234 212.251,90.747C212.251,90.324 212.159,89.945 211.973,89.608C211.877,89.447 211.744,89.264 211.573,89.058C211.402,88.847 211.189,88.613 210.932,88.357C210.535,87.965 210.206,87.618 209.945,87.317C209.683,87.015 209.49,86.751 209.364,86.525C209.123,86.083 209.002,85.525 209.002,84.851C209.002,83.942 209.239,83.221 209.711,82.688C210.188,82.15 210.829,81.881 211.633,81.881C212.191,81.881 212.724,82.014 213.231,82.281L213.231,82.281Z" style="fill:rgb(158,161,168);fill-rule:nonzero;"/>
            <path id="path1073" d="M215.109,82.04L219.277,82.04L219.277,83.366L216.677,83.366L216.677,87.053L218.983,87.053L218.983,88.38L216.677,88.38L216.677,92.352L219.277,92.352L219.277,93.679L215.109,93.679L215.109,82.04Z" style="fill:rgb(158,161,168);fill-rule:nonzero;"/>
            <path id="path1076" d="M220.717,82.04L222.18,82.04L223.74,86.683C224.192,87.995 224.592,89.395 224.939,90.882C224.813,89.983 224.72,89.169 224.66,88.44C224.6,87.711 224.569,87.025 224.569,86.382L224.569,82.04L226.145,82.04L226.145,93.679L224.675,93.679L222.918,88.44C222.758,87.952 222.604,87.452 222.459,86.94C222.318,86.427 222.187,85.889 222.067,85.326C222.057,85.256 222.039,85.171 222.014,85.07C221.994,84.97 221.969,84.854 221.938,84.723C221.954,84.854 221.966,84.967 221.976,85.063C221.986,85.153 221.994,85.231 221.999,85.296L222.082,86.48L222.165,87.92C222.17,88 222.172,88.098 222.172,88.214C222.177,88.329 222.18,88.46 222.18,88.606L222.263,93.679L220.717,93.679L220.717,82.04Z" style="fill:rgb(158,161,168);fill-rule:nonzero;"/>
            <path id="path1078" d="M232.523,82.228L232.523,83.638C232.121,83.442 231.784,83.344 231.512,83.344C231.141,83.344 230.821,83.437 230.555,83.623C230.289,83.804 230.068,84.085 229.892,84.467C229.721,84.849 229.593,85.334 229.507,85.922C229.427,86.505 229.387,87.196 229.387,87.995C229.387,90.87 230.123,92.307 231.595,92.307C231.852,92.307 232.161,92.227 232.523,92.066L232.523,93.506C232.146,93.717 231.723,93.822 231.256,93.822C228.899,93.822 227.721,91.897 227.721,88.048C227.721,85.967 228.007,84.419 228.58,83.404C229.158,82.389 230.04,81.881 231.226,81.881C231.663,81.881 232.095,81.997 232.523,82.228L232.523,82.228Z" style="fill:rgb(158,161,168);fill-rule:nonzero;"/>
            <path id="path1080" d="M233.834,82.04L238.003,82.04L238.003,83.366L235.402,83.366L235.402,87.053L237.709,87.053L237.709,88.38L235.402,88.38L235.402,92.352L238.003,92.352L238.003,93.679L233.834,93.679L233.834,82.04Z" style="fill:rgb(158,161,168);fill-rule:nonzero;"/>
        </g>
        <g id="text1046" transform="matrix(0.887344,0,0,1.12696,0,-20)">
            <rect id="path1052" x="22.539" y="196.965" width="1.889" height="14.025" style="fill:rgb(158,161,168);fill-rule:nonzero;"/>
            <path id="path1054" d="M26.609,196.965L28.371,196.965L30.251,202.56C30.796,204.14 31.277,205.827 31.695,207.619C31.544,206.536 31.432,205.554 31.359,204.676C31.287,203.798 31.25,202.972 31.25,202.197L31.25,196.965L33.149,196.965L33.149,210.989L31.377,210.989L29.261,204.676C29.067,204.089 28.882,203.486 28.707,202.869C28.537,202.251 28.38,201.603 28.235,200.925C28.222,200.84 28.201,200.737 28.171,200.616C28.147,200.495 28.116,200.356 28.08,200.198C28.098,200.356 28.113,200.492 28.126,200.607C28.138,200.716 28.147,200.81 28.153,200.889L28.253,202.315L28.353,204.05C28.359,204.147 28.362,204.265 28.362,204.404C28.368,204.543 28.371,204.701 28.371,204.876L28.471,210.989L26.609,210.989L26.609,196.965Z" style="fill:rgb(158,161,168);fill-rule:nonzero;"/>
            <path id="path1056" d="M35.329,196.965L37.818,196.965C39.017,196.965 39.889,197.267 40.434,197.873C40.979,198.485 41.251,199.453 41.251,200.78C41.251,202.645 40.703,203.85 39.607,204.395C39.056,204.643 38.26,204.767 37.218,204.767L37.218,210.989L35.329,210.989L35.329,196.965ZM37.218,203.15C37.999,203.15 38.538,202.993 38.835,202.678C39.138,202.357 39.289,201.788 39.289,200.97C39.289,200.135 39.144,199.523 38.853,199.135C38.562,198.748 38.105,198.554 37.482,198.554L37.218,198.554L37.218,203.15Z" style="fill:rgb(158,161,168);fill-rule:nonzero;"/>
            <path id="path1058" d="M42.705,196.965L44.558,196.965L44.558,206.875C44.558,207.886 44.648,208.558 44.83,208.891C45.018,209.224 45.387,209.391 45.938,209.391C46.489,209.391 46.853,209.245 47.028,208.955C47.21,208.658 47.301,208.055 47.301,207.147L47.301,196.965L49.154,196.965L49.154,207.147C49.154,208.673 48.921,209.706 48.454,210.245C47.897,210.856 47.046,211.162 45.902,211.162C44.642,211.162 43.755,210.768 43.24,209.981C42.883,209.442 42.705,208.407 42.705,206.875L42.705,196.965Z" style="fill:rgb(158,161,168);fill-rule:nonzero;"/>
            <path id="path1060" d="M50.198,196.965L56.348,196.965L56.348,198.618L54.231,198.618L54.231,210.989L52.378,210.989L52.378,198.618L50.198,198.618L50.198,196.965Z" style="fill:rgb(158,161,168);fill-rule:nonzero;"/>
        </g>
        <path id="rect1048" d="M84,130L126,130C132.648,130 138,135.352 138,142L138,178C138,184.648 132.648,190 126,190L84,190C77.352,190 72,184.648 72,178L72,142C72,135.352 77.352,130 84,130Z" style="fill:rgb(158,161,168);fill-rule:nonzero;"/>
        <g id="text1066" transform="matrix(1,0,0,1,0,-8.44589)">
            <path id="path1089" d="M86.124,284.2L88.694,284.2C90.705,284.2 91.711,285.448 91.711,287.946C91.711,288.9 91.58,289.608 91.319,290.07C91.058,290.531 90.596,290.881 89.934,291.118C90.693,291.422 91.213,291.81 91.492,292.284C91.778,292.752 91.921,293.457 91.921,294.399C91.921,296.981 90.815,298.273 88.603,298.273L86.124,298.273L86.124,284.2ZM87.91,290.398C88.645,290.398 89.156,290.228 89.441,289.887C89.727,289.529 89.87,288.9 89.87,288.001C89.87,286.481 89.323,285.722 88.229,285.722L88.083,285.722L88.001,285.722C87.953,285.722 87.922,285.725 87.91,285.731L87.91,290.398ZM87.91,296.65C88.688,296.65 89.226,296.483 89.523,296.149C89.821,295.815 89.97,295.21 89.97,294.335C89.97,293.436 89.815,292.807 89.505,292.448C89.201,292.084 88.67,291.902 87.91,291.902L87.91,296.65Z" style="fill:rgb(158,161,168);fill-rule:nonzero;"/>
            <path id="path1091" d="M100.826,291.583C100.826,294.068 100.549,295.833 99.996,296.878C99.443,297.923 98.516,298.446 97.216,298.446C95.849,298.446 94.886,297.884 94.327,296.76C93.774,295.66 93.497,293.706 93.497,290.899C93.497,288.396 93.771,286.624 94.318,285.585C94.871,284.54 95.806,284.018 97.125,284.018C98.304,284.018 99.179,284.422 99.75,285.23C100.127,285.771 100.4,286.539 100.57,287.536C100.74,288.459 100.826,289.808 100.826,291.583L100.826,291.583ZM98.839,291.783C98.839,289.346 98.729,287.73 98.51,286.934C98.292,286.132 97.845,285.731 97.171,285.731C96.496,285.731 96.046,286.099 95.822,286.834C95.603,287.575 95.493,289.064 95.493,291.3C95.493,293.36 95.609,294.788 95.84,295.584C96.077,296.337 96.52,296.714 97.171,296.714C97.809,296.714 98.246,296.362 98.483,295.657C98.72,294.958 98.839,293.667 98.839,291.783L98.839,291.783Z" style="fill:rgb(158,161,168);fill-rule:nonzero;"/>
            <path id="path1096" d="M109.758,291.583C109.758,294.068 109.481,295.833 108.928,296.878C108.375,297.923 107.449,298.446 106.148,298.446C104.781,298.446 103.818,297.884 103.259,296.76C102.706,295.66 102.43,293.706 102.43,290.899C102.43,288.396 102.703,286.624 103.25,285.585C103.803,284.54 104.739,284.018 106.057,284.018C107.236,284.018 108.111,284.422 108.682,285.23C109.059,285.771 109.332,286.539 109.503,287.536C109.673,288.459 109.758,289.808 109.758,291.583L109.758,291.583ZM107.771,291.783C107.771,289.346 107.661,287.73 107.443,286.934C107.224,286.132 106.777,285.731 106.103,285.731C105.428,285.731 104.979,286.099 104.754,286.834C104.535,287.575 104.426,289.064 104.426,291.3C104.426,293.36 104.541,294.788 104.772,295.584C105.009,296.337 105.453,296.714 106.103,296.714C106.741,296.714 107.178,296.362 107.415,295.657C107.652,294.958 107.771,293.667 107.771,291.783L107.771,291.783Z" style="fill:rgb(158,161,168);fill-rule:nonzero;"/>
            <path id="path1098" d="M116.339,284.491L116.339,286.342C115.761,285.929 115.242,285.722 114.78,285.722C114.282,285.722 113.875,285.898 113.559,286.251C113.243,286.585 113.085,287.031 113.085,287.59C113.085,288.083 113.197,288.505 113.422,288.857C113.537,289.046 113.726,289.289 113.987,289.587C114.254,289.884 114.598,290.243 115.017,290.662C115.789,291.446 116.314,292.123 116.594,292.695C116.873,293.248 117.013,293.925 117.013,294.727C117.013,295.815 116.706,296.711 116.092,297.416C115.479,298.103 114.692,298.446 113.732,298.446C112.924,298.446 112.234,298.224 111.663,297.781L111.663,295.903C112.337,296.395 112.951,296.641 113.504,296.641C114.02,296.641 114.424,296.471 114.716,296.131C115.008,295.784 115.154,295.317 115.154,294.727C115.154,294.217 115.041,293.758 114.816,293.351C114.701,293.156 114.54,292.935 114.333,292.685C114.127,292.43 113.868,292.148 113.559,291.838C113.079,291.364 112.681,290.945 112.365,290.58C112.049,290.215 111.815,289.896 111.663,289.623C111.371,289.088 111.225,288.414 111.225,287.6C111.225,286.5 111.511,285.628 112.082,284.984C112.659,284.333 113.434,284.008 114.406,284.008C115.081,284.008 115.725,284.169 116.339,284.491Z" style="fill:rgb(158,161,168);fill-rule:nonzero;"/>
            <path id="path1100" d="M117.706,284.2L123.876,284.2L123.876,285.859L121.753,285.859L121.753,298.273L119.893,298.273L119.893,285.859L117.706,285.859L117.706,284.2Z" style="fill:rgb(158,161,168);fill-rule:nonzero;"/>
        </g>
    </g>
</svg>
