<?xml version="1.0" encoding="UTF-8" standalone="no"?>
<!DOCTYPE svg PUBLIC "-//W3C//DTD SVG 1.1//EN" "http://www.w3.org/Graphics/SVG/1.1/DTD/svg11.dtd">
<svg width="100%" height="100%" viewBox="0 0 210 380" version="1.1" xmlns="http://www.w3.org/2000/svg" xmlns:xlink="http://www.w3.org/1999/xlink" xml:space="preserve" xmlns:serif="http://www.serif.com/" style="fill-rule:evenodd;clip-rule:evenodd;stroke-linejoin:round;stroke-miterlimit:2;">
    <g id="Layer-2" serif:id="Layer 2">
        <g id="text989">
        </g>
        <rect id="rect4689" x="0" y="0" width="210" height="380" style="fill:rgb(44,45,48);fill-rule:nonzero;"/>
        <g id="text4987">
        </g>
        <g id="text1042">
        </g>
        <g id="text2090">
        </g>
        <rect id="rect4778-3" x="170" y="327.999" width="34" height="42" style="fill:rgb(60,60,60);"/>
        <g id="g1047" transform="matrix(1,0,0,1,4.78124,0)">
            <path id="path4890" d="M179.891,363.27C179.891,364.138 179.651,364.829 179.172,365.343C178.693,365.857 178.05,366.114 177.245,366.114C176.453,366.114 175.823,365.852 175.354,365.327C174.889,364.8 174.656,364.091 174.656,363.202C174.656,362.314 174.894,361.6 175.37,361.062C175.842,360.52 176.469,360.249 177.25,360.249C178.073,360.249 178.719,360.518 179.187,361.057C179.656,361.595 179.891,362.333 179.891,363.27ZM177.865,363.202C177.865,362.994 177.851,362.807 177.823,362.64C177.795,362.47 177.755,362.326 177.703,362.208C177.651,362.086 177.589,361.992 177.516,361.926C177.443,361.86 177.361,361.827 177.271,361.827C177.094,361.827 176.951,361.952 176.844,362.202C176.736,362.421 176.682,362.749 176.682,363.187C176.682,363.617 176.736,363.945 176.844,364.171C176.951,364.421 177.095,364.546 177.276,364.546C177.446,364.546 177.587,364.423 177.698,364.176C177.809,363.902 177.865,363.577 177.865,363.202L177.865,363.202Z" style="fill:rgb(197,200,209);fill-rule:nonzero;"/>
            <path id="path4892" d="M180.693,360.369L182.781,360.369L182.781,363.541C182.781,363.843 182.811,364.064 182.87,364.202C182.932,364.317 183.05,364.374 183.224,364.374C183.394,364.374 183.509,364.317 183.568,364.202C183.63,364.088 183.661,363.867 183.661,363.541L183.661,360.369L185.75,360.369L185.75,363.822C185.75,364.051 185.731,364.26 185.693,364.447C185.658,364.631 185.601,364.8 185.521,364.952C185.444,365.102 185.344,365.239 185.219,365.364C185.097,365.489 184.951,365.603 184.781,365.708C184.323,365.978 183.804,366.114 183.224,366.114C182.637,366.114 182.118,365.978 181.667,365.708C181.493,365.603 181.344,365.491 181.219,365.369C181.097,365.244 180.997,365.105 180.917,364.952C180.84,364.8 180.783,364.631 180.745,364.447C180.71,364.26 180.693,364.051 180.693,363.822L180.693,360.369Z" style="fill:rgb(197,200,209);fill-rule:nonzero;"/>
            <path id="path4894" d="M189.089,365.999L186.995,365.999L186.995,362.051L186.401,362.051L186.401,360.369L186.995,360.369L186.995,358.713L189.089,358.713L189.089,360.369L189.781,360.369L189.781,362.051L189.089,362.051L189.089,365.999Z" style="fill:rgb(197,200,209);fill-rule:nonzero;"/>
        </g>
        <g id="text1802" transform="matrix(0.813854,0,0,1.07513,-16.9023,132.5)">
            <path id="path1804" d="M32.441,198.745L34.127,198.745L34.892,203.434L35.024,204.281L35.296,206.124C35.339,206.436 35.378,206.721 35.411,206.979C35.449,207.237 35.482,207.47 35.509,207.678L35.592,208.304C35.608,208.177 35.622,208.065 35.633,207.966C35.644,207.868 35.655,207.785 35.666,207.72L35.888,206.247L36.176,204.314C36.203,204.139 36.228,203.977 36.25,203.829C36.277,203.681 36.302,203.549 36.324,203.434L37.146,198.745L38.742,198.745L36.25,211.446L34.892,211.446L32.441,198.745Z" style="fill:rgb(158,161,168);fill-rule:nonzero;"/>
            <path id="path1806" d="M46.063,205.408C46.063,207.651 45.814,209.244 45.315,210.187C44.816,211.131 43.979,211.602 42.806,211.602C41.572,211.602 40.703,211.095 40.198,210.08C39.699,209.088 39.45,207.325 39.45,204.791C39.45,202.532 39.696,200.933 40.19,199.995C40.689,199.052 41.534,198.581 42.724,198.581C43.787,198.581 44.577,198.945 45.093,199.675C45.433,200.163 45.679,200.856 45.833,201.756C45.987,202.589 46.063,203.807 46.063,205.408L46.063,205.408ZM44.27,205.589C44.27,203.39 44.171,201.931 43.974,201.213C43.776,200.489 43.373,200.127 42.765,200.127C42.156,200.127 41.75,200.459 41.547,201.122C41.35,201.791 41.251,203.135 41.251,205.153C41.251,207.012 41.355,208.301 41.564,209.019C41.778,209.699 42.178,210.039 42.765,210.039C43.34,210.039 43.735,209.721 43.949,209.085C44.163,208.454 44.27,207.289 44.27,205.589L44.27,205.589Z" style="fill:rgb(158,161,168);fill-rule:nonzero;"/>
            <path id="path1808" d="M47.766,198.745L49.477,198.745L49.477,209.998L52.274,209.998L52.274,211.446L47.766,211.446L47.766,198.745Z" style="fill:rgb(158,161,168);fill-rule:nonzero;"/>
            <path id="path1810" d="M53.491,198.745L55.169,198.745L55.169,207.72C55.169,208.635 55.252,209.244 55.416,209.546C55.586,209.847 55.921,209.998 56.42,209.998C56.919,209.998 57.248,209.867 57.407,209.603C57.571,209.335 57.654,208.789 57.654,207.966L57.654,198.745L59.332,198.745L59.332,207.966C59.332,209.348 59.121,210.283 58.698,210.771C58.194,211.325 57.423,211.602 56.387,211.602C55.246,211.602 54.443,211.246 53.977,210.533C53.653,210.045 53.491,209.107 53.491,207.72L53.491,198.745Z" style="fill:rgb(158,161,168);fill-rule:nonzero;"/>
            <path id="path1812" d="M61.89,198.745L63.354,198.745L64.473,203.927C64.61,204.575 64.733,205.224 64.843,205.877C64.958,206.524 65.062,207.204 65.156,207.917C65.167,207.824 65.175,207.752 65.18,207.703C65.186,207.648 65.191,207.61 65.197,207.588L65.435,206.132L65.649,204.75L65.839,203.837L66.834,198.745L68.315,198.745L69.483,211.446L67.846,211.446L67.558,207.136C67.547,206.916 67.536,206.727 67.525,206.568C67.519,206.409 67.516,206.277 67.516,206.173L67.442,204.47L67.401,202.907C67.401,202.896 67.399,202.874 67.393,202.842C67.393,202.803 67.39,202.754 67.385,202.693L67.344,202.948C67.3,203.25 67.259,203.513 67.22,203.738C67.187,203.963 67.157,204.152 67.13,204.306L66.916,205.466L66.834,205.902L65.764,211.446L64.613,211.446L63.609,206.658C63.472,206.028 63.349,205.389 63.239,204.742C63.135,204.089 63.039,203.406 62.951,202.694L62.458,211.446L60.845,211.446L61.89,198.745Z" style="fill:rgb(158,161,168);fill-rule:nonzero;"/>
            <path id="path1814" d="M70.897,198.745L75.446,198.745L75.446,200.193L72.608,200.193L72.608,204.215L75.126,204.215L75.126,205.663L72.608,205.663L72.608,209.998L75.446,209.998L75.446,211.446L70.897,211.446L70.897,198.745Z" style="fill:rgb(158,161,168);fill-rule:nonzero;"/>
        </g>
        <g id="text80" transform="matrix(0.87098,0,0,0.995047,66,6.99997)">
            <path id="path4726" d="M29.851,371.706L29.851,363.943L31.853,363.943L32.903,366.668C32.96,366.829 33.024,367.013 33.094,367.221C33.168,367.429 33.249,367.668 33.336,367.94L33.552,368.624C33.475,367.95 33.416,367.373 33.376,366.894C33.336,366.415 33.316,366.013 33.316,365.687L33.316,363.943L35.317,363.943L35.317,371.706L33.316,371.706L32.26,368.85C32.149,368.545 32.049,368.26 31.958,367.995C31.871,367.727 31.794,367.472 31.727,367.231C31.77,367.777 31.802,368.253 31.822,368.659C31.843,369.065 31.853,369.42 31.853,369.725L31.853,371.706L29.851,371.706Z" style="fill:rgb(158,161,168);fill-rule:nonzero;"/>
            <path id="path4728" d="M39.887,371.706L37.791,371.706L37.791,368.418L35.865,363.943L38.052,363.943L38.429,365.094C38.503,365.319 38.568,365.535 38.625,365.743C38.686,365.951 38.739,366.15 38.786,366.341C38.863,366.056 38.93,365.811 38.987,365.607C39.044,365.399 39.095,365.232 39.138,365.104L39.52,363.943L41.692,363.943L39.887,368.418L39.887,371.706Z" style="fill:rgb(158,161,168);fill-rule:nonzero;"/>
            <path id="path4730" d="M41.894,371.515L41.894,369.076C42.306,369.639 42.752,369.921 43.231,369.921C43.412,369.921 43.56,369.874 43.673,369.78C43.787,369.683 43.844,369.562 43.844,369.418C43.844,369.21 43.72,369.008 43.472,368.81L43.13,368.543C42.902,368.372 42.708,368.203 42.547,368.035C42.386,367.865 42.256,367.69 42.155,367.513C42.054,367.332 41.981,367.146 41.934,366.954C41.887,366.763 41.863,366.562 41.863,366.351C41.863,365.989 41.947,365.61 42.115,365.215C42.199,365.03 42.296,364.863 42.406,364.712C42.517,364.558 42.644,364.422 42.789,364.305C43.184,363.969 43.662,363.802 44.222,363.802C44.721,363.802 45.224,363.934 45.73,364.199L45.73,366.572C45.559,366.308 45.365,366.1 45.147,365.949C44.929,365.795 44.714,365.718 44.503,365.718C44.342,365.718 44.21,365.765 44.106,365.858C43.999,365.949 43.945,366.058 43.945,366.185C43.945,366.393 44.087,366.599 44.372,366.804L44.704,367.05C45.147,367.368 45.463,367.695 45.655,368.03C45.849,368.366 45.946,368.758 45.946,369.207C45.946,369.971 45.713,370.601 45.247,371.098C44.781,371.594 44.191,371.842 43.477,371.842C42.985,371.842 42.457,371.733 41.894,371.515L41.894,371.515Z" style="fill:rgb(158,161,168);fill-rule:nonzero;"/>
            <path id="path4732" d="M49.576,371.706L47.48,371.706L47.48,365.803L46.323,365.803L46.323,363.943L50.778,363.943L50.778,365.803L49.576,365.803L49.576,371.706Z" style="fill:rgb(158,161,168);fill-rule:nonzero;"/>
            <path id="path4734" d="M56.525,371.706L54.428,371.706L54.428,368.584L53.428,368.584L53.428,371.706L51.331,371.706L51.331,363.943L53.428,363.943L53.428,366.688L54.428,366.688L54.428,363.943L56.525,363.943L56.525,371.706Z" style="fill:rgb(158,161,168);fill-rule:nonzero;"/>
            <rect id="path4736" x="57.606" y="363.943" width="2.097" height="7.763" style="fill:rgb(158,161,168);fill-rule:nonzero;"/>
        </g>
        <path id="rect1458" d="M12.535,200L41.465,200C47.301,200 52,204.699 52,210.535L52,239.465C52,245.301 47.301,250 41.465,250L12.535,250C6.699,250 2,245.301 2,239.465L2,210.535C2,204.699 6.699,200 12.535,200Z" style="fill:rgb(158,161,168);fill-rule:nonzero;"/>
        <path id="rect1460" d="M64.913,200L93.087,200C99.133,200 104,204.867 104,210.913L104,239.087C104,245.133 99.133,250 93.087,250L64.913,250C58.867,250 54,245.133 54,239.087L54,210.913C54,204.867 58.867,200 64.913,200Z" style="fill:rgb(158,161,168);fill-rule:nonzero;"/>
        <path id="rect1462" d="M115.02,200L146.98,200C151.977,200 156,204.023 156,209.02L156,240.98C156,245.977 151.977,250 146.98,250L115.02,250C110.023,250 106,245.977 106,240.98L106,209.02C106,204.023 110.023,200 115.02,200Z" style="fill:rgb(158,161,168);fill-rule:nonzero;"/>
        <path id="rect1464" d="M167.63,200L198.37,200C203.705,200 208,204.295 208,209.63L208,240.37C208,245.705 203.705,250 198.37,250L167.63,250C162.295,250 158,245.705 158,240.37L158,209.63C158,204.295 162.295,200 167.63,200Z" style="fill:rgb(158,161,168);fill-rule:nonzero;"/>
        <g id="text1000">
            <path id="path1003" d="M79.311,17.408L79.311,12.987C80.058,14.008 80.866,14.518 81.735,14.518C82.063,14.518 82.331,14.433 82.537,14.263C82.744,14.087 82.847,13.868 82.847,13.607C82.847,13.23 82.622,12.862 82.173,12.504L81.553,12.021C81.14,11.711 80.787,11.404 80.495,11.1C80.204,10.79 79.967,10.474 79.785,10.152C79.602,9.824 79.469,9.487 79.383,9.141C79.298,8.794 79.256,8.43 79.256,8.047C79.256,7.391 79.408,6.704 79.712,5.987C79.864,5.653 80.04,5.349 80.24,5.076C80.441,4.796 80.672,4.55 80.933,4.337C81.65,3.73 82.516,3.426 83.531,3.426C84.436,3.426 85.347,3.666 86.265,4.146L86.265,8.448C85.955,7.968 85.603,7.591 85.208,7.318C84.813,7.038 84.424,6.898 84.041,6.898C83.749,6.898 83.509,6.984 83.321,7.154C83.127,7.318 83.029,7.515 83.029,7.746C83.029,8.123 83.288,8.497 83.804,8.867L84.406,9.314C85.208,9.891 85.782,10.484 86.128,11.091C86.481,11.699 86.657,12.41 86.657,13.224C86.657,14.609 86.235,15.752 85.39,16.651C84.545,17.55 83.476,18 82.182,18C81.288,18 80.331,17.803 79.311,17.408Z" style="fill:rgb(158,161,168);fill-rule:nonzero;"/>
            <path id="path1005" d="M92.098,15.876C92.098,16.447 91.889,16.937 91.469,17.344C91.062,17.751 90.564,17.954 89.975,17.954C89.391,17.954 88.884,17.748 88.452,17.335C88.033,16.915 87.824,16.408 87.824,15.812C87.824,15.229 88.03,14.731 88.443,14.318C88.857,13.905 89.355,13.698 89.938,13.698C90.54,13.698 91.05,13.911 91.469,14.336C91.889,14.755 92.098,15.269 92.098,15.876Z" style="fill:rgb(158,161,168);fill-rule:nonzero;"/>
            <path id="path1007" d="M103.893,17.754L99.964,17.754L99.682,15.967L97.12,15.967L96.811,17.754L92.882,17.754L96.264,3.681L100.912,3.681L103.893,17.754ZM99.235,12.951L98.989,11.31C98.983,11.304 98.971,11.222 98.953,11.064C98.941,10.93 98.877,10.401 98.761,9.478C98.749,9.375 98.734,9.235 98.716,9.059C98.698,8.876 98.673,8.648 98.643,8.375L98.524,7.044C98.512,7.172 98.494,7.315 98.47,7.473C98.451,7.631 98.43,7.804 98.406,7.992C98.363,8.369 98.333,8.63 98.315,8.776C98.297,8.922 98.284,9.01 98.278,9.04L98.014,10.745L97.631,12.951L99.235,12.951Z" style="fill:rgb(158,161,168);fill-rule:nonzero;"/>
            <path id="path1009" d="M108.942,15.876C108.942,16.447 108.732,16.937 108.313,17.344C107.906,17.751 107.408,17.954 106.818,17.954C106.235,17.954 105.728,17.748 105.296,17.335C104.877,16.915 104.667,16.408 104.667,15.812C104.667,15.229 104.874,14.731 105.287,14.318C105.7,13.905 106.199,13.698 106.782,13.698C107.383,13.698 107.894,13.911 108.313,14.336C108.732,14.755 108.942,15.269 108.942,15.876Z" style="fill:rgb(158,161,168);fill-rule:nonzero;"/>
            <path id="path1011" d="M125.084,17.754L121.11,17.754L120.827,11.337L120.709,8.776C120.666,9.268 120.618,9.739 120.563,10.189C120.508,10.632 120.442,11.064 120.363,11.483L119.169,17.754L116.07,17.754L115.049,11.474C114.988,11.109 114.906,10.484 114.803,9.596C114.791,9.463 114.763,9.189 114.721,8.776L114.63,11.374L114.292,17.754L110.245,17.754L111.886,3.681L116.617,3.681L117.41,8.421C117.476,8.809 117.534,9.232 117.583,9.687C117.637,10.143 117.686,10.638 117.729,11.173C117.808,10.28 117.917,9.481 118.057,8.776L119.023,3.681L123.717,3.681L125.084,17.754Z" style="fill:rgb(158,161,168);fill-rule:nonzero;"/>
            <path id="path1013" d="M130.744,15.876C130.744,16.447 130.535,16.937 130.115,17.344C129.708,17.751 129.21,17.954 128.62,17.954C128.037,17.954 127.53,17.748 127.098,17.335C126.679,16.915 126.469,16.408 126.469,15.812C126.469,15.229 126.676,14.731 127.089,14.318C127.502,13.905 128.001,13.698 128.584,13.698C129.186,13.698 129.696,13.911 130.115,14.336C130.535,14.755 130.744,15.269 130.744,15.876Z" style="fill:rgb(158,161,168);fill-rule:nonzero;"/>
        </g>
        <g id="text1055" transform="matrix(0.780228,0,0,1.06363,4.59337,10.3535)">
            <path id="path1107" d="M17.359,231.391L17.359,233.078C16.833,232.701 16.359,232.513 15.938,232.513C15.484,232.513 15.112,232.673 14.824,232.995C14.536,233.299 14.392,233.707 14.392,234.216C14.392,234.665 14.495,235.05 14.7,235.371C14.805,235.543 14.977,235.765 15.215,236.036C15.459,236.308 15.772,236.634 16.154,237.017C16.857,237.731 17.337,238.349 17.591,238.87C17.846,239.374 17.974,239.991 17.974,240.723C17.974,241.714 17.694,242.531 17.134,243.174C16.575,243.8 15.858,244.113 14.982,244.113C14.245,244.113 13.617,243.911 13.096,243.506L13.096,241.795C13.711,242.243 14.27,242.468 14.775,242.468C15.245,242.468 15.614,242.313 15.88,242.002C16.146,241.687 16.279,241.26 16.279,240.723C16.279,240.257 16.176,239.839 15.971,239.468C15.866,239.291 15.719,239.088 15.531,238.861C15.342,238.629 15.107,238.371 14.824,238.089C14.387,237.656 14.024,237.274 13.736,236.942C13.448,236.609 13.234,236.319 13.096,236.069C12.83,235.582 12.697,234.967 12.697,234.225C12.697,233.222 12.957,232.427 13.478,231.84C14.004,231.247 14.711,230.951 15.597,230.951C16.212,230.951 16.799,231.097 17.359,231.391Z" style="fill:rgb(158,161,168);fill-rule:nonzero;"/>
            <path id="path1109" d="M19.428,231.125L21.705,231.125C22.802,231.125 23.599,231.402 24.098,231.956C24.596,232.516 24.846,233.402 24.846,234.615C24.846,236.321 24.344,237.424 23.342,237.922C22.838,238.149 22.109,238.263 21.156,238.263L21.156,243.955L19.428,243.955L19.428,231.125ZM21.156,236.784C21.871,236.784 22.364,236.64 22.635,236.352C22.912,236.058 23.051,235.538 23.051,234.79C23.051,234.025 22.918,233.466 22.652,233.111C22.386,232.757 21.968,232.579 21.397,232.579L21.156,232.579L21.156,236.784Z" style="fill:rgb(158,161,168);fill-rule:nonzero;"/>
            <path id="path1111" d="M26.175,231.125L30.771,231.125L30.771,232.588L27.904,232.588L27.904,236.651L30.446,236.651L30.446,238.113L27.904,238.113L27.904,242.493L30.771,242.493L30.771,243.955L26.175,243.955L26.175,231.125Z" style="fill:rgb(158,161,168);fill-rule:nonzero;"/>
            <path id="path1113" d="M32.358,231.125L36.953,231.125L36.953,232.588L34.086,232.588L34.086,236.651L36.629,236.651L36.629,238.113L34.086,238.113L34.086,242.493L36.953,242.493L36.953,243.955L32.358,243.955L32.358,231.125Z" style="fill:rgb(158,161,168);fill-rule:nonzero;"/>
            <path id="path1115" d="M38.54,231.125L40.667,231.125C41.315,231.125 41.861,231.197 42.304,231.341C42.714,231.48 43.08,231.726 43.401,232.081C43.883,232.613 44.227,233.305 44.432,234.158C44.637,234.984 44.739,236.166 44.739,237.706C44.739,239.119 44.625,240.271 44.398,241.163C44.177,242.016 43.811,242.667 43.301,243.116C42.675,243.675 41.554,243.955 39.936,243.955L38.54,243.955L38.54,231.125ZM40.268,242.443C41.321,242.443 42.025,242.124 42.379,241.487C42.745,240.85 42.928,239.612 42.928,237.773C42.928,235.795 42.753,234.435 42.404,233.693C42.055,232.95 41.415,232.579 40.484,232.579L40.268,232.579L40.268,242.443Z" style="fill:rgb(158,161,168);fill-rule:nonzero;"/>
        </g>
        <g id="text1059" transform="matrix(0.877387,0,0,1.06363,5.27589,10.3535)">
            <path id="path1096" d="M69.78,231.125L72.057,231.125C73.154,231.125 73.952,231.402 74.45,231.956C74.949,232.516 75.198,233.402 75.198,234.615C75.198,236.321 74.697,237.424 73.694,237.922C73.19,238.149 72.461,238.263 71.508,238.263L71.508,243.955L69.78,243.955L69.78,231.125ZM71.508,236.784C72.223,236.784 72.716,236.64 72.988,236.352C73.265,236.058 73.403,235.538 73.403,234.79C73.403,234.025 73.27,233.466 73.004,233.111C72.738,232.757 72.32,232.579 71.749,232.579L71.508,232.579L71.508,236.784Z" style="fill:rgb(158,161,168);fill-rule:nonzero;"/>
            <rect id="path1098" x="76.527" y="231.125" width="1.728" height="12.83" style="fill:rgb(158,161,168);fill-rule:nonzero;"/>
            <path id="path1100" d="M79.228,231.125L84.854,231.125L84.854,232.637L82.918,232.637L82.918,243.955L81.222,243.955L81.222,232.637L79.228,232.637L79.228,231.125Z" style="fill:rgb(158,161,168);fill-rule:nonzero;"/>
            <path id="path1102" d="M90.837,231.333L90.837,232.887C90.393,232.671 90.022,232.563 89.723,232.563C89.313,232.563 88.961,232.665 88.668,232.87C88.374,233.07 88.131,233.38 87.937,233.801C87.748,234.222 87.607,234.756 87.513,235.405C87.424,236.047 87.38,236.809 87.38,237.69C87.38,240.858 88.191,242.443 89.815,242.443C90.097,242.443 90.438,242.354 90.837,242.177L90.837,243.764C90.421,243.997 89.956,244.113 89.441,244.113C86.843,244.113 85.543,241.991 85.543,237.748C85.543,235.454 85.859,233.748 86.491,232.629C87.128,231.51 88.1,230.951 89.407,230.951C89.889,230.951 90.366,231.078 90.837,231.333L90.837,231.333Z" style="fill:rgb(158,161,168);fill-rule:nonzero;"/>
            <path id="path1104" d="M92.283,231.125L94.011,231.125L94.011,236.144L96.545,236.144L96.545,231.125L98.274,231.125L98.274,243.955L96.545,243.955L96.545,237.607L94.011,237.607L94.011,243.955L92.283,243.955L92.283,231.125Z" style="fill:rgb(158,161,168);fill-rule:nonzero;"/>
        </g>
        <g id="text1063" transform="matrix(0.79539,0,0,1.06363,20.1737,10.3535)">
            <path id="path1085" d="M121.532,231.125L123.012,231.125L124.142,236.36C124.28,237.014 124.405,237.67 124.516,238.33C124.632,238.983 124.737,239.67 124.831,240.39C124.842,240.296 124.851,240.224 124.856,240.174C124.862,240.119 124.867,240.08 124.873,240.058L125.114,238.587L125.33,237.191L125.521,236.269L126.527,231.125L128.022,231.125L129.202,243.955L127.549,243.955L127.258,239.601C127.247,239.379 127.236,239.188 127.225,239.028C127.219,238.867 127.216,238.734 127.216,238.629L127.141,236.909L127.1,235.33C127.1,235.319 127.097,235.297 127.092,235.263C127.092,235.225 127.089,235.175 127.083,235.114L127.042,235.371C126.997,235.676 126.956,235.942 126.917,236.169C126.884,236.396 126.853,236.587 126.826,236.742L126.61,237.914L126.527,238.355L125.446,243.955L124.283,243.955L123.269,239.119C123.131,238.482 123.006,237.837 122.895,237.183C122.79,236.524 122.693,235.834 122.604,235.114L122.106,243.955L120.477,243.955L121.532,231.125Z" style="fill:rgb(158,161,168);fill-rule:nonzero;"/>
            <path id="path1087" d="M137.055,237.856C137.055,240.122 136.803,241.731 136.299,242.684C135.795,243.637 134.95,244.113 133.764,244.113C132.518,244.113 131.64,243.601 131.13,242.576C130.626,241.573 130.374,239.792 130.374,237.233C130.374,234.95 130.623,233.335 131.122,232.388C131.626,231.435 132.479,230.959 133.681,230.959C134.756,230.959 135.554,231.327 136.074,232.064C136.418,232.557 136.667,233.258 136.822,234.166C136.977,235.008 137.055,236.238 137.055,237.856ZM135.243,238.039C135.243,235.817 135.144,234.344 134.944,233.618C134.745,232.887 134.338,232.521 133.723,232.521C133.108,232.521 132.698,232.856 132.493,233.527C132.293,234.202 132.194,235.56 132.194,237.598C132.194,239.476 132.299,240.778 132.509,241.504C132.725,242.191 133.13,242.534 133.723,242.534C134.304,242.534 134.703,242.213 134.919,241.57C135.135,240.933 135.243,239.756 135.243,238.039L135.243,238.039Z" style="fill:rgb(158,161,168);fill-rule:nonzero;"/>
            <path id="path1089" d="M138.775,231.125L140.47,231.125L140.47,240.191C140.47,241.116 140.553,241.731 140.719,242.036C140.891,242.34 141.229,242.493 141.733,242.493C142.237,242.493 142.57,242.36 142.73,242.094C142.896,241.822 142.98,241.271 142.98,240.44L142.98,231.125L144.675,231.125L144.675,240.44C144.675,241.836 144.461,242.781 144.035,243.274C143.525,243.833 142.747,244.113 141.7,244.113C140.548,244.113 139.736,243.753 139.265,243.033C138.938,242.54 138.775,241.592 138.775,240.191L138.775,231.125Z" style="fill:rgb(158,161,168);fill-rule:nonzero;"/>
            <path id="path1091" d="M145.63,231.125L151.256,231.125L151.256,232.637L149.32,232.637L149.32,243.955L147.625,243.955L147.625,232.637L145.63,232.637L145.63,231.125Z" style="fill:rgb(158,161,168);fill-rule:nonzero;"/>
            <path id="path1093" d="M152.203,231.125L153.932,231.125L153.932,236.144L156.466,236.144L156.466,231.125L158.194,231.125L158.194,243.955L156.466,243.955L156.466,237.607L153.932,237.607L153.932,243.955L152.203,243.955L152.203,231.125Z" style="fill:rgb(158,161,168);fill-rule:nonzero;"/>
        </g>
        <g id="text1067" transform="matrix(0.731861,0,0,1.06363,40.5472,10.3535)">
            <path id="path1071" d="M174.149,231.125L179.775,231.125L179.775,232.637L177.838,232.637L177.838,243.955L176.143,243.955L176.143,232.637L174.149,232.637L174.149,231.125Z" style="fill:rgb(158,161,168);fill-rule:nonzero;"/>
            <path id="path1073" d="M180.722,231.125L182.45,231.125L182.45,236.144L184.985,236.144L184.985,231.125L186.713,231.125L186.713,243.955L184.985,243.955L184.985,237.607L182.45,237.607L182.45,243.955L180.722,243.955L180.722,231.125Z" style="fill:rgb(158,161,168);fill-rule:nonzero;"/>
            <path id="path1076" d="M188.699,231.125L190.976,231.125C191.918,231.125 192.618,231.349 193.078,231.798C193.66,232.38 193.951,233.269 193.951,234.466C193.951,235.385 193.796,236.125 193.485,236.684C193.181,237.238 192.743,237.582 192.173,237.715L194.532,243.955L192.779,243.955L190.428,237.673L190.428,243.955L188.699,243.955L188.699,231.125ZM190.428,236.809C191.098,236.809 191.571,236.654 191.848,236.344C192.125,236.033 192.264,235.51 192.264,234.773C192.264,234.374 192.233,234.033 192.173,233.751C192.117,233.468 192.026,233.239 191.898,233.061C191.776,232.884 191.616,232.754 191.416,232.671C191.223,232.588 190.99,232.546 190.718,232.546L190.428,232.546L190.428,236.809Z" style="fill:rgb(158,161,168);fill-rule:nonzero;"/>
            <path id="path1078" d="M202.169,237.856C202.169,240.122 201.917,241.731 201.413,242.684C200.909,243.637 200.064,244.113 198.878,244.113C197.632,244.113 196.754,243.601 196.244,242.576C195.74,241.573 195.488,239.792 195.488,237.233C195.488,234.95 195.737,233.335 196.236,232.388C196.74,231.435 197.593,230.959 198.795,230.959C199.87,230.959 200.668,231.327 201.188,232.064C201.532,232.557 201.781,233.258 201.936,234.166C202.091,235.008 202.169,236.238 202.169,237.856ZM200.358,238.039C200.358,235.817 200.258,234.344 200.058,233.618C199.859,232.887 199.452,232.521 198.837,232.521C198.222,232.521 197.812,232.856 197.607,233.527C197.408,234.202 197.308,235.56 197.308,237.598C197.308,239.476 197.413,240.778 197.624,241.504C197.84,242.191 198.244,242.534 198.837,242.534C199.419,242.534 199.817,242.213 200.033,241.57C200.25,240.933 200.358,239.756 200.358,238.039L200.358,238.039Z" style="fill:rgb(158,161,168);fill-rule:nonzero;"/>
            <path id="path1080" d="M205.684,231.125L207.03,231.125L209.781,243.955L208.069,243.955L207.587,241.454L205.044,241.454L204.554,243.955L202.892,243.955L205.684,231.125ZM207.338,240.116L206.955,238.072C206.701,236.681 206.493,235.197 206.332,233.618C206.255,234.388 206.155,235.169 206.033,235.961C205.911,236.748 205.767,237.584 205.601,238.471L205.285,240.116L207.338,240.116Z" style="fill:rgb(158,161,168);fill-rule:nonzero;"/>
            <path id="path1082" d="M209.515,231.125L215.14,231.125L215.14,232.637L213.204,232.637L213.204,243.955L211.509,243.955L211.509,232.637L209.515,232.637L209.515,231.125Z" style="fill:rgb(158,161,168);fill-rule:nonzero;"/>
        </g>
        <g id="text1120" transform="matrix(0.864892,0,0,0.934314,0,90.5051)">
            <path id="path1153" d="M76.034,240.541C76.034,242.384 75.829,243.692 75.419,244.467C75.009,245.242 74.322,245.629 73.358,245.629C72.345,245.629 71.631,245.213 71.216,244.379C70.806,243.564 70.601,242.116 70.601,240.035C70.601,238.179 70.804,236.866 71.209,236.095C71.619,235.32 72.313,234.933 73.291,234.933C74.164,234.933 74.813,235.233 75.237,235.832C75.516,236.233 75.719,236.802 75.845,237.541C75.971,238.226 76.034,239.226 76.034,240.541L76.034,240.541ZM74.561,240.69C74.561,238.884 74.48,237.685 74.318,237.095C74.155,236.501 73.824,236.203 73.324,236.203C72.824,236.203 72.491,236.476 72.324,237.021C72.162,237.57 72.081,238.674 72.081,240.332C72.081,241.859 72.167,242.917 72.338,243.508C72.514,244.066 72.842,244.345 73.324,244.345C73.797,244.345 74.122,244.084 74.297,243.562C74.473,243.044 74.561,242.086 74.561,240.69Z" style="fill:rgb(158,161,168);fill-rule:nonzero;"/>
            <path id="path1155" d="M77.433,235.068L78.743,235.068L80.142,239.23C80.548,240.406 80.906,241.661 81.216,242.994C81.104,242.188 81.021,241.458 80.966,240.805C80.912,240.152 80.885,239.537 80.885,238.96L80.885,235.068L82.298,235.068L82.298,245.501L80.98,245.501L79.406,240.805C79.261,240.368 79.124,239.92 78.993,239.46C78.867,239.001 78.75,238.519 78.642,238.014C78.633,237.951 78.617,237.875 78.595,237.784C78.577,237.694 78.554,237.591 78.527,237.474C78.541,237.591 78.552,237.692 78.561,237.778C78.57,237.859 78.577,237.929 78.581,237.987L78.656,239.048L78.73,240.339C78.735,240.411 78.737,240.498 78.737,240.602C78.741,240.706 78.744,240.823 78.744,240.953L78.818,245.501L77.433,245.501L77.433,235.068Z" style="fill:rgb(158,161,168);fill-rule:nonzero;"/>
            <path id="path1157" d="M83.919,235.068L87.656,235.068L87.656,236.257L85.325,236.257L85.325,239.562L87.392,239.562L87.392,240.751L85.325,240.751L85.325,244.312L87.656,244.312L87.656,245.501L83.919,245.501L83.919,235.068Z" style="fill:rgb(158,161,168);fill-rule:nonzero;"/>
            <path id="path1159" d="M92.426,235.284L92.426,236.656C91.998,236.35 91.613,236.197 91.271,236.197C90.901,236.197 90.6,236.327 90.365,236.588C90.131,236.836 90.014,237.167 90.014,237.582C90.014,237.947 90.097,238.26 90.264,238.521C90.35,238.661 90.489,238.841 90.683,239.062C90.881,239.282 91.136,239.548 91.447,239.859C92.019,240.44 92.408,240.942 92.616,241.366C92.823,241.776 92.926,242.278 92.926,242.872C92.926,243.679 92.699,244.343 92.244,244.866C91.789,245.375 91.206,245.629 90.494,245.629C89.895,245.629 89.383,245.465 88.96,245.136L88.96,243.744C89.46,244.109 89.915,244.291 90.325,244.291C90.708,244.291 91.007,244.165 91.224,243.913C91.44,243.656 91.548,243.309 91.548,242.872C91.548,242.494 91.465,242.154 91.298,241.852C91.212,241.708 91.093,241.544 90.94,241.359C90.787,241.17 90.595,240.96 90.365,240.73C90.01,240.379 89.715,240.068 89.48,239.798C89.246,239.528 89.073,239.291 88.96,239.089C88.744,238.692 88.636,238.192 88.636,237.589C88.636,236.773 88.847,236.127 89.271,235.649C89.699,235.167 90.273,234.926 90.994,234.926C91.494,234.926 91.971,235.046 92.426,235.284L92.426,235.284Z" style="fill:rgb(158,161,168);fill-rule:nonzero;"/>
            <path id="path1161" d="M94.109,235.068L95.514,235.068L95.514,239.149L97.575,239.149L97.575,235.068L98.981,235.068L98.981,245.501L97.575,245.501L97.575,240.339L95.514,240.339L95.514,245.501L94.109,245.501L94.109,235.068Z" style="fill:rgb(158,161,168);fill-rule:nonzero;"/>
            <path id="path1163" d="M105.819,240.541C105.819,242.384 105.614,243.692 105.204,244.467C104.794,245.242 104.107,245.629 103.143,245.629C102.129,245.629 101.415,245.213 101.001,244.379C100.591,243.564 100.386,242.116 100.386,240.035C100.386,238.179 100.589,236.866 100.994,236.095C101.404,235.32 102.098,234.933 103.075,234.933C103.949,234.933 104.598,235.233 105.021,235.832C105.301,236.233 105.503,236.802 105.629,237.541C105.756,238.226 105.819,239.226 105.819,240.541L105.819,240.541ZM104.346,240.69C104.346,238.884 104.265,237.685 104.102,237.095C103.94,236.501 103.609,236.203 103.109,236.203C102.609,236.203 102.276,236.476 102.109,237.021C101.947,237.57 101.866,238.674 101.866,240.332C101.866,241.859 101.951,242.917 102.123,243.508C102.298,244.066 102.627,244.345 103.109,244.345C103.582,244.345 103.906,244.084 104.082,243.562C104.258,243.044 104.346,242.086 104.346,240.69L104.346,240.69Z" style="fill:rgb(158,161,168);fill-rule:nonzero;"/>
            <path id="path1165" d="M106.494,235.068L111.069,235.068L111.069,236.298L109.494,236.298L109.494,245.501L108.116,245.501L108.116,236.298L106.494,236.298L106.494,235.068Z" style="fill:rgb(158,161,168);fill-rule:nonzero;"/>
        </g>
        <g id="text1124" transform="matrix(0.924007,0,0,0.87454,0,94.3435)">
            <path id="path1142" d="M80.957,269.846L80.957,271.311C80.499,270.984 80.088,270.821 79.722,270.821C79.328,270.821 79.005,270.96 78.755,271.239C78.505,271.504 78.38,271.858 78.38,272.3C78.38,272.69 78.469,273.025 78.647,273.304C78.738,273.453 78.887,273.646 79.094,273.881C79.306,274.117 79.578,274.401 79.91,274.733C80.521,275.354 80.937,275.891 81.159,276.343C81.38,276.781 81.491,277.318 81.491,277.953C81.491,278.814 81.248,279.524 80.762,280.082C80.276,280.626 79.652,280.898 78.892,280.898C78.252,280.898 77.706,280.722 77.253,280.371L77.253,278.884C77.788,279.274 78.274,279.469 78.712,279.469C79.121,279.469 79.441,279.334 79.672,279.064C79.903,278.79 80.018,278.42 80.018,277.953C80.018,277.549 79.929,277.185 79.751,276.863C79.66,276.709 79.532,276.533 79.369,276.336C79.205,276.134 79,275.91 78.755,275.664C78.375,275.289 78.059,274.957 77.809,274.668C77.559,274.379 77.374,274.127 77.253,273.91C77.022,273.487 76.907,272.953 76.907,272.308C76.907,271.437 77.133,270.746 77.585,270.236C78.043,269.721 78.656,269.463 79.426,269.463C79.96,269.463 80.471,269.591 80.957,269.846Z" style="fill:rgb(158,161,168);fill-rule:nonzero;"/>
            <path id="path1144" d="M82.039,269.615L86.927,269.615L86.927,270.929L85.245,270.929L85.245,280.761L83.772,280.761L83.772,270.929L82.039,270.929L82.039,269.615Z" style="fill:rgb(158,161,168);fill-rule:nonzero;"/>
            <path id="path1146" d="M89.136,269.615L90.305,269.615L92.694,280.761L91.207,280.761L90.789,278.588L88.58,278.588L88.154,280.761L86.71,280.761L89.136,269.615ZM90.572,277.426L90.24,275.65C90.019,274.442 89.838,273.152 89.699,271.781C89.631,272.45 89.545,273.128 89.439,273.816C89.333,274.5 89.208,275.226 89.063,275.997L88.789,277.426L90.572,277.426Z" style="fill:rgb(158,161,168);fill-rule:nonzero;"/>
            <path id="path1148" d="M93.582,269.615L95.56,269.615C96.378,269.615 96.987,269.81 97.387,270.2C97.892,270.705 98.145,271.478 98.145,272.517C98.145,273.316 98.01,273.958 97.74,274.444C97.476,274.926 97.095,275.224 96.6,275.34L98.65,280.761L97.127,280.761L95.084,275.303L95.084,280.761L93.582,280.761L93.582,269.615ZM95.084,274.553C95.666,274.553 96.078,274.418 96.318,274.148C96.559,273.879 96.679,273.424 96.679,272.784C96.679,272.438 96.653,272.142 96.6,271.896C96.552,271.651 96.472,271.451 96.362,271.297C96.256,271.143 96.116,271.03 95.943,270.958C95.774,270.886 95.572,270.849 95.336,270.849L95.084,270.849L95.084,274.553Z" style="fill:rgb(158,161,168);fill-rule:nonzero;"/>
            <path id="path1150" d="M99.076,269.615L103.963,269.615L103.963,270.929L102.281,270.929L102.281,280.761L100.808,280.761L100.808,270.929L99.076,270.929L99.076,269.615Z" style="fill:rgb(158,161,168);fill-rule:nonzero;"/>
        </g>
        <g id="text1128" transform="matrix(0.901498,0,0,0.896376,0,98.1818)">
            <path id="path1133" d="M88.325,281.303L88.325,282.732C87.878,282.413 87.477,282.253 87.12,282.253C86.735,282.253 86.421,282.389 86.176,282.662C85.932,282.92 85.81,283.265 85.81,283.697C85.81,284.077 85.897,284.404 86.071,284.676C86.16,284.822 86.306,285.009 86.507,285.24C86.714,285.47 86.979,285.747 87.303,286.071C87.9,286.676 88.306,287.2 88.522,287.641C88.738,288.068 88.846,288.592 88.846,289.212C88.846,290.052 88.609,290.745 88.134,291.289C87.66,291.82 87.052,292.085 86.31,292.085C85.686,292.085 85.153,291.914 84.712,291.571L84.712,290.12C85.233,290.501 85.707,290.691 86.134,290.691C86.533,290.691 86.846,290.559 87.071,290.296C87.296,290.029 87.409,289.667 87.409,289.212C87.409,288.817 87.322,288.463 87.148,288.148C87.059,287.998 86.935,287.827 86.775,287.634C86.615,287.437 86.416,287.219 86.176,286.979C85.806,286.613 85.498,286.289 85.254,286.007C85.01,285.726 84.829,285.479 84.712,285.268C84.486,284.855 84.373,284.333 84.373,283.704C84.373,282.854 84.594,282.181 85.036,281.683C85.482,281.18 86.08,280.929 86.831,280.929C87.353,280.929 87.85,281.054 88.325,281.303L88.325,281.303Z" style="fill:rgb(158,161,168);fill-rule:nonzero;"/>
            <path id="path1135" d="M89.381,281.077L94.149,281.077L94.149,282.359L92.508,282.359L92.508,291.951L91.071,291.951L91.071,282.359L89.381,282.359L89.381,281.077Z" style="fill:rgb(158,161,168);fill-rule:nonzero;"/>
            <path id="path1137" d="M100.509,286.782C100.509,288.702 100.295,290.066 99.868,290.874C99.441,291.682 98.725,292.085 97.72,292.085C96.663,292.085 95.919,291.651 95.487,290.782C95.06,289.933 94.846,288.423 94.846,286.254C94.846,284.319 95.058,282.951 95.48,282.148C95.907,281.34 96.631,280.936 97.649,280.936C98.56,280.936 99.236,281.249 99.678,281.873C99.969,282.291 100.18,282.885 100.312,283.655C100.443,284.369 100.509,285.411 100.509,286.782L100.509,286.782ZM98.973,286.937C98.973,285.054 98.889,283.805 98.72,283.19C98.551,282.57 98.206,282.26 97.685,282.26C97.163,282.26 96.816,282.544 96.642,283.113C96.473,283.685 96.389,284.836 96.389,286.564C96.389,288.155 96.478,289.259 96.656,289.874C96.84,290.456 97.182,290.747 97.685,290.747C98.178,290.747 98.516,290.475 98.699,289.93C98.882,289.39 98.974,288.392 98.974,286.937L98.973,286.937Z" style="fill:rgb(158,161,168);fill-rule:nonzero;"/>
            <path id="path1139" d="M101.967,281.077L103.897,281.077C104.826,281.077 105.502,281.312 105.925,281.781C106.347,282.256 106.559,283.007 106.559,284.035C106.559,285.481 106.134,286.416 105.284,286.838C104.857,287.031 104.239,287.127 103.432,287.127L103.432,291.951L101.967,291.951L101.967,281.077ZM103.432,285.873C104.037,285.873 104.455,285.751 104.685,285.507C104.92,285.258 105.037,284.817 105.037,284.183C105.037,283.535 104.925,283.061 104.699,282.76C104.474,282.46 104.12,282.31 103.636,282.31L103.432,282.31L103.432,285.873Z" style="fill:rgb(158,161,168);fill-rule:nonzero;"/>
        </g>
        <path id="rect1130" d="M12.535,290L41.465,290C47.301,290 52,294.699 52,300.535L52,329.465C52,335.301 47.301,340 41.465,340L12.535,340C6.699,340 2,335.301 2,329.465L2,300.535C2,294.699 6.699,290 12.535,290Z" style="fill:rgb(158,161,168);fill-rule:nonzero;"/>
        <g id="text1050" transform="matrix(0.806804,0,0,1.23946,14,0)">
            <path id="path1074" d="M96.678,143.761L98.632,143.761C99.573,143.761 100.257,143.998 100.685,144.474C101.113,144.954 101.327,145.715 101.327,146.756C101.327,148.22 100.897,149.166 100.036,149.594C99.604,149.789 98.979,149.886 98.161,149.886L98.161,154.771L96.678,154.771L96.678,143.761ZM98.161,148.617C98.774,148.617 99.197,148.493 99.43,148.246C99.668,147.994 99.787,147.547 99.787,146.905C99.787,146.249 99.673,145.769 99.445,145.465C99.216,145.161 98.857,145.009 98.368,145.009L98.161,145.009L98.161,148.617Z" style="fill:rgb(158,161,168);fill-rule:nonzero;"/>
            <path id="path1077" d="M102.468,143.761L103.951,143.761L103.951,148.068L106.126,148.068L106.126,143.761L107.609,143.761L107.609,154.771L106.126,154.771L106.126,149.323L103.951,149.323L103.951,154.771L102.468,154.771L102.468,143.761Z" style="fill:rgb(158,161,168);fill-rule:nonzero;"/>
            <path id="path1079" d="M114.826,149.537C114.826,151.481 114.609,152.862 114.177,153.68C113.744,154.497 113.019,154.906 112.002,154.906C110.932,154.906 110.179,154.467 109.742,153.587C109.309,152.727 109.093,151.198 109.093,149.002C109.093,147.043 109.307,145.658 109.734,144.845C110.167,144.027 110.899,143.618 111.931,143.618C112.853,143.618 113.537,143.934 113.984,144.567C114.279,144.99 114.493,145.591 114.626,146.371C114.759,147.093 114.826,148.149 114.826,149.537L114.826,149.537ZM113.271,149.694C113.271,147.787 113.186,146.523 113.015,145.9C112.843,145.273 112.494,144.959 111.966,144.959C111.439,144.959 111.087,145.246 110.911,145.822C110.74,146.402 110.654,147.566 110.654,149.316C110.654,150.927 110.745,152.044 110.925,152.667C111.111,153.257 111.458,153.551 111.966,153.551C112.466,153.551 112.808,153.276 112.993,152.724C113.179,152.178 113.271,151.167 113.271,149.694L113.271,149.694Z" style="fill:rgb(158,161,168);fill-rule:nonzero;"/>
            <path id="path1081" d="M116.302,143.761L117.685,143.761L119.161,148.153C119.589,149.394 119.967,150.718 120.295,152.125C120.176,151.274 120.088,150.504 120.031,149.815C119.974,149.126 119.946,148.477 119.946,147.868L119.946,143.761L121.436,143.761L121.436,154.771L120.046,154.771L118.384,149.815C118.232,149.354 118.087,148.881 117.949,148.396C117.816,147.911 117.692,147.402 117.578,146.87C117.569,146.803 117.552,146.722 117.528,146.627C117.509,146.532 117.486,146.423 117.457,146.299C117.471,146.423 117.483,146.53 117.493,146.62C117.502,146.706 117.509,146.779 117.514,146.841L117.593,147.961L117.671,149.323C117.676,149.399 117.678,149.492 117.678,149.601C117.683,149.71 117.685,149.834 117.685,149.972L117.764,154.771L116.302,154.771L116.302,143.761Z" style="fill:rgb(158,161,168);fill-rule:nonzero;"/>
            <path id="path1083" d="M123.147,143.761L127.091,143.761L127.091,145.016L124.631,145.016L124.631,148.503L126.813,148.503L126.813,149.758L124.631,149.758L124.631,153.516L127.091,153.516L127.091,154.771L123.147,154.771L123.147,143.761Z" style="fill:rgb(158,161,168);fill-rule:nonzero;"/>
            <path id="path1086" d="M127.576,143.761L132.403,143.761L132.403,145.059L130.742,145.059L130.742,154.771L129.287,154.771L129.287,145.059L127.576,145.059L127.576,143.761Z" style="fill:rgb(158,161,168);fill-rule:nonzero;"/>
            <rect id="path1088" x="133.216" y="143.761" width="1.483" height="11.01" style="fill:rgb(158,161,168);fill-rule:nonzero;"/>
            <path id="path1090" d="M140.732,143.939L140.732,145.273C140.352,145.087 140.033,144.994 139.777,144.994C139.425,144.994 139.123,145.082 138.871,145.258C138.619,145.429 138.41,145.696 138.243,146.057C138.082,146.418 137.961,146.877 137.88,147.433C137.804,147.985 137.766,148.638 137.766,149.394C137.766,152.113 138.462,153.473 139.855,153.473C140.097,153.473 140.39,153.397 140.732,153.245L140.732,154.607C140.376,154.806 139.976,154.906 139.534,154.906C137.305,154.906 136.19,153.086 136.19,149.444C136.19,147.476 136.461,146.012 137.003,145.051C137.549,144.091 138.384,143.611 139.506,143.611C139.919,143.611 140.328,143.72 140.732,143.939L140.732,143.939Z" style="fill:rgb(158,161,168);fill-rule:nonzero;"/>
            <path id="path1092" d="M145.517,143.761L146.786,143.761L147.756,148.253C147.875,148.814 147.982,149.378 148.077,149.943C148.177,150.504 148.267,151.094 148.348,151.712C148.357,151.631 148.365,151.569 148.369,151.526C148.374,151.479 148.379,151.445 148.384,151.426L148.591,150.164L148.776,148.966L148.94,148.175L149.803,143.761L151.086,143.761L152.099,154.771L150.68,154.771L150.43,151.034C150.421,150.844 150.411,150.68 150.402,150.542C150.397,150.404 150.395,150.29 150.395,150.2L150.331,148.724L150.295,147.369C150.295,147.359 150.293,147.34 150.288,147.312C150.288,147.279 150.286,147.236 150.281,147.184L150.245,147.405C150.207,147.666 150.172,147.894 150.138,148.089C150.11,148.284 150.084,148.448 150.06,148.581L149.874,149.587L149.803,149.965L148.876,154.771L147.878,154.771L147.008,150.621C146.889,150.074 146.782,149.52 146.687,148.959C146.597,148.393 146.513,147.802 146.437,147.184L146.01,154.771L144.612,154.771L145.517,143.761Z" style="fill:rgb(158,161,168);fill-rule:nonzero;"/>
            <path id="path1094" d="M158.837,149.537C158.837,151.481 158.621,152.862 158.188,153.68C157.756,154.497 157.031,154.906 156.014,154.906C154.944,154.906 154.19,154.467 153.753,153.587C153.32,152.727 153.104,151.198 153.104,149.002C153.104,147.043 153.318,145.658 153.746,144.845C154.179,144.027 154.911,143.618 155.942,143.618C156.864,143.618 157.549,143.934 157.996,144.567C158.291,144.99 158.505,145.591 158.638,146.371C158.771,147.093 158.837,148.149 158.837,149.537L158.837,149.537ZM157.283,149.694C157.283,147.787 157.197,146.523 157.026,145.9C156.855,145.273 156.506,144.959 155.978,144.959C155.45,144.959 155.098,145.246 154.923,145.822C154.751,146.402 154.666,147.566 154.666,149.316C154.666,150.927 154.756,152.044 154.937,152.667C155.122,153.257 155.469,153.551 155.978,153.551C156.477,153.551 156.819,153.276 157.005,152.724C157.19,152.178 157.283,151.167 157.283,149.694L157.283,149.694Z" style="fill:rgb(158,161,168);fill-rule:nonzero;"/>
            <path id="path1097" d="M160.313,143.761L162.139,143.761C162.695,143.761 163.163,143.823 163.544,143.946C163.895,144.065 164.209,144.277 164.485,144.581C164.899,145.037 165.193,145.631 165.369,146.364C165.545,147.072 165.633,148.087 165.633,149.408C165.633,150.621 165.536,151.609 165.341,152.375C165.151,153.107 164.837,153.666 164.399,154.051C163.862,154.531 162.9,154.771 161.511,154.771L160.313,154.771L160.313,143.761ZM161.797,153.473C162.7,153.473 163.304,153.2 163.608,152.653C163.922,152.106 164.079,151.044 164.079,149.465C164.079,147.768 163.929,146.601 163.629,145.964C163.33,145.327 162.781,145.009 161.982,145.009L161.797,145.009L161.797,153.473Z" style="fill:rgb(158,161,168);fill-rule:nonzero;"/>
            <path id="path1099" d="M167.102,143.761L171.045,143.761L171.045,145.016L168.585,145.016L168.585,148.503L170.767,148.503L170.767,149.758L168.585,149.758L168.585,153.516L171.045,153.516L171.045,154.771L167.102,154.771L167.102,143.761Z" style="fill:rgb(158,161,168);fill-rule:nonzero;"/>
        </g>
        <g id="text1054" transform="matrix(0.739258,0,0,1.35271,10,0)">
            <path id="path1060" d="M227.255,131.719L230.87,131.719L230.87,132.869L228.615,132.869L228.615,136.066L230.615,136.066L230.615,137.217L228.615,137.217L228.615,140.663L230.87,140.663L230.87,141.813L227.255,141.813L227.255,131.719Z" style="fill:rgb(158,161,168);fill-rule:nonzero;"/>
            <path id="path1062" d="M232.119,131.719L233.91,131.719C234.651,131.719 235.203,131.895 235.565,132.248C236.022,132.706 236.251,133.406 236.251,134.347C236.251,135.071 236.129,135.652 235.885,136.093C235.645,136.528 235.301,136.799 234.852,136.903L236.709,141.813L235.329,141.813L233.479,136.871L233.479,141.813L232.119,141.813L232.119,131.719ZM233.479,136.191C234.006,136.191 234.379,136.069 234.597,135.825C234.815,135.581 234.924,135.169 234.924,134.589C234.924,134.275 234.9,134.007 234.852,133.785C234.808,133.562 234.736,133.382 234.636,133.242C234.54,133.103 234.414,133 234.257,132.935C234.104,132.869 233.921,132.837 233.708,132.837L233.479,132.837L233.479,136.191Z" style="fill:rgb(158,161,168);fill-rule:nonzero;"/>
            <path id="path1064" d="M237.768,131.719L239.559,131.719C240.3,131.719 240.852,131.895 241.213,132.248C241.671,132.706 241.9,133.406 241.9,134.347C241.9,135.071 241.778,135.652 241.534,136.093C241.294,136.528 240.95,136.799 240.501,136.903L242.358,141.813L240.978,141.813L239.128,136.871L239.128,141.813L237.768,141.813L237.768,131.719ZM239.128,136.191C239.655,136.191 240.028,136.069 240.246,135.825C240.464,135.581 240.573,135.169 240.573,134.589C240.573,134.275 240.549,134.007 240.501,133.785C240.457,133.562 240.385,133.382 240.285,133.242C240.189,133.103 240.063,133 239.906,132.935C239.753,132.869 239.57,132.837 239.357,132.837L239.128,132.837L239.128,136.191Z" style="fill:rgb(158,161,168);fill-rule:nonzero;"/>
            <path id="path1067" d="M248.366,137.014C248.366,138.797 248.168,140.063 247.771,140.813C247.374,141.563 246.71,141.938 245.777,141.938C244.796,141.938 244.105,141.534 243.704,140.728C243.308,139.939 243.109,138.538 243.109,136.524C243.109,134.728 243.306,133.458 243.698,132.713C244.094,131.963 244.766,131.588 245.712,131.588C246.557,131.588 247.185,131.878 247.594,132.458C247.865,132.845 248.061,133.397 248.183,134.112C248.305,134.774 248.366,135.742 248.366,137.014L248.366,137.014ZM246.941,137.158C246.941,135.411 246.862,134.251 246.705,133.68C246.548,133.105 246.228,132.817 245.744,132.817C245.26,132.817 244.938,133.081 244.777,133.608C244.62,134.14 244.541,135.208 244.541,136.812C244.541,138.289 244.624,139.314 244.79,139.885C244.96,140.425 245.278,140.695 245.744,140.695C246.202,140.695 246.516,140.443 246.686,139.937C246.856,139.436 246.941,138.51 246.941,137.158Z" style="fill:rgb(158,161,168);fill-rule:nonzero;"/>
            <path id="path1069" d="M249.719,131.719L251.511,131.719C252.252,131.719 252.803,131.895 253.165,132.248C253.622,132.706 253.851,133.406 253.851,134.347C253.851,135.071 253.729,135.652 253.485,136.093C253.245,136.528 252.901,136.799 252.452,136.903L254.309,141.813L252.929,141.813L251.079,136.871L251.079,141.813L249.719,141.813L249.719,131.719ZM251.079,136.191C251.607,136.191 251.979,136.069 252.197,135.825C252.415,135.581 252.524,135.169 252.524,134.589C252.524,134.275 252.5,134.007 252.452,133.785C252.409,133.562 252.337,133.382 252.236,133.242C252.14,133.103 252.014,133 251.857,132.935C251.705,132.869 251.522,132.837 251.308,132.837L251.079,132.837L251.079,136.191Z" style="fill:rgb(158,161,168);fill-rule:nonzero;"/>
        </g>
        <g id="text1104" transform="matrix(0.790032,0,0,1.26577,0,0)">
            <path id="path1106" d="M6.449,140.996L6.449,142.413C6.007,142.097 5.609,141.938 5.255,141.938C4.873,141.938 4.561,142.073 4.319,142.343C4.077,142.599 3.956,142.942 3.956,143.37C3.956,143.747 4.042,144.07 4.214,144.34C4.303,144.485 4.447,144.671 4.647,144.899C4.852,145.127 5.115,145.402 5.436,145.723C6.028,146.323 6.43,146.843 6.644,147.28C6.858,147.704 6.966,148.223 6.966,148.837C6.966,149.67 6.73,150.357 6.26,150.897C5.79,151.423 5.187,151.686 4.452,151.686C3.833,151.686 3.304,151.516 2.867,151.176L2.867,149.738C3.383,150.115 3.854,150.304 4.277,150.304C4.673,150.304 4.982,150.173 5.206,149.913C5.429,149.647 5.541,149.289 5.541,148.837C5.541,148.446 5.455,148.095 5.283,147.783C5.194,147.634 5.071,147.464 4.913,147.273C4.754,147.078 4.557,146.861 4.319,146.624C3.951,146.261 3.646,145.939 3.404,145.66C3.162,145.381 2.983,145.136 2.867,144.927C2.643,144.517 2.532,144.001 2.532,143.377C2.532,142.534 2.75,141.866 3.188,141.373C3.63,140.875 4.224,140.626 4.968,140.626C5.485,140.626 5.979,140.749 6.449,140.996L6.449,140.996Z" style="fill:rgb(158,161,168);fill-rule:nonzero;"/>
            <rect id="path1108" x="8.187" y="140.772" width="1.452" height="10.781" style="fill:rgb(158,161,168);fill-rule:nonzero;"/>
            <path id="path1110" d="M11.316,140.772L12.67,140.772L14.116,145.074C14.535,146.289 14.905,147.585 15.226,148.963C15.11,148.13 15.023,147.376 14.968,146.701C14.912,146.026 14.884,145.39 14.884,144.794L14.884,140.772L16.343,140.772L16.343,151.553L14.982,151.553L13.355,146.701C13.206,146.249 13.064,145.786 12.929,145.311C12.798,144.836 12.677,144.338 12.566,143.817C12.556,143.752 12.54,143.672 12.517,143.579C12.498,143.486 12.475,143.379 12.447,143.258C12.461,143.379 12.472,143.484 12.482,143.572C12.491,143.656 12.498,143.728 12.503,143.789L12.58,144.885L12.656,146.219C12.661,146.293 12.663,146.384 12.663,146.491C12.668,146.598 12.67,146.719 12.67,146.854L12.747,151.553L11.316,151.553L11.316,140.772Z" style="fill:rgb(158,161,168);fill-rule:nonzero;"/>
            <path id="path1112" d="M20.603,145.884L23.242,145.884L23.242,146.303C23.242,148.402 23.058,149.819 22.69,150.555C22.327,151.309 21.648,151.686 20.651,151.686C19.623,151.686 18.889,151.267 18.452,150.429C18.019,149.591 17.803,148.183 17.803,146.205C17.803,143.942 18.04,142.437 18.515,141.687C18.962,140.984 19.648,140.633 20.575,140.633C21.282,140.633 21.834,140.803 22.229,141.142C22.63,141.487 22.942,142.052 23.165,142.839L21.811,143.405C21.75,143.121 21.683,142.883 21.608,142.693C21.534,142.497 21.452,142.346 21.364,142.239C21.187,142.02 20.921,141.91 20.568,141.91C20.083,141.91 19.753,142.208 19.576,142.804C19.399,143.428 19.311,144.548 19.311,146.163C19.311,147.797 19.402,148.902 19.583,149.48C19.765,150.057 20.107,150.345 20.61,150.345C21.07,150.345 21.394,150.141 21.58,149.731C21.771,149.293 21.866,148.591 21.866,147.622L21.866,147.329L21.866,147.113L20.603,147.113L20.603,145.884Z" style="fill:rgb(158,161,168);fill-rule:nonzero;"/>
            <path id="path1114" d="M28.165,140.772L29.408,140.772L30.357,145.171C30.474,145.721 30.578,146.272 30.671,146.826C30.769,147.376 30.858,147.953 30.937,148.558C30.946,148.479 30.953,148.418 30.958,148.376C30.962,148.33 30.967,148.297 30.972,148.279L31.174,147.043L31.356,145.87L31.516,145.095L32.361,140.772L33.618,140.772L34.61,151.553L33.22,151.553L32.976,147.895C32.966,147.708 32.957,147.548 32.948,147.413C32.943,147.278 32.941,147.166 32.941,147.078L32.878,145.632L32.843,144.306C32.843,144.296 32.841,144.278 32.836,144.25C32.836,144.217 32.834,144.175 32.829,144.124L32.794,144.34C32.757,144.596 32.722,144.82 32.689,145.011C32.661,145.202 32.636,145.362 32.613,145.493L32.431,146.477L32.361,146.847L31.453,151.553L30.476,151.553L29.624,147.49C29.508,146.954 29.403,146.412 29.31,145.863C29.221,145.309 29.14,144.729 29.065,144.124L28.646,151.553L27.278,151.553L28.165,140.772Z" style="fill:rgb(158,161,168);fill-rule:nonzero;"/>
            <path id="path1116" d="M41.208,146.428C41.208,148.332 40.996,149.684 40.573,150.485C40.149,151.286 39.439,151.686 38.443,151.686C37.396,151.686 36.658,151.256 36.23,150.394C35.806,149.552 35.594,148.055 35.594,145.905C35.594,143.987 35.804,142.63 36.223,141.834C36.646,141.033 37.363,140.633 38.373,140.633C39.276,140.633 39.947,140.942 40.384,141.561C40.673,141.976 40.882,142.565 41.013,143.328C41.143,144.036 41.208,145.069 41.208,146.428L41.208,146.428ZM39.686,146.582C39.686,144.715 39.602,143.477 39.435,142.867C39.267,142.253 38.925,141.945 38.408,141.945C37.891,141.945 37.547,142.227 37.375,142.79C37.207,143.358 37.123,144.499 37.123,146.212C37.123,147.79 37.212,148.884 37.389,149.494C37.57,150.071 37.91,150.359 38.408,150.359C38.897,150.359 39.232,150.089 39.414,149.549C39.595,149.014 39.686,148.025 39.686,146.582L39.686,146.582Z" style="fill:rgb(158,161,168);fill-rule:nonzero;"/>
            <path id="path1118" d="M42.654,140.772L44.441,140.772C44.986,140.772 45.444,140.833 45.817,140.954C46.161,141.07 46.468,141.277 46.738,141.575C47.143,142.022 47.432,142.604 47.604,143.321C47.777,144.015 47.863,145.008 47.863,146.303C47.863,147.49 47.767,148.458 47.576,149.207C47.39,149.924 47.083,150.471 46.655,150.848C46.129,151.318 45.186,151.553 43.827,151.553L42.654,151.553L42.654,140.772ZM44.106,150.283C44.99,150.283 45.582,150.015 45.88,149.48C46.187,148.944 46.34,147.904 46.34,146.358C46.34,144.697 46.194,143.554 45.901,142.93C45.607,142.306 45.07,141.994 44.288,141.994L44.106,141.994L44.106,150.283Z" style="fill:rgb(158,161,168);fill-rule:nonzero;"/>
            <path id="path1120" d="M49.301,140.772L53.162,140.772L53.162,142.001L50.753,142.001L50.753,145.416L52.89,145.416L52.89,146.645L50.753,146.645L50.753,150.325L53.162,150.325L53.162,151.553L49.301,151.553L49.301,140.772Z" style="fill:rgb(158,161,168);fill-rule:nonzero;"/>
        </g>
        <g id="g1105" transform="matrix(0.863119,0,0,1.04997,79.9436,-283)">
            <path id="path1065" d="M67.264,276.325L68.911,276.325C69.592,276.325 70.099,276.488 70.432,276.812C70.853,277.233 71.064,277.877 71.064,278.743C71.064,279.408 70.951,279.943 70.727,280.348C70.506,280.749 70.19,280.997 69.777,281.093L71.484,285.609L70.216,285.609L68.514,281.063L68.514,285.609L67.264,285.609L67.264,276.325ZM68.514,280.438C68.999,280.438 69.342,280.326 69.542,280.101C69.743,279.877 69.843,279.498 69.843,278.965C69.843,278.676 69.821,278.43 69.777,278.225C69.737,278.021 69.671,277.855 69.578,277.726C69.49,277.598 69.374,277.504 69.23,277.444C69.089,277.384 68.921,277.354 68.725,277.354L68.514,277.354L68.514,280.438Z" style="fill:rgb(158,161,168);fill-rule:nonzero;"/>
            <path id="path1075" d="M73.781,276.325L74.755,276.325L76.746,285.609L75.507,285.609L75.158,283.799L73.318,283.799L72.964,285.609L71.761,285.609L73.781,276.325ZM74.978,282.831L74.701,281.352C74.517,280.346 74.366,279.272 74.25,278.129C74.194,278.686 74.122,279.252 74.034,279.825C73.946,280.394 73.841,280.999 73.721,281.641L73.493,282.831L74.978,282.831Z" style="fill:rgb(158,161,168);fill-rule:nonzero;"/>
            <path id="path1084" d="M77.485,276.325L78.652,276.325L79.896,280.029C80.257,281.075 80.576,282.192 80.852,283.378C80.752,282.661 80.678,282.011 80.63,281.43C80.582,280.849 80.558,280.302 80.558,279.789L80.558,276.325L81.814,276.325L81.814,285.609L80.642,285.609L79.241,281.43C79.113,281.041 78.99,280.643 78.874,280.234C78.762,279.825 78.658,279.396 78.561,278.947C78.553,278.891 78.539,278.823 78.519,278.743C78.503,278.662 78.483,278.57 78.459,278.466C78.471,278.57 78.481,278.66 78.489,278.737C78.497,278.809 78.503,278.871 78.508,278.923L78.574,279.867L78.64,281.015C78.644,281.079 78.646,281.158 78.646,281.25C78.65,281.342 78.652,281.446 78.652,281.562L78.718,285.609L77.485,285.609L77.485,276.325Z" style="fill:rgb(158,161,168);fill-rule:nonzero;"/>
            <path id="path1095" d="M83.257,276.325L84.797,276.325C85.266,276.325 85.66,276.378 85.981,276.482C86.278,276.582 86.542,276.76 86.775,277.017C87.123,277.402 87.372,277.903 87.52,278.52C87.669,279.117 87.743,279.973 87.743,281.087C87.743,282.11 87.661,282.943 87.496,283.589C87.336,284.206 87.071,284.677 86.703,285.002C86.25,285.407 85.438,285.609 84.267,285.609L83.257,285.609L83.257,276.325ZM84.508,284.515C85.27,284.515 85.779,284.284 86.035,283.823C86.3,283.362 86.432,282.466 86.432,281.136C86.432,279.705 86.306,278.72 86.053,278.183C85.801,277.646 85.338,277.378 84.664,277.378L84.508,277.378L84.508,284.515Z" style="fill:rgb(158,161,168);fill-rule:nonzero;"/>
            <path id="path1101" d="M93.629,281.196C93.629,282.835 93.447,284 93.082,284.689C92.717,285.379 92.106,285.723 91.248,285.723C90.346,285.723 89.711,285.352 89.342,284.611C88.977,283.885 88.795,282.597 88.795,280.745C88.795,279.093 88.975,277.925 89.336,277.239C89.701,276.55 90.318,276.205 91.188,276.205C91.966,276.205 92.543,276.472 92.92,277.005C93.168,277.362 93.349,277.869 93.461,278.526C93.573,279.135 93.629,280.025 93.629,281.196L93.629,281.196ZM92.318,281.328C92.318,279.721 92.246,278.654 92.102,278.129C91.958,277.6 91.663,277.336 91.218,277.336C90.773,277.336 90.477,277.578 90.328,278.063C90.184,278.552 90.112,279.534 90.112,281.009C90.112,282.368 90.188,283.31 90.34,283.835C90.497,284.332 90.789,284.581 91.218,284.581C91.639,284.581 91.928,284.348 92.084,283.883C92.24,283.422 92.318,282.571 92.318,281.328L92.318,281.328Z" style="fill:rgb(158,161,168);fill-rule:nonzero;"/>
            <path id="path1103" d="M95.313,276.325L96.383,276.325L97.201,280.113C97.301,280.586 97.391,281.061 97.471,281.538C97.555,282.011 97.632,282.508 97.7,283.03C97.708,282.961 97.714,282.909 97.718,282.873C97.722,282.833 97.726,282.805 97.73,282.789L97.904,281.725L98.061,280.715L98.199,280.047L98.926,276.325L100.009,276.325L100.863,285.609L99.666,285.609L99.455,282.458C99.447,282.298 99.439,282.16 99.431,282.044C99.427,281.927 99.425,281.831 99.425,281.755L99.371,280.51L99.341,279.368C99.341,279.36 99.339,279.344 99.335,279.32C99.335,279.292 99.333,279.256 99.329,279.212L99.299,279.398C99.266,279.618 99.236,279.811 99.208,279.975C99.184,280.139 99.162,280.278 99.142,280.39L98.986,281.238L98.926,281.556L98.144,285.609L97.302,285.609L96.569,282.11C96.469,281.649 96.378,281.182 96.298,280.709C96.222,280.232 96.152,279.733 96.088,279.212L95.727,285.609L94.549,285.609L95.313,276.325Z" style="fill:rgb(158,161,168);fill-rule:nonzero;"/>
        </g>
    </g>
</svg>
