<?xml version="1.0" encoding="UTF-8" standalone="no"?>
<!DOCTYPE svg PUBLIC "-//W3C//DTD SVG 1.1//EN" "http://www.w3.org/Graphics/SVG/1.1/DTD/svg11.dtd">
<svg width="100%" height="100%" viewBox="0 0 270 380" version="1.1" xmlns="http://www.w3.org/2000/svg" xmlns:xlink="http://www.w3.org/1999/xlink" xml:space="preserve" xmlns:serif="http://www.serif.com/" style="fill-rule:evenodd;clip-rule:evenodd;stroke-linejoin:round;stroke-miterlimit:2;">
    <g id="Layer-2" serif:id="Layer 2">
        <g id="text989">
        </g>
        <rect id="rect4689" x="0" y="0" width="270" height="380" style="fill:rgb(183,196,200);fill-rule:nonzero;"/>
        <g id="text4987">
        </g>
        <g id="text1042">
        </g>
        <g id="text2090">
        </g>
        <rect id="path915" x="0" y="0" width="135" height="380" style="fill:rgb(44,45,48);fill-rule:nonzero;"/>
        <rect id="path917" x="135" y="0" width="135" height="380" style="fill:rgb(44,45,48);fill-rule:nonzero;"/>
        <g id="text80" transform="matrix(0.87098,0,0,0.995047,96,6.99997)">
            <path id="path4726" d="M29.851,371.706L29.851,363.943L31.853,363.943L32.903,366.668C32.96,366.829 33.024,367.013 33.094,367.221C33.168,367.429 33.249,367.668 33.336,367.94L33.552,368.624C33.475,367.95 33.416,367.373 33.376,366.894C33.336,366.415 33.316,366.013 33.316,365.687L33.316,363.943L35.317,363.943L35.317,371.706L33.316,371.706L32.26,368.85C32.149,368.545 32.049,368.26 31.958,367.995C31.871,367.727 31.794,367.472 31.727,367.231C31.77,367.777 31.802,368.253 31.822,368.659C31.843,369.065 31.853,369.42 31.853,369.725L31.853,371.706L29.851,371.706Z" style="fill:rgb(158,161,168);fill-rule:nonzero;"/>
            <path id="path4728" d="M39.887,371.706L37.791,371.706L37.791,368.418L35.865,363.943L38.052,363.943L38.429,365.094C38.503,365.319 38.568,365.535 38.625,365.743C38.686,365.951 38.739,366.15 38.786,366.341C38.863,366.056 38.93,365.811 38.987,365.607C39.044,365.399 39.095,365.232 39.138,365.104L39.52,363.943L41.692,363.943L39.887,368.418L39.887,371.706Z" style="fill:rgb(158,161,168);fill-rule:nonzero;"/>
            <path id="path4730" d="M41.894,371.515L41.894,369.076C42.306,369.639 42.752,369.921 43.231,369.921C43.412,369.921 43.56,369.874 43.673,369.78C43.787,369.683 43.844,369.562 43.844,369.418C43.844,369.21 43.72,369.008 43.472,368.81L43.13,368.543C42.902,368.372 42.708,368.203 42.547,368.035C42.386,367.865 42.256,367.69 42.155,367.513C42.054,367.332 41.981,367.146 41.934,366.954C41.887,366.763 41.863,366.562 41.863,366.351C41.863,365.989 41.947,365.61 42.115,365.215C42.199,365.03 42.296,364.863 42.406,364.712C42.517,364.558 42.644,364.422 42.789,364.305C43.184,363.969 43.662,363.802 44.222,363.802C44.721,363.802 45.224,363.934 45.73,364.199L45.73,366.572C45.559,366.308 45.365,366.1 45.147,365.949C44.929,365.795 44.714,365.718 44.503,365.718C44.342,365.718 44.21,365.765 44.106,365.858C43.999,365.949 43.945,366.058 43.945,366.185C43.945,366.393 44.087,366.599 44.372,366.804L44.704,367.05C45.147,367.368 45.463,367.695 45.655,368.03C45.849,368.366 45.946,368.758 45.946,369.207C45.946,369.971 45.713,370.601 45.247,371.098C44.781,371.594 44.191,371.842 43.477,371.842C42.985,371.842 42.457,371.733 41.894,371.515L41.894,371.515Z" style="fill:rgb(158,161,168);fill-rule:nonzero;"/>
            <path id="path4732" d="M49.576,371.706L47.48,371.706L47.48,365.803L46.323,365.803L46.323,363.943L50.778,363.943L50.778,365.803L49.576,365.803L49.576,371.706Z" style="fill:rgb(158,161,168);fill-rule:nonzero;"/>
            <path id="path4734" d="M56.525,371.706L54.428,371.706L54.428,368.584L53.428,368.584L53.428,371.706L51.331,371.706L51.331,363.943L53.428,363.943L53.428,366.688L54.428,366.688L54.428,363.943L56.525,363.943L56.525,371.706Z" style="fill:rgb(158,161,168);fill-rule:nonzero;"/>
            <rect id="path4736" x="57.606" y="363.943" width="2.097" height="7.763" style="fill:rgb(158,161,168);fill-rule:nonzero;"/>
        </g>
        <g id="text1081" transform="matrix(0.965715,0,0,1.0355,-24,-5)">
            <path id="path1087" d="M197.658,351.614C197.658,353.329 197.468,354.546 197.086,355.267C196.705,355.988 196.066,356.349 195.169,356.349C194.226,356.349 193.561,355.961 193.176,355.186C192.794,354.427 192.603,353.079 192.603,351.143C192.603,349.416 192.792,348.194 193.169,347.477C193.551,346.757 194.196,346.396 195.106,346.396C195.919,346.396 196.523,346.675 196.917,347.232C197.176,347.605 197.365,348.135 197.482,348.823C197.6,349.46 197.658,350.391 197.658,351.614L197.658,351.614ZM196.288,351.753C196.288,350.072 196.212,348.957 196.061,348.408C195.911,347.855 195.602,347.578 195.137,347.578C194.672,347.578 194.362,347.832 194.207,348.339C194.056,348.85 193.98,349.877 193.98,351.42C193.98,352.84 194.06,353.825 194.219,354.375C194.383,354.894 194.689,355.154 195.137,355.154C195.577,355.154 195.879,354.911 196.043,354.425C196.206,353.943 196.288,353.052 196.288,351.753L196.288,351.753Z" style="fill:rgb(158,161,168);fill-rule:nonzero;"/>
            <path id="path1089" d="M198.96,346.522L200.242,346.522L200.242,353.381C200.242,354.081 200.305,354.546 200.431,354.777C200.561,355.007 200.817,355.123 201.198,355.123C201.58,355.123 201.831,355.022 201.953,354.821C202.078,354.615 202.141,354.198 202.141,353.57L202.141,346.522L203.424,346.522L203.424,353.57C203.424,354.626 203.262,355.341 202.94,355.714C202.554,356.137 201.965,356.349 201.173,356.349C200.301,356.349 199.687,356.076 199.331,355.531C199.083,355.158 198.96,354.442 198.96,353.381L198.96,346.522Z" style="fill:rgb(158,161,168);fill-rule:nonzero;"/>
            <path id="path1091" d="M204.147,346.522L208.403,346.522L208.403,347.666L206.938,347.666L206.938,356.229L205.656,356.229L205.656,347.666L204.147,347.666L204.147,346.522Z" style="fill:rgb(158,161,168);fill-rule:nonzero;"/>
            <path id="path1093" d="M209.12,346.522L210.843,346.522C211.673,346.522 212.276,346.731 212.653,347.151C213.031,347.574 213.219,348.244 213.219,349.162C213.219,350.453 212.84,351.287 212.081,351.665C211.7,351.837 211.149,351.922 210.428,351.922L210.428,356.229L209.12,356.229L209.12,346.522ZM210.428,350.803C210.968,350.803 211.341,350.694 211.547,350.476C211.756,350.254 211.861,349.86 211.861,349.294C211.861,348.716 211.761,348.293 211.559,348.024C211.358,347.756 211.042,347.622 210.61,347.622L210.428,347.622L210.428,350.803Z" style="fill:rgb(158,161,168);fill-rule:nonzero;"/>
            <path id="path1095" d="M214.225,346.522L215.508,346.522L215.508,353.381C215.508,354.081 215.571,354.546 215.696,354.777C215.826,355.007 216.082,355.123 216.463,355.123C216.845,355.123 217.096,355.022 217.218,354.821C217.344,354.615 217.407,354.198 217.407,353.57L217.407,346.522L218.689,346.522L218.689,353.57C218.689,354.626 218.528,355.341 218.205,355.714C217.819,356.137 217.231,356.349 216.438,356.349C215.566,356.349 214.952,356.076 214.596,355.531C214.349,355.158 214.225,354.442 214.225,353.381L214.225,346.522Z" style="fill:rgb(158,161,168);fill-rule:nonzero;"/>
            <path id="path1097" d="M219.412,346.522L223.669,346.522L223.669,347.666L222.204,347.666L222.204,356.229L220.921,356.229L220.921,347.666L219.412,347.666L219.412,346.522Z" style="fill:rgb(158,161,168);fill-rule:nonzero;"/>
        </g>
        <g id="text1085" transform="matrix(0.93329,0,0,1.07148,-2,-5)">
            <path id="path1100" d="M4.286,334.887L5.841,334.887C6.315,334.887 6.714,334.94 7.038,335.045C7.338,335.146 7.605,335.327 7.84,335.586C8.193,335.975 8.444,336.481 8.594,337.105C8.744,337.708 8.819,338.573 8.819,339.699C8.819,340.732 8.736,341.575 8.57,342.227C8.408,342.851 8.14,343.327 7.768,343.655C7.31,344.064 6.49,344.269 5.307,344.269L4.286,344.269L4.286,334.887ZM5.55,343.163C6.319,343.163 6.834,342.93 7.093,342.464C7.36,341.998 7.494,341.093 7.494,339.748C7.494,338.302 7.367,337.307 7.111,336.765C6.856,336.222 6.388,335.95 5.708,335.95L5.55,335.95L5.55,343.163Z" style="fill:rgb(158,161,168);fill-rule:nonzero;"/>
            <path id="path1102" d="M13.752,335.039L13.752,336.175C13.428,336.017 13.157,335.938 12.938,335.938C12.639,335.938 12.381,336.013 12.167,336.163C11.952,336.309 11.774,336.536 11.632,336.844C11.494,337.151 11.391,337.542 11.322,338.016C11.257,338.486 11.225,339.043 11.225,339.687C11.225,342.004 11.818,343.163 13.005,343.163C13.212,343.163 13.461,343.098 13.752,342.968L13.752,344.129C13.449,344.299 13.108,344.384 12.732,344.384C10.832,344.384 9.882,342.833 9.882,339.73C9.882,338.053 10.113,336.805 10.575,335.987C11.041,335.169 11.751,334.759 12.707,334.759C13.06,334.759 13.408,334.853 13.752,335.039L13.752,335.039Z" style="fill:rgb(158,161,168);fill-rule:nonzero;"/>
            <path id="path1104" d="M17.386,334.887L19.099,334.887C20.44,334.887 21.111,335.719 21.111,337.384C21.111,338.02 21.024,338.492 20.849,338.8C20.675,339.108 20.367,339.341 19.926,339.499C20.432,339.701 20.779,339.961 20.965,340.277C21.155,340.588 21.25,341.058 21.25,341.686C21.25,343.408 20.513,344.269 19.039,344.269L17.386,344.269L17.386,334.887ZM18.577,339.019C19.067,339.019 19.407,338.905 19.598,338.679C19.788,338.44 19.883,338.02 19.883,337.421C19.883,336.408 19.519,335.902 18.79,335.902L18.692,335.902L18.638,335.902C18.605,335.902 18.585,335.904 18.577,335.908L18.577,339.019ZM18.577,343.187C19.095,343.187 19.454,343.076 19.652,342.853C19.851,342.63 19.95,342.227 19.95,341.644C19.95,341.044 19.847,340.625 19.64,340.386C19.438,340.143 19.083,340.021 18.577,340.021L18.577,343.187Z" style="fill:rgb(158,161,168);fill-rule:nonzero;"/>
            <path id="path1106" d="M22.514,334.887L23.778,334.887L23.778,343.199L25.844,343.199L25.844,344.269L22.514,344.269L22.514,334.887Z" style="fill:rgb(158,161,168);fill-rule:nonzero;"/>
            <path id="path1108" d="M31.343,339.809C31.343,341.465 31.159,342.642 30.79,343.339C30.421,344.036 29.804,344.384 28.937,344.384C28.025,344.384 27.383,344.009 27.011,343.26C26.642,342.527 26.458,341.224 26.458,339.353C26.458,337.684 26.64,336.503 27.004,335.811C27.373,335.114 27.997,334.766 28.876,334.766C29.662,334.766 30.245,335.035 30.626,335.574C30.877,335.934 31.059,336.447 31.173,337.111C31.286,337.727 31.343,338.626 31.343,339.809L31.343,339.809ZM30.018,339.942C30.018,338.318 29.945,337.241 29.799,336.71C29.654,336.175 29.356,335.908 28.906,335.908C28.457,335.908 28.157,336.153 28.007,336.643C27.861,337.137 27.788,338.13 27.788,339.62C27.788,340.994 27.865,341.945 28.019,342.476C28.177,342.978 28.473,343.23 28.906,343.23C29.332,343.23 29.623,342.995 29.781,342.525C29.939,342.059 30.018,341.198 30.018,339.942L30.018,339.942Z" style="fill:rgb(158,161,168);fill-rule:nonzero;"/>
            <path id="path1110" d="M36.283,335.039L36.283,336.175C35.959,336.017 35.687,335.938 35.469,335.938C35.169,335.938 34.912,336.013 34.697,336.163C34.482,336.309 34.304,336.536 34.162,336.844C34.024,337.151 33.921,337.542 33.852,338.016C33.787,338.486 33.755,339.043 33.755,339.687C33.755,342.004 34.348,343.163 35.535,343.163C35.742,343.163 35.991,343.098 36.283,342.968L36.283,344.129C35.979,344.299 35.639,344.384 35.262,344.384C33.362,344.384 32.412,342.833 32.412,339.73C32.412,338.053 32.643,336.805 33.105,335.987C33.571,335.169 34.282,334.759 35.238,334.759C35.59,334.759 35.938,334.853 36.283,335.039L36.283,335.039Z" style="fill:rgb(158,161,168);fill-rule:nonzero;"/>
            <path id="path1112" d="M37.34,334.887L38.604,334.887L38.604,339.432L40.366,334.887L41.642,334.887L39.795,339.432L41.788,344.269L40.366,344.269L38.604,339.432L38.604,344.269L37.34,344.269L37.34,334.887Z" style="fill:rgb(158,161,168);fill-rule:nonzero;"/>
        </g>
        <g id="text1121" transform="matrix(0.94077,0,0,1.06296,0,5)">
            <path id="path1123" d="M151.472,18.65L153.199,18.65C154.55,18.65 155.226,19.489 155.226,21.167C155.226,21.808 155.138,22.284 154.963,22.594C154.787,22.905 154.477,23.14 154.032,23.299C154.542,23.503 154.891,23.764 155.079,24.083C155.271,24.397 155.367,24.871 155.367,25.504C155.367,27.239 154.624,28.107 153.138,28.107L151.472,28.107L151.472,18.65ZM152.672,22.815C153.166,22.815 153.509,22.701 153.701,22.472C153.893,22.231 153.989,21.808 153.989,21.204C153.989,20.183 153.622,19.673 152.887,19.673L152.789,19.673L152.733,19.673C152.701,19.673 152.68,19.675 152.672,19.679L152.672,22.815ZM152.672,27.017C153.195,27.017 153.556,26.904 153.756,26.68C153.956,26.455 154.056,26.049 154.056,25.461C154.056,24.856 153.952,24.434 153.744,24.193C153.54,23.948 153.183,23.825 152.672,23.825L152.672,27.017Z" style="fill:rgb(158,161,168);fill-rule:nonzero;"/>
            <path id="path1125" d="M158.038,18.65L159.03,18.65L161.057,28.107L159.795,28.107L159.44,26.263L157.566,26.263L157.205,28.107L155.98,28.107L158.038,18.65ZM159.256,25.277L158.975,23.77C158.787,22.745 158.634,21.651 158.515,20.487C158.458,21.055 158.385,21.631 158.295,22.215C158.205,22.794 158.099,23.411 157.976,24.064L157.744,25.277L159.256,25.277Z" style="fill:rgb(158,161,168);fill-rule:nonzero;"/>
            <path id="path1127" d="M161.81,18.65L162.999,18.65L164.266,22.423C164.634,23.489 164.959,24.626 165.24,25.834C165.138,25.104 165.063,24.442 165.014,23.85C164.965,23.258 164.94,22.701 164.94,22.178L164.94,18.65L166.22,18.65L166.22,28.107L165.026,28.107L163.599,23.85C163.468,23.454 163.344,23.048 163.225,22.631C163.111,22.215 163.005,21.778 162.907,21.32C162.899,21.263 162.884,21.194 162.864,21.112C162.847,21.031 162.827,20.937 162.803,20.83C162.815,20.937 162.825,21.028 162.833,21.106C162.841,21.18 162.847,21.243 162.852,21.296L162.919,22.258L162.986,23.427C162.991,23.493 162.993,23.572 162.993,23.666C162.997,23.76 162.999,23.866 162.999,23.985L163.066,28.107L161.81,28.107L161.81,18.65Z" style="fill:rgb(158,161,168);fill-rule:nonzero;"/>
            <path id="path1129" d="M167.69,18.65L168.964,18.65L168.964,23.231L170.74,18.65L172.027,18.65L170.165,23.231L172.174,28.107L170.74,28.107L168.964,23.231L168.964,28.107L167.69,28.107L167.69,18.65Z" style="fill:rgb(158,161,168);fill-rule:nonzero;"/>
            <path id="path1131" d="M176.234,18.846L176.234,20.089C175.846,19.812 175.497,19.673 175.187,19.673C174.852,19.673 174.579,19.791 174.366,20.028C174.154,20.253 174.048,20.553 174.048,20.928C174.048,21.259 174.123,21.543 174.274,21.78C174.352,21.906 174.479,22.07 174.654,22.27C174.834,22.47 175.064,22.711 175.346,22.993C175.865,23.519 176.218,23.975 176.406,24.358C176.594,24.73 176.688,25.185 176.688,25.724C176.688,26.455 176.481,27.057 176.069,27.531C175.657,27.992 175.128,28.223 174.483,28.223C173.94,28.223 173.476,28.074 173.092,27.776L173.092,26.514C173.545,26.845 173.958,27.01 174.329,27.01C174.677,27.01 174.948,26.896 175.144,26.667C175.34,26.435 175.438,26.12 175.438,25.724C175.438,25.381 175.362,25.073 175.211,24.799C175.134,24.669 175.026,24.52 174.887,24.352C174.748,24.181 174.574,23.991 174.366,23.783C174.044,23.464 173.776,23.182 173.564,22.937C173.352,22.692 173.194,22.478 173.092,22.294C172.896,21.935 172.798,21.482 172.798,20.935C172.798,20.196 172.99,19.61 173.374,19.177C173.762,18.74 174.282,18.521 174.936,18.521C175.389,18.521 175.822,18.63 176.234,18.846L176.234,18.846Z" style="fill:rgb(158,161,168);fill-rule:nonzero;"/>
            <path id="path1133" d="M178.347,26.686C178.547,26.686 178.721,26.761 178.868,26.912C179.015,27.059 179.088,27.237 179.088,27.445C179.088,27.653 179.015,27.831 178.868,27.978C178.713,28.121 178.535,28.192 178.335,28.192C178.229,28.192 178.129,28.172 178.035,28.131C177.945,28.094 177.866,28.043 177.796,27.978C177.727,27.909 177.672,27.829 177.631,27.739C177.594,27.645 177.576,27.545 177.576,27.439C177.576,27.231 177.649,27.053 177.796,26.906C177.947,26.759 178.131,26.686 178.347,26.686L178.347,26.686ZM178.347,21.676C178.547,21.676 178.721,21.751 178.868,21.902C179.015,22.049 179.088,22.225 179.088,22.429C179.088,22.641 179.015,22.821 178.868,22.968C178.721,23.115 178.543,23.189 178.335,23.189C178.123,23.189 177.943,23.115 177.796,22.968C177.649,22.817 177.576,22.637 177.576,22.429C177.576,22.217 177.649,22.039 177.796,21.896C177.947,21.749 178.131,21.676 178.347,21.676L178.347,21.676Z" style="fill:rgb(158,161,168);fill-rule:nonzero;"/>
            <path id="path1135" d="M186.665,18.803L186.665,19.948C186.338,19.789 186.065,19.71 185.844,19.71C185.542,19.71 185.283,19.785 185.066,19.936C184.85,20.083 184.67,20.312 184.527,20.622C184.388,20.933 184.284,21.327 184.215,21.804C184.15,22.278 184.117,22.839 184.117,23.489C184.117,25.824 184.715,26.992 185.911,26.992C186.12,26.992 186.371,26.927 186.665,26.796L186.665,27.966C186.359,28.137 186.016,28.223 185.636,28.223C183.721,28.223 182.763,26.659 182.763,23.531C182.763,21.841 182.996,20.583 183.462,19.759C183.931,18.934 184.648,18.521 185.611,18.521C185.967,18.521 186.318,18.615 186.665,18.803L186.665,18.803Z" style="fill:rgb(158,161,168);fill-rule:nonzero;"/>
            <path id="path1137" d="M186.977,18.65L188.233,18.65L188.802,22.141L188.9,22.772L189.103,24.144C189.135,24.377 189.164,24.589 189.188,24.781C189.217,24.973 189.241,25.146 189.262,25.302L189.323,25.767C189.335,25.673 189.346,25.589 189.354,25.516C189.362,25.442 189.37,25.381 189.378,25.332L189.544,24.236L189.758,22.797C189.778,22.666 189.797,22.545 189.813,22.435C189.833,22.325 189.852,22.227 189.868,22.141L190.481,18.65L191.669,18.65L189.813,28.107L188.803,28.107L186.977,18.65Z" style="fill:rgb(158,161,168);fill-rule:nonzero;"/>
            <rect id="path1139" x="194.229" y="24.383" width="2.229" height="0.955" style="fill:rgb(158,161,168);fill-rule:nonzero;"/>
            <path id="path1141" d="M199.031,18.65L200.286,18.65L200.856,22.141L200.954,22.772L201.156,24.144C201.189,24.377 201.217,24.589 201.242,24.781C201.27,24.973 201.295,25.146 201.315,25.302L201.377,25.767C201.389,25.673 201.399,25.589 201.407,25.516C201.415,25.442 201.424,25.381 201.432,25.332L201.597,24.236L201.812,22.797C201.832,22.666 201.85,22.545 201.867,22.435C201.887,22.325 201.905,22.227 201.922,22.141L202.534,18.65L203.722,18.65L201.867,28.107L200.856,28.107L199.031,18.65Z" style="fill:rgb(158,161,168);fill-rule:nonzero;"/>
            <path id="path1143" d="M208.102,18.803L208.102,19.948C207.775,19.789 207.501,19.71 207.281,19.71C206.979,19.71 206.719,19.785 206.503,19.936C206.287,20.083 206.107,20.312 205.964,20.622C205.825,20.933 205.721,21.327 205.652,21.804C205.586,22.278 205.554,22.839 205.554,23.489C205.554,25.824 206.152,26.992 207.348,26.992C207.557,26.992 207.808,26.927 208.102,26.796L208.102,27.966C207.795,28.137 207.452,28.223 207.073,28.223C205.158,28.223 204.2,26.659 204.2,23.531C204.2,21.841 204.433,20.583 204.898,19.759C205.368,18.934 206.085,18.521 207.048,18.521C207.403,18.521 207.755,18.615 208.102,18.803L208.102,18.803Z" style="fill:rgb(158,161,168);fill-rule:nonzero;"/>
            <path id="path1145" d="M210.858,18.65L211.85,18.65L213.877,28.107L212.616,28.107L212.26,26.263L210.386,26.263L210.025,28.107L208.8,28.107L210.858,18.65ZM212.077,25.277L211.795,23.77C211.607,22.745 211.454,21.651 211.336,20.487C211.278,21.055 211.205,21.631 211.115,22.215C211.025,22.794 210.919,23.411 210.797,24.064L210.564,25.277L212.077,25.277Z" style="fill:rgb(158,161,168);fill-rule:nonzero;"/>
            <rect id="path1147" x="216.499" y="24.383" width="2.229" height="0.955" style="fill:rgb(158,161,168);fill-rule:nonzero;"/>
            <path id="path1149" d="M222.054,18.65L223.781,18.65C225.133,18.65 225.808,19.489 225.808,21.167C225.808,21.808 225.721,22.284 225.545,22.594C225.37,22.905 225.059,23.14 224.614,23.299C225.125,23.503 225.474,23.764 225.661,24.083C225.853,24.397 225.949,24.871 225.949,25.504C225.949,27.239 225.206,28.107 223.72,28.107L222.054,28.107L222.054,18.65ZM223.254,22.815C223.748,22.815 224.091,22.701 224.283,22.472C224.475,22.231 224.571,21.808 224.571,21.204C224.571,20.183 224.204,19.673 223.469,19.673L223.371,19.673L223.316,19.673C223.283,19.673 223.263,19.675 223.254,19.679L223.254,22.815ZM223.254,27.017C223.777,27.017 224.138,26.904 224.339,26.68C224.539,26.455 224.639,26.049 224.639,25.461C224.639,24.856 224.535,24.434 224.326,24.193C224.122,23.948 223.765,23.825 223.254,23.825L223.254,27.017Z" style="fill:rgb(158,161,168);fill-rule:nonzero;"/>
            <path id="path1151" d="M228.62,18.65L229.612,18.65L231.639,28.107L230.378,28.107L230.022,26.263L228.148,26.263L227.787,28.107L226.562,28.107L228.62,18.65ZM229.839,25.277L229.557,23.77C229.369,22.745 229.216,21.651 229.097,20.487C229.04,21.055 228.967,21.631 228.877,22.215C228.787,22.794 228.681,23.411 228.558,24.064L228.326,25.277L229.839,25.277Z" style="fill:rgb(158,161,168);fill-rule:nonzero;"/>
            <path id="path1153" d="M232.393,18.65L233.581,18.65L234.849,22.423C235.216,23.489 235.541,24.626 235.823,25.834C235.72,25.104 235.645,24.442 235.596,23.85C235.547,23.258 235.522,22.701 235.522,22.178L235.522,18.65L236.802,18.65L236.802,28.107L235.608,28.107L234.181,23.85C234.05,23.454 233.926,23.048 233.807,22.631C233.693,22.215 233.587,21.778 233.489,21.32C233.481,21.263 233.467,21.194 233.446,21.112C233.43,21.031 233.409,20.937 233.385,20.83C233.397,20.937 233.407,21.028 233.415,21.106C233.424,21.18 233.43,21.243 233.434,21.296L233.501,22.258L233.569,23.427C233.573,23.493 233.575,23.572 233.575,23.666C233.579,23.76 233.581,23.866 233.581,23.985L233.648,28.107L232.393,28.107L232.393,18.65Z" style="fill:rgb(158,161,168);fill-rule:nonzero;"/>
            <path id="path1155" d="M238.272,18.65L239.546,18.65L239.546,23.231L241.323,18.65L242.609,18.65L240.747,23.231L242.756,28.107L241.323,28.107L239.546,23.231L239.546,28.107L238.272,28.107L238.272,18.65Z" style="fill:rgb(158,161,168);fill-rule:nonzero;"/>
            <path id="path1157" d="M246.161,18.65L247.349,18.65L248.617,22.423C248.985,23.489 249.309,24.626 249.591,25.834C249.489,25.104 249.413,24.442 249.364,23.85C249.315,23.258 249.291,22.701 249.291,22.178L249.291,18.65L250.571,18.65L250.571,28.107L249.377,28.107L247.95,23.85C247.819,23.454 247.694,23.048 247.576,22.631C247.462,22.215 247.355,21.778 247.258,21.32C247.249,21.263 247.235,21.194 247.215,21.112C247.198,21.031 247.178,20.937 247.153,20.83C247.166,20.937 247.176,21.028 247.184,21.106C247.192,21.18 247.198,21.243 247.203,21.296L247.27,22.258L247.337,23.427C247.341,23.493 247.343,23.572 247.343,23.666C247.347,23.76 247.349,23.866 247.349,23.985L247.417,28.107L246.161,28.107L246.161,18.65Z" style="fill:rgb(158,161,168);fill-rule:nonzero;"/>
            <path id="path1159" d="M252.041,18.65L253.29,18.65L253.29,25.332C253.29,26.014 253.352,26.467 253.474,26.692C253.601,26.916 253.85,27.029 254.221,27.029C254.593,27.029 254.838,26.931 254.956,26.735C255.079,26.535 255.14,26.128 255.14,25.516L255.14,18.65L256.39,18.65L256.39,25.516C256.39,26.545 256.232,27.241 255.918,27.604C255.542,28.017 254.969,28.223 254.197,28.223C253.348,28.223 252.749,27.958 252.402,27.427C252.161,27.063 252.041,26.365 252.041,25.332L252.041,18.65Z" style="fill:rgb(158,161,168);fill-rule:nonzero;"/>
            <path id="path1161" d="M258.294,18.65L259.385,18.65L260.218,22.509C260.32,22.99 260.412,23.474 260.493,23.96C260.579,24.442 260.657,24.948 260.726,25.479C260.734,25.41 260.74,25.357 260.744,25.32C260.748,25.279 260.753,25.251 260.757,25.234L260.934,24.15L261.093,23.121L261.234,22.441L261.975,18.65L263.078,18.65L263.948,28.107L262.729,28.107L262.514,24.897C262.506,24.734 262.498,24.593 262.49,24.475C262.486,24.356 262.484,24.258 262.484,24.181L262.429,22.913L262.398,21.749C262.398,21.741 262.396,21.725 262.392,21.7C262.392,21.672 262.39,21.635 262.386,21.59L262.355,21.78C262.323,22.004 262.292,22.2 262.263,22.368C262.239,22.535 262.217,22.676 262.196,22.79L262.037,23.654L261.976,23.979L261.179,28.107L260.322,28.107L259.575,24.542C259.473,24.073 259.381,23.597 259.299,23.115C259.221,22.629 259.15,22.121 259.085,21.59L258.717,28.107L257.517,28.107L258.294,18.65Z" style="fill:rgb(158,161,168);fill-rule:nonzero;"/>
            <path id="path1163" d="M265.001,18.65L266.728,18.65C268.08,18.65 268.756,19.489 268.756,21.167C268.756,21.808 268.668,22.284 268.492,22.594C268.317,22.905 268.006,23.14 267.561,23.299C268.072,23.503 268.421,23.764 268.609,24.083C268.801,24.397 268.896,24.871 268.896,25.504C268.896,27.239 268.153,28.107 266.667,28.107L265.001,28.107L265.001,18.65ZM266.202,22.815C266.696,22.815 267.039,22.701 267.23,22.472C267.422,22.231 267.518,21.808 267.518,21.204C267.518,20.183 267.151,19.673 266.416,19.673L266.318,19.673L266.263,19.673C266.23,19.673 266.21,19.675 266.202,19.679L266.202,22.815ZM266.202,27.017C266.724,27.017 267.086,26.904 267.286,26.68C267.486,26.455 267.586,26.049 267.586,25.461C267.586,24.856 267.482,24.434 267.273,24.193C267.069,23.948 266.712,23.825 266.202,23.825L266.202,27.017Z" style="fill:rgb(158,161,168);fill-rule:nonzero;"/>
            <path id="path1165" d="M270.17,18.65L273.557,18.65L273.557,19.728L271.444,19.728L271.444,22.723L273.319,22.723L273.319,23.801L271.444,23.801L271.444,27.029L273.557,27.029L273.557,28.107L270.17,28.107L270.17,18.65Z" style="fill:rgb(158,161,168);fill-rule:nonzero;"/>
            <path id="path1167" d="M274.727,18.65L276.405,18.65C277.1,18.65 277.616,18.815 277.955,19.146C278.384,19.575 278.598,20.23 278.598,21.112C278.598,21.79 278.484,22.335 278.255,22.748C278.031,23.156 277.708,23.409 277.287,23.507L279.027,28.107L277.735,28.107L276.001,23.476L276.001,28.107L274.727,28.107L274.727,18.65ZM276.001,22.839C276.495,22.839 276.844,22.725 277.049,22.496C277.253,22.268 277.355,21.882 277.355,21.339C277.355,21.045 277.332,20.794 277.287,20.585C277.247,20.377 277.179,20.208 277.085,20.077C276.995,19.946 276.877,19.85 276.73,19.789C276.587,19.728 276.416,19.697 276.216,19.697L276.001,19.697L276.001,22.839Z" style="fill:rgb(158,161,168);fill-rule:nonzero;"/>
        </g>
        <g id="text1172" transform="matrix(0.939958,0,0,1.06388,0,0)">
            <path id="path1174" d="M7.979,181.247L9.209,181.247L9.852,185.634L9.956,186.283C10.005,186.634 10.041,186.954 10.066,187.244L10.133,188.045C10.137,188.066 10.141,188.102 10.145,188.155C10.149,188.209 10.156,188.276 10.164,188.357L10.194,188.051C10.243,187.517 10.294,187.025 10.347,186.577C10.404,186.128 10.466,185.714 10.531,185.334L11.21,181.247L12.189,181.247L12.826,185.218C12.92,185.806 12.997,186.35 13.058,186.852C13.124,187.354 13.177,187.833 13.217,188.29C13.258,187.809 13.303,187.344 13.352,186.895C13.405,186.446 13.46,186.005 13.517,185.573L13.609,184.943L14.154,181.247L15.371,181.247L13.701,190.695L12.709,190.695L12.042,186.613C12.038,186.597 12.028,186.53 12.012,186.411C11.996,186.293 11.971,186.124 11.938,185.904L11.81,184.961C11.802,184.888 11.787,184.778 11.767,184.631C11.751,184.484 11.732,184.298 11.712,184.074L11.681,183.682C11.673,183.776 11.665,183.858 11.657,183.927C11.649,183.996 11.643,184.053 11.639,184.098C11.618,184.368 11.6,184.578 11.583,184.729C11.571,184.876 11.563,184.965 11.559,184.998L11.43,185.904C11.402,186.112 11.379,186.275 11.363,186.393C11.347,186.511 11.335,186.585 11.326,186.613L10.635,190.695L9.613,190.695L7.979,181.247Z" style="fill:rgb(158,161,168);fill-rule:nonzero;"/>
            <path id="path1176" d="M17.256,181.247L18.248,181.247L20.273,190.695L19.013,190.695L18.658,188.853L16.785,188.853L16.424,190.695L15.2,190.695L17.256,181.247ZM18.474,187.868L18.193,186.362C18.005,185.338 17.852,184.245 17.734,183.082C17.676,183.65 17.603,184.225 17.513,184.808C17.424,185.387 17.317,186.003 17.195,186.656L16.963,187.868L18.474,187.868Z" style="fill:rgb(158,161,168);fill-rule:nonzero;"/>
            <path id="path1178" d="M20.053,181.247L21.307,181.247L21.877,184.735L21.974,185.365L22.176,186.736C22.209,186.968 22.238,187.18 22.262,187.372C22.291,187.564 22.315,187.737 22.335,187.892L22.397,188.357C22.409,188.264 22.419,188.18 22.427,188.107C22.435,188.033 22.444,187.972 22.452,187.923L22.617,186.828L22.831,185.39C22.852,185.259 22.87,185.139 22.886,185.028C22.907,184.918 22.925,184.82 22.941,184.735L23.553,181.247L24.74,181.247L22.886,190.695L21.877,190.695L20.053,181.247Z" style="fill:rgb(158,161,168);fill-rule:nonzero;"/>
            <path id="path1180" d="M25.432,181.247L28.816,181.247L28.816,182.324L26.705,182.324L26.705,185.316L28.577,185.316L28.577,186.393L26.705,186.393L26.705,189.618L28.816,189.618L28.816,190.695L25.432,190.695L25.432,181.247Z" style="fill:rgb(158,161,168);fill-rule:nonzero;"/>
            <path id="path1182" d="M33.136,181.442L33.136,182.685C32.749,182.407 32.4,182.269 32.09,182.269C31.755,182.269 31.482,182.387 31.27,182.623C31.058,182.848 30.952,183.148 30.952,183.523C30.952,183.853 31.027,184.137 31.178,184.374C31.256,184.5 31.382,184.663 31.558,184.863C31.737,185.063 31.968,185.304 32.249,185.585C32.767,186.112 33.12,186.566 33.308,186.95C33.495,187.321 33.589,187.776 33.589,188.315C33.589,189.045 33.383,189.647 32.971,190.12C32.559,190.581 32.031,190.811 31.386,190.811C30.844,190.811 30.381,190.662 29.997,190.365L29.997,189.104C30.45,189.434 30.862,189.6 31.233,189.6C31.58,189.6 31.851,189.485 32.047,189.257C32.243,189.024 32.341,188.71 32.341,188.315C32.341,187.972 32.265,187.664 32.114,187.391C32.037,187.26 31.929,187.111 31.79,186.944C31.651,186.773 31.478,186.583 31.27,186.375C30.948,186.057 30.68,185.775 30.468,185.53C30.256,185.285 30.099,185.071 29.997,184.888C29.801,184.529 29.703,184.076 29.703,183.529C29.703,182.791 29.895,182.205 30.279,181.773C30.666,181.336 31.186,181.118 31.839,181.118C32.292,181.118 32.724,181.226 33.136,181.442L33.136,181.442Z" style="fill:rgb(158,161,168);fill-rule:nonzero;"/>
            <path id="path1184" d="M35.248,189.275C35.448,189.275 35.621,189.351 35.768,189.502C35.915,189.649 35.988,189.826 35.988,190.034C35.988,190.242 35.915,190.42 35.768,190.567C35.613,190.709 35.435,190.781 35.235,190.781C35.129,190.781 35.029,190.76 34.936,190.72C34.846,190.683 34.766,190.632 34.697,190.567C34.628,190.497 34.572,190.418 34.532,190.328C34.495,190.234 34.477,190.134 34.477,190.028C34.477,189.82 34.55,189.643 34.697,189.496C34.848,189.349 35.031,189.275 35.248,189.275L35.248,189.275ZM35.248,184.27C35.448,184.27 35.621,184.345 35.768,184.496C35.915,184.643 35.988,184.818 35.988,185.022C35.988,185.234 35.915,185.414 35.768,185.561C35.621,185.708 35.443,185.781 35.235,185.781C35.023,185.781 34.844,185.708 34.697,185.561C34.55,185.41 34.477,185.23 34.477,185.022C34.477,184.81 34.55,184.633 34.697,184.49C34.848,184.343 35.031,184.27 35.248,184.27Z" style="fill:rgb(158,161,168);fill-rule:nonzero;"/>
            <path id="path1186" d="M43.558,181.4L43.558,182.544C43.232,182.385 42.958,182.305 42.738,182.305C42.436,182.305 42.177,182.381 41.961,182.532C41.745,182.679 41.565,182.907 41.422,183.217C41.284,183.527 41.179,183.921 41.11,184.398C41.045,184.871 41.012,185.432 41.012,186.081C41.012,188.415 41.61,189.581 42.805,189.581C43.013,189.581 43.264,189.516 43.558,189.386L43.558,190.554C43.252,190.726 42.909,190.811 42.53,190.811C40.616,190.811 39.66,189.249 39.66,186.124C39.66,184.435 39.892,183.178 40.357,182.354C40.827,181.53 41.543,181.118 42.505,181.118C42.86,181.118 43.211,181.212 43.558,181.4L43.558,181.4Z" style="fill:rgb(158,161,168);fill-rule:nonzero;"/>
            <path id="path1188" d="M43.87,181.247L45.125,181.247L45.694,184.735L45.792,185.365L45.994,186.736C46.026,186.968 46.055,187.18 46.079,187.372C46.108,187.564 46.132,187.737 46.153,187.892L46.214,188.357C46.226,188.264 46.236,188.18 46.244,188.107C46.253,188.033 46.261,187.972 46.269,187.923L46.434,186.828L46.648,185.39C46.669,185.259 46.687,185.139 46.704,185.028C46.724,184.918 46.742,184.82 46.759,184.735L47.371,181.247L48.558,181.247L46.704,190.695L45.694,190.695L43.87,181.247Z" style="fill:rgb(158,161,168);fill-rule:nonzero;"/>
            <rect id="path1190" x="51.116" y="186.974" width="2.228" height="0.955" style="fill:rgb(158,161,168);fill-rule:nonzero;"/>
            <path id="path1192" d="M55.913,181.247L57.168,181.247L57.737,184.735L57.835,185.365L58.037,186.736C58.069,186.968 58.098,187.18 58.122,187.372C58.151,187.564 58.175,187.737 58.196,187.892L58.257,188.357C58.269,188.264 58.28,188.18 58.288,188.107C58.296,188.033 58.304,187.972 58.312,187.923L58.477,186.828L58.692,185.39C58.712,185.259 58.73,185.139 58.747,185.028C58.767,184.918 58.785,184.82 58.802,184.735L59.414,181.247L60.601,181.247L58.747,190.695L57.737,190.695L55.913,181.247Z" style="fill:rgb(158,161,168);fill-rule:nonzero;"/>
            <path id="path1194" d="M64.976,181.4L64.976,182.544C64.65,182.385 64.377,182.305 64.156,182.305C63.854,182.305 63.595,182.381 63.379,182.532C63.163,182.679 62.983,182.907 62.841,183.217C62.702,183.527 62.598,183.921 62.528,184.398C62.463,184.871 62.431,185.432 62.431,186.081C62.431,188.415 63.028,189.581 64.224,189.581C64.432,189.581 64.683,189.516 64.976,189.386L64.976,190.554C64.67,190.726 64.328,190.811 63.948,190.811C62.035,190.811 61.078,189.249 61.078,186.124C61.078,184.435 61.311,183.178 61.776,182.354C62.245,181.53 62.961,181.118 63.924,181.118C64.279,181.118 64.629,181.212 64.976,181.4L64.976,181.4Z" style="fill:rgb(158,161,168);fill-rule:nonzero;"/>
            <path id="path1196" d="M67.73,181.247L68.721,181.247L70.747,190.695L69.486,190.695L69.131,188.853L67.259,188.853L66.898,190.695L65.674,190.695L67.73,181.247ZM68.948,187.868L68.666,186.362C68.479,185.338 68.326,184.245 68.207,183.082C68.15,183.65 68.077,184.225 67.987,184.808C67.897,185.387 67.791,186.003 67.669,186.656L67.436,187.868L68.948,187.868Z" style="fill:rgb(158,161,168);fill-rule:nonzero;"/>
            <rect id="path1198" x="73.366" y="186.974" width="2.228" height="0.955" style="fill:rgb(158,161,168);fill-rule:nonzero;"/>
            <path id="path1200" d="M78.207,181.247L79.437,181.247L80.079,185.634L80.183,186.283C80.232,186.634 80.269,186.954 80.293,187.244L80.361,188.045C80.365,188.066 80.369,188.102 80.373,188.155C80.377,188.209 80.383,188.276 80.391,188.357L80.422,188.051C80.471,187.517 80.522,187.025 80.575,186.577C80.632,186.128 80.693,185.714 80.759,185.334L81.438,181.247L82.417,181.247L83.053,185.218C83.147,185.806 83.225,186.35 83.286,186.852C83.351,187.354 83.404,187.833 83.445,188.29C83.486,187.809 83.531,187.344 83.58,186.895C83.633,186.446 83.688,186.005 83.745,185.573L83.837,184.943L84.381,181.247L85.599,181.247L83.928,190.695L82.937,190.695L82.27,186.613C82.266,186.597 82.256,186.53 82.239,186.411C82.223,186.293 82.199,186.124 82.166,185.904L82.038,184.961C82.029,184.888 82.015,184.778 81.995,184.631C81.978,184.484 81.96,184.298 81.94,184.074L81.909,183.682C81.901,183.776 81.893,183.858 81.884,183.927C81.876,183.996 81.87,184.053 81.866,184.098C81.846,184.368 81.827,184.578 81.811,184.729C81.799,184.875 81.79,184.965 81.786,184.998L81.658,185.904C81.629,186.112 81.607,186.275 81.59,186.393C81.574,186.511 81.562,186.585 81.554,186.613L80.862,190.695L79.84,190.695L78.207,181.247Z" style="fill:rgb(158,161,168);fill-rule:nonzero;"/>
            <path id="path1202" d="M87.484,181.247L88.475,181.247L90.501,190.695L89.24,190.695L88.885,188.853L87.013,188.853L86.652,190.695L85.428,190.695L87.484,181.247ZM88.702,187.868L88.42,186.362C88.232,185.338 88.079,184.245 87.961,183.082C87.904,183.65 87.831,184.225 87.741,184.808C87.651,185.387 87.545,186.003 87.423,186.656L87.19,187.868L88.702,187.868Z" style="fill:rgb(158,161,168);fill-rule:nonzero;"/>
            <path id="path1204" d="M90.28,181.247L91.535,181.247L92.104,184.735L92.202,185.365L92.404,186.736C92.437,186.968 92.465,187.18 92.49,187.372C92.518,187.564 92.543,187.737 92.563,187.892L92.624,188.357C92.637,188.264 92.647,188.18 92.655,188.107C92.663,188.033 92.671,187.972 92.679,187.923L92.845,186.828L93.059,185.39C93.079,185.259 93.098,185.139 93.114,185.028C93.134,184.918 93.153,184.82 93.169,184.735L93.781,181.247L94.968,181.247L93.114,190.695L92.104,190.695L90.28,181.247Z" style="fill:rgb(158,161,168);fill-rule:nonzero;"/>
            <path id="path1206" d="M95.66,181.247L99.044,181.247L99.044,182.324L96.932,182.324L96.932,185.316L98.805,185.316L98.805,186.393L96.932,186.393L96.932,189.618L99.044,189.618L99.044,190.695L95.66,190.695L95.66,181.247Z" style="fill:rgb(158,161,168);fill-rule:nonzero;"/>
            <path id="path1208" d="M102.807,181.247L103.994,181.247L105.261,185.016C105.628,186.081 105.953,187.217 106.234,188.425C106.132,187.695 106.057,187.034 106.008,186.442C105.959,185.85 105.934,185.294 105.934,184.771L105.934,181.247L107.213,181.247L107.213,190.695L106.02,190.695L104.594,186.442C104.463,186.046 104.339,185.64 104.221,185.224C104.106,184.808 104,184.372 103.902,183.915C103.894,183.858 103.88,183.788 103.86,183.707C103.843,183.625 103.823,183.531 103.798,183.425C103.811,183.531 103.821,183.623 103.829,183.701C103.837,183.774 103.843,183.837 103.848,183.89L103.915,184.851L103.982,186.02C103.986,186.085 103.988,186.165 103.988,186.258C103.992,186.352 103.994,186.458 103.994,186.577L104.062,190.695L102.807,190.695L102.807,181.247Z" style="fill:rgb(158,161,168);fill-rule:nonzero;"/>
            <path id="path1210" d="M108.682,181.247L109.93,181.247L109.93,187.923C109.93,188.604 109.991,189.057 110.114,189.282C110.24,189.506 110.489,189.618 110.86,189.618C111.232,189.618 111.476,189.52 111.595,189.324C111.717,189.124 111.778,188.718 111.778,188.107L111.778,181.247L113.027,181.247L113.027,188.107C113.027,189.135 112.87,189.83 112.555,190.193C112.18,190.605 111.607,190.811 110.836,190.811C109.987,190.811 109.39,190.546 109.043,190.016C108.802,189.653 108.682,188.955 108.682,187.923L108.682,181.247Z" style="fill:rgb(158,161,168);fill-rule:nonzero;"/>
            <path id="path1212" d="M114.93,181.247L116.019,181.247L116.851,185.102C116.953,185.583 117.045,186.067 117.127,186.552C117.212,187.034 117.29,187.539 117.359,188.07C117.367,188 117.374,187.947 117.378,187.911C117.382,187.87 117.386,187.841 117.39,187.825L117.567,186.742L117.727,185.714L117.867,185.035L118.608,181.247L119.709,181.247L120.578,190.695L119.36,190.695L119.146,187.488C119.138,187.325 119.13,187.185 119.122,187.066C119.118,186.948 119.116,186.85 119.116,186.772L119.061,185.506L119.03,184.343C119.03,184.335 119.028,184.319 119.024,184.294C119.024,184.266 119.022,184.229 119.018,184.184L118.987,184.374C118.955,184.598 118.924,184.794 118.895,184.961C118.871,185.128 118.849,185.269 118.828,185.383L118.669,186.246L118.608,186.571L117.812,190.695L116.956,190.695L116.209,187.134C116.107,186.664 116.015,186.189 115.934,185.708C115.856,185.222 115.785,184.714 115.719,184.184L115.352,190.695L114.153,190.695L114.93,181.247Z" style="fill:rgb(158,161,168);fill-rule:nonzero;"/>
            <path id="path1214" d="M121.631,181.247L123.356,181.247C124.707,181.247 125.382,182.085 125.382,183.762C125.382,184.402 125.294,184.877 125.119,185.188C124.943,185.498 124.633,185.732 124.189,185.891C124.699,186.095 125.047,186.356 125.235,186.675C125.427,186.989 125.523,187.462 125.523,188.094C125.523,189.828 124.78,190.695 123.295,190.695L121.631,190.695L121.631,181.247ZM122.83,185.408C123.324,185.408 123.666,185.294 123.858,185.065C124.05,184.824 124.146,184.402 124.146,183.798C124.146,182.779 123.779,182.269 123.044,182.269L122.946,182.269L122.891,182.269C122.859,182.269 122.838,182.271 122.83,182.275L122.83,185.408ZM122.83,189.606C123.352,189.606 123.713,189.494 123.913,189.269C124.113,189.045 124.213,188.639 124.213,188.051C124.213,187.448 124.109,187.025 123.901,186.785C123.697,186.54 123.34,186.418 122.83,186.418L122.83,189.606Z" style="fill:rgb(158,161,168);fill-rule:nonzero;"/>
            <path id="path1216" d="M126.796,181.247L130.18,181.247L130.18,182.324L128.068,182.324L128.068,185.316L129.941,185.316L129.941,186.393L128.068,186.393L128.068,189.618L130.18,189.618L130.18,190.695L126.796,190.695L126.796,181.247Z" style="fill:rgb(158,161,168);fill-rule:nonzero;"/>
            <path id="path1218" d="M131.349,181.247L133.025,181.247C133.719,181.247 134.235,181.412 134.574,181.742C135.002,182.171 135.216,182.825 135.216,183.707C135.216,184.384 135.102,184.928 134.873,185.341C134.649,185.749 134.327,186.001 133.906,186.099L135.644,190.695L134.353,190.695L132.621,186.069L132.621,190.695L131.349,190.695L131.349,181.247ZM132.621,185.432C133.115,185.432 133.464,185.318 133.668,185.09C133.872,184.861 133.974,184.476 133.974,183.933C133.974,183.639 133.951,183.388 133.906,183.18C133.866,182.972 133.798,182.803 133.705,182.672C133.615,182.542 133.496,182.446 133.35,182.385C133.207,182.324 133.035,182.293 132.836,182.293L132.621,182.293L132.621,185.432Z" style="fill:rgb(158,161,168);fill-rule:nonzero;"/>
        </g>
        <g id="text1223" transform="matrix(0.913737,0,0,1.09437,2.00247,1)">
            <path id="path1225" d="M66.418,322.398L67.477,322.398L68.286,326.146C68.385,326.614 68.474,327.084 68.554,327.556C68.637,328.024 68.712,328.515 68.78,329.031C68.788,328.964 68.793,328.912 68.798,328.876C68.802,328.837 68.805,328.809 68.809,328.793L68.982,327.74L69.136,326.741L69.273,326.08L69.993,322.398L71.064,322.398L71.909,331.583L70.725,331.583L70.517,328.466C70.509,328.307 70.501,328.17 70.493,328.055C70.489,327.94 70.487,327.845 70.487,327.77L70.433,326.538L70.403,325.408C70.403,325.4 70.401,325.384 70.397,325.361C70.397,325.333 70.395,325.297 70.391,325.253L70.361,325.438C70.33,325.656 70.3,325.846 70.272,326.009C70.248,326.172 70.227,326.308 70.207,326.419L70.052,327.258L69.993,327.574L69.219,331.583L68.386,331.583L67.661,328.121C67.561,327.665 67.472,327.203 67.393,326.735C67.317,326.263 67.248,325.769 67.185,325.253L66.828,331.583L65.662,331.583L66.418,322.398Z" style="fill:rgb(158,161,168);fill-rule:nonzero;"/>
            <path id="path1227" d="M77.531,327.217C77.531,328.839 77.35,329.991 76.989,330.673C76.628,331.355 76.024,331.696 75.175,331.696C74.283,331.696 73.654,331.329 73.289,330.596C72.928,329.878 72.748,328.603 72.748,326.77C72.748,325.136 72.926,323.98 73.283,323.302C73.644,322.62 74.255,322.279 75.115,322.279C75.885,322.279 76.456,322.543 76.829,323.07C77.075,323.423 77.253,323.925 77.364,324.575C77.475,325.178 77.531,326.059 77.531,327.217L77.531,327.217ZM76.234,327.348C76.234,325.757 76.162,324.702 76.02,324.183C75.877,323.659 75.585,323.397 75.145,323.397C74.705,323.397 74.411,323.637 74.265,324.117C74.122,324.601 74.051,325.573 74.051,327.032C74.051,328.377 74.126,329.309 74.277,329.828C74.431,330.32 74.721,330.566 75.145,330.566C75.562,330.566 75.847,330.336 76.002,329.876C76.157,329.42 76.234,328.577 76.234,327.348L76.234,327.348Z" style="fill:rgb(158,161,168);fill-rule:nonzero;"/>
            <path id="path1229" d="M78.762,322.398L80.392,322.398C81.066,322.398 81.568,322.559 81.897,322.88C82.314,323.296 82.522,323.933 82.522,324.789C82.522,325.448 82.411,325.977 82.189,326.378C81.971,326.774 81.657,327.02 81.249,327.115L82.938,331.583L81.683,331.583L80,327.086L80,331.583L78.762,331.583L78.762,322.398ZM80,326.467C80.479,326.467 80.819,326.356 81.017,326.134C81.215,325.912 81.314,325.537 81.314,325.01C81.314,324.724 81.292,324.48 81.249,324.278C81.209,324.076 81.144,323.911 81.053,323.784C80.965,323.657 80.85,323.564 80.708,323.504C80.569,323.445 80.402,323.415 80.208,323.415L80,323.415L80,326.467Z" style="fill:rgb(158,161,168);fill-rule:nonzero;"/>
            <path id="path1231" d="M83.902,322.398L85.532,322.398C86.317,322.398 86.888,322.596 87.245,322.993C87.602,323.393 87.781,324.028 87.781,324.897C87.781,326.118 87.422,326.907 86.704,327.264C86.343,327.427 85.822,327.508 85.139,327.508L85.139,331.583L83.902,331.583L83.902,322.398ZM85.139,326.449C85.651,326.449 86.004,326.346 86.198,326.14C86.397,325.93 86.496,325.557 86.496,325.021C86.496,324.474 86.401,324.074 86.21,323.82C86.02,323.566 85.72,323.439 85.312,323.439L85.139,323.439L85.139,326.449Z" style="fill:rgb(158,161,168);fill-rule:nonzero;"/>
            <path id="path1233" d="M88.733,322.398L89.97,322.398L89.97,325.991L91.784,325.991L91.784,322.398L93.022,322.398L93.022,331.583L91.784,331.583L91.784,327.038L89.97,327.038L89.97,331.583L88.733,331.583L88.733,322.398Z" style="fill:rgb(158,161,168);fill-rule:nonzero;"/>
        </g>
        <g id="text1238" transform="matrix(0.851958,0,0,1.17377,0,0)">
            <path id="path1240" d="M29.931,133.608L31.451,133.608C32.183,133.608 32.715,133.793 33.048,134.162C33.381,134.536 33.547,135.127 33.547,135.937C33.547,137.076 33.213,137.812 32.543,138.145C32.207,138.296 31.721,138.372 31.085,138.372L31.085,142.172L29.931,142.172L29.931,133.608ZM31.085,137.385C31.562,137.385 31.891,137.289 32.072,137.096C32.257,136.901 32.349,136.553 32.349,136.054C32.349,135.543 32.261,135.17 32.083,134.933C31.906,134.697 31.626,134.578 31.246,134.578L31.085,134.578L31.085,137.385Z" style="fill:rgb(158,161,168);fill-rule:nonzero;"/>
            <path id="path1242" d="M34.435,133.608L35.566,133.608L35.566,139.659C35.566,140.277 35.622,140.687 35.733,140.89C35.847,141.094 36.073,141.195 36.409,141.195C36.746,141.195 36.968,141.107 37.075,140.929C37.186,140.748 37.241,140.38 37.241,139.825L37.241,133.608L38.373,133.608L38.373,139.825C38.373,140.757 38.231,141.388 37.946,141.717C37.606,142.09 37.086,142.277 36.387,142.277C35.618,142.277 35.076,142.037 34.762,141.556C34.544,141.227 34.435,140.595 34.435,139.659L34.435,133.608Z" style="fill:rgb(158,161,168);fill-rule:nonzero;"/>
            <path id="path1244" d="M39.693,133.608L40.847,133.608L40.847,141.195L42.733,141.195L42.733,142.172L39.693,142.172L39.693,133.608Z" style="fill:rgb(158,161,168);fill-rule:nonzero;"/>
            <path id="path1246" d="M46.454,133.785L46.454,134.911C46.103,134.66 45.787,134.534 45.506,134.534C45.203,134.534 44.955,134.641 44.763,134.856C44.57,135.059 44.474,135.331 44.474,135.671C44.474,135.971 44.543,136.228 44.679,136.442C44.75,136.557 44.864,136.705 45.023,136.886C45.186,137.067 45.395,137.285 45.65,137.54C46.12,138.017 46.44,138.43 46.61,138.777C46.78,139.114 46.865,139.526 46.865,140.014C46.865,140.676 46.678,141.221 46.305,141.65C45.931,142.068 45.452,142.277 44.868,142.277C44.376,142.277 43.957,142.142 43.609,141.872L43.609,140.73C44.019,141.029 44.393,141.179 44.729,141.179C45.044,141.179 45.29,141.075 45.467,140.868C45.645,140.657 45.733,140.373 45.733,140.014C45.733,139.703 45.665,139.424 45.528,139.176C45.458,139.058 45.36,138.923 45.234,138.772C45.108,138.616 44.951,138.444 44.763,138.256C44.471,137.967 44.228,137.712 44.036,137.49C43.844,137.268 43.701,137.074 43.609,136.908C43.432,136.583 43.343,136.172 43.343,135.677C43.343,135.007 43.517,134.477 43.864,134.085C44.215,133.689 44.687,133.491 45.279,133.491C45.689,133.491 46.081,133.589 46.454,133.785L46.454,133.785Z" style="fill:rgb(158,161,168);fill-rule:nonzero;"/>
            <path id="path1248" d="M47.835,133.608L50.903,133.608L50.903,134.584L48.989,134.584L48.989,137.296L50.686,137.296L50.686,138.272L48.989,138.272L48.989,141.195L50.903,141.195L50.903,142.172L47.835,142.172L47.835,133.608Z" style="fill:rgb(158,161,168);fill-rule:nonzero;"/>
            <path id="path1250" d="M53.671,133.608L54.785,133.608L55.368,137.585L55.462,138.173C55.506,138.491 55.54,138.781 55.562,139.043L55.623,139.77C55.627,139.788 55.63,139.822 55.634,139.87C55.638,139.918 55.643,139.979 55.651,140.053L55.678,139.775C55.722,139.291 55.769,138.846 55.817,138.439C55.869,138.032 55.924,137.657 55.983,137.313L56.599,133.608L57.486,133.608L58.063,137.207C58.148,137.74 58.218,138.234 58.274,138.688C58.333,139.143 58.381,139.578 58.418,139.992C58.455,139.555 58.496,139.134 58.54,138.727C58.588,138.32 58.638,137.921 58.69,137.529L58.773,136.958L59.267,133.608L60.371,133.608L58.856,142.172L57.958,142.172L57.353,138.472C57.349,138.457 57.34,138.396 57.326,138.289C57.311,138.182 57.289,138.028 57.259,137.829L57.143,136.974C57.135,136.908 57.122,136.808 57.104,136.675C57.089,136.542 57.072,136.374 57.054,136.17L57.026,135.815C57.019,135.9 57.012,135.974 57.004,136.037C56.997,136.1 56.991,136.152 56.987,136.192C56.969,136.436 56.952,136.627 56.937,136.764C56.926,136.897 56.919,136.978 56.915,137.008L56.799,137.829C56.773,138.017 56.752,138.165 56.738,138.272C56.723,138.38 56.712,138.446 56.704,138.472L56.078,142.172L55.151,142.172L53.671,133.608Z" style="fill:rgb(158,161,168);fill-rule:nonzero;"/>
            <rect id="path1252" x="61.059" y="133.608" width="1.154" height="8.564" style="fill:rgb(158,161,168);fill-rule:nonzero;"/>
            <path id="path1254" d="M63.543,133.608L64.963,133.608C65.396,133.608 65.76,133.656 66.056,133.752C66.33,133.844 66.574,134.009 66.788,134.246C67.11,134.601 67.339,135.063 67.476,135.632C67.613,136.183 67.681,136.973 67.681,138.001C67.681,138.944 67.605,139.713 67.454,140.308C67.306,140.877 67.062,141.312 66.722,141.611C66.304,141.985 65.555,142.172 64.475,142.172L63.543,142.172L63.543,133.608ZM64.697,141.162C65.4,141.162 65.869,140.95 66.106,140.524C66.35,140.099 66.472,139.273 66.472,138.045C66.472,136.725 66.356,135.817 66.123,135.322C65.89,134.826 65.463,134.578 64.841,134.578L64.697,134.578L64.697,141.162Z" style="fill:rgb(158,161,168);fill-rule:nonzero;"/>
            <path id="path1256" d="M68.142,133.608L71.897,133.608L71.897,134.617L70.604,134.617L70.604,142.172L69.473,142.172L69.473,134.617L68.142,134.617L68.142,133.608Z" style="fill:rgb(158,161,168);fill-rule:nonzero;"/>
            <path id="path1258" d="M72.529,133.608L73.683,133.608L73.683,136.958L75.374,136.958L75.374,133.608L76.528,133.608L76.528,142.172L75.374,142.172L75.374,137.934L73.683,137.934L73.683,142.172L72.529,142.172L72.529,133.608Z" style="fill:rgb(158,161,168);fill-rule:nonzero;"/>
            <path id="path1260" d="M78.386,140.885C78.567,140.885 78.725,140.953 78.858,141.09C78.991,141.223 79.057,141.384 79.057,141.573C79.057,141.761 78.991,141.922 78.858,142.055C78.717,142.185 78.556,142.249 78.375,142.249C78.279,142.249 78.188,142.231 78.103,142.194C78.022,142.161 77.95,142.114 77.887,142.055C77.824,141.992 77.774,141.92 77.737,141.839C77.704,141.754 77.687,141.663 77.687,141.567C77.687,141.378 77.754,141.218 77.887,141.085C78.024,140.951 78.19,140.885 78.386,140.885L78.386,140.885ZM78.386,136.348C78.567,136.348 78.725,136.416 78.858,136.553C78.991,136.686 79.057,136.845 79.057,137.03C79.057,137.222 78.991,137.385 78.858,137.518C78.725,137.651 78.564,137.718 78.375,137.718C78.183,137.718 78.02,137.651 77.887,137.518C77.754,137.381 77.687,137.219 77.687,137.03C77.687,136.838 77.754,136.677 77.887,136.547C78.024,136.414 78.19,136.348 78.386,136.348L78.386,136.348Z" style="fill:rgb(158,161,168);fill-rule:nonzero;"/>
            <path id="path1262" d="M85.918,133.746L85.918,134.784C85.623,134.639 85.375,134.567 85.175,134.567C84.902,134.567 84.667,134.636 84.471,134.772C84.275,134.906 84.112,135.113 83.983,135.394C83.857,135.675 83.763,136.032 83.7,136.464C83.641,136.893 83.611,137.402 83.611,137.989C83.611,140.105 84.153,141.162 85.236,141.162C85.425,141.162 85.652,141.103 85.918,140.985L85.918,142.044C85.641,142.199 85.331,142.277 84.987,142.277C83.252,142.277 82.385,140.861 82.385,138.028C82.385,136.497 82.596,135.359 83.018,134.612C83.443,133.865 84.092,133.491 84.964,133.491C85.286,133.491 85.604,133.576 85.918,133.746L85.918,133.746Z" style="fill:rgb(158,161,168);fill-rule:nonzero;"/>
            <path id="path1264" d="M86.201,133.608L87.338,133.608L87.854,136.769L87.943,137.341L88.126,138.583C88.156,138.794 88.181,138.986 88.204,139.16C88.23,139.334 88.252,139.491 88.27,139.631L88.326,140.053C88.337,139.968 88.346,139.892 88.353,139.825C88.361,139.759 88.368,139.703 88.376,139.659L88.525,138.666L88.719,137.363C88.738,137.244 88.754,137.135 88.769,137.035C88.788,136.936 88.804,136.847 88.819,136.769L89.374,133.608L90.45,133.608L88.769,142.172L87.854,142.172L86.201,133.608Z" style="fill:rgb(158,161,168);fill-rule:nonzero;"/>
            <rect id="path1266" x="92.769" y="138.799" width="2.019" height="0.865" style="fill:rgb(158,161,168);fill-rule:nonzero;"/>
            <path id="path1268" d="M97.117,133.608L98.254,133.608L98.77,136.769L98.859,137.341L99.042,138.583C99.071,138.794 99.097,138.986 99.119,139.16C99.145,139.334 99.167,139.491 99.186,139.631L99.241,140.053C99.253,139.968 99.262,139.892 99.269,139.825C99.276,139.759 99.284,139.703 99.291,139.659L99.441,138.666L99.635,137.363C99.654,137.244 99.67,137.135 99.685,137.035C99.703,136.936 99.72,136.847 99.735,136.769L100.29,133.608L101.366,133.608L99.685,142.172L98.77,142.172L97.117,133.608Z" style="fill:rgb(158,161,168);fill-rule:nonzero;"/>
            <path id="path1270" d="M105.332,133.746L105.332,134.784C105.036,134.639 104.788,134.567 104.588,134.567C104.315,134.567 104.08,134.636 103.884,134.772C103.688,134.906 103.525,135.113 103.396,135.394C103.27,135.675 103.176,136.032 103.113,136.464C103.054,136.893 103.024,137.402 103.024,137.989C103.024,140.105 103.566,141.162 104.649,141.162C104.838,141.162 105.065,141.103 105.332,140.985L105.332,142.044C105.054,142.199 104.744,142.277 104.4,142.277C102.666,142.277 101.798,140.861 101.798,138.028C101.798,136.497 102.009,135.359 102.431,134.612C102.856,133.865 103.505,133.491 104.378,133.491C104.699,133.491 105.017,133.576 105.332,133.746L105.332,133.746Z" style="fill:rgb(158,161,168);fill-rule:nonzero;"/>
            <path id="path1272" d="M107.828,133.608L108.726,133.608L110.562,142.172L109.419,142.172L109.098,140.502L107.4,140.502L107.073,142.172L105.964,142.172L107.828,133.608ZM108.931,139.609L108.676,138.245C108.506,137.316 108.367,136.325 108.26,135.272C108.208,135.786 108.142,136.307 108.06,136.836C107.979,137.361 107.883,137.919 107.772,138.511L107.561,139.609L108.931,139.609Z" style="fill:rgb(158,161,168);fill-rule:nonzero;"/>
            <rect id="path1274" x="112.936" y="138.799" width="2.019" height="0.865" style="fill:rgb(158,161,168);fill-rule:nonzero;"/>
            <path id="path1276" d="M117.967,133.608L119.486,133.608C120.219,133.608 120.751,133.793 121.084,134.162C121.417,134.536 121.583,135.127 121.583,135.937C121.583,137.076 121.248,137.812 120.579,138.145C120.243,138.296 119.756,138.372 119.12,138.372L119.12,142.172L117.967,142.172L117.967,133.608ZM119.12,137.385C119.597,137.385 119.927,137.289 120.108,137.096C120.293,136.901 120.385,136.553 120.385,136.054C120.385,135.543 120.296,135.17 120.119,134.933C119.941,134.697 119.662,134.578 119.281,134.578L119.12,134.578L119.12,137.385Z" style="fill:rgb(158,161,168);fill-rule:nonzero;"/>
            <path id="path1278" d="M121.827,133.608L122.942,133.608L123.524,137.585L123.619,138.173C123.663,138.491 123.696,138.781 123.719,139.043L123.78,139.77C123.783,139.788 123.787,139.822 123.791,139.87C123.794,139.918 123.8,139.979 123.807,140.053L123.835,139.775C123.879,139.291 123.925,138.846 123.973,138.439C124.025,138.032 124.081,137.657 124.14,137.313L124.756,133.608L125.643,133.608L126.22,137.207C126.305,137.74 126.375,138.234 126.431,138.688C126.49,139.143 126.538,139.578 126.575,139.992C126.612,139.555 126.652,139.134 126.697,138.727C126.745,138.32 126.795,137.921 126.847,137.529L126.93,136.958L127.423,133.608L128.527,133.608L127.013,142.172L126.115,142.172L125.51,138.472C125.506,138.457 125.497,138.396 125.483,138.289C125.468,138.182 125.445,138.028 125.416,137.829L125.299,136.974C125.292,136.908 125.279,136.808 125.261,136.675C125.246,136.542 125.229,136.374 125.211,136.17L125.183,135.815C125.176,135.9 125.168,135.974 125.161,136.037C125.154,136.1 125.148,136.152 125.144,136.192C125.126,136.436 125.109,136.627 125.094,136.764C125.083,136.897 125.076,136.978 125.072,137.008L124.955,137.829C124.93,138.017 124.909,138.165 124.894,138.272C124.88,138.38 124.869,138.446 124.861,138.472L124.234,142.172L123.308,142.172L121.827,133.608Z" style="fill:rgb(158,161,168);fill-rule:nonzero;"/>
        </g>
        <rect id="rect1352" x="2" y="92.778" width="131" height="60" style="fill:rgb(158,161,168);"/>
        <g id="text1287" transform="matrix(0.938205,0,0,1.06586,6,-1.00003)">
            <path id="path1326" d="M2.132,108.068L5.528,108.068L5.528,109.143L3.402,109.143L3.402,112.124L5.32,112.124L5.32,113.199L3.402,113.199L3.402,117.499L2.132,117.499L2.132,108.068Z" style="fill-rule:nonzero;"/>
            <path id="path1328" d="M6.505,108.068L8.179,108.068C8.871,108.068 9.386,108.233 9.724,108.563C10.152,108.991 10.365,109.644 10.365,110.524C10.365,111.2 10.251,111.743 10.023,112.155C9.799,112.562 9.478,112.814 9.058,112.912L10.793,117.499L9.504,117.499L7.776,112.881L7.776,117.499L6.505,117.499L6.505,108.068ZM7.776,112.246C8.268,112.246 8.617,112.132 8.82,111.904C9.024,111.676 9.126,111.291 9.126,110.75C9.126,110.457 9.103,110.206 9.058,109.998C9.018,109.791 8.95,109.622 8.857,109.491C8.767,109.361 8.649,109.266 8.502,109.204C8.36,109.143 8.189,109.113 7.989,109.113L7.776,109.113L7.776,112.246Z" style="fill-rule:nonzero;"/>
            <path id="path1330" d="M11.783,108.068L15.16,108.068L15.16,109.143L13.053,109.143L13.053,112.13L14.922,112.13L14.922,113.205L13.053,113.205L13.053,116.424L15.16,116.424L15.16,117.499L11.783,117.499L11.783,108.068Z" style="fill-rule:nonzero;"/>
            <path id="path1332" d="M21.317,117.64L20.517,118.214L19.87,117.292C19.483,117.507 19.074,117.615 18.642,117.615C17.726,117.615 17.078,117.228 16.7,116.455C16.325,115.657 16.138,114.321 16.138,112.448C16.138,110.811 16.321,109.652 16.687,108.972C17.054,108.288 17.675,107.946 18.55,107.946C19.471,107.946 20.118,108.323 20.493,109.076C20.863,109.813 21.049,111.12 21.049,112.998C21.049,114.696 20.871,115.874 20.517,116.534L21.317,117.64ZM19.07,114.506L19.595,115.251C19.68,114.649 19.723,113.969 19.723,113.211C19.723,111.591 19.646,110.495 19.491,109.925C19.336,109.375 19.029,109.101 18.569,109.101C18.137,109.101 17.846,109.335 17.695,109.803C17.545,110.251 17.469,111.155 17.469,112.515C17.469,114.042 17.547,115.084 17.701,115.642C17.856,116.176 18.157,116.443 18.605,116.443C18.784,116.443 18.955,116.386 19.118,116.271L18.312,115.111L19.07,114.506Z" style="fill-rule:nonzero;"/>
        </g>
        <g id="text1291" transform="matrix(0.942016,0,0,1.06155,13.0001,-1.00003)">
            <path id="path1320" d="M73.778,109.225L75.458,109.225C76.268,109.225 76.857,109.429 77.225,109.838C77.593,110.251 77.777,110.905 77.777,111.801C77.777,113.06 77.407,113.874 76.667,114.242C76.294,114.409 75.757,114.493 75.054,114.493L75.054,118.694L73.778,118.694L73.778,109.225ZM75.054,113.401C75.581,113.401 75.945,113.295 76.145,113.082C76.35,112.866 76.452,112.481 76.452,111.929C76.452,111.365 76.354,110.952 76.157,110.691C75.961,110.429 75.653,110.298 75.231,110.298L75.054,110.298L75.054,113.401Z" style="fill-rule:nonzero;"/>
            <path id="path1322" d="M78.046,109.225L79.279,109.225L79.923,113.622L80.027,114.272C80.076,114.624 80.113,114.945 80.138,115.235L80.205,116.039C80.209,116.059 80.213,116.096 80.217,116.149C80.221,116.202 80.227,116.27 80.236,116.351L80.266,116.045C80.315,115.509 80.367,115.016 80.42,114.567C80.477,114.117 80.538,113.702 80.604,113.322L81.285,109.225L82.266,109.225L82.904,113.205C82.998,113.794 83.075,114.34 83.137,114.843C83.202,115.346 83.255,115.826 83.296,116.284C83.337,115.801 83.382,115.335 83.431,114.886C83.484,114.436 83.539,113.994 83.597,113.561L83.689,112.929L84.234,109.225L85.455,109.225L83.781,118.694L82.787,118.694L82.119,114.603C82.115,114.587 82.104,114.52 82.088,114.401C82.072,114.282 82.047,114.113 82.014,113.892L81.886,112.948C81.878,112.874 81.863,112.764 81.843,112.616C81.826,112.469 81.808,112.283 81.787,112.058L81.757,111.666C81.749,111.76 81.741,111.842 81.732,111.911C81.724,111.981 81.718,112.038 81.714,112.083C81.693,112.353 81.675,112.563 81.659,112.714C81.646,112.862 81.638,112.952 81.634,112.984L81.505,113.892C81.477,114.101 81.454,114.264 81.438,114.383C81.421,114.501 81.409,114.575 81.401,114.603L80.708,118.694L79.684,118.694L78.046,109.225Z" style="fill-rule:nonzero;"/>
        </g>
        <g id="text1295" transform="matrix(0.858015,0,0,1.04893,5.00824,-1.00003)">
            <path id="path1310" d="M3.487,133.419L5.237,133.419C6.607,133.419 7.292,134.27 7.292,135.97C7.292,136.62 7.203,137.102 7.025,137.416C6.847,137.731 6.532,137.969 6.081,138.13C6.598,138.337 6.952,138.602 7.143,138.925C7.337,139.243 7.434,139.723 7.434,140.365C7.434,142.123 6.681,143.002 5.175,143.002L3.487,143.002L3.487,133.419ZM4.703,137.64C5.204,137.64 5.552,137.524 5.746,137.292C5.941,137.048 6.038,136.62 6.038,136.008C6.038,134.973 5.665,134.456 4.921,134.456L4.821,134.456L4.765,134.456C4.732,134.456 4.712,134.458 4.703,134.462L4.703,137.64ZM4.703,141.898C5.233,141.898 5.599,141.784 5.802,141.556C6.005,141.329 6.106,140.917 6.106,140.321C6.106,139.709 6.001,139.281 5.79,139.036C5.583,138.788 5.221,138.664 4.703,138.664L4.703,141.898Z" style="fill-rule:nonzero;"/>
            <path id="path1312" d="M10.14,133.419L11.146,133.419L13.2,143.002L11.922,143.002L11.562,141.134L9.663,141.134L9.296,143.002L8.055,143.002L10.14,133.419ZM11.376,140.135L11.09,138.608C10.9,137.57 10.745,136.461 10.625,135.281C10.567,135.856 10.492,136.44 10.401,137.032C10.31,137.619 10.203,138.244 10.078,138.906L9.843,140.135L11.376,140.135Z" style="fill-rule:nonzero;"/>
            <path id="path1314" d="M13.964,133.419L15.168,133.419L16.453,137.243C16.825,138.323 17.154,139.475 17.44,140.7C17.336,139.959 17.26,139.289 17.21,138.689C17.16,138.089 17.135,137.524 17.135,136.994L17.135,133.419L18.433,133.419L18.433,143.002L17.222,143.002L15.776,138.689C15.644,138.287 15.518,137.876 15.398,137.454C15.282,137.032 15.174,136.589 15.075,136.125C15.067,136.067 15.052,135.997 15.031,135.914C15.015,135.832 14.994,135.736 14.969,135.629C14.982,135.736 14.992,135.83 15,135.908C15.009,135.983 15.015,136.047 15.019,136.101L15.087,137.075L15.155,138.261C15.16,138.327 15.162,138.407 15.162,138.503C15.166,138.598 15.168,138.705 15.168,138.825L15.236,143.002L13.964,143.002L13.964,133.419Z" style="fill-rule:nonzero;"/>
            <path id="path1316" d="M19.922,133.419L21.213,133.419L21.213,138.062L23.013,133.419L24.317,133.419L22.43,138.062L24.466,143.002L23.013,143.002L21.213,138.062L21.213,143.002L19.922,143.002L19.922,133.419Z" style="fill-rule:nonzero;"/>
        </g>
        <g id="text1299" transform="matrix(0.854859,0,0,1.0528,12.95,-1.00003)">
            <path id="path1301" d="M73.17,132.929L74.413,132.929L75.062,137.362L75.167,138.018C75.217,138.372 75.254,138.696 75.279,138.989L75.347,139.799C75.351,139.82 75.355,139.857 75.359,139.91C75.363,139.964 75.369,140.032 75.378,140.114L75.409,139.805C75.458,139.265 75.51,138.768 75.563,138.315C75.621,137.861 75.683,137.443 75.749,137.059L76.435,132.929L77.425,132.929L78.068,136.942C78.163,137.536 78.241,138.086 78.303,138.593C78.369,139.1 78.422,139.585 78.463,140.046C78.505,139.56 78.55,139.09 78.599,138.636C78.653,138.183 78.709,137.738 78.766,137.301L78.859,136.664L79.41,132.929L80.64,132.929L78.952,142.477L77.95,142.477L77.276,138.352C77.272,138.335 77.262,138.267 77.245,138.148C77.229,138.028 77.204,137.857 77.171,137.635L77.041,136.682C77.033,136.608 77.018,136.497 76.998,136.348C76.981,136.2 76.963,136.012 76.942,135.786L76.911,135.39C76.903,135.485 76.895,135.567 76.887,135.637C76.878,135.707 76.872,135.765 76.868,135.81C76.847,136.082 76.829,136.295 76.812,136.447C76.8,136.596 76.792,136.686 76.788,136.719L76.658,137.635C76.629,137.845 76.606,138.01 76.59,138.129C76.574,138.249 76.561,138.323 76.553,138.352L75.854,142.477L74.821,142.477L73.17,132.929Z" style="fill-rule:nonzero;"/>
            <path id="path1303" d="M82.545,132.929L83.546,132.929L85.593,142.477L84.319,142.477L83.961,140.615L82.069,140.615L81.704,142.477L80.467,142.477L82.545,132.929ZM83.775,139.62L83.491,138.098C83.301,137.064 83.147,135.959 83.027,134.784C82.969,135.357 82.895,135.938 82.804,136.528C82.714,137.113 82.607,137.736 82.483,138.395L82.248,139.62L83.775,139.62Z" style="fill-rule:nonzero;"/>
            <path id="path1305" d="M85.371,132.929L86.638,132.929L87.214,136.453L87.312,137.09L87.517,138.476C87.55,138.711 87.578,138.925 87.603,139.119C87.632,139.312 87.657,139.488 87.677,139.644L87.739,140.114C87.752,140.019 87.762,139.935 87.77,139.861C87.778,139.787 87.787,139.725 87.795,139.675L87.962,138.568L88.178,137.115C88.199,136.983 88.217,136.862 88.234,136.75C88.254,136.639 88.273,136.54 88.289,136.453L88.908,132.929L90.108,132.929L88.234,142.477L87.213,142.477L85.371,132.929Z" style="fill-rule:nonzero;"/>
            <path id="path1307" d="M90.806,132.929L94.226,132.929L94.226,134.017L92.093,134.017L92.093,137.041L93.985,137.041L93.985,138.129L92.093,138.129L92.093,141.388L94.226,141.388L94.226,142.477L90.806,142.477L90.806,132.929Z" style="fill-rule:nonzero;"/>
        </g>
        <g id="text1356" transform="matrix(1,0,0,1,0,2)">
            <path id="path1358" d="M55.833,97.033L55.833,98.354C55.421,98.059 55.05,97.911 54.72,97.911C54.364,97.911 54.073,98.037 53.848,98.289C53.622,98.528 53.509,98.847 53.509,99.246C53.509,99.598 53.589,99.899 53.75,100.151C53.832,100.286 53.967,100.459 54.154,100.672C54.345,100.885 54.59,101.141 54.889,101.44C55.441,102 55.816,102.484 56.016,102.892C56.215,103.287 56.315,103.771 56.315,104.344C56.315,105.121 56.096,105.761 55.658,106.264C55.219,106.755 54.657,107 53.971,107C53.394,107 52.901,106.842 52.493,106.525L52.493,105.184C52.975,105.535 53.414,105.711 53.809,105.711C54.178,105.711 54.466,105.589 54.674,105.346C54.883,105.099 54.987,104.765 54.987,104.344C54.987,103.979 54.907,103.652 54.746,103.361C54.664,103.222 54.549,103.063 54.401,102.885C54.253,102.703 54.069,102.501 53.848,102.28C53.505,101.941 53.221,101.642 52.995,101.382C52.769,101.121 52.602,100.893 52.494,100.698C52.285,100.316 52.181,99.834 52.181,99.253C52.181,98.467 52.385,97.844 52.793,97.384C53.205,96.92 53.759,96.688 54.453,96.688C54.935,96.688 55.395,96.803 55.833,97.033L55.833,97.033Z" style="fill-rule:nonzero;"/>
            <path id="path1360" d="M56.829,96.824L58.138,96.824L58.822,101.492L58.932,102.182C58.984,102.556 59.023,102.896 59.049,103.204L59.121,104.057C59.125,104.079 59.13,104.118 59.134,104.175C59.138,104.231 59.145,104.303 59.154,104.389L59.186,104.064C59.238,103.495 59.292,102.972 59.349,102.495C59.41,102.017 59.475,101.577 59.544,101.173L60.267,96.824L61.309,96.824L61.986,101.049C62.085,101.674 62.168,102.254 62.233,102.788C62.302,103.322 62.359,103.832 62.402,104.318C62.446,103.806 62.493,103.311 62.546,102.833C62.602,102.356 62.661,101.887 62.721,101.427L62.819,100.757L63.398,96.824L64.694,96.824L62.917,106.876L61.862,106.876L61.152,102.534C61.148,102.516 61.137,102.445 61.12,102.319C61.102,102.193 61.076,102.013 61.042,101.779L60.905,100.776C60.896,100.698 60.881,100.581 60.859,100.424C60.842,100.268 60.822,100.071 60.801,99.832L60.768,99.415C60.76,99.515 60.751,99.602 60.742,99.676C60.734,99.75 60.727,99.81 60.723,99.858C60.701,100.145 60.681,100.368 60.664,100.529C60.651,100.685 60.642,100.78 60.638,100.815L60.501,101.779C60.471,102 60.447,102.174 60.43,102.299C60.412,102.425 60.399,102.503 60.391,102.534L59.655,106.876L58.568,106.876L56.829,96.824Z" style="fill-rule:nonzero;"/>
            <path id="path1362" d="M66.699,96.824L67.754,96.824L69.909,106.876L68.568,106.876L68.19,104.917L66.198,104.917L65.814,106.876L64.512,106.876L66.699,96.824ZM67.995,103.868L67.695,102.267C67.496,101.178 67.333,100.014 67.207,98.777C67.146,99.381 67.068,99.993 66.973,100.613C66.877,101.23 66.764,101.885 66.634,102.579L66.387,103.868L67.995,103.868Z" style="fill-rule:nonzero;"/>
            <path id="path1364" d="M70.71,96.824L72.493,96.824C73.231,96.824 73.78,97 74.141,97.352C74.596,97.807 74.824,98.504 74.824,99.441C74.824,100.162 74.703,100.741 74.46,101.18C74.221,101.614 73.878,101.883 73.431,101.987L75.28,106.876L73.906,106.876L72.064,101.954L72.064,106.876L70.71,106.876L70.71,96.824ZM72.064,101.277C72.589,101.277 72.96,101.156 73.177,100.913C73.394,100.67 73.503,100.26 73.503,99.682C73.503,99.37 73.479,99.103 73.431,98.882C73.388,98.66 73.316,98.48 73.216,98.341C73.121,98.202 72.995,98.1 72.839,98.035C72.687,97.97 72.504,97.938 72.292,97.938L72.064,97.938L72.064,101.277Z" style="fill-rule:nonzero;"/>
            <path id="path1366" d="M76.81,96.824L77.969,96.824L78.854,100.926C78.963,101.438 79.06,101.952 79.147,102.469C79.238,102.981 79.321,103.519 79.395,104.083C79.403,104.01 79.41,103.953 79.414,103.914C79.418,103.871 79.423,103.84 79.427,103.823L79.616,102.671L79.785,101.577L79.935,100.854L80.723,96.824L81.894,96.824L82.819,106.876L81.523,106.876L81.296,103.465C81.287,103.291 81.278,103.141 81.269,103.016C81.265,102.89 81.263,102.786 81.263,102.703L81.204,101.355L81.172,100.118C81.172,100.11 81.17,100.093 81.166,100.066C81.166,100.036 81.163,99.997 81.159,99.949L81.127,100.151C81.092,100.39 81.059,100.598 81.029,100.776C81.003,100.954 80.979,101.104 80.957,101.225L80.788,102.143L80.723,102.488L79.877,106.876L78.965,106.876L78.171,103.087C78.062,102.588 77.964,102.082 77.878,101.57C77.795,101.054 77.719,100.513 77.65,99.949L77.259,106.876L75.983,106.876L76.81,96.824Z" style="fill-rule:nonzero;"/>
        </g>
        <g id="text1371" transform="matrix(0.822589,0,0,1.21567,4,2.99998)">
            <path id="path1422" d="M6.737,64.242C6.737,65.702 6.575,66.74 6.25,67.354C5.925,67.968 5.38,68.275 4.616,68.275C3.813,68.275 3.247,67.945 2.919,67.284C2.594,66.638 2.431,65.49 2.431,63.841C2.431,62.37 2.592,61.329 2.913,60.718C3.238,60.104 3.788,59.797 4.563,59.797C5.255,59.797 5.77,60.035 6.105,60.51C6.327,60.827 6.487,61.279 6.587,61.864C6.687,62.407 6.737,63.2 6.737,64.242L6.737,64.242ZM5.57,64.36C5.57,62.928 5.505,61.979 5.377,61.511C5.248,61.04 4.986,60.804 4.59,60.804C4.193,60.804 3.929,61.02 3.797,61.452C3.668,61.888 3.604,62.762 3.604,64.076C3.604,65.287 3.672,66.126 3.808,66.593C3.947,67.036 4.208,67.257 4.59,67.257C4.964,67.257 5.222,67.05 5.361,66.636C5.5,66.226 5.57,65.467 5.57,64.36L5.57,64.36Z" style="fill:rgb(158,161,168);fill-rule:nonzero;"/>
            <path id="path1424" d="M11.091,60.038L11.091,61.04C10.805,60.9 10.566,60.831 10.373,60.831C10.109,60.831 9.882,60.897 9.693,61.029C9.504,61.158 9.347,61.357 9.222,61.629C9.101,61.9 9.01,62.245 8.949,62.662C8.892,63.077 8.863,63.567 8.863,64.135C8.863,66.177 9.386,67.198 10.432,67.198C10.614,67.198 10.834,67.141 11.091,67.027L11.091,68.05C10.823,68.2 10.523,68.275 10.191,68.275C8.517,68.275 7.68,66.907 7.68,64.173C7.68,62.695 7.883,61.595 8.29,60.874C8.701,60.153 9.327,59.792 10.17,59.792C10.481,59.792 10.788,59.874 11.091,60.038L11.091,60.038Z" style="fill:rgb(158,161,168);fill-rule:nonzero;"/>
            <path id="path1426" d="M11.364,59.904L14.99,59.904L14.99,60.879L13.742,60.879L13.742,68.173L12.649,68.173L12.649,60.879L11.364,60.879L11.364,59.904Z" style="fill:rgb(158,161,168);fill-rule:nonzero;"/>
            <path id="path1428" d="M16.629,59.904L17.496,59.904L19.269,68.173L18.166,68.173L17.855,66.561L16.216,66.561L15.9,68.173L14.829,68.173L16.629,59.904ZM17.694,65.699L17.448,64.381C17.284,63.485 17.15,62.529 17.046,61.511C16.996,62.007 16.932,62.511 16.853,63.021C16.775,63.528 16.682,64.067 16.575,64.639L16.371,65.699L17.694,65.699Z" style="fill:rgb(158,161,168);fill-rule:nonzero;"/>
            <path id="path1430" d="M19.076,59.904L20.174,59.904L20.672,62.957L20.758,63.509L20.934,64.708C20.963,64.912 20.988,65.097 21.009,65.265C21.034,65.433 21.056,65.585 21.073,65.72L21.127,66.127C21.138,66.045 21.147,65.972 21.154,65.908C21.161,65.843 21.168,65.79 21.175,65.747L21.32,64.788L21.507,63.53C21.525,63.416 21.541,63.31 21.555,63.214C21.573,63.118 21.589,63.032 21.604,62.957L22.139,59.904L23.178,59.904L21.555,68.173L20.672,68.173L19.076,59.904Z" style="fill:rgb(158,161,168);fill-rule:nonzero;"/>
            <path id="path1432" d="M23.783,59.904L26.745,59.904L26.745,60.847L24.897,60.847L24.897,63.466L26.536,63.466L26.536,64.408L24.897,64.408L24.897,67.231L26.745,67.231L26.745,68.173L23.783,68.173L23.783,59.904Z" style="fill:rgb(158,161,168);fill-rule:nonzero;"/>
        </g>
        <g id="text1375" transform="matrix(0.947204,0,0,1.05574,4.00003,2.99998)">
            <path id="path1417" d="M12.669,46.364L16.098,46.364L16.098,47.449L13.952,47.449L13.952,50.458L15.888,50.458L15.888,51.544L13.952,51.544L13.952,55.885L12.669,55.885L12.669,46.364Z" style="fill:rgb(158,161,168);fill-rule:nonzero;"/>
            <path id="path1419" d="M17.534,46.364L18.632,46.364L19.471,50.249C19.574,50.734 19.666,51.221 19.748,51.71C19.835,52.195 19.913,52.705 19.983,53.24C19.991,53.17 19.997,53.116 20.001,53.079C20.005,53.038 20.009,53.009 20.013,52.993L20.192,51.901L20.353,50.865L20.494,50.181L21.241,46.364L22.351,46.364L23.226,55.885L21.999,55.885L21.783,52.654C21.775,52.489 21.767,52.347 21.759,52.228C21.754,52.109 21.752,52.01 21.752,51.932L21.697,50.656L21.666,49.484C21.666,49.476 21.664,49.459 21.66,49.435C21.66,49.406 21.658,49.369 21.654,49.324L21.623,49.515C21.59,49.741 21.559,49.938 21.53,50.107C21.506,50.275 21.483,50.417 21.463,50.532L21.302,51.402L21.241,51.729L20.439,55.885L19.576,55.885L18.823,52.296C18.72,51.823 18.628,51.344 18.546,50.859C18.468,50.37 18.396,49.858 18.33,49.324L17.96,55.885L16.751,55.885L17.534,46.364Z" style="fill:rgb(158,161,168);fill-rule:nonzero;"/>
        </g>
        <g id="text1379" transform="matrix(0.778504,0,0,1.07044,15.5829,2.99998)">
            <path id="path1406" d="M74.395,45.727L75.66,45.727L75.66,54.047L77.728,54.047L77.728,55.118L74.395,55.118L74.395,45.727Z" style="fill:rgb(158,161,168);fill-rule:nonzero;"/>
            <rect id="path1408" x="78.531" y="45.727" width="1.265" height="9.391" style="fill:rgb(158,161,168);fill-rule:nonzero;"/>
            <path id="path1410" d="M81.256,45.727L82.436,45.727L83.695,49.474C84.06,50.532 84.382,51.661 84.662,52.861C84.56,52.136 84.485,51.479 84.437,50.891C84.388,50.303 84.364,49.749 84.364,49.23L84.364,45.727L85.635,45.727L85.635,55.118L84.449,55.118L83.032,50.891C82.902,50.497 82.778,50.094 82.661,49.68C82.547,49.267 82.442,48.833 82.345,48.379C82.336,48.322 82.322,48.253 82.302,48.172C82.286,48.091 82.266,47.998 82.241,47.892C82.253,47.998 82.263,48.089 82.271,48.166C82.279,48.239 82.285,48.302 82.289,48.355L82.356,49.309L82.423,50.471C82.427,50.536 82.429,50.615 82.429,50.708C82.433,50.802 82.435,50.907 82.435,51.025L82.502,55.118L81.255,55.118L81.256,45.727Z" style="fill:rgb(158,161,168);fill-rule:nonzero;"/>
            <path id="path1412" d="M89.673,45.727L93.055,45.727L93.055,46.798L90.938,46.798L90.938,49.766L92.848,49.766L92.848,50.836L90.938,50.836L90.938,55.118L89.673,55.118L89.673,45.727Z" style="fill:rgb(158,161,168);fill-rule:nonzero;"/>
            <path id="path1414" d="M94.472,45.727L95.555,45.727L96.382,49.559C96.483,50.037 96.574,50.518 96.656,51C96.741,51.479 96.818,51.981 96.887,52.509C96.895,52.44 96.901,52.387 96.905,52.35C96.909,52.31 96.913,52.281 96.917,52.265L97.093,51.189L97.251,50.167L97.391,49.492L98.127,45.727L99.222,45.727L100.086,55.118L98.875,55.118L98.662,51.931C98.654,51.769 98.646,51.629 98.638,51.511C98.634,51.393 98.632,51.296 98.632,51.219L98.577,49.96L98.547,48.805C98.547,48.797 98.545,48.78 98.541,48.756C98.541,48.728 98.539,48.691 98.535,48.646L98.505,48.835C98.472,49.058 98.442,49.253 98.414,49.419C98.389,49.585 98.367,49.725 98.347,49.839L98.189,50.696L98.128,51.018L97.337,55.118L96.486,55.118L95.744,51.578C95.642,51.112 95.551,50.639 95.47,50.161C95.393,49.678 95.322,49.174 95.257,48.646L94.892,55.118L93.7,55.118L94.472,45.727Z" style="fill:rgb(158,161,168);fill-rule:nonzero;"/>
        </g>
        <rect id="rect1435" x="2" y="16" width="78" height="26" style="fill:rgb(158,161,168);"/>
        <g id="text1383" transform="matrix(0.941448,0,0,1.06219,-8,2)">
            <path id="path1385" d="M42.143,21.042L42.143,22.188C41.816,22.028 41.543,21.949 41.322,21.949C41.02,21.949 40.76,22.024 40.544,22.176C40.327,22.323 40.147,22.551 40.004,22.862C39.865,23.173 39.761,23.567 39.692,24.045C39.626,24.519 39.594,25.081 39.594,25.73C39.594,28.068 40.192,29.236 41.389,29.236C41.598,29.236 41.849,29.171 42.143,29.04L42.143,30.211C41.837,30.383 41.494,30.468 41.114,30.468C39.197,30.468 38.239,28.903 38.239,25.773C38.239,24.082 38.472,22.823 38.938,21.998C39.408,21.172 40.125,20.76 41.089,20.76C41.445,20.76 41.796,20.854 42.143,21.042L42.143,21.042Z" style="fill-rule:nonzero;"/>
            <path id="path1387" d="M42.456,20.888L43.712,20.888L44.282,24.382L44.38,25.013L44.583,26.386C44.615,26.619 44.644,26.832 44.669,27.024C44.697,27.216 44.722,27.389 44.742,27.545L44.803,28.011C44.816,27.917 44.826,27.833 44.834,27.759C44.842,27.686 44.85,27.624 44.859,27.575L45.024,26.478L45.239,25.038C45.259,24.907 45.277,24.787 45.294,24.676C45.314,24.566 45.333,24.468 45.349,24.382L45.962,20.888L47.151,20.888L45.294,30.352L44.282,30.352L42.456,20.888Z" style="fill-rule:nonzero;"/>
            <rect id="path1389" x="50.442" y="20.888" width="1.275" height="9.464" style="fill-rule:nonzero;"/>
            <path id="path1391" d="M53.188,20.888L54.377,20.888L55.646,24.664C56.014,25.73 56.339,26.868 56.621,28.078C56.518,27.347 56.443,26.685 56.394,26.092C56.345,25.5 56.32,24.942 56.32,24.419L56.32,20.888L57.601,20.888L57.601,30.352L56.406,30.352L54.978,26.092C54.847,25.696 54.723,25.289 54.604,24.872C54.49,24.456 54.383,24.018 54.285,23.561C54.277,23.504 54.263,23.434 54.242,23.352C54.226,23.271 54.206,23.177 54.181,23.07C54.193,23.177 54.204,23.269 54.212,23.346C54.22,23.42 54.226,23.483 54.23,23.536L54.298,24.498L54.365,25.669C54.369,25.735 54.371,25.814 54.371,25.908C54.375,26.002 54.377,26.108 54.377,26.227L54.445,30.352L53.188,30.352L53.188,20.888Z" style="fill-rule:nonzero;"/>
            <path id="path1393" d="M62.063,20.888L64.221,20.888L64.221,30.352L63.001,30.352L63.001,21.973L62.063,21.973L62.063,20.888Z" style="fill-rule:nonzero;"/>
            <path id="path1395" d="M66.115,20.888L67.371,20.888L67.941,24.382L68.039,25.013L68.242,26.386C68.274,26.619 68.303,26.832 68.327,27.024C68.356,27.216 68.38,27.389 68.401,27.545L68.462,28.011C68.475,27.917 68.485,27.833 68.493,27.759C68.501,27.686 68.509,27.624 68.517,27.575L68.683,26.478L68.897,25.038C68.918,24.907 68.936,24.787 68.953,24.676C68.973,24.566 68.991,24.468 69.008,24.382L69.621,20.888L70.81,20.888L68.952,30.352L67.941,30.352L66.115,20.888Z" style="fill-rule:nonzero;"/>
            <path id="path1397" d="M75.817,19.938L76.804,19.938L71.165,32.951L70.166,32.951L75.817,19.938Z" style="fill-rule:nonzero;"/>
            <path id="path1399" d="M81.904,25.853C81.904,27.524 81.718,28.711 81.346,29.414C80.974,30.117 80.351,30.468 79.476,30.468C78.557,30.468 77.909,30.09 77.533,29.334C77.162,28.595 76.976,27.281 76.976,25.393C76.976,23.71 77.16,22.519 77.527,21.82C77.899,21.117 78.528,20.766 79.415,20.766C80.208,20.766 80.796,21.038 81.18,21.581C81.434,21.945 81.617,22.462 81.732,23.132C81.846,23.753 81.904,24.66 81.904,25.853L81.904,25.853ZM80.567,25.988C80.567,24.349 80.494,23.262 80.347,22.727C80.2,22.188 79.899,21.918 79.446,21.918C78.992,21.918 78.69,22.165 78.539,22.66C78.391,23.158 78.318,24.159 78.318,25.663C78.318,27.048 78.396,28.008 78.551,28.544C78.71,29.05 79.008,29.304 79.446,29.304C79.875,29.304 80.169,29.067 80.328,28.593C80.488,28.123 80.567,27.255 80.567,25.988L80.567,25.988Z" style="fill-rule:nonzero;"/>
            <path id="path1401" d="M86.887,21.042L86.887,22.188C86.56,22.028 86.286,21.949 86.065,21.949C85.763,21.949 85.503,22.024 85.287,22.176C85.07,22.323 84.891,22.551 84.747,22.862C84.609,23.173 84.504,23.567 84.435,24.045C84.369,24.519 84.337,25.081 84.337,25.73C84.337,28.068 84.935,29.236 86.133,29.236C86.341,29.236 86.592,29.171 86.887,29.04L86.887,30.211C86.58,30.383 86.237,30.468 85.857,30.468C83.94,30.468 82.982,28.903 82.982,25.773C82.982,24.082 83.215,22.823 83.681,21.998C84.151,21.172 84.868,20.76 85.832,20.76C86.188,20.76 86.539,20.854 86.887,21.042L86.887,21.042Z" style="fill-rule:nonzero;"/>
            <path id="path1403" d="M87.199,20.888L91.349,20.888L91.349,22.004L89.921,22.004L89.921,30.352L88.67,30.352L88.67,22.004L87.199,22.004L87.199,20.888Z" style="fill-rule:nonzero;"/>
        </g>
        <g id="text1439" transform="matrix(0.999104,0,0,1.0009,0,0)">
            <path id="path1441" d="M90.135,17.392L90.135,12.975C90.882,13.995 91.69,14.505 92.558,14.505C92.885,14.505 93.153,14.42 93.359,14.25C93.565,14.074 93.669,13.856 93.669,13.595C93.669,13.218 93.444,12.851 92.995,12.493L92.376,12.01C91.963,11.7 91.611,11.394 91.319,11.09C91.028,10.781 90.791,10.465 90.609,10.143C90.427,9.815 90.293,9.478 90.208,9.132C90.123,8.786 90.081,8.422 90.081,8.04C90.081,7.384 90.232,6.698 90.536,5.982C90.688,5.648 90.864,5.344 91.064,5.071C91.265,4.792 91.495,4.546 91.756,4.333C92.473,3.726 93.338,3.423 94.352,3.423C95.256,3.423 96.167,3.663 97.084,4.142L97.084,8.44C96.774,7.961 96.422,7.584 96.027,7.311C95.633,7.032 95.244,6.892 94.862,6.892C94.57,6.892 94.33,6.977 94.142,7.147C93.948,7.311 93.851,7.508 93.851,7.739C93.851,8.116 94.109,8.489 94.625,8.859L95.226,9.305C96.027,9.882 96.601,10.474 96.947,11.081C97.299,11.688 97.475,12.399 97.475,13.212C97.475,14.596 97.053,15.738 96.209,16.636C95.365,17.535 94.297,17.984 93.004,17.984C92.111,17.984 91.155,17.787 90.135,17.392L90.135,17.392Z" style="fill:rgb(158,161,168);fill-rule:nonzero;"/>
            <path id="path1443" d="M98.959,17.738L98.959,3.678L106.017,3.678L106.017,6.983L102.757,6.983L102.757,9.032L105.68,9.032L105.68,12.21L102.757,12.21L102.757,14.36L106.017,14.36L106.017,17.738L98.959,17.738Z" style="fill:rgb(158,161,168);fill-rule:nonzero;"/>
            <path id="path1445" d="M113.739,17.738L109.869,17.738L106.645,3.678L110.634,3.678L111.326,7.694C111.587,9.23 111.796,10.948 111.954,12.848C112.021,12.004 112.103,11.215 112.2,10.48C112.297,9.746 112.413,9.029 112.546,8.331L113.448,3.678L117.573,3.678L113.739,17.738Z" style="fill:rgb(158,161,168);fill-rule:nonzero;"/>
            <path id="path1447" d="M118.556,17.738L118.556,3.678L125.614,3.678L125.614,6.983L122.354,6.983L122.354,9.032L125.277,9.032L125.277,12.21L122.354,12.21L122.354,14.36L125.614,14.36L125.614,17.738L118.556,17.738Z" style="fill:rgb(158,161,168);fill-rule:nonzero;"/>
            <path id="path1449" d="M127.226,17.738L127.226,3.678L130.85,3.678L132.753,8.613C132.857,8.905 132.972,9.239 133.099,9.615C133.233,9.991 133.379,10.426 133.537,10.917L133.928,12.156C133.788,10.936 133.682,9.891 133.609,9.023C133.537,8.155 133.5,7.426 133.5,6.838L133.5,3.678L137.124,3.678L137.124,17.738L133.5,17.738L131.588,12.566C131.387,12.013 131.205,11.497 131.041,11.017C130.884,10.532 130.744,10.07 130.622,9.633C130.701,10.623 130.759,11.485 130.796,12.22C130.832,12.954 130.85,13.598 130.85,14.15L130.85,17.738L127.226,17.738Z" style="fill:rgb(158,161,168);fill-rule:nonzero;"/>
            <path id="path1451" d="M144.41,17.392L144.41,12.975C145.156,13.995 145.964,14.505 146.832,14.505C147.16,14.505 147.427,14.42 147.633,14.25C147.84,14.074 147.943,13.856 147.943,13.595C147.943,13.218 147.718,12.851 147.269,12.493L146.65,12.01C146.237,11.7 145.885,11.394 145.593,11.09C145.302,10.781 145.065,10.465 144.883,10.143C144.701,9.815 144.567,9.478 144.482,9.132C144.397,8.786 144.355,8.422 144.355,8.04C144.355,7.384 144.507,6.698 144.81,5.982C144.962,5.648 145.138,5.344 145.338,5.071C145.539,4.792 145.769,4.546 146.031,4.333C146.747,3.726 147.612,3.423 148.626,3.423C149.53,3.423 150.441,3.663 151.358,4.142L151.358,8.44C151.048,7.961 150.696,7.584 150.301,7.311C149.907,7.032 149.518,6.892 149.136,6.892C148.844,6.892 148.605,6.977 148.416,7.147C148.222,7.311 148.125,7.508 148.125,7.739C148.125,8.116 148.383,8.489 148.899,8.859L149.5,9.305C150.301,9.882 150.875,10.474 151.221,11.081C151.573,11.688 151.749,12.399 151.749,13.212C151.749,14.596 151.327,15.738 150.484,16.636C149.64,17.535 148.571,17.984 147.278,17.984C146.386,17.984 145.43,17.787 144.41,17.392L144.41,17.392Z" style="fill:rgb(158,161,168);fill-rule:nonzero;"/>
            <path id="path1453" d="M153.234,17.738L153.234,3.678L160.291,3.678L160.291,6.983L157.031,6.983L157.031,9.032L159.954,9.032L159.954,12.21L157.031,12.21L157.031,14.36L160.291,14.36L160.291,17.738L153.234,17.738Z" style="fill:rgb(158,161,168);fill-rule:nonzero;"/>
            <path id="path1455" d="M172.029,17.738L168.104,17.738L167.822,15.953L165.263,15.953L164.954,17.738L161.029,17.738L164.407,3.678L169.052,3.678L172.029,17.738ZM167.376,12.939L167.13,11.3C167.124,11.294 167.112,11.212 167.094,11.054C167.082,10.92 167.018,10.392 166.903,9.469C166.89,9.366 166.875,9.227 166.857,9.05C166.839,8.868 166.815,8.641 166.784,8.367L166.666,7.038C166.654,7.165 166.635,7.308 166.611,7.466C166.593,7.624 166.572,7.797 166.547,7.985C166.505,8.361 166.475,8.622 166.456,8.768C166.438,8.914 166.426,9.002 166.42,9.032L166.156,10.735L165.774,12.939L167.376,12.939Z" style="fill:rgb(158,161,168);fill-rule:nonzero;"/>
            <path id="path1457" d="M172.822,17.392L172.822,12.975C173.568,13.995 174.376,14.505 175.244,14.505C175.572,14.505 175.839,14.42 176.045,14.25C176.252,14.074 176.355,13.856 176.355,13.595C176.355,13.218 176.13,12.851 175.681,12.493L175.062,12.01C174.649,11.7 174.297,11.394 174.005,11.09C173.714,10.781 173.477,10.465 173.295,10.143C173.113,9.815 172.979,9.478 172.894,9.132C172.809,8.786 172.767,8.422 172.767,8.04C172.767,7.384 172.919,6.698 173.222,5.982C173.374,5.648 173.55,5.344 173.75,5.071C173.951,4.792 174.182,4.546 174.443,4.333C175.159,3.726 176.024,3.423 177.038,3.423C177.942,3.423 178.853,3.663 179.77,4.142L179.77,8.44C179.46,7.961 179.108,7.584 178.713,7.311C178.319,7.032 177.93,6.892 177.548,6.892C177.256,6.892 177.017,6.977 176.828,7.147C176.634,7.311 176.537,7.508 176.537,7.739C176.537,8.116 176.795,8.489 177.311,8.859L177.912,9.305C178.713,9.882 179.287,10.474 179.633,11.081C179.985,11.688 180.161,12.399 180.161,13.212C180.161,14.596 179.739,15.738 178.896,16.636C178.052,17.535 176.983,17.984 175.69,17.984C174.798,17.984 173.842,17.787 172.822,17.392L172.822,17.392Z" style="fill:rgb(158,161,168);fill-rule:nonzero;"/>
        </g>
        <g id="text1484" transform="matrix(0.915491,0,0,1.09231,0,0)">
            <path id="path1486" d="M111.416,22.601L114.73,22.601L114.73,23.65L112.655,23.65L112.655,26.559L114.527,26.559L114.527,27.608L112.655,27.608L112.655,31.804L111.416,31.804L111.416,22.601Z" style="fill:rgb(158,161,168);fill-rule:nonzero;"/>
            <rect id="path1488" x="115.683" y="22.601" width="1.24" height="9.203" style="fill:rgb(158,161,168);fill-rule:nonzero;"/>
            <path id="path1490" d="M118.353,22.601L119.51,22.601L120.743,26.273C121.101,27.31 121.417,28.416 121.691,29.593C121.592,28.881 121.518,28.238 121.471,27.661C121.423,27.085 121.399,26.543 121.399,26.034L121.399,22.601L122.645,22.601L122.645,31.804L121.483,31.804L120.094,27.661C119.967,27.276 119.845,26.881 119.73,26.475C119.619,26.07 119.516,25.645 119.42,25.2C119.412,25.144 119.398,25.077 119.379,24.997C119.363,24.918 119.343,24.826 119.319,24.723C119.331,24.826 119.341,24.916 119.349,24.991C119.357,25.063 119.363,25.124 119.367,25.176L119.432,26.112L119.498,27.25C119.502,27.314 119.504,27.391 119.504,27.483C119.508,27.574 119.51,27.677 119.51,27.793L119.575,31.804L118.354,31.804L118.353,22.601Z" style="fill:rgb(158,161,168);fill-rule:nonzero;"/>
            <path id="path1492" d="M124.075,22.601L127.371,22.601L127.371,23.65L125.315,23.65L125.315,26.565L127.139,26.565L127.139,27.614L125.315,27.614L125.315,30.755L127.371,30.755L127.371,31.804L124.075,31.804L124.075,22.601Z" style="fill:rgb(158,161,168);fill-rule:nonzero;"/>
        </g>
        <g id="text1076" transform="matrix(1.0155,0,0,0.984732,2,2)">
            <path id="path1078" d="M194.658,4.197L196.415,4.197C197.141,4.197 197.682,4.37 198.037,4.716C198.486,5.165 198.71,5.851 198.71,6.774C198.71,7.483 198.59,8.054 198.351,8.486C198.116,8.913 197.778,9.178 197.338,9.281L199.159,14.095L197.806,14.095L195.992,9.249L195.992,14.095L194.658,14.095L194.658,4.197ZM195.992,8.582C196.509,8.582 196.874,8.462 197.088,8.223C197.302,7.983 197.409,7.58 197.409,7.011C197.409,6.703 197.385,6.441 197.338,6.223C197.295,6.005 197.225,5.827 197.126,5.69C197.032,5.554 196.908,5.453 196.755,5.389C196.605,5.325 196.425,5.293 196.216,5.293L195.992,5.293L195.992,8.582Z" style="fill:rgb(158,161,168);fill-rule:nonzero;"/>
            <path id="path1080" d="M200.197,4.197L203.743,4.197L203.743,5.325L201.531,5.325L201.531,8.46L203.493,8.46L203.493,9.588L201.531,9.588L201.531,12.967L203.743,12.967L203.743,14.095L200.197,14.095L200.197,4.197Z" style="fill:rgb(158,161,168);fill-rule:nonzero;"/>
            <path id="path1082" d="M208.852,4.357L208.852,5.556C208.51,5.389 208.224,5.306 207.993,5.306C207.677,5.306 207.405,5.385 207.179,5.543C206.952,5.697 206.764,5.936 206.615,6.261C206.469,6.586 206.36,6.998 206.288,7.498C206.219,7.994 206.185,8.582 206.185,9.261C206.185,11.706 206.811,12.928 208.064,12.928C208.282,12.928 208.544,12.86 208.852,12.723L208.852,13.948C208.532,14.127 208.173,14.217 207.775,14.217C205.771,14.217 204.768,12.58 204.768,9.306C204.768,7.537 205.012,6.22 205.499,5.357C205.991,4.494 206.741,4.062 207.749,4.062C208.121,4.062 208.489,4.16 208.852,4.357L208.852,4.357Z" style="fill:rgb(158,161,168);fill-rule:nonzero;"/>
        </g>
    </g>
</svg>
