<?xml version="1.0" encoding="UTF-8" standalone="no"?>
<!DOCTYPE svg PUBLIC "-//W3C//DTD SVG 1.1//EN" "http://www.w3.org/Graphics/SVG/1.1/DTD/svg11.dtd">
<svg width="100%" height="100%" viewBox="0 0 210 380" version="1.1" xmlns="http://www.w3.org/2000/svg" xmlns:xlink="http://www.w3.org/1999/xlink" xml:space="preserve" xmlns:serif="http://www.serif.com/" style="fill-rule:evenodd;clip-rule:evenodd;stroke-linejoin:round;stroke-miterlimit:2;">
    <g id="Layer-2" serif:id="Layer 2">
        <g id="text989">
        </g>
        <rect id="rect4689" x="0" y="0" width="210" height="380" style="fill:rgb(44,45,48);fill-rule:nonzero;"/>
        <g id="text4987">
        </g>
        <g id="text1042">
        </g>
        <g id="text2090">
        </g>
        <g id="g1356" transform="matrix(1,0,0,1,-2.60983e-07,300.5)">
            <g id="g1335">
                <rect id="rect4778-3-6" x="6" y="27.5" width="34" height="42" style="fill:rgb(179,179,179);"/>
                <g id="text4613" transform="matrix(1,0,0,1,-7.55905e-07,4.49973)">
                    <path id="path4701" d="M17.141,61L15.047,61L15.047,55.37L17.141,55.37L17.141,61ZM17.318,53.625C17.318,53.955 17.198,54.24 16.958,54.479C16.712,54.715 16.425,54.833 16.099,54.833C15.762,54.833 15.474,54.714 15.234,54.474C14.998,54.227 14.88,53.939 14.88,53.609C14.88,53.273 14.998,52.986 15.234,52.75C15.481,52.514 15.767,52.396 16.094,52.396C16.438,52.396 16.727,52.516 16.964,52.755C17.2,52.991 17.318,53.281 17.318,53.625Z" style="fill:rgb(44,45,48);fill-rule:nonzero;"/>
                    <path id="path4703" d="M23.068,61L20.979,61L20.979,58.021C20.979,57.764 20.953,57.585 20.901,57.484C20.852,57.384 20.766,57.333 20.641,57.333C20.349,57.333 20.203,57.609 20.203,58.161L20.203,61L18.115,61L18.115,55.37L20.203,55.37C20.2,55.509 20.196,55.637 20.193,55.755C20.189,55.873 20.184,55.983 20.177,56.083L20.156,56.443C20.493,55.648 20.986,55.25 21.635,55.25C22.087,55.25 22.438,55.418 22.688,55.755C22.941,56.092 23.068,56.561 23.068,57.161L23.068,61Z" style="fill:rgb(44,45,48);fill-rule:nonzero;"/>
                    <path id="path4705" d="M31.12,61L27.318,61L27.318,52.958L29.49,52.958L29.49,59.068L31.12,59.068L31.12,61Z" style="fill:rgb(44,45,48);fill-rule:nonzero;"/>
                </g>
            </g>
            <g id="g1342">
                <rect id="rect4662" x="50" y="27.5" width="34" height="42" style="fill:rgb(179,179,179);"/>
                <g id="text4617" transform="matrix(1,0,0,1,-7.55905e-07,4.49973)">
                    <path id="path4708" d="M60.182,61L58.089,61L58.089,55.37L60.182,55.37L60.182,61ZM60.359,53.625C60.359,53.955 60.24,54.24 60,54.479C59.753,54.715 59.467,54.833 59.141,54.833C58.804,54.833 58.516,54.714 58.276,54.474C58.04,54.227 57.922,53.939 57.922,53.609C57.922,53.273 58.04,52.986 58.276,52.75C58.523,52.514 58.809,52.396 59.135,52.396C59.479,52.396 59.769,52.516 60.005,52.755C60.241,52.991 60.359,53.281 60.359,53.625L60.359,53.625Z" style="fill:rgb(44,45,48);fill-rule:nonzero;"/>
                    <path id="path4710" d="M66.109,61L64.021,61L64.021,58.021C64.021,57.764 63.995,57.585 63.943,57.484C63.894,57.384 63.807,57.333 63.682,57.333C63.391,57.333 63.245,57.609 63.245,58.161L63.245,61L61.156,61L61.156,55.37L63.245,55.37C63.241,55.509 63.238,55.637 63.234,55.755C63.231,55.873 63.226,55.983 63.219,56.083L63.198,56.443C63.535,55.648 64.028,55.25 64.677,55.25C65.128,55.25 65.479,55.418 65.729,55.755C65.983,56.092 66.109,56.561 66.109,57.161L66.109,61Z" style="fill:rgb(44,45,48);fill-rule:nonzero;"/>
                    <path id="path4712" d="M76.078,61L73.729,61L72.656,58.135C72.646,58.087 72.627,58.023 72.599,57.943C72.575,57.863 72.544,57.767 72.505,57.656L72.521,58.187L72.521,61L70.359,61L70.359,52.958L72.583,52.958C73.562,52.958 74.295,53.151 74.781,53.536C75.399,54.03 75.708,54.731 75.708,55.641C75.708,56.613 75.293,57.285 74.463,57.656L76.078,61ZM72.531,56.682L72.677,56.682C72.927,56.682 73.135,56.587 73.302,56.396C73.469,56.205 73.552,55.962 73.552,55.667C73.552,55.066 73.238,54.766 72.609,54.766L72.531,54.766L72.531,56.682Z" style="fill:rgb(44,45,48);fill-rule:nonzero;"/>
                </g>
            </g>
        </g>
        <g id="g1402" transform="matrix(1,0,0,1,-2,0)">
            <g id="g4922" transform="matrix(1,0,0,1,122,17.9996)">
                <rect id="rect4778" x="6" y="310" width="34" height="42" style="fill:rgb(60,60,60);"/>
                <g id="text4861">
                    <path id="path4899" d="M16.849,345.271C16.849,346.139 16.609,346.83 16.13,347.344C15.651,347.858 15.009,348.115 14.203,348.115C13.411,348.115 12.781,347.852 12.313,347.328C11.847,346.8 11.615,346.092 11.615,345.203C11.615,344.314 11.852,343.601 12.328,343.062C12.8,342.521 13.427,342.25 14.208,342.25C15.031,342.25 15.677,342.519 16.146,343.057C16.615,343.595 16.849,344.333 16.849,345.271ZM14.823,345.203C14.823,344.995 14.809,344.807 14.781,344.641C14.753,344.47 14.714,344.326 14.661,344.208C14.609,344.087 14.547,343.993 14.474,343.927C14.401,343.861 14.319,343.828 14.229,343.828C14.052,343.828 13.91,343.953 13.802,344.203C13.694,344.422 13.641,344.75 13.641,345.188C13.641,345.618 13.694,345.946 13.802,346.172C13.91,346.422 14.054,346.547 14.234,346.547C14.405,346.547 14.545,346.424 14.656,346.177C14.767,345.903 14.823,345.578 14.823,345.203L14.823,345.203Z" style="fill:rgb(197,200,209);fill-rule:nonzero;"/>
                    <path id="path4901" d="M17.651,342.37L19.74,342.37L19.74,345.542C19.74,345.844 19.769,346.064 19.828,346.203C19.891,346.318 20.009,346.375 20.182,346.375C20.352,346.375 20.467,346.318 20.526,346.203C20.589,346.089 20.62,345.868 20.62,345.542L20.62,342.37L22.708,342.37L22.708,345.823C22.708,346.052 22.689,346.26 22.651,346.448C22.616,346.632 22.559,346.8 22.479,346.953C22.403,347.102 22.302,347.24 22.177,347.365C22.056,347.49 21.91,347.604 21.74,347.708C21.281,347.979 20.762,348.115 20.182,348.115C19.595,348.115 19.076,347.979 18.625,347.708C18.451,347.604 18.302,347.491 18.177,347.37C18.056,347.245 17.955,347.106 17.875,346.953C17.799,346.8 17.741,346.632 17.703,346.448C17.668,346.26 17.651,346.052 17.651,345.823L17.651,342.37Z" style="fill:rgb(197,200,209);fill-rule:nonzero;"/>
                    <path id="path4903" d="M26.047,348L23.953,348L23.953,344.052L23.359,344.052L23.359,342.37L23.953,342.37L23.953,340.714L26.047,340.714L26.047,342.37L26.74,342.37L26.74,344.052L26.047,344.052L26.047,348Z" style="fill:rgb(197,200,209);fill-rule:nonzero;"/>
                    <path id="path4905" d="M34.385,348L30.583,348L30.583,339.958L32.755,339.958L32.755,346.068L34.385,346.068L34.385,348Z" style="fill:rgb(197,200,209);fill-rule:nonzero;"/>
                </g>
            </g>
            <g id="g4914" transform="matrix(1,0,0,1,122,17.9993)">
                <rect id="rect4778-3" x="50" y="310" width="34" height="42" style="fill:rgb(60,60,60);"/>
                <g id="text4886">
                    <path id="path4890" d="M59.891,345.271C59.891,346.139 59.651,346.83 59.172,347.344C58.693,347.858 58.05,348.115 57.245,348.115C56.453,348.115 55.823,347.852 55.354,347.328C54.889,346.8 54.656,346.092 54.656,345.203C54.656,344.314 54.894,343.601 55.37,343.062C55.842,342.521 56.469,342.25 57.25,342.25C58.073,342.25 58.719,342.519 59.188,343.057C59.656,343.595 59.891,344.333 59.891,345.271ZM57.865,345.203C57.865,344.995 57.851,344.807 57.823,344.641C57.795,344.47 57.755,344.326 57.703,344.208C57.651,344.087 57.589,343.993 57.516,343.927C57.443,343.861 57.361,343.828 57.271,343.828C57.094,343.828 56.951,343.953 56.844,344.203C56.736,344.422 56.682,344.75 56.682,345.187C56.682,345.618 56.736,345.946 56.844,346.172C56.951,346.422 57.095,346.547 57.276,346.547C57.446,346.547 57.587,346.424 57.698,346.177C57.809,345.903 57.865,345.578 57.865,345.203L57.865,345.203Z" style="fill:rgb(197,200,209);fill-rule:nonzero;"/>
                    <path id="path4892" d="M60.693,342.37L62.781,342.37L62.781,345.542C62.781,345.844 62.811,346.064 62.87,346.203C62.932,346.318 63.05,346.375 63.224,346.375C63.394,346.375 63.509,346.318 63.568,346.203C63.63,346.089 63.662,345.868 63.662,345.542L63.662,342.37L65.75,342.37L65.75,345.823C65.75,346.052 65.731,346.26 65.693,346.448C65.658,346.632 65.601,346.8 65.521,346.953C65.444,347.102 65.344,347.24 65.219,347.365C65.097,347.49 64.951,347.604 64.781,347.708C64.323,347.979 63.804,348.115 63.224,348.115C62.637,348.115 62.118,347.979 61.667,347.708C61.493,347.604 61.344,347.491 61.219,347.37C61.097,347.245 60.997,347.106 60.917,346.953C60.84,346.8 60.783,346.632 60.745,346.448C60.71,346.26 60.693,346.052 60.693,345.823L60.693,342.37Z" style="fill:rgb(197,200,209);fill-rule:nonzero;"/>
                    <path id="path4894" d="M69.089,348L66.995,348L66.995,344.052L66.401,344.052L66.401,342.37L66.995,342.37L66.995,340.714L69.089,340.714L69.089,342.37L69.781,342.37L69.781,344.052L69.089,344.052L69.089,348Z" style="fill:rgb(197,200,209);fill-rule:nonzero;"/>
                    <path id="path4896" d="M79.344,348L76.995,348L75.922,345.135C75.912,345.087 75.892,345.023 75.865,344.943C75.84,344.863 75.809,344.767 75.771,344.656L75.786,345.187L75.786,348L73.625,348L73.625,339.958L75.849,339.958C76.828,339.958 77.561,340.151 78.047,340.536C78.665,341.029 78.974,341.731 78.974,342.641C78.974,343.613 78.559,344.285 77.729,344.656L79.344,348ZM75.797,343.682L75.943,343.682C76.193,343.682 76.401,343.587 76.568,343.396C76.734,343.205 76.818,342.962 76.818,342.667C76.818,342.066 76.503,341.766 75.875,341.766L75.797,341.766L75.797,343.682Z" style="fill:rgb(197,200,209);fill-rule:nonzero;"/>
                </g>
            </g>
        </g>
        <g id="text1802" transform="matrix(1.04638,0,0,1.22872,118.554,-22.0292)">
            <path id="path1804" d="M32.441,198.745L34.127,198.745L34.892,203.434L35.024,204.281L35.296,206.124C35.339,206.436 35.378,206.721 35.411,206.979C35.449,207.237 35.482,207.47 35.509,207.678L35.592,208.304C35.608,208.177 35.622,208.065 35.633,207.966C35.644,207.868 35.655,207.785 35.666,207.72L35.888,206.247L36.176,204.314C36.203,204.139 36.228,203.977 36.25,203.829C36.277,203.681 36.302,203.549 36.324,203.434L37.146,198.745L38.742,198.745L36.25,211.446L34.892,211.446L32.441,198.745Z" style="fill:rgb(158,161,168);fill-rule:nonzero;"/>
            <path id="path1806" d="M46.063,205.408C46.063,207.651 45.814,209.244 45.315,210.187C44.816,211.131 43.979,211.602 42.806,211.602C41.572,211.602 40.703,211.095 40.198,210.08C39.699,209.088 39.45,207.325 39.45,204.791C39.45,202.532 39.696,200.933 40.19,199.995C40.689,199.052 41.534,198.581 42.724,198.581C43.787,198.581 44.577,198.945 45.093,199.675C45.433,200.163 45.679,200.856 45.833,201.756C45.987,202.589 46.063,203.807 46.063,205.408L46.063,205.408ZM44.27,205.589C44.27,203.39 44.171,201.931 43.974,201.213C43.776,200.489 43.373,200.127 42.765,200.127C42.156,200.127 41.75,200.459 41.547,201.122C41.35,201.791 41.251,203.135 41.251,205.153C41.251,207.012 41.355,208.301 41.564,209.019C41.778,209.699 42.178,210.039 42.765,210.039C43.34,210.039 43.735,209.721 43.949,209.085C44.163,208.454 44.27,207.289 44.27,205.589L44.27,205.589Z" style="fill:rgb(158,161,168);fill-rule:nonzero;"/>
            <path id="path1808" d="M47.766,198.745L49.477,198.745L49.477,209.998L52.274,209.998L52.274,211.446L47.766,211.446L47.766,198.745Z" style="fill:rgb(158,161,168);fill-rule:nonzero;"/>
            <path id="path1810" d="M53.491,198.745L55.169,198.745L55.169,207.72C55.169,208.635 55.252,209.244 55.416,209.546C55.586,209.847 55.921,209.998 56.42,209.998C56.919,209.998 57.248,209.867 57.407,209.603C57.571,209.335 57.654,208.789 57.654,207.966L57.654,198.745L59.332,198.745L59.332,207.966C59.332,209.348 59.121,210.283 58.698,210.771C58.194,211.325 57.423,211.602 56.387,211.602C55.246,211.602 54.443,211.246 53.977,210.533C53.653,210.045 53.491,209.107 53.491,207.72L53.491,198.745Z" style="fill:rgb(158,161,168);fill-rule:nonzero;"/>
            <path id="path1812" d="M61.89,198.745L63.354,198.745L64.473,203.927C64.61,204.575 64.733,205.224 64.843,205.877C64.958,206.524 65.062,207.204 65.156,207.917C65.167,207.824 65.175,207.752 65.18,207.703C65.186,207.648 65.191,207.61 65.197,207.588L65.435,206.132L65.649,204.75L65.839,203.837L66.834,198.745L68.315,198.745L69.483,211.446L67.846,211.446L67.558,207.136C67.547,206.916 67.536,206.727 67.525,206.568C67.519,206.409 67.516,206.277 67.516,206.173L67.442,204.47L67.401,202.907C67.401,202.896 67.399,202.874 67.393,202.842C67.393,202.803 67.39,202.754 67.385,202.693L67.344,202.948C67.3,203.25 67.259,203.513 67.22,203.738C67.187,203.963 67.157,204.152 67.13,204.306L66.916,205.466L66.834,205.902L65.764,211.446L64.613,211.446L63.609,206.658C63.472,206.028 63.349,205.389 63.239,204.742C63.135,204.089 63.039,203.406 62.951,202.694L62.458,211.446L60.845,211.446L61.89,198.745Z" style="fill:rgb(158,161,168);fill-rule:nonzero;"/>
            <path id="path1814" d="M70.897,198.745L75.446,198.745L75.446,200.193L72.608,200.193L72.608,204.215L75.126,204.215L75.126,205.663L72.608,205.663L72.608,209.998L75.446,209.998L75.446,211.446L70.897,211.446L70.897,198.745Z" style="fill:rgb(158,161,168);fill-rule:nonzero;"/>
        </g>
        <g id="text80" transform="matrix(0.87098,0,0,0.995047,66,6.99997)">
            <path id="path4726" d="M29.851,371.706L29.851,363.943L31.853,363.943L32.903,366.668C32.96,366.829 33.024,367.013 33.094,367.221C33.168,367.429 33.249,367.668 33.336,367.94L33.552,368.624C33.475,367.95 33.416,367.373 33.376,366.894C33.336,366.415 33.316,366.013 33.316,365.687L33.316,363.943L35.317,363.943L35.317,371.706L33.316,371.706L32.26,368.85C32.149,368.545 32.049,368.26 31.958,367.995C31.871,367.727 31.794,367.472 31.727,367.231C31.77,367.777 31.802,368.253 31.822,368.659C31.843,369.065 31.853,369.42 31.853,369.725L31.853,371.706L29.851,371.706Z" style="fill:rgb(158,161,168);fill-rule:nonzero;"/>
            <path id="path4728" d="M39.887,371.706L37.791,371.706L37.791,368.418L35.865,363.943L38.052,363.943L38.429,365.094C38.503,365.319 38.568,365.535 38.625,365.743C38.686,365.951 38.739,366.15 38.786,366.341C38.863,366.056 38.93,365.811 38.987,365.607C39.044,365.399 39.095,365.232 39.138,365.104L39.52,363.943L41.692,363.943L39.887,368.418L39.887,371.706Z" style="fill:rgb(158,161,168);fill-rule:nonzero;"/>
            <path id="path4730" d="M41.894,371.515L41.894,369.076C42.306,369.639 42.752,369.921 43.231,369.921C43.412,369.921 43.56,369.874 43.673,369.78C43.787,369.683 43.844,369.562 43.844,369.418C43.844,369.21 43.72,369.008 43.472,368.81L43.13,368.543C42.902,368.372 42.708,368.203 42.547,368.035C42.386,367.865 42.256,367.69 42.155,367.513C42.054,367.332 41.981,367.146 41.934,366.954C41.887,366.763 41.863,366.562 41.863,366.351C41.863,365.989 41.947,365.61 42.115,365.215C42.199,365.03 42.296,364.863 42.406,364.712C42.517,364.558 42.644,364.422 42.789,364.305C43.184,363.969 43.662,363.802 44.222,363.802C44.721,363.802 45.224,363.934 45.73,364.199L45.73,366.572C45.559,366.308 45.365,366.1 45.147,365.949C44.929,365.795 44.714,365.718 44.503,365.718C44.342,365.718 44.21,365.765 44.106,365.858C43.999,365.949 43.945,366.058 43.945,366.185C43.945,366.393 44.087,366.599 44.372,366.804L44.704,367.05C45.147,367.368 45.463,367.695 45.655,368.03C45.849,368.366 45.946,368.758 45.946,369.207C45.946,369.971 45.713,370.601 45.247,371.098C44.781,371.594 44.191,371.842 43.477,371.842C42.985,371.842 42.457,371.733 41.894,371.515L41.894,371.515Z" style="fill:rgb(158,161,168);fill-rule:nonzero;"/>
            <path id="path4732" d="M49.576,371.706L47.48,371.706L47.48,365.803L46.323,365.803L46.323,363.943L50.778,363.943L50.778,365.803L49.576,365.803L49.576,371.706Z" style="fill:rgb(158,161,168);fill-rule:nonzero;"/>
            <path id="path4734" d="M56.525,371.706L54.428,371.706L54.428,368.584L53.428,368.584L53.428,371.706L51.331,371.706L51.331,363.943L53.428,363.943L53.428,366.688L54.428,366.688L54.428,363.943L56.525,363.943L56.525,371.706Z" style="fill:rgb(158,161,168);fill-rule:nonzero;"/>
            <rect id="path4736" x="57.606" y="363.943" width="2.097" height="7.763" style="fill:rgb(158,161,168);fill-rule:nonzero;"/>
        </g>
        <g id="text1790" transform="matrix(0.930159,0,0,1.07509,60,224.114)">
            <path id="path1841" d="M32.253,76.421L34.24,76.421C35.795,76.421 36.572,77.386 36.572,79.317C36.572,80.055 36.471,80.602 36.269,80.959C36.067,81.316 35.71,81.586 35.198,81.769C35.785,82.004 36.187,82.305 36.403,82.671C36.624,83.033 36.734,83.578 36.734,84.306C36.734,86.303 35.879,87.301 34.169,87.301L32.253,87.301L32.253,76.421ZM33.634,81.213C34.202,81.213 34.597,81.081 34.818,80.818C35.038,80.541 35.149,80.055 35.149,79.359C35.149,78.185 34.726,77.598 33.88,77.598L33.768,77.598L33.704,77.598C33.667,77.598 33.643,77.6 33.634,77.605L33.634,81.213ZM33.634,86.047C34.235,86.047 34.651,85.918 34.881,85.659C35.111,85.401 35.226,84.933 35.226,84.257C35.226,83.562 35.106,83.075 34.867,82.798C34.632,82.516 34.221,82.375 33.634,82.375L33.634,86.047Z" style="fill:rgb(158,161,168);fill-rule:nonzero;"/>
            <path id="path1843" d="M37.249,76.421L38.799,76.421L39.518,78.789C39.541,78.859 39.565,78.937 39.588,79.021C39.612,79.106 39.64,79.197 39.673,79.296C39.94,80.151 40.124,80.87 40.222,81.452C40.307,80.87 40.377,80.463 40.434,80.233L40.659,79.261L40.744,78.88L41.35,76.421L42.879,76.421L40.983,82.622L40.983,87.301L39.518,87.301L39.518,82.622L37.249,76.421Z" style="fill:rgb(158,161,168);fill-rule:nonzero;"/>
            <path id="path1845" d="M43.696,76.421L45.627,76.421C46.557,76.421 47.234,76.656 47.657,77.126C48.079,77.6 48.291,78.352 48.291,79.381C48.291,80.828 47.866,81.762 47.015,82.185C46.588,82.378 45.97,82.474 45.162,82.474L45.162,87.301L43.696,87.301L43.696,76.421ZM45.162,81.22C45.768,81.22 46.186,81.098 46.416,80.853C46.651,80.604 46.769,80.163 46.769,79.529C46.769,78.88 46.656,78.406 46.43,78.105C46.205,77.804 45.85,77.654 45.366,77.654L45.162,77.654L45.162,81.22Z" style="fill:rgb(158,161,168);fill-rule:nonzero;"/>
            <path id="path1847" d="M50.63,76.421L51.772,76.421L54.104,87.301L52.653,87.301L52.244,85.18L50.088,85.18L49.672,87.301L48.263,87.301L50.63,76.421ZM52.033,84.045L51.708,82.312C51.492,81.133 51.316,79.874 51.18,78.535C51.114,79.188 51.03,79.85 50.926,80.522C50.823,81.189 50.701,81.899 50.56,82.65L50.292,84.045L52.033,84.045Z" style="fill:rgb(158,161,168);fill-rule:nonzero;"/>
            <path id="path1849" d="M58.6,76.646L58.6,78.077C58.154,77.758 57.752,77.598 57.395,77.598C57.01,77.598 56.695,77.734 56.451,78.006C56.206,78.265 56.084,78.61 56.084,79.042C56.084,79.423 56.171,79.749 56.345,80.022C56.434,80.167 56.58,80.355 56.782,80.586C56.989,80.816 57.254,81.093 57.578,81.417C58.175,82.023 58.581,82.547 58.797,82.988C59.013,83.416 59.121,83.94 59.121,84.56C59.121,85.401 58.884,86.094 58.41,86.639C57.935,87.169 57.327,87.435 56.585,87.435C55.96,87.435 55.427,87.263 54.985,86.921L54.985,85.469C55.506,85.849 55.981,86.04 56.408,86.04C56.808,86.04 57.12,85.908 57.346,85.645C57.571,85.377 57.684,85.016 57.684,84.56C57.684,84.165 57.597,83.811 57.423,83.496C57.334,83.346 57.209,83.174 57.05,82.981C56.89,82.784 56.69,82.566 56.451,82.326C56.08,81.96 55.772,81.636 55.528,81.354C55.283,81.072 55.103,80.825 54.985,80.614C54.76,80.2 54.647,79.679 54.647,79.049C54.647,78.199 54.868,77.525 55.309,77.027C55.756,76.524 56.354,76.273 57.106,76.273C57.628,76.273 58.126,76.398 58.6,76.647L58.6,76.646Z" style="fill:rgb(158,161,168);fill-rule:nonzero;"/>
            <path id="path1851" d="M63.984,76.646L63.984,78.077C63.537,77.758 63.136,77.598 62.779,77.598C62.393,77.598 62.079,77.734 61.834,78.006C61.59,78.265 61.468,78.61 61.468,79.042C61.468,79.423 61.555,79.749 61.729,80.022C61.818,80.167 61.964,80.355 62.166,80.586C62.372,80.816 62.638,81.093 62.962,81.417C63.558,82.023 63.965,82.547 64.181,82.988C64.397,83.416 64.505,83.94 64.505,84.56C64.505,85.401 64.268,86.094 63.793,86.639C63.319,87.169 62.711,87.435 61.968,87.435C61.343,87.435 60.81,87.263 60.369,86.921L60.369,85.469C60.89,85.849 61.365,86.04 61.792,86.04C62.191,86.04 62.504,85.908 62.729,85.645C62.955,85.377 63.068,85.016 63.068,84.56C63.068,84.165 62.981,83.811 62.807,83.496C62.718,83.346 62.593,83.174 62.433,82.981C62.274,82.784 62.074,82.566 61.834,82.326C61.463,81.96 61.156,81.636 60.911,81.354C60.667,81.072 60.486,80.825 60.369,80.614C60.143,80.2 60.03,79.679 60.03,79.049C60.03,78.199 60.251,77.525 60.693,77.027C61.139,76.524 61.738,76.273 62.49,76.273C63.011,76.273 63.509,76.398 63.984,76.647L63.984,76.646Z" style="fill:rgb(158,161,168);fill-rule:nonzero;"/>
        </g>
        <g id="text1406" transform="matrix(0.909373,0,0,1.09966,-1.80532e-05,127.971)">
            <path id="path1414" d="M28.428,92.393L31.902,92.393L31.902,92.945C31.902,95.708 31.66,97.574 31.176,98.542C30.698,99.535 29.804,100.031 28.492,100.031C27.138,100.031 26.173,99.48 25.597,98.377C25.027,97.274 24.742,95.42 24.742,92.816C24.742,89.838 25.055,87.856 25.68,86.869C26.268,85.944 27.172,85.481 28.391,85.481C29.323,85.481 30.049,85.705 30.57,86.152C31.097,86.606 31.507,87.35 31.801,88.386L30.018,89.13C29.939,88.756 29.85,88.444 29.752,88.193C29.654,87.935 29.546,87.736 29.43,87.595C29.197,87.307 28.848,87.163 28.382,87.163C27.745,87.163 27.31,87.555 27.077,88.34C26.844,89.161 26.728,90.634 26.728,92.761C26.728,94.911 26.847,96.367 27.086,97.127C27.325,97.886 27.775,98.266 28.437,98.266C29.044,98.266 29.47,97.997 29.715,97.457C29.966,96.881 30.092,95.956 30.092,94.682L30.092,94.296L30.092,94.011L28.428,94.011L28.428,92.393Z" style="fill:rgb(158,161,168);fill-rule:nonzero;"/>
            <path id="path1416" d="M35.836,85.665L37.325,85.665L40.368,99.856L38.474,99.856L37.941,97.09L35.129,97.09L34.586,99.856L32.748,99.856L35.836,85.665ZM37.665,95.61L37.243,93.349C36.961,91.811 36.731,90.169 36.553,88.422C36.467,89.274 36.357,90.138 36.222,91.014C36.088,91.884 35.928,92.81 35.744,93.79L35.395,95.61L37.665,95.61Z" style="fill:rgb(158,161,168);fill-rule:nonzero;"/>
            <rect id="path1418" x="41.498" y="85.665" width="1.912" height="14.192" style="fill:rgb(158,161,168);fill-rule:nonzero;"/>
            <path id="path1420" d="M45.616,85.665L47.399,85.665L49.302,91.327C49.853,92.926 50.34,94.633 50.763,96.446C50.61,95.35 50.497,94.357 50.423,93.468C50.35,92.58 50.313,91.743 50.313,90.959L50.313,85.665L52.234,85.665L52.234,99.856L50.441,99.856L48.3,93.468C48.104,92.874 47.917,92.264 47.739,91.639C47.568,91.014 47.408,90.359 47.261,89.672C47.249,89.587 47.227,89.482 47.197,89.36C47.172,89.237 47.142,89.096 47.105,88.937C47.123,89.096 47.139,89.234 47.151,89.351C47.163,89.461 47.172,89.556 47.179,89.636L47.28,91.079L47.381,92.834C47.387,92.932 47.39,93.052 47.39,93.193C47.396,93.334 47.399,93.493 47.399,93.671L47.5,99.856L45.616,99.856L45.616,85.665Z" style="fill:rgb(158,161,168);fill-rule:nonzero;"/>
        </g>
        <rect id="rect1408" x="2" y="150" width="66" height="60" style="fill:rgb(158,161,168);"/>
        <rect id="rect1412" x="142" y="150" width="66" height="60" style="fill:rgb(158,161,168);"/>
        <rect id="rect1458" x="2" y="30" width="50" height="50" style="fill:rgb(158,161,168);"/>
        <rect id="rect1460" x="54" y="30" width="50" height="50" style="fill:rgb(158,161,168);"/>
        <rect id="rect1462" x="106" y="30" width="50" height="50" style="fill:rgb(158,161,168);"/>
        <rect id="rect1464" x="158" y="30" width="50" height="50" style="fill:rgb(158,161,168);"/>
        <g id="text979">
            <path id="path982" d="M45.495,17.408L45.495,12.987C46.243,14.008 47.051,14.518 47.92,14.518C48.248,14.518 48.515,14.433 48.722,14.263C48.929,14.087 49.032,13.868 49.032,13.607C49.032,13.23 48.807,12.862 48.357,12.504L47.738,12.021C47.324,11.711 46.972,11.404 46.68,11.1C46.389,10.79 46.152,10.474 45.969,10.152C45.787,9.824 45.653,9.487 45.568,9.141C45.483,8.794 45.441,8.43 45.441,8.047C45.441,7.391 45.593,6.704 45.896,5.987C46.048,5.653 46.225,5.349 46.425,5.076C46.626,4.796 46.857,4.55 47.118,4.337C47.835,3.73 48.701,3.426 49.716,3.426C50.621,3.426 51.532,3.666 52.45,4.146L52.45,8.448C52.14,7.968 51.788,7.591 51.393,7.318C50.998,7.038 50.609,6.898 50.226,6.898C49.934,6.898 49.694,6.984 49.506,7.154C49.311,7.318 49.214,7.515 49.214,7.746C49.214,8.123 49.472,8.497 49.989,8.867L50.59,9.314C51.393,9.891 51.967,10.484 52.313,11.091C52.666,11.699 52.842,12.41 52.842,13.224C52.842,14.609 52.419,15.752 51.575,16.651C50.73,17.55 49.661,18 48.367,18C47.473,18 46.516,17.803 45.495,17.408Z" style="fill:rgb(158,161,168);fill-rule:nonzero;"/>
            <path id="path984" d="M68.811,17.754L64.837,17.754L64.554,11.337L64.436,8.776C64.393,9.268 64.344,9.739 64.29,10.189C64.235,10.632 64.168,11.064 64.089,11.483L62.895,17.754L59.796,17.754L58.775,11.474C58.715,11.109 58.633,10.484 58.529,9.596C58.517,9.463 58.49,9.189 58.447,8.776L58.356,11.374L58.019,17.754L53.972,17.754L55.613,3.681L60.343,3.681L61.136,8.421C61.203,8.809 61.261,9.232 61.309,9.687C61.364,10.143 61.413,10.638 61.455,11.173C61.534,10.28 61.643,9.481 61.783,8.776L62.749,3.681L67.443,3.681L68.811,17.754Z" style="fill:rgb(158,161,168);fill-rule:nonzero;"/>
            <path id="path986" d="M80.65,17.754L76.722,17.754L76.439,15.967L73.878,15.967L73.568,17.754L69.64,17.754L73.021,3.681L77.67,3.681L80.65,17.754ZM75.993,12.951L75.747,11.31C75.741,11.304 75.729,11.222 75.71,11.064C75.698,10.93 75.635,10.401 75.519,9.478C75.507,9.375 75.492,9.235 75.473,9.059C75.455,8.876 75.431,8.648 75.401,8.375L75.282,7.044C75.27,7.172 75.252,7.315 75.227,7.473C75.209,7.631 75.188,7.804 75.164,7.992C75.121,8.369 75.091,8.63 75.072,8.776C75.054,8.922 75.042,9.01 75.036,9.04L74.772,10.745L74.389,12.951L75.993,12.951Z" style="fill:rgb(158,161,168);fill-rule:nonzero;"/>
            <path id="path988" d="M81.443,17.408L81.443,12.987C82.191,14.008 82.999,14.518 83.868,14.518C84.196,14.518 84.463,14.433 84.67,14.263C84.877,14.087 84.98,13.868 84.98,13.607C84.98,13.23 84.755,12.862 84.305,12.504L83.686,12.021C83.272,11.711 82.92,11.404 82.628,11.1C82.337,10.79 82.1,10.474 81.917,10.152C81.735,9.824 81.601,9.487 81.516,9.141C81.431,8.794 81.389,8.43 81.389,8.047C81.389,7.391 81.541,6.704 81.844,5.987C81.996,5.653 82.173,5.349 82.373,5.076C82.574,4.796 82.804,4.55 83.066,4.337C83.783,3.73 84.649,3.426 85.663,3.426C86.569,3.426 87.48,3.666 88.398,4.146L88.398,8.448C88.088,7.968 87.735,7.591 87.341,7.318C86.946,7.038 86.557,6.898 86.174,6.898C85.882,6.898 85.642,6.984 85.454,7.154C85.259,7.318 85.162,7.515 85.162,7.746C85.162,8.123 85.42,8.497 85.937,8.867L86.538,9.314C87.341,9.891 87.915,10.484 88.261,11.091C88.614,11.699 88.79,12.41 88.79,13.224C88.79,14.609 88.367,15.752 87.523,16.651C86.678,17.55 85.609,18 84.314,18C83.421,18 82.464,17.803 81.443,17.408Z" style="fill:rgb(158,161,168);fill-rule:nonzero;"/>
            <path id="path990" d="M99.691,17.754L95.89,17.754L95.89,12.094L94.076,12.094L94.076,17.754L90.275,17.754L90.275,3.681L94.076,3.681L94.076,8.658L95.89,8.658L95.89,3.681L99.691,3.681L99.691,17.754Z" style="fill:rgb(158,161,168);fill-rule:nonzero;"/>
            <path id="path992" d="M116.133,17.754L112.16,17.754L111.877,11.337L111.758,8.776C111.716,9.268 111.667,9.739 111.613,10.189C111.558,10.632 111.491,11.064 111.412,11.483L110.218,17.754L107.119,17.754L106.098,11.474C106.038,11.109 105.956,10.484 105.852,9.596C105.84,9.463 105.813,9.189 105.77,8.776L105.679,11.374L105.342,17.754L101.295,17.754L102.936,3.681L107.666,3.681L108.459,8.421C108.526,8.809 108.584,9.232 108.632,9.687C108.687,10.143 108.735,10.638 108.778,11.173C108.857,10.28 108.966,9.481 109.106,8.776L110.072,3.681L114.766,3.681L116.133,17.754Z" style="fill:rgb(158,161,168);fill-rule:nonzero;"/>
            <path id="path994" d="M127.973,17.754L124.045,17.754L123.762,15.967L121.201,15.967L120.891,17.754L116.963,17.754L120.344,3.681L124.993,3.681L127.973,17.754ZM123.316,12.951L123.07,11.31C123.064,11.304 123.052,11.222 123.033,11.064C123.021,10.93 122.957,10.401 122.842,9.478C122.83,9.375 122.815,9.235 122.796,9.059C122.778,8.876 122.754,8.648 122.724,8.375L122.605,7.044C122.593,7.172 122.575,7.315 122.55,7.473C122.532,7.631 122.511,7.804 122.487,7.992C122.444,8.369 122.414,8.63 122.395,8.776C122.377,8.922 122.365,9.01 122.359,9.04L122.095,10.745L121.712,12.951L123.316,12.951Z" style="fill:rgb(158,161,168);fill-rule:nonzero;"/>
            <path id="path996" d="M128.766,17.408L128.766,12.987C129.514,14.008 130.322,14.518 131.191,14.518C131.519,14.518 131.786,14.433 131.993,14.263C132.199,14.087 132.303,13.868 132.303,13.607C132.303,13.23 132.078,12.862 131.628,12.504L131.008,12.021C130.595,11.711 130.243,11.404 129.951,11.1C129.66,10.79 129.423,10.474 129.24,10.152C129.058,9.824 128.924,9.487 128.839,9.141C128.754,8.794 128.712,8.43 128.712,8.047C128.712,7.391 128.864,6.704 129.167,5.987C129.319,5.653 129.495,5.349 129.696,5.076C129.896,4.796 130.127,4.55 130.389,4.337C131.106,3.73 131.972,3.426 132.986,3.426C133.892,3.426 134.803,3.666 135.721,4.146L135.721,8.448C135.411,7.968 135.058,7.591 134.663,7.318C134.268,7.038 133.88,6.898 133.497,6.898C133.205,6.898 132.965,6.984 132.777,7.154C132.582,7.318 132.485,7.515 132.485,7.746C132.485,8.123 132.743,8.497 133.26,8.867L133.861,9.314C134.663,9.891 135.238,10.484 135.584,11.091C135.936,11.699 136.113,12.41 136.113,13.224C136.113,14.609 135.69,15.752 134.846,16.651C134.001,17.55 132.932,18 131.637,18C130.744,18 129.787,17.803 128.766,17.408Z" style="fill:rgb(158,161,168);fill-rule:nonzero;"/>
            <path id="path998" d="M142.693,17.754L138.893,17.754L138.893,7.053L136.796,7.053L136.796,3.681L144.872,3.681L144.872,7.053L142.693,7.053L142.693,17.754Z" style="fill:rgb(158,161,168);fill-rule:nonzero;"/>
            <path id="path1000" d="M145.874,17.754L145.874,3.681L152.938,3.681L152.938,6.99L149.675,6.99L149.675,9.04L152.601,9.04L152.601,12.221L149.675,12.221L149.675,14.372L152.938,14.372L152.938,17.754L145.874,17.754Z" style="fill:rgb(158,161,168);fill-rule:nonzero;"/>
            <path id="path1002" d="M164.559,17.754L160.449,17.754L158.571,12.741C158.553,12.656 158.519,12.543 158.471,12.404C158.428,12.264 158.373,12.097 158.307,11.902L158.334,12.832L158.334,17.754L154.551,17.754L154.551,3.681L158.443,3.681C160.157,3.681 161.439,4.018 162.29,4.693C163.371,5.556 163.912,6.783 163.912,8.375C163.912,10.076 163.186,11.252 161.734,11.902L164.559,17.754ZM158.352,10.198L158.607,10.198C159.045,10.198 159.409,10.031 159.701,9.697C159.993,9.362 160.139,8.937 160.139,8.421C160.139,7.369 159.589,6.844 158.489,6.844L158.352,6.844L158.352,10.198Z" style="fill:rgb(158,161,168);fill-rule:nonzero;"/>
        </g>
        <g id="text1007" transform="matrix(0.862622,0,0,1.15926,0,0)">
            <path id="path1066" d="M19.707,82.972L21.857,82.972C23.54,82.972 24.381,84.016 24.381,86.105C24.381,86.903 24.272,87.495 24.053,87.882C23.835,88.268 23.448,88.56 22.894,88.759C23.53,89.013 23.964,89.338 24.198,89.734C24.437,90.126 24.556,90.715 24.556,91.503C24.556,93.663 23.631,94.744 21.781,94.744L19.707,94.744L19.707,82.972ZM21.202,88.156C21.817,88.156 22.244,88.014 22.483,87.729C22.721,87.429 22.841,86.903 22.841,86.151C22.841,84.88 22.383,84.245 21.469,84.245L21.347,84.245L21.278,84.245C21.237,84.245 21.212,84.248 21.202,84.253L21.202,88.156ZM21.202,93.386C21.852,93.386 22.302,93.247 22.551,92.967C22.8,92.688 22.925,92.182 22.925,91.45C22.925,90.698 22.795,90.172 22.536,89.872C22.282,89.567 21.837,89.414 21.202,89.414L21.202,93.386Z" style="fill:rgb(158,161,168);fill-rule:nonzero;"/>
            <path id="path1068" d="M27.88,82.972L29.116,82.972L31.639,94.744L30.069,94.744L29.626,92.449L27.293,92.449L26.844,94.744L25.319,94.744L27.88,82.972ZM29.398,91.221L29.047,89.346C28.813,88.07 28.623,86.708 28.475,85.259C28.404,85.966 28.313,86.682 28.201,87.409C28.089,88.131 27.957,88.898 27.804,89.712L27.515,91.221L29.398,91.221Z" style="fill:rgb(158,161,168);fill-rule:nonzero;"/>
            <path id="path1070" d="M36.503,83.216L36.503,84.763C36.021,84.418 35.586,84.245 35.2,84.245C34.783,84.245 34.442,84.392 34.178,84.687C33.914,84.967 33.782,85.34 33.782,85.808C33.782,86.22 33.876,86.573 34.064,86.868C34.16,87.025 34.318,87.229 34.536,87.478C34.76,87.727 35.047,88.027 35.398,88.377C36.043,89.033 36.483,89.6 36.717,90.078C36.951,90.54 37.068,91.107 37.068,91.778C37.068,92.688 36.811,93.437 36.298,94.027C35.784,94.601 35.126,94.888 34.323,94.888C33.647,94.888 33.07,94.703 32.592,94.332L32.592,92.761C33.156,93.173 33.67,93.379 34.132,93.379C34.564,93.379 34.902,93.236 35.146,92.952C35.39,92.662 35.512,92.271 35.512,91.778C35.512,91.351 35.418,90.967 35.23,90.626C35.134,90.464 34.999,90.278 34.826,90.07C34.653,89.856 34.437,89.62 34.178,89.361C33.777,88.964 33.444,88.614 33.179,88.309C32.915,88.004 32.719,87.737 32.592,87.508C32.348,87.061 32.226,86.497 32.226,85.816C32.226,84.896 32.465,84.166 32.943,83.627C33.426,83.084 34.074,82.812 34.887,82.812C35.451,82.812 35.99,82.946 36.503,83.216Z" style="fill:rgb(158,161,168);fill-rule:nonzero;"/>
            <path id="path1072" d="M42.328,83.216L42.328,84.763C41.845,84.418 41.411,84.245 41.025,84.245C40.608,84.245 40.267,84.392 40.003,84.687C39.739,84.967 39.606,85.34 39.606,85.808C39.606,86.22 39.701,86.573 39.889,86.868C39.985,87.025 40.143,87.229 40.361,87.478C40.585,87.727 40.872,88.027 41.223,88.377C41.868,89.033 42.308,89.6 42.542,90.078C42.776,90.54 42.893,91.107 42.893,91.778C42.893,92.688 42.636,93.437 42.122,94.027C41.609,94.601 40.951,94.888 40.148,94.888C39.472,94.888 38.895,94.703 38.417,94.332L38.417,92.761C38.981,93.173 39.495,93.379 39.957,93.379C40.389,93.379 40.727,93.236 40.971,92.952C41.215,92.662 41.337,92.271 41.337,91.778C41.337,91.351 41.243,90.967 41.055,90.626C40.958,90.464 40.824,90.278 40.651,90.07C40.478,89.856 40.262,89.62 40.003,89.361C39.601,88.964 39.268,88.614 39.004,88.309C38.74,88.004 38.544,87.737 38.417,87.508C38.173,87.061 38.051,86.497 38.051,85.816C38.051,84.896 38.29,84.166 38.768,83.627C39.251,83.084 39.899,82.812 40.712,82.812C41.276,82.812 41.815,82.946 42.328,83.216L42.328,83.216Z" style="fill:rgb(158,161,168);fill-rule:nonzero;"/>
        </g>
        <g id="text1011" transform="matrix(0.808839,0,0,1.23634,0,0)">
            <path id="path1051" d="M80.589,77.977L80.589,79.314C80.207,79.128 79.888,79.035 79.631,79.035C79.278,79.035 78.975,79.124 78.723,79.3C78.47,79.471 78.261,79.738 78.094,80.101C77.932,80.463 77.81,80.923 77.729,81.48C77.653,82.033 77.615,82.688 77.615,83.446C77.615,86.172 78.313,87.535 79.709,87.535C79.952,87.535 80.246,87.459 80.589,87.307L80.589,88.672C80.231,88.872 79.831,88.972 79.388,88.972C77.153,88.972 76.035,87.147 76.035,83.496C76.035,81.523 76.307,80.055 76.85,79.093C77.398,78.13 78.234,77.649 79.359,77.649C79.774,77.649 80.184,77.758 80.589,77.977L80.589,77.977Z" style="fill:rgb(158,161,168);fill-rule:nonzero;"/>
            <path id="path1053" d="M87.273,83.589C87.273,85.539 87.056,86.923 86.622,87.743C86.189,88.562 85.462,88.972 84.442,88.972C83.37,88.972 82.614,88.531 82.176,87.65C81.742,86.787 81.525,85.255 81.525,83.053C81.525,81.09 81.74,79.7 82.169,78.885C82.602,78.066 83.336,77.656 84.37,77.656C85.295,77.656 85.981,77.973 86.429,78.607C86.725,79.031 86.939,79.634 87.073,80.415C87.206,81.14 87.273,82.198 87.273,83.589L87.273,83.589ZM85.714,83.747C85.714,81.835 85.629,80.568 85.457,79.943C85.285,79.314 84.935,79 84.406,79C83.877,79 83.524,79.288 83.348,79.865C83.177,80.446 83.091,81.614 83.091,83.368C83.091,84.983 83.181,86.103 83.362,86.728C83.548,87.319 83.896,87.614 84.406,87.614C84.907,87.614 85.25,87.338 85.436,86.785C85.622,86.237 85.714,85.224 85.714,83.747L85.714,83.747Z" style="fill:rgb(158,161,168);fill-rule:nonzero;"/>
            <path id="path1055" d="M88.753,77.799L90.14,77.799L91.619,82.202C92.048,83.446 92.427,84.774 92.756,86.184C92.637,85.331 92.549,84.559 92.492,83.868C92.434,83.177 92.406,82.526 92.406,81.916L92.406,77.799L93.9,77.799L93.9,88.836L92.506,88.836L90.84,83.868C90.688,83.406 90.542,82.932 90.404,82.445C90.271,81.959 90.147,81.449 90.032,80.916C90.023,80.849 90.006,80.768 89.982,80.673C89.963,80.577 89.939,80.468 89.911,80.344C89.925,80.468 89.937,80.575 89.947,80.665C89.956,80.751 89.963,80.825 89.968,80.887L90.047,82.009L90.126,83.375C90.13,83.451 90.133,83.544 90.133,83.654C90.137,83.763 90.14,83.887 90.14,84.025L90.219,88.837L88.753,88.837L88.753,77.799Z" style="fill:rgb(158,161,168);fill-rule:nonzero;"/>
            <path id="path1057" d="M94.736,77.799L99.576,77.799L99.576,79.1L97.91,79.1L97.91,88.836L96.452,88.836L96.452,79.1L94.736,79.1L94.736,77.799Z" style="fill:rgb(158,161,168);fill-rule:nonzero;"/>
            <path id="path1059" d="M106.031,83.589C106.031,85.539 105.815,86.923 105.381,87.743C104.947,88.562 104.22,88.972 103.2,88.972C102.128,88.972 101.373,88.531 100.934,87.65C100.501,86.787 100.284,85.255 100.284,83.053C100.284,81.09 100.498,79.7 100.927,78.885C101.361,78.066 102.095,77.656 103.129,77.656C104.054,77.656 104.74,77.973 105.188,78.607C105.483,79.031 105.698,79.634 105.831,80.415C105.965,81.14 106.031,82.198 106.031,83.589L106.031,83.589ZM104.473,83.747C104.473,81.835 104.387,80.568 104.216,79.943C104.044,79.314 103.694,79 103.165,79C102.636,79 102.283,79.288 102.107,79.865C101.935,80.446 101.849,81.614 101.849,83.368C101.849,84.983 101.94,86.103 102.121,86.728C102.307,87.319 102.655,87.614 103.165,87.614C103.665,87.614 104.008,87.338 104.194,86.785C104.38,86.237 104.473,85.224 104.473,83.747L104.473,83.747Z" style="fill:rgb(158,161,168);fill-rule:nonzero;"/>
            <path id="path1061" d="M107.511,77.799L108.97,77.799L108.97,85.598C108.97,86.394 109.041,86.923 109.184,87.185C109.332,87.447 109.622,87.578 110.056,87.578C110.49,87.578 110.776,87.464 110.914,87.235C111.057,87.002 111.128,86.527 111.128,85.813L111.128,77.799L112.587,77.799L112.587,85.813C112.587,87.014 112.403,87.826 112.036,88.25C111.598,88.732 110.928,88.972 110.028,88.972C109.036,88.972 108.338,88.663 107.933,88.043C107.652,87.619 107.511,86.804 107.511,85.598L107.511,77.799Z" style="fill:rgb(158,161,168);fill-rule:nonzero;"/>
            <path id="path1063" d="M114.288,77.799L116.247,77.799C117.057,77.799 117.66,77.992 118.056,78.378C118.556,78.878 118.806,79.643 118.806,80.673C118.806,81.464 118.673,82.1 118.406,82.581C118.144,83.058 117.767,83.353 117.276,83.468L119.307,88.836L117.798,88.836L115.775,83.432L115.775,88.836L114.288,88.836L114.288,77.799ZM115.775,82.689C116.352,82.689 116.759,82.555 116.998,82.288C117.236,82.021 117.355,81.571 117.355,80.937C117.355,80.594 117.329,80.301 117.276,80.058C117.229,79.815 117.15,79.617 117.041,79.464C116.936,79.312 116.797,79.2 116.626,79.128C116.459,79.057 116.259,79.021 116.025,79.021L115.775,79.021L115.775,82.689Z" style="fill:rgb(158,161,168);fill-rule:nonzero;"/>
        </g>
        <g id="text1015" transform="matrix(0.808839,0,0,1.23634,0,0)">
            <path id="path1038" d="M145.961,77.649L150.801,77.649L150.801,78.95L149.135,78.95L149.135,88.686L147.677,88.686L147.677,78.95L145.961,78.95L145.961,77.649Z" style="fill:rgb(158,161,168);fill-rule:nonzero;"/>
            <path id="path1040" d="M151.616,77.649L153.575,77.649C154.385,77.649 154.988,77.842 155.384,78.228C155.884,78.728 156.134,79.493 156.134,80.522C156.134,81.314 156.001,81.95 155.734,82.431C155.472,82.908 155.095,83.203 154.604,83.318L156.635,88.686L155.126,88.686L153.103,83.282L153.103,88.686L151.616,88.686L151.616,77.649ZM153.103,82.538C153.68,82.538 154.087,82.405 154.326,82.138C154.564,81.871 154.683,81.421 154.683,80.787C154.683,80.444 154.657,80.151 154.604,79.908C154.557,79.665 154.478,79.467 154.368,79.314C154.264,79.162 154.125,79.05 153.954,78.978C153.787,78.907 153.587,78.871 153.353,78.871L153.103,78.871L153.103,82.538Z" style="fill:rgb(158,161,168);fill-rule:nonzero;"/>
            <path id="path1042" d="M157.793,77.649L161.746,77.649L161.746,78.907L159.28,78.907L159.28,82.403L161.467,82.403L161.467,83.661L159.28,83.661L159.28,87.428L161.746,87.428L161.746,88.686L157.793,88.686L157.793,77.649Z" style="fill:rgb(158,161,168);fill-rule:nonzero;"/>
            <path id="path1044" d="M163.111,77.649L165.127,77.649C166.705,77.649 167.494,78.628 167.494,80.587C167.494,81.335 167.391,81.89 167.186,82.252C166.981,82.615 166.619,82.889 166.1,83.075C166.695,83.313 167.103,83.618 167.322,83.99C167.546,84.357 167.658,84.909 167.658,85.648C167.658,87.674 166.791,88.686 165.056,88.686L163.111,88.686L163.111,77.649ZM164.513,82.51C165.089,82.51 165.49,82.376 165.714,82.109C165.938,81.828 166.05,81.335 166.05,80.63C166.05,79.438 165.621,78.842 164.763,78.842L164.648,78.842L164.584,78.842C164.546,78.842 164.522,78.845 164.513,78.85L164.513,82.51ZM164.513,87.414C165.123,87.414 165.544,87.283 165.778,87.021C166.011,86.759 166.128,86.284 166.128,85.598C166.128,84.893 166.007,84.399 165.764,84.118C165.525,83.832 165.108,83.689 164.513,83.689L164.513,87.414Z" style="fill:rgb(158,161,168);fill-rule:nonzero;"/>
            <path id="path1046" d="M169.145,77.649L170.632,77.649L170.632,87.428L173.063,87.428L173.063,88.686L169.145,88.686L169.145,77.649Z" style="fill:rgb(158,161,168);fill-rule:nonzero;"/>
            <path id="path1048" d="M174.006,77.649L177.96,77.649L177.96,78.907L175.493,78.907L175.493,82.403L177.681,82.403L177.681,83.661L175.493,83.661L175.493,87.428L177.96,87.428L177.96,88.686L174.006,88.686L174.006,77.649Z" style="fill:rgb(158,161,168);fill-rule:nonzero;"/>
        </g>
        <g id="text1019" transform="matrix(0.808839,0,0,1.23634,0,0)">
            <path id="path1029" d="M215.72,77.649L217.207,77.649L217.207,81.966L219.387,81.966L219.387,77.649L220.874,77.649L220.874,88.686L219.387,88.686L219.387,83.225L217.207,83.225L217.207,88.686L215.72,88.686L215.72,77.649Z" style="fill:rgb(158,161,168);fill-rule:nonzero;"/>
            <path id="path1031" d="M224.156,77.649L225.314,77.649L227.68,88.686L226.207,88.686L225.793,86.535L223.605,86.535L223.183,88.686L221.753,88.686L224.156,77.649ZM225.578,85.384L225.249,83.625C225.03,82.429 224.851,81.152 224.713,79.793C224.646,80.456 224.561,81.128 224.456,81.809C224.351,82.486 224.227,83.206 224.084,83.968L223.812,85.384L225.578,85.384Z" style="fill:rgb(158,161,168);fill-rule:nonzero;"/>
            <rect id="path1033" x="228.559" y="77.649" width="1.487" height="11.038" style="fill:rgb(158,161,168);fill-rule:nonzero;"/>
            <path id="path1035" d="M231.762,77.649L233.721,77.649C234.531,77.649 235.134,77.842 235.529,78.228C236.03,78.728 236.28,79.493 236.28,80.522C236.28,81.314 236.146,81.95 235.88,82.431C235.617,82.908 235.241,83.203 234.75,83.318L236.78,88.686L235.272,88.686L233.249,83.282L233.249,88.686L231.762,88.686L231.762,77.649ZM233.249,82.538C233.825,82.538 234.233,82.405 234.471,82.138C234.71,81.871 234.829,81.421 234.829,80.787C234.829,80.444 234.802,80.151 234.75,79.908C234.702,79.665 234.624,79.467 234.514,79.314C234.409,79.162 234.271,79.05 234.099,78.978C233.933,78.907 233.733,78.871 233.499,78.871L233.249,78.871L233.249,82.538Z" style="fill:rgb(158,161,168);fill-rule:nonzero;"/>
        </g>
        <g id="g1110" transform="matrix(1,0,0,1,165.278,9.26866)">
            <g id="text1023">
            </g>
            <g id="text1027">
            </g>
        </g>
    </g>
</svg>
