<?xml version="1.0" encoding="UTF-8" standalone="no"?>
<!DOCTYPE svg PUBLIC "-//W3C//DTD SVG 1.1//EN" "http://www.w3.org/Graphics/SVG/1.1/DTD/svg11.dtd">
<svg width="100%" height="100%" viewBox="0 0 120 380" version="1.1" xmlns="http://www.w3.org/2000/svg" xmlns:xlink="http://www.w3.org/1999/xlink" xml:space="preserve" xmlns:serif="http://www.serif.com/" style="fill-rule:evenodd;clip-rule:evenodd;stroke-linejoin:round;stroke-miterlimit:2;">
    <g id="Layer-2" serif:id="Layer 2">
        <g id="text989">
        </g>
        <rect id="rect4689" x="-0.689" y="0" width="120" height="380" style="fill:rgb(44,45,48);fill-rule:nonzero;"/>
        <g id="text80" transform="matrix(1.00498,0,0,0.995047,14.3112,4.99997)">
            <path id="path4726" d="M29.851,371.706L29.851,363.943L31.853,363.943L32.903,366.668C32.96,366.829 33.024,367.013 33.094,367.221C33.168,367.429 33.249,367.668 33.336,367.94L33.552,368.624C33.475,367.95 33.416,367.373 33.376,366.894C33.336,366.415 33.316,366.013 33.316,365.687L33.316,363.943L35.317,363.943L35.317,371.706L33.316,371.706L32.26,368.85C32.149,368.545 32.049,368.26 31.958,367.995C31.871,367.727 31.794,367.472 31.727,367.231C31.77,367.777 31.802,368.253 31.822,368.659C31.843,369.065 31.853,369.42 31.853,369.725L31.853,371.706L29.851,371.706Z" style="fill:rgb(158,161,168);fill-rule:nonzero;"/>
            <path id="path4728" d="M39.887,371.706L37.791,371.706L37.791,368.418L35.865,363.943L38.052,363.943L38.429,365.094C38.503,365.319 38.568,365.535 38.625,365.743C38.686,365.951 38.739,366.15 38.786,366.341C38.863,366.056 38.93,365.811 38.987,365.607C39.044,365.399 39.095,365.232 39.138,365.104L39.52,363.943L41.692,363.943L39.887,368.418L39.887,371.706Z" style="fill:rgb(158,161,168);fill-rule:nonzero;"/>
            <path id="path4730" d="M41.894,371.515L41.894,369.076C42.306,369.639 42.752,369.921 43.231,369.921C43.412,369.921 43.56,369.874 43.673,369.78C43.787,369.683 43.844,369.562 43.844,369.418C43.844,369.21 43.72,369.008 43.472,368.81L43.13,368.543C42.902,368.372 42.708,368.203 42.547,368.035C42.386,367.865 42.256,367.69 42.155,367.513C42.054,367.332 41.981,367.146 41.934,366.954C41.887,366.763 41.863,366.562 41.863,366.351C41.863,365.989 41.947,365.61 42.115,365.215C42.199,365.03 42.296,364.863 42.406,364.712C42.517,364.558 42.644,364.422 42.789,364.305C43.184,363.969 43.662,363.802 44.222,363.802C44.721,363.802 45.224,363.934 45.73,364.199L45.73,366.572C45.559,366.308 45.365,366.1 45.147,365.949C44.929,365.795 44.714,365.718 44.503,365.718C44.342,365.718 44.21,365.765 44.106,365.858C43.999,365.949 43.945,366.058 43.945,366.185C43.945,366.393 44.087,366.599 44.372,366.804L44.704,367.05C45.147,367.368 45.463,367.695 45.655,368.03C45.849,368.366 45.946,368.758 45.946,369.207C45.946,369.971 45.713,370.601 45.247,371.098C44.781,371.594 44.191,371.842 43.477,371.842C42.985,371.842 42.457,371.733 41.894,371.515L41.894,371.515Z" style="fill:rgb(158,161,168);fill-rule:nonzero;"/>
            <path id="path4732" d="M49.576,371.706L47.48,371.706L47.48,365.803L46.323,365.803L46.323,363.943L50.778,363.943L50.778,365.803L49.576,365.803L49.576,371.706Z" style="fill:rgb(158,161,168);fill-rule:nonzero;"/>
            <path id="path4734" d="M56.525,371.706L54.428,371.706L54.428,368.584L53.428,368.584L53.428,371.706L51.331,371.706L51.331,363.943L53.428,363.943L53.428,366.688L54.428,366.688L54.428,363.943L56.525,363.943L56.525,371.706Z" style="fill:rgb(158,161,168);fill-rule:nonzero;"/>
            <rect id="path4736" x="57.606" y="363.943" width="2.097" height="7.763" style="fill:rgb(158,161,168);fill-rule:nonzero;"/>
        </g>
        <g id="text4987">
        </g>
        <g id="text1042">
        </g>
        <g id="text1781" transform="matrix(1,0,0,1,0,2.40102)">
            <path id="path1923" d="M19.802,17.625L19.802,18.682C19.472,18.446 19.175,18.328 18.911,18.328C18.627,18.328 18.394,18.429 18.214,18.63C18.033,18.821 17.943,19.076 17.943,19.396C17.943,19.677 18.007,19.918 18.135,20.12C18.201,20.227 18.309,20.366 18.458,20.536C18.611,20.707 18.807,20.911 19.047,21.151C19.488,21.599 19.788,21.986 19.948,22.313C20.108,22.628 20.187,23.016 20.187,23.474C20.187,24.096 20.012,24.608 19.661,25.01C19.311,25.403 18.861,25.599 18.312,25.599C17.851,25.599 17.457,25.472 17.13,25.219L17.13,24.146C17.516,24.427 17.866,24.568 18.182,24.568C18.477,24.568 18.708,24.471 18.875,24.276C19.042,24.078 19.125,23.811 19.125,23.474C19.125,23.182 19.061,22.92 18.932,22.688C18.866,22.576 18.774,22.45 18.656,22.307C18.538,22.161 18.391,22 18.214,21.823C17.939,21.552 17.712,21.313 17.531,21.104C17.351,20.896 17.217,20.714 17.13,20.557C16.964,20.252 16.88,19.866 16.88,19.401C16.88,18.773 17.043,18.274 17.37,17.906C17.7,17.535 18.142,17.349 18.698,17.349C19.083,17.349 19.451,17.441 19.802,17.625Z" style="fill:rgb(158,161,168);fill-rule:nonzero;"/>
            <path id="path1925" d="M24.255,17.589L24.255,18.563C23.977,18.427 23.745,18.359 23.557,18.359C23.3,18.359 23.08,18.424 22.896,18.552C22.712,18.677 22.559,18.872 22.437,19.135C22.319,19.399 22.231,19.734 22.172,20.141C22.116,20.543 22.089,21.021 22.089,21.573C22.089,23.559 22.597,24.552 23.615,24.552C23.792,24.552 24.005,24.497 24.255,24.385L24.255,25.38C23.995,25.526 23.703,25.599 23.38,25.599C21.752,25.599 20.937,24.269 20.937,21.609C20.937,20.172 21.135,19.102 21.531,18.401C21.931,17.7 22.54,17.349 23.359,17.349C23.661,17.349 23.96,17.429 24.255,17.589L24.255,17.589Z" style="fill:rgb(158,161,168);fill-rule:nonzero;"/>
            <path id="path1927" d="M26.599,17.458L27.443,17.458L29.167,25.5L28.094,25.5L27.792,23.932L26.198,23.932L25.891,25.5L24.849,25.5L26.599,17.458ZM27.635,23.094L27.396,21.813C27.236,20.941 27.106,20.01 27.005,19.021C26.957,19.503 26.894,19.993 26.818,20.49C26.741,20.983 26.651,21.507 26.547,22.063L26.349,23.094L27.635,23.094Z" style="fill:rgb(158,161,168);fill-rule:nonzero;"/>
            <path id="path1929" d="M29.807,17.458L30.891,17.458L30.891,24.583L32.661,24.583L32.661,25.5L29.807,25.5L29.807,17.458Z" style="fill:rgb(158,161,168);fill-rule:nonzero;"/>
            <path id="path1931" d="M33.349,17.458L36.229,17.458L36.229,18.375L34.432,18.375L34.432,20.922L36.026,20.922L36.026,21.839L34.432,21.839L34.432,24.583L36.229,24.583L36.229,25.5L33.349,25.5L33.349,17.458Z" style="fill:rgb(158,161,168);fill-rule:nonzero;"/>
            <path id="path1934" d="M37.224,17.458L38.651,17.458C39.241,17.458 39.681,17.599 39.969,17.88C40.333,18.245 40.516,18.802 40.516,19.552C40.516,20.128 40.418,20.592 40.224,20.943C40.033,21.29 39.759,21.505 39.401,21.589L40.88,25.5L39.781,25.5L38.307,21.563L38.307,25.5L37.224,25.5L37.224,17.458ZM38.307,21.021C38.727,21.021 39.024,20.924 39.198,20.729C39.372,20.535 39.458,20.207 39.458,19.745C39.458,19.495 39.439,19.281 39.401,19.104C39.366,18.927 39.309,18.783 39.229,18.672C39.153,18.561 39.052,18.479 38.927,18.427C38.806,18.375 38.66,18.349 38.49,18.349L38.307,18.349L38.307,21.021Z" style="fill:rgb(158,161,168);fill-rule:nonzero;"/>
            <rect id="path1936" x="43.312" y="22.333" width="1.896" height="0.812" style="fill:rgb(158,161,168);fill-rule:nonzero;"/>
            <path id="path1939" d="M52.062,21.677C52.062,23.097 51.905,24.106 51.589,24.703C51.273,25.3 50.743,25.599 50,25.599C49.219,25.599 48.668,25.278 48.349,24.635C48.033,24.007 47.875,22.891 47.875,21.286C47.875,19.856 48.031,18.844 48.344,18.25C48.66,17.653 49.194,17.354 49.948,17.354C50.622,17.354 51.122,17.585 51.448,18.047C51.663,18.356 51.819,18.795 51.917,19.365C52.014,19.892 52.062,20.663 52.062,21.677L52.062,21.677ZM50.927,21.792C50.927,20.399 50.865,19.476 50.74,19.021C50.615,18.563 50.359,18.333 49.974,18.333C49.589,18.333 49.332,18.543 49.203,18.964C49.078,19.387 49.016,20.238 49.016,21.516C49.016,22.693 49.082,23.509 49.214,23.964C49.349,24.394 49.602,24.609 49.974,24.609C50.339,24.609 50.589,24.408 50.724,24.005C50.859,23.606 50.927,22.868 50.927,21.792Z" style="fill:rgb(158,161,168);fill-rule:nonzero;"/>
            <path id="path1941" d="M53.141,17.458L56.036,17.458L56.036,18.375L54.224,18.375L54.224,20.917L55.859,20.917L55.859,21.833L54.224,21.833L54.224,25.5L53.141,25.5L53.141,17.458Z" style="fill:rgb(158,161,168);fill-rule:nonzero;"/>
            <path id="path1943" d="M56.87,17.458L59.766,17.458L59.766,18.375L57.953,18.375L57.953,20.917L59.589,20.917L59.589,21.833L57.953,21.833L57.953,25.5L56.87,25.5L56.87,17.458Z" style="fill:rgb(158,161,168);fill-rule:nonzero;"/>
            <path id="path1945" d="M63.281,17.625L63.281,18.682C62.951,18.446 62.655,18.328 62.391,18.328C62.106,18.328 61.873,18.429 61.693,18.63C61.512,18.821 61.422,19.076 61.422,19.396C61.422,19.677 61.486,19.918 61.615,20.12C61.681,20.227 61.788,20.366 61.937,20.536C62.09,20.707 62.286,20.911 62.526,21.151C62.967,21.599 63.267,21.986 63.427,22.313C63.587,22.628 63.667,23.016 63.667,23.474C63.667,24.096 63.491,24.608 63.141,25.01C62.79,25.403 62.34,25.599 61.792,25.599C61.33,25.599 60.936,25.472 60.609,25.219L60.609,24.146C60.995,24.427 61.345,24.568 61.661,24.568C61.957,24.568 62.188,24.471 62.354,24.276C62.521,24.078 62.604,23.811 62.604,23.474C62.604,23.182 62.54,22.92 62.411,22.688C62.346,22.576 62.253,22.45 62.135,22.307C62.017,22.161 61.87,22 61.693,21.823C61.418,21.552 61.191,21.313 61.01,21.104C60.83,20.896 60.696,20.714 60.609,20.557C60.443,20.252 60.359,19.866 60.359,19.401C60.359,18.773 60.523,18.274 60.849,17.906C61.179,17.535 61.622,17.349 62.177,17.349C62.562,17.349 62.931,17.441 63.281,17.625L63.281,17.625Z" style="fill:rgb(158,161,168);fill-rule:nonzero;"/>
            <path id="path1947" d="M64.578,17.458L67.458,17.458L67.458,18.375L65.661,18.375L65.661,20.922L67.255,20.922L67.255,21.839L65.661,21.839L65.661,24.583L67.458,24.583L67.458,25.5L64.578,25.5L64.578,17.458Z" style="fill:rgb(158,161,168);fill-rule:nonzero;"/>
            <path id="path1949" d="M67.812,17.458L71.339,17.458L71.339,18.406L70.125,18.406L70.125,25.5L69.062,25.5L69.062,18.406L67.812,18.406L67.812,17.458Z" style="fill:rgb(158,161,168);fill-rule:nonzero;"/>
            <path id="path1951" d="M71.292,17.458L74.818,17.458L74.818,18.406L73.604,18.406L73.604,25.5L72.542,25.5L72.542,18.406L71.292,18.406L71.292,17.458Z" style="fill:rgb(158,161,168);fill-rule:nonzero;"/>
            <path id="path1953" d="M75.411,17.458L78.292,17.458L78.292,18.375L76.495,18.375L76.495,20.922L78.089,20.922L78.089,21.839L76.495,21.839L76.495,24.583L78.292,24.583L78.292,25.5L75.411,25.5L75.411,17.458Z" style="fill:rgb(158,161,168);fill-rule:nonzero;"/>
            <path id="path1955" d="M79.286,17.458L80.714,17.458C81.304,17.458 81.743,17.599 82.031,17.88C82.396,18.245 82.578,18.802 82.578,19.552C82.578,20.128 82.481,20.592 82.286,20.943C82.095,21.29 81.821,21.505 81.464,21.589L82.943,25.5L81.844,25.5L80.37,21.563L80.37,25.5L79.286,25.5L79.286,17.458ZM80.37,21.021C80.79,21.021 81.087,20.924 81.26,20.729C81.434,20.535 81.521,20.207 81.521,19.745C81.521,19.495 81.502,19.281 81.464,19.104C81.429,18.927 81.371,18.783 81.292,18.672C81.215,18.561 81.115,18.479 80.99,18.427C80.868,18.375 80.722,18.349 80.552,18.349L80.37,18.349L80.37,21.021Z" style="fill:rgb(158,161,168);fill-rule:nonzero;"/>
            <path id="path1957" d="M86.328,17.458L88.161,17.458L88.161,25.5L87.125,25.5L87.125,18.38L86.328,18.38L86.328,17.458Z" style="fill:rgb(158,161,168);fill-rule:nonzero;"/>
            <path id="path1959" d="M96.552,22.411L97.24,22.958L96.38,24.156L97.24,25.5L96.052,25.5L95.672,24.875C95.276,25.323 94.816,25.547 94.292,25.547C93.802,25.547 93.377,25.356 93.016,24.974C92.661,24.589 92.484,24.128 92.484,23.594C92.484,23.233 92.568,22.892 92.734,22.573C92.901,22.25 93.191,21.877 93.604,21.453C93.174,20.773 92.958,20.135 92.958,19.542C92.958,19.101 93.104,18.736 93.396,18.448C93.691,18.163 94.066,18.021 94.521,18.021C94.979,18.021 95.345,18.153 95.62,18.417C95.898,18.684 96.036,19.031 96.036,19.458C96.036,19.823 95.951,20.153 95.781,20.448C95.701,20.594 95.583,20.764 95.427,20.958C95.271,21.149 95.073,21.365 94.833,21.604L95.896,23.344L96.552,22.411ZM94.391,20.802C94.54,20.646 94.665,20.509 94.766,20.391C94.866,20.269 94.943,20.163 94.995,20.073C95.102,19.892 95.156,19.696 95.156,19.484C95.156,19.286 95.104,19.13 95,19.016C94.896,18.898 94.759,18.839 94.589,18.839C94.411,18.839 94.259,18.908 94.13,19.047C94.005,19.182 93.943,19.344 93.943,19.531C93.943,19.799 94.092,20.222 94.391,20.802L94.391,20.802ZM94.104,22.281C93.701,22.726 93.5,23.142 93.5,23.531C93.5,23.844 93.589,24.106 93.766,24.318C93.943,24.533 94.156,24.641 94.406,24.641C94.684,24.641 94.957,24.471 95.224,24.13L94.104,22.281Z" style="fill:rgb(158,161,168);fill-rule:nonzero;"/>
            <path id="path1961" d="M101.26,20.073L100.198,20.073L100.187,19.755C100.187,18.877 100.319,18.259 100.583,17.901C100.851,17.54 101.298,17.359 101.927,17.359C103.111,17.359 103.703,18.016 103.703,19.328C103.703,20.214 103.26,21.49 102.375,23.156L101.734,24.359C101.731,24.366 101.72,24.387 101.703,24.422C101.685,24.457 101.661,24.507 101.63,24.573L103.62,24.573L103.62,25.5L100.088,25.5C100.147,25.368 100.271,25.106 100.458,24.714C100.646,24.321 100.901,23.792 101.224,23.125C101.498,22.542 101.727,22.047 101.911,21.641C102.095,21.234 102.234,20.901 102.328,20.641C102.515,20.12 102.609,19.67 102.609,19.292C102.609,18.625 102.378,18.292 101.916,18.292C101.472,18.292 101.25,18.705 101.25,19.531L101.255,19.99L101.26,20.073Z" style="fill:rgb(158,161,168);fill-rule:nonzero;"/>
        </g>
        <g id="text1815" transform="matrix(1,0,0,1,6,-2)">
            <path id="path1896" d="M34.349,34.719L34.349,35.651C34.106,35.47 33.851,35.38 33.583,35.38C33.493,35.38 33.41,35.396 33.333,35.427C33.257,35.458 33.189,35.502 33.13,35.557C33.075,35.609 33.03,35.674 32.995,35.75C32.964,35.823 32.948,35.901 32.948,35.984C32.948,36.241 33.181,36.547 33.646,36.901C33.833,37.047 33.99,37.182 34.115,37.307C34.24,37.432 34.335,37.55 34.401,37.661C34.536,37.88 34.604,38.156 34.604,38.49C34.604,38.972 34.464,39.359 34.182,39.651C33.905,39.939 33.531,40.083 33.063,40.083C32.774,40.083 32.483,39.998 32.188,39.828L32.188,38.865C32.476,39.08 32.748,39.188 33.005,39.188C33.46,39.188 33.688,38.964 33.688,38.516C33.688,38.349 33.646,38.205 33.563,38.083C33.524,38.024 33.464,37.957 33.38,37.88C33.297,37.8 33.194,37.712 33.073,37.615C32.653,37.288 32.368,37.014 32.219,36.792C32.073,36.562 32,36.286 32,35.964C32,35.53 32.134,35.174 32.401,34.896C32.672,34.622 33.024,34.484 33.458,34.484C33.764,34.484 34.061,34.562 34.349,34.719L34.349,34.719Z" style="fill:rgb(158,161,168);fill-rule:nonzero;"/>
            <path id="path1898" d="M37.615,34.714L37.615,35.729C37.476,35.559 37.309,35.474 37.115,35.474C36.566,35.474 36.292,36.068 36.292,37.255C36.292,38.516 36.564,39.146 37.109,39.146C37.262,39.146 37.431,39.078 37.615,38.943L37.615,39.875C37.351,40.014 37.083,40.083 36.813,40.083C35.743,40.083 35.208,39.174 35.208,37.354C35.208,36.385 35.34,35.672 35.604,35.214C35.868,34.752 36.278,34.521 36.833,34.521C37.101,34.521 37.361,34.585 37.615,34.714L37.615,34.714Z" style="fill:rgb(158,161,168);fill-rule:nonzero;"/>
            <path id="path1903" d="M41.531,34.609L41.531,40L40.536,40L40.536,39.307C40.394,39.602 40.252,39.806 40.109,39.917C39.967,40.028 39.78,40.083 39.547,40.083C39.099,40.083 38.771,39.854 38.563,39.396C38.354,38.938 38.25,38.219 38.25,37.24C38.25,36.306 38.354,35.62 38.563,35.182C38.771,34.741 39.099,34.521 39.547,34.521C39.957,34.521 40.286,34.753 40.536,35.219L40.536,34.609L41.531,34.609ZM39.281,37.281C39.281,37.99 39.328,38.484 39.422,38.766C39.519,39.047 39.689,39.187 39.932,39.187C40.155,39.187 40.316,39.042 40.417,38.75C40.517,38.437 40.568,37.957 40.568,37.307C40.568,36.655 40.517,36.172 40.417,35.859C40.316,35.568 40.155,35.422 39.932,35.422C39.696,35.422 39.528,35.561 39.427,35.839C39.33,36.095 39.281,36.576 39.281,37.281L39.281,37.281Z" style="fill:rgb(158,161,168);fill-rule:nonzero;"/>
            <rect id="path1910" x="42.661" y="31.151" width="0.995" height="8.849" style="fill:rgb(158,161,168);fill-rule:nonzero;"/>
            <path id="path1912" d="M46.87,38.182L47.797,38.182C47.724,39.45 47.203,40.083 46.234,40.083C45.946,40.083 45.698,40.03 45.49,39.922C45.285,39.814 45.115,39.648 44.979,39.422C44.844,39.196 44.743,38.91 44.677,38.562C44.615,38.215 44.583,37.802 44.583,37.323C44.583,36.372 44.715,35.667 44.979,35.208C45.246,34.75 45.658,34.521 46.214,34.521C47.293,34.521 47.833,35.472 47.833,37.375L47.833,37.5L45.557,37.5C45.557,38.653 45.786,39.229 46.245,39.229C46.661,39.229 46.87,38.88 46.87,38.182ZM46.818,36.781C46.776,36.215 46.712,35.844 46.625,35.667C46.535,35.469 46.389,35.37 46.187,35.37C45.983,35.37 45.837,35.469 45.75,35.667C45.663,35.844 45.599,36.215 45.557,36.781L46.818,36.781Z" style="fill:rgb(158,161,168);fill-rule:nonzero;"/>
        </g>
        <g id="text1819" transform="matrix(1,0,0,1,5,-2)">
            <path id="path1868" d="M63.385,37.349C63.385,39.172 62.821,40.083 61.693,40.083C60.564,40.083 60,39.158 60,37.307C60,35.45 60.563,34.521 61.688,34.521C61.979,34.521 62.231,34.576 62.443,34.687C62.658,34.799 62.835,34.97 62.974,35.203C63.113,35.436 63.215,35.729 63.281,36.083C63.351,36.437 63.385,36.859 63.385,37.349L63.385,37.349ZM62.354,37.323C62.354,36.615 62.307,36.122 62.214,35.844C62.12,35.562 61.953,35.422 61.714,35.422C61.477,35.422 61.309,35.561 61.208,35.839C61.115,36.116 61.068,36.601 61.068,37.292C61.068,37.983 61.115,38.465 61.208,38.74C61.309,39.017 61.477,39.156 61.714,39.156C61.95,39.156 62.115,39.019 62.208,38.745C62.306,38.488 62.354,38.014 62.354,37.323L62.354,37.323Z" style="fill:rgb(158,161,168);fill-rule:nonzero;"/>
            <path id="path1870" d="M63.927,34.609L64.427,34.609L64.427,32.729C64.427,32.115 64.517,31.681 64.698,31.427C64.878,31.174 65.193,31.047 65.641,31.047C65.835,31.047 66.061,31.094 66.318,31.187L66.318,32.24C66.158,32.153 66.017,32.109 65.896,32.109C65.726,32.109 65.604,32.16 65.531,32.26C65.462,32.361 65.427,32.531 65.427,32.771L65.422,33.177L65.422,34.609L66.266,34.609L66.266,35.401L65.422,35.401L65.422,40L64.427,40L64.427,35.401L63.927,35.401L63.927,34.609Z" style="fill:rgb(158,161,168);fill-rule:nonzero;"/>
            <path id="path1872" d="M66.781,34.609L67.281,34.609L67.281,32.729C67.281,32.115 67.372,31.681 67.552,31.427C67.733,31.174 68.047,31.047 68.495,31.047C68.689,31.047 68.915,31.094 69.172,31.187L69.172,32.24C69.012,32.153 68.872,32.109 68.75,32.109C68.58,32.109 68.458,32.16 68.385,32.26C68.316,32.361 68.281,32.531 68.281,32.771L68.276,33.177L68.276,34.609L69.12,34.609L69.12,35.401L68.276,35.401L68.276,40L67.281,40L67.281,35.401L66.781,35.401L66.781,34.609Z" style="fill:rgb(158,161,168);fill-rule:nonzero;"/>
            <path id="path1874" d="M72.016,34.719L72.016,35.651C71.773,35.47 71.517,35.38 71.25,35.38C71.16,35.38 71.076,35.396 71,35.427C70.924,35.458 70.856,35.502 70.797,35.557C70.741,35.609 70.696,35.674 70.661,35.75C70.63,35.823 70.615,35.901 70.615,35.984C70.615,36.241 70.847,36.547 71.313,36.901C71.5,37.047 71.656,37.182 71.781,37.307C71.906,37.432 72.002,37.55 72.068,37.661C72.203,37.88 72.271,38.156 72.271,38.49C72.271,38.972 72.13,39.359 71.849,39.651C71.571,39.939 71.198,40.083 70.729,40.083C70.441,40.083 70.149,39.998 69.854,39.828L69.854,38.865C70.142,39.08 70.415,39.188 70.672,39.188C71.127,39.188 71.354,38.964 71.354,38.516C71.354,38.349 71.312,38.205 71.229,38.083C71.191,38.024 71.13,37.957 71.047,37.88C70.964,37.8 70.861,37.712 70.74,37.615C70.319,37.288 70.035,37.014 69.885,36.792C69.74,36.563 69.667,36.286 69.667,35.964C69.667,35.53 69.8,35.174 70.068,34.896C70.339,34.622 70.691,34.484 71.125,34.484C71.431,34.484 71.727,34.563 72.016,34.719L72.016,34.719Z" style="fill:rgb(158,161,168);fill-rule:nonzero;"/>
            <path id="path1879" d="M75.161,38.182L76.089,38.182C76.016,39.45 75.495,40.083 74.526,40.083C74.238,40.083 73.99,40.03 73.781,39.922C73.576,39.814 73.406,39.648 73.271,39.422C73.135,39.196 73.035,38.91 72.969,38.562C72.906,38.215 72.875,37.802 72.875,37.323C72.875,36.372 73.007,35.667 73.271,35.208C73.538,34.75 73.95,34.521 74.505,34.521C75.585,34.521 76.125,35.472 76.125,37.375L76.125,37.5L73.849,37.5C73.849,38.653 74.078,39.229 74.536,39.229C74.953,39.229 75.161,38.88 75.161,38.182L75.161,38.182ZM75.109,36.781C75.068,36.215 75.003,35.844 74.917,35.667C74.826,35.469 74.681,35.37 74.479,35.37C74.274,35.37 74.128,35.469 74.042,35.667C73.955,35.844 73.891,36.215 73.849,36.781L75.109,36.781Z" style="fill:rgb(158,161,168);fill-rule:nonzero;"/>
            <path id="path1893" d="M77.135,33.099L78.13,33.099L78.13,34.609L78.672,34.609L78.672,35.401L78.13,35.401L78.13,40L77.135,40L77.135,35.401L76.589,35.401L76.589,34.609L77.135,34.609L77.135,33.099Z" style="fill:rgb(158,161,168);fill-rule:nonzero;"/>
        </g>
        <g id="text1823" transform="matrix(1,0,0,1,5,-2)">
            <path id="path1854" d="M10.214,34.609L11.214,34.609L11.214,40L10.214,40L10.214,34.609ZM10.682,32.318C10.863,32.318 11.019,32.384 11.151,32.516C11.283,32.648 11.349,32.806 11.349,32.99C11.349,33.177 11.283,33.337 11.151,33.469C11.019,33.601 10.859,33.667 10.672,33.667C10.484,33.667 10.325,33.601 10.193,33.469C10.064,33.34 10,33.179 10,32.984C10,32.804 10.066,32.648 10.198,32.516C10.34,32.384 10.502,32.318 10.682,32.318Z" style="fill:rgb(158,161,168);fill-rule:nonzero;"/>
            <path id="path1863" d="M12.339,34.609L13.333,34.609L13.333,35.229C13.618,34.757 13.986,34.521 14.438,34.521C14.875,34.521 15.188,34.693 15.375,35.036C15.479,35.231 15.531,35.608 15.531,36.167L15.531,40L14.536,40L14.531,36.396C14.531,36.031 14.488,35.773 14.401,35.62C14.314,35.467 14.165,35.391 13.953,35.391C13.839,35.391 13.741,35.411 13.661,35.453C13.585,35.491 13.523,35.556 13.474,35.646C13.425,35.733 13.389,35.847 13.365,35.99C13.344,36.132 13.333,36.307 13.333,36.516L13.333,40L12.339,40L12.339,34.609Z" style="fill:rgb(158,161,168);fill-rule:nonzero;"/>
        </g>
        <g id="text1827" transform="matrix(1,0,0,1,4,-2)">
            <path id="path1845" d="M96.385,37.349C96.385,39.172 95.821,40.083 94.693,40.083C93.564,40.083 93,39.158 93,37.307C93,35.45 93.562,34.521 94.688,34.521C94.979,34.521 95.231,34.576 95.443,34.687C95.658,34.799 95.835,34.97 95.974,35.203C96.113,35.436 96.215,35.729 96.281,36.083C96.351,36.437 96.385,36.859 96.385,37.349L96.385,37.349ZM95.354,37.323C95.354,36.615 95.307,36.122 95.214,35.844C95.12,35.562 94.953,35.422 94.714,35.422C94.477,35.422 94.309,35.561 94.208,35.839C94.115,36.116 94.068,36.601 94.068,37.292C94.068,37.983 94.115,38.465 94.208,38.74C94.309,39.017 94.477,39.156 94.714,39.156C94.95,39.156 95.115,39.019 95.208,38.745C95.306,38.488 95.354,38.014 95.354,37.323L95.354,37.323Z" style="fill:rgb(158,161,168);fill-rule:nonzero;"/>
            <path id="path1847" d="M97.307,34.609L98.302,34.609L98.302,38.214C98.309,38.547 98.358,38.785 98.448,38.927C98.542,39.069 98.696,39.141 98.911,39.141C99.137,39.141 99.295,39.078 99.385,38.953C99.476,38.821 99.521,38.592 99.521,38.266L99.521,37.833L99.521,34.609L100.516,34.609L100.516,37.833C100.516,38.587 100.46,39.09 100.349,39.344C100.116,39.837 99.634,40.083 98.901,40.083C98.325,40.083 97.915,39.937 97.672,39.646C97.429,39.351 97.307,38.859 97.307,38.172L97.307,34.609Z" style="fill:rgb(158,161,168);fill-rule:nonzero;"/>
            <path id="path1850" d="M101.76,33.099L102.755,33.099L102.755,34.609L103.297,34.609L103.297,35.401L102.755,35.401L102.755,40L101.76,40L101.76,35.401L101.214,35.401L101.214,34.609L101.76,34.609L101.76,33.099Z" style="fill:rgb(158,161,168);fill-rule:nonzero;"/>
        </g>
        <g id="text1989" transform="matrix(1,0,0,1,0,6.99998)">
            <path id="path1995" d="M20.677,67.63L20.677,68.646C20.538,68.476 20.372,68.391 20.177,68.391C19.628,68.391 19.354,68.984 19.354,70.172C19.354,71.432 19.627,72.063 20.172,72.063C20.325,72.063 20.493,71.995 20.677,71.859L20.677,72.792C20.413,72.931 20.146,73 19.875,73C18.806,73 18.271,72.09 18.271,70.271C18.271,69.302 18.403,68.589 18.667,68.13C18.931,67.668 19.34,67.438 19.896,67.438C20.163,67.438 20.424,67.502 20.677,67.63L20.677,67.63Z" style="fill:rgb(158,161,168);fill-rule:nonzero;"/>
            <path id="path1997" d="M20.995,67.526L22.062,67.526L22.453,69.234C22.533,69.582 22.601,69.95 22.656,70.339C22.712,70.724 22.757,71.146 22.792,71.604C22.813,71.497 22.823,71.434 22.823,71.417L22.943,70.615C22.988,70.309 23.076,69.849 23.208,69.234L23.568,67.526L24.531,67.526L23.125,72.917L22.453,72.917L20.995,67.526Z" style="fill:rgb(158,161,168);fill-rule:nonzero;"/>
        </g>
        <g id="text2002">
            <path id="path2046" d="M25.749,17.492L25.749,13.703C26.389,14.578 27.082,15.016 27.827,15.016C28.108,15.016 28.337,14.943 28.514,14.797C28.691,14.646 28.78,14.458 28.78,14.234C28.78,13.911 28.587,13.596 28.202,13.289L27.671,12.875C27.316,12.609 27.014,12.346 26.764,12.086C26.514,11.82 26.311,11.549 26.155,11.273C25.999,10.992 25.884,10.703 25.811,10.406C25.738,10.109 25.702,9.797 25.702,9.469C25.702,8.906 25.832,8.318 26.092,7.703C26.223,7.417 26.374,7.156 26.546,6.922C26.717,6.682 26.915,6.471 27.139,6.289C27.754,5.768 28.496,5.508 29.366,5.508C30.142,5.508 30.923,5.714 31.71,6.125L31.71,9.812C31.444,9.401 31.142,9.078 30.803,8.844C30.465,8.604 30.132,8.484 29.803,8.484C29.553,8.484 29.348,8.557 29.186,8.703C29.02,8.844 28.936,9.013 28.936,9.211C28.936,9.534 29.158,9.854 29.6,10.172L30.116,10.555C30.803,11.049 31.296,11.557 31.592,12.078C31.895,12.599 32.046,13.208 32.046,13.906C32.046,15.094 31.684,16.073 30.96,16.844C30.236,17.615 29.319,18 28.21,18C27.444,18 26.624,17.831 25.749,17.492Z" style="fill:rgb(158,161,168);fill-rule:nonzero;"/>
            <path id="path2050" d="M42.186,11.797C42.186,13.635 41.767,15.13 40.928,16.281C40.095,17.427 39.009,18 37.671,18C36.483,18 35.465,17.56 34.616,16.68C33.548,15.565 33.014,13.893 33.014,11.664C33.014,9.529 33.572,7.896 34.686,6.766C35.514,5.927 36.496,5.508 37.632,5.508C39.022,5.508 40.129,6.076 40.952,7.211C41.775,8.346 42.186,9.875 42.186,11.797ZM38.803,11.82C38.803,9.638 38.418,8.547 37.647,8.547C37.262,8.547 36.954,8.833 36.725,9.406C36.501,9.937 36.389,10.719 36.389,11.75C36.389,12.766 36.493,13.555 36.702,14.117C36.915,14.674 37.21,14.953 37.585,14.953C37.97,14.953 38.267,14.677 38.475,14.125C38.694,13.573 38.803,12.805 38.803,11.82L38.803,11.82Z" style="fill:rgb(158,161,168);fill-rule:nonzero;"/>
            <path id="path2058" d="M48.491,5.727L51.749,5.727L51.749,14.258C51.749,14.971 51.637,15.549 51.413,15.992C51.194,16.456 50.829,16.875 50.319,17.25C49.632,17.75 48.796,18 47.811,18C46.697,18 45.762,17.724 45.007,17.172C44.048,16.469 43.569,15.344 43.569,13.797L43.569,5.727L46.827,5.727L46.827,13.508C46.827,14.034 46.889,14.406 47.014,14.625C47.145,14.844 47.361,14.953 47.663,14.953C47.975,14.953 48.191,14.852 48.311,14.648C48.431,14.435 48.491,14.057 48.491,13.516L48.491,5.727Z" style="fill:rgb(158,161,168);fill-rule:nonzero;"/>
            <path id="path2060" d="M63.178,5.727L66.436,5.727L66.436,14.258C66.436,14.971 66.324,15.549 66.1,15.992C65.882,16.456 65.517,16.875 65.007,17.25C64.319,17.75 63.483,18 62.499,18C61.384,18 60.449,17.724 59.694,17.172C58.736,16.469 58.257,15.344 58.257,13.797L58.257,5.727L61.514,5.727L61.514,13.508C61.514,14.034 61.577,14.406 61.702,14.625C61.832,14.844 62.048,14.953 62.35,14.953C62.663,14.953 62.879,14.852 62.999,14.648C63.118,14.435 63.178,14.057 63.178,13.516L63.178,5.727Z" style="fill:rgb(158,161,168);fill-rule:nonzero;"/>
            <path id="path2063" d="M72.342,17.789L69.085,17.789L69.085,8.617L67.288,8.617L67.288,5.727L74.21,5.727L74.21,8.617L72.342,8.617L72.342,17.789Z" style="fill:rgb(158,161,168);fill-rule:nonzero;"/>
            <rect id="path2066" x="75.069" y="5.727" width="3.258" height="12.063" style="fill:rgb(158,161,168);fill-rule:nonzero;"/>
            <path id="path2068" d="M85.71,17.789L80.007,17.789L80.007,5.727L83.264,5.727L83.264,14.891L85.71,14.891L85.71,17.789Z" style="fill:rgb(158,161,168);fill-rule:nonzero;"/>
            <path id="path2070" d="M86.624,17.492L86.624,13.703C87.264,14.578 87.957,15.016 88.702,15.016C88.983,15.016 89.212,14.943 89.389,14.797C89.566,14.646 89.655,14.458 89.655,14.234C89.655,13.911 89.462,13.596 89.077,13.289L88.546,12.875C88.191,12.609 87.889,12.346 87.639,12.086C87.389,11.82 87.186,11.549 87.03,11.273C86.874,10.992 86.759,10.703 86.686,10.406C86.613,10.109 86.577,9.797 86.577,9.469C86.577,8.906 86.707,8.318 86.967,7.703C87.098,7.417 87.249,7.156 87.421,6.922C87.592,6.682 87.79,6.471 88.014,6.289C88.629,5.768 89.371,5.508 90.241,5.508C91.017,5.508 91.798,5.714 92.585,6.125L92.585,9.812C92.319,9.401 92.017,9.078 91.678,8.844C91.34,8.604 91.007,8.484 90.678,8.484C90.428,8.484 90.223,8.557 90.061,8.703C89.895,8.844 89.811,9.013 89.811,9.211C89.811,9.534 90.033,9.854 90.475,10.172L90.991,10.555C91.678,11.049 92.171,11.557 92.467,12.078C92.77,12.599 92.921,13.208 92.921,13.906C92.921,15.094 92.559,16.073 91.835,16.844C91.111,17.615 90.194,18 89.085,18C88.319,18 87.499,17.831 86.624,17.492L86.624,17.492Z" style="fill:rgb(158,161,168);fill-rule:nonzero;"/>
        </g>
        <g id="text2023" transform="matrix(1.10578,0,0,0.90434,4,5.00002)">
            <rect id="path2051" x="25.322" y="61.984" width="1.288" height="0.552" style="fill:rgb(158,161,168);fill-rule:nonzero;"/>
            <path id="path2053" d="M27.677,60.449L26.956,60.449L26.949,60.233C26.949,59.637 27.038,59.217 27.218,58.974C27.399,58.729 27.703,58.606 28.13,58.606C28.934,58.606 29.336,59.052 29.336,59.943C29.336,60.545 29.036,61.411 28.434,62.543L27.999,63.36C27.997,63.365 27.99,63.379 27.978,63.403C27.966,63.427 27.95,63.461 27.929,63.506L29.28,63.506L29.28,64.135L26.881,64.135C26.922,64.046 27.005,63.868 27.133,63.601C27.26,63.335 27.433,62.975 27.653,62.522C27.839,62.126 27.995,61.79 28.12,61.514C28.245,61.238 28.339,61.012 28.403,60.835C28.53,60.481 28.594,60.176 28.594,59.919C28.594,59.466 28.437,59.239 28.123,59.239C27.821,59.239 27.67,59.52 27.67,60.081L27.674,60.393L27.677,60.449Z" style="fill:rgb(158,161,168);fill-rule:nonzero;"/>
            <path id="path2055" d="M43.33,61.645L43.33,61.04L44.303,61.04L44.303,60.081L44.915,60.081L44.915,61.04L45.884,61.04L45.884,61.645L44.915,61.645L44.915,62.611L44.303,62.611L44.303,61.645L43.33,61.645Z" style="fill:rgb(158,161,168);fill-rule:nonzero;"/>
            <path id="path2057" d="M47.175,60.449L46.454,60.449L46.447,60.233C46.447,59.637 46.536,59.217 46.715,58.974C46.897,58.729 47.201,58.606 47.628,58.606C48.432,58.606 48.834,59.052 48.834,59.943C48.834,60.545 48.534,61.411 47.932,62.543L47.497,63.36C47.495,63.365 47.488,63.379 47.476,63.403C47.464,63.427 47.448,63.461 47.426,63.506L48.778,63.506L48.778,64.135L46.379,64.135C46.419,64.046 46.503,63.868 46.631,63.601C46.758,63.335 46.931,62.975 47.151,62.522C47.337,62.126 47.492,61.79 47.617,61.514C47.742,61.238 47.837,61.012 47.9,60.835C48.028,60.481 48.091,60.176 48.091,59.919C48.091,59.466 47.935,59.239 47.621,59.239C47.319,59.239 47.168,59.52 47.168,60.081L47.172,60.393L47.175,60.449Z" style="fill:rgb(158,161,168);fill-rule:nonzero;"/>
        </g>
        <g id="text2027" transform="matrix(1.06202,0,0,0.9416,0.999997,4.94308)">
            <rect id="path2037" x="56.496" y="59.555" width="1.223" height="0.524" style="fill:rgb(158,161,168);fill-rule:nonzero;"/>
            <path id="path2039" d="M58.333,56.411L59.515,56.411L59.515,61.597L58.847,61.597L58.847,57.006L58.333,57.006L58.333,56.411Z" style="fill:rgb(158,161,168);fill-rule:nonzero;"/>
            <path id="path2041" d="M62.814,59.045C62.814,59.976 62.724,60.648 62.545,61.06C62.368,61.458 62.067,61.658 61.642,61.658C61.216,61.658 60.914,61.457 60.735,61.057C60.558,60.667 60.469,59.983 60.469,59.004C60.469,58.026 60.558,57.342 60.735,56.952C60.912,56.549 61.213,56.348 61.638,56.348C62.032,56.348 62.323,56.525 62.511,56.878C62.713,57.252 62.814,57.974 62.814,59.045L62.814,59.045ZM62.102,59.045C62.102,58.261 62.068,57.719 62.001,57.419C61.934,57.121 61.812,56.972 61.635,56.972C61.458,56.972 61.335,57.12 61.265,57.416C61.198,57.711 61.165,58.243 61.165,59.011C61.165,59.779 61.198,60.312 61.265,60.61C61.335,60.905 61.458,61.053 61.635,61.053C61.809,61.053 61.93,60.907 61.998,60.613C62.067,60.333 62.102,59.81 62.102,59.045Z" style="fill:rgb(158,161,168);fill-rule:nonzero;"/>
            <path id="path2043" d="M73.246,59.233L73.246,58.658L74.169,58.658L74.169,57.748L74.751,57.748L74.751,58.658L75.671,58.658L75.671,59.233L74.751,59.233L74.751,60.15L74.169,60.15L74.169,59.233L73.246,59.233Z" style="fill:rgb(158,161,168);fill-rule:nonzero;"/>
            <path id="path2045" d="M76.497,56.411L77.679,56.411L77.679,61.597L77.011,61.597L77.011,57.006L76.497,57.006L76.497,56.411Z" style="fill:rgb(158,161,168);fill-rule:nonzero;"/>
            <path id="path2048" d="M80.978,59.045C80.978,59.976 80.888,60.648 80.709,61.06C80.532,61.458 80.231,61.658 79.805,61.658C79.38,61.658 79.078,61.457 78.899,61.057C78.722,60.667 78.633,59.983 78.633,59.004C78.633,58.026 78.722,57.342 78.899,56.952C79.075,56.549 79.377,56.348 79.802,56.348C80.196,56.348 80.487,56.525 80.675,56.878C80.877,57.252 80.978,57.974 80.978,59.045L80.978,59.045ZM80.266,59.045C80.266,58.261 80.232,57.719 80.165,57.419C80.098,57.121 79.976,56.972 79.799,56.972C79.622,56.972 79.499,57.12 79.429,57.416C79.362,57.711 79.328,58.243 79.328,59.011C79.328,59.779 79.362,60.312 79.429,60.61C79.499,60.905 79.622,61.053 79.799,61.053C79.973,61.053 80.094,60.907 80.161,60.613C80.231,60.333 80.266,59.81 80.266,59.045Z" style="fill:rgb(158,161,168);fill-rule:nonzero;"/>
        </g>
        <g id="g2114" transform="matrix(1,0,0,1,6,58)">
            <path id="path2104" d="M34.349,34.719L34.349,35.651C34.106,35.47 33.851,35.38 33.583,35.38C33.493,35.38 33.41,35.396 33.333,35.427C33.257,35.458 33.189,35.502 33.13,35.557C33.075,35.609 33.03,35.674 32.995,35.75C32.964,35.823 32.948,35.901 32.948,35.984C32.948,36.241 33.181,36.547 33.646,36.901C33.833,37.047 33.99,37.182 34.115,37.307C34.24,37.432 34.335,37.55 34.401,37.661C34.536,37.88 34.604,38.156 34.604,38.49C34.604,38.972 34.464,39.359 34.182,39.651C33.905,39.939 33.531,40.083 33.063,40.083C32.774,40.083 32.483,39.998 32.188,39.828L32.188,38.865C32.476,39.08 32.748,39.188 33.005,39.188C33.46,39.188 33.688,38.964 33.688,38.516C33.688,38.349 33.646,38.205 33.563,38.083C33.524,38.024 33.464,37.957 33.38,37.88C33.297,37.8 33.194,37.712 33.073,37.615C32.653,37.288 32.368,37.014 32.219,36.792C32.073,36.562 32,36.286 32,35.964C32,35.53 32.134,35.174 32.401,34.896C32.672,34.622 33.024,34.484 33.458,34.484C33.764,34.484 34.061,34.562 34.349,34.719L34.349,34.719Z" style="fill:rgb(158,161,168);fill-rule:nonzero;"/>
            <path id="path2106" d="M37.615,34.714L37.615,35.729C37.476,35.559 37.309,35.474 37.115,35.474C36.566,35.474 36.292,36.068 36.292,37.255C36.292,38.516 36.564,39.146 37.109,39.146C37.262,39.146 37.431,39.078 37.615,38.943L37.615,39.875C37.351,40.014 37.083,40.083 36.813,40.083C35.743,40.083 35.208,39.174 35.208,37.354C35.208,36.385 35.34,35.672 35.604,35.214C35.868,34.752 36.278,34.521 36.833,34.521C37.101,34.521 37.361,34.585 37.615,34.714L37.615,34.714Z" style="fill:rgb(158,161,168);fill-rule:nonzero;"/>
            <path id="path2108" d="M41.531,34.609L41.531,40L40.536,40L40.536,39.307C40.394,39.602 40.252,39.806 40.109,39.917C39.967,40.028 39.78,40.083 39.547,40.083C39.099,40.083 38.771,39.854 38.563,39.396C38.354,38.938 38.25,38.219 38.25,37.24C38.25,36.306 38.354,35.62 38.563,35.182C38.771,34.741 39.099,34.521 39.547,34.521C39.957,34.521 40.286,34.753 40.536,35.219L40.536,34.609L41.531,34.609ZM39.281,37.281C39.281,37.99 39.328,38.484 39.422,38.766C39.519,39.047 39.689,39.187 39.932,39.187C40.155,39.187 40.316,39.042 40.417,38.75C40.517,38.437 40.568,37.957 40.568,37.307C40.568,36.655 40.517,36.172 40.417,35.859C40.316,35.568 40.155,35.422 39.932,35.422C39.696,35.422 39.528,35.561 39.427,35.839C39.33,36.095 39.281,36.576 39.281,37.281L39.281,37.281Z" style="fill:rgb(158,161,168);fill-rule:nonzero;"/>
            <rect id="path2110" x="42.661" y="31.151" width="0.995" height="8.849" style="fill:rgb(158,161,168);fill-rule:nonzero;"/>
            <path id="path2112" d="M46.87,38.182L47.797,38.182C47.724,39.45 47.203,40.083 46.234,40.083C45.946,40.083 45.698,40.03 45.49,39.922C45.285,39.814 45.115,39.648 44.979,39.422C44.844,39.196 44.743,38.91 44.677,38.562C44.615,38.215 44.583,37.802 44.583,37.323C44.583,36.372 44.715,35.667 44.979,35.208C45.246,34.75 45.658,34.521 46.214,34.521C47.293,34.521 47.833,35.472 47.833,37.375L47.833,37.5L45.557,37.5C45.557,38.653 45.786,39.229 46.245,39.229C46.661,39.229 46.87,38.88 46.87,38.182ZM46.818,36.781C46.776,36.215 46.712,35.844 46.625,35.667C46.535,35.469 46.389,35.37 46.187,35.37C45.983,35.37 45.837,35.469 45.75,35.667C45.663,35.844 45.599,36.215 45.557,36.781L46.818,36.781Z" style="fill:rgb(158,161,168);fill-rule:nonzero;"/>
        </g>
        <g id="g2128" transform="matrix(1,0,0,1,5,58)">
            <path id="path2116" d="M63.385,37.349C63.385,39.172 62.821,40.083 61.693,40.083C60.564,40.083 60,39.158 60,37.307C60,35.45 60.563,34.521 61.688,34.521C61.979,34.521 62.231,34.576 62.443,34.687C62.658,34.799 62.835,34.97 62.974,35.203C63.113,35.436 63.215,35.729 63.281,36.083C63.351,36.437 63.385,36.859 63.385,37.349L63.385,37.349ZM62.354,37.323C62.354,36.615 62.307,36.122 62.214,35.844C62.12,35.562 61.953,35.422 61.714,35.422C61.477,35.422 61.309,35.561 61.208,35.839C61.115,36.116 61.068,36.601 61.068,37.292C61.068,37.983 61.115,38.465 61.208,38.74C61.309,39.017 61.477,39.156 61.714,39.156C61.95,39.156 62.115,39.019 62.208,38.745C62.306,38.488 62.354,38.014 62.354,37.323L62.354,37.323Z" style="fill:rgb(158,161,168);fill-rule:nonzero;"/>
            <path id="path2118" d="M63.927,34.609L64.427,34.609L64.427,32.729C64.427,32.115 64.517,31.681 64.698,31.427C64.878,31.174 65.193,31.047 65.641,31.047C65.835,31.047 66.061,31.094 66.318,31.187L66.318,32.24C66.158,32.153 66.017,32.109 65.896,32.109C65.726,32.109 65.604,32.16 65.531,32.26C65.462,32.361 65.427,32.531 65.427,32.771L65.422,33.177L65.422,34.609L66.266,34.609L66.266,35.401L65.422,35.401L65.422,40L64.427,40L64.427,35.401L63.927,35.401L63.927,34.609Z" style="fill:rgb(158,161,168);fill-rule:nonzero;"/>
            <path id="path2120" d="M66.781,34.609L67.281,34.609L67.281,32.729C67.281,32.115 67.372,31.681 67.552,31.427C67.733,31.174 68.047,31.047 68.495,31.047C68.689,31.047 68.915,31.094 69.172,31.187L69.172,32.24C69.012,32.153 68.872,32.109 68.75,32.109C68.58,32.109 68.458,32.16 68.385,32.26C68.316,32.361 68.281,32.531 68.281,32.771L68.276,33.177L68.276,34.609L69.12,34.609L69.12,35.401L68.276,35.401L68.276,40L67.281,40L67.281,35.401L66.781,35.401L66.781,34.609Z" style="fill:rgb(158,161,168);fill-rule:nonzero;"/>
            <path id="path2122" d="M72.016,34.719L72.016,35.651C71.773,35.47 71.517,35.38 71.25,35.38C71.16,35.38 71.076,35.396 71,35.427C70.924,35.458 70.856,35.502 70.797,35.557C70.741,35.609 70.696,35.674 70.661,35.75C70.63,35.823 70.615,35.901 70.615,35.984C70.615,36.241 70.847,36.547 71.313,36.901C71.5,37.047 71.656,37.182 71.781,37.307C71.906,37.432 72.002,37.55 72.068,37.661C72.203,37.88 72.271,38.156 72.271,38.49C72.271,38.972 72.13,39.359 71.849,39.651C71.571,39.939 71.198,40.083 70.729,40.083C70.441,40.083 70.149,39.998 69.854,39.828L69.854,38.865C70.142,39.08 70.415,39.188 70.672,39.188C71.127,39.188 71.354,38.964 71.354,38.516C71.354,38.349 71.312,38.205 71.229,38.083C71.191,38.024 71.13,37.957 71.047,37.88C70.964,37.8 70.861,37.712 70.74,37.615C70.319,37.288 70.035,37.014 69.885,36.792C69.74,36.563 69.667,36.286 69.667,35.964C69.667,35.53 69.8,35.174 70.068,34.896C70.339,34.622 70.691,34.484 71.125,34.484C71.431,34.484 71.727,34.563 72.016,34.719L72.016,34.719Z" style="fill:rgb(158,161,168);fill-rule:nonzero;"/>
            <path id="path2124" d="M75.161,38.182L76.089,38.182C76.016,39.45 75.495,40.083 74.526,40.083C74.238,40.083 73.99,40.03 73.781,39.922C73.576,39.814 73.406,39.648 73.271,39.422C73.135,39.196 73.035,38.91 72.969,38.562C72.906,38.215 72.875,37.802 72.875,37.323C72.875,36.372 73.007,35.667 73.271,35.208C73.538,34.75 73.95,34.521 74.505,34.521C75.585,34.521 76.125,35.472 76.125,37.375L76.125,37.5L73.849,37.5C73.849,38.653 74.078,39.229 74.536,39.229C74.953,39.229 75.161,38.88 75.161,38.182L75.161,38.182ZM75.109,36.781C75.068,36.215 75.003,35.844 74.917,35.667C74.826,35.469 74.681,35.37 74.479,35.37C74.274,35.37 74.128,35.469 74.042,35.667C73.955,35.844 73.891,36.215 73.849,36.781L75.109,36.781Z" style="fill:rgb(158,161,168);fill-rule:nonzero;"/>
            <path id="path2126" d="M77.135,33.099L78.13,33.099L78.13,34.609L78.672,34.609L78.672,35.401L78.13,35.401L78.13,40L77.135,40L77.135,35.401L76.589,35.401L76.589,34.609L77.135,34.609L77.135,33.099Z" style="fill:rgb(158,161,168);fill-rule:nonzero;"/>
        </g>
        <g id="g2134" transform="matrix(1,0,0,1,5,58)">
            <path id="path2130" d="M10.214,34.609L11.214,34.609L11.214,40L10.214,40L10.214,34.609ZM10.682,32.318C10.863,32.318 11.019,32.384 11.151,32.516C11.283,32.648 11.349,32.806 11.349,32.99C11.349,33.177 11.283,33.337 11.151,33.469C11.019,33.601 10.859,33.667 10.672,33.667C10.484,33.667 10.325,33.601 10.193,33.469C10.064,33.34 10,33.179 10,32.984C10,32.804 10.066,32.648 10.198,32.516C10.34,32.384 10.502,32.318 10.682,32.318Z" style="fill:rgb(158,161,168);fill-rule:nonzero;"/>
            <path id="path2132" d="M12.339,34.609L13.333,34.609L13.333,35.229C13.618,34.757 13.986,34.521 14.438,34.521C14.875,34.521 15.188,34.693 15.375,35.036C15.479,35.231 15.531,35.608 15.531,36.167L15.531,40L14.536,40L14.531,36.396C14.531,36.031 14.488,35.773 14.401,35.62C14.314,35.467 14.165,35.391 13.953,35.391C13.839,35.391 13.741,35.411 13.661,35.453C13.585,35.491 13.523,35.556 13.474,35.646C13.425,35.733 13.389,35.847 13.365,35.99C13.344,36.132 13.333,36.307 13.333,36.516L13.333,40L12.339,40L12.339,34.609Z" style="fill:rgb(158,161,168);fill-rule:nonzero;"/>
        </g>
        <g id="g2142" transform="matrix(1,0,0,1,4,58)">
            <path id="path2136" d="M96.385,37.349C96.385,39.172 95.821,40.083 94.693,40.083C93.564,40.083 93,39.158 93,37.307C93,35.45 93.562,34.521 94.688,34.521C94.979,34.521 95.231,34.576 95.443,34.687C95.658,34.799 95.835,34.97 95.974,35.203C96.113,35.436 96.215,35.729 96.281,36.083C96.351,36.437 96.385,36.859 96.385,37.349L96.385,37.349ZM95.354,37.323C95.354,36.615 95.307,36.122 95.214,35.844C95.12,35.562 94.953,35.422 94.714,35.422C94.477,35.422 94.309,35.561 94.208,35.839C94.115,36.116 94.068,36.601 94.068,37.292C94.068,37.983 94.115,38.465 94.208,38.74C94.309,39.017 94.477,39.156 94.714,39.156C94.95,39.156 95.115,39.019 95.208,38.745C95.306,38.488 95.354,38.014 95.354,37.323L95.354,37.323Z" style="fill:rgb(158,161,168);fill-rule:nonzero;"/>
            <path id="path2138" d="M97.307,34.609L98.302,34.609L98.302,38.214C98.309,38.547 98.358,38.785 98.448,38.927C98.542,39.069 98.696,39.141 98.911,39.141C99.137,39.141 99.295,39.078 99.385,38.953C99.476,38.821 99.521,38.592 99.521,38.266L99.521,37.833L99.521,34.609L100.516,34.609L100.516,37.833C100.516,38.587 100.46,39.09 100.349,39.344C100.116,39.837 99.634,40.083 98.901,40.083C98.325,40.083 97.915,39.937 97.672,39.646C97.429,39.351 97.307,38.859 97.307,38.172L97.307,34.609Z" style="fill:rgb(158,161,168);fill-rule:nonzero;"/>
            <path id="path2140" d="M101.76,33.099L102.755,33.099L102.755,34.609L103.297,34.609L103.297,35.401L102.755,35.401L102.755,40L101.76,40L101.76,35.401L101.214,35.401L101.214,34.609L101.76,34.609L101.76,33.099Z" style="fill:rgb(158,161,168);fill-rule:nonzero;"/>
        </g>
        <g id="g2148" transform="matrix(1,0,0,1,0,67)">
            <path id="path2144" d="M20.677,67.63L20.677,68.646C20.538,68.476 20.372,68.391 20.177,68.391C19.628,68.391 19.354,68.984 19.354,70.172C19.354,71.432 19.627,72.063 20.172,72.063C20.325,72.063 20.493,71.995 20.677,71.859L20.677,72.792C20.413,72.931 20.146,73 19.875,73C18.806,73 18.271,72.09 18.271,70.271C18.271,69.302 18.403,68.589 18.667,68.13C18.931,67.668 19.34,67.438 19.896,67.438C20.163,67.438 20.424,67.502 20.677,67.63L20.677,67.63Z" style="fill:rgb(158,161,168);fill-rule:nonzero;"/>
            <path id="path2146" d="M20.995,67.526L22.062,67.526L22.453,69.234C22.533,69.582 22.601,69.95 22.656,70.339C22.712,70.724 22.757,71.146 22.792,71.604C22.813,71.497 22.823,71.434 22.823,71.417L22.943,70.615C22.988,70.309 23.076,69.849 23.208,69.234L23.568,67.526L24.531,67.526L23.125,72.917L22.453,72.917L20.995,67.526Z" style="fill:rgb(158,161,168);fill-rule:nonzero;"/>
        </g>
        <g id="g2158" transform="matrix(1.10578,0,0,0.90434,4,65)">
            <rect id="path2150" x="25.322" y="61.984" width="1.288" height="0.552" style="fill:rgb(158,161,168);fill-rule:nonzero;"/>
            <path id="path2152" d="M27.677,60.449L26.956,60.449L26.949,60.233C26.949,59.637 27.038,59.217 27.218,58.974C27.399,58.729 27.703,58.606 28.13,58.606C28.934,58.606 29.336,59.052 29.336,59.943C29.336,60.545 29.036,61.411 28.434,62.543L27.999,63.36C27.997,63.365 27.99,63.379 27.978,63.403C27.966,63.427 27.95,63.461 27.929,63.506L29.28,63.506L29.28,64.135L26.881,64.135C26.922,64.046 27.005,63.868 27.133,63.601C27.26,63.335 27.433,62.975 27.653,62.522C27.839,62.126 27.995,61.79 28.12,61.514C28.245,61.238 28.339,61.012 28.403,60.835C28.53,60.481 28.594,60.176 28.594,59.919C28.594,59.466 28.437,59.239 28.123,59.239C27.821,59.239 27.67,59.52 27.67,60.081L27.674,60.393L27.677,60.449Z" style="fill:rgb(158,161,168);fill-rule:nonzero;"/>
            <path id="path2154" d="M43.33,61.645L43.33,61.04L44.303,61.04L44.303,60.081L44.915,60.081L44.915,61.04L45.884,61.04L45.884,61.645L44.915,61.645L44.915,62.611L44.303,62.611L44.303,61.645L43.33,61.645Z" style="fill:rgb(158,161,168);fill-rule:nonzero;"/>
            <path id="path2156" d="M47.175,60.449L46.454,60.449L46.447,60.233C46.447,59.637 46.536,59.217 46.715,58.974C46.897,58.729 47.201,58.606 47.628,58.606C48.432,58.606 48.834,59.052 48.834,59.943C48.834,60.545 48.534,61.411 47.932,62.543L47.497,63.36C47.495,63.365 47.488,63.379 47.476,63.403C47.464,63.427 47.448,63.461 47.426,63.506L48.778,63.506L48.778,64.135L46.379,64.135C46.419,64.046 46.503,63.868 46.631,63.601C46.758,63.335 46.931,62.975 47.151,62.522C47.337,62.126 47.492,61.79 47.617,61.514C47.742,61.238 47.837,61.012 47.9,60.835C48.028,60.481 48.091,60.176 48.091,59.919C48.091,59.466 47.935,59.239 47.621,59.239C47.319,59.239 47.168,59.52 47.168,60.081L47.172,60.393L47.175,60.449Z" style="fill:rgb(158,161,168);fill-rule:nonzero;"/>
        </g>
        <g id="g2172" transform="matrix(1.06202,0,0,0.9416,0.999997,64.9431)">
            <rect id="path2160" x="56.496" y="59.555" width="1.223" height="0.524" style="fill:rgb(158,161,168);fill-rule:nonzero;"/>
            <path id="path2162" d="M58.333,56.411L59.515,56.411L59.515,61.597L58.847,61.597L58.847,57.006L58.333,57.006L58.333,56.411Z" style="fill:rgb(158,161,168);fill-rule:nonzero;"/>
            <path id="path2164" d="M62.814,59.045C62.814,59.976 62.724,60.648 62.545,61.06C62.368,61.458 62.067,61.658 61.642,61.658C61.216,61.658 60.914,61.457 60.735,61.057C60.558,60.667 60.469,59.983 60.469,59.004C60.469,58.026 60.558,57.342 60.735,56.952C60.912,56.549 61.213,56.348 61.638,56.348C62.032,56.348 62.323,56.525 62.511,56.878C62.713,57.252 62.814,57.974 62.814,59.045L62.814,59.045ZM62.102,59.045C62.102,58.261 62.068,57.719 62.001,57.419C61.934,57.121 61.812,56.972 61.635,56.972C61.458,56.972 61.335,57.12 61.265,57.416C61.198,57.711 61.165,58.243 61.165,59.011C61.165,59.779 61.198,60.312 61.265,60.61C61.335,60.905 61.458,61.053 61.635,61.053C61.809,61.053 61.93,60.907 61.998,60.613C62.067,60.333 62.102,59.81 62.102,59.045Z" style="fill:rgb(158,161,168);fill-rule:nonzero;"/>
            <path id="path2166" d="M73.246,59.233L73.246,58.658L74.169,58.658L74.169,57.748L74.751,57.748L74.751,58.658L75.671,58.658L75.671,59.233L74.751,59.233L74.751,60.15L74.169,60.15L74.169,59.233L73.246,59.233Z" style="fill:rgb(158,161,168);fill-rule:nonzero;"/>
            <path id="path2168" d="M76.497,56.411L77.679,56.411L77.679,61.597L77.011,61.597L77.011,57.006L76.497,57.006L76.497,56.411Z" style="fill:rgb(158,161,168);fill-rule:nonzero;"/>
            <path id="path2170" d="M80.978,59.045C80.978,59.976 80.888,60.648 80.709,61.06C80.532,61.458 80.231,61.658 79.805,61.658C79.38,61.658 79.078,61.457 78.899,61.057C78.722,60.667 78.633,59.983 78.633,59.004C78.633,58.026 78.722,57.342 78.899,56.952C79.075,56.549 79.377,56.348 79.802,56.348C80.196,56.348 80.487,56.525 80.675,56.878C80.877,57.252 80.978,57.974 80.978,59.045L80.978,59.045ZM80.266,59.045C80.266,58.261 80.232,57.719 80.165,57.419C80.098,57.121 79.976,56.972 79.799,56.972C79.622,56.972 79.499,57.12 79.429,57.416C79.362,57.711 79.328,58.243 79.328,59.011C79.328,59.779 79.362,60.312 79.429,60.61C79.499,60.905 79.622,61.053 79.799,61.053C79.973,61.053 80.094,60.907 80.161,60.613C80.231,60.333 80.266,59.81 80.266,59.045Z" style="fill:rgb(158,161,168);fill-rule:nonzero;"/>
        </g>
        <g id="g2262" transform="matrix(1,0,0,1,5,132)">
            <path id="path2258" d="M10.214,34.609L11.214,34.609L11.214,40L10.214,40L10.214,34.609ZM10.682,32.318C10.863,32.318 11.019,32.384 11.151,32.516C11.283,32.648 11.349,32.806 11.349,32.99C11.349,33.177 11.283,33.337 11.151,33.469C11.019,33.601 10.859,33.667 10.672,33.667C10.484,33.667 10.325,33.601 10.193,33.469C10.064,33.34 10,33.179 10,32.984C10,32.804 10.066,32.648 10.198,32.516C10.34,32.384 10.502,32.318 10.682,32.318Z" style="fill:rgb(158,161,168);fill-rule:nonzero;"/>
            <path id="path2260" d="M12.339,34.609L13.333,34.609L13.333,35.229C13.618,34.757 13.986,34.521 14.438,34.521C14.875,34.521 15.188,34.693 15.375,35.036C15.479,35.231 15.531,35.608 15.531,36.167L15.531,40L14.536,40L14.531,36.396C14.531,36.031 14.488,35.773 14.401,35.62C14.314,35.467 14.165,35.391 13.953,35.391C13.839,35.391 13.741,35.411 13.661,35.453C13.585,35.491 13.523,35.556 13.474,35.646C13.425,35.733 13.389,35.847 13.365,35.99C13.344,36.132 13.333,36.307 13.333,36.516L13.333,40L12.339,40L12.339,34.609Z" style="fill:rgb(158,161,168);fill-rule:nonzero;"/>
        </g>
        <g id="g2270" transform="matrix(1,0,0,1,4,132)">
            <path id="path2264" d="M96.385,37.349C96.385,39.172 95.821,40.083 94.693,40.083C93.564,40.083 93,39.158 93,37.307C93,35.45 93.562,34.521 94.688,34.521C94.979,34.521 95.231,34.576 95.443,34.687C95.658,34.799 95.835,34.97 95.974,35.203C96.113,35.436 96.215,35.729 96.281,36.083C96.351,36.437 96.385,36.859 96.385,37.349L96.385,37.349ZM95.354,37.323C95.354,36.615 95.307,36.122 95.214,35.844C95.12,35.562 94.953,35.422 94.714,35.422C94.477,35.422 94.309,35.561 94.208,35.839C94.115,36.116 94.068,36.601 94.068,37.292C94.068,37.983 94.115,38.465 94.208,38.74C94.309,39.017 94.477,39.156 94.714,39.156C94.95,39.156 95.115,39.019 95.208,38.745C95.306,38.488 95.354,38.014 95.354,37.323L95.354,37.323Z" style="fill:rgb(158,161,168);fill-rule:nonzero;"/>
            <path id="path2266" d="M97.307,34.609L98.302,34.609L98.302,38.214C98.309,38.547 98.358,38.785 98.448,38.927C98.542,39.069 98.696,39.141 98.911,39.141C99.137,39.141 99.295,39.078 99.385,38.953C99.476,38.821 99.521,38.592 99.521,38.266L99.521,37.833L99.521,34.609L100.516,34.609L100.516,37.833C100.516,38.587 100.46,39.09 100.349,39.344C100.116,39.837 99.634,40.083 98.901,40.083C98.325,40.083 97.915,39.937 97.672,39.646C97.429,39.351 97.307,38.859 97.307,38.172L97.307,34.609Z" style="fill:rgb(158,161,168);fill-rule:nonzero;"/>
            <path id="path2268" d="M101.76,33.099L102.755,33.099L102.755,34.609L103.297,34.609L103.297,35.401L102.755,35.401L102.755,40L101.76,40L101.76,35.401L101.214,35.401L101.214,34.609L101.76,34.609L101.76,33.099Z" style="fill:rgb(158,161,168);fill-rule:nonzero;"/>
        </g>
        <g id="text2304" transform="matrix(1,0,0,1,0,3.90103)">
            <path id="path2306" d="M27.241,154.177C27.241,155.597 27.083,156.606 26.767,157.203C26.451,157.8 25.921,158.099 25.178,158.099C24.397,158.099 23.847,157.778 23.527,157.135C23.211,156.507 23.053,155.391 23.053,153.786C23.053,152.356 23.21,151.344 23.522,150.75C23.838,150.153 24.373,149.854 25.126,149.854C25.8,149.854 26.3,150.085 26.626,150.547C26.842,150.856 26.998,151.295 27.095,151.865C27.192,152.392 27.241,153.163 27.241,154.177L27.241,154.177ZM26.105,154.292C26.105,152.899 26.043,151.976 25.918,151.521C25.793,151.062 25.538,150.833 25.152,150.833C24.767,150.833 24.51,151.043 24.382,151.464C24.257,151.887 24.194,152.738 24.194,154.016C24.194,155.193 24.26,156.009 24.392,156.464C24.527,156.894 24.781,157.109 25.152,157.109C25.517,157.109 25.767,156.908 25.902,156.505C26.038,156.106 26.105,155.368 26.105,154.292L26.105,154.292Z" style="fill:rgb(158,161,168);fill-rule:nonzero;"/>
            <path id="path2308" d="M31.475,150.089L31.475,151.062C31.197,150.927 30.965,150.859 30.777,150.859C30.52,150.859 30.3,150.924 30.116,151.052C29.932,151.177 29.779,151.372 29.658,151.635C29.539,151.899 29.451,152.234 29.392,152.641C29.336,153.043 29.309,153.521 29.309,154.073C29.309,156.059 29.817,157.052 30.835,157.052C31.012,157.052 31.225,156.997 31.475,156.885L31.475,157.88C31.215,158.026 30.923,158.099 30.6,158.099C28.972,158.099 28.158,156.769 28.158,154.109C28.158,152.672 28.355,151.602 28.751,150.901C29.151,150.2 29.76,149.849 30.579,149.849C30.882,149.849 31.18,149.929 31.475,150.089L31.475,150.089Z" style="fill:rgb(158,161,168);fill-rule:nonzero;"/>
            <path id="path2310" d="M31.741,149.958L35.267,149.958L35.267,150.906L34.053,150.906L34.053,158L32.991,158L32.991,150.906L31.741,150.906L31.741,149.958Z" style="fill:rgb(158,161,168);fill-rule:nonzero;"/>
            <path id="path2312" d="M36.861,149.958L37.704,149.958L39.428,158L38.355,158L38.053,156.432L36.46,156.432L36.152,158L35.111,158L36.861,149.958ZM37.897,155.594L37.658,154.312C37.498,153.441 37.368,152.51 37.267,151.521C37.218,152.003 37.156,152.493 37.079,152.99C37.003,153.483 36.913,154.007 36.809,154.562L36.611,155.594L37.897,155.594Z" style="fill:rgb(158,161,168);fill-rule:nonzero;"/>
            <path id="path2314" d="M39.241,149.958L40.309,149.958L40.793,152.927L40.876,153.464L41.048,154.63C41.076,154.828 41.1,155.009 41.121,155.172C41.145,155.335 41.166,155.483 41.184,155.615L41.236,156.01C41.246,155.931 41.255,155.859 41.262,155.797C41.269,155.734 41.276,155.682 41.283,155.641L41.423,154.708L41.605,153.484C41.623,153.373 41.638,153.271 41.652,153.177C41.67,153.083 41.685,153 41.699,152.927L42.22,149.958L43.23,149.958L41.652,158L40.793,158L39.241,149.958Z" style="fill:rgb(158,161,168);fill-rule:nonzero;"/>
            <path id="path2316" d="M43.819,149.958L46.699,149.958L46.699,150.875L44.902,150.875L44.902,153.422L46.496,153.422L46.496,154.339L44.902,154.339L44.902,157.083L46.699,157.083L46.699,158L43.819,158L43.819,149.958Z" style="fill:rgb(158,161,168);fill-rule:nonzero;"/>
            <path id="path2318" d="M49.902,149.958L52.798,149.958L52.798,150.875L50.986,150.875L50.986,153.417L52.621,153.417L52.621,154.333L50.986,154.333L50.986,158L49.902,158L49.902,149.958Z" style="fill:rgb(158,161,168);fill-rule:nonzero;"/>
            <path id="path2320" d="M57.699,154.177C57.699,155.597 57.541,156.606 57.225,157.203C56.909,157.8 56.38,158.099 55.637,158.099C54.855,158.099 54.305,157.778 53.986,157.135C53.67,156.507 53.512,155.391 53.512,153.786C53.512,152.356 53.668,151.344 53.98,150.75C54.296,150.153 54.831,149.854 55.585,149.854C56.258,149.854 56.758,150.085 57.085,150.547C57.3,150.856 57.456,151.295 57.553,151.865C57.651,152.392 57.699,153.163 57.699,154.177L57.699,154.177ZM56.564,154.292C56.564,152.899 56.501,151.976 56.376,151.521C56.251,151.062 55.996,150.833 55.611,150.833C55.225,150.833 54.968,151.043 54.84,151.464C54.715,151.887 54.652,152.738 54.652,154.016C54.652,155.193 54.718,156.009 54.85,156.464C54.986,156.894 55.239,157.109 55.611,157.109C55.975,157.109 56.225,156.908 56.361,156.505C56.496,156.106 56.564,155.368 56.564,154.292L56.564,154.292Z" style="fill:rgb(158,161,168);fill-rule:nonzero;"/>
            <path id="path2322" d="M58.777,149.958L59.861,149.958L59.861,157.083L61.632,157.083L61.632,158L58.777,158L58.777,149.958Z" style="fill:rgb(158,161,168);fill-rule:nonzero;"/>
            <path id="path2324" d="M62.319,149.958L63.652,149.958C64.059,149.958 64.401,150.003 64.678,150.094C64.935,150.181 65.164,150.335 65.366,150.557C65.668,150.891 65.883,151.325 66.012,151.859C66.14,152.377 66.204,153.118 66.204,154.083C66.204,154.969 66.133,155.691 65.991,156.25C65.852,156.785 65.623,157.193 65.303,157.474C64.911,157.825 64.208,158 63.194,158L62.319,158L62.319,149.958ZM63.402,157.052C64.062,157.052 64.503,156.852 64.725,156.453C64.954,156.054 65.069,155.278 65.069,154.125C65.069,152.885 64.96,152.033 64.741,151.568C64.522,151.102 64.121,150.87 63.538,150.87L63.402,150.87L63.402,157.052Z" style="fill:rgb(158,161,168);fill-rule:nonzero;"/>
            <path id="path2326" d="M67.277,149.958L70.158,149.958L70.158,150.875L68.361,150.875L68.361,153.422L69.954,153.422L69.954,154.339L68.361,154.339L68.361,157.083L70.158,157.083L70.158,158L67.277,158L67.277,149.958Z" style="fill:rgb(158,161,168);fill-rule:nonzero;"/>
            <path id="path2328" d="M71.152,149.958L72.579,149.958C73.17,149.958 73.609,150.099 73.897,150.38C74.262,150.745 74.444,151.302 74.444,152.052C74.444,152.628 74.347,153.092 74.152,153.443C73.961,153.79 73.687,154.005 73.329,154.089L74.809,158L73.71,158L72.236,154.062L72.236,158L71.152,158L71.152,149.958ZM72.236,153.521C72.656,153.521 72.953,153.424 73.126,153.229C73.3,153.035 73.387,152.707 73.387,152.245C73.387,151.995 73.368,151.781 73.329,151.604C73.295,151.427 73.237,151.283 73.158,151.172C73.081,151.061 72.98,150.979 72.855,150.927C72.734,150.875 72.588,150.849 72.418,150.849L72.236,150.849L72.236,153.521Z" style="fill:rgb(158,161,168);fill-rule:nonzero;"/>
            <path id="path2330" d="M78.194,149.958L80.027,149.958L80.027,158L78.991,158L78.991,150.88L78.194,150.88L78.194,149.958Z" style="fill:rgb(158,161,168);fill-rule:nonzero;"/>
            <path id="path2332" d="M88.418,154.911L89.105,155.458L88.246,156.656L89.105,158L87.918,158L87.538,157.375C87.142,157.823 86.682,158.047 86.158,158.047C85.668,158.047 85.243,157.856 84.882,157.474C84.527,157.089 84.35,156.628 84.35,156.094C84.35,155.733 84.434,155.392 84.6,155.073C84.767,154.75 85.057,154.377 85.47,153.953C85.04,153.273 84.824,152.635 84.824,152.042C84.824,151.601 84.97,151.236 85.262,150.948C85.557,150.663 85.932,150.521 86.387,150.521C86.845,150.521 87.211,150.653 87.486,150.917C87.763,151.184 87.902,151.531 87.902,151.958C87.902,152.323 87.817,152.653 87.647,152.948C87.567,153.094 87.449,153.264 87.293,153.458C87.137,153.649 86.939,153.865 86.699,154.104L87.762,155.844L88.418,154.911ZM86.257,153.302C86.406,153.146 86.531,153.009 86.632,152.891C86.732,152.769 86.809,152.663 86.861,152.573C86.968,152.392 87.022,152.196 87.022,151.984C87.022,151.786 86.97,151.63 86.866,151.516C86.762,151.398 86.625,151.339 86.454,151.339C86.277,151.339 86.125,151.408 85.996,151.547C85.871,151.682 85.809,151.844 85.809,152.031C85.809,152.299 85.958,152.722 86.256,153.302L86.257,153.302ZM85.97,154.781C85.567,155.226 85.366,155.642 85.366,156.031C85.366,156.344 85.454,156.606 85.632,156.818C85.809,157.033 86.022,157.141 86.272,157.141C86.55,157.141 86.822,156.97 87.09,156.63L85.97,154.781Z" style="fill:rgb(158,161,168);fill-rule:nonzero;"/>
            <path id="path2334" d="M93.126,152.573L92.064,152.573L92.053,152.255C92.053,151.377 92.185,150.759 92.449,150.401C92.716,150.04 93.164,149.859 93.793,149.859C94.977,149.859 95.569,150.516 95.569,151.828C95.569,152.714 95.126,153.99 94.241,155.656L93.6,156.859C93.597,156.866 93.586,156.887 93.569,156.922C93.551,156.957 93.527,157.007 93.496,157.073L95.485,157.073L95.485,158L91.954,158C92.013,157.868 92.136,157.606 92.324,157.214C92.511,156.821 92.767,156.292 93.09,155.625C93.364,155.042 93.593,154.547 93.777,154.141C93.961,153.734 94.1,153.401 94.194,153.141C94.381,152.62 94.475,152.17 94.475,151.792C94.475,151.125 94.244,150.792 93.782,150.792C93.338,150.792 93.116,151.205 93.116,152.031L93.121,152.49L93.126,152.573Z" style="fill:rgb(158,161,168);fill-rule:nonzero;"/>
        </g>
        <g id="text2339" transform="matrix(1,0,0,1,0,-6)">
            <path id="path2372" d="M39.997,172.693L40.992,172.693L40.992,173.359C41.266,172.856 41.631,172.604 42.086,172.604C42.582,172.604 42.919,172.856 43.096,173.359C43.36,172.856 43.735,172.604 44.221,172.604C44.6,172.604 44.888,172.705 45.086,172.906C45.287,173.104 45.388,173.398 45.388,173.787L45.388,178.083L44.388,178.083L44.388,174.537C44.388,174.13 44.35,173.858 44.273,173.719C44.201,173.576 44.058,173.505 43.846,173.505C43.607,173.505 43.444,173.578 43.357,173.724C43.273,173.866 43.232,174.137 43.232,174.537L43.232,178.083L42.201,178.083L42.201,174.537C42.201,174.346 42.19,174.184 42.169,174.052C42.152,173.92 42.121,173.814 42.075,173.734C42.03,173.655 41.971,173.597 41.898,173.563C41.825,173.524 41.735,173.505 41.627,173.505C41.398,173.505 41.235,173.583 41.138,173.74C41.041,173.896 40.992,174.161 40.992,174.537L40.992,178.083L39.997,178.083L39.997,172.693Z" style="fill:rgb(158,161,168);fill-rule:nonzero;"/>
            <path id="path2374" d="M46.518,172.693L47.518,172.693L47.518,178.083L46.518,178.083L46.518,172.693ZM46.987,170.401C47.168,170.401 47.324,170.467 47.456,170.599C47.588,170.731 47.654,170.889 47.654,171.073C47.654,171.26 47.588,171.42 47.456,171.552C47.324,171.684 47.164,171.75 46.977,171.75C46.789,171.75 46.629,171.684 46.497,171.552C46.369,171.424 46.305,171.262 46.305,171.068C46.305,170.887 46.371,170.731 46.503,170.599C46.645,170.467 46.806,170.401 46.987,170.401L46.987,170.401Z" style="fill:rgb(158,161,168);fill-rule:nonzero;"/>
            <path id="path2376" d="M48.643,172.693L49.638,172.693L49.638,173.313C49.923,172.84 50.291,172.604 50.742,172.604C51.18,172.604 51.492,172.776 51.68,173.12C51.784,173.314 51.836,173.691 51.836,174.25L51.836,178.083L50.841,178.083L50.836,174.479C50.836,174.115 50.792,173.856 50.706,173.703C50.619,173.55 50.47,173.474 50.258,173.474C50.143,173.474 50.046,173.495 49.966,173.537C49.89,173.575 49.827,173.639 49.779,173.729C49.73,173.816 49.693,173.931 49.669,174.073C49.648,174.215 49.638,174.391 49.638,174.599L49.638,178.083L48.643,178.083L48.643,172.693Z" style="fill:rgb(158,161,168);fill-rule:nonzero;"/>
        </g>
        <g id="text2343" transform="matrix(1,0,0,1,0,-6)">
            <path id="path2365" d="M67.268,172.609L68.263,172.609L68.263,173.276C68.537,172.773 68.902,172.521 69.357,172.521C69.853,172.521 70.19,172.773 70.367,173.276C70.631,172.773 71.006,172.521 71.492,172.521C71.871,172.521 72.159,172.622 72.357,172.823C72.558,173.021 72.659,173.314 72.659,173.703L72.659,178L71.659,178L71.659,174.453C71.659,174.047 71.621,173.774 71.544,173.635C71.471,173.493 71.329,173.422 71.117,173.422C70.878,173.422 70.714,173.495 70.628,173.641C70.544,173.783 70.503,174.054 70.503,174.453L70.503,178L69.471,178L69.471,174.453C69.471,174.262 69.461,174.101 69.44,173.969C69.423,173.837 69.391,173.731 69.346,173.651C69.301,173.571 69.242,173.514 69.169,173.479C69.096,173.441 69.006,173.422 68.898,173.422C68.669,173.422 68.506,173.5 68.409,173.656C68.312,173.813 68.263,174.078 68.263,174.453L68.263,178L67.268,178L67.268,172.609Z" style="fill:rgb(158,161,168);fill-rule:nonzero;"/>
            <path id="path2367" d="M76.867,172.609L76.867,178L75.872,178L75.872,177.307C75.73,177.602 75.588,177.806 75.445,177.917C75.303,178.028 75.115,178.083 74.883,178.083C74.435,178.083 74.107,177.854 73.898,177.396C73.69,176.938 73.586,176.219 73.586,175.24C73.586,174.306 73.69,173.62 73.898,173.182C74.107,172.741 74.435,172.521 74.883,172.521C75.293,172.521 75.622,172.754 75.872,173.219L75.872,172.609L76.867,172.609ZM74.617,175.281C74.617,175.99 74.664,176.484 74.758,176.766C74.855,177.047 75.025,177.188 75.268,177.188C75.49,177.188 75.652,177.042 75.753,176.75C75.853,176.438 75.904,175.957 75.904,175.307C75.904,174.655 75.853,174.172 75.753,173.859C75.652,173.568 75.49,173.422 75.268,173.422C75.032,173.422 74.864,173.561 74.763,173.839C74.666,174.096 74.617,174.576 74.617,175.281L74.617,175.281Z" style="fill:rgb(158,161,168);fill-rule:nonzero;"/>
            <path id="path2369" d="M77.477,172.609L78.654,172.609L79.128,173.651C79.183,173.773 79.235,173.901 79.284,174.037C79.332,174.168 79.376,174.309 79.414,174.458C79.442,174.326 79.475,174.2 79.513,174.078C79.551,173.957 79.595,173.837 79.643,173.719L79.711,173.563L80.102,172.609L81.148,172.609L79.93,175.156L81.404,178L80.216,178L79.742,176.969C79.51,176.486 79.372,176.101 79.331,175.813C79.299,176.09 79.188,176.445 78.997,176.875L78.518,178L77.477,178L78.826,175.156L77.477,172.609Z" style="fill:rgb(158,161,168);fill-rule:nonzero;"/>
        </g>
        <g id="text2347" transform="matrix(1.08773,0,0,0.919344,0,-6)">
            <path id="path2360" d="M34.785,218.133C34.785,219.087 34.693,219.775 34.51,220.197C34.329,220.606 34.02,220.81 33.584,220.81C33.149,220.81 32.839,220.605 32.656,220.194C32.474,219.795 32.384,219.094 32.384,218.092C32.384,217.09 32.474,216.389 32.656,215.99C32.837,215.577 33.145,215.371 33.581,215.371C33.985,215.371 34.283,215.552 34.475,215.915C34.682,216.298 34.785,217.037 34.785,218.133L34.785,218.133ZM34.056,218.133C34.056,217.331 34.021,216.776 33.953,216.468C33.884,216.163 33.759,216.011 33.578,216.011C33.396,216.011 33.27,216.162 33.199,216.465C33.13,216.768 33.096,217.312 33.096,218.099C33.096,218.886 33.13,219.431 33.199,219.736C33.27,220.039 33.396,220.191 33.578,220.191C33.756,220.191 33.88,220.04 33.949,219.74C34.02,219.453 34.056,218.918 34.056,218.133L34.056,218.133Z" style="fill:rgb(158,161,168);fill-rule:nonzero;"/>
            <path id="path2362" d="M49.67,220.748L48.906,220.748L49.419,219.716C49.511,219.528 49.601,219.335 49.691,219.138C49.782,218.938 49.872,218.731 49.959,218.515C49.782,218.657 49.6,218.729 49.412,218.729C49.098,218.729 48.866,218.602 48.717,218.35C48.568,218.096 48.493,217.701 48.493,217.167C48.493,216.525 48.581,216.065 48.755,215.787C48.929,215.51 49.219,215.371 49.625,215.371C50.036,215.371 50.329,215.511 50.506,215.791C50.682,216.071 50.771,216.536 50.771,217.187C50.771,217.669 50.716,218.114 50.606,218.522C50.553,218.724 50.477,218.95 50.379,219.2C50.28,219.448 50.157,219.726 50.01,220.036L49.732,220.617L49.67,220.748ZM50.072,217.074C50.072,216.374 49.922,216.025 49.622,216.025C49.324,216.025 49.175,216.37 49.175,217.06C49.175,217.422 49.209,217.685 49.278,217.848C49.349,218.011 49.464,218.092 49.622,218.092C49.78,218.092 49.895,218.012 49.966,217.851C50.037,217.689 50.072,217.429 50.072,217.074L50.072,217.074Z" style="fill:rgb(158,161,168);fill-rule:nonzero;"/>
        </g>
        <g id="text2351" transform="matrix(1.06515,0,0,0.938831,0,-6)">
            <path id="path2353" d="M60.656,210.965L61.842,210.965L61.842,216.166L61.171,216.166L61.171,211.561L60.656,211.561L60.656,210.965Z" style="fill:rgb(158,161,168);fill-rule:nonzero;"/>
            <path id="path2355" d="M74.939,210.965L76.125,210.965L76.125,216.166L75.454,216.166L75.454,211.561L74.939,211.561L74.939,210.965Z" style="fill:rgb(158,161,168);fill-rule:nonzero;"/>
            <path id="path2357" d="M79.433,213.606C79.433,214.54 79.343,215.214 79.163,215.627C78.986,216.026 78.684,216.226 78.257,216.226C77.83,216.226 77.527,216.025 77.347,215.623C77.17,215.233 77.081,214.547 77.081,213.565C77.081,212.584 77.17,211.898 77.347,211.507C77.525,211.103 77.827,210.901 78.254,210.901C78.649,210.901 78.941,211.078 79.129,211.433C79.332,211.808 79.433,212.532 79.433,213.606L79.433,213.606ZM78.718,213.606C78.718,212.82 78.685,212.276 78.617,211.975C78.55,211.676 78.428,211.527 78.25,211.527C78.073,211.527 77.949,211.675 77.88,211.972C77.812,212.268 77.779,212.802 77.779,213.572C77.779,214.342 77.812,214.877 77.88,215.175C77.949,215.472 78.073,215.62 78.25,215.62C78.425,215.62 78.547,215.473 78.614,215.179C78.684,214.898 78.718,214.374 78.718,213.606Z" style="fill:rgb(158,161,168);fill-rule:nonzero;"/>
        </g>
        <g id="g2383" transform="matrix(1,0,0,1,5,168)">
            <path id="path2379" d="M10.214,34.609L11.214,34.609L11.214,40L10.214,40L10.214,34.609ZM10.682,32.318C10.863,32.318 11.019,32.384 11.151,32.516C11.283,32.648 11.349,32.806 11.349,32.99C11.349,33.177 11.283,33.337 11.151,33.469C11.019,33.601 10.859,33.667 10.672,33.667C10.484,33.667 10.325,33.601 10.193,33.469C10.064,33.34 10,33.179 10,32.984C10,32.804 10.066,32.648 10.198,32.516C10.34,32.384 10.502,32.318 10.682,32.318Z" style="fill:rgb(158,161,168);fill-rule:nonzero;"/>
            <path id="path2381" d="M12.339,34.609L13.333,34.609L13.333,35.229C13.618,34.757 13.986,34.521 14.438,34.521C14.875,34.521 15.188,34.693 15.375,35.036C15.479,35.231 15.531,35.608 15.531,36.167L15.531,40L14.536,40L14.531,36.396C14.531,36.031 14.488,35.773 14.401,35.62C14.314,35.467 14.165,35.391 13.953,35.391C13.839,35.391 13.741,35.411 13.661,35.453C13.585,35.491 13.523,35.556 13.474,35.646C13.425,35.733 13.389,35.847 13.365,35.99C13.344,36.132 13.333,36.307 13.333,36.516L13.333,40L12.339,40L12.339,34.609Z" style="fill:rgb(158,161,168);fill-rule:nonzero;"/>
        </g>
        <g id="g2391" transform="matrix(1,0,0,1,4,168)">
            <path id="path2385" d="M96.385,37.349C96.385,39.172 95.821,40.083 94.693,40.083C93.564,40.083 93,39.158 93,37.307C93,35.45 93.562,34.521 94.688,34.521C94.979,34.521 95.231,34.576 95.443,34.687C95.658,34.799 95.835,34.97 95.974,35.203C96.113,35.436 96.215,35.729 96.281,36.083C96.351,36.437 96.385,36.859 96.385,37.349L96.385,37.349ZM95.354,37.323C95.354,36.615 95.307,36.122 95.214,35.844C95.12,35.562 94.953,35.422 94.714,35.422C94.477,35.422 94.309,35.561 94.208,35.839C94.115,36.116 94.068,36.601 94.068,37.292C94.068,37.983 94.115,38.465 94.208,38.74C94.309,39.017 94.477,39.156 94.714,39.156C94.95,39.156 95.115,39.019 95.208,38.745C95.306,38.488 95.354,38.014 95.354,37.323L95.354,37.323Z" style="fill:rgb(158,161,168);fill-rule:nonzero;"/>
            <path id="path2387" d="M97.307,34.609L98.302,34.609L98.302,38.214C98.309,38.547 98.358,38.785 98.448,38.927C98.542,39.069 98.696,39.141 98.911,39.141C99.137,39.141 99.295,39.078 99.385,38.953C99.476,38.821 99.521,38.592 99.521,38.266L99.521,37.833L99.521,34.609L100.516,34.609L100.516,37.833C100.516,38.587 100.46,39.09 100.349,39.344C100.116,39.837 99.634,40.083 98.901,40.083C98.325,40.083 97.915,39.937 97.672,39.646C97.429,39.351 97.307,38.859 97.307,38.172L97.307,34.609Z" style="fill:rgb(158,161,168);fill-rule:nonzero;"/>
            <path id="path2389" d="M101.76,33.099L102.755,33.099L102.755,34.609L103.297,34.609L103.297,35.401L102.755,35.401L102.755,40L101.76,40L101.76,35.401L101.214,35.401L101.214,34.609L101.76,34.609L101.76,33.099Z" style="fill:rgb(158,161,168);fill-rule:nonzero;"/>
        </g>
        <g id="g2399" transform="matrix(1,0,0,1,0,30)">
            <path id="path2393" d="M39.997,172.693L40.992,172.693L40.992,173.359C41.266,172.856 41.631,172.604 42.086,172.604C42.582,172.604 42.919,172.856 43.096,173.359C43.36,172.856 43.735,172.604 44.221,172.604C44.6,172.604 44.888,172.705 45.086,172.906C45.287,173.104 45.388,173.398 45.388,173.787L45.388,178.083L44.388,178.083L44.388,174.537C44.388,174.13 44.35,173.858 44.273,173.719C44.201,173.576 44.058,173.505 43.846,173.505C43.607,173.505 43.444,173.578 43.357,173.724C43.273,173.866 43.232,174.137 43.232,174.537L43.232,178.083L42.201,178.083L42.201,174.537C42.201,174.346 42.19,174.184 42.169,174.052C42.152,173.92 42.121,173.814 42.075,173.734C42.03,173.655 41.971,173.597 41.898,173.563C41.825,173.524 41.735,173.505 41.627,173.505C41.398,173.505 41.235,173.583 41.138,173.74C41.041,173.896 40.992,174.161 40.992,174.537L40.992,178.083L39.997,178.083L39.997,172.693Z" style="fill:rgb(158,161,168);fill-rule:nonzero;"/>
            <path id="path2395" d="M46.518,172.693L47.518,172.693L47.518,178.083L46.518,178.083L46.518,172.693ZM46.987,170.401C47.168,170.401 47.324,170.467 47.456,170.599C47.588,170.731 47.654,170.889 47.654,171.073C47.654,171.26 47.588,171.42 47.456,171.552C47.324,171.684 47.164,171.75 46.977,171.75C46.789,171.75 46.629,171.684 46.497,171.552C46.369,171.424 46.305,171.262 46.305,171.068C46.305,170.887 46.371,170.731 46.503,170.599C46.645,170.467 46.806,170.401 46.987,170.401L46.987,170.401Z" style="fill:rgb(158,161,168);fill-rule:nonzero;"/>
            <path id="path2397" d="M48.643,172.693L49.638,172.693L49.638,173.313C49.923,172.84 50.291,172.604 50.742,172.604C51.18,172.604 51.492,172.776 51.68,173.12C51.784,173.314 51.836,173.691 51.836,174.25L51.836,178.083L50.841,178.083L50.836,174.479C50.836,174.115 50.792,173.856 50.706,173.703C50.619,173.55 50.47,173.474 50.258,173.474C50.143,173.474 50.046,173.495 49.966,173.537C49.89,173.575 49.827,173.639 49.779,173.729C49.73,173.816 49.693,173.931 49.669,174.073C49.648,174.215 49.638,174.391 49.638,174.599L49.638,178.083L48.643,178.083L48.643,172.693Z" style="fill:rgb(158,161,168);fill-rule:nonzero;"/>
        </g>
        <g id="g2407" transform="matrix(1,0,0,1,0,30)">
            <path id="path2401" d="M67.268,172.609L68.263,172.609L68.263,173.276C68.537,172.773 68.902,172.521 69.357,172.521C69.853,172.521 70.19,172.773 70.367,173.276C70.631,172.773 71.006,172.521 71.492,172.521C71.871,172.521 72.159,172.622 72.357,172.823C72.558,173.021 72.659,173.314 72.659,173.703L72.659,178L71.659,178L71.659,174.453C71.659,174.047 71.621,173.774 71.544,173.635C71.471,173.493 71.329,173.422 71.117,173.422C70.878,173.422 70.714,173.495 70.628,173.641C70.544,173.783 70.503,174.054 70.503,174.453L70.503,178L69.471,178L69.471,174.453C69.471,174.262 69.461,174.101 69.44,173.969C69.423,173.837 69.391,173.731 69.346,173.651C69.301,173.571 69.242,173.514 69.169,173.479C69.096,173.441 69.006,173.422 68.898,173.422C68.669,173.422 68.506,173.5 68.409,173.656C68.312,173.813 68.263,174.078 68.263,174.453L68.263,178L67.268,178L67.268,172.609Z" style="fill:rgb(158,161,168);fill-rule:nonzero;"/>
            <path id="path2403" d="M76.867,172.609L76.867,178L75.872,178L75.872,177.307C75.73,177.602 75.588,177.806 75.445,177.917C75.303,178.028 75.115,178.083 74.883,178.083C74.435,178.083 74.107,177.854 73.898,177.396C73.69,176.938 73.586,176.219 73.586,175.24C73.586,174.306 73.69,173.62 73.898,173.182C74.107,172.741 74.435,172.521 74.883,172.521C75.293,172.521 75.622,172.754 75.872,173.219L75.872,172.609L76.867,172.609ZM74.617,175.281C74.617,175.99 74.664,176.484 74.758,176.766C74.855,177.047 75.025,177.188 75.268,177.188C75.49,177.188 75.652,177.042 75.753,176.75C75.853,176.438 75.904,175.957 75.904,175.307C75.904,174.655 75.853,174.172 75.753,173.859C75.652,173.568 75.49,173.422 75.268,173.422C75.032,173.422 74.864,173.561 74.763,173.839C74.666,174.096 74.617,174.576 74.617,175.281L74.617,175.281Z" style="fill:rgb(158,161,168);fill-rule:nonzero;"/>
            <path id="path2405" d="M77.477,172.609L78.654,172.609L79.128,173.651C79.183,173.773 79.235,173.901 79.284,174.037C79.332,174.168 79.376,174.309 79.414,174.458C79.442,174.326 79.475,174.2 79.513,174.078C79.551,173.957 79.595,173.837 79.643,173.719L79.711,173.563L80.102,172.609L81.148,172.609L79.93,175.156L81.404,178L80.216,178L79.742,176.969C79.51,176.486 79.372,176.101 79.331,175.813C79.299,176.09 79.188,176.445 78.997,176.875L78.518,178L77.477,178L78.826,175.156L77.477,172.609Z" style="fill:rgb(158,161,168);fill-rule:nonzero;"/>
        </g>
        <g id="g2413" transform="matrix(1.08773,0,0,0.919344,0,30)">
            <path id="path2409" d="M34.785,218.133C34.785,219.087 34.693,219.775 34.51,220.197C34.329,220.606 34.02,220.81 33.584,220.81C33.149,220.81 32.839,220.605 32.656,220.194C32.474,219.795 32.384,219.094 32.384,218.092C32.384,217.09 32.474,216.389 32.656,215.99C32.837,215.577 33.145,215.371 33.581,215.371C33.985,215.371 34.283,215.552 34.475,215.915C34.682,216.298 34.785,217.037 34.785,218.133L34.785,218.133ZM34.056,218.133C34.056,217.331 34.021,216.776 33.953,216.468C33.884,216.163 33.759,216.011 33.578,216.011C33.396,216.011 33.27,216.162 33.199,216.465C33.13,216.768 33.096,217.312 33.096,218.099C33.096,218.886 33.13,219.431 33.199,219.736C33.27,220.039 33.396,220.191 33.578,220.191C33.756,220.191 33.88,220.04 33.949,219.74C34.02,219.453 34.056,218.918 34.056,218.133L34.056,218.133Z" style="fill:rgb(158,161,168);fill-rule:nonzero;"/>
            <path id="path2411" d="M49.67,220.748L48.906,220.748L49.419,219.716C49.511,219.528 49.601,219.335 49.691,219.138C49.782,218.938 49.872,218.731 49.959,218.515C49.782,218.657 49.6,218.729 49.412,218.729C49.098,218.729 48.866,218.602 48.717,218.35C48.568,218.096 48.493,217.701 48.493,217.167C48.493,216.525 48.581,216.065 48.755,215.787C48.929,215.51 49.219,215.371 49.625,215.371C50.036,215.371 50.329,215.511 50.506,215.791C50.682,216.071 50.771,216.536 50.771,217.187C50.771,217.669 50.716,218.114 50.606,218.522C50.553,218.724 50.477,218.95 50.379,219.2C50.28,219.448 50.157,219.726 50.01,220.036L49.732,220.617L49.67,220.748ZM50.072,217.074C50.072,216.374 49.922,216.025 49.622,216.025C49.324,216.025 49.175,216.37 49.175,217.06C49.175,217.422 49.209,217.685 49.278,217.848C49.349,218.011 49.464,218.092 49.622,218.092C49.78,218.092 49.895,218.012 49.966,217.851C50.037,217.689 50.072,217.429 50.072,217.074L50.072,217.074Z" style="fill:rgb(158,161,168);fill-rule:nonzero;"/>
        </g>
        <g id="g2421" transform="matrix(1.06515,0,0,0.938831,0,30)">
            <path id="path2415" d="M60.656,210.965L61.842,210.965L61.842,216.166L61.171,216.166L61.171,211.561L60.656,211.561L60.656,210.965Z" style="fill:rgb(158,161,168);fill-rule:nonzero;"/>
            <path id="path2417" d="M74.939,210.965L76.125,210.965L76.125,216.166L75.454,216.166L75.454,211.561L74.939,211.561L74.939,210.965Z" style="fill:rgb(158,161,168);fill-rule:nonzero;"/>
            <path id="path2419" d="M79.433,213.606C79.433,214.54 79.343,215.214 79.163,215.627C78.986,216.026 78.684,216.226 78.257,216.226C77.83,216.226 77.527,216.025 77.347,215.623C77.17,215.233 77.081,214.547 77.081,213.565C77.081,212.584 77.17,211.898 77.347,211.507C77.525,211.103 77.827,210.901 78.254,210.901C78.649,210.901 78.941,211.078 79.129,211.433C79.332,211.808 79.433,212.532 79.433,213.606L79.433,213.606ZM78.718,213.606C78.718,212.82 78.685,212.276 78.617,211.975C78.55,211.676 78.428,211.527 78.25,211.527C78.073,211.527 77.949,211.675 77.88,211.972C77.812,212.268 77.779,212.802 77.779,213.572C77.779,214.342 77.812,214.877 77.88,215.175C77.949,215.472 78.073,215.62 78.25,215.62C78.425,215.62 78.547,215.473 78.614,215.179C78.684,214.898 78.718,214.374 78.718,213.606Z" style="fill:rgb(158,161,168);fill-rule:nonzero;"/>
        </g>
        <g id="text2425" transform="matrix(1,0,0,1,0,-28)">
            <path id="path2582" d="M44.384,267.859L45.228,267.859L46.952,275.901L45.879,275.901L45.577,274.333L43.983,274.333L43.676,275.901L42.634,275.901L44.384,267.859ZM45.421,273.495L45.181,272.214C45.021,271.342 44.891,270.411 44.79,269.422C44.742,269.905 44.679,270.394 44.603,270.891C44.526,271.384 44.436,271.908 44.332,272.464L44.134,273.495L45.421,273.495Z" style="fill:rgb(158,161,168);fill-rule:nonzero;"/>
            <path id="path2584" d="M50.275,268.026L50.275,269.083C49.945,268.847 49.648,268.729 49.384,268.729C49.099,268.729 48.867,268.83 48.686,269.031C48.506,269.222 48.415,269.477 48.415,269.797C48.415,270.078 48.48,270.319 48.608,270.521C48.674,270.628 48.782,270.767 48.931,270.937C49.084,271.108 49.28,271.312 49.52,271.552C49.961,272 50.261,272.387 50.421,272.714C50.58,273.03 50.66,273.417 50.66,273.875C50.66,274.497 50.485,275.009 50.134,275.411C49.783,275.804 49.334,276 48.785,276C48.323,276 47.929,275.873 47.603,275.62L47.603,274.547C47.988,274.828 48.339,274.969 48.655,274.969C48.95,274.969 49.181,274.872 49.348,274.677C49.514,274.479 49.598,274.212 49.598,273.875C49.598,273.583 49.533,273.321 49.405,273.089C49.339,272.977 49.247,272.851 49.129,272.708C49.011,272.562 48.863,272.401 48.686,272.224C48.412,271.953 48.184,271.714 48.004,271.505C47.823,271.297 47.69,271.115 47.603,270.958C47.436,270.653 47.353,270.267 47.353,269.802C47.353,269.174 47.516,268.675 47.842,268.307C48.172,267.936 48.615,267.75 49.171,267.75C49.556,267.75 49.924,267.842 50.275,268.026L50.275,268.026Z" style="fill:rgb(158,161,168);fill-rule:nonzero;"/>
            <path id="path2586" d="M51.572,267.859L52.999,267.859C53.589,267.859 54.028,268 54.316,268.281C54.681,268.646 54.863,269.203 54.863,269.953C54.863,270.53 54.766,270.993 54.572,271.344C54.381,271.691 54.106,271.906 53.749,271.99L55.228,275.901L54.129,275.901L52.655,271.964L52.655,275.901L51.572,275.901L51.572,267.859ZM52.655,271.422C53.075,271.422 53.372,271.325 53.546,271.13C53.719,270.936 53.806,270.608 53.806,270.146C53.806,269.896 53.787,269.682 53.749,269.505C53.714,269.328 53.657,269.184 53.577,269.073C53.5,268.962 53.4,268.88 53.275,268.828C53.153,268.776 53.007,268.75 52.837,268.75L52.655,268.75L52.655,271.422Z" style="fill:rgb(158,161,168);fill-rule:nonzero;"/>
            <path id="path2588" d="M58.613,267.859L60.447,267.859L60.447,275.901L59.41,275.901L59.41,268.781L58.613,268.781L58.613,267.859Z" style="fill:rgb(158,161,168);fill-rule:nonzero;"/>
            <path id="path2590" d="M68.837,272.812L69.525,273.359L68.665,274.557L69.525,275.901L68.337,275.901L67.957,275.276C67.561,275.724 67.101,275.948 66.577,275.948C66.087,275.948 65.662,275.757 65.301,275.375C64.947,274.99 64.77,274.53 64.77,273.995C64.77,273.634 64.853,273.293 65.02,272.974C65.186,272.651 65.476,272.278 65.889,271.854C65.459,271.174 65.243,270.536 65.243,269.943C65.243,269.502 65.389,269.137 65.681,268.849C65.976,268.564 66.351,268.422 66.806,268.422C67.264,268.422 67.631,268.554 67.905,268.818C68.183,269.085 68.322,269.432 68.322,269.859C68.322,270.224 68.237,270.554 68.066,270.849C67.987,270.995 67.868,271.165 67.712,271.359C67.556,271.55 67.358,271.766 67.118,272.005L68.181,273.745L68.837,272.812ZM66.676,271.203C66.825,271.047 66.95,270.91 67.051,270.792C67.151,270.67 67.228,270.564 67.28,270.474C67.388,270.293 67.441,270.097 67.441,269.885C67.441,269.687 67.389,269.531 67.285,269.417C67.181,269.299 67.044,269.24 66.874,269.24C66.697,269.24 66.544,269.309 66.415,269.448C66.29,269.583 66.228,269.745 66.228,269.932C66.228,270.2 66.377,270.623 66.676,271.203L66.676,271.203ZM66.389,272.682C65.987,273.127 65.785,273.543 65.785,273.932C65.785,274.245 65.874,274.507 66.051,274.719C66.228,274.934 66.441,275.042 66.691,275.042C66.969,275.042 67.242,274.872 67.509,274.531L66.389,272.682Z" style="fill:rgb(158,161,168);fill-rule:nonzero;"/>
            <path id="path2592" d="M73.546,270.474L72.483,270.474L72.472,270.156C72.472,269.278 72.604,268.66 72.868,268.302C73.136,267.941 73.584,267.76 74.212,267.76C75.396,267.76 75.988,268.417 75.988,269.729C75.988,270.615 75.545,271.891 74.66,273.557L74.019,274.76C74.016,274.767 74.005,274.788 73.988,274.823C73.971,274.858 73.946,274.908 73.915,274.974L75.905,274.974L75.905,275.901L72.373,275.901C72.432,275.769 72.556,275.507 72.743,275.115C72.931,274.722 73.186,274.193 73.509,273.526C73.783,272.943 74.012,272.448 74.196,272.042C74.38,271.635 74.519,271.302 74.613,271.042C74.8,270.521 74.894,270.071 74.894,269.693C74.894,269.026 74.663,268.693 74.202,268.693C73.757,268.693 73.535,269.106 73.535,269.932L73.54,270.391L73.546,270.474Z" style="fill:rgb(158,161,168);fill-rule:nonzero;"/>
        </g>
        <g id="g2431" transform="matrix(1,0,0,1,5,218)">
            <path id="path2427" d="M10.214,34.609L11.214,34.609L11.214,40L10.214,40L10.214,34.609ZM10.682,32.318C10.863,32.318 11.019,32.384 11.151,32.516C11.283,32.648 11.349,32.806 11.349,32.99C11.349,33.177 11.283,33.337 11.151,33.469C11.019,33.601 10.859,33.667 10.672,33.667C10.484,33.667 10.325,33.601 10.193,33.469C10.064,33.34 10,33.179 10,32.984C10,32.804 10.066,32.648 10.198,32.516C10.34,32.384 10.502,32.318 10.682,32.318Z" style="fill:rgb(158,161,168);fill-rule:nonzero;"/>
            <path id="path2429" d="M12.339,34.609L13.333,34.609L13.333,35.229C13.618,34.757 13.986,34.521 14.438,34.521C14.875,34.521 15.188,34.693 15.375,35.036C15.479,35.231 15.531,35.608 15.531,36.167L15.531,40L14.536,40L14.531,36.396C14.531,36.031 14.488,35.773 14.401,35.62C14.314,35.467 14.165,35.391 13.953,35.391C13.839,35.391 13.741,35.411 13.661,35.453C13.585,35.491 13.523,35.556 13.474,35.646C13.425,35.733 13.389,35.847 13.365,35.99C13.344,36.132 13.333,36.307 13.333,36.516L13.333,40L12.339,40L12.339,34.609Z" style="fill:rgb(158,161,168);fill-rule:nonzero;"/>
        </g>
        <g id="text2533" transform="matrix(1,0,0,1,0,-28)">
            <path id="path2571" d="M38,288L38,280.401L38.995,280.401L38.995,281.099C39.134,280.804 39.276,280.599 39.422,280.484C39.568,280.37 39.759,280.313 39.995,280.313C40.439,280.313 40.764,280.543 40.969,281.005C41.177,281.464 41.281,282.182 41.281,283.161C41.281,284.12 41.175,284.809 40.964,285.229C40.755,285.66 40.42,285.875 39.958,285.875C39.736,285.875 39.554,285.825 39.411,285.724C39.342,285.675 39.273,285.606 39.203,285.516C39.134,285.425 39.064,285.316 38.995,285.188L38.995,288L38,288ZM40.25,283.125C40.25,282.392 40.201,281.896 40.104,281.635C40.01,281.354 39.842,281.214 39.599,281.214C39.37,281.214 39.207,281.359 39.109,281.651C39.012,281.922 38.964,282.405 38.964,283.099C38.964,283.793 39.012,284.276 39.109,284.547C39.21,284.835 39.373,284.979 39.599,284.979C39.835,284.979 40.003,284.84 40.104,284.563C40.201,284.306 40.25,283.826 40.25,283.125Z" style="fill:rgb(158,161,168);fill-rule:nonzero;"/>
            <path id="path2573" d="M42.208,280.401L43.203,280.401L43.203,284.005C43.21,284.339 43.259,284.576 43.349,284.719C43.443,284.861 43.597,284.932 43.812,284.932C44.038,284.932 44.196,284.87 44.286,284.745C44.377,284.613 44.422,284.384 44.422,284.057L44.422,283.625L44.422,280.401L45.417,280.401L45.417,283.625C45.417,284.378 45.361,284.882 45.25,285.135C45.017,285.628 44.535,285.875 43.802,285.875C43.226,285.875 42.816,285.729 42.573,285.438C42.33,285.142 42.208,284.651 42.208,283.964L42.208,280.401Z" style="fill:rgb(158,161,168);fill-rule:nonzero;"/>
            <rect id="path2575" x="46.542" y="276.943" width="0.995" height="8.849" style="fill:rgb(158,161,168);fill-rule:nonzero;"/>
            <path id="path2577" d="M50.75,280.51L50.75,281.443C50.507,281.262 50.252,281.172 49.984,281.172C49.894,281.172 49.811,281.187 49.734,281.219C49.658,281.25 49.59,281.293 49.531,281.349C49.476,281.401 49.431,281.465 49.396,281.542C49.365,281.615 49.349,281.693 49.349,281.776C49.349,282.033 49.582,282.339 50.047,282.693C50.234,282.839 50.391,282.974 50.516,283.099C50.641,283.224 50.736,283.342 50.802,283.453C50.937,283.672 51.005,283.948 51.005,284.281C51.005,284.764 50.865,285.151 50.583,285.443C50.306,285.731 49.932,285.875 49.464,285.875C49.175,285.875 48.884,285.79 48.589,285.62L48.589,284.656C48.877,284.872 49.149,284.979 49.406,284.979C49.861,284.979 50.089,284.755 50.089,284.307C50.089,284.141 50.047,283.997 49.964,283.875C49.925,283.816 49.865,283.748 49.781,283.672C49.698,283.592 49.595,283.504 49.474,283.406C49.054,283.08 48.769,282.806 48.62,282.583C48.474,282.354 48.401,282.078 48.401,281.755C48.401,281.321 48.535,280.965 48.802,280.688C49.073,280.413 49.425,280.276 49.859,280.276C50.165,280.276 50.462,280.354 50.75,280.51L50.75,280.51Z" style="fill:rgb(158,161,168);fill-rule:nonzero;"/>
            <path id="path2579" d="M53.896,283.974L54.823,283.974C54.75,285.241 54.229,285.875 53.26,285.875C52.972,285.875 52.724,285.821 52.516,285.714C52.311,285.606 52.141,285.439 52.005,285.214C51.87,284.988 51.769,284.701 51.703,284.354C51.641,284.007 51.609,283.594 51.609,283.115C51.609,282.163 51.741,281.458 52.005,281C52.273,280.542 52.684,280.313 53.24,280.313C54.319,280.313 54.859,281.264 54.859,283.167L54.859,283.292L52.583,283.292C52.583,284.444 52.812,285.021 53.271,285.021C53.687,285.021 53.896,284.672 53.896,283.974L53.896,283.974ZM53.844,282.573C53.802,282.007 53.738,281.635 53.651,281.458C53.561,281.26 53.415,281.161 53.214,281.161C53.009,281.161 52.863,281.26 52.776,281.458C52.689,281.635 52.625,282.007 52.583,282.573L53.844,282.573Z" style="fill:rgb(158,161,168);fill-rule:nonzero;"/>
        </g>
        <g id="path2568" transform="matrix(1,0,0,1,4,-28)">
            <path d="M1,307.877L2.833,307.877L2.833,315.919L1.797,315.919L1.797,308.799L1,308.799L1,307.877Z" style="fill:rgb(158,161,168);fill-rule:nonzero;"/>
        </g>
        <g id="path2565" transform="matrix(1,0,0,1,4,-28)">
            <path d="M30.172,310.59L29.109,310.59L29.099,310.273C29.099,309.394 29.231,308.776 29.495,308.419C29.762,308.057 30.21,307.877 30.839,307.877C32.023,307.877 32.615,308.533 32.615,309.846C32.615,310.731 32.172,312.007 31.286,313.674L30.646,314.877C30.642,314.884 30.632,314.905 30.615,314.939C30.597,314.974 30.573,315.024 30.542,315.09L32.531,315.09L32.531,316.018L29,316.018C29.059,315.886 29.182,315.623 29.37,315.231C29.557,314.839 29.813,314.309 30.135,313.643C30.41,313.059 30.639,312.564 30.823,312.158C31.007,311.752 31.146,311.419 31.24,311.158C31.427,310.637 31.521,310.188 31.521,309.809C31.521,309.143 31.29,308.809 30.828,308.809C30.384,308.809 30.161,309.222 30.161,310.049L30.167,310.507L30.172,310.59Z" style="fill:rgb(158,161,168);fill-rule:nonzero;"/>
        </g>
        <g id="path2562" transform="matrix(1,0,0,1,4,-28)">
            <path d="M86.203,307.877L87.208,307.877L87.208,312.887L87.724,312.887L87.724,313.715L87.208,313.715L87.208,315.919L86.203,315.919L86.203,313.715L84,313.715L84,312.794L86.203,307.877ZM86.203,312.887L86.203,309.512L84.849,312.887L86.203,312.887Z" style="fill:rgb(158,161,168);fill-rule:nonzero;"/>
        </g>
        <g id="path2559" transform="matrix(1,0,0,1,4,-28)">
            <path d="M58.177,310.132L57.146,310.132L57.146,309.919C57.146,309.561 57.175,309.254 57.234,308.997C57.297,308.74 57.392,308.528 57.521,308.361C57.653,308.195 57.819,308.073 58.021,307.997C58.222,307.917 58.464,307.877 58.745,307.877C59.335,307.877 59.766,308.044 60.036,308.377C60.307,308.71 60.443,309.24 60.443,309.965C60.443,310.563 60.38,310.993 60.255,311.257C60.134,311.525 59.899,311.728 59.552,311.867C59.927,311.995 60.186,312.195 60.328,312.465C60.47,312.733 60.542,313.162 60.542,313.752C60.542,314.561 60.389,315.156 60.083,315.538C59.778,315.92 59.302,316.111 58.656,316.111C57.552,316.111 57,315.478 57,314.21L57,314.127L57,314.07C57,314.031 57.002,314.007 57.005,313.997L58.021,313.997C58.017,314.056 58.014,314.108 58.01,314.153L58.01,314.257C58.01,314.531 58.069,314.75 58.187,314.913C58.309,315.077 58.474,315.158 58.682,315.158C58.818,315.158 58.932,315.132 59.026,315.08C59.123,315.025 59.201,314.938 59.26,314.82C59.323,314.698 59.368,314.542 59.396,314.351C59.424,314.16 59.437,313.929 59.437,313.658C59.437,313.169 59.363,312.816 59.213,312.601C59.068,312.386 58.823,312.278 58.479,312.278C58.441,312.278 58.399,312.282 58.354,312.289C58.309,312.292 58.257,312.297 58.198,312.304L58.198,311.367L58.349,311.367C58.769,311.367 59.054,311.276 59.203,311.096C59.352,310.915 59.427,310.573 59.427,310.07C59.427,309.236 59.217,308.82 58.797,308.82C58.38,308.82 58.172,309.176 58.172,309.887L58.177,310.132Z" style="fill:rgb(158,161,168);fill-rule:nonzero;"/>
        </g>
        <g id="g2599" transform="matrix(1,0,0,1,5,274)">
            <path id="path2595" d="M10.214,34.609L11.214,34.609L11.214,40L10.214,40L10.214,34.609ZM10.682,32.318C10.863,32.318 11.019,32.384 11.151,32.516C11.283,32.648 11.349,32.806 11.349,32.99C11.349,33.177 11.283,33.337 11.151,33.469C11.019,33.601 10.859,33.667 10.672,33.667C10.484,33.667 10.325,33.601 10.193,33.469C10.064,33.34 10,33.179 10,32.984C10,32.804 10.066,32.648 10.198,32.516C10.34,32.384 10.502,32.318 10.682,32.318Z" style="fill:rgb(158,161,168);fill-rule:nonzero;"/>
            <path id="path2597" d="M12.339,34.609L13.333,34.609L13.333,35.229C13.618,34.757 13.986,34.521 14.438,34.521C14.875,34.521 15.188,34.693 15.375,35.036C15.479,35.231 15.531,35.608 15.531,36.167L15.531,40L14.536,40L14.531,36.396C14.531,36.031 14.488,35.773 14.401,35.62C14.314,35.467 14.165,35.391 13.953,35.391C13.839,35.391 13.741,35.411 13.661,35.453C13.585,35.491 13.523,35.556 13.474,35.646C13.425,35.733 13.389,35.847 13.365,35.99C13.344,36.132 13.333,36.307 13.333,36.516L13.333,40L12.339,40L12.339,34.609Z" style="fill:rgb(158,161,168);fill-rule:nonzero;"/>
        </g>
        <g id="g2612" transform="matrix(1,0,0,1,0,28)">
            <path id="path2601" d="M38,288L38,280.401L38.995,280.401L38.995,281.099C39.134,280.804 39.276,280.599 39.422,280.484C39.568,280.37 39.759,280.313 39.995,280.313C40.439,280.313 40.764,280.543 40.969,281.005C41.177,281.464 41.281,282.182 41.281,283.161C41.281,284.12 41.175,284.809 40.964,285.229C40.755,285.66 40.42,285.875 39.958,285.875C39.736,285.875 39.554,285.825 39.411,285.724C39.342,285.675 39.273,285.606 39.203,285.516C39.134,285.425 39.064,285.316 38.995,285.188L38.995,288L38,288ZM40.25,283.125C40.25,282.392 40.201,281.896 40.104,281.635C40.01,281.354 39.842,281.214 39.599,281.214C39.37,281.214 39.207,281.359 39.109,281.651C39.012,281.922 38.964,282.405 38.964,283.099C38.964,283.793 39.012,284.276 39.109,284.547C39.21,284.835 39.373,284.979 39.599,284.979C39.835,284.979 40.003,284.84 40.104,284.563C40.201,284.306 40.25,283.826 40.25,283.125Z" style="fill:rgb(158,161,168);fill-rule:nonzero;"/>
            <path id="path2604" d="M42.208,280.401L43.203,280.401L43.203,284.005C43.21,284.339 43.259,284.576 43.349,284.719C43.443,284.861 43.597,284.932 43.812,284.932C44.038,284.932 44.196,284.87 44.286,284.745C44.377,284.613 44.422,284.384 44.422,284.057L44.422,283.625L44.422,280.401L45.417,280.401L45.417,283.625C45.417,284.378 45.361,284.882 45.25,285.135C45.017,285.628 44.535,285.875 43.802,285.875C43.226,285.875 42.816,285.729 42.573,285.438C42.33,285.142 42.208,284.651 42.208,283.964L42.208,280.401Z" style="fill:rgb(158,161,168);fill-rule:nonzero;"/>
            <rect id="path2606" x="46.542" y="276.943" width="0.995" height="8.849" style="fill:rgb(158,161,168);fill-rule:nonzero;"/>
            <path id="path2608" d="M50.75,280.51L50.75,281.443C50.507,281.262 50.252,281.172 49.984,281.172C49.894,281.172 49.811,281.187 49.734,281.219C49.658,281.25 49.59,281.293 49.531,281.349C49.476,281.401 49.431,281.465 49.396,281.542C49.365,281.615 49.349,281.693 49.349,281.776C49.349,282.033 49.582,282.339 50.047,282.693C50.234,282.839 50.391,282.974 50.516,283.099C50.641,283.224 50.736,283.342 50.802,283.453C50.937,283.672 51.005,283.948 51.005,284.281C51.005,284.764 50.865,285.151 50.583,285.443C50.306,285.731 49.932,285.875 49.464,285.875C49.175,285.875 48.884,285.79 48.589,285.62L48.589,284.656C48.877,284.872 49.149,284.979 49.406,284.979C49.861,284.979 50.089,284.755 50.089,284.307C50.089,284.141 50.047,283.997 49.964,283.875C49.925,283.816 49.865,283.748 49.781,283.672C49.698,283.592 49.595,283.504 49.474,283.406C49.054,283.08 48.769,282.806 48.62,282.583C48.474,282.354 48.401,282.078 48.401,281.755C48.401,281.321 48.535,280.965 48.802,280.688C49.073,280.413 49.425,280.276 49.859,280.276C50.165,280.276 50.462,280.354 50.75,280.51L50.75,280.51Z" style="fill:rgb(158,161,168);fill-rule:nonzero;"/>
            <path id="path2610" d="M53.896,283.974L54.823,283.974C54.75,285.241 54.229,285.875 53.26,285.875C52.972,285.875 52.724,285.821 52.516,285.714C52.311,285.606 52.141,285.439 52.005,285.214C51.87,284.988 51.769,284.701 51.703,284.354C51.641,284.007 51.609,283.594 51.609,283.115C51.609,282.163 51.741,281.458 52.005,281C52.273,280.542 52.684,280.313 53.24,280.313C54.319,280.313 54.859,281.264 54.859,283.167L54.859,283.292L52.583,283.292C52.583,284.444 52.812,285.021 53.271,285.021C53.687,285.021 53.896,284.672 53.896,283.974L53.896,283.974ZM53.844,282.573C53.802,282.007 53.738,281.635 53.651,281.458C53.561,281.26 53.415,281.161 53.214,281.161C53.009,281.161 52.863,281.26 52.776,281.458C52.689,281.635 52.625,282.007 52.583,282.573L53.844,282.573Z" style="fill:rgb(158,161,168);fill-rule:nonzero;"/>
        </g>
        <g id="path2614" transform="matrix(1,0,0,1,4,28)">
            <path d="M1,307.877L2.833,307.877L2.833,315.919L1.797,315.919L1.797,308.799L1,308.799L1,307.877Z" style="fill:rgb(158,161,168);fill-rule:nonzero;"/>
        </g>
        <g id="path2618" transform="matrix(1,0,0,1,4,28)">
            <path d="M30.172,310.59L29.109,310.59L29.099,310.273C29.099,309.394 29.231,308.776 29.495,308.419C29.762,308.057 30.21,307.877 30.839,307.877C32.023,307.877 32.615,308.533 32.615,309.846C32.615,310.731 32.172,312.007 31.286,313.674L30.646,314.877C30.642,314.884 30.632,314.905 30.615,314.939C30.597,314.974 30.573,315.024 30.542,315.09L32.531,315.09L32.531,316.018L29,316.018C29.059,315.886 29.182,315.623 29.37,315.231C29.557,314.839 29.813,314.309 30.135,313.643C30.41,313.059 30.639,312.564 30.823,312.158C31.007,311.752 31.146,311.419 31.24,311.158C31.427,310.637 31.521,310.188 31.521,309.809C31.521,309.143 31.29,308.809 30.828,308.809C30.384,308.809 30.161,309.222 30.161,310.049L30.167,310.507L30.172,310.59Z" style="fill:rgb(158,161,168);fill-rule:nonzero;"/>
        </g>
        <g id="path2622" transform="matrix(1,0,0,1,4,28)">
            <path d="M86.203,307.877L87.208,307.877L87.208,312.887L87.724,312.887L87.724,313.715L87.208,313.715L87.208,315.919L86.203,315.919L86.203,313.715L84,313.715L84,312.794L86.203,307.877ZM86.203,312.887L86.203,309.512L84.849,312.887L86.203,312.887Z" style="fill:rgb(158,161,168);fill-rule:nonzero;"/>
        </g>
        <g id="path2626" transform="matrix(1,0,0,1,4,28)">
            <path d="M58.177,310.132L57.146,310.132L57.146,309.919C57.146,309.561 57.175,309.254 57.234,308.997C57.297,308.74 57.392,308.528 57.521,308.361C57.653,308.195 57.819,308.073 58.021,307.997C58.222,307.917 58.464,307.877 58.745,307.877C59.335,307.877 59.766,308.044 60.036,308.377C60.307,308.71 60.443,309.24 60.443,309.965C60.443,310.563 60.38,310.993 60.255,311.257C60.134,311.525 59.899,311.728 59.552,311.867C59.927,311.995 60.186,312.195 60.328,312.465C60.47,312.733 60.542,313.162 60.542,313.752C60.542,314.561 60.389,315.156 60.083,315.538C59.778,315.92 59.302,316.111 58.656,316.111C57.552,316.111 57,315.478 57,314.21L57,314.127L57,314.07C57,314.031 57.002,314.007 57.005,313.997L58.021,313.997C58.017,314.056 58.014,314.108 58.01,314.153L58.01,314.257C58.01,314.531 58.069,314.75 58.187,314.913C58.309,315.077 58.474,315.158 58.682,315.158C58.818,315.158 58.932,315.132 59.026,315.08C59.123,315.025 59.201,314.938 59.26,314.82C59.323,314.698 59.368,314.542 59.396,314.351C59.424,314.16 59.437,313.929 59.437,313.658C59.437,313.169 59.363,312.816 59.213,312.601C59.068,312.386 58.823,312.278 58.479,312.278C58.441,312.278 58.399,312.282 58.354,312.289C58.309,312.292 58.257,312.297 58.198,312.304L58.198,311.367L58.349,311.367C58.769,311.367 59.054,311.276 59.203,311.096C59.352,310.915 59.427,310.573 59.427,310.07C59.427,309.236 59.217,308.82 58.797,308.82C58.38,308.82 58.172,309.176 58.172,309.887L58.177,310.132Z" style="fill:rgb(158,161,168);fill-rule:nonzero;"/>
        </g>
    </g>
</svg>
