<?xml version="1.0" encoding="UTF-8" standalone="no"?>
<!DOCTYPE svg PUBLIC "-//W3C//DTD SVG 1.1//EN" "http://www.w3.org/Graphics/SVG/1.1/DTD/svg11.dtd">
<svg width="100%" height="100%" viewBox="0 0 30 380" version="1.1" xmlns="http://www.w3.org/2000/svg" xmlns:xlink="http://www.w3.org/1999/xlink" xml:space="preserve" xmlns:serif="http://www.serif.com/" style="fill-rule:evenodd;clip-rule:evenodd;stroke-linejoin:round;stroke-miterlimit:2;">
    <g id="Layer-2" serif:id="Layer 2">
        <g id="text989">
        </g>
        <rect id="rect4689" x="-0.264" y="0" width="30" height="380" style="fill:rgb(44,45,48);fill-rule:nonzero;"/>
        <g id="path4726" transform="matrix(0.910303,0,0,1.00002,-7.30911,11.127)">
            <path d="M30,365.865L30,358.14L32.011,358.14L33.067,360.852C33.124,361.012 33.188,361.195 33.259,361.402C33.333,361.609 33.414,361.847 33.502,362.118L33.719,362.798C33.642,362.128 33.583,361.554 33.542,361.077C33.502,360.6 33.482,360.2 33.482,359.876L33.482,358.14L35.493,358.14L35.493,365.865L33.482,365.865L32.42,363.023C32.309,362.72 32.208,362.436 32.117,362.173C32.03,361.906 31.952,361.652 31.885,361.412C31.929,361.956 31.961,362.429 31.981,362.833C32.001,363.237 32.011,363.59 32.011,363.894L32.011,365.865L30,365.865Z" style="fill:rgb(158,161,168);fill-rule:nonzero;"/>
        </g>
        <g id="text4987">
        </g>
        <g id="text1042">
        </g>
        <g id="text972" transform="matrix(0.967031,0,0,1.03409,0,-24)">
            <path id="path1104" d="M8.79,64.868L9.793,64.868C10.209,64.868 10.518,64.967 10.72,65.165C10.977,65.421 11.105,65.813 11.105,66.341C11.105,66.746 11.036,67.072 10.9,67.319C10.765,67.563 10.572,67.714 10.321,67.773L11.361,70.524L10.588,70.524L9.552,67.754L9.552,70.524L8.79,70.524L8.79,64.868ZM9.552,67.374C9.847,67.374 10.056,67.305 10.178,67.168C10.3,67.032 10.361,66.801 10.361,66.476C10.361,66.3 10.348,66.15 10.321,66.026C10.297,65.901 10.256,65.8 10.2,65.722C10.146,65.643 10.075,65.586 9.988,65.549C9.902,65.513 9.8,65.494 9.68,65.494L9.552,65.494L9.552,67.374Z" style="fill:rgb(158,161,168);fill-rule:nonzero;"/>
            <path id="path1106" d="M11.955,64.868L13.98,64.868L13.98,65.513L12.717,65.513L12.717,67.304L13.837,67.304L13.837,67.949L12.717,67.949L12.717,69.879L13.98,69.879L13.98,70.524L11.955,70.524L11.955,64.868Z" style="fill:rgb(158,161,168);fill-rule:nonzero;"/>
            <path id="path1108" d="M16.566,64.985L16.566,65.729C16.334,65.563 16.126,65.48 15.94,65.48C15.74,65.48 15.576,65.551 15.449,65.692C15.322,65.827 15.259,66.006 15.259,66.231C15.259,66.428 15.304,66.598 15.394,66.74C15.441,66.816 15.516,66.913 15.621,67.033C15.729,67.153 15.867,67.297 16.035,67.465C16.345,67.78 16.557,68.052 16.669,68.282C16.781,68.504 16.837,68.776 16.837,69.099C16.837,69.536 16.714,69.896 16.467,70.179C16.221,70.455 15.905,70.593 15.519,70.593C15.194,70.593 14.917,70.504 14.687,70.326L14.687,69.571C14.958,69.769 15.205,69.868 15.427,69.868C15.635,69.868 15.797,69.8 15.914,69.663C16.032,69.524 16.09,69.336 16.09,69.099C16.09,68.894 16.045,68.709 15.955,68.546C15.908,68.468 15.843,68.378 15.76,68.278C15.677,68.176 15.574,68.062 15.449,67.938C15.256,67.747 15.096,67.579 14.969,67.432C14.842,67.286 14.748,67.157 14.687,67.048C14.57,66.833 14.511,66.562 14.511,66.234C14.511,65.792 14.626,65.442 14.856,65.183C15.088,64.922 15.399,64.791 15.79,64.791C16.061,64.791 16.32,64.856 16.566,64.985L16.566,64.985Z" style="fill:rgb(158,161,168);fill-rule:nonzero;"/>
            <path id="path1110" d="M17.478,64.868L19.504,64.868L19.504,65.513L18.24,65.513L18.24,67.304L19.361,67.304L19.361,67.949L18.24,67.949L18.24,69.879L19.504,69.879L19.504,70.524L17.478,70.524L17.478,64.868Z" style="fill:rgb(158,161,168);fill-rule:nonzero;"/>
            <path id="path1112" d="M19.753,64.868L22.233,64.868L22.233,65.535L21.38,65.535L21.38,70.524L20.632,70.524L20.632,65.535L19.753,65.535L19.753,64.868Z" style="fill:rgb(158,161,168);fill-rule:nonzero;"/>
        </g>
        <g id="text1033" transform="matrix(0.703909,0,0,0.87969,4.2,2.51946)">
            <path id="path1465" d="M2.603,15.673L2.603,11.969C3.229,12.824 3.906,13.252 4.635,13.252C4.91,13.252 5.134,13.181 5.307,13.038C5.48,12.89 5.566,12.707 5.566,12.488C5.566,12.172 5.378,11.864 5.001,11.564L4.482,11.159C4.136,10.899 3.84,10.642 3.596,10.388C3.351,10.128 3.153,9.863 3,9.593C2.847,9.318 2.735,9.036 2.664,8.745C2.593,8.455 2.557,8.15 2.557,7.829C2.557,7.279 2.684,6.704 2.939,6.103C3.066,5.823 3.214,5.568 3.382,5.339C3.55,5.105 3.744,4.899 3.963,4.72C4.563,4.211 5.289,3.957 6.139,3.957C6.898,3.957 7.662,4.158 8.431,4.56L8.431,8.165C8.171,7.763 7.876,7.447 7.545,7.218C7.214,6.984 6.888,6.867 6.567,6.867C6.323,6.867 6.121,6.938 5.964,7.08C5.801,7.218 5.719,7.383 5.719,7.577C5.719,7.893 5.936,8.206 6.368,8.516L6.873,8.891C7.545,9.374 8.026,9.871 8.316,10.38C8.611,10.889 8.759,11.485 8.759,12.167C8.759,13.328 8.405,14.285 7.697,15.039C6.99,15.793 6.093,16.169 5.009,16.169C4.26,16.169 3.458,16.004 2.603,15.673Z" style="fill:rgb(158,161,168);fill-rule:nonzero;"/>
            <path id="path1467" d="M18.803,16.192L16.244,17.598L15.152,16.017C14.785,16.119 14.47,16.169 14.205,16.169C12.942,16.169 11.891,15.655 11.05,14.627C10.154,13.532 9.706,12.02 9.706,10.09C9.706,8.221 10.114,6.734 10.928,5.629C11.743,4.514 12.833,3.957 14.197,3.957C15.526,3.957 16.606,4.509 17.436,5.614C18.266,6.719 18.681,8.157 18.681,9.929C18.681,11.951 18.235,13.499 17.344,14.573L18.803,16.192ZM15.381,10.128C15.381,9.624 15.353,9.173 15.297,8.776C15.241,8.379 15.162,8.045 15.06,7.775C14.958,7.501 14.831,7.292 14.678,7.149C14.531,7.002 14.363,6.928 14.174,6.928C13.818,6.928 13.533,7.213 13.319,7.783C13.11,8.394 13.006,9.16 13.006,10.082C13.006,10.571 13.031,11.009 13.082,11.396C13.138,11.783 13.214,12.109 13.311,12.373C13.413,12.638 13.538,12.842 13.685,12.984C13.833,13.122 13.999,13.191 14.182,13.191C14.37,13.191 14.538,13.122 14.686,12.984C14.834,12.847 14.958,12.646 15.06,12.381C15.167,12.116 15.246,11.796 15.297,11.419C15.353,11.042 15.381,10.612 15.381,10.128L15.381,10.128Z" style="fill:rgb(158,161,168);fill-rule:nonzero;"/>
            <path id="path1469" d="M27.976,15.963L19.857,15.963L23.08,11.663C23.447,11.174 23.755,10.739 24.004,10.357C24.254,9.97 24.45,9.629 24.592,9.334C24.872,8.779 25.012,8.208 25.012,7.623C25.012,7.302 24.946,7.047 24.814,6.859C24.681,6.671 24.501,6.576 24.272,6.576C23.762,6.576 23.508,7.055 23.508,8.012L23.508,8.196C23.513,8.267 23.518,8.351 23.523,8.448L20.43,8.448L20.414,8.02C20.414,6.833 20.781,5.861 21.514,5.102C22.253,4.338 23.197,3.957 24.348,3.957C25.458,3.957 26.364,4.318 27.067,5.041C27.775,5.749 28.129,6.673 28.129,7.814C28.129,8.73 27.887,9.621 27.403,10.487C27.159,10.92 26.84,11.375 26.448,11.854C26.061,12.328 25.59,12.827 25.035,13.351C25.514,13.315 25.995,13.29 26.479,13.275C26.968,13.259 27.467,13.252 27.976,13.252L27.976,15.963Z" style="fill:rgb(158,161,168);fill-rule:nonzero;"/>
        </g>
        <g id="text1106" transform="matrix(0.958319,0,0,1.04349,0,0)">
            <path id="path1420" d="M1.043,110.283L1.748,110.283L2.499,112.519C2.717,113.151 2.909,113.825 3.076,114.541C3.016,114.108 2.971,113.716 2.942,113.365C2.913,113.014 2.898,112.684 2.898,112.374L2.898,110.283L3.657,110.283L3.657,115.888L2.949,115.888L2.103,113.365C2.026,113.13 1.952,112.889 1.882,112.642C1.814,112.396 1.751,112.137 1.693,111.866C1.688,111.832 1.68,111.791 1.668,111.742C1.658,111.694 1.646,111.638 1.632,111.575C1.639,111.638 1.645,111.693 1.65,111.739C1.655,111.782 1.658,111.82 1.661,111.851L1.701,112.421L1.74,113.114C1.743,113.153 1.744,113.2 1.744,113.256C1.747,113.312 1.748,113.374 1.748,113.445L1.788,115.888L1.043,115.888L1.043,110.283Z" style="fill:rgb(158,161,168);fill-rule:nonzero;"/>
            <path id="path1422" d="M4.528,110.283L5.269,110.283L5.269,114.243C5.269,114.647 5.305,114.916 5.378,115.049C5.453,115.182 5.6,115.249 5.821,115.249C6.041,115.249 6.186,115.191 6.256,115.074C6.329,114.956 6.365,114.715 6.365,114.352L6.365,110.283L7.106,110.283L7.106,114.352C7.106,114.962 7.012,115.375 6.826,115.59C6.603,115.834 6.263,115.957 5.806,115.957C5.303,115.957 4.948,115.799 4.742,115.485C4.6,115.269 4.528,114.855 4.528,114.243L4.528,110.283Z" style="fill:rgb(158,161,168);fill-rule:nonzero;"/>
            <path id="path1424" d="M8.235,110.283L8.881,110.283L9.374,112.57C9.435,112.855 9.489,113.142 9.538,113.43C9.589,113.716 9.634,114.016 9.676,114.33C9.68,114.289 9.684,114.258 9.687,114.236C9.689,114.212 9.691,114.195 9.694,114.185L9.799,113.543L9.893,112.933L9.977,112.53L10.416,110.283L11.07,110.283L11.585,115.888L10.863,115.888L10.736,113.985C10.731,113.889 10.726,113.805 10.721,113.735C10.719,113.665 10.717,113.607 10.717,113.561L10.685,112.809L10.667,112.12C10.667,112.115 10.665,112.105 10.663,112.091C10.663,112.074 10.662,112.052 10.659,112.025L10.641,112.138C10.622,112.271 10.604,112.387 10.587,112.486C10.572,112.585 10.559,112.669 10.547,112.737L10.452,113.249L10.416,113.441L9.944,115.888L9.436,115.888L8.993,113.775C8.933,113.497 8.878,113.215 8.83,112.929C8.784,112.641 8.742,112.34 8.703,112.025L8.485,115.888L7.774,115.888L8.235,110.283Z" style="fill:rgb(158,161,168);fill-rule:nonzero;"/>
            <path id="path1426" d="M15.618,110.399L15.618,111.136C15.388,110.971 15.181,110.889 14.997,110.889C14.799,110.889 14.637,110.959 14.511,111.1C14.385,111.233 14.322,111.411 14.322,111.633C14.322,111.829 14.367,111.997 14.456,112.138C14.502,112.213 14.577,112.31 14.681,112.428C14.788,112.547 14.925,112.69 15.092,112.857C15.399,113.169 15.608,113.439 15.72,113.666C15.831,113.886 15.887,114.156 15.887,114.476C15.887,114.909 15.764,115.266 15.52,115.546C15.275,115.82 14.962,115.957 14.58,115.957C14.258,115.957 13.983,115.868 13.756,115.692L13.756,114.944C14.024,115.14 14.269,115.238 14.489,115.238C14.695,115.238 14.856,115.17 14.972,115.035C15.088,114.897 15.146,114.71 15.146,114.476C15.146,114.272 15.101,114.09 15.012,113.927C14.966,113.85 14.902,113.762 14.819,113.662C14.737,113.561 14.634,113.448 14.511,113.325C14.32,113.136 14.161,112.969 14.035,112.824C13.909,112.679 13.816,112.552 13.756,112.443C13.64,112.23 13.581,111.961 13.581,111.637C13.581,111.199 13.695,110.852 13.923,110.595C14.153,110.336 14.461,110.207 14.848,110.207C15.117,110.207 15.374,110.271 15.618,110.399L15.618,110.399Z" style="fill:rgb(158,161,168);fill-rule:nonzero;"/>
            <path id="path1428" d="M16.162,110.283L18.62,110.283L18.62,110.944L17.774,110.944L17.774,115.888L17.034,115.888L17.034,110.944L16.162,110.944L16.162,110.283Z" style="fill:rgb(158,161,168);fill-rule:nonzero;"/>
            <path id="path1430" d="M19.731,110.283L20.319,110.283L21.52,115.888L20.773,115.888L20.562,114.795L19.451,114.795L19.237,115.888L18.511,115.888L19.731,110.283ZM20.453,114.211L20.286,113.318C20.175,112.71 20.084,112.062 20.014,111.372C19.98,111.708 19.936,112.049 19.883,112.396C19.83,112.739 19.767,113.105 19.694,113.492L19.556,114.211L20.453,114.211Z" style="fill:rgb(158,161,168);fill-rule:nonzero;"/>
            <path id="path1432" d="M23.295,112.94L24.668,112.94L24.668,113.158C24.668,114.249 24.572,114.986 24.381,115.369C24.192,115.761 23.839,115.957 23.321,115.957C22.786,115.957 22.405,115.739 22.177,115.303C21.952,114.868 21.84,114.136 21.84,113.107C21.84,111.931 21.963,111.148 22.21,110.758C22.442,110.393 22.799,110.21 23.281,110.21C23.649,110.21 23.935,110.299 24.141,110.475C24.349,110.654 24.511,110.948 24.628,111.357L23.923,111.651C23.892,111.504 23.857,111.38 23.818,111.281C23.779,111.18 23.737,111.101 23.691,111.045C23.599,110.931 23.461,110.875 23.277,110.875C23.026,110.875 22.854,111.03 22.762,111.339C22.67,111.664 22.624,112.246 22.624,113.085C22.624,113.935 22.671,114.509 22.765,114.81C22.86,115.11 23.038,115.26 23.299,115.26C23.539,115.26 23.707,115.153 23.804,114.94C23.903,114.713 23.952,114.347 23.952,113.844L23.952,113.691L23.952,113.579L23.295,113.579L23.295,112.94Z" style="fill:rgb(158,161,168);fill-rule:nonzero;"/>
            <path id="path1434" d="M25.423,110.283L27.43,110.283L27.43,110.922L26.178,110.922L26.178,112.697L27.288,112.697L27.288,113.336L26.178,113.336L26.178,115.249L27.43,115.249L27.43,115.888L25.423,115.888L25.423,110.283Z" style="fill:rgb(158,161,168);fill-rule:nonzero;"/>
            <path id="path1436" d="M29.993,110.399L29.993,111.136C29.763,110.971 29.556,110.889 29.372,110.889C29.174,110.889 29.011,110.959 28.886,111.1C28.76,111.233 28.697,111.411 28.697,111.633C28.697,111.829 28.742,111.997 28.831,112.138C28.877,112.213 28.952,112.31 29.056,112.428C29.163,112.547 29.299,112.69 29.466,112.857C29.774,113.169 29.983,113.439 30.094,113.666C30.206,113.886 30.261,114.156 30.261,114.476C30.261,114.909 30.139,115.266 29.895,115.546C29.65,115.82 29.337,115.957 28.955,115.957C28.633,115.957 28.358,115.868 28.131,115.692L28.131,114.944C28.399,115.14 28.644,115.238 28.864,115.238C29.069,115.238 29.23,115.17 29.347,115.035C29.463,114.897 29.521,114.71 29.521,114.476C29.521,114.272 29.476,114.09 29.386,113.927C29.341,113.85 29.276,113.762 29.194,113.662C29.112,113.561 29.009,113.448 28.886,113.325C28.694,113.136 28.536,112.969 28.41,112.824C28.284,112.679 28.191,112.552 28.131,112.443C28.014,112.23 27.956,111.961 27.956,111.637C27.956,111.199 28.07,110.852 28.297,110.595C28.527,110.336 28.836,110.207 29.223,110.207C29.492,110.207 29.748,110.271 29.993,110.399L29.993,110.399Z" style="fill:rgb(158,161,168);fill-rule:nonzero;"/>
        </g>
        <g id="text1110" transform="matrix(0.981071,0,0,1.01929,0,-1)">
            <path id="path1401" d="M3.387,136.54L3.387,137.235C3.188,137.138 3.022,137.09 2.889,137.09C2.705,137.09 2.548,137.136 2.417,137.227C2.285,137.316 2.176,137.455 2.09,137.643C2.005,137.832 1.942,138.071 1.9,138.361C1.86,138.648 1.841,138.989 1.841,139.383C1.841,140.8 2.204,141.508 2.929,141.508C3.056,141.508 3.208,141.469 3.387,141.389L3.387,142.099C3.201,142.203 2.993,142.255 2.762,142.255C1.6,142.255 1.019,141.306 1.019,139.409C1.019,138.383 1.161,137.62 1.443,137.12C1.728,136.619 2.163,136.369 2.747,136.369C2.963,136.369 3.176,136.426 3.387,136.54L3.387,136.54Z" style="fill:rgb(158,161,168);fill-rule:nonzero;"/>
            <path id="path1403" d="M4.033,136.447L4.791,136.447L4.791,140.501C4.791,140.915 4.828,141.19 4.903,141.326C4.979,141.462 5.131,141.531 5.356,141.531C5.582,141.531 5.73,141.471 5.802,141.352C5.876,141.231 5.913,140.984 5.913,140.613L5.913,136.447L6.672,136.447L6.672,140.613C6.672,141.237 6.576,141.659 6.385,141.88C6.158,142.13 5.809,142.255 5.341,142.255C4.826,142.255 4.463,142.094 4.252,141.772C4.106,141.552 4.033,141.128 4.033,140.501L4.033,136.447Z" style="fill:rgb(158,161,168);fill-rule:nonzero;"/>
            <path id="path1405" d="M7.556,136.447L8.574,136.447C8.995,136.447 9.309,136.547 9.514,136.748C9.775,137.008 9.905,137.406 9.905,137.941C9.905,138.352 9.835,138.683 9.697,138.933C9.56,139.181 9.365,139.334 9.109,139.394L10.165,142.185L9.381,142.185L8.329,139.375L8.329,142.185L7.556,142.185L7.556,136.447ZM8.329,138.989C8.629,138.989 8.841,138.919 8.964,138.781C9.088,138.642 9.15,138.408 9.15,138.078C9.15,137.9 9.137,137.748 9.109,137.621C9.085,137.495 9.044,137.392 8.987,137.313C8.932,137.233 8.86,137.175 8.771,137.138C8.685,137.101 8.58,137.082 8.459,137.082L8.329,137.082L8.329,138.989Z" style="fill:rgb(158,161,168);fill-rule:nonzero;"/>
            <path id="path1407" d="M10.767,136.447L11.785,136.447C12.206,136.447 12.52,136.547 12.725,136.748C12.985,137.008 13.115,137.406 13.115,137.941C13.115,138.352 13.046,138.683 12.907,138.933C12.771,139.181 12.575,139.334 12.32,139.394L13.376,142.185L12.591,142.185L11.54,139.375L11.54,142.185L10.767,142.185L10.767,136.447ZM11.54,138.989C11.84,138.989 12.051,138.919 12.175,138.781C12.299,138.642 12.361,138.408 12.361,138.078C12.361,137.9 12.347,137.748 12.32,137.621C12.295,137.495 12.255,137.392 12.198,137.313C12.143,137.233 12.071,137.175 11.982,137.138C11.895,137.101 11.791,137.082 11.67,137.082L11.54,137.082L11.54,138.989Z" style="fill:rgb(158,161,168);fill-rule:nonzero;"/>
            <path id="path1409" d="M17.467,136.566L17.467,137.32C17.232,137.152 17.02,137.067 16.832,137.067C16.628,137.067 16.462,137.139 16.334,137.283C16.205,137.419 16.14,137.601 16.14,137.829C16.14,138.03 16.186,138.202 16.278,138.346C16.325,138.423 16.402,138.522 16.508,138.643C16.617,138.765 16.757,138.911 16.928,139.082C17.243,139.401 17.457,139.677 17.571,139.91C17.685,140.136 17.742,140.412 17.742,140.739C17.742,141.183 17.617,141.548 17.367,141.835C17.117,142.115 16.796,142.255 16.404,142.255C16.075,142.255 15.794,142.165 15.561,141.984L15.561,141.218C15.836,141.419 16.086,141.519 16.311,141.519C16.522,141.519 16.687,141.45 16.806,141.311C16.925,141.17 16.984,140.979 16.984,140.739C16.984,140.531 16.938,140.344 16.846,140.178C16.799,140.099 16.734,140.008 16.65,139.907C16.565,139.803 16.46,139.687 16.334,139.561C16.138,139.368 15.976,139.197 15.847,139.048C15.718,138.9 15.623,138.769 15.561,138.658C15.442,138.44 15.382,138.165 15.382,137.833C15.382,137.385 15.499,137.029 15.732,136.766C15.967,136.501 16.283,136.369 16.679,136.369C16.954,136.369 17.217,136.434 17.467,136.566L17.467,136.566Z" style="fill:rgb(158,161,168);fill-rule:nonzero;"/>
            <path id="path1411" d="M18.025,136.447L20.54,136.447L20.54,137.123L19.675,137.123L19.675,142.185L18.916,142.185L18.916,137.123L18.025,137.123L18.025,136.447Z" style="fill:rgb(158,161,168);fill-rule:nonzero;"/>
            <path id="path1413" d="M21.678,136.447L22.28,136.447L23.51,142.185L22.744,142.185L22.529,141.066L21.391,141.066L21.172,142.185L20.429,142.185L21.678,136.447ZM22.417,140.468L22.246,139.554C22.132,138.932 22.039,138.268 21.967,137.562C21.933,137.906 21.888,138.255 21.834,138.61C21.779,138.961 21.715,139.336 21.64,139.732L21.499,140.468L22.417,140.468Z" style="fill:rgb(158,161,168);fill-rule:nonzero;"/>
            <path id="path1415" d="M25.327,139.167L26.732,139.167L26.732,139.39C26.732,140.507 26.634,141.262 26.438,141.653C26.245,142.055 25.883,142.255 25.353,142.255C24.805,142.255 24.415,142.032 24.182,141.586C23.952,141.14 23.837,140.391 23.837,139.338C23.837,138.134 23.963,137.333 24.216,136.934C24.454,136.56 24.819,136.373 25.312,136.373C25.689,136.373 25.982,136.463 26.193,136.644C26.406,136.827 26.572,137.128 26.691,137.547L25.97,137.848C25.938,137.697 25.902,137.57 25.862,137.469C25.822,137.365 25.779,137.284 25.732,137.227C25.638,137.111 25.497,137.053 25.308,137.053C25.051,137.053 24.875,137.211 24.781,137.528C24.686,137.86 24.639,138.456 24.639,139.316C24.639,140.185 24.688,140.774 24.784,141.081C24.881,141.388 25.063,141.542 25.331,141.542C25.576,141.542 25.748,141.433 25.847,141.215C25.949,140.982 25.999,140.608 25.999,140.092L25.999,139.936L25.999,139.821L25.327,139.821L25.327,139.167Z" style="fill:rgb(158,161,168);fill-rule:nonzero;"/>
            <path id="path1417" d="M27.504,136.447L29.56,136.447L29.56,137.101L28.277,137.101L28.277,138.918L29.415,138.918L29.415,139.572L28.277,139.572L28.277,141.531L29.56,141.531L29.56,142.185L27.504,142.185L27.504,136.447Z" style="fill:rgb(158,161,168);fill-rule:nonzero;"/>
        </g>
        <g id="text1093" transform="matrix(0.997972,0,0,1.00203,0,-2)">
            <path id="path1362" d="M9.018,162.749L9.752,162.749L10.534,165.078C10.761,165.735 10.961,166.437 11.135,167.183C11.072,166.732 11.026,166.324 10.995,165.958C10.965,165.593 10.95,165.249 10.95,164.926L10.95,162.749L11.74,162.749L11.74,168.585L11.003,168.585L10.122,165.958C10.041,165.714 9.965,165.463 9.891,165.206C9.821,164.949 9.755,164.679 9.695,164.397C9.69,164.362 9.681,164.319 9.668,164.269C9.658,164.218 9.646,164.16 9.631,164.095C9.638,164.16 9.645,164.217 9.65,164.265C9.655,164.31 9.658,164.349 9.661,164.382L9.702,164.975L9.744,165.697C9.747,165.738 9.748,165.787 9.748,165.845C9.75,165.903 9.752,165.968 9.752,166.041L9.793,168.585L9.018,168.585L9.018,162.749Z" style="fill:rgb(158,161,168);fill-rule:nonzero;"/>
            <path id="path1364" d="M15.584,165.811C15.584,166.842 15.47,167.574 15.24,168.007C15.011,168.441 14.627,168.657 14.087,168.657C13.52,168.657 13.121,168.424 12.889,167.958C12.66,167.502 12.545,166.692 12.545,165.527C12.545,164.489 12.658,163.755 12.885,163.324C13.115,162.89 13.503,162.673 14.05,162.673C14.538,162.673 14.901,162.841 15.138,163.176C15.294,163.4 15.408,163.719 15.478,164.133C15.549,164.516 15.584,165.075 15.584,165.811L15.584,165.811ZM14.76,165.894C14.76,164.884 14.715,164.213 14.624,163.883C14.533,163.55 14.348,163.384 14.068,163.384C13.789,163.384 13.602,163.537 13.509,163.841C13.418,164.149 13.373,164.766 13.373,165.694C13.373,166.548 13.421,167.14 13.517,167.47C13.615,167.783 13.799,167.939 14.068,167.939C14.333,167.939 14.515,167.793 14.613,167.501C14.711,167.211 14.76,166.675 14.76,165.894L14.76,165.894Z" style="fill:rgb(158,161,168);fill-rule:nonzero;"/>
            <path id="path1366" d="M15.962,162.749L18.521,162.749L18.521,163.437L17.641,163.437L17.641,168.585L16.869,168.585L16.869,163.437L15.962,163.437L15.962,162.749Z" style="fill:rgb(158,161,168);fill-rule:nonzero;"/>
            <path id="path1368" d="M18.952,162.749L21.043,162.749L21.043,163.414L19.739,163.414L19.739,165.263L20.895,165.263L20.895,165.928L19.739,165.928L19.739,167.92L21.043,167.92L21.043,168.585L18.952,168.585L18.952,162.749Z" style="fill:rgb(158,161,168);fill-rule:nonzero;"/>
        </g>
        <g id="text1103" transform="matrix(0.975592,0,0,1.02502,0,-3)">
            <path id="path1345" d="M13.629,182.606L13.629,183.297C13.432,183.201 13.267,183.153 13.134,183.153C12.952,183.153 12.795,183.198 12.665,183.289C12.534,183.378 12.426,183.516 12.339,183.703C12.256,183.891 12.193,184.128 12.151,184.417C12.112,184.702 12.092,185.041 12.092,185.433C12.092,186.842 12.453,187.547 13.175,187.547C13.3,187.547 13.452,187.507 13.629,187.428L13.629,188.134C13.444,188.238 13.237,188.289 13.008,188.289C11.853,188.289 11.275,187.346 11.275,185.459C11.275,184.439 11.416,183.68 11.696,183.182C11.98,182.685 12.412,182.436 12.994,182.436C13.208,182.436 13.42,182.492 13.629,182.606L13.629,182.606Z" style="fill:rgb(158,161,168);fill-rule:nonzero;"/>
            <path id="path1347" d="M13.818,182.513L14.575,182.513L14.919,184.62L14.978,185L15.1,185.828C15.12,185.969 15.137,186.097 15.152,186.212C15.169,186.328 15.184,186.433 15.196,186.527L15.233,186.807C15.24,186.751 15.247,186.7 15.252,186.656C15.256,186.612 15.261,186.575 15.266,186.545L15.366,185.884L15.495,185.015C15.508,184.936 15.519,184.864 15.529,184.797C15.541,184.731 15.552,184.672 15.562,184.62L15.931,182.513L16.648,182.513L15.529,188.219L14.919,188.219L13.818,182.513Z" style="fill:rgb(158,161,168);fill-rule:nonzero;"/>
            <path id="path1349" d="M17.742,184.368L16.988,184.368L16.981,184.143C16.981,183.52 17.075,183.081 17.262,182.827C17.451,182.571 17.769,182.443 18.215,182.443C19.055,182.443 19.475,182.909 19.475,183.84C19.475,184.468 19.161,185.374 18.533,186.556L18.078,187.41C18.076,187.415 18.069,187.43 18.056,187.454C18.044,187.479 18.027,187.515 18.005,187.561L19.416,187.561L19.416,188.219L16.911,188.219C16.953,188.125 17.04,187.939 17.173,187.661C17.306,187.383 17.487,187.007 17.716,186.534C17.911,186.12 18.074,185.769 18.204,185.481C18.335,185.193 18.433,184.956 18.5,184.771C18.633,184.402 18.699,184.083 18.699,183.814C18.699,183.341 18.535,183.105 18.208,183.105C17.892,183.105 17.735,183.398 17.735,183.984L17.738,184.309L17.742,184.368Z" style="fill:rgb(158,161,168);fill-rule:nonzero;"/>
        </g>
        <g id="text1112" transform="matrix(0.981925,0,0,1.01841,0,-4)">
            <path id="path1336" d="M11.166,209.987L12.572,209.987L12.572,210.21C12.572,211.329 12.474,212.084 12.278,212.475C12.085,212.877 11.723,213.078 11.192,213.078C10.644,213.078 10.254,212.855 10.021,212.408C9.79,211.962 9.675,211.212 9.675,210.158C9.675,208.953 9.801,208.151 10.054,207.752C10.292,207.377 10.658,207.19 11.151,207.19C11.528,207.19 11.822,207.281 12.033,207.462C12.246,207.645 12.412,207.947 12.531,208.366L11.81,208.667C11.778,208.516 11.742,208.389 11.702,208.287C11.662,208.183 11.619,208.103 11.572,208.046C11.477,207.929 11.336,207.871 11.148,207.871C10.89,207.871 10.714,208.03 10.62,208.347C10.525,208.679 10.478,209.276 10.478,210.136C10.478,211.006 10.527,211.595 10.623,211.903C10.72,212.21 10.902,212.364 11.17,212.364C11.415,212.364 11.588,212.255 11.687,212.037C11.789,211.803 11.839,211.429 11.839,210.913L11.839,210.757L11.839,210.642L11.166,210.642L11.166,209.987Z" style="fill:rgb(158,161,168);fill-rule:nonzero;"/>
            <path id="path1338" d="M14.164,207.265L14.767,207.265L15.998,213.007L15.231,213.007L15.016,211.888L13.878,211.888L13.658,213.007L12.914,213.007L14.164,207.265ZM14.904,211.289L14.733,210.374C14.619,209.752 14.526,209.087 14.454,208.38C14.419,208.725 14.375,209.075 14.32,209.429C14.266,209.781 14.201,210.156 14.127,210.553L13.986,211.289L14.904,211.289Z" style="fill:rgb(158,161,168);fill-rule:nonzero;"/>
            <path id="path1340" d="M15.879,207.265L18.397,207.265L18.397,207.942L17.53,207.942L17.53,213.007L16.771,213.007L16.771,207.942L15.879,207.942L15.879,207.265Z" style="fill:rgb(158,161,168);fill-rule:nonzero;"/>
            <path id="path1342" d="M18.821,207.265L20.877,207.265L20.877,207.919L19.594,207.919L19.594,209.738L20.732,209.738L20.732,210.393L19.594,210.393L19.594,212.353L20.877,212.353L20.877,213.007L18.821,213.007L18.821,207.265Z" style="fill:rgb(158,161,168);fill-rule:nonzero;"/>
        </g>
        <g id="text1140" transform="matrix(0.879284,0,0,1.13729,0,-12.0004)">
            <path id="path1255" d="M1.137,248.908L1.783,248.908L2.473,250.959C2.673,251.539 2.849,252.157 3.002,252.814C2.947,252.417 2.906,252.057 2.879,251.735C2.853,251.413 2.839,251.11 2.839,250.826L2.839,248.908L3.535,248.908L3.535,254.05L2.886,254.05L2.11,251.735C2.039,251.52 1.971,251.299 1.907,251.073C1.844,250.846 1.787,250.608 1.733,250.36C1.729,250.329 1.721,250.291 1.71,250.247C1.701,250.202 1.69,250.151 1.677,250.093C1.684,250.151 1.689,250.201 1.694,250.243C1.698,250.283 1.701,250.318 1.703,250.346L1.74,250.869L1.777,251.506C1.779,251.541 1.78,251.584 1.78,251.635C1.782,251.687 1.783,251.744 1.783,251.809L1.82,254.05L1.137,254.05L1.137,248.908Z" style="fill:rgb(158,161,168);fill-rule:nonzero;"/>
            <path id="path1257" d="M4.335,248.908L5.014,248.908L5.014,252.541C5.014,252.912 5.047,253.159 5.114,253.281C5.183,253.403 5.318,253.464 5.52,253.464C5.722,253.464 5.856,253.411 5.92,253.304C5.987,253.195 6.02,252.974 6.02,252.641L6.02,248.908L6.699,248.908L6.699,252.641C6.699,253.201 6.614,253.579 6.443,253.777C6.239,254.001 5.927,254.113 5.507,254.113C5.045,254.113 4.72,253.969 4.531,253.68C4.4,253.483 4.335,253.103 4.335,252.541L4.335,248.908Z" style="fill:rgb(158,161,168);fill-rule:nonzero;"/>
            <path id="path1259" d="M7.735,248.908L8.328,248.908L8.781,251.006C8.837,251.268 8.887,251.531 8.931,251.795C8.978,252.057 9.02,252.333 9.058,252.621C9.062,252.584 9.065,252.555 9.067,252.535C9.07,252.513 9.072,252.497 9.074,252.488L9.171,251.899L9.257,251.339L9.334,250.969L9.737,248.908L10.336,248.908L10.809,254.05L10.147,254.05L10.03,252.305C10.026,252.216 10.021,252.139 10.017,252.075C10.015,252.011 10.013,251.957 10.013,251.915L9.983,251.226L9.967,250.593C9.967,250.588 9.966,250.58 9.963,250.566C9.963,250.551 9.962,250.531 9.96,250.507L9.943,250.61C9.926,250.732 9.909,250.838 9.893,250.93C9.88,251.021 9.868,251.097 9.857,251.159L9.77,251.629L9.737,251.806L9.304,254.05L8.838,254.05L8.431,252.112C8.376,251.856 8.326,251.598 8.281,251.336C8.239,251.071 8.2,250.795 8.165,250.506L7.965,254.05L7.312,254.05L7.735,248.908Z" style="fill:rgb(158,161,168);fill-rule:nonzero;"/>
            <path id="path1261" d="M12.794,248.908L13.707,248.908C14.147,248.908 14.466,249.019 14.666,249.241C14.866,249.465 14.966,249.82 14.966,250.307C14.966,250.99 14.765,251.432 14.363,251.632C14.161,251.723 13.869,251.769 13.487,251.769L13.487,254.05L12.794,254.05L12.794,248.908ZM13.487,251.176C13.774,251.176 13.971,251.118 14.08,251.003C14.191,250.885 14.247,250.676 14.247,250.376C14.247,250.07 14.193,249.846 14.087,249.704C13.98,249.562 13.813,249.491 13.584,249.491L13.487,249.491L13.487,251.176Z" style="fill:rgb(158,161,168);fill-rule:nonzero;"/>
            <path id="path1263" d="M16.072,248.908L16.611,248.908L17.714,254.05L17.028,254.05L16.835,253.048L15.815,253.048L15.619,254.05L14.953,254.05L16.072,248.908ZM16.735,252.511L16.581,251.692C16.479,251.135 16.396,250.54 16.332,249.907C16.301,250.215 16.261,250.529 16.212,250.846C16.163,251.161 16.105,251.497 16.038,251.852L15.912,252.511L16.735,252.511Z" style="fill:rgb(158,161,168);fill-rule:nonzero;"/>
            <path id="path1265" d="M17.607,248.908L19.862,248.908L19.862,249.514L19.086,249.514L19.086,254.05L18.407,254.05L18.407,249.514L17.607,249.514L17.607,248.908Z" style="fill:rgb(158,161,168);fill-rule:nonzero;"/>
            <path id="path1267" d="M19.832,248.908L22.087,248.908L22.087,249.514L21.311,249.514L21.311,254.05L20.631,254.05L20.631,249.514L19.832,249.514L19.832,248.908Z" style="fill:rgb(158,161,168);fill-rule:nonzero;"/>
            <path id="path1269" d="M22.467,248.908L24.308,248.908L24.308,249.494L23.159,249.494L23.159,251.123L24.179,251.123L24.179,251.709L23.159,251.709L23.159,253.464L24.308,253.464L24.308,254.05L22.467,254.05L22.467,248.908Z" style="fill:rgb(158,161,168);fill-rule:nonzero;"/>
            <path id="path1271" d="M24.945,248.908L25.857,248.908C26.235,248.908 26.516,248.998 26.7,249.177C26.933,249.411 27.05,249.767 27.05,250.247C27.05,250.615 26.987,250.912 26.863,251.136C26.741,251.358 26.565,251.496 26.337,251.549L27.283,254.05L26.58,254.05L25.637,251.532L25.637,254.05L24.945,254.05L24.945,248.908ZM25.637,251.186C25.906,251.186 26.096,251.124 26.207,250.999C26.318,250.875 26.373,250.665 26.373,250.37C26.373,250.21 26.361,250.073 26.337,249.96C26.315,249.847 26.278,249.755 26.227,249.684C26.178,249.613 26.114,249.56 26.034,249.527C25.956,249.494 25.863,249.477 25.754,249.477L25.637,249.477L25.637,251.186Z" style="fill:rgb(158,161,168);fill-rule:nonzero;"/>
            <path id="path1273" d="M27.822,248.908L28.468,248.908L29.158,250.959C29.358,251.539 29.534,252.157 29.687,252.814C29.632,252.417 29.591,252.057 29.564,251.735C29.538,251.413 29.524,251.11 29.524,250.826L29.524,248.908L30.22,248.908L30.22,254.05L29.571,254.05L28.795,251.735C28.724,251.52 28.656,251.299 28.592,251.073C28.529,250.846 28.472,250.608 28.418,250.36C28.414,250.329 28.406,250.291 28.395,250.247C28.386,250.202 28.375,250.151 28.362,250.093C28.368,250.151 28.374,250.201 28.378,250.243C28.383,250.283 28.386,250.318 28.388,250.346L28.425,250.869L28.462,251.506C28.464,251.541 28.465,251.584 28.465,251.635C28.467,251.687 28.468,251.744 28.468,251.809L28.505,254.05L27.822,254.05L27.822,248.908Z" style="fill:rgb(158,161,168);fill-rule:nonzero;"/>
            <path id="path1275" d="M32.735,249.014L32.735,249.69C32.524,249.539 32.334,249.464 32.165,249.464C31.983,249.464 31.835,249.528 31.719,249.657C31.604,249.779 31.546,249.942 31.546,250.147C31.546,250.327 31.587,250.481 31.669,250.61C31.711,250.678 31.78,250.767 31.876,250.876C31.973,250.985 32.099,251.116 32.252,251.269C32.534,251.556 32.726,251.803 32.828,252.012C32.93,252.214 32.981,252.461 32.981,252.755C32.981,253.152 32.869,253.48 32.645,253.737C32.421,253.988 32.133,254.113 31.782,254.113C31.487,254.113 31.235,254.032 31.026,253.87L31.026,253.184C31.273,253.364 31.497,253.454 31.699,253.454C31.888,253.454 32.035,253.392 32.142,253.267C32.249,253.141 32.302,252.97 32.302,252.755C32.302,252.568 32.261,252.4 32.179,252.252C32.137,252.181 32.078,252.1 32.002,252.008C31.927,251.915 31.832,251.812 31.719,251.699C31.544,251.526 31.398,251.372 31.283,251.239C31.167,251.106 31.082,250.989 31.026,250.889C30.92,250.694 30.866,250.448 30.866,250.15C30.866,249.748 30.971,249.429 31.18,249.194C31.39,248.957 31.674,248.838 32.029,248.838C32.275,248.838 32.511,248.897 32.735,249.014L32.735,249.014Z" style="fill:rgb(158,161,168);fill-rule:nonzero;"/>
        </g>
        <g id="text1152" transform="matrix(0.866452,0,0,1.15413,0,-13.0004)">
            <path id="path1222" d="M4.399,266.152L4.399,266.766C4.224,266.68 4.077,266.638 3.959,266.638C3.797,266.638 3.658,266.678 3.542,266.759C3.426,266.838 3.33,266.96 3.253,267.127C3.179,267.293 3.123,267.504 3.086,267.76C3.051,268.014 3.034,268.315 3.034,268.663C3.034,269.914 3.354,270.54 3.995,270.54C4.107,270.54 4.241,270.505 4.399,270.435L4.399,271.062C4.235,271.154 4.051,271.2 3.848,271.2C2.821,271.2 2.308,270.362 2.308,268.686C2.308,267.78 2.433,267.106 2.682,266.664C2.934,266.222 3.318,266.001 3.834,266.001C4.025,266.001 4.213,266.051 4.399,266.152L4.399,266.152Z" style="fill:rgb(158,161,168);fill-rule:nonzero;"/>
            <path id="path1224" d="M4.97,266.07L5.64,266.07L5.64,269.65C5.64,270.016 5.672,270.259 5.738,270.379C5.806,270.499 5.939,270.56 6.138,270.56C6.337,270.56 6.469,270.507 6.532,270.402C6.598,270.295 6.631,270.077 6.631,269.749L6.631,266.07L7.3,266.07L7.3,269.749C7.3,270.3 7.216,270.673 7.047,270.868C6.846,271.089 6.539,271.2 6.125,271.2C5.67,271.2 5.35,271.057 5.164,270.773C5.035,270.578 4.97,270.204 4.97,269.65L4.97,266.07Z" style="fill:rgb(158,161,168);fill-rule:nonzero;"/>
            <path id="path1226" d="M8.081,266.07L8.981,266.07C9.353,266.07 9.629,266.158 9.811,266.336C10.041,266.565 10.156,266.917 10.156,267.389C10.156,267.752 10.094,268.044 9.972,268.265C9.851,268.484 9.679,268.62 9.453,268.672L10.385,271.137L9.693,271.137L8.764,268.656L8.764,271.137L8.081,271.137L8.081,266.07ZM8.764,268.315C9.029,268.315 9.216,268.253 9.325,268.131C9.435,268.008 9.489,267.802 9.489,267.511C9.489,267.353 9.477,267.218 9.453,267.107C9.431,266.995 9.395,266.904 9.345,266.834C9.297,266.764 9.233,266.713 9.155,266.68C9.078,266.647 8.986,266.631 8.879,266.631L8.764,266.631L8.764,268.315Z" style="fill:rgb(158,161,168);fill-rule:nonzero;"/>
            <path id="path1228" d="M10.917,266.07L11.816,266.07C12.188,266.07 12.465,266.158 12.647,266.336C12.876,266.565 12.991,266.917 12.991,267.389C12.991,267.752 12.93,268.044 12.807,268.265C12.687,268.484 12.514,268.62 12.289,268.672L13.221,271.137L12.528,271.137L11.6,268.656L11.6,271.137L10.917,271.137L10.917,266.07ZM11.6,268.315C11.864,268.315 12.051,268.253 12.161,268.131C12.27,268.008 12.325,267.802 12.325,267.511C12.325,267.353 12.313,267.218 12.289,267.107C12.267,266.995 12.231,266.904 12.181,266.834C12.132,266.764 12.069,266.713 11.99,266.68C11.914,266.647 11.822,266.631 11.715,266.631L11.6,266.631L11.6,268.315Z" style="fill:rgb(158,161,168);fill-rule:nonzero;"/>
            <path id="path1230" d="M15.144,266.07L16.043,266.07C16.477,266.07 16.792,266.179 16.989,266.398C17.186,266.619 17.284,266.969 17.284,267.448C17.284,268.122 17.086,268.558 16.69,268.754C16.491,268.844 16.203,268.889 15.827,268.889L15.827,271.137L15.144,271.137L15.144,266.07ZM15.827,268.305C16.109,268.305 16.304,268.248 16.411,268.134C16.52,268.018 16.575,267.813 16.575,267.517C16.575,267.215 16.523,266.994 16.418,266.854C16.313,266.714 16.147,266.644 15.922,266.644L15.827,266.644L15.827,268.305Z" style="fill:rgb(158,161,168);fill-rule:nonzero;"/>
            <path id="path1232" d="M18.374,266.07L18.905,266.07L19.992,271.137L19.316,271.137L19.125,270.149L18.121,270.149L17.927,271.137L17.271,271.137L18.374,266.07ZM19.027,269.621L18.876,268.814C18.775,268.264 18.693,267.678 18.63,267.054C18.599,267.358 18.56,267.667 18.512,267.98C18.463,268.291 18.407,268.621 18.341,268.971L18.216,269.621L19.027,269.621Z" style="fill:rgb(158,161,168);fill-rule:nonzero;"/>
            <path id="path1234" d="M19.887,266.07L22.109,266.07L22.109,266.667L21.344,266.667L21.344,271.137L20.674,271.137L20.674,266.667L19.887,266.667L19.887,266.07Z" style="fill:rgb(158,161,168);fill-rule:nonzero;"/>
            <path id="path1236" d="M22.079,266.07L24.301,266.07L24.301,266.667L23.536,266.667L23.536,271.137L22.867,271.137L22.867,266.667L22.079,266.667L22.079,266.07Z" style="fill:rgb(158,161,168);fill-rule:nonzero;"/>
            <path id="path1238" d="M24.675,266.07L26.49,266.07L26.49,266.647L25.358,266.647L25.358,268.252L26.362,268.252L26.362,268.83L25.358,268.83L25.358,270.56L26.49,270.56L26.49,271.137L24.675,271.137L24.675,266.07Z" style="fill:rgb(158,161,168);fill-rule:nonzero;"/>
            <path id="path1240" d="M27.117,266.07L28.016,266.07C28.388,266.07 28.665,266.158 28.847,266.336C29.076,266.565 29.191,266.917 29.191,267.389C29.191,267.752 29.13,268.044 29.007,268.265C28.887,268.484 28.714,268.62 28.489,268.672L29.421,271.137L28.728,271.137L27.8,268.656L27.8,271.137L27.117,271.137L27.117,266.07ZM27.8,268.315C28.064,268.315 28.251,268.253 28.361,268.131C28.47,268.008 28.525,267.802 28.525,267.511C28.525,267.353 28.513,267.218 28.489,267.107C28.467,266.995 28.431,266.904 28.381,266.834C28.332,266.764 28.269,266.713 28.19,266.68C28.114,266.647 28.022,266.631 27.915,266.631L27.8,266.631L27.8,268.315Z" style="fill:rgb(158,161,168);fill-rule:nonzero;"/>
            <path id="path1242" d="M29.953,266.07L30.589,266.07L31.269,268.091C31.466,268.663 31.64,269.272 31.791,269.92C31.736,269.528 31.695,269.173 31.669,268.856C31.643,268.539 31.63,268.24 31.63,267.96L31.63,266.07L32.316,266.07L32.316,271.137L31.676,271.137L30.911,268.856C30.841,268.644 30.774,268.426 30.711,268.203C30.65,267.98 30.593,267.746 30.54,267.501C30.536,267.47 30.528,267.433 30.517,267.389C30.508,267.345 30.497,267.295 30.484,267.238C30.491,267.295 30.496,267.344 30.501,267.386C30.505,267.425 30.508,267.459 30.511,267.488L30.547,268.003L30.583,268.63C30.585,268.665 30.586,268.707 30.586,268.758C30.588,268.808 30.589,268.865 30.589,268.928L30.625,271.137L29.953,271.137L29.953,266.07Z" style="fill:rgb(158,161,168);fill-rule:nonzero;"/>
        </g>
        <g id="text1168" transform="matrix(0.838302,0,0,1.19289,-7.20626e-07,-38.0002)">
            <path id="path1170" d="M5.535,300.236C5.535,301.102 5.439,301.717 5.246,302.081C5.054,302.445 4.731,302.627 4.278,302.627C3.801,302.627 3.466,302.431 3.271,302.04C3.079,301.657 2.982,300.976 2.982,299.998C2.982,299.126 3.077,298.509 3.268,298.147C3.461,297.783 3.787,297.601 4.246,297.601C4.657,297.601 4.961,297.742 5.16,298.023C5.292,298.212 5.387,298.479 5.446,298.826C5.506,299.148 5.535,299.618 5.535,300.236L5.535,300.236ZM4.843,300.306C4.843,299.457 4.805,298.894 4.729,298.617C4.652,298.337 4.497,298.198 4.262,298.198C4.027,298.198 3.87,298.326 3.792,298.582C3.716,298.84 3.678,299.359 3.678,300.138C3.678,300.855 3.718,301.353 3.798,301.63C3.881,301.893 4.035,302.024 4.262,302.024C4.484,302.024 4.637,301.901 4.719,301.656C4.802,301.412 4.843,300.962 4.843,300.306L4.843,300.306Z" style="fill:rgb(158,161,168);fill-rule:nonzero;"/>
            <path id="path1172" d="M6.192,297.664L6.84,297.664L6.84,301.129C6.84,301.482 6.872,301.717 6.935,301.833C7.001,301.95 7.13,302.008 7.323,302.008C7.515,302.008 7.642,301.957 7.704,301.856C7.767,301.752 7.799,301.541 7.799,301.224L7.799,297.664L8.447,297.664L8.447,301.224C8.447,301.757 8.365,302.118 8.202,302.307C8.008,302.52 7.71,302.627 7.31,302.627C6.87,302.627 6.56,302.49 6.38,302.214C6.255,302.026 6.192,301.664 6.192,301.129L6.192,297.664Z" style="fill:rgb(158,161,168);fill-rule:nonzero;"/>
            <path id="path1174" d="M8.812,297.664L10.962,297.664L10.962,298.242L10.222,298.242L10.222,302.567L9.574,302.567L9.574,298.242L8.812,298.242L8.812,297.664Z" style="fill:rgb(158,161,168);fill-rule:nonzero;"/>
            <path id="path1176" d="M12.279,297.664L14.429,297.664L14.429,298.242L13.689,298.242L13.689,302.567L13.041,302.567L13.041,298.242L12.279,298.242L12.279,297.664Z" style="fill:rgb(158,161,168);fill-rule:nonzero;"/>
            <path id="path1178" d="M14.791,297.664L15.661,297.664C16.021,297.664 16.289,297.75 16.464,297.921C16.687,298.144 16.798,298.484 16.798,298.941C16.798,299.292 16.739,299.575 16.62,299.789C16.504,300 16.336,300.131 16.118,300.182L17.02,302.567L16.35,302.567L15.452,300.166L15.452,302.567L14.791,302.567L14.791,297.664ZM15.452,299.836C15.708,299.836 15.889,299.777 15.994,299.658C16.1,299.54 16.153,299.34 16.153,299.058C16.153,298.906 16.142,298.776 16.118,298.668C16.097,298.56 16.062,298.472 16.014,298.404C15.967,298.336 15.906,298.287 15.829,298.255C15.755,298.223 15.666,298.207 15.563,298.207L15.452,298.207L15.452,299.836Z" style="fill:rgb(158,161,168);fill-rule:nonzero;"/>
            <rect id="path1180" x="17.535" y="297.664" width="0.66" height="4.903" style="fill:rgb(158,161,168);fill-rule:nonzero;"/>
            <path id="path1182" d="M20.132,299.989L21.332,299.989L21.332,300.179C21.332,301.134 21.249,301.778 21.081,302.113C20.916,302.456 20.607,302.627 20.154,302.627C19.686,302.627 19.353,302.437 19.154,302.056C18.957,301.675 18.859,301.034 18.859,300.135C18.859,299.106 18.967,298.421 19.182,298.08C19.386,297.761 19.698,297.601 20.119,297.601C20.441,297.601 20.692,297.678 20.872,297.833C21.054,297.989 21.196,298.246 21.297,298.604L20.681,298.861C20.654,298.732 20.623,298.624 20.589,298.538C20.555,298.449 20.518,298.38 20.478,298.331C20.398,298.232 20.277,298.182 20.116,298.182C19.896,298.182 19.746,298.317 19.665,298.588C19.585,298.872 19.544,299.381 19.544,300.116C19.544,300.859 19.586,301.361 19.668,301.624C19.751,301.886 19.906,302.018 20.135,302.018C20.345,302.018 20.492,301.924 20.576,301.738C20.663,301.539 20.707,301.22 20.707,300.779L20.707,300.646L20.707,300.547L20.132,300.547L20.132,299.989Z" style="fill:rgb(158,161,168);fill-rule:nonzero;"/>
            <path id="path1184" d="M24.514,299.989L25.714,299.989L25.714,300.179C25.714,301.134 25.63,301.778 25.463,302.113C25.298,302.456 24.989,302.627 24.536,302.627C24.068,302.627 23.735,302.437 23.536,302.056C23.339,301.675 23.24,301.034 23.24,300.135C23.24,299.106 23.348,298.421 23.564,298.08C23.768,297.761 24.08,297.601 24.501,297.601C24.823,297.601 25.074,297.678 25.254,297.833C25.436,297.989 25.577,298.246 25.679,298.604L25.063,298.861C25.036,298.732 25.005,298.624 24.971,298.538C24.937,298.449 24.9,298.38 24.86,298.331C24.779,298.232 24.659,298.182 24.498,298.182C24.278,298.182 24.127,298.317 24.047,298.588C23.967,298.872 23.926,299.381 23.926,300.116C23.926,300.859 23.968,301.361 24.05,301.624C24.133,301.886 24.288,302.018 24.517,302.018C24.726,302.018 24.874,301.924 24.958,301.738C25.045,301.539 25.088,301.22 25.088,300.779L25.088,300.646L25.088,300.547L24.514,300.547L24.514,299.989Z" style="fill:rgb(158,161,168);fill-rule:nonzero;"/>
            <path id="path1186" d="M27.073,297.664L27.587,297.664L28.638,302.567L27.984,302.567L27.8,301.611L26.829,301.611L26.641,302.567L26.006,302.567L27.073,297.664ZM27.705,301.1L27.559,300.319C27.461,299.788 27.382,299.22 27.321,298.617C27.291,298.911 27.253,299.21 27.206,299.512C27.16,299.813 27.105,300.133 27.041,300.471L26.921,301.1L27.705,301.1Z" style="fill:rgb(158,161,168);fill-rule:nonzero;"/>
            <path id="path1188" d="M28.537,297.664L30.686,297.664L30.686,298.242L29.947,298.242L29.947,302.567L29.299,302.567L29.299,298.242L28.537,298.242L28.537,297.664Z" style="fill:rgb(158,161,168);fill-rule:nonzero;"/>
            <path id="path1190" d="M31.048,297.664L32.804,297.664L32.804,298.223L31.709,298.223L31.709,299.776L32.681,299.776L32.681,300.335L31.709,300.335L31.709,302.008L32.804,302.008L32.804,302.567L31.048,302.567L31.048,297.664Z" style="fill:rgb(158,161,168);fill-rule:nonzero;"/>
        </g>
        <g id="text1222" transform="matrix(0.944541,0,0,1.05872,0,0)">
            <path id="path1229" d="M3.011,17.736L3.011,18.443C2.791,18.285 2.592,18.206 2.416,18.206C2.226,18.206 2.07,18.273 1.95,18.408C1.829,18.536 1.769,18.706 1.769,18.92C1.769,19.107 1.812,19.269 1.898,19.403C1.942,19.475 2.014,19.568 2.113,19.682C2.215,19.795 2.347,19.932 2.507,20.092C2.801,20.392 3.002,20.651 3.109,20.869C3.216,21.08 3.269,21.339 3.269,21.645C3.269,22.06 3.152,22.402 2.917,22.672C2.683,22.934 2.382,23.065 2.016,23.065C1.707,23.065 1.444,22.98 1.226,22.811L1.226,22.094C1.483,22.282 1.718,22.376 1.929,22.376C2.126,22.376 2.28,22.311 2.392,22.181C2.503,22.049 2.559,21.87 2.559,21.645C2.559,21.45 2.516,21.275 2.43,21.119C2.386,21.045 2.324,20.96 2.246,20.865C2.167,20.768 2.068,20.66 1.95,20.541C1.766,20.36 1.614,20.2 1.494,20.061C1.373,19.922 1.284,19.8 1.226,19.696C1.114,19.491 1.059,19.234 1.059,18.923C1.059,18.503 1.168,18.17 1.386,17.924C1.606,17.676 1.902,17.552 2.273,17.552C2.531,17.552 2.777,17.613 3.011,17.736L3.011,17.736Z" style="fill:rgb(158,161,168);fill-rule:nonzero;"/>
            <path id="path1231" d="M3.533,17.625L5.89,17.625L5.89,18.258L5.079,18.258L5.079,22.999L4.369,22.999L4.369,18.258L3.533,18.258L3.533,17.625Z" style="fill:rgb(158,161,168);fill-rule:nonzero;"/>
            <path id="path1233" d="M6.955,17.625L7.519,17.625L8.671,22.999L7.954,22.999L7.752,21.951L6.687,21.951L6.481,22.999L5.785,22.999L6.955,17.625ZM7.647,21.391L7.487,20.535C7.381,19.952 7.294,19.33 7.226,18.669C7.194,18.991 7.152,19.319 7.101,19.65C7.05,19.98 6.99,20.33 6.92,20.702L6.788,21.391L7.647,21.391Z" style="fill:rgb(158,161,168);fill-rule:nonzero;"/>
            <path id="path1235" d="M9.099,17.625L10.053,17.625C10.447,17.625 10.741,17.719 10.933,17.907C11.177,18.15 11.299,18.523 11.299,19.024C11.299,19.409 11.234,19.719 11.104,19.953C10.976,20.185 10.793,20.329 10.554,20.385L11.542,22.999L10.808,22.999L9.823,20.367L9.823,22.999L9.099,22.999L9.099,17.625ZM9.823,20.005C10.104,20.005 10.302,19.94 10.418,19.811C10.534,19.681 10.592,19.461 10.592,19.153C10.592,18.986 10.579,18.843 10.554,18.725C10.531,18.606 10.492,18.51 10.439,18.436C10.388,18.361 10.321,18.307 10.237,18.272C10.156,18.237 10.058,18.22 9.945,18.22L9.823,18.22L9.823,20.005Z" style="fill:rgb(158,161,168);fill-rule:nonzero;"/>
            <path id="path1237" d="M11.748,17.625L14.104,17.625L14.104,18.258L13.293,18.258L13.293,22.999L12.583,22.999L12.583,18.258L11.748,18.258L11.748,17.625Z" style="fill:rgb(158,161,168);fill-rule:nonzero;"/>
            <path id="path1239" d="M16.627,17.002L17.334,17.172C16.921,18.483 16.714,19.662 16.714,20.709C16.714,21.89 16.921,23.111 17.334,24.374L16.627,24.558C16.186,23.3 15.966,22.036 15.966,20.764C15.966,19.465 16.186,18.211 16.627,17.002Z" style="fill:rgb(158,161,168);fill-rule:nonzero;"/>
            <path id="path1241" d="M19.857,17.736L19.857,18.443C19.637,18.285 19.438,18.206 19.262,18.206C19.072,18.206 18.916,18.273 18.796,18.408C18.675,18.536 18.615,18.706 18.615,18.92C18.615,19.107 18.658,19.269 18.744,19.403C18.788,19.475 18.86,19.568 18.959,19.682C19.061,19.795 19.193,19.932 19.353,20.092C19.647,20.392 19.848,20.651 19.955,20.869C20.061,21.08 20.115,21.339 20.115,21.645C20.115,22.06 19.998,22.402 19.763,22.672C19.529,22.934 19.228,23.065 18.862,23.065C18.553,23.065 18.29,22.98 18.072,22.811L18.072,22.094C18.329,22.282 18.564,22.376 18.775,22.376C18.972,22.376 19.126,22.311 19.238,22.181C19.349,22.049 19.405,21.87 19.405,21.645C19.405,21.45 19.362,21.275 19.276,21.119C19.232,21.045 19.17,20.96 19.092,20.865C19.013,20.768 18.914,20.66 18.796,20.541C18.612,20.36 18.46,20.2 18.34,20.061C18.219,19.922 18.13,19.8 18.072,19.696C17.96,19.491 17.905,19.234 17.905,18.923C17.905,18.503 18.014,18.17 18.232,17.924C18.452,17.676 18.748,17.552 19.119,17.552C19.377,17.552 19.623,17.613 19.857,17.736L19.857,17.736Z" style="fill:rgb(158,161,168);fill-rule:nonzero;"/>
            <path id="path1243" d="M20.379,17.625L22.736,17.625L22.736,18.258L21.925,18.258L21.925,22.999L21.215,22.999L21.215,18.258L20.379,18.258L20.379,17.625Z" style="fill:rgb(158,161,168);fill-rule:nonzero;"/>
            <path id="path1245" d="M25.879,20.444C25.879,21.393 25.773,22.067 25.562,22.466C25.351,22.865 24.997,23.065 24.5,23.065C23.978,23.065 23.611,22.85 23.397,22.421C23.186,22.001 23.08,21.255 23.08,20.183C23.08,19.227 23.185,18.551 23.394,18.154C23.605,17.755 23.962,17.555 24.466,17.555C24.916,17.555 25.25,17.709 25.468,18.018C25.612,18.225 25.716,18.518 25.781,18.899C25.846,19.251 25.879,19.766 25.879,20.444L25.879,20.444ZM25.12,20.521C25.12,19.59 25.078,18.973 24.995,18.669C24.911,18.363 24.741,18.209 24.483,18.209C24.225,18.209 24.054,18.35 23.968,18.631C23.884,18.914 23.843,19.482 23.843,20.336C23.843,21.123 23.887,21.668 23.975,21.972C24.065,22.26 24.235,22.404 24.483,22.404C24.727,22.404 24.894,22.269 24.984,22C25.075,21.733 25.12,21.24 25.12,20.521L25.12,20.521Z" style="fill:rgb(158,161,168);fill-rule:nonzero;"/>
            <path id="path1247" d="M26.599,17.625L27.553,17.625C28.012,17.625 28.346,17.741 28.555,17.973C28.764,18.207 28.868,18.578 28.868,19.087C28.868,19.801 28.659,20.263 28.239,20.472C28.027,20.567 27.722,20.615 27.323,20.615L27.323,22.999L26.599,22.999L26.599,17.625ZM27.323,19.995C27.622,19.995 27.829,19.935 27.943,19.814C28.059,19.691 28.117,19.473 28.117,19.16C28.117,18.839 28.061,18.605 27.95,18.457C27.838,18.308 27.663,18.234 27.424,18.234L27.323,18.234L27.323,19.995Z" style="fill:rgb(158,161,168);fill-rule:nonzero;"/>
            <path id="path1249" d="M30.041,24.558L29.335,24.388C29.748,23.076 29.954,21.899 29.954,20.855C29.954,19.676 29.748,18.453 29.335,17.186L30.041,17.002C30.482,18.262 30.703,19.527 30.703,20.799C30.703,22.096 30.482,23.349 30.041,24.558Z" style="fill:rgb(158,161,168);fill-rule:nonzero;"/>
        </g>
        <g id="text1226" transform="matrix(0.916671,0,0,1.0909,0,0)">
            <path id="path1253" d="M3.303,61.577L3.303,62.226C3.118,62.136 2.962,62.091 2.837,62.091C2.666,62.091 2.519,62.133 2.396,62.219C2.274,62.302 2.172,62.432 2.091,62.608C2.012,62.784 1.953,63.007 1.914,63.278C1.877,63.547 1.858,63.865 1.858,64.233C1.858,65.557 2.197,66.219 2.876,66.219C2.994,66.219 3.136,66.182 3.303,66.108L3.303,66.771C3.129,66.868 2.935,66.917 2.719,66.917C1.634,66.917 1.091,66.03 1.091,64.257C1.091,63.299 1.223,62.586 1.487,62.118C1.753,61.651 2.159,61.417 2.705,61.417C2.907,61.417 3.106,61.47 3.303,61.577L3.303,61.577Z" style="fill:rgb(158,161,168);fill-rule:nonzero;"/>
            <path id="path1256" d="M3.907,61.49L4.629,61.49L4.629,66.24L5.81,66.24L5.81,66.851L3.907,66.851L3.907,61.49Z" style="fill:rgb(158,161,168);fill-rule:nonzero;"/>
            <path id="path1258" d="M6.268,61.49L6.99,61.49L6.99,64.087L7.997,61.49L8.726,61.49L7.671,64.087L8.81,66.851L7.997,66.851L6.99,64.087L6.99,66.851L6.268,66.851L6.268,61.49Z" style="fill:rgb(158,161,168);fill-rule:nonzero;"/>
            <rect id="path1260" x="10.327" y="64.74" width="1.264" height="0.542" style="fill:rgb(158,161,168);fill-rule:nonzero;"/>
            <path id="path1262" d="M15.581,61.577L15.581,62.226C15.395,62.136 15.24,62.091 15.115,62.091C14.944,62.091 14.797,62.133 14.674,62.219C14.552,62.302 14.45,62.432 14.369,62.608C14.29,62.784 14.231,63.007 14.192,63.278C14.155,63.547 14.136,63.865 14.136,64.233C14.136,65.557 14.475,66.219 15.153,66.219C15.272,66.219 15.414,66.182 15.581,66.108L15.581,66.771C15.407,66.868 15.213,66.917 14.997,66.917C13.912,66.917 13.369,66.03 13.369,64.257C13.369,63.299 13.501,62.586 13.765,62.118C14.031,61.651 14.437,61.417 14.983,61.417C15.185,61.417 15.384,61.47 15.581,61.577L15.581,61.577Z" style="fill:rgb(158,161,168);fill-rule:nonzero;"/>
            <path id="path1264" d="M16.185,61.49L16.907,61.49L16.907,66.24L18.088,66.24L18.088,66.851L16.185,66.851L16.185,61.49Z" style="fill:rgb(158,161,168);fill-rule:nonzero;"/>
            <path id="path1266" d="M18.546,61.49L19.268,61.49L19.268,64.087L20.275,61.49L21.004,61.49L19.949,64.087L21.088,66.851L20.275,66.851L19.268,64.087L19.268,66.851L18.546,66.851L18.546,61.49Z" style="fill:rgb(158,161,168);fill-rule:nonzero;"/>
            <path id="path1268" d="M25.702,64.302C25.702,65.249 25.597,65.922 25.386,66.32C25.176,66.718 24.823,66.917 24.327,66.917C23.806,66.917 23.439,66.703 23.226,66.275C23.016,65.856 22.91,65.111 22.91,64.042C22.91,63.088 23.015,62.414 23.223,62.018C23.434,61.62 23.79,61.42 24.292,61.42C24.741,61.42 25.075,61.574 25.292,61.882C25.436,62.088 25.54,62.381 25.605,62.761C25.67,63.113 25.702,63.626 25.702,64.302L25.702,64.302ZM24.945,64.379C24.945,63.451 24.904,62.835 24.82,62.532C24.737,62.226 24.567,62.073 24.31,62.073C24.053,62.073 23.882,62.213 23.796,62.493C23.713,62.776 23.671,63.343 23.671,64.195C23.671,64.979 23.715,65.523 23.803,65.827C23.893,66.114 24.062,66.257 24.31,66.257C24.553,66.257 24.72,66.123 24.81,65.854C24.9,65.588 24.945,65.096 24.945,64.379L24.945,64.379Z" style="fill:rgb(158,161,168);fill-rule:nonzero;"/>
            <path id="path1270" d="M26.421,61.49L27.129,61.49L27.129,65.278C27.129,65.665 27.164,65.922 27.233,66.049C27.305,66.176 27.446,66.24 27.657,66.24C27.868,66.24 28.007,66.184 28.074,66.073C28.143,65.96 28.178,65.729 28.178,65.382L28.178,61.49L28.886,61.49L28.886,65.382C28.886,65.966 28.797,66.36 28.619,66.566C28.406,66.8 28.081,66.917 27.643,66.917C27.162,66.917 26.823,66.767 26.626,66.466C26.489,66.26 26.421,65.864 26.421,65.278L26.421,61.49Z" style="fill:rgb(158,161,168);fill-rule:nonzero;"/>
            <path id="path1272" d="M29.285,61.49L31.636,61.49L31.636,62.122L30.827,62.122L30.827,66.851L30.119,66.851L30.119,62.122L29.285,62.122L29.285,61.49Z" style="fill:rgb(158,161,168);fill-rule:nonzero;"/>
        </g>
        <g id="text1277" transform="matrix(0.930308,0,0,1.07491,0,0)">
            <path id="path1279" d="M3.32,84.82L3.32,85.479C3.132,85.387 2.974,85.342 2.847,85.342C2.674,85.342 2.524,85.385 2.4,85.472C2.275,85.557 2.172,85.688 2.09,85.867C2.01,86.045 1.95,86.272 1.91,86.547C1.872,86.819 1.854,87.142 1.854,87.516C1.854,88.86 2.198,89.532 2.886,89.532C3.006,89.532 3.15,89.494 3.32,89.419L3.32,90.092C3.143,90.191 2.946,90.24 2.728,90.24C1.626,90.24 1.075,89.34 1.075,87.541C1.075,86.568 1.209,85.844 1.477,85.37C1.747,84.895 2.159,84.658 2.714,84.658C2.918,84.658 3.12,84.712 3.32,84.82L3.32,84.82Z" style="fill:rgb(158,161,168);fill-rule:nonzero;"/>
            <path id="path1281" d="M3.933,84.732L4.666,84.732L4.666,89.553L5.864,89.553L5.864,90.173L3.933,90.173L3.933,84.732Z" style="fill:rgb(158,161,168);fill-rule:nonzero;"/>
            <path id="path1283" d="M6.329,84.732L7.062,84.732L7.062,87.368L8.084,84.732L8.824,84.732L7.753,87.368L8.909,90.173L8.084,90.173L7.062,87.368L7.062,90.173L6.329,90.173L6.329,84.732Z" style="fill:rgb(158,161,168);fill-rule:nonzero;"/>
            <rect id="path1285" x="10.868" y="84.732" width="0.733" height="5.441" style="fill:rgb(158,161,168);fill-rule:nonzero;"/>
            <path id="path1287" d="M12.447,84.732L13.13,84.732L13.86,86.903C14.071,87.516 14.258,88.17 14.42,88.866C14.361,88.445 14.318,88.064 14.29,87.724C14.261,87.383 14.247,87.062 14.247,86.762L14.247,84.732L14.984,84.732L14.984,90.173L14.297,90.173L13.475,87.724C13.4,87.496 13.329,87.262 13.261,87.023C13.195,86.783 13.134,86.532 13.077,86.268C13.073,86.236 13.064,86.196 13.053,86.149C13.043,86.102 13.031,86.048 13.017,85.987C13.024,86.048 13.03,86.1 13.035,86.145C13.04,86.187 13.043,86.224 13.046,86.254L13.084,86.808L13.123,87.481C13.125,87.518 13.127,87.564 13.127,87.618C13.129,87.672 13.13,87.733 13.13,87.801L13.169,90.173L12.447,90.173L12.447,84.732Z" style="fill:rgb(158,161,168);fill-rule:nonzero;"/>
            <rect id="path1289" x="16.904" y="88.03" width="1.283" height="0.55" style="fill:rgb(158,161,168);fill-rule:nonzero;"/>
            <path id="path1291" d="M21.915,84.845L21.915,85.56C21.692,85.4 21.491,85.32 21.313,85.32C21.12,85.32 20.963,85.389 20.84,85.525C20.718,85.654 20.657,85.827 20.657,86.043C20.657,86.233 20.701,86.396 20.788,86.533C20.832,86.606 20.905,86.7 21.006,86.815C21.109,86.93 21.242,87.068 21.404,87.23C21.703,87.534 21.906,87.795 22.014,88.016C22.122,88.23 22.176,88.492 22.176,88.802C22.176,89.223 22.057,89.569 21.82,89.842C21.583,90.107 21.279,90.24 20.907,90.24C20.595,90.24 20.328,90.154 20.107,89.983L20.107,89.257C20.368,89.447 20.605,89.542 20.819,89.542C21.019,89.542 21.175,89.476 21.288,89.345C21.401,89.211 21.457,89.03 21.457,88.802C21.457,88.605 21.414,88.427 21.327,88.27C21.282,88.195 21.22,88.109 21.14,88.013C21.06,87.914 20.96,87.805 20.84,87.685C20.655,87.502 20.501,87.34 20.379,87.199C20.257,87.058 20.166,86.934 20.107,86.829C19.995,86.622 19.938,86.361 19.938,86.046C19.938,85.621 20.049,85.284 20.27,85.035C20.493,84.784 20.792,84.658 21.168,84.658C21.429,84.658 21.678,84.72 21.915,84.845L21.915,84.845Z" style="fill:rgb(158,161,168);fill-rule:nonzero;"/>
            <path id="path1293" d="M22.43,84.732L23.205,84.732L23.564,85.916C23.576,85.951 23.588,85.99 23.6,86.032C23.611,86.075 23.625,86.12 23.642,86.17C23.776,86.597 23.867,86.957 23.917,87.248C23.959,86.957 23.994,86.754 24.022,86.638L24.135,86.152L24.178,85.962L24.481,84.732L25.245,84.732L24.297,87.833L24.297,90.173L23.564,90.173L23.564,87.833L22.43,84.732Z" style="fill:rgb(158,161,168);fill-rule:nonzero;"/>
            <path id="path1295" d="M25.654,84.732L26.338,84.732L27.067,86.903C27.279,87.516 27.465,88.17 27.627,88.866C27.569,88.445 27.525,88.064 27.497,87.724C27.469,87.383 27.455,87.062 27.455,86.762L27.455,84.732L28.191,84.732L28.191,90.173L27.504,90.173L26.683,87.724C26.608,87.496 26.536,87.262 26.468,87.023C26.402,86.783 26.341,86.532 26.285,86.268C26.28,86.236 26.272,86.196 26.26,86.149C26.251,86.102 26.239,86.048 26.225,85.987C26.232,86.048 26.238,86.1 26.243,86.145C26.247,86.187 26.251,86.224 26.253,86.254L26.292,86.808L26.331,87.481C26.333,87.518 26.334,87.564 26.334,87.618C26.337,87.672 26.338,87.733 26.338,87.801L26.376,90.173L25.654,90.173L25.654,84.732Z" style="fill:rgb(158,161,168);fill-rule:nonzero;"/>
            <path id="path1297" d="M31.172,84.82L31.172,85.479C30.985,85.387 30.827,85.342 30.7,85.342C30.526,85.342 30.377,85.385 30.253,85.472C30.128,85.557 30.025,85.688 29.943,85.867C29.863,86.045 29.803,86.272 29.763,86.547C29.725,86.819 29.707,87.142 29.707,87.516C29.707,88.86 30.051,89.532 30.739,89.532C30.859,89.532 31.003,89.494 31.172,89.419L31.172,90.092C30.996,90.191 30.799,90.24 30.58,90.24C29.479,90.24 28.928,89.34 28.928,87.541C28.928,86.568 29.062,85.844 29.329,85.37C29.6,84.895 30.012,84.658 30.566,84.658C30.771,84.658 30.973,84.712 31.172,84.82L31.172,84.82Z" style="fill:rgb(158,161,168);fill-rule:nonzero;"/>
        </g>
        <g id="text1302" transform="matrix(0.877542,0,0,1.13955,0,0)">
            <path id="path1305" d="M3.257,299.395L3.257,300.016C3.08,299.93 2.931,299.887 2.812,299.887C2.648,299.887 2.507,299.928 2.389,300.01C2.272,300.089 2.174,300.214 2.097,300.382C2.022,300.55 1.965,300.764 1.927,301.024C1.892,301.281 1.874,301.585 1.874,301.938C1.874,303.205 2.199,303.839 2.848,303.839C2.961,303.839 3.097,303.804 3.257,303.733L3.257,304.368C3.091,304.461 2.905,304.507 2.699,304.507C1.659,304.507 1.14,303.658 1.14,301.961C1.14,301.044 1.266,300.361 1.518,299.913C1.773,299.466 2.162,299.242 2.685,299.242C2.878,299.242 3.069,299.293 3.257,299.395L3.257,299.395Z" style="fill:rgb(158,161,168);fill-rule:nonzero;"/>
            <path id="path1307" d="M3.426,299.312L4.108,299.312L4.417,301.206L4.47,301.549L4.58,302.293C4.598,302.42 4.613,302.535 4.626,302.639C4.642,302.743 4.655,302.837 4.666,302.922L4.7,303.174C4.706,303.123 4.712,303.078 4.716,303.038C4.721,302.998 4.725,302.965 4.729,302.938L4.819,302.343L4.936,301.562C4.947,301.491 4.957,301.426 4.966,301.366C4.977,301.306 4.987,301.253 4.995,301.206L5.328,299.312L5.973,299.312L4.965,304.444L4.417,304.444L3.426,299.312Z" style="fill:rgb(158,161,168);fill-rule:nonzero;"/>
            <path id="path1309" d="M6.561,299.312L7.731,299.312L7.731,304.444L7.07,304.444L7.07,299.9L6.561,299.9L6.561,299.312Z" style="fill:rgb(158,161,168);fill-rule:nonzero;"/>
            <rect id="path1311" x="10.181" y="302.423" width="1.21" height="0.519" style="fill:rgb(158,161,168);fill-rule:nonzero;"/>
            <path id="path1314" d="M15.21,299.395L15.21,300.016C15.033,299.93 14.884,299.887 14.765,299.887C14.601,299.887 14.46,299.928 14.343,300.01C14.225,300.089 14.128,300.214 14.05,300.382C13.975,300.55 13.918,300.764 13.881,301.024C13.845,301.281 13.827,301.585 13.827,301.938C13.827,303.205 14.152,303.839 14.801,303.839C14.914,303.839 15.051,303.804 15.21,303.733L15.21,304.368C15.044,304.461 14.858,304.507 14.652,304.507C13.612,304.507 13.093,303.658 13.093,301.961C13.093,301.044 13.219,300.361 13.472,299.913C13.727,299.466 14.115,299.242 14.638,299.242C14.831,299.242 15.022,299.293 15.21,299.395L15.21,299.395Z" style="fill:rgb(158,161,168);fill-rule:nonzero;"/>
            <path id="path1316" d="M15.38,299.312L16.061,299.312L16.37,301.206L16.423,301.549L16.533,302.293C16.551,302.42 16.566,302.535 16.58,302.639C16.595,302.743 16.608,302.837 16.62,302.922L16.653,303.174C16.659,303.123 16.665,303.078 16.669,303.038C16.674,302.998 16.678,302.965 16.683,302.938L16.772,302.343L16.889,301.562C16.9,301.491 16.91,301.426 16.919,301.366C16.93,301.306 16.94,301.253 16.949,301.206L17.281,299.312L17.926,299.312L16.919,304.444L16.37,304.444L15.38,299.312Z" style="fill:rgb(158,161,168);fill-rule:nonzero;"/>
            <path id="path1318" d="M18.91,300.98L18.232,300.98L18.225,300.778C18.225,300.217 18.309,299.822 18.478,299.594C18.648,299.364 18.934,299.249 19.335,299.249C20.091,299.249 20.469,299.667 20.469,300.505C20.469,301.07 20.186,301.884 19.621,302.948L19.212,303.716C19.21,303.721 19.203,303.734 19.192,303.756C19.181,303.778 19.166,303.81 19.146,303.852L20.416,303.852L20.416,304.444L18.162,304.444C18.2,304.36 18.278,304.192 18.398,303.942C18.518,303.692 18.68,303.354 18.887,302.928C19.062,302.556 19.208,302.24 19.325,301.981C19.443,301.722 19.531,301.509 19.591,301.343C19.711,301.01 19.771,300.723 19.771,300.482C19.771,300.056 19.623,299.843 19.329,299.843C19.045,299.843 18.903,300.107 18.903,300.635L18.906,300.927L18.91,300.98Z" style="fill:rgb(158,161,168);fill-rule:nonzero;"/>
            <rect id="path1320" x="22.134" y="302.423" width="1.21" height="0.519" style="fill:rgb(158,161,168);fill-rule:nonzero;"/>
            <path id="path1322" d="M25.149,299.312L26.987,299.312L26.987,299.897L25.84,299.897L25.84,301.522L26.858,301.522L26.858,302.107L25.84,302.107L25.84,303.859L26.987,303.859L26.987,304.444L25.149,304.444L25.149,299.312Z" style="fill:rgb(158,161,168);fill-rule:nonzero;"/>
            <path id="path1324" d="M30.192,302.004C30.192,302.91 30.091,303.554 29.889,303.935C29.687,304.317 29.349,304.507 28.875,304.507C28.377,304.507 28.025,304.302 27.821,303.892C27.62,303.491 27.519,302.779 27.519,301.755C27.519,300.842 27.619,300.196 27.818,299.817C28.02,299.436 28.361,299.245 28.842,299.245C29.272,299.245 29.591,299.393 29.799,299.687C29.937,299.885 30.036,300.165 30.098,300.528C30.16,300.865 30.192,301.357 30.192,302.004L30.192,302.004ZM29.467,302.077C29.467,301.189 29.427,300.599 29.347,300.309C29.267,300.016 29.105,299.87 28.859,299.87C28.613,299.87 28.449,300.004 28.367,300.272C28.287,300.543 28.247,301.086 28.247,301.901C28.247,302.652 28.289,303.173 28.373,303.463C28.46,303.738 28.621,303.876 28.859,303.876C29.091,303.876 29.251,303.747 29.337,303.49C29.424,303.235 29.467,302.764 29.467,302.077L29.467,302.077Z" style="fill:rgb(158,161,168);fill-rule:nonzero;"/>
            <path id="path1326" d="M30.88,299.312L31.79,299.312C32.229,299.312 32.548,299.422 32.748,299.644C32.947,299.868 33.047,300.222 33.047,300.708C33.047,301.39 32.846,301.831 32.445,302.031C32.244,302.122 31.952,302.167 31.571,302.167L31.571,304.444L30.88,304.444L30.88,299.312ZM31.571,301.575C31.857,301.575 32.054,301.518 32.163,301.403C32.273,301.285 32.329,301.077 32.329,300.778C32.329,300.472 32.276,300.248 32.169,300.106C32.063,299.964 31.896,299.893 31.667,299.893L31.571,299.893L31.571,301.575Z" style="fill:rgb(158,161,168);fill-rule:nonzero;"/>
        </g>
        <g id="text1331" transform="matrix(0.948241,0,0,1.05458,0,0)">
            <path id="path1334" d="M1.055,239.628L2.039,239.628C2.513,239.628 2.858,239.748 3.073,239.988C3.289,240.229 3.396,240.612 3.396,241.137C3.396,241.874 3.18,242.351 2.746,242.566C2.528,242.665 2.214,242.714 1.802,242.714L1.802,245.174L1.055,245.174L1.055,239.628ZM1.802,242.074C2.111,242.074 2.324,242.012 2.441,241.888C2.561,241.761 2.621,241.536 2.621,241.212C2.621,240.882 2.563,240.64 2.448,240.487C2.333,240.334 2.152,240.257 1.906,240.257L1.802,240.257L1.802,242.074Z" style="fill:rgb(158,161,168);fill-rule:nonzero;"/>
            <path id="path1337" d="M4.589,239.628L5.171,239.628L6.36,245.174L5.62,245.174L5.411,244.093L4.312,244.093L4.1,245.174L3.382,245.174L4.589,239.628ZM5.304,243.515L5.138,242.631C5.028,242.03 4.939,241.388 4.869,240.706C4.836,241.039 4.792,241.376 4.74,241.719C4.687,242.059 4.625,242.42 4.553,242.804L4.417,243.515L5.304,243.515Z" style="fill:rgb(158,161,168);fill-rule:nonzero;"/>
            <path id="path1339" d="M6.245,239.628L8.676,239.628L8.676,240.282L7.84,240.282L7.84,245.174L7.107,245.174L7.107,240.282L6.245,240.282L6.245,239.628Z" style="fill:rgb(158,161,168);fill-rule:nonzero;"/>
            <path id="path1341" d="M8.644,239.628L11.076,239.628L11.076,240.282L10.239,240.282L10.239,245.174L9.506,245.174L9.506,240.282L8.644,240.282L8.644,239.628Z" style="fill:rgb(158,161,168);fill-rule:nonzero;"/>
            <path id="path1343" d="M11.485,239.628L13.472,239.628L13.472,240.261L12.232,240.261L12.232,242.017L13.331,242.017L13.331,242.649L12.232,242.649L12.232,244.542L13.472,244.542L13.472,245.174L11.485,245.174L11.485,239.628Z" style="fill:rgb(158,161,168);fill-rule:nonzero;"/>
            <path id="path1346" d="M14.158,239.628L15.142,239.628C15.549,239.628 15.852,239.725 16.05,239.919C16.302,240.171 16.428,240.555 16.428,241.072C16.428,241.47 16.361,241.789 16.226,242.031C16.095,242.271 15.906,242.419 15.659,242.477L16.679,245.174L15.921,245.174L14.905,242.459L14.905,245.174L14.158,245.174L14.158,239.628ZM14.905,242.085C15.194,242.085 15.399,242.018 15.519,241.884C15.639,241.75 15.698,241.524 15.698,241.205C15.698,241.033 15.685,240.885 15.659,240.763C15.635,240.641 15.595,240.542 15.54,240.465C15.488,240.389 15.418,240.332 15.332,240.296C15.248,240.26 15.148,240.243 15.03,240.243L14.905,240.243L14.905,242.085Z" style="fill:rgb(158,161,168);fill-rule:nonzero;"/>
            <path id="path1348" d="M17.261,239.628L17.958,239.628L18.701,241.841C18.917,242.466 19.107,243.133 19.272,243.842C19.212,243.413 19.168,243.025 19.139,242.678C19.111,242.331 19.096,242.004 19.096,241.697L19.096,239.628L19.847,239.628L19.847,245.174L19.147,245.174L18.31,242.678C18.233,242.446 18.16,242.207 18.091,241.963C18.024,241.719 17.961,241.463 17.904,241.194C17.899,241.161 17.891,241.12 17.879,241.072C17.869,241.024 17.857,240.969 17.843,240.907C17.85,240.969 17.856,241.023 17.861,241.069C17.866,241.112 17.869,241.149 17.872,241.18L17.911,241.744L17.951,242.43C17.953,242.468 17.954,242.515 17.954,242.57C17.957,242.625 17.958,242.687 17.958,242.757L17.997,245.174L17.261,245.174L17.261,239.628Z" style="fill:rgb(158,161,168);fill-rule:nonzero;"/>
            <path id="path1350" d="M24.082,239.743L24.082,240.472C23.854,240.31 23.65,240.228 23.468,240.228C23.271,240.228 23.111,240.298 22.986,240.437C22.862,240.568 22.799,240.744 22.799,240.965C22.799,241.158 22.844,241.325 22.932,241.464C22.978,241.538 23.052,241.634 23.155,241.751C23.26,241.868 23.396,242.01 23.561,242.175C23.865,242.484 24.072,242.751 24.182,242.976C24.292,243.194 24.348,243.461 24.348,243.777C24.348,244.206 24.227,244.559 23.985,244.837C23.743,245.107 23.433,245.242 23.054,245.242C22.736,245.242 22.464,245.155 22.239,244.98L22.239,244.24C22.505,244.434 22.747,244.531 22.965,244.531C23.168,244.531 23.327,244.464 23.442,244.33C23.557,244.194 23.615,244.009 23.615,243.777C23.615,243.576 23.571,243.395 23.482,243.235C23.436,243.158 23.373,243.071 23.292,242.972C23.21,242.872 23.108,242.76 22.986,242.638C22.797,242.452 22.64,242.286 22.516,242.143C22.391,241.999 22.299,241.873 22.239,241.766C22.124,241.555 22.067,241.289 22.067,240.968C22.067,240.535 22.179,240.191 22.404,239.937C22.632,239.681 22.937,239.553 23.32,239.553C23.586,239.553 23.84,239.616 24.082,239.743L24.082,239.743Z" style="fill:rgb(158,161,168);fill-rule:nonzero;"/>
            <path id="path1352" d="M24.976,239.628L26.962,239.628L26.962,240.261L25.723,240.261L25.723,242.017L26.822,242.017L26.822,242.649L25.723,242.649L25.723,244.542L26.962,244.542L26.962,245.174L24.976,245.174L24.976,239.628Z" style="fill:rgb(158,161,168);fill-rule:nonzero;"/>
            <path id="path1354" d="M30.583,245.257L30.112,245.594L29.732,245.052C29.504,245.179 29.264,245.242 29.01,245.242C28.471,245.242 28.09,245.015 27.868,244.56C27.647,244.091 27.537,243.305 27.537,242.204C27.537,241.241 27.645,240.56 27.86,240.16C28.076,239.758 28.441,239.557 28.956,239.557C29.497,239.557 29.878,239.778 30.098,240.221C30.316,240.654 30.425,241.423 30.425,242.527C30.425,243.525 30.321,244.219 30.112,244.607L30.583,245.257ZM29.261,243.414L29.57,243.852C29.62,243.498 29.645,243.098 29.645,242.653C29.645,241.7 29.6,241.055 29.509,240.72C29.418,240.397 29.237,240.235 28.967,240.235C28.713,240.235 28.542,240.373 28.453,240.648C28.364,240.912 28.32,241.443 28.32,242.243C28.32,243.141 28.366,243.754 28.457,244.082C28.548,244.396 28.725,244.553 28.988,244.553C29.094,244.553 29.194,244.519 29.29,244.452L28.816,243.77L29.261,243.414Z" style="fill:rgb(158,161,168);fill-rule:nonzero;"/>
        </g>
        <g id="text1417" transform="matrix(1.05354,0,0,0.949182,0,0)">
            <path id="path1419" d="M4.746,242.398L5.576,242.398L5.576,247.857L6.933,247.857L6.933,248.559L4.746,248.559L4.746,242.398Z" style="fill:rgb(158,161,168);fill-rule:nonzero;"/>
            <path id="path1421" d="M7.46,242.398L9.666,242.398L9.666,243.1L8.29,243.1L8.29,245.051L9.511,245.051L9.511,245.754L8.29,245.754L8.29,247.857L9.666,247.857L9.666,248.559L7.46,248.559L7.46,242.398Z" style="fill:rgb(158,161,168);fill-rule:nonzero;"/>
            <path id="path1423" d="M10.429,242.398L11.203,242.398L12.029,244.856C12.268,245.55 12.48,246.291 12.663,247.079C12.597,246.602 12.548,246.171 12.516,245.786C12.484,245.4 12.468,245.037 12.468,244.696L12.468,242.398L13.302,242.398L13.302,248.559L12.524,248.559L11.594,245.786C11.509,245.528 11.428,245.263 11.35,244.992C11.276,244.72 11.207,244.436 11.143,244.138C11.138,244.1 11.128,244.055 11.115,244.002C11.104,243.949 11.091,243.887 11.075,243.818C11.083,243.887 11.09,243.947 11.095,243.998C11.1,244.046 11.104,244.087 11.107,244.122L11.151,244.748L11.195,245.51C11.198,245.553 11.199,245.605 11.199,245.666C11.202,245.727 11.203,245.796 11.203,245.874L11.247,248.559L10.429,248.559L10.429,242.398Z" style="fill:rgb(158,161,168);fill-rule:nonzero;"/>
            <path id="path1425" d="M15.736,245.319L17.245,245.319L17.245,245.558C17.245,246.758 17.14,247.568 16.929,247.989C16.722,248.42 16.334,248.635 15.764,248.635C15.176,248.635 14.757,248.396 14.507,247.917C14.26,247.438 14.136,246.633 14.136,245.502C14.136,244.209 14.272,243.349 14.543,242.92C14.798,242.519 15.191,242.318 15.72,242.318C16.125,242.318 16.44,242.415 16.666,242.609C16.895,242.806 17.073,243.129 17.201,243.579L16.427,243.902C16.392,243.74 16.353,243.604 16.311,243.495C16.268,243.383 16.222,243.297 16.171,243.236C16.07,243.111 15.918,243.048 15.716,243.048C15.44,243.048 15.251,243.218 15.15,243.559C15.049,243.915 14.998,244.555 14.998,245.478C14.998,246.412 15.05,247.044 15.154,247.374C15.257,247.704 15.453,247.869 15.74,247.869C16.004,247.869 16.189,247.752 16.295,247.518C16.404,247.268 16.459,246.866 16.459,246.312L16.459,246.145L16.459,246.021L15.736,246.021L15.736,245.319Z" style="fill:rgb(158,161,168);fill-rule:nonzero;"/>
            <path id="path1427" d="M17.696,242.398L20.397,242.398L20.397,243.124L19.468,243.124L19.468,248.559L18.653,248.559L18.653,243.124L17.696,243.124L17.696,242.398Z" style="fill:rgb(158,161,168);fill-rule:nonzero;"/>
            <path id="path1429" d="M20.852,242.398L21.682,242.398L21.682,244.808L22.899,244.808L22.899,242.398L23.73,242.398L23.73,248.559L22.899,248.559L22.899,245.51L21.682,245.51L21.682,248.559L20.852,248.559L20.852,242.398Z" style="fill:rgb(158,161,168);fill-rule:nonzero;"/>
        </g>
    </g>
</svg>
