<?xml version="1.0" encoding="UTF-8" standalone="no"?>
<!DOCTYPE svg PUBLIC "-//W3C//DTD SVG 1.1//EN" "http://www.w3.org/Graphics/SVG/1.1/DTD/svg11.dtd">
<svg width="100%" height="100%" viewBox="0 0 345 380" version="1.1" xmlns="http://www.w3.org/2000/svg" xmlns:xlink="http://www.w3.org/1999/xlink" xml:space="preserve" xmlns:serif="http://www.serif.com/" style="fill-rule:evenodd;clip-rule:evenodd;stroke-linejoin:round;stroke-miterlimit:2;">
    <g id="g13122" transform="matrix(0.276024,0,0,0.276024,1156.74,7.55905e-05)">
        <rect id="path25053" x="-4188.05" y="0" width="1249.89" height="1376.69" style="fill:rgb(44,45,48);fill-rule:nonzero;"/>
        <g id="text88">
        </g>
        <g id="text92">
        </g>
        <g id="text96">
        </g>
        <g id="text112">
        </g>
        <g id="text4653" transform="matrix(1,0,0,1,379.383,32.6058)">
            <path id="path4666" d="M-4025.68,1325.46L-4025.68,1296.33L-4018.17,1296.33L-4014.22,1306.56C-4014.01,1307.16 -4013.77,1307.85 -4013.51,1308.63C-4013.23,1309.41 -4012.93,1310.31 -4012.6,1311.33L-4011.79,1313.9C-4012.08,1311.37 -4012.3,1309.2 -4012.45,1307.4C-4012.6,1305.61 -4012.68,1304.1 -4012.68,1302.88L-4012.68,1296.33L-4005.16,1296.33L-4005.16,1325.46L-4012.68,1325.46L-4016.64,1314.75C-4017.05,1313.6 -4017.43,1312.53 -4017.77,1311.54C-4018.1,1310.53 -4018.39,1309.58 -4018.64,1308.67C-4018.47,1310.72 -4018.35,1312.51 -4018.28,1314.03C-4018.2,1315.55 -4018.16,1316.88 -4018.16,1318.03L-4018.16,1325.46L-4025.68,1325.46Z" style="fill:rgb(158,161,168);fill-rule:nonzero;"/>
            <path id="path4668" d="M-3988.01,1325.46L-3995.88,1325.46L-3995.88,1313.12L-4003.11,1296.33L-3994.9,1296.33L-3993.49,1300.65C-3993.21,1301.49 -3992.96,1302.3 -3992.75,1303.08C-3992.52,1303.86 -3992.32,1304.61 -3992.14,1305.33C-3991.86,1304.26 -3991.6,1303.34 -3991.39,1302.58C-3991.18,1301.8 -3990.99,1301.17 -3990.82,1300.69L-3989.39,1296.33L-3981.24,1296.33L-3988.01,1313.12L-3988.01,1325.46Z" style="fill:rgb(158,161,168);fill-rule:nonzero;"/>
            <path id="path4670" d="M-3980.48,1324.75L-3980.48,1315.59C-3978.94,1317.71 -3977.26,1318.76 -3975.47,1318.76C-3974.79,1318.76 -3974.23,1318.59 -3973.8,1318.24C-3973.38,1317.87 -3973.16,1317.42 -3973.16,1316.88C-3973.16,1316.1 -3973.63,1315.34 -3974.56,1314.59L-3975.84,1313.59C-3976.7,1312.95 -3977.43,1312.32 -3978.03,1311.69C-3978.64,1311.05 -3979.13,1310.39 -3979.5,1309.73C-3979.88,1309.05 -3980.16,1308.35 -3980.33,1307.63C-3980.51,1306.91 -3980.6,1306.16 -3980.6,1305.37C-3980.6,1304.01 -3980.28,1302.59 -3979.65,1301.1C-3979.34,1300.41 -3978.97,1299.78 -3978.56,1299.22C-3978.14,1298.64 -3977.67,1298.13 -3977.13,1297.69C-3975.64,1296.43 -3973.85,1295.8 -3971.75,1295.8C-3969.87,1295.8 -3967.99,1296.3 -3966.09,1297.29L-3966.09,1306.2C-3966.73,1305.2 -3967.46,1304.42 -3968.28,1303.86C-3969.09,1303.28 -3969.9,1302.99 -3970.69,1302.99C-3971.3,1302.99 -3971.79,1303.17 -3972.18,1303.52C-3972.58,1303.86 -3972.79,1304.27 -3972.79,1304.75C-3972.79,1305.52 -3972.25,1306.3 -3971.18,1307.07L-3969.94,1307.99C-3968.28,1309.18 -3967.09,1310.41 -3966.37,1311.67C-3965.64,1312.93 -3965.28,1314.4 -3965.28,1316.09C-3965.28,1318.95 -3966.15,1321.32 -3967.9,1323.18C-3969.65,1325.04 -3971.86,1325.97 -3974.54,1325.97C-3976.39,1325.97 -3978.37,1325.56 -3980.49,1324.75L-3980.48,1324.75Z" style="fill:rgb(158,161,168);fill-rule:nonzero;"/>
            <path id="path4672" d="M-3951.65,1325.46L-3959.52,1325.46L-3959.52,1303.31L-3963.86,1303.31L-3963.86,1296.33L-3947.14,1296.33L-3947.14,1303.31L-3951.65,1303.31L-3951.65,1325.46Z" style="fill:rgb(158,161,168);fill-rule:nonzero;"/>
            <path id="path4674" d="M-3925.58,1325.46L-3933.44,1325.46L-3933.44,1313.75L-3937.2,1313.75L-3937.2,1325.46L-3945.07,1325.46L-3945.07,1296.33L-3937.2,1296.33L-3937.2,1306.63L-3933.44,1306.63L-3933.44,1296.33L-3925.58,1296.33L-3925.58,1325.46Z" style="fill:rgb(158,161,168);fill-rule:nonzero;"/>
            <rect id="path4676" x="-3921.52" y="1296.33" width="7.868" height="29.134" style="fill:rgb(158,161,168);fill-rule:nonzero;"/>
        </g>
        <g id="path1166" transform="matrix(1,0,0,1,2.20828e-05,-25.3603)">
            <path d="M-4169.01,173.709L-4160.7,173.709L-4160.7,210.127L-4165.4,210.127L-4165.4,177.884L-4169.01,177.884L-4169.01,173.709Z" style="fill:rgb(158,161,168);fill-rule:nonzero;"/>
        </g>
        <g id="path1163" transform="matrix(1,0,0,1,2.20828e-05,-28.9829)">
            <path d="M-4166.2,261.63L-4171.01,261.63L-4171.06,260.191C-4171.06,256.213 -4170.46,253.414 -4169.26,251.794C-4168.05,250.159 -4166.02,249.341 -4163.18,249.341C-4157.82,249.341 -4155.14,252.313 -4155.14,258.257C-4155.14,262.267 -4157.14,268.045 -4161.15,275.593L-4164.05,281.042C-4164.08,281.073 -4164.12,281.167 -4164.19,281.325C-4164.27,281.482 -4164.38,281.71 -4164.52,282.009L-4155.51,282.009L-4155.51,286.207L-4171.5,286.207C-4171.23,285.609 -4170.68,284.422 -4169.83,282.645C-4168.98,280.869 -4167.82,278.471 -4166.36,275.452C-4165.12,272.81 -4164.08,270.569 -4163.25,268.729C-4162.41,266.89 -4161.78,265.38 -4161.36,264.201C-4160.51,261.842 -4160.09,259.806 -4160.09,258.092C-4160.09,255.073 -4161.13,253.563 -4163.22,253.563C-4165.23,253.563 -4166.24,255.435 -4166.24,259.177L-4166.2,261.252L-4166.2,261.63Z" style="fill:rgb(158,161,168);fill-rule:nonzero;"/>
        </g>
        <g id="path1160" transform="matrix(1,0,0,1,2.20828e-05,-32.6058)">
            <path d="M-4166.01,335.635L-4170.68,335.635L-4170.68,334.668C-4170.68,333.048 -4170.55,331.656 -4170.28,330.493C-4170,329.329 -4169.56,328.37 -4168.98,327.615C-4168.39,326.861 -4167.63,326.31 -4166.72,325.964C-4165.81,325.603 -4164.71,325.422 -4163.44,325.422C-4160.77,325.422 -4158.82,326.177 -4157.59,327.686C-4156.36,329.196 -4155.75,331.594 -4155.75,334.88C-4155.75,337.584 -4156.03,339.534 -4156.6,340.729C-4157.15,341.94 -4158.21,342.86 -4159.78,343.489C-4158.09,344.071 -4156.91,344.975 -4156.27,346.201C-4155.62,347.412 -4155.3,349.354 -4155.3,352.027C-4155.3,355.691 -4155.99,358.388 -4157.38,360.117C-4158.76,361.847 -4160.92,362.712 -4163.84,362.712C-4168.84,362.712 -4171.34,359.842 -4171.34,354.103L-4171.34,353.725L-4171.34,353.466C-4171.34,353.293 -4171.33,353.183 -4171.3,353.136L-4166.7,353.136C-4166.73,353.403 -4166.74,353.639 -4166.75,353.843L-4166.75,354.315C-4166.75,355.557 -4166.48,356.548 -4165.95,357.287C-4165.4,358.026 -4164.65,358.396 -4163.71,358.396C-4163.09,358.396 -4162.57,358.278 -4162.15,358.042C-4161.71,357.79 -4161.36,357.397 -4161.09,356.862C-4160.81,356.312 -4160.6,355.604 -4160.48,354.74C-4160.35,353.875 -4160.29,352.829 -4160.29,351.603C-4160.29,349.386 -4160.63,347.79 -4161.3,346.815C-4161.96,345.84 -4163.07,345.352 -4164.63,345.352C-4164.8,345.352 -4164.99,345.368 -4165.19,345.399C-4165.4,345.415 -4165.63,345.439 -4165.9,345.47L-4165.9,341.225L-4165.22,341.225C-4163.31,341.225 -4162.02,340.816 -4161.35,339.998C-4160.67,339.18 -4160.33,337.632 -4160.33,335.352C-4160.33,331.578 -4161.28,329.691 -4163.19,329.691C-4165.07,329.691 -4166.02,331.303 -4166.02,334.526L-4166.01,335.635Z" style="fill:rgb(158,161,168);fill-rule:nonzero;"/>
        </g>
        <g id="path1157" transform="matrix(1,0,0,1,2.20828e-05,-36.2287)">
            <path d="M-4161.93,401.95L-4157.38,401.95L-4157.38,424.64L-4155.04,424.64L-4155.04,428.391L-4157.38,428.391L-4157.38,438.368L-4161.93,438.368L-4161.93,428.391L-4171.91,428.391L-4171.91,424.216L-4161.93,401.95ZM-4161.93,424.64L-4161.93,409.356L-4168.06,424.64L-4161.93,424.64Z" style="fill:rgb(158,161,168);fill-rule:nonzero;"/>
        </g>
        <g id="path1154" transform="matrix(1,0,0,1,2.20828e-05,-39.8515)">
            <path d="M-4167.45,478.031L-4155.87,478.031L-4155.87,482.253L-4163.72,482.253L-4164.9,491.404L-4164.31,491.404C-4162.88,491.404 -4161.61,491.632 -4160.52,492.088C-4159.4,492.544 -4158.46,493.212 -4157.71,494.093C-4156.95,494.973 -4156.38,496.058 -4155.99,497.348C-4155.59,498.637 -4155.4,500.107 -4155.4,501.759C-4155.4,505.847 -4156.28,509.062 -4158.06,511.405C-4159.84,513.717 -4162.31,514.873 -4165.47,514.873C-4167.24,514.873 -4169.17,514.369 -4171.25,513.363L-4170.02,509.023C-4168.34,509.904 -4166.93,510.344 -4165.8,510.344C-4164.19,510.344 -4162.92,509.621 -4161.98,508.174C-4161.03,506.712 -4160.56,504.746 -4160.56,502.277C-4160.56,497.607 -4162.57,495.272 -4166.58,495.272C-4167.57,495.272 -4168.57,495.422 -4169.57,495.72L-4167.45,478.031Z" style="fill:rgb(158,161,168);fill-rule:nonzero;"/>
        </g>
        <g id="path1151" transform="matrix(1,0,0,1,2.20828e-05,-43.4744)">
            <path d="M-4163.77,554.111L-4158.56,554.111L-4161.98,561.116C-4162.57,562.39 -4163.18,563.742 -4163.79,565.173C-4164.39,566.604 -4165.02,568.129 -4165.68,569.749C-4164.31,568.664 -4163,568.121 -4161.74,568.121C-4159.71,568.121 -4158.15,569.002 -4157.05,570.763C-4156.01,572.414 -4155.49,575.37 -4155.49,579.631C-4155.49,583.657 -4156.1,586.558 -4157.31,588.335C-4158.52,590.08 -4160.49,590.953 -4163.23,590.953C-4166.03,590.953 -4168.05,589.986 -4169.29,588.052C-4170.53,586.102 -4171.15,582.926 -4171.15,578.523C-4171.15,574.828 -4170.66,571.305 -4169.69,567.956C-4169.19,566.289 -4168.45,564.324 -4167.47,562.06C-4166.48,559.795 -4165.25,557.146 -4163.77,554.111ZM-4160.18,579.608C-4160.18,578.35 -4160.24,577.281 -4160.35,576.4C-4160.46,575.504 -4160.64,574.78 -4160.89,574.23C-4161.15,573.664 -4161.47,573.255 -4161.86,573.004C-4162.24,572.736 -4162.7,572.603 -4163.25,572.603C-4163.8,572.603 -4164.27,572.736 -4164.67,573.004C-4165.04,573.255 -4165.36,573.656 -4165.61,574.207C-4165.86,574.757 -4166.04,575.48 -4166.15,576.377C-4166.26,577.257 -4166.32,578.318 -4166.32,579.561C-4166.32,584.325 -4165.3,586.707 -4163.25,586.707C-4161.21,586.707 -4160.19,584.341 -4160.19,579.608L-4160.18,579.608Z" style="fill:rgb(158,161,168);fill-rule:nonzero;"/>
        </g>
        <g id="path1148" transform="matrix(1,0,0,1,2.20828e-05,-47.0973)">
            <path d="M-4170.99,630.191L-4154.71,630.191L-4165.75,666.609L-4170.99,666.609L-4160.87,634.343L-4170.99,634.343L-4170.99,630.191Z" style="fill:rgb(158,161,168);fill-rule:nonzero;"/>
        </g>
        <g id="path1145" transform="matrix(1,0,0,1,2.20828e-05,-50.7202)">
            <path d="M-4159.74,722.924C-4158.1,723.521 -4156.98,724.473 -4156.36,725.778C-4155.75,727.083 -4155.44,729.198 -4155.44,732.122C-4155.44,735.896 -4156.08,738.672 -4157.35,740.448C-4158.61,742.225 -4160.59,743.114 -4163.3,743.114C-4166.02,743.114 -4168.02,742.225 -4169.29,740.448C-4170.55,738.672 -4171.18,735.896 -4171.18,732.122C-4171.18,729.198 -4170.87,727.083 -4170.26,725.778C-4169.64,724.473 -4168.52,723.521 -4166.88,722.924C-4168.33,722.295 -4169.35,721.367 -4169.95,720.141C-4170.55,718.82 -4170.85,717.035 -4170.85,714.786C-4170.85,713.23 -4170.7,711.885 -4170.42,710.753C-4170.12,709.621 -4169.67,708.693 -4169.05,707.97C-4168.44,707.231 -4167.66,706.688 -4166.72,706.343C-4165.76,705.997 -4164.62,705.824 -4163.3,705.824C-4161.98,705.824 -4160.85,705.997 -4159.9,706.343C-4158.96,706.688 -4158.18,707.231 -4157.57,707.97C-4156.95,708.693 -4156.51,709.621 -4156.22,710.753C-4155.92,711.885 -4155.77,713.23 -4155.77,714.786C-4155.77,717.035 -4156.07,718.82 -4156.67,720.141C-4157.27,721.367 -4158.29,722.295 -4159.74,722.924ZM-4160.61,715.187C-4160.61,711.76 -4161.51,710.046 -4163.32,710.046C-4165.11,710.046 -4166.01,711.744 -4166.01,715.14C-4166.01,718.914 -4165.11,720.801 -4163.3,720.801C-4161.51,720.801 -4160.61,718.93 -4160.61,715.187ZM-4160.28,732.689C-4160.28,731.415 -4160.34,730.33 -4160.45,729.434C-4160.56,728.522 -4160.74,727.783 -4160.99,727.216C-4161.24,726.65 -4161.56,726.234 -4161.96,725.966C-4162.33,725.699 -4162.79,725.565 -4163.32,725.565C-4164.38,725.565 -4165.15,726.108 -4165.64,727.193C-4166.11,728.278 -4166.34,730.031 -4166.34,732.453C-4166.34,736.683 -4165.33,738.797 -4163.3,738.797C-4161.29,738.797 -4160.28,736.761 -4160.28,732.689L-4160.28,732.689Z" style="fill:rgb(158,161,168);fill-rule:nonzero;"/>
        </g>
        <g id="path1142" transform="matrix(1,0,0,1,2.20828e-05,-54.343)">
            <path d="M-4163.04,818.77L-4168.27,818.77L-4164.76,811.694C-4164.13,810.404 -4163.51,809.083 -4162.9,807.731C-4162.27,806.363 -4161.65,804.94 -4161.06,803.462C-4162.27,804.437 -4163.52,804.924 -4164.81,804.924C-4166.96,804.924 -4168.55,804.06 -4169.57,802.33C-4170.59,800.584 -4171.11,797.88 -4171.11,794.216C-4171.11,789.813 -4170.51,786.661 -4169.31,784.758C-4168.12,782.855 -4166.13,781.904 -4163.35,781.904C-4160.53,781.904 -4158.52,782.863 -4157.31,784.782C-4156.1,786.7 -4155.49,789.892 -4155.49,794.358C-4155.49,797.66 -4155.87,800.71 -4156.62,803.509C-4156.98,804.893 -4157.5,806.442 -4158.18,808.156C-4158.86,809.854 -4159.7,811.764 -4160.7,813.887L-4162.61,817.873L-4163.04,818.77ZM-4160.28,793.579C-4160.28,788.783 -4161.31,786.385 -4163.37,786.385C-4165.41,786.385 -4166.44,788.752 -4166.44,793.485C-4166.44,795.969 -4166.2,797.77 -4165.73,798.886C-4165.24,800.003 -4164.45,800.561 -4163.37,800.561C-4162.28,800.561 -4161.5,800.011 -4161.01,798.91C-4160.52,797.793 -4160.28,796.017 -4160.28,793.579Z" style="fill:rgb(158,161,168);fill-rule:nonzero;"/>
        </g>
        <g id="text882" transform="matrix(1,0,0,1,2.20828e-05,-57.9659)">
            <path id="path1137" d="M-4183.5,858.433L-4175.19,858.433L-4175.19,894.85L-4179.89,894.85L-4179.89,862.607L-4183.5,862.607L-4183.5,858.433Z" style="fill:rgb(158,161,168);fill-rule:nonzero;"/>
            <path id="path1139" d="M-4152.03,876.924C-4152.03,883.466 -4152.66,888.183 -4153.92,891.076C-4155.16,893.875 -4157.28,895.275 -4160.27,895.275C-4163.25,895.275 -4165.38,893.867 -4166.63,891.053C-4167.88,888.317 -4168.5,883.513 -4168.5,876.641C-4168.5,869.77 -4167.88,864.966 -4166.63,862.23C-4165.39,859.4 -4163.28,857.984 -4160.29,857.984C-4157.52,857.984 -4155.48,859.227 -4154.16,861.711C-4152.74,864.337 -4152.03,869.408 -4152.03,876.924ZM-4157.03,876.924C-4157.03,871.421 -4157.27,867.616 -4157.74,865.508C-4158.21,863.417 -4159.07,862.371 -4160.31,862.371C-4161.55,862.371 -4162.42,863.409 -4162.91,865.485C-4163.38,867.561 -4163.61,871.295 -4163.61,876.688C-4163.61,882.082 -4163.38,885.824 -4162.91,887.916C-4162.42,889.991 -4161.55,891.029 -4160.31,891.029C-4159.09,891.029 -4158.24,889.999 -4157.77,887.939C-4157.28,885.974 -4157.03,882.302 -4157.03,876.924Z" style="fill:rgb(158,161,168);fill-rule:nonzero;"/>
        </g>
        <g id="text886" transform="matrix(1,0,0,1,2.20828e-05,-61.5888)">
            <path id="path1132" d="M-4183.5,934.513L-4175.19,934.513L-4175.19,970.93L-4179.89,970.93L-4179.89,938.688L-4183.5,938.688L-4183.5,934.513Z" style="fill:rgb(158,161,168);fill-rule:nonzero;"/>
            <path id="path1134" d="M-4167.65,934.513L-4159.35,934.513L-4159.35,970.93L-4164.04,970.93L-4164.04,938.688L-4167.65,938.688L-4167.65,934.513Z" style="fill:rgb(158,161,168);fill-rule:nonzero;"/>
        </g>
        <g id="text890" transform="matrix(1,0,0,1,2.20828e-05,-68.8348)">
            <path id="path1127" d="M-4183.5,1010.59L-4175.19,1010.59L-4175.19,1047.01L-4179.89,1047.01L-4179.89,1014.77L-4183.5,1014.77L-4183.5,1010.59Z" style="fill:rgb(158,161,168);fill-rule:nonzero;"/>
            <path id="path1129" d="M-4163.61,1022.43L-4168.43,1022.43L-4168.48,1021C-4168.48,1017.02 -4167.88,1014.22 -4166.68,1012.6C-4165.47,1010.96 -4163.44,1010.14 -4160.6,1010.14C-4155.23,1010.14 -4152.55,1013.12 -4152.55,1019.06C-4152.55,1023.07 -4154.56,1028.85 -4158.57,1036.4L-4161.47,1041.85C-4161.49,1041.88 -4161.54,1041.97 -4161.61,1042.13C-4161.69,1042.29 -4161.8,1042.51 -4161.94,1042.81L-4152.93,1042.81L-4152.93,1047.01L-4168.92,1047.01C-4168.65,1046.41 -4168.09,1045.23 -4167.24,1043.45C-4166.4,1041.67 -4165.24,1039.28 -4163.78,1036.26C-4162.54,1033.61 -4161.5,1031.37 -4160.66,1029.53C-4159.83,1027.69 -4159.2,1026.18 -4158.78,1025.01C-4157.93,1022.65 -4157.5,1020.61 -4157.5,1018.9C-4157.5,1015.88 -4158.55,1014.37 -4160.64,1014.37C-4162.65,1014.37 -4163.66,1016.24 -4163.66,1019.98L-4163.62,1022.06L-4163.61,1022.43Z" style="fill:rgb(158,161,168);fill-rule:nonzero;"/>
        </g>
        <g id="text898" transform="matrix(1,0,0,1,144.917,-21.7137)">
            <path id="path1220" d="M-4089.3,109.21L-4083.97,109.21L-4081.83,113.927C-4081.57,114.477 -4081.34,115.059 -4081.12,115.672C-4080.9,116.27 -4080.7,116.907 -4080.53,117.583C-4080.4,116.985 -4080.25,116.411 -4080.08,115.861C-4079.91,115.311 -4079.71,114.768 -4079.49,114.234L-4079.18,113.526L-4077.41,109.21L-4072.67,109.21L-4078.19,120.743L-4071.52,133.622L-4076.9,133.622L-4079.04,128.951C-4080.1,126.766 -4080.72,125.02 -4080.91,123.715C-4081.05,124.973 -4081.55,126.577 -4082.42,128.527L-4084.59,133.622L-4089.3,133.622L-4083.19,120.743L-4089.3,109.21Z" style="fill:rgb(158,161,168);fill-rule:nonzero;"/>
            <path id="path1222" d="M-4065.41,97.204L-4053.83,97.204L-4053.83,101.426L-4061.68,101.426L-4062.86,110.578L-4062.27,110.578C-4060.84,110.578 -4059.58,110.806 -4058.47,111.262C-4057.36,111.718 -4056.42,112.386 -4055.67,113.266C-4054.91,114.147 -4054.34,115.232 -4053.95,116.521C-4053.55,117.811 -4053.36,119.281 -4053.36,120.932C-4053.36,125.02 -4054.24,128.236 -4056.02,130.579C-4057.8,132.89 -4060.27,134.046 -4063.43,134.046C-4065.2,134.046 -4067.13,133.543 -4069.21,132.537L-4067.98,128.197C-4066.3,129.077 -4064.89,129.518 -4063.76,129.518C-4062.15,129.518 -4060.88,128.794 -4059.94,127.348C-4058.99,125.885 -4058.52,123.92 -4058.52,121.451C-4058.52,116.781 -4060.53,114.446 -4064.54,114.446C-4065.53,114.446 -4066.53,114.595 -4067.53,114.894L-4065.41,97.204Z" style="fill:rgb(158,161,168);fill-rule:nonzero;"/>
        </g>
        <g id="path1217" transform="matrix(1,0,0,1,148.658,-21.2891)">
            <path d="M-3994.55,97.204L-3990.73,97.204L-3982.92,133.622L-3987.78,133.622L-3989.14,126.522L-3996.36,126.522L-3997.75,133.622L-4002.47,133.622L-3994.55,97.204ZM-3989.85,122.725L-3990.94,116.922C-3991.66,112.976 -3992.25,108.761 -3992.71,104.28C-3992.93,106.466 -3993.21,108.683 -3993.56,110.931C-3993.9,113.164 -3994.31,115.539 -3994.78,118.055L-3995.68,122.725L-3989.85,122.725Z" style="fill:rgb(158,161,168);fill-rule:nonzero;"/>
        </g>
        <g id="path1214" transform="matrix(1,0,0,1,142.299,-21.2891)">
            <path d="M-3909.16,97.204L-3902.51,97.204C-3897.31,97.204 -3894.7,100.435 -3894.7,106.898C-3894.7,109.367 -3895.04,111.199 -3895.72,112.394C-3896.39,113.589 -3897.59,114.493 -3899.3,115.106C-3897.34,115.892 -3895.99,116.899 -3895.27,118.125C-3894.53,119.336 -3894.16,121.16 -3894.16,123.597C-3894.16,130.28 -3897.02,133.622 -3902.75,133.622L-3909.16,133.622L-3909.16,97.204ZM-3904.54,113.243C-3902.64,113.243 -3901.32,112.803 -3900.58,111.922C-3899.84,110.994 -3899.47,109.367 -3899.47,107.04C-3899.47,103.109 -3900.88,101.143 -3903.72,101.143L-3904.09,101.143L-3904.3,101.143C-3904.43,101.143 -3904.51,101.151 -3904.54,101.166L-3904.54,113.243ZM-3904.54,129.423C-3902.53,129.423 -3901.14,128.991 -3900.37,128.126C-3899.6,127.261 -3899.21,125.697 -3899.21,123.432C-3899.21,121.105 -3899.61,119.478 -3900.41,118.55C-3901.2,117.606 -3902.58,117.135 -3904.54,117.135L-3904.54,129.423Z" style="fill:rgb(158,161,168);fill-rule:nonzero;"/>
        </g>
        <g id="path1211" transform="matrix(1,0,0,1,135.785,-21.7373)">
            <path d="M-3804.3,97.794L-3804.3,102.204C-3805.56,101.591 -3806.61,101.285 -3807.46,101.285C-3808.62,101.285 -3809.62,101.575 -3810.45,102.157C-3811.29,102.723 -3811.98,103.604 -3812.53,104.799C-3813.07,105.994 -3813.47,107.511 -3813.73,109.351C-3813.99,111.175 -3814.11,113.337 -3814.11,115.837C-3814.11,124.832 -3811.81,129.329 -3807.2,129.329C-3806.4,129.329 -3805.43,129.077 -3804.3,128.574L-3804.3,133.079C-3805.48,133.74 -3806.8,134.07 -3808.26,134.07C-3815.64,134.07 -3819.32,128.047 -3819.32,116.003C-3819.32,109.493 -3818.43,104.65 -3816.63,101.473C-3814.83,98.297 -3812.07,96.709 -3808.36,96.709C-3806.99,96.709 -3805.64,97.07 -3804.3,97.794L-3804.3,97.794Z" style="fill:rgb(158,161,168);fill-rule:nonzero;"/>
        </g>
        <g id="path1208" transform="matrix(1,0,0,1,127.807,-21.2891)">
            <path d="M-3728.02,97.204L-3721.98,97.204C-3720.14,97.204 -3718.59,97.409 -3717.34,97.817C-3716.17,98.21 -3715.13,98.91 -3714.22,99.917C-3712.85,101.426 -3711.88,103.392 -3711.3,105.813C-3710.72,108.156 -3710.42,111.513 -3710.42,115.885C-3710.42,119.894 -3710.75,123.165 -3711.39,125.697C-3712.02,128.118 -3713.06,129.966 -3714.51,131.239C-3716.28,132.827 -3719.47,133.622 -3724.06,133.622L-3728.02,133.622L-3728.02,97.204ZM-3723.11,129.329C-3720.13,129.329 -3718.13,128.425 -3717.12,126.616C-3716.09,124.808 -3715.57,121.294 -3715.57,116.073C-3715.57,110.46 -3716.06,106.599 -3717.05,104.492C-3718.04,102.385 -3719.86,101.332 -3722.5,101.332L-3723.11,101.332L-3723.11,129.329Z" style="fill:rgb(158,161,168);fill-rule:nonzero;"/>
        </g>
        <g id="path1205" transform="matrix(1,0,0,1,120.562,-21.2891)">
            <path d="M-3637.45,97.204L-3624.41,97.204L-3624.41,101.355L-3632.54,101.355L-3632.54,112.889L-3625.32,112.889L-3625.32,117.04L-3632.54,117.04L-3632.54,129.47L-3624.41,129.47L-3624.41,133.622L-3637.45,133.622L-3637.45,97.204Z" style="fill:rgb(158,161,168);fill-rule:nonzero;"/>
        </g>
        <g id="text1361" transform="matrix(1,0,0,1,-456.615,14.4915)">
            <path id="path1422" d="M-3575.49,68.952L-3575.49,72.783C-3576.69,71.927 -3577.76,71.5 -3578.72,71.5C-3579.75,71.5 -3580.59,71.864 -3581.25,72.594C-3581.9,73.286 -3582.23,74.21 -3582.23,75.368C-3582.23,76.387 -3582,77.261 -3581.53,77.991C-3581.29,78.381 -3580.9,78.884 -3580.36,79.5C-3579.81,80.117 -3579.1,80.859 -3578.23,81.727C-3576.63,83.349 -3575.54,84.752 -3574.97,85.935C-3574.39,87.079 -3574.1,88.482 -3574.1,90.142C-3574.1,92.394 -3574.73,94.25 -3576,95.709C-3577.27,97.13 -3578.9,97.841 -3580.89,97.841C-3582.56,97.841 -3583.99,97.382 -3585.17,96.464L-3585.17,92.576C-3583.78,93.595 -3582.51,94.105 -3581.36,94.105C-3580.29,94.105 -3579.46,93.753 -3578.85,93.048C-3578.25,92.331 -3577.95,91.363 -3577.95,90.142C-3577.95,89.086 -3578.18,88.136 -3578.64,87.293C-3578.88,86.891 -3579.22,86.431 -3579.64,85.916C-3580.07,85.387 -3580.61,84.802 -3581.25,84.161C-3582.24,83.18 -3583.07,82.312 -3583.72,81.557C-3584.37,80.802 -3584.86,80.142 -3585.17,79.576C-3585.78,78.469 -3586.08,77.072 -3586.08,75.387C-3586.08,73.11 -3585.49,71.305 -3584.31,69.971C-3583.11,68.625 -3581.51,67.952 -3579.49,67.952C-3578.1,67.952 -3576.76,68.286 -3575.49,68.952Z" style="fill:rgb(158,161,168);fill-rule:nonzero;"/>
            <path id="path1424" d="M-3572.66,68.348L-3559.89,68.348L-3559.89,71.783L-3564.28,71.783L-3564.28,97.482L-3568.13,97.482L-3568.13,71.783L-3572.66,71.783L-3572.66,68.348Z" style="fill:rgb(158,161,168);fill-rule:nonzero;"/>
            <path id="path1426" d="M-3554.12,68.348L-3551.06,68.348L-3544.81,97.482L-3548.7,97.482L-3549.79,91.803L-3555.57,91.803L-3556.68,97.482L-3560.45,97.482L-3554.12,68.348ZM-3550.36,88.765L-3551.23,84.123C-3551.81,80.966 -3552.28,77.594 -3552.64,74.009C-3552.82,75.758 -3553.05,77.531 -3553.32,79.33C-3553.6,81.117 -3553.93,83.016 -3554.3,85.029L-3555.02,88.765L-3550.36,88.765Z" style="fill:rgb(158,161,168);fill-rule:nonzero;"/>
            <path id="path1428" d="M-3535.59,82.161L-3528.45,82.161L-3528.45,83.293C-3528.45,88.966 -3528.95,92.797 -3529.94,94.784C-3530.92,96.822 -3532.76,97.841 -3535.45,97.841C-3538.23,97.841 -3540.21,96.709 -3541.4,94.445C-3542.57,92.18 -3543.15,88.375 -3543.15,83.029C-3543.15,76.915 -3542.51,72.846 -3541.23,70.82C-3540.02,68.921 -3538.16,67.971 -3535.66,67.971C-3533.75,67.971 -3532.26,68.43 -3531.19,69.349C-3530.11,70.279 -3529.26,71.808 -3528.66,73.934L-3532.32,75.462C-3532.48,74.695 -3532.67,74.053 -3532.87,73.537C-3533.07,73.009 -3533.29,72.6 -3533.53,72.311C-3534.01,71.72 -3534.72,71.424 -3535.68,71.424C-3536.99,71.424 -3537.88,72.229 -3538.36,73.839C-3538.84,75.525 -3539.08,78.55 -3539.08,82.915C-3539.08,87.331 -3538.83,90.318 -3538.34,91.878C-3537.85,93.438 -3536.93,94.218 -3535.57,94.218C-3534.32,94.218 -3533.45,93.665 -3532.94,92.558C-3532.43,91.375 -3532.17,89.476 -3532.17,86.859L-3532.17,86.067L-3532.17,85.482L-3535.59,85.482L-3535.59,82.161Z" style="fill:rgb(158,161,168);fill-rule:nonzero;"/>
            <path id="path1430" d="M-3524.53,68.348L-3514.09,68.348L-3514.09,71.669L-3520.6,71.669L-3520.6,80.896L-3514.83,80.896L-3514.83,84.217L-3520.6,84.217L-3520.6,94.161L-3514.09,94.161L-3514.09,97.482L-3524.53,97.482L-3524.53,68.348Z" style="fill:rgb(158,161,168);fill-rule:nonzero;"/>
        </g>
        <g id="text1365" transform="matrix(1,0,0,1,25.3617,14.4915)">
            <path id="path1413" d="M-3485.91,68.348L-3482.56,68.348L-3479.99,80.236C-3479.67,81.72 -3479.39,83.211 -3479.14,84.708C-3478.88,86.192 -3478.64,87.752 -3478.42,89.388C-3478.4,89.174 -3478.38,89.01 -3478.37,88.897C-3478.35,88.771 -3478.34,88.683 -3478.33,88.633L-3477.78,85.293L-3477.29,82.123L-3476.86,80.029L-3474.57,68.349L-3471.18,68.349L-3468.5,97.482L-3472.25,97.482L-3472.91,87.595C-3472.94,87.092 -3472.96,86.658 -3472.99,86.293C-3473,85.928 -3473.01,85.626 -3473.01,85.387L-3473.18,81.481L-3473.27,77.896C-3473.27,77.871 -3473.28,77.821 -3473.29,77.745C-3473.29,77.657 -3473.3,77.544 -3473.31,77.406L-3473.4,77.991C-3473.5,78.683 -3473.6,79.286 -3473.69,79.802C-3473.76,80.318 -3473.83,80.752 -3473.89,81.104L-3474.38,83.765L-3474.57,84.765L-3477.03,97.482L-3479.67,97.482L-3481.97,86.501C-3482.28,85.054 -3482.57,83.588 -3482.82,82.104C-3483.06,80.607 -3483.28,79.041 -3483.48,77.406L-3484.61,97.482L-3488.31,97.482L-3485.91,68.348Z" style="fill:rgb(158,161,168);fill-rule:nonzero;"/>
            <path id="path1415" d="M-3450.67,83.632C-3450.67,88.777 -3451.24,92.432 -3452.38,94.595C-3453.53,96.759 -3455.45,97.841 -3458.14,97.841C-3460.97,97.841 -3462.96,96.677 -3464.12,94.35C-3465.26,92.073 -3465.84,88.029 -3465.84,82.217C-3465.84,77.035 -3465.27,73.368 -3464.14,71.217C-3462.99,69.053 -3461.06,67.971 -3458.33,67.971C-3455.89,67.971 -3454.08,68.808 -3452.89,70.481C-3452.11,71.6 -3451.55,73.192 -3451.19,75.255C-3450.84,77.167 -3450.67,79.959 -3450.67,83.632ZM-3454.78,84.048C-3454.78,79.003 -3455.01,75.657 -3455.46,74.009C-3455.91,72.349 -3456.84,71.519 -3458.23,71.519C-3459.63,71.519 -3460.56,72.28 -3461.03,73.802C-3461.48,75.336 -3461.7,78.418 -3461.7,83.048C-3461.7,87.312 -3461.47,90.268 -3460.99,91.916C-3460.5,93.476 -3459.58,94.256 -3458.23,94.256C-3456.91,94.256 -3456.01,93.526 -3455.51,92.067C-3455.02,90.62 -3454.78,87.947 -3454.78,84.048Z" style="fill:rgb(158,161,168);fill-rule:nonzero;"/>
            <path id="path1417" d="M-3446.76,68.348L-3441.93,68.348C-3440.46,68.348 -3439.22,68.512 -3438.21,68.839C-3437.28,69.154 -3436.45,69.713 -3435.72,70.518C-3434.63,71.726 -3433.85,73.298 -3433.38,75.236C-3432.92,77.11 -3432.68,79.796 -3432.68,83.293C-3432.68,86.501 -3432.94,89.117 -3433.46,91.142C-3433.96,93.08 -3434.79,94.558 -3435.95,95.577C-3437.37,96.847 -3439.92,97.482 -3443.59,97.482L-3446.76,97.482L-3446.76,68.348ZM-3442.84,94.048C-3440.45,94.048 -3438.85,93.325 -3438.04,91.878C-3437.21,90.432 -3436.8,87.62 -3436.8,83.444C-3436.8,78.953 -3437.19,75.865 -3437.99,74.179C-3438.78,72.493 -3440.23,71.651 -3442.34,71.651L-3442.84,71.651L-3442.84,94.048Z" style="fill:rgb(158,161,168);fill-rule:nonzero;"/>
            <path id="path1419" d="M-3428.8,68.348L-3418.36,68.348L-3418.36,71.669L-3424.87,71.669L-3424.87,80.896L-3419.1,80.896L-3419.1,84.217L-3424.87,84.217L-3424.87,94.161L-3418.36,94.161L-3418.36,97.482L-3428.8,97.482L-3428.8,68.348Z" style="fill:rgb(158,161,168);fill-rule:nonzero;"/>
        </g>
        <g id="text1369" transform="matrix(1,0,0,1,25.3617,14.4915)">
            <path id="path1406" d="M-3389.96,68.707L-3384.79,68.707C-3382.65,68.707 -3381.06,69.216 -3380.02,70.235C-3378.7,71.556 -3378.04,73.575 -3378.04,76.292C-3378.04,78.381 -3378.39,80.06 -3379.09,81.33C-3379.79,82.588 -3380.78,83.368 -3382.08,83.67L-3376.72,97.841L-3380.7,97.841L-3386.04,83.576L-3386.04,97.841L-3389.96,97.841L-3389.96,68.707ZM-3386.04,81.613C-3384.52,81.613 -3383.44,81.261 -3382.81,80.557C-3382.18,79.852 -3381.87,78.664 -3381.87,76.991C-3381.87,76.085 -3381.94,75.311 -3382.08,74.67C-3382.2,74.028 -3382.41,73.506 -3382.7,73.104C-3382.97,72.701 -3383.34,72.405 -3383.79,72.217C-3384.23,72.028 -3384.76,71.934 -3385.38,71.934L-3386.04,71.934L-3386.04,81.613Z" style="fill:rgb(158,161,168);fill-rule:nonzero;"/>
            <path id="path1408" d="M-3373.66,68.707L-3363.22,68.707L-3363.22,72.028L-3369.74,72.028L-3369.74,81.255L-3363.96,81.255L-3363.96,84.576L-3369.74,84.576L-3369.74,94.52L-3363.22,94.52L-3363.22,97.841L-3373.66,97.841L-3373.66,68.707Z" style="fill:rgb(158,161,168);fill-rule:nonzero;"/>
            <path id="path1410" d="M-3359.62,68.707L-3354.45,68.707C-3351.96,68.707 -3350.15,69.336 -3349.02,70.594C-3347.88,71.864 -3347.32,73.877 -3347.32,76.632C-3347.32,80.506 -3348.46,83.01 -3350.73,84.142C-3351.88,84.658 -3353.53,84.916 -3355.7,84.916L-3355.7,97.841L-3359.62,97.841L-3359.62,68.707ZM-3355.7,81.557C-3354.07,81.557 -3352.95,81.23 -3352.34,80.576C-3351.71,79.909 -3351.39,78.727 -3351.39,77.028C-3351.39,75.292 -3351.7,74.022 -3352.3,73.217C-3352.9,72.412 -3353.85,72.009 -3355.15,72.009L-3355.7,72.009L-3355.7,81.557Z" style="fill:rgb(158,161,168);fill-rule:nonzero;"/>
        </g>
        <g id="text1455" transform="matrix(1,0,0,1,308.567,-72.4575)">
            <path id="path1461" d="M-3596.67,1075.48L-3583.89,1075.48L-3583.89,1078.92L-3588.29,1078.92L-3588.29,1104.62L-3592.14,1104.62L-3592.14,1078.92L-3596.67,1078.92L-3596.67,1075.48Z" style="fill:rgb(158,161,168);fill-rule:nonzero;"/>
            <path id="path1463" d="M-3581.74,1075.48L-3576.57,1075.48C-3574.43,1075.48 -3572.84,1075.99 -3571.8,1077.01C-3570.48,1078.33 -3569.82,1080.35 -3569.82,1083.07C-3569.82,1085.16 -3570.17,1086.84 -3570.87,1088.11C-3571.57,1089.37 -3572.56,1090.15 -3573.85,1090.45L-3568.49,1104.62L-3572.48,1104.62L-3577.82,1090.35L-3577.82,1104.62L-3581.74,1104.62L-3581.74,1075.48ZM-3577.82,1088.39C-3576.29,1088.39 -3575.22,1088.04 -3574.59,1087.33C-3573.96,1086.63 -3573.65,1085.44 -3573.65,1083.77C-3573.65,1082.86 -3573.72,1082.09 -3573.85,1081.45C-3573.98,1080.81 -3574.19,1080.28 -3574.48,1079.88C-3574.75,1079.48 -3575.12,1079.18 -3575.57,1078.99C-3576.01,1078.81 -3576.54,1078.71 -3577.16,1078.71L-3577.82,1078.71L-3577.82,1088.39Z" style="fill:rgb(158,161,168);fill-rule:nonzero;"/>
            <rect id="path1465" x="-3565.44" y="1075.48" width="3.925" height="29.134" style="fill:rgb(158,161,168);fill-rule:nonzero;"/>
            <path id="path1467" d="M-3550,1089.3L-3542.87,1089.3L-3542.87,1090.43C-3542.87,1096.1 -3543.37,1099.93 -3544.36,1101.92C-3545.34,1103.96 -3547.18,1104.98 -3549.87,1104.98C-3552.65,1104.98 -3554.63,1103.85 -3555.82,1101.58C-3556.99,1099.32 -3557.57,1095.51 -3557.57,1090.16C-3557.57,1084.05 -3556.93,1079.98 -3555.64,1077.96C-3554.44,1076.06 -3552.58,1075.11 -3550.08,1075.11C-3548.17,1075.11 -3546.68,1075.57 -3545.61,1076.48C-3544.53,1077.41 -3543.68,1078.94 -3543.08,1081.07L-3546.74,1082.6C-3546.9,1081.83 -3547.09,1081.19 -3547.29,1080.67C-3547.49,1080.14 -3547.71,1079.74 -3547.95,1079.45C-3548.43,1078.86 -3549.14,1078.56 -3550.1,1078.56C-3551.41,1078.56 -3552.3,1079.37 -3552.78,1080.97C-3553.26,1082.66 -3553.49,1085.69 -3553.49,1090.05C-3553.49,1094.47 -3553.25,1097.45 -3552.76,1099.01C-3552.27,1100.57 -3551.34,1101.35 -3549.99,1101.35C-3548.74,1101.35 -3547.87,1100.8 -3547.36,1099.69C-3546.85,1098.51 -3546.59,1096.61 -3546.59,1094L-3546.59,1093.2L-3546.59,1092.62L-3550,1092.62L-3550,1089.3Z" style="fill:rgb(158,161,168);fill-rule:nonzero;"/>
        </g>
        <g id="text1476" transform="matrix(1,0,0,1,-327.719,50.7203)">
            <path id="path1478" d="M-3843.76,1148.41L-3843.76,1151.94C-3844.76,1151.45 -3845.61,1151.21 -3846.29,1151.21C-3847.22,1151.21 -3848.02,1151.44 -3848.68,1151.9C-3849.35,1152.36 -3849.9,1153.06 -3850.34,1154.02C-3850.77,1154.97 -3851.09,1156.19 -3851.31,1157.66C-3851.51,1159.12 -3851.61,1160.85 -3851.61,1162.85C-3851.61,1170.04 -3849.76,1173.64 -3846.08,1173.64C-3845.44,1173.64 -3844.66,1173.44 -3843.76,1173.04L-3843.76,1176.64C-3844.7,1177.17 -3845.76,1177.43 -3846.93,1177.43C-3852.83,1177.43 -3855.78,1172.62 -3855.78,1162.98C-3855.78,1157.77 -3855.06,1153.9 -3853.63,1151.36C-3852.18,1148.82 -3849.97,1147.55 -3847,1147.55C-3845.91,1147.55 -3844.83,1147.84 -3843.76,1148.41L-3843.76,1148.41Z" style="fill:rgb(158,161,168);fill-rule:nonzero;"/>
            <path id="path1480" d="M-3840.47,1147.94L-3836.55,1147.94L-3836.55,1173.76L-3830.14,1173.76L-3830.14,1177.08L-3840.47,1177.08L-3840.47,1147.94Z" style="fill:rgb(158,161,168);fill-rule:nonzero;"/>
            <path id="path1482" d="M-3827.64,1147.94L-3823.72,1147.94L-3823.72,1162.06L-3818.25,1147.94L-3814.28,1147.94L-3820.02,1162.06L-3813.83,1177.08L-3818.25,1177.08L-3823.72,1162.06L-3823.72,1177.08L-3827.64,1177.08L-3827.64,1147.94Z" style="fill:rgb(158,161,168);fill-rule:nonzero;"/>
        </g>
        <g id="text1508" transform="matrix(1,0,0,1,198.326,-144.915)">
            <path id="path1510" d="M-3567.68,1147.94L-3563.76,1147.94L-3563.76,1173.76L-3557.34,1173.76L-3557.34,1177.08L-3567.68,1177.08L-3567.68,1147.94Z" style="fill:rgb(158,161,168);fill-rule:nonzero;"/>
            <path id="path1512" d="M-3549.12,1147.94L-3546.06,1147.94L-3539.81,1177.08L-3543.7,1177.08L-3544.8,1171.4L-3550.57,1171.4L-3551.68,1177.08L-3555.46,1177.08L-3549.12,1147.94ZM-3545.36,1168.36L-3546.23,1163.72C-3546.81,1160.56 -3547.28,1157.19 -3547.64,1153.6C-3547.82,1155.35 -3548.05,1157.13 -3548.32,1158.92C-3548.6,1160.71 -3548.93,1162.61 -3549.31,1164.62L-3550.02,1168.36L-3545.36,1168.36Z" style="fill:rgb(158,161,168);fill-rule:nonzero;"/>
            <path id="path1514" d="M-3527.78,1148.55L-3527.78,1152.38C-3528.97,1151.52 -3530.05,1151.09 -3531,1151.09C-3532.03,1151.09 -3532.88,1151.46 -3533.53,1152.19C-3534.18,1152.88 -3534.51,1153.8 -3534.51,1154.96C-3534.51,1155.98 -3534.28,1156.85 -3533.81,1157.58C-3533.57,1157.97 -3533.18,1158.48 -3532.64,1159.09C-3532.09,1159.71 -3531.38,1160.45 -3530.51,1161.32C-3528.91,1162.94 -3527.83,1164.35 -3527.25,1165.53C-3526.67,1166.67 -3526.38,1168.08 -3526.38,1169.74C-3526.38,1171.99 -3527.01,1173.84 -3528.28,1175.3C-3529.56,1176.72 -3531.18,1177.43 -3533.17,1177.43C-3534.85,1177.43 -3536.27,1176.98 -3537.45,1176.06L-3537.45,1172.17C-3536.06,1173.19 -3534.79,1173.7 -3533.64,1173.7C-3532.57,1173.7 -3531.74,1173.35 -3531.13,1172.64C-3530.53,1171.92 -3530.23,1170.96 -3530.23,1169.74C-3530.23,1168.68 -3530.46,1167.73 -3530.93,1166.89C-3531.17,1166.48 -3531.5,1166.03 -3531.93,1165.51C-3532.35,1164.98 -3532.89,1164.4 -3533.53,1163.75C-3534.52,1162.77 -3535.35,1161.9 -3536,1161.15C-3536.66,1160.4 -3537.14,1159.74 -3537.45,1159.17C-3538.06,1158.06 -3538.36,1156.67 -3538.36,1154.98C-3538.36,1152.7 -3537.77,1150.9 -3536.59,1149.57C-3535.39,1148.22 -3533.79,1147.55 -3531.78,1147.55C-3530.38,1147.55 -3529.05,1147.88 -3527.78,1148.55Z" style="fill:rgb(158,161,168);fill-rule:nonzero;"/>
            <path id="path1516" d="M-3524.95,1147.94L-3512.17,1147.94L-3512.17,1151.38L-3516.57,1151.38L-3516.57,1177.08L-3520.42,1177.08L-3520.42,1151.38L-3524.95,1151.38L-3524.95,1147.94Z" style="fill:rgb(158,161,168);fill-rule:nonzero;"/>
        </g>
        <g id="text1127" transform="matrix(1,0,0,1,-3.36682,0)">
            <path id="path1143" d="M-3268.19,98.124C-3268.19,103.269 -3268.76,106.923 -3269.91,109.087C-3271.06,111.251 -3272.97,112.332 -3275.66,112.332C-3278.49,112.332 -3280.49,111.169 -3281.65,108.842C-3282.79,106.565 -3283.36,102.52 -3283.36,96.709C-3283.36,91.526 -3282.8,87.859 -3281.66,85.708C-3280.52,83.544 -3278.58,82.463 -3275.85,82.463C-3273.41,82.463 -3271.6,83.299 -3270.42,84.972C-3269.64,86.092 -3269.07,87.683 -3268.72,89.746C-3268.37,91.658 -3268.19,94.451 -3268.19,98.124ZM-3272.31,98.539C-3272.31,93.495 -3272.53,90.149 -3272.99,88.501C-3273.44,86.84 -3274.36,86.01 -3275.76,86.01C-3277.16,86.01 -3278.09,86.771 -3278.55,88.293C-3279.01,89.828 -3279.23,92.91 -3279.23,97.539C-3279.23,101.803 -3278.99,104.76 -3278.51,106.408C-3278.02,107.967 -3277.11,108.747 -3275.76,108.747C-3274.44,108.747 -3273.53,108.018 -3273.04,106.558C-3272.55,105.112 -3272.31,102.439 -3272.31,98.539Z" style="fill:rgb(158,161,168);fill-rule:nonzero;"/>
            <path id="path1146" d="M-3264.29,82.84L-3260.44,82.84L-3260.44,103.426C-3260.44,105.527 -3260.25,106.923 -3259.87,107.615C-3259.48,108.307 -3258.71,108.653 -3257.57,108.653C-3256.43,108.653 -3255.67,108.351 -3255.31,107.747C-3254.93,107.131 -3254.74,105.879 -3254.74,103.992L-3254.74,82.84L-3250.89,82.84L-3250.89,103.992C-3250.89,107.162 -3251.37,109.307 -3252.34,110.427C-3253.5,111.697 -3255.27,112.332 -3257.64,112.332C-3260.26,112.332 -3262.1,111.515 -3263.17,109.879C-3263.92,108.76 -3264.29,106.609 -3264.29,103.426L-3264.29,82.84Z" style="fill:rgb(158,161,168);fill-rule:nonzero;"/>
            <path id="path1149" d="M-3248.72,82.84L-3235.95,82.84L-3235.95,86.274L-3240.34,86.274L-3240.34,111.974L-3244.19,111.974L-3244.19,86.274L-3248.72,86.274L-3248.72,82.84Z" style="fill:rgb(158,161,168);fill-rule:nonzero;"/>
        </g>
        <g id="text1131" transform="matrix(1,0,0,1,44.7388,0)">
            <path id="path1133" d="M-3335.74,42.965L-3322.97,42.965L-3322.97,46.399L-3327.37,46.399L-3327.37,72.099L-3331.22,72.099L-3331.22,46.399L-3335.74,46.399L-3335.74,42.965Z" style="fill:rgb(158,161,168);fill-rule:nonzero;"/>
            <path id="path1135" d="M-3320.82,42.965L-3315.65,42.965C-3313.51,42.965 -3311.92,43.474 -3310.88,44.493C-3309.55,45.814 -3308.89,47.833 -3308.89,50.55C-3308.89,52.638 -3309.25,54.318 -3309.95,55.588C-3310.64,56.846 -3311.64,57.626 -3312.93,57.928L-3307.57,72.099L-3311.55,72.099L-3316.89,57.834L-3316.89,72.099L-3320.82,72.099L-3320.82,42.965ZM-3316.89,55.871C-3315.37,55.871 -3314.3,55.519 -3313.67,54.815C-3313.04,54.11 -3312.72,52.921 -3312.72,51.248C-3312.72,50.343 -3312.79,49.569 -3312.93,48.927C-3313.06,48.286 -3313.26,47.764 -3313.55,47.361C-3313.83,46.959 -3314.2,46.663 -3314.65,46.474C-3315.09,46.286 -3315.62,46.191 -3316.23,46.191L-3316.89,46.191L-3316.89,55.871Z" style="fill:rgb(158,161,168);fill-rule:nonzero;"/>
            <rect id="path1138" x="-3304.52" y="42.965" width="3.925" height="29.134" style="fill:rgb(158,161,168);fill-rule:nonzero;"/>
            <path id="path1140" d="M-3289.08,56.777L-3281.95,56.777L-3281.95,57.909C-3281.95,63.582 -3282.45,67.413 -3283.44,69.4C-3284.42,71.438 -3286.26,72.457 -3288.95,72.457C-3291.73,72.457 -3293.71,71.325 -3294.89,69.061C-3296.06,66.796 -3296.65,62.991 -3296.65,57.645C-3296.65,51.531 -3296.01,47.462 -3294.72,45.437C-3293.51,43.537 -3291.66,42.587 -3289.16,42.587C-3287.24,42.587 -3285.75,43.047 -3284.68,43.965C-3283.6,44.896 -3282.76,46.424 -3282.16,48.55L-3285.82,50.078C-3285.98,49.311 -3286.16,48.67 -3286.36,48.154C-3286.57,47.625 -3286.78,47.217 -3287.02,46.927C-3287.5,46.336 -3288.22,46.04 -3289.18,46.04C-3290.48,46.04 -3291.38,46.846 -3291.86,48.456C-3292.33,50.141 -3292.57,53.167 -3292.57,57.532C-3292.57,61.947 -3292.33,64.935 -3291.84,66.495C-3291.35,68.054 -3290.42,68.834 -3289.06,68.834C-3287.82,68.834 -3286.94,68.281 -3286.44,67.174C-3285.92,65.991 -3285.67,64.092 -3285.67,61.475L-3285.67,60.683L-3285.67,60.098L-3289.08,60.098L-3289.08,56.777Z" style="fill:rgb(158,161,168);fill-rule:nonzero;"/>
        </g>
        <g id="text1124" transform="matrix(1,0,0,1,90.5723,-32.6058)">
            <path id="path1126" d="M-4021.75,1101.64C-4021.75,1106.78 -4022.32,1110.44 -4023.47,1112.6C-4024.61,1114.76 -4026.53,1115.85 -4029.22,1115.85C-4032.05,1115.85 -4034.05,1114.68 -4035.2,1112.36C-4036.35,1110.08 -4036.92,1106.03 -4036.92,1100.22C-4036.92,1095.04 -4036.36,1091.37 -4035.22,1089.22C-4034.08,1087.06 -4032.14,1085.98 -4029.41,1085.98C-4026.97,1085.98 -4025.16,1086.81 -4023.98,1088.49C-4023.2,1089.61 -4022.63,1091.2 -4022.28,1093.26C-4021.93,1095.17 -4021.75,1097.96 -4021.75,1101.64ZM-4025.86,1102.05C-4025.86,1097.01 -4026.09,1093.66 -4026.54,1092.01C-4027,1090.35 -4027.92,1089.52 -4029.32,1089.52C-4030.71,1089.52 -4031.64,1090.28 -4032.11,1091.81C-4032.56,1093.34 -4032.79,1096.42 -4032.79,1101.05C-4032.79,1105.32 -4032.55,1108.27 -4032.07,1109.92C-4031.58,1111.48 -4030.66,1112.26 -4029.32,1112.26C-4028,1112.26 -4027.09,1111.53 -4026.6,1110.07C-4026.11,1108.63 -4025.86,1105.95 -4025.86,1102.05Z" style="fill:rgb(158,161,168);fill-rule:nonzero;"/>
            <path id="path1128" d="M-4017.85,1086.35L-4013.99,1086.35L-4013.99,1106.94C-4013.99,1109.04 -4013.81,1110.44 -4013.43,1111.13C-4013.04,1111.82 -4012.27,1112.17 -4011.13,1112.17C-4009.98,1112.17 -4009.23,1111.86 -4008.86,1111.26C-4008.49,1110.64 -4008.3,1109.39 -4008.3,1107.51L-4008.3,1086.35L-4004.45,1086.35L-4004.45,1107.51C-4004.45,1110.67 -4004.93,1112.82 -4005.9,1113.94C-4007.06,1115.21 -4008.83,1115.85 -4011.2,1115.85C-4013.82,1115.85 -4015.66,1115.03 -4016.73,1113.39C-4017.47,1112.27 -4017.85,1110.12 -4017.85,1106.94L-4017.85,1086.35Z" style="fill:rgb(158,161,168);fill-rule:nonzero;"/>
            <path id="path1130" d="M-4002.28,1086.35L-3989.5,1086.35L-3989.5,1089.79L-3993.9,1089.79L-3993.9,1115.49L-3997.75,1115.49L-3997.75,1089.79L-4002.28,1089.79L-4002.28,1086.35Z" style="fill:rgb(158,161,168);fill-rule:nonzero;"/>
            <path id="path1136" d="M-3976.8,1086.96L-3976.8,1090.79C-3978,1089.93 -3979.08,1089.5 -3980.03,1089.5C-3981.06,1089.5 -3981.91,1089.87 -3982.56,1090.6C-3983.21,1091.29 -3983.54,1092.21 -3983.54,1093.37C-3983.54,1094.39 -3983.31,1095.27 -3982.84,1096C-3982.6,1096.38 -3982.21,1096.89 -3981.67,1097.51C-3981.12,1098.12 -3980.41,1098.86 -3979.54,1099.73C-3977.94,1101.35 -3976.86,1102.76 -3976.28,1103.94C-3975.7,1105.08 -3975.41,1106.49 -3975.41,1108.15C-3975.41,1110.4 -3976.04,1112.25 -3977.31,1113.71C-3978.58,1115.13 -3980.21,1115.85 -3982.2,1115.85C-3983.87,1115.85 -3985.3,1115.39 -3986.48,1114.47L-3986.48,1110.58C-3985.09,1111.6 -3983.82,1112.11 -3982.67,1112.11C-3981.6,1112.11 -3980.77,1111.76 -3980.16,1111.05C-3979.56,1110.34 -3979.26,1109.37 -3979.26,1108.15C-3979.26,1107.09 -3979.49,1106.14 -3979.95,1105.3C-3980.2,1104.89 -3980.53,1104.44 -3980.95,1103.92C-3981.38,1103.39 -3981.92,1102.81 -3982.56,1102.16C-3983.55,1101.18 -3984.38,1100.32 -3985.03,1099.56C-3985.68,1098.81 -3986.17,1098.15 -3986.48,1097.58C-3987.09,1096.47 -3987.39,1095.08 -3987.39,1093.39C-3987.39,1091.11 -3986.8,1089.31 -3985.62,1087.98C-3984.42,1086.63 -3982.82,1085.96 -3980.81,1085.96C-3979.41,1085.96 -3978.08,1086.29 -3976.8,1086.96Z" style="fill:rgb(158,161,168);fill-rule:nonzero;"/>
        </g>
        <g id="g1286" transform="matrix(1,0,0,1,356.485,-65.0986)">
            <g id="text1206" transform="matrix(1,0,0,1,984.389,217.373)">
                <path id="path1224" d="M-5159.95,1029.24L-5159.95,1032.11C-5160.84,1031.47 -5161.65,1031.15 -5162.37,1031.15C-5163.14,1031.15 -5163.77,1031.42 -5164.26,1031.97C-5164.75,1032.49 -5165,1033.18 -5165,1034.05C-5165,1034.81 -5164.82,1035.47 -5164.48,1036.02C-5164.3,1036.31 -5164,1036.68 -5163.6,1037.15C-5163.18,1037.61 -5162.65,1038.17 -5162,1038.82C-5160.8,1040.03 -5159.98,1041.09 -5159.55,1041.97C-5159.12,1042.83 -5158.9,1043.88 -5158.9,1045.13C-5158.9,1046.82 -5159.38,1048.21 -5160.33,1049.3C-5161.28,1050.37 -5162.5,1050.9 -5163.99,1050.9C-5165.25,1050.9 -5166.32,1050.56 -5167.21,1049.87L-5167.21,1046.95C-5166.16,1047.72 -5165.21,1048.1 -5164.35,1048.1C-5163.55,1048.1 -5162.92,1047.84 -5162.47,1047.31C-5162.01,1046.77 -5161.79,1046.04 -5161.79,1045.13C-5161.79,1044.34 -5161.96,1043.62 -5162.31,1042.99C-5162.49,1042.69 -5162.74,1042.35 -5163.06,1041.96C-5163.38,1041.56 -5163.78,1041.12 -5164.26,1040.64C-5165.01,1039.91 -5165.63,1039.26 -5166.12,1038.69C-5166.61,1038.12 -5166.97,1037.63 -5167.21,1037.2C-5167.66,1036.37 -5167.89,1035.33 -5167.89,1034.06C-5167.89,1032.35 -5167.44,1031 -5166.56,1030C-5165.66,1028.99 -5164.46,1028.49 -5162.95,1028.49C-5161.9,1028.49 -5160.9,1028.74 -5159.95,1029.24Z" style="fill:rgb(158,161,168);fill-rule:nonzero;"/>
                <path id="path1226" d="M-5157.82,1028.78L-5148.24,1028.78L-5148.24,1031.36L-5151.54,1031.36L-5151.54,1050.63L-5154.43,1050.63L-5154.43,1031.36L-5157.82,1031.36L-5157.82,1028.78Z" style="fill:rgb(158,161,168);fill-rule:nonzero;"/>
                <path id="path1228" d="M-5143.91,1028.78L-5141.62,1028.78L-5136.94,1050.63L-5139.85,1050.63L-5140.67,1046.37L-5145,1046.37L-5145.84,1050.63L-5148.67,1050.63L-5143.91,1028.78ZM-5141.1,1044.1L-5141.75,1040.61C-5142.18,1038.25 -5142.54,1035.72 -5142.81,1033.03C-5142.94,1034.34 -5143.11,1035.67 -5143.32,1037.02C-5143.53,1038.36 -5143.77,1039.78 -5144.06,1041.29L-5144.59,1044.1L-5141.1,1044.1Z" style="fill:rgb(158,161,168);fill-rule:nonzero;"/>
                <path id="path1230" d="M-5135.2,1028.78L-5131.32,1028.78C-5129.71,1028.78 -5128.52,1029.16 -5127.74,1029.93C-5126.75,1030.92 -5126.25,1032.43 -5126.25,1034.47C-5126.25,1036.04 -5126.52,1037.3 -5127.04,1038.25C-5127.56,1039.19 -5128.31,1039.78 -5129.28,1040.01L-5125.26,1050.63L-5128.25,1050.63L-5132.25,1039.93L-5132.25,1050.63L-5135.2,1050.63L-5135.2,1028.78ZM-5132.25,1038.46C-5131.11,1038.46 -5130.3,1038.2 -5129.83,1037.67C-5129.36,1037.14 -5129.12,1036.25 -5129.12,1035C-5129.12,1034.32 -5129.18,1033.74 -5129.28,1033.26C-5129.37,1032.77 -5129.53,1032.38 -5129.75,1032.08C-5129.95,1031.78 -5130.23,1031.56 -5130.57,1031.42C-5130.9,1031.27 -5131.29,1031.2 -5131.76,1031.2L-5132.25,1031.2L-5132.25,1038.46Z" style="fill:rgb(158,161,168);fill-rule:nonzero;"/>
                <path id="path1232" d="M-5124.43,1028.78L-5114.85,1028.78L-5114.85,1031.36L-5118.14,1031.36L-5118.14,1050.63L-5121.03,1050.63L-5121.03,1031.36L-5124.43,1031.36L-5124.43,1028.78Z" style="fill:rgb(158,161,168);fill-rule:nonzero;"/>
                <path id="path1234" d="M-5099.94,1029.24L-5099.94,1032.11C-5100.84,1031.47 -5101.65,1031.15 -5102.36,1031.15C-5103.14,1031.15 -5103.77,1031.42 -5104.26,1031.97C-5104.75,1032.49 -5105,1033.18 -5105,1034.05C-5105,1034.81 -5104.82,1035.47 -5104.47,1036.02C-5104.29,1036.31 -5104,1036.68 -5103.6,1037.15C-5103.18,1037.61 -5102.65,1038.17 -5101.99,1038.82C-5100.8,1040.03 -5099.98,1041.09 -5099.55,1041.97C-5099.11,1042.83 -5098.9,1043.88 -5098.9,1045.13C-5098.9,1046.82 -5099.37,1048.21 -5100.32,1049.3C-5101.28,1050.37 -5102.5,1050.9 -5103.99,1050.9C-5105.24,1050.9 -5106.32,1050.56 -5107.2,1049.87L-5107.2,1046.95C-5106.16,1047.72 -5105.2,1048.1 -5104.34,1048.1C-5103.54,1048.1 -5102.91,1047.84 -5102.46,1047.31C-5102.01,1046.77 -5101.78,1046.04 -5101.78,1045.13C-5101.78,1044.34 -5101.96,1043.62 -5102.31,1042.99C-5102.48,1042.69 -5102.73,1042.35 -5103.06,1041.96C-5103.38,1041.56 -5103.78,1041.12 -5104.26,1040.64C-5105.01,1039.91 -5105.62,1039.26 -5106.11,1038.69C-5106.6,1038.12 -5106.97,1037.63 -5107.2,1037.2C-5107.66,1036.37 -5107.88,1035.33 -5107.88,1034.06C-5107.88,1032.35 -5107.44,1031 -5106.55,1030C-5105.66,1028.99 -5104.45,1028.49 -5102.94,1028.49C-5101.9,1028.49 -5100.9,1028.74 -5099.94,1029.24Z" style="fill:rgb(158,161,168);fill-rule:nonzero;"/>
                <path id="path1236" d="M-5097.82,1028.78L-5088.24,1028.78L-5088.24,1031.36L-5091.54,1031.36L-5091.54,1050.63L-5094.42,1050.63L-5094.42,1031.36L-5097.82,1031.36L-5097.82,1028.78Z" style="fill:rgb(158,161,168);fill-rule:nonzero;"/>
                <path id="path1238" d="M-5075.46,1040.25C-5075.46,1044.11 -5075.89,1046.85 -5076.75,1048.47C-5077.61,1050.09 -5079.05,1050.9 -5081.07,1050.9C-5083.19,1050.9 -5084.68,1050.03 -5085.55,1048.29C-5086.41,1046.58 -5086.84,1043.54 -5086.84,1039.18C-5086.84,1035.3 -5086.41,1032.55 -5085.57,1030.93C-5084.71,1029.31 -5083.25,1028.5 -5081.21,1028.5C-5079.38,1028.5 -5078.02,1029.13 -5077.13,1030.38C-5076.55,1031.22 -5076.12,1032.42 -5075.86,1033.96C-5075.59,1035.4 -5075.46,1037.49 -5075.46,1040.25ZM-5078.55,1040.56C-5078.55,1036.77 -5078.72,1034.27 -5079.06,1033.03C-5079.4,1031.78 -5080.09,1031.16 -5081.14,1031.16C-5082.18,1031.16 -5082.88,1031.73 -5083.23,1032.87C-5083.57,1034.02 -5083.74,1036.34 -5083.74,1039.81C-5083.74,1043.01 -5083.56,1045.22 -5083.2,1046.46C-5082.83,1047.63 -5082.15,1048.21 -5081.14,1048.21C-5080.15,1048.21 -5079.47,1047.67 -5079.1,1046.57C-5078.73,1045.49 -5078.55,1043.48 -5078.55,1040.56Z" style="fill:rgb(158,161,168);fill-rule:nonzero;"/>
                <path id="path1240" d="M-5072.53,1028.78L-5068.65,1028.78C-5066.78,1028.78 -5065.43,1029.26 -5064.58,1030.2C-5063.73,1031.15 -5063.3,1032.66 -5063.3,1034.73C-5063.3,1037.63 -5064.16,1039.51 -5065.87,1040.36C-5066.72,1040.75 -5067.97,1040.94 -5069.59,1040.94L-5069.59,1050.63L-5072.53,1050.63L-5072.53,1028.78ZM-5069.59,1038.42C-5068.37,1038.42 -5067.53,1038.17 -5067.07,1037.68C-5066.6,1037.18 -5066.36,1036.3 -5066.36,1035.02C-5066.36,1033.72 -5066.59,1032.77 -5067.04,1032.17C-5067.49,1031.56 -5068.2,1031.26 -5069.18,1031.26L-5069.59,1031.26L-5069.59,1038.42Z" style="fill:rgb(158,161,168);fill-rule:nonzero;"/>
            </g>
            <g id="text1216" transform="matrix(1,0,0,1,984.389,217.373)">
                <path id="path1243" d="M-5141.56,1057.77L-5137.69,1057.77C-5136.08,1057.77 -5134.89,1058.15 -5134.11,1058.91C-5133.11,1059.9 -5132.62,1061.42 -5132.62,1063.45C-5132.62,1065.02 -5132.88,1066.28 -5133.41,1067.23C-5133.93,1068.18 -5134.68,1068.76 -5135.65,1068.99L-5131.63,1079.62L-5134.61,1079.62L-5138.62,1068.92L-5138.62,1079.62L-5141.56,1079.62L-5141.56,1057.77ZM-5138.62,1067.45C-5137.48,1067.45 -5136.67,1067.18 -5136.2,1066.65C-5135.73,1066.13 -5135.49,1065.23 -5135.49,1063.98C-5135.49,1063.3 -5135.54,1062.72 -5135.65,1062.24C-5135.74,1061.76 -5135.9,1061.37 -5136.11,1061.06C-5136.32,1060.76 -5136.6,1060.54 -5136.94,1060.4C-5137.27,1060.26 -5137.66,1060.19 -5138.12,1060.19L-5138.62,1060.19L-5138.62,1067.45Z" style="fill:rgb(158,161,168);fill-rule:nonzero;"/>
                <path id="path1245" d="M-5129.34,1057.77L-5121.51,1057.77L-5121.51,1060.26L-5126.39,1060.26L-5126.39,1067.18L-5122.06,1067.18L-5122.06,1069.67L-5126.39,1069.67L-5126.39,1077.13L-5121.51,1077.13L-5121.51,1079.62L-5129.34,1079.62L-5129.34,1057.77Z" style="fill:rgb(158,161,168);fill-rule:nonzero;"/>
                <path id="path1247" d="M-5111.52,1058.22L-5111.52,1061.09C-5112.42,1060.45 -5113.22,1060.13 -5113.94,1060.13C-5114.71,1060.13 -5115.35,1060.4 -5115.84,1060.95C-5116.33,1061.47 -5116.57,1062.16 -5116.57,1063.03C-5116.57,1063.8 -5116.4,1064.45 -5116.05,1065C-5115.87,1065.29 -5115.58,1065.67 -5115.17,1066.13C-5114.76,1066.59 -5114.22,1067.15 -5113.57,1067.8C-5112.37,1069.02 -5111.56,1070.07 -5111.12,1070.96C-5110.69,1071.81 -5110.47,1072.87 -5110.47,1074.11C-5110.47,1075.8 -5110.95,1077.19 -5111.9,1078.29C-5112.85,1079.35 -5114.08,1079.89 -5115.57,1079.89C-5116.82,1079.89 -5117.89,1079.54 -5118.78,1078.85L-5118.78,1075.94C-5117.73,1076.7 -5116.78,1077.08 -5115.92,1077.08C-5115.12,1077.08 -5114.49,1076.82 -5114.04,1076.29C-5113.59,1075.75 -5113.36,1075.03 -5113.36,1074.11C-5113.36,1073.32 -5113.53,1072.61 -5113.88,1071.97C-5114.06,1071.67 -5114.31,1071.33 -5114.63,1070.94C-5114.95,1070.55 -5115.36,1070.11 -5115.84,1069.63C-5116.58,1068.89 -5117.2,1068.24 -5117.69,1067.67C-5118.18,1067.11 -5118.54,1066.61 -5118.78,1066.19C-5119.23,1065.36 -5119.46,1064.31 -5119.46,1063.05C-5119.46,1061.34 -5119.02,1059.98 -5118.13,1058.98C-5117.23,1057.97 -5116.03,1057.47 -5114.52,1057.47C-5113.47,1057.47 -5112.47,1057.72 -5111.52,1058.22Z" style="fill:rgb(158,161,168);fill-rule:nonzero;"/>
                <path id="path1249" d="M-5108,1057.77L-5100.17,1057.77L-5100.17,1060.26L-5105.05,1060.26L-5105.05,1067.18L-5100.72,1067.18L-5100.72,1069.67L-5105.05,1069.67L-5105.05,1077.13L-5100.17,1077.13L-5100.17,1079.62L-5108,1079.62L-5108,1057.77Z" style="fill:rgb(158,161,168);fill-rule:nonzero;"/>
                <path id="path1251" d="M-5099.21,1057.77L-5089.63,1057.77L-5089.63,1060.34L-5092.92,1060.34L-5092.92,1079.62L-5095.81,1079.62L-5095.81,1060.34L-5099.21,1060.34L-5099.21,1057.77Z" style="fill:rgb(158,161,168);fill-rule:nonzero;"/>
            </g>
        </g>
        <g id="path1289" transform="matrix(1,0,0,0.775758,148.657,928.861)">
            <path d="M-3994.55,97.204L-3990.73,97.204L-3982.92,133.622L-3987.78,133.622L-3989.14,126.522L-3996.36,126.522L-3997.75,133.622L-4002.47,133.622L-3994.55,97.204ZM-3989.85,122.725L-3990.94,116.922C-3991.66,112.976 -3992.25,108.761 -3992.71,104.28C-3992.93,106.466 -3993.21,108.683 -3993.56,110.931C-3993.9,113.164 -3994.31,115.539 -3994.78,118.055L-3995.68,122.725L-3989.85,122.725Z" style="fill:rgb(158,161,168);fill-rule:nonzero;"/>
        </g>
        <g id="path1294" transform="matrix(1,0,0,0.775758,142.297,928.861)">
            <path d="M-3909.16,97.204L-3902.51,97.204C-3897.31,97.204 -3894.7,100.435 -3894.7,106.898C-3894.7,109.367 -3895.04,111.199 -3895.72,112.394C-3896.39,113.589 -3897.59,114.493 -3899.3,115.106C-3897.34,115.892 -3895.99,116.899 -3895.27,118.125C-3894.53,119.336 -3894.16,121.16 -3894.16,123.597C-3894.16,130.28 -3897.02,133.622 -3902.75,133.622L-3909.16,133.622L-3909.16,97.204ZM-3904.54,113.243C-3902.64,113.243 -3901.32,112.803 -3900.58,111.922C-3899.84,110.994 -3899.47,109.367 -3899.47,107.04C-3899.47,103.109 -3900.88,101.143 -3903.72,101.143L-3904.09,101.143L-3904.3,101.143C-3904.43,101.143 -3904.51,101.151 -3904.54,101.166L-3904.54,113.243ZM-3904.54,129.423C-3902.53,129.423 -3901.14,128.991 -3900.37,128.126C-3899.6,127.261 -3899.21,125.697 -3899.21,123.432C-3899.21,121.105 -3899.61,119.478 -3900.41,118.55C-3901.2,117.606 -3902.58,117.135 -3904.54,117.135L-3904.54,129.423Z" style="fill:rgb(158,161,168);fill-rule:nonzero;"/>
        </g>
        <g id="path1298" transform="matrix(1,0,0,0.775758,135.784,928.514)">
            <path d="M-3804.3,97.794L-3804.3,102.204C-3805.56,101.591 -3806.61,101.285 -3807.46,101.285C-3808.62,101.285 -3809.62,101.575 -3810.45,102.157C-3811.29,102.723 -3811.98,103.604 -3812.53,104.799C-3813.07,105.994 -3813.47,107.511 -3813.73,109.351C-3813.99,111.175 -3814.11,113.337 -3814.11,115.837C-3814.11,124.832 -3811.81,129.329 -3807.2,129.329C-3806.4,129.329 -3805.43,129.077 -3804.3,128.574L-3804.3,133.079C-3805.48,133.74 -3806.8,134.07 -3808.26,134.07C-3815.64,134.07 -3819.32,128.047 -3819.32,116.003C-3819.32,109.493 -3818.43,104.65 -3816.63,101.473C-3814.83,98.297 -3812.07,96.709 -3808.36,96.709C-3806.99,96.709 -3805.64,97.07 -3804.3,97.794L-3804.3,97.794Z" style="fill:rgb(158,161,168);fill-rule:nonzero;"/>
        </g>
        <g id="path1302" transform="matrix(1,0,0,0.775758,127.806,928.861)">
            <path d="M-3728.02,97.204L-3721.98,97.204C-3720.14,97.204 -3718.59,97.409 -3717.34,97.817C-3716.17,98.21 -3715.13,98.91 -3714.22,99.917C-3712.85,101.426 -3711.88,103.392 -3711.3,105.813C-3710.72,108.156 -3710.42,111.513 -3710.42,115.885C-3710.42,119.894 -3710.75,123.165 -3711.39,125.697C-3712.02,128.118 -3713.06,129.966 -3714.51,131.239C-3716.28,132.827 -3719.47,133.622 -3724.06,133.622L-3728.02,133.622L-3728.02,97.204ZM-3723.11,129.329C-3720.13,129.329 -3718.13,128.425 -3717.12,126.616C-3716.09,124.808 -3715.57,121.294 -3715.57,116.073C-3715.57,110.46 -3716.06,106.599 -3717.05,104.492C-3718.04,102.385 -3719.86,101.332 -3722.5,101.332L-3723.11,101.332L-3723.11,129.329Z" style="fill:rgb(158,161,168);fill-rule:nonzero;"/>
        </g>
        <g id="path1307" transform="matrix(1,0,0,0.775758,120.56,928.861)">
            <path d="M-3637.45,97.204L-3624.41,97.204L-3624.41,101.355L-3632.54,101.355L-3632.54,112.889L-3625.32,112.889L-3625.32,117.04L-3632.54,117.04L-3632.54,129.47L-3624.41,129.47L-3624.41,133.622L-3637.45,133.622L-3637.45,97.204Z" style="fill:rgb(158,161,168);fill-rule:nonzero;"/>
        </g>
        <g id="text1348" transform="matrix(1.00826,0,0,1.11082,553.909,3.6229)">
            <path id="path1400" d="M-3969.04,900.491L-3964.52,900.491C-3962.66,900.491 -3961.27,900.936 -3960.35,901.826C-3959.2,902.98 -3958.62,904.744 -3958.62,907.117C-3958.62,908.941 -3958.93,910.408 -3959.55,911.518C-3960.15,912.617 -3961.02,913.298 -3962.15,913.562L-3957.47,925.94L-3960.95,925.94L-3965.61,913.479L-3965.61,925.94L-3969.04,925.94L-3969.04,900.491ZM-3965.61,911.765C-3964.28,911.765 -3963.34,911.458 -3962.79,910.842C-3962.24,910.227 -3961.97,909.189 -3961.97,907.727C-3961.97,906.936 -3962.03,906.26 -3962.15,905.7C-3962.26,905.139 -3962.44,904.683 -3962.7,904.332C-3962.94,903.98 -3963.26,903.722 -3963.65,903.557C-3964.04,903.392 -3964.5,903.31 -3965.04,903.31L-3965.61,903.31L-3965.61,911.765Z" style="fill:rgb(158,161,168);fill-rule:nonzero;"/>
            <path id="path1402" d="M-3942.32,913.842C-3942.32,918.336 -3942.82,921.528 -3943.82,923.418C-3944.82,925.308 -3946.5,926.253 -3948.85,926.253C-3951.32,926.253 -3953.06,925.237 -3954.08,923.204C-3955.07,921.215 -3955.57,917.682 -3955.57,912.606C-3955.57,908.079 -3955.08,904.876 -3954.09,902.997C-3953.09,901.107 -3951.4,900.162 -3949.01,900.162C-3946.88,900.162 -3945.3,900.892 -3944.27,902.354C-3943.59,903.332 -3943.09,904.722 -3942.78,906.524C-3942.48,908.194 -3942.32,910.634 -3942.32,913.842ZM-3945.92,914.205C-3945.92,909.798 -3946.11,906.875 -3946.51,905.436C-3946.91,903.985 -3947.71,903.26 -3948.93,903.26C-3950.15,903.26 -3950.97,903.925 -3951.37,905.255C-3951.77,906.595 -3951.97,909.287 -3951.97,913.331C-3951.97,917.056 -3951.76,919.638 -3951.34,921.078C-3950.91,922.44 -3950.11,923.122 -3948.93,923.122C-3947.78,923.122 -3946.99,922.484 -3946.56,921.21C-3946.13,919.946 -3945.92,917.611 -3945.92,914.205Z" style="fill:rgb(158,161,168);fill-rule:nonzero;"/>
            <path id="path1404" d="M-3940.67,900.491L-3929.52,900.491L-3929.52,903.491L-3933.36,903.491L-3933.36,925.94L-3936.72,925.94L-3936.72,903.491L-3940.67,903.491L-3940.67,900.491Z" style="fill:rgb(158,161,168);fill-rule:nonzero;"/>
        </g>
        <g id="text1352" transform="matrix(1,0,0,1,11.7559,104.705)">
            <path id="path1358" d="M-4183.5,1166.41L-4179.65,1166.41L-4179.65,1187C-4179.65,1189.1 -4179.46,1190.5 -4179.08,1191.19C-4178.69,1191.88 -4177.93,1192.23 -4176.78,1192.23C-4175.64,1192.23 -4174.88,1191.93 -4174.52,1191.32C-4174.14,1190.71 -4173.95,1189.45 -4173.95,1187.57L-4173.95,1166.41L-4170.1,1166.41L-4170.1,1187.57C-4170.1,1190.74 -4170.58,1192.88 -4171.55,1194C-4172.71,1195.27 -4174.48,1195.91 -4176.86,1195.91C-4179.47,1195.91 -4181.32,1195.09 -4182.38,1193.45C-4183.13,1192.34 -4183.5,1190.18 -4183.5,1187L-4183.5,1166.41Z" style="fill:rgb(158,161,168);fill-rule:nonzero;"/>
            <path id="path1360" d="M-4165.61,1166.41L-4160.44,1166.41C-4157.95,1166.41 -4156.14,1167.04 -4155.01,1168.3C-4153.87,1169.57 -4153.31,1171.59 -4153.31,1174.34C-4153.31,1178.21 -4154.44,1180.72 -4156.72,1181.85C-4157.87,1182.37 -4159.52,1182.62 -4161.69,1182.62L-4161.69,1195.55L-4165.61,1195.55L-4165.61,1166.41ZM-4161.69,1179.27C-4160.06,1179.27 -4158.94,1178.94 -4158.33,1178.28C-4157.7,1177.62 -4157.38,1176.43 -4157.38,1174.74C-4157.38,1173 -4157.68,1171.73 -4158.29,1170.92C-4158.89,1170.12 -4159.84,1169.72 -4161.14,1169.72L-4161.69,1169.72L-4161.69,1179.27Z" style="fill:rgb(158,161,168);fill-rule:nonzero;"/>
        </g>
        <g id="text1356" transform="matrix(1,0,0,1,200.768,32.6059)">
            <path id="path1363" d="M-4183.5,1238.87L-4178.33,1238.87C-4176.19,1238.87 -4174.6,1239.38 -4173.55,1240.4C-4172.23,1241.72 -4171.57,1243.74 -4171.57,1246.46C-4171.57,1248.55 -4171.92,1250.23 -4172.63,1251.5C-4173.32,1252.75 -4174.31,1253.53 -4175.61,1253.84L-4170.25,1268.01L-4174.23,1268.01L-4179.57,1253.74L-4179.57,1268.01L-4183.5,1268.01L-4183.5,1238.87ZM-4179.57,1251.78C-4178.05,1251.78 -4176.98,1251.43 -4176.35,1250.72C-4175.72,1250.02 -4175.4,1248.83 -4175.4,1247.16C-4175.4,1246.25 -4175.47,1245.48 -4175.61,1244.84C-4175.74,1244.19 -4175.94,1243.67 -4176.23,1243.27C-4176.51,1242.87 -4176.87,1242.57 -4177.33,1242.38C-4177.77,1242.19 -4178.3,1242.1 -4178.91,1242.1L-4179.57,1242.1L-4179.57,1251.78Z" style="fill:rgb(158,161,168);fill-rule:nonzero;"/>
            <path id="path1365" d="M-4167.19,1238.87L-4163.53,1238.87L-4159.63,1250.5C-4158.5,1253.78 -4157.5,1257.28 -4156.63,1261.01C-4156.94,1258.75 -4157.18,1256.72 -4157.33,1254.89C-4157.48,1253.07 -4157.55,1251.35 -4157.55,1249.74L-4157.55,1238.87L-4153.61,1238.87L-4153.61,1268.01L-4157.29,1268.01L-4161.69,1254.89C-4162.09,1253.67 -4162.47,1252.42 -4162.84,1251.14C-4163.19,1249.85 -4163.52,1248.51 -4163.82,1247.1C-4163.84,1246.92 -4163.89,1246.71 -4163.95,1246.46C-4164,1246.21 -4164.06,1245.92 -4164.14,1245.59C-4164.1,1245.92 -4164.07,1246.2 -4164.04,1246.44C-4164.02,1246.66 -4164,1246.86 -4163.99,1247.02L-4163.78,1249.99L-4163.57,1253.59L-4163.57,1255.31L-4163.36,1268.01L-4167.23,1268.01L-4167.19,1238.87Z" style="fill:rgb(158,161,168);fill-rule:nonzero;"/>
            <path id="path1367" d="M-4149.08,1238.87L-4144.25,1238.87C-4142.78,1238.87 -4141.54,1239.04 -4140.53,1239.36C-4139.6,1239.68 -4138.77,1240.24 -4138.04,1241.04C-4136.95,1242.25 -4136.17,1243.82 -4135.7,1245.76C-4135.24,1247.63 -4135,1250.32 -4135,1253.82C-4135,1257.02 -4135.26,1259.64 -4135.78,1261.67C-4136.28,1263.6 -4137.11,1265.08 -4138.27,1266.1C-4139.69,1267.37 -4142.24,1268.01 -4145.91,1268.01L-4149.08,1268.01L-4149.08,1238.87ZM-4145.15,1264.57C-4142.77,1264.57 -4141.17,1263.85 -4140.36,1262.4C-4139.53,1260.96 -4139.12,1258.14 -4139.12,1253.97C-4139.12,1249.48 -4139.51,1246.39 -4140.31,1244.7C-4141.1,1243.02 -4142.55,1242.17 -4144.66,1242.17L-4145.15,1242.17L-4145.15,1264.57Z" style="fill:rgb(158,161,168);fill-rule:nonzero;"/>
        </g>
        <g id="text1202" transform="matrix(1,0,0,1,83.3265,0)">
            <path id="path1213" d="M-4029.66,1126.68L-4029.66,1130.2C-4030.66,1129.71 -4031.51,1129.47 -4032.18,1129.47C-4033.12,1129.47 -4033.91,1129.7 -4034.58,1130.17C-4035.25,1130.62 -4035.8,1131.32 -4036.24,1132.28C-4036.67,1133.24 -4036.99,1134.45 -4037.2,1135.92C-4037.41,1137.38 -4037.51,1139.11 -4037.51,1141.11C-4037.51,1148.31 -4035.66,1151.9 -4031.98,1151.9C-4031.34,1151.9 -4030.56,1151.7 -4029.66,1151.3L-4029.66,1154.9C-4030.6,1155.43 -4031.66,1155.7 -4032.83,1155.7C-4038.73,1155.7 -4041.68,1150.88 -4041.68,1141.24C-4041.68,1136.04 -4040.96,1132.16 -4039.53,1129.62C-4038.08,1127.08 -4035.87,1125.81 -4032.9,1125.81C-4031.81,1125.81 -4030.73,1126.1 -4029.66,1126.68L-4029.66,1126.68Z" style="fill:rgb(158,161,168);fill-rule:nonzero;"/>
            <path id="path1215" d="M-4026.37,1126.2L-4022.45,1126.2L-4022.45,1137.6L-4016.69,1137.6L-4016.69,1126.2L-4012.77,1126.2L-4012.77,1155.34L-4016.69,1155.34L-4016.69,1140.92L-4022.45,1140.92L-4022.45,1155.34L-4026.37,1155.34L-4026.37,1126.2Z" style="fill:rgb(158,161,168);fill-rule:nonzero;"/>
            <path id="path1218" d="M-4004.11,1126.2L-4001.05,1126.2L-3994.81,1155.34L-3998.69,1155.34L-3999.79,1149.66L-4005.56,1149.66L-4006.67,1155.34L-4010.45,1155.34L-4004.11,1126.2ZM-4000.35,1146.62L-4001.22,1141.98C-4001.8,1138.82 -4002.27,1135.45 -4002.64,1131.87C-4002.81,1133.61 -4003.04,1135.39 -4003.32,1137.19C-4003.59,1138.97 -4003.92,1140.87 -4004.3,1142.88L-4005.01,1146.62L-4000.35,1146.62Z" style="fill:rgb(158,161,168);fill-rule:nonzero;"/>
            <rect id="path1221" x="-3992.49" y="1126.2" width="3.925" height="29.134" style="fill:rgb(158,161,168);fill-rule:nonzero;"/>
            <path id="path1223" d="M-3984.03,1126.2L-3980.37,1126.2L-3976.47,1137.83C-3975.33,1141.11 -3974.33,1144.62 -3973.46,1148.34C-3973.78,1146.09 -3974.01,1144.05 -3974.16,1142.23C-3974.31,1140.4 -3974.39,1138.68 -3974.39,1137.07L-3974.39,1126.2L-3970.45,1126.2L-3970.45,1155.34L-3974.13,1155.34L-3978.52,1142.23C-3978.92,1141 -3979.31,1139.75 -3979.67,1138.47C-3980.03,1137.19 -3980.35,1135.84 -3980.65,1134.43C-3980.68,1134.26 -3980.72,1134.04 -3980.79,1133.79C-3980.84,1133.54 -3980.9,1133.25 -3980.97,1132.92C-3980.94,1133.25 -3980.91,1133.53 -3980.88,1133.77C-3980.86,1134 -3980.84,1134.19 -3980.82,1134.36L-3980.62,1137.32L-3980.41,1140.92L-3980.41,1141.66C-3980.38,1141.95 -3980.37,1142.28 -3980.37,1142.64L-3980.16,1155.34L-3984.03,1155.34L-3984.03,1126.2Z" style="fill:rgb(158,161,168);fill-rule:nonzero;"/>
        </g>
        <g id="text1207" transform="matrix(1,0,0,1,2.28399,0)">
            <path id="path1241" d="M-4172.91,1054.35L-4172.91,1058.18C-4174.11,1057.33 -4175.18,1056.9 -4176.14,1056.9C-4177.17,1056.9 -4178.01,1057.26 -4178.67,1057.99C-4179.32,1058.68 -4179.65,1059.61 -4179.65,1060.77C-4179.65,1061.79 -4179.41,1062.66 -4178.95,1063.39C-4178.71,1063.78 -4178.32,1064.28 -4177.78,1064.9C-4177.23,1065.52 -4176.52,1066.26 -4175.65,1067.13C-4174.05,1068.75 -4172.96,1070.15 -4172.38,1071.33C-4171.81,1072.48 -4171.52,1073.88 -4171.52,1075.54C-4171.52,1077.79 -4172.15,1079.65 -4173.42,1081.11C-4174.69,1082.53 -4176.32,1083.24 -4178.31,1083.24C-4179.98,1083.24 -4181.41,1082.78 -4182.59,1081.86L-4182.59,1077.97C-4181.19,1078.99 -4179.93,1079.5 -4178.78,1079.5C-4177.71,1079.5 -4176.87,1079.15 -4176.27,1078.45C-4175.67,1077.73 -4175.36,1076.76 -4175.36,1075.54C-4175.36,1074.48 -4175.6,1073.54 -4176.06,1072.69C-4176.3,1072.29 -4176.64,1071.83 -4177.06,1071.31C-4177.49,1070.79 -4178.02,1070.2 -4178.67,1069.56C-4179.66,1068.58 -4180.48,1067.71 -4181.14,1066.96C-4181.79,1066.2 -4182.28,1065.54 -4182.59,1064.97C-4183.19,1063.87 -4183.5,1062.47 -4183.5,1060.79C-4183.5,1058.51 -4182.91,1056.7 -4181.72,1055.37C-4180.53,1054.02 -4178.93,1053.35 -4176.91,1053.35C-4175.52,1053.35 -4174.18,1053.68 -4172.91,1054.35Z" style="fill:rgb(158,161,168);fill-rule:nonzero;"/>
            <path id="path1253" d="M-4168.21,1053.75L-4157.78,1053.75L-4157.78,1057.07L-4164.29,1057.07L-4164.29,1066.3L-4158.52,1066.3L-4158.52,1069.62L-4164.29,1069.62L-4164.29,1079.56L-4157.78,1079.56L-4157.78,1082.88L-4168.21,1082.88L-4168.21,1053.75Z" style="fill:rgb(158,161,168);fill-rule:nonzero;"/>
            <path id="path1255" d="M-4154.18,1053.75L-4150.25,1053.75L-4150.25,1079.56L-4143.84,1079.56L-4143.84,1082.88L-4154.18,1082.88L-4154.18,1053.75Z" style="fill:rgb(158,161,168);fill-rule:nonzero;"/>
        </g>
        <g id="text1211" transform="matrix(1,0,0,1,14.2254,0)">
            <path id="path1227" d="M-4171.19,1126.68L-4171.19,1130.2C-4172.2,1129.71 -4173.04,1129.47 -4173.72,1129.47C-4174.65,1129.47 -4175.45,1129.7 -4176.12,1130.17C-4176.79,1130.62 -4177.34,1131.32 -4177.78,1132.28C-4178.21,1133.24 -4178.53,1134.45 -4178.74,1135.92C-4178.94,1137.38 -4179.05,1139.11 -4179.05,1141.11C-4179.05,1148.31 -4177.2,1151.9 -4173.52,1151.9C-4172.87,1151.9 -4172.1,1151.7 -4171.19,1151.3L-4171.19,1154.9C-4172.14,1155.43 -4173.19,1155.7 -4174.36,1155.7C-4180.27,1155.7 -4183.22,1150.88 -4183.22,1141.24C-4183.22,1136.04 -4182.5,1132.16 -4181.06,1129.62C-4179.62,1127.08 -4177.41,1125.81 -4174.44,1125.81C-4173.35,1125.81 -4172.26,1126.1 -4171.19,1126.68L-4171.19,1126.68Z" style="fill:rgb(158,161,168);fill-rule:nonzero;"/>
            <path id="path1237" d="M-4170.23,1126.2L-4166.36,1126.2L-4164.61,1136.96L-4164.31,1138.9L-4163.68,1143.13C-4163.58,1143.85 -4163.49,1144.5 -4163.42,1145.09C-4163.33,1145.68 -4163.26,1146.22 -4163.19,1146.7L-4163,1148.13C-4162.97,1147.84 -4162.94,1147.58 -4162.91,1147.36C-4162.88,1147.13 -4162.86,1146.94 -4162.83,1146.79L-4162.32,1143.41L-4161.66,1138.98C-4161.6,1138.58 -4161.54,1138.2 -4161.49,1137.87C-4161.43,1137.53 -4161.37,1137.22 -4161.32,1136.96L-4159.44,1126.2L-4155.78,1126.2L-4161.49,1155.34L-4164.61,1155.34L-4170.23,1126.2Z" style="fill:rgb(158,161,168);fill-rule:nonzero;"/>
        </g>
        <g id="text1260">
            <path id="path1262" d="M-3437.06,1126.68L-3437.06,1130.2C-3438.07,1129.71 -3438.91,1129.47 -3439.59,1129.47C-3440.52,1129.47 -3441.32,1129.7 -3441.99,1130.17C-3442.65,1130.62 -3443.2,1131.32 -3443.64,1132.28C-3444.07,1133.24 -3444.39,1134.45 -3444.61,1135.92C-3444.81,1137.38 -3444.91,1139.11 -3444.91,1141.11C-3444.91,1148.31 -3443.07,1151.9 -3439.38,1151.9C-3438.74,1151.9 -3437.97,1151.7 -3437.06,1151.3L-3437.06,1154.9C-3438,1155.43 -3439.06,1155.7 -3440.23,1155.7C-3446.13,1155.7 -3449.08,1150.88 -3449.08,1141.24C-3449.08,1136.04 -3448.36,1132.16 -3446.93,1129.62C-3445.48,1127.08 -3443.27,1125.81 -3440.31,1125.81C-3439.21,1125.81 -3438.13,1126.1 -3437.06,1126.68L-3437.06,1126.68Z" style="fill:rgb(158,161,168);fill-rule:nonzero;"/>
            <path id="path1264" d="M-3433.78,1126.2L-3429.85,1126.2L-3429.85,1137.6L-3424.1,1137.6L-3424.1,1126.2L-3420.17,1126.2L-3420.17,1155.34L-3424.1,1155.34L-3424.1,1140.92L-3429.85,1140.92L-3429.85,1155.34L-3433.78,1155.34L-3433.78,1126.2Z" style="fill:rgb(158,161,168);fill-rule:nonzero;"/>
            <path id="path1266" d="M-3411.51,1126.2L-3408.45,1126.2L-3402.21,1155.34L-3406.1,1155.34L-3407.19,1149.66L-3412.96,1149.66L-3414.08,1155.34L-3417.85,1155.34L-3411.51,1126.2ZM-3407.76,1146.62L-3408.62,1141.98C-3409.2,1138.82 -3409.67,1135.45 -3410.04,1131.87C-3410.22,1133.61 -3410.44,1135.39 -3410.72,1137.19C-3410.99,1138.97 -3411.32,1140.87 -3411.7,1142.88L-3412.42,1146.62L-3407.76,1146.62Z" style="fill:rgb(158,161,168);fill-rule:nonzero;"/>
            <rect id="path1268" x="-3399.89" y="1126.2" width="3.925" height="29.134" style="fill:rgb(158,161,168);fill-rule:nonzero;"/>
            <path id="path1270" d="M-3391.43,1126.2L-3387.77,1126.2L-3383.87,1137.83C-3382.74,1141.11 -3381.74,1144.62 -3380.87,1148.34C-3381.18,1146.09 -3381.41,1144.05 -3381.57,1142.23C-3381.72,1140.4 -3381.79,1138.68 -3381.79,1137.07L-3381.79,1126.2L-3377.85,1126.2L-3377.85,1155.34L-3381.53,1155.34L-3385.92,1142.23C-3386.33,1141 -3386.71,1139.75 -3387.08,1138.47C-3387.43,1137.19 -3387.76,1135.84 -3388.06,1134.43C-3388.08,1134.26 -3388.13,1134.04 -3388.19,1133.79C-3388.24,1133.54 -3388.3,1133.25 -3388.38,1132.92C-3388.34,1133.25 -3388.31,1133.53 -3388.28,1133.77C-3388.26,1134 -3388.24,1134.19 -3388.23,1134.36L-3388.02,1137.32L-3387.81,1140.92C-3387.8,1141.12 -3387.79,1141.37 -3387.79,1141.66C-3387.78,1141.95 -3387.77,1142.28 -3387.77,1142.64L-3387.57,1155.34L-3391.43,1155.34L-3391.43,1126.2Z" style="fill:rgb(158,161,168);fill-rule:nonzero;"/>
            <path id="path1272" d="M-3367.64,1126.2L-3354.87,1126.2L-3354.87,1129.64L-3359.26,1129.64L-3359.26,1155.34L-3363.11,1155.34L-3363.11,1129.64L-3367.64,1129.64L-3367.64,1126.2Z" style="fill:rgb(158,161,168);fill-rule:nonzero;"/>
            <path id="path1274" d="M-3352.72,1126.2L-3347.55,1126.2C-3345.41,1126.2 -3343.82,1126.71 -3342.77,1127.73C-3341.45,1129.05 -3340.79,1131.07 -3340.79,1133.79C-3340.79,1135.88 -3341.14,1137.56 -3341.85,1138.83C-3342.54,1140.09 -3343.53,1140.87 -3344.83,1141.17L-3339.47,1155.34L-3343.45,1155.34L-3348.79,1141.07L-3348.79,1155.34L-3352.72,1155.34L-3352.72,1126.2ZM-3348.79,1139.11C-3347.27,1139.11 -3346.19,1138.76 -3345.56,1138.05C-3344.93,1137.35 -3344.62,1136.16 -3344.62,1134.49C-3344.62,1133.58 -3344.69,1132.81 -3344.83,1132.17C-3344.95,1131.53 -3345.16,1131 -3345.45,1130.6C-3345.73,1130.2 -3346.09,1129.9 -3346.54,1129.71C-3346.99,1129.53 -3347.51,1129.43 -3348.13,1129.43L-3348.79,1129.43L-3348.79,1139.11Z" style="fill:rgb(158,161,168);fill-rule:nonzero;"/>
            <rect id="path1276" x="-3336.41" y="1126.2" width="3.925" height="29.134" style="fill:rgb(158,161,168);fill-rule:nonzero;"/>
            <path id="path1278" d="M-3320.98,1140.02L-3313.84,1140.02L-3313.84,1141.15C-3313.84,1146.82 -3314.34,1150.65 -3315.34,1152.64C-3316.32,1154.68 -3318.15,1155.7 -3320.85,1155.7C-3323.63,1155.7 -3325.61,1154.57 -3326.79,1152.3C-3327.96,1150.04 -3328.54,1146.23 -3328.54,1140.88C-3328.54,1134.77 -3327.9,1130.7 -3326.62,1128.68C-3325.41,1126.78 -3323.56,1125.83 -3321.05,1125.83C-3319.14,1125.83 -3317.65,1126.29 -3316.58,1127.2C-3315.5,1128.14 -3314.66,1129.66 -3314.05,1131.79L-3317.71,1133.32C-3317.88,1132.55 -3318.06,1131.91 -3318.26,1131.39C-3318.46,1130.87 -3318.68,1130.46 -3318.92,1130.17C-3319.4,1129.58 -3320.12,1129.28 -3321.07,1129.28C-3322.38,1129.28 -3323.27,1130.09 -3323.75,1131.7C-3324.23,1133.38 -3324.47,1136.41 -3324.47,1140.77C-3324.47,1145.19 -3324.22,1148.17 -3323.73,1149.73C-3323.24,1151.29 -3322.32,1152.07 -3320.96,1152.07C-3319.71,1152.07 -3318.84,1151.52 -3318.34,1150.41C-3317.82,1149.23 -3317.56,1147.33 -3317.56,1144.71L-3317.56,1143.92L-3317.56,1143.34L-3320.98,1143.34L-3320.98,1140.02Z" style="fill:rgb(158,161,168);fill-rule:nonzero;"/>
        </g>
        <g id="g1256" transform="matrix(1,0,0,1,-745.812,0)">
            <rect id="path1239" x="-3355.24" y="83.198" width="3.925" height="29.134" style="fill:rgb(158,161,168);fill-rule:nonzero;"/>
            <path id="path1254" d="M-3346.78,83.198L-3343.12,83.198L-3339.22,94.822C-3338.08,98.105 -3337.08,101.608 -3336.22,105.332C-3336.53,103.08 -3336.76,101.042 -3336.91,99.218C-3337.07,97.394 -3337.14,95.677 -3337.14,94.067L-3337.14,83.198L-3333.2,83.198L-3333.2,112.332L-3336.88,112.332L-3341.27,99.218C-3341.68,97.998 -3342.06,96.747 -3342.42,95.463C-3342.78,94.18 -3343.1,92.834 -3343.41,91.425C-3343.43,91.249 -3343.47,91.035 -3343.54,90.784C-3343.59,90.532 -3343.65,90.243 -3343.73,89.916C-3343.69,90.243 -3343.66,90.526 -3343.63,90.765C-3343.61,90.991 -3343.59,91.186 -3343.58,91.35L-3343.37,94.312L-3343.16,97.916C-3343.15,98.118 -3343.14,98.363 -3343.14,98.652C-3343.13,98.942 -3343.12,99.269 -3343.12,99.634L-3342.91,112.332L-3346.78,112.332L-3346.78,83.198Z" style="fill:rgb(158,161,168);fill-rule:nonzero;"/>
        </g>
        <g id="g1267" transform="matrix(1,0,0,1,-781.183,0)">
            <path id="path1258" d="M-3335.74,42.965L-3322.97,42.965L-3322.97,46.399L-3327.37,46.399L-3327.37,72.099L-3331.22,72.099L-3331.22,46.399L-3335.74,46.399L-3335.74,42.965Z" style="fill:rgb(158,161,168);fill-rule:nonzero;"/>
            <path id="path1260" d="M-3320.82,42.965L-3315.65,42.965C-3313.51,42.965 -3311.92,43.474 -3310.88,44.493C-3309.55,45.814 -3308.89,47.833 -3308.89,50.55C-3308.89,52.638 -3309.25,54.318 -3309.95,55.588C-3310.64,56.846 -3311.64,57.626 -3312.93,57.928L-3307.57,72.099L-3311.55,72.099L-3316.89,57.834L-3316.89,72.099L-3320.82,72.099L-3320.82,42.965ZM-3316.89,55.871C-3315.37,55.871 -3314.3,55.519 -3313.67,54.815C-3313.04,54.11 -3312.72,52.921 -3312.72,51.248C-3312.72,50.343 -3312.79,49.569 -3312.93,48.927C-3313.06,48.286 -3313.26,47.764 -3313.55,47.361C-3313.83,46.959 -3314.2,46.663 -3314.65,46.474C-3315.09,46.286 -3315.62,46.191 -3316.23,46.191L-3316.89,46.191L-3316.89,55.871Z" style="fill:rgb(158,161,168);fill-rule:nonzero;"/>
            <rect id="path1263" x="-3304.52" y="42.965" width="3.925" height="29.134" style="fill:rgb(158,161,168);fill-rule:nonzero;"/>
            <path id="path1265" d="M-3289.08,56.777L-3281.95,56.777L-3281.95,57.909C-3281.95,63.582 -3282.45,67.413 -3283.44,69.4C-3284.42,71.438 -3286.26,72.457 -3288.95,72.457C-3291.73,72.457 -3293.71,71.325 -3294.89,69.061C-3296.06,66.796 -3296.65,62.991 -3296.65,57.645C-3296.65,51.531 -3296.01,47.462 -3294.72,45.437C-3293.51,43.537 -3291.66,42.587 -3289.16,42.587C-3287.24,42.587 -3285.75,43.047 -3284.68,43.965C-3283.6,44.896 -3282.76,46.424 -3282.16,48.55L-3285.82,50.078C-3285.98,49.311 -3286.16,48.67 -3286.36,48.154C-3286.57,47.625 -3286.78,47.217 -3287.02,46.927C-3287.5,46.336 -3288.22,46.04 -3289.18,46.04C-3290.48,46.04 -3291.38,46.846 -3291.86,48.456C-3292.33,50.141 -3292.57,53.167 -3292.57,57.532C-3292.57,61.947 -3292.33,64.935 -3291.84,66.495C-3291.35,68.054 -3290.42,68.834 -3289.06,68.834C-3287.82,68.834 -3286.94,68.281 -3286.44,67.174C-3285.92,65.991 -3285.67,64.092 -3285.67,61.475L-3285.67,60.683L-3285.67,60.098L-3289.08,60.098L-3289.08,56.777Z" style="fill:rgb(158,161,168);fill-rule:nonzero;"/>
        </g>
        <g id="text1236" transform="matrix(1,0,0,1,108.686,0)">
            <path id="path1256" d="M-3802.39,58.079L-3802.39,44.352C-3800.07,47.522 -3797.56,49.107 -3794.86,49.107C-3793.84,49.107 -3793.01,48.843 -3792.37,48.314C-3791.73,47.767 -3791.41,47.088 -3791.41,46.276C-3791.41,45.106 -3792.1,43.965 -3793.5,42.852L-3795.42,41.351C-3796.71,40.389 -3797.8,39.436 -3798.71,38.493C-3799.61,37.53 -3800.35,36.549 -3800.91,35.549C-3801.48,34.53 -3801.9,33.483 -3802.16,32.407C-3802.43,31.332 -3802.56,30.2 -3802.56,29.011C-3802.56,26.973 -3802.09,24.841 -3801.14,22.614C-3800.67,21.577 -3800.12,20.633 -3799.5,19.784C-3798.88,18.916 -3798.16,18.152 -3797.35,17.491C-3795.12,15.605 -3792.43,14.661 -3789.28,14.661C-3786.47,14.661 -3783.64,15.406 -3780.79,16.897L-3780.79,30.256C-3781.75,28.766 -3782.85,27.596 -3784.08,26.747C-3785.3,25.879 -3786.51,25.445 -3787.7,25.445C-3788.6,25.445 -3789.35,25.709 -3789.93,26.237C-3790.54,26.747 -3790.84,27.36 -3790.84,28.077C-3790.84,29.247 -3790.04,30.407 -3788.43,31.558L-3786.57,32.945C-3784.08,34.738 -3782.29,36.578 -3781.22,38.464C-3780.12,40.351 -3779.57,42.559 -3779.57,45.088C-3779.57,49.39 -3780.89,52.937 -3783.51,55.73C-3786.13,58.522 -3789.45,59.919 -3793.47,59.919C-3796.24,59.919 -3799.22,59.305 -3802.39,58.079Z" style="fill:rgb(158,161,168);fill-rule:nonzero;"/>
            <path id="path1259" d="M-3742.36,60.004L-3751.84,65.211L-3755.88,59.353C-3757.24,59.73 -3758.41,59.919 -3759.39,59.919C-3764.07,59.919 -3767.97,58.013 -3771.08,54.201C-3774.4,50.144 -3776.07,44.54 -3776.07,37.389C-3776.07,30.464 -3774.56,24.954 -3771.54,20.86C-3768.52,16.727 -3764.48,14.661 -3759.42,14.661C-3754.5,14.661 -3750.5,16.708 -3747.42,20.803C-3744.35,24.898 -3742.81,30.228 -3742.81,36.795C-3742.81,44.286 -3744.46,50.022 -3747.76,54.003L-3742.36,60.004ZM-3755.03,37.53C-3755.03,35.662 -3755.14,33.992 -3755.35,32.521C-3755.55,31.049 -3755.85,29.813 -3756.22,28.813C-3756.6,27.794 -3757.07,27.02 -3757.64,26.492C-3758.19,25.945 -3758.81,25.671 -3759.51,25.671C-3760.83,25.671 -3761.89,26.728 -3762.68,28.841C-3763.45,31.106 -3763.84,33.945 -3763.84,37.361C-3763.84,39.172 -3763.74,40.795 -3763.56,42.229C-3763.35,43.663 -3763.06,44.871 -3762.7,45.852C-3762.33,46.833 -3761.87,47.588 -3761.32,48.116C-3760.77,48.626 -3760.16,48.88 -3759.48,48.88C-3758.78,48.88 -3758.16,48.626 -3757.61,48.116C-3757.06,47.607 -3756.6,46.861 -3756.22,45.88C-3755.83,44.899 -3755.53,43.71 -3755.35,42.314C-3755.14,40.917 -3755.03,39.323 -3755.03,37.53L-3755.03,37.53Z" style="fill:rgb(158,161,168);fill-rule:nonzero;"/>
            <path id="path1261" d="M-3719.43,15.454L-3707.63,15.454L-3707.63,46.361C-3707.63,48.946 -3708.03,51.041 -3708.84,52.645C-3709.64,54.324 -3710.96,55.843 -3712.81,57.202C-3715.3,59.013 -3718.33,59.919 -3721.89,59.919C-3725.93,59.919 -3729.32,58.919 -3732.05,56.919C-3735.52,54.371 -3737.26,50.295 -3737.26,44.691L-3737.26,15.454L-3725.46,15.454L-3725.46,43.644C-3725.46,45.55 -3725.23,46.899 -3724.78,47.691C-3724.31,48.484 -3723.52,48.88 -3722.43,48.88C-3721.3,48.88 -3720.51,48.512 -3720.08,47.776C-3719.65,47.003 -3719.43,45.635 -3719.43,43.672L-3719.43,15.454Z" style="fill:rgb(158,161,168);fill-rule:nonzero;"/>
            <path id="path1267" d="M-3669.36,37.446C-3669.36,44.106 -3670.88,49.522 -3673.92,53.692C-3676.94,57.843 -3680.87,59.919 -3685.72,59.919C-3690.02,59.919 -3693.71,58.324 -3696.79,55.135C-3700.65,51.097 -3702.59,45.04 -3702.59,36.964C-3702.59,29.228 -3700.57,23.313 -3696.53,19.218C-3693.53,16.18 -3689.97,14.661 -3685.86,14.661C-3680.82,14.661 -3676.81,16.718 -3673.83,20.831C-3670.85,24.945 -3669.36,30.483 -3669.36,37.446ZM-3681.62,37.53C-3681.62,29.624 -3683.01,25.671 -3685.8,25.671C-3687.2,25.671 -3688.31,26.709 -3689.14,28.785C-3689.95,30.709 -3690.36,33.54 -3690.36,37.276C-3690.36,40.955 -3689.98,43.814 -3689.23,45.852C-3688.45,47.871 -3687.39,48.88 -3686.03,48.88C-3684.63,48.88 -3683.56,47.88 -3682.8,45.88C-3682.01,43.88 -3681.62,41.097 -3681.62,37.53Z" style="fill:rgb(158,161,168);fill-rule:nonzero;"/>
            <path id="path1269" d="M-3664.35,59.154L-3664.35,15.454L-3653.09,15.454L-3647.17,30.794C-3646.85,31.7 -3646.49,32.738 -3646.09,33.908C-3645.68,35.077 -3645.23,36.427 -3644.74,37.955L-3643.52,41.804C-3643.95,38.012 -3644.28,34.766 -3644.51,32.068C-3644.74,29.37 -3644.85,27.105 -3644.85,25.275L-3644.85,15.454L-3633.58,15.454L-3633.58,59.154L-3644.85,59.154L-3650.79,43.078C-3651.41,41.361 -3651.98,39.757 -3652.49,38.266C-3652.98,36.757 -3653.41,35.323 -3653.79,33.964C-3653.55,37.04 -3653.37,39.719 -3653.26,42.002C-3653.14,44.286 -3653.09,46.286 -3653.09,48.003L-3653.09,59.154L-3664.35,59.154Z" style="fill:rgb(158,161,168);fill-rule:nonzero;"/>
            <path id="path1271" d="M-3595.37,59.154L-3608.11,59.154L-3615.95,39.002L-3615.64,59.154L-3627.44,59.154L-3627.44,15.454L-3615.64,15.454L-3615.95,34.191L-3608.99,15.454L-3596.53,15.454L-3605.96,36.54L-3595.37,59.154Z" style="fill:rgb(158,161,168);fill-rule:nonzero;"/>
        </g>
        <g id="text1243" transform="matrix(0.911854,0,0,1,-300.85,0)">
            <path id="path1257" d="M-3479.24,1279.08L-3474.07,1279.08C-3471.93,1279.08 -3470.34,1279.59 -3469.3,1280.61C-3467.98,1281.93 -3467.32,1283.95 -3467.32,1286.67C-3467.32,1288.76 -3467.67,1290.43 -3468.38,1291.71C-3469.07,1292.96 -3470.06,1293.74 -3471.36,1294.05L-3466,1308.22L-3469.98,1308.22L-3475.32,1293.95L-3475.32,1308.22L-3479.24,1308.22L-3479.24,1279.08ZM-3475.32,1291.99C-3473.8,1291.99 -3472.72,1291.64 -3472.09,1290.93C-3471.46,1290.23 -3471.15,1289.04 -3471.15,1287.37C-3471.15,1286.46 -3471.22,1285.69 -3471.36,1285.05C-3471.48,1284.4 -3471.69,1283.88 -3471.98,1283.48C-3472.26,1283.08 -3472.62,1282.78 -3473.07,1282.59C-3473.51,1282.4 -3474.04,1282.31 -3474.66,1282.31L-3475.32,1282.31L-3475.32,1291.99Z" style="fill:rgb(158,161,168);fill-rule:nonzero;"/>
            <path id="path1273" d="M-3462.94,1279.08L-3459.28,1279.08L-3455.38,1290.71C-3454.24,1293.99 -3453.24,1297.49 -3452.37,1301.22C-3452.69,1298.96 -3452.92,1296.93 -3453.07,1295.1C-3453.22,1293.28 -3453.3,1291.56 -3453.3,1289.95L-3453.3,1279.08L-3449.36,1279.08L-3449.36,1308.22L-3453.03,1308.22L-3457.43,1295.1C-3457.83,1293.88 -3458.22,1292.63 -3458.58,1291.35C-3458.93,1290.06 -3459.26,1288.72 -3459.56,1287.31C-3459.59,1287.13 -3459.63,1286.92 -3459.7,1286.67C-3459.75,1286.42 -3459.81,1286.13 -3459.88,1285.8C-3459.85,1286.13 -3459.82,1286.41 -3459.79,1286.65C-3459.76,1286.88 -3459.74,1287.07 -3459.73,1287.23L-3459.53,1290.2L-3459.32,1293.8C-3459.31,1294 -3459.3,1294.25 -3459.3,1294.54C-3459.29,1294.83 -3459.28,1295.15 -3459.28,1295.52L-3459.07,1308.22L-3462.94,1308.22L-3462.94,1279.08Z" style="fill:rgb(158,161,168);fill-rule:nonzero;"/>
            <path id="path1275" d="M-3444.83,1279.08L-3440,1279.08C-3438.52,1279.08 -3437.28,1279.25 -3436.28,1279.57C-3435.35,1279.89 -3434.52,1280.45 -3433.79,1281.25C-3432.69,1282.46 -3431.91,1284.03 -3431.45,1285.97C-3430.98,1287.84 -3430.75,1290.53 -3430.75,1294.03C-3430.75,1297.24 -3431.01,1299.85 -3431.52,1301.88C-3432.03,1303.81 -3432.86,1305.29 -3434.01,1306.31C-3435.44,1307.58 -3437.98,1308.22 -3441.66,1308.22L-3444.83,1308.22L-3444.83,1279.08ZM-3440.9,1304.78C-3438.51,1304.78 -3436.91,1304.06 -3436.11,1302.61C-3435.28,1301.17 -3434.86,1298.35 -3434.86,1294.18C-3434.86,1289.69 -3435.26,1286.6 -3436.05,1284.91C-3436.85,1283.23 -3438.3,1282.38 -3440.41,1282.38L-3440.9,1282.38L-3440.9,1304.78Z" style="fill:rgb(158,161,168);fill-rule:nonzero;"/>
            <path id="path1277" d="M-3414.71,1279.08L-3411.66,1279.08L-3405.41,1308.22L-3409.3,1308.22L-3410.39,1302.54L-3416.16,1302.54L-3417.28,1308.22L-3421.05,1308.22L-3414.71,1279.08ZM-3410.96,1299.5L-3411.83,1294.86C-3412.4,1291.7 -3412.88,1288.33 -3413.24,1284.74C-3413.42,1286.49 -3413.64,1288.27 -3413.92,1290.06C-3414.2,1291.85 -3414.52,1293.75 -3414.9,1295.76L-3415.62,1299.5L-3410.96,1299.5Z" style="fill:rgb(158,161,168);fill-rule:nonzero;"/>
            <path id="path1279" d="M-3403.09,1279.08L-3399.16,1279.08L-3399.16,1304.89L-3392.75,1304.89L-3392.75,1308.22L-3403.09,1308.22L-3403.09,1279.08Z" style="fill:rgb(158,161,168);fill-rule:nonzero;"/>
            <path id="path1281" d="M-3390.26,1279.08L-3386.33,1279.08L-3386.33,1304.89L-3379.92,1304.89L-3379.92,1308.22L-3390.26,1308.22L-3390.26,1279.08Z" style="fill:rgb(158,161,168);fill-rule:nonzero;"/>
        </g>
        <g id="text1286" transform="matrix(0.94467,0,0,1.05857,0,0)">
            <path id="path1300" d="M-4033.52,1200.79L-4028.63,1200.79C-4026.61,1200.79 -4025.11,1201.27 -4024.12,1202.23C-4022.88,1203.48 -4022.25,1205.39 -4022.25,1207.95C-4022.25,1209.93 -4022.58,1211.51 -4023.25,1212.71C-4023.9,1213.9 -4024.84,1214.64 -4026.07,1214.92L-4021,1228.31L-4024.76,1228.31L-4029.81,1214.83L-4029.81,1228.31L-4033.52,1228.31L-4033.52,1200.79ZM-4029.81,1212.98C-4028.37,1212.98 -4027.36,1212.65 -4026.76,1211.98C-4026.17,1211.32 -4025.87,1210.19 -4025.87,1208.61C-4025.87,1207.76 -4025.93,1207.03 -4026.07,1206.42C-4026.18,1205.82 -4026.38,1205.32 -4026.65,1204.94C-4026.92,1204.56 -4027.26,1204.28 -4027.69,1204.1C-4028.1,1203.93 -4028.6,1203.84 -4029.19,1203.84L-4029.81,1203.84L-4029.81,1212.98Z" style="fill:rgb(158,161,168);fill-rule:nonzero;"/>
            <path id="path1303" d="M-4004.62,1215.23C-4004.62,1220.09 -4005.16,1223.54 -4006.24,1225.58C-4007.33,1227.63 -4009.14,1228.65 -4011.68,1228.65C-4014.36,1228.65 -4016.24,1227.55 -4017.33,1225.35C-4018.41,1223.2 -4018.95,1219.38 -4018.95,1213.89C-4018.95,1208.99 -4018.42,1205.53 -4017.35,1203.5C-4016.27,1201.45 -4014.44,1200.43 -4011.86,1200.43C-4009.55,1200.43 -4007.84,1201.22 -4006.73,1202.8C-4005.99,1203.86 -4005.45,1205.36 -4005.12,1207.31C-4004.79,1209.12 -4004.62,1211.76 -4004.62,1215.23ZM-4008.51,1215.62C-4008.51,1210.85 -4008.72,1207.69 -4009.15,1206.14C-4009.58,1204.57 -4010.45,1203.78 -4011.77,1203.78C-4013.09,1203.78 -4013.97,1204.5 -4014.41,1205.94C-4014.84,1207.39 -4015.05,1210.3 -4015.05,1214.67C-4015.05,1218.7 -4014.82,1221.5 -4014.37,1223.05C-4013.91,1224.53 -4013.04,1225.26 -4011.77,1225.26C-4010.52,1225.26 -4009.67,1224.57 -4009.2,1223.19C-4008.74,1221.83 -4008.51,1219.3 -4008.51,1215.62Z" style="fill:rgb(158,161,168);fill-rule:nonzero;"/>
            <path id="path1305" d="M-4002.84,1200.79L-3990.77,1200.79L-3990.77,1204.03L-3994.93,1204.03L-3994.93,1228.31L-3998.56,1228.31L-3998.56,1204.03L-4002.84,1204.03L-4002.84,1200.79Z" style="fill:rgb(158,161,168);fill-rule:nonzero;"/>
            <rect id="path1309" x="-3990.79" y="1217.47" width="6.488" height="2.781" style="fill:rgb(158,161,168);fill-rule:nonzero;"/>
            <path id="path1311" d="M-3971.38,1201.23L-3971.38,1204.57C-3972.33,1204.1 -3973.13,1203.87 -3973.77,1203.87C-3974.65,1203.87 -3975.4,1204.09 -3976.03,1204.53C-3976.66,1204.96 -3977.18,1205.63 -3977.6,1206.53C-3978,1207.43 -3978.31,1208.58 -3978.51,1209.97C-3978.7,1211.35 -3978.79,1212.98 -3978.79,1214.87C-3978.79,1221.67 -3977.05,1225.07 -3973.57,1225.07C-3972.96,1225.07 -3972.23,1224.88 -3971.38,1224.5L-3971.38,1227.9C-3972.27,1228.4 -3973.27,1228.65 -3974.37,1228.65C-3979.95,1228.65 -3982.73,1224.1 -3982.73,1215C-3982.73,1210.08 -3982.05,1206.41 -3980.7,1204.02C-3979.33,1201.61 -3977.25,1200.41 -3974.44,1200.41C-3973.41,1200.41 -3972.39,1200.69 -3971.38,1201.23L-3971.38,1201.23Z" style="fill:rgb(158,161,168);fill-rule:nonzero;"/>
            <path id="path1313" d="M-3970.47,1200.79L-3966.82,1200.79L-3965.16,1210.95L-3964.87,1212.79L-3964.29,1216.78C-3964.19,1217.45 -3964.11,1218.07 -3964.04,1218.63C-3963.95,1219.19 -3963.88,1219.69 -3963.82,1220.15L-3963.64,1221.5C-3963.61,1221.23 -3963.58,1220.98 -3963.55,1220.77C-3963.53,1220.56 -3963.5,1220.38 -3963.48,1220.24L-3963,1217.05L-3962.38,1212.86C-3962.32,1212.48 -3962.26,1212.13 -3962.21,1211.8C-3962.15,1211.48 -3962.1,1211.2 -3962.05,1210.95L-3960.27,1200.79L-3956.81,1200.79L-3962.21,1228.31L-3965.16,1228.31L-3970.47,1200.79Z" style="fill:rgb(158,161,168);fill-rule:nonzero;"/>
        </g>
        <g id="text1252" transform="matrix(1,0,0,1,-7.24575,0)">
            <path id="path1280" d="M-3196.09,96.652L-3188.96,96.652L-3188.96,97.784C-3188.96,103.458 -3189.46,107.288 -3190.45,109.276C-3191.43,111.314 -3193.27,112.332 -3195.96,112.332C-3198.74,112.332 -3200.72,111.2 -3201.91,108.936C-3203.08,106.672 -3203.66,102.866 -3203.66,97.52C-3203.66,91.407 -3203.02,87.337 -3201.74,85.312C-3200.53,83.412 -3198.67,82.463 -3196.17,82.463C-3194.26,82.463 -3192.77,82.922 -3191.7,83.84C-3190.62,84.771 -3189.77,86.299 -3189.17,88.425L-3192.83,89.954C-3192.99,89.186 -3193.18,88.545 -3193.38,88.029C-3193.58,87.501 -3193.8,87.092 -3194.04,86.802C-3194.51,86.211 -3195.23,85.916 -3196.19,85.916C-3197.5,85.916 -3198.39,86.721 -3198.87,88.331C-3199.35,90.017 -3199.59,93.042 -3199.59,97.407C-3199.59,101.822 -3199.34,104.81 -3198.85,106.37C-3198.36,107.93 -3197.43,108.71 -3196.08,108.71C-3194.83,108.71 -3193.95,108.156 -3193.45,107.049C-3192.94,105.867 -3192.68,103.967 -3192.68,101.351L-3192.68,100.558L-3192.68,99.973L-3196.09,99.973L-3196.09,96.652Z" style="fill:rgb(158,161,168);fill-rule:nonzero;"/>
            <path id="path1283" d="M-3180.89,82.84L-3177.83,82.84L-3171.58,111.974L-3175.47,111.974L-3176.56,106.294L-3182.34,106.294L-3183.45,111.974L-3187.22,111.974L-3180.89,82.84ZM-3177.13,103.256L-3178,98.615C-3178.58,95.457 -3179.05,92.086 -3179.41,88.501C-3179.59,90.249 -3179.82,92.023 -3180.09,93.822C-3180.37,95.608 -3180.7,97.508 -3181.07,99.52L-3181.79,103.256L-3177.13,103.256Z" style="fill:rgb(158,161,168);fill-rule:nonzero;"/>
            <path id="path1301" d="M-3172.19,82.84L-3159.41,82.84L-3159.41,86.274L-3163.81,86.274L-3163.81,111.974L-3167.66,111.974L-3167.66,86.274L-3172.19,86.274L-3172.19,82.84Z" style="fill:rgb(158,161,168);fill-rule:nonzero;"/>
            <path id="path1315" d="M-3157.26,82.84L-3146.83,82.84L-3146.83,86.161L-3153.34,86.161L-3153.34,95.388L-3147.56,95.388L-3147.56,98.709L-3153.34,98.709L-3153.34,108.653L-3146.83,108.653L-3146.83,111.974L-3157.26,111.974L-3157.26,82.84Z" style="fill:rgb(158,161,168);fill-rule:nonzero;"/>
        </g>
        <g id="text1320" transform="matrix(1,0,0,1,-52.9657,0)">
            <path id="path1322" d="M-3072.65,82.84L-3067.33,82.84C-3063.17,82.84 -3061.09,85.425 -3061.09,90.595C-3061.09,92.57 -3061.36,94.036 -3061.9,94.992C-3062.44,95.948 -3063.39,96.671 -3064.76,97.162C-3063.19,97.791 -3062.12,98.596 -3061.54,99.577C-3060.95,100.546 -3060.65,102.005 -3060.65,103.955C-3060.65,109.301 -3062.94,111.974 -3067.52,111.974L-3072.65,111.974L-3072.65,82.84ZM-3068.95,95.671C-3067.43,95.671 -3066.38,95.319 -3065.78,94.614C-3065.19,93.872 -3064.9,92.57 -3064.9,90.708C-3064.9,87.564 -3066.03,85.991 -3068.29,85.991L-3068.6,85.991L-3068.76,85.991C-3068.87,85.991 -3068.93,85.997 -3068.95,86.01L-3068.95,95.671ZM-3068.95,108.615C-3067.34,108.615 -3066.23,108.269 -3065.61,107.577C-3065,106.886 -3064.69,105.634 -3064.69,103.822C-3064.69,101.961 -3065.01,100.659 -3065.65,99.917C-3066.28,99.162 -3067.38,98.784 -3068.95,98.784L-3068.95,108.615Z" style="fill:rgb(158,161,168);fill-rule:nonzero;"/>
            <path id="path1324" d="M-3056.73,82.84L-3051.56,82.84C-3049.42,82.84 -3047.83,83.349 -3046.78,84.368C-3045.46,85.689 -3044.8,87.708 -3044.8,90.425C-3044.8,92.514 -3045.15,94.193 -3045.86,95.463C-3046.55,96.721 -3047.54,97.501 -3048.84,97.803L-3043.48,111.974L-3047.46,111.974L-3052.8,97.709L-3052.8,111.974L-3056.73,111.974L-3056.73,82.84ZM-3052.8,95.746C-3051.28,95.746 -3050.2,95.394 -3049.58,94.69C-3048.95,93.985 -3048.63,92.797 -3048.63,91.124C-3048.63,90.218 -3048.7,89.444 -3048.84,88.803C-3048.97,88.161 -3049.17,87.639 -3049.46,87.236C-3049.74,86.834 -3050.1,86.538 -3050.56,86.35C-3051,86.161 -3051.53,86.067 -3052.14,86.067L-3052.8,86.067L-3052.8,95.746Z" style="fill:rgb(158,161,168);fill-rule:nonzero;"/>
            <rect id="path1326" x="-3040.42" y="82.84" width="3.925" height="29.134" style="fill:rgb(158,161,168);fill-rule:nonzero;"/>
            <path id="path1328" d="M-3031.97,82.84L-3027.14,82.84C-3025.67,82.84 -3024.43,83.004 -3023.42,83.331C-3022.49,83.645 -3021.66,84.205 -3020.93,85.01C-3019.84,86.218 -3019.06,87.79 -3018.59,89.727C-3018.13,91.602 -3017.89,94.287 -3017.89,97.784C-3017.89,100.992 -3018.15,103.609 -3018.67,105.634C-3019.17,107.571 -3020,109.049 -3021.16,110.068C-3022.58,111.339 -3025.13,111.974 -3028.8,111.974L-3031.97,111.974L-3031.97,82.84ZM-3028.05,108.54C-3025.66,108.54 -3024.06,107.816 -3023.25,106.37C-3022.42,104.923 -3022.01,102.112 -3022.01,97.935C-3022.01,93.444 -3022.4,90.356 -3023.2,88.671C-3023.99,86.985 -3025.44,86.142 -3027.55,86.142L-3028.05,86.142L-3028.05,108.54Z" style="fill:rgb(158,161,168);fill-rule:nonzero;"/>
            <path id="path1330" d="M-3007.03,96.652L-2999.89,96.652L-2999.89,97.784C-2999.89,103.458 -3000.39,107.288 -3001.38,109.276C-3002.36,111.314 -3004.2,112.332 -3006.89,112.332C-3009.67,112.332 -3011.65,111.2 -3012.84,108.936C-3014.01,106.672 -3014.59,102.866 -3014.59,97.52C-3014.59,91.407 -3013.95,87.337 -3012.67,85.312C-3011.46,83.412 -3009.6,82.463 -3007.1,82.463C-3005.19,82.463 -3003.7,82.922 -3002.63,83.84C-3001.55,84.771 -3000.7,86.299 -3000.1,88.425L-3003.76,89.954C-3003.92,89.186 -3004.11,88.545 -3004.31,88.029C-3004.51,87.501 -3004.73,87.092 -3004.97,86.802C-3005.45,86.211 -3006.16,85.916 -3007.12,85.916C-3008.43,85.916 -3009.32,86.721 -3009.8,88.331C-3010.28,90.017 -3010.52,93.042 -3010.52,97.407C-3010.52,101.822 -3010.27,104.81 -3009.78,106.37C-3009.29,107.93 -3008.37,108.71 -3007.01,108.71C-3005.76,108.71 -3004.89,108.156 -3004.38,107.049C-3003.87,105.867 -3003.61,103.967 -3003.61,101.351L-3003.61,100.558L-3003.61,99.973L-3007.03,99.973L-3007.03,96.652Z" style="fill:rgb(158,161,168);fill-rule:nonzero;"/>
            <path id="path1332" d="M-2995.97,82.84L-2985.53,82.84L-2985.53,86.161L-2992.04,86.161L-2992.04,95.388L-2986.27,95.388L-2986.27,98.709L-2992.04,98.709L-2992.04,108.653L-2985.53,108.653L-2985.53,111.974L-2995.97,111.974L-2995.97,82.84Z" style="fill:rgb(158,161,168);fill-rule:nonzero;"/>
        </g>
        <g id="text1258" transform="matrix(0.92252,0,0,1.08399,0,0)">
            <path id="path1317" d="M-3255.1,90.521C-3255.1,95.267 -3255.62,98.639 -3256.68,100.635C-3257.74,102.631 -3259.51,103.629 -3261.99,103.629C-3264.6,103.629 -3266.44,102.555 -3267.51,100.408C-3268.56,98.308 -3269.09,94.577 -3269.09,89.215C-3269.09,84.434 -3268.57,81.051 -3267.52,79.067C-3266.47,77.071 -3264.68,76.073 -3262.16,76.073C-3259.91,76.073 -3258.24,76.844 -3257.15,78.388C-3256.43,79.421 -3255.91,80.889 -3255.58,82.792C-3255.26,84.556 -3255.1,87.132 -3255.1,90.521ZM-3258.89,90.904C-3258.89,86.25 -3259.1,83.163 -3259.52,81.643C-3259.93,80.111 -3260.79,79.345 -3262.08,79.345C-3263.36,79.345 -3264.22,80.047 -3264.65,81.452C-3265.07,82.867 -3265.28,85.711 -3265.28,89.981C-3265.28,93.915 -3265.06,96.643 -3264.62,98.163C-3264.16,99.602 -3263.32,100.321 -3262.08,100.321C-3260.86,100.321 -3260.02,99.648 -3259.57,98.302C-3259.12,96.968 -3258.89,94.501 -3258.89,90.904Z" style="fill:rgb(158,161,168);fill-rule:nonzero;"/>
            <path id="path1319" d="M-3253.63,76.421L-3250.07,76.421L-3248.45,86.343L-3248.17,88.136L-3247.59,92.035C-3247.5,92.697 -3247.42,93.3 -3247.35,93.846C-3247.27,94.391 -3247.2,94.884 -3247.14,95.325L-3246.97,96.648C-3246.93,96.382 -3246.9,96.144 -3246.88,95.935C-3246.86,95.726 -3246.83,95.552 -3246.81,95.412L-3246.34,92.297L-3245.73,88.206C-3245.67,87.834 -3245.62,87.492 -3245.57,87.179C-3245.51,86.865 -3245.46,86.587 -3245.42,86.343L-3243.68,76.421L-3240.3,76.421L-3245.57,103.298L-3248.45,103.298L-3253.63,76.421Z" style="fill:rgb(158,161,168);fill-rule:nonzero;"/>
            <path id="path1321" d="M-3238.33,76.421L-3228.7,76.421L-3228.7,79.485L-3234.71,79.485L-3234.71,87.997L-3229.38,87.997L-3229.38,91.061L-3234.71,91.061L-3234.71,100.234L-3228.7,100.234L-3228.7,103.298L-3238.33,103.298L-3238.33,76.421Z" style="fill:rgb(158,161,168);fill-rule:nonzero;"/>
            <path id="path1323" d="M-3225.38,76.421L-3220.61,76.421C-3218.64,76.421 -3217.17,76.891 -3216.21,77.831C-3214.99,79.049 -3214.38,80.912 -3214.38,83.419C-3214.38,85.345 -3214.7,86.894 -3215.35,88.066C-3215.99,89.227 -3216.91,89.947 -3218.1,90.225L-3213.16,103.298L-3216.83,103.298L-3221.76,90.138L-3221.76,103.298L-3225.38,103.298L-3225.38,76.421ZM-3221.76,88.328C-3220.36,88.328 -3219.36,88.003 -3218.78,87.353C-3218.2,86.703 -3217.91,85.606 -3217.91,84.063C-3217.91,83.227 -3217.98,82.513 -3218.1,81.922C-3218.22,81.33 -3218.41,80.848 -3218.68,80.477C-3218.93,80.105 -3219.27,79.833 -3219.69,79.659C-3220.1,79.485 -3220.58,79.397 -3221.15,79.397L-3221.76,79.397L-3221.76,88.328Z" style="fill:rgb(158,161,168);fill-rule:nonzero;"/>
            <path id="path1325" d="M-3199.13,76.421L-3196.31,76.421L-3190.55,103.298L-3194.13,103.298L-3195.14,98.058L-3200.47,98.058L-3201.5,103.298L-3204.98,103.298L-3199.13,76.421ZM-3195.67,95.256L-3196.47,90.974C-3197,88.061 -3197.44,84.951 -3197.77,81.643C-3197.93,83.256 -3198.14,84.893 -3198.4,86.552C-3198.65,88.2 -3198.96,89.952 -3199.3,91.809L-3199.97,95.256L-3195.67,95.256Z" style="fill:rgb(158,161,168);fill-rule:nonzero;"/>
        </g>
    </g>
</svg>
