<?xml version="1.0" encoding="UTF-8" standalone="no"?>
<!DOCTYPE svg PUBLIC "-//W3C//DTD SVG 1.1//EN" "http://www.w3.org/Graphics/SVG/1.1/DTD/svg11.dtd">
<svg width="100%" height="100%" viewBox="0 0 105 380" version="1.1" xmlns="http://www.w3.org/2000/svg" xmlns:xlink="http://www.w3.org/1999/xlink" xml:space="preserve" xmlns:serif="http://www.serif.com/" style="fill-rule:evenodd;clip-rule:evenodd;stroke-linecap:round;">
    <g id="Layer-2" serif:id="Layer 2">
        <g id="text989">
        </g>
        <rect id="rect4689" x="0" y="0" width="105" height="380" style="fill:rgb(44,45,48);"/>
        <g id="text80" transform="matrix(1.00498,0,0,0.995047,7.49999,4.99997)">
            <path id="path4726" d="M29.851,371.706L29.851,363.943L31.853,363.943L32.903,366.668C32.96,366.829 33.024,367.013 33.094,367.221C33.168,367.429 33.249,367.668 33.336,367.94L33.552,368.624C33.475,367.95 33.416,367.373 33.376,366.894C33.336,366.415 33.316,366.013 33.316,365.687L33.316,363.943L35.317,363.943L35.317,371.706L33.316,371.706L32.26,368.85C32.149,368.545 32.049,368.26 31.958,367.995C31.871,367.727 31.794,367.472 31.727,367.231C31.77,367.777 31.802,368.253 31.822,368.659C31.843,369.065 31.853,369.42 31.853,369.725L31.853,371.706L29.851,371.706Z" style="fill:rgb(158,161,168);fill-rule:nonzero;"/>
            <path id="path4728" d="M39.887,371.706L37.791,371.706L37.791,368.418L35.865,363.943L38.052,363.943L38.429,365.094C38.503,365.319 38.568,365.535 38.625,365.743C38.686,365.951 38.739,366.15 38.786,366.341C38.863,366.056 38.93,365.811 38.987,365.607C39.044,365.399 39.095,365.232 39.138,365.104L39.52,363.943L41.692,363.943L39.887,368.418L39.887,371.706Z" style="fill:rgb(158,161,168);fill-rule:nonzero;"/>
            <path id="path4730" d="M41.894,371.515L41.894,369.076C42.306,369.639 42.752,369.921 43.231,369.921C43.412,369.921 43.56,369.874 43.673,369.78C43.787,369.683 43.844,369.562 43.844,369.418C43.844,369.21 43.72,369.008 43.472,368.81L43.13,368.543C42.902,368.372 42.708,368.203 42.547,368.035C42.386,367.865 42.256,367.69 42.155,367.513C42.054,367.332 41.981,367.146 41.934,366.954C41.887,366.763 41.863,366.562 41.863,366.351C41.863,365.989 41.947,365.61 42.115,365.215C42.199,365.03 42.296,364.863 42.406,364.712C42.517,364.558 42.644,364.422 42.789,364.305C43.184,363.969 43.662,363.802 44.222,363.802C44.721,363.802 45.224,363.934 45.73,364.199L45.73,366.572C45.559,366.308 45.365,366.1 45.147,365.949C44.929,365.795 44.714,365.718 44.503,365.718C44.342,365.718 44.21,365.765 44.106,365.858C43.999,365.949 43.945,366.058 43.945,366.185C43.945,366.393 44.087,366.599 44.372,366.804L44.704,367.05C45.147,367.368 45.463,367.695 45.655,368.03C45.849,368.366 45.946,368.758 45.946,369.207C45.946,369.971 45.713,370.601 45.247,371.098C44.781,371.594 44.191,371.842 43.477,371.842C42.985,371.842 42.457,371.733 41.894,371.515L41.894,371.515Z" style="fill:rgb(158,161,168);fill-rule:nonzero;"/>
            <path id="path4732" d="M49.576,371.706L47.48,371.706L47.48,365.803L46.323,365.803L46.323,363.943L50.778,363.943L50.778,365.803L49.576,365.803L49.576,371.706Z" style="fill:rgb(158,161,168);fill-rule:nonzero;"/>
            <path id="path4734" d="M56.525,371.706L54.428,371.706L54.428,368.584L53.428,368.584L53.428,371.706L51.331,371.706L51.331,363.943L53.428,363.943L53.428,366.688L54.428,366.688L54.428,363.943L56.525,363.943L56.525,371.706Z" style="fill:rgb(158,161,168);fill-rule:nonzero;"/>
            <rect id="path4736" x="57.606" y="363.943" width="2.097" height="7.763" style="fill:rgb(158,161,168);fill-rule:nonzero;"/>
        </g>
        <g id="g4922">
            <rect id="rect4778" x="6" y="310" width="34" height="42" style="fill:rgb(60,60,60);"/>
            <g id="text4861">
                <path id="path4899" d="M16.849,345.271C16.849,346.139 16.609,346.83 16.13,347.344C15.651,347.858 15.009,348.115 14.203,348.115C13.411,348.115 12.781,347.852 12.313,347.328C11.847,346.8 11.615,346.092 11.615,345.203C11.615,344.314 11.852,343.601 12.328,343.062C12.8,342.521 13.427,342.25 14.208,342.25C15.031,342.25 15.677,342.519 16.146,343.057C16.615,343.595 16.849,344.333 16.849,345.271ZM14.823,345.203C14.823,344.995 14.809,344.807 14.781,344.641C14.753,344.47 14.714,344.326 14.661,344.208C14.609,344.087 14.547,343.993 14.474,343.927C14.401,343.861 14.319,343.828 14.229,343.828C14.052,343.828 13.91,343.953 13.802,344.203C13.694,344.422 13.641,344.75 13.641,345.188C13.641,345.618 13.694,345.946 13.802,346.172C13.91,346.422 14.054,346.547 14.234,346.547C14.405,346.547 14.545,346.424 14.656,346.177C14.767,345.903 14.823,345.578 14.823,345.203L14.823,345.203Z" style="fill:rgb(197,200,209);fill-rule:nonzero;"/>
                <path id="path4901" d="M17.651,342.37L19.74,342.37L19.74,345.542C19.74,345.844 19.769,346.064 19.828,346.203C19.891,346.318 20.009,346.375 20.182,346.375C20.352,346.375 20.467,346.318 20.526,346.203C20.589,346.089 20.62,345.868 20.62,345.542L20.62,342.37L22.708,342.37L22.708,345.823C22.708,346.052 22.689,346.26 22.651,346.448C22.616,346.632 22.559,346.8 22.479,346.953C22.403,347.102 22.302,347.24 22.177,347.365C22.056,347.49 21.91,347.604 21.74,347.708C21.281,347.979 20.762,348.115 20.182,348.115C19.595,348.115 19.076,347.979 18.625,347.708C18.451,347.604 18.302,347.491 18.177,347.37C18.056,347.245 17.955,347.106 17.875,346.953C17.799,346.8 17.741,346.632 17.703,346.448C17.668,346.26 17.651,346.052 17.651,345.823L17.651,342.37Z" style="fill:rgb(197,200,209);fill-rule:nonzero;"/>
                <path id="path4903" d="M26.047,348L23.953,348L23.953,344.052L23.359,344.052L23.359,342.37L23.953,342.37L23.953,340.714L26.047,340.714L26.047,342.37L26.74,342.37L26.74,344.052L26.047,344.052L26.047,348Z" style="fill:rgb(197,200,209);fill-rule:nonzero;"/>
                <path id="path4905" d="M34.385,348L30.583,348L30.583,339.958L32.755,339.958L32.755,346.068L34.385,346.068L34.385,348Z" style="fill:rgb(197,200,209);fill-rule:nonzero;"/>
            </g>
        </g>
        <g id="g4914" transform="matrix(1,0,0,1,15,0)">
            <rect id="rect4778-3" x="50" y="310" width="34" height="42" style="fill:rgb(60,60,60);"/>
            <g id="text4886">
                <path id="path4890" d="M59.891,345.271C59.891,346.139 59.651,346.83 59.172,347.344C58.693,347.858 58.05,348.115 57.245,348.115C56.453,348.115 55.823,347.852 55.354,347.328C54.889,346.8 54.656,346.092 54.656,345.203C54.656,344.314 54.894,343.601 55.37,343.062C55.842,342.521 56.469,342.25 57.25,342.25C58.073,342.25 58.719,342.519 59.187,343.057C59.656,343.595 59.891,344.333 59.891,345.271ZM57.865,345.203C57.865,344.995 57.851,344.807 57.823,344.641C57.795,344.47 57.755,344.326 57.703,344.208C57.651,344.087 57.589,343.993 57.516,343.927C57.443,343.861 57.361,343.828 57.271,343.828C57.094,343.828 56.951,343.953 56.844,344.203C56.736,344.422 56.682,344.75 56.682,345.187C56.682,345.618 56.736,345.946 56.844,346.172C56.951,346.422 57.095,346.547 57.276,346.547C57.446,346.547 57.587,346.424 57.698,346.177C57.809,345.903 57.865,345.578 57.865,345.203L57.865,345.203Z" style="fill:rgb(197,200,209);fill-rule:nonzero;"/>
                <path id="path4892" d="M60.693,342.37L62.781,342.37L62.781,345.542C62.781,345.844 62.811,346.064 62.87,346.203C62.932,346.318 63.05,346.375 63.224,346.375C63.394,346.375 63.509,346.318 63.568,346.203C63.63,346.089 63.662,345.868 63.662,345.542L63.662,342.37L65.75,342.37L65.75,345.823C65.75,346.052 65.731,346.26 65.693,346.448C65.658,346.632 65.601,346.8 65.521,346.953C65.444,347.102 65.344,347.24 65.219,347.365C65.097,347.49 64.951,347.604 64.781,347.708C64.323,347.979 63.804,348.115 63.224,348.115C62.637,348.115 62.118,347.979 61.667,347.708C61.493,347.604 61.344,347.491 61.219,347.37C61.097,347.245 60.997,347.106 60.917,346.953C60.84,346.8 60.783,346.632 60.745,346.448C60.71,346.26 60.693,346.052 60.693,345.823L60.693,342.37Z" style="fill:rgb(197,200,209);fill-rule:nonzero;"/>
                <path id="path4894" d="M69.089,348L66.995,348L66.995,344.052L66.401,344.052L66.401,342.37L66.995,342.37L66.995,340.714L69.089,340.714L69.089,342.37L69.781,342.37L69.781,344.052L69.089,344.052L69.089,348Z" style="fill:rgb(197,200,209);fill-rule:nonzero;"/>
                <path id="path4896" d="M79.344,348L76.995,348L75.922,345.135C75.912,345.087 75.892,345.023 75.865,344.943C75.84,344.863 75.809,344.767 75.771,344.656L75.786,345.187L75.786,348L73.625,348L73.625,339.958L75.849,339.958C76.828,339.958 77.561,340.151 78.047,340.536C78.665,341.029 78.974,341.731 78.974,342.641C78.974,343.613 78.559,344.285 77.729,344.656L79.344,348ZM75.797,343.682L75.943,343.682C76.193,343.682 76.401,343.587 76.568,343.396C76.734,343.205 76.818,342.962 76.818,342.667C76.818,342.066 76.503,341.766 75.875,341.766L75.797,341.766L75.797,343.682Z" style="fill:rgb(197,200,209);fill-rule:nonzero;"/>
            </g>
        </g>
        <g id="text4987">
        </g>
        <g id="text1101" transform="matrix(1.08588,0,0,1,-2.85876,8.86133e-06)">
            <path id="path1306" d="M10.661,102.349L11.589,102.349L12.297,105.63C12.384,106.04 12.462,106.451 12.531,106.865C12.604,107.274 12.67,107.705 12.729,108.156C12.736,108.097 12.741,108.052 12.745,108.021C12.748,107.986 12.752,107.962 12.755,107.948L12.906,107.026L13.042,106.151L13.161,105.573L13.792,102.349L14.729,102.349L15.469,110.391L14.432,110.391L14.25,107.661C14.243,107.523 14.236,107.403 14.229,107.302C14.226,107.201 14.224,107.118 14.224,107.052L14.177,105.974L14.151,104.984C14.151,104.977 14.149,104.963 14.146,104.943C14.146,104.919 14.144,104.887 14.141,104.849L14.115,105.01C14.087,105.201 14.061,105.368 14.036,105.51C14.016,105.653 13.997,105.773 13.979,105.87L13.844,106.604L13.792,106.88L13.115,110.391L12.385,110.391L11.75,107.359C11.663,106.96 11.585,106.556 11.516,106.146C11.45,105.733 11.389,105.3 11.333,104.849L11.021,110.391L10,110.391L10.661,102.349Z" style="fill:rgb(158,161,168);fill-rule:nonzero;"/>
            <path id="path1308" d="M20.391,106.568C20.391,107.988 20.233,108.997 19.917,109.594C19.601,110.191 19.071,110.49 18.328,110.49C17.547,110.49 16.997,110.168 16.677,109.526C16.361,108.898 16.203,107.781 16.203,106.177C16.203,104.747 16.359,103.734 16.672,103.141C16.988,102.543 17.523,102.245 18.276,102.245C18.95,102.245 19.45,102.476 19.776,102.937C19.991,103.247 20.148,103.686 20.245,104.255C20.342,104.783 20.391,105.554 20.391,106.568L20.391,106.568ZM19.255,106.682C19.255,105.29 19.193,104.366 19.068,103.911C18.943,103.453 18.688,103.224 18.302,103.224C17.917,103.224 17.66,103.434 17.531,103.854C17.406,104.278 17.344,105.128 17.344,106.406C17.344,107.583 17.41,108.399 17.542,108.854C17.677,109.285 17.931,109.5 18.302,109.5C18.667,109.5 18.917,109.299 19.052,108.896C19.188,108.497 19.255,107.759 19.255,106.682L19.255,106.682Z" style="fill:rgb(158,161,168);fill-rule:nonzero;"/>
            <path id="path1310" d="M21.469,102.349L22.802,102.349C23.208,102.349 23.55,102.394 23.828,102.484C24.085,102.571 24.314,102.726 24.516,102.948C24.818,103.281 25.033,103.715 25.161,104.25C25.29,104.767 25.354,105.509 25.354,106.474C25.354,107.359 25.283,108.082 25.141,108.641C25.002,109.175 24.773,109.583 24.453,109.865C24.061,110.215 23.358,110.391 22.344,110.391L21.469,110.391L21.469,102.349ZM22.552,109.443C23.212,109.443 23.653,109.243 23.875,108.844C24.104,108.444 24.219,107.668 24.219,106.516C24.219,105.276 24.109,104.424 23.891,103.958C23.672,103.493 23.271,103.26 22.688,103.26L22.552,103.26L22.552,109.443Z" style="fill:rgb(158,161,168);fill-rule:nonzero;"/>
            <path id="path1312" d="M28.635,102.349L31.531,102.349L31.531,103.266L29.719,103.266L29.719,105.807L31.354,105.807L31.354,106.724L29.719,106.724L29.719,110.391L28.635,110.391L28.635,102.349Z" style="fill:rgb(158,161,168);fill-rule:nonzero;"/>
            <path id="path1314" d="M32.365,102.349L33.792,102.349C34.382,102.349 34.821,102.49 35.109,102.771C35.474,103.135 35.656,103.693 35.656,104.443C35.656,105.019 35.559,105.483 35.365,105.833C35.174,106.181 34.899,106.396 34.542,106.479L36.021,110.391L34.922,110.391L33.448,106.453L33.448,110.391L32.365,110.391L32.365,102.349ZM33.448,105.911C33.868,105.911 34.165,105.814 34.339,105.62C34.512,105.425 34.599,105.097 34.599,104.635C34.599,104.385 34.58,104.172 34.542,103.995C34.507,103.818 34.45,103.674 34.37,103.562C34.293,103.451 34.193,103.37 34.068,103.318C33.946,103.266 33.8,103.24 33.63,103.24L33.448,103.24L33.448,105.911Z" style="fill:rgb(158,161,168);fill-rule:nonzero;"/>
            <path id="path1316" d="M36.865,102.349L39.745,102.349L39.745,103.266L37.948,103.266L37.948,105.812L39.542,105.812L39.542,106.729L37.948,106.729L37.948,109.474L39.745,109.474L39.745,110.391L36.865,110.391L36.865,102.349Z" style="fill:rgb(158,161,168);fill-rule:nonzero;"/>
            <path id="path1318" d="M44.995,110.51L44.313,111L43.76,110.214C43.431,110.398 43.082,110.49 42.714,110.49C41.932,110.49 41.38,110.16 41.057,109.5C40.738,108.819 40.578,107.681 40.578,106.083C40.578,104.688 40.734,103.7 41.047,103.12C41.359,102.536 41.889,102.245 42.635,102.245C43.42,102.245 43.972,102.566 44.292,103.208C44.608,103.837 44.766,104.951 44.766,106.552C44.766,108 44.615,109.005 44.313,109.568L44.995,110.51ZM43.078,107.839L43.526,108.474C43.599,107.96 43.635,107.38 43.635,106.734C43.635,105.352 43.569,104.418 43.437,103.932C43.306,103.464 43.043,103.229 42.651,103.229C42.283,103.229 42.035,103.429 41.906,103.828C41.778,104.21 41.714,104.981 41.714,106.141C41.714,107.443 41.779,108.332 41.911,108.807C42.043,109.262 42.3,109.49 42.682,109.49C42.835,109.49 42.981,109.441 43.12,109.344L42.432,108.354L43.078,107.839Z" style="fill:rgb(158,161,168);fill-rule:nonzero;"/>
        </g>
        <g id="text1126" transform="matrix(0.976054,0,0,1,-1.76053,1)">
            <path id="path1289" d="M10.661,125.859L11.589,125.859L12.297,129.141C12.384,129.55 12.462,129.962 12.531,130.375C12.604,130.785 12.67,131.215 12.729,131.667C12.736,131.608 12.741,131.562 12.745,131.531C12.748,131.497 12.752,131.472 12.755,131.458L12.906,130.536L13.042,129.661L13.161,129.083L13.792,125.859L14.729,125.859L15.469,133.901L14.432,133.901L14.25,131.172C14.243,131.033 14.236,130.913 14.229,130.813C14.226,130.712 14.224,130.629 14.224,130.563L14.177,129.484L14.151,128.495C14.151,128.488 14.149,128.474 14.146,128.453C14.146,128.429 14.144,128.398 14.141,128.359L14.115,128.521C14.087,128.712 14.061,128.879 14.036,129.021C14.016,129.163 13.997,129.283 13.979,129.38L13.844,130.115L13.792,130.391L13.115,133.901L12.385,133.901L11.75,130.87C11.663,130.47 11.585,130.066 11.516,129.656C11.45,129.243 11.389,128.811 11.333,128.359L11.021,133.901L10,133.901L10.661,125.859Z" style="fill:rgb(158,161,168);fill-rule:nonzero;"/>
            <path id="path1291" d="M20.391,130.078C20.391,131.498 20.233,132.507 19.917,133.104C19.601,133.701 19.071,134 18.328,134C17.547,134 16.997,133.679 16.677,133.036C16.361,132.408 16.203,131.292 16.203,129.688C16.203,128.257 16.359,127.245 16.672,126.651C16.988,126.054 17.523,125.755 18.276,125.755C18.95,125.755 19.45,125.986 19.776,126.448C19.991,126.757 20.148,127.196 20.245,127.766C20.342,128.293 20.391,129.064 20.391,130.078L20.391,130.078ZM19.255,130.193C19.255,128.8 19.193,127.877 19.068,127.422C18.943,126.964 18.688,126.734 18.302,126.734C17.917,126.734 17.66,126.944 17.531,127.365C17.406,127.788 17.344,128.639 17.344,129.917C17.344,131.094 17.41,131.91 17.542,132.365C17.677,132.795 17.931,133.01 18.302,133.01C18.667,133.01 18.917,132.809 19.052,132.406C19.188,132.007 19.255,131.269 19.255,130.193L19.255,130.193Z" style="fill:rgb(158,161,168);fill-rule:nonzero;"/>
            <path id="path1293" d="M21.469,125.859L22.802,125.859C23.208,125.859 23.55,125.905 23.828,125.995C24.085,126.082 24.314,126.236 24.516,126.458C24.818,126.792 25.033,127.226 25.161,127.76C25.29,128.278 25.354,129.019 25.354,129.984C25.354,130.87 25.283,131.592 25.141,132.151C25.002,132.686 24.773,133.094 24.453,133.375C24.061,133.726 23.358,133.901 22.344,133.901L21.469,133.901L21.469,125.859ZM22.552,132.953C23.212,132.953 23.653,132.753 23.875,132.354C24.104,131.955 24.219,131.179 24.219,130.026C24.219,128.786 24.109,127.934 23.891,127.469C23.672,127.003 23.271,126.771 22.688,126.771L22.552,126.771L22.552,132.953Z" style="fill:rgb(158,161,168);fill-rule:nonzero;"/>
            <path id="path1295" d="M28.635,125.859L29.969,125.859C30.375,125.859 30.717,125.905 30.995,125.995C31.252,126.082 31.481,126.236 31.682,126.458C31.984,126.792 32.2,127.226 32.328,127.76C32.457,128.278 32.521,129.019 32.521,129.984C32.521,130.87 32.45,131.592 32.307,132.151C32.168,132.686 31.939,133.094 31.62,133.375C31.227,133.726 30.524,133.901 29.51,133.901L28.635,133.901L28.635,125.859ZM29.719,132.953C30.378,132.953 30.819,132.753 31.042,132.354C31.271,131.955 31.385,131.179 31.385,130.026C31.385,128.786 31.276,127.934 31.057,127.469C30.839,127.003 30.438,126.771 29.854,126.771L29.719,126.771L29.719,132.953Z" style="fill:rgb(158,161,168);fill-rule:nonzero;"/>
            <path id="path1297" d="M33.594,125.859L36.474,125.859L36.474,126.776L34.677,126.776L34.677,129.323L36.271,129.323L36.271,130.24L34.677,130.24L34.677,132.984L36.474,132.984L36.474,133.901L33.594,133.901L33.594,125.859Z" style="fill:rgb(158,161,168);fill-rule:nonzero;"/>
            <path id="path1299" d="M37.469,125.859L38.896,125.859C39.583,125.859 40.083,126.033 40.396,126.38C40.708,126.731 40.865,127.286 40.865,128.047C40.865,129.116 40.55,129.807 39.922,130.12C39.606,130.262 39.149,130.333 38.552,130.333L38.552,133.901L37.469,133.901L37.469,125.859ZM38.552,129.406C39,129.406 39.309,129.316 39.479,129.135C39.653,128.951 39.74,128.625 39.74,128.156C39.74,127.677 39.656,127.326 39.49,127.104C39.323,126.882 39.061,126.771 38.703,126.771L38.552,126.771L38.552,129.406Z" style="fill:rgb(158,161,168);fill-rule:nonzero;"/>
            <path id="path1301" d="M41.057,125.859L44.583,125.859L44.583,126.807L43.37,126.807L43.37,133.901L42.307,133.901L42.307,126.807L41.057,126.807L41.057,125.859Z" style="fill:rgb(158,161,168);fill-rule:nonzero;"/>
            <path id="path1303" d="M45.177,125.859L46.26,125.859L46.26,129.005L47.849,129.005L47.849,125.859L48.932,125.859L48.932,133.901L47.849,133.901L47.849,129.922L46.26,129.922L46.26,133.901L45.177,133.901L45.177,125.859Z" style="fill:rgb(158,161,168);fill-rule:nonzero;"/>
        </g>
        <path id="path2432" d="M8.803,84.412C8.814,84.378 8.825,84.345 8.836,84.311C8.846,84.277 8.857,84.244 8.868,84.21C8.878,84.177 8.889,84.143 8.9,84.11C8.91,84.076 8.921,84.043 8.932,84.009C8.943,83.976 8.954,83.943 8.964,83.909C8.975,83.876 8.986,83.843 8.996,83.809C9.007,83.776 9.018,83.743 9.028,83.71C9.039,83.677 9.05,83.644 9.06,83.611C9.071,83.578 9.082,83.545 9.093,83.512C9.103,83.479 9.114,83.447 9.125,83.414C9.135,83.381 9.146,83.349 9.157,83.317C9.167,83.285 9.178,83.252 9.189,83.22C9.2,83.188 9.211,83.156 9.221,83.124C9.232,83.092 9.243,83.06 9.253,83.029C9.264,82.997 9.275,82.966 9.285,82.934C9.296,82.903 9.307,82.872 9.317,82.841C9.328,82.81 9.339,82.779 9.35,82.748C9.36,82.718 9.371,82.687 9.382,82.657C9.392,82.627 9.403,82.596 9.414,82.566C9.424,82.537 9.435,82.507 9.446,82.477C9.457,82.447 9.468,82.418 9.478,82.389C9.489,82.359 9.5,82.331 9.51,82.302C9.521,82.273 9.532,82.245 9.542,82.216C9.553,82.188 9.564,82.16 9.575,82.132C9.585,82.104 9.596,82.076 9.607,82.049C9.617,82.022 9.628,81.994 9.639,81.967C9.649,81.941 9.66,81.914 9.671,81.887C9.681,81.861 9.692,81.835 9.703,81.809C9.714,81.783 9.725,81.757 9.735,81.732C9.746,81.707 9.757,81.681 9.767,81.657C9.778,81.632 9.789,81.607 9.799,81.583C9.81,81.558 9.821,81.535 9.832,81.511C9.842,81.487 9.853,81.464 9.864,81.441C9.874,81.418 9.885,81.395 9.896,81.373C9.906,81.35 9.917,81.328 9.928,81.306C9.938,81.284 9.949,81.263 9.96,81.241C9.971,81.22 9.982,81.199 9.992,81.179C10.003,81.158 10.014,81.138 10.024,81.118C10.035,81.098 10.046,81.079 10.056,81.059C10.067,81.04 10.078,81.022 10.089,81.003C10.099,80.984 10.11,80.966 10.121,80.948C10.131,80.93 10.142,80.912 10.153,80.895C10.163,80.879 10.174,80.861 10.185,80.845C10.195,80.829 10.206,80.812 10.217,80.797C10.228,80.781 10.239,80.766 10.249,80.751C10.26,80.736 10.271,80.721 10.281,80.707C10.292,80.693 10.303,80.679 10.313,80.666C10.324,80.652 10.335,80.639 10.346,80.626C10.356,80.614 10.367,80.601 10.378,80.59C10.388,80.578 10.399,80.566 10.41,80.555C10.42,80.544 10.431,80.533 10.442,80.523C10.452,80.512 10.463,80.502 10.474,80.493C10.485,80.483 10.496,80.474 10.506,80.465C10.517,80.456 10.528,80.448 10.538,80.44C10.549,80.432 10.56,80.425 10.57,80.417C10.581,80.41 10.592,80.403 10.603,80.397C10.613,80.391 10.624,80.385 10.635,80.379C10.645,80.374 10.656,80.368 10.667,80.364C10.677,80.36 10.688,80.355 10.699,80.351C10.709,80.347 10.72,80.344 10.731,80.341C10.742,80.338 10.753,80.335 10.763,80.332C10.774,80.33 10.785,80.329 10.795,80.327C10.806,80.326 10.817,80.325 10.827,80.324C10.838,80.323 10.849,80.323 10.86,80.323C10.87,80.323 10.881,80.324 10.892,80.325C10.902,80.326 10.913,80.328 10.924,80.329C10.934,80.331 10.945,80.333 10.956,80.336C10.967,80.339 10.977,80.341 10.988,80.346C10.999,80.349 11.01,80.353 11.02,80.358C11.031,80.361 11.042,80.367 11.052,80.372C11.063,80.377 11.074,80.383 11.084,80.388C11.095,80.393 11.106,80.4 11.117,80.407C11.127,80.414 11.138,80.421 11.149,80.428C11.159,80.436 11.17,80.444 11.181,80.453C11.191,80.461 11.202,80.47 11.213,80.479C11.224,80.488 11.234,80.497 11.245,80.508C11.256,80.518 11.267,80.528 11.277,80.539C11.288,80.55 11.299,80.561 11.309,80.572C11.32,80.584 11.331,80.596 11.341,80.608C11.352,80.621 11.363,80.634 11.374,80.646C11.384,80.659 11.395,80.672 11.406,80.687C11.416,80.7 11.427,80.715 11.438,80.729C11.448,80.744 11.459,80.759 11.47,80.774C11.481,80.789 11.491,80.805 11.502,80.821C11.513,80.837 11.524,80.854 11.534,80.871C11.545,80.887 11.556,80.905 11.566,80.922C11.577,80.939 11.588,80.958 11.598,80.976C11.609,80.994 11.62,81.012 11.631,81.031C11.641,81.05 11.652,81.069 11.663,81.089C11.673,81.108 11.684,81.128 11.695,81.149C11.705,81.169 11.716,81.19 11.727,81.21C11.738,81.232 11.748,81.253 11.759,81.274C11.77,81.296 11.781,81.317 11.791,81.34C11.802,81.362 11.813,81.384 11.823,81.407C11.834,81.43 11.845,81.453 11.855,81.476C11.866,81.5 11.877,81.523 11.888,81.547C11.898,81.572 11.909,81.596 11.92,81.62C11.93,81.645 11.941,81.669 11.952,81.695C11.962,81.72 11.973,81.745 11.984,81.771C11.995,81.796 12.005,81.822 12.016,81.848C12.027,81.875 12.038,81.901 12.048,81.928C12.059,81.955 12.07,81.981 12.08,82.009C12.091,82.036 12.102,82.063 12.112,82.091C12.123,82.118 12.134,82.146 12.145,82.174C12.155,82.202 12.166,82.231 12.177,82.259C12.187,82.288 12.198,82.317 12.209,82.346C12.219,82.374 12.23,82.404 12.241,82.433C12.252,82.463 12.263,82.492 12.273,82.522C12.284,82.552 12.295,82.582 12.305,82.612C12.316,82.642 12.327,82.672 12.337,82.703C12.348,82.733 12.359,82.764 12.369,82.795C12.38,82.826 12.391,82.857 12.402,82.888C12.412,82.919 12.423,82.95 12.434,82.982C12.444,83.013 12.455,83.045 12.466,83.077C12.476,83.108 12.487,83.14 12.498,83.172C12.509,83.204 12.52,83.236 12.53,83.269C12.541,83.301 12.552,83.333 12.562,83.366C12.573,83.399 12.584,83.431 12.594,83.463C12.605,83.496 12.616,83.529 12.626,83.562C12.637,83.595 12.648,83.628 12.659,83.661C12.669,83.694 12.68,83.727 12.691,83.76C12.701,83.793 12.712,83.826 12.723,83.86C12.733,83.893 12.744,83.926 12.755,83.959C12.766,83.993 12.777,84.026 12.787,84.06C12.798,84.093 12.809,84.127 12.819,84.16C12.83,84.194 12.841,84.227 12.851,84.261C12.862,84.294 12.873,84.328 12.883,84.362C12.894,84.395 12.905,84.429 12.916,84.462C12.926,84.496 12.937,84.529 12.948,84.563C12.958,84.597 12.969,84.63 12.98,84.664C12.99,84.697 13.001,84.731 13.012,84.764C13.023,84.798 13.034,84.831 13.044,84.864C13.055,84.898 13.066,84.931 13.076,84.964C13.087,84.998 13.098,85.031 13.108,85.064C13.119,85.097 13.13,85.13 13.14,85.163C13.151,85.196 13.162,85.229 13.173,85.262C13.183,85.295 13.194,85.328 13.205,85.36C13.215,85.393 13.226,85.426 13.237,85.458C13.247,85.491 13.258,85.523 13.269,85.555C13.28,85.587 13.291,85.62 13.301,85.652C13.312,85.683 13.323,85.715 13.333,85.747C13.344,85.779 13.355,85.81 13.365,85.842C13.376,85.873 13.387,85.905 13.397,85.936C13.408,85.967 13.419,85.998 13.43,86.029C13.44,86.06 13.451,86.09 13.462,86.121C13.472,86.152 13.483,86.182 13.494,86.212C13.504,86.242 13.515,86.272 13.526,86.302C13.537,86.332 13.548,86.361 13.558,86.391C13.569,86.42 13.58,86.449 13.59,86.478C13.601,86.507 13.612,86.536 13.622,86.564C13.633,86.593 13.644,86.621 13.655,86.649C13.665,86.677 13.676,86.705 13.687,86.733C13.697,86.761 13.708,86.788 13.719,86.815C13.729,86.843 13.74,86.869 13.751,86.896C13.761,86.923 13.772,86.949 13.783,86.975C13.794,87.001 13.805,87.027 13.815,87.053C13.826,87.079 13.837,87.104 13.847,87.129C13.858,87.155 13.869,87.179 13.879,87.204C13.89,87.228 13.901,87.252 13.912,87.276C13.922,87.301 13.933,87.324 13.944,87.347C13.954,87.371 13.965,87.394 13.976,87.417C13.986,87.439 13.997,87.462 14.008,87.484C14.018,87.506 14.029,87.528 14.04,87.55C14.051,87.571 14.062,87.592 14.072,87.613C14.083,87.635 14.094,87.655 14.104,87.675C14.115,87.696 14.126,87.715 14.136,87.735C14.147,87.755 14.158,87.774 14.169,87.793C14.179,87.811 14.19,87.83 14.201,87.848C14.211,87.866 14.222,87.884 14.233,87.902C14.243,87.919 14.254,87.937 14.265,87.953C14.275,87.97 14.286,87.986 14.297,88.002C14.308,88.018 14.319,88.034 14.329,88.05C14.34,88.065 14.351,88.08 14.361,88.095C14.372,88.109 14.383,88.123 14.393,88.137C14.404,88.151 14.415,88.164 14.426,88.178C14.436,88.191 14.447,88.203 14.458,88.215C14.468,88.228 14.479,88.24 14.49,88.251C14.5,88.263 14.511,88.274 14.522,88.285C14.532,88.296 14.543,88.306 14.554,88.316C14.565,88.326 14.576,88.336 14.586,88.345C14.597,88.354 14.608,88.363 14.618,88.371C14.629,88.38 14.64,88.387 14.65,88.395C14.661,88.403 14.672,88.41 14.683,88.417C14.693,88.424 14.704,88.43 14.715,88.436C14.725,88.441 14.736,88.448 14.747,88.452C14.757,88.457 14.768,88.462 14.779,88.466C14.789,88.47 14.8,88.475 14.811,88.478C14.822,88.481 14.833,88.485 14.843,88.488C14.854,88.49 14.865,88.492 14.875,88.495C14.886,88.497 14.897,88.498 14.907,88.499C14.918,88.5 14.929,88.5 14.94,88.5C14.95,88.501 14.961,88.5 14.972,88.5C14.982,88.499 14.993,88.498 15.004,88.497C15.014,88.495 15.025,88.493 15.036,88.491C15.047,88.489 15.057,88.487 15.068,88.483C15.079,88.48 15.09,88.476 15.1,88.472C15.111,88.469 15.122,88.464 15.132,88.46C15.143,88.455 15.154,88.449 15.164,88.444C15.175,88.44 15.186,88.433 15.197,88.427C15.207,88.421 15.218,88.413 15.229,88.406C15.239,88.399 15.25,88.392 15.261,88.384C15.271,88.375 15.282,88.367 15.293,88.358C15.304,88.349 15.314,88.34 15.325,88.331C15.336,88.321 15.347,88.311 15.357,88.301C15.368,88.29 15.379,88.28 15.389,88.269C15.4,88.257 15.411,88.246 15.421,88.234C15.432,88.222 15.443,88.209 15.454,88.197C15.464,88.184 15.475,88.172 15.486,88.158C15.496,88.145 15.507,88.131 15.518,88.117C15.528,88.103 15.539,88.088 15.55,88.073C15.561,88.058 15.571,88.043 15.582,88.027C15.593,88.011 15.604,87.995 15.614,87.979C15.625,87.962 15.636,87.945 15.646,87.928C15.657,87.912 15.668,87.893 15.678,87.876C15.689,87.858 15.7,87.84 15.711,87.821C15.721,87.803 15.732,87.784 15.743,87.764C15.753,87.745 15.764,87.726 15.775,87.706C15.785,87.686 15.796,87.666 15.807,87.645C15.818,87.624 15.828,87.604 15.839,87.582C15.85,87.561 15.861,87.54 15.871,87.518C15.882,87.496 15.893,87.474 15.903,87.451C15.914,87.429 15.925,87.406 15.935,87.383C15.946,87.359 15.957,87.336 15.968,87.313C15.978,87.289 15.989,87.265 16,87.241C16.01,87.216 16.021,87.192 16.032,87.167C16.042,87.142 16.053,87.117 16.064,87.092C16.075,87.067 16.085,87.041 16.096,87.015C16.107,86.989 16.118,86.963 16.128,86.936C16.139,86.91 16.15,86.883 16.16,86.856C16.171,86.83 16.182,86.802 16.192,86.775C16.203,86.748 16.214,86.72 16.225,86.692C16.235,86.664 16.246,86.636 16.257,86.608C16.267,86.579 16.278,86.551 16.289,86.522C16.299,86.493 16.31,86.464 16.321,86.435C16.332,86.405 16.343,86.376 16.353,86.347C16.364,86.317 16.375,86.287 16.385,86.257C16.396,86.227 16.407,86.197 16.417,86.167C16.428,86.137 16.439,86.106 16.449,86.075C16.46,86.045 16.471,86.014 16.482,85.983C16.492,85.952 16.503,85.921 16.514,85.889C16.524,85.858 16.535,85.827 16.546,85.795C16.556,85.764 16.567,85.732 16.578,85.7C16.589,85.668 16.6,85.636 16.61,85.604C16.621,85.572 16.632,85.539 16.642,85.507C16.653,85.475 16.664,85.442 16.674,85.41C16.685,85.377 16.696,85.344 16.706,85.311C16.717,85.279 16.728,85.246 16.739,85.213C16.749,85.18 16.76,85.147 16.771,85.114C16.781,85.081 16.792,85.048 16.803,85.014C16.813,84.981 16.824,84.948 16.835,84.915C16.846,84.881 16.857,84.848 16.867,84.814C16.878,84.781 16.889,84.748 16.899,84.714C16.91,84.68 16.921,84.647 16.931,84.614C16.942,84.58 16.953,84.546 16.963,84.513C16.974,84.479 16.985,84.446 16.996,84.412" style="fill:none;fill-rule:nonzero;stroke:rgb(158,161,168);stroke-width:1.6px;"/>
        <path id="path2603" d="M22.805,84.59L24.88,81.574L29.035,88.048L31.082,84.59" style="fill:none;stroke:rgb(158,161,168);stroke-width:1.6px;"/>
        <path id="path2605" d="M50.779,85.505L50.779,80.978L54.991,80.978L55.065,88.523L59.158,88.523L59.158,83.996" style="fill:none;stroke:rgb(158,161,168);stroke-width:1.6px;stroke-linecap:butt;"/>
        <path id="path2607" d="M44.938,88.493L36.798,81.684L36.798,88.493" style="fill:none;stroke:rgb(158,161,168);stroke-width:1.6px;"/>
        <g id="text991" transform="matrix(1.15006,0,0,1,-3.50063,-7.00002)">
            <path id="path1005" d="M10,181.859L12.896,181.859L12.896,182.776L11.083,182.776L11.083,185.318L12.719,185.318L12.719,186.234L11.083,186.234L11.083,189.901L10,189.901L10,181.859Z" style="fill:rgb(158,161,168);fill-rule:nonzero;"/>
            <path id="path1007" d="M13.729,181.859L16.609,181.859L16.609,182.776L14.813,182.776L14.813,185.323L16.406,185.323L16.406,186.24L14.813,186.24L14.813,188.984L16.609,188.984L16.609,189.901L13.729,189.901L13.729,181.859Z" style="fill:rgb(158,161,168);fill-rule:nonzero;"/>
            <path id="path1009" d="M17.604,181.859L20.484,181.859L20.484,182.776L18.688,182.776L18.688,185.323L20.281,185.323L20.281,186.24L18.688,186.24L18.688,188.984L20.484,188.984L20.484,189.901L17.604,189.901L17.604,181.859Z" style="fill:rgb(158,161,168);fill-rule:nonzero;"/>
            <path id="path1011" d="M21.479,181.859L22.813,181.859C23.219,181.859 23.561,181.905 23.839,181.995C24.095,182.082 24.325,182.236 24.526,182.458C24.828,182.792 25.043,183.226 25.172,183.76C25.3,184.278 25.365,185.019 25.365,185.984C25.365,186.87 25.293,187.592 25.151,188.151C25.012,188.686 24.783,189.094 24.464,189.375C24.071,189.726 23.368,189.901 22.354,189.901L21.479,189.901L21.479,181.859ZM22.563,188.953C23.222,188.953 23.663,188.753 23.885,188.354C24.115,187.955 24.229,187.179 24.229,186.026C24.229,184.786 24.12,183.934 23.901,183.469C23.682,183.003 23.281,182.771 22.698,182.771L22.563,182.771L22.563,188.953Z" style="fill:rgb(158,161,168);fill-rule:nonzero;"/>
            <path id="path1013" d="M26.438,181.859L27.906,181.859C29.056,181.859 29.63,182.573 29.63,184C29.63,184.545 29.556,184.95 29.406,185.214C29.257,185.477 28.993,185.677 28.615,185.812C29.049,185.986 29.345,186.208 29.505,186.479C29.668,186.747 29.75,187.149 29.75,187.687C29.75,189.163 29.118,189.901 27.854,189.901L26.438,189.901L26.438,181.859ZM27.458,185.401C27.878,185.401 28.17,185.304 28.333,185.109C28.497,184.904 28.578,184.545 28.578,184.031C28.578,183.163 28.266,182.729 27.641,182.729L27.557,182.729L27.51,182.729C27.483,182.729 27.465,182.731 27.458,182.734L27.458,185.401ZM27.458,188.974C27.903,188.974 28.21,188.878 28.38,188.688C28.55,188.497 28.635,188.151 28.635,187.651C28.635,187.137 28.547,186.778 28.37,186.573C28.196,186.365 27.892,186.26 27.458,186.26L27.458,188.974Z" style="fill:rgb(158,161,168);fill-rule:nonzero;"/>
            <path id="path1015" d="M32.021,181.859L32.865,181.859L34.589,189.901L33.516,189.901L33.214,188.333L31.62,188.333L31.313,189.901L30.271,189.901L32.021,181.859ZM33.057,187.495L32.818,186.214C32.658,185.342 32.528,184.411 32.427,183.422C32.378,183.905 32.316,184.394 32.24,184.891C32.163,185.384 32.073,185.908 31.969,186.464L31.771,187.495L33.057,187.495Z" style="fill:rgb(158,161,168);fill-rule:nonzero;"/>
            <path id="path1017" d="M38.323,181.99L38.323,182.964C38.045,182.828 37.813,182.76 37.625,182.76C37.368,182.76 37.148,182.825 36.964,182.953C36.78,183.078 36.627,183.273 36.505,183.536C36.387,183.8 36.299,184.135 36.24,184.542C36.184,184.944 36.156,185.422 36.156,185.974C36.156,187.96 36.665,188.953 37.682,188.953C37.859,188.953 38.073,188.898 38.323,188.786L38.323,189.781C38.063,189.927 37.771,190 37.448,190C35.819,190 35.005,188.67 35.005,186.01C35.005,184.573 35.203,183.503 35.599,182.802C35.998,182.101 36.608,181.75 37.427,181.75C37.729,181.75 38.028,181.83 38.323,181.99L38.323,181.99Z" style="fill:rgb(158,161,168);fill-rule:nonzero;"/>
            <path id="path1019" d="M39.229,181.859L40.313,181.859L40.313,185.755L41.823,181.859L42.917,181.859L41.333,185.755L43.042,189.901L41.823,189.901L40.313,185.755L40.313,189.901L39.229,189.901L39.229,181.859Z" style="fill:rgb(158,161,168);fill-rule:nonzero;"/>
        </g>
        <g id="text995" transform="matrix(1,0,0,1,-2,40)">
            <path id="path997" d="M10.661,206.958L11.589,206.958L12.297,210.24C12.384,210.649 12.462,211.061 12.531,211.474C12.604,211.884 12.67,212.314 12.729,212.766C12.736,212.707 12.741,212.661 12.745,212.63C12.748,212.595 12.752,212.571 12.755,212.557L12.906,211.635L13.042,210.76L13.161,210.182L13.792,206.958L14.729,206.958L15.469,215L14.432,215L14.25,212.271C14.243,212.132 14.236,212.012 14.229,211.911C14.226,211.811 14.224,211.727 14.224,211.661L14.177,210.583L14.151,209.594C14.151,209.587 14.149,209.573 14.146,209.552C14.146,209.528 14.144,209.497 14.141,209.458L14.115,209.62C14.087,209.811 14.061,209.977 14.036,210.12C14.016,210.262 13.997,210.382 13.979,210.479L13.844,211.214L13.792,211.49L13.115,215L12.385,215L11.75,211.969C11.663,211.569 11.585,211.165 11.516,210.755C11.45,210.342 11.389,209.91 11.333,209.458L11.021,215L10,215L10.661,206.958Z" style="fill:rgb(158,161,168);fill-rule:nonzero;"/>
            <rect id="path999" x="16.365" y="206.958" width="1.083" height="8.042" style="fill:rgb(158,161,168);fill-rule:nonzero;"/>
            <path id="path1001" d="M18.151,206.958L19.203,206.958L19.76,208.516C19.979,209.13 20.109,209.58 20.151,209.865C20.189,209.687 20.231,209.516 20.276,209.349C20.325,209.182 20.375,209.016 20.427,208.849L20.5,208.615L21.016,206.958L22.109,206.958L20.62,210.917L22.109,215L21.016,215L20.484,213.469C20.377,213.163 20.29,212.889 20.224,212.646C20.158,212.403 20.111,212.188 20.083,212C20.056,212.233 20.009,212.455 19.943,212.667L19.76,213.24L19.667,213.542L19.203,215L18.057,215L19.578,210.917L18.151,206.958Z" style="fill:rgb(158,161,168);fill-rule:nonzero;"/>
        </g>
        <g id="text982" transform="matrix(1.02357,0,0,1,-1.75556,-41.099)">
            <path id="path984" d="M10.192,191.958L11.119,191.958L11.828,195.24C11.915,195.649 11.993,196.061 12.062,196.474C12.135,196.884 12.201,197.314 12.26,197.766C12.267,197.707 12.272,197.661 12.276,197.63C12.279,197.595 12.283,197.571 12.286,197.557L12.437,196.635L12.573,195.76L12.692,195.182L13.323,191.958L14.26,191.958L15,200L13.963,200L13.781,197.271C13.774,197.132 13.767,197.012 13.76,196.911C13.757,196.811 13.755,196.727 13.755,196.661L13.708,195.583L13.682,194.594C13.682,194.587 13.68,194.573 13.677,194.552C13.677,194.528 13.675,194.497 13.672,194.458L13.646,194.62C13.618,194.811 13.592,194.977 13.567,195.12C13.547,195.262 13.527,195.382 13.51,195.479L13.375,196.214L13.323,196.49L12.646,200L11.916,200L11.281,196.969C11.194,196.569 11.116,196.165 11.047,195.755C10.981,195.342 10.92,194.91 10.864,194.458L10.552,200L9.531,200L10.192,191.958Z" style="fill:rgb(158,161,168);fill-rule:nonzero;"/>
            <path id="path986" d="M19.922,196.177C19.922,197.597 19.764,198.606 19.448,199.203C19.132,199.8 18.602,200.099 17.859,200.099C17.078,200.099 16.527,199.778 16.208,199.135C15.892,198.507 15.734,197.391 15.734,195.786C15.734,194.356 15.89,193.344 16.203,192.75C16.519,192.153 17.053,191.854 17.807,191.854C18.481,191.854 18.981,192.085 19.307,192.547C19.522,192.856 19.678,193.295 19.776,193.865C19.873,194.392 19.922,195.163 19.922,196.177ZM18.786,196.292C18.786,194.899 18.724,193.976 18.599,193.521C18.474,193.063 18.218,192.833 17.833,192.833C17.448,192.833 17.191,193.043 17.062,193.464C16.937,193.887 16.875,194.738 16.875,196.016C16.875,197.193 16.941,198.009 17.073,198.464C17.208,198.894 17.461,199.109 17.833,199.109C18.198,199.109 18.448,198.908 18.583,198.505C18.718,198.106 18.786,197.368 18.786,196.292L18.786,196.292Z" style="fill:rgb(158,161,168);fill-rule:nonzero;"/>
            <path id="path988" d="M20.359,191.958L21.427,191.958L21.911,194.927L21.994,195.464L22.166,196.63C22.194,196.828 22.218,197.009 22.239,197.172C22.264,197.335 22.284,197.483 22.302,197.615L22.354,198.01C22.364,197.931 22.373,197.859 22.38,197.797C22.387,197.734 22.394,197.682 22.401,197.641L22.541,196.708L22.724,195.484C22.741,195.373 22.757,195.271 22.77,195.177C22.788,195.083 22.803,195 22.817,194.927L23.338,191.958L24.349,191.958L22.771,200L21.911,200L20.359,191.958Z" style="fill:rgb(158,161,168);fill-rule:nonzero;"/>
            <path id="path990" d="M24.937,191.958L27.817,191.958L27.817,192.875L26.021,192.875L26.021,195.422L27.614,195.422L27.614,196.339L26.021,196.339L26.021,199.083L27.817,199.083L27.817,200L24.937,200L24.937,191.958Z" style="fill:rgb(158,161,168);fill-rule:nonzero;"/>
            <path id="path992" d="M29.192,191.958L30.119,191.958L30.828,195.24C30.915,195.649 30.993,196.061 31.062,196.474C31.135,196.884 31.201,197.314 31.26,197.766C31.267,197.707 31.272,197.661 31.276,197.63C31.279,197.595 31.283,197.571 31.286,197.557L31.437,196.635L31.573,195.76L31.692,195.182L32.323,191.958L33.26,191.958L34,200L32.963,200L32.781,197.271C32.774,197.132 32.767,197.012 32.76,196.911C32.757,196.811 32.755,196.727 32.755,196.661L32.708,195.583L32.682,194.594C32.682,194.587 32.68,194.573 32.677,194.552C32.677,194.528 32.675,194.497 32.672,194.458L32.646,194.62C32.618,194.811 32.592,194.977 32.567,195.12C32.547,195.262 32.527,195.382 32.51,195.479L32.375,196.214L32.323,196.49L31.646,200L30.916,200L30.281,196.969C30.194,196.569 30.116,196.165 30.047,195.755C29.981,195.342 29.92,194.91 29.864,194.458L29.552,200L28.531,200L29.192,191.958Z" style="fill:rgb(158,161,168);fill-rule:nonzero;"/>
            <path id="path994" d="M34.896,191.958L37.776,191.958L37.776,192.875L35.979,192.875L35.979,195.422L37.573,195.422L37.573,196.339L35.979,196.339L35.979,199.083L37.776,199.083L37.776,200L34.896,200L34.896,191.958Z" style="fill:rgb(158,161,168);fill-rule:nonzero;"/>
            <path id="path996" d="M38.771,191.958L39.781,191.958L40.859,195.167C41.172,196.073 41.448,197.04 41.687,198.068C41.6,197.446 41.536,196.884 41.494,196.38C41.453,195.877 41.432,195.403 41.432,194.958L41.432,191.958L42.52,191.958L42.52,200L41.505,200L40.291,196.38C40.18,196.043 40.074,195.698 39.974,195.344C39.876,194.99 39.786,194.618 39.703,194.229C39.696,194.181 39.684,194.122 39.666,194.052C39.653,193.983 39.635,193.903 39.614,193.813C39.625,193.903 39.633,193.981 39.64,194.047C39.648,194.109 39.653,194.163 39.656,194.208L39.713,195.026L39.771,196.021C39.774,196.076 39.776,196.144 39.776,196.224C39.779,196.304 39.781,196.394 39.781,196.495L39.838,200L38.771,200L38.771,191.958Z" style="fill:rgb(158,161,168);fill-rule:nonzero;"/>
            <path id="path998" d="M43.13,191.958L46.656,191.958L46.656,192.906L45.442,192.906L45.442,200L44.38,200L44.38,192.906L43.13,192.906L43.13,191.958Z" style="fill:rgb(158,161,168);fill-rule:nonzero;"/>
        </g>
        <g id="g1060" transform="matrix(1,0,0,1,-28.7812,-2.99999)">
            <path id="path1029" d="M36.781,273.859L38.25,273.859C39.399,273.859 39.974,274.573 39.974,276C39.974,276.545 39.899,276.95 39.75,277.214C39.601,277.477 39.337,277.677 38.958,277.812C39.392,277.986 39.689,278.208 39.849,278.479C40.012,278.747 40.094,279.149 40.094,279.687C40.094,281.163 39.462,281.901 38.198,281.901L36.781,281.901L36.781,273.859ZM37.802,277.401C38.222,277.401 38.514,277.304 38.677,277.109C38.84,276.905 38.922,276.545 38.922,276.031C38.922,275.163 38.609,274.729 37.984,274.729L37.901,274.729L37.854,274.729C37.826,274.729 37.809,274.731 37.802,274.734L37.802,277.401ZM37.802,280.974C38.247,280.974 38.554,280.878 38.724,280.688C38.894,280.497 38.979,280.151 38.979,279.651C38.979,279.137 38.891,278.778 38.714,278.573C38.54,278.365 38.236,278.26 37.802,278.26L37.802,280.974Z" style="fill:rgb(158,161,168);fill-rule:nonzero;"/>
            <path id="path1031" d="M45.182,278.078C45.182,279.498 45.024,280.507 44.708,281.104C44.392,281.701 43.863,282 43.12,282C42.339,282 41.788,281.679 41.469,281.036C41.153,280.408 40.995,279.292 40.995,277.687C40.995,276.257 41.151,275.245 41.464,274.651C41.78,274.054 42.314,273.755 43.068,273.755C43.741,273.755 44.241,273.986 44.568,274.448C44.783,274.757 44.939,275.196 45.036,275.766C45.134,276.293 45.182,277.064 45.182,278.078L45.182,278.078ZM44.047,278.193C44.047,276.8 43.984,275.877 43.859,275.422C43.734,274.964 43.479,274.734 43.094,274.734C42.708,274.734 42.451,274.944 42.323,275.365C42.198,275.788 42.135,276.639 42.135,277.917C42.135,279.094 42.201,279.91 42.333,280.365C42.469,280.795 42.722,281.01 43.094,281.01C43.458,281.01 43.708,280.809 43.844,280.406C43.979,280.007 44.047,279.269 44.047,278.193L44.047,278.193Z" style="fill:rgb(158,161,168);fill-rule:nonzero;"/>
            <path id="path1033" d="M50.286,278.078C50.286,279.498 50.128,280.507 49.812,281.104C49.497,281.701 48.967,282 48.224,282C47.443,282 46.892,281.679 46.573,281.036C46.257,280.408 46.099,279.292 46.099,277.687C46.099,276.257 46.255,275.245 46.568,274.651C46.884,274.054 47.418,273.755 48.172,273.755C48.845,273.755 49.345,273.986 49.672,274.448C49.887,274.757 50.043,275.196 50.141,275.766C50.238,276.293 50.286,277.064 50.286,278.078L50.286,278.078ZM49.151,278.193C49.151,276.8 49.089,275.877 48.964,275.422C48.839,274.964 48.583,274.734 48.198,274.734C47.812,274.734 47.556,274.944 47.427,275.365C47.302,275.788 47.24,276.639 47.24,277.917C47.24,279.094 47.306,279.91 47.438,280.365C47.573,280.795 47.826,281.01 48.198,281.01C48.563,281.01 48.813,280.809 48.948,280.406C49.083,280.007 49.151,279.269 49.151,278.193Z" style="fill:rgb(158,161,168);fill-rule:nonzero;"/>
            <path id="path1035" d="M54.047,274.026L54.047,275.083C53.717,274.847 53.42,274.729 53.156,274.729C52.872,274.729 52.639,274.83 52.458,275.031C52.278,275.222 52.187,275.477 52.187,275.797C52.187,276.078 52.252,276.319 52.38,276.521C52.446,276.628 52.554,276.767 52.703,276.937C52.856,277.108 53.052,277.312 53.292,277.552C53.733,278 54.033,278.387 54.193,278.714C54.352,279.03 54.432,279.417 54.432,279.875C54.432,280.497 54.257,281.009 53.906,281.411C53.556,281.804 53.106,282 52.557,282C52.095,282 51.701,281.873 51.375,281.62L51.375,280.547C51.76,280.828 52.111,280.969 52.427,280.969C52.722,280.969 52.953,280.872 53.12,280.677C53.286,280.479 53.37,280.212 53.37,279.875C53.37,279.583 53.306,279.321 53.177,279.089C53.111,278.977 53.019,278.851 52.901,278.708C52.783,278.562 52.635,278.401 52.458,278.224C52.184,277.953 51.957,277.714 51.776,277.505C51.595,277.297 51.462,277.115 51.375,276.958C51.208,276.653 51.125,276.267 51.125,275.802C51.125,275.174 51.288,274.675 51.615,274.307C51.944,273.936 52.387,273.75 52.943,273.75C53.328,273.75 53.696,273.842 54.047,274.026L54.047,274.026Z" style="fill:rgb(158,161,168);fill-rule:nonzero;"/>
            <path id="path1037" d="M54.828,273.859L58.354,273.859L58.354,274.807L57.141,274.807L57.141,281.901L56.078,281.901L56.078,274.807L54.828,274.807L54.828,273.859Z" style="fill:rgb(158,161,168);fill-rule:nonzero;"/>
        </g>
        <g id="text1042">
        </g>
        <g id="text943" transform="matrix(1,0,0,1,0,18)">
            <path id="path945" d="M8,276.859L9.469,276.859C10.618,276.859 11.193,277.573 11.193,279C11.193,279.545 11.118,279.95 10.969,280.214C10.819,280.477 10.556,280.677 10.177,280.812C10.611,280.986 10.908,281.208 11.068,281.479C11.231,281.747 11.313,282.149 11.313,282.687C11.313,284.163 10.681,284.901 9.417,284.901L8,284.901L8,276.859ZM9.021,280.401C9.441,280.401 9.733,280.304 9.896,280.109C10.059,279.905 10.141,279.545 10.141,279.031C10.141,278.163 9.828,277.729 9.203,277.729L9.12,277.729L9.073,277.729C9.045,277.729 9.028,277.731 9.021,277.734L9.021,280.401ZM9.021,283.974C9.465,283.974 9.773,283.878 9.943,283.687C10.113,283.497 10.198,283.151 10.198,282.651C10.198,282.137 10.109,281.778 9.932,281.573C9.759,281.365 9.455,281.26 9.021,281.26L9.021,283.974Z" style="fill:rgb(158,161,168);fill-rule:nonzero;"/>
            <path id="path947" d="M11.693,276.859L12.839,276.859L13.37,278.609C13.387,278.661 13.405,278.719 13.422,278.781C13.439,278.844 13.46,278.911 13.484,278.984C13.682,279.616 13.818,280.148 13.891,280.578C13.953,280.148 14.005,279.847 14.047,279.677L14.214,278.958L14.276,278.677L14.724,276.859L15.854,276.859L14.453,281.443L14.453,284.901L13.37,284.901L13.37,281.443L11.693,276.859Z" style="fill:rgb(158,161,168);fill-rule:nonzero;"/>
            <path id="path949" d="M16.458,276.859L17.885,276.859C18.573,276.859 19.073,277.033 19.385,277.38C19.698,277.731 19.854,278.286 19.854,279.047C19.854,280.116 19.54,280.807 18.911,281.12C18.595,281.262 18.139,281.333 17.542,281.333L17.542,284.901L16.458,284.901L16.458,276.859ZM17.542,280.406C17.99,280.406 18.299,280.316 18.469,280.135C18.642,279.951 18.729,279.625 18.729,279.156C18.729,278.677 18.646,278.326 18.479,278.104C18.313,277.882 18.05,277.771 17.693,277.771L17.542,277.771L17.542,280.406Z" style="fill:rgb(158,161,168);fill-rule:nonzero;"/>
            <path id="path951" d="M21.583,276.859L22.427,276.859L24.151,284.901L23.078,284.901L22.776,283.333L21.182,283.333L20.875,284.901L19.833,284.901L21.583,276.859ZM22.62,282.495L22.38,281.214C22.22,280.342 22.09,279.411 21.99,278.422C21.941,278.904 21.878,279.394 21.802,279.891C21.726,280.384 21.635,280.908 21.531,281.464L21.333,282.495L22.62,282.495Z" style="fill:rgb(158,161,168);fill-rule:nonzero;"/>
            <path id="path953" d="M27.474,277.026L27.474,278.083C27.144,277.847 26.847,277.729 26.583,277.729C26.299,277.729 26.066,277.83 25.885,278.031C25.705,278.222 25.615,278.477 25.615,278.797C25.615,279.078 25.679,279.319 25.807,279.521C25.873,279.628 25.981,279.767 26.13,279.937C26.283,280.108 26.479,280.312 26.719,280.552C27.16,281 27.46,281.387 27.62,281.714C27.78,282.029 27.859,282.417 27.859,282.875C27.859,283.497 27.684,284.009 27.333,284.411C26.983,284.804 26.533,285 25.984,285C25.523,285 25.128,284.873 24.802,284.62L24.802,283.547C25.187,283.828 25.538,283.969 25.854,283.969C26.149,283.969 26.38,283.872 26.547,283.677C26.714,283.479 26.797,283.212 26.797,282.875C26.797,282.583 26.733,282.321 26.604,282.089C26.538,281.977 26.446,281.851 26.328,281.708C26.21,281.562 26.062,281.401 25.885,281.224C25.611,280.953 25.384,280.714 25.203,280.505C25.023,280.297 24.889,280.115 24.802,279.958C24.635,279.653 24.552,279.267 24.552,278.802C24.552,278.174 24.715,277.675 25.042,277.307C25.372,276.936 25.814,276.75 26.37,276.75C26.755,276.75 27.123,276.842 27.474,277.026L27.474,277.026Z" style="fill:rgb(158,161,168);fill-rule:nonzero;"/>
            <path id="path955" d="M31.453,277.026L31.453,278.083C31.123,277.847 30.826,277.729 30.562,277.729C30.278,277.729 30.045,277.83 29.865,278.031C29.684,278.222 29.594,278.477 29.594,278.797C29.594,279.078 29.658,279.319 29.786,279.521C29.852,279.628 29.96,279.767 30.109,279.937C30.262,280.108 30.458,280.312 30.698,280.552C31.139,281 31.439,281.387 31.599,281.714C31.759,282.029 31.839,282.417 31.839,282.875C31.839,283.497 31.663,284.009 31.312,284.411C30.962,284.804 30.512,285 29.964,285C29.502,285 29.108,284.873 28.781,284.62L28.781,283.547C29.167,283.828 29.517,283.969 29.833,283.969C30.128,283.969 30.359,283.872 30.526,283.677C30.693,283.479 30.776,283.212 30.776,282.875C30.776,282.583 30.712,282.321 30.583,282.089C30.517,281.977 30.425,281.851 30.307,281.708C30.189,281.562 30.042,281.401 29.865,281.224C29.59,280.953 29.363,280.714 29.182,280.505C29.002,280.297 28.868,280.115 28.781,279.958C28.615,279.653 28.531,279.267 28.531,278.802C28.531,278.174 28.694,277.675 29.021,277.307C29.351,276.936 29.793,276.75 30.349,276.75C30.734,276.75 31.102,276.842 31.453,277.026L31.453,277.026Z" style="fill:rgb(158,161,168);fill-rule:nonzero;"/>
        </g>
        <g id="text963" transform="matrix(1.216,0,0,1,-1.728,-20)">
            <path id="path972" d="M8,218.859L11.526,218.859L11.526,219.807L10.313,219.807L10.313,226.901L9.25,226.901L9.25,219.807L8,219.807L8,218.859Z" style="fill:rgb(158,161,168);fill-rule:nonzero;"/>
            <path id="path979" d="M12.12,218.859L13.547,218.859C14.137,218.859 14.576,219 14.865,219.281C15.229,219.646 15.411,220.203 15.411,220.953C15.411,221.53 15.314,221.993 15.12,222.344C14.929,222.691 14.655,222.906 14.297,222.99L15.776,226.901L14.677,226.901L13.203,222.964L13.203,226.901L12.12,226.901L12.12,218.859ZM13.203,222.422C13.623,222.422 13.92,222.325 14.094,222.13C14.267,221.936 14.354,221.608 14.354,221.146C14.354,220.896 14.335,220.682 14.297,220.505C14.262,220.328 14.205,220.184 14.125,220.073C14.049,219.962 13.948,219.88 13.823,219.828C13.701,219.776 13.556,219.75 13.385,219.75L13.203,219.75L13.203,222.422Z" style="fill:rgb(158,161,168);fill-rule:nonzero;"/>
            <path id="path981" d="M16.62,218.859L19.5,218.859L19.5,219.776L17.703,219.776L17.703,222.323L19.297,222.323L19.297,223.24L17.703,223.24L17.703,225.984L19.5,225.984L19.5,226.901L16.62,226.901L16.62,218.859Z" style="fill:rgb(158,161,168);fill-rule:nonzero;"/>
            <path id="path983" d="M20.875,218.859L21.802,218.859L22.51,222.141C22.597,222.55 22.675,222.962 22.745,223.375C22.818,223.785 22.884,224.215 22.943,224.667C22.95,224.608 22.955,224.562 22.958,224.531C22.962,224.497 22.965,224.472 22.969,224.458L23.12,223.536L23.255,222.661L23.375,222.083L24.005,218.859L24.943,218.859L25.682,226.901L24.646,226.901L24.464,224.172C24.457,224.033 24.45,223.913 24.443,223.813C24.439,223.712 24.438,223.629 24.438,223.563L24.391,222.484L24.365,221.495C24.365,221.488 24.363,221.474 24.359,221.453C24.359,221.429 24.358,221.398 24.354,221.359L24.328,221.521C24.3,221.712 24.274,221.878 24.25,222.021C24.229,222.163 24.21,222.283 24.193,222.38L24.057,223.115L24.005,223.391L23.328,226.901L22.599,226.901L21.964,223.87C21.877,223.47 21.799,223.066 21.729,222.656C21.663,222.243 21.602,221.811 21.547,221.359L21.234,226.901L20.214,226.901L20.875,218.859Z" style="fill:rgb(158,161,168);fill-rule:nonzero;"/>
            <path id="path985" d="M30.604,223.078C30.604,224.498 30.446,225.507 30.13,226.104C29.814,226.701 29.285,227 28.542,227C27.76,227 27.21,226.679 26.891,226.036C26.575,225.408 26.417,224.292 26.417,222.687C26.417,221.257 26.573,220.245 26.885,219.651C27.201,219.054 27.736,218.755 28.49,218.755C29.163,218.755 29.663,218.986 29.99,219.448C30.205,219.757 30.361,220.196 30.458,220.766C30.556,221.293 30.604,222.064 30.604,223.078ZM29.469,223.193C29.469,221.8 29.406,220.877 29.281,220.422C29.156,219.964 28.901,219.734 28.516,219.734C28.13,219.734 27.873,219.944 27.745,220.365C27.62,220.788 27.557,221.639 27.557,222.917C27.557,224.094 27.623,224.91 27.755,225.365C27.891,225.795 28.144,226.01 28.516,226.01C28.88,226.01 29.13,225.809 29.266,225.406C29.401,225.007 29.469,224.269 29.469,223.193L29.469,223.193Z" style="fill:rgb(158,161,168);fill-rule:nonzero;"/>
            <path id="path987" d="M31.682,218.859L32.766,218.859L32.766,225.984L34.536,225.984L34.536,226.901L31.682,226.901L31.682,218.859Z" style="fill:rgb(158,161,168);fill-rule:nonzero;"/>
            <path id="path989" d="M39.25,223.078C39.25,224.498 39.092,225.507 38.776,226.104C38.46,226.701 37.931,227 37.188,227C36.406,227 35.856,226.679 35.536,226.036C35.22,225.408 35.063,224.292 35.063,222.687C35.063,221.257 35.219,220.245 35.531,219.651C35.847,219.054 36.382,218.755 37.135,218.755C37.809,218.755 38.309,218.986 38.635,219.448C38.851,219.757 39.007,220.196 39.104,220.766C39.201,221.293 39.25,222.064 39.25,223.078L39.25,223.078ZM38.115,223.193C38.115,221.8 38.052,220.877 37.927,220.422C37.802,219.964 37.547,219.734 37.161,219.734C36.776,219.734 36.519,219.944 36.391,220.365C36.266,220.788 36.203,221.639 36.203,222.917C36.203,224.094 36.269,224.91 36.401,225.365C36.536,225.795 36.79,226.01 37.161,226.01C37.526,226.01 37.776,225.809 37.911,225.406C38.047,225.007 38.115,224.269 38.115,223.193L38.115,223.193Z" style="fill:rgb(158,161,168);fill-rule:nonzero;"/>
        </g>
        <g id="text994" transform="matrix(0.933351,0,0,1.07141,0,0)">
            <path id="path1038" d="M6.975,16.326L6.975,12.79C7.573,13.607 8.22,14.015 8.915,14.015C9.177,14.015 9.391,13.947 9.557,13.811C9.722,13.67 9.805,13.495 9.805,13.286C9.805,12.984 9.625,12.69 9.265,12.403L8.769,12.017C8.439,11.769 8.157,11.523 7.923,11.28C7.69,11.032 7.5,10.78 7.355,10.522C7.209,10.26 7.102,9.99 7.034,9.713C6.966,9.436 6.932,9.144 6.932,8.838C6.932,8.313 7.053,7.763 7.296,7.19C7.418,6.922 7.559,6.679 7.719,6.461C7.88,6.237 8.064,6.04 8.273,5.87C8.847,5.384 9.54,5.141 10.351,5.141C11.076,5.141 11.805,5.333 12.539,5.717L12.539,9.159C12.291,8.774 12.009,8.473 11.693,8.254C11.377,8.031 11.066,7.919 10.76,7.919C10.526,7.919 10.334,7.987 10.184,8.123C10.028,8.254 9.95,8.412 9.95,8.597C9.95,8.898 10.157,9.197 10.57,9.494L11.051,9.851C11.693,10.313 12.153,10.787 12.43,11.273C12.712,11.759 12.853,12.328 12.853,12.979C12.853,14.088 12.515,15.002 11.839,15.721C11.163,16.441 10.308,16.8 9.272,16.8C8.558,16.8 7.792,16.642 6.975,16.326Z" style="fill:rgb(158,161,168);fill-rule:nonzero;"/>
            <path id="path1040" d="M18.117,16.603L15.077,16.603L15.077,8.043L13.399,8.043L13.399,5.345L19.86,5.345L19.86,8.043L18.117,8.043L18.117,16.603Z" style="fill:rgb(158,161,168);fill-rule:nonzero;"/>
            <path id="path1042" d="M20.662,16.603L20.662,5.345L26.313,5.345L26.313,7.992L23.703,7.992L23.703,9.632L26.043,9.632L26.043,12.177L23.703,12.177L23.703,13.898L26.313,13.898L26.313,16.603L20.662,16.603Z" style="fill:rgb(158,161,168);fill-rule:nonzero;"/>
            <path id="path1044" d="M35.61,16.603L32.322,16.603L30.82,12.593C30.805,12.525 30.778,12.435 30.739,12.323C30.705,12.211 30.662,12.078 30.608,11.922L30.63,12.666L30.63,16.603L27.604,16.603L27.604,5.345L30.717,5.345C32.088,5.345 33.114,5.615 33.795,6.154C34.66,6.845 35.093,7.827 35.093,9.1C35.093,10.461 34.512,11.402 33.35,11.922L35.61,16.603ZM30.645,10.559L30.849,10.559C31.199,10.559 31.49,10.425 31.724,10.157C31.957,9.89 32.074,9.55 32.074,9.137C32.074,8.296 31.634,7.875 30.754,7.875L30.645,7.875L30.645,10.559Z" style="fill:rgb(158,161,168);fill-rule:nonzero;"/>
            <path id="path1046" d="M36.617,16.603L36.617,5.345L42.268,5.345L42.268,7.992L39.657,7.992L39.657,9.632L41.998,9.632L41.998,12.177L39.657,12.177L39.657,13.898L42.268,13.898L42.268,16.603L36.617,16.603Z" style="fill:rgb(158,161,168);fill-rule:nonzero;"/>
            <path id="path1048" d="M51.835,11.011C51.835,12.727 51.443,14.122 50.661,15.196C49.883,16.266 48.869,16.8 47.62,16.8C46.511,16.8 45.561,16.39 44.769,15.568C43.772,14.528 43.274,12.967 43.274,10.887C43.274,8.894 43.794,7.37 44.834,6.315C45.607,5.532 46.524,5.141 47.583,5.141C48.881,5.141 49.914,5.671 50.682,6.73C51.45,7.79 51.835,9.217 51.835,11.011ZM48.677,11.033C48.677,8.996 48.317,7.977 47.598,7.977C47.238,7.977 46.951,8.245 46.738,8.779C46.529,9.275 46.424,10.004 46.424,10.967C46.424,11.915 46.521,12.651 46.716,13.176C46.915,13.696 47.19,13.957 47.54,13.957C47.899,13.957 48.176,13.699 48.371,13.184C48.575,12.668 48.677,11.951 48.677,11.033L48.677,11.033Z" style="fill:rgb(158,161,168);fill-rule:nonzero;"/>
            <path id="path1050" d="M59.454,13.14L59.279,16.392C58.604,16.664 57.999,16.8 57.464,16.8C56.205,16.8 55.145,16.338 54.285,15.415C53.322,14.379 52.841,12.914 52.841,11.018C52.841,9.244 53.293,7.819 54.197,6.745C55.101,5.675 56.309,5.141 57.821,5.141C58.312,5.141 58.813,5.233 59.323,5.418L59.323,8.633C58.871,8.181 58.407,7.955 57.93,7.955C57.308,7.955 56.822,8.22 56.472,8.75C56.122,9.285 55.947,10.024 55.947,10.967C55.947,11.424 55.991,11.832 56.078,12.192C56.166,12.552 56.29,12.855 56.45,13.103C56.616,13.351 56.817,13.541 57.055,13.672C57.294,13.803 57.566,13.869 57.872,13.869C58.397,13.869 58.925,13.626 59.454,13.14L59.454,13.14Z" style="fill:rgb(158,161,168);fill-rule:nonzero;"/>
            <path id="path1052" d="M68.445,16.603L65.405,16.603L65.405,12.075L63.953,12.075L63.953,16.603L60.913,16.603L60.913,5.345L63.953,5.345L63.953,9.326L65.405,9.326L65.405,5.345L68.445,5.345L68.445,16.603Z" style="fill:rgb(158,161,168);fill-rule:nonzero;"/>
            <path id="path1054" d="M78.289,11.011C78.289,12.727 77.898,14.122 77.115,15.196C76.337,16.266 75.324,16.8 74.075,16.8C72.966,16.8 72.016,16.39 71.223,15.568C70.227,14.528 69.729,12.967 69.729,10.887C69.729,8.894 70.249,7.37 71.289,6.315C72.062,5.532 72.978,5.141 74.038,5.141C75.336,5.141 76.369,5.671 77.137,6.73C77.905,7.79 78.289,9.217 78.289,11.011ZM75.132,11.033C75.132,8.996 74.772,7.977 74.053,7.977C73.693,7.977 73.406,8.245 73.192,8.779C72.983,9.275 72.879,10.004 72.879,10.967C72.879,11.915 72.976,12.651 73.17,13.176C73.37,13.696 73.644,13.957 73.994,13.957C74.354,13.957 74.631,13.699 74.826,13.184C75.03,12.668 75.132,11.951 75.132,11.033L75.132,11.033Z" style="fill:rgb(158,161,168);fill-rule:nonzero;"/>
            <path id="path1056" d="M87.586,16.603L84.298,16.603L82.795,12.593C82.781,12.525 82.754,12.435 82.715,12.323C82.681,12.211 82.637,12.078 82.584,11.922L82.606,12.666L82.606,16.603L79.58,16.603L79.58,5.345L82.693,5.345C84.064,5.345 85.09,5.615 85.771,6.154C86.636,6.845 87.068,7.827 87.068,9.1C87.068,10.461 86.488,11.402 85.326,11.922L87.586,16.603ZM82.62,10.559L82.825,10.559C83.175,10.559 83.466,10.425 83.7,10.157C83.933,9.89 84.05,9.55 84.05,9.137C84.05,8.296 83.61,7.875 82.73,7.875L82.621,7.875L82.62,10.559Z" style="fill:rgb(158,161,168);fill-rule:nonzero;"/>
            <path id="path1058" d="M93.099,5.345L96.139,5.345L96.139,13.308C96.139,13.974 96.035,14.513 95.826,14.926C95.622,15.359 95.281,15.75 94.805,16.1C94.163,16.567 93.383,16.8 92.464,16.8C91.424,16.8 90.552,16.543 89.847,16.027C88.952,15.371 88.505,14.321 88.505,12.877L88.505,5.345L91.546,5.345L91.546,12.608C91.546,13.099 91.604,13.446 91.721,13.65C91.842,13.854 92.044,13.957 92.326,13.957C92.618,13.957 92.819,13.862 92.931,13.672C93.043,13.473 93.099,13.12 93.099,12.615L93.099,5.345Z" style="fill:rgb(158,161,168);fill-rule:nonzero;"/>
            <path id="path1060" d="M97.481,16.326L97.481,12.79C98.079,13.607 98.726,14.015 99.421,14.015C99.683,14.015 99.897,13.947 100.062,13.811C100.228,13.67 100.31,13.495 100.31,13.286C100.31,12.984 100.131,12.69 99.771,12.403L99.275,12.017C98.944,11.769 98.662,11.523 98.429,11.28C98.196,11.032 98.006,10.78 97.86,10.522C97.715,10.26 97.608,9.99 97.54,9.713C97.471,9.436 97.437,9.144 97.437,8.838C97.437,8.313 97.559,7.763 97.802,7.19C97.924,6.922 98.064,6.679 98.225,6.461C98.385,6.237 98.57,6.04 98.779,5.87C99.353,5.384 100.045,5.141 100.857,5.141C101.582,5.141 102.311,5.333 103.045,5.717L103.045,9.159C102.797,8.774 102.515,8.473 102.199,8.254C101.883,8.031 101.572,7.919 101.266,7.919C101.032,7.919 100.84,7.987 100.69,8.123C100.534,8.254 100.456,8.412 100.456,8.597C100.456,8.898 100.663,9.197 101.076,9.494L101.557,9.851C102.199,10.313 102.658,10.787 102.935,11.273C103.217,11.759 103.358,12.328 103.358,12.979C103.358,14.088 103.021,15.002 102.345,15.721C101.669,16.441 100.814,16.8 99.778,16.8C99.063,16.8 98.298,16.642 97.481,16.326L97.481,16.326Z" style="fill:rgb(158,161,168);fill-rule:nonzero;"/>
        </g>
        <g id="text998" transform="matrix(0.891399,0,0,1.12183,0,0)">
            <path id="path1004" d="M34.644,27.633L31.74,27.633L31.74,19.458L30.138,19.458L30.138,16.881L36.308,16.881L36.308,19.458L34.644,19.458L34.644,27.633Z" style="fill:rgb(158,161,168);fill-rule:nonzero;"/>
            <path id="path1006" d="M44.721,27.633L41.58,27.633L40.145,23.803C40.132,23.738 40.106,23.652 40.069,23.545C40.036,23.439 39.995,23.311 39.943,23.162L39.964,23.873L39.964,27.633L37.074,27.633L37.074,16.881L40.048,16.881C41.357,16.881 42.337,17.139 42.987,17.654C43.813,18.313 44.226,19.251 44.226,20.467C44.226,21.767 43.672,22.666 42.562,23.162L44.721,27.633ZM39.978,21.86L40.173,21.86C40.508,21.86 40.786,21.732 41.009,21.477C41.232,21.222 41.343,20.897 41.343,20.502C41.343,19.699 40.923,19.297 40.083,19.297L39.978,19.297L39.978,21.86Z" style="fill:rgb(158,161,168);fill-rule:nonzero;"/>
            <path id="path1008" d="M45.682,27.633L45.682,16.881L51.079,16.881L51.079,19.409L48.586,19.409L48.586,20.976L50.821,20.976L50.821,23.406L48.586,23.406L48.586,25.05L51.079,25.05L51.079,27.633L45.682,27.633Z" style="fill:rgb(158,161,168);fill-rule:nonzero;"/>
            <path id="path1021" d="M63.378,27.633L60.341,27.633L60.125,22.731L60.035,20.774C60.002,21.15 59.965,21.51 59.923,21.853C59.882,22.192 59.831,22.522 59.77,22.842L58.858,27.633L56.49,27.633L55.71,22.835C55.664,22.557 55.601,22.078 55.522,21.401C55.513,21.298 55.492,21.089 55.459,20.774L55.39,22.759L55.132,27.633L52.04,27.633L53.294,16.881L56.908,16.881L57.514,20.502C57.565,20.799 57.609,21.122 57.646,21.47C57.688,21.818 57.725,22.197 57.758,22.605C57.818,21.923 57.901,21.312 58.008,20.774L58.746,16.881L62.333,16.881L63.378,27.633Z" style="fill:rgb(158,161,168);fill-rule:nonzero;"/>
            <path id="path1023" d="M72.584,22.292C72.584,23.931 72.21,25.263 71.463,26.289C70.72,27.311 69.752,27.821 68.559,27.821C67.5,27.821 66.593,27.429 65.836,26.644C64.884,25.651 64.408,24.161 64.408,22.174C64.408,20.27 64.905,18.815 65.899,17.807C66.637,17.06 67.512,16.686 68.524,16.686C69.764,16.686 70.75,17.192 71.484,18.204C72.217,19.216 72.584,20.579 72.584,22.292ZM69.569,22.313C69.569,20.368 69.225,19.395 68.538,19.395C68.194,19.395 67.92,19.65 67.716,20.161C67.517,20.634 67.417,21.331 67.417,22.25C67.417,23.155 67.51,23.859 67.695,24.36C67.886,24.857 68.148,25.105 68.482,25.105C68.826,25.105 69.09,24.859 69.276,24.367C69.471,23.875 69.569,23.19 69.569,22.313Z" style="fill:rgb(158,161,168);fill-rule:nonzero;"/>
            <path id="path1025" d="M78.9,27.633L73.817,27.633L73.817,16.881L76.721,16.881L76.721,25.05L78.9,25.05L78.9,27.633Z" style="fill:rgb(158,161,168);fill-rule:nonzero;"/>
            <path id="path1027" d="M87.654,22.292C87.654,23.931 87.281,25.263 86.533,26.289C85.79,27.311 84.822,27.821 83.629,27.821C82.57,27.821 81.663,27.429 80.906,26.644C79.954,25.651 79.478,24.161 79.478,22.174C79.478,20.27 79.975,18.815 80.969,17.807C81.707,17.06 82.582,16.686 83.594,16.686C84.834,16.686 85.82,17.192 86.554,18.204C87.287,19.216 87.654,20.579 87.654,22.292ZM84.639,22.313C84.639,20.368 84.295,19.395 83.608,19.395C83.265,19.395 82.991,19.65 82.786,20.161C82.587,20.634 82.487,21.331 82.487,22.25C82.487,23.155 82.58,23.859 82.765,24.36C82.956,24.857 83.218,25.105 83.552,25.105C83.896,25.105 84.161,24.859 84.346,24.367C84.541,23.875 84.639,23.19 84.639,22.313L84.639,22.313Z" style="fill:rgb(158,161,168);fill-rule:nonzero;"/>
        </g>
        <g id="g1064" transform="matrix(1,0,0,1,-1.35166e-06,12.0261)">
            <path id="rect1061" d="M99,30C99,27.24 96.76,25 94,25L11,25C8.24,25 6,27.24 6,30L6,50.831C6,53.59 8.24,55.831 11,55.831L94,55.831C96.76,55.831 99,53.59 99,50.831L99,30Z" style="fill:rgb(179,179,179);"/>
            <g id="text994-3" transform="matrix(1,0,0,1,3.03694e-06,-32.1978)">
                <path id="path996-3" d="M42.651,65.802L40.557,65.802L40.557,60.172L42.651,60.172L42.651,65.802ZM42.828,58.427C42.828,58.757 42.708,59.042 42.469,59.281C42.222,59.517 41.936,59.635 41.609,59.635C41.273,59.635 40.984,59.516 40.745,59.276C40.509,59.029 40.391,58.741 40.391,58.411C40.391,58.075 40.509,57.788 40.745,57.552C40.991,57.316 41.278,57.198 41.604,57.198C41.948,57.198 42.238,57.318 42.474,57.557C42.71,57.793 42.828,58.083 42.828,58.427L42.828,58.427Z" style="fill:rgb(44,45,48);fill-rule:nonzero;"/>
                <path id="path998-8" d="M48.578,65.802L46.49,65.802L46.49,62.823C46.49,62.566 46.464,62.387 46.411,62.286C46.363,62.186 46.276,62.135 46.151,62.135C45.859,62.135 45.714,62.411 45.714,62.963L45.714,65.802L43.625,65.802L43.625,60.172L45.714,60.172C45.71,60.311 45.706,60.439 45.703,60.557C45.699,60.675 45.694,60.785 45.687,60.885L45.667,61.245C46.003,60.45 46.497,60.052 47.146,60.052C47.597,60.052 47.948,60.22 48.198,60.557C48.451,60.894 48.578,61.363 48.578,61.963L48.578,65.802Z" style="fill:rgb(44,45,48);fill-rule:nonzero;"/>
                <path id="path1000" d="M51.63,68.312L49.542,68.312L49.542,60.172L51.63,60.172L51.583,60.969C51.67,60.802 51.759,60.661 51.849,60.547C51.939,60.429 52.036,60.333 52.141,60.26C52.245,60.187 52.356,60.135 52.474,60.104C52.596,60.069 52.729,60.052 52.875,60.052C53.417,60.052 53.858,60.323 54.198,60.864C54.535,61.399 54.703,62.109 54.703,62.995C54.703,63.894 54.542,64.606 54.219,65.13C53.903,65.654 53.467,65.917 52.911,65.917C52.405,65.917 51.962,65.623 51.583,65.036C51.601,65.213 51.611,65.366 51.615,65.495C51.625,65.627 51.63,65.785 51.63,65.969L51.63,68.312ZM52.542,62.932C52.542,62.564 52.498,62.279 52.411,62.078C52.328,61.873 52.208,61.771 52.052,61.771C51.729,61.771 51.568,62.165 51.568,62.953C51.568,63.759 51.724,64.161 52.036,64.161C52.193,64.161 52.316,64.054 52.406,63.838C52.497,63.623 52.542,63.321 52.542,62.932L52.542,62.932Z" style="fill:rgb(44,45,48);fill-rule:nonzero;"/>
                <path id="path1002" d="M55.521,60.172L57.609,60.172L57.609,63.344C57.609,63.646 57.639,63.866 57.698,64.005C57.76,64.12 57.879,64.177 58.052,64.177C58.222,64.177 58.337,64.12 58.396,64.005C58.458,63.891 58.49,63.67 58.49,63.344L58.49,60.172L60.578,60.172L60.578,63.625C60.578,63.854 60.559,64.062 60.521,64.25C60.486,64.434 60.429,64.602 60.349,64.755C60.273,64.904 60.172,65.042 60.047,65.167C59.925,65.292 59.779,65.406 59.609,65.51C59.151,65.781 58.632,65.917 58.052,65.917C57.465,65.917 56.946,65.781 56.495,65.51C56.321,65.406 56.172,65.293 56.047,65.172C55.925,65.047 55.825,64.908 55.745,64.755C55.668,64.602 55.611,64.434 55.573,64.25C55.538,64.062 55.521,63.854 55.521,63.625L55.521,60.172Z" style="fill:rgb(44,45,48);fill-rule:nonzero;"/>
                <path id="path1004-5" d="M63.917,65.802L61.823,65.802L61.823,61.854L61.229,61.854L61.229,60.172L61.823,60.172L61.823,58.515L63.917,58.515L63.917,60.172L64.609,60.172L64.609,61.854L63.917,61.854L63.917,65.802Z" style="fill:rgb(44,45,48);fill-rule:nonzero;"/>
            </g>
            <g id="path1352" transform="matrix(1,0,0,1,0,2)">
                <path d="M39.802,50L36,50L36,41.958L38.172,41.958L38.172,48.068L39.802,48.068L39.802,50Z" style="fill:rgb(44,45,48);fill-rule:nonzero;"/>
            </g>
            <g id="path1349" transform="matrix(1.00002,0,0,0.999978,-4.99985,2)">
                <path d="M74.717,50.001L72.368,50.001L71.295,47.136C71.285,47.088 71.266,47.024 71.238,46.944C71.214,46.864 71.183,46.768 71.144,46.657L71.16,47.189L71.16,50.001L68.998,50.001L68.998,41.959L71.222,41.959C72.202,41.959 72.934,42.152 73.42,42.537C74.038,43.03 74.347,43.732 74.347,44.642C74.347,45.614 73.932,46.286 73.103,46.657L74.717,50.001ZM71.17,45.683L71.316,45.683C71.566,45.683 71.775,45.588 71.941,45.397C72.108,45.206 72.191,44.963 72.191,44.668C72.191,44.067 71.877,43.767 71.249,43.767L71.17,43.767L71.17,45.683Z" style="fill:rgb(44,45,48);fill-rule:nonzero;"/>
            </g>
        </g>
        <g id="text1047" transform="matrix(0.95554,0,0,1.24275,-1.5,0)">
            <path id="path1049" d="M9.942,179.327L12.779,179.327L12.779,180.09L11.803,180.09L11.803,185.798L10.948,185.798L10.948,180.09L9.942,180.09L9.942,179.327Z" style="fill:rgb(158,161,168);fill-rule:nonzero;"/>
            <path id="path1051" d="M13.257,179.327L14.405,179.327C14.88,179.327 15.234,179.44 15.466,179.667C15.759,179.96 15.906,180.409 15.906,181.012C15.906,181.476 15.828,181.849 15.671,182.131C15.517,182.41 15.297,182.584 15.009,182.651L16.199,185.798L15.315,185.798L14.129,182.63L14.129,185.798L13.257,185.798L13.257,179.327ZM14.129,182.194C14.467,182.194 14.706,182.116 14.845,181.959C14.985,181.803 15.055,181.539 15.055,181.167C15.055,180.966 15.04,180.794 15.009,180.652C14.981,180.509 14.935,180.393 14.871,180.304C14.809,180.214 14.728,180.149 14.628,180.107C14.53,180.065 14.412,180.044 14.275,180.044L14.129,180.044L14.129,182.194Z" style="fill:rgb(158,161,168);fill-rule:nonzero;"/>
            <path id="path1053" d="M16.878,179.327L19.196,179.327L19.196,180.065L17.75,180.065L17.75,182.114L19.032,182.114L19.032,182.852L17.75,182.852L17.75,185.06L19.196,185.06L19.196,185.798L16.878,185.798L16.878,179.327Z" style="fill:rgb(158,161,168);fill-rule:nonzero;"/>
            <path id="path1055" d="M20.302,179.327L21.048,179.327L21.618,181.968C21.688,182.297 21.751,182.628 21.807,182.961C21.865,183.29 21.918,183.637 21.966,184C21.971,183.953 21.976,183.916 21.978,183.891C21.981,183.863 21.984,183.844 21.987,183.833L22.108,183.091L22.217,182.387L22.314,181.921L22.821,179.327L23.575,179.327L24.17,185.798L23.336,185.798L23.19,183.602C23.184,183.49 23.178,183.394 23.173,183.313C23.17,183.232 23.169,183.165 23.169,183.112L23.131,182.244L23.11,181.448C23.11,181.442 23.109,181.431 23.106,181.414C23.106,181.395 23.104,181.369 23.102,181.339L23.081,181.469C23.058,181.622 23.037,181.756 23.018,181.871C23.001,181.986 22.986,182.082 22.972,182.16L22.863,182.751L22.821,182.973L22.276,185.798L21.689,185.798L21.178,183.359C21.108,183.038 21.045,182.712 20.989,182.382C20.936,182.05 20.887,181.702 20.843,181.339L20.591,185.798L19.77,185.798L20.302,179.327Z" style="fill:rgb(158,161,168);fill-rule:nonzero;"/>
            <path id="path1057" d="M26.668,179.327L28.986,179.327L28.986,180.065L27.54,180.065L27.54,182.114L28.822,182.114L28.822,182.852L27.54,182.852L27.54,185.06L28.986,185.06L28.986,185.798L26.668,185.798L26.668,179.327Z" style="fill:rgb(158,161,168);fill-rule:nonzero;"/>
            <path id="path1059" d="M29.346,179.327L30.193,179.327L30.641,180.58C30.817,181.075 30.922,181.437 30.956,181.666C30.986,181.523 31.02,181.385 31.056,181.251C31.095,181.117 31.136,180.983 31.178,180.849L31.236,180.66L31.651,179.327L32.531,179.327L31.333,182.512L32.531,185.798L31.651,185.798L31.224,184.566C31.137,184.32 31.067,184.099 31.014,183.904C30.961,183.708 30.923,183.535 30.901,183.384C30.879,183.571 30.841,183.75 30.788,183.921L30.641,184.382L30.566,184.625L30.193,185.798L29.271,185.798L30.495,182.512L29.346,179.327Z" style="fill:rgb(158,161,168);fill-rule:nonzero;"/>
            <path id="path1061" d="M32.489,179.327L35.327,179.327L35.327,180.09L34.35,180.09L34.35,185.798L33.495,185.798L33.495,180.09L32.489,180.09L32.489,179.327Z" style="fill:rgb(158,161,168);fill-rule:nonzero;"/>
            <path id="path1063" d="M37.887,179.327L38.633,179.327L39.203,181.968C39.273,182.297 39.336,182.628 39.392,182.961C39.451,183.29 39.504,183.637 39.551,184C39.557,183.953 39.561,183.916 39.564,183.891C39.566,183.863 39.569,183.844 39.572,183.833L39.694,183.091L39.803,182.387L39.899,181.921L40.406,179.327L41.16,179.327L41.755,185.798L40.921,185.798L40.775,183.602C40.769,183.49 40.764,183.394 40.758,183.313C40.755,183.232 40.754,183.165 40.754,183.112L40.716,182.244L40.695,181.448C40.695,181.442 40.694,181.431 40.691,181.414C40.691,181.395 40.69,181.369 40.687,181.339L40.666,181.469C40.644,181.622 40.623,181.756 40.603,181.871C40.587,181.986 40.571,182.082 40.557,182.16L40.448,182.751L40.406,182.973L39.862,185.798L39.275,185.798L38.764,183.359C38.694,183.038 38.631,182.712 38.575,182.382C38.522,182.05 38.473,181.702 38.428,181.339L38.177,185.798L37.355,185.798L37.887,179.327Z" style="fill:rgb(158,161,168);fill-rule:nonzero;"/>
            <path id="path1065" d="M45.716,182.722C45.716,183.865 45.589,184.676 45.335,185.157C45.08,185.637 44.654,185.878 44.056,185.878C43.428,185.878 42.985,185.619 42.728,185.102C42.474,184.597 42.347,183.698 42.347,182.408C42.347,181.256 42.472,180.442 42.724,179.964C42.978,179.484 43.408,179.243 44.015,179.243C44.557,179.243 44.959,179.429 45.222,179.801C45.395,180.049 45.521,180.403 45.599,180.861C45.677,181.286 45.716,181.906 45.716,182.722L45.716,182.722ZM44.802,182.814C44.802,181.694 44.752,180.951 44.652,180.585C44.551,180.216 44.346,180.031 44.036,180.031C43.725,180.031 43.519,180.2 43.415,180.538C43.315,180.879 43.264,181.564 43.264,182.592C43.264,183.539 43.317,184.196 43.424,184.562C43.533,184.908 43.737,185.081 44.036,185.081C44.329,185.081 44.53,184.919 44.639,184.595C44.748,184.274 44.802,183.68 44.802,182.814L44.802,182.814Z" style="fill:rgb(158,161,168);fill-rule:nonzero;"/>
            <path id="path1067" d="M46.584,179.327L47.657,179.327C47.983,179.327 48.259,179.364 48.482,179.436C48.689,179.506 48.873,179.63 49.035,179.809C49.278,180.077 49.452,180.427 49.555,180.857C49.658,181.273 49.71,181.87 49.71,182.646C49.71,183.359 49.653,183.94 49.538,184.39C49.427,184.82 49.242,185.148 48.985,185.375C48.669,185.657 48.104,185.798 47.288,185.798L46.584,185.798L46.584,179.327ZM47.455,185.035C47.986,185.035 48.341,184.875 48.52,184.553C48.704,184.232 48.796,183.608 48.796,182.68C48.796,181.683 48.708,180.997 48.532,180.622C48.356,180.248 48.034,180.061 47.564,180.061L47.455,180.061L47.455,185.035Z" style="fill:rgb(158,161,168);fill-rule:nonzero;"/>
        </g>
    </g>
</svg>
