<?xml version="1.0" encoding="UTF-8" standalone="no"?>
<!DOCTYPE svg PUBLIC "-//W3C//DTD SVG 1.1//EN" "http://www.w3.org/Graphics/SVG/1.1/DTD/svg11.dtd">
<svg width="100%" height="100%" viewBox="0 0 105 380" version="1.1" xmlns="http://www.w3.org/2000/svg" xmlns:xlink="http://www.w3.org/1999/xlink" xml:space="preserve" xmlns:serif="http://www.serif.com/" style="fill-rule:evenodd;clip-rule:evenodd;stroke-linecap:round;">
    <g id="Layer-2" serif:id="Layer 2">
        <g id="text989">
        </g>
        <rect id="rect4689" x="0" y="0" width="105" height="380" style="fill:rgb(44,45,48);"/>
        <g id="g1062" transform="matrix(1,0,0,1,4.3355,0)">
            <g id="text1034" transform="matrix(0.877268,0,0,1.1399,0,0)">
                <path id="path1086" d="M0.514,14.909L0.514,11.585C1.076,12.352 1.684,12.736 2.337,12.736C2.584,12.736 2.785,12.672 2.94,12.544C3.096,12.412 3.173,12.247 3.173,12.051C3.173,11.768 3.004,11.491 2.666,11.222L2.2,10.858C1.889,10.625 1.624,10.395 1.405,10.166C1.186,9.933 1.007,9.695 0.87,9.453C0.733,9.207 0.633,8.953 0.569,8.693C0.505,8.432 0.473,8.158 0.473,7.87C0.473,7.377 0.587,6.86 0.816,6.321C0.93,6.07 1.062,5.841 1.213,5.636C1.364,5.426 1.538,5.241 1.734,5.081C2.273,4.624 2.924,4.395 3.687,4.395C4.368,4.395 5.053,4.576 5.743,4.937L5.743,8.172C5.51,7.811 5.245,7.527 4.948,7.322C4.651,7.112 4.359,7.007 4.071,7.007C3.852,7.007 3.671,7.071 3.53,7.198C3.383,7.322 3.31,7.47 3.31,7.644C3.31,7.927 3.505,8.208 3.893,8.487L4.345,8.823C4.948,9.257 5.38,9.702 5.641,10.159C5.906,10.616 6.038,11.151 6.038,11.763C6.038,12.805 5.721,13.664 5.085,14.34C4.45,15.016 3.646,15.354 2.673,15.354C2.001,15.354 1.282,15.206 0.514,14.909Z" style="fill:rgb(158,161,168);fill-rule:nonzero;"/>
                <path id="path1088" d="M10.986,15.169L8.128,15.169L8.128,7.123L6.552,7.123L6.552,4.587L12.624,4.587L12.624,7.123L10.986,7.123L10.986,15.169Z" style="fill:rgb(158,161,168);fill-rule:nonzero;"/>
                <path id="path1090" d="M13.378,15.169L13.378,4.587L18.69,4.587L18.69,7.075L16.236,7.075L16.236,8.617L18.436,8.617L18.436,11.009L16.236,11.009L16.236,12.627L18.69,12.627L18.69,15.169L13.378,15.169Z" style="fill:rgb(158,161,168);fill-rule:nonzero;"/>
                <path id="path1092" d="M27.428,15.169L24.337,15.169L22.925,11.4C22.912,11.336 22.887,11.251 22.85,11.146C22.818,11.041 22.777,10.915 22.727,10.769L22.747,11.468L22.747,15.169L19.903,15.169L19.903,4.587L22.83,4.587C24.118,4.587 25.082,4.841 25.722,5.348C26.535,5.997 26.942,6.92 26.942,8.117C26.942,9.396 26.396,10.28 25.304,10.769L27.428,15.169ZM22.761,9.488L22.953,9.488C23.282,9.488 23.556,9.362 23.775,9.111C23.995,8.859 24.104,8.539 24.104,8.151C24.104,7.361 23.691,6.965 22.864,6.965L22.761,6.965L22.761,9.488Z" style="fill:rgb(158,161,168);fill-rule:nonzero;"/>
                <path id="path1094" d="M28.374,15.169L28.374,4.587L33.686,4.587L33.686,7.075L31.232,7.075L31.232,8.617L33.432,8.617L33.432,11.009L31.232,11.009L31.232,12.627L33.686,12.627L33.686,15.169L28.374,15.169Z" style="fill:rgb(158,161,168);fill-rule:nonzero;"/>
                <path id="path1096" d="M42.678,9.912C42.678,11.525 42.31,12.837 41.574,13.846C40.843,14.852 39.891,15.354 38.716,15.354C37.675,15.354 36.781,14.968 36.037,14.196C35.1,13.218 34.632,11.752 34.632,9.796C34.632,7.923 35.12,6.49 36.098,5.499C36.825,4.763 37.686,4.395 38.682,4.395C39.902,4.395 40.873,4.893 41.595,5.889C42.317,6.885 42.678,8.226 42.678,9.912ZM39.71,9.933C39.71,8.019 39.372,7.061 38.696,7.061C38.358,7.061 38.088,7.313 37.887,7.815C37.691,8.281 37.592,8.967 37.592,9.871C37.592,10.762 37.684,11.455 37.866,11.948C38.054,12.437 38.312,12.681 38.641,12.681C38.979,12.681 39.239,12.439 39.422,11.955C39.614,11.471 39.71,10.797 39.71,9.933L39.71,9.933Z" style="fill:rgb(158,161,168);fill-rule:nonzero;"/>
                <path id="path1098" d="M46.749,15.169L43.891,15.169L43.891,4.587L46.66,4.587C48.04,4.587 49.063,4.868 49.73,5.43C50.516,6.093 50.909,7.013 50.909,8.192C50.909,9.476 50.491,10.433 49.655,11.064C49.084,11.489 48.263,11.701 47.194,11.701L46.749,11.701L46.749,15.169ZM46.749,9.323L46.879,9.33C47.226,9.33 47.503,9.225 47.708,9.015C47.914,8.8 48.017,8.507 48.017,8.137C48.017,7.772 47.916,7.475 47.715,7.246C47.514,7.013 47.258,6.897 46.947,6.897L46.749,6.897L46.749,9.323Z" style="fill:rgb(158,161,168);fill-rule:nonzero;"/>
                <path id="path1100" d="M59.003,15.169L56.145,15.169L56.145,10.913L54.781,10.913L54.781,15.169L51.923,15.169L51.923,4.587L54.781,4.587L54.781,8.329L56.145,8.329L56.145,4.587L59.003,4.587L59.003,15.169Z" style="fill:rgb(158,161,168);fill-rule:nonzero;"/>
                <path id="path1102" d="M68.098,15.169L65.144,15.169L64.932,13.826L63.006,13.826L62.773,15.169L59.819,15.169L62.361,4.587L65.857,4.587L68.098,15.169ZM64.596,11.557L64.411,10.324C64.406,10.319 64.397,10.257 64.383,10.139C64.374,10.038 64.326,9.641 64.239,8.946C64.23,8.868 64.219,8.763 64.205,8.631C64.191,8.494 64.173,8.322 64.15,8.117L64.061,7.116C64.052,7.212 64.038,7.32 64.02,7.438C64.006,7.557 63.99,7.687 63.972,7.829C63.94,8.112 63.917,8.309 63.903,8.418C63.89,8.528 63.88,8.594 63.876,8.617L63.677,9.899L63.389,11.557L64.596,11.557Z" style="fill:rgb(158,161,168);fill-rule:nonzero;"/>
                <path id="path1104" d="M68.694,14.909L68.694,11.585C69.256,12.352 69.864,12.736 70.517,12.736C70.764,12.736 70.965,12.672 71.12,12.544C71.276,12.412 71.353,12.247 71.353,12.051C71.353,11.768 71.184,11.491 70.846,11.222L70.38,10.858C70.069,10.625 69.804,10.395 69.585,10.166C69.366,9.933 69.188,9.695 69.051,9.453C68.913,9.207 68.813,8.953 68.749,8.693C68.685,8.432 68.653,8.158 68.653,7.87C68.653,7.377 68.767,6.86 68.996,6.321C69.11,6.07 69.242,5.841 69.393,5.636C69.544,5.426 69.718,5.241 69.914,5.081C70.453,4.624 71.104,4.395 71.867,4.395C72.548,4.395 73.234,4.576 73.923,4.937L73.923,8.172C73.69,7.811 73.425,7.527 73.128,7.322C72.831,7.112 72.539,7.007 72.251,7.007C72.032,7.007 71.851,7.071 71.71,7.198C71.564,7.322 71.49,7.47 71.49,7.644C71.49,7.927 71.685,8.208 72.073,8.487L72.525,8.823C73.128,9.257 73.56,9.702 73.821,10.159C74.086,10.616 74.218,11.151 74.218,11.763C74.218,12.805 73.901,13.664 73.266,14.34C72.63,15.016 71.826,15.354 70.853,15.354C70.181,15.354 69.462,15.206 68.694,14.909L68.694,14.909Z" style="fill:rgb(158,161,168);fill-rule:nonzero;"/>
                <path id="path1106" d="M75.335,15.169L75.335,4.587L80.647,4.587L80.647,7.075L78.193,7.075L78.193,8.617L80.393,8.617L80.393,11.009L78.193,11.009L78.193,12.627L80.647,12.627L80.647,15.169L75.335,15.169Z" style="fill:rgb(158,161,168);fill-rule:nonzero;"/>
                <path id="path1108" d="M89.385,15.169L86.294,15.169L84.882,11.4C84.869,11.336 84.844,11.251 84.807,11.146C84.775,11.041 84.734,10.915 84.684,10.769L84.704,11.468L84.704,15.169L81.86,15.169L81.86,4.587L84.787,4.587C86.075,4.587 87.039,4.841 87.679,5.348C88.492,5.997 88.899,6.92 88.899,8.117C88.899,9.396 88.353,10.28 87.261,10.769L89.385,15.169ZM84.718,9.488L84.91,9.488C85.239,9.488 85.513,9.362 85.732,9.111C85.952,8.859 86.061,8.539 86.061,8.151C86.061,7.361 85.648,6.965 84.821,6.965L84.718,6.965L84.718,9.488Z" style="fill:rgb(158,161,168);fill-rule:nonzero;"/>
            </g>
            <g id="path1111" transform="matrix(1.09982,0,0,0.90924,0,0)">
                <path d="M86.957,22.278L73.57,22.278L78.885,15.188C79.489,14.382 79.997,13.664 80.409,13.035C80.82,12.397 81.143,11.834 81.378,11.347C81.84,10.432 82.071,9.492 82.071,8.526C82.071,7.997 81.962,7.578 81.743,7.267C81.525,6.956 81.227,6.801 80.849,6.801C80.01,6.801 79.59,7.59 79.59,9.169L79.59,9.471C79.598,9.588 79.607,9.727 79.615,9.886L74.515,9.886L74.49,9.181C74.49,7.225 75.094,5.621 76.303,4.371C77.52,3.111 79.078,2.482 80.975,2.482C82.806,2.482 84.3,3.078 85.459,4.27C86.625,5.437 87.209,6.961 87.209,8.841C87.209,10.352 86.81,11.822 86.013,13.249C85.61,13.962 85.085,14.714 84.438,15.503C83.8,16.284 83.024,17.107 82.109,17.971C82.898,17.913 83.691,17.871 84.489,17.845C85.295,17.82 86.118,17.808 86.957,17.808L86.957,22.278Z" style="fill:rgb(240,0,0);fill-rule:nonzero;"/>
            </g>
        </g>
        <g id="text80" transform="matrix(1.00498,0,0,0.995047,7.49999,4.99997)">
            <path id="path4726" d="M29.851,371.706L29.851,363.943L31.853,363.943L32.903,366.668C32.96,366.829 33.024,367.013 33.094,367.221C33.168,367.429 33.249,367.668 33.336,367.94L33.552,368.624C33.475,367.95 33.416,367.373 33.376,366.894C33.336,366.415 33.316,366.013 33.316,365.687L33.316,363.943L35.317,363.943L35.317,371.706L33.316,371.706L32.26,368.85C32.149,368.545 32.049,368.26 31.958,367.995C31.871,367.727 31.794,367.472 31.727,367.231C31.77,367.777 31.802,368.253 31.822,368.659C31.843,369.065 31.853,369.42 31.853,369.725L31.853,371.706L29.851,371.706Z" style="fill:rgb(158,161,168);fill-rule:nonzero;"/>
            <path id="path4728" d="M39.887,371.706L37.791,371.706L37.791,368.418L35.865,363.943L38.052,363.943L38.429,365.094C38.503,365.319 38.568,365.535 38.625,365.743C38.686,365.951 38.739,366.15 38.786,366.341C38.863,366.056 38.93,365.811 38.987,365.607C39.044,365.399 39.095,365.232 39.138,365.104L39.52,363.943L41.692,363.943L39.887,368.418L39.887,371.706Z" style="fill:rgb(158,161,168);fill-rule:nonzero;"/>
            <path id="path4730" d="M41.894,371.515L41.894,369.076C42.306,369.639 42.752,369.921 43.231,369.921C43.412,369.921 43.56,369.874 43.673,369.78C43.787,369.683 43.844,369.562 43.844,369.418C43.844,369.21 43.72,369.008 43.472,368.81L43.13,368.543C42.902,368.372 42.708,368.203 42.547,368.035C42.386,367.865 42.256,367.69 42.155,367.513C42.054,367.332 41.981,367.146 41.934,366.954C41.887,366.763 41.863,366.562 41.863,366.351C41.863,365.989 41.947,365.61 42.115,365.215C42.199,365.03 42.296,364.863 42.406,364.712C42.517,364.558 42.644,364.422 42.789,364.305C43.184,363.969 43.662,363.802 44.222,363.802C44.721,363.802 45.224,363.934 45.73,364.199L45.73,366.572C45.559,366.308 45.365,366.1 45.147,365.949C44.929,365.795 44.714,365.718 44.503,365.718C44.342,365.718 44.21,365.765 44.106,365.858C43.999,365.949 43.945,366.058 43.945,366.185C43.945,366.393 44.087,366.599 44.372,366.804L44.704,367.05C45.147,367.368 45.463,367.695 45.655,368.03C45.849,368.366 45.946,368.758 45.946,369.207C45.946,369.971 45.713,370.601 45.247,371.098C44.781,371.594 44.191,371.842 43.477,371.842C42.985,371.842 42.457,371.733 41.894,371.515L41.894,371.515Z" style="fill:rgb(158,161,168);fill-rule:nonzero;"/>
            <path id="path4732" d="M49.576,371.706L47.48,371.706L47.48,365.803L46.323,365.803L46.323,363.943L50.778,363.943L50.778,365.803L49.576,365.803L49.576,371.706Z" style="fill:rgb(158,161,168);fill-rule:nonzero;"/>
            <path id="path4734" d="M56.525,371.706L54.428,371.706L54.428,368.584L53.428,368.584L53.428,371.706L51.331,371.706L51.331,363.943L53.428,363.943L53.428,366.688L54.428,366.688L54.428,363.943L56.525,363.943L56.525,371.706Z" style="fill:rgb(158,161,168);fill-rule:nonzero;"/>
            <rect id="path4736" x="57.606" y="363.943" width="2.097" height="7.763" style="fill:rgb(158,161,168);fill-rule:nonzero;"/>
        </g>
        <g id="g4922" transform="matrix(0.823529,0,0,0.809511,1.05882,85.0522)">
            <rect id="rect4778" x="6" y="310" width="34" height="42" style="fill:rgb(60,60,60);"/>
            <g id="text4861">
                <path id="path4899" d="M16.849,345.271C16.849,346.139 16.609,346.83 16.13,347.344C15.651,347.858 15.009,348.115 14.203,348.115C13.411,348.115 12.781,347.852 12.313,347.328C11.847,346.8 11.615,346.092 11.615,345.203C11.615,344.314 11.852,343.601 12.328,343.062C12.8,342.521 13.427,342.25 14.208,342.25C15.031,342.25 15.677,342.519 16.146,343.057C16.615,343.595 16.849,344.333 16.849,345.271ZM14.823,345.203C14.823,344.995 14.809,344.807 14.781,344.641C14.753,344.47 14.714,344.326 14.661,344.208C14.609,344.087 14.547,343.993 14.474,343.927C14.401,343.861 14.319,343.828 14.229,343.828C14.052,343.828 13.91,343.953 13.802,344.203C13.694,344.422 13.641,344.75 13.641,345.188C13.641,345.618 13.694,345.946 13.802,346.172C13.91,346.422 14.054,346.547 14.234,346.547C14.405,346.547 14.545,346.424 14.656,346.177C14.767,345.903 14.823,345.578 14.823,345.203L14.823,345.203Z" style="fill:rgb(197,200,209);fill-rule:nonzero;"/>
                <path id="path4901" d="M17.651,342.37L19.74,342.37L19.74,345.542C19.74,345.844 19.769,346.064 19.828,346.203C19.891,346.318 20.009,346.375 20.182,346.375C20.352,346.375 20.467,346.318 20.526,346.203C20.589,346.089 20.62,345.868 20.62,345.542L20.62,342.37L22.708,342.37L22.708,345.823C22.708,346.052 22.689,346.26 22.651,346.448C22.616,346.632 22.559,346.8 22.479,346.953C22.403,347.102 22.302,347.24 22.177,347.365C22.056,347.49 21.91,347.604 21.74,347.708C21.281,347.979 20.762,348.115 20.182,348.115C19.595,348.115 19.076,347.979 18.625,347.708C18.451,347.604 18.302,347.491 18.177,347.37C18.056,347.245 17.955,347.106 17.875,346.953C17.799,346.8 17.741,346.632 17.703,346.448C17.668,346.26 17.651,346.052 17.651,345.823L17.651,342.37Z" style="fill:rgb(197,200,209);fill-rule:nonzero;"/>
                <path id="path4903" d="M26.047,348L23.953,348L23.953,344.052L23.359,344.052L23.359,342.37L23.953,342.37L23.953,340.714L26.047,340.714L26.047,342.37L26.74,342.37L26.74,344.052L26.047,344.052L26.047,348Z" style="fill:rgb(197,200,209);fill-rule:nonzero;"/>
                <path id="path4905" d="M34.385,348L30.583,348L30.583,339.958L32.755,339.958L32.755,346.068L34.385,346.068L34.385,348Z" style="fill:rgb(197,200,209);fill-rule:nonzero;"/>
            </g>
        </g>
        <g id="g4914" transform="matrix(0.823529,0,0,0.809511,29.8235,85.0523)">
            <rect id="rect4778-3" x="50" y="310" width="34" height="42" style="fill:rgb(60,60,60);"/>
            <g id="text4886">
                <path id="path4890" d="M59.891,345.271C59.891,346.139 59.651,346.83 59.172,347.344C58.693,347.858 58.05,348.115 57.245,348.115C56.453,348.115 55.823,347.852 55.354,347.328C54.889,346.8 54.656,346.092 54.656,345.203C54.656,344.314 54.894,343.601 55.37,343.062C55.842,342.521 56.469,342.25 57.25,342.25C58.073,342.25 58.719,342.519 59.187,343.057C59.656,343.595 59.891,344.333 59.891,345.271ZM57.865,345.203C57.865,344.995 57.851,344.807 57.823,344.641C57.795,344.47 57.755,344.326 57.703,344.208C57.651,344.087 57.589,343.993 57.516,343.927C57.443,343.861 57.361,343.828 57.271,343.828C57.094,343.828 56.951,343.953 56.844,344.203C56.736,344.422 56.682,344.75 56.682,345.187C56.682,345.618 56.736,345.946 56.844,346.172C56.951,346.422 57.095,346.547 57.276,346.547C57.446,346.547 57.587,346.424 57.698,346.177C57.809,345.903 57.865,345.578 57.865,345.203L57.865,345.203Z" style="fill:rgb(197,200,209);fill-rule:nonzero;"/>
                <path id="path4892" d="M60.693,342.37L62.781,342.37L62.781,345.542C62.781,345.844 62.811,346.064 62.87,346.203C62.932,346.318 63.05,346.375 63.224,346.375C63.394,346.375 63.509,346.318 63.568,346.203C63.63,346.089 63.662,345.868 63.662,345.542L63.662,342.37L65.75,342.37L65.75,345.823C65.75,346.052 65.731,346.26 65.693,346.448C65.658,346.632 65.601,346.8 65.521,346.953C65.444,347.102 65.344,347.24 65.219,347.365C65.097,347.49 64.951,347.604 64.781,347.708C64.323,347.979 63.804,348.115 63.224,348.115C62.637,348.115 62.118,347.979 61.667,347.708C61.493,347.604 61.344,347.491 61.219,347.37C61.097,347.245 60.997,347.106 60.917,346.953C60.84,346.8 60.783,346.632 60.745,346.448C60.71,346.26 60.693,346.052 60.693,345.823L60.693,342.37Z" style="fill:rgb(197,200,209);fill-rule:nonzero;"/>
                <path id="path4894" d="M69.089,348L66.995,348L66.995,344.052L66.401,344.052L66.401,342.37L66.995,342.37L66.995,340.714L69.089,340.714L69.089,342.37L69.781,342.37L69.781,344.052L69.089,344.052L69.089,348Z" style="fill:rgb(197,200,209);fill-rule:nonzero;"/>
                <path id="path4896" d="M79.344,348L76.995,348L75.922,345.135C75.912,345.087 75.892,345.023 75.865,344.943C75.84,344.863 75.809,344.767 75.771,344.656L75.786,345.187L75.786,348L73.625,348L73.625,339.958L75.849,339.958C76.828,339.958 77.561,340.151 78.047,340.536C78.665,341.029 78.974,341.731 78.974,342.641C78.974,343.613 78.559,344.285 77.729,344.656L79.344,348ZM75.797,343.682L75.943,343.682C76.193,343.682 76.401,343.587 76.568,343.396C76.734,343.205 76.818,342.962 76.818,342.667C76.818,342.066 76.503,341.766 75.875,341.766L75.797,341.766L75.797,343.682Z" style="fill:rgb(197,200,209);fill-rule:nonzero;"/>
            </g>
        </g>
        <g id="text4987">
        </g>
        <g id="text1101" transform="matrix(1,0,0,1,8.14063,46)">
            <path id="path1306" d="M10.661,102.349L11.589,102.349L12.297,105.63C12.384,106.04 12.462,106.451 12.531,106.865C12.604,107.274 12.67,107.705 12.729,108.156C12.736,108.097 12.741,108.052 12.745,108.021C12.748,107.986 12.752,107.962 12.755,107.948L12.906,107.026L13.042,106.151L13.161,105.573L13.792,102.349L14.729,102.349L15.469,110.391L14.432,110.391L14.25,107.661C14.243,107.523 14.236,107.403 14.229,107.302C14.226,107.201 14.224,107.118 14.224,107.052L14.177,105.974L14.151,104.984C14.151,104.977 14.149,104.963 14.146,104.943C14.146,104.919 14.144,104.887 14.141,104.849L14.115,105.01C14.087,105.201 14.061,105.368 14.036,105.51C14.016,105.653 13.997,105.773 13.979,105.87L13.844,106.604L13.792,106.88L13.115,110.391L12.385,110.391L11.75,107.359C11.663,106.96 11.585,106.556 11.516,106.146C11.45,105.733 11.389,105.3 11.333,104.849L11.021,110.391L10,110.391L10.661,102.349Z" style="fill:rgb(158,161,168);fill-rule:nonzero;"/>
            <path id="path1308" d="M20.391,106.568C20.391,107.988 20.233,108.997 19.917,109.594C19.601,110.191 19.071,110.49 18.328,110.49C17.547,110.49 16.997,110.168 16.677,109.526C16.361,108.898 16.203,107.781 16.203,106.177C16.203,104.747 16.359,103.734 16.672,103.141C16.988,102.543 17.523,102.245 18.276,102.245C18.95,102.245 19.45,102.476 19.776,102.937C19.991,103.247 20.148,103.686 20.245,104.255C20.342,104.783 20.391,105.554 20.391,106.568L20.391,106.568ZM19.255,106.682C19.255,105.29 19.193,104.366 19.068,103.911C18.943,103.453 18.688,103.224 18.302,103.224C17.917,103.224 17.66,103.434 17.531,103.854C17.406,104.278 17.344,105.128 17.344,106.406C17.344,107.583 17.41,108.399 17.542,108.854C17.677,109.285 17.931,109.5 18.302,109.5C18.667,109.5 18.917,109.299 19.052,108.896C19.188,108.497 19.255,107.759 19.255,106.682L19.255,106.682Z" style="fill:rgb(158,161,168);fill-rule:nonzero;"/>
            <path id="path1310" d="M21.469,102.349L22.802,102.349C23.208,102.349 23.55,102.394 23.828,102.484C24.085,102.571 24.314,102.726 24.516,102.948C24.818,103.281 25.033,103.715 25.161,104.25C25.29,104.767 25.354,105.509 25.354,106.474C25.354,107.359 25.283,108.082 25.141,108.641C25.002,109.175 24.773,109.583 24.453,109.865C24.061,110.215 23.358,110.391 22.344,110.391L21.469,110.391L21.469,102.349ZM22.552,109.443C23.212,109.443 23.653,109.243 23.875,108.844C24.104,108.444 24.219,107.668 24.219,106.516C24.219,105.276 24.109,104.424 23.891,103.958C23.672,103.493 23.271,103.26 22.688,103.26L22.552,103.26L22.552,109.443Z" style="fill:rgb(158,161,168);fill-rule:nonzero;"/>
            <path id="path1312" d="M28.635,102.349L31.531,102.349L31.531,103.266L29.719,103.266L29.719,105.807L31.354,105.807L31.354,106.724L29.719,106.724L29.719,110.391L28.635,110.391L28.635,102.349Z" style="fill:rgb(158,161,168);fill-rule:nonzero;"/>
            <path id="path1314" d="M32.365,102.349L33.792,102.349C34.382,102.349 34.821,102.49 35.109,102.771C35.474,103.135 35.656,103.693 35.656,104.443C35.656,105.019 35.559,105.483 35.365,105.833C35.174,106.181 34.899,106.396 34.542,106.479L36.021,110.391L34.922,110.391L33.448,106.453L33.448,110.391L32.365,110.391L32.365,102.349ZM33.448,105.911C33.868,105.911 34.165,105.814 34.339,105.62C34.512,105.425 34.599,105.097 34.599,104.635C34.599,104.385 34.58,104.172 34.542,103.995C34.507,103.818 34.45,103.674 34.37,103.562C34.293,103.451 34.193,103.37 34.068,103.318C33.946,103.266 33.8,103.24 33.63,103.24L33.448,103.24L33.448,105.911Z" style="fill:rgb(158,161,168);fill-rule:nonzero;"/>
            <path id="path1316" d="M36.865,102.349L39.745,102.349L39.745,103.266L37.948,103.266L37.948,105.812L39.542,105.812L39.542,106.729L37.948,106.729L37.948,109.474L39.745,109.474L39.745,110.391L36.865,110.391L36.865,102.349Z" style="fill:rgb(158,161,168);fill-rule:nonzero;"/>
            <path id="path1318" d="M44.995,110.51L44.313,111L43.76,110.214C43.431,110.398 43.082,110.49 42.714,110.49C41.932,110.49 41.38,110.16 41.057,109.5C40.738,108.819 40.578,107.681 40.578,106.083C40.578,104.688 40.734,103.7 41.047,103.12C41.359,102.536 41.889,102.245 42.635,102.245C43.42,102.245 43.972,102.566 44.292,103.208C44.608,103.837 44.766,104.951 44.766,106.552C44.766,108 44.615,109.005 44.313,109.568L44.995,110.51ZM43.078,107.839L43.526,108.474C43.599,107.96 43.635,107.38 43.635,106.734C43.635,105.352 43.569,104.418 43.437,103.932C43.306,103.464 43.043,103.229 42.651,103.229C42.283,103.229 42.035,103.429 41.906,103.828C41.778,104.21 41.714,104.981 41.714,106.141C41.714,107.443 41.779,108.332 41.911,108.807C42.043,109.262 42.3,109.49 42.682,109.49C42.835,109.49 42.981,109.441 43.12,109.344L42.432,108.354L43.078,107.839Z" style="fill:rgb(158,161,168);fill-rule:nonzero;"/>
        </g>
        <g id="text1126" transform="matrix(0.948629,0,0,0.948629,6.71684,52.672)">
            <path id="path1289" d="M10.661,125.859L11.589,125.859L12.297,129.141C12.384,129.55 12.462,129.962 12.531,130.375C12.604,130.785 12.67,131.215 12.729,131.667C12.736,131.608 12.741,131.562 12.745,131.531C12.748,131.497 12.752,131.472 12.755,131.458L12.906,130.536L13.042,129.661L13.161,129.083L13.792,125.859L14.729,125.859L15.469,133.901L14.432,133.901L14.25,131.172C14.243,131.033 14.236,130.913 14.229,130.813C14.226,130.712 14.224,130.629 14.224,130.563L14.177,129.484L14.151,128.495C14.151,128.488 14.149,128.474 14.146,128.453C14.146,128.429 14.144,128.398 14.141,128.359L14.115,128.521C14.087,128.712 14.061,128.879 14.036,129.021C14.016,129.163 13.997,129.283 13.979,129.38L13.844,130.115L13.792,130.391L13.115,133.901L12.385,133.901L11.75,130.87C11.663,130.47 11.585,130.066 11.516,129.656C11.45,129.243 11.389,128.811 11.333,128.359L11.021,133.901L10,133.901L10.661,125.859Z" style="fill:rgb(158,161,168);fill-rule:nonzero;"/>
            <path id="path1291" d="M20.391,130.078C20.391,131.498 20.233,132.507 19.917,133.104C19.601,133.701 19.071,134 18.328,134C17.547,134 16.997,133.679 16.677,133.036C16.361,132.408 16.203,131.292 16.203,129.688C16.203,128.257 16.359,127.245 16.672,126.651C16.988,126.054 17.523,125.755 18.276,125.755C18.95,125.755 19.45,125.986 19.776,126.448C19.991,126.757 20.148,127.196 20.245,127.766C20.342,128.293 20.391,129.064 20.391,130.078L20.391,130.078ZM19.255,130.193C19.255,128.8 19.193,127.877 19.068,127.422C18.943,126.964 18.688,126.734 18.302,126.734C17.917,126.734 17.66,126.944 17.531,127.365C17.406,127.788 17.344,128.639 17.344,129.917C17.344,131.094 17.41,131.91 17.542,132.365C17.677,132.795 17.931,133.01 18.302,133.01C18.667,133.01 18.917,132.809 19.052,132.406C19.188,132.007 19.255,131.269 19.255,130.193L19.255,130.193Z" style="fill:rgb(158,161,168);fill-rule:nonzero;"/>
            <path id="path1293" d="M21.469,125.859L22.802,125.859C23.208,125.859 23.55,125.905 23.828,125.995C24.085,126.082 24.314,126.236 24.516,126.458C24.818,126.792 25.033,127.226 25.161,127.76C25.29,128.278 25.354,129.019 25.354,129.984C25.354,130.87 25.283,131.592 25.141,132.151C25.002,132.686 24.773,133.094 24.453,133.375C24.061,133.726 23.358,133.901 22.344,133.901L21.469,133.901L21.469,125.859ZM22.552,132.953C23.212,132.953 23.653,132.753 23.875,132.354C24.104,131.955 24.219,131.179 24.219,130.026C24.219,128.786 24.109,127.934 23.891,127.469C23.672,127.003 23.271,126.771 22.688,126.771L22.552,126.771L22.552,132.953Z" style="fill:rgb(158,161,168);fill-rule:nonzero;"/>
            <path id="path1295" d="M28.635,125.859L29.969,125.859C30.375,125.859 30.717,125.905 30.995,125.995C31.252,126.082 31.481,126.236 31.682,126.458C31.984,126.792 32.2,127.226 32.328,127.76C32.457,128.278 32.521,129.019 32.521,129.984C32.521,130.87 32.45,131.592 32.307,132.151C32.168,132.686 31.939,133.094 31.62,133.375C31.227,133.726 30.524,133.901 29.51,133.901L28.635,133.901L28.635,125.859ZM29.719,132.953C30.378,132.953 30.819,132.753 31.042,132.354C31.271,131.955 31.385,131.179 31.385,130.026C31.385,128.786 31.276,127.934 31.057,127.469C30.839,127.003 30.438,126.771 29.854,126.771L29.719,126.771L29.719,132.953Z" style="fill:rgb(158,161,168);fill-rule:nonzero;"/>
            <path id="path1297" d="M33.594,125.859L36.474,125.859L36.474,126.776L34.677,126.776L34.677,129.323L36.271,129.323L36.271,130.24L34.677,130.24L34.677,132.984L36.474,132.984L36.474,133.901L33.594,133.901L33.594,125.859Z" style="fill:rgb(158,161,168);fill-rule:nonzero;"/>
            <path id="path1299" d="M37.469,125.859L38.896,125.859C39.583,125.859 40.083,126.033 40.396,126.38C40.708,126.731 40.865,127.286 40.865,128.047C40.865,129.116 40.55,129.807 39.922,130.12C39.606,130.262 39.149,130.333 38.552,130.333L38.552,133.901L37.469,133.901L37.469,125.859ZM38.552,129.406C39,129.406 39.309,129.316 39.479,129.135C39.653,128.951 39.74,128.625 39.74,128.156C39.74,127.677 39.656,127.326 39.49,127.104C39.323,126.882 39.061,126.771 38.703,126.771L38.552,126.771L38.552,129.406Z" style="fill:rgb(158,161,168);fill-rule:nonzero;"/>
            <path id="path1301" d="M41.057,125.859L44.583,125.859L44.583,126.807L43.37,126.807L43.37,133.901L42.307,133.901L42.307,126.807L41.057,126.807L41.057,125.859Z" style="fill:rgb(158,161,168);fill-rule:nonzero;"/>
            <path id="path1303" d="M45.177,125.859L46.26,125.859L46.26,129.005L47.849,129.005L47.849,125.859L48.932,125.859L48.932,133.901L47.849,133.901L47.849,129.922L46.26,129.922L46.26,133.901L45.177,133.901L45.177,125.859Z" style="fill:rgb(158,161,168);fill-rule:nonzero;"/>
        </g>
        <g id="text1151" transform="matrix(1,0,0,1,4.23438,23)">
            <path id="path1270" d="M10,171.859L11.427,171.859C12.017,171.859 12.457,172 12.745,172.281C13.109,172.646 13.292,173.203 13.292,173.953C13.292,174.53 13.194,174.993 13,175.344C12.809,175.691 12.535,175.906 12.177,175.99L13.656,179.901L12.557,179.901L11.083,175.964L11.083,179.901L10,179.901L10,171.859ZM11.083,175.422C11.503,175.422 11.8,175.325 11.974,175.13C12.148,174.936 12.234,174.608 12.234,174.146C12.234,173.896 12.215,173.682 12.177,173.505C12.142,173.328 12.085,173.184 12.005,173.073C11.929,172.962 11.828,172.88 11.703,172.828C11.582,172.776 11.436,172.75 11.266,172.75L11.083,172.75L11.083,175.422Z" style="fill:rgb(158,161,168);fill-rule:nonzero;"/>
            <path id="path1272" d="M14.5,171.859L17.38,171.859L17.38,172.776L15.583,172.776L15.583,175.323L17.177,175.323L17.177,176.24L15.583,176.24L15.583,178.984L17.38,178.984L17.38,179.901L14.5,179.901L14.5,171.859Z" style="fill:rgb(158,161,168);fill-rule:nonzero;"/>
            <path id="path1274" d="M21.057,172.026L21.057,173.083C20.727,172.847 20.431,172.729 20.167,172.729C19.882,172.729 19.649,172.83 19.469,173.031C19.288,173.222 19.198,173.477 19.198,173.797C19.198,174.078 19.262,174.319 19.391,174.521C19.457,174.628 19.564,174.767 19.714,174.938C19.866,175.108 20.062,175.312 20.302,175.552C20.743,176 21.043,176.387 21.203,176.714C21.363,177.03 21.443,177.417 21.443,177.875C21.443,178.497 21.267,179.009 20.917,179.411C20.566,179.804 20.116,180 19.568,180C19.106,180 18.712,179.873 18.385,179.62L18.385,178.547C18.771,178.828 19.122,178.969 19.437,178.969C19.733,178.969 19.964,178.872 20.13,178.677C20.297,178.479 20.38,178.212 20.38,177.875C20.38,177.583 20.316,177.321 20.187,177.089C20.122,176.977 20.03,176.851 19.911,176.708C19.793,176.562 19.646,176.401 19.469,176.224C19.194,175.953 18.967,175.714 18.786,175.505C18.606,175.297 18.472,175.115 18.385,174.958C18.219,174.653 18.135,174.267 18.135,173.802C18.135,173.174 18.299,172.675 18.625,172.307C18.955,171.936 19.398,171.75 19.953,171.75C20.339,171.75 20.707,171.842 21.057,172.026L21.057,172.026Z" style="fill:rgb(158,161,168);fill-rule:nonzero;"/>
            <path id="path1276" d="M26.38,176.078C26.38,177.498 26.222,178.507 25.906,179.104C25.59,179.701 25.061,180 24.318,180C23.536,180 22.986,179.679 22.667,179.036C22.351,178.408 22.193,177.292 22.193,175.688C22.193,174.257 22.349,173.245 22.661,172.651C22.977,172.054 23.512,171.755 24.266,171.755C24.939,171.755 25.439,171.986 25.766,172.448C25.981,172.757 26.137,173.196 26.234,173.766C26.332,174.293 26.38,175.064 26.38,176.078ZM25.245,176.193C25.245,174.8 25.182,173.877 25.057,173.422C24.932,172.964 24.677,172.734 24.292,172.734C23.906,172.734 23.649,172.944 23.521,173.365C23.396,173.788 23.333,174.639 23.333,175.917C23.333,177.094 23.399,177.91 23.531,178.365C23.667,178.795 23.92,179.01 24.292,179.01C24.656,179.01 24.906,178.809 25.042,178.406C25.177,178.007 25.245,177.269 25.245,176.193L25.245,176.193Z" style="fill:rgb(158,161,168);fill-rule:nonzero;"/>
            <path id="path1278" d="M27.458,171.859L28.469,171.859L29.547,175.068C29.859,175.974 30.135,176.941 30.375,177.969C30.288,177.347 30.224,176.785 30.182,176.281C30.141,175.778 30.12,175.304 30.12,174.859L30.12,171.859L31.208,171.859L31.208,179.901L30.193,179.901L28.979,176.281C28.868,175.944 28.762,175.599 28.661,175.245C28.564,174.891 28.474,174.519 28.391,174.13C28.384,174.082 28.372,174.023 28.354,173.953C28.34,173.884 28.323,173.804 28.302,173.714C28.312,173.804 28.321,173.882 28.328,173.948C28.335,174.01 28.34,174.064 28.344,174.109L28.401,174.927L28.458,175.922C28.462,175.977 28.464,176.045 28.464,176.125C28.467,176.205 28.469,176.295 28.469,176.396L28.526,179.901L27.458,179.901L27.458,171.859Z" style="fill:rgb(158,161,168);fill-rule:nonzero;"/>
            <path id="path1280" d="M33.75,171.859L34.594,171.859L36.318,179.901L35.245,179.901L34.943,178.333L33.349,178.333L33.042,179.901L32,179.901L33.75,171.859ZM34.786,177.495L34.547,176.214C34.387,175.342 34.257,174.411 34.156,173.422C34.108,173.905 34.045,174.394 33.969,174.891C33.892,175.384 33.802,175.908 33.698,176.464L33.5,177.495L34.786,177.495Z" style="fill:rgb(158,161,168);fill-rule:nonzero;"/>
            <path id="path1282" d="M36.958,171.859L37.969,171.859L39.047,175.068C39.359,175.974 39.635,176.941 39.875,177.969C39.788,177.347 39.724,176.785 39.682,176.281C39.641,175.778 39.62,175.304 39.62,174.859L39.62,171.859L40.708,171.859L40.708,179.901L39.693,179.901L38.479,176.281C38.368,175.944 38.262,175.599 38.161,175.245C38.064,174.891 37.974,174.519 37.891,174.13C37.884,174.082 37.871,174.023 37.854,173.953C37.84,173.884 37.823,173.804 37.802,173.714C37.813,173.804 37.821,173.882 37.828,173.948C37.835,174.01 37.841,174.064 37.844,174.109L37.901,174.927L37.958,175.922C37.962,175.977 37.964,176.045 37.964,176.125C37.967,176.205 37.969,176.295 37.969,176.396L38.026,179.901L36.958,179.901L36.958,171.859Z" style="fill:rgb(158,161,168);fill-rule:nonzero;"/>
            <path id="path1284" d="M45.115,171.99L45.115,172.964C44.837,172.828 44.604,172.76 44.417,172.76C44.16,172.76 43.939,172.825 43.755,172.953C43.571,173.078 43.418,173.273 43.297,173.536C43.179,173.8 43.09,174.135 43.031,174.542C42.976,174.944 42.948,175.422 42.948,175.974C42.948,177.96 43.457,178.953 44.474,178.953C44.651,178.953 44.865,178.898 45.115,178.786L45.115,179.781C44.854,179.927 44.562,180 44.24,180C42.611,180 41.797,178.67 41.797,176.01C41.797,174.573 41.995,173.503 42.391,172.802C42.79,172.101 43.399,171.75 44.219,171.75C44.521,171.75 44.819,171.83 45.115,171.99L45.115,171.99Z" style="fill:rgb(158,161,168);fill-rule:nonzero;"/>
            <path id="path1286" d="M46.021,171.859L48.901,171.859L48.901,172.776L47.104,172.776L47.104,175.323L48.698,175.323L48.698,176.24L47.104,176.24L47.104,178.984L48.901,178.984L48.901,179.901L46.021,179.901L46.021,171.859Z" style="fill:rgb(158,161,168);fill-rule:nonzero;"/>
        </g>
        <g id="text1155" transform="matrix(1,0,0,1,22.8385,23)">
            <path id="path1259" d="M10,194.958L11.333,194.958C11.74,194.958 12.082,195.003 12.359,195.094C12.616,195.181 12.845,195.335 13.047,195.557C13.349,195.891 13.564,196.325 13.693,196.859C13.821,197.377 13.885,198.118 13.885,199.083C13.885,199.969 13.814,200.691 13.672,201.25C13.533,201.785 13.304,202.193 12.984,202.474C12.592,202.825 11.889,203 10.875,203L10,203L10,194.958ZM11.083,202.052C11.743,202.052 12.184,201.852 12.406,201.453C12.635,201.054 12.75,200.278 12.75,199.125C12.75,197.885 12.641,197.033 12.422,196.568C12.203,196.102 11.802,195.87 11.219,195.87L11.083,195.87L11.083,202.052Z" style="fill:rgb(158,161,168);fill-rule:nonzero;"/>
            <path id="path1261" d="M14.958,194.958L17.839,194.958L17.839,195.875L16.042,195.875L16.042,198.422L17.635,198.422L17.635,199.339L16.042,199.339L16.042,202.083L17.839,202.083L17.839,203L14.958,203L14.958,194.958Z" style="fill:rgb(158,161,168);fill-rule:nonzero;"/>
            <path id="path1263" d="M18.833,194.958L20.26,194.958C20.948,194.958 21.448,195.132 21.76,195.479C22.073,195.83 22.229,196.385 22.229,197.146C22.229,198.215 21.915,198.906 21.286,199.219C20.97,199.361 20.514,199.432 19.917,199.432L19.917,203L18.833,203L18.833,194.958ZM19.917,198.505C20.365,198.505 20.674,198.415 20.844,198.234C21.017,198.05 21.104,197.724 21.104,197.255C21.104,196.776 21.021,196.425 20.854,196.203C20.688,195.981 20.425,195.87 20.068,195.87L19.917,195.87L19.917,198.505Z" style="fill:rgb(158,161,168);fill-rule:nonzero;"/>
            <path id="path1265" d="M22.422,194.958L25.948,194.958L25.948,195.906L24.734,195.906L24.734,203L23.672,203L23.672,195.906L22.422,195.906L22.422,194.958Z" style="fill:rgb(158,161,168);fill-rule:nonzero;"/>
            <path id="path1267" d="M26.542,194.958L27.625,194.958L27.625,198.104L29.214,198.104L29.214,194.958L30.297,194.958L30.297,203L29.214,203L29.214,199.021L27.625,199.021L27.625,203L26.542,203L26.542,194.958Z" style="fill:rgb(158,161,168);fill-rule:nonzero;"/>
        </g>
        <g id="text1159" transform="matrix(1,0,0,1,3.54688,51)">
            <path id="path1240" d="M10,217.958L11.469,217.958C12.618,217.958 13.193,218.672 13.193,220.099C13.193,220.644 13.118,221.049 12.969,221.312C12.819,221.576 12.556,221.776 12.177,221.911C12.611,222.085 12.908,222.307 13.068,222.578C13.231,222.845 13.313,223.248 13.313,223.786C13.313,225.262 12.681,226 11.417,226L10,226L10,217.958ZM11.021,221.5C11.441,221.5 11.733,221.403 11.896,221.208C12.059,221.003 12.141,220.644 12.141,220.13C12.141,219.262 11.828,218.828 11.203,218.828L11.12,218.828L11.073,218.828C11.045,218.828 11.028,218.83 11.021,218.833L11.021,221.5ZM11.021,225.073C11.465,225.073 11.773,224.977 11.943,224.786C12.113,224.595 12.198,224.25 12.198,223.75C12.198,223.236 12.109,222.877 11.932,222.672C11.759,222.464 11.455,222.359 11.021,222.359L11.021,225.073Z" style="fill:rgb(158,161,168);fill-rule:nonzero;"/>
            <path id="path1242" d="M15.583,217.958L16.427,217.958L18.151,226L17.078,226L16.776,224.432L15.182,224.432L14.875,226L13.833,226L15.583,217.958ZM16.62,223.594L16.38,222.312C16.22,221.441 16.09,220.51 15.99,219.521C15.941,220.003 15.878,220.493 15.802,220.99C15.726,221.483 15.635,222.007 15.531,222.562L15.333,223.594L16.62,223.594Z" style="fill:rgb(158,161,168);fill-rule:nonzero;"/>
            <path id="path1244" d="M18.792,217.958L19.802,217.958L20.88,221.167C21.193,222.073 21.469,223.04 21.708,224.068C21.622,223.446 21.557,222.884 21.516,222.38C21.474,221.877 21.453,221.403 21.453,220.958L21.453,217.958L22.542,217.958L22.542,226L21.526,226L20.313,222.38C20.201,222.043 20.095,221.698 19.995,221.344C19.898,220.99 19.807,220.618 19.724,220.229C19.717,220.181 19.705,220.122 19.687,220.052C19.674,219.983 19.656,219.903 19.635,219.813C19.646,219.903 19.654,219.981 19.661,220.047C19.668,220.109 19.674,220.163 19.677,220.208L19.734,221.026L19.792,222.021C19.795,222.076 19.797,222.144 19.797,222.224C19.8,222.304 19.802,222.394 19.802,222.495L19.859,226L18.792,226L18.792,217.958Z" style="fill:rgb(158,161,168);fill-rule:nonzero;"/>
            <path id="path1246" d="M23.792,217.958L25.125,217.958C25.531,217.958 25.873,218.003 26.151,218.094C26.408,218.181 26.637,218.335 26.839,218.557C27.141,218.891 27.356,219.325 27.484,219.859C27.613,220.377 27.677,221.118 27.677,222.083C27.677,222.969 27.606,223.691 27.464,224.25C27.325,224.785 27.095,225.193 26.776,225.474C26.384,225.825 25.681,226 24.667,226L23.792,226L23.792,217.958ZM24.875,225.052C25.535,225.052 25.976,224.852 26.198,224.453C26.427,224.054 26.542,223.278 26.542,222.125C26.542,220.885 26.432,220.033 26.214,219.568C25.995,219.102 25.594,218.87 25.01,218.87L24.875,218.87L24.875,225.052Z" style="fill:rgb(158,161,168);fill-rule:nonzero;"/>
            <path id="path1248" d="M28.125,217.958L29.172,217.958L29.719,221.693L29.807,222.245C29.849,222.543 29.88,222.816 29.901,223.062L29.958,223.745C29.962,223.762 29.965,223.793 29.969,223.839C29.972,223.884 29.977,223.941 29.984,224.01L30.01,223.75C30.052,223.295 30.095,222.877 30.141,222.495C30.189,222.113 30.241,221.76 30.297,221.438L30.875,217.958L31.708,217.958L32.25,221.339C32.33,221.839 32.396,222.302 32.448,222.729C32.503,223.156 32.549,223.564 32.583,223.953C32.618,223.543 32.656,223.148 32.698,222.766C32.743,222.384 32.79,222.009 32.839,221.641L32.917,221.104L33.38,217.958L34.417,217.958L32.995,226L32.151,226L31.583,222.526C31.58,222.512 31.571,222.455 31.557,222.354C31.543,222.253 31.523,222.109 31.495,221.922L31.385,221.12C31.378,221.057 31.366,220.964 31.349,220.839C31.335,220.714 31.319,220.556 31.302,220.365L31.276,220.031C31.269,220.111 31.262,220.181 31.255,220.24C31.248,220.299 31.243,220.347 31.24,220.385C31.222,220.615 31.207,220.793 31.193,220.922C31.182,221.047 31.175,221.123 31.172,221.151L31.063,221.922C31.038,222.099 31.019,222.238 31.005,222.339C30.991,222.439 30.981,222.502 30.974,222.526L30.385,226L29.516,226L28.125,217.958Z" style="fill:rgb(158,161,168);fill-rule:nonzero;"/>
            <rect id="path1250" x="35.063" y="217.958" width="1.083" height="8.042" style="fill:rgb(158,161,168);fill-rule:nonzero;"/>
            <path id="path1252" d="M37.396,217.958L38.729,217.958C39.135,217.958 39.477,218.003 39.755,218.094C40.012,218.181 40.241,218.335 40.443,218.557C40.745,218.891 40.96,219.325 41.089,219.859C41.217,220.377 41.281,221.118 41.281,222.083C41.281,222.969 41.21,223.691 41.068,224.25C40.929,224.785 40.7,225.193 40.38,225.474C39.988,225.825 39.285,226 38.271,226L37.396,226L37.396,217.958ZM38.479,225.052C39.139,225.052 39.58,224.852 39.802,224.453C40.031,224.054 40.146,223.278 40.146,222.125C40.146,220.885 40.036,220.033 39.818,219.568C39.599,219.102 39.198,218.87 38.615,218.87L38.479,218.87L38.479,225.052Z" style="fill:rgb(158,161,168);fill-rule:nonzero;"/>
            <path id="path1254" d="M41.714,217.958L45.24,217.958L45.24,218.906L44.026,218.906L44.026,226L42.964,226L42.964,218.906L41.714,218.906L41.714,217.958Z" style="fill:rgb(158,161,168);fill-rule:nonzero;"/>
            <path id="path1256" d="M45.833,217.958L46.917,217.958L46.917,221.104L48.505,221.104L48.505,217.958L49.589,217.958L49.589,226L48.505,226L48.505,222.021L46.917,222.021L46.917,226L45.833,226L45.833,217.958Z" style="fill:rgb(158,161,168);fill-rule:nonzero;"/>
        </g>
        <g id="text1184" transform="matrix(1,0,0,1,-0.38541,51)">
            <path id="path1219" d="M13.318,240.479L13.318,241.453C13.04,241.318 12.807,241.25 12.62,241.25C12.363,241.25 12.142,241.314 11.958,241.443C11.774,241.568 11.622,241.762 11.5,242.026C11.382,242.29 11.293,242.625 11.234,243.031C11.179,243.434 11.151,243.911 11.151,244.464C11.151,246.45 11.66,247.443 12.677,247.443C12.854,247.443 13.068,247.387 13.318,247.276L13.318,248.271C13.057,248.417 12.766,248.49 12.443,248.49C10.814,248.49 10,247.16 10,244.5C10,243.063 10.198,241.993 10.594,241.292C10.993,240.59 11.602,240.24 12.422,240.24C12.724,240.24 13.023,240.319 13.318,240.479L13.318,240.479Z" style="fill:rgb(158,161,168);fill-rule:nonzero;"/>
            <path id="path1221" d="M14.224,240.349L17.104,240.349L17.104,241.266L15.307,241.266L15.307,243.813L16.901,243.813L16.901,244.729L15.307,244.729L15.307,247.474L17.104,247.474L17.104,248.391L14.224,248.391L14.224,240.349Z" style="fill:rgb(158,161,168);fill-rule:nonzero;"/>
            <path id="path1223" d="M18.099,240.349L19.109,240.349L20.188,243.557C20.5,244.464 20.776,245.431 21.016,246.458C20.929,245.837 20.865,245.274 20.823,244.771C20.781,244.267 20.76,243.793 20.76,243.349L20.76,240.349L21.849,240.349L21.849,248.391L20.833,248.391L19.62,244.771C19.509,244.434 19.403,244.089 19.302,243.734C19.205,243.38 19.115,243.009 19.031,242.62C19.024,242.571 19.012,242.512 18.995,242.443C18.981,242.373 18.964,242.293 18.943,242.203C18.953,242.293 18.962,242.372 18.969,242.438C18.976,242.5 18.981,242.554 18.984,242.599L19.042,243.417L19.099,244.411C19.102,244.467 19.104,244.535 19.104,244.615C19.108,244.694 19.109,244.785 19.109,244.885L19.167,248.391L18.099,248.391L18.099,240.349Z" style="fill:rgb(158,161,168);fill-rule:nonzero;"/>
            <path id="path1225" d="M22.458,240.349L25.984,240.349L25.984,241.297L24.771,241.297L24.771,248.391L23.708,248.391L23.708,241.297L22.458,241.297L22.458,240.349Z" style="fill:rgb(158,161,168);fill-rule:nonzero;"/>
            <path id="path1227" d="M26.578,240.349L29.458,240.349L29.458,241.266L27.661,241.266L27.661,243.813L29.255,243.813L29.255,244.729L27.661,244.729L27.661,247.474L29.458,247.474L29.458,248.391L26.578,248.391L26.578,240.349Z" style="fill:rgb(158,161,168);fill-rule:nonzero;"/>
            <path id="path1229" d="M30.453,240.349L31.88,240.349C32.47,240.349 32.91,240.49 33.198,240.771C33.563,241.135 33.745,241.693 33.745,242.443C33.745,243.019 33.648,243.483 33.453,243.833C33.262,244.181 32.988,244.396 32.63,244.479L34.109,248.391L33.01,248.391L31.536,244.453L31.536,248.391L30.453,248.391L30.453,240.349ZM31.536,243.911C31.957,243.911 32.253,243.814 32.427,243.62C32.601,243.425 32.688,243.097 32.688,242.635C32.688,242.385 32.668,242.172 32.63,241.995C32.595,241.818 32.538,241.674 32.458,241.563C32.382,241.451 32.281,241.37 32.156,241.318C32.035,241.266 31.889,241.24 31.719,241.24L31.536,241.24L31.536,243.911Z" style="fill:rgb(158,161,168);fill-rule:nonzero;"/>
            <path id="path1231" d="M37.161,240.349L40.057,240.349L40.057,241.266L38.245,241.266L38.245,243.807L39.88,243.807L39.88,244.724L38.245,244.724L38.245,248.391L37.161,248.391L37.161,240.349Z" style="fill:rgb(158,161,168);fill-rule:nonzero;"/>
            <path id="path1233" d="M40.891,240.349L42.318,240.349C42.908,240.349 43.347,240.49 43.635,240.771C44,241.135 44.182,241.693 44.182,242.443C44.182,243.019 44.085,243.483 43.891,243.833C43.7,244.181 43.425,244.396 43.068,244.479L44.547,248.391L43.448,248.391L41.974,244.453L41.974,248.391L40.891,248.391L40.891,240.349ZM41.974,243.911C42.394,243.911 42.691,243.814 42.865,243.62C43.038,243.425 43.125,243.097 43.125,242.635C43.125,242.385 43.106,242.172 43.068,241.995C43.033,241.818 42.976,241.674 42.896,241.563C42.819,241.451 42.719,241.37 42.594,241.318C42.472,241.266 42.326,241.24 42.156,241.24L41.974,241.24L41.974,243.911Z" style="fill:rgb(158,161,168);fill-rule:nonzero;"/>
            <path id="path1235" d="M45.391,240.349L48.271,240.349L48.271,241.266L46.474,241.266L46.474,243.813L48.068,243.813L48.068,244.729L46.474,244.729L46.474,247.474L48.271,247.474L48.271,248.391L45.391,248.391L45.391,240.349Z" style="fill:rgb(158,161,168);fill-rule:nonzero;"/>
            <path id="path1237" d="M53.521,248.51L52.839,249L52.286,248.214C51.957,248.398 51.608,248.49 51.24,248.49C50.458,248.49 49.906,248.16 49.583,247.5C49.264,246.819 49.104,245.681 49.104,244.083C49.104,242.688 49.26,241.7 49.573,241.12C49.885,240.536 50.415,240.245 51.161,240.245C51.946,240.245 52.498,240.566 52.818,241.208C53.134,241.837 53.292,242.951 53.292,244.552C53.292,246 53.141,247.005 52.839,247.568L53.521,248.51ZM51.604,245.839L52.052,246.474C52.125,245.96 52.161,245.38 52.161,244.734C52.161,243.352 52.095,242.418 51.964,241.932C51.832,241.464 51.569,241.229 51.177,241.229C50.809,241.229 50.561,241.429 50.432,241.828C50.304,242.21 50.24,242.981 50.24,244.141C50.24,245.443 50.306,246.332 50.438,246.807C50.569,247.262 50.826,247.49 51.208,247.49C51.361,247.49 51.507,247.441 51.646,247.344L50.958,246.354L51.604,245.839Z" style="fill:rgb(158,161,168);fill-rule:nonzero;"/>
        </g>
        <g id="text1192" transform="matrix(0.906858,0,0,1,-5.93316,29)">
            <path id="path1194" d="M10,79.859L12.88,79.859L12.88,80.776L11.083,80.776L11.083,83.323L12.677,83.323L12.677,84.24L11.083,84.24L11.083,86.984L12.88,86.984L12.88,87.901L10,87.901L10,79.859Z" style="fill:rgb(158,161,168);fill-rule:nonzero;"/>
            <path id="path1196" d="M13.328,79.859L14.38,79.859L14.938,81.417C15.156,82.031 15.286,82.481 15.328,82.766C15.366,82.589 15.408,82.417 15.453,82.25C15.502,82.083 15.552,81.917 15.604,81.75L15.677,81.516L16.193,79.859L17.286,79.859L15.797,83.818L17.286,87.901L16.193,87.901L15.661,86.37C15.554,86.064 15.467,85.79 15.401,85.547C15.335,85.304 15.288,85.089 15.26,84.901C15.233,85.134 15.186,85.356 15.12,85.568L14.938,86.141L14.844,86.443L14.38,87.901L13.234,87.901L14.755,83.818L13.328,79.859Z" style="fill:rgb(158,161,168);fill-rule:nonzero;"/>
            <path id="path1198" d="M17.234,79.859L20.76,79.859L20.76,80.807L19.547,80.807L19.547,87.901L18.484,87.901L18.484,80.807L17.234,80.807L17.234,79.859Z" style="fill:rgb(158,161,168);fill-rule:nonzero;"/>
            <path id="path1200" d="M23.943,79.859L24.87,79.859L25.578,83.141C25.665,83.55 25.743,83.962 25.813,84.375C25.885,84.785 25.951,85.215 26.01,85.667C26.017,85.608 26.023,85.562 26.026,85.531C26.03,85.497 26.033,85.472 26.036,85.458L26.188,84.536L26.323,83.661L26.443,83.083L27.073,79.859L28.01,79.859L28.75,87.901L27.714,87.901L27.531,85.172C27.524,85.033 27.517,84.913 27.51,84.812C27.507,84.712 27.505,84.628 27.505,84.562L27.458,83.484L27.432,82.495C27.432,82.488 27.431,82.474 27.427,82.453C27.427,82.429 27.425,82.398 27.422,82.359L27.396,82.521C27.368,82.712 27.342,82.878 27.318,83.021C27.297,83.163 27.278,83.283 27.26,83.38L27.125,84.115L27.073,84.391L26.396,87.901L25.667,87.901L25.031,84.87C24.944,84.47 24.866,84.066 24.797,83.656C24.731,83.243 24.67,82.811 24.615,82.359L24.302,87.901L23.281,87.901L23.943,79.859Z" style="fill:rgb(158,161,168);fill-rule:nonzero;"/>
            <path id="path1202" d="M33.672,84.078C33.672,85.498 33.514,86.507 33.198,87.104C32.882,87.701 32.352,88 31.609,88C30.828,88 30.278,87.679 29.958,87.036C29.642,86.408 29.484,85.292 29.484,83.687C29.484,82.257 29.641,81.245 29.953,80.651C30.269,80.054 30.804,79.755 31.557,79.755C32.231,79.755 32.731,79.986 33.057,80.448C33.273,80.757 33.429,81.196 33.526,81.766C33.623,82.293 33.672,83.064 33.672,84.078L33.672,84.078ZM32.536,84.193C32.536,82.8 32.474,81.877 32.349,81.422C32.224,80.964 31.969,80.734 31.583,80.734C31.198,80.734 30.941,80.944 30.813,81.365C30.688,81.788 30.625,82.639 30.625,83.917C30.625,85.094 30.691,85.91 30.823,86.365C30.958,86.795 31.212,87.01 31.583,87.01C31.948,87.01 32.198,86.809 32.333,86.406C32.469,86.007 32.536,85.269 32.536,84.193L32.536,84.193Z" style="fill:rgb(158,161,168);fill-rule:nonzero;"/>
            <path id="path1204" d="M34.75,79.859L36.083,79.859C36.49,79.859 36.832,79.905 37.109,79.995C37.366,80.082 37.595,80.236 37.797,80.458C38.099,80.792 38.314,81.226 38.443,81.76C38.571,82.278 38.635,83.019 38.635,83.984C38.635,84.87 38.564,85.592 38.422,86.151C38.283,86.686 38.054,87.094 37.734,87.375C37.342,87.726 36.639,87.901 35.625,87.901L34.75,87.901L34.75,79.859ZM35.833,86.953C36.493,86.953 36.934,86.753 37.156,86.354C37.385,85.955 37.5,85.179 37.5,84.026C37.5,82.786 37.391,81.934 37.172,81.469C36.953,81.003 36.552,80.771 35.969,80.771L35.833,80.771L35.833,86.953Z" style="fill:rgb(158,161,168);fill-rule:nonzero;"/>
            <path id="path1206" d="M39.708,79.859L40.771,79.859L40.771,85.542C40.771,86.122 40.823,86.507 40.927,86.698C41.035,86.889 41.247,86.984 41.562,86.984C41.878,86.984 42.087,86.901 42.187,86.734C42.292,86.564 42.344,86.219 42.344,85.698L42.344,79.859L43.406,79.859L43.406,85.698C43.406,86.573 43.273,87.165 43.005,87.474C42.686,87.825 42.198,88 41.542,88C40.819,88 40.311,87.774 40.016,87.323C39.811,87.014 39.708,86.42 39.708,85.542L39.708,79.859Z" style="fill:rgb(158,161,168);fill-rule:nonzero;"/>
            <path id="path1208" d="M44.646,79.859L45.729,79.859L45.729,86.984L47.5,86.984L47.5,87.901L44.646,87.901L44.646,79.859Z" style="fill:rgb(158,161,168);fill-rule:nonzero;"/>
            <path id="path1210" d="M49.771,79.859L50.615,79.859L52.339,87.901L51.266,87.901L50.964,86.333L49.37,86.333L49.063,87.901L48.021,87.901L49.771,79.859ZM50.807,85.495L50.568,84.214C50.408,83.342 50.278,82.411 50.177,81.422C50.128,81.905 50.066,82.394 49.99,82.891C49.913,83.384 49.823,83.908 49.719,84.464L49.521,85.495L50.807,85.495Z" style="fill:rgb(158,161,168);fill-rule:nonzero;"/>
            <path id="path1212" d="M52.172,79.859L55.698,79.859L55.698,80.807L54.484,80.807L54.484,87.901L53.422,87.901L53.422,80.807L52.172,80.807L52.172,79.859Z" style="fill:rgb(158,161,168);fill-rule:nonzero;"/>
            <path id="path1214" d="M60.401,84.078C60.401,85.498 60.243,86.507 59.927,87.104C59.611,87.701 59.082,88 58.339,88C57.557,88 57.007,87.679 56.688,87.036C56.372,86.408 56.214,85.292 56.214,83.687C56.214,82.257 56.37,81.245 56.682,80.651C56.998,80.054 57.533,79.755 58.286,79.755C58.96,79.755 59.46,79.986 59.786,80.448C60.002,80.757 60.158,81.196 60.255,81.766C60.352,82.293 60.401,83.064 60.401,84.078L60.401,84.078ZM59.266,84.193C59.266,82.8 59.203,81.877 59.078,81.422C58.953,80.964 58.698,80.734 58.313,80.734C57.927,80.734 57.67,80.944 57.542,81.365C57.417,81.788 57.354,82.639 57.354,83.917C57.354,85.094 57.42,85.91 57.552,86.365C57.688,86.795 57.941,87.01 58.313,87.01C58.677,87.01 58.927,86.809 59.063,86.406C59.198,86.007 59.266,85.269 59.266,84.193Z" style="fill:rgb(158,161,168);fill-rule:nonzero;"/>
            <path id="path1216" d="M61.479,79.859L62.906,79.859C63.497,79.859 63.936,80 64.224,80.281C64.589,80.646 64.771,81.203 64.771,81.953C64.771,82.53 64.674,82.993 64.479,83.344C64.288,83.691 64.014,83.906 63.656,83.99L65.135,87.901L64.036,87.901L62.563,83.964L62.563,87.901L61.479,87.901L61.479,79.859ZM62.563,83.422C62.983,83.422 63.28,83.325 63.453,83.13C63.627,82.936 63.714,82.608 63.714,82.146C63.714,81.896 63.694,81.682 63.656,81.505C63.622,81.328 63.564,81.184 63.484,81.073C63.408,80.962 63.307,80.88 63.182,80.828C63.061,80.776 62.915,80.75 62.745,80.75L62.562,80.75L62.563,83.422Z" style="fill:rgb(158,161,168);fill-rule:nonzero;"/>
        </g>
        <g id="text1351" transform="matrix(1,0,0,1,0,8.99999)">
            <path id="path1368" d="M10.879,233.836L10.082,233.836L10.074,233.598C10.074,232.939 10.173,232.475 10.371,232.207C10.572,231.936 10.908,231.801 11.379,231.801C12.267,231.801 12.711,232.293 12.711,233.277C12.711,233.941 12.379,234.898 11.715,236.148L11.234,237.051C11.232,237.056 11.224,237.072 11.211,237.098C11.198,237.124 11.18,237.161 11.156,237.211L12.648,237.211L12.648,237.906L10,237.906C10.044,237.807 10.137,237.611 10.277,237.316C10.418,237.022 10.609,236.625 10.852,236.125C11.057,235.687 11.229,235.316 11.367,235.012C11.505,234.707 11.609,234.457 11.68,234.262C11.82,233.871 11.891,233.534 11.891,233.25C11.891,232.75 11.717,232.5 11.371,232.5C11.038,232.5 10.871,232.81 10.871,233.43L10.875,233.773L10.879,233.836Z" style="fill:rgb(158,161,168);fill-rule:nonzero;"/>
            <path id="path1370" d="M16.031,234.937C16.031,236.021 15.927,236.802 15.719,237.281C15.513,237.745 15.163,237.977 14.668,237.977C14.173,237.977 13.822,237.743 13.613,237.277C13.408,236.824 13.305,236.029 13.305,234.891C13.305,233.753 13.408,232.957 13.613,232.504C13.819,232.035 14.169,231.801 14.664,231.801C15.122,231.801 15.461,232.007 15.68,232.418C15.914,232.853 16.031,233.693 16.031,234.937L16.031,234.937ZM15.203,234.937C15.203,234.026 15.164,233.396 15.086,233.047C15.008,232.701 14.866,232.527 14.66,232.527C14.454,232.527 14.311,232.699 14.23,233.043C14.152,233.387 14.113,234.005 14.113,234.898C14.113,235.792 14.152,236.411 14.23,236.758C14.311,237.102 14.454,237.273 14.66,237.273C14.863,237.273 15.004,237.103 15.082,236.762C15.163,236.436 15.203,235.828 15.203,234.937L15.203,234.937Z" style="fill:rgb(158,161,168);fill-rule:nonzero;"/>
            <path id="path1372" d="M16.789,231.875L17.602,231.875L17.602,234.234L18.793,234.234L18.793,231.875L19.605,231.875L19.605,237.906L18.793,237.906L18.793,234.922L17.602,234.922L17.602,237.906L16.789,237.906L16.789,231.875Z" style="fill:rgb(158,161,168);fill-rule:nonzero;"/>
            <path id="path1374" d="M20.305,233.863L22.652,233.863L21.301,237.23L22.582,237.23L22.582,237.906L20.195,237.906L21.594,234.523L20.305,234.523L20.305,233.863Z" style="fill:rgb(158,161,168);fill-rule:nonzero;"/>
        </g>
        <g id="text951" transform="matrix(1,0,0,1,0,8.99999)">
            <path id="path953" d="M79,231.898L80.375,231.898L80.375,237.93L79.598,237.93L79.598,232.59L79,232.59L79,231.898Z" style="fill:rgb(158,161,168);fill-rule:nonzero;"/>
            <path id="path955" d="M84.211,234.961C84.211,236.044 84.107,236.826 83.898,237.305C83.693,237.768 83.342,238 82.848,238C82.353,238 82.001,237.767 81.793,237.301C81.587,236.848 81.484,236.052 81.484,234.914C81.484,233.776 81.587,232.98 81.793,232.527C81.999,232.059 82.349,231.824 82.844,231.824C83.302,231.824 83.641,232.03 83.859,232.441C84.094,232.876 84.211,233.716 84.211,234.961L84.211,234.961ZM83.383,234.961C83.383,234.049 83.344,233.419 83.266,233.07C83.187,232.724 83.046,232.551 82.84,232.551C82.634,232.551 82.491,232.723 82.41,233.066C82.332,233.41 82.293,234.029 82.293,234.922C82.293,235.815 82.332,236.435 82.41,236.781C82.491,237.125 82.634,237.297 82.84,237.297C83.043,237.297 83.184,237.126 83.262,236.785C83.342,236.46 83.383,235.852 83.383,234.961L83.383,234.961Z" style="fill:rgb(158,161,168);fill-rule:nonzero;"/>
            <path id="path957" d="M84.926,231.293L85.672,231.293L85.672,235.688L86.621,233.887L87.465,233.887L86.434,235.688L87.602,237.93L86.727,237.93L85.672,235.781L85.672,237.93L84.926,237.93L84.926,231.293Z" style="fill:rgb(158,161,168);fill-rule:nonzero;"/>
            <path id="path959" d="M88.094,231.898L88.906,231.898L88.906,234.258L90.098,234.258L90.098,231.898L90.91,231.898L90.91,237.93L90.098,237.93L90.098,234.945L88.906,234.945L88.906,237.93L88.094,237.93L88.094,231.898Z" style="fill:rgb(158,161,168);fill-rule:nonzero;"/>
            <path id="path961" d="M91.609,233.887L93.957,233.887L92.605,237.254L93.887,237.254L93.887,237.93L91.5,237.93L92.898,234.547L91.609,234.547L91.609,233.887Z" style="fill:rgb(158,161,168);fill-rule:nonzero;"/>
        </g>
        <path id="path969" d="M7.602,110.409C8.29,109.575 8.801,108.575 9.196,107.571C9.611,106.741 9.785,105.827 10.123,104.971C10.329,104.547 10.391,104.078 10.545,103.636C10.753,103.13 11.165,102.778 11.486,102.356C11.785,101.965 12.145,101.649 12.567,101.401C14.132,100.518 15.697,99.635 17.262,98.753C17.32,98.721 17.492,98.624 17.435,98.657C16.003,99.475 11.62,101.756 13.137,101.109C15.115,100.266 16.451,98.84 18.39,98.302C18.979,98.113 19.576,97.987 20.191,97.872C20.514,97.802 20.844,97.773 21.173,97.738L16.96,100.868C16.652,100.902 16.346,100.949 16.043,101.012C15.442,101.14 14.855,101.312 14.27,101.498C13.875,101.646 13.737,101.697 13.74,101.696C15.158,100.858 19.474,98.451 18.019,99.223C18.015,99.225 5.942,106.136 17.441,99.48C17.202,99.677 17.082,99.667 16.864,99.805C16.661,99.934 16.474,100.154 16.293,100.313C16.056,100.573 16.16,100.428 15.987,100.749C15.938,100.807 15.855,100.826 15.801,100.878C15.61,101.058 15.403,101.246 15.326,101.502C14.988,101.867 15.064,102.373 14.871,102.808C14.838,102.868 14.566,103.366 14.557,103.39C14.302,104.056 14.211,104.791 13.831,105.413C13.698,105.792 13.548,106.256 13.371,106.618C13.079,107.218 12.65,107.758 12.451,108.4L7.602,110.409L7.602,110.409Z" style="fill:white;fill-opacity:0;fill-rule:nonzero;"/>
        <path id="path2432" d="M8.502,135.412C8.513,135.378 8.524,135.345 8.534,135.311C8.545,135.277 8.556,135.244 8.566,135.21C8.577,135.177 8.588,135.143 8.599,135.11C8.609,135.076 8.62,135.043 8.631,135.009C8.641,134.976 8.652,134.943 8.663,134.909C8.673,134.876 8.684,134.843 8.695,134.809C8.706,134.776 8.716,134.743 8.727,134.71C8.738,134.677 8.749,134.644 8.759,134.611C8.77,134.578 8.781,134.545 8.791,134.512C8.802,134.479 8.813,134.447 8.823,134.414C8.834,134.381 8.845,134.349 8.856,134.317C8.866,134.285 8.877,134.252 8.888,134.22C8.898,134.188 8.909,134.156 8.92,134.124C8.93,134.092 8.941,134.06 8.952,134.029C8.963,133.997 8.973,133.966 8.984,133.934C8.995,133.903 9.006,133.872 9.016,133.841C9.027,133.81 9.038,133.779 9.048,133.748C9.059,133.718 9.07,133.687 9.08,133.657C9.091,133.627 9.102,133.596 9.113,133.566C9.123,133.537 9.134,133.507 9.145,133.477C9.155,133.447 9.166,133.418 9.177,133.389C9.187,133.359 9.198,133.331 9.209,133.302C9.22,133.273 9.23,133.245 9.241,133.216C9.252,133.188 9.263,133.16 9.273,133.132C9.284,133.104 9.295,133.076 9.305,133.049C9.316,133.022 9.327,132.994 9.337,132.967C9.348,132.941 9.359,132.914 9.37,132.887C9.38,132.861 9.391,132.835 9.402,132.809C9.412,132.783 9.423,132.757 9.434,132.732C9.444,132.707 9.455,132.681 9.466,132.657C9.477,132.632 9.487,132.607 9.498,132.583C9.509,132.558 9.52,132.535 9.53,132.511C9.541,132.487 9.552,132.464 9.562,132.441C9.573,132.418 9.584,132.395 9.594,132.373C9.605,132.35 9.616,132.328 9.627,132.306C9.637,132.284 9.648,132.263 9.659,132.241C9.669,132.22 9.68,132.199 9.691,132.179C9.701,132.158 9.712,132.138 9.723,132.118C9.734,132.098 9.745,132.079 9.755,132.059C9.766,132.04 9.777,132.022 9.787,132.003C9.798,131.984 9.809,131.966 9.819,131.948C9.83,131.93 9.841,131.912 9.851,131.896C9.862,131.879 9.873,131.861 9.884,131.845C9.894,131.829 9.905,131.812 9.916,131.797C9.926,131.781 9.937,131.766 9.948,131.751C9.958,131.736 9.969,131.721 9.98,131.707C9.991,131.693 10.002,131.679 10.012,131.666C10.023,131.652 10.034,131.639 10.044,131.626C10.055,131.614 10.066,131.601 10.076,131.59C10.087,131.578 10.098,131.566 10.108,131.555C10.119,131.544 10.13,131.533 10.141,131.523C10.151,131.512 10.162,131.502 10.173,131.493C10.183,131.483 10.194,131.474 10.205,131.465C10.215,131.456 10.226,131.448 10.237,131.44C10.248,131.432 10.259,131.425 10.269,131.417C10.28,131.41 10.291,131.403 10.301,131.397C10.312,131.391 10.323,131.385 10.333,131.379C10.344,131.374 10.355,131.368 10.365,131.364C10.376,131.36 10.387,131.355 10.398,131.351C10.408,131.347 10.419,131.344 10.43,131.341C10.44,131.338 10.451,131.335 10.462,131.332C10.472,131.33 10.483,131.329 10.494,131.327C10.505,131.326 10.516,131.325 10.526,131.324C10.537,131.323 10.548,131.323 10.558,131.323C10.569,131.324 10.58,131.324 10.59,131.325C10.601,131.326 10.612,131.328 10.622,131.329C10.633,131.331 10.644,131.333 10.655,131.336C10.665,131.339 10.676,131.341 10.687,131.346C10.697,131.349 10.708,131.353 10.719,131.358C10.729,131.361 10.74,131.367 10.751,131.372C10.762,131.377 10.773,131.383 10.783,131.388C10.794,131.393 10.805,131.4 10.815,131.407C10.826,131.414 10.837,131.421 10.847,131.428C10.858,131.436 10.869,131.444 10.879,131.453C10.89,131.461 10.901,131.47 10.912,131.479C10.922,131.488 10.933,131.497 10.944,131.508C10.954,131.518 10.965,131.528 10.976,131.539C10.986,131.55 10.997,131.561 11.008,131.572C11.019,131.584 11.03,131.596 11.04,131.608C11.051,131.621 11.062,131.634 11.072,131.646C11.083,131.659 11.094,131.672 11.104,131.687C11.115,131.7 11.126,131.715 11.137,131.729C11.147,131.744 11.158,131.759 11.169,131.774C11.179,131.789 11.19,131.805 11.201,131.821C11.211,131.837 11.222,131.854 11.233,131.871C11.243,131.887 11.254,131.905 11.265,131.922C11.276,131.939 11.287,131.958 11.297,131.976C11.308,131.994 11.319,132.012 11.329,132.031C11.34,132.05 11.351,132.069 11.361,132.089C11.372,132.108 11.383,132.128 11.394,132.149C11.404,132.169 11.415,132.19 11.426,132.21C11.436,132.232 11.447,132.253 11.458,132.274C11.468,132.296 11.479,132.317 11.49,132.34C11.5,132.362 11.511,132.384 11.522,132.407C11.533,132.43 11.544,132.453 11.554,132.476C11.565,132.5 11.576,132.523 11.586,132.547C11.597,132.572 11.608,132.596 11.618,132.62C11.629,132.645 11.64,132.669 11.651,132.695C11.661,132.72 11.672,132.745 11.683,132.771C11.693,132.796 11.704,132.822 11.715,132.848C11.725,132.875 11.736,132.901 11.747,132.928C11.757,132.955 11.768,132.981 11.779,133.009C11.79,133.036 11.801,133.063 11.811,133.091C11.822,133.118 11.833,133.146 11.843,133.174C11.854,133.202 11.865,133.231 11.875,133.259C11.886,133.288 11.897,133.317 11.908,133.346C11.918,133.374 11.929,133.404 11.94,133.433C11.95,133.463 11.961,133.492 11.972,133.522C11.982,133.552 11.993,133.582 12.004,133.612C12.014,133.642 12.025,133.672 12.036,133.703C12.047,133.733 12.058,133.764 12.068,133.795C12.079,133.826 12.09,133.857 12.1,133.888C12.111,133.919 12.122,133.95 12.132,133.982C12.143,134.013 12.154,134.045 12.165,134.077C12.175,134.108 12.186,134.14 12.197,134.172C12.207,134.204 12.218,134.236 12.229,134.269C12.239,134.301 12.25,134.333 12.261,134.366C12.271,134.399 12.282,134.431 12.293,134.463C12.304,134.496 12.315,134.529 12.325,134.562C12.336,134.595 12.347,134.628 12.357,134.661C12.368,134.694 12.379,134.727 12.389,134.76C12.4,134.793 12.411,134.826 12.422,134.86C12.432,134.893 12.443,134.926 12.454,134.96C12.464,134.993 12.475,135.026 12.486,135.06C12.496,135.093 12.507,135.127 12.518,135.16C12.529,135.194 12.539,135.227 12.55,135.261C12.561,135.294 12.572,135.328 12.582,135.362C12.593,135.395 12.604,135.429 12.614,135.462C12.625,135.496 12.636,135.529 12.646,135.563C12.657,135.597 12.668,135.63 12.679,135.664C12.689,135.697 12.7,135.731 12.711,135.764C12.721,135.798 12.732,135.831 12.743,135.864C12.753,135.898 12.764,135.931 12.775,135.964C12.786,135.998 12.796,136.031 12.807,136.064C12.818,136.097 12.829,136.13 12.839,136.163C12.85,136.197 12.861,136.229 12.871,136.262C12.882,136.295 12.893,136.328 12.903,136.36C12.914,136.393 12.925,136.426 12.936,136.458C12.946,136.491 12.957,136.523 12.968,136.555C12.978,136.587 12.989,136.62 13,136.652C13.01,136.683 13.021,136.715 13.032,136.747C13.043,136.779 13.053,136.81 13.064,136.842C13.075,136.873 13.086,136.905 13.096,136.936C13.107,136.967 13.118,136.998 13.128,137.029C13.139,137.06 13.15,137.09 13.16,137.121C13.171,137.152 13.182,137.182 13.193,137.212C13.203,137.242 13.214,137.272 13.225,137.302C13.235,137.332 13.246,137.361 13.257,137.391C13.267,137.42 13.278,137.449 13.289,137.478C13.3,137.507 13.31,137.536 13.321,137.565C13.332,137.593 13.343,137.621 13.353,137.649C13.364,137.677 13.375,137.705 13.385,137.733C13.396,137.761 13.407,137.788 13.417,137.815C13.428,137.843 13.439,137.869 13.45,137.896C13.46,137.923 13.471,137.949 13.482,137.975C13.492,138.001 13.503,138.027 13.514,138.053C13.524,138.079 13.535,138.104 13.546,138.129C13.557,138.155 13.567,138.179 13.578,138.204C13.589,138.228 13.6,138.252 13.61,138.276C13.621,138.301 13.632,138.324 13.642,138.348C13.653,138.371 13.664,138.394 13.674,138.417C13.685,138.439 13.696,138.462 13.707,138.484C13.717,138.506 13.728,138.528 13.739,138.55C13.749,138.571 13.76,138.592 13.771,138.613C13.781,138.635 13.792,138.655 13.803,138.675C13.814,138.696 13.825,138.715 13.835,138.735C13.846,138.755 13.857,138.774 13.867,138.793C13.878,138.811 13.889,138.83 13.899,138.848C13.91,138.866 13.921,138.884 13.931,138.902C13.942,138.919 13.953,138.937 13.964,138.953C13.974,138.97 13.985,138.986 13.996,139.002C14.006,139.018 14.017,139.034 14.028,139.05C14.038,139.065 14.049,139.08 14.06,139.095C14.071,139.109 14.082,139.123 14.092,139.137C14.103,139.151 14.114,139.164 14.124,139.178C14.135,139.191 14.146,139.203 14.156,139.215C14.167,139.228 14.178,139.24 14.188,139.251C14.199,139.263 14.21,139.274 14.221,139.285C14.231,139.296 14.242,139.306 14.253,139.316C14.263,139.326 14.274,139.336 14.285,139.345C14.295,139.354 14.306,139.363 14.317,139.371C14.328,139.38 14.339,139.387 14.349,139.395C14.36,139.403 14.371,139.41 14.381,139.417C14.392,139.424 14.403,139.43 14.413,139.436C14.424,139.441 14.435,139.448 14.445,139.452C14.456,139.457 14.467,139.462 14.478,139.466C14.488,139.47 14.499,139.475 14.51,139.478C14.52,139.481 14.531,139.485 14.542,139.488C14.552,139.49 14.563,139.492 14.574,139.495C14.585,139.497 14.596,139.498 14.606,139.499C14.617,139.5 14.628,139.5 14.638,139.5C14.649,139.501 14.66,139.5 14.67,139.5C14.681,139.499 14.692,139.498 14.702,139.497C14.713,139.495 14.724,139.493 14.735,139.491C14.745,139.489 14.756,139.487 14.767,139.483C14.777,139.48 14.788,139.476 14.799,139.472C14.809,139.469 14.82,139.464 14.831,139.46C14.842,139.455 14.853,139.449 14.863,139.444C14.874,139.44 14.885,139.433 14.895,139.427C14.906,139.421 14.917,139.414 14.927,139.406C14.938,139.399 14.949,139.392 14.959,139.384C14.97,139.375 14.981,139.367 14.992,139.358C15.002,139.349 15.013,139.34 15.024,139.331C15.034,139.321 15.045,139.311 15.056,139.301C15.066,139.29 15.077,139.28 15.088,139.269C15.099,139.257 15.11,139.246 15.12,139.234C15.131,139.222 15.142,139.209 15.152,139.197C15.163,139.184 15.174,139.172 15.184,139.158C15.195,139.145 15.206,139.131 15.217,139.117C15.227,139.103 15.238,139.088 15.249,139.073C15.259,139.058 15.27,139.043 15.281,139.027C15.291,139.011 15.302,138.995 15.313,138.979C15.323,138.962 15.334,138.945 15.345,138.928C15.356,138.912 15.367,138.893 15.377,138.876C15.388,138.858 15.399,138.84 15.409,138.821C15.42,138.803 15.431,138.784 15.441,138.764C15.452,138.745 15.463,138.726 15.474,138.706C15.484,138.686 15.495,138.666 15.506,138.645C15.516,138.624 15.527,138.604 15.538,138.582C15.548,138.561 15.559,138.54 15.57,138.518C15.58,138.496 15.591,138.474 15.602,138.451C15.613,138.429 15.624,138.406 15.634,138.383C15.645,138.359 15.656,138.336 15.666,138.313C15.677,138.289 15.688,138.265 15.698,138.241C15.709,138.216 15.72,138.192 15.731,138.167C15.741,138.142 15.752,138.117 15.763,138.092C15.773,138.067 15.784,138.041 15.795,138.015C15.805,137.989 15.816,137.963 15.827,137.936C15.837,137.91 15.848,137.883 15.859,137.856C15.87,137.83 15.881,137.802 15.891,137.775C15.902,137.748 15.913,137.72 15.923,137.692C15.934,137.664 15.945,137.636 15.955,137.608C15.966,137.579 15.977,137.551 15.988,137.522C15.998,137.493 16.009,137.464 16.02,137.435C16.03,137.405 16.041,137.376 16.052,137.347C16.062,137.317 16.073,137.287 16.084,137.257C16.094,137.227 16.105,137.197 16.116,137.167C16.127,137.137 16.138,137.106 16.148,137.075C16.159,137.045 16.17,137.014 16.18,136.983C16.191,136.952 16.202,136.921 16.212,136.889C16.223,136.858 16.234,136.827 16.245,136.795C16.255,136.764 16.266,136.732 16.277,136.7C16.287,136.668 16.298,136.636 16.309,136.604C16.319,136.572 16.33,136.539 16.341,136.507C16.351,136.475 16.362,136.442 16.373,136.41C16.384,136.377 16.395,136.344 16.405,136.311C16.416,136.279 16.427,136.246 16.437,136.213C16.448,136.18 16.459,136.147 16.469,136.114C16.48,136.081 16.491,136.048 16.502,136.014C16.512,135.981 16.523,135.948 16.534,135.915C16.544,135.881 16.555,135.848 16.566,135.814C16.576,135.781 16.587,135.748 16.598,135.714C16.609,135.68 16.619,135.647 16.63,135.614C16.641,135.58 16.652,135.546 16.662,135.513C16.673,135.479 16.684,135.446 16.694,135.412" style="fill:none;fill-rule:nonzero;stroke:rgb(158,161,168);stroke-width:1.6px;"/>
        <path id="path2603" d="M20.504,135.59L22.578,132.574L26.733,139.048L28.78,135.59" style="fill:none;stroke:rgb(158,161,168);stroke-width:1.6px;"/>
        <path id="path2605" d="M44.477,136.505L44.477,131.978L48.689,131.978L48.763,139.523L52.856,139.523L52.856,134.996" style="fill:none;stroke:rgb(158,161,168);stroke-width:1.6px;stroke-linecap:butt;"/>
        <path id="path2607" d="M40.636,139.493L32.497,132.684L32.497,139.493" style="fill:none;stroke:rgb(158,161,168);stroke-width:1.6px;"/>
        <g id="text2687" transform="matrix(1,0,0,1,-41,30)">
            <path id="path2736" d="M49.191,29.02L49.191,29.812C48.944,29.635 48.721,29.547 48.523,29.547C48.31,29.547 48.135,29.622 48,29.773C47.865,29.917 47.797,30.108 47.797,30.348C47.797,30.559 47.845,30.74 47.941,30.891C47.991,30.971 48.072,31.076 48.184,31.203C48.298,31.331 48.445,31.484 48.625,31.664C48.956,32 49.181,32.29 49.301,32.535C49.421,32.772 49.48,33.062 49.48,33.406C49.48,33.872 49.349,34.257 49.086,34.559C48.823,34.853 48.486,35 48.074,35C47.728,35 47.432,34.905 47.188,34.715L47.188,33.91C47.477,34.121 47.74,34.227 47.977,34.227C48.198,34.227 48.371,34.154 48.496,34.008C48.621,33.859 48.684,33.659 48.684,33.406C48.684,33.188 48.635,32.991 48.539,32.816C48.49,32.733 48.421,32.638 48.332,32.531C48.243,32.422 48.133,32.301 48,32.168C47.794,31.965 47.624,31.785 47.488,31.629C47.353,31.473 47.253,31.336 47.188,31.219C47.063,30.99 47,30.701 47,30.352C47,29.88 47.122,29.507 47.367,29.23C47.615,28.952 47.947,28.812 48.363,28.812C48.652,28.812 48.928,28.882 49.191,29.02L49.191,29.02Z" style="fill:rgb(158,161,168);fill-rule:nonzero;"/>
            <path id="path2738" d="M49.777,28.895L52.422,28.895L52.422,29.605L51.512,29.605L51.512,34.926L50.715,34.926L50.715,29.605L49.777,29.605L49.777,28.895Z" style="fill:rgb(158,161,168);fill-rule:nonzero;"/>
            <path id="path2740" d="M53.617,28.895L54.25,28.895L55.543,34.926L54.738,34.926L54.512,33.75L53.316,33.75L53.086,34.926L52.305,34.926L53.617,28.895ZM54.395,33.121L54.215,32.16C54.095,31.507 53.997,30.809 53.922,30.066C53.885,30.428 53.839,30.796 53.781,31.168C53.724,31.538 53.656,31.931 53.578,32.348L53.43,33.121L54.395,33.121Z" style="fill:rgb(158,161,168);fill-rule:nonzero;"/>
            <path id="path2742" d="M57.453,31.754L58.93,31.754L58.93,31.988C58.93,33.163 58.827,33.956 58.621,34.367C58.418,34.789 58.038,35 57.48,35C56.905,35 56.495,34.766 56.25,34.297C56.008,33.828 55.887,33.04 55.887,31.934C55.887,30.668 56.02,29.826 56.285,29.406C56.535,29.013 56.919,28.816 57.437,28.816C57.833,28.816 58.142,28.911 58.363,29.102C58.587,29.294 58.762,29.611 58.887,30.051L58.129,30.367C58.095,30.208 58.057,30.076 58.016,29.969C57.974,29.859 57.928,29.775 57.879,29.715C57.78,29.592 57.632,29.531 57.434,29.531C57.163,29.531 56.978,29.698 56.879,30.031C56.78,30.38 56.73,31.007 56.73,31.91C56.73,32.824 56.781,33.443 56.883,33.766C56.984,34.089 57.176,34.25 57.457,34.25C57.715,34.25 57.896,34.135 58,33.906C58.107,33.661 58.16,33.268 58.16,32.727L58.16,32.562L58.16,32.441L57.453,32.441L57.453,31.754Z" style="fill:rgb(158,161,168);fill-rule:nonzero;"/>
            <path id="path2744" d="M59.742,28.895L61.902,28.895L61.902,29.582L60.555,29.582L60.555,31.492L61.75,31.492L61.75,32.18L60.555,32.18L60.555,34.238L61.902,34.238L61.902,34.926L59.742,34.926L59.742,28.895Z" style="fill:rgb(158,161,168);fill-rule:nonzero;"/>
            <path id="path2746" d="M64.66,29.02L64.66,29.812C64.413,29.635 64.19,29.547 63.992,29.547C63.779,29.547 63.604,29.622 63.469,29.773C63.333,29.917 63.266,30.108 63.266,30.348C63.266,30.559 63.314,30.74 63.41,30.891C63.46,30.971 63.54,31.076 63.652,31.203C63.767,31.331 63.914,31.484 64.094,31.664C64.424,32 64.65,32.29 64.77,32.535C64.889,32.772 64.949,33.062 64.949,33.406C64.949,33.872 64.818,34.257 64.555,34.559C64.292,34.853 63.954,35 63.543,35C63.197,35 62.901,34.905 62.656,34.715L62.656,33.91C62.945,34.121 63.208,34.227 63.445,34.227C63.667,34.227 63.84,34.154 63.965,34.008C64.09,33.859 64.152,33.659 64.152,33.406C64.152,33.188 64.104,32.991 64.008,32.816C63.958,32.733 63.889,32.638 63.801,32.531C63.712,32.422 63.602,32.301 63.469,32.168C63.263,31.965 63.092,31.785 62.957,31.629C62.822,31.473 62.721,31.336 62.656,31.219C62.531,30.99 62.469,30.701 62.469,30.352C62.469,29.88 62.591,29.507 62.836,29.23C63.083,28.952 63.415,28.812 63.832,28.812C64.121,28.812 64.397,28.882 64.66,29.02L64.66,29.02Z" style="fill:rgb(158,161,168);fill-rule:nonzero;"/>
        </g>
        <g id="text2691" transform="matrix(1,0,0,1,-50.5,30)">
            <path id="path2725" d="M83.141,32.059C83.141,33.124 83.022,33.88 82.785,34.328C82.548,34.776 82.151,35 81.594,35C81.008,35 80.595,34.759 80.355,34.277C80.118,33.806 80,32.969 80,31.766C80,30.693 80.117,29.934 80.352,29.488C80.589,29.04 80.99,28.816 81.555,28.816C82.06,28.816 82.435,28.99 82.68,29.336C82.841,29.568 82.958,29.897 83.031,30.324C83.104,30.72 83.141,31.298 83.141,32.059L83.141,32.059ZM82.289,32.145C82.289,31.1 82.242,30.408 82.148,30.066C82.055,29.723 81.863,29.551 81.574,29.551C81.285,29.551 81.092,29.708 80.996,30.023C80.902,30.341 80.855,30.979 80.855,31.938C80.855,32.82 80.905,33.432 81.004,33.773C81.105,34.096 81.296,34.258 81.574,34.258C81.848,34.258 82.035,34.107 82.137,33.805C82.238,33.505 82.289,32.952 82.289,32.145L82.289,32.145Z" style="fill:rgb(158,161,168);fill-rule:nonzero;"/>
            <path id="path2727" d="M83.949,28.895L85.02,28.895C85.462,28.895 85.792,29 86.008,29.211C86.281,29.484 86.418,29.902 86.418,30.465C86.418,30.897 86.345,31.245 86.199,31.508C86.056,31.768 85.85,31.93 85.582,31.992L86.691,34.926L85.867,34.926L84.762,31.973L84.762,34.926L83.949,34.926L83.949,28.895ZM84.762,31.566C85.077,31.566 85.299,31.493 85.43,31.348C85.56,31.202 85.625,30.956 85.625,30.609C85.625,30.422 85.611,30.262 85.582,30.129C85.556,29.996 85.513,29.888 85.453,29.805C85.396,29.721 85.32,29.66 85.227,29.621C85.135,29.582 85.026,29.562 84.898,29.562L84.762,29.562L84.762,31.566Z" style="fill:rgb(158,161,168);fill-rule:nonzero;"/>
            <path id="path2729" d="M87.324,28.895L88.324,28.895C88.629,28.895 88.885,28.928 89.094,28.996C89.286,29.061 89.458,29.177 89.609,29.344C89.836,29.594 89.997,29.919 90.094,30.32C90.19,30.708 90.238,31.264 90.238,31.988C90.238,32.652 90.185,33.194 90.078,33.613C89.974,34.014 89.802,34.32 89.563,34.531C89.268,34.794 88.741,34.926 87.98,34.926L87.324,34.926L87.324,28.895ZM88.137,34.215C88.632,34.215 88.962,34.065 89.129,33.766C89.301,33.466 89.387,32.884 89.387,32.02C89.387,31.09 89.305,30.451 89.141,30.102C88.977,29.753 88.676,29.578 88.238,29.578L88.137,29.578L88.137,34.215Z" style="fill:rgb(158,161,168);fill-rule:nonzero;"/>
            <path id="path2731" d="M91.043,28.895L93.203,28.895L93.203,29.582L91.855,29.582L91.855,31.492L93.051,31.492L93.051,32.18L91.855,32.18L91.855,34.238L93.203,34.238L93.203,34.926L91.043,34.926L91.043,28.895Z" style="fill:rgb(158,161,168);fill-rule:nonzero;"/>
            <path id="path2733" d="M93.949,28.895L95.02,28.895C95.462,28.895 95.792,29 96.008,29.211C96.281,29.484 96.418,29.902 96.418,30.465C96.418,30.897 96.345,31.245 96.199,31.508C96.056,31.768 95.85,31.93 95.582,31.992L96.691,34.926L95.867,34.926L94.762,31.973L94.762,34.926L93.949,34.926L93.949,28.895ZM94.762,31.566C95.077,31.566 95.299,31.493 95.43,31.348C95.56,31.202 95.625,30.956 95.625,30.609C95.625,30.422 95.611,30.262 95.582,30.129C95.556,29.996 95.513,29.888 95.453,29.805C95.396,29.721 95.32,29.66 95.227,29.621C95.135,29.582 95.026,29.562 94.898,29.562L94.762,29.562L94.762,31.566Z" style="fill:rgb(158,161,168);fill-rule:nonzero;"/>
        </g>
        <g id="path2712" transform="matrix(1,0,0,1,-73.1992,58.6484)">
            <path d="M88.602,38.32L89.355,38.32L89.355,42.078L89.742,42.078L89.742,42.699L89.355,42.699L89.355,44.352L88.602,44.352L88.602,42.699L86.949,42.699L86.949,42.008L88.602,38.32ZM88.602,42.078L88.602,39.547L87.586,42.078L88.602,42.078Z" style="fill:rgb(158,161,168);fill-rule:nonzero;"/>
        </g>
        <g id="path2709" transform="matrix(1,0,0,1,-50.4493,-4.42577)">
            <path d="M87.869,74.355L87.072,74.355L87.064,74.117C87.064,73.458 87.163,72.995 87.361,72.727C87.562,72.456 87.898,72.32 88.369,72.32C89.257,72.32 89.701,72.812 89.701,73.797C89.701,74.461 89.369,75.418 88.705,76.668L88.224,77.57C88.222,77.576 88.214,77.591 88.201,77.617C88.188,77.643 88.17,77.681 88.146,77.73L89.639,77.73L89.639,78.426L86.99,78.426C87.034,78.327 87.127,78.13 87.267,77.836C87.408,77.542 87.599,77.145 87.842,76.645C88.047,76.207 88.219,75.836 88.357,75.531C88.495,75.227 88.599,74.977 88.67,74.781C88.81,74.391 88.881,74.053 88.881,73.77C88.881,73.27 88.708,73.02 88.361,73.02C88.028,73.02 87.861,73.329 87.861,73.949L87.865,74.293L87.869,74.355Z" style="fill:rgb(158,161,168);fill-rule:nonzero;"/>
        </g>
        <g id="g1064">
            <path id="rect1061" d="M99,30C99,27.24 96.76,25 94,25L11,25C8.24,25 6,27.24 6,30L6,50.831C6,53.59 8.24,55.831 11,55.831L94,55.831C96.76,55.831 99,53.59 99,50.831L99,30Z" style="fill:rgb(179,179,179);"/>
            <g id="text994" transform="matrix(1,0,0,1,3.03694e-06,-32.1978)">
                <path id="path996" d="M42.651,65.802L40.557,65.802L40.557,60.172L42.651,60.172L42.651,65.802ZM42.828,58.427C42.828,58.757 42.708,59.042 42.469,59.281C42.222,59.517 41.936,59.635 41.609,59.635C41.273,59.635 40.984,59.516 40.745,59.276C40.509,59.029 40.391,58.741 40.391,58.411C40.391,58.075 40.509,57.788 40.745,57.552C40.991,57.316 41.278,57.198 41.604,57.198C41.948,57.198 42.238,57.318 42.474,57.557C42.71,57.793 42.828,58.083 42.828,58.427L42.828,58.427Z" style="fill:rgb(44,45,48);fill-rule:nonzero;"/>
                <path id="path998" d="M48.578,65.802L46.49,65.802L46.49,62.823C46.49,62.566 46.464,62.387 46.411,62.286C46.363,62.186 46.276,62.135 46.151,62.135C45.859,62.135 45.714,62.411 45.714,62.963L45.714,65.802L43.625,65.802L43.625,60.172L45.714,60.172C45.71,60.311 45.706,60.439 45.703,60.557C45.699,60.675 45.694,60.785 45.687,60.885L45.667,61.245C46.003,60.45 46.497,60.052 47.146,60.052C47.597,60.052 47.948,60.22 48.198,60.557C48.451,60.894 48.578,61.363 48.578,61.963L48.578,65.802Z" style="fill:rgb(44,45,48);fill-rule:nonzero;"/>
                <path id="path1000" d="M51.63,68.312L49.542,68.312L49.542,60.172L51.63,60.172L51.583,60.969C51.67,60.802 51.759,60.661 51.849,60.547C51.939,60.429 52.036,60.333 52.141,60.26C52.245,60.187 52.356,60.135 52.474,60.104C52.596,60.069 52.729,60.052 52.875,60.052C53.417,60.052 53.858,60.323 54.198,60.864C54.535,61.399 54.703,62.109 54.703,62.995C54.703,63.894 54.542,64.606 54.219,65.13C53.903,65.654 53.467,65.917 52.911,65.917C52.405,65.917 51.962,65.623 51.583,65.036C51.601,65.213 51.611,65.366 51.615,65.495C51.625,65.627 51.63,65.785 51.63,65.969L51.63,68.312ZM52.542,62.932C52.542,62.564 52.498,62.279 52.411,62.078C52.328,61.873 52.208,61.771 52.052,61.771C51.729,61.771 51.568,62.165 51.568,62.953C51.568,63.759 51.724,64.161 52.036,64.161C52.193,64.161 52.316,64.054 52.406,63.838C52.497,63.623 52.542,63.321 52.542,62.932L52.542,62.932Z" style="fill:rgb(44,45,48);fill-rule:nonzero;"/>
                <path id="path1002" d="M55.521,60.172L57.609,60.172L57.609,63.344C57.609,63.646 57.639,63.866 57.698,64.005C57.76,64.12 57.879,64.177 58.052,64.177C58.222,64.177 58.337,64.12 58.396,64.005C58.458,63.891 58.49,63.67 58.49,63.344L58.49,60.172L60.578,60.172L60.578,63.625C60.578,63.854 60.559,64.062 60.521,64.25C60.486,64.434 60.429,64.602 60.349,64.755C60.273,64.904 60.172,65.042 60.047,65.167C59.925,65.292 59.779,65.406 59.609,65.51C59.151,65.781 58.632,65.917 58.052,65.917C57.465,65.917 56.946,65.781 56.495,65.51C56.321,65.406 56.172,65.293 56.047,65.172C55.925,65.047 55.825,64.908 55.745,64.755C55.668,64.602 55.611,64.434 55.573,64.25C55.538,64.062 55.521,63.854 55.521,63.625L55.521,60.172Z" style="fill:rgb(44,45,48);fill-rule:nonzero;"/>
                <path id="path1004" d="M63.917,65.802L61.823,65.802L61.823,61.854L61.229,61.854L61.229,60.172L61.823,60.172L61.823,58.515L63.917,58.515L63.917,60.172L64.609,60.172L64.609,61.854L63.917,61.854L63.917,65.802Z" style="fill:rgb(44,45,48);fill-rule:nonzero;"/>
            </g>
            <g id="path1352" transform="matrix(1,0,0,1,0,2)">
                <path d="M39.802,50L36,50L36,41.958L38.172,41.958L38.172,48.068L39.802,48.068L39.802,50Z" style="fill:rgb(44,45,48);fill-rule:nonzero;"/>
            </g>
            <g id="path1349" transform="matrix(1.00002,0,0,0.999978,-4.99985,2)">
                <path d="M74.717,50.001L72.368,50.001L71.295,47.136C71.285,47.088 71.266,47.024 71.238,46.944C71.214,46.864 71.183,46.768 71.144,46.657L71.16,47.189L71.16,50.001L68.998,50.001L68.998,41.959L71.222,41.959C72.202,41.959 72.934,42.152 73.42,42.537C74.038,43.03 74.347,43.732 74.347,44.642C74.347,45.614 73.932,46.286 73.103,46.657L74.717,50.001ZM71.17,45.683L71.316,45.683C71.566,45.683 71.775,45.588 71.941,45.397C72.108,45.206 72.191,44.963 72.191,44.668C72.191,44.067 71.877,43.767 71.249,43.767L71.17,43.767L71.17,45.683Z" style="fill:rgb(44,45,48);fill-rule:nonzero;"/>
            </g>
        </g>
        <g id="text1026" transform="matrix(1,0,0,1,0,-11.0365)">
            <path id="path1028" d="M66.478,69.958L67.947,69.958C69.096,69.958 69.671,70.672 69.671,72.099C69.671,72.644 69.596,73.049 69.447,73.312C69.298,73.576 69.034,73.776 68.655,73.911C69.089,74.085 69.386,74.307 69.546,74.578C69.709,74.845 69.791,75.248 69.791,75.786C69.791,77.262 69.159,78 67.895,78L66.478,78L66.478,69.958ZM67.499,73.5C67.919,73.5 68.211,73.403 68.374,73.208C68.537,73.003 68.619,72.644 68.619,72.13C68.619,71.262 68.306,70.828 67.681,70.828L67.598,70.828L67.551,70.828C67.523,70.828 67.506,70.83 67.499,70.833L67.499,73.5ZM67.499,77.073C67.944,77.073 68.251,76.977 68.421,76.786C68.591,76.595 68.676,76.25 68.676,75.75C68.676,75.236 68.588,74.877 68.411,74.672C68.237,74.464 67.933,74.359 67.499,74.359L67.499,77.073Z" style="fill:rgb(158,161,168);fill-rule:nonzero;"/>
            <path id="path1030" d="M70.171,69.958L71.317,69.958L71.848,71.708C71.865,71.76 71.883,71.818 71.9,71.88C71.918,71.943 71.938,72.01 71.963,72.083C72.161,72.715 72.296,73.246 72.369,73.677C72.431,73.246 72.483,72.946 72.525,72.776L72.692,72.057L72.754,71.776L73.202,69.958L74.332,69.958L72.931,74.542L72.931,78L71.848,78L71.848,74.542L70.171,69.958Z" style="fill:rgb(158,161,168);fill-rule:nonzero;"/>
            <path id="path1032" d="M74.937,69.958L76.364,69.958C77.051,69.958 77.551,70.132 77.864,70.479C78.176,70.83 78.332,71.385 78.332,72.146C78.332,73.215 78.018,73.906 77.39,74.219C77.074,74.361 76.617,74.432 76.02,74.432L76.02,78L74.937,78L74.937,69.958ZM76.02,73.505C76.468,73.505 76.777,73.415 76.947,73.234C77.121,73.05 77.207,72.724 77.207,72.255C77.207,71.776 77.124,71.425 76.957,71.203C76.791,70.981 76.529,70.87 76.171,70.87L76.02,70.87L76.02,73.505Z" style="fill:rgb(158,161,168);fill-rule:nonzero;"/>
            <path id="path1034" d="M80.062,69.958L80.905,69.958L82.629,78L81.556,78L81.254,76.432L79.661,76.432L79.353,78L78.312,78L80.062,69.958ZM81.098,75.594L80.858,74.312C80.699,73.441 80.569,72.51 80.468,71.521C80.419,72.003 80.357,72.493 80.28,72.99C80.204,73.483 80.114,74.007 80.009,74.562L79.812,75.594L81.098,75.594Z" style="fill:rgb(158,161,168);fill-rule:nonzero;"/>
            <path id="path1036" d="M85.952,70.125L85.952,71.182C85.622,70.946 85.325,70.828 85.062,70.828C84.777,70.828 84.544,70.929 84.364,71.13C84.183,71.321 84.093,71.576 84.093,71.896C84.093,72.177 84.157,72.418 84.286,72.62C84.352,72.727 84.459,72.866 84.608,73.036C84.761,73.207 84.957,73.411 85.197,73.651C85.638,74.099 85.938,74.486 86.098,74.812C86.258,75.128 86.338,75.516 86.338,75.974C86.338,76.595 86.162,77.108 85.812,77.51C85.461,77.903 85.011,78.099 84.463,78.099C84.001,78.099 83.607,77.972 83.28,77.719L83.28,76.646C83.666,76.927 84.016,77.068 84.332,77.068C84.628,77.068 84.858,76.97 85.025,76.776C85.192,76.578 85.275,76.311 85.275,75.974C85.275,75.682 85.211,75.42 85.082,75.187C85.016,75.076 84.924,74.95 84.806,74.807C84.688,74.661 84.541,74.5 84.364,74.323C84.089,74.052 83.862,73.812 83.681,73.604C83.501,73.396 83.367,73.214 83.28,73.057C83.114,72.752 83.03,72.366 83.03,71.901C83.03,71.273 83.194,70.774 83.52,70.406C83.85,70.035 84.292,69.849 84.848,69.849C85.233,69.849 85.602,69.941 85.952,70.125L85.952,70.125Z" style="fill:rgb(158,161,168);fill-rule:nonzero;"/>
            <path id="path1038" d="M89.931,70.125L89.931,71.182C89.602,70.946 89.305,70.828 89.041,70.828C88.756,70.828 88.523,70.929 88.343,71.13C88.162,71.321 88.072,71.576 88.072,71.896C88.072,72.177 88.136,72.418 88.265,72.62C88.331,72.727 88.438,72.866 88.588,73.036C88.74,73.207 88.937,73.411 89.176,73.651C89.617,74.099 89.917,74.486 90.077,74.812C90.237,75.128 90.317,75.516 90.317,75.974C90.317,76.595 90.141,77.108 89.791,77.51C89.44,77.903 88.99,78.099 88.442,78.099C87.98,78.099 87.586,77.972 87.26,77.719L87.26,76.646C87.645,76.927 87.996,77.068 88.312,77.068C88.607,77.068 88.838,76.97 89.004,76.776C89.171,76.578 89.254,76.311 89.254,75.974C89.254,75.682 89.19,75.42 89.062,75.187C88.996,75.076 88.904,74.95 88.786,74.807C88.667,74.661 88.52,74.5 88.343,74.323C88.069,74.052 87.841,73.812 87.661,73.604C87.48,73.396 87.346,73.214 87.26,73.057C87.093,72.752 87.009,72.366 87.009,71.901C87.009,71.273 87.173,70.774 87.499,70.406C87.829,70.035 88.272,69.849 88.827,69.849C89.213,69.849 89.581,69.941 89.931,70.125L89.931,70.125Z" style="fill:rgb(158,161,168);fill-rule:nonzero;"/>
        </g>
        <path id="path1083" d="M14.973,67.895L15.836,67.895L15.27,69.055C15.171,69.266 15.07,69.49 14.969,69.727C14.87,69.964 14.766,70.216 14.656,70.484C14.883,70.305 15.1,70.215 15.309,70.215C15.645,70.215 15.904,70.361 16.086,70.652C16.258,70.926 16.344,71.415 16.344,72.121C16.344,72.788 16.243,73.268 16.043,73.563C15.842,73.852 15.516,73.996 15.063,73.996C14.599,73.996 14.264,73.836 14.059,73.516C13.853,73.193 13.75,72.667 13.75,71.938C13.75,71.326 13.831,70.742 13.992,70.188C14.076,69.911 14.198,69.586 14.359,69.211C14.523,68.836 14.728,68.397 14.973,67.895L14.973,67.895ZM15.566,72.117C15.566,71.909 15.557,71.732 15.539,71.586C15.521,71.438 15.491,71.318 15.449,71.227C15.408,71.133 15.354,71.065 15.289,71.023C15.227,70.979 15.15,70.957 15.059,70.957C14.967,70.957 14.889,70.979 14.824,71.023C14.762,71.065 14.71,71.132 14.668,71.223C14.626,71.314 14.596,71.434 14.578,71.582C14.56,71.728 14.551,71.904 14.551,72.109C14.551,72.898 14.72,73.293 15.059,73.293C15.397,73.293 15.566,72.901 15.566,72.117L15.566,72.117Z" style="fill:rgb(158,161,168);fill-rule:nonzero;"/>
        <path id="path1080" d="M37.877,96.969L39.252,96.969L39.252,103L38.475,103L38.475,97.66L37.877,97.66L37.877,96.969Z" style="fill:rgb(158,161,168);fill-rule:nonzero;"/>
        <g id="text1056" transform="matrix(1,0,0,1,-12,0)">
            <path id="path1058" d="M32.208,314.958L33.542,314.958C33.948,314.958 34.29,315.003 34.568,315.094C34.825,315.181 35.054,315.335 35.255,315.557C35.557,315.891 35.773,316.325 35.901,316.859C36.03,317.377 36.094,318.118 36.094,319.083C36.094,319.969 36.023,320.691 35.88,321.25C35.741,321.785 35.512,322.193 35.193,322.474C34.8,322.825 34.097,323 33.083,323L32.208,323L32.208,314.958ZM33.292,322.052C33.951,322.052 34.392,321.852 34.615,321.453C34.844,321.054 34.958,320.278 34.958,319.125C34.958,317.885 34.849,317.033 34.63,316.568C34.411,316.102 34.01,315.87 33.427,315.87L33.292,315.87L33.292,322.052Z" style="fill:rgb(158,161,168);fill-rule:nonzero;"/>
            <path id="path1060" d="M37.167,314.958L38.594,314.958C39.184,314.958 39.623,315.099 39.911,315.38C40.276,315.745 40.458,316.302 40.458,317.052C40.458,317.628 40.361,318.092 40.167,318.443C39.976,318.79 39.701,319.005 39.344,319.089L40.823,323L39.724,323L38.25,319.062L38.25,323L37.167,323L37.167,314.958ZM38.25,318.521C38.67,318.521 38.967,318.424 39.141,318.229C39.314,318.035 39.401,317.707 39.401,317.245C39.401,316.995 39.382,316.781 39.344,316.604C39.309,316.427 39.252,316.283 39.172,316.172C39.095,316.061 38.995,315.979 38.87,315.927C38.748,315.875 38.602,315.849 38.432,315.849L38.25,315.849L38.25,318.521Z" style="fill:rgb(158,161,168);fill-rule:nonzero;"/>
            <path id="path1062" d="M40.964,314.958L42.109,314.958L42.641,316.708C42.658,316.76 42.675,316.818 42.693,316.88C42.71,316.943 42.731,317.01 42.755,317.083C42.953,317.715 43.089,318.246 43.161,318.677C43.224,318.246 43.276,317.946 43.318,317.776L43.484,317.057L43.547,316.776L43.995,314.958L45.125,314.958L43.724,319.542L43.724,323L42.641,323L42.641,319.542L40.964,314.958Z" style="fill:rgb(158,161,168);fill-rule:nonzero;"/>
            <rect id="path1065" x="47.318" y="319.833" width="1.896" height="0.813" style="fill:rgb(158,161,168);fill-rule:nonzero;"/>
            <path id="path1068" d="M51.438,314.958L52.484,314.958L53.031,318.693L53.12,319.245C53.161,319.543 53.193,319.816 53.214,320.062L53.271,320.745C53.274,320.762 53.278,320.793 53.281,320.839C53.285,320.884 53.29,320.941 53.297,321.01L53.323,320.75C53.365,320.295 53.408,319.877 53.453,319.495C53.502,319.113 53.554,318.76 53.609,318.438L54.188,314.958L55.021,314.958L55.563,318.339C55.642,318.839 55.708,319.302 55.761,319.729C55.816,320.156 55.861,320.564 55.896,320.953C55.931,320.543 55.969,320.148 56.011,319.766C56.056,319.384 56.103,319.009 56.151,318.641L56.229,318.104L56.693,314.958L57.729,314.958L56.307,323L55.464,323L54.896,319.526C54.892,319.512 54.884,319.455 54.87,319.354C54.856,319.254 54.835,319.109 54.807,318.922L54.698,318.12C54.691,318.057 54.679,317.964 54.662,317.839C54.648,317.714 54.632,317.556 54.615,317.365L54.589,317.031C54.582,317.111 54.575,317.181 54.568,317.24C54.561,317.299 54.556,317.347 54.552,317.385C54.535,317.615 54.519,317.793 54.505,317.922C54.495,318.047 54.488,318.123 54.485,318.151L54.375,318.922C54.351,319.099 54.332,319.238 54.318,319.339C54.304,319.439 54.294,319.502 54.287,319.526L53.698,323L52.828,323L51.438,314.958Z" style="fill:rgb(158,161,168);fill-rule:nonzero;"/>
            <path id="path1070" d="M58.375,314.958L61.255,314.958L61.255,315.875L59.458,315.875L59.458,318.422L61.052,318.422L61.052,319.339L59.458,319.339L59.458,322.083L61.255,322.083L61.255,323L58.375,323L58.375,314.958Z" style="fill:rgb(158,161,168);fill-rule:nonzero;"/>
            <path id="path1072" d="M61.609,314.958L65.135,314.958L65.135,315.906L63.922,315.906L63.922,323L62.859,323L62.859,315.906L61.609,315.906L61.609,314.958Z" style="fill:rgb(158,161,168);fill-rule:nonzero;"/>
        </g>
    </g>
</svg>
