<?xml version="1.0" encoding="UTF-8" standalone="no"?>
<!DOCTYPE svg PUBLIC "-//W3C//DTD SVG 1.1//EN" "http://www.w3.org/Graphics/SVG/1.1/DTD/svg11.dtd">
<svg width="100%" height="100%" viewBox="0 0 90 380" version="1.1" xmlns="http://www.w3.org/2000/svg" xmlns:xlink="http://www.w3.org/1999/xlink" xml:space="preserve" xmlns:serif="http://www.serif.com/" style="fill-rule:evenodd;clip-rule:evenodd;stroke-linejoin:round;stroke-miterlimit:2;">
    <g id="Layer-2" serif:id="Layer 2">
        <rect id="rect4689" x="0" y="0" width="90" height="380" style="fill:rgb(44,45,48);"/>
        <g id="text989">
        </g>
        <g id="text80" transform="matrix(1.00498,0,0,0.995047,-5.56788e-06,4.99998)">
            <g opacity="0.99">
                <path id="path4726" d="M29.851,371.706L29.851,363.943L31.853,363.943L32.903,366.668C32.96,366.829 33.024,367.013 33.094,367.221C33.168,367.429 33.249,367.668 33.336,367.94L33.552,368.624C33.475,367.95 33.416,367.373 33.376,366.894C33.336,366.415 33.316,366.013 33.316,365.687L33.316,363.943L35.317,363.943L35.317,371.706L33.316,371.706L32.26,368.85C32.149,368.545 32.049,368.26 31.958,367.995C31.871,367.727 31.794,367.472 31.727,367.231C31.77,367.777 31.802,368.253 31.822,368.659C31.843,369.065 31.853,369.42 31.853,369.725L31.853,371.706L29.851,371.706Z" style="fill:rgb(158,161,168);fill-rule:nonzero;"/>
                <path id="path4728" d="M39.887,371.706L37.791,371.706L37.791,368.418L35.865,363.943L38.052,363.943L38.429,365.094C38.503,365.319 38.568,365.535 38.625,365.743C38.686,365.951 38.739,366.15 38.786,366.341C38.863,366.056 38.93,365.811 38.987,365.607C39.044,365.399 39.095,365.232 39.138,365.104L39.52,363.943L41.692,363.943L39.887,368.418L39.887,371.706Z" style="fill:rgb(158,161,168);fill-rule:nonzero;"/>
                <path id="path4730" d="M41.894,371.515L41.894,369.076C42.306,369.639 42.752,369.921 43.231,369.921C43.412,369.921 43.56,369.874 43.673,369.78C43.787,369.683 43.844,369.562 43.844,369.418C43.844,369.21 43.72,369.008 43.472,368.81L43.13,368.543C42.902,368.372 42.708,368.203 42.547,368.035C42.386,367.865 42.256,367.69 42.155,367.513C42.054,367.332 41.981,367.146 41.934,366.954C41.887,366.763 41.863,366.562 41.863,366.351C41.863,365.989 41.947,365.61 42.115,365.215C42.199,365.03 42.296,364.863 42.406,364.712C42.517,364.558 42.644,364.422 42.789,364.305C43.184,363.969 43.662,363.802 44.222,363.802C44.721,363.802 45.224,363.934 45.73,364.199L45.73,366.572C45.559,366.308 45.365,366.1 45.147,365.949C44.929,365.795 44.714,365.718 44.503,365.718C44.342,365.718 44.21,365.765 44.106,365.858C43.999,365.949 43.945,366.058 43.945,366.185C43.945,366.393 44.087,366.599 44.372,366.804L44.704,367.05C45.147,367.368 45.463,367.695 45.655,368.03C45.849,368.366 45.946,368.758 45.946,369.207C45.946,369.971 45.713,370.601 45.247,371.098C44.781,371.594 44.191,371.842 43.477,371.842C42.985,371.842 42.457,371.733 41.894,371.515L41.894,371.515Z" style="fill:rgb(158,161,168);fill-rule:nonzero;"/>
                <path id="path4732" d="M49.576,371.706L47.48,371.706L47.48,365.803L46.323,365.803L46.323,363.943L50.778,363.943L50.778,365.803L49.576,365.803L49.576,371.706Z" style="fill:rgb(158,161,168);fill-rule:nonzero;"/>
                <path id="path4734" d="M56.525,371.706L54.428,371.706L54.428,368.584L53.428,368.584L53.428,371.706L51.331,371.706L51.331,363.943L53.428,363.943L53.428,366.688L54.428,366.688L54.428,363.943L56.525,363.943L56.525,371.706Z" style="fill:rgb(158,161,168);fill-rule:nonzero;"/>
                <rect id="path4736" x="57.606" y="363.943" width="2.097" height="7.763" style="fill:rgb(158,161,168);fill-rule:nonzero;"/>
            </g>
        </g>
        <g id="text4987">
        </g>
        <g id="text942" transform="matrix(0.999995,0,0,1,0,0)">
            <g opacity="0.99">
                <path id="path1034" d="M13.318,111.989L13.318,112.963C13.04,112.828 12.807,112.76 12.62,112.76C12.363,112.76 12.142,112.824 11.958,112.953C11.774,113.078 11.622,113.272 11.5,113.536C11.382,113.8 11.293,114.135 11.234,114.541C11.179,114.944 11.151,115.421 11.151,115.973C11.151,117.96 11.66,118.953 12.677,118.953C12.854,118.953 13.068,118.897 13.318,118.786L13.318,119.781C13.057,119.927 12.766,119.999 12.443,119.999C10.814,119.999 10,118.67 10,116.01C10,114.572 10.198,113.503 10.594,112.802C10.993,112.1 11.602,111.75 12.422,111.75C12.724,111.75 13.023,111.829 13.318,111.989L13.318,111.989Z" style="fill:rgb(158,161,168);fill-rule:nonzero;"/>
                <path id="path1036" d="M13.583,111.859L17.109,111.859L17.109,112.807L15.896,112.807L15.896,119.901L14.833,119.901L14.833,112.807L13.583,112.807L13.583,111.859Z" style="fill:rgb(158,161,168);fill-rule:nonzero;"/>
                <path id="path1038" d="M17.703,111.859L19.13,111.859C19.72,111.859 20.16,111.999 20.448,112.281C20.812,112.645 20.995,113.203 20.995,113.953C20.995,114.529 20.898,114.993 20.703,115.343C20.512,115.69 20.238,115.906 19.88,115.989L21.359,119.901L20.26,119.901L18.786,115.963L18.786,119.901L17.703,119.901L17.703,111.859ZM18.786,115.421C19.207,115.421 19.503,115.324 19.677,115.13C19.851,114.935 19.938,114.607 19.938,114.145C19.938,113.895 19.918,113.682 19.88,113.505C19.845,113.328 19.788,113.184 19.708,113.072C19.632,112.961 19.531,112.88 19.406,112.828C19.285,112.776 19.139,112.749 18.969,112.749L18.786,112.749L18.786,115.421Z" style="fill:rgb(158,161,168);fill-rule:nonzero;"/>
                <path id="path1040" d="M22.203,111.859L23.286,111.859L23.286,118.984L25.057,118.984L25.057,119.901L22.203,119.901L22.203,111.859Z" style="fill:rgb(158,161,168);fill-rule:nonzero;"/>
                <path id="path1042" d="M31.359,115.942C31.359,117.387 31.22,118.428 30.943,119.067C30.668,119.685 30.201,119.994 29.542,119.994C28.882,119.994 28.413,119.683 28.135,119.062C27.861,118.458 27.724,117.397 27.724,115.88C27.724,114.362 27.861,113.302 28.135,112.697C28.41,112.072 28.877,111.76 29.536,111.76C30.148,111.76 30.599,112.034 30.891,112.583C31.203,113.163 31.359,114.282 31.359,115.942ZM30.255,115.942C30.255,114.727 30.203,113.887 30.099,113.421C29.995,112.96 29.806,112.729 29.531,112.729C29.257,112.729 29.066,112.958 28.958,113.416C28.854,113.874 28.802,114.699 28.802,115.89C28.802,117.081 28.854,117.907 28.958,118.369C29.066,118.828 29.257,119.057 29.531,119.057C29.802,119.057 29.99,118.829 30.094,118.374C30.201,117.94 30.255,117.13 30.255,115.942Z" style="fill:rgb(158,161,168);fill-rule:nonzero;"/>
                <path id="path1044" d="M32.266,111.859L34.099,111.859L34.099,119.901L33.062,119.901L33.062,112.781L32.266,112.781L32.266,111.859Z" style="fill:rgb(158,161,168);fill-rule:nonzero;"/>
            </g>
        </g>
        <g id="text967" opacity="0.99">
            <path id="path1157" d="M13.318,136.99L13.318,137.964C13.04,137.828 12.807,137.76 12.62,137.76C12.363,137.76 12.142,137.825 11.958,137.953C11.774,138.078 11.622,138.273 11.5,138.536C11.382,138.8 11.293,139.135 11.234,139.542C11.179,139.944 11.151,140.422 11.151,140.974C11.151,142.96 11.66,143.953 12.677,143.953C12.854,143.953 13.068,143.898 13.318,143.786L13.318,144.781C13.057,144.927 12.766,145 12.443,145C10.814,145 10,143.67 10,141.01C10,139.573 10.198,138.503 10.594,137.802C10.993,137.101 11.602,136.75 12.422,136.75C12.724,136.75 13.023,136.83 13.318,136.99L13.318,136.99Z" style="fill:rgb(158,161,168);fill-rule:nonzero;"/>
            <path id="path1159" d="M13.583,136.859L17.109,136.859L17.109,137.807L15.896,137.807L15.896,144.901L14.833,144.901L14.833,137.807L13.583,137.807L13.583,136.859Z" style="fill:rgb(158,161,168);fill-rule:nonzero;"/>
            <path id="path1161" d="M17.703,136.859L19.13,136.859C19.72,136.859 20.16,137 20.448,137.281C20.812,137.646 20.995,138.203 20.995,138.953C20.995,139.53 20.898,139.993 20.703,140.344C20.512,140.691 20.238,140.906 19.88,140.99L21.359,144.901L20.26,144.901L18.786,140.964L18.786,144.901L17.703,144.901L17.703,136.859ZM18.786,140.422C19.207,140.422 19.503,140.325 19.677,140.13C19.851,139.936 19.937,139.608 19.937,139.146C19.937,138.896 19.918,138.682 19.88,138.505C19.845,138.328 19.788,138.184 19.708,138.073C19.632,137.962 19.531,137.88 19.406,137.828C19.285,137.776 19.139,137.75 18.969,137.75L18.786,137.75L18.786,140.422Z" style="fill:rgb(158,161,168);fill-rule:nonzero;"/>
            <path id="path1163" d="M22.203,136.859L23.286,136.859L23.286,143.984L25.057,143.984L25.057,144.901L22.203,144.901L22.203,136.859Z" style="fill:rgb(158,161,168);fill-rule:nonzero;"/>
            <path id="path1165" d="M31.359,140.943C31.359,142.387 31.22,143.429 30.943,144.068C30.668,144.686 30.201,144.995 29.542,144.995C28.882,144.995 28.413,144.684 28.135,144.063C27.861,143.458 27.724,142.398 27.724,140.88C27.724,139.363 27.861,138.302 28.135,137.698C28.41,137.073 28.877,136.76 29.536,136.76C30.148,136.76 30.599,137.035 30.891,137.583C31.203,138.163 31.359,139.283 31.359,140.943ZM30.255,140.943C30.255,139.727 30.203,138.887 30.099,138.422C29.995,137.96 29.806,137.729 29.531,137.729C29.257,137.729 29.066,137.958 28.958,138.417C28.854,138.875 28.802,139.7 28.802,140.891C28.802,142.082 28.854,142.908 28.958,143.37C29.066,143.828 29.257,144.057 29.531,144.057C29.802,144.057 29.99,143.83 30.094,143.375C30.201,142.941 30.255,142.13 30.255,140.943Z" style="fill:rgb(158,161,168);fill-rule:nonzero;"/>
            <path id="path1167" d="M33.323,139.474L32.26,139.474L32.25,139.156C32.25,138.278 32.382,137.66 32.646,137.302C32.913,136.941 33.361,136.76 33.99,136.76C35.174,136.76 35.766,137.417 35.766,138.729C35.766,139.615 35.323,140.891 34.437,142.557L33.797,143.76C33.793,143.767 33.783,143.788 33.766,143.823C33.748,143.858 33.724,143.908 33.693,143.974L35.682,143.974L35.682,144.901L32.151,144.901C32.21,144.769 32.333,144.507 32.521,144.115C32.708,143.722 32.964,143.193 33.286,142.526C33.561,141.943 33.79,141.448 33.974,141.042C34.158,140.635 34.297,140.302 34.391,140.042C34.578,139.521 34.672,139.071 34.672,138.693C34.672,138.026 34.441,137.693 33.979,137.693C33.535,137.693 33.312,138.106 33.312,138.932L33.318,139.391L33.323,139.474Z" style="fill:rgb(158,161,168);fill-rule:nonzero;"/>
        </g>
        <g id="text971" opacity="0.99">
            <path id="path1144" d="M13.318,161.99L13.318,162.964C13.04,162.828 12.807,162.76 12.62,162.76C12.363,162.76 12.142,162.825 11.958,162.953C11.774,163.078 11.622,163.273 11.5,163.536C11.382,163.8 11.293,164.135 11.234,164.542C11.179,164.944 11.151,165.422 11.151,165.974C11.151,167.96 11.66,168.953 12.677,168.953C12.854,168.953 13.068,168.898 13.318,168.786L13.318,169.781C13.057,169.927 12.766,170 12.443,170C10.814,170 10,168.67 10,166.01C10,164.573 10.198,163.503 10.594,162.802C10.993,162.101 11.602,161.75 12.422,161.75C12.724,161.75 13.023,161.83 13.318,161.99L13.318,161.99Z" style="fill:rgb(158,161,168);fill-rule:nonzero;"/>
            <path id="path1146" d="M13.583,161.859L17.109,161.859L17.109,162.807L15.896,162.807L15.896,169.901L14.833,169.901L14.833,162.807L13.583,162.807L13.583,161.859Z" style="fill:rgb(158,161,168);fill-rule:nonzero;"/>
            <path id="path1148" d="M17.703,161.859L19.13,161.859C19.72,161.859 20.16,162 20.448,162.281C20.812,162.646 20.995,163.203 20.995,163.953C20.995,164.53 20.898,164.993 20.703,165.344C20.512,165.691 20.238,165.906 19.88,165.99L21.359,169.901L20.26,169.901L18.786,165.964L18.786,169.901L17.703,169.901L17.703,161.859ZM18.786,165.422C19.207,165.422 19.503,165.325 19.677,165.13C19.851,164.936 19.937,164.608 19.937,164.146C19.937,163.896 19.918,163.682 19.88,163.505C19.845,163.328 19.788,163.184 19.708,163.073C19.632,162.962 19.531,162.88 19.406,162.828C19.285,162.776 19.139,162.75 18.969,162.75L18.786,162.75L18.786,165.422Z" style="fill:rgb(158,161,168);fill-rule:nonzero;"/>
            <path id="path1150" d="M22.203,161.859L23.286,161.859L23.286,168.984L25.057,168.984L25.057,169.901L22.203,169.901L22.203,161.859Z" style="fill:rgb(158,161,168);fill-rule:nonzero;"/>
            <path id="path1152" d="M31.359,165.943C31.359,167.387 31.22,168.429 30.943,169.068C30.668,169.686 30.201,169.995 29.542,169.995C28.882,169.995 28.413,169.684 28.135,169.062C27.861,168.458 27.724,167.398 27.724,165.88C27.724,164.363 27.861,163.302 28.135,162.698C28.41,162.073 28.877,161.76 29.536,161.76C30.148,161.76 30.599,162.035 30.891,162.583C31.203,163.163 31.359,164.283 31.359,165.943ZM30.255,165.943C30.255,164.727 30.203,163.887 30.099,163.422C29.995,162.96 29.806,162.729 29.531,162.729C29.257,162.729 29.066,162.958 28.958,163.417C28.854,163.875 28.802,164.7 28.802,165.891C28.802,167.082 28.854,167.908 28.958,168.37C29.066,168.828 29.257,169.057 29.531,169.057C29.802,169.057 29.99,168.83 30.094,168.375C30.201,167.941 30.255,167.13 30.255,165.943Z" style="fill:rgb(158,161,168);fill-rule:nonzero;"/>
            <path id="path1154" d="M33.365,164.016L32.333,164.016L32.333,163.802C32.333,163.444 32.363,163.137 32.422,162.88C32.484,162.623 32.58,162.411 32.708,162.245C32.84,162.078 33.007,161.957 33.208,161.88C33.41,161.8 33.651,161.76 33.932,161.76C34.523,161.76 34.953,161.927 35.224,162.26C35.495,162.594 35.63,163.123 35.63,163.849C35.63,164.446 35.568,164.877 35.443,165.141C35.321,165.408 35.087,165.611 34.74,165.75C35.115,165.879 35.373,166.078 35.516,166.349C35.658,166.616 35.729,167.045 35.729,167.635C35.729,168.444 35.576,169.04 35.271,169.422C34.965,169.804 34.49,169.995 33.844,169.995C32.74,169.995 32.188,169.361 32.188,168.094L32.188,168.01L32.188,167.953C32.188,167.915 32.189,167.891 32.193,167.88L33.208,167.88C33.205,167.939 33.201,167.991 33.198,168.036L33.198,168.141C33.198,168.415 33.257,168.634 33.375,168.797C33.497,168.96 33.661,169.042 33.87,169.042C34.005,169.042 34.12,169.016 34.214,168.964C34.311,168.908 34.389,168.821 34.448,168.703C34.51,168.582 34.556,168.425 34.583,168.234C34.611,168.043 34.625,167.813 34.625,167.542C34.625,167.052 34.55,166.7 34.401,166.484C34.255,166.269 34.01,166.161 33.667,166.161C33.628,166.161 33.587,166.165 33.542,166.172C33.497,166.176 33.444,166.181 33.385,166.188L33.385,165.25L33.536,165.25C33.957,165.25 34.241,165.16 34.391,164.979C34.54,164.799 34.615,164.457 34.615,163.953C34.615,163.12 34.405,162.703 33.984,162.703C33.568,162.703 33.359,163.059 33.359,163.771L33.365,164.016Z" style="fill:rgb(158,161,168);fill-rule:nonzero;"/>
        </g>
        <g id="text975" opacity="0.99">
            <path id="path1131" d="M13.318,186.99L13.318,187.964C13.04,187.828 12.807,187.76 12.62,187.76C12.363,187.76 12.142,187.825 11.958,187.953C11.774,188.078 11.622,188.273 11.5,188.536C11.382,188.8 11.293,189.135 11.234,189.542C11.179,189.944 11.151,190.422 11.151,190.974C11.151,192.96 11.66,193.953 12.677,193.953C12.854,193.953 13.068,193.898 13.318,193.786L13.318,194.781C13.057,194.927 12.766,195 12.443,195C10.814,195 10,193.67 10,191.01C10,189.573 10.198,188.503 10.594,187.802C10.993,187.101 11.602,186.75 12.422,186.75C12.724,186.75 13.023,186.83 13.318,186.99L13.318,186.99Z" style="fill:rgb(158,161,168);fill-rule:nonzero;"/>
            <path id="path1133" d="M13.583,186.859L17.109,186.859L17.109,187.807L15.896,187.807L15.896,194.901L14.833,194.901L14.833,187.807L13.583,187.807L13.583,186.859Z" style="fill:rgb(158,161,168);fill-rule:nonzero;"/>
            <path id="path1135" d="M17.703,186.859L19.13,186.859C19.72,186.859 20.16,187 20.448,187.281C20.812,187.646 20.995,188.203 20.995,188.953C20.995,189.53 20.898,189.993 20.703,190.344C20.512,190.691 20.238,190.906 19.88,190.99L21.359,194.901L20.26,194.901L18.786,190.964L18.786,194.901L17.703,194.901L17.703,186.859ZM18.786,190.422C19.207,190.422 19.503,190.325 19.677,190.13C19.851,189.936 19.937,189.608 19.937,189.146C19.937,188.896 19.918,188.682 19.88,188.505C19.845,188.328 19.788,188.184 19.708,188.073C19.632,187.962 19.531,187.88 19.406,187.828C19.285,187.776 19.139,187.75 18.969,187.75L18.786,187.75L18.786,190.422Z" style="fill:rgb(158,161,168);fill-rule:nonzero;"/>
            <path id="path1137" d="M22.203,186.859L23.286,186.859L23.286,193.984L25.057,193.984L25.057,194.901L22.203,194.901L22.203,186.859Z" style="fill:rgb(158,161,168);fill-rule:nonzero;"/>
            <path id="path1139" d="M31.359,190.943C31.359,192.387 31.22,193.429 30.943,194.068C30.668,194.686 30.201,194.995 29.542,194.995C28.882,194.995 28.413,194.684 28.135,194.063C27.861,193.458 27.724,192.398 27.724,190.88C27.724,189.363 27.861,188.302 28.135,187.698C28.41,187.073 28.877,186.76 29.536,186.76C30.148,186.76 30.599,187.035 30.891,187.583C31.203,188.163 31.359,189.283 31.359,190.943ZM30.255,190.943C30.255,189.727 30.203,188.887 30.099,188.422C29.995,187.96 29.806,187.729 29.531,187.729C29.257,187.729 29.066,187.958 28.958,188.417C28.854,188.875 28.802,189.7 28.802,190.891C28.802,192.082 28.854,192.908 28.958,193.37C29.066,193.828 29.257,194.057 29.531,194.057C29.802,194.057 29.99,193.83 30.094,193.375C30.201,192.941 30.255,192.13 30.255,190.943Z" style="fill:rgb(158,161,168);fill-rule:nonzero;"/>
            <path id="path1141" d="M34.286,186.859L35.292,186.859L35.292,191.87L35.807,191.87L35.807,192.698L35.292,192.698L35.292,194.901L34.286,194.901L34.286,192.698L32.083,192.698L32.083,191.776L34.286,186.859ZM34.286,191.87L34.286,188.495L32.932,191.87L34.286,191.87Z" style="fill:rgb(158,161,168);fill-rule:nonzero;"/>
        </g>
        <g id="text979" opacity="0.99">
            <path id="path1118" d="M13.318,211.99L13.318,212.964C13.04,212.828 12.807,212.76 12.62,212.76C12.363,212.76 12.142,212.825 11.958,212.953C11.774,213.078 11.622,213.273 11.5,213.536C11.382,213.8 11.293,214.135 11.234,214.542C11.179,214.944 11.151,215.422 11.151,215.974C11.151,217.96 11.66,218.953 12.677,218.953C12.854,218.953 13.068,218.898 13.318,218.786L13.318,219.781C13.057,219.927 12.766,220 12.443,220C10.814,220 10,218.67 10,216.01C10,214.573 10.198,213.503 10.594,212.802C10.993,212.101 11.602,211.75 12.422,211.75C12.724,211.75 13.023,211.83 13.318,211.99L13.318,211.99Z" style="fill:rgb(158,161,168);fill-rule:nonzero;"/>
            <path id="path1120" d="M13.583,211.859L17.109,211.859L17.109,212.807L15.896,212.807L15.896,219.901L14.833,219.901L14.833,212.807L13.583,212.807L13.583,211.859Z" style="fill:rgb(158,161,168);fill-rule:nonzero;"/>
            <path id="path1122" d="M17.703,211.859L19.13,211.859C19.72,211.859 20.16,212 20.448,212.281C20.812,212.646 20.995,213.203 20.995,213.953C20.995,214.53 20.898,214.993 20.703,215.344C20.512,215.691 20.238,215.906 19.88,215.99L21.359,219.901L20.26,219.901L18.786,215.964L18.786,219.901L17.703,219.901L17.703,211.859ZM18.786,215.422C19.207,215.422 19.503,215.325 19.677,215.13C19.851,214.936 19.937,214.608 19.937,214.146C19.937,213.896 19.918,213.682 19.88,213.505C19.845,213.328 19.788,213.184 19.708,213.073C19.632,212.962 19.531,212.88 19.406,212.828C19.285,212.776 19.139,212.75 18.969,212.75L18.786,212.75L18.786,215.422Z" style="fill:rgb(158,161,168);fill-rule:nonzero;"/>
            <path id="path1124" d="M22.203,211.859L23.286,211.859L23.286,218.984L25.057,218.984L25.057,219.901L22.203,219.901L22.203,211.859Z" style="fill:rgb(158,161,168);fill-rule:nonzero;"/>
            <path id="path1126" d="M31.359,215.943C31.359,217.387 31.22,218.429 30.943,219.068C30.668,219.686 30.201,219.995 29.542,219.995C28.882,219.995 28.413,219.684 28.135,219.062C27.861,218.458 27.724,217.398 27.724,215.88C27.724,214.363 27.861,213.302 28.135,212.698C28.41,212.073 28.877,211.76 29.536,211.76C30.148,211.76 30.599,212.035 30.891,212.583C31.203,213.163 31.359,214.283 31.359,215.943ZM30.255,215.943C30.255,214.727 30.203,213.887 30.099,213.422C29.995,212.96 29.806,212.729 29.531,212.729C29.257,212.729 29.066,212.958 28.958,213.417C28.854,213.875 28.802,214.7 28.802,215.891C28.802,217.082 28.854,217.908 28.958,218.37C29.066,218.828 29.257,219.057 29.531,219.057C29.802,219.057 29.99,218.83 30.094,218.375C30.201,217.941 30.255,217.13 30.255,215.943Z" style="fill:rgb(158,161,168);fill-rule:nonzero;"/>
            <path id="path1128" d="M33.047,211.859L35.604,211.859L35.604,212.792L33.87,212.792L33.609,214.812L33.74,214.812C34.056,214.812 34.335,214.863 34.578,214.964C34.825,215.064 35.031,215.212 35.198,215.406C35.365,215.601 35.491,215.84 35.578,216.125C35.665,216.41 35.708,216.734 35.708,217.099C35.708,218.002 35.512,218.712 35.12,219.229C34.727,219.74 34.182,219.995 33.484,219.995C33.092,219.995 32.667,219.884 32.208,219.661L32.479,218.703C32.851,218.898 33.161,218.995 33.411,218.995C33.766,218.995 34.047,218.835 34.255,218.516C34.464,218.193 34.568,217.759 34.568,217.214C34.568,216.182 34.125,215.667 33.24,215.667C33.021,215.667 32.8,215.7 32.578,215.766L33.047,211.859Z" style="fill:rgb(158,161,168);fill-rule:nonzero;"/>
        </g>
        <g id="text983" opacity="0.99">
            <path id="path1105" d="M13.318,236.99L13.318,237.964C13.04,237.828 12.807,237.76 12.62,237.76C12.363,237.76 12.142,237.825 11.958,237.953C11.774,238.078 11.622,238.273 11.5,238.536C11.382,238.8 11.293,239.135 11.234,239.542C11.179,239.944 11.151,240.422 11.151,240.974C11.151,242.96 11.66,243.953 12.677,243.953C12.854,243.953 13.068,243.898 13.318,243.786L13.318,244.781C13.057,244.927 12.766,245 12.443,245C10.814,245 10,243.67 10,241.01C10,239.573 10.198,238.504 10.594,237.802C10.993,237.101 11.602,236.75 12.422,236.75C12.724,236.75 13.023,236.83 13.318,236.99L13.318,236.99Z" style="fill:rgb(158,161,168);fill-rule:nonzero;"/>
            <path id="path1107" d="M13.583,236.859L17.109,236.859L17.109,237.807L15.896,237.807L15.896,244.901L14.833,244.901L14.833,237.807L13.583,237.807L13.583,236.859Z" style="fill:rgb(158,161,168);fill-rule:nonzero;"/>
            <path id="path1109" d="M17.703,236.859L19.13,236.859C19.72,236.859 20.16,237 20.448,237.281C20.812,237.646 20.995,238.203 20.995,238.953C20.995,239.53 20.898,239.993 20.703,240.344C20.512,240.691 20.238,240.906 19.88,240.99L21.359,244.901L20.26,244.901L18.786,240.964L18.786,244.901L17.703,244.901L17.703,236.859ZM18.786,240.422C19.207,240.422 19.503,240.325 19.677,240.13C19.851,239.936 19.937,239.608 19.937,239.146C19.937,238.896 19.918,238.682 19.88,238.505C19.845,238.328 19.788,238.184 19.708,238.073C19.632,237.962 19.531,237.88 19.406,237.828C19.285,237.776 19.139,237.75 18.969,237.75L18.786,237.75L18.786,240.422Z" style="fill:rgb(158,161,168);fill-rule:nonzero;"/>
            <path id="path1111" d="M22.203,236.859L23.286,236.859L23.286,243.984L25.057,243.984L25.057,244.901L22.203,244.901L22.203,236.859Z" style="fill:rgb(158,161,168);fill-rule:nonzero;"/>
            <path id="path1113" d="M31.359,240.943C31.359,242.387 31.22,243.429 30.943,244.068C30.668,244.686 30.201,244.995 29.542,244.995C28.882,244.995 28.413,244.684 28.135,244.063C27.861,243.458 27.724,242.398 27.724,240.88C27.724,239.363 27.861,238.302 28.135,237.698C28.41,237.073 28.877,236.76 29.536,236.76C30.148,236.76 30.599,237.035 30.891,237.583C31.203,238.163 31.359,239.283 31.359,240.943ZM30.255,240.943C30.255,239.727 30.203,238.887 30.099,238.422C29.995,237.96 29.806,237.729 29.531,237.729C29.257,237.729 29.066,237.958 28.958,238.417C28.854,238.875 28.802,239.7 28.802,240.891C28.802,242.082 28.854,242.908 28.958,243.37C29.066,243.828 29.257,244.057 29.531,244.057C29.802,244.057 29.99,243.83 30.094,243.375C30.201,242.941 30.255,242.13 30.255,240.943Z" style="fill:rgb(158,161,168);fill-rule:nonzero;"/>
            <path id="path1115" d="M33.859,236.859L35.01,236.859L34.255,238.406C34.123,238.688 33.99,238.986 33.854,239.302C33.722,239.618 33.583,239.955 33.437,240.313C33.74,240.073 34.03,239.953 34.307,239.953C34.755,239.953 35.101,240.148 35.344,240.536C35.573,240.901 35.687,241.554 35.687,242.495C35.687,243.384 35.554,244.024 35.286,244.417C35.019,244.802 34.583,244.995 33.979,244.995C33.361,244.995 32.915,244.781 32.641,244.354C32.366,243.924 32.229,243.222 32.229,242.25C32.229,241.434 32.337,240.656 32.552,239.917C32.663,239.549 32.826,239.115 33.042,238.615C33.26,238.115 33.533,237.53 33.859,236.859L33.859,236.859ZM34.651,242.49C34.651,242.212 34.639,241.976 34.615,241.781C34.59,241.583 34.55,241.424 34.495,241.302C34.439,241.177 34.368,241.087 34.281,241.031C34.198,240.972 34.095,240.943 33.974,240.943C33.852,240.943 33.748,240.972 33.661,241.031C33.578,241.087 33.509,241.175 33.453,241.297C33.398,241.418 33.358,241.578 33.333,241.776C33.309,241.97 33.297,242.205 33.297,242.479C33.297,243.531 33.523,244.057 33.974,244.057C34.425,244.057 34.651,243.535 34.651,242.49L34.651,242.49Z" style="fill:rgb(158,161,168);fill-rule:nonzero;"/>
        </g>
        <g id="text987" opacity="0.99">
            <path id="path1092" d="M13.318,261.99L13.318,262.964C13.04,262.828 12.807,262.76 12.62,262.76C12.363,262.76 12.142,262.825 11.958,262.953C11.774,263.078 11.622,263.273 11.5,263.536C11.382,263.8 11.293,264.135 11.234,264.542C11.179,264.944 11.151,265.422 11.151,265.974C11.151,267.96 11.66,268.953 12.677,268.953C12.854,268.953 13.068,268.898 13.318,268.786L13.318,269.781C13.057,269.927 12.766,270 12.443,270C10.814,270 10,268.67 10,266.01C10,264.573 10.198,263.504 10.594,262.802C10.993,262.101 11.602,261.75 12.422,261.75C12.724,261.75 13.023,261.83 13.318,261.99L13.318,261.99Z" style="fill:rgb(158,161,168);fill-rule:nonzero;"/>
            <path id="path1094" d="M13.583,261.859L17.109,261.859L17.109,262.807L15.896,262.807L15.896,269.901L14.833,269.901L14.833,262.807L13.583,262.807L13.583,261.859Z" style="fill:rgb(158,161,168);fill-rule:nonzero;"/>
            <path id="path1096" d="M17.703,261.859L19.13,261.859C19.72,261.859 20.16,262 20.448,262.281C20.812,262.646 20.995,263.203 20.995,263.953C20.995,264.53 20.898,264.993 20.703,265.344C20.512,265.691 20.238,265.906 19.88,265.99L21.359,269.901L20.26,269.901L18.786,265.964L18.786,269.901L17.703,269.901L17.703,261.859ZM18.786,265.422C19.207,265.422 19.503,265.325 19.677,265.13C19.851,264.936 19.937,264.608 19.937,264.146C19.937,263.896 19.918,263.682 19.88,263.505C19.845,263.328 19.788,263.184 19.708,263.073C19.632,262.962 19.531,262.88 19.406,262.828C19.285,262.776 19.139,262.75 18.969,262.75L18.786,262.75L18.786,265.422Z" style="fill:rgb(158,161,168);fill-rule:nonzero;"/>
            <path id="path1098" d="M22.203,261.859L23.286,261.859L23.286,268.984L25.057,268.984L25.057,269.901L22.203,269.901L22.203,261.859Z" style="fill:rgb(158,161,168);fill-rule:nonzero;"/>
            <path id="path1100" d="M31.359,265.943C31.359,267.387 31.22,268.429 30.943,269.068C30.668,269.686 30.201,269.995 29.542,269.995C28.882,269.995 28.413,269.684 28.135,269.063C27.861,268.458 27.724,267.398 27.724,265.88C27.724,264.363 27.861,263.302 28.135,262.698C28.41,262.073 28.877,261.76 29.536,261.76C30.148,261.76 30.599,262.035 30.891,262.583C31.203,263.163 31.359,264.283 31.359,265.943ZM30.255,265.943C30.255,264.727 30.203,263.887 30.099,263.422C29.995,262.96 29.806,262.729 29.531,262.729C29.257,262.729 29.066,262.958 28.958,263.417C28.854,263.875 28.802,264.7 28.802,265.891C28.802,267.082 28.854,267.908 28.958,268.37C29.066,268.828 29.257,269.057 29.531,269.057C29.802,269.057 29.99,268.83 30.094,268.375C30.201,267.941 30.255,267.13 30.255,265.943Z" style="fill:rgb(158,161,168);fill-rule:nonzero;"/>
            <path id="path1102" d="M32.036,261.859L35.63,261.859L33.193,269.901L32.036,269.901L34.271,262.776L32.036,262.776L32.036,261.859Z" style="fill:rgb(158,161,168);fill-rule:nonzero;"/>
        </g>
        <g id="text991" opacity="0.99">
            <path id="path1079" d="M13.318,286.99L13.318,287.964C13.04,287.828 12.807,287.76 12.62,287.76C12.363,287.76 12.142,287.825 11.958,287.953C11.774,288.078 11.622,288.273 11.5,288.536C11.382,288.8 11.293,289.135 11.234,289.542C11.179,289.944 11.151,290.422 11.151,290.974C11.151,292.96 11.66,293.953 12.677,293.953C12.854,293.953 13.068,293.898 13.318,293.786L13.318,294.781C13.057,294.927 12.766,295 12.443,295C10.814,295 10,293.67 10,291.01C10,289.573 10.198,288.503 10.594,287.802C10.993,287.101 11.602,286.75 12.422,286.75C12.724,286.75 13.023,286.83 13.318,286.99L13.318,286.99Z" style="fill:rgb(158,161,168);fill-rule:nonzero;"/>
            <path id="path1081" d="M13.583,286.859L17.109,286.859L17.109,287.807L15.896,287.807L15.896,294.901L14.833,294.901L14.833,287.807L13.583,287.807L13.583,286.859Z" style="fill:rgb(158,161,168);fill-rule:nonzero;"/>
            <path id="path1083" d="M17.703,286.859L19.13,286.859C19.72,286.859 20.16,287 20.448,287.281C20.812,287.646 20.995,288.203 20.995,288.953C20.995,289.53 20.898,289.993 20.703,290.344C20.512,290.691 20.238,290.906 19.88,290.99L21.359,294.901L20.26,294.901L18.786,290.964L18.786,294.901L17.703,294.901L17.703,286.859ZM18.786,290.422C19.207,290.422 19.503,290.325 19.677,290.13C19.851,289.936 19.937,289.608 19.937,289.146C19.937,288.896 19.918,288.682 19.88,288.505C19.845,288.328 19.788,288.184 19.708,288.073C19.632,287.962 19.531,287.88 19.406,287.828C19.285,287.776 19.139,287.75 18.969,287.75L18.786,287.75L18.786,290.422Z" style="fill:rgb(158,161,168);fill-rule:nonzero;"/>
            <path id="path1085" d="M22.203,286.859L23.286,286.859L23.286,293.984L25.057,293.984L25.057,294.901L22.203,294.901L22.203,286.859Z" style="fill:rgb(158,161,168);fill-rule:nonzero;"/>
            <path id="path1087" d="M31.359,290.943C31.359,292.387 31.22,293.429 30.943,294.068C30.668,294.686 30.201,294.995 29.542,294.995C28.882,294.995 28.413,294.684 28.135,294.062C27.861,293.458 27.724,292.398 27.724,290.88C27.724,289.363 27.861,288.302 28.135,287.698C28.41,287.073 28.877,286.76 29.536,286.76C30.148,286.76 30.599,287.035 30.891,287.583C31.203,288.163 31.359,289.283 31.359,290.943ZM30.255,290.943C30.255,289.727 30.203,288.887 30.099,288.422C29.995,287.96 29.806,287.729 29.531,287.729C29.257,287.729 29.066,287.958 28.958,288.417C28.854,288.875 28.802,289.7 28.802,290.891C28.802,292.082 28.854,292.908 28.958,293.37C29.066,293.828 29.257,294.057 29.531,294.057C29.802,294.057 29.99,293.83 30.094,293.375C30.201,292.941 30.255,292.13 30.255,290.943Z" style="fill:rgb(158,161,168);fill-rule:nonzero;"/>
            <path id="path1089" d="M34.75,290.536C35.111,290.668 35.359,290.878 35.495,291.167C35.63,291.455 35.698,291.922 35.698,292.568C35.698,293.401 35.557,294.014 35.276,294.406C34.998,294.799 34.561,294.995 33.964,294.995C33.363,294.995 32.922,294.799 32.641,294.406C32.363,294.014 32.224,293.401 32.224,292.568C32.224,291.922 32.292,291.455 32.427,291.167C32.562,290.878 32.811,290.668 33.172,290.536C32.852,290.398 32.627,290.193 32.495,289.922C32.363,289.63 32.297,289.236 32.297,288.74C32.297,288.396 32.328,288.099 32.391,287.849C32.457,287.599 32.557,287.394 32.693,287.234C32.828,287.071 33,286.951 33.208,286.875C33.42,286.799 33.672,286.76 33.964,286.76C34.255,286.76 34.505,286.799 34.714,286.875C34.922,286.951 35.094,287.071 35.229,287.234C35.365,287.394 35.464,287.599 35.526,287.849C35.592,288.099 35.625,288.396 35.625,288.74C35.625,289.236 35.559,289.63 35.427,289.922C35.295,290.193 35.069,290.398 34.75,290.536ZM34.557,288.828C34.557,288.071 34.358,287.693 33.958,287.693C33.562,287.693 33.365,288.068 33.365,288.818C33.365,289.651 33.564,290.068 33.964,290.068C34.359,290.068 34.557,289.655 34.557,288.828ZM34.63,292.693C34.63,292.411 34.618,292.172 34.594,291.974C34.569,291.773 34.529,291.609 34.474,291.484C34.418,291.359 34.347,291.267 34.26,291.208C34.177,291.149 34.076,291.12 33.958,291.12C33.726,291.12 33.556,291.24 33.448,291.479C33.344,291.719 33.292,292.106 33.292,292.641C33.292,293.575 33.516,294.042 33.964,294.042C34.408,294.042 34.63,293.592 34.63,292.693L34.63,292.693Z" style="fill:rgb(158,161,168);fill-rule:nonzero;"/>
        </g>
        <g id="text995" opacity="0.99">
            <path id="path1066" d="M13.318,311.99L13.318,312.964C13.04,312.828 12.807,312.76 12.62,312.76C12.363,312.76 12.142,312.825 11.958,312.953C11.774,313.078 11.622,313.273 11.5,313.536C11.382,313.8 11.293,314.135 11.234,314.542C11.179,314.944 11.151,315.422 11.151,315.974C11.151,317.96 11.66,318.953 12.677,318.953C12.854,318.953 13.068,318.898 13.318,318.786L13.318,319.781C13.057,319.927 12.766,320 12.443,320C10.814,320 10,318.67 10,316.01C10,314.573 10.198,313.504 10.594,312.802C10.993,312.101 11.602,311.75 12.422,311.75C12.724,311.75 13.023,311.83 13.318,311.99L13.318,311.99Z" style="fill:rgb(158,161,168);fill-rule:nonzero;"/>
            <path id="path1068" d="M13.583,311.859L17.109,311.859L17.109,312.807L15.896,312.807L15.896,319.901L14.833,319.901L14.833,312.807L13.583,312.807L13.583,311.859Z" style="fill:rgb(158,161,168);fill-rule:nonzero;"/>
            <path id="path1070" d="M17.703,311.859L19.13,311.859C19.72,311.859 20.16,312 20.448,312.281C20.812,312.646 20.995,313.203 20.995,313.953C20.995,314.53 20.898,314.993 20.703,315.344C20.512,315.691 20.238,315.906 19.88,315.99L21.359,319.901L20.26,319.901L18.786,315.964L18.786,319.901L17.703,319.901L17.703,311.859ZM18.786,315.422C19.207,315.422 19.503,315.325 19.677,315.13C19.851,314.936 19.937,314.608 19.937,314.146C19.937,313.896 19.918,313.682 19.88,313.505C19.845,313.328 19.788,313.184 19.708,313.073C19.632,312.962 19.531,312.88 19.406,312.828C19.285,312.776 19.139,312.75 18.969,312.75L18.786,312.75L18.786,315.422Z" style="fill:rgb(158,161,168);fill-rule:nonzero;"/>
            <path id="path1072" d="M22.203,311.859L23.286,311.859L23.286,318.984L25.057,318.984L25.057,319.901L22.203,319.901L22.203,311.859Z" style="fill:rgb(158,161,168);fill-rule:nonzero;"/>
            <path id="path1074" d="M31.359,315.943C31.359,317.387 31.22,318.429 30.943,319.068C30.668,319.686 30.201,319.995 29.542,319.995C28.882,319.995 28.413,319.684 28.135,319.063C27.861,318.458 27.724,317.398 27.724,315.88C27.724,314.363 27.861,313.302 28.135,312.698C28.41,312.073 28.877,311.76 29.536,311.76C30.148,311.76 30.599,312.035 30.891,312.583C31.203,313.163 31.359,314.283 31.359,315.943ZM30.255,315.943C30.255,314.727 30.203,313.887 30.099,313.422C29.995,312.96 29.806,312.729 29.531,312.729C29.257,312.729 29.066,312.958 28.958,313.417C28.854,313.875 28.802,314.7 28.802,315.891C28.802,317.082 28.854,317.908 28.958,318.37C29.066,318.828 29.257,319.057 29.531,319.057C29.802,319.057 29.99,318.83 30.094,318.375C30.201,317.941 30.255,317.13 30.255,315.943Z" style="fill:rgb(158,161,168);fill-rule:nonzero;"/>
            <path id="path1076" d="M34.021,319.901L32.865,319.901L33.641,318.339C33.78,318.054 33.917,317.762 34.052,317.464C34.191,317.161 34.326,316.847 34.458,316.521C34.191,316.736 33.915,316.844 33.63,316.844C33.155,316.844 32.804,316.653 32.578,316.271C32.352,315.885 32.24,315.288 32.24,314.479C32.24,313.507 32.372,312.811 32.635,312.391C32.899,311.97 33.339,311.76 33.953,311.76C34.575,311.76 35.019,311.972 35.286,312.396C35.554,312.819 35.687,313.524 35.687,314.51C35.687,315.24 35.604,315.913 35.437,316.531C35.358,316.837 35.243,317.179 35.094,317.557C34.944,317.932 34.759,318.354 34.536,318.823L34.115,319.703L34.021,319.901ZM34.63,314.339C34.63,313.28 34.403,312.75 33.948,312.75C33.497,312.75 33.271,313.273 33.271,314.318C33.271,314.866 33.323,315.264 33.427,315.51C33.535,315.757 33.708,315.88 33.948,315.88C34.187,315.88 34.361,315.759 34.469,315.516C34.576,315.269 34.63,314.877 34.63,314.339L34.63,314.339Z" style="fill:rgb(158,161,168);fill-rule:nonzero;"/>
        </g>
        <g id="text999" opacity="0.99">
            <path id="path1053" d="M13.318,336.99L13.318,337.964C13.04,337.828 12.807,337.76 12.62,337.76C12.363,337.76 12.142,337.825 11.958,337.953C11.774,338.078 11.622,338.273 11.5,338.536C11.382,338.8 11.293,339.135 11.234,339.542C11.179,339.944 11.151,340.422 11.151,340.974C11.151,342.96 11.66,343.953 12.677,343.953C12.854,343.953 13.068,343.898 13.318,343.786L13.318,344.781C13.057,344.927 12.766,345 12.443,345C10.814,345 10,343.67 10,341.01C10,339.573 10.198,338.504 10.594,337.802C10.993,337.101 11.602,336.75 12.422,336.75C12.724,336.75 13.023,336.83 13.318,336.99L13.318,336.99Z" style="fill:rgb(158,161,168);fill-rule:nonzero;"/>
            <path id="path1055" d="M13.583,336.859L17.109,336.859L17.109,337.807L15.896,337.807L15.896,344.901L14.833,344.901L14.833,337.807L13.583,337.807L13.583,336.859Z" style="fill:rgb(158,161,168);fill-rule:nonzero;"/>
            <path id="path1057" d="M17.703,336.859L19.13,336.859C19.72,336.859 20.16,337 20.448,337.281C20.812,337.646 20.995,338.203 20.995,338.953C20.995,339.53 20.898,339.993 20.703,340.344C20.512,340.691 20.238,340.906 19.88,340.99L21.359,344.901L20.26,344.901L18.786,340.964L18.786,344.901L17.703,344.901L17.703,336.859ZM18.786,340.422C19.207,340.422 19.503,340.325 19.677,340.13C19.851,339.936 19.937,339.608 19.937,339.146C19.937,338.896 19.918,338.682 19.88,338.505C19.845,338.328 19.788,338.184 19.708,338.073C19.632,337.962 19.531,337.88 19.406,337.828C19.285,337.776 19.139,337.75 18.969,337.75L18.786,337.75L18.786,340.422Z" style="fill:rgb(158,161,168);fill-rule:nonzero;"/>
            <path id="path1059" d="M22.203,336.859L23.286,336.859L23.286,343.984L25.057,343.984L25.057,344.901L22.203,344.901L22.203,336.859Z" style="fill:rgb(158,161,168);fill-rule:nonzero;"/>
            <path id="path1061" d="M28.286,336.859L30.12,336.859L30.12,344.901L29.083,344.901L29.083,337.781L28.286,337.781L28.286,336.859Z" style="fill:rgb(158,161,168);fill-rule:nonzero;"/>
            <path id="path1063" d="M35.234,340.943C35.234,342.387 35.095,343.429 34.818,344.068C34.543,344.686 34.076,344.995 33.417,344.995C32.757,344.995 32.288,344.684 32.01,344.063C31.736,343.458 31.599,342.398 31.599,340.88C31.599,339.363 31.736,338.302 32.01,337.698C32.285,337.073 32.752,336.76 33.411,336.76C34.023,336.76 34.474,337.035 34.766,337.583C35.078,338.163 35.234,339.283 35.234,340.943ZM34.13,340.943C34.13,339.727 34.078,338.887 33.974,338.422C33.87,337.96 33.681,337.729 33.406,337.729C33.132,337.729 32.941,337.958 32.833,338.417C32.729,338.875 32.677,339.7 32.677,340.891C32.677,342.082 32.729,342.908 32.833,343.37C32.941,343.828 33.132,344.057 33.406,344.057C33.677,344.057 33.865,343.83 33.969,343.375C34.076,342.941 34.13,342.13 34.13,340.943Z" style="fill:rgb(158,161,168);fill-rule:nonzero;"/>
        </g>
        <g id="text1003" opacity="0.99">
            <path id="path1013" d="M12.089,90.672L14.057,90.672L14.057,90.984C14.057,92.55 13.92,93.608 13.646,94.156C13.375,94.719 12.868,95 12.125,95C11.358,95 10.811,94.687 10.484,94.062C10.161,93.437 10,92.387 10,90.911C10,89.224 10.177,88.101 10.531,87.542C10.865,87.017 11.377,86.755 12.068,86.755C12.595,86.755 13.007,86.882 13.302,87.135C13.601,87.392 13.833,87.814 14,88.401L12.99,88.823C12.944,88.611 12.894,88.434 12.839,88.292C12.783,88.146 12.722,88.033 12.656,87.953C12.524,87.79 12.326,87.708 12.063,87.708C11.701,87.708 11.455,87.931 11.323,88.375C11.191,88.84 11.125,89.675 11.125,90.88C11.125,92.099 11.193,92.924 11.328,93.354C11.464,93.785 11.719,94 12.094,94C12.437,94 12.679,93.847 12.818,93.542C12.96,93.215 13.031,92.691 13.031,91.969L13.031,91.75L13.031,91.589L12.089,91.589L12.089,90.672Z" style="fill:rgb(158,161,168);fill-rule:nonzero;"/>
            <path id="path1015" d="M15.141,86.859L16.224,86.859L16.224,93.984L17.995,93.984L17.995,94.901L15.141,94.901L15.141,86.859Z" style="fill:rgb(158,161,168);fill-rule:nonzero;"/>
            <path id="path1017" d="M22.708,91.078C22.708,92.498 22.55,93.507 22.234,94.104C21.918,94.701 21.389,95 20.646,95C19.865,95 19.314,94.679 18.995,94.036C18.679,93.408 18.521,92.292 18.521,90.687C18.521,89.257 18.677,88.245 18.99,87.651C19.306,87.054 19.84,86.755 20.594,86.755C21.267,86.755 21.767,86.986 22.094,87.448C22.309,87.757 22.465,88.196 22.562,88.766C22.66,89.293 22.708,90.064 22.708,91.078L22.708,91.078ZM21.573,91.193C21.573,89.8 21.51,88.877 21.385,88.422C21.26,87.964 21.005,87.734 20.62,87.734C20.234,87.734 19.977,87.944 19.849,88.365C19.724,88.788 19.661,89.639 19.661,90.917C19.661,92.094 19.727,92.91 19.859,93.365C19.995,93.795 20.248,94.01 20.62,94.01C20.984,94.01 21.234,93.809 21.37,93.406C21.505,93.007 21.573,92.269 21.573,91.193L21.573,91.193Z" style="fill:rgb(158,161,168);fill-rule:nonzero;"/>
            <path id="path1019" d="M23.786,86.859L25.255,86.859C26.405,86.859 26.979,87.573 26.979,89C26.979,89.545 26.905,89.95 26.755,90.214C26.606,90.477 26.342,90.677 25.964,90.812C26.398,90.986 26.694,91.208 26.854,91.479C27.017,91.747 27.099,92.149 27.099,92.687C27.099,94.163 26.467,94.901 25.203,94.901L23.786,94.901L23.786,86.859ZM24.807,90.401C25.227,90.401 25.519,90.304 25.682,90.109C25.845,89.904 25.927,89.545 25.927,89.031C25.927,88.163 25.615,87.729 24.99,87.729L24.906,87.729L24.859,87.729C24.832,87.729 24.814,87.731 24.807,87.734L24.807,90.401ZM24.807,93.974C25.252,93.974 25.559,93.878 25.729,93.688C25.899,93.497 25.984,93.151 25.984,92.651C25.984,92.137 25.896,91.778 25.719,91.573C25.545,91.365 25.241,91.26 24.807,91.26L24.807,93.974Z" style="fill:rgb(158,161,168);fill-rule:nonzero;"/>
            <path id="path1021" d="M29.37,86.859L30.214,86.859L31.937,94.901L30.865,94.901L30.562,93.333L28.969,93.333L28.661,94.901L27.62,94.901L29.37,86.859ZM30.406,92.495L30.167,91.214C30.007,90.342 29.877,89.411 29.776,88.422C29.727,88.905 29.665,89.394 29.589,89.891C29.512,90.384 29.422,90.908 29.318,91.464L29.12,92.495L30.406,92.495Z" style="fill:rgb(158,161,168);fill-rule:nonzero;"/>
            <path id="path1023" d="M32.578,86.859L33.661,86.859L33.661,93.984L35.432,93.984L35.432,94.901L32.578,94.901L32.578,86.859Z" style="fill:rgb(158,161,168);fill-rule:nonzero;"/>
            <path id="path1025" d="M41.484,86.99L41.484,87.964C41.207,87.828 40.974,87.76 40.786,87.76C40.53,87.76 40.309,87.825 40.125,87.953C39.941,88.078 39.788,88.273 39.667,88.536C39.549,88.8 39.46,89.135 39.401,89.542C39.345,89.944 39.318,90.422 39.318,90.974C39.318,92.96 39.826,93.953 40.844,93.953C41.021,93.953 41.234,93.898 41.484,93.786L41.484,94.781C41.224,94.927 40.932,95 40.609,95C38.981,95 38.167,93.67 38.167,91.01C38.167,89.573 38.365,88.503 38.76,87.802C39.16,87.101 39.769,86.75 40.589,86.75C40.891,86.75 41.189,86.83 41.484,86.99L41.484,86.99Z" style="fill:rgb(158,161,168);fill-rule:nonzero;"/>
            <path id="path1027" d="M41.75,86.859L42.818,86.859L43.302,89.828L43.385,90.365L43.557,91.531C43.585,91.729 43.609,91.91 43.63,92.073C43.654,92.236 43.675,92.384 43.693,92.516L43.745,92.911C43.755,92.832 43.764,92.76 43.771,92.698C43.778,92.635 43.785,92.583 43.792,92.542L43.932,91.609L44.115,90.385C44.132,90.274 44.148,90.172 44.161,90.078C44.179,89.984 44.194,89.901 44.208,89.828L44.729,86.859L45.74,86.859L44.161,94.901L43.302,94.901L41.75,86.859Z" style="fill:rgb(158,161,168);fill-rule:nonzero;"/>
            <rect id="path1029" x="48.536" y="86.859" width="1.083" height="8.042" style="fill:rgb(158,161,168);fill-rule:nonzero;"/>
            <path id="path1031" d="M50.87,86.859L51.88,86.859L52.958,90.068C53.271,90.974 53.547,91.941 53.786,92.969C53.7,92.347 53.635,91.785 53.594,91.281C53.552,90.778 53.531,90.304 53.531,89.859L53.531,86.859L54.62,86.859L54.62,94.901L53.604,94.901L52.391,91.281C52.279,90.944 52.174,90.599 52.073,90.245C51.976,89.891 51.885,89.519 51.802,89.13C51.795,89.082 51.783,89.023 51.766,88.953C51.752,88.884 51.735,88.804 51.714,88.714C51.724,88.804 51.733,88.882 51.74,88.948C51.747,89.01 51.752,89.064 51.755,89.109L51.813,89.927L51.87,90.922C51.873,90.977 51.875,91.045 51.875,91.125C51.879,91.205 51.88,91.295 51.88,91.396L51.938,94.901L50.87,94.901L50.87,86.859Z" style="fill:rgb(158,161,168);fill-rule:nonzero;"/>
        </g>
        <g id="text930" transform="matrix(1,0,0,1,-2.39852,8)">
            <g opacity="0.99">
                <path id="path960" d="M70.493,31.383C70.222,31.383 70.018,31.516 69.881,31.784C69.745,32.049 69.678,32.45 69.678,32.984C69.678,33.517 69.745,33.918 69.881,34.185C70.018,34.451 70.222,34.583 70.493,34.583C70.765,34.583 70.969,34.451 71.105,34.185C71.242,33.918 71.311,33.517 71.311,32.984C71.311,32.45 71.242,32.049 71.105,31.784C70.969,31.516 70.765,31.383 70.493,31.383ZM70.493,30.966C70.929,30.966 71.261,31.139 71.49,31.484C71.721,31.828 71.837,32.328 71.837,32.984C71.837,33.639 71.721,34.139 71.49,34.484C71.261,34.828 70.929,35 70.493,35C70.057,35 69.724,34.828 69.493,34.484C69.264,34.139 69.149,33.639 69.149,32.984C69.149,32.328 69.264,31.828 69.493,31.484C69.724,31.139 70.057,30.966 70.493,30.966Z" style="fill:rgb(158,161,168);fill-rule:nonzero;"/>
                <path id="path962" d="M72.352,32.008L72.86,32.008L73.771,34.456L74.683,32.008L75.191,32.008L74.097,34.924L73.446,34.924L72.352,32.008Z" style="fill:rgb(158,161,168);fill-rule:nonzero;"/>
                <path id="path964" d="M77.709,34.482L78.568,34.482L78.568,31.516L77.633,31.703L77.633,31.224L78.563,31.036L79.089,31.036L79.089,34.482L79.949,34.482L79.949,34.924L77.709,34.924L77.709,34.482Z" style="fill:rgb(158,161,168);fill-rule:nonzero;"/>
                <path id="path966" d="M82.139,31.383C81.868,31.383 81.664,31.516 81.527,31.784C81.391,32.049 81.324,32.45 81.324,32.984C81.324,33.517 81.391,33.918 81.527,34.185C81.664,34.451 81.868,34.583 82.139,34.583C82.411,34.583 82.615,34.451 82.751,34.185C82.888,33.918 82.956,33.517 82.956,32.984C82.956,32.45 82.888,32.049 82.751,31.784C82.615,31.516 82.411,31.383 82.139,31.383ZM82.139,30.966C82.574,30.966 82.907,31.139 83.136,31.484C83.367,31.828 83.482,32.328 83.482,32.984C83.482,33.639 83.367,34.139 83.136,34.484C82.907,34.828 82.574,35 82.139,35C81.703,35 81.37,34.828 81.139,34.484C80.909,34.139 80.795,33.639 80.795,32.984C80.795,32.328 80.909,31.828 81.139,31.484C81.37,31.139 81.703,30.966 82.139,30.966Z" style="fill:rgb(158,161,168);fill-rule:nonzero;"/>
                <path id="path968" d="M83.998,32.008L84.506,32.008L85.417,34.456L86.329,32.008L86.837,32.008L85.743,34.924L85.092,34.924L83.998,32.008Z" style="fill:rgb(158,161,168);fill-rule:nonzero;"/>
            </g>
        </g>
        <g id="text934" transform="matrix(1,0,0,1,-1.50045,12)">
            <g opacity="0.99">
                <rect id="path947" x="66.728" y="58.25" width="1.404" height="0.427" style="fill:rgb(158,161,168);fill-rule:nonzero;"/>
                <path id="path949" d="M68.971,56.036L71.036,56.036L71.036,56.479L69.452,56.479L69.452,57.432C69.529,57.406 69.605,57.387 69.682,57.375C69.758,57.361 69.834,57.354 69.911,57.354C70.345,57.354 70.688,57.473 70.942,57.711C71.195,57.949 71.322,58.271 71.322,58.677C71.322,59.096 71.192,59.421 70.932,59.654C70.671,59.885 70.304,60 69.83,60C69.667,60 69.5,59.986 69.33,59.958C69.162,59.931 68.987,59.889 68.807,59.833L68.807,59.305C68.963,59.39 69.124,59.453 69.291,59.495C69.458,59.537 69.634,59.557 69.82,59.557C70.12,59.557 70.358,59.478 70.533,59.32C70.708,59.162 70.796,58.948 70.796,58.677C70.796,58.406 70.708,58.192 70.533,58.034C70.358,57.876 70.12,57.797 69.82,57.797C69.679,57.797 69.538,57.813 69.398,57.844C69.259,57.875 69.116,57.924 68.971,57.99L68.971,56.036Z" style="fill:rgb(158,161,168);fill-rule:nonzero;"/>
                <path id="path951" d="M71.95,57.008L72.458,57.008L73.369,59.456L74.281,57.008L74.788,57.008L73.695,59.924L73.044,59.924L71.95,57.008Z" style="fill:rgb(158,161,168);fill-rule:nonzero;"/>
                <path id="path953" d="M79.098,56.581L79.098,58.031L80.549,58.031L80.549,58.474L79.098,58.474L79.098,59.924L78.661,59.924L78.661,58.474L77.21,58.474L77.21,58.031L78.661,58.031L78.661,56.581L79.098,56.581Z" style="fill:rgb(158,161,168);fill-rule:nonzero;"/>
                <path id="path955" d="M81.689,56.036L83.754,56.036L83.754,56.479L82.171,56.479L82.171,57.432C82.248,57.406 82.324,57.387 82.4,57.375C82.477,57.361 82.553,57.354 82.629,57.354C83.063,57.354 83.407,57.473 83.661,57.711C83.914,57.949 84.041,58.271 84.041,58.677C84.041,59.096 83.911,59.421 83.65,59.654C83.39,59.885 83.023,60 82.549,60C82.386,60 82.219,59.986 82.049,59.958C81.88,59.931 81.706,59.889 81.525,59.833L81.525,59.305C81.682,59.39 81.843,59.453 82.01,59.495C82.176,59.537 82.353,59.557 82.538,59.557C82.839,59.557 83.077,59.478 83.252,59.32C83.427,59.162 83.515,58.948 83.515,58.677C83.515,58.406 83.427,58.192 83.252,58.034C83.077,57.876 82.839,57.797 82.538,57.797C82.398,57.797 82.257,57.813 82.116,57.844C81.978,57.875 81.835,57.924 81.689,57.99L81.689,56.036Z" style="fill:rgb(158,161,168);fill-rule:nonzero;"/>
                <path id="path957" d="M84.669,57.008L85.176,57.008L86.088,59.456L86.999,57.008L87.507,57.008L86.413,59.924L85.762,59.924L84.669,57.008Z" style="fill:rgb(158,161,168);fill-rule:nonzero;"/>
            </g>
        </g>
        <g id="text973" transform="matrix(1,0,0,0.849021,0,5.59606)">
            <g opacity="0.99">
                <path id="path975" d="M64.738,28.924L66.165,28.924C66.755,28.924 67.194,29.065 67.482,29.346C67.847,29.711 68.029,30.268 68.029,31.018C68.029,31.595 67.932,32.058 67.738,32.409C67.547,32.756 67.272,32.971 66.915,33.055L68.394,36.966L67.295,36.966L65.821,33.029L65.821,36.966L64.738,36.966L64.738,28.924ZM65.821,32.487C66.241,32.487 66.538,32.39 66.711,32.195C66.885,32.001 66.972,31.673 66.972,31.211C66.972,30.961 66.953,30.747 66.915,30.57C66.88,30.393 66.823,30.249 66.743,30.138C66.666,30.027 66.566,29.945 66.441,29.893C66.319,29.841 66.173,29.815 66.003,29.815L65.821,29.815L65.821,32.487Z" style="fill:rgb(158,161,168);fill-rule:nonzero;"/>
                <path id="path977" d="M70.383,28.924L71.227,28.924L72.951,36.966L71.878,36.966L71.576,35.398L69.982,35.398L69.675,36.966L68.633,36.966L70.383,28.924ZM71.42,34.56L71.18,33.279C71.021,32.407 70.89,31.477 70.79,30.487C70.741,30.97 70.679,31.459 70.602,31.956C70.526,32.449 70.435,32.973 70.331,33.529L70.133,34.56L71.42,34.56Z" style="fill:rgb(158,161,168);fill-rule:nonzero;"/>
                <path id="path979" d="M73.592,28.924L74.602,28.924L75.68,32.133C75.993,33.039 76.269,34.006 76.508,35.034C76.422,34.412 76.357,33.85 76.316,33.346C76.274,32.843 76.253,32.369 76.253,31.924L76.253,28.924L77.342,28.924L77.342,36.966L76.326,36.966L75.113,33.346C75.001,33.01 74.896,32.664 74.795,32.31C74.698,31.956 74.607,31.584 74.524,31.195C74.517,31.147 74.505,31.088 74.488,31.018C74.474,30.949 74.456,30.869 74.436,30.779C74.446,30.869 74.455,30.947 74.462,31.013C74.469,31.076 74.474,31.129 74.477,31.174L74.534,31.992L74.592,32.987C74.595,33.043 74.597,33.11 74.597,33.19C74.601,33.27 74.602,33.36 74.602,33.461L74.66,36.966L73.592,36.966L73.592,28.924Z" style="fill:rgb(158,161,168);fill-rule:nonzero;"/>
                <path id="path981" d="M80.519,32.737L82.488,32.737L82.488,33.049C82.488,34.615 82.35,35.673 82.076,36.221C81.805,36.784 81.298,37.065 80.555,37.065C79.788,37.065 79.241,36.753 78.915,36.128C78.592,35.503 78.43,34.452 78.43,32.977C78.43,31.289 78.607,30.166 78.961,29.607C79.295,29.082 79.807,28.82 80.498,28.82C81.026,28.82 81.437,28.947 81.732,29.201C82.031,29.457 82.264,29.879 82.43,30.466L81.42,30.888C81.375,30.676 81.324,30.499 81.269,30.357C81.213,30.211 81.152,30.098 81.087,30.018C80.955,29.855 80.757,29.773 80.493,29.773C80.132,29.773 79.885,29.996 79.753,30.44C79.621,30.905 79.555,31.74 79.555,32.945C79.555,34.164 79.623,34.989 79.758,35.419C79.894,35.85 80.149,36.065 80.524,36.065C80.868,36.065 81.109,35.912 81.248,35.607C81.39,35.28 81.461,34.756 81.461,34.034L81.461,33.815L81.461,33.654L80.519,33.654L80.519,32.737Z" style="fill:rgb(158,161,168);fill-rule:nonzero;"/>
                <path id="path983" d="M83.571,28.924L86.451,28.924L86.451,29.841L84.654,29.841L84.654,32.388L86.248,32.388L86.248,33.305L84.654,33.305L84.654,36.049L86.451,36.049L86.451,36.966L83.571,36.966L83.571,28.924Z" style="fill:rgb(158,161,168);fill-rule:nonzero;"/>
            </g>
        </g>
        <g id="text945" transform="matrix(0.910429,0,0,1.09838,0,0)">
            <g opacity="0.99">
                <path id="path948" d="M5.535,15.925L5.535,12.476C6.118,13.272 6.748,13.671 7.427,13.671C7.683,13.671 7.891,13.604 8.052,13.472C8.214,13.334 8.294,13.163 8.294,12.959C8.294,12.665 8.119,12.379 7.768,12.099L7.284,11.722C6.962,11.48 6.687,11.24 6.459,11.003C6.232,10.762 6.047,10.515 5.904,10.264C5.762,10.008 5.658,9.744 5.591,9.474C5.525,9.204 5.492,8.919 5.492,8.621C5.492,8.109 5.61,7.573 5.848,7.013C5.966,6.752 6.104,6.515 6.26,6.302C6.417,6.084 6.597,5.892 6.801,5.726C7.36,5.252 8.036,5.014 8.828,5.014C9.534,5.014 10.246,5.202 10.962,5.576L10.962,8.934C10.72,8.559 10.445,8.265 10.137,8.052C9.828,7.833 9.525,7.724 9.226,7.724C8.998,7.724 8.811,7.791 8.664,7.924C8.512,8.052 8.437,8.206 8.437,8.386C8.437,8.68 8.638,8.972 9.041,9.261L9.511,9.609C10.137,10.06 10.585,10.522 10.855,10.996C11.13,11.47 11.267,12.025 11.267,12.661C11.267,13.742 10.938,14.633 10.279,15.335C9.62,16.037 8.785,16.388 7.775,16.388C7.078,16.388 6.331,16.234 5.535,15.925Z" style="fill:rgb(158,161,168);fill-rule:nonzero;"/>
                <path id="path950" d="M16.908,5.214L19.874,5.214L19.874,12.981C19.874,13.63 19.772,14.157 19.568,14.56C19.369,14.982 19.037,15.363 18.572,15.705C17.946,16.16 17.185,16.388 16.289,16.388C15.274,16.388 14.423,16.136 13.736,15.634C12.863,14.994 12.427,13.969 12.427,12.561L12.427,5.214L15.393,5.214L15.393,12.298C15.393,12.777 15.45,13.116 15.564,13.315C15.682,13.514 15.879,13.614 16.154,13.614C16.438,13.614 16.635,13.521 16.744,13.336C16.853,13.142 16.908,12.798 16.908,12.305L16.908,5.214Z" style="fill:rgb(158,161,168);fill-rule:nonzero;"/>
                <path id="path952" d="M29.227,16.196L26.019,16.196L24.554,12.284C24.54,12.217 24.514,12.13 24.476,12.021C24.443,11.911 24.4,11.781 24.348,11.629L24.369,12.355L24.369,16.196L21.417,16.196L21.417,5.214L24.454,5.214C25.792,5.214 26.792,5.477 27.456,6.003C28.3,6.676 28.722,7.634 28.722,8.877C28.722,10.204 28.155,11.122 27.022,11.629L29.227,16.196ZM24.383,10.299L24.582,10.299C24.924,10.299 25.208,10.169 25.436,9.908C25.664,9.647 25.777,9.315 25.777,8.912C25.777,8.092 25.348,7.682 24.49,7.682L24.383,7.682L24.383,10.299Z" style="fill:rgb(158,161,168);fill-rule:nonzero;"/>
                <path id="path954" d="M34.754,16.196L31.731,16.196L29.213,5.214L32.328,5.214L32.869,8.35C33.073,9.55 33.236,10.892 33.36,12.376C33.412,11.717 33.476,11.101 33.552,10.527C33.627,9.953 33.718,9.394 33.822,8.848L34.526,5.214L37.748,5.214L34.754,16.196Z" style="fill:rgb(158,161,168);fill-rule:nonzero;"/>
                <path id="path956" d="M38.516,16.196L38.516,5.214L44.029,5.214L44.029,7.796L41.482,7.796L41.482,9.396L43.766,9.396L43.766,11.878L41.482,11.878L41.482,13.557L44.029,13.557L44.029,16.196L38.516,16.196Z" style="fill:rgb(158,161,168);fill-rule:nonzero;"/>
                <rect id="path958" x="45.288" y="5.214" width="2.966" height="10.982" style="fill:rgb(158,161,168);fill-rule:nonzero;"/>
                <path id="path961" d="M54.975,16.196L49.783,16.196L49.783,5.214L52.749,5.214L52.749,13.557L54.975,13.557L54.975,16.196Z" style="fill:rgb(158,161,168);fill-rule:nonzero;"/>
                <path id="path963" d="M61.064,16.196L55.871,16.196L55.871,5.214L58.837,5.214L58.837,13.557L61.064,13.557L61.064,16.196Z" style="fill:rgb(158,161,168);fill-rule:nonzero;"/>
                <path id="path965" d="M70.268,16.196L67.202,16.196L66.981,14.802L64.983,14.802L64.741,16.196L61.675,16.196L64.314,5.214L67.942,5.214L70.268,16.196ZM66.633,12.447L66.441,11.167C66.436,11.162 66.427,11.098 66.413,10.975C66.403,10.871 66.353,10.458 66.263,9.737C66.254,9.657 66.242,9.548 66.228,9.41C66.214,9.268 66.195,9.09 66.171,8.877L66.078,7.838C66.069,7.938 66.054,8.049 66.035,8.173C66.021,8.296 66.005,8.431 65.986,8.578C65.952,8.872 65.929,9.076 65.915,9.19C65.9,9.303 65.891,9.372 65.886,9.396L65.68,10.726L65.381,12.447L66.633,12.447Z" style="fill:rgb(158,161,168);fill-rule:nonzero;"/>
                <path id="path967" d="M71.121,16.196L71.121,5.214L73.952,5.214L75.438,9.069C75.519,9.296 75.609,9.557 75.709,9.851C75.813,10.145 75.927,10.484 76.05,10.868L76.356,11.836C76.247,10.882 76.164,10.067 76.107,9.389C76.05,8.711 76.022,8.142 76.022,7.682L76.022,5.214L78.853,5.214L78.853,16.196L76.022,16.196L74.528,12.156C74.372,11.724 74.229,11.321 74.101,10.946C73.978,10.567 73.869,10.207 73.774,9.865C73.836,10.638 73.881,11.312 73.909,11.885C73.938,12.459 73.952,12.962 73.952,13.393L73.952,16.196L71.121,16.196Z" style="fill:rgb(158,161,168);fill-rule:nonzero;"/>
                <path id="path969" d="M86.684,12.817L86.513,15.989C85.854,16.255 85.264,16.388 84.742,16.388C83.514,16.388 82.48,15.937 81.641,15.036C80.702,14.026 80.232,12.597 80.232,10.747C80.232,9.017 80.673,7.627 81.555,6.579C82.437,5.536 83.616,5.014 85.09,5.014C85.569,5.014 86.058,5.105 86.556,5.285L86.556,8.421C86.115,7.98 85.662,7.76 85.197,7.76C84.59,7.76 84.116,8.018 83.775,8.535C83.433,9.057 83.262,9.778 83.262,10.698C83.262,11.143 83.305,11.542 83.39,11.892C83.476,12.243 83.597,12.54 83.753,12.782C83.914,13.023 84.111,13.208 84.344,13.336C84.576,13.464 84.841,13.528 85.14,13.528C85.652,13.528 86.167,13.291 86.684,12.817L86.684,12.817Z" style="fill:rgb(158,161,168);fill-rule:nonzero;"/>
                <path id="path971" d="M87.85,16.196L87.85,5.214L93.363,5.214L93.363,7.796L90.816,7.796L90.816,9.396L93.099,9.396L93.099,11.878L90.816,11.878L90.816,13.557L93.363,13.557L93.363,16.196L87.85,16.196Z" style="fill:rgb(158,161,168);fill-rule:nonzero;"/>
            </g>
        </g>
    </g>
</svg>
