<?xml version="1.0" encoding="UTF-8" standalone="no"?>
<!DOCTYPE svg PUBLIC "-//W3C//DTD SVG 1.1//EN" "http://www.w3.org/Graphics/SVG/1.1/DTD/svg11.dtd">
<svg width="100%" height="100%" viewBox="0 0 105 380" version="1.1" xmlns="http://www.w3.org/2000/svg" xmlns:xlink="http://www.w3.org/1999/xlink" xml:space="preserve" xmlns:serif="http://www.serif.com/" style="fill-rule:evenodd;clip-rule:evenodd;stroke-linejoin:round;stroke-miterlimit:2;">
    <g id="Layer-2" serif:id="Layer 2">
        <g id="text989">
        </g>
        <rect id="rect4689" x="0" y="0" width="105" height="380" style="fill:rgb(44,45,48);fill-rule:nonzero;"/>
        <g id="text4987">
        </g>
        <g id="text1042">
        </g>
        <g id="text2090">
        </g>
        <g id="text1292">
            <path id="path1298" d="M9.329,17.408L9.329,12.987C10.076,14.008 10.884,14.518 11.753,14.518C12.081,14.518 12.349,14.433 12.555,14.263C12.762,14.087 12.865,13.868 12.865,13.607C12.865,13.23 12.64,12.862 12.191,12.504L11.571,12.021C11.158,11.711 10.805,11.404 10.514,11.1C10.222,10.79 9.985,10.474 9.803,10.152C9.62,9.824 9.487,9.487 9.402,9.141C9.317,8.794 9.274,8.43 9.274,8.047C9.274,7.391 9.426,6.704 9.73,5.987C9.882,5.653 10.058,5.349 10.258,5.076C10.459,4.796 10.69,4.55 10.951,4.337C11.668,3.73 12.534,3.426 13.549,3.426C14.454,3.426 15.366,3.666 16.283,4.146L16.283,8.448C15.973,7.968 15.621,7.591 15.226,7.318C14.831,7.038 14.442,6.898 14.059,6.898C13.768,6.898 13.528,6.984 13.339,7.154C13.145,7.318 13.048,7.515 13.048,7.746C13.048,8.123 13.306,8.497 13.822,8.867L14.424,9.314C15.226,9.891 15.8,10.484 16.146,11.091C16.499,11.699 16.675,12.41 16.675,13.224C16.675,14.609 16.253,15.752 15.408,16.651C14.564,17.55 13.494,18 12.2,18C11.307,18 10.35,17.803 9.329,17.408Z" style="fill:rgb(158,161,168);fill-rule:nonzero;"/>
            <path id="path1300" d="M24.614,17.754L20.813,17.754L20.813,11.793L17.322,3.681L21.287,3.681L21.971,5.768C22.104,6.175 22.223,6.567 22.326,6.944C22.436,7.321 22.533,7.682 22.618,8.029C22.758,7.512 22.879,7.069 22.982,6.698C23.086,6.321 23.177,6.017 23.256,5.786L23.949,3.681L27.886,3.681L24.614,11.793L24.614,17.754Z" style="fill:rgb(158,161,168);fill-rule:nonzero;"/>
            <path id="path1302" d="M28.88,17.754L28.88,3.681L32.507,3.681L34.412,8.621C34.515,8.913 34.631,9.247 34.758,9.624C34.892,10 35.038,10.435 35.196,10.927L35.588,12.167C35.448,10.945 35.342,9.9 35.269,9.031C35.196,8.162 35.16,7.433 35.16,6.844L35.16,3.681L38.787,3.681L38.787,17.754L35.16,17.754L33.245,12.577C33.045,12.024 32.863,11.507 32.699,11.027C32.541,10.541 32.401,10.079 32.279,9.642C32.358,10.632 32.416,11.495 32.452,12.23C32.489,12.966 32.507,13.61 32.507,14.163L32.507,17.754L28.88,17.754Z" style="fill:rgb(158,161,168);fill-rule:nonzero;"/>
            <path id="path1304" d="M45.678,17.754L41.877,17.754L41.877,7.053L39.781,7.053L39.781,3.681L47.856,3.681L47.856,7.053L45.678,7.053L45.678,17.754Z" style="fill:rgb(158,161,168);fill-rule:nonzero;"/>
            <path id="path1306" d="M58.274,17.754L54.473,17.754L54.473,12.094L52.66,12.094L52.66,17.754L48.859,17.754L48.859,3.681L52.66,3.681L52.66,8.658L54.473,8.658L54.473,3.681L58.274,3.681L58.274,17.754Z" style="fill:rgb(158,161,168);fill-rule:nonzero;"/>
            <rect id="path1308" x="60.234" y="3.681" width="3.801" height="14.073" style="fill:rgb(158,161,168);fill-rule:nonzero;"/>
            <path id="path1310" d="M76.321,17.754L72.219,17.754L69.695,11.264L69.795,17.754L65.994,17.754L65.994,3.681L69.795,3.681L69.695,9.715L71.937,3.681L75.947,3.681L72.912,10.471L76.321,17.754Z" style="fill:rgb(158,161,168);fill-rule:nonzero;"/>
            <path id="path1312" d="M87.541,17.754L83.613,17.754L83.33,15.967L80.769,15.967L80.459,17.754L76.531,17.754L79.912,3.681L84.561,3.681L87.541,17.754ZM82.883,12.951L82.637,11.31C82.631,11.304 82.619,11.222 82.601,11.064C82.589,10.93 82.525,10.401 82.41,9.478C82.398,9.375 82.382,9.235 82.364,9.059C82.346,8.876 82.322,8.648 82.291,8.375L82.173,7.044C82.161,7.172 82.142,7.315 82.118,7.473C82.1,7.631 82.079,7.804 82.054,7.992C82.012,8.369 81.981,8.63 81.963,8.776C81.945,8.922 81.933,9.01 81.927,9.04L81.662,10.745L81.28,12.951L82.883,12.951Z" style="fill:rgb(158,161,168);fill-rule:nonzero;"/>
            <path id="path1314" d="M93.548,17.754L89.747,17.754L89.747,7.053L87.65,7.053L87.65,3.681L95.726,3.681L95.726,7.053L93.548,7.053L93.548,17.754Z" style="fill:rgb(158,161,168);fill-rule:nonzero;"/>
        </g>
        <g id="text1296">
            <path id="path1317" d="M28.102,377.859L28.102,369.818L30.174,369.818L31.263,372.641C31.322,372.807 31.388,372.998 31.461,373.214C31.537,373.429 31.621,373.677 31.711,373.958L31.935,374.667C31.855,373.969 31.794,373.372 31.753,372.875C31.711,372.378 31.69,371.962 31.69,371.625L31.69,369.818L33.763,369.818L33.763,377.859L31.69,377.859L30.596,374.901C30.482,374.585 30.378,374.29 30.284,374.016C30.194,373.738 30.114,373.474 30.044,373.224C30.089,373.79 30.122,374.283 30.143,374.703C30.164,375.123 30.174,375.491 30.174,375.807L30.174,377.859L28.102,377.859Z" style="fill:rgb(230,230,230);fill-rule:nonzero;"/>
            <path id="path1319" d="M38.497,377.859L36.326,377.859L36.326,374.453L34.331,369.818L36.596,369.818L36.987,371.01C37.063,371.243 37.131,371.467 37.19,371.682C37.253,371.898 37.308,372.104 37.357,372.302C37.437,372.007 37.506,371.753 37.565,371.542C37.624,371.326 37.676,371.153 37.721,371.021L38.117,369.818L40.367,369.818L38.497,374.453L38.497,377.859Z" style="fill:rgb(230,230,230);fill-rule:nonzero;"/>
            <path id="path1321" d="M40.576,377.661L40.576,375.135C41.003,375.719 41.464,376.01 41.961,376.01C42.148,376.01 42.301,375.962 42.419,375.865C42.537,375.764 42.596,375.639 42.596,375.49C42.596,375.274 42.468,375.064 42.211,374.859L41.857,374.583C41.621,374.406 41.419,374.231 41.253,374.057C41.086,373.88 40.95,373.7 40.846,373.516C40.742,373.328 40.666,373.135 40.617,372.937C40.569,372.74 40.544,372.531 40.544,372.312C40.544,371.937 40.631,371.545 40.805,371.135C40.891,370.944 40.992,370.771 41.107,370.615C41.221,370.455 41.353,370.314 41.503,370.193C41.912,369.845 42.407,369.672 42.987,369.672C43.504,369.672 44.025,369.809 44.549,370.083L44.549,372.542C44.372,372.267 44.171,372.052 43.945,371.896C43.72,371.736 43.497,371.656 43.279,371.656C43.112,371.656 42.975,371.705 42.867,371.802C42.756,371.896 42.701,372.009 42.701,372.141C42.701,372.356 42.848,372.569 43.143,372.781L43.487,373.036C43.945,373.366 44.273,373.705 44.471,374.052C44.673,374.399 44.773,374.806 44.773,375.271C44.773,376.062 44.532,376.715 44.049,377.229C43.567,377.743 42.956,378 42.216,378C41.706,378 41.159,377.887 40.576,377.661L40.576,377.661Z" style="fill:rgb(230,230,230);fill-rule:nonzero;"/>
            <path id="path1323" d="M48.534,377.859L46.362,377.859L46.362,371.745L45.164,371.745L45.164,369.818L49.779,369.818L49.779,371.745L48.534,371.745L48.534,377.859Z" style="fill:rgb(230,230,230);fill-rule:nonzero;"/>
            <path id="path1325" d="M55.732,377.859L53.56,377.859L53.56,374.625L52.523,374.625L52.523,377.859L50.352,377.859L50.352,369.818L52.523,369.818L52.523,372.661L53.56,372.661L53.56,369.818L55.732,369.818L55.732,377.859Z" style="fill:rgb(230,230,230);fill-rule:nonzero;"/>
            <rect id="path1327" x="56.852" y="369.818" width="2.172" height="8.042" style="fill:rgb(230,230,230);fill-rule:nonzero;"/>
            <path id="path1329" d="M62.951,377.859L60.779,377.859L60.779,371.745L59.581,371.745L59.581,369.818L64.195,369.818L64.195,371.745L62.951,371.745L62.951,377.859Z" style="fill:rgb(230,230,230);fill-rule:nonzero;"/>
            <path id="path1331" d="M70.372,377.859L68.128,377.859L67.966,376.839L66.503,376.839L66.326,377.859L64.081,377.859L66.013,369.818L68.669,369.818L70.372,377.859ZM67.711,375.115L67.57,374.177C67.567,374.174 67.56,374.127 67.55,374.036C67.542,373.96 67.506,373.658 67.44,373.13C67.433,373.071 67.424,372.991 67.414,372.891C67.404,372.786 67.39,372.656 67.372,372.5L67.305,371.74C67.298,371.812 67.287,371.894 67.273,371.984C67.263,372.075 67.251,372.174 67.237,372.281C67.213,372.497 67.195,372.646 67.185,372.729C67.175,372.812 67.168,372.863 67.164,372.88L67.013,373.854L66.794,375.115L67.711,375.115Z" style="fill:rgb(230,230,230);fill-rule:nonzero;"/>
            <path id="path1333" d="M76.898,377.859L74.555,377.859L73.112,374.151L73.169,377.859L70.997,377.859L70.997,369.818L73.169,369.818L73.112,373.266L74.393,369.818L76.685,369.818L74.951,373.698L76.898,377.859Z" style="fill:rgb(230,230,230);fill-rule:nonzero;"/>
        </g>
        <rect id="_-rect1480" serif:id="#rect1480" x="5" y="36.875" width="95" height="83.125" style="fill:rgb(50,50,50);"/>
        <rect id="_-rect1478" serif:id="#rect1478" x="5" y="36.875" width="95" height="83.125" style="fill:rgb(81,170,224);"/>
        <path id="_-path5176" serif:id="#path5176" d="M12.479,110.602C11.288,110.483 10.544,110.185 9.984,109.601C9.765,109.373 9.643,109.195 9.5,108.897C9.398,108.682 9.256,108.254 9.279,108.231C9.289,108.22 10.191,108.015 10.227,108.015C10.237,108.015 10.269,108.088 10.298,108.178C10.418,108.55 10.565,108.806 10.8,109.05C11.113,109.375 11.462,109.564 12.001,109.7C12.57,109.844 13.416,109.853 14.053,109.723C14.906,109.548 15.467,109.119 15.676,108.48C15.738,108.291 15.742,108.254 15.742,107.913C15.742,107.599 15.735,107.525 15.692,107.387C15.564,106.982 15.196,106.619 14.653,106.361C14.331,106.209 13.982,106.101 12.993,105.848C11.964,105.585 11.523,105.445 11.133,105.255C10.753,105.071 10.525,104.916 10.312,104.697C10.044,104.423 9.875,104.103 9.782,103.693C9.73,103.462 9.732,102.819 9.785,102.576C9.972,101.723 10.523,101.148 11.449,100.84C11.957,100.67 12.395,100.612 13.153,100.614C13.805,100.615 14.154,100.651 14.579,100.76C15.494,100.997 16.054,101.459 16.377,102.243C16.461,102.448 16.558,102.746 16.545,102.76C16.538,102.766 15.585,102.973 15.561,102.973C15.557,102.973 15.546,102.934 15.537,102.887C15.511,102.743 15.392,102.461 15.294,102.308C14.994,101.838 14.505,101.551 13.795,101.428C13.478,101.373 12.704,101.374 12.367,101.43C11.631,101.552 11.13,101.86 10.898,102.335C10.782,102.572 10.737,102.74 10.719,103.007C10.702,103.267 10.75,103.535 10.851,103.739C11.01,104.062 11.382,104.368 11.863,104.572C12.173,104.703 12.362,104.76 13.399,105.029C14.633,105.349 14.935,105.447 15.391,105.675C15.967,105.963 16.315,106.302 16.544,106.797C16.829,107.413 16.814,108.335 16.509,108.985C16.168,109.713 15.476,110.218 14.476,110.468C14.068,110.57 13.816,110.597 13.175,110.604C12.843,110.608 12.53,110.607 12.479,110.602L12.479,110.602ZM22.553,108.346L22.553,106.212L20.986,103.766C20.124,102.42 19.339,101.193 19.241,101.039L19.062,100.76L19.615,100.76L20.168,100.76L21.602,103.053C22.391,104.314 23.043,105.346 23.051,105.346C23.059,105.346 23.713,104.314 24.503,103.053L25.941,100.76L26.483,100.76C26.781,100.76 27.025,100.765 27.025,100.772C27.025,100.779 26.244,102.006 25.291,103.499L23.557,106.213L23.557,110.479L23.055,110.479L22.553,110.479L22.553,108.346L22.553,108.346ZM29.831,105.619L29.831,100.759L30.977,100.771L34.16,105.044C35.911,107.395 37.347,109.313 37.353,109.308C37.358,109.303 37.352,109.13 37.339,108.925C37.324,108.691 37.315,107.094 37.315,104.656L37.315,100.76L38.205,100.76L38.205,110.479L37.616,110.479L37.028,110.479L34.074,106.506C32.449,104.32 31.028,102.406 30.915,102.253L30.709,101.974L30.723,110.479L30.277,110.479L29.831,110.479L29.831,105.619ZM44.496,106.036L44.49,101.593L42.785,101.587L41.079,101.581L41.079,101.171L41.079,100.76L48.928,100.76L48.928,101.581L47.223,101.587L45.517,101.593L45.511,106.036L45.506,110.479L45.004,110.479L44.502,110.479L44.496,106.036ZM51.78,105.62L51.78,100.76L52.761,100.76L52.761,104.958L58.762,104.958L58.762,102.859L58.762,100.76L59.766,100.76L59.766,110.479L59.264,110.479L58.762,110.479L58.762,108.141L58.762,105.802L55.761,105.802L52.761,105.802L52.761,110.479L52.27,110.479L51.78,110.479L51.78,105.62ZM63.781,105.62L63.781,100.76L64.762,100.76L64.762,110.479L64.272,110.479L63.781,110.479L63.781,105.62ZM68.778,105.62L68.778,100.76L69.782,100.76L69.793,105.371L72.052,103.066L74.31,100.762L74.912,100.761L75.513,100.76L73.501,102.789C72.395,103.905 71.491,104.826 71.492,104.836C71.495,104.852 73.036,106.728 75.972,110.291L76.127,110.479L75.515,110.478L74.904,110.477L72.862,107.971L70.82,105.465L70.302,105.993L69.784,106.521L69.783,108.5L69.781,110.479L69.28,110.479L68.778,110.479L68.778,105.62L68.778,105.62ZM79.478,105.626L81.364,100.771L81.959,100.765L82.553,100.759L82.593,100.856C82.614,100.91 83.458,103.084 84.469,105.688C85.479,108.292 86.311,110.435 86.317,110.451C86.326,110.474 86.22,110.479 85.799,110.474L85.269,110.468L84.704,108.989C84.394,108.176 84.13,107.501 84.118,107.489C84.104,107.475 83.277,107.47 81.934,107.473L79.771,107.479L79.207,108.973L78.642,110.468L78.117,110.474L77.591,110.48L79.478,105.626ZM83.831,106.618C83.825,106.589 83.496,105.714 83.101,104.673C82.705,103.631 82.302,102.553 82.205,102.277C82.109,102.001 82.013,101.729 81.994,101.673L81.958,101.57L81.913,101.707C81.758,102.18 81.486,102.918 80.823,104.664C80.41,105.752 80.072,106.647 80.072,106.655C80.072,106.663 80.92,106.669 81.957,106.669L83.842,106.669L83.831,106.618ZM91.297,106.03L91.297,101.581L89.597,101.581L87.898,101.581L87.898,101.17L87.898,100.76L95.724,100.76L95.724,101.581L94.024,101.581L92.324,101.581L92.324,110.479L91.811,110.479L91.297,110.479L91.297,106.03ZM9.73,94.976L9.73,93.641L95.701,93.641L95.701,96.311L52.715,96.311L9.73,96.311L9.73,94.976ZM9.731,72.576L9.732,54.158L10.056,53.904C12.383,52.084 15.356,50.343 18.252,49.104C18.741,48.895 19.405,48.625 19.43,48.625C19.441,48.625 19.45,53.348 19.45,59.121L19.45,69.616L18.48,69.616L17.51,69.616L17.51,90.995L13.62,90.995L9.73,90.995L9.731,72.576ZM24.629,80.305L24.629,69.616L23.534,69.616L22.439,69.616L22.439,58.609L22.439,47.602L22.547,47.567C23.1,47.389 24.58,47.034 25.496,46.859C27.452,46.487 29.163,46.314 31.194,46.283L32.158,46.268L32.158,69.616L31.143,69.616L30.128,69.616L30.128,90.995L27.378,90.995L24.629,90.995L24.629,80.305ZM47.856,70.869L47.856,50.744L47.987,50.818C49.805,51.848 51.667,53.106 53.457,54.513C54.741,55.522 56.11,56.496 57.273,57.226L57.575,57.415L57.575,69.615L56.566,69.622L55.556,69.628L55.55,80.311L55.545,90.995L51.7,90.995L47.856,90.995L47.856,70.869ZM62.68,80.311L62.675,69.627L61.619,69.621L60.564,69.615L60.564,64.347L60.564,59.078L61.049,59.314C63.391,60.453 65.824,61.305 68.276,61.844C68.78,61.955 69.731,62.133 70.073,62.18L70.284,62.209L70.284,69.615L69.229,69.621L68.173,69.627L68.168,80.311L68.162,90.995L65.424,90.995L62.686,90.995L62.68,80.311ZM75.298,80.311L75.292,69.627L74.282,69.621L73.273,69.615L73.273,66.07L73.273,62.524L74.214,62.537C77.071,62.574 79.885,62.218 82.701,61.463L82.992,61.385L82.992,69.616L81.954,69.616L80.916,69.616L80.916,90.994L78.11,90.994L75.303,90.994L75.298,80.311ZM88.035,80.305L88.035,69.616L86.996,69.616L85.958,69.616L85.964,65.016L85.97,60.416L86.608,60.159C88.313,59.475 89.9,58.699 91.457,57.79C92.908,56.943 94.374,55.951 95.434,55.098C95.569,54.989 95.685,54.9 95.69,54.9C95.696,54.9 95.7,63.021 95.7,72.947L95.7,90.995L91.867,90.995L88.034,90.995L88.035,80.305ZM37.246,80.294L37.246,69.616L36.197,69.616L35.147,69.616L35.147,58.048C35.147,51.686 35.156,46.481 35.166,46.481C35.177,46.481 35.385,46.507 35.628,46.539C38.627,46.932 41.606,47.77 44.473,49.029L44.867,49.202L44.867,90.972L41.057,90.972L37.246,90.972L37.246,80.294Z" style="fill:rgb(255,255,248);fill-rule:nonzero;"/>
        <path id="_-path5178" serif:id="#path5178" d="M12.479,110.602C11.288,110.483 10.544,110.185 9.984,109.601C9.765,109.373 9.643,109.195 9.5,108.897C9.398,108.682 9.256,108.254 9.279,108.231C9.289,108.22 10.191,108.015 10.227,108.015C10.237,108.015 10.269,108.088 10.298,108.178C10.418,108.551 10.565,108.806 10.8,109.05C11.113,109.375 11.462,109.565 12.001,109.7C12.57,109.844 13.416,109.853 14.053,109.723C14.906,109.548 15.467,109.119 15.676,108.48C15.738,108.291 15.742,108.254 15.742,107.913C15.742,107.599 15.735,107.525 15.692,107.387C15.564,106.982 15.196,106.619 14.653,106.361C14.331,106.209 13.982,106.101 12.993,105.848C11.964,105.585 11.523,105.445 11.133,105.255C10.753,105.071 10.525,104.916 10.312,104.697C10.044,104.423 9.875,104.103 9.782,103.693C9.73,103.462 9.732,102.819 9.785,102.576C9.972,101.723 10.523,101.148 11.449,100.84C11.957,100.67 12.395,100.612 13.153,100.614C13.805,100.615 14.154,100.651 14.579,100.76C15.494,100.997 16.054,101.459 16.377,102.243C16.461,102.448 16.558,102.746 16.545,102.76C16.538,102.766 15.585,102.973 15.561,102.973C15.557,102.973 15.546,102.934 15.537,102.887C15.511,102.743 15.392,102.461 15.294,102.308C14.994,101.839 14.505,101.551 13.795,101.428C13.478,101.373 12.704,101.374 12.367,101.43C11.631,101.552 11.13,101.86 10.898,102.335C10.782,102.572 10.737,102.74 10.719,103.007C10.702,103.267 10.75,103.535 10.851,103.739C11.01,104.062 11.382,104.368 11.863,104.572C12.173,104.703 12.362,104.76 13.399,105.029C14.633,105.349 14.935,105.447 15.391,105.675C15.967,105.963 16.315,106.302 16.544,106.797C16.829,107.413 16.814,108.335 16.509,108.985C16.168,109.713 15.476,110.218 14.476,110.468C14.068,110.57 13.816,110.597 13.175,110.604C12.843,110.608 12.53,110.607 12.479,110.602L12.479,110.602ZM22.553,108.346L22.553,106.213L20.986,103.766C20.124,102.42 19.339,101.193 19.241,101.039L19.062,100.76L19.615,100.76L20.168,100.76L21.602,103.053C22.391,104.314 23.043,105.346 23.051,105.346C23.059,105.346 23.713,104.314 24.503,103.053L25.941,100.76L26.483,100.76C26.781,100.76 27.025,100.766 27.025,100.772C27.025,100.779 26.244,102.006 25.291,103.499L23.557,106.213L23.557,110.48L23.055,110.48L22.553,110.48L22.553,108.346L22.553,108.346ZM29.831,105.619L29.831,100.759L30.977,100.771L34.16,105.044C35.911,107.395 37.347,109.313 37.353,109.308C37.358,109.303 37.352,109.13 37.339,108.925C37.324,108.691 37.315,107.094 37.315,104.656L37.315,100.76L38.205,100.76L38.205,110.479L37.616,110.479L37.028,110.479L34.074,106.506C32.449,104.32 31.028,102.406 30.915,102.253L30.709,101.974L30.723,110.479L30.277,110.479L29.831,110.479L29.831,105.619ZM44.496,106.036L44.49,101.593L42.785,101.587L41.079,101.581L41.079,101.171L41.079,100.76L48.928,100.76L48.928,101.581L47.223,101.587L45.517,101.593L45.511,106.036L45.506,110.479L45.004,110.479L44.502,110.479L44.496,106.036ZM51.78,105.62L51.78,100.76L52.761,100.76L52.761,104.958L58.762,104.958L58.762,102.859L58.762,100.76L59.766,100.76L59.766,110.479L59.264,110.479L58.762,110.479L58.762,108.141L58.762,105.802L55.761,105.802L52.761,105.802L52.761,110.479L52.27,110.479L51.78,110.479L51.78,105.62ZM63.781,105.62L63.781,100.76L64.762,100.76L64.762,110.479L64.272,110.479L63.781,110.479L63.781,105.62ZM68.778,105.62L68.778,100.76L69.782,100.76L69.793,105.371L72.052,103.066L74.31,100.762L74.912,100.761L75.513,100.76L73.501,102.789C72.395,103.905 71.491,104.826 71.492,104.837C71.495,104.852 73.036,106.728 75.972,110.291L76.127,110.479L75.515,110.478L74.904,110.477L72.862,107.971L70.82,105.465L70.302,105.993L69.784,106.521L69.783,108.5L69.781,110.479L69.28,110.479L68.778,110.479L68.778,105.62L68.778,105.62ZM79.478,105.626L81.364,100.771L81.959,100.765L82.553,100.759L82.593,100.856C82.614,100.91 83.458,103.084 84.469,105.688C85.479,108.292 86.311,110.435 86.317,110.451C86.326,110.474 86.22,110.479 85.799,110.474L85.269,110.468L84.704,108.989C84.394,108.176 84.13,107.501 84.118,107.489C84.104,107.475 83.277,107.47 81.934,107.473L79.771,107.479L79.207,108.973L78.642,110.468L78.117,110.474L77.591,110.48L79.478,105.626ZM83.831,106.618C83.825,106.589 83.496,105.714 83.101,104.673C82.705,103.631 82.302,102.553 82.205,102.277C82.109,102.001 82.013,101.729 81.994,101.673L81.958,101.57L81.913,101.707C81.758,102.18 81.486,102.918 80.823,104.664C80.41,105.752 80.072,106.647 80.072,106.655C80.072,106.663 80.92,106.669 81.957,106.669L83.842,106.669L83.831,106.618ZM91.297,106.03L91.297,101.581L89.597,101.581L87.898,101.581L87.898,101.17L87.898,100.76L95.724,100.76L95.724,101.581L94.024,101.581L92.324,101.581L92.324,110.479L91.811,110.479L91.297,110.479L91.297,106.03ZM9.73,94.976L9.73,93.641L95.701,93.641L95.701,96.311L52.715,96.311L9.73,96.311L9.73,94.976ZM9.731,72.576L9.732,54.158L10.056,53.904C12.383,52.084 15.356,50.343 18.252,49.104C18.741,48.895 19.405,48.625 19.43,48.625C19.441,48.625 19.45,53.348 19.45,59.121L19.45,69.616L18.48,69.616L17.51,69.616L17.51,90.995L13.62,90.995L9.73,90.995L9.731,72.576ZM24.629,80.305L24.629,69.616L23.534,69.616L22.439,69.616L22.439,58.609L22.439,47.602L22.547,47.567C23.1,47.389 24.58,47.034 25.496,46.859C27.452,46.487 29.163,46.314 31.194,46.283L32.158,46.268L32.158,69.616L31.143,69.616L30.128,69.616L30.128,90.995L27.378,90.995L24.629,90.995L24.629,80.305ZM47.856,70.869L47.856,50.744L47.987,50.818C49.805,51.848 51.667,53.106 53.457,54.513C54.741,55.522 56.11,56.496 57.273,57.226L57.575,57.416L57.575,69.616L56.566,69.622L55.556,69.628L55.55,80.311L55.545,90.995L51.7,90.995L47.856,90.995L47.856,70.869ZM62.68,80.311L62.675,69.627L61.619,69.621L60.564,69.615L60.564,64.347L60.564,59.078L61.049,59.314C63.391,60.453 65.824,61.305 68.276,61.845C68.78,61.955 69.731,62.133 70.073,62.18L70.284,62.209L70.284,69.615L69.229,69.621L68.173,69.627L68.168,80.311L68.162,90.995L65.424,90.995L62.686,90.995L62.68,80.311ZM75.298,80.311L75.292,69.627L74.282,69.621L73.273,69.615L73.273,66.07L73.273,62.524L74.214,62.537C77.071,62.574 79.885,62.218 82.701,61.463L82.992,61.385L82.992,69.616L81.954,69.616L80.916,69.616L80.916,90.994L78.11,90.994L75.303,90.994L75.298,80.311ZM88.035,80.305L88.035,69.616L86.996,69.616L85.958,69.616L85.964,65.016L85.97,60.416L86.608,60.159C88.313,59.475 89.9,58.699 91.457,57.79C92.908,56.943 94.374,55.951 95.434,55.098C95.569,54.989 95.685,54.9 95.69,54.9C95.696,54.9 95.7,63.021 95.7,72.947L95.7,90.995L91.867,90.995L88.034,90.995L88.035,80.305ZM37.246,80.294L37.246,69.616L36.197,69.616L35.147,69.616L35.147,58.048C35.147,51.686 35.156,46.481 35.166,46.481C35.177,46.481 35.385,46.507 35.628,46.539C38.627,46.932 41.606,47.771 44.473,49.029L44.867,49.202L44.867,90.972L41.057,90.972L37.246,90.972L37.246,80.294Z" style="fill-rule:nonzero;"/>
    </g>
</svg>
