<?xml version="1.0" encoding="UTF-8" standalone="no"?>
<!DOCTYPE svg PUBLIC "-//W3C//DTD SVG 1.1//EN" "http://www.w3.org/Graphics/SVG/1.1/DTD/svg11.dtd">
<svg width="100%" height="100%" viewBox="0 0 180 380" version="1.1" xmlns="http://www.w3.org/2000/svg" xmlns:xlink="http://www.w3.org/1999/xlink" xml:space="preserve" xmlns:serif="http://www.serif.com/" style="fill-rule:evenodd;clip-rule:evenodd;stroke-linejoin:round;stroke-miterlimit:2;">
    <g id="Layer-2" serif:id="Layer 2">
        <g id="text989">
        </g>
        <rect id="rect4689" x="0" y="0" width="180" height="380" style="fill:rgb(44,45,48);fill-rule:nonzero;"/>
        <g id="text80" transform="matrix(1.00498,0,0,0.995047,-5.56788e-06,-6.79151)">
            <path id="path4726" d="M29.851,371.706L29.851,363.943L31.853,363.943L32.903,366.668C32.96,366.829 33.024,367.013 33.094,367.221C33.168,367.429 33.249,367.668 33.336,367.94L33.552,368.624C33.475,367.95 33.416,367.373 33.376,366.894C33.336,366.415 33.316,366.013 33.316,365.687L33.316,363.943L35.317,363.943L35.317,371.706L33.316,371.706L32.26,368.85C32.149,368.545 32.049,368.26 31.958,367.995C31.871,367.727 31.794,367.472 31.727,367.231C31.77,367.777 31.802,368.253 31.822,368.659C31.843,369.065 31.853,369.42 31.853,369.725L31.853,371.706L29.851,371.706Z" style="fill:rgb(158,161,168);fill-rule:nonzero;"/>
            <path id="path4728" d="M39.887,371.706L37.791,371.706L37.791,368.418L35.865,363.943L38.052,363.943L38.429,365.094C38.503,365.319 38.568,365.535 38.625,365.743C38.686,365.951 38.739,366.15 38.786,366.341C38.863,366.056 38.93,365.811 38.987,365.607C39.044,365.399 39.095,365.232 39.138,365.104L39.52,363.943L41.692,363.943L39.887,368.418L39.887,371.706Z" style="fill:rgb(158,161,168);fill-rule:nonzero;"/>
            <path id="path4730" d="M41.894,371.515L41.894,369.076C42.306,369.639 42.752,369.921 43.231,369.921C43.412,369.921 43.56,369.874 43.673,369.78C43.787,369.683 43.844,369.562 43.844,369.418C43.844,369.21 43.72,369.008 43.472,368.81L43.13,368.543C42.902,368.372 42.708,368.203 42.547,368.035C42.386,367.865 42.256,367.69 42.155,367.513C42.054,367.332 41.981,367.146 41.934,366.954C41.887,366.763 41.863,366.562 41.863,366.351C41.863,365.989 41.947,365.61 42.115,365.215C42.199,365.03 42.296,364.863 42.406,364.712C42.517,364.558 42.644,364.422 42.789,364.305C43.184,363.969 43.662,363.802 44.222,363.802C44.721,363.802 45.224,363.934 45.73,364.199L45.73,366.572C45.559,366.308 45.365,366.1 45.147,365.949C44.929,365.795 44.714,365.718 44.503,365.718C44.342,365.718 44.21,365.765 44.106,365.858C43.999,365.949 43.945,366.058 43.945,366.185C43.945,366.393 44.087,366.599 44.372,366.804L44.704,367.05C45.147,367.368 45.463,367.695 45.655,368.03C45.849,368.366 45.946,368.758 45.946,369.207C45.946,369.971 45.713,370.601 45.247,371.098C44.781,371.594 44.191,371.842 43.477,371.842C42.985,371.842 42.457,371.733 41.894,371.515L41.894,371.515Z" style="fill:rgb(158,161,168);fill-rule:nonzero;"/>
            <path id="path4732" d="M49.576,371.706L47.48,371.706L47.48,365.803L46.323,365.803L46.323,363.943L50.778,363.943L50.778,365.803L49.576,365.803L49.576,371.706Z" style="fill:rgb(158,161,168);fill-rule:nonzero;"/>
            <path id="path4734" d="M56.525,371.706L54.428,371.706L54.428,368.584L53.428,368.584L53.428,371.706L51.331,371.706L51.331,363.943L53.428,363.943L53.428,366.688L54.428,366.688L54.428,363.943L56.525,363.943L56.525,371.706Z" style="fill:rgb(158,161,168);fill-rule:nonzero;"/>
            <rect id="path4736" x="57.606" y="363.943" width="2.097" height="7.763" style="fill:rgb(158,161,168);fill-rule:nonzero;"/>
        </g>
        <g id="text4987">
        </g>
        <g id="text1042">
        </g>
        <g id="text1324">
            <path id="path1393" d="M23.548,19.824L20.833,19.824L20.833,15.781L19.538,15.781L19.538,19.824L16.823,19.824L16.823,9.772L19.538,9.772L19.538,13.327L20.833,13.327L20.833,9.772L23.548,9.772L23.548,19.824Z" style="fill:rgb(158,161,168);fill-rule:nonzero;"/>
            <path id="path1395" d="M32.337,14.831C32.337,16.363 31.988,17.609 31.289,18.568C30.595,19.523 29.69,20 28.574,20C27.585,20 26.736,19.633 26.029,18.9C25.139,17.971 24.694,16.578 24.694,14.72C24.694,12.941 25.158,11.58 26.087,10.638C26.777,9.939 27.595,9.59 28.542,9.59C29.701,9.59 30.623,10.063 31.309,11.009C31.994,11.955 32.337,13.229 32.337,14.831ZM29.518,14.85C29.518,13.032 29.197,12.122 28.555,12.122C28.234,12.122 27.977,12.361 27.786,12.839C27.6,13.281 27.507,13.932 27.507,14.792C27.507,15.638 27.593,16.296 27.767,16.764C27.945,17.229 28.19,17.461 28.503,17.461C28.824,17.461 29.071,17.231 29.245,16.771C29.427,16.311 29.518,15.671 29.518,14.85L29.518,14.85Z" style="fill:rgb(158,161,168);fill-rule:nonzero;"/>
            <path id="path1397" d="M37.077,19.824L34.362,19.824L34.362,12.181L32.865,12.181L32.865,9.772L38.633,9.772L38.633,12.181L37.077,12.181L37.077,19.824Z" style="fill:rgb(158,161,168);fill-rule:nonzero;"/>
            <path id="path1399" d="M46.868,19.824L44.154,19.824L44.154,12.181L42.656,12.181L42.656,9.772L48.424,9.772L48.424,12.181L46.868,12.181L46.868,19.824Z" style="fill:rgb(158,161,168);fill-rule:nonzero;"/>
            <path id="path1401" d="M53.242,9.772L55.957,9.772L55.957,16.882C55.957,17.476 55.864,17.958 55.677,18.327C55.495,18.713 55.191,19.063 54.766,19.375C54.193,19.792 53.496,20 52.676,20C51.747,20 50.968,19.77 50.339,19.31C49.54,18.724 49.141,17.786 49.141,16.497L49.141,9.772L51.855,9.772L51.855,16.257C51.855,16.695 51.908,17.005 52.012,17.188C52.12,17.37 52.3,17.461 52.552,17.461C52.812,17.461 52.993,17.376 53.092,17.207C53.192,17.029 53.242,16.714 53.242,16.263L53.242,9.772Z" style="fill:rgb(158,161,168);fill-rule:nonzero;"/>
            <path id="path1403" d="M57.37,19.824L57.37,9.772L59.961,9.772L61.322,13.301C61.395,13.509 61.478,13.748 61.569,14.017C61.665,14.286 61.769,14.596 61.882,14.948L62.161,15.833C62.062,14.961 61.986,14.214 61.934,13.594C61.882,12.973 61.855,12.452 61.855,12.031L61.855,9.772L64.447,9.772L64.447,19.824L61.855,19.824L60.488,16.126C60.345,15.731 60.215,15.362 60.098,15.02C59.985,14.672 59.885,14.342 59.798,14.03C59.855,14.737 59.896,15.354 59.922,15.879C59.948,16.404 59.961,16.864 59.961,17.259L59.961,19.824L57.37,19.824Z" style="fill:rgb(158,161,168);fill-rule:nonzero;"/>
            <path id="path1405" d="M73.177,19.824L70.371,19.824L70.169,18.548L68.34,18.548L68.118,19.824L65.312,19.824L67.728,9.772L71.048,9.772L73.177,19.824ZM69.85,16.393L69.674,15.221C69.67,15.217 69.662,15.158 69.648,15.046C69.64,14.95 69.594,14.572 69.512,13.913C69.503,13.839 69.492,13.739 69.479,13.613C69.466,13.483 69.449,13.32 69.427,13.125L69.342,12.174C69.334,12.266 69.321,12.368 69.303,12.48C69.29,12.593 69.275,12.717 69.258,12.852C69.227,13.121 69.206,13.307 69.193,13.411C69.18,13.516 69.171,13.579 69.167,13.6L68.978,14.818L68.704,16.393L69.85,16.393Z" style="fill:rgb(158,161,168);fill-rule:nonzero;"/>
        </g>
    </g>
</svg>
