<?xml version="1.0" encoding="UTF-8" standalone="no"?>
<!DOCTYPE svg PUBLIC "-//W3C//DTD SVG 1.1//EN" "http://www.w3.org/Graphics/SVG/1.1/DTD/svg11.dtd">
<svg width="100%" height="100%" viewBox="0 0 120 380" version="1.1" xmlns="http://www.w3.org/2000/svg" xmlns:xlink="http://www.w3.org/1999/xlink" xml:space="preserve" xmlns:serif="http://www.serif.com/" style="fill-rule:evenodd;clip-rule:evenodd;stroke-linejoin:round;stroke-miterlimit:2;">
    <g id="Layer-2" serif:id="Layer 2">
        <rect id="rect4689" x="-0.008" y="0" width="120" height="380" style="fill:rgb(44,45,48);"/>
        <g id="text989">
        </g>
        <g id="text4987">
        </g>
        <path id="path1009" d="M15.275,155.235L16.629,155.235L16.629,158.285L18.615,158.285L18.615,155.235L19.969,155.235L19.969,163.033L18.615,163.033L18.615,159.174L16.629,159.174L16.629,163.033L15.275,163.033L15.275,155.235Z" style="fill:rgb(158,161,168);fill-rule:nonzero;"/>
        <path id="path1011" d="M43.644,155.235L44.803,155.235L45.689,158.417C45.797,158.814 45.895,159.213 45.982,159.613C46.073,160.011 46.155,160.428 46.229,160.866C46.238,160.809 46.244,160.765 46.249,160.735C46.253,160.701 46.257,160.677 46.262,160.664L46.45,159.77L46.62,158.922L46.769,158.361L47.557,155.235L48.729,155.235L49.653,163.033L48.358,163.033L48.13,160.386C48.121,160.251 48.113,160.135 48.104,160.038C48.1,159.94 48.098,159.859 48.098,159.795L48.039,158.75L48.006,157.79C48.006,157.784 48.004,157.77 48,157.75C48,157.726 47.998,157.696 47.994,157.659L47.961,157.815C47.926,158.001 47.894,158.162 47.863,158.3C47.837,158.438 47.813,158.555 47.792,158.649L47.623,159.361L47.557,159.629L46.711,163.033L45.8,163.033L45.005,160.093C44.897,159.706 44.799,159.314 44.712,158.916C44.63,158.516 44.554,158.097 44.484,157.659L44.094,163.033L42.818,163.033L43.644,155.235Z" style="fill:rgb(158,161,168);fill-rule:nonzero;"/>
        <path id="path1013" d="M77.003,155.502L77.003,156.528C76.59,156.299 76.219,156.184 75.889,156.184C75.533,156.184 75.243,156.282 75.017,156.477C74.791,156.662 74.678,156.91 74.678,157.22C74.678,157.492 74.759,157.726 74.919,157.922C75.002,158.026 75.136,158.161 75.323,158.326C75.514,158.491 75.759,158.689 76.059,158.922C76.61,159.356 76.985,159.731 77.185,160.048C77.385,160.354 77.484,160.73 77.484,161.174C77.484,161.777 77.265,162.273 76.827,162.664C76.388,163.044 75.826,163.235 75.141,163.235C74.563,163.235 74.071,163.112 73.663,162.866L73.663,161.826C74.145,162.098 74.583,162.235 74.978,162.235C75.347,162.235 75.635,162.14 75.844,161.952C76.052,161.76 76.156,161.501 76.156,161.174C76.156,160.891 76.076,160.637 75.915,160.411C75.833,160.304 75.718,160.181 75.57,160.043C75.423,159.901 75.238,159.745 75.017,159.573C74.674,159.31 74.39,159.078 74.164,158.876C73.938,158.674 73.771,158.497 73.663,158.346C73.454,158.049 73.35,157.676 73.35,157.225C73.35,156.615 73.554,156.132 73.962,155.775C74.375,155.415 74.928,155.235 75.622,155.235C76.104,155.235 76.564,155.324 77.003,155.502L77.003,155.502Z" style="fill:rgb(158,161,168);fill-rule:nonzero;"/>
        <g id="text80-3" transform="matrix(1.00498,0,0,0.995047,14.9922,4.99998)">
            <path id="path4726-0" d="M29.851,371.706L29.851,363.943L31.853,363.943L32.903,366.668C32.96,366.829 33.024,367.013 33.094,367.221C33.168,367.429 33.249,367.668 33.336,367.94L33.552,368.624C33.475,367.95 33.416,367.373 33.376,366.894C33.336,366.415 33.316,366.013 33.316,365.687L33.316,363.943L35.317,363.943L35.317,371.706L33.316,371.706L32.26,368.85C32.149,368.545 32.049,368.26 31.958,367.995C31.871,367.727 31.794,367.472 31.727,367.231C31.77,367.777 31.802,368.253 31.822,368.659C31.843,369.065 31.853,369.42 31.853,369.725L31.853,371.706L29.851,371.706Z" style="fill:rgb(158,161,168);fill-rule:nonzero;"/>
            <path id="path4728-1" d="M39.887,371.706L37.791,371.706L37.791,368.418L35.865,363.943L38.052,363.943L38.429,365.094C38.503,365.319 38.568,365.535 38.625,365.743C38.686,365.951 38.739,366.15 38.786,366.341C38.863,366.056 38.93,365.811 38.987,365.607C39.044,365.399 39.095,365.232 39.138,365.104L39.52,363.943L41.692,363.943L39.887,368.418L39.887,371.706Z" style="fill:rgb(158,161,168);fill-rule:nonzero;"/>
            <path id="path4730-9" d="M41.894,371.515L41.894,369.076C42.306,369.639 42.752,369.921 43.231,369.921C43.412,369.921 43.56,369.874 43.673,369.78C43.787,369.683 43.844,369.562 43.844,369.418C43.844,369.21 43.72,369.008 43.472,368.81L43.13,368.543C42.902,368.372 42.708,368.203 42.547,368.035C42.386,367.865 42.256,367.69 42.155,367.513C42.054,367.332 41.981,367.146 41.934,366.954C41.887,366.763 41.863,366.562 41.863,366.351C41.863,365.989 41.947,365.61 42.115,365.215C42.199,365.03 42.296,364.863 42.406,364.712C42.517,364.558 42.644,364.422 42.789,364.305C43.184,363.969 43.662,363.802 44.222,363.802C44.721,363.802 45.224,363.934 45.73,364.199L45.73,366.572C45.559,366.308 45.365,366.1 45.147,365.949C44.929,365.795 44.714,365.718 44.503,365.718C44.342,365.718 44.21,365.764 44.106,365.858C43.999,365.949 43.945,366.058 43.945,366.185C43.945,366.393 44.087,366.599 44.372,366.804L44.704,367.05C45.147,367.368 45.463,367.695 45.655,368.03C45.849,368.366 45.946,368.758 45.946,369.207C45.946,369.971 45.713,370.601 45.247,371.098C44.781,371.594 44.191,371.842 43.477,371.842C42.985,371.842 42.457,371.733 41.894,371.515L41.894,371.515Z" style="fill:rgb(158,161,168);fill-rule:nonzero;"/>
            <path id="path4732-8" d="M49.576,371.706L47.48,371.706L47.48,365.803L46.323,365.803L46.323,363.943L50.778,363.943L50.778,365.803L49.576,365.803L49.576,371.706Z" style="fill:rgb(158,161,168);fill-rule:nonzero;"/>
            <path id="path4734-6" d="M56.525,371.706L54.428,371.706L54.428,368.584L53.428,368.584L53.428,371.706L51.331,371.706L51.331,363.943L53.428,363.943L53.428,366.688L54.428,366.688L54.428,363.943L56.525,363.943L56.525,371.706Z" style="fill:rgb(158,161,168);fill-rule:nonzero;"/>
            <rect id="path4736-9" x="57.606" y="363.943" width="2.097" height="7.763" style="fill:rgb(158,161,168);fill-rule:nonzero;"/>
        </g>
        <g id="text949" transform="matrix(1,0,0,1,30,0)">
            <path id="path951" d="M13.777,18L10.52,18L10.52,8.828L8.723,8.828L8.723,5.938L15.645,5.938L15.645,8.828L13.777,8.828L13.777,18Z" style="fill:rgb(158,161,168);fill-rule:nonzero;"/>
            <rect id="path953" x="16.504" y="5.938" width="3.258" height="12.063" style="fill:rgb(158,161,168);fill-rule:nonzero;"/>
            <path id="path955" d="M33.855,18L30.449,18L30.207,12.5L30.105,10.305C30.069,10.727 30.027,11.13 29.98,11.516C29.934,11.896 29.876,12.266 29.809,12.625L28.785,18L26.129,18L25.254,12.617C25.202,12.305 25.132,11.768 25.043,11.008C25.033,10.893 25.009,10.659 24.973,10.305L24.895,12.531L24.605,18L21.137,18L22.543,5.938L26.598,5.938L27.277,10C27.335,10.333 27.384,10.695 27.426,11.086C27.473,11.477 27.514,11.901 27.551,12.359C27.618,11.594 27.712,10.909 27.832,10.305L28.66,5.938L32.684,5.938L33.855,18Z" style="fill:rgb(158,161,168);fill-rule:nonzero;"/>
            <path id="path957" d="M35.316,18L35.316,5.938L41.371,5.938L41.371,8.773L38.574,8.773L38.574,10.531L41.082,10.531L41.082,13.258L38.574,13.258L38.574,15.102L41.371,15.102L41.371,18L35.316,18Z" style="fill:rgb(158,161,168);fill-rule:nonzero;"/>
            <path id="path959" d="M51.262,18L47.645,18L47.043,16.281C46.85,15.755 46.694,15.25 46.574,14.766C46.46,15.245 46.288,15.794 46.059,16.414L45.457,18L41.91,18L44.84,11.742L42.074,5.938L45.699,5.938L46.238,7.57C46.296,7.721 46.35,7.898 46.402,8.102C46.46,8.305 46.517,8.534 46.574,8.789C46.704,8.268 46.814,7.867 46.902,7.586L47.402,5.938L51.051,5.938L48.301,11.742L51.262,18Z" style="fill:rgb(158,161,168);fill-rule:nonzero;"/>
        </g>
        <g id="text912" transform="matrix(0.995359,0,0,1.00466,0,-42)">
            <path id="path990" d="M2.009,69.5L3.357,69.5L3.357,73.414L5.334,73.414L5.334,69.5L6.682,69.5L6.682,79.506L5.334,79.506L5.334,74.555L3.357,74.555L3.357,79.506L2.009,79.506L2.009,69.5Z" style="fill:rgb(158,161,168);fill-rule:nonzero;"/>
            <path id="path992" d="M13.24,74.749C13.24,76.516 13.043,77.771 12.65,78.514C12.257,79.257 11.598,79.629 10.673,79.629C9.701,79.629 9.017,79.229 8.619,78.43C8.226,77.648 8.029,76.259 8.029,74.263C8.029,72.483 8.224,71.224 8.613,70.485C9.006,69.742 9.671,69.371 10.609,69.371C11.447,69.371 12.069,69.658 12.475,70.232C12.743,70.617 12.937,71.163 13.058,71.872C13.179,72.529 13.24,73.488 13.24,74.749L13.24,74.749ZM11.827,74.892C11.827,73.159 11.749,72.01 11.594,71.444C11.438,70.874 11.12,70.589 10.641,70.589C10.161,70.589 9.842,70.85 9.682,71.373C9.526,71.9 9.449,72.958 9.449,74.548C9.449,76.013 9.531,77.028 9.695,77.594C9.863,78.13 10.179,78.397 10.641,78.397C11.095,78.397 11.406,78.147 11.574,77.646C11.743,77.149 11.827,76.231 11.827,74.892L11.827,74.892Z" style="fill:rgb(158,161,168);fill-rule:nonzero;"/>
            <path id="path994" d="M14.581,69.5L15.903,69.5L15.903,76.57C15.903,77.292 15.968,77.771 16.097,78.009C16.231,78.246 16.495,78.365 16.888,78.365C17.281,78.365 17.54,78.261 17.665,78.054C17.795,77.842 17.86,77.412 17.86,76.764L17.86,69.5L19.182,69.5L19.182,76.764C19.182,77.853 19.016,78.59 18.683,78.974C18.285,79.411 17.678,79.629 16.862,79.629C15.963,79.629 15.33,79.348 14.963,78.786C14.708,78.402 14.581,77.663 14.581,76.57L14.581,69.5Z" style="fill:rgb(158,161,168);fill-rule:nonzero;"/>
            <path id="path996" d="M20.724,69.5L22.5,69.5C23.234,69.5 23.781,69.675 24.139,70.025C24.593,70.479 24.82,71.172 24.82,72.105C24.82,72.822 24.699,73.399 24.457,73.835C24.219,74.267 23.878,74.535 23.433,74.639L25.273,79.506L23.906,79.506L22.072,74.607L22.072,79.506L20.724,79.506L20.724,69.5ZM22.072,73.933C22.595,73.933 22.964,73.812 23.18,73.57C23.396,73.328 23.504,72.92 23.504,72.345C23.504,72.034 23.48,71.768 23.433,71.548C23.39,71.328 23.318,71.148 23.219,71.01C23.124,70.872 22.999,70.77 22.843,70.705C22.692,70.641 22.511,70.608 22.299,70.608L22.072,70.608L22.072,73.933Z" style="fill:rgb(158,161,168);fill-rule:nonzero;"/>
            <path id="path998" d="M29.66,69.708L29.66,71.023C29.25,70.729 28.881,70.582 28.552,70.582C28.198,70.582 27.909,70.708 27.684,70.958C27.459,71.196 27.347,71.513 27.347,71.911C27.347,72.261 27.427,72.561 27.587,72.812C27.669,72.945 27.803,73.118 27.988,73.33C28.179,73.542 28.423,73.797 28.721,74.095C29.269,74.652 29.643,75.134 29.842,75.54C30.041,75.933 30.14,76.415 30.14,76.985C30.14,77.758 29.922,78.395 29.485,78.896C29.049,79.385 28.49,79.629 27.807,79.629C27.232,79.629 26.742,79.471 26.336,79.156L26.336,77.821C26.816,78.171 27.252,78.346 27.645,78.346C28.012,78.346 28.299,78.225 28.507,77.983C28.714,77.737 28.818,77.404 28.818,76.985C28.818,76.622 28.738,76.296 28.578,76.006C28.496,75.868 28.382,75.71 28.235,75.533C28.088,75.352 27.904,75.151 27.684,74.931C27.343,74.594 27.06,74.296 26.835,74.036C26.61,73.777 26.444,73.55 26.336,73.356C26.129,72.976 26.025,72.496 26.025,71.917C26.025,71.135 26.228,70.515 26.634,70.057C27.045,69.595 27.595,69.364 28.287,69.364C28.766,69.364 29.224,69.479 29.66,69.708L29.66,69.708Z" style="fill:rgb(158,161,168);fill-rule:nonzero;"/>
        </g>
        <g id="text916" transform="matrix(0.878004,0,0,1.13895,0,-59)">
            <path id="path975" d="M3.004,96.426L4.021,96.426L4.799,100.027C4.894,100.477 4.98,100.929 5.056,101.382C5.136,101.832 5.208,102.304 5.273,102.8C5.281,102.735 5.286,102.685 5.29,102.651C5.294,102.613 5.298,102.586 5.302,102.571L5.468,101.559L5.616,100.599L5.748,99.964L6.439,96.426L7.468,96.426L8.28,105.252L7.142,105.252L6.942,102.257C6.935,102.104 6.927,101.973 6.919,101.862C6.916,101.752 6.914,101.66 6.914,101.588L6.862,100.405L6.834,99.319C6.834,99.311 6.832,99.296 6.828,99.273C6.828,99.246 6.826,99.212 6.822,99.17L6.794,99.347C6.763,99.557 6.735,99.74 6.708,99.896C6.685,100.052 6.664,100.184 6.645,100.29L6.496,101.096L6.439,101.399L5.696,105.252L4.896,105.252L4.199,101.925C4.103,101.487 4.018,101.043 3.941,100.593C3.869,100.14 3.802,99.665 3.741,99.17L3.398,105.252L2.278,105.252L3.004,96.426Z" style="fill:rgb(158,161,168);fill-rule:nonzero;"/>
            <rect id="path977" x="9.263" y="96.426" width="1.189" height="8.826" style="fill:rgb(158,161,168);fill-rule:nonzero;"/>
            <path id="path979" d="M11.824,96.426L12.933,96.426L14.116,99.947C14.459,100.942 14.762,102.003 15.025,103.131C14.93,102.449 14.859,101.832 14.813,101.279C14.768,100.727 14.745,100.206 14.745,99.719L14.745,96.426L15.94,96.426L15.94,105.252L14.825,105.252L13.493,101.279C13.371,100.909 13.255,100.53 13.144,100.142C13.038,99.753 12.939,99.345 12.847,98.918C12.839,98.865 12.826,98.8 12.807,98.724C12.792,98.648 12.773,98.56 12.75,98.461C12.761,98.56 12.771,98.646 12.778,98.718C12.786,98.787 12.792,98.846 12.796,98.896L12.859,99.793L12.921,100.885C12.925,100.946 12.927,101.02 12.927,101.108C12.931,101.195 12.933,101.294 12.933,101.405L12.996,105.252L11.824,105.252L11.824,96.426Z" style="fill:rgb(158,161,168);fill-rule:nonzero;"/>
            <path id="path981" d="M17.311,96.426L18.478,96.426L18.478,102.662C18.478,103.299 18.535,103.722 18.649,103.931C18.767,104.141 19,104.246 19.346,104.246C19.693,104.246 19.922,104.154 20.032,103.971C20.147,103.785 20.204,103.406 20.204,102.834L20.204,96.426L21.37,96.426L21.37,102.834C21.37,103.794 21.223,104.444 20.93,104.783C20.579,105.168 20.044,105.36 19.324,105.36C18.531,105.36 17.973,105.113 17.649,104.617C17.424,104.278 17.311,103.627 17.311,102.662L17.311,96.426Z" style="fill:rgb(158,161,168);fill-rule:nonzero;"/>
            <path id="path983" d="M22.027,96.426L25.897,96.426L25.897,97.466L24.565,97.466L24.565,105.252L23.399,105.252L23.399,97.466L22.027,97.466L22.027,96.426Z" style="fill:rgb(158,161,168);fill-rule:nonzero;"/>
            <path id="path985" d="M26.549,96.426L29.71,96.426L29.71,97.432L27.738,97.432L27.738,100.227L29.487,100.227L29.487,101.233L27.738,101.233L27.738,104.246L29.71,104.246L29.71,105.252L26.549,105.252L26.549,96.426Z" style="fill:rgb(158,161,168);fill-rule:nonzero;"/>
            <path id="path987" d="M33.745,96.609L33.745,97.769C33.383,97.51 33.058,97.381 32.768,97.381C32.455,97.381 32.2,97.491 32.002,97.712C31.804,97.922 31.705,98.202 31.705,98.553C31.705,98.861 31.775,99.126 31.916,99.347C31.989,99.465 32.107,99.618 32.271,99.804C32.438,99.991 32.654,100.216 32.917,100.479C33.401,100.97 33.73,101.395 33.905,101.754C34.081,102.1 34.168,102.525 34.168,103.028C34.168,103.71 33.976,104.273 33.591,104.715C33.206,105.145 32.713,105.36 32.111,105.36C31.604,105.36 31.171,105.221 30.813,104.943L30.813,103.766C31.236,104.074 31.621,104.229 31.968,104.229C32.292,104.229 32.545,104.122 32.728,103.909C32.911,103.691 33.002,103.398 33.002,103.028C33.002,102.708 32.932,102.42 32.791,102.165C32.718,102.043 32.617,101.904 32.488,101.748C32.358,101.588 32.196,101.411 32.002,101.216C31.701,100.919 31.451,100.656 31.253,100.427C31.055,100.199 30.908,99.999 30.813,99.827C30.63,99.492 30.539,99.069 30.539,98.558C30.539,97.869 30.718,97.322 31.076,96.918C31.438,96.51 31.924,96.306 32.534,96.306C32.957,96.306 33.361,96.407 33.745,96.609L33.745,96.609Z" style="fill:rgb(158,161,168);fill-rule:nonzero;"/>
        </g>
        <g id="text920" transform="matrix(0.860891,0,0,1.16159,0,-76)">
            <path id="path960" d="M5.528,129.162L5.528,130.299C5.173,130.045 4.854,129.918 4.57,129.918C4.263,129.918 4.013,130.027 3.818,130.243C3.624,130.449 3.527,130.724 3.527,131.067C3.527,131.37 3.596,131.63 3.734,131.846C3.805,131.962 3.921,132.112 4.082,132.295C4.246,132.478 4.457,132.698 4.715,132.956C5.19,133.438 5.513,133.855 5.685,134.206C5.857,134.546 5.943,134.963 5.943,135.456C5.943,136.125 5.754,136.676 5.377,137.109C4.999,137.532 4.515,137.743 3.925,137.743C3.428,137.743 3.004,137.606 2.653,137.333L2.653,136.179C3.067,136.482 3.445,136.633 3.785,136.633C4.102,136.633 4.351,136.528 4.53,136.319C4.71,136.106 4.799,135.818 4.799,135.456C4.799,135.142 4.73,134.86 4.592,134.61C4.521,134.49 4.422,134.354 4.295,134.2C4.168,134.044 4.009,133.87 3.818,133.679C3.523,133.388 3.279,133.13 3.084,132.906C2.89,132.682 2.746,132.485 2.653,132.317C2.473,131.988 2.384,131.574 2.384,131.073C2.384,130.397 2.559,129.86 2.911,129.464C3.265,129.065 3.742,128.865 4.34,128.865C4.754,128.865 5.151,128.964 5.528,129.162L5.528,129.162Z" style="fill:rgb(158,161,168);fill-rule:nonzero;"/>
            <path id="path962" d="M6.924,128.982L10.023,128.982L10.023,129.969L8.089,129.969L8.089,132.71L9.804,132.71L9.804,133.696L8.089,133.696L8.089,136.65L10.023,136.65L10.023,137.636L6.924,137.636L6.924,128.982Z" style="fill:rgb(158,161,168);fill-rule:nonzero;"/>
            <path id="path964" d="M14.49,129.122L14.49,130.171C14.191,130.025 13.941,129.952 13.739,129.952C13.462,129.952 13.225,130.021 13.027,130.159C12.829,130.294 12.665,130.503 12.534,130.787C12.407,131.071 12.312,131.432 12.248,131.869C12.188,132.302 12.158,132.816 12.158,133.41C12.158,135.547 12.706,136.616 13.801,136.616C13.991,136.616 14.221,136.556 14.49,136.437L14.49,137.507C14.21,137.664 13.896,137.743 13.548,137.743C11.796,137.743 10.92,136.312 10.92,133.449C10.92,131.902 11.133,130.752 11.559,129.997C11.988,129.242 12.644,128.865 13.526,128.865C13.851,128.865 14.172,128.951 14.49,129.122L14.49,129.122Z" style="fill:rgb(158,161,168);fill-rule:nonzero;"/>
            <path id="path966" d="M19.73,133.522C19.73,135.05 19.56,136.136 19.22,136.779C18.88,137.421 18.311,137.743 17.511,137.743C16.67,137.743 16.078,137.397 15.734,136.706C15.394,136.029 15.224,134.828 15.224,133.102C15.224,131.562 15.392,130.473 15.729,129.834C16.069,129.192 16.644,128.87 17.455,128.87C18.18,128.87 18.718,129.119 19.069,129.616C19.301,129.948 19.469,130.421 19.573,131.034C19.678,131.602 19.73,132.431 19.73,133.522L19.73,133.522ZM18.509,133.646C18.509,132.147 18.441,131.153 18.307,130.664C18.172,130.171 17.898,129.924 17.483,129.924C17.068,129.924 16.792,130.15 16.653,130.602C16.519,131.058 16.452,131.973 16.452,133.349C16.452,134.615 16.523,135.493 16.665,135.983C16.81,136.446 17.083,136.678 17.483,136.678C17.875,136.678 18.144,136.461 18.29,136.028C18.436,135.598 18.509,134.804 18.509,133.646L18.509,133.646Z" style="fill:rgb(158,161,168);fill-rule:nonzero;"/>
            <path id="path968" d="M20.891,128.982L21.978,128.982L23.138,132.435C23.474,133.41 23.771,134.451 24.029,135.557C23.936,134.888 23.867,134.283 23.822,133.741C23.777,133.199 23.755,132.689 23.755,132.211L23.755,128.982L24.926,128.982L24.926,137.636L23.833,137.636L22.527,133.741C22.408,133.378 22.294,133.007 22.185,132.625C22.081,132.244 21.984,131.845 21.894,131.426C21.886,131.374 21.873,131.31 21.855,131.235C21.84,131.161 21.821,131.075 21.799,130.978C21.81,131.075 21.819,131.159 21.827,131.23C21.834,131.297 21.84,131.355 21.843,131.404L21.905,132.284L21.967,133.354C21.97,133.414 21.972,133.487 21.972,133.573C21.976,133.659 21.978,133.756 21.978,133.864L22.04,137.636L20.891,137.636L20.891,128.982Z" style="fill:rgb(158,161,168);fill-rule:nonzero;"/>
            <path id="path970" d="M26.271,128.982L27.706,128.982C28.143,128.982 28.511,129.031 28.81,129.128C29.087,129.222 29.333,129.388 29.55,129.627C29.875,129.986 30.107,130.453 30.245,131.028C30.383,131.585 30.452,132.383 30.452,133.421C30.452,134.374 30.376,135.151 30.223,135.753C30.073,136.328 29.826,136.767 29.483,137.07C29.06,137.447 28.304,137.636 27.213,137.636L26.271,137.636L26.271,128.982ZM27.437,136.616C28.147,136.616 28.621,136.401 28.861,135.972C29.107,135.542 29.23,134.707 29.23,133.466C29.23,132.132 29.113,131.215 28.877,130.714C28.642,130.214 28.21,129.963 27.583,129.963L27.437,129.963L27.437,136.616Z" style="fill:rgb(158,161,168);fill-rule:nonzero;"/>
            <path id="path972" d="M34.493,129.162L34.493,130.299C34.138,130.045 33.819,129.918 33.535,129.918C33.229,129.918 32.978,130.027 32.784,130.243C32.59,130.449 32.492,130.724 32.492,131.067C32.492,131.37 32.562,131.63 32.7,131.846C32.771,131.962 32.887,132.112 33.047,132.295C33.212,132.478 33.423,132.698 33.681,132.956C34.155,133.438 34.478,133.855 34.65,134.206C34.822,134.546 34.908,134.963 34.908,135.456C34.908,136.125 34.719,136.676 34.342,137.109C33.965,137.532 33.481,137.743 32.89,137.743C32.393,137.743 31.969,137.606 31.618,137.333L31.618,136.179C32.033,136.482 32.41,136.633 32.75,136.633C33.068,136.633 33.316,136.528 33.496,136.319C33.675,136.106 33.765,135.818 33.765,135.456C33.765,135.142 33.696,134.86 33.557,134.61C33.486,134.49 33.387,134.354 33.26,134.2C33.133,134.044 32.974,133.87 32.784,133.679C32.489,133.388 32.244,133.13 32.05,132.906C31.855,132.682 31.712,132.485 31.618,132.317C31.439,131.988 31.349,131.574 31.349,131.073C31.349,130.397 31.525,129.86 31.876,129.464C32.231,129.065 32.707,128.865 33.305,128.865C33.72,128.865 34.116,128.964 34.493,129.162Z" style="fill:rgb(158,161,168);fill-rule:nonzero;"/>
        </g>
        <g id="text924" transform="matrix(0.993416,0,0,1.00663,0,-93)">
            <path id="path945" d="M2.787,185.955L5.063,185.955L5.063,195.941L3.776,195.941L3.776,187.1L2.787,187.1L2.787,185.955Z" style="fill:rgb(158,161,168);fill-rule:nonzero;"/>
            <path id="path947" d="M12.41,184.953L13.452,184.953L7.501,198.683L6.447,198.683L12.41,184.953Z" style="fill:rgb(158,161,168);fill-rule:nonzero;"/>
            <path id="path949" d="M14.247,185.955L16.524,185.955L16.524,195.941L15.237,195.941L15.237,187.1L14.247,187.1L14.247,185.955Z" style="fill:rgb(158,161,168);fill-rule:nonzero;"/>
            <path id="path952" d="M22.875,191.026C22.875,192.819 22.702,194.113 22.357,194.906C22.017,195.674 21.437,196.057 20.618,196.057C19.798,196.057 19.216,195.671 18.871,194.9C18.531,194.149 18.36,192.832 18.36,190.948C18.36,189.064 18.531,187.747 18.871,186.996C19.212,186.22 19.792,185.832 20.611,185.832C21.37,185.832 21.931,186.173 22.293,186.854C22.681,187.574 22.875,188.965 22.875,191.026ZM21.504,191.026C21.504,189.516 21.439,188.473 21.31,187.895C21.18,187.322 20.945,187.035 20.605,187.035C20.264,187.035 20.027,187.32 19.893,187.889C19.764,188.458 19.699,189.482 19.699,190.961C19.699,192.44 19.764,193.466 19.893,194.039C20.027,194.609 20.264,194.893 20.605,194.893C20.941,194.893 21.174,194.611 21.303,194.046C21.437,193.507 21.504,192.5 21.504,191.026L21.504,191.026Z" style="fill:rgb(158,161,168);fill-rule:nonzero;"/>
            <path id="path954" d="M24.207,187.371L25.442,187.371L25.442,189.247L26.115,189.247L26.115,190.23L25.442,190.23L25.442,195.941L24.207,195.941L24.207,190.23L23.528,190.23L23.528,189.247L24.207,189.247L24.207,187.371Z" style="fill:rgb(158,161,168);fill-rule:nonzero;"/>
            <path id="path956" d="M27.008,184.953L28.243,184.953L28.243,190.017C28.596,189.43 29.053,189.137 29.614,189.137C30.157,189.137 30.545,189.35 30.778,189.777C30.907,190.019 30.972,190.487 30.972,191.181L30.972,195.941L29.737,195.941L29.73,191.465C29.73,191.013 29.676,190.691 29.569,190.502C29.461,190.312 29.276,190.217 29.012,190.217C28.87,190.217 28.749,190.243 28.65,190.295C28.555,190.342 28.478,190.422 28.417,190.534C28.357,190.642 28.312,190.784 28.282,190.961C28.256,191.138 28.243,191.355 28.243,191.614L28.243,195.941L27.008,195.941L27.008,184.953Z" style="fill:rgb(158,161,168);fill-rule:nonzero;"/>
        </g>
        <g id="text1003" transform="matrix(1,0,0,0.829015,0,-2.02548)">
            <path id="path1019" d="M42.648,174.938L43.914,174.938L46.5,187L44.891,187L44.438,184.648L42.047,184.648L41.586,187L40.023,187L42.648,174.938ZM44.203,183.391L43.844,181.469C43.604,180.161 43.409,178.766 43.258,177.281C43.185,178.005 43.091,178.74 42.977,179.484C42.862,180.224 42.727,181.01 42.57,181.844L42.273,183.391L44.203,183.391Z" style="fill:rgb(158,161,168);fill-rule:nonzero;"/>
            <path id="path1021" d="M47.461,174.938L49.086,174.938L49.086,185.625L51.742,185.625L51.742,187L47.461,187L47.461,174.938Z" style="fill:rgb(158,161,168);fill-rule:nonzero;"/>
            <path id="path1023" d="M55.148,174.938L56.414,174.938L59,187L57.391,187L56.938,184.648L54.547,184.648L54.086,187L52.523,187L55.148,174.938ZM56.703,183.391L56.344,181.469C56.104,180.161 55.909,178.766 55.758,177.281C55.685,178.005 55.591,178.74 55.477,179.484C55.362,180.224 55.227,181.01 55.07,181.844L54.773,183.391L56.703,183.391Z" style="fill:rgb(158,161,168);fill-rule:nonzero;"/>
            <path id="path1025" d="M59.961,174.938L62.102,174.938C62.987,174.938 63.646,175.148 64.078,175.57C64.625,176.117 64.898,176.953 64.898,178.078C64.898,178.943 64.753,179.638 64.461,180.164C64.174,180.685 63.763,181.008 63.227,181.133L65.445,187L63.797,187L61.586,181.094L61.586,187L59.961,187L59.961,174.938ZM61.586,180.281C62.216,180.281 62.661,180.135 62.922,179.844C63.182,179.552 63.312,179.06 63.312,178.367C63.312,177.992 63.284,177.672 63.227,177.406C63.174,177.141 63.089,176.924 62.969,176.758C62.854,176.591 62.703,176.469 62.516,176.391C62.333,176.313 62.115,176.273 61.859,176.273L61.586,176.273L61.586,180.281Z" style="fill:rgb(158,161,168);fill-rule:nonzero;"/>
            <path id="path1027" d="M67.281,174.938L68.672,174.938L69.734,179.859C69.865,180.474 69.982,181.091 70.086,181.711C70.195,182.326 70.294,182.971 70.383,183.648C70.393,183.56 70.401,183.492 70.406,183.445C70.412,183.393 70.417,183.357 70.422,183.336L70.648,181.953L70.851,180.641L71.031,179.773L71.976,174.938L73.383,174.938L74.492,187L72.937,187L72.664,182.906C72.654,182.698 72.643,182.518 72.633,182.367C72.627,182.216 72.625,182.091 72.625,181.992L72.554,180.375L72.515,178.891C72.515,178.88 72.513,178.859 72.507,178.828C72.507,178.792 72.505,178.745 72.499,178.687L72.46,178.93C72.419,179.216 72.38,179.466 72.343,179.68C72.312,179.893 72.283,180.073 72.257,180.219L72.054,181.32L71.976,181.734L70.96,187L69.866,187L68.913,182.453C68.783,181.854 68.666,181.247 68.562,180.633C68.463,180.013 68.372,179.365 68.288,178.687L67.82,187L66.288,187L67.281,174.938Z" style="fill:rgb(158,161,168);fill-rule:nonzero;"/>
            <path id="path1029" d="M76.336,174.938L79.086,174.938L79.086,187L77.531,187L77.531,176.32L76.336,176.32L76.336,174.938Z" style="fill:rgb(158,161,168);fill-rule:nonzero;"/>
        </g>
        <g id="text1034" transform="matrix(0.661072,0,0,0.776248,34.6977,-8.11056)">
            <path id="path1063" d="M95.807,195.221C95.807,196.997 95.61,198.257 95.215,199.004C94.82,199.75 94.158,200.124 93.229,200.124C92.253,200.124 91.565,199.722 91.165,198.919C90.77,198.134 90.573,196.738 90.573,194.733C90.573,192.945 90.768,191.68 91.159,190.937C91.554,190.191 92.222,189.818 93.164,189.818C94.006,189.818 94.631,190.106 95.039,190.684C95.308,191.07 95.503,191.619 95.625,192.331C95.747,192.99 95.807,193.954 95.807,195.221L95.807,195.221ZM94.388,195.365C94.388,193.624 94.31,192.47 94.154,191.901C93.997,191.328 93.678,191.042 93.197,191.042C92.715,191.042 92.394,191.304 92.233,191.829C92.077,192.359 91.999,193.422 91.999,195.02C91.999,196.491 92.081,197.511 92.246,198.079C92.415,198.618 92.732,198.887 93.197,198.887C93.652,198.887 93.965,198.635 94.134,198.132C94.303,197.632 94.388,196.71 94.388,195.365L94.388,195.365Z" style="fill:rgb(158,161,168);fill-rule:nonzero;"/>
            <path id="path1065" d="M97.155,189.948L98.418,189.948L99.766,193.958C100.156,195.091 100.501,196.3 100.801,197.585C100.692,196.808 100.612,196.105 100.56,195.475C100.508,194.846 100.482,194.253 100.482,193.698L100.482,189.948L101.842,189.948L101.842,200L100.573,200L99.056,195.475C98.917,195.054 98.785,194.622 98.659,194.18C98.537,193.737 98.425,193.273 98.32,192.786C98.312,192.726 98.297,192.652 98.275,192.565C98.257,192.478 98.236,192.378 98.21,192.266C98.223,192.378 98.234,192.476 98.242,192.559C98.251,192.637 98.257,192.704 98.262,192.76L98.333,193.783L98.405,195.026C98.409,195.095 98.411,195.18 98.411,195.28C98.416,195.38 98.418,195.493 98.418,195.618L98.49,200L97.155,200L97.155,189.948Z" style="fill:rgb(158,161,168);fill-rule:nonzero;"/>
            <path id="path1067" d="M111.198,195.221C111.198,196.997 111,198.257 110.605,199.004C110.21,199.75 109.549,200.124 108.62,200.124C107.643,200.124 106.955,199.722 106.556,198.919C106.161,198.134 105.964,196.738 105.964,194.733C105.964,192.945 106.159,191.68 106.549,190.937C106.944,190.191 107.613,189.818 108.555,189.818C109.397,189.818 110.022,190.106 110.43,190.684C110.699,191.07 110.894,191.619 111.016,192.331C111.137,192.99 111.198,193.954 111.198,195.221L111.198,195.221ZM109.779,195.365C109.779,193.624 109.701,192.47 109.544,191.901C109.388,191.328 109.069,191.042 108.587,191.042C108.105,191.042 107.784,191.304 107.624,191.829C107.467,192.359 107.389,193.422 107.389,195.02C107.389,196.491 107.472,197.511 107.637,198.079C107.806,198.618 108.123,198.887 108.587,198.887C109.043,198.887 109.355,198.635 109.525,198.132C109.694,197.632 109.779,196.71 109.779,195.365L109.779,195.365Z" style="fill:rgb(158,161,168);fill-rule:nonzero;"/>
            <path id="path1069" d="M112.546,189.948L116.165,189.948L116.165,191.094L113.9,191.094L113.9,194.271L115.944,194.271L115.944,195.417L113.9,195.417L113.9,200L112.546,200L112.546,189.948Z" style="fill:rgb(158,161,168);fill-rule:nonzero;"/>
            <path id="path1071" d="M117.207,189.948L120.827,189.948L120.827,191.094L118.561,191.094L118.561,194.271L120.605,194.271L120.605,195.417L118.561,195.417L118.561,200L117.207,200L117.207,189.948Z" style="fill:rgb(158,161,168);fill-rule:nonzero;"/>
        </g>
        <g id="text1038" transform="matrix(1,0,0,0.776248,-2.14178e-05,13.6045)">
            <path id="path1044" d="M13.184,234.714L15.645,234.714L15.645,235.104C15.645,237.062 15.473,238.383 15.13,239.069C14.792,239.772 14.158,240.124 13.229,240.124C12.27,240.124 11.586,239.733 11.178,238.952C10.775,238.171 10.573,236.858 10.573,235.013C10.573,232.904 10.794,231.5 11.237,230.801C11.654,230.145 12.294,229.818 13.158,229.818C13.817,229.818 14.332,229.976 14.701,230.293C15.074,230.614 15.365,231.141 15.573,231.875L14.31,232.402C14.253,232.138 14.191,231.916 14.121,231.738C14.052,231.556 13.976,231.415 13.893,231.315C13.728,231.111 13.481,231.009 13.151,231.009C12.7,231.009 12.391,231.287 12.227,231.842C12.062,232.424 11.979,233.468 11.979,234.974C11.979,236.497 12.064,237.528 12.233,238.066C12.402,238.605 12.721,238.874 13.19,238.874C13.62,238.874 13.921,238.683 14.095,238.301C14.273,237.893 14.362,237.237 14.362,236.335L14.362,236.061L14.362,235.859L13.184,235.859L13.184,234.714Z" style="fill:rgb(158,161,168);fill-rule:nonzero;"/>
            <path id="path1046" d="M18.431,229.948L19.486,229.948L21.641,240L20.299,240L19.922,238.04L17.93,238.04L17.546,240L16.243,240L18.431,229.948ZM19.727,236.992L19.427,235.391C19.227,234.301 19.065,233.138 18.939,231.901C18.878,232.504 18.8,233.116 18.704,233.737C18.609,234.353 18.496,235.009 18.366,235.703L18.118,236.992L19.727,236.992Z" style="fill:rgb(158,161,168);fill-rule:nonzero;"/>
            <path id="path1048" d="M21.432,229.948L25.84,229.948L25.84,231.133L24.323,231.133L24.323,240L22.995,240L22.995,231.133L21.432,231.133L21.432,229.948Z" style="fill:rgb(158,161,168);fill-rule:nonzero;"/>
            <path id="path1050" d="M26.582,229.948L30.182,229.948L30.182,231.094L27.936,231.094L27.936,234.277L29.928,234.277L29.928,235.423L27.936,235.423L27.936,238.854L30.182,238.854L30.182,240L26.582,240L26.582,229.948Z" style="fill:rgb(158,161,168);fill-rule:nonzero;"/>
            <rect id="path1052" x="33.411" y="236.042" width="2.37" height="1.016" style="fill:rgb(158,161,168);fill-rule:nonzero;"/>
            <path id="path1054" d="M38.516,229.948L42.923,229.948L42.923,231.133L41.406,231.133L41.406,240L40.078,240L40.078,231.133L38.516,231.133L38.516,229.948Z" style="fill:rgb(158,161,168);fill-rule:nonzero;"/>
            <path id="path1056" d="M43.665,229.948L45.449,229.948C46.187,229.948 46.736,230.124 47.096,230.475C47.552,230.931 47.78,231.628 47.78,232.565C47.78,233.286 47.658,233.865 47.415,234.303C47.177,234.737 46.834,235.007 46.387,235.111L48.236,240L46.862,240L45.02,235.078L45.02,240L43.665,240L43.665,229.948ZM45.02,234.401C45.545,234.401 45.916,234.28 46.133,234.036C46.35,233.793 46.458,233.383 46.458,232.806C46.458,232.494 46.434,232.227 46.387,232.005C46.343,231.784 46.272,231.604 46.172,231.465C46.076,231.326 45.951,231.224 45.794,231.159C45.642,231.094 45.46,231.061 45.247,231.061L45.02,231.061L45.02,234.401Z" style="fill:rgb(158,161,168);fill-rule:nonzero;"/>
            <rect id="path1058" x="49.29" y="229.948" width="1.354" height="10.052" style="fill:rgb(158,161,168);fill-rule:nonzero;"/>
            <path id="path1060" d="M54.616,234.714L57.077,234.714L57.077,235.104C57.077,237.062 56.905,238.383 56.562,239.069C56.224,239.772 55.59,240.124 54.661,240.124C53.702,240.124 53.019,239.733 52.611,238.952C52.207,238.171 52.005,236.858 52.005,235.013C52.005,232.904 52.227,231.5 52.669,230.801C53.086,230.145 53.726,229.818 54.59,229.818C55.25,229.818 55.764,229.976 56.133,230.293C56.506,230.614 56.797,231.141 57.005,231.875L55.742,232.402C55.686,232.138 55.623,231.916 55.553,231.738C55.484,231.556 55.408,231.415 55.326,231.315C55.161,231.111 54.913,231.009 54.583,231.009C54.132,231.009 53.824,231.287 53.659,231.842C53.494,232.424 53.411,233.468 53.411,234.974C53.411,236.497 53.496,237.528 53.665,238.066C53.835,238.605 54.154,238.874 54.622,238.874C55.052,238.874 55.354,238.683 55.527,238.301C55.705,237.893 55.794,237.237 55.794,236.335L55.794,236.061L55.794,235.859L54.616,235.859L54.616,234.714Z" style="fill:rgb(158,161,168);fill-rule:nonzero;"/>
        </g>
        <g id="text1082" transform="matrix(1,0,0,0.818937,0,22.0846)">
            <path id="path1170" d="M42.164,236.938L43.43,236.938L46.016,249L44.406,249L43.953,246.648L41.562,246.648L41.102,249L39.539,249L42.164,236.938ZM43.719,245.391L43.359,243.469C43.12,242.161 42.925,240.766 42.773,239.281C42.701,240.005 42.607,240.74 42.492,241.484C42.378,242.224 42.242,243.01 42.086,243.844L41.789,245.391L43.719,245.391Z" style="fill:rgb(158,161,168);fill-rule:nonzero;"/>
            <path id="path1172" d="M46.977,236.938L48.602,236.938L48.602,247.625L51.258,247.625L51.258,249L46.977,249L46.977,236.938Z" style="fill:rgb(158,161,168);fill-rule:nonzero;"/>
            <path id="path1175" d="M54.664,236.938L55.93,236.938L58.516,249L56.906,249L56.453,246.648L54.062,246.648L53.602,249L52.039,249L54.664,236.938ZM56.219,245.391L55.859,243.469C55.62,242.161 55.425,240.766 55.273,239.281C55.201,240.005 55.107,240.74 54.992,241.484C54.878,242.224 54.742,243.01 54.586,243.844L54.289,245.391L56.219,245.391Z" style="fill:rgb(158,161,168);fill-rule:nonzero;"/>
            <path id="path1181" d="M59.477,236.938L61.617,236.938C62.503,236.938 63.161,237.148 63.594,237.57C64.141,238.117 64.414,238.953 64.414,240.078C64.414,240.943 64.268,241.638 63.977,242.164C63.69,242.685 63.279,243.008 62.742,243.133L64.961,249L63.312,249L61.102,243.094L61.102,249L59.477,249L59.477,236.938ZM61.102,242.281C61.732,242.281 62.177,242.135 62.438,241.844C62.698,241.552 62.828,241.06 62.828,240.367C62.828,239.992 62.799,239.672 62.742,239.406C62.69,239.141 62.604,238.924 62.484,238.758C62.37,238.591 62.219,238.469 62.031,238.391C61.849,238.313 61.63,238.273 61.375,238.273L61.102,238.273L61.102,242.281Z" style="fill:rgb(158,161,168);fill-rule:nonzero;"/>
            <path id="path1187" d="M66.797,236.938L68.187,236.938L69.25,241.859C69.38,242.474 69.497,243.091 69.602,243.711C69.711,244.326 69.81,244.971 69.898,245.648C69.909,245.56 69.917,245.492 69.922,245.445C69.927,245.393 69.932,245.357 69.937,245.336L70.164,243.953L70.367,242.641L70.547,241.773L71.492,236.938L72.898,236.938L74.008,249L72.453,249L72.18,244.906C72.169,244.698 72.159,244.518 72.148,244.367C72.143,244.216 72.14,244.091 72.14,243.992L72.07,242.375L72.031,240.891C72.031,240.88 72.028,240.859 72.023,240.828C72.023,240.792 72.02,240.745 72.015,240.687L71.976,240.93C71.934,241.216 71.895,241.466 71.859,241.68C71.828,241.893 71.799,242.073 71.773,242.219L71.57,243.32L71.492,243.734L70.476,249L69.382,249L68.429,244.453C68.299,243.854 68.182,243.247 68.078,242.633C67.979,242.013 67.888,241.365 67.804,240.687L67.335,249L65.804,249L66.797,236.938Z" style="fill:rgb(158,161,168);fill-rule:nonzero;"/>
            <path id="path1198" d="M76.781,240.859L75.188,240.859L75.172,240.383C75.172,239.065 75.37,238.138 75.766,237.602C76.167,237.06 76.839,236.789 77.781,236.789C79.557,236.789 80.445,237.773 80.445,239.742C80.445,241.07 79.781,242.984 78.453,245.484L77.492,247.289C77.487,247.299 77.471,247.331 77.445,247.383C77.419,247.435 77.383,247.51 77.336,247.609L80.32,247.609L80.32,249L75.024,249C75.112,248.802 75.297,248.409 75.578,247.82C75.86,247.232 76.242,246.437 76.727,245.437C77.138,244.562 77.482,243.82 77.758,243.211C78.034,242.602 78.242,242.102 78.383,241.711C78.664,240.93 78.805,240.255 78.805,239.687C78.805,238.687 78.458,238.187 77.766,238.187C77.099,238.187 76.766,238.807 76.766,240.047L76.774,240.734L76.781,240.859Z" style="fill:rgb(158,161,168);fill-rule:nonzero;"/>
        </g>
        <path id="path1118" d="M15.275,228.234L16.629,228.234L16.629,231.285L18.615,231.285L18.615,228.234L19.969,228.234L19.969,236.032L18.615,236.032L18.615,232.174L16.629,232.174L16.629,236.032L15.275,236.032L15.275,228.234Z" style="fill:rgb(158,161,168);fill-rule:nonzero;"/>
        <path id="path1120" d="M43.644,228.234L44.803,228.234L45.689,231.416C45.797,231.814 45.895,232.213 45.982,232.613C46.073,233.011 46.155,233.428 46.229,233.866C46.238,233.809 46.244,233.765 46.249,233.734C46.253,233.701 46.257,233.677 46.262,233.664L46.45,232.77L46.62,231.921L46.769,231.361L47.557,228.234L48.729,228.234L49.653,236.032L48.358,236.032L48.13,233.386C48.121,233.251 48.113,233.135 48.104,233.037C48.1,232.94 48.098,232.859 48.098,232.795L48.039,231.75L48.006,230.79C48.006,230.783 48.004,230.77 48,230.75C48,230.726 47.998,230.696 47.994,230.659L47.961,230.815C47.926,231 47.894,231.162 47.863,231.3C47.837,231.438 47.813,231.554 47.792,231.649L47.623,232.361L47.557,232.628L46.711,236.032L45.8,236.032L45.005,233.093C44.897,232.706 44.799,232.313 44.712,231.916C44.63,231.516 44.554,231.096 44.484,230.659L44.094,236.032L42.818,236.032L43.644,228.234Z" style="fill:rgb(158,161,168);fill-rule:nonzero;"/>
        <path id="path1122" d="M77.003,228.502L77.003,229.527C76.59,229.298 76.219,229.184 75.889,229.184C75.533,229.184 75.243,229.282 75.017,229.477C74.791,229.662 74.678,229.909 74.678,230.219C74.678,230.492 74.759,230.726 74.919,230.921C75.002,231.026 75.136,231.16 75.323,231.325C75.514,231.49 75.759,231.689 76.059,231.921C76.61,232.356 76.985,232.731 77.185,233.048C77.385,233.354 77.484,233.729 77.484,234.174C77.484,234.776 77.265,235.273 76.827,235.664C76.388,236.044 75.826,236.234 75.141,236.234C74.563,236.234 74.071,236.112 73.663,235.866L73.663,234.825C74.145,235.098 74.583,235.234 74.978,235.234C75.347,235.234 75.635,235.14 75.844,234.952C76.052,234.76 76.156,234.5 76.156,234.174C76.156,233.891 76.076,233.637 75.915,233.411C75.833,233.303 75.718,233.181 75.57,233.042C75.423,232.901 75.238,232.744 75.017,232.573C74.674,232.31 74.39,232.078 74.164,231.876C73.938,231.674 73.771,231.497 73.663,231.346C73.454,231.049 73.35,230.675 73.35,230.224C73.35,229.615 73.554,229.132 73.962,228.775C74.375,228.415 74.928,228.234 75.622,228.234C76.104,228.234 76.564,228.324 77.003,228.502L77.003,228.502Z" style="fill:rgb(158,161,168);fill-rule:nonzero;"/>
        <g id="g1148" transform="matrix(0.661072,0,0,0.775758,34.6977,64.9864)">
            <path id="path1138" d="M95.807,195.221C95.807,196.997 95.61,198.257 95.215,199.004C94.82,199.75 94.158,200.124 93.229,200.124C92.253,200.124 91.565,199.722 91.165,198.919C90.77,198.134 90.573,196.738 90.573,194.733C90.573,192.945 90.768,191.68 91.159,190.937C91.554,190.191 92.222,189.818 93.164,189.818C94.006,189.818 94.631,190.106 95.039,190.684C95.308,191.07 95.503,191.619 95.625,192.331C95.747,192.99 95.807,193.954 95.807,195.221L95.807,195.221ZM94.388,195.365C94.388,193.624 94.31,192.47 94.154,191.901C93.997,191.328 93.678,191.042 93.197,191.042C92.715,191.042 92.394,191.304 92.233,191.829C92.077,192.359 91.999,193.422 91.999,195.02C91.999,196.491 92.081,197.511 92.246,198.079C92.415,198.618 92.732,198.887 93.197,198.887C93.652,198.887 93.965,198.635 94.134,198.132C94.303,197.632 94.388,196.71 94.388,195.365L94.388,195.365Z" style="fill:rgb(158,161,168);fill-rule:nonzero;"/>
            <path id="path1140" d="M97.155,189.948L98.418,189.948L99.766,193.958C100.156,195.091 100.501,196.3 100.801,197.585C100.692,196.808 100.612,196.105 100.56,195.475C100.508,194.846 100.482,194.253 100.482,193.698L100.482,189.948L101.842,189.948L101.842,200L100.573,200L99.056,195.475C98.917,195.054 98.785,194.622 98.659,194.18C98.537,193.737 98.425,193.273 98.32,192.786C98.312,192.726 98.297,192.652 98.275,192.565C98.257,192.478 98.236,192.378 98.21,192.266C98.223,192.378 98.234,192.476 98.242,192.559C98.251,192.637 98.257,192.704 98.262,192.76L98.333,193.783L98.405,195.026C98.409,195.095 98.411,195.18 98.411,195.28C98.416,195.38 98.418,195.493 98.418,195.618L98.49,200L97.155,200L97.155,189.948Z" style="fill:rgb(158,161,168);fill-rule:nonzero;"/>
            <path id="path1142" d="M111.198,195.221C111.198,196.997 111,198.257 110.605,199.004C110.21,199.75 109.549,200.124 108.62,200.124C107.643,200.124 106.955,199.722 106.556,198.919C106.161,198.134 105.964,196.738 105.964,194.733C105.964,192.945 106.159,191.68 106.549,190.937C106.944,190.191 107.613,189.818 108.555,189.818C109.397,189.818 110.022,190.106 110.43,190.684C110.699,191.07 110.894,191.619 111.016,192.331C111.137,192.99 111.198,193.954 111.198,195.221L111.198,195.221ZM109.779,195.365C109.779,193.624 109.701,192.47 109.544,191.901C109.388,191.328 109.069,191.042 108.587,191.042C108.105,191.042 107.784,191.304 107.624,191.829C107.467,192.359 107.389,193.422 107.389,195.02C107.389,196.491 107.472,197.511 107.637,198.079C107.806,198.618 108.123,198.887 108.587,198.887C109.043,198.887 109.355,198.635 109.525,198.132C109.694,197.632 109.779,196.71 109.779,195.365L109.779,195.365Z" style="fill:rgb(158,161,168);fill-rule:nonzero;"/>
            <path id="path1144" d="M112.546,189.948L116.165,189.948L116.165,191.094L113.9,191.094L113.9,194.271L115.944,194.271L115.944,195.417L113.9,195.417L113.9,200L112.546,200L112.546,189.948Z" style="fill:rgb(158,161,168);fill-rule:nonzero;"/>
            <path id="path1146" d="M117.207,189.948L120.827,189.948L120.827,191.094L118.561,191.094L118.561,194.271L120.605,194.271L120.605,195.417L118.561,195.417L118.561,200L117.207,200L117.207,189.948Z" style="fill:rgb(158,161,168);fill-rule:nonzero;"/>
        </g>
        <g id="g1168" transform="matrix(1,0,0,0.776248,0,87.6045)">
            <path id="path1150" d="M13.184,234.714L15.645,234.714L15.645,235.104C15.645,237.062 15.473,238.383 15.13,239.069C14.792,239.772 14.158,240.124 13.229,240.124C12.27,240.124 11.586,239.733 11.178,238.952C10.775,238.171 10.573,236.858 10.573,235.013C10.573,232.904 10.794,231.5 11.237,230.801C11.654,230.145 12.294,229.818 13.158,229.818C13.817,229.818 14.332,229.976 14.701,230.293C15.074,230.614 15.365,231.141 15.573,231.875L14.31,232.402C14.253,232.138 14.191,231.916 14.121,231.738C14.052,231.556 13.976,231.415 13.893,231.315C13.728,231.111 13.481,231.009 13.151,231.009C12.7,231.009 12.391,231.287 12.227,231.842C12.062,232.424 11.979,233.468 11.979,234.974C11.979,236.497 12.064,237.528 12.233,238.066C12.402,238.605 12.721,238.874 13.19,238.874C13.62,238.874 13.921,238.683 14.095,238.301C14.273,237.893 14.362,237.237 14.362,236.335L14.362,236.061L14.362,235.859L13.184,235.859L13.184,234.714Z" style="fill:rgb(158,161,168);fill-rule:nonzero;"/>
            <path id="path1152" d="M18.431,229.948L19.486,229.948L21.641,240L20.299,240L19.922,238.04L17.93,238.04L17.546,240L16.243,240L18.431,229.948ZM19.727,236.992L19.427,235.391C19.227,234.301 19.065,233.138 18.939,231.901C18.878,232.504 18.8,233.116 18.704,233.737C18.609,234.353 18.496,235.009 18.366,235.703L18.118,236.992L19.727,236.992Z" style="fill:rgb(158,161,168);fill-rule:nonzero;"/>
            <path id="path1154" d="M21.432,229.948L25.84,229.948L25.84,231.133L24.323,231.133L24.323,240L22.995,240L22.995,231.133L21.432,231.133L21.432,229.948Z" style="fill:rgb(158,161,168);fill-rule:nonzero;"/>
            <path id="path1156" d="M26.582,229.948L30.182,229.948L30.182,231.094L27.936,231.094L27.936,234.277L29.928,234.277L29.928,235.423L27.936,235.423L27.936,238.854L30.182,238.854L30.182,240L26.582,240L26.582,229.948Z" style="fill:rgb(158,161,168);fill-rule:nonzero;"/>
            <rect id="path1158" x="33.411" y="236.042" width="2.37" height="1.016" style="fill:rgb(158,161,168);fill-rule:nonzero;"/>
            <path id="path1160" d="M38.516,229.948L42.923,229.948L42.923,231.133L41.406,231.133L41.406,240L40.078,240L40.078,231.133L38.516,231.133L38.516,229.948Z" style="fill:rgb(158,161,168);fill-rule:nonzero;"/>
            <path id="path1162" d="M43.665,229.948L45.449,229.948C46.187,229.948 46.736,230.124 47.096,230.475C47.552,230.931 47.78,231.628 47.78,232.565C47.78,233.286 47.658,233.865 47.415,234.303C47.177,234.737 46.834,235.007 46.387,235.111L48.236,240L46.862,240L45.02,235.078L45.02,240L43.665,240L43.665,229.948ZM45.02,234.401C45.545,234.401 45.916,234.28 46.133,234.036C46.35,233.793 46.458,233.383 46.458,232.806C46.458,232.494 46.434,232.227 46.387,232.005C46.343,231.784 46.272,231.604 46.172,231.465C46.076,231.326 45.951,231.224 45.794,231.159C45.642,231.094 45.46,231.061 45.247,231.061L45.02,231.061L45.02,234.401Z" style="fill:rgb(158,161,168);fill-rule:nonzero;"/>
            <rect id="path1164" x="49.29" y="229.948" width="1.354" height="10.052" style="fill:rgb(158,161,168);fill-rule:nonzero;"/>
            <path id="path1166" d="M54.616,234.714L57.077,234.714L57.077,235.104C57.077,237.062 56.905,238.383 56.562,239.069C56.224,239.772 55.59,240.124 54.661,240.124C53.702,240.124 53.019,239.733 52.611,238.952C52.207,238.171 52.005,236.858 52.005,235.013C52.005,232.904 52.227,231.5 52.669,230.801C53.086,230.145 53.726,229.818 54.59,229.818C55.25,229.818 55.764,229.976 56.133,230.293C56.506,230.614 56.797,231.141 57.005,231.875L55.742,232.402C55.686,232.138 55.623,231.916 55.553,231.738C55.484,231.556 55.408,231.415 55.326,231.315C55.161,231.111 54.913,231.009 54.583,231.009C54.132,231.009 53.824,231.287 53.659,231.842C53.494,232.424 53.411,233.468 53.411,234.974C53.411,236.497 53.496,237.528 53.665,238.066C53.835,238.605 54.154,238.874 54.622,238.874C55.052,238.874 55.354,238.683 55.527,238.301C55.705,237.893 55.794,237.237 55.794,236.335L55.794,236.061L55.794,235.859L54.616,235.859L54.616,234.714Z" style="fill:rgb(158,161,168);fill-rule:nonzero;"/>
        </g>
        <g id="text1203" transform="matrix(1,0,0,0.775757,0,42.7856)">
            <path id="path1273" d="M44.72,310.111L44.72,311.328C44.373,311.159 44.082,311.074 43.848,311.074C43.526,311.074 43.251,311.155 43.021,311.315C42.791,311.471 42.6,311.714 42.448,312.044C42.3,312.374 42.19,312.793 42.116,313.301C42.046,313.804 42.012,314.401 42.012,315.091C42.012,317.574 42.648,318.815 43.919,318.815C44.141,318.815 44.408,318.746 44.72,318.607L44.72,319.85C44.395,320.033 44.03,320.124 43.626,320.124C41.591,320.124 40.573,318.461 40.573,315.137C40.573,313.34 40.82,312.003 41.315,311.126C41.814,310.25 42.576,309.811 43.6,309.811C43.978,309.811 44.351,309.911 44.72,310.111L44.72,310.111Z" style="fill:rgb(158,161,168);fill-rule:nonzero;"/>
            <path id="path1275" d="M50.807,315.221C50.807,316.997 50.61,318.257 50.215,319.004C49.82,319.75 49.158,320.124 48.229,320.124C47.253,320.124 46.565,319.722 46.165,318.919C45.77,318.134 45.573,316.738 45.573,314.733C45.573,312.945 45.768,311.68 46.159,310.938C46.554,310.191 47.222,309.818 48.164,309.818C49.006,309.818 49.631,310.106 50.039,310.684C50.308,311.07 50.503,311.619 50.625,312.331C50.747,312.99 50.807,313.954 50.807,315.221L50.807,315.221ZM49.388,315.365C49.388,313.624 49.31,312.47 49.154,311.901C48.997,311.328 48.678,311.042 48.197,311.042C47.715,311.042 47.394,311.304 47.233,311.829C47.077,312.359 46.999,313.422 46.999,315.02C46.999,316.491 47.081,317.511 47.246,318.079C47.415,318.618 47.732,318.887 48.197,318.887C48.652,318.887 48.965,318.635 49.134,318.132C49.303,317.632 49.388,316.71 49.388,315.365L49.388,315.365Z" style="fill:rgb(158,161,168);fill-rule:nonzero;"/>
            <path id="path1277" d="M52.155,309.948L53.483,309.948L53.483,317.051C53.483,317.776 53.548,318.257 53.678,318.496C53.813,318.735 54.078,318.854 54.473,318.854C54.868,318.854 55.128,318.75 55.254,318.542C55.384,318.329 55.449,317.897 55.449,317.246L55.449,309.948L56.777,309.948L56.777,317.246C56.777,318.34 56.61,319.08 56.276,319.466C55.877,319.905 55.267,320.124 54.447,320.124C53.544,320.124 52.908,319.842 52.539,319.277C52.283,318.891 52.155,318.149 52.155,317.051L52.155,309.948Z" style="fill:rgb(158,161,168);fill-rule:nonzero;"/>
            <path id="path1279" d="M58.327,309.948L59.59,309.948L60.938,313.958C61.328,315.091 61.673,316.3 61.973,317.585C61.864,316.808 61.784,316.105 61.732,315.475C61.68,314.846 61.654,314.253 61.654,313.698L61.654,309.948L63.014,309.948L63.014,320L61.745,320L60.228,315.475C60.089,315.054 59.957,314.622 59.831,314.18C59.709,313.737 59.596,313.273 59.492,312.786C59.484,312.726 59.468,312.652 59.447,312.565C59.429,312.478 59.408,312.378 59.382,312.266C59.395,312.378 59.405,312.476 59.414,312.559C59.423,312.637 59.429,312.704 59.434,312.76L59.505,313.783L59.577,315.026C59.581,315.095 59.583,315.18 59.583,315.28C59.588,315.38 59.59,315.493 59.59,315.618L59.661,320L58.327,320L58.327,309.948Z" style="fill:rgb(158,161,168);fill-rule:nonzero;"/>
            <path id="path1281" d="M63.776,309.948L68.184,309.948L68.184,311.133L66.667,311.133L66.667,320L65.339,320L65.339,311.133L63.776,311.133L63.776,309.948Z" style="fill:rgb(158,161,168);fill-rule:nonzero;"/>
            <path id="path1283" d="M68.926,309.948L72.526,309.948L72.526,311.094L70.28,311.094L70.28,314.277L72.272,314.277L72.272,315.423L70.28,315.423L70.28,318.854L72.526,318.854L72.526,320L68.926,320L68.926,309.948Z" style="fill:rgb(158,161,168);fill-rule:nonzero;"/>
            <path id="path1285" d="M73.77,309.948L75.553,309.948C76.291,309.948 76.84,310.124 77.201,310.475C77.656,310.931 77.884,311.628 77.884,312.565C77.884,313.286 77.763,313.865 77.52,314.303C77.281,314.737 76.938,315.007 76.491,315.111L78.34,320L76.966,320L75.124,315.078L75.124,320L73.77,320L73.77,309.948ZM75.124,314.401C75.649,314.401 76.02,314.28 76.237,314.036C76.454,313.793 76.563,313.383 76.563,312.806C76.563,312.494 76.539,312.227 76.491,312.005C76.447,311.784 76.376,311.604 76.276,311.465C76.181,311.326 76.055,311.224 75.898,311.159C75.747,311.094 75.564,311.061 75.352,311.061L75.124,311.061L75.124,314.401Z" style="fill:rgb(158,161,168);fill-rule:nonzero;"/>
            <path id="path1287" d="M82.747,310.156L82.747,311.478C82.335,311.183 81.964,311.035 81.634,311.035C81.278,311.035 80.987,311.161 80.762,311.413C80.536,311.651 80.423,311.97 80.423,312.37C80.423,312.721 80.503,313.023 80.664,313.275C80.747,313.409 80.881,313.583 81.068,313.796C81.259,314.008 81.504,314.264 81.803,314.564C82.355,315.124 82.73,315.608 82.93,316.016C83.129,316.411 83.229,316.895 83.229,317.467C83.229,318.244 83.01,318.885 82.572,319.388C82.133,319.878 81.571,320.124 80.885,320.124C80.308,320.124 79.816,319.965 79.408,319.648L79.408,318.307C79.889,318.659 80.328,318.835 80.723,318.835C81.092,318.835 81.38,318.713 81.589,318.47C81.797,318.223 81.901,317.888 81.901,317.467C81.901,317.103 81.821,316.775 81.66,316.484C81.578,316.346 81.463,316.187 81.315,316.009C81.168,315.827 80.983,315.625 80.762,315.404C80.419,315.065 80.135,314.766 79.909,314.505C79.683,314.245 79.516,314.017 79.408,313.822C79.199,313.44 79.095,312.958 79.095,312.376C79.095,311.591 79.299,310.968 79.707,310.508C80.119,310.043 80.673,309.811 81.367,309.811C81.849,309.811 82.309,309.926 82.747,310.156L82.747,310.156Z" style="fill:rgb(158,161,168);fill-rule:nonzero;"/>
        </g>
        <g id="text1207" transform="matrix(0.931226,0,0,0.920448,0,13.9145)">
            <path id="path1260" d="M2.148,303.293L4.934,303.293L4.934,304.042L3.975,304.042L3.975,309.647L3.135,309.647L3.135,304.042L2.148,304.042L2.148,303.293Z" style="fill:rgb(158,161,168);fill-rule:nonzero;"/>
            <path id="path1262" d="M6.193,303.293L6.86,303.293L8.222,309.647L7.374,309.647L7.135,308.408L5.876,308.408L5.633,309.647L4.81,309.647L6.193,303.293ZM7.012,307.745L6.823,306.733C6.696,306.044 6.594,305.309 6.514,304.527C6.476,304.909 6.426,305.295 6.366,305.688C6.305,306.077 6.234,306.492 6.152,306.931L5.995,307.745L7.012,307.745Z" style="fill:rgb(158,161,168);fill-rule:nonzero;"/>
            <path id="path1264" d="M8.728,303.293L9.856,303.293C10.322,303.293 10.669,303.404 10.897,303.626C11.185,303.914 11.329,304.354 11.329,304.947C11.329,305.402 11.252,305.769 11.098,306.046C10.947,306.32 10.731,306.49 10.448,306.556L11.617,309.647L10.749,309.647L9.584,306.535L9.584,309.647L8.728,309.647L8.728,303.293ZM9.584,306.107C9.916,306.107 10.151,306.031 10.288,305.877C10.425,305.723 10.493,305.464 10.493,305.099C10.493,304.902 10.478,304.733 10.448,304.593C10.421,304.453 10.375,304.339 10.312,304.252C10.252,304.164 10.172,304.099 10.074,304.058C9.978,304.017 9.862,303.996 9.728,303.996L9.584,303.996L9.584,306.107Z" style="fill:rgb(158,161,168);fill-rule:nonzero;"/>
            <path id="path1266" d="M13.724,306.305L15.279,306.305L15.279,306.552C15.279,307.789 15.171,308.625 14.954,309.058C14.74,309.503 14.34,309.725 13.753,309.725C13.146,309.725 12.714,309.478 12.456,308.984C12.201,308.49 12.074,307.66 12.074,306.494C12.074,305.161 12.214,304.273 12.493,303.832C12.757,303.417 13.162,303.21 13.707,303.21C14.124,303.21 14.45,303.31 14.683,303.511C14.919,303.714 15.103,304.047 15.234,304.511L14.436,304.844C14.4,304.677 14.36,304.537 14.317,304.424C14.273,304.309 14.225,304.22 14.172,304.157C14.068,304.028 13.912,303.963 13.703,303.963C13.418,303.963 13.223,304.139 13.119,304.49C13.015,304.858 12.963,305.518 12.963,306.47C12.963,307.433 13.016,308.084 13.123,308.424C13.23,308.765 13.432,308.935 13.728,308.935C14,308.935 14.19,308.814 14.3,308.572C14.413,308.315 14.469,307.9 14.469,307.33L14.469,307.157L14.469,307.029L13.724,307.029L13.724,306.305Z" style="fill:rgb(158,161,168);fill-rule:nonzero;"/>
            <path id="path1268" d="M16.135,303.293L18.411,303.293L18.411,304.017L16.991,304.017L16.991,306.029L18.251,306.029L18.251,306.754L16.991,306.754L16.991,308.922L18.411,308.922L18.411,309.647L16.135,309.647L16.135,303.293Z" style="fill:rgb(158,161,168);fill-rule:nonzero;"/>
            <path id="path1270" d="M18.691,303.293L21.477,303.293L21.477,304.042L20.518,304.042L20.518,309.647L19.679,309.647L19.679,304.042L18.691,304.042L18.691,303.293Z" style="fill:rgb(158,161,168);fill-rule:nonzero;"/>
        </g>
        <g id="text1211" transform="matrix(0.980012,0,0,0.874627,9.66099,13.9145)">
            <path id="path1249" d="M31.676,319.29L31.676,320.1C31.445,319.987 31.251,319.931 31.095,319.931C30.882,319.931 30.698,319.984 30.545,320.091C30.392,320.195 30.265,320.357 30.164,320.576C30.066,320.796 29.993,321.074 29.943,321.412C29.897,321.747 29.874,322.144 29.874,322.603C29.874,324.255 30.297,325.08 31.143,325.08C31.29,325.08 31.468,325.034 31.676,324.942L31.676,325.769C31.459,325.89 31.217,325.951 30.948,325.951C29.594,325.951 28.917,324.845 28.917,322.633C28.917,321.438 29.082,320.549 29.411,319.966C29.743,319.382 30.249,319.091 30.931,319.091C31.182,319.091 31.43,319.157 31.676,319.29L31.676,319.29Z" style="fill:rgb(158,161,168);fill-rule:nonzero;"/>
            <path id="path1251" d="M35.725,322.69C35.725,323.871 35.594,324.709 35.331,325.206C35.068,325.703 34.628,325.951 34.01,325.951C33.36,325.951 32.903,325.684 32.637,325.15C32.374,324.627 32.243,323.699 32.243,322.365C32.243,321.175 32.373,320.334 32.633,319.84C32.896,319.343 33.34,319.095 33.967,319.095C34.527,319.095 34.943,319.287 35.214,319.671C35.393,319.928 35.523,320.293 35.604,320.767C35.685,321.206 35.725,321.847 35.725,322.69L35.725,322.69ZM34.781,322.785C34.781,321.627 34.729,320.859 34.625,320.481C34.521,320.1 34.309,319.909 33.988,319.909C33.668,319.909 33.454,320.084 33.347,320.433C33.244,320.786 33.192,321.493 33.192,322.555C33.192,323.534 33.246,324.213 33.356,324.591C33.469,324.949 33.68,325.128 33.988,325.128C34.292,325.128 34.499,324.961 34.612,324.626C34.725,324.294 34.781,323.68 34.781,322.785L34.781,322.785Z" style="fill:rgb(158,161,168);fill-rule:nonzero;"/>
            <path id="path1253" d="M36.622,319.182L37.505,319.182L37.505,323.907C37.505,324.389 37.548,324.709 37.635,324.868C37.725,325.027 37.901,325.106 38.163,325.106C38.426,325.106 38.599,325.037 38.683,324.898C38.77,324.757 38.813,324.47 38.813,324.037L38.813,319.182L39.697,319.182L39.697,324.037C39.697,324.764 39.585,325.256 39.363,325.513C39.097,325.805 38.692,325.951 38.146,325.951C37.546,325.951 37.123,325.763 36.877,325.388C36.707,325.131 36.622,324.637 36.622,323.907L36.622,319.182Z" style="fill:rgb(158,161,168);fill-rule:nonzero;"/>
            <path id="path1255" d="M40.727,319.182L41.567,319.182L42.464,321.85C42.724,322.603 42.953,323.407 43.153,324.262C43.08,323.745 43.027,323.277 42.992,322.859C42.958,322.44 42.94,322.046 42.94,321.676L42.94,319.182L43.845,319.182L43.845,325.869L43.001,325.869L41.992,322.859C41.899,322.579 41.811,322.291 41.728,321.997C41.647,321.702 41.572,321.393 41.502,321.07C41.497,321.03 41.487,320.98 41.472,320.923C41.461,320.865 41.446,320.799 41.429,320.723C41.437,320.799 41.445,320.864 41.45,320.918C41.456,320.97 41.46,321.015 41.463,321.053L41.511,321.733L41.559,322.56C41.561,322.606 41.563,322.662 41.563,322.729C41.565,322.795 41.567,322.87 41.567,322.954L41.614,325.869L40.727,325.869L40.727,319.182Z" style="fill:rgb(158,161,168);fill-rule:nonzero;"/>
            <path id="path1257" d="M44.352,319.182L47.284,319.182L47.284,319.97L46.275,319.97L46.275,325.869L45.392,325.869L45.392,319.97L44.352,319.97L44.352,319.182Z" style="fill:rgb(158,161,168);fill-rule:nonzero;"/>
        </g>
        <g id="text1215" transform="matrix(0.942326,0,0,0.909606,10,13.9145)">
            <path id="path1235" d="M66.976,310.281C66.976,311.416 66.85,312.223 66.597,312.7C66.345,313.178 65.921,313.417 65.327,313.417C64.702,313.417 64.262,313.16 64.007,312.646C63.754,312.144 63.628,311.251 63.628,309.968C63.628,308.825 63.753,308.015 64.003,307.541C64.255,307.063 64.683,306.824 65.285,306.824C65.824,306.824 66.224,307.009 66.485,307.378C66.657,307.625 66.782,307.977 66.86,308.432C66.937,308.854 66.976,309.47 66.976,310.281L66.976,310.281ZM66.068,310.372C66.068,309.259 66.018,308.521 65.918,308.157C65.819,307.791 65.614,307.607 65.306,307.607C64.998,307.607 64.793,307.775 64.69,308.111C64.59,308.45 64.54,309.13 64.54,310.152C64.54,311.093 64.593,311.745 64.698,312.109C64.807,312.453 65.009,312.625 65.306,312.625C65.598,312.625 65.798,312.464 65.906,312.142C66.014,311.823 66.068,311.233 66.068,310.372L66.068,310.372Z" style="fill:rgb(158,161,168);fill-rule:nonzero;"/>
            <path id="path1237" d="M67.838,306.908L68.646,306.908L69.508,309.473C69.758,310.197 69.979,310.971 70.17,311.792C70.101,311.295 70.049,310.846 70.016,310.443C69.983,310.041 69.966,309.662 69.966,309.306L69.966,306.908L70.836,306.908L70.836,313.337L70.024,313.337L69.054,310.443C68.965,310.174 68.881,309.898 68.8,309.614C68.722,309.331 68.65,309.034 68.584,308.723C68.578,308.684 68.568,308.637 68.554,308.582C68.543,308.526 68.53,308.462 68.513,308.39C68.521,308.462 68.528,308.525 68.534,308.578C68.539,308.628 68.543,308.671 68.546,308.707L68.592,309.361L68.638,310.156C68.64,310.2 68.642,310.254 68.642,310.318C68.645,310.382 68.646,310.454 68.646,310.535L68.692,313.337L67.838,313.337L67.838,306.908Z" style="fill:rgb(158,161,168);fill-rule:nonzero;"/>
            <rect id="path1239" x="71.34" y="310.805" width="1.516" height="0.65" style="fill:rgb(158,161,168);fill-rule:nonzero;"/>
            <path id="path1242" d="M76.571,310.281C76.571,311.416 76.444,312.223 76.192,312.7C75.939,313.178 75.516,313.417 74.922,313.417C74.297,313.417 73.857,313.16 73.602,312.646C73.349,312.144 73.223,311.251 73.223,309.968C73.223,308.825 73.348,308.015 73.597,307.541C73.85,307.063 74.278,306.824 74.88,306.824C75.419,306.824 75.818,307.009 76.079,307.378C76.251,307.625 76.376,307.977 76.454,308.432C76.532,308.854 76.571,309.47 76.571,310.281L76.571,310.281ZM75.663,310.372C75.663,309.259 75.613,308.521 75.513,308.157C75.413,307.791 75.209,307.607 74.901,307.607C74.593,307.607 74.387,307.775 74.285,308.111C74.185,308.45 74.135,309.13 74.135,310.152C74.135,311.093 74.187,311.745 74.293,312.109C74.401,312.453 74.604,312.625 74.901,312.625C75.192,312.625 75.392,312.464 75.5,312.142C75.609,311.823 75.663,311.233 75.663,310.372L75.663,310.372Z" style="fill:rgb(158,161,168);fill-rule:nonzero;"/>
            <path id="path1244" d="M77.433,306.908L79.748,306.908L79.748,307.641L78.299,307.641L78.299,309.673L79.606,309.673L79.606,310.406L78.299,310.406L78.299,313.337L77.433,313.337L77.433,306.908Z" style="fill:rgb(158,161,168);fill-rule:nonzero;"/>
            <path id="path1246" d="M80.414,306.908L82.73,306.908L82.73,307.641L81.281,307.641L81.281,309.673L82.588,309.673L82.588,310.406L81.281,310.406L81.281,313.337L80.414,313.337L80.414,306.908Z" style="fill:rgb(158,161,168);fill-rule:nonzero;"/>
        </g>
        <g id="text1219" transform="matrix(0.978513,0,0,0.875967,-2,13.9145)">
            <rect id="path1221" x="97.209" y="318.694" width="0.899" height="6.677" style="fill:rgb(158,161,168);fill-rule:nonzero;"/>
            <path id="path1224" d="M99.146,318.694L99.985,318.694L100.88,321.357C101.139,322.11 101.368,322.913 101.567,323.766C101.495,323.25 101.442,322.783 101.407,322.365C101.373,321.947 101.355,321.553 101.355,321.184L101.355,318.694L102.259,318.694L102.259,325.37L101.416,325.37L100.408,322.365C100.316,322.085 100.228,321.798 100.145,321.504C100.064,321.21 99.989,320.902 99.92,320.579C99.914,320.539 99.904,320.49 99.89,320.432C99.878,320.374 99.864,320.308 99.846,320.233C99.855,320.308 99.862,320.373 99.868,320.428C99.874,320.48 99.878,320.524 99.881,320.562L99.928,321.241L99.976,322.067C99.979,322.113 99.98,322.169 99.98,322.235C99.983,322.301 99.984,322.376 99.984,322.46L100.032,325.37L99.146,325.37L99.146,318.694Z" style="fill:rgb(158,161,168);fill-rule:nonzero;"/>
            <path id="path1226" d="M110.307,322.196C110.307,323.375 110.175,324.213 109.913,324.709C109.651,325.204 109.211,325.452 108.594,325.452C107.946,325.452 107.489,325.186 107.223,324.652C106.961,324.131 106.83,323.204 106.83,321.872C106.83,320.684 106.96,319.844 107.219,319.351C107.481,318.855 107.925,318.607 108.551,318.607C109.11,318.607 109.525,318.799 109.796,319.182C109.975,319.439 110.105,319.804 110.186,320.276C110.266,320.714 110.307,321.354 110.307,322.196L110.307,322.196ZM109.364,322.291C109.364,321.135 109.312,320.369 109.208,319.991C109.104,319.61 108.893,319.42 108.573,319.42C108.253,319.42 108.039,319.595 107.933,319.943C107.829,320.295 107.777,321.001 107.777,322.062C107.777,323.039 107.832,323.717 107.941,324.095C108.054,324.452 108.264,324.631 108.573,324.631C108.875,324.631 109.083,324.464 109.195,324.129C109.308,323.798 109.364,323.185 109.364,322.291L109.364,322.291Z" style="fill:rgb(158,161,168);fill-rule:nonzero;"/>
            <path id="path1229" d="M111.202,318.694L112.084,318.694L112.084,323.411C112.084,323.893 112.127,324.213 112.214,324.371C112.303,324.53 112.479,324.609 112.741,324.609C113.003,324.609 113.176,324.54 113.26,324.402C113.347,324.26 113.39,323.974 113.39,323.541L113.39,318.694L114.272,318.694L114.272,323.541C114.272,324.268 114.161,324.759 113.939,325.016C113.674,325.307 113.269,325.452 112.724,325.452C112.124,325.452 111.702,325.265 111.457,324.89C111.287,324.634 111.202,324.141 111.202,323.411L111.202,318.694Z" style="fill:rgb(158,161,168);fill-rule:nonzero;"/>
            <path id="path1231" d="M114.769,318.694L117.697,318.694L117.697,319.481L116.689,319.481L116.689,325.37L115.807,325.37L115.807,319.481L114.769,319.481L114.769,318.694Z" style="fill:rgb(158,161,168);fill-rule:nonzero;"/>
        </g>
    </g>
</svg>
