<?xml version="1.0" encoding="UTF-8" standalone="no"?>
<!DOCTYPE svg PUBLIC "-//W3C//DTD SVG 1.1//EN" "http://www.w3.org/Graphics/SVG/1.1/DTD/svg11.dtd">
<svg width="100%" height="100%" viewBox="0 0 300 380" version="1.1" xmlns="http://www.w3.org/2000/svg" xmlns:xlink="http://www.w3.org/1999/xlink" xml:space="preserve" xmlns:serif="http://www.serif.com/" style="fill-rule:evenodd;clip-rule:evenodd;stroke-linejoin:round;stroke-miterlimit:2;">
    <g id="Layer-2" serif:id="Layer 2">
        <g id="text989">
        </g>
        <rect id="rect4689" x="0" y="0" width="300" height="380" style="fill-rule:nonzero;"/>
        <rect id="path973" x="0" y="330" width="300" height="50" style="fill:rgb(44,45,48);fill-rule:nonzero;"/>
        <g id="text80" transform="matrix(1.00498,0,0,0.995047,104.311,4.99997)">
            <path id="path4726" d="M29.851,371.706L29.851,363.943L31.853,363.943L32.903,366.668C32.96,366.829 33.024,367.013 33.094,367.221C33.168,367.429 33.249,367.668 33.336,367.94L33.552,368.624C33.475,367.95 33.416,367.373 33.376,366.894C33.336,366.415 33.316,366.013 33.316,365.687L33.316,363.943L35.317,363.943L35.317,371.706L33.316,371.706L32.26,368.85C32.149,368.545 32.049,368.26 31.958,367.995C31.871,367.727 31.794,367.472 31.727,367.231C31.77,367.777 31.802,368.253 31.822,368.659C31.843,369.065 31.853,369.42 31.853,369.725L31.853,371.706L29.851,371.706Z" style="fill:rgb(158,161,168);fill-rule:nonzero;"/>
            <path id="path4728" d="M39.887,371.706L37.791,371.706L37.791,368.418L35.865,363.943L38.052,363.943L38.429,365.094C38.503,365.319 38.568,365.535 38.625,365.743C38.686,365.951 38.739,366.15 38.786,366.341C38.863,366.056 38.93,365.811 38.987,365.607C39.044,365.399 39.095,365.232 39.138,365.104L39.52,363.943L41.692,363.943L39.887,368.418L39.887,371.706Z" style="fill:rgb(158,161,168);fill-rule:nonzero;"/>
            <path id="path4730" d="M41.894,371.515L41.894,369.076C42.306,369.639 42.752,369.921 43.231,369.921C43.412,369.921 43.56,369.874 43.673,369.78C43.787,369.683 43.844,369.562 43.844,369.418C43.844,369.21 43.72,369.008 43.472,368.81L43.13,368.543C42.902,368.372 42.708,368.203 42.547,368.035C42.386,367.865 42.256,367.69 42.155,367.513C42.054,367.332 41.981,367.146 41.934,366.954C41.887,366.763 41.863,366.562 41.863,366.351C41.863,365.989 41.947,365.61 42.115,365.215C42.199,365.03 42.296,364.863 42.406,364.712C42.517,364.558 42.644,364.422 42.789,364.305C43.184,363.969 43.662,363.802 44.222,363.802C44.721,363.802 45.224,363.934 45.73,364.199L45.73,366.572C45.559,366.308 45.365,366.1 45.147,365.949C44.929,365.795 44.714,365.718 44.503,365.718C44.342,365.718 44.21,365.765 44.106,365.858C43.999,365.949 43.945,366.058 43.945,366.185C43.945,366.393 44.087,366.599 44.372,366.804L44.704,367.05C45.147,367.368 45.463,367.695 45.655,368.03C45.849,368.366 45.946,368.758 45.946,369.207C45.946,369.971 45.713,370.601 45.247,371.098C44.781,371.594 44.191,371.842 43.477,371.842C42.985,371.842 42.457,371.733 41.894,371.515L41.894,371.515Z" style="fill:rgb(158,161,168);fill-rule:nonzero;"/>
            <path id="path4732" d="M49.576,371.706L47.48,371.706L47.48,365.803L46.323,365.803L46.323,363.943L50.778,363.943L50.778,365.803L49.576,365.803L49.576,371.706Z" style="fill:rgb(158,161,168);fill-rule:nonzero;"/>
            <path id="path4734" d="M56.525,371.706L54.428,371.706L54.428,368.584L53.428,368.584L53.428,371.706L51.331,371.706L51.331,363.943L53.428,363.943L53.428,366.688L54.428,366.688L54.428,363.943L56.525,363.943L56.525,371.706Z" style="fill:rgb(158,161,168);fill-rule:nonzero;"/>
            <rect id="path4736" x="57.606" y="363.943" width="2.097" height="7.763" style="fill:rgb(158,161,168);fill-rule:nonzero;"/>
        </g>
        <g id="text4987">
        </g>
        <g id="text1042">
        </g>
        <g id="text2090">
        </g>
        <g id="text890" transform="matrix(0.706532,0,0,0.727732,85.3165,139.474)">
            <path id="path915" d="M220.969,286.155C220.969,288.286 220.732,289.799 220.258,290.694C219.784,291.59 218.99,292.038 217.875,292.038C216.703,292.038 215.878,291.556 215.398,290.593C214.924,289.65 214.687,287.976 214.687,285.569C214.687,283.424 214.922,281.905 215.391,281.015C215.865,280.119 216.667,279.671 217.797,279.671C218.807,279.671 219.557,280.017 220.047,280.71C220.37,281.174 220.604,281.832 220.75,282.687C220.896,283.478 220.969,284.634 220.969,286.155L220.969,286.155ZM219.266,286.327C219.266,284.239 219.172,282.853 218.984,282.171C218.797,281.483 218.414,281.14 217.836,281.14C217.258,281.14 216.872,281.455 216.68,282.085C216.492,282.72 216.398,283.996 216.398,285.913C216.398,287.679 216.497,288.903 216.695,289.585C216.898,290.231 217.279,290.554 217.836,290.554C218.383,290.554 218.758,290.252 218.961,289.647C219.164,289.049 219.266,287.942 219.266,286.327L219.266,286.327Z" style="fill:rgb(158,161,168);fill-rule:nonzero;"/>
            <path id="path917" d="M222.586,279.827L224.102,279.827L225.719,284.64C226.187,285.999 226.602,287.45 226.961,288.991C226.831,288.059 226.734,287.215 226.672,286.46C226.609,285.705 226.578,284.994 226.578,284.327L226.578,279.827L228.211,279.827L228.211,291.89L226.687,291.89L224.867,286.46C224.7,285.955 224.542,285.437 224.391,284.905C224.245,284.374 224.109,283.817 223.984,283.233C223.974,283.161 223.956,283.072 223.93,282.968C223.909,282.864 223.883,282.744 223.852,282.608C223.867,282.744 223.88,282.861 223.891,282.96C223.901,283.054 223.909,283.135 223.914,283.202L224,284.429L224.086,285.921C224.091,286.004 224.094,286.106 224.094,286.226C224.099,286.345 224.102,286.481 224.102,286.632L224.188,291.89L222.586,291.89L222.586,279.827Z" style="fill:rgb(158,161,168);fill-rule:nonzero;"/>
            <rect id="path919" x="232.469" y="287.14" width="2.844" height="1.219" style="fill:rgb(158,161,168);fill-rule:nonzero;"/>
            <path id="path921" d="M245.594,286.155C245.594,288.286 245.357,289.799 244.883,290.694C244.409,291.59 243.615,292.038 242.5,292.038C241.328,292.038 240.503,291.556 240.023,290.593C239.549,289.65 239.312,287.976 239.312,285.569C239.312,283.424 239.547,281.905 240.016,281.015C240.49,280.119 241.292,279.671 242.422,279.671C243.432,279.671 244.182,280.017 244.672,280.71C244.995,281.174 245.229,281.832 245.375,282.687C245.521,283.478 245.594,284.634 245.594,286.155L245.594,286.155ZM243.891,286.327C243.891,284.239 243.797,282.853 243.609,282.171C243.422,281.483 243.039,281.14 242.461,281.14C241.883,281.14 241.497,281.455 241.305,282.085C241.117,282.72 241.023,283.996 241.023,285.913C241.023,287.679 241.122,288.903 241.32,289.585C241.523,290.231 241.904,290.554 242.461,290.554C243.008,290.554 243.383,290.252 243.586,289.647C243.789,289.049 243.891,287.942 243.891,286.327L243.891,286.327Z" style="fill:rgb(158,161,168);fill-rule:nonzero;"/>
            <path id="path923" d="M247.211,279.827L251.555,279.827L251.555,281.202L248.836,281.202L248.836,285.015L251.289,285.015L251.289,286.39L248.836,286.39L248.836,291.89L247.211,291.89L247.211,279.827Z" style="fill:rgb(158,161,168);fill-rule:nonzero;"/>
            <path id="path925" d="M252.805,279.827L257.148,279.827L257.148,281.202L254.43,281.202L254.43,285.015L256.883,285.015L256.883,286.39L254.43,286.39L254.43,291.89L252.805,291.89L252.805,279.827Z" style="fill:rgb(158,161,168);fill-rule:nonzero;"/>
        </g>
        <g id="text894" transform="matrix(0.678505,0,0,0.727273,-83.0716,108.181)">
            <path id="path904" d="M226.156,323.236L226.156,324.697C225.74,324.494 225.391,324.392 225.109,324.392C224.724,324.392 224.393,324.488 224.117,324.681C223.841,324.869 223.612,325.16 223.43,325.556C223.253,325.952 223.12,326.454 223.031,327.064C222.948,327.668 222.906,328.384 222.906,329.212C222.906,332.191 223.669,333.681 225.195,333.681C225.461,333.681 225.781,333.598 226.156,333.431L226.156,334.923C225.766,335.142 225.328,335.251 224.844,335.251C222.401,335.251 221.18,333.257 221.18,329.267C221.18,327.111 221.477,325.507 222.07,324.454C222.669,323.402 223.583,322.876 224.812,322.876C225.266,322.876 225.714,322.996 226.156,323.236L226.156,323.236Z" style="fill:rgb(158,161,168);fill-rule:nonzero;"/>
            <path id="path906" d="M227.516,323.04L229.141,323.04L229.141,333.728L231.797,333.728L231.797,335.103L227.516,335.103L227.516,323.04Z" style="fill:rgb(158,161,168);fill-rule:nonzero;"/>
            <path id="path908" d="M232.828,323.04L237.148,323.04L237.148,324.415L234.453,324.415L234.453,328.236L236.844,328.236L236.844,329.611L234.453,329.611L234.453,333.728L237.148,333.728L237.148,335.103L232.828,335.103L232.828,323.04Z" style="fill:rgb(158,161,168);fill-rule:nonzero;"/>
            <path id="path910" d="M240.359,323.04L241.625,323.04L244.211,335.103L242.602,335.103L242.148,332.751L239.758,332.751L239.297,335.103L237.734,335.103L240.359,323.04ZM241.914,331.494L241.555,329.572C241.315,328.264 241.12,326.869 240.969,325.384C240.896,326.108 240.802,326.843 240.688,327.587C240.573,328.327 240.437,329.113 240.281,329.947L239.984,331.494L241.914,331.494Z" style="fill:rgb(158,161,168);fill-rule:nonzero;"/>
            <path id="path912" d="M245.172,323.04L247.312,323.04C248.198,323.04 248.857,323.251 249.289,323.673C249.836,324.22 250.109,325.056 250.109,326.181C250.109,327.046 249.964,327.741 249.672,328.267C249.385,328.788 248.974,329.111 248.437,329.236L250.656,335.103L249.008,335.103L246.797,329.197L246.797,335.103L245.172,335.103L245.172,323.04ZM246.797,328.384C247.427,328.384 247.872,328.238 248.133,327.947C248.393,327.655 248.523,327.163 248.523,326.47C248.523,326.095 248.495,325.775 248.437,325.509C248.385,325.244 248.299,325.027 248.18,324.861C248.065,324.694 247.914,324.572 247.727,324.494C247.544,324.415 247.325,324.376 247.07,324.376L246.797,324.376L246.797,328.384Z" style="fill:rgb(158,161,168);fill-rule:nonzero;"/>
        </g>
        <g id="text896" transform="matrix(0.588436,0,0,0.758669,73.8401,116.969)">
            <rect id="path902" x="81.844" y="297.723" width="1.606" height="11.925" style="fill:rgb(158,161,168);fill-rule:nonzero;"/>
            <path id="path905" d="M85.304,297.723L86.802,297.723L88.401,302.48C88.864,303.824 89.274,305.258 89.629,306.782C89.5,305.86 89.405,305.026 89.343,304.28C89.281,303.533 89.25,302.83 89.25,302.171L89.25,297.723L90.865,297.723L90.865,309.647L89.358,309.647L87.559,304.28C87.394,303.78 87.237,303.268 87.088,302.743C86.944,302.218 86.81,301.667 86.686,301.09C86.676,301.018 86.658,300.93 86.632,300.827C86.612,300.724 86.586,300.606 86.555,300.472C86.57,300.606 86.583,300.722 86.594,300.82C86.604,300.912 86.612,300.992 86.617,301.059L86.702,302.272L86.787,303.747C86.792,303.829 86.794,303.93 86.794,304.048C86.799,304.166 86.802,304.3 86.802,304.45L86.887,309.647L85.303,309.647L85.304,297.723Z" style="fill:rgb(158,161,168);fill-rule:nonzero;"/>
            <path id="path907" d="M99.97,297.97L99.97,299.538C99.481,299.188 99.041,299.012 98.65,299.012C98.227,299.012 97.882,299.162 97.615,299.46C97.347,299.744 97.213,300.122 97.213,300.596C97.213,301.013 97.308,301.371 97.499,301.669C97.597,301.829 97.756,302.035 97.978,302.287C98.204,302.539 98.495,302.843 98.85,303.198C99.504,303.863 99.95,304.437 100.186,304.921C100.423,305.389 100.542,305.963 100.542,306.643C100.542,307.565 100.282,308.324 99.762,308.921C99.242,309.503 98.575,309.794 97.761,309.794C97.077,309.794 96.492,309.606 96.008,309.23L96.008,307.639C96.58,308.056 97.1,308.265 97.568,308.265C98.006,308.265 98.348,308.121 98.595,307.832C98.843,307.539 98.966,307.142 98.966,306.643C98.966,306.211 98.871,305.822 98.68,305.477C98.583,305.312 98.446,305.124 98.271,304.913C98.096,304.697 97.877,304.457 97.615,304.195C97.208,303.793 96.871,303.438 96.603,303.129C96.335,302.82 96.137,302.55 96.008,302.318C95.761,301.865 95.637,301.293 95.637,300.603C95.637,299.672 95.879,298.933 96.363,298.387C96.853,297.836 97.509,297.56 98.333,297.56C98.904,297.56 99.45,297.697 99.97,297.97L99.97,297.97Z" style="fill:rgb(158,161,168);fill-rule:nonzero;"/>
            <path id="path909" d="M106.574,297.916L106.574,299.36C106.162,299.159 105.817,299.059 105.539,299.059C105.158,299.059 104.831,299.154 104.558,299.345C104.285,299.53 104.058,299.818 103.878,300.21C103.703,300.601 103.572,301.098 103.484,301.7C103.402,302.297 103.361,303.005 103.361,303.824C103.361,306.769 104.115,308.242 105.624,308.242C105.886,308.242 106.203,308.159 106.574,307.995L106.574,309.47C106.187,309.686 105.755,309.794 105.276,309.794C102.861,309.794 101.654,307.822 101.654,303.878C101.654,301.746 101.947,300.161 102.534,299.121C103.126,298.081 104.03,297.56 105.245,297.56C105.693,297.56 106.136,297.679 106.574,297.916L106.574,297.916Z" style="fill:rgb(158,161,168);fill-rule:nonzero;"/>
            <path id="path911" d="M110.049,297.723L111.3,297.723L113.857,309.647L112.266,309.647L111.818,307.323L109.454,307.323L108.999,309.647L107.454,309.647L110.049,297.723ZM111.586,306.079L111.231,304.179C110.994,302.887 110.801,301.507 110.651,300.04C110.579,300.755 110.487,301.481 110.373,302.218C110.26,302.949 110.126,303.726 109.972,304.55L109.678,306.079L111.586,306.079Z" style="fill:rgb(158,161,168);fill-rule:nonzero;"/>
            <path id="path913" d="M114.807,297.723L116.413,297.723L116.413,308.288L119.039,308.288L119.039,309.647L114.807,309.647L114.807,297.723Z" style="fill:rgb(158,161,168);fill-rule:nonzero;"/>
            <path id="path916" d="M120.058,297.723L124.329,297.723L124.329,299.082L121.665,299.082L121.665,302.859L124.028,302.859L124.028,304.218L121.665,304.218L121.665,308.288L124.329,308.288L124.329,309.647L120.058,309.647L120.058,297.723Z" style="fill:rgb(158,161,168);fill-rule:nonzero;"/>
        </g>
        <g id="text900" transform="matrix(0.638877,0,0,0.838526,71.3881,116.969)">
            <path id="path920" d="M170.927,275.029C170.927,276.935 170.715,278.288 170.291,279.089C169.867,279.89 169.157,280.291 168.16,280.291C167.112,280.291 166.373,279.86 165.945,278.998C165.521,278.155 165.309,276.657 165.309,274.505C165.309,272.586 165.518,271.228 165.938,270.431C166.362,269.63 167.079,269.23 168.09,269.23C168.994,269.23 169.664,269.539 170.102,270.159C170.391,270.574 170.601,271.163 170.731,271.927C170.862,272.635 170.927,273.669 170.927,275.029L170.927,275.029ZM169.404,275.183C169.404,273.315 169.32,272.076 169.152,271.466C168.984,270.851 168.642,270.543 168.125,270.543C167.608,270.543 167.263,270.825 167.091,271.389C166.923,271.957 166.839,273.098 166.839,274.813C166.839,276.392 166.928,277.487 167.105,278.097C167.286,278.675 167.626,278.963 168.125,278.963C168.614,278.963 168.949,278.693 169.131,278.153C169.313,277.617 169.403,276.627 169.403,275.183L169.404,275.183Z" style="fill:rgb(158,161,168);fill-rule:nonzero;"/>
            <path id="path922" d="M172.373,269.369L173.799,269.369L173.799,276.993C173.799,277.771 173.869,278.288 174.008,278.544C174.153,278.8 174.437,278.928 174.861,278.928C175.285,278.928 175.564,278.817 175.699,278.593C175.839,278.365 175.909,277.901 175.909,277.203L175.909,269.369L177.335,269.369L177.335,277.203C177.335,278.376 177.155,279.171 176.797,279.585C176.368,280.056 175.713,280.291 174.833,280.291C173.864,280.291 173.182,279.988 172.786,279.383C172.511,278.968 172.373,278.172 172.373,276.993L172.373,269.369Z" style="fill:rgb(158,161,168);fill-rule:nonzero;"/>
            <path id="path924" d="M178.138,269.369L182.869,269.369L182.869,270.641L181.241,270.641L181.241,280.158L179.815,280.158L179.815,270.641L178.138,270.641L178.138,269.369Z" style="fill:rgb(158,161,168);fill-rule:nonzero;"/>
            <path id="path926" d="M190.227,269.593L190.227,271.011C189.784,270.695 189.386,270.536 189.032,270.536C188.65,270.536 188.338,270.671 188.096,270.942C187.853,271.198 187.732,271.54 187.732,271.969C187.732,272.346 187.818,272.67 187.991,272.94C188.079,273.084 188.224,273.271 188.424,273.499C188.629,273.727 188.892,274.002 189.214,274.324C189.805,274.925 190.208,275.444 190.423,275.882C190.637,276.306 190.744,276.825 190.744,277.44C190.744,278.274 190.509,278.961 190.038,279.501C189.568,280.028 188.965,280.291 188.228,280.291C187.609,280.291 187.08,280.121 186.642,279.781L186.642,278.342C187.159,278.719 187.63,278.908 188.054,278.908C188.45,278.908 188.76,278.777 188.983,278.516C189.207,278.251 189.319,277.892 189.319,277.44C189.319,277.049 189.232,276.697 189.06,276.385C188.971,276.236 188.848,276.066 188.69,275.875C188.531,275.679 188.333,275.463 188.096,275.225C187.728,274.862 187.423,274.54 187.18,274.261C186.938,273.981 186.759,273.737 186.642,273.527C186.419,273.117 186.307,272.6 186.307,271.976C186.307,271.133 186.526,270.464 186.964,269.97C187.406,269.472 188,269.223 188.746,269.223C189.263,269.223 189.756,269.346 190.227,269.593L190.227,269.593Z" style="fill:rgb(158,161,168);fill-rule:nonzero;"/>
            <path id="path928" d="M196.201,269.544L196.201,270.851C195.829,270.669 195.517,270.578 195.265,270.578C194.92,270.578 194.625,270.664 194.378,270.837C194.131,271.004 193.926,271.265 193.763,271.619C193.604,271.973 193.486,272.423 193.406,272.968C193.332,273.508 193.295,274.149 193.295,274.89C193.295,277.554 193.977,278.887 195.342,278.887C195.58,278.887 195.866,278.812 196.201,278.663L196.201,279.998C195.852,280.193 195.461,280.291 195.027,280.291C192.843,280.291 191.75,278.507 191.75,274.939C191.75,273.01 192.016,271.575 192.547,270.634C193.083,269.693 193.9,269.223 195,269.223C195.405,269.223 195.805,269.33 196.201,269.544L196.201,269.544Z" style="fill:rgb(158,161,168);fill-rule:nonzero;"/>
            <path id="path930" d="M199.346,269.369L200.478,269.369L202.791,280.158L201.351,280.158L200.946,278.055L198.808,278.055L198.396,280.158L196.998,280.158L199.346,269.369ZM200.736,276.93L200.415,275.211C200.201,274.042 200.026,272.793 199.891,271.466C199.826,272.113 199.742,272.77 199.639,273.436C199.537,274.098 199.416,274.801 199.276,275.546L199.01,276.93L200.736,276.93Z" style="fill:rgb(158,161,168);fill-rule:nonzero;"/>
            <path id="path932" d="M203.65,269.369L205.104,269.369L205.104,278.928L207.48,278.928L207.48,280.158L203.65,280.158L203.65,269.369Z" style="fill:rgb(158,161,168);fill-rule:nonzero;"/>
            <path id="path934" d="M208.402,269.369L212.266,269.369L212.266,270.599L209.855,270.599L209.855,274.016L211.994,274.016L211.994,275.246L209.855,275.246L209.855,278.928L212.266,278.928L212.266,280.158L208.402,280.158L208.402,269.369Z" style="fill:rgb(158,161,168);fill-rule:nonzero;"/>
        </g>
        <g id="text939" transform="matrix(0.687802,0,0,0.75,-70.3795,96.0339)">
            <rect id="path941" x="119.772" y="329.077" width="1.625" height="12.063" style="fill:rgb(158,161,168);fill-rule:nonzero;"/>
            <path id="path943" d="M123.272,329.077L124.788,329.077L126.405,333.89C126.874,335.249 127.288,336.7 127.647,338.241C127.517,337.309 127.421,336.465 127.358,335.71C127.296,334.955 127.264,334.244 127.264,333.577L127.264,329.077L128.897,329.077L128.897,341.14L127.374,341.14L125.553,335.71C125.387,335.205 125.228,334.687 125.077,334.155C124.931,333.624 124.796,333.067 124.671,332.483C124.66,332.411 124.642,332.322 124.616,332.218C124.595,332.114 124.569,331.994 124.538,331.858C124.553,331.994 124.566,332.111 124.577,332.21C124.587,332.304 124.595,332.385 124.6,332.452L124.686,333.679L124.772,335.171C124.777,335.254 124.78,335.356 124.78,335.476C124.785,335.595 124.788,335.731 124.788,335.882L124.874,341.14L123.272,341.14L123.272,329.077Z" style="fill:rgb(158,161,168);fill-rule:nonzero;"/>
            <path id="path945" d="M130.772,329.077L132.913,329.077C133.944,329.077 134.694,329.338 135.163,329.858C135.632,330.384 135.866,331.218 135.866,332.358C135.866,333.963 135.395,334.999 134.452,335.468C133.978,335.681 133.293,335.788 132.397,335.788L132.397,341.14L130.772,341.14L130.772,329.077ZM132.397,334.398C133.069,334.398 133.533,334.262 133.788,333.991C134.048,333.715 134.178,333.226 134.178,332.523C134.178,331.804 134.053,331.278 133.803,330.944C133.553,330.611 133.16,330.444 132.624,330.444L132.397,330.444L132.397,334.398Z" style="fill:rgb(158,161,168);fill-rule:nonzero;"/>
            <path id="path947" d="M137.116,329.077L138.71,329.077L138.71,337.601C138.71,338.47 138.788,339.049 138.944,339.335C139.105,339.621 139.423,339.765 139.897,339.765C140.371,339.765 140.684,339.64 140.835,339.39C140.991,339.134 141.069,338.616 141.069,337.835L141.069,329.077L142.663,329.077L142.663,337.835C142.663,339.148 142.462,340.036 142.061,340.499C141.582,341.025 140.85,341.288 139.866,341.288C138.783,341.288 138.02,340.95 137.577,340.273C137.27,339.809 137.116,338.918 137.116,337.601L137.116,329.077Z" style="fill:rgb(158,161,168);fill-rule:nonzero;"/>
            <path id="path949" d="M143.561,329.077L148.85,329.077L148.85,330.499L147.03,330.499L147.03,341.14L145.436,341.14L145.436,330.499L143.561,330.499L143.561,329.077Z" style="fill:rgb(158,161,168);fill-rule:nonzero;"/>
        </g>
        <g id="text1600">
        </g>
        <g id="text977" transform="matrix(1,0,0,1,0,6)">
            <path id="path979" d="M35.02,3.681L38.82,3.681L38.82,13.634C38.82,14.467 38.69,15.141 38.428,15.658C38.173,16.198 37.748,16.687 37.152,17.125C36.35,17.708 35.375,18 34.227,18C32.926,18 31.836,17.678 30.954,17.034C29.836,16.214 29.277,14.901 29.277,13.096L29.277,3.681L33.078,3.681L33.078,12.759C33.078,13.373 33.151,13.807 33.297,14.062C33.449,14.318 33.701,14.445 34.053,14.445C34.418,14.445 34.67,14.327 34.81,14.09C34.95,13.841 35.02,13.4 35.02,12.768L35.02,3.681Z" style="fill:rgb(158,161,168);fill-rule:nonzero;"/>
            <path id="path981" d="M40.798,17.754L40.798,3.681L44.426,3.681L46.331,8.621C46.434,8.913 46.549,9.247 46.677,9.624C46.811,10 46.957,10.435 47.115,10.927L47.507,12.167C47.367,10.945 47.26,9.9 47.187,9.031C47.115,8.162 47.078,7.433 47.078,6.844L47.078,3.681L50.706,3.681L50.706,17.754L47.078,17.754L45.164,12.577C44.964,12.024 44.781,11.507 44.617,11.027C44.459,10.541 44.319,10.079 44.198,9.642C44.277,10.632 44.335,11.495 44.371,12.23C44.408,12.966 44.426,13.61 44.426,14.163L44.426,17.754L40.798,17.754Z" style="fill:rgb(158,161,168);fill-rule:nonzero;"/>
            <path id="path983" d="M52.684,17.754L52.684,3.681L56.311,3.681L58.216,8.621C58.319,8.913 58.435,9.247 58.563,9.624C58.696,10 58.842,10.435 59,10.927L59.392,12.167C59.252,10.945 59.146,9.9 59.073,9.031C59,8.162 58.964,7.433 58.964,6.844L58.964,3.681L62.591,3.681L62.591,17.754L58.964,17.754L57.049,12.577C56.849,12.024 56.667,11.507 56.503,11.027C56.345,10.541 56.205,10.079 56.083,9.642C56.162,10.632 56.22,11.495 56.257,12.23C56.293,12.966 56.311,13.61 56.311,14.163L56.311,17.754L52.684,17.754Z" style="fill:rgb(158,161,168);fill-rule:nonzero;"/>
            <path id="path985" d="M70.876,17.754L67.076,17.754L67.076,11.793L63.585,3.681L67.549,3.681L68.233,5.768C68.367,6.175 68.485,6.567 68.589,6.944C68.698,7.321 68.795,7.682 68.88,8.029C69.02,7.512 69.141,7.069 69.245,6.698C69.348,6.321 69.439,6.017 69.518,5.786L70.211,3.681L74.148,3.681L70.876,11.793L70.876,17.754Z" style="fill:rgb(158,161,168);fill-rule:nonzero;"/>
            <path id="path987" d="M74.513,17.408L74.513,12.987C75.26,14.008 76.069,14.518 76.938,14.518C77.266,14.518 77.533,14.433 77.74,14.263C77.946,14.087 78.049,13.868 78.049,13.607C78.049,13.23 77.825,12.862 77.375,12.504L76.755,12.021C76.342,11.711 75.99,11.404 75.698,11.1C75.406,10.79 75.169,10.474 74.987,10.152C74.805,9.824 74.671,9.487 74.586,9.141C74.501,8.794 74.458,8.43 74.458,8.047C74.458,7.391 74.61,6.704 74.914,5.987C75.066,5.653 75.242,5.349 75.443,5.076C75.643,4.796 75.874,4.55 76.135,4.337C76.852,3.73 77.718,3.426 78.733,3.426C79.638,3.426 80.55,3.666 81.467,4.146L81.467,8.448C81.158,7.968 80.805,7.591 80.41,7.318C80.015,7.038 79.626,6.898 79.243,6.898C78.952,6.898 78.712,6.984 78.523,7.154C78.329,7.318 78.232,7.515 78.232,7.746C78.232,8.123 78.49,8.497 79.007,8.867L79.608,9.314C80.41,9.891 80.984,10.484 81.331,11.091C81.683,11.699 81.859,12.41 81.859,13.224C81.859,14.609 81.437,15.752 80.592,16.651C79.748,17.55 78.678,18 77.384,18C76.491,18 75.534,17.803 74.513,17.408Z" style="fill:rgb(158,161,168);fill-rule:nonzero;"/>
            <path id="path989" d="M88.44,17.754L84.639,17.754L84.639,7.053L82.543,7.053L82.543,3.681L90.618,3.681L90.618,7.053L88.44,7.053L88.44,17.754Z" style="fill:rgb(158,161,168);fill-rule:nonzero;"/>
            <path id="path991" d="M101.036,17.754L97.236,17.754L97.236,12.094L95.422,12.094L95.422,17.754L91.621,17.754L91.621,3.681L95.422,3.681L95.422,8.658L97.236,8.658L97.236,3.681L101.036,3.681L101.036,17.754Z" style="fill:rgb(158,161,168);fill-rule:nonzero;"/>
            <rect id="path993" x="102.996" y="3.681" width="3.801" height="14.073" style="fill:rgb(158,161,168);fill-rule:nonzero;"/>
            <path id="path995" d="M112.557,17.754L108.757,17.754L108.757,3.681L112.439,3.681C114.274,3.681 115.635,4.055 116.522,4.802C117.567,5.683 118.09,6.908 118.09,8.475C118.09,10.183 117.534,11.456 116.422,12.294C115.662,12.859 114.572,13.142 113.15,13.142L112.557,13.142L112.557,17.754ZM112.557,9.979L112.73,9.988C113.192,9.988 113.56,9.849 113.833,9.569C114.107,9.283 114.243,8.895 114.243,8.402C114.243,7.916 114.11,7.521 113.842,7.217C113.575,6.908 113.235,6.753 112.822,6.753L112.557,6.753L112.557,9.979Z" style="fill:rgb(158,161,168);fill-rule:nonzero;"/>
            <path id="path997" d="M126.092,17.754L119.439,17.754L119.439,3.681L123.24,3.681L123.24,14.372L126.092,14.372L126.092,17.754Z" style="fill:rgb(158,161,168);fill-rule:nonzero;"/>
            <path id="path999" d="M127.241,17.754L127.241,3.681L134.305,3.681L134.305,6.99L131.042,6.99L131.042,9.04L133.967,9.04L133.967,12.221L131.042,12.221L131.042,14.372L134.305,14.372L134.305,17.754L127.241,17.754Z" style="fill:rgb(158,161,168);fill-rule:nonzero;"/>
            <path id="path1001" d="M146.053,17.754L142.125,17.754L141.842,15.967L139.281,15.967L138.971,17.754L135.043,17.754L138.424,3.681L143.073,3.681L146.053,17.754ZM141.396,12.951L141.15,11.31C141.144,11.304 141.132,11.222 141.113,11.064C141.101,10.93 141.038,10.401 140.922,9.478C140.91,9.375 140.895,9.235 140.876,9.059C140.858,8.876 140.834,8.648 140.804,8.375L140.685,7.044C140.673,7.172 140.655,7.315 140.63,7.473C140.612,7.631 140.591,7.804 140.567,7.992C140.524,8.369 140.494,8.63 140.475,8.776C140.457,8.922 140.445,9.01 140.439,9.04L140.175,10.745L139.792,12.951L141.396,12.951Z" style="fill:rgb(158,161,168);fill-rule:nonzero;"/>
            <path id="path1003" d="M146.846,17.408L146.846,12.987C147.594,14.008 148.402,14.518 149.271,14.518C149.599,14.518 149.866,14.433 150.073,14.263C150.28,14.087 150.383,13.868 150.383,13.607C150.383,13.23 150.158,12.862 149.708,12.504L149.089,12.021C148.675,11.711 148.323,11.404 148.031,11.1C147.74,10.79 147.503,10.474 147.32,10.152C147.138,9.824 147.004,9.487 146.919,9.141C146.834,8.794 146.792,8.43 146.792,8.047C146.792,7.391 146.944,6.704 147.247,5.987C147.399,5.653 147.576,5.349 147.776,5.076C147.977,4.796 148.207,4.55 148.469,4.337C149.186,3.73 150.052,3.426 151.066,3.426C151.972,3.426 152.883,3.666 153.801,4.146L153.801,8.448C153.491,7.968 153.138,7.591 152.743,7.318C152.349,7.038 151.96,6.898 151.577,6.898C151.285,6.898 151.045,6.984 150.857,7.154C150.662,7.318 150.565,7.515 150.565,7.746C150.565,8.123 150.823,8.497 151.34,8.867L151.941,9.314C152.743,9.891 153.318,10.484 153.664,11.091C154.016,11.699 154.193,12.41 154.193,13.224C154.193,14.609 153.77,15.752 152.926,16.651C152.081,17.55 151.012,18 149.717,18C148.824,18 147.867,17.803 146.846,17.408Z" style="fill:rgb(158,161,168);fill-rule:nonzero;"/>
            <path id="path1005" d="M161.421,3.681L165.221,3.681L165.221,13.634C165.221,14.467 165.091,15.141 164.829,15.658C164.574,16.198 164.149,16.687 163.553,17.125C162.751,17.708 161.776,18 160.628,18C159.327,18 158.237,17.678 157.355,17.034C156.237,16.214 155.678,14.901 155.678,13.096L155.678,3.681L159.479,3.681L159.479,12.759C159.479,13.373 159.552,13.807 159.698,14.062C159.85,14.318 160.102,14.445 160.454,14.445C160.819,14.445 161.071,14.327 161.211,14.09C161.351,13.841 161.421,13.4 161.421,12.768L161.421,3.681Z" style="fill:rgb(158,161,168);fill-rule:nonzero;"/>
            <path id="path1007" d="M177.207,17.754L173.096,17.754L171.219,12.741C171.201,12.656 171.167,12.543 171.118,12.404C171.076,12.264 171.021,12.097 170.954,11.902L170.982,12.832L170.982,17.754L167.199,17.754L167.199,3.681L171.091,3.681C172.805,3.681 174.087,4.018 174.937,4.693C176.019,5.556 176.56,6.783 176.56,8.375C176.56,10.076 175.834,11.252 174.381,11.902L177.207,17.754ZM171,10.198L171.255,10.198C171.693,10.198 172.057,10.031 172.349,9.697C172.641,9.362 172.786,8.937 172.786,8.421C172.786,7.369 172.237,6.844 171.137,6.844L171,6.844L171,10.198Z" style="fill:rgb(158,161,168);fill-rule:nonzero;"/>
            <path id="path1009" d="M178.465,17.754L178.465,3.681L185.529,3.681L185.529,6.99L182.266,6.99L182.266,9.04L185.191,9.04L185.191,12.221L182.266,12.221L182.266,14.372L185.529,14.372L185.529,17.754L178.465,17.754Z" style="fill:rgb(158,161,168);fill-rule:nonzero;"/>
            <path id="path1011" d="M186.841,17.408L186.841,12.987C187.589,14.008 188.397,14.518 189.266,14.518C189.594,14.518 189.861,14.433 190.068,14.263C190.274,14.087 190.378,13.868 190.378,13.607C190.378,13.23 190.153,12.862 189.703,12.504L189.083,12.021C188.67,11.711 188.318,11.404 188.026,11.1C187.734,10.79 187.497,10.474 187.315,10.152C187.133,9.824 186.999,9.487 186.914,9.141C186.829,8.794 186.786,8.43 186.786,8.047C186.786,7.391 186.938,6.704 187.242,5.987C187.394,5.653 187.57,5.349 187.771,5.076C187.971,4.796 188.202,4.55 188.464,4.337C189.181,3.73 190.046,3.426 191.061,3.426C191.967,3.426 192.878,3.666 193.796,4.146L193.796,8.448C193.486,7.968 193.133,7.591 192.738,7.318C192.343,7.038 191.954,6.898 191.572,6.898C191.28,6.898 191.04,6.984 190.852,7.154C190.657,7.318 190.56,7.515 190.56,7.746C190.56,8.123 190.818,8.497 191.335,8.867L191.936,9.314C192.738,9.891 193.313,10.484 193.659,11.091C194.011,11.699 194.188,12.41 194.188,13.224C194.188,14.609 193.765,15.752 192.921,16.651C192.076,17.55 191.007,18 189.712,18C188.819,18 187.862,17.803 186.841,17.408Z" style="fill:rgb(158,161,168);fill-rule:nonzero;"/>
            <path id="path1013" d="M200.568,9.615L205.872,9.615L205.872,10.198C205.872,12.908 205.468,14.859 204.66,16.049C203.779,17.35 202.476,18 200.75,18C199.055,18 197.724,17.362 196.758,16.086C195.798,14.798 195.318,13.03 195.318,10.781C195.318,8.503 195.801,6.707 196.767,5.395C197.733,4.082 199.055,3.426 200.732,3.426C202.956,3.426 204.569,4.586 205.572,6.908L201.889,8.257C201.835,7.813 201.707,7.464 201.507,7.208C201.312,6.947 201.066,6.816 200.768,6.816C199.723,6.816 199.201,8.253 199.201,11.128C199.201,12.349 199.316,13.236 199.547,13.789C199.778,14.342 200.145,14.618 200.65,14.618C200.85,14.618 201.033,14.57 201.197,14.473C201.361,14.375 201.497,14.239 201.607,14.062C201.722,13.886 201.81,13.674 201.871,13.424C201.938,13.169 201.971,12.887 201.971,12.577L200.568,12.577L200.568,9.615Z" style="fill:rgb(158,161,168);fill-rule:nonzero;"/>
            <path id="path1015" d="M217.493,17.754L213.383,17.754L211.505,12.741C211.487,12.656 211.454,12.543 211.405,12.404C211.362,12.264 211.308,12.097 211.241,11.902L211.268,12.832L211.268,17.754L207.486,17.754L207.486,3.681L211.378,3.681C213.091,3.681 214.373,4.018 215.224,4.693C216.306,5.556 216.846,6.783 216.846,8.375C216.846,10.076 216.12,11.252 214.668,11.902L217.493,17.754ZM211.286,10.198L211.542,10.198C211.979,10.198 212.344,10.031 212.635,9.697C212.927,9.362 213.073,8.937 213.073,8.421C213.073,7.369 212.523,6.844 211.423,6.844L211.286,6.844L211.286,10.198Z" style="fill:rgb(158,161,168);fill-rule:nonzero;"/>
            <path id="path1017" d="M228.887,17.754L224.958,17.754L224.676,15.967L222.115,15.967L221.805,17.754L217.876,17.754L221.258,3.681L225.906,3.681L228.887,17.754ZM224.229,12.951L223.983,11.31C223.977,11.304 223.965,11.222 223.947,11.064C223.935,10.93 223.871,10.401 223.755,9.478C223.743,9.375 223.728,9.235 223.71,9.059C223.692,8.876 223.667,8.648 223.637,8.375L223.518,7.044C223.506,7.172 223.488,7.315 223.464,7.473C223.446,7.631 223.424,7.804 223.4,7.992C223.357,8.369 223.327,8.63 223.309,8.776C223.291,8.922 223.279,9.01 223.273,9.04L223.008,10.745L222.625,12.951L224.229,12.951Z" style="fill:rgb(158,161,168);fill-rule:nonzero;"/>
            <path id="path1019" d="M233.781,17.754L229.98,17.754L229.98,3.681L233.663,3.681C235.498,3.681 236.859,4.055 237.746,4.802C238.791,5.683 239.314,6.908 239.314,8.475C239.314,10.183 238.758,11.456 237.646,12.294C236.886,12.859 235.796,13.142 234.374,13.142L233.781,13.142L233.781,17.754ZM233.781,9.979L233.954,9.988C234.416,9.988 234.784,9.849 235.057,9.569C235.331,9.283 235.467,8.895 235.467,8.402C235.467,7.916 235.334,7.521 235.066,7.217C234.799,6.908 234.459,6.753 234.046,6.753L233.781,6.753L233.781,9.979Z" style="fill:rgb(158,161,168);fill-rule:nonzero;"/>
            <path id="path1021" d="M250.078,17.754L246.277,17.754L246.277,12.094L244.464,12.094L244.464,17.754L240.663,17.754L240.663,3.681L244.464,3.681L244.464,8.658L246.277,8.658L246.277,3.681L250.078,3.681L250.078,17.754Z" style="fill:rgb(158,161,168);fill-rule:nonzero;"/>
            <path id="path1023" d="M252.038,17.754L252.038,3.681L259.102,3.681L259.102,6.99L255.839,6.99L255.839,9.04L258.764,9.04L258.764,12.221L255.839,12.221L255.839,14.372L259.102,14.372L259.102,17.754L252.038,17.754Z" style="fill:rgb(158,161,168);fill-rule:nonzero;"/>
            <path id="path1025" d="M270.723,17.754L266.612,17.754L264.734,12.741C264.716,12.656 264.683,12.543 264.634,12.404C264.592,12.264 264.537,12.097 264.47,11.902L264.497,12.832L264.497,17.754L260.715,17.754L260.715,3.681L264.607,3.681C266.32,3.681 267.602,4.018 268.453,4.693C269.535,5.556 270.075,6.783 270.075,8.375C270.075,10.076 269.349,11.252 267.897,11.902L270.723,17.754ZM264.516,10.198L264.771,10.198C265.208,10.198 265.573,10.031 265.865,9.697C266.156,9.362 266.302,8.937 266.302,8.421C266.302,7.369 265.752,6.844 264.652,6.844L264.516,6.844L264.516,10.198Z" style="fill:rgb(158,161,168);fill-rule:nonzero;"/>
        </g>
    </g>
</svg>
