<?xml version="1.0" encoding="UTF-8" standalone="no"?>
<!DOCTYPE svg PUBLIC "-//W3C//DTD SVG 1.1//EN" "http://www.w3.org/Graphics/SVG/1.1/DTD/svg11.dtd">
<svg width="100%" height="100%" viewBox="0 0 30 380" version="1.1" xmlns="http://www.w3.org/2000/svg" xmlns:xlink="http://www.w3.org/1999/xlink" xml:space="preserve" xmlns:serif="http://www.serif.com/" style="fill-rule:evenodd;clip-rule:evenodd;stroke-linejoin:round;stroke-miterlimit:2;">
    <g id="Layer-2" serif:id="Layer 2">
        <g id="text989">
        </g>
        <rect id="rect4689" x="0" y="0" width="30" height="380" style="fill:rgb(44,45,48);"/>
        <g id="text80" transform="matrix(1.00498,0,0,0.995047,-30,4.99997)">
            <path id="path4726" d="M29.851,371.706L29.851,363.943L31.853,363.943L32.903,366.668C32.96,366.829 33.024,367.013 33.094,367.221C33.168,367.429 33.249,367.668 33.336,367.94L33.552,368.624C33.475,367.95 33.416,367.373 33.376,366.894C33.336,366.415 33.316,366.013 33.316,365.687L33.316,363.943L35.317,363.943L35.317,371.706L33.316,371.706L32.26,368.85C32.149,368.545 32.049,368.26 31.958,367.995C31.871,367.727 31.794,367.472 31.727,367.231C31.77,367.777 31.802,368.253 31.822,368.659C31.843,369.065 31.853,369.42 31.853,369.725L31.853,371.706L29.851,371.706Z" style="fill:rgb(158,161,168);fill-rule:nonzero;"/>
            <path id="path4728" d="M39.887,371.706L37.791,371.706L37.791,368.418L35.865,363.943L38.052,363.943L38.429,365.094C38.503,365.319 38.568,365.535 38.625,365.743C38.686,365.951 38.739,366.15 38.786,366.341C38.863,366.056 38.93,365.811 38.987,365.607C39.044,365.399 39.095,365.232 39.138,365.104L39.52,363.943L41.692,363.943L39.887,368.418L39.887,371.706Z" style="fill:rgb(158,161,168);fill-rule:nonzero;"/>
            <path id="path4730" d="M41.894,371.515L41.894,369.076C42.306,369.639 42.752,369.921 43.231,369.921C43.412,369.921 43.56,369.874 43.673,369.78C43.787,369.683 43.844,369.562 43.844,369.418C43.844,369.21 43.72,369.008 43.472,368.81L43.13,368.543C42.902,368.372 42.708,368.203 42.547,368.035C42.386,367.865 42.256,367.69 42.155,367.513C42.054,367.332 41.981,367.146 41.934,366.954C41.887,366.763 41.863,366.562 41.863,366.351C41.863,365.989 41.947,365.61 42.115,365.215C42.199,365.03 42.296,364.863 42.406,364.712C42.517,364.558 42.644,364.422 42.789,364.305C43.184,363.969 43.662,363.802 44.222,363.802C44.721,363.802 45.224,363.934 45.73,364.199L45.73,366.572C45.559,366.308 45.365,366.1 45.147,365.949C44.929,365.795 44.714,365.718 44.503,365.718C44.342,365.718 44.21,365.765 44.106,365.858C43.999,365.949 43.945,366.058 43.945,366.185C43.945,366.393 44.087,366.599 44.372,366.804L44.704,367.05C45.147,367.368 45.463,367.695 45.655,368.03C45.849,368.366 45.946,368.758 45.946,369.207C45.946,369.971 45.713,370.601 45.247,371.098C44.781,371.594 44.191,371.842 43.477,371.842C42.985,371.842 42.457,371.733 41.894,371.515L41.894,371.515Z" style="fill:rgb(158,161,168);fill-rule:nonzero;"/>
            <path id="path4732" d="M49.576,371.706L47.48,371.706L47.48,365.803L46.323,365.803L46.323,363.943L50.778,363.943L50.778,365.803L49.576,365.803L49.576,371.706Z" style="fill:rgb(158,161,168);fill-rule:nonzero;"/>
            <path id="path4734" d="M56.525,371.706L54.428,371.706L54.428,368.584L53.428,368.584L53.428,371.706L51.331,371.706L51.331,363.943L53.428,363.943L53.428,366.688L54.428,366.688L54.428,363.943L56.525,363.943L56.525,371.706Z" style="fill:rgb(158,161,168);fill-rule:nonzero;"/>
            <rect id="path4736" x="57.606" y="363.943" width="2.097" height="7.763" style="fill:rgb(158,161,168);fill-rule:nonzero;"/>
        </g>
        <g id="text4987">
        </g>
        <g id="text1042">
        </g>
        <g id="g2054">
            <rect id="rect1005" x="2" y="187" width="26" height="101"/>
            <g id="g1301" transform="matrix(1,0,0,1,-150,-82)">
                <rect id="rect1225" x="150" y="358" width="30" height="1" style="fill:rgb(183,196,200);"/>
                <rect id="rect1227" x="150" y="355" width="30" height="1" style="fill:rgb(183,196,200);"/>
                <rect id="rect1229" x="150" y="364" width="30" height="1" style="fill:rgb(183,196,200);"/>
                <rect id="rect1231" x="150" y="361" width="30" height="1" style="fill:rgb(183,196,200);"/>
                <rect id="rect1233" x="150" y="370" width="30" height="1" style="fill:rgb(183,196,200);"/>
                <rect id="rect1235" x="150" y="367" width="30" height="1" style="fill:rgb(183,196,200);"/>
                <rect id="rect1237" x="150" y="376" width="30" height="1" style="fill:rgb(183,196,200);"/>
                <rect id="rect1239" x="150" y="373" width="30" height="1" style="fill:rgb(183,196,200);"/>
                <rect id="rect1241" x="150" y="334" width="30" height="1" style="fill:rgb(183,196,200);"/>
                <rect id="rect1243" x="150" y="331" width="30" height="1" style="fill:rgb(183,196,200);"/>
                <rect id="rect1245" x="150" y="340" width="30" height="1" style="fill:rgb(183,196,200);"/>
                <rect id="rect1247" x="150" y="337" width="30" height="1" style="fill:rgb(183,196,200);"/>
                <rect id="rect1249" x="150" y="346" width="30" height="1" style="fill:rgb(183,196,200);"/>
                <rect id="rect1251" x="150" y="343" width="30" height="1" style="fill:rgb(183,196,200);"/>
                <rect id="rect1253" x="150" y="352" width="30" height="1" style="fill:rgb(183,196,200);"/>
                <rect id="rect1255" x="150" y="349" width="30" height="1" style="fill:rgb(183,196,200);"/>
                <rect id="rect1257" x="150" y="310" width="30" height="1" style="fill:rgb(183,196,200);"/>
                <rect id="rect1259" x="150" y="307" width="30" height="1" style="fill:rgb(183,196,200);"/>
                <rect id="rect1261" x="150" y="316" width="30" height="1" style="fill:rgb(183,196,200);"/>
                <rect id="rect1263" x="150" y="313" width="30" height="1" style="fill:rgb(183,196,200);"/>
                <rect id="rect1265" x="150" y="322" width="30" height="1" style="fill:rgb(183,196,200);"/>
                <rect id="rect1267" x="150" y="319" width="30" height="1" style="fill:rgb(183,196,200);"/>
                <rect id="rect1269" x="150" y="328" width="30" height="1" style="fill:rgb(183,196,200);"/>
                <rect id="rect1271" x="150" y="325" width="30" height="1" style="fill:rgb(183,196,200);"/>
                <rect id="rect1273" x="150" y="286" width="30" height="1" style="fill:rgb(183,196,200);"/>
                <rect id="rect1275" x="150" y="283" width="30" height="1" style="fill:rgb(183,196,200);"/>
                <rect id="rect1277" x="150" y="292" width="30" height="1" style="fill:rgb(183,196,200);"/>
                <rect id="rect1279" x="150" y="289" width="30" height="1" style="fill:rgb(183,196,200);"/>
                <rect id="rect1281" x="150" y="298" width="30" height="1" style="fill:rgb(183,196,200);"/>
                <rect id="rect1283" x="150" y="295" width="30" height="1" style="fill:rgb(183,196,200);"/>
                <rect id="rect1285" x="150" y="304" width="30" height="1" style="fill:rgb(183,196,200);"/>
                <rect id="rect1287" x="150" y="301" width="30" height="1" style="fill:rgb(183,196,200);"/>
                <rect id="rect1289" x="150" y="268" width="30" height="1" style="fill:rgb(183,196,200);"/>
                <rect id="rect1291" x="150" y="265" width="30" height="1" style="fill:rgb(183,196,200);"/>
                <rect id="rect1293" x="150" y="274" width="30" height="1" style="fill:rgb(183,196,200);"/>
                <rect id="rect1295" x="150" y="271" width="30" height="1" style="fill:rgb(183,196,200);"/>
                <rect id="rect1297" x="150" y="280" width="30" height="1" style="fill:rgb(183,196,200);"/>
                <rect id="rect1299" x="150" y="277" width="30" height="1" style="fill:rgb(183,196,200);"/>
            </g>
        </g>
        <g id="g1443">
            <rect id="rect1810" x="2" y="20" width="26" height="101"/>
            <g id="g1888" transform="matrix(1,0,0,1,-150,-249)">
                <rect id="rect1812" x="150" y="358" width="30" height="1" style="fill:rgb(183,196,200);"/>
                <rect id="rect1814" x="150" y="355" width="30" height="1" style="fill:rgb(183,196,200);"/>
                <rect id="rect1816" x="150" y="364" width="30" height="1" style="fill:rgb(183,196,200);"/>
                <rect id="rect1818" x="150" y="361" width="30" height="1" style="fill:rgb(183,196,200);"/>
                <rect id="rect1820" x="150" y="370" width="30" height="1" style="fill:rgb(183,196,200);"/>
                <rect id="rect1822" x="150" y="367" width="30" height="1" style="fill:rgb(183,196,200);"/>
                <rect id="rect1824" x="150" y="376" width="30" height="1" style="fill:rgb(183,196,200);"/>
                <rect id="rect1826" x="150" y="373" width="30" height="1" style="fill:rgb(183,196,200);"/>
                <rect id="rect1828" x="150" y="334" width="30" height="1" style="fill:rgb(183,196,200);"/>
                <rect id="rect1830" x="150" y="331" width="30" height="1" style="fill:rgb(183,196,200);"/>
                <rect id="rect1832" x="150" y="340" width="30" height="1" style="fill:rgb(183,196,200);"/>
                <rect id="rect1834" x="150" y="337" width="30" height="1" style="fill:rgb(183,196,200);"/>
                <rect id="rect1836" x="150" y="346" width="30" height="1" style="fill:rgb(183,196,200);"/>
                <rect id="rect1838" x="150" y="343" width="30" height="1" style="fill:rgb(183,196,200);"/>
                <rect id="rect1840" x="150" y="352" width="30" height="1" style="fill:rgb(183,196,200);"/>
                <rect id="rect1842" x="150" y="349" width="30" height="1" style="fill:rgb(183,196,200);"/>
                <rect id="rect1844" x="150" y="310" width="30" height="1" style="fill:rgb(183,196,200);"/>
                <rect id="rect1846" x="150" y="307" width="30" height="1" style="fill:rgb(183,196,200);"/>
                <rect id="rect1848" x="150" y="316" width="30" height="1" style="fill:rgb(183,196,200);"/>
                <rect id="rect1850" x="150" y="313" width="30" height="1" style="fill:rgb(183,196,200);"/>
                <rect id="rect1852" x="150" y="322" width="30" height="1" style="fill:rgb(183,196,200);"/>
                <rect id="rect1854" x="150" y="319" width="30" height="1" style="fill:rgb(183,196,200);"/>
                <rect id="rect1856" x="150" y="328" width="30" height="1" style="fill:rgb(183,196,200);"/>
                <rect id="rect1858" x="150" y="325" width="30" height="1" style="fill:rgb(183,196,200);"/>
                <rect id="rect1860" x="150" y="286" width="30" height="1" style="fill:rgb(183,196,200);"/>
                <rect id="rect1862" x="150" y="283" width="30" height="1" style="fill:rgb(183,196,200);"/>
                <rect id="rect1864" x="150" y="292" width="30" height="1" style="fill:rgb(183,196,200);"/>
                <rect id="rect1866" x="150" y="289" width="30" height="1" style="fill:rgb(183,196,200);"/>
                <rect id="rect1868" x="150" y="298" width="30" height="1" style="fill:rgb(183,196,200);"/>
                <rect id="rect1870" x="150" y="295" width="30" height="1" style="fill:rgb(183,196,200);"/>
                <rect id="rect1872" x="150" y="304" width="30" height="1" style="fill:rgb(183,196,200);"/>
                <rect id="rect1874" x="150" y="301" width="30" height="1" style="fill:rgb(183,196,200);"/>
                <rect id="rect1876" x="150" y="268" width="30" height="1" style="fill:rgb(183,196,200);"/>
                <rect id="rect1878" x="150" y="265" width="30" height="1" style="fill:rgb(183,196,200);"/>
                <rect id="rect1880" x="150" y="274" width="30" height="1" style="fill:rgb(183,196,200);"/>
                <rect id="rect1882" x="150" y="271" width="30" height="1" style="fill:rgb(183,196,200);"/>
                <rect id="rect1884" x="150" y="280" width="30" height="1" style="fill:rgb(183,196,200);"/>
                <rect id="rect1886" x="150" y="277" width="30" height="1" style="fill:rgb(183,196,200);"/>
            </g>
        </g>
        <g id="text1284">
            <path id="path1286" d="M12.121,18L3.816,18L7.113,13.602C7.488,13.102 7.803,12.656 8.059,12.266C8.314,11.87 8.514,11.521 8.66,11.219C8.947,10.651 9.09,10.068 9.09,9.469C9.09,9.141 9.022,8.88 8.887,8.688C8.751,8.495 8.566,8.398 8.332,8.398C7.811,8.398 7.551,8.888 7.551,9.867L7.551,10.055C7.556,10.128 7.561,10.214 7.566,10.312L4.402,10.312L4.387,9.875C4.387,8.661 4.762,7.667 5.512,6.891C6.267,6.109 7.233,5.719 8.41,5.719C9.546,5.719 10.473,6.089 11.191,6.828C11.915,7.552 12.277,8.497 12.277,9.664C12.277,10.602 12.03,11.513 11.535,12.398C11.285,12.841 10.96,13.307 10.559,13.797C10.163,14.281 9.681,14.792 9.113,15.328C9.603,15.292 10.095,15.266 10.59,15.25C11.09,15.234 11.6,15.227 12.121,15.227L12.121,18Z" style="fill:rgb(158,161,168);fill-rule:nonzero;"/>
            <path id="path1288" d="M26.184,18L22.777,18L22.535,12.5L22.434,10.305C22.397,10.727 22.355,11.13 22.309,11.516C22.262,11.896 22.204,12.266 22.137,12.625L21.113,18L18.457,18L17.582,12.617C17.53,12.305 17.46,11.768 17.371,11.008C17.361,10.893 17.337,10.659 17.301,10.305L17.223,12.531L16.934,18L13.465,18L14.871,5.938L18.926,5.938L19.605,10C19.663,10.333 19.712,10.695 19.754,11.086C19.801,11.477 19.842,11.901 19.879,12.359C19.947,11.594 20.04,10.909 20.16,10.305L20.988,5.938L25.012,5.938L26.184,18Z" style="fill:rgb(158,161,168);fill-rule:nonzero;"/>
        </g>
    </g>
</svg>
