<?xml version="1.0" encoding="UTF-8" standalone="no"?>
<!DOCTYPE svg PUBLIC "-//W3C//DTD SVG 1.1//EN" "http://www.w3.org/Graphics/SVG/1.1/DTD/svg11.dtd">
<svg width="100%" height="100%" viewBox="0 0 30 380" version="1.1" xmlns="http://www.w3.org/2000/svg" xmlns:xlink="http://www.w3.org/1999/xlink" xml:space="preserve" xmlns:serif="http://www.serif.com/" style="fill-rule:evenodd;clip-rule:evenodd;stroke-linejoin:round;stroke-miterlimit:2;">
    <g id="Layer-2" serif:id="Layer 2">
        <g id="text989">
        </g>
        <rect id="rect4689" x="0" y="0" width="30" height="380" style="fill:rgb(44,45,48);"/>
        <g id="text80" transform="matrix(1.00498,0,0,0.995047,-30,4.99997)">
            <path id="path4726" d="M29.851,371.706L29.851,363.943L31.853,363.943L32.903,366.668C32.96,366.829 33.024,367.013 33.094,367.221C33.168,367.429 33.249,367.668 33.336,367.94L33.552,368.624C33.475,367.95 33.416,367.373 33.376,366.894C33.336,366.415 33.316,366.013 33.316,365.687L33.316,363.943L35.317,363.943L35.317,371.706L33.316,371.706L32.26,368.85C32.149,368.545 32.049,368.26 31.958,367.995C31.871,367.727 31.794,367.472 31.727,367.231C31.77,367.777 31.802,368.253 31.822,368.659C31.843,369.065 31.853,369.42 31.853,369.725L31.853,371.706L29.851,371.706Z" style="fill:rgb(158,161,168);fill-rule:nonzero;"/>
            <path id="path4728" d="M39.887,371.706L37.791,371.706L37.791,368.418L35.865,363.943L38.052,363.943L38.429,365.094C38.503,365.319 38.568,365.535 38.625,365.743C38.686,365.951 38.739,366.15 38.786,366.341C38.863,366.056 38.93,365.811 38.987,365.607C39.044,365.399 39.095,365.232 39.138,365.104L39.52,363.943L41.692,363.943L39.887,368.418L39.887,371.706Z" style="fill:rgb(158,161,168);fill-rule:nonzero;"/>
            <path id="path4730" d="M41.894,371.515L41.894,369.076C42.306,369.639 42.752,369.921 43.231,369.921C43.412,369.921 43.56,369.874 43.673,369.78C43.787,369.683 43.844,369.562 43.844,369.418C43.844,369.21 43.72,369.008 43.472,368.81L43.13,368.543C42.902,368.372 42.708,368.203 42.547,368.035C42.386,367.865 42.256,367.69 42.155,367.513C42.054,367.332 41.981,367.146 41.934,366.954C41.887,366.763 41.863,366.562 41.863,366.351C41.863,365.989 41.947,365.61 42.115,365.215C42.199,365.03 42.296,364.863 42.406,364.712C42.517,364.558 42.644,364.422 42.789,364.305C43.184,363.969 43.662,363.802 44.222,363.802C44.721,363.802 45.224,363.934 45.73,364.199L45.73,366.572C45.559,366.308 45.365,366.1 45.147,365.949C44.929,365.795 44.714,365.718 44.503,365.718C44.342,365.718 44.21,365.765 44.106,365.858C43.999,365.949 43.945,366.058 43.945,366.185C43.945,366.393 44.087,366.599 44.372,366.804L44.704,367.05C45.147,367.368 45.463,367.695 45.655,368.03C45.849,368.366 45.946,368.758 45.946,369.207C45.946,369.971 45.713,370.601 45.247,371.098C44.781,371.594 44.191,371.842 43.477,371.842C42.985,371.842 42.457,371.733 41.894,371.515L41.894,371.515Z" style="fill:rgb(158,161,168);fill-rule:nonzero;"/>
            <path id="path4732" d="M49.576,371.706L47.48,371.706L47.48,365.803L46.323,365.803L46.323,363.943L50.778,363.943L50.778,365.803L49.576,365.803L49.576,371.706Z" style="fill:rgb(158,161,168);fill-rule:nonzero;"/>
            <path id="path4734" d="M56.525,371.706L54.428,371.706L54.428,368.584L53.428,368.584L53.428,371.706L51.331,371.706L51.331,363.943L53.428,363.943L53.428,366.688L54.428,366.688L54.428,363.943L56.525,363.943L56.525,371.706Z" style="fill:rgb(158,161,168);fill-rule:nonzero;"/>
            <rect id="path4736" x="57.606" y="363.943" width="2.097" height="7.763" style="fill:rgb(158,161,168);fill-rule:nonzero;"/>
        </g>
        <g id="text4987">
        </g>
        <g id="text1042">
        </g>
        <g id="g2054" transform="matrix(1,0,0,1,0,4)">
            <rect id="rect1005" x="2" y="187" width="26" height="101"/>
            <g id="g1301" transform="matrix(1,0,0,1,-150,-82)">
                <rect id="rect1225" x="150" y="358" width="30" height="1" style="fill:rgb(183,196,200);"/>
                <rect id="rect1227" x="150" y="355" width="30" height="1" style="fill:rgb(183,196,200);"/>
                <rect id="rect1229" x="150" y="364" width="30" height="1" style="fill:rgb(183,196,200);"/>
                <rect id="rect1231" x="150" y="361" width="30" height="1" style="fill:rgb(183,196,200);"/>
                <rect id="rect1233" x="150" y="370" width="30" height="1" style="fill:rgb(183,196,200);"/>
                <rect id="rect1235" x="150" y="367" width="30" height="1" style="fill:rgb(183,196,200);"/>
                <rect id="rect1237" x="150" y="376" width="30" height="1" style="fill:rgb(183,196,200);"/>
                <rect id="rect1239" x="150" y="373" width="30" height="1" style="fill:rgb(183,196,200);"/>
                <rect id="rect1241" x="150" y="334" width="30" height="1" style="fill:rgb(183,196,200);"/>
                <rect id="rect1243" x="150" y="331" width="30" height="1" style="fill:rgb(183,196,200);"/>
                <rect id="rect1245" x="150" y="340" width="30" height="1" style="fill:rgb(183,196,200);"/>
                <rect id="rect1247" x="150" y="337" width="30" height="1" style="fill:rgb(183,196,200);"/>
                <rect id="rect1249" x="150" y="346" width="30" height="1" style="fill:rgb(183,196,200);"/>
                <rect id="rect1251" x="150" y="343" width="30" height="1" style="fill:rgb(183,196,200);"/>
                <rect id="rect1253" x="150" y="352" width="30" height="1" style="fill:rgb(183,196,200);"/>
                <rect id="rect1255" x="150" y="349" width="30" height="1" style="fill:rgb(183,196,200);"/>
                <rect id="rect1257" x="150" y="310" width="30" height="1" style="fill:rgb(183,196,200);"/>
                <rect id="rect1259" x="150" y="307" width="30" height="1" style="fill:rgb(183,196,200);"/>
                <rect id="rect1261" x="150" y="316" width="30" height="1" style="fill:rgb(183,196,200);"/>
                <rect id="rect1263" x="150" y="313" width="30" height="1" style="fill:rgb(183,196,200);"/>
                <rect id="rect1265" x="150" y="322" width="30" height="1" style="fill:rgb(183,196,200);"/>
                <rect id="rect1267" x="150" y="319" width="30" height="1" style="fill:rgb(183,196,200);"/>
                <rect id="rect1269" x="150" y="328" width="30" height="1" style="fill:rgb(183,196,200);"/>
                <rect id="rect1271" x="150" y="325" width="30" height="1" style="fill:rgb(183,196,200);"/>
                <rect id="rect1273" x="150" y="286" width="30" height="1" style="fill:rgb(183,196,200);"/>
                <rect id="rect1275" x="150" y="283" width="30" height="1" style="fill:rgb(183,196,200);"/>
                <rect id="rect1277" x="150" y="292" width="30" height="1" style="fill:rgb(183,196,200);"/>
                <rect id="rect1279" x="150" y="289" width="30" height="1" style="fill:rgb(183,196,200);"/>
                <rect id="rect1281" x="150" y="298" width="30" height="1" style="fill:rgb(183,196,200);"/>
                <rect id="rect1283" x="150" y="295" width="30" height="1" style="fill:rgb(183,196,200);"/>
                <rect id="rect1285" x="150" y="304" width="30" height="1" style="fill:rgb(183,196,200);"/>
                <rect id="rect1287" x="150" y="301" width="30" height="1" style="fill:rgb(183,196,200);"/>
                <rect id="rect1289" x="150" y="268" width="30" height="1" style="fill:rgb(183,196,200);"/>
                <rect id="rect1291" x="150" y="265" width="30" height="1" style="fill:rgb(183,196,200);"/>
                <rect id="rect1293" x="150" y="274" width="30" height="1" style="fill:rgb(183,196,200);"/>
                <rect id="rect1295" x="150" y="271" width="30" height="1" style="fill:rgb(183,196,200);"/>
                <rect id="rect1297" x="150" y="280" width="30" height="1" style="fill:rgb(183,196,200);"/>
                <rect id="rect1299" x="150" y="277" width="30" height="1" style="fill:rgb(183,196,200);"/>
            </g>
        </g>
        <g id="g1443">
            <rect id="rect1810" x="2" y="20" width="26" height="101"/>
            <g id="g1888" transform="matrix(1,0,0,1,-150,-249)">
                <rect id="rect1812" x="150" y="358" width="30" height="1" style="fill:rgb(183,196,200);"/>
                <rect id="rect1814" x="150" y="355" width="30" height="1" style="fill:rgb(183,196,200);"/>
                <rect id="rect1816" x="150" y="364" width="30" height="1" style="fill:rgb(183,196,200);"/>
                <rect id="rect1818" x="150" y="361" width="30" height="1" style="fill:rgb(183,196,200);"/>
                <rect id="rect1820" x="150" y="370" width="30" height="1" style="fill:rgb(183,196,200);"/>
                <rect id="rect1822" x="150" y="367" width="30" height="1" style="fill:rgb(183,196,200);"/>
                <rect id="rect1824" x="150" y="376" width="30" height="1" style="fill:rgb(183,196,200);"/>
                <rect id="rect1826" x="150" y="373" width="30" height="1" style="fill:rgb(183,196,200);"/>
                <rect id="rect1828" x="150" y="334" width="30" height="1" style="fill:rgb(183,196,200);"/>
                <rect id="rect1830" x="150" y="331" width="30" height="1" style="fill:rgb(183,196,200);"/>
                <rect id="rect1832" x="150" y="340" width="30" height="1" style="fill:rgb(183,196,200);"/>
                <rect id="rect1834" x="150" y="337" width="30" height="1" style="fill:rgb(183,196,200);"/>
                <rect id="rect1836" x="150" y="346" width="30" height="1" style="fill:rgb(183,196,200);"/>
                <rect id="rect1838" x="150" y="343" width="30" height="1" style="fill:rgb(183,196,200);"/>
                <rect id="rect1840" x="150" y="352" width="30" height="1" style="fill:rgb(183,196,200);"/>
                <rect id="rect1842" x="150" y="349" width="30" height="1" style="fill:rgb(183,196,200);"/>
                <rect id="rect1844" x="150" y="310" width="30" height="1" style="fill:rgb(183,196,200);"/>
                <rect id="rect1846" x="150" y="307" width="30" height="1" style="fill:rgb(183,196,200);"/>
                <rect id="rect1848" x="150" y="316" width="30" height="1" style="fill:rgb(183,196,200);"/>
                <rect id="rect1850" x="150" y="313" width="30" height="1" style="fill:rgb(183,196,200);"/>
                <rect id="rect1852" x="150" y="322" width="30" height="1" style="fill:rgb(183,196,200);"/>
                <rect id="rect1854" x="150" y="319" width="30" height="1" style="fill:rgb(183,196,200);"/>
                <rect id="rect1856" x="150" y="328" width="30" height="1" style="fill:rgb(183,196,200);"/>
                <rect id="rect1858" x="150" y="325" width="30" height="1" style="fill:rgb(183,196,200);"/>
                <rect id="rect1860" x="150" y="286" width="30" height="1" style="fill:rgb(183,196,200);"/>
                <rect id="rect1862" x="150" y="283" width="30" height="1" style="fill:rgb(183,196,200);"/>
                <rect id="rect1864" x="150" y="292" width="30" height="1" style="fill:rgb(183,196,200);"/>
                <rect id="rect1866" x="150" y="289" width="30" height="1" style="fill:rgb(183,196,200);"/>
                <rect id="rect1868" x="150" y="298" width="30" height="1" style="fill:rgb(183,196,200);"/>
                <rect id="rect1870" x="150" y="295" width="30" height="1" style="fill:rgb(183,196,200);"/>
                <rect id="rect1872" x="150" y="304" width="30" height="1" style="fill:rgb(183,196,200);"/>
                <rect id="rect1874" x="150" y="301" width="30" height="1" style="fill:rgb(183,196,200);"/>
                <rect id="rect1876" x="150" y="268" width="30" height="1" style="fill:rgb(183,196,200);"/>
                <rect id="rect1878" x="150" y="265" width="30" height="1" style="fill:rgb(183,196,200);"/>
                <rect id="rect1880" x="150" y="274" width="30" height="1" style="fill:rgb(183,196,200);"/>
                <rect id="rect1882" x="150" y="271" width="30" height="1" style="fill:rgb(183,196,200);"/>
                <rect id="rect1884" x="150" y="280" width="30" height="1" style="fill:rgb(183,196,200);"/>
                <rect id="rect1886" x="150" y="277" width="30" height="1" style="fill:rgb(183,196,200);"/>
            </g>
        </g>
        <g id="text1300">
            <path id="path1307" d="M9.328,18L6.07,18L6.07,8.773L4.766,8.773L4.766,5.938L9.328,5.938L9.328,18Z" style="fill:rgb(158,161,168);fill-rule:nonzero;"/>
            <path id="path1309" d="M25.234,18L21.828,18L21.586,12.5L21.484,10.305C21.448,10.727 21.406,11.13 21.359,11.516C21.313,11.896 21.255,12.266 21.187,12.625L20.164,18L17.508,18L16.633,12.617C16.581,12.305 16.51,11.768 16.422,11.008C16.411,10.893 16.388,10.659 16.352,10.305L16.273,12.531L15.984,18L12.516,18L13.922,5.938L17.977,5.938L18.656,10C18.714,10.333 18.763,10.695 18.805,11.086C18.852,11.477 18.893,11.901 18.93,12.359C18.997,11.594 19.091,10.909 19.211,10.305L20.039,5.938L24.063,5.938L25.234,18Z" style="fill:rgb(158,161,168);fill-rule:nonzero;"/>
        </g>
        <g id="g1392" transform="matrix(1,0,0,1,0,75)">
            <rect id="rect1312" x="2" y="20" width="26" height="101"/>
            <g id="g1390" transform="matrix(1,0,0,1,-150,-249)">
                <rect id="rect1314" x="150" y="358" width="30" height="1" style="fill:rgb(183,196,200);"/>
                <rect id="rect1316" x="150" y="355" width="30" height="1" style="fill:rgb(183,196,200);"/>
                <rect id="rect1318" x="150" y="364" width="30" height="1" style="fill:rgb(183,196,200);"/>
                <rect id="rect1320" x="150" y="361" width="30" height="1" style="fill:rgb(183,196,200);"/>
                <rect id="rect1322" x="150" y="370" width="30" height="1" style="fill:rgb(183,196,200);"/>
                <rect id="rect1324" x="150" y="367" width="30" height="1" style="fill:rgb(183,196,200);"/>
                <rect id="rect1326" x="150" y="376" width="30" height="1" style="fill:rgb(183,196,200);"/>
                <rect id="rect1328" x="150" y="373" width="30" height="1" style="fill:rgb(183,196,200);"/>
                <rect id="rect1330" x="150" y="334" width="30" height="1" style="fill:rgb(183,196,200);"/>
                <rect id="rect1332" x="150" y="331" width="30" height="1" style="fill:rgb(183,196,200);"/>
                <rect id="rect1334" x="150" y="340" width="30" height="1" style="fill:rgb(183,196,200);"/>
                <rect id="rect1336" x="150" y="337" width="30" height="1" style="fill:rgb(183,196,200);"/>
                <rect id="rect1338" x="150" y="346" width="30" height="1" style="fill:rgb(183,196,200);"/>
                <rect id="rect1340" x="150" y="343" width="30" height="1" style="fill:rgb(183,196,200);"/>
                <rect id="rect1342" x="150" y="352" width="30" height="1" style="fill:rgb(183,196,200);"/>
                <rect id="rect1344" x="150" y="349" width="30" height="1" style="fill:rgb(183,196,200);"/>
                <rect id="rect1346" x="150" y="310" width="30" height="1" style="fill:rgb(183,196,200);"/>
                <rect id="rect1348" x="150" y="307" width="30" height="1" style="fill:rgb(183,196,200);"/>
                <rect id="rect1350" x="150" y="316" width="30" height="1" style="fill:rgb(183,196,200);"/>
                <rect id="rect1352" x="150" y="313" width="30" height="1" style="fill:rgb(183,196,200);"/>
                <rect id="rect1354" x="150" y="322" width="30" height="1" style="fill:rgb(183,196,200);"/>
                <rect id="rect1356" x="150" y="319" width="30" height="1" style="fill:rgb(183,196,200);"/>
                <rect id="rect1358" x="150" y="328" width="30" height="1" style="fill:rgb(183,196,200);"/>
                <rect id="rect1360" x="150" y="325" width="30" height="1" style="fill:rgb(183,196,200);"/>
                <rect id="rect1362" x="150" y="286" width="30" height="1" style="fill:rgb(183,196,200);"/>
                <rect id="rect1364" x="150" y="283" width="30" height="1" style="fill:rgb(183,196,200);"/>
                <rect id="rect1366" x="150" y="292" width="30" height="1" style="fill:rgb(183,196,200);"/>
                <rect id="rect1368" x="150" y="289" width="30" height="1" style="fill:rgb(183,196,200);"/>
                <rect id="rect1370" x="150" y="298" width="30" height="1" style="fill:rgb(183,196,200);"/>
                <rect id="rect1372" x="150" y="295" width="30" height="1" style="fill:rgb(183,196,200);"/>
                <rect id="rect1374" x="150" y="304" width="30" height="1" style="fill:rgb(183,196,200);"/>
                <rect id="rect1376" x="150" y="301" width="30" height="1" style="fill:rgb(183,196,200);"/>
                <rect id="rect1378" x="150" y="268" width="30" height="1" style="fill:rgb(183,196,200);"/>
                <rect id="rect1380" x="150" y="265" width="30" height="1" style="fill:rgb(183,196,200);"/>
                <rect id="rect1382" x="150" y="274" width="30" height="1" style="fill:rgb(183,196,200);"/>
                <rect id="rect1384" x="150" y="271" width="30" height="1" style="fill:rgb(183,196,200);"/>
                <rect id="rect1386" x="150" y="280" width="30" height="1" style="fill:rgb(183,196,200);"/>
                <rect id="rect1388" x="150" y="277" width="30" height="1" style="fill:rgb(183,196,200);"/>
            </g>
        </g>
    </g>
</svg>
