<?xml version="1.0" encoding="UTF-8" standalone="no"?>
<!DOCTYPE svg PUBLIC "-//W3C//DTD SVG 1.1//EN" "http://www.w3.org/Graphics/SVG/1.1/DTD/svg11.dtd">
<svg width="100%" height="100%" viewBox="0 0 105 380" version="1.1" xmlns="http://www.w3.org/2000/svg" xmlns:xlink="http://www.w3.org/1999/xlink" xml:space="preserve" xmlns:serif="http://www.serif.com/" style="fill-rule:evenodd;clip-rule:evenodd;stroke-linejoin:round;stroke-miterlimit:2;">
    <g id="Layer-2" serif:id="Layer 2">
        <g id="text989">
        </g>
        <rect id="rect1189" x="0" y="0" width="105" height="380" style="fill:rgb(44,45,48);"/>
        <g id="text80" transform="matrix(0.87098,0,0,0.995047,13.5,6.99997)">
            <path id="path4726" d="M29.851,371.706L29.851,363.943L31.853,363.943L32.903,366.668C32.96,366.829 33.024,367.013 33.094,367.221C33.168,367.429 33.249,367.668 33.336,367.94L33.552,368.624C33.475,367.95 33.416,367.373 33.376,366.894C33.336,366.415 33.316,366.013 33.316,365.687L33.316,363.943L35.317,363.943L35.317,371.706L33.316,371.706L32.26,368.85C32.149,368.545 32.049,368.26 31.958,367.995C31.871,367.727 31.794,367.472 31.727,367.231C31.77,367.777 31.802,368.253 31.822,368.659C31.843,369.065 31.853,369.42 31.853,369.725L31.853,371.706L29.851,371.706Z" style="fill:rgb(158,161,168);fill-rule:nonzero;"/>
            <path id="path4728" d="M39.887,371.706L37.791,371.706L37.791,368.418L35.865,363.943L38.052,363.943L38.429,365.094C38.503,365.319 38.568,365.535 38.625,365.743C38.686,365.951 38.739,366.15 38.786,366.341C38.863,366.056 38.93,365.811 38.987,365.607C39.044,365.399 39.095,365.232 39.138,365.104L39.52,363.943L41.692,363.943L39.887,368.418L39.887,371.706Z" style="fill:rgb(158,161,168);fill-rule:nonzero;"/>
            <path id="path4730" d="M41.894,371.515L41.894,369.076C42.306,369.639 42.752,369.921 43.231,369.921C43.412,369.921 43.56,369.874 43.673,369.78C43.787,369.683 43.844,369.562 43.844,369.418C43.844,369.21 43.72,369.008 43.472,368.81L43.13,368.543C42.902,368.372 42.708,368.203 42.547,368.035C42.386,367.865 42.256,367.69 42.155,367.513C42.054,367.332 41.981,367.146 41.934,366.954C41.887,366.763 41.863,366.562 41.863,366.351C41.863,365.989 41.947,365.61 42.115,365.215C42.199,365.03 42.296,364.863 42.406,364.712C42.517,364.558 42.644,364.422 42.789,364.305C43.184,363.969 43.662,363.802 44.222,363.802C44.721,363.802 45.224,363.934 45.73,364.199L45.73,366.572C45.559,366.308 45.365,366.1 45.147,365.949C44.929,365.795 44.714,365.718 44.503,365.718C44.342,365.718 44.21,365.765 44.106,365.858C43.999,365.949 43.945,366.058 43.945,366.185C43.945,366.393 44.087,366.599 44.372,366.804L44.704,367.05C45.147,367.368 45.463,367.695 45.655,368.03C45.849,368.366 45.946,368.758 45.946,369.207C45.946,369.971 45.713,370.601 45.247,371.098C44.781,371.594 44.191,371.842 43.477,371.842C42.985,371.842 42.457,371.733 41.894,371.515L41.894,371.515Z" style="fill:rgb(158,161,168);fill-rule:nonzero;"/>
            <path id="path4732" d="M49.576,371.706L47.48,371.706L47.48,365.803L46.323,365.803L46.323,363.943L50.778,363.943L50.778,365.803L49.576,365.803L49.576,371.706Z" style="fill:rgb(158,161,168);fill-rule:nonzero;"/>
            <path id="path4734" d="M56.525,371.706L54.428,371.706L54.428,368.584L53.428,368.584L53.428,371.706L51.331,371.706L51.331,363.943L53.428,363.943L53.428,366.688L54.428,366.688L54.428,363.943L56.525,363.943L56.525,371.706Z" style="fill:rgb(158,161,168);fill-rule:nonzero;"/>
            <rect id="path4736" x="57.606" y="363.943" width="2.097" height="7.763" style="fill:rgb(158,161,168);fill-rule:nonzero;"/>
        </g>
        <g id="text4987">
        </g>
        <g id="text1042">
        </g>
        <rect id="rect4778-3-6-0" x="2" y="19" width="100" height="26" style="fill:rgb(179,179,179);"/>
        <g id="text4613" transform="matrix(0.492623,0,0,0.697337,27.5499,-16.5376)">
            <path id="path4701" d="M17.141,61L15.047,61L15.047,55.37L17.141,55.37L17.141,61ZM17.318,53.625C17.318,53.955 17.198,54.24 16.958,54.479C16.712,54.715 16.425,54.833 16.099,54.833C15.762,54.833 15.474,54.714 15.234,54.474C14.998,54.227 14.88,53.939 14.88,53.609C14.88,53.273 14.998,52.986 15.234,52.75C15.481,52.514 15.767,52.396 16.094,52.396C16.438,52.396 16.727,52.516 16.964,52.755C17.2,52.991 17.318,53.281 17.318,53.625Z" style="fill:rgb(44,45,48);fill-rule:nonzero;"/>
            <path id="path4703" d="M23.068,61L20.979,61L20.979,58.021C20.979,57.764 20.953,57.585 20.901,57.484C20.852,57.384 20.766,57.333 20.641,57.333C20.349,57.333 20.203,57.609 20.203,58.161L20.203,61L18.115,61L18.115,55.37L20.203,55.37C20.2,55.509 20.196,55.637 20.193,55.755C20.189,55.873 20.184,55.983 20.177,56.083L20.156,56.443C20.493,55.648 20.986,55.25 21.635,55.25C22.087,55.25 22.438,55.418 22.688,55.755C22.941,56.092 23.068,56.561 23.068,57.161L23.068,61Z" style="fill:rgb(44,45,48);fill-rule:nonzero;"/>
            <path id="path4705" d="M31.12,61L27.318,61L27.318,52.958L29.49,52.958L29.49,59.068L31.12,59.068L31.12,61Z" style="fill:rgb(44,45,48);fill-rule:nonzero;"/>
        </g>
        <g id="text4617" transform="matrix(0.440619,0,0,0.697337,36.4785,-16.5376)">
            <path id="path4708" d="M60.182,61L58.089,61L58.089,55.37L60.182,55.37L60.182,61ZM60.359,53.625C60.359,53.955 60.24,54.24 60,54.479C59.753,54.715 59.467,54.833 59.141,54.833C58.804,54.833 58.516,54.714 58.276,54.474C58.04,54.227 57.922,53.939 57.922,53.609C57.922,53.273 58.04,52.986 58.276,52.75C58.523,52.514 58.809,52.396 59.135,52.396C59.479,52.396 59.769,52.516 60.005,52.755C60.241,52.991 60.359,53.281 60.359,53.625L60.359,53.625Z" style="fill:rgb(44,45,48);fill-rule:nonzero;"/>
            <path id="path4710" d="M66.109,61L64.021,61L64.021,58.021C64.021,57.764 63.995,57.585 63.943,57.484C63.894,57.384 63.807,57.333 63.682,57.333C63.391,57.333 63.245,57.609 63.245,58.161L63.245,61L61.156,61L61.156,55.37L63.245,55.37C63.241,55.509 63.238,55.637 63.234,55.755C63.231,55.873 63.226,55.983 63.219,56.083L63.198,56.443C63.535,55.648 64.028,55.25 64.677,55.25C65.128,55.25 65.479,55.418 65.729,55.755C65.983,56.092 66.109,56.561 66.109,57.161L66.109,61Z" style="fill:rgb(44,45,48);fill-rule:nonzero;"/>
            <path id="path4712" d="M76.078,61L73.729,61L72.656,58.135C72.646,58.087 72.627,58.023 72.599,57.943C72.575,57.863 72.544,57.767 72.505,57.656L72.521,58.187L72.521,61L70.359,61L70.359,52.958L72.583,52.958C73.562,52.958 74.295,53.151 74.781,53.536C75.399,54.03 75.708,54.731 75.708,55.641C75.708,56.613 75.293,57.285 74.463,57.656L76.078,61ZM72.531,56.682L72.677,56.682C72.927,56.682 73.135,56.587 73.302,56.396C73.469,56.205 73.552,55.962 73.552,55.667C73.552,55.066 73.238,54.766 72.609,54.766L72.531,54.766L72.531,56.682Z" style="fill:rgb(44,45,48);fill-rule:nonzero;"/>
        </g>
        <rect id="rect4778-8" x="2" y="342" width="34" height="35" style="fill:rgb(60,60,60);"/>
        <g id="text4861" transform="matrix(0.878317,0,0,0.858237,-1.20128,76.235)">
            <path id="path4899" d="M16.849,345.271C16.849,346.139 16.609,346.83 16.13,347.344C15.651,347.858 15.009,348.115 14.203,348.115C13.411,348.115 12.781,347.852 12.313,347.328C11.847,346.8 11.615,346.092 11.615,345.203C11.615,344.314 11.852,343.601 12.328,343.062C12.8,342.521 13.427,342.25 14.208,342.25C15.031,342.25 15.677,342.519 16.146,343.057C16.615,343.595 16.849,344.333 16.849,345.271ZM14.823,345.203C14.823,344.995 14.809,344.807 14.781,344.641C14.753,344.47 14.714,344.326 14.661,344.208C14.609,344.087 14.547,343.993 14.474,343.927C14.401,343.861 14.319,343.828 14.229,343.828C14.052,343.828 13.91,343.953 13.802,344.203C13.694,344.422 13.641,344.75 13.641,345.188C13.641,345.618 13.694,345.946 13.802,346.172C13.91,346.422 14.054,346.547 14.234,346.547C14.405,346.547 14.545,346.424 14.656,346.177C14.767,345.903 14.823,345.578 14.823,345.203L14.823,345.203Z" style="fill:rgb(197,200,209);fill-rule:nonzero;"/>
            <path id="path4901" d="M17.651,342.37L19.74,342.37L19.74,345.542C19.74,345.844 19.769,346.064 19.828,346.203C19.891,346.318 20.009,346.375 20.182,346.375C20.352,346.375 20.467,346.318 20.526,346.203C20.589,346.089 20.62,345.868 20.62,345.542L20.62,342.37L22.708,342.37L22.708,345.823C22.708,346.052 22.689,346.26 22.651,346.448C22.616,346.632 22.559,346.8 22.479,346.953C22.403,347.102 22.302,347.24 22.177,347.365C22.056,347.49 21.91,347.604 21.74,347.708C21.281,347.979 20.762,348.115 20.182,348.115C19.595,348.115 19.076,347.979 18.625,347.708C18.451,347.604 18.302,347.491 18.177,347.37C18.056,347.245 17.955,347.106 17.875,346.953C17.799,346.8 17.741,346.632 17.703,346.448C17.668,346.26 17.651,346.052 17.651,345.823L17.651,342.37Z" style="fill:rgb(197,200,209);fill-rule:nonzero;"/>
            <path id="path4903" d="M26.047,348L23.953,348L23.953,344.052L23.359,344.052L23.359,342.37L23.953,342.37L23.953,340.714L26.047,340.714L26.047,342.37L26.74,342.37L26.74,344.052L26.047,344.052L26.047,348Z" style="fill:rgb(197,200,209);fill-rule:nonzero;"/>
            <path id="path4905" d="M34.385,348L30.583,348L30.583,339.958L32.755,339.958L32.755,346.068L34.385,346.068L34.385,348Z" style="fill:rgb(197,200,209);fill-rule:nonzero;"/>
        </g>
        <rect id="rect4778-3" x="69" y="342" width="34" height="35" style="fill:rgb(60,60,60);"/>
        <g id="text4886" transform="matrix(0.810127,0,0,0.858237,31.7215,76.235)">
            <path id="path4890" d="M59.891,345.271C59.891,346.139 59.651,346.83 59.172,347.344C58.693,347.858 58.05,348.115 57.245,348.115C56.453,348.115 55.823,347.852 55.354,347.328C54.889,346.8 54.656,346.092 54.656,345.203C54.656,344.314 54.894,343.601 55.37,343.062C55.842,342.521 56.469,342.25 57.25,342.25C58.073,342.25 58.719,342.519 59.187,343.057C59.656,343.595 59.891,344.333 59.891,345.271ZM57.865,345.203C57.865,344.995 57.851,344.807 57.823,344.641C57.795,344.47 57.755,344.326 57.703,344.208C57.651,344.087 57.589,343.993 57.516,343.927C57.443,343.861 57.361,343.828 57.271,343.828C57.094,343.828 56.951,343.953 56.844,344.203C56.736,344.422 56.682,344.75 56.682,345.187C56.682,345.618 56.736,345.946 56.844,346.172C56.951,346.422 57.095,346.547 57.276,346.547C57.446,346.547 57.587,346.424 57.698,346.177C57.809,345.903 57.865,345.578 57.865,345.203L57.865,345.203Z" style="fill:rgb(197,200,209);fill-rule:nonzero;"/>
            <path id="path4892" d="M60.693,342.37L62.781,342.37L62.781,345.542C62.781,345.844 62.811,346.064 62.87,346.203C62.932,346.318 63.05,346.375 63.224,346.375C63.394,346.375 63.509,346.318 63.568,346.203C63.63,346.089 63.662,345.868 63.662,345.542L63.662,342.37L65.75,342.37L65.75,345.823C65.75,346.052 65.731,346.26 65.693,346.448C65.658,346.632 65.601,346.8 65.521,346.953C65.444,347.102 65.344,347.24 65.219,347.365C65.097,347.49 64.951,347.604 64.781,347.708C64.323,347.979 63.804,348.115 63.224,348.115C62.637,348.115 62.118,347.979 61.667,347.708C61.493,347.604 61.344,347.491 61.219,347.37C61.097,347.245 60.997,347.106 60.917,346.953C60.84,346.8 60.783,346.632 60.745,346.448C60.71,346.26 60.693,346.052 60.693,345.823L60.693,342.37Z" style="fill:rgb(197,200,209);fill-rule:nonzero;"/>
            <path id="path4894" d="M69.089,348L66.995,348L66.995,344.052L66.401,344.052L66.401,342.37L66.995,342.37L66.995,340.714L69.089,340.714L69.089,342.37L69.781,342.37L69.781,344.052L69.089,344.052L69.089,348Z" style="fill:rgb(197,200,209);fill-rule:nonzero;"/>
            <path id="path4896" d="M79.344,348L76.995,348L75.922,345.135C75.912,345.087 75.892,345.023 75.865,344.943C75.84,344.863 75.809,344.767 75.771,344.656L75.786,345.187L75.786,348L73.625,348L73.625,339.958L75.849,339.958C76.828,339.958 77.561,340.151 78.047,340.536C78.665,341.029 78.974,341.731 78.974,342.641C78.974,343.613 78.559,344.285 77.729,344.656L79.344,348ZM75.797,343.682L75.943,343.682C76.193,343.682 76.401,343.587 76.568,343.396C76.734,343.205 76.818,342.962 76.818,342.667C76.818,342.066 76.503,341.766 75.875,341.766L75.797,341.766L75.797,343.682Z" style="fill:rgb(197,200,209);fill-rule:nonzero;"/>
        </g>
        <g id="text1278" transform="matrix(0.924933,0,0,1.08116,0,0)">
            <path id="path1280" d="M18.456,16.454L15.551,16.454L14.858,12.544C14.723,11.788 14.622,11.133 14.554,10.579C14.521,10.304 14.492,10.076 14.468,9.893C14.443,9.709 14.427,9.57 14.417,9.473C14.393,9.671 14.357,10.039 14.309,10.579C14.284,10.854 14.256,11.143 14.222,11.446C14.188,11.75 14.147,12.07 14.099,12.407L13.528,16.454L10.594,16.454L8.109,5.297L11.086,5.297L11.577,8.368C11.765,9.591 11.895,10.553 11.967,11.251L12.069,12.27L12.162,11.396C12.264,10.374 12.394,9.404 12.553,8.483L13.116,5.297L15.71,5.297L16.216,7.978C16.457,9.225 16.667,10.702 16.845,12.407C16.898,11.641 16.956,10.962 17.018,10.369C17.081,9.777 17.151,9.24 17.228,8.758L17.777,5.297L20.718,5.297L18.456,16.454Z" style="fill:rgb(158,161,168);fill-rule:nonzero;"/>
            <path id="path1282" d="M29.693,10.911C29.693,12.612 29.305,13.994 28.529,15.059C27.758,16.119 26.754,16.649 25.516,16.649C24.418,16.649 23.476,16.242 22.691,15.428C21.703,14.397 21.209,12.85 21.209,10.789C21.209,8.813 21.725,7.303 22.756,6.258C23.522,5.482 24.43,5.095 25.48,5.095C26.766,5.095 27.79,5.62 28.551,6.67C29.312,7.72 29.693,9.134 29.693,10.911ZM26.564,10.933C26.564,8.915 26.207,7.905 25.494,7.905C25.138,7.905 24.854,8.17 24.642,8.7C24.434,9.192 24.331,9.914 24.331,10.868C24.331,11.807 24.427,12.537 24.62,13.058C24.817,13.573 25.09,13.831 25.436,13.831C25.793,13.831 26.068,13.575 26.26,13.065C26.463,12.554 26.564,11.844 26.564,10.933L26.564,10.933Z" style="fill:rgb(158,161,168);fill-rule:nonzero;"/>
            <path id="path1284" d="M38.906,16.454L35.647,16.454L34.158,12.479C34.144,12.412 34.117,12.323 34.079,12.212C34.045,12.101 34.002,11.969 33.949,11.815L33.97,12.552L33.97,16.454L30.972,16.454L30.972,5.297L34.057,5.297C35.415,5.297 36.432,5.564 37.106,6.099C37.964,6.783 38.393,7.756 38.393,9.018C38.393,10.367 37.817,11.299 36.666,11.815L38.906,16.454ZM33.985,10.463L34.187,10.463C34.534,10.463 34.823,10.331 35.054,10.066C35.285,9.801 35.401,9.464 35.401,9.054C35.401,8.221 34.965,7.804 34.093,7.804L33.985,7.804L33.985,10.463Z" style="fill:rgb(158,161,168);fill-rule:nonzero;"/>
            <path id="path1286" d="M51.385,16.454L48.234,16.454L48.01,11.367L47.916,9.336C47.883,9.726 47.844,10.1 47.801,10.456C47.757,10.808 47.704,11.15 47.642,11.482L46.695,16.454L44.238,16.454L43.429,11.475C43.381,11.186 43.316,10.69 43.234,9.986C43.224,9.881 43.203,9.664 43.169,9.336L43.097,11.396L42.829,16.454L39.621,16.454L40.922,5.297L44.672,5.297L45.301,9.054C45.354,9.363 45.399,9.697 45.438,10.059C45.481,10.42 45.52,10.813 45.553,11.237C45.616,10.528 45.703,9.895 45.814,9.336L46.58,5.297L50.301,5.297L51.385,16.454Z" style="fill:rgb(158,161,168);fill-rule:nonzero;"/>
            <path id="path1288" d="M60.2,16.454L57.187,16.454L57.187,11.966L55.749,11.966L55.749,16.454L52.736,16.454L52.736,5.297L55.749,5.297L55.749,9.242L57.187,9.242L57.187,5.297L60.2,5.297L60.2,16.454Z" style="fill:rgb(158,161,168);fill-rule:nonzero;"/>
            <path id="path1290" d="M69.955,10.911C69.955,12.612 69.568,13.994 68.792,15.059C68.021,16.119 67.017,16.649 65.779,16.649C64.68,16.649 63.739,16.242 62.954,15.428C61.966,14.397 61.472,12.85 61.472,10.789C61.472,8.813 61.988,7.303 63.019,6.258C63.784,5.482 64.693,5.095 65.743,5.095C67.029,5.095 68.053,5.62 68.814,6.67C69.575,7.72 69.955,9.134 69.955,10.911ZM66.827,10.933C66.827,8.915 66.47,7.905 65.757,7.905C65.401,7.905 65.116,8.17 64.904,8.7C64.697,9.192 64.594,9.914 64.594,10.868C64.594,11.807 64.69,12.537 64.883,13.058C65.08,13.573 65.352,13.831 65.699,13.831C66.056,13.831 66.33,13.575 66.523,13.065C66.725,12.554 66.827,11.844 66.827,10.933L66.827,10.933Z" style="fill:rgb(158,161,168);fill-rule:nonzero;"/>
            <path id="path1292" d="M76.509,16.454L71.234,16.454L71.234,5.297L74.248,5.297L74.248,13.773L76.509,13.773L76.509,16.454Z" style="fill:rgb(158,161,168);fill-rule:nonzero;"/>
            <rect id="path1294" x="77.42" y="5.297" width="3.013" height="11.157" style="fill:rgb(158,161,168);fill-rule:nonzero;"/>
            <path id="path1296" d="M89.169,16.454L81.488,16.454L81.488,16.215L84.104,10.239C84.296,9.878 84.451,9.582 84.566,9.351C84.687,9.119 84.773,8.956 84.826,8.859C84.918,8.671 85.106,8.358 85.39,7.92L82.153,7.92L82.153,5.297L89.545,5.297L89.545,5.608L86.799,11.685C86.621,12.075 86.443,12.453 86.264,12.819C86.086,13.185 85.908,13.549 85.73,13.91C86.048,13.886 86.296,13.869 86.474,13.86C86.657,13.845 86.777,13.838 86.835,13.838L89.169,13.773L89.169,16.454Z" style="fill:rgb(158,161,168);fill-rule:nonzero;"/>
            <path id="path1298" d="M90.6,16.454L90.6,5.297L96.2,5.297L96.2,7.92L93.613,7.92L93.613,9.546L95.933,9.546L95.933,12.068L93.613,12.068L93.613,13.773L96.2,13.773L96.2,16.454L90.6,16.454Z" style="fill:rgb(158,161,168);fill-rule:nonzero;"/>
            <path id="path1300" d="M105.413,16.454L102.154,16.454L100.666,12.479C100.651,12.412 100.625,12.323 100.586,12.212C100.552,12.101 100.509,11.969 100.456,11.815L100.478,12.552L100.478,16.454L97.479,16.454L97.479,5.297L100.564,5.297C101.923,5.297 102.939,5.564 103.614,6.099C104.471,6.783 104.9,7.756 104.9,9.018C104.9,10.367 104.324,11.299 103.173,11.815L105.413,16.454ZM100.492,10.463L100.695,10.463C101.041,10.463 101.33,10.331 101.562,10.066C101.793,9.801 101.908,9.464 101.908,9.054C101.908,8.221 101.473,7.804 100.601,7.804L100.492,7.804L100.492,10.463Z" style="fill:rgb(158,161,168);fill-rule:nonzero;"/>
        </g>
        <g id="text1424">
            <path id="path1530" d="M23.523,47.789L25.727,47.789C27.451,47.789 28.312,48.859 28.312,51C28.312,51.818 28.201,52.424 27.977,52.82C27.753,53.216 27.357,53.516 26.789,53.719C27.44,53.979 27.885,54.312 28.125,54.719C28.37,55.12 28.492,55.724 28.492,56.531C28.492,58.745 27.544,59.852 25.648,59.852L23.523,59.852L23.523,47.789ZM25.055,53.102C25.685,53.102 26.122,52.956 26.367,52.664C26.612,52.357 26.734,51.818 26.734,51.047C26.734,49.745 26.266,49.094 25.328,49.094L25.203,49.094L25.133,49.094C25.091,49.094 25.065,49.096 25.055,49.102L25.055,53.102ZM25.055,58.461C25.721,58.461 26.182,58.318 26.437,58.031C26.693,57.745 26.82,57.227 26.82,56.477C26.82,55.706 26.687,55.167 26.422,54.859C26.161,54.547 25.706,54.391 25.055,54.391L25.055,58.461Z" style="fill:rgb(158,161,168);fill-rule:nonzero;"/>
            <path id="path1532" d="M29.062,47.789L30.781,47.789L31.578,50.414C31.604,50.492 31.63,50.578 31.656,50.672C31.682,50.766 31.714,50.867 31.75,50.977C32.047,51.924 32.25,52.721 32.359,53.367C32.453,52.721 32.531,52.271 32.594,52.016L32.844,50.938L32.938,50.516L33.609,47.789L35.305,47.789L33.203,54.664L33.203,59.852L31.578,59.852L31.578,54.664L29.062,47.789Z" style="fill:rgb(158,161,168);fill-rule:nonzero;"/>
            <path id="path1534" d="M36.211,47.789L38.352,47.789C39.383,47.789 40.133,48.049 40.602,48.57C41.07,49.096 41.305,49.93 41.305,51.07C41.305,52.674 40.833,53.711 39.891,54.18C39.417,54.393 38.732,54.5 37.836,54.5L37.836,59.852L36.211,59.852L36.211,47.789ZM37.836,53.109C38.508,53.109 38.971,52.974 39.227,52.703C39.487,52.427 39.617,51.937 39.617,51.234C39.617,50.516 39.492,49.99 39.242,49.656C38.992,49.323 38.599,49.156 38.062,49.156L37.836,49.156L37.836,53.109Z" style="fill:rgb(158,161,168);fill-rule:nonzero;"/>
            <path id="path1536" d="M43.898,47.789L45.164,47.789L47.75,59.852L46.141,59.852L45.688,57.5L43.297,57.5L42.836,59.852L41.273,59.852L43.898,47.789ZM45.453,56.242L45.094,54.32C44.854,53.013 44.659,51.617 44.508,50.133C44.435,50.857 44.341,51.591 44.227,52.336C44.112,53.076 43.977,53.862 43.82,54.695L43.523,56.242L45.453,56.242Z" style="fill:rgb(158,161,168);fill-rule:nonzero;"/>
            <path id="path1538" d="M52.734,48.039L52.734,49.625C52.24,49.271 51.794,49.094 51.398,49.094C50.971,49.094 50.622,49.245 50.352,49.547C50.081,49.833 49.945,50.216 49.945,50.695C49.945,51.117 50.042,51.479 50.234,51.781C50.333,51.943 50.495,52.151 50.719,52.406C50.948,52.661 51.242,52.969 51.602,53.328C52.263,54 52.714,54.581 52.953,55.07C53.193,55.544 53.312,56.125 53.312,56.812C53.312,57.745 53.049,58.513 52.523,59.117C51.997,59.706 51.323,60 50.5,60C49.807,60 49.216,59.81 48.727,59.43L48.727,57.82C49.305,58.242 49.831,58.453 50.305,58.453C50.747,58.453 51.094,58.307 51.344,58.016C51.594,57.719 51.719,57.318 51.719,56.812C51.719,56.375 51.622,55.982 51.43,55.633C51.331,55.466 51.193,55.276 51.016,55.062C50.839,54.844 50.617,54.602 50.352,54.336C49.94,53.93 49.599,53.57 49.328,53.258C49.057,52.945 48.857,52.672 48.727,52.437C48.477,51.979 48.352,51.401 48.352,50.703C48.352,49.76 48.596,49.013 49.086,48.461C49.581,47.904 50.245,47.625 51.078,47.625C51.656,47.625 52.208,47.763 52.734,48.039L52.734,48.039Z" style="fill:rgb(158,161,168);fill-rule:nonzero;"/>
            <path id="path1540" d="M58.703,48.039L58.703,49.625C58.208,49.271 57.763,49.094 57.367,49.094C56.94,49.094 56.591,49.245 56.32,49.547C56.049,49.833 55.914,50.216 55.914,50.695C55.914,51.117 56.01,51.479 56.203,51.781C56.302,51.943 56.464,52.151 56.687,52.406C56.917,52.661 57.211,52.969 57.57,53.328C58.232,54 58.682,54.581 58.922,55.07C59.161,55.544 59.281,56.125 59.281,56.812C59.281,57.745 59.018,58.513 58.492,59.117C57.966,59.706 57.292,60 56.469,60C55.776,60 55.185,59.81 54.695,59.43L54.695,57.82C55.273,58.242 55.799,58.453 56.273,58.453C56.716,58.453 57.063,58.307 57.313,58.016C57.563,57.719 57.688,57.318 57.688,56.812C57.688,56.375 57.591,55.982 57.398,55.633C57.3,55.466 57.161,55.276 56.984,55.062C56.807,54.844 56.586,54.602 56.32,54.336C55.909,53.93 55.568,53.57 55.297,53.258C55.026,52.945 54.826,52.672 54.695,52.437C54.445,51.979 54.32,51.401 54.32,50.703C54.32,49.76 54.565,49.013 55.055,48.461C55.549,47.904 56.214,47.625 57.047,47.625C57.625,47.625 58.177,47.763 58.703,48.039Z" style="fill:rgb(158,161,168);fill-rule:nonzero;"/>
            <rect id="path1542" x="60.648" y="47.789" width="1.625" height="12.063" style="fill:rgb(158,161,168);fill-rule:nonzero;"/>
            <path id="path1544" d="M63.852,47.789L69.164,47.789L65.539,58.43L68.969,58.43L68.969,59.852L63.422,59.852L67.078,49.164L63.852,49.164L63.852,47.789Z" style="fill:rgb(158,161,168);fill-rule:nonzero;"/>
            <path id="path1546" d="M70.18,47.789L74.5,47.789L74.5,49.164L71.805,49.164L71.805,52.984L74.195,52.984L74.195,54.359L71.805,54.359L71.805,58.477L74.5,58.477L74.5,59.852L70.18,59.852L70.18,47.789Z" style="fill:rgb(158,161,168);fill-rule:nonzero;"/>
            <path id="path1548" d="M75.992,47.789L78.133,47.789C79.018,47.789 79.677,48 80.109,48.422C80.656,48.969 80.93,49.805 80.93,50.93C80.93,51.794 80.784,52.49 80.492,53.016C80.206,53.536 79.794,53.859 79.258,53.984L81.477,59.852L79.828,59.852L77.617,53.945L77.617,59.852L75.992,59.852L75.992,47.789ZM77.617,53.133C78.247,53.133 78.693,52.987 78.953,52.695C79.214,52.404 79.344,51.911 79.344,51.219C79.344,50.844 79.315,50.523 79.258,50.258C79.206,49.992 79.12,49.776 79,49.609C78.885,49.443 78.734,49.32 78.547,49.242C78.365,49.164 78.146,49.125 77.891,49.125L77.617,49.125L77.617,53.133Z" style="fill:rgb(158,161,168);fill-rule:nonzero;"/>
        </g>
        <g id="text1428" transform="matrix(1,0,0,1,0,-14)">
            <path id="path1507" d="M14.867,107.789L16.437,107.789L17.258,113.391L17.391,114.219C17.453,114.667 17.5,115.076 17.531,115.445L17.617,116.469C17.622,116.495 17.628,116.542 17.633,116.609C17.638,116.677 17.646,116.763 17.656,116.867L17.695,116.477C17.758,115.794 17.823,115.167 17.891,114.594C17.964,114.021 18.042,113.492 18.125,113.008L18.992,107.789L20.242,107.789L21.055,112.859C21.174,113.609 21.273,114.305 21.352,114.945C21.435,115.586 21.503,116.198 21.555,116.781C21.607,116.167 21.664,115.573 21.727,115C21.794,114.427 21.865,113.865 21.937,113.312L22.055,112.508L22.75,107.789L24.305,107.789L22.172,119.852L20.906,119.852L20.055,114.641C20.049,114.62 20.036,114.534 20.016,114.383C19.995,114.232 19.964,114.016 19.922,113.734L19.758,112.531C19.747,112.437 19.729,112.297 19.703,112.109C19.682,111.922 19.659,111.685 19.633,111.398L19.594,110.898C19.583,111.018 19.573,111.122 19.562,111.211C19.552,111.299 19.544,111.372 19.539,111.43C19.513,111.773 19.49,112.042 19.469,112.234C19.453,112.422 19.443,112.536 19.437,112.578L19.273,113.734C19.237,114 19.208,114.208 19.187,114.359C19.167,114.51 19.151,114.604 19.141,114.641L18.258,119.852L16.953,119.852L14.867,107.789Z" style="fill:rgb(158,161,168);fill-rule:nonzero;"/>
            <path id="path1509" d="M31.344,114.117C31.344,116.247 31.107,117.76 30.633,118.656C30.159,119.552 29.365,120 28.25,120C27.078,120 26.253,119.518 25.773,118.555C25.299,117.612 25.062,115.937 25.062,113.531C25.062,111.385 25.297,109.867 25.766,108.977C26.24,108.081 27.042,107.633 28.172,107.633C29.182,107.633 29.932,107.979 30.422,108.672C30.745,109.135 30.979,109.794 31.125,110.648C31.271,111.44 31.344,112.596 31.344,114.117L31.344,114.117ZM29.641,114.289C29.641,112.2 29.547,110.815 29.359,110.133C29.172,109.445 28.789,109.102 28.211,109.102C27.633,109.102 27.247,109.417 27.055,110.047C26.867,110.682 26.773,111.958 26.773,113.875C26.773,115.641 26.872,116.865 27.07,117.547C27.273,118.193 27.654,118.516 28.211,118.516C28.758,118.516 29.133,118.214 29.336,117.609C29.539,117.01 29.641,115.904 29.641,114.289L29.641,114.289Z" style="fill:rgb(158,161,168);fill-rule:nonzero;"/>
            <path id="path1511" d="M32.961,107.789L35.102,107.789C35.987,107.789 36.646,108 37.078,108.422C37.625,108.969 37.898,109.805 37.898,110.93C37.898,111.794 37.753,112.49 37.461,113.016C37.174,113.536 36.763,113.859 36.227,113.984L38.445,119.852L36.797,119.852L34.586,113.945L34.586,119.852L32.961,119.852L32.961,107.789ZM34.586,113.133C35.216,113.133 35.661,112.987 35.922,112.695C36.182,112.404 36.312,111.911 36.312,111.219C36.312,110.844 36.284,110.523 36.227,110.258C36.174,109.992 36.089,109.776 35.969,109.609C35.854,109.443 35.703,109.32 35.516,109.242C35.333,109.164 35.115,109.125 34.859,109.125L34.586,109.125L34.586,113.133Z" style="fill:rgb(158,161,168);fill-rule:nonzero;"/>
            <path id="path1513" d="M40.281,107.789L41.672,107.789L42.734,112.711C42.865,113.326 42.982,113.943 43.086,114.562C43.195,115.177 43.294,115.823 43.383,116.5C43.393,116.411 43.401,116.344 43.406,116.297C43.412,116.245 43.417,116.208 43.422,116.188L43.648,114.805L43.851,113.492L44.031,112.625L44.976,107.789L46.383,107.789L47.492,119.852L45.937,119.852L45.664,115.758C45.654,115.549 45.643,115.37 45.633,115.219C45.627,115.068 45.625,114.943 45.625,114.844L45.554,113.227L45.515,111.742C45.515,111.732 45.513,111.711 45.507,111.68C45.507,111.643 45.505,111.596 45.499,111.539L45.46,111.781C45.419,112.068 45.38,112.318 45.343,112.531C45.312,112.745 45.283,112.924 45.257,113.07L45.054,114.172L44.976,114.586L43.96,119.852L42.867,119.852L41.913,115.305C41.783,114.706 41.666,114.099 41.562,113.484C41.463,112.865 41.372,112.216 41.288,111.539L40.82,119.852L39.289,119.852L40.281,107.789Z" style="fill:rgb(158,161,168);fill-rule:nonzero;"/>
            <path id="path1515" d="M48.836,107.789L50.461,107.789L50.461,112.508L52.844,112.508L52.844,107.789L54.469,107.789L54.469,119.852L52.844,119.852L52.844,113.883L50.461,113.883L50.461,119.852L48.836,119.852L48.836,107.789Z" style="fill:rgb(158,161,168);fill-rule:nonzero;"/>
            <path id="path1517" d="M62.375,114.117C62.375,116.247 62.138,117.76 61.664,118.656C61.19,119.552 60.396,120 59.281,120C58.109,120 57.284,119.518 56.805,118.555C56.331,117.612 56.094,115.937 56.094,113.531C56.094,111.385 56.328,109.867 56.797,108.977C57.271,108.081 58.073,107.633 59.203,107.633C60.214,107.633 60.964,107.979 61.453,108.672C61.776,109.135 62.01,109.794 62.156,110.648C62.302,111.44 62.375,112.596 62.375,114.117L62.375,114.117ZM60.672,114.289C60.672,112.2 60.578,110.815 60.391,110.133C60.203,109.445 59.82,109.102 59.242,109.102C58.664,109.102 58.279,109.417 58.086,110.047C57.898,110.682 57.805,111.958 57.805,113.875C57.805,115.641 57.904,116.865 58.102,117.547C58.305,118.193 58.685,118.516 59.242,118.516C59.789,118.516 60.164,118.214 60.367,117.609C60.57,117.01 60.672,115.904 60.672,114.289L60.672,114.289Z" style="fill:rgb(158,161,168);fill-rule:nonzero;"/>
            <path id="path1519" d="M63.992,107.789L65.617,107.789L65.617,118.477L68.273,118.477L68.273,119.852L63.992,119.852L63.992,107.789Z" style="fill:rgb(158,161,168);fill-rule:nonzero;"/>
            <rect id="path1521" x="69.305" y="107.789" width="1.625" height="12.063" style="fill:rgb(158,161,168);fill-rule:nonzero;"/>
            <path id="path1523" d="M72.508,107.789L77.82,107.789L74.195,118.43L77.625,118.43L77.625,119.852L72.078,119.852L75.734,109.164L72.508,109.164L72.508,107.789Z" style="fill:rgb(158,161,168);fill-rule:nonzero;"/>
            <path id="path1525" d="M78.836,107.789L83.156,107.789L83.156,109.164L80.461,109.164L80.461,112.984L82.852,112.984L82.852,114.359L80.461,114.359L80.461,118.477L83.156,118.477L83.156,119.852L78.836,119.852L78.836,107.789Z" style="fill:rgb(158,161,168);fill-rule:nonzero;"/>
            <path id="path1527" d="M84.648,107.789L86.789,107.789C87.674,107.789 88.333,108 88.766,108.422C89.313,108.969 89.586,109.805 89.586,110.93C89.586,111.794 89.44,112.49 89.148,113.016C88.862,113.536 88.451,113.859 87.914,113.984L90.133,119.852L88.484,119.852L86.273,113.945L86.273,119.852L84.648,119.852L84.648,107.789ZM86.273,113.133C86.904,113.133 87.349,112.987 87.609,112.695C87.87,112.404 88,111.911 88,111.219C88,110.844 87.971,110.523 87.914,110.258C87.862,109.992 87.776,109.776 87.656,109.609C87.542,109.443 87.391,109.32 87.203,109.242C87.021,109.164 86.802,109.125 86.547,109.125L86.273,109.125L86.273,113.133Z" style="fill:rgb(158,161,168);fill-rule:nonzero;"/>
        </g>
        <g id="text1553" transform="matrix(1,0,0,1,-4.46019,-8)">
            <path id="path1555" d="M31.359,168.039L31.359,169.625C30.864,169.271 30.419,169.094 30.023,169.094C29.596,169.094 29.247,169.245 28.976,169.547C28.705,169.833 28.57,170.216 28.57,170.695C28.57,171.117 28.666,171.479 28.859,171.781C28.958,171.943 29.119,172.151 29.343,172.406C29.572,172.661 29.866,172.969 30.226,173.328C30.887,174 31.338,174.581 31.577,175.07C31.817,175.544 31.937,176.125 31.937,176.812C31.937,177.745 31.674,178.513 31.148,179.117C30.622,179.706 29.947,180 29.124,180C28.432,180 27.84,179.81 27.351,179.43L27.351,177.82C27.929,178.242 28.455,178.453 28.929,178.453C29.372,178.453 29.718,178.307 29.968,178.016C30.218,177.719 30.343,177.318 30.343,176.812C30.343,176.375 30.247,175.982 30.054,175.633C29.955,175.466 29.817,175.276 29.64,175.062C29.463,174.844 29.241,174.602 28.976,174.336C28.564,173.93 28.223,173.57 27.952,173.258C27.682,172.945 27.481,172.672 27.351,172.437C27.101,171.979 26.976,171.401 26.976,170.703C26.976,169.76 27.221,169.013 27.71,168.461C28.205,167.904 28.869,167.625 29.702,167.625C30.281,167.625 30.833,167.763 31.359,168.039Z" style="fill:rgb(158,161,168);fill-rule:nonzero;"/>
            <path id="path1557" d="M33.304,167.789L35.445,167.789C36.476,167.789 37.226,168.049 37.695,168.57C38.163,169.096 38.398,169.93 38.398,171.07C38.398,172.674 37.926,173.711 36.984,174.18C36.51,174.393 35.825,174.5 34.929,174.5L34.929,179.852L33.304,179.852L33.304,167.789ZM34.929,173.109C35.601,173.109 36.064,172.974 36.32,172.703C36.58,172.427 36.71,171.937 36.71,171.234C36.71,170.516 36.585,169.99 36.335,169.656C36.085,169.323 35.692,169.156 35.156,169.156L34.929,169.156L34.929,173.109Z" style="fill:rgb(158,161,168);fill-rule:nonzero;"/>
            <path id="path1559" d="M40.991,167.789L42.257,167.789L44.843,179.852L43.234,179.852L42.781,177.5L40.39,177.5L39.929,179.852L38.366,179.852L40.991,167.789ZM42.546,176.242L42.187,174.32C41.947,173.013 41.752,171.617 41.601,170.133C41.528,170.857 41.434,171.591 41.32,172.336C41.205,173.076 41.07,173.862 40.913,174.695L40.616,176.242L42.546,176.242Z" style="fill:rgb(158,161,168);fill-rule:nonzero;"/>
            <path id="path1561" d="M44.593,167.789L49.882,167.789L49.882,169.211L48.062,169.211L48.062,179.852L46.468,179.852L46.468,169.211L44.593,169.211L44.593,167.789Z" style="fill:rgb(158,161,168);fill-rule:nonzero;"/>
            <rect id="path1563" x="50.773" y="167.789" width="1.625" height="12.063" style="fill:rgb(158,161,168);fill-rule:nonzero;"/>
            <path id="path1565" d="M55.991,167.789L57.257,167.789L59.843,179.852L58.234,179.852L57.781,177.5L55.39,177.5L54.929,179.852L53.366,179.852L55.991,167.789ZM57.546,176.242L57.187,174.32C56.947,173.013 56.752,171.617 56.601,170.133C56.528,170.857 56.434,171.591 56.32,172.336C56.205,173.076 56.07,173.862 55.913,174.695L55.616,176.242L57.546,176.242Z" style="fill:rgb(158,161,168);fill-rule:nonzero;"/>
            <path id="path1567" d="M60.804,167.789L62.429,167.789L62.429,178.477L65.085,178.477L65.085,179.852L60.804,179.852L60.804,167.789Z" style="fill:rgb(158,161,168);fill-rule:nonzero;"/>
            <rect id="path1569" x="66.116" y="167.789" width="1.625" height="12.063" style="fill:rgb(158,161,168);fill-rule:nonzero;"/>
            <path id="path1571" d="M69.32,167.789L74.632,167.789L71.007,178.43L74.437,178.43L74.437,179.852L68.89,179.852L72.546,169.164L69.32,169.164L69.32,167.789Z" style="fill:rgb(158,161,168);fill-rule:nonzero;"/>
            <path id="path1573" d="M75.648,167.789L79.968,167.789L79.968,169.164L77.273,169.164L77.273,172.984L79.663,172.984L79.663,174.359L77.273,174.359L77.273,178.477L79.968,178.477L79.968,179.852L75.648,179.852L75.648,167.789Z" style="fill:rgb(158,161,168);fill-rule:nonzero;"/>
            <path id="path1575" d="M81.46,167.789L83.601,167.789C84.486,167.789 85.145,168 85.577,168.422C86.124,168.969 86.398,169.805 86.398,170.93C86.398,171.794 86.252,172.49 85.96,173.016C85.674,173.536 85.262,173.859 84.726,173.984L86.945,179.852L85.296,179.852L83.085,173.945L83.085,179.852L81.46,179.852L81.46,167.789ZM83.085,173.133C83.715,173.133 84.161,172.987 84.421,172.695C84.682,172.404 84.812,171.911 84.812,171.219C84.812,170.844 84.783,170.523 84.726,170.258C84.674,169.992 84.588,169.776 84.468,169.609C84.353,169.443 84.202,169.32 84.015,169.242C83.833,169.164 83.614,169.125 83.359,169.125L83.085,169.125L83.085,173.133Z" style="fill:rgb(158,161,168);fill-rule:nonzero;"/>
        </g>
        <g id="text1436" transform="matrix(1,0,0,1,0,-2)">
            <path id="path1463" d="M21.383,227.789L26.672,227.789L26.672,229.211L24.852,229.211L24.852,239.852L23.258,239.852L23.258,229.211L21.383,229.211L21.383,227.789Z" style="fill:rgb(158,161,168);fill-rule:nonzero;"/>
            <path id="path1465" d="M27.563,227.789L29.156,227.789L29.156,236.312C29.156,237.182 29.234,237.76 29.391,238.047C29.552,238.333 29.87,238.477 30.344,238.477C30.818,238.477 31.13,238.352 31.281,238.102C31.438,237.846 31.516,237.328 31.516,236.547L31.516,227.789L33.109,227.789L33.109,236.547C33.109,237.859 32.909,238.747 32.508,239.211C32.029,239.737 31.297,240 30.313,240C29.229,240 28.466,239.661 28.023,238.984C27.716,238.521 27.563,237.63 27.563,236.312L27.563,227.789Z" style="fill:rgb(158,161,168);fill-rule:nonzero;"/>
            <path id="path1467" d="M34.969,227.789L36.484,227.789L38.102,232.602C38.57,233.961 38.984,235.411 39.344,236.953C39.214,236.021 39.117,235.177 39.055,234.422C38.992,233.667 38.961,232.956 38.961,232.289L38.961,227.789L40.594,227.789L40.594,239.852L39.07,239.852L37.25,234.422C37.083,233.917 36.924,233.398 36.773,232.867C36.628,232.336 36.492,231.779 36.367,231.195C36.357,231.122 36.339,231.034 36.313,230.93C36.292,230.826 36.266,230.706 36.234,230.57C36.25,230.706 36.263,230.823 36.273,230.922C36.284,231.016 36.292,231.096 36.297,231.164L36.383,232.391L36.469,233.883C36.474,233.966 36.477,234.068 36.477,234.188C36.482,234.307 36.484,234.443 36.484,234.594L36.57,239.852L34.969,239.852L34.969,227.789Z" style="fill:rgb(158,161,168);fill-rule:nonzero;"/>
            <path id="path1469" d="M42.469,227.789L43.984,227.789L45.602,232.602C46.07,233.961 46.484,235.411 46.844,236.953C46.714,236.021 46.617,235.177 46.555,234.422C46.492,233.667 46.461,232.956 46.461,232.289L46.461,227.789L48.094,227.789L48.094,239.852L46.57,239.852L44.75,234.422C44.583,233.917 44.424,233.398 44.273,232.867C44.128,232.336 43.992,231.779 43.867,231.195C43.857,231.122 43.839,231.034 43.812,230.93C43.792,230.826 43.766,230.706 43.734,230.57C43.75,230.706 43.763,230.823 43.773,230.922C43.784,231.016 43.792,231.096 43.797,231.164L43.883,232.391L43.969,233.883C43.974,233.966 43.977,234.068 43.977,234.188C43.982,234.307 43.985,234.443 43.985,234.594L44.071,239.852L42.469,239.852L42.469,227.789Z" style="fill:rgb(158,161,168);fill-rule:nonzero;"/>
            <path id="path1471" d="M49.969,227.789L54.289,227.789L54.289,229.164L51.594,229.164L51.594,232.984L53.984,232.984L53.984,234.359L51.594,234.359L51.594,238.477L54.289,238.477L54.289,239.852L49.969,239.852L49.969,227.789Z" style="fill:rgb(158,161,168);fill-rule:nonzero;"/>
            <path id="path1473" d="M55.781,227.789L57.406,227.789L57.406,238.477L60.063,238.477L60.063,239.852L55.781,239.852L55.781,227.789Z" style="fill:rgb(158,161,168);fill-rule:nonzero;"/>
            <rect id="path1475" x="61.094" y="227.789" width="1.625" height="12.063" style="fill:rgb(158,161,168);fill-rule:nonzero;"/>
            <path id="path1477" d="M64.297,227.789L69.609,227.789L65.984,238.43L69.414,238.43L69.414,239.852L63.867,239.852L67.523,229.164L64.297,229.164L64.297,227.789Z" style="fill:rgb(158,161,168);fill-rule:nonzero;"/>
            <path id="path1479" d="M70.625,227.789L74.945,227.789L74.945,229.164L72.25,229.164L72.25,232.984L74.641,232.984L74.641,234.359L72.25,234.359L72.25,238.477L74.945,238.477L74.945,239.852L70.625,239.852L70.625,227.789Z" style="fill:rgb(158,161,168);fill-rule:nonzero;"/>
            <path id="path1481" d="M76.438,227.789L78.578,227.789C79.464,227.789 80.122,228 80.555,228.422C81.102,228.969 81.375,229.805 81.375,230.93C81.375,231.794 81.229,232.49 80.938,233.016C80.651,233.536 80.24,233.859 79.703,233.984L81.922,239.852L80.273,239.852L78.063,233.945L78.063,239.852L76.438,239.852L76.438,227.789ZM78.063,233.133C78.693,233.133 79.138,232.987 79.398,232.695C79.659,232.404 79.789,231.911 79.789,231.219C79.789,230.844 79.76,230.523 79.703,230.258C79.651,229.992 79.565,229.776 79.445,229.609C79.331,229.443 79.18,229.32 78.992,229.242C78.81,229.164 78.591,229.125 78.336,229.125L78.062,229.125L78.063,233.133Z" style="fill:rgb(158,161,168);fill-rule:nonzero;"/>
        </g>
        <g id="text1440" transform="matrix(1,0,0,1,0,4.14844)">
            <path id="path1442" d="M21.68,287.789L23.68,287.789C24.289,287.789 24.802,287.857 25.219,287.992C25.604,288.122 25.948,288.354 26.25,288.687C26.703,289.187 27.026,289.839 27.219,290.641C27.411,291.417 27.508,292.529 27.508,293.977C27.508,295.305 27.401,296.388 27.188,297.227C26.979,298.029 26.635,298.641 26.156,299.062C25.568,299.589 24.513,299.852 22.992,299.852L21.68,299.852L21.68,287.789ZM23.305,298.43C24.294,298.43 24.956,298.13 25.289,297.531C25.633,296.932 25.805,295.768 25.805,294.039C25.805,292.18 25.641,290.901 25.312,290.203C24.984,289.505 24.383,289.156 23.508,289.156L23.305,289.156L23.305,298.43Z" style="fill:rgb(158,161,168);fill-rule:nonzero;"/>
            <path id="path1444" d="M29.117,287.789L31.258,287.789C32.143,287.789 32.802,288 33.234,288.422C33.781,288.969 34.055,289.805 34.055,290.93C34.055,291.794 33.909,292.49 33.617,293.016C33.331,293.536 32.919,293.859 32.383,293.984L34.602,299.852L32.953,299.852L30.742,293.945L30.742,299.852L29.117,299.852L29.117,287.789ZM30.742,293.133C31.372,293.133 31.818,292.987 32.078,292.695C32.339,292.404 32.469,291.911 32.469,291.219C32.469,290.844 32.44,290.523 32.383,290.258C32.331,289.992 32.245,289.776 32.125,289.609C32.01,289.443 31.859,289.32 31.672,289.242C31.49,289.164 31.271,289.125 31.016,289.125L30.742,289.125L30.742,293.133Z" style="fill:rgb(158,161,168);fill-rule:nonzero;"/>
            <path id="path1446" d="M34.812,287.789L36.531,287.789L37.328,290.414C37.354,290.492 37.38,290.578 37.406,290.672C37.432,290.766 37.464,290.867 37.5,290.977C37.797,291.924 38,292.721 38.109,293.367C38.203,292.721 38.281,292.271 38.344,292.016L38.594,290.937L38.687,290.516L39.359,287.789L41.055,287.789L38.953,294.664L38.953,299.852L37.328,299.852L37.328,294.664L34.812,287.789Z" style="fill:rgb(158,161,168);fill-rule:nonzero;"/>
            <path id="path1448" d="M41.055,287.789L42.625,287.789L43.445,293.391L43.578,294.219C43.641,294.667 43.687,295.076 43.719,295.445L43.805,296.469C43.81,296.495 43.815,296.542 43.82,296.609C43.825,296.677 43.833,296.763 43.844,296.867L43.883,296.477C43.945,295.794 44.01,295.167 44.078,294.594C44.151,294.021 44.229,293.492 44.312,293.008L45.18,287.789L46.43,287.789L47.242,292.859C47.362,293.609 47.461,294.305 47.539,294.945C47.622,295.586 47.69,296.198 47.742,296.781C47.794,296.167 47.851,295.573 47.914,295C47.982,294.427 48.052,293.865 48.125,293.312L48.242,292.508L48.937,287.789L50.492,287.789L48.359,299.852L47.094,299.852L46.242,294.641C46.237,294.62 46.224,294.534 46.203,294.383C46.182,294.232 46.151,294.016 46.109,293.734L45.945,292.531C45.935,292.437 45.917,292.297 45.891,292.109C45.87,291.922 45.846,291.685 45.82,291.398L45.781,290.898C45.771,291.018 45.76,291.122 45.75,291.211C45.739,291.299 45.732,291.372 45.726,291.43C45.7,291.773 45.677,292.042 45.656,292.234C45.64,292.422 45.63,292.536 45.625,292.578L45.461,293.734C45.424,294 45.396,294.208 45.375,294.359C45.354,294.51 45.338,294.604 45.328,294.641L44.445,299.852L43.141,299.852L41.055,287.789Z" style="fill:rgb(158,161,168);fill-rule:nonzero;"/>
            <path id="path1450" d="M51.461,287.789L55.781,287.789L55.781,289.164L53.086,289.164L53.086,292.984L55.477,292.984L55.477,294.359L53.086,294.359L53.086,298.477L55.781,298.477L55.781,299.852L51.461,299.852L51.461,287.789Z" style="fill:rgb(158,161,168);fill-rule:nonzero;"/>
            <path id="path1452" d="M56.313,287.789L61.602,287.789L61.602,289.211L59.781,289.211L59.781,299.852L58.188,299.852L58.188,289.211L56.313,289.211L56.313,287.789Z" style="fill:rgb(158,161,168);fill-rule:nonzero;"/>
            <rect id="path1454" x="62.492" y="287.789" width="1.625" height="12.063" style="fill:rgb(158,161,168);fill-rule:nonzero;"/>
            <path id="path1456" d="M65.695,287.789L71.008,287.789L67.383,298.43L70.813,298.43L70.813,299.852L65.266,299.852L68.922,289.164L65.695,289.164L65.695,287.789Z" style="fill:rgb(158,161,168);fill-rule:nonzero;"/>
            <path id="path1458" d="M72.023,287.789L76.344,287.789L76.344,289.164L73.648,289.164L73.648,292.984L76.039,292.984L76.039,294.359L73.648,294.359L73.648,298.477L76.344,298.477L76.344,299.852L72.023,299.852L72.023,287.789Z" style="fill:rgb(158,161,168);fill-rule:nonzero;"/>
            <path id="path1460" d="M77.836,287.789L79.977,287.789C80.862,287.789 81.521,288 81.953,288.422C82.5,288.969 82.773,289.805 82.773,290.93C82.773,291.794 82.628,292.49 82.336,293.016C82.049,293.536 81.638,293.859 81.102,293.984L83.32,299.852L81.672,299.852L79.461,293.945L79.461,299.852L77.836,299.852L77.836,287.789ZM79.461,293.133C80.091,293.133 80.536,292.987 80.797,292.695C81.057,292.404 81.188,291.911 81.188,291.219C81.188,290.844 81.159,290.523 81.102,290.258C81.049,289.992 80.964,289.776 80.844,289.609C80.729,289.443 80.578,289.32 80.391,289.242C80.208,289.164 79.99,289.125 79.734,289.125L79.461,289.125L79.461,293.133Z" style="fill:rgb(158,161,168);fill-rule:nonzero;"/>
        </g>
    </g>
</svg>
