<?xml version="1.0" encoding="UTF-8" standalone="no"?>
<!DOCTYPE svg PUBLIC "-//W3C//DTD SVG 1.1//EN" "http://www.w3.org/Graphics/SVG/1.1/DTD/svg11.dtd">
<svg width="100%" height="100%" viewBox="0 0 20 20" version="1.1" xmlns="http://www.w3.org/2000/svg" xmlns:xlink="http://www.w3.org/1999/xlink" xml:space="preserve" xmlns:serif="http://www.serif.com/" style="fill-rule:evenodd;clip-rule:evenodd;">
    <g id="g15" transform="matrix(1,0,0,1,0,-9.53674e-06)">
        <g id="path5209" transform="matrix(0.886838,0,0,0.886838,-396.152,-270.211)">
            <path d="M452.478,315.961C452.49,319.014 454.93,321.452 457.984,321.466C461.023,321.456 463.482,319.003 463.478,315.961C463.477,312.923 461.018,310.474 457.984,310.466C454.935,310.479 452.5,312.911 452.478,315.961" style="fill:rgb(80,80,80);fill-rule:nonzero;"/>
        </g>
        <g id="path4647" transform="matrix(0.352224,0,0,-0.352224,-373.871,2474.18)">
            <path d="M1089.85,6977.01C1079.34,6977.01 1070.79,6985.56 1070.79,6996.06C1070.79,7006.57 1079.34,7015.12 1089.85,7015.12C1100.36,7015.12 1108.91,7006.57 1108.91,6996.06C1108.91,6985.56 1100.36,6977.01 1089.85,6977.01" style="fill:rgb(231,231,231);fill-rule:nonzero;stroke:rgb(144,146,144);stroke-width:2.24px;"/>
        </g>
        <g id="path5197" transform="matrix(1.07555,0,0,1.08375,-480.461,-334.633)">
            <path d="M456.009,326.648C451.204,326.619 447.295,322.737 447.296,317.994C447.298,313.249 451.206,309.373 456.009,309.353C460.797,309.376 464.706,313.252 464.725,317.994C464.714,322.739 460.805,326.621 456.011,326.648L456.009,326.648Z" style="fill:rgb(247,108,39);fill-rule:nonzero;stroke:rgb(229,95,81);stroke-width:0.63px;stroke-miterlimit:8.5;"/>
        </g>
        <g transform="matrix(0.122895,0,0,0.122895,-177.839,-32.3783)">
            <ellipse cx="1528.45" cy="344.834" rx="44.828" ry="45.106" style="fill:rgb(33,34,33);stroke:rgb(229,95,81);stroke-width:8.14px;stroke-linecap:round;stroke-linejoin:round;stroke-miterlimit:1.5;"/>
        </g>
        <g transform="matrix(0.583593,-0.962985,0.962985,0.583593,-4.42416,13.7948)">
            <path d="M12.208,7.894C12.208,7.168 11.619,6.579 10.894,6.579L8.149,6.579C7.423,6.579 6.834,7.168 6.834,7.894L6.834,10.523C6.834,11.249 7.423,11.838 8.149,11.838L10.894,11.838C11.619,11.838 12.208,11.249 12.208,10.523L12.208,7.894Z" style="fill:rgb(33,34,33);stroke:rgb(60,60,60);stroke-width:0.2px;stroke-linecap:round;stroke-linejoin:round;stroke-miterlimit:1.5;"/>
        </g>
    </g>
</svg>
