<?xml version="1.0" encoding="UTF-8" standalone="no"?>
<!DOCTYPE svg PUBLIC "-//W3C//DTD SVG 1.1//EN" "http://www.w3.org/Graphics/SVG/1.1/DTD/svg11.dtd">
<svg width="100%" height="100%" viewBox="0 0 18 18" version="1.1" xmlns="http://www.w3.org/2000/svg" xmlns:xlink="http://www.w3.org/1999/xlink" xml:space="preserve" xmlns:serif="http://www.serif.com/" style="fill-rule:evenodd;clip-rule:evenodd;stroke-linecap:round;stroke-linejoin:round;stroke-miterlimit:1.5;">
    <g id="g816" transform="matrix(0.818182,0,0,0.818182,-365.71,-249.518)">
        <g id="path7255_37_" transform="matrix(1.0672,0,0,1.0672,447.307,305.294)">
            <path d="M10,20C4.485,20 0,15.515 0,10C0,4.485 4.485,0 10,0C15.515,0 20,4.485 20,10C20,15.515 15.515,20 10,20" style="fill:rgb(216,30,44);fill-rule:nonzero;"/>
        </g>
        <g id="path7261_37_" transform="matrix(1.0672,0,0,1.0672,447.307,305.294)">
            <path d="M10,15C7.243,15 5,12.757 5,10C5,7.243 7.243,5 10,5C12.757,5 15,7.243 15,10C15,12.757 12.757,15 10,15" style="fill:rgb(150,150,150);fill-rule:nonzero;"/>
        </g>
        <g id="path7265_37_" transform="matrix(1.0672,0,0,1.0672,447.307,305.294)">
            <path d="M13.5,10C13.5,11.932 11.932,13.5 10,13.5C8.068,13.5 6.5,11.932 6.5,10C6.5,8.068 8.068,6.5 10,6.5C11.932,6.5 13.5,8.068 13.5,10" style="fill-rule:nonzero;"/>
        </g>
        <g id="g13" transform="matrix(1.0672,0,0,1.0672,447.307,305.294)">
            <path id="path5" d="M10,5C12.761,5 15,7.239 15,10C15,12.761 12.761,15 10,15C7.239,15 5,12.761 5,10C5,7.239 7.239,5 10,5M10,4.25C6.829,4.25 4.25,6.829 4.25,10C4.25,13.171 6.829,15.75 10,15.75C13.171,15.75 15.75,13.171 15.75,10C15.75,6.829 13.171,4.25 10,4.25Z" style="fill:rgb(181,15,48);fill-rule:nonzero;"/>
            <path id="path9" d="M10,0.75C15.101,0.75 19.25,4.9 19.25,10C19.25,15.1 15.101,19.25 10,19.25C4.899,19.25 0.75,15.1 0.75,10C0.75,4.9 4.899,0.75 10,0.75M10,0C4.477,0 0,4.477 0,10C0,15.523 4.477,20 10,20C15.523,20 20,15.523 20,10C20,4.477 15.523,0 10,0Z" style="fill:rgb(181,15,48);fill-rule:nonzero;"/>
        </g>
        <g transform="matrix(0.809184,-0.250219,0.250219,0.809184,447.911,310.83)">
            <path d="M12.208,7.894C12.208,7.168 11.619,6.579 10.894,6.579L8.149,6.579C7.423,6.579 6.834,7.168 6.834,7.894L6.834,10.523C6.834,11.249 7.423,11.838 8.149,11.838L10.894,11.838C11.619,11.838 12.208,11.249 12.208,10.523L12.208,7.894Z" style="fill:rgb(13,13,13);stroke:rgb(60,60,60);stroke-width:0.22px;"/>
        </g>
    </g>
</svg>
