<?xml version="1.0" encoding="UTF-8" standalone="no"?>
<!DOCTYPE svg PUBLIC "-//W3C//DTD SVG 1.1//EN" "http://www.w3.org/Graphics/SVG/1.1/DTD/svg11.dtd">
<svg width="100%" height="100%" viewBox="0 0 18 18" version="1.1" xmlns="http://www.w3.org/2000/svg" xmlns:xlink="http://www.w3.org/1999/xlink" xml:space="preserve" xmlns:serif="http://www.serif.com/" style="fill-rule:evenodd;clip-rule:evenodd;stroke-miterlimit:8.5;">
    <g id="g816" transform="matrix(0.818182,0,0,0.818182,-365.71,-249.518)">
        <g id="path5209" transform="matrix(0.962606,0,0,0.962606,17.1266,11.8157)">
            <path d="M452.478,315.961C452.49,319.014 454.93,321.452 457.984,321.466C461.023,321.456 463.482,319.003 463.478,315.961C463.477,312.923 461.018,310.474 457.984,310.466C454.935,310.479 452.5,312.911 452.478,315.961" style="fill:rgb(80,80,80);fill-rule:nonzero;"/>
        </g>
        <g id="path5197" transform="matrix(1.16744,0,0,1.17634,-74.3854,-58.1112)">
            <path d="M456.009,326.648C451.204,326.619 447.295,322.737 447.296,317.994C447.298,313.249 451.206,309.373 456.009,309.353C460.797,309.376 464.706,313.252 464.725,317.994C464.714,322.739 460.805,326.621 456.011,326.648L456.009,326.648Z" style="fill:rgb(249,248,247);fill-rule:nonzero;stroke:rgb(158,161,168);stroke-width:0.63px;"/>
        </g>
        <g transform="matrix(0.133395,0,0,0.133395,254.092,269.967)">
            <ellipse cx="1528.45" cy="344.834" rx="44.828" ry="45.106" style="fill:rgb(33,34,33);stroke:rgb(158,161,168);stroke-width:9.16px;stroke-linecap:round;stroke-linejoin:round;stroke-miterlimit:1.5;"/>
        </g>
        <g transform="matrix(-0.346506,1.17208,-1.17208,-0.346506,472.071,307.998)">
            <path d="M12.208,7.894C12.208,7.168 11.619,6.579 10.894,6.579L8.149,6.579C7.423,6.579 6.834,7.168 6.834,7.894L6.834,10.523C6.834,11.249 7.423,11.838 8.149,11.838L10.894,11.838C11.619,11.838 12.208,11.249 12.208,10.523L12.208,7.894Z" style="fill:rgb(33,34,33);stroke:rgb(60,60,60);stroke-width:0.22px;stroke-linecap:round;stroke-linejoin:round;stroke-miterlimit:1.5;"/>
        </g>
        <g id="path7255_37_" transform="matrix(1.0672,0,0,1.0672,447.307,305.294)">
            <path d="M10,20C4.485,20 0,15.515 0,10C0,4.485 4.485,0 10,0C15.515,0 20,4.485 20,10C20,15.515 15.515,20 10,20" style="fill:rgb(249,248,247);fill-rule:nonzero;"/>
        </g>
        <g id="path7261_37_" transform="matrix(1.0672,0,0,1.0672,447.307,305.294)">
            <path d="M10,15C7.243,15 5,12.757 5,10C5,7.243 7.243,5 10,5C12.757,5 15,7.243 15,10C15,12.757 12.757,15 10,15" style="fill:rgb(229,229,229);fill-rule:nonzero;"/>
        </g>
        <g id="path7265_37_" transform="matrix(1.0672,0,0,1.0672,447.307,305.294)">
            <path d="M13.5,10C13.5,11.932 11.932,13.5 10,13.5C8.068,13.5 6.5,11.932 6.5,10C6.5,8.068 8.068,6.5 10,6.5C11.932,6.5 13.5,8.068 13.5,10" style="fill-rule:nonzero;"/>
        </g>
        <g id="g13" transform="matrix(1.0672,0,0,1.0672,447.307,305.294)">
            <path id="path5" d="M10,5C12.761,5 15,7.239 15,10C15,12.761 12.761,15 10,15C7.239,15 5,12.761 5,10C5,7.239 7.239,5 10,5M10,4.25C6.829,4.25 4.25,6.829 4.25,10C4.25,13.171 6.829,15.75 10,15.75C13.171,15.75 15.75,13.171 15.75,10C15.75,6.829 13.171,4.25 10,4.25Z" style="fill:rgb(158,161,168);fill-rule:nonzero;"/>
            <path id="path9" d="M10,0.75C15.101,0.75 19.25,4.9 19.25,10C19.25,15.1 15.101,19.25 10,19.25C4.899,19.25 0.75,15.1 0.75,10C0.75,4.9 4.899,0.75 10,0.75M10,0C4.477,0 0,4.477 0,10C0,15.523 4.477,20 10,20C15.523,20 20,15.523 20,10C20,4.477 15.523,0 10,0Z" style="fill:rgb(158,161,168);fill-rule:nonzero;"/>
        </g>
        <g transform="matrix(0.809184,-0.250219,0.250219,0.809184,447.911,310.83)">
            <path d="M12.208,7.894C12.208,7.168 11.619,6.579 10.894,6.579L8.149,6.579C7.423,6.579 6.834,7.168 6.834,7.894L6.834,10.523C6.834,11.249 7.423,11.838 8.149,11.838L10.894,11.838C11.619,11.838 12.208,11.249 12.208,10.523L12.208,7.894Z" style="fill:rgb(13,13,13);stroke:rgb(60,60,60);stroke-width:0.22px;stroke-linecap:round;stroke-linejoin:round;stroke-miterlimit:1.5;"/>
        </g>
    </g>
</svg>
