<?xml version="1.0" encoding="UTF-8" standalone="no"?>
<!DOCTYPE svg PUBLIC "-//W3C//DTD SVG 1.1//EN" "http://www.w3.org/Graphics/SVG/1.1/DTD/svg11.dtd">
<svg width="100%" height="100%" viewBox="0 0 15 15" version="1.1" xmlns="http://www.w3.org/2000/svg" xmlns:xlink="http://www.w3.org/1999/xlink" xml:space="preserve" xmlns:serif="http://www.serif.com/" style="fill-rule:evenodd;clip-rule:evenodd;">
    <g id="g3088" transform="matrix(0.271914,0,0,-0.271914,-288.832,1909.84)">
        <path id="path4639" d="M1089.85,6969.6C1075.26,6969.6 1063.39,6981.47 1063.39,6996.06C1063.39,7010.65 1075.26,7022.53 1089.85,7022.53C1104.44,7022.53 1116.31,7010.65 1116.31,6996.06C1116.31,6981.47 1104.44,6969.6 1089.85,6969.6" style="fill:rgb(81,170,224);fill-rule:nonzero;stroke:rgb(144,146,144);stroke-width:2.24px;"/>
        <path id="path4647" d="M1089.85,6977.01C1079.34,6977.01 1070.79,6985.56 1070.79,6996.06C1070.79,7006.57 1079.34,7015.12 1089.85,7015.12C1100.36,7015.12 1108.91,7006.57 1108.91,6996.06C1108.91,6985.56 1100.36,6977.01 1089.85,6977.01" style="fill:rgb(231,231,231);fill-rule:nonzero;stroke:rgb(144,146,144);stroke-width:2.24px;"/>
        <path id="path4655" d="M1101.6,6996.06C1101.6,6989.57 1096.34,6984.31 1089.85,6984.31C1083.36,6984.31 1078.1,6989.57 1078.1,6996.06C1078.1,7002.55 1083.36,7007.82 1089.85,7007.82C1096.34,7007.82 1101.6,7002.55 1101.6,6996.06" style="fill-rule:nonzero;stroke:rgb(144,146,144);stroke-width:2.24px;"/>
    </g>
</svg>
