<?xml version="1.0" encoding="UTF-8" standalone="no"?>
<!DOCTYPE svg PUBLIC "-//W3C//DTD SVG 1.1//EN" "http://www.w3.org/Graphics/SVG/1.1/DTD/svg11.dtd">
<svg width="100%" height="100%" viewBox="0 0 15 15" version="1.1" xmlns="http://www.w3.org/2000/svg" xmlns:xlink="http://www.w3.org/1999/xlink" xml:space="preserve" xmlns:serif="http://www.serif.com/" style="fill-rule:evenodd;clip-rule:evenodd;stroke-miterlimit:8.5;">
    <g id="Layer-1" serif:id="Layer 1" transform="matrix(1,0,0,1,-440.438,-316.369)">
        <path id="path5197" d="M447.946,331.113C443.956,331.088 440.71,327.84 440.711,323.872C440.713,319.902 443.958,316.659 447.946,316.642C451.92,316.662 455.166,319.905 455.182,323.872C455.171,327.842 451.927,331.091 447.947,331.113L447.946,331.113Z" style="fill:rgb(81,170,224);fill-rule:nonzero;stroke:rgb(147,149,147);stroke-width:0.53px;"/>
        <path id="path5205" d="M442.571,323.872C442.586,326.854 444.965,329.235 447.946,329.248C450.913,329.24 453.315,326.842 453.311,323.872C453.309,320.908 450.909,318.516 447.946,318.508C444.969,318.52 442.592,320.894 442.571,323.872" style="fill:rgb(85,85,85);fill-rule:nonzero;"/>
        <path id="path5219" d="M443.758,323.873C443.77,326.197 445.622,328.05 447.945,328.06C450.256,328.053 452.126,326.187 452.124,323.873C452.122,321.564 450.252,319.701 447.945,319.695C445.626,319.705 443.774,321.554 443.758,323.873Z" style="fill:rgb(85,85,85);fill-rule:nonzero;stroke:rgb(59,59,59);stroke-width:0.53px;"/>
        <path id="path5209" d="M445.077,323.875C445.084,325.465 446.353,326.735 447.944,326.742C449.526,326.737 450.807,325.459 450.805,323.875C450.804,322.293 449.524,321.018 447.944,321.014C446.356,321.021 445.088,322.287 445.077,323.875" style="fill-rule:nonzero;"/>
    </g>
</svg>
