<?xml version="1.0" encoding="UTF-8" standalone="no"?>
<!DOCTYPE svg PUBLIC "-//W3C//DTD SVG 1.1//EN" "http://www.w3.org/Graphics/SVG/1.1/DTD/svg11.dtd">
<svg width="100%" height="100%" viewBox="0 0 20 20" version="1.1" xmlns="http://www.w3.org/2000/svg" xmlns:xlink="http://www.w3.org/1999/xlink" xml:space="preserve" xmlns:serif="http://www.serif.com/" style="fill-rule:evenodd;clip-rule:evenodd;stroke-linejoin:round;stroke-miterlimit:2;">
    <g id="g12430" transform="matrix(0.272706,0,0,-0.272706,-283.205,1232.49)">
        <g id="path5961-3" transform="matrix(0.714286,0,0,0.714391,1111.84,4482.79)">
            <path d="M0,0C0,-28.346 -22.991,-51.326 -51.341,-51.326C-79.688,-51.326 -102.675,-28.346 -102.675,0C-102.675,28.358 -79.688,51.334 -51.341,51.334C-22.991,51.334 0,28.358 0,0" style="fill:rgb(33,34,33);fill-rule:nonzero;"/>
        </g>
        <g id="circle12436" transform="matrix(1,0,0,-1,0,0)">
            <ellipse cx="1075.17" cy="-4484.7" rx="30.444" ry="30.449" style="fill:rgb(103,105,103);"/>
        </g>
        <g id="path12411" transform="matrix(1,0,0,-1,0,0)">
            <ellipse cx="1075.17" cy="-4482.8" rx="30.444" ry="30.449" style="fill:rgb(229,95,81);"/>
        </g>
        <g id="text1374" transform="matrix(1.01128,0,0,-0.988845,0,0)">
            <path id="path1398" d="M1037.79,-4544.2L1041.64,-4544.2C1043.49,-4544.2 1044.84,-4543.73 1045.68,-4542.79C1046.53,-4541.85 1046.95,-4540.35 1046.95,-4538.3C1046.95,-4535.41 1046.1,-4533.55 1044.41,-4532.71C1043.56,-4532.32 1042.32,-4532.13 1040.71,-4532.13L1040.71,-4522.51L1037.79,-4522.51L1037.79,-4544.2ZM1040.71,-4534.63C1041.92,-4534.63 1042.75,-4534.88 1043.21,-4535.36C1043.68,-4535.86 1043.91,-4536.74 1043.91,-4538C1043.91,-4539.29 1043.69,-4540.24 1043.24,-4540.84C1042.79,-4541.44 1042.09,-4541.74 1041.12,-4541.74L1040.71,-4541.74L1040.71,-4534.63Z" style="fill:white;fill-rule:nonzero;"/>
            <path id="path1400" d="M1051.61,-4544.2L1053.89,-4544.2L1058.54,-4522.51L1055.64,-4522.51L1054.83,-4526.74L1050.53,-4526.74L1049.7,-4522.51L1046.89,-4522.51L1051.61,-4544.2ZM1054.41,-4529L1053.76,-4532.45C1053.33,-4534.8 1052.98,-4537.31 1052.71,-4539.98C1052.58,-4538.68 1052.41,-4537.36 1052.2,-4536.02C1052,-4534.69 1051.75,-4533.28 1051.47,-4531.78L1050.94,-4529L1054.41,-4529Z" style="fill:white;fill-rule:nonzero;"/>
            <path id="path1402" d="M1060.27,-4544.2L1062.99,-4544.2L1065.9,-4535.54C1066.74,-4533.1 1067.49,-4530.49 1068.13,-4527.72C1067.9,-4529.4 1067.72,-4530.91 1067.61,-4532.27C1067.5,-4533.63 1067.44,-4534.91 1067.44,-4536.11L1067.44,-4544.2L1070.38,-4544.2L1070.38,-4522.51L1067.64,-4522.51L1064.37,-4532.27C1064.07,-4533.18 1063.78,-4534.11 1063.51,-4535.07C1063.25,-4536.02 1063.01,-4537.02 1062.78,-4538.07C1062.76,-4538.2 1062.73,-4538.36 1062.68,-4538.55C1062.64,-4538.74 1062.6,-4538.95 1062.54,-4539.2C1062.57,-4538.95 1062.59,-4538.74 1062.61,-4538.56C1062.63,-4538.4 1062.64,-4538.25 1062.65,-4538.13L1062.81,-4535.92L1062.96,-4533.24C1062.97,-4533.09 1062.98,-4532.91 1062.98,-4532.69C1062.99,-4532.48 1062.99,-4532.23 1062.99,-4531.96L1063.15,-4522.51L1060.27,-4522.51L1060.27,-4544.2Z" style="fill:white;fill-rule:nonzero;"/>
            <rect id="path1404" x="1073.75" y="-4544.2" width="2.922" height="21.688" style="fill:white;fill-rule:nonzero;"/>
            <path id="path1406" d="M1088.56,-4543.85L1088.56,-4541.22C1087.81,-4541.58 1087.18,-4541.77 1086.67,-4541.77C1085.98,-4541.77 1085.39,-4541.59 1084.89,-4541.25C1084.39,-4540.91 1083.98,-4540.39 1083.65,-4539.67C1083.34,-4538.96 1083.1,-4538.06 1082.94,-4536.96C1082.79,-4535.88 1082.71,-4534.59 1082.71,-4533.1C1082.71,-4527.74 1084.08,-4525.07 1086.83,-4525.07C1087.31,-4525.07 1087.88,-4525.22 1088.56,-4525.52L1088.56,-4522.83C1087.85,-4522.44 1087.07,-4522.24 1086.2,-4522.24C1081.8,-4522.24 1079.61,-4525.83 1079.61,-4533C1079.61,-4536.88 1080.14,-4539.76 1081.21,-4541.65C1082.29,-4543.55 1083.93,-4544.49 1086.14,-4544.49C1086.95,-4544.49 1087.76,-4544.28 1088.56,-4543.85L1088.56,-4543.85Z" style="fill:white;fill-rule:nonzero;"/>
        </g>
    </g>
</svg>
