<?xml version="1.0" encoding="utf-8"?>
<!-- Generator: Adobe Illustrator 24.3.0, SVG Export Plug-In . SVG Version: 6.00 Build 0)  -->
<svg version="1.0" id="Layer_1" xmlns="http://www.w3.org/2000/svg" xmlns:xlink="http://www.w3.org/1999/xlink" x="0px" y="0px"
	 width="133px" height="31px" viewBox="0 0 133 31" enable-background="new 0 0 133 31" xml:space="preserve">
<g>
	<g>
		<g opacity="0.72">
			<g>
				<path fill="#C9C9C9" d="M2.92578,4.65832h-1.0835c-0.8335,0-1.51123-0.58105-1.51123-1.29541V1.71545
					c0-0.27637,0.22363-0.5,0.5-0.5s0.5,0.22363,0.5,0.5v1.64746c0,0.13672,0.22314,0.29541,0.51123,0.29541h1.0835
					c0.28809,0,0.51172-0.15869,0.51172-0.29541V1.71545c0-0.27637,0.22363-0.5,0.5-0.5s0.5,0.22363,0.5,0.5v1.64746
					C4.4375,4.07726,3.75928,4.65832,2.92578,4.65832z"/>
			</g>
			<g>
				<path fill="#C9C9C9" d="M7.72705,4.65832h-1.0835c-0.8335,0-1.51172-0.58105-1.51172-1.29541V1.71545
					c0-0.27637,0.22363-0.5,0.5-0.5s0.5,0.22363,0.5,0.5v1.64746c0,0.13672,0.22363,0.29541,0.51172,0.29541h1.0835
					c0.28809,0,0.51123-0.15869,0.51123-0.29541V1.71545c0-0.27637,0.22363-0.5,0.5-0.5s0.5,0.22363,0.5,0.5v1.64746
					C9.23828,4.07726,8.56055,4.65832,7.72705,4.65832z"/>
			</g>
			<g>
				<path fill="#C9C9C9" d="M12.52832,4.65832h-1.0835c-0.8335,0-1.51172-0.58105-1.51172-1.29541V1.71545
					c0-0.27637,0.22363-0.5,0.5-0.5s0.5,0.22363,0.5,0.5v1.64746c0,0.13672,0.22363,0.29541,0.51172,0.29541h1.0835
					c0.28809,0,0.51123-0.15869,0.51123-0.29541V1.71545c0-0.27637,0.22363-0.5,0.5-0.5s0.5,0.22363,0.5,0.5v1.64746
					C14.03955,4.07726,13.36182,4.65832,12.52832,4.65832z"/>
			</g>
			<g>
				<path fill="#C9C9C9" d="M17.3291,4.65832h-1.08301c-0.8335,0-1.51172-0.58105-1.51172-1.29541V1.71545
					c0-0.27637,0.22363-0.5,0.5-0.5s0.5,0.22363,0.5,0.5v1.64746c0,0.13672,0.22363,0.29541,0.51172,0.29541h1.08301
					c0.28809,0,0.51172-0.15869,0.51172-0.29541V1.71545c0-0.27637,0.22363-0.5,0.5-0.5s0.5,0.22363,0.5,0.5v1.64746
					C18.84082,4.07726,18.1626,4.65832,17.3291,4.65832z"/>
			</g>
			<g>
				<path fill="#C9C9C9" d="M22.13037,4.65832h-1.08301c-0.8335,0-1.51172-0.58105-1.51172-1.29541V1.71545
					c0-0.27637,0.22363-0.5,0.5-0.5s0.5,0.22363,0.5,0.5v1.64746c0,0.13672,0.22363,0.29541,0.51172,0.29541h1.08301
					c0.28809,0,0.51172-0.15869,0.51172-0.29541V1.71545c0-0.27637,0.22363-0.5,0.5-0.5s0.5,0.22363,0.5,0.5v1.64746
					C23.64209,4.07726,22.96387,4.65832,22.13037,4.65832z"/>
			</g>
			<g>
				<path fill="#C9C9C9" d="M26.93164,4.65832h-1.0835c-0.8335,0-1.51123-0.58105-1.51123-1.29541V1.71545
					c0-0.27637,0.22363-0.5,0.5-0.5s0.5,0.22363,0.5,0.5v1.64746c0,0.13672,0.22314,0.29541,0.51123,0.29541h1.0835
					c0.28809,0,0.51172-0.15869,0.51172-0.29541V1.71545c0-0.27637,0.22363-0.5,0.5-0.5s0.5,0.22363,0.5,0.5v1.64746
					C28.44336,4.07726,27.76514,4.65832,26.93164,4.65832z"/>
			</g>
			<g>
				<path fill="#C9C9C9" d="M31.73291,4.65832h-1.0835c-0.8335,0-1.51123-0.58105-1.51123-1.29541V1.71545
					c0-0.27637,0.22363-0.5,0.5-0.5s0.5,0.22363,0.5,0.5v1.64746c0,0.13672,0.22314,0.29541,0.51123,0.29541h1.0835
					c0.28809,0,0.51172-0.15869,0.51172-0.29541V1.71545c0-0.27637,0.22363-0.5,0.5-0.5s0.5,0.22363,0.5,0.5v1.64746
					C33.24463,4.07726,32.56641,4.65832,31.73291,4.65832z"/>
			</g>
			<g>
				<path fill="#C9C9C9" d="M36.53418,4.65832h-1.0835c-0.8335,0-1.51172-0.58105-1.51172-1.29541V1.71545
					c0-0.27637,0.22363-0.5,0.5-0.5s0.5,0.22363,0.5,0.5v1.64746c0,0.13672,0.22363,0.29541,0.51172,0.29541h1.0835
					c0.28809,0,0.51172-0.15869,0.51172-0.29541V1.71545c0-0.27637,0.22363-0.5,0.5-0.5s0.5,0.22363,0.5,0.5v1.64746
					C38.0459,4.07726,37.36768,4.65832,36.53418,4.65832z"/>
			</g>
			<g>
				<path fill="#C9C9C9" d="M41.33545,4.65832h-1.0835c-0.8335,0-1.51172-0.58105-1.51172-1.29541V1.71545
					c0-0.27637,0.22363-0.5,0.5-0.5s0.5,0.22363,0.5,0.5v1.64746c0,0.13672,0.22363,0.29541,0.51172,0.29541h1.0835
					c0.28809,0,0.51123-0.15869,0.51123-0.29541V1.71545c0-0.27637,0.22363-0.5,0.5-0.5s0.5,0.22363,0.5,0.5v1.64746
					C42.84668,4.07726,42.16895,4.65832,41.33545,4.65832z"/>
			</g>
			<g>
				<path fill="#C9C9C9" d="M46.13672,4.65832h-1.0835c-0.8335,0-1.51172-0.58105-1.51172-1.29541V1.71545
					c0-0.27637,0.22363-0.5,0.5-0.5s0.5,0.22363,0.5,0.5v1.64746c0,0.13672,0.22363,0.29541,0.51172,0.29541h1.0835
					c0.28809,0,0.51123-0.15869,0.51123-0.29541V1.71545c0-0.27637,0.22363-0.5,0.5-0.5s0.5,0.22363,0.5,0.5v1.64746
					C47.64795,4.07726,46.97021,4.65832,46.13672,4.65832z"/>
			</g>
			<g>
				<path fill="#C9C9C9" d="M50.9375,4.65832h-1.08301c-0.8335,0-1.51172-0.58105-1.51172-1.29541V1.71545
					c0-0.27637,0.22363-0.5,0.5-0.5s0.5,0.22363,0.5,0.5v1.64746c0,0.13672,0.22363,0.29541,0.51172,0.29541h1.08301
					c0.28809,0,0.51172-0.15869,0.51172-0.29541V1.71545c0-0.27637,0.22363-0.5,0.5-0.5s0.5,0.22363,0.5,0.5v1.64746
					C52.44922,4.07726,51.771,4.65832,50.9375,4.65832z"/>
			</g>
			<g>
				<path fill="#C9C9C9" d="M55.73877,4.65832h-1.08301c-0.8335,0-1.51172-0.58105-1.51172-1.29541V1.71545
					c0-0.27637,0.22363-0.5,0.5-0.5s0.5,0.22363,0.5,0.5v1.64746c0,0.13672,0.22363,0.29541,0.51172,0.29541h1.08301
					c0.28809,0,0.51172-0.15869,0.51172-0.29541V1.71545c0-0.27637,0.22363-0.5,0.5-0.5s0.5,0.22363,0.5,0.5v1.64746
					C57.25049,4.07726,56.57227,4.65832,55.73877,4.65832z"/>
			</g>
			<g>
				<path fill="#C9C9C9" d="M60.54004,4.65832h-1.0835c-0.8335,0-1.51123-0.58105-1.51123-1.29541V1.71545
					c0-0.27637,0.22363-0.5,0.5-0.5s0.5,0.22363,0.5,0.5v1.64746c0,0.13672,0.22314,0.29541,0.51123,0.29541h1.0835
					c0.28809,0,0.51172-0.15869,0.51172-0.29541V1.71545c0-0.27637,0.22363-0.5,0.5-0.5s0.5,0.22363,0.5,0.5v1.64746
					C62.05176,4.07726,61.37354,4.65832,60.54004,4.65832z"/>
			</g>
			<g>
				<path fill="#C9C9C9" d="M65.34131,4.65832h-1.0835c-0.8335,0-1.51123-0.58105-1.51123-1.29541V1.71545
					c0-0.27637,0.22363-0.5,0.5-0.5s0.5,0.22363,0.5,0.5v1.64746c0,0.13672,0.22314,0.29541,0.51123,0.29541h1.0835
					c0.2876,0,0.51123-0.15869,0.51123-0.29541V1.71545c0-0.27637,0.22363-0.5,0.5-0.5s0.5,0.22363,0.5,0.5v1.64746
					C66.85254,4.07726,66.1748,4.65832,65.34131,4.65832z"/>
			</g>
			<g>
				<path fill="#C9C9C9" d="M70.14258,4.65832h-1.08301c-0.83398,0-1.51172-0.58105-1.51172-1.29541V1.71545
					c0-0.27637,0.22363-0.5,0.5-0.5s0.5,0.22363,0.5,0.5v1.64746c0,0.13672,0.22363,0.29541,0.51172,0.29541h1.08301
					c0.28809,0,0.51172-0.15869,0.51172-0.29541V1.71545c0-0.27637,0.22363-0.5,0.5-0.5s0.5,0.22363,0.5,0.5v1.64746
					C71.6543,4.07726,70.97656,4.65832,70.14258,4.65832z"/>
			</g>
			<g>
				<path fill="#C9C9C9" d="M74.94336,4.65832h-1.08301c-0.83398,0-1.51172-0.58105-1.51172-1.29541V1.71545
					c0-0.27637,0.22363-0.5,0.5-0.5s0.5,0.22363,0.5,0.5v1.64746c0,0.13672,0.22363,0.29541,0.51172,0.29541h1.08301
					c0.28809,0,0.51172-0.15869,0.51172-0.29541V1.71545c0-0.27637,0.22363-0.5,0.5-0.5s0.5,0.22363,0.5,0.5v1.64746
					C76.45508,4.07726,75.77734,4.65832,74.94336,4.65832z"/>
			</g>
			<g>
				<path fill="#C9C9C9" d="M79.74512,4.65832h-1.08398c-0.83301,0-1.51074-0.58105-1.51074-1.29541V1.71545
					c0-0.27637,0.22363-0.5,0.5-0.5s0.5,0.22363,0.5,0.5v1.64746c0,0.13672,0.22266,0.29541,0.51074,0.29541h1.08398
					c0.28809,0,0.51172-0.15869,0.51172-0.29541V1.71545c0-0.27637,0.22363-0.5,0.5-0.5s0.5,0.22363,0.5,0.5v1.64746
					C81.25684,4.07726,80.5791,4.65832,79.74512,4.65832z"/>
			</g>
			<g>
				<path fill="#C9C9C9" d="M84.5459,4.65832h-1.08301c-0.83398,0-1.51172-0.58105-1.51172-1.29541V1.71545
					c0-0.27637,0.22363-0.5,0.5-0.5s0.5,0.22363,0.5,0.5v1.64746c0,0.13672,0.22363,0.29541,0.51172,0.29541h1.08301
					c0.28809,0,0.51172-0.15869,0.51172-0.29541V1.71545c0-0.27637,0.22363-0.5,0.5-0.5s0.5,0.22363,0.5,0.5v1.64746
					C86.05762,4.07726,85.37988,4.65832,84.5459,4.65832z"/>
			</g>
			<g>
				<path fill="#C9C9C9" d="M89.34766,4.65832h-1.08398c-0.83398,0-1.51172-0.58105-1.51172-1.29541V1.71545
					c0-0.27637,0.22363-0.5,0.5-0.5s0.5,0.22363,0.5,0.5v1.64746c0,0.13672,0.22363,0.29541,0.51172,0.29541h1.08398
					c0.28809,0,0.51074-0.15869,0.51074-0.29541V1.71545c0-0.27637,0.22363-0.5,0.5-0.5s0.5,0.22363,0.5,0.5v1.64746
					C90.8584,4.07726,90.18066,4.65832,89.34766,4.65832z"/>
			</g>
			<g>
				<path fill="#C9C9C9" d="M94.14844,4.65832h-1.08301c-0.83398,0-1.51172-0.58105-1.51172-1.29541V1.71545
					c0-0.27637,0.22363-0.5,0.5-0.5s0.5,0.22363,0.5,0.5v1.64746c0,0.13672,0.22363,0.29541,0.51172,0.29541h1.08301
					c0.28809,0,0.51172-0.15869,0.51172-0.29541V1.71545c0-0.27637,0.22363-0.5,0.5-0.5s0.5,0.22363,0.5,0.5v1.64746
					C95.66016,4.07726,94.98242,4.65832,94.14844,4.65832z"/>
			</g>
			<g>
				<path fill="#C9C9C9" d="M98.94922,4.65832h-1.08301c-0.83398,0-1.51172-0.58105-1.51172-1.29541V1.71545
					c0-0.27637,0.22363-0.5,0.5-0.5s0.5,0.22363,0.5,0.5v1.64746c0,0.13672,0.22363,0.29541,0.51172,0.29541h1.08301
					c0.28809,0,0.51172-0.15869,0.51172-0.29541V1.71545c0-0.27637,0.22363-0.5,0.5-0.5s0.5,0.22363,0.5,0.5v1.64746
					C100.46094,4.07726,99.7832,4.65832,98.94922,4.65832z"/>
			</g>
			<g>
				<path fill="#C9C9C9" d="M103.75098,4.65832h-1.08301c-0.83398,0-1.51172-0.58105-1.51172-1.29541V1.71545
					c0-0.27637,0.22363-0.5,0.5-0.5s0.5,0.22363,0.5,0.5v1.64746c0,0.13672,0.22363,0.29541,0.51172,0.29541h1.08301
					c0.28809,0,0.51172-0.15869,0.51172-0.29541V1.71545c0-0.27637,0.22363-0.5,0.5-0.5s0.5,0.22363,0.5,0.5v1.64746
					C105.2627,4.07726,104.58496,4.65832,103.75098,4.65832z"/>
			</g>
			<g>
				<path fill="#C9C9C9" d="M108.55176,4.65832h-1.08301c-0.83398,0-1.51172-0.58105-1.51172-1.29541V1.71545
					c0-0.27637,0.22363-0.5,0.5-0.5s0.5,0.22363,0.5,0.5v1.64746c0,0.13672,0.22363,0.29541,0.51172,0.29541h1.08301
					c0.28809,0,0.51172-0.15869,0.51172-0.29541V1.71545c0-0.27637,0.22363-0.5,0.5-0.5s0.5,0.22363,0.5,0.5v1.64746
					C110.06348,4.07726,109.38574,4.65832,108.55176,4.65832z"/>
			</g>
			<g>
				<path fill="#C9C9C9" d="M113.35352,4.65832h-1.08398c-0.83301,0-1.51074-0.58105-1.51074-1.29541V1.71545
					c0-0.27637,0.22363-0.5,0.5-0.5s0.5,0.22363,0.5,0.5v1.64746c0,0.13672,0.22266,0.29541,0.51074,0.29541h1.08398
					c0.28809,0,0.51172-0.15869,0.51172-0.29541V1.71545c0-0.27637,0.22363-0.5,0.5-0.5s0.5,0.22363,0.5,0.5v1.64746
					C114.86523,4.07726,114.1875,4.65832,113.35352,4.65832z"/>
			</g>
			<g>
				<path fill="#C9C9C9" d="M118.1543,4.65832h-1.08301c-0.83398,0-1.51172-0.58105-1.51172-1.29541V1.71545
					c0-0.27637,0.22363-0.5,0.5-0.5s0.5,0.22363,0.5,0.5v1.64746c0,0.13672,0.22363,0.29541,0.51172,0.29541h1.08301
					c0.28809,0,0.51172-0.15869,0.51172-0.29541V1.71545c0-0.27637,0.22363-0.5,0.5-0.5s0.5,0.22363,0.5,0.5v1.64746
					C119.66602,4.07726,118.98828,4.65832,118.1543,4.65832z"/>
			</g>
			<g>
				<path fill="#C9C9C9" d="M122.95605,4.65832h-1.08398c-0.83398,0-1.51172-0.58105-1.51172-1.29541V1.71545
					c0-0.27637,0.22363-0.5,0.5-0.5s0.5,0.22363,0.5,0.5v1.64746c0,0.13672,0.22363,0.29541,0.51172,0.29541h1.08398
					c0.28809,0,0.51074-0.15869,0.51074-0.29541V1.71545c0-0.27637,0.22363-0.5,0.5-0.5s0.5,0.22363,0.5,0.5v1.64746
					C124.4668,4.07726,123.78906,4.65832,122.95605,4.65832z"/>
			</g>
			<g>
				<path fill="#C9C9C9" d="M127.75684,4.65832h-1.08301c-0.83398,0-1.51172-0.58105-1.51172-1.29541V1.71545
					c0-0.27637,0.22363-0.5,0.5-0.5s0.5,0.22363,0.5,0.5v1.64746c0,0.13672,0.22363,0.29541,0.51172,0.29541h1.08301
					c0.28809,0,0.51172-0.15869,0.51172-0.29541V1.71545c0-0.27637,0.22363-0.5,0.5-0.5s0.5,0.22363,0.5,0.5v1.64746
					C129.26855,4.07726,128.59082,4.65832,127.75684,4.65832z"/>
			</g>
			<g>
				<path fill="#C9C9C9" d="M2.92578,8.5089h-1.0835c-0.8335,0-1.51123-0.58105-1.51123-1.29541V5.56603
					c0-0.27637,0.22363-0.5,0.5-0.5s0.5,0.22363,0.5,0.5v1.64746c0,0.13672,0.22314,0.29541,0.51123,0.29541h1.0835
					c0.28809,0,0.51172-0.15869,0.51172-0.29541V5.56603c0-0.27637,0.22363-0.5,0.5-0.5s0.5,0.22363,0.5,0.5v1.64746
					C4.4375,7.92785,3.75928,8.5089,2.92578,8.5089z"/>
			</g>
			<g>
				<path fill="#C9C9C9" d="M7.72705,8.5089h-1.0835c-0.8335,0-1.51172-0.58105-1.51172-1.29541V5.56603
					c0-0.27637,0.22363-0.5,0.5-0.5s0.5,0.22363,0.5,0.5v1.64746c0,0.13672,0.22363,0.29541,0.51172,0.29541h1.0835
					c0.28809,0,0.51123-0.15869,0.51123-0.29541V5.56603c0-0.27637,0.22363-0.5,0.5-0.5s0.5,0.22363,0.5,0.5v1.64746
					C9.23828,7.92785,8.56055,8.5089,7.72705,8.5089z"/>
			</g>
			<g>
				<path fill="#C9C9C9" d="M12.52832,8.5089h-1.0835c-0.8335,0-1.51172-0.58105-1.51172-1.29541V5.56603
					c0-0.27637,0.22363-0.5,0.5-0.5s0.5,0.22363,0.5,0.5v1.64746c0,0.13672,0.22363,0.29541,0.51172,0.29541h1.0835
					c0.28809,0,0.51123-0.15869,0.51123-0.29541V5.56603c0-0.27637,0.22363-0.5,0.5-0.5s0.5,0.22363,0.5,0.5v1.64746
					C14.03955,7.92785,13.36182,8.5089,12.52832,8.5089z"/>
			</g>
			<g>
				<path fill="#C9C9C9" d="M17.3291,8.5089h-1.08301c-0.8335,0-1.51172-0.58105-1.51172-1.29541V5.56603
					c0-0.27637,0.22363-0.5,0.5-0.5s0.5,0.22363,0.5,0.5v1.64746c0,0.13672,0.22363,0.29541,0.51172,0.29541h1.08301
					c0.28809,0,0.51172-0.15869,0.51172-0.29541V5.56603c0-0.27637,0.22363-0.5,0.5-0.5s0.5,0.22363,0.5,0.5v1.64746
					C18.84082,7.92785,18.1626,8.5089,17.3291,8.5089z"/>
			</g>
			<g>
				<path fill="#C9C9C9" d="M22.13037,8.5089h-1.08301c-0.8335,0-1.51172-0.58105-1.51172-1.29541V5.56603
					c0-0.27637,0.22363-0.5,0.5-0.5s0.5,0.22363,0.5,0.5v1.64746c0,0.13672,0.22363,0.29541,0.51172,0.29541h1.08301
					c0.28809,0,0.51172-0.15869,0.51172-0.29541V5.56603c0-0.27637,0.22363-0.5,0.5-0.5s0.5,0.22363,0.5,0.5v1.64746
					C23.64209,7.92785,22.96387,8.5089,22.13037,8.5089z"/>
			</g>
			<g>
				<path fill="#C9C9C9" d="M26.93164,8.5089h-1.0835c-0.8335,0-1.51123-0.58105-1.51123-1.29541V5.56603
					c0-0.27637,0.22363-0.5,0.5-0.5s0.5,0.22363,0.5,0.5v1.64746c0,0.13672,0.22314,0.29541,0.51123,0.29541h1.0835
					c0.28809,0,0.51172-0.15869,0.51172-0.29541V5.56603c0-0.27637,0.22363-0.5,0.5-0.5s0.5,0.22363,0.5,0.5v1.64746
					C28.44336,7.92785,27.76514,8.5089,26.93164,8.5089z"/>
			</g>
			<g>
				<path fill="#C9C9C9" d="M31.73291,8.5089h-1.0835c-0.8335,0-1.51123-0.58105-1.51123-1.29541V5.56603
					c0-0.27637,0.22363-0.5,0.5-0.5s0.5,0.22363,0.5,0.5v1.64746c0,0.13672,0.22314,0.29541,0.51123,0.29541h1.0835
					c0.28809,0,0.51172-0.15869,0.51172-0.29541V5.56603c0-0.27637,0.22363-0.5,0.5-0.5s0.5,0.22363,0.5,0.5v1.64746
					C33.24463,7.92785,32.56641,8.5089,31.73291,8.5089z"/>
			</g>
			<g>
				<path fill="#C9C9C9" d="M36.53418,8.5089h-1.0835c-0.8335,0-1.51172-0.58105-1.51172-1.29541V5.56603
					c0-0.27637,0.22363-0.5,0.5-0.5s0.5,0.22363,0.5,0.5v1.64746c0,0.13672,0.22363,0.29541,0.51172,0.29541h1.0835
					c0.28809,0,0.51172-0.15869,0.51172-0.29541V5.56603c0-0.27637,0.22363-0.5,0.5-0.5s0.5,0.22363,0.5,0.5v1.64746
					C38.0459,7.92785,37.36768,8.5089,36.53418,8.5089z"/>
			</g>
			<g>
				<path fill="#C9C9C9" d="M41.33545,8.5089h-1.0835c-0.8335,0-1.51172-0.58105-1.51172-1.29541V5.56603
					c0-0.27637,0.22363-0.5,0.5-0.5s0.5,0.22363,0.5,0.5v1.64746c0,0.13672,0.22363,0.29541,0.51172,0.29541h1.0835
					c0.28809,0,0.51123-0.15869,0.51123-0.29541V5.56603c0-0.27637,0.22363-0.5,0.5-0.5s0.5,0.22363,0.5,0.5v1.64746
					C42.84668,7.92785,42.16895,8.5089,41.33545,8.5089z"/>
			</g>
			<g>
				<path fill="#C9C9C9" d="M46.13672,8.5089h-1.0835c-0.8335,0-1.51172-0.58105-1.51172-1.29541V5.56603
					c0-0.27637,0.22363-0.5,0.5-0.5s0.5,0.22363,0.5,0.5v1.64746c0,0.13672,0.22363,0.29541,0.51172,0.29541h1.0835
					c0.28809,0,0.51123-0.15869,0.51123-0.29541V5.56603c0-0.27637,0.22363-0.5,0.5-0.5s0.5,0.22363,0.5,0.5v1.64746
					C47.64795,7.92785,46.97021,8.5089,46.13672,8.5089z"/>
			</g>
			<g>
				<path fill="#C9C9C9" d="M50.9375,8.5089h-1.08301c-0.8335,0-1.51172-0.58105-1.51172-1.29541V5.56603
					c0-0.27637,0.22363-0.5,0.5-0.5s0.5,0.22363,0.5,0.5v1.64746c0,0.13672,0.22363,0.29541,0.51172,0.29541h1.08301
					c0.28809,0,0.51172-0.15869,0.51172-0.29541V5.56603c0-0.27637,0.22363-0.5,0.5-0.5s0.5,0.22363,0.5,0.5v1.64746
					C52.44922,7.92785,51.771,8.5089,50.9375,8.5089z"/>
			</g>
			<g>
				<path fill="#C9C9C9" d="M55.73877,8.5089h-1.08301c-0.8335,0-1.51172-0.58105-1.51172-1.29541V5.56603
					c0-0.27637,0.22363-0.5,0.5-0.5s0.5,0.22363,0.5,0.5v1.64746c0,0.13672,0.22363,0.29541,0.51172,0.29541h1.08301
					c0.28809,0,0.51172-0.15869,0.51172-0.29541V5.56603c0-0.27637,0.22363-0.5,0.5-0.5s0.5,0.22363,0.5,0.5v1.64746
					C57.25049,7.92785,56.57227,8.5089,55.73877,8.5089z"/>
			</g>
			<g>
				<path fill="#C9C9C9" d="M60.54004,8.5089h-1.0835c-0.8335,0-1.51123-0.58105-1.51123-1.29541V5.56603
					c0-0.27637,0.22363-0.5,0.5-0.5s0.5,0.22363,0.5,0.5v1.64746c0,0.13672,0.22314,0.29541,0.51123,0.29541h1.0835
					c0.28809,0,0.51172-0.15869,0.51172-0.29541V5.56603c0-0.27637,0.22363-0.5,0.5-0.5s0.5,0.22363,0.5,0.5v1.64746
					C62.05176,7.92785,61.37354,8.5089,60.54004,8.5089z"/>
			</g>
			<g>
				<path fill="#C9C9C9" d="M65.34131,8.5089h-1.0835c-0.8335,0-1.51123-0.58105-1.51123-1.29541V5.56603
					c0-0.27637,0.22363-0.5,0.5-0.5s0.5,0.22363,0.5,0.5v1.64746c0,0.13672,0.22314,0.29541,0.51123,0.29541h1.0835
					c0.2876,0,0.51123-0.15869,0.51123-0.29541V5.56603c0-0.27637,0.22363-0.5,0.5-0.5s0.5,0.22363,0.5,0.5v1.64746
					C66.85254,7.92785,66.1748,8.5089,65.34131,8.5089z"/>
			</g>
			<g>
				<path fill="#C9C9C9" d="M70.14258,8.5089h-1.08301c-0.83398,0-1.51172-0.58105-1.51172-1.29541V5.56603
					c0-0.27637,0.22363-0.5,0.5-0.5s0.5,0.22363,0.5,0.5v1.64746c0,0.13672,0.22363,0.29541,0.51172,0.29541h1.08301
					c0.28809,0,0.51172-0.15869,0.51172-0.29541V5.56603c0-0.27637,0.22363-0.5,0.5-0.5s0.5,0.22363,0.5,0.5v1.64746
					C71.6543,7.92785,70.97656,8.5089,70.14258,8.5089z"/>
			</g>
			<g>
				<path fill="#C9C9C9" d="M74.94336,8.5089h-1.08301c-0.83398,0-1.51172-0.58105-1.51172-1.29541V5.56603
					c0-0.27637,0.22363-0.5,0.5-0.5s0.5,0.22363,0.5,0.5v1.64746c0,0.13672,0.22363,0.29541,0.51172,0.29541h1.08301
					c0.28809,0,0.51172-0.15869,0.51172-0.29541V5.56603c0-0.27637,0.22363-0.5,0.5-0.5s0.5,0.22363,0.5,0.5v1.64746
					C76.45508,7.92785,75.77734,8.5089,74.94336,8.5089z"/>
			</g>
			<g>
				<path fill="#C9C9C9" d="M79.74512,8.5089h-1.08398c-0.83301,0-1.51074-0.58105-1.51074-1.29541V5.56603
					c0-0.27637,0.22363-0.5,0.5-0.5s0.5,0.22363,0.5,0.5v1.64746c0,0.13672,0.22266,0.29541,0.51074,0.29541h1.08398
					c0.28809,0,0.51172-0.15869,0.51172-0.29541V5.56603c0-0.27637,0.22363-0.5,0.5-0.5s0.5,0.22363,0.5,0.5v1.64746
					C81.25684,7.92785,80.5791,8.5089,79.74512,8.5089z"/>
			</g>
			<g>
				<path fill="#C9C9C9" d="M84.5459,8.5089h-1.08301c-0.83398,0-1.51172-0.58105-1.51172-1.29541V5.56603
					c0-0.27637,0.22363-0.5,0.5-0.5s0.5,0.22363,0.5,0.5v1.64746c0,0.13672,0.22363,0.29541,0.51172,0.29541h1.08301
					c0.28809,0,0.51172-0.15869,0.51172-0.29541V5.56603c0-0.27637,0.22363-0.5,0.5-0.5s0.5,0.22363,0.5,0.5v1.64746
					C86.05762,7.92785,85.37988,8.5089,84.5459,8.5089z"/>
			</g>
			<g>
				<path fill="#C9C9C9" d="M89.34766,8.5089h-1.08398c-0.83398,0-1.51172-0.58105-1.51172-1.29541V5.56603
					c0-0.27637,0.22363-0.5,0.5-0.5s0.5,0.22363,0.5,0.5v1.64746c0,0.13672,0.22363,0.29541,0.51172,0.29541h1.08398
					c0.28809,0,0.51074-0.15869,0.51074-0.29541V5.56603c0-0.27637,0.22363-0.5,0.5-0.5s0.5,0.22363,0.5,0.5v1.64746
					C90.8584,7.92785,90.18066,8.5089,89.34766,8.5089z"/>
			</g>
			<g>
				<path fill="#C9C9C9" d="M94.14844,8.5089h-1.08301c-0.83398,0-1.51172-0.58105-1.51172-1.29541V5.56603
					c0-0.27637,0.22363-0.5,0.5-0.5s0.5,0.22363,0.5,0.5v1.64746c0,0.13672,0.22363,0.29541,0.51172,0.29541h1.08301
					c0.28809,0,0.51172-0.15869,0.51172-0.29541V5.56603c0-0.27637,0.22363-0.5,0.5-0.5s0.5,0.22363,0.5,0.5v1.64746
					C95.66016,7.92785,94.98242,8.5089,94.14844,8.5089z"/>
			</g>
			<g>
				<path fill="#C9C9C9" d="M98.94922,8.5089h-1.08301c-0.83398,0-1.51172-0.58105-1.51172-1.29541V5.56603
					c0-0.27637,0.22363-0.5,0.5-0.5s0.5,0.22363,0.5,0.5v1.64746c0,0.13672,0.22363,0.29541,0.51172,0.29541h1.08301
					c0.28809,0,0.51172-0.15869,0.51172-0.29541V5.56603c0-0.27637,0.22363-0.5,0.5-0.5s0.5,0.22363,0.5,0.5v1.64746
					C100.46094,7.92785,99.7832,8.5089,98.94922,8.5089z"/>
			</g>
			<g>
				<path fill="#C9C9C9" d="M103.75098,8.5089h-1.08301c-0.83398,0-1.51172-0.58105-1.51172-1.29541V5.56603
					c0-0.27637,0.22363-0.5,0.5-0.5s0.5,0.22363,0.5,0.5v1.64746c0,0.13672,0.22363,0.29541,0.51172,0.29541h1.08301
					c0.28809,0,0.51172-0.15869,0.51172-0.29541V5.56603c0-0.27637,0.22363-0.5,0.5-0.5s0.5,0.22363,0.5,0.5v1.64746
					C105.2627,7.92785,104.58496,8.5089,103.75098,8.5089z"/>
			</g>
			<g>
				<path fill="#C9C9C9" d="M108.55176,8.5089h-1.08301c-0.83398,0-1.51172-0.58105-1.51172-1.29541V5.56603
					c0-0.27637,0.22363-0.5,0.5-0.5s0.5,0.22363,0.5,0.5v1.64746c0,0.13672,0.22363,0.29541,0.51172,0.29541h1.08301
					c0.28809,0,0.51172-0.15869,0.51172-0.29541V5.56603c0-0.27637,0.22363-0.5,0.5-0.5s0.5,0.22363,0.5,0.5v1.64746
					C110.06348,7.92785,109.38574,8.5089,108.55176,8.5089z"/>
			</g>
			<g>
				<path fill="#C9C9C9" d="M113.35352,8.5089h-1.08398c-0.83301,0-1.51074-0.58105-1.51074-1.29541V5.56603
					c0-0.27637,0.22363-0.5,0.5-0.5s0.5,0.22363,0.5,0.5v1.64746c0,0.13672,0.22266,0.29541,0.51074,0.29541h1.08398
					c0.28809,0,0.51172-0.15869,0.51172-0.29541V5.56603c0-0.27637,0.22363-0.5,0.5-0.5s0.5,0.22363,0.5,0.5v1.64746
					C114.86523,7.92785,114.1875,8.5089,113.35352,8.5089z"/>
			</g>
			<g>
				<path fill="#C9C9C9" d="M118.1543,8.5089h-1.08301c-0.83398,0-1.51172-0.58105-1.51172-1.29541V5.56603
					c0-0.27637,0.22363-0.5,0.5-0.5s0.5,0.22363,0.5,0.5v1.64746c0,0.13672,0.22363,0.29541,0.51172,0.29541h1.08301
					c0.28809,0,0.51172-0.15869,0.51172-0.29541V5.56603c0-0.27637,0.22363-0.5,0.5-0.5s0.5,0.22363,0.5,0.5v1.64746
					C119.66602,7.92785,118.98828,8.5089,118.1543,8.5089z"/>
			</g>
			<g>
				<path fill="#C9C9C9" d="M122.95605,8.5089h-1.08398c-0.83398,0-1.51172-0.58105-1.51172-1.29541V5.56603
					c0-0.27637,0.22363-0.5,0.5-0.5s0.5,0.22363,0.5,0.5v1.64746c0,0.13672,0.22363,0.29541,0.51172,0.29541h1.08398
					c0.28809,0,0.51074-0.15869,0.51074-0.29541V5.56603c0-0.27637,0.22363-0.5,0.5-0.5s0.5,0.22363,0.5,0.5v1.64746
					C124.4668,7.92785,123.78906,8.5089,122.95605,8.5089z"/>
			</g>
			<g>
				<path fill="#C9C9C9" d="M127.75684,8.5089h-1.08301c-0.83398,0-1.51172-0.58105-1.51172-1.29541V5.56603
					c0-0.27637,0.22363-0.5,0.5-0.5s0.5,0.22363,0.5,0.5v1.64746c0,0.13672,0.22363,0.29541,0.51172,0.29541h1.08301
					c0.28809,0,0.51172-0.15869,0.51172-0.29541V5.56603c0-0.27637,0.22363-0.5,0.5-0.5s0.5,0.22363,0.5,0.5v1.64746
					C129.26855,7.92785,128.59082,8.5089,127.75684,8.5089z"/>
			</g>
			<g>
				<path fill="#C9C9C9" d="M2.92578,12.35949h-1.0835c-0.8335,0-1.51123-0.58105-1.51123-1.29541V9.41662
					c0-0.27637,0.22363-0.5,0.5-0.5s0.5,0.22363,0.5,0.5v1.64746c0,0.13672,0.22314,0.29541,0.51123,0.29541h1.0835
					c0.3125,0,0.51172-0.1748,0.51172-0.29541V9.41662c0-0.27637,0.22363-0.5,0.5-0.5s0.5,0.22363,0.5,0.5v1.64746
					C4.4375,11.77844,3.75928,12.35949,2.92578,12.35949z"/>
			</g>
			<g>
				<path fill="#C9C9C9" d="M7.72705,12.35949h-1.0835c-0.8335,0-1.51172-0.58105-1.51172-1.29541V9.41662
					c0-0.27637,0.22363-0.5,0.5-0.5s0.5,0.22363,0.5,0.5v1.64746c0,0.12061,0.19922,0.29541,0.51172,0.29541h1.0835
					c0.28809,0,0.51123-0.15869,0.51123-0.29541V9.41662c0-0.27637,0.22363-0.5,0.5-0.5s0.5,0.22363,0.5,0.5v1.64746
					C9.23828,11.77844,8.56055,12.35949,7.72705,12.35949z"/>
			</g>
			<g>
				<path fill="#C9C9C9" d="M12.52832,12.35949h-1.0835c-0.8335,0-1.51172-0.58105-1.51172-1.29541V9.41662
					c0-0.27637,0.22363-0.5,0.5-0.5s0.5,0.22363,0.5,0.5v1.64746c0,0.12061,0.19922,0.29541,0.51172,0.29541h1.0835
					c0.28809,0,0.51123-0.15869,0.51123-0.29541V9.41662c0-0.27637,0.22363-0.5,0.5-0.5s0.5,0.22363,0.5,0.5v1.64746
					C14.03955,11.77844,13.36182,12.35949,12.52832,12.35949z"/>
			</g>
			<g>
				<path fill="#C9C9C9" d="M17.3291,12.35949h-1.08301c-0.8335,0-1.51172-0.58105-1.51172-1.29541V9.41662
					c0-0.27637,0.22363-0.5,0.5-0.5s0.5,0.22363,0.5,0.5v1.64746c0,0.12061,0.19922,0.29541,0.51172,0.29541h1.08301
					c0.28809,0,0.51172-0.15869,0.51172-0.29541V9.41662c0-0.27637,0.22363-0.5,0.5-0.5s0.5,0.22363,0.5,0.5v1.64746
					C18.84082,11.77844,18.1626,12.35949,17.3291,12.35949z"/>
			</g>
			<g>
				<path fill="#C9C9C9" d="M22.13037,12.35949h-1.08301c-0.8335,0-1.51172-0.58105-1.51172-1.29541V9.41662
					c0-0.27637,0.22363-0.5,0.5-0.5s0.5,0.22363,0.5,0.5v1.64746c0,0.13672,0.22363,0.29541,0.51172,0.29541h1.08301
					c0.28809,0,0.51172-0.15869,0.51172-0.29541V9.41662c0-0.27637,0.22363-0.5,0.5-0.5s0.5,0.22363,0.5,0.5v1.64746
					C23.64209,11.77844,22.96387,12.35949,22.13037,12.35949z"/>
			</g>
			<g>
				<path fill="#C9C9C9" d="M26.93164,12.35949h-1.0835c-0.8335,0-1.51123-0.58105-1.51123-1.29541V9.41662
					c0-0.27637,0.22363-0.5,0.5-0.5s0.5,0.22363,0.5,0.5v1.64746c0,0.13672,0.22314,0.29541,0.51123,0.29541h1.0835
					c0.3125,0,0.51172-0.1748,0.51172-0.29541V9.41662c0-0.27637,0.22363-0.5,0.5-0.5s0.5,0.22363,0.5,0.5v1.64746
					C28.44336,11.77844,27.76514,12.35949,26.93164,12.35949z"/>
			</g>
			<g>
				<path fill="#C9C9C9" d="M31.73291,12.35949h-1.0835c-0.8335,0-1.51123-0.58105-1.51123-1.29541V9.41662
					c0-0.27637,0.22363-0.5,0.5-0.5s0.5,0.22363,0.5,0.5v1.64746c0,0.13672,0.22314,0.29541,0.51123,0.29541h1.0835
					c0.3125,0,0.51172-0.1748,0.51172-0.29541V9.41662c0-0.27637,0.22363-0.5,0.5-0.5s0.5,0.22363,0.5,0.5v1.64746
					C33.24463,11.77844,32.56641,12.35949,31.73291,12.35949z"/>
			</g>
			<g>
				<path fill="#C9C9C9" d="M36.53418,12.35949h-1.0835c-0.8335,0-1.51172-0.58105-1.51172-1.29541V9.41662
					c0-0.27637,0.22363-0.5,0.5-0.5s0.5,0.22363,0.5,0.5v1.64746c0,0.12061,0.19922,0.29541,0.51172,0.29541h1.0835
					c0.3125,0,0.51172-0.1748,0.51172-0.29541V9.41662c0-0.27637,0.22363-0.5,0.5-0.5s0.5,0.22363,0.5,0.5v1.64746
					C38.0459,11.77844,37.36768,12.35949,36.53418,12.35949z"/>
			</g>
			<g>
				<path fill="#C9C9C9" d="M41.33545,12.35949h-1.0835c-0.8335,0-1.51172-0.58105-1.51172-1.29541V9.41662
					c0-0.27637,0.22363-0.5,0.5-0.5s0.5,0.22363,0.5,0.5v1.64746c0,0.12061,0.19922,0.29541,0.51172,0.29541h1.0835
					c0.28809,0,0.51123-0.15869,0.51123-0.29541V9.41662c0-0.27637,0.22363-0.5,0.5-0.5s0.5,0.22363,0.5,0.5v1.64746
					C42.84668,11.77844,42.16895,12.35949,41.33545,12.35949z"/>
			</g>
			<g>
				<path fill="#C9C9C9" d="M46.13672,12.35949h-1.0835c-0.8335,0-1.51172-0.58105-1.51172-1.29541V9.41662
					c0-0.27637,0.22363-0.5,0.5-0.5s0.5,0.22363,0.5,0.5v1.64746c0,0.12061,0.19922,0.29541,0.51172,0.29541h1.0835
					c0.28809,0,0.51123-0.15869,0.51123-0.29541V9.41662c0-0.27637,0.22363-0.5,0.5-0.5s0.5,0.22363,0.5,0.5v1.64746
					C47.64795,11.77844,46.97021,12.35949,46.13672,12.35949z"/>
			</g>
			<g>
				<path fill="#C9C9C9" d="M50.9375,12.35949h-1.08301c-0.8335,0-1.51172-0.58105-1.51172-1.29541V9.41662
					c0-0.27637,0.22363-0.5,0.5-0.5s0.5,0.22363,0.5,0.5v1.64746c0,0.12061,0.19922,0.29541,0.51172,0.29541h1.08301
					c0.28809,0,0.51172-0.15869,0.51172-0.29541V9.41662c0-0.27637,0.22363-0.5,0.5-0.5s0.5,0.22363,0.5,0.5v1.64746
					C52.44922,11.77844,51.771,12.35949,50.9375,12.35949z"/>
			</g>
			<g>
				<path fill="#C9C9C9" d="M55.73877,12.35949h-1.08301c-0.8335,0-1.51172-0.58105-1.51172-1.29541V9.41662
					c0-0.27637,0.22363-0.5,0.5-0.5s0.5,0.22363,0.5,0.5v1.64746c0,0.13672,0.22363,0.29541,0.51172,0.29541h1.08301
					c0.3125,0,0.51172-0.1748,0.51172-0.29541V9.41662c0-0.27637,0.22363-0.5,0.5-0.5s0.5,0.22363,0.5,0.5v1.64746
					C57.25049,11.77844,56.57227,12.35949,55.73877,12.35949z"/>
			</g>
			<g>
				<path fill="#C9C9C9" d="M60.54004,12.35949h-1.0835c-0.8335,0-1.51123-0.58105-1.51123-1.29541V9.41662
					c0-0.27637,0.22363-0.5,0.5-0.5s0.5,0.22363,0.5,0.5v1.64746c0,0.13672,0.22314,0.29541,0.51123,0.29541h1.0835
					c0.3125,0,0.51172-0.1748,0.51172-0.29541V9.41662c0-0.27637,0.22363-0.5,0.5-0.5s0.5,0.22363,0.5,0.5v1.64746
					C62.05176,11.77844,61.37354,12.35949,60.54004,12.35949z"/>
			</g>
			<g>
				<path fill="#C9C9C9" d="M65.34131,12.35949h-1.0835c-0.8335,0-1.51123-0.58105-1.51123-1.29541V9.41662
					c0-0.27637,0.22363-0.5,0.5-0.5s0.5,0.22363,0.5,0.5v1.64746c0,0.13672,0.22314,0.29541,0.51123,0.29541h1.0835
					c0.2876,0,0.51123-0.15869,0.51123-0.29541V9.41662c0-0.27637,0.22363-0.5,0.5-0.5s0.5,0.22363,0.5,0.5v1.64746
					C66.85254,11.77844,66.1748,12.35949,65.34131,12.35949z"/>
			</g>
			<g>
				<path fill="#C9C9C9" d="M70.14258,12.35949h-1.08301c-0.83398,0-1.51172-0.58105-1.51172-1.29541V9.41662
					c0-0.27637,0.22363-0.5,0.5-0.5s0.5,0.22363,0.5,0.5v1.64746c0,0.13672,0.22363,0.29541,0.51172,0.29541h1.08301
					c0.3125,0,0.51172-0.1748,0.51172-0.29541V9.41662c0-0.27637,0.22363-0.5,0.5-0.5s0.5,0.22363,0.5,0.5v1.64746
					C71.6543,11.77844,70.97656,12.35949,70.14258,12.35949z"/>
			</g>
			<g>
				<path fill="#C9C9C9" d="M74.94336,12.35949h-1.08301c-0.83398,0-1.51172-0.58105-1.51172-1.29541V9.41662
					c0-0.27637,0.22363-0.5,0.5-0.5s0.5,0.22363,0.5,0.5v1.64746c0,0.12061,0.19922,0.29541,0.51172,0.29541h1.08301
					c0.3125,0,0.51172-0.1748,0.51172-0.29541V9.41662c0-0.27637,0.22363-0.5,0.5-0.5s0.5,0.22363,0.5,0.5v1.64746
					C76.45508,11.77844,75.77734,12.35949,74.94336,12.35949z"/>
			</g>
			<g>
				<path fill="#C9C9C9" d="M79.74512,12.35949h-1.08398c-0.83301,0-1.51074-0.58105-1.51074-1.29541V9.41662
					c0-0.27637,0.22363-0.5,0.5-0.5s0.5,0.22363,0.5,0.5v1.64746c0,0.13672,0.22266,0.29541,0.51074,0.29541h1.08398
					c0.3125,0,0.51172-0.1748,0.51172-0.29541V9.41662c0-0.27637,0.22363-0.5,0.5-0.5s0.5,0.22363,0.5,0.5v1.64746
					C81.25684,11.77844,80.5791,12.35949,79.74512,12.35949z"/>
			</g>
			<g>
				<path fill="#C9C9C9" d="M84.5459,12.35949h-1.08301c-0.83398,0-1.51172-0.58105-1.51172-1.29541V9.41662
					c0-0.27637,0.22363-0.5,0.5-0.5s0.5,0.22363,0.5,0.5v1.64746c0,0.12061,0.19922,0.29541,0.51172,0.29541h1.08301
					c0.3125,0,0.51172-0.1748,0.51172-0.29541V9.41662c0-0.27637,0.22363-0.5,0.5-0.5s0.5,0.22363,0.5,0.5v1.64746
					C86.05762,11.77844,85.37988,12.35949,84.5459,12.35949z"/>
			</g>
			<g>
				<path fill="#C9C9C9" d="M89.34766,12.35949h-1.08398c-0.83398,0-1.51172-0.58105-1.51172-1.29541V9.41662
					c0-0.27637,0.22363-0.5,0.5-0.5s0.5,0.22363,0.5,0.5v1.64746c0,0.12061,0.19922,0.29541,0.51172,0.29541h1.08398
					c0.28809,0,0.51074-0.15869,0.51074-0.29541V9.41662c0-0.27637,0.22363-0.5,0.5-0.5s0.5,0.22363,0.5,0.5v1.64746
					C90.8584,11.77844,90.18066,12.35949,89.34766,12.35949z"/>
			</g>
			<g>
				<path fill="#C9C9C9" d="M94.14844,12.35949h-1.08301c-0.83398,0-1.51172-0.58105-1.51172-1.29541V9.41662
					c0-0.27637,0.22363-0.5,0.5-0.5s0.5,0.22363,0.5,0.5v1.64746c0,0.12061,0.19922,0.29541,0.51172,0.29541h1.08301
					c0.3125,0,0.51172-0.1748,0.51172-0.29541V9.41662c0-0.27637,0.22363-0.5,0.5-0.5s0.5,0.22363,0.5,0.5v1.64746
					C95.66016,11.77844,94.98242,12.35949,94.14844,12.35949z"/>
			</g>
			<g>
				<path fill="#C9C9C9" d="M98.94922,12.35949h-1.08301c-0.83398,0-1.51172-0.58105-1.51172-1.29541V9.41662
					c0-0.27637,0.22363-0.5,0.5-0.5s0.5,0.22363,0.5,0.5v1.64746c0,0.12061,0.19922,0.29541,0.51172,0.29541h1.08301
					c0.28809,0,0.51172-0.15869,0.51172-0.29541V9.41662c0-0.27637,0.22363-0.5,0.5-0.5s0.5,0.22363,0.5,0.5v1.64746
					C100.46094,11.77844,99.7832,12.35949,98.94922,12.35949z"/>
			</g>
			<g>
				<path fill="#C9C9C9" d="M103.75098,12.35949h-1.08301c-0.83398,0-1.51172-0.58105-1.51172-1.29541V9.41662
					c0-0.27637,0.22363-0.5,0.5-0.5s0.5,0.22363,0.5,0.5v1.64746c0,0.13672,0.22363,0.29541,0.51172,0.29541h1.08301
					c0.3125,0,0.51172-0.1748,0.51172-0.29541V9.41662c0-0.27637,0.22363-0.5,0.5-0.5s0.5,0.22363,0.5,0.5v1.64746
					C105.2627,11.77844,104.58496,12.35949,103.75098,12.35949z"/>
			</g>
			<g>
				<path fill="#C9C9C9" d="M108.55176,12.35949h-1.08301c-0.83398,0-1.51172-0.58105-1.51172-1.29541V9.41662
					c0-0.27637,0.22363-0.5,0.5-0.5s0.5,0.22363,0.5,0.5v1.64746c0,0.12061,0.19922,0.29541,0.51172,0.29541h1.08301
					c0.3125,0,0.51172-0.1748,0.51172-0.29541V9.41662c0-0.27637,0.22363-0.5,0.5-0.5s0.5,0.22363,0.5,0.5v1.64746
					C110.06348,11.77844,109.38574,12.35949,108.55176,12.35949z"/>
			</g>
			<g>
				<path fill="#C9C9C9" d="M113.35352,12.35949h-1.08398c-0.83301,0-1.51074-0.58105-1.51074-1.29541V9.41662
					c0-0.27637,0.22363-0.5,0.5-0.5s0.5,0.22363,0.5,0.5v1.64746c0,0.13672,0.22266,0.29541,0.51074,0.29541h1.08398
					c0.3125,0,0.51172-0.1748,0.51172-0.29541V9.41662c0-0.27637,0.22363-0.5,0.5-0.5s0.5,0.22363,0.5,0.5v1.64746
					C114.86523,11.77844,114.1875,12.35949,113.35352,12.35949z"/>
			</g>
			<g>
				<path fill="#C9C9C9" d="M118.1543,12.35949h-1.08301c-0.83398,0-1.51172-0.58105-1.51172-1.29541V9.41662
					c0-0.27637,0.22363-0.5,0.5-0.5s0.5,0.22363,0.5,0.5v1.64746c0,0.12061,0.19922,0.29541,0.51172,0.29541h1.08301
					c0.3125,0,0.51172-0.1748,0.51172-0.29541V9.41662c0-0.27637,0.22363-0.5,0.5-0.5s0.5,0.22363,0.5,0.5v1.64746
					C119.66602,11.77844,118.98828,12.35949,118.1543,12.35949z"/>
			</g>
			<g>
				<path fill="#C9C9C9" d="M122.95605,12.35949h-1.08398c-0.83398,0-1.51172-0.58105-1.51172-1.29541V9.41662
					c0-0.27637,0.22363-0.5,0.5-0.5s0.5,0.22363,0.5,0.5v1.64746c0,0.12061,0.19922,0.29541,0.51172,0.29541h1.08398
					c0.28809,0,0.51074-0.15869,0.51074-0.29541V9.41662c0-0.27637,0.22363-0.5,0.5-0.5s0.5,0.22363,0.5,0.5v1.64746
					C124.4668,11.77844,123.78906,12.35949,122.95605,12.35949z"/>
			</g>
			<g>
				<path fill="#C9C9C9" d="M127.75684,12.35949h-1.08301c-0.83398,0-1.51172-0.58105-1.51172-1.29541V9.41662
					c0-0.27637,0.22363-0.5,0.5-0.5s0.5,0.22363,0.5,0.5v1.64746c0,0.12061,0.19922,0.29541,0.51172,0.29541h1.08301
					c0.3125,0,0.51172-0.1748,0.51172-0.29541V9.41662c0-0.27637,0.22363-0.5,0.5-0.5s0.5,0.22363,0.5,0.5v1.64746
					C129.26855,11.77844,128.59082,12.35949,127.75684,12.35949z"/>
			</g>
			<g>
				<path fill="#C9C9C9" d="M2.92578,16.20959h-1.0835c-0.8335,0-1.51123-0.58105-1.51123-1.29541v-1.64746
					c0-0.27637,0.22363-0.5,0.5-0.5s0.5,0.22363,0.5,0.5v1.64746c0,0.13672,0.22314,0.29541,0.51123,0.29541h1.0835
					c0.28809,0,0.51172-0.15869,0.51172-0.29541v-1.64746c0-0.27637,0.22363-0.5,0.5-0.5s0.5,0.22363,0.5,0.5v1.64746
					C4.4375,15.62853,3.75928,16.20959,2.92578,16.20959z"/>
			</g>
			<g>
				<path fill="#C9C9C9" d="M7.72705,16.20959h-1.0835c-0.8335,0-1.51172-0.58105-1.51172-1.29541v-1.64746
					c0-0.27637,0.22363-0.5,0.5-0.5s0.5,0.22363,0.5,0.5v1.64746c0,0.13672,0.22363,0.29541,0.51172,0.29541h1.0835
					c0.28809,0,0.51123-0.15869,0.51123-0.29541v-1.64746c0-0.27637,0.22363-0.5,0.5-0.5s0.5,0.22363,0.5,0.5v1.64746
					C9.23828,15.62853,8.56055,16.20959,7.72705,16.20959z"/>
			</g>
			<g>
				<path fill="#C9C9C9" d="M12.52832,16.20959h-1.0835c-0.8335,0-1.51172-0.58105-1.51172-1.29541v-1.64746
					c0-0.27637,0.22363-0.5,0.5-0.5s0.5,0.22363,0.5,0.5v1.64746c0,0.13672,0.22363,0.29541,0.51172,0.29541h1.0835
					c0.28809,0,0.51123-0.15869,0.51123-0.29541v-1.64746c0-0.27637,0.22363-0.5,0.5-0.5s0.5,0.22363,0.5,0.5v1.64746
					C14.03955,15.62853,13.36182,16.20959,12.52832,16.20959z"/>
			</g>
			<g>
				<path fill="#C9C9C9" d="M17.3291,16.20959h-1.08301c-0.8335,0-1.51172-0.58105-1.51172-1.29541v-1.64746
					c0-0.27637,0.22363-0.5,0.5-0.5s0.5,0.22363,0.5,0.5v1.64746c0,0.13672,0.22363,0.29541,0.51172,0.29541h1.08301
					c0.28809,0,0.51172-0.15869,0.51172-0.29541v-1.64746c0-0.27637,0.22363-0.5,0.5-0.5s0.5,0.22363,0.5,0.5v1.64746
					C18.84082,15.62853,18.1626,16.20959,17.3291,16.20959z"/>
			</g>
			<g>
				<path fill="#C9C9C9" d="M22.13037,16.20959h-1.08301c-0.8335,0-1.51172-0.58105-1.51172-1.29541v-1.64746
					c0-0.27637,0.22363-0.5,0.5-0.5s0.5,0.22363,0.5,0.5v1.64746c0,0.13672,0.22363,0.29541,0.51172,0.29541h1.08301
					c0.28809,0,0.51172-0.15869,0.51172-0.29541v-1.64746c0-0.27637,0.22363-0.5,0.5-0.5s0.5,0.22363,0.5,0.5v1.64746
					C23.64209,15.62853,22.96387,16.20959,22.13037,16.20959z"/>
			</g>
			<g>
				<path fill="#C9C9C9" d="M26.93164,16.20959h-1.0835c-0.8335,0-1.51123-0.58105-1.51123-1.29541v-1.64746
					c0-0.27637,0.22363-0.5,0.5-0.5s0.5,0.22363,0.5,0.5v1.64746c0,0.13672,0.22314,0.29541,0.51123,0.29541h1.0835
					c0.28809,0,0.51172-0.15869,0.51172-0.29541v-1.64746c0-0.27637,0.22363-0.5,0.5-0.5s0.5,0.22363,0.5,0.5v1.64746
					C28.44336,15.62853,27.76514,16.20959,26.93164,16.20959z"/>
			</g>
			<g>
				<path fill="#C9C9C9" d="M31.73291,16.20959h-1.0835c-0.8335,0-1.51123-0.58105-1.51123-1.29541v-1.64746
					c0-0.27637,0.22363-0.5,0.5-0.5s0.5,0.22363,0.5,0.5v1.64746c0,0.13672,0.22314,0.29541,0.51123,0.29541h1.0835
					c0.28809,0,0.51172-0.15869,0.51172-0.29541v-1.64746c0-0.27637,0.22363-0.5,0.5-0.5s0.5,0.22363,0.5,0.5v1.64746
					C33.24463,15.62853,32.56641,16.20959,31.73291,16.20959z"/>
			</g>
			<g>
				<path fill="#C9C9C9" d="M36.53418,16.20959h-1.0835c-0.8335,0-1.51172-0.58105-1.51172-1.29541v-1.64746
					c0-0.27637,0.22363-0.5,0.5-0.5s0.5,0.22363,0.5,0.5v1.64746c0,0.13672,0.22363,0.29541,0.51172,0.29541h1.0835
					c0.28809,0,0.51172-0.15869,0.51172-0.29541v-1.64746c0-0.27637,0.22363-0.5,0.5-0.5s0.5,0.22363,0.5,0.5v1.64746
					C38.0459,15.62853,37.36768,16.20959,36.53418,16.20959z"/>
			</g>
			<g>
				<path fill="#C9C9C9" d="M41.33545,16.20959h-1.0835c-0.8335,0-1.51172-0.58105-1.51172-1.29541v-1.64746
					c0-0.27637,0.22363-0.5,0.5-0.5s0.5,0.22363,0.5,0.5v1.64746c0,0.13672,0.22363,0.29541,0.51172,0.29541h1.0835
					c0.28809,0,0.51123-0.15869,0.51123-0.29541v-1.64746c0-0.27637,0.22363-0.5,0.5-0.5s0.5,0.22363,0.5,0.5v1.64746
					C42.84668,15.62853,42.16895,16.20959,41.33545,16.20959z"/>
			</g>
			<g>
				<path fill="#C9C9C9" d="M46.13672,16.20959h-1.0835c-0.8335,0-1.51172-0.58105-1.51172-1.29541v-1.64746
					c0-0.27637,0.22363-0.5,0.5-0.5s0.5,0.22363,0.5,0.5v1.64746c0,0.13672,0.22363,0.29541,0.51172,0.29541h1.0835
					c0.28809,0,0.51123-0.15869,0.51123-0.29541v-1.64746c0-0.27637,0.22363-0.5,0.5-0.5s0.5,0.22363,0.5,0.5v1.64746
					C47.64795,15.62853,46.97021,16.20959,46.13672,16.20959z"/>
			</g>
			<g>
				<path fill="#C9C9C9" d="M50.9375,16.20959h-1.08301c-0.8335,0-1.51172-0.58105-1.51172-1.29541v-1.64746
					c0-0.27637,0.22363-0.5,0.5-0.5s0.5,0.22363,0.5,0.5v1.64746c0,0.13672,0.22363,0.29541,0.51172,0.29541h1.08301
					c0.28809,0,0.51172-0.15869,0.51172-0.29541v-1.64746c0-0.27637,0.22363-0.5,0.5-0.5s0.5,0.22363,0.5,0.5v1.64746
					C52.44922,15.62853,51.771,16.20959,50.9375,16.20959z"/>
			</g>
			<g>
				<path fill="#C9C9C9" d="M55.73877,16.20959h-1.08301c-0.8335,0-1.51172-0.58105-1.51172-1.29541v-1.64746
					c0-0.27637,0.22363-0.5,0.5-0.5s0.5,0.22363,0.5,0.5v1.64746c0,0.13672,0.22363,0.29541,0.51172,0.29541h1.08301
					c0.28809,0,0.51172-0.15869,0.51172-0.29541v-1.64746c0-0.27637,0.22363-0.5,0.5-0.5s0.5,0.22363,0.5,0.5v1.64746
					C57.25049,15.62853,56.57227,16.20959,55.73877,16.20959z"/>
			</g>
			<g>
				<path fill="#C9C9C9" d="M60.54004,16.20959h-1.0835c-0.8335,0-1.51123-0.58105-1.51123-1.29541v-1.64746
					c0-0.27637,0.22363-0.5,0.5-0.5s0.5,0.22363,0.5,0.5v1.64746c0,0.13672,0.22314,0.29541,0.51123,0.29541h1.0835
					c0.28809,0,0.51172-0.15869,0.51172-0.29541v-1.64746c0-0.27637,0.22363-0.5,0.5-0.5s0.5,0.22363,0.5,0.5v1.64746
					C62.05176,15.62853,61.37354,16.20959,60.54004,16.20959z"/>
			</g>
			<g>
				<path fill="#C9C9C9" d="M65.34131,16.20959h-1.0835c-0.8335,0-1.51123-0.58105-1.51123-1.29541v-1.64746
					c0-0.27637,0.22363-0.5,0.5-0.5s0.5,0.22363,0.5,0.5v1.64746c0,0.13672,0.22314,0.29541,0.51123,0.29541h1.0835
					c0.2876,0,0.51123-0.15869,0.51123-0.29541v-1.64746c0-0.27637,0.22363-0.5,0.5-0.5s0.5,0.22363,0.5,0.5v1.64746
					C66.85254,15.62853,66.1748,16.20959,65.34131,16.20959z"/>
			</g>
			<g>
				<path fill="#C9C9C9" d="M70.14258,16.20959h-1.08301c-0.83398,0-1.51172-0.58105-1.51172-1.29541v-1.64746
					c0-0.27637,0.22363-0.5,0.5-0.5s0.5,0.22363,0.5,0.5v1.64746c0,0.13672,0.22363,0.29541,0.51172,0.29541h1.08301
					c0.28809,0,0.51172-0.15869,0.51172-0.29541v-1.64746c0-0.27637,0.22363-0.5,0.5-0.5s0.5,0.22363,0.5,0.5v1.64746
					C71.6543,15.62853,70.97656,16.20959,70.14258,16.20959z"/>
			</g>
			<g>
				<path fill="#C9C9C9" d="M74.94336,16.20959h-1.08301c-0.83398,0-1.51172-0.58105-1.51172-1.29541v-1.64746
					c0-0.27637,0.22363-0.5,0.5-0.5s0.5,0.22363,0.5,0.5v1.64746c0,0.13672,0.22363,0.29541,0.51172,0.29541h1.08301
					c0.28809,0,0.51172-0.15869,0.51172-0.29541v-1.64746c0-0.27637,0.22363-0.5,0.5-0.5s0.5,0.22363,0.5,0.5v1.64746
					C76.45508,15.62853,75.77734,16.20959,74.94336,16.20959z"/>
			</g>
			<g>
				<path fill="#C9C9C9" d="M79.74512,16.20959h-1.08398c-0.83301,0-1.51074-0.58105-1.51074-1.29541v-1.64746
					c0-0.27637,0.22363-0.5,0.5-0.5s0.5,0.22363,0.5,0.5v1.64746c0,0.13672,0.22266,0.29541,0.51074,0.29541h1.08398
					c0.28809,0,0.51172-0.15869,0.51172-0.29541v-1.64746c0-0.27637,0.22363-0.5,0.5-0.5s0.5,0.22363,0.5,0.5v1.64746
					C81.25684,15.62853,80.5791,16.20959,79.74512,16.20959z"/>
			</g>
			<g>
				<path fill="#C9C9C9" d="M84.5459,16.20959h-1.08301c-0.83398,0-1.51172-0.58105-1.51172-1.29541v-1.64746
					c0-0.27637,0.22363-0.5,0.5-0.5s0.5,0.22363,0.5,0.5v1.64746c0,0.13672,0.22363,0.29541,0.51172,0.29541h1.08301
					c0.28809,0,0.51172-0.15869,0.51172-0.29541v-1.64746c0-0.27637,0.22363-0.5,0.5-0.5s0.5,0.22363,0.5,0.5v1.64746
					C86.05762,15.62853,85.37988,16.20959,84.5459,16.20959z"/>
			</g>
			<g>
				<path fill="#C9C9C9" d="M89.34766,16.20959h-1.08398c-0.83398,0-1.51172-0.58105-1.51172-1.29541v-1.64746
					c0-0.27637,0.22363-0.5,0.5-0.5s0.5,0.22363,0.5,0.5v1.64746c0,0.13672,0.22363,0.29541,0.51172,0.29541h1.08398
					c0.28809,0,0.51074-0.15869,0.51074-0.29541v-1.64746c0-0.27637,0.22363-0.5,0.5-0.5s0.5,0.22363,0.5,0.5v1.64746
					C90.8584,15.62853,90.18066,16.20959,89.34766,16.20959z"/>
			</g>
			<g>
				<path fill="#C9C9C9" d="M94.14844,16.20959h-1.08301c-0.83398,0-1.51172-0.58105-1.51172-1.29541v-1.64746
					c0-0.27637,0.22363-0.5,0.5-0.5s0.5,0.22363,0.5,0.5v1.64746c0,0.13672,0.22363,0.29541,0.51172,0.29541h1.08301
					c0.28809,0,0.51172-0.15869,0.51172-0.29541v-1.64746c0-0.27637,0.22363-0.5,0.5-0.5s0.5,0.22363,0.5,0.5v1.64746
					C95.66016,15.62853,94.98242,16.20959,94.14844,16.20959z"/>
			</g>
			<g>
				<path fill="#C9C9C9" d="M98.94922,16.20959h-1.08301c-0.83398,0-1.51172-0.58105-1.51172-1.29541v-1.64746
					c0-0.27637,0.22363-0.5,0.5-0.5s0.5,0.22363,0.5,0.5v1.64746c0,0.13672,0.22363,0.29541,0.51172,0.29541h1.08301
					c0.28809,0,0.51172-0.15869,0.51172-0.29541v-1.64746c0-0.27637,0.22363-0.5,0.5-0.5s0.5,0.22363,0.5,0.5v1.64746
					C100.46094,15.62853,99.7832,16.20959,98.94922,16.20959z"/>
			</g>
			<g>
				<path fill="#C9C9C9" d="M103.75098,16.20959h-1.08301c-0.83398,0-1.51172-0.58105-1.51172-1.29541v-1.64746
					c0-0.27637,0.22363-0.5,0.5-0.5s0.5,0.22363,0.5,0.5v1.64746c0,0.13672,0.22363,0.29541,0.51172,0.29541h1.08301
					c0.28809,0,0.51172-0.15869,0.51172-0.29541v-1.64746c0-0.27637,0.22363-0.5,0.5-0.5s0.5,0.22363,0.5,0.5v1.64746
					C105.2627,15.62853,104.58496,16.20959,103.75098,16.20959z"/>
			</g>
			<g>
				<path fill="#C9C9C9" d="M108.55176,16.20959h-1.08301c-0.83398,0-1.51172-0.58105-1.51172-1.29541v-1.64746
					c0-0.27637,0.22363-0.5,0.5-0.5s0.5,0.22363,0.5,0.5v1.64746c0,0.13672,0.22363,0.29541,0.51172,0.29541h1.08301
					c0.28809,0,0.51172-0.15869,0.51172-0.29541v-1.64746c0-0.27637,0.22363-0.5,0.5-0.5s0.5,0.22363,0.5,0.5v1.64746
					C110.06348,15.62853,109.38574,16.20959,108.55176,16.20959z"/>
			</g>
			<g>
				<path fill="#C9C9C9" d="M113.35352,16.20959h-1.08398c-0.83301,0-1.51074-0.58105-1.51074-1.29541v-1.64746
					c0-0.27637,0.22363-0.5,0.5-0.5s0.5,0.22363,0.5,0.5v1.64746c0,0.13672,0.22266,0.29541,0.51074,0.29541h1.08398
					c0.28809,0,0.51172-0.15869,0.51172-0.29541v-1.64746c0-0.27637,0.22363-0.5,0.5-0.5s0.5,0.22363,0.5,0.5v1.64746
					C114.86523,15.62853,114.1875,16.20959,113.35352,16.20959z"/>
			</g>
			<g>
				<path fill="#C9C9C9" d="M118.1543,16.20959h-1.08301c-0.83398,0-1.51172-0.58105-1.51172-1.29541v-1.64746
					c0-0.27637,0.22363-0.5,0.5-0.5s0.5,0.22363,0.5,0.5v1.64746c0,0.13672,0.22363,0.29541,0.51172,0.29541h1.08301
					c0.28809,0,0.51172-0.15869,0.51172-0.29541v-1.64746c0-0.27637,0.22363-0.5,0.5-0.5s0.5,0.22363,0.5,0.5v1.64746
					C119.66602,15.62853,118.98828,16.20959,118.1543,16.20959z"/>
			</g>
			<g>
				<path fill="#C9C9C9" d="M122.95605,16.20959h-1.08398c-0.83398,0-1.51172-0.58105-1.51172-1.29541v-1.64746
					c0-0.27637,0.22363-0.5,0.5-0.5s0.5,0.22363,0.5,0.5v1.64746c0,0.13672,0.22363,0.29541,0.51172,0.29541h1.08398
					c0.28809,0,0.51074-0.15869,0.51074-0.29541v-1.64746c0-0.27637,0.22363-0.5,0.5-0.5s0.5,0.22363,0.5,0.5v1.64746
					C124.4668,15.62853,123.78906,16.20959,122.95605,16.20959z"/>
			</g>
			<g>
				<path fill="#C9C9C9" d="M127.75684,16.20959h-1.08301c-0.83398,0-1.51172-0.58105-1.51172-1.29541v-1.64746
					c0-0.27637,0.22363-0.5,0.5-0.5s0.5,0.22363,0.5,0.5v1.64746c0,0.13672,0.22363,0.29541,0.51172,0.29541h1.08301
					c0.28809,0,0.51172-0.15869,0.51172-0.29541v-1.64746c0-0.27637,0.22363-0.5,0.5-0.5s0.5,0.22363,0.5,0.5v1.64746
					C129.26855,15.62853,128.59082,16.20959,127.75684,16.20959z"/>
			</g>
			<g>
				<path fill="#C9C9C9" d="M2.92578,20.06017h-1.0835c-0.8335,0-1.51123-0.58105-1.51123-1.29541V17.1173
					c0-0.27637,0.22363-0.5,0.5-0.5s0.5,0.22363,0.5,0.5v1.64746c0,0.13672,0.22314,0.29541,0.51123,0.29541h1.0835
					c0.28809,0,0.51172-0.15869,0.51172-0.29541V17.1173c0-0.27637,0.22363-0.5,0.5-0.5s0.5,0.22363,0.5,0.5v1.64746
					C4.4375,19.47912,3.75928,20.06017,2.92578,20.06017z"/>
			</g>
			<g>
				<path fill="#C9C9C9" d="M7.72705,20.06017h-1.0835c-0.8335,0-1.51172-0.58105-1.51172-1.29541V17.1173
					c0-0.27637,0.22363-0.5,0.5-0.5s0.5,0.22363,0.5,0.5v1.64746c0,0.13672,0.22363,0.29541,0.51172,0.29541h1.0835
					c0.28809,0,0.51123-0.15869,0.51123-0.29541V17.1173c0-0.27637,0.22363-0.5,0.5-0.5s0.5,0.22363,0.5,0.5v1.64746
					C9.23828,19.47912,8.56055,20.06017,7.72705,20.06017z"/>
			</g>
			<g>
				<path fill="#C9C9C9" d="M12.52832,20.06017h-1.0835c-0.8335,0-1.51172-0.58105-1.51172-1.29541V17.1173
					c0-0.27637,0.22363-0.5,0.5-0.5s0.5,0.22363,0.5,0.5v1.64746c0,0.13672,0.22363,0.29541,0.51172,0.29541h1.0835
					c0.28809,0,0.51123-0.15869,0.51123-0.29541V17.1173c0-0.27637,0.22363-0.5,0.5-0.5s0.5,0.22363,0.5,0.5v1.64746
					C14.03955,19.47912,13.36182,20.06017,12.52832,20.06017z"/>
			</g>
			<g>
				<path fill="#C9C9C9" d="M17.3291,20.06017h-1.08301c-0.8335,0-1.51172-0.58105-1.51172-1.29541V17.1173
					c0-0.27637,0.22363-0.5,0.5-0.5s0.5,0.22363,0.5,0.5v1.64746c0,0.13672,0.22363,0.29541,0.51172,0.29541h1.08301
					c0.28809,0,0.51172-0.15869,0.51172-0.29541V17.1173c0-0.27637,0.22363-0.5,0.5-0.5s0.5,0.22363,0.5,0.5v1.64746
					C18.84082,19.47912,18.1626,20.06017,17.3291,20.06017z"/>
			</g>
			<g>
				<path fill="#C9C9C9" d="M22.13037,20.06017h-1.08301c-0.8335,0-1.51172-0.58105-1.51172-1.29541V17.1173
					c0-0.27637,0.22363-0.5,0.5-0.5s0.5,0.22363,0.5,0.5v1.64746c0,0.13672,0.22363,0.29541,0.51172,0.29541h1.08301
					c0.28809,0,0.51172-0.15869,0.51172-0.29541V17.1173c0-0.27637,0.22363-0.5,0.5-0.5s0.5,0.22363,0.5,0.5v1.64746
					C23.64209,19.47912,22.96387,20.06017,22.13037,20.06017z"/>
			</g>
			<g>
				<path fill="#C9C9C9" d="M26.93164,20.06017h-1.0835c-0.8335,0-1.51123-0.58105-1.51123-1.29541V17.1173
					c0-0.27637,0.22363-0.5,0.5-0.5s0.5,0.22363,0.5,0.5v1.64746c0,0.13672,0.22314,0.29541,0.51123,0.29541h1.0835
					c0.28809,0,0.51172-0.15869,0.51172-0.29541V17.1173c0-0.27637,0.22363-0.5,0.5-0.5s0.5,0.22363,0.5,0.5v1.64746
					C28.44336,19.47912,27.76514,20.06017,26.93164,20.06017z"/>
			</g>
			<g>
				<path fill="#C9C9C9" d="M31.73291,20.06017h-1.0835c-0.8335,0-1.51123-0.58105-1.51123-1.29541V17.1173
					c0-0.27637,0.22363-0.5,0.5-0.5s0.5,0.22363,0.5,0.5v1.64746c0,0.13672,0.22314,0.29541,0.51123,0.29541h1.0835
					c0.28809,0,0.51172-0.15869,0.51172-0.29541V17.1173c0-0.27637,0.22363-0.5,0.5-0.5s0.5,0.22363,0.5,0.5v1.64746
					C33.24463,19.47912,32.56641,20.06017,31.73291,20.06017z"/>
			</g>
			<g>
				<path fill="#C9C9C9" d="M36.53418,20.06017h-1.0835c-0.8335,0-1.51172-0.58105-1.51172-1.29541V17.1173
					c0-0.27637,0.22363-0.5,0.5-0.5s0.5,0.22363,0.5,0.5v1.64746c0,0.13672,0.22363,0.29541,0.51172,0.29541h1.0835
					c0.28809,0,0.51172-0.15869,0.51172-0.29541V17.1173c0-0.27637,0.22363-0.5,0.5-0.5s0.5,0.22363,0.5,0.5v1.64746
					C38.0459,19.47912,37.36768,20.06017,36.53418,20.06017z"/>
			</g>
			<g>
				<path fill="#C9C9C9" d="M41.33545,20.06017h-1.0835c-0.8335,0-1.51172-0.58105-1.51172-1.29541V17.1173
					c0-0.27637,0.22363-0.5,0.5-0.5s0.5,0.22363,0.5,0.5v1.64746c0,0.13672,0.22363,0.29541,0.51172,0.29541h1.0835
					c0.28809,0,0.51123-0.15869,0.51123-0.29541V17.1173c0-0.27637,0.22363-0.5,0.5-0.5s0.5,0.22363,0.5,0.5v1.64746
					C42.84668,19.47912,42.16895,20.06017,41.33545,20.06017z"/>
			</g>
			<g>
				<path fill="#C9C9C9" d="M46.13672,20.06017h-1.0835c-0.8335,0-1.51172-0.58105-1.51172-1.29541V17.1173
					c0-0.27637,0.22363-0.5,0.5-0.5s0.5,0.22363,0.5,0.5v1.64746c0,0.13672,0.22363,0.29541,0.51172,0.29541h1.0835
					c0.28809,0,0.51123-0.15869,0.51123-0.29541V17.1173c0-0.27637,0.22363-0.5,0.5-0.5s0.5,0.22363,0.5,0.5v1.64746
					C47.64795,19.47912,46.97021,20.06017,46.13672,20.06017z"/>
			</g>
			<g>
				<path fill="#C9C9C9" d="M50.9375,20.06017h-1.08301c-0.8335,0-1.51172-0.58105-1.51172-1.29541V17.1173
					c0-0.27637,0.22363-0.5,0.5-0.5s0.5,0.22363,0.5,0.5v1.64746c0,0.13672,0.22363,0.29541,0.51172,0.29541h1.08301
					c0.28809,0,0.51172-0.15869,0.51172-0.29541V17.1173c0-0.27637,0.22363-0.5,0.5-0.5s0.5,0.22363,0.5,0.5v1.64746
					C52.44922,19.47912,51.771,20.06017,50.9375,20.06017z"/>
			</g>
			<g>
				<path fill="#C9C9C9" d="M55.73877,20.06017h-1.08301c-0.8335,0-1.51172-0.58105-1.51172-1.29541V17.1173
					c0-0.27637,0.22363-0.5,0.5-0.5s0.5,0.22363,0.5,0.5v1.64746c0,0.13672,0.22363,0.29541,0.51172,0.29541h1.08301
					c0.28809,0,0.51172-0.15869,0.51172-0.29541V17.1173c0-0.27637,0.22363-0.5,0.5-0.5s0.5,0.22363,0.5,0.5v1.64746
					C57.25049,19.47912,56.57227,20.06017,55.73877,20.06017z"/>
			</g>
			<g>
				<path fill="#C9C9C9" d="M60.54004,20.06017h-1.0835c-0.8335,0-1.51123-0.58105-1.51123-1.29541V17.1173
					c0-0.27637,0.22363-0.5,0.5-0.5s0.5,0.22363,0.5,0.5v1.64746c0,0.13672,0.22314,0.29541,0.51123,0.29541h1.0835
					c0.28809,0,0.51172-0.15869,0.51172-0.29541V17.1173c0-0.27637,0.22363-0.5,0.5-0.5s0.5,0.22363,0.5,0.5v1.64746
					C62.05176,19.47912,61.37354,20.06017,60.54004,20.06017z"/>
			</g>
			<g>
				<path fill="#C9C9C9" d="M65.34131,20.06017h-1.0835c-0.8335,0-1.51123-0.58105-1.51123-1.29541V17.1173
					c0-0.27637,0.22363-0.5,0.5-0.5s0.5,0.22363,0.5,0.5v1.64746c0,0.13672,0.22314,0.29541,0.51123,0.29541h1.0835
					c0.2876,0,0.51123-0.15869,0.51123-0.29541V17.1173c0-0.27637,0.22363-0.5,0.5-0.5s0.5,0.22363,0.5,0.5v1.64746
					C66.85254,19.47912,66.1748,20.06017,65.34131,20.06017z"/>
			</g>
			<g>
				<path fill="#C9C9C9" d="M70.14258,20.06017h-1.08301c-0.83398,0-1.51172-0.58105-1.51172-1.29541V17.1173
					c0-0.27637,0.22363-0.5,0.5-0.5s0.5,0.22363,0.5,0.5v1.64746c0,0.13672,0.22363,0.29541,0.51172,0.29541h1.08301
					c0.28809,0,0.51172-0.15869,0.51172-0.29541V17.1173c0-0.27637,0.22363-0.5,0.5-0.5s0.5,0.22363,0.5,0.5v1.64746
					C71.6543,19.47912,70.97656,20.06017,70.14258,20.06017z"/>
			</g>
			<g>
				<path fill="#C9C9C9" d="M74.94336,20.06017h-1.08301c-0.83398,0-1.51172-0.58105-1.51172-1.29541V17.1173
					c0-0.27637,0.22363-0.5,0.5-0.5s0.5,0.22363,0.5,0.5v1.64746c0,0.13672,0.22363,0.29541,0.51172,0.29541h1.08301
					c0.28809,0,0.51172-0.15869,0.51172-0.29541V17.1173c0-0.27637,0.22363-0.5,0.5-0.5s0.5,0.22363,0.5,0.5v1.64746
					C76.45508,19.47912,75.77734,20.06017,74.94336,20.06017z"/>
			</g>
			<g>
				<path fill="#C9C9C9" d="M79.74512,20.06017h-1.08398c-0.83301,0-1.51074-0.58105-1.51074-1.29541V17.1173
					c0-0.27637,0.22363-0.5,0.5-0.5s0.5,0.22363,0.5,0.5v1.64746c0,0.13672,0.22266,0.29541,0.51074,0.29541h1.08398
					c0.28809,0,0.51172-0.15869,0.51172-0.29541V17.1173c0-0.27637,0.22363-0.5,0.5-0.5s0.5,0.22363,0.5,0.5v1.64746
					C81.25684,19.47912,80.5791,20.06017,79.74512,20.06017z"/>
			</g>
			<g>
				<path fill="#C9C9C9" d="M84.5459,20.06017h-1.08301c-0.83398,0-1.51172-0.58105-1.51172-1.29541V17.1173
					c0-0.27637,0.22363-0.5,0.5-0.5s0.5,0.22363,0.5,0.5v1.64746c0,0.13672,0.22363,0.29541,0.51172,0.29541h1.08301
					c0.28809,0,0.51172-0.15869,0.51172-0.29541V17.1173c0-0.27637,0.22363-0.5,0.5-0.5s0.5,0.22363,0.5,0.5v1.64746
					C86.05762,19.47912,85.37988,20.06017,84.5459,20.06017z"/>
			</g>
			<g>
				<path fill="#C9C9C9" d="M89.34766,20.06017h-1.08398c-0.83398,0-1.51172-0.58105-1.51172-1.29541V17.1173
					c0-0.27637,0.22363-0.5,0.5-0.5s0.5,0.22363,0.5,0.5v1.64746c0,0.13672,0.22363,0.29541,0.51172,0.29541h1.08398
					c0.28809,0,0.51074-0.15869,0.51074-0.29541V17.1173c0-0.27637,0.22363-0.5,0.5-0.5s0.5,0.22363,0.5,0.5v1.64746
					C90.8584,19.47912,90.18066,20.06017,89.34766,20.06017z"/>
			</g>
			<g>
				<path fill="#C9C9C9" d="M94.14844,20.06017h-1.08301c-0.83398,0-1.51172-0.58105-1.51172-1.29541V17.1173
					c0-0.27637,0.22363-0.5,0.5-0.5s0.5,0.22363,0.5,0.5v1.64746c0,0.13672,0.22363,0.29541,0.51172,0.29541h1.08301
					c0.28809,0,0.51172-0.15869,0.51172-0.29541V17.1173c0-0.27637,0.22363-0.5,0.5-0.5s0.5,0.22363,0.5,0.5v1.64746
					C95.66016,19.47912,94.98242,20.06017,94.14844,20.06017z"/>
			</g>
			<g>
				<path fill="#C9C9C9" d="M98.94922,20.06017h-1.08301c-0.83398,0-1.51172-0.58105-1.51172-1.29541V17.1173
					c0-0.27637,0.22363-0.5,0.5-0.5s0.5,0.22363,0.5,0.5v1.64746c0,0.13672,0.22363,0.29541,0.51172,0.29541h1.08301
					c0.28809,0,0.51172-0.15869,0.51172-0.29541V17.1173c0-0.27637,0.22363-0.5,0.5-0.5s0.5,0.22363,0.5,0.5v1.64746
					C100.46094,19.47912,99.7832,20.06017,98.94922,20.06017z"/>
			</g>
			<g>
				<path fill="#C9C9C9" d="M103.75098,20.06017h-1.08301c-0.83398,0-1.51172-0.58105-1.51172-1.29541V17.1173
					c0-0.27637,0.22363-0.5,0.5-0.5s0.5,0.22363,0.5,0.5v1.64746c0,0.13672,0.22363,0.29541,0.51172,0.29541h1.08301
					c0.28809,0,0.51172-0.15869,0.51172-0.29541V17.1173c0-0.27637,0.22363-0.5,0.5-0.5s0.5,0.22363,0.5,0.5v1.64746
					C105.2627,19.47912,104.58496,20.06017,103.75098,20.06017z"/>
			</g>
			<g>
				<path fill="#C9C9C9" d="M108.55176,20.06017h-1.08301c-0.83398,0-1.51172-0.58105-1.51172-1.29541V17.1173
					c0-0.27637,0.22363-0.5,0.5-0.5s0.5,0.22363,0.5,0.5v1.64746c0,0.13672,0.22363,0.29541,0.51172,0.29541h1.08301
					c0.28809,0,0.51172-0.15869,0.51172-0.29541V17.1173c0-0.27637,0.22363-0.5,0.5-0.5s0.5,0.22363,0.5,0.5v1.64746
					C110.06348,19.47912,109.38574,20.06017,108.55176,20.06017z"/>
			</g>
			<g>
				<path fill="#C9C9C9" d="M113.35352,20.06017h-1.08398c-0.83301,0-1.51074-0.58105-1.51074-1.29541V17.1173
					c0-0.27637,0.22363-0.5,0.5-0.5s0.5,0.22363,0.5,0.5v1.64746c0,0.13672,0.22266,0.29541,0.51074,0.29541h1.08398
					c0.28809,0,0.51172-0.15869,0.51172-0.29541V17.1173c0-0.27637,0.22363-0.5,0.5-0.5s0.5,0.22363,0.5,0.5v1.64746
					C114.86523,19.47912,114.1875,20.06017,113.35352,20.06017z"/>
			</g>
			<g>
				<path fill="#C9C9C9" d="M118.1543,20.06017h-1.08301c-0.83398,0-1.51172-0.58105-1.51172-1.29541V17.1173
					c0-0.27637,0.22363-0.5,0.5-0.5s0.5,0.22363,0.5,0.5v1.64746c0,0.13672,0.22363,0.29541,0.51172,0.29541h1.08301
					c0.28809,0,0.51172-0.15869,0.51172-0.29541V17.1173c0-0.27637,0.22363-0.5,0.5-0.5s0.5,0.22363,0.5,0.5v1.64746
					C119.66602,19.47912,118.98828,20.06017,118.1543,20.06017z"/>
			</g>
			<g>
				<path fill="#C9C9C9" d="M122.95605,20.06017h-1.08398c-0.83398,0-1.51172-0.58105-1.51172-1.29541V17.1173
					c0-0.27637,0.22363-0.5,0.5-0.5s0.5,0.22363,0.5,0.5v1.64746c0,0.13672,0.22363,0.29541,0.51172,0.29541h1.08398
					c0.28809,0,0.51074-0.15869,0.51074-0.29541V17.1173c0-0.27637,0.22363-0.5,0.5-0.5s0.5,0.22363,0.5,0.5v1.64746
					C124.4668,19.47912,123.78906,20.06017,122.95605,20.06017z"/>
			</g>
			<g>
				<path fill="#C9C9C9" d="M127.75684,20.06017h-1.08301c-0.83398,0-1.51172-0.58105-1.51172-1.29541V17.1173
					c0-0.27637,0.22363-0.5,0.5-0.5s0.5,0.22363,0.5,0.5v1.64746c0,0.13672,0.22363,0.29541,0.51172,0.29541h1.08301
					c0.28809,0,0.51172-0.15869,0.51172-0.29541V17.1173c0-0.27637,0.22363-0.5,0.5-0.5s0.5,0.22363,0.5,0.5v1.64746
					C129.26855,19.47912,128.59082,20.06017,127.75684,20.06017z"/>
			</g>
			<g>
				<path fill="#C9C9C9" d="M2.92578,23.91076h-1.0835c-0.8335,0-1.51123-0.58154-1.51123-1.2959V20.9674
					c0-0.27637,0.22363-0.5,0.5-0.5s0.5,0.22363,0.5,0.5v1.64746c0,0.13672,0.22314,0.2959,0.51123,0.2959h1.0835
					c0.28809,0,0.51172-0.15918,0.51172-0.2959V20.9674c0-0.27637,0.22363-0.5,0.5-0.5s0.5,0.22363,0.5,0.5v1.64746
					C4.4375,23.32922,3.75928,23.91076,2.92578,23.91076z"/>
			</g>
			<g>
				<path fill="#C9C9C9" d="M7.72705,23.91076h-1.0835c-0.8335,0-1.51172-0.58154-1.51172-1.2959V20.9674
					c0-0.27637,0.22363-0.5,0.5-0.5s0.5,0.22363,0.5,0.5v1.64746c0,0.13672,0.22363,0.2959,0.51172,0.2959h1.0835
					c0.28809,0,0.51123-0.15918,0.51123-0.2959V20.9674c0-0.27637,0.22363-0.5,0.5-0.5s0.5,0.22363,0.5,0.5v1.64746
					C9.23828,23.32922,8.56055,23.91076,7.72705,23.91076z"/>
			</g>
			<g>
				<path fill="#C9C9C9" d="M12.52832,23.91076h-1.0835c-0.8335,0-1.51172-0.58154-1.51172-1.2959V20.9674
					c0-0.27637,0.22363-0.5,0.5-0.5s0.5,0.22363,0.5,0.5v1.64746c0,0.13672,0.22363,0.2959,0.51172,0.2959h1.0835
					c0.28809,0,0.51123-0.15918,0.51123-0.2959V20.9674c0-0.27637,0.22363-0.5,0.5-0.5s0.5,0.22363,0.5,0.5v1.64746
					C14.03955,23.32922,13.36182,23.91076,12.52832,23.91076z"/>
			</g>
			<g>
				<path fill="#C9C9C9" d="M17.3291,23.91076h-1.08301c-0.8335,0-1.51172-0.58154-1.51172-1.2959V20.9674
					c0-0.27637,0.22363-0.5,0.5-0.5s0.5,0.22363,0.5,0.5v1.64746c0,0.13672,0.22363,0.2959,0.51172,0.2959h1.08301
					c0.28809,0,0.51172-0.15918,0.51172-0.2959V20.9674c0-0.27637,0.22363-0.5,0.5-0.5s0.5,0.22363,0.5,0.5v1.64746
					C18.84082,23.32922,18.1626,23.91076,17.3291,23.91076z"/>
			</g>
			<g>
				<path fill="#C9C9C9" d="M22.13037,23.91076h-1.08301c-0.8335,0-1.51172-0.58154-1.51172-1.2959V20.9674
					c0-0.27637,0.22363-0.5,0.5-0.5s0.5,0.22363,0.5,0.5v1.64746c0,0.13672,0.22363,0.2959,0.51172,0.2959h1.08301
					c0.28809,0,0.51172-0.15918,0.51172-0.2959V20.9674c0-0.27637,0.22363-0.5,0.5-0.5s0.5,0.22363,0.5,0.5v1.64746
					C23.64209,23.32922,22.96387,23.91076,22.13037,23.91076z"/>
			</g>
			<g>
				<path fill="#C9C9C9" d="M26.93164,23.91076h-1.0835c-0.8335,0-1.51123-0.58154-1.51123-1.2959V20.9674
					c0-0.27637,0.22363-0.5,0.5-0.5s0.5,0.22363,0.5,0.5v1.64746c0,0.13672,0.22314,0.2959,0.51123,0.2959h1.0835
					c0.28809,0,0.51172-0.15918,0.51172-0.2959V20.9674c0-0.27637,0.22363-0.5,0.5-0.5s0.5,0.22363,0.5,0.5v1.64746
					C28.44336,23.32922,27.76514,23.91076,26.93164,23.91076z"/>
			</g>
			<g>
				<path fill="#C9C9C9" d="M31.73291,23.91076h-1.0835c-0.8335,0-1.51123-0.58154-1.51123-1.2959V20.9674
					c0-0.27637,0.22363-0.5,0.5-0.5s0.5,0.22363,0.5,0.5v1.64746c0,0.13672,0.22314,0.2959,0.51123,0.2959h1.0835
					c0.28809,0,0.51172-0.15918,0.51172-0.2959V20.9674c0-0.27637,0.22363-0.5,0.5-0.5s0.5,0.22363,0.5,0.5v1.64746
					C33.24463,23.32922,32.56641,23.91076,31.73291,23.91076z"/>
			</g>
			<g>
				<path fill="#C9C9C9" d="M36.53418,23.91076h-1.0835c-0.8335,0-1.51172-0.58154-1.51172-1.2959V20.9674
					c0-0.27637,0.22363-0.5,0.5-0.5s0.5,0.22363,0.5,0.5v1.64746c0,0.13672,0.22363,0.2959,0.51172,0.2959h1.0835
					c0.28809,0,0.51172-0.15918,0.51172-0.2959V20.9674c0-0.27637,0.22363-0.5,0.5-0.5s0.5,0.22363,0.5,0.5v1.64746
					C38.0459,23.32922,37.36768,23.91076,36.53418,23.91076z"/>
			</g>
			<g>
				<path fill="#C9C9C9" d="M41.33545,23.91076h-1.0835c-0.8335,0-1.51172-0.58154-1.51172-1.2959V20.9674
					c0-0.27637,0.22363-0.5,0.5-0.5s0.5,0.22363,0.5,0.5v1.64746c0,0.13672,0.22363,0.2959,0.51172,0.2959h1.0835
					c0.28809,0,0.51123-0.15918,0.51123-0.2959V20.9674c0-0.27637,0.22363-0.5,0.5-0.5s0.5,0.22363,0.5,0.5v1.64746
					C42.84668,23.32922,42.16895,23.91076,41.33545,23.91076z"/>
			</g>
			<g>
				<path fill="#C9C9C9" d="M46.13672,23.91076h-1.0835c-0.8335,0-1.51172-0.58154-1.51172-1.2959V20.9674
					c0-0.27637,0.22363-0.5,0.5-0.5s0.5,0.22363,0.5,0.5v1.64746c0,0.13672,0.22363,0.2959,0.51172,0.2959h1.0835
					c0.28809,0,0.51123-0.15918,0.51123-0.2959V20.9674c0-0.27637,0.22363-0.5,0.5-0.5s0.5,0.22363,0.5,0.5v1.64746
					C47.64795,23.32922,46.97021,23.91076,46.13672,23.91076z"/>
			</g>
			<g>
				<path fill="#C9C9C9" d="M50.9375,23.91076h-1.08301c-0.8335,0-1.51172-0.58154-1.51172-1.2959V20.9674
					c0-0.27637,0.22363-0.5,0.5-0.5s0.5,0.22363,0.5,0.5v1.64746c0,0.13672,0.22363,0.2959,0.51172,0.2959h1.08301
					c0.28809,0,0.51172-0.15918,0.51172-0.2959V20.9674c0-0.27637,0.22363-0.5,0.5-0.5s0.5,0.22363,0.5,0.5v1.64746
					C52.44922,23.32922,51.771,23.91076,50.9375,23.91076z"/>
			</g>
			<g>
				<path fill="#C9C9C9" d="M55.73877,23.91076h-1.08301c-0.8335,0-1.51172-0.58154-1.51172-1.2959V20.9674
					c0-0.27637,0.22363-0.5,0.5-0.5s0.5,0.22363,0.5,0.5v1.64746c0,0.13672,0.22363,0.2959,0.51172,0.2959h1.08301
					c0.28809,0,0.51172-0.15918,0.51172-0.2959V20.9674c0-0.27637,0.22363-0.5,0.5-0.5s0.5,0.22363,0.5,0.5v1.64746
					C57.25049,23.32922,56.57227,23.91076,55.73877,23.91076z"/>
			</g>
			<g>
				<path fill="#C9C9C9" d="M60.54004,23.91076h-1.0835c-0.8335,0-1.51123-0.58154-1.51123-1.2959V20.9674
					c0-0.27637,0.22363-0.5,0.5-0.5s0.5,0.22363,0.5,0.5v1.64746c0,0.13672,0.22314,0.2959,0.51123,0.2959h1.0835
					c0.28809,0,0.51172-0.15918,0.51172-0.2959V20.9674c0-0.27637,0.22363-0.5,0.5-0.5s0.5,0.22363,0.5,0.5v1.64746
					C62.05176,23.32922,61.37354,23.91076,60.54004,23.91076z"/>
			</g>
			<g>
				<path fill="#C9C9C9" d="M65.34131,23.91076h-1.0835c-0.8335,0-1.51123-0.58154-1.51123-1.2959V20.9674
					c0-0.27637,0.22363-0.5,0.5-0.5s0.5,0.22363,0.5,0.5v1.64746c0,0.13672,0.22314,0.2959,0.51123,0.2959h1.0835
					c0.2876,0,0.51123-0.15918,0.51123-0.2959V20.9674c0-0.27637,0.22363-0.5,0.5-0.5s0.5,0.22363,0.5,0.5v1.64746
					C66.85254,23.32922,66.1748,23.91076,65.34131,23.91076z"/>
			</g>
			<g>
				<path fill="#C9C9C9" d="M70.14258,23.91076h-1.08301c-0.83398,0-1.51172-0.58154-1.51172-1.2959V20.9674
					c0-0.27637,0.22363-0.5,0.5-0.5s0.5,0.22363,0.5,0.5v1.64746c0,0.13672,0.22363,0.2959,0.51172,0.2959h1.08301
					c0.28809,0,0.51172-0.15918,0.51172-0.2959V20.9674c0-0.27637,0.22363-0.5,0.5-0.5s0.5,0.22363,0.5,0.5v1.64746
					C71.6543,23.32922,70.97656,23.91076,70.14258,23.91076z"/>
			</g>
			<g>
				<path fill="#C9C9C9" d="M74.94336,23.91076h-1.08301c-0.83398,0-1.51172-0.58154-1.51172-1.2959V20.9674
					c0-0.27637,0.22363-0.5,0.5-0.5s0.5,0.22363,0.5,0.5v1.64746c0,0.13672,0.22363,0.2959,0.51172,0.2959h1.08301
					c0.28809,0,0.51172-0.15918,0.51172-0.2959V20.9674c0-0.27637,0.22363-0.5,0.5-0.5s0.5,0.22363,0.5,0.5v1.64746
					C76.45508,23.32922,75.77734,23.91076,74.94336,23.91076z"/>
			</g>
			<g>
				<path fill="#C9C9C9" d="M79.74512,23.91076h-1.08398c-0.83301,0-1.51074-0.58154-1.51074-1.2959V20.9674
					c0-0.27637,0.22363-0.5,0.5-0.5s0.5,0.22363,0.5,0.5v1.64746c0,0.13672,0.22266,0.2959,0.51074,0.2959h1.08398
					c0.28809,0,0.51172-0.15918,0.51172-0.2959V20.9674c0-0.27637,0.22363-0.5,0.5-0.5s0.5,0.22363,0.5,0.5v1.64746
					C81.25684,23.32922,80.5791,23.91076,79.74512,23.91076z"/>
			</g>
			<g>
				<path fill="#C9C9C9" d="M84.5459,23.91076h-1.08301c-0.83398,0-1.51172-0.58154-1.51172-1.2959V20.9674
					c0-0.27637,0.22363-0.5,0.5-0.5s0.5,0.22363,0.5,0.5v1.64746c0,0.13672,0.22363,0.2959,0.51172,0.2959h1.08301
					c0.28809,0,0.51172-0.15918,0.51172-0.2959V20.9674c0-0.27637,0.22363-0.5,0.5-0.5s0.5,0.22363,0.5,0.5v1.64746
					C86.05762,23.32922,85.37988,23.91076,84.5459,23.91076z"/>
			</g>
			<g>
				<path fill="#C9C9C9" d="M89.34766,23.91076h-1.08398c-0.83398,0-1.51172-0.58154-1.51172-1.2959V20.9674
					c0-0.27637,0.22363-0.5,0.5-0.5s0.5,0.22363,0.5,0.5v1.64746c0,0.13672,0.22363,0.2959,0.51172,0.2959h1.08398
					c0.28809,0,0.51074-0.15918,0.51074-0.2959V20.9674c0-0.27637,0.22363-0.5,0.5-0.5s0.5,0.22363,0.5,0.5v1.64746
					C90.8584,23.32922,90.18066,23.91076,89.34766,23.91076z"/>
			</g>
			<g>
				<path fill="#C9C9C9" d="M94.14844,23.91076h-1.08301c-0.83398,0-1.51172-0.58154-1.51172-1.2959V20.9674
					c0-0.27637,0.22363-0.5,0.5-0.5s0.5,0.22363,0.5,0.5v1.64746c0,0.13672,0.22363,0.2959,0.51172,0.2959h1.08301
					c0.28809,0,0.51172-0.15918,0.51172-0.2959V20.9674c0-0.27637,0.22363-0.5,0.5-0.5s0.5,0.22363,0.5,0.5v1.64746
					C95.66016,23.32922,94.98242,23.91076,94.14844,23.91076z"/>
			</g>
			<g>
				<path fill="#C9C9C9" d="M98.94922,23.91076h-1.08301c-0.83398,0-1.51172-0.58154-1.51172-1.2959V20.9674
					c0-0.27637,0.22363-0.5,0.5-0.5s0.5,0.22363,0.5,0.5v1.64746c0,0.13672,0.22363,0.2959,0.51172,0.2959h1.08301
					c0.28809,0,0.51172-0.15918,0.51172-0.2959V20.9674c0-0.27637,0.22363-0.5,0.5-0.5s0.5,0.22363,0.5,0.5v1.64746
					C100.46094,23.32922,99.7832,23.91076,98.94922,23.91076z"/>
			</g>
			<g>
				<path fill="#C9C9C9" d="M103.75098,23.91076h-1.08301c-0.83398,0-1.51172-0.58154-1.51172-1.2959V20.9674
					c0-0.27637,0.22363-0.5,0.5-0.5s0.5,0.22363,0.5,0.5v1.64746c0,0.13672,0.22363,0.2959,0.51172,0.2959h1.08301
					c0.28809,0,0.51172-0.15918,0.51172-0.2959V20.9674c0-0.27637,0.22363-0.5,0.5-0.5s0.5,0.22363,0.5,0.5v1.64746
					C105.2627,23.32922,104.58496,23.91076,103.75098,23.91076z"/>
			</g>
			<g>
				<path fill="#C9C9C9" d="M108.55176,23.91076h-1.08301c-0.83398,0-1.51172-0.58154-1.51172-1.2959V20.9674
					c0-0.27637,0.22363-0.5,0.5-0.5s0.5,0.22363,0.5,0.5v1.64746c0,0.13672,0.22363,0.2959,0.51172,0.2959h1.08301
					c0.28809,0,0.51172-0.15918,0.51172-0.2959V20.9674c0-0.27637,0.22363-0.5,0.5-0.5s0.5,0.22363,0.5,0.5v1.64746
					C110.06348,23.32922,109.38574,23.91076,108.55176,23.91076z"/>
			</g>
			<g>
				<path fill="#C9C9C9" d="M113.35352,23.91076h-1.08398c-0.83301,0-1.51074-0.58154-1.51074-1.2959V20.9674
					c0-0.27637,0.22363-0.5,0.5-0.5s0.5,0.22363,0.5,0.5v1.64746c0,0.13672,0.22266,0.2959,0.51074,0.2959h1.08398
					c0.28809,0,0.51172-0.15918,0.51172-0.2959V20.9674c0-0.27637,0.22363-0.5,0.5-0.5s0.5,0.22363,0.5,0.5v1.64746
					C114.86523,23.32922,114.1875,23.91076,113.35352,23.91076z"/>
			</g>
			<g>
				<path fill="#C9C9C9" d="M118.1543,23.91076h-1.08301c-0.83398,0-1.51172-0.58154-1.51172-1.2959V20.9674
					c0-0.27637,0.22363-0.5,0.5-0.5s0.5,0.22363,0.5,0.5v1.64746c0,0.13672,0.22363,0.2959,0.51172,0.2959h1.08301
					c0.28809,0,0.51172-0.15918,0.51172-0.2959V20.9674c0-0.27637,0.22363-0.5,0.5-0.5s0.5,0.22363,0.5,0.5v1.64746
					C119.66602,23.32922,118.98828,23.91076,118.1543,23.91076z"/>
			</g>
			<g>
				<path fill="#C9C9C9" d="M122.95605,23.91076h-1.08398c-0.83398,0-1.51172-0.58154-1.51172-1.2959V20.9674
					c0-0.27637,0.22363-0.5,0.5-0.5s0.5,0.22363,0.5,0.5v1.64746c0,0.13672,0.22363,0.2959,0.51172,0.2959h1.08398
					c0.28809,0,0.51074-0.15918,0.51074-0.2959V20.9674c0-0.27637,0.22363-0.5,0.5-0.5s0.5,0.22363,0.5,0.5v1.64746
					C124.4668,23.32922,123.78906,23.91076,122.95605,23.91076z"/>
			</g>
			<g>
				<path fill="#C9C9C9" d="M127.75684,23.91076h-1.08301c-0.83398,0-1.51172-0.58154-1.51172-1.2959V20.9674
					c0-0.27637,0.22363-0.5,0.5-0.5s0.5,0.22363,0.5,0.5v1.64746c0,0.13672,0.22363,0.2959,0.51172,0.2959h1.08301
					c0.28809,0,0.51172-0.15918,0.51172-0.2959V20.9674c0-0.27637,0.22363-0.5,0.5-0.5s0.5,0.22363,0.5,0.5v1.64746
					C129.26855,23.32922,128.59082,23.91076,127.75684,23.91076z"/>
			</g>
			<g>
				<path fill="#C9C9C9" d="M7.72705,27.76086h-1.0835c-0.8335,0-1.51172-0.58105-1.51172-1.29541v-1.64746
					c0-0.27637,0.22363-0.5,0.5-0.5s0.5,0.22363,0.5,0.5v1.64746c0,0.13672,0.22363,0.29541,0.51172,0.29541h1.0835
					c0.28809,0,0.51123-0.15869,0.51123-0.29541v-1.64746c0-0.27637,0.22363-0.5,0.5-0.5s0.5,0.22363,0.5,0.5v1.64746
					C9.23828,27.1798,8.56055,27.76086,7.72705,27.76086z"/>
			</g>
			<g>
				<path fill="#C9C9C9" d="M12.52832,27.76086h-1.0835c-0.8335,0-1.51172-0.58105-1.51172-1.29541v-1.64746
					c0-0.27637,0.22363-0.5,0.5-0.5s0.5,0.22363,0.5,0.5v1.64746c0,0.13672,0.22363,0.29541,0.51172,0.29541h1.0835
					c0.28809,0,0.51123-0.15869,0.51123-0.29541v-1.64746c0-0.27637,0.22363-0.5,0.5-0.5s0.5,0.22363,0.5,0.5v1.64746
					C14.03955,27.1798,13.36182,27.76086,12.52832,27.76086z"/>
			</g>
			<g>
				<path fill="#C9C9C9" d="M17.3291,27.76086h-1.08301c-0.8335,0-1.51172-0.58105-1.51172-1.29541v-1.64746
					c0-0.27637,0.22363-0.5,0.5-0.5s0.5,0.22363,0.5,0.5v1.64746c0,0.13672,0.22363,0.29541,0.51172,0.29541h1.08301
					c0.28809,0,0.51172-0.15869,0.51172-0.29541v-1.64746c0-0.27637,0.22363-0.5,0.5-0.5s0.5,0.22363,0.5,0.5v1.64746
					C18.84082,27.1798,18.1626,27.76086,17.3291,27.76086z"/>
			</g>
			<g>
				<path fill="#C9C9C9" d="M22.13037,27.76086h-1.08301c-0.8335,0-1.51172-0.58105-1.51172-1.29541v-1.64746
					c0-0.27637,0.22363-0.5,0.5-0.5s0.5,0.22363,0.5,0.5v1.64746c0,0.13672,0.22363,0.29541,0.51172,0.29541h1.08301
					c0.28809,0,0.51172-0.15869,0.51172-0.29541v-1.64746c0-0.27637,0.22363-0.5,0.5-0.5s0.5,0.22363,0.5,0.5v1.64746
					C23.64209,27.1798,22.96387,27.76086,22.13037,27.76086z"/>
			</g>
			<g>
				<path fill="#C9C9C9" d="M26.93164,27.76086h-1.0835c-0.8335,0-1.51123-0.58105-1.51123-1.29541v-1.64746
					c0-0.27637,0.22363-0.5,0.5-0.5s0.5,0.22363,0.5,0.5v1.64746c0,0.13672,0.22314,0.29541,0.51123,0.29541h1.0835
					c0.28809,0,0.51172-0.15869,0.51172-0.29541v-1.64746c0-0.27637,0.22363-0.5,0.5-0.5s0.5,0.22363,0.5,0.5v1.64746
					C28.44336,27.1798,27.76514,27.76086,26.93164,27.76086z"/>
			</g>
			<g>
				<path fill="#C9C9C9" d="M31.73291,27.76086h-1.0835c-0.8335,0-1.51123-0.58105-1.51123-1.29541v-1.64746
					c0-0.27637,0.22363-0.5,0.5-0.5s0.5,0.22363,0.5,0.5v1.64746c0,0.13672,0.22314,0.29541,0.51123,0.29541h1.0835
					c0.28809,0,0.51172-0.15869,0.51172-0.29541v-1.64746c0-0.27637,0.22363-0.5,0.5-0.5s0.5,0.22363,0.5,0.5v1.64746
					C33.24463,27.1798,32.56641,27.76086,31.73291,27.76086z"/>
			</g>
			<g>
				<path fill="#C9C9C9" d="M36.53418,27.76086h-1.0835c-0.8335,0-1.51172-0.58105-1.51172-1.29541v-1.64746
					c0-0.27637,0.22363-0.5,0.5-0.5s0.5,0.22363,0.5,0.5v1.64746c0,0.13672,0.22363,0.29541,0.51172,0.29541h1.0835
					c0.28809,0,0.51172-0.15869,0.51172-0.29541v-1.64746c0-0.27637,0.22363-0.5,0.5-0.5s0.5,0.22363,0.5,0.5v1.64746
					C38.0459,27.1798,37.36768,27.76086,36.53418,27.76086z"/>
			</g>
			<g>
				<path fill="#C9C9C9" d="M41.33545,27.76086h-1.0835c-0.8335,0-1.51172-0.58105-1.51172-1.29541v-1.64746
					c0-0.27637,0.22363-0.5,0.5-0.5s0.5,0.22363,0.5,0.5v1.64746c0,0.13672,0.22363,0.29541,0.51172,0.29541h1.0835
					c0.28809,0,0.51123-0.15869,0.51123-0.29541v-1.64746c0-0.27637,0.22363-0.5,0.5-0.5s0.5,0.22363,0.5,0.5v1.64746
					C42.84668,27.1798,42.16895,27.76086,41.33545,27.76086z"/>
			</g>
			<g>
				<path fill="#C9C9C9" d="M46.13672,27.76086h-1.0835c-0.8335,0-1.51172-0.58105-1.51172-1.29541v-1.64746
					c0-0.27637,0.22363-0.5,0.5-0.5s0.5,0.22363,0.5,0.5v1.64746c0,0.13672,0.22363,0.29541,0.51172,0.29541h1.0835
					c0.28809,0,0.51123-0.15869,0.51123-0.29541v-1.64746c0-0.27637,0.22363-0.5,0.5-0.5s0.5,0.22363,0.5,0.5v1.64746
					C47.64795,27.1798,46.97021,27.76086,46.13672,27.76086z"/>
			</g>
			<g>
				<path fill="#C9C9C9" d="M50.9375,27.76086h-1.08301c-0.8335,0-1.51172-0.58105-1.51172-1.29541v-1.64746
					c0-0.27637,0.22363-0.5,0.5-0.5s0.5,0.22363,0.5,0.5v1.64746c0,0.13672,0.22363,0.29541,0.51172,0.29541h1.08301
					c0.28809,0,0.51172-0.15869,0.51172-0.29541v-1.64746c0-0.27637,0.22363-0.5,0.5-0.5s0.5,0.22363,0.5,0.5v1.64746
					C52.44922,27.1798,51.771,27.76086,50.9375,27.76086z"/>
			</g>
			<g>
				<path fill="#C9C9C9" d="M55.73877,27.76086h-1.08301c-0.8335,0-1.51172-0.58105-1.51172-1.29541v-1.64746
					c0-0.27637,0.22363-0.5,0.5-0.5s0.5,0.22363,0.5,0.5v1.64746c0,0.13672,0.22363,0.29541,0.51172,0.29541h1.08301
					c0.28809,0,0.51172-0.15869,0.51172-0.29541v-1.64746c0-0.27637,0.22363-0.5,0.5-0.5s0.5,0.22363,0.5,0.5v1.64746
					C57.25049,27.1798,56.57227,27.76086,55.73877,27.76086z"/>
			</g>
			<g>
				<path fill="#C9C9C9" d="M60.54004,27.76086h-1.0835c-0.8335,0-1.51123-0.58105-1.51123-1.29541v-1.64746
					c0-0.27637,0.22363-0.5,0.5-0.5s0.5,0.22363,0.5,0.5v1.64746c0,0.13672,0.22314,0.29541,0.51123,0.29541h1.0835
					c0.28809,0,0.51172-0.15869,0.51172-0.29541v-1.64746c0-0.27637,0.22363-0.5,0.5-0.5s0.5,0.22363,0.5,0.5v1.64746
					C62.05176,27.1798,61.37354,27.76086,60.54004,27.76086z"/>
			</g>
			<g>
				<path fill="#C9C9C9" d="M65.34131,27.76086h-1.0835c-0.8335,0-1.51123-0.58105-1.51123-1.29541v-1.64746
					c0-0.27637,0.22363-0.5,0.5-0.5s0.5,0.22363,0.5,0.5v1.64746c0,0.13672,0.22314,0.29541,0.51123,0.29541h1.0835
					c0.2876,0,0.51123-0.15869,0.51123-0.29541v-1.64746c0-0.27637,0.22363-0.5,0.5-0.5s0.5,0.22363,0.5,0.5v1.64746
					C66.85254,27.1798,66.1748,27.76086,65.34131,27.76086z"/>
			</g>
			<g>
				<path fill="#C9C9C9" d="M70.14258,27.76086h-1.08301c-0.83398,0-1.51172-0.58105-1.51172-1.29541v-1.64746
					c0-0.27637,0.22363-0.5,0.5-0.5s0.5,0.22363,0.5,0.5v1.64746c0,0.13672,0.22363,0.29541,0.51172,0.29541h1.08301
					c0.28809,0,0.51172-0.15869,0.51172-0.29541v-1.64746c0-0.27637,0.22363-0.5,0.5-0.5s0.5,0.22363,0.5,0.5v1.64746
					C71.6543,27.1798,70.97656,27.76086,70.14258,27.76086z"/>
			</g>
			<g>
				<path fill="#C9C9C9" d="M74.94336,27.76086h-1.08301c-0.83398,0-1.51172-0.58105-1.51172-1.29541v-1.64746
					c0-0.27637,0.22363-0.5,0.5-0.5s0.5,0.22363,0.5,0.5v1.64746c0,0.13672,0.22363,0.29541,0.51172,0.29541h1.08301
					c0.28809,0,0.51172-0.15869,0.51172-0.29541v-1.64746c0-0.27637,0.22363-0.5,0.5-0.5s0.5,0.22363,0.5,0.5v1.64746
					C76.45508,27.1798,75.77734,27.76086,74.94336,27.76086z"/>
			</g>
			<g>
				<path fill="#C9C9C9" d="M79.74512,27.76086h-1.08398c-0.83301,0-1.51074-0.58105-1.51074-1.29541v-1.64746
					c0-0.27637,0.22363-0.5,0.5-0.5s0.5,0.22363,0.5,0.5v1.64746c0,0.13672,0.22266,0.29541,0.51074,0.29541h1.08398
					c0.28809,0,0.51172-0.15869,0.51172-0.29541v-1.64746c0-0.27637,0.22363-0.5,0.5-0.5s0.5,0.22363,0.5,0.5v1.64746
					C81.25684,27.1798,80.5791,27.76086,79.74512,27.76086z"/>
			</g>
			<g>
				<path fill="#C9C9C9" d="M84.5459,27.76086h-1.08301c-0.83398,0-1.51172-0.58105-1.51172-1.29541v-1.64746
					c0-0.27637,0.22363-0.5,0.5-0.5s0.5,0.22363,0.5,0.5v1.64746c0,0.13672,0.22363,0.29541,0.51172,0.29541h1.08301
					c0.28809,0,0.51172-0.15869,0.51172-0.29541v-1.64746c0-0.27637,0.22363-0.5,0.5-0.5s0.5,0.22363,0.5,0.5v1.64746
					C86.05762,27.1798,85.37988,27.76086,84.5459,27.76086z"/>
			</g>
			<g>
				<path fill="#C9C9C9" d="M89.34766,27.76086h-1.08398c-0.83398,0-1.51172-0.58105-1.51172-1.29541v-1.64746
					c0-0.27637,0.22363-0.5,0.5-0.5s0.5,0.22363,0.5,0.5v1.64746c0,0.13672,0.22363,0.29541,0.51172,0.29541h1.08398
					c0.28809,0,0.51074-0.15869,0.51074-0.29541v-1.64746c0-0.27637,0.22363-0.5,0.5-0.5s0.5,0.22363,0.5,0.5v1.64746
					C90.8584,27.1798,90.18066,27.76086,89.34766,27.76086z"/>
			</g>
			<g>
				<path fill="#C9C9C9" d="M94.14844,27.76086h-1.08301c-0.83398,0-1.51172-0.58105-1.51172-1.29541v-1.64746
					c0-0.27637,0.22363-0.5,0.5-0.5s0.5,0.22363,0.5,0.5v1.64746c0,0.13672,0.22363,0.29541,0.51172,0.29541h1.08301
					c0.28809,0,0.51172-0.15869,0.51172-0.29541v-1.64746c0-0.27637,0.22363-0.5,0.5-0.5s0.5,0.22363,0.5,0.5v1.64746
					C95.66016,27.1798,94.98242,27.76086,94.14844,27.76086z"/>
			</g>
			<g>
				<path fill="#C9C9C9" d="M98.94922,27.76086h-1.08301c-0.83398,0-1.51172-0.58105-1.51172-1.29541v-1.64746
					c0-0.27637,0.22363-0.5,0.5-0.5s0.5,0.22363,0.5,0.5v1.64746c0,0.13672,0.22363,0.29541,0.51172,0.29541h1.08301
					c0.28809,0,0.51172-0.15869,0.51172-0.29541v-1.64746c0-0.27637,0.22363-0.5,0.5-0.5s0.5,0.22363,0.5,0.5v1.64746
					C100.46094,27.1798,99.7832,27.76086,98.94922,27.76086z"/>
			</g>
			<g>
				<path fill="#C9C9C9" d="M103.75098,27.76086h-1.08301c-0.83398,0-1.51172-0.58105-1.51172-1.29541v-1.64746
					c0-0.27637,0.22363-0.5,0.5-0.5s0.5,0.22363,0.5,0.5v1.64746c0,0.13672,0.22363,0.29541,0.51172,0.29541h1.08301
					c0.28809,0,0.51172-0.15869,0.51172-0.29541v-1.64746c0-0.27637,0.22363-0.5,0.5-0.5s0.5,0.22363,0.5,0.5v1.64746
					C105.2627,27.1798,104.58496,27.76086,103.75098,27.76086z"/>
			</g>
			<g>
				<path fill="#C9C9C9" d="M108.55176,27.76086h-1.08301c-0.83398,0-1.51172-0.58105-1.51172-1.29541v-1.64746
					c0-0.27637,0.22363-0.5,0.5-0.5s0.5,0.22363,0.5,0.5v1.64746c0,0.13672,0.22363,0.29541,0.51172,0.29541h1.08301
					c0.28809,0,0.51172-0.15869,0.51172-0.29541v-1.64746c0-0.27637,0.22363-0.5,0.5-0.5s0.5,0.22363,0.5,0.5v1.64746
					C110.06348,27.1798,109.38574,27.76086,108.55176,27.76086z"/>
			</g>
			<g>
				<path fill="#C9C9C9" d="M113.35352,27.76086h-1.08398c-0.83301,0-1.51074-0.58105-1.51074-1.29541v-1.64746
					c0-0.27637,0.22363-0.5,0.5-0.5s0.5,0.22363,0.5,0.5v1.64746c0,0.13672,0.22266,0.29541,0.51074,0.29541h1.08398
					c0.28809,0,0.51172-0.15869,0.51172-0.29541v-1.64746c0-0.27637,0.22363-0.5,0.5-0.5s0.5,0.22363,0.5,0.5v1.64746
					C114.86523,27.1798,114.1875,27.76086,113.35352,27.76086z"/>
			</g>
			<g>
				<path fill="#C9C9C9" d="M118.1543,27.76086h-1.08301c-0.83398,0-1.51172-0.58105-1.51172-1.29541v-1.64746
					c0-0.27637,0.22363-0.5,0.5-0.5s0.5,0.22363,0.5,0.5v1.64746c0,0.13672,0.22363,0.29541,0.51172,0.29541h1.08301
					c0.28809,0,0.51172-0.15869,0.51172-0.29541v-1.64746c0-0.27637,0.22363-0.5,0.5-0.5s0.5,0.22363,0.5,0.5v1.64746
					C119.66602,27.1798,118.98828,27.76086,118.1543,27.76086z"/>
			</g>
			<g>
				<path fill="#C9C9C9" d="M122.95605,27.76086h-1.08398c-0.83398,0-1.51172-0.58105-1.51172-1.29541v-1.64746
					c0-0.27637,0.22363-0.5,0.5-0.5s0.5,0.22363,0.5,0.5v1.64746c0,0.13672,0.22363,0.29541,0.51172,0.29541h1.08398
					c0.28809,0,0.51074-0.15869,0.51074-0.29541v-1.64746c0-0.27637,0.22363-0.5,0.5-0.5s0.5,0.22363,0.5,0.5v1.64746
					C124.4668,27.1798,123.78906,27.76086,122.95605,27.76086z"/>
			</g>
		</g>
		<g>
			
				<linearGradient id="SVGID_1_" gradientUnits="userSpaceOnUse" x1="64.5" y1="5.62867" x2="64.5" y2="25.5918" gradientTransform="matrix(1 0 0 -1 0 30.11023)">
				<stop  offset="0" style="stop-color:#FFFFFF"/>
				<stop  offset="0.61453" style="stop-color:#C4C2C2"/>
			</linearGradient>
			<circle fill="url(#SVGID_1_)" cx="64.5" cy="14.49999" r="9.98157"/>
		</g>
		<g>
			
				<linearGradient id="SVGID_2_" gradientUnits="userSpaceOnUse" x1="-1855.11182" y1="608.21204" x2="-1855.11182" y2="626.24249" gradientTransform="matrix(-1 0 0 1 -1790.61182 -602.72729)">
				<stop  offset="0" style="stop-color:#FFFFFF"/>
				<stop  offset="0.61453" style="stop-color:#C4C2C2"/>
			</linearGradient>
			<circle fill="url(#SVGID_2_)" cx="64.5" cy="14.49999" r="9.01523"/>
		</g>
		<circle fill="#C9C9C9" cx="64.5" cy="14.49999" r="8.33157"/>
		<g>
			<rect x="55.48477" y="13.59831" fill="#E5E5E5" width="18.03046" height="1.80337"/>
		</g>
		<g>
			<polygon fill="#F7F7F7" points="73.51523,15.40624 55.48477,15.40624 55.60124,16.04309 73.40437,16.04309 			"/>
		</g>
		<g>
			<polygon fill="#B8B8B8" points="73.40437,12.95689 55.60124,12.95689 55.48477,13.59831 73.51523,13.59831 			"/>
		</g>
	</g>
	<rect fill="#F9F9F9" width="1" height="1"/>
	<rect x="132" y="30" fill="#C9C9C9" width="1" height="1"/>
</g>
</svg>
