<?xml version="1.0" encoding="UTF-8" standalone="no"?>
<!-- Generator: Adobe Illustrator 24.3.0, SVG Export Plug-In . SVG Version: 6.00 Build 0)  -->

<svg
   xmlns:dc="http://purl.org/dc/elements/1.1/"
   xmlns:cc="http://creativecommons.org/ns#"
   xmlns:rdf="http://www.w3.org/1999/02/22-rdf-syntax-ns#"
   xmlns:svg="http://www.w3.org/2000/svg"
   xmlns="http://www.w3.org/2000/svg"
   xmlns:sodipodi="http://sodipodi.sourceforge.net/DTD/sodipodi-0.dtd"
   xmlns:inkscape="http://www.inkscape.org/namespaces/inkscape"
   version="1.0"
   id="Layer_1"
   x="0px"
   y="0px"
   width="150px"
   height="380px"
   viewBox="0 0 150 380"
   enable-background="new 0 0 150 380"
   xml:space="preserve"
   sodipodi:docname="TZVU_bg.svg"
   inkscape:version="0.92.2 5c3e80d, 2017-08-06"><metadata
     id="metadata280"><rdf:RDF><cc:Work
         rdf:about=""><dc:format>image/svg+xml</dc:format><dc:type
           rdf:resource="http://purl.org/dc/dcmitype/StillImage" /><dc:title></dc:title></cc:Work></rdf:RDF></metadata><defs
     id="defs278" /><sodipodi:namedview
     pagecolor="#ffffff"
     bordercolor="#666666"
     borderopacity="1"
     objecttolerance="10"
     gridtolerance="10"
     guidetolerance="10"
     inkscape:pageopacity="0"
     inkscape:pageshadow="2"
     inkscape:window-width="1211"
     inkscape:window-height="767"
     id="namedview276"
     showgrid="false"
     inkscape:pagecheckerboard="true"
     inkscape:zoom="1.7566021"
     inkscape:cx="75"
     inkscape:cy="276.94672"
     inkscape:window-x="-22"
     inkscape:window-y="35"
     inkscape:window-maximized="0"
     inkscape:current-layer="Layer_1" /><g
     id="g1754"><g
       id="g1357"><g
         id="BACKGROUND"><g
           id="g4"><rect
             y="-9.9999997e-06"
             width="150"
             height="380"
             id="rect2"
             x="0"
             style="fill:#e5e5e5" /></g></g><g
         id="PRINT"><g
           id="g9"><path
             d="M 134.561,30.6216 H 20.23259 c -7.70533,0 -13.95173,6.2464 -13.95173,13.95173 v 88.54993 c 0,7.70534 6.2464,13.95174 13.95173,13.95174 H 134.561 c 7.70534,0 13.95174,-6.2464 13.95174,-13.95174 V 44.57334 c 0,-7.70533 -6.2464,-13.95174 -13.95174,-13.95174 z"
             id="path7"
             inkscape:connector-curvature="0"
             style="fill:#c9c9c9" /></g><rect
           x="10.05179"
           y="12.90559"
           stroke-miterlimit="10"
           width="129.89641"
           height="167.47682"
           id="rect11"
           style="fill:none;stroke:#1e282b;stroke-width:0.75;stroke-linejoin:round;stroke-miterlimit:10" /><g
           id="g15"><path
             d="M 132.561,21.6216 H 18.23259 c -7.70533,0 -13.95173,6.2464 -13.95173,13.95173 v 88.54993 c 0,7.70534 6.2464,13.95174 13.95173,13.95174 H 132.561 c 7.70534,0 13.95174,-6.2464 13.95174,-13.95174 V 35.57334 c 0,-7.70533 -6.2464,-13.95174 -13.95174,-13.95174 z"
             id="path13"
             inkscape:connector-curvature="0"
             style="fill:#f9f9f9" /></g><line
           stroke-miterlimit="10"
           x1="1.17959"
           y1="364.70258"
           x2="149.05594"
           y2="364.70258"
           id="line17"
           style="fill:none;stroke:#1e282b;stroke-width:0.5;stroke-miterlimit:10" /><g
           id="g33"><g
             id="g21"><rect
               x="65.356201"
               y="8.2368402"
               width="25.19973"
               height="8.3812504"
               id="rect19"
               style="fill:#e5e5e5" /></g><g
             id="g31"><path
               stroke-miterlimit="10"
               d="m 71.02325,10.38964 h -1.75977 v 5.01318 H 68.73614 V 10.38964 H 66.98419 V 9.89403 h 4.03906 c -1e-5,0 -1e-5,0.49561 0,0.49561 z"
               id="path23"
               inkscape:connector-curvature="0"
               style="fill:#1e282b;stroke:#1e282b;stroke-width:0.25;stroke-linejoin:round;stroke-miterlimit:10" /><path
               stroke-miterlimit="10"
               d="m 76.43145,10.32567 -3.03906,4.58154 h 3.03906 v 0.49561 H 72.7127 v -0.42383 l 3.03906,-4.58936 h -2.97461 v -0.4956 h 3.6543 z"
               id="path25"
               inkscape:connector-curvature="0"
               style="fill:#1e282b;stroke:#1e282b;stroke-width:0.25;stroke-linejoin:round;stroke-miterlimit:10" /><path
               stroke-miterlimit="10"
               d="m 82.07793,9.89403 -1.64648,5.50879 H 79.88067 L 78.20879,9.89403 h 0.55078 l 1.39258,4.67725 1.38281,-4.67725 z"
               id="path27"
               inkscape:connector-curvature="0"
               style="fill:#1e282b;stroke:#1e282b;stroke-width:0.25;stroke-linejoin:round;stroke-miterlimit:10" /><path
               stroke-miterlimit="10"
               d="M 84.27129,13.55565 V 9.89403 h 0.5293 v 3.66162 c 0,0.92773 0.6543,1.43164 1.43945,1.43164 0.7832,0 1.4375,-0.50391 1.4375,-1.43164 V 9.89403 h 0.5293 v 3.66162 c 0,1.20752 -0.9043,1.94336 -1.9668,1.94336 -1.06445,0 -1.96875,-0.73584 -1.96875,-1.94336 z"
               id="path29"
               inkscape:connector-curvature="0"
               style="fill:#1e282b;stroke:#1e282b;stroke-width:0.25;stroke-linejoin:round;stroke-miterlimit:10" /></g></g><g
           id="g51"><path
             d="m 53.60866,374.46884 h -0.12793 c -0.52441,0 -0.63477,-0.61475 -0.63477,-1.13037 v -1.06592 h 0.60254 c 0.06934,0 0.125,-0.0562 0.125,-0.125 v -0.42383 c 0,-0.0688 -0.05566,-0.125 -0.125,-0.125 h -0.60254 v -0.53906 c 0,-0.0688 -0.05566,-0.125 -0.125,-0.125 h -0.51172 c -0.06934,0 -0.125,0.0562 -0.125,0.125 v 0.53076 h -1.05762 c -0.50586,0 -0.85938,-0.3335 -0.85938,-0.81055 0,-0.45117 0.33105,-0.77832 0.78711,-0.77832 0.30078,0 0.57617,0.14111 0.73633,0.37695 0.03906,0.0566 0.11523,0.0708 0.17188,0.0342 l 0.41504,-0.27197 c 0.05762,-0.0376 0.07422,-0.11523 0.03613,-0.17285 -0.29199,-0.44727 -0.78809,-0.7041 -1.35938,-0.7041 -0.88281,0 -1.54883,0.63477 -1.54883,1.47656 0,0.47168 0.19238,0.90234 0.50488,1.16016 -0.56543,0.29443 -0.91992,0.88574 -0.91992,1.56592 0,1.01318 0.76855,1.74854 1.82812,1.74854 0.64551,0 1.20801,-0.24805 1.53711,-0.66211 0.17188,0.40967 0.57422,0.646 1.125,0.646 h 0.12793 c 0.06934,0 0.125,-0.0562 0.125,-0.125 v -0.47998 c 2e-5,-0.0689 -0.05564,-0.12501 -0.12498,-0.12501 z m -2.71875,0.008 c -0.68555,0 -1.14551,-0.42871 -1.14551,-1.06641 0,-0.66992 0.53711,-1.13818 1.30566,-1.13818 h 1.03418 v 1.12012 c -0.02245,0.63867 -0.51269,1.08447 -1.19433,1.08447 z"
             id="path35"
             inkscape:connector-curvature="0"
             style="fill:#1e282b" /><g
             id="g49"><path
               stroke-miterlimit="10"
               d="m 24.53692,369.60986 v 5.50879 h -0.54297 l -2.82227,-4.58936 v 4.58936 h -0.52734 v -5.50879 h 0.55078 l 2.81445,4.58154 v -4.58154 z"
               id="path37"
               inkscape:connector-curvature="0"
               style="fill:#1e282b;stroke:#1e282b;stroke-width:0.25;stroke-linejoin:round;stroke-miterlimit:10" /><path
               stroke-miterlimit="10"
               d="m 30.31426,369.60986 -2.10352,2.92627 v 2.58252 H 27.6834 v -2.58252 l -2.07031,-2.92627 h 0.62305 l 1.71875,2.41455 1.72656,-2.41455 z"
               id="path39"
               inkscape:connector-curvature="0"
               style="fill:#1e282b;stroke:#1e282b;stroke-width:0.25;stroke-linejoin:round;stroke-miterlimit:10" /><path
               stroke-miterlimit="10"
               d="m 30.90801,373.65527 h 0.51953 c 0.05664,0.54395 0.55078,1.06348 1.32813,1.06348 0.87891,0 1.31836,-0.57568 1.31836,-1.09521 0,-0.59961 -0.53516,-0.8877 -1.08008,-1.02344 l -0.74219,-0.17578 c -1.13672,-0.27197 -1.30469,-0.93555 -1.30469,-1.37549 0,-0.91162 0.83984,-1.53516 1.75196,-1.53516 0.93555,0 1.67969,0.57568 1.71094,1.49512 h -0.52734 c -0.0332,-0.60742 -0.53516,-0.99951 -1.19922,-0.99951 -0.625,0 -1.20703,0.42383 -1.20703,1.03955 0,0.25586 0.08008,0.6958 0.90235,0.8877 l 0.74414,0.17578 c 0.87109,0.21582 1.47852,0.6875 1.47852,1.4873 0,0.77539 -0.63867,1.61523 -1.8457,1.61523 -1.0801,0 -1.80862,-0.75976 -1.84768,-1.55957 z"
               id="path41"
               inkscape:connector-curvature="0"
               style="fill:#1e282b;stroke:#1e282b;stroke-width:0.25;stroke-linejoin:round;stroke-miterlimit:10" /><path
               stroke-miterlimit="10"
               d="M 39.32207,370.10547 H 37.5623 v 5.01318 h -0.52734 v -5.01318 h -1.75 v -0.49561 h 4.03711 z"
               id="path43"
               inkscape:connector-curvature="0"
               style="fill:#1e282b;stroke:#1e282b;stroke-width:0.25;stroke-linejoin:round;stroke-miterlimit:10" /><path
               stroke-miterlimit="10"
               d="m 44.59356,369.60986 v 5.50879 h -0.52734 v -2.50244 h -3.0293 v 2.50244 h -0.5293 v -5.50879 h 0.5293 v 2.53467 h 3.0293 v -2.53467 z"
               id="path45"
               inkscape:connector-curvature="0"
               style="fill:#1e282b;stroke:#1e282b;stroke-width:0.25;stroke-linejoin:round;stroke-miterlimit:10" /><path
               stroke-miterlimit="10"
               d="m 46.42754,369.60986 h 0.5293 v 5.50879 h -0.5293 z"
               id="path47"
               inkscape:connector-curvature="0"
               style="fill:#1e282b;stroke:#1e282b;stroke-width:0.25;stroke-linejoin:round;stroke-miterlimit:10" /></g></g><g
           id="g83"><path
             stroke-miterlimit="10"
             d="m 60.94512,371.38525 c 0,0.85547 -0.44824,1.6792 -1.59961,1.6792 h -1.61523 v 2.15088 h -0.52734 v -5.50879 h 2.16699 c 1.12695,0 1.57519,0.83155 1.57519,1.67871 z m -0.52734,0 c 0,-0.59131 -0.2959,-1.18311 -1.05566,-1.18311 h -1.63184 v 2.3667 h 1.5918 c 0.79101,10e-6 1.0957,-0.58398 1.0957,-1.18359 z"
             id="path53"
             inkscape:connector-curvature="0"
             style="fill:#1e282b;stroke:#1e282b;stroke-width:0.25;stroke-linejoin:round;stroke-miterlimit:10" /><path
             stroke-miterlimit="10"
             d="m 66.16094,369.70654 -2.10352,2.92627 v 2.58252 h -0.52734 v -2.58252 l -2.07129,-2.92627 h 0.62402 l 1.71875,2.41455 1.72754,-2.41455 z"
             id="path55"
             inkscape:connector-curvature="0"
             style="fill:#1e282b;stroke:#1e282b;stroke-width:0.25;stroke-linejoin:round;stroke-miterlimit:10" /><path
             stroke-miterlimit="10"
             d="m 70.45684,374.71973 v 0.49561 h -3.23047 v -5.50879 h 3.14258 v 0.49561 H 67.7459 v 2.06299 h 2.28711 v 0.49561 H 67.7459 v 1.95898 h 2.71094 z"
             id="path57"
             inkscape:connector-curvature="0"
             style="fill:#1e282b;stroke:#1e282b;stroke-width:0.25;stroke-linejoin:round;stroke-miterlimit:10" /><path
             stroke-miterlimit="10"
             d="m 73.96172,373.05664 1.52637,2.15869 h -0.63867 l -1.51172,-2.15869 h -0.91992 v 2.15869 h -0.52734 v -5.50879 h 2.04688 c 1.15137,0 1.59082,0.83154 1.59082,1.67871 -10e-6,0.83985 -0.43165,1.64746 -1.56642,1.67139 z m -1.54394,-0.48779 h 1.3916 c 0.86328,0 1.19141,-0.52783 1.19141,-1.18359 0,-0.65527 -0.35156,-1.18311 -1.05566,-1.18311 h -1.52734 c 0,0 0,2.3667 -1e-5,2.3667 z"
             id="path59"
             inkscape:connector-curvature="0"
             style="fill:#1e282b;stroke:#1e282b;stroke-width:0.25;stroke-linejoin:round;stroke-miterlimit:10" /><path
             stroke-miterlimit="10"
             d="m 79.29864,369.70654 h 2.08691 c 1.55957,0 2.46289,1.19922 2.46289,2.76611 0,1.55908 -0.90332,2.74268 -2.46289,2.74268 h -2.08691 z m 2.08691,5.01319 c 1.25488,0 1.93457,-0.97559 1.93457,-2.24707 0,-1.2793 -0.67969,-2.27051 -1.93457,-2.27051 h -1.55957 v 4.51758 z"
             id="path61"
             inkscape:connector-curvature="0"
             style="fill:#1e282b;stroke:#1e282b;stroke-width:0.25;stroke-linejoin:round;stroke-miterlimit:10" /><path
             stroke-miterlimit="10"
             d="m 85.30645,369.70654 h 0.52734 v 5.50879 h -0.52734 z"
             id="path63"
             inkscape:connector-curvature="0"
             style="fill:#1e282b;stroke:#1e282b;stroke-width:0.25;stroke-linejoin:round;stroke-miterlimit:10" /><path
             stroke-miterlimit="10"
             d="m 87.28301,373.75195 h 0.51953 c 0.05664,0.54395 0.55176,1.06348 1.32812,1.06348 0.87891,0 1.31934,-0.57568 1.31934,-1.09521 0,-0.59961 -0.53613,-0.8877 -1.08008,-1.02344 L 88.62676,372.521 c -1.13574,-0.27197 -1.30371,-0.93555 -1.30371,-1.37549 0,-0.91162 0.83984,-1.53516 1.75098,-1.53516 0.93555,0 1.67969,0.57568 1.71094,1.49512 h -0.52734 c -0.03223,-0.60742 -0.53516,-0.99951 -1.19922,-0.99951 -0.62402,0 -1.20703,0.42383 -1.20703,1.03955 0,0.25586 0.08008,0.6958 0.90332,0.8877 l 0.74316,0.17578 c 0.87207,0.21582 1.47949,0.6875 1.47949,1.4873 0,0.77539 -0.63965,1.61475 -1.84668,1.61475 -1.08008,0 -1.80762,-0.75928 -1.84766,-1.55909 z"
             id="path65"
             inkscape:connector-curvature="0"
             style="fill:#1e282b;stroke:#1e282b;stroke-width:0.25;stroke-linejoin:round;stroke-miterlimit:10" /><path
             stroke-miterlimit="10"
             d="m 92.01055,373.75195 h 0.52051 c 0.05566,0.54395 0.55078,1.06348 1.32715,1.06348 0.87891,0 1.31934,-0.57568 1.31934,-1.09521 0,-0.59961 -0.53613,-0.8877 -1.08008,-1.02344 L 93.3543,372.521 c -1.13574,-0.27197 -1.30371,-0.93555 -1.30371,-1.37549 0,-0.91162 0.83984,-1.53516 1.75098,-1.53516 0.93555,0 1.67969,0.57568 1.71094,1.49512 h -0.52734 c -0.03223,-0.60742 -0.53613,-0.99951 -1.19922,-0.99951 -0.62402,0 -1.20703,0.42383 -1.20703,1.03955 0,0.25586 0.0791,0.6958 0.90332,0.8877 l 0.74316,0.17578 c 0.87207,0.21582 1.47949,0.6875 1.47949,1.4873 0,0.77539 -0.63965,1.61475 -1.84668,1.61475 -1.08008,0 -1.80762,-0.75928 -1.84766,-1.55909 z"
             id="path67"
             inkscape:connector-curvature="0"
             style="fill:#1e282b;stroke:#1e282b;stroke-width:0.25;stroke-linejoin:round;stroke-miterlimit:10" /><path
             stroke-miterlimit="10"
             d="m 96.71563,372.47266 c 0,-1.56689 1.21484,-2.8623 2.78223,-2.8623 1.56739,0 2.78223,1.29541 2.78223,2.8623 0,1.55908 -1.21484,2.83838 -2.78223,2.83838 -1.56739,0 -2.78223,-1.2793 -2.78223,-2.83838 z m 5.03711,0 c 0,-1.2793 -0.9834,-2.3667 -2.25488,-2.3667 -1.27148,0 -2.25488,1.0874 -2.25488,2.3667 0,1.2793 0.9834,2.34277 2.25488,2.34277 1.27148,0 2.25488,-1.06348 2.25488,-2.34277 z"
             id="path69"
             inkscape:connector-curvature="0"
             style="fill:#1e282b;stroke:#1e282b;stroke-width:0.25;stroke-linejoin:round;stroke-miterlimit:10" /><path
             stroke-miterlimit="10"
             d="m 103.32305,372.47266 c 0,-1.55908 1.22266,-2.8623 2.7666,-2.8623 0.77539,0 1.4707,0.31982 1.9502,0.83936 l -0.375,0.32812 c -0.39258,-0.40771 -0.95996,-0.67188 -1.5752,-0.67188 -1.25586,0 -2.23926,1.0874 -2.23926,2.3667 0,1.2793 0.9834,2.34277 2.23926,2.34277 0.61523,0 1.1748,-0.25586 1.5752,-0.67139 l 0.375,0.33594 c -0.47949,0.51172 -1.1748,0.83105 -1.9502,0.83105 -1.54394,10e-6 -2.7666,-1.27929 -2.7666,-2.83837 z"
             id="path71"
             inkscape:connector-curvature="0"
             style="fill:#1e282b;stroke:#1e282b;stroke-width:0.25;stroke-linejoin:round;stroke-miterlimit:10" /><path
             stroke-miterlimit="10"
             d="m 109.34649,369.70654 h 0.52832 v 5.50879 h -0.52832 z"
             id="path73"
             inkscape:connector-curvature="0"
             style="fill:#1e282b;stroke:#1e282b;stroke-width:0.25;stroke-linejoin:round;stroke-miterlimit:10" /><path
             stroke-miterlimit="10"
             d="m 114.59258,373.75195 h -2.54297 l -0.55176,1.46338 h -0.55957 l 2.10352,-5.50879 h 0.55957 l 2.09473,5.50879 h -0.55176 z m -0.18359,-0.47168 -1.08789,-2.87012 -1.08691,2.87012 z"
             id="path75"
             inkscape:connector-curvature="0"
             style="fill:#1e282b;stroke:#1e282b;stroke-width:0.25;stroke-linejoin:round;stroke-miterlimit:10" /><path
             stroke-miterlimit="10"
             d="m 119.69707,370.20215 h -1.75977 v 5.01318 h -0.52734 v -5.01318 h -1.75098 v -0.49561 h 4.03809 z"
             id="path77"
             inkscape:connector-curvature="0"
             style="fill:#1e282b;stroke:#1e282b;stroke-width:0.25;stroke-linejoin:round;stroke-miterlimit:10" /><path
             stroke-miterlimit="10"
             d="m 124.11309,374.71973 v 0.49561 h -3.23047 v -5.50879 h 3.14258 v 0.49561 h -2.62305 v 2.06299 h 2.28711 v 0.49561 h -2.28711 v 1.95898 h 2.71094 z"
             id="path79"
             inkscape:connector-curvature="0"
             style="fill:#1e282b;stroke:#1e282b;stroke-width:0.25;stroke-linejoin:round;stroke-miterlimit:10" /><path
             stroke-miterlimit="10"
             d="m 125.17071,373.75195 h 0.52051 c 0.0557,0.54395 0.55078,1.06348 1.32715,1.06348 0.87891,0 1.31933,-0.57568 1.31933,-1.09521 0,-0.59961 -0.53613,-0.8877 -1.08007,-1.02344 l -0.74316,-0.17578 c -1.13574,-0.27197 -1.30371,-0.93555 -1.30371,-1.37549 0,-0.91162 0.83984,-1.53516 1.75098,-1.53516 0.93555,0 1.67969,0.57568 1.71094,1.49512 h -0.52734 c -0.0322,-0.60742 -0.53613,-0.99951 -1.19921,-0.99951 -0.62402,0 -1.20703,0.42383 -1.20703,1.03955 0,0.25586 0.0791,0.6958 0.90332,0.8877 l 0.74316,0.17578 c 0.87206,0.21582 1.47948,0.6875 1.47948,1.4873 0,0.77539 -0.63965,1.61475 -1.84667,1.61475 -1.0801,0 -1.80764,-0.75928 -1.84768,-1.55909 z"
             id="path81"
             inkscape:connector-curvature="0"
             style="fill:#1e282b;stroke:#1e282b;stroke-width:0.25;stroke-linejoin:round;stroke-miterlimit:10" /></g><g
           id="g95"><path
             stroke-miterlimit="10"
             d="m 19.35528,144.32129 h 0.63379 v 6.61279 h -0.63379 c 0,0 0,-6.61279 0,-6.61279 z"
             id="path85"
             inkscape:connector-curvature="0"
             style="fill:#1e282b;stroke:#1e282b;stroke-width:0.25;stroke-linejoin:round;stroke-miterlimit:10" /><path
             stroke-miterlimit="10"
             d="m 26.65996,144.32129 v 6.61279 h -0.65332 l -3.3877,-5.50928 v 5.50928 h -0.63379 v -6.61279 h 0.66309 l 3.37793,5.49951 v -5.49951 z"
             id="path87"
             inkscape:connector-curvature="0"
             style="fill:#1e282b;stroke:#1e282b;stroke-width:0.25;stroke-linejoin:round;stroke-miterlimit:10" /><path
             stroke-miterlimit="10"
             d="m 33.14922,146.33691 c 0,1.02686 -0.53711,2.01514 -1.91992,2.01514 h -1.93848 v 2.58203 h -0.63379 v -6.61279 h 2.60156 c 1.35352,0 1.89063,0.99805 1.89063,2.01562 z m -0.63379,0 c 0,-0.71045 -0.35449,-1.42041 -1.2666,-1.42041 h -1.95801 v 2.84082 h 1.91016 c 0.9502,0 1.31445,-0.70068 1.31445,-1.42041 z"
             id="path89"
             inkscape:connector-curvature="0"
             style="fill:#1e282b;stroke:#1e282b;stroke-width:0.25;stroke-linejoin:round;stroke-miterlimit:10" /><path
             stroke-miterlimit="10"
             d="m 34.44707,148.7168 v -4.39551 h 0.63379 v 4.39551 c 0,1.11377 0.78711,1.71826 1.72754,1.71826 0.94043,0 1.72754,-0.60449 1.72754,-1.71826 v -4.39551 h 0.63281 v 4.39551 c 0,1.44971 -1.08398,2.33252 -2.36035,2.33252 -1.27637,0 -2.36133,-0.88282 -2.36133,-2.33252 z"
             id="path91"
             inkscape:connector-curvature="0"
             style="fill:#1e282b;stroke:#1e282b;stroke-width:0.25;stroke-linejoin:round;stroke-miterlimit:10" /><path
             stroke-miterlimit="10"
             d="m 45.15997,144.9165 h -2.1123 v 6.01758 h -0.63281 v -6.01758 h -2.10254 v -0.59521 h 4.84766 v 0.59521 z"
             id="path93"
             inkscape:connector-curvature="0"
             style="fill:#1e282b;stroke:#1e282b;stroke-width:0.25;stroke-linejoin:round;stroke-miterlimit:10" /></g><g
           id="g107"><path
             stroke-miterlimit="10"
             d="m 64.0877,149.17773 h 0.62305 c 0.06738,0.65283 0.66309,1.27637 1.59375,1.27637 1.05566,0 1.58301,-0.69092 1.58301,-1.31494 0,-0.71973 -0.64258,-1.06543 -1.29492,-1.22852 L 65.7,147.69971 c -1.36328,-0.32617 -1.56445,-1.12305 -1.56445,-1.65088 0,-1.09424 1.00781,-1.84277 2.10156,-1.84277 1.12305,0 2.01562,0.69092 2.05371,1.79492 H 67.658 c -0.03906,-0.72949 -0.64355,-1.19971 -1.44043,-1.19971 -0.74805,0 -1.44922,0.5083 -1.44922,1.24756 0,0.30713 0.09668,0.83496 1.08496,1.06543 l 0.89258,0.21094 c 1.0459,0.25928 1.77539,0.82568 1.77539,1.78516 0,0.93115 -0.76758,1.93896 -2.2168,1.93896 -1.29588,0 -2.16893,-0.91162 -2.21678,-1.87159 z"
             id="path97"
             inkscape:connector-curvature="0"
             style="fill:#1e282b;stroke:#1e282b;stroke-width:0.25;stroke-linejoin:round;stroke-miterlimit:10" /><path
             stroke-miterlimit="10"
             d="m 73.89727,150.33887 v 0.59521 h -3.87793 v -6.61279 h 3.77246 v 0.59521 h -3.14844 v 2.47607 h 2.74512 v 0.59521 h -2.74512 v 2.35107 h 3.25391 z"
             id="path99"
             inkscape:connector-curvature="0"
             style="fill:#1e282b;stroke:#1e282b;stroke-width:0.25;stroke-linejoin:round;stroke-miterlimit:10" /><path
             stroke-miterlimit="10"
             d="m 80.09942,144.32129 v 6.61279 H 79.4461 l -3.3877,-5.50928 v 5.50928 h -0.63379 v -6.61279 h 0.66309 l 3.37793,5.49951 v -5.49951 z"
             id="path101"
             inkscape:connector-curvature="0"
             style="fill:#1e282b;stroke:#1e282b;stroke-width:0.25;stroke-linejoin:round;stroke-miterlimit:10" /><path
             stroke-miterlimit="10"
             d="m 81.64629,149.17773 h 0.62305 c 0.06738,0.65283 0.66309,1.27637 1.59375,1.27637 1.05566,0 1.58301,-0.69092 1.58301,-1.31494 0,-0.71973 -0.64258,-1.06543 -1.29492,-1.22852 L 83.2586,147.6997 c -1.36328,-0.32617 -1.56445,-1.12305 -1.56445,-1.65088 0,-1.09424 1.00781,-1.84277 2.10156,-1.84277 1.12305,0 2.01562,0.69092 2.05371,1.79492 h -0.63281 c -0.03906,-0.72949 -0.64355,-1.19971 -1.44043,-1.19971 -0.74805,0 -1.44922,0.5083 -1.44922,1.24756 0,0.30713 0.09668,0.83496 1.08496,1.06543 l 0.89258,0.21094 c 1.0459,0.25928 1.77539,0.82568 1.77539,1.78516 0,0.93115 -0.76758,1.93896 -2.2168,1.93896 -1.2959,1e-5 -2.16894,-0.91161 -2.2168,-1.87158 z"
             id="path103"
             inkscape:connector-curvature="0"
             style="fill:#1e282b;stroke:#1e282b;stroke-width:0.25;stroke-linejoin:round;stroke-miterlimit:10" /><path
             stroke-miterlimit="10"
             d="m 87.22344,150.5791 c 0,-0.26904 0.2207,-0.46094 0.47949,-0.46094 0.27832,0 0.49902,0.19189 0.49902,0.46094 0,0.25879 -0.2207,0.45117 -0.49902,0.45117 -0.25878,0 -0.47949,-0.19238 -0.47949,-0.45117 z"
             id="path105"
             inkscape:connector-curvature="0"
             style="fill:#1e282b;stroke:#1e282b;stroke-width:0.25;stroke-linejoin:round;stroke-miterlimit:10" /></g><g
           id="g115"><path
             stroke-miterlimit="10"
             d="m 111.9129,144.54199 v 6.39209 h -0.60449 v -5.48047 l -1.37305,0.58545 v -0.60449 l 1.94824,-0.89258 z"
             id="path109"
             inkscape:connector-curvature="0"
             style="fill:#1e282b;stroke:#1e282b;stroke-width:0.25;stroke-linejoin:round;stroke-miterlimit:10" /><path
             stroke-miterlimit="10"
             d="m 113.54473,147.78613 c 0,-1.79492 0.4707,-3.24414 2.25586,-3.24414 1.78516,0 2.23633,1.44922 2.23633,3.24414 0,1.78516 -0.45117,3.26318 -2.23633,3.26318 -1.78516,0 -2.25586,-1.47802 -2.25586,-3.26318 z m 3.8877,0 c 0,-1.45898 -0.32715,-2.65869 -1.63184,-2.65869 -1.31543,0 -1.6416,1.19971 -1.6416,2.65869 0,1.44922 0.32617,2.67773 1.6416,2.67773 1.30469,10e-6 1.63184,-1.22851 1.63184,-2.67773 z"
             id="path111"
             inkscape:connector-curvature="0"
             style="fill:#1e282b;stroke:#1e282b;stroke-width:0.25;stroke-linejoin:round;stroke-miterlimit:10" /><path
             stroke-miterlimit="10"
             d="m 125.98614,144.32129 -1.97754,6.61279 h -0.66211 l -2.00586,-6.61279 h 0.66211 l 1.66992,5.61475 1.66113,-5.61475 z"
             id="path113"
             inkscape:connector-curvature="0"
             style="fill:#1e282b;stroke:#1e282b;stroke-width:0.25;stroke-linejoin:round;stroke-miterlimit:10" /></g><g
           id="g157"><g
             id="g119"><path
               d="m 104.29521,106.583 c -2.74467,0 -5.30176,-1.25759 -7.10437,-3.32733 -5.29309,-6.07747 -13.08375,-9.9212 -21.77651,-9.9212 -8.69238,0 -16.48335,3.84376 -21.77653,9.92126 -1.8026,2.06971 -4.35968,3.32728 -7.10432,3.32728 h -10e-6 v 20.59309 c 0,1.64225 1.33131,2.97356 2.97356,2.97356 h 51.81509 c 1.64225,0 2.97356,-1.33131 2.97356,-2.97356 V 106.583 Z"
               id="path117"
               inkscape:connector-curvature="0"
               style="fill:#1e282b" /></g><g
             id="g127"><path
               d="M 11.05176,87.05712 V 34.97558 c 0,-4.20654 3.42188,-7.62891 7.62891,-7.62891 h 113.43261 c 4.20703,0 7.62891,3.42236 7.62891,7.62891 v 52.08154 z"
               id="path121"
               inkscape:connector-curvature="0"
               style="fill:#ffffff" /><g
               id="g125"><path
                 d="m 132.11328,28.34655 c 3.65527,0 6.62891,2.97363 6.62891,6.62878 V 86.05724 H 12.05176 V 34.97533 c 0,-3.65515 2.97363,-6.62878 6.62891,-6.62878 h 113.43261 m 0,-2 H 18.68066 c -4.76562,0 -8.62891,3.86328 -8.62891,8.62878 V 88.05724 H 140.74218 V 34.97533 c 1e-5,-4.7655 -3.86327,-8.62878 -8.6289,-8.62878 z"
                 id="path123"
                 inkscape:connector-curvature="0"
                 style="fill:#1e282b" /></g></g><g
             id="g141"><g
               id="g139"><g
                 id="g137"><g
                   id="g133"><circle
                     cx="37.358509"
                     cy="97.343933"
                     r="3.8283899"
                     id="circle129"
                     style="fill:#bcbcbc" /><path
                     d="m 38.72229,93.95564 c 1.87131,0.7532 2.77771,2.88078 2.02452,4.75209 -0.7532,1.87131 -2.88078,2.77771 -4.75209,2.02451 -1.87131,-0.7532 -2.77771,-2.88078 -2.02452,-4.75209 0,-10e-6 1e-5,-2e-5 1e-5,-2e-5 0.75499,-1.86955 2.88081,-2.7752 4.75208,-2.02449 m 0.13142,-0.3265 c -2.05162,-0.82579 -4.38422,0.16794 -5.21001,2.21956 -0.82579,2.05162 0.16794,4.38422 2.21956,5.21001 2.05162,0.8258 4.38422,-0.16794 5.21001,-2.21955 0.82567,-2.05163 -0.16802,-4.38415 -2.21956,-5.21002 z"
                     id="path131"
                     inkscape:connector-curvature="0"
                     style="fill:#808080" /></g><polygon
                   points="39.68657,97.80689 37.93071,97.10014 38.63746,95.34429 37.82145,95.01584 37.1147,96.77169 35.35947,96.0652 35.03101,96.88121 36.78625,97.58772 36.07951,99.34356 36.89552,99.67201 37.60226,97.91616 39.35812,98.6229 "
                   id="polygon135"
                   style="fill:#6f6f6f" /></g></g></g><g
             id="g155"><g
               id="g153"><g
                 id="g151"><g
                   id="g147"><circle
                     cx="112.90372"
                     cy="97.343903"
                     r="3.8283899"
                     id="circle143"
                     style="fill:#bcbcbc" /><path
                     d="m 109.44297,98.5117 c -0.64495,-1.91132 0.38165,-3.98359 2.29296,-4.62854 1.91131,-0.64495 3.98358,0.38165 4.62853,2.29297 0.64495,1.91132 -0.38165,3.98358 -2.29296,4.62853 l -2e-5,1e-5 c -1.91115,0.64244 -3.98169,-0.38332 -4.62851,-2.29297 m -0.33348,0.1125 c 0.70708,2.0955 2.97902,3.22103 5.07452,2.51395 2.0955,-0.70708 3.22103,-2.97902 2.51395,-5.07452 -0.70708,-2.0955 -2.97902,-3.22103 -5.07452,-2.51395 -2.09542,0.70718 -3.22091,2.97903 -2.51395,5.07452 z"
                     id="path145"
                     inkscape:connector-curvature="0"
                     style="fill:#808080" /></g><polygon
                   points="111.74123,95.2744 112.34637,97.06781 110.55296,97.67297 110.83421,98.50642 112.62761,97.90128 113.23254,99.69405 114.06601,99.41282 113.46107,97.62004 115.25449,97.01489 114.97325,96.18142 113.17984,96.78658 112.57469,94.99316 "
                   id="polygon149"
                   style="fill:#6f6f6f" /></g></g></g></g><g
           id="g161"><path
             d="M 134.561,206.12161 H 20.23259 c -7.70533,0 -13.95173,6.2464 -13.95173,13.95174 v 88.54991 c 0,7.70532 6.2464,13.95175 13.95173,13.95175 H 134.561 c 7.70534,0 13.95174,-6.24643 13.95174,-13.95175 v -88.54991 c 0,-7.70534 -6.2464,-13.95174 -13.95174,-13.95174 z"
             id="path159"
             inkscape:connector-curvature="0"
             style="fill:#c9c9c9" /></g><rect
           x="10.05179"
           y="210.94463"
           stroke-miterlimit="10"
           width="129.89641"
           height="144.93779"
           id="rect163"
           style="fill:none;stroke:#1e282b;stroke-width:0.75;stroke-linejoin:round;stroke-miterlimit:10" /><g
           id="g167"><path
             d="M 132.561,197.12161 H 18.23259 c -7.70533,0 -13.95173,6.2464 -13.95173,13.95174 v 88.54991 c 0,7.70532 6.2464,13.95175 13.95173,13.95175 H 132.561 c 7.70534,0 13.95174,-6.24643 13.95174,-13.95175 v -88.54991 c 0,-7.70534 -6.2464,-13.95174 -13.95174,-13.95174 z"
             id="path165"
             inkscape:connector-curvature="0"
             style="fill:#f9f9f9" /></g><g
           id="g179"><path
             stroke-miterlimit="10"
             d="m 19.35528,319.82129 h 0.63379 v 6.61279 h -0.63379 c 0,0 0,-6.61279 0,-6.61279 z"
             id="path169"
             inkscape:connector-curvature="0"
             style="fill:#1e282b;stroke:#1e282b;stroke-width:0.25;stroke-linejoin:round;stroke-miterlimit:10" /><path
             stroke-miterlimit="10"
             d="m 26.65996,319.82129 v 6.61279 h -0.65332 l -3.3877,-5.50928 v 5.50928 h -0.63379 v -6.61279 h 0.66309 l 3.37793,5.49951 v -5.49951 z"
             id="path171"
             inkscape:connector-curvature="0"
             style="fill:#1e282b;stroke:#1e282b;stroke-width:0.25;stroke-linejoin:round;stroke-miterlimit:10" /><path
             stroke-miterlimit="10"
             d="m 33.14922,321.83691 c 0,1.02686 -0.53711,2.01514 -1.91992,2.01514 h -1.93848 v 2.58203 h -0.63379 v -6.61279 h 2.60156 c 1.35352,0 1.89063,0.99805 1.89063,2.01562 z m -0.63379,0 c 0,-0.71045 -0.35449,-1.42041 -1.2666,-1.42041 h -1.95801 v 2.84082 h 1.91016 c 0.9502,0 1.31445,-0.70068 1.31445,-1.42041 z"
             id="path173"
             inkscape:connector-curvature="0"
             style="fill:#1e282b;stroke:#1e282b;stroke-width:0.25;stroke-linejoin:round;stroke-miterlimit:10" /><path
             stroke-miterlimit="10"
             d="m 34.44707,324.2168 v -4.39551 h 0.63379 v 4.39551 c 0,1.11377 0.78711,1.71826 1.72754,1.71826 0.94043,0 1.72754,-0.60449 1.72754,-1.71826 v -4.39551 h 0.63281 v 4.39551 c 0,1.44971 -1.08398,2.33252 -2.36035,2.33252 -1.27637,0 -2.36133,-0.88282 -2.36133,-2.33252 z"
             id="path175"
             inkscape:connector-curvature="0"
             style="fill:#1e282b;stroke:#1e282b;stroke-width:0.25;stroke-linejoin:round;stroke-miterlimit:10" /><path
             stroke-miterlimit="10"
             d="m 45.15997,320.4165 h -2.1123 v 6.01758 h -0.63281 v -6.01758 h -2.10254 v -0.59521 h 4.84766 v 0.59521 z"
             id="path177"
             inkscape:connector-curvature="0"
             style="fill:#1e282b;stroke:#1e282b;stroke-width:0.25;stroke-linejoin:round;stroke-miterlimit:10" /></g><g
           id="g191"><path
             stroke-miterlimit="10"
             d="m 64.0877,324.67773 h 0.62305 c 0.06738,0.65283 0.66309,1.27637 1.59375,1.27637 1.05566,0 1.58301,-0.69092 1.58301,-1.31494 0,-0.71973 -0.64258,-1.06543 -1.29492,-1.22852 L 65.7,323.19971 c -1.36328,-0.32617 -1.56445,-1.12305 -1.56445,-1.65088 0,-1.09424 1.00781,-1.84277 2.10156,-1.84277 1.12305,0 2.01562,0.69092 2.05371,1.79492 H 67.658 c -0.03906,-0.72949 -0.64355,-1.19971 -1.44043,-1.19971 -0.74805,0 -1.44922,0.5083 -1.44922,1.24756 0,0.30713 0.09668,0.83496 1.08496,1.06543 l 0.89258,0.21094 c 1.0459,0.25928 1.77539,0.82568 1.77539,1.78516 0,0.93115 -0.76758,1.93896 -2.2168,1.93896 -1.29588,0 -2.16893,-0.91162 -2.21678,-1.87159 z"
             id="path181"
             inkscape:connector-curvature="0"
             style="fill:#1e282b;stroke:#1e282b;stroke-width:0.25;stroke-linejoin:round;stroke-miterlimit:10" /><path
             stroke-miterlimit="10"
             d="m 73.89727,325.83887 v 0.59521 h -3.87793 v -6.61279 h 3.77246 v 0.59521 h -3.14844 v 2.47607 h 2.74512 v 0.59521 h -2.74512 v 2.35107 h 3.25391 z"
             id="path183"
             inkscape:connector-curvature="0"
             style="fill:#1e282b;stroke:#1e282b;stroke-width:0.25;stroke-linejoin:round;stroke-miterlimit:10" /><path
             stroke-miterlimit="10"
             d="m 80.09942,319.82129 v 6.61279 H 79.4461 l -3.3877,-5.50928 v 5.50928 h -0.63379 v -6.61279 h 0.66309 l 3.37793,5.49951 v -5.49951 z"
             id="path185"
             inkscape:connector-curvature="0"
             style="fill:#1e282b;stroke:#1e282b;stroke-width:0.25;stroke-linejoin:round;stroke-miterlimit:10" /><path
             stroke-miterlimit="10"
             d="m 81.64629,324.67773 h 0.62305 c 0.06738,0.65283 0.66309,1.27637 1.59375,1.27637 1.05566,0 1.58301,-0.69092 1.58301,-1.31494 0,-0.71973 -0.64258,-1.06543 -1.29492,-1.22852 L 83.2586,323.1997 c -1.36328,-0.32617 -1.56445,-1.12305 -1.56445,-1.65088 0,-1.09424 1.00781,-1.84277 2.10156,-1.84277 1.12305,0 2.01562,0.69092 2.05371,1.79492 h -0.63281 c -0.03906,-0.72949 -0.64355,-1.19971 -1.44043,-1.19971 -0.74805,0 -1.44922,0.5083 -1.44922,1.24756 0,0.30713 0.09668,0.83496 1.08496,1.06543 l 0.89258,0.21094 c 1.0459,0.25928 1.77539,0.82568 1.77539,1.78516 0,0.93115 -0.76758,1.93896 -2.2168,1.93896 -1.2959,1e-5 -2.16894,-0.91161 -2.2168,-1.87158 z"
             id="path187"
             inkscape:connector-curvature="0"
             style="fill:#1e282b;stroke:#1e282b;stroke-width:0.25;stroke-linejoin:round;stroke-miterlimit:10" /><path
             stroke-miterlimit="10"
             d="m 87.22344,326.0791 c 0,-0.26904 0.2207,-0.46094 0.47949,-0.46094 0.27832,0 0.49902,0.19189 0.49902,0.46094 0,0.25879 -0.2207,0.45117 -0.49902,0.45117 -0.25878,0 -0.47949,-0.19238 -0.47949,-0.45117 z"
             id="path189"
             inkscape:connector-curvature="0"
             style="fill:#1e282b;stroke:#1e282b;stroke-width:0.25;stroke-linejoin:round;stroke-miterlimit:10" /></g><g
           id="g199"><path
             stroke-miterlimit="10"
             d="m 111.9129,320.04199 v 6.39209 h -0.60449 v -5.48047 l -1.37305,0.58545 v -0.60449 l 1.94824,-0.89258 z"
             id="path193"
             inkscape:connector-curvature="0"
             style="fill:#1e282b;stroke:#1e282b;stroke-width:0.25;stroke-linejoin:round;stroke-miterlimit:10" /><path
             stroke-miterlimit="10"
             d="m 113.54473,323.28613 c 0,-1.79492 0.4707,-3.24414 2.25586,-3.24414 1.78516,0 2.23633,1.44922 2.23633,3.24414 0,1.78516 -0.45117,3.26318 -2.23633,3.26318 -1.78516,0 -2.25586,-1.47802 -2.25586,-3.26318 z m 3.8877,0 c 0,-1.45898 -0.32715,-2.65869 -1.63184,-2.65869 -1.31543,0 -1.6416,1.19971 -1.6416,2.65869 0,1.44922 0.32617,2.67773 1.6416,2.67773 1.30469,10e-6 1.63184,-1.22851 1.63184,-2.67773 z"
             id="path195"
             inkscape:connector-curvature="0"
             style="fill:#1e282b;stroke:#1e282b;stroke-width:0.25;stroke-linejoin:round;stroke-miterlimit:10" /><path
             stroke-miterlimit="10"
             d="m 125.98614,319.82129 -1.97754,6.61279 h -0.66211 l -2.00586,-6.61279 h 0.66211 l 1.66992,5.61475 1.66113,-5.61475 z"
             id="path197"
             inkscape:connector-curvature="0"
             style="fill:#1e282b;stroke:#1e282b;stroke-width:0.25;stroke-linejoin:round;stroke-miterlimit:10" /></g><g
           id="g241"><g
             id="g203"><path
               d="m 104.29521,282.08301 c -2.74467,0 -5.30176,-1.2576 -7.10437,-3.32733 -5.29309,-6.07745 -13.08375,-9.9212 -21.77651,-9.9212 -8.69238,0 -16.48335,3.84375 -21.77653,9.92126 -1.8026,2.0697 -4.35968,3.32727 -7.10432,3.32727 h -10e-6 v 20.59308 c 0,1.64227 1.33131,2.97357 2.97356,2.97357 h 51.81509 c 1.64225,0 2.97356,-1.3313 2.97356,-2.97357 v -20.59308 z"
               id="path201"
               inkscape:connector-curvature="0"
               style="fill:#1e282b" /></g><g
             id="g211"><path
               d="m 11.05176,262.55713 v -52.08154 c 0,-4.20654 3.42188,-7.62891 7.62891,-7.62891 h 113.43261 c 4.20703,0 7.62891,3.42236 7.62891,7.62891 v 52.08154 z"
               id="path205"
               inkscape:connector-curvature="0"
               style="fill:#ffffff" /><g
               id="g209"><path
                 d="m 132.11328,203.84656 c 3.65527,0 6.62891,2.97363 6.62891,6.62878 v 51.08191 H 12.05176 v -51.08191 c 0,-3.65515 2.97363,-6.62878 6.62891,-6.62878 h 113.43261 m 0,-2 H 18.68066 c -4.76562,0 -8.62891,3.86328 -8.62891,8.62878 v 53.08191 h 130.69043 v -53.08191 c 1e-5,-4.7655 -3.86327,-8.62878 -8.6289,-8.62878 z"
                 id="path207"
                 inkscape:connector-curvature="0"
                 style="fill:#1e282b" /></g></g><g
             id="g225"><g
               id="g223"><g
                 id="g221"><g
                   id="g217"><circle
                     cx="37.358509"
                     cy="272.84393"
                     r="3.8283899"
                     id="circle213"
                     style="fill:#bcbcbc" /><path
                     d="m 38.72229,269.45563 c 1.87131,0.7532 2.77771,2.8808 2.02452,4.75211 -0.7532,1.87131 -2.88078,2.77771 -4.75209,2.02451 -1.87131,-0.7532 -2.77771,-2.88077 -2.02452,-4.75208 l 1e-5,-3e-5 c 0.75499,-1.86954 2.88081,-2.77518 4.75208,-2.02451 m 0.13142,-0.32648 c -2.05162,-0.82581 -4.38422,0.16794 -5.21001,2.21954 -0.82579,2.05164 0.16794,4.38425 2.21956,5.21002 2.05162,0.82581 4.38422,-0.16794 5.21001,-2.21954 0.82567,-2.05163 -0.16802,-4.38415 -2.21956,-5.21002 z"
                     id="path215"
                     inkscape:connector-curvature="0"
                     style="fill:#808080" /></g><polygon
                   points="39.68657,273.30688 37.93071,272.60016 38.63746,270.8443 37.82145,270.51584 37.1147,272.2717 35.35947,271.56522 35.03101,272.38123 36.78625,273.08771 36.07951,274.84357 36.89552,275.17203 37.60226,273.41617 39.35812,274.12292 "
                   id="polygon219"
                   style="fill:#6f6f6f" /></g></g></g><g
             id="g239"><g
               id="g237"><g
                 id="g235"><g
                   id="g231"><circle
                     cx="112.90372"
                     cy="272.8439"
                     r="3.8283999"
                     id="circle227"
                     style="fill:#bcbcbc" /><path
                     d="m 109.44297,274.01169 c -0.64495,-1.91132 0.38165,-3.98358 2.29296,-4.62854 1.91132,-0.64493 3.98358,0.38165 4.62853,2.29297 0.64495,1.91132 -0.38165,3.98358 -2.29296,4.62854 h -2e-5 c -1.91115,0.64245 -3.98169,-0.3833 -4.62851,-2.29297 m -0.33348,0.11252 c 0.70708,2.09552 2.97902,3.22104 5.07452,2.51395 2.0955,-0.70706 3.22103,-2.979 2.51395,-5.07449 -0.70708,-2.09552 -2.97902,-3.22104 -5.07452,-2.51395 -2.09542,0.70715 -3.22091,2.979 -2.51395,5.07449 z"
                     id="path229"
                     inkscape:connector-curvature="0"
                     style="fill:#808080" /></g><polygon
                   points="111.74123,270.77441 112.34637,272.56781 110.55296,273.17297 110.83421,274.00644 112.62761,273.40128 113.23254,275.19406 114.06601,274.91281 113.46107,273.12006 115.25449,272.51489 114.97325,271.68143 113.17984,272.28659 112.57469,270.49316 "
                   id="polygon233"
                   style="fill:#6f6f6f" /></g></g></g></g><circle
           cx="75"
           cy="295"
           r="16.5252"
           id="circle243"
           style="fill:none" /></g><g
         id="SCREEN"><g
           id="g248"><path
             d="m 132.56055,26.62157 c 4.93652,0 8.95215,4.01575 8.95215,8.95178 v 88.54993 c 0,4.93592 -4.01562,8.95167 -8.95215,8.95167 H 18.23242 c -4.93555,0 -8.95117,-4.01575 -8.95117,-8.95167 V 35.57335 c 0,-4.93604 4.01562,-8.95178 8.95117,-8.95178 h 114.32813 m 0,-5 H 18.23242 c -7.70508,0 -13.95117,6.24646 -13.95117,13.95178 v 88.54993 c 0,7.70533 6.24609,13.95167 13.95117,13.95167 h 114.32811 c 7.70605,0 13.95215,-6.24634 13.95215,-13.95167 V 35.57335 c 2e-5,-7.70532 -6.24608,-13.95178 -13.95213,-13.95178 z"
             id="path246"
             inkscape:connector-curvature="0"
             style="fill:#f2f2f2" /></g><g
           id="g252"><path
             d="m 132.56055,22.62157 c 7.1416,0 12.95215,5.81018 12.95215,12.95178 v 88.54993 c 0,7.14161 -5.81055,12.95167 -12.95215,12.95167 H 18.23242 c -7.1416,0 -12.95117,-5.81006 -12.95117,-12.95167 V 35.57335 c 0,-7.1416 5.80957,-12.95178 12.95117,-12.95178 h 114.32813 m 0,-1 H 18.23242 c -7.70508,0 -13.95117,6.24646 -13.95117,13.95178 v 88.54993 c 0,7.70533 6.24609,13.95167 13.95117,13.95167 h 114.32811 c 7.70605,0 13.95215,-6.24634 13.95215,-13.95167 V 35.57335 c 2e-5,-7.70532 -6.24608,-13.95178 -13.95213,-13.95178 z"
             id="path250"
             inkscape:connector-curvature="0"
             style="fill:#808080" /></g><path
           stroke-miterlimit="10"
           d="M 132.64165,23.9756 H 18.15195 c -6.07293,0 -10.99602,4.92309 -10.99602,10.99602 v 89.75336 c 0,6.07294 4.92309,10.99604 10.99602,10.99604 h 114.4897 c 6.07292,0 10.99602,-4.9231 10.99602,-10.99604 V 34.97162 c -1e-5,-6.07294 -4.9231,-10.99602 -10.99602,-10.99602 z"
           id="path254"
           inkscape:connector-curvature="0"
           style="fill:none;stroke:#c9c9c9;stroke-miterlimit:10" /><g
           id="g258"><path
             d="m 132.46777,26.34655 c 4.56934,0 8.27441,3.70447 8.27441,8.27405 v 90.45544 c 0,4.56959 -3.70508,8.27393 -8.27441,8.27393 H 18.32617 c -4.57031,0 -8.27441,-3.70435 -8.27441,-8.27393 V 34.6206 c 0,-4.56958 3.7041,-8.27405 8.27441,-8.27405 h 114.1416 m 0,-1 H 18.32617 c -5.11426,0 -9.27441,4.16028 -9.27441,9.27405 v 90.45544 c 0,5.11366 4.16016,9.27393 9.27441,9.27393 h 114.1416 c 5.11426,0 9.27441,-4.16028 9.27441,-9.27393 V 34.6206 c 1e-5,-5.11377 -4.16015,-9.27405 -9.27441,-9.27405 z"
             id="path256"
             inkscape:connector-curvature="0"
             style="fill:#c9c9c9" /></g><g
           id="g262"><path
             d="m 132.56055,202.12158 c 4.93652,0 8.95215,4.01575 8.95215,8.95178 v 88.54993 c 0,4.93591 -4.01562,8.95166 -8.95215,8.95166 H 18.23242 c -4.93555,0 -8.95117,-4.01575 -8.95117,-8.95166 v -88.54993 c 0,-4.93604 4.01562,-8.95178 8.95117,-8.95178 h 114.32813 m 0,-5 H 18.23242 c -7.70508,0 -13.95117,6.24646 -13.95117,13.95178 v 88.54993 c 0,7.70532 6.24609,13.95166 13.95117,13.95166 h 114.32811 c 7.70605,0 13.95215,-6.24634 13.95215,-13.95166 v -88.54993 c 2e-5,-7.70532 -6.24608,-13.95178 -13.95213,-13.95178 z"
             id="path260"
             inkscape:connector-curvature="0"
             style="fill:#f2f2f2" /></g><g
           id="g266"><path
             d="m 132.56055,198.12158 c 7.1416,0 12.95215,5.81018 12.95215,12.95178 v 88.54993 c 0,7.1416 -5.81055,12.95166 -12.95215,12.95166 H 18.23242 c -7.1416,0 -12.95117,-5.81006 -12.95117,-12.95166 v -88.54993 c 0,-7.1416 5.80957,-12.95178 12.95117,-12.95178 h 114.32813 m 0,-1 H 18.23242 c -7.70508,0 -13.95117,6.24646 -13.95117,13.95178 v 88.54993 c 0,7.70532 6.24609,13.95166 13.95117,13.95166 h 114.32811 c 7.70605,0 13.95215,-6.24634 13.95215,-13.95166 v -88.54993 c 2e-5,-7.70532 -6.24608,-13.95178 -13.95213,-13.95178 z"
             id="path264"
             inkscape:connector-curvature="0"
             style="fill:#808080" /></g><path
           stroke-miterlimit="10"
           d="M 132.64165,199.4756 H 18.15195 c -6.07293,0 -10.99602,4.9231 -10.99602,10.99603 v 89.75334 c 0,6.07294 4.92309,10.99603 10.99602,10.99603 h 114.4897 c 6.07292,0 10.99602,-4.9231 10.99602,-10.99603 v -89.75334 c -1e-5,-6.07293 -4.9231,-10.99603 -10.99602,-10.99603 z"
           id="path268"
           inkscape:connector-curvature="0"
           style="fill:none;stroke:#c9c9c9;stroke-miterlimit:10" /><g
           id="g272"><path
             d="m 132.46777,201.84656 c 4.56934,0 8.27441,3.70447 8.27441,8.27405 v 90.45544 c 0,4.56958 -3.70508,8.27393 -8.27441,8.27393 H 18.32617 c -4.57031,0 -8.27441,-3.70435 -8.27441,-8.27393 v -90.45544 c 0,-4.56958 3.7041,-8.27405 8.27441,-8.27405 h 114.1416 m 0,-1 H 18.32617 c -5.11426,0 -9.27441,4.16028 -9.27441,9.27405 v 90.45544 c 0,5.11365 4.16016,9.27393 9.27441,9.27393 h 114.1416 c 5.11426,0 9.27441,-4.16028 9.27441,-9.27393 v -90.45544 c 1e-5,-5.11377 -4.16015,-9.27405 -9.27441,-9.27405 z"
             id="path270"
             inkscape:connector-curvature="0"
             style="fill:#c9c9c9" /></g></g></g><g
       transform="translate(12.5,20.5)"
       id="g128"><path
         style="fill:none;stroke:#1e282b;stroke-width:0.75;stroke-linejoin:round;stroke-miterlimit:10"
         inkscape:connector-curvature="0"
         id="path2"
         d="M 115.21562,46.28437 C 86.10159,17.17033 38.89841,17.17033 9.78438,46.28437"
         stroke-miterlimit="10" /><path
         style="fill:none;stroke:#1e282b;stroke-width:0.75;stroke-linejoin:round;stroke-miterlimit:10"
         inkscape:connector-curvature="0"
         id="path4"
         d="m 112.73079,48.7692 c -27.7417,-27.7417 -72.71988,-27.7417 -100.46158,0"
         stroke-miterlimit="10" /><g
         id="g48"><path
           inkscape:connector-curvature="0"
           id="path6"
           d="m 1.01836,43.38896 1.32617,-1.43262 0.45605,0.42285 -1.3252,1.43261 z" /><path
           inkscape:connector-curvature="0"
           id="path8"
           d="m 1.73907,38.31718 1.80957,-1.76562 0.43652,0.44727 -1.42578,1.39111 0.98437,1.33057 0.02246,4.9e-4 c -0.03027,-0.36279 0.13965,-0.72803 0.41406,-0.99609 0.6084,-0.59277 1.48926,-0.51367 2.32129,0.34033 0.7373,0.75537 1.02441,1.71533 0.17676,2.5415 -0.96191,0.93896 -1.8877,0.28857 -2.20605,-0.03809 l 0.50488,-0.4917 c 0.20703,0.21191 0.80566,0.66602 1.34473,0.14111 C 6.69415,40.65995 6.15997,39.92802 5.7586,39.5164 5.32208,39.06913 4.69903,38.76249 4.18926,39.25859 3.83867,39.59941 3.90703,40.11504 4.00078,40.21269 l -0.45703,0.40186 z" /><path
           inkscape:connector-curvature="0"
           id="path10"
           d="m 9.59864,34.871 1.54492,-1.18896 0.38086,0.49463 -1.54688,1.18994 z" /><path
           inkscape:connector-curvature="0"
           id="path12"
           d="m 12.29102,29.06777 0.55176,-0.3833 2.11914,3.06006 0.52734,-0.36377 0.32812,0.47314 -0.52637,0.36523 0.7793,1.12451 -0.55371,0.3833 -0.7793,-1.12549 -1.68359,1.16699 -0.36133,-0.52002 z m 0.93457,3.87989 1.18457,-0.81934 -1.49121,-2.15283 -0.0127,0.0093 z" /><path
           inkscape:connector-curvature="0"
           id="path14"
           d="m 21.00067,27.11043 1.72559,-0.91455 0.29297,0.55176 -1.72656,0.91455 z" /><path
           inkscape:connector-curvature="0"
           id="path16"
           d="m 24.94501,24.4283 0.31836,-0.14893 c 0.54395,-0.25391 0.60059,-0.75781 0.36035,-1.27295 -0.21973,-0.47119 -0.57324,-0.77441 -1.06738,-0.54395 -0.67383,0.31494 -0.44727,0.96924 -0.27148,1.34668 l -0.63867,0.29736 c -0.41016,-0.87744 -0.27734,-1.67285 0.67285,-2.11621 1.07324,-0.50098 1.67578,0.14648 1.94336,0.71875 0.24121,0.51465 0.19238,1.09375 -0.28418,1.47461 l 0.0078,0.01514 c 0.63477,-0.15479 1.17578,0.04248 1.50879,0.75391 0.43652,0.93604 0.26953,1.80762 -0.71777,2.26855 -1.37891,0.64307 -2.01953,-0.52393 -2.12402,-0.74854 l -0.03027,-0.06543 0.63867,-0.29785 c 0.21973,0.47119 0.70508,0.90723 1.29297,0.63281 0.37695,-0.17627 0.73145,-0.5708 0.32422,-1.44141 -0.28027,-0.60254 -0.74609,-0.84326 -1.38477,-0.5459 l -0.32617,0.15137 z" /><path
           inkscape:connector-curvature="0"
           id="path18"
           d="m 32.66143,21.66342 1.83398,-0.6709 0.21582,0.58594 -1.83496,0.67139 z" /><path
           inkscape:connector-curvature="0"
           id="path20"
           d="m 39.84014,21.98862 -3.02734,0.93359 c -0.31055,-1.00879 0.04199,-1.87158 0.4873,-2.57764 l 0.32617,-0.51172 c 0.32031,-0.5083 0.50195,-0.92432 0.31836,-1.521 -0.14355,-0.46533 -0.50586,-0.90576 -1.08691,-0.72705 -0.83301,0.25732 -0.58887,1.12695 -0.49609,1.43262 l -0.67188,0.20801 c -0.31543,-1.02393 -0.10156,-1.85156 1.00684,-2.19287 1.25293,-0.3877 1.75098,0.52148 1.89648,0.99561 0.25586,0.82617 0.04492,1.36768 -0.39844,2.07324 l -0.55859,0.90137 c -0.2207,0.34326 -0.33789,0.72314 -0.30371,1.10596 l 2.32324,-0.71631 z" /><path
           inkscape:connector-curvature="0"
           id="path22"
           d="m 44.78066,18.24589 1.91992,-0.35205 0.1123,0.61377 -1.9209,0.35156 z" /><path
           inkscape:connector-curvature="0"
           id="path24"
           d="m 48.2748,15.45927 c 0.70117,-0.1333 1.33984,-0.30664 1.2666,-1.10303 l 0.47559,-0.06348 0.74219,5.61523 -0.66797,0.08789 -0.55664,-4.21924 -1.19727,0.1582 z" /><path
           inkscape:connector-curvature="0"
           id="path26"
           d="m 60.79674,15.94413 c -0.0068,-1.25 0.07324,-2.91504 1.60156,-2.92383 1.5293,-0.0088 1.62598,1.51221 1.63379,2.90625 0.0059,1.2002 -0.07227,2.8667 -1.60156,2.875 -1.5293,0.0078 -1.62598,-1.51269 -1.63379,-2.85742 z m 1.62988,2.32861 c 0.86523,-0.0049 0.90625,-1.1499 0.90039,-2.34326 -0.0068,-1.24854 -0.06055,-2.38477 -0.92578,-2.38086 -0.86523,0.0049 -0.90625,1.14209 -0.90039,2.39111 0.0078,1.19337 0.0625,2.3379 0.92578,2.33301 z" /><path
           inkscape:connector-curvature="0"
           id="path28"
           d="m 69.29297,17.22392 -1.75195,-0.15381 0.04688,-0.52588 1.75195,0.15381 0.1543,-1.75342 0.52539,0.04639 -0.1543,1.75244 1.75391,0.15479 -0.0459,0.52637 -1.75293,-0.15381 -0.15527,1.75244 -0.52637,-0.04688 z" /><path
           inkscape:connector-curvature="0"
           id="path30"
           d="m 73.76367,14.71659 c 0.70996,0.06787 1.37109,0.07959 1.52344,-0.70605 l 0.47461,0.07324 -0.85547,5.5957 -0.66406,-0.10107 0.64258,-4.20508 -1.19336,-0.18213 z" /><path
           inkscape:connector-curvature="0"
           id="path32"
           d="m 82.13136,19.16275 -1.70703,-0.43066 0.12891,-0.51221 1.70703,0.43018 0.43164,-1.70605 0.51172,0.12891 -0.43066,1.70654 1.70801,0.43164 -0.13086,0.51123 -1.70703,-0.43066 -0.42969,1.70752 -0.5127,-0.12988 z" /><path
           inkscape:connector-curvature="0"
           id="path34"
           d="M 88.3296,22.82144 85.313,21.84781 c 0.32422,-1.00586 1.10938,-1.50977 1.87695,-1.83301 l 0.56348,-0.23047 c 0.55469,-0.23389 0.94238,-0.4707 1.13379,-1.06543 0.15039,-0.46387 0.10547,-1.03369 -0.47266,-1.21973 -0.83105,-0.26807 -1.13184,0.58545 -1.22949,0.89014 L 86.51417,18.173 c 0.33008,-1.02051 0.98047,-1.57666 2.08496,-1.21973 1.24902,0.40234 1.13477,1.43359 0.9834,1.90576 -0.26562,0.82373 -0.74805,1.14697 -1.51758,1.4707 l -0.97559,0.41797 c -0.37793,0.15576 -0.69238,0.39844 -0.88379,0.73193 l 2.31641,0.74707 z" /><path
           inkscape:connector-curvature="0"
           id="path36"
           d="m 94.8543,23.55351 -1.61523,-0.7002 0.21094,-0.48486 1.61426,0.7002 0.70215,-1.61475 0.48438,0.21045 -0.70117,1.61475 1.61523,0.70166 -0.20898,0.48438 -1.61719,-0.70117 -0.69922,1.61572 -0.48535,-0.21045 z" /><path
           inkscape:connector-curvature="0"
           id="path38"
           d="m 99.98516,24.3621 0.31445,0.16064 c 0.5332,0.27246 0.96484,0.0078 1.22266,-0.49854 0.23633,-0.46338 0.25781,-0.92822 -0.22656,-1.1748 -0.66309,-0.33789 -1.03906,0.24268 -1.22852,0.6123 l -0.62793,-0.31934 c 0.44043,-0.86182 1.14844,-1.24707 2.08105,-0.771 1.05469,0.53711 0.91602,1.41016 0.62891,1.97217 -0.25781,0.50635 -0.74414,0.82471 -1.33594,0.68408 l -0.008,0.01416 c 0.51367,0.40479 0.68945,0.95361 0.33398,1.65088 -0.46875,0.91992 -1.25781,1.32471 -2.22656,0.83154 -1.35547,-0.69043 -0.83008,-1.91406 -0.71777,-2.13428 l 0.0332,-0.06445 0.62598,0.32031 c -0.23438,0.46289 -0.28027,1.11279 0.29688,1.40771 0.37109,0.18896 0.90039,0.22607 1.33594,-0.62939 0.30176,-0.59229 0.20508,-1.1084 -0.42188,-1.42773 l -0.32031,-0.16309 z" /><path
           inkscape:connector-curvature="0"
           id="path40"
           d="m 105.53985,29.31415 -1.4834,-0.94629 0.28418,-0.44531 1.4834,0.94629 0.94531,-1.48389 0.44531,0.28467 -0.94629,1.4834 1.4834,0.94482 -0.28418,0.4458 -1.4834,-0.94629 -0.94531,1.48291 -0.44531,-0.28369 z" /><path
           inkscape:connector-curvature="0"
           id="path42"
           d="m 112.64434,29.44745 0.54297,0.39844 -2.19824,3.00293 0.5166,0.37842 -0.33984,0.46533 -0.51758,-0.37842 -0.80762,1.104 -0.54297,-0.396 0.80859,-1.10498 -1.6543,-1.21045 0.37402,-0.50977 z m -3.36133,2.15381 1.16406,0.85156 1.54492,-2.11279 -0.0117,-0.01025 z" /><path
           inkscape:connector-curvature="0"
           id="path44"
           d="m 116.84258,37.49687 -1.31543,-1.17041 0.35156,-0.39404 1.31445,1.16943 1.1709,-1.31396 0.39355,0.3501 -1.1709,1.31543 1.31543,1.1709 -0.35156,0.39404 -1.31445,-1.1709 -1.1709,1.31445 -0.39355,-0.35059 z" /><path
           inkscape:connector-curvature="0"
           id="path46"
           d="m 122.67851,37.74687 1.77832,1.7959 -0.44238,0.43896 -1.40234,-1.41553 -1.32227,0.99414 -9.8e-4,0.02246 c 0.3623,-0.03125 0.72949,0.13428 0.99902,0.40723 0.59668,0.60254 0.52539,1.48438 -0.32129,2.32373 -0.75,0.74268 -1.70801,1.03662 -2.54004,0.1958 -0.94629,-0.95459 -0.30273,-1.88428 0.0215,-2.20605 l 0.49512,0.50098 c -0.20996,0.20801 -0.66016,0.81055 -0.13184,1.3457 0.5625,0.56738 1.29102,0.02783 1.69922,-0.37695 0.44336,-0.43896 0.74609,-1.06494 0.24609,-1.57031 -0.34375,-0.34717 -0.85938,-0.27637 -0.95508,-0.18018 l -0.40625,-0.45508 z" /></g><g
         id="g72"><path
           inkscape:connector-curvature="0"
           id="path50"
           d="m 16.46953,55.98612 c -0.88965,-0.87598 -2.0127,-2.10547 -0.94043,-3.19336 1.07129,-1.08887 2.21582,-0.08496 3.20605,0.89062 0.85645,0.8418 1.97852,2.07031 0.90723,3.15918 -1.07128,1.08791 -2.21581,0.08498 -3.17285,-0.85644 z m 2.79688,0.48633 c 0.60645,-0.61523 -0.1748,-1.45215 -1.02441,-2.28711 -0.88867,-0.875 -1.73047,-1.6377 -2.33789,-1.02344 -0.60547,0.61621 0.16992,1.44629 1.05859,2.32129 0.84961,0.83691 1.69726,1.60353 2.30371,0.98926 z" /><path
           inkscape:connector-curvature="0"
           id="path52"
           d="m 22.82696,47.52811 c 0.5498,-0.45508 1.02539,-0.91602 0.5752,-1.5791 l 0.38672,-0.28613 3.36719,4.55957 -0.54102,0.39941 -2.5293,-3.4248 -0.97266,0.7168 z" /><path
           inkscape:connector-curvature="0"
           id="path54"
           d="m 36.25079,44.75467 -2.81348,1.45508 c -0.48633,-0.93848 -0.29004,-1.85059 0.02148,-2.62402 l 0.23242,-0.56152 c 0.22461,-0.55664 0.33008,-0.99805 0.04297,-1.55273 -0.22363,-0.43262 -0.6582,-0.80371 -1.19727,-0.52441 -0.77637,0.40039 -0.38086,1.21484 -0.23438,1.49902 l -0.62598,0.32324 c -0.49121,-0.95215 -0.42871,-1.80566 0.60254,-2.33691 1.16602,-0.60352 1.81641,0.20508 2.04395,0.64453 0.39648,0.76758 0.28711,1.33887 -0.02637,2.11133 l -0.39062,0.98632 c -0.15625,0.37793 -0.20508,0.77148 -0.10352,1.14258 L 35.96368,44.2 Z" /><path
           inkscape:connector-curvature="0"
           id="path56"
           d="m 42.1834,38.90116 0.33301,-0.11035 c 0.57129,-0.1875 0.68652,-0.67969 0.50879,-1.21973 -0.16113,-0.49512 -0.47754,-0.83887 -0.99414,-0.66797 -0.70703,0.23242 -0.56055,0.90918 -0.42969,1.30469 l -0.66992,0.21973 c -0.30273,-0.91992 -0.07715,-1.69336 0.91895,-2.02246 1.12598,-0.37012 1.64746,0.34473 1.84473,0.94434 0.17773,0.54004 0.06055,1.1084 -0.45703,1.43164 l 0.0049,0.01465 c 0.64941,-0.07812 1.16504,0.18164 1.40918,0.92676 0.32227,0.98145 0.05371,1.82812 -0.97949,2.16895 -1.44531,0.47559 -1.94434,-0.75977 -2.02246,-0.99609 l -0.02246,-0.06738 0.66895,-0.2207 c 0.16406,0.49414 0.59473,0.98535 1.20996,0.78223 0.39551,-0.13086 0.79395,-0.48145 0.49512,-1.39258 -0.20898,-0.63184 -0.64258,-0.92676 -1.31152,-0.70703 l -0.34277,0.1123 z" /><path
           inkscape:connector-curvature="0"
           id="path58"
           d="m 52.34942,33.88261 0.66406,-0.10645 0.5918,3.67188 0.63184,-0.10254 0.0918,0.56836 -0.63184,0.10254 0.21875,1.35059 -0.66406,0.10645 -0.21777,-1.35059 -2.02148,0.32617 -0.10059,-0.62403 z m -0.82813,3.90137 1.42188,-0.22949 -0.41797,-2.58203 -0.01562,0.0029 z" /><path
           inkscape:connector-curvature="0"
           id="path60"
           d="m 61.29473,33.20683 2.5293,0.0166 -0.0029,0.625 -1.99512,-0.01367 -0.23438,1.64062 0.0166,0.01562 c 0.23438,-0.27832 0.61133,-0.41992 0.99512,-0.41797 0.84863,0.0059 1.4209,0.68164 1.41406,1.875 -0.0068,1.05664 -0.47852,1.94238 -1.66211,1.93457 -1.34473,-0.0088 -1.54688,-1.12305 -1.54395,-1.57812 l 0.7041,0.0029 c -9.8e-4,0.29688 0.10547,1.04199 0.85938,1.04688 0.7998,0.0059 0.93359,-0.89062 0.93848,-1.4668 0.0029,-0.625 -0.22363,-1.2832 -0.93652,-1.28711 -0.48926,-0.0029 -0.80469,0.41113 -0.80469,0.54688 L 60.96269,36.1121 Z" /><path
           inkscape:connector-curvature="0"
           id="path62"
           d="m 73.35528,35.36796 c 0.07324,-0.4668 -0.13281,-0.86426 -0.60742,-0.93848 -0.93164,-0.14551 -1.20605,1.23828 -1.25195,1.53027 l -0.07031,0.44336 0.0166,0.002 c 0.14258,-0.1875 0.54785,-0.55371 1.16602,-0.45801 0.97266,0.15332 1.35059,0.9502 1.18457,2.00195 -0.16992,1.08398 -0.83691,1.83008 -1.88086,1.66602 -1.55078,-0.24219 -1.42676,-1.75488 -1.24414,-2.91797 0.20117,-1.28125 0.55664,-3.04102 2.17871,-2.78711 1.30566,0.20508 1.24512,1.30664 1.2041,1.56738 z m -1.36133,3.72559 c 0.69531,0.1084 0.99707,-0.57324 1.08887,-1.1582 0.09082,-0.58594 0.06152,-1.31934 -0.68262,-1.43652 -0.74414,-0.11621 -0.99805,0.57227 -1.08984,1.1582 -0.09179,0.58593 -0.0127,1.32714 0.68359,1.43652 z" /><path
           inkscape:connector-curvature="0"
           id="path64"
           d="m 81.36016,35.93925 3.07324,1.00391 -0.17969,0.55566 c -0.42383,0.29004 -1.06445,0.80664 -1.66211,1.50391 -0.61328,0.7168 -1.2168,1.56348 -1.67578,2.63574 l -0.74609,-0.24316 c 0.36523,-0.78223 0.85938,-1.54688 1.4541,-2.2373 0.57715,-0.6875 1.25977,-1.30664 2.00879,-1.81934 L 81.1668,36.53301 Z" /><path
           inkscape:connector-curvature="0"
           id="path66"
           d="m 90.42325,42.04373 c -0.39844,-0.46582 -0.45898,-0.91113 -0.18164,-1.45117 0.41602,-0.81348 1.14941,-1.03223 1.94727,-0.62305 0.79883,0.41016 1.04883,1.13184 0.63281,1.94434 -0.27832,0.54199 -0.67383,0.75293 -1.28613,0.7002 0.50391,0.50977 0.57324,1.07618 0.22656,1.75293 -0.34082,0.66211 -1.07812,1.3291 -2.20996,0.74805 -1.13281,-0.58203 -1.02344,-1.56836 -0.68359,-2.23145 0.34765,-0.67677 0.84765,-0.95021 1.55468,-0.83985 z m -0.63086,2.6006 c 0.58398,0.2998 1.0498,-0.02832 1.35254,-0.62012 0.30371,-0.59082 0.29883,-1.16114 -0.28613,-1.45996 -0.58398,-0.2998 -1.04883,0.02832 -1.35156,0.62012 -0.30469,0.5908 -0.29884,1.16112 0.28515,1.45996 z m 1.06933,-3.71682 c -0.24121,0.4707 -0.22363,0.92871 0.23828,1.16602 0.45605,0.23438 0.84668,-0.01562 1.08691,-0.48633 0.24512,-0.47852 0.2168,-0.93262 -0.23828,-1.16699 -0.46288,-0.23633 -0.84276,0.0098 -1.08691,0.4873 z" /><path
           inkscape:connector-curvature="0"
           id="path68"
           d="m 97.86895,48.76083 c -0.27344,0.375 -0.27734,0.82812 0.10938,1.11133 0.76172,0.55762 1.64453,-0.55078 1.81445,-0.78418 l 0.26562,-0.36133 -0.0137,-0.0088 c -0.21289,0.10156 -0.74219,0.24023 -1.24609,-0.12891 -0.79297,-0.58203 -0.76172,-1.46191 -0.13477,-2.32031 0.64844,-0.88477 1.58398,-1.24121 2.43652,-0.61621 1.26465,0.92578 0.45703,2.21875 -0.2334,3.16211 -0.76562,1.04492 -1.88965,2.44434 -3.21289,1.47461 -1.06445,-0.78027 -0.50879,-1.73047 -0.35156,-1.94434 z m 2.91895,-2.68263 c -0.56738,-0.41602 -1.14355,0.04492 -1.49902,0.52832 -0.35449,0.48438 -0.6582,1.14453 -0.05273,1.58887 0.6084,0.44434 1.14453,-0.04492 1.5,-0.52832 0.3535,-0.48438 0.61913,-1.17286 0.0517,-1.58887 z" /><path
           inkscape:connector-curvature="0"
           id="path70"
           d="m 106.09454,53.51933 c 0.88574,-0.87891 2.12793,-1.98828 3.2041,-0.90527 1.07617,1.08496 0.0605,2.21777 -0.92871,3.19727 -0.85059,0.84473 -2.09277,1.9541 -3.16895,0.87012 -1.07519,-1.08303 -0.0596,-2.21584 0.89356,-3.16212 z m -0.51856,2.79101 c 0.6084,0.61328 1.4541,-0.15918 2.29883,-0.99902 0.88574,-0.87891 1.65723,-1.71191 1.04883,-2.32422 -0.60742,-0.61328 -1.44727,0.15234 -2.33398,1.03125 -0.84376,0.83887 -1.62208,1.67871 -1.01368,2.29199 z" /></g><g
         id="g96"><line
           style="fill:none;stroke:#1e282b;stroke-width:0.75;stroke-linejoin:round;stroke-miterlimit:10"
           id="line74"
           y2="44.103168"
           x2="117.39682"
           y1="50.61375"
           x1="110.88624"
           stroke-miterlimit="10" /><line
           style="fill:none;stroke:#1e282b;stroke-width:0.75;stroke-linejoin:round;stroke-miterlimit:10"
           id="line76"
           y2="35.920959"
           x2="107.77789"
           y1="43.394711"
           x1="102.40031"
           stroke-miterlimit="10" /><line
           style="fill:none;stroke:#1e282b;stroke-width:0.75;stroke-linejoin:round;stroke-miterlimit:10"
           id="line78"
           y2="29.55162"
           x2="97.246536"
           y1="37.785301"
           x1="93.125648"
           stroke-miterlimit="10" /><line
           style="fill:none;stroke:#1e282b;stroke-width:0.75;stroke-linejoin:round;stroke-miterlimit:10"
           id="line80"
           y2="25.002159"
           x2="86.037163"
           y1="33.778519"
           x1="83.25312"
           stroke-miterlimit="10" /><line
           style="fill:none;stroke:#1e282b;stroke-width:0.75;stroke-linejoin:round;stroke-miterlimit:10"
           id="line82"
           y2="22.27347"
           x2="74.379837"
           y1="31.373461"
           x1="72.977943"
           stroke-miterlimit="10" /><line
           style="fill:none;stroke:#1e282b;stroke-width:0.75;stroke-linejoin:round;stroke-miterlimit:10"
           id="line84"
           y2="21.364161"
           x2="62.5"
           y1="30.57151"
           x1="62.5"
           stroke-miterlimit="10" /><line
           style="fill:none;stroke:#1e282b;stroke-width:0.75;stroke-linejoin:round;stroke-miterlimit:10"
           id="line86"
           y2="22.27347"
           x2="50.620159"
           y1="31.373461"
           x1="52.02206"
           stroke-miterlimit="10" /><line
           style="fill:none;stroke:#1e282b;stroke-width:0.75;stroke-linejoin:round;stroke-miterlimit:10"
           id="line88"
           y2="25.002159"
           x2="38.962841"
           y1="33.778519"
           x1="41.74688"
           stroke-miterlimit="10" /><line
           style="fill:none;stroke:#1e282b;stroke-width:0.75;stroke-linejoin:round;stroke-miterlimit:10"
           id="line90"
           y2="29.55162"
           x2="27.75346"
           y1="37.785301"
           x1="31.87435"
           stroke-miterlimit="10" /><line
           style="fill:none;stroke:#1e282b;stroke-width:0.75;stroke-linejoin:round;stroke-miterlimit:10"
           id="line92"
           y2="35.920959"
           x2="17.222111"
           y1="43.394711"
           x1="22.599689"
           stroke-miterlimit="10" /><line
           style="fill:none;stroke:#1e282b;stroke-width:0.75;stroke-linejoin:round;stroke-miterlimit:10"
           id="line94"
           y2="44.103168"
           x2="7.6031799"
           y1="50.61375"
           x1="14.11376"
           stroke-miterlimit="10" /></g><g
         id="g118"><line
           style="fill:none;stroke:#1e282b;stroke-width:0.75;stroke-linejoin:round;stroke-miterlimit:10"
           id="line98"
           y2="41.960739"
           x2="110.86819"
           y1="44.627739"
           x1="108.60167"
           stroke-miterlimit="10" /><line
           style="fill:none;stroke:#1e282b;stroke-width:0.75;stroke-linejoin:round;stroke-miterlimit:10"
           id="line100"
           y2="34.951462"
           x2="101.13569"
           y1="37.947029"
           x1="99.325577"
           stroke-miterlimit="10" /><line
           style="fill:none;stroke:#1e282b;stroke-width:0.75;stroke-linejoin:round;stroke-miterlimit:10"
           id="line102"
           y2="29.69376"
           x2="90.639709"
           y1="32.937222"
           x1="89.324432"
           stroke-miterlimit="10" /><line
           style="fill:none;stroke:#1e282b;stroke-width:0.75;stroke-linejoin:round;stroke-miterlimit:10"
           id="line104"
           y2="26.18898"
           x2="79.600433"
           y1="29.59701"
           x1="78.803352"
           stroke-miterlimit="10" /><line
           style="fill:none;stroke:#1e282b;stroke-width:0.75;stroke-linejoin:round;stroke-miterlimit:10"
           id="line106"
           y2="24.43684"
           x2="68.236183"
           y1="27.926649"
           x1="67.969292"
           stroke-miterlimit="10" /><line
           style="fill:none;stroke:#1e282b;stroke-width:0.75;stroke-linejoin:round;stroke-miterlimit:10"
           id="line108"
           y2="24.43684"
           x2="56.763821"
           y1="27.926649"
           x1="57.030708"
           stroke-miterlimit="10" /><line
           style="fill:none;stroke:#1e282b;stroke-width:0.75;stroke-linejoin:round;stroke-miterlimit:10"
           id="line110"
           y2="26.18898"
           x2="45.39957"
           y1="29.59701"
           x1="46.196651"
           stroke-miterlimit="10" /><line
           style="fill:none;stroke:#1e282b;stroke-width:0.75;stroke-linejoin:round;stroke-miterlimit:10"
           id="line112"
           y2="29.69376"
           x2="34.360291"
           y1="32.937222"
           x1="35.675571"
           stroke-miterlimit="10" /><line
           style="fill:none;stroke:#1e282b;stroke-width:0.75;stroke-linejoin:round;stroke-miterlimit:10"
           id="line114"
           y2="34.951462"
           x2="23.864309"
           y1="37.947029"
           x1="25.674431"
           stroke-miterlimit="10" /><line
           style="fill:none;stroke:#1e282b;stroke-width:0.75;stroke-linejoin:round;stroke-miterlimit:10"
           id="line116"
           y2="41.960739"
           x2="14.13181"
           y1="44.627739"
           x1="16.398331"
           stroke-miterlimit="10" /></g><g
         id="g122"><path
           inkscape:connector-curvature="0"
           id="path120"
           d="m 105.12383,49.69217 c 0.53125,0.47461 1.05762,0.87598 1.64551,0.33301 l 0.33984,0.33984 -4.00391,4.00391 -0.47461,-0.47656 3.00781,-3.00781 -0.85352,-0.85352 z" /></g><rect
         style="fill:#e5e5e5"
         y="0"
         x="0"
         id="rect124"
         height="1"
         width="1" /><rect
         style="fill:#f9f9f9"
         id="rect126"
         height="1"
         width="1"
         y="60.5"
         x="124" /></g><g
       id="g1485"
       transform="translate(12.5,196)"><path
         stroke-miterlimit="10"
         d="M 115.21562,46.28437 C 86.10159,17.17033 38.89841,17.17033 9.78438,46.28437"
         id="path1359"
         inkscape:connector-curvature="0"
         style="fill:none;stroke:#1e282b;stroke-width:0.75;stroke-linejoin:round;stroke-miterlimit:10" /><path
         stroke-miterlimit="10"
         d="m 112.73079,48.7692 c -27.7417,-27.7417 -72.71988,-27.7417 -100.46158,0"
         id="path1361"
         inkscape:connector-curvature="0"
         style="fill:none;stroke:#1e282b;stroke-width:0.75;stroke-linejoin:round;stroke-miterlimit:10" /><g
         id="g1405"><path
           d="m 1.01836,43.38896 1.32617,-1.43262 0.45605,0.42285 -1.3252,1.43261 z"
           id="path1363"
           inkscape:connector-curvature="0" /><path
           d="m 1.73907,38.31718 1.80957,-1.76562 0.43652,0.44727 -1.42578,1.39111 0.98437,1.33057 0.02246,4.9e-4 c -0.03027,-0.36279 0.13965,-0.72803 0.41406,-0.99609 0.6084,-0.59277 1.48926,-0.51367 2.32129,0.34033 0.7373,0.75537 1.02441,1.71533 0.17676,2.5415 -0.96191,0.93896 -1.8877,0.28857 -2.20605,-0.03809 l 0.50488,-0.4917 c 0.20703,0.21191 0.80566,0.66602 1.34473,0.14111 C 6.69415,40.65995 6.15997,39.92802 5.7586,39.5164 5.32208,39.06913 4.69903,38.76249 4.18926,39.25859 3.83867,39.59941 3.90703,40.11504 4.00078,40.21269 l -0.45703,0.40186 z"
           id="path1365"
           inkscape:connector-curvature="0" /><path
           d="m 9.59864,34.871 1.54492,-1.18896 0.38086,0.49463 -1.54688,1.18994 z"
           id="path1367"
           inkscape:connector-curvature="0" /><path
           d="m 12.29102,29.06777 0.55176,-0.3833 2.11914,3.06006 0.52734,-0.36377 0.32812,0.47314 -0.52637,0.36523 0.7793,1.12451 -0.55371,0.3833 -0.7793,-1.12549 -1.68359,1.16699 -0.36133,-0.52002 z m 0.93457,3.87989 1.18457,-0.81934 -1.49121,-2.15283 -0.0127,0.0093 z"
           id="path1369"
           inkscape:connector-curvature="0" /><path
           d="m 21.00067,27.11043 1.72559,-0.91455 0.29297,0.55176 -1.72656,0.91455 z"
           id="path1371"
           inkscape:connector-curvature="0" /><path
           d="m 24.94501,24.4283 0.31836,-0.14893 c 0.54395,-0.25391 0.60059,-0.75781 0.36035,-1.27295 -0.21973,-0.47119 -0.57324,-0.77441 -1.06738,-0.54395 -0.67383,0.31494 -0.44727,0.96924 -0.27148,1.34668 l -0.63867,0.29736 c -0.41016,-0.87744 -0.27734,-1.67285 0.67285,-2.11621 1.07324,-0.50098 1.67578,0.14648 1.94336,0.71875 0.24121,0.51465 0.19238,1.09375 -0.28418,1.47461 l 0.0078,0.01514 c 0.63477,-0.15479 1.17578,0.04248 1.50879,0.75391 0.43652,0.93604 0.26953,1.80762 -0.71777,2.26855 -1.37891,0.64307 -2.01953,-0.52393 -2.12402,-0.74854 l -0.03027,-0.06543 0.63867,-0.29785 c 0.21973,0.47119 0.70508,0.90723 1.29297,0.63281 0.37695,-0.17627 0.73145,-0.5708 0.32422,-1.44141 -0.28027,-0.60254 -0.74609,-0.84326 -1.38477,-0.5459 l -0.32617,0.15137 z"
           id="path1373"
           inkscape:connector-curvature="0" /><path
           d="m 32.66143,21.66342 1.83398,-0.6709 0.21582,0.58594 -1.83496,0.67139 z"
           id="path1375"
           inkscape:connector-curvature="0" /><path
           d="m 39.84014,21.98862 -3.02734,0.93359 c -0.31055,-1.00879 0.04199,-1.87158 0.4873,-2.57764 l 0.32617,-0.51172 c 0.32031,-0.5083 0.50195,-0.92432 0.31836,-1.521 -0.14355,-0.46533 -0.50586,-0.90576 -1.08691,-0.72705 -0.83301,0.25732 -0.58887,1.12695 -0.49609,1.43262 l -0.67188,0.20801 c -0.31543,-1.02393 -0.10156,-1.85156 1.00684,-2.19287 1.25293,-0.3877 1.75098,0.52148 1.89648,0.99561 0.25586,0.82617 0.04492,1.36768 -0.39844,2.07324 l -0.55859,0.90137 c -0.2207,0.34326 -0.33789,0.72314 -0.30371,1.10596 l 2.32324,-0.71631 z"
           id="path1377"
           inkscape:connector-curvature="0" /><path
           d="m 44.78066,18.24589 1.91992,-0.35205 0.1123,0.61377 -1.9209,0.35156 z"
           id="path1379"
           inkscape:connector-curvature="0" /><path
           d="m 48.2748,15.45927 c 0.70117,-0.1333 1.33984,-0.30664 1.2666,-1.10303 l 0.47559,-0.06348 0.74219,5.61523 -0.66797,0.08789 -0.55664,-4.21924 -1.19727,0.1582 z"
           id="path1381"
           inkscape:connector-curvature="0" /><path
           d="m 60.79674,15.94413 c -0.0068,-1.25 0.07324,-2.91504 1.60156,-2.92383 1.5293,-0.0088 1.62598,1.51221 1.63379,2.90625 0.0059,1.2002 -0.07227,2.8667 -1.60156,2.875 -1.5293,0.0078 -1.62598,-1.51269 -1.63379,-2.85742 z m 1.62988,2.32861 c 0.86523,-0.0049 0.90625,-1.1499 0.90039,-2.34326 -0.0068,-1.24854 -0.06055,-2.38477 -0.92578,-2.38086 -0.86523,0.0049 -0.90625,1.14209 -0.90039,2.39111 0.0078,1.19337 0.0625,2.3379 0.92578,2.33301 z"
           id="path1383"
           inkscape:connector-curvature="0" /><path
           d="m 69.29297,17.22392 -1.75195,-0.15381 0.04688,-0.52588 1.75195,0.15381 0.1543,-1.75342 0.52539,0.04639 -0.1543,1.75244 1.75391,0.15479 -0.0459,0.52637 -1.75293,-0.15381 -0.15527,1.75244 -0.52637,-0.04688 z"
           id="path1385"
           inkscape:connector-curvature="0" /><path
           d="m 73.76367,14.71659 c 0.70996,0.06787 1.37109,0.07959 1.52344,-0.70605 l 0.47461,0.07324 -0.85547,5.5957 -0.66406,-0.10107 0.64258,-4.20508 -1.19336,-0.18213 z"
           id="path1387"
           inkscape:connector-curvature="0" /><path
           d="m 82.13136,19.16275 -1.70703,-0.43066 0.12891,-0.51221 1.70703,0.43018 0.43164,-1.70605 0.51172,0.12891 -0.43066,1.70654 1.70801,0.43164 -0.13086,0.51123 -1.70703,-0.43066 -0.42969,1.70752 -0.5127,-0.12988 z"
           id="path1389"
           inkscape:connector-curvature="0" /><path
           d="M 88.3296,22.82144 85.313,21.84781 c 0.32422,-1.00586 1.10938,-1.50977 1.87695,-1.83301 l 0.56348,-0.23047 c 0.55469,-0.23389 0.94238,-0.4707 1.13379,-1.06543 0.15039,-0.46387 0.10547,-1.03369 -0.47266,-1.21973 -0.83105,-0.26807 -1.13184,0.58545 -1.22949,0.89014 L 86.51417,18.173 c 0.33008,-1.02051 0.98047,-1.57666 2.08496,-1.21973 1.24902,0.40234 1.13477,1.43359 0.9834,1.90576 -0.26562,0.82373 -0.74805,1.14697 -1.51758,1.4707 l -0.97559,0.41797 c -0.37793,0.15576 -0.69238,0.39844 -0.88379,0.73193 l 2.31641,0.74707 z"
           id="path1391"
           inkscape:connector-curvature="0" /><path
           d="m 94.8543,23.55351 -1.61523,-0.7002 0.21094,-0.48486 1.61426,0.7002 0.70215,-1.61475 0.48438,0.21045 -0.70117,1.61475 1.61523,0.70166 -0.20898,0.48438 -1.61719,-0.70117 -0.69922,1.61572 -0.48535,-0.21045 z"
           id="path1393"
           inkscape:connector-curvature="0" /><path
           d="m 99.98516,24.3621 0.31445,0.16064 c 0.5332,0.27246 0.96484,0.0078 1.22266,-0.49854 0.23633,-0.46338 0.25781,-0.92822 -0.22656,-1.1748 -0.66309,-0.33789 -1.03906,0.24268 -1.22852,0.6123 l -0.62793,-0.31934 c 0.44043,-0.86182 1.14844,-1.24707 2.08105,-0.771 1.05469,0.53711 0.91602,1.41016 0.62891,1.97217 -0.25781,0.50635 -0.74414,0.82471 -1.33594,0.68408 l -0.008,0.01416 c 0.51367,0.40479 0.68945,0.95361 0.33398,1.65088 -0.46875,0.91992 -1.25781,1.32471 -2.22656,0.83154 -1.35547,-0.69043 -0.83008,-1.91406 -0.71777,-2.13428 l 0.0332,-0.06445 0.62598,0.32031 c -0.23438,0.46289 -0.28027,1.11279 0.29688,1.40771 0.37109,0.18896 0.90039,0.22607 1.33594,-0.62939 0.30176,-0.59229 0.20508,-1.1084 -0.42188,-1.42773 l -0.32031,-0.16309 z"
           id="path1395"
           inkscape:connector-curvature="0" /><path
           d="m 105.53985,29.31415 -1.4834,-0.94629 0.28418,-0.44531 1.4834,0.94629 0.94531,-1.48389 0.44531,0.28467 -0.94629,1.4834 1.4834,0.94482 -0.28418,0.4458 -1.4834,-0.94629 -0.94531,1.48291 -0.44531,-0.28369 z"
           id="path1397"
           inkscape:connector-curvature="0" /><path
           d="m 112.64434,29.44745 0.54297,0.39844 -2.19824,3.00293 0.5166,0.37842 -0.33984,0.46533 -0.51758,-0.37842 -0.80762,1.104 -0.54297,-0.396 0.80859,-1.10498 -1.6543,-1.21045 0.37402,-0.50977 z m -3.36133,2.15381 1.16406,0.85156 1.54492,-2.11279 -0.0117,-0.01025 z"
           id="path1399"
           inkscape:connector-curvature="0" /><path
           d="m 116.84258,37.49687 -1.31543,-1.17041 0.35156,-0.39404 1.31445,1.16943 1.1709,-1.31396 0.39355,0.3501 -1.1709,1.31543 1.31543,1.1709 -0.35156,0.39404 -1.31445,-1.1709 -1.1709,1.31445 -0.39355,-0.35059 z"
           id="path1401"
           inkscape:connector-curvature="0" /><path
           d="m 122.67851,37.74687 1.77832,1.7959 -0.44238,0.43896 -1.40234,-1.41553 -1.32227,0.99414 -9.8e-4,0.02246 c 0.3623,-0.03125 0.72949,0.13428 0.99902,0.40723 0.59668,0.60254 0.52539,1.48438 -0.32129,2.32373 -0.75,0.74268 -1.70801,1.03662 -2.54004,0.1958 -0.94629,-0.95459 -0.30273,-1.88428 0.0215,-2.20605 l 0.49512,0.50098 c -0.20996,0.20801 -0.66016,0.81055 -0.13184,1.3457 0.5625,0.56738 1.29102,0.02783 1.69922,-0.37695 0.44336,-0.43896 0.74609,-1.06494 0.24609,-1.57031 -0.34375,-0.34717 -0.85938,-0.27637 -0.95508,-0.18018 l -0.40625,-0.45508 z"
           id="path1403"
           inkscape:connector-curvature="0" /></g><g
         id="g1429"><path
           d="m 16.46953,55.98612 c -0.88965,-0.87598 -2.0127,-2.10547 -0.94043,-3.19336 1.07129,-1.08887 2.21582,-0.08496 3.20605,0.89062 0.85645,0.8418 1.97852,2.07031 0.90723,3.15918 -1.07128,1.08791 -2.21581,0.08498 -3.17285,-0.85644 z m 2.79688,0.48633 c 0.60645,-0.61523 -0.1748,-1.45215 -1.02441,-2.28711 -0.88867,-0.875 -1.73047,-1.6377 -2.33789,-1.02344 -0.60547,0.61621 0.16992,1.44629 1.05859,2.32129 0.84961,0.83691 1.69726,1.60353 2.30371,0.98926 z"
           id="path1407"
           inkscape:connector-curvature="0" /><path
           d="m 22.82696,47.52811 c 0.5498,-0.45508 1.02539,-0.91602 0.5752,-1.5791 l 0.38672,-0.28613 3.36719,4.55957 -0.54102,0.39941 -2.5293,-3.4248 -0.97266,0.7168 z"
           id="path1409"
           inkscape:connector-curvature="0" /><path
           d="m 36.25079,44.75467 -2.81348,1.45508 c -0.48633,-0.93848 -0.29004,-1.85059 0.02148,-2.62402 l 0.23242,-0.56152 c 0.22461,-0.55664 0.33008,-0.99805 0.04297,-1.55273 -0.22363,-0.43262 -0.6582,-0.80371 -1.19727,-0.52441 -0.77637,0.40039 -0.38086,1.21484 -0.23438,1.49902 l -0.62598,0.32324 c -0.49121,-0.95215 -0.42871,-1.80566 0.60254,-2.33691 1.16602,-0.60352 1.81641,0.20508 2.04395,0.64453 0.39648,0.76758 0.28711,1.33887 -0.02637,2.11133 l -0.39062,0.98632 c -0.15625,0.37793 -0.20508,0.77148 -0.10352,1.14258 L 35.96368,44.2 Z"
           id="path1411"
           inkscape:connector-curvature="0" /><path
           d="m 42.1834,38.90116 0.33301,-0.11035 c 0.57129,-0.1875 0.68652,-0.67969 0.50879,-1.21973 -0.16113,-0.49512 -0.47754,-0.83887 -0.99414,-0.66797 -0.70703,0.23242 -0.56055,0.90918 -0.42969,1.30469 l -0.66992,0.21973 c -0.30273,-0.91992 -0.07715,-1.69336 0.91895,-2.02246 1.12598,-0.37012 1.64746,0.34473 1.84473,0.94434 0.17773,0.54004 0.06055,1.1084 -0.45703,1.43164 l 0.0049,0.01465 c 0.64941,-0.07812 1.16504,0.18164 1.40918,0.92676 0.32227,0.98145 0.05371,1.82812 -0.97949,2.16895 -1.44531,0.47559 -1.94434,-0.75977 -2.02246,-0.99609 l -0.02246,-0.06738 0.66895,-0.2207 c 0.16406,0.49414 0.59473,0.98535 1.20996,0.78223 0.39551,-0.13086 0.79395,-0.48145 0.49512,-1.39258 -0.20898,-0.63184 -0.64258,-0.92676 -1.31152,-0.70703 l -0.34277,0.1123 z"
           id="path1413"
           inkscape:connector-curvature="0" /><path
           d="m 52.34942,33.88261 0.66406,-0.10645 0.5918,3.67188 0.63184,-0.10254 0.0918,0.56836 -0.63184,0.10254 0.21875,1.35059 -0.66406,0.10645 -0.21777,-1.35059 -2.02148,0.32617 -0.10059,-0.62403 z m -0.82813,3.90137 1.42188,-0.22949 -0.41797,-2.58203 -0.01562,0.0029 z"
           id="path1415"
           inkscape:connector-curvature="0" /><path
           d="m 61.29473,33.20683 2.5293,0.0166 -0.0029,0.625 -1.99512,-0.01367 -0.23438,1.64062 0.0166,0.01562 c 0.23438,-0.27832 0.61133,-0.41992 0.99512,-0.41797 0.84863,0.0059 1.4209,0.68164 1.41406,1.875 -0.0068,1.05664 -0.47852,1.94238 -1.66211,1.93457 -1.34473,-0.0088 -1.54688,-1.12305 -1.54395,-1.57812 l 0.7041,0.0029 c -9.8e-4,0.29688 0.10547,1.04199 0.85938,1.04688 0.7998,0.0059 0.93359,-0.89062 0.93848,-1.4668 0.0029,-0.625 -0.22363,-1.2832 -0.93652,-1.28711 -0.48926,-0.0029 -0.80469,0.41113 -0.80469,0.54688 L 60.96269,36.1121 Z"
           id="path1417"
           inkscape:connector-curvature="0" /><path
           d="m 73.35528,35.36796 c 0.07324,-0.4668 -0.13281,-0.86426 -0.60742,-0.93848 -0.93164,-0.14551 -1.20605,1.23828 -1.25195,1.53027 l -0.07031,0.44336 0.0166,0.002 c 0.14258,-0.1875 0.54785,-0.55371 1.16602,-0.45801 0.97266,0.15332 1.35059,0.9502 1.18457,2.00195 -0.16992,1.08398 -0.83691,1.83008 -1.88086,1.66602 -1.55078,-0.24219 -1.42676,-1.75488 -1.24414,-2.91797 0.20117,-1.28125 0.55664,-3.04102 2.17871,-2.78711 1.30566,0.20508 1.24512,1.30664 1.2041,1.56738 z m -1.36133,3.72559 c 0.69531,0.1084 0.99707,-0.57324 1.08887,-1.1582 0.09082,-0.58594 0.06152,-1.31934 -0.68262,-1.43652 -0.74414,-0.11621 -0.99805,0.57227 -1.08984,1.1582 -0.09179,0.58593 -0.0127,1.32714 0.68359,1.43652 z"
           id="path1419"
           inkscape:connector-curvature="0" /><path
           d="m 81.36016,35.93925 3.07324,1.00391 -0.17969,0.55566 c -0.42383,0.29004 -1.06445,0.80664 -1.66211,1.50391 -0.61328,0.7168 -1.2168,1.56348 -1.67578,2.63574 l -0.74609,-0.24316 c 0.36523,-0.78223 0.85938,-1.54688 1.4541,-2.2373 0.57715,-0.6875 1.25977,-1.30664 2.00879,-1.81934 L 81.1668,36.53301 Z"
           id="path1421"
           inkscape:connector-curvature="0" /><path
           d="m 90.42325,42.04373 c -0.39844,-0.46582 -0.45898,-0.91113 -0.18164,-1.45117 0.41602,-0.81348 1.14941,-1.03223 1.94727,-0.62305 0.79883,0.41016 1.04883,1.13184 0.63281,1.94434 -0.27832,0.54199 -0.67383,0.75293 -1.28613,0.7002 0.50391,0.50977 0.57324,1.07618 0.22656,1.75293 -0.34082,0.66211 -1.07812,1.3291 -2.20996,0.74805 -1.13281,-0.58203 -1.02344,-1.56836 -0.68359,-2.23145 0.34765,-0.67677 0.84765,-0.95021 1.55468,-0.83985 z m -0.63086,2.6006 c 0.58398,0.2998 1.0498,-0.02832 1.35254,-0.62012 0.30371,-0.59082 0.29883,-1.16114 -0.28613,-1.45996 -0.58398,-0.2998 -1.04883,0.02832 -1.35156,0.62012 -0.30469,0.5908 -0.29884,1.16112 0.28515,1.45996 z m 1.06933,-3.71682 c -0.24121,0.4707 -0.22363,0.92871 0.23828,1.16602 0.45605,0.23438 0.84668,-0.01562 1.08691,-0.48633 0.24512,-0.47852 0.2168,-0.93262 -0.23828,-1.16699 -0.46288,-0.23633 -0.84276,0.0098 -1.08691,0.4873 z"
           id="path1423"
           inkscape:connector-curvature="0" /><path
           d="m 97.86895,48.76083 c -0.27344,0.375 -0.27734,0.82812 0.10938,1.11133 0.76172,0.55762 1.64453,-0.55078 1.81445,-0.78418 l 0.26562,-0.36133 -0.0137,-0.0088 c -0.21289,0.10156 -0.74219,0.24023 -1.24609,-0.12891 -0.79297,-0.58203 -0.76172,-1.46191 -0.13477,-2.32031 0.64844,-0.88477 1.58398,-1.24121 2.43652,-0.61621 1.26465,0.92578 0.45703,2.21875 -0.2334,3.16211 -0.76562,1.04492 -1.88965,2.44434 -3.21289,1.47461 -1.06445,-0.78027 -0.50879,-1.73047 -0.35156,-1.94434 z m 2.91895,-2.68263 c -0.56738,-0.41602 -1.14355,0.04492 -1.49902,0.52832 -0.35449,0.48438 -0.6582,1.14453 -0.05273,1.58887 0.6084,0.44434 1.14453,-0.04492 1.5,-0.52832 0.3535,-0.48438 0.61913,-1.17286 0.0517,-1.58887 z"
           id="path1425"
           inkscape:connector-curvature="0" /><path
           d="m 106.09454,53.51933 c 0.88574,-0.87891 2.12793,-1.98828 3.2041,-0.90527 1.07617,1.08496 0.0605,2.21777 -0.92871,3.19727 -0.85059,0.84473 -2.09277,1.9541 -3.16895,0.87012 -1.07519,-1.08303 -0.0596,-2.21584 0.89356,-3.16212 z m -0.51856,2.79101 c 0.6084,0.61328 1.4541,-0.15918 2.29883,-0.99902 0.88574,-0.87891 1.65723,-1.71191 1.04883,-2.32422 -0.60742,-0.61328 -1.44727,0.15234 -2.33398,1.03125 -0.84376,0.83887 -1.62208,1.67871 -1.01368,2.29199 z"
           id="path1427"
           inkscape:connector-curvature="0" /></g><g
         id="g1453"><line
           stroke-miterlimit="10"
           x1="110.88624"
           y1="50.61375"
           x2="117.39682"
           y2="44.103168"
           id="line1431"
           style="fill:none;stroke:#1e282b;stroke-width:0.75;stroke-linejoin:round;stroke-miterlimit:10" /><line
           stroke-miterlimit="10"
           x1="102.40031"
           y1="43.394711"
           x2="107.77789"
           y2="35.920959"
           id="line1433"
           style="fill:none;stroke:#1e282b;stroke-width:0.75;stroke-linejoin:round;stroke-miterlimit:10" /><line
           stroke-miterlimit="10"
           x1="93.125648"
           y1="37.785301"
           x2="97.246536"
           y2="29.55162"
           id="line1435"
           style="fill:none;stroke:#1e282b;stroke-width:0.75;stroke-linejoin:round;stroke-miterlimit:10" /><line
           stroke-miterlimit="10"
           x1="83.25312"
           y1="33.778519"
           x2="86.037163"
           y2="25.002159"
           id="line1437"
           style="fill:none;stroke:#1e282b;stroke-width:0.75;stroke-linejoin:round;stroke-miterlimit:10" /><line
           stroke-miterlimit="10"
           x1="72.977943"
           y1="31.373461"
           x2="74.379837"
           y2="22.27347"
           id="line1439"
           style="fill:none;stroke:#1e282b;stroke-width:0.75;stroke-linejoin:round;stroke-miterlimit:10" /><line
           stroke-miterlimit="10"
           x1="62.5"
           y1="30.57151"
           x2="62.5"
           y2="21.364161"
           id="line1441"
           style="fill:none;stroke:#1e282b;stroke-width:0.75;stroke-linejoin:round;stroke-miterlimit:10" /><line
           stroke-miterlimit="10"
           x1="52.02206"
           y1="31.373461"
           x2="50.620159"
           y2="22.27347"
           id="line1443"
           style="fill:none;stroke:#1e282b;stroke-width:0.75;stroke-linejoin:round;stroke-miterlimit:10" /><line
           stroke-miterlimit="10"
           x1="41.74688"
           y1="33.778519"
           x2="38.962841"
           y2="25.002159"
           id="line1445"
           style="fill:none;stroke:#1e282b;stroke-width:0.75;stroke-linejoin:round;stroke-miterlimit:10" /><line
           stroke-miterlimit="10"
           x1="31.87435"
           y1="37.785301"
           x2="27.75346"
           y2="29.55162"
           id="line1447"
           style="fill:none;stroke:#1e282b;stroke-width:0.75;stroke-linejoin:round;stroke-miterlimit:10" /><line
           stroke-miterlimit="10"
           x1="22.599689"
           y1="43.394711"
           x2="17.222111"
           y2="35.920959"
           id="line1449"
           style="fill:none;stroke:#1e282b;stroke-width:0.75;stroke-linejoin:round;stroke-miterlimit:10" /><line
           stroke-miterlimit="10"
           x1="14.11376"
           y1="50.61375"
           x2="7.6031799"
           y2="44.103168"
           id="line1451"
           style="fill:none;stroke:#1e282b;stroke-width:0.75;stroke-linejoin:round;stroke-miterlimit:10" /></g><g
         id="g1475"><line
           stroke-miterlimit="10"
           x1="108.60167"
           y1="44.627739"
           x2="110.86819"
           y2="41.960739"
           id="line1455"
           style="fill:none;stroke:#1e282b;stroke-width:0.75;stroke-linejoin:round;stroke-miterlimit:10" /><line
           stroke-miterlimit="10"
           x1="99.325577"
           y1="37.947029"
           x2="101.13569"
           y2="34.951462"
           id="line1457"
           style="fill:none;stroke:#1e282b;stroke-width:0.75;stroke-linejoin:round;stroke-miterlimit:10" /><line
           stroke-miterlimit="10"
           x1="89.324432"
           y1="32.937222"
           x2="90.639709"
           y2="29.69376"
           id="line1459"
           style="fill:none;stroke:#1e282b;stroke-width:0.75;stroke-linejoin:round;stroke-miterlimit:10" /><line
           stroke-miterlimit="10"
           x1="78.803352"
           y1="29.59701"
           x2="79.600433"
           y2="26.18898"
           id="line1461"
           style="fill:none;stroke:#1e282b;stroke-width:0.75;stroke-linejoin:round;stroke-miterlimit:10" /><line
           stroke-miterlimit="10"
           x1="67.969292"
           y1="27.926649"
           x2="68.236183"
           y2="24.43684"
           id="line1463"
           style="fill:none;stroke:#1e282b;stroke-width:0.75;stroke-linejoin:round;stroke-miterlimit:10" /><line
           stroke-miterlimit="10"
           x1="57.030708"
           y1="27.926649"
           x2="56.763821"
           y2="24.43684"
           id="line1465"
           style="fill:none;stroke:#1e282b;stroke-width:0.75;stroke-linejoin:round;stroke-miterlimit:10" /><line
           stroke-miterlimit="10"
           x1="46.196651"
           y1="29.59701"
           x2="45.39957"
           y2="26.18898"
           id="line1467"
           style="fill:none;stroke:#1e282b;stroke-width:0.75;stroke-linejoin:round;stroke-miterlimit:10" /><line
           stroke-miterlimit="10"
           x1="35.675571"
           y1="32.937222"
           x2="34.360291"
           y2="29.69376"
           id="line1469"
           style="fill:none;stroke:#1e282b;stroke-width:0.75;stroke-linejoin:round;stroke-miterlimit:10" /><line
           stroke-miterlimit="10"
           x1="25.674431"
           y1="37.947029"
           x2="23.864309"
           y2="34.951462"
           id="line1471"
           style="fill:none;stroke:#1e282b;stroke-width:0.75;stroke-linejoin:round;stroke-miterlimit:10" /><line
           stroke-miterlimit="10"
           x1="16.398331"
           y1="44.627739"
           x2="14.13181"
           y2="41.960739"
           id="line1473"
           style="fill:none;stroke:#1e282b;stroke-width:0.75;stroke-linejoin:round;stroke-miterlimit:10" /></g><g
         id="g1479"><path
           d="m 105.12383,49.69217 c 0.53125,0.47461 1.05762,0.87598 1.64551,0.33301 l 0.33984,0.33984 -4.00391,4.00391 -0.47461,-0.47656 3.00781,-3.00781 -0.85352,-0.85352 z"
           id="path1477"
           inkscape:connector-curvature="0" /></g><rect
         width="1"
         height="1"
         id="rect1481"
         x="0"
         y="0"
         style="fill:#e5e5e5" /><rect
         x="124"
         y="60.5"
         width="1"
         height="1"
         id="rect1483"
         style="fill:#f9f9f9" /></g></g></svg>