<?xml version="1.0" encoding="UTF-8" standalone="no"?>
<!-- Created with Inkscape (http://www.inkscape.org/) -->

<svg
   xmlns:dc="http://purl.org/dc/elements/1.1/"
   xmlns:cc="http://creativecommons.org/ns#"
   xmlns:rdf="http://www.w3.org/1999/02/22-rdf-syntax-ns#"
   xmlns:svg="http://www.w3.org/2000/svg"
   xmlns="http://www.w3.org/2000/svg"
   xmlns:sodipodi="http://sodipodi.sourceforge.net/DTD/sodipodi-0.dtd"
   xmlns:inkscape="http://www.inkscape.org/namespaces/inkscape"
   width="24"
   height="24"
   viewBox="0 0 6.3500002 6.3500002"
   version="1.1"
   id="svg49872"
   inkscape:version="0.92.2 5c3e80d, 2017-08-06"
   sodipodi:docname="looperTimeKnob24xparent.svg">
  <defs
     id="defs49866">
    <clipPath
       id="clip12">
      <path
         d="m 143,129.75 h 3 V 158 h -3 z m 0,0"
         id="path28860"
         inkscape:connector-curvature="0" />
    </clipPath>
    <clipPath
       id="clip11">
      <path
         d="m 117.39453,129.75 h 54 v 54.00391 h -54 z m 0,0"
         id="path28857"
         inkscape:connector-curvature="0" />
    </clipPath>
    <clipPath
       id="clip150">
      <path
         d="m 176,208.92578 h 2 V 228 h -2 z m 0,0"
         id="path29465"
         inkscape:connector-curvature="0" />
    </clipPath>
    <clipPath
       id="clip149">
      <path
         d="m 159.27734,208.92578 h 36 v 36 h -36 z m 0,0"
         id="path29462"
         inkscape:connector-curvature="0" />
    </clipPath>
    <clipPath
       id="clip142">
      <path
         d="m 110,208.92578 h 3 V 228 h -3 z m 0,0"
         id="path29320"
         inkscape:connector-curvature="0" />
    </clipPath>
    <clipPath
       id="clip141">
      <path
         d="m 93.511719,208.92578 h 36.000001 v 36 H 93.511719 Z m 0,0"
         id="path29317"
         inkscape:connector-curvature="0" />
    </clipPath>
  </defs>
  <sodipodi:namedview
     id="base"
     pagecolor="#ffffff"
     bordercolor="#666666"
     borderopacity="1.0"
     inkscape:pageopacity="0.0"
     inkscape:pageshadow="2"
     inkscape:zoom="10.716667"
     inkscape:cx="-19.059097"
     inkscape:cy="17.986003"
     inkscape:document-units="px"
     inkscape:current-layer="layer1"
     showgrid="false"
     fit-margin-top="0"
     fit-margin-left="0"
     fit-margin-right="0"
     fit-margin-bottom="0"
     units="px"
     inkscape:window-width="1334"
     inkscape:window-height="762"
     inkscape:window-x="168"
     inkscape:window-y="0"
     inkscape:window-maximized="0"
     inkscape:snap-global="true"
     inkscape:snap-bbox="true"
     inkscape:snap-bbox-midpoints="true"
     inkscape:snap-object-midpoints="true"
     inkscape:snap-bbox-edge-midpoints="true"
     inkscape:object-paths="true"
     inkscape:pagecheckerboard="true" />
  <metadata
     id="metadata49869">
    <rdf:RDF>
      <cc:Work
         rdf:about="">
        <dc:format>image/svg+xml</dc:format>
        <dc:type
           rdf:resource="http://purl.org/dc/dcmitype/StillImage" />
        <dc:title></dc:title>
      </cc:Work>
    </rdf:RDF>
  </metadata>
  <g
     inkscape:label="Layer 1"
     inkscape:groupmode="layer"
     id="layer1"
     transform="translate(-73.816227,-82.197289)">
    <path
       style="clip-rule:nonzero;fill:#ffffff;fill-opacity:0.09803922;fill-rule:nonzero;stroke:none;stroke-width:0.15874998"
       d="m 76.991227,82.514789 c -1.578197,0 -2.857499,1.279301 -2.857499,2.8575 0,1.578198 1.279302,2.8575 2.857499,2.8575 1.578199,0 2.857501,-1.279302 2.857501,-2.8575 0,-1.578199 -1.279302,-2.8575 -2.857501,-2.8575 z m 0,0.5968 c 1.227489,0 2.2225,0.995012 2.2225,2.222501 0,1.227486 -0.995011,2.2225 -2.2225,2.2225 -1.227486,0 -2.222498,-0.995014 -2.222498,-2.2225 0,-1.227489 0.995012,-2.222501 2.222498,-2.222501 z"
       id="path38955"
       inkscape:connector-curvature="0" />
    <rect
       style="fill:#ffffff;fill-opacity:0.09803922;stroke:none;stroke-width:0.18363106;stroke-miterlimit:4;stroke-dasharray:none;stroke-opacity:1"
       id="rect826"
       width="0.63500005"
       height="2.5400002"
       x="76.673729"
       y="82.197289"
       ry="0" />
  </g>
</svg>
