<?xml version="1.0" encoding="UTF-8" standalone="no"?>
<!-- Generator: Adobe Illustrator 23.0.3, SVG Export Plug-In . SVG Version: 6.00 Build 0)  -->

<svg
   xmlns:dc="http://purl.org/dc/elements/1.1/"
   xmlns:cc="http://creativecommons.org/ns#"
   xmlns:rdf="http://www.w3.org/1999/02/22-rdf-syntax-ns#"
   xmlns:svg="http://www.w3.org/2000/svg"
   xmlns="http://www.w3.org/2000/svg"
   xmlns:sodipodi="http://sodipodi.sourceforge.net/DTD/sodipodi-0.dtd"
   xmlns:inkscape="http://www.inkscape.org/namespaces/inkscape"
   version="1.0"
   id="Layer_1"
   x="0px"
   y="0px"
   viewBox="0 0 50 50"
   enable-background="new 0 0 20 20"
   xml:space="preserve"
   sodipodi:docname="looperTapperGreen1.svg"
   width="50"
   height="50"
   inkscape:version="0.92.2 5c3e80d, 2017-08-06"><metadata
     id="metadata22"><rdf:RDF><cc:Work
         rdf:about=""><dc:format>image/svg+xml</dc:format><dc:type
           rdf:resource="http://purl.org/dc/dcmitype/StillImage" /><dc:title></dc:title></cc:Work></rdf:RDF></metadata><defs
     id="defs20"><linearGradient
       gradientTransform="matrix(3.0825149,0,0,3.0825149,-5.825149,-2539.3126)"
       y2="839.3512"
       x2="10"
       y1="824.42834"
       x1="10"
       gradientUnits="userSpaceOnUse"
       id="SVGID_1_"><stop
         id="stop4"
         style="stop-color:#4DC17C"
         offset="0" /><stop
         id="stop6"
         style="stop-color:#3AA46B"
         offset="1" /></linearGradient></defs><sodipodi:namedview
     pagecolor="#ffffff"
     bordercolor="#666666"
     borderopacity="1"
     objecttolerance="10"
     gridtolerance="10"
     guidetolerance="10"
     inkscape:pageopacity="0"
     inkscape:pageshadow="2"
     inkscape:window-width="1241"
     inkscape:window-height="727"
     id="namedview18"
     showgrid="false"
     inkscape:pagecheckerboard="true"
     inkscape:zoom="8.34386"
     inkscape:cx="10"
     inkscape:cy="19.587889"
     inkscape:window-x="200"
     inkscape:window-y="66"
     inkscape:window-maximized="0"
     inkscape:current-layer="Layer_1" /><circle
     style="fill:#808080;stroke-width:2.5"
     id="circle2"
     cy="24.999992"
     cx="25"
     r="25" /><path
     style="fill:url(#SVGID_1_);stroke-width:3.08251476"
     inkscape:connector-curvature="0"
     id="path9"
     d="M 25,48 C 12.297449,48 2,37.702551 2,25 2,12.297449 12.297449,2 25,2 37.702551,2 48,12.297449 48,25 47.957307,37.684826 37.684826,47.957307 25,48 Z" /><path
     style="fill:#4dc17c;stroke-width:2.65384507"
     inkscape:connector-curvature="0"
     id="path11"
     d="M 25,44.801506 C 35.936071,44.801506 44.801506,35.936071 44.801506,25 44.801506,14.063929 35.936071,5.1984938 25,5.1984938 14.063929,5.1984938 5.1984938,14.063929 5.1984938,25 5.216938,35.928428 14.071572,44.783062 25,44.801506 M 25,48 C 12.29745,48 2,37.70255 2,25 2,12.29745 12.29745,2 25,2 37.70255,2 48,12.29745 48,25 48,37.70255 37.70255,48 25,48 Z" /></svg>