<?xml version="1.0" encoding="UTF-8" standalone="no"?>
<!-- Generator: Adobe Illustrator 23.0.3, SVG Export Plug-In . SVG Version: 6.00 Build 0)  -->

<svg
   xmlns:dc="http://purl.org/dc/elements/1.1/"
   xmlns:cc="http://creativecommons.org/ns#"
   xmlns:rdf="http://www.w3.org/1999/02/22-rdf-syntax-ns#"
   xmlns:svg="http://www.w3.org/2000/svg"
   xmlns="http://www.w3.org/2000/svg"
   xmlns:sodipodi="http://sodipodi.sourceforge.net/DTD/sodipodi-0.dtd"
   xmlns:inkscape="http://www.inkscape.org/namespaces/inkscape"
   version="1.0"
   id="Layer_1"
   x="0px"
   y="0px"
   viewBox="0 0 50 50"
   enable-background="new 0 0 20 20"
   xml:space="preserve"
   sodipodi:docname="looperTapperRed0.svg"
   width="50"
   height="50"
   inkscape:version="0.92.2 5c3e80d, 2017-08-06"><metadata
     id="metadata22"><rdf:RDF><cc:Work
         rdf:about=""><dc:format>image/svg+xml</dc:format><dc:type
           rdf:resource="http://purl.org/dc/dcmitype/StillImage" /><dc:title /></cc:Work></rdf:RDF></metadata><defs
     id="defs20"><linearGradient
       gradientTransform="matrix(3.0825149,0,0,-3.0825149,-5.825149,55.485364)"
       y2="17.3512"
       x2="10"
       y1="2.4283199"
       x1="10"
       gradientUnits="userSpaceOnUse"
       id="SVGID_1_"><stop
         id="stop4"
         style="stop-color:#4DC17C"
         offset="0" /><stop
         id="stop6"
         style="stop-color:#3AA46B"
         offset="1" /></linearGradient><linearGradient
       id="SVGID_1_-1"
       gradientUnits="userSpaceOnUse"
       x1="10"
       y1="2.4283199"
       x2="10"
       y2="17.3512"
       gradientTransform="matrix(3.0825149,0,0,-3.0825149,-5.8251484,55.485364)"><stop
         offset="0"
         style="stop-color:#D81E2C"
         id="stop4-3" /><stop
         offset="1"
         style="stop-color:#B50F30"
         id="stop6-4" /></linearGradient></defs><sodipodi:namedview
     pagecolor="#ffffff"
     bordercolor="#666666"
     borderopacity="1"
     objecttolerance="10"
     gridtolerance="10"
     guidetolerance="10"
     inkscape:pageopacity="0"
     inkscape:pageshadow="2"
     inkscape:window-width="946"
     inkscape:window-height="712"
     id="namedview18"
     showgrid="false"
     inkscape:pagecheckerboard="true"
     inkscape:zoom="5.9"
     inkscape:cx="18.135593"
     inkscape:cy="10"
     inkscape:window-x="403"
     inkscape:window-y="71"
     inkscape:window-maximized="0"
     inkscape:current-layer="Layer_1" /><circle
     style="fill:#808080;stroke-width:2.5"
     id="circle2"
     cy="25"
     cx="25"
     r="25" /><path
     d="M 25,2 C 12.297449,2 2,12.297449 2,25 2,37.702551 12.297449,48 25,48 37.702551,48 48,37.702551 48,25 47.957307,12.315174 37.684826,2.0426928 25,2 Z"
     id="path9-8"
     inkscape:connector-curvature="0"
     style="fill:url(#SVGID_1_-1);stroke-width:3.08251476" /><path
     d="M 25,5.1984938 C 35.936071,5.1984938 44.801506,14.063929 44.801506,25 44.801506,35.936071 35.936071,44.801506 25,44.801506 14.063928,44.801506 5.1984932,35.936071 5.1984932,25 5.2168048,14.071572 14.071571,5.216938 25,5.1984938 M 25,2 C 12.297449,2 2,12.29745 2,25 2,37.70255 12.297449,48 25,48 37.70255,48 48,37.70255 48,25 48,12.29745 37.70255,2 25,2 Z"
     id="path11-6"
     inkscape:connector-curvature="0"
     style="fill:#d81e2c;stroke-width:2.65384507" /></svg>