<?xml version="1.0" encoding="UTF-8" standalone="no"?>
<!-- Generator: Adobe Illustrator 23.0.3, SVG Export Plug-In . SVG Version: 6.00 Build 0)  -->

<svg
   xmlns:dc="http://purl.org/dc/elements/1.1/"
   xmlns:cc="http://creativecommons.org/ns#"
   xmlns:rdf="http://www.w3.org/1999/02/22-rdf-syntax-ns#"
   xmlns:svg="http://www.w3.org/2000/svg"
   xmlns="http://www.w3.org/2000/svg"
   xmlns:sodipodi="http://sodipodi.sourceforge.net/DTD/sodipodi-0.dtd"
   xmlns:inkscape="http://www.inkscape.org/namespaces/inkscape"
   version="1.0"
   id="Layer_1"
   x="0px"
   y="0px"
   viewBox="0 0 40 40"
   enable-background="new 0 0 40 40"
   xml:space="preserve"
   sodipodi:docname="nysthipyer_knob_L_animated.svg"
   inkscape:version="0.92.2 5c3e80d, 2017-08-06"><metadata
     id="metadata22"><rdf:RDF><cc:Work
         rdf:about=""><dc:format>image/svg+xml</dc:format><dc:type
           rdf:resource="http://purl.org/dc/dcmitype/StillImage" /><dc:title></dc:title></cc:Work></rdf:RDF></metadata><defs
     id="defs20" /><sodipodi:namedview
     pagecolor="#ffffff"
     bordercolor="#666666"
     borderopacity="1"
     objecttolerance="10"
     gridtolerance="10"
     guidetolerance="10"
     inkscape:pageopacity="0"
     inkscape:pageshadow="2"
     inkscape:window-width="1285"
     inkscape:window-height="801"
     id="namedview18"
     showgrid="false"
     inkscape:pagecheckerboard="true"
     inkscape:zoom="5.9"
     inkscape:cx="24.830508"
     inkscape:cy="-7.1186441"
     inkscape:window-x="-2"
     inkscape:window-y="0"
     inkscape:window-maximized="0"
     inkscape:current-layer="Layer_1" /><g
     id="g6"><circle
       style="fill:#2e89dc"
       id="circle2"
       r="19.75"
       cy="19.999889"
       cx="20" /><path
       style="fill:#0f0f0f"
       inkscape:connector-curvature="0"
       id="path4"
       d="m 20,0.50001 c 10.75244,0 19.5,8.74768 19.5,19.5 0,10.75232 -8.74756,19.5 -19.5,19.5 -10.75244,0 -19.5,-8.74768 -19.5,-19.5 0,-10.75232 8.74756,-19.5 19.5,-19.5 m 0,-0.5 c -11.04565,0 -20,8.95428 -20,20 0,11.04565 8.95435,20 20,20 11.04565,0 20,-8.95435 20,-20 0,-11.04572 -8.95435,-20 -20,-20 z" /></g><circle
     style="opacity:0;fill:#d40000"
     id="rosso1"
     r="19.75"
     cy="20"
     cx="20"
     inkscape:label="rosso1" /><path
     style="opacity:0;fill:#550000"
     inkscape:connector-curvature="0"
     id="rosso0"
     d="M 20,0.5 C 30.75244,0.5 39.5,9.24768 39.5,20 39.5,30.75232 30.75244,39.5 20,39.5 9.24756,39.5 0.5,30.75232 0.5,20 0.5,9.24768 9.24756,0.5 20,0.5 M 20,0 C 8.95435,0 0,8.95428 0,20 0,31.04565 8.95435,40 20,40 31.04565,40 40,31.04565 40,20 40,8.95428 31.04565,0 20,0 Z"
     inkscape:label="rosso0" /><circle
     style="fill:#0e74af"
     id="circle8"
     r="13"
     cy="19.99999"
     cx="20" /><circle
     cx="20"
     cy="20"
     r="13"
     id="rosso2"
     style="opacity:0;fill:#800000"
     inkscape:label="rosso2" /><circle
     style="fill:#2e89dc"
     id="circle10"
     r="10.5"
     cy="19.99999"
     cx="20" /><circle
     cx="20"
     cy="20"
     r="10.5"
     id="rosso3"
     style="opacity:0;fill:#d40000"
     inkscape:label="rosso3" /><circle
     style="fill:#ffffff"
     id="circle12"
     r="8"
     cy="19.99999"
     cx="20" /><polygon
     style="fill:#ffffff"
     id="polygon14"
     points="18.57092,5.91794 21.42908,5.91794 20,1.43204 " /></svg>