<?xml version="1.0" encoding="UTF-8" standalone="no"?>
<!-- Generator: Adobe Illustrator 23.0.3, SVG Export Plug-In . SVG Version: 6.00 Build 0)  -->

<svg
   xmlns:dc="http://purl.org/dc/elements/1.1/"
   xmlns:cc="http://creativecommons.org/ns#"
   xmlns:rdf="http://www.w3.org/1999/02/22-rdf-syntax-ns#"
   xmlns:svg="http://www.w3.org/2000/svg"
   xmlns="http://www.w3.org/2000/svg"
   xmlns:sodipodi="http://sodipodi.sourceforge.net/DTD/sodipodi-0.dtd"
   xmlns:inkscape="http://www.inkscape.org/namespaces/inkscape"
   version="1.0"
   id="Layer_1"
   x="0px"
   y="0px"
   viewBox="0 0 20 20"
   enable-background="new 0 0 40 40"
   xml:space="preserve"
   sodipodi:docname="buchlaHatKnobBlue20.svg"
   inkscape:version="0.92.2 5c3e80d, 2017-08-06"
   width="20"
   height="20"><metadata
     id="metadata22"><rdf:RDF><cc:Work
         rdf:about=""><dc:format>image/svg+xml</dc:format><dc:type
           rdf:resource="http://purl.org/dc/dcmitype/StillImage" /><dc:title></dc:title></cc:Work></rdf:RDF></metadata><defs
     id="defs20" /><sodipodi:namedview
     pagecolor="#ffffff"
     bordercolor="#666666"
     borderopacity="1"
     objecttolerance="10"
     gridtolerance="10"
     guidetolerance="10"
     inkscape:pageopacity="0"
     inkscape:pageshadow="2"
     inkscape:window-width="1285"
     inkscape:window-height="801"
     id="namedview18"
     showgrid="false"
     inkscape:pagecheckerboard="true"
     inkscape:zoom="5.9"
     inkscape:cx="-37.542373"
     inkscape:cy="-7.1186441"
     inkscape:window-x="-2"
     inkscape:window-y="0"
     inkscape:window-maximized="0"
     inkscape:current-layer="Layer_1" /><g
     id="g836"
     transform="matrix(0.5,0,0,0.49999988,0,7.5000081)"><g
       transform="translate(0,-15)"
       id="g6"><circle
         cx="20"
         cy="19.999889"
         r="19.75"
         id="circle2"
         style="fill:#2e89dc" /><path
         d="m 20,0.50001 c 10.75244,0 19.5,8.74768 19.5,19.5 0,10.75232 -8.74756,19.5 -19.5,19.5 -10.75244,0 -19.5,-8.74768 -19.5,-19.5 0,-10.75232 8.74756,-19.5 19.5,-19.5 m 0,-0.5 c -11.04565,0 -20,8.95428 -20,20 0,11.04565 8.95435,20 20,20 11.04565,0 20,-8.95435 20,-20 0,-11.04572 -8.95435,-20 -20,-20 z"
         id="path4"
         inkscape:connector-curvature="0"
         style="fill:#0f0f0f" /></g><circle
       inkscape:label="rosso1"
       cx="20"
       cy="5"
       r="19.75"
       id="rosso1"
       style="opacity:0;fill:#d40000" /><path
       inkscape:label="rosso0"
       d="M 20,-14.5 C 30.75244,-14.5 39.5,-5.75232 39.5,5 39.5,15.75232 30.75244,24.5 20,24.5 9.24756,24.5 0.5,15.75232 0.5,5 0.5,-5.75232 9.24756,-14.5 20,-14.5 M 20,-15 C 8.95435,-15 0,-6.04572 0,5 0,16.04565 8.95435,25 20,25 31.04565,25 40,16.04565 40,5 40,-6.04572 31.04565,-15 20,-15 Z"
       id="rosso0"
       inkscape:connector-curvature="0"
       style="opacity:0;fill:#550000" /><circle
       cx="20"
       cy="4.9999905"
       r="13"
       id="circle8"
       style="fill:#0e74af" /><circle
       inkscape:label="rosso2"
       style="opacity:0;fill:#800000"
       id="rosso2"
       r="13"
       cy="5"
       cx="20" /><circle
       cx="20"
       cy="4.9999905"
       r="10.5"
       id="circle10"
       style="fill:#2e89dc" /><circle
       inkscape:label="rosso3"
       style="opacity:0;fill:#d40000"
       id="rosso3"
       r="10.5"
       cy="5"
       cx="20" /><circle
       cx="20"
       cy="4.9999905"
       r="8"
       id="circle12"
       style="fill:#ffffff" /><polygon
       transform="translate(0,-15)"
       points="21.42908,5.91794 20,1.43204 18.57092,5.91794 "
       id="polygon14"
       style="fill:#ffffff" /></g></svg>