<?xml version="1.0" encoding="UTF-8" standalone="no"?>
<!-- Created with Inkscape (http://www.inkscape.org/) -->

<svg
   xmlns:dc="http://purl.org/dc/elements/1.1/"
   xmlns:cc="http://creativecommons.org/ns#"
   xmlns:rdf="http://www.w3.org/1999/02/22-rdf-syntax-ns#"
   xmlns:svg="http://www.w3.org/2000/svg"
   xmlns="http://www.w3.org/2000/svg"
   xmlns:sodipodi="http://sodipodi.sourceforge.net/DTD/sodipodi-0.dtd"
   xmlns:inkscape="http://www.inkscape.org/namespaces/inkscape"
   width="105"
   height="380"
   viewBox="0 0 27.78125 100.54167"
   version="1.1"
   id="svg8"
   inkscape:version="0.92.2 5c3e80d, 2017-08-06"
   sodipodi:docname="BIGBUTTON.svg"
   inkscape:export-filename="E:\Users\Martin\Documents\Rack_Source\Rack\plugins\ML-modules\res\Quantum.png"
   inkscape:export-xdpi="96"
   inkscape:export-ydpi="96">
  <sodipodi:namedview
     id="base"
     pagecolor="#ffffff"
     bordercolor="#666666"
     borderopacity="1.0"
     inkscape:pageopacity="0"
     inkscape:pageshadow="2"
     inkscape:zoom="0.66031305"
     inkscape:cx="-353.97293"
     inkscape:cy="270.70493"
     inkscape:document-units="px"
     inkscape:current-layer="layer2"
     showgrid="true"
     units="px"
     fit-margin-top="0"
     fit-margin-left="0"
     fit-margin-right="0"
     fit-margin-bottom="0"
     showguides="true"
     inkscape:snap-to-guides="false"
     objecttolerance="20"
     inkscape:window-width="1070"
     inkscape:window-height="768"
     inkscape:window-x="147"
     inkscape:window-y="11"
     inkscape:window-maximized="0"
     gridtolerance="17"
     inkscape:snap-perpendicular="false"
     inkscape:pagecheckerboard="true"
     inkscape:snap-page="false"
     inkscape:snap-text-baseline="true">
    <inkscape:grid
       empspacing="20"
       dotted="false"
       spacingy="0.52916668"
       spacingx="0.52916668"
       originy="100.54167"
       originx="-7.3436628e-018"
       id="grid43"
       type="xygrid" />
  </sodipodi:namedview>
  <defs
     id="defs2">
    <inkscape:perspective
       id="perspective4742"
       inkscape:persp3d-origin="15.875 : 33.51389 : 1"
       inkscape:vp_z="31.75 : 50.270835 : 1"
       inkscape:vp_y="0 : 1000 : 0"
       inkscape:vp_x="0 : 50.270835 : 1"
       sodipodi:type="inkscape:persp3d" />
    <filter
       id="filter1636"
       x="-0.25"
       width="1.5"
       y="-0.25"
       height="1.5"
       inkscape:menu="Non-realistic 3D Shaders"
       inkscape:menu-tooltip="Deep and dark metal shading"
       inkscape:label="Deep Metal"
       style="color-interpolation-filters:sRGB">
      <feGaussianBlur
         id="feGaussianBlur1616"
         in="SourceGraphic"
         stdDeviation="5"
         result="result8" />
      <feComposite
         id="feComposite1618"
         in2="result8"
         operator="xor"
         result="result19" />
      <feComposite
         id="feComposite1620"
         k2="1"
         operator="arithmetic"
         result="result17"
         in2="result8"
         k1="0"
         k3="0"
         k4="0" />
      <feComposite
         id="feComposite1622"
         in2="result17"
         result="result6"
         operator="xor" />
      <feOffset
         id="feOffset1624"
         result="result18"
         in="result6" />
      <feDisplacementMap
         id="feDisplacementMap1626"
         in2="result17"
         in="result18"
         xChannelSelector="A"
         yChannelSelector="A"
         scale="100"
         result="result4" />
      <feComposite
         id="feComposite1628"
         in="result4"
         in2="result4"
         result="result2"
         operator="arithmetic"
         k3="1"
         k1="0"
         k2="0"
         k4="0" />
      <feComposite
         id="feComposite1630"
         in2="result2"
         result="fbSourceGraphic"
         in="result2"
         operator="over" />
      <feComposite
         id="feComposite1632"
         in="fbSourceGraphic"
         in2="SourceGraphic"
         operator="xor"
         result="result15" />
      <feComposite
         id="feComposite1634"
         result="result16"
         in2="result8"
         operator="in"
         in="result15" />
    </filter>
  </defs>
  <metadata
     id="metadata5">
    <rdf:RDF>
      <cc:Work
         rdf:about="">
        <dc:format>image/svg+xml</dc:format>
        <dc:type
           rdf:resource="http://purl.org/dc/dcmitype/StillImage" />
        <dc:title />
      </cc:Work>
    </rdf:RDF>
  </metadata>
  <g
     style="display:inline;opacity:1"
     inkscape:label="Layer 2"
     id="layer2"
     inkscape:groupmode="layer">
    <g
       id="text4720"
       style="font-style:normal;font-variant:normal;font-weight:bold;font-stretch:normal;font-size:19.75555611px;line-height:1.25;font-family:Arial;-inkscape-font-specification:'Arial, Bold';font-variant-ligatures:normal;font-variant-caps:normal;font-variant-numeric:normal;font-feature-settings:normal;text-align:start;letter-spacing:0px;word-spacing:0px;writing-mode:lr-tb;text-anchor:start;fill:#000000;fill-opacity:1;stroke:none;stroke-width:0.26458335"
       aria-label="M" />
    <text
       id="text989"
       y="20.637499"
       x="19.050001"
       style="font-style:normal;font-variant:normal;font-weight:normal;font-stretch:normal;font-size:2.82222247px;line-height:1.25;font-family:Arial;-inkscape-font-specification:'Arial, Normal';font-variant-ligatures:normal;font-variant-caps:normal;font-variant-numeric:normal;font-feature-settings:normal;text-align:start;letter-spacing:0px;word-spacing:0px;writing-mode:lr-tb;text-anchor:start;fill:#000000;fill-opacity:1;stroke:none;stroke-width:0.26458335"
       xml:space="preserve"><tspan
         style="stroke-width:0.26458335"
         y="23.179628"
         x="19.050001"
         id="tspan987"
         sodipodi:role="line" /></text>
    <rect
       ry="0"
       y="55.6404"
       x="-7.9512687"
       height="0"
       width="6.2674704"
       id="rect842"
       style="fill:#ffffff;fill-opacity:1;stroke:none;stroke-width:0.26458335;stroke-opacity:1" />
    <path
       style="fill:#b7c4c8;fill-opacity:1;stroke-width:0.28578269"
       d="M 0,-1.6666667e-6 H 27.78125 V 100.54167 H 0 Z"
       id="rect4689"
       inkscape:connector-curvature="0" />
    <text
       id="text4987"
       y="59.795834"
       x="30.691668"
       style="font-style:normal;font-weight:normal;font-size:10.58333397px;line-height:1.25;font-family:'Bitstream Vera Sans';letter-spacing:0px;word-spacing:0px;fill:#000000;fill-opacity:1;stroke:none;stroke-width:0.26458335px;stroke-linecap:butt;stroke-linejoin:miter;stroke-opacity:1"
       xml:space="preserve"><tspan
         style="stroke-width:0.26458335px"
         y="69.159607"
         x="30.691668"
         id="tspan4985"
         sodipodi:role="line" /></text>
    <text
       xml:space="preserve"
       style="font-style:normal;font-weight:normal;font-size:10.58333397px;line-height:1.25;font-family:'Bitstream Vera Sans';letter-spacing:0px;word-spacing:0px;fill:#000000;fill-opacity:1;stroke:none;stroke-width:0.26458335px;stroke-linecap:butt;stroke-linejoin:miter;stroke-opacity:1"
       x="-36.247917"
       y="57.811459"
       id="text1042"><tspan
         sodipodi:role="line"
         id="tspan1040"
         x="-36.247917"
         y="67.175232"
         style="stroke-width:0.26458335px" /></text>
    <g
       transform="translate(-24.855675,3.7041699)"
       id="g1749"
       style="font-style:normal;font-variant:normal;font-weight:500;font-stretch:condensed;font-size:2.82222223px;line-height:1.25;font-family:Futura;-inkscape-font-specification:'Futura, Medium Condensed';font-variant-ligatures:normal;font-variant-caps:normal;font-variant-numeric:normal;font-feature-settings:normal;text-align:start;letter-spacing:0px;word-spacing:0px;writing-mode:lr-tb;text-anchor:start;fill:#000000;fill-opacity:1;stroke:none;stroke-width:0.26458335px;stroke-linecap:butt;stroke-linejoin:miter;stroke-opacity:1"
       aria-label="OCTAVE" />
    <g
       transform="translate(-31.471686,12.838492)"
       id="g1805"
       style="font-style:normal;font-variant:normal;font-weight:500;font-stretch:condensed;font-size:2.11666679px;line-height:1.25;font-family:Futura;-inkscape-font-specification:'Futura, Medium Condensed';font-variant-ligatures:normal;font-variant-caps:normal;font-variant-numeric:normal;font-feature-settings:normal;text-align:start;letter-spacing:0px;word-spacing:0px;writing-mode:lr-tb;text-anchor:start;fill:#000000;fill-opacity:1;stroke:none;stroke-width:0.26458335px;stroke-linecap:butt;stroke-linejoin:miter;stroke-opacity:1"
       aria-label="UNI" />
    <g
       aria-label="SOU UTILS"
       style="font-style:normal;font-variant:normal;font-weight:800;font-stretch:condensed;font-size:4.23333359px;line-height:1.25;font-family:Futura;-inkscape-font-specification:'Futura, Ultra-Bold Condensed';font-variant-ligatures:normal;font-variant-caps:normal;font-variant-numeric:normal;font-feature-settings:normal;text-align:start;letter-spacing:0px;word-spacing:0px;writing-mode:lr-tb;text-anchor:start;fill:#000000;fill-opacity:1;stroke:none;stroke-width:0.26458335px;stroke-linecap:butt;stroke-linejoin:miter;stroke-opacity:1"
       id="text1921"
       transform="translate(16.289791,-8.8867114)" />
    <text
       xml:space="preserve"
       style="font-style:normal;font-weight:normal;font-size:10.58333397px;line-height:1.25;font-family:'Bitstream Vera Sans';letter-spacing:0px;word-spacing:0px;fill:#000000;fill-opacity:1;stroke:none;stroke-width:0.26458335px;stroke-linecap:butt;stroke-linejoin:miter;stroke-opacity:1"
       x="21.166668"
       y="-6.7468686"
       id="text2090"
       inkscape:label="text2090"><tspan
         sodipodi:role="line"
         id="tspan2088"
         x="21.166668"
         y="2.6169014"
         style="stroke-width:0.26458335px" /></text>
    <g
       aria-label="NYSTHITAK"
       style="font-style:normal;font-variant:normal;font-weight:800;font-stretch:condensed;font-size:2.82222223px;line-height:1.25;font-family:Futura;-inkscape-font-specification:'Futura, Ultra-Bold Condensed';font-variant-ligatures:normal;font-variant-caps:normal;font-variant-numeric:normal;font-feature-settings:normal;text-align:start;letter-spacing:0px;word-spacing:0px;writing-mode:lr-tb;text-anchor:start;fill:#e6e6e6;fill-opacity:1;stroke:none;stroke-width:0.26458335px;stroke-linecap:butt;stroke-linejoin:miter;stroke-opacity:1"
       id="text1296"
       transform="matrix(1,0,0,0.84052995,2.3647135,15.948997)">
      <g
         id="g895">
        <path
           inkscape:connector-curvature="0"
           id="path1317"
           style="font-style:normal;font-variant:normal;font-weight:800;font-stretch:condensed;font-size:2.82222223px;font-family:Futura;-inkscape-font-specification:'Futura, Ultra-Bold Condensed';font-variant-ligatures:normal;font-variant-caps:normal;font-variant-numeric:normal;font-feature-settings:normal;text-align:start;writing-mode:lr-tb;text-anchor:start;fill:#e6e6e6;fill-opacity:1;stroke-width:0.26458335px"
           d="m 7.4352051,99.975296 v -2.127691 h 0.5484592 l 0.28801,0.746897 q 0.023427,0.06615 0.052365,0.151584 0.030317,0.08544 0.066146,0.197059 l 0.059256,0.187414 q -0.031695,-0.276986 -0.048231,-0.474046 -0.016536,-0.197059 -0.016536,-0.330729 v -0.478179 h 0.5484592 v 2.127691 H 8.3846734 L 8.0952854,99.19257 q -0.045475,-0.125401 -0.082682,-0.234266 -0.035829,-0.110243 -0.06339,-0.209462 0.017914,0.22462 0.026183,0.391363 0.00827,0.166742 0.00827,0.292144 v 0.542947 z" />
        <path
           inkscape:connector-curvature="0"
           id="path1319"
           style="font-style:normal;font-variant:normal;font-weight:800;font-stretch:condensed;font-size:2.82222223px;font-family:Futura;-inkscape-font-specification:'Futura, Ultra-Bold Condensed';font-variant-ligatures:normal;font-variant-caps:normal;font-variant-numeric:normal;font-feature-settings:normal;text-align:start;writing-mode:lr-tb;text-anchor:start;fill:#e6e6e6;fill-opacity:1;stroke-width:0.26458335px"
           d="M 10.185769,99.975296 H 9.6111274 V 99.074059 L 9.0833387,97.847605 h 0.5994467 l 0.1033528,0.315571 q 0.030317,0.09233 0.053743,0.177767 0.024805,0.08544 0.044097,0.163986 0.031695,-0.117133 0.055122,-0.201193 0.023427,-0.08544 0.041341,-0.137804 l 0.1047318,-0.318327 h 0.595312 l -0.494716,1.226454 z" />
        <path
           inkscape:connector-curvature="0"
           id="path1321"
           style="font-style:normal;font-variant:normal;font-weight:800;font-stretch:condensed;font-size:2.82222223px;font-family:Futura;-inkscape-font-specification:'Futura, Ultra-Bold Condensed';font-variant-ligatures:normal;font-variant-caps:normal;font-variant-numeric:normal;font-feature-settings:normal;text-align:start;writing-mode:lr-tb;text-anchor:start;fill:#e6e6e6;fill-opacity:1;stroke-width:0.26458335px"
           d="m 10.735607,99.922931 v -0.668349 q 0.169498,0.23151 0.366558,0.23151 0.07441,0 0.121267,-0.03858 0.04685,-0.03996 0.04685,-0.09922 0,-0.08544 -0.101974,-0.166743 l -0.09371,-0.07304 q -0.09371,-0.07028 -0.159853,-0.139182 -0.06615,-0.07028 -0.107487,-0.143316 -0.04134,-0.07441 -0.06063,-0.152962 -0.01929,-0.07855 -0.01929,-0.165365 0,-0.148828 0.0689,-0.311436 0.03445,-0.07579 0.07993,-0.137804 0.04548,-0.06339 0.104731,-0.111621 0.162609,-0.137804 0.392741,-0.137804 0.205328,0 0.413412,0.108865 v 0.650434 q -0.07028,-0.108865 -0.159853,-0.170877 -0.08957,-0.06339 -0.176389,-0.06339 -0.06615,0 -0.108865,0.03858 -0.0441,0.03721 -0.0441,0.08957 0,0.08544 0.117133,0.169499 l 0.09095,0.06752 q 0.181901,0.130913 0.260449,0.268717 0.07993,0.137804 0.07993,0.322461 0,0.314193 -0.191547,0.518142 -0.191547,0.20395 -0.485069,0.20395 -0.202572,0 -0.434082,-0.08957 z" />
        <path
           inkscape:connector-curvature="0"
           id="path1323"
           style="font-style:normal;font-variant:normal;font-weight:800;font-stretch:condensed;font-size:2.82222223px;font-family:Futura;-inkscape-font-specification:'Futura, Ultra-Bold Condensed';font-variant-ligatures:normal;font-variant-caps:normal;font-variant-numeric:normal;font-feature-settings:normal;text-align:start;writing-mode:lr-tb;text-anchor:start;fill:#e6e6e6;fill-opacity:1;stroke-width:0.26458335px"
           d="M 12.841249,99.975296 H 12.266607 V 98.357479 H 11.949658 V 97.847605 H 13.1706 v 0.509874 h -0.329351 z" />
        <path
           inkscape:connector-curvature="0"
           id="path1325"
           style="font-style:normal;font-variant:normal;font-weight:800;font-stretch:condensed;font-size:2.82222223px;font-family:Futura;-inkscape-font-specification:'Futura, Ultra-Bold Condensed';font-variant-ligatures:normal;font-variant-caps:normal;font-variant-numeric:normal;font-feature-settings:normal;text-align:start;writing-mode:lr-tb;text-anchor:start;fill:#e6e6e6;fill-opacity:1;stroke-width:0.26458335px"
           d="m 14.745698,99.975296 h -0.574642 v -0.855762 h -0.27423 v 0.855762 h -0.574642 v -2.127691 h 0.574642 v 0.752409 h 0.27423 v -0.752409 h 0.574642 z" />
        <path
           inkscape:connector-curvature="0"
           id="path1327"
           style="font-style:normal;font-variant:normal;font-weight:800;font-stretch:condensed;font-size:2.82222223px;font-family:Futura;-inkscape-font-specification:'Futura, Ultra-Bold Condensed';font-variant-ligatures:normal;font-variant-caps:normal;font-variant-numeric:normal;font-feature-settings:normal;text-align:start;writing-mode:lr-tb;text-anchor:start;fill:#e6e6e6;fill-opacity:1;stroke-width:0.26458335px"
           d="m 15.616618,99.975296 h -0.574642 v -2.127691 h 0.574642 z" />
      </g>
    </g>
    <g
       aria-label="BIGBUTTON"
       style="font-style:normal;font-variant:normal;font-weight:800;font-stretch:condensed;font-size:4.93888903px;line-height:1.25;font-family:Futura;-inkscape-font-specification:'Futura, Ultra-Bold Condensed';font-variant-ligatures:normal;font-variant-caps:normal;font-variant-numeric:normal;font-feature-settings:normal;text-align:start;letter-spacing:0px;word-spacing:0px;writing-mode:lr-tb;text-anchor:start;fill:#000000;fill-opacity:1;stroke:none;stroke-width:0.26458335px;stroke-linecap:butt;stroke-linejoin:miter;stroke-opacity:1"
       id="text884">
      <path
         d="M 2.0317444,4.6973877 V 0.97392839 h 1.16961 q 0.6559462,0 0.9718614,0.28938801 0.3207384,0.2966227 0.3207384,0.7668783 0,0.6993544 -0.6945312,0.757232 0.3954969,0.057878 0.578776,0.2604492 0.1856907,0.2025717 0.1856907,0.5835992 0,0.4799018 -0.3110922,0.7717014 Q 3.944117,4.6973877 3.4400995,4.6973877 Z M 3.0373678,3.8895128 q 0.028939,0.00241 0.050643,0.00482 0.021704,0 0.036174,0 0.1881022,0 0.2990343,-0.098874 0.1133437,-0.098874 0.1133437,-0.2652724 0,-0.1663981 -0.1133437,-0.2604492 Q 3.3122864,3.175689 3.1169495,3.175689 h -0.079582 z m 0,-1.4686443 h 0.067524 q 0.1808675,0 0.2845649,-0.084405 0.1061089,-0.084405 0.1061089,-0.2363336 0,-0.3231499 -0.3545003,-0.3231499 -0.016881,0 -0.043408,0.00241 -0.024116,0 -0.060289,0.00241 z"
         style="font-style:normal;font-variant:normal;font-weight:800;font-stretch:condensed;font-size:4.93888903px;font-family:Futura;-inkscape-font-specification:'Futura, Ultra-Bold Condensed';font-variant-ligatures:normal;font-variant-caps:normal;font-variant-numeric:normal;font-feature-settings:normal;text-align:start;writing-mode:lr-tb;text-anchor:start;stroke-width:0.26458335px"
         id="path887"
         inkscape:connector-curvature="0" />
      <path
         d="M 5.9987719,4.6973877 H 4.9931485 V 0.97392839 h 1.0056234 z"
         style="font-style:normal;font-variant:normal;font-weight:800;font-stretch:condensed;font-size:4.93888903px;font-family:Futura;-inkscape-font-specification:'Futura, Ultra-Bold Condensed';font-variant-ligatures:normal;font-variant-caps:normal;font-variant-numeric:normal;font-feature-settings:normal;text-align:start;writing-mode:lr-tb;text-anchor:start;stroke-width:0.26458335px"
         id="path889"
         inkscape:connector-curvature="0" />
      <path
         d="m 7.8122705,2.5438584 h 1.4035319 v 0.1543403 q 0,1.0755589 -0.3207384,1.548226 Q 8.5453868,4.7625 7.8605018,4.7625 7.1876747,4.7625 6.8042355,4.256071 6.4232079,3.7448188 6.4232079,2.852539 q 0,-0.9043376 0.3834392,-1.425236 0.3834391,-0.52089848 1.0490316,-0.52089848 0.8826335,0 1.280542,0.92121858 L 8.1619477,2.184535 Q 8.1402436,2.0084906 8.0606619,1.9072048 7.9834917,1.8035074 7.865325,1.8035074 q -0.4147896,0 -0.4147896,1.1406712 0,0.4847249 0.09164,0.7041775 0.091639,0.2194526 0.2917996,0.2194526 0.079582,0 0.144694,-0.038585 0.065112,-0.038585 0.1085205,-0.1085205 0.04582,-0.069935 0.069935,-0.1688097 0.026527,-0.1012858 0.026527,-0.2242757 h -0.371381 z"
         style="font-style:normal;font-variant:normal;font-weight:800;font-stretch:condensed;font-size:4.93888903px;font-family:Futura;-inkscape-font-specification:'Futura, Ultra-Bold Condensed';font-variant-ligatures:normal;font-variant-caps:normal;font-variant-numeric:normal;font-feature-settings:normal;text-align:start;writing-mode:lr-tb;text-anchor:start;stroke-width:0.26458335px"
         id="path891"
         inkscape:connector-curvature="0" />
      <path
         d="M 9.6426496,4.6973877 V 0.97392839 H 10.81226 q 0.655946,0 0.971861,0.28938801 0.320738,0.2966227 0.320738,0.7668783 0,0.6993544 -0.694531,0.757232 0.395497,0.057878 0.578776,0.2604492 0.185691,0.2025717 0.185691,0.5835992 0,0.4799018 -0.311092,0.7717014 -0.308681,0.2942112 -0.812698,0.2942112 z M 10.648273,3.8895128 q 0.02894,0.00241 0.05064,0.00482 0.0217,0 0.03617,0 0.188103,0 0.299035,-0.098874 0.113343,-0.098874 0.113343,-0.2652724 0,-0.1663981 -0.113343,-0.2604492 -0.110932,-0.094051 -0.306269,-0.094051 h -0.07958 z m 0,-1.4686443 h 0.06752 q 0.180867,0 0.284565,-0.084405 0.106109,-0.084405 0.106109,-0.2363336 0,-0.3231499 -0.354501,-0.3231499 -0.01688,0 -0.04341,0.00241 -0.02412,0 -0.06029,0.00241 z"
         style="font-style:normal;font-variant:normal;font-weight:800;font-stretch:condensed;font-size:4.93888903px;font-family:Futura;-inkscape-font-specification:'Futura, Ultra-Bold Condensed';font-variant-ligatures:normal;font-variant-caps:normal;font-variant-numeric:normal;font-feature-settings:normal;text-align:start;writing-mode:lr-tb;text-anchor:start;stroke-width:0.26458335px"
         id="path893"
         inkscape:connector-curvature="0" />
      <path
         d="m 14.123341,0.97392839 h 1.005623 V 3.6073595 q 0,0.3303846 -0.103697,0.5353678 Q 14.923981,4.3573568 14.687648,4.5309896 14.369321,4.7625 13.913535,4.7625 13.397459,4.7625 13.047782,4.5068739 12.604054,4.1813124 12.604054,3.465077 V 0.97392839 h 1.005623 V 3.375849 q 0,0.2435683 0.05788,0.3448541 0.06029,0.1012858 0.20016,0.1012858 0.144694,0 0.20016,-0.094051 0.05547,-0.098874 0.05547,-0.3496772 z"
         style="font-style:normal;font-variant:normal;font-weight:800;font-stretch:condensed;font-size:4.93888903px;font-family:Futura;-inkscape-font-specification:'Futura, Ultra-Bold Condensed';font-variant-ligatures:normal;font-variant-caps:normal;font-variant-numeric:normal;font-feature-settings:normal;text-align:start;writing-mode:lr-tb;text-anchor:start;stroke-width:0.26458335px"
         id="path895"
         inkscape:connector-curvature="0" />
      <path
         d="M 16.952109,4.6973877 H 15.946486 V 1.8662081 H 15.391825 V 0.97392839 h 2.136649 V 1.8662081 h -0.576365 z"
         style="font-style:normal;font-variant:normal;font-weight:800;font-stretch:condensed;font-size:4.93888903px;font-family:Futura;-inkscape-font-specification:'Futura, Ultra-Bold Condensed';font-variant-ligatures:normal;font-variant-caps:normal;font-variant-numeric:normal;font-feature-settings:normal;text-align:start;writing-mode:lr-tb;text-anchor:start;stroke-width:0.26458335px"
         id="path897"
         inkscape:connector-curvature="0" />
      <path
         d="M 19.09358,4.6973877 H 18.087957 V 1.8662081 H 17.533296 V 0.97392839 h 2.136649 V 1.8662081 H 19.09358 Z"
         style="font-style:normal;font-variant:normal;font-weight:800;font-stretch:condensed;font-size:4.93888903px;font-family:Futura;-inkscape-font-specification:'Futura, Ultra-Bold Condensed';font-variant-ligatures:normal;font-variant-caps:normal;font-variant-numeric:normal;font-feature-settings:normal;text-align:start;writing-mode:lr-tb;text-anchor:start;stroke-width:0.26458335px"
         id="path899"
         inkscape:connector-curvature="0" />
      <path
         d="m 22.701284,2.8477159 q 0,0.8512831 -0.388262,1.3842394 Q 21.927171,4.7625 21.307398,4.7625 q -0.549837,0 -0.942922,-0.4075548 -0.494371,-0.5160753 -0.494371,-1.548226 0,-0.9887424 0.516075,-1.5120524 0.383439,-0.38826228 0.909161,-0.38826228 0.643888,0 1.024915,0.52572158 0.381028,0.5257216 0.381028,1.4155898 z m -1.044208,0.00723 q 0,-1.0104466 -0.356912,-1.0104466 -0.178456,0 -0.284565,0.2652724 -0.103698,0.2459798 -0.103698,0.7234701 0,0.4702555 0.09646,0.7307047 0.09887,0.2580377 0.272507,0.2580377 0.178456,0 0.274919,-0.2556261 0.101286,-0.2556261 0.101286,-0.7114122 z"
         style="font-style:normal;font-variant:normal;font-weight:800;font-stretch:condensed;font-size:4.93888903px;font-family:Futura;-inkscape-font-specification:'Futura, Ultra-Bold Condensed';font-variant-ligatures:normal;font-variant-caps:normal;font-variant-numeric:normal;font-feature-settings:normal;text-align:start;writing-mode:lr-tb;text-anchor:start;stroke-width:0.26458335px"
         id="path901"
         inkscape:connector-curvature="0" />
      <path
         d="M 23.128132,4.6973877 V 0.97392839 h 0.959804 l 0.504017,1.30706931 q 0.041,0.1157552 0.09164,0.2652723 0.05305,0.1495172 0.115755,0.3448541 l 0.103698,0.3279731 q -0.05547,-0.484725 -0.08441,-0.829579 -0.02894,-0.3448541 -0.02894,-0.5787761 V 0.97392839 H 25.7495 V 4.6973877 h -0.959804 l -0.506429,-1.36977 q -0.07958,-0.2194526 -0.144694,-0.4099664 -0.0627,-0.1929253 -0.110932,-0.3665582 0.03135,0.3930855 0.04582,0.684885 0.01447,0.2917996 0.01447,0.5112522 v 0.9501574 z"
         style="font-style:normal;font-variant:normal;font-weight:800;font-stretch:condensed;font-size:4.93888903px;font-family:Futura;-inkscape-font-specification:'Futura, Ultra-Bold Condensed';font-variant-ligatures:normal;font-variant-caps:normal;font-variant-numeric:normal;font-feature-settings:normal;text-align:start;writing-mode:lr-tb;text-anchor:start;stroke-width:0.26458335px"
         id="path903"
         inkscape:connector-curvature="0" />
    </g>
  </g>
</svg>
