<?xml version="1.0" encoding="UTF-8" standalone="no"?>
<!-- Created with Inkscape (http://www.inkscape.org/) -->

<svg
   xmlns:dc="http://purl.org/dc/elements/1.1/"
   xmlns:cc="http://creativecommons.org/ns#"
   xmlns:rdf="http://www.w3.org/1999/02/22-rdf-syntax-ns#"
   xmlns:svg="http://www.w3.org/2000/svg"
   xmlns="http://www.w3.org/2000/svg"
   xmlns:sodipodi="http://sodipodi.sourceforge.net/DTD/sodipodi-0.dtd"
   xmlns:inkscape="http://www.inkscape.org/namespaces/inkscape"
   width="105"
   height="380"
   viewBox="0 0 27.78125 100.54167"
   version="1.1"
   id="svg8"
   inkscape:version="0.92.2 5c3e80d, 2017-08-06"
   sodipodi:docname="BIGNUMBER.svg"
   inkscape:export-filename="E:\Users\Martin\Documents\Rack_Source\Rack\plugins\ML-modules\res\Quantum.png"
   inkscape:export-xdpi="96"
   inkscape:export-ydpi="96">
  <sodipodi:namedview
     id="base"
     pagecolor="#ffffff"
     bordercolor="#666666"
     borderopacity="1.0"
     inkscape:pageopacity="0"
     inkscape:pageshadow="2"
     inkscape:zoom="0.66031305"
     inkscape:cx="-12.979817"
     inkscape:cy="210.1276"
     inkscape:document-units="px"
     inkscape:current-layer="layer2"
     showgrid="true"
     units="px"
     fit-margin-top="0"
     fit-margin-left="0"
     fit-margin-right="0"
     fit-margin-bottom="0"
     showguides="true"
     inkscape:snap-to-guides="false"
     objecttolerance="20"
     inkscape:window-width="1070"
     inkscape:window-height="768"
     inkscape:window-x="438"
     inkscape:window-y="9"
     inkscape:window-maximized="0"
     gridtolerance="17"
     inkscape:snap-perpendicular="false"
     inkscape:pagecheckerboard="true"
     inkscape:snap-page="false"
     inkscape:snap-text-baseline="true">
    <inkscape:grid
       empspacing="20"
       dotted="false"
       spacingy="0.52916668"
       spacingx="0.52916668"
       originy="100.54167"
       originx="-7.3436628e-018"
       id="grid43"
       type="xygrid" />
  </sodipodi:namedview>
  <defs
     id="defs2">
    <inkscape:perspective
       id="perspective4742"
       inkscape:persp3d-origin="15.875 : 33.51389 : 1"
       inkscape:vp_z="31.75 : 50.270835 : 1"
       inkscape:vp_y="0 : 1000 : 0"
       inkscape:vp_x="0 : 50.270835 : 1"
       sodipodi:type="inkscape:persp3d" />
    <filter
       id="filter1636"
       x="-0.25"
       width="1.5"
       y="-0.25"
       height="1.5"
       inkscape:menu="Non-realistic 3D Shaders"
       inkscape:menu-tooltip="Deep and dark metal shading"
       inkscape:label="Deep Metal"
       style="color-interpolation-filters:sRGB">
      <feGaussianBlur
         id="feGaussianBlur1616"
         in="SourceGraphic"
         stdDeviation="5"
         result="result8" />
      <feComposite
         id="feComposite1618"
         in2="result8"
         operator="xor"
         result="result19" />
      <feComposite
         id="feComposite1620"
         k2="1"
         operator="arithmetic"
         result="result17"
         in2="result8"
         k1="0"
         k3="0"
         k4="0" />
      <feComposite
         id="feComposite1622"
         in2="result17"
         result="result6"
         operator="xor" />
      <feOffset
         id="feOffset1624"
         result="result18"
         in="result6" />
      <feDisplacementMap
         id="feDisplacementMap1626"
         in2="result17"
         in="result18"
         xChannelSelector="A"
         yChannelSelector="A"
         scale="100"
         result="result4" />
      <feComposite
         id="feComposite1628"
         in="result4"
         in2="result4"
         result="result2"
         operator="arithmetic"
         k3="1"
         k1="0"
         k2="0"
         k4="0" />
      <feComposite
         id="feComposite1630"
         in2="result2"
         result="fbSourceGraphic"
         in="result2"
         operator="over" />
      <feComposite
         id="feComposite1632"
         in="fbSourceGraphic"
         in2="SourceGraphic"
         operator="xor"
         result="result15" />
      <feComposite
         id="feComposite1634"
         result="result16"
         in2="result8"
         operator="in"
         in="result15" />
    </filter>
  </defs>
  <metadata
     id="metadata5">
    <rdf:RDF>
      <cc:Work
         rdf:about="">
        <dc:format>image/svg+xml</dc:format>
        <dc:type
           rdf:resource="http://purl.org/dc/dcmitype/StillImage" />
        <dc:title />
      </cc:Work>
    </rdf:RDF>
  </metadata>
  <g
     style="display:inline;opacity:1"
     inkscape:label="Layer 2"
     id="layer2"
     inkscape:groupmode="layer">
    <g
       id="text4720"
       style="font-style:normal;font-variant:normal;font-weight:bold;font-stretch:normal;font-size:19.75555611px;line-height:1.25;font-family:Arial;-inkscape-font-specification:'Arial, Bold';font-variant-ligatures:normal;font-variant-caps:normal;font-variant-numeric:normal;font-feature-settings:normal;text-align:start;letter-spacing:0px;word-spacing:0px;writing-mode:lr-tb;text-anchor:start;fill:#000000;fill-opacity:1;stroke:none;stroke-width:0.26458335"
       aria-label="M" />
    <text
       id="text989"
       y="20.637499"
       x="19.050001"
       style="font-style:normal;font-variant:normal;font-weight:normal;font-stretch:normal;font-size:2.82222247px;line-height:1.25;font-family:Arial;-inkscape-font-specification:'Arial, Normal';font-variant-ligatures:normal;font-variant-caps:normal;font-variant-numeric:normal;font-feature-settings:normal;text-align:start;letter-spacing:0px;word-spacing:0px;writing-mode:lr-tb;text-anchor:start;fill:#000000;fill-opacity:1;stroke:none;stroke-width:0.26458335"
       xml:space="preserve"><tspan
         style="stroke-width:0.26458335"
         y="23.179628"
         x="19.050001"
         id="tspan987"
         sodipodi:role="line" /></text>
    <rect
       ry="0"
       y="55.6404"
       x="-7.9512687"
       height="0"
       width="6.2674704"
       id="rect842"
       style="fill:#ffffff;fill-opacity:1;stroke:none;stroke-width:0.26458335;stroke-opacity:1" />
    <path
       style="fill:#b7c4c8;fill-opacity:1;stroke-width:0.28578269"
       d="M 0,-1.6666667e-6 H 27.78125 V 100.54167 H 0 Z"
       id="rect4689"
       inkscape:connector-curvature="0" />
    <text
       id="text4987"
       y="59.795834"
       x="30.691668"
       style="font-style:normal;font-weight:normal;font-size:10.58333397px;line-height:1.25;font-family:'Bitstream Vera Sans';letter-spacing:0px;word-spacing:0px;fill:#000000;fill-opacity:1;stroke:none;stroke-width:0.26458335px;stroke-linecap:butt;stroke-linejoin:miter;stroke-opacity:1"
       xml:space="preserve"><tspan
         style="stroke-width:0.26458335px"
         y="69.159607"
         x="30.691668"
         id="tspan4985"
         sodipodi:role="line" /></text>
    <text
       xml:space="preserve"
       style="font-style:normal;font-weight:normal;font-size:10.58333397px;line-height:1.25;font-family:'Bitstream Vera Sans';letter-spacing:0px;word-spacing:0px;fill:#000000;fill-opacity:1;stroke:none;stroke-width:0.26458335px;stroke-linecap:butt;stroke-linejoin:miter;stroke-opacity:1"
       x="-36.247917"
       y="57.811459"
       id="text1042"><tspan
         sodipodi:role="line"
         id="tspan1040"
         x="-36.247917"
         y="67.175232"
         style="stroke-width:0.26458335px" /></text>
    <g
       transform="translate(-24.855675,3.7041699)"
       id="g1749"
       style="font-style:normal;font-variant:normal;font-weight:500;font-stretch:condensed;font-size:2.82222223px;line-height:1.25;font-family:Futura;-inkscape-font-specification:'Futura, Medium Condensed';font-variant-ligatures:normal;font-variant-caps:normal;font-variant-numeric:normal;font-feature-settings:normal;text-align:start;letter-spacing:0px;word-spacing:0px;writing-mode:lr-tb;text-anchor:start;fill:#000000;fill-opacity:1;stroke:none;stroke-width:0.26458335px;stroke-linecap:butt;stroke-linejoin:miter;stroke-opacity:1"
       aria-label="OCTAVE" />
    <g
       transform="translate(-31.471686,12.838492)"
       id="g1805"
       style="font-style:normal;font-variant:normal;font-weight:500;font-stretch:condensed;font-size:2.11666679px;line-height:1.25;font-family:Futura;-inkscape-font-specification:'Futura, Medium Condensed';font-variant-ligatures:normal;font-variant-caps:normal;font-variant-numeric:normal;font-feature-settings:normal;text-align:start;letter-spacing:0px;word-spacing:0px;writing-mode:lr-tb;text-anchor:start;fill:#000000;fill-opacity:1;stroke:none;stroke-width:0.26458335px;stroke-linecap:butt;stroke-linejoin:miter;stroke-opacity:1"
       aria-label="UNI" />
    <g
       aria-label="SOU UTILS"
       style="font-style:normal;font-variant:normal;font-weight:800;font-stretch:condensed;font-size:4.23333359px;line-height:1.25;font-family:Futura;-inkscape-font-specification:'Futura, Ultra-Bold Condensed';font-variant-ligatures:normal;font-variant-caps:normal;font-variant-numeric:normal;font-feature-settings:normal;text-align:start;letter-spacing:0px;word-spacing:0px;writing-mode:lr-tb;text-anchor:start;fill:#000000;fill-opacity:1;stroke:none;stroke-width:0.26458335px;stroke-linecap:butt;stroke-linejoin:miter;stroke-opacity:1"
       id="text1921"
       transform="translate(16.289791,-8.8867114)" />
    <text
       xml:space="preserve"
       style="font-style:normal;font-weight:normal;font-size:10.58333397px;line-height:1.25;font-family:'Bitstream Vera Sans';letter-spacing:0px;word-spacing:0px;fill:#000000;fill-opacity:1;stroke:none;stroke-width:0.26458335px;stroke-linecap:butt;stroke-linejoin:miter;stroke-opacity:1"
       x="21.166668"
       y="-6.7468686"
       id="text2090"
       inkscape:label="text2090"><tspan
         sodipodi:role="line"
         id="tspan2088"
         x="21.166668"
         y="2.6169014"
         style="stroke-width:0.26458335px" /></text>
    <g
       aria-label="NYSTHITAK"
       style="font-style:normal;font-variant:normal;font-weight:800;font-stretch:condensed;font-size:2.82222223px;line-height:1.25;font-family:Futura;-inkscape-font-specification:'Futura, Ultra-Bold Condensed';font-variant-ligatures:normal;font-variant-caps:normal;font-variant-numeric:normal;font-feature-settings:normal;text-align:start;letter-spacing:0px;word-spacing:0px;writing-mode:lr-tb;text-anchor:start;fill:#e6e6e6;fill-opacity:1;stroke:none;stroke-width:0.26458335px;stroke-linecap:butt;stroke-linejoin:miter;stroke-opacity:1"
       id="text1296"
       transform="translate(2.3647135)">
      <g
         id="g895">
        <path
           inkscape:connector-curvature="0"
           id="path1317"
           style="font-style:normal;font-variant:normal;font-weight:800;font-stretch:condensed;font-size:2.82222223px;font-family:Futura;-inkscape-font-specification:'Futura, Ultra-Bold Condensed';font-variant-ligatures:normal;font-variant-caps:normal;font-variant-numeric:normal;font-feature-settings:normal;text-align:start;writing-mode:lr-tb;text-anchor:start;fill:#e6e6e6;fill-opacity:1;stroke-width:0.26458335px"
           d="m 7.4352051,99.975296 v -2.127691 h 0.5484592 l 0.28801,0.746897 q 0.023427,0.06615 0.052365,0.151584 0.030317,0.08544 0.066146,0.197059 l 0.059256,0.187414 q -0.031695,-0.276986 -0.048231,-0.474046 -0.016536,-0.197059 -0.016536,-0.330729 v -0.478179 h 0.5484592 v 2.127691 H 8.3846734 L 8.0952854,99.19257 q -0.045475,-0.125401 -0.082682,-0.234266 -0.035829,-0.110243 -0.06339,-0.209462 0.017914,0.22462 0.026183,0.391363 0.00827,0.166742 0.00827,0.292144 v 0.542947 z" />
        <path
           inkscape:connector-curvature="0"
           id="path1319"
           style="font-style:normal;font-variant:normal;font-weight:800;font-stretch:condensed;font-size:2.82222223px;font-family:Futura;-inkscape-font-specification:'Futura, Ultra-Bold Condensed';font-variant-ligatures:normal;font-variant-caps:normal;font-variant-numeric:normal;font-feature-settings:normal;text-align:start;writing-mode:lr-tb;text-anchor:start;fill:#e6e6e6;fill-opacity:1;stroke-width:0.26458335px"
           d="M 10.185769,99.975296 H 9.6111274 V 99.074059 L 9.0833387,97.847605 h 0.5994467 l 0.1033528,0.315571 q 0.030317,0.09233 0.053743,0.177767 0.024805,0.08544 0.044097,0.163986 0.031695,-0.117133 0.055122,-0.201193 0.023427,-0.08544 0.041341,-0.137804 l 0.1047318,-0.318327 h 0.595312 l -0.494716,1.226454 z" />
        <path
           inkscape:connector-curvature="0"
           id="path1321"
           style="font-style:normal;font-variant:normal;font-weight:800;font-stretch:condensed;font-size:2.82222223px;font-family:Futura;-inkscape-font-specification:'Futura, Ultra-Bold Condensed';font-variant-ligatures:normal;font-variant-caps:normal;font-variant-numeric:normal;font-feature-settings:normal;text-align:start;writing-mode:lr-tb;text-anchor:start;fill:#e6e6e6;fill-opacity:1;stroke-width:0.26458335px"
           d="m 10.735607,99.922931 v -0.668349 q 0.169498,0.23151 0.366558,0.23151 0.07441,0 0.121267,-0.03858 0.04685,-0.03996 0.04685,-0.09922 0,-0.08544 -0.101974,-0.166743 l -0.09371,-0.07304 q -0.09371,-0.07028 -0.159853,-0.139182 -0.06615,-0.07028 -0.107487,-0.143316 -0.04134,-0.07441 -0.06063,-0.152962 -0.01929,-0.07855 -0.01929,-0.165365 0,-0.148828 0.0689,-0.311436 0.03445,-0.07579 0.07993,-0.137804 0.04548,-0.06339 0.104731,-0.111621 0.162609,-0.137804 0.392741,-0.137804 0.205328,0 0.413412,0.108865 v 0.650434 q -0.07028,-0.108865 -0.159853,-0.170877 -0.08957,-0.06339 -0.176389,-0.06339 -0.06615,0 -0.108865,0.03858 -0.0441,0.03721 -0.0441,0.08957 0,0.08544 0.117133,0.169499 l 0.09095,0.06752 q 0.181901,0.130913 0.260449,0.268717 0.07993,0.137804 0.07993,0.322461 0,0.314193 -0.191547,0.518142 -0.191547,0.20395 -0.485069,0.20395 -0.202572,0 -0.434082,-0.08957 z" />
        <path
           inkscape:connector-curvature="0"
           id="path1323"
           style="font-style:normal;font-variant:normal;font-weight:800;font-stretch:condensed;font-size:2.82222223px;font-family:Futura;-inkscape-font-specification:'Futura, Ultra-Bold Condensed';font-variant-ligatures:normal;font-variant-caps:normal;font-variant-numeric:normal;font-feature-settings:normal;text-align:start;writing-mode:lr-tb;text-anchor:start;fill:#e6e6e6;fill-opacity:1;stroke-width:0.26458335px"
           d="M 12.841249,99.975296 H 12.266607 V 98.357479 H 11.949658 V 97.847605 H 13.1706 v 0.509874 h -0.329351 z" />
        <path
           inkscape:connector-curvature="0"
           id="path1325"
           style="font-style:normal;font-variant:normal;font-weight:800;font-stretch:condensed;font-size:2.82222223px;font-family:Futura;-inkscape-font-specification:'Futura, Ultra-Bold Condensed';font-variant-ligatures:normal;font-variant-caps:normal;font-variant-numeric:normal;font-feature-settings:normal;text-align:start;writing-mode:lr-tb;text-anchor:start;fill:#e6e6e6;fill-opacity:1;stroke-width:0.26458335px"
           d="m 14.745698,99.975296 h -0.574642 v -0.855762 h -0.27423 v 0.855762 h -0.574642 v -2.127691 h 0.574642 v 0.752409 h 0.27423 v -0.752409 h 0.574642 z" />
        <path
           inkscape:connector-curvature="0"
           id="path1327"
           style="font-style:normal;font-variant:normal;font-weight:800;font-stretch:condensed;font-size:2.82222223px;font-family:Futura;-inkscape-font-specification:'Futura, Ultra-Bold Condensed';font-variant-ligatures:normal;font-variant-caps:normal;font-variant-numeric:normal;font-feature-settings:normal;text-align:start;writing-mode:lr-tb;text-anchor:start;fill:#e6e6e6;fill-opacity:1;stroke-width:0.26458335px"
           d="m 15.616618,99.975296 h -0.574642 v -2.127691 h 0.574642 z" />
      </g>
    </g>
    <g
       aria-label="BIGNUMBER"
       style="font-style:normal;font-variant:normal;font-weight:800;font-stretch:condensed;font-size:4.93888903px;line-height:1.25;font-family:Futura;-inkscape-font-specification:'Futura, Ultra-Bold Condensed';font-variant-ligatures:normal;font-variant-caps:normal;font-variant-numeric:normal;font-feature-settings:normal;text-align:start;letter-spacing:0px;word-spacing:0px;writing-mode:lr-tb;text-anchor:start;fill:#000000;fill-opacity:1;stroke:none;stroke-width:0.26458335px;stroke-linecap:butt;stroke-linejoin:miter;stroke-opacity:1"
       id="text868"
       transform="matrix(0.96704928,0,0,1,0.45770635,0)">
      <path
         d="M 0.89469105,4.6973877 V 0.97392839 H 2.064301 q 0.6559462,0 0.9718615,0.28938801 0.3207384,0.2966227 0.3207384,0.7668783 0,0.6993544 -0.6945313,0.757232 0.395497,0.057878 0.578776,0.2604492 0.1856907,0.2025717 0.1856907,0.5835992 0,0.4799018 -0.3110921,0.7717014 Q 2.8070636,4.6973877 2.3030461,4.6973877 Z M 1.9003144,3.8895128 q 0.028939,0.00241 0.050643,0.00482 0.021704,0 0.036173,0 0.1881022,0 0.2990343,-0.098874 0.1133436,-0.098874 0.1133436,-0.2652724 0,-0.1663981 -0.1133436,-0.2604492 Q 2.1752331,3.175689 1.9798962,3.175689 h -0.079582 z m 0,-1.4686443 h 0.067524 q 0.1808675,0 0.2845649,-0.084405 0.106109,-0.084405 0.106109,-0.2363336 0,-0.3231499 -0.3545004,-0.3231499 -0.016881,0 -0.043408,0.00241 -0.024116,0 -0.060289,0.00241 z"
         style="font-style:normal;font-variant:normal;font-weight:800;font-stretch:condensed;font-size:4.93888903px;font-family:Futura;-inkscape-font-specification:'Futura, Ultra-Bold Condensed';font-variant-ligatures:normal;font-variant-caps:normal;font-variant-numeric:normal;font-feature-settings:normal;text-align:start;writing-mode:lr-tb;text-anchor:start;stroke-width:0.26458335px"
         id="path870"
         inkscape:connector-curvature="0" />
      <path
         d="M 4.8617185,4.6973877 H 3.8560951 V 0.97392839 h 1.0056234 z"
         style="font-style:normal;font-variant:normal;font-weight:800;font-stretch:condensed;font-size:4.93888903px;font-family:Futura;-inkscape-font-specification:'Futura, Ultra-Bold Condensed';font-variant-ligatures:normal;font-variant-caps:normal;font-variant-numeric:normal;font-feature-settings:normal;text-align:start;writing-mode:lr-tb;text-anchor:start;stroke-width:0.26458335px"
         id="path872"
         inkscape:connector-curvature="0" />
      <path
         d="m 6.6752171,2.5438584 h 1.403532 v 0.1543403 q 0,1.0755589 -0.3207384,1.548226 Q 7.4083335,4.7625 6.7234485,4.7625 6.0506213,4.7625 5.6671821,4.256071 5.2861546,3.7448188 5.2861546,2.852539 q 0,-0.9043376 0.3834391,-1.425236 0.3834392,-0.52089848 1.0490316,-0.52089848 0.8826335,0 1.280542,0.92121858 L 7.0248943,2.184535 Q 7.0031902,2.0084906 6.9236085,1.9072048 6.8464384,1.8035074 6.7282716,1.8035074 q -0.4147895,0 -0.4147895,1.1406712 0,0.4847249 0.09164,0.7041775 0.09164,0.2194526 0.2917996,0.2194526 0.079582,0 0.144694,-0.038585 0.065112,-0.038585 0.1085205,-0.1085205 0.04582,-0.069935 0.069936,-0.1688097 0.026527,-0.1012858 0.026527,-0.2242757 H 6.6752171 Z"
         style="font-style:normal;font-variant:normal;font-weight:800;font-stretch:condensed;font-size:4.93888903px;font-family:Futura;-inkscape-font-specification:'Futura, Ultra-Bold Condensed';font-variant-ligatures:normal;font-variant-caps:normal;font-variant-numeric:normal;font-feature-settings:normal;text-align:start;writing-mode:lr-tb;text-anchor:start;stroke-width:0.26458335px"
         id="path874"
         inkscape:connector-curvature="0" />
      <path
         d="M 8.5055962,4.6973877 V 0.97392839 H 9.4653998 L 9.9694173,2.2809977 q 0.040997,0.1157552 0.09164,0.2652723 0.05305,0.1495172 0.115755,0.3448541 l 0.103697,0.3279731 q -0.05547,-0.484725 -0.0844,-0.829579 -0.02894,-0.3448541 -0.02894,-0.5787761 V 0.97392839 h 0.959803 V 4.6973877 H 10.167166 L 9.6607368,3.3276177 Q 9.5811551,3.1081651 9.5160428,2.9176513 9.453342,2.724726 9.4051107,2.5510931 q 0.03135,0.3930855 0.04582,0.684885 0.014469,0.2917996 0.014469,0.5112522 v 0.9501574 z"
         style="font-style:normal;font-variant:normal;font-weight:800;font-stretch:condensed;font-size:4.93888903px;font-family:Futura;-inkscape-font-specification:'Futura, Ultra-Bold Condensed';font-variant-ligatures:normal;font-variant-caps:normal;font-variant-numeric:normal;font-feature-settings:normal;text-align:start;writing-mode:lr-tb;text-anchor:start;stroke-width:0.26458335px"
         id="path876"
         inkscape:connector-curvature="0" />
      <path
         d="M 13.169567,0.97392839 H 14.17519 V 3.6073595 q 0,0.3303846 -0.103697,0.5353678 -0.101286,0.2146295 -0.33762,0.3882623 Q 13.415547,4.7625 12.95976,4.7625 12.443685,4.7625 12.094008,4.5068739 11.65028,4.1813124 11.65028,3.465077 V 0.97392839 h 1.005623 V 3.375849 q 0,0.2435683 0.05788,0.3448541 0.06029,0.1012858 0.20016,0.1012858 0.144694,0 0.20016,-0.094051 0.05547,-0.098874 0.05547,-0.3496772 z"
         style="font-style:normal;font-variant:normal;font-weight:800;font-stretch:condensed;font-size:4.93888903px;font-family:Futura;-inkscape-font-specification:'Futura, Ultra-Bold Condensed';font-variant-ligatures:normal;font-variant-caps:normal;font-variant-numeric:normal;font-feature-settings:normal;text-align:start;writing-mode:lr-tb;text-anchor:start;stroke-width:0.26458335px"
         id="path878"
         inkscape:connector-curvature="0" />
      <path
         d="m 18.53048,4.6973877 h -1.051443 l -0.07476,-1.6977431 -0.03135,-0.6776503 q -0.01688,0.1953369 -0.03859,0.3737929 -0.0217,0.1760443 -0.05306,0.3424425 l -0.315915,1.659158 H 16.14544 L 15.875345,3.0358181 q -0.02412,-0.144694 -0.06511,-0.4967828 -0.0048,-0.053055 -0.02171,-0.217041 l -0.02412,0.6872966 -0.08923,1.6880968 h -1.070736 l 0.434082,-3.72345931 h 1.251603 l 0.209807,1.25401481 q 0.02653,0.1543403 0.04582,0.3352078 0.0217,0.1808675 0.03859,0.3930854 0.03135,-0.3545003 0.08682,-0.6342421 l 0.255626,-1.34806591 h 1.241957 z"
         style="font-style:normal;font-variant:normal;font-weight:800;font-stretch:condensed;font-size:4.93888903px;font-family:Futura;-inkscape-font-specification:'Futura, Ultra-Bold Condensed';font-variant-ligatures:normal;font-variant-caps:normal;font-variant-numeric:normal;font-feature-settings:normal;text-align:start;writing-mode:lr-tb;text-anchor:start;stroke-width:0.26458335px"
         id="path880"
         inkscape:connector-curvature="0" />
      <path
         d="M 18.981443,4.6973877 V 0.97392839 h 1.16961 q 0.655946,0 0.971861,0.28938801 0.320739,0.2966227 0.320739,0.7668783 0,0.6993544 -0.694531,0.757232 0.395496,0.057878 0.578776,0.2604492 0.18569,0.2025717 0.18569,0.5835992 0,0.4799018 -0.311092,0.7717014 -0.30868,0.2942112 -0.812698,0.2942112 z m 1.005623,-0.8078749 q 0.02894,0.00241 0.05064,0.00482 0.0217,0 0.03617,0 0.188102,0 0.299034,-0.098874 0.113344,-0.098874 0.113344,-0.2652724 0,-0.1663981 -0.113344,-0.2604492 -0.110932,-0.094051 -0.306269,-0.094051 h -0.07958 z m 0,-1.4686443 h 0.06752 q 0.180868,0 0.284565,-0.084405 0.106109,-0.084405 0.106109,-0.2363336 0,-0.3231499 -0.3545,-0.3231499 -0.01688,0 -0.04341,0.00241 -0.02412,0 -0.06029,0.00241 z"
         style="font-style:normal;font-variant:normal;font-weight:800;font-stretch:condensed;font-size:4.93888903px;font-family:Futura;-inkscape-font-specification:'Futura, Ultra-Bold Condensed';font-variant-ligatures:normal;font-variant-caps:normal;font-variant-numeric:normal;font-feature-settings:normal;text-align:start;writing-mode:lr-tb;text-anchor:start;stroke-width:0.26458335px"
         id="path882"
         inkscape:connector-curvature="0" />
      <path
         d="M 21.942848,4.6973877 V 0.97392839 h 1.868964 V 1.8493272 h -0.863341 v 0.5426025 h 0.774113 v 0.8416369 h -0.774113 v 0.5691298 h 0.863341 v 0.8946913 z"
         style="font-style:normal;font-variant:normal;font-weight:800;font-stretch:condensed;font-size:4.93888903px;font-family:Futura;-inkscape-font-specification:'Futura, Ultra-Bold Condensed';font-variant-ligatures:normal;font-variant-caps:normal;font-variant-numeric:normal;font-feature-settings:normal;text-align:start;writing-mode:lr-tb;text-anchor:start;stroke-width:0.26458335px"
         id="path884"
         inkscape:connector-curvature="0" />
      <path
         d="M 26.886559,4.6973877 H 25.798942 L 25.302159,3.3710259 q -0.0072,-0.033762 -0.02653,-0.089228 -0.01688,-0.055466 -0.04341,-0.1326362 l 0.0072,0.2459799 V 4.6973877 H 24.238658 V 0.97392839 h 1.02974 q 0.680061,0 1.017681,0.26768391 0.429259,0.3424425 0.429259,0.974273 0,0.6752388 -0.576365,0.9332764 z m -1.642277,-1.999189 h 0.06752 q 0.173633,0 0.289388,-0.1326362 0.115755,-0.1326361 0.115755,-0.3376193 0,-0.4172011 -0.436494,-0.4172011 h -0.03617 z"
         style="font-style:normal;font-variant:normal;font-weight:800;font-stretch:condensed;font-size:4.93888903px;font-family:Futura;-inkscape-font-specification:'Futura, Ultra-Bold Condensed';font-variant-ligatures:normal;font-variant-caps:normal;font-variant-numeric:normal;font-feature-settings:normal;text-align:start;writing-mode:lr-tb;text-anchor:start;stroke-width:0.26458335px"
         id="path886"
         inkscape:connector-curvature="0" />
    </g>
    <g
       aria-label="ACTIVE"
       transform="matrix(0.83355447,0,0,1.1996817,0,-1.5875001)"
       style="font-style:normal;font-variant:normal;font-weight:500;font-stretch:condensed;font-size:2.35247588px;line-height:1.25;font-family:Futura;-inkscape-font-specification:'Futura, Medium Condensed';font-variant-ligatures:normal;font-variant-caps:normal;font-variant-numeric:normal;font-feature-settings:normal;text-align:start;letter-spacing:0px;word-spacing:0px;writing-mode:lr-tb;text-anchor:start;fill:#000000;fill-opacity:1;stroke:none;stroke-width:0.22054464px;stroke-linecap:butt;stroke-linejoin:miter;stroke-opacity:1"
       id="text899">
      <path
         d="M 1.973032,7.0264139 H 2.1591165 L 2.5393263,8.7999601 H 2.3027003 L 2.2360774,8.4542105 H 1.8845845 L 1.8168129,8.7999601 H 1.587079 Z M 2.2016173,8.2692747 2.1487785,7.9867019 Q 2.0959397,7.6983857 2.0626283,7.3710148 2.0465469,7.5306799 2.0212762,7.6949397 1.9960054,7.8580508 1.9615453,8.041838 l -0.043649,0.2274367 z"
         style="font-style:normal;font-variant:normal;font-weight:500;font-stretch:condensed;font-size:2.35247588px;font-family:Futura;-inkscape-font-specification:'Futura, Medium Condensed';font-variant-ligatures:normal;font-variant-caps:normal;font-variant-numeric:normal;font-feature-settings:normal;text-align:start;writing-mode:lr-tb;text-anchor:start;stroke-width:0.22054464px"
         id="path956"
         inkscape:connector-curvature="0" />
      <path
         d="m 3.3629226,7.0551306 v 0.2148013 q -0.091894,-0.044798 -0.1539218,-0.044798 -0.085002,0 -0.145881,0.042501 -0.060879,0.041352 -0.101083,0.1286511 -0.039055,0.087299 -0.058582,0.2216932 -0.018379,0.1332458 -0.018379,0.3158843 0,0.6570391 0.3365603,0.6570391 0.058582,0 0.1412864,-0.036757 v 0.2193959 q -0.08615,0.048244 -0.1929765,0.048244 -0.5387262,0 -0.5387262,-0.8798812 0,-0.4755493 0.1309484,-0.7075806 0.132097,-0.2320313 0.4031831,-0.2320313 0.099934,0 0.1975713,0.052838 z"
         style="font-style:normal;font-variant:normal;font-weight:500;font-stretch:condensed;font-size:2.35247588px;font-family:Futura;-inkscape-font-specification:'Futura, Medium Condensed';font-variant-ligatures:normal;font-variant-caps:normal;font-variant-numeric:normal;font-feature-settings:normal;text-align:start;writing-mode:lr-tb;text-anchor:start;stroke-width:0.22054464px"
         id="path958"
         inkscape:connector-curvature="0" />
      <path
         d="m 3.4215047,7.0264139 h 0.7776495 v 0.2090579 h -0.26764 V 8.7999601 H 3.6971855 V 7.2354718 H 3.4215047 Z"
         style="font-style:normal;font-variant:normal;font-weight:500;font-stretch:condensed;font-size:2.35247588px;font-family:Futura;-inkscape-font-specification:'Futura, Medium Condensed';font-variant-ligatures:normal;font-variant-caps:normal;font-variant-numeric:normal;font-feature-settings:normal;text-align:start;writing-mode:lr-tb;text-anchor:start;stroke-width:0.22054464px"
         id="path960"
         inkscape:connector-curvature="0" />
      <path
         d="M 4.3301026,7.0264139 H 4.5690259 V 8.7999601 H 4.3301026 Z"
         style="font-style:normal;font-variant:normal;font-weight:500;font-stretch:condensed;font-size:2.35247588px;font-family:Futura;-inkscape-font-specification:'Futura, Medium Condensed';font-variant-ligatures:normal;font-variant-caps:normal;font-variant-numeric:normal;font-feature-settings:normal;text-align:start;writing-mode:lr-tb;text-anchor:start;stroke-width:0.22054464px"
         id="path962"
         inkscape:connector-curvature="0" />
      <path
         d="m 4.7034203,7.0264139 h 0.2354773 l 0.1068263,0.6547418 0.018379,0.118313 0.037906,0.257302 q 0.00919,0.065474 0.016081,0.1194617 0.00804,0.053987 0.013784,0.097637 l 0.011487,0.087299 q 0.00345,-0.026419 0.00574,-0.047095 0.0023,-0.020676 0.00459,-0.03446 L 5.184713,8.0740008 5.2249164,7.8040634 q 0.00574,-0.036758 0.010338,-0.067772 0.00574,-0.031014 0.010338,-0.055136 l 0.114867,-0.6547415 h 0.222842 L 5.2352544,8.7999601 H 5.0457239 Z"
         style="font-style:normal;font-variant:normal;font-weight:500;font-stretch:condensed;font-size:2.35247588px;font-family:Futura;-inkscape-font-specification:'Futura, Medium Condensed';font-variant-ligatures:normal;font-variant-caps:normal;font-variant-numeric:normal;font-feature-settings:normal;text-align:start;writing-mode:lr-tb;text-anchor:start;stroke-width:0.22054464px"
         id="path964"
         inkscape:connector-curvature="0" />
      <path
         d="M 5.7131011,7.0264139 H 6.3483155 V 7.2285798 H 5.9520244 v 0.5616995 h 0.351493 v 0.2021659 h -0.351493 v 0.605349 H 6.3483155 V 8.7999601 H 5.7131011 Z"
         style="font-style:normal;font-variant:normal;font-weight:500;font-stretch:condensed;font-size:2.35247588px;font-family:Futura;-inkscape-font-specification:'Futura, Medium Condensed';font-variant-ligatures:normal;font-variant-caps:normal;font-variant-numeric:normal;font-feature-settings:normal;text-align:start;writing-mode:lr-tb;text-anchor:start;stroke-width:0.22054464px"
         id="path966"
         inkscape:connector-curvature="0" />
    </g>
    <g
       aria-label="RESET"
       transform="matrix(0.88585618,0,0,1.1288514,0,-1.5875001)"
       style="font-style:normal;font-variant:normal;font-weight:500;font-stretch:condensed;font-size:2.50008297px;line-height:1.25;font-family:Futura;-inkscape-font-specification:'Futura, Medium Condensed';font-variant-ligatures:normal;font-variant-caps:normal;font-variant-numeric:normal;font-feature-settings:normal;text-align:start;letter-spacing:0px;word-spacing:0px;writing-mode:lr-tb;text-anchor:start;fill:#000000;fill-opacity:1;stroke:none;stroke-width:0.23438279px;stroke-linecap:butt;stroke-linejoin:miter;stroke-opacity:1"
       id="text903">
      <path
         d="m 1.4933763,12.154945 h 0.3344838 q 0.2075264,0 0.3088481,0.09888 0.1281781,0.128178 0.1281781,0.391859 0,0.202643 -0.068362,0.325938 -0.067141,0.122075 -0.1928775,0.151373 L 2.350338,14.039773 H 2.0927614 L 1.747291,13.116891 v 0.922882 H 1.4933763 Z m 0.2539147,0.834988 q 0.14771,0 0.2087471,-0.06836 0.061037,-0.06836 0.061037,-0.230721 0,-0.08789 -0.013428,-0.150151 -0.012207,-0.06226 -0.040284,-0.101322 -0.026856,-0.03906 -0.070803,-0.05738 -0.042726,-0.01831 -0.1025425,-0.01831 H 1.747291 Z"
         style="font-style:normal;font-variant:normal;font-weight:500;font-stretch:condensed;font-size:2.50008297px;font-family:Futura;-inkscape-font-specification:'Futura, Medium Condensed';font-variant-ligatures:normal;font-variant-caps:normal;font-variant-numeric:normal;font-feature-settings:normal;text-align:start;writing-mode:lr-tb;text-anchor:start;stroke-width:0.23438279px"
         id="path945"
         inkscape:connector-curvature="0" />
      <path
         d="m 2.5480989,12.154945 h 0.6750712 v 0.214851 H 2.8020135 v 0.596943 H 3.1755611 V 13.18159 H 2.8020135 v 0.643332 h 0.4211566 v 0.214851 H 2.5480989 Z"
         style="font-style:normal;font-variant:normal;font-weight:500;font-stretch:condensed;font-size:2.50008297px;font-family:Futura;-inkscape-font-specification:'Futura, Medium Condensed';font-variant-ligatures:normal;font-variant-caps:normal;font-variant-numeric:normal;font-feature-settings:normal;text-align:start;writing-mode:lr-tb;text-anchor:start;stroke-width:0.23438279px"
         id="path947"
         inkscape:connector-curvature="0" />
      <path
         d="M 4.0850151,12.194009 V 12.44182 Q 3.9690445,12.35881 3.876268,12.35881 q -0.100101,0 -0.1635797,0.0708 -0.063479,0.06714 -0.063479,0.179449 0,0.09888 0.045168,0.169684 0.023194,0.03784 0.075686,0.09766 0.053713,0.05982 0.137944,0.144048 0.1550344,0.157476 0.2111886,0.272226 0.056154,0.111088 0.056154,0.272226 0,0.218513 -0.1232951,0.360119 -0.1232951,0.137944 -0.3161726,0.137944 -0.1623589,0 -0.2771088,-0.08911 V 13.72238 q 0.1355026,0.09888 0.2465902,0.09888 0.1037633,0 0.1623589,-0.06836 0.058596,-0.06958 0.058596,-0.187994 0,-0.102543 -0.045167,-0.184333 -0.023194,-0.03906 -0.064699,-0.08911 -0.041505,-0.05127 -0.1037632,-0.113529 -0.096439,-0.09522 -0.1599174,-0.168463 -0.063479,-0.07324 -0.093997,-0.128178 -0.058596,-0.107425 -0.058596,-0.271005 0,-0.220954 0.1147499,-0.350353 0.1159707,-0.13062 0.3112897,-0.13062 0.1355025,0 0.2587976,0.0647 z"
         style="font-style:normal;font-variant:normal;font-weight:500;font-stretch:condensed;font-size:2.50008297px;font-family:Futura;-inkscape-font-specification:'Futura, Medium Condensed';font-variant-ligatures:normal;font-variant-caps:normal;font-variant-numeric:normal;font-feature-settings:normal;text-align:start;writing-mode:lr-tb;text-anchor:start;stroke-width:0.23438279px"
         id="path949"
         inkscape:connector-curvature="0" />
      <path
         d="m 4.3889802,12.154945 h 0.6750712 v 0.214851 H 4.6428949 v 0.596943 H 5.0164424 V 13.18159 H 4.6428949 v 0.643332 h 0.4211565 v 0.214851 H 4.3889802 Z"
         style="font-style:normal;font-variant:normal;font-weight:500;font-stretch:condensed;font-size:2.50008297px;font-family:Futura;-inkscape-font-specification:'Futura, Medium Condensed';font-variant-ligatures:normal;font-variant-caps:normal;font-variant-numeric:normal;font-feature-settings:normal;text-align:start;writing-mode:lr-tb;text-anchor:start;stroke-width:0.23438279px"
         id="path951"
         inkscape:connector-curvature="0" />
      <path
         d="M 5.1470621,12.154945 H 5.9735056 V 12.37712 H 5.6890723 v 1.662653 H 5.4400406 V 12.37712 H 5.1470621 Z"
         style="font-style:normal;font-variant:normal;font-weight:500;font-stretch:condensed;font-size:2.50008297px;font-family:Futura;-inkscape-font-specification:'Futura, Medium Condensed';font-variant-ligatures:normal;font-variant-caps:normal;font-variant-numeric:normal;font-feature-settings:normal;text-align:start;writing-mode:lr-tb;text-anchor:start;stroke-width:0.23438279px"
         id="path953"
         inkscape:connector-curvature="0" />
    </g>
    <g
       aria-label="PULSE IN"
       transform="matrix(0.95927115,0,0,1.389944,-8.8194402,1.0583262)"
       style="font-style:normal;font-variant:normal;font-weight:500;font-stretch:condensed;font-size:2.0304575px;line-height:1.25;font-family:Futura;-inkscape-font-specification:'Futura, Medium Condensed';font-variant-ligatures:normal;font-variant-caps:normal;font-variant-numeric:normal;font-feature-settings:normal;text-align:start;letter-spacing:0px;word-spacing:0px;writing-mode:lr-tb;text-anchor:start;fill:#000000;fill-opacity:1;stroke:none;stroke-width:0.19035541px;stroke-linecap:butt;stroke-linejoin:miter;stroke-opacity:1"
       id="text907">
      <path
         d="m 20.226579,66.978335 h 0.271653 q 0.196304,0 0.285533,0.09914 0.08923,0.100135 0.08923,0.317259 0,0.305362 -0.17945,0.394591 -0.09022,0.04065 -0.260747,0.04065 v 0.679132 h -0.206219 z m 0.206219,0.675167 q 0.127895,0 0.176475,-0.05156 0.04957,-0.05255 0.04957,-0.18639 0,-0.136817 -0.04759,-0.200269 -0.04759,-0.06345 -0.149707,-0.06345 h -0.02875 z"
         style="font-style:normal;font-variant:normal;font-weight:500;font-stretch:condensed;font-size:2.0304575px;font-family:Futura;-inkscape-font-specification:'Futura, Medium Condensed';font-variant-ligatures:normal;font-variant-caps:normal;font-variant-numeric:normal;font-feature-settings:normal;text-align:start;writing-mode:lr-tb;text-anchor:start;stroke-width:0.19035541px"
         id="path930"
         inkscape:connector-curvature="0" />
      <path
         d="m 21.031624,66.978335 h 0.202253 v 1.081655 q 0,0.165569 0.02974,0.220098 0.03073,0.05453 0.120955,0.05453 0.09022,0 0.118972,-0.04759 0.02974,-0.04858 0.02974,-0.197295 v -1.111398 h 0.202252 v 1.111398 q 0,0.249841 -0.07634,0.338079 -0.09121,0.100135 -0.278593,0.100135 -0.206218,0 -0.29049,-0.128887 -0.0585,-0.08824 -0.0585,-0.33907 z"
         style="font-style:normal;font-variant:normal;font-weight:500;font-stretch:condensed;font-size:2.0304575px;font-family:Futura;-inkscape-font-specification:'Futura, Medium Condensed';font-variant-ligatures:normal;font-variant-caps:normal;font-variant-numeric:normal;font-feature-settings:normal;text-align:start;writing-mode:lr-tb;text-anchor:start;stroke-width:0.19035541px"
         id="path932"
         inkscape:connector-curvature="0" />
      <path
         d="m 21.971504,66.978335 h 0.206218 v 1.356282 h 0.337088 v 0.174492 h -0.543306 z"
         style="font-style:normal;font-variant:normal;font-weight:500;font-stretch:condensed;font-size:2.0304575px;font-family:Futura;-inkscape-font-specification:'Futura, Medium Condensed';font-variant-ligatures:normal;font-variant-caps:normal;font-variant-numeric:normal;font-feature-settings:normal;text-align:start;writing-mode:lr-tb;text-anchor:start;stroke-width:0.19035541px"
         id="path934"
         inkscape:connector-curvature="0" />
      <path
         d="m 23.180062,67.010061 v 0.201261 q -0.09419,-0.06742 -0.169535,-0.06742 -0.0813,0 -0.132852,0.0575 -0.05156,0.05453 -0.05156,0.14574 0,0.08031 0.03668,0.13781 0.01884,0.03073 0.06147,0.07931 0.04362,0.04858 0.112032,0.116989 0.125912,0.127895 0.171518,0.22109 0.04561,0.09022 0.04561,0.22109 0,0.177466 -0.100134,0.292473 -0.100135,0.112032 -0.256782,0.112032 -0.131861,0 -0.225056,-0.07237 v -0.204235 q 0.11005,0.08031 0.20027,0.08031 0.08427,0 0.131861,-0.05552 0.04759,-0.05651 0.04759,-0.15268 0,-0.08328 -0.03668,-0.149707 -0.01884,-0.03173 -0.05255,-0.07238 -0.03371,-0.04164 -0.08427,-0.0922 -0.07832,-0.07733 -0.129878,-0.136818 -0.05155,-0.05949 -0.07634,-0.104101 -0.04759,-0.08725 -0.04759,-0.220098 0,-0.17945 0.09319,-0.284542 0.09419,-0.106083 0.252816,-0.106083 0.110049,0 0.210184,0.05255 z"
         style="font-style:normal;font-variant:normal;font-weight:500;font-stretch:condensed;font-size:2.0304575px;font-family:Futura;-inkscape-font-specification:'Futura, Medium Condensed';font-variant-ligatures:normal;font-variant-caps:normal;font-variant-numeric:normal;font-feature-settings:normal;text-align:start;writing-mode:lr-tb;text-anchor:start;stroke-width:0.19035541px"
         id="path936"
         inkscape:connector-curvature="0" />
      <path
         d="m 23.426929,66.978335 h 0.548264 v 0.174492 h -0.342045 v 0.484812 h 0.303379 v 0.174492 h -0.303379 v 0.522486 h 0.342045 v 0.174492 h -0.548264 z"
         style="font-style:normal;font-variant:normal;font-weight:500;font-stretch:condensed;font-size:2.0304575px;font-family:Futura;-inkscape-font-specification:'Futura, Medium Condensed';font-variant-ligatures:normal;font-variant-caps:normal;font-variant-numeric:normal;font-feature-settings:normal;text-align:start;writing-mode:lr-tb;text-anchor:start;stroke-width:0.19035541px"
         id="path938"
         inkscape:connector-curvature="0" />
      <path
         d="m 24.584925,66.978335 h 0.206218 v 1.530774 h -0.206218 z"
         style="font-style:normal;font-variant:normal;font-weight:500;font-stretch:condensed;font-size:2.0304575px;font-family:Futura;-inkscape-font-specification:'Futura, Medium Condensed';font-variant-ligatures:normal;font-variant-caps:normal;font-variant-numeric:normal;font-feature-settings:normal;text-align:start;writing-mode:lr-tb;text-anchor:start;stroke-width:0.19035541px"
         id="path940"
         inkscape:connector-curvature="0" />
      <path
         d="m 25.029087,66.978335 h 0.192339 l 0.205226,0.610723 q 0.08923,0.258765 0.157638,0.552229 -0.02478,-0.177466 -0.03668,-0.321224 -0.0119,-0.143758 -0.0119,-0.270662 v -0.571066 h 0.20721 v 1.530774 h -0.19333 l -0.231004,-0.689046 q -0.03173,-0.09617 -0.06048,-0.197296 -0.02776,-0.101126 -0.05156,-0.212167 -0.002,-0.01388 -0.0069,-0.03371 -0.004,-0.01983 -0.0099,-0.0456 0.003,0.02578 0.005,0.04461 0.002,0.01785 0.003,0.03073 l 0.01091,0.155655 0.01091,0.189364 q 9.91e-4,0.01586 9.91e-4,0.03867 9.92e-4,0.0228 9.92e-4,0.05155 l 0.0109,0.667235 h -0.203244 z"
         style="font-style:normal;font-variant:normal;font-weight:500;font-stretch:condensed;font-size:2.0304575px;font-family:Futura;-inkscape-font-specification:'Futura, Medium Condensed';font-variant-ligatures:normal;font-variant-caps:normal;font-variant-numeric:normal;font-feature-settings:normal;text-align:start;writing-mode:lr-tb;text-anchor:start;stroke-width:0.19035541px"
         id="path942"
         inkscape:connector-curvature="0" />
    </g>
    <g
       aria-label="O-F"
       style="font-style:normal;font-variant:normal;font-weight:500;font-stretch:condensed;font-size:2.82222223px;line-height:1.25;font-family:Futura;-inkscape-font-specification:'Futura, Medium Condensed';font-variant-ligatures:normal;font-variant-caps:normal;font-variant-numeric:normal;font-feature-settings:normal;text-align:start;letter-spacing:0px;word-spacing:0px;writing-mode:lr-tb;text-anchor:start;fill:#000000;fill-opacity:1;stroke:none;stroke-width:0.26458335px;stroke-linecap:butt;stroke-linejoin:miter;stroke-opacity:1"
       id="text971"
       transform="translate(0,1.0583334)">
      <path
         d="m 2.4308594,94.212336 q 0,0.563618 -0.1254015,0.80064 -0.1254015,0.237023 -0.4203016,0.237023 -0.3100586,0 -0.4368382,-0.254937 -0.1254014,-0.249425 -0.1254014,-0.886079 0,-0.567752 0.1240234,-0.803396 0.1254015,-0.237023 0.4244358,-0.237023 0.2673394,0 0.396875,0.183279 0.085438,0.122646 0.1240234,0.348644 0.038585,0.209462 0.038585,0.611849 z m -0.3004123,0.03032 q 0,-0.552594 -0.049609,-0.733117 -0.049609,-0.181901 -0.2025716,-0.181901 -0.1529623,0 -0.2039497,0.166743 -0.049609,0.168121 -0.049609,0.675239 0,0.467155 0.052366,0.647678 0.053743,0.170876 0.2011936,0.170876 0.144694,0 0.1984375,-0.159852 0.053743,-0.158474 0.053742,-0.585666 z"
         style="font-style:normal;font-variant:normal;font-weight:500;font-stretch:condensed;font-size:2.82222223px;font-family:Futura;-inkscape-font-specification:'Futura, Medium Condensed';font-variant-ligatures:normal;font-variant-caps:normal;font-variant-numeric:normal;font-feature-settings:normal;text-align:start;writing-mode:lr-tb;text-anchor:start;stroke-width:0.26458335px"
         id="path973"
         inkscape:connector-curvature="0" />
      <path
         d="m 2.5521268,94.385969 h 0.5016059 v 0.214974 H 2.5521268 Z"
         style="font-style:normal;font-variant:normal;font-weight:500;font-stretch:condensed;font-size:2.82222223px;font-family:Futura;-inkscape-font-specification:'Futura, Medium Condensed';font-variant-ligatures:normal;font-variant-caps:normal;font-variant-numeric:normal;font-feature-settings:normal;text-align:start;writing-mode:lr-tb;text-anchor:start;stroke-width:0.26458335px"
         id="path975"
         inkscape:connector-curvature="0" />
      <path
         d="M 3.2177193,93.096125 H 3.9839085 V 93.33866 H 3.5043512 v 0.672482 h 0.432704 v 0.242535 h -0.432704 v 0.970139 H 3.2177193 Z"
         style="font-style:normal;font-variant:normal;font-weight:500;font-stretch:condensed;font-size:2.82222223px;font-family:Futura;-inkscape-font-specification:'Futura, Medium Condensed';font-variant-ligatures:normal;font-variant-caps:normal;font-variant-numeric:normal;font-feature-settings:normal;text-align:start;writing-mode:lr-tb;text-anchor:start;stroke-width:0.26458335px"
         id="path977"
         inkscape:connector-curvature="0" />
    </g>
  </g>
</svg>
