<?xml version="1.0" encoding="UTF-8" standalone="no"?>
<!-- Created with Inkscape (http://www.inkscape.org/) -->

<svg
   xmlns:dc="http://purl.org/dc/elements/1.1/"
   xmlns:cc="http://creativecommons.org/ns#"
   xmlns:rdf="http://www.w3.org/1999/02/22-rdf-syntax-ns#"
   xmlns:svg="http://www.w3.org/2000/svg"
   xmlns="http://www.w3.org/2000/svg"
   xmlns:sodipodi="http://sodipodi.sourceforge.net/DTD/sodipodi-0.dtd"
   xmlns:inkscape="http://www.inkscape.org/namespaces/inkscape"
   width="90"
   height="380"
   viewBox="0 0 23.8125 100.54167"
   version="1.1"
   id="svg8"
   inkscape:version="0.92.2 5c3e80d, 2017-08-06"
   sodipodi:docname="Dica33.svg"
   inkscape:export-filename="E:\Users\Martin\Documents\Rack_Source\Rack\plugins\ML-modules\res\Quantum.png"
   inkscape:export-xdpi="96"
   inkscape:export-ydpi="96">
  <sodipodi:namedview
     id="base"
     pagecolor="#ffffff"
     bordercolor="#666666"
     borderopacity="1.0"
     inkscape:pageopacity="0.0"
     inkscape:pageshadow="2"
     inkscape:zoom="0.70710678"
     inkscape:cx="-105.08887"
     inkscape:cy="182.56552"
     inkscape:document-units="px"
     inkscape:current-layer="layer2"
     showgrid="true"
     units="px"
     fit-margin-top="0"
     fit-margin-left="0"
     fit-margin-right="0"
     fit-margin-bottom="0"
     showguides="true"
     inkscape:snap-to-guides="false"
     objecttolerance="20"
     inkscape:window-width="1221"
     inkscape:window-height="767"
     inkscape:window-x="142"
     inkscape:window-y="5"
     inkscape:window-maximized="0"
     gridtolerance="17"
     inkscape:snap-perpendicular="false"
     inkscape:pagecheckerboard="true"
     inkscape:snap-page="false"
     inkscape:snap-text-baseline="true">
    <inkscape:grid
       empspacing="20"
       dotted="false"
       spacingy="0.52916668"
       spacingx="0.52916668"
       originy="100.54167"
       originx="-7.3436628e-018"
       id="grid43"
       type="xygrid" />
  </sodipodi:namedview>
  <defs
     id="defs2">
    <inkscape:perspective
       id="perspective4742"
       inkscape:persp3d-origin="15.875 : 33.51389 : 1"
       inkscape:vp_z="31.75 : 50.270835 : 1"
       inkscape:vp_y="0 : 1000 : 0"
       inkscape:vp_x="0 : 50.270835 : 1"
       sodipodi:type="inkscape:persp3d" />
    <filter
       id="filter1636"
       x="-0.25"
       width="1.5"
       y="-0.25"
       height="1.5"
       inkscape:menu="Non-realistic 3D Shaders"
       inkscape:menu-tooltip="Deep and dark metal shading"
       inkscape:label="Deep Metal"
       style="color-interpolation-filters:sRGB">
      <feGaussianBlur
         id="feGaussianBlur1616"
         in="SourceGraphic"
         stdDeviation="5"
         result="result8" />
      <feComposite
         id="feComposite1618"
         in2="result8"
         operator="xor"
         result="result19" />
      <feComposite
         id="feComposite1620"
         k2="1"
         operator="arithmetic"
         result="result17"
         in2="result8"
         k1="0"
         k3="0"
         k4="0" />
      <feComposite
         id="feComposite1622"
         in2="result17"
         result="result6"
         operator="xor" />
      <feOffset
         id="feOffset1624"
         result="result18"
         in="result6" />
      <feDisplacementMap
         id="feDisplacementMap1626"
         in2="result17"
         in="result18"
         xChannelSelector="A"
         yChannelSelector="A"
         scale="100"
         result="result4" />
      <feComposite
         id="feComposite1628"
         in="result4"
         in2="result4"
         result="result2"
         operator="arithmetic"
         k3="1"
         k1="0"
         k2="0"
         k4="0" />
      <feComposite
         id="feComposite1630"
         in2="result2"
         result="fbSourceGraphic"
         in="result2"
         operator="over" />
      <feComposite
         id="feComposite1632"
         in="fbSourceGraphic"
         in2="SourceGraphic"
         operator="xor"
         result="result15" />
      <feComposite
         id="feComposite1634"
         result="result16"
         in2="result8"
         operator="in"
         in="result15" />
    </filter>
  </defs>
  <metadata
     id="metadata5">
    <rdf:RDF>
      <cc:Work
         rdf:about="">
        <dc:format>image/svg+xml</dc:format>
        <dc:type
           rdf:resource="http://purl.org/dc/dcmitype/StillImage" />
        <dc:title />
      </cc:Work>
    </rdf:RDF>
  </metadata>
  <g
     style="display:inline"
     inkscape:label="Layer 2"
     id="layer2"
     inkscape:groupmode="layer">
    <g
       id="text4720"
       style="font-style:normal;font-variant:normal;font-weight:bold;font-stretch:normal;font-size:19.75555611px;line-height:1.25;font-family:Arial;-inkscape-font-specification:'Arial, Bold';font-variant-ligatures:normal;font-variant-caps:normal;font-variant-numeric:normal;font-feature-settings:normal;text-align:start;letter-spacing:0px;word-spacing:0px;writing-mode:lr-tb;text-anchor:start;fill:#000000;fill-opacity:1;stroke:none;stroke-width:0.26458335"
       aria-label="M" />
    <text
       id="text989"
       y="20.637499"
       x="19.050001"
       style="font-style:normal;font-variant:normal;font-weight:normal;font-stretch:normal;font-size:2.82222247px;line-height:1.25;font-family:Arial;-inkscape-font-specification:'Arial, Normal';font-variant-ligatures:normal;font-variant-caps:normal;font-variant-numeric:normal;font-feature-settings:normal;text-align:start;letter-spacing:0px;word-spacing:0px;writing-mode:lr-tb;text-anchor:start;fill:#000000;fill-opacity:1;stroke:none;stroke-width:0.26458335"
       xml:space="preserve"><tspan
         style="stroke-width:0.26458335"
         y="23.179628"
         x="19.050001"
         id="tspan987"
         sodipodi:role="line" /></text>
    <rect
       ry="0"
       y="55.6404"
       x="-7.9512687"
       height="0"
       width="6.2674704"
       id="rect842"
       style="fill:#ffffff;fill-opacity:1;stroke:none;stroke-width:0.26458335;stroke-opacity:1" />
    <rect
       y="-6.2806193e-06"
       x="0"
       height="100.54167"
       width="23.8125"
       id="rect4689"
       style="fill:#b7c4c8;fill-opacity:1;stroke-width:0.26458335" />
    <g
       transform="translate(-1.4731679e-6,2.3812418)"
       id="g957">
      <g
         id="g947">
        <g
           id="text80"
           style="font-style:normal;font-variant:normal;font-weight:800;font-stretch:condensed;font-size:2.72452211px;line-height:1.25;font-family:Futura;-inkscape-font-specification:'Futura, Ultra-Bold Condensed';font-variant-ligatures:normal;font-variant-caps:normal;font-variant-numeric:normal;font-feature-settings:normal;text-align:start;letter-spacing:0px;word-spacing:0px;writing-mode:lr-tb;text-anchor:start;fill:#e6e6e6;fill-opacity:1;stroke:none;stroke-width:0.25542396px;stroke-linecap:butt;stroke-linejoin:miter;stroke-opacity:1"
           transform="matrix(1.0049776,0,0,0.99504709,0,-1.0583334)"
           aria-label="NYSTHI ">
          <path
             inkscape:connector-curvature="0"
             id="path4726"
             style="font-style:normal;font-variant:normal;font-weight:800;font-stretch:condensed;font-size:2.72452211px;font-family:Futura;-inkscape-font-specification:'Futura, Ultra-Bold Condensed';font-variant-ligatures:normal;font-variant-caps:normal;font-variant-numeric:normal;font-feature-settings:normal;text-align:start;writing-mode:lr-tb;text-anchor:start;fill:#e6e6e6;stroke-width:0.25542396px"
             d="m 7.8981869,98.347198 v -2.054034 h 0.5294725 l 0.2780396,0.721041 q 0.022616,0.06386 0.050553,0.146336 0.029267,0.08248 0.063856,0.190238 l 0.057204,0.180925 Q 8.8467143,97.264307 8.8307503,97.07407 8.8147863,96.883832 8.8147863,96.75479 v -0.461626 h 0.5294726 v 2.054034 H 8.8147863 L 8.5354164,97.591569 q -0.043901,-0.12106 -0.07982,-0.226156 -0.034589,-0.106427 -0.061195,-0.202211 0.017294,0.216844 0.025276,0.377815 0.00798,0.16097 0.00798,0.28203 v 0.524151 z" />
          <path
             inkscape:connector-curvature="0"
             id="path4728"
             style="font-style:normal;font-variant:normal;font-weight:800;font-stretch:condensed;font-size:2.72452211px;font-family:Futura;-inkscape-font-specification:'Futura, Ultra-Bold Condensed';font-variant-ligatures:normal;font-variant-caps:normal;font-variant-numeric:normal;font-feature-settings:normal;text-align:start;writing-mode:lr-tb;text-anchor:start;fill:#e6e6e6;stroke-width:0.25542396px"
             d="M 10.553532,98.347198 H 9.9987828 V 97.477161 L 9.4892652,96.293164 H 10.06796 l 0.09978,0.304647 q 0.02927,0.08913 0.05188,0.171612 0.02395,0.08248 0.04257,0.15831 0.0306,-0.113078 0.05321,-0.194229 0.02262,-0.08248 0.03991,-0.133033 l 0.101105,-0.307307 h 0.574704 l -0.477589,1.183997 z" />
          <path
             inkscape:connector-curvature="0"
             id="path4730"
             style="font-style:normal;font-variant:normal;font-weight:800;font-stretch:condensed;font-size:2.72452211px;font-family:Futura;-inkscape-font-specification:'Futura, Ultra-Bold Condensed';font-variant-ligatures:normal;font-variant-caps:normal;font-variant-numeric:normal;font-feature-settings:normal;text-align:start;writing-mode:lr-tb;text-anchor:start;fill:#e6e6e6;stroke-width:0.25542396px"
             d="m 11.084335,98.296646 v -0.645212 q 0.16363,0.223496 0.353868,0.223496 0.07184,0 0.117069,-0.03725 0.04523,-0.03858 0.04523,-0.09578 0,-0.08248 -0.09845,-0.16097 l -0.09046,-0.07051 q -0.09046,-0.06785 -0.154318,-0.134364 -0.06386,-0.06785 -0.103766,-0.138354 -0.03991,-0.07184 -0.05853,-0.147667 -0.01862,-0.07583 -0.01862,-0.15964 0,-0.143676 0.06652,-0.300655 0.03326,-0.07317 0.07716,-0.133034 0.0439,-0.0612 0.101106,-0.107757 0.156979,-0.133033 0.379145,-0.133033 0.198219,0 0.3991,0.105096 v 0.627917 q -0.06785,-0.105096 -0.154319,-0.164961 -0.08647,-0.06119 -0.170283,-0.06119 -0.06386,0 -0.105096,0.03725 -0.04257,0.03592 -0.04257,0.08647 0,0.08248 0.113079,0.163631 l 0.0878,0.06519 q 0.175604,0.126382 0.251433,0.259415 0.07716,0.133033 0.07716,0.311298 0,0.303316 -0.184916,0.500205 -0.184917,0.196889 -0.468278,0.196889 -0.195559,0 -0.419054,-0.08647 z" />
          <path
             inkscape:connector-curvature="0"
             id="path4732"
             style="font-style:normal;font-variant:normal;font-weight:800;font-stretch:condensed;font-size:2.72452211px;font-family:Futura;-inkscape-font-specification:'Futura, Ultra-Bold Condensed';font-variant-ligatures:normal;font-variant-caps:normal;font-variant-numeric:normal;font-feature-settings:normal;text-align:start;writing-mode:lr-tb;text-anchor:start;fill:#e6e6e6;stroke-width:0.25542396px"
             d="m 13.117084,98.347198 h -0.554749 v -1.561811 h -0.305977 v -0.492223 h 1.178675 v 0.492223 h -0.317949 z" />
          <path
             inkscape:connector-curvature="0"
             id="path4734"
             style="font-style:normal;font-variant:normal;font-weight:800;font-stretch:condensed;font-size:2.72452211px;font-family:Futura;-inkscape-font-specification:'Futura, Ultra-Bold Condensed';font-variant-ligatures:normal;font-variant-caps:normal;font-variant-numeric:normal;font-feature-settings:normal;text-align:start;writing-mode:lr-tb;text-anchor:start;fill:#e6e6e6;stroke-width:0.25542396px"
             d="m 14.955604,98.347198 h -0.554749 v -0.826136 h -0.264737 v 0.826136 H 13.58137 v -2.054034 h 0.554748 v 0.726362 h 0.264737 v -0.726362 h 0.554749 z" />
          <path
             inkscape:connector-curvature="0"
             id="path4736"
             style="font-style:normal;font-variant:normal;font-weight:800;font-stretch:condensed;font-size:2.72452211px;font-family:Futura;-inkscape-font-specification:'Futura, Ultra-Bold Condensed';font-variant-ligatures:normal;font-variant-caps:normal;font-variant-numeric:normal;font-feature-settings:normal;text-align:start;writing-mode:lr-tb;text-anchor:start;fill:#e6e6e6;stroke-width:0.25542396px"
             d="m 15.796374,98.347198 h -0.554749 v -2.054034 h 0.554749 z" />
        </g>
      </g>
    </g>
    <text
       id="text4987"
       y="59.795834"
       x="30.691668"
       style="font-style:normal;font-weight:normal;font-size:10.58333397px;line-height:1.25;font-family:'Bitstream Vera Sans';letter-spacing:0px;word-spacing:0px;fill:#000000;fill-opacity:1;stroke:none;stroke-width:0.26458335px;stroke-linecap:butt;stroke-linejoin:miter;stroke-opacity:1"
       xml:space="preserve"><tspan
         style="stroke-width:0.26458335px"
         y="69.159607"
         x="30.691668"
         id="tspan4985"
         sodipodi:role="line" /></text>
    <text
       xml:space="preserve"
       style="font-style:normal;font-weight:normal;font-size:10.58333397px;line-height:1.25;font-family:'Bitstream Vera Sans';letter-spacing:0px;word-spacing:0px;fill:#000000;fill-opacity:1;stroke:none;stroke-width:0.26458335px;stroke-linecap:butt;stroke-linejoin:miter;stroke-opacity:1"
       x="-36.247917"
       y="57.811459"
       id="text1042"><tspan
         sodipodi:role="line"
         id="tspan1040"
         x="-36.247917"
         y="67.175232"
         style="stroke-width:0.26458335px" /></text>
    <g
       id="g1328"
       transform="translate(-6.35,72.127919)">
      <rect
         ry="1.3096442"
         y="9.3636513"
         x="7.4083333"
         height="11.112597"
         width="8.9958334"
         id="rect4778-3-6-0-3"
         style="display:inline;fill:#b3b3b3;fill-opacity:1;stroke:none;stroke-width:0.40818104;stroke-opacity:1" />
      <g
         transform="translate(1.0652223)"
         id="g1322">
        <path
           inkscape:connector-curvature="0"
           id="path4701-3"
           style="font-style:normal;font-variant:normal;font-weight:800;font-stretch:condensed;font-size:2.82222223px;line-height:1.25;font-family:Futura;-inkscape-font-specification:'Futura, Ultra-Bold Condensed';font-variant-ligatures:normal;font-variant-caps:normal;font-variant-numeric:normal;font-feature-settings:normal;text-align:start;letter-spacing:0px;word-spacing:0px;writing-mode:lr-tb;text-anchor:start;fill:#ffffff;fill-opacity:1;stroke:none;stroke-width:0.26458335px;stroke-linecap:butt;stroke-linejoin:miter;stroke-opacity:1"
           d="M 10.355956,18.359485 H 9.8019847 v -1.48966 h 0.5539713 z m 0.04685,-1.951302 q 0,0.130913 -0.09508,0.225998 -0.09784,0.09371 -0.227376,0.09371 -0.13367,0 -0.2287546,-0.09508 -0.093707,-0.09784 -0.093707,-0.228755 0,-0.133669 0.093707,-0.227376 0.097841,-0.09371 0.2273766,-0.09371 0.136426,0 0.230132,0.09508 0.09371,0.09371 0.09371,0.230133 z" />
        <path
           inkscape:connector-curvature="0"
           id="path4703-8"
           style="font-style:normal;font-variant:normal;font-weight:800;font-stretch:condensed;font-size:2.82222223px;line-height:1.25;font-family:Futura;-inkscape-font-specification:'Futura, Ultra-Bold Condensed';font-variant-ligatures:normal;font-variant-caps:normal;font-variant-numeric:normal;font-feature-settings:normal;text-align:start;letter-spacing:0px;word-spacing:0px;writing-mode:lr-tb;text-anchor:start;fill:#ffffff;fill-opacity:1;stroke:none;stroke-width:0.26458335px;stroke-linecap:butt;stroke-linejoin:miter;stroke-opacity:1"
           d="M 11.924164,18.359485 H 11.37157 v -0.788238 q 0,-0.101975 -0.02067,-0.141938 -0.01929,-0.03996 -0.0689,-0.03996 -0.115755,0 -0.115755,0.219108 v 0.751031 h -0.552594 v -1.48966 h 0.552593 q -0.0014,0.05512 -0.0028,0.101975 -0.0014,0.04685 -0.0041,0.08682 l -0.0055,0.09508 q 0.133669,-0.31557 0.391362,-0.31557 0.179145,0 0.278364,0.133669 0.100597,0.13367 0.100597,0.372071 z" />
      </g>
    </g>
    <g
       id="g1364"
       transform="translate(6.3500003,-4.6012485)">
      <rect
         ry="1.3096442"
         y="86.092819"
         x="7.4083333"
         height="11.112597"
         width="8.9958334"
         id="rect4778-8"
         style="fill:#3c3c3c;fill-opacity:1;stroke:none;stroke-width:0.40818104;stroke-opacity:1" />
      <g
         transform="translate(1.0114797)"
         id="g1357">
        <path
           id="path4899"
           style="font-style:normal;font-variant:normal;font-weight:800;font-stretch:condensed;font-size:2.82222223px;line-height:1.25;font-family:Futura;-inkscape-font-specification:'Futura, Ultra-Bold Condensed';font-variant-ligatures:normal;font-variant-caps:normal;font-variant-numeric:normal;font-feature-settings:normal;text-align:start;letter-spacing:0px;word-spacing:0px;writing-mode:lr-tb;text-anchor:start;fill:#ffffff;fill-opacity:1;stroke:none;stroke-width:0.26458335px;stroke-linecap:butt;stroke-linejoin:miter;stroke-opacity:1"
           d="m 10.278787,95.424911 q 0,0.344509 -0.190169,0.548459 -0.1901696,0.20395 -0.5098745,0.20395 -0.3141927,0 -0.5002278,-0.208084 -0.1846572,-0.209462 -0.1846572,-0.56224 0,-0.352777 0.1887913,-0.566373 0.1874132,-0.214974 0.4974718,-0.214974 0.326595,0 0.5126304,0.213596 0.186035,0.213596 0.186035,0.585666 z m -0.5360569,-0.01791 q 0,-0.08268 -0.011024,-0.148828 -0.011024,-0.06752 -0.031695,-0.114377 -0.020671,-0.04823 -0.049609,-0.07441 -0.028939,-0.02618 -0.064768,-0.02618 -0.07028,0 -0.1129991,0.09922 -0.042719,0.08682 -0.042719,0.260449 0,0.170877 0.042719,0.26045 0.042719,0.09922 0.1143772,0.09922 0.067524,0 0.1116211,-0.09784 0.044097,-0.108865 0.044097,-0.257694 z"
           inkscape:connector-curvature="0" />
        <path
           id="path4901"
           style="font-style:normal;font-variant:normal;font-weight:800;font-stretch:condensed;font-size:2.82222223px;line-height:1.25;font-family:Futura;-inkscape-font-specification:'Futura, Ultra-Bold Condensed';font-variant-ligatures:normal;font-variant-caps:normal;font-variant-numeric:normal;font-feature-settings:normal;text-align:start;letter-spacing:0px;word-spacing:0px;writing-mode:lr-tb;text-anchor:start;fill:#ffffff;fill-opacity:1;stroke:none;stroke-width:0.26458335px;stroke-linecap:butt;stroke-linejoin:miter;stroke-opacity:1"
           d="m 10.491005,94.657344 h 0.552593 v 0.839225 q 0,0.119889 0.02343,0.175011 0.02481,0.04547 0.09371,0.04547 0.06752,0 0.09095,-0.04547 0.02481,-0.04548 0.02481,-0.175011 v -0.839225 h 0.552594 v 0.913639 q 0,0.09095 -0.01516,0.165365 -0.01378,0.07304 -0.04548,0.133669 -0.03032,0.05926 -0.07993,0.108865 -0.04823,0.04961 -0.115756,0.09095 -0.181901,0.107487 -0.412033,0.107487 -0.232889,0 -0.412033,-0.107487 -0.0689,-0.04134 -0.118512,-0.08957 -0.04823,-0.04961 -0.07993,-0.110243 -0.03032,-0.06063 -0.04547,-0.133669 -0.01378,-0.07441 -0.01378,-0.165365 z"
           inkscape:connector-curvature="0" />
        <path
           id="path4903"
           style="font-style:normal;font-variant:normal;font-weight:800;font-stretch:condensed;font-size:2.82222223px;line-height:1.25;font-family:Futura;-inkscape-font-specification:'Futura, Ultra-Bold Condensed';font-variant-ligatures:normal;font-variant-caps:normal;font-variant-numeric:normal;font-feature-settings:normal;text-align:start;letter-spacing:0px;word-spacing:0px;writing-mode:lr-tb;text-anchor:start;fill:#ffffff;fill-opacity:1;stroke:none;stroke-width:0.26458335px;stroke-linecap:butt;stroke-linejoin:miter;stroke-opacity:1"
           d="M 12.712403,96.147003 H 12.158431 V 95.10245 h -0.157096 v -0.445106 h 0.157096 v -0.438216 h 0.553972 v 0.438216 h 0.183279 v 0.445106 h -0.183279 z"
           inkscape:connector-curvature="0" />
      </g>
    </g>
    <g
       aria-label="RISORSTORE"
       style="font-style:normal;font-variant:normal;font-weight:500;font-stretch:condensed;font-size:4.23333359px;line-height:1.25;font-family:Futura;-inkscape-font-specification:'Futura, Medium Condensed';font-variant-ligatures:normal;font-variant-caps:normal;font-variant-numeric:normal;font-feature-settings:normal;text-align:start;letter-spacing:0px;word-spacing:0px;writing-mode:lr-tb;text-anchor:start;fill:#000000;fill-opacity:1;stroke:none;stroke-width:0.26458335px;stroke-linecap:butt;stroke-linejoin:miter;stroke-opacity:1"
       id="text1386">
      <path
         d="m 3.8560949,17.935857 h 0.5663737 q 0.3513998,0 0.5229655,0.167432 0.2170411,0.217041 0.2170411,0.663525 0,0.343132 -0.1157552,0.551904 -0.1136882,0.206706 -0.3265951,0.256316 l 0.5870443,1.55236 H 4.8710201 L 4.2860428,19.564698 v 1.562696 H 3.8560949 Z m 0.4299479,1.413867 q 0.250114,0 0.3534668,-0.115755 0.1033529,-0.115755 0.1033529,-0.390674 0,-0.148828 -0.022738,-0.254248 -0.020671,-0.10542 -0.068213,-0.171566 -0.045475,-0.06614 -0.1198893,-0.09715 -0.072347,-0.03101 -0.1736329,-0.03101 h -0.072347 z"
         style="font-style:normal;font-variant:normal;font-weight:500;font-stretch:condensed;font-size:4.23333359px;font-family:Futura;-inkscape-font-specification:'Futura, Medium Condensed';font-variant-ligatures:normal;font-variant-caps:normal;font-variant-numeric:normal;font-feature-settings:normal;text-align:start;writing-mode:lr-tb;text-anchor:start;stroke-width:0.26458335px"
         id="path1431"
         inkscape:connector-curvature="0" />
      <path
         d="m 5.6420324,17.935857 h 0.429948 v 3.191537 h -0.429948 z"
         style="font-style:normal;font-variant:normal;font-weight:500;font-stretch:condensed;font-size:4.23333359px;font-family:Futura;-inkscape-font-specification:'Futura, Medium Condensed';font-variant-ligatures:normal;font-variant-caps:normal;font-variant-numeric:normal;font-feature-settings:normal;text-align:start;writing-mode:lr-tb;text-anchor:start;stroke-width:0.26458335px"
         id="path1433"
         inkscape:connector-curvature="0" />
      <path
         d="m 7.6326088,18.002003 v 0.419613 q -0.1963704,-0.14056 -0.3534668,-0.14056 -0.1694987,0 -0.2769857,0.119889 -0.107487,0.113688 -0.107487,0.303857 0,0.167432 0.076481,0.287321 0.039274,0.06408 0.1281575,0.165365 0.090951,0.101286 0.2335775,0.243913 0.2625163,0.26665 0.3576009,0.460954 0.095085,0.188102 0.095085,0.460953 0,0.370004 -0.2087728,0.609782 -0.2087728,0.233578 -0.5353679,0.233578 -0.2749186,0 -0.469222,-0.150895 v -0.425814 q 0.2294434,0.167431 0.4175456,0.167431 0.1756999,0 0.2749186,-0.115755 0.099219,-0.117822 0.099219,-0.318327 0,-0.173632 -0.076481,-0.312125 -0.039274,-0.06615 -0.1095541,-0.150895 -0.07028,-0.08682 -0.1756999,-0.192237 -0.1632975,-0.16123 -0.2707845,-0.285254 -0.107487,-0.124023 -0.1591634,-0.217041 -0.099219,-0.181901 -0.099219,-0.458887 0,-0.374137 0.1943034,-0.593245 0.1963705,-0.221175 0.5270997,-0.221175 0.2294433,0 0.4382159,0.109554 z"
         style="font-style:normal;font-variant:normal;font-weight:500;font-stretch:condensed;font-size:4.23333359px;font-family:Futura;-inkscape-font-specification:'Futura, Medium Condensed';font-variant-ligatures:normal;font-variant-caps:normal;font-variant-numeric:normal;font-feature-settings:normal;text-align:start;writing-mode:lr-tb;text-anchor:start;stroke-width:0.26458335px"
         id="path1435"
         inkscape:connector-curvature="0" />
      <path
         d="m 9.7451414,19.610174 q 0,0.845426 -0.1881022,1.20096 -0.1881023,0.355534 -0.6304525,0.355534 -0.465088,0 -0.6552572,-0.382406 -0.1881023,-0.374137 -0.1881023,-1.329118 0,-0.851627 0.1860352,-1.205094 0.1881022,-0.355534 0.6366537,-0.355534 0.4010091,0 0.5953125,0.274919 0.1281576,0.183968 0.1860352,0.522965 0.057878,0.314193 0.057878,0.917774 z m -0.4506185,0.04547 q 0,-0.82889 -0.074414,-1.099675 -0.074414,-0.272851 -0.3038574,-0.272851 -0.2294434,0 -0.3059245,0.250114 -0.074414,0.252181 -0.074414,1.012858 0,0.700732 0.078548,0.971517 0.080615,0.256315 0.3017904,0.256315 0.217041,0 0.2976562,-0.239779 0.080615,-0.237711 0.080615,-0.878499 z"
         style="font-style:normal;font-variant:normal;font-weight:500;font-stretch:condensed;font-size:4.23333359px;font-family:Futura;-inkscape-font-specification:'Futura, Medium Condensed';font-variant-ligatures:normal;font-variant-caps:normal;font-variant-numeric:normal;font-feature-settings:normal;text-align:start;writing-mode:lr-tb;text-anchor:start;stroke-width:0.26458335px"
         id="path1437"
         inkscape:connector-curvature="0" />
      <path
         d="m 10.173022,17.935857 h 0.566374 q 0.3514,0 0.522966,0.167432 0.217041,0.217041 0.217041,0.663525 0,0.343132 -0.115756,0.551904 -0.113688,0.206706 -0.326595,0.256316 l 0.587045,1.55236 H 11.187948 L 10.60297,19.564698 v 1.562696 h -0.429948 z m 0.429948,1.413867 q 0.250114,0 0.353467,-0.115755 0.103353,-0.115755 0.103353,-0.390674 0,-0.148828 -0.02274,-0.254248 -0.02067,-0.10542 -0.06821,-0.171566 -0.04547,-0.06614 -0.119889,-0.09715 -0.07235,-0.03101 -0.173633,-0.03101 h -0.07235 z"
         style="font-style:normal;font-variant:normal;font-weight:500;font-stretch:condensed;font-size:4.23333359px;font-family:Futura;-inkscape-font-specification:'Futura, Medium Condensed';font-variant-ligatures:normal;font-variant-caps:normal;font-variant-numeric:normal;font-feature-settings:normal;text-align:start;writing-mode:lr-tb;text-anchor:start;stroke-width:0.26458335px"
         id="path1439"
         inkscape:connector-curvature="0" />
      <path
         d="m 13.023495,18.002003 v 0.419613 q -0.196371,-0.14056 -0.353467,-0.14056 -0.169499,0 -0.276986,0.119889 -0.107487,0.113688 -0.107487,0.303857 0,0.167432 0.07648,0.287321 0.03927,0.06408 0.128158,0.165365 0.09095,0.101286 0.233577,0.243913 0.262517,0.26665 0.357601,0.460954 0.09508,0.188102 0.09508,0.460953 0,0.370004 -0.208773,0.609782 -0.208773,0.233578 -0.535368,0.233578 -0.274918,0 -0.469222,-0.150895 v -0.425814 q 0.229444,0.167431 0.417546,0.167431 0.1757,0 0.274918,-0.115755 0.09922,-0.117822 0.09922,-0.318327 0,-0.173632 -0.07648,-0.312125 -0.03927,-0.06615 -0.109554,-0.150895 -0.07028,-0.08682 -0.1757,-0.192237 -0.163297,-0.16123 -0.270784,-0.285254 -0.107487,-0.124023 -0.159164,-0.217041 -0.09922,-0.181901 -0.09922,-0.458887 0,-0.374137 0.194304,-0.593245 0.19637,-0.221175 0.527099,-0.221175 0.229444,0 0.438217,0.109554 z"
         style="font-style:normal;font-variant:normal;font-weight:500;font-stretch:condensed;font-size:4.23333359px;font-family:Futura;-inkscape-font-specification:'Futura, Medium Condensed';font-variant-ligatures:normal;font-variant-caps:normal;font-variant-numeric:normal;font-feature-settings:normal;text-align:start;writing-mode:lr-tb;text-anchor:start;stroke-width:0.26458335px"
         id="path1441"
         inkscape:connector-curvature="0" />
      <path
         d="m 13.333553,17.935857 h 1.399398 v 0.376205 h -0.481624 v 2.815332 h -0.42168 v -2.815332 h -0.496094 z"
         style="font-style:normal;font-variant:normal;font-weight:500;font-stretch:condensed;font-size:4.23333359px;font-family:Futura;-inkscape-font-specification:'Futura, Medium Condensed';font-variant-ligatures:normal;font-variant-caps:normal;font-variant-numeric:normal;font-feature-settings:normal;text-align:start;writing-mode:lr-tb;text-anchor:start;stroke-width:0.26458335px"
         id="path1443"
         inkscape:connector-curvature="0" />
      <path
         d="m 16.599504,19.610174 q 0,0.845426 -0.188102,1.20096 -0.188103,0.355534 -0.630453,0.355534 -0.465088,0 -0.655257,-0.382406 -0.188102,-0.374137 -0.188102,-1.329118 0,-0.851627 0.186035,-1.205094 0.188102,-0.355534 0.636654,-0.355534 0.401009,0 0.595312,0.274919 0.128158,0.183968 0.186035,0.522965 0.05788,0.314193 0.05788,0.917774 z m -0.450619,0.04547 q 0,-0.82889 -0.07441,-1.099675 -0.07441,-0.272851 -0.303857,-0.272851 -0.229444,0 -0.305925,0.250114 -0.07441,0.252181 -0.07441,1.012858 0,0.700732 0.07855,0.971517 0.08062,0.256315 0.301791,0.256315 0.217041,0 0.297656,-0.239779 0.08062,-0.237711 0.08062,-0.878499 z"
         style="font-style:normal;font-variant:normal;font-weight:500;font-stretch:condensed;font-size:4.23333359px;font-family:Futura;-inkscape-font-specification:'Futura, Medium Condensed';font-variant-ligatures:normal;font-variant-caps:normal;font-variant-numeric:normal;font-feature-settings:normal;text-align:start;writing-mode:lr-tb;text-anchor:start;stroke-width:0.26458335px"
         id="path1445"
         inkscape:connector-curvature="0" />
      <path
         d="m 17.027384,17.935857 h 0.566374 q 0.3514,0 0.522966,0.167432 0.217041,0.217041 0.217041,0.663525 0,0.343132 -0.115756,0.551904 -0.113688,0.206706 -0.326595,0.256316 l 0.587045,1.55236 H 18.04231 l -0.584978,-1.562696 v 1.562696 h -0.429948 z m 0.429948,1.413867 q 0.250114,0 0.353467,-0.115755 0.103353,-0.115755 0.103353,-0.390674 0,-0.148828 -0.02274,-0.254248 -0.02067,-0.10542 -0.06821,-0.171566 -0.04547,-0.06614 -0.119889,-0.09715 -0.07235,-0.03101 -0.173633,-0.03101 h -0.07235 z"
         style="font-style:normal;font-variant:normal;font-weight:500;font-stretch:condensed;font-size:4.23333359px;font-family:Futura;-inkscape-font-specification:'Futura, Medium Condensed';font-variant-ligatures:normal;font-variant-caps:normal;font-variant-numeric:normal;font-feature-settings:normal;text-align:start;writing-mode:lr-tb;text-anchor:start;stroke-width:0.26458335px"
         id="path1447"
         inkscape:connector-curvature="0" />
      <path
         d="m 18.813323,17.935857 h 1.143082 v 0.363802 h -0.713134 v 1.010791 h 0.632519 v 0.363802 h -0.632519 v 1.08934 h 0.713134 v 0.363802 h -1.143082 z"
         style="font-style:normal;font-variant:normal;font-weight:500;font-stretch:condensed;font-size:4.23333359px;font-family:Futura;-inkscape-font-specification:'Futura, Medium Condensed';font-variant-ligatures:normal;font-variant-caps:normal;font-variant-numeric:normal;font-feature-settings:normal;text-align:start;writing-mode:lr-tb;text-anchor:start;stroke-width:0.26458335px"
         id="path1449"
         inkscape:connector-curvature="0" />
    </g>
    <g
       aria-label="CUTOFF"
       style="font-style:normal;font-variant:normal;font-weight:500;font-stretch:condensed;font-size:4.23333359px;line-height:1.25;font-family:Futura;-inkscape-font-specification:'Futura, Medium Condensed';font-variant-ligatures:normal;font-variant-caps:normal;font-variant-numeric:normal;font-feature-settings:normal;text-align:start;letter-spacing:0px;word-spacing:0px;writing-mode:lr-tb;text-anchor:start;fill:#000000;fill-opacity:1;stroke:none;stroke-width:0.26458335px;stroke-linecap:butt;stroke-linejoin:miter;stroke-opacity:1"
       id="text1408">
      <path
         d="m 8.3705482,49.737532 v 0.386539 q -0.1653646,-0.08062 -0.2769857,-0.08062 -0.1529623,0 -0.2625163,0.07648 -0.109554,0.07441 -0.1819011,0.231511 -0.07028,0.157096 -0.1054199,0.398942 -0.033073,0.239778 -0.033073,0.568441 0,1.182356 0.6056478,1.182356 0.1054199,0 0.2542481,-0.06614 v 0.394807 q -0.1550293,0.08682 -0.3472657,0.08682 -0.9694499,0 -0.9694499,-1.583366 0,-0.855762 0.2356446,-1.273307 0.2377116,-0.417546 0.7255371,-0.417546 0.179834,0 0.3555339,0.09509 z"
         style="font-style:normal;font-variant:normal;font-weight:500;font-stretch:condensed;font-size:4.23333359px;font-family:Futura;-inkscape-font-specification:'Futura, Medium Condensed';font-variant-ligatures:normal;font-variant-caps:normal;font-variant-numeric:normal;font-feature-settings:normal;text-align:start;writing-mode:lr-tb;text-anchor:start;stroke-width:0.26458335px"
         id="path1418"
         inkscape:connector-curvature="0" />
      <path
         d="m 8.7302162,49.685855 h 0.4216797 v 2.25516 q 0,0.345198 0.062012,0.458887 0.064079,0.113688 0.252181,0.113688 0.1881023,0 0.2480469,-0.09922 0.062012,-0.101286 0.062012,-0.411344 v -2.317172 h 0.4216802 v 2.317172 q 0,0.520898 -0.159163,0.704866 -0.1901701,0.208773 -0.580844,0.208773 -0.4299479,0 -0.6056478,-0.268718 -0.121957,-0.183967 -0.121957,-0.706932 z"
         style="font-style:normal;font-variant:normal;font-weight:500;font-stretch:condensed;font-size:4.23333359px;font-family:Futura;-inkscape-font-specification:'Futura, Medium Condensed';font-variant-ligatures:normal;font-variant-caps:normal;font-variant-numeric:normal;font-feature-settings:normal;text-align:start;writing-mode:lr-tb;text-anchor:start;stroke-width:0.26458335px"
         id="path1420"
         inkscape:connector-curvature="0" />
      <path
         d="m 10.435538,49.685855 h 1.399398 v 0.376205 h -0.481624 v 2.815332 h -0.42168 V 50.06206 h -0.496094 z"
         style="font-style:normal;font-variant:normal;font-weight:500;font-stretch:condensed;font-size:4.23333359px;font-family:Futura;-inkscape-font-specification:'Futura, Medium Condensed';font-variant-ligatures:normal;font-variant-caps:normal;font-variant-numeric:normal;font-feature-settings:normal;text-align:start;writing-mode:lr-tb;text-anchor:start;stroke-width:0.26458335px"
         id="path1422"
         inkscape:connector-curvature="0" />
      <path
         d="m 13.701489,51.360172 q 0,0.845426 -0.188102,1.20096 -0.188102,0.355534 -0.630452,0.355534 -0.465088,0 -0.655258,-0.382406 -0.188102,-0.374137 -0.188102,-1.329118 0,-0.851627 0.186035,-1.205094 0.188103,-0.355534 0.636654,-0.355534 0.401009,0 0.595313,0.274919 0.128157,0.183968 0.186035,0.522965 0.05788,0.314193 0.05788,0.917774 z m -0.450618,0.04548 q 0,-0.82889 -0.07441,-1.099675 -0.07441,-0.272851 -0.303858,-0.272851 -0.229443,0 -0.305924,0.250114 -0.07441,0.252181 -0.07441,1.012858 0,0.700732 0.07855,0.971517 0.08061,0.256315 0.30179,0.256315 0.217041,0 0.297657,-0.239779 0.08061,-0.237711 0.08061,-0.878499 z"
         style="font-style:normal;font-variant:normal;font-weight:500;font-stretch:condensed;font-size:4.23333359px;font-family:Futura;-inkscape-font-specification:'Futura, Medium Condensed';font-variant-ligatures:normal;font-variant-caps:normal;font-variant-numeric:normal;font-feature-settings:normal;text-align:start;writing-mode:lr-tb;text-anchor:start;stroke-width:0.26458335px"
         id="path1424"
         inkscape:connector-curvature="0" />
      <path
         d="m 14.12937,49.685855 h 1.149284 v 0.363802 h -0.719336 v 1.008724 h 0.649056 v 0.363802 h -0.649056 v 1.455209 H 14.12937 Z"
         style="font-style:normal;font-variant:normal;font-weight:500;font-stretch:condensed;font-size:4.23333359px;font-family:Futura;-inkscape-font-specification:'Futura, Medium Condensed';font-variant-ligatures:normal;font-variant-caps:normal;font-variant-numeric:normal;font-feature-settings:normal;text-align:start;writing-mode:lr-tb;text-anchor:start;stroke-width:0.26458335px"
         id="path1426"
         inkscape:connector-curvature="0" />
      <path
         d="m 15.609384,49.685855 h 1.149284 v 0.363802 h -0.719336 v 1.008724 h 0.649056 v 0.363802 h -0.649056 v 1.455209 h -0.429948 z"
         style="font-style:normal;font-variant:normal;font-weight:500;font-stretch:condensed;font-size:4.23333359px;font-family:Futura;-inkscape-font-specification:'Futura, Medium Condensed';font-variant-ligatures:normal;font-variant-caps:normal;font-variant-numeric:normal;font-feature-settings:normal;text-align:start;writing-mode:lr-tb;text-anchor:start;stroke-width:0.26458335px"
         id="path1428"
         inkscape:connector-curvature="0" />
    </g>
    <g
       aria-label="DICA33"
       style="font-style:normal;font-weight:normal;font-size:10.58333397px;line-height:1.25;font-family:'Bitstream Vera Sans';letter-spacing:0px;word-spacing:0px;fill:#000000;fill-opacity:1;stroke:none;stroke-width:0.26458335px;stroke-linecap:butt;stroke-linejoin:miter;stroke-opacity:1"
       id="text1324">
      <path
         d="M 5.281331,4.7066894 V 1.5151527 h 0.7441407 q 0.6387207,0 0.9942546,0.3431315 0.4671549,0.4485515 0.4671549,1.2547039 0,0.79375 -0.3948079,1.225765 Q 6.7551429,4.7066894 6.0874834,4.7066894 Z M 6.1432939,3.9356769 q 0.4630209,-0.022738 0.4630209,-0.7978841 0,-0.3824056 -0.1178223,-0.6035808 Q 6.3706702,2.3109698 6.1701657,2.3109698 h -0.026872 z"
         style="font-style:normal;font-variant:normal;font-weight:800;font-stretch:condensed;font-size:4.23333359px;font-family:Futura;-inkscape-font-specification:'Futura, Ultra-Bold Condensed';font-variant-ligatures:normal;font-variant-caps:normal;font-variant-numeric:normal;font-feature-settings:normal;text-align:start;writing-mode:lr-tb;text-anchor:start;stroke-width:0.26458335px"
         id="path1326"
         inkscape:connector-curvature="0" />
      <path
         d="M 8.7147134,4.7066894 H 7.8527505 V 1.5151527 h 0.8619629 z"
         style="font-style:normal;font-variant:normal;font-weight:800;font-stretch:condensed;font-size:4.23333359px;font-family:Futura;-inkscape-font-specification:'Futura, Ultra-Bold Condensed';font-variant-ligatures:normal;font-variant-caps:normal;font-variant-numeric:normal;font-feature-settings:normal;text-align:start;writing-mode:lr-tb;text-anchor:start;stroke-width:0.26458335px"
         id="path1328"
         inkscape:connector-curvature="0" />
      <path
         d="m 10.953337,3.7248371 -0.04961,0.9219076 q -0.287321,0.1157552 -0.514697,0.1157552 -0.535368,0 -0.9012371,-0.3927409 -0.4092774,-0.4402832 -0.4092774,-1.2464356 0,-0.754476 0.3844727,-1.2112957 0.3844726,-0.4547526 1.0273278,-0.4547526 0.208773,0 0.425814,0.078548 v 0.9115723 q -0.192237,-0.1922363 -0.394808,-0.1922363 -0.264584,0 -0.413412,0.2253092 -0.1488281,0.2273763 -0.1488281,0.6283855 0,0.1943034 0.037207,0.3472656 0.037207,0.1529623 0.1054201,0.2583822 0.07028,0.1054199 0.171566,0.1612305 0.101285,0.05581 0.23151,0.05581 0.223242,0 0.448552,-0.206705 z"
         style="font-style:normal;font-variant:normal;font-weight:800;font-stretch:condensed;font-size:4.23333359px;font-family:Futura;-inkscape-font-specification:'Futura, Ultra-Bold Condensed';font-variant-ligatures:normal;font-variant-caps:normal;font-variant-numeric:normal;font-feature-settings:normal;text-align:start;writing-mode:lr-tb;text-anchor:start;stroke-width:0.26458335px"
         id="path1330"
         inkscape:connector-curvature="0" />
      <path
         d="M 13.640512,4.7066894 H 12.74961 L 12.68553,4.3015461 h -0.580843 l -0.07028,0.4051433 h -0.890902 l 0.766878,-3.1915367 h 1.0542 z M 12.584245,3.6173501 12.528435,3.2452798 q -0.0021,-0.00207 -0.0083,-0.055811 -0.0041,-0.045475 -0.04341,-0.359668 -0.0041,-0.03514 -0.01033,-0.095085 -0.0062,-0.062012 -0.01654,-0.1550293 l -0.02687,-0.3017904 q -0.0041,0.043408 -0.0124,0.097152 -0.0062,0.053743 -0.01447,0.1178223 -0.01447,0.1281575 -0.02067,0.1777669 -0.0062,0.049609 -0.0083,0.059945 l -0.05994,0.3865397 -0.08682,0.5002279 z"
         style="font-style:normal;font-variant:normal;font-weight:800;font-stretch:condensed;font-size:4.23333359px;font-family:Futura;-inkscape-font-specification:'Futura, Ultra-Bold Condensed';font-variant-ligatures:normal;font-variant-caps:normal;font-variant-numeric:normal;font-feature-settings:normal;text-align:start;writing-mode:lr-tb;text-anchor:start;stroke-width:0.26458335px"
         id="path1332"
         inkscape:connector-curvature="0" />
      <path
         d="m 13.853418,3.7682453 h 0.841293 q 0,0.287321 0.21084,0.287321 0.105419,0 0.171565,-0.080615 0.06615,-0.082682 0.06615,-0.2149739 0,-0.3369304 -0.3514,-0.3369304 -0.0248,0 -0.06201,0.00413 -0.03721,0.00207 -0.08475,0.0062 V 2.7533201 q 0.03514,0.00207 0.05994,0.00413 0.02687,0 0.04341,0 0.353467,0 0.353467,-0.324528 0,-0.2645833 -0.183968,-0.2645833 -0.144694,0 -0.165365,0.2129069 l -0.0041,0.043408 h -0.83306 q 0.03514,-0.4464844 0.312126,-0.7048666 0.274918,-0.2625163 0.721403,-0.2625163 0.425814,0 0.706933,0.2687175 0.287321,0.2666504 0.287321,0.6593913 0,0.4402832 -0.386539,0.6717936 0.427881,0.2459799 0.427881,0.7400066 0,0.4278809 -0.303858,0.6965983 -0.299723,0.2687175 -0.779281,0.2687175 -0.469222,0 -0.756543,-0.2625163 -0.291455,-0.2625163 -0.291455,-0.684196 z"
         style="font-style:normal;font-variant:normal;font-weight:800;font-stretch:condensed;font-size:4.23333359px;font-family:Futura;-inkscape-font-specification:'Futura, Ultra-Bold Condensed';font-variant-ligatures:normal;font-variant-caps:normal;font-variant-numeric:normal;font-feature-settings:normal;text-align:start;writing-mode:lr-tb;text-anchor:start;stroke-width:0.26458335px"
         id="path1334"
         inkscape:connector-curvature="0" />
      <path
         d="m 16.400033,3.7682453 h 0.841292 q 0,0.287321 0.21084,0.287321 0.10542,0 0.171566,-0.080615 0.06615,-0.082682 0.06615,-0.2149739 0,-0.3369304 -0.3514,-0.3369304 -0.02481,0 -0.06201,0.00413 -0.03721,0.00207 -0.08475,0.0062 V 2.7533201 q 0.03514,0.00207 0.05994,0.00413 0.02687,0 0.04341,0 0.353467,0 0.353467,-0.324528 0,-0.2645833 -0.183968,-0.2645833 -0.144694,0 -0.165365,0.2129069 l -0.0041,0.043408 h -0.833024 q 0.03514,-0.4464844 0.312125,-0.7048666 0.274919,-0.2625163 0.721403,-0.2625163 0.425814,0 0.706934,0.2687175 0.287321,0.2666504 0.287321,0.6593913 0,0.4402832 -0.38654,0.6717936 0.427881,0.2459799 0.427881,0.7400066 0,0.4278809 -0.303857,0.6965983 -0.299724,0.2687175 -0.779281,0.2687175 -0.469222,0 -0.756543,-0.2625163 -0.291455,-0.2625163 -0.291455,-0.684196 z"
         style="font-style:normal;font-variant:normal;font-weight:800;font-stretch:condensed;font-size:4.23333359px;font-family:Futura;-inkscape-font-specification:'Futura, Ultra-Bold Condensed';font-variant-ligatures:normal;font-variant-caps:normal;font-variant-numeric:normal;font-feature-settings:normal;text-align:start;writing-mode:lr-tb;text-anchor:start;stroke-width:0.26458335px"
         id="path1336"
         inkscape:connector-curvature="0" />
    </g>
  </g>
</svg>
