<?xml version="1.0" encoding="UTF-8" standalone="no"?>
<!-- Created with Inkscape (http://www.inkscape.org/) -->

<svg
   xmlns:dc="http://purl.org/dc/elements/1.1/"
   xmlns:cc="http://creativecommons.org/ns#"
   xmlns:rdf="http://www.w3.org/1999/02/22-rdf-syntax-ns#"
   xmlns:svg="http://www.w3.org/2000/svg"
   xmlns="http://www.w3.org/2000/svg"
   xmlns:sodipodi="http://sodipodi.sourceforge.net/DTD/sodipodi-0.dtd"
   xmlns:inkscape="http://www.inkscape.org/namespaces/inkscape"
   width="30"
   height="380"
   viewBox="0 0 7.9375003 100.54167"
   version="1.1"
   id="svg8"
   inkscape:version="0.92.2 5c3e80d, 2017-08-06"
   sodipodi:docname="DualSignalDelayer.svg"
   inkscape:export-filename="E:\Users\Martin\Documents\Rack_Source\Rack\plugins\ML-modules\res\Quantum.png"
   inkscape:export-xdpi="96"
   inkscape:export-ydpi="96">
  <defs
     id="defs2">
    <inkscape:perspective
       sodipodi:type="inkscape:persp3d"
       inkscape:vp_x="0 : 50.270835 : 1"
       inkscape:vp_y="0 : 1000 : 0"
       inkscape:vp_z="31.750002 : 50.270835 : 1"
       inkscape:persp3d-origin="15.875001 : 33.51389 : 1"
       id="perspective4742" />
  </defs>
  <sodipodi:namedview
     id="base"
     pagecolor="#ffffff"
     bordercolor="#666666"
     borderopacity="1.0"
     inkscape:pageopacity="0.0"
     inkscape:pageshadow="2"
     inkscape:zoom="0.7071068"
     inkscape:cx="-115.42791"
     inkscape:cy="176.18881"
     inkscape:document-units="px"
     inkscape:current-layer="layer2"
     showgrid="true"
     units="px"
     fit-margin-top="0"
     fit-margin-left="0"
     fit-margin-right="0"
     fit-margin-bottom="0"
     showguides="true"
     inkscape:snap-to-guides="false"
     objecttolerance="20"
     inkscape:window-width="1298"
     inkscape:window-height="809"
     inkscape:window-x="67"
     inkscape:window-y="1"
     inkscape:window-maximized="0"
     gridtolerance="17"
     inkscape:snap-perpendicular="false"
     inkscape:pagecheckerboard="true"
     inkscape:snap-page="false"
     inkscape:snap-text-baseline="true">
    <inkscape:grid
       type="xygrid"
       id="grid43"
       originx="-7.3436628e-018"
       originy="100.54167"
       spacingx="0.52916668"
       spacingy="0.52916668"
       dotted="false"
       empspacing="20" />
  </sodipodi:namedview>
  <metadata
     id="metadata5">
    <rdf:RDF>
      <cc:Work
         rdf:about="">
        <dc:format>image/svg+xml</dc:format>
        <dc:type
           rdf:resource="http://purl.org/dc/dcmitype/StillImage" />
        <dc:title />
      </cc:Work>
    </rdf:RDF>
  </metadata>
  <g
     inkscape:groupmode="layer"
     id="layer2"
     inkscape:label="Layer 2"
     style="display:inline">
    <rect
       style="fill:#b7c4c8;fill-opacity:1;stroke-width:0.15275729"
       id="rect4689"
       width="7.9375005"
       height="100.54167"
       x="-0.0020670574"
       y="-6.2806193e-06" />
    <g
       aria-label="M"
       style="font-style:normal;font-variant:normal;font-weight:bold;font-stretch:normal;font-size:19.75555611px;line-height:1.25;font-family:Arial;-inkscape-font-specification:'Arial, Bold';font-variant-ligatures:normal;font-variant-caps:normal;font-variant-numeric:normal;font-feature-settings:normal;text-align:start;letter-spacing:0px;word-spacing:0px;writing-mode:lr-tb;text-anchor:start;fill:#000000;fill-opacity:1;stroke:none;stroke-width:0.26458335"
       id="text4720" />
    <text
       xml:space="preserve"
       style="font-style:normal;font-variant:normal;font-weight:normal;font-stretch:normal;font-size:2.82222247px;line-height:1.25;font-family:Arial;-inkscape-font-specification:'Arial, Normal';font-variant-ligatures:normal;font-variant-caps:normal;font-variant-numeric:normal;font-feature-settings:normal;text-align:start;letter-spacing:0px;word-spacing:0px;writing-mode:lr-tb;text-anchor:start;fill:#000000;fill-opacity:1;stroke:none;stroke-width:0.26458335"
       x="19.050001"
       y="20.637499"
       id="text989"><tspan
         sodipodi:role="line"
         id="tspan987"
         x="19.050001"
         y="23.179628"
         style="stroke-width:0.26458335" /></text>
    <rect
       style="fill:#ffffff;fill-opacity:1;stroke:none;stroke-width:0.26458335;stroke-opacity:1"
       id="rect842"
       width="6.2674704"
       height="0"
       x="-7.9512687"
       y="55.6404"
       ry="0" />
    <g
       id="g957"
       transform="translate(-7.9375009,2.3812437)">
      <g
         id="g947">
        <g
           aria-label="NYSTHI "
           transform="matrix(1.0049776,0,0,0.99504709,0,-1.0583334)"
           style="font-style:normal;font-variant:normal;font-weight:800;font-stretch:condensed;font-size:2.72452211px;line-height:1.25;font-family:Futura;-inkscape-font-specification:'Futura, Ultra-Bold Condensed';font-variant-ligatures:normal;font-variant-caps:normal;font-variant-numeric:normal;font-feature-settings:normal;text-align:start;letter-spacing:0px;word-spacing:0px;writing-mode:lr-tb;text-anchor:start;fill:#e6e6e6;fill-opacity:1;stroke:none;stroke-width:0.25542396px;stroke-linecap:butt;stroke-linejoin:miter;stroke-opacity:1"
           id="text80">
          <path
             d="m 7.8981869,98.347198 v -2.054034 h 0.5294725 l 0.2780396,0.721041 q 0.022616,0.06386 0.050553,0.146336 0.029267,0.08248 0.063856,0.190238 l 0.057204,0.180925 Q 8.8467143,97.264307 8.8307503,97.07407 8.8147863,96.883832 8.8147863,96.75479 v -0.461626 h 0.5294726 v 2.054034 H 8.8147863 L 8.5354164,97.591569 q -0.043901,-0.12106 -0.07982,-0.226156 -0.034589,-0.106427 -0.061195,-0.202211 0.017294,0.216844 0.025276,0.377815 0.00798,0.16097 0.00798,0.28203 v 0.524151 z"
             style="font-style:normal;font-variant:normal;font-weight:800;font-stretch:condensed;font-size:2.72452211px;font-family:Futura;-inkscape-font-specification:'Futura, Ultra-Bold Condensed';font-variant-ligatures:normal;font-variant-caps:normal;font-variant-numeric:normal;font-feature-settings:normal;text-align:start;writing-mode:lr-tb;text-anchor:start;fill:#e6e6e6;stroke-width:0.25542396px"
             id="path4726"
             inkscape:connector-curvature="0" />
          <path
             d="M 10.553532,98.347198 H 9.9987828 V 97.477161 L 9.4892652,96.293164 H 10.06796 l 0.09978,0.304647 q 0.02927,0.08913 0.05188,0.171612 0.02395,0.08248 0.04257,0.15831 0.0306,-0.113078 0.05321,-0.194229 0.02262,-0.08248 0.03991,-0.133033 l 0.101105,-0.307307 h 0.574704 l -0.477589,1.183997 z"
             style="font-style:normal;font-variant:normal;font-weight:800;font-stretch:condensed;font-size:2.72452211px;font-family:Futura;-inkscape-font-specification:'Futura, Ultra-Bold Condensed';font-variant-ligatures:normal;font-variant-caps:normal;font-variant-numeric:normal;font-feature-settings:normal;text-align:start;writing-mode:lr-tb;text-anchor:start;fill:#e6e6e6;stroke-width:0.25542396px"
             id="path4728"
             inkscape:connector-curvature="0" />
          <path
             d="m 11.084335,98.296646 v -0.645212 q 0.16363,0.223496 0.353868,0.223496 0.07184,0 0.117069,-0.03725 0.04523,-0.03858 0.04523,-0.09578 0,-0.08248 -0.09845,-0.16097 l -0.09046,-0.07051 q -0.09046,-0.06785 -0.154318,-0.134364 -0.06386,-0.06785 -0.103766,-0.138354 -0.03991,-0.07184 -0.05853,-0.147667 -0.01862,-0.07583 -0.01862,-0.15964 0,-0.143676 0.06652,-0.300655 0.03326,-0.07317 0.07716,-0.133034 0.0439,-0.0612 0.101106,-0.107757 0.156979,-0.133033 0.379145,-0.133033 0.198219,0 0.3991,0.105096 v 0.627917 q -0.06785,-0.105096 -0.154319,-0.164961 -0.08647,-0.06119 -0.170283,-0.06119 -0.06386,0 -0.105096,0.03725 -0.04257,0.03592 -0.04257,0.08647 0,0.08248 0.113079,0.163631 l 0.0878,0.06519 q 0.175604,0.126382 0.251433,0.259415 0.07716,0.133033 0.07716,0.311298 0,0.303316 -0.184916,0.500205 -0.184917,0.196889 -0.468278,0.196889 -0.195559,0 -0.419054,-0.08647 z"
             style="font-style:normal;font-variant:normal;font-weight:800;font-stretch:condensed;font-size:2.72452211px;font-family:Futura;-inkscape-font-specification:'Futura, Ultra-Bold Condensed';font-variant-ligatures:normal;font-variant-caps:normal;font-variant-numeric:normal;font-feature-settings:normal;text-align:start;writing-mode:lr-tb;text-anchor:start;fill:#e6e6e6;stroke-width:0.25542396px"
             id="path4730"
             inkscape:connector-curvature="0" />
          <path
             d="m 13.117084,98.347198 h -0.554749 v -1.561811 h -0.305977 v -0.492223 h 1.178675 v 0.492223 h -0.317949 z"
             style="font-style:normal;font-variant:normal;font-weight:800;font-stretch:condensed;font-size:2.72452211px;font-family:Futura;-inkscape-font-specification:'Futura, Ultra-Bold Condensed';font-variant-ligatures:normal;font-variant-caps:normal;font-variant-numeric:normal;font-feature-settings:normal;text-align:start;writing-mode:lr-tb;text-anchor:start;fill:#e6e6e6;stroke-width:0.25542396px"
             id="path4732"
             inkscape:connector-curvature="0" />
          <path
             d="m 14.955604,98.347198 h -0.554749 v -0.826136 h -0.264737 v 0.826136 H 13.58137 v -2.054034 h 0.554748 v 0.726362 h 0.264737 v -0.726362 h 0.554749 z"
             style="font-style:normal;font-variant:normal;font-weight:800;font-stretch:condensed;font-size:2.72452211px;font-family:Futura;-inkscape-font-specification:'Futura, Ultra-Bold Condensed';font-variant-ligatures:normal;font-variant-caps:normal;font-variant-numeric:normal;font-feature-settings:normal;text-align:start;writing-mode:lr-tb;text-anchor:start;fill:#e6e6e6;stroke-width:0.25542396px"
             id="path4734"
             inkscape:connector-curvature="0" />
          <path
             d="m 15.796374,98.347198 h -0.554749 v -2.054034 h 0.554749 z"
             style="font-style:normal;font-variant:normal;font-weight:800;font-stretch:condensed;font-size:2.72452211px;font-family:Futura;-inkscape-font-specification:'Futura, Ultra-Bold Condensed';font-variant-ligatures:normal;font-variant-caps:normal;font-variant-numeric:normal;font-feature-settings:normal;text-align:start;writing-mode:lr-tb;text-anchor:start;fill:#e6e6e6;stroke-width:0.25542396px"
             id="path4736"
             inkscape:connector-curvature="0" />
        </g>
      </g>
    </g>
    <text
       xml:space="preserve"
       style="font-style:normal;font-weight:normal;font-size:10.58333397px;line-height:1.25;font-family:'Bitstream Vera Sans';letter-spacing:0px;word-spacing:0px;fill:#000000;fill-opacity:1;stroke:none;stroke-width:0.26458335px;stroke-linecap:butt;stroke-linejoin:miter;stroke-opacity:1"
       x="30.691668"
       y="59.795834"
       id="text4987"><tspan
         sodipodi:role="line"
         id="tspan4985"
         x="30.691668"
         y="69.159607"
         style="stroke-width:0.26458335px" /></text>
    <g
       aria-label="TIME"
       style="font-style:normal;font-variant:normal;font-weight:500;font-stretch:condensed;font-size:2.11666679px;line-height:1.25;font-family:Futura;-inkscape-font-specification:'Futura, Medium Condensed';font-variant-ligatures:normal;font-variant-caps:normal;font-variant-numeric:normal;font-feature-settings:normal;text-align:start;letter-spacing:0px;word-spacing:0px;writing-mode:lr-tb;text-anchor:start;fill:#000000;fill-opacity:1;stroke:none;stroke-width:0.26458335px;stroke-linecap:butt;stroke-linejoin:miter;stroke-opacity:1"
       id="text1129">
      <path
         d="m 1.9271867,23.007723 h 0.9329319 v 0.250803 H 2.5390357 v 1.876888 H 2.2579159 V 23.258526 H 1.9271867 Z"
         style="font-style:normal;font-variant:normal;font-weight:500;font-stretch:condensed;font-size:2.82222223px;font-family:Futura;-inkscape-font-specification:'Futura, Medium Condensed';font-variant-ligatures:normal;font-variant-caps:normal;font-variant-numeric:normal;font-feature-settings:normal;text-align:start;writing-mode:lr-tb;text-anchor:start;stroke-width:0.26458335px"
         id="path1241"
         inkscape:connector-curvature="0" />
      <path
         d="m 3.0172149,23.007723 h 0.286632 v 2.127691 h -0.286632 z"
         style="font-style:normal;font-variant:normal;font-weight:500;font-stretch:condensed;font-size:2.82222223px;font-family:Futura;-inkscape-font-specification:'Futura, Medium Condensed';font-variant-ligatures:normal;font-variant-caps:normal;font-variant-numeric:normal;font-feature-settings:normal;text-align:start;writing-mode:lr-tb;text-anchor:start;stroke-width:0.26458335px"
         id="path1243"
         inkscape:connector-curvature="0" />
      <path
         d="m 3.7351729,23.007723 h 0.2452908 l 0.1874131,0.868164 q 0.034451,0.162609 0.062012,0.326595 0.028939,0.162609 0.052365,0.341754 0.00276,-0.02343 0.00413,-0.03583 0.00138,-0.01378 0.00276,-0.01929 l 0.039963,-0.243913 0.035829,-0.23151 0.031695,-0.152962 0.1667426,-0.853006 h 0.2480469 l 0.1956814,2.127691 H 4.7328725 l -0.048231,-0.722092 q -0.00276,-0.05512 -0.00551,-0.09509 -0.00138,-0.03996 -0.00138,-0.06614 l -0.012402,-0.285254 -0.00689,-0.261828 q 0,-0.0028 -0.00138,-0.01102 0,-0.0096 -0.00138,-0.02481 l -0.00689,0.04272 q -0.011024,0.07579 -0.020671,0.132291 -0.00827,0.0565 -0.015158,0.09509 l -0.035829,0.194303 -0.01378,0.07304 -0.179145,0.928798 H 4.1913035 L 4.0231828,24.333396 q -0.034451,-0.158475 -0.062012,-0.321083 -0.026183,-0.163987 -0.048231,-0.343132 l -0.082682,1.466233 H 3.560162 Z"
         style="font-style:normal;font-variant:normal;font-weight:500;font-stretch:condensed;font-size:2.82222223px;font-family:Futura;-inkscape-font-specification:'Futura, Medium Condensed';font-variant-ligatures:normal;font-variant-caps:normal;font-variant-numeric:normal;font-feature-settings:normal;text-align:start;writing-mode:lr-tb;text-anchor:start;stroke-width:0.26458335px"
         id="path1245"
         inkscape:connector-curvature="0" />
      <path
         d="m 5.2441246,23.007723 h 0.7620552 v 0.242535 H 5.5307566 v 0.673861 h 0.4216797 v 0.242534 H 5.5307566 v 0.726226 h 0.4754232 v 0.242535 H 5.2441246 Z"
         style="font-style:normal;font-variant:normal;font-weight:500;font-stretch:condensed;font-size:2.82222223px;font-family:Futura;-inkscape-font-specification:'Futura, Medium Condensed';font-variant-ligatures:normal;font-variant-caps:normal;font-variant-numeric:normal;font-feature-settings:normal;text-align:start;writing-mode:lr-tb;text-anchor:start;stroke-width:0.26458335px"
         id="path1247"
         inkscape:connector-curvature="0" />
    </g>
    <g
       aria-label="DELAY1"
       style="font-style:normal;font-variant:normal;font-weight:500;font-stretch:condensed;font-size:2.82222223px;line-height:1.25;font-family:Futura;-inkscape-font-specification:'Futura, Medium Condensed';font-variant-ligatures:normal;font-variant-caps:normal;font-variant-numeric:normal;font-feature-settings:normal;text-align:start;letter-spacing:0px;word-spacing:0px;writing-mode:lr-tb;text-anchor:start;fill:#000000;fill-opacity:1;stroke:none;stroke-width:0.26458335px;stroke-linecap:butt;stroke-linejoin:miter;stroke-opacity:1"
       id="text1133">
      <path
         d="M 0.91295044,10.836892 H 1.2657282 q 0.1612305,0 0.2714735,0.03583 0.1019749,0.03445 0.1819011,0.122646 0.1198893,0.132291 0.1708767,0.344509 0.050987,0.205328 0.050987,0.588423 0,0.351399 -0.0565,0.573264 -0.055122,0.212217 -0.1819011,0.323839 Q 1.5468471,12.964584 1.14446,12.964584 H 0.91295044 Z M 1.1995824,12.71378 q 0.2618272,0 0.3500217,-0.158474 0.09095,-0.158474 0.09095,-0.615983 0,-0.49196 -0.086816,-0.676617 -0.086816,-0.184657 -0.3183268,-0.184657 h -0.035829 z"
         style="font-style:normal;font-variant:normal;font-weight:500;font-stretch:condensed;font-size:2.82222223px;font-family:Futura;-inkscape-font-specification:'Futura, Medium Condensed';font-variant-ligatures:normal;font-variant-caps:normal;font-variant-numeric:normal;font-feature-settings:normal;text-align:start;writing-mode:lr-tb;text-anchor:start;stroke-width:0.26458335px"
         id="path1228"
         inkscape:connector-curvature="0" />
      <path
         d="M 2.2248428,10.836892 H 2.986898 v 0.242535 H 2.5114748 v 0.673861 h 0.4216797 v 0.242535 H 2.5114748 v 0.726226 H 2.986898 v 0.242534 H 2.2248428 Z"
         style="font-style:normal;font-variant:normal;font-weight:500;font-stretch:condensed;font-size:2.82222223px;font-family:Futura;-inkscape-font-specification:'Futura, Medium Condensed';font-variant-ligatures:normal;font-variant-caps:normal;font-variant-numeric:normal;font-feature-settings:normal;text-align:start;writing-mode:lr-tb;text-anchor:start;stroke-width:0.26458335px"
         id="path1230"
         inkscape:connector-curvature="0" />
      <path
         d="m 3.2501034,10.836892 h 0.2866319 v 1.885157 h 0.468533 v 0.242534 H 3.2501034 Z"
         style="font-style:normal;font-variant:normal;font-weight:500;font-stretch:condensed;font-size:2.82222223px;font-family:Futura;-inkscape-font-specification:'Futura, Medium Condensed';font-variant-ligatures:normal;font-variant-caps:normal;font-variant-numeric:normal;font-feature-settings:normal;text-align:start;writing-mode:lr-tb;text-anchor:start;stroke-width:0.26458335px"
         id="path1232"
         inkscape:connector-curvature="0" />
      <path
         d="m 4.606093,10.836892 h 0.2232421 l 0.4561307,2.127691 H 5.0015899 L 4.9216637,12.549794 H 4.499984 L 4.41868,12.964583 H 4.1430721 Z m 0.2742296,1.491038 -0.06339,-0.338998 q -0.06339,-0.345887 -0.1033529,-0.738628 -0.019292,0.191547 -0.049609,0.388607 -0.030317,0.195681 -0.071658,0.416167 l -0.052365,0.272852 z"
         style="font-style:normal;font-variant:normal;font-weight:500;font-stretch:condensed;font-size:2.82222223px;font-family:Futura;-inkscape-font-specification:'Futura, Medium Condensed';font-variant-ligatures:normal;font-variant-caps:normal;font-variant-numeric:normal;font-feature-settings:normal;text-align:start;writing-mode:lr-tb;text-anchor:start;stroke-width:0.26458335px"
         id="path1234"
         inkscape:connector-curvature="0" />
      <path
         d="m 5.186247,10.836892 h 0.3031684 l 0.1405599,0.463021 q 0.00689,0.02067 0.01378,0.04548 0.00689,0.0248 0.016536,0.05374 0.078548,0.250803 0.1074869,0.42168 0.024805,-0.170877 0.041341,-0.238401 l 0.044097,-0.190169 0.016536,-0.07441 0.1185112,-0.480936 h 0.2990343 l -0.3706922,1.212674 v 0.915017 h -0.286632 v -0.915017 z"
         style="font-style:normal;font-variant:normal;font-weight:500;font-stretch:condensed;font-size:2.82222223px;font-family:Futura;-inkscape-font-specification:'Futura, Medium Condensed';font-variant-ligatures:normal;font-variant-caps:normal;font-variant-numeric:normal;font-feature-settings:normal;text-align:start;writing-mode:lr-tb;text-anchor:start;stroke-width:0.26458335px"
         id="path1236"
         inkscape:connector-curvature="0" />
      <path
         d="M 6.5353465,10.836892 H 7.020416 v 2.127691 H 6.7461863 V 11.080805 H 6.5353465 Z"
         style="font-style:normal;font-variant:normal;font-weight:500;font-stretch:condensed;font-size:2.82222223px;font-family:Futura;-inkscape-font-specification:'Futura, Medium Condensed';font-variant-ligatures:normal;font-variant-caps:normal;font-variant-numeric:normal;font-feature-settings:normal;text-align:start;writing-mode:lr-tb;text-anchor:start;stroke-width:0.26458335px"
         id="path1238"
         inkscape:connector-curvature="0" />
    </g>
    <g
       aria-label="IN"
       transform="scale(0.9999519,1.0000481)"
       style="font-style:normal;font-variant:normal;font-weight:500;font-stretch:condensed;font-size:2.8222034px;line-height:1.25;font-family:Futura;-inkscape-font-specification:'Futura, Medium Condensed';font-variant-ligatures:normal;font-variant-caps:normal;font-variant-numeric:normal;font-feature-settings:normal;text-align:start;letter-spacing:0px;word-spacing:0px;writing-mode:lr-tb;text-anchor:start;fill:#000000;fill-opacity:1;stroke:none;stroke-width:0.26458159px;stroke-linecap:butt;stroke-linejoin:miter;stroke-opacity:1"
       id="text1137">
      <path
         d="m 3.162105,13.746556 h 0.2866301 v 2.127677 H 3.162105 Z"
         style="font-style:normal;font-variant:normal;font-weight:500;font-stretch:condensed;font-size:2.8222034px;font-family:Futura;-inkscape-font-specification:'Futura, Medium Condensed';font-variant-ligatures:normal;font-variant-caps:normal;font-variant-numeric:normal;font-feature-settings:normal;text-align:start;writing-mode:lr-tb;text-anchor:start;stroke-width:0.26458159px"
         id="path1223"
         inkscape:connector-curvature="0" />
      <path
         d="m 3.7794621,13.746556 h 0.2673376 l 0.285252,0.848866 q 0.1240226,0.359666 0.2191066,0.767562 -0.034451,-0.246667 -0.050987,-0.446481 -0.016536,-0.199814 -0.016536,-0.376202 v -0.793745 h 0.288008 v 2.127677 h -0.268716 l -0.3210808,-0.95773 q -0.044097,-0.133669 -0.08406,-0.274228 -0.038585,-0.140559 -0.071657,-0.294898 -0.00276,-0.01929 -0.00965,-0.04685 -0.00551,-0.02756 -0.01378,-0.06339 0.00413,0.03583 0.00689,0.06201 0.00276,0.0248 0.00413,0.04272 l 0.015158,0.216351 0.015158,0.263203 q 0.00138,0.02205 0.00138,0.05374 0.00138,0.0317 0.00138,0.07166 l 0.015158,0.927413 H 3.7794621 Z"
         style="font-style:normal;font-variant:normal;font-weight:500;font-stretch:condensed;font-size:2.8222034px;font-family:Futura;-inkscape-font-specification:'Futura, Medium Condensed';font-variant-ligatures:normal;font-variant-caps:normal;font-variant-numeric:normal;font-feature-settings:normal;text-align:start;writing-mode:lr-tb;text-anchor:start;stroke-width:0.26458159px"
         id="path1225"
         inkscape:connector-curvature="0" />
    </g>
    <g
       aria-label="CV"
       style="font-style:normal;font-variant:normal;font-weight:500;font-stretch:condensed;font-size:2.11666679px;line-height:1.25;font-family:Futura;-inkscape-font-specification:'Futura, Medium Condensed';font-variant-ligatures:normal;font-variant-caps:normal;font-variant-numeric:normal;font-feature-settings:normal;text-align:start;letter-spacing:0px;word-spacing:0px;writing-mode:lr-tb;text-anchor:start;fill:#000000;fill-opacity:1;stroke:none;stroke-width:0.26458335px;stroke-linecap:butt;stroke-linejoin:miter;stroke-opacity:1"
       id="text1141"
       transform="translate(0,-2.6458374)">
      <path
         d="m 3.8426598,34.922244 v 0.257693 q -0.110243,-0.05374 -0.1846571,-0.05374 -0.1019748,0 -0.1750108,0.05099 -0.073036,0.04961 -0.1212674,0.15434 -0.046853,0.104731 -0.07028,0.265962 -0.022049,0.159852 -0.022049,0.37896 0,0.788238 0.4037651,0.788238 0.07028,0 0.1694987,-0.0441 v 0.263205 q -0.1033528,0.05788 -0.2315104,0.05788 -0.6462999,0 -0.6462999,-1.055578 0,-0.570507 0.1570964,-0.848871 0.1584744,-0.278364 0.4836914,-0.278364 0.1198893,0 0.2370225,0.06339 z"
         style="font-style:normal;font-variant:normal;font-weight:500;font-stretch:condensed;font-size:2.82222223px;font-family:Futura;-inkscape-font-specification:'Futura, Medium Condensed';font-variant-ligatures:normal;font-variant-caps:normal;font-variant-numeric:normal;font-feature-settings:normal;text-align:start;writing-mode:lr-tb;text-anchor:start;stroke-width:0.26458335px"
         id="path1218"
         inkscape:connector-curvature="0" />
      <path
         d="m 3.9129398,34.887793 h 0.2824978 l 0.1281575,0.785482 0.022049,0.141938 0.045475,0.30868 q 0.011024,0.07855 0.019293,0.143316 0.00965,0.06477 0.016536,0.117133 l 0.01378,0.104731 q 0.00413,-0.03169 0.00689,-0.0565 0.00276,-0.02481 0.00551,-0.04134 l 0.037207,-0.246669 0.048231,-0.323839 q 0.00689,-0.0441 0.012402,-0.08131 0.00689,-0.03721 0.012402,-0.06615 L 4.7011776,34.887793 H 4.968517 L 4.5509714,37.015484 H 4.3235951 Z"
         style="font-style:normal;font-variant:normal;font-weight:500;font-stretch:condensed;font-size:2.82222223px;font-family:Futura;-inkscape-font-specification:'Futura, Medium Condensed';font-variant-ligatures:normal;font-variant-caps:normal;font-variant-numeric:normal;font-feature-settings:normal;text-align:start;writing-mode:lr-tb;text-anchor:start;stroke-width:0.26458335px"
         id="path1220"
         inkscape:connector-curvature="0" />
    </g>
    <g
       aria-label="OUT"
       style="font-style:normal;font-variant:normal;font-weight:500;font-stretch:condensed;font-size:2.11666679px;line-height:1.25;font-family:Futura;-inkscape-font-specification:'Futura, Medium Condensed';font-variant-ligatures:normal;font-variant-caps:normal;font-variant-numeric:normal;font-feature-settings:normal;text-align:start;letter-spacing:0px;word-spacing:0px;writing-mode:lr-tb;text-anchor:start;fill:#000000;fill-opacity:1;stroke:none;stroke-width:0.26458335px;stroke-linecap:butt;stroke-linejoin:miter;stroke-opacity:1"
       id="text1145"
       transform="translate(0,-2.6458335)">
      <path
         d="m 3.3431207,45.264422 q 0,0.563617 -0.1254014,0.80064 -0.1254015,0.237023 -0.4203017,0.237023 -0.3100586,0 -0.4368381,-0.254938 -0.1254015,-0.249424 -0.1254015,-0.886078 0,-0.567752 0.1240235,-0.803396 0.1254015,-0.237023 0.4244357,-0.237023 0.2673395,0 0.396875,0.183279 0.085438,0.122646 0.1240235,0.348644 0.038585,0.209462 0.038585,0.611849 z m -0.3004123,0.03032 q 0,-0.552594 -0.049609,-0.733117 -0.049609,-0.181901 -0.2025716,-0.181901 -0.1529622,0 -0.2039496,0.166743 -0.049609,0.168121 -0.049609,0.675239 0,0.467155 0.052366,0.647678 0.053743,0.170876 0.2011935,0.170876 0.144694,0 0.1984375,-0.159852 0.053743,-0.158475 0.053742,-0.585666 z"
         style="font-style:normal;font-variant:normal;font-weight:500;font-stretch:condensed;font-size:2.82222223px;font-family:Futura;-inkscape-font-specification:'Futura, Medium Condensed';font-variant-ligatures:normal;font-variant-caps:normal;font-variant-numeric:normal;font-feature-settings:normal;text-align:start;writing-mode:lr-tb;text-anchor:start;stroke-width:0.26458335px"
         id="path1211"
         inkscape:connector-curvature="0" />
      <path
         d="m 3.6283747,44.148211 h 0.2811198 v 1.503439 q 0,0.230133 0.041341,0.305925 0.042719,0.07579 0.1681207,0.07579 0.1254015,0 0.1653646,-0.06615 0.041341,-0.06752 0.041341,-0.274229 v -1.544781 h 0.2811198 v 1.544781 q 0,0.347265 -0.1061089,0.469911 -0.1267796,0.139182 -0.3872288,0.139182 -0.2866319,0 -0.4037652,-0.179145 -0.081304,-0.122646 -0.081304,-0.47129 z"
         style="font-style:normal;font-variant:normal;font-weight:500;font-stretch:condensed;font-size:2.82222223px;font-family:Futura;-inkscape-font-specification:'Futura, Medium Condensed';font-variant-ligatures:normal;font-variant-caps:normal;font-variant-numeric:normal;font-feature-settings:normal;text-align:start;writing-mode:lr-tb;text-anchor:start;stroke-width:0.26458335px"
         id="path1213"
         inkscape:connector-curvature="0" />
      <path
         d="m 4.7652563,44.148211 h 0.9329318 v 0.250803 H 5.3771052 v 1.876888 H 5.0959854 V 44.399014 H 4.7652563 Z"
         style="font-style:normal;font-variant:normal;font-weight:500;font-stretch:condensed;font-size:2.82222223px;font-family:Futura;-inkscape-font-specification:'Futura, Medium Condensed';font-variant-ligatures:normal;font-variant-caps:normal;font-variant-numeric:normal;font-feature-settings:normal;text-align:start;writing-mode:lr-tb;text-anchor:start;stroke-width:0.26458335px"
         id="path1215"
         inkscape:connector-curvature="0" />
    </g>
    <g
       aria-label="TIME"
       style="font-style:normal;font-variant:normal;font-weight:500;font-stretch:condensed;font-size:2.11666679px;line-height:1.25;font-family:Futura;-inkscape-font-specification:'Futura, Medium Condensed';font-variant-ligatures:normal;font-variant-caps:normal;font-variant-numeric:normal;font-feature-settings:normal;text-align:start;letter-spacing:0px;word-spacing:0px;writing-mode:lr-tb;text-anchor:start;fill:#000000;fill-opacity:1;stroke:none;stroke-width:0.26458335px;stroke-linecap:butt;stroke-linejoin:miter;stroke-opacity:1"
       id="text1149"
       transform="translate(0,-0.26458019)">
      <path
         d="m 1.9271867,65.605639 h 0.9329319 v 0.250803 H 2.5390357 V 67.73333 H 2.2579159 V 65.856442 H 1.9271867 Z"
         style="font-style:normal;font-variant:normal;font-weight:500;font-stretch:condensed;font-size:2.82222223px;font-family:Futura;-inkscape-font-specification:'Futura, Medium Condensed';font-variant-ligatures:normal;font-variant-caps:normal;font-variant-numeric:normal;font-feature-settings:normal;text-align:start;writing-mode:lr-tb;text-anchor:start;stroke-width:0.26458335px"
         id="path1202"
         inkscape:connector-curvature="0" />
      <path
         d="m 3.0172149,65.605639 h 0.286632 v 2.127691 h -0.286632 z"
         style="font-style:normal;font-variant:normal;font-weight:500;font-stretch:condensed;font-size:2.82222223px;font-family:Futura;-inkscape-font-specification:'Futura, Medium Condensed';font-variant-ligatures:normal;font-variant-caps:normal;font-variant-numeric:normal;font-feature-settings:normal;text-align:start;writing-mode:lr-tb;text-anchor:start;stroke-width:0.26458335px"
         id="path1204"
         inkscape:connector-curvature="0" />
      <path
         d="m 3.7351729,65.605639 h 0.2452908 l 0.1874131,0.868164 q 0.034451,0.162608 0.062012,0.326595 0.028939,0.162608 0.052365,0.341753 0.00276,-0.02343 0.00413,-0.03583 0.00138,-0.01378 0.00276,-0.01929 l 0.039963,-0.243913 0.035829,-0.23151 0.031695,-0.152963 0.1667426,-0.853005 h 0.2480473 l 0.1956814,2.12769 H 4.7328725 l -0.048231,-0.722092 q -0.00276,-0.05512 -0.00551,-0.09509 -0.00138,-0.03996 -0.00138,-0.06615 l -0.012402,-0.285254 -0.00689,-0.261827 q 0,-0.0028 -0.00138,-0.01102 0,-0.0096 -0.00138,-0.0248 l -0.00689,0.04272 q -0.011024,0.07579 -0.020671,0.132292 -0.00827,0.0565 -0.015158,0.09508 l -0.035829,0.194303 -0.01378,0.07304 -0.179145,0.928798 H 4.1913035 L 4.0231828,66.931312 Q 3.9887319,66.772837 3.9611711,66.610229 3.9349884,66.446242 3.9129398,66.267097 L 3.8302575,67.73333 H 3.560162 Z"
         style="font-style:normal;font-variant:normal;font-weight:500;font-stretch:condensed;font-size:2.82222223px;font-family:Futura;-inkscape-font-specification:'Futura, Medium Condensed';font-variant-ligatures:normal;font-variant-caps:normal;font-variant-numeric:normal;font-feature-settings:normal;text-align:start;writing-mode:lr-tb;text-anchor:start;stroke-width:0.26458335px"
         id="path1206"
         inkscape:connector-curvature="0" />
      <path
         d="m 5.2441246,65.605639 h 0.7620552 v 0.242535 H 5.5307566 v 0.67386 h 0.4216797 v 0.242535 H 5.5307566 v 0.726226 H 6.0061798 V 67.73333 H 5.2441246 Z"
         style="font-style:normal;font-variant:normal;font-weight:500;font-stretch:condensed;font-size:2.82222223px;font-family:Futura;-inkscape-font-specification:'Futura, Medium Condensed';font-variant-ligatures:normal;font-variant-caps:normal;font-variant-numeric:normal;font-feature-settings:normal;text-align:start;writing-mode:lr-tb;text-anchor:start;stroke-width:0.26458335px"
         id="path1208"
         inkscape:connector-curvature="0" />
    </g>
    <g
       aria-label="DELAY2 "
       style="font-style:normal;font-variant:normal;font-weight:500;font-stretch:condensed;font-size:2.82222223px;line-height:1.25;font-family:Futura;-inkscape-font-specification:'Futura, Medium Condensed';font-variant-ligatures:normal;font-variant-caps:normal;font-variant-numeric:normal;font-feature-settings:normal;text-align:start;letter-spacing:0px;word-spacing:0px;writing-mode:lr-tb;text-anchor:start;fill:#000000;fill-opacity:1;stroke:none;stroke-width:0.26458335px;stroke-linecap:butt;stroke-linejoin:miter;stroke-opacity:1"
       id="text1153"
       transform="translate(0,-0.26458019)">
      <path
         d="M 0.91295044,53.434813 H 1.2657282 q 0.1612305,0 0.2714735,0.03583 0.1019749,0.03445 0.1819011,0.122645 0.1198893,0.132292 0.1708767,0.34451 0.050987,0.205327 0.050987,0.588422 0,0.3514 -0.0565,0.573264 -0.055122,0.212218 -0.1819011,0.323839 Q 1.5468471,55.562505 1.14446,55.562505 H 0.91295044 Z m 0.28663196,1.876888 q 0.2618272,0 0.3500217,-0.158475 0.09095,-0.158474 0.09095,-0.615983 0,-0.491959 -0.086816,-0.676616 Q 1.4669218,53.67597 1.2354114,53.67597 h -0.035829 z"
         style="font-style:normal;font-variant:normal;font-weight:500;font-stretch:condensed;font-size:2.82222223px;font-family:Futura;-inkscape-font-specification:'Futura, Medium Condensed';font-variant-ligatures:normal;font-variant-caps:normal;font-variant-numeric:normal;font-feature-settings:normal;text-align:start;writing-mode:lr-tb;text-anchor:start;stroke-width:0.26458335px"
         id="path1189"
         inkscape:connector-curvature="0" />
      <path
         d="M 2.2248428,53.434813 H 2.986898 v 0.242535 H 2.5114748 v 0.67386 h 0.4216797 v 0.242535 H 2.5114748 v 0.726226 H 2.986898 v 0.242535 H 2.2248428 Z"
         style="font-style:normal;font-variant:normal;font-weight:500;font-stretch:condensed;font-size:2.82222223px;font-family:Futura;-inkscape-font-specification:'Futura, Medium Condensed';font-variant-ligatures:normal;font-variant-caps:normal;font-variant-numeric:normal;font-feature-settings:normal;text-align:start;writing-mode:lr-tb;text-anchor:start;stroke-width:0.26458335px"
         id="path1191"
         inkscape:connector-curvature="0" />
      <path
         d="m 3.2501034,53.434813 h 0.2866319 v 1.885156 h 0.468533 v 0.242535 H 3.2501034 Z"
         style="font-style:normal;font-variant:normal;font-weight:500;font-stretch:condensed;font-size:2.82222223px;font-family:Futura;-inkscape-font-specification:'Futura, Medium Condensed';font-variant-ligatures:normal;font-variant-caps:normal;font-variant-numeric:normal;font-feature-settings:normal;text-align:start;writing-mode:lr-tb;text-anchor:start;stroke-width:0.26458335px"
         id="path1193"
         inkscape:connector-curvature="0" />
      <path
         d="m 4.606093,53.434813 h 0.2232421 l 0.4561307,2.127691 H 5.0015899 l -0.079926,-0.41479 H 4.499984 L 4.41868,55.562504 H 4.1430721 Z m 0.2742296,1.491037 -0.06339,-0.338997 q -0.06339,-0.345888 -0.1033529,-0.738629 -0.019292,0.191548 -0.049609,0.388607 -0.030317,0.195681 -0.071658,0.416168 l -0.052365,0.272851 z"
         style="font-style:normal;font-variant:normal;font-weight:500;font-stretch:condensed;font-size:2.82222223px;font-family:Futura;-inkscape-font-specification:'Futura, Medium Condensed';font-variant-ligatures:normal;font-variant-caps:normal;font-variant-numeric:normal;font-feature-settings:normal;text-align:start;writing-mode:lr-tb;text-anchor:start;stroke-width:0.26458335px"
         id="path1195"
         inkscape:connector-curvature="0" />
      <path
         d="m 5.186247,53.434813 h 0.3031684 l 0.1405599,0.463021 q 0.00689,0.02067 0.01378,0.04547 0.00689,0.02481 0.016536,0.05374 0.078548,0.250803 0.1074869,0.42168 0.024805,-0.170877 0.041341,-0.2384 l 0.044097,-0.19017 0.016536,-0.07441 0.1185112,-0.480935 H 6.2872977 L 5.9166055,54.647482 V 55.5625 h -0.286632 v -0.915018 z"
         style="font-style:normal;font-variant:normal;font-weight:500;font-stretch:condensed;font-size:2.82222223px;font-family:Futura;-inkscape-font-specification:'Futura, Medium Condensed';font-variant-ligatures:normal;font-variant-caps:normal;font-variant-numeric:normal;font-feature-settings:normal;text-align:start;writing-mode:lr-tb;text-anchor:start;stroke-width:0.26458335px"
         id="path1197"
         inkscape:connector-curvature="0" />
      <path
         d="M 6.6993331,54.126588 H 6.4182133 l -0.00276,-0.08406 q 0,-0.348644 0.1047309,-0.490582 0.1061089,-0.143316 0.3555338,-0.143316 0.4699111,0 0.4699111,0.520899 0,0.351399 -0.3513998,1.012858 l -0.1694987,0.318326 q -0.00138,0.0028 -0.00827,0.01654 -0.00689,0.01378 -0.019292,0.03996 h 0.5264106 v 0.245291 H 6.3892745 q 0.023427,-0.05237 0.097841,-0.208084 0.074414,-0.155718 0.2025716,-0.420302 0.108865,-0.23151 0.181901,-0.39274 0.073036,-0.161231 0.1102431,-0.264584 0.074414,-0.206706 0.074414,-0.356912 0,-0.264583 -0.183279,-0.264583 -0.1763889,0 -0.1763889,0.327973 l 0.00138,0.121267 z"
         style="font-style:normal;font-variant:normal;font-weight:500;font-stretch:condensed;font-size:2.82222223px;font-family:Futura;-inkscape-font-specification:'Futura, Medium Condensed';font-variant-ligatures:normal;font-variant-caps:normal;font-variant-numeric:normal;font-feature-settings:normal;text-align:start;writing-mode:lr-tb;text-anchor:start;stroke-width:0.26458335px"
         id="path1199"
         inkscape:connector-curvature="0" />
    </g>
    <g
       aria-label="IN"
       transform="matrix(0.9999519,0,0,1.0000481,0,-0.26458019)"
       style="font-style:normal;font-variant:normal;font-weight:500;font-stretch:condensed;font-size:2.8222034px;line-height:1.25;font-family:Futura;-inkscape-font-specification:'Futura, Medium Condensed';font-variant-ligatures:normal;font-variant-caps:normal;font-variant-numeric:normal;font-feature-settings:normal;text-align:start;letter-spacing:0px;word-spacing:0px;writing-mode:lr-tb;text-anchor:start;fill:#000000;fill-opacity:1;stroke:none;stroke-width:0.26458159px;stroke-linecap:butt;stroke-linejoin:miter;stroke-opacity:1"
       id="text1157">
      <path
         d="m 3.162105,56.342431 h 0.2866301 v 2.127677 H 3.162105 Z"
         style="font-style:normal;font-variant:normal;font-weight:500;font-stretch:condensed;font-size:2.8222034px;font-family:Futura;-inkscape-font-specification:'Futura, Medium Condensed';font-variant-ligatures:normal;font-variant-caps:normal;font-variant-numeric:normal;font-feature-settings:normal;text-align:start;writing-mode:lr-tb;text-anchor:start;stroke-width:0.26458159px"
         id="path1183"
         inkscape:connector-curvature="0" />
      <path
         d="m 3.7794621,56.342431 h 0.2673376 l 0.285252,0.848866 q 0.1240226,0.359666 0.2191066,0.767562 -0.034451,-0.246667 -0.050987,-0.446481 -0.016536,-0.199814 -0.016536,-0.376202 v -0.793745 h 0.288008 v 2.127677 h -0.268716 l -0.3210808,-0.95773 q -0.044097,-0.133669 -0.08406,-0.274228 -0.038585,-0.140559 -0.071657,-0.294898 -0.00276,-0.01929 -0.00965,-0.04685 -0.00551,-0.02756 -0.01378,-0.06339 0.00413,0.03583 0.00689,0.06201 0.00276,0.0248 0.00413,0.04272 l 0.015158,0.21635 0.015158,0.263204 q 0.00138,0.02205 0.00138,0.05374 0.00138,0.03169 0.00138,0.07166 l 0.015158,0.927413 H 3.7794621 Z"
         style="font-style:normal;font-variant:normal;font-weight:500;font-stretch:condensed;font-size:2.8222034px;font-family:Futura;-inkscape-font-specification:'Futura, Medium Condensed';font-variant-ligatures:normal;font-variant-caps:normal;font-variant-numeric:normal;font-feature-settings:normal;text-align:start;writing-mode:lr-tb;text-anchor:start;stroke-width:0.26458159px"
         id="path1185"
         inkscape:connector-curvature="0" />
    </g>
    <g
       aria-label="CV"
       style="font-style:normal;font-variant:normal;font-weight:500;font-stretch:condensed;font-size:2.11666679px;line-height:1.25;font-family:Futura;-inkscape-font-specification:'Futura, Medium Condensed';font-variant-ligatures:normal;font-variant-caps:normal;font-variant-numeric:normal;font-feature-settings:normal;text-align:start;letter-spacing:0px;word-spacing:0px;writing-mode:lr-tb;text-anchor:start;fill:#000000;fill-opacity:1;stroke:none;stroke-width:0.26458335px;stroke-linecap:butt;stroke-linejoin:miter;stroke-opacity:1"
       id="text1161"
       transform="translate(0,-2.9104216)">
      <path
         d="m 3.8426598,77.520163 v 0.257693 q -0.110243,-0.05374 -0.1846571,-0.05374 -0.1019748,0 -0.1750108,0.05099 -0.073036,0.04961 -0.1212674,0.154341 -0.046853,0.104731 -0.07028,0.265961 -0.022049,0.159852 -0.022049,0.378961 0,0.788237 0.4037651,0.788237 0.07028,0 0.1694987,-0.0441 v 0.263205 q -0.1033528,0.05788 -0.2315104,0.05788 -0.6462999,0 -0.6462999,-1.055577 0,-0.570508 0.1570964,-0.848872 0.1584744,-0.278363 0.4836914,-0.278363 0.1198893,0 0.2370225,0.06339 z"
         style="font-style:normal;font-variant:normal;font-weight:500;font-stretch:condensed;font-size:2.82222223px;font-family:Futura;-inkscape-font-specification:'Futura, Medium Condensed';font-variant-ligatures:normal;font-variant-caps:normal;font-variant-numeric:normal;font-feature-settings:normal;text-align:start;writing-mode:lr-tb;text-anchor:start;stroke-width:0.26458335px"
         id="path1177"
         inkscape:connector-curvature="0" />
      <path
         d="m 3.9129398,77.485712 h 0.2824978 l 0.1281575,0.785482 0.022049,0.141938 0.045475,0.308681 q 0.011024,0.07855 0.019293,0.143316 0.00965,0.06477 0.016536,0.117133 l 0.01378,0.104731 q 0.00413,-0.0317 0.00689,-0.0565 0.00276,-0.02481 0.00551,-0.04134 l 0.037207,-0.246669 0.048231,-0.323839 q 0.00689,-0.0441 0.012402,-0.0813 0.00689,-0.03721 0.012402,-0.06615 L 4.7011776,77.485712 H 4.968517 L 4.5509714,79.613403 H 4.3235951 Z"
         style="font-style:normal;font-variant:normal;font-weight:500;font-stretch:condensed;font-size:2.82222223px;font-family:Futura;-inkscape-font-specification:'Futura, Medium Condensed';font-variant-ligatures:normal;font-variant-caps:normal;font-variant-numeric:normal;font-feature-settings:normal;text-align:start;writing-mode:lr-tb;text-anchor:start;stroke-width:0.26458335px"
         id="path1179"
         inkscape:connector-curvature="0" />
    </g>
    <g
       aria-label="OUT"
       style="font-style:normal;font-variant:normal;font-weight:500;font-stretch:condensed;font-size:2.11666679px;line-height:1.25;font-family:Futura;-inkscape-font-specification:'Futura, Medium Condensed';font-variant-ligatures:normal;font-variant-caps:normal;font-variant-numeric:normal;font-feature-settings:normal;text-align:start;letter-spacing:0px;word-spacing:0px;writing-mode:lr-tb;text-anchor:start;fill:#000000;fill-opacity:1;stroke:none;stroke-width:0.26458335px;stroke-linecap:butt;stroke-linejoin:miter;stroke-opacity:1"
       id="text1165"
       transform="translate(0,-2.9104136)">
      <path
         d="m 3.3431207,87.862337 q 0,0.563618 -0.1254014,0.800641 Q 3.0923178,88.9 2.7974176,88.9 2.487359,88.9 2.3605795,88.645063 2.235178,88.395638 2.235178,87.758985 q 0,-0.567752 0.1240235,-0.803397 0.1254015,-0.237022 0.4244357,-0.237022 0.2673395,0 0.396875,0.183279 0.085438,0.122645 0.1240235,0.348643 0.038585,0.209462 0.038585,0.611849 z m -0.3004123,0.03032 q 0,-0.552593 -0.049609,-0.733116 -0.049609,-0.181901 -0.2025716,-0.181901 -0.1529622,0 -0.2039496,0.166743 -0.049609,0.16812 -0.049609,0.675238 0,0.467155 0.052366,0.647678 0.053743,0.170877 0.2011935,0.170877 0.144694,0 0.1984375,-0.159853 0.053743,-0.158474 0.053742,-0.585666 z"
         style="font-style:normal;font-variant:normal;font-weight:500;font-stretch:condensed;font-size:2.82222223px;font-family:Futura;-inkscape-font-specification:'Futura, Medium Condensed';font-variant-ligatures:normal;font-variant-caps:normal;font-variant-numeric:normal;font-feature-settings:normal;text-align:start;writing-mode:lr-tb;text-anchor:start;stroke-width:0.26458335px"
         id="path1169"
         inkscape:connector-curvature="0" />
      <path
         d="m 3.6283747,86.746126 h 0.2811198 v 1.50344 q 0,0.230133 0.041341,0.305925 0.042719,0.07579 0.1681207,0.07579 0.1254015,0 0.1653646,-0.06615 0.041341,-0.06752 0.041341,-0.27423 V 86.74612 h 0.2811198 v 1.544781 q 0,0.347266 -0.1061089,0.469911 Q 4.3738933,88.9 4.1134441,88.9 3.8268122,88.9 3.7096789,88.720855 3.6283747,88.59821 3.6283747,88.249566 Z"
         style="font-style:normal;font-variant:normal;font-weight:500;font-stretch:condensed;font-size:2.82222223px;font-family:Futura;-inkscape-font-specification:'Futura, Medium Condensed';font-variant-ligatures:normal;font-variant-caps:normal;font-variant-numeric:normal;font-feature-settings:normal;text-align:start;writing-mode:lr-tb;text-anchor:start;stroke-width:0.26458335px"
         id="path1171"
         inkscape:connector-curvature="0" />
      <path
         d="m 4.7652563,86.746126 h 0.9329318 v 0.250803 H 5.3771052 v 1.876888 H 5.0959854 V 86.996929 H 4.7652563 Z"
         style="font-style:normal;font-variant:normal;font-weight:500;font-stretch:condensed;font-size:2.82222223px;font-family:Futura;-inkscape-font-specification:'Futura, Medium Condensed';font-variant-ligatures:normal;font-variant-caps:normal;font-variant-numeric:normal;font-feature-settings:normal;text-align:start;writing-mode:lr-tb;text-anchor:start;stroke-width:0.26458335px"
         id="path1173"
         inkscape:connector-curvature="0" />
    </g>
    <g
       aria-label="2D"
       style="font-style:normal;font-weight:normal;font-size:10.58333397px;line-height:1.25;font-family:'Bitstream Vera Sans';letter-spacing:0px;word-spacing:0px;fill:#000000;fill-opacity:1;stroke:none;stroke-width:0.26458335px;stroke-linecap:butt;stroke-linejoin:miter;stroke-opacity:1"
       id="text893">
      <path
         d="M 3.7444745,4.7625003 H 1.5471925 L 2.4194907,3.598747 Q 2.5683189,3.4003094 2.6696047,3.2452801 2.7708905,3.0881838 2.8287681,2.9682944 2.9424563,2.7429852 2.9424563,2.5052736 q 0,-0.1302246 -0.053743,-0.2067058 -0.053743,-0.076481 -0.1467611,-0.076481 -0.2067057,0 -0.2067057,0.3886068 0,0.020671 0,0.049609 0.00207,0.028939 0.00413,0.068213 H 1.7022218 l -0.00413,-0.1157552 q 0,-0.4816244 0.2976563,-0.789616 0.2997233,-0.3100586 0.7668783,-0.3100586 0.4506185,0 0.7358724,0.2935222 0.287321,0.287321 0.287321,0.7503418 0,0.3720704 -0.1963705,0.7234701 Q 3.4902265,3.45612 3.3310631,3.6504234 3.1739667,3.8426597 2.9486574,4.0555666 q 0.1943034,-0.014469 0.3906739,-0.02067 0.1984375,-0.0062 0.4051432,-0.0062 z"
         style="font-style:normal;font-variant:normal;font-weight:800;font-stretch:condensed;font-size:4.23333359px;font-family:Futura;-inkscape-font-specification:'Futura, Ultra-Bold Condensed';font-variant-ligatures:normal;font-variant-caps:normal;font-variant-numeric:normal;font-feature-settings:normal;text-align:start;writing-mode:lr-tb;text-anchor:start;stroke-width:0.26458335px"
         id="path895"
         inkscape:connector-curvature="0" />
      <path
         d="M 4.1806236,4.7625003 V 1.5709636 h 0.7441406 q 0.6387208,0 0.9942547,0.3431316 0.4671549,0.4485514 0.4671549,1.2547038 0,0.7937501 -0.3948079,1.2257651 Q 5.6544355,4.7625003 4.986776,4.7625003 Z M 5.0425865,3.9914879 q 0.4630209,-0.022738 0.4630209,-0.7978842 0,-0.3824056 -0.1178223,-0.6035808 Q 5.2699628,2.3667807 5.0694583,2.3667807 h -0.026872 z"
         style="font-style:normal;font-variant:normal;font-weight:800;font-stretch:condensed;font-size:4.23333359px;font-family:Futura;-inkscape-font-specification:'Futura, Ultra-Bold Condensed';font-variant-ligatures:normal;font-variant-caps:normal;font-variant-numeric:normal;font-feature-settings:normal;text-align:start;writing-mode:lr-tb;text-anchor:start;stroke-width:0.26458335px"
         id="path897"
         inkscape:connector-curvature="0" />
    </g>
  </g>
</svg>
