<?xml version="1.0" encoding="UTF-8" standalone="no"?>
<!-- Created with Inkscape (http://www.inkscape.org/) -->

<svg
   xmlns:dc="http://purl.org/dc/elements/1.1/"
   xmlns:cc="http://creativecommons.org/ns#"
   xmlns:rdf="http://www.w3.org/1999/02/22-rdf-syntax-ns#"
   xmlns:svg="http://www.w3.org/2000/svg"
   xmlns="http://www.w3.org/2000/svg"
   xmlns:sodipodi="http://sodipodi.sourceforge.net/DTD/sodipodi-0.dtd"
   xmlns:inkscape="http://www.inkscape.org/namespaces/inkscape"
   width="180"
   height="380"
   viewBox="0 0 47.625 100.54167"
   version="1.1"
   id="svg8"
   inkscape:version="0.92.2 5c3e80d, 2017-08-06"
   sodipodi:docname="FixedVoltageSource.svg"
   inkscape:export-filename="E:\Users\Martin\Documents\Rack_Source\Rack\plugins\ML-modules\res\Quantum.png"
   inkscape:export-xdpi="96"
   inkscape:export-ydpi="96">
  <defs
     id="defs2">
    <inkscape:perspective
       sodipodi:type="inkscape:persp3d"
       inkscape:vp_x="0 : 50.270835 : 1"
       inkscape:vp_y="0 : 1000 : 0"
       inkscape:vp_z="31.75 : 50.270835 : 1"
       inkscape:persp3d-origin="15.875 : 33.51389 : 1"
       id="perspective4742" />
  </defs>
  <sodipodi:namedview
     id="base"
     pagecolor="#ffffff"
     bordercolor="#666666"
     borderopacity="1.0"
     inkscape:pageopacity="0.0"
     inkscape:pageshadow="2"
     inkscape:zoom="0.70710678"
     inkscape:cx="-213.5"
     inkscape:cy="159.27364"
     inkscape:document-units="px"
     inkscape:current-layer="layer2"
     showgrid="true"
     units="px"
     fit-margin-top="0"
     fit-margin-left="0"
     fit-margin-right="0"
     fit-margin-bottom="0"
     showguides="true"
     inkscape:snap-to-guides="false"
     objecttolerance="20"
     inkscape:window-width="1399"
     inkscape:window-height="830"
     inkscape:window-x="-9"
     inkscape:window-y="0"
     inkscape:window-maximized="0"
     gridtolerance="17"
     inkscape:snap-perpendicular="false"
     inkscape:pagecheckerboard="true"
     inkscape:snap-page="false"
     inkscape:snap-text-baseline="true">
    <inkscape:grid
       type="xygrid"
       id="grid43"
       originx="-7.3436628e-018"
       originy="100.54167"
       spacingx="0.52916668"
       spacingy="0.52916668"
       dotted="false"
       empspacing="20" />
  </sodipodi:namedview>
  <metadata
     id="metadata5">
    <rdf:RDF>
      <cc:Work
         rdf:about="">
        <dc:format>image/svg+xml</dc:format>
        <dc:type
           rdf:resource="http://purl.org/dc/dcmitype/StillImage" />
        <dc:title />
      </cc:Work>
    </rdf:RDF>
  </metadata>
  <g
     inkscape:groupmode="layer"
     id="layer2"
     inkscape:label="Layer 2"
     style="display:inline">
    <path
       style="fill:#501616;fill-opacity:1;stroke-width:0.3741774"
       d="M 0,-1.6666667e-6 H 47.625 V 100.54167 H 0 Z"
       id="rect4689"
       inkscape:connector-curvature="0" />
    <g
       aria-label="M"
       style="font-style:normal;font-variant:normal;font-weight:bold;font-stretch:normal;font-size:19.75555611px;line-height:1.25;font-family:Arial;-inkscape-font-specification:'Arial, Bold';font-variant-ligatures:normal;font-variant-caps:normal;font-variant-numeric:normal;font-feature-settings:normal;text-align:start;letter-spacing:0px;word-spacing:0px;writing-mode:lr-tb;text-anchor:start;fill:#000000;fill-opacity:1;stroke:none;stroke-width:0.26458335"
       id="text4720" />
    <text
       xml:space="preserve"
       style="font-style:normal;font-variant:normal;font-weight:normal;font-stretch:normal;font-size:2.82222247px;line-height:1.25;font-family:Arial;-inkscape-font-specification:'Arial, Normal';font-variant-ligatures:normal;font-variant-caps:normal;font-variant-numeric:normal;font-feature-settings:normal;text-align:start;letter-spacing:0px;word-spacing:0px;writing-mode:lr-tb;text-anchor:start;fill:#000000;fill-opacity:1;stroke:none;stroke-width:0.26458335"
       x="19.050001"
       y="20.637499"
       id="text989"><tspan
         sodipodi:role="line"
         id="tspan987"
         x="19.050001"
         y="23.179628"
         style="stroke-width:0.26458335" /></text>
    <rect
       style="fill:#ffffff;fill-opacity:1;stroke:none;stroke-width:0.26458335;stroke-opacity:1"
       id="rect842"
       width="6.2674704"
       height="0"
       x="-7.9512687"
       y="55.6404"
       ry="0" />
    <g
       aria-label="NYSTHI "
       transform="matrix(1.0049776,0,0,0.99504709,11.906249,1.3229084)"
       style="font-style:normal;font-variant:normal;font-weight:800;font-stretch:condensed;font-size:2.72452211px;line-height:1.25;font-family:Futura;-inkscape-font-specification:'Futura, Ultra-Bold Condensed';font-variant-ligatures:normal;font-variant-caps:normal;font-variant-numeric:normal;font-feature-settings:normal;text-align:start;letter-spacing:0px;word-spacing:0px;writing-mode:lr-tb;text-anchor:start;fill:#e6e6e6;fill-opacity:1;stroke:none;stroke-width:0.25542396px;stroke-linecap:butt;stroke-linejoin:miter;stroke-opacity:1"
       id="text80">
      <path
         d="m 7.8981869,98.347198 v -2.054034 h 0.5294725 l 0.2780396,0.721041 q 0.022616,0.06386 0.050553,0.146336 0.029267,0.08248 0.063856,0.190238 l 0.057204,0.180925 Q 8.8467143,97.264307 8.8307503,97.07407 8.8147863,96.883832 8.8147863,96.75479 v -0.461626 h 0.5294726 v 2.054034 H 8.8147863 L 8.5354164,97.591569 q -0.043901,-0.12106 -0.07982,-0.226156 -0.034589,-0.106427 -0.061195,-0.202211 0.017294,0.216844 0.025276,0.377815 0.00798,0.16097 0.00798,0.28203 v 0.524151 z"
         style="font-style:normal;font-variant:normal;font-weight:800;font-stretch:condensed;font-size:2.72452211px;font-family:Futura;-inkscape-font-specification:'Futura, Ultra-Bold Condensed';font-variant-ligatures:normal;font-variant-caps:normal;font-variant-numeric:normal;font-feature-settings:normal;text-align:start;writing-mode:lr-tb;text-anchor:start;fill:#e6e6e6;stroke-width:0.25542396px"
         id="path4726"
         inkscape:connector-curvature="0" />
      <path
         d="M 10.553532,98.347198 H 9.9987828 V 97.477161 L 9.4892652,96.293164 H 10.06796 l 0.09978,0.304647 q 0.02927,0.08913 0.05188,0.171612 0.02395,0.08248 0.04257,0.15831 0.0306,-0.113078 0.05321,-0.194229 0.02262,-0.08248 0.03991,-0.133033 l 0.101105,-0.307307 h 0.574704 l -0.477589,1.183997 z"
         style="font-style:normal;font-variant:normal;font-weight:800;font-stretch:condensed;font-size:2.72452211px;font-family:Futura;-inkscape-font-specification:'Futura, Ultra-Bold Condensed';font-variant-ligatures:normal;font-variant-caps:normal;font-variant-numeric:normal;font-feature-settings:normal;text-align:start;writing-mode:lr-tb;text-anchor:start;fill:#e6e6e6;stroke-width:0.25542396px"
         id="path4728"
         inkscape:connector-curvature="0" />
      <path
         d="m 11.084335,98.296646 v -0.645212 q 0.16363,0.223496 0.353868,0.223496 0.07184,0 0.117069,-0.03725 0.04523,-0.03858 0.04523,-0.09578 0,-0.08248 -0.09845,-0.16097 l -0.09046,-0.07051 q -0.09046,-0.06785 -0.154318,-0.134364 -0.06386,-0.06785 -0.103766,-0.138354 -0.03991,-0.07184 -0.05853,-0.147667 -0.01862,-0.07583 -0.01862,-0.15964 0,-0.143676 0.06652,-0.300655 0.03326,-0.07317 0.07716,-0.133034 0.0439,-0.0612 0.101106,-0.107757 0.156979,-0.133033 0.379145,-0.133033 0.198219,0 0.3991,0.105096 v 0.627917 q -0.06785,-0.105096 -0.154319,-0.164961 -0.08647,-0.06119 -0.170283,-0.06119 -0.06386,0 -0.105096,0.03725 -0.04257,0.03592 -0.04257,0.08647 0,0.08248 0.113079,0.163631 l 0.0878,0.06519 q 0.175604,0.126382 0.251433,0.259415 0.07716,0.133033 0.07716,0.311298 0,0.303316 -0.184916,0.500205 -0.184917,0.196889 -0.468278,0.196889 -0.195559,0 -0.419054,-0.08647 z"
         style="font-style:normal;font-variant:normal;font-weight:800;font-stretch:condensed;font-size:2.72452211px;font-family:Futura;-inkscape-font-specification:'Futura, Ultra-Bold Condensed';font-variant-ligatures:normal;font-variant-caps:normal;font-variant-numeric:normal;font-feature-settings:normal;text-align:start;writing-mode:lr-tb;text-anchor:start;fill:#e6e6e6;stroke-width:0.25542396px"
         id="path4730"
         inkscape:connector-curvature="0" />
      <path
         d="m 13.117084,98.347198 h -0.554749 v -1.561811 h -0.305977 v -0.492223 h 1.178675 v 0.492223 h -0.317949 z"
         style="font-style:normal;font-variant:normal;font-weight:800;font-stretch:condensed;font-size:2.72452211px;font-family:Futura;-inkscape-font-specification:'Futura, Ultra-Bold Condensed';font-variant-ligatures:normal;font-variant-caps:normal;font-variant-numeric:normal;font-feature-settings:normal;text-align:start;writing-mode:lr-tb;text-anchor:start;fill:#e6e6e6;stroke-width:0.25542396px"
         id="path4732"
         inkscape:connector-curvature="0" />
      <path
         d="m 14.955604,98.347198 h -0.554749 v -0.826136 h -0.264737 v 0.826136 H 13.58137 v -2.054034 h 0.554748 v 0.726362 h 0.264737 v -0.726362 h 0.554749 z"
         style="font-style:normal;font-variant:normal;font-weight:800;font-stretch:condensed;font-size:2.72452211px;font-family:Futura;-inkscape-font-specification:'Futura, Ultra-Bold Condensed';font-variant-ligatures:normal;font-variant-caps:normal;font-variant-numeric:normal;font-feature-settings:normal;text-align:start;writing-mode:lr-tb;text-anchor:start;fill:#e6e6e6;stroke-width:0.25542396px"
         id="path4734"
         inkscape:connector-curvature="0" />
      <path
         d="m 15.796374,98.347198 h -0.554749 v -2.054034 h 0.554749 z"
         style="font-style:normal;font-variant:normal;font-weight:800;font-stretch:condensed;font-size:2.72452211px;font-family:Futura;-inkscape-font-specification:'Futura, Ultra-Bold Condensed';font-variant-ligatures:normal;font-variant-caps:normal;font-variant-numeric:normal;font-feature-settings:normal;text-align:start;writing-mode:lr-tb;text-anchor:start;fill:#e6e6e6;stroke-width:0.25542396px"
         id="path4736"
         inkscape:connector-curvature="0" />
    </g>
    <text
       xml:space="preserve"
       style="font-style:normal;font-weight:normal;font-size:10.58333397px;line-height:1.25;font-family:'Bitstream Vera Sans';letter-spacing:0px;word-spacing:0px;fill:#000000;fill-opacity:1;stroke:none;stroke-width:0.26458335px;stroke-linecap:butt;stroke-linejoin:miter;stroke-opacity:1"
       x="30.691668"
       y="59.795834"
       id="text4987"><tspan
         sodipodi:role="line"
         id="tspan4985"
         x="30.691668"
         y="69.159607"
         style="stroke-width:0.26458335px" /></text>
    <text
       xml:space="preserve"
       style="font-style:normal;font-weight:normal;font-size:10.58333397px;line-height:1.25;font-family:'Bitstream Vera Sans';letter-spacing:0px;word-spacing:0px;fill:#000000;fill-opacity:1;stroke:none;stroke-width:0.26458335px;stroke-linecap:butt;stroke-linejoin:miter;stroke-opacity:1"
       x="-63.5"
       y="77.919792"
       id="text1321"><tspan
         sodipodi:role="line"
         id="tspan1319"
         x="-63.5"
         y="87.283562"
         style="stroke-width:0.26458335px" /></text>
    <flowRoot
       xml:space="preserve"
       id="flowRoot1498"
       style="font-style:normal;font-weight:normal;font-size:40px;line-height:1.25;font-family:'Bitstream Vera Sans';letter-spacing:0px;word-spacing:0px;fill:#000000;fill-opacity:1;stroke:none;stroke-width:1px;stroke-linecap:butt;stroke-linejoin:miter;stroke-opacity:1"
       transform="scale(0.26458334)"><flowRegion
         id="flowRegion1500"><rect
           id="rect1502"
           width="64.5"
           height="57.999996"
           x="-160"
           y="342" /></flowRegion><flowPara
         id="flowPara1504" /></flowRoot>    <rect
       y="-15.345767"
       x="8.8817842e-16"
       height="4.7625003"
       width="47.625"
       id="rect1149"
       style="fill:#4d4d4d;fill-opacity:0.78431373;stroke:none;stroke-width:0.37650865;stroke-miterlimit:4;stroke-dasharray:none;stroke-opacity:1"
       transform="scale(1,-1)" />
    <rect
       transform="scale(1,-1)"
       style="fill:#1a1a1a;fill-opacity:0.8627451;stroke:none;stroke-width:0.37650865;stroke-miterlimit:4;stroke-dasharray:none;stroke-opacity:1"
       id="rect1219"
       width="47.625"
       height="4.7625003"
       x="8.8817842e-16"
       y="-20.637438" />
    <rect
       transform="scale(1,-1)"
       style="fill:#4d4d4d;fill-opacity:0.78431373;stroke:none;stroke-width:0.37650865;stroke-miterlimit:4;stroke-dasharray:none;stroke-opacity:1"
       id="rect1223"
       width="47.625"
       height="4.7625003"
       x="8.8817842e-16"
       y="-25.92911" />
    <rect
       y="-31.220781"
       x="8.8817842e-16"
       height="4.7625003"
       width="47.625"
       id="rect1227"
       style="fill:#1a1a1a;fill-opacity:0.8627451;stroke:none;stroke-width:0.37650865;stroke-miterlimit:4;stroke-dasharray:none;stroke-opacity:1"
       transform="scale(1,-1)" />
    <rect
       transform="scale(1,-1)"
       style="fill:#4d4d4d;fill-opacity:0.78431373;stroke:none;stroke-width:0.37650865;stroke-miterlimit:4;stroke-dasharray:none;stroke-opacity:1"
       id="rect1231"
       width="47.625"
       height="4.7625003"
       x="8.8817842e-16"
       y="-36.512436" />
    <rect
       y="-41.804108"
       x="8.8817842e-16"
       height="4.7625003"
       width="47.625"
       id="rect1235"
       style="fill:#1a1a1a;fill-opacity:0.8627451;stroke:none;stroke-width:0.37650865;stroke-miterlimit:4;stroke-dasharray:none;stroke-opacity:1"
       transform="scale(1,-1)" />
    <rect
       y="-47.095787"
       x="8.8817842e-16"
       height="4.7625003"
       width="47.625"
       id="rect1239"
       style="fill:#4d4d4d;fill-opacity:0.78431373;stroke:none;stroke-width:0.37650865;stroke-miterlimit:4;stroke-dasharray:none;stroke-opacity:1"
       transform="scale(1,-1)" />
    <rect
       transform="scale(1,-1)"
       style="fill:#1a1a1a;fill-opacity:0.8627451;stroke:none;stroke-width:0.37650865;stroke-miterlimit:4;stroke-dasharray:none;stroke-opacity:1"
       id="rect1243"
       width="47.625"
       height="4.7625003"
       x="8.8817842e-16"
       y="-52.387466" />
    <rect
       transform="scale(1,-1)"
       style="fill:#4d4d4d;fill-opacity:0.78431373;stroke:none;stroke-width:0.37650865;stroke-miterlimit:4;stroke-dasharray:none;stroke-opacity:1"
       id="rect1247"
       width="47.625"
       height="4.7625003"
       x="8.8817842e-16"
       y="-57.679123" />
    <rect
       y="-62.970791"
       x="8.8817842e-16"
       height="4.7625003"
       width="47.625"
       id="rect1251"
       style="fill:#1a1a1a;fill-opacity:0.8627451;stroke:none;stroke-width:0.37650865;stroke-miterlimit:4;stroke-dasharray:none;stroke-opacity:1"
       transform="scale(1,-1)" />
    <rect
       y="-68.262466"
       x="8.8817842e-16"
       height="4.7625003"
       width="47.625"
       id="rect1255"
       style="fill:#4d4d4d;fill-opacity:0.78431373;stroke:none;stroke-width:0.37650865;stroke-miterlimit:4;stroke-dasharray:none;stroke-opacity:1"
       transform="scale(1,-1)" />
    <rect
       transform="scale(1,-1)"
       style="fill:#1a1a1a;fill-opacity:0.8627451;stroke:none;stroke-width:0.37650865;stroke-miterlimit:4;stroke-dasharray:none;stroke-opacity:1"
       id="rect1259"
       width="47.625"
       height="4.7625003"
       x="8.8817842e-16"
       y="-73.554146" />
    <rect
       y="-78.845802"
       x="8.8817842e-16"
       height="4.7625003"
       width="47.625"
       id="rect1263"
       style="fill:#4d4d4d;fill-opacity:0.78431373;stroke:none;stroke-width:0.37650865;stroke-miterlimit:4;stroke-dasharray:none;stroke-opacity:1"
       transform="scale(1,-1)" />
    <rect
       transform="scale(1,-1)"
       style="fill:#1a1a1a;fill-opacity:0.8627451;stroke:none;stroke-width:0.37650865;stroke-miterlimit:4;stroke-dasharray:none;stroke-opacity:1"
       id="rect1267"
       width="47.625"
       height="4.7625003"
       x="8.8817842e-16"
       y="-84.137474" />
    <rect
       transform="scale(1,-1)"
       style="fill:#4d4d4d;fill-opacity:0.78431373;stroke:none;stroke-width:0.37650865;stroke-miterlimit:4;stroke-dasharray:none;stroke-opacity:1"
       id="rect1271"
       width="47.625"
       height="4.7625003"
       x="8.8817842e-16"
       y="-89.429153" />
    <rect
       y="-94.720833"
       x="8.8817842e-16"
       height="4.7625003"
       width="47.625"
       id="rect1275"
       style="fill:#1a1a1a;fill-opacity:0.8627451;stroke:none;stroke-width:0.37650865;stroke-miterlimit:4;stroke-dasharray:none;stroke-opacity:1"
       transform="scale(1,-1)" />
    <g
       aria-label="FIXED VOLTAGE SOURCE"
       transform="scale(0.95847152,1.0433278)"
       style="font-style:normal;font-variant:normal;font-weight:800;font-stretch:condensed;font-size:4.73371315px;line-height:1.25;font-family:Futura;-inkscape-font-specification:'Futura, Ultra-Bold Condensed';font-variant-ligatures:normal;font-variant-caps:normal;font-variant-numeric:normal;font-feature-settings:normal;text-align:start;letter-spacing:0px;word-spacing:0px;writing-mode:lr-tb;text-anchor:start;fill:#ffffff;fill-opacity:1;stroke:none;stroke-width:0.25359181px;stroke-linecap:butt;stroke-linejoin:miter;stroke-opacity:1"
       id="text998">
      <path
         d="M 2.3440827,4.5023127 H 1.3802358 V 0.93353673 H 3.0837254 V 1.7725689 H 2.3440827 V 2.2926302 H 3.0328749 V 3.099303 H 2.3440827 Z"
         style="font-style:normal;font-variant:normal;font-weight:800;font-stretch:condensed;font-size:4.73371315px;font-family:Futura;-inkscape-font-specification:'Futura, Ultra-Bold Condensed';font-variant-ligatures:normal;font-variant-caps:normal;font-variant-numeric:normal;font-feature-settings:normal;text-align:start;writing-mode:lr-tb;text-anchor:start;fill:#ffffff;stroke-width:0.25359181px"
         id="path1001"
         inkscape:connector-curvature="0" />
      <path
         d="M 4.4243277,4.5023127 H 3.4604808 V 0.93353673 h 0.9638469 z"
         style="font-style:normal;font-variant:normal;font-weight:800;font-stretch:condensed;font-size:4.73371315px;font-family:Futura;-inkscape-font-specification:'Futura, Ultra-Bold Condensed';font-variant-ligatures:normal;font-variant-caps:normal;font-variant-numeric:normal;font-feature-settings:normal;text-align:start;writing-mode:lr-tb;text-anchor:start;fill:#ffffff;stroke-width:0.25359181px"
         id="path1003"
         inkscape:connector-curvature="0" />
      <path
         d="M 7.4383718,4.5023127 H 6.3682013 L 6.1902248,3.9938083 Q 6.1047036,3.7603586 6.0515418,3.5453999 6.0006913,3.7580472 5.8989905,4.0331018 L 5.7210139,4.5023127 H 4.6716459 L 5.5384146,2.6508946 4.7201849,0.93353673 H 5.7926668 L 5.9521523,1.4166159 q 0.025425,0.06703 0.048539,0.157174 0.025425,0.090144 0.050851,0.2034018 0.057785,-0.2311384 0.097078,-0.3559531 L 6.2965484,0.93353673 h 1.079416 L 6.5623575,2.6508946 Z"
         style="font-style:normal;font-variant:normal;font-weight:800;font-stretch:condensed;font-size:4.73371315px;font-family:Futura;-inkscape-font-specification:'Futura, Ultra-Bold Condensed';font-variant-ligatures:normal;font-variant-caps:normal;font-variant-numeric:normal;font-feature-settings:normal;text-align:start;writing-mode:lr-tb;text-anchor:start;fill:#ffffff;stroke-width:0.25359181px"
         id="path1005"
         inkscape:connector-curvature="0" />
      <path
         d="M 7.6856896,4.5023127 V 0.93353673 H 9.4770117 V 1.7725689 H 8.6495365 v 0.5200613 h 0.741954 V 3.099303 h -0.741954 v 0.5454864 h 0.8274752 v 0.8575233 z"
         style="font-style:normal;font-variant:normal;font-weight:800;font-stretch:condensed;font-size:4.73371315px;font-family:Futura;-inkscape-font-specification:'Futura, Ultra-Bold Condensed';font-variant-ligatures:normal;font-variant-caps:normal;font-variant-numeric:normal;font-feature-settings:normal;text-align:start;writing-mode:lr-tb;text-anchor:start;fill:#ffffff;stroke-width:0.25359181px"
         id="path1007"
         inkscape:connector-curvature="0" />
      <path
         d="M 9.8861267,4.5023127 V 0.93353673 h 0.8320983 q 0.714217,0 1.111775,0.38368967 0.522373,0.5015702 0.522373,1.4030097 0,0.8875712 -0.441475,1.3706503 -0.376755,0.4114263 -1.123332,0.4114263 z m 0.9638473,-0.862146 q 0.517749,-0.025425 0.517749,-0.892194 0,-0.4276059 -0.131748,-0.674924 -0.131749,-0.2496294 -0.355953,-0.2496294 h -0.03005 z"
         style="font-style:normal;font-variant:normal;font-weight:800;font-stretch:condensed;font-size:4.73371315px;font-family:Futura;-inkscape-font-specification:'Futura, Ultra-Bold Condensed';font-variant-ligatures:normal;font-variant-caps:normal;font-variant-numeric:normal;font-feature-settings:normal;text-align:start;writing-mode:lr-tb;text-anchor:start;fill:#ffffff;stroke-width:0.25359181px"
         id="path1009"
         inkscape:connector-curvature="0" />
      <path
         d="M 15.736238,4.5023127 H 14.7539 L 13.935671,0.93353673 h 1.012386 l 0.175665,1.01932007 q 0.09939,0.58478 0.159485,1.308243 0.02542,-0.3212823 0.06241,-0.6009597 0.03698,-0.2796774 0.08783,-0.5454865 l 0.228827,-1.18111687 h 1.047057 z"
         style="font-style:normal;font-variant:normal;font-weight:800;font-stretch:condensed;font-size:4.73371315px;font-family:Futura;-inkscape-font-specification:'Futura, Ultra-Bold Condensed';font-variant-ligatures:normal;font-variant-caps:normal;font-variant-numeric:normal;font-feature-settings:normal;text-align:start;writing-mode:lr-tb;text-anchor:start;fill:#ffffff;stroke-width:0.25359181px"
         id="path1011"
         inkscape:connector-curvature="0" />
      <path
         d="m 19.489925,2.7294816 q 0,0.8159183 -0.372133,1.3267341 -0.369821,0.5085043 -0.963847,0.5085043 -0.526995,0 -0.903751,-0.3906238 -0.473833,-0.494636 -0.473833,-1.4839081 0,-0.9476672 0.494636,-1.4492374 0.36751,-0.3721327 0.871391,-0.3721327 0.61714,0 0.982338,0.5038816 0.365199,0.5038815 0.365199,1.356782 z m -1.000829,0.00693 q 0,-0.9684697 -0.342085,-0.9684697 -0.171042,0 -0.272743,0.2542522 -0.09939,0.2357611 -0.09939,0.693415 0,0.4507198 0.09246,0.7003492 0.09477,0.247318 0.261186,0.247318 0.171043,0 0.263498,-0.2450066 0.09708,-0.2450067 0.09708,-0.6818581 z"
         style="font-style:normal;font-variant:normal;font-weight:800;font-stretch:condensed;font-size:4.73371315px;font-family:Futura;-inkscape-font-specification:'Futura, Ultra-Bold Condensed';font-variant-ligatures:normal;font-variant-caps:normal;font-variant-numeric:normal;font-feature-settings:normal;text-align:start;writing-mode:lr-tb;text-anchor:start;fill:#ffffff;stroke-width:0.25359181px"
         id="path1013"
         inkscape:connector-curvature="0" />
      <path
         d="M 21.58635,4.5023127 H 19.89904 V 0.93353673 h 0.963847 V 3.6447894 h 0.723463 z"
         style="font-style:normal;font-variant:normal;font-weight:800;font-stretch:condensed;font-size:4.73371315px;font-family:Futura;-inkscape-font-specification:'Futura, Ultra-Bold Condensed';font-variant-ligatures:normal;font-variant-caps:normal;font-variant-numeric:normal;font-feature-settings:normal;text-align:start;writing-mode:lr-tb;text-anchor:start;fill:#ffffff;stroke-width:0.25359181px"
         id="path1015"
         inkscape:connector-curvature="0" />
      <path
         d="M 23.021719,4.5023127 H 22.057872 V 1.7887486 H 21.526253 V 0.93353673 h 2.047886 V 1.7887486 h -0.55242 z"
         style="font-style:normal;font-variant:normal;font-weight:800;font-stretch:condensed;font-size:4.73371315px;font-family:Futura;-inkscape-font-specification:'Futura, Ultra-Bold Condensed';font-variant-ligatures:normal;font-variant-caps:normal;font-variant-numeric:normal;font-feature-settings:normal;text-align:start;writing-mode:lr-tb;text-anchor:start;fill:#ffffff;stroke-width:0.25359181px"
         id="path1017"
         inkscape:connector-curvature="0" />
      <path
         d="m 26.31544,4.5023127 h -0.996206 l -0.07165,-0.4530312 h -0.649498 l -0.07859,0.4530312 h -0.996207 l 0.857524,-3.56877597 h 1.178805 z m -1.181116,-1.2180991 -0.06241,-0.416049 q -0.0023,-0.00231 -0.0092,-0.062407 -0.0046,-0.05085 -0.04854,-0.4021807 -0.0046,-0.039294 -0.01156,-0.1063237 -0.0069,-0.069342 -0.01849,-0.1733537 l -0.03005,-0.337462 q -0.0046,0.048539 -0.01387,0.108635 -0.0069,0.060096 -0.01618,0.1317489 -0.01618,0.1433057 -0.02311,0.1987789 -0.0069,0.055473 -0.0092,0.06703 l -0.06703,0.4322286 -0.09708,0.5593548 z"
         style="font-style:normal;font-variant:normal;font-weight:800;font-stretch:condensed;font-size:4.73371315px;font-family:Futura;-inkscape-font-specification:'Futura, Ultra-Bold Condensed';font-variant-ligatures:normal;font-variant-caps:normal;font-variant-numeric:normal;font-feature-settings:normal;text-align:start;writing-mode:lr-tb;text-anchor:start;fill:#ffffff;stroke-width:0.25359181px"
         id="path1019"
         inkscape:connector-curvature="0" />
      <path
         d="m 27.834019,2.4382473 h 1.345225 v 0.1479285 q 0,1.030877 -0.307414,1.4839082 -0.335151,0.494636 -0.991583,0.494636 -0.644876,0 -1.012386,-0.4853905 -0.365199,-0.4900133 -0.365199,-1.3452251 0,-0.8667688 0.36751,-1.3660276 0.36751,-0.4992588 1.005452,-0.4992588 0.845966,0 1.227344,0.8829484 l -0.933799,0.3420848 q -0.0208,-0.168731 -0.09708,-0.2658091 -0.07396,-0.09939 -0.187222,-0.09939 -0.397558,0 -0.397558,1.0932843 0,0.4645881 0.08783,0.674924 0.08783,0.2103359 0.279677,0.2103359 0.07628,0 0.138683,-0.036982 0.06241,-0.036982 0.104013,-0.1040122 0.04392,-0.06703 0.06703,-0.1617968 0.02543,-0.097078 0.02543,-0.2149587 h -0.355953 z"
         style="font-style:normal;font-variant:normal;font-weight:800;font-stretch:condensed;font-size:4.73371315px;font-family:Futura;-inkscape-font-specification:'Futura, Ultra-Bold Condensed';font-variant-ligatures:normal;font-variant-caps:normal;font-variant-numeric:normal;font-feature-settings:normal;text-align:start;writing-mode:lr-tb;text-anchor:start;fill:#ffffff;stroke-width:0.25359181px"
         id="path1021"
         inkscape:connector-curvature="0" />
      <path
         d="M 29.588358,4.5023127 V 0.93353673 H 31.37968 V 1.7725689 h -0.827475 v 0.5200613 h 0.741954 V 3.099303 h -0.741954 v 0.5454864 h 0.827475 v 0.8575233 z"
         style="font-style:normal;font-variant:normal;font-weight:800;font-stretch:condensed;font-size:4.73371315px;font-family:Futura;-inkscape-font-specification:'Futura, Ultra-Bold Condensed';font-variant-ligatures:normal;font-variant-caps:normal;font-variant-numeric:normal;font-feature-settings:normal;text-align:start;writing-mode:lr-tb;text-anchor:start;fill:#ffffff;stroke-width:0.25359181px"
         id="path1023"
         inkscape:connector-curvature="0" />
      <path
         d="M 33.136333,4.4144801 V 3.2934592 q 0.2843,0.3883124 0.614828,0.3883124 0.124815,0 0.203402,-0.064719 0.07859,-0.06703 0.07859,-0.1664196 0,-0.1433057 -0.171043,-0.2796774 L 33.704933,3.0484525 Q 33.547759,2.930572 33.436813,2.8150028 33.325866,2.6971222 33.256525,2.5746189 33.187183,2.4498042 33.154824,2.3180554 q -0.03236,-0.1317489 -0.03236,-0.277366 0,-0.2496294 0.115569,-0.5223727 0.05778,-0.1271261 0.13406,-0.2311383 0.07628,-0.1063236 0.175665,-0.1872221 0.272743,-0.2311383 0.658744,-0.2311383 0.344396,0 0.693415,0.1825993 v 1.0909729 q -0.11788,-0.1825993 -0.26812,-0.2866115 -0.15024,-0.1063236 -0.295857,-0.1063236 -0.110947,0 -0.182599,0.064719 -0.07397,0.062407 -0.07397,0.1502399 0,0.1433058 0.196468,0.2843002 L 34.42839,2.361972 q 0.305103,0.2195814 0.436852,0.4507197 0.13406,0.2311384 0.13406,0.5408637 0,0.5269954 -0.321282,0.8690802 -0.321283,0.3420847 -0.813607,0.3420847 -0.339774,0 -0.728086,-0.1502399 z"
         style="font-style:normal;font-variant:normal;font-weight:800;font-stretch:condensed;font-size:4.73371315px;font-family:Futura;-inkscape-font-specification:'Futura, Ultra-Bold Condensed';font-variant-ligatures:normal;font-variant-caps:normal;font-variant-numeric:normal;font-feature-settings:normal;text-align:start;writing-mode:lr-tb;text-anchor:start;fill:#ffffff;stroke-width:0.25359181px"
         id="path1025"
         inkscape:connector-curvature="0" />
      <path
         d="m 37.999483,2.7294816 q 0,0.8159183 -0.372133,1.3267341 -0.369821,0.5085043 -0.963847,0.5085043 -0.526995,0 -0.903751,-0.3906238 -0.473833,-0.494636 -0.473833,-1.4839081 0,-0.9476672 0.494636,-1.4492374 0.36751,-0.3721327 0.871391,-0.3721327 0.61714,0 0.982338,0.5038816 0.365199,0.5038815 0.365199,1.356782 z m -1.000829,0.00693 q 0,-0.9684697 -0.342085,-0.9684697 -0.171042,0 -0.272743,0.2542522 -0.09939,0.2357611 -0.09939,0.693415 0,0.4507198 0.09246,0.7003492 0.09477,0.247318 0.261186,0.247318 0.171042,0 0.263498,-0.2450066 0.09708,-0.2450067 0.09708,-0.6818581 z"
         style="font-style:normal;font-variant:normal;font-weight:800;font-stretch:condensed;font-size:4.73371315px;font-family:Futura;-inkscape-font-specification:'Futura, Ultra-Bold Condensed';font-variant-ligatures:normal;font-variant-caps:normal;font-variant-numeric:normal;font-feature-settings:normal;text-align:start;writing-mode:lr-tb;text-anchor:start;fill:#ffffff;stroke-width:0.25359181px"
         id="path1027"
         inkscape:connector-curvature="0" />
      <path
         d="m 39.86477,0.93353673 h 0.963846 V 3.4575674 q 0,0.3166595 -0.09939,0.5131271 -0.09708,0.2057131 -0.323594,0.3721327 Q 40.10053,4.56472 39.663678,4.56472 q -0.494636,0 -0.829786,-0.2450066 Q 38.408598,4.0076766 38.408598,3.3211958 V 0.93353673 h 0.963847 V 3.2356746 q 0,0.2334497 0.05547,0.3305278 0.05779,0.097078 0.191845,0.097078 0.138683,0 0.191845,-0.090144 0.05316,-0.094767 0.05316,-0.3351505 z"
         style="font-style:normal;font-variant:normal;font-weight:800;font-stretch:condensed;font-size:4.73371315px;font-family:Futura;-inkscape-font-specification:'Futura, Ultra-Bold Condensed';font-variant-ligatures:normal;font-variant-caps:normal;font-variant-numeric:normal;font-feature-settings:normal;text-align:start;writing-mode:lr-tb;text-anchor:start;fill:#ffffff;stroke-width:0.25359181px"
         id="path1029"
         inkscape:connector-curvature="0" />
      <path
         d="M 43.868086,4.5023127 H 42.825652 L 42.349507,3.2310518 q -0.0069,-0.032359 -0.02543,-0.085521 -0.01618,-0.053162 -0.0416,-0.1271261 l 0.0069,0.2357611 v 1.2481469 h -0.95919 V 0.93353673 h 0.986961 q 0.65181,0 0.975403,0.25656357 0.411427,0.3282164 0.411427,0.9337989 0,0.6471873 -0.552421,0.8945053 z M 42.294034,2.5861758 h 0.06472 q 0.166419,0 0.277366,-0.127126 0.110946,-0.1271261 0.110946,-0.3235937 0,-0.3998693 -0.41836,-0.3998693 h -0.03467 z"
         style="font-style:normal;font-variant:normal;font-weight:800;font-stretch:condensed;font-size:4.73371315px;font-family:Futura;-inkscape-font-specification:'Futura, Ultra-Bold Condensed';font-variant-ligatures:normal;font-variant-caps:normal;font-variant-numeric:normal;font-feature-settings:normal;text-align:start;writing-mode:lr-tb;text-anchor:start;fill:#ffffff;stroke-width:0.25359181px"
         id="path1031"
         inkscape:connector-curvature="0" />
      <path
         d="M 46.137863,3.4044056 46.08239,4.4352825 Q 45.761108,4.56472 45.506856,4.56472 q -0.598649,0 -1.007764,-0.4391628 -0.457654,-0.4923247 -0.457654,-1.3937642 0,-0.8436549 0.429918,-1.3544707 0.429917,-0.5085043 1.148757,-0.5085043 0.23345,0 0.476145,0.0878326 v 1.01932 Q 45.8813,1.761012 45.654784,1.761012 q -0.295857,0 -0.462277,0.2519408 -0.166419,0.2542521 -0.166419,0.7026605 0,0.21727 0.0416,0.3883124 0.04161,0.1710424 0.11788,0.2889229 0.07859,0.1178806 0.191845,0.1802879 0.113258,0.062407 0.258875,0.062407 0.249629,0 0.50157,-0.2311383 z"
         style="font-style:normal;font-variant:normal;font-weight:800;font-stretch:condensed;font-size:4.73371315px;font-family:Futura;-inkscape-font-specification:'Futura, Ultra-Bold Condensed';font-variant-ligatures:normal;font-variant-caps:normal;font-variant-numeric:normal;font-feature-settings:normal;text-align:start;writing-mode:lr-tb;text-anchor:start;fill:#ffffff;stroke-width:0.25359181px"
         id="path1033"
         inkscape:connector-curvature="0" />
      <path
         d="M 46.516932,4.5023127 V 0.93353673 h 1.791322 V 1.7725689 h -0.827475 v 0.5200613 h 0.741954 V 3.099303 h -0.741954 v 0.5454864 h 0.827475 v 0.8575233 z"
         style="font-style:normal;font-variant:normal;font-weight:800;font-stretch:condensed;font-size:4.73371315px;font-family:Futura;-inkscape-font-specification:'Futura, Ultra-Bold Condensed';font-variant-ligatures:normal;font-variant-caps:normal;font-variant-numeric:normal;font-feature-settings:normal;text-align:start;writing-mode:lr-tb;text-anchor:start;fill:#ffffff;stroke-width:0.25359181px"
         id="path1035"
         inkscape:connector-curvature="0" />
    </g>
    <g
       aria-label="GATE - GLOBAL - VOLTAGE"
       transform="scale(0.87287157,1.1456439)"
       style="font-style:normal;font-variant:normal;font-weight:500;font-stretch:condensed;font-size:3.07929707px;line-height:1.25;font-family:Futura;-inkscape-font-specification:'Futura, Medium Condensed';font-variant-ligatures:normal;font-variant-caps:normal;font-variant-numeric:normal;font-feature-settings:normal;text-align:start;letter-spacing:0px;word-spacing:0px;writing-mode:lr-tb;text-anchor:start;fill:#ffffff;fill-opacity:1;stroke:none;stroke-width:0.23094727px;stroke-linecap:butt;stroke-linejoin:miter;stroke-opacity:1"
       id="text999">
      <path
         d="m 15.873113,6.6313116 h 0.568347 v 0.090214 q 0,0.6781069 -0.118782,0.9156699 -0.117277,0.2435772 -0.43904,0.2435772 -0.332287,0 -0.473622,-0.2706413 -0.139832,-0.2706414 -0.139832,-0.9096557 0,-0.7307316 0.153364,-0.9728052 0.144342,-0.2270381 0.443551,-0.2270381 0.228541,0 0.356344,0.1097601 0.129307,0.1112637 0.201478,0.3653659 L 16.13323,6.0975468 q -0.01955,-0.091717 -0.0436,-0.1533635 -0.02406,-0.06315 -0.05262,-0.097732 -0.05714,-0.070667 -0.171406,-0.070667 -0.15637,0 -0.213506,0.192456 -0.05714,0.2014775 -0.05714,0.7232138 0,0.5277507 0.05864,0.7141925 0.05864,0.1864418 0.221024,0.1864418 0.148852,0 0.208995,-0.1323135 0.06165,-0.141335 0.06165,-0.4540761 v -0.06315 -0.04661 h -0.272145 z"
         style="font-style:normal;font-variant:normal;font-weight:500;font-stretch:condensed;font-size:3.07929707px;font-family:Futura;-inkscape-font-specification:'Futura, Medium Condensed';font-variant-ligatures:normal;font-variant-caps:normal;font-variant-numeric:normal;font-feature-settings:normal;text-align:start;writing-mode:lr-tb;text-anchor:start;fill:#ffffff;stroke-width:0.23094727px"
         id="path1006"
         inkscape:connector-curvature="0" />
      <path
         d="m 17.084985,5.5307035 h 0.243577 l 0.49768,2.3215013 h -0.309734 l -0.08721,-0.4525725 h -0.46009 L 16.8805,7.8522048 h -0.300712 z m 0.299209,1.6268552 -0.06916,-0.3698765 q -0.06916,-0.3773943 -0.112767,-0.8059098 -0.02105,0.2089953 -0.05413,0.4240048 -0.03308,0.2135059 -0.07819,0.454076 l -0.05714,0.2977055 z"
         style="font-style:normal;font-variant:normal;font-weight:500;font-stretch:condensed;font-size:3.07929707px;font-family:Futura;-inkscape-font-specification:'Futura, Medium Condensed';font-variant-ligatures:normal;font-variant-caps:normal;font-variant-numeric:normal;font-feature-settings:normal;text-align:start;writing-mode:lr-tb;text-anchor:start;fill:#ffffff;stroke-width:0.23094727px"
         id="path1008"
         inkscape:connector-curvature="0" />
      <path
         d="M 17.778128,5.5307035 H 18.79604 V 5.804352 H 18.44571 V 7.8522048 H 18.138983 V 5.804352 h -0.360855 z"
         style="font-style:normal;font-variant:normal;font-weight:500;font-stretch:condensed;font-size:3.07929707px;font-family:Futura;-inkscape-font-specification:'Futura, Medium Condensed';font-variant-ligatures:normal;font-variant-caps:normal;font-variant-numeric:normal;font-feature-settings:normal;text-align:start;writing-mode:lr-tb;text-anchor:start;fill:#ffffff;stroke-width:0.23094727px"
         id="path1010"
         inkscape:connector-curvature="0" />
      <path
         d="m 18.967446,5.5307035 h 0.83147 v 0.2646271 h -0.518729 v 0.7352423 h 0.46009 V 6.7952 h -0.46009 v 0.7923777 h 0.518729 v 0.2646271 h -0.83147 z"
         style="font-style:normal;font-variant:normal;font-weight:500;font-stretch:condensed;font-size:3.07929707px;font-family:Futura;-inkscape-font-specification:'Futura, Medium Condensed';font-variant-ligatures:normal;font-variant-caps:normal;font-variant-numeric:normal;font-feature-settings:normal;text-align:start;writing-mode:lr-tb;text-anchor:start;fill:#ffffff;stroke-width:0.23094727px"
         id="path1012"
         inkscape:connector-curvature="0" />
      <path
         d="M 20.544683,6.9380385 H 21.09198 V 7.1725943 H 20.544683 Z"
         style="font-style:normal;font-variant:normal;font-weight:500;font-stretch:condensed;font-size:3.07929707px;font-family:Futura;-inkscape-font-specification:'Futura, Medium Condensed';font-variant-ligatures:normal;font-variant-caps:normal;font-variant-numeric:normal;font-feature-settings:normal;text-align:start;writing-mode:lr-tb;text-anchor:start;fill:#ffffff;stroke-width:0.23094727px"
         id="path1014"
         inkscape:connector-curvature="0" />
      <path
         d="m 22.464734,6.6313116 h 0.568346 v 0.090214 q 0,0.6781069 -0.118781,0.9156699 -0.117278,0.2435772 -0.439041,0.2435772 -0.332287,0 -0.473622,-0.2706413 -0.139831,-0.2706414 -0.139831,-0.9096557 0,-0.7307316 0.153363,-0.9728052 0.144342,-0.2270381 0.443551,-0.2270381 0.228542,0 0.356345,0.1097601 0.129306,0.1112637 0.201477,0.3653659 L 22.72485,6.0975468 q -0.01955,-0.091717 -0.0436,-0.1533635 -0.02406,-0.06315 -0.05262,-0.097732 -0.05713,-0.070667 -0.171406,-0.070667 -0.156371,0 -0.213506,0.192456 -0.05714,0.2014775 -0.05714,0.7232138 0,0.5277507 0.05864,0.7141925 0.05864,0.1864418 0.221024,0.1864418 0.148853,0 0.208995,-0.1323135 0.06165,-0.141335 0.06165,-0.4540761 v -0.06315 -0.04661 h -0.272144 z"
         style="font-style:normal;font-variant:normal;font-weight:500;font-stretch:condensed;font-size:3.07929707px;font-family:Futura;-inkscape-font-specification:'Futura, Medium Condensed';font-variant-ligatures:normal;font-variant-caps:normal;font-variant-numeric:normal;font-feature-settings:normal;text-align:start;writing-mode:lr-tb;text-anchor:start;fill:#ffffff;stroke-width:0.23094727px"
         id="path1016"
         inkscape:connector-curvature="0" />
      <path
         d="m 23.345822,5.5307035 h 0.312741 v 2.0568742 h 0.511211 v 0.2646271 h -0.823952 z"
         style="font-style:normal;font-variant:normal;font-weight:500;font-stretch:condensed;font-size:3.07929707px;font-family:Futura;-inkscape-font-specification:'Futura, Medium Condensed';font-variant-ligatures:normal;font-variant-caps:normal;font-variant-numeric:normal;font-feature-settings:normal;text-align:start;writing-mode:lr-tb;text-anchor:start;fill:#ffffff;stroke-width:0.23094727px"
         id="path1018"
         inkscape:connector-curvature="0" />
      <path
         d="m 25.530499,6.7485895 q 0,0.6149573 -0.136824,0.8735702 -0.136825,0.2586128 -0.458587,0.2586128 -0.338302,0 -0.47663,-0.2781592 -0.136824,-0.2721449 -0.136824,-0.966791 0,-0.6194679 0.135321,-0.8765772 0.136824,-0.2586129 0.463097,-0.2586129 0.291691,0 0.433026,0.1999739 0.09322,0.1338171 0.135321,0.3804015 0.0421,0.2285415 0.0421,0.6675819 z m -0.327777,0.033078 q 0,-0.6029287 -0.05413,-0.7998955 -0.05413,-0.1984703 -0.221024,-0.1984703 -0.166895,0 -0.222527,0.1819311 -0.05413,0.1834347 -0.05413,0.7367459 0,0.5097079 0.05714,0.7066746 0.05864,0.1864418 0.21952,0.1864418 0.157874,0 0.216513,-0.1744133 0.05864,-0.1729097 0.05864,-0.6390143 z"
         style="font-style:normal;font-variant:normal;font-weight:500;font-stretch:condensed;font-size:3.07929707px;font-family:Futura;-inkscape-font-specification:'Futura, Medium Condensed';font-variant-ligatures:normal;font-variant-caps:normal;font-variant-numeric:normal;font-feature-settings:normal;text-align:start;writing-mode:lr-tb;text-anchor:start;fill:#ffffff;stroke-width:0.23094727px"
         id="path1020"
         inkscape:connector-curvature="0" />
      <path
         d="m 25.841736,5.5307035 h 0.424005 q 0.497679,0 0.497679,0.6179644 0,0.2360594 -0.06465,0.3503302 -0.06465,0.1142708 -0.228541,0.1729097 0.187945,0.075178 0.257109,0.1924561 0.07067,0.1157743 0.07067,0.3488266 0,0.6390143 -0.547297,0.6390143 h -0.408969 z m 0.294699,1.0224229 q 0.181931,0 0.252598,-0.0842 0.07067,-0.08871 0.07067,-0.3112375 0,-0.3758908 -0.270642,-0.3758908 h -0.02406 -0.01353 q -0.01203,0 -0.01504,0.0015 z m 0,1.0314442 q 0.192456,0 0.26613,-0.082696 0.07368,-0.082696 0.07368,-0.299209 0,-0.2225274 -0.07668,-0.3112376 -0.07518,-0.090214 -0.263123,-0.090214 z"
         style="font-style:normal;font-variant:normal;font-weight:500;font-stretch:condensed;font-size:3.07929707px;font-family:Futura;-inkscape-font-specification:'Futura, Medium Condensed';font-variant-ligatures:normal;font-variant-caps:normal;font-variant-numeric:normal;font-feature-settings:normal;text-align:start;writing-mode:lr-tb;text-anchor:start;fill:#ffffff;stroke-width:0.23094727px"
         id="path1022"
         inkscape:connector-curvature="0" />
      <path
         d="m 27.453556,5.5307035 h 0.243577 l 0.497679,2.3215013 h -0.309734 l -0.08721,-0.4525725 h -0.46009 l -0.08871,0.4525725 h -0.300713 z m 0.299209,1.6268552 -0.06916,-0.3698765 q -0.06916,-0.3773943 -0.112768,-0.8059098 -0.02105,0.2089953 -0.05413,0.4240048 -0.03308,0.2135059 -0.07819,0.454076 l -0.05714,0.2977055 z"
         style="font-style:normal;font-variant:normal;font-weight:500;font-stretch:condensed;font-size:3.07929707px;font-family:Futura;-inkscape-font-specification:'Futura, Medium Condensed';font-variant-ligatures:normal;font-variant-caps:normal;font-variant-numeric:normal;font-feature-settings:normal;text-align:start;writing-mode:lr-tb;text-anchor:start;fill:#ffffff;stroke-width:0.23094727px"
         id="path1024"
         inkscape:connector-curvature="0" />
      <path
         d="m 28.379751,5.5307035 h 0.312741 v 2.0568742 h 0.511211 v 0.2646271 h -0.823952 z"
         style="font-style:normal;font-variant:normal;font-weight:500;font-stretch:condensed;font-size:3.07929707px;font-family:Futura;-inkscape-font-specification:'Futura, Medium Condensed';font-variant-ligatures:normal;font-variant-caps:normal;font-variant-numeric:normal;font-feature-settings:normal;text-align:start;writing-mode:lr-tb;text-anchor:start;fill:#ffffff;stroke-width:0.23094727px"
         id="path1026"
         inkscape:connector-curvature="0" />
      <path
         d="m 29.86076,6.9380385 h 0.547297 V 7.1725943 H 29.86076 Z"
         style="font-style:normal;font-variant:normal;font-weight:500;font-stretch:condensed;font-size:3.07929707px;font-family:Futura;-inkscape-font-specification:'Futura, Medium Condensed';font-variant-ligatures:normal;font-variant-caps:normal;font-variant-numeric:normal;font-feature-settings:normal;text-align:start;writing-mode:lr-tb;text-anchor:start;fill:#ffffff;stroke-width:0.23094727px"
         id="path1028"
         inkscape:connector-curvature="0" />
      <path
         d="m 31.039553,5.5307035 h 0.308231 l 0.139831,0.8570309 0.02406,0.154867 0.04962,0.3367981 q 0.01203,0.085703 0.02105,0.1563706 0.01052,0.070667 0.01804,0.1278028 l 0.01504,0.1142708 q 0.0045,-0.034582 0.0075,-0.061646 0.003,-0.027064 0.006,-0.045107 l 0.0406,-0.2691378 0.05262,-0.3533373 q 0.0075,-0.048114 0.01353,-0.08871 0.0075,-0.040596 0.01353,-0.072171 l 0.150356,-0.8570309 h 0.291692 l -0.45558,2.3215013 h -0.248088 z"
         style="font-style:normal;font-variant:normal;font-weight:500;font-stretch:condensed;font-size:3.07929707px;font-family:Futura;-inkscape-font-specification:'Futura, Medium Condensed';font-variant-ligatures:normal;font-variant-caps:normal;font-variant-numeric:normal;font-feature-settings:normal;text-align:start;writing-mode:lr-tb;text-anchor:start;fill:#ffffff;stroke-width:0.23094727px"
         id="path1030"
         inkscape:connector-curvature="0" />
      <path
         d="m 33.529455,6.7485895 q 0,0.6149573 -0.136825,0.8735702 -0.136824,0.2586128 -0.458586,0.2586128 -0.338302,0 -0.47663,-0.2781592 -0.136824,-0.2721449 -0.136824,-0.966791 0,-0.6194679 0.135321,-0.8765772 0.136824,-0.2586129 0.463097,-0.2586129 0.291691,0 0.433026,0.1999739 0.09322,0.1338171 0.135321,0.3804015 0.0421,0.2285415 0.0421,0.6675819 z m -0.327777,0.033078 q 0,-0.6029287 -0.05413,-0.7998955 -0.05413,-0.1984703 -0.221023,-0.1984703 -0.166896,0 -0.222528,0.1819311 -0.05413,0.1834347 -0.05413,0.7367459 0,0.5097079 0.05714,0.7066746 0.05864,0.1864418 0.21952,0.1864418 0.157874,0 0.216513,-0.1744133 0.05864,-0.1729097 0.05864,-0.6390143 z"
         style="font-style:normal;font-variant:normal;font-weight:500;font-stretch:condensed;font-size:3.07929707px;font-family:Futura;-inkscape-font-specification:'Futura, Medium Condensed';font-variant-ligatures:normal;font-variant-caps:normal;font-variant-numeric:normal;font-feature-settings:normal;text-align:start;writing-mode:lr-tb;text-anchor:start;fill:#ffffff;stroke-width:0.23094727px"
         id="path1032"
         inkscape:connector-curvature="0" />
      <path
         d="m 33.840692,5.5307035 h 0.312741 v 2.0568742 h 0.511211 v 0.2646271 h -0.823952 z"
         style="font-style:normal;font-variant:normal;font-weight:500;font-stretch:condensed;font-size:3.07929707px;font-family:Futura;-inkscape-font-specification:'Futura, Medium Condensed';font-variant-ligatures:normal;font-variant-caps:normal;font-variant-numeric:normal;font-feature-settings:normal;text-align:start;writing-mode:lr-tb;text-anchor:start;fill:#ffffff;stroke-width:0.23094727px"
         id="path1034"
         inkscape:connector-curvature="0" />
      <path
         d="M 34.624048,5.5307035 H 35.64196 V 5.804352 H 35.29163 V 7.8522048 H 34.984903 V 5.804352 h -0.360855 z"
         style="font-style:normal;font-variant:normal;font-weight:500;font-stretch:condensed;font-size:3.07929707px;font-family:Futura;-inkscape-font-specification:'Futura, Medium Condensed';font-variant-ligatures:normal;font-variant-caps:normal;font-variant-numeric:normal;font-feature-settings:normal;text-align:start;writing-mode:lr-tb;text-anchor:start;fill:#ffffff;stroke-width:0.23094727px"
         id="path1036"
         inkscape:connector-curvature="0" />
      <path
         d="m 36.10205,5.5307035 h 0.243577 l 0.49768,2.3215013 h -0.309734 l -0.08721,-0.4525725 h -0.46009 l -0.08871,0.4525725 H 35.59685 Z m 0.299209,1.6268552 -0.06916,-0.3698765 q -0.06916,-0.3773943 -0.112767,-0.8059098 -0.02105,0.2089953 -0.05413,0.4240048 -0.03308,0.2135059 -0.07818,0.454076 l -0.05714,0.2977055 z"
         style="font-style:normal;font-variant:normal;font-weight:500;font-stretch:condensed;font-size:3.07929707px;font-family:Futura;-inkscape-font-specification:'Futura, Medium Condensed';font-variant-ligatures:normal;font-variant-caps:normal;font-variant-numeric:normal;font-feature-settings:normal;text-align:start;writing-mode:lr-tb;text-anchor:start;fill:#ffffff;stroke-width:0.23094727px"
         id="path1038"
         inkscape:connector-curvature="0" />
      <path
         d="m 37.57855,6.6313116 h 0.568347 v 0.090214 q 0,0.6781069 -0.118782,0.9156699 -0.117278,0.2435772 -0.43904,0.2435772 -0.332288,0 -0.473623,-0.2706413 -0.139831,-0.2706414 -0.139831,-0.9096557 0,-0.7307316 0.153363,-0.9728052 0.144343,-0.2270381 0.443552,-0.2270381 0.228541,0 0.356344,0.1097601 0.129306,0.1112637 0.201477,0.3653659 L 37.838666,6.097547 q -0.01955,-0.091717 -0.0436,-0.1533635 -0.02406,-0.06315 -0.05262,-0.097732 -0.05714,-0.070667 -0.171406,-0.070667 -0.156371,0 -0.213506,0.192456 -0.05714,0.2014775 -0.05714,0.7232138 0,0.5277507 0.05864,0.7141925 0.05864,0.1864418 0.221023,0.1864418 0.148853,0 0.208996,-0.1323135 0.06165,-0.141335 0.06165,-0.4540761 V 6.942549 6.895939 H 37.57855 Z"
         style="font-style:normal;font-variant:normal;font-weight:500;font-stretch:condensed;font-size:3.07929707px;font-family:Futura;-inkscape-font-specification:'Futura, Medium Condensed';font-variant-ligatures:normal;font-variant-caps:normal;font-variant-numeric:normal;font-feature-settings:normal;text-align:start;writing-mode:lr-tb;text-anchor:start;fill:#ffffff;stroke-width:0.23094727px"
         id="path1040"
         inkscape:connector-curvature="0" />
      <path
         d="m 38.459636,5.5307035 h 0.83147 v 0.2646271 h -0.518729 v 0.7352423 h 0.460091 V 6.7952 h -0.460091 v 0.7923777 h 0.518729 v 0.2646271 h -0.83147 z"
         style="font-style:normal;font-variant:normal;font-weight:500;font-stretch:condensed;font-size:3.07929707px;font-family:Futura;-inkscape-font-specification:'Futura, Medium Condensed';font-variant-ligatures:normal;font-variant-caps:normal;font-variant-numeric:normal;font-feature-settings:normal;text-align:start;writing-mode:lr-tb;text-anchor:start;fill:#ffffff;stroke-width:0.23094727px"
         id="path1042"
         inkscape:connector-curvature="0" />
    </g>
  </g>
</svg>
