<?xml version="1.0" encoding="UTF-8" standalone="no"?>
<!-- Created with Inkscape (http://www.inkscape.org/) -->

<svg
   xmlns:dc="http://purl.org/dc/elements/1.1/"
   xmlns:cc="http://creativecommons.org/ns#"
   xmlns:rdf="http://www.w3.org/1999/02/22-rdf-syntax-ns#"
   xmlns:svg="http://www.w3.org/2000/svg"
   xmlns="http://www.w3.org/2000/svg"
   xmlns:sodipodi="http://sodipodi.sourceforge.net/DTD/sodipodi-0.dtd"
   xmlns:inkscape="http://www.inkscape.org/namespaces/inkscape"
   width="15"
   height="380"
   viewBox="0 0 3.96875 100.54167"
   version="1.1"
   id="svg8"
   inkscape:version="0.92.2 5c3e80d, 2017-08-06"
   sodipodi:docname="M1.svg"
   inkscape:export-filename="E:\Users\Martin\Documents\Rack_Source\Rack\plugins\ML-modules\res\Quantum.png"
   inkscape:export-xdpi="96"
   inkscape:export-ydpi="96">
  <sodipodi:namedview
     id="base"
     pagecolor="#ffffff"
     bordercolor="#666666"
     borderopacity="1.0"
     inkscape:pageopacity="0.0"
     inkscape:pageshadow="2"
     inkscape:zoom="0.7071068"
     inkscape:cx="-200.28177"
     inkscape:cy="264.46534"
     inkscape:document-units="px"
     inkscape:current-layer="layer2"
     showgrid="true"
     units="px"
     fit-margin-top="0"
     fit-margin-left="0"
     fit-margin-right="0"
     fit-margin-bottom="0"
     showguides="true"
     inkscape:snap-to-guides="false"
     objecttolerance="20"
     inkscape:window-width="1440"
     inkscape:window-height="757"
     inkscape:window-x="80"
     inkscape:window-y="0"
     inkscape:window-maximized="0"
     gridtolerance="17"
     inkscape:snap-perpendicular="false"
     inkscape:pagecheckerboard="true"
     inkscape:snap-page="false"
     inkscape:snap-text-baseline="true">
    <inkscape:grid
       empspacing="20"
       dotted="false"
       spacingy="0.52916668"
       spacingx="0.52916668"
       originy="100.54167"
       originx="-7.3436628e-018"
       id="grid43"
       type="xygrid" />
  </sodipodi:namedview>
  <defs
     id="defs2">
    <inkscape:perspective
       id="perspective4742"
       inkscape:persp3d-origin="15.875 : 33.51389 : 1"
       inkscape:vp_z="31.75 : 50.270835 : 1"
       inkscape:vp_y="0 : 1000 : 0"
       inkscape:vp_x="0 : 50.270835 : 1"
       sodipodi:type="inkscape:persp3d" />
    <filter
       id="filter1636"
       x="-0.25"
       width="1.5"
       y="-0.25"
       height="1.5"
       inkscape:menu="Non-realistic 3D Shaders"
       inkscape:menu-tooltip="Deep and dark metal shading"
       inkscape:label="Deep Metal"
       style="color-interpolation-filters:sRGB">
      <feGaussianBlur
         id="feGaussianBlur1616"
         in="SourceGraphic"
         stdDeviation="5"
         result="result8" />
      <feComposite
         id="feComposite1618"
         in2="result8"
         operator="xor"
         result="result19" />
      <feComposite
         id="feComposite1620"
         k2="1"
         operator="arithmetic"
         result="result17"
         in2="result8"
         k1="0"
         k3="0"
         k4="0" />
      <feComposite
         id="feComposite1622"
         in2="result17"
         result="result6"
         operator="xor" />
      <feOffset
         id="feOffset1624"
         result="result18"
         in="result6" />
      <feDisplacementMap
         id="feDisplacementMap1626"
         in2="result17"
         in="result18"
         xChannelSelector="A"
         yChannelSelector="A"
         scale="100"
         result="result4" />
      <feComposite
         id="feComposite1628"
         in="result4"
         in2="result4"
         result="result2"
         operator="arithmetic"
         k3="1"
         k1="0"
         k2="0"
         k4="0" />
      <feComposite
         id="feComposite1630"
         in2="result2"
         result="fbSourceGraphic"
         in="result2"
         operator="over" />
      <feComposite
         id="feComposite1632"
         in="fbSourceGraphic"
         in2="SourceGraphic"
         operator="xor"
         result="result15" />
      <feComposite
         id="feComposite1634"
         result="result16"
         in2="result8"
         operator="in"
         in="result15" />
    </filter>
  </defs>
  <metadata
     id="metadata5">
    <rdf:RDF>
      <cc:Work
         rdf:about="">
        <dc:format>image/svg+xml</dc:format>
        <dc:type
           rdf:resource="http://purl.org/dc/dcmitype/StillImage" />
        <dc:title />
      </cc:Work>
    </rdf:RDF>
  </metadata>
  <g
     style="display:inline"
     inkscape:label="Layer 2"
     id="layer2"
     inkscape:groupmode="layer">
    <g
       id="text4720"
       style="font-style:normal;font-variant:normal;font-weight:bold;font-stretch:normal;font-size:19.75555611px;line-height:1.25;font-family:Arial;-inkscape-font-specification:'Arial, Bold';font-variant-ligatures:normal;font-variant-caps:normal;font-variant-numeric:normal;font-feature-settings:normal;text-align:start;letter-spacing:0px;word-spacing:0px;writing-mode:lr-tb;text-anchor:start;fill:#000000;fill-opacity:1;stroke:none;stroke-width:0.26458335"
       aria-label="M" />
    <text
       id="text989"
       y="20.637499"
       x="19.050001"
       style="font-style:normal;font-variant:normal;font-weight:normal;font-stretch:normal;font-size:2.82222247px;line-height:1.25;font-family:Arial;-inkscape-font-specification:'Arial, Normal';font-variant-ligatures:normal;font-variant-caps:normal;font-variant-numeric:normal;font-feature-settings:normal;text-align:start;letter-spacing:0px;word-spacing:0px;writing-mode:lr-tb;text-anchor:start;fill:#000000;fill-opacity:1;stroke:none;stroke-width:0.26458335"
       xml:space="preserve"><tspan
         style="stroke-width:0.26458335"
         y="23.179628"
         x="19.050001"
         id="tspan987"
         sodipodi:role="line" /></text>
    <rect
       ry="0"
       y="55.6404"
       x="-7.9512687"
       height="0"
       width="6.2674704"
       id="rect842"
       style="fill:#ffffff;fill-opacity:1;stroke:none;stroke-width:0.26458335;stroke-opacity:1" />
    <path
       style="fill:#b7c4c8;fill-opacity:1;stroke-width:0.1080157"
       d="M -0.06976341,-3.3333334e-6 H 3.8989867 V 100.54167 h -3.96875011 z"
       id="rect4689"
       inkscape:connector-curvature="0" />
    <g
       transform="translate(-6.6797608,2.9461583)"
       id="g957">
      <g
         id="g947">
        <path
           d="m 7.9375009,96.80176 v -2.043861 h 0.532108 l 0.2794236,0.71747 q 0.022729,0.06354 0.050805,0.145611 0.029413,0.08207 0.064174,0.189296 l 0.057489,0.180029 q -0.03075,-0.266073 -0.046793,-0.455368 -0.016043,-0.189295 -0.016043,-0.317698 v -0.45934 H 9.3907709 V 96.80176 H 8.8586628 L 8.5779023,96.049873 q -0.04412,-0.12046 -0.080217,-0.225036 -0.034761,-0.105899 -0.0615,-0.201209 0.01738,0.21577 0.025402,0.375944 0.00802,0.160172 0.00802,0.280633 v 0.521555 z"
           style="font-style:normal;font-variant:normal;font-weight:800;font-stretch:condensed;font-size:2.72452211px;line-height:1.25;font-family:Futura;-inkscape-font-specification:'Futura, Ultra-Bold Condensed';font-variant-ligatures:normal;font-variant-caps:normal;font-variant-numeric:normal;font-feature-settings:normal;text-align:start;letter-spacing:0px;word-spacing:0px;writing-mode:lr-tb;text-anchor:start;fill:#e6e6e6;fill-opacity:1;stroke:none;stroke-width:0.25542396px;stroke-linecap:butt;stroke-linejoin:miter;stroke-opacity:1"
           id="path4726"
           inkscape:connector-curvature="0" />
      </g>
    </g>
    <text
       id="text4987"
       y="59.795834"
       x="30.691668"
       style="font-style:normal;font-weight:normal;font-size:10.58333397px;line-height:1.25;font-family:'Bitstream Vera Sans';letter-spacing:0px;word-spacing:0px;fill:#000000;fill-opacity:1;stroke:none;stroke-width:0.26458335px;stroke-linecap:butt;stroke-linejoin:miter;stroke-opacity:1"
       xml:space="preserve"><tspan
         style="stroke-width:0.26458335px"
         y="69.159607"
         x="30.691668"
         id="tspan4985"
         sodipodi:role="line" /></text>
    <text
       xml:space="preserve"
       style="font-style:normal;font-weight:normal;font-size:10.58333397px;line-height:1.25;font-family:'Bitstream Vera Sans';letter-spacing:0px;word-spacing:0px;fill:#000000;fill-opacity:1;stroke:none;stroke-width:0.26458335px;stroke-linecap:butt;stroke-linejoin:miter;stroke-opacity:1"
       x="-36.247917"
       y="57.811459"
       id="text1042"><tspan
         sodipodi:role="line"
         id="tspan1040"
         x="-36.247917"
         y="67.175232"
         style="stroke-width:0.26458335px" /></text>
    <g
       aria-label="in signal"
       style="font-style:normal;font-variant:normal;font-weight:800;font-stretch:condensed;font-size:2.82222223px;line-height:1.25;font-family:Futura;-inkscape-font-specification:'Futura, Ultra-Bold Condensed';font-variant-ligatures:normal;font-variant-caps:normal;font-variant-numeric:normal;font-feature-settings:normal;text-align:start;letter-spacing:0px;word-spacing:0px;writing-mode:lr-tb;text-anchor:start;fill:#ffffff;fill-opacity:1;stroke:none;stroke-width:0.26458335px;stroke-linecap:butt;stroke-linejoin:miter;stroke-opacity:1"
       id="text1328"
       transform="translate(-51.096279,17.094564)" />
    <g
       transform="translate(-24.855675,3.7041699)"
       id="g1749"
       style="font-style:normal;font-variant:normal;font-weight:500;font-stretch:condensed;font-size:2.82222223px;line-height:1.25;font-family:Futura;-inkscape-font-specification:'Futura, Medium Condensed';font-variant-ligatures:normal;font-variant-caps:normal;font-variant-numeric:normal;font-feature-settings:normal;text-align:start;letter-spacing:0px;word-spacing:0px;writing-mode:lr-tb;text-anchor:start;fill:#000000;fill-opacity:1;stroke:none;stroke-width:0.26458335px;stroke-linecap:butt;stroke-linejoin:miter;stroke-opacity:1"
       aria-label="OCTAVE" />
    <g
       transform="translate(-31.471686,12.838492)"
       id="g1805"
       style="font-style:normal;font-variant:normal;font-weight:500;font-stretch:condensed;font-size:2.11666679px;line-height:1.25;font-family:Futura;-inkscape-font-specification:'Futura, Medium Condensed';font-variant-ligatures:normal;font-variant-caps:normal;font-variant-numeric:normal;font-feature-settings:normal;text-align:start;letter-spacing:0px;word-spacing:0px;writing-mode:lr-tb;text-anchor:start;fill:#000000;fill-opacity:1;stroke:none;stroke-width:0.26458335px;stroke-linecap:butt;stroke-linejoin:miter;stroke-opacity:1"
       aria-label="UNI" />
    <g
       aria-label="OUT"
       transform="matrix(1.3324445,0,0,0.97626704,-0.59531284,-7.2012633)"
       style="font-style:normal;font-variant:normal;font-weight:500;font-stretch:condensed;font-size:2.10375047px;line-height:1.25;font-family:Futura;-inkscape-font-specification:'Futura, Medium Condensed';font-variant-ligatures:normal;font-variant-caps:normal;font-variant-numeric:normal;font-feature-settings:normal;text-align:start;letter-spacing:0px;word-spacing:0px;writing-mode:lr-tb;text-anchor:start;fill:#000000;fill-opacity:1;stroke:none;stroke-width:0.22540186px;stroke-linecap:butt;stroke-linejoin:miter;stroke-opacity:1"
       id="text1059">
      <path
         d="m 1.4712386,92.514688 q 0,0.420134 -0.093477,0.596816 -0.093477,0.176682 -0.3133027,0.176682 -0.23112495,0 -0.32562936,-0.190036 -0.0934772,-0.185927 -0.0934772,-0.660503 0,-0.423216 0.09245,-0.598871 0.0934772,-0.176682 0.31638436,-0.176682 0.199281,0 0.2958399,0.136621 0.063688,0.09142 0.09245,0.259887 0.028762,0.156137 0.028762,0.456086 z m -0.2239344,0.0226 q 0,-0.411916 -0.03698,-0.546482 -0.03698,-0.135593 -0.1510016,-0.135593 -0.11402166,0 -0.15202887,0.124294 -0.03698,0.125321 -0.03698,0.503338 0,0.348229 0.0390344,0.482795 0.0400617,0.127375 0.14997447,0.127375 0.1078583,0 0.1479199,-0.119158 0.040062,-0.11813 0.040062,-0.436569 z"
         style="font-style:normal;font-variant:normal;font-weight:500;font-stretch:condensed;font-size:2.10375047px;font-family:Futura;-inkscape-font-specification:'Futura, Medium Condensed';font-variant-ligatures:normal;font-variant-caps:normal;font-variant-numeric:normal;font-feature-settings:normal;text-align:start;writing-mode:lr-tb;text-anchor:start;stroke-width:0.22540186px"
         id="path1061"
         inkscape:connector-curvature="0" />
      <path
         d="m 1.6838735,91.682639 h 0.2095533 v 1.120699 q 0,0.171546 0.030817,0.228043 0.031844,0.0565 0.125321,0.0565 0.093477,0 0.1232667,-0.04931 0.030817,-0.05033 0.030817,-0.204417 v -1.151515 h 0.2095533 v 1.151515 q 0,0.25886 -0.079096,0.350283 -0.094504,0.103749 -0.2886494,0.103749 -0.2136621,0 -0.300976,-0.133539 -0.060606,-0.09142 -0.060606,-0.351309 z"
         style="font-style:normal;font-variant:normal;font-weight:500;font-stretch:condensed;font-size:2.10375047px;font-family:Futura;-inkscape-font-specification:'Futura, Medium Condensed';font-variant-ligatures:normal;font-variant-caps:normal;font-variant-numeric:normal;font-feature-settings:normal;text-align:start;writing-mode:lr-tb;text-anchor:start;stroke-width:0.22540186px"
         id="path1063"
         inkscape:connector-curvature="0" />
      <path
         d="m 2.5313316,91.682639 h 0.6954292 v 0.186954 H 2.9874181 v 1.399076 H 2.7778649 V 91.869593 H 2.5313316 Z"
         style="font-style:normal;font-variant:normal;font-weight:500;font-stretch:condensed;font-size:2.10375047px;font-family:Futura;-inkscape-font-specification:'Futura, Medium Condensed';font-variant-ligatures:normal;font-variant-caps:normal;font-variant-numeric:normal;font-feature-settings:normal;text-align:start;writing-mode:lr-tb;text-anchor:start;stroke-width:0.22540186px"
         id="path1065"
         inkscape:connector-curvature="0" />
    </g>
    <g
       aria-label="CH 1"
       transform="scale(1.0546172,0.94821135)"
       style="font-style:normal;font-variant:normal;font-weight:500;font-stretch:condensed;font-size:2.16462851px;line-height:1.25;font-family:Futura;-inkscape-font-specification:'Futura, Medium Condensed';font-variant-ligatures:normal;font-variant-caps:normal;font-variant-numeric:normal;font-feature-settings:normal;text-align:start;letter-spacing:0px;word-spacing:0px;writing-mode:lr-tb;text-anchor:start;fill:#000000;fill-opacity:1;stroke:none;stroke-width:0.2319245px;stroke-linecap:butt;stroke-linejoin:miter;stroke-opacity:1"
       id="text934">
      <path
         d="m 1.1750374,5.3502682 v 0.1976492 q -0.084556,-0.041221 -0.1416309,-0.041221 -0.0782142,0 -0.13423238,0.039107 -0.0560182,0.03805 -0.0930114,0.1183781 -0.0359362,0.080328 -0.0539043,0.2039909 -0.0169112,0.1226059 -0.0169112,0.2906605 0,0.604574 0.30968568,0.604574 0.053904,0 0.1300045,-0.033822 v 0.201877 q -0.079271,0.044392 -0.1775672,0.044392 -0.49570838,0 -0.49570838,-0.8096217 0,-0.4375763 0.12049201,-0.6510797 0.12154897,-0.2135034 0.37098858,-0.2135034 0.0919544,0 0.18179499,0.048619 z"
         style="font-style:normal;font-variant:normal;font-weight:500;font-stretch:condensed;font-size:2.16462851px;font-family:Futura;-inkscape-font-specification:'Futura, Medium Condensed';font-variant-ligatures:normal;font-variant-caps:normal;font-variant-numeric:normal;font-feature-settings:normal;text-align:start;writing-mode:lr-tb;text-anchor:start;stroke-width:0.2319245px"
         id="path958"
         inkscape:connector-curvature="0" />
      <path
         d="m 1.3589463,5.3238445 h 0.2198451 v 0.6383963 h 0.322369 V 5.3238445 H 2.1210055 V 6.9557714 H 1.9011604 V 6.1482635 H 1.5787914 V 6.9557714 H 1.3589463 Z"
         style="font-style:normal;font-variant:normal;font-weight:500;font-stretch:condensed;font-size:2.16462851px;font-family:Futura;-inkscape-font-specification:'Futura, Medium Condensed';font-variant-ligatures:normal;font-variant-caps:normal;font-variant-numeric:normal;font-feature-settings:normal;text-align:start;writing-mode:lr-tb;text-anchor:start;stroke-width:0.2319245px"
         id="path960"
         inkscape:connector-curvature="0" />
      <path
         d="M 2.8894064,5.3238445 H 3.2614519 V 6.9557714 H 3.0511194 V 5.5109242 h -0.161713 z"
         style="font-style:normal;font-variant:normal;font-weight:500;font-stretch:condensed;font-size:2.16462851px;font-family:Futura;-inkscape-font-specification:'Futura, Medium Condensed';font-variant-ligatures:normal;font-variant-caps:normal;font-variant-numeric:normal;font-feature-settings:normal;text-align:start;writing-mode:lr-tb;text-anchor:start;stroke-width:0.2319245px"
         id="path962"
         inkscape:connector-curvature="0" />
    </g>
    <g
       aria-label="CH 2"
       transform="matrix(1.0546172,0,0,0.94821135,0,-5.291667)"
       style="font-style:normal;font-variant:normal;font-weight:500;font-stretch:condensed;font-size:2.16462851px;line-height:1.25;font-family:Futura;-inkscape-font-specification:'Futura, Medium Condensed';font-variant-ligatures:normal;font-variant-caps:normal;font-variant-numeric:normal;font-feature-settings:normal;text-align:start;letter-spacing:0px;word-spacing:0px;writing-mode:lr-tb;text-anchor:start;fill:#000000;fill-opacity:1;stroke:none;stroke-width:0.2319245px;stroke-linecap:butt;stroke-linejoin:miter;stroke-opacity:1"
       id="text938">
      <path
         d="m 1.1750374,34.369812 v 0.197649 q -0.084556,-0.04122 -0.1416309,-0.04122 -0.0782142,0 -0.13423238,0.03911 -0.0560182,0.03805 -0.0930114,0.118378 -0.0359362,0.08033 -0.0539043,0.203991 -0.0169112,0.122606 -0.0169112,0.290661 0,0.604574 0.30968568,0.604574 0.053904,0 0.1300045,-0.03382 v 0.201877 q -0.079271,0.04439 -0.1775672,0.04439 -0.49570838,0 -0.49570838,-0.809622 0,-0.437576 0.12049201,-0.651079 0.12154897,-0.213504 0.37098858,-0.213504 0.0919544,0 0.18179499,0.04862 z"
         style="font-style:normal;font-variant:normal;font-weight:500;font-stretch:condensed;font-size:2.16462851px;font-family:Futura;-inkscape-font-specification:'Futura, Medium Condensed';font-variant-ligatures:normal;font-variant-caps:normal;font-variant-numeric:normal;font-feature-settings:normal;text-align:start;writing-mode:lr-tb;text-anchor:start;stroke-width:0.2319245px"
         id="path951"
         inkscape:connector-curvature="0" />
      <path
         d="m 1.3589463,34.343388 h 0.2198451 v 0.638396 h 0.322369 v -0.638396 h 0.2198451 v 1.631927 H 1.9011604 v -0.807508 h -0.322369 v 0.807508 H 1.3589463 Z"
         style="font-style:normal;font-variant:normal;font-weight:500;font-stretch:condensed;font-size:2.16462851px;font-family:Futura;-inkscape-font-specification:'Futura, Medium Condensed';font-variant-ligatures:normal;font-variant-caps:normal;font-variant-numeric:normal;font-feature-settings:normal;text-align:start;writing-mode:lr-tb;text-anchor:start;stroke-width:0.2319245px"
         id="path953"
         inkscape:connector-curvature="0" />
      <path
         d="M 3.0151832,34.873976 H 2.7995659 l -0.00211,-0.06447 q 0,-0.267408 0.080328,-0.376273 0.081385,-0.109923 0.2726924,-0.109923 0.3604192,0 0.3604192,0.399526 0,0.269522 -0.2695217,0.776857 l -0.1300045,0.244155 q -0.00106,0.0021 -0.00634,0.01268 -0.00528,0.01057 -0.014797,0.03065 h 0.403754 v 0.188137 H 2.77737 q 0.017968,-0.04016 0.075043,-0.159599 0.057075,-0.119435 0.1553712,-0.322369 0.083499,-0.177567 0.1395171,-0.30123 0.056018,-0.123663 0.084556,-0.202934 0.057075,-0.158542 0.057075,-0.273749 0,-0.202934 -0.140574,-0.202934 -0.1352893,0 -0.1352893,0.251553 l 0.00106,0.09301 z"
         style="font-style:normal;font-variant:normal;font-weight:500;font-stretch:condensed;font-size:2.16462851px;font-family:Futura;-inkscape-font-specification:'Futura, Medium Condensed';font-variant-ligatures:normal;font-variant-caps:normal;font-variant-numeric:normal;font-feature-settings:normal;text-align:start;writing-mode:lr-tb;text-anchor:start;stroke-width:0.2319245px"
         id="path955"
         inkscape:connector-curvature="0" />
    </g>
    <g
       aria-label="CH 3"
       transform="matrix(1.0546172,0,0,0.94821135,0,-10.583334)"
       style="font-style:normal;font-variant:normal;font-weight:500;font-stretch:condensed;font-size:2.16462851px;line-height:1.25;font-family:Futura;-inkscape-font-specification:'Futura, Medium Condensed';font-variant-ligatures:normal;font-variant-caps:normal;font-variant-numeric:normal;font-feature-settings:normal;text-align:start;letter-spacing:0px;word-spacing:0px;writing-mode:lr-tb;text-anchor:start;fill:#000000;fill-opacity:1;stroke:none;stroke-width:0.2319245px;stroke-linecap:butt;stroke-linejoin:miter;stroke-opacity:1"
       id="text942">
      <path
         d="m 1.1750374,63.389355 v 0.197649 q -0.084556,-0.04122 -0.1416309,-0.04122 -0.0782142,0 -0.13423238,0.03911 -0.0560182,0.03805 -0.0930114,0.118378 -0.0359362,0.08033 -0.0539043,0.203991 -0.0169112,0.122606 -0.0169112,0.29066 0,0.604574 0.30968568,0.604574 0.053904,0 0.1300045,-0.03382 v 0.201877 q -0.079271,0.04439 -0.1775672,0.04439 -0.49570838,0 -0.49570838,-0.809622 0,-0.437576 0.12049201,-0.65108 0.12154897,-0.213503 0.37098858,-0.213503 0.0919544,0 0.18179499,0.04862 z"
         style="font-style:normal;font-variant:normal;font-weight:500;font-stretch:condensed;font-size:2.16462851px;font-family:Futura;-inkscape-font-specification:'Futura, Medium Condensed';font-variant-ligatures:normal;font-variant-caps:normal;font-variant-numeric:normal;font-feature-settings:normal;text-align:start;writing-mode:lr-tb;text-anchor:start;stroke-width:0.2319245px"
         id="path944"
         inkscape:connector-curvature="0" />
      <path
         d="m 1.3589463,63.362931 h 0.2198451 v 0.638396 h 0.322369 v -0.638396 h 0.2198451 v 1.631927 H 1.9011604 V 64.18735 h -0.322369 v 0.807508 H 1.3589463 Z"
         style="font-style:normal;font-variant:normal;font-weight:500;font-stretch:condensed;font-size:2.16462851px;font-family:Futura;-inkscape-font-specification:'Futura, Medium Condensed';font-variant-ligatures:normal;font-variant-caps:normal;font-variant-numeric:normal;font-feature-settings:normal;text-align:start;writing-mode:lr-tb;text-anchor:start;stroke-width:0.2319245px"
         id="path946"
         inkscape:connector-curvature="0" />
      <path
         d="M 3.0236387,63.800507 H 2.8143631 v -0.04334 q 0,-0.108865 0.017968,-0.187079 0.019025,-0.07822 0.058132,-0.128948 0.040164,-0.05073 0.1014669,-0.07399 0.061303,-0.02431 0.1469157,-0.02431 0.1796811,0 0.262123,0.101467 0.082442,0.101467 0.082442,0.322369 0,0.181795 -0.03805,0.262123 -0.036993,0.08138 -0.1426879,0.123663 0.1141503,0.03911 0.1574852,0.121549 0.043335,0.08139 0.043335,0.261066 0,0.246268 -0.093011,0.362533 -0.093011,0.116264 -0.2896036,0.116264 -0.3361093,0 -0.3361093,-0.385786 v -0.01691 -0.01163 q 0,-0.01163 0.00106,-0.0148 h 0.2061047 q -0.00106,0.01797 -0.00211,0.03171 0,0.01268 0,0.02114 0,0.0835 0.035936,0.133175 0.036993,0.04968 0.1004101,0.04968 0.041221,0 0.069758,-0.01585 0.029594,-0.01691 0.047563,-0.05285 0.019025,-0.03699 0.027481,-0.09513 0.00846,-0.05813 0.00846,-0.140574 0,-0.14903 -0.045449,-0.214561 -0.044392,-0.06553 -0.1490296,-0.06553 -0.011626,0 -0.025367,0.0021 -0.01374,0.0011 -0.031709,0.0032 v -0.19025 h 0.030651 q 0.1278907,0 0.1733394,-0.05496 0.045449,-0.05496 0.045449,-0.208218 0,-0.253668 -0.1278907,-0.253668 -0.1268337,0 -0.1268337,0.216675 z"
         style="font-style:normal;font-variant:normal;font-weight:500;font-stretch:condensed;font-size:2.16462851px;font-family:Futura;-inkscape-font-specification:'Futura, Medium Condensed';font-variant-ligatures:normal;font-variant-caps:normal;font-variant-numeric:normal;font-feature-settings:normal;text-align:start;writing-mode:lr-tb;text-anchor:start;stroke-width:0.2319245px"
         id="path948"
         inkscape:connector-curvature="0" />
    </g>
    <g
       aria-label="CHAIN"
       transform="matrix(0.98948112,0,0,1.0106307,0,-3.1750002)"
       style="font-style:normal;font-variant:normal;font-weight:500;font-stretch:condensed;font-size:2.03093505px;line-height:1.25;font-family:Futura;-inkscape-font-specification:'Futura, Medium Condensed';font-variant-ligatures:normal;font-variant-caps:normal;font-variant-numeric:normal;font-feature-settings:normal;text-align:start;letter-spacing:0px;word-spacing:0px;writing-mode:lr-tb;text-anchor:start;fill:#000000;fill-opacity:1;stroke:none;stroke-width:0.2176002px;stroke-linecap:butt;stroke-linejoin:miter;stroke-opacity:1"
       id="text945">
      <path
         d="m 0.76539023,74.135076 v 0.185441 q -0.0793334,-0.03867 -0.13288345,-0.03867 -0.0733834,0 -0.12594177,0.03669 -0.0525584,0.0357 -0.0872667,0.111067 -0.0337167,0.07537 -0.050575,0.191392 -0.0158667,0.115033 -0.0158667,0.272708 0,0.567234 0.29055858,0.567234 0.050575,0 0.12197511,-0.03173 v 0.189408 q -0.0743751,0.04165 -0.16660015,0.04165 -0.46509206,0 -0.46509206,-0.759617 0,-0.410551 0.1130501,-0.610867 0.11404176,-0.200317 0.34807529,-0.200317 0.0862751,0 0.17056682,0.04562 z"
         style="font-style:normal;font-variant:normal;font-weight:500;font-stretch:condensed;font-size:2.03093505px;font-family:Futura;-inkscape-font-specification:'Futura, Medium Condensed';font-variant-ligatures:normal;font-variant-caps:normal;font-variant-numeric:normal;font-feature-settings:normal;text-align:start;writing-mode:lr-tb;text-anchor:start;stroke-width:0.2176002px"
         id="path947"
         inkscape:connector-curvature="0" />
      <path
         d="m 0.9379404,74.110284 h 0.2062668 v 0.598967 h 0.3024586 v -0.598967 h 0.2062669 v 1.531134 H 1.4466658 V 74.883784 H 1.1442072 v 0.757634 H 0.9379404 Z"
         style="font-style:normal;font-variant:normal;font-weight:500;font-stretch:condensed;font-size:2.03093505px;font-family:Futura;-inkscape-font-specification:'Futura, Medium Condensed';font-variant-ligatures:normal;font-variant-caps:normal;font-variant-numeric:normal;font-feature-settings:normal;text-align:start;writing-mode:lr-tb;text-anchor:start;stroke-width:0.2176002px"
         id="path949"
         inkscape:connector-curvature="0" />
      <path
         d="m 2.1081081,74.110284 h 0.1606501 l 0.328242,1.531134 H 2.3927167 L 2.3352,75.342927 H 2.0317497 l -0.058508,0.298491 H 1.7749078 Z m 0.1973418,1.072984 -0.045617,-0.24395 q -0.045617,-0.248909 -0.074375,-0.531534 -0.013883,0.137842 -0.0357,0.27965 -0.021817,0.140817 -0.051567,0.299484 l -0.037683,0.19635 z"
         style="font-style:normal;font-variant:normal;font-weight:500;font-stretch:condensed;font-size:2.03093505px;font-family:Futura;-inkscape-font-specification:'Futura, Medium Condensed';font-variant-ligatures:normal;font-variant-caps:normal;font-variant-numeric:normal;font-feature-settings:normal;text-align:start;writing-mode:lr-tb;text-anchor:start;stroke-width:0.2176002px"
         id="path952"
         inkscape:connector-curvature="0" />
      <path
         d="m 2.7189751,74.110284 h 0.2062668 v 1.531134 H 2.7189751 Z"
         style="font-style:normal;font-variant:normal;font-weight:500;font-stretch:condensed;font-size:2.03093505px;font-family:Futura;-inkscape-font-specification:'Futura, Medium Condensed';font-variant-ligatures:normal;font-variant-caps:normal;font-variant-numeric:normal;font-feature-settings:normal;text-align:start;writing-mode:lr-tb;text-anchor:start;stroke-width:0.2176002px"
         id="path954"
         inkscape:connector-curvature="0" />
      <path
         d="m 3.1632424,74.110284 h 0.1923835 l 0.2052751,0.610867 q 0.08925,0.258825 0.1576752,0.552359 -0.024792,-0.177509 -0.036692,-0.3213 -0.0119,-0.143792 -0.0119,-0.270726 v -0.5712 H 3.877243 v 1.531134 H 3.6838678 L 3.4528093,74.95221 q -0.031733,-0.09619 -0.060492,-0.197342 -0.027767,-0.10115 -0.051567,-0.212217 -0.00198,-0.01388 -0.00694,-0.03372 -0.00397,-0.01983 -0.00992,-0.04562 0.00298,0.02578 0.00496,0.04462 0.00198,0.01785 0.00298,0.03074 l 0.010908,0.155692 0.010908,0.189408 q 9.917e-4,0.01587 9.917e-4,0.03868 9.917e-4,0.02281 9.917e-4,0.05157 l 0.010908,0.667392 H 3.1632424 Z"
         style="font-style:normal;font-variant:normal;font-weight:500;font-stretch:condensed;font-size:2.03093505px;font-family:Futura;-inkscape-font-specification:'Futura, Medium Condensed';font-variant-ligatures:normal;font-variant-caps:normal;font-variant-numeric:normal;font-feature-settings:normal;text-align:start;writing-mode:lr-tb;text-anchor:start;stroke-width:0.2176002px"
         id="path956"
         inkscape:connector-curvature="0" />
    </g>
    <g
       aria-label="M1"
       transform="matrix(0.79998342,0,0,1.2434976,0,0.02487247)"
       style="font-style:normal;font-variant:normal;font-weight:800;font-stretch:condensed;font-size:3.38673687px;line-height:1.25;font-family:Futura;-inkscape-font-specification:'Futura, Ultra-Bold Condensed';font-variant-ligatures:normal;font-variant-caps:normal;font-variant-numeric:normal;font-feature-settings:normal;text-align:start;letter-spacing:0px;word-spacing:0px;writing-mode:lr-tb;text-anchor:start;fill:#000000;fill-opacity:1;stroke:none;stroke-width:0.21167105px;stroke-linecap:butt;stroke-linejoin:miter;stroke-opacity:1"
       id="text951">
      <path
         d="M 3.0229272,3.809921 H 2.3019227 L 2.2506586,2.6457302 2.2291608,2.1810461 Q 2.217585,2.3149942 2.2027019,2.4373665 2.1878188,2.5580852 2.166321,2.6721891 L 1.9496889,3.809921 H 1.3874376 L 1.2022254,2.6705354 Q 1.1856886,2.5713146 1.1575761,2.3298773 1.1542687,2.2934964 1.142693,2.1810461 L 1.1261562,2.6523449 1.06497,3.809921 H 0.33073603 L 0.62839845,1.2566389 H 1.4866584 l 0.1438702,0.8599137 q 0.01819,0.1058355 0.03142,0.2298615 0.014883,0.124026 0.026459,0.2695499 0.021498,-0.243091 0.059532,-0.4349179 L 1.92323,1.2566389 h 0.8516452 z"
         style="font-style:normal;font-variant:normal;font-weight:800;font-stretch:condensed;font-size:3.38673687px;font-family:Futura;-inkscape-font-specification:'Futura, Ultra-Bold Condensed';font-variant-ligatures:normal;font-variant-caps:normal;font-variant-numeric:normal;font-feature-settings:normal;text-align:start;writing-mode:lr-tb;text-anchor:start;stroke-width:0.21167105px"
         id="path957"
         inkscape:connector-curvature="0" />
      <path
         d="M 4.6303043,3.809921 H 3.9407197 V 1.8569248 H 3.6645552 V 1.2566389 h 0.9657491 z"
         style="font-style:normal;font-variant:normal;font-weight:800;font-stretch:condensed;font-size:3.38673687px;font-family:Futura;-inkscape-font-specification:'Futura, Ultra-Bold Condensed';font-variant-ligatures:normal;font-variant-caps:normal;font-variant-numeric:normal;font-feature-settings:normal;text-align:start;writing-mode:lr-tb;text-anchor:start;stroke-width:0.21167105px"
         id="path959"
         inkscape:connector-curvature="0" />
    </g>
  </g>
</svg>
