<?xml version="1.0" encoding="UTF-8" standalone="no"?>
<!-- Created with Inkscape (http://www.inkscape.org/) -->

<svg
   xmlns:dc="http://purl.org/dc/elements/1.1/"
   xmlns:cc="http://creativecommons.org/ns#"
   xmlns:rdf="http://www.w3.org/1999/02/22-rdf-syntax-ns#"
   xmlns:svg="http://www.w3.org/2000/svg"
   xmlns="http://www.w3.org/2000/svg"
   xmlns:sodipodi="http://sodipodi.sourceforge.net/DTD/sodipodi-0.dtd"
   xmlns:inkscape="http://www.inkscape.org/namespaces/inkscape"
   width="60"
   height="380"
   viewBox="0 0 15.875 100.54167"
   version="1.1"
   id="svg8"
   inkscape:version="0.92.2 5c3e80d, 2017-08-06"
   sodipodi:docname="NYSTHIBLANK.svg"
   inkscape:export-filename="E:\Users\Martin\Documents\Rack_Source\Rack\plugins\ML-modules\res\Quantum.png"
   inkscape:export-xdpi="96"
   inkscape:export-ydpi="96">
  <sodipodi:namedview
     id="base"
     pagecolor="#ffffff"
     bordercolor="#666666"
     borderopacity="1.0"
     inkscape:pageopacity="0.0"
     inkscape:pageshadow="2"
     inkscape:zoom="1"
     inkscape:cx="-180.5"
     inkscape:cy="182.56552"
     inkscape:document-units="px"
     inkscape:current-layer="layer2"
     showgrid="true"
     units="px"
     fit-margin-top="0"
     fit-margin-left="0"
     fit-margin-right="0"
     fit-margin-bottom="0"
     showguides="true"
     inkscape:snap-to-guides="false"
     objecttolerance="20"
     inkscape:window-width="1221"
     inkscape:window-height="767"
     inkscape:window-x="142"
     inkscape:window-y="5"
     inkscape:window-maximized="0"
     gridtolerance="17"
     inkscape:snap-perpendicular="false"
     inkscape:pagecheckerboard="true"
     inkscape:snap-page="false"
     inkscape:snap-text-baseline="true">
    <inkscape:grid
       empspacing="20"
       dotted="false"
       spacingy="0.52916668"
       spacingx="0.52916668"
       originy="100.54167"
       originx="-7.3436628e-018"
       id="grid43"
       type="xygrid" />
  </sodipodi:namedview>
  <defs
     id="defs2">
    <inkscape:perspective
       id="perspective4742"
       inkscape:persp3d-origin="15.875 : 33.51389 : 1"
       inkscape:vp_z="31.75 : 50.270835 : 1"
       inkscape:vp_y="0 : 1000 : 0"
       inkscape:vp_x="0 : 50.270835 : 1"
       sodipodi:type="inkscape:persp3d" />
    <filter
       id="filter1636"
       x="-0.25"
       width="1.5"
       y="-0.25"
       height="1.5"
       inkscape:menu="Non-realistic 3D Shaders"
       inkscape:menu-tooltip="Deep and dark metal shading"
       inkscape:label="Deep Metal"
       style="color-interpolation-filters:sRGB">
      <feGaussianBlur
         id="feGaussianBlur1616"
         in="SourceGraphic"
         stdDeviation="5"
         result="result8" />
      <feComposite
         id="feComposite1618"
         in2="result8"
         operator="xor"
         result="result19" />
      <feComposite
         id="feComposite1620"
         k2="1"
         operator="arithmetic"
         result="result17"
         in2="result8"
         k1="0"
         k3="0"
         k4="0" />
      <feComposite
         id="feComposite1622"
         in2="result17"
         result="result6"
         operator="xor" />
      <feOffset
         id="feOffset1624"
         result="result18"
         in="result6" />
      <feDisplacementMap
         id="feDisplacementMap1626"
         in2="result17"
         in="result18"
         xChannelSelector="A"
         yChannelSelector="A"
         scale="100"
         result="result4" />
      <feComposite
         id="feComposite1628"
         in="result4"
         in2="result4"
         result="result2"
         operator="arithmetic"
         k3="1"
         k1="0"
         k2="0"
         k4="0" />
      <feComposite
         id="feComposite1630"
         in2="result2"
         result="fbSourceGraphic"
         in="result2"
         operator="over" />
      <feComposite
         id="feComposite1632"
         in="fbSourceGraphic"
         in2="SourceGraphic"
         operator="xor"
         result="result15" />
      <feComposite
         id="feComposite1634"
         result="result16"
         in2="result8"
         operator="in"
         in="result15" />
    </filter>
  </defs>
  <metadata
     id="metadata5">
    <rdf:RDF>
      <cc:Work
         rdf:about="">
        <dc:format>image/svg+xml</dc:format>
        <dc:type
           rdf:resource="http://purl.org/dc/dcmitype/StillImage" />
        <dc:title />
      </cc:Work>
    </rdf:RDF>
  </metadata>
  <g
     style="display:inline"
     inkscape:label="Layer 2"
     id="layer2"
     inkscape:groupmode="layer">
    <rect
       y="-6.2806193e-06"
       x="0"
       height="100.54167"
       width="15.875"
       id="bgnd"
       style="fill:#b7c4c8;fill-opacity:1;stroke-width:0.2160314"
       inkscape:label="#rect4689" />
    <g
       transform="translate(-3.9687515,2.3812418)"
       id="g957">
      <g
         id="g947">
        <g
           id="text80"
           style="font-style:normal;font-variant:normal;font-weight:800;font-stretch:condensed;font-size:2.72452211px;line-height:1.25;font-family:Futura;-inkscape-font-specification:'Futura, Ultra-Bold Condensed';font-variant-ligatures:normal;font-variant-caps:normal;font-variant-numeric:normal;font-feature-settings:normal;text-align:start;letter-spacing:0px;word-spacing:0px;writing-mode:lr-tb;text-anchor:start;fill:#e6e6e6;fill-opacity:1;stroke:none;stroke-width:0.25542396px;stroke-linecap:butt;stroke-linejoin:miter;stroke-opacity:1"
           transform="matrix(1.0049776,0,0,0.99504709,0,-1.0583334)"
           aria-label="NYSTHI ">
          <path
             inkscape:connector-curvature="0"
             id="path4726"
             style="font-style:normal;font-variant:normal;font-weight:800;font-stretch:condensed;font-size:2.72452211px;font-family:Futura;-inkscape-font-specification:'Futura, Ultra-Bold Condensed';font-variant-ligatures:normal;font-variant-caps:normal;font-variant-numeric:normal;font-feature-settings:normal;text-align:start;writing-mode:lr-tb;text-anchor:start;fill:#e6e6e6;stroke-width:0.25542396px"
             d="m 7.8981869,98.347198 v -2.054034 h 0.5294725 l 0.2780396,0.721041 q 0.022616,0.06386 0.050553,0.146336 0.029267,0.08248 0.063856,0.190238 l 0.057204,0.180925 Q 8.8467143,97.264307 8.8307503,97.07407 8.8147863,96.883832 8.8147863,96.75479 v -0.461626 h 0.5294726 v 2.054034 H 8.8147863 L 8.5354164,97.591569 q -0.043901,-0.12106 -0.07982,-0.226156 -0.034589,-0.106427 -0.061195,-0.202211 0.017294,0.216844 0.025276,0.377815 0.00798,0.16097 0.00798,0.28203 v 0.524151 z" />
          <path
             inkscape:connector-curvature="0"
             id="path4728"
             style="font-style:normal;font-variant:normal;font-weight:800;font-stretch:condensed;font-size:2.72452211px;font-family:Futura;-inkscape-font-specification:'Futura, Ultra-Bold Condensed';font-variant-ligatures:normal;font-variant-caps:normal;font-variant-numeric:normal;font-feature-settings:normal;text-align:start;writing-mode:lr-tb;text-anchor:start;fill:#e6e6e6;stroke-width:0.25542396px"
             d="M 10.553532,98.347198 H 9.9987828 V 97.477161 L 9.4892652,96.293164 H 10.06796 l 0.09978,0.304647 q 0.02927,0.08913 0.05188,0.171612 0.02395,0.08248 0.04257,0.15831 0.0306,-0.113078 0.05321,-0.194229 0.02262,-0.08248 0.03991,-0.133033 l 0.101105,-0.307307 h 0.574704 l -0.477589,1.183997 z" />
          <path
             inkscape:connector-curvature="0"
             id="path4730"
             style="font-style:normal;font-variant:normal;font-weight:800;font-stretch:condensed;font-size:2.72452211px;font-family:Futura;-inkscape-font-specification:'Futura, Ultra-Bold Condensed';font-variant-ligatures:normal;font-variant-caps:normal;font-variant-numeric:normal;font-feature-settings:normal;text-align:start;writing-mode:lr-tb;text-anchor:start;fill:#e6e6e6;stroke-width:0.25542396px"
             d="m 11.084335,98.296646 v -0.645212 q 0.16363,0.223496 0.353868,0.223496 0.07184,0 0.117069,-0.03725 0.04523,-0.03858 0.04523,-0.09578 0,-0.08248 -0.09845,-0.16097 l -0.09046,-0.07051 q -0.09046,-0.06785 -0.154318,-0.134364 -0.06386,-0.06785 -0.103766,-0.138354 -0.03991,-0.07184 -0.05853,-0.147667 -0.01862,-0.07583 -0.01862,-0.15964 0,-0.143676 0.06652,-0.300655 0.03326,-0.07317 0.07716,-0.133034 0.0439,-0.0612 0.101106,-0.107757 0.156979,-0.133033 0.379145,-0.133033 0.198219,0 0.3991,0.105096 v 0.627917 q -0.06785,-0.105096 -0.154319,-0.164961 -0.08647,-0.06119 -0.170283,-0.06119 -0.06386,0 -0.105096,0.03725 -0.04257,0.03592 -0.04257,0.08647 0,0.08248 0.113079,0.163631 l 0.0878,0.06519 q 0.175604,0.126382 0.251433,0.259415 0.07716,0.133033 0.07716,0.311298 0,0.303316 -0.184916,0.500205 -0.184917,0.196889 -0.468278,0.196889 -0.195559,0 -0.419054,-0.08647 z" />
          <path
             inkscape:connector-curvature="0"
             id="path4732"
             style="font-style:normal;font-variant:normal;font-weight:800;font-stretch:condensed;font-size:2.72452211px;font-family:Futura;-inkscape-font-specification:'Futura, Ultra-Bold Condensed';font-variant-ligatures:normal;font-variant-caps:normal;font-variant-numeric:normal;font-feature-settings:normal;text-align:start;writing-mode:lr-tb;text-anchor:start;fill:#e6e6e6;stroke-width:0.25542396px"
             d="m 13.117084,98.347198 h -0.554749 v -1.561811 h -0.305977 v -0.492223 h 1.178675 v 0.492223 h -0.317949 z" />
          <path
             inkscape:connector-curvature="0"
             id="path4734"
             style="font-style:normal;font-variant:normal;font-weight:800;font-stretch:condensed;font-size:2.72452211px;font-family:Futura;-inkscape-font-specification:'Futura, Ultra-Bold Condensed';font-variant-ligatures:normal;font-variant-caps:normal;font-variant-numeric:normal;font-feature-settings:normal;text-align:start;writing-mode:lr-tb;text-anchor:start;fill:#e6e6e6;stroke-width:0.25542396px"
             d="m 14.955604,98.347198 h -0.554749 v -0.826136 h -0.264737 v 0.826136 H 13.58137 v -2.054034 h 0.554748 v 0.726362 h 0.264737 v -0.726362 h 0.554749 z" />
          <path
             inkscape:connector-curvature="0"
             id="path4736"
             style="font-style:normal;font-variant:normal;font-weight:800;font-stretch:condensed;font-size:2.72452211px;font-family:Futura;-inkscape-font-specification:'Futura, Ultra-Bold Condensed';font-variant-ligatures:normal;font-variant-caps:normal;font-variant-numeric:normal;font-feature-settings:normal;text-align:start;writing-mode:lr-tb;text-anchor:start;fill:#e6e6e6;stroke-width:0.25542396px"
             d="m 15.796374,98.347198 h -0.554749 v -2.054034 h 0.554749 z" />
        </g>
      </g>
    </g>
    <text
       id="text1348"
       y="21.166666"
       x="-74.856934"
       style="font-style:normal;font-weight:normal;font-size:10.58333397px;line-height:1.25;font-family:'Bitstream Vera Sans';letter-spacing:0px;word-spacing:0px;fill:#000000;fill-opacity:1;stroke:none;stroke-width:0.26458335px;stroke-linecap:butt;stroke-linejoin:miter;stroke-opacity:1"
       xml:space="preserve"><tspan
         style="font-style:normal;font-variant:normal;font-weight:bold;font-stretch:normal;font-size:12.69999981px;font-family:Microgramma;-inkscape-font-specification:'Microgramma, Bold';font-variant-ligatures:normal;font-variant-caps:normal;font-variant-numeric:normal;font-feature-settings:normal;text-align:start;writing-mode:lr-tb;text-anchor:start;stroke-width:0.26458335px"
         y="21.166666"
         x="-74.856934"
         id="tspan1346"
         sodipodi:role="line">N</tspan></text>
    <text
       xml:space="preserve"
       style="font-style:normal;font-weight:normal;font-size:10.58333397px;line-height:1.25;font-family:'Bitstream Vera Sans';letter-spacing:0px;word-spacing:0px;fill:#000000;fill-opacity:1;stroke:none;stroke-width:0.26458335px;stroke-linecap:butt;stroke-linejoin:miter;stroke-opacity:1"
       x="-74.038376"
       y="34.408234"
       id="text1352"><tspan
         sodipodi:role="line"
         id="tspan1350"
         x="-74.038376"
         y="34.408234"
         style="font-style:normal;font-variant:normal;font-weight:bold;font-stretch:normal;font-size:12.69999981px;font-family:Microgramma;-inkscape-font-specification:'Microgramma, Bold';font-variant-ligatures:normal;font-variant-caps:normal;font-variant-numeric:normal;font-feature-settings:normal;text-align:start;writing-mode:lr-tb;text-anchor:start;stroke-width:0.26458335px">Y</tspan></text>
    <text
       xml:space="preserve"
       style="font-style:normal;font-weight:normal;font-size:10.58333397px;line-height:1.25;font-family:'Bitstream Vera Sans';letter-spacing:0px;word-spacing:0px;fill:#000000;fill-opacity:1;stroke:none;stroke-width:0.26458335px;stroke-linecap:butt;stroke-linejoin:miter;stroke-opacity:1"
       x="-73.784126"
       y="47.485474"
       id="text1356"><tspan
         sodipodi:role="line"
         id="tspan1354"
         x="-73.784126"
         y="47.485474"
         style="font-style:normal;font-variant:normal;font-weight:bold;font-stretch:normal;font-size:12.69999981px;font-family:Microgramma;-inkscape-font-specification:'Microgramma, Bold';font-variant-ligatures:normal;font-variant-caps:normal;font-variant-numeric:normal;font-feature-settings:normal;text-align:start;writing-mode:lr-tb;text-anchor:start;stroke-width:0.26458335px">S</tspan></text>
    <text
       id="text1360"
       y="60.86657"
       x="-73.8787"
       style="font-style:normal;font-weight:normal;font-size:10.58333397px;line-height:1.25;font-family:'Bitstream Vera Sans';letter-spacing:0px;word-spacing:0px;fill:#000000;fill-opacity:1;stroke:none;stroke-width:0.26458335px;stroke-linecap:butt;stroke-linejoin:miter;stroke-opacity:1"
       xml:space="preserve"><tspan
         style="font-style:normal;font-variant:normal;font-weight:bold;font-stretch:normal;font-size:12.69999981px;font-family:Microgramma;-inkscape-font-specification:'Microgramma, Bold';font-variant-ligatures:normal;font-variant-caps:normal;font-variant-numeric:normal;font-feature-settings:normal;text-align:start;writing-mode:lr-tb;text-anchor:start;stroke-width:0.26458335px"
         y="60.86657"
         x="-73.8787"
         id="tspan1358"
         sodipodi:role="line">T</tspan></text>
    <text
       id="text1364"
       y="74.083336"
       x="-74.083336"
       style="font-style:normal;font-weight:normal;font-size:10.58333397px;line-height:1.25;font-family:'Bitstream Vera Sans';letter-spacing:0px;word-spacing:0px;fill:#000000;fill-opacity:1;stroke:none;stroke-width:0.26458335px;stroke-linecap:butt;stroke-linejoin:miter;stroke-opacity:1"
       xml:space="preserve"><tspan
         style="font-style:normal;font-variant:normal;font-weight:bold;font-stretch:normal;font-size:12.69999981px;font-family:Microgramma;-inkscape-font-specification:'Microgramma, Bold';font-variant-ligatures:normal;font-variant-caps:normal;font-variant-numeric:normal;font-feature-settings:normal;text-align:start;writing-mode:lr-tb;text-anchor:start;stroke-width:0.26458335px"
         y="74.083336"
         x="-74.083336"
         id="tspan1362"
         sodipodi:role="line">H</tspan></text>
    <text
       xml:space="preserve"
       style="font-style:normal;font-weight:normal;font-size:10.58333397px;line-height:1.25;font-family:'Bitstream Vera Sans';letter-spacing:0px;word-spacing:0px;fill:#000000;fill-opacity:1;stroke:none;stroke-width:0.26458335px;stroke-linecap:butt;stroke-linejoin:miter;stroke-opacity:1"
       x="-69.505318"
       y="87.312508"
       id="text1368"><tspan
         sodipodi:role="line"
         id="tspan1366"
         x="-69.505318"
         y="87.312508"
         style="font-style:normal;font-variant:normal;font-weight:bold;font-stretch:normal;font-size:12.69999981px;font-family:Microgramma;-inkscape-font-specification:'Microgramma, Bold';font-variant-ligatures:normal;font-variant-caps:normal;font-variant-numeric:normal;font-feature-settings:normal;text-align:start;writing-mode:lr-tb;text-anchor:start;stroke-width:0.26458335px">I</tspan></text>
    <path
       d="M 6.5406862,82.020833 V 72.95472 h 2.7936279 v 9.066113 z"
       style="font-style:normal;font-variant:normal;font-weight:bold;font-stretch:normal;font-size:12.69999981px;font-family:Microgramma;-inkscape-font-specification:'Microgramma, Bold';font-variant-ligatures:normal;font-variant-caps:normal;font-variant-numeric:normal;font-feature-settings:normal;text-align:start;writing-mode:lr-tb;text-anchor:start;stroke-width:0.26458335px"
       id="II"
       inkscape:connector-curvature="0"
       inkscape:label="II" />
    <path
       d="m 4.9206299,59.725548 v 3.175 H 10.95437 v -3.175 h 2.793628 v 9.066113 H 10.95437 v -3.54397 H 4.9206299 v 3.54397 H 2.1270021 v -9.066113 z"
       style="font-style:normal;font-variant:normal;font-weight:bold;font-stretch:normal;font-size:12.69999981px;font-family:Microgramma;-inkscape-font-specification:'Microgramma, Bold';font-variant-ligatures:normal;font-variant-caps:normal;font-variant-numeric:normal;font-feature-settings:normal;text-align:start;writing-mode:lr-tb;text-anchor:start;stroke-width:0.26458335px"
       id="HH"
       inkscape:connector-curvature="0"
       inkscape:label="HH" />
    <path
       d="M 2.5331787,48.831124 V 46.48088 H 13.341821 v 2.350244 H 9.3420654 v 6.731372 H 6.5484375 v -6.731372 z"
       style="font-style:normal;font-variant:normal;font-weight:bold;font-stretch:normal;font-size:12.69999981px;font-family:Microgramma;-inkscape-font-specification:'Microgramma, Bold';font-variant-ligatures:normal;font-variant-caps:normal;font-variant-numeric:normal;font-feature-settings:normal;text-align:start;writing-mode:lr-tb;text-anchor:start;stroke-width:0.26458335px"
       id="TT"
       inkscape:connector-curvature="0"
       inkscape:label="TT" />
    <path
       d="m 7.9359497,40.138114 q 2.021582,0 2.3378413,-0.06511 0.319361,-0.06201 0.319361,-0.496094 0,-0.520898 -0.446485,-0.660425 -0.4433834,-0.127124 -2.2107173,-0.127124 -3.4912597,0 -4.4059326,-0.505395 -0.9146728,-0.508496 -0.9146728,-2.514575 0,-1.854151 1.1937256,-2.375049 0.9146728,-0.393775 4.0648681,-0.393775 2.80603,0 3.556372,0.151929 1.764233,0.353467 1.764233,2.995166 h -2.793628 q 0,-0.722436 -0.316259,-0.84956 -0.3193606,-0.114722 -2.1983157,-0.114722 -1.8913574,0 -2.1828125,0.06511 -0.2945556,0.07441 -0.2945556,0.520899 0,0.468188 0.4960937,0.607715 0.4960938,0.139526 2.0308838,0.139526 3.4571533,0 4.4586423,0.545703 0.992188,0.545703 0.992188,2.514575 0,1.816943 -1.119312,2.32544 -0.964282,0.430981 -4.3439207,0.430981 -2.6013915,0 -3.376538,-0.114722 -1.1937256,-0.176733 -1.624707,-0.837158 -0.434082,-0.648022 -0.434082,-2.260327 h 2.7936279 q 0,0.762744 0.3286621,0.889868 0.3317627,0.127124 2.3254394,0.127124 z"
       style="font-style:normal;font-variant:normal;font-weight:bold;font-stretch:normal;font-size:12.69999981px;font-family:Microgramma;-inkscape-font-specification:'Microgramma, Bold';font-variant-ligatures:normal;font-variant-caps:normal;font-variant-numeric:normal;font-feature-settings:normal;text-align:start;writing-mode:lr-tb;text-anchor:start;stroke-width:0.26458335px"
       id="SS"
       inkscape:connector-curvature="0"
       inkscape:label="SS" />
    <path
       d="m 1.3968141,20.034947 5.1066649,5.93142 v 3.137793 h 2.7936279 v -3.137793 l 5.1810791,-5.93142 H 10.655164 L 8.3173218,23.008408 Q 8.090979,23.299864 8.0258667,23.743247 7.963855,24.202134 7.9359497,24.202134 7.8863403,23.935484 7.8243286,23.591319 7.746814,23.250254 7.5576782,23.008408 L 5.2198365,20.034947 Z"
       style="font-style:normal;font-variant:normal;font-weight:bold;font-stretch:normal;font-size:12.69999981px;font-family:Microgramma;-inkscape-font-specification:'Microgramma, Bold';font-variant-ligatures:normal;font-variant-caps:normal;font-variant-numeric:normal;font-feature-settings:normal;text-align:start;writing-mode:lr-tb;text-anchor:start;stroke-width:0.26458335px"
       id="YY"
       inkscape:connector-curvature="0"
       inkscape:label="YY" />
    <path
       d="M 14.065808,6.8088809 H 11.27218 v 6.2476811 q 0.102319,0.353466 0.201538,0.697631 0,0.127124 0.0124,0.254248 -0.08682,0 -0.164331,-0.164331 -0.08682,-0.167431 -0.164332,-0.331762 L 6.3825562,6.8088809 H 1.809192 V 15.874994 H 4.6028199 V 9.6149112 q 0,-0.012402 -0.2139405,-0.7007324 -0.012402,-0.1240235 -0.012402,-0.2511475 0.086816,0 0.1767334,0.1643311 0.077515,0.1767334 0.1519287,0.3286621 l 4.7873046,6.7189695 h 4.5733639 z"
       style="font-style:normal;font-variant:normal;font-weight:bold;font-stretch:normal;font-size:12.69999981px;font-family:Microgramma;-inkscape-font-specification:'Microgramma, Bold';font-variant-ligatures:normal;font-variant-caps:normal;font-variant-numeric:normal;font-feature-settings:normal;text-align:start;writing-mode:lr-tb;text-anchor:start;stroke-width:0.26458335px"
       id="NN"
       inkscape:connector-curvature="0"
       inkscape:label="NN" />
    <path
       inkscape:label="NN2"
       inkscape:connector-curvature="0"
       id="NN2"
       style="font-style:normal;font-variant:normal;font-weight:bold;font-stretch:normal;font-size:12.69999981px;font-family:Microgramma;-inkscape-font-specification:'Microgramma, Bold';font-variant-ligatures:normal;font-variant-caps:normal;font-variant-numeric:normal;font-feature-settings:normal;text-align:start;writing-mode:lr-tb;text-anchor:start;display:inline;opacity:0;stroke-width:0.26458335px"
       d="M 14.065808,33.267221 H 11.27218 v 6.247681 q 0.102319,0.353466 0.201538,0.697631 0,0.127124 0.0124,0.254248 -0.08682,0 -0.164331,-0.164331 -0.08682,-0.167431 -0.164332,-0.331762 L 6.3825562,33.267221 H 1.809192 v 9.066113 h 2.7936279 v -6.260083 q 0,-0.0124 -0.2139405,-0.700732 -0.012402,-0.124024 -0.012402,-0.251148 0.086816,0 0.1767334,0.164331 0.077515,0.176734 0.1519287,0.328663 l 4.7873046,6.718969 h 4.5733639 z" />
    <path
       inkscape:label="SS2"
       inkscape:connector-curvature="0"
       id="SS2"
       style="font-style:normal;font-variant:normal;font-weight:bold;font-stretch:normal;font-size:12.69999981px;font-family:Microgramma;-inkscape-font-specification:'Microgramma, Bold';font-variant-ligatures:normal;font-variant-caps:normal;font-variant-numeric:normal;font-feature-settings:normal;text-align:start;writing-mode:lr-tb;text-anchor:start;display:inline;opacity:0;stroke-width:0.26458335px"
       d="m 7.9359497,13.679785 q 2.021582,0 2.3378413,-0.06511 0.319361,-0.06201 0.319361,-0.496094 0,-0.520898 -0.446485,-0.660425 -0.4433834,-0.127124 -2.2107173,-0.127124 -3.4912597,0 -4.4059326,-0.505395 -0.9146728,-0.508496 -0.9146728,-2.5145747 0,-1.854151 1.1937256,-2.375049 0.9146728,-0.393775 4.0648681,-0.393775 2.80603,0 3.556372,0.151929 1.764233,0.353467 1.764233,2.995166 h -2.793628 q 0,-0.722436 -0.316259,-0.84956 -0.3193606,-0.114722 -2.1983157,-0.114722 -1.8913574,0 -2.1828125,0.06511 -0.2945556,0.07441 -0.2945556,0.520899 0,0.468188 0.4960937,0.607715 0.4960938,0.1395257 2.0308838,0.1395257 3.4571533,0 4.4586423,0.545703 0.992188,0.545703 0.992188,2.514575 0,1.816943 -1.119312,2.32544 Q 11.303186,15.875 7.9235473,15.875 q -2.6013915,0 -3.376538,-0.114722 -1.1937256,-0.176733 -1.624707,-0.837158 -0.434082,-0.648022 -0.434082,-2.260327 h 2.7936279 q 0,0.762744 0.3286621,0.889868 0.3317627,0.127124 2.3254394,0.127124 z" />
  </g>
</svg>
