<?xml version="1.0" encoding="UTF-8" standalone="no"?>
<!-- Created with Inkscape (http://www.inkscape.org/) -->

<svg
   xmlns:dc="http://purl.org/dc/elements/1.1/"
   xmlns:cc="http://creativecommons.org/ns#"
   xmlns:rdf="http://www.w3.org/1999/02/22-rdf-syntax-ns#"
   xmlns:svg="http://www.w3.org/2000/svg"
   xmlns="http://www.w3.org/2000/svg"
   xmlns:sodipodi="http://sodipodi.sourceforge.net/DTD/sodipodi-0.dtd"
   xmlns:inkscape="http://www.inkscape.org/namespaces/inkscape"
   width="15"
   height="380"
   viewBox="0 0 3.96875 100.54167"
   version="1.1"
   id="svg8"
   inkscape:version="0.92.2 5c3e80d, 2017-08-06"
   sodipodi:docname="OP.svg"
   inkscape:export-filename="E:\Users\Martin\Documents\Rack_Source\Rack\plugins\ML-modules\res\Quantum.png"
   inkscape:export-xdpi="96"
   inkscape:export-ydpi="96">
  <sodipodi:namedview
     id="base"
     pagecolor="#ffffff"
     bordercolor="#666666"
     borderopacity="1.0"
     inkscape:pageopacity="0.0"
     inkscape:pageshadow="2"
     inkscape:zoom="0.7071068"
     inkscape:cx="-123.55157"
     inkscape:cy="266.90038"
     inkscape:document-units="px"
     inkscape:current-layer="layer2"
     showgrid="true"
     units="px"
     fit-margin-top="0"
     fit-margin-left="0"
     fit-margin-right="0"
     fit-margin-bottom="0"
     showguides="true"
     inkscape:snap-to-guides="false"
     objecttolerance="20"
     inkscape:window-width="1440"
     inkscape:window-height="757"
     inkscape:window-x="29"
     inkscape:window-y="2"
     inkscape:window-maximized="0"
     gridtolerance="17"
     inkscape:snap-perpendicular="false"
     inkscape:pagecheckerboard="true"
     inkscape:snap-page="false"
     inkscape:snap-text-baseline="true">
    <inkscape:grid
       empspacing="20"
       dotted="false"
       spacingy="0.52916668"
       spacingx="0.52916668"
       originy="100.54167"
       originx="-7.3436628e-018"
       id="grid43"
       type="xygrid" />
  </sodipodi:namedview>
  <defs
     id="defs2">
    <inkscape:perspective
       id="perspective4742"
       inkscape:persp3d-origin="15.875 : 33.51389 : 1"
       inkscape:vp_z="31.75 : 50.270835 : 1"
       inkscape:vp_y="0 : 1000 : 0"
       inkscape:vp_x="0 : 50.270835 : 1"
       sodipodi:type="inkscape:persp3d" />
    <filter
       id="filter1636"
       x="-0.25"
       width="1.5"
       y="-0.25"
       height="1.5"
       inkscape:menu="Non-realistic 3D Shaders"
       inkscape:menu-tooltip="Deep and dark metal shading"
       inkscape:label="Deep Metal"
       style="color-interpolation-filters:sRGB">
      <feGaussianBlur
         id="feGaussianBlur1616"
         in="SourceGraphic"
         stdDeviation="5"
         result="result8" />
      <feComposite
         id="feComposite1618"
         in2="result8"
         operator="xor"
         result="result19" />
      <feComposite
         id="feComposite1620"
         k2="1"
         operator="arithmetic"
         result="result17"
         in2="result8"
         k1="0"
         k3="0"
         k4="0" />
      <feComposite
         id="feComposite1622"
         in2="result17"
         result="result6"
         operator="xor" />
      <feOffset
         id="feOffset1624"
         result="result18"
         in="result6" />
      <feDisplacementMap
         id="feDisplacementMap1626"
         in2="result17"
         in="result18"
         xChannelSelector="A"
         yChannelSelector="A"
         scale="100"
         result="result4" />
      <feComposite
         id="feComposite1628"
         in="result4"
         in2="result4"
         result="result2"
         operator="arithmetic"
         k3="1"
         k1="0"
         k2="0"
         k4="0" />
      <feComposite
         id="feComposite1630"
         in2="result2"
         result="fbSourceGraphic"
         in="result2"
         operator="over" />
      <feComposite
         id="feComposite1632"
         in="fbSourceGraphic"
         in2="SourceGraphic"
         operator="xor"
         result="result15" />
      <feComposite
         id="feComposite1634"
         result="result16"
         in2="result8"
         operator="in"
         in="result15" />
    </filter>
  </defs>
  <metadata
     id="metadata5">
    <rdf:RDF>
      <cc:Work
         rdf:about="">
        <dc:format>image/svg+xml</dc:format>
        <dc:type
           rdf:resource="http://purl.org/dc/dcmitype/StillImage" />
        <dc:title />
      </cc:Work>
    </rdf:RDF>
  </metadata>
  <g
     style="display:inline"
     inkscape:label="Layer 2"
     id="layer2"
     inkscape:groupmode="layer">
    <g
       id="text4720"
       style="font-style:normal;font-variant:normal;font-weight:bold;font-stretch:normal;font-size:19.75555611px;line-height:1.25;font-family:Arial;-inkscape-font-specification:'Arial, Bold';font-variant-ligatures:normal;font-variant-caps:normal;font-variant-numeric:normal;font-feature-settings:normal;text-align:start;letter-spacing:0px;word-spacing:0px;writing-mode:lr-tb;text-anchor:start;fill:#000000;fill-opacity:1;stroke:none;stroke-width:0.26458335"
       aria-label="M" />
    <text
       id="text989"
       y="20.637499"
       x="19.050001"
       style="font-style:normal;font-variant:normal;font-weight:normal;font-stretch:normal;font-size:2.82222247px;line-height:1.25;font-family:Arial;-inkscape-font-specification:'Arial, Normal';font-variant-ligatures:normal;font-variant-caps:normal;font-variant-numeric:normal;font-feature-settings:normal;text-align:start;letter-spacing:0px;word-spacing:0px;writing-mode:lr-tb;text-anchor:start;fill:#000000;fill-opacity:1;stroke:none;stroke-width:0.26458335"
       xml:space="preserve"><tspan
         style="stroke-width:0.26458335"
         y="23.179628"
         x="19.050001"
         id="tspan987"
         sodipodi:role="line" /></text>
    <rect
       ry="0"
       y="55.6404"
       x="-7.9512687"
       height="0"
       width="6.2674704"
       id="rect842"
       style="fill:#ffffff;fill-opacity:1;stroke:none;stroke-width:0.26458335;stroke-opacity:1" />
    <path
       style="fill:#b7c4c8;fill-opacity:1;stroke-width:0.1080157"
       d="M -0.06976341,-3.3333334e-6 H 3.8989867 V 100.54167 h -3.96875011 z"
       id="rect4689"
       inkscape:connector-curvature="0" />
    <g
       transform="translate(-6.6797608,2.9461583)"
       id="g957">
      <g
         id="g947">
        <path
           d="m 7.9375009,96.80176 v -2.043861 h 0.532108 l 0.2794236,0.71747 q 0.022729,0.06354 0.050805,0.145611 0.029413,0.08207 0.064174,0.189296 l 0.057489,0.180029 q -0.03075,-0.266073 -0.046793,-0.455368 -0.016043,-0.189295 -0.016043,-0.317698 v -0.45934 H 9.3907709 V 96.80176 H 8.8586628 L 8.5779023,96.049873 q -0.04412,-0.12046 -0.080217,-0.225036 -0.034761,-0.105899 -0.0615,-0.201209 0.01738,0.21577 0.025402,0.375944 0.00802,0.160172 0.00802,0.280633 v 0.521555 z"
           style="font-style:normal;font-variant:normal;font-weight:800;font-stretch:condensed;font-size:2.72452211px;line-height:1.25;font-family:Futura;-inkscape-font-specification:'Futura, Ultra-Bold Condensed';font-variant-ligatures:normal;font-variant-caps:normal;font-variant-numeric:normal;font-feature-settings:normal;text-align:start;letter-spacing:0px;word-spacing:0px;writing-mode:lr-tb;text-anchor:start;fill:#e6e6e6;fill-opacity:1;stroke:none;stroke-width:0.25542396px;stroke-linecap:butt;stroke-linejoin:miter;stroke-opacity:1"
           id="path4726"
           inkscape:connector-curvature="0" />
      </g>
    </g>
    <text
       id="text4987"
       y="59.795834"
       x="30.691668"
       style="font-style:normal;font-weight:normal;font-size:10.58333397px;line-height:1.25;font-family:'Bitstream Vera Sans';letter-spacing:0px;word-spacing:0px;fill:#000000;fill-opacity:1;stroke:none;stroke-width:0.26458335px;stroke-linecap:butt;stroke-linejoin:miter;stroke-opacity:1"
       xml:space="preserve"><tspan
         style="stroke-width:0.26458335px"
         y="69.159607"
         x="30.691668"
         id="tspan4985"
         sodipodi:role="line" /></text>
    <text
       xml:space="preserve"
       style="font-style:normal;font-weight:normal;font-size:10.58333397px;line-height:1.25;font-family:'Bitstream Vera Sans';letter-spacing:0px;word-spacing:0px;fill:#000000;fill-opacity:1;stroke:none;stroke-width:0.26458335px;stroke-linecap:butt;stroke-linejoin:miter;stroke-opacity:1"
       x="-36.247917"
       y="57.811459"
       id="text1042"><tspan
         sodipodi:role="line"
         id="tspan1040"
         x="-36.247917"
         y="67.175232"
         style="stroke-width:0.26458335px" /></text>
    <g
       aria-label="in signal"
       style="font-style:normal;font-variant:normal;font-weight:800;font-stretch:condensed;font-size:2.82222223px;line-height:1.25;font-family:Futura;-inkscape-font-specification:'Futura, Ultra-Bold Condensed';font-variant-ligatures:normal;font-variant-caps:normal;font-variant-numeric:normal;font-feature-settings:normal;text-align:start;letter-spacing:0px;word-spacing:0px;writing-mode:lr-tb;text-anchor:start;fill:#ffffff;fill-opacity:1;stroke:none;stroke-width:0.26458335px;stroke-linecap:butt;stroke-linejoin:miter;stroke-opacity:1"
       id="text1328"
       transform="translate(-51.096279,17.094564)" />
    <g
       transform="translate(-24.855675,3.7041699)"
       id="g1749"
       style="font-style:normal;font-variant:normal;font-weight:500;font-stretch:condensed;font-size:2.82222223px;line-height:1.25;font-family:Futura;-inkscape-font-specification:'Futura, Medium Condensed';font-variant-ligatures:normal;font-variant-caps:normal;font-variant-numeric:normal;font-feature-settings:normal;text-align:start;letter-spacing:0px;word-spacing:0px;writing-mode:lr-tb;text-anchor:start;fill:#000000;fill-opacity:1;stroke:none;stroke-width:0.26458335px;stroke-linecap:butt;stroke-linejoin:miter;stroke-opacity:1"
       aria-label="OCTAVE" />
    <g
       transform="translate(-31.471686,12.838492)"
       id="g1805"
       style="font-style:normal;font-variant:normal;font-weight:500;font-stretch:condensed;font-size:2.11666679px;line-height:1.25;font-family:Futura;-inkscape-font-specification:'Futura, Medium Condensed';font-variant-ligatures:normal;font-variant-caps:normal;font-variant-numeric:normal;font-feature-settings:normal;text-align:start;letter-spacing:0px;word-spacing:0px;writing-mode:lr-tb;text-anchor:start;fill:#000000;fill-opacity:1;stroke:none;stroke-width:0.26458335px;stroke-linecap:butt;stroke-linejoin:miter;stroke-opacity:1"
       aria-label="UNI" />
    <g
       aria-label="OCT"
       transform="matrix(1.0155048,0,0,0.84405457,0,-2.4758708)"
       style="font-style:normal;font-variant:normal;font-weight:500;font-stretch:condensed;font-size:2.43174076px;line-height:1.25;font-family:Futura;-inkscape-font-specification:'Futura, Medium Condensed';font-variant-ligatures:normal;font-variant-caps:normal;font-variant-numeric:normal;font-feature-settings:normal;text-align:start;letter-spacing:0px;word-spacing:0px;writing-mode:lr-tb;text-anchor:start;fill:#000000;fill-opacity:1;stroke:none;stroke-width:0.26054367px;stroke-linecap:butt;stroke-linejoin:miter;stroke-opacity:1"
       id="text1036">
      <path
         d="m 1.5165303,9.875892 q 0,0.485636 -0.1080509,0.689864 -0.108051,0.204228 -0.3621489,0.204228 -0.26715904,0 -0.3763974,-0.219664 -0.10805098,-0.214914 -0.10805098,-0.763481 0,-0.4891978 0.10686361,-0.6922387 0.10805098,-0.2042282 0.36571097,-0.2042282 0.2303505,0 0.3419636,0.1579207 0.073617,0.1056762 0.1068636,0.3004054 0.033246,0.1804808 0.033246,0.5271938 z M 1.2576829,9.902014 q 0,-0.4761368 -0.042745,-0.6316827 Q 1.1721929,9.113598 1.040394,9.113598 q -0.13179844,0 -0.17573126,0.1436722 -0.0427454,0.1448595 -0.0427454,0.581813 0,0.4025198 0.0451202,0.5580658 0.0463076,0.147234 0.17335646,0.147234 0.1246742,0 0.1709818,-0.137735 0.046307,-0.136548 0.046307,-0.504634 z"
         style="font-style:normal;font-variant:normal;font-weight:500;font-stretch:condensed;font-size:2.43174076px;font-family:Futura;-inkscape-font-specification:'Futura, Medium Condensed';font-variant-ligatures:normal;font-variant-caps:normal;font-variant-numeric:normal;font-feature-settings:normal;text-align:start;writing-mode:lr-tb;text-anchor:start;stroke-width:0.26054367px"
         id="path1038"
         inkscape:connector-curvature="0" />
      <path
         d="m 2.4818649,8.9438039 v 0.2220388 q -0.09499,-0.046308 -0.159108,-0.046308 -0.087866,0 -0.1507964,0.043933 -0.062931,0.042745 -0.1044889,0.1329858 -0.040371,0.09024 -0.060556,0.2291631 -0.018998,0.1377353 -0.018998,0.3265277 0,0.6791777 0.3479004,0.6791777 0.060556,0 0.1460469,-0.038 v 0.226789 q -0.089053,0.04987 -0.1994787,0.04987 -0.5568781,0 -0.5568781,-0.9095281 0,-0.4915726 0.1353605,-0.731422 0.136548,-0.2398495 0.4167681,-0.2398495 0.1033015,0 0.2042282,0.054619 z"
         style="font-style:normal;font-variant:normal;font-weight:500;font-stretch:condensed;font-size:2.43174076px;font-family:Futura;-inkscape-font-specification:'Futura, Medium Condensed';font-variant-ligatures:normal;font-variant-caps:normal;font-variant-numeric:normal;font-feature-settings:normal;text-align:start;writing-mode:lr-tb;text-anchor:start;stroke-width:0.26054367px"
         id="path1040"
         inkscape:connector-curvature="0" />
      <path
         d="M 2.542421,8.9141196 H 3.3462728 V 9.1302215 H 3.0696148 V 10.747424 H 2.8273906 V 9.1302215 H 2.542421 Z"
         style="font-style:normal;font-variant:normal;font-weight:500;font-stretch:condensed;font-size:2.43174076px;font-family:Futura;-inkscape-font-specification:'Futura, Medium Condensed';font-variant-ligatures:normal;font-variant-caps:normal;font-variant-numeric:normal;font-feature-settings:normal;text-align:start;writing-mode:lr-tb;text-anchor:start;stroke-width:0.26054367px"
         id="path1042"
         inkscape:connector-curvature="0" />
    </g>
    <g
       aria-label="FM"
       transform="matrix(1.0968705,0,0,0.91168465,0,9.6572903)"
       style="font-style:normal;font-variant:normal;font-weight:500;font-stretch:condensed;font-size:2.25135446px;line-height:1.25;font-family:Futura;-inkscape-font-specification:'Futura, Medium Condensed';font-variant-ligatures:normal;font-variant-caps:normal;font-variant-numeric:normal;font-feature-settings:normal;text-align:start;letter-spacing:0px;word-spacing:0px;writing-mode:lr-tb;text-anchor:start;fill:#000000;fill-opacity:1;stroke:none;stroke-width:0.24121657px;stroke-linecap:butt;stroke-linejoin:miter;stroke-opacity:1"
       id="text1078">
      <path
         d="M 0.86592987,34.724504 H 1.4771374 V 34.91798 H 1.0945831 v 0.536455 h 0.3451783 v 0.193476 H 1.0945831 v 0.773903 H 0.86592987 Z"
         style="font-style:normal;font-variant:normal;font-weight:500;font-stretch:condensed;font-size:2.25135446px;font-family:Futura;-inkscape-font-specification:'Futura, Medium Condensed';font-variant-ligatures:normal;font-variant-caps:normal;font-variant-numeric:normal;font-feature-settings:normal;text-align:start;writing-mode:lr-tb;text-anchor:start;stroke-width:0.24121657px"
         id="path1080"
         inkscape:connector-curvature="0" />
      <path
         d="m 1.733273,34.724504 h 0.1956744 l 0.149504,0.692555 q 0.027482,0.129717 0.049468,0.260533 0.023085,0.129717 0.041773,0.272625 0.0022,-0.01869 0.0033,-0.02858 0.0011,-0.01099 0.0022,-0.01539 l 0.03188,-0.194575 0.028582,-0.184681 0.025284,-0.122022 0.1330146,-0.680463 h 0.1978729 l 0.1560998,1.69731 H 2.529162 l -0.038475,-0.57603 q -0.0022,-0.04397 -0.0044,-0.07585 -0.0011,-0.03188 -0.0011,-0.05277 l -0.00989,-0.227553 -0.0055,-0.208866 q 0,-0.0022 -0.0011,-0.0088 0,-0.0077 -0.0011,-0.01979 l -0.0055,0.03408 q -0.00879,0.06046 -0.016489,0.105532 -0.0066,0.04507 -0.012092,0.07585 l -0.028582,0.155 -0.010993,0.05826 -0.1429083,0.740924 H 2.0971394 L 1.9630255,35.782025 q -0.027482,-0.126419 -0.049468,-0.256136 -0.020887,-0.130816 -0.038475,-0.273724 l -0.065958,1.169649 H 1.5936626 Z"
         style="font-style:normal;font-variant:normal;font-weight:500;font-stretch:condensed;font-size:2.25135446px;font-family:Futura;-inkscape-font-specification:'Futura, Medium Condensed';font-variant-ligatures:normal;font-variant-caps:normal;font-variant-numeric:normal;font-feature-settings:normal;text-align:start;writing-mode:lr-tb;text-anchor:start;stroke-width:0.24121657px"
         id="path1082"
         inkscape:connector-curvature="0" />
    </g>
    <g
       aria-label="LFM"
       transform="matrix(1.0968705,0,0,0.91168465,0,14.816668)"
       style="font-style:normal;font-variant:normal;font-weight:500;font-stretch:condensed;font-size:2.25135446px;line-height:1.25;font-family:Futura;-inkscape-font-specification:'Futura, Medium Condensed';font-variant-ligatures:normal;font-variant-caps:normal;font-variant-numeric:normal;font-feature-settings:normal;text-align:start;letter-spacing:0px;word-spacing:0px;writing-mode:lr-tb;text-anchor:start;fill:#000000;fill-opacity:1;stroke:none;stroke-width:0.24121657px;stroke-linecap:butt;stroke-linejoin:miter;stroke-opacity:1"
       id="text1087">
      <path
         d="m 0.49216982,41.254312 h 0.22865319 v 1.503834 H 1.094583 v 0.193476 H 0.49216982 Z"
         style="font-style:normal;font-variant:normal;font-weight:500;font-stretch:condensed;font-size:2.25135446px;font-family:Futura;-inkscape-font-specification:'Futura, Medium Condensed';font-variant-ligatures:normal;font-variant-caps:normal;font-variant-numeric:normal;font-feature-settings:normal;text-align:start;writing-mode:lr-tb;text-anchor:start;stroke-width:0.24121657px"
         id="path1089"
         inkscape:connector-curvature="0" />
      <path
         d="m 1.2396899,41.254312 h 0.6112075 v 0.193476 H 1.468343 v 0.536455 h 0.3451784 v 0.193476 H 1.468343 v 0.773903 H 1.2396899 Z"
         style="font-style:normal;font-variant:normal;font-weight:500;font-stretch:condensed;font-size:2.25135446px;font-family:Futura;-inkscape-font-specification:'Futura, Medium Condensed';font-variant-ligatures:normal;font-variant-caps:normal;font-variant-numeric:normal;font-feature-settings:normal;text-align:start;writing-mode:lr-tb;text-anchor:start;stroke-width:0.24121657px"
         id="path1091"
         inkscape:connector-curvature="0" />
      <path
         d="m 2.107033,41.254312 h 0.1956743 l 0.149504,0.692555 q 0.027482,0.129717 0.049468,0.260533 0.023085,0.129717 0.041773,0.272625 0.0022,-0.01869 0.0033,-0.02858 0.0011,-0.01099 0.0022,-0.01539 l 0.03188,-0.194575 0.028582,-0.184681 0.025284,-0.122022 0.1330146,-0.680463 h 0.1978729 l 0.1560998,1.69731 H 2.902922 l -0.038475,-0.57603 q -0.0022,-0.04397 -0.0044,-0.07585 -0.0011,-0.03188 -0.0011,-0.05277 l -0.00989,-0.227553 -0.0055,-0.208866 q 0,-0.0022 -0.0011,-0.0088 0,-0.0077 -0.0011,-0.01979 l -0.0055,0.03408 q -0.00879,0.06046 -0.016489,0.105532 -0.0066,0.04507 -0.012092,0.07585 l -0.028582,0.155 -0.010993,0.05826 -0.1429083,0.740924 H 2.4708993 L 2.3367855,42.311833 q -0.027482,-0.126419 -0.049468,-0.256136 -0.020887,-0.130816 -0.038475,-0.273724 l -0.065958,1.169649 H 1.9674226 Z"
         style="font-style:normal;font-variant:normal;font-weight:500;font-stretch:condensed;font-size:2.25135446px;font-family:Futura;-inkscape-font-specification:'Futura, Medium Condensed';font-variant-ligatures:normal;font-variant-caps:normal;font-variant-numeric:normal;font-feature-settings:normal;text-align:start;writing-mode:lr-tb;text-anchor:start;stroke-width:0.24121657px"
         id="path1093"
         inkscape:connector-curvature="0" />
    </g>
    <g
       aria-label="CVIO"
       transform="matrix(1.0968705,0,0,0.91168465,0,9.5250003)"
       style="font-style:normal;font-variant:normal;font-weight:500;font-stretch:condensed;font-size:2.25135446px;line-height:1.25;font-family:Futura;-inkscape-font-specification:'Futura, Medium Condensed';font-variant-ligatures:normal;font-variant-caps:normal;font-variant-numeric:normal;font-feature-settings:normal;text-align:start;letter-spacing:0px;word-spacing:0px;writing-mode:lr-tb;text-anchor:start;fill:#000000;fill-opacity:1;stroke:none;stroke-width:0.24121657px;stroke-linecap:butt;stroke-linejoin:miter;stroke-opacity:1"
       id="text1006">
      <path
         d="m 0.91335628,21.816592 v 0.205568 q -0.0879435,-0.04287 -0.14730542,-0.04287 -0.0813478,0 -0.13961036,0.04067 -0.0582626,0.03958 -0.0967379,0.123121 -0.037376,0.08355 -0.056064,0.212164 -0.0175887,0.127518 -0.0175887,0.302306 0,0.628796 0.32209319,0.628796 0.056064,0 0.13521318,-0.03518 v 0.209965 q -0.0824471,0.04617 -0.18468142,0.04617 -0.51556896,0 -0.51556896,-0.842059 0,-0.455108 0.12531953,-0.677165 0.12641883,-0.222058 0.38585226,-0.222058 0.0956386,0 0.18907859,0.05057 z"
         style="font-style:normal;font-variant:normal;font-weight:500;font-stretch:condensed;font-size:2.25135446px;font-family:Futura;-inkscape-font-specification:'Futura, Medium Condensed';font-variant-ligatures:normal;font-variant-caps:normal;font-variant-numeric:normal;font-feature-settings:normal;text-align:start;writing-mode:lr-tb;text-anchor:start;stroke-width:0.24121657px"
         id="path1008"
         inkscape:connector-curvature="0" />
      <path
         d="M 0.96942031,21.789109 H 1.1947756 l 0.1022344,0.626598 0.017589,0.113227 0.036277,0.246242 q 0.00879,0.06266 0.01539,0.114327 0.0077,0.05167 0.013192,0.09344 l 0.010993,0.08355 q 0.0033,-0.02528 0.0055,-0.04507 0.0022,-0.01979 0.0044,-0.03298 L 1.430032,22.79167 1.468507,22.533336 q 0.0055,-0.03518 0.00989,-0.06486 0.0055,-0.02968 0.00989,-0.05277 l 0.1099294,-0.626598 h 0.213263 L 1.4783935,23.48642 H 1.29701 Z"
         style="font-style:normal;font-variant:normal;font-weight:500;font-stretch:condensed;font-size:2.25135446px;font-family:Futura;-inkscape-font-specification:'Futura, Medium Condensed';font-variant-ligatures:normal;font-variant-caps:normal;font-variant-numeric:normal;font-feature-settings:normal;text-align:start;writing-mode:lr-tb;text-anchor:start;stroke-width:0.24121657px"
         id="path1010"
         inkscape:connector-curvature="0" />
      <path
         d="M 1.9356999,21.789109 H 2.1643531 V 23.48642 H 1.9356999 Z"
         style="font-style:normal;font-variant:normal;font-weight:500;font-stretch:condensed;font-size:2.25135446px;font-family:Futura;-inkscape-font-specification:'Futura, Medium Condensed';font-variant-ligatures:normal;font-variant-caps:normal;font-variant-numeric:normal;font-feature-settings:normal;text-align:start;writing-mode:lr-tb;text-anchor:start;stroke-width:0.24121657px"
         id="path1012"
         inkscape:connector-curvature="0" />
      <path
         d="m 3.2779382,22.679538 q 0,0.449611 -0.1000358,0.63869 -0.1000358,0.189078 -0.3352847,0.189078 -0.2473412,0 -0.3484763,-0.203369 -0.1000357,-0.198972 -0.1000357,-0.706846 0,-0.45291 0.098936,-0.640889 0.1000358,-0.189078 0.3385826,-0.189078 0.2132631,0 0.3165968,0.146206 0.068156,0.09784 0.098936,0.278121 0.03078,0.167093 0.03078,0.488087 z m -0.2396462,0.02418 q 0,-0.440817 -0.039575,-0.584824 -0.039575,-0.145107 -0.1615962,-0.145107 -0.1220216,0 -0.1626955,0.133014 -0.039575,0.134114 -0.039575,0.538655 0,0.37266 0.041773,0.516668 0.042872,0.136312 0.1604969,0.136312 0.1154259,0 0.1582984,-0.127518 0.042872,-0.126419 0.042872,-0.4672 z"
         style="font-style:normal;font-variant:normal;font-weight:500;font-stretch:condensed;font-size:2.25135446px;font-family:Futura;-inkscape-font-specification:'Futura, Medium Condensed';font-variant-ligatures:normal;font-variant-caps:normal;font-variant-numeric:normal;font-feature-settings:normal;text-align:start;writing-mode:lr-tb;text-anchor:start;stroke-width:0.24121657px"
         id="path1014"
         inkscape:connector-curvature="0" />
    </g>
    <g
       aria-label="OUT"
       transform="matrix(1.3324445,0,0,1.4644006,-0.59531284,-44.007107)"
       style="font-style:normal;font-variant:normal;font-weight:500;font-stretch:condensed;font-size:2.10375047px;line-height:1.25;font-family:Futura;-inkscape-font-specification:'Futura, Medium Condensed';font-variant-ligatures:normal;font-variant-caps:normal;font-variant-numeric:normal;font-feature-settings:normal;text-align:start;letter-spacing:0px;word-spacing:0px;writing-mode:lr-tb;text-anchor:start;fill:#000000;fill-opacity:1;stroke:none;stroke-width:0.22540186px;stroke-linecap:butt;stroke-linejoin:miter;stroke-opacity:1"
       id="text1059">
      <path
         d="m 1.4712386,92.514688 q 0,0.420134 -0.093477,0.596816 -0.093477,0.176682 -0.3133027,0.176682 -0.23112495,0 -0.32562936,-0.190036 -0.0934772,-0.185927 -0.0934772,-0.660503 0,-0.423216 0.09245,-0.598871 0.0934772,-0.176682 0.31638436,-0.176682 0.199281,0 0.2958399,0.136621 0.063688,0.09142 0.09245,0.259887 0.028762,0.156137 0.028762,0.456086 z m -0.2239344,0.0226 q 0,-0.411916 -0.03698,-0.546482 -0.03698,-0.135593 -0.1510016,-0.135593 -0.11402166,0 -0.15202887,0.124294 -0.03698,0.125321 -0.03698,0.503338 0,0.348229 0.0390344,0.482795 0.0400617,0.127375 0.14997447,0.127375 0.1078583,0 0.1479199,-0.119158 0.040062,-0.11813 0.040062,-0.436569 z"
         style="font-style:normal;font-variant:normal;font-weight:500;font-stretch:condensed;font-size:2.10375047px;font-family:Futura;-inkscape-font-specification:'Futura, Medium Condensed';font-variant-ligatures:normal;font-variant-caps:normal;font-variant-numeric:normal;font-feature-settings:normal;text-align:start;writing-mode:lr-tb;text-anchor:start;stroke-width:0.22540186px"
         id="path1061"
         inkscape:connector-curvature="0" />
      <path
         d="m 1.6838735,91.682639 h 0.2095533 v 1.120699 q 0,0.171546 0.030817,0.228043 0.031844,0.0565 0.125321,0.0565 0.093477,0 0.1232667,-0.04931 0.030817,-0.05033 0.030817,-0.204417 v -1.151515 h 0.2095533 v 1.151515 q 0,0.25886 -0.079096,0.350283 -0.094504,0.103749 -0.2886494,0.103749 -0.2136621,0 -0.300976,-0.133539 -0.060606,-0.09142 -0.060606,-0.351309 z"
         style="font-style:normal;font-variant:normal;font-weight:500;font-stretch:condensed;font-size:2.10375047px;font-family:Futura;-inkscape-font-specification:'Futura, Medium Condensed';font-variant-ligatures:normal;font-variant-caps:normal;font-variant-numeric:normal;font-feature-settings:normal;text-align:start;writing-mode:lr-tb;text-anchor:start;stroke-width:0.22540186px"
         id="path1063"
         inkscape:connector-curvature="0" />
      <path
         d="m 2.5313316,91.682639 h 0.6954292 v 0.186954 H 2.9874181 v 1.399076 H 2.7778649 V 91.869593 H 2.5313316 Z"
         style="font-style:normal;font-variant:normal;font-weight:500;font-stretch:condensed;font-size:2.10375047px;font-family:Futura;-inkscape-font-specification:'Futura, Medium Condensed';font-variant-ligatures:normal;font-variant-caps:normal;font-variant-numeric:normal;font-feature-settings:normal;text-align:start;writing-mode:lr-tb;text-anchor:start;stroke-width:0.22540186px"
         id="path1065"
         inkscape:connector-curvature="0" />
    </g>
    <g
       aria-label="SY - TM"
       transform="matrix(0.84172755,0,0,1.1031733,0.20876091,-3.1750002)"
       style="font-style:normal;font-variant:normal;font-weight:500;font-stretch:condensed;font-size:1.86056471px;line-height:1.25;font-family:Futura;-inkscape-font-specification:'Futura, Medium Condensed';font-variant-ligatures:normal;font-variant-caps:normal;font-variant-numeric:normal;font-feature-settings:normal;text-align:start;letter-spacing:0px;word-spacing:0px;writing-mode:lr-tb;text-anchor:start;fill:#000000;fill-opacity:1;stroke:none;stroke-width:0.19934623px;stroke-linecap:butt;stroke-linejoin:miter;stroke-opacity:1"
       id="text1101">
      <path
         d="m 0.5759756,18.515708 v 0.184421 q -0.0863055,-0.06178 -0.15534989,-0.06178 -0.0744953,0 -0.12173616,0.05269 -0.0472409,0.04997 -0.0472409,0.133547 0,0.07359 0.0336137,0.126278 0.0172611,0.02816 0.0563257,0.07268 0.0399731,0.04451 0.10265811,0.1072 0.11537682,0.117194 0.15716685,0.202591 0.04179,0.08267 0.04179,0.202591 0,0.162617 -0.0917564,0.268001 -0.0917564,0.102658 -0.23529603,0.102658 -0.12082768,0 -0.2062247,-0.06632 v -0.187147 q 0.10084116,0.07359 0.18351273,0.07359 0.0772207,0 0.12082769,-0.05088 0.043607,-0.05178 0.043607,-0.139905 0,-0.07631 -0.0336137,-0.137181 -0.0172611,-0.02907 -0.0481494,-0.06632 -0.0308883,-0.03816 -0.0772207,-0.08449 -0.0717698,-0.07086 -0.11901074,-0.12537 -0.0472409,-0.05451 -0.0699529,-0.09539 -0.04360698,-0.07995 -0.04360698,-0.201683 0,-0.164434 0.08539701,-0.260733 0.0863055,-0.09721 0.23166211,-0.09721 0.10084115,0 0.19259752,0.04815 z"
         style="font-style:normal;font-variant:normal;font-weight:500;font-stretch:condensed;font-size:1.86056471px;font-family:Futura;-inkscape-font-specification:'Futura, Medium Condensed';font-variant-ligatures:normal;font-variant-caps:normal;font-variant-numeric:normal;font-feature-settings:normal;text-align:start;writing-mode:lr-tb;text-anchor:start;stroke-width:0.19934623px"
         id="path1103"
         inkscape:connector-curvature="0" />
      <path
         d="m 0.70861352,18.486637 h 0.19986535 l 0.0926648,0.305249 q 0.00454,0.01363 0.00908,0.02998 0.00454,0.01635 0.010902,0.03543 0.051783,0.165343 0.070861,0.277995 0.016353,-0.112652 0.027254,-0.157167 l 0.029071,-0.12537 0.010902,-0.04906 0.078129,-0.317059 h 0.1971399 l -0.2443808,0.799461 v 0.60323 H 1.0011437 v -0.60323 z"
         style="font-style:normal;font-variant:normal;font-weight:500;font-stretch:condensed;font-size:1.86056471px;font-family:Futura;-inkscape-font-specification:'Futura, Medium Condensed';font-variant-ligatures:normal;font-variant-caps:normal;font-variant-numeric:normal;font-feature-settings:normal;text-align:start;writing-mode:lr-tb;text-anchor:start;stroke-width:0.19934623px"
         id="path1105"
         inkscape:connector-curvature="0" />
      <path
         d="M 1.8169577,19.336973 H 2.147644 v 0.141723 H 1.8169577 Z"
         style="font-style:normal;font-variant:normal;font-weight:500;font-stretch:condensed;font-size:1.86056471px;font-family:Futura;-inkscape-font-specification:'Futura, Medium Condensed';font-variant-ligatures:normal;font-variant-caps:normal;font-variant-numeric:normal;font-feature-settings:normal;text-align:start;writing-mode:lr-tb;text-anchor:start;stroke-width:0.19934623px"
         id="path1107"
         inkscape:connector-curvature="0" />
      <path
         d="M 2.5292051,18.486637 H 3.1442453 V 18.65198 H 2.9325698 v 1.237348 H 2.7472401 V 18.65198 h -0.218035 z"
         style="font-style:normal;font-variant:normal;font-weight:500;font-stretch:condensed;font-size:1.86056471px;font-family:Futura;-inkscape-font-specification:'Futura, Medium Condensed';font-variant-ligatures:normal;font-variant-caps:normal;font-variant-numeric:normal;font-feature-settings:normal;text-align:start;writing-mode:lr-tb;text-anchor:start;stroke-width:0.19934623px"
         id="path1109"
         inkscape:connector-curvature="0" />
      <path
         d="m 3.314131,18.486637 h 0.1617092 l 0.1235531,0.572341 q 0.022712,0.107201 0.040882,0.21531 0.019078,0.1072 0.034522,0.225303 0.00182,-0.01544 0.00273,-0.02362 9.085e-4,-0.0091 0.00182,-0.01272 l 0.026346,-0.1608 0.02362,-0.152625 0.020895,-0.100841 0.109926,-0.562348 H 4.023653 l 0.129004,1.402691 H 3.9718697 l -0.031797,-0.476043 q -0.00182,-0.03634 -0.00363,-0.06268 -9.085e-4,-0.02635 -9.085e-4,-0.04361 l -0.00818,-0.188055 -0.00454,-0.172611 q 0,-0.0018 -9.085e-4,-0.0073 0,-0.0064 -9.084e-4,-0.01635 l -0.00454,0.02816 q -0.00727,0.04997 -0.013627,0.08721 -0.00545,0.03725 -0.00999,0.06268 l -0.02362,0.128096 -0.00908,0.04815 L 3.742038,19.88929 H 3.6148375 L 3.5040031,19.360593 Q 3.4812911,19.256118 3.4631215,19.148918 3.4458604,19.040809 3.4313247,18.922706 L 3.376816,19.889328 H 3.1987542 Z"
         style="font-style:normal;font-variant:normal;font-weight:500;font-stretch:condensed;font-size:1.86056471px;font-family:Futura;-inkscape-font-specification:'Futura, Medium Condensed';font-variant-ligatures:normal;font-variant-caps:normal;font-variant-numeric:normal;font-feature-settings:normal;text-align:start;writing-mode:lr-tb;text-anchor:start;stroke-width:0.19934623px"
         id="path1111"
         inkscape:connector-curvature="0" />
    </g>
    <g
       aria-label="TUNE"
       transform="scale(1.0273025,0.97342308)"
       style="font-style:normal;font-variant:normal;font-weight:500;font-stretch:condensed;font-size:2.10856438px;line-height:1.25;font-family:Futura;-inkscape-font-specification:'Futura, Medium Condensed';font-variant-ligatures:normal;font-variant-caps:normal;font-variant-numeric:normal;font-feature-settings:normal;text-align:start;letter-spacing:0px;word-spacing:0px;writing-mode:lr-tb;text-anchor:start;fill:#000000;fill-opacity:1;stroke:none;stroke-width:0.22591764px;stroke-linecap:butt;stroke-linejoin:miter;stroke-opacity:1"
       id="text1116">
      <path
         d="m 0.25755152,11.165713 h 0.69702055 v 0.187382 H 0.71468169 v 1.402278 H 0.50464891 V 11.353095 H 0.25755152 Z"
         style="font-style:normal;font-variant:normal;font-weight:500;font-stretch:condensed;font-size:2.10856438px;font-family:Futura;-inkscape-font-specification:'Futura, Medium Condensed';font-variant-ligatures:normal;font-variant-caps:normal;font-variant-numeric:normal;font-feature-settings:normal;text-align:start;writing-mode:lr-tb;text-anchor:start;stroke-width:0.22591764px"
         id="path1118"
         inkscape:connector-curvature="0" />
      <path
         d="m 1.0719433,11.165713 h 0.2100328 v 1.123264 q 0,0.171938 0.030887,0.228565 0.031917,0.05663 0.1256078,0.05663 0.093691,0 0.1235487,-0.04942 0.030887,-0.05045 0.030887,-0.204885 v -1.154151 h 0.2100328 v 1.154151 q 0,0.259452 -0.079277,0.351084 -0.094721,0.103987 -0.2893099,0.103987 -0.214151,0 -0.3016647,-0.133845 -0.060745,-0.09163 -0.060745,-0.352113 z"
         style="font-style:normal;font-variant:normal;font-weight:500;font-stretch:condensed;font-size:2.10856438px;font-family:Futura;-inkscape-font-specification:'Futura, Medium Condensed';font-variant-ligatures:normal;font-variant-caps:normal;font-variant-numeric:normal;font-feature-settings:normal;text-align:start;writing-mode:lr-tb;text-anchor:start;stroke-width:0.22591764px"
         id="path1120"
         inkscape:connector-curvature="0" />
      <path
         d="m 2.047978,11.165713 h 0.199737 l 0.2131215,0.634217 q 0.092661,0.268718 0.163702,0.573472 -0.025739,-0.184294 -0.038094,-0.333582 -0.012355,-0.149288 -0.012355,-0.281073 v -0.593034 h 0.2151806 v 1.58966 H 2.5885035 L 2.3486131,12.03982 q -0.032946,-0.09987 -0.062804,-0.204885 -0.028828,-0.105016 -0.053538,-0.220328 -0.00206,-0.01441 -0.00721,-0.03501 -0.00412,-0.02059 -0.010296,-0.04736 0.00309,0.02677 0.00515,0.04633 0.00206,0.01853 0.00309,0.03192 l 0.011325,0.161643 0.011325,0.196649 q 0.00103,0.01647 0.00103,0.04015 0.00103,0.02368 0.00103,0.05354 l 0.011325,0.692902 H 2.047978 Z"
         style="font-style:normal;font-variant:normal;font-weight:500;font-stretch:condensed;font-size:2.10856438px;font-family:Futura;-inkscape-font-specification:'Futura, Medium Condensed';font-variant-ligatures:normal;font-variant-caps:normal;font-variant-numeric:normal;font-feature-settings:normal;text-align:start;writing-mode:lr-tb;text-anchor:start;stroke-width:0.22591764px"
         id="path1122"
         inkscape:connector-curvature="0" />
      <path
         d="m 3.0363677,11.165713 h 0.5693536 v 0.181205 H 3.2505188 v 0.503461 h 0.3150491 v 0.181205 H 3.2505188 v 0.542584 h 0.3552025 v 0.181205 H 3.0363677 Z"
         style="font-style:normal;font-variant:normal;font-weight:500;font-stretch:condensed;font-size:2.10856438px;font-family:Futura;-inkscape-font-specification:'Futura, Medium Condensed';font-variant-ligatures:normal;font-variant-caps:normal;font-variant-numeric:normal;font-feature-settings:normal;text-align:start;writing-mode:lr-tb;text-anchor:start;stroke-width:0.22591764px"
         id="path1124"
         inkscape:connector-curvature="0" />
    </g>
    <g
       aria-label="RATIO"
       transform="matrix(0.98227189,0,0,1.0180481,-1.0129147e-8,15.875002)"
       style="font-style:normal;font-variant:normal;font-weight:500;font-stretch:condensed;font-size:2.01613784px;line-height:1.25;font-family:Futura;-inkscape-font-specification:'Futura, Medium Condensed';font-variant-ligatures:normal;font-variant-caps:normal;font-variant-numeric:normal;font-feature-settings:normal;text-align:start;letter-spacing:0px;word-spacing:0px;writing-mode:lr-tb;text-anchor:start;fill:#000000;fill-opacity:1;stroke:none;stroke-width:0.21601479px;stroke-linecap:butt;stroke-linejoin:miter;stroke-opacity:1"
       id="text1129">
      <path
         d="m 0.26935857,66.033434 h 0.26973719 q 0.16735519,0 0.24906391,0.07974 0.10336644,0.103367 0.10336644,0.316006 0,0.163418 -0.0551288,0.262846 -0.0541443,0.09844 -0.15554189,0.122071 l 0.27958162,0.739316 H 0.75271974 L 0.47412257,66.809175 v 0.744238 h -0.204764 z m 0.204764,0.673359 q 0.11911752,0 0.16833963,-0.05513 0.0492221,-0.05513 0.0492221,-0.186059 0,-0.07088 -0.0108289,-0.121087 -0.009844,-0.05021 -0.0324866,-0.08171 -0.0216577,-0.0315 -0.0570977,-0.04627 -0.0344555,-0.01477 -0.0826932,-0.01477 H 0.4741224 Z"
         style="font-style:normal;font-variant:normal;font-weight:500;font-stretch:condensed;font-size:2.01613784px;font-family:Futura;-inkscape-font-specification:'Futura, Medium Condensed';font-variant-ligatures:normal;font-variant-caps:normal;font-variant-numeric:normal;font-feature-settings:normal;text-align:start;writing-mode:lr-tb;text-anchor:start;stroke-width:0.21601479px"
         id="path1131"
         inkscape:connector-curvature="0" />
      <path
         d="m 1.336494,66.033434 h 0.1594797 l 0.3258504,1.519979 H 1.619029 L 1.5619313,67.257096 H 1.260692 L 1.20261,67.553413 H 1.0057214 Z m 0.1959041,1.065167 -0.045284,-0.242173 q -0.045284,-0.247095 -0.073833,-0.527661 -0.013782,0.136838 -0.03544,0.277613 -0.021658,0.139791 -0.051191,0.297301 l -0.037409,0.19492 z"
         style="font-style:normal;font-variant:normal;font-weight:500;font-stretch:condensed;font-size:2.01613784px;font-family:Futura;-inkscape-font-specification:'Futura, Medium Condensed';font-variant-ligatures:normal;font-variant-caps:normal;font-variant-numeric:normal;font-feature-settings:normal;text-align:start;writing-mode:lr-tb;text-anchor:start;stroke-width:0.21601479px"
         id="path1133"
         inkscape:connector-curvature="0" />
      <path
         d="m 1.790322,66.033434 h 0.6664674 v 0.179169 H 2.2274143 v 1.34081 H 2.0265881 v -1.34081 H 1.790322 Z"
         style="font-style:normal;font-variant:normal;font-weight:500;font-stretch:condensed;font-size:2.01613784px;font-family:Futura;-inkscape-font-specification:'Futura, Medium Condensed';font-variant-ligatures:normal;font-variant-caps:normal;font-variant-numeric:normal;font-feature-settings:normal;text-align:start;writing-mode:lr-tb;text-anchor:start;stroke-width:0.21601479px"
         id="path1135"
         inkscape:connector-curvature="0" />
      <path
         d="m 2.5690159,66.033434 h 0.204764 v 1.519979 h -0.204764 z"
         style="font-style:normal;font-variant:normal;font-weight:500;font-stretch:condensed;font-size:2.01613784px;font-family:Futura;-inkscape-font-specification:'Futura, Medium Condensed';font-variant-ligatures:normal;font-variant-caps:normal;font-variant-numeric:normal;font-feature-settings:normal;text-align:start;writing-mode:lr-tb;text-anchor:start;stroke-width:0.21601479px"
         id="path1137"
         inkscape:connector-curvature="0" />
      <path
         d="m 3.7710198,66.830833 q 0,0.402637 -0.089584,0.571961 -0.089584,0.169324 -0.3002549,0.169324 -0.2214995,0 -0.3120682,-0.182122 -0.089584,-0.178184 -0.089584,-0.632996 0,-0.405591 0.0886,-0.57393 0.089584,-0.169324 0.3032083,-0.169324 0.1909818,0 0.2835194,0.13093 0.061035,0.08762 0.0886,0.249064 0.027564,0.149636 0.027563,0.437093 z m -0.2146084,0.02166 q 0,-0.394761 -0.03544,-0.523723 -0.03544,-0.129946 -0.144713,-0.129946 -0.1092731,0 -0.1456975,0.119117 -0.03544,0.120102 -0.03544,0.482377 0,0.333726 0.037409,0.462688 0.038393,0.122071 0.1437286,0.122071 0.1033664,0 0.1417597,-0.114196 0.038393,-0.11321 0.038393,-0.418388 z"
         style="font-style:normal;font-variant:normal;font-weight:500;font-stretch:condensed;font-size:2.01613784px;font-family:Futura;-inkscape-font-specification:'Futura, Medium Condensed';font-variant-ligatures:normal;font-variant-caps:normal;font-variant-numeric:normal;font-feature-settings:normal;text-align:start;writing-mode:lr-tb;text-anchor:start;stroke-width:0.21601479px"
         id="path1139"
         inkscape:connector-curvature="0" />
    </g>
    <g
       aria-label="FB"
       transform="matrix(1.0686495,0,0,0.9357605,0,3.704165)"
       style="font-style:normal;font-variant:normal;font-weight:500;font-stretch:condensed;font-size:2.25025487px;line-height:1.25;font-family:Futura;-inkscape-font-specification:'Futura, Medium Condensed';font-variant-ligatures:normal;font-variant-caps:normal;font-variant-numeric:normal;font-feature-settings:normal;text-align:start;letter-spacing:0px;word-spacing:0px;writing-mode:lr-tb;text-anchor:start;fill:#000000;fill-opacity:1;stroke:none;stroke-width:0.24109875px;stroke-linecap:butt;stroke-linejoin:miter;stroke-opacity:1"
       id="text1144">
      <path
         d="m 1.1141399,77.47264 h 0.610909 v 0.193381 H 1.3426814 v 0.536193 h 0.3450098 v 0.193382 H 1.3426814 v 0.773525 H 1.1141399 Z"
         style="font-style:normal;font-variant:normal;font-weight:500;font-stretch:condensed;font-size:2.25025487px;font-family:Futura;-inkscape-font-specification:'Futura, Medium Condensed';font-variant-ligatures:normal;font-variant-caps:normal;font-variant-numeric:normal;font-feature-settings:normal;text-align:start;writing-mode:lr-tb;text-anchor:start;stroke-width:0.24109875px"
         id="path1146"
         inkscape:connector-curvature="0" />
      <path
         d="m 1.9008501,77.47264 h 0.3098495 q 0.3636887,0 0.3636887,0.451589 0,0.172505 -0.047247,0.25601 -0.047246,0.08351 -0.1670111,0.126357 0.1373447,0.05494 0.1878875,0.140641 0.051642,0.0846 0.051642,0.254912 0,0.466972 -0.3999476,0.466972 h -0.298862 z m 0.2153564,0.747155 q 0.1329496,0 0.1845912,-0.06153 0.051642,-0.06483 0.051642,-0.227443 0,-0.274689 -0.1977763,-0.274689 h -0.01758 -0.00989 q -0.00879,0 -0.010988,0.0011 z m 0,0.753747 q 0.1406409,0 0.19448,-0.06043 0.053839,-0.06043 0.053839,-0.218652 0,-0.162616 -0.056037,-0.227443 -0.054938,-0.06593 -0.1922825,-0.06593 z"
         style="font-style:normal;font-variant:normal;font-weight:500;font-stretch:condensed;font-size:2.25025487px;font-family:Futura;-inkscape-font-specification:'Futura, Medium Condensed';font-variant-ligatures:normal;font-variant-caps:normal;font-variant-numeric:normal;font-feature-settings:normal;text-align:start;writing-mode:lr-tb;text-anchor:start;stroke-width:0.24109875px"
         id="path1148"
         inkscape:connector-curvature="0" />
    </g>
    <g
       aria-label="OP"
       transform="matrix(0.8065894,0,0,1.1058738,0.14174107,0.18764105)"
       style="font-style:normal;font-variant:normal;font-weight:800;font-stretch:condensed;font-size:3.67722058px;line-height:1.25;font-family:Futura;-inkscape-font-specification:'Futura, Ultra-Bold Condensed';font-variant-ligatures:normal;font-variant-caps:normal;font-variant-numeric:normal;font-feature-settings:normal;text-align:start;letter-spacing:0px;word-spacing:0px;writing-mode:lr-tb;text-anchor:start;fill:#000000;fill-opacity:1;stroke:none;stroke-width:0.22982629px;stroke-linecap:butt;stroke-linejoin:miter;stroke-opacity:1"
       id="text1153">
      <path
         d="m 2.2602364,2.711232 q 0,0.6338178 -0.2890784,1.0306272 -0.2872829,0.3950139 -0.748731,0.3950139 -0.40937804,0 -0.70204745,-0.3034425 -0.36808116,-0.3842408 -0.36808116,-1.1527224 0,-0.7361624 0.38424082,-1.1257897 0.28548734,-0.2890784 0.67691019,-0.2890784 0.4794033,0 0.7630951,0.3914229 0.2836919,0.3914229 0.2836919,1.053969 z m -0.7774593,0.00539 q 0,-0.752322 -0.2657366,-0.752322 -0.1328683,0 -0.2118711,0.197507 -0.0772073,0.1831428 -0.0772073,0.5386554 0,0.3501259 0.0718207,0.5440419 0.0736162,0.1921204 0.2028935,0.1921204 0.1328684,0 0.2046891,-0.1903249 0.075412,-0.1903249 0.075412,-0.5296778 z"
         style="font-style:normal;font-variant:normal;font-weight:800;font-stretch:condensed;font-size:3.67722058px;font-family:Futura;-inkscape-font-specification:'Futura, Ultra-Bold Condensed';font-variant-ligatures:normal;font-variant-caps:normal;font-variant-numeric:normal;font-feature-settings:normal;text-align:start;writing-mode:lr-tb;text-anchor:start;stroke-width:0.22982629px"
         id="path1155"
         inkscape:connector-curvature="0" />
      <path
         d="M 3.3267739,4.0883942 H 2.5780429 V 1.3161146 h 0.7253892 q 0.5422464,0 0.804392,0.2208487 0.3088291,0.2603501 0.3088291,0.7235937 0,0.5045405 -0.3285798,0.752322 Q 3.8636337,3.1798621 3.4434825,3.1798621 H 3.3267739 Z m 0,-1.5315768 0.034115,0.0018 q 0.1364594,0 0.2172577,-0.082594 0.080798,-0.084389 0.080798,-0.2298263 0,-0.1436414 -0.079003,-0.2334173 -0.079003,-0.091571 -0.201098,-0.091571 h -0.05207 z"
         style="font-style:normal;font-variant:normal;font-weight:800;font-stretch:condensed;font-size:3.67722058px;font-family:Futura;-inkscape-font-specification:'Futura, Ultra-Bold Condensed';font-variant-ligatures:normal;font-variant-caps:normal;font-variant-numeric:normal;font-feature-settings:normal;text-align:start;writing-mode:lr-tb;text-anchor:start;stroke-width:0.22982629px"
         id="path1157"
         inkscape:connector-curvature="0" />
    </g>
  </g>
</svg>
