<?xml version="1.0" encoding="UTF-8" standalone="no"?>
<!-- Generator: Adobe Illustrator 23.0.3, SVG Export Plug-In . SVG Version: 6.00 Build 0)  -->

<svg
   xmlns:dc="http://purl.org/dc/elements/1.1/"
   xmlns:cc="http://creativecommons.org/ns#"
   xmlns:rdf="http://www.w3.org/1999/02/22-rdf-syntax-ns#"
   xmlns:svg="http://www.w3.org/2000/svg"
   xmlns="http://www.w3.org/2000/svg"
   xmlns:sodipodi="http://sodipodi.sourceforge.net/DTD/sodipodi-0.dtd"
   xmlns:inkscape="http://www.inkscape.org/namespaces/inkscape"
   version="1.0"
   id="Layer_1"
   x="0px"
   y="0px"
   width="60px"
   height="380px"
   viewBox="0 0 60 380"
   enable-background="new 0 0 60 380"
   xml:space="preserve"
   sodipodi:docname="polylpg_bg.svg"
   inkscape:version="0.92.2 5c3e80d, 2017-08-06"><metadata
     id="metadata208"><rdf:RDF><cc:Work
         rdf:about=""><dc:format>image/svg+xml</dc:format><dc:type
           rdf:resource="http://purl.org/dc/dcmitype/StillImage" /><dc:title /></cc:Work></rdf:RDF></metadata><defs
     id="defs206" /><sodipodi:namedview
     pagecolor="#ffffff"
     bordercolor="#666666"
     borderopacity="1"
     objecttolerance="10"
     gridtolerance="10"
     guidetolerance="10"
     inkscape:pageopacity="0"
     inkscape:pageshadow="2"
     inkscape:window-width="1165"
     inkscape:window-height="704"
     id="namedview204"
     showgrid="false"
     inkscape:pagecheckerboard="true"
     inkscape:zoom="2.4842105"
     inkscape:cx="2.8539833"
     inkscape:cy="137.2315"
     inkscape:window-x="185"
     inkscape:window-y="45"
     inkscape:window-maximized="0"
     inkscape:current-layer="Layer_1" /><g
     id="base" /><g
     id="BACKGROUND"><g
       id="g5"><rect
         width="60"
         height="380"
         id="rect3"
         x="0"
         y="0"
         style="fill:#e5e5e5" /></g></g><rect
     style="fill:none;stroke:#1e282b;stroke-width:0.78087664;stroke-linejoin:round;stroke-miterlimit:10"
     id="rect8"
     height="145.21912"
     width="53.348728"
     stroke-miterlimit="10"
     y="181.39044"
     x="3.3256383" /><rect
     style="fill:none;stroke:#1e282b;stroke-width:0.75;stroke-linejoin:round;stroke-miterlimit:10"
     id="rect10"
     height="136.13997"
     width="53.379608"
     stroke-miterlimit="10"
     y="23.51433"
     x="3.3102" /><line
     style="fill:none;stroke:#1e282b;stroke-width:0.5;stroke-miterlimit:10"
     id="line12"
     y2="364.70258"
     x2="59.891361"
     y1="364.70258"
     x1="-0.10864"
     stroke-miterlimit="10" /><g
     id="g20"><path
       style="fill:#1e282b;stroke:#1e282b;stroke-width:0.25;stroke-linejoin:round;stroke-miterlimit:10"
       inkscape:connector-curvature="0"
       id="path14"
       d="m 26.65868,138.85693 -0.11523,0.58545 c -0.23047,-0.0962 -0.44141,-0.125 -0.60449,-0.125 -1.06543,0 -1.3916,1.20947 -1.3916,2.31299 v 1.68945 h -0.62402 v -4.48193 h 0.62402 v 1.09375 c 0.2207,-0.7583 0.70117,-1.20898 1.40137,-1.20898 0.24999,0 0.5371,0.0479 0.70995,0.13427 z"
       stroke-miterlimit="10" /><path
       style="fill:#1e282b;stroke:#1e282b;stroke-width:0.25;stroke-linejoin:round;stroke-miterlimit:10"
       inkscape:connector-curvature="0"
       id="path16"
       d="m 31.70751,141.33301 h -3.85742 c 0.10547,0.95996 0.77734,1.5166 1.67871,1.5166 0.61523,0 1.16211,-0.29736 1.45898,-0.78711 l 0.52832,0.23047 c -0.39355,0.71973 -1.16113,1.14209 -2.00586,1.14209 -1.2666,0 -2.28418,-0.9502 -2.28418,-2.37061 0,-1.42041 1.01758,-2.3418 2.28418,-2.3418 1.27637,0 2.20703,0.92139 2.20703,2.3418 10e-6,0.0864 10e-6,0.18213 -0.0098,0.26856 z m -0.59472,-0.52783 c -0.08594,-0.93115 -0.72949,-1.49707 -1.60254,-1.49707 -0.88281,0 -1.53613,0.53711 -1.65137,1.49707 z"
       stroke-miterlimit="10" /><path
       style="fill:#1e282b;stroke:#1e282b;stroke-width:0.25;stroke-linejoin:round;stroke-miterlimit:10"
       inkscape:connector-curvature="0"
       id="path18"
       d="m 32.79443,142.12988 h 0.56641 c 0.06641,0.37402 0.41211,0.75781 1.06543,0.75781 0.64258,0 1.03613,-0.33545 1.03613,-0.78662 0,-0.36475 -0.25,-0.60498 -0.70996,-0.72021 l -0.64355,-0.15332 c -0.63281,-0.15381 -1.1416,-0.47998 -1.1416,-1.22852 0,-0.72949 0.62402,-1.27637 1.47754,-1.27637 0.74902,0 1.43945,0.4126 1.46875,1.21875 h -0.59473 c -0.0293,-0.40332 -0.42285,-0.67188 -0.86426,-0.67188 -0.51855,0 -0.87305,0.31689 -0.87305,0.73926 0,0.42188 0.36426,0.60449 0.69043,0.68115 l 0.66211,0.16309 c 0.87402,0.21143 1.14258,0.73926 1.14258,1.25732 0,0.79688 -0.71973,1.32471 -1.65039,1.32471 -0.77832,1e-5 -1.55566,-0.45116 -1.63184,-1.30517 z"
       stroke-miterlimit="10" /></g><g
     id="g36"
     transform="translate(0,-2)"><g
       id="g24"><rect
         style="fill:#e5e5e5"
         id="rect22"
         height="8.3812599"
         width="36.29863"
         y="178.70944"
         x="11.85069" /></g><g
       id="g34"><path
         style="fill:#1e282b;stroke:#1e282b;stroke-width:0.25;stroke-linejoin:round;stroke-miterlimit:10"
         inkscape:connector-curvature="0"
         id="path26"
         d="m 24.50768,185.875 -0.56738,-4.56543 -1.95898,3.99805 h -0.48828 l -1.97461,-4.01367 -0.56738,4.58105 h -0.51172 l 0.67969,-5.50879 h 0.49512 l 2.11914,4.37402 2.11914,-4.37402 h 0.4873 l 0.6875,5.50879 z"
         stroke-miterlimit="10" /><path
         style="fill:#1e282b;stroke:#1e282b;stroke-width:0.25;stroke-linejoin:round;stroke-miterlimit:10"
         inkscape:connector-curvature="0"
         id="path28"
         d="m 26.33482,183.13281 c 0,-1.56738 1.21484,-2.8623 2.78223,-2.8623 1.56739,0 2.78223,1.29492 2.78223,2.8623 0,1.55957 -1.21484,2.83887 -2.78223,2.83887 -1.56739,0 -2.78223,-1.2793 -2.78223,-2.83887 z m 5.03711,0 c 0,-1.2793 -0.9834,-2.36719 -2.25488,-2.36719 -1.27148,0 -2.25488,1.08789 -2.25488,2.36719 0,1.2793 0.9834,2.34277 2.25488,2.34277 1.27148,0 2.25488,-1.06347 2.25488,-2.34277 z"
         stroke-miterlimit="10" /><path
         style="fill:#1e282b;stroke:#1e282b;stroke-width:0.25;stroke-linejoin:round;stroke-miterlimit:10"
         inkscape:connector-curvature="0"
         id="path30"
         d="m 33.54284,180.36621 h 2.08691 c 1.55957,0 2.46289,1.19922 2.46289,2.7666 0,1.55957 -0.90332,2.74219 -2.46289,2.74219 h -2.08691 z m 2.08691,5.01367 c 1.25586,0 1.93457,-0.97559 1.93457,-2.24707 0,-1.2793 -0.67871,-2.27051 -1.93457,-2.27051 h -1.55859 v 4.51758 z"
         stroke-miterlimit="10" /><path
         style="fill:#1e282b;stroke:#1e282b;stroke-width:0.25;stroke-linejoin:round;stroke-miterlimit:10"
         inkscape:connector-curvature="0"
         id="path32"
         d="m 42.9813,185.37988 v 0.49512 h -3.23047 v -5.50879 h 3.14258 v 0.49609 h -2.62305 v 2.0625 h 2.28711 v 0.49609 h -2.28711 v 1.95898 h 2.71094 z"
         stroke-miterlimit="10" /></g></g><g
     id="g72"><g
       id="g58"><rect
         style="fill:#e5e5e5"
         id="rect56"
         height="8.3812504"
         width="36.29863"
         y="19.76169"
         x="11.85069" /></g><g
       id="g70"><path
         style="fill:#1e282b;stroke:#1e282b;stroke-width:0.25;stroke-linejoin:round;stroke-miterlimit:10"
         inkscape:connector-curvature="0"
         id="path60"
         d="m 20.3026,21.41895 h 0.52832 v 5.0127 h 2.3418 v 0.49609 H 20.3026 c 0,0 0,-5.50879 0,-5.50879 z"
         stroke-miterlimit="10" /><path
         style="fill:#1e282b;stroke:#1e282b;stroke-width:0.25;stroke-linejoin:round;stroke-miterlimit:10"
         inkscape:connector-curvature="0"
         id="path62"
         d="m 27.80455,26.43164 v 0.49609 h -3.23047 v -5.50879 h 3.14258 v 0.49512 h -2.62305 v 2.06348 h 2.28711 v 0.49512 h -2.28711 v 1.95898 z"
         stroke-miterlimit="10" /><path
         style="fill:#1e282b;stroke:#1e282b;stroke-width:0.25;stroke-linejoin:round;stroke-miterlimit:10"
         inkscape:connector-curvature="0"
         id="path64"
         d="M 32.72448,21.41895 31.078,26.92774 h -0.55176 l -1.67188,-5.50879 h 0.55176 l 1.3916,4.67676 1.38281,-4.67676 z"
         stroke-miterlimit="10" /><path
         style="fill:#1e282b;stroke:#1e282b;stroke-width:0.25;stroke-linejoin:round;stroke-miterlimit:10"
         inkscape:connector-curvature="0"
         id="path66"
         d="m 37.42076,26.43164 v 0.49609 H 34.1903 v -5.50879 h 3.14258 v 0.49512 h -2.62305 v 2.06348 h 2.28711 v 0.49512 h -2.28711 v 1.95898 z"
         stroke-miterlimit="10" /><path
         style="fill:#1e282b;stroke:#1e282b;stroke-width:0.25;stroke-linejoin:round;stroke-miterlimit:10"
         inkscape:connector-curvature="0"
         id="path68"
         d="m 39.05455,21.41895 h 0.52832 v 5.0127 h 2.3418 v 0.49609 h -2.87012 z"
         stroke-miterlimit="10" /></g></g><g
     id="g80"
     transform="translate(0,-6)"><path
       style="fill:#1e282b;stroke:#1e282b;stroke-width:0.25;stroke-linejoin:round;stroke-miterlimit:10"
       inkscape:connector-curvature="0"
       id="path74"
       d="m 40.48389,195.52246 -1.90039,4.48193 h -0.63379 l -1.87207,-4.48193 h 0.65332 l 1.53516,3.7334 1.55469,-3.7334 z"
       stroke-miterlimit="10" /><path
       style="fill:#1e282b;stroke:#1e282b;stroke-width:0.25;stroke-linejoin:round;stroke-miterlimit:10"
       inkscape:connector-curvature="0"
       id="path76"
       d="m 41.25245,197.7583 c 0,-1.42041 1.09375,-2.35107 2.37012,-2.35107 0.64355,0 1.20996,0.23975 1.6123,0.61426 l -0.38379,0.42236 c -0.30664,-0.27832 -0.72949,-0.45117 -1.20898,-0.45117 -0.97949,0 -1.77539,0.70996 -1.77539,1.76563 0,1.04639 0.7959,1.77588 1.77539,1.77588 0.47949,0 0.90234,-0.17285 1.20898,-0.45117 l 0.38379,0.42236 c -0.40234,0.38379 -0.96875,0.61426 -1.6123,0.61426 -1.27637,-1e-5 -2.37012,-0.94044 -2.37012,-2.36134 z"
       stroke-miterlimit="10" /><path
       style="fill:#1e282b;stroke:#1e282b;stroke-width:0.25;stroke-linejoin:round;stroke-miterlimit:10"
       inkscape:connector-curvature="0"
       id="path78"
       d="m 50.85107,195.52246 v 4.48193 H 50.23682 V 199.083 c -0.33594,0.61426 -1.02734,1.03662 -1.80469,1.03662 -1.21875,0 -2.25488,-1.02686 -2.25488,-2.36133 0,-1.30518 0.99805,-2.35107 2.27441,-2.35107 0.75781,0 1.44922,0.36475 1.78516,0.979 v -0.86377 h 0.61425 z m -0.61425,2.25537 c 0,-1.04639 -0.83496,-1.78516 -1.74707,-1.78516 -0.93066,0 -1.69824,0.80615 -1.69824,1.76563 0,0.96973 0.76758,1.77588 1.71777,1.77588 0.9209,0 1.72754,-0.74854 1.72754,-1.75635 z"
       stroke-miterlimit="10" /></g><g
     id="g90"
     transform="translate(0,-6)"><path
       style="fill:#1e282b;stroke:#1e282b;stroke-width:0.25;stroke-linejoin:round;stroke-miterlimit:10"
       inkscape:connector-curvature="0"
       id="path82"
       d="m 25.16162,239.89648 c 0,1.36328 -1.01758,2.36133 -2.27539,2.36133 -0.74805,0 -1.45898,-0.38379 -1.78516,-0.99805 v 0.88281 h -0.61426 v -6.91992 h 0.61426 v 3.31104 c 0.33594,-0.61426 1.02734,-0.98828 1.78516,-0.98828 1.25782,0 2.27539,0.98828 2.27539,2.35107 z m -0.60546,-0.009 c 0,-0.98877 -0.76758,-1.75635 -1.71777,-1.75635 -0.89258,0 -1.7373,0.70068 -1.7373,1.78516 0,1.03662 0.80664,1.75635 1.7373,1.75635 0.95019,-1e-5 1.71777,-0.78712 1.71777,-1.78516 z"
       stroke-miterlimit="10" /><path
       style="fill:#1e282b;stroke:#1e282b;stroke-width:0.25;stroke-linejoin:round;stroke-miterlimit:10"
       inkscape:connector-curvature="0"
       id="path84"
       d="m 26.32373,239.89648 c 0,-1.42041 1.06543,-2.35107 2.3418,-2.35107 1.27637,0 2.35156,0.93066 2.35156,2.35107 0,1.4209 -1.0752,2.36133 -2.35156,2.36133 -1.27636,0 -2.3418,-0.94043 -2.3418,-2.36133 z m 4.07911,0 c 0,-1.05566 -0.79688,-1.76563 -1.7373,-1.76563 -0.9502,0 -1.72754,0.70996 -1.72754,1.76563 0,1.05615 0.77734,1.77588 1.72754,1.77588 0.94042,0 1.7373,-0.71972 1.7373,-1.77588 z"
       stroke-miterlimit="10" /><path
       style="fill:#1e282b;stroke:#1e282b;stroke-width:0.25;stroke-linejoin:round;stroke-miterlimit:10"
       inkscape:connector-curvature="0"
       id="path86"
       d="m 34.33057,238.18848 h -1.02734 v 3.9541 h -0.60449 v -3.9541 h -0.81641 v -0.52783 h 0.81641 v -1.67969 h 0.60449 v 1.67969 h 1.02734 z"
       stroke-miterlimit="10" /><path
       style="fill:#1e282b;stroke:#1e282b;stroke-width:0.25;stroke-linejoin:round;stroke-miterlimit:10"
       inkscape:connector-curvature="0"
       id="path88"
       d="m 39.51319,239.53223 v 2.61035 h -0.61426 v -2.58203 c 0,-0.86377 -0.54688,-1.41064 -1.26758,-1.41064 -0.71973,0 -1.47754,0.42236 -1.49707,1.50684 v 2.48584 h -0.61426 v -6.91992 h 0.61426 v 3.24414 c 0.26855,-0.64307 0.99805,-0.92139 1.55469,-0.92139 1.08496,-1e-5 1.82422,0.74853 1.82422,1.98681 z"
       stroke-miterlimit="10" /></g><g
     id="g98"
     transform="translate(0,-6)"><path
       style="fill:#1e282b;stroke:#1e282b;stroke-width:0.25;stroke-linejoin:round;stroke-miterlimit:10"
       inkscape:connector-curvature="0"
       id="path92"
       d="m 13.55518,195.52246 -1.90039,4.48193 H 11.021 l -1.87207,-4.48193 h 0.65332 l 1.53516,3.7334 1.55469,-3.7334 z"
       stroke-miterlimit="10" /><path
       style="fill:#1e282b;stroke:#1e282b;stroke-width:0.25;stroke-linejoin:round;stroke-miterlimit:10"
       inkscape:connector-curvature="0"
       id="path94"
       d="m 14.32374,197.7583 c 0,-1.42041 1.09375,-2.35107 2.37012,-2.35107 0.64355,0 1.20996,0.23975 1.6123,0.61426 l -0.38379,0.42236 c -0.30664,-0.27832 -0.72949,-0.45117 -1.20898,-0.45117 -0.97949,0 -1.77539,0.70996 -1.77539,1.76563 0,1.04639 0.7959,1.77588 1.77539,1.77588 0.47949,0 0.90234,-0.17285 1.20898,-0.45117 l 0.38379,0.42236 c -0.40234,0.38379 -0.96875,0.61426 -1.6123,0.61426 -1.27637,-1e-5 -2.37012,-0.94044 -2.37012,-2.36134 z"
       stroke-miterlimit="10" /><path
       style="fill:#1e282b;stroke:#1e282b;stroke-width:0.25;stroke-linejoin:round;stroke-miterlimit:10"
       inkscape:connector-curvature="0"
       id="path96"
       d="m 20.63037,194.95605 v 0.56641 h 1.14258 v 0.52783 h -1.14258 v 3.9541 h -0.61426 v -3.9541 H 19.1333 v -0.52783 h 0.88281 v -0.49951 c 0,-1.12256 0.44141,-1.93848 1.6123,-1.93848 h 0.42285 v 0.58545 h -0.33594 c -0.84471,0 -1.08495,0.56641 -1.08495,1.28613 z"
       stroke-miterlimit="10" /></g><g
     id="g120"><g
       id="g102"><rect
         style="fill:#e5e5e5"
         id="rect100"
         height="8.3812504"
         width="36.29863"
         y="4.4807701"
         x="11.04552" /></g><g
       id="g118"><path
         style="fill:#1e282b;stroke:#1e282b;stroke-width:0.25;stroke-linejoin:round;stroke-miterlimit:10"
         inkscape:connector-curvature="0"
         id="path104"
         d="m 15.16345,7.81641 c 0,0.85596 -0.44824,1.6792 -1.59961,1.6792 h -1.61426 v 2.15088 H 11.42126 V 6.1377 h 2.16699 c 1.12696,0 1.5752,0.83154 1.5752,1.67871 z m -0.52832,0 c 0,-0.59131 -0.29492,-1.18311 -1.05469,-1.18311 H 11.94958 V 9 h 1.59082 c 0.79102,0 1.09473,-0.5835 1.09473,-1.18359 z"
         stroke-miterlimit="10" /><path
         style="fill:#1e282b;stroke:#1e282b;stroke-width:0.25;stroke-linejoin:round;stroke-miterlimit:10"
         inkscape:connector-curvature="0"
         id="path106"
         d="m 16.27771,8.90381 c 0,-1.56689 1.21484,-2.8623 2.78223,-2.8623 1.56739,0 2.78223,1.29541 2.78223,2.8623 0,1.55957 -1.21484,2.83887 -2.78223,2.83887 -1.56739,0 -2.78223,-1.2793 -2.78223,-2.83887 z m 5.03711,0 c 0,-1.2793 -0.9834,-2.3667 -2.25488,-2.3667 -1.27148,0 -2.25488,1.0874 -2.25488,2.3667 0,1.2793 0.9834,2.34277 2.25488,2.34277 1.27148,0 2.25488,-1.06347 2.25488,-2.34277 z"
         stroke-miterlimit="10" /><path
         style="fill:#1e282b;stroke:#1e282b;stroke-width:0.25;stroke-linejoin:round;stroke-miterlimit:10"
         inkscape:connector-curvature="0"
         id="path108"
         d="m 23.48474,6.1377 h 0.52734 v 5.01318 h 2.34277 v 0.49561 h -2.87012 c 0,0 0,-5.50879 10e-6,-5.50879 z"
         stroke-miterlimit="10" /><path
         style="fill:#1e282b;stroke:#1e282b;stroke-width:0.25;stroke-linejoin:round;stroke-miterlimit:10"
         inkscape:connector-curvature="0"
         id="path110"
         d="m 31.0111,6.1377 -2.10352,2.92627 v 2.58252 H 28.38024 V 9.06396 L 26.30896,6.1377 h 0.62402 l 1.71875,2.41455 1.72754,-2.41455 z"
         stroke-miterlimit="10" /><path
         style="fill:#1e282b;stroke:#1e282b;stroke-width:0.25;stroke-linejoin:round;stroke-miterlimit:10"
         inkscape:connector-curvature="0"
         id="path112"
         d="m 34.4613,6.1377 h 0.52734 v 5.01318 h 2.34277 v 0.49561 H 34.4613 Z"
         stroke-miterlimit="10" /><path
         style="fill:#1e282b;stroke:#1e282b;stroke-width:0.25;stroke-linejoin:round;stroke-miterlimit:10"
         inkscape:connector-curvature="0"
         id="path114"
         d="m 42.47497,7.81641 c 0,0.85596 -0.44824,1.6792 -1.59961,1.6792 h -1.61523 v 2.15088 H 38.73279 V 6.1377 h 2.16699 c 1.12695,0 1.57519,0.83154 1.57519,1.67871 z m -0.52734,0 c 0,-0.59131 -0.2959,-1.18311 -1.05566,-1.18311 H 39.26013 V 9 h 1.5918 c 0.79101,0 1.0957,-0.5835 1.0957,-1.18359 z"
         stroke-miterlimit="10" /><path
         style="fill:#1e282b;stroke:#1e282b;stroke-width:0.25;stroke-linejoin:round;stroke-miterlimit:10"
         inkscape:connector-curvature="0"
         id="path116"
         d="m 43.59704,8.90381 c 0,-1.56689 1.21484,-2.8623 2.78223,-2.8623 0.67188,0 1.28711,0.24805 1.75098,0.63965 L 47.77869,7.04102 C 47.40271,6.73731 46.9076,6.53711 46.37928,6.53711 c -1.27148,0 -2.25488,1.0874 -2.25488,2.3667 0,1.2793 0.9834,2.34277 2.25488,2.34277 1.04004,0 1.84766,-0.60742 1.99121,-1.67871 L 48.3783,9.44775 H 46.72303 V 8.97607 h 2.23145 c -0.02441,1.86279 -1.08008,2.7666 -2.5752,2.7666 -1.56739,10e-6 -2.78224,-1.27929 -2.78224,-2.83886 z"
         stroke-miterlimit="10" /></g></g><g
     id="g1034"
     transform="translate(0,8)"><g
       transform="matrix(0.99988052,0,0,0.99996899,-0.71511688,0.01028812)"
       id="g124"><rect
         style="fill:#e5e5e5"
         id="rect122"
         height="8.3812599"
         width="20.00239"
         y="323.36694"
         x="5.7157998" /></g><g
       transform="matrix(0.89418541,0,0,1.0024163,0.34436374,-0.79202408)"
       id="g130"><path
         style="fill:#1e282b;stroke:#1e282b;stroke-width:0.25;stroke-linejoin:round;stroke-miterlimit:10"
         inkscape:connector-curvature="0"
         id="path126"
         d="m 13.16727,325.02393 h 0.52734 v 5.50879 h -0.52734 z"
         stroke-miterlimit="10" /><path
         style="fill:#1e282b;stroke:#1e282b;stroke-width:0.25;stroke-linejoin:round;stroke-miterlimit:10"
         inkscape:connector-curvature="0"
         id="path128"
         d="m 19.61259,325.02393 v 5.50879 h -0.54297 l -2.82227,-4.58936 v 4.58936 h -0.52832 v -5.50879 h 0.55176 l 2.81445,4.58154 v -4.58154 z"
         stroke-miterlimit="10" /></g></g><g
     id="g1027"
     transform="translate(0,8)"><g
       transform="matrix(0.99988052,0,0,1,0.26366083,0)"
       id="g136"><rect
         style="fill:#e5e5e5"
         id="rect134"
         height="8.3812599"
         width="20.00239"
         y="323.36694"
         x="34.74049" /></g><g
       transform="matrix(0.89896593,0,0,1.0022279,5.1910962,-0.73025347)"
       id="g144"><path
         style="fill:#1e282b;stroke:#1e282b;stroke-width:0.25;stroke-linejoin:round;stroke-miterlimit:10"
         inkscape:connector-curvature="0"
         id="path138"
         d="m 36.07206,327.79004 c 0,-1.56689 1.21484,-2.8623 2.78223,-2.8623 1.56739,0 2.78223,1.29541 2.78223,2.8623 0,1.55957 -1.21484,2.83887 -2.78223,2.83887 -1.56739,0 -2.78223,-1.2793 -2.78223,-2.83887 z m 5.03711,0 c 0,-1.2793 -0.9834,-2.3667 -2.25488,-2.3667 -1.27148,0 -2.25488,1.0874 -2.25488,2.3667 0,1.2793 0.9834,2.34277 2.25488,2.34277 1.27148,0 2.25488,-1.06347 2.25488,-2.34277 z"
         stroke-miterlimit="10" /><path
         style="fill:#1e282b;stroke:#1e282b;stroke-width:0.25;stroke-linejoin:round;stroke-miterlimit:10"
         inkscape:connector-curvature="0"
         id="path140"
         d="m 43.20683,328.68555 v -3.66162 h 0.52832 v 3.66162 c 0,0.92773 0.65527,1.43164 1.43945,1.43164 0.7832,0 1.43848,-0.50391 1.43848,-1.43164 v -3.66162 h 0.52832 v 3.66162 c 0,1.20752 -0.9043,1.94336 -1.9668,1.94336 -1.06347,0 -1.96777,-0.73584 -1.96777,-1.94336 z"
         stroke-miterlimit="10" /><path
         style="fill:#1e282b;stroke:#1e282b;stroke-width:0.25;stroke-linejoin:round;stroke-miterlimit:10"
         inkscape:connector-curvature="0"
         id="path142"
         d="m 52.49393,325.51953 h -1.75977 v 5.01318 h -0.52734 v -5.01318 h -1.75098 v -0.49561 h 4.03809 z"
         stroke-miterlimit="10" /></g></g><line
     style="fill:none;stroke:#1e282b;stroke-width:0.5;stroke-miterlimit:10"
     id="line148"
     y2="61.118031"
     x2="30"
     y1="130.12895"
     x1="30"
     stroke-miterlimit="10" /><path
     style="fill:none;stroke:#1e282b;stroke-width:0.5;stroke-linecap:round;stroke-miterlimit:10"
     inkscape:connector-curvature="0"
     id="path150"
     d="m 48.31775,72.23149 c 7.36876,-9.20341 6.78781,-22.67338 -1.74285,-31.20404 -9.15406,-9.15406 -23.99573,-9.15406 -33.14979,0 -8.36223,8.36223 -9.08557,21.47067 -2.17,30.654"
     stroke-miterlimit="10" /><path
     style="fill:none;stroke:#1e282b;stroke-width:0.5;stroke-linecap:round;stroke-miterlimit:10"
     inkscape:connector-curvature="0"
     id="path152"
     d="m 43.5914,201.02089 c 1.16203,2.16669 1.8211,4.6434 1.8211,7.27406 0,8.5121 -6.90041,15.41251 -15.4125,15.41251 -8.51209,0 -15.4125,-6.90041 -15.4125,-15.41251 0,-2.44038 0.56718,-4.74831 1.57692,-6.79913"
     stroke-miterlimit="10" /><g
     id="g1059"
     transform="translate(0,-12)"><g
       id="g54"><g
         id="g40"><rect
           x="11.85069"
           y="259.02267"
           width="36.29863"
           height="8.3812599"
           id="rect38"
           style="fill:#e5e5e5" /></g><g
         id="g52"><path
           stroke-miterlimit="10"
           d="m 18.24986,264.7251 h 0.52051 c 0.05566,0.54395 0.55078,1.06348 1.32715,1.06348 0.87891,0 1.31934,-0.57568 1.31934,-1.09521 0,-0.59961 -0.53613,-0.8877 -1.08008,-1.02344 l -0.74316,-0.17578 c -1.13574,-0.27197 -1.30371,-0.93555 -1.30371,-1.37549 0,-0.91162 0.83984,-1.53516 1.75098,-1.53516 0.93555,0 1.67969,0.57568 1.71094,1.49512 h -0.52734 c -0.03223,-0.60742 -0.53613,-0.99951 -1.19922,-0.99951 -0.62402,0 -1.20703,0.42383 -1.20703,1.03955 0,0.25586 0.0791,0.6958 0.90332,0.8877 l 0.74316,0.17578 c 0.87207,0.21582 1.47949,0.6875 1.47949,1.4873 0,0.77539 -0.63965,1.61523 -1.84668,1.61523 -1.08009,0 -1.80763,-0.75977 -1.84767,-1.55957 z"
           id="path42"
           inkscape:connector-curvature="0"
           style="fill:#1e282b;stroke:#1e282b;stroke-width:0.25;stroke-linejoin:round;stroke-miterlimit:10" /><path
           stroke-miterlimit="10"
           d="m 27.29576,262.3584 c 0,0.85596 -0.44824,1.6792 -1.59961,1.6792 h -1.61523 v 2.15088 h -0.52734 v -5.50879 h 2.16699 c 1.12695,0 1.57519,0.83154 1.57519,1.67871 z m -0.52735,0 c 0,-0.59131 -0.2959,-1.18311 -1.05566,-1.18311 h -1.63184 v 2.3667 h 1.5918 c 0.79102,0 1.0957,-0.58349 1.0957,-1.18359 z"
           id="path44"
           inkscape:connector-curvature="0"
           style="fill:#1e282b;stroke:#1e282b;stroke-width:0.25;stroke-linejoin:round;stroke-miterlimit:10" /><path
           stroke-miterlimit="10"
           d="m 32.03991,265.69287 v 0.49561 h -3.23047 v -5.50879 h 3.14258 v 0.49561 h -2.62305 v 2.06299 h 2.28711 v 0.49561 h -2.28711 v 1.95898 h 2.71094 z"
           id="path46"
           inkscape:connector-curvature="0"
           style="fill:#1e282b;stroke:#1e282b;stroke-width:0.25;stroke-linejoin:round;stroke-miterlimit:10" /><path
           stroke-miterlimit="10"
           d="m 36.90416,265.69287 v 0.49561 h -3.23047 v -5.50879 h 3.14258 v 0.49561 h -2.62305 v 2.06299 h 2.28711 v 0.49561 h -2.28711 v 1.95898 h 2.71094 z"
           id="path48"
           inkscape:connector-curvature="0"
           style="fill:#1e282b;stroke:#1e282b;stroke-width:0.25;stroke-linejoin:round;stroke-miterlimit:10" /><path
           stroke-miterlimit="10"
           d="m 38.53794,260.67969 h 2.08691 c 1.55957,0 2.46289,1.19922 2.46289,2.76611 0,1.55957 -0.90332,2.74268 -2.46289,2.74268 h -2.08691 z m 2.08692,5.01318 c 1.25488,0 1.93457,-0.97559 1.93457,-2.24707 0,-1.2793 -0.67969,-2.27051 -1.93457,-2.27051 h -1.55957 v 4.51758 z"
           id="path50"
           inkscape:connector-curvature="0"
           style="fill:#1e282b;stroke:#1e282b;stroke-width:0.25;stroke-linejoin:round;stroke-miterlimit:10" /></g></g><g
       id="g160"><path
         stroke-miterlimit="10"
         d="m 48.53027,309.17725 c 0,-0.26855 0.2207,-0.46045 0.48047,-0.46045 0.27832,0 0.49902,0.19189 0.49902,0.46045 0,0.25928 -0.2207,0.45117 -0.49902,0.45117 -0.25976,0 -0.48047,-0.1919 -0.48047,-0.45117 z m 0.18262,-6.27686 h 0.61426 l -0.04785,4.87549 h -0.50879 z"
         id="path154"
         inkscape:connector-curvature="0"
         style="fill:#1e282b;stroke:#1e282b;stroke-width:0.25;stroke-linejoin:round;stroke-miterlimit:10" /><path
         stroke-miterlimit="10"
         d="m 51.16992,309.17725 c 0,-0.26855 0.2207,-0.46045 0.48047,-0.46045 0.27832,0 0.49902,0.19189 0.49902,0.46045 0,0.25928 -0.2207,0.45117 -0.49902,0.45117 -0.25976,0 -0.48047,-0.1919 -0.48047,-0.45117 z m 0.18262,-6.27686 h 0.61426 l -0.04785,4.87549 h -0.50879 z"
         id="path156"
         inkscape:connector-curvature="0"
         style="fill:#1e282b;stroke:#1e282b;stroke-width:0.25;stroke-linejoin:round;stroke-miterlimit:10" /><path
         stroke-miterlimit="10"
         d="m 53.81055,309.17725 c 0,-0.26855 0.2207,-0.46045 0.48047,-0.46045 0.27832,0 0.49902,0.19189 0.49902,0.46045 0,0.25928 -0.2207,0.45117 -0.49902,0.45117 -0.25977,0 -0.48047,-0.1919 -0.48047,-0.45117 z m 0.18261,-6.27686 h 0.61426 l -0.04785,4.87549 h -0.50879 z"
         id="path158"
         inkscape:connector-curvature="0"
         style="fill:#1e282b;stroke:#1e282b;stroke-width:0.25;stroke-linejoin:round;stroke-miterlimit:10" /></g><g
       id="g166"><path
         stroke-miterlimit="10"
         d="m 28.19043,278.42529 c 0,-0.26855 0.2207,-0.46045 0.48047,-0.46045 0.27832,0 0.49902,0.19189 0.49902,0.46045 0,0.25928 -0.2207,0.45117 -0.49902,0.45117 -0.25977,0 -0.48047,-0.19189 -0.48047,-0.45117 z m 0.18262,-6.27685 h 0.61426 l -0.04785,4.87549 h -0.50879 z"
         id="path162"
         inkscape:connector-curvature="0"
         style="fill:#1e282b;stroke:#1e282b;stroke-width:0.25;stroke-linejoin:round;stroke-miterlimit:10" /><path
         stroke-miterlimit="10"
         d="m 30.83008,278.42529 c 0,-0.26855 0.2207,-0.46045 0.48047,-0.46045 0.27832,0 0.49902,0.19189 0.49902,0.46045 0,0.25928 -0.2207,0.45117 -0.49902,0.45117 -0.25977,0 -0.48047,-0.19189 -0.48047,-0.45117 z m 0.18261,-6.27685 h 0.61426 l -0.04785,4.87549 h -0.50879 z"
         id="path164"
         inkscape:connector-curvature="0"
         style="fill:#1e282b;stroke:#1e282b;stroke-width:0.25;stroke-linejoin:round;stroke-miterlimit:10" /></g><g
       id="g170"><path
         stroke-miterlimit="10"
         d="m 7.7832,309.17725 c 0,-0.26855 0.2207,-0.46045 0.48047,-0.46045 0.27832,0 0.49902,0.19189 0.49902,0.46045 0,0.25928 -0.2207,0.45117 -0.49902,0.45117 -0.25976,0 -0.48047,-0.1919 -0.48047,-0.45117 z m 0.18262,-6.27686 h 0.61426 l -0.04785,4.87549 H 8.02344 Z"
         id="path168"
         inkscape:connector-curvature="0"
         style="fill:#1e282b;stroke:#1e282b;stroke-width:0.25;stroke-linejoin:round;stroke-miterlimit:10" /></g><path
       stroke-miterlimit="10"
       d="m 43.5914,306.89502 c 1.16203,-2.16669 1.8211,-4.6434 1.8211,-7.27408 0,-8.51208 -6.90041,-15.41251 -15.4125,-15.41251 -8.51209,0 -15.4125,6.90042 -15.4125,15.41251 0,2.4404 0.56718,4.74832 1.57692,6.79913"
       id="path172"
       inkscape:connector-curvature="0"
       style="fill:none;stroke:#1e282b;stroke-width:0.5;stroke-linecap:round;stroke-miterlimit:10" /></g><circle
     style="fill:#1e282b"
     id="circle174"
     r="1.23552"
     cy="74.177254"
     cx="13.3125" /><circle
     style="fill:#1e282b"
     id="circle176"
     r="1.23552"
     cy="74.177254"
     cx="46.6875" /><g
     id="g196"><path
       style="fill:#1e282b"
       inkscape:connector-curvature="0"
       id="path178"
       d="m 43.26989,374.46884 h -0.12793 c -0.52441,0 -0.63477,-0.61475 -0.63477,-1.13037 v -1.06592 h 0.60254 c 0.06934,0 0.125,-0.0562 0.125,-0.125 v -0.42383 c 0,-0.0688 -0.05566,-0.125 -0.125,-0.125 h -0.60254 v -0.53906 c 0,-0.0688 -0.05566,-0.125 -0.125,-0.125 h -0.51172 c -0.06934,0 -0.125,0.0562 -0.125,0.125 v 0.53076 h -1.05762 c -0.50586,0 -0.85938,-0.3335 -0.85938,-0.81055 0,-0.45117 0.33105,-0.77832 0.78711,-0.77832 0.30078,0 0.57617,0.14111 0.73633,0.37695 0.03906,0.0566 0.11523,0.0708 0.17188,0.0342 l 0.41504,-0.27197 c 0.05762,-0.0376 0.07422,-0.11523 0.03613,-0.17285 -0.29199,-0.44727 -0.78809,-0.7041 -1.35938,-0.7041 -0.88281,0 -1.54883,0.63477 -1.54883,1.47656 0,0.47168 0.19238,0.90234 0.50488,1.16016 -0.56543,0.29443 -0.91992,0.88574 -0.91992,1.56592 0,1.01318 0.76855,1.74854 1.82813,1.74854 0.64551,0 1.20801,-0.24805 1.53711,-0.66211 0.17188,0.40967 0.57422,0.646 1.125,0.646 h 0.12793 c 0.06934,0 0.125,-0.0562 0.125,-0.125 v -0.47998 c 10e-6,-0.0689 -0.05565,-0.12501 -0.12499,-0.12501 z m -2.71875,0.008 c -0.68555,0 -1.14551,-0.42871 -1.14551,-1.06641 0,-0.66992 0.53711,-1.13818 1.30566,-1.13818 h 1.03418 v 1.12012 c -0.02246,0.63867 -0.51269,1.08447 -1.19433,1.08447 z" /><path
       style="fill:#1e282b"
       inkscape:connector-curvature="0"
       id="path180"
       d="M 48.91359,372.88754 H 47.8777 v -0.56152 h 1.45776 v -0.76172 h -1.03369 l 1.19239,-1.19232 c 0.05608,-0.0561 0.07585,-0.14642 0.04356,-0.21887 -0.58866,-1.32062 -2.65677,-0.97644 -3.92763,-0.94199 -0.10287,0.003 -0.17795,0.0845 -0.17795,0.18744 v 4.06061 c 0,0.10498 0.08512,0.19009 0.19011,0.19009 h 1.36262 v 0.1604 l -1.75488,0.90332 -0.0039,0.8587 1.77259,-0.91235 c 0.08486,-0.0437 0.18157,-0.0108 0.23766,0.0664 0.51751,0.7124 1.71353,0.73456 2.223,-0.0209 0.33153,-0.49164 0.21597,-1.2489 0.21597,-1.81732 H 48.9136 Z m -1.7976,0 c -0.30737,0 -0.61475,0 -0.92212,0 v -1.71472 c 0.24629,0.24631 0.66022,0.52466 0.82622,0.82629 0.14493,0.2634 0.0959,0.56623 0.0959,0.88843 z m -0.92213,-2.79193 v -0.12018 c 0.6548,0 1.84723,-0.23621 2.38867,0.23071 l -1.00472,1.00473 c -0.07425,0.0743 -0.19463,0.0743 -0.26887,0 z m 2.71973,3.97937 c 0,0.50156 -0.64171,0.77072 -0.99609,0.4126 -0.20409,-0.20624 -0.19053,-0.5665 -0.1709,-0.83832 0.389,0 0.778,0 1.16699,0 z" /><g
       id="g194"><path
         style="fill:#1e282b;stroke:#1e282b;stroke-width:0.25;stroke-linejoin:round;stroke-miterlimit:10"
         inkscape:connector-curvature="0"
         id="path182"
         d="m 14.19876,369.60986 v 5.50879 h -0.54297 l -2.82324,-4.58936 v 4.58936 h -0.52734 v -5.50879 h 0.55176 l 2.81445,4.58154 v -4.58154 z"
         stroke-miterlimit="10" /><path
         style="fill:#1e282b;stroke:#1e282b;stroke-width:0.25;stroke-linejoin:round;stroke-miterlimit:10"
         inkscape:connector-curvature="0"
         id="path184"
         d="m 19.97512,369.60986 -2.10352,2.92627 v 2.58252 h -0.52734 v -2.58252 l -2.07031,-2.92627 H 15.897 l 1.71875,2.41455 1.72754,-2.41455 z"
         stroke-miterlimit="10" /><path
         style="fill:#1e282b;stroke:#1e282b;stroke-width:0.25;stroke-linejoin:round;stroke-miterlimit:10"
         inkscape:connector-curvature="0"
         id="path186"
         d="m 20.56887,373.65527 h 0.51953 c 0.05664,0.54395 0.55176,1.06348 1.32813,1.06348 0.87891,0 1.31934,-0.57568 1.31934,-1.09521 0,-0.59961 -0.53613,-0.8877 -1.08008,-1.02344 l -0.74316,-0.17578 c -1.13574,-0.27197 -1.30371,-0.93555 -1.30371,-1.37549 0,-0.91162 0.83984,-1.53516 1.75098,-1.53516 0.93555,0 1.67969,0.57568 1.71094,1.49512 H 23.5435 c -0.03223,-0.60742 -0.53516,-0.99951 -1.19922,-0.99951 -0.62402,0 -1.20703,0.42383 -1.20703,1.03955 0,0.25586 0.08008,0.6958 0.90332,0.8877 l 0.74316,0.17578 c 0.87207,0.21582 1.47949,0.6875 1.47949,1.4873 0,0.77539 -0.63965,1.61523 -1.84668,1.61523 -1.08009,0 -1.80763,-0.75976 -1.84767,-1.55957 z"
         stroke-miterlimit="10" /><path
         style="fill:#1e282b;stroke:#1e282b;stroke-width:0.25;stroke-linejoin:round;stroke-miterlimit:10"
         inkscape:connector-curvature="0"
         id="path188"
         d="m 28.98391,370.10547 h -1.75977 v 5.01318 H 26.6968 v -5.01318 h -1.75097 v -0.49561 h 4.03809 c 0,0 0,0.49561 -10e-6,0.49561 z"
         stroke-miterlimit="10" /><path
         style="fill:#1e282b;stroke:#1e282b;stroke-width:0.25;stroke-linejoin:round;stroke-miterlimit:10"
         inkscape:connector-curvature="0"
         id="path190"
         d="m 34.25539,369.60986 v 5.50879 h -0.52734 v -2.50244 h -3.03027 v 2.50244 h -0.52832 v -5.50879 h 0.52832 v 2.53467 h 3.03027 v -2.53467 z"
         stroke-miterlimit="10" /><path
         style="fill:#1e282b;stroke:#1e282b;stroke-width:0.25;stroke-linejoin:round;stroke-miterlimit:10"
         inkscape:connector-curvature="0"
         id="path192"
         d="m 36.08937,369.60986 h 0.52832 v 5.50879 h -0.52832 z"
         stroke-miterlimit="10" /></g></g><g
     id="SCREEN" /><g
     id="DISPLAY" /><g
     id="LED_PUSH" /><g
     id="Calque_4" /><g
     aria-label="defects"
     style="font-style:normal;font-variant:normal;font-weight:300;font-stretch:normal;font-size:10.66666698px;line-height:1.25;font-family:'Sofia Pro';-inkscape-font-specification:'Sofia Pro, Light';font-variant-ligatures:normal;font-variant-caps:normal;font-variant-numeric:normal;font-feature-settings:normal;text-align:center;letter-spacing:0px;word-spacing:0px;writing-mode:lr-tb;text-anchor:middle;fill:#000000;fill-opacity:1;stroke:none;stroke-width:1px;stroke-linecap:butt;stroke-linejoin:miter;stroke-opacity:1"
     id="text1067"
     transform="translate(0.99999962,6)"><g
       aria-label="non-linearities"
       transform="matrix(0.82112235,0,0,1.2178453,0,-6)"
       style="font-style:normal;font-variant:normal;font-weight:normal;font-stretch:normal;font-size:6.56897831px;line-height:1.25;font-family:'Sofia Pro';-inkscape-font-specification:'Sofia Pro, Normal';font-variant-ligatures:normal;font-variant-caps:normal;font-variant-numeric:normal;font-feature-settings:normal;text-align:center;letter-spacing:0px;word-spacing:0px;writing-mode:lr-tb;text-anchor:middle;fill:#000000;fill-opacity:1;stroke:none;stroke-width:0.82112229px;stroke-linecap:butt;stroke-linejoin:miter;stroke-opacity:1"
       id="text1092"><path
         d="m 6.089227,262.63245 v -3.06638 h 0.5965967 v 0.45867 q 0.1283004,-0.2566 0.4041461,-0.39131 0.2758458,-0.13472 0.5548991,-0.13472 0.5709366,0 0.8756499,0.35603 0.3079209,0.35604 0.3079209,1.00395 v 1.77376 H 8.2286355 v -1.73527 q 0,-0.3849 -0.1796205,-0.5998 -0.1796205,-0.2149 -0.4971639,-0.2149 -0.169998,0 -0.3207509,0.0513 -0.1475454,0.0481 -0.2726382,0.15075 -0.1250929,0.10264 -0.1988656,0.28226 -0.073773,0.17641 -0.073773,0.41056 v 1.65508 z"
         style="stroke-width:0.82112229px"
         id="path1103"
         inkscape:connector-curvature="0" /><path
         d="m 9.7971073,261.93321 q -0.2181106,-0.37207 -0.2181106,-0.84358 0,-0.4715 0.2181106,-0.83716 0.2213177,-0.36886 0.5837667,-0.56131 0.362448,-0.19245 0.801877,-0.19245 0.439429,0 0.801877,0.19245 0.365656,0.19245 0.586975,0.56131 0.221318,0.36566 0.221318,0.83716 0,0.47151 -0.221318,0.84358 -0.221319,0.37207 -0.586975,0.56773 -0.365656,0.19566 -0.801877,0.19566 -0.436221,0 -0.801877,-0.19566 -0.362449,-0.19566 -0.5837667,-0.56773 z m 0.3720707,-0.84358 q 0,0.45868 0.291884,0.74415 0.29509,0.28546 0.721689,0.28546 0.423391,0 0.715275,-0.28546 0.29509,-0.28547 0.29509,-0.74415 0,-0.45225 -0.291883,-0.7281 -0.291883,-0.27905 -0.718482,-0.27905 -0.426599,0 -0.721689,0.27905 -0.291884,0.27585 -0.291884,0.7281 z"
         style="stroke-width:0.82112229px"
         id="path1105"
         inkscape:connector-curvature="0" /><path
         d="m 13.581968,262.63245 v -3.06638 h 0.596596 v 0.45867 q 0.128301,-0.2566 0.404146,-0.39131 0.275846,-0.13472 0.5549,-0.13472 0.570936,0 0.875649,0.35603 0.307921,0.35604 0.307921,1.00395 v 1.77376 h -0.599804 v -1.73527 q 0,-0.3849 -0.17962,-0.5998 -0.179621,-0.2149 -0.497164,-0.2149 -0.169998,0 -0.320751,0.0513 -0.147546,0.0481 -0.272638,0.15075 -0.125093,0.10264 -0.198866,0.28226 -0.07377,0.17641 -0.07377,0.41056 v 1.65508 z"
         style="stroke-width:0.82112229px"
         id="path1107"
         inkscape:connector-curvature="0" /><path
         d="m 17.228905,261.38473 v -0.57094 h 2.286954 v 0.57094 z"
         style="stroke-width:0.82112229px"
         id="path1109"
         inkscape:connector-curvature="0" /><path
         d="m 20.471697,262.63245 v -4.73749 h 0.596597 v 4.73749 z"
         style="stroke-width:0.82112229px"
         id="path1111"
         inkscape:connector-curvature="0" /><path
         d="m 22.065829,258.71287 q -0.121885,-0.11226 -0.121885,-0.27905 0,-0.16679 0.121885,-0.27585 0.121885,-0.11226 0.291883,-0.11226 0.173206,0 0.291884,0.11226 0.121885,0.10906 0.121885,0.27585 0,0.16679 -0.121885,0.27905 -0.118678,0.10906 -0.291884,0.10906 -0.169998,0 -0.291883,-0.10906 z m -0.0032,3.91958 v -3.06638 h 0.590182 v 3.06638 z"
         style="stroke-width:0.82112229px"
         id="path1113"
         inkscape:connector-curvature="0" /><path
         d="m 23.653547,262.63245 v -3.06638 h 0.596596 v 0.45867 q 0.128301,-0.2566 0.404146,-0.39131 0.275846,-0.13472 0.554899,-0.13472 0.570937,0 0.87565,0.35603 0.307921,0.35604 0.307921,1.00395 v 1.77376 h -0.599804 v -1.73527 q 0,-0.3849 -0.17962,-0.5998 -0.179621,-0.2149 -0.497164,-0.2149 -0.169998,0 -0.320751,0.0513 -0.147546,0.0481 -0.272638,0.15075 -0.125093,0.10264 -0.198866,0.28226 -0.07377,0.17641 -0.07377,0.41056 v 1.65508 z"
         style="stroke-width:0.82112229px"
         id="path1115"
         inkscape:connector-curvature="0" /><path
         d="m 27.143315,261.08963 q 0,-0.71206 0.449052,-1.15149 0.452258,-0.43943 1.122628,-0.43943 0.663954,0 1.09376,0.43622 0.429806,0.43622 0.429806,1.1547 0,0.17 -0.0064,0.23415 H 27.74312 q 0.05453,0.3817 0.327165,0.60943 0.272639,0.22773 0.663955,0.22773 0.279053,0 0.516409,-0.12509 0.237355,-0.12509 0.362448,-0.34962 0.08981,0.0353 0.275846,0.10906 0.186036,0.0706 0.237356,0.0898 -0.192451,0.39131 -0.574144,0.60301 -0.378486,0.20849 -0.83716,0.20849 -0.667162,0 -1.119421,-0.44585 -0.452259,-0.44584 -0.452259,-1.16112 z m 0.599805,-0.23094 h 1.902052 q -0.05453,-0.38169 -0.307921,-0.5998 -0.250185,-0.22132 -0.622256,-0.22132 -0.384901,0 -0.651125,0.22132 -0.266223,0.21811 -0.32075,0.5998 z"
         style="stroke-width:0.82112229px"
         id="path1117"
         inkscape:connector-curvature="0" /><path
         d="m 30.799876,261.09605 q 0,-0.47471 0.214903,-0.84358 0.214903,-0.36886 0.567729,-0.56131 0.352826,-0.19245 0.776218,-0.19245 0.336788,0 0.631879,0.13792 0.298298,0.13472 0.442636,0.38811 v -0.45867 h 0.593389 v 3.06638 h -0.593389 v -0.47151 q -0.147545,0.2534 -0.445844,0.39453 -0.29509,0.14113 -0.628671,0.14113 -0.647917,0 -1.103383,-0.44585 -0.455467,-0.44584 -0.455467,-1.1547 z m 0.612634,-0.006 q 0,0.44585 0.288676,0.73452 0.288676,0.28868 0.70886,0.28868 0.426598,0 0.721689,-0.27585 0.295091,-0.27584 0.295091,-0.74735 0,-0.31433 -0.15396,-0.54848 -0.153961,-0.23736 -0.381694,-0.34641 -0.224526,-0.11226 -0.481126,-0.11226 -0.423391,0 -0.712067,0.27905 -0.285469,0.27905 -0.285469,0.7281 z"
         style="stroke-width:0.82112229px"
         id="path1119"
         inkscape:connector-curvature="0" /><path
         d="m 35.020957,262.63245 v -3.06638 h 0.596597 v 0.68961 q 0.221318,-0.75697 0.853197,-0.75697 0.157168,0 0.307921,0.0385 0.153961,0.0353 0.224526,0.0802 l -0.09302,0.5581 q -0.214903,-0.10584 -0.452259,-0.10584 -0.285468,0 -0.477919,0.19565 -0.19245,0.19566 -0.279053,0.51321 -0.0834,0.31754 -0.0834,0.73772 v 1.11622 z"
         style="stroke-width:0.82112229px"
         id="path1121"
         inkscape:connector-curvature="0" /><path
         d="m 37.615832,258.71287 q -0.121885,-0.11226 -0.121885,-0.27905 0,-0.16679 0.121885,-0.27585 0.121885,-0.11226 0.291883,-0.11226 0.173206,0 0.291884,0.11226 0.121885,0.10906 0.121885,0.27585 0,0.16679 -0.121885,0.27905 -0.118678,0.10906 -0.291884,0.10906 -0.169998,0 -0.291883,-0.10906 z m -0.0032,3.91958 v -3.06638 h 0.590182 v 3.06638 z"
         style="stroke-width:0.82112229px"
         id="path1123"
         inkscape:connector-curvature="0" /><path
         d="m 38.879591,260.06965 v -0.50358 h 0.551692 v -1.15791 h 0.599804 v 1.15791 h 0.647917 v 0.50358 h -0.647917 v 2.5628 h -0.599804 v -2.5628 z"
         style="stroke-width:0.82112229px"
         id="path1125"
         inkscape:connector-curvature="0" /><path
         d="m 41.362202,258.71287 q -0.121885,-0.11226 -0.121885,-0.27905 0,-0.16679 0.121885,-0.27585 0.121886,-0.11226 0.291884,-0.11226 0.173205,0 0.291883,0.11226 0.121885,0.10906 0.121885,0.27585 0,0.16679 -0.121885,0.27905 -0.118678,0.10906 -0.291883,0.10906 -0.169998,0 -0.291884,-0.10906 z m -0.0032,3.91958 v -3.06638 h 0.590181 v 3.06638 z"
         style="stroke-width:0.82112229px"
         id="path1127"
         inkscape:connector-curvature="0" /><path
         d="m 42.744638,261.08963 q 0,-0.71206 0.449051,-1.15149 0.452259,-0.43943 1.122628,-0.43943 0.663954,0 1.09376,0.43622 0.429807,0.43622 0.429807,1.1547 0,0.17 -0.0064,0.23415 h -2.489027 q 0.05453,0.3817 0.327166,0.60943 0.272638,0.22773 0.663954,0.22773 0.279053,0 0.516409,-0.12509 0.237356,-0.12509 0.362448,-0.34962 0.08981,0.0353 0.275846,0.10906 0.186036,0.0706 0.237356,0.0898 -0.192451,0.39131 -0.574144,0.60301 -0.378486,0.20849 -0.83716,0.20849 -0.667162,0 -1.119421,-0.44585 -0.452258,-0.44584 -0.452258,-1.16112 z m 0.599804,-0.23094 h 1.902053 q -0.05453,-0.38169 -0.307921,-0.5998 -0.250186,-0.22132 -0.622257,-0.22132 -0.384901,0 -0.651124,0.22132 -0.266224,0.21811 -0.320751,0.5998 z"
         style="stroke-width:0.82112229px"
         id="path1129"
         inkscape:connector-curvature="0" /><path
         d="m 46.381955,261.71189 h 0.545277 q 0.01604,0.10264 0.08019,0.19887 0.06736,0.0962 0.169998,0.15075 0.20528,0.12509 0.484333,0.10585 0.208488,-0.016 0.336789,-0.1251 0.1283,-0.10905 0.131508,-0.27584 0.0032,-0.15717 -0.109056,-0.25019 -0.112262,-0.0962 -0.298298,-0.13792 l -0.420184,-0.0994 q -0.439428,-0.11868 -0.651124,-0.35283 -0.208488,-0.23735 -0.169998,-0.64471 0.03207,-0.33358 0.343204,-0.5581 0.311128,-0.22453 0.721689,-0.22453 0.202073,0 0.378486,0.0481 0.176413,0.0481 0.323958,0.15076 0.150753,0.0994 0.243771,0.26943 0.09622,0.16999 0.11547,0.39773 H 48.03703 q -0.02245,-0.16679 -0.157168,-0.2566 -0.134715,-0.0898 -0.320751,-0.0898 -0.169998,0 -0.301506,0.077 -0.1283,0.077 -0.160375,0.19886 -0.03849,0.14434 0.0064,0.24377 0.07057,0.15076 0.362448,0.23415 l 0.452259,0.11226 q 0.795462,0.19566 0.795462,0.8949 0,0.41377 -0.346411,0.66716 -0.346411,0.25019 -0.843575,0.25019 -0.28226,0 -0.535654,-0.10906 -0.253393,-0.11226 -0.426598,-0.3432 -0.169998,-0.23094 -0.179621,-0.53245 z"
         style="stroke-width:0.82112229px"
         id="path1131"
         inkscape:connector-curvature="0" /></g></g><circle
     style="opacity:1;fill:#000000;fill-opacity:0.6553398;stroke:#000000;stroke-width:2.02637911;stroke-miterlimit:4;stroke-dasharray:none;stroke-dashoffset:0;stroke-opacity:1"
     id="path1088"
     cx="88.851692"
     cy="305.72882"
     r="4.9868107" /></svg>