<?xml version="1.0" encoding="UTF-8" standalone="no"?>
<!-- Created with Inkscape (http://www.inkscape.org/) -->

<svg
   xmlns:dc="http://purl.org/dc/elements/1.1/"
   xmlns:cc="http://creativecommons.org/ns#"
   xmlns:rdf="http://www.w3.org/1999/02/22-rdf-syntax-ns#"
   xmlns:svg="http://www.w3.org/2000/svg"
   xmlns="http://www.w3.org/2000/svg"
   xmlns:sodipodi="http://sodipodi.sourceforge.net/DTD/sodipodi-0.dtd"
   xmlns:inkscape="http://www.inkscape.org/namespaces/inkscape"
   width="390"
   height="380"
   viewBox="0 0 103.1875 100.54167"
   version="1.1"
   id="svg8"
   inkscape:version="0.92.2 5c3e80d, 2017-08-06"
   sodipodi:docname="YY.svg"
   inkscape:export-filename="E:\Users\Martin\Documents\Rack_Source\Rack\plugins\ML-modules\res\Quantum.png"
   inkscape:export-xdpi="96"
   inkscape:export-ydpi="96"
   enable-background="new">
  <sodipodi:namedview
     id="base"
     pagecolor="#ffffff"
     bordercolor="#666666"
     borderopacity="1.0"
     inkscape:pageopacity="0.0"
     inkscape:pageshadow="2"
     inkscape:zoom="1.0122791"
     inkscape:cx="275.91683"
     inkscape:cy="163.21455"
     inkscape:document-units="px"
     inkscape:current-layer="layer2"
     showgrid="true"
     units="px"
     fit-margin-top="0"
     fit-margin-left="0"
     fit-margin-right="0"
     fit-margin-bottom="0"
     showguides="true"
     inkscape:snap-to-guides="false"
     objecttolerance="20"
     inkscape:window-width="1232"
     inkscape:window-height="754"
     inkscape:window-x="-100"
     inkscape:window-y="4"
     inkscape:window-maximized="0"
     gridtolerance="17"
     inkscape:snap-perpendicular="false"
     inkscape:pagecheckerboard="true"
     inkscape:snap-page="false"
     inkscape:snap-text-baseline="true">
    <inkscape:grid
       empspacing="20"
       dotted="false"
       spacingy="0.52916668"
       spacingx="0.52916668"
       originy="100.54167"
       originx="-7.3436628e-018"
       id="grid43"
       type="xygrid" />
  </sodipodi:namedview>
  <defs
     id="defs2">
    <marker
       inkscape:stockid="Arrow1Lstart"
       orient="auto"
       refY="0.0"
       refX="0.0"
       id="marker2882"
       style="overflow:visible"
       inkscape:isstock="true">
      <path
         id="path2880"
         d="M 0.0,0.0 L 5.0,-5.0 L -12.5,0.0 L 5.0,5.0 L 0.0,0.0 z "
         style="fill-rule:evenodd;stroke:none;stroke-width:1pt;stroke-opacity:1;fill:#000000;fill-opacity:1"
         transform="scale(0.8) translate(12.5,0)" />
    </marker>
    <marker
       inkscape:stockid="Arrow1Lstart"
       orient="auto"
       refY="0.0"
       refX="0.0"
       id="marker2740"
       style="overflow:visible"
       inkscape:isstock="true">
      <path
         id="path2738"
         d="M 0.0,0.0 L 5.0,-5.0 L -12.5,0.0 L 5.0,5.0 L 0.0,0.0 z "
         style="fill-rule:evenodd;stroke:none;stroke-width:1pt;stroke-opacity:1;fill:#000000;fill-opacity:1"
         transform="scale(0.8) translate(12.5,0)" />
    </marker>
    <marker
       inkscape:stockid="Arrow1Lstart"
       orient="auto"
       refY="0.0"
       refX="0.0"
       id="marker2604"
       style="overflow:visible"
       inkscape:isstock="true">
      <path
         id="path2602"
         d="M 0.0,0.0 L 5.0,-5.0 L -12.5,0.0 L 5.0,5.0 L 0.0,0.0 z "
         style="fill-rule:evenodd;stroke:none;stroke-width:1pt;stroke-opacity:1;fill:#000000;fill-opacity:1"
         transform="scale(0.8) translate(12.5,0)" />
    </marker>
    <marker
       inkscape:stockid="Arrow1Lstart"
       orient="auto"
       refY="0.0"
       refX="0.0"
       id="marker2474"
       style="overflow:visible"
       inkscape:isstock="true">
      <path
         id="path2472"
         d="M 0.0,0.0 L 5.0,-5.0 L -12.5,0.0 L 5.0,5.0 L 0.0,0.0 z "
         style="fill-rule:evenodd;stroke:none;stroke-width:1pt;stroke-opacity:1;fill:#000000;fill-opacity:1"
         transform="scale(0.8) translate(12.5,0)" />
    </marker>
    <marker
       inkscape:stockid="Arrow1Lstart"
       orient="auto"
       refY="0.0"
       refX="0.0"
       id="marker2350"
       style="overflow:visible"
       inkscape:isstock="true">
      <path
         id="path2348"
         d="M 0.0,0.0 L 5.0,-5.0 L -12.5,0.0 L 5.0,5.0 L 0.0,0.0 z "
         style="fill-rule:evenodd;stroke:none;stroke-width:1pt;stroke-opacity:1;fill:#000000;fill-opacity:1"
         transform="scale(0.8) translate(12.5,0)" />
    </marker>
    <marker
       inkscape:stockid="Arrow1Lstart"
       orient="auto"
       refY="0.0"
       refX="0.0"
       id="marker2232"
       style="overflow:visible"
       inkscape:isstock="true">
      <path
         id="path2230"
         d="M 0.0,0.0 L 5.0,-5.0 L -12.5,0.0 L 5.0,5.0 L 0.0,0.0 z "
         style="fill-rule:evenodd;stroke:none;stroke-width:1pt;stroke-opacity:1;fill:#000000;fill-opacity:1"
         transform="scale(0.8) translate(12.5,0)" />
    </marker>
    <marker
       inkscape:stockid="Arrow1Lstart"
       orient="auto"
       refY="0.0"
       refX="0.0"
       id="marker2120"
       style="overflow:visible"
       inkscape:isstock="true">
      <path
         id="path2118"
         d="M 0.0,0.0 L 5.0,-5.0 L -12.5,0.0 L 5.0,5.0 L 0.0,0.0 z "
         style="fill-rule:evenodd;stroke:none;stroke-width:1pt;stroke-opacity:1;fill:#000000;fill-opacity:1"
         transform="scale(0.8) translate(12.5,0)" />
    </marker>
    <marker
       inkscape:stockid="Arrow1Lstart"
       orient="auto"
       refY="0.0"
       refX="0.0"
       id="marker2014"
       style="overflow:visible"
       inkscape:isstock="true">
      <path
         id="path2012"
         d="M 0.0,0.0 L 5.0,-5.0 L -12.5,0.0 L 5.0,5.0 L 0.0,0.0 z "
         style="fill-rule:evenodd;stroke:none;stroke-width:1pt;stroke-opacity:1;fill:#000000;fill-opacity:1"
         transform="scale(0.8) translate(12.5,0)" />
    </marker>
    <marker
       inkscape:stockid="Arrow1Lstart"
       orient="auto"
       refY="0.0"
       refX="0.0"
       id="marker1914"
       style="overflow:visible"
       inkscape:isstock="true">
      <path
         id="path1912"
         d="M 0.0,0.0 L 5.0,-5.0 L -12.5,0.0 L 5.0,5.0 L 0.0,0.0 z "
         style="fill-rule:evenodd;stroke:none;stroke-width:1pt;stroke-opacity:1;fill:#000000;fill-opacity:1"
         transform="scale(0.8) translate(12.5,0)" />
    </marker>
    <marker
       inkscape:stockid="Arrow1Lstart"
       orient="auto"
       refY="0.0"
       refX="0.0"
       id="marker1820"
       style="overflow:visible"
       inkscape:isstock="true">
      <path
         id="path1818"
         d="M 0.0,0.0 L 5.0,-5.0 L -12.5,0.0 L 5.0,5.0 L 0.0,0.0 z "
         style="fill-rule:evenodd;stroke:none;stroke-width:1pt;stroke-opacity:1;fill:#000000;fill-opacity:1"
         transform="scale(0.8) translate(12.5,0)" />
    </marker>
    <marker
       inkscape:stockid="Arrow1Lstart"
       orient="auto"
       refY="0.0"
       refX="0.0"
       id="marker1732"
       style="overflow:visible"
       inkscape:isstock="true">
      <path
         id="path1730"
         d="M 0.0,0.0 L 5.0,-5.0 L -12.5,0.0 L 5.0,5.0 L 0.0,0.0 z "
         style="fill-rule:evenodd;stroke:none;stroke-width:1pt;stroke-opacity:1;fill:#000000;fill-opacity:1"
         transform="scale(0.8) translate(12.5,0)" />
    </marker>
    <marker
       inkscape:stockid="Arrow1Lstart"
       orient="auto"
       refY="0.0"
       refX="0.0"
       id="marker1650"
       style="overflow:visible"
       inkscape:isstock="true">
      <path
         id="path1648"
         d="M 0.0,0.0 L 5.0,-5.0 L -12.5,0.0 L 5.0,5.0 L 0.0,0.0 z "
         style="fill-rule:evenodd;stroke:none;stroke-width:1pt;stroke-opacity:1;fill:#000000;fill-opacity:1"
         transform="scale(0.8) translate(12.5,0)" />
    </marker>
    <marker
       inkscape:stockid="Arrow1Lstart"
       orient="auto"
       refY="0.0"
       refX="0.0"
       id="marker1574"
       style="overflow:visible"
       inkscape:isstock="true">
      <path
         id="path1572"
         d="M 0.0,0.0 L 5.0,-5.0 L -12.5,0.0 L 5.0,5.0 L 0.0,0.0 z "
         style="fill-rule:evenodd;stroke:none;stroke-width:1pt;stroke-opacity:1;fill:#000000;fill-opacity:1"
         transform="scale(0.8) translate(12.5,0)" />
    </marker>
    <marker
       inkscape:stockid="Arrow1Lstart"
       orient="auto"
       refY="0.0"
       refX="0.0"
       id="marker1504"
       style="overflow:visible"
       inkscape:isstock="true">
      <path
         id="path1502"
         d="M 0.0,0.0 L 5.0,-5.0 L -12.5,0.0 L 5.0,5.0 L 0.0,0.0 z "
         style="fill-rule:evenodd;stroke:none;stroke-width:1pt;stroke-opacity:1;fill:#000000;fill-opacity:1"
         transform="scale(0.8) translate(12.5,0)" />
    </marker>
    <marker
       inkscape:stockid="Arrow1Lstart"
       orient="auto"
       refY="0.0"
       refX="0.0"
       id="marker1440"
       style="overflow:visible"
       inkscape:isstock="true">
      <path
         id="path1438"
         d="M 0.0,0.0 L 5.0,-5.0 L -12.5,0.0 L 5.0,5.0 L 0.0,0.0 z "
         style="fill-rule:evenodd;stroke:none;stroke-width:1pt;stroke-opacity:1;fill:#000000;fill-opacity:1"
         transform="scale(0.8) translate(12.5,0)" />
    </marker>
    <marker
       inkscape:stockid="Arrow1Lstart"
       orient="auto"
       refY="0.0"
       refX="0.0"
       id="marker1382"
       style="overflow:visible"
       inkscape:isstock="true">
      <path
         id="path1380"
         d="M 0.0,0.0 L 5.0,-5.0 L -12.5,0.0 L 5.0,5.0 L 0.0,0.0 z "
         style="fill-rule:evenodd;stroke:none;stroke-width:1pt;stroke-opacity:1;fill:#000000;fill-opacity:1"
         transform="scale(0.8) translate(12.5,0)" />
    </marker>
    <marker
       inkscape:stockid="Arrow1Lstart"
       orient="auto"
       refY="0.0"
       refX="0.0"
       id="marker1330"
       style="overflow:visible"
       inkscape:isstock="true">
      <path
         id="path1328"
         d="M 0.0,0.0 L 5.0,-5.0 L -12.5,0.0 L 5.0,5.0 L 0.0,0.0 z "
         style="fill-rule:evenodd;stroke:none;stroke-width:1pt;stroke-opacity:1;fill:#000000;fill-opacity:1"
         transform="scale(0.8) translate(12.5,0)" />
    </marker>
    <marker
       inkscape:stockid="Arrow1Lstart"
       orient="auto"
       refY="0.0"
       refX="0.0"
       id="marker1284"
       style="overflow:visible"
       inkscape:isstock="true">
      <path
         id="path1282"
         d="M 0.0,0.0 L 5.0,-5.0 L -12.5,0.0 L 5.0,5.0 L 0.0,0.0 z "
         style="fill-rule:evenodd;stroke:none;stroke-width:1pt;stroke-opacity:1;fill:#000000;fill-opacity:1"
         transform="scale(0.8) translate(12.5,0)" />
    </marker>
    <marker
       inkscape:stockid="Arrow1Lstart"
       orient="auto"
       refY="0.0"
       refX="0.0"
       id="marker1244"
       style="overflow:visible"
       inkscape:isstock="true">
      <path
         id="path1242"
         d="M 0.0,0.0 L 5.0,-5.0 L -12.5,0.0 L 5.0,5.0 L 0.0,0.0 z "
         style="fill-rule:evenodd;stroke:none;stroke-width:1pt;stroke-opacity:1;fill:#000000;fill-opacity:1"
         transform="scale(0.8) translate(12.5,0)" />
    </marker>
    <marker
       inkscape:stockid="Arrow1Lstart"
       orient="auto"
       refY="0.0"
       refX="0.0"
       id="marker1210"
       style="overflow:visible"
       inkscape:isstock="true">
      <path
         id="path1208"
         d="M 0.0,0.0 L 5.0,-5.0 L -12.5,0.0 L 5.0,5.0 L 0.0,0.0 z "
         style="fill-rule:evenodd;stroke:none;stroke-width:1pt;stroke-opacity:1;fill:#000000;fill-opacity:1"
         transform="scale(0.8) translate(12.5,0)" />
    </marker>
    <marker
       inkscape:stockid="Arrow1Lstart"
       orient="auto"
       refY="0.0"
       refX="0.0"
       id="marker1182"
       style="overflow:visible"
       inkscape:isstock="true">
      <path
         id="path1180"
         d="M 0.0,0.0 L 5.0,-5.0 L -12.5,0.0 L 5.0,5.0 L 0.0,0.0 z "
         style="fill-rule:evenodd;stroke:none;stroke-width:1pt;stroke-opacity:1;fill:#000000;fill-opacity:1"
         transform="scale(0.8) translate(12.5,0)" />
    </marker>
    <marker
       inkscape:stockid="Arrow1Lstart"
       orient="auto"
       refY="0.0"
       refX="0.0"
       id="marker1160"
       style="overflow:visible"
       inkscape:isstock="true">
      <path
         id="path1158"
         d="M 0.0,0.0 L 5.0,-5.0 L -12.5,0.0 L 5.0,5.0 L 0.0,0.0 z "
         style="fill-rule:evenodd;stroke:none;stroke-width:1pt;stroke-opacity:1;fill:#000000;fill-opacity:1"
         transform="scale(0.8) translate(12.5,0)" />
    </marker>
    <marker
       inkscape:stockid="Arrow1Lstart"
       orient="auto"
       refY="0.0"
       refX="0.0"
       id="Arrow1Lstart"
       style="overflow:visible"
       inkscape:isstock="true">
      <path
         id="path882"
         d="M 0.0,0.0 L 5.0,-5.0 L -12.5,0.0 L 5.0,5.0 L 0.0,0.0 z "
         style="fill-rule:evenodd;stroke:none;stroke-width:1pt;stroke-opacity:1;fill:#000000;fill-opacity:1"
         transform="scale(0.8) translate(12.5,0)" />
    </marker>
    <inkscape:perspective
       id="perspective4742"
       inkscape:persp3d-origin="15.875 : 33.51389 : 1"
       inkscape:vp_z="31.75 : 50.270835 : 1"
       inkscape:vp_y="0 : 1000 : 0"
       inkscape:vp_x="0 : 50.270835 : 1"
       sodipodi:type="inkscape:persp3d" />
    <filter
       id="filter1636"
       x="-0.25"
       width="1.5"
       y="-0.25"
       height="1.5"
       inkscape:menu="Non-realistic 3D Shaders"
       inkscape:menu-tooltip="Deep and dark metal shading"
       inkscape:label="Deep Metal"
       style="color-interpolation-filters:sRGB">
      <feGaussianBlur
         id="feGaussianBlur1616"
         in="SourceGraphic"
         stdDeviation="5"
         result="result8" />
      <feComposite
         id="feComposite1618"
         in2="result8"
         operator="xor"
         result="result19" />
      <feComposite
         id="feComposite1620"
         k2="1"
         operator="arithmetic"
         result="result17"
         in2="result8"
         k1="0"
         k3="0"
         k4="0" />
      <feComposite
         id="feComposite1622"
         in2="result17"
         result="result6"
         operator="xor" />
      <feOffset
         id="feOffset1624"
         result="result18"
         in="result6" />
      <feDisplacementMap
         id="feDisplacementMap1626"
         in2="result17"
         in="result18"
         xChannelSelector="A"
         yChannelSelector="A"
         scale="100"
         result="result4" />
      <feComposite
         id="feComposite1628"
         in="result4"
         in2="result4"
         result="result2"
         operator="arithmetic"
         k3="1"
         k1="0"
         k2="0"
         k4="0" />
      <feComposite
         id="feComposite1630"
         in2="result2"
         result="fbSourceGraphic"
         in="result2"
         operator="over" />
      <feComposite
         id="feComposite1632"
         in="fbSourceGraphic"
         in2="SourceGraphic"
         operator="xor"
         result="result15" />
      <feComposite
         id="feComposite1634"
         result="result16"
         in2="result8"
         operator="in"
         in="result15" />
    </filter>
    <filter
       inkscape:collect="always"
       style="color-interpolation-filters:sRGB"
       id="filter1898">
      <feBlend
         inkscape:collect="always"
         mode="difference"
         in2="BackgroundImage"
         id="feBlend1900" />
    </filter>
  </defs>
  <metadata
     id="metadata5">
    <rdf:RDF>
      <cc:Work
         rdf:about="">
        <dc:format>image/svg+xml</dc:format>
        <dc:type
           rdf:resource="http://purl.org/dc/dcmitype/StillImage" />
        <dc:title />
      </cc:Work>
    </rdf:RDF>
  </metadata>
  <g
     style="display:inline;opacity:0.95;filter:url(#filter1898)"
     inkscape:label="Layer 2"
     id="layer2"
     inkscape:groupmode="layer">
    <g
       id="text4720"
       style="font-style:normal;font-variant:normal;font-weight:bold;font-stretch:normal;font-size:19.75555611px;line-height:1.25;font-family:Arial;-inkscape-font-specification:'Arial, Bold';font-variant-ligatures:normal;font-variant-caps:normal;font-variant-numeric:normal;font-feature-settings:normal;text-align:start;letter-spacing:0px;word-spacing:0px;writing-mode:lr-tb;text-anchor:start;fill:#000000;fill-opacity:1;stroke:none;stroke-width:0.26458335"
       aria-label="M" />
    <text
       id="text989"
       y="20.637499"
       x="19.050001"
       style="font-style:normal;font-variant:normal;font-weight:normal;font-stretch:normal;font-size:2.82222247px;line-height:1.25;font-family:Arial;-inkscape-font-specification:'Arial, Normal';font-variant-ligatures:normal;font-variant-caps:normal;font-variant-numeric:normal;font-feature-settings:normal;text-align:start;letter-spacing:0px;word-spacing:0px;writing-mode:lr-tb;text-anchor:start;fill:#000000;fill-opacity:1;stroke:none;stroke-width:0.26458335"
       xml:space="preserve"><tspan
         style="stroke-width:0.26458335"
         y="23.179628"
         x="19.050001"
         id="tspan987"
         sodipodi:role="line" /></text>
    <rect
       ry="0"
       y="55.6404"
       x="-7.9512687"
       height="0"
       width="6.2674704"
       id="rect842"
       style="fill:#ffffff;fill-opacity:1;stroke:none;stroke-width:0.26458335;stroke-opacity:1" />
    <path
       style="fill:#000000;fill-opacity:1;stroke-width:0.55077422"
       d="M 0,-1.6666667e-6 H 103.1875 V 100.54167 H 0 Z"
       id="rect4689"
       inkscape:connector-curvature="0" />
    <text
       id="text4987"
       y="59.795834"
       x="30.691668"
       style="font-style:normal;font-weight:normal;font-size:10.58333397px;line-height:1.25;font-family:'Bitstream Vera Sans';letter-spacing:0px;word-spacing:0px;fill:#000000;fill-opacity:1;stroke:none;stroke-width:0.26458335px;stroke-linecap:butt;stroke-linejoin:miter;stroke-opacity:1"
       xml:space="preserve"><tspan
         style="stroke-width:0.26458335px"
         y="69.159607"
         x="30.691668"
         id="tspan4985"
         sodipodi:role="line" /></text>
    <text
       xml:space="preserve"
       style="font-style:normal;font-weight:normal;font-size:10.58333397px;line-height:1.25;font-family:'Bitstream Vera Sans';letter-spacing:0px;word-spacing:0px;fill:#000000;fill-opacity:1;stroke:none;stroke-width:0.26458335px;stroke-linecap:butt;stroke-linejoin:miter;stroke-opacity:1"
       x="-36.247917"
       y="57.811459"
       id="text1042"><tspan
         sodipodi:role="line"
         id="tspan1040"
         x="-36.247917"
         y="67.175232"
         style="stroke-width:0.26458335px" /></text>
    <g
       transform="translate(-24.855675,3.7041699)"
       id="g1749"
       style="font-style:normal;font-variant:normal;font-weight:500;font-stretch:condensed;font-size:2.82222223px;line-height:1.25;font-family:Futura;-inkscape-font-specification:'Futura, Medium Condensed';font-variant-ligatures:normal;font-variant-caps:normal;font-variant-numeric:normal;font-feature-settings:normal;text-align:start;letter-spacing:0px;word-spacing:0px;writing-mode:lr-tb;text-anchor:start;fill:#000000;fill-opacity:1;stroke:none;stroke-width:0.26458335px;stroke-linecap:butt;stroke-linejoin:miter;stroke-opacity:1"
       aria-label="OCTAVE" />
    <g
       transform="translate(-31.471686,12.838492)"
       id="g1805"
       style="font-style:normal;font-variant:normal;font-weight:500;font-stretch:condensed;font-size:2.11666679px;line-height:1.25;font-family:Futura;-inkscape-font-specification:'Futura, Medium Condensed';font-variant-ligatures:normal;font-variant-caps:normal;font-variant-numeric:normal;font-feature-settings:normal;text-align:start;letter-spacing:0px;word-spacing:0px;writing-mode:lr-tb;text-anchor:start;fill:#000000;fill-opacity:1;stroke:none;stroke-width:0.26458335px;stroke-linecap:butt;stroke-linejoin:miter;stroke-opacity:1"
       aria-label="UNI" />
    <g
       aria-label="SOU UTILS"
       style="font-style:normal;font-variant:normal;font-weight:800;font-stretch:condensed;font-size:4.23333359px;line-height:1.25;font-family:Futura;-inkscape-font-specification:'Futura, Ultra-Bold Condensed';font-variant-ligatures:normal;font-variant-caps:normal;font-variant-numeric:normal;font-feature-settings:normal;text-align:start;letter-spacing:0px;word-spacing:0px;writing-mode:lr-tb;text-anchor:start;fill:#000000;fill-opacity:1;stroke:none;stroke-width:0.26458335px;stroke-linecap:butt;stroke-linejoin:miter;stroke-opacity:1"
       id="text1921"
       transform="translate(16.289791,-8.8867114)" />
    <text
       xml:space="preserve"
       style="font-style:normal;font-weight:normal;font-size:10.58333397px;line-height:1.25;font-family:'Bitstream Vera Sans';letter-spacing:0px;word-spacing:0px;fill:#000000;fill-opacity:1;stroke:none;stroke-width:0.26458335px;stroke-linecap:butt;stroke-linejoin:miter;stroke-opacity:1"
       x="21.166668"
       y="-6.7468686"
       id="text2090"><tspan
         sodipodi:role="line"
         id="tspan2088"
         x="21.166668"
         y="2.6169014"
         style="stroke-width:0.26458335px" /></text>
    <g
       id="g1271"
       transform="translate(-39.42897)">
      <path
         style="opacity:1;fill:#ffffff;fill-opacity:0.87864075;stroke:none;stroke-width:0.50591701;stroke-miterlimit:4;stroke-dasharray:none;stroke-dashoffset:0;stroke-opacity:1"
         d="m 40.220242,95.432877 h 21.558729 c 0,0 0,0 0,0 v 3.521296 c 0,0 0,0 0,0 H 40.220242 c 0,0 0,0 0,0 v -3.521296 c 0,0 0,0 0,0 z"
         id="rect1855"
         inkscape:connector-curvature="0" />
      <g
         aria-label="  NYSTHI "
         transform="rotate(-3)"
         style="font-style:normal;font-variant:normal;font-weight:normal;font-stretch:normal;font-size:4.23333359px;line-height:1.25;font-family:'Impact Label';-inkscape-font-specification:'Impact Label, Normal';font-variant-ligatures:normal;font-variant-caps:normal;font-variant-numeric:normal;font-feature-settings:normal;text-align:start;letter-spacing:0px;word-spacing:0px;writing-mode:lr-tb;text-anchor:start;fill:#36369e;fill-opacity:1;stroke:none;stroke-width:0.26458335px;stroke-linecap:butt;stroke-linejoin:miter;stroke-opacity:1"
         id="text1853">
        <path
           d="M 37.6069,102.29624 H 34.922967 V 97.123103 H 37.6069 Z"
           style="font-style:normal;font-variant:normal;font-weight:normal;font-stretch:normal;font-size:4.23333359px;font-family:'Impact Label';-inkscape-font-specification:'Impact Label, Normal';font-variant-ligatures:normal;font-variant-caps:normal;font-variant-numeric:normal;font-feature-settings:normal;text-align:start;writing-mode:lr-tb;text-anchor:start;fill:#36369e;fill-opacity:1;stroke-width:0.26458335px"
           id="path1919"
           inkscape:connector-curvature="0" />
        <path
           d="M 40.161783,102.29624 H 37.47785 v -5.173137 h 2.683933 z"
           style="font-style:normal;font-variant:normal;font-weight:normal;font-stretch:normal;font-size:4.23333359px;font-family:'Impact Label';-inkscape-font-specification:'Impact Label, Normal';font-variant-ligatures:normal;font-variant-caps:normal;font-variant-numeric:normal;font-feature-settings:normal;text-align:start;writing-mode:lr-tb;text-anchor:start;fill:#36369e;fill-opacity:1;stroke-width:0.26458335px"
           id="path1921"
           inkscape:connector-curvature="0" />
        <path
           d="m 42.699733,102.29624 h -2.683934 v -5.173137 h 2.683934 z m -1.8288,-1.6383 q 0.0085,-0.0339 -0.0254,-0.0847 -0.03387,-0.0508 -0.04233,-0.0847 0,-0.0212 -0.0042,-0.11853 0,-0.0974 -0.0042,-0.22013 -0.0042,-0.127 -0.0042,-0.241303 0,-0.118534 0,-0.1905 0.0085,-0.122767 0.01693,-0.194734 0.0127,-0.07197 0.0042,-0.105833 -0.0085,-0.0127 -0.0381,0.04233 -0.01693,0.02963 -0.0381,0.05503 -0.0042,-0.0635 -0.0127,-0.127 -0.0042,-0.0508 -0.0042,-0.09737 0.0042,-0.0508 0.01693,-0.0635 0.0381,-0.0254 0.05927,-0.04657 0.0254,-0.0254 0.05503,-0.0042 0.0042,0.0042 0.05503,0.09313 0.05503,0.08467 0.127,0.207434 0.0762,0.118533 0.160867,0.262466 0.08467,0.1397 0.156633,0.2667 0.07197,0.127 0.122767,0.21167 0.05503,0.0804 0.0635,0.1016 l 0.148167,0.19897 q 0.0042,0.004 0.0127,0.0466 0.0127,0.0381 0.02117,0.0847 0.0127,0.0466 0.0254,0.0931 0.01693,0.0423 0.0381,0.0508 0.01693,0.0127 0.05927,0.0212 0.04657,0.004 0.0889,0 0.04233,-0.008 0.08043,-0.0254 0.0381,-0.0169 0.04233,-0.0593 0.01693,-0.0804 -0.01693,-0.19473 -0.03387,-0.11853 -0.03387,-0.39793 0,-0.13124 0.0042,-0.300573 0.0085,-0.169333 0.0085,-0.334433 0,-0.1651 0,-0.2921 0.0042,-0.131234 0.0085,-0.182034 0.0127,-0.105833 0.02963,-0.1651 0.02117,-0.05927 0.0127,-0.0889 -0.0127,-0.01693 -0.01693,-0.04233 0,-0.0254 -0.0127,-0.05503 -0.01693,-0.02963 -0.02117,-0.05927 -0.0254,0.03387 -0.04657,0.0635 -0.04657,0.07197 -0.07197,0.0889 -0.0254,0.0085 -0.0635,0.02963 -0.03387,0.02117 -0.0381,0.05503 0,0.04233 0.02963,0.148166 0.03387,0.105834 0.02117,0.198967 0,0.0381 -0.0042,0.1778 0,0.135467 -0.0085,0.2921 -0.0085,0.156633 -0.0127,0.2921 -0.0042,0.135467 -0.0042,0.169327 -0.01693,0.0593 -0.0254,0.13547 -0.0085,0.0762 -0.04657,0.1016 -0.02963,0.0296 -0.07197,0.0254 -0.0381,-0.008 -0.06773,-0.0677 -0.03387,-0.055 -0.05503,-0.0931 -0.02117,-0.0423 -0.02963,-0.0889 -0.0127,-0.0466 -0.02117,-0.0847 -0.0042,-0.0381 0.02117,-0.0466 0.01693,-0.008 0.02117,-0.008 0.0042,0 0.0254,-0.0127 0.01693,0 0.02117,-0.0042 -0.05927,-0.06773 -0.110067,-0.131233 -0.110066,-0.127 -0.143933,-0.1905 -0.02117,-0.02963 -0.07197,-0.131234 -0.04657,-0.1016 -0.1016,-0.2159 -0.0508,-0.1143 -0.1016,-0.2159 -0.04657,-0.1016 -0.05927,-0.122766 -0.0381,-0.04657 -0.08043,-0.148167 -0.0381,-0.1016 -0.0635,-0.122767 -0.02117,-0.01693 -0.02117,-0.04657 0,-0.03387 0,-0.04657 0,-0.01693 -0.0085,0.0085 -0.0042,0.02117 -0.0254,0.04657 -0.0254,0.02117 -0.1016,0.05927 -0.0762,0.0381 -0.0889,0.0762 0,0.0254 0.0085,0.06773 0.0127,0.0381 0.02963,0.08043 0.02117,0.04233 0.03387,0.08043 0.0127,0.0381 0.0127,0.04657 0.0085,0.04233 -0.01693,0.131233 -0.02117,0.0889 -0.02117,0.1397 0,0.05927 -0.01693,0.127 -0.01693,0.0635 -0.01693,0.110067 0,0.02117 -0.0085,0.173566 -0.0042,0.148167 -0.0042,0.330201 0,0.18204 0,0.3429 0,0.16087 0.0127,0.2032 0.0508,0.16087 0.127,0.1524 0.03387,-0.0169 0.07197,-0.0635 0.04233,-0.0508 0.0508,-0.072 z m -0.04233,0.16086 q -0.0085,0.008 -0.0042,0.0381 0.0042,0.0254 0.0085,0.0127 0,-0.0127 0.01693,-0.0296 0.02117,-0.0212 0.03387,-0.0466 0.0254,-0.0254 0.0508,-0.0635 l -0.0381,0.0381 q -0.04657,0.0254 -0.06773,0.0508 z m 0.122767,-0.1524 v -0.34713 q 0,-0.13547 0,-0.24977 0,-0.114297 0.0085,-0.13123 0,-0.01693 -0.0127,-0.07197 -0.0127,-0.05503 -0.02117,-0.1143 -0.0254,-0.0635 -0.04233,-0.1397 0.01693,0.2794 0.03387,0.508 0.0085,0.0974 0.0085,0.19897 0.0042,0.0974 0.0127,0.17357 0.0085,0.072 0.0085,0.11853 0.0042,0.0466 0.0042,0.055 z m 0.635,-0.897463 q -0.0508,-0.1016 -0.1016,-0.207434 -0.04657,-0.09313 -0.09737,-0.186266 -0.04657,-0.09313 -0.08467,-0.156634 -0.0381,-0.0635 -0.08467,-0.148166 -0.04233,-0.0889 -0.0889,-0.169334 -0.04233,-0.08043 -0.08043,-0.143933 -0.0381,-0.0635 -0.06773,-0.08043 -0.02963,-0.01693 -0.0508,-0.02963 -0.02117,-0.01693 -0.04657,-0.02963 -0.02963,-0.01693 -0.0508,-0.02117 0.08467,0.09737 0.1651,0.211667 0.0762,0.105833 0.1651,0.249767 0.0889,0.143933 0.1778,0.3048 0.0889,0.169333 0.135466,0.249766 0.0508,0.08043 0.06773,0.118534 0.0381,0.0381 0.04233,0.0381 z m 0.550333,0.833963 v 0.0931 q 0.0085,-0.004 0.0085,-0.0296 0,-0.0169 0,-0.0296 0,-0.0127 -0.0085,-0.0339 z m -0.2794,0.32597 h 0.02963 q 0.0085,0 0.05503,-0.0169 0.01693,0 0.03387,-0.008 0.01693,-0.0127 0.04233,-0.0296 0.02963,-0.0169 0.0508,-0.0381 z m -0.846666,-0.85513 0.04233,-0.0339 -0.0085,-0.0339 z m 1.109133,0.4445 v -0.0169 q 0,-0.004 0.0042,-0.0169 0.0042,-0.0127 0.0042,-0.0296 0,-0.0127 0.01693,-0.0339 0.01693,-0.0212 0.01693,-0.0466 v -0.787397 q 0,-0.347133 0.0042,-0.778933 -0.01693,0.0254 -0.0254,0.110067 -0.0042,0.08043 -0.0127,0.2032 -0.0085,0.118533 -0.0085,0.270933 0,0.1524 0,0.313267 z"
           style="font-style:normal;font-variant:normal;font-weight:normal;font-stretch:normal;font-size:4.23333359px;font-family:'Impact Label';-inkscape-font-specification:'Impact Label, Normal';font-variant-ligatures:normal;font-variant-caps:normal;font-variant-numeric:normal;font-feature-settings:normal;text-align:start;writing-mode:lr-tb;text-anchor:start;fill:#36369e;fill-opacity:1;stroke-width:0.26458335px"
           id="path1923"
           inkscape:connector-curvature="0" />
        <path
           d="M 45.226173,102.29624 H 42.55494 v -5.173137 h 2.671233 z M 43.88844,99.536103 q -0.02963,0.0085 -0.04233,0.0085 -0.0127,0 -0.01693,-0.04233 -0.01693,-0.02963 -0.01693,-0.0508 0,-0.02117 -0.0127,-0.0635 -0.0127,-0.02117 -0.05503,-0.07197 -0.0381,-0.0508 -0.0889,-0.1016 -0.04657,-0.05503 -0.0889,-0.105833 -0.0381,-0.0508 -0.0508,-0.07197 -0.01693,-0.02117 -0.03387,-0.07197 -0.01693,-0.05503 -0.0381,-0.118533 -0.01693,-0.0635 -0.04657,-0.1143 -0.0254,-0.0508 -0.04657,-0.06773 -0.04657,-0.0381 -0.118533,-0.02963 -0.06773,0.0085 -0.08467,0.08043 -0.0042,0.0381 0.03387,0.127 0.04233,0.08467 0.105833,0.182033 0.0635,0.09737 0.127,0.198967 0.06773,0.09737 0.1143,0.1524 0.09313,0.122766 0.169334,0.224366 0.08043,0.1016 0.08467,0.1143 0,0.0127 0,0.110067 0.0042,0.09737 0.0085,0.2159 0.0085,0.11853 0.0085,0.2286 0,0.11007 0,0.13547 0,0.0296 -0.0085,0.0931 -0.0085,0.0593 -0.0085,0.1143 0.0042,0.055 0.03387,0.1016 0.03387,0.0423 0.110067,0.0423 0.0762,0 0.09313,-0.0423 0.02117,-0.0466 0.01693,-0.1016 0,-0.055 -0.01693,-0.1143 -0.0127,-0.0635 -0.01693,-0.0931 -0.0127,-0.0254 -0.02117,-0.11007 -0.0042,-0.0889 -0.0085,-0.1905 -0.0042,-0.105833 0,-0.198967 0.0042,-0.09313 0.01693,-0.1397 0.01693,-0.0381 0.08043,-0.135466 0.06773,-0.1016 0.1524,-0.220134 0.0889,-0.118533 0.1651,-0.220133 0.08043,-0.1016 0.110067,-0.135467 0.05503,-0.06773 0.131233,-0.156633 0.0762,-0.0889 0.0762,-0.135467 0,-0.04657 -0.0508,-0.08467 -0.04657,-0.04233 -0.0635,-0.06773 -0.0254,-0.02117 -0.0762,0.0127 -0.04657,0.03387 -0.09313,0.105834 -0.02117,0.03387 -0.06773,0.110066 -0.04233,0.07197 -0.0889,0.1524 -0.04657,0.0762 -0.08467,0.143934 -0.03387,0.0635 -0.04657,0.09737 -0.01693,0.01693 -0.05503,0.07197 -0.0381,0.0508 -0.08043,0.1016 -0.0381,0.04657 -0.07197,0.0889 -0.03387,0.04233 -0.0381,0.04233 z m -0.3175,-0.770466 0.287866,0.448733 q -0.0085,-0.01693 -0.0508,-0.08467 -0.0381,-0.07197 -0.1016,-0.1524 -0.0635,-0.0889 -0.135466,-0.211666 z m 1.164166,0.1397 q -0.160866,0.2286 -0.296333,0.4191 -0.1143,0.169333 -0.207433,0.296333 -0.09313,0.127 -0.09313,0.143933 0,0.0127 0,0.148167 0,0.13547 0.0085,0.29633 0,0.19474 0.0127,0.42757 -0.02117,0.0296 -0.02963,0.0508 -0.0254,0.0466 -0.04233,0.0593 l -0.04657,0.0466 q 0.02963,-0.0127 0.0635,-0.0466 0.0254,-0.0296 0.04233,-0.072 0.02117,-0.0423 0.02117,-0.13123 0,-0.0677 0.0042,-0.19897 0.0085,-0.13547 0.0085,-0.2667 v -0.3302 q 0.143933,-0.211667 0.270933,-0.397933 0.1016,-0.156634 0.1905,-0.296334 0.09313,-0.1397 0.09313,-0.148166 z"
           style="font-style:normal;font-variant:normal;font-weight:normal;font-stretch:normal;font-size:4.23333359px;font-family:'Impact Label';-inkscape-font-specification:'Impact Label, Normal';font-variant-ligatures:normal;font-variant-caps:normal;font-variant-numeric:normal;font-feature-settings:normal;text-align:start;writing-mode:lr-tb;text-anchor:start;fill:#36369e;fill-opacity:1;stroke-width:0.26458335px"
           id="path1925"
           inkscape:connector-curvature="0" />
        <path
           d="m 47.780659,102.29624 h -2.679701 v -5.173137 h 2.679701 z m -0.804334,-2.99297 q 0.04657,-0.01693 0.0762,-0.0889 0.03387,-0.0762 0.0042,-0.156633 -0.0085,-0.03387 -0.05503,-0.09737 -0.04233,-0.0635 -0.105833,-0.127 -0.0635,-0.0635 -0.1397,-0.118533 -0.0762,-0.05503 -0.1778,-0.07197 -0.0889,-0.01693 -0.2413,0 -0.148167,0.01693 -0.287867,0.08043 -0.135466,0.05927 -0.237066,0.173567 -0.09737,0.110067 -0.09737,0.270933 0,0.173567 0.04657,0.275167 0.04657,0.1016 0.110067,0.1651 0.0635,0.05927 0.1397,0.08043 0.0762,0.02117 0.135467,0.0381 0.0635,0.0127 0.156633,0.02963 0.09737,0.0127 0.194734,0.03387 0.1016,0.01693 0.182033,0.04233 0.08043,0.02117 0.118533,0.0508 0.06773,0.05927 0.09737,0.182029 0.02963,0.11853 -0.0085,0.1905 -0.02963,0.072 -0.148166,0.16933 -0.118534,0.0974 -0.325967,0.0974 -0.1016,0 -0.1651,-0.008 -0.0635,-0.0127 -0.1016,-0.0296 -0.0381,-0.0212 -0.0635,-0.0508 -0.0254,-0.0339 -0.05927,-0.0677 -0.05927,-0.072 -0.08467,-0.0974 -0.02117,-0.0296 -0.02117,-0.0677 0,-0.0339 0.02117,-0.055 0.0254,-0.0254 0.0085,-0.0593 -0.01693,-0.0423 -0.0381,-0.0423 -0.02117,-0.004 -0.02963,-0.0212 -0.02117,-0.0127 -0.03387,-0.03387 -0.0127,-0.02117 -0.0085,-0.05503 0,-0.02963 0.01693,-0.05503 0.0042,-0.01693 0.0042,-0.0254 -0.01693,0.0085 -0.0381,0.0127 -0.04233,0.01693 -0.04233,0.04657 -0.0085,0.02117 0.0085,0.0381 0.0042,0.0085 0.0042,0.0127 -0.0381,-0.0127 -0.0762,0 -0.0254,0.01693 -0.05503,0.04657 -0.0254,0.0296 -0.0254,0.0974 0,0.0635 0.02963,0.1524 0.02963,0.0847 0.0889,0.17357 0.0635,0.0847 0.1397,0.1524 0.0762,0.0677 0.173567,0.11007 0.09313,0.0466 0.211666,0.0593 0.118534,0.008 0.2286,0 0.1143,-0.0127 0.211667,-0.0466 0.09737,-0.0381 0.156633,-0.0847 0.110067,-0.0974 0.1905,-0.2413 0.08467,-0.14393 0.06773,-0.29633 -0.0127,-0.156633 -0.09313,-0.266699 -0.08043,-0.110067 -0.131233,-0.169334 -0.05927,-0.05927 -0.1016,-0.08467 -0.0381,-0.02963 -0.05503,-0.02117 -0.0042,0.0127 -0.0042,0.0381 0,0.0042 0.0042,0.0085 -0.04657,0.0085 -0.08043,0 -0.07197,0 -0.148166,-0.0254 -0.05927,-0.02117 -0.173567,-0.0381 -0.110067,-0.01693 -0.182033,-0.05503 -0.0762,-0.03387 -0.06773,-0.03387 0.0085,0 -0.03387,-0.0085 -0.0254,-0.0085 -0.09737,-0.07197 -0.07197,-0.0635 -0.07197,-0.1524 0,-0.04657 0.04233,-0.08467 0.04233,-0.04233 0.09737,-0.0762 0.05503,-0.0381 0.1143,-0.0635 0.05927,-0.02963 0.09737,-0.03387 0.07197,-0.01693 0.194733,-0.0254 0.127,-0.0085 0.1778,0.02963 0.05927,0.02963 0.1143,0.09313 0.05927,0.0635 0.08043,0.105833 0.01693,0.03387 0.0127,0.06773 -0.0042,0.03387 0.0381,0.06773 0.02963,0.02963 0.0762,0.02963 0.01693,0 0.03387,-0.0127 z m -0.351366,0.09313 -0.05503,-0.02963 q -0.04657,-0.02117 -0.09313,-0.03387 -0.0127,0 -0.0635,-0.0085 -0.0508,-0.0127 -0.1143,-0.0254 -0.05927,-0.0127 -0.110067,-0.03387 -0.04657,-0.0254 -0.05927,-0.04657 -0.0381,-0.05927 0.01693,-0.09737 0.05503,-0.04233 0.118533,-0.04233 h 0.169334 q -0.04233,-0.0042 -0.0889,-0.01693 -0.03387,-0.0042 -0.08043,-0.0042 -0.04657,-0.0042 -0.0762,-0.0042 -0.06773,0.0042 -0.135466,0.06773 -0.06773,0.0635 -0.0381,0.143933 0.01693,0.04657 0.05927,0.07197 0.04657,0.02117 0.09737,0.03387 0.0508,0.0085 0.09737,0.0127 0.0508,0 0.0762,0 0.01693,0.0085 0.0635,0.0085 0.04657,0 0.09737,0 0.0635,0 0.118534,0.0042 z m 0.381,-0.03387 q 0,0.02963 0.0254,0.0508 0.0254,0.01693 0.04233,0 0.0127,-0.01693 0.05927,-0.06773 0.0508,-0.0508 0.0508,-0.110066 0,-0.02117 -0.0042,-0.05927 0,-0.04233 -0.0042,-0.08467 -0.0127,-0.0381 -0.02117,-0.08467 0.0085,0 0.02117,-0.0085 0.02117,-0.02117 0.02117,-0.02117 0,-0.0127 -0.03387,-0.0254 l -0.02963,-0.01693 q -0.0042,-0.0042 -0.0127,-0.02117 -0.01693,-0.01693 -0.0085,-0.03387 0.0085,-0.01693 -0.0635,-0.105834 -0.07197,-0.09313 -0.127,-0.127 -0.0635,-0.0381 -0.1905,-0.0889 -0.127,-0.05503 -0.160867,-0.05503 h -0.07197 q -0.02117,0 -0.0254,-0.0042 0.131233,0.04657 0.245533,0.08467 0.09737,0.04233 0.182033,0.09313 0.08467,0.0508 0.122767,0.09737 0.02963,0.0508 0.04233,0.08043 0.01693,0.02963 0.03387,0.05503 0.0127,0.0254 0.0127,0.0381 l 0.0085,0.04233 0.01693,0.03387 q 0.01693,0.0635 0.0254,0.1143 0.0127,0.04657 0,0.09737 -0.0085,0.04657 -0.03387,0.06773 -0.04233,0.02963 -0.0635,0.0381 -0.01693,0.0042 -0.03387,0.01693 z m -0.02117,0.194733 q -0.0254,0.0085 0.02117,0.03387 l 0.04657,0.02963 q 0.06773,0.0889 0.110067,0.182033 0.0381,0.08043 0.05927,0.194734 0.0254,0.11006 0.0042,0.22436 -0.0508,0.2413 -0.148167,0.33444 -0.09313,0.0931 -0.2032,0.16086 -0.1143,0.0635 -0.2413,0.11007 -0.127,0.0423 -0.207433,0.0423 -0.08043,0 -0.169333,-0.004 -0.08467,-0.008 -0.06773,0.004 0.0042,0 0.0889,0.0127 0.08467,0.008 0.198967,0 0.1143,-0.008 0.245533,-0.0423 0.135467,-0.0339 0.249767,-0.1143 0.110067,-0.0804 0.173567,-0.19473 0.0635,-0.1143 0.0889,-0.2286 0.02963,-0.1143 0.03387,-0.21167 0.0085,-0.09737 -0.0042,-0.148164 -0.0085,-0.04657 -0.04657,-0.118533 -0.0381,-0.07197 -0.08467,-0.131233 -0.04657,-0.05927 -0.0889,-0.1016 -0.0381,-0.04657 -0.05927,-0.03387 z m -0.897467,0.3302 q -0.04233,-0.0042 -0.127,-0.03387 -0.08043,-0.02963 -0.1016,-0.02963 -0.01693,0 0.0085,0.02117 0.02963,0.02117 0.0508,0.0508 0.02963,0.03387 0.0762,0.160867 0.0508,0.127 0.1016,0.18204 0.03387,0.0296 0.08043,0.0381 0.04657,0.008 0.09737,0.008 h 0.127 q -0.0381,-0.0127 -0.07197,-0.0127 -0.02963,0 -0.05927,0 -0.02963,0 -0.04657,-0.004 -0.02963,-0.004 -0.06773,-0.0169 -0.03387,-0.0169 -0.05927,-0.0339 -0.02117,-0.0169 -0.04657,-0.0889 -0.0254,-0.072 -0.0381,-0.1143 -0.01693,-0.03387 -0.04233,-0.07197 -0.0085,-0.0254 -0.02117,-0.02963 0.01693,0.0042 0.04657,0.01693 0.01693,0.0042 0.0381,0.0042 0.0254,0 0.03387,0 0.02117,0 0.04657,0.0042 0.0254,0.0042 0.05927,0.0042 h 0.08467 q -0.0381,-0.0085 -0.06773,-0.0254 -0.02963,-0.0042 -0.0635,-0.0127 -0.02963,-0.0085 -0.0381,-0.01693 z"
           style="font-style:normal;font-variant:normal;font-weight:normal;font-stretch:normal;font-size:4.23333359px;font-family:'Impact Label';-inkscape-font-specification:'Impact Label, Normal';font-variant-ligatures:normal;font-variant-caps:normal;font-variant-numeric:normal;font-feature-settings:normal;text-align:start;writing-mode:lr-tb;text-anchor:start;fill:#36369e;fill-opacity:1;stroke-width:0.26458335px"
           id="path1927"
           inkscape:connector-curvature="0" />
        <path
           d="m 50.297243,102.29624 h -2.6797 v -5.173137 h 2.6797 z m -1.291166,-3.636437 q -0.04233,0 -0.156634,0 -0.1143,-0.0042 -0.2413,-0.0085 -0.127,-0.0085 -0.232833,-0.0127 -0.1016,-0.0085 -0.122767,-0.0085 -0.04657,0 -0.05927,0.0254 -0.0127,0.02117 -0.01693,0.06773 0,0.0508 0.0635,0.1143 0.0635,0.0635 0.08467,0.0762 0.0127,0.0127 0.05503,0.01693 0.04233,0 0.0889,0.0042 0.0508,0 0.09313,0 0.04233,0 0.0508,-0.0042 0.03387,-0.01693 0.04657,-0.0381 0.01693,-0.02117 0.09313,-0.02117 0.02963,0 0.04657,0.03387 0.01693,0.02963 0.0254,0.08043 0.0127,0.04657 0.01693,0.1016 0.0042,0.0508 0.0127,0.0889 0.0085,0.0381 0.0042,0.198967 -0.0042,0.160866 -0.0127,0.351366 -0.0085,0.186267 -0.02117,0.376764 -0.0085,0.1905 -0.01693,0.2794 -0.02117,0.18627 0.01693,0.2667 0.04233,0.0804 0.0762,0.0931 0.03387,0.008 0.08467,-0.0169 0.05503,-0.0296 0.0762,-0.055 0.01693,-0.0169 0.0085,-0.0508 -0.0085,-0.0381 -0.0254,-0.0804 l -0.02963,-0.12276 v -1.481667 h 0.0254 q 0.01693,0 0.0254,0 0.0127,-0.0042 0.02963,-0.0042 0.04233,0.0042 0.05927,0.01693 0.01693,0.0127 0.06773,0.0127 0.05503,0 0.05927,-0.0042 0.0042,-0.0042 0.0381,-0.02117 0.04233,-0.0042 0.09737,-0.0127 0.05503,-0.0085 0.09313,0.0254 0.0381,0.02963 0.05503,0.02117 0.02117,-0.0085 0.0889,-0.01693 0.0762,-0.01693 0.1016,-0.08043 0.0254,-0.0635 -0.0254,-0.211667 -0.01693,-0.0635 -0.0635,-0.08043 -0.04657,-0.02117 -0.09737,-0.0127 -0.04657,0.0085 -0.0889,0.03387 -0.0381,0.02117 -0.05927,0.0254 -0.0381,0.01693 -0.105833,0.01693 -0.06773,0 -0.110067,0 -0.03387,0.0042 -0.0635,0.0127 -0.0254,0.0042 -0.0635,0.0042 -0.0381,0 -0.07197,0 z m 0.143933,0.364067 q 0,0.4191 0.0085,0.745067 0,0.148166 0.0042,0.287863 0.0042,0.13547 0.0042,0.24977 0.0042,0.11007 0.0042,0.18627 0,0.0762 0,0.0804 0,0.0423 -0.0127,0.0804 -0.0085,0.0254 -0.01693,0.0339 0.0254,0 0.04233,-0.0339 0.0127,-0.0169 0.02117,-0.072 0.0085,-0.055 0,-0.15664 0,-0.10583 -0.0042,-0.32173 -0.0042,-0.220133 -0.0042,-0.440267 0,-0.220133 0,-0.389466 0,-0.169334 0,-0.182034 0,-0.03387 0.0381,-0.03387 0.0127,0 0.0762,0 0.0635,0 0.135466,-0.0085 0.0762,-0.0085 0.1397,-0.0127 0.0635,-0.0042 0.08467,-0.0127 0.04657,-0.03387 0.0762,-0.0635 0.0254,-0.0254 0.03387,-0.04657 -0.01693,0.03387 -0.0508,0.0508 -0.0635,0.05927 -0.1397,0.05927 -0.04233,0 -0.1143,-0.0042 -0.07197,-0.0085 -0.143934,-0.0085 -0.06773,0 -0.122766,0 -0.0508,0 -0.05927,0.0127 z"
           style="font-style:normal;font-variant:normal;font-weight:normal;font-stretch:normal;font-size:4.23333359px;font-family:'Impact Label';-inkscape-font-specification:'Impact Label, Normal';font-variant-ligatures:normal;font-variant-caps:normal;font-variant-numeric:normal;font-feature-settings:normal;text-align:start;writing-mode:lr-tb;text-anchor:start;fill:#36369e;fill-opacity:1;stroke-width:0.26458335px"
           id="path1929"
           inkscape:connector-curvature="0" />
        <path
           d="m 52.820443,102.29624 h -2.6797 v -5.173137 h 2.6797 z M 52.28281,98.778337 q -0.07197,0.04233 -0.143934,0.07197 -0.05503,0.0254 -0.105833,0.05503 -0.04657,0.02963 -0.05503,0.0508 -0.0127,0.0127 -0.02117,0.07197 -0.0042,0.05927 0,0.122767 0.0085,0.05927 0.0127,0.118533 0.0042,0.05927 0.0042,0.08467 0,0.04233 0,0.105833 0,0.0635 -0.0042,0.127 -0.0042,0.0635 -0.0127,0.118534 -0.0085,0.05503 -0.01693,0.0635 -0.0127,0.04233 -0.02963,0.05927 -0.01693,0.0127 -0.04657,-0.0085 -0.03387,-0.0085 -0.0635,-0.04233 -0.02963,-0.03387 -0.05927,-0.0635 -0.02963,-0.02117 -0.148167,0.0042 -0.118533,0.0254 -0.211666,0.0254 -0.1143,0 -0.1651,-0.0127 -0.04657,-0.01693 -0.0635,-0.0762 -0.01693,-0.02963 -0.02117,-0.0508 -0.0042,-0.0254 -0.0127,-0.0508 -0.0042,-0.0254 -0.0042,-0.04233 l -0.0127,0.0635 q -0.0042,0.02117 -0.01693,0.04657 -0.0127,0.02117 -0.02963,0.02963 -0.05927,0.02117 -0.07197,-0.05927 -0.0085,-0.08043 -0.0085,-0.148167 0,-0.0635 -0.0042,-0.118533 0,-0.05927 0.0127,-0.1143 0.02963,-0.1016 0.02963,-0.148167 0,-0.0254 -0.01693,-0.0889 -0.0085,-0.0127 -0.0127,-0.02117 0.0127,0 0.03387,-0.0042 0.0508,-0.01693 0.05503,-0.01693 0.0042,0 0.0127,0.08043 0.0127,0.0762 0.01693,0.156633 0.0042,0.122767 0.0042,0.245534 l 0.0085,-0.465667 v -0.0381 q 0,-0.0381 -0.01693,-0.0381 -0.02117,0 -0.0635,0 -0.0381,0 -0.09737,0.0085 -0.05503,0.0085 -0.105834,0.04233 -0.04657,0.02963 -0.0762,0.0889 -0.0254,0.05503 -0.0254,0.198967 0,0.1397 0,0.2921 0.0042,0.1524 0.0254,0.283633 0.02117,0.127 0.02117,0.1524 0,0.03387 0,0.152403 0,0.11853 -0.0127,0.2667 -0.0085,0.14393 -0.0085,0.26247 0,0.11853 0,0.127 0,0.008 0.0085,0.0381 0.0127,0.0296 0.0254,0.055 0.0127,0.0254 0.02963,0.0508 0.01693,0.0212 0.05503,0.0169 0.05927,-0.0127 0.118533,-0.055 0.0635,-0.0466 0.0635,-0.0847 0,-0.0169 -0.0127,-0.0423 -0.0127,-0.0254 -0.02963,-0.0466 -0.01693,-0.0296 -0.02963,-0.055 l 0.0127,-0.2667 q 0.0085,-0.0974 0.0127,-0.18203 0.0042,-0.0889 0.0042,-0.10584 0,-0.0254 -0.04233,-0.07196 -0.0381,-0.04657 0.0042,-0.08043 0.0381,-0.02117 0.0762,-0.0127 0.0381,0.0085 0.05503,0.0085 0.0127,0 0.0762,0.0042 0.0635,0 0.135467,0.0085 0.0762,0.0085 0.1651,0.0127 0.0889,0 0.143933,0 0.110067,0 0.135467,0 0.0254,-0.0042 0.04657,-0.02117 0.02117,-0.0042 0.0381,-0.03387 0.02117,-0.0127 0.0254,-0.02117 l 0.04657,0.02117 q 0.0127,0.0127 0.03387,0.0254 0.02117,0.0127 0.0254,0.0254 0.0042,0.01693 0.0042,0.09736 0.0042,0.0804 0.02117,0.18627 0.01693,0.1016 0.01693,0.19473 0.0042,0.0931 0.0042,0.13124 0,0.0169 -0.0042,0.0762 0,0.0593 -0.01693,0.11853 -0.0127,0.055 0,0.10583 0.01693,0.0466 0.0254,0.0508 0.03387,0.0127 0.09313,-0.0169 0.0635,-0.0296 0.105833,-0.0635 0.0042,-0.0254 0,-0.0635 0,-0.0381 -0.02117,-0.0889 -0.02117,-0.055 -0.02963,-0.0974 -0.0042,-0.0466 -0.0042,-0.0804 0,-0.0296 0,-0.12277 0.0042,-0.0931 0.0042,-0.22013 0.0042,-0.127 0.0042,-0.27517 0,-0.1524 0,-0.2794 0,-0.127 0,-0.211666 0,-0.0889 0,-0.118534 0,-0.05503 0.0254,-0.135466 0.0254,-0.08043 0.0254,-0.110067 0,-0.04233 -0.04657,-0.0762 l -0.01693,-0.0254 q 0.0042,-0.0085 0.0127,-0.02117 0.0085,-0.0085 0.0254,-0.0127 0.02117,-0.0042 0.02963,-0.0042 0.0254,0 0.0508,-0.0254 0.0254,-0.02963 -0.0042,-0.06773 z m -0.643467,0.702733 -0.448733,-0.0085 q 0.02117,0.03387 0.0889,0.0381 0.06773,0 0.1524,-0.0042 z m -0.5207,0.62653 q -0.0127,-0.004 -0.0127,0.0423 0,0.0466 0,0.12276 0,0.0762 0.0042,0.14394 0.0085,0.0677 0.0085,0.0847 0.0085,0.0508 0.0085,0.13547 0,0.0804 -0.0127,0.127 -0.0085,0.0212 -0.0127,0.0339 0,0.008 0,0.0212 v 0.0212 q 0.0042,-0.0635 0.01693,-0.1397 0.01693,-0.055 0.0254,-0.13123 0.0085,-0.0804 0.0085,-0.1651 0,-0.14394 0,-0.21167 0,-0.0677 -0.03387,-0.0847 z m 1.1938,-0.656163 q 0,0.0085 -0.0042,0.0889 -0.0042,0.0762 -0.0042,0.1524 0,0.0762 0,0.1524 0,0.07197 0,0.0762 0,0.01693 0,0.06773 0,0.04657 0,0.101603 0,0.0508 0.0042,0.10583 0.0042,0.055 0.0085,0.0677 0.0042,0.0339 0.0042,0.0931 0,0.0593 0,0.14393 v 0.18204 q 0.0042,-0.0339 0.0042,-0.072 0,-0.0593 0.0042,-0.072 v -0.22436 q 0,-0.0677 -0.0042,-0.18204 0,-0.0296 0.0042,-0.0635 0,-0.0254 0.0085,-0.055 0.0085,-0.03387 0.0085,-0.05503 0,-0.0254 -0.0085,-0.156634 -0.0085,-0.131233 -0.0127,-0.2921 -0.0042,-0.182033 -0.0042,-0.4064 -0.0042,0.08043 -0.0042,0.160867 0,0.0635 -0.0042,0.118533 0,0.0508 0,0.06773 z"
           style="font-style:normal;font-variant:normal;font-weight:normal;font-stretch:normal;font-size:4.23333359px;font-family:'Impact Label';-inkscape-font-specification:'Impact Label, Normal';font-variant-ligatures:normal;font-variant-caps:normal;font-variant-numeric:normal;font-feature-settings:normal;text-align:start;writing-mode:lr-tb;text-anchor:start;fill:#36369e;fill-opacity:1;stroke-width:0.26458335px"
           id="path1931"
           inkscape:connector-curvature="0" />
        <path
           d="m 55.37936,102.29624 h -2.6797 v -5.173137 h 2.6797 z m -1.011767,-3.594103 0.0127,0.0085 q 0.0127,0.0127 0.04233,0 0.03387,-0.0085 0.03387,-0.02117 0,-0.01693 -0.04233,-0.02963 -0.0381,-0.0127 -0.06773,0.01693 -0.0254,0.0254 -0.0508,0.03387 -0.0254,0.01693 -0.0508,0.05503 -0.0254,0.03387 -0.1397,0.05503 -0.110067,0.0127 -0.173567,0.0085 -0.0635,-0.0042 -0.122767,-0.0085 -0.0254,0 -0.07197,-0.0042 -0.04657,-0.0085 -0.08467,0 -0.0381,0.0042 -0.07197,0.02963 -0.03387,0.0254 -0.0381,0.08043 -0.0127,0.05503 0.02117,0.0762 0.0381,0.02117 0.0889,0.0254 0.05503,0 0.1016,0 0.04657,0 0.0635,0.0127 0.07197,0.09313 0.07197,0.3175 0,0.05503 0.0042,0.2286 0.0042,0.173567 0.0085,0.372534 0.0085,0.198959 0.0085,0.364059 0,0.1651 0,0.18627 -0.0127,0.0508 -0.02963,0.0974 -0.0127,0.0423 -0.05927,0.0593 -0.0381,0.0127 -0.06773,0 -0.0254,-0.0169 -0.0635,-0.0127 -0.01693,0 -0.04233,0.0339 -0.0254,0.0296 -0.04657,0.0635 -0.02117,0.0296 -0.0381,0.0635 -0.01693,0.0339 0,0.0423 0.02117,0.0212 0.1397,0.0127 0.118533,-0.0127 0.194733,-0.0127 0.06773,0 0.148167,0.008 0.08043,0.004 0.143933,0.0127 0.05927,0.0169 0.131234,0.0169 0.0762,-0.004 0.110066,-0.0635 0.03387,-0.0508 0.04657,-0.1143 0.01693,-0.0635 -0.0127,-0.0931 -0.04233,-0.0423 -0.1143,-0.0254 -0.02117,0.004 -0.05927,-0.0254 -0.0381,-0.0296 -0.05927,-0.0296 -0.02963,0 -0.0762,0.0381 -0.04233,0.0381 -0.0635,0.0339 -0.01693,0 -0.02117,-0.0466 0,-0.0466 -0.0042,-0.0974 -0.0042,-0.055 -0.0042,-0.10583 0,-0.055 0,-0.0804 v -1.083726 q 0,-0.0635 0,-0.09313 0,-0.02963 0.0254,-0.04657 0.05503,-0.02117 0.110067,0 0.02117,0.0127 0.0889,0.02963 0.07197,0.0127 0.110067,-0.02963 0.03387,-0.02963 0.06773,-0.06773 0.0381,-0.04233 0.02117,-0.08467 -0.02117,-0.08467 -0.09313,-0.110067 -0.03387,-0.0127 -0.05503,-0.0254 -0.01693,-0.01693 0.0042,-0.02963 0.0085,-0.01693 0.08467,-0.01693 0.08043,-0.0042 0.09737,0.05927 0.0042,0.0381 0.0042,0.06773 0,0.02963 0,0.05503 v 0.0508 q 0.0127,-0.05927 0.0127,-0.105833 0,-0.03387 -0.0085,-0.07197 -0.0085,-0.0381 -0.0254,-0.05503 -0.0127,-0.01693 -0.0381,-0.01693 -0.0254,0 -0.04657,-0.0042 -0.02963,0 -0.05503,-0.0042 z m -0.567266,-0.05927 0.613833,0.01693 q -0.148167,-0.0127 -0.275167,-0.01693 -0.105833,-0.0127 -0.207433,-0.0127 -0.09737,-0.0042 -0.131233,0.0127 z m 0.414866,0.626533 0.01693,1.17687 0.03387,-0.008 q -0.0127,-0.0127 -0.0127,-0.0212 0,-0.004 -0.0042,-0.0127 0,-0.008 0,-0.0212 -0.0085,-0.0212 -0.0127,-0.19897 -0.0042,-0.1778 -0.0127,-0.381 z m 0.0635,1.20227 q 0,0.0169 0.02117,0.0254 0.02117,0.004 0.05503,0.004 0.0381,0 0.0635,0.004 0.02963,0.004 0.0381,0.004 0.01693,0.0127 0.0508,0.0508 0.03387,0.0381 0.03387,0.0635 0,0.0296 0.0042,0.0677 0.0085,0.0339 0,0.0127 -0.0042,-0.008 -0.0042,-0.0931 0.0042,-0.0889 -0.06773,-0.12277 -0.07197,-0.0423 -0.127,-0.055 -0.0508,-0.0169 -0.06773,0.0381 z"
           style="font-style:normal;font-variant:normal;font-weight:normal;font-stretch:normal;font-size:4.23333359px;font-family:'Impact Label';-inkscape-font-specification:'Impact Label, Normal';font-variant-ligatures:normal;font-variant-caps:normal;font-variant-numeric:normal;font-feature-settings:normal;text-align:start;writing-mode:lr-tb;text-anchor:start;fill:#36369e;fill-opacity:1;stroke-width:0.26458335px"
           id="path1933"
           inkscape:connector-curvature="0" />
        <path
           d="m 57.955014,102.29624 h -2.683933 v -5.173137 h 2.683933 z"
           style="font-style:normal;font-variant:normal;font-weight:normal;font-stretch:normal;font-size:4.23333359px;font-family:'Impact Label';-inkscape-font-specification:'Impact Label, Normal';font-variant-ligatures:normal;font-variant-caps:normal;font-variant-numeric:normal;font-feature-settings:normal;text-align:start;writing-mode:lr-tb;text-anchor:start;fill:#36369e;fill-opacity:1;stroke-width:0.26458335px"
           id="path1935"
           inkscape:connector-curvature="0" />
      </g>
    </g>
  </g>
</svg>
