<?xml version="1.0" encoding="UTF-8" standalone="no"?>
<!-- Created with Inkscape (http://www.inkscape.org/) -->

<svg
   xmlns:dc="http://purl.org/dc/elements/1.1/"
   xmlns:cc="http://creativecommons.org/ns#"
   xmlns:rdf="http://www.w3.org/1999/02/22-rdf-syntax-ns#"
   xmlns:svg="http://www.w3.org/2000/svg"
   xmlns="http://www.w3.org/2000/svg"
   xmlns:sodipodi="http://sodipodi.sourceforge.net/DTD/sodipodi-0.dtd"
   xmlns:inkscape="http://www.inkscape.org/namespaces/inkscape"
   width="25.4"
   height="25.548"
   viewBox="0 0 6.7204165 6.7595754"
   version="1.1"
   id="svg934"
   inkscape:version="0.92.2 (5c3e80d, 2017-08-06)"
   sodipodi:docname="AmpBig.svg">
  <defs
     id="defs928" />
  <sodipodi:namedview
     id="base"
     pagecolor="#ffffff"
     bordercolor="#666666"
     borderopacity="1.0"
     inkscape:pageopacity="0.0"
     inkscape:pageshadow="2"
     inkscape:zoom="12.109931"
     inkscape:cx="25.264274"
     inkscape:cy="10.560314"
     inkscape:document-units="mm"
     inkscape:current-layer="layer1"
     showgrid="false"
     units="px"
     inkscape:window-width="1366"
     inkscape:window-height="705"
     inkscape:window-x="1912"
     inkscape:window-y="300"
     inkscape:window-maximized="1" />
  <metadata
     id="metadata931">
    <rdf:RDF>
      <cc:Work
         rdf:about="">
        <dc:format>image/svg+xml</dc:format>
        <dc:type
           rdf:resource="http://purl.org/dc/dcmitype/StillImage" />
        <dc:title></dc:title>
      </cc:Work>
    </rdf:RDF>
  </metadata>
  <g
     inkscape:label="Layer 1"
     inkscape:groupmode="layer"
     id="layer1"
     transform="translate(0,-290.2404)">
    <path
       inkscape:connector-curvature="0"
       class="st5"
       d="m 3.3337443,294.82814 c -0.07937,0.10583 -0.15875,0.21166 -0.291041,0.26458 -0.105834,0.0529 -0.238125,0.0794 -0.370417,0.0794 -0.07937,0 -0.15875,0 -0.211667,-0.0265 -0.07937,-0.0265 -0.132291,-0.0529 -0.185208,-0.10583 -0.05292,-0.0529 -0.105833,-0.10584 -0.132292,-0.18521 -0.02646,-0.0794 -0.05292,-0.15875 -0.05292,-0.23813 0,-0.13229 0.05292,-0.29104 0.132291,-0.37041 0.105834,-0.0794 0.211667,-0.15875 0.3175,-0.21167 z m -0.15875,-1.98438 c -0.105833,0.10584 -0.238125,0.18521 -0.370416,0.23813 -0.105834,-0.0794 -0.185209,-0.15875 -0.238125,-0.26459 -0.05292,-0.0794 -0.07937,-0.1852 -0.07937,-0.29104 0,-0.10583 0.05292,-0.21166 0.132291,-0.29104 0.07937,-0.0794 0.185209,-0.10583 0.291042,-0.10583 0.211667,0 0.396875,0.15875 0.423333,0.37041 v 0.0265 c 0,0.10584 -0.05292,0.23813 -0.15875,0.3175 m 2.487084,3.04271 -1.084792,-1.11125 0.9525,-1.27 h -1.137708 l -0.449792,0.68792 -0.555625,-0.58208 c 0.105833,-0.0529 0.238125,-0.1323 0.343958,-0.21167 0.105834,-0.0794 0.211667,-0.15875 0.291042,-0.26458 0.07938,-0.0794 0.132292,-0.18521 0.185208,-0.3175 0.05292,-0.1323 0.07937,-0.26459 0.07937,-0.39688 0.02646,-0.34396 -0.132291,-0.66146 -0.423333,-0.84667 -0.132292,-0.10583 -0.291042,-0.15875 -0.423333,-0.21166 -0.15875,-0.0529 -0.3175,-0.0794 -0.502709,-0.0529 -0.15875,0 -0.343958,0.0265 -0.502708,0.0529 -0.15875,0.0265 -0.3175,0.10583 -0.449792,0.21166 -0.132291,0.10584 -0.238125,0.21167 -0.3175,0.34396 -0.07937,0.15875 -0.132291,0.34396 -0.132291,0.50271 0,0.18521 0.05292,0.37042 0.132291,0.52917 0.07937,0.15875 0.185209,0.3175 0.3175,0.44979 -0.132291,0.0529 -0.238125,0.13229 -0.343958,0.18521 -0.105833,0.0794 -0.211667,0.15875 -0.291042,0.26458 -0.07937,0.10583 -0.15875,0.21167 -0.211666,0.34396 -0.05292,0.13225 -0.07937,0.291 -0.07937,0.42329 0,0.21167 0.05292,0.39688 0.132291,0.58209 0.07937,0.15875 0.211667,0.29104 0.370417,0.42333 0.15875,0.10583 0.3175,0.18521 0.502708,0.23812 0.185209,0.0529 0.396875,0.0794 0.582084,0.0794 0.47625,0.0265 0.9525,-0.1852 1.296458,-0.52916 l 0.423333,0.44979 h 1.296459 z"
       id="path14"
       style="fill:#af1d1f;fill-opacity:1;stroke-width:0.26458332" />
  </g>
</svg>
