<?xml version="1.0" encoding="UTF-8" standalone="no"?>
<!-- Created with Inkscape (http://www.inkscape.org/) -->

<svg
   xmlns:dc="http://purl.org/dc/elements/1.1/"
   xmlns:cc="http://creativecommons.org/ns#"
   xmlns:rdf="http://www.w3.org/1999/02/22-rdf-syntax-ns#"
   xmlns:svg="http://www.w3.org/2000/svg"
   xmlns="http://www.w3.org/2000/svg"
   xmlns:sodipodi="http://sodipodi.sourceforge.net/DTD/sodipodi-0.dtd"
   xmlns:inkscape="http://www.inkscape.org/namespaces/inkscape"
   width="23.639999"
   height="23.809"
   viewBox="0 0 6.2547497 6.2994649"
   version="1.1"
   id="svg934"
   inkscape:version="0.92.2 (5c3e80d, 2017-08-06)"
   sodipodi:docname="AmpMedium.svg">
  <defs
     id="defs928" />
  <sodipodi:namedview
     id="base"
     pagecolor="#ffffff"
     bordercolor="#666666"
     borderopacity="1.0"
     inkscape:pageopacity="0.0"
     inkscape:pageshadow="2"
     inkscape:zoom="17.126028"
     inkscape:cx="-0.58168601"
     inkscape:cy="9.5597088"
     inkscape:document-units="mm"
     inkscape:current-layer="layer1"
     showgrid="false"
     units="px"
     inkscape:window-width="1366"
     inkscape:window-height="705"
     inkscape:window-x="1912"
     inkscape:window-y="300"
     inkscape:window-maximized="1" />
  <metadata
     id="metadata931">
    <rdf:RDF>
      <cc:Work
         rdf:about="">
        <dc:format>image/svg+xml</dc:format>
        <dc:type
           rdf:resource="http://purl.org/dc/dcmitype/StillImage" />
        <dc:title></dc:title>
      </cc:Work>
    </rdf:RDF>
  </metadata>
  <g
     inkscape:label="Layer 1"
     inkscape:groupmode="layer"
     id="layer1"
     transform="translate(0,-290.70051)">
    <path
       inkscape:connector-curvature="0"
       class="st2"
       d="m 3.1324628,294.85427 c -0.052917,0.10584 -0.15875,0.18521 -0.2645833,0.23813 -0.1058333,0.0529 -0.2116667,0.0794 -0.3175,0.0794 -0.079375,0 -0.1322917,0 -0.1852083,-0.0265 -0.052917,-0.0265 -0.1322917,-0.0529 -0.15875,-0.10584 -0.052917,-0.0529 -0.079375,-0.10583 -0.1322917,-0.15875 -0.026458,-0.0529 -0.052917,-0.13229 -0.052917,-0.21166 0,-0.1323 0.026458,-0.23813 0.1322917,-0.34396 0.079375,-0.0794 0.1852083,-0.13229 0.2910417,-0.18521 z m -0.1322916,-1.7727 c -0.1058334,0.0794 -0.2116667,0.15875 -0.3175,0.21166 -0.079375,-0.0529 -0.15875,-0.13229 -0.2116667,-0.23812 -0.052917,-0.0794 -0.079375,-0.18521 -0.079375,-0.26458 0,-0.10584 0.026458,-0.18521 0.1058333,-0.26459 0.079375,-0.0794 0.15875,-0.10583 0.2645834,-0.10583 0.1852083,0 0.3704166,0.13229 0.3704166,0.34396 v 0.0265 c 0,0.10583 -0.052917,0.23812 -0.1322916,0.29104 m 2.1960415,2.72521 -0.9789583,-0.97896 0.8466666,-1.13771 H 4.0585044 l -0.3968749,0.60854 -0.5027083,-0.50271 c 0.1058333,-0.0529 0.2116666,-0.10583 0.3175,-0.18521 0.1058333,-0.0794 0.1852083,-0.15875 0.2645832,-0.23812 0.079375,-0.0794 0.1322916,-0.18521 0.15875,-0.26458 0.052917,-0.10584 0.052917,-0.23813 0.052917,-0.34396 0,-0.29104 -0.1322916,-0.58209 -0.3704165,-0.76729 -0.1058333,-0.0794 -0.238125,-0.1323 -0.396875,-0.18521 -0.1322917,-0.0265 -0.2910417,-0.0529 -0.4497917,-0.0529 -0.15875,0 -0.2910416,0.0265 -0.4497916,0.0529 -0.1322917,0.0265 -0.2645834,0.10583 -0.396875,0.18521 -0.1058334,0.0794 -0.2116667,0.1852 -0.2910417,0.3175 -0.079375,0.13229 -0.1058333,0.29104 -0.1058333,0.44979 0,0.15875 0.026458,0.3175 0.1058333,0.47625 0.079375,0.13229 0.1852083,0.26458 0.2910417,0.39687 -0.1058334,0.0529 -0.2116667,0.10584 -0.3175,0.18521 -0.1058334,0.0529 -0.1852084,0.13229 -0.2645834,0.23813 -0.079375,0.0794 -0.1322916,0.1852 -0.1852083,0.31749 -0.052917,0.1323 -0.079375,0.23813 -0.052917,0.37042 0,0.18521 0.026458,0.37042 0.1322917,0.52917 0.079375,0.13229 0.1852083,0.26458 0.3175,0.37041 0.1322917,0.10584 0.2910417,0.18521 0.4497917,0.21167 0.15875,0.0529 0.3439583,0.0794 0.5291666,0.0794 0.4233334,0.0265 0.8466667,-0.15875 1.1641667,-0.47625 l 0.3704165,0.39687 h 1.1641667 z"
       id="path8"
       style="fill:#af1d1f;fill-opacity:1;stroke-width:0.26458332" />
  </g>
</svg>
