<?xml version="1.0" encoding="UTF-8" standalone="no"?>
<!DOCTYPE svg PUBLIC "-//W3C//DTD SVG 1.1//EN" "http://www.w3.org/Graphics/SVG/1.1/DTD/svg11.dtd">
<svg width="100%" height="100%" viewBox="0 0 180 380" version="1.1" xmlns="http://www.w3.org/2000/svg" xmlns:xlink="http://www.w3.org/1999/xlink" xml:space="preserve" xmlns:serif="http://www.serif.com/" style="fill-rule:evenodd;clip-rule:evenodd;stroke-linejoin:round;stroke-miterlimit:2;">
    <g id="Layer-2" serif:id="Layer 2">
        <rect id="rect4689" x="0" y="0" width="180" height="380" style="fill:rgb(44,45,48);fill-rule:nonzero;"/>
        <g id="text989">
        </g>
        <g id="text80" transform="matrix(1.00498,0,0,0.995047,45,4.99997)">
            <path id="path4726" d="M29.851,371.706L29.851,363.943L31.853,363.943L32.903,366.668C32.96,366.829 33.024,367.013 33.094,367.221C33.168,367.429 33.249,367.668 33.336,367.94L33.552,368.624C33.475,367.95 33.416,367.373 33.376,366.894C33.336,366.415 33.316,366.013 33.316,365.687L33.316,363.943L35.317,363.943L35.317,371.706L33.316,371.706L32.26,368.85C32.149,368.545 32.049,368.26 31.958,367.995C31.871,367.727 31.794,367.472 31.727,367.231C31.77,367.777 31.802,368.253 31.822,368.659C31.843,369.065 31.853,369.42 31.853,369.725L31.853,371.706L29.851,371.706Z" style="fill:rgb(158,161,168);fill-rule:nonzero;"/>
            <path id="path4728" d="M39.887,371.706L37.791,371.706L37.791,368.418L35.865,363.943L38.052,363.943L38.429,365.094C38.503,365.319 38.568,365.535 38.625,365.743C38.686,365.951 38.739,366.15 38.786,366.341C38.863,366.056 38.93,365.811 38.987,365.607C39.044,365.399 39.095,365.232 39.138,365.104L39.52,363.943L41.692,363.943L39.887,368.418L39.887,371.706Z" style="fill:rgb(158,161,168);fill-rule:nonzero;"/>
            <path id="path4730" d="M41.894,371.515L41.894,369.076C42.306,369.639 42.752,369.921 43.231,369.921C43.412,369.921 43.56,369.874 43.673,369.78C43.787,369.683 43.844,369.562 43.844,369.418C43.844,369.21 43.72,369.008 43.472,368.81L43.13,368.543C42.902,368.372 42.708,368.203 42.547,368.035C42.386,367.865 42.256,367.69 42.155,367.513C42.054,367.332 41.981,367.146 41.934,366.954C41.887,366.763 41.863,366.562 41.863,366.351C41.863,365.989 41.947,365.61 42.115,365.215C42.199,365.03 42.296,364.863 42.406,364.712C42.517,364.558 42.644,364.422 42.789,364.305C43.184,363.969 43.662,363.802 44.222,363.802C44.721,363.802 45.224,363.934 45.73,364.199L45.73,366.572C45.559,366.308 45.365,366.1 45.147,365.949C44.929,365.795 44.714,365.718 44.503,365.718C44.342,365.718 44.21,365.765 44.106,365.858C43.999,365.949 43.945,366.058 43.945,366.185C43.945,366.393 44.087,366.599 44.372,366.804L44.704,367.05C45.147,367.368 45.463,367.695 45.655,368.03C45.849,368.366 45.946,368.758 45.946,369.207C45.946,369.971 45.713,370.601 45.247,371.098C44.781,371.594 44.191,371.842 43.477,371.842C42.985,371.842 42.457,371.733 41.894,371.515L41.894,371.515Z" style="fill:rgb(158,161,168);fill-rule:nonzero;"/>
            <path id="path4732" d="M49.576,371.706L47.48,371.706L47.48,365.803L46.323,365.803L46.323,363.943L50.778,363.943L50.778,365.803L49.576,365.803L49.576,371.706Z" style="fill:rgb(158,161,168);fill-rule:nonzero;"/>
            <path id="path4734" d="M56.525,371.706L54.428,371.706L54.428,368.584L53.428,368.584L53.428,371.706L51.331,371.706L51.331,363.943L53.428,363.943L53.428,366.688L54.428,366.688L54.428,363.943L56.525,363.943L56.525,371.706Z" style="fill:rgb(158,161,168);fill-rule:nonzero;"/>
            <rect id="path4736" x="57.606" y="363.943" width="2.097" height="7.763" style="fill:rgb(158,161,168);fill-rule:nonzero;"/>
        </g>
        <g id="text4987">
        </g>
        <g id="text938" transform="matrix(0.683031,0,0,0.808081,50.8318,-81.1313)">
            <path id="path963" d="M14.146,128.039L14.146,129.625C13.651,129.271 13.205,129.094 12.81,129.094C12.382,129.094 12.034,129.245 11.763,129.547C11.492,129.833 11.356,130.216 11.356,130.695C11.356,131.117 11.453,131.479 11.646,131.781C11.744,131.943 11.906,132.151 12.13,132.406C12.359,132.661 12.653,132.969 13.013,133.328C13.674,134 14.125,134.581 14.364,135.07C14.604,135.544 14.724,136.125 14.724,136.812C14.724,137.745 14.461,138.513 13.935,139.117C13.409,139.706 12.734,140 11.911,140C11.218,140 10.627,139.81 10.138,139.43L10.138,137.82C10.716,138.242 11.242,138.453 11.716,138.453C12.159,138.453 12.505,138.307 12.755,138.016C13.005,137.719 13.13,137.318 13.13,136.812C13.13,136.375 13.034,135.982 12.841,135.633C12.742,135.466 12.604,135.276 12.427,135.062C12.25,134.844 12.028,134.602 11.763,134.336C11.351,133.93 11.01,133.57 10.739,133.258C10.468,132.945 10.268,132.672 10.138,132.437C9.888,131.979 9.763,131.401 9.763,130.703C9.763,129.76 10.007,129.013 10.497,128.461C10.992,127.904 11.656,127.625 12.489,127.625C13.067,127.625 13.619,127.763 14.146,128.039Z" style="fill:rgb(158,161,168);fill-rule:nonzero;"/>
            <path id="path965" d="M15.317,127.789L20.606,127.789L20.606,129.211L18.786,129.211L18.786,139.852L17.192,139.852L17.192,129.211L15.317,129.211L15.317,127.789Z" style="fill:rgb(158,161,168);fill-rule:nonzero;"/>
            <path id="path967" d="M22.997,127.789L24.263,127.789L26.849,139.852L25.239,139.852L24.786,137.5L22.396,137.5L21.935,139.852L20.372,139.852L22.997,127.789ZM24.552,136.242L24.192,134.32C23.953,133.013 23.757,131.617 23.606,130.133C23.534,130.857 23.44,131.591 23.325,132.336C23.211,133.076 23.075,133.862 22.919,134.695L22.622,136.242L24.552,136.242Z" style="fill:rgb(158,161,168);fill-rule:nonzero;"/>
            <path id="path969" d="M27.81,127.789L29.95,127.789C30.836,127.789 31.494,128 31.927,128.422C32.474,128.969 32.747,129.805 32.747,130.93C32.747,131.794 32.601,132.49 32.31,133.016C32.023,133.536 31.612,133.859 31.075,133.984L33.294,139.852L31.646,139.852L29.435,133.945L29.435,139.852L27.81,139.852L27.81,127.789ZM29.435,133.133C30.065,133.133 30.51,132.987 30.771,132.695C31.031,132.404 31.161,131.911 31.161,131.219C31.161,130.844 31.132,130.523 31.075,130.258C31.023,129.992 30.937,129.776 30.817,129.609C30.703,129.443 30.552,129.32 30.364,129.242C30.182,129.164 29.963,129.125 29.708,129.125L29.435,129.125L29.435,133.133Z" style="fill:rgb(158,161,168);fill-rule:nonzero;"/>
            <path id="path971" d="M33.755,127.789L39.044,127.789L39.044,129.211L37.224,129.211L37.224,139.852L35.63,139.852L35.63,129.211L33.755,129.211L33.755,127.789Z" style="fill:rgb(158,161,168);fill-rule:nonzero;"/>
        </g>
        <g id="text1321">
        </g>
        <g id="text1023" transform="matrix(0.886158,0,0,1.12847,0,2)">
            <path id="path1048" d="M79.717,123.906L80.917,123.906L80.917,131.799L82.878,131.799L82.878,132.814L79.717,132.814L79.717,123.906Z" style="fill:rgb(158,161,168);fill-rule:nonzero;"/>
            <path id="path1050" d="M88.099,128.579C88.099,130.153 87.924,131.27 87.574,131.931C87.224,132.593 86.638,132.924 85.815,132.924C84.949,132.924 84.34,132.568 83.986,131.856C83.636,131.16 83.461,129.924 83.461,128.147C83.461,126.562 83.634,125.441 83.98,124.783C84.33,124.122 84.923,123.791 85.757,123.791C86.503,123.791 87.057,124.047 87.419,124.558C87.657,124.901 87.83,125.387 87.938,126.018C88.046,126.603 88.099,127.456 88.099,128.579ZM86.842,128.706C86.842,127.164 86.773,126.141 86.634,125.637C86.496,125.129 86.213,124.876 85.786,124.876C85.359,124.876 85.074,125.108 84.932,125.574C84.794,126.043 84.724,126.985 84.724,128.401C84.724,129.704 84.798,130.608 84.944,131.112C85.094,131.589 85.374,131.828 85.786,131.828C86.19,131.828 86.467,131.604 86.617,131.158C86.767,130.716 86.842,129.899 86.842,128.706L86.842,128.706Z" style="fill:rgb(158,161,168);fill-rule:nonzero;"/>
            <path id="path1052" d="M91.428,128.129L93.609,128.129L93.609,128.476C93.609,130.21 93.457,131.381 93.153,131.989C92.853,132.612 92.292,132.924 91.469,132.924C90.619,132.924 90.013,132.578 89.651,131.885C89.294,131.193 89.115,130.029 89.115,128.395C89.115,126.526 89.311,125.281 89.703,124.662C90.073,124.081 90.64,123.791 91.405,123.791C91.99,123.791 92.446,123.931 92.773,124.212C93.103,124.497 93.361,124.964 93.546,125.614L92.426,126.081C92.376,125.847 92.321,125.651 92.259,125.493C92.198,125.331 92.13,125.206 92.057,125.118C91.911,124.937 91.692,124.847 91.399,124.847C90.999,124.847 90.726,125.093 90.58,125.585C90.434,126.101 90.361,127.026 90.361,128.36C90.361,129.71 90.436,130.624 90.586,131.101C90.736,131.578 91.019,131.816 91.434,131.816C91.815,131.816 92.082,131.647 92.236,131.308C92.394,130.947 92.472,130.366 92.472,129.566L92.472,129.324L92.472,129.145L91.428,129.145L91.428,128.129Z" style="fill:rgb(158,161,168);fill-rule:nonzero;"/>
            <path id="path1054" d="M96.546,123.906L97.728,123.906L98.265,127.195L98.357,127.789L98.548,129.081C98.578,129.301 98.605,129.501 98.628,129.681C98.655,129.862 98.678,130.026 98.698,130.172L98.755,130.61C98.767,130.522 98.776,130.443 98.784,130.374C98.792,130.304 98.799,130.247 98.807,130.201L98.963,129.168L99.165,127.812C99.184,127.689 99.201,127.576 99.217,127.472C99.236,127.368 99.253,127.276 99.269,127.195L99.845,123.906L100.965,123.906L99.217,132.814L98.265,132.814L96.546,123.906Z" style="fill:rgb(158,161,168);fill-rule:nonzero;"/>
            <path id="path1056" d="M102.678,123.906L103.613,123.906L105.523,132.814L104.334,132.814L104,131.078L102.234,131.078L101.894,132.814L100.74,132.814L102.678,123.906ZM103.826,130.149L103.561,128.729C103.384,127.764 103.24,126.733 103.128,125.637C103.075,126.172 103.005,126.714 102.921,127.264C102.836,127.81 102.736,128.391 102.621,129.006L102.401,130.149L103.826,130.149Z" style="fill:rgb(158,161,168);fill-rule:nonzero;"/>
            <path id="path1058" d="M106.232,123.906L107.432,123.906L107.432,131.799L109.394,131.799L109.394,132.814L106.232,132.814L106.232,123.906Z" style="fill:rgb(158,161,168);fill-rule:nonzero;"/>
            <path id="path1060" d="M110.248,123.906L111.425,123.906L111.425,130.201C111.425,130.843 111.482,131.27 111.598,131.481C111.717,131.693 111.951,131.799 112.301,131.799C112.651,131.799 112.882,131.706 112.994,131.522C113.109,131.333 113.167,130.951 113.167,130.374L113.167,123.906L114.344,123.906L114.344,130.374C114.344,131.343 114.196,131.999 113.9,132.341C113.546,132.729 113.005,132.924 112.278,132.924C111.478,132.924 110.915,132.674 110.588,132.174C110.361,131.831 110.248,131.174 110.248,130.201L110.248,123.906Z" style="fill:rgb(158,161,168);fill-rule:nonzero;"/>
            <path id="path1062" d="M115.717,123.906L118.907,123.906L118.907,124.922L116.917,124.922L116.917,127.743L118.682,127.743L118.682,128.758L116.917,128.758L116.917,131.799L118.907,131.799L118.907,132.814L115.717,132.814L115.717,123.906Z" style="fill:rgb(158,161,168);fill-rule:nonzero;"/>
            <path id="path1064" d="M122.98,124.091L122.98,125.262C122.615,125.001 122.286,124.87 121.994,124.87C121.678,124.87 121.421,124.981 121.221,125.204C121.021,125.416 120.921,125.699 120.921,126.053C120.921,126.364 120.992,126.631 121.134,126.854C121.207,126.974 121.327,127.128 121.492,127.316C121.661,127.504 121.878,127.731 122.144,127.997C122.632,128.493 122.965,128.922 123.142,129.283C123.319,129.633 123.407,130.062 123.407,130.57C123.407,131.258 123.213,131.826 122.825,132.272C122.436,132.706 121.938,132.924 121.33,132.924C120.819,132.924 120.382,132.783 120.021,132.503L120.021,131.314C120.448,131.626 120.836,131.781 121.186,131.781C121.513,131.781 121.769,131.674 121.953,131.458C122.138,131.239 122.23,130.943 122.23,130.57C122.23,130.247 122.159,129.956 122.017,129.699C121.944,129.576 121.842,129.435 121.711,129.278C121.58,129.116 121.417,128.937 121.221,128.741C120.917,128.441 120.665,128.176 120.465,127.945C120.265,127.714 120.117,127.512 120.021,127.339C119.836,127.001 119.744,126.574 119.744,126.058C119.744,125.362 119.925,124.81 120.286,124.403C120.652,123.991 121.142,123.785 121.757,123.785C122.184,123.785 122.592,123.887 122.98,124.091L122.98,124.091Z" style="fill:rgb(158,161,168);fill-rule:nonzero;"/>
        </g>
        <g id="text1051">
            <path id="path1085" d="M69.572,11.836C69.572,13.721 69.197,15.221 68.447,16.336C67.697,17.445 66.689,18 65.423,18C64.053,18 62.981,17.44 62.205,16.32C61.434,15.206 61.048,13.648 61.048,11.648C61.048,9.758 61.434,8.263 62.205,7.164C62.981,6.06 64.027,5.508 65.345,5.508C66.673,5.508 67.71,6.068 68.455,7.187C69.199,8.307 69.572,9.857 69.572,11.836ZM66.353,11.813C66.353,9.484 66.001,8.32 65.298,8.32C64.6,8.32 64.251,9.362 64.251,11.445C64.251,13.935 64.593,15.18 65.275,15.18C65.645,15.18 65.915,14.909 66.087,14.367C66.264,13.82 66.353,12.969 66.353,11.813Z" style="fill:rgb(158,161,168);fill-rule:nonzero;"/>
            <path id="path1087" d="M78.939,17.789L70.634,17.789L73.931,13.391C74.306,12.891 74.621,12.445 74.876,12.055C75.132,11.659 75.332,11.31 75.478,11.008C75.764,10.44 75.908,9.857 75.908,9.258C75.908,8.93 75.84,8.669 75.705,8.477C75.569,8.284 75.384,8.187 75.15,8.187C74.629,8.187 74.369,8.677 74.369,9.656L74.369,9.844C74.374,9.917 74.379,10.003 74.384,10.102L71.22,10.102L71.205,9.664C71.205,8.451 71.58,7.456 72.33,6.68C73.085,5.898 74.051,5.508 75.228,5.508C76.363,5.508 77.29,5.878 78.009,6.617C78.733,7.341 79.095,8.286 79.095,9.453C79.095,10.391 78.848,11.302 78.353,12.187C78.103,12.63 77.777,13.096 77.376,13.586C76.981,14.07 76.499,14.581 75.931,15.117C76.421,15.081 76.913,15.055 77.408,15.039C77.908,15.023 78.418,15.016 78.939,15.016L78.939,17.789Z" style="fill:rgb(158,161,168);fill-rule:nonzero;"/>
            <path id="path1089" d="M80.587,17.789L80.587,5.727L83.697,5.727L85.33,9.961C85.418,10.211 85.517,10.497 85.626,10.82C85.741,11.143 85.866,11.516 86.001,11.937L86.337,13C86.218,11.953 86.126,11.057 86.064,10.312C86.001,9.568 85.97,8.943 85.97,8.437L85.97,5.727L89.08,5.727L89.08,17.789L85.97,17.789L84.33,13.352C84.158,12.878 84.001,12.435 83.861,12.023C83.725,11.607 83.606,11.211 83.501,10.836C83.569,11.685 83.619,12.424 83.65,13.055C83.681,13.685 83.697,14.237 83.697,14.711L83.697,17.789L80.587,17.789Z" style="fill:rgb(158,161,168);fill-rule:nonzero;"/>
            <path id="path1091" d="M99.556,17.789L96.189,17.789L95.947,16.258L93.751,16.258L93.486,17.789L90.119,17.789L93.017,5.727L97.001,5.727L99.556,17.789ZM95.564,13.672L95.353,12.266C95.348,12.26 95.337,12.19 95.322,12.055C95.311,11.94 95.257,11.487 95.158,10.695C95.147,10.607 95.134,10.487 95.118,10.336C95.103,10.18 95.082,9.984 95.056,9.75L94.954,8.609C94.944,8.719 94.928,8.841 94.908,8.977C94.892,9.112 94.874,9.26 94.853,9.422C94.816,9.745 94.79,9.969 94.775,10.094C94.759,10.219 94.749,10.294 94.743,10.32L94.517,11.781L94.189,13.672L95.564,13.672Z" style="fill:rgb(158,161,168);fill-rule:nonzero;"/>
            <path id="path1093" d="M104.689,10.812L109.236,10.812L109.236,11.312C109.236,13.635 108.889,15.307 108.197,16.328C107.442,17.443 106.324,18 104.845,18C103.392,18 102.251,17.453 101.423,16.359C100.6,15.255 100.189,13.74 100.189,11.812C100.189,9.859 100.603,8.32 101.431,7.195C102.259,6.07 103.392,5.508 104.83,5.508C106.736,5.508 108.119,6.503 108.978,8.492L105.822,9.648C105.775,9.268 105.665,8.969 105.494,8.75C105.327,8.526 105.116,8.414 104.861,8.414C103.965,8.414 103.517,9.646 103.517,12.109C103.517,13.156 103.616,13.917 103.814,14.391C104.012,14.865 104.327,15.102 104.759,15.102C104.931,15.102 105.087,15.06 105.228,14.977C105.369,14.893 105.486,14.776 105.58,14.625C105.678,14.474 105.754,14.292 105.806,14.078C105.863,13.859 105.892,13.617 105.892,13.352L104.689,13.352L104.689,10.812Z" style="fill:rgb(158,161,168);fill-rule:nonzero;"/>
            <path id="path1095" d="M119.486,11.797C119.486,13.635 119.067,15.13 118.228,16.281C117.395,17.427 116.309,18 114.97,18C113.783,18 112.764,17.56 111.915,16.68C110.848,15.565 110.314,13.893 110.314,11.664C110.314,9.529 110.871,7.896 111.986,6.766C112.814,5.927 113.796,5.508 114.931,5.508C116.322,5.508 117.428,6.076 118.251,7.211C119.074,8.346 119.486,9.875 119.486,11.797ZM116.103,11.82C116.103,9.638 115.718,8.547 114.947,8.547C114.561,8.547 114.254,8.833 114.025,9.406C113.801,9.937 113.689,10.719 113.689,11.75C113.689,12.766 113.793,13.555 114.001,14.117C114.215,14.674 114.509,14.953 114.884,14.953C115.27,14.953 115.567,14.677 115.775,14.125C115.994,13.573 116.103,12.805 116.103,11.82L116.103,11.82Z" style="fill:rgb(158,161,168);fill-rule:nonzero;"/>
            <path id="path1097" d="M126.572,17.789L120.869,17.789L120.869,5.727L124.126,5.727L124.126,14.891L126.572,14.891L126.572,17.789Z" style="fill:rgb(158,161,168);fill-rule:nonzero;"/>
        </g>
        <g id="text1071" transform="matrix(0.786397,0,0,1.27162,0,0)">
            <path id="path1084" d="M120.497,17.326L120.497,18.366C120.173,18.134 119.881,18.017 119.622,18.017C119.342,18.017 119.113,18.116 118.936,18.314C118.758,18.502 118.67,18.753 118.67,19.067C118.67,19.344 118.733,19.581 118.859,19.779C118.924,19.885 119.03,20.021 119.176,20.188C119.327,20.356 119.519,20.557 119.755,20.792C120.188,21.233 120.484,21.613 120.641,21.934C120.798,22.245 120.876,22.625 120.876,23.076C120.876,23.687 120.704,24.19 120.359,24.586C120.014,24.972 119.572,25.165 119.033,25.165C118.579,25.165 118.192,25.04 117.871,24.791L117.871,23.736C118.25,24.013 118.594,24.151 118.905,24.151C119.195,24.151 119.422,24.055 119.586,23.864C119.75,23.67 119.832,23.407 119.832,23.076C119.832,22.789 119.769,22.531 119.642,22.303C119.577,22.194 119.487,22.069 119.371,21.929C119.255,21.786 119.11,21.627 118.936,21.453C118.666,21.187 118.443,20.951 118.265,20.746C118.088,20.542 117.956,20.362 117.871,20.209C117.707,19.908 117.625,19.53 117.625,19.072C117.625,18.454 117.786,17.965 118.106,17.603C118.431,17.238 118.866,17.055 119.412,17.055C119.791,17.055 120.153,17.145 120.497,17.326L120.497,17.326Z" style="fill:rgb(158,161,168);fill-rule:nonzero;"/>
            <path id="path1086" d="M121.265,17.162L124.731,17.162L124.731,18.094L123.538,18.094L123.538,25.067L122.494,25.067L122.494,18.094L121.265,18.094L121.265,17.162Z" style="fill:rgb(158,161,168);fill-rule:nonzero;"/>
            <path id="path1088" d="M129.355,21.31C129.355,22.705 129.199,23.697 128.889,24.284C128.578,24.871 128.058,25.165 127.327,25.165C126.559,25.165 126.018,24.849 125.704,24.218C125.394,23.6 125.238,22.502 125.238,20.926C125.238,19.519 125.392,18.524 125.699,17.941C126.01,17.354 126.535,17.06 127.276,17.06C127.938,17.06 128.43,17.287 128.75,17.741C128.962,18.045 129.116,18.477 129.211,19.036C129.307,19.555 129.355,20.313 129.355,21.31L129.355,21.31ZM128.238,21.422C128.238,20.053 128.177,19.146 128.054,18.698C127.931,18.248 127.68,18.023 127.301,18.023C126.923,18.023 126.67,18.229 126.544,18.642C126.421,19.059 126.359,19.895 126.359,21.151C126.359,22.308 126.424,23.11 126.554,23.557C126.687,23.98 126.936,24.192 127.301,24.192C127.66,24.192 127.906,23.994 128.039,23.598C128.172,23.206 128.238,22.48 128.238,21.422L128.238,21.422Z" style="fill:rgb(158,161,168);fill-rule:nonzero;"/>
            <path id="path1090" d="M130.414,17.162L131.817,17.162C132.493,17.162 132.984,17.333 133.292,17.674C133.599,18.019 133.752,18.565 133.752,19.313C133.752,20.364 133.444,21.043 132.826,21.35C132.515,21.49 132.066,21.56 131.479,21.56L131.479,25.067L130.414,25.067L130.414,17.162ZM131.479,20.649C131.92,20.649 132.223,20.56 132.391,20.383C132.561,20.202 132.647,19.881 132.647,19.42C132.647,18.949 132.565,18.605 132.401,18.386C132.237,18.168 131.979,18.058 131.628,18.058L131.479,18.058L131.479,20.649Z" style="fill:rgb(158,161,168);fill-rule:nonzero;"/>
            <rect id="path1092" x="133.839" y="21.955" width="1.864" height="0.799" style="fill:rgb(158,161,168);fill-rule:nonzero;"/>
            <path id="path1094" d="M139.415,17.29L139.415,18.248C139.142,18.115 138.913,18.048 138.729,18.048C138.476,18.048 138.259,18.111 138.079,18.238C137.898,18.361 137.748,18.552 137.628,18.811C137.512,19.07 137.425,19.4 137.367,19.799C137.312,20.195 137.285,20.664 137.285,21.207C137.285,23.159 137.785,24.136 138.785,24.136C138.959,24.136 139.169,24.081 139.415,23.972L139.415,24.95C139.159,25.093 138.872,25.165 138.555,25.165C136.954,25.165 136.154,23.857 136.154,21.243C136.154,19.83 136.348,18.779 136.737,18.089C137.13,17.4 137.729,17.055 138.534,17.055C138.831,17.055 139.125,17.133 139.415,17.29L139.415,17.29Z" style="fill:rgb(158,161,168);fill-rule:nonzero;"/>
            <path id="path1096" d="M144.202,21.31C144.202,22.705 144.047,23.697 143.736,24.284C143.425,24.871 142.905,25.165 142.174,25.165C141.406,25.165 140.865,24.849 140.551,24.218C140.241,23.6 140.086,22.502 140.086,20.926C140.086,19.519 140.239,18.524 140.546,17.941C140.857,17.354 141.383,17.06 142.123,17.06C142.785,17.06 143.277,17.287 143.598,17.741C143.809,18.045 143.963,18.477 144.058,19.036C144.154,19.555 144.202,20.313 144.202,21.31L144.202,21.31ZM143.086,21.422C143.086,20.053 143.024,19.146 142.901,18.698C142.779,18.248 142.528,18.023 142.149,18.023C141.77,18.023 141.517,18.229 141.391,18.642C141.268,19.059 141.207,19.895 141.207,21.151C141.207,22.308 141.272,23.11 141.401,23.557C141.534,23.98 141.784,24.192 142.149,24.192C142.507,24.192 142.753,23.994 142.886,23.598C143.019,23.206 143.086,22.48 143.086,21.422L143.086,21.422Z" style="fill:rgb(158,161,168);fill-rule:nonzero;"/>
            <path id="path1098" d="M145.262,17.162L146.255,17.162L147.315,20.316C147.622,21.207 147.893,22.158 148.129,23.168C148.043,22.557 147.98,22.004 147.939,21.509C147.898,21.014 147.878,20.548 147.878,20.111L147.878,17.162L148.948,17.162L148.948,25.067L147.95,25.067L146.757,21.509C146.647,21.178 146.543,20.838 146.444,20.49C146.349,20.142 146.26,19.777 146.178,19.395C146.171,19.347 146.159,19.289 146.142,19.221C146.129,19.152 146.111,19.074 146.091,18.985C146.101,19.074 146.11,19.151 146.117,19.216C146.123,19.277 146.129,19.33 146.132,19.374L146.188,20.178L146.245,21.156C146.248,21.211 146.25,21.277 146.25,21.356C146.254,21.434 146.255,21.523 146.255,21.622L146.312,25.067L145.262,25.067L145.262,17.162Z" style="fill:rgb(158,161,168);fill-rule:nonzero;"/>
            <path id="path1100" d="M149.547,17.162L153.013,17.162L153.013,18.094L151.82,18.094L151.82,25.067L150.776,25.067L150.776,18.094L149.547,18.094L149.547,17.162Z" style="fill:rgb(158,161,168);fill-rule:nonzero;"/>
            <rect id="path1102" x="153.597" y="17.162" width="1.065" height="7.905" style="fill:rgb(158,161,168);fill-rule:nonzero;"/>
            <path id="path1104" d="M155.89,17.162L156.884,17.162L157.943,20.316C158.25,21.207 158.522,22.158 158.757,23.168C158.672,22.557 158.609,22.004 158.568,21.509C158.527,21.014 158.506,20.548 158.506,20.111L158.506,17.162L159.576,17.162L159.576,25.067L158.578,25.067L157.385,21.509C157.276,21.178 157.172,20.838 157.073,20.49C156.977,20.142 156.889,19.777 156.807,19.395C156.8,19.347 156.788,19.289 156.771,19.221C156.757,19.152 156.74,19.074 156.72,18.985C156.73,19.074 156.739,19.151 156.745,19.216C156.752,19.277 156.757,19.33 156.761,19.374L156.817,20.178L156.873,21.156C156.877,21.211 156.879,21.277 156.879,21.356C156.882,21.434 156.884,21.523 156.884,21.622L156.94,25.067L155.891,25.067L155.89,17.162Z" style="fill:rgb(158,161,168);fill-rule:nonzero;"/>
            <path id="path1106" d="M160.805,17.162L161.85,17.162L161.85,22.748C161.85,23.318 161.901,23.697 162.003,23.885C162.109,24.072 162.317,24.166 162.628,24.166C162.939,24.166 163.143,24.084 163.242,23.921C163.345,23.753 163.396,23.414 163.396,22.902L163.396,17.162L164.44,17.162L164.44,22.902C164.44,23.762 164.309,24.344 164.046,24.648C163.732,24.992 163.253,25.165 162.607,25.165C161.897,25.165 161.397,24.943 161.107,24.499C160.906,24.195 160.805,23.612 160.805,22.748L160.805,17.162Z" style="fill:rgb(158,161,168);fill-rule:nonzero;"/>
            <path id="path1108" d="M165.659,17.162L168.49,17.162L168.49,18.064L166.724,18.064L166.724,20.567L168.29,20.567L168.29,21.468L166.724,21.468L166.724,24.166L168.49,24.166L168.49,25.067L165.659,25.067L165.659,17.162Z" style="fill:rgb(158,161,168);fill-rule:nonzero;"/>
        </g>
        <g id="text1113" transform="matrix(0.723545,0,0,1.12847,9.63266,0)">
            <path id="path1115" d="M5.146,24.013C5.146,25.586 4.971,26.703 4.621,27.365C4.271,28.026 3.685,28.357 2.862,28.357C1.996,28.357 1.387,28.001 1.033,27.29C0.683,26.594 0.508,25.357 0.508,23.58C0.508,21.995 0.681,20.874 1.027,20.217C1.377,19.555 1.969,19.224 2.804,19.224C3.55,19.224 4.104,19.48 4.465,19.992C4.704,20.334 4.877,20.82 4.985,21.451C5.092,22.036 5.146,22.89 5.146,24.013L5.146,24.013ZM3.888,24.14C3.888,22.597 3.819,21.574 3.681,21.07C3.542,20.563 3.26,20.309 2.833,20.309C2.406,20.309 2.121,20.542 1.979,21.007C1.84,21.476 1.771,22.419 1.771,23.834C1.771,25.138 1.844,26.042 1.99,26.546C2.14,27.022 2.421,27.261 2.833,27.261C3.237,27.261 3.513,27.038 3.663,26.592C3.813,26.149 3.888,25.332 3.888,24.14Z" style="fill:rgb(158,161,168);fill-rule:nonzero;"/>
            <path id="path1117" d="M6.34,19.34L7.46,19.34L8.654,22.894C9,23.897 9.306,24.969 9.571,26.107C9.475,25.419 9.404,24.796 9.358,24.238C9.312,23.68 9.289,23.155 9.289,22.663L9.289,19.34L10.494,19.34L10.494,28.247L9.369,28.247L8.025,24.238C7.902,23.865 7.785,23.482 7.673,23.09C7.565,22.697 7.465,22.286 7.373,21.855C7.365,21.801 7.352,21.736 7.333,21.659C7.317,21.582 7.298,21.494 7.275,21.394C7.287,21.494 7.296,21.58 7.304,21.653C7.312,21.722 7.317,21.782 7.321,21.832L7.385,22.738L7.448,23.84C7.452,23.901 7.454,23.976 7.454,24.065C7.458,24.153 7.46,24.253 7.46,24.365L7.523,28.247L6.34,28.247L6.34,19.34Z" style="fill:rgb(158,161,168);fill-rule:nonzero;"/>
            <path id="path1119" d="M11.879,19.34L15.069,19.34L15.069,20.355L13.079,20.355L13.079,23.176L14.844,23.176L14.844,24.192L13.079,24.192L13.079,27.232L15.069,27.232L15.069,28.247L11.879,28.247L11.879,19.34Z" style="fill:rgb(158,161,168);fill-rule:nonzero;"/>
            <path id="path1121" d="M19.142,19.524L19.142,20.695C18.777,20.434 18.448,20.303 18.156,20.303C17.84,20.303 17.583,20.415 17.383,20.638C17.183,20.849 17.083,21.132 17.083,21.486C17.083,21.797 17.154,22.065 17.296,22.288C17.369,22.407 17.489,22.561 17.654,22.749C17.823,22.938 18.04,23.165 18.306,23.43C18.794,23.926 19.127,24.355 19.304,24.717C19.481,25.067 19.569,25.496 19.569,26.003C19.569,26.692 19.375,27.259 18.987,27.705C18.598,28.14 18.1,28.357 17.492,28.357C16.981,28.357 16.544,28.217 16.183,27.936L16.183,26.747C16.61,27.059 16.998,27.215 17.348,27.215C17.675,27.215 17.931,27.107 18.115,26.892C18.3,26.672 18.392,26.376 18.392,26.003C18.392,25.68 18.321,25.39 18.179,25.132C18.106,25.009 18.004,24.869 17.873,24.711C17.742,24.549 17.579,24.37 17.383,24.174C17.079,23.874 16.827,23.609 16.627,23.378C16.427,23.147 16.279,22.945 16.183,22.772C15.998,22.434 15.906,22.007 15.906,21.492C15.906,20.795 16.087,20.244 16.448,19.836C16.814,19.424 17.304,19.219 17.919,19.219C18.346,19.219 18.754,19.32 19.142,19.524L19.142,19.524Z" style="fill:rgb(158,161,168);fill-rule:nonzero;"/>
            <path id="path1123" d="M20.579,19.34L21.779,19.34L21.779,22.824L23.539,22.824L23.539,19.34L24.739,19.34L24.739,28.247L23.539,28.247L23.539,23.84L21.779,23.84L21.779,28.247L20.579,28.247L20.579,19.34Z" style="fill:rgb(158,161,168);fill-rule:nonzero;"/>
            <path id="path1125" d="M30.577,24.013C30.577,25.586 30.402,26.703 30.052,27.365C29.702,28.026 29.116,28.357 28.292,28.357C27.427,28.357 26.817,28.001 26.464,27.29C26.114,26.594 25.939,25.357 25.939,23.58C25.939,21.995 26.112,20.874 26.458,20.217C26.808,19.555 27.4,19.224 28.235,19.224C28.981,19.224 29.535,19.48 29.896,19.992C30.135,20.334 30.308,20.82 30.416,21.451C30.523,22.036 30.577,22.89 30.577,24.013L30.577,24.013ZM29.319,24.14C29.319,22.597 29.25,21.574 29.112,21.07C28.973,20.563 28.691,20.309 28.264,20.309C27.837,20.309 27.552,20.542 27.41,21.007C27.271,21.476 27.202,22.419 27.202,23.834C27.202,25.138 27.275,26.042 27.421,26.546C27.571,27.022 27.852,27.261 28.264,27.261C28.667,27.261 28.944,27.038 29.094,26.592C29.244,26.149 29.319,25.332 29.319,24.14Z" style="fill:rgb(158,161,168);fill-rule:nonzero;"/>
            <path id="path1127" d="M31.154,19.34L35.06,19.34L35.06,20.39L33.716,20.39L33.716,28.247L32.539,28.247L32.539,20.39L31.154,20.39L31.154,19.34Z" style="fill:rgb(158,161,168);fill-rule:nonzero;"/>
        </g>
        <g id="text1132" transform="matrix(0.804452,0,0,1.12847,8.76892,0)">
            <path id="path1134" d="M20.177,70.846L24.082,70.846L24.082,71.896L22.738,71.896L22.738,79.754L21.561,79.754L21.561,71.896L20.177,71.896L20.177,70.846Z" style="fill:rgb(158,161,168);fill-rule:nonzero;"/>
            <rect id="path1136" x="24.74" y="70.846" width="1.2" height="8.908" style="fill:rgb(158,161,168);fill-rule:nonzero;"/>
            <path id="path1138" d="M27.746,70.846L28.773,70.846L29.557,74.481C29.654,74.935 29.74,75.391 29.817,75.848C29.898,76.302 29.971,76.779 30.036,77.279C30.044,77.214 30.05,77.164 30.054,77.129C30.057,77.091 30.061,77.064 30.065,77.048L30.232,76.027L30.382,75.058L30.515,74.418L31.213,70.846L32.252,70.846L33.071,79.754L31.923,79.754L31.721,76.731C31.713,76.577 31.705,76.445 31.698,76.333C31.694,76.222 31.692,76.129 31.692,76.056L31.64,74.862L31.611,73.766C31.611,73.758 31.609,73.743 31.605,73.72C31.605,73.693 31.604,73.658 31.6,73.616L31.571,73.795C31.54,74.006 31.511,74.191 31.484,74.348C31.461,74.506 31.44,74.639 31.421,74.747L31.271,75.56L31.213,75.866L30.463,79.754L29.655,79.754L28.952,76.397C28.855,75.954 28.769,75.506 28.692,75.052C28.619,74.595 28.552,74.116 28.49,73.616L28.144,79.754L27.013,79.754L27.746,70.846Z" style="fill:rgb(158,161,168);fill-rule:nonzero;"/>
            <path id="path1140" d="M34.063,70.846L37.254,70.846L37.254,71.862L35.263,71.862L35.263,74.683L37.029,74.683L37.029,75.698L35.263,75.698L35.263,78.739L37.254,78.739L37.254,79.754L34.063,79.754L34.063,70.846Z" style="fill:rgb(158,161,168);fill-rule:nonzero;"/>
            <path id="path1142" d="M40.802,70.846L42.382,70.846C43.036,70.846 43.523,71.002 43.842,71.314C44.246,71.718 44.448,72.335 44.448,73.166C44.448,73.804 44.34,74.318 44.125,74.706C43.913,75.091 43.609,75.329 43.213,75.422L44.852,79.754L43.634,79.754L42.002,75.393L42.002,79.754L40.802,79.754L40.802,70.846ZM42.002,74.793C42.467,74.793 42.796,74.685 42.988,74.47C43.181,74.254 43.277,73.891 43.277,73.379C43.277,73.102 43.256,72.866 43.213,72.67C43.175,72.473 43.111,72.314 43.023,72.191C42.938,72.068 42.827,71.977 42.688,71.92C42.554,71.862 42.392,71.833 42.204,71.833L42.002,71.833L42.002,74.793Z" style="fill:rgb(158,161,168);fill-rule:nonzero;"/>
            <path id="path1144" d="M47.056,70.846L47.99,70.846L49.9,79.754L48.711,79.754L48.377,78.018L46.611,78.018L46.271,79.754L45.117,79.754L47.056,70.846ZM48.204,77.089L47.938,75.67C47.761,74.704 47.617,73.673 47.506,72.577C47.452,73.112 47.382,73.654 47.298,74.204C47.213,74.75 47.113,75.331 46.998,75.947L46.779,77.089L48.204,77.089Z" style="fill:rgb(158,161,168);fill-rule:nonzero;"/>
            <path id="path1146" d="M49.715,70.846L53.621,70.846L53.621,71.896L52.277,71.896L52.277,79.754L51.1,79.754L51.1,71.896L49.715,71.896L49.715,70.846Z" style="fill:rgb(158,161,168);fill-rule:nonzero;"/>
            <path id="path1148" d="M54.279,70.846L57.469,70.846L57.469,71.862L55.479,71.862L55.479,74.683L57.244,74.683L57.244,75.698L55.479,75.698L55.479,78.739L57.469,78.739L57.469,79.754L54.279,79.754L54.279,70.846Z" style="fill:rgb(158,161,168);fill-rule:nonzero;"/>
        </g>
        <g id="text1164" transform="matrix(1.12793,0,0,1.32987,-75.0002,0)">
            <path id="path1191" d="M149.404,60.146L149.404,61.062C149.143,60.935 148.924,60.871 148.748,60.871C148.507,60.871 148.299,60.931 148.126,61.052C147.953,61.17 147.81,61.352 147.696,61.6C147.585,61.848 147.501,62.163 147.446,62.545C147.394,62.924 147.368,63.373 147.368,63.892C147.368,65.758 147.846,66.692 148.802,66.692C148.968,66.692 149.169,66.64 149.404,66.535L149.404,67.47C149.159,67.607 148.885,67.676 148.582,67.676C147.051,67.676 146.286,66.426 146.286,63.926C146.286,62.575 146.472,61.569 146.844,60.91C147.219,60.251 147.792,59.921 148.562,59.921C148.846,59.921 149.127,59.996 149.404,60.146L149.404,60.146Z" style="fill:rgb(158,161,168);fill-rule:nonzero;"/>
            <path id="path1194" d="M149.654,60.024L150.657,60.024L151.113,62.815L151.191,63.319L151.353,64.415C151.379,64.601 151.402,64.771 151.421,64.924C151.444,65.078 151.464,65.217 151.48,65.341L151.529,65.713C151.539,65.638 151.547,65.571 151.553,65.512C151.56,65.453 151.566,65.404 151.573,65.365L151.705,64.489L151.877,63.338C151.893,63.234 151.908,63.138 151.921,63.049C151.937,62.961 151.952,62.883 151.965,62.815L152.454,60.024L153.404,60.024L151.921,67.583L151.113,67.583L149.654,60.024Z" style="fill:rgb(158,161,168);fill-rule:nonzero;"/>
            <path id="path1196" d="M157.11,60.024L157.903,60.024L159.523,67.583L158.515,67.583L158.231,66.109L156.733,66.109L156.444,67.583L155.465,67.583L157.11,60.024ZM158.084,65.321L157.859,64.117C157.709,63.298 157.586,62.423 157.492,61.493C157.446,61.946 157.387,62.407 157.315,62.873C157.244,63.337 157.159,63.83 157.061,64.352L156.875,65.321L158.084,65.321Z" style="fill:rgb(158,161,168);fill-rule:nonzero;"/>
            <path id="path1198" d="M160.125,60.024L161.379,60.024C161.76,60.024 162.082,60.066 162.343,60.151C162.585,60.233 162.8,60.378 162.989,60.587C163.273,60.9 163.476,61.308 163.596,61.811C163.717,62.297 163.777,62.994 163.777,63.901C163.777,64.734 163.711,65.412 163.577,65.938C163.446,66.44 163.231,66.824 162.931,67.088C162.562,67.418 161.901,67.583 160.948,67.583L160.125,67.583L160.125,60.024ZM161.144,66.692C161.764,66.692 162.178,66.504 162.387,66.129C162.603,65.753 162.71,65.024 162.71,63.94C162.71,62.775 162.607,61.974 162.402,61.537C162.196,61.099 161.819,60.881 161.271,60.881L161.144,60.881L161.144,66.692Z" style="fill:rgb(158,161,168);fill-rule:nonzero;"/>
            <path id="path1200" d="M164.786,60.024L166.039,60.024C166.421,60.024 166.743,60.066 167.004,60.151C167.245,60.233 167.461,60.378 167.65,60.587C167.934,60.9 168.136,61.308 168.257,61.811C168.378,62.297 168.438,62.994 168.438,63.901C168.438,64.734 168.371,65.412 168.237,65.938C168.107,66.44 167.891,66.824 167.591,67.088C167.222,67.418 166.561,67.583 165.608,67.583L164.786,67.583L164.786,60.024ZM165.804,66.692C166.424,66.692 166.839,66.504 167.048,66.129C167.263,65.753 167.371,65.024 167.371,63.94C167.371,62.775 167.268,61.974 167.062,61.537C166.857,61.099 166.48,60.881 165.932,60.881L165.804,60.881L165.804,66.692Z" style="fill:rgb(158,161,168);fill-rule:nonzero;"/>
            <path id="path1202" d="M169.446,60.024L170.788,60.024C171.343,60.024 171.756,60.156 172.026,60.421C172.369,60.763 172.54,61.287 172.54,61.992C172.54,62.534 172.449,62.97 172.266,63.299C172.087,63.626 171.829,63.828 171.493,63.906L172.883,67.583L171.85,67.583L170.465,63.882L170.465,67.583L169.446,67.583L169.446,60.024ZM170.465,63.373C170.86,63.373 171.139,63.281 171.302,63.098C171.465,62.916 171.547,62.607 171.547,62.173C171.547,61.938 171.529,61.737 171.493,61.571C171.46,61.405 171.406,61.269 171.331,61.165C171.259,61.06 171.165,60.984 171.047,60.935C170.933,60.886 170.796,60.861 170.636,60.861L170.465,60.861L170.465,63.373Z" style="fill:rgb(158,161,168);fill-rule:nonzero;"/>
        </g>
        <g id="text1168" transform="matrix(0.90375,0,0,1.26457,-25,0)">
            <path id="path1170" d="M177.04,63.123L180.526,63.123L180.526,64.06L179.326,64.06L179.326,71.072L178.276,71.072L178.276,64.06L177.04,64.06L177.04,63.123Z" style="fill:rgb(158,161,168);fill-rule:nonzero;"/>
            <path id="path1172" d="M181.113,63.123L182.523,63.123C183.107,63.123 183.541,63.262 183.826,63.54C184.186,63.901 184.366,64.452 184.366,65.193C184.366,65.763 184.27,66.221 184.078,66.568C183.889,66.911 183.618,67.124 183.264,67.206L184.727,71.072L183.64,71.072L182.183,67.18L182.183,71.072L181.113,71.072L181.113,63.123ZM182.183,66.645C182.599,66.645 182.892,66.549 183.064,66.357C183.235,66.164 183.321,65.84 183.321,65.384C183.321,65.136 183.302,64.925 183.265,64.75C183.23,64.575 183.174,64.433 183.095,64.323C183.019,64.213 182.92,64.133 182.796,64.081C182.676,64.03 182.532,64.004 182.364,64.004L182.183,64.004L182.183,66.645Z" style="fill:rgb(158,161,168);fill-rule:nonzero;"/>
            <rect id="path1174" x="185.561" y="63.123" width="1.071" height="7.949" style="fill:rgb(158,161,168);fill-rule:nonzero;"/>
            <path id="path1176" d="M189.772,66.892L191.718,66.892L191.718,67.201C191.718,68.749 191.582,69.794 191.311,70.336C191.044,70.892 190.542,71.17 189.808,71.17C189.049,71.17 188.509,70.861 188.186,70.244C187.867,69.626 187.707,68.588 187.707,67.129C187.707,65.461 187.883,64.35 188.233,63.798C188.562,63.28 189.068,63.021 189.751,63.021C190.273,63.021 190.68,63.146 190.972,63.396C191.267,63.65 191.497,64.067 191.661,64.647L190.663,65.064C190.618,64.855 190.568,64.68 190.513,64.539C190.458,64.395 190.398,64.284 190.333,64.205C190.203,64.043 190.007,63.963 189.746,63.963C189.389,63.963 189.146,64.182 189.015,64.622C188.885,65.082 188.82,65.907 188.82,67.098C188.82,68.303 188.886,69.118 189.02,69.543C189.154,69.969 189.406,70.182 189.777,70.182C190.117,70.182 190.355,70.031 190.493,69.729C190.634,69.406 190.704,68.888 190.704,68.174L190.704,67.958L190.704,67.798L189.772,67.798L189.772,66.892Z" style="fill:rgb(158,161,168);fill-rule:nonzero;"/>
            <path id="path1178" d="M194.339,63.123L197.824,63.123L197.824,64.06L196.624,64.06L196.624,71.072L195.574,71.072L195.574,64.06L194.339,64.06L194.339,63.123Z" style="fill:rgb(158,161,168);fill-rule:nonzero;"/>
            <path id="path1180" d="M202.473,67.294C202.473,68.697 202.317,69.694 202.004,70.285C201.692,70.875 201.169,71.17 200.434,71.17C199.662,71.17 199.118,70.853 198.802,70.218C198.49,69.597 198.334,68.493 198.334,66.907C198.334,65.493 198.488,64.493 198.797,63.906C199.109,63.316 199.638,63.021 200.383,63.021C201.048,63.021 201.543,63.249 201.865,63.705C202.078,64.011 202.233,64.445 202.329,65.008C202.425,65.529 202.473,66.291 202.473,67.294ZM201.351,67.407C201.351,66.031 201.289,65.118 201.165,64.668C201.042,64.215 200.789,63.988 200.408,63.988C200.027,63.988 199.773,64.196 199.646,64.611C199.523,65.03 199.461,65.871 199.461,67.134C199.461,68.298 199.526,69.104 199.657,69.554C199.791,69.979 200.041,70.192 200.408,70.192C200.769,70.192 201.016,69.993 201.15,69.595C201.284,69.2 201.35,68.471 201.35,67.407L201.351,67.407Z" style="fill:rgb(158,161,168);fill-rule:nonzero;"/>
            <path id="path1182" d="M205.721,63.123L206.72,63.123L207.786,66.295C208.095,67.191 208.368,68.147 208.604,69.162C208.519,68.548 208.455,67.992 208.414,67.494C208.373,66.997 208.352,66.528 208.352,66.089L208.352,63.123L209.428,63.123L209.428,71.072L208.424,71.072L207.225,67.494C207.115,67.161 207.01,66.82 206.911,66.47C206.815,66.12 206.725,65.753 206.643,65.368C206.636,65.32 206.624,65.262 206.607,65.193C206.593,65.124 206.576,65.046 206.556,64.956C206.566,65.046 206.574,65.123 206.581,65.188C206.588,65.25 206.593,65.303 206.597,65.348L206.653,66.156L206.71,67.139C206.714,67.194 206.715,67.261 206.715,67.34C206.719,67.419 206.721,67.508 206.721,67.608L206.777,71.072L205.722,71.072L205.721,63.123Z" style="fill:rgb(158,161,168);fill-rule:nonzero;"/>
            <path id="path1184" d="M210.664,63.123L213.511,63.123L213.511,64.03L211.735,64.03L211.735,66.547L213.31,66.547L213.31,67.453L211.735,67.453L211.735,70.166L213.511,70.166L213.511,71.072L210.664,71.072L210.664,63.123Z" style="fill:rgb(158,161,168);fill-rule:nonzero;"/>
            <path id="path1186" d="M213.954,63.123L214.994,63.123L215.544,64.663C215.761,65.27 215.889,65.715 215.931,65.996C215.968,65.821 216.009,65.651 216.054,65.487C216.102,65.322 216.152,65.157 216.203,64.992L216.275,64.761L216.785,63.123L217.866,63.123L216.394,67.036L217.866,71.072L216.785,71.072L216.26,69.559C216.154,69.257 216.068,68.986 216.003,68.745C215.937,68.505 215.891,68.292 215.864,68.107C215.836,68.337 215.79,68.557 215.725,68.766L215.544,69.332L215.452,69.631L214.993,71.072L213.861,71.072L215.364,67.036L213.954,63.123Z" style="fill:rgb(158,161,168);fill-rule:nonzero;"/>
            <path id="path1188" d="M217.815,63.123L221.3,63.123L221.3,64.06L220.101,64.06L220.101,71.072L219.05,71.072L219.05,64.06L217.815,64.06L217.815,63.123Z" style="fill:rgb(158,161,168);fill-rule:nonzero;"/>
        </g>
    </g>
</svg>
