<?xml version="1.0" encoding="UTF-8" standalone="no"?>
<!DOCTYPE svg PUBLIC "-//W3C//DTD SVG 1.1//EN" "http://www.w3.org/Graphics/SVG/1.1/DTD/svg11.dtd">
<svg width="100%" height="100%" viewBox="0 0 30 380" version="1.1" xmlns="http://www.w3.org/2000/svg" xmlns:xlink="http://www.w3.org/1999/xlink" xml:space="preserve" xmlns:serif="http://www.serif.com/" style="fill-rule:evenodd;clip-rule:evenodd;stroke-linejoin:round;stroke-miterlimit:2;">
    <g id="Layer-2" serif:id="Layer 2">
        <rect id="rect4689" x="0.332" y="0" width="30" height="380" style="fill:rgb(44,45,48);"/>
        <g id="text989">
        </g>
        <g id="text4987">
        </g>
        <g id="text80-3" transform="matrix(0.937979,0,0,0.995047,-27,4.99998)">
            <path id="path4726-0" d="M29.851,371.706L29.851,363.943L31.853,363.943L32.903,366.668C32.96,366.829 33.024,367.013 33.094,367.221C33.168,367.429 33.249,367.668 33.336,367.94L33.552,368.624C33.475,367.95 33.416,367.373 33.376,366.894C33.336,366.415 33.316,366.013 33.316,365.687L33.316,363.943L35.317,363.943L35.317,371.706L33.316,371.706L32.26,368.85C32.149,368.545 32.049,368.26 31.958,367.995C31.871,367.727 31.794,367.472 31.727,367.231C31.77,367.777 31.802,368.253 31.822,368.659C31.843,369.065 31.853,369.42 31.853,369.725L31.853,371.706L29.851,371.706Z" style="fill:rgb(158,161,168);fill-rule:nonzero;"/>
            <path id="path4728-1" d="M39.887,371.706L37.791,371.706L37.791,368.418L35.865,363.943L38.052,363.943L38.429,365.094C38.503,365.319 38.568,365.535 38.625,365.743C38.686,365.951 38.739,366.15 38.786,366.341C38.863,366.056 38.93,365.811 38.987,365.607C39.044,365.399 39.095,365.231 39.138,365.104L39.52,363.943L41.692,363.943L39.887,368.418L39.887,371.706Z" style="fill:rgb(158,161,168);fill-rule:nonzero;"/>
            <path id="path4730-9" d="M41.894,371.515L41.894,369.076C42.306,369.639 42.752,369.921 43.231,369.921C43.412,369.921 43.56,369.874 43.673,369.78C43.787,369.683 43.844,369.562 43.844,369.418C43.844,369.21 43.72,369.008 43.472,368.81L43.13,368.543C42.902,368.372 42.708,368.203 42.547,368.035C42.386,367.865 42.256,367.69 42.155,367.513C42.054,367.332 41.981,367.146 41.934,366.954C41.887,366.763 41.863,366.562 41.863,366.351C41.863,365.989 41.947,365.61 42.115,365.215C42.199,365.03 42.296,364.863 42.406,364.712C42.517,364.558 42.644,364.422 42.789,364.305C43.184,363.969 43.662,363.802 44.222,363.802C44.721,363.802 45.224,363.934 45.73,364.199L45.73,366.572C45.559,366.307 45.365,366.1 45.147,365.949C44.929,365.795 44.714,365.718 44.503,365.718C44.342,365.718 44.21,365.764 44.106,365.858C43.999,365.949 43.945,366.058 43.945,366.185C43.945,366.393 44.087,366.599 44.372,366.804L44.704,367.05C45.147,367.368 45.463,367.695 45.655,368.03C45.849,368.366 45.946,368.758 45.946,369.207C45.946,369.971 45.713,370.601 45.247,371.098C44.781,371.594 44.191,371.842 43.477,371.842C42.985,371.842 42.457,371.733 41.894,371.515L41.894,371.515Z" style="fill:rgb(158,161,168);fill-rule:nonzero;"/>
            <path id="path4732-8" d="M49.576,371.706L47.48,371.706L47.48,365.803L46.323,365.803L46.323,363.943L50.778,363.943L50.778,365.803L49.576,365.803L49.576,371.706Z" style="fill:rgb(158,161,168);fill-rule:nonzero;"/>
            <path id="path4734-6" d="M56.525,371.706L54.428,371.706L54.428,368.584L53.428,368.584L53.428,371.706L51.331,371.706L51.331,363.943L53.428,363.943L53.428,366.688L54.428,366.688L54.428,363.943L56.525,363.943L56.525,371.706Z" style="fill:rgb(158,161,168);fill-rule:nonzero;"/>
            <rect id="path4736-9" x="57.606" y="363.943" width="2.097" height="7.763" style="fill:rgb(158,161,168);fill-rule:nonzero;"/>
        </g>
        <g id="text912" transform="matrix(0.778453,0,0,1,-2.50912,-2.81398)">
            <path id="path914" d="M12.141,20.603L8.891,20.603L8.891,18.158L4.508,18.158L4.508,15.611L8.148,8.541L12.141,8.541L12.141,15.564L13.172,15.564L13.172,18.158L12.141,18.158L12.141,20.603ZM9.039,15.564L9.039,13.306C9.039,13.202 9.044,13.035 9.055,12.806C9.07,12.577 9.091,12.283 9.117,11.923L8.633,12.955C8.393,13.46 8.154,13.931 7.914,14.369C7.674,14.801 7.435,15.199 7.195,15.564L9.039,15.564Z" style="fill:rgb(158,161,168);fill-rule:nonzero;"/>
            <path id="path916" d="M14.492,20.603L14.492,8.541L17.305,8.541C18.914,8.541 20.167,8.973 21.062,9.837C22.24,10.968 22.828,12.548 22.828,14.58C22.828,16.58 22.331,18.124 21.336,19.212C20.487,20.14 19.221,20.603 17.539,20.603L14.492,20.603ZM17.75,17.689C18.917,17.632 19.5,16.626 19.5,14.673C19.5,13.71 19.352,12.949 19.055,12.392C18.758,11.83 18.357,11.548 17.852,11.548L17.75,11.548L17.75,17.689Z" style="fill:rgb(158,161,168);fill-rule:nonzero;"/>
            <path id="path918" d="M30.992,16.892L30.805,20.376C30.081,20.668 29.432,20.814 28.859,20.814C27.51,20.814 26.375,20.319 25.453,19.33C24.422,18.22 23.906,16.65 23.906,14.619C23.906,12.718 24.391,11.192 25.359,10.041C26.328,8.895 27.622,8.322 29.242,8.322C29.768,8.322 30.305,8.421 30.852,8.619L30.852,12.064C30.367,11.58 29.87,11.337 29.359,11.337C28.693,11.337 28.172,11.621 27.797,12.189C27.422,12.762 27.234,13.554 27.234,14.564C27.234,15.054 27.281,15.491 27.375,15.876C27.469,16.262 27.602,16.587 27.773,16.853C27.951,17.119 28.167,17.322 28.422,17.462C28.677,17.603 28.969,17.673 29.297,17.673C29.859,17.673 30.424,17.413 30.992,16.892Z" style="fill:rgb(158,161,168);fill-rule:nonzero;"/>
            <path id="path920" d="M32.273,20.603L32.273,8.541L36.062,8.541C37.479,8.541 38.529,8.853 39.211,9.478C39.904,10.119 40.25,10.947 40.25,11.962C40.25,13.473 39.5,14.291 38,14.416C38.854,14.541 39.479,14.822 39.875,15.259C40.276,15.697 40.477,16.327 40.477,17.15C40.477,18.186 40.141,19.02 39.469,19.65C38.802,20.285 37.924,20.603 36.836,20.603L32.273,20.603ZM35.531,17.986C35.594,17.991 35.648,17.996 35.695,18.001L35.812,18.001C36.219,18.001 36.542,17.895 36.781,17.681C37.026,17.468 37.148,17.181 37.148,16.822C37.148,16.462 37.026,16.181 36.781,15.978C36.542,15.775 36.211,15.673 35.789,15.673L35.531,15.673L35.531,17.986ZM35.531,13.228L35.75,13.228C36.141,13.228 36.448,13.137 36.672,12.955C36.901,12.772 37.016,12.517 37.016,12.189C37.016,11.491 36.633,11.142 35.867,11.142C35.831,11.142 35.784,11.145 35.727,11.15C35.674,11.15 35.609,11.153 35.531,11.158L35.531,13.228Z" style="fill:rgb(158,161,168);fill-rule:nonzero;"/>
        </g>
        <g id="text933" transform="matrix(1.0026,0,0,0.997406,-7.15983,-22)">
            <rect id="path1007" x="18.642" y="50.13" width="1.351" height="10.026" style="fill:rgb(158,161,168);fill-rule:nonzero;"/>
            <path id="path1009" d="M21.551,50.13L22.81,50.13L24.155,54.13C24.544,55.26 24.888,56.466 25.187,57.747C25.079,56.972 24.999,56.271 24.947,55.643C24.895,55.015 24.869,54.424 24.869,53.87L24.869,50.13L26.226,50.13L26.226,60.156L24.96,60.156L23.447,55.643C23.308,55.223 23.176,54.792 23.051,54.351C22.93,53.909 22.817,53.446 22.713,52.961C22.704,52.901 22.689,52.827 22.668,52.74C22.65,52.654 22.629,52.554 22.603,52.442C22.616,52.554 22.626,52.652 22.635,52.734C22.644,52.812 22.65,52.879 22.655,52.935L22.726,53.955L22.797,55.195C22.802,55.264 22.804,55.349 22.804,55.448C22.808,55.548 22.81,55.66 22.81,55.786L22.882,60.156L21.551,60.156L21.551,50.13Z" style="fill:rgb(158,161,168);fill-rule:nonzero;"/>
        </g>
        <g id="text937" transform="matrix(1.01518,0,0,0.985043,-7.15983,-18)">
            <path id="path1000" d="M19.254,90.598C19.254,92.347 19.059,93.589 18.67,94.324C18.281,95.06 17.629,95.427 16.714,95.427C15.752,95.427 15.075,95.032 14.681,94.241C14.292,93.467 14.098,92.093 14.098,90.117C14.098,88.356 14.29,87.11 14.675,86.378C15.064,85.643 15.722,85.275 16.65,85.275C17.48,85.275 18.095,85.56 18.497,86.128C18.762,86.509 18.955,87.05 19.074,87.751C19.194,88.401 19.254,89.35 19.254,90.598L19.254,90.598ZM17.856,90.739C17.856,89.025 17.779,87.888 17.625,87.328C17.471,86.763 17.157,86.481 16.682,86.481C16.208,86.481 15.891,86.74 15.733,87.257C15.579,87.779 15.502,88.826 15.502,90.399C15.502,91.849 15.583,92.854 15.746,93.414C15.913,93.944 16.225,94.209 16.682,94.209C17.131,94.209 17.439,93.961 17.606,93.465C17.772,92.973 17.856,92.065 17.856,90.739L17.856,90.739Z" style="fill:rgb(158,161,168);fill-rule:nonzero;"/>
            <path id="path1002" d="M20.581,85.404L21.89,85.404L21.89,92.4C21.89,93.114 21.954,93.589 22.082,93.824C22.215,94.059 22.475,94.177 22.864,94.177C23.253,94.177 23.51,94.074 23.634,93.869C23.762,93.659 23.826,93.234 23.826,92.593L23.826,85.404L25.135,85.404L25.135,92.593C25.135,93.67 24.97,94.399 24.641,94.78C24.247,95.211 23.647,95.427 22.839,95.427C21.949,95.427 21.323,95.149 20.96,94.594C20.707,94.213 20.581,93.482 20.581,92.4L20.581,85.404Z" style="fill:rgb(158,161,168);fill-rule:nonzero;"/>
            <path id="path1004" d="M25.872,85.404L30.214,85.404L30.214,86.571L28.72,86.571L28.72,95.305L27.411,95.305L27.411,86.571L25.872,86.571L25.872,85.404Z" style="fill:rgb(158,161,168);fill-rule:nonzero;"/>
        </g>
        <g id="text941" transform="matrix(1.0026,0,0,0.997406,-7.15983,-22)">
            <rect id="path995" x="18.642" y="134.349" width="1.351" height="10.026" style="fill:rgb(158,161,168);fill-rule:nonzero;"/>
            <path id="path997" d="M21.551,134.349L22.81,134.349L24.155,138.349C24.544,139.478 24.888,140.684 25.187,141.965C25.079,141.191 24.999,140.489 24.947,139.862C24.895,139.234 24.869,138.643 24.869,138.089L24.869,134.349L26.226,134.349L26.226,144.375L24.96,144.375L23.447,139.862C23.308,139.442 23.176,139.011 23.051,138.569C22.93,138.128 22.817,137.665 22.713,137.18C22.704,137.119 22.689,137.045 22.668,136.959C22.65,136.872 22.629,136.773 22.603,136.66C22.616,136.773 22.626,136.87 22.635,136.952C22.644,137.03 22.65,137.097 22.655,137.154L22.726,138.173L22.797,139.413C22.802,139.483 22.804,139.567 22.804,139.667C22.808,139.766 22.81,139.879 22.81,140.004L22.882,144.375L21.551,144.375L21.551,134.349Z" style="fill:rgb(158,161,168);fill-rule:nonzero;"/>
        </g>
        <g id="text945" transform="matrix(1.01518,0,0,0.985043,-7.15983,-18)">
            <path id="path988" d="M19.254,175.874C19.254,177.622 19.059,178.864 18.67,179.6C18.281,180.335 17.629,180.703 16.714,180.703C15.752,180.703 15.075,180.307 14.681,179.516C14.292,178.742 14.098,177.368 14.098,175.393C14.098,173.631 14.29,172.385 14.675,171.654C15.064,170.918 15.722,170.551 16.65,170.551C17.48,170.551 18.095,170.835 18.497,171.404C18.762,171.784 18.955,172.325 19.074,173.026C19.194,173.676 19.254,174.625 19.254,175.874L19.254,175.874ZM17.856,176.015C17.856,174.3 17.779,173.163 17.625,172.603C17.471,172.039 17.157,171.756 16.682,171.756C16.208,171.756 15.891,172.015 15.733,172.532C15.579,173.054 15.502,174.101 15.502,175.675C15.502,177.124 15.583,178.129 15.746,178.689C15.913,179.219 16.225,179.484 16.682,179.484C17.131,179.484 17.439,179.236 17.606,178.74C17.772,178.249 17.856,177.34 17.856,176.015L17.856,176.015Z" style="fill:rgb(158,161,168);fill-rule:nonzero;"/>
            <path id="path990" d="M20.581,170.679L21.89,170.679L21.89,177.676C21.89,178.39 21.954,178.864 22.082,179.099C22.215,179.335 22.475,179.452 22.864,179.452C23.253,179.452 23.51,179.349 23.634,179.144C23.762,178.935 23.826,178.509 23.826,177.868L23.826,170.679L25.135,170.679L25.135,177.868C25.135,178.945 24.97,179.674 24.641,180.055C24.247,180.487 23.647,180.703 22.839,180.703C21.949,180.703 21.323,180.425 20.96,179.869C20.707,179.488 20.581,178.757 20.581,177.676L20.581,170.679Z" style="fill:rgb(158,161,168);fill-rule:nonzero;"/>
            <path id="path992" d="M25.872,170.679L30.214,170.679L30.214,171.846L28.72,171.846L28.72,180.581L27.411,180.581L27.411,171.846L25.872,171.846L25.872,170.679Z" style="fill:rgb(158,161,168);fill-rule:nonzero;"/>
        </g>
        <g id="text950" transform="matrix(1.0026,0,0,0.997406,-7.15983,-12)">
            <rect id="path983" x="18.642" y="208.541" width="1.351" height="10.026" style="fill:rgb(158,161,168);fill-rule:nonzero;"/>
            <path id="path985" d="M21.551,208.541L22.81,208.541L24.155,212.541C24.544,213.671 24.888,214.877 25.187,216.158C25.079,215.383 24.999,214.682 24.947,214.054C24.895,213.426 24.869,212.836 24.869,212.281L24.869,208.541L26.226,208.541L26.226,218.567L24.96,218.567L23.447,214.054C23.308,213.634 23.176,213.204 23.051,212.762C22.93,212.32 22.817,211.857 22.713,211.372C22.704,211.312 22.689,211.238 22.668,211.152C22.65,211.065 22.629,210.965 22.603,210.853C22.616,210.965 22.626,211.063 22.635,211.145C22.644,211.223 22.65,211.29 22.655,211.346L22.726,212.366L22.797,213.606C22.802,213.675 22.804,213.76 22.804,213.859C22.808,213.959 22.81,214.072 22.81,214.197L22.882,218.567L21.551,218.567L21.551,208.541Z" style="fill:rgb(158,161,168);fill-rule:nonzero;"/>
        </g>
        <g id="text954" transform="matrix(1.01518,0,0,0.985043,-7.15983,-8)">
            <path id="path976" d="M19.254,250.997C19.254,252.746 19.059,253.988 18.67,254.723C18.281,255.458 17.629,255.826 16.714,255.826C15.752,255.826 15.075,255.431 14.681,254.64C14.292,253.866 14.098,252.491 14.098,250.516C14.098,248.755 14.29,247.508 14.675,246.777C15.064,246.042 15.722,245.674 16.65,245.674C17.48,245.674 18.095,245.959 18.497,246.527C18.762,246.908 18.955,247.449 19.074,248.15C19.194,248.8 19.254,249.749 19.254,250.997L19.254,250.997ZM17.856,251.138C17.856,249.424 17.779,248.287 17.625,247.727C17.471,247.162 17.157,246.88 16.682,246.88C16.208,246.88 15.891,247.139 15.733,247.656C15.579,248.178 15.502,249.225 15.502,250.798C15.502,252.248 15.583,253.252 15.746,253.812C15.913,254.343 16.225,254.608 16.682,254.608C17.131,254.608 17.439,254.36 17.606,253.864C17.772,253.372 17.856,252.464 17.856,251.138L17.856,251.138Z" style="fill:rgb(158,161,168);fill-rule:nonzero;"/>
            <path id="path978" d="M20.581,245.803L21.89,245.803L21.89,252.799C21.89,253.513 21.954,253.988 22.082,254.223C22.215,254.458 22.475,254.576 22.864,254.576C23.253,254.576 23.51,254.473 23.634,254.268C23.762,254.058 23.826,253.633 23.826,252.992L23.826,245.803L25.135,245.803L25.135,252.992C25.135,254.069 24.97,254.798 24.641,255.178C24.247,255.61 23.647,255.826 22.839,255.826C21.949,255.826 21.323,255.548 20.96,254.992C20.707,254.612 20.581,253.881 20.581,252.799L20.581,245.803Z" style="fill:rgb(158,161,168);fill-rule:nonzero;"/>
            <path id="path980" d="M25.872,245.803L30.214,245.803L30.214,246.97L28.72,246.97L28.72,255.704L27.411,255.704L27.411,246.97L25.872,246.97L25.872,245.803Z" style="fill:rgb(158,161,168);fill-rule:nonzero;"/>
        </g>
        <g id="text958" transform="matrix(1.0026,0,0,0.997406,-7.15983,-2)">
            <rect id="path971" x="18.642" y="282.733" width="1.351" height="10.026" style="fill:rgb(158,161,168);fill-rule:nonzero;"/>
            <path id="path973" d="M21.551,282.733L22.81,282.733L24.155,286.733C24.544,287.863 24.888,289.069 25.187,290.35C25.079,289.575 24.999,288.874 24.947,288.246C24.895,287.619 24.869,287.028 24.869,286.474L24.869,282.733L26.226,282.733L26.226,292.759L24.96,292.759L23.447,288.246C23.308,287.827 23.176,287.396 23.051,286.954C22.93,286.513 22.817,286.049 22.713,285.565C22.704,285.504 22.689,285.43 22.668,285.344C22.65,285.257 22.629,285.158 22.603,285.045C22.616,285.158 22.626,285.255 22.635,285.337C22.644,285.415 22.65,285.482 22.655,285.539L22.726,286.558L22.797,287.798C22.802,287.868 22.804,287.952 22.804,288.052C22.808,288.151 22.81,288.264 22.81,288.389L22.882,292.759L21.551,292.759L21.551,282.733Z" style="fill:rgb(158,161,168);fill-rule:nonzero;"/>
        </g>
        <g id="text962" transform="matrix(1.01518,0,0,0.985043,-7.15983,2)">
            <path id="path964" d="M19.254,326.121C19.254,327.869 19.059,329.111 18.67,329.847C18.281,330.582 17.629,330.95 16.714,330.95C15.752,330.95 15.075,330.554 14.681,329.763C14.292,328.989 14.098,327.615 14.098,325.64C14.098,323.878 14.29,322.632 14.675,321.901C15.064,321.166 15.722,320.798 16.65,320.798C17.48,320.798 18.095,321.082 18.497,321.651C18.762,322.031 18.955,322.572 19.074,323.273C19.194,323.923 19.254,324.872 19.254,326.121L19.254,326.121ZM17.856,326.262C17.856,324.547 17.779,323.41 17.625,322.85C17.471,322.286 17.157,322.004 16.682,322.004C16.208,322.004 15.891,322.262 15.733,322.779C15.579,323.301 15.502,324.349 15.502,325.922C15.502,327.371 15.583,328.376 15.746,328.936C15.913,329.466 16.225,329.731 16.682,329.731C17.131,329.731 17.439,329.483 17.606,328.987C17.772,328.496 17.856,327.587 17.856,326.262L17.856,326.262Z" style="fill:rgb(158,161,168);fill-rule:nonzero;"/>
            <path id="path966" d="M20.581,320.926L21.89,320.926L21.89,327.923C21.89,328.637 21.954,329.111 22.082,329.346C22.215,329.582 22.475,329.699 22.864,329.699C23.253,329.699 23.51,329.597 23.634,329.391C23.762,329.182 23.826,328.756 23.826,328.115L23.826,320.926L25.135,320.926L25.135,328.115C25.135,329.193 24.97,329.921 24.641,330.302C24.247,330.734 23.647,330.95 22.839,330.95C21.949,330.95 21.323,330.672 20.96,330.116C20.707,329.735 20.581,329.004 20.581,327.923L20.581,320.926Z" style="fill:rgb(158,161,168);fill-rule:nonzero;"/>
            <path id="path968" d="M25.872,320.926L30.214,320.926L30.214,322.093L28.72,322.093L28.72,330.828L27.411,330.828L27.411,322.093L25.872,322.093L25.872,320.926Z" style="fill:rgb(158,161,168);fill-rule:nonzero;"/>
        </g>
    </g>
</svg>
