<?xml version="1.0" encoding="UTF-8" standalone="no"?>
<!DOCTYPE svg PUBLIC "-//W3C//DTD SVG 1.1//EN" "http://www.w3.org/Graphics/SVG/1.1/DTD/svg11.dtd">
<svg width="100%" height="100%" viewBox="0 0 360 380" version="1.1" xmlns="http://www.w3.org/2000/svg" xmlns:xlink="http://www.w3.org/1999/xlink" xml:space="preserve" xmlns:serif="http://www.serif.com/" style="fill-rule:evenodd;clip-rule:evenodd;stroke-linejoin:round;stroke-miterlimit:2;">
    <g id="Layer-2" serif:id="Layer 2">
        <g id="text989">
        </g>
        <rect id="rect4689" x="0.05" y="0" width="360" height="380" style="fill:rgb(44,45,48);"/>
        <g id="text80" transform="matrix(1.00498,0,0,0.995047,135.05,4.99997)">
            <path id="path4726" d="M29.851,371.706L29.851,363.943L31.853,363.943L32.903,366.668C32.96,366.829 33.024,367.013 33.095,367.221C33.168,367.429 33.249,367.668 33.336,367.94L33.552,368.624C33.475,367.95 33.416,367.373 33.376,366.894C33.336,366.415 33.316,366.013 33.316,365.687L33.316,363.943L35.317,363.943L35.317,371.706L33.316,371.706L32.26,368.85C32.149,368.545 32.049,368.26 31.958,367.995C31.871,367.727 31.794,367.472 31.727,367.231C31.77,367.777 31.802,368.253 31.822,368.659C31.843,369.065 31.853,369.42 31.853,369.725L31.853,371.706L29.851,371.706Z" style="fill:rgb(158,161,168);fill-rule:nonzero;"/>
            <path id="path4728" d="M39.887,371.706L37.791,371.706L37.791,368.418L35.865,363.943L38.052,363.943L38.429,365.094C38.503,365.319 38.568,365.535 38.625,365.743C38.686,365.951 38.739,366.15 38.786,366.341C38.863,366.056 38.93,365.811 38.987,365.607C39.044,365.399 39.095,365.232 39.138,365.104L39.52,363.943L41.692,363.943L39.887,368.418L39.887,371.706Z" style="fill:rgb(158,161,168);fill-rule:nonzero;"/>
            <path id="path4730" d="M41.894,371.515L41.894,369.076C42.306,369.639 42.752,369.921 43.231,369.921C43.412,369.921 43.56,369.874 43.673,369.78C43.787,369.683 43.844,369.562 43.844,369.418C43.844,369.21 43.72,369.008 43.472,368.81L43.13,368.543C42.903,368.372 42.708,368.203 42.547,368.035C42.386,367.865 42.256,367.69 42.155,367.513C42.054,367.332 41.981,367.146 41.934,366.954C41.887,366.763 41.863,366.562 41.863,366.351C41.863,365.989 41.947,365.61 42.115,365.215C42.199,365.03 42.296,364.863 42.406,364.712C42.517,364.558 42.644,364.422 42.789,364.305C43.184,363.969 43.662,363.802 44.222,363.802C44.721,363.802 45.224,363.934 45.73,364.199L45.73,366.572C45.559,366.308 45.365,366.1 45.147,365.949C44.929,365.795 44.714,365.718 44.503,365.718C44.342,365.718 44.21,365.765 44.106,365.858C43.999,365.949 43.945,366.058 43.945,366.185C43.945,366.393 44.087,366.599 44.372,366.804L44.704,367.05C45.147,367.368 45.463,367.695 45.655,368.03C45.849,368.366 45.946,368.758 45.946,369.207C45.946,369.971 45.713,370.601 45.247,371.098C44.781,371.594 44.191,371.842 43.477,371.842C42.985,371.842 42.457,371.733 41.894,371.515L41.894,371.515Z" style="fill:rgb(158,161,168);fill-rule:nonzero;"/>
            <path id="path4732" d="M49.576,371.706L47.48,371.706L47.48,365.803L46.323,365.803L46.323,363.943L50.778,363.943L50.778,365.803L49.576,365.803L49.576,371.706Z" style="fill:rgb(158,161,168);fill-rule:nonzero;"/>
            <path id="path4734" d="M56.525,371.706L54.428,371.706L54.428,368.584L53.428,368.584L53.428,371.706L51.331,371.706L51.331,363.943L53.428,363.943L53.428,366.688L54.428,366.688L54.428,363.943L56.525,363.943L56.525,371.706Z" style="fill:rgb(158,161,168);fill-rule:nonzero;"/>
            <rect id="path4736" x="57.606" y="363.943" width="2.097" height="7.763" style="fill:rgb(158,161,168);fill-rule:nonzero;"/>
        </g>
        <g id="text4987">
        </g>
        <g id="text1042">
        </g>
        <g id="text910" transform="matrix(0.580127,0,0,0.980314,0.61111,73.0096)">
            <path id="path1013" d="M2.394,280.512L3.726,280.512L3.726,287.633C3.726,288.359 3.791,288.842 3.921,289.082C4.056,289.321 4.322,289.441 4.718,289.441C5.113,289.441 5.375,289.336 5.501,289.127C5.631,288.914 5.696,288.481 5.696,287.829L5.696,280.512L7.028,280.512L7.028,287.829C7.028,288.925 6.86,289.667 6.525,290.054C6.125,290.493 5.514,290.713 4.691,290.713C3.786,290.713 3.149,290.43 2.779,289.865C2.522,289.478 2.394,288.734 2.394,287.633L2.394,280.512Z" style="fill:rgb(158,161,168);fill-rule:nonzero;"/>
            <path id="path1015" d="M8.581,280.512L9.847,280.512L11.198,284.533C11.59,285.668 11.936,286.88 12.236,288.168C12.127,287.389 12.047,286.684 11.994,286.053C11.942,285.422 11.916,284.829 11.916,284.272L11.916,280.512L13.28,280.512L13.28,290.589L12.008,290.589L10.487,286.053C10.348,285.631 10.215,285.198 10.089,284.755C9.967,284.311 9.854,283.845 9.749,283.358C9.741,283.297 9.725,283.223 9.704,283.136C9.686,283.049 9.665,282.949 9.638,282.836C9.652,282.949 9.662,283.047 9.671,283.13C9.68,283.208 9.686,283.275 9.691,283.332L9.762,284.356L9.834,285.603C9.839,285.673 9.841,285.757 9.841,285.858C9.845,285.958 9.847,286.071 9.847,286.197L9.919,290.589L8.581,290.589L8.581,280.512Z" style="fill:rgb(158,161,168);fill-rule:nonzero;"/>
            <rect id="path1017" x="14.847" y="280.512" width="1.357" height="10.077" style="fill:rgb(158,161,168);fill-rule:nonzero;"/>
            <path id="path1019" d="M16.968,280.512L21.386,280.512L21.386,281.7L19.865,281.7L19.865,290.589L18.534,290.589L18.534,281.7L16.968,281.7L16.968,280.512Z" style="fill:rgb(158,161,168);fill-rule:nonzero;"/>
            <path id="path1021" d="M21.928,280.512L23.364,280.512L24.029,282.705C24.051,282.771 24.073,282.842 24.094,282.921C24.116,282.999 24.142,283.084 24.173,283.175C24.421,283.967 24.591,284.633 24.682,285.172C24.76,284.633 24.825,284.256 24.878,284.043L25.087,283.143L25.165,282.79L25.726,280.512L27.142,280.512L25.387,286.256L25.387,290.589L24.029,290.589L24.029,286.256L21.928,280.512Z" style="fill:rgb(158,161,168);fill-rule:nonzero;"/>
            <path id="path1023" d="M31.143,280.512L32.305,280.512L33.192,284.624C33.301,285.137 33.399,285.653 33.486,286.171C33.577,286.684 33.66,287.224 33.734,287.789C33.743,287.715 33.749,287.659 33.754,287.62C33.758,287.576 33.762,287.546 33.767,287.528L33.956,286.373L34.126,285.277L34.276,284.552L35.065,280.512L36.24,280.512L37.167,290.589L35.868,290.589L35.64,287.169C35.631,286.995 35.622,286.845 35.614,286.719C35.609,286.593 35.607,286.488 35.607,286.406L35.548,285.055L35.516,283.815C35.516,283.806 35.514,283.789 35.509,283.763C35.509,283.732 35.507,283.693 35.503,283.645L35.47,283.847C35.435,284.087 35.403,284.296 35.372,284.474C35.346,284.652 35.322,284.802 35.3,284.924L35.131,285.845L35.065,286.19L34.217,290.589L33.303,290.589L32.507,286.791C32.398,286.29 32.3,285.784 32.213,285.27C32.131,284.752 32.055,284.211 31.985,283.645L31.593,290.589L30.314,290.589L31.143,280.512Z" style="fill:rgb(158,161,168);fill-rule:nonzero;"/>
            <rect id="path1025" x="38.289" y="280.512" width="1.357" height="10.077" style="fill:rgb(158,161,168);fill-rule:nonzero;"/>
            <path id="path1027" d="M40.528,280.512L41.846,280.512L42.545,282.464C42.819,283.234 42.982,283.797 43.034,284.154C43.082,283.932 43.134,283.717 43.191,283.508C43.252,283.299 43.315,283.09 43.38,282.882L43.471,282.588L44.118,280.512L45.488,280.512L43.622,285.473L45.488,290.589L44.118,290.589L43.452,288.67C43.317,288.288 43.208,287.944 43.126,287.639C43.043,287.335 42.984,287.065 42.949,286.83C42.915,287.122 42.856,287.4 42.773,287.665L42.545,288.383L42.427,288.762L41.846,290.589L40.411,290.589L42.316,285.473L40.528,280.512Z" style="fill:rgb(158,161,168);fill-rule:nonzero;"/>
        </g>
        <g id="text918" transform="matrix(0.713861,0,0,0.967929,0.290938,77.0165)">
            <path id="path1000" d="M2.394,260.463L6.003,260.463L6.003,261.612L3.752,261.612L3.752,264.803L5.749,264.803L5.749,265.952L3.752,265.952L3.752,269.391L6.003,269.391L6.003,270.54L2.394,270.54L2.394,260.463Z" style="fill:rgb(158,161,168);fill-rule:nonzero;"/>
            <path id="path1002" d="M7.25,260.463L8.516,260.463L9.867,264.484C10.258,265.619 10.604,266.831 10.905,268.119C10.796,267.34 10.715,266.635 10.663,266.004C10.611,265.373 10.585,264.779 10.585,264.222L10.585,260.463L11.949,260.463L11.949,270.54L10.676,270.54L9.155,266.004C9.016,265.582 8.884,265.149 8.757,264.705C8.636,264.262 8.522,263.796 8.418,263.309C8.409,263.248 8.394,263.174 8.372,263.087C8.355,263 8.333,262.9 8.307,262.787C8.32,262.9 8.331,262.998 8.34,263.08C8.348,263.159 8.355,263.226 8.359,263.283L8.431,264.307L8.503,265.554C8.507,265.623 8.509,265.708 8.509,265.808C8.514,265.908 8.516,266.022 8.516,266.148L8.588,270.54L7.25,270.54L7.25,260.463Z" style="fill:rgb(158,161,168);fill-rule:nonzero;"/>
            <path id="path1004" d="M12.712,260.463L14.05,260.463L14.657,264.183L14.762,264.856L14.977,266.317C15.012,266.565 15.042,266.792 15.068,266.996C15.099,267.201 15.125,267.386 15.147,267.551L15.212,268.047C15.225,267.947 15.236,267.858 15.245,267.779C15.253,267.701 15.262,267.636 15.271,267.584L15.447,266.415L15.675,264.882C15.697,264.742 15.717,264.614 15.734,264.497C15.756,264.379 15.775,264.275 15.793,264.183L16.446,260.463L17.712,260.463L15.734,270.54L14.657,270.54L12.712,260.463Z" style="fill:rgb(158,161,168);fill-rule:nonzero;"/>
            <path id="path1006" d="M26.261,265.75C26.261,267.529 26.063,268.793 25.667,269.542C25.271,270.29 24.608,270.664 23.677,270.664C22.698,270.664 22.008,270.262 21.608,269.457C21.212,268.669 21.014,267.27 21.014,265.26C21.014,263.468 21.21,262.199 21.601,261.455C21.997,260.707 22.667,260.333 23.612,260.333C24.456,260.333 25.082,260.622 25.491,261.201C25.761,261.588 25.957,262.138 26.079,262.852C26.2,263.513 26.261,264.479 26.261,265.75ZM24.839,265.893C24.839,264.149 24.76,262.991 24.604,262.421C24.447,261.847 24.127,261.56 23.644,261.56C23.161,261.56 22.839,261.823 22.678,262.349C22.522,262.88 22.443,263.946 22.443,265.547C22.443,267.022 22.526,268.045 22.691,268.615C22.861,269.154 23.179,269.424 23.644,269.424C24.101,269.424 24.414,269.172 24.584,268.667C24.754,268.167 24.839,267.242 24.839,265.893L24.839,265.893Z" style="fill:rgb(158,161,168);fill-rule:nonzero;"/>
            <path id="path1008" d="M27.612,260.463L28.944,260.463L28.944,267.584C28.944,268.31 29.009,268.793 29.139,269.032C29.274,269.272 29.54,269.391 29.936,269.391C30.332,269.391 30.593,269.287 30.719,269.078C30.849,268.865 30.915,268.432 30.915,267.779L30.915,260.463L32.246,260.463L32.246,267.779C32.246,268.876 32.078,269.618 31.743,270.005C31.343,270.444 30.732,270.664 29.91,270.664C29.005,270.664 28.367,270.381 27.997,269.816C27.741,269.428 27.612,268.684 27.612,267.584L27.612,260.463Z" style="fill:rgb(158,161,168);fill-rule:nonzero;"/>
            <path id="path1010" d="M32.997,260.463L37.415,260.463L37.415,261.651L35.894,261.651L35.894,270.54L34.563,270.54L34.563,261.651L32.997,261.651L32.997,260.463Z" style="fill:rgb(158,161,168);fill-rule:nonzero;"/>
        </g>
        <g id="text922" transform="matrix(0.702472,0,0,0.967318,0.318206,77.5758)">
            <path id="path987" d="M2.394,240.414L3.732,240.414L4.339,244.134L4.443,244.806L4.659,246.268C4.694,246.516 4.724,246.743 4.75,246.947C4.781,247.152 4.807,247.336 4.828,247.502L4.894,247.998C4.907,247.898 4.918,247.808 4.926,247.73C4.935,247.652 4.944,247.587 4.952,247.534L5.129,246.366L5.357,244.832C5.379,244.693 5.398,244.565 5.416,244.447C5.438,244.33 5.457,244.226 5.475,244.134L6.127,240.414L7.393,240.414L5.416,250.491L4.339,250.491L2.394,240.414Z" style="fill:rgb(158,161,168);fill-rule:nonzero;"/>
            <path id="path989" d="M12.06,240.577L12.06,241.798C11.712,241.628 11.42,241.543 11.185,241.543C10.863,241.543 10.587,241.624 10.356,241.785C10.126,241.941 9.934,242.185 9.782,242.516C9.634,242.846 9.523,243.266 9.449,243.775C9.38,244.28 9.345,244.878 9.345,245.57C9.345,248.059 9.982,249.303 11.257,249.303C11.479,249.303 11.746,249.233 12.06,249.094L12.06,250.341C11.733,250.523 11.368,250.615 10.963,250.615C8.923,250.615 7.902,248.948 7.902,245.616C7.902,243.814 8.15,242.474 8.646,241.595C9.147,240.716 9.91,240.277 10.937,240.277C11.316,240.277 11.69,240.377 12.06,240.577L12.06,240.577Z" style="fill:rgb(158,161,168);fill-rule:nonzero;"/>
            <path id="path991" d="M14.997,240.414L16.054,240.414L18.214,250.491L16.87,250.491L16.491,248.526L14.494,248.526L14.109,250.491L12.804,250.491L14.997,240.414ZM16.295,247.476L15.995,245.87C15.795,244.778 15.632,243.612 15.506,242.372C15.445,242.977 15.366,243.59 15.271,244.212C15.175,244.83 15.062,245.487 14.931,246.183L14.683,247.476L16.295,247.476Z" style="fill:rgb(158,161,168);fill-rule:nonzero;"/>
            <path id="path993" d="M26.829,245.7C26.829,247.48 26.631,248.744 26.235,249.492C25.839,250.241 25.176,250.615 24.245,250.615C23.266,250.615 22.576,250.212 22.176,249.407C21.78,248.62 21.582,247.221 21.582,245.211C21.582,243.418 21.778,242.15 22.169,241.406C22.565,240.658 23.235,240.284 24.179,240.284C25.023,240.284 25.65,240.573 26.059,241.152C26.329,241.539 26.525,242.089 26.646,242.803C26.768,243.464 26.829,244.43 26.829,245.7ZM25.406,245.844C25.406,244.099 25.328,242.942 25.171,242.372C25.015,241.798 24.695,241.511 24.212,241.511C23.729,241.511 23.407,241.774 23.246,242.3C23.089,242.831 23.011,243.897 23.011,245.498C23.011,246.973 23.094,247.996 23.259,248.566C23.429,249.105 23.746,249.375 24.212,249.375C24.669,249.375 24.982,249.122 25.152,248.618C25.321,248.117 25.406,247.193 25.406,245.844L25.406,245.844Z" style="fill:rgb(158,161,168);fill-rule:nonzero;"/>
            <path id="path995" d="M28.18,240.414L29.511,240.414L29.511,247.534C29.511,248.261 29.577,248.744 29.707,248.983C29.842,249.223 30.108,249.342 30.503,249.342C30.899,249.342 31.16,249.238 31.287,249.029C31.417,248.816 31.482,248.383 31.482,247.73L31.482,240.414L32.814,240.414L32.814,247.73C32.814,248.827 32.646,249.568 32.311,249.956C31.911,250.395 31.3,250.615 30.477,250.615C29.572,250.615 28.935,250.332 28.565,249.766C28.308,249.379 28.18,248.635 28.18,247.534L28.18,240.414Z" style="fill:rgb(158,161,168);fill-rule:nonzero;"/>
            <path id="path997" d="M33.564,240.414L37.983,240.414L37.983,241.602L36.462,241.602L36.462,250.491L35.131,250.491L35.131,241.602L33.564,241.602L33.564,240.414Z" style="fill:rgb(158,161,168);fill-rule:nonzero;"/>
        </g>
        <g id="text926" transform="matrix(0.925484,0,0,0.967318,-0.21571,77.9697)">
            <path id="path976" d="M2.394,220.365L3.732,220.365L4.339,224.085L4.443,224.757L4.659,226.219C4.694,226.467 4.724,226.693 4.75,226.898C4.781,227.102 4.807,227.287 4.828,227.453L4.894,227.949C4.907,227.848 4.918,227.759 4.926,227.681C4.935,227.603 4.944,227.537 4.952,227.485L5.129,226.317L5.357,224.783C5.379,224.644 5.398,224.516 5.416,224.398C5.438,224.281 5.457,224.176 5.475,224.085L6.127,220.365L7.393,220.365L5.416,230.442L4.339,230.442L2.394,220.365Z" style="fill:rgb(158,161,168);fill-rule:nonzero;"/>
            <path id="path978" d="M12.06,220.528L12.06,221.748C11.712,221.579 11.42,221.494 11.185,221.494C10.863,221.494 10.587,221.574 10.356,221.735C10.126,221.892 9.934,222.136 9.782,222.466C9.634,222.797 9.523,223.217 9.449,223.726C9.38,224.231 9.345,224.829 9.345,225.521C9.345,228.009 9.982,229.254 11.257,229.254C11.479,229.254 11.746,229.184 12.06,229.045L12.06,230.292C11.733,230.474 11.368,230.566 10.963,230.566C8.923,230.566 7.902,228.899 7.902,225.566C7.902,223.765 8.15,222.425 8.646,221.546C9.147,220.667 9.91,220.228 10.937,220.228C11.316,220.228 11.69,220.328 12.06,220.528L12.06,220.528Z" style="fill:rgb(158,161,168);fill-rule:nonzero;"/>
            <path id="path980" d="M14.997,220.365L16.054,220.365L18.214,230.442L16.87,230.442L16.491,228.477L14.494,228.477L14.109,230.442L12.804,230.442L14.997,220.365ZM16.295,227.426L15.995,225.821C15.795,224.729 15.632,223.563 15.506,222.323C15.445,222.928 15.366,223.541 15.271,224.163C15.175,224.781 15.062,225.438 14.931,226.134L14.683,227.426L16.295,227.426Z" style="fill:rgb(158,161,168);fill-rule:nonzero;"/>
            <rect id="path982" x="21.784" y="220.365" width="1.357" height="10.077" style="fill:rgb(158,161,168);fill-rule:nonzero;"/>
            <path id="path984" d="M24.708,220.365L25.974,220.365L27.325,224.385C27.717,225.521 28.063,226.732 28.363,228.02C28.254,227.242 28.174,226.537 28.121,225.906C28.069,225.275 28.043,224.681 28.043,224.124L28.043,220.365L29.407,220.365L29.407,230.442L28.134,230.442L26.614,225.906C26.474,225.484 26.342,225.051 26.216,224.607C26.094,224.163 25.981,223.698 25.876,223.21C25.868,223.149 25.852,223.076 25.831,222.988C25.813,222.901 25.791,222.801 25.765,222.688C25.778,222.801 25.789,222.899 25.798,222.982C25.807,223.06 25.813,223.128 25.817,223.184L25.889,224.209L25.961,225.456C25.965,225.525 25.968,225.61 25.968,225.71C25.972,225.81 25.974,225.923 25.974,226.049L26.046,230.442L24.708,230.442L24.708,220.365Z" style="fill:rgb(158,161,168);fill-rule:nonzero;"/>
        </g>
        <g id="text1057" transform="matrix(1.03111,0,0,0.967314,-0.468594,15.253)">
            <path id="path1110" d="M6.055,108.632L6.055,109.957C5.642,109.661 5.27,109.513 4.939,109.513C4.583,109.513 4.291,109.64 4.065,109.892C3.839,110.131 3.726,110.451 3.726,110.851C3.726,111.204 3.806,111.506 3.967,111.759C4.05,111.893 4.185,112.067 4.372,112.281C4.563,112.494 4.809,112.751 5.109,113.051C5.662,113.612 6.038,114.097 6.238,114.506C6.438,114.902 6.538,115.387 6.538,115.962C6.538,116.74 6.319,117.382 5.879,117.887C5.44,118.379 4.876,118.624 4.189,118.624C3.61,118.624 3.116,118.466 2.707,118.148L2.707,116.803C3.19,117.156 3.63,117.332 4.026,117.332C4.396,117.332 4.685,117.21 4.894,116.967C5.103,116.719 5.207,116.384 5.207,115.962C5.207,115.596 5.127,115.268 4.966,114.976C4.883,114.837 4.768,114.678 4.62,114.5C4.472,114.317 4.287,114.115 4.065,113.893C3.721,113.553 3.436,113.253 3.21,112.992C2.984,112.731 2.816,112.503 2.707,112.307C2.499,111.924 2.394,111.441 2.394,110.858C2.394,110.07 2.599,109.446 3.008,108.985C3.421,108.519 3.976,108.286 4.672,108.286C5.155,108.286 5.616,108.402 6.055,108.632L6.055,108.632Z" style="fill:rgb(158,161,168);fill-rule:nonzero;"/>
            <path id="path1112" d="M11.636,108.587L11.636,109.807C11.287,109.637 10.996,109.553 10.761,109.553C10.439,109.553 10.163,109.633 9.932,109.794C9.702,109.951 9.51,110.194 9.358,110.525C9.21,110.856 9.099,111.276 9.025,111.785C8.955,112.289 8.921,112.888 8.921,113.579C8.921,116.068 9.558,117.313 10.833,117.313C11.055,117.313 11.322,117.243 11.636,117.104L11.636,118.35C11.309,118.533 10.944,118.624 10.539,118.624C8.499,118.624 7.478,116.958 7.478,113.625C7.478,111.824 7.726,110.484 8.222,109.605C8.723,108.726 9.486,108.286 10.513,108.286C10.892,108.286 11.266,108.387 11.636,108.587L11.636,108.587Z" style="fill:rgb(158,161,168);fill-rule:nonzero;"/>
            <path id="path1114" d="M14.572,108.424L15.63,108.424L17.79,118.5L16.446,118.5L16.067,116.536L14.07,116.536L13.685,118.5L12.38,118.5L14.572,108.424ZM15.871,115.485L15.571,113.88C15.371,112.788 15.208,111.622 15.081,110.381C15.021,110.986 14.942,111.6 14.847,112.222C14.751,112.84 14.638,113.497 14.507,114.193L14.259,115.485L15.871,115.485Z" style="fill:rgb(158,161,168);fill-rule:nonzero;"/>
            <path id="path1116" d="M18.593,108.424L19.95,108.424L19.95,117.352L22.169,117.352L22.169,118.5L18.593,118.5L18.593,108.424Z" style="fill:rgb(158,161,168);fill-rule:nonzero;"/>
            <path id="path1118" d="M23.031,108.424L26.64,108.424L26.64,109.572L24.388,109.572L24.388,112.764L26.385,112.764L26.385,113.912L24.388,113.912L24.388,117.352L26.64,117.352L26.64,118.5L23.031,118.5L23.031,108.424Z" style="fill:rgb(158,161,168);fill-rule:nonzero;"/>
        </g>
        <g id="text1069" transform="matrix(0.839303,0,0,0.967318,-0.00938317,-21.5657)">
            <path id="path1071" d="M4.587,48.276L5.644,48.276L7.805,58.353L6.46,58.353L6.082,56.388L4.084,56.388L3.699,58.353L2.394,58.353L4.587,48.276ZM5.886,55.338L5.586,53.732C5.385,52.64 5.222,51.474 5.096,50.234C5.035,50.839 4.957,51.452 4.861,52.074C4.765,52.692 4.652,53.349 4.522,54.045L4.274,55.338L5.886,55.338Z" style="fill:rgb(158,161,168);fill-rule:nonzero;"/>
            <path id="path1073" d="M7.596,48.276L12.014,48.276L12.014,49.464L10.493,49.464L10.493,58.353L9.162,58.353L9.162,49.464L7.596,49.464L7.596,48.276Z" style="fill:rgb(158,161,168);fill-rule:nonzero;"/>
            <path id="path1075" d="M11.955,48.276L16.374,48.276L16.374,49.464L14.853,49.464L14.853,58.353L13.522,58.353L13.522,49.464L11.955,49.464L11.955,48.276Z" style="fill:rgb(158,161,168);fill-rule:nonzero;"/>
            <path id="path1077" d="M18.371,48.276L19.428,48.276L21.588,58.353L20.244,58.353L19.865,56.388L17.868,56.388L17.483,58.353L16.178,58.353L18.371,48.276ZM19.67,55.338L19.369,53.732C19.169,52.64 19.006,51.474 18.88,50.234C18.819,50.839 18.741,51.452 18.645,52.074C18.549,52.692 18.436,53.349 18.306,54.045L18.058,55.338L19.67,55.338Z" style="fill:rgb(158,161,168);fill-rule:nonzero;"/>
            <path id="path1079" d="M26.268,48.439L26.268,49.66C25.92,49.49 25.628,49.405 25.393,49.405C25.071,49.405 24.795,49.486 24.564,49.647C24.334,49.803 24.142,50.047 23.99,50.378C23.842,50.708 23.731,51.128 23.657,51.637C23.588,52.142 23.553,52.74 23.553,53.432C23.553,55.921 24.19,57.165 25.465,57.165C25.687,57.165 25.955,57.095 26.268,56.956L26.268,58.203C25.941,58.385 25.576,58.477 25.171,58.477C23.131,58.477 22.11,56.81 22.11,53.478C22.11,51.676 22.358,50.336 22.854,49.457C23.355,48.578 24.118,48.139 25.145,48.139C25.524,48.139 25.898,48.239 26.268,48.439L26.268,48.439Z" style="fill:rgb(158,161,168);fill-rule:nonzero;"/>
            <path id="path1081" d="M27.403,48.276L28.761,48.276L28.761,53.158L30.654,48.276L32.024,48.276L30.04,53.158L32.181,58.353L30.654,58.353L28.761,53.158L28.761,58.353L27.403,58.353L27.403,48.276Z" style="fill:rgb(158,161,168);fill-rule:nonzero;"/>
        </g>
        <g id="text1015" transform="matrix(1.02239,0,0,1.22263,-0.499998,35)">
            <path id="path1201" d="M2.445,53.982L3.547,53.982L3.547,61.229L5.348,61.229L5.348,62.161L2.445,62.161L2.445,53.982Z" style="fill:rgb(158,161,168);fill-rule:nonzero;"/>
            <rect id="path1203" x="6.047" y="53.982" width="1.102" height="8.179" style="fill:rgb(158,161,168);fill-rule:nonzero;"/>
            <path id="path1205" d="M8.421,53.982L9.448,53.982L10.545,57.245C10.863,58.167 11.144,59.151 11.387,60.196C11.299,59.564 11.234,58.992 11.191,58.48C11.149,57.967 11.128,57.485 11.128,57.033L11.128,53.982L12.235,53.982L12.235,62.161L11.202,62.161L9.967,58.48C9.854,58.137 9.747,57.786 9.644,57.425C9.545,57.065 9.454,56.687 9.369,56.292C9.362,56.242 9.349,56.182 9.332,56.112C9.318,56.041 9.3,55.96 9.279,55.868C9.289,55.96 9.298,56.039 9.305,56.106C9.312,56.17 9.318,56.225 9.321,56.271L9.379,57.102L9.438,58.114C9.441,58.171 9.443,58.239 9.443,58.321C9.447,58.402 9.448,58.494 9.448,58.596L9.507,62.161L8.421,62.161L8.421,53.982Z" style="fill:rgb(158,161,168);fill-rule:nonzero;"/>
            <rect id="path1207" x="12.876" y="58.94" width="1.928" height="0.826" style="fill:rgb(158,161,168);fill-rule:nonzero;"/>
            <path id="path1209" d="M15.434,53.982L18.364,53.982L18.364,54.914L16.536,54.914L16.536,57.505L18.157,57.505L18.157,58.437L16.536,58.437L16.536,61.229L18.364,61.229L18.364,62.161L15.434,62.161L15.434,53.982Z" style="fill:rgb(158,161,168);fill-rule:nonzero;"/>
            <path id="path1211" d="M18.819,53.982L19.889,53.982L20.456,55.566C20.679,56.191 20.811,56.648 20.854,56.938C20.892,56.758 20.935,56.583 20.981,56.414C21.03,56.244 21.081,56.075 21.134,55.905L21.208,55.667L21.733,53.982L22.845,53.982L21.33,58.008L22.845,62.161L21.733,62.161L21.193,60.604C21.083,60.293 20.995,60.014 20.928,59.767C20.861,59.52 20.813,59.301 20.785,59.11C20.756,59.347 20.709,59.573 20.642,59.788L20.456,60.371L20.361,60.678L19.889,62.161L18.724,62.161L20.271,58.008L18.819,53.982Z" style="fill:rgb(158,161,168);fill-rule:nonzero;"/>
            <path id="path1213" d="M23.444,53.982L24.895,53.982C25.595,53.982 26.103,54.159 26.421,54.512C26.739,54.869 26.898,55.434 26.898,56.207C26.898,57.295 26.578,57.997 25.939,58.315C25.618,58.46 25.153,58.533 24.546,58.533L24.546,62.161L23.444,62.161L23.444,53.982ZM24.546,57.59C25.001,57.59 25.316,57.498 25.489,57.314C25.665,57.127 25.754,56.795 25.754,56.318C25.754,55.831 25.669,55.474 25.499,55.248C25.33,55.022 25.063,54.909 24.699,54.909L24.546,54.909L24.546,57.59Z" style="fill:rgb(158,161,168);fill-rule:nonzero;"/>
        </g>
        <g id="text1029">
        </g>
        <g id="g1290" transform="matrix(0.4375,0,0,1,241.875,0)">
            <rect id="rect1280" x="222" y="0" width="48" height="380" style="fill:rgb(158,161,168);"/>
            <g id="text1164" transform="matrix(0.835383,0,0,1.19706,-33.0673,0)">
                <path id="path1166" d="M320.742,12.192L323.209,12.192L323.209,12.583C323.209,14.545 323.037,15.87 322.693,16.558C322.354,17.263 321.719,17.615 320.788,17.615C319.826,17.615 319.141,17.223 318.732,16.44C318.327,15.657 318.125,14.341 318.125,12.492C318.125,10.377 318.347,8.97 318.791,8.269C319.208,7.612 319.85,7.284 320.716,7.284C321.377,7.284 321.893,7.443 322.263,7.76C322.637,8.082 322.928,8.611 323.137,9.346L321.871,9.875C321.814,9.609 321.751,9.387 321.682,9.209C321.612,9.026 321.536,8.885 321.453,8.785C321.288,8.58 321.04,8.478 320.709,8.478C320.257,8.478 319.948,8.757 319.783,9.313C319.617,9.896 319.534,10.943 319.534,12.453C319.534,13.98 319.619,15.013 319.789,15.553C319.959,16.092 320.279,16.362 320.748,16.362C321.179,16.362 321.482,16.171 321.656,15.788C321.834,15.379 321.923,14.722 321.923,13.817L321.923,13.543L321.923,13.34L320.742,13.34L320.742,12.192Z" style="fill:rgb(158,161,168);fill-rule:nonzero;"/>
                <path id="path1168" d="M324.566,7.414L325.924,7.414L325.924,16.342L328.143,16.342L328.143,17.491L324.566,17.491L324.566,7.414Z" style="fill:rgb(158,161,168);fill-rule:nonzero;"/>
                <path id="path1170" d="M334.049,12.701C334.049,14.48 333.851,15.744 333.455,16.493C333.059,17.241 332.396,17.615 331.465,17.615C330.486,17.615 329.796,17.213 329.396,16.408C329,15.62 328.802,14.221 328.802,12.211C328.802,10.419 328.998,9.15 329.389,8.406C329.785,7.658 330.455,7.284 331.4,7.284C332.244,7.284 332.87,7.573 333.279,8.152C333.549,8.539 333.745,9.089 333.867,9.803C333.988,10.464 334.049,11.43 334.049,12.701ZM332.627,12.844C332.627,11.1 332.548,9.942 332.392,9.372C332.235,8.798 331.915,8.511 331.432,8.511C330.949,8.511 330.627,8.774 330.466,9.3C330.31,9.831 330.231,10.897 330.231,12.498C330.231,13.973 330.314,14.996 330.479,15.566C330.649,16.105 330.967,16.375 331.432,16.375C331.889,16.375 332.202,16.123 332.372,15.618C332.542,15.118 332.627,14.193 332.627,12.844L332.627,12.844Z" style="fill:rgb(158,161,168);fill-rule:nonzero;"/>
                <path id="path1172" d="M335.4,7.414L337.241,7.414C338.681,7.414 339.401,8.308 339.401,10.097C339.401,10.78 339.307,11.287 339.12,11.617C338.933,11.948 338.603,12.198 338.128,12.368C338.672,12.585 339.044,12.864 339.244,13.203C339.449,13.538 339.551,14.043 339.551,14.717C339.551,16.567 338.759,17.491 337.175,17.491L335.4,17.491L335.4,7.414ZM336.679,11.852C337.206,11.852 337.571,11.73 337.776,11.487C337.98,11.23 338.083,10.78 338.083,10.136C338.083,9.048 337.691,8.504 336.908,8.504L336.803,8.504L336.745,8.504C336.71,8.504 336.688,8.506 336.679,8.511L336.679,11.852ZM336.679,16.329C337.236,16.329 337.621,16.21 337.835,15.97C338.048,15.731 338.154,15.298 338.154,14.672C338.154,14.028 338.043,13.577 337.822,13.321C337.604,13.06 337.223,12.929 336.679,12.929L336.679,16.329Z" style="fill:rgb(158,161,168);fill-rule:nonzero;"/>
                <path id="path1174" d="M342.397,7.414L343.454,7.414L345.614,17.491L344.27,17.491L343.891,15.527L341.894,15.527L341.509,17.491L340.204,17.491L342.397,7.414ZM343.695,14.476L343.395,12.87C343.195,11.778 343.032,10.612 342.906,9.372C342.845,9.977 342.766,10.59 342.671,11.213C342.575,11.83 342.462,12.487 342.331,13.184L342.083,14.476L343.695,14.476Z" style="fill:rgb(158,161,168);fill-rule:nonzero;"/>
                <path id="path1176" d="M346.417,7.414L347.774,7.414L347.774,16.342L349.993,16.342L349.993,17.491L346.417,17.491L346.417,7.414Z" style="fill:rgb(158,161,168);fill-rule:nonzero;"/>
            </g>
        </g>
        <g id="text1041" transform="matrix(0.600172,0,0,1.11079,184.833,-2)">
            <path id="path1043" d="M260.44,10.534L263.02,10.534L263.02,10.943C263.02,12.995 262.84,14.38 262.481,15.099C262.126,15.836 261.462,16.205 260.488,16.205C259.483,16.205 258.766,15.795 258.339,14.976C257.915,14.157 257.704,12.781 257.704,10.847C257.704,8.636 257.936,7.165 258.4,6.432C258.837,5.745 259.508,5.402 260.413,5.402C261.105,5.402 261.644,5.568 262.031,5.9C262.422,6.236 262.727,6.789 262.945,7.558L261.621,8.111C261.562,7.833 261.496,7.601 261.423,7.415C261.35,7.224 261.271,7.076 261.184,6.971C261.011,6.757 260.752,6.65 260.406,6.65C259.933,6.65 259.61,6.942 259.437,7.524C259.264,8.134 259.178,9.228 259.178,10.807C259.178,12.403 259.267,13.484 259.444,14.048C259.622,14.612 259.956,14.894 260.447,14.894C260.898,14.894 261.214,14.694 261.396,14.294C261.582,13.866 261.676,13.179 261.676,12.233L261.676,11.946L261.676,11.735L260.44,11.735L260.44,10.534Z" style="fill:rgb(44,45,48);fill-rule:nonzero;"/>
            <path id="path1045" d="M264.44,5.538L265.859,5.538L265.859,14.874L268.179,14.874L268.179,16.075L264.44,16.075L264.44,5.538Z" style="fill:rgb(44,45,48);fill-rule:nonzero;"/>
            <path id="path1047" d="M274.355,11.066C274.355,12.927 274.148,14.248 273.734,15.031C273.32,15.813 272.627,16.205 271.653,16.205C270.629,16.205 269.908,15.784 269.49,14.942C269.076,14.119 268.869,12.656 268.869,10.554C268.869,8.68 269.073,7.353 269.483,6.575C269.897,5.793 270.597,5.402 271.585,5.402C272.467,5.402 273.123,5.704 273.55,6.309C273.832,6.714 274.037,7.29 274.164,8.036C274.292,8.727 274.355,9.737 274.355,11.066L274.355,11.066ZM272.868,11.216C272.868,9.392 272.786,8.181 272.622,7.585C272.458,6.985 272.124,6.685 271.619,6.685C271.114,6.685 270.777,6.96 270.609,7.51C270.445,8.065 270.363,9.18 270.363,10.854C270.363,12.397 270.45,13.466 270.623,14.062C270.8,14.626 271.132,14.908 271.619,14.908C272.097,14.908 272.424,14.644 272.602,14.116C272.779,13.593 272.868,12.626 272.868,11.216L272.868,11.216Z" style="fill:rgb(44,45,48);fill-rule:nonzero;"/>
            <path id="path1049" d="M275.768,5.538L277.693,5.538C279.199,5.538 279.952,6.473 279.952,8.343C279.952,9.057 279.854,9.587 279.658,9.933C279.462,10.279 279.117,10.54 278.621,10.718C279.189,10.945 279.578,11.236 279.788,11.591C280.002,11.942 280.109,12.469 280.109,13.175C280.109,15.108 279.28,16.075 277.624,16.075L275.768,16.075L275.768,5.538ZM277.106,10.179C277.656,10.179 278.038,10.051 278.252,9.796C278.466,9.528 278.573,9.057 278.573,8.384C278.573,7.246 278.164,6.678 277.345,6.678L277.235,6.678L277.174,6.678C277.138,6.678 277.115,6.68 277.106,6.685L277.106,10.179ZM277.106,14.86C277.688,14.86 278.091,14.735 278.314,14.485C278.537,14.235 278.648,13.782 278.648,13.127C278.648,12.453 278.532,11.983 278.3,11.714C278.073,11.441 277.674,11.305 277.106,11.305L277.106,14.86Z" style="fill:rgb(44,45,48);fill-rule:nonzero;"/>
            <path id="path1051" d="M283.084,5.538L284.19,5.538L286.448,16.075L285.043,16.075L284.647,14.021L282.558,14.021L282.156,16.075L280.791,16.075L283.084,5.538ZM284.442,12.922L284.128,11.243C283.919,10.101 283.748,8.882 283.616,7.585C283.553,8.218 283.471,8.859 283.371,9.51C283.271,10.156 283.152,10.843 283.016,11.571L282.756,12.922L284.442,12.922Z" style="fill:rgb(44,45,48);fill-rule:nonzero;"/>
            <path id="path1053" d="M287.288,5.538L288.707,5.538L288.707,14.874L291.028,14.874L291.028,16.075L287.288,16.075L287.288,5.538Z" style="fill:rgb(44,45,48);fill-rule:nonzero;"/>
        </g>
        <g id="text1062" transform="matrix(0.977075,0,0,1.27933,-0.499998,17)">
            <path id="path1186" d="M2.559,36.06L3.911,36.06C4.47,36.06 4.886,36.193 5.159,36.46C5.505,36.805 5.677,37.333 5.677,38.044C5.677,38.59 5.585,39.029 5.401,39.361C5.22,39.69 4.96,39.894 4.621,39.973L6.023,43.679L4.982,43.679L3.585,39.949L3.585,43.679L2.559,43.679L2.559,36.06ZM3.585,39.435C3.983,39.435 4.264,39.343 4.429,39.159C4.593,38.975 4.676,38.664 4.676,38.226C4.676,37.989 4.658,37.787 4.621,37.619C4.588,37.452 4.534,37.315 4.459,37.21C4.386,37.105 4.291,37.027 4.172,36.978C4.057,36.929 3.919,36.904 3.758,36.904L3.585,36.904L3.585,39.435Z" style="fill:rgb(158,161,168);fill-rule:nonzero;"/>
            <path id="path1188" d="M6.822,36.06L9.551,36.06L9.551,36.929L7.849,36.929L7.849,39.342L9.359,39.342L9.359,40.21L7.849,40.21L7.849,42.811L9.551,42.811L9.551,43.679L6.822,43.679L6.822,36.06Z" style="fill:rgb(158,161,168);fill-rule:nonzero;"/>
            <path id="path1190" d="M10.494,36.06L11.52,36.06L11.52,42.811L13.198,42.811L13.198,43.679L10.494,43.679L10.494,36.06Z" style="fill:rgb(158,161,168);fill-rule:nonzero;"/>
            <path id="path1192" d="M13.849,36.06L16.578,36.06L16.578,36.929L14.876,36.929L14.876,39.342L16.386,39.342L16.386,40.21L14.876,40.21L14.876,42.811L16.578,42.811L16.578,43.679L13.849,43.679L13.849,36.06Z" style="fill:rgb(158,161,168);fill-rule:nonzero;"/>
            <path id="path1194" d="M18.606,36.06L19.406,36.06L21.039,43.679L20.023,43.679L19.736,42.194L18.226,42.194L17.935,43.679L16.948,43.679L18.606,36.06ZM19.588,41.399L19.361,40.185C19.21,39.36 19.087,38.478 18.991,37.54C18.945,37.998 18.886,38.462 18.814,38.932C18.741,39.399 18.656,39.896 18.557,40.422L18.37,41.399L19.588,41.399Z" style="fill:rgb(158,161,168);fill-rule:nonzero;"/>
            <path id="path1196" d="M24.188,36.218L24.188,37.22C23.875,36.996 23.594,36.884 23.344,36.884C23.074,36.884 22.854,36.98 22.682,37.17C22.511,37.351 22.426,37.593 22.426,37.896C22.426,38.162 22.487,38.391 22.608,38.582C22.671,38.684 22.773,38.815 22.914,38.976C23.059,39.138 23.245,39.332 23.472,39.559C23.89,39.983 24.174,40.35 24.326,40.659C24.477,40.959 24.553,41.325 24.553,41.76C24.553,42.349 24.387,42.834 24.054,43.215C23.722,43.587 23.296,43.773 22.776,43.773C22.339,43.773 21.965,43.653 21.656,43.413L21.656,42.396C22.021,42.663 22.353,42.796 22.653,42.796C22.932,42.796 23.151,42.704 23.309,42.52C23.467,42.332 23.546,42.079 23.546,41.76C23.546,41.483 23.485,41.235 23.363,41.014C23.301,40.909 23.214,40.789 23.102,40.654C22.99,40.516 22.85,40.363 22.682,40.195C22.423,39.939 22.207,39.712 22.036,39.514C21.865,39.317 21.738,39.144 21.656,38.996C21.498,38.707 21.419,38.342 21.419,37.901C21.419,37.305 21.574,36.833 21.883,36.484C22.196,36.132 22.615,35.956 23.141,35.956C23.507,35.956 23.855,36.044 24.188,36.218L24.188,36.218Z" style="fill:rgb(158,161,168);fill-rule:nonzero;"/>
            <path id="path1198" d="M25.416,36.06L28.145,36.06L28.145,36.929L26.443,36.929L26.443,39.342L27.953,39.342L27.953,40.21L26.443,40.21L26.443,42.811L28.145,42.811L28.145,43.679L25.416,43.679L25.416,36.06Z" style="fill:rgb(158,161,168);fill-rule:nonzero;"/>
        </g>
        <g id="text1066" transform="matrix(1.01657,0,0,1.22963,-0.499998,33)">
            <path id="path1173" d="M2.459,86.205L6.025,86.205L6.025,87.164L4.798,87.164L4.798,94.338L3.723,94.338L3.723,87.164L2.459,87.164L2.459,86.205Z" style="fill:rgb(158,161,168);fill-rule:nonzero;"/>
            <path id="path1175" d="M7.637,86.205L8.49,86.205L10.234,94.338L9.149,94.338L8.843,92.752L7.231,92.752L6.921,94.338L5.867,94.338L7.637,86.205ZM8.685,91.904L8.443,90.608C8.281,89.727 8.15,88.786 8.048,87.785C7.999,88.273 7.935,88.768 7.858,89.271C7.781,89.769 7.69,90.299 7.584,90.861L7.384,91.904L8.685,91.904Z" style="fill:rgb(158,161,168);fill-rule:nonzero;"/>
            <path id="path1177" d="M10.882,86.205L12.325,86.205C13.02,86.205 13.526,86.381 13.842,86.732C14.158,87.086 14.316,87.648 14.316,88.417C14.316,89.499 13.998,90.198 13.362,90.514C13.043,90.658 12.581,90.73 11.977,90.73L11.977,94.338L10.882,94.338L10.882,86.205ZM11.977,89.792C12.43,89.792 12.743,89.701 12.915,89.518C13.09,89.332 13.178,89.002 13.178,88.528C13.178,88.043 13.094,87.689 12.925,87.464C12.757,87.239 12.492,87.127 12.13,87.127L11.977,87.127L11.977,89.792Z" style="fill:rgb(158,161,168);fill-rule:nonzero;"/>
            <path id="path1179" d="M15.158,86.205L16.602,86.205C17.297,86.205 17.803,86.381 18.119,86.732C18.435,87.086 18.593,87.648 18.593,88.417C18.593,89.499 18.275,90.198 17.639,90.514C17.32,90.658 16.858,90.73 16.254,90.73L16.254,94.338L15.158,94.338L15.158,86.205ZM16.254,89.792C16.707,89.792 17.02,89.701 17.192,89.518C17.367,89.332 17.455,89.002 17.455,88.528C17.455,88.043 17.371,87.689 17.202,87.464C17.034,87.239 16.768,87.127 16.407,87.127L16.254,87.127L16.254,89.792Z" style="fill:rgb(158,161,168);fill-rule:nonzero;"/>
            <path id="path1181" d="M19.435,86.205L22.348,86.205L22.348,87.132L20.531,87.132L20.531,89.708L22.143,89.708L22.143,90.635L20.531,90.635L20.531,93.411L22.348,93.411L22.348,94.338L19.435,94.338L19.435,86.205Z" style="fill:rgb(158,161,168);fill-rule:nonzero;"/>
            <path id="path1183" d="M23.354,86.205L24.797,86.205C25.394,86.205 25.839,86.347 26.13,86.632C26.499,87 26.683,87.564 26.683,88.322C26.683,88.905 26.585,89.374 26.388,89.729C26.195,90.08 25.918,90.298 25.556,90.382L27.052,94.338L25.94,94.338L24.45,90.356L24.45,94.338L23.354,94.338L23.354,86.205ZM24.45,89.808C24.875,89.808 25.175,89.709 25.35,89.513C25.526,89.316 25.614,88.984 25.614,88.517C25.614,88.265 25.595,88.049 25.556,87.869C25.521,87.69 25.463,87.545 25.382,87.432C25.305,87.32 25.203,87.237 25.077,87.185C24.954,87.132 24.806,87.106 24.634,87.106L24.45,87.106L24.45,89.808Z" style="fill:rgb(158,161,168);fill-rule:nonzero;"/>
        </g>
        <g id="text1070" transform="matrix(0.900476,0,0,1.38816,-0.499998,32)">
            <path id="path1156" d="M2.776,89.436L6.473,89.436L6.473,90.43L5.201,90.43L5.201,97.868L4.087,97.868L4.087,90.43L2.776,90.43L2.776,89.436Z" style="fill:rgb(158,161,168);fill-rule:nonzero;"/>
            <path id="path1158" d="M7.096,89.436L8.592,89.436C9.211,89.436 9.672,89.584 9.974,89.879C10.356,90.261 10.547,90.845 10.547,91.632C10.547,92.236 10.445,92.722 10.241,93.09C10.041,93.454 9.753,93.68 9.379,93.767L10.929,97.868L9.777,97.868L8.232,93.74L8.232,97.868L7.096,97.868L7.096,89.436ZM8.232,93.172C8.672,93.172 8.984,93.07 9.166,92.866C9.348,92.662 9.439,92.318 9.439,91.834C9.439,91.572 9.419,91.348 9.379,91.162C9.342,90.976 9.282,90.825 9.198,90.709C9.118,90.592 9.013,90.507 8.882,90.452C8.754,90.398 8.601,90.37 8.423,90.37L8.232,90.37L8.232,93.172Z" style="fill:rgb(158,161,168);fill-rule:nonzero;"/>
            <rect id="path1160" x="11.814" y="89.436" width="1.136" height="8.432" style="fill:rgb(158,161,168);fill-rule:nonzero;"/>
            <path id="path1162" d="M16.281,93.434L18.345,93.434L18.345,93.761C18.345,95.403 18.201,96.512 17.914,97.087C17.63,97.677 17.098,97.972 16.319,97.972C15.515,97.972 14.941,97.644 14.599,96.989C14.261,96.333 14.091,95.232 14.091,93.685C14.091,91.916 14.277,90.738 14.648,90.152C14.998,89.602 15.535,89.327 16.259,89.327C16.813,89.327 17.244,89.46 17.553,89.726C17.867,89.995 18.11,90.438 18.285,91.053L17.226,91.495C17.178,91.273 17.126,91.087 17.067,90.938C17.009,90.785 16.945,90.667 16.876,90.583C16.738,90.412 16.53,90.327 16.254,90.327C15.875,90.327 15.617,90.56 15.478,91.025C15.34,91.513 15.271,92.389 15.271,93.652C15.271,94.93 15.342,95.795 15.484,96.246C15.626,96.698 15.893,96.923 16.287,96.923C16.647,96.923 16.9,96.763 17.046,96.443C17.195,96.1 17.269,95.551 17.269,94.794L17.269,94.564L17.269,94.395L16.281,94.395L16.281,93.434Z" style="fill:rgb(158,161,168);fill-rule:nonzero;"/>
            <path id="path1164" d="M20.683,89.436L21.567,89.436L23.375,97.868L22.25,97.868L21.933,96.224L20.262,96.224L19.94,97.868L18.848,97.868L20.683,89.436ZM21.769,95.345L21.518,94.002C21.351,93.088 21.214,92.112 21.108,91.075C21.058,91.581 20.992,92.094 20.912,92.615C20.832,93.132 20.737,93.681 20.628,94.264L20.42,95.345L21.769,95.345Z" style="fill:rgb(158,161,168);fill-rule:nonzero;"/>
            <path id="path1167" d="M23.2,89.436L26.897,89.436L26.897,90.43L25.625,90.43L25.625,97.868L24.511,97.868L24.511,90.43L23.2,90.43L23.2,89.436Z" style="fill:rgb(158,161,168);fill-rule:nonzero;"/>
            <path id="path1169" d="M27.52,89.436L30.539,89.436L30.539,90.398L28.655,90.398L28.655,93.068L30.326,93.068L30.326,94.029L28.655,94.029L28.655,96.907L30.539,96.907L30.539,97.868L27.52,97.868L27.52,89.436Z" style="fill:rgb(158,161,168);fill-rule:nonzero;"/>
        </g>
        <g id="text1074" transform="matrix(0.916214,0,0,1.36431,-0.499998,31)">
            <path id="path1141" d="M4.284,107.106L5.034,107.106L6.567,114.256L5.613,114.256L5.345,112.862L3.928,112.862L3.655,114.256L2.729,114.256L4.284,107.106ZM5.206,112.116L4.993,110.977C4.851,110.203 4.735,109.375 4.646,108.496C4.602,108.925 4.547,109.36 4.479,109.801C4.411,110.24 4.331,110.706 4.238,111.2L4.062,112.116L5.206,112.116Z" style="fill:rgb(158,161,168);fill-rule:nonzero;"/>
            <path id="path1143" d="M7.137,107.106L8.405,107.106C8.93,107.106 9.321,107.231 9.577,107.482C9.901,107.806 10.063,108.301 10.063,108.968C10.063,109.48 9.977,109.892 9.804,110.204C9.634,110.513 9.39,110.704 9.072,110.778L10.387,114.256L9.41,114.256L8.1,110.755L8.1,114.256L7.137,114.256L7.137,107.106ZM8.1,110.274C8.473,110.274 8.737,110.187 8.892,110.014C9.046,109.841 9.123,109.55 9.123,109.139C9.123,108.917 9.106,108.727 9.072,108.57C9.041,108.412 8.99,108.284 8.919,108.185C8.851,108.087 8.762,108.014 8.651,107.968C8.543,107.921 8.413,107.898 8.262,107.898L8.1,107.898L8.1,110.274Z" style="fill:rgb(158,161,168);fill-rule:nonzero;"/>
            <path id="path1145" d="M13.438,107.106L14.263,107.106L14.892,110.024C14.97,110.388 15.039,110.754 15.101,111.121C15.166,111.485 15.224,111.868 15.277,112.269C15.283,112.217 15.287,112.177 15.291,112.149C15.294,112.118 15.297,112.096 15.3,112.084L15.434,111.264L15.554,110.487L15.661,109.973L16.221,107.106L17.055,107.106L17.712,114.256L16.791,114.256L16.629,111.829C16.623,111.706 16.616,111.599 16.61,111.51C16.607,111.42 16.606,111.346 16.606,111.288L16.564,110.329L16.541,109.449C16.541,109.443 16.539,109.431 16.536,109.412C16.536,109.391 16.534,109.363 16.531,109.329L16.508,109.473C16.484,109.642 16.46,109.791 16.439,109.917C16.42,110.044 16.403,110.15 16.388,110.237L16.267,110.889L16.221,111.135L15.619,114.256L14.971,114.256L14.406,111.561C14.329,111.206 14.26,110.846 14.198,110.482C14.139,110.115 14.085,109.73 14.036,109.329L13.758,114.256L12.85,114.256L13.438,107.106Z" style="fill:rgb(158,161,168);fill-rule:nonzero;"/>
            <path id="path1147" d="M22.088,110.857C22.088,112.12 21.947,113.016 21.666,113.547C21.386,114.078 20.915,114.344 20.254,114.344C19.56,114.344 19.07,114.058 18.786,113.487C18.505,112.928 18.365,111.936 18.365,110.51C18.365,109.238 18.504,108.338 18.782,107.81C19.063,107.279 19.538,107.014 20.208,107.014C20.807,107.014 21.251,107.219 21.541,107.63C21.733,107.904 21.872,108.295 21.958,108.801C22.045,109.27 22.088,109.956 22.088,110.857L22.088,110.857ZM21.078,110.959C21.078,109.721 21.023,108.9 20.912,108.496C20.801,108.088 20.574,107.884 20.231,107.884C19.888,107.884 19.66,108.071 19.546,108.445C19.435,108.821 19.379,109.577 19.379,110.713C19.379,111.76 19.438,112.485 19.555,112.89C19.675,113.272 19.901,113.464 20.231,113.464C20.555,113.464 20.777,113.285 20.898,112.927C21.018,112.572 21.078,111.916 21.078,110.959L21.078,110.959Z" style="fill:rgb(158,161,168);fill-rule:nonzero;"/>
            <path id="path1150" d="M23.046,107.106L24.232,107.106C24.593,107.106 24.897,107.147 25.144,107.227C25.372,107.304 25.576,107.441 25.755,107.639C26.024,107.935 26.215,108.321 26.329,108.797C26.443,109.256 26.5,109.915 26.5,110.774C26.5,111.561 26.437,112.203 26.311,112.7C26.187,113.175 25.983,113.538 25.699,113.788C25.351,114.1 24.725,114.256 23.824,114.256L23.046,114.256L23.046,107.106ZM24.009,113.413C24.596,113.413 24.988,113.235 25.185,112.88C25.389,112.525 25.491,111.836 25.491,110.811C25.491,109.709 25.394,108.951 25.199,108.537C25.005,108.124 24.648,107.917 24.13,107.917L24.009,107.917L24.009,113.413Z" style="fill:rgb(158,161,168);fill-rule:nonzero;"/>
            <path id="path1152" d="M27.454,107.106L30.015,107.106L30.015,107.921L28.417,107.921L28.417,110.186L29.834,110.186L29.834,111.001L28.417,111.001L28.417,113.441L30.015,113.441L30.015,114.256L27.454,114.256L27.454,107.106Z" style="fill:rgb(158,161,168);fill-rule:nonzero;"/>
        </g>
        <g id="text1078" transform="matrix(1.42461,0,0,1.16991,-1.33333,30)">
            <path id="path1130" d="M2.34,142.005L3.862,142.005C5.052,142.005 5.648,142.744 5.648,144.223C5.648,144.787 5.57,145.206 5.416,145.48C5.261,145.753 4.988,145.96 4.595,146.1C5.045,146.28 5.353,146.511 5.518,146.791C5.687,147.068 5.772,147.486 5.772,148.043C5.772,149.572 5.117,150.337 3.808,150.337L2.34,150.337L2.34,142.005ZM3.397,145.674C3.833,145.674 4.135,145.573 4.304,145.372C4.473,145.16 4.558,144.787 4.558,144.255C4.558,143.356 4.234,142.906 3.586,142.906L3.5,142.906L3.451,142.906C3.423,142.906 3.405,142.908 3.397,142.911L3.397,145.674ZM3.397,149.376C3.858,149.376 4.176,149.277 4.353,149.079C4.529,148.881 4.617,148.523 4.617,148.005C4.617,147.473 4.525,147.101 4.342,146.888C4.162,146.672 3.847,146.565 3.397,146.565L3.397,149.376Z" style="fill:rgb(158,161,168);fill-rule:nonzero;"/>
            <path id="path1132" d="M6.894,142.005L7.995,142.005L7.995,147.892C7.995,148.493 8.049,148.892 8.157,149.09C8.269,149.288 8.488,149.387 8.815,149.387C9.143,149.387 9.359,149.3 9.463,149.128C9.571,148.952 9.625,148.594 9.625,148.054L9.625,142.005L10.726,142.005L10.726,148.054C10.726,148.96 10.587,149.574 10.31,149.894C9.979,150.257 9.474,150.439 8.794,150.439C8.045,150.439 7.518,150.205 7.213,149.738C7,149.417 6.894,148.802 6.894,147.892L6.894,142.005Z" style="fill:rgb(158,161,168);fill-rule:nonzero;"/>
            <path id="path1134" d="M14.789,142.177L14.789,143.273C14.447,143.028 14.14,142.906 13.866,142.906C13.571,142.906 13.33,143.01 13.143,143.219C12.956,143.417 12.863,143.681 12.863,144.012C12.863,144.304 12.929,144.554 13.062,144.762C13.131,144.874 13.242,145.018 13.397,145.194C13.555,145.37 13.758,145.582 14.007,145.831C14.463,146.295 14.775,146.696 14.94,147.034C15.106,147.361 15.188,147.763 15.188,148.237C15.188,148.881 15.007,149.412 14.643,149.829C14.28,150.236 13.814,150.439 13.246,150.439C12.767,150.439 12.359,150.308 12.021,150.045L12.021,148.933C12.42,149.225 12.783,149.371 13.111,149.371C13.417,149.371 13.656,149.27 13.828,149.068C14.001,148.863 14.087,148.586 14.087,148.237C14.087,147.935 14.021,147.664 13.888,147.423C13.819,147.307 13.724,147.176 13.602,147.029C13.48,146.877 13.327,146.71 13.143,146.527C12.859,146.246 12.623,145.998 12.436,145.782C12.249,145.566 12.111,145.377 12.021,145.215C11.848,144.899 11.762,144.5 11.762,144.017C11.762,143.366 11.931,142.85 12.269,142.469C12.611,142.084 13.069,141.891 13.645,141.891C14.044,141.891 14.426,141.987 14.789,142.177L14.789,142.177Z" style="fill:rgb(158,161,168);fill-rule:nonzero;"/>
            <path id="path1137" d="M15.577,142.005L16.764,142.005L17.314,143.818C17.332,143.872 17.35,143.931 17.368,143.996C17.386,144.061 17.408,144.131 17.433,144.206C17.638,144.861 17.779,145.412 17.854,145.858C17.919,145.412 17.973,145.1 18.016,144.924L18.189,144.179L18.253,143.888L18.717,142.005L19.888,142.005L18.437,146.753L18.437,150.337L17.314,150.337L17.314,146.753L15.577,142.005Z" style="fill:rgb(158,161,168);fill-rule:nonzero;"/>
        </g>
        <g id="text1082" transform="matrix(1.429,0,0,1.16631,-1.33333,29)">
            <path id="path1120" d="M2.631,159.585L6.314,159.585L3.8,166.962L6.178,166.962L6.178,167.948L2.333,167.948L4.867,160.539L2.631,160.539L2.631,159.585Z" style="fill:rgb(158,161,168);fill-rule:nonzero;"/>
            <path id="path1122" d="M7.018,159.585L10.013,159.585L10.013,160.539L8.144,160.539L8.144,163.187L9.802,163.187L9.802,164.14L8.144,164.14L8.144,166.995L10.013,166.995L10.013,167.948L7.018,167.948L7.018,159.585Z" style="fill:rgb(158,161,168);fill-rule:nonzero;"/>
            <path id="path1124" d="M11.047,159.585L12.532,159.585C13.145,159.585 13.602,159.731 13.902,160.024C14.281,160.403 14.471,160.983 14.471,161.763C14.471,162.362 14.369,162.844 14.167,163.209C13.969,163.57 13.683,163.794 13.312,163.88L14.85,167.948L13.707,167.948L12.174,163.853L12.174,167.948L11.047,167.948L11.047,159.585ZM12.174,163.29C12.611,163.29 12.92,163.189 13.1,162.987C13.281,162.784 13.371,162.443 13.371,161.963C13.371,161.703 13.351,161.481 13.311,161.297C13.275,161.113 13.216,160.963 13.133,160.847C13.053,160.732 12.949,160.647 12.819,160.593C12.692,160.539 12.541,160.511 12.364,160.511L12.174,160.511L12.174,163.29Z" style="fill:rgb(158,161,168);fill-rule:nonzero;"/>
            <path id="path1126" d="M19.827,163.972C19.827,165.449 19.663,166.498 19.334,167.119C19.006,167.74 18.455,168.051 17.682,168.051C16.87,168.051 16.298,167.717 15.965,167.049C15.637,166.395 15.473,165.234 15.473,163.566C15.473,162.079 15.635,161.026 15.96,160.409C16.289,159.787 16.845,159.477 17.628,159.477C18.329,159.477 18.849,159.717 19.188,160.197C19.412,160.519 19.575,160.975 19.676,161.568C19.777,162.116 19.827,162.918 19.827,163.972L19.827,163.972ZM18.647,164.092C18.647,162.644 18.582,161.683 18.452,161.21C18.322,160.734 18.056,160.495 17.655,160.495C17.255,160.495 16.987,160.714 16.854,161.151C16.724,161.591 16.659,162.476 16.659,163.805C16.659,165.029 16.727,165.877 16.865,166.35C17.005,166.798 17.269,167.022 17.655,167.022C18.035,167.022 18.295,166.812 18.435,166.394C18.576,165.978 18.647,165.211 18.647,164.092L18.647,164.092Z" style="fill:rgb(158,161,168);fill-rule:nonzero;"/>
        </g>
        <g id="text1086" transform="matrix(1.41548,0,0,1.17745,-1.33333,28)">
            <path id="path1111" d="M2.355,175.061L3.471,175.061L3.471,182.401L5.295,182.401L5.295,183.345L2.355,183.345L2.355,175.061Z" style="fill:rgb(158,161,168);fill-rule:nonzero;"/>
            <path id="path1113" d="M10.15,179.407C10.15,180.87 9.988,181.909 9.662,182.524C9.337,183.139 8.791,183.447 8.026,183.447C7.221,183.447 6.654,183.116 6.325,182.454C6,181.807 5.837,180.657 5.837,179.004C5.837,177.531 5.998,176.488 6.32,175.877C6.645,175.261 7.196,174.954 7.972,174.954C8.666,174.954 9.181,175.192 9.517,175.667C9.739,175.986 9.9,176.438 10,177.025C10.1,177.568 10.15,178.362 10.15,179.407L10.15,179.407ZM8.981,179.525C8.981,178.091 8.916,177.139 8.788,176.671C8.659,176.199 8.396,175.962 7.999,175.962C7.602,175.962 7.337,176.179 7.205,176.612C7.076,177.048 7.012,177.924 7.012,179.24C7.012,180.453 7.08,181.294 7.216,181.762C7.355,182.206 7.616,182.427 7.999,182.427C8.375,182.427 8.632,182.22 8.772,181.805C8.911,181.394 8.981,180.634 8.981,179.525L8.981,179.525Z" style="fill:rgb(158,161,168);fill-rule:nonzero;"/>
            <path id="path1115" d="M15.408,179.407C15.408,180.87 15.245,181.909 14.92,182.524C14.594,183.139 14.049,183.447 13.284,183.447C12.479,183.447 11.912,183.116 11.583,182.454C11.257,181.807 11.095,180.657 11.095,179.004C11.095,177.531 11.256,176.488 11.577,175.877C11.903,175.261 12.454,174.954 13.23,174.954C13.924,174.954 14.439,175.192 14.775,175.667C14.997,175.986 15.158,176.438 15.258,177.025C15.358,177.568 15.408,178.362 15.408,179.407L15.408,179.407ZM14.239,179.525C14.239,178.091 14.174,177.139 14.045,176.671C13.917,176.199 13.654,175.962 13.257,175.962C12.86,175.962 12.595,176.179 12.463,176.612C12.334,177.048 12.27,177.924 12.27,179.24C12.27,180.453 12.338,181.294 12.473,181.762C12.613,182.206 12.874,182.427 13.257,182.427C13.632,182.427 13.89,182.22 14.029,181.805C14.169,181.394 14.239,180.634 14.239,179.525L14.239,179.525Z" style="fill:rgb(158,161,168);fill-rule:nonzero;"/>
            <path id="path1117" d="M16.519,175.061L17.989,175.061C18.697,175.061 19.212,175.24 19.534,175.598C19.856,175.959 20.017,176.531 20.017,177.314C20.017,178.416 19.693,179.128 19.046,179.45C18.72,179.596 18.25,179.67 17.635,179.67L17.635,183.345L16.519,183.345L16.519,175.061ZM17.635,178.715C18.096,178.715 18.414,178.622 18.59,178.436C18.768,178.246 18.858,177.91 18.858,177.427C18.858,176.934 18.772,176.572 18.6,176.343C18.429,176.114 18.159,176 17.79,176L17.635,176L17.635,178.715Z" style="fill:rgb(158,161,168);fill-rule:nonzero;"/>
        </g>
        <g id="text1090" transform="matrix(1.22715,0,0,1.01862,-0.499998,27)">
            <path id="path1104" d="M2.037,221.993L5.467,221.993L5.467,223.084L3.327,223.084L3.327,226.117L5.225,226.117L5.225,227.208L3.327,227.208L3.327,230.477L5.467,230.477L5.467,231.568L2.037,231.568L2.037,221.993Z" style="fill:rgb(158,161,168);fill-rule:nonzero;"/>
            <path id="path1106" d="M14.075,227.016C14.075,228.707 13.887,229.908 13.51,230.619C13.134,231.33 12.504,231.686 11.619,231.686C10.689,231.686 10.033,231.304 9.653,230.539C9.277,229.79 9.089,228.461 9.089,226.551C9.089,224.848 9.275,223.642 9.647,222.935C10.023,222.224 10.66,221.869 11.557,221.869C12.359,221.869 12.954,222.144 13.343,222.694C13.599,223.062 13.785,223.585 13.901,224.263C14.017,224.891 14.075,225.809 14.075,227.016L14.075,227.016ZM12.723,227.153C12.723,225.495 12.648,224.395 12.499,223.853C12.351,223.308 12.047,223.035 11.588,223.035C11.129,223.035 10.823,223.285 10.67,223.785C10.521,224.289 10.447,225.302 10.447,226.824C10.447,228.225 10.525,229.197 10.682,229.739C10.844,230.251 11.145,230.508 11.588,230.508C12.022,230.508 12.32,230.268 12.481,229.788C12.642,229.313 12.723,228.434 12.723,227.153L12.723,227.153Z" style="fill:rgb(158,161,168);fill-rule:nonzero;"/>
            <path id="path1108" d="M19.352,221.993L20.357,221.993L22.41,231.568L21.132,231.568L20.772,229.701L18.875,229.701L18.509,231.568L17.268,231.568L19.352,221.993ZM20.586,228.703L20.301,227.177C20.111,226.14 19.956,225.032 19.836,223.853C19.778,224.428 19.704,225.011 19.613,225.602C19.522,226.189 19.414,226.814 19.29,227.475L19.055,228.703L20.586,228.703Z" style="fill:rgb(158,161,168);fill-rule:nonzero;"/>
        </g>
        <g id="text1094" transform="matrix(1.22921,0,0,1.01691,-0.499998,26)">
            <path id="path1096" d="M2.034,242.033L5.469,242.033L5.469,243.126L3.326,243.126L3.326,246.164L5.227,246.164L5.227,247.257L3.326,247.257L3.326,250.531L5.469,250.531L5.469,251.624L2.034,251.624L2.034,242.033Z" style="fill:rgb(158,161,168);fill-rule:nonzero;"/>
            <path id="path1098" d="M14.091,247.065C14.091,248.758 13.903,249.961 13.526,250.674C13.149,251.386 12.518,251.742 11.631,251.742C10.7,251.742 10.043,251.359 9.662,250.593C9.285,249.843 9.097,248.512 9.097,246.599C9.097,244.892 9.283,243.685 9.656,242.977C10.033,242.265 10.671,241.909 11.569,241.909C12.373,241.909 12.969,242.184 13.358,242.735C13.615,243.103 13.802,243.627 13.917,244.306C14.033,244.936 14.091,245.855 14.091,247.065L14.091,247.065ZM12.737,247.201C12.737,245.541 12.663,244.439 12.514,243.896C12.364,243.35 12.06,243.076 11.6,243.076C11.141,243.076 10.834,243.327 10.681,243.828C10.532,244.333 10.457,245.348 10.457,246.872C10.457,248.276 10.536,249.249 10.693,249.792C10.855,250.305 11.157,250.562 11.6,250.562C12.035,250.562 12.333,250.322 12.495,249.841C12.656,249.365 12.737,248.485 12.737,247.201Z" style="fill:rgb(158,161,168);fill-rule:nonzero;"/>
            <path id="path1100" d="M18.011,242.033L19.713,242.033C20.417,242.033 20.941,242.201 21.285,242.536C21.72,242.971 21.937,243.635 21.937,244.53C21.937,245.217 21.821,245.77 21.589,246.189C21.362,246.603 21.034,246.86 20.608,246.959L22.372,251.624L21.061,251.624L19.303,246.928L19.303,251.624L18.011,251.624L18.011,242.033ZM19.303,246.282C19.804,246.282 20.159,246.166 20.366,245.934C20.573,245.702 20.676,245.311 20.676,244.76C20.676,244.462 20.653,244.207 20.608,243.996C20.566,243.785 20.498,243.613 20.403,243.48C20.312,243.348 20.192,243.25 20.043,243.188C19.898,243.126 19.724,243.095 19.521,243.095L19.303,243.095L19.303,246.282Z" style="fill:rgb(158,161,168);fill-rule:nonzero;"/>
        </g>
        <g id="text1286" transform="matrix(0.982419,0,0,1.0179,0,-1)">
            <path id="path1303" d="M4.12,44.339L5.124,44.339L7.177,53.915L5.9,53.915L5.54,52.048L3.642,52.048L3.276,53.915L2.036,53.915L4.12,44.339ZM5.354,51.05L5.069,49.524C4.878,48.486 4.723,47.378 4.603,46.2C4.546,46.774 4.471,47.357 4.38,47.949C4.289,48.536 4.182,49.16 4.058,49.822L3.822,51.05L5.354,51.05Z" style="fill:rgb(158,161,168);fill-rule:nonzero;"/>
            <path id="path1305" d="M6.979,44.339L11.178,44.339L11.178,45.468L9.733,45.468L9.733,53.915L8.467,53.915L8.467,45.468L6.979,45.468L6.979,44.339Z" style="fill:rgb(158,161,168);fill-rule:nonzero;"/>
            <path id="path1307" d="M11.122,44.339L15.321,44.339L15.321,45.468L13.876,45.468L13.876,53.915L12.61,53.915L12.61,45.468L11.122,45.468L11.122,44.339Z" style="fill:rgb(158,161,168);fill-rule:nonzero;"/>
            <path id="path1309" d="M22.416,44.494L22.416,45.654C22.085,45.493 21.808,45.412 21.585,45.412C21.279,45.412 21.016,45.489 20.797,45.642C20.578,45.79 20.396,46.022 20.251,46.336C20.111,46.65 20.005,47.049 19.935,47.533C19.869,48.013 19.836,48.581 19.836,49.239C19.836,51.604 20.442,52.786 21.653,52.786C21.864,52.786 22.118,52.72 22.416,52.588L22.416,53.773C22.106,53.946 21.759,54.033 21.374,54.033C19.435,54.033 18.465,52.449 18.465,49.282C18.465,47.57 18.701,46.297 19.172,45.462C19.648,44.626 20.373,44.209 21.349,44.209C21.709,44.209 22.065,44.304 22.416,44.494L22.416,44.494Z" style="fill:rgb(158,161,168);fill-rule:nonzero;"/>
            <path id="path1311" d="M22.732,44.339L24.004,44.339L24.581,47.874L24.68,48.513L24.884,49.902C24.918,50.138 24.947,50.353 24.971,50.547C25,50.742 25.025,50.918 25.046,51.075L25.108,51.546C25.12,51.451 25.13,51.366 25.139,51.292C25.147,51.217 25.155,51.155 25.164,51.106L25.331,49.995L25.548,48.538C25.569,48.406 25.587,48.284 25.604,48.172C25.625,48.06 25.643,47.961 25.66,47.874L26.28,44.339L27.483,44.339L25.604,53.915L24.581,53.915L22.732,44.339Z" style="fill:rgb(158,161,168);fill-rule:nonzero;"/>
        </g>
        <g id="text1290" transform="matrix(0.97861,0,0,1.02186,0,-1)">
            <path id="path1292" d="M2.044,81.354L3.737,81.354C4.437,81.354 4.958,81.521 5.3,81.855C5.732,82.287 5.948,82.948 5.948,83.838C5.948,84.522 5.833,85.072 5.602,85.488C5.376,85.899 5.05,86.155 4.626,86.254L6.381,90.893L5.077,90.893L3.329,86.223L3.329,90.893L2.044,90.893L2.044,81.354ZM3.329,85.58C3.827,85.58 4.179,85.465 4.385,85.234C4.591,85.004 4.694,84.614 4.694,84.067C4.694,83.77 4.671,83.517 4.626,83.307C4.585,83.097 4.517,82.926 4.422,82.794C4.332,82.662 4.212,82.565 4.064,82.504C3.92,82.442 3.747,82.411 3.545,82.411L3.329,82.411L3.329,85.58Z" style="fill:rgb(158,161,168);fill-rule:nonzero;"/>
            <path id="path1294" d="M7.382,81.354L10.798,81.354L10.798,82.442L8.667,82.442L8.667,85.463L10.557,85.463L10.557,86.55L8.667,86.55L8.667,89.806L10.798,89.806L10.798,90.893L7.382,90.893L7.382,81.354Z" style="fill:rgb(158,161,168);fill-rule:nonzero;"/>
            <path id="path1296" d="M11.978,81.354L13.263,81.354L13.263,89.806L15.364,89.806L15.364,90.893L11.978,90.893L11.978,81.354Z" style="fill:rgb(158,161,168);fill-rule:nonzero;"/>
            <path id="path1298" d="M22.543,81.509L22.543,82.664C22.213,82.504 21.937,82.423 21.715,82.423C21.41,82.423 21.148,82.499 20.93,82.652C20.712,82.8 20.531,83.031 20.386,83.344C20.246,83.657 20.141,84.054 20.071,84.536C20.006,85.014 19.973,85.58 19.973,86.235C19.973,88.591 20.576,89.769 21.783,89.769C21.993,89.769 22.246,89.703 22.543,89.571L22.543,90.751C22.234,90.924 21.888,91.011 21.505,91.011C19.573,91.011 18.607,89.433 18.607,86.278C18.607,84.573 18.842,83.305 19.311,82.473C19.785,81.641 20.508,81.225 21.48,81.225C21.838,81.225 22.193,81.319 22.543,81.509L22.543,81.509Z" style="fill:rgb(158,161,168);fill-rule:nonzero;"/>
            <path id="path1300" d="M22.858,81.354L24.124,81.354L24.699,84.876L24.798,85.512L25.002,86.896C25.034,87.131 25.063,87.345 25.088,87.539C25.117,87.732 25.142,87.907 25.162,88.064L25.224,88.533C25.236,88.439 25.247,88.354 25.255,88.28C25.263,88.206 25.271,88.144 25.28,88.095L25.446,86.989L25.663,85.537C25.683,85.405 25.702,85.284 25.718,85.172C25.739,85.061 25.757,84.962 25.774,84.876L26.392,81.354L27.59,81.354L25.718,90.893L24.699,90.893L22.858,81.354Z" style="fill:rgb(158,161,168);fill-rule:nonzero;"/>
        </g>
        <g id="text1332" transform="matrix(0.938223,0,0,1.06584,0,0)">
            <path id="path1334" d="M100.26,15.18L97.203,15.18L97.203,6.524L95.979,6.524L95.979,3.863L100.26,3.863L100.26,15.18Z" style="fill:rgb(158,161,168);fill-rule:nonzero;"/>
            <path id="path1336" d="M108.667,3.863L106.857,7.081C106.788,7.203 106.708,7.34 106.615,7.491C106.522,7.638 106.417,7.799 106.3,7.975C106.705,7.76 107.064,7.652 107.377,7.652C108.154,7.652 108.811,8.004 109.349,8.708C109.891,9.407 110.162,10.262 110.162,11.273C110.162,12.48 109.798,13.47 109.07,14.242C108.342,14.999 107.394,15.378 106.226,15.378C105.117,15.378 104.223,15.004 103.544,14.257C102.864,13.504 102.525,12.515 102.525,11.288C102.525,9.974 103.133,8.158 104.35,5.842L105.383,3.863L108.667,3.863ZM107.223,11.354C107.223,10.357 106.932,9.859 106.351,9.859C105.794,9.859 105.515,10.362 105.515,11.369C105.515,12.414 105.794,12.937 106.351,12.937C106.932,12.937 107.223,12.409 107.223,11.354Z" style="fill:rgb(158,161,168);fill-rule:nonzero;"/>
            <path id="path1338" d="M124.294,15.18L121.135,15.18L120.908,13.744L118.848,13.744L118.599,15.18L115.44,15.18L118.159,3.863L121.897,3.863L124.294,15.18ZM120.549,11.317L120.351,9.998C120.346,9.993 120.336,9.927 120.321,9.8C120.312,9.693 120.26,9.267 120.167,8.525C120.158,8.442 120.145,8.329 120.131,8.187C120.116,8.041 120.097,7.858 120.072,7.638L119.977,6.568C119.967,6.67 119.952,6.785 119.933,6.912C119.918,7.039 119.901,7.178 119.882,7.33C119.847,7.633 119.823,7.843 119.808,7.96C119.794,8.078 119.784,8.148 119.779,8.173L119.566,9.543L119.258,11.317L120.549,11.317Z" style="fill:rgb(158,161,168);fill-rule:nonzero;"/>
            <path id="path1340" d="M129.125,15.18L126.068,15.18L126.068,6.575L124.382,6.575L124.382,3.863L130.877,3.863L130.877,6.575L129.125,6.575L129.125,15.18Z" style="fill:rgb(158,161,168);fill-rule:nonzero;"/>
            <path id="path1342" d="M135.634,15.18L132.577,15.18L132.577,6.575L130.891,6.575L130.891,3.863L137.386,3.863L137.386,6.575L135.634,6.575L135.634,15.18Z" style="fill:rgb(158,161,168);fill-rule:nonzero;"/>
            <path id="path1344" d="M146.079,15.18L142.92,15.18L142.692,13.744L140.633,13.744L140.383,15.18L137.224,15.18L139.944,3.863L143.682,3.863L146.079,15.18ZM142.333,11.317L142.135,9.998C142.13,9.993 142.121,9.927 142.106,9.8C142.096,9.693 142.045,9.267 141.952,8.525C141.942,8.442 141.93,8.329 141.915,8.187C141.901,8.041 141.881,7.858 141.857,7.638L141.761,6.568C141.751,6.67 141.737,6.785 141.717,6.912C141.703,7.039 141.686,7.178 141.666,7.33C141.632,7.633 141.607,7.843 141.593,7.96C141.578,8.078 141.568,8.148 141.563,8.173L141.351,9.543L141.043,11.317L142.333,11.317Z" style="fill:rgb(158,161,168);fill-rule:nonzero;"/>
            <path id="path1346" d="M153.321,11.698L153.145,14.968C152.465,15.241 151.857,15.378 151.32,15.378C150.054,15.378 148.989,14.914 148.124,13.985C147.156,12.945 146.672,11.471 146.672,9.565C146.672,7.782 147.127,6.35 148.036,5.27C148.945,4.195 150.159,3.658 151.679,3.658C152.172,3.658 152.676,3.75 153.189,3.936L153.189,7.169C152.734,6.714 152.268,6.487 151.789,6.487C151.163,6.487 150.675,6.753 150.323,7.286C149.971,7.823 149.795,8.566 149.795,9.514C149.795,9.974 149.839,10.384 149.927,10.746C150.015,11.107 150.139,11.413 150.301,11.662C150.467,11.911 150.67,12.102 150.909,12.234C151.149,12.365 151.422,12.431 151.73,12.431C152.258,12.431 152.788,12.187 153.321,11.698L153.321,11.698Z" style="fill:rgb(158,161,168);fill-rule:nonzero;"/>
            <path id="path1348" d="M163.091,15.18L159.793,15.18L157.763,9.961L157.843,15.18L154.787,15.18L154.787,3.863L157.843,3.863L157.763,8.715L159.566,3.863L162.791,3.863L160.35,9.324L163.091,15.18Z" style="fill:rgb(158,161,168);fill-rule:nonzero;"/>
            <path id="path1350" d="M172.803,3.929C172.535,4.461 172.295,5.006 172.085,5.563C171.875,6.116 171.694,6.699 171.543,7.315C171.25,8.503 171.103,9.651 171.103,10.76C171.103,11.87 171.25,13.018 171.543,14.205C171.694,14.821 171.875,15.405 172.085,15.957C172.295,16.509 172.535,17.052 172.803,17.584L170.604,18.764C169.187,16.219 168.479,13.55 168.479,10.76C168.479,7.98 169.187,5.309 170.604,2.749L172.803,3.929Z" style="fill:rgb(158,161,168);fill-rule:nonzero;"/>
            <path id="path1352" d="M173.925,14.902L173.925,11.347C174.526,12.168 175.176,12.578 175.875,12.578C176.139,12.578 176.354,12.51 176.52,12.373C176.686,12.231 176.769,12.055 176.769,11.845C176.769,11.542 176.588,11.246 176.226,10.958L175.728,10.57C175.396,10.32 175.112,10.074 174.878,9.829C174.643,9.58 174.453,9.326 174.306,9.067C174.159,8.803 174.052,8.532 173.984,8.253C173.915,7.975 173.881,7.682 173.881,7.374C173.881,6.846 174.003,6.294 174.247,5.717C174.37,5.449 174.511,5.204 174.673,4.984C174.834,4.76 175.02,4.562 175.23,4.391C175.806,3.902 176.503,3.658 177.319,3.658C178.047,3.658 178.78,3.851 179.518,4.237L179.518,7.696C179.268,7.31 178.985,7.007 178.667,6.787C178.35,6.563 178.037,6.45 177.729,6.45C177.495,6.45 177.302,6.519 177.15,6.656C176.994,6.787 176.916,6.946 176.916,7.132C176.916,7.435 177.123,7.735 177.539,8.034L178.022,8.393C178.667,8.857 179.129,9.333 179.408,9.822C179.691,10.311 179.833,10.882 179.833,11.537C179.833,12.651 179.493,13.57 178.814,14.293C178.135,15.016 177.275,15.378 176.234,15.378C175.516,15.378 174.746,15.219 173.925,14.902L173.925,14.902Z" style="fill:rgb(158,161,168);fill-rule:nonzero;"/>
            <path id="path1354" d="M185.645,3.863L188.702,3.863L188.702,11.867C188.702,12.537 188.597,13.079 188.387,13.494C188.182,13.929 187.839,14.323 187.361,14.674C186.716,15.144 185.931,15.378 185.008,15.378C183.962,15.378 183.085,15.119 182.376,14.601C181.477,13.941 181.028,12.886 181.028,11.435L181.028,3.863L184.084,3.863L184.084,11.163C184.084,11.657 184.143,12.006 184.26,12.212C184.382,12.417 184.585,12.519 184.868,12.519C185.162,12.519 185.364,12.424 185.477,12.234C185.589,12.033 185.645,11.679 185.645,11.171L185.645,3.863Z" style="fill:rgb(158,161,168);fill-rule:nonzero;"/>
            <path id="path1356" d="M190.051,14.902L190.051,11.347C190.652,12.168 191.302,12.578 192,12.578C192.264,12.578 192.479,12.51 192.645,12.373C192.812,12.231 192.895,12.055 192.895,11.845C192.895,11.542 192.714,11.246 192.352,10.958L191.854,10.57C191.521,10.32 191.238,10.074 191.004,9.829C190.769,9.58 190.578,9.326 190.432,9.067C190.285,8.803 190.178,8.532 190.109,8.253C190.041,7.975 190.007,7.682 190.007,7.374C190.007,6.846 190.129,6.294 190.373,5.717C190.495,5.449 190.637,5.204 190.798,4.984C190.96,4.76 191.145,4.562 191.355,4.391C191.932,3.902 192.628,3.658 193.444,3.658C194.172,3.658 194.905,3.851 195.643,4.237L195.643,7.696C195.394,7.31 195.111,7.007 194.793,6.787C194.475,6.563 194.163,6.45 193.855,6.45C193.62,6.45 193.427,6.519 193.276,6.656C193.119,6.787 193.041,6.946 193.041,7.132C193.041,7.435 193.249,7.735 193.664,8.034L194.148,8.393C194.793,8.857 195.255,9.333 195.533,9.822C195.817,10.311 195.959,10.882 195.959,11.537C195.959,12.651 195.619,13.57 194.94,14.293C194.26,15.016 193.4,15.378 192.36,15.378C191.641,15.378 190.872,15.219 190.051,14.902L190.051,14.902Z" style="fill:rgb(158,161,168);fill-rule:nonzero;"/>
            <path id="path1358" d="M201.251,15.18L198.194,15.18L198.194,6.575L196.508,6.575L196.508,3.863L203.002,3.863L203.002,6.575L201.251,6.575L201.251,15.18Z" style="fill:rgb(158,161,168);fill-rule:nonzero;"/>
            <path id="path1360" d="M211.696,15.18L208.537,15.18L208.309,13.744L206.25,13.744L206,15.18L202.841,15.18L205.561,3.863L209.299,3.863L211.696,15.18ZM207.95,11.317L207.752,9.998C207.747,9.993 207.738,9.927 207.723,9.8C207.713,9.693 207.662,9.267 207.569,8.525C207.559,8.442 207.547,8.329 207.532,8.187C207.518,8.041 207.498,7.858 207.474,7.638L207.378,6.568C207.368,6.67 207.354,6.785 207.334,6.912C207.32,7.039 207.303,7.178 207.283,7.33C207.249,7.633 207.224,7.843 207.21,7.96C207.195,8.078 207.185,8.148 207.18,8.173L206.968,9.543L206.66,11.317L207.95,11.317Z" style="fill:rgb(158,161,168);fill-rule:nonzero;"/>
            <rect id="path1363" x="212.575" y="3.863" width="3.057" height="11.317" style="fill:rgb(158,161,168);fill-rule:nonzero;"/>
            <path id="path1365" d="M217.208,15.18L217.208,3.863L220.125,3.863L221.657,7.836C221.74,8.07 221.833,8.339 221.936,8.642C222.043,8.945 222.16,9.294 222.287,9.69L222.603,10.687C222.49,9.705 222.405,8.864 222.346,8.165C222.287,7.467 222.258,6.88 222.258,6.406L222.258,3.863L225.175,3.863L225.175,15.18L222.258,15.18L220.719,11.017C220.558,10.572 220.411,10.157 220.279,9.771C220.152,9.38 220.04,9.008 219.942,8.657C220.005,9.453 220.052,10.147 220.081,10.738C220.11,11.33 220.125,11.848 220.125,12.292L220.125,15.18L217.208,15.18Z" style="fill:rgb(158,161,168);fill-rule:nonzero;"/>
            <path id="path1367" d="M226.539,17.584C227.081,16.514 227.499,15.388 227.792,14.205C228.085,13.018 228.232,11.87 228.232,10.76C228.232,9.612 228.083,8.464 227.785,7.315C227.638,6.724 227.46,6.15 227.25,5.593C227.044,5.031 226.807,4.476 226.539,3.929L228.738,2.749C230.155,5.295 230.863,7.965 230.863,10.76C230.863,13.55 230.155,16.219 228.738,18.764L226.539,17.584Z" style="fill:rgb(158,161,168);fill-rule:nonzero;"/>
            <path id="path1369" d="M245.017,15.18L241.712,15.18L240.202,11.149C240.187,11.08 240.16,10.99 240.121,10.878C240.087,10.765 240.043,10.631 239.989,10.474L240.011,11.222L240.011,15.18L236.969,15.18L236.969,3.863L240.099,3.863C241.477,3.863 242.508,4.134 243.192,4.676C244.062,5.37 244.497,6.357 244.497,7.638C244.497,9.006 243.913,9.952 242.745,10.474L245.017,15.18ZM240.026,9.104L240.231,9.104C240.583,9.104 240.876,8.969 241.11,8.701C241.345,8.432 241.462,8.09 241.462,7.674C241.462,6.829 241.02,6.406 240.136,6.406L240.026,6.406L240.026,9.104Z" style="fill:rgb(158,161,168);fill-rule:nonzero;"/>
            <path id="path1371" d="M246.029,15.18L246.029,3.863L251.709,3.863L251.709,6.524L249.085,6.524L249.085,8.173L251.438,8.173L251.438,10.731L249.085,10.731L249.085,12.461L251.709,12.461L251.709,15.18L246.029,15.18Z" style="fill:rgb(158,161,168);fill-rule:nonzero;"/>
            <path id="path1373" d="M258.358,15.18L253.007,15.18L253.007,3.863L256.063,3.863L256.063,12.461L258.358,12.461L258.358,15.18Z" style="fill:rgb(158,161,168);fill-rule:nonzero;"/>
            <path id="path1375" d="M259.281,15.18L259.281,3.863L264.962,3.863L264.962,6.524L262.338,6.524L262.338,8.173L264.691,8.173L264.691,10.731L262.338,10.731L262.338,12.461L264.962,12.461L264.962,15.18L259.281,15.18Z" style="fill:rgb(158,161,168);fill-rule:nonzero;"/>
            <path id="path1377" d="M274.41,15.18L271.251,15.18L271.024,13.744L268.964,13.744L268.715,15.18L265.556,15.18L268.275,3.863L272.013,3.863L274.41,15.18ZM270.665,11.317L270.467,9.998C270.462,9.993 270.452,9.927 270.437,9.8C270.427,9.693 270.376,9.267 270.283,8.525C270.273,8.442 270.261,8.329 270.247,8.187C270.232,8.041 270.212,7.858 270.188,7.638L270.093,6.568C270.083,6.67 270.068,6.785 270.049,6.912C270.034,7.039 270.017,7.178 269.997,7.33C269.963,7.633 269.939,7.843 269.924,7.96C269.909,8.078 269.9,8.148 269.895,8.173L269.682,9.543L269.374,11.317L270.665,11.317Z" style="fill:rgb(158,161,168);fill-rule:nonzero;"/>
            <path id="path1380" d="M275.048,14.902L275.048,11.347C275.649,12.168 276.299,12.578 276.998,12.578C277.261,12.578 277.476,12.51 277.643,12.373C277.809,12.231 277.892,12.055 277.892,11.845C277.892,11.542 277.711,11.246 277.349,10.958L276.851,10.57C276.519,10.32 276.235,10.074 276.001,9.829C275.766,9.58 275.576,9.326 275.429,9.067C275.282,8.803 275.175,8.532 275.106,8.253C275.038,7.975 275.004,7.682 275.004,7.374C275.004,6.846 275.126,6.294 275.37,5.717C275.492,5.449 275.634,5.204 275.795,4.984C275.957,4.76 276.142,4.562 276.353,4.391C276.929,3.902 277.625,3.658 278.442,3.658C279.17,3.658 279.903,3.851 280.64,4.237L280.64,7.696C280.391,7.31 280.108,7.007 279.79,6.787C279.473,6.563 279.16,6.45 278.852,6.45C278.617,6.45 278.424,6.519 278.273,6.656C278.117,6.787 278.038,6.946 278.038,7.132C278.038,7.435 278.246,7.735 278.661,8.034L279.145,8.393C279.79,8.857 280.252,9.333 280.531,9.822C280.814,10.311 280.956,10.882 280.956,11.537C280.956,12.651 280.616,13.57 279.937,14.293C279.258,15.016 278.398,15.378 277.357,15.378C276.638,15.378 275.869,15.219 275.048,14.902L275.048,14.902Z" style="fill:rgb(158,161,168);fill-rule:nonzero;"/>
            <path id="path1382" d="M282.15,15.18L282.15,3.863L287.831,3.863L287.831,6.524L285.207,6.524L285.207,8.173L287.56,8.173L287.56,10.731L285.207,10.731L285.207,12.461L287.831,12.461L287.831,15.18L282.15,15.18Z" style="fill:rgb(158,161,168);fill-rule:nonzero;"/>
        </g>
    </g>
</svg>
