<?xml version="1.0" encoding="UTF-8" standalone="no"?>
<!DOCTYPE svg PUBLIC "-//W3C//DTD SVG 1.1//EN" "http://www.w3.org/Graphics/SVG/1.1/DTD/svg11.dtd">
<svg width="100%" height="100%" viewBox="0 0 105 380" version="1.1" xmlns="http://www.w3.org/2000/svg" xmlns:xlink="http://www.w3.org/1999/xlink" xml:space="preserve" xmlns:serif="http://www.serif.com/" style="fill-rule:evenodd;clip-rule:evenodd;stroke-linejoin:round;stroke-miterlimit:2;">
    <g id="Layer-2" serif:id="Layer 2">
        <g id="text989">
        </g>
        <rect id="rect4689" x="0" y="0" width="105" height="380" style="fill:rgb(44,45,48);fill-rule:nonzero;"/>
        <g id="text4987">
        </g>
        <g id="text1042">
        </g>
        <g id="text2090">
        </g>
        <g id="g895" transform="matrix(1,0,0,0.84053,8.9375,60.2797)">
            <path id="path1317" d="M28.102,377.859L28.102,369.818L30.174,369.818L31.263,372.641C31.322,372.807 31.388,372.998 31.461,373.214C31.537,373.429 31.621,373.677 31.711,373.958L31.935,374.667C31.855,373.969 31.794,373.372 31.753,372.875C31.711,372.378 31.69,371.962 31.69,371.625L31.69,369.818L33.763,369.818L33.763,377.859L31.69,377.859L30.596,374.901C30.482,374.585 30.378,374.29 30.284,374.016C30.194,373.738 30.114,373.474 30.044,373.224C30.089,373.79 30.122,374.283 30.143,374.703C30.164,375.123 30.174,375.491 30.174,375.807L30.174,377.859L28.102,377.859Z" style="fill:rgb(158,161,168);fill-rule:nonzero;"/>
            <path id="path1319" d="M38.497,377.859L36.326,377.859L36.326,374.453L34.331,369.818L36.596,369.818L36.987,371.01C37.063,371.243 37.131,371.467 37.19,371.682C37.253,371.898 37.308,372.104 37.357,372.302C37.437,372.007 37.506,371.753 37.565,371.542C37.624,371.326 37.676,371.153 37.721,371.021L38.117,369.818L40.367,369.818L38.497,374.453L38.497,377.859Z" style="fill:rgb(158,161,168);fill-rule:nonzero;"/>
            <path id="path1321" d="M40.576,377.661L40.576,375.135C41.003,375.719 41.464,376.01 41.961,376.01C42.148,376.01 42.301,375.962 42.419,375.865C42.537,375.764 42.596,375.639 42.596,375.49C42.596,375.274 42.468,375.064 42.211,374.859L41.857,374.583C41.621,374.406 41.419,374.231 41.253,374.057C41.086,373.88 40.95,373.7 40.846,373.516C40.742,373.328 40.666,373.135 40.617,372.937C40.569,372.74 40.544,372.531 40.544,372.312C40.544,371.937 40.631,371.545 40.805,371.135C40.891,370.944 40.992,370.771 41.107,370.615C41.221,370.455 41.353,370.314 41.503,370.193C41.912,369.845 42.407,369.672 42.987,369.672C43.504,369.672 44.025,369.809 44.549,370.083L44.549,372.542C44.372,372.267 44.171,372.052 43.945,371.896C43.72,371.736 43.497,371.656 43.279,371.656C43.112,371.656 42.975,371.705 42.867,371.802C42.756,371.896 42.701,372.009 42.701,372.141C42.701,372.356 42.848,372.569 43.143,372.781L43.487,373.036C43.945,373.366 44.273,373.705 44.471,374.052C44.673,374.399 44.773,374.806 44.773,375.271C44.773,376.062 44.532,376.715 44.049,377.229C43.567,377.743 42.956,378 42.216,378C41.706,378 41.159,377.887 40.576,377.661L40.576,377.661Z" style="fill:rgb(158,161,168);fill-rule:nonzero;"/>
            <path id="path1323" d="M48.534,377.859L46.362,377.859L46.362,371.745L45.164,371.745L45.164,369.818L49.779,369.818L49.779,371.745L48.534,371.745L48.534,377.859Z" style="fill:rgb(158,161,168);fill-rule:nonzero;"/>
            <path id="path1325" d="M55.732,377.859L53.56,377.859L53.56,374.625L52.523,374.625L52.523,377.859L50.352,377.859L50.352,369.818L52.523,369.818L52.523,372.661L53.56,372.661L53.56,369.818L55.732,369.818L55.732,377.859Z" style="fill:rgb(158,161,168);fill-rule:nonzero;"/>
            <rect id="path1327" x="56.852" y="369.818" width="2.172" height="8.042" style="fill:rgb(158,161,168);fill-rule:nonzero;"/>
        </g>
        <g id="text884">
            <path id="path887" d="M7.679,17.754L7.679,3.681L12.1,3.681C13.752,3.681 14.977,4.046 15.773,4.775C16.581,5.522 16.985,6.488 16.985,7.673C16.985,9.435 16.11,10.389 14.36,10.535C15.357,10.681 16.086,11.009 16.548,11.52C17.015,12.03 17.249,12.765 17.249,13.725C17.249,14.934 16.857,15.907 16.074,16.642C15.296,17.383 14.272,17.754 13.002,17.754L7.679,17.754ZM11.48,14.701C11.553,14.707 11.617,14.713 11.671,14.719L11.808,14.719C12.282,14.719 12.659,14.594 12.938,14.345C13.224,14.096 13.367,13.762 13.367,13.342C13.367,12.923 13.224,12.595 12.938,12.358C12.659,12.121 12.273,12.003 11.781,12.003L11.48,12.003L11.48,14.701ZM11.48,9.15L11.735,9.15C12.191,9.15 12.549,9.043 12.811,8.831C13.078,8.618 13.212,8.32 13.212,7.937C13.212,7.123 12.765,6.716 11.872,6.716C11.829,6.716 11.775,6.719 11.708,6.725C11.647,6.725 11.571,6.728 11.48,6.734L11.48,9.15Z" style="fill:rgb(158,161,168);fill-rule:nonzero;"/>
            <rect id="path889" x="18.872" y="3.681" width="3.801" height="14.073" style="fill:rgb(158,161,168);fill-rule:nonzero;"/>
            <path id="path891" d="M29.527,9.615L34.831,9.615L34.831,10.198C34.831,12.908 34.427,14.859 33.619,16.049C32.738,17.35 31.435,18 29.709,18C28.014,18 26.683,17.362 25.717,16.086C24.757,14.798 24.277,13.03 24.277,10.781C24.277,8.503 24.76,6.707 25.726,5.395C26.692,4.082 28.014,3.426 29.691,3.426C31.915,3.426 33.528,4.586 34.531,6.908L30.848,8.257C30.794,7.813 30.666,7.464 30.465,7.208C30.271,6.947 30.025,6.816 29.727,6.816C28.682,6.816 28.16,8.253 28.16,11.128C28.16,12.349 28.275,13.236 28.506,13.789C28.737,14.342 29.104,14.618 29.609,14.618C29.809,14.618 29.992,14.57 30.156,14.473C30.32,14.375 30.456,14.239 30.566,14.062C30.681,13.886 30.769,13.674 30.83,13.424C30.897,13.169 30.93,12.887 30.93,12.577L29.527,12.577L29.527,9.615Z" style="fill:rgb(158,161,168);fill-rule:nonzero;"/>
            <path id="path893" d="M36.445,17.754L36.445,3.681L40.865,3.681C42.518,3.681 43.742,4.046 44.538,4.775C45.347,5.522 45.751,6.488 45.751,7.673C45.751,9.435 44.876,10.389 43.126,10.535C44.122,10.681 44.851,11.009 45.313,11.52C45.781,12.03 46.015,12.765 46.015,13.725C46.015,14.934 45.623,15.907 44.839,16.642C44.061,17.383 43.038,17.754 41.768,17.754L36.445,17.754ZM40.245,14.701C40.318,14.707 40.382,14.713 40.437,14.719L40.574,14.719C41.048,14.719 41.424,14.594 41.704,14.345C41.989,14.096 42.132,13.762 42.132,13.342C42.132,12.923 41.989,12.595 41.704,12.358C41.424,12.121 41.038,12.003 40.546,12.003L40.245,12.003L40.245,14.701ZM40.245,9.15L40.501,9.15C40.956,9.15 41.315,9.043 41.576,8.831C41.844,8.618 41.977,8.32 41.977,7.937C41.977,7.123 41.531,6.716 40.637,6.716C40.595,6.716 40.54,6.719 40.473,6.725C40.413,6.725 40.337,6.728 40.245,6.734L40.245,9.15Z" style="fill:rgb(158,161,168);fill-rule:nonzero;"/>
            <path id="path895" d="M53.38,3.681L57.18,3.681L57.18,13.634C57.18,14.467 57.05,15.141 56.788,15.658C56.533,16.198 56.108,16.687 55.512,17.125C54.71,17.708 53.735,18 52.587,18C51.286,18 50.196,17.678 49.314,17.034C48.196,16.214 47.637,14.901 47.637,13.096L47.637,3.681L51.438,3.681L51.438,12.759C51.438,13.373 51.511,13.807 51.657,14.062C51.809,14.318 52.061,14.445 52.413,14.445C52.778,14.445 53.03,14.327 53.17,14.09C53.31,13.841 53.38,13.4 53.38,12.768L53.38,3.681Z" style="fill:rgb(158,161,168);fill-rule:nonzero;"/>
            <path id="path897" d="M64.071,17.754L60.27,17.754L60.27,7.053L58.174,7.053L58.174,3.681L66.249,3.681L66.249,7.053L64.071,7.053L64.071,17.754Z" style="fill:rgb(158,161,168);fill-rule:nonzero;"/>
            <path id="path899" d="M72.165,17.754L68.364,17.754L68.364,7.053L66.268,7.053L66.268,3.681L74.343,3.681L74.343,7.053L72.165,7.053L72.165,17.754Z" style="fill:rgb(158,161,168);fill-rule:nonzero;"/>
            <path id="path901" d="M85.8,10.763C85.8,12.908 85.311,14.652 84.333,15.995C83.36,17.332 82.094,18 80.532,18C79.146,18 77.959,17.487 76.968,16.46C75.722,15.159 75.1,13.209 75.1,10.608C75.1,8.117 75.75,6.212 77.05,4.893C78.016,3.915 79.162,3.426 80.486,3.426C82.109,3.426 83.4,4.088 84.36,5.413C85.32,6.737 85.8,8.521 85.8,10.763ZM81.854,10.79C81.854,8.244 81.404,6.971 80.505,6.971C80.055,6.971 79.696,7.306 79.429,7.974C79.168,8.594 79.037,9.505 79.037,10.708C79.037,11.893 79.159,12.814 79.402,13.47C79.651,14.12 79.994,14.445 80.432,14.445C80.881,14.445 81.228,14.123 81.471,13.479C81.726,12.835 81.854,11.939 81.854,10.79L81.854,10.79Z" style="fill:rgb(158,161,168);fill-rule:nonzero;"/>
            <path id="path903" d="M87.413,17.754L87.413,3.681L91.041,3.681L92.946,8.621C93.049,8.913 93.165,9.247 93.292,9.624C93.426,10 93.572,10.435 93.73,10.927L94.122,12.167C93.982,10.945 93.876,9.9 93.803,9.031C93.73,8.162 93.693,7.433 93.693,6.844L93.693,3.681L97.321,3.681L97.321,17.754L93.693,17.754L91.779,12.577C91.579,12.024 91.396,11.507 91.232,11.027C91.074,10.541 90.935,10.079 90.813,9.642C90.892,10.632 90.95,11.495 90.986,12.23C91.023,12.966 91.041,13.61 91.041,14.163L91.041,17.754L87.413,17.754Z" style="fill:rgb(158,161,168);fill-rule:nonzero;"/>
        </g>
    </g>
</svg>
