<?xml version="1.0" encoding="UTF-8" standalone="no"?>
<!DOCTYPE svg PUBLIC "-//W3C//DTD SVG 1.1//EN" "http://www.w3.org/Graphics/SVG/1.1/DTD/svg11.dtd">
<svg width="100%" height="100%" viewBox="0 0 105 380" version="1.1" xmlns="http://www.w3.org/2000/svg" xmlns:xlink="http://www.w3.org/1999/xlink" xml:space="preserve" xmlns:serif="http://www.serif.com/" style="fill-rule:evenodd;clip-rule:evenodd;stroke-linejoin:round;stroke-miterlimit:2;">
    <g id="Layer-2" serif:id="Layer 2">
        <g id="text989">
        </g>
        <rect id="rect4689" x="0" y="0" width="105" height="380" style="fill:rgb(44,45,48);fill-rule:nonzero;"/>
        <g id="text4987">
        </g>
        <g id="text1042">
        </g>
        <g id="text2090">
        </g>
        <g id="g895" transform="matrix(1,0,0,1,8.9375,0)">
            <path id="path1317" d="M28.102,377.859L28.102,369.818L30.174,369.818L31.263,372.641C31.322,372.807 31.388,372.998 31.461,373.214C31.537,373.429 31.621,373.677 31.711,373.958L31.935,374.667C31.855,373.969 31.794,373.372 31.753,372.875C31.711,372.378 31.69,371.962 31.69,371.625L31.69,369.818L33.763,369.818L33.763,377.859L31.69,377.859L30.596,374.901C30.482,374.585 30.378,374.29 30.284,374.016C30.194,373.738 30.114,373.474 30.044,373.224C30.089,373.79 30.122,374.283 30.143,374.703C30.164,375.123 30.174,375.491 30.174,375.807L30.174,377.859L28.102,377.859Z" style="fill:rgb(158,161,168);fill-rule:nonzero;"/>
            <path id="path1319" d="M38.497,377.859L36.326,377.859L36.326,374.453L34.331,369.818L36.596,369.818L36.987,371.01C37.063,371.243 37.131,371.467 37.19,371.682C37.253,371.898 37.308,372.104 37.357,372.302C37.437,372.007 37.506,371.753 37.565,371.542C37.624,371.326 37.676,371.153 37.721,371.021L38.117,369.818L40.367,369.818L38.497,374.453L38.497,377.859Z" style="fill:rgb(158,161,168);fill-rule:nonzero;"/>
            <path id="path1321" d="M40.576,377.661L40.576,375.135C41.003,375.719 41.464,376.01 41.961,376.01C42.148,376.01 42.301,375.962 42.419,375.865C42.537,375.764 42.596,375.639 42.596,375.49C42.596,375.274 42.468,375.064 42.211,374.859L41.857,374.583C41.621,374.406 41.419,374.231 41.253,374.057C41.086,373.88 40.95,373.7 40.846,373.516C40.742,373.328 40.666,373.135 40.617,372.937C40.569,372.74 40.544,372.531 40.544,372.312C40.544,371.937 40.631,371.545 40.805,371.135C40.891,370.944 40.992,370.771 41.107,370.615C41.221,370.455 41.353,370.314 41.503,370.193C41.912,369.845 42.407,369.672 42.987,369.672C43.504,369.672 44.025,369.809 44.549,370.083L44.549,372.542C44.372,372.267 44.171,372.052 43.945,371.896C43.72,371.736 43.497,371.656 43.279,371.656C43.112,371.656 42.975,371.705 42.867,371.802C42.756,371.896 42.701,372.009 42.701,372.141C42.701,372.356 42.848,372.569 43.143,372.781L43.487,373.036C43.945,373.366 44.273,373.705 44.471,374.052C44.673,374.399 44.773,374.806 44.773,375.271C44.773,376.062 44.532,376.715 44.049,377.229C43.567,377.743 42.956,378 42.216,378C41.706,378 41.159,377.887 40.576,377.661L40.576,377.661Z" style="fill:rgb(158,161,168);fill-rule:nonzero;"/>
            <path id="path1323" d="M48.534,377.859L46.362,377.859L46.362,371.745L45.164,371.745L45.164,369.818L49.779,369.818L49.779,371.745L48.534,371.745L48.534,377.859Z" style="fill:rgb(158,161,168);fill-rule:nonzero;"/>
            <path id="path1325" d="M55.732,377.859L53.56,377.859L53.56,374.625L52.523,374.625L52.523,377.859L50.352,377.859L50.352,369.818L52.523,369.818L52.523,372.661L53.56,372.661L53.56,369.818L55.732,369.818L55.732,377.859Z" style="fill:rgb(158,161,168);fill-rule:nonzero;"/>
            <rect id="path1327" x="56.852" y="369.818" width="2.172" height="8.042" style="fill:rgb(158,161,168);fill-rule:nonzero;"/>
        </g>
        <g id="text868" transform="matrix(0.967049,0,0,1,1.72991,0)">
            <path id="path870" d="M3.382,17.754L3.382,3.681L7.802,3.681C9.455,3.681 10.679,4.046 11.475,4.775C12.283,5.522 12.688,6.488 12.688,7.673C12.688,9.435 11.813,10.389 10.063,10.535C11.059,10.681 11.788,11.009 12.25,11.52C12.718,12.03 12.952,12.765 12.952,13.725C12.952,14.934 12.56,15.907 11.776,16.642C10.998,17.383 9.974,17.754 8.704,17.754L3.382,17.754ZM7.182,14.701C7.255,14.707 7.319,14.713 7.374,14.719L7.51,14.719C7.984,14.719 8.361,14.594 8.641,14.345C8.926,14.096 9.069,13.762 9.069,13.342C9.069,12.923 8.926,12.595 8.641,12.358C8.361,12.121 7.975,12.003 7.483,12.003L7.182,12.003L7.182,14.701ZM7.182,9.15L7.438,9.15C7.893,9.15 8.252,9.043 8.513,8.831C8.78,8.618 8.914,8.32 8.914,7.937C8.914,7.123 8.467,6.716 7.574,6.716C7.532,6.716 7.477,6.719 7.41,6.725C7.349,6.725 7.273,6.728 7.182,6.734L7.182,9.15Z" style="fill:rgb(158,161,168);fill-rule:nonzero;"/>
            <rect id="path872" x="14.574" y="3.681" width="3.801" height="14.073" style="fill:rgb(158,161,168);fill-rule:nonzero;"/>
            <path id="path874" d="M25.229,9.615L30.534,9.615L30.534,10.198C30.534,12.908 30.13,14.859 29.322,16.049C28.441,17.35 27.137,18 25.411,18C23.716,18 22.385,17.362 21.419,16.086C20.459,14.798 19.979,13.03 19.979,10.781C19.979,8.503 20.462,6.707 21.428,5.395C22.395,4.082 23.716,3.426 25.393,3.426C27.617,3.426 29.23,4.586 30.233,6.908L26.551,8.257C26.496,7.813 26.368,7.464 26.168,7.208C25.974,6.947 25.727,6.816 25.43,6.816C24.385,6.816 23.862,8.253 23.862,11.128C23.862,12.349 23.977,13.236 24.208,13.789C24.439,14.342 24.807,14.618 25.311,14.618C25.512,14.618 25.694,14.57 25.858,14.473C26.022,14.375 26.159,14.239 26.268,14.062C26.384,13.886 26.472,13.674 26.533,13.424C26.599,13.169 26.633,12.887 26.633,12.577L25.229,12.577L25.229,9.615Z" style="fill:rgb(158,161,168);fill-rule:nonzero;"/>
            <path id="path876" d="M32.147,17.754L32.147,3.681L35.775,3.681L37.68,8.621C37.783,8.913 37.898,9.247 38.026,9.624C38.16,10 38.306,10.435 38.464,10.927L38.855,12.167C38.716,10.945 38.609,9.9 38.536,9.031C38.464,8.162 38.427,7.433 38.427,6.844L38.427,3.681L42.055,3.681L42.055,17.754L38.427,17.754L36.513,12.577C36.313,12.024 36.13,11.507 35.966,11.027C35.808,10.541 35.668,10.079 35.547,9.642C35.626,10.632 35.684,11.495 35.72,12.23C35.757,12.966 35.775,13.61 35.775,14.163L35.775,17.754L32.147,17.754Z" style="fill:rgb(158,161,168);fill-rule:nonzero;"/>
            <path id="path878" d="M49.775,3.681L53.576,3.681L53.576,13.634C53.576,14.467 53.445,15.141 53.184,15.658C52.928,16.198 52.503,16.687 51.908,17.125C51.105,17.708 50.13,18 48.982,18C47.681,18 46.591,17.678 45.71,17.034C44.592,16.214 44.033,14.901 44.033,13.096L44.033,3.681L47.833,3.681L47.833,12.759C47.833,13.373 47.906,13.807 48.052,14.062C48.204,14.318 48.456,14.445 48.809,14.445C49.173,14.445 49.425,14.327 49.565,14.09C49.705,13.841 49.775,13.4 49.775,12.768L49.775,3.681Z" style="fill:rgb(158,161,168);fill-rule:nonzero;"/>
            <path id="path880" d="M70.036,17.754L66.063,17.754L65.78,11.337L65.661,8.776C65.619,9.268 65.57,9.739 65.516,10.189C65.461,10.632 65.394,11.064 65.315,11.483L64.121,17.754L61.022,17.754L60.001,11.474C59.941,11.109 59.859,10.484 59.755,9.596C59.743,9.463 59.716,9.189 59.673,8.776L59.582,11.374L59.245,17.754L55.198,17.754L56.839,3.681L61.569,3.681L62.362,8.421C62.429,8.809 62.487,9.232 62.535,9.687C62.59,10.143 62.638,10.638 62.681,11.173C62.76,10.28 62.869,9.481 63.009,8.776L63.975,3.681L68.669,3.681L70.036,17.754Z" style="fill:rgb(158,161,168);fill-rule:nonzero;"/>
            <path id="path882" d="M71.741,17.754L71.741,3.681L76.161,3.681C77.814,3.681 79.039,4.046 79.835,4.775C80.643,5.522 81.047,6.488 81.047,7.673C81.047,9.435 80.172,10.389 78.422,10.535C79.418,10.681 80.148,11.009 80.609,11.52C81.077,12.03 81.311,12.765 81.311,13.725C81.311,14.934 80.919,15.907 80.135,16.642C79.358,17.383 78.334,17.754 77.064,17.754L71.741,17.754ZM75.542,14.701C75.615,14.707 75.678,14.713 75.733,14.719L75.87,14.719C76.344,14.719 76.72,14.594 77,14.345C77.286,14.096 77.428,13.762 77.428,13.342C77.428,12.923 77.286,12.595 77,12.358C76.72,12.121 76.335,12.003 75.842,12.003L75.542,12.003L75.542,14.701ZM75.542,9.15L75.797,9.15C76.253,9.15 76.611,9.043 76.872,8.831C77.14,8.618 77.273,8.32 77.273,7.937C77.273,7.123 76.827,6.716 75.934,6.716C75.891,6.716 75.836,6.719 75.77,6.725C75.709,6.725 75.633,6.728 75.542,6.734L75.542,9.15Z" style="fill:rgb(158,161,168);fill-rule:nonzero;"/>
            <path id="path884" d="M82.934,17.754L82.934,3.681L89.997,3.681L89.997,6.99L86.734,6.99L86.734,9.04L89.66,9.04L89.66,12.221L86.734,12.221L86.734,14.372L89.997,14.372L89.997,17.754L82.934,17.754Z" style="fill:rgb(158,161,168);fill-rule:nonzero;"/>
            <path id="path886" d="M101.618,17.754L97.508,17.754L95.63,12.741C95.612,12.656 95.579,12.543 95.53,12.404C95.487,12.264 95.433,12.097 95.366,11.902L95.393,12.832L95.393,17.754L91.611,17.754L91.611,3.681L95.503,3.681C97.216,3.681 98.498,4.018 99.349,4.693C100.431,5.556 100.971,6.783 100.971,8.375C100.971,10.076 100.245,11.252 98.793,11.902L101.618,17.754ZM95.411,10.198L95.667,10.198C96.104,10.198 96.469,10.031 96.76,9.697C97.052,9.362 97.198,8.937 97.198,8.421C97.198,7.369 96.648,6.844 95.548,6.844L95.411,6.844L95.411,10.198Z" style="fill:rgb(158,161,168);fill-rule:nonzero;"/>
        </g>
        <g id="text899" transform="matrix(0.833554,0,0,1.19968,0,-6)">
            <path id="path956" d="M7.457,26.557L8.16,26.557L9.597,33.26L8.703,33.26L8.451,31.953L7.123,31.953L6.867,33.26L5.998,33.26L7.457,26.557ZM8.321,31.254L8.121,30.186C7.988,29.459 7.88,28.684 7.796,27.859C7.755,28.261 7.703,28.669 7.639,29.083C7.576,29.494 7.501,29.931 7.414,30.394L7.249,31.254L8.321,31.254Z" style="fill:rgb(158,161,168);fill-rule:nonzero;"/>
            <path id="path958" d="M12.71,26.665L12.71,27.477C12.479,27.364 12.285,27.308 12.129,27.308C11.914,27.308 11.731,27.361 11.577,27.468C11.424,27.572 11.296,27.734 11.195,27.954C11.097,28.174 11.023,28.454 10.974,28.792C10.927,29.128 10.904,29.526 10.904,29.986C10.904,31.642 11.328,32.47 12.176,32.47C12.324,32.47 12.502,32.423 12.71,32.331L12.71,33.16C12.493,33.281 12.25,33.342 11.981,33.342C10.623,33.342 9.945,32.234 9.945,30.017C9.945,28.818 10.11,27.927 10.44,27.342C10.773,26.758 11.28,26.465 11.964,26.465C12.215,26.465 12.464,26.532 12.71,26.665L12.71,26.665Z" style="fill:rgb(158,161,168);fill-rule:nonzero;"/>
            <path id="path960" d="M12.932,26.557L15.871,26.557L15.871,27.347L14.859,27.347L14.859,33.26L13.974,33.26L13.974,27.347L12.932,27.347L12.932,26.557Z" style="fill:rgb(158,161,168);fill-rule:nonzero;"/>
            <rect id="path962" x="16.366" y="26.557" width="0.903" height="6.703" style="fill:rgb(158,161,168);fill-rule:nonzero;"/>
            <path id="path964" d="M17.777,26.557L18.667,26.557L19.07,29.031L19.14,29.478L19.283,30.451C19.306,30.616 19.327,30.766 19.344,30.902C19.364,31.038 19.382,31.161 19.396,31.271L19.439,31.601C19.448,31.535 19.455,31.475 19.461,31.423C19.467,31.371 19.473,31.328 19.479,31.293L19.596,30.516L19.748,29.496C19.762,29.403 19.775,29.318 19.787,29.24C19.801,29.161 19.814,29.092 19.826,29.031L20.26,26.557L21.102,26.557L19.787,33.26L19.07,33.26L17.777,26.557Z" style="fill:rgb(158,161,168);fill-rule:nonzero;"/>
            <path id="path966" d="M21.593,26.557L23.994,26.557L23.994,27.321L22.496,27.321L22.496,29.444L23.824,29.444L23.824,30.208L22.496,30.208L22.496,32.496L23.994,32.496L23.994,33.26L21.593,33.26L21.593,26.557Z" style="fill:rgb(158,161,168);fill-rule:nonzero;"/>
        </g>
        <g id="text903" transform="matrix(0.885856,0,0,1.12885,0,-6)">
            <path id="path945" d="M5.644,45.94L6.908,45.94C7.431,45.94 7.82,46.065 8.076,46.314C8.399,46.637 8.56,47.13 8.56,47.795C8.56,48.305 8.474,48.716 8.302,49.027C8.133,49.334 7.89,49.525 7.573,49.599L8.883,53.064L7.91,53.064L6.604,49.576L6.604,53.064L5.644,53.064L5.644,45.94ZM6.604,49.096C6.976,49.096 7.239,49.01 7.393,48.837C7.547,48.665 7.624,48.375 7.624,47.965C7.624,47.744 7.607,47.555 7.573,47.398C7.542,47.241 7.491,47.113 7.421,47.015C7.353,46.917 7.264,46.844 7.153,46.798C7.045,46.752 6.916,46.729 6.765,46.729L6.604,46.729L6.604,49.096Z" style="fill:rgb(158,161,168);fill-rule:nonzero;"/>
            <path id="path947" d="M9.631,45.94L12.182,45.94L12.182,46.752L10.59,46.752L10.59,49.008L12.002,49.008L12.002,49.82L10.59,49.82L10.59,52.252L12.182,52.252L12.182,53.064L9.631,53.064L9.631,45.94Z" style="fill:rgb(158,161,168);fill-rule:nonzero;"/>
            <path id="path949" d="M15.439,46.088L15.439,47.024C15.147,46.815 14.884,46.71 14.65,46.71C14.398,46.71 14.192,46.8 14.032,46.978C13.872,47.147 13.792,47.373 13.792,47.656C13.792,47.905 13.849,48.119 13.963,48.298C14.021,48.393 14.117,48.516 14.249,48.667C14.384,48.817 14.558,48.999 14.77,49.211C15.161,49.608 15.427,49.951 15.569,50.24C15.71,50.52 15.781,50.863 15.781,51.269C15.781,51.82 15.626,52.273 15.315,52.63C15.004,52.978 14.606,53.151 14.12,53.151C13.711,53.151 13.362,53.039 13.073,52.815L13.073,51.864C13.414,52.113 13.725,52.238 14.005,52.238C14.266,52.238 14.471,52.152 14.618,51.979C14.766,51.804 14.84,51.567 14.84,51.269C14.84,51.011 14.783,50.778 14.669,50.572C14.61,50.474 14.529,50.362 14.424,50.235C14.32,50.106 14.189,49.963 14.032,49.806C13.789,49.566 13.588,49.354 13.428,49.17C13.268,48.985 13.149,48.824 13.073,48.685C12.925,48.415 12.851,48.073 12.851,47.661C12.851,47.104 12.996,46.663 13.285,46.337C13.577,46.008 13.969,45.843 14.461,45.843C14.803,45.843 15.129,45.925 15.439,46.088L15.439,46.088Z" style="fill:rgb(158,161,168);fill-rule:nonzero;"/>
            <path id="path951" d="M16.588,45.94L19.14,45.94L19.14,46.752L17.548,46.752L17.548,49.008L18.96,49.008L18.96,49.82L17.548,49.82L17.548,52.252L19.14,52.252L19.14,53.064L16.588,53.064L16.588,45.94Z" style="fill:rgb(158,161,168);fill-rule:nonzero;"/>
            <path id="path953" d="M19.453,45.94L22.577,45.94L22.577,46.78L21.502,46.78L21.502,53.064L20.561,53.064L20.561,46.78L19.453,46.78L19.453,45.94Z" style="fill:rgb(158,161,168);fill-rule:nonzero;"/>
        </g>
        <g id="text907" transform="matrix(0.959271,0,0,1.38994,-33.3333,3.99997)">
            <path id="path930" d="M76.447,253.146L77.474,253.146C77.968,253.146 78.328,253.271 78.553,253.521C78.778,253.773 78.89,254.173 78.89,254.72C78.89,255.49 78.664,255.987 78.212,256.212C77.984,256.314 77.656,256.365 77.226,256.365L77.226,258.932L76.447,258.932L76.447,253.146ZM77.226,255.698C77.549,255.698 77.771,255.633 77.893,255.503C78.018,255.371 78.081,255.136 78.081,254.799C78.081,254.454 78.021,254.202 77.901,254.042C77.781,253.882 77.592,253.802 77.335,253.802L77.226,253.802L77.226,255.698Z" style="fill:rgb(158,161,168);fill-rule:nonzero;"/>
            <path id="path932" d="M79.49,253.146L80.254,253.146L80.254,257.235C80.254,257.652 80.291,257.929 80.366,258.066C80.444,258.204 80.596,258.273 80.824,258.273C81.051,258.273 81.201,258.213 81.273,258.093C81.348,257.97 81.386,257.722 81.386,257.347L81.386,253.146L82.15,253.146L82.15,257.347C82.15,257.977 82.054,258.402 81.862,258.625C81.632,258.877 81.281,259.003 80.809,259.003C80.289,259.003 79.923,258.841 79.711,258.516C79.563,258.294 79.49,257.867 79.49,257.235L79.49,253.146Z" style="fill:rgb(158,161,168);fill-rule:nonzero;"/>
            <path id="path934" d="M83.042,253.146L83.821,253.146L83.821,258.273L85.095,258.273L85.095,258.932L83.042,258.932L83.042,253.146Z" style="fill:rgb(158,161,168);fill-rule:nonzero;"/>
            <path id="path936" d="M87.61,253.266L87.61,254.027C87.372,253.857 87.159,253.772 86.969,253.772C86.764,253.772 86.597,253.845 86.467,253.99C86.337,254.127 86.272,254.311 86.272,254.54C86.272,254.743 86.318,254.916 86.411,255.061C86.458,255.139 86.535,255.239 86.643,255.361C86.753,255.483 86.894,255.631 87.066,255.803C87.384,256.125 87.6,256.404 87.715,256.639C87.829,256.866 87.887,257.145 87.887,257.474C87.887,257.922 87.761,258.29 87.509,258.58C87.256,258.862 86.933,259.003 86.538,259.003C86.206,259.003 85.922,258.912 85.687,258.73L85.687,257.958C85.965,258.16 86.217,258.261 86.444,258.261C86.657,258.261 86.823,258.191 86.943,258.051C87.063,257.909 87.123,257.717 87.123,257.474C87.123,257.265 87.076,257.076 86.984,256.909C86.936,256.829 86.87,256.737 86.785,256.635C86.7,256.53 86.594,256.414 86.467,256.287C86.269,256.092 86.106,255.919 85.976,255.769C85.846,255.62 85.75,255.488 85.687,255.376C85.567,255.156 85.508,254.879 85.508,254.544C85.508,254.092 85.625,253.733 85.86,253.469C86.097,253.201 86.416,253.068 86.815,253.068C87.093,253.068 87.357,253.134 87.61,253.266L87.61,253.266Z" style="fill:rgb(158,161,168);fill-rule:nonzero;"/>
            <path id="path938" d="M88.543,253.146L90.615,253.146L90.615,253.806L89.322,253.806L89.322,255.638L90.469,255.638L90.469,256.298L89.322,256.298L89.322,258.273L90.615,258.273L90.615,258.932L88.543,258.932L88.543,253.146Z" style="fill:rgb(158,161,168);fill-rule:nonzero;"/>
            <rect id="path940" x="92.919" y="253.146" width="0.779" height="5.786" style="fill:rgb(158,161,168);fill-rule:nonzero;"/>
            <path id="path942" d="M94.598,253.146L95.325,253.146L96.101,255.455C96.326,256.107 96.524,256.802 96.697,257.542C96.634,257.095 96.588,256.69 96.558,256.328C96.528,255.966 96.513,255.625 96.513,255.305L96.513,253.146L97.296,253.146L97.296,258.932L96.565,258.932L95.692,256.328C95.612,256.085 95.536,255.837 95.464,255.582C95.394,255.327 95.329,255.06 95.269,254.78C95.264,254.745 95.255,254.703 95.243,254.653C95.233,254.603 95.22,254.545 95.205,254.48C95.213,254.545 95.219,254.602 95.224,254.649C95.229,254.694 95.233,254.733 95.236,254.765L95.277,255.354L95.318,256.069C95.321,256.109 95.322,256.158 95.322,256.215C95.324,256.273 95.326,256.338 95.326,256.41L95.367,258.932L94.599,258.932L94.598,253.146Z" style="fill:rgb(158,161,168);fill-rule:nonzero;"/>
        </g>
        <g id="text971" transform="matrix(1,0,0,1,0,4)">
            <path id="path973" d="M9.188,356.078C9.188,357.498 9.03,358.507 8.714,359.104C8.398,359.701 7.868,360 7.125,360C6.344,360 5.793,359.679 5.474,359.036C5.158,358.408 5,357.292 5,355.687C5,354.257 5.156,353.245 5.469,352.651C5.785,352.054 6.319,351.755 7.073,351.755C7.747,351.755 8.247,351.986 8.573,352.448C8.788,352.757 8.944,353.196 9.042,353.766C9.139,354.293 9.188,355.064 9.188,356.078L9.188,356.078ZM8.052,356.193C8.052,354.8 7.99,353.877 7.865,353.422C7.74,352.964 7.484,352.734 7.099,352.734C6.714,352.734 6.457,352.944 6.328,353.365C6.203,353.788 6.141,354.639 6.141,355.917C6.141,357.094 6.207,357.91 6.339,358.365C6.474,358.795 6.727,359.01 7.099,359.01C7.464,359.01 7.714,358.809 7.849,358.406C7.984,358.007 8.052,357.269 8.052,356.193L8.052,356.193Z" style="fill:rgb(158,161,168);fill-rule:nonzero;"/>
            <rect id="path975" x="9.646" y="356.734" width="1.896" height="0.813" style="fill:rgb(158,161,168);fill-rule:nonzero;"/>
            <path id="path977" d="M12.161,351.859L15.057,351.859L15.057,352.776L13.245,352.776L13.245,355.318L14.88,355.318L14.88,356.234L13.245,356.234L13.245,359.901L12.161,359.901L12.161,351.859Z" style="fill:rgb(158,161,168);fill-rule:nonzero;"/>
        </g>
    </g>
</svg>
