<?xml version="1.0" encoding="UTF-8" standalone="no"?>
<!DOCTYPE svg PUBLIC "-//W3C//DTD SVG 1.1//EN" "http://www.w3.org/Graphics/SVG/1.1/DTD/svg11.dtd">
<svg width="100%" height="100%" viewBox="0 0 90 380" version="1.1" xmlns="http://www.w3.org/2000/svg" xmlns:xlink="http://www.w3.org/1999/xlink" xml:space="preserve" xmlns:serif="http://www.serif.com/" style="fill-rule:evenodd;clip-rule:evenodd;stroke-linejoin:round;stroke-miterlimit:2;">
    <g id="Layer-2" serif:id="Layer 2">
        <g id="text989">
        </g>
        <rect id="rect4689" x="0" y="0" width="90" height="380" style="fill:rgb(44,45,48);fill-rule:nonzero;"/>
        <rect id="rect996" x="0" y="131" width="90" height="102" style="fill:rgb(158,161,168);"/>
        <g id="text4987">
        </g>
        <g id="text1042">
        </g>
        <g id="text2090">
        </g>
        <g id="text80" transform="matrix(0.87098,0,0,0.995047,6,6.99997)">
            <path id="path4726" d="M29.851,371.706L29.851,363.943L31.853,363.943L32.903,366.668C32.96,366.829 33.024,367.013 33.094,367.221C33.168,367.429 33.249,367.668 33.336,367.94L33.552,368.624C33.475,367.95 33.416,367.373 33.376,366.894C33.336,366.415 33.316,366.013 33.316,365.687L33.316,363.943L35.317,363.943L35.317,371.706L33.316,371.706L32.26,368.85C32.149,368.545 32.049,368.26 31.958,367.995C31.871,367.727 31.794,367.472 31.727,367.231C31.77,367.777 31.802,368.253 31.822,368.659C31.843,369.065 31.853,369.42 31.853,369.725L31.853,371.706L29.851,371.706Z" style="fill:rgb(158,161,168);fill-rule:nonzero;"/>
            <path id="path4728" d="M39.887,371.706L37.791,371.706L37.791,368.418L35.865,363.943L38.052,363.943L38.429,365.094C38.503,365.319 38.568,365.535 38.625,365.743C38.686,365.951 38.739,366.15 38.786,366.341C38.863,366.056 38.93,365.811 38.987,365.607C39.044,365.399 39.095,365.232 39.138,365.104L39.52,363.943L41.692,363.943L39.887,368.418L39.887,371.706Z" style="fill:rgb(158,161,168);fill-rule:nonzero;"/>
            <path id="path4730" d="M41.894,371.515L41.894,369.076C42.306,369.639 42.752,369.921 43.231,369.921C43.412,369.921 43.56,369.874 43.673,369.78C43.787,369.683 43.844,369.562 43.844,369.418C43.844,369.21 43.72,369.008 43.472,368.81L43.13,368.543C42.902,368.372 42.708,368.203 42.547,368.035C42.386,367.865 42.256,367.69 42.155,367.513C42.054,367.332 41.981,367.146 41.934,366.954C41.887,366.763 41.863,366.562 41.863,366.351C41.863,365.989 41.947,365.61 42.115,365.215C42.199,365.03 42.296,364.863 42.406,364.712C42.517,364.558 42.644,364.422 42.789,364.305C43.184,363.969 43.662,363.802 44.222,363.802C44.721,363.802 45.224,363.934 45.73,364.199L45.73,366.572C45.559,366.308 45.365,366.1 45.147,365.949C44.929,365.795 44.714,365.718 44.503,365.718C44.342,365.718 44.21,365.765 44.106,365.858C43.999,365.949 43.945,366.058 43.945,366.185C43.945,366.393 44.087,366.599 44.372,366.804L44.704,367.05C45.147,367.368 45.463,367.695 45.655,368.03C45.849,368.366 45.946,368.758 45.946,369.207C45.946,369.971 45.713,370.601 45.247,371.098C44.781,371.594 44.191,371.842 43.477,371.842C42.985,371.842 42.457,371.733 41.894,371.515L41.894,371.515Z" style="fill:rgb(158,161,168);fill-rule:nonzero;"/>
            <path id="path4732" d="M49.576,371.706L47.48,371.706L47.48,365.803L46.323,365.803L46.323,363.943L50.778,363.943L50.778,365.803L49.576,365.803L49.576,371.706Z" style="fill:rgb(158,161,168);fill-rule:nonzero;"/>
            <path id="path4734" d="M56.525,371.706L54.428,371.706L54.428,368.584L53.428,368.584L53.428,371.706L51.331,371.706L51.331,363.943L53.428,363.943L53.428,366.688L54.428,366.688L54.428,363.943L56.525,363.943L56.525,371.706Z" style="fill:rgb(158,161,168);fill-rule:nonzero;"/>
            <rect id="path4736" x="57.606" y="363.943" width="2.097" height="7.763" style="fill:rgb(158,161,168);fill-rule:nonzero;"/>
        </g>
        <g id="text1071" transform="matrix(0.891929,0,0,1.12117,22.5,0)">
            <path id="path1306" d="M5.606,15.835L5.606,3.283L9.549,3.283C11.023,3.283 12.115,3.609 12.825,4.259C13.546,4.926 13.906,5.787 13.906,6.844C13.906,8.416 13.126,9.267 11.565,9.397C12.454,9.527 13.104,9.819 13.516,10.275C13.933,10.73 14.142,11.386 14.142,12.242C14.142,13.321 13.792,14.188 13.093,14.843C12.399,15.505 11.486,15.835 10.353,15.835L5.606,15.835ZM8.996,13.112C9.061,13.117 9.118,13.123 9.167,13.128L9.288,13.128C9.711,13.128 10.047,13.017 10.297,12.795C10.551,12.573 10.679,12.275 10.679,11.901C10.679,11.527 10.551,11.234 10.297,11.023C10.047,10.811 9.703,10.706 9.264,10.706L8.996,10.706L8.996,13.112ZM8.996,8.161L9.223,8.161C9.63,8.161 9.95,8.066 10.183,7.877C10.421,7.687 10.54,7.421 10.54,7.08C10.54,6.354 10.142,5.99 9.345,5.99C9.307,5.99 9.259,5.993 9.199,5.999C9.145,5.999 9.077,6.001 8.996,6.007L8.996,8.161Z" style="fill:rgb(158,161,168);fill-rule:nonzero;"/>
            <rect id="path1308" x="15.589" y="3.283" width="3.39" height="12.552" style="fill:rgb(158,161,168);fill-rule:nonzero;"/>
            <path id="path1310" d="M26.181,15.835L22.726,15.835L19.849,3.283L23.409,3.283L24.027,6.868C24.26,8.24 24.447,9.773 24.588,11.47C24.648,10.716 24.721,10.012 24.808,9.356C24.894,8.7 24.997,8.061 25.116,7.438L25.921,3.283L29.604,3.283L26.181,15.835Z" style="fill:rgb(158,161,168);fill-rule:nonzero;"/>
            <rect id="path1312" x="30.482" y="3.283" width="3.39" height="12.552" style="fill:rgb(158,161,168);fill-rule:nonzero;"/>
            <path id="path1314" d="M44.847,9.6C44.847,11.513 44.41,13.069 43.538,14.266C42.671,15.459 41.541,16.055 40.148,16.055C38.912,16.055 37.853,15.597 36.969,14.681C35.858,13.521 35.303,11.781 35.303,9.462C35.303,7.24 35.883,5.541 37.042,4.365C37.904,3.492 38.926,3.056 40.107,3.056C41.554,3.056 42.706,3.646 43.562,4.828C44.418,6.009 44.847,7.6 44.847,9.6ZM41.327,9.624C41.327,7.354 40.926,6.218 40.123,6.218C39.722,6.218 39.403,6.516 39.164,7.112C38.931,7.665 38.815,8.478 38.815,9.551C38.815,10.608 38.923,11.429 39.14,12.014C39.362,12.594 39.668,12.884 40.058,12.884C40.459,12.884 40.768,12.597 40.985,12.023C41.213,11.448 41.327,10.649 41.327,9.624L41.327,9.624Z" style="fill:rgb(158,161,168);fill-rule:nonzero;"/>
        </g>
        <rect id="rect1334" x="0" y="25" width="90" height="102" style="fill:rgb(158,161,168);"/>
        <g id="text1075" transform="matrix(0.957856,0,0,1.044,22.5,8)">
            <path id="path1293" d="M10.44,18.326L12.145,18.326C13.48,18.326 14.147,19.154 14.147,20.811C14.147,21.444 14.06,21.914 13.887,22.22C13.714,22.527 13.407,22.759 12.968,22.916C13.472,23.117 13.816,23.375 14.002,23.69C14.191,24 14.286,24.468 14.286,25.093C14.286,26.806 13.552,27.663 12.085,27.663L10.44,27.663L10.44,18.326ZM11.625,22.438C12.113,22.438 12.452,22.325 12.641,22.099C12.831,21.862 12.925,21.444 12.925,20.848C12.925,19.84 12.563,19.336 11.837,19.336L11.74,19.336L11.686,19.336C11.653,19.336 11.633,19.338 11.625,19.342L11.625,22.438ZM11.625,26.587C12.141,26.587 12.498,26.476 12.696,26.254C12.893,26.032 12.992,25.631 12.992,25.05C12.992,24.454 12.889,24.037 12.684,23.799C12.482,23.557 12.129,23.436 11.625,23.436L11.625,26.587Z" style="fill:rgb(44,45,48);fill-rule:nonzero;"/>
            <rect id="path1295" x="15.544" y="18.326" width="1.258" height="9.337" style="fill:rgb(44,45,48);fill-rule:nonzero;"/>
            <path id="path1297" d="M17.509,18.326L18.749,18.326L19.311,21.773L19.408,22.396L19.608,23.75C19.64,23.98 19.668,24.19 19.692,24.379C19.721,24.569 19.745,24.74 19.765,24.893L19.825,25.353C19.837,25.26 19.848,25.177 19.856,25.105C19.864,25.032 19.872,24.972 19.88,24.924L20.043,23.841L20.255,22.42C20.275,22.291 20.293,22.172 20.309,22.063C20.329,21.954 20.347,21.858 20.364,21.773L20.968,18.326L22.141,18.326L20.309,27.663L19.311,27.663L17.509,18.326Z" style="fill:rgb(44,45,48);fill-rule:nonzero;"/>
            <rect id="path1299" x="22.825" y="18.326" width="1.258" height="9.337" style="fill:rgb(44,45,48);fill-rule:nonzero;"/>
            <path id="path1301" d="M30.208,23.224C30.208,24.873 30.025,26.044 29.658,26.738C29.291,27.431 28.677,27.778 27.814,27.778C26.907,27.778 26.268,27.405 25.897,26.659C25.53,25.929 25.346,24.633 25.346,22.771C25.346,21.11 25.528,19.935 25.891,19.245C26.258,18.552 26.878,18.205 27.753,18.205C28.535,18.205 29.116,18.473 29.495,19.009C29.745,19.368 29.926,19.878 30.039,20.539C30.152,21.152 30.208,22.047 30.208,23.224L30.208,23.224ZM28.89,23.357C28.89,21.741 28.818,20.668 28.672,20.14C28.527,19.608 28.231,19.342 27.784,19.342C27.336,19.342 27.038,19.586 26.889,20.074C26.743,20.565 26.671,21.553 26.671,23.037C26.671,24.403 26.747,25.351 26.901,25.879C27.058,26.379 27.352,26.629 27.784,26.629C28.207,26.629 28.497,26.395 28.654,25.927C28.812,25.464 28.89,24.607 28.89,23.357Z" style="fill:rgb(44,45,48);fill-rule:nonzero;"/>
            <path id="path1303" d="M34.411,18.326L36.54,18.326L36.54,27.663L35.337,27.663L35.337,19.396L34.411,19.396L34.411,18.326Z" style="fill:rgb(44,45,48);fill-rule:nonzero;"/>
        </g>
        <g id="text1079" transform="matrix(0.726249,0,0,1.20482,51.8125,-40)">
            <path id="path1266" d="M3.012,85.6L4.448,85.6C5.14,85.6 5.643,85.774 5.957,86.124C6.271,86.477 6.429,87.035 6.429,87.801C6.429,88.876 6.112,89.572 5.48,89.886C5.162,90.029 4.703,90.101 4.102,90.101L4.102,93.69L3.012,93.69L3.012,85.6ZM4.102,89.168C4.553,89.168 4.864,89.077 5.035,88.896C5.209,88.711 5.297,88.382 5.297,87.911C5.297,87.428 5.213,87.076 5.045,86.852C4.878,86.629 4.614,86.517 4.254,86.517L4.102,86.517L4.102,89.168Z" style="fill:rgb(44,45,48);fill-rule:nonzero;"/>
            <path id="path1268" d="M7.267,85.6L8.703,85.6C9.297,85.6 9.739,85.741 10.028,86.024C10.395,86.391 10.579,86.952 10.579,87.706C10.579,88.286 10.481,88.752 10.285,89.105C10.093,89.455 9.817,89.671 9.457,89.755L10.946,93.69L9.84,93.69L8.357,89.729L8.357,93.69L7.267,93.69L7.267,85.6ZM8.357,89.184C8.78,89.184 9.078,89.086 9.253,88.89C9.428,88.695 9.515,88.365 9.515,87.9C9.515,87.649 9.496,87.434 9.457,87.256C9.422,87.077 9.365,86.932 9.284,86.821C9.208,86.709 9.106,86.627 8.98,86.574C8.858,86.522 8.711,86.496 8.54,86.496L8.357,86.496L8.357,89.184Z" style="fill:rgb(44,45,48);fill-rule:nonzero;"/>
            <path id="path1270" d="M15.761,89.844C15.761,91.273 15.602,92.288 15.284,92.889C14.966,93.489 14.434,93.79 13.686,93.79C12.9,93.79 12.346,93.467 12.025,92.82C11.707,92.188 11.548,91.065 11.548,89.451C11.548,88.012 11.705,86.994 12.02,86.396C12.338,85.795 12.876,85.495 13.634,85.495C14.311,85.495 14.814,85.727 15.143,86.192C15.359,86.503 15.517,86.945 15.614,87.518C15.712,88.049 15.761,88.824 15.761,89.844L15.761,89.844ZM14.619,89.959C14.619,88.559 14.556,87.629 14.43,87.172C14.304,86.711 14.048,86.48 13.66,86.48C13.272,86.48 13.014,86.691 12.884,87.114C12.759,87.54 12.696,88.396 12.696,89.682C12.696,90.866 12.762,91.687 12.895,92.145C13.031,92.578 13.286,92.794 13.66,92.794C14.027,92.794 14.278,92.592 14.414,92.186C14.551,91.785 14.619,91.042 14.619,89.959L14.619,89.959Z" style="fill:rgb(44,45,48);fill-rule:nonzero;"/>
            <path id="path1272" d="M16.846,85.6L18.324,85.6C19.48,85.6 20.058,86.318 20.058,87.753C20.058,88.302 19.983,88.709 19.833,88.974C19.682,89.24 19.417,89.441 19.036,89.577C19.473,89.752 19.772,89.975 19.932,90.248C20.096,90.517 20.178,90.922 20.178,91.463C20.178,92.948 19.543,93.69 18.271,93.69L16.846,93.69L16.846,85.6ZM17.873,89.163C18.296,89.163 18.589,89.065 18.753,88.869C18.917,88.663 18.999,88.302 18.999,87.785C18.999,86.911 18.685,86.475 18.056,86.475L17.972,86.475L17.925,86.475C17.897,86.475 17.88,86.477 17.873,86.48L17.873,89.163ZM17.873,92.758C18.32,92.758 18.629,92.662 18.8,92.469C18.972,92.277 19.057,91.93 19.057,91.427C19.057,90.91 18.968,90.548 18.79,90.342C18.615,90.132 18.31,90.028 17.873,90.028L17.873,92.758Z" style="fill:rgb(44,45,48);fill-rule:nonzero;"/>
            <path id="path1274" d="M22.463,85.6L23.312,85.6L25.046,93.69L23.967,93.69L23.663,92.113L22.06,92.113L21.751,93.69L20.702,93.69L22.463,85.6ZM23.506,91.269L23.265,89.98C23.104,89.104 22.973,88.167 22.872,87.172C22.823,87.657 22.76,88.15 22.683,88.649C22.606,89.145 22.516,89.673 22.411,90.232L22.212,91.269L23.506,91.269Z" style="fill:rgb(44,45,48);fill-rule:nonzero;"/>
            <path id="path1276" d="M25.691,85.6L27.169,85.6C28.325,85.6 28.903,86.318 28.903,87.753C28.903,88.302 28.828,88.709 28.678,88.974C28.528,89.24 28.262,89.441 27.881,89.577C28.318,89.752 28.617,89.975 28.777,90.248C28.942,90.517 29.024,90.922 29.024,91.463C29.024,92.948 28.388,93.69 27.116,93.69L25.691,93.69L25.691,85.6ZM26.718,89.163C27.141,89.163 27.434,89.065 27.598,88.869C27.763,88.663 27.845,88.302 27.845,87.785C27.845,86.911 27.53,86.475 26.901,86.475L26.818,86.475L26.77,86.475C26.743,86.475 26.725,86.477 26.718,86.48L26.718,89.163ZM26.718,92.758C27.165,92.758 27.474,92.662 27.646,92.469C27.817,92.277 27.902,91.93 27.902,91.427C27.902,90.91 27.813,90.548 27.635,90.342C27.46,90.132 27.155,90.028 26.718,90.028L26.718,92.758Z" style="fill:rgb(44,45,48);fill-rule:nonzero;"/>
            <rect id="path1278" x="30.114" y="85.6" width="1.09" height="8.091" style="fill:rgb(44,45,48);fill-rule:nonzero;"/>
            <path id="path1280" d="M32.461,85.6L33.551,85.6L33.551,92.768L35.333,92.768L35.333,93.69L32.461,93.69L32.461,85.6Z" style="fill:rgb(44,45,48);fill-rule:nonzero;"/>
            <rect id="path1282" x="36.024" y="85.6" width="1.09" height="8.091" style="fill:rgb(44,45,48);fill-rule:nonzero;"/>
            <path id="path1284" d="M37.727,85.6L41.275,85.6L41.275,86.553L40.054,86.553L40.054,93.69L38.985,93.69L38.985,86.553L37.727,86.553L37.727,85.6Z" style="fill:rgb(44,45,48);fill-rule:nonzero;"/>
            <rect id="path1286" x="41.872" y="85.6" width="1.09" height="8.091" style="fill:rgb(44,45,48);fill-rule:nonzero;"/>
            <path id="path1288" d="M44.22,85.6L47.118,85.6L47.118,86.522L45.31,86.522L45.31,89.084L46.913,89.084L46.913,90.007L45.31,90.007L45.31,92.768L47.118,92.768L47.118,93.69L44.22,93.69L44.22,85.6Z" style="fill:rgb(44,45,48);fill-rule:nonzero;"/>
            <path id="path1290" d="M50.817,85.767L50.817,86.831C50.485,86.594 50.187,86.475 49.921,86.475C49.635,86.475 49.401,86.576 49.219,86.779C49.037,86.971 48.946,87.228 48.946,87.549C48.946,87.832 49.011,88.075 49.14,88.277C49.207,88.386 49.315,88.525 49.465,88.697C49.619,88.868 49.816,89.074 50.057,89.315C50.501,89.766 50.803,90.155 50.964,90.483C51.125,90.801 51.205,91.191 51.205,91.652C51.205,92.277 51.028,92.793 50.676,93.198C50.323,93.593 49.87,93.79 49.318,93.79C48.854,93.79 48.457,93.662 48.129,93.407L48.129,92.328C48.517,92.611 48.87,92.752 49.187,92.752C49.484,92.752 49.717,92.655 49.884,92.459C50.052,92.26 50.136,91.991 50.136,91.652C50.136,91.359 50.071,91.095 49.942,90.861C49.876,90.749 49.783,90.621 49.664,90.478C49.546,90.331 49.397,90.169 49.219,89.991C48.943,89.718 48.714,89.477 48.532,89.268C48.351,89.058 48.216,88.875 48.129,88.718C47.961,88.41 47.877,88.022 47.877,87.554C47.877,86.922 48.042,86.421 48.37,86.05C48.702,85.677 49.147,85.49 49.706,85.49C50.094,85.49 50.464,85.582 50.817,85.767L50.817,85.767Z" style="fill:rgb(44,45,48);fill-rule:nonzero;"/>
        </g>
        <g id="text1111" transform="matrix(0.908195,0,0,1.044,23.0185,-1.99997)">
            <path id="path1236" d="M10.44,129.437L12.145,129.437C13.48,129.437 14.147,130.266 14.147,131.923C14.147,132.556 14.06,133.025 13.887,133.332C13.714,133.638 13.407,133.87 12.968,134.027C13.472,134.229 13.816,134.487 14.002,134.801C14.191,135.112 14.286,135.579 14.286,136.204C14.286,137.917 13.552,138.774 12.085,138.774L10.44,138.774L10.44,129.437ZM11.625,133.549C12.113,133.549 12.452,133.436 12.641,133.211C12.831,132.973 12.925,132.556 12.925,131.959C12.925,130.951 12.563,130.447 11.837,130.447L11.74,130.447L11.686,130.447C11.653,130.447 11.633,130.449 11.625,130.453L11.625,133.549ZM11.625,137.698C12.141,137.698 12.498,137.587 12.696,137.365C12.893,137.143 12.992,136.742 12.992,136.162C12.992,135.565 12.889,135.148 12.684,134.91C12.482,134.668 12.129,134.547 11.625,134.547L11.625,137.698Z" style="fill:rgb(44,45,48);fill-rule:nonzero;"/>
            <rect id="path1238" x="15.544" y="129.437" width="1.258" height="9.337" style="fill:rgb(44,45,48);fill-rule:nonzero;"/>
            <path id="path1240" d="M17.509,129.437L18.749,129.437L19.311,132.884L19.408,133.507L19.608,134.862C19.64,135.091 19.668,135.301 19.692,135.49C19.721,135.68 19.745,135.851 19.765,136.004L19.825,136.464C19.837,136.371 19.848,136.289 19.856,136.216C19.864,136.144 19.872,136.083 19.88,136.035L20.043,134.952L20.255,133.531C20.275,133.402 20.293,133.283 20.309,133.174C20.329,133.066 20.347,132.969 20.364,132.884L20.968,129.437L22.141,129.437L20.309,138.774L19.311,138.774L17.509,129.437Z" style="fill:rgb(44,45,48);fill-rule:nonzero;"/>
            <rect id="path1242" x="22.825" y="129.437" width="1.258" height="9.337" style="fill:rgb(44,45,48);fill-rule:nonzero;"/>
            <path id="path1244" d="M30.208,134.335C30.208,135.984 30.025,137.155 29.658,137.849C29.291,138.542 28.677,138.889 27.814,138.889C26.907,138.889 26.268,138.516 25.897,137.77C25.53,137.041 25.346,135.744 25.346,133.882C25.346,132.221 25.528,131.046 25.891,130.356C26.258,129.663 26.878,129.316 27.753,129.316C28.535,129.316 29.116,129.584 29.495,130.121C29.745,130.479 29.926,130.989 30.039,131.65C30.152,132.263 30.208,133.158 30.208,134.335L30.208,134.335ZM28.89,134.468C28.89,132.852 28.818,131.779 28.672,131.251C28.527,130.719 28.231,130.453 27.784,130.453C27.336,130.453 27.038,130.697 26.889,131.185C26.743,131.677 26.671,132.664 26.671,134.148C26.671,135.515 26.747,136.462 26.901,136.99C27.058,137.49 27.352,137.74 27.784,137.74C28.207,137.74 28.497,137.506 28.654,137.039C28.812,136.575 28.89,135.718 28.89,134.468Z" style="fill:rgb(44,45,48);fill-rule:nonzero;"/>
            <path id="path1246" d="M35.131,132.473L33.897,132.473L33.885,132.104C33.885,131.084 34.038,130.366 34.345,129.951C34.655,129.532 35.175,129.322 35.905,129.322C37.28,129.322 37.967,130.084 37.967,131.608C37.967,132.636 37.453,134.118 36.425,136.053L35.681,137.45C35.677,137.458 35.665,137.482 35.645,137.522C35.625,137.563 35.597,137.621 35.56,137.698L37.87,137.698L37.87,138.774L33.77,138.774C33.839,138.621 33.982,138.317 34.2,137.861C34.417,137.405 34.714,136.791 35.089,136.017C35.407,135.339 35.673,134.765 35.887,134.293C36.101,133.821 36.262,133.434 36.371,133.132C36.588,132.527 36.697,132.005 36.697,131.566C36.697,130.792 36.429,130.405 35.893,130.405C35.377,130.405 35.119,130.884 35.119,131.844L35.125,132.376L35.131,132.473Z" style="fill:rgb(44,45,48);fill-rule:nonzero;"/>
        </g>
        <rect id="rect1336" x="0" y="237" width="90" height="102" style="fill:rgb(158,161,168);"/>
        <g id="text958">
        </g>
        <g id="text962" transform="matrix(0.69682,0,0,1.07632,5.625,2)">
            <path id="path985" d="M13.454,86.529L15.061,86.529C15.726,86.529 16.221,86.687 16.545,87.004C16.956,87.415 17.161,88.042 17.161,88.887C17.161,89.536 17.051,90.058 16.832,90.453C16.617,90.844 16.309,91.086 15.906,91.18L17.572,95.585L16.334,95.585L14.674,91.151L14.674,95.585L13.454,95.585L13.454,86.529ZM14.674,90.541C15.147,90.541 15.481,90.431 15.677,90.212C15.873,89.993 15.97,89.624 15.97,89.104C15.97,88.822 15.949,88.582 15.906,88.382C15.867,88.183 15.802,88.021 15.712,87.896C15.626,87.77 15.513,87.679 15.372,87.62C15.235,87.561 15.071,87.532 14.879,87.532L14.674,87.532L14.674,90.541Z" style="fill:rgb(44,45,48);fill-rule:nonzero;"/>
            <path id="path987" d="M18.522,86.529L21.765,86.529L21.765,87.561L19.742,87.561L19.742,90.429L21.537,90.429L21.537,91.462L19.742,91.462L19.742,94.553L21.765,94.553L21.765,95.585L18.522,95.585L18.522,86.529Z" style="fill:rgb(44,45,48);fill-rule:nonzero;"/>
            <path id="path989" d="M25.906,86.717L25.906,87.907C25.535,87.641 25.201,87.508 24.903,87.508C24.583,87.508 24.321,87.622 24.117,87.849C23.914,88.064 23.812,88.351 23.812,88.711C23.812,89.028 23.885,89.299 24.029,89.526C24.104,89.647 24.225,89.804 24.393,89.995C24.565,90.187 24.786,90.418 25.056,90.688C25.553,91.192 25.891,91.628 26.071,91.996C26.251,92.351 26.34,92.787 26.34,93.304C26.34,94.003 26.143,94.58 25.748,95.034C25.353,95.476 24.847,95.697 24.229,95.697C23.709,95.697 23.265,95.554 22.897,95.268L22.897,94.06C23.331,94.377 23.726,94.535 24.082,94.535C24.415,94.535 24.675,94.426 24.862,94.207C25.05,93.984 25.144,93.683 25.144,93.304C25.144,92.975 25.072,92.68 24.927,92.418C24.853,92.293 24.749,92.15 24.616,91.99C24.483,91.825 24.317,91.644 24.117,91.444C23.809,91.139 23.552,90.869 23.349,90.635C23.146,90.4 22.995,90.195 22.897,90.019C22.71,89.675 22.616,89.241 22.616,88.717C22.616,88.009 22.8,87.448 23.167,87.033C23.539,86.615 24.037,86.406 24.663,86.406C25.097,86.406 25.511,86.509 25.906,86.717L25.906,86.717Z" style="fill:rgb(44,45,48);fill-rule:nonzero;"/>
            <path id="path991" d="M27.367,86.529L30.611,86.529L30.611,87.561L28.587,87.561L28.587,90.429L30.382,90.429L30.382,91.462L28.587,91.462L28.587,94.553L30.611,94.553L30.611,95.585L27.367,95.585L27.367,86.529Z" style="fill:rgb(44,45,48);fill-rule:nonzero;"/>
            <path id="path993" d="M31.009,86.529L34.98,86.529L34.98,87.596L33.614,87.596L33.614,95.585L32.417,95.585L32.417,87.596L31.009,87.596L31.009,86.529Z" style="fill:rgb(44,45,48);fill-rule:nonzero;"/>
        </g>
        <g id="text966" transform="matrix(0.667259,0,0,1.07048,19.2857,2)">
            <path id="path968" d="M58.265,91.778C58.265,93.386 58.087,94.528 57.729,95.204C57.371,95.881 56.771,96.219 55.93,96.219C55.045,96.219 54.422,95.855 54.061,95.128C53.703,94.416 53.524,93.152 53.524,91.336C53.524,89.716 53.701,88.57 54.055,87.897C54.412,87.221 55.018,86.883 55.871,86.883C56.634,86.883 57.2,87.144 57.57,87.667C57.813,88.017 57.99,88.515 58.1,89.159C58.21,89.757 58.265,90.63 58.265,91.778L58.265,91.778ZM56.98,91.908C56.98,90.331 56.909,89.285 56.768,88.77C56.626,88.251 56.337,87.992 55.901,87.992C55.464,87.992 55.173,88.23 55.028,88.705C54.886,89.185 54.815,90.148 54.815,91.595C54.815,92.928 54.89,93.852 55.04,94.367C55.193,94.854 55.48,95.098 55.901,95.098C56.313,95.098 56.597,94.87 56.75,94.414C56.903,93.962 56.98,93.126 56.98,91.908L56.98,91.908Z" style="fill:rgb(44,45,48);fill-rule:nonzero;"/>
            <path id="path970" d="M59.486,87.001L60.63,87.001L61.851,90.634C62.205,91.66 62.518,92.755 62.789,93.919C62.691,93.215 62.618,92.578 62.571,92.008C62.523,91.438 62.5,90.901 62.5,90.398L62.5,87.001L63.732,87.001L63.732,96.107L62.582,96.107L61.208,92.008C61.083,91.627 60.963,91.235 60.849,90.834C60.739,90.433 60.636,90.013 60.542,89.572C60.534,89.517 60.52,89.45 60.501,89.372C60.485,89.293 60.465,89.203 60.442,89.1C60.454,89.203 60.463,89.291 60.471,89.366C60.479,89.437 60.485,89.498 60.489,89.549L60.554,90.475L60.619,91.601C60.623,91.664 60.625,91.741 60.625,91.831C60.629,91.921 60.631,92.024 60.631,92.138L60.696,96.107L59.487,96.107L59.486,87.001Z" style="fill:rgb(44,45,48);fill-rule:nonzero;"/>
            <path id="path972" d="M65.148,87.001L68.409,87.001L68.409,88.039L66.375,88.039L66.375,90.923L68.179,90.923L68.179,91.961L66.375,91.961L66.375,95.069L68.409,95.069L68.409,96.107L65.148,96.107L65.148,87.001Z" style="fill:rgb(44,45,48);fill-rule:nonzero;"/>
            <rect id="path974" x="68.834" y="92.521" width="2.147" height="0.92" style="fill:rgb(44,45,48);fill-rule:nonzero;"/>
            <path id="path976" d="M74.719,87.19L74.719,88.387C74.346,88.119 74.01,87.986 73.711,87.986C73.389,87.986 73.125,88.1 72.921,88.328C72.716,88.544 72.614,88.833 72.614,89.195C72.614,89.513 72.687,89.786 72.832,90.015C72.907,90.136 73.029,90.294 73.198,90.486C73.371,90.679 73.593,90.911 73.864,91.182C74.364,91.689 74.704,92.128 74.885,92.497C75.065,92.855 75.156,93.294 75.156,93.813C75.156,94.516 74.957,95.096 74.56,95.552C74.163,95.997 73.654,96.219 73.033,96.219C72.51,96.219 72.064,96.075 71.694,95.788L71.694,94.573C72.13,94.892 72.528,95.051 72.885,95.051C73.22,95.051 73.481,94.941 73.67,94.721C73.858,94.497 73.953,94.194 73.953,93.813C73.953,93.482 73.88,93.185 73.735,92.922C73.66,92.796 73.556,92.653 73.422,92.491C73.288,92.326 73.121,92.144 72.921,91.943C72.61,91.636 72.353,91.365 72.148,91.129C71.944,90.893 71.792,90.687 71.694,90.51C71.505,90.164 71.411,89.728 71.411,89.201C71.411,88.489 71.596,87.925 71.965,87.508C72.339,87.087 72.84,86.877 73.469,86.877C73.906,86.877 74.322,86.981 74.719,87.19L74.719,87.19Z" style="fill:rgb(44,45,48);fill-rule:nonzero;"/>
            <path id="path978" d="M76.188,87.001L77.415,87.001L77.415,90.563L79.213,90.563L79.213,87.001L80.44,87.001L80.44,96.107L79.213,96.107L79.213,91.601L77.415,91.601L77.415,96.107L76.188,96.107L76.188,87.001Z" style="fill:rgb(44,45,48);fill-rule:nonzero;"/>
            <path id="path980" d="M86.408,91.778C86.408,93.386 86.229,94.528 85.872,95.204C85.514,95.881 84.914,96.219 84.073,96.219C83.188,96.219 82.565,95.855 82.203,95.128C81.846,94.416 81.667,93.152 81.667,91.336C81.667,89.716 81.844,88.57 82.197,87.897C82.555,87.221 83.161,86.883 84.014,86.883C84.777,86.883 85.343,87.144 85.712,87.667C85.956,88.017 86.133,88.515 86.243,89.159C86.353,89.757 86.408,90.63 86.408,91.778L86.408,91.778ZM85.123,91.908C85.123,90.331 85.052,89.285 84.91,88.77C84.769,88.251 84.48,87.992 84.043,87.992C83.607,87.992 83.316,88.23 83.171,88.705C83.029,89.185 82.958,90.148 82.958,91.595C82.958,92.928 83.033,93.852 83.182,94.367C83.336,94.854 83.623,95.098 84.043,95.098C84.456,95.098 84.739,94.87 84.893,94.414C85.046,93.962 85.123,93.126 85.123,91.908L85.123,91.908Z" style="fill:rgb(44,45,48);fill-rule:nonzero;"/>
            <path id="path982" d="M86.998,87.001L90.991,87.001L90.991,88.074L89.617,88.074L89.617,96.107L88.413,96.107L88.413,88.074L86.998,88.074L86.998,87.001Z" style="fill:rgb(44,45,48);fill-rule:nonzero;"/>
        </g>
        <g id="g1024" transform="matrix(0.726249,0,0,1.20482,51.8125,66)">
            <path id="path998" d="M3.012,85.6L4.448,85.6C5.14,85.6 5.643,85.774 5.957,86.124C6.271,86.477 6.429,87.035 6.429,87.801C6.429,88.876 6.112,89.572 5.48,89.886C5.162,90.029 4.703,90.101 4.102,90.101L4.102,93.69L3.012,93.69L3.012,85.6ZM4.102,89.168C4.553,89.168 4.864,89.077 5.035,88.896C5.209,88.711 5.297,88.382 5.297,87.911C5.297,87.428 5.213,87.076 5.045,86.852C4.878,86.629 4.614,86.517 4.254,86.517L4.102,86.517L4.102,89.168Z" style="fill:rgb(44,45,48);fill-rule:nonzero;"/>
            <path id="path1000" d="M7.267,85.6L8.703,85.6C9.297,85.6 9.739,85.741 10.028,86.024C10.395,86.391 10.579,86.952 10.579,87.706C10.579,88.286 10.481,88.752 10.285,89.105C10.093,89.455 9.817,89.671 9.457,89.755L10.946,93.69L9.84,93.69L8.357,89.729L8.357,93.69L7.267,93.69L7.267,85.6ZM8.357,89.184C8.78,89.184 9.078,89.086 9.253,88.89C9.428,88.695 9.515,88.365 9.515,87.9C9.515,87.649 9.496,87.434 9.457,87.256C9.422,87.077 9.365,86.932 9.284,86.821C9.208,86.709 9.106,86.627 8.98,86.574C8.858,86.522 8.711,86.496 8.54,86.496L8.357,86.496L8.357,89.184Z" style="fill:rgb(44,45,48);fill-rule:nonzero;"/>
            <path id="path1002" d="M15.761,89.844C15.761,91.273 15.602,92.288 15.284,92.889C14.966,93.489 14.434,93.79 13.686,93.79C12.9,93.79 12.346,93.467 12.025,92.82C11.707,92.188 11.548,91.065 11.548,89.451C11.548,88.012 11.705,86.994 12.02,86.396C12.338,85.795 12.876,85.495 13.634,85.495C14.311,85.495 14.814,85.727 15.143,86.192C15.359,86.503 15.517,86.945 15.614,87.518C15.712,88.049 15.761,88.824 15.761,89.844L15.761,89.844ZM14.619,89.959C14.619,88.559 14.556,87.629 14.43,87.172C14.304,86.711 14.048,86.48 13.66,86.48C13.272,86.48 13.014,86.691 12.884,87.114C12.759,87.54 12.696,88.396 12.696,89.682C12.696,90.866 12.762,91.687 12.895,92.145C13.031,92.578 13.286,92.794 13.66,92.794C14.027,92.794 14.278,92.592 14.414,92.186C14.551,91.785 14.619,91.042 14.619,89.959L14.619,89.959Z" style="fill:rgb(44,45,48);fill-rule:nonzero;"/>
            <path id="path1004" d="M16.846,85.6L18.324,85.6C19.48,85.6 20.058,86.318 20.058,87.753C20.058,88.302 19.983,88.709 19.833,88.974C19.682,89.24 19.417,89.441 19.036,89.577C19.473,89.752 19.772,89.975 19.932,90.248C20.096,90.517 20.178,90.922 20.178,91.463C20.178,92.948 19.543,93.69 18.271,93.69L16.846,93.69L16.846,85.6ZM17.873,89.163C18.296,89.163 18.589,89.065 18.753,88.869C18.917,88.663 18.999,88.302 18.999,87.785C18.999,86.911 18.685,86.475 18.056,86.475L17.972,86.475L17.925,86.475C17.897,86.475 17.88,86.477 17.873,86.48L17.873,89.163ZM17.873,92.758C18.32,92.758 18.629,92.662 18.8,92.469C18.972,92.277 19.057,91.93 19.057,91.427C19.057,90.91 18.968,90.548 18.79,90.342C18.615,90.132 18.31,90.028 17.873,90.028L17.873,92.758Z" style="fill:rgb(44,45,48);fill-rule:nonzero;"/>
            <path id="path1006" d="M22.463,85.6L23.312,85.6L25.046,93.69L23.967,93.69L23.663,92.113L22.06,92.113L21.751,93.69L20.702,93.69L22.463,85.6ZM23.506,91.269L23.265,89.98C23.104,89.104 22.973,88.167 22.872,87.172C22.823,87.657 22.76,88.15 22.683,88.649C22.606,89.145 22.516,89.673 22.411,90.232L22.212,91.269L23.506,91.269Z" style="fill:rgb(44,45,48);fill-rule:nonzero;"/>
            <path id="path1008" d="M25.691,85.6L27.169,85.6C28.325,85.6 28.903,86.318 28.903,87.753C28.903,88.302 28.828,88.709 28.678,88.974C28.528,89.24 28.262,89.441 27.881,89.577C28.318,89.752 28.617,89.975 28.777,90.248C28.942,90.517 29.024,90.922 29.024,91.463C29.024,92.948 28.388,93.69 27.116,93.69L25.691,93.69L25.691,85.6ZM26.718,89.163C27.141,89.163 27.434,89.065 27.598,88.869C27.763,88.663 27.845,88.302 27.845,87.785C27.845,86.911 27.53,86.475 26.901,86.475L26.818,86.475L26.77,86.475C26.743,86.475 26.725,86.477 26.718,86.48L26.718,89.163ZM26.718,92.758C27.165,92.758 27.474,92.662 27.646,92.469C27.817,92.277 27.902,91.93 27.902,91.427C27.902,90.91 27.813,90.548 27.635,90.342C27.46,90.132 27.155,90.028 26.718,90.028L26.718,92.758Z" style="fill:rgb(44,45,48);fill-rule:nonzero;"/>
            <rect id="path1010" x="30.114" y="85.6" width="1.09" height="8.091" style="fill:rgb(44,45,48);fill-rule:nonzero;"/>
            <path id="path1012" d="M32.461,85.6L33.551,85.6L33.551,92.768L35.333,92.768L35.333,93.69L32.461,93.69L32.461,85.6Z" style="fill:rgb(44,45,48);fill-rule:nonzero;"/>
            <rect id="path1014" x="36.024" y="85.6" width="1.09" height="8.091" style="fill:rgb(44,45,48);fill-rule:nonzero;"/>
            <path id="path1016" d="M37.727,85.6L41.275,85.6L41.275,86.553L40.054,86.553L40.054,93.69L38.985,93.69L38.985,86.553L37.727,86.553L37.727,85.6Z" style="fill:rgb(44,45,48);fill-rule:nonzero;"/>
            <rect id="path1018" x="41.872" y="85.6" width="1.09" height="8.091" style="fill:rgb(44,45,48);fill-rule:nonzero;"/>
            <path id="path1020" d="M44.22,85.6L47.118,85.6L47.118,86.522L45.31,86.522L45.31,89.084L46.913,89.084L46.913,90.007L45.31,90.007L45.31,92.768L47.118,92.768L47.118,93.69L44.22,93.69L44.22,85.6Z" style="fill:rgb(44,45,48);fill-rule:nonzero;"/>
            <path id="path1022" d="M50.817,85.767L50.817,86.831C50.485,86.594 50.187,86.475 49.921,86.475C49.635,86.475 49.401,86.576 49.219,86.779C49.037,86.971 48.946,87.228 48.946,87.549C48.946,87.832 49.011,88.075 49.14,88.277C49.207,88.386 49.315,88.525 49.465,88.697C49.619,88.868 49.816,89.074 50.057,89.315C50.501,89.766 50.803,90.155 50.964,90.483C51.125,90.801 51.205,91.191 51.205,91.652C51.205,92.277 51.028,92.793 50.676,93.198C50.323,93.593 49.87,93.79 49.318,93.79C48.854,93.79 48.457,93.662 48.129,93.407L48.129,92.328C48.517,92.611 48.87,92.752 49.187,92.752C49.484,92.752 49.717,92.655 49.884,92.459C50.052,92.26 50.136,91.991 50.136,91.652C50.136,91.359 50.071,91.095 49.942,90.861C49.876,90.749 49.783,90.621 49.664,90.478C49.546,90.331 49.397,90.169 49.219,89.991C48.943,89.718 48.714,89.477 48.532,89.268C48.351,89.058 48.216,88.875 48.129,88.718C47.961,88.41 47.877,88.022 47.877,87.554C47.877,86.922 48.042,86.421 48.37,86.05C48.702,85.677 49.147,85.49 49.706,85.49C50.094,85.49 50.464,85.582 50.817,85.767L50.817,85.767Z" style="fill:rgb(44,45,48);fill-rule:nonzero;"/>
        </g>
        <g id="g1054" transform="matrix(0.69682,0,0,1.07632,5.625,108)">
            <path id="path1044" d="M13.454,86.529L15.061,86.529C15.726,86.529 16.221,86.687 16.545,87.004C16.956,87.415 17.161,88.042 17.161,88.887C17.161,89.536 17.051,90.058 16.832,90.453C16.617,90.844 16.309,91.086 15.906,91.18L17.572,95.585L16.334,95.585L14.674,91.151L14.674,95.585L13.454,95.585L13.454,86.529ZM14.674,90.541C15.147,90.541 15.481,90.431 15.677,90.212C15.873,89.993 15.97,89.624 15.97,89.104C15.97,88.822 15.949,88.582 15.906,88.382C15.867,88.183 15.802,88.021 15.712,87.896C15.626,87.77 15.513,87.679 15.372,87.62C15.235,87.561 15.071,87.532 14.879,87.532L14.674,87.532L14.674,90.541Z" style="fill:rgb(44,45,48);fill-rule:nonzero;"/>
            <path id="path1046" d="M18.522,86.529L21.765,86.529L21.765,87.561L19.742,87.561L19.742,90.429L21.537,90.429L21.537,91.462L19.742,91.462L19.742,94.553L21.765,94.553L21.765,95.585L18.522,95.585L18.522,86.529Z" style="fill:rgb(44,45,48);fill-rule:nonzero;"/>
            <path id="path1048" d="M25.906,86.717L25.906,87.907C25.535,87.641 25.201,87.508 24.903,87.508C24.583,87.508 24.321,87.622 24.117,87.849C23.914,88.064 23.812,88.351 23.812,88.711C23.812,89.028 23.885,89.299 24.029,89.526C24.104,89.647 24.225,89.804 24.393,89.995C24.565,90.187 24.786,90.418 25.056,90.688C25.553,91.192 25.891,91.628 26.071,91.996C26.251,92.351 26.34,92.787 26.34,93.304C26.34,94.003 26.143,94.58 25.748,95.034C25.353,95.476 24.847,95.697 24.229,95.697C23.709,95.697 23.265,95.554 22.897,95.268L22.897,94.06C23.331,94.377 23.726,94.535 24.082,94.535C24.415,94.535 24.675,94.426 24.862,94.207C25.05,93.984 25.144,93.683 25.144,93.304C25.144,92.975 25.072,92.68 24.927,92.418C24.853,92.293 24.749,92.15 24.616,91.99C24.483,91.825 24.317,91.644 24.117,91.444C23.809,91.139 23.552,90.869 23.349,90.635C23.146,90.4 22.995,90.195 22.897,90.019C22.71,89.675 22.616,89.241 22.616,88.717C22.616,88.009 22.8,87.448 23.167,87.033C23.539,86.615 24.037,86.406 24.663,86.406C25.097,86.406 25.511,86.509 25.906,86.717L25.906,86.717Z" style="fill:rgb(44,45,48);fill-rule:nonzero;"/>
            <path id="path1050" d="M27.367,86.529L30.611,86.529L30.611,87.561L28.587,87.561L28.587,90.429L30.382,90.429L30.382,91.462L28.587,91.462L28.587,94.553L30.611,94.553L30.611,95.585L27.367,95.585L27.367,86.529Z" style="fill:rgb(44,45,48);fill-rule:nonzero;"/>
            <path id="path1052" d="M31.009,86.529L34.98,86.529L34.98,87.596L33.614,87.596L33.614,95.585L32.417,95.585L32.417,87.596L31.009,87.596L31.009,86.529Z" style="fill:rgb(44,45,48);fill-rule:nonzero;"/>
        </g>
        <g id="g1072" transform="matrix(0.667259,0,0,1.07048,19.2857,108)">
            <path id="path1056" d="M58.265,91.778C58.265,93.386 58.087,94.528 57.729,95.204C57.371,95.881 56.771,96.219 55.93,96.219C55.045,96.219 54.422,95.855 54.061,95.128C53.703,94.416 53.524,93.152 53.524,91.336C53.524,89.716 53.701,88.57 54.055,87.897C54.412,87.221 55.018,86.883 55.871,86.883C56.634,86.883 57.2,87.144 57.57,87.667C57.813,88.017 57.99,88.515 58.1,89.159C58.21,89.757 58.265,90.63 58.265,91.778L58.265,91.778ZM56.98,91.908C56.98,90.331 56.909,89.285 56.768,88.77C56.626,88.251 56.337,87.992 55.901,87.992C55.464,87.992 55.173,88.23 55.028,88.705C54.886,89.185 54.815,90.148 54.815,91.595C54.815,92.928 54.89,93.852 55.04,94.367C55.193,94.854 55.48,95.098 55.901,95.098C56.313,95.098 56.597,94.87 56.75,94.414C56.903,93.962 56.98,93.126 56.98,91.908L56.98,91.908Z" style="fill:rgb(44,45,48);fill-rule:nonzero;"/>
            <path id="path1058" d="M59.486,87.001L60.63,87.001L61.851,90.634C62.205,91.66 62.518,92.755 62.789,93.919C62.691,93.215 62.618,92.578 62.571,92.008C62.523,91.438 62.5,90.901 62.5,90.398L62.5,87.001L63.732,87.001L63.732,96.107L62.582,96.107L61.208,92.008C61.083,91.627 60.963,91.235 60.849,90.834C60.739,90.433 60.636,90.013 60.542,89.572C60.534,89.517 60.52,89.45 60.501,89.372C60.485,89.293 60.465,89.203 60.442,89.1C60.454,89.203 60.463,89.291 60.471,89.366C60.479,89.437 60.485,89.498 60.489,89.549L60.554,90.475L60.619,91.601C60.623,91.664 60.625,91.741 60.625,91.831C60.629,91.921 60.631,92.024 60.631,92.138L60.696,96.107L59.487,96.107L59.486,87.001Z" style="fill:rgb(44,45,48);fill-rule:nonzero;"/>
            <path id="path1060" d="M65.148,87.001L68.409,87.001L68.409,88.039L66.375,88.039L66.375,90.923L68.179,90.923L68.179,91.961L66.375,91.961L66.375,95.069L68.409,95.069L68.409,96.107L65.148,96.107L65.148,87.001Z" style="fill:rgb(44,45,48);fill-rule:nonzero;"/>
            <rect id="path1062" x="68.834" y="92.521" width="2.147" height="0.92" style="fill:rgb(44,45,48);fill-rule:nonzero;"/>
            <path id="path1064" d="M74.719,87.19L74.719,88.387C74.346,88.119 74.01,87.986 73.711,87.986C73.389,87.986 73.125,88.1 72.921,88.328C72.716,88.544 72.614,88.833 72.614,89.195C72.614,89.513 72.687,89.786 72.832,90.015C72.907,90.136 73.029,90.294 73.198,90.486C73.371,90.679 73.593,90.911 73.864,91.182C74.364,91.689 74.704,92.128 74.885,92.497C75.065,92.855 75.156,93.294 75.156,93.813C75.156,94.516 74.957,95.096 74.56,95.552C74.163,95.997 73.654,96.219 73.033,96.219C72.51,96.219 72.064,96.075 71.694,95.788L71.694,94.573C72.13,94.892 72.528,95.051 72.885,95.051C73.22,95.051 73.481,94.941 73.67,94.721C73.858,94.497 73.953,94.194 73.953,93.813C73.953,93.482 73.88,93.185 73.735,92.922C73.66,92.796 73.556,92.653 73.422,92.491C73.288,92.326 73.121,92.144 72.921,91.943C72.61,91.636 72.353,91.365 72.148,91.129C71.944,90.893 71.792,90.687 71.694,90.51C71.505,90.164 71.411,89.728 71.411,89.201C71.411,88.489 71.596,87.925 71.965,87.508C72.339,87.087 72.84,86.877 73.469,86.877C73.906,86.877 74.322,86.981 74.719,87.19L74.719,87.19Z" style="fill:rgb(44,45,48);fill-rule:nonzero;"/>
            <path id="path1066" d="M76.188,87.001L77.415,87.001L77.415,90.563L79.213,90.563L79.213,87.001L80.44,87.001L80.44,96.107L79.213,96.107L79.213,91.601L77.415,91.601L77.415,96.107L76.188,96.107L76.188,87.001Z" style="fill:rgb(44,45,48);fill-rule:nonzero;"/>
            <path id="path1068" d="M86.408,91.778C86.408,93.386 86.229,94.528 85.872,95.204C85.514,95.881 84.914,96.219 84.073,96.219C83.188,96.219 82.565,95.855 82.203,95.128C81.846,94.416 81.667,93.152 81.667,91.336C81.667,89.716 81.844,88.57 82.197,87.897C82.555,87.221 83.161,86.883 84.014,86.883C84.777,86.883 85.343,87.144 85.712,87.667C85.956,88.017 86.133,88.515 86.243,89.159C86.353,89.757 86.408,90.63 86.408,91.778L86.408,91.778ZM85.123,91.908C85.123,90.331 85.052,89.285 84.91,88.77C84.769,88.251 84.48,87.992 84.043,87.992C83.607,87.992 83.316,88.23 83.171,88.705C83.029,89.185 82.958,90.148 82.958,91.595C82.958,92.928 83.033,93.852 83.182,94.367C83.336,94.854 83.623,95.098 84.043,95.098C84.456,95.098 84.739,94.87 84.893,94.414C85.046,93.962 85.123,93.126 85.123,91.908L85.123,91.908Z" style="fill:rgb(44,45,48);fill-rule:nonzero;"/>
            <path id="path1070" d="M86.998,87.001L90.991,87.001L90.991,88.074L89.617,88.074L89.617,96.107L88.413,96.107L88.413,88.074L86.998,88.074L86.998,87.001Z" style="fill:rgb(44,45,48);fill-rule:nonzero;"/>
        </g>
        <g id="g1100" transform="matrix(0.726249,0,0,1.20482,51.8125,172)">
            <path id="path1074" d="M3.012,85.6L4.448,85.6C5.14,85.6 5.643,85.774 5.957,86.124C6.271,86.477 6.429,87.035 6.429,87.801C6.429,88.876 6.112,89.572 5.48,89.886C5.162,90.029 4.703,90.101 4.102,90.101L4.102,93.69L3.012,93.69L3.012,85.6ZM4.102,89.168C4.553,89.168 4.864,89.077 5.035,88.896C5.209,88.711 5.297,88.382 5.297,87.911C5.297,87.428 5.213,87.076 5.045,86.852C4.878,86.629 4.614,86.517 4.254,86.517L4.102,86.517L4.102,89.168Z" style="fill-rule:nonzero;"/>
            <path id="path1076" d="M7.267,85.6L8.703,85.6C9.297,85.6 9.739,85.741 10.028,86.024C10.395,86.391 10.579,86.952 10.579,87.706C10.579,88.286 10.481,88.752 10.285,89.105C10.093,89.455 9.817,89.671 9.457,89.755L10.946,93.69L9.84,93.69L8.357,89.729L8.357,93.69L7.267,93.69L7.267,85.6ZM8.357,89.184C8.78,89.184 9.078,89.086 9.253,88.89C9.428,88.695 9.515,88.365 9.515,87.9C9.515,87.649 9.496,87.434 9.457,87.256C9.422,87.077 9.365,86.932 9.284,86.821C9.208,86.709 9.106,86.627 8.98,86.574C8.858,86.522 8.711,86.496 8.54,86.496L8.357,86.496L8.357,89.184Z" style="fill-rule:nonzero;"/>
            <path id="path1078" d="M15.761,89.844C15.761,91.273 15.602,92.288 15.284,92.889C14.966,93.489 14.434,93.79 13.686,93.79C12.9,93.79 12.346,93.467 12.025,92.82C11.707,92.188 11.548,91.065 11.548,89.451C11.548,88.012 11.705,86.994 12.02,86.396C12.338,85.795 12.876,85.495 13.634,85.495C14.311,85.495 14.814,85.727 15.143,86.192C15.359,86.503 15.517,86.945 15.614,87.518C15.712,88.049 15.761,88.824 15.761,89.844L15.761,89.844ZM14.619,89.959C14.619,88.559 14.556,87.629 14.43,87.172C14.304,86.711 14.048,86.48 13.66,86.48C13.272,86.48 13.014,86.691 12.884,87.114C12.759,87.54 12.696,88.396 12.696,89.682C12.696,90.866 12.762,91.687 12.895,92.145C13.031,92.578 13.286,92.794 13.66,92.794C14.027,92.794 14.278,92.592 14.414,92.186C14.551,91.785 14.619,91.042 14.619,89.959L14.619,89.959Z" style="fill-rule:nonzero;"/>
            <path id="path1080" d="M16.846,85.6L18.324,85.6C19.48,85.6 20.058,86.318 20.058,87.753C20.058,88.302 19.983,88.709 19.833,88.974C19.682,89.24 19.417,89.441 19.036,89.577C19.473,89.752 19.772,89.975 19.932,90.248C20.096,90.517 20.178,90.922 20.178,91.463C20.178,92.948 19.543,93.69 18.271,93.69L16.846,93.69L16.846,85.6ZM17.873,89.163C18.296,89.163 18.589,89.065 18.753,88.869C18.917,88.663 18.999,88.302 18.999,87.785C18.999,86.911 18.685,86.475 18.056,86.475L17.972,86.475L17.925,86.475C17.897,86.475 17.88,86.477 17.873,86.48L17.873,89.163ZM17.873,92.758C18.32,92.758 18.629,92.662 18.8,92.469C18.972,92.277 19.057,91.93 19.057,91.427C19.057,90.91 18.968,90.548 18.79,90.342C18.615,90.132 18.31,90.028 17.873,90.028L17.873,92.758Z" style="fill-rule:nonzero;"/>
            <path id="path1082" d="M22.463,85.6L23.312,85.6L25.046,93.69L23.967,93.69L23.663,92.113L22.06,92.113L21.751,93.69L20.702,93.69L22.463,85.6ZM23.506,91.269L23.265,89.98C23.104,89.104 22.973,88.167 22.872,87.172C22.823,87.657 22.76,88.15 22.683,88.649C22.606,89.145 22.516,89.673 22.411,90.232L22.212,91.269L23.506,91.269Z" style="fill-rule:nonzero;"/>
            <path id="path1084" d="M25.691,85.6L27.169,85.6C28.325,85.6 28.903,86.318 28.903,87.753C28.903,88.302 28.828,88.709 28.678,88.974C28.528,89.24 28.262,89.441 27.881,89.577C28.318,89.752 28.617,89.975 28.777,90.248C28.942,90.517 29.024,90.922 29.024,91.463C29.024,92.948 28.388,93.69 27.116,93.69L25.691,93.69L25.691,85.6ZM26.718,89.163C27.141,89.163 27.434,89.065 27.598,88.869C27.763,88.663 27.845,88.302 27.845,87.785C27.845,86.911 27.53,86.475 26.901,86.475L26.818,86.475L26.77,86.475C26.743,86.475 26.725,86.477 26.718,86.48L26.718,89.163ZM26.718,92.758C27.165,92.758 27.474,92.662 27.646,92.469C27.817,92.277 27.902,91.93 27.902,91.427C27.902,90.91 27.813,90.548 27.635,90.342C27.46,90.132 27.155,90.028 26.718,90.028L26.718,92.758Z" style="fill-rule:nonzero;"/>
            <rect id="path1086" x="30.114" y="85.6" width="1.09" height="8.091" style="fill-rule:nonzero;"/>
            <path id="path1088" d="M32.461,85.6L33.551,85.6L33.551,92.768L35.333,92.768L35.333,93.69L32.461,93.69L32.461,85.6Z" style="fill-rule:nonzero;"/>
            <rect id="path1090" x="36.024" y="85.6" width="1.09" height="8.091" style="fill-rule:nonzero;"/>
            <path id="path1092" d="M37.727,85.6L41.275,85.6L41.275,86.553L40.054,86.553L40.054,93.69L38.985,93.69L38.985,86.553L37.727,86.553L37.727,85.6Z" style="fill-rule:nonzero;"/>
            <rect id="path1094" x="41.872" y="85.6" width="1.09" height="8.091" style="fill-rule:nonzero;"/>
            <path id="path1096" d="M44.22,85.6L47.118,85.6L47.118,86.522L45.31,86.522L45.31,89.084L46.913,89.084L46.913,90.007L45.31,90.007L45.31,92.768L47.118,92.768L47.118,93.69L44.22,93.69L44.22,85.6Z" style="fill-rule:nonzero;"/>
            <path id="path1098" d="M50.817,85.767L50.817,86.831C50.485,86.594 50.187,86.475 49.921,86.475C49.635,86.475 49.401,86.576 49.219,86.779C49.037,86.971 48.946,87.228 48.946,87.549C48.946,87.832 49.011,88.075 49.14,88.277C49.207,88.386 49.315,88.525 49.465,88.697C49.619,88.868 49.816,89.074 50.057,89.315C50.501,89.766 50.803,90.155 50.964,90.483C51.125,90.801 51.205,91.191 51.205,91.652C51.205,92.277 51.028,92.793 50.676,93.198C50.323,93.593 49.87,93.79 49.318,93.79C48.854,93.79 48.457,93.662 48.129,93.407L48.129,92.328C48.517,92.611 48.87,92.752 49.187,92.752C49.484,92.752 49.717,92.655 49.884,92.459C50.052,92.26 50.136,91.991 50.136,91.652C50.136,91.359 50.071,91.095 49.942,90.861C49.876,90.749 49.783,90.621 49.664,90.478C49.546,90.331 49.397,90.169 49.219,89.991C48.943,89.718 48.714,89.477 48.532,89.268C48.351,89.058 48.216,88.875 48.129,88.718C47.961,88.41 47.877,88.022 47.877,87.554C47.877,86.922 48.042,86.421 48.37,86.05C48.702,85.677 49.147,85.49 49.706,85.49C50.094,85.49 50.464,85.582 50.817,85.767L50.817,85.767Z" style="fill-rule:nonzero;"/>
        </g>
        <g id="g1130" transform="matrix(0.69682,0,0,1.07632,5.625,214)">
            <path id="path1120" d="M13.454,86.529L15.061,86.529C15.726,86.529 16.221,86.687 16.545,87.004C16.956,87.415 17.161,88.042 17.161,88.887C17.161,89.536 17.051,90.058 16.832,90.453C16.617,90.844 16.309,91.086 15.906,91.18L17.572,95.585L16.334,95.585L14.674,91.151L14.674,95.585L13.454,95.585L13.454,86.529ZM14.674,90.541C15.147,90.541 15.481,90.431 15.677,90.212C15.873,89.993 15.97,89.624 15.97,89.104C15.97,88.822 15.949,88.582 15.906,88.382C15.867,88.183 15.802,88.021 15.712,87.896C15.626,87.77 15.513,87.679 15.372,87.62C15.235,87.561 15.071,87.532 14.879,87.532L14.674,87.532L14.674,90.541Z" style="fill:rgb(44,45,48);fill-rule:nonzero;"/>
            <path id="path1122" d="M18.522,86.529L21.765,86.529L21.765,87.561L19.742,87.561L19.742,90.429L21.537,90.429L21.537,91.462L19.742,91.462L19.742,94.553L21.765,94.553L21.765,95.585L18.522,95.585L18.522,86.529Z" style="fill:rgb(44,45,48);fill-rule:nonzero;"/>
            <path id="path1124" d="M25.906,86.717L25.906,87.907C25.535,87.641 25.201,87.508 24.903,87.508C24.583,87.508 24.321,87.622 24.117,87.849C23.914,88.064 23.812,88.351 23.812,88.711C23.812,89.028 23.885,89.299 24.029,89.526C24.104,89.647 24.225,89.804 24.393,89.995C24.565,90.187 24.786,90.418 25.056,90.688C25.553,91.192 25.891,91.628 26.071,91.996C26.251,92.351 26.34,92.787 26.34,93.304C26.34,94.003 26.143,94.58 25.748,95.034C25.353,95.476 24.847,95.697 24.229,95.697C23.709,95.697 23.265,95.554 22.897,95.268L22.897,94.06C23.331,94.377 23.726,94.535 24.082,94.535C24.415,94.535 24.675,94.426 24.862,94.207C25.05,93.984 25.144,93.683 25.144,93.304C25.144,92.975 25.072,92.68 24.927,92.418C24.853,92.293 24.749,92.15 24.616,91.99C24.483,91.825 24.317,91.644 24.117,91.444C23.809,91.139 23.552,90.869 23.349,90.635C23.146,90.4 22.995,90.195 22.897,90.019C22.71,89.675 22.616,89.241 22.616,88.717C22.616,88.009 22.8,87.448 23.167,87.033C23.539,86.615 24.037,86.406 24.663,86.406C25.097,86.406 25.511,86.509 25.906,86.717L25.906,86.717Z" style="fill:rgb(44,45,48);fill-rule:nonzero;"/>
            <path id="path1126" d="M27.367,86.529L30.611,86.529L30.611,87.561L28.587,87.561L28.587,90.429L30.382,90.429L30.382,91.462L28.587,91.462L28.587,94.553L30.611,94.553L30.611,95.585L27.367,95.585L27.367,86.529Z" style="fill:rgb(44,45,48);fill-rule:nonzero;"/>
            <path id="path1128" d="M31.009,86.529L34.98,86.529L34.98,87.596L33.614,87.596L33.614,95.585L32.417,95.585L32.417,87.596L31.009,87.596L31.009,86.529Z" style="fill:rgb(44,45,48);fill-rule:nonzero;"/>
        </g>
        <g id="g1148" transform="matrix(0.667259,0,0,1.07048,19.2857,214)">
            <path id="path1132" d="M58.265,91.778C58.265,93.386 58.087,94.528 57.729,95.204C57.371,95.881 56.771,96.219 55.93,96.219C55.045,96.219 54.422,95.855 54.061,95.128C53.703,94.416 53.524,93.152 53.524,91.336C53.524,89.716 53.701,88.57 54.055,87.897C54.412,87.221 55.018,86.883 55.871,86.883C56.634,86.883 57.2,87.144 57.57,87.667C57.813,88.017 57.99,88.515 58.1,89.159C58.21,89.757 58.265,90.63 58.265,91.778L58.265,91.778ZM56.98,91.908C56.98,90.331 56.909,89.285 56.768,88.77C56.626,88.251 56.337,87.992 55.901,87.992C55.464,87.992 55.173,88.23 55.028,88.705C54.886,89.185 54.815,90.148 54.815,91.595C54.815,92.928 54.89,93.852 55.04,94.367C55.193,94.854 55.48,95.098 55.901,95.098C56.313,95.098 56.597,94.87 56.75,94.414C56.903,93.962 56.98,93.126 56.98,91.908L56.98,91.908Z" style="fill:rgb(44,45,48);fill-rule:nonzero;"/>
            <path id="path1134" d="M59.486,87.001L60.63,87.001L61.851,90.634C62.205,91.66 62.518,92.755 62.789,93.919C62.691,93.215 62.618,92.578 62.571,92.008C62.523,91.438 62.5,90.901 62.5,90.398L62.5,87.001L63.732,87.001L63.732,96.107L62.582,96.107L61.208,92.008C61.083,91.627 60.963,91.235 60.849,90.834C60.739,90.433 60.636,90.013 60.542,89.572C60.534,89.517 60.52,89.45 60.501,89.372C60.485,89.293 60.465,89.203 60.442,89.1C60.454,89.203 60.463,89.291 60.471,89.366C60.479,89.437 60.485,89.498 60.489,89.549L60.554,90.475L60.619,91.601C60.623,91.664 60.625,91.741 60.625,91.831C60.629,91.921 60.631,92.024 60.631,92.138L60.696,96.107L59.487,96.107L59.486,87.001Z" style="fill:rgb(44,45,48);fill-rule:nonzero;"/>
            <path id="path1136" d="M65.148,87.001L68.409,87.001L68.409,88.039L66.375,88.039L66.375,90.923L68.179,90.923L68.179,91.961L66.375,91.961L66.375,95.069L68.409,95.069L68.409,96.107L65.148,96.107L65.148,87.001Z" style="fill:rgb(44,45,48);fill-rule:nonzero;"/>
            <rect id="path1138" x="68.834" y="92.521" width="2.147" height="0.92" style="fill:rgb(44,45,48);fill-rule:nonzero;"/>
            <path id="path1140" d="M74.719,87.19L74.719,88.387C74.346,88.119 74.01,87.986 73.711,87.986C73.389,87.986 73.125,88.1 72.921,88.328C72.716,88.544 72.614,88.833 72.614,89.195C72.614,89.513 72.687,89.786 72.832,90.015C72.907,90.136 73.029,90.294 73.198,90.486C73.371,90.679 73.593,90.911 73.864,91.182C74.364,91.689 74.704,92.128 74.885,92.497C75.065,92.855 75.156,93.294 75.156,93.813C75.156,94.516 74.957,95.096 74.56,95.552C74.163,95.997 73.654,96.219 73.033,96.219C72.51,96.219 72.064,96.075 71.694,95.788L71.694,94.573C72.13,94.892 72.528,95.051 72.885,95.051C73.22,95.051 73.481,94.941 73.67,94.721C73.858,94.497 73.953,94.194 73.953,93.813C73.953,93.482 73.88,93.185 73.735,92.922C73.66,92.796 73.556,92.653 73.422,92.491C73.288,92.326 73.121,92.144 72.921,91.943C72.61,91.636 72.353,91.365 72.148,91.129C71.944,90.893 71.792,90.687 71.694,90.51C71.505,90.164 71.411,89.728 71.411,89.201C71.411,88.489 71.596,87.925 71.965,87.508C72.339,87.087 72.84,86.877 73.469,86.877C73.906,86.877 74.322,86.981 74.719,87.19L74.719,87.19Z" style="fill:rgb(44,45,48);fill-rule:nonzero;"/>
            <path id="path1142" d="M76.188,87.001L77.415,87.001L77.415,90.563L79.213,90.563L79.213,87.001L80.44,87.001L80.44,96.107L79.213,96.107L79.213,91.601L77.415,91.601L77.415,96.107L76.188,96.107L76.188,87.001Z" style="fill:rgb(44,45,48);fill-rule:nonzero;"/>
            <path id="path1144" d="M86.408,91.778C86.408,93.386 86.229,94.528 85.872,95.204C85.514,95.881 84.914,96.219 84.073,96.219C83.188,96.219 82.565,95.855 82.203,95.128C81.846,94.416 81.667,93.152 81.667,91.336C81.667,89.716 81.844,88.57 82.197,87.897C82.555,87.221 83.161,86.883 84.014,86.883C84.777,86.883 85.343,87.144 85.712,87.667C85.956,88.017 86.133,88.515 86.243,89.159C86.353,89.757 86.408,90.63 86.408,91.778L86.408,91.778ZM85.123,91.908C85.123,90.331 85.052,89.285 84.91,88.77C84.769,88.251 84.48,87.992 84.043,87.992C83.607,87.992 83.316,88.23 83.171,88.705C83.029,89.185 82.958,90.148 82.958,91.595C82.958,92.928 83.033,93.852 83.182,94.367C83.336,94.854 83.623,95.098 84.043,95.098C84.456,95.098 84.739,94.87 84.893,94.414C85.046,93.962 85.123,93.126 85.123,91.908L85.123,91.908Z" style="fill:rgb(44,45,48);fill-rule:nonzero;"/>
            <path id="path1146" d="M86.998,87.001L90.991,87.001L90.991,88.074L89.617,88.074L89.617,96.107L88.413,96.107L88.413,88.074L86.998,88.074L86.998,87.001Z" style="fill:rgb(44,45,48);fill-rule:nonzero;"/>
        </g>
        <g id="text1152" transform="matrix(0.929967,0,0,1.07531,0,0)">
            <path id="path1159" d="M39.671,227.138C39.671,228.74 39.493,229.878 39.136,230.551C38.78,231.225 38.182,231.562 37.344,231.562C36.463,231.562 35.842,231.199 35.482,230.475C35.126,229.766 34.947,228.507 34.947,226.697C34.947,225.084 35.124,223.942 35.476,223.273C35.833,222.599 36.436,222.262 37.286,222.262C38.045,222.262 38.609,222.523 38.978,223.043C39.22,223.392 39.397,223.887 39.506,224.53C39.616,225.125 39.671,225.994 39.671,227.138L39.671,227.138ZM38.39,227.267C38.39,225.697 38.32,224.655 38.179,224.142C38.038,223.625 37.75,223.367 37.315,223.367C36.88,223.367 36.59,223.603 36.446,224.077C36.305,224.555 36.234,225.515 36.234,226.956C36.234,228.284 36.308,229.204 36.457,229.717C36.61,230.203 36.896,230.446 37.315,230.446C37.726,230.446 38.008,230.218 38.161,229.764C38.314,229.314 38.39,228.481 38.39,227.267L38.39,227.267Z" style="fill:rgb(44,45,48);fill-rule:nonzero;"/>
            <rect id="path1161" x="40.887" y="222.38" width="1.222" height="9.071" style="fill:rgb(44,45,48);fill-rule:nonzero;"/>
            <path id="path1163" d="M42.796,222.38L44,222.38L44.547,225.728L44.641,226.333L44.835,227.649C44.866,227.872 44.893,228.076 44.917,228.26C44.944,228.444 44.968,228.611 44.987,228.759L45.046,229.206C45.058,229.116 45.068,229.036 45.076,228.965C45.083,228.895 45.091,228.836 45.099,228.789L45.258,227.737L45.463,226.357C45.483,226.231 45.501,226.116 45.516,226.01C45.536,225.904 45.553,225.81 45.569,225.728L46.156,222.38L47.296,222.38L45.516,231.45L44.547,231.45L42.796,222.38Z" style="fill:rgb(44,45,48);fill-rule:nonzero;"/>
            <rect id="path1165" x="47.96" y="222.38" width="1.222" height="9.071" style="fill:rgb(44,45,48);fill-rule:nonzero;"/>
            <path id="path1167" d="M50.592,222.38L52.249,222.38C53.545,222.38 54.193,223.184 54.193,224.794C54.193,225.409 54.109,225.865 53.94,226.163C53.772,226.461 53.474,226.686 53.047,226.838C53.537,227.034 53.872,227.285 54.052,227.59C54.236,227.892 54.328,228.346 54.328,228.953C54.328,230.618 53.615,231.45 52.19,231.45L50.592,231.45L50.592,222.38ZM51.743,226.374C52.217,226.374 52.546,226.265 52.73,226.045C52.914,225.814 53.006,225.409 53.006,224.829C53.006,223.85 52.654,223.361 51.949,223.361L51.855,223.361L51.802,223.361C51.771,223.361 51.751,223.363 51.743,223.367L51.743,226.374ZM51.743,230.404C52.245,230.404 52.591,230.297 52.783,230.081C52.975,229.866 53.071,229.476 53.071,228.912C53.071,228.333 52.971,227.927 52.771,227.696C52.576,227.461 52.233,227.344 51.743,227.344L51.743,230.404Z" style="fill:rgb(44,45,48);fill-rule:nonzero;"/>
            <path id="path1169" d="M59.163,224.812L58,224.812L58,224.571C58,224.167 58.033,223.821 58.1,223.531C58.17,223.241 58.278,223.002 58.423,222.814C58.572,222.626 58.76,222.489 58.987,222.403C59.214,222.313 59.486,222.268 59.803,222.268C60.469,222.268 60.955,222.456 61.26,222.832C61.566,223.208 61.719,223.805 61.719,224.624C61.719,225.297 61.648,225.783 61.507,226.081C61.37,226.382 61.106,226.611 60.714,226.768C61.137,226.913 61.429,227.138 61.589,227.444C61.75,227.745 61.83,228.229 61.83,228.895C61.83,229.807 61.658,230.479 61.313,230.91C60.969,231.34 60.432,231.556 59.703,231.556C58.458,231.556 57.835,230.841 57.835,229.412L57.835,229.318L57.835,229.253C57.835,229.21 57.837,229.182 57.841,229.171L58.987,229.171C58.983,229.237 58.979,229.296 58.975,229.347L58.975,229.464C58.975,229.774 59.042,230.021 59.175,230.205C59.312,230.389 59.498,230.481 59.733,230.481C59.886,230.481 60.015,230.451 60.121,230.393C60.23,230.33 60.319,230.232 60.385,230.099C60.456,229.962 60.507,229.786 60.538,229.57C60.569,229.355 60.585,229.094 60.585,228.789C60.585,228.237 60.501,227.839 60.332,227.596C60.168,227.353 59.892,227.232 59.504,227.232C59.461,227.232 59.414,227.236 59.363,227.244C59.312,227.248 59.253,227.254 59.187,227.261L59.187,226.204L59.357,226.204C59.831,226.204 60.152,226.102 60.321,225.899C60.489,225.695 60.573,225.309 60.573,224.741C60.573,223.801 60.336,223.331 59.862,223.331C59.392,223.331 59.157,223.733 59.157,224.536L59.163,224.812Z" style="fill:rgb(44,45,48);fill-rule:nonzero;"/>
        </g>
        <g id="text1156" transform="matrix(0.833749,0,0,1.1994,0,-2)">
            <path id="path1173" d="M4.511,295.773L6.502,295.773L6.502,296.089C6.502,297.672 6.363,298.741 6.086,299.296C5.812,299.865 5.299,300.149 4.548,300.149C3.772,300.149 3.219,299.833 2.889,299.201C2.562,298.569 2.399,297.507 2.399,296.015C2.399,294.309 2.578,293.173 2.936,292.607C3.273,292.077 3.791,291.812 4.49,291.812C5.023,291.812 5.44,291.94 5.738,292.196C6.04,292.456 6.275,292.883 6.444,293.476L5.422,293.903C5.376,293.689 5.325,293.51 5.269,293.366C5.213,293.218 5.152,293.104 5.085,293.023C4.951,292.858 4.751,292.776 4.484,292.776C4.119,292.776 3.87,293.001 3.737,293.45C3.603,293.92 3.536,294.765 3.536,295.983C3.536,297.216 3.605,298.05 3.742,298.485C3.879,298.921 4.137,299.138 4.516,299.138C4.864,299.138 5.108,298.984 5.248,298.675C5.392,298.345 5.464,297.814 5.464,297.084L5.464,296.863L5.464,296.7L4.511,296.7L4.511,295.773Z" style="fill:rgb(158,161,168);fill-rule:nonzero;"/>
            <path id="path1175" d="M7.597,291.917L8.693,291.917L8.693,299.122L10.483,299.122L10.483,300.049L7.597,300.049L7.597,291.917Z" style="fill:rgb(158,161,168);fill-rule:nonzero;"/>
            <path id="path1178" d="M15.25,296.184C15.25,297.62 15.09,298.64 14.771,299.244C14.451,299.848 13.916,300.149 13.164,300.149C12.374,300.149 11.818,299.825 11.495,299.175C11.175,298.54 11.015,297.411 11.015,295.789C11.015,294.342 11.173,293.318 11.489,292.718C11.809,292.114 12.35,291.812 13.112,291.812C13.793,291.812 14.298,292.045 14.629,292.512C14.846,292.825 15.004,293.269 15.103,293.845C15.201,294.379 15.25,295.158 15.25,296.184L15.25,296.184ZM14.102,296.299C14.102,294.891 14.039,293.957 13.912,293.497C13.786,293.034 13.528,292.802 13.138,292.802C12.748,292.802 12.488,293.015 12.358,293.439C12.232,293.868 12.169,294.728 12.169,296.02C12.169,297.211 12.236,298.036 12.369,298.496C12.506,298.931 12.762,299.149 13.138,299.149C13.507,299.149 13.759,298.945 13.896,298.538C14.033,298.134 14.102,297.388 14.102,296.299L14.102,296.299Z" style="fill:rgb(158,161,168);fill-rule:nonzero;"/>
            <path id="path1180" d="M16.34,291.917L17.826,291.917C18.988,291.917 19.569,292.639 19.569,294.082C19.569,294.633 19.493,295.042 19.342,295.309C19.191,295.576 18.925,295.778 18.542,295.915C18.981,296.09 19.281,296.315 19.442,296.589C19.607,296.859 19.69,297.267 19.69,297.811C19.69,299.303 19.051,300.049 17.773,300.049L16.34,300.049L16.34,291.917ZM17.373,295.499C17.797,295.499 18.092,295.401 18.257,295.204C18.422,294.997 18.505,294.633 18.505,294.114C18.505,293.236 18.189,292.797 17.557,292.797L17.473,292.797L17.425,292.797C17.397,292.797 17.38,292.799 17.373,292.802L17.373,295.499ZM17.373,299.112C17.822,299.112 18.133,299.015 18.305,298.822C18.477,298.629 18.563,298.28 18.563,297.774C18.563,297.254 18.473,296.891 18.294,296.684C18.119,296.473 17.811,296.368 17.373,296.368L17.373,299.112Z" style="fill:rgb(158,161,168);fill-rule:nonzero;"/>
            <path id="path1183" d="M21.986,291.917L22.84,291.917L24.583,300.049L23.498,300.049L23.192,298.464L21.581,298.464L21.27,300.049L20.217,300.049L21.986,291.917ZM23.034,297.616L22.792,296.32C22.631,295.439 22.499,294.498 22.397,293.497C22.348,293.985 22.285,294.481 22.208,294.983C22.13,295.481 22.039,296.011 21.934,296.573L21.734,297.616L23.034,297.616Z" style="fill:rgb(158,161,168);fill-rule:nonzero;"/>
            <path id="path1185" d="M25.231,291.917L26.326,291.917L26.326,299.122L28.117,299.122L28.117,300.049L25.231,300.049L25.231,291.917Z" style="fill:rgb(158,161,168);fill-rule:nonzero;"/>
            <path id="path1187" d="M31.045,291.917L32.489,291.917C33.085,291.917 33.53,292.06 33.821,292.344C34.19,292.713 34.374,293.276 34.374,294.035C34.374,294.617 34.276,295.086 34.079,295.441C33.886,295.792 33.609,296.01 33.247,296.094L34.743,300.049L33.631,300.049L32.141,296.068L32.141,300.049L31.045,300.049L31.045,291.917ZM32.141,295.52C32.566,295.52 32.866,295.422 33.042,295.225C33.217,295.028 33.305,294.696 33.305,294.229C33.305,293.977 33.286,293.761 33.247,293.582C33.212,293.403 33.154,293.257 33.073,293.145C32.996,293.032 32.894,292.95 32.768,292.897C32.645,292.844 32.497,292.818 32.325,292.818L32.141,292.818L32.141,295.52Z" style="fill:rgb(158,161,168);fill-rule:nonzero;"/>
            <path id="path1189" d="M35.596,291.917L38.509,291.917L38.509,292.844L36.692,292.844L36.692,295.42L38.303,295.42L38.303,296.347L36.692,296.347L36.692,299.122L38.509,299.122L38.509,300.049L35.596,300.049L35.596,291.917Z" style="fill:rgb(158,161,168);fill-rule:nonzero;"/>
            <path id="path1191" d="M42.227,292.086L42.227,293.155C41.893,292.916 41.593,292.797 41.326,292.797C41.038,292.797 40.803,292.899 40.621,293.102C40.438,293.296 40.347,293.554 40.347,293.877C40.347,294.161 40.412,294.405 40.542,294.609C40.608,294.718 40.717,294.858 40.868,295.03C41.023,295.202 41.221,295.409 41.463,295.652C41.909,296.105 42.213,296.496 42.375,296.826C42.536,297.146 42.617,297.537 42.617,298.001C42.617,298.629 42.439,299.147 42.085,299.554C41.73,299.951 41.275,300.15 40.721,300.15C40.254,300.15 39.855,300.021 39.525,299.765L39.525,298.68C39.915,298.964 40.269,299.107 40.589,299.107C40.887,299.107 41.121,299.008 41.29,298.812C41.458,298.612 41.542,298.341 41.542,298.001C41.542,297.706 41.477,297.441 41.347,297.205C41.281,297.093 41.188,296.965 41.068,296.821C40.949,296.673 40.8,296.51 40.621,296.331C40.343,296.057 40.113,295.815 39.931,295.604C39.748,295.394 39.613,295.209 39.525,295.051C39.357,294.742 39.272,294.352 39.272,293.882C39.272,293.246 39.437,292.742 39.767,292.37C40.101,291.995 40.549,291.807 41.11,291.807C41.5,291.807 41.872,291.9 42.227,292.086L42.227,292.086Z" style="fill:rgb(158,161,168);fill-rule:nonzero;"/>
            <path id="path1193" d="M43.538,291.917L46.451,291.917L46.451,292.844L44.634,292.844L44.634,295.42L46.246,295.42L46.246,296.347L44.634,296.347L44.634,299.122L46.451,299.122L46.451,300.049L43.538,300.049L43.538,291.917Z" style="fill:rgb(158,161,168);fill-rule:nonzero;"/>
            <path id="path1195" d="M46.809,291.917L50.375,291.917L50.375,292.876L49.148,292.876L49.148,300.049L48.073,300.049L48.073,292.876L46.809,292.876L46.809,291.917Z" style="fill:rgb(158,161,168);fill-rule:nonzero;"/>
        </g>
        <g id="text1076" transform="matrix(0.8845,0,0,1.18083,1.95556,0)">
            <path id="path1079" d="M1.181,53.465L4.8,53.465L4.8,54.438L3.555,54.438L3.555,61.719L2.464,61.719L2.464,54.438L1.181,54.438L1.181,53.465Z" style="fill:rgb(44,45,48);fill-rule:nonzero;"/>
            <path id="path1081" d="M6.436,53.465L7.302,53.465L9.072,61.719L7.971,61.719L7.661,60.11L6.025,60.11L5.709,61.719L4.64,61.719L6.436,53.465ZM7.5,59.249L7.254,57.934C7.09,57.039 6.957,56.084 6.853,55.068C6.803,55.564 6.739,56.066 6.661,56.576C6.582,57.082 6.49,57.62 6.383,58.191L6.18,59.249L7.5,59.249Z" style="fill:rgb(44,45,48);fill-rule:nonzero;"/>
            <path id="path1083" d="M9.73,53.465L11.195,53.465C11.9,53.465 12.414,53.643 12.734,53.999C13.055,54.359 13.215,54.929 13.215,55.71C13.215,56.808 12.893,57.517 12.248,57.838C11.923,57.984 11.455,58.057 10.842,58.057L10.842,61.719L9.73,61.719L9.73,53.465ZM10.842,57.105C11.301,57.105 11.619,57.013 11.793,56.827C11.972,56.639 12.061,56.303 12.061,55.822C12.061,55.33 11.975,54.97 11.804,54.742C11.633,54.514 11.364,54.4 10.997,54.4L10.842,54.4L10.842,57.105Z" style="fill:rgb(44,45,48);fill-rule:nonzero;"/>
            <path id="path1085" d="M15.68,53.465L19.3,53.465L19.3,54.438L18.054,54.438L18.054,61.719L16.963,61.719L16.963,54.438L15.68,54.438L15.68,53.465Z" style="fill:rgb(44,45,48);fill-rule:nonzero;"/>
            <path id="path1087" d="M19.909,53.465L21.374,53.465C21.98,53.465 22.431,53.609 22.727,53.898C23.101,54.272 23.288,54.844 23.288,55.614C23.288,56.205 23.188,56.681 22.989,57.041C22.793,57.398 22.511,57.619 22.144,57.704L23.662,61.719L22.534,61.719L21.021,57.677L21.021,61.719L19.909,61.719L19.909,53.465ZM21.021,57.121C21.452,57.121 21.757,57.022 21.935,56.822C22.114,56.623 22.203,56.286 22.203,55.812C22.203,55.555 22.183,55.336 22.144,55.154C22.108,54.972 22.049,54.824 21.967,54.71C21.889,54.596 21.786,54.512 21.657,54.459C21.533,54.406 21.383,54.379 21.208,54.379L21.021,54.379L21.021,57.121Z" style="fill:rgb(44,45,48);fill-rule:nonzero;"/>
            <rect id="path1089" x="24.528" y="53.465" width="1.112" height="8.255" style="fill:rgb(44,45,48);fill-rule:nonzero;"/>
            <path id="path1091" d="M28.902,57.378L30.923,57.378L30.923,57.699C30.923,59.306 30.782,60.392 30.5,60.955C30.222,61.532 29.702,61.821 28.939,61.821C28.151,61.821 27.59,61.5 27.255,60.859C26.924,60.217 26.758,59.139 26.758,57.624C26.758,55.892 26.94,54.739 27.303,54.165C27.645,53.627 28.171,53.358 28.88,53.358C29.422,53.358 29.844,53.488 30.147,53.748C30.454,54.012 30.693,54.445 30.864,55.047L29.827,55.48C29.78,55.263 29.729,55.081 29.672,54.935C29.614,54.785 29.552,54.669 29.484,54.587C29.349,54.42 29.146,54.336 28.875,54.336C28.504,54.336 28.251,54.564 28.116,55.02C27.98,55.498 27.913,56.355 27.913,57.592C27.913,58.843 27.982,59.689 28.121,60.131C28.26,60.573 28.522,60.794 28.907,60.794C29.26,60.794 29.508,60.638 29.65,60.324C29.796,59.989 29.869,59.451 29.869,58.709L29.869,58.485L29.869,58.319L28.902,58.319L28.902,57.378Z" style="fill:rgb(44,45,48);fill-rule:nonzero;"/>
            <path id="path1093" d="M37.541,53.598L37.541,54.598C37.256,54.459 37.017,54.389 36.825,54.389C36.561,54.389 36.335,54.455 36.146,54.587C35.957,54.716 35.8,54.915 35.675,55.186C35.554,55.457 35.463,55.801 35.403,56.218C35.346,56.631 35.317,57.121 35.317,57.688C35.317,59.727 35.839,60.746 36.884,60.746C37.066,60.746 37.285,60.689 37.541,60.575L37.541,61.596C37.274,61.746 36.975,61.821 36.643,61.821C34.972,61.821 34.136,60.456 34.136,57.726C34.136,56.25 34.339,55.152 34.745,54.432C35.155,53.712 35.781,53.352 36.622,53.352C36.932,53.352 37.238,53.434 37.541,53.598L37.541,53.598Z" style="fill:rgb(44,45,48);fill-rule:nonzero;"/>
            <path id="path1095" d="M38.472,53.465L39.584,53.465L39.584,56.694L41.214,56.694L41.214,53.465L42.326,53.465L42.326,61.719L41.214,61.719L41.214,57.635L39.584,57.635L39.584,61.719L38.472,61.719L38.472,53.465Z" style="fill:rgb(44,45,48);fill-rule:nonzero;"/>
            <path id="path1097" d="M44.78,53.465L45.646,53.465L47.416,61.719L46.315,61.719L46.005,60.11L44.369,60.11L44.053,61.719L42.984,61.719L44.78,53.465ZM45.844,59.249L45.598,57.934C45.434,57.039 45.301,56.084 45.197,55.068C45.147,55.564 45.083,56.066 45.005,56.576C44.926,57.082 44.834,57.62 44.727,58.191L44.524,59.249L45.844,59.249Z" style="fill:rgb(44,45,48);fill-rule:nonzero;"/>
            <rect id="path1099" x="48.074" y="53.465" width="1.112" height="8.255" style="fill:rgb(44,45,48);fill-rule:nonzero;"/>
            <path id="path1101" d="M50.469,53.465L51.506,53.465L52.613,56.758C52.933,57.688 53.217,58.681 53.463,59.736C53.374,59.098 53.308,58.52 53.265,58.004C53.222,57.487 53.201,57 53.201,56.544L53.201,53.465L54.318,53.465L54.318,61.719L53.276,61.719L52.03,58.004C51.916,57.658 51.807,57.303 51.704,56.94C51.604,56.576 51.511,56.195 51.426,55.796C51.419,55.746 51.406,55.685 51.388,55.614C51.374,55.543 51.356,55.461 51.335,55.368C51.345,55.461 51.354,55.541 51.362,55.608C51.369,55.673 51.374,55.728 51.378,55.774L51.436,56.614L51.495,57.635C51.499,57.692 51.501,57.761 51.501,57.843C51.504,57.925 51.506,58.018 51.506,58.121L51.565,61.719L50.469,61.719L50.469,53.465Z" style="fill:rgb(44,45,48);fill-rule:nonzero;"/>
        </g>
        <g id="g1129" transform="matrix(0.8845,0,0,1.18083,1.95556,106)">
            <path id="path1105" d="M1.181,53.465L4.8,53.465L4.8,54.438L3.555,54.438L3.555,61.719L2.464,61.719L2.464,54.438L1.181,54.438L1.181,53.465Z" style="fill:rgb(44,45,48);fill-rule:nonzero;"/>
            <path id="path1107" d="M6.436,53.465L7.302,53.465L9.072,61.719L7.971,61.719L7.661,60.11L6.025,60.11L5.709,61.719L4.64,61.719L6.436,53.465ZM7.5,59.249L7.254,57.934C7.09,57.039 6.957,56.084 6.853,55.068C6.803,55.564 6.739,56.066 6.661,56.576C6.582,57.082 6.49,57.62 6.383,58.191L6.18,59.249L7.5,59.249Z" style="fill:rgb(44,45,48);fill-rule:nonzero;"/>
            <path id="path1109" d="M9.73,53.465L11.195,53.465C11.9,53.465 12.414,53.643 12.734,53.999C13.055,54.359 13.215,54.929 13.215,55.71C13.215,56.808 12.893,57.517 12.248,57.838C11.923,57.984 11.455,58.057 10.842,58.057L10.842,61.719L9.73,61.719L9.73,53.465ZM10.842,57.105C11.301,57.105 11.619,57.013 11.793,56.827C11.972,56.639 12.061,56.303 12.061,55.822C12.061,55.33 11.975,54.97 11.804,54.742C11.633,54.514 11.364,54.4 10.997,54.4L10.842,54.4L10.842,57.105Z" style="fill:rgb(44,45,48);fill-rule:nonzero;"/>
            <path id="path1111" d="M15.68,53.465L19.3,53.465L19.3,54.438L18.054,54.438L18.054,61.719L16.963,61.719L16.963,54.438L15.68,54.438L15.68,53.465Z" style="fill:rgb(44,45,48);fill-rule:nonzero;"/>
            <path id="path1113" d="M19.909,53.465L21.374,53.465C21.98,53.465 22.431,53.609 22.727,53.898C23.101,54.272 23.288,54.844 23.288,55.614C23.288,56.205 23.188,56.681 22.989,57.041C22.793,57.398 22.511,57.619 22.144,57.704L23.662,61.719L22.534,61.719L21.021,57.677L21.021,61.719L19.909,61.719L19.909,53.465ZM21.021,57.121C21.452,57.121 21.757,57.022 21.935,56.822C22.114,56.623 22.203,56.286 22.203,55.812C22.203,55.555 22.183,55.336 22.144,55.154C22.108,54.972 22.049,54.824 21.967,54.71C21.889,54.596 21.786,54.512 21.657,54.459C21.533,54.406 21.383,54.379 21.208,54.379L21.021,54.379L21.021,57.121Z" style="fill:rgb(44,45,48);fill-rule:nonzero;"/>
            <rect id="path1115" x="24.528" y="53.465" width="1.112" height="8.255" style="fill:rgb(44,45,48);fill-rule:nonzero;"/>
            <path id="path1117" d="M28.902,57.378L30.923,57.378L30.923,57.699C30.923,59.306 30.782,60.392 30.5,60.955C30.222,61.532 29.702,61.821 28.939,61.821C28.151,61.821 27.59,61.5 27.255,60.859C26.924,60.217 26.758,59.139 26.758,57.624C26.758,55.892 26.94,54.739 27.303,54.165C27.645,53.627 28.171,53.358 28.88,53.358C29.422,53.358 29.844,53.488 30.147,53.748C30.454,54.012 30.693,54.445 30.864,55.047L29.827,55.48C29.78,55.263 29.729,55.081 29.672,54.935C29.614,54.785 29.552,54.669 29.484,54.587C29.349,54.42 29.146,54.336 28.875,54.336C28.504,54.336 28.251,54.564 28.116,55.02C27.98,55.498 27.913,56.355 27.913,57.592C27.913,58.843 27.982,59.689 28.121,60.131C28.26,60.573 28.522,60.794 28.907,60.794C29.26,60.794 29.508,60.638 29.65,60.324C29.796,59.989 29.869,59.451 29.869,58.709L29.869,58.485L29.869,58.319L28.902,58.319L28.902,57.378Z" style="fill:rgb(44,45,48);fill-rule:nonzero;"/>
            <path id="path1119" d="M37.541,53.598L37.541,54.598C37.256,54.459 37.017,54.389 36.825,54.389C36.561,54.389 36.335,54.455 36.146,54.587C35.957,54.716 35.8,54.915 35.675,55.186C35.554,55.457 35.463,55.801 35.403,56.218C35.346,56.631 35.317,57.121 35.317,57.688C35.317,59.727 35.839,60.746 36.884,60.746C37.066,60.746 37.285,60.689 37.541,60.575L37.541,61.596C37.274,61.746 36.975,61.821 36.643,61.821C34.972,61.821 34.136,60.456 34.136,57.726C34.136,56.25 34.339,55.152 34.745,54.432C35.155,53.712 35.781,53.352 36.622,53.352C36.932,53.352 37.238,53.434 37.541,53.598L37.541,53.598Z" style="fill:rgb(44,45,48);fill-rule:nonzero;"/>
            <path id="path1121" d="M38.472,53.465L39.584,53.465L39.584,56.694L41.214,56.694L41.214,53.465L42.326,53.465L42.326,61.719L41.214,61.719L41.214,57.635L39.584,57.635L39.584,61.719L38.472,61.719L38.472,53.465Z" style="fill:rgb(44,45,48);fill-rule:nonzero;"/>
            <path id="path1123" d="M44.78,53.465L45.646,53.465L47.416,61.719L46.315,61.719L46.005,60.11L44.369,60.11L44.053,61.719L42.984,61.719L44.78,53.465ZM45.844,59.249L45.598,57.934C45.434,57.039 45.301,56.084 45.197,55.068C45.147,55.564 45.083,56.066 45.005,56.576C44.926,57.082 44.834,57.62 44.727,58.191L44.524,59.249L45.844,59.249Z" style="fill:rgb(44,45,48);fill-rule:nonzero;"/>
            <rect id="path1125" x="48.074" y="53.465" width="1.112" height="8.255" style="fill:rgb(44,45,48);fill-rule:nonzero;"/>
            <path id="path1127" d="M50.469,53.465L51.506,53.465L52.613,56.758C52.933,57.688 53.217,58.681 53.463,59.736C53.374,59.098 53.308,58.52 53.265,58.004C53.222,57.487 53.201,57 53.201,56.544L53.201,53.465L54.318,53.465L54.318,61.719L53.276,61.719L52.03,58.004C51.916,57.658 51.807,57.303 51.704,56.94C51.604,56.576 51.511,56.195 51.426,55.796C51.419,55.746 51.406,55.685 51.388,55.614C51.374,55.543 51.356,55.461 51.335,55.368C51.345,55.461 51.354,55.541 51.362,55.608C51.369,55.673 51.374,55.728 51.378,55.774L51.436,56.614L51.495,57.635C51.499,57.692 51.501,57.761 51.501,57.843C51.504,57.925 51.506,58.018 51.506,58.121L51.565,61.719L50.469,61.719L50.469,53.465Z" style="fill:rgb(44,45,48);fill-rule:nonzero;"/>
        </g>
        <g id="g1201" transform="matrix(0.8845,0,0,1.18083,1.95556,212)">
            <path id="path1131" d="M1.181,53.465L4.8,53.465L4.8,54.438L3.555,54.438L3.555,61.719L2.464,61.719L2.464,54.438L1.181,54.438L1.181,53.465Z" style="fill:rgb(44,45,48);fill-rule:nonzero;"/>
            <path id="path1148" d="M6.436,53.465L7.302,53.465L9.072,61.719L7.971,61.719L7.661,60.11L6.025,60.11L5.709,61.719L4.64,61.719L6.436,53.465ZM7.5,59.249L7.254,57.934C7.09,57.039 6.957,56.084 6.853,55.068C6.803,55.564 6.739,56.066 6.661,56.576C6.582,57.082 6.49,57.62 6.383,58.191L6.18,59.249L7.5,59.249Z" style="fill:rgb(44,45,48);fill-rule:nonzero;"/>
            <path id="path1151" d="M9.73,53.465L11.195,53.465C11.9,53.465 12.414,53.643 12.734,53.999C13.055,54.359 13.215,54.929 13.215,55.71C13.215,56.808 12.893,57.517 12.248,57.838C11.923,57.984 11.455,58.057 10.842,58.057L10.842,61.719L9.73,61.719L9.73,53.465ZM10.842,57.105C11.301,57.105 11.619,57.013 11.793,56.827C11.972,56.639 12.061,56.303 12.061,55.822C12.061,55.33 11.975,54.97 11.804,54.742C11.633,54.514 11.364,54.4 10.997,54.4L10.842,54.4L10.842,57.105Z" style="fill:rgb(44,45,48);fill-rule:nonzero;"/>
            <path id="path1153" d="M15.68,53.465L19.3,53.465L19.3,54.438L18.054,54.438L18.054,61.719L16.963,61.719L16.963,54.438L15.68,54.438L15.68,53.465Z" style="fill:rgb(44,45,48);fill-rule:nonzero;"/>
            <path id="path1155" d="M19.909,53.465L21.374,53.465C21.98,53.465 22.431,53.609 22.727,53.898C23.101,54.272 23.288,54.844 23.288,55.614C23.288,56.205 23.188,56.681 22.989,57.041C22.793,57.398 22.511,57.619 22.144,57.704L23.662,61.719L22.534,61.719L21.021,57.677L21.021,61.719L19.909,61.719L19.909,53.465ZM21.021,57.121C21.452,57.121 21.757,57.022 21.935,56.822C22.114,56.623 22.203,56.286 22.203,55.812C22.203,55.555 22.183,55.336 22.144,55.154C22.108,54.972 22.049,54.824 21.967,54.71C21.889,54.596 21.786,54.512 21.657,54.459C21.533,54.406 21.383,54.379 21.208,54.379L21.021,54.379L21.021,57.121Z" style="fill:rgb(44,45,48);fill-rule:nonzero;"/>
            <rect id="path1157" x="24.528" y="53.465" width="1.112" height="8.255" style="fill:rgb(44,45,48);fill-rule:nonzero;"/>
            <path id="path1171" d="M28.902,57.378L30.923,57.378L30.923,57.699C30.923,59.306 30.782,60.392 30.5,60.955C30.222,61.532 29.702,61.821 28.939,61.821C28.151,61.821 27.59,61.5 27.255,60.859C26.924,60.217 26.758,59.139 26.758,57.624C26.758,55.892 26.94,54.739 27.303,54.165C27.645,53.627 28.171,53.358 28.88,53.358C29.422,53.358 29.844,53.488 30.147,53.748C30.454,54.012 30.693,54.445 30.864,55.047L29.827,55.48C29.78,55.263 29.729,55.081 29.672,54.935C29.614,54.785 29.552,54.669 29.484,54.587C29.349,54.42 29.146,54.336 28.875,54.336C28.504,54.336 28.251,54.564 28.116,55.02C27.98,55.498 27.913,56.355 27.913,57.592C27.913,58.843 27.982,59.689 28.121,60.131C28.26,60.573 28.522,60.794 28.907,60.794C29.26,60.794 29.508,60.638 29.65,60.324C29.796,59.989 29.869,59.451 29.869,58.709L29.869,58.485L29.869,58.319L28.902,58.319L28.902,57.378Z" style="fill:rgb(44,45,48);fill-rule:nonzero;"/>
            <path id="path1176" d="M37.541,53.598L37.541,54.598C37.256,54.459 37.017,54.389 36.825,54.389C36.561,54.389 36.335,54.455 36.146,54.587C35.957,54.716 35.8,54.915 35.675,55.186C35.554,55.457 35.463,55.801 35.403,56.218C35.346,56.631 35.317,57.121 35.317,57.688C35.317,59.727 35.839,60.746 36.884,60.746C37.066,60.746 37.285,60.689 37.541,60.575L37.541,61.596C37.274,61.746 36.975,61.821 36.643,61.821C34.972,61.821 34.136,60.456 34.136,57.726C34.136,56.25 34.339,55.152 34.745,54.432C35.155,53.712 35.781,53.352 36.622,53.352C36.932,53.352 37.238,53.434 37.541,53.598L37.541,53.598Z" style="fill:rgb(44,45,48);fill-rule:nonzero;"/>
            <path id="path1181" d="M38.472,53.465L39.584,53.465L39.584,56.694L41.214,56.694L41.214,53.465L42.326,53.465L42.326,61.719L41.214,61.719L41.214,57.635L39.584,57.635L39.584,61.719L38.472,61.719L38.472,53.465Z" style="fill:rgb(44,45,48);fill-rule:nonzero;"/>
            <path id="path1190" d="M44.78,53.465L45.646,53.465L47.416,61.719L46.315,61.719L46.005,60.11L44.369,60.11L44.053,61.719L42.984,61.719L44.78,53.465ZM45.844,59.249L45.598,57.934C45.434,57.039 45.301,56.084 45.197,55.068C45.147,55.564 45.083,56.066 45.005,56.576C44.926,57.082 44.834,57.62 44.727,58.191L44.524,59.249L45.844,59.249Z" style="fill:rgb(44,45,48);fill-rule:nonzero;"/>
            <rect id="path1197" x="48.074" y="53.465" width="1.112" height="8.255" style="fill:rgb(44,45,48);fill-rule:nonzero;"/>
            <path id="path1199" d="M50.469,53.465L51.506,53.465L52.613,56.758C52.933,57.688 53.217,58.681 53.463,59.736C53.374,59.098 53.308,58.52 53.265,58.004C53.222,57.487 53.201,57 53.201,56.544L53.201,53.465L54.318,53.465L54.318,61.719L53.276,61.719L52.03,58.004C51.916,57.658 51.807,57.303 51.704,56.94C51.604,56.576 51.511,56.195 51.426,55.796C51.419,55.746 51.406,55.685 51.388,55.614C51.374,55.543 51.356,55.461 51.335,55.368C51.345,55.461 51.354,55.541 51.362,55.608C51.369,55.673 51.374,55.728 51.378,55.774L51.436,56.614L51.495,57.635C51.499,57.692 51.501,57.761 51.501,57.843C51.504,57.925 51.506,58.018 51.506,58.121L51.565,61.719L50.469,61.719L50.469,53.465Z" style="fill:rgb(44,45,48);fill-rule:nonzero;"/>
        </g>
    </g>
</svg>
