<?xml version="1.0" encoding="UTF-8" standalone="no"?>
<!DOCTYPE svg PUBLIC "-//W3C//DTD SVG 1.1//EN" "http://www.w3.org/Graphics/SVG/1.1/DTD/svg11.dtd">
<svg width="100%" height="100%" viewBox="0 0 105 380" version="1.1" xmlns="http://www.w3.org/2000/svg" xmlns:xlink="http://www.w3.org/1999/xlink" xml:space="preserve" xmlns:serif="http://www.serif.com/" style="fill-rule:evenodd;clip-rule:evenodd;stroke-linejoin:round;stroke-miterlimit:2;">
    <g id="Layer-2" serif:id="Layer 2">
        <rect id="rect4689" x="0" y="0" width="105" height="380" style="fill:rgb(44,45,48);"/>
        <g id="text80" transform="matrix(1.00498,0,0,0.995044,7.49999,8.00126)">
            <path id="path4726" d="M29.851,371.706L29.851,363.943L31.853,363.943L32.903,366.668C32.96,366.829 33.024,367.013 33.094,367.221C33.168,367.429 33.249,367.668 33.336,367.94L33.552,368.624C33.475,367.95 33.416,367.373 33.376,366.894C33.336,366.415 33.316,366.013 33.316,365.687L33.316,363.943L35.317,363.943L35.317,371.706L33.316,371.706L32.26,368.85C32.149,368.545 32.049,368.26 31.958,367.995C31.871,367.727 31.794,367.472 31.727,367.231C31.77,367.777 31.802,368.253 31.822,368.659C31.843,369.065 31.853,369.42 31.853,369.725L31.853,371.706L29.851,371.706Z" style="fill:rgb(158,161,168);fill-rule:nonzero;"/>
            <path id="path4728" d="M39.887,371.706L37.791,371.706L37.791,368.418L35.865,363.943L38.052,363.943L38.429,365.094C38.503,365.319 38.568,365.535 38.625,365.743C38.686,365.951 38.739,366.15 38.786,366.341C38.863,366.056 38.93,365.811 38.987,365.607C39.044,365.399 39.095,365.232 39.138,365.104L39.52,363.943L41.692,363.943L39.887,368.418L39.887,371.706Z" style="fill:rgb(158,161,168);fill-rule:nonzero;"/>
            <path id="path4730" d="M41.894,371.515L41.894,369.076C42.306,369.639 42.752,369.921 43.231,369.921C43.412,369.921 43.56,369.874 43.673,369.78C43.787,369.683 43.844,369.562 43.844,369.418C43.844,369.21 43.72,369.008 43.472,368.81L43.13,368.543C42.902,368.372 42.708,368.203 42.547,368.035C42.386,367.865 42.256,367.69 42.155,367.513C42.054,367.332 41.981,367.146 41.934,366.954C41.887,366.763 41.863,366.562 41.863,366.351C41.863,365.989 41.947,365.61 42.115,365.215C42.199,365.03 42.296,364.863 42.406,364.712C42.517,364.558 42.644,364.422 42.789,364.305C43.184,363.969 43.662,363.802 44.222,363.802C44.721,363.802 45.224,363.934 45.73,364.199L45.73,366.572C45.559,366.308 45.365,366.1 45.147,365.949C44.929,365.795 44.714,365.718 44.503,365.718C44.342,365.718 44.21,365.765 44.106,365.858C43.999,365.949 43.945,366.058 43.945,366.185C43.945,366.393 44.087,366.599 44.372,366.804L44.704,367.05C45.147,367.368 45.463,367.695 45.655,368.03C45.849,368.366 45.946,368.758 45.946,369.207C45.946,369.971 45.713,370.601 45.247,371.098C44.781,371.594 44.191,371.842 43.477,371.842C42.985,371.842 42.457,371.733 41.894,371.515Z" style="fill:rgb(158,161,168);fill-rule:nonzero;"/>
            <path id="path4732" d="M49.576,371.706L47.48,371.706L47.48,365.803L46.323,365.803L46.323,363.943L50.778,363.943L50.778,365.803L49.576,365.803L49.576,371.706Z" style="fill:rgb(158,161,168);fill-rule:nonzero;"/>
            <path id="path4734" d="M56.525,371.706L54.428,371.706L54.428,368.584L53.428,368.584L53.428,371.706L51.331,371.706L51.331,363.943L53.428,363.943L53.428,366.688L54.428,366.688L54.428,363.943L56.525,363.943L56.525,371.706Z" style="fill:rgb(158,161,168);fill-rule:nonzero;"/>
            <rect id="path4736" x="57.606" y="363.943" width="2.097" height="7.763" style="fill:rgb(158,161,168);"/>
        </g>
        <g id="g1118" transform="matrix(1,0,0,1,0.688809,0)">
            <path id="rect1061" d="M101.811,26.376C101.811,23.409 99.402,21 96.435,21L7.188,21C4.22,21 1.811,23.409 1.811,26.376L1.811,41.624C1.811,44.591 4.22,47 7.188,47L96.435,47C99.402,47 101.811,44.591 101.811,41.624L101.811,26.376Z" style="fill:rgb(179,179,179);"/>
            <g id="text994-3" transform="matrix(1.07527,0,0,1,-4.64042,-36.1718)">
                <path id="path996-3" d="M42.651,65.802L40.557,65.802L40.557,60.172L42.651,60.172L42.651,65.802ZM42.828,58.427C42.828,58.757 42.708,59.042 42.469,59.281C42.222,59.517 41.936,59.635 41.609,59.635C41.273,59.635 40.984,59.516 40.745,59.276C40.509,59.029 40.391,58.741 40.391,58.411C40.391,58.075 40.509,57.788 40.745,57.552C40.991,57.316 41.278,57.198 41.604,57.198C41.948,57.198 42.238,57.318 42.474,57.557C42.71,57.793 42.828,58.083 42.828,58.427Z" style="fill:rgb(44,45,48);fill-rule:nonzero;"/>
                <path id="path998-8" d="M48.578,65.802L46.49,65.802L46.49,62.823C46.49,62.566 46.464,62.387 46.411,62.286C46.363,62.186 46.276,62.135 46.151,62.135C45.859,62.135 45.714,62.411 45.714,62.963L45.714,65.802L43.625,65.802L43.625,60.172L45.714,60.172C45.71,60.311 45.706,60.439 45.703,60.557C45.699,60.675 45.694,60.785 45.687,60.885L45.667,61.245C46.003,60.45 46.497,60.052 47.146,60.052C47.597,60.052 47.948,60.22 48.198,60.557C48.451,60.894 48.578,61.363 48.578,61.963L48.578,65.802Z" style="fill:rgb(44,45,48);fill-rule:nonzero;"/>
                <path id="path1000" d="M51.63,68.312L49.542,68.312L49.542,60.172L51.63,60.172L51.583,60.969C51.67,60.802 51.759,60.661 51.849,60.547C51.939,60.429 52.036,60.333 52.141,60.26C52.245,60.187 52.356,60.135 52.474,60.104C52.596,60.069 52.729,60.052 52.875,60.052C53.417,60.052 53.858,60.323 54.198,60.864C54.535,61.399 54.703,62.109 54.703,62.995C54.703,63.894 54.542,64.606 54.219,65.13C53.903,65.654 53.467,65.917 52.911,65.917C52.405,65.917 51.962,65.623 51.583,65.036C51.601,65.213 51.611,65.366 51.615,65.495C51.625,65.627 51.63,65.785 51.63,65.969L51.63,68.312ZM52.542,62.932C52.542,62.564 52.498,62.279 52.411,62.078C52.328,61.873 52.208,61.771 52.052,61.771C51.729,61.771 51.568,62.165 51.568,62.953C51.568,63.759 51.724,64.161 52.036,64.161C52.193,64.161 52.316,64.054 52.406,63.838C52.497,63.623 52.542,63.321 52.542,62.932Z" style="fill:rgb(44,45,48);fill-rule:nonzero;"/>
                <path id="path1002" d="M55.521,60.172L57.609,60.172L57.609,63.344C57.609,63.646 57.639,63.866 57.698,64.005C57.76,64.12 57.879,64.177 58.052,64.177C58.222,64.177 58.337,64.12 58.396,64.005C58.458,63.891 58.49,63.67 58.49,63.344L58.49,60.172L60.578,60.172L60.578,63.625C60.578,63.854 60.559,64.062 60.521,64.25C60.486,64.434 60.429,64.602 60.349,64.755C60.273,64.904 60.172,65.042 60.047,65.167C59.925,65.292 59.779,65.406 59.609,65.51C59.151,65.781 58.632,65.917 58.052,65.917C57.465,65.917 56.946,65.781 56.495,65.51C56.321,65.406 56.172,65.293 56.047,65.172C55.925,65.047 55.825,64.908 55.745,64.755C55.668,64.602 55.611,64.434 55.573,64.25C55.538,64.062 55.521,63.854 55.521,63.625L55.521,60.172Z" style="fill:rgb(44,45,48);fill-rule:nonzero;"/>
                <path id="path1004-5" d="M63.917,65.802L61.823,65.802L61.823,61.854L61.229,61.854L61.229,60.172L61.823,60.172L61.823,58.515L63.917,58.515L63.917,60.172L64.609,60.172L64.609,61.854L63.917,61.854L63.917,65.802Z" style="fill:rgb(44,45,48);fill-rule:nonzero;"/>
            </g>
            <g id="path1352" transform="matrix(1.07527,0,0,1,-4.64042,-9.97395)">
                <path d="M39.802,50L36,50L36,41.958L38.172,41.958L38.172,48.068L39.802,48.068L39.802,50Z" style="fill:rgb(44,45,48);fill-rule:nonzero;"/>
            </g>
            <g id="path1349" transform="matrix(1.07529,0,0,0.999978,-10.0166,-9.97395)">
                <path d="M74.717,50.001L72.368,50.001L71.295,47.136C71.285,47.088 71.266,47.024 71.238,46.944C71.214,46.864 71.183,46.768 71.144,46.657L71.16,47.189L71.16,50.001L68.998,50.001L68.998,41.959L71.222,41.959C72.202,41.959 72.934,42.152 73.42,42.537C74.038,43.03 74.347,43.732 74.347,44.642C74.347,45.614 73.932,46.286 73.103,46.657L74.717,50.001ZM71.17,45.683L71.316,45.683C71.566,45.683 71.775,45.588 71.941,45.397C72.108,45.206 72.191,44.963 72.191,44.668C72.191,44.067 71.877,43.767 71.249,43.767L71.17,43.767L71.17,45.683Z" style="fill:rgb(44,45,48);fill-rule:nonzero;"/>
            </g>
        </g>
        <g id="text1122" transform="matrix(0.986459,0,0,0.985629,7.52443,0)">
            <path id="path1128" d="M54.21,50.985L57.771,50.985L57.771,52.113L55.542,52.113L55.542,55.238L57.553,55.238L57.553,56.366L55.542,56.366L55.542,60.875L54.21,60.875L54.21,50.985Z" style="fill:rgb(158,161,168);fill-rule:nonzero;"/>
            <path id="path1130" d="M58.796,50.985L62.338,50.985L62.338,52.113L60.128,52.113L60.128,55.245L62.088,55.245L62.088,56.372L60.128,56.372L60.128,59.748L62.338,59.748L62.338,60.875L58.796,60.875L58.796,50.985Z" style="fill:rgb(158,161,168);fill-rule:nonzero;"/>
            <path id="path1132" d="M63.561,50.985L67.103,50.985L67.103,52.113L64.893,52.113L64.893,55.245L66.853,55.245L66.853,56.372L64.893,56.372L64.893,59.748L67.103,59.748L67.103,60.875L63.561,60.875L63.561,50.985Z" style="fill:rgb(158,161,168);fill-rule:nonzero;"/>
            <path id="path1134" d="M68.327,50.985L69.966,50.985C70.466,50.985 70.887,51.041 71.228,51.152C71.544,51.259 71.826,51.449 72.074,51.722C72.445,52.132 72.71,52.666 72.868,53.323C73.026,53.959 73.105,54.871 73.105,56.058C73.105,57.147 73.017,58.035 72.842,58.723C72.671,59.38 72.39,59.882 71.997,60.228C71.514,60.659 70.65,60.875 69.403,60.875L68.327,60.875L68.327,50.985ZM69.659,59.709C70.47,59.709 71.013,59.464 71.286,58.972C71.568,58.481 71.709,57.527 71.709,56.109C71.709,54.585 71.574,53.537 71.305,52.964C71.036,52.392 70.543,52.106 69.825,52.106L69.659,52.106L69.659,59.709Z" style="fill:rgb(158,161,168);fill-rule:nonzero;"/>
            <rect id="path1136" x="77.14" y="50.985" width="1.332" height="9.89" style="fill:rgb(158,161,168);"/>
            <path id="path1138" d="M80.01,50.985L81.252,50.985L82.578,54.931C82.962,56.045 83.302,57.235 83.597,58.499C83.49,57.734 83.411,57.042 83.36,56.423C83.308,55.804 83.283,55.221 83.283,54.675L83.283,50.985L84.621,50.985L84.621,60.875L83.372,60.875L81.88,56.423C81.743,56.009 81.613,55.584 81.489,55.149C81.37,54.713 81.259,54.256 81.156,53.778C81.148,53.718 81.133,53.646 81.111,53.56C81.094,53.475 81.073,53.376 81.047,53.265C81.06,53.376 81.071,53.473 81.079,53.554C81.088,53.631 81.094,53.697 81.099,53.752L81.169,54.758L81.24,55.981C81.244,56.05 81.246,56.133 81.246,56.231C81.25,56.329 81.252,56.44 81.252,56.564L81.323,60.875L80.01,60.875L80.01,50.985Z" style="fill:rgb(158,161,168);fill-rule:nonzero;"/>
        </g>
        <g id="text1126" transform="matrix(1.01458,0,0,0.985629,7.5,0)">
            <path id="path1141" d="M8.515,51.024L8.515,52.221C8.174,52.055 7.888,51.972 7.657,51.972C7.341,51.972 7.07,52.051 6.844,52.209C6.617,52.362 6.429,52.602 6.28,52.926C6.135,53.251 6.026,53.663 5.953,54.162C5.885,54.658 5.851,55.245 5.851,55.924C5.851,58.366 6.476,59.587 7.728,59.587C7.945,59.587 8.208,59.519 8.515,59.382L8.515,60.606C8.195,60.785 7.836,60.875 7.439,60.875C5.437,60.875 4.435,59.239 4.435,55.969C4.435,54.201 4.679,52.885 5.166,52.023C5.657,51.16 6.406,50.729 7.414,50.729C7.785,50.729 8.152,50.827 8.515,51.024Z" style="fill:rgb(158,161,168);fill-rule:nonzero;"/>
            <path id="path1143" d="M8.842,50.864L10.155,50.864L10.751,54.514L10.853,55.174L11.065,56.609C11.099,56.852 11.129,57.074 11.154,57.275C11.184,57.476 11.21,57.657 11.231,57.82L11.295,58.306C11.308,58.208 11.319,58.121 11.327,58.044C11.336,57.967 11.344,57.903 11.353,57.852L11.526,56.705L11.75,55.2C11.771,55.063 11.791,54.937 11.808,54.822C11.829,54.707 11.848,54.604 11.865,54.514L12.506,50.864L13.748,50.864L11.808,60.753L10.751,60.753L8.842,50.864Z" style="fill:rgb(158,161,168);fill-rule:nonzero;"/>
        </g>
        <g id="g1515" transform="matrix(1,0,0,1.31262,0,-35.7011)">
            <g id="text1185" transform="matrix(1.20517,0,0,0.691464,8.5516,15.9407)">
                <path id="path1232" d="M3.877,141.876C3.877,143.763 3.293,144.706 2.125,144.706C0.956,144.706 0.372,143.748 0.372,141.832C0.372,139.909 0.954,138.948 2.119,138.948C2.421,138.948 2.682,139.005 2.901,139.12C3.124,139.235 3.307,139.413 3.451,139.654C3.595,139.895 3.701,140.199 3.769,140.565C3.841,140.932 3.877,141.369 3.877,141.876ZM2.809,141.849C2.809,141.115 2.761,140.605 2.664,140.317C2.567,140.026 2.394,139.881 2.146,139.881C1.902,139.881 1.727,140.024 1.623,140.312C1.526,140.599 1.477,141.101 1.477,141.816C1.477,142.532 1.526,143.031 1.623,143.315C1.727,143.603 1.902,143.747 2.146,143.747C2.391,143.747 2.561,143.605 2.658,143.321C2.759,143.055 2.809,142.564 2.809,141.849Z" style="fill:rgb(158,161,168);fill-rule:nonzero;"/>
                <path id="path1234" d="M4.831,139.039L5.861,139.039L5.861,142.771C5.869,143.116 5.919,143.362 6.012,143.509C6.109,143.657 6.269,143.73 6.492,143.73C6.726,143.73 6.89,143.666 6.983,143.536C7.076,143.4 7.123,143.163 7.123,142.825L7.123,142.377L7.123,139.039L8.153,139.039L8.153,142.377C8.153,143.157 8.096,143.678 7.981,143.941C7.74,144.451 7.24,144.706 6.481,144.706C5.885,144.706 5.461,144.556 5.209,144.254C4.957,143.948 4.831,143.439 4.831,142.728L4.831,139.039Z" style="fill:rgb(158,161,168);fill-rule:nonzero;"/>
                <path id="path1236" d="M9.442,137.475L10.472,137.475L10.472,139.039L11.033,139.039L11.033,139.859L10.472,139.859L10.472,144.62L9.442,144.62L9.442,139.859L8.876,139.859L8.876,139.039L9.442,139.039L9.442,137.475Z" style="fill:rgb(158,161,168);fill-rule:nonzero;"/>
            </g>
            <g id="text1189" transform="matrix(1.26395,0,0,0.659307,4,15.9407)">
                <path id="path1227" d="M26.471,146.443L27.458,146.443L27.458,151.764L26.471,151.764L26.471,146.443ZM26.934,144.181C27.112,144.181 27.267,144.246 27.397,144.376C27.527,144.506 27.592,144.662 27.592,144.844C27.592,145.029 27.527,145.187 27.397,145.317C27.267,145.447 27.109,145.512 26.924,145.512C26.739,145.512 26.581,145.447 26.451,145.317C26.324,145.19 26.26,145.031 26.26,144.839C26.26,144.66 26.326,144.506 26.456,144.376C26.596,144.246 26.756,144.181 26.934,144.181Z" style="fill:rgb(158,161,168);fill-rule:nonzero;"/>
                <path id="path1229" d="M28.569,146.443L29.551,146.443L29.551,147.055C29.832,146.589 30.195,146.355 30.641,146.355C31.073,146.355 31.381,146.525 31.567,146.864C31.669,147.056 31.721,147.428 31.721,147.98L31.721,151.764L30.739,151.764L30.734,148.206C30.734,147.846 30.691,147.591 30.605,147.44C30.519,147.289 30.372,147.214 30.163,147.214C30.05,147.214 29.954,147.235 29.875,147.276C29.8,147.313 29.738,147.377 29.69,147.466C29.642,147.552 29.606,147.665 29.582,147.805C29.561,147.946 29.551,148.119 29.551,148.325L29.551,151.764L28.569,151.764L28.569,146.443Z" style="fill:rgb(158,161,168);fill-rule:nonzero;"/>
            </g>
            <g id="text1193" transform="matrix(1.26395,0,0,0.659307,-0.962328,15.9407)">
                <path id="path1222" d="M50.025,146.443L51.012,146.443L51.012,151.764L50.025,151.764L50.025,146.443ZM50.488,144.181C50.666,144.181 50.82,144.246 50.95,144.376C51.081,144.506 51.146,144.662 51.146,144.844C51.146,145.029 51.081,145.187 50.95,145.317C50.82,145.447 50.662,145.512 50.477,145.512C50.292,145.512 50.134,145.447 50.004,145.317C49.877,145.19 49.814,145.031 49.814,144.839C49.814,144.66 49.879,144.506 50.009,144.376C50.15,144.246 50.309,144.181 50.488,144.181Z" style="fill:rgb(158,161,168);fill-rule:nonzero;"/>
                <path id="path1224" d="M52.123,146.443L53.105,146.443L53.105,147.055C53.386,146.589 53.749,146.355 54.195,146.355C54.626,146.355 54.935,146.525 55.12,146.864C55.223,147.056 55.274,147.428 55.274,147.98L55.274,151.764L54.292,151.764L54.287,148.206C54.287,147.846 54.244,147.591 54.158,147.44C54.073,147.289 53.925,147.214 53.716,147.214C53.603,147.214 53.507,147.235 53.428,147.276C53.353,147.313 53.291,147.377 53.243,147.466C53.195,147.552 53.159,147.665 53.135,147.805C53.115,147.946 53.104,148.119 53.104,148.325L53.104,151.764L52.123,151.764L52.123,146.443Z" style="fill:rgb(158,161,168);fill-rule:nonzero;"/>
            </g>
            <g id="text1197" transform="matrix(1.20517,0,0,0.691464,-8,15.9407)">
                <path id="path1215" d="M77.984,141.876C77.984,143.763 77.4,144.706 76.231,144.706C75.063,144.706 74.479,143.748 74.479,141.832C74.479,139.909 75.061,138.948 76.226,138.948C76.528,138.948 76.789,139.005 77.008,139.12C77.231,139.235 77.414,139.413 77.558,139.654C77.702,139.895 77.808,140.199 77.876,140.565C77.948,140.932 77.984,141.369 77.984,141.876ZM76.916,141.849C76.916,141.115 76.868,140.605 76.771,140.317C76.674,140.026 76.501,139.881 76.253,139.881C76.009,139.881 75.834,140.024 75.73,140.312C75.633,140.599 75.584,141.101 75.584,141.816C75.584,142.532 75.633,143.031 75.73,143.315C75.834,143.603 76.009,143.747 76.253,143.747C76.497,143.747 76.668,143.605 76.765,143.321C76.866,143.055 76.916,142.564 76.916,141.849Z" style="fill:rgb(158,161,168);fill-rule:nonzero;"/>
                <path id="path1217" d="M78.938,139.039L79.968,139.039L79.968,142.771C79.976,143.116 80.026,143.362 80.119,143.509C80.216,143.657 80.376,143.73 80.599,143.73C80.833,143.73 80.996,143.666 81.09,143.536C81.183,143.4 81.23,143.163 81.23,142.825L81.23,142.377L81.23,139.039L82.26,139.039L82.26,142.377C82.26,143.157 82.202,143.678 82.087,143.941C81.847,144.451 81.347,144.706 80.588,144.706C79.992,144.706 79.567,144.556 79.316,144.254C79.064,143.948 78.938,143.439 78.938,142.728L78.938,139.039Z" style="fill:rgb(158,161,168);fill-rule:nonzero;"/>
                <path id="path1219" d="M83.549,137.475L84.579,137.475L84.579,139.039L85.139,139.039L85.139,139.859L84.579,139.859L84.579,144.62L83.549,144.62L83.549,139.859L82.982,139.859L82.982,139.039L83.549,139.039L83.549,137.475Z" style="fill:rgb(158,161,168);fill-rule:nonzero;"/>
            </g>
        </g>
        <g id="g1257" transform="matrix(1.01458,0,0,0.985629,7.50001,92.9999)">
            <path id="path1253" d="M8.515,51.024L8.515,52.221C8.174,52.055 7.888,51.972 7.657,51.972C7.341,51.972 7.07,52.051 6.844,52.209C6.617,52.362 6.429,52.602 6.28,52.926C6.135,53.251 6.026,53.663 5.953,54.162C5.885,54.658 5.851,55.245 5.851,55.924C5.851,58.366 6.476,59.587 7.728,59.587C7.945,59.587 8.208,59.519 8.515,59.382L8.515,60.606C8.195,60.785 7.836,60.875 7.439,60.875C5.437,60.875 4.435,59.239 4.435,55.969C4.435,54.201 4.679,52.885 5.166,52.023C5.657,51.16 6.406,50.729 7.414,50.729C7.785,50.729 8.152,50.827 8.515,51.024Z" style="fill:rgb(158,161,168);fill-rule:nonzero;"/>
            <path id="path1255" d="M8.842,50.864L10.155,50.864L10.751,54.514L10.853,55.174L11.065,56.609C11.099,56.852 11.129,57.074 11.154,57.275C11.184,57.476 11.21,57.657 11.231,57.82L11.295,58.306C11.308,58.208 11.319,58.121 11.327,58.044C11.336,57.967 11.344,57.903 11.353,57.852L11.526,56.705L11.75,55.2C11.771,55.063 11.791,54.937 11.808,54.822C11.829,54.707 11.848,54.604 11.865,54.514L12.506,50.864L13.748,50.864L11.808,60.753L10.751,60.753L8.842,50.864Z" style="fill:rgb(158,161,168);fill-rule:nonzero;"/>
        </g>
        <g id="text1261" transform="matrix(0.865479,0,0,1.15543,0,2.99999)">
            <path id="path1263" d="M70.481,121.282L73.519,121.282L73.519,122.243L71.618,122.243L71.618,124.91L73.333,124.91L73.333,125.871L71.618,125.871L71.618,129.718L70.481,129.718L70.481,121.282Z" style="fill:rgb(158,161,168);fill-rule:nonzero;"/>
            <path id="path1265" d="M74.393,121.282L77.415,121.282L77.415,122.243L75.53,122.243L75.53,124.915L77.202,124.915L77.202,125.877L75.53,125.877L75.53,128.756L77.415,128.756L77.415,129.718L74.393,129.718L74.393,121.282Z" style="fill:rgb(158,161,168);fill-rule:nonzero;"/>
            <path id="path1267" d="M78.458,121.282L81.48,121.282L81.48,122.243L79.595,122.243L79.595,124.915L81.267,124.915L81.267,125.877L79.595,125.877L79.595,128.756L81.48,128.756L81.48,129.718L78.458,129.718L78.458,121.282Z" style="fill:rgb(158,161,168);fill-rule:nonzero;"/>
            <path id="path1269" d="M82.524,121.282L83.922,121.282C84.349,121.282 84.707,121.329 84.999,121.424C85.268,121.515 85.509,121.677 85.72,121.91C86.037,122.26 86.263,122.715 86.397,123.276C86.532,123.819 86.6,124.597 86.6,125.609C86.6,126.538 86.525,127.296 86.376,127.882C86.23,128.443 85.99,128.871 85.654,129.166C85.243,129.534 84.505,129.718 83.442,129.718L82.524,129.718L82.524,121.282ZM83.66,128.724C84.352,128.724 84.815,128.514 85.048,128.095C85.288,127.676 85.409,126.862 85.409,125.653C85.409,124.353 85.294,123.458 85.064,122.97C84.835,122.482 84.414,122.238 83.802,122.238L83.66,122.238L83.66,128.724Z" style="fill:rgb(158,161,168);fill-rule:nonzero;"/>
            <path id="path1271" d="M87.725,121.282L89.266,121.282C90.472,121.282 91.075,122.03 91.075,123.527C91.075,124.099 90.996,124.524 90.84,124.801C90.683,125.077 90.406,125.287 90.009,125.429C90.464,125.611 90.776,125.844 90.943,126.128C91.115,126.409 91.2,126.831 91.2,127.396C91.2,128.944 90.537,129.718 89.211,129.718L87.725,129.718L87.725,121.282ZM88.796,124.997C89.237,124.997 89.543,124.895 89.714,124.691C89.885,124.476 89.971,124.099 89.971,123.56C89.971,122.65 89.643,122.194 88.987,122.194L88.9,122.194L88.851,122.194C88.822,122.194 88.803,122.196 88.796,122.2L88.796,124.997ZM88.796,128.745C89.262,128.745 89.585,128.645 89.763,128.445C89.942,128.245 90.031,127.882 90.031,127.358C90.031,126.819 89.938,126.442 89.752,126.227C89.57,126.008 89.251,125.899 88.796,125.899L88.796,128.745Z" style="fill:rgb(158,161,168);fill-rule:nonzero;"/>
            <path id="path1273" d="M93.582,121.282L94.468,121.282L96.276,129.718L95.151,129.718L94.834,128.073L93.162,128.073L92.839,129.718L91.747,129.718L93.582,121.282ZM94.67,127.194L94.418,125.85C94.251,124.935 94.114,123.959 94.009,122.921C93.958,123.427 93.892,123.941 93.812,124.462C93.732,124.979 93.637,125.529 93.528,126.112L93.32,127.194L94.67,127.194Z" style="fill:rgb(158,161,168);fill-rule:nonzero;"/>
            <path id="path1275" d="M100.194,121.418L100.194,122.44C99.902,122.298 99.658,122.227 99.462,122.227C99.192,122.227 98.961,122.294 98.768,122.429C98.575,122.56 98.414,122.764 98.287,123.041C98.163,123.318 98.07,123.67 98.008,124.096C97.95,124.518 97.921,125.019 97.921,125.598C97.921,127.682 98.454,128.724 99.522,128.724C99.708,128.724 99.932,128.665 100.194,128.549L100.194,129.592C99.921,129.745 99.615,129.822 99.276,129.822C97.567,129.822 96.713,128.427 96.713,125.637C96.713,124.129 96.921,123.007 97.336,122.271C97.755,121.535 98.394,121.167 99.254,121.167C99.571,121.167 99.884,121.251 100.194,121.418Z" style="fill:rgb(158,161,168);fill-rule:nonzero;"/>
            <path id="path1278" d="M101.145,121.282L102.281,121.282L102.281,125.369L103.866,121.282L105.013,121.282L103.352,125.369L105.144,129.718L103.866,129.718L102.281,125.369L102.281,129.718L101.145,129.718L101.145,121.282Z" style="fill:rgb(158,161,168);fill-rule:nonzero;"/>
        </g>
        <g id="g1334" transform="matrix(1.01458,0,0,0.985629,7.50001,144)">
            <path id="path1330" d="M8.515,51.024L8.515,52.221C8.174,52.055 7.888,51.972 7.657,51.972C7.341,51.972 7.07,52.051 6.844,52.209C6.617,52.362 6.429,52.602 6.28,52.926C6.135,53.251 6.026,53.663 5.953,54.162C5.885,54.658 5.851,55.245 5.851,55.924C5.851,58.366 6.476,59.587 7.728,59.587C7.945,59.587 8.208,59.519 8.515,59.382L8.515,60.606C8.195,60.785 7.836,60.875 7.439,60.875C5.437,60.875 4.435,59.239 4.435,55.969C4.435,54.201 4.679,52.885 5.166,52.023C5.657,51.16 6.406,50.729 7.414,50.729C7.785,50.729 8.152,50.827 8.515,51.024Z" style="fill:rgb(158,161,168);fill-rule:nonzero;"/>
            <path id="path1332" d="M8.842,50.864L10.155,50.864L10.751,54.514L10.853,55.174L11.065,56.609C11.099,56.852 11.129,57.074 11.154,57.275C11.184,57.476 11.21,57.657 11.231,57.82L11.295,58.306C11.308,58.208 11.319,58.121 11.327,58.044C11.336,57.967 11.344,57.903 11.353,57.852L11.526,56.705L11.75,55.2C11.771,55.063 11.791,54.937 11.808,54.822C11.829,54.707 11.848,54.604 11.865,54.514L12.506,50.864L13.748,50.864L11.808,60.753L10.751,60.753L8.842,50.864Z" style="fill:rgb(158,161,168);fill-rule:nonzero;"/>
        </g>
        <g id="text1360" transform="matrix(1.01458,0,0,0.985629,0,-3.00003)">
            <path id="path1362" d="M65.428,200.129L69.764,200.129L69.764,201.294L68.272,201.294L68.272,210.018L66.965,210.018L66.965,201.294L65.428,201.294L65.428,200.129Z" style="fill:rgb(158,161,168);fill-rule:nonzero;"/>
            <rect id="path1364" x="70.495" y="200.129" width="1.332" height="9.89" style="fill:rgb(158,161,168);"/>
            <path id="path1366" d="M73.832,200.129L74.972,200.129L75.843,204.164C75.95,204.668 76.046,205.174 76.131,205.682C76.221,206.186 76.302,206.715 76.375,207.27C76.383,207.198 76.39,207.142 76.394,207.104C76.398,207.061 76.402,207.031 76.407,207.014L76.592,205.88L76.759,204.804L76.906,204.093L77.681,200.129L78.834,200.129L79.744,210.018L78.469,210.018L78.245,206.662C78.236,206.491 78.228,206.344 78.219,206.22C78.215,206.096 78.213,205.994 78.213,205.912L78.155,204.587L78.123,203.37C78.123,203.361 78.121,203.344 78.117,203.318C78.117,203.288 78.114,203.25 78.11,203.203L78.078,203.402C78.044,203.636 78.012,203.841 77.982,204.017C77.956,204.192 77.933,204.339 77.912,204.458L77.745,205.362L77.681,205.701L76.848,210.018L75.952,210.018L75.17,206.29C75.063,205.799 74.967,205.302 74.882,204.798C74.801,204.29 74.726,203.758 74.658,203.203L74.273,210.018L73.018,210.018L73.832,200.129Z" style="fill:rgb(158,161,168);fill-rule:nonzero;"/>
            <path id="path1368" d="M80.845,200.129L84.387,200.129L84.387,201.256L82.178,201.256L82.178,204.388L84.138,204.388L84.138,205.515L82.178,205.515L82.178,208.891L84.387,208.891L84.387,210.018L80.845,210.018L80.845,200.129Z" style="fill:rgb(158,161,168);fill-rule:nonzero;"/>
        </g>
        <g id="text1373" transform="matrix(1.01458,0,0,0.985629,2,13)">
            <path id="path1375" d="M3.77,237.546L4.91,237.546L5.782,241.582C5.888,242.085 5.984,242.591 6.07,243.1C6.159,243.604 6.241,244.133 6.313,244.688C6.322,244.616 6.328,244.56 6.332,244.522C6.337,244.479 6.341,244.449 6.345,244.432L6.531,243.298L6.698,242.222L6.845,241.511L7.62,237.546L8.773,237.546L9.682,247.436L8.408,247.436L8.184,244.08C8.175,243.909 8.166,243.761 8.158,243.638C8.154,243.514 8.152,243.411 8.152,243.33L8.094,242.004L8.062,240.787C8.062,240.779 8.06,240.762 8.055,240.736C8.055,240.706 8.053,240.668 8.049,240.621L8.017,240.819C7.983,241.054 7.951,241.259 7.921,241.434C7.895,241.609 7.872,241.757 7.851,241.876L7.684,242.779L7.62,243.119L6.787,247.436L5.89,247.436L5.109,243.708C5.002,243.217 4.906,242.72 4.821,242.216C4.74,241.708 4.665,241.176 4.597,240.621L4.212,247.436L2.957,247.436L3.77,237.546Z" style="fill:rgb(158,161,168);fill-rule:nonzero;"/>
            <path id="path1377" d="M10.784,237.546L12.091,237.546L12.091,244.534C12.091,245.248 12.155,245.721 12.283,245.956C12.415,246.191 12.676,246.309 13.064,246.309C13.453,246.309 13.709,246.206 13.833,246.001C13.961,245.792 14.025,245.367 14.025,244.727L14.025,237.546L15.332,237.546L15.332,244.727C15.332,245.803 15.167,246.531 14.838,246.911C14.446,247.342 13.846,247.558 13.039,247.558C12.15,247.558 11.525,247.28 11.162,246.725C10.91,246.345 10.784,245.615 10.784,244.534L10.784,237.546Z" style="fill:rgb(158,161,168);fill-rule:nonzero;"/>
            <path id="path1379" d="M16.856,237.546L18.188,237.546L18.188,246.309L20.366,246.309L20.366,247.436L16.856,247.436L16.856,237.546Z" style="fill:rgb(158,161,168);fill-rule:nonzero;"/>
            <path id="path1381" d="M20.193,237.546L24.53,237.546L24.53,238.712L23.037,238.712L23.037,247.436L21.73,247.436L21.73,238.712L20.193,238.712L20.193,237.546Z" style="fill:rgb(158,161,168);fill-rule:nonzero;"/>
        </g>
        <g id="text1386" transform="matrix(0.78962,0,0,0.985629,3.02023,-3.11995)">
            <path id="path1388" d="M-0.026,274.193L4.311,274.193L4.311,275.359L2.818,275.359L2.818,284.083L1.512,284.083L1.512,275.359L-0.026,275.359L-0.026,274.193Z" style="fill:rgb(158,161,168);fill-rule:nonzero;"/>
            <path id="path1390" d="M6.271,274.193L7.308,274.193L9.428,284.083L8.109,284.083L7.737,282.155L5.777,282.155L5.4,284.083L4.119,284.083L6.271,274.193ZM7.545,281.123L7.251,279.548C7.054,278.476 6.894,277.331 6.77,276.114C6.71,276.708 6.634,277.31 6.54,277.921C6.446,278.527 6.335,279.172 6.207,279.855L5.963,281.123L7.545,281.123Z" style="fill:rgb(158,161,168);fill-rule:nonzero;"/>
            <path id="path1392" d="M10.216,274.193L11.971,274.193C12.817,274.193 13.432,274.406 13.816,274.833C14.2,275.265 14.392,275.948 14.392,276.883C14.392,278.198 14.006,279.048 13.233,279.432C12.845,279.607 12.283,279.695 11.549,279.695L11.549,284.083L10.216,284.083L10.216,274.193ZM11.549,278.555C12.099,278.555 12.479,278.444 12.689,278.222C12.902,277.995 13.009,277.594 13.009,277.018C13.009,276.428 12.906,275.997 12.701,275.724C12.497,275.45 12.174,275.314 11.734,275.314L11.549,275.314L11.549,278.555Z" style="fill:rgb(158,161,168);fill-rule:nonzero;"/>
            <rect id="path1394" x="14.501" y="280.188" width="2.331" height="0.999" style="fill:rgb(158,161,168);"/>
            <path id="path1396" d="M21.477,274.353L21.477,275.551C21.135,275.384 20.849,275.301 20.618,275.301C20.302,275.301 20.031,275.38 19.805,275.538C19.579,275.692 19.391,275.931 19.241,276.255C19.096,276.58 18.987,276.992 18.914,277.492C18.846,277.987 18.812,278.574 18.812,279.253C18.812,281.696 19.438,282.917 20.689,282.917C20.907,282.917 21.169,282.848 21.477,282.712L21.477,283.935C21.156,284.115 20.798,284.204 20.4,284.204C18.398,284.204 17.396,282.569 17.396,279.298C17.396,277.53 17.64,276.215 18.127,275.352C18.618,274.49 19.367,274.058 20.375,274.058C20.746,274.058 21.114,274.157 21.477,274.353Z" style="fill:rgb(158,161,168);fill-rule:nonzero;"/>
            <path id="path1398" d="M22.591,274.193L23.923,274.193L23.923,282.955L26.101,282.955L26.101,284.083L22.591,284.083L22.591,274.193Z" style="fill:rgb(158,161,168);fill-rule:nonzero;"/>
            <path id="path1400" d="M26.947,274.193L28.279,274.193L28.279,278.984L30.136,274.193L31.481,274.193L29.534,278.984L31.635,284.083L30.136,284.083L28.279,278.984L28.279,284.083L26.947,284.083L26.947,274.193Z" style="fill:rgb(158,161,168);fill-rule:nonzero;"/>
        </g>
        <g id="text1405" transform="matrix(0.811679,0,0,1.23201,0,-23.12)">
            <path id="path1411" d="M2.464,251.826L3.53,251.826L3.53,254.921L5.093,254.921L5.093,251.826L6.159,251.826L6.159,259.737L5.093,259.737L5.093,255.823L3.53,255.823L3.53,259.737L2.464,259.737L2.464,251.826Z" style="fill:rgb(158,161,168);fill-rule:nonzero;"/>
            <path id="path1413" d="M11.344,255.976C11.344,257.373 11.189,258.366 10.878,258.953C10.567,259.541 10.046,259.835 9.315,259.835C8.546,259.835 8.005,259.519 7.691,258.887C7.38,258.268 7.224,257.17 7.224,255.592C7.224,254.184 7.378,253.189 7.686,252.604C7.996,252.017 8.523,251.723 9.264,251.723C9.927,251.723 10.419,251.95 10.74,252.405C10.951,252.709 11.105,253.141 11.201,253.701C11.297,254.22 11.344,254.979 11.344,255.976ZM10.227,256.089C10.227,254.719 10.166,253.81 10.043,253.363C9.92,252.912 9.669,252.686 9.29,252.686C8.91,252.686 8.658,252.893 8.531,253.307C8.408,253.723 8.347,254.56 8.347,255.817C8.347,256.975 8.412,257.778 8.541,258.226C8.675,258.649 8.924,258.861 9.29,258.861C9.648,258.861 9.894,258.663 10.027,258.267C10.161,257.874 10.227,257.148 10.227,256.089Z" style="fill:rgb(158,161,168);fill-rule:nonzero;"/>
            <path id="path1415" d="M12.405,251.826L13.471,251.826L13.471,258.836L15.213,258.836L15.213,259.737L12.405,259.737L12.405,251.826Z" style="fill:rgb(158,161,168);fill-rule:nonzero;"/>
            <path id="path1417" d="M15.89,251.826L17.201,251.826C17.601,251.826 17.938,251.87 18.211,251.959C18.464,252.044 18.689,252.196 18.887,252.415C19.184,252.743 19.396,253.17 19.523,253.696C19.649,254.205 19.712,254.934 19.712,255.884C19.712,256.755 19.642,257.466 19.502,258.016C19.365,258.542 19.14,258.943 18.826,259.22C18.44,259.565 17.748,259.737 16.75,259.737L15.89,259.737L15.89,251.826ZM16.955,258.805C17.604,258.805 18.038,258.608 18.257,258.216C18.482,257.823 18.595,257.059 18.595,255.925C18.595,254.705 18.488,253.867 18.272,253.409C18.057,252.951 17.663,252.722 17.089,252.722L16.955,252.722L16.955,258.805Z" style="fill:rgb(158,161,168);fill-rule:nonzero;"/>
        </g>
        <g id="g1432" transform="matrix(0.871913,0,0,1.1469,0.499999,-23.12)">
            <path id="path1420" d="M62.506,270.403L64.014,270.403C64.638,270.403 65.102,270.552 65.407,270.849C65.792,271.234 65.985,271.823 65.985,272.616C65.985,273.225 65.882,273.715 65.677,274.086C65.475,274.453 65.185,274.68 64.807,274.768L66.37,278.902L65.209,278.902L63.651,274.741L63.651,278.902L62.506,278.902L62.506,270.403ZM63.651,274.168C64.095,274.168 64.409,274.066 64.592,273.86C64.776,273.655 64.868,273.308 64.868,272.82C64.868,272.556 64.847,272.33 64.807,272.143C64.77,271.956 64.71,271.803 64.625,271.686C64.545,271.568 64.438,271.482 64.306,271.427C64.178,271.372 64.024,271.345 63.844,271.345L63.651,271.345L63.651,274.168Z" style="fill:rgb(158,161,168);fill-rule:nonzero;"/>
            <path id="path1422" d="M67.262,270.403L70.306,270.403L70.306,271.372L68.407,271.372L68.407,274.064L70.091,274.064L70.091,275.033L68.407,275.033L68.407,277.933L70.306,277.933L70.306,278.902L67.262,278.902L67.262,270.403Z" style="fill:rgb(158,161,168);fill-rule:nonzero;"/>
            <path id="path1424" d="M70.68,270.403L71.809,270.403L72.321,273.541L72.409,274.108L72.59,275.341C72.62,275.55 72.645,275.741 72.668,275.913C72.693,276.086 72.715,276.242 72.734,276.381L72.789,276.8C72.8,276.715 72.809,276.64 72.816,276.574C72.823,276.508 72.831,276.453 72.838,276.409L72.987,275.423L73.179,274.13C73.198,274.012 73.214,273.904 73.229,273.805C73.247,273.706 73.264,273.618 73.278,273.541L73.829,270.403L74.897,270.403L73.229,278.902L72.321,278.902L70.68,270.403Z" style="fill:rgb(158,161,168);fill-rule:nonzero;"/>
        </g>
        <g id="text1457" transform="matrix(1.07251,0,0,0.932395,0,0)">
            <path id="path1459" d="M6.351,108.85L9.362,108.85L9.362,109.804L7.477,109.804L7.477,112.447L9.178,112.447L9.178,113.4L7.477,113.4L7.477,117.214L6.351,117.214L6.351,108.85Z" style="fill:rgb(158,161,168);fill-rule:nonzero;"/>
            <path id="path1461" d="M10.229,108.85L13.225,108.85L13.225,109.804L11.356,109.804L11.356,112.452L13.013,112.452L13.013,113.406L11.356,113.406L11.356,116.26L13.225,116.26L13.225,117.214L10.229,117.214L10.229,108.85Z" style="fill:rgb(158,161,168);fill-rule:nonzero;"/>
            <path id="path1464" d="M14.259,108.85L17.255,108.85L17.255,109.804L15.386,109.804L15.386,112.452L17.043,112.452L17.043,113.406L15.386,113.406L15.386,116.26L17.255,116.26L17.255,117.214L14.259,117.214L14.259,108.85Z" style="fill:rgb(158,161,168);fill-rule:nonzero;"/>
            <path id="path1467" d="M18.289,108.85L19.676,108.85C20.098,108.85 20.454,108.897 20.743,108.991C21.01,109.081 21.248,109.242 21.458,109.473C21.772,109.82 21.996,110.271 22.13,110.827C22.263,111.365 22.33,112.136 22.33,113.14C22.33,114.061 22.256,114.812 22.108,115.394C21.963,115.95 21.725,116.374 21.393,116.667C20.985,117.031 20.254,117.214 19.199,117.214L18.289,117.214L18.289,108.85ZM19.416,116.228C20.102,116.228 20.561,116.02 20.792,115.605C21.03,115.19 21.149,114.382 21.149,113.184C21.149,111.894 21.035,111.008 20.808,110.524C20.58,110.04 20.163,109.798 19.557,109.798L19.416,109.798L19.416,116.228Z" style="fill:rgb(158,161,168);fill-rule:nonzero;"/>
            <path id="path1470" d="M23.446,108.85L24.973,108.85C26.169,108.85 26.766,109.592 26.766,111.076C26.766,111.643 26.689,112.064 26.533,112.339C26.378,112.613 26.104,112.821 25.71,112.962C26.161,113.142 26.47,113.373 26.636,113.655C26.806,113.933 26.891,114.352 26.891,114.912C26.891,116.446 26.234,117.214 24.919,117.214L23.446,117.214L23.446,108.85ZM24.508,112.534C24.944,112.534 25.248,112.432 25.418,112.23C25.587,112.017 25.672,111.643 25.672,111.109C25.672,110.206 25.347,109.755 24.697,109.755L24.61,109.755L24.562,109.755C24.533,109.755 24.515,109.757 24.508,109.76L24.508,112.534ZM24.508,116.249C24.97,116.249 25.289,116.15 25.466,115.952C25.643,115.753 25.732,115.394 25.732,114.874C25.732,114.339 25.64,113.965 25.455,113.752C25.275,113.536 24.959,113.427 24.508,113.427L24.508,116.249Z" style="fill:rgb(158,161,168);fill-rule:nonzero;"/>
            <path id="path1472" d="M29.253,108.85L30.13,108.85L31.923,117.214L30.807,117.214L30.493,115.583L28.835,115.583L28.516,117.214L27.433,117.214L29.253,108.85ZM30.33,114.711L30.081,113.379C29.915,112.472 29.78,111.504 29.675,110.475C29.624,110.977 29.559,111.486 29.48,112.003C29.401,112.516 29.307,113.061 29.198,113.639L28.993,114.711L30.33,114.711Z" style="fill:rgb(158,161,168);fill-rule:nonzero;"/>
            <path id="path1474" d="M35.807,108.986L35.807,109.999C35.518,109.858 35.276,109.787 35.081,109.787C34.814,109.787 34.584,109.854 34.393,109.988C34.202,110.118 34.043,110.32 33.916,110.594C33.794,110.869 33.701,111.217 33.64,111.64C33.582,112.059 33.553,112.555 33.553,113.129C33.553,115.195 34.082,116.228 35.14,116.228C35.325,116.228 35.547,116.17 35.807,116.054L35.807,117.089C35.536,117.241 35.233,117.317 34.897,117.317C33.203,117.317 32.356,115.933 32.356,113.167C32.356,111.672 32.562,110.56 32.974,109.831C33.389,109.101 34.023,108.737 34.875,108.737C35.189,108.737 35.5,108.82 35.807,108.986Z" style="fill:rgb(158,161,168);fill-rule:nonzero;"/>
            <path id="path1476" d="M36.749,108.85L37.876,108.85L37.876,112.902L39.447,108.85L40.584,108.85L38.938,112.902L40.714,117.214L39.447,117.214L37.876,112.902L37.876,117.214L36.749,117.214L36.749,108.85Z" style="fill:rgb(158,161,168);fill-rule:nonzero;"/>
            <path id="path1478" d="M46.516,109.024L46.516,110.123C46.173,109.878 45.864,109.755 45.589,109.755C45.293,109.755 45.051,109.86 44.863,110.069C44.676,110.268 44.582,110.533 44.582,110.865C44.582,111.158 44.649,111.409 44.782,111.618C44.851,111.73 44.963,111.875 45.118,112.051C45.277,112.228 45.481,112.441 45.73,112.691C46.189,113.156 46.501,113.559 46.667,113.899C46.833,114.227 46.916,114.63 46.916,115.106C46.916,115.753 46.734,116.286 46.369,116.704C46.005,117.112 45.537,117.317 44.966,117.317C44.486,117.317 44.076,117.185 43.737,116.921L43.737,115.805C44.138,116.098 44.502,116.244 44.831,116.244C45.138,116.244 45.378,116.143 45.551,115.941C45.725,115.735 45.811,115.457 45.811,115.106C45.811,114.803 45.745,114.531 45.611,114.289C45.542,114.173 45.447,114.041 45.324,113.893C45.201,113.741 45.048,113.574 44.864,113.389C44.578,113.108 44.342,112.859 44.154,112.642C43.966,112.425 43.827,112.236 43.737,112.073C43.564,111.755 43.477,111.355 43.477,110.871C43.477,110.217 43.647,109.699 43.986,109.316C44.329,108.93 44.789,108.736 45.367,108.736C45.768,108.736 46.151,108.832 46.516,109.024Z" style="fill:rgb(158,161,168);fill-rule:nonzero;"/>
            <path id="path1480" d="M47.864,108.85L50.86,108.85L50.86,109.804L48.991,109.804L48.991,112.452L50.649,112.452L50.649,113.406L48.991,113.406L48.991,116.26L50.86,116.26L50.86,117.214L47.864,117.214L47.864,108.85Z" style="fill:rgb(158,161,168);fill-rule:nonzero;"/>
            <path id="path1482" d="M51.894,108.85L52.945,108.85L54.066,112.187C54.391,113.129 54.679,114.135 54.928,115.204C54.837,114.558 54.771,113.973 54.727,113.449C54.684,112.925 54.662,112.432 54.662,111.97L54.662,108.85L55.794,108.85L55.794,117.214L54.738,117.214L53.476,113.449C53.36,113.099 53.25,112.739 53.146,112.371C53.044,112.003 52.951,111.616 52.864,111.212C52.857,111.161 52.844,111.1 52.826,111.028C52.812,110.956 52.794,110.872 52.772,110.779C52.783,110.872 52.792,110.954 52.799,111.022C52.806,111.087 52.812,111.143 52.815,111.19L52.875,112.041L52.935,113.075C52.938,113.133 52.94,113.203 52.94,113.286C52.943,113.37 52.945,113.463 52.945,113.568L53.005,117.214L51.894,117.214L51.894,108.85Z" style="fill:rgb(158,161,168);fill-rule:nonzero;"/>
            <path id="path1484" d="M57.094,108.85L58.481,108.85C58.904,108.85 59.259,108.897 59.548,108.991C59.815,109.081 60.054,109.242 60.263,109.473C60.577,109.82 60.801,110.271 60.935,110.827C61.068,111.365 61.135,112.136 61.135,113.14C61.135,114.061 61.061,114.812 60.913,115.394C60.769,115.95 60.53,116.374 60.198,116.667C59.79,117.031 59.059,117.214 58.004,117.214L57.094,117.214L57.094,108.85ZM58.221,116.228C58.907,116.228 59.366,116.02 59.597,115.605C59.835,115.19 59.954,114.382 59.954,113.184C59.954,111.894 59.841,111.008 59.613,110.524C59.386,110.04 58.969,109.798 58.362,109.798L58.221,109.798L58.221,116.228Z" style="fill:rgb(158,161,168);fill-rule:nonzero;"/>
            <rect id="path1486" x="61.606" y="113.92" width="1.972" height="0.845" style="fill:rgb(158,161,168);"/>
            <path id="path1488" d="M64.223,108.85L65.707,108.85C66.321,108.85 66.778,108.996 67.077,109.289C67.457,109.668 67.646,110.248 67.646,111.028C67.646,111.627 67.545,112.109 67.343,112.474C67.144,112.835 66.859,113.059 66.487,113.146L68.025,117.214L66.882,117.214L65.349,113.119L65.349,117.214L64.223,117.214L64.223,108.85ZM65.349,112.555C65.786,112.555 66.095,112.454 66.276,112.252C66.456,112.05 66.547,111.708 66.547,111.228C66.547,110.968 66.527,110.746 66.487,110.562C66.451,110.378 66.391,110.228 66.308,110.112C66.229,109.997 66.124,109.912 65.994,109.858C65.868,109.804 65.716,109.776 65.539,109.776L65.349,109.776L65.349,112.555Z" style="fill:rgb(158,161,168);fill-rule:nonzero;"/>
            <path id="path1490" d="M68.903,108.85L71.898,108.85L71.898,109.804L70.029,109.804L70.029,112.452L71.687,112.452L71.687,113.406L70.029,113.406L70.029,116.26L71.898,116.26L71.898,117.214L68.903,117.214L68.903,108.85Z" style="fill:rgb(158,161,168);fill-rule:nonzero;"/>
            <path id="path1492" d="M72.267,108.85L75.934,108.85L75.934,109.836L74.672,109.836L74.672,117.214L73.567,117.214L73.567,109.836L72.267,109.836L72.267,108.85Z" style="fill:rgb(158,161,168);fill-rule:nonzero;"/>
            <path id="path1494" d="M76.551,108.85L77.656,108.85L77.656,114.76C77.656,115.363 77.71,115.764 77.819,115.962C77.931,116.161 78.151,116.26 78.48,116.26C78.808,116.26 79.025,116.174 79.13,116C79.238,115.823 79.292,115.464 79.292,114.922L79.292,108.85L80.397,108.85L80.397,114.922C80.397,115.832 80.258,116.448 79.98,116.769C79.648,117.134 79.14,117.317 78.458,117.317C77.707,117.317 77.178,117.082 76.871,116.612C76.658,116.291 76.551,115.673 76.551,114.76L76.551,108.85Z" style="fill:rgb(158,161,168);fill-rule:nonzero;"/>
            <path id="path1496" d="M81.686,108.85L83.17,108.85C83.784,108.85 84.241,108.996 84.541,109.289C84.92,109.668 85.11,110.248 85.11,111.028C85.11,111.627 85.008,112.109 84.806,112.474C84.608,112.835 84.322,113.059 83.95,113.146L85.489,117.214L84.346,117.214L82.813,113.119L82.813,117.214L81.686,117.214L81.686,108.85ZM82.813,112.555C83.25,112.555 83.559,112.454 83.739,112.252C83.92,112.05 84.01,111.708 84.01,111.228C84.01,110.968 83.99,110.746 83.95,110.562C83.914,110.378 83.855,110.228 83.772,110.112C83.692,109.997 83.587,109.912 83.457,109.858C83.331,109.804 83.179,109.776 83.002,109.776L82.813,109.776L82.813,112.555Z" style="fill:rgb(158,161,168);fill-rule:nonzero;"/>
            <path id="path1498" d="M86.366,108.85L87.417,108.85L88.538,112.187C88.863,113.129 89.15,114.135 89.4,115.204C89.309,114.558 89.243,113.973 89.199,113.449C89.156,112.925 89.134,112.432 89.134,111.97L89.134,108.85L90.266,108.85L90.266,117.214L89.21,117.214L87.948,113.449C87.832,113.099 87.722,112.739 87.617,112.371C87.516,112.003 87.422,111.616 87.336,111.212C87.328,111.161 87.316,111.1 87.298,111.028C87.284,110.956 87.265,110.872 87.244,110.779C87.255,110.872 87.264,110.954 87.271,111.022C87.278,111.087 87.284,111.143 87.287,111.19L87.347,112.041L87.406,113.075C87.41,113.133 87.412,113.203 87.412,113.286C87.415,113.37 87.417,113.463 87.417,113.568L87.477,117.214L86.366,117.214L86.366,108.85Z" style="fill:rgb(158,161,168);fill-rule:nonzero;"/>
        </g>
        <g id="g1707" transform="matrix(1,0,0,1,0,-5)">
            <g id="g1545" transform="matrix(1,0,0,1,0,205)">
                <g id="g1523" transform="matrix(1.20517,0,0,0.691464,8.5516,15.9407)">
                    <path id="path1517" d="M3.877,141.876C3.877,143.763 3.293,144.706 2.125,144.706C0.956,144.706 0.372,143.748 0.372,141.832C0.372,139.909 0.954,138.948 2.119,138.948C2.421,138.948 2.682,139.005 2.901,139.12C3.124,139.235 3.307,139.413 3.451,139.654C3.595,139.895 3.701,140.199 3.769,140.565C3.841,140.932 3.877,141.369 3.877,141.876ZM2.809,141.849C2.809,141.115 2.761,140.605 2.664,140.317C2.567,140.026 2.394,139.881 2.146,139.881C1.902,139.881 1.727,140.024 1.623,140.312C1.526,140.599 1.477,141.101 1.477,141.816C1.477,142.532 1.526,143.031 1.623,143.315C1.727,143.603 1.902,143.747 2.146,143.747C2.391,143.747 2.561,143.605 2.658,143.321C2.759,143.055 2.809,142.564 2.809,141.849Z" style="fill:rgb(158,161,168);fill-rule:nonzero;"/>
                    <path id="path1519" d="M4.831,139.039L5.861,139.039L5.861,142.771C5.869,143.116 5.919,143.362 6.012,143.509C6.109,143.657 6.269,143.73 6.492,143.73C6.726,143.73 6.89,143.666 6.983,143.536C7.076,143.4 7.123,143.163 7.123,142.825L7.123,142.377L7.123,139.039L8.153,139.039L8.153,142.377C8.153,143.157 8.096,143.678 7.981,143.941C7.74,144.451 7.24,144.706 6.481,144.706C5.885,144.706 5.461,144.556 5.209,144.254C4.957,143.948 4.831,143.439 4.831,142.728L4.831,139.039Z" style="fill:rgb(158,161,168);fill-rule:nonzero;"/>
                    <path id="path1521" d="M9.442,137.475L10.472,137.475L10.472,139.039L11.033,139.039L11.033,139.859L10.472,139.859L10.472,144.62L9.442,144.62L9.442,139.859L8.876,139.859L8.876,139.039L9.442,139.039L9.442,137.475Z" style="fill:rgb(158,161,168);fill-rule:nonzero;"/>
                </g>
                <g id="g1529" transform="matrix(1.26395,0,0,0.659307,4,15.9407)">
                    <path id="path1525" d="M26.471,146.443L27.458,146.443L27.458,151.764L26.471,151.764L26.471,146.443ZM26.934,144.181C27.112,144.181 27.267,144.246 27.397,144.376C27.527,144.506 27.592,144.662 27.592,144.844C27.592,145.029 27.527,145.187 27.397,145.317C27.267,145.447 27.109,145.512 26.924,145.512C26.739,145.512 26.581,145.447 26.451,145.317C26.324,145.19 26.26,145.031 26.26,144.839C26.26,144.66 26.326,144.506 26.456,144.376C26.596,144.246 26.756,144.181 26.934,144.181Z" style="fill:rgb(158,161,168);fill-rule:nonzero;"/>
                    <path id="path1527" d="M28.569,146.443L29.551,146.443L29.551,147.055C29.832,146.589 30.195,146.355 30.641,146.355C31.073,146.355 31.381,146.525 31.567,146.864C31.669,147.056 31.721,147.428 31.721,147.98L31.721,151.764L30.739,151.764L30.734,148.206C30.734,147.846 30.691,147.591 30.605,147.44C30.519,147.289 30.372,147.214 30.163,147.214C30.05,147.214 29.954,147.235 29.875,147.276C29.8,147.313 29.738,147.377 29.69,147.466C29.642,147.552 29.606,147.665 29.582,147.805C29.561,147.946 29.551,148.119 29.551,148.325L29.551,151.764L28.569,151.764L28.569,146.443Z" style="fill:rgb(158,161,168);fill-rule:nonzero;"/>
                </g>
                <g id="g1535" transform="matrix(1.26395,0,0,0.659307,-0.962328,15.9407)">
                    <path id="path1531" d="M50.025,146.443L51.012,146.443L51.012,151.764L50.025,151.764L50.025,146.443ZM50.488,144.181C50.666,144.181 50.82,144.246 50.95,144.376C51.081,144.506 51.146,144.662 51.146,144.844C51.146,145.029 51.081,145.187 50.95,145.317C50.82,145.447 50.662,145.512 50.477,145.512C50.292,145.512 50.134,145.447 50.004,145.317C49.877,145.19 49.814,145.031 49.814,144.839C49.814,144.66 49.879,144.506 50.009,144.376C50.15,144.246 50.309,144.181 50.488,144.181Z" style="fill:rgb(158,161,168);fill-rule:nonzero;"/>
                    <path id="path1533" d="M52.123,146.443L53.105,146.443L53.105,147.055C53.386,146.589 53.749,146.355 54.195,146.355C54.626,146.355 54.935,146.525 55.12,146.864C55.223,147.056 55.274,147.428 55.274,147.98L55.274,151.764L54.292,151.764L54.287,148.206C54.287,147.846 54.244,147.591 54.158,147.44C54.073,147.289 53.925,147.214 53.716,147.214C53.603,147.214 53.507,147.235 53.428,147.276C53.353,147.313 53.291,147.377 53.243,147.466C53.195,147.552 53.159,147.665 53.135,147.805C53.115,147.946 53.104,148.119 53.104,148.325L53.104,151.764L52.123,151.764L52.123,146.443Z" style="fill:rgb(158,161,168);fill-rule:nonzero;"/>
                </g>
                <g id="g1543" transform="matrix(1.20517,0,0,0.691464,-8,15.9407)">
                    <path id="path1537" d="M77.984,141.876C77.984,143.763 77.4,144.706 76.231,144.706C75.063,144.706 74.479,143.748 74.479,141.832C74.479,139.909 75.061,138.948 76.226,138.948C76.528,138.948 76.789,139.005 77.008,139.12C77.231,139.235 77.414,139.413 77.558,139.654C77.702,139.895 77.808,140.199 77.876,140.565C77.948,140.932 77.984,141.369 77.984,141.876ZM76.916,141.849C76.916,141.115 76.868,140.605 76.771,140.317C76.674,140.026 76.501,139.881 76.253,139.881C76.009,139.881 75.834,140.024 75.73,140.312C75.633,140.599 75.584,141.101 75.584,141.816C75.584,142.532 75.633,143.031 75.73,143.315C75.834,143.603 76.009,143.747 76.253,143.747C76.497,143.747 76.668,143.605 76.765,143.321C76.866,143.055 76.916,142.564 76.916,141.849Z" style="fill:rgb(158,161,168);fill-rule:nonzero;"/>
                    <path id="path1539" d="M78.938,139.039L79.968,139.039L79.968,142.771C79.976,143.116 80.026,143.362 80.119,143.509C80.216,143.657 80.376,143.73 80.599,143.73C80.833,143.73 80.996,143.666 81.09,143.536C81.183,143.4 81.23,143.163 81.23,142.825L81.23,142.377L81.23,139.039L82.26,139.039L82.26,142.377C82.26,143.157 82.202,143.678 82.087,143.941C81.847,144.451 81.347,144.706 80.588,144.706C79.992,144.706 79.567,144.556 79.316,144.254C79.064,143.948 78.938,143.439 78.938,142.728L78.938,139.039Z" style="fill:rgb(158,161,168);fill-rule:nonzero;"/>
                    <path id="path1541" d="M83.549,137.475L84.579,137.475L84.579,139.039L85.139,139.039L85.139,139.859L84.579,139.859L84.579,144.62L83.549,144.62L83.549,139.859L82.982,139.859L82.982,139.039L83.549,139.039L83.549,137.475Z" style="fill:rgb(158,161,168);fill-rule:nonzero;"/>
                </g>
            </g>
            <g id="text1589" transform="matrix(1.13434,0,0,0.881573,0,0)">
                <path id="path1591" d="M24.146,348.982L24.146,350.145C23.783,349.885 23.457,349.755 23.166,349.755C22.853,349.755 22.597,349.866 22.399,350.088C22.2,350.298 22.101,350.578 22.101,350.93C22.101,351.239 22.171,351.504 22.313,351.726C22.385,351.844 22.504,351.997 22.668,352.184C22.836,352.371 23.052,352.597 23.315,352.86C23.8,353.353 24.131,353.779 24.306,354.138C24.482,354.485 24.57,354.911 24.57,355.415C24.57,356.099 24.377,356.662 23.991,357.106C23.605,357.537 23.111,357.753 22.507,357.753C21.999,357.753 21.566,357.613 21.207,357.335L21.207,356.154C21.631,356.464 22.017,356.619 22.364,356.619C22.689,356.619 22.943,356.512 23.126,356.298C23.309,356.08 23.401,355.786 23.401,355.415C23.401,355.095 23.33,354.806 23.189,354.55C23.117,354.428 23.015,354.289 22.886,354.132C22.756,353.972 22.593,353.794 22.399,353.599C22.097,353.301 21.847,353.038 21.648,352.809C21.449,352.58 21.302,352.379 21.207,352.207C21.024,351.871 20.932,351.447 20.932,350.935C20.932,350.244 21.111,349.696 21.47,349.291C21.833,348.883 22.32,348.678 22.931,348.678C23.355,348.678 23.76,348.779 24.146,348.982Z" style="fill:rgb(158,161,168);fill-rule:nonzero;"/>
                <path id="path1593" d="M25.572,348.798L28.741,348.798L28.741,349.807L26.764,349.807L26.764,352.608L28.517,352.608L28.517,353.617L26.764,353.617L26.764,356.636L28.741,356.636L28.741,357.644L25.572,357.644L25.572,348.798Z" style="fill:rgb(158,161,168);fill-rule:nonzero;"/>
                <path id="path1595" d="M29.835,348.798L30.946,348.798L32.132,352.328C32.476,353.324 32.779,354.388 33.043,355.519C32.948,354.835 32.877,354.216 32.831,353.662C32.785,353.109 32.762,352.587 32.762,352.098L32.762,348.798L33.96,348.798L33.96,357.644L32.842,357.644L31.508,353.662C31.385,353.292 31.269,352.912 31.158,352.522C31.051,352.133 30.952,351.724 30.86,351.296C30.853,351.243 30.839,351.178 30.82,351.102C30.805,351.025 30.786,350.937 30.763,350.838C30.774,350.937 30.784,351.023 30.792,351.096C30.799,351.165 30.805,351.224 30.809,351.273L30.872,352.173L30.935,353.267C30.939,353.328 30.94,353.403 30.94,353.491C30.944,353.578 30.946,353.678 30.946,353.788L31.009,357.644L29.835,357.644L29.835,348.798Z" style="fill:rgb(158,161,168);fill-rule:nonzero;"/>
                <path id="path1597" d="M35.335,348.798L36.801,348.798C37.248,348.798 37.624,348.848 37.93,348.947C38.212,349.043 38.465,349.213 38.686,349.457C39.018,349.824 39.255,350.301 39.396,350.89C39.538,351.459 39.608,352.274 39.608,353.336C39.608,354.31 39.53,355.104 39.373,355.719C39.221,356.307 38.969,356.756 38.617,357.065C38.186,357.451 37.412,357.644 36.297,357.644L35.335,357.644L35.335,348.798ZM36.526,356.601C37.252,356.601 37.737,356.382 37.981,355.943C38.233,355.503 38.359,354.65 38.359,353.382C38.359,352.018 38.239,351.081 37.999,350.569C37.758,350.057 37.317,349.801 36.675,349.801L36.526,349.801L36.526,356.601Z" style="fill:rgb(158,161,168);fill-rule:nonzero;"/>
                <rect id="path1599" x="40.107" y="354.161" width="2.085" height="0.894" style="fill:rgb(158,161,168);"/>
                <path id="path1601" d="M42.874,348.798L44.444,348.798C45.093,348.798 45.576,348.953 45.893,349.263C46.294,349.664 46.495,350.277 46.495,351.102C46.495,351.736 46.388,352.245 46.174,352.631C45.964,353.013 45.662,353.25 45.269,353.342L46.896,357.644L45.687,357.644L44.066,353.313L44.066,357.644L42.874,357.644L42.874,348.798ZM44.066,352.717C44.528,352.717 44.854,352.61 45.045,352.396C45.236,352.182 45.332,351.821 45.332,351.314C45.332,351.039 45.311,350.804 45.269,350.609C45.23,350.414 45.167,350.256 45.08,350.133C44.996,350.011 44.885,349.921 44.747,349.864C44.614,349.807 44.453,349.778 44.266,349.778L44.066,349.778L44.066,352.717Z" style="fill:rgb(158,161,168);fill-rule:nonzero;"/>
                <path id="path1603" d="M47.824,348.798L50.992,348.798L50.992,349.807L49.015,349.807L49.015,352.608L50.768,352.608L50.768,353.617L49.015,353.617L49.015,356.636L50.992,356.636L50.992,357.644L47.824,357.644L47.824,348.798Z" style="fill:rgb(158,161,168);fill-rule:nonzero;"/>
                <path id="path1605" d="M51.381,348.798L55.26,348.798L55.26,349.841L53.925,349.841L53.925,357.644L52.756,357.644L52.756,349.841L51.381,349.841L51.381,348.798Z" style="fill:rgb(158,161,168);fill-rule:nonzero;"/>
                <path id="path1607" d="M55.913,348.798L57.082,348.798L57.082,355.049C57.082,355.687 57.139,356.111 57.254,356.321C57.372,356.531 57.605,356.636 57.953,356.636C58.3,356.636 58.529,356.544 58.64,356.361C58.755,356.174 58.812,355.794 58.812,355.221L58.812,348.798L59.981,348.798L59.981,355.221C59.981,356.183 59.834,356.834 59.539,357.174C59.188,357.56 58.651,357.753 57.93,357.753C57.135,357.753 56.576,357.505 56.251,357.008C56.026,356.668 55.913,356.015 55.913,355.049L55.913,348.798Z" style="fill:rgb(158,161,168);fill-rule:nonzero;"/>
                <path id="path1609" d="M61.344,348.798L62.914,348.798C63.563,348.798 64.046,348.953 64.363,349.263C64.764,349.664 64.965,350.277 64.965,351.102C64.965,351.736 64.858,352.245 64.644,352.631C64.434,353.013 64.132,353.25 63.739,353.342L65.366,357.644L64.157,357.644L62.536,353.313L62.536,357.644L61.344,357.644L61.344,348.798ZM62.536,352.717C62.998,352.717 63.324,352.61 63.515,352.396C63.706,352.182 63.802,351.821 63.802,351.314C63.802,351.039 63.781,350.804 63.739,350.609C63.701,350.414 63.638,350.256 63.55,350.133C63.466,350.011 63.355,349.921 63.217,349.864C63.084,349.807 62.923,349.778 62.736,349.778L62.536,349.778L62.536,352.717Z" style="fill:rgb(158,161,168);fill-rule:nonzero;"/>
                <path id="path1611" d="M66.294,348.798L67.405,348.798L68.591,352.328C68.935,353.324 69.239,354.388 69.502,355.519C69.407,354.835 69.336,354.216 69.29,353.662C69.244,353.109 69.221,352.587 69.221,352.098L69.221,348.798L70.419,348.798L70.419,357.644L69.302,357.644L67.967,353.662C67.845,353.292 67.728,352.912 67.617,352.522C67.51,352.133 67.411,351.724 67.319,351.296C67.312,351.243 67.299,351.178 67.279,351.102C67.264,351.025 67.245,350.937 67.222,350.838C67.233,350.937 67.243,351.023 67.251,351.096C67.258,351.165 67.264,351.224 67.268,351.273L67.331,352.173L67.394,353.267C67.398,353.328 67.399,353.403 67.399,353.491C67.403,353.578 67.405,353.678 67.405,353.788L67.468,357.644L66.294,357.644L66.294,348.798Z" style="fill:rgb(158,161,168);fill-rule:nonzero;"/>
            </g>
        </g>
        <g id="text1711" transform="matrix(0.870171,0,0,1.1492,0,0)">
            <path id="path1764" d="M13.993,12.25L13.83,15.282C13.2,15.536 12.636,15.663 12.137,15.663C10.964,15.663 9.976,15.233 9.173,14.371C8.276,13.406 7.827,12.04 7.827,10.272C7.827,8.618 8.249,7.29 9.092,6.288C9.935,5.291 11.061,4.793 12.471,4.793C12.928,4.793 13.395,4.879 13.871,5.051L13.871,8.049C13.45,7.628 13.017,7.417 12.573,7.417C11.992,7.417 11.539,7.664 11.213,8.158C10.887,8.656 10.723,9.345 10.723,10.225C10.723,10.651 10.764,11.031 10.846,11.367C10.927,11.702 11.043,11.985 11.193,12.216C11.347,12.448 11.535,12.624 11.757,12.747C11.979,12.869 12.233,12.93 12.518,12.93C13.008,12.93 13.499,12.704 13.993,12.25Z" style="fill:rgb(158,161,168);fill-rule:nonzero;"/>
            <path id="path1766" d="M20.071,15.48L15.108,15.48L15.108,4.983L17.943,4.983L17.943,12.957L20.071,12.957L20.071,15.48Z" style="fill:rgb(158,161,168);fill-rule:nonzero;"/>
            <path id="path1768" d="M28.616,10.265C28.616,11.865 28.252,13.166 27.522,14.167C26.797,15.165 25.852,15.663 24.687,15.663C23.654,15.663 22.768,15.28 22.029,14.514C21.1,13.544 20.635,12.089 20.635,10.15C20.635,8.292 21.12,6.871 22.09,5.887C22.811,5.158 23.665,4.793 24.653,4.793C25.863,4.793 26.826,5.287 27.542,6.275C28.258,7.263 28.616,8.593 28.616,10.265ZM25.673,10.286C25.673,8.387 25.337,7.437 24.667,7.437C24.331,7.437 24.064,7.687 23.864,8.185C23.67,8.647 23.572,9.327 23.572,10.225C23.572,11.108 23.663,11.795 23.844,12.284C24.03,12.769 24.286,13.012 24.612,13.012C24.948,13.012 25.206,12.772 25.387,12.291C25.578,11.811 25.673,11.142 25.673,10.286Z" style="fill:rgb(158,161,168);fill-rule:nonzero;"/>
            <path id="path1770" d="M35.72,12.25L35.557,15.282C34.927,15.536 34.363,15.663 33.865,15.663C32.691,15.663 31.703,15.233 30.901,14.371C30.003,13.406 29.554,12.04 29.554,10.272C29.554,8.618 29.976,7.29 30.819,6.288C31.662,5.291 32.788,4.793 34.198,4.793C34.655,4.793 35.122,4.879 35.598,5.051L35.598,8.049C35.177,7.628 34.744,7.417 34.3,7.417C33.72,7.417 33.266,7.664 32.94,8.158C32.614,8.656 32.451,9.345 32.451,10.225C32.451,10.651 32.491,11.031 32.573,11.367C32.654,11.702 32.77,11.985 32.92,12.216C33.074,12.448 33.262,12.624 33.484,12.747C33.706,12.869 33.96,12.93 34.245,12.93C34.735,12.93 35.226,12.704 35.72,12.25Z" style="fill:rgb(158,161,168);fill-rule:nonzero;"/>
            <path id="path1772" d="M44.782,15.48L41.723,15.48L39.84,10.639L39.915,15.48L37.08,15.48L37.08,4.983L39.915,4.983L39.84,9.484L41.513,4.983L44.504,4.983L42.24,10.048L44.782,15.48Z" style="fill:rgb(158,161,168);fill-rule:nonzero;"/>
            <path id="path1774" d="M53.151,15.48L50.221,15.48L50.01,14.147L48.1,14.147L47.869,15.48L44.939,15.48L47.461,4.983L50.928,4.983L53.151,15.48ZM49.677,11.897L49.494,10.673C49.489,10.669 49.48,10.607 49.466,10.49C49.457,10.39 49.41,9.996 49.324,9.307C49.315,9.23 49.303,9.125 49.29,8.994C49.276,8.858 49.258,8.688 49.235,8.484L49.147,7.492C49.138,7.587 49.124,7.693 49.106,7.811C49.093,7.929 49.077,8.058 49.059,8.199C49.027,8.48 49.004,8.675 48.991,8.783C48.977,8.892 48.968,8.958 48.963,8.98L48.766,10.252L48.481,11.897L49.677,11.897Z" style="fill:rgb(158,161,168);fill-rule:nonzero;"/>
            <path id="path1776" d="M53.967,15.48L53.967,4.983L57.264,4.983C58.497,4.983 59.41,5.255 60.004,5.799C60.606,6.356 60.908,7.077 60.908,7.961C60.908,9.275 60.255,9.987 58.95,10.095C59.693,10.204 60.237,10.449 60.582,10.83C60.931,11.21 61.105,11.759 61.105,12.475C61.105,13.377 60.813,14.102 60.228,14.65C59.648,15.203 58.884,15.48 57.937,15.48L53.967,15.48ZM56.802,13.202C56.856,13.207 56.904,13.211 56.944,13.216L57.046,13.216C57.4,13.216 57.681,13.123 57.889,12.937C58.102,12.751 58.209,12.502 58.209,12.189C58.209,11.876 58.102,11.632 57.889,11.455C57.681,11.278 57.393,11.19 57.026,11.19L56.802,11.19L56.802,13.202ZM56.802,9.062L56.992,9.062C57.332,9.062 57.599,8.983 57.794,8.824C57.994,8.665 58.093,8.443 58.093,8.158C58.093,7.551 57.76,7.247 57.094,7.247C57.062,7.247 57.022,7.249 56.972,7.254C56.926,7.254 56.87,7.256 56.802,7.26L56.802,9.062Z" style="fill:rgb(158,161,168);fill-rule:nonzero;"/>
            <path id="path1778" d="M67.278,15.48L62.315,15.48L62.315,4.983L65.15,4.983L65.15,12.957L67.278,12.957L67.278,15.48Z" style="fill:rgb(158,161,168);fill-rule:nonzero;"/>
            <path id="path1780" d="M68.134,15.48L68.134,4.983L73.403,4.983L73.403,7.451L70.969,7.451L70.969,8.98L73.151,8.98L73.151,11.353L70.969,11.353L70.969,12.957L73.403,12.957L73.403,15.48L68.134,15.48Z" style="fill:rgb(158,161,168);fill-rule:nonzero;"/>
            <path id="path1782" d="M74.606,15.48L74.606,4.983L77.054,4.983C78.454,4.983 79.544,5.359 80.324,6.112C81.348,7.095 81.86,8.471 81.86,10.238C81.86,11.978 81.427,13.322 80.561,14.269C79.823,15.076 78.721,15.48 77.258,15.48L74.606,15.48ZM77.441,12.944C78.456,12.894 78.964,12.019 78.964,10.32C78.964,9.481 78.835,8.82 78.576,8.335C78.318,7.845 77.969,7.6 77.529,7.6L77.441,7.6L77.441,12.944Z" style="fill:rgb(158,161,168);fill-rule:nonzero;"/>
            <path id="path1784" d="M83.063,15.48L83.063,4.983L88.332,4.983L88.332,7.451L85.898,7.451L85.898,8.98L88.08,8.98L88.08,11.353L85.898,11.353L85.898,12.957L88.332,12.957L88.332,15.48L83.063,15.48Z" style="fill:rgb(158,161,168);fill-rule:nonzero;"/>
            <path id="path1786" d="M94.498,15.48L89.535,15.48L89.535,4.983L92.37,4.983L92.37,12.957L94.498,12.957L94.498,15.48Z" style="fill:rgb(158,161,168);fill-rule:nonzero;"/>
            <path id="path1788" d="M103.295,15.48L100.365,15.48L100.154,14.147L98.244,14.147L98.012,15.48L95.082,15.48L97.605,4.983L101.072,4.983L103.295,15.48ZM99.821,11.897L99.637,10.673C99.633,10.669 99.624,10.607 99.61,10.49C99.601,10.39 99.553,9.996 99.467,9.307C99.458,9.23 99.447,9.125 99.433,8.994C99.42,8.858 99.402,8.688 99.379,8.484L99.291,7.492C99.281,7.587 99.268,7.693 99.25,7.811C99.236,7.929 99.22,8.058 99.202,8.199C99.17,8.48 99.148,8.675 99.134,8.783C99.121,8.892 99.111,8.958 99.107,8.98L98.91,10.252L98.624,11.897L99.821,11.897Z" style="fill:rgb(158,161,168);fill-rule:nonzero;"/>
            <path id="path1790" d="M108.815,15.48L105.98,15.48L105.98,11.033L103.376,4.983L106.333,4.983L106.843,6.54C106.943,6.844 107.031,7.136 107.108,7.417C107.19,7.698 107.263,7.968 107.326,8.226C107.43,7.841 107.521,7.51 107.598,7.233C107.675,6.952 107.743,6.726 107.802,6.553L108.319,4.983L111.255,4.983L108.815,11.033L108.815,15.48Z" style="fill:rgb(158,161,168);fill-rule:nonzero;"/>
        </g>
        <g id="text1715" transform="matrix(0.915067,0,0,1.09282,0,2)">
            <path id="path1749" d="M44.259,309.615L45.321,309.615C45.645,309.615 45.917,309.651 46.138,309.723C46.343,309.792 46.526,309.915 46.686,310.092C46.927,310.358 47.098,310.703 47.2,311.129C47.303,311.541 47.354,312.132 47.354,312.901C47.354,313.606 47.297,314.181 47.184,314.627C47.073,315.053 46.891,315.378 46.636,315.602C46.324,315.881 45.764,316.021 44.956,316.021L44.259,316.021L44.259,309.615ZM45.122,315.266C45.647,315.266 45.999,315.107 46.176,314.788C46.358,314.47 46.45,313.852 46.45,312.934C46.45,311.947 46.362,311.268 46.188,310.897C46.014,310.526 45.694,310.341 45.23,310.341L45.122,310.341L45.122,315.266Z" style="fill:rgb(158,161,168);fill-rule:nonzero;"/>
            <path id="path1751" d="M48.209,309.615L49.345,309.615C49.815,309.615 50.165,309.727 50.395,309.951C50.685,310.242 50.83,310.685 50.83,311.283C50.83,311.742 50.753,312.111 50.598,312.391C50.446,312.667 50.228,312.839 49.943,312.905L51.121,316.021L50.245,316.021L49.071,312.884L49.071,316.021L48.209,316.021L48.209,309.615ZM49.071,312.453C49.406,312.453 49.643,312.375 49.781,312.22C49.919,312.066 49.988,311.804 49.988,311.436C49.988,311.237 49.973,311.067 49.943,310.926C49.915,310.785 49.869,310.67 49.806,310.582C49.745,310.493 49.665,310.428 49.565,310.387C49.468,310.345 49.352,310.325 49.217,310.325L49.071,310.325L49.071,312.453Z" style="fill:rgb(158,161,168);fill-rule:nonzero;"/>
            <path id="path1753" d="M51.233,309.615L52.146,309.615L52.569,311.009C52.583,311.051 52.596,311.096 52.61,311.146C52.624,311.196 52.641,311.25 52.66,311.308C52.818,311.811 52.926,312.234 52.984,312.577C53.033,312.234 53.075,311.995 53.108,311.86L53.241,311.287L53.291,311.063L53.647,309.615L54.548,309.615L53.432,313.266L53.432,316.021L52.569,316.021L52.569,313.266L51.233,309.615Z" style="fill:rgb(158,161,168);fill-rule:nonzero;"/>
            <rect id="path1755" x="56.294" y="313.498" width="1.51" height="0.647" style="fill:rgb(158,161,168);"/>
            <path id="path1757" d="M59.576,309.615L60.41,309.615L60.845,312.59L60.916,313.029C60.949,313.267 60.974,313.484 60.99,313.681L61.036,314.224C61.039,314.238 61.042,314.263 61.044,314.299C61.047,314.335 61.051,314.381 61.057,314.436L61.078,314.228C61.111,313.866 61.145,313.533 61.181,313.229C61.22,312.924 61.262,312.644 61.306,312.386L61.766,309.615L62.43,309.615L62.862,312.308C62.925,312.706 62.978,313.075 63.019,313.415C63.063,313.755 63.099,314.08 63.127,314.39C63.155,314.064 63.185,313.749 63.218,313.444C63.254,313.14 63.292,312.841 63.33,312.548L63.393,312.121L63.762,309.615L64.587,309.615L63.455,316.021L62.783,316.021L62.331,313.253C62.328,313.242 62.321,313.197 62.31,313.117C62.299,313.036 62.282,312.922 62.26,312.772L62.173,312.133C62.167,312.084 62.158,312.009 62.144,311.909C62.133,311.81 62.12,311.684 62.106,311.532L62.086,311.266C62.08,311.33 62.074,311.385 62.069,311.432C62.063,311.479 62.059,311.518 62.056,311.548C62.043,311.731 62.03,311.873 62.019,311.976C62.011,312.075 62.005,312.136 62.002,312.158L61.915,312.772C61.896,312.913 61.881,313.024 61.87,313.104C61.859,313.184 61.85,313.234 61.845,313.253L61.376,316.021L60.683,316.021L59.576,309.615Z" style="fill:rgb(158,161,168);fill-rule:nonzero;"/>
            <path id="path1759" d="M65.102,309.615L67.396,309.615L67.396,310.345L65.965,310.345L65.965,312.374L67.234,312.374L67.234,313.104L65.965,313.104L65.965,315.29L67.396,315.29L67.396,316.021L65.102,316.021L65.102,309.615Z" style="fill:rgb(158,161,168);fill-rule:nonzero;"/>
            <path id="path1761" d="M67.678,309.615L70.487,309.615L70.487,310.37L69.52,310.37L69.52,316.021L68.674,316.021L68.674,310.37L67.678,310.37L67.678,309.615Z" style="fill:rgb(158,161,168);fill-rule:nonzero;"/>
        </g>
        <g id="g4922" transform="matrix(0.941176,0,0,0.857135,-2.64706,75.2881)">
            <rect id="rect4778" x="6" y="310" width="34" height="42" style="fill:rgb(60,60,60);"/>
            <g id="text4861">
                <path id="path4899" d="M16.849,345.271C16.849,346.139 16.609,346.83 16.13,347.344C15.651,347.858 15.009,348.115 14.203,348.115C13.411,348.115 12.781,347.852 12.313,347.328C11.847,346.8 11.615,346.092 11.615,345.203C11.615,344.314 11.852,343.601 12.328,343.062C12.8,342.521 13.427,342.25 14.208,342.25C15.031,342.25 15.677,342.519 16.146,343.057C16.615,343.595 16.849,344.333 16.849,345.271ZM14.823,345.203C14.823,344.995 14.809,344.807 14.781,344.641C14.753,344.47 14.714,344.326 14.661,344.208C14.609,344.087 14.547,343.993 14.474,343.927C14.401,343.861 14.319,343.828 14.229,343.828C14.052,343.828 13.91,343.953 13.802,344.203C13.694,344.422 13.641,344.75 13.641,345.188C13.641,345.618 13.694,345.946 13.802,346.172C13.91,346.422 14.054,346.547 14.234,346.547C14.405,346.547 14.545,346.424 14.656,346.177C14.767,345.903 14.823,345.578 14.823,345.203Z" style="fill:rgb(197,200,209);fill-rule:nonzero;"/>
                <path id="path4901" d="M17.651,342.37L19.74,342.37L19.74,345.542C19.74,345.844 19.769,346.064 19.828,346.203C19.891,346.318 20.009,346.375 20.182,346.375C20.352,346.375 20.467,346.318 20.526,346.203C20.589,346.089 20.62,345.868 20.62,345.542L20.62,342.37L22.708,342.37L22.708,345.823C22.708,346.052 22.689,346.26 22.651,346.448C22.616,346.632 22.559,346.8 22.479,346.953C22.403,347.102 22.302,347.24 22.177,347.365C22.056,347.49 21.91,347.604 21.74,347.708C21.281,347.979 20.762,348.115 20.182,348.115C19.595,348.115 19.076,347.979 18.625,347.708C18.451,347.604 18.302,347.491 18.177,347.37C18.056,347.245 17.955,347.106 17.875,346.953C17.799,346.8 17.741,346.632 17.703,346.448C17.668,346.26 17.651,346.052 17.651,345.823L17.651,342.37Z" style="fill:rgb(197,200,209);fill-rule:nonzero;"/>
                <path id="path4903" d="M26.047,348L23.953,348L23.953,344.052L23.359,344.052L23.359,342.37L23.953,342.37L23.953,340.714L26.047,340.714L26.047,342.37L26.74,342.37L26.74,344.052L26.047,344.052L26.047,348Z" style="fill:rgb(197,200,209);fill-rule:nonzero;"/>
                <path id="path4905" d="M34.385,348L30.583,348L30.583,339.958L32.755,339.958L32.755,346.068L34.385,346.068L34.385,348Z" style="fill:rgb(197,200,209);fill-rule:nonzero;"/>
            </g>
        </g>
        <g id="g4914" transform="matrix(0.941176,0,0,0.857135,23.9412,75.2879)">
            <rect id="rect4778-3-8" x="50" y="310" width="34" height="42" style="fill:rgb(60,60,60);"/>
            <g id="text4886">
                <path id="path4890" d="M59.891,345.271C59.891,346.139 59.651,346.83 59.172,347.344C58.693,347.858 58.05,348.115 57.245,348.115C56.453,348.115 55.823,347.852 55.354,347.328C54.889,346.8 54.656,346.092 54.656,345.203C54.656,344.314 54.894,343.601 55.37,343.062C55.842,342.521 56.469,342.25 57.25,342.25C58.073,342.25 58.719,342.519 59.187,343.057C59.656,343.595 59.891,344.333 59.891,345.271ZM57.865,345.203C57.865,344.995 57.851,344.807 57.823,344.641C57.795,344.47 57.755,344.326 57.703,344.208C57.651,344.087 57.589,343.993 57.516,343.927C57.443,343.861 57.361,343.828 57.271,343.828C57.094,343.828 56.951,343.953 56.844,344.203C56.736,344.422 56.682,344.75 56.682,345.187C56.682,345.618 56.736,345.946 56.844,346.172C56.951,346.422 57.095,346.547 57.276,346.547C57.446,346.547 57.587,346.424 57.698,346.177C57.809,345.903 57.865,345.578 57.865,345.203Z" style="fill:rgb(197,200,209);fill-rule:nonzero;"/>
                <path id="path4892" d="M60.693,342.37L62.781,342.37L62.781,345.542C62.781,345.844 62.811,346.064 62.87,346.203C62.932,346.318 63.05,346.375 63.224,346.375C63.394,346.375 63.509,346.318 63.568,346.203C63.63,346.089 63.662,345.868 63.662,345.542L63.662,342.37L65.75,342.37L65.75,345.823C65.75,346.052 65.731,346.26 65.693,346.448C65.658,346.632 65.601,346.8 65.521,346.953C65.444,347.102 65.344,347.24 65.219,347.365C65.097,347.49 64.951,347.604 64.781,347.708C64.323,347.979 63.804,348.115 63.224,348.115C62.637,348.115 62.118,347.979 61.667,347.708C61.493,347.604 61.344,347.491 61.219,347.37C61.097,347.245 60.997,347.106 60.917,346.953C60.84,346.8 60.783,346.632 60.745,346.448C60.71,346.26 60.693,346.052 60.693,345.823L60.693,342.37Z" style="fill:rgb(197,200,209);fill-rule:nonzero;"/>
                <path id="path4894" d="M69.089,348L66.995,348L66.995,344.052L66.401,344.052L66.401,342.37L66.995,342.37L66.995,340.714L69.089,340.714L69.089,342.37L69.781,342.37L69.781,344.052L69.089,344.052L69.089,348Z" style="fill:rgb(197,200,209);fill-rule:nonzero;"/>
                <path id="path4896" d="M79.344,348L76.995,348L75.922,345.135C75.912,345.087 75.892,345.023 75.865,344.943C75.84,344.863 75.809,344.767 75.771,344.656L75.786,345.187L75.786,348L73.625,348L73.625,339.958L75.849,339.958C76.828,339.958 77.561,340.151 78.047,340.536C78.665,341.029 78.974,341.731 78.974,342.641C78.974,343.613 78.559,344.285 77.729,344.656L79.344,348ZM75.797,343.682L75.943,343.682C76.193,343.682 76.401,343.587 76.568,343.396C76.734,343.205 76.818,342.962 76.818,342.667C76.818,342.066 76.503,341.766 75.875,341.766L75.797,341.766L75.797,343.682Z" style="fill:rgb(197,200,209);fill-rule:nonzero;"/>
            </g>
        </g>
    </g>
</svg>
