<?xml version="1.0" encoding="UTF-8" standalone="no"?>
<!DOCTYPE svg PUBLIC "-//W3C//DTD SVG 1.1//EN" "http://www.w3.org/Graphics/SVG/1.1/DTD/svg11.dtd">
<svg width="100%" height="100%" viewBox="0 0 105 380" version="1.1" xmlns="http://www.w3.org/2000/svg" xmlns:xlink="http://www.w3.org/1999/xlink" xml:space="preserve" xmlns:serif="http://www.serif.com/" style="fill-rule:evenodd;clip-rule:evenodd;stroke-linecap:round;">
    <g id="Layer-2" serif:id="Layer 2">
        <g id="text989">
        </g>
        <rect id="rect4689" x="0" y="0" width="105" height="380" style="fill:rgb(44,45,48);"/>
        <g id="text80" transform="matrix(1.00498,0,0,0.995047,7.49999,4.99997)">
            <path id="path4726" d="M29.851,371.706L29.851,363.943L31.853,363.943L32.903,366.668C32.96,366.829 33.024,367.013 33.094,367.221C33.168,367.429 33.249,367.668 33.336,367.94L33.552,368.624C33.475,367.95 33.416,367.373 33.376,366.894C33.336,366.415 33.316,366.013 33.316,365.687L33.316,363.943L35.317,363.943L35.317,371.706L33.316,371.706L32.26,368.85C32.149,368.545 32.049,368.26 31.958,367.995C31.871,367.727 31.794,367.472 31.727,367.231C31.77,367.777 31.802,368.253 31.822,368.659C31.843,369.065 31.853,369.42 31.853,369.725L31.853,371.706L29.851,371.706Z" style="fill:rgb(158,161,168);fill-rule:nonzero;"/>
            <path id="path4728" d="M39.887,371.706L37.791,371.706L37.791,368.418L35.865,363.943L38.052,363.943L38.429,365.094C38.503,365.319 38.568,365.535 38.625,365.743C38.686,365.951 38.739,366.15 38.786,366.341C38.863,366.056 38.93,365.811 38.987,365.607C39.044,365.399 39.095,365.232 39.138,365.104L39.52,363.943L41.692,363.943L39.887,368.418L39.887,371.706Z" style="fill:rgb(158,161,168);fill-rule:nonzero;"/>
            <path id="path4730" d="M41.894,371.515L41.894,369.076C42.306,369.639 42.752,369.921 43.231,369.921C43.412,369.921 43.56,369.874 43.673,369.78C43.787,369.683 43.844,369.562 43.844,369.418C43.844,369.21 43.72,369.008 43.472,368.81L43.13,368.543C42.902,368.372 42.708,368.203 42.547,368.035C42.386,367.865 42.256,367.69 42.155,367.513C42.054,367.332 41.981,367.146 41.934,366.954C41.887,366.763 41.863,366.562 41.863,366.351C41.863,365.989 41.947,365.61 42.115,365.215C42.199,365.03 42.296,364.863 42.406,364.712C42.517,364.558 42.644,364.422 42.789,364.305C43.184,363.969 43.662,363.802 44.222,363.802C44.721,363.802 45.224,363.934 45.73,364.199L45.73,366.572C45.559,366.308 45.365,366.1 45.147,365.949C44.929,365.795 44.714,365.718 44.503,365.718C44.342,365.718 44.21,365.765 44.106,365.858C43.999,365.949 43.945,366.058 43.945,366.185C43.945,366.393 44.087,366.599 44.372,366.804L44.704,367.05C45.147,367.368 45.463,367.695 45.655,368.03C45.849,368.366 45.946,368.758 45.946,369.207C45.946,369.971 45.713,370.601 45.247,371.098C44.781,371.594 44.191,371.842 43.477,371.842C42.985,371.842 42.457,371.733 41.894,371.515L41.894,371.515Z" style="fill:rgb(158,161,168);fill-rule:nonzero;"/>
            <path id="path4732" d="M49.576,371.706L47.48,371.706L47.48,365.803L46.323,365.803L46.323,363.943L50.778,363.943L50.778,365.803L49.576,365.803L49.576,371.706Z" style="fill:rgb(158,161,168);fill-rule:nonzero;"/>
            <path id="path4734" d="M56.525,371.706L54.428,371.706L54.428,368.584L53.428,368.584L53.428,371.706L51.331,371.706L51.331,363.943L53.428,363.943L53.428,366.688L54.428,366.688L54.428,363.943L56.525,363.943L56.525,371.706Z" style="fill:rgb(158,161,168);fill-rule:nonzero;"/>
            <rect id="path4736" x="57.606" y="363.943" width="2.097" height="7.763" style="fill:rgb(158,161,168);fill-rule:nonzero;"/>
        </g>
        <g id="text4987">
        </g>
        <path id="path2432" d="M4.77,148.698C4.78,148.664 4.789,148.631 4.799,148.597C4.809,148.563 4.819,148.529 4.828,148.495C4.838,148.461 4.848,148.428 4.858,148.394C4.867,148.36 4.877,148.326 4.887,148.293C4.897,148.259 4.907,148.225 4.916,148.192C4.926,148.158 4.936,148.125 4.945,148.091C4.955,148.057 4.965,148.024 4.975,147.991C4.984,147.957 4.994,147.924 5.004,147.891C5.014,147.857 5.024,147.825 5.033,147.792C5.043,147.758 5.053,147.726 5.062,147.693C5.072,147.659 5.082,147.627 5.092,147.594C5.101,147.562 5.111,147.529 5.121,147.497C5.131,147.464 5.141,147.432 5.15,147.4C5.16,147.368 5.17,147.336 5.179,147.304C5.189,147.272 5.199,147.241 5.209,147.209C5.218,147.177 5.228,147.146 5.238,147.115C5.248,147.083 5.258,147.052 5.267,147.021C5.277,146.99 5.287,146.96 5.296,146.929C5.306,146.899 5.316,146.868 5.326,146.838C5.335,146.808 5.345,146.778 5.355,146.748C5.365,146.718 5.375,146.688 5.384,146.659C5.394,146.629 5.404,146.6 5.413,146.571C5.423,146.542 5.433,146.514 5.443,146.485C5.452,146.456 5.462,146.428 5.472,146.4C5.482,146.372 5.492,146.344 5.501,146.316C5.511,146.289 5.521,146.261 5.53,146.234C5.54,146.207 5.55,146.18 5.56,146.153C5.569,146.127 5.579,146.1 5.589,146.074C5.599,146.048 5.609,146.022 5.618,145.997C5.628,145.971 5.638,145.946 5.647,145.921C5.657,145.895 5.667,145.871 5.677,145.847C5.686,145.822 5.696,145.798 5.706,145.774C5.716,145.75 5.726,145.727 5.735,145.703C5.745,145.679 5.755,145.657 5.765,145.634C5.774,145.612 5.784,145.589 5.794,145.567C5.803,145.545 5.813,145.524 5.823,145.502C5.833,145.481 5.843,145.46 5.852,145.439C5.862,145.418 5.872,145.398 5.882,145.378C5.891,145.358 5.901,145.338 5.911,145.319C5.92,145.299 5.93,145.28 5.94,145.261C5.95,145.243 5.96,145.224 5.969,145.206C5.979,145.189 5.989,145.17 5.999,145.153C6.008,145.137 6.018,145.119 6.028,145.103C6.037,145.086 6.047,145.069 6.057,145.054C6.067,145.039 6.077,145.023 6.086,145.008C6.096,144.993 6.106,144.977 6.116,144.963C6.125,144.95 6.135,144.935 6.145,144.922C6.154,144.908 6.164,144.895 6.174,144.882C6.184,144.869 6.194,144.856 6.203,144.845C6.213,144.833 6.223,144.821 6.233,144.81C6.242,144.799 6.252,144.788 6.262,144.777C6.271,144.767 6.281,144.757 6.291,144.747C6.301,144.737 6.311,144.729 6.32,144.719C6.33,144.71 6.34,144.702 6.35,144.694C6.359,144.685 6.369,144.678 6.379,144.671C6.388,144.664 6.398,144.657 6.408,144.65C6.418,144.644 6.428,144.638 6.437,144.633C6.447,144.628 6.457,144.622 6.467,144.618C6.476,144.613 6.486,144.608 6.496,144.605C6.505,144.601 6.515,144.597 6.525,144.594C6.535,144.591 6.545,144.589 6.554,144.586C6.564,144.584 6.574,144.582 6.584,144.581C6.593,144.579 6.603,144.578 6.613,144.577C6.622,144.577 6.632,144.577 6.642,144.577C6.652,144.577 6.662,144.578 6.671,144.579C6.681,144.58 6.691,144.581 6.701,144.582C6.71,144.584 6.72,144.586 6.73,144.59C6.74,144.592 6.749,144.595 6.759,144.599C6.769,144.603 6.779,144.607 6.788,144.611C6.798,144.615 6.808,144.621 6.818,144.625C6.827,144.63 6.837,144.636 6.847,144.641C6.857,144.647 6.866,144.654 6.876,144.66C6.886,144.667 6.896,144.674 6.905,144.682C6.915,144.69 6.925,144.697 6.935,144.706C6.944,144.715 6.954,144.723 6.964,144.733C6.974,144.743 6.984,144.752 6.993,144.762C7.003,144.773 7.013,144.783 7.022,144.794C7.032,144.805 7.042,144.816 7.052,144.828C7.061,144.839 7.071,144.852 7.081,144.864C7.091,144.876 7.101,144.89 7.11,144.902C7.12,144.915 7.13,144.929 7.139,144.943C7.149,144.957 7.159,144.971 7.169,144.986C7.178,145 7.188,145.016 7.198,145.031C7.208,145.046 7.218,145.063 7.227,145.079C7.237,145.095 7.247,145.112 7.256,145.128C7.266,145.145 7.276,145.163 7.286,145.18C7.295,145.197 7.305,145.216 7.315,145.234C7.325,145.253 7.335,145.271 7.344,145.29C7.354,145.309 7.364,145.329 7.373,145.349C7.383,145.368 7.393,145.388 7.403,145.409C7.412,145.429 7.422,145.45 7.432,145.471C7.442,145.492 7.452,145.514 7.461,145.535C7.471,145.557 7.481,145.579 7.49,145.601C7.5,145.624 7.51,145.646 7.52,145.669C7.529,145.692 7.539,145.716 7.549,145.739C7.559,145.763 7.569,145.787 7.578,145.811C7.588,145.835 7.598,145.859 7.607,145.884C7.617,145.909 7.627,145.934 7.637,145.959C7.646,145.985 7.656,146.01 7.666,146.036C7.676,146.062 7.686,146.088 7.695,146.114C7.705,146.141 7.715,146.167 7.724,146.194C7.734,146.222 7.744,146.248 7.754,146.276C7.763,146.303 7.773,146.331 7.783,146.359C7.793,146.387 7.803,146.415 7.812,146.443C7.822,146.471 7.832,146.5 7.842,146.529C7.851,146.557 7.861,146.586 7.871,146.616C7.88,146.645 7.89,146.674 7.9,146.704C7.91,146.734 7.92,146.763 7.929,146.793C7.939,146.824 7.949,146.854 7.959,146.884C7.968,146.915 7.978,146.945 7.988,146.976C7.997,147.007 8.007,147.038 8.017,147.069C8.027,147.1 8.037,147.131 8.046,147.162C8.056,147.194 8.066,147.225 8.076,147.257C8.085,147.289 8.095,147.321 8.105,147.353C8.114,147.385 8.124,147.417 8.134,147.449C8.144,147.481 8.154,147.514 8.163,147.546C8.173,147.579 8.183,147.611 8.193,147.644C8.202,147.677 8.212,147.71 8.222,147.743C8.231,147.776 8.241,147.809 8.251,147.842C8.261,147.875 8.271,147.908 8.28,147.941C8.29,147.975 8.3,148.008 8.31,148.041C8.319,148.075 8.329,148.108 8.339,148.142C8.348,148.176 8.358,148.209 8.368,148.243C8.378,148.277 8.388,148.31 8.397,148.344C8.407,148.378 8.417,148.411 8.427,148.445C8.436,148.479 8.446,148.513 8.456,148.546C8.465,148.58 8.475,148.614 8.485,148.648C8.495,148.682 8.505,148.716 8.514,148.75C8.524,148.784 8.534,148.817 8.544,148.851C8.553,148.885 8.563,148.919 8.573,148.953C8.582,148.987 8.592,149.02 8.602,149.054C8.612,149.088 8.622,149.121 8.631,149.155C8.641,149.189 8.651,149.222 8.661,149.256C8.67,149.289 8.68,149.323 8.69,149.356C8.699,149.39 8.709,149.423 8.719,149.456C8.729,149.49 8.739,149.523 8.748,149.556C8.758,149.589 8.768,149.622 8.778,149.655C8.787,149.688 8.797,149.721 8.807,149.754C8.817,149.787 8.826,149.819 8.836,149.852C8.846,149.884 8.856,149.916 8.865,149.949C8.875,149.981 8.885,150.013 8.895,150.045C8.904,150.077 8.914,150.109 8.924,150.141C8.934,150.172 8.943,150.204 8.953,150.235C8.963,150.267 8.973,150.298 8.982,150.329C8.992,150.361 9.002,150.391 9.012,150.422C9.021,150.453 9.031,150.483 9.041,150.514C9.051,150.544 9.061,150.574 9.07,150.604C9.08,150.635 9.09,150.664 9.099,150.694C9.109,150.723 9.119,150.753 9.129,150.782C9.138,150.811 9.148,150.84 9.158,150.869C9.168,150.898 9.178,150.926 9.187,150.955C9.197,150.983 9.207,151.011 9.216,151.039C9.226,151.067 9.236,151.095 9.246,151.122C9.255,151.15 9.265,151.177 9.275,151.203C9.285,151.231 9.295,151.257 9.304,151.283C9.314,151.31 9.324,151.336 9.333,151.362C9.343,151.388 9.353,151.413 9.363,151.439C9.372,151.464 9.382,151.489 9.392,151.514C9.402,151.538 9.412,151.563 9.421,151.587C9.431,151.611 9.441,151.635 9.45,151.659C9.46,151.683 9.47,151.705 9.48,151.728C9.489,151.751 9.499,151.774 9.509,151.796C9.519,151.819 9.529,151.841 9.538,151.862C9.548,151.884 9.558,151.906 9.567,151.927C9.577,151.948 9.587,151.968 9.597,151.989C9.606,152.009 9.616,152.029 9.626,152.049C9.636,152.069 9.646,152.088 9.655,152.107C9.665,152.126 9.675,152.145 9.684,152.163C9.694,152.181 9.704,152.2 9.714,152.217C9.723,152.234 9.733,152.253 9.743,152.269C9.753,152.286 9.763,152.303 9.772,152.319C9.782,152.335 9.792,152.351 9.801,152.366C9.811,152.382 9.821,152.397 9.831,152.412C9.84,152.426 9.85,152.441 9.86,152.455C9.87,152.468 9.88,152.482 9.889,152.496C9.899,152.509 9.909,152.522 9.919,152.534C9.928,152.546 9.938,152.559 9.948,152.57C9.957,152.582 9.967,152.593 9.977,152.604C9.987,152.615 9.997,152.625 10.006,152.635C10.016,152.645 10.026,152.655 10.036,152.664C10.045,152.674 10.055,152.683 10.065,152.691C10.074,152.7 10.084,152.707 10.094,152.716C10.104,152.723 10.114,152.731 10.123,152.737C10.133,152.745 10.143,152.751 10.153,152.756C10.162,152.762 10.172,152.768 10.182,152.772C10.191,152.777 10.201,152.783 10.211,152.786C10.221,152.79 10.231,152.795 10.24,152.798C10.25,152.802 10.26,152.805 10.27,152.808C10.279,152.811 10.289,152.813 10.299,152.815C10.308,152.817 10.318,152.819 10.328,152.819C10.338,152.82 10.348,152.821 10.357,152.821C10.367,152.821 10.377,152.821 10.387,152.82C10.396,152.82 10.406,152.819 10.416,152.817C10.425,152.816 10.435,152.814 10.445,152.812C10.455,152.809 10.465,152.807 10.474,152.803C10.484,152.8 10.494,152.797 10.504,152.793C10.513,152.789 10.523,152.784 10.533,152.78C10.542,152.775 10.552,152.77 10.562,152.765C10.572,152.76 10.582,152.753 10.591,152.747C10.601,152.741 10.611,152.734 10.621,152.727C10.63,152.72 10.64,152.712 10.65,152.704C10.659,152.696 10.669,152.688 10.679,152.678C10.689,152.669 10.699,152.66 10.708,152.65C10.718,152.641 10.728,152.631 10.738,152.62C10.747,152.61 10.757,152.599 10.767,152.588C10.776,152.576 10.786,152.565 10.796,152.552C10.806,152.54 10.816,152.528 10.825,152.515C10.835,152.503 10.845,152.489 10.855,152.476C10.864,152.462 10.874,152.448 10.884,152.434C10.894,152.42 10.903,152.405 10.913,152.39C10.923,152.375 10.933,152.359 10.942,152.344C10.952,152.328 10.962,152.311 10.972,152.295C10.981,152.279 10.991,152.261 11.001,152.244C11.011,152.228 11.021,152.209 11.03,152.191C11.04,152.174 11.05,152.155 11.059,152.136C11.069,152.118 11.079,152.098 11.089,152.079C11.098,152.059 11.108,152.04 11.118,152.02C11.128,152 11.138,151.979 11.147,151.959C11.157,151.938 11.167,151.917 11.176,151.895C11.186,151.874 11.196,151.852 11.206,151.83C11.215,151.808 11.225,151.786 11.235,151.763C11.245,151.741 11.255,151.718 11.264,151.694C11.274,151.67 11.284,151.647 11.293,151.624C11.303,151.599 11.313,151.576 11.323,151.551C11.332,151.526 11.342,151.502 11.352,151.477C11.362,151.451 11.372,151.426 11.381,151.401C11.391,151.375 11.401,151.349 11.41,151.323C11.42,151.297 11.43,151.271 11.44,151.244C11.449,151.217 11.459,151.191 11.469,151.164C11.479,151.136 11.489,151.109 11.498,151.081C11.508,151.054 11.518,151.026 11.527,150.998C11.537,150.97 11.547,150.941 11.557,150.913C11.566,150.884 11.576,150.855 11.586,150.826C11.596,150.797 11.606,150.768 11.615,150.739C11.625,150.709 11.635,150.679 11.644,150.65C11.654,150.619 11.664,150.59 11.674,150.56C11.683,150.529 11.693,150.499 11.703,150.468C11.713,150.438 11.723,150.407 11.732,150.376C11.742,150.345 11.752,150.314 11.761,150.283C11.771,150.251 11.781,150.22 11.791,150.189C11.8,150.157 11.81,150.125 11.82,150.093C11.83,150.062 11.84,150.029 11.849,149.997C11.859,149.965 11.869,149.933 11.878,149.901C11.888,149.868 11.898,149.836 11.908,149.803C11.917,149.77 11.927,149.738 11.937,149.705C11.947,149.672 11.957,149.639 11.966,149.606C11.976,149.573 11.986,149.54 11.996,149.507C12.005,149.473 12.015,149.44 12.025,149.407C12.034,149.373 12.044,149.34 12.054,149.306C12.064,149.273 12.074,149.239 12.083,149.206C12.093,149.172 12.103,149.139 12.113,149.105C12.122,149.071 12.132,149.037 12.142,149.004C12.151,148.97 12.161,148.936 12.171,148.902C12.181,148.868 12.191,148.835 12.2,148.801C12.21,148.767 12.22,148.733 12.23,148.699" style="fill:none;fill-rule:nonzero;stroke:rgb(158,161,168);stroke-width:1.53px;"/>
        <path id="path2603" d="M14.772,148.874L16.641,145.8L20.383,152.398L22.227,148.874" style="fill:none;stroke:rgb(158,161,168);stroke-width:1.53px;"/>
        <path id="path2605" d="M34.76,149.8L34.76,145.224L38.52,145.224L38.586,152.85L42.24,152.85L42.24,148.275" style="fill:none;stroke:rgb(158,161,168);stroke-width:1.52px;stroke-linecap:butt;"/>
        <g id="path2607" transform="matrix(1,0,0,1,-0.000600945,0.011031)">
            <path d="M32.221,152.81L24.771,145.908L24.771,152.81" style="fill:none;stroke:rgb(158,161,168);stroke-width:1.54px;"/>
        </g>
        <g id="text1042">
        </g>
        <g id="text983" transform="matrix(1,0,0,1,-4,17)">
            <path id="path1197" d="M8,109.958L10.896,109.958L10.896,110.875L9.083,110.875L9.083,113.417L10.719,113.417L10.719,114.333L9.083,114.333L9.083,118L8,118L8,109.958Z" style="fill:rgb(158,161,168);fill-rule:nonzero;"/>
            <path id="path1199" d="M12.109,109.958L13.036,109.958L13.745,113.24C13.832,113.649 13.91,114.061 13.979,114.474C14.052,114.884 14.118,115.314 14.177,115.766C14.184,115.707 14.189,115.661 14.193,115.63C14.196,115.595 14.2,115.571 14.203,115.557L14.354,114.635L14.49,113.76L14.609,113.182L15.24,109.958L16.177,109.958L16.917,118L15.88,118L15.698,115.271C15.691,115.132 15.684,115.012 15.677,114.911C15.674,114.811 15.672,114.727 15.672,114.661L15.625,113.583L15.599,112.594C15.599,112.587 15.597,112.573 15.594,112.552C15.594,112.528 15.592,112.497 15.589,112.458L15.562,112.62C15.535,112.811 15.509,112.977 15.484,113.12C15.464,113.262 15.444,113.382 15.427,113.479L15.292,114.214L15.24,114.49L14.562,118L13.833,118L13.198,114.969C13.111,114.569 13.033,114.165 12.964,113.755C12.898,113.342 12.837,112.91 12.781,112.458L12.469,118L11.448,118L12.109,109.958Z" style="fill:rgb(158,161,168);fill-rule:nonzero;"/>
            <rect id="path1201" x="19.469" y="109.958" width="1.083" height="8.042" style="fill:rgb(158,161,168);fill-rule:nonzero;"/>
            <path id="path1203" d="M21.802,109.958L22.813,109.958L23.891,113.167C24.203,114.073 24.479,115.04 24.719,116.068C24.632,115.446 24.568,114.884 24.526,114.38C24.484,113.877 24.464,113.403 24.464,112.958L24.464,109.958L25.552,109.958L25.552,118L24.536,118L23.323,114.38C23.212,114.043 23.106,113.698 23.005,113.344C22.908,112.99 22.818,112.618 22.734,112.229C22.727,112.181 22.715,112.122 22.698,112.052C22.684,111.983 22.667,111.903 22.646,111.813C22.656,111.903 22.665,111.981 22.672,112.047C22.679,112.109 22.684,112.163 22.687,112.208L22.745,113.026L22.802,114.021C22.806,114.076 22.807,114.144 22.807,114.224C22.811,114.304 22.812,114.394 22.812,114.495L22.87,118L21.802,118L21.802,109.958Z" style="fill:rgb(158,161,168);fill-rule:nonzero;"/>
        </g>
        <rect id="rect4778-3-6-0" x="2" y="21" width="100" height="27" style="fill:rgb(158,161,168);"/>
        <g id="text4613" transform="matrix(0.862091,0,0,0.929783,20.0521,-25.7171)">
            <path id="path4701" d="M17.141,61L15.047,61L15.047,55.37L17.141,55.37L17.141,61ZM17.318,53.625C17.318,53.955 17.198,54.24 16.958,54.479C16.712,54.715 16.425,54.833 16.099,54.833C15.762,54.833 15.474,54.714 15.234,54.474C14.998,54.227 14.88,53.939 14.88,53.609C14.88,53.273 14.998,52.986 15.234,52.75C15.481,52.514 15.767,52.396 16.094,52.396C16.438,52.396 16.727,52.516 16.964,52.755C17.2,52.991 17.318,53.281 17.318,53.625Z" style="fill:rgb(44,45,48);fill-rule:nonzero;"/>
            <path id="path4703" d="M23.068,61L20.979,61L20.979,58.021C20.979,57.764 20.953,57.585 20.901,57.484C20.852,57.384 20.766,57.333 20.641,57.333C20.349,57.333 20.203,57.609 20.203,58.161L20.203,61L18.115,61L18.115,55.37L20.203,55.37C20.2,55.509 20.196,55.637 20.193,55.755C20.189,55.873 20.184,55.983 20.177,56.083L20.156,56.443C20.493,55.648 20.986,55.25 21.635,55.25C22.087,55.25 22.438,55.418 22.688,55.755C22.941,56.092 23.068,56.561 23.068,57.161L23.068,61Z" style="fill:rgb(44,45,48);fill-rule:nonzero;"/>
            <path id="path4705" d="M31.12,61L27.318,61L27.318,52.958L29.49,52.958L29.49,59.068L31.12,59.068L31.12,61Z" style="fill:rgb(44,45,48);fill-rule:nonzero;"/>
        </g>
        <g id="text4617" transform="matrix(0.771084,0,0,0.929783,13.3374,-25.7171)">
            <path id="path4708" d="M60.182,61L58.089,61L58.089,55.37L60.182,55.37L60.182,61ZM60.359,53.625C60.359,53.955 60.24,54.24 60,54.479C59.753,54.715 59.467,54.833 59.141,54.833C58.804,54.833 58.516,54.714 58.276,54.474C58.04,54.227 57.922,53.939 57.922,53.609C57.922,53.273 58.04,52.986 58.276,52.75C58.523,52.514 58.809,52.396 59.135,52.396C59.479,52.396 59.769,52.516 60.005,52.755C60.241,52.991 60.359,53.281 60.359,53.625L60.359,53.625Z" style="fill:rgb(44,45,48);fill-rule:nonzero;"/>
            <path id="path4710" d="M66.109,61L64.021,61L64.021,58.021C64.021,57.764 63.995,57.585 63.943,57.484C63.894,57.384 63.807,57.333 63.682,57.333C63.391,57.333 63.245,57.609 63.245,58.161L63.245,61L61.156,61L61.156,55.37L63.245,55.37C63.241,55.509 63.238,55.637 63.234,55.755C63.231,55.873 63.226,55.983 63.219,56.083L63.198,56.443C63.535,55.648 64.028,55.25 64.677,55.25C65.128,55.25 65.479,55.418 65.729,55.755C65.983,56.092 66.109,56.561 66.109,57.161L66.109,61Z" style="fill:rgb(44,45,48);fill-rule:nonzero;"/>
            <path id="path4712" d="M76.078,61L73.729,61L72.656,58.135C72.646,58.087 72.627,58.023 72.599,57.943C72.575,57.863 72.544,57.767 72.505,57.656L72.521,58.187L72.521,61L70.359,61L70.359,52.958L72.583,52.958C73.562,52.958 74.295,53.151 74.781,53.536C75.399,54.03 75.708,54.731 75.708,55.641C75.708,56.613 75.293,57.285 74.463,57.656L76.078,61ZM72.531,56.682L72.677,56.682C72.927,56.682 73.135,56.587 73.302,56.396C73.469,56.205 73.552,55.962 73.552,55.667C73.552,55.066 73.238,54.766 72.609,54.766L72.531,54.766L72.531,56.682Z" style="fill:rgb(44,45,48);fill-rule:nonzero;"/>
        </g>
        <g id="g4922" transform="matrix(1,0,0,1,-4,6.99971)">
            <rect id="rect4778-8" x="6" y="310" width="34" height="42" style="fill:rgb(158,161,168);"/>
            <g id="text4861">
                <path id="path4899" d="M16.849,345.271C16.849,346.139 16.609,346.83 16.13,347.344C15.651,347.858 15.009,348.115 14.203,348.115C13.411,348.115 12.781,347.852 12.313,347.328C11.847,346.8 11.615,346.092 11.615,345.203C11.615,344.314 11.852,343.601 12.328,343.062C12.8,342.521 13.427,342.25 14.208,342.25C15.031,342.25 15.677,342.519 16.146,343.057C16.615,343.595 16.849,344.333 16.849,345.271ZM14.823,345.203C14.823,344.995 14.809,344.807 14.781,344.641C14.753,344.47 14.714,344.326 14.661,344.208C14.609,344.087 14.547,343.993 14.474,343.927C14.401,343.861 14.319,343.828 14.229,343.828C14.052,343.828 13.91,343.953 13.802,344.203C13.694,344.422 13.641,344.75 13.641,345.188C13.641,345.618 13.694,345.946 13.802,346.172C13.91,346.422 14.054,346.547 14.234,346.547C14.405,346.547 14.545,346.424 14.656,346.177C14.767,345.903 14.823,345.578 14.823,345.203L14.823,345.203Z" style="fill:rgb(44,45,48);fill-rule:nonzero;"/>
                <path id="path4901" d="M17.651,342.37L19.74,342.37L19.74,345.542C19.74,345.844 19.769,346.064 19.828,346.203C19.891,346.318 20.009,346.375 20.182,346.375C20.352,346.375 20.467,346.318 20.526,346.203C20.589,346.089 20.62,345.868 20.62,345.542L20.62,342.37L22.708,342.37L22.708,345.823C22.708,346.052 22.689,346.26 22.651,346.448C22.616,346.632 22.559,346.8 22.479,346.953C22.403,347.102 22.302,347.24 22.177,347.365C22.056,347.49 21.91,347.604 21.74,347.708C21.281,347.979 20.762,348.115 20.182,348.115C19.595,348.115 19.076,347.979 18.625,347.708C18.451,347.604 18.302,347.491 18.177,347.37C18.056,347.245 17.955,347.106 17.875,346.953C17.799,346.8 17.741,346.632 17.703,346.448C17.668,346.26 17.651,346.052 17.651,345.823L17.651,342.37Z" style="fill:rgb(44,45,48);fill-rule:nonzero;"/>
                <path id="path4903" d="M26.047,348L23.953,348L23.953,344.052L23.359,344.052L23.359,342.37L23.953,342.37L23.953,340.714L26.047,340.714L26.047,342.37L26.74,342.37L26.74,344.052L26.047,344.052L26.047,348Z" style="fill:rgb(44,45,48);fill-rule:nonzero;"/>
                <path id="path4905" d="M34.385,348L30.583,348L30.583,339.958L32.755,339.958L32.755,346.068L34.385,346.068L34.385,348Z" style="fill:rgb(44,45,48);fill-rule:nonzero;"/>
            </g>
        </g>
        <g id="g4914" transform="matrix(1,0,0,1,19,6.99945)">
            <rect id="rect4778-3" x="50" y="310" width="34" height="42" style="fill:rgb(158,161,168);"/>
            <g id="text4886">
                <path id="path4890" d="M59.891,345.271C59.891,346.139 59.651,346.83 59.172,347.344C58.693,347.858 58.05,348.115 57.245,348.115C56.453,348.115 55.823,347.852 55.354,347.328C54.889,346.8 54.656,346.092 54.656,345.203C54.656,344.314 54.894,343.601 55.37,343.062C55.842,342.521 56.469,342.25 57.25,342.25C58.073,342.25 58.719,342.519 59.187,343.057C59.656,343.595 59.891,344.333 59.891,345.271ZM57.865,345.203C57.865,344.995 57.851,344.807 57.823,344.641C57.795,344.47 57.755,344.326 57.703,344.208C57.651,344.087 57.589,343.993 57.516,343.927C57.443,343.861 57.361,343.828 57.271,343.828C57.094,343.828 56.951,343.953 56.844,344.203C56.736,344.422 56.682,344.75 56.682,345.187C56.682,345.618 56.736,345.946 56.844,346.172C56.951,346.422 57.095,346.547 57.276,346.547C57.446,346.547 57.587,346.424 57.698,346.177C57.809,345.903 57.865,345.578 57.865,345.203L57.865,345.203Z" style="fill:rgb(44,45,48);fill-rule:nonzero;"/>
                <path id="path4892" d="M60.693,342.37L62.781,342.37L62.781,345.542C62.781,345.844 62.811,346.064 62.87,346.203C62.932,346.318 63.05,346.375 63.224,346.375C63.394,346.375 63.509,346.318 63.568,346.203C63.63,346.089 63.662,345.868 63.662,345.542L63.662,342.37L65.75,342.37L65.75,345.823C65.75,346.052 65.731,346.26 65.693,346.448C65.658,346.632 65.601,346.8 65.521,346.953C65.444,347.102 65.344,347.24 65.219,347.365C65.097,347.49 64.951,347.604 64.781,347.708C64.323,347.979 63.804,348.115 63.224,348.115C62.637,348.115 62.118,347.979 61.667,347.708C61.493,347.604 61.344,347.491 61.219,347.37C61.097,347.245 60.997,347.106 60.917,346.953C60.84,346.8 60.783,346.632 60.745,346.448C60.71,346.26 60.693,346.052 60.693,345.823L60.693,342.37Z" style="fill:rgb(44,45,48);fill-rule:nonzero;"/>
                <path id="path4894" d="M69.089,348L66.995,348L66.995,344.052L66.401,344.052L66.401,342.37L66.995,342.37L66.995,340.714L69.089,340.714L69.089,342.37L69.781,342.37L69.781,344.052L69.089,344.052L69.089,348Z" style="fill:rgb(44,45,48);fill-rule:nonzero;"/>
                <path id="path4896" d="M79.344,348L76.995,348L75.922,345.135C75.912,345.087 75.892,345.023 75.865,344.943C75.84,344.863 75.809,344.767 75.771,344.656L75.786,345.187L75.786,348L73.625,348L73.625,339.958L75.849,339.958C76.828,339.958 77.561,340.151 78.047,340.536C78.665,341.029 78.974,341.731 78.974,342.641C78.974,343.613 78.559,344.285 77.729,344.656L79.344,348ZM75.797,343.682L75.943,343.682C76.193,343.682 76.401,343.587 76.568,343.396C76.734,343.205 76.818,342.962 76.818,342.667C76.818,342.066 76.503,341.766 75.875,341.766L75.797,341.766L75.797,343.682Z" style="fill:rgb(44,45,48);fill-rule:nonzero;"/>
            </g>
        </g>
        <g id="g1104" transform="matrix(0.780488,0,0,0.60606,16.5732,-16.1515)">
            <path id="path1093" d="M40.266,81.859L41.693,81.859C42.283,81.859 42.722,82 43.01,82.281C43.375,82.646 43.557,83.203 43.557,83.953C43.557,84.53 43.46,84.993 43.266,85.344C43.075,85.691 42.8,85.906 42.443,85.99L43.922,89.901L42.823,89.901L41.349,85.964L41.349,89.901L40.266,89.901L40.266,81.859ZM41.349,85.422C41.769,85.422 42.066,85.325 42.24,85.13C42.413,84.936 42.5,84.608 42.5,84.146C42.5,83.896 42.481,83.682 42.443,83.505C42.408,83.328 42.351,83.184 42.271,83.073C42.194,82.962 42.094,82.88 41.969,82.828C41.847,82.776 41.701,82.75 41.531,82.75L41.349,82.75L41.349,85.422Z" style="fill:rgb(44,45,48);fill-rule:nonzero;"/>
            <path id="path1095" d="M44.766,81.859L47.646,81.859L47.646,82.776L45.849,82.776L45.849,85.323L47.443,85.323L47.443,86.24L45.849,86.24L45.849,88.984L47.646,88.984L47.646,89.901L44.766,89.901L44.766,81.859Z" style="fill:rgb(44,45,48);fill-rule:nonzero;"/>
            <path id="path1097" d="M51.797,81.99L51.797,82.964C51.519,82.828 51.286,82.76 51.099,82.76C50.842,82.76 50.622,82.825 50.438,82.953C50.253,83.078 50.101,83.273 49.979,83.536C49.861,83.8 49.773,84.135 49.714,84.542C49.658,84.944 49.63,85.422 49.63,85.974C49.63,87.96 50.139,88.953 51.156,88.953C51.333,88.953 51.547,88.898 51.797,88.786L51.797,89.781C51.536,89.927 51.245,90 50.922,90C49.293,90 48.479,88.67 48.479,86.01C48.479,84.573 48.677,83.503 49.073,82.802C49.472,82.101 50.082,81.75 50.901,81.75C51.203,81.75 51.502,81.83 51.797,81.99L51.797,81.99Z" style="fill:rgb(44,45,48);fill-rule:nonzero;"/>
        </g>
        <g id="g1027" transform="matrix(0.961905,0,0,1,2,-40)">
            <rect id="rect1005" x="0" y="305" width="105" height="50" style="fill:rgb(158,161,168);"/>
            <path id="path1015" d="M0.002,329.216L104.998,329.75" style="fill:none;stroke:black;stroke-width:0.5px;stroke-linecap:butt;"/>
        </g>
        <g id="text1128" transform="matrix(1,0,0,1,0,-10)">
            <path id="path1338" d="M6.922,110.026L6.922,111.083C6.592,110.847 6.295,110.729 6.031,110.729C5.747,110.729 5.514,110.83 5.333,111.031C5.153,111.222 5.063,111.477 5.063,111.797C5.063,112.078 5.127,112.319 5.255,112.521C5.321,112.628 5.429,112.767 5.578,112.937C5.731,113.108 5.927,113.312 6.167,113.552C6.608,114 6.908,114.387 7.068,114.714C7.227,115.03 7.307,115.417 7.307,115.875C7.307,116.497 7.132,117.009 6.781,117.411C6.431,117.804 5.981,118 5.432,118C4.97,118 4.576,117.873 4.25,117.62L4.25,116.547C4.635,116.828 4.986,116.969 5.302,116.969C5.597,116.969 5.828,116.872 5.995,116.677C6.161,116.479 6.245,116.212 6.245,115.875C6.245,115.583 6.181,115.321 6.052,115.089C5.986,114.977 5.894,114.851 5.776,114.708C5.658,114.562 5.51,114.401 5.333,114.224C5.059,113.953 4.832,113.714 4.651,113.505C4.47,113.297 4.337,113.115 4.25,112.958C4.083,112.653 4,112.267 4,111.802C4,111.174 4.163,110.675 4.49,110.307C4.819,109.936 5.262,109.75 5.818,109.75C6.203,109.75 6.571,109.842 6.922,110.026L6.922,110.026Z" style="fill:rgb(158,161,168);fill-rule:nonzero;"/>
            <path id="path1340" d="M8.219,109.859L9.646,109.859C10.333,109.859 10.833,110.033 11.146,110.38C11.458,110.731 11.615,111.286 11.615,112.047C11.615,113.116 11.3,113.807 10.672,114.12C10.356,114.262 9.899,114.333 9.302,114.333L9.302,117.901L8.219,117.901L8.219,109.859ZM9.302,113.406C9.75,113.406 10.059,113.316 10.229,113.135C10.403,112.951 10.49,112.625 10.49,112.156C10.49,111.677 10.406,111.326 10.24,111.104C10.073,110.882 9.811,110.771 9.453,110.771L9.302,110.771L9.302,113.406Z" style="fill:rgb(158,161,168);fill-rule:nonzero;"/>
            <path id="path1343" d="M12.448,109.859L15.328,109.859L15.328,110.776L13.531,110.776L13.531,113.323L15.125,113.323L15.125,114.24L13.531,114.24L13.531,116.984L15.328,116.984L15.328,117.901L12.448,117.901L12.448,109.859Z" style="fill:rgb(158,161,168);fill-rule:nonzero;"/>
            <path id="path1345" d="M16.323,109.859L19.203,109.859L19.203,110.776L17.406,110.776L17.406,113.323L19,113.323L19,114.24L17.406,114.24L17.406,116.984L19.203,116.984L19.203,117.901L16.323,117.901L16.323,109.859Z" style="fill:rgb(158,161,168);fill-rule:nonzero;"/>
            <path id="path1347" d="M20.198,109.859L21.531,109.859C21.938,109.859 22.28,109.905 22.557,109.995C22.814,110.082 23.043,110.236 23.245,110.458C23.547,110.792 23.762,111.226 23.891,111.76C24.019,112.278 24.083,113.019 24.083,113.984C24.083,114.87 24.012,115.592 23.87,116.151C23.731,116.686 23.502,117.094 23.182,117.375C22.79,117.726 22.087,117.901 21.073,117.901L20.198,117.901L20.198,109.859ZM21.281,116.953C21.941,116.953 22.382,116.753 22.604,116.354C22.833,115.955 22.948,115.179 22.948,114.026C22.948,112.786 22.839,111.934 22.62,111.469C22.401,111.003 22,110.771 21.417,110.771L21.281,110.771L21.281,116.953Z" style="fill:rgb(158,161,168);fill-rule:nonzero;"/>
        </g>
        <g id="text1157" transform="matrix(1,0,0,1,54.5417,-52.099)">
            <path id="path1321" d="M13.776,179.089L13.776,180.062C13.498,179.927 13.266,179.859 13.078,179.859C12.821,179.859 12.601,179.924 12.417,180.052C12.233,180.177 12.08,180.372 11.958,180.635C11.84,180.899 11.752,181.234 11.693,181.641C11.637,182.043 11.609,182.521 11.609,183.073C11.609,185.059 12.118,186.052 13.135,186.052C13.313,186.052 13.526,185.997 13.776,185.885L13.776,186.88C13.516,187.026 13.224,187.099 12.901,187.099C11.273,187.099 10.458,185.769 10.458,183.109C10.458,181.672 10.656,180.602 11.052,179.901C11.451,179.2 12.061,178.849 12.88,178.849C13.182,178.849 13.481,178.929 13.776,179.089L13.776,179.089Z" style="fill:rgb(158,161,168);fill-rule:nonzero;"/>
            <path id="path1324" d="M14.042,178.958L15.109,178.958L15.594,181.927L15.677,182.464L15.849,183.63C15.877,183.828 15.901,184.009 15.922,184.172C15.946,184.335 15.967,184.483 15.984,184.615L16.036,185.01C16.047,184.931 16.056,184.859 16.063,184.797C16.069,184.734 16.076,184.682 16.083,184.641L16.224,183.708L16.406,182.484C16.424,182.373 16.439,182.271 16.453,182.177C16.47,182.083 16.486,182 16.5,181.927L17.021,178.958L18.031,178.958L16.453,187L15.594,187L14.042,178.958Z" style="fill:rgb(158,161,168);fill-rule:nonzero;"/>
        </g>
        <g id="text1175" transform="matrix(1,0,0,1,5.71484,-0.999967)">
            <path id="path1294" d="M42.477,236.02L42.477,236.812C42.229,236.635 42.007,236.547 41.809,236.547C41.595,236.547 41.421,236.622 41.285,236.773C41.15,236.917 41.082,237.108 41.082,237.348C41.082,237.559 41.13,237.74 41.227,237.891C41.276,237.971 41.357,238.075 41.469,238.203C41.583,238.331 41.73,238.484 41.91,238.664C42.241,239 42.466,239.29 42.586,239.535C42.706,239.772 42.766,240.062 42.766,240.406C42.766,240.872 42.634,241.256 42.371,241.559C42.108,241.853 41.771,242 41.359,242C41.013,242 40.717,241.905 40.473,241.715L40.473,240.91C40.762,241.121 41.025,241.227 41.262,241.227C41.483,241.227 41.656,241.154 41.781,241.008C41.906,240.859 41.969,240.659 41.969,240.406C41.969,240.187 41.921,239.991 41.824,239.816C41.775,239.733 41.706,239.638 41.617,239.531C41.529,239.422 41.418,239.301 41.285,239.168C41.079,238.965 40.909,238.785 40.773,238.629C40.638,238.473 40.538,238.336 40.473,238.219C40.348,237.99 40.285,237.7 40.285,237.352C40.285,236.88 40.408,236.506 40.652,236.23C40.9,235.952 41.232,235.812 41.648,235.812C41.938,235.812 42.214,235.881 42.477,236.019L42.477,236.02Z" style="fill:rgb(158,161,168);fill-rule:nonzero;"/>
            <path id="path1296" d="M43.063,235.895L45.707,235.895L45.707,236.605L44.797,236.605L44.797,241.926L44,241.926L44,236.605L43.063,236.605L43.063,235.895Z" style="fill:rgb(158,161,168);fill-rule:nonzero;"/>
            <path id="path1298" d="M46.902,235.895L47.535,235.895L48.828,241.926L48.023,241.926L47.797,240.75L46.602,240.75L46.371,241.926L45.59,241.926L46.902,235.895ZM47.68,240.121L47.5,239.16C47.38,238.507 47.283,237.809 47.207,237.066C47.171,237.428 47.124,237.796 47.066,238.168C47.009,238.538 46.941,238.931 46.863,239.348L46.715,240.121L47.68,240.121Z" style="fill:rgb(158,161,168);fill-rule:nonzero;"/>
            <path id="path1301" d="M49.309,235.895L50.379,235.895C50.822,235.895 51.151,236 51.367,236.211C51.641,236.484 51.777,236.902 51.777,237.465C51.777,237.897 51.704,238.245 51.559,238.508C51.415,238.768 51.21,238.93 50.941,238.992L52.051,241.926L51.227,241.926L50.121,238.973L50.121,241.926L49.309,241.926L49.309,235.895ZM50.121,238.566C50.436,238.566 50.659,238.493 50.789,238.348C50.919,238.202 50.984,237.956 50.984,237.609C50.984,237.422 50.97,237.262 50.941,237.129C50.915,236.996 50.872,236.888 50.812,236.805C50.755,236.721 50.68,236.66 50.586,236.621C50.495,236.582 50.385,236.562 50.258,236.562L50.121,236.562L50.121,238.566Z" style="fill:rgb(158,161,168);fill-rule:nonzero;"/>
            <path id="path1303" d="M52.281,235.895L54.926,235.895L54.926,236.605L54.016,236.605L54.016,241.926L53.219,241.926L53.219,236.605L52.281,236.605L52.281,235.895Z" style="fill:rgb(158,161,168);fill-rule:nonzero;"/>
        </g>
        <g id="text1181" transform="matrix(1,0,0,1,3.20019,-0.843763)">
            <path id="path1286" d="M64.8,235.812L66.96,235.812L66.96,236.5L65.612,236.5L65.612,238.41L66.808,238.41L66.808,239.098L65.612,239.098L65.612,241.156L66.96,241.156L66.96,241.844L64.8,241.844L64.8,235.812Z" style="fill:rgb(158,161,168);fill-rule:nonzero;"/>
            <path id="path1288" d="M67.706,235.812L68.464,235.812L69.272,238.219C69.507,238.898 69.714,239.624 69.894,240.395C69.828,239.928 69.78,239.507 69.749,239.129C69.718,238.751 69.702,238.396 69.702,238.063L69.702,235.812L70.519,235.812L70.519,241.844L69.757,241.844L68.847,239.129C68.763,238.876 68.684,238.617 68.608,238.352C68.536,238.086 68.468,237.807 68.405,237.516C68.4,237.479 68.391,237.435 68.378,237.383C68.368,237.331 68.355,237.271 68.339,237.203C68.347,237.271 68.353,237.329 68.359,237.379C68.364,237.426 68.368,237.466 68.37,237.5L68.413,238.113L68.456,238.859C68.459,238.901 68.46,238.952 68.46,239.012C68.463,239.072 68.464,239.139 68.464,239.215L68.507,241.844L67.706,241.844L67.706,235.812Z" style="fill:rgb(158,161,168);fill-rule:nonzero;"/>
            <path id="path1290" d="M71.456,235.812L72.456,235.812C72.761,235.812 73.017,235.846 73.226,235.914C73.418,235.979 73.59,236.095 73.741,236.262C73.968,236.512 74.129,236.837 74.226,237.238C74.322,237.626 74.37,238.182 74.37,238.906C74.37,239.57 74.317,240.112 74.21,240.531C74.106,240.932 73.934,241.238 73.694,241.449C73.4,241.712 72.873,241.844 72.112,241.844L71.456,241.844L71.456,235.812ZM72.269,241.133C72.763,241.133 73.094,240.983 73.261,240.684C73.433,240.384 73.519,239.802 73.519,238.937C73.519,238.008 73.437,237.368 73.272,237.02C73.108,236.671 72.808,236.496 72.37,236.496L72.269,236.496L72.269,241.133Z" style="fill:rgb(158,161,168);fill-rule:nonzero;"/>
        </g>
        <g id="text1187" transform="matrix(1,0,0,1,-0.10157,-0.996101)">
            <path id="path1275" d="M84.316,235.891L86.973,235.891L85.16,241.211L86.875,241.211L86.875,241.922L84.102,241.922L85.93,236.578L84.316,236.578L84.316,235.891Z" style="fill:rgb(158,161,168);fill-rule:nonzero;"/>
            <path id="path1277" d="M90.5,239.055C90.5,240.12 90.382,240.876 90.145,241.324C89.908,241.772 89.51,241.996 88.953,241.996C88.367,241.996 87.954,241.755 87.715,241.273C87.478,240.802 87.359,239.965 87.359,238.762C87.359,237.689 87.477,236.93 87.711,236.484C87.948,236.036 88.349,235.813 88.914,235.813C89.419,235.813 89.794,235.986 90.039,236.332C90.201,236.564 90.318,236.893 90.391,237.32C90.464,237.716 90.5,238.294 90.5,239.055L90.5,239.055ZM89.648,239.141C89.648,238.096 89.602,237.404 89.508,237.063C89.414,236.719 89.223,236.547 88.934,236.547C88.645,236.547 88.452,236.704 88.355,237.02C88.262,237.337 88.215,237.975 88.215,238.934C88.215,239.816 88.264,240.428 88.363,240.77C88.465,241.092 88.655,241.254 88.934,241.254C89.207,241.254 89.395,241.103 89.496,240.801C89.598,240.501 89.648,239.948 89.648,239.141L89.648,239.141Z" style="fill:rgb(158,161,168);fill-rule:nonzero;"/>
            <path id="path1279" d="M94.328,239.055C94.328,240.12 94.21,240.876 93.973,241.324C93.736,241.772 93.339,241.996 92.781,241.996C92.195,241.996 91.783,241.755 91.543,241.273C91.306,240.802 91.188,239.965 91.188,238.762C91.188,237.689 91.305,236.93 91.539,236.484C91.776,236.036 92.177,235.813 92.742,235.813C93.247,235.813 93.622,235.986 93.867,236.332C94.029,236.564 94.146,236.893 94.219,237.32C94.292,237.716 94.328,238.294 94.328,239.055L94.328,239.055ZM93.477,239.141C93.477,238.096 93.43,237.404 93.336,237.063C93.242,236.719 93.051,236.547 92.762,236.547C92.473,236.547 92.28,236.704 92.184,237.02C92.09,237.337 92.043,237.975 92.043,238.934C92.043,239.816 92.092,240.428 92.191,240.77C92.293,241.092 92.483,241.254 92.762,241.254C93.035,241.254 93.223,241.103 93.324,240.801C93.426,240.501 93.477,239.948 93.477,239.141L93.477,239.141Z" style="fill:rgb(158,161,168);fill-rule:nonzero;"/>
            <path id="path1282" d="M95.422,235.891L96.117,235.891L96.648,238.352C96.714,238.659 96.772,238.967 96.824,239.277C96.879,239.585 96.928,239.908 96.973,240.246C96.978,240.202 96.982,240.168 96.984,240.145C96.987,240.118 96.99,240.1 96.992,240.09L97.106,239.398L97.207,238.742L97.297,238.309L97.77,235.891L98.473,235.891L99.027,241.922L98.25,241.922L98.113,239.875C98.108,239.771 98.103,239.681 98.098,239.605C98.095,239.53 98.094,239.467 98.094,239.418L98.059,238.609L98.039,237.867C98.039,237.862 98.038,237.851 98.036,237.836C98.036,237.818 98.034,237.794 98.032,237.766L98.012,237.887C97.991,238.03 97.972,238.155 97.954,238.262C97.938,238.368 97.924,238.458 97.911,238.531L97.809,239.082L97.77,239.289L97.262,241.922L96.715,241.922L96.239,239.648C96.174,239.349 96.115,239.045 96.063,238.738C96.013,238.428 95.968,238.104 95.926,237.766L95.692,241.922L94.926,241.922L95.422,235.891Z" style="fill:rgb(158,161,168);fill-rule:nonzero;"/>
        </g>
        <g id="g1222" transform="matrix(1,0,0,1,132.73,-0.523443)">
            <g id="text1208">
                <path id="path1238" d="M-43.182,196.973L-43.182,197.734C-43.286,197.607 -43.411,197.543 -43.557,197.543C-43.968,197.543 -44.174,197.988 -44.174,198.879C-44.174,199.824 -43.969,200.297 -43.561,200.297C-43.446,200.297 -43.32,200.246 -43.182,200.145L-43.182,200.844C-43.38,200.948 -43.58,201 -43.783,201C-44.585,201 -44.986,200.318 -44.986,198.953C-44.986,198.227 -44.887,197.691 -44.689,197.348C-44.492,197.001 -44.184,196.828 -43.768,196.828C-43.567,196.828 -43.372,196.876 -43.182,196.973Z" style="fill:rgb(158,161,168);fill-rule:nonzero;"/>
                <path id="path1240" d="M-42.943,196.895L-42.1,196.895L-41.506,199.715L-40.811,196.895L-40.053,196.895L-41.705,202.594L-42.49,202.594L-41.869,200.613L-42.943,196.895Z" style="fill:rgb(158,161,168);fill-rule:nonzero;"/>
                <path id="path1242" d="M-37.994,196.973L-37.994,197.734C-38.098,197.607 -38.223,197.543 -38.369,197.543C-38.781,197.543 -38.986,197.988 -38.986,198.879C-38.986,199.824 -38.782,200.297 -38.373,200.297C-38.258,200.297 -38.132,200.246 -37.994,200.145L-37.994,200.844C-38.192,200.948 -38.393,201 -38.596,201C-39.398,201 -39.799,200.318 -39.799,198.953C-39.799,198.227 -39.7,197.691 -39.502,197.348C-39.304,197.001 -38.997,196.828 -38.58,196.828C-38.38,196.828 -38.184,196.876 -37.994,196.973Z" style="fill:rgb(158,161,168);fill-rule:nonzero;"/>
                <rect id="path1244" x="-37.365" y="194.301" width="0.746" height="6.637" style="fill:rgb(158,161,168);fill-rule:nonzero;"/>
                <path id="path1246" d="M-34.209,199.574L-33.514,199.574C-33.568,200.525 -33.959,201 -34.686,201C-34.902,201 -35.088,200.96 -35.244,200.879C-35.398,200.798 -35.525,200.673 -35.627,200.504C-35.729,200.335 -35.804,200.12 -35.854,199.859C-35.9,199.599 -35.924,199.289 -35.924,198.93C-35.924,198.216 -35.825,197.687 -35.627,197.344C-35.426,197 -35.118,196.828 -34.701,196.828C-33.891,196.828 -33.486,197.542 -33.486,198.969L-33.486,199.063L-35.193,199.063C-35.193,199.927 -35.021,200.359 -34.678,200.359C-34.365,200.359 -34.209,200.098 -34.209,199.574L-34.209,199.574ZM-34.248,198.523C-34.279,198.099 -34.327,197.82 -34.393,197.687C-34.46,197.539 -34.57,197.465 -34.721,197.465C-34.874,197.465 -34.984,197.539 -35.049,197.687C-35.114,197.82 -35.162,198.099 -35.193,198.523L-34.248,198.523Z" style="fill:rgb(158,161,168);fill-rule:nonzero;"/>
            </g>
            <g id="text1214">
                <path id="path1249" d="M-47.191,227.949C-47.191,229.316 -47.615,230 -48.461,230C-49.307,230 -49.73,229.306 -49.73,227.918C-49.73,226.525 -49.309,225.828 -48.465,225.828C-48.246,225.828 -48.057,225.87 -47.898,225.953C-47.737,226.036 -47.604,226.165 -47.5,226.34C-47.396,226.514 -47.319,226.734 -47.27,227C-47.217,227.266 -47.191,227.582 -47.191,227.949L-47.191,227.949ZM-47.965,227.93C-47.965,227.398 -48,227.029 -48.07,226.82C-48.141,226.609 -48.266,226.504 -48.445,226.504C-48.622,226.504 -48.749,226.608 -48.824,226.816C-48.895,227.025 -48.93,227.388 -48.93,227.906C-48.93,228.424 -48.895,228.786 -48.824,228.992C-48.749,229.2 -48.622,229.305 -48.445,229.305C-48.268,229.305 -48.145,229.202 -48.074,228.996C-48.001,228.803 -47.965,228.448 -47.965,227.93L-47.965,227.93Z" style="fill:rgb(158,161,168);fill-rule:nonzero;"/>
                <path id="path1251" d="M-46.5,225.895L-45.754,225.895L-45.754,226.359C-45.54,226.005 -45.264,225.828 -44.926,225.828C-44.598,225.828 -44.363,225.957 -44.223,226.215C-44.145,226.361 -44.105,226.643 -44.105,227.062L-44.105,229.937L-44.852,229.937L-44.855,227.234C-44.855,226.961 -44.888,226.767 -44.953,226.652C-45.018,226.538 -45.13,226.48 -45.289,226.48C-45.375,226.48 -45.448,226.496 -45.508,226.527C-45.565,226.556 -45.612,226.604 -45.648,226.672C-45.685,226.737 -45.712,226.823 -45.73,226.93C-45.746,227.036 -45.754,227.168 -45.754,227.324L-45.754,229.937L-46.5,229.937L-46.5,225.895Z" style="fill:rgb(158,161,168);fill-rule:nonzero;"/>
                <path id="path1254" d="M-41.703,228.574L-41.008,228.574C-41.062,229.525 -41.453,230 -42.18,230C-42.396,230 -42.582,229.96 -42.738,229.879C-42.892,229.798 -43.02,229.673 -43.121,229.504C-43.223,229.335 -43.298,229.12 -43.348,228.859C-43.395,228.599 -43.418,228.289 -43.418,227.93C-43.418,227.216 -43.319,226.687 -43.121,226.344C-42.921,226 -42.612,225.828 -42.195,225.828C-41.385,225.828 -40.98,226.542 -40.98,227.969L-40.98,228.062L-42.687,228.062C-42.687,228.927 -42.516,229.359 -42.172,229.359C-41.859,229.359 -41.703,229.098 -41.703,228.574L-41.703,228.574ZM-41.742,227.523C-41.773,227.099 -41.822,226.82 -41.887,226.687C-41.954,226.539 -42.064,226.465 -42.215,226.465C-42.368,226.465 -42.478,226.539 -42.543,226.687C-42.608,226.82 -42.656,227.099 -42.688,227.523L-41.742,227.523Z" style="fill:rgb(158,161,168);fill-rule:nonzero;"/>
                <path id="path1260" d="M-37.094,225.977L-37.094,226.676C-37.276,226.54 -37.467,226.473 -37.668,226.473C-37.736,226.473 -37.798,226.484 -37.855,226.508C-37.913,226.531 -37.964,226.564 -38.008,226.605C-38.049,226.645 -38.083,226.693 -38.109,226.75C-38.133,226.805 -38.145,226.863 -38.145,226.926C-38.145,227.118 -37.97,227.348 -37.621,227.613C-37.48,227.723 -37.363,227.824 -37.269,227.918C-37.176,228.012 -37.104,228.1 -37.055,228.184C-36.953,228.348 -36.902,228.555 -36.902,228.805C-36.902,229.167 -37.008,229.457 -37.219,229.676C-37.427,229.892 -37.707,230 -38.059,230C-38.275,230 -38.493,229.936 -38.715,229.809L-38.715,229.086C-38.499,229.247 -38.294,229.328 -38.102,229.328C-37.76,229.328 -37.59,229.16 -37.59,228.824C-37.59,228.699 -37.621,228.591 -37.684,228.5C-37.712,228.456 -37.758,228.405 -37.82,228.348C-37.883,228.288 -37.96,228.221 -38.051,228.148C-38.366,227.904 -38.579,227.698 -38.691,227.531C-38.801,227.359 -38.855,227.152 -38.855,226.91C-38.855,226.585 -38.755,226.318 -38.555,226.109C-38.352,225.904 -38.087,225.801 -37.762,225.801C-37.533,225.801 -37.31,225.859 -37.094,225.977L-37.094,225.977Z" style="fill:rgb(158,161,168);fill-rule:nonzero;"/>
                <path id="path1267" d="M-36.297,223.301L-35.551,223.301L-35.551,226.359C-35.337,226.005 -35.061,225.828 -34.723,225.828C-34.395,225.828 -34.16,225.957 -34.02,226.215C-33.941,226.361 -33.902,226.643 -33.902,227.062L-33.902,229.937L-34.648,229.937L-34.652,227.234C-34.652,226.961 -34.685,226.767 -34.75,226.652C-34.815,226.538 -34.927,226.48 -35.086,226.48C-35.172,226.48 -35.245,226.496 -35.305,226.527C-35.362,226.556 -35.409,226.604 -35.445,226.672C-35.482,226.737 -35.509,226.823 -35.527,226.93C-35.543,227.036 -35.551,227.168 -35.551,227.324L-35.551,229.937L-36.297,229.937L-36.297,223.301Z" style="fill:rgb(158,161,168);fill-rule:nonzero;"/>
                <path id="path1269" d="M-30.676,227.949C-30.676,229.316 -31.099,230 -31.945,230C-32.792,230 -33.215,229.306 -33.215,227.918C-33.215,226.525 -32.793,225.828 -31.949,225.828C-31.73,225.828 -31.542,225.87 -31.383,225.953C-31.221,226.036 -31.089,226.165 -30.984,226.34C-30.88,226.514 -30.803,226.734 -30.754,227C-30.702,227.266 -30.676,227.582 -30.676,227.949L-30.676,227.949ZM-31.449,227.93C-31.449,227.398 -31.484,227.029 -31.555,226.82C-31.625,226.609 -31.75,226.504 -31.93,226.504C-32.107,226.504 -32.233,226.608 -32.309,226.816C-32.379,227.025 -32.414,227.388 -32.414,227.906C-32.414,228.424 -32.379,228.786 -32.309,228.992C-32.233,229.2 -32.107,229.305 -31.93,229.305C-31.753,229.305 -31.629,229.202 -31.559,228.996C-31.486,228.803 -31.449,228.448 -31.449,227.93L-31.449,227.93Z" style="fill:rgb(158,161,168);fill-rule:nonzero;"/>
                <path id="path1271" d="M-29.895,224.762L-29.148,224.762L-29.148,225.895L-28.742,225.895L-28.742,226.488L-29.148,226.488L-29.148,229.937L-29.895,229.937L-29.895,226.488L-30.305,226.488L-30.305,225.895L-29.895,225.895L-29.895,224.762Z" style="fill:rgb(158,161,168);fill-rule:nonzero;"/>
            </g>
        </g>
        <g id="text1356" transform="matrix(0.806858,0,0,1,0.772567,-13)">
            <path id="path1381" d="M4,187.349L5.083,187.349L5.083,194.474L6.854,194.474L6.854,195.391L4,195.391L4,187.349Z" style="fill:rgb(158,161,168);fill-rule:nonzero;"/>
            <path id="path1383" d="M7.542,187.349L10.438,187.349L10.438,188.266L8.625,188.266L8.625,190.807L10.26,190.807L10.26,191.724L8.625,191.724L8.625,195.391L7.542,195.391L7.542,187.349Z" style="fill:rgb(158,161,168);fill-rule:nonzero;"/>
            <path id="path1385" d="M15.339,191.568C15.339,192.988 15.181,193.997 14.865,194.594C14.549,195.191 14.019,195.49 13.276,195.49C12.495,195.49 11.944,195.168 11.625,194.526C11.309,193.898 11.151,192.781 11.151,191.177C11.151,189.747 11.307,188.734 11.62,188.141C11.936,187.543 12.47,187.245 13.224,187.245C13.898,187.245 14.398,187.476 14.724,187.938C14.939,188.247 15.095,188.686 15.193,189.255C15.29,189.783 15.339,190.554 15.339,191.568L15.339,191.568ZM14.203,191.682C14.203,190.29 14.141,189.366 14.016,188.911C13.891,188.453 13.635,188.224 13.25,188.224C12.865,188.224 12.608,188.434 12.479,188.854C12.354,189.278 12.292,190.128 12.292,191.406C12.292,192.583 12.358,193.399 12.49,193.854C12.625,194.285 12.878,194.5 13.25,194.5C13.615,194.5 13.865,194.299 14,193.896C14.135,193.497 14.203,192.759 14.203,191.682L14.203,191.682Z" style="fill:rgb(158,161,168);fill-rule:nonzero;"/>
            <path id="path1387" d="M18.625,187.349L21.521,187.349L21.521,188.266L19.708,188.266L19.708,190.807L21.344,190.807L21.344,191.724L19.708,191.724L19.708,195.391L18.625,195.391L18.625,187.349Z" style="fill:rgb(158,161,168);fill-rule:nonzero;"/>
            <path id="path1389" d="M22.354,187.349L23.781,187.349C24.372,187.349 24.811,187.49 25.099,187.771C25.464,188.135 25.646,188.693 25.646,189.443C25.646,190.019 25.549,190.483 25.354,190.833C25.163,191.181 24.889,191.396 24.531,191.479L26.01,195.391L24.911,195.391L23.438,191.453L23.438,195.391L22.354,195.391L22.354,187.349ZM23.438,190.911C23.858,190.911 24.155,190.814 24.328,190.62C24.502,190.425 24.589,190.097 24.589,189.635C24.589,189.385 24.569,189.172 24.531,188.995C24.497,188.818 24.439,188.674 24.359,188.563C24.283,188.451 24.182,188.37 24.057,188.318C23.936,188.266 23.79,188.24 23.62,188.24L23.438,188.24L23.438,190.911Z" style="fill:rgb(158,161,168);fill-rule:nonzero;"/>
            <path id="path1391" d="M26.854,187.349L29.734,187.349L29.734,188.266L27.938,188.266L27.938,190.813L29.531,190.813L29.531,191.729L27.938,191.729L27.938,194.474L29.734,194.474L29.734,195.391L26.854,195.391L26.854,187.349Z" style="fill:rgb(158,161,168);fill-rule:nonzero;"/>
            <path id="path1393" d="M34.984,195.51L34.302,196L33.75,195.214C33.42,195.398 33.071,195.49 32.703,195.49C31.922,195.49 31.37,195.16 31.047,194.5C30.727,193.819 30.568,192.681 30.568,191.083C30.568,189.688 30.724,188.7 31.036,188.12C31.349,187.536 31.878,187.245 32.625,187.245C33.41,187.245 33.962,187.566 34.281,188.208C34.597,188.837 34.755,189.951 34.755,191.552C34.755,193 34.604,194.005 34.302,194.568L34.984,195.51ZM33.068,192.839L33.516,193.474C33.589,192.96 33.625,192.38 33.625,191.734C33.625,190.352 33.559,189.418 33.427,188.932C33.295,188.464 33.033,188.229 32.641,188.229C32.273,188.229 32.024,188.429 31.896,188.828C31.767,189.21 31.703,189.981 31.703,191.141C31.703,192.443 31.769,193.332 31.901,193.807C32.033,194.262 32.29,194.49 32.672,194.49C32.825,194.49 32.97,194.441 33.109,194.344L32.422,193.354L33.068,192.839Z" style="fill:rgb(158,161,168);fill-rule:nonzero;"/>
        </g>
        <g id="text1362" transform="matrix(1,0,0,1,-24,-11.5625)">
            <path id="path1364" d="M74.422,175.457L75.168,175.457L75.168,175.957C75.374,175.579 75.647,175.391 75.988,175.391C76.361,175.391 76.613,175.579 76.746,175.957C76.944,175.579 77.225,175.391 77.59,175.391C77.874,175.391 78.09,175.466 78.238,175.617C78.389,175.766 78.465,175.986 78.465,176.277L78.465,179.5L77.715,179.5L77.715,176.84C77.715,176.535 77.686,176.331 77.629,176.227C77.574,176.12 77.467,176.066 77.309,176.066C77.129,176.066 77.006,176.121 76.941,176.231C76.879,176.337 76.848,176.54 76.848,176.84L76.848,179.5L76.074,179.5L76.074,176.84C76.074,176.697 76.066,176.576 76.051,176.477C76.038,176.378 76.014,176.298 75.98,176.238C75.947,176.178 75.902,176.135 75.848,176.109C75.793,176.081 75.725,176.066 75.645,176.066C75.473,176.066 75.35,176.125 75.277,176.242C75.204,176.359 75.168,176.559 75.168,176.84L75.168,179.5L74.422,179.5L74.422,175.457Z" style="fill:rgb(158,161,168);fill-rule:nonzero;"/>
            <path id="path1366" d="M81.699,177.512C81.699,178.879 81.276,179.563 80.43,179.563C79.583,179.563 79.16,178.868 79.16,177.48C79.16,176.087 79.582,175.391 80.426,175.391C80.645,175.391 80.833,175.432 80.992,175.516C81.154,175.599 81.286,175.728 81.391,175.902C81.495,176.077 81.572,176.297 81.621,176.562C81.673,176.828 81.699,177.145 81.699,177.512L81.699,177.512ZM80.926,177.492C80.926,176.961 80.891,176.591 80.82,176.383C80.75,176.172 80.625,176.066 80.445,176.066C80.268,176.066 80.142,176.17 80.066,176.379C79.996,176.587 79.961,176.95 79.961,177.469C79.961,177.987 79.996,178.349 80.066,178.555C80.142,178.763 80.268,178.867 80.445,178.867C80.622,178.867 80.746,178.764 80.816,178.558C80.889,178.366 80.926,178.01 80.926,177.492L80.926,177.492Z" style="fill:rgb(158,161,168);fill-rule:nonzero;"/>
            <path id="path1368" d="M84.699,172.863L84.699,179.5L83.953,179.5L83.953,178.98C83.846,179.202 83.74,179.354 83.633,179.438C83.526,179.521 83.384,179.562 83.207,179.562C82.874,179.562 82.629,179.392 82.473,179.051C82.316,178.707 82.238,178.168 82.238,177.434C82.238,177.079 82.258,176.773 82.297,176.516C82.336,176.258 82.395,176.046 82.473,175.879C82.553,175.712 82.656,175.59 82.781,175.512C82.906,175.431 83.055,175.391 83.227,175.391C83.391,175.391 83.526,175.43 83.633,175.508C83.685,175.544 83.738,175.596 83.793,175.664C83.848,175.732 83.901,175.815 83.953,175.914L83.953,172.863L84.699,172.863ZM83.012,177.461C83.012,177.992 83.047,178.363 83.117,178.574C83.19,178.785 83.318,178.891 83.5,178.891C83.667,178.891 83.788,178.781 83.863,178.563C83.939,178.328 83.977,177.967 83.977,177.48C83.977,176.991 83.939,176.629 83.863,176.395C83.788,176.176 83.667,176.066 83.5,176.066C83.323,176.066 83.197,176.171 83.121,176.379C83.048,176.572 83.012,176.932 83.012,177.461L83.012,177.461Z" style="fill:rgb(158,161,168);fill-rule:nonzero;"/>
            <path id="path1370" d="M87.203,175.457L87.953,175.457L87.953,179.5L87.203,179.5L87.203,175.457ZM87.555,173.738C87.69,173.738 87.807,173.788 87.906,173.887C88.005,173.986 88.055,174.104 88.055,174.242C88.055,174.383 88.005,174.503 87.906,174.602C87.807,174.701 87.688,174.75 87.547,174.75C87.406,174.75 87.286,174.701 87.188,174.602C87.091,174.505 87.043,174.384 87.043,174.238C87.043,174.103 87.092,173.986 87.191,173.887C87.298,173.788 87.419,173.738 87.555,173.738Z" style="fill:rgb(158,161,168);fill-rule:nonzero;"/>
            <path id="path1372" d="M88.797,175.457L89.543,175.457L89.543,175.922C89.757,175.568 90.033,175.391 90.371,175.391C90.699,175.391 90.934,175.52 91.074,175.777C91.152,175.923 91.191,176.206 91.191,176.625L91.191,179.5L90.445,179.5L90.442,176.797C90.442,176.523 90.409,176.329 90.344,176.215C90.279,176.1 90.167,176.043 90.008,176.043C89.922,176.043 89.849,176.059 89.789,176.09C89.732,176.119 89.685,176.167 89.649,176.234C89.612,176.299 89.585,176.385 89.567,176.492C89.551,176.599 89.543,176.73 89.543,176.887L89.543,179.5L88.797,179.5L88.797,175.457Z" style="fill:rgb(158,161,168);fill-rule:nonzero;"/>
            <path id="path1374" d="M94.34,172.863L94.34,179.5L93.594,179.5L93.594,178.98C93.487,179.202 93.38,179.354 93.273,179.438C93.167,179.521 93.025,179.562 92.848,179.562C92.514,179.562 92.27,179.392 92.113,179.051C91.957,178.707 91.879,178.168 91.879,177.434C91.879,177.079 91.898,176.773 91.937,176.516C91.977,176.258 92.035,176.046 92.113,175.879C92.194,175.712 92.297,175.59 92.422,175.512C92.547,175.431 92.695,175.391 92.867,175.391C93.031,175.391 93.167,175.43 93.273,175.508C93.326,175.544 93.379,175.596 93.434,175.664C93.488,175.732 93.542,175.815 93.594,175.914L93.594,172.863L94.34,172.863ZM92.652,177.461C92.652,177.992 92.688,178.363 92.758,178.574C92.831,178.785 92.958,178.891 93.141,178.891C93.307,178.891 93.428,178.781 93.504,178.563C93.579,178.328 93.617,177.967 93.617,177.48C93.617,176.991 93.579,176.629 93.504,176.395C93.428,176.176 93.307,176.066 93.141,176.066C92.964,176.066 92.837,176.171 92.762,176.379C92.689,176.572 92.652,176.932 92.652,177.461L92.652,177.461Z" style="fill:rgb(158,161,168);fill-rule:nonzero;"/>
            <path id="path1376" d="M96.75,178.137L97.445,178.137C97.391,179.087 97,179.563 96.273,179.563C96.057,179.563 95.871,179.522 95.715,179.441C95.561,179.361 95.434,179.236 95.332,179.066C95.23,178.897 95.155,178.682 95.105,178.422C95.059,178.161 95.035,177.852 95.035,177.492C95.035,176.779 95.134,176.25 95.332,175.906C95.533,175.562 95.841,175.391 96.258,175.391C97.068,175.391 97.473,176.104 97.473,177.531L97.473,177.625L95.766,177.625C95.766,178.49 95.938,178.922 96.281,178.922C96.594,178.922 96.75,178.66 96.75,178.137L96.75,178.137ZM96.711,177.086C96.68,176.661 96.631,176.383 96.566,176.25C96.499,176.102 96.389,176.027 96.238,176.027C96.085,176.027 95.975,176.102 95.91,176.25C95.845,176.383 95.797,176.661 95.766,177.086L96.711,177.086Z" style="fill:rgb(158,161,168);fill-rule:nonzero;"/>
            <path id="path1378" d="M97.703,175.457L98.586,175.457L98.941,176.238C98.983,176.329 99.022,176.426 99.059,176.527C99.095,176.626 99.128,176.732 99.156,176.844C99.177,176.745 99.202,176.65 99.23,176.559C99.259,176.467 99.292,176.378 99.328,176.289L99.379,176.172L99.672,175.457L100.457,175.457L99.543,177.367L100.648,179.5L99.758,179.5L99.402,178.727C99.228,178.365 99.125,178.076 99.094,177.859C99.07,178.068 98.987,178.333 98.844,178.656L98.484,179.5L97.703,179.5L98.715,177.367L97.703,175.457Z" style="fill:rgb(158,161,168);fill-rule:nonzero;"/>
        </g>
        <g id="text1482" transform="matrix(1,0,0,1,-2.98438,0)">
            <path id="path1507" d="M9.984,193.895L12.629,193.895L12.629,194.605L11.719,194.605L11.719,199.926L10.922,199.926L10.922,194.605L9.984,194.605L9.984,193.895Z" style="fill:rgb(158,161,168);fill-rule:nonzero;"/>
            <path id="path1509" d="M13.074,193.895L14.145,193.895C14.587,193.895 14.917,194 15.133,194.211C15.406,194.484 15.543,194.902 15.543,195.465C15.543,195.897 15.47,196.245 15.324,196.508C15.181,196.768 14.975,196.93 14.707,196.992L15.816,199.926L14.992,199.926L13.887,196.973L13.887,199.926L13.074,199.926L13.074,193.895ZM13.887,196.566C14.202,196.566 14.424,196.493 14.555,196.348C14.685,196.202 14.75,195.956 14.75,195.609C14.75,195.422 14.736,195.262 14.707,195.129C14.681,194.996 14.638,194.888 14.578,194.805C14.521,194.721 14.445,194.66 14.352,194.621C14.26,194.582 14.151,194.562 14.023,194.562L13.887,194.562L13.887,196.566Z" style="fill:rgb(158,161,168);fill-rule:nonzero;"/>
            <rect id="path1511" x="16.449" y="193.895" width="0.813" height="6.031" style="fill:rgb(158,161,168);fill-rule:nonzero;"/>
            <path id="path1513" d="M19.645,196.754L21.121,196.754L21.121,196.988C21.121,198.163 21.018,198.956 20.813,199.367C20.609,199.789 20.229,200 19.672,200C19.096,200 18.686,199.766 18.441,199.297C18.199,198.828 18.078,198.04 18.078,196.934C18.078,195.668 18.211,194.826 18.477,194.406C18.727,194.013 19.111,193.816 19.629,193.816C20.025,193.816 20.333,193.911 20.555,194.102C20.779,194.294 20.953,194.611 21.078,195.051L20.32,195.367C20.286,195.208 20.249,195.076 20.207,194.969C20.165,194.859 20.12,194.775 20.07,194.715C19.971,194.592 19.823,194.531 19.625,194.531C19.354,194.531 19.169,194.698 19.07,195.031C18.971,195.38 18.922,196.007 18.922,196.91C18.922,197.824 18.973,198.443 19.074,198.766C19.176,199.089 19.367,199.25 19.648,199.25C19.906,199.25 20.087,199.135 20.191,198.906C20.298,198.661 20.352,198.268 20.352,197.727L20.352,197.562L20.352,197.441L19.645,197.441L19.645,196.754Z" style="fill:rgb(158,161,168);fill-rule:nonzero;"/>
            <path id="path1515" d="M25.602,194.02L25.602,194.812C25.354,194.635 25.132,194.547 24.934,194.547C24.72,194.547 24.546,194.622 24.41,194.773C24.275,194.917 24.207,195.108 24.207,195.348C24.207,195.559 24.255,195.74 24.352,195.891C24.401,195.971 24.482,196.075 24.594,196.203C24.708,196.331 24.855,196.484 25.035,196.664C25.366,197 25.591,197.29 25.711,197.535C25.831,197.772 25.891,198.062 25.891,198.406C25.891,198.872 25.759,199.256 25.496,199.559C25.233,199.853 24.896,200 24.484,200C24.138,200 23.842,199.905 23.598,199.715L23.598,198.91C23.887,199.121 24.15,199.227 24.387,199.227C24.608,199.227 24.781,199.154 24.906,199.008C25.031,198.859 25.094,198.659 25.094,198.406C25.094,198.187 25.046,197.991 24.949,197.816C24.9,197.733 24.831,197.638 24.742,197.531C24.654,197.422 24.543,197.301 24.41,197.168C24.204,196.965 24.034,196.785 23.898,196.629C23.763,196.473 23.663,196.336 23.598,196.219C23.473,195.99 23.41,195.7 23.41,195.352C23.41,194.88 23.533,194.506 23.777,194.23C24.025,193.952 24.357,193.812 24.773,193.812C25.063,193.812 25.339,193.881 25.602,194.019L25.602,194.02Z" style="fill:rgb(158,161,168);fill-rule:nonzero;"/>
            <path id="path1517" d="M26.188,193.895L28.832,193.895L28.832,194.605L27.922,194.605L27.922,199.926L27.125,199.926L27.125,194.605L26.188,194.605L26.188,193.895Z" style="fill:rgb(158,161,168);fill-rule:nonzero;"/>
            <path id="path1519" d="M30.027,193.895L30.66,193.895L31.953,199.926L31.148,199.926L30.922,198.75L29.727,198.75L29.496,199.926L28.715,199.926L30.027,193.895ZM30.805,198.121L30.625,197.16C30.505,196.507 30.408,195.809 30.332,195.066C30.296,195.428 30.249,195.796 30.191,196.168C30.134,196.538 30.066,196.931 29.988,197.348L29.84,198.121L30.805,198.121Z" style="fill:rgb(158,161,168);fill-rule:nonzero;"/>
            <path id="path1521" d="M32.434,193.895L33.504,193.895C33.947,193.895 34.276,194 34.492,194.211C34.766,194.484 34.902,194.902 34.902,195.465C34.902,195.897 34.829,196.245 34.684,196.508C34.54,196.768 34.335,196.93 34.066,196.992L35.176,199.926L34.352,199.926L33.246,196.973L33.246,199.926L32.434,199.926L32.434,193.895ZM33.246,196.566C33.561,196.566 33.784,196.493 33.914,196.348C34.044,196.202 34.109,195.956 34.109,195.609C34.109,195.422 34.095,195.262 34.066,195.129C34.04,194.996 33.997,194.888 33.938,194.805C33.88,194.721 33.805,194.66 33.711,194.621C33.62,194.582 33.51,194.562 33.383,194.562L33.246,194.562L33.246,196.566Z" style="fill:rgb(158,161,168);fill-rule:nonzero;"/>
            <path id="path1523" d="M35.406,193.895L38.051,193.895L38.051,194.605L37.141,194.605L37.141,199.926L36.344,199.926L36.344,194.605L35.406,194.605L35.406,193.895Z" style="fill:rgb(158,161,168);fill-rule:nonzero;"/>
        </g>
        <g id="text1528" transform="matrix(1,0,0,0.999998,0,-2)">
            <path id="path1530" d="M4,79.86L7.526,79.86L7.526,80.807L6.312,80.807L6.312,87.901L5.25,87.901L5.25,80.807L4,80.807L4,79.86Z" style="fill:rgb(158,161,168);fill-rule:nonzero;"/>
            <path id="path1532" d="M8.12,79.86L9.547,79.86C10.137,79.86 10.576,80 10.865,80.281C11.229,80.646 11.411,81.203 11.411,81.953C11.411,82.53 11.314,82.993 11.12,83.344C10.929,83.691 10.655,83.906 10.297,83.99L11.776,87.901L10.677,87.901L9.203,83.964L9.203,87.901L8.12,87.901L8.12,79.86ZM9.203,83.422C9.623,83.422 9.92,83.325 10.094,83.13C10.267,82.936 10.354,82.608 10.354,82.146C10.354,81.896 10.335,81.682 10.297,81.505C10.262,81.328 10.205,81.184 10.125,81.073C10.049,80.962 9.948,80.88 9.823,80.828C9.701,80.776 9.556,80.75 9.385,80.75L9.203,80.75L9.203,83.422Z" style="fill:rgb(158,161,168);fill-rule:nonzero;"/>
            <rect id="path1534" x="12.62" y="79.86" width="1.083" height="8.042" style="fill:rgb(158,161,168);fill-rule:nonzero;"/>
            <path id="path1536" d="M16.88,83.672L18.849,83.672L18.849,83.985C18.849,85.551 18.712,86.608 18.438,87.156C18.167,87.719 17.66,88 16.917,88C16.149,88 15.602,87.688 15.276,87.063C14.953,86.438 14.792,85.387 14.792,83.912C14.792,82.224 14.969,81.101 15.323,80.542C15.656,80.018 16.168,79.755 16.859,79.755C17.387,79.755 17.799,79.882 18.094,80.136C18.392,80.393 18.625,80.814 18.792,81.401L17.781,81.823C17.736,81.611 17.686,81.434 17.63,81.292C17.575,81.146 17.514,81.033 17.448,80.953C17.316,80.79 17.118,80.708 16.854,80.708C16.493,80.708 16.247,80.931 16.115,81.375C15.983,81.84 15.917,82.676 15.917,83.88C15.917,85.099 15.984,85.924 16.12,86.354C16.255,86.785 16.51,87 16.885,87C17.229,87 17.471,86.847 17.609,86.542C17.752,86.215 17.823,85.691 17.823,84.969L17.823,84.75L17.823,84.589L16.88,84.589L16.88,83.672Z" style="fill:rgb(158,161,168);fill-rule:nonzero;"/>
            <path id="path1538" d="M22.141,79.86L23.568,79.86C24.158,79.86 24.597,80 24.885,80.281C25.25,80.646 25.432,81.203 25.432,81.953C25.432,82.53 25.335,82.993 25.141,83.344C24.95,83.691 24.675,83.906 24.318,83.99L25.797,87.901L24.698,87.901L23.224,83.964L23.224,87.901L22.141,87.901L22.141,79.86ZM23.224,83.422C23.644,83.422 23.941,83.325 24.115,83.13C24.288,82.936 24.375,82.608 24.375,82.146C24.375,81.896 24.356,81.682 24.318,81.505C24.283,81.328 24.226,81.184 24.146,81.073C24.069,80.962 23.969,80.88 23.844,80.828C23.722,80.776 23.576,80.75 23.406,80.75L23.224,80.75L23.224,83.422Z" style="fill:rgb(158,161,168);fill-rule:nonzero;"/>
            <path id="path1540" d="M26.641,79.86L29.521,79.86L29.521,80.776L27.724,80.776L27.724,83.323L29.318,83.323L29.318,84.24L27.724,84.24L27.724,86.985L29.521,86.985L29.521,87.901L26.641,87.901L26.641,79.86Z" style="fill:rgb(158,161,168);fill-rule:nonzero;"/>
            <path id="path1542" d="M33.672,79.99L33.672,80.964C33.394,80.828 33.162,80.761 32.974,80.761C32.717,80.761 32.497,80.825 32.313,80.953C32.129,81.078 31.976,81.273 31.854,81.537C31.736,81.801 31.648,82.136 31.589,82.542C31.533,82.945 31.505,83.422 31.505,83.974C31.505,85.96 32.014,86.953 33.031,86.953C33.208,86.953 33.422,86.898 33.672,86.787L33.672,87.781C33.412,87.927 33.12,88 32.797,88C31.168,88 30.354,86.67 30.354,84.011C30.354,82.573 30.552,81.504 30.948,80.802C31.347,80.101 31.957,79.75 32.776,79.75C33.078,79.75 33.377,79.83 33.672,79.99L33.672,79.99Z" style="fill:rgb(158,161,168);fill-rule:nonzero;"/>
        </g>
        <g id="text1291" transform="matrix(1,0,0,1,18.1563,0)">
            <path id="path1299" d="M14.332,234.992L14.332,235.723C14.124,235.621 13.949,235.57 13.809,235.57C13.616,235.57 13.451,235.618 13.312,235.715C13.174,235.809 13.06,235.954 12.969,236.152C12.88,236.35 12.814,236.602 12.77,236.906C12.728,237.208 12.707,237.566 12.707,237.98C12.707,239.47 13.089,240.215 13.852,240.215C13.984,240.215 14.145,240.173 14.332,240.09L14.332,240.836C14.137,240.945 13.918,241 13.676,241C12.454,241 11.844,240.003 11.844,238.008C11.844,236.93 11.992,236.128 12.289,235.602C12.589,235.076 13.046,234.812 13.66,234.812C13.887,234.812 14.111,234.872 14.332,234.992L14.332,234.992Z" style="fill:rgb(158,161,168);fill-rule:nonzero;"/>
            <path id="path1305" d="M14.531,234.895L15.332,234.895L15.695,237.121L15.758,237.523L15.887,238.398C15.908,238.547 15.926,238.682 15.941,238.805C15.96,238.927 15.975,239.038 15.988,239.137L16.027,239.434C16.035,239.374 16.042,239.32 16.047,239.273C16.052,239.227 16.057,239.188 16.062,239.156L16.168,238.457L16.305,237.539C16.318,237.456 16.329,237.379 16.34,237.309C16.353,237.238 16.365,237.176 16.375,237.121L16.766,234.895L17.523,234.895L16.34,240.926L15.695,240.926L14.531,234.895Z" style="fill:rgb(158,161,168);fill-rule:nonzero;"/>
        </g>
        <g id="text1312" transform="matrix(1,0,0,1,-7.96485,2)">
            <path id="path1355" d="M66.965,90.969L69.137,90.969L69.137,91.656L67.777,91.656L67.777,93.562L69.004,93.562L69.004,94.25L67.777,94.25L67.777,97L66.965,97L66.965,90.969Z" style="fill:rgb(158,161,168);fill-rule:nonzero;"/>
            <rect id="path1357" x="69.762" y="90.969" width="0.813" height="6.031" style="fill:rgb(158,161,168);fill-rule:nonzero;"/>
            <path id="path1359" d="M71.512,90.969L72.27,90.969L73.078,93.375C73.313,94.055 73.52,94.78 73.699,95.551C73.634,95.085 73.586,94.663 73.555,94.285C73.523,93.908 73.508,93.552 73.508,93.219L73.508,90.969L74.324,90.969L74.324,97L73.563,97L72.652,94.285C72.569,94.033 72.49,93.773 72.414,93.508C72.341,93.242 72.273,92.964 72.211,92.672C72.206,92.635 72.197,92.591 72.184,92.539C72.173,92.487 72.16,92.427 72.145,92.359C72.152,92.427 72.159,92.486 72.164,92.535C72.17,92.582 72.174,92.622 72.176,92.656L72.219,93.27L72.262,94.016C72.264,94.057 72.266,94.108 72.266,94.168C72.268,94.228 72.27,94.296 72.27,94.371L72.313,97L71.512,97L71.512,90.969Z" style="fill:rgb(158,161,168);fill-rule:nonzero;"/>
            <path id="path1361" d="M75.262,90.969L77.422,90.969L77.422,91.656L76.074,91.656L76.074,93.566L77.27,93.566L77.27,94.254L76.074,94.254L76.074,96.312L77.422,96.312L77.422,97L75.262,97L75.262,90.969Z" style="fill:rgb(158,161,168);fill-rule:nonzero;"/>
        </g>
        <g id="text1318" transform="matrix(1,0,0,1,-3.84376,2)">
            <path id="path1322" d="M85.484,94.059C85.484,95.124 85.366,95.88 85.129,96.328C84.892,96.776 84.495,97 83.938,97C83.352,97 82.939,96.759 82.699,96.277C82.462,95.806 82.344,94.969 82.344,93.766C82.344,92.693 82.461,91.934 82.695,91.488C82.932,91.04 83.333,90.816 83.898,90.816C84.404,90.816 84.779,90.99 85.023,91.336C85.185,91.568 85.302,91.897 85.375,92.324C85.448,92.72 85.484,93.298 85.484,94.059L85.484,94.059ZM84.633,94.145C84.633,93.1 84.586,92.408 84.492,92.066C84.398,91.723 84.207,91.551 83.918,91.551C83.629,91.551 83.436,91.708 83.34,92.023C83.246,92.341 83.199,92.979 83.199,93.938C83.199,94.82 83.249,95.432 83.348,95.773C83.449,96.096 83.639,96.258 83.918,96.258C84.191,96.258 84.379,96.107 84.48,95.805C84.582,95.505 84.633,94.952 84.633,94.145L84.633,94.145Z" style="fill:rgb(158,161,168);fill-rule:nonzero;"/>
            <path id="path1326" d="M88.66,90.992L88.66,91.723C88.452,91.621 88.277,91.57 88.137,91.57C87.944,91.57 87.779,91.618 87.641,91.715C87.503,91.809 87.388,91.954 87.297,92.152C87.208,92.35 87.142,92.602 87.098,92.906C87.056,93.208 87.035,93.566 87.035,93.98C87.035,95.47 87.417,96.215 88.18,96.215C88.312,96.215 88.473,96.173 88.66,96.09L88.66,96.836C88.465,96.945 88.246,97 88.004,97C86.783,97 86.172,96.003 86.172,94.008C86.172,92.93 86.32,92.128 86.617,91.602C86.917,91.076 87.374,90.813 87.988,90.813C88.215,90.813 88.439,90.872 88.66,90.992L88.66,90.992Z" style="fill:rgb(158,161,168);fill-rule:nonzero;"/>
            <path id="path1336" d="M88.859,90.895L91.504,90.895L91.504,91.605L90.594,91.605L90.594,96.926L89.797,96.926L89.797,91.605L88.859,91.605L88.859,90.895Z" style="fill:rgb(158,161,168);fill-rule:nonzero;"/>
            <path id="path1341" d="M92.699,90.895L93.332,90.895L94.625,96.926L93.82,96.926L93.594,95.75L92.398,95.75L92.168,96.926L91.387,96.926L92.699,90.895ZM93.477,95.121L93.297,94.16C93.177,93.507 93.079,92.809 93.004,92.066C92.967,92.428 92.921,92.796 92.863,93.168C92.806,93.538 92.738,93.931 92.66,94.348L92.512,95.121L93.477,95.121Z" style="fill:rgb(158,161,168);fill-rule:nonzero;"/>
            <path id="path1349" d="M94.484,90.895L95.285,90.895L95.648,93.121L95.711,93.523L95.84,94.398C95.861,94.547 95.879,94.682 95.895,94.805C95.913,94.927 95.928,95.038 95.941,95.137L95.98,95.434C95.988,95.374 95.995,95.32 96,95.273C96.005,95.227 96.011,95.188 96.016,95.156L96.121,94.457L96.258,93.539C96.271,93.456 96.283,93.379 96.293,93.309C96.306,93.238 96.318,93.176 96.328,93.121L96.719,90.895L97.477,90.895L96.293,96.926L95.648,96.926L94.484,90.895Z" style="fill:rgb(158,161,168);fill-rule:nonzero;"/>
            <path id="path1351" d="M97.918,90.895L100.078,90.895L100.078,91.582L98.73,91.582L98.73,93.492L99.926,93.492L99.926,94.18L98.73,94.18L98.73,96.238L100.078,96.238L100.078,96.926L97.918,96.926L97.918,90.895Z" style="fill:rgb(158,161,168);fill-rule:nonzero;"/>
        </g>
        <g id="text1252">
            <path id="path1292" d="M40.508,323.895L41.141,323.895L42.434,329.926L41.629,329.926L41.402,328.75L40.207,328.75L39.977,329.926L39.195,329.926L40.508,323.895ZM41.285,328.121L41.105,327.16C40.986,326.506 40.888,325.809 40.812,325.066C40.776,325.428 40.729,325.796 40.672,326.168C40.615,326.538 40.547,326.931 40.469,327.348L40.32,328.121L41.285,328.121Z" style="fill:rgb(158,161,168);fill-rule:nonzero;"/>
            <path id="path1319" d="M42.914,323.895L43.672,323.895L44.48,326.301C44.715,326.98 44.922,327.706 45.102,328.477C45.036,328.01 44.988,327.589 44.957,327.211C44.926,326.833 44.91,326.478 44.91,326.145L44.91,323.895L45.727,323.895L45.727,329.926L44.965,329.926L44.055,327.211C43.971,326.958 43.892,326.699 43.816,326.434C43.743,326.168 43.676,325.889 43.613,325.598C43.608,325.561 43.599,325.517 43.586,325.465C43.576,325.413 43.563,325.353 43.547,325.285C43.555,325.353 43.561,325.411 43.567,325.461C43.572,325.508 43.576,325.548 43.578,325.582L43.621,326.195L43.664,326.941C43.667,326.983 43.668,327.034 43.668,327.094C43.671,327.154 43.672,327.221 43.672,327.297L43.715,329.926L42.914,329.926L42.914,323.895Z" style="fill:rgb(158,161,168);fill-rule:nonzero;"/>
            <path id="path1353" d="M46.184,323.895L48.828,323.895L48.828,324.605L47.918,324.605L47.918,329.926L47.121,329.926L47.121,324.605L46.184,324.605L46.184,323.895Z" style="fill:rgb(158,161,168);fill-rule:nonzero;"/>
            <rect id="path1362" x="49.273" y="323.895" width="0.813" height="6.031" style="fill:rgb(158,161,168);fill-rule:nonzero;"/>
            <rect id="path1379" x="50.559" y="327.551" width="1.422" height="0.609" style="fill:rgb(158,161,168);fill-rule:nonzero;"/>
            <path id="path1395" d="M54.813,323.992L54.813,324.723C54.604,324.621 54.43,324.57 54.289,324.57C54.096,324.57 53.931,324.618 53.793,324.715C53.655,324.809 53.54,324.954 53.449,325.152C53.361,325.35 53.294,325.602 53.25,325.906C53.208,326.208 53.187,326.566 53.187,326.98C53.187,328.47 53.569,329.215 54.332,329.215C54.465,329.215 54.625,329.173 54.812,329.09L54.812,329.836C54.617,329.945 54.398,330 54.156,330C52.935,330 52.324,329.003 52.324,327.008C52.324,325.93 52.473,325.128 52.77,324.602C53.069,324.076 53.526,323.812 54.141,323.812C54.367,323.812 54.591,323.872 54.812,323.992L54.813,323.992Z" style="fill:rgb(158,161,168);fill-rule:nonzero;"/>
            <path id="path1397" d="M55.492,323.895L56.305,323.895L56.305,329.238L57.633,329.238L57.633,329.926L55.492,329.926L55.492,323.895Z" style="fill:rgb(158,161,168);fill-rule:nonzero;"/>
            <rect id="path1399" x="58.148" y="323.895" width="0.813" height="6.031" style="fill:rgb(158,161,168);fill-rule:nonzero;"/>
            <path id="path1401" d="M62.266,323.992L62.266,324.723C62.057,324.621 61.883,324.57 61.742,324.57C61.549,324.57 61.384,324.618 61.246,324.715C61.108,324.809 60.993,324.954 60.902,325.152C60.814,325.35 60.747,325.602 60.703,325.906C60.661,326.208 60.641,326.566 60.641,326.98C60.641,328.47 61.022,329.215 61.785,329.215C61.918,329.215 62.078,329.173 62.266,329.09L62.266,329.836C62.07,329.945 61.852,330 61.609,330C60.388,330 59.777,329.003 59.777,327.008C59.777,325.93 59.926,325.128 60.223,324.602C60.522,324.076 60.979,323.812 61.594,323.812C61.82,323.812 62.044,323.872 62.266,323.992L62.266,323.992Z" style="fill:rgb(158,161,168);fill-rule:nonzero;"/>
            <path id="path1403" d="M62.945,323.895L63.758,323.895L63.758,326.816L64.891,323.895L65.711,323.895L64.523,326.816L65.805,329.926L64.891,329.926L63.758,326.816L63.758,329.926L62.945,329.926L62.945,323.895Z" style="fill:rgb(158,161,168);fill-rule:nonzero;"/>
        </g>
        <g id="text458">
            <path id="path460" d="M7.566,237.754L9.043,237.754L9.043,237.988C9.043,239.163 8.94,239.956 8.734,240.367C8.531,240.789 8.151,241 7.594,241C7.018,241 6.608,240.766 6.363,240.297C6.121,239.828 6,239.04 6,237.934C6,236.668 6.133,235.826 6.398,235.406C6.648,235.013 7.033,234.816 7.551,234.816C7.947,234.816 8.255,234.911 8.477,235.102C8.701,235.294 8.875,235.611 9,236.051L8.242,236.367C8.208,236.208 8.171,236.076 8.129,235.969C8.087,235.859 8.042,235.775 7.992,235.715C7.893,235.592 7.745,235.531 7.547,235.531C7.276,235.531 7.091,235.698 6.992,236.031C6.893,236.38 6.844,237.007 6.844,237.91C6.844,238.824 6.895,239.443 6.996,239.766C7.098,240.089 7.289,240.25 7.57,240.25C7.828,240.25 8.009,240.135 8.113,239.906C8.22,239.661 8.273,239.268 8.273,238.727L8.273,238.562L8.273,238.441L7.566,238.441L7.566,237.754Z" style="fill:rgb(158,161,168);fill-rule:nonzero;"/>
            <path id="path462" d="M10.715,234.895L11.348,234.895L12.641,240.926L11.836,240.926L11.609,239.75L10.414,239.75L10.184,240.926L9.402,240.926L10.715,234.895ZM11.492,239.121L11.313,238.16C11.193,237.506 11.095,236.809 11.02,236.066C10.983,236.428 10.936,236.796 10.879,237.168C10.822,237.538 10.754,237.931 10.676,238.348L10.527,239.121L11.492,239.121Z" style="fill:rgb(158,161,168);fill-rule:nonzero;"/>
            <path id="path464" d="M12.516,234.895L15.16,234.895L15.16,235.605L14.25,235.605L14.25,240.926L13.453,240.926L13.453,235.605L12.516,235.605L12.516,234.895Z" style="fill:rgb(158,161,168);fill-rule:nonzero;"/>
            <path id="path466" d="M15.605,234.895L17.766,234.895L17.766,235.582L16.418,235.582L16.418,237.492L17.613,237.492L17.613,238.18L16.418,238.18L16.418,240.238L17.766,240.238L17.766,240.926L15.605,240.926L15.605,234.895Z" style="fill:rgb(158,161,168);fill-rule:nonzero;"/>
            <path id="path468" d="M18.512,234.895L19.512,234.895C19.816,234.895 20.073,234.928 20.281,234.996C20.474,235.061 20.646,235.177 20.797,235.344C21.023,235.594 21.185,235.919 21.281,236.32C21.378,236.708 21.426,237.264 21.426,237.988C21.426,238.652 21.372,239.194 21.266,239.613C21.161,240.014 20.99,240.32 20.75,240.531C20.456,240.794 19.928,240.926 19.168,240.926L18.512,240.926L18.512,234.895ZM19.324,240.215C19.819,240.215 20.15,240.065 20.316,239.766C20.488,239.466 20.574,238.884 20.574,238.02C20.574,237.09 20.492,236.451 20.328,236.102C20.164,235.753 19.863,235.578 19.426,235.578L19.324,235.578L19.324,240.215Z" style="fill:rgb(158,161,168);fill-rule:nonzero;"/>
        </g>
        <g id="text1267" transform="matrix(0.838807,0,0,1.19217,0,0)">
            <path id="path1400" d="M14.885,11.809L14.728,14.732C14.12,14.976 13.577,15.099 13.096,15.099C11.964,15.099 11.012,14.683 10.239,13.853C9.374,12.923 8.941,11.606 8.941,9.902C8.941,8.307 9.348,7.027 10.16,6.062C10.973,5.101 12.058,4.62 13.417,4.62C13.858,4.62 14.308,4.703 14.767,4.869L14.767,7.759C14.361,7.353 13.944,7.15 13.515,7.15C12.956,7.15 12.519,7.388 12.205,7.864C11.89,8.344 11.733,9.008 11.733,9.856C11.733,10.267 11.772,10.634 11.851,10.957C11.93,11.28 12.041,11.553 12.185,11.776C12.334,11.999 12.515,12.169 12.729,12.287C12.943,12.405 13.188,12.464 13.463,12.464C13.935,12.464 14.409,12.246 14.885,11.809Z" style="fill:rgb(158,161,168);fill-rule:nonzero;"/>
            <path id="path1402" d="M23.398,9.895C23.398,11.437 23.046,12.691 22.343,13.657C21.644,14.618 20.733,15.099 19.61,15.099C18.614,15.099 17.76,14.729 17.048,13.991C16.152,13.056 15.704,11.654 15.704,9.784C15.704,7.993 16.172,6.623 17.107,5.675C17.801,4.972 18.625,4.62 19.577,4.62C20.744,4.62 21.672,5.096 22.362,6.049C23.052,7.001 23.398,8.283 23.398,9.895ZM20.56,9.915C20.56,8.084 20.237,7.169 19.59,7.169C19.267,7.169 19.009,7.409 18.817,7.89C18.629,8.336 18.535,8.991 18.535,9.856C18.535,10.708 18.622,11.37 18.797,11.842C18.976,12.309 19.223,12.543 19.538,12.543C19.861,12.543 20.11,12.311 20.285,11.848C20.468,11.385 20.56,10.741 20.56,9.915L20.56,9.915Z" style="fill:rgb(158,161,168);fill-rule:nonzero;"/>
            <path id="path1405" d="M34.971,14.922L32.113,14.922L31.91,10.308L31.825,8.467C31.794,8.821 31.759,9.159 31.72,9.482C31.681,9.801 31.633,10.112 31.576,10.413L30.717,14.922L28.489,14.922L27.755,10.406C27.712,10.144 27.653,9.694 27.579,9.056C27.57,8.96 27.55,8.764 27.52,8.467L27.454,10.334L27.212,14.922L24.302,14.922L25.481,4.803L28.883,4.803L29.453,8.211C29.501,8.491 29.542,8.794 29.577,9.122C29.617,9.45 29.652,9.806 29.682,10.19C29.739,9.548 29.818,8.973 29.918,8.467L30.613,4.803L33.988,4.803L34.971,14.922Z" style="fill:rgb(158,161,168);fill-rule:nonzero;"/>
            <path id="path1407" d="M38.929,14.922L36.196,14.922L36.196,4.803L38.843,4.803C40.163,4.803 41.141,5.072 41.779,5.61C42.531,6.243 42.906,7.123 42.906,8.25C42.906,9.478 42.507,10.393 41.707,10.996C41.161,11.403 40.377,11.606 39.355,11.606L38.929,11.606L38.929,14.922ZM38.929,9.332L39.053,9.338C39.385,9.338 39.649,9.238 39.846,9.037C40.043,8.831 40.141,8.552 40.141,8.198C40.141,7.849 40.045,7.565 39.853,7.346C39.66,7.123 39.416,7.012 39.119,7.012L38.929,7.012L38.929,9.332Z" style="fill:rgb(158,161,168);fill-rule:nonzero;"/>
            <path id="path1409" d="M48.66,14.922L43.876,14.922L43.876,4.803L46.609,4.803L46.609,12.49L48.66,12.49L48.66,14.922Z" style="fill:rgb(158,161,168);fill-rule:nonzero;"/>
            <path id="path1411" d="M49.486,14.922L49.486,4.803L54.565,4.803L54.565,7.182L52.218,7.182L52.218,8.657L54.322,8.657L54.322,10.944L52.218,10.944L52.218,12.49L54.565,12.49L54.565,14.922L49.486,14.922Z" style="fill:rgb(158,161,168);fill-rule:nonzero;"/>
            <path id="path1413" d="M62.861,14.922L59.827,14.922L59.322,13.48C59.16,13.039 59.029,12.615 58.929,12.209C58.833,12.611 58.689,13.071 58.496,13.591L57.992,14.922L55.017,14.922L57.474,9.672L55.154,4.803L58.195,4.803L58.647,6.173C58.695,6.3 58.741,6.448 58.785,6.619C58.833,6.789 58.881,6.981 58.929,7.195C59.038,6.759 59.13,6.422 59.204,6.186L59.624,4.803L62.684,4.803L60.377,9.672L62.861,14.922Z" style="fill:rgb(158,161,168);fill-rule:nonzero;"/>
            <path id="path1415" d="M67.383,14.673L67.383,11.494C67.92,12.228 68.501,12.595 69.126,12.595C69.362,12.595 69.554,12.534 69.702,12.412C69.851,12.285 69.925,12.128 69.925,11.94C69.925,11.669 69.764,11.405 69.44,11.147L68.995,10.8C68.698,10.577 68.444,10.356 68.234,10.138C68.025,9.915 67.854,9.688 67.723,9.456C67.592,9.22 67.496,8.978 67.435,8.729C67.374,8.48 67.343,8.218 67.343,7.942C67.343,7.471 67.452,6.977 67.671,6.461C67.78,6.221 67.907,6.003 68.051,5.806C68.195,5.605 68.361,5.428 68.549,5.275C69.065,4.838 69.687,4.62 70.417,4.62C71.068,4.62 71.723,4.793 72.383,5.138L72.383,8.231C72.16,7.886 71.906,7.615 71.622,7.418C71.338,7.217 71.059,7.117 70.784,7.117C70.574,7.117 70.401,7.178 70.266,7.3C70.126,7.418 70.056,7.56 70.056,7.726C70.056,7.997 70.242,8.266 70.613,8.532L71.046,8.853C71.622,9.268 72.035,9.694 72.284,10.131C72.538,10.568 72.664,11.079 72.664,11.665C72.664,12.661 72.361,13.482 71.754,14.129C71.146,14.775 70.377,15.099 69.447,15.099C68.805,15.099 68.116,14.957 67.383,14.673L67.383,14.673Z" style="fill:rgb(158,161,168);fill-rule:nonzero;"/>
            <rect id="path1417" x="73.733" y="4.803" width="2.733" height="10.118" style="fill:rgb(158,161,168);fill-rule:nonzero;"/>
            <path id="path1419" d="M88.287,14.922L85.43,14.922L85.227,10.308L85.142,8.467C85.111,8.821 85.076,9.159 85.037,9.482C84.997,9.801 84.949,10.112 84.893,10.413L84.034,14.922L81.806,14.922L81.072,10.406C81.028,10.144 80.969,9.694 80.895,9.056C80.886,8.96 80.867,8.764 80.836,8.467L80.771,10.334L80.528,14.922L77.619,14.922L78.798,4.803L82.199,4.803L82.769,8.211C82.817,8.491 82.859,8.794 82.894,9.122C82.933,9.45 82.968,9.806 82.999,10.19C83.056,9.548 83.134,8.973 83.235,8.467L83.929,4.803L87.304,4.803L88.287,14.922Z" style="fill:rgb(158,161,168);fill-rule:nonzero;"/>
            <path id="path1421" d="M92.245,14.922L89.513,14.922L89.513,4.803L92.16,4.803C93.479,4.803 94.458,5.072 95.096,5.61C95.847,6.243 96.223,7.123 96.223,8.25C96.223,9.478 95.823,10.393 95.024,10.996C94.478,11.403 93.694,11.606 92.671,11.606L92.245,11.606L92.245,14.922ZM92.245,9.332L92.37,9.338C92.702,9.338 92.966,9.238 93.163,9.037C93.359,8.831 93.458,8.552 93.458,8.198C93.458,7.849 93.361,7.565 93.169,7.346C92.977,7.123 92.732,7.012 92.435,7.012L92.245,7.012L92.245,9.332Z" style="fill:rgb(158,161,168);fill-rule:nonzero;"/>
            <path id="path1423" d="M101.977,14.922L97.193,14.922L97.193,4.803L99.926,4.803L99.926,12.49L101.977,12.49L101.977,14.922Z" style="fill:rgb(158,161,168);fill-rule:nonzero;"/>
            <path id="path1425" d="M102.802,14.922L102.802,4.803L107.881,4.803L107.881,7.182L105.535,7.182L105.535,8.657L107.639,8.657L107.639,10.944L105.535,10.944L105.535,12.49L107.881,12.49L107.881,14.922L102.802,14.922Z" style="fill:rgb(158,161,168);fill-rule:nonzero;"/>
            <path id="path1427" d="M116.236,14.922L113.281,14.922L111.931,11.317C111.918,11.256 111.894,11.175 111.859,11.075C111.828,10.974 111.789,10.854 111.741,10.714L111.761,11.383L111.761,14.922L109.041,14.922L109.041,4.803L111.839,4.803C113.071,4.803 113.993,5.046 114.605,5.531C115.382,6.151 115.771,7.034 115.771,8.178C115.771,9.402 115.249,10.247 114.205,10.714L116.236,14.922ZM111.774,9.489L111.957,9.489C112.272,9.489 112.534,9.369 112.744,9.129C112.953,8.888 113.058,8.582 113.058,8.211C113.058,7.455 112.663,7.077 111.872,7.077L111.774,7.077L111.774,9.489Z" style="fill:rgb(158,161,168);fill-rule:nonzero;"/>
        </g>
        <g id="text1292">
            <path id="path1295" d="M88.943,161.895L91.104,161.895L91.104,162.582L89.756,162.582L89.756,164.492L90.951,164.492L90.951,165.18L89.756,165.18L89.756,167.238L91.104,167.238L91.104,167.926L88.943,167.926L88.943,161.895Z" style="fill:rgb(158,161,168);fill-rule:nonzero;"/>
            <path id="path1297" d="M94.869,165.059C94.869,166.124 94.751,166.88 94.514,167.328C94.277,167.776 93.88,168 93.322,168C92.736,168 92.324,167.759 92.084,167.277C91.847,166.806 91.729,165.969 91.729,164.766C91.729,163.693 91.846,162.934 92.08,162.488C92.317,162.04 92.718,161.816 93.283,161.816C93.788,161.816 94.163,161.99 94.408,162.336C94.57,162.568 94.687,162.897 94.76,163.324C94.833,163.72 94.869,164.298 94.869,165.059L94.869,165.059ZM94.018,165.145C94.018,164.1 93.971,163.408 93.877,163.066C93.783,162.723 93.592,162.551 93.303,162.551C93.014,162.551 92.821,162.708 92.725,163.023C92.631,163.341 92.584,163.979 92.584,164.938C92.584,165.82 92.633,166.432 92.732,166.773C92.834,167.096 93.024,167.258 93.303,167.258C93.576,167.258 93.764,167.107 93.865,166.805C93.967,166.505 94.018,165.952 94.018,165.145L94.018,165.145Z" style="fill:rgb(158,161,168);fill-rule:nonzero;"/>
            <path id="path1300" d="M98.045,161.992L98.045,162.723C97.837,162.621 97.662,162.57 97.521,162.57C97.329,162.57 97.163,162.618 97.025,162.715C96.887,162.809 96.773,162.954 96.682,163.152C96.593,163.35 96.527,163.602 96.482,163.906C96.441,164.208 96.42,164.566 96.42,164.98C96.42,166.47 96.801,167.215 97.564,167.215C97.697,167.215 97.857,167.173 98.045,167.09L98.045,167.836C97.85,167.945 97.631,168 97.389,168C96.167,168 95.557,167.003 95.557,165.008C95.557,163.93 95.705,163.128 96.002,162.602C96.301,162.076 96.758,161.813 97.373,161.813C97.6,161.813 97.824,161.872 98.045,161.992L98.045,161.992Z" style="fill:rgb(158,161,168);fill-rule:nonzero;"/>
        </g>
        <g id="text1019">
            <path id="path1025" d="M42.984,193.863L45.629,193.863L45.629,194.574L44.719,194.574L44.719,199.895L43.922,199.895L43.922,194.574L42.984,194.574L42.984,193.863Z" style="fill:rgb(158,161,168);fill-rule:nonzero;"/>
            <path id="path1027" d="M46.074,193.863L47.145,193.863C47.587,193.863 47.917,193.969 48.133,194.18C48.406,194.453 48.543,194.871 48.543,195.434C48.543,195.866 48.47,196.214 48.324,196.477C48.181,196.737 47.975,196.898 47.707,196.961L48.816,199.895L47.992,199.895L46.887,196.941L46.887,199.895L46.074,199.895L46.074,193.863ZM46.887,196.535C47.202,196.535 47.424,196.462 47.555,196.316C47.685,196.171 47.75,195.924 47.75,195.578C47.75,195.391 47.736,195.23 47.707,195.098C47.681,194.965 47.638,194.857 47.578,194.773C47.521,194.69 47.445,194.629 47.352,194.59C47.26,194.551 47.151,194.531 47.023,194.531L46.887,194.531L46.887,196.535Z" style="fill:rgb(158,161,168);fill-rule:nonzero;"/>
            <rect id="path1029" x="49.449" y="193.863" width="0.812" height="6.031" style="fill:rgb(158,161,168);fill-rule:nonzero;"/>
            <path id="path1031" d="M52.645,196.723L54.121,196.723L54.121,196.957C54.121,198.132 54.018,198.924 53.813,199.336C53.609,199.758 53.229,199.969 52.672,199.969C52.096,199.969 51.686,199.734 51.441,199.266C51.199,198.797 51.078,198.009 51.078,196.902C51.078,195.637 51.211,194.794 51.477,194.375C51.727,193.982 52.111,193.785 52.629,193.785C53.025,193.785 53.333,193.88 53.555,194.07C53.779,194.263 53.953,194.579 54.078,195.02L53.32,195.336C53.286,195.177 53.249,195.044 53.207,194.937C53.165,194.828 53.12,194.743 53.07,194.684C52.971,194.561 52.823,194.5 52.625,194.5C52.354,194.5 52.169,194.667 52.07,195C51.971,195.349 51.922,195.975 51.922,196.879C51.922,197.793 51.973,198.411 52.074,198.734C52.176,199.057 52.367,199.219 52.648,199.219C52.906,199.219 53.087,199.104 53.191,198.875C53.298,198.63 53.352,198.237 53.352,197.695L53.352,197.531L53.352,197.41L52.645,197.41L52.645,196.723Z" style="fill:rgb(158,161,168);fill-rule:nonzero;"/>
            <path id="path1033" d="M58.602,193.988L58.602,194.781C58.354,194.604 58.132,194.516 57.934,194.516C57.72,194.516 57.546,194.591 57.41,194.742C57.275,194.885 57.207,195.077 57.207,195.316C57.207,195.527 57.255,195.708 57.352,195.859C57.401,195.94 57.482,196.044 57.594,196.172C57.708,196.299 57.855,196.453 58.035,196.633C58.366,196.969 58.591,197.259 58.711,197.504C58.831,197.741 58.891,198.031 58.891,198.375C58.891,198.841 58.759,199.225 58.496,199.527C58.233,199.822 57.896,199.969 57.484,199.969C57.138,199.969 56.842,199.874 56.598,199.684L56.598,198.879C56.887,199.09 57.15,199.195 57.387,199.195C57.608,199.195 57.781,199.122 57.906,198.977C58.031,198.828 58.094,198.628 58.094,198.375C58.094,198.156 58.046,197.96 57.949,197.785C57.9,197.702 57.831,197.607 57.742,197.5C57.654,197.391 57.543,197.269 57.41,197.137C57.204,196.934 57.034,196.754 56.898,196.598C56.763,196.441 56.663,196.305 56.598,196.187C56.473,195.958 56.41,195.669 56.41,195.32C56.41,194.849 56.533,194.475 56.777,194.199C57.025,193.921 57.357,193.781 57.773,193.781C58.063,193.781 58.339,193.85 58.602,193.988L58.602,193.988Z" style="fill:rgb(158,161,168);fill-rule:nonzero;"/>
            <path id="path1035" d="M59.188,193.863L61.832,193.863L61.832,194.574L60.922,194.574L60.922,199.895L60.125,199.895L60.125,194.574L59.188,194.574L59.188,193.863Z" style="fill:rgb(158,161,168);fill-rule:nonzero;"/>
            <path id="path1037" d="M65.359,197.027C65.359,198.092 65.241,198.849 65.004,199.297C64.767,199.745 64.37,199.969 63.813,199.969C63.227,199.969 62.814,199.728 62.574,199.246C62.337,198.775 62.219,197.938 62.219,196.734C62.219,195.661 62.336,194.902 62.57,194.457C62.807,194.009 63.208,193.785 63.773,193.785C64.279,193.785 64.654,193.958 64.898,194.305C65.06,194.536 65.177,194.866 65.25,195.293C65.323,195.689 65.359,196.267 65.359,197.027L65.359,197.027ZM64.508,197.113C64.508,196.069 64.461,195.376 64.367,195.035C64.273,194.691 64.082,194.52 63.793,194.52C63.504,194.52 63.311,194.677 63.215,194.992C63.121,195.31 63.074,195.948 63.074,196.906C63.074,197.789 63.124,198.401 63.223,198.742C63.324,199.065 63.514,199.227 63.793,199.227C64.066,199.227 64.254,199.076 64.355,198.773C64.457,198.474 64.508,197.921 64.508,197.113L64.508,197.113Z" style="fill:rgb(158,161,168);fill-rule:nonzero;"/>
            <path id="path1039" d="M66.168,193.863L67.238,193.863C67.754,193.863 68.129,193.993 68.363,194.254C68.598,194.517 68.715,194.934 68.715,195.504C68.715,196.306 68.479,196.824 68.008,197.059C67.771,197.165 67.428,197.219 66.98,197.219L66.98,199.895L66.168,199.895L66.168,193.863ZM66.98,196.523C67.316,196.523 67.548,196.456 67.676,196.32C67.806,196.182 67.871,195.938 67.871,195.586C67.871,195.227 67.809,194.964 67.684,194.797C67.559,194.63 67.362,194.547 67.094,194.547L66.98,194.547L66.98,196.523Z" style="fill:rgb(158,161,168);fill-rule:nonzero;"/>
            <rect id="path1041" x="68.781" y="197.52" width="1.422" height="0.609" style="fill:rgb(158,161,168);fill-rule:nonzero;"/>
            <path id="path1043" d="M73.035,193.961L73.035,194.691C72.827,194.59 72.652,194.539 72.512,194.539C72.319,194.539 72.154,194.587 72.016,194.684C71.878,194.777 71.763,194.923 71.672,195.121C71.583,195.319 71.517,195.57 71.473,195.875C71.431,196.177 71.41,196.535 71.41,196.949C71.41,198.439 71.792,199.184 72.555,199.184C72.687,199.184 72.848,199.142 73.035,199.059L73.035,199.805C72.84,199.914 72.621,199.969 72.379,199.969C71.158,199.969 70.547,198.971 70.547,196.977C70.547,195.898 70.695,195.096 70.992,194.57C71.292,194.044 71.749,193.781 72.363,193.781C72.59,193.781 72.814,193.841 73.035,193.961L73.035,193.961Z" style="fill:rgb(158,161,168);fill-rule:nonzero;"/>
            <path id="path1045" d="M76.688,197.027C76.688,198.092 76.569,198.849 76.332,199.297C76.095,199.745 75.698,199.969 75.141,199.969C74.555,199.969 74.142,199.728 73.902,199.246C73.665,198.775 73.547,197.938 73.547,196.734C73.547,195.661 73.664,194.902 73.898,194.457C74.135,194.009 74.536,193.785 75.102,193.785C75.607,193.785 75.982,193.958 76.227,194.305C76.388,194.536 76.505,194.866 76.578,195.293C76.651,195.689 76.688,196.267 76.688,197.027L76.688,197.027ZM75.836,197.113C75.836,196.069 75.789,195.376 75.695,195.035C75.602,194.691 75.41,194.52 75.121,194.52C74.832,194.52 74.639,194.677 74.543,194.992C74.449,195.31 74.402,195.948 74.402,196.906C74.402,197.789 74.452,198.401 74.551,198.742C74.652,199.065 74.842,199.227 75.121,199.227C75.395,199.227 75.582,199.076 75.684,198.773C75.785,198.474 75.836,197.921 75.836,197.113L75.836,197.113Z" style="fill:rgb(158,161,168);fill-rule:nonzero;"/>
            <path id="path1047" d="M77.496,193.863L78.254,193.863L79.063,196.27C79.297,196.949 79.504,197.674 79.684,198.445C79.618,197.979 79.57,197.557 79.539,197.18C79.508,196.802 79.492,196.447 79.492,196.113L79.492,193.863L80.309,193.863L80.309,199.895L79.547,199.895L78.637,197.18C78.553,196.927 78.474,196.668 78.398,196.402C78.326,196.137 78.258,195.858 78.195,195.566C78.19,195.53 78.181,195.486 78.168,195.434C78.158,195.382 78.145,195.322 78.129,195.254C78.137,195.322 78.143,195.38 78.149,195.43C78.154,195.477 78.158,195.517 78.16,195.551L78.203,196.164L78.246,196.91C78.249,196.952 78.25,197.003 78.25,197.063C78.253,197.122 78.254,197.19 78.254,197.266L78.297,199.895L77.496,199.895L77.496,193.863Z" style="fill:rgb(158,161,168);fill-rule:nonzero;"/>
            <path id="path1049" d="M80.766,193.863L83.41,193.863L83.41,194.574L82.5,194.574L82.5,199.895L81.703,199.895L81.703,194.574L80.766,194.574L80.766,193.863Z" style="fill:rgb(158,161,168);fill-rule:nonzero;"/>
        </g>
    </g>
</svg>
