<?xml version="1.0" encoding="UTF-8" standalone="no"?>
<!DOCTYPE svg PUBLIC "-//W3C//DTD SVG 1.1//EN" "http://www.w3.org/Graphics/SVG/1.1/DTD/svg11.dtd">
<svg width="100%" height="100%" viewBox="0 0 105 380" version="1.1" xmlns="http://www.w3.org/2000/svg" xmlns:xlink="http://www.w3.org/1999/xlink" xml:space="preserve" xmlns:serif="http://www.serif.com/" style="fill-rule:evenodd;clip-rule:evenodd;stroke-linejoin:round;stroke-miterlimit:2;">
    <g id="Layer-2" serif:id="Layer 2">
        <rect id="rect4689" x="0" y="0" width="105" height="380" style="fill:rgb(44,45,48);"/>
        <g id="text989">
        </g>
        <g id="text80" transform="matrix(1.00498,0,0,0.995047,7.49999,4.99997)">
            <path id="path4726" d="M29.851,371.706L29.851,363.943L31.853,363.943L32.903,366.668C32.96,366.829 33.024,367.013 33.094,367.221C33.168,367.429 33.249,367.668 33.336,367.94L33.552,368.624C33.475,367.95 33.416,367.373 33.376,366.894C33.336,366.415 33.316,366.013 33.316,365.687L33.316,363.943L35.317,363.943L35.317,371.706L33.316,371.706L32.26,368.85C32.149,368.545 32.049,368.26 31.958,367.995C31.871,367.727 31.794,367.472 31.727,367.231C31.77,367.777 31.802,368.253 31.822,368.659C31.843,369.065 31.853,369.42 31.853,369.725L31.853,371.706L29.851,371.706Z" style="fill:rgb(158,161,168);fill-rule:nonzero;"/>
            <path id="path4728" d="M39.887,371.706L37.791,371.706L37.791,368.418L35.865,363.943L38.052,363.943L38.429,365.094C38.503,365.319 38.568,365.535 38.625,365.743C38.686,365.951 38.739,366.15 38.786,366.341C38.863,366.056 38.93,365.811 38.987,365.607C39.044,365.399 39.095,365.232 39.138,365.104L39.52,363.943L41.692,363.943L39.887,368.418L39.887,371.706Z" style="fill:rgb(158,161,168);fill-rule:nonzero;"/>
            <path id="path4730" d="M41.894,371.515L41.894,369.076C42.306,369.639 42.752,369.921 43.231,369.921C43.412,369.921 43.56,369.874 43.673,369.78C43.787,369.683 43.844,369.562 43.844,369.418C43.844,369.21 43.72,369.008 43.472,368.81L43.13,368.543C42.902,368.372 42.708,368.203 42.547,368.035C42.386,367.865 42.256,367.69 42.155,367.513C42.054,367.332 41.981,367.146 41.934,366.954C41.887,366.763 41.863,366.562 41.863,366.351C41.863,365.989 41.947,365.61 42.115,365.215C42.199,365.03 42.296,364.863 42.406,364.712C42.517,364.558 42.644,364.422 42.789,364.305C43.184,363.969 43.662,363.802 44.222,363.802C44.721,363.802 45.224,363.934 45.73,364.199L45.73,366.572C45.559,366.308 45.365,366.1 45.147,365.949C44.929,365.795 44.714,365.718 44.503,365.718C44.342,365.718 44.21,365.765 44.106,365.858C43.999,365.949 43.945,366.058 43.945,366.185C43.945,366.393 44.087,366.599 44.372,366.804L44.704,367.05C45.147,367.368 45.463,367.695 45.655,368.03C45.849,368.366 45.946,368.758 45.946,369.207C45.946,369.971 45.713,370.601 45.247,371.098C44.781,371.594 44.191,371.842 43.477,371.842C42.985,371.842 42.457,371.733 41.894,371.515L41.894,371.515Z" style="fill:rgb(158,161,168);fill-rule:nonzero;"/>
            <path id="path4732" d="M49.576,371.706L47.48,371.706L47.48,365.803L46.323,365.803L46.323,363.943L50.778,363.943L50.778,365.803L49.576,365.803L49.576,371.706Z" style="fill:rgb(158,161,168);fill-rule:nonzero;"/>
            <path id="path4734" d="M56.525,371.706L54.428,371.706L54.428,368.584L53.428,368.584L53.428,371.706L51.331,371.706L51.331,363.943L53.428,363.943L53.428,366.688L54.428,366.688L54.428,363.943L56.525,363.943L56.525,371.706Z" style="fill:rgb(158,161,168);fill-rule:nonzero;"/>
            <rect id="path4736" x="57.606" y="363.943" width="2.097" height="7.763" style="fill:rgb(158,161,168);fill-rule:nonzero;"/>
        </g>
        <g id="text4987">
        </g>
        <g id="text1103" transform="matrix(1,0,0,1,-4,3.00001)">
            <path id="path1142" d="M17.578,40L14.211,40L13.969,38.469L11.773,38.469L11.508,40L8.141,40L11.039,27.938L15.023,27.938L17.578,40ZM13.586,35.883L13.375,34.477C13.37,34.471 13.359,34.401 13.344,34.266C13.333,34.151 13.279,33.698 13.18,32.906C13.169,32.818 13.156,32.698 13.141,32.547C13.125,32.391 13.104,32.195 13.078,31.961L12.977,30.82C12.966,30.93 12.951,31.052 12.93,31.188C12.914,31.323 12.896,31.471 12.875,31.633C12.839,31.956 12.813,32.18 12.797,32.305C12.781,32.43 12.771,32.505 12.766,32.531L12.539,33.992L12.211,35.883L13.586,35.883Z" style="fill:rgb(158,161,168);fill-rule:nonzero;"/>
            <rect id="path1144" x="21.207" y="29.948" width="1.354" height="10.052" style="fill:rgb(158,161,168);fill-rule:nonzero;"/>
            <path id="path1146" d="M24.124,29.948L25.387,29.948L26.734,33.958C27.125,35.091 27.47,36.3 27.77,37.585C27.661,36.808 27.581,36.105 27.529,35.475C27.477,34.846 27.451,34.253 27.451,33.698L27.451,29.948L28.811,29.948L28.811,40L27.542,40L26.025,35.475C25.886,35.054 25.753,34.622 25.628,34.18C25.506,33.737 25.393,33.273 25.289,32.786C25.28,32.726 25.265,32.652 25.243,32.565C25.226,32.478 25.204,32.378 25.178,32.266C25.191,32.378 25.202,32.476 25.211,32.559C25.22,32.637 25.226,32.704 25.23,32.76L25.302,33.783L25.374,35.026C25.378,35.095 25.38,35.18 25.38,35.28C25.385,35.38 25.387,35.493 25.387,35.618L25.458,40L24.124,40L24.124,29.948Z" style="fill:rgb(158,161,168);fill-rule:nonzero;"/>
        </g>
        <g id="text1109" transform="matrix(1,0,0,1,-4,3.00001)">
            <path id="path1129" d="M62.422,39.876L62.422,27.814L66.211,27.814C67.628,27.814 68.677,28.126 69.359,28.751C70.052,29.392 70.398,30.22 70.398,31.236C70.398,32.746 69.648,33.564 68.148,33.689C69.003,33.814 69.628,34.095 70.023,34.533C70.424,34.97 70.625,35.6 70.625,36.423C70.625,37.46 70.289,38.293 69.617,38.923C68.951,39.559 68.073,39.876 66.984,39.876L62.422,39.876ZM65.68,37.259C65.742,37.264 65.797,37.27 65.844,37.275L65.961,37.275C66.367,37.275 66.69,37.168 66.93,36.954C67.174,36.741 67.297,36.454 67.297,36.095C67.297,35.736 67.174,35.454 66.93,35.251C66.69,35.048 66.359,34.947 65.938,34.947L65.68,34.947L65.68,37.259ZM65.68,32.501L65.898,32.501C66.289,32.501 66.596,32.41 66.82,32.228C67.049,32.046 67.164,31.79 67.164,31.462C67.164,30.764 66.781,30.415 66.016,30.415C65.979,30.415 65.932,30.418 65.875,30.423C65.823,30.423 65.758,30.426 65.68,30.431L65.68,32.501Z" style="fill:rgb(158,161,168);fill-rule:nonzero;"/>
            <rect id="path1131" x="74.707" y="29.824" width="1.354" height="10.052" style="fill:rgb(158,161,168);fill-rule:nonzero;"/>
            <path id="path1133" d="M77.624,29.824L78.887,29.824L80.234,33.835C80.625,34.967 80.97,36.176 81.27,37.461C81.161,36.684 81.081,35.981 81.029,35.352C80.977,34.722 80.951,34.13 80.951,33.574L80.951,29.824L82.311,29.824L82.311,39.876L81.042,39.876L79.525,35.352C79.386,34.931 79.253,34.499 79.128,34.056C79.006,33.613 78.893,33.149 78.789,32.663C78.781,32.602 78.765,32.528 78.743,32.441C78.726,32.355 78.704,32.255 78.678,32.142C78.691,32.255 78.702,32.352 78.711,32.435C78.719,32.513 78.726,32.58 78.731,32.637L78.802,33.659L78.874,34.902C78.878,34.972 78.88,35.056 78.88,35.156C78.884,35.256 78.887,35.369 78.887,35.495L78.958,39.876L77.624,39.876L77.624,29.824Z" style="fill:rgb(158,161,168);fill-rule:nonzero;"/>
            <path id="path1135" d="M91.667,35.098C91.667,36.873 91.469,38.134 91.074,38.88C90.679,39.627 90.017,40 89.089,40C88.112,40 87.424,39.599 87.025,38.796C86.63,38.01 86.432,36.615 86.432,34.609C86.432,32.821 86.628,31.556 87.018,30.814C87.413,30.067 88.082,29.694 89.023,29.694C89.865,29.694 90.49,29.983 90.898,30.56C91.168,30.946 91.363,31.495 91.484,32.207C91.606,32.867 91.667,33.83 91.667,35.098L91.667,35.098ZM90.247,35.241C90.247,33.5 90.169,32.346 90.013,31.777C89.857,31.204 89.538,30.918 89.056,30.918C88.574,30.918 88.253,31.181 88.092,31.706C87.936,32.235 87.858,33.299 87.858,34.896C87.858,36.367 87.941,37.387 88.105,37.956C88.275,38.494 88.592,38.763 89.056,38.763C89.512,38.763 89.824,38.511 89.994,38.008C90.163,37.509 90.247,36.586 90.247,35.241L90.247,35.241Z" style="fill:rgb(158,161,168);fill-rule:nonzero;"/>
            <path id="path1137" d="M93.014,29.824L94.342,29.824L94.342,36.927C94.342,37.652 94.408,38.134 94.538,38.372C94.672,38.611 94.937,38.73 95.332,38.73C95.727,38.73 95.987,38.626 96.113,38.418C96.244,38.205 96.309,37.773 96.309,37.122L96.309,29.824L97.637,29.824L97.637,37.122C97.637,38.216 97.47,38.956 97.135,39.342C96.736,39.781 96.126,40 95.306,40C94.403,40 93.767,39.718 93.398,39.154C93.142,38.767 93.014,38.025 93.014,36.927L93.014,29.824Z" style="fill:rgb(158,161,168);fill-rule:nonzero;"/>
            <path id="path1139" d="M98.385,29.824L102.793,29.824L102.793,31.009L101.276,31.009L101.276,39.876L99.948,39.876L99.948,31.009L98.385,31.009L98.385,29.824Z" style="fill:rgb(158,161,168);fill-rule:nonzero;"/>
        </g>
        <g id="g1200" transform="matrix(1,0,0,1,-4,87)">
            <path id="path1193" d="M17.578,40L14.211,40L13.969,38.469L11.773,38.469L11.508,40L8.141,40L11.039,27.938L15.023,27.938L17.578,40ZM13.586,35.883L13.375,34.477C13.37,34.471 13.359,34.401 13.344,34.266C13.333,34.151 13.279,33.698 13.18,32.906C13.169,32.818 13.156,32.698 13.141,32.547C13.125,32.391 13.104,32.195 13.078,31.961L12.977,30.82C12.966,30.93 12.951,31.052 12.93,31.188C12.914,31.323 12.896,31.471 12.875,31.633C12.839,31.956 12.813,32.18 12.797,32.305C12.781,32.43 12.771,32.505 12.766,32.531L12.539,33.992L12.211,35.883L13.586,35.883Z" style="fill:rgb(158,161,168);fill-rule:nonzero;"/>
            <rect id="path1195" x="21.207" y="29.948" width="1.354" height="10.052" style="fill:rgb(158,161,168);fill-rule:nonzero;"/>
            <path id="path1198" d="M24.124,29.948L25.387,29.948L26.734,33.958C27.125,35.091 27.47,36.3 27.77,37.585C27.661,36.808 27.581,36.105 27.529,35.475C27.477,34.846 27.451,34.253 27.451,33.698L27.451,29.948L28.811,29.948L28.811,40L27.542,40L26.025,35.475C25.886,35.054 25.753,34.622 25.628,34.18C25.506,33.737 25.393,33.273 25.289,32.786C25.28,32.726 25.265,32.652 25.243,32.565C25.226,32.478 25.204,32.378 25.178,32.266C25.191,32.378 25.202,32.476 25.211,32.559C25.22,32.637 25.226,32.704 25.23,32.76L25.302,33.783L25.374,35.026C25.378,35.095 25.38,35.18 25.38,35.28C25.385,35.38 25.387,35.493 25.387,35.618L25.458,40L24.124,40L24.124,29.948Z" style="fill:rgb(158,161,168);fill-rule:nonzero;"/>
        </g>
        <g id="g1216" transform="matrix(1,0,0,1,-4,87)">
            <path id="path1202" d="M62.422,39.876L62.422,27.814L66.211,27.814C67.628,27.814 68.677,28.126 69.359,28.751C70.052,29.392 70.398,30.22 70.398,31.236C70.398,32.746 69.648,33.564 68.148,33.689C69.003,33.814 69.628,34.095 70.023,34.533C70.424,34.97 70.625,35.6 70.625,36.423C70.625,37.46 70.289,38.293 69.617,38.923C68.951,39.559 68.073,39.876 66.984,39.876L62.422,39.876ZM65.68,37.259C65.742,37.264 65.797,37.27 65.844,37.275L65.961,37.275C66.367,37.275 66.69,37.168 66.93,36.954C67.174,36.741 67.297,36.454 67.297,36.095C67.297,35.736 67.174,35.454 66.93,35.251C66.69,35.048 66.359,34.947 65.938,34.947L65.68,34.947L65.68,37.259ZM65.68,32.501L65.898,32.501C66.289,32.501 66.596,32.41 66.82,32.228C67.049,32.046 67.164,31.79 67.164,31.462C67.164,30.764 66.781,30.415 66.016,30.415C65.979,30.415 65.932,30.418 65.875,30.423C65.823,30.423 65.758,30.426 65.68,30.431L65.68,32.501Z" style="fill:rgb(158,161,168);fill-rule:nonzero;"/>
            <rect id="path1204" x="74.707" y="29.824" width="1.354" height="10.052" style="fill:rgb(158,161,168);fill-rule:nonzero;"/>
            <path id="path1207" d="M77.624,29.824L78.887,29.824L80.234,33.835C80.625,34.967 80.97,36.176 81.27,37.461C81.161,36.684 81.081,35.981 81.029,35.352C80.977,34.722 80.951,34.13 80.951,33.574L80.951,29.824L82.311,29.824L82.311,39.876L81.042,39.876L79.525,35.352C79.386,34.931 79.253,34.499 79.128,34.056C79.006,33.613 78.893,33.149 78.789,32.663C78.781,32.602 78.765,32.528 78.743,32.441C78.726,32.355 78.704,32.255 78.678,32.142C78.691,32.255 78.702,32.352 78.711,32.435C78.719,32.513 78.726,32.58 78.731,32.637L78.802,33.659L78.874,34.902C78.878,34.972 78.88,35.056 78.88,35.156C78.884,35.256 78.887,35.369 78.887,35.495L78.958,39.876L77.624,39.876L77.624,29.824Z" style="fill:rgb(158,161,168);fill-rule:nonzero;"/>
            <path id="path1209" d="M91.667,35.098C91.667,36.873 91.469,38.134 91.074,38.88C90.679,39.627 90.017,40 89.089,40C88.112,40 87.424,39.599 87.025,38.796C86.63,38.01 86.432,36.615 86.432,34.609C86.432,32.821 86.628,31.556 87.018,30.814C87.413,30.067 88.082,29.694 89.023,29.694C89.865,29.694 90.49,29.983 90.898,30.56C91.168,30.946 91.363,31.495 91.484,32.207C91.606,32.867 91.667,33.83 91.667,35.098L91.667,35.098ZM90.247,35.241C90.247,33.5 90.169,32.346 90.013,31.777C89.857,31.204 89.538,30.918 89.056,30.918C88.574,30.918 88.253,31.181 88.092,31.706C87.936,32.235 87.858,33.299 87.858,34.896C87.858,36.367 87.941,37.387 88.105,37.956C88.275,38.494 88.592,38.763 89.056,38.763C89.512,38.763 89.824,38.511 89.994,38.008C90.163,37.509 90.247,36.586 90.247,35.241L90.247,35.241Z" style="fill:rgb(158,161,168);fill-rule:nonzero;"/>
            <path id="path1211" d="M93.014,29.824L94.342,29.824L94.342,36.927C94.342,37.652 94.408,38.134 94.538,38.372C94.672,38.611 94.937,38.73 95.332,38.73C95.727,38.73 95.987,38.626 96.113,38.418C96.244,38.205 96.309,37.773 96.309,37.122L96.309,29.824L97.637,29.824L97.637,37.122C97.637,38.216 97.47,38.956 97.135,39.342C96.736,39.781 96.126,40 95.306,40C94.403,40 93.767,39.718 93.398,39.154C93.142,38.767 93.014,38.025 93.014,36.927L93.014,29.824Z" style="fill:rgb(158,161,168);fill-rule:nonzero;"/>
            <path id="path1214" d="M98.385,29.824L102.793,29.824L102.793,31.009L101.276,31.009L101.276,39.876L99.948,39.876L99.948,31.009L98.385,31.009L98.385,29.824Z" style="fill:rgb(158,161,168);fill-rule:nonzero;"/>
        </g>
        <g id="g1242" transform="matrix(1,0,0,1,-4,171)">
            <path id="path1236" d="M17.578,40L14.211,40L13.969,38.469L11.773,38.469L11.508,40L8.141,40L11.039,27.938L15.023,27.938L17.578,40ZM13.586,35.883L13.375,34.477C13.37,34.471 13.359,34.401 13.344,34.266C13.333,34.151 13.279,33.698 13.18,32.906C13.169,32.818 13.156,32.698 13.141,32.547C13.125,32.391 13.104,32.195 13.078,31.961L12.977,30.82C12.966,30.93 12.951,31.052 12.93,31.188C12.914,31.323 12.896,31.471 12.875,31.633C12.839,31.956 12.813,32.18 12.797,32.305C12.781,32.43 12.771,32.505 12.766,32.531L12.539,33.992L12.211,35.883L13.586,35.883Z" style="fill:rgb(158,161,168);fill-rule:nonzero;"/>
            <rect id="path1238" x="21.207" y="29.948" width="1.354" height="10.052" style="fill:rgb(158,161,168);fill-rule:nonzero;"/>
            <path id="path1240" d="M24.124,29.948L25.387,29.948L26.734,33.958C27.125,35.091 27.47,36.3 27.77,37.585C27.661,36.808 27.581,36.105 27.529,35.475C27.477,34.846 27.451,34.253 27.451,33.698L27.451,29.948L28.811,29.948L28.811,40L27.542,40L26.025,35.475C25.886,35.054 25.753,34.622 25.628,34.18C25.506,33.737 25.393,33.273 25.289,32.786C25.28,32.726 25.265,32.652 25.243,32.565C25.226,32.478 25.204,32.378 25.178,32.266C25.191,32.378 25.202,32.476 25.211,32.559C25.22,32.637 25.226,32.704 25.23,32.76L25.302,33.783L25.374,35.026C25.378,35.095 25.38,35.18 25.38,35.28C25.385,35.38 25.387,35.493 25.387,35.618L25.458,40L24.124,40L24.124,29.948Z" style="fill:rgb(158,161,168);fill-rule:nonzero;"/>
        </g>
        <g id="g1256" transform="matrix(1,0,0,1,-4,171)">
            <path id="path1244" d="M62.422,39.876L62.422,27.814L66.211,27.814C67.628,27.814 68.677,28.126 69.359,28.751C70.052,29.392 70.398,30.22 70.398,31.236C70.398,32.746 69.648,33.564 68.148,33.689C69.003,33.814 69.628,34.095 70.023,34.533C70.424,34.97 70.625,35.6 70.625,36.423C70.625,37.46 70.289,38.293 69.617,38.923C68.951,39.559 68.073,39.876 66.984,39.876L62.422,39.876ZM65.68,37.259C65.742,37.264 65.797,37.27 65.844,37.275L65.961,37.275C66.367,37.275 66.69,37.168 66.93,36.954C67.174,36.741 67.297,36.454 67.297,36.095C67.297,35.736 67.174,35.454 66.93,35.251C66.69,35.048 66.359,34.947 65.938,34.947L65.68,34.947L65.68,37.259ZM65.68,32.501L65.898,32.501C66.289,32.501 66.596,32.41 66.82,32.228C67.049,32.046 67.164,31.79 67.164,31.462C67.164,30.764 66.781,30.415 66.016,30.415C65.979,30.415 65.932,30.418 65.875,30.423C65.823,30.423 65.758,30.426 65.68,30.431L65.68,32.501Z" style="fill:rgb(158,161,168);fill-rule:nonzero;"/>
            <rect id="path1246" x="74.707" y="29.824" width="1.354" height="10.052" style="fill:rgb(158,161,168);fill-rule:nonzero;"/>
            <path id="path1248" d="M77.624,29.824L78.887,29.824L80.234,33.835C80.625,34.967 80.97,36.176 81.27,37.461C81.161,36.684 81.081,35.981 81.029,35.352C80.977,34.722 80.951,34.13 80.951,33.574L80.951,29.824L82.311,29.824L82.311,39.876L81.042,39.876L79.525,35.352C79.386,34.931 79.253,34.499 79.128,34.056C79.006,33.613 78.893,33.149 78.789,32.663C78.781,32.602 78.765,32.528 78.743,32.441C78.726,32.355 78.704,32.255 78.678,32.142C78.691,32.255 78.702,32.352 78.711,32.435C78.719,32.513 78.726,32.58 78.731,32.637L78.802,33.659L78.874,34.902C78.878,34.972 78.88,35.056 78.88,35.156C78.884,35.256 78.887,35.369 78.887,35.495L78.958,39.876L77.624,39.876L77.624,29.824Z" style="fill:rgb(158,161,168);fill-rule:nonzero;"/>
            <path id="path1250" d="M91.667,35.098C91.667,36.873 91.469,38.134 91.074,38.88C90.679,39.627 90.017,40 89.089,40C88.112,40 87.424,39.599 87.025,38.796C86.63,38.01 86.432,36.615 86.432,34.609C86.432,32.821 86.628,31.556 87.018,30.814C87.413,30.067 88.082,29.694 89.023,29.694C89.865,29.694 90.49,29.983 90.898,30.56C91.168,30.946 91.363,31.495 91.484,32.207C91.606,32.867 91.667,33.83 91.667,35.098L91.667,35.098ZM90.247,35.241C90.247,33.5 90.169,32.346 90.013,31.777C89.857,31.204 89.538,30.918 89.056,30.918C88.574,30.918 88.253,31.181 88.092,31.706C87.936,32.235 87.858,33.299 87.858,34.896C87.858,36.367 87.941,37.387 88.105,37.956C88.275,38.494 88.592,38.763 89.056,38.763C89.512,38.763 89.824,38.511 89.994,38.008C90.163,37.509 90.247,36.586 90.247,35.241L90.247,35.241Z" style="fill:rgb(158,161,168);fill-rule:nonzero;"/>
            <path id="path1252" d="M93.014,29.824L94.342,29.824L94.342,36.927C94.342,37.652 94.408,38.134 94.538,38.372C94.672,38.611 94.937,38.73 95.332,38.73C95.727,38.73 95.987,38.626 96.113,38.418C96.244,38.205 96.309,37.773 96.309,37.122L96.309,29.824L97.637,29.824L97.637,37.122C97.637,38.216 97.47,38.956 97.135,39.342C96.736,39.781 96.126,40 95.306,40C94.403,40 93.767,39.718 93.398,39.154C93.142,38.767 93.014,38.025 93.014,36.927L93.014,29.824Z" style="fill:rgb(158,161,168);fill-rule:nonzero;"/>
            <path id="path1254" d="M98.385,29.824L102.793,29.824L102.793,31.009L101.276,31.009L101.276,39.876L99.948,39.876L99.948,31.009L98.385,31.009L98.385,29.824Z" style="fill:rgb(158,161,168);fill-rule:nonzero;"/>
        </g>
        <g id="g1282" transform="matrix(1,0,0,1,-4,255)">
            <path id="path1276" d="M17.578,40L14.211,40L13.969,38.469L11.773,38.469L11.508,40L8.141,40L11.039,27.938L15.023,27.938L17.578,40ZM13.586,35.883L13.375,34.477C13.37,34.471 13.359,34.401 13.344,34.266C13.333,34.151 13.279,33.698 13.18,32.906C13.169,32.818 13.156,32.698 13.141,32.547C13.125,32.391 13.104,32.195 13.078,31.961L12.977,30.82C12.966,30.93 12.951,31.052 12.93,31.188C12.914,31.323 12.896,31.471 12.875,31.633C12.839,31.956 12.813,32.18 12.797,32.305C12.781,32.43 12.771,32.505 12.766,32.531L12.539,33.992L12.211,35.883L13.586,35.883Z" style="fill:rgb(158,161,168);fill-rule:nonzero;"/>
            <rect id="path1278" x="21.207" y="29.948" width="1.354" height="10.052" style="fill:rgb(158,161,168);fill-rule:nonzero;"/>
            <path id="path1280" d="M24.124,29.948L25.387,29.948L26.734,33.958C27.125,35.091 27.47,36.3 27.77,37.585C27.661,36.808 27.581,36.105 27.529,35.475C27.477,34.846 27.451,34.253 27.451,33.698L27.451,29.948L28.811,29.948L28.811,40L27.542,40L26.025,35.475C25.886,35.054 25.753,34.622 25.628,34.18C25.506,33.737 25.393,33.273 25.289,32.786C25.28,32.726 25.265,32.652 25.243,32.565C25.226,32.478 25.204,32.378 25.178,32.266C25.191,32.378 25.202,32.476 25.211,32.559C25.22,32.637 25.226,32.704 25.23,32.76L25.302,33.783L25.374,35.026C25.378,35.095 25.38,35.18 25.38,35.28C25.385,35.38 25.387,35.493 25.387,35.618L25.458,40L24.124,40L24.124,29.948Z" style="fill:rgb(158,161,168);fill-rule:nonzero;"/>
        </g>
        <g id="g1296" transform="matrix(1,0,0,1,-4,255)">
            <path id="path1284" d="M62.422,39.876L62.422,27.814L66.211,27.814C67.628,27.814 68.677,28.126 69.359,28.751C70.052,29.392 70.398,30.22 70.398,31.236C70.398,32.746 69.648,33.564 68.148,33.689C69.003,33.814 69.628,34.095 70.023,34.533C70.424,34.97 70.625,35.6 70.625,36.423C70.625,37.46 70.289,38.293 69.617,38.923C68.951,39.559 68.073,39.876 66.984,39.876L62.422,39.876ZM65.68,37.259C65.742,37.264 65.797,37.27 65.844,37.275L65.961,37.275C66.367,37.275 66.69,37.168 66.93,36.954C67.174,36.741 67.297,36.454 67.297,36.095C67.297,35.736 67.174,35.454 66.93,35.251C66.69,35.048 66.359,34.947 65.938,34.947L65.68,34.947L65.68,37.259ZM65.68,32.501L65.898,32.501C66.289,32.501 66.596,32.41 66.82,32.228C67.049,32.046 67.164,31.79 67.164,31.462C67.164,30.764 66.781,30.415 66.016,30.415C65.979,30.415 65.932,30.418 65.875,30.423C65.823,30.423 65.758,30.426 65.68,30.431L65.68,32.501Z" style="fill:rgb(158,161,168);fill-rule:nonzero;"/>
            <rect id="path1286" x="74.707" y="29.824" width="1.354" height="10.052" style="fill:rgb(158,161,168);fill-rule:nonzero;"/>
            <path id="path1288" d="M77.624,29.824L78.887,29.824L80.234,33.835C80.625,34.967 80.97,36.176 81.27,37.461C81.161,36.684 81.081,35.981 81.029,35.352C80.977,34.722 80.951,34.13 80.951,33.574L80.951,29.824L82.311,29.824L82.311,39.876L81.042,39.876L79.525,35.352C79.386,34.931 79.253,34.499 79.128,34.056C79.006,33.613 78.893,33.149 78.789,32.663C78.781,32.602 78.765,32.528 78.743,32.441C78.726,32.355 78.704,32.255 78.678,32.142C78.691,32.255 78.702,32.352 78.711,32.435C78.719,32.513 78.726,32.58 78.731,32.637L78.802,33.659L78.874,34.902C78.878,34.972 78.88,35.056 78.88,35.156C78.884,35.256 78.887,35.369 78.887,35.495L78.958,39.876L77.624,39.876L77.624,29.824Z" style="fill:rgb(158,161,168);fill-rule:nonzero;"/>
            <path id="path1290" d="M91.667,35.098C91.667,36.873 91.469,38.134 91.074,38.88C90.679,39.627 90.017,40 89.089,40C88.112,40 87.424,39.599 87.025,38.796C86.63,38.01 86.432,36.615 86.432,34.609C86.432,32.821 86.628,31.556 87.018,30.814C87.413,30.067 88.082,29.694 89.023,29.694C89.865,29.694 90.49,29.983 90.898,30.56C91.168,30.946 91.363,31.495 91.484,32.207C91.606,32.867 91.667,33.83 91.667,35.098L91.667,35.098ZM90.247,35.241C90.247,33.5 90.169,32.346 90.013,31.777C89.857,31.204 89.538,30.918 89.056,30.918C88.574,30.918 88.253,31.181 88.092,31.706C87.936,32.235 87.858,33.299 87.858,34.896C87.858,36.367 87.941,37.387 88.105,37.956C88.275,38.494 88.592,38.763 89.056,38.763C89.512,38.763 89.824,38.511 89.994,38.008C90.163,37.509 90.247,36.586 90.247,35.241L90.247,35.241Z" style="fill:rgb(158,161,168);fill-rule:nonzero;"/>
            <path id="path1292" d="M93.014,29.824L94.342,29.824L94.342,36.927C94.342,37.652 94.408,38.134 94.538,38.372C94.672,38.611 94.937,38.73 95.332,38.73C95.727,38.73 95.987,38.626 96.113,38.418C96.244,38.205 96.309,37.773 96.309,37.122L96.309,29.824L97.637,29.824L97.637,37.122C97.637,38.216 97.47,38.956 97.135,39.342C96.736,39.781 96.126,40 95.306,40C94.403,40 93.767,39.718 93.398,39.154C93.142,38.767 93.014,38.025 93.014,36.927L93.014,29.824Z" style="fill:rgb(158,161,168);fill-rule:nonzero;"/>
            <path id="path1294" d="M98.385,29.824L102.793,29.824L102.793,31.009L101.276,31.009L101.276,39.876L99.948,39.876L99.948,31.009L98.385,31.009L98.385,29.824Z" style="fill:rgb(158,161,168);fill-rule:nonzero;"/>
        </g>
        <g id="text1318" transform="matrix(0.852033,0,0,1.17366,0,0)">
            <path id="path1324" d="M9.978,11.438L9.791,14.902C9.072,15.192 8.427,15.337 7.858,15.337C6.517,15.337 5.388,14.845 4.472,13.861C3.447,12.758 2.934,11.197 2.934,9.178C2.934,7.289 3.416,5.772 4.379,4.627C5.342,3.488 6.628,2.919 8.238,2.919C8.761,2.919 9.294,3.017 9.838,3.214L9.838,6.639C9.357,6.157 8.862,5.917 8.355,5.917C7.692,5.917 7.174,6.199 6.802,6.763C6.429,7.333 6.242,8.119 6.242,9.124C6.242,9.611 6.289,10.045 6.382,10.429C6.475,10.812 6.607,11.135 6.778,11.399C6.954,11.663 7.169,11.865 7.423,12.005C7.677,12.145 7.966,12.215 8.293,12.215C8.852,12.215 9.414,11.956 9.978,11.438Z" style="fill:rgb(158,161,168);fill-rule:nonzero;"/>
            <path id="path1326" d="M20.066,9.17C20.066,10.998 19.649,12.484 18.815,13.628C17.987,14.767 16.908,15.337 15.577,15.337C14.397,15.337 13.385,14.899 12.541,14.024C11.479,12.916 10.949,11.254 10.949,9.038C10.949,6.916 11.503,5.293 12.61,4.169C13.434,3.336 14.41,2.919 15.538,2.919C16.921,2.919 18.021,3.483 18.839,4.612C19.657,5.74 20.066,7.26 20.066,9.17ZM16.703,9.194C16.703,7.024 16.32,5.94 15.554,5.94C15.171,5.94 14.865,6.225 14.637,6.794C14.415,7.322 14.303,8.099 14.303,9.124C14.303,10.133 14.407,10.918 14.614,11.477C14.826,12.031 15.119,12.308 15.492,12.308C15.875,12.308 16.17,12.033 16.377,11.485C16.594,10.936 16.703,10.172 16.703,9.194L16.703,9.194Z" style="fill:rgb(158,161,168);fill-rule:nonzero;"/>
            <path id="path1328" d="M21.44,15.127L21.44,3.136L24.531,3.136L26.154,7.345C26.242,7.594 26.341,7.879 26.449,8.2C26.563,8.521 26.688,8.891 26.822,9.31L27.156,10.366C27.037,9.326 26.946,8.435 26.884,7.695C26.822,6.955 26.791,6.333 26.791,5.831L26.791,3.136L29.882,3.136L29.882,15.127L26.791,15.127L25.16,10.716C24.989,10.245 24.834,9.805 24.694,9.396C24.56,8.981 24.441,8.588 24.337,8.215C24.404,9.059 24.454,9.794 24.485,10.421C24.516,11.047 24.531,11.596 24.531,12.067L24.531,15.127L21.44,15.127Z" style="fill:rgb(158,161,168);fill-rule:nonzero;"/>
            <path id="path1330" d="M31.311,14.832L31.311,11.065C31.948,11.935 32.636,12.37 33.377,12.37C33.656,12.37 33.884,12.298 34.06,12.153C34.236,12.002 34.324,11.816 34.324,11.593C34.324,11.272 34.132,10.959 33.749,10.654L33.221,10.242C32.869,9.978 32.569,9.717 32.32,9.458C32.072,9.194 31.87,8.925 31.715,8.65C31.559,8.371 31.445,8.083 31.373,7.788C31.3,7.493 31.264,7.182 31.264,6.856C31.264,6.297 31.394,5.712 31.653,5.101C31.782,4.816 31.932,4.557 32.103,4.325C32.274,4.086 32.471,3.877 32.693,3.695C33.304,3.178 34.042,2.919 34.906,2.919C35.678,2.919 36.454,3.123 37.236,3.532L37.236,7.198C36.972,6.789 36.672,6.468 36.335,6.235C35.999,5.997 35.668,5.878 35.341,5.878C35.093,5.878 34.888,5.95 34.728,6.095C34.562,6.235 34.479,6.403 34.479,6.6C34.479,6.921 34.699,7.239 35.139,7.555L35.652,7.936C36.335,8.428 36.825,8.932 37.12,9.45C37.42,9.968 37.57,10.573 37.57,11.267C37.57,12.448 37.21,13.421 36.491,14.187C35.771,14.953 34.86,15.337 33.757,15.337C32.996,15.337 32.181,15.168 31.311,14.832Z" style="fill:rgb(158,161,168);fill-rule:nonzero;"/>
            <path id="path1332" d="M43.177,15.127L39.939,15.127L39.939,6.01L38.153,6.01L38.153,3.136L45.033,3.136L45.033,6.01L43.177,6.01L43.177,15.127Z" style="fill:rgb(158,161,168);fill-rule:nonzero;"/>
            <path id="path1334" d="M59.307,15.127L55.96,15.127L55.719,13.605L53.537,13.605L53.273,15.127L49.926,15.127L52.807,3.136L56.768,3.136L59.307,15.127ZM55.339,11.034L55.129,9.636C55.124,9.631 55.113,9.561 55.098,9.427C55.088,9.313 55.033,8.862 54.935,8.075C54.925,7.987 54.912,7.868 54.896,7.718C54.88,7.563 54.86,7.369 54.834,7.136L54.733,6.002C54.723,6.111 54.707,6.232 54.686,6.367C54.671,6.502 54.653,6.649 54.632,6.81C54.596,7.131 54.57,7.353 54.554,7.477C54.539,7.602 54.528,7.677 54.523,7.703L54.298,9.155L53.972,11.034L55.339,11.034Z" style="fill:rgb(158,161,168);fill-rule:nonzero;"/>
            <path id="path1336" d="M60.239,15.127L60.239,3.136L63.035,3.136C64.634,3.136 65.88,3.566 66.77,4.425C67.94,5.549 68.525,7.12 68.525,9.139C68.525,11.127 68.031,12.663 67.042,13.745C66.198,14.666 64.94,15.127 63.268,15.127L60.239,15.127ZM63.477,12.23C64.637,12.173 65.217,11.174 65.217,9.233C65.217,8.275 65.069,7.519 64.774,6.965C64.479,6.406 64.08,6.126 63.578,6.126L63.477,6.126L63.477,12.23Z" style="fill:rgb(158,161,168);fill-rule:nonzero;"/>
            <path id="path1338" d="M69.9,15.127L69.9,3.136L72.695,3.136C74.295,3.136 75.54,3.566 76.431,4.425C77.601,5.549 78.186,7.12 78.186,9.139C78.186,11.127 77.692,12.663 76.703,13.745C75.859,14.666 74.601,15.127 72.928,15.127L69.9,15.127ZM73.138,12.23C74.298,12.173 74.878,11.174 74.878,9.233C74.878,8.275 74.73,7.519 74.435,6.965C74.14,6.406 73.741,6.126 73.239,6.126L73.138,6.126L73.138,12.23Z" style="fill:rgb(158,161,168);fill-rule:nonzero;"/>
            <path id="path1340" d="M96.684,15.127L93.298,15.127L93.058,9.66L92.957,7.477C92.92,7.897 92.879,8.298 92.832,8.681C92.786,9.059 92.729,9.427 92.662,9.784L91.644,15.127L89.004,15.127L88.134,9.776C88.082,9.466 88.012,8.932 87.924,8.176C87.914,8.063 87.891,7.83 87.855,7.477L87.777,9.691L87.489,15.127L84.041,15.127L85.439,3.136L89.47,3.136L90.145,7.175C90.202,7.506 90.252,7.866 90.293,8.254C90.34,8.642 90.381,9.064 90.417,9.52C90.485,8.759 90.578,8.078 90.697,7.477L91.52,3.136L95.52,3.136L96.684,15.127Z" style="fill:rgb(158,161,168);fill-rule:nonzero;"/>
            <path id="path1342" d="M103.029,3.136L106.268,3.136L106.268,11.617C106.268,12.326 106.156,12.901 105.934,13.341C105.716,13.802 105.354,14.218 104.846,14.591C104.163,15.088 103.332,15.337 102.354,15.337C101.246,15.337 100.316,15.062 99.566,14.513C98.613,13.814 98.137,12.696 98.137,11.159L98.137,3.136L101.375,3.136L101.375,10.871C101.375,11.394 101.437,11.764 101.561,11.982C101.691,12.199 101.906,12.308 102.206,12.308C102.517,12.308 102.731,12.207 102.85,12.005C102.97,11.793 103.029,11.417 103.029,10.879L103.029,3.136Z" style="fill:rgb(158,161,168);fill-rule:nonzero;"/>
            <path id="path1344" d="M113.622,15.127L107.953,15.127L107.953,3.136L111.191,3.136L111.191,12.246L113.622,12.246L113.622,15.127Z" style="fill:rgb(158,161,168);fill-rule:nonzero;"/>
            <path id="path1346" d="M118.444,15.127L115.206,15.127L115.206,6.01L113.42,6.01L113.42,3.136L120.301,3.136L120.301,6.01L118.444,6.01L118.444,15.127Z" style="fill:rgb(158,161,168);fill-rule:nonzero;"/>
        </g>
        <g id="text990" transform="matrix(1,0,0,1,0,0.492186)">
            <path id="path996" d="M3.75,93.958L4.594,93.958L6.318,102L5.245,102L4.943,100.432L3.349,100.432L3.042,102L2,102L3.75,93.958ZM4.786,99.594L4.547,98.313C4.387,97.441 4.257,96.51 4.156,95.521C4.108,96.003 4.045,96.493 3.969,96.99C3.892,97.483 3.802,98.007 3.698,98.563L3.5,99.594L4.786,99.594Z" style="fill:rgb(158,161,168);fill-rule:nonzero;"/>
            <path id="path998" d="M6.667,98.333L6.667,97.443L8.099,97.443L8.099,96.031L9,96.031L9,97.443L10.427,97.443L10.427,98.333L9,98.333L9,99.755L8.099,99.755L8.099,98.333L6.667,98.333Z" style="fill:rgb(158,161,168);fill-rule:nonzero;"/>
            <path id="path1000" d="M11.375,93.958L12.844,93.958C13.993,93.958 14.568,94.672 14.568,96.099C14.568,96.644 14.493,97.049 14.344,97.313C14.194,97.576 13.931,97.776 13.552,97.911C13.986,98.085 14.283,98.307 14.443,98.578C14.606,98.845 14.688,99.248 14.688,99.786C14.688,101.262 14.056,102 12.792,102L11.375,102L11.375,93.958ZM12.396,97.5C12.816,97.5 13.108,97.403 13.271,97.208C13.434,97.003 13.516,96.644 13.516,96.13C13.516,95.262 13.203,94.828 12.578,94.828L12.495,94.828L12.448,94.828C12.42,94.828 12.403,94.83 12.396,94.833L12.396,97.5ZM12.396,101.073C12.84,101.073 13.148,100.977 13.318,100.786C13.488,100.595 13.573,100.25 13.573,99.75C13.573,99.236 13.484,98.877 13.307,98.672C13.134,98.464 12.83,98.359 12.396,98.359L12.396,101.073Z" style="fill:rgb(158,161,168);fill-rule:nonzero;"/>
        </g>
        <g id="text1005" transform="matrix(1,0,0,1,-2,-0.104254)">
            <path id="path1018" d="M40.055,94.555L40.898,94.555L42.622,102.596L41.549,102.596L41.247,101.029L39.654,101.029L39.346,102.596L38.305,102.596L40.055,94.555ZM41.091,100.19L40.852,98.909C40.692,98.037 40.562,97.107 40.461,96.117C40.412,96.6 40.35,97.089 40.273,97.586C40.197,98.079 40.107,98.603 40.003,99.159L39.805,100.19L41.091,100.19Z" style="fill:rgb(158,161,168);fill-rule:nonzero;"/>
            <path id="path1020" d="M42.685,97.206L43.862,97.206L44.336,98.247C44.391,98.369 44.444,98.497 44.492,98.633C44.541,98.765 44.584,98.905 44.622,99.055C44.65,98.923 44.683,98.796 44.721,98.675C44.76,98.553 44.803,98.433 44.852,98.315L44.919,98.159L45.31,97.206L46.357,97.206L45.138,99.753L46.612,102.596L45.424,102.596L44.951,101.565C44.718,101.083 44.581,100.697 44.539,100.409C44.508,100.687 44.397,101.041 44.206,101.471L43.727,102.596L42.685,102.596L44.034,99.753L42.685,97.206Z" style="fill:rgb(158,161,168);fill-rule:nonzero;"/>
            <path id="path1022" d="M47.284,94.555L48.753,94.555C49.902,94.555 50.477,95.268 50.477,96.695C50.477,97.241 50.402,97.645 50.253,97.909C50.103,98.173 49.839,98.372 49.461,98.508C49.895,98.682 50.192,98.904 50.352,99.175C50.515,99.442 50.596,99.845 50.596,100.383C50.596,101.859 49.964,102.596 48.701,102.596L47.284,102.596L47.284,94.555ZM48.305,98.096C48.725,98.096 49.016,97.999 49.18,97.805C49.343,97.6 49.424,97.241 49.424,96.727C49.424,95.859 49.112,95.425 48.487,95.425L48.404,95.425L48.357,95.425C48.329,95.425 48.312,95.426 48.305,95.43L48.305,98.096ZM48.305,101.669C48.749,101.669 49.056,101.574 49.227,101.383C49.397,101.192 49.482,100.846 49.482,100.346C49.482,99.833 49.393,99.473 49.216,99.268C49.043,99.06 48.739,98.956 48.305,98.956L48.305,101.669Z" style="fill:rgb(158,161,168);fill-rule:nonzero;"/>
        </g>
        <g id="text1009" transform="matrix(1,0,0,1,-2,-0.104254)">
            <path id="path1011" d="M75.766,93.854L76.609,93.854L78.333,101.896L77.26,101.896L76.958,100.328L75.365,100.328L75.057,101.896L74.016,101.896L75.766,93.854ZM76.802,99.49L76.562,98.208C76.403,97.337 76.273,96.406 76.172,95.417C76.123,95.899 76.061,96.389 75.984,96.886C75.908,97.379 75.818,97.903 75.714,98.458L75.516,99.49L76.802,99.49Z" style="fill:rgb(158,161,168);fill-rule:nonzero;"/>
            <path id="path1013" d="M82.641,93.047L83.479,93.047L78.687,104.104L77.839,104.104L82.641,93.047Z" style="fill:rgb(158,161,168);fill-rule:nonzero;"/>
            <path id="path1015" d="M83.786,93.854L85.255,93.854C86.405,93.854 86.979,94.568 86.979,95.995C86.979,96.54 86.905,96.945 86.755,97.208C86.606,97.472 86.342,97.672 85.964,97.807C86.398,97.981 86.694,98.203 86.854,98.474C87.017,98.741 87.099,99.144 87.099,99.682C87.099,101.158 86.467,101.896 85.203,101.896L83.786,101.896L83.786,93.854ZM84.807,97.396C85.227,97.396 85.519,97.299 85.682,97.104C85.845,96.899 85.927,96.54 85.927,96.026C85.927,95.158 85.615,94.724 84.99,94.724L84.906,94.724L84.859,94.724C84.832,94.724 84.814,94.726 84.807,94.729L84.807,97.396ZM84.807,100.969C85.252,100.969 85.559,100.873 85.729,100.682C85.899,100.491 85.984,100.146 85.984,99.646C85.984,99.132 85.896,98.773 85.719,98.568C85.545,98.359 85.241,98.255 84.807,98.255L84.807,100.969Z" style="fill:rgb(158,161,168);fill-rule:nonzero;"/>
        </g>
        <g id="g1031" transform="matrix(1,0,0,1,0,84.4922)">
            <path id="path1025" d="M3.75,93.958L4.594,93.958L6.318,102L5.245,102L4.943,100.432L3.349,100.432L3.042,102L2,102L3.75,93.958ZM4.786,99.594L4.547,98.313C4.387,97.441 4.257,96.51 4.156,95.521C4.108,96.003 4.045,96.493 3.969,96.99C3.892,97.483 3.802,98.007 3.698,98.563L3.5,99.594L4.786,99.594Z" style="fill:rgb(158,161,168);fill-rule:nonzero;"/>
            <path id="path1027" d="M6.667,98.333L6.667,97.443L8.099,97.443L8.099,96.031L9,96.031L9,97.443L10.427,97.443L10.427,98.333L9,98.333L9,99.755L8.099,99.755L8.099,98.333L6.667,98.333Z" style="fill:rgb(158,161,168);fill-rule:nonzero;"/>
            <path id="path1029" d="M11.375,93.958L12.844,93.958C13.993,93.958 14.568,94.672 14.568,96.099C14.568,96.644 14.493,97.049 14.344,97.313C14.194,97.576 13.931,97.776 13.552,97.911C13.986,98.085 14.283,98.307 14.443,98.578C14.606,98.845 14.688,99.248 14.688,99.786C14.688,101.262 14.056,102 12.792,102L11.375,102L11.375,93.958ZM12.396,97.5C12.816,97.5 13.108,97.403 13.271,97.208C13.434,97.003 13.516,96.644 13.516,96.13C13.516,95.262 13.203,94.828 12.578,94.828L12.495,94.828L12.448,94.828C12.42,94.828 12.403,94.83 12.396,94.833L12.396,97.5ZM12.396,101.073C12.84,101.073 13.148,100.977 13.318,100.786C13.488,100.595 13.573,100.25 13.573,99.75C13.573,99.236 13.484,98.877 13.307,98.672C13.134,98.464 12.83,98.359 12.396,98.359L12.396,101.073Z" style="fill:rgb(158,161,168);fill-rule:nonzero;"/>
        </g>
        <g id="g1039" transform="matrix(1,0,0,1,-2,83.8958)">
            <path id="path1033" d="M40.055,94.555L40.898,94.555L42.622,102.596L41.549,102.596L41.247,101.029L39.654,101.029L39.346,102.596L38.305,102.596L40.055,94.555ZM41.091,100.19L40.852,98.909C40.692,98.037 40.562,97.107 40.461,96.117C40.412,96.6 40.35,97.089 40.273,97.586C40.197,98.079 40.107,98.603 40.003,99.159L39.805,100.19L41.091,100.19Z" style="fill:rgb(158,161,168);fill-rule:nonzero;"/>
            <path id="path1035" d="M42.685,97.206L43.862,97.206L44.336,98.247C44.391,98.369 44.444,98.497 44.492,98.633C44.541,98.765 44.584,98.905 44.622,99.055C44.65,98.923 44.683,98.796 44.721,98.675C44.76,98.553 44.803,98.433 44.852,98.315L44.919,98.159L45.31,97.206L46.357,97.206L45.138,99.753L46.612,102.596L45.424,102.596L44.951,101.565C44.718,101.083 44.581,100.697 44.539,100.409C44.508,100.687 44.397,101.041 44.206,101.471L43.727,102.596L42.685,102.596L44.034,99.753L42.685,97.206Z" style="fill:rgb(158,161,168);fill-rule:nonzero;"/>
            <path id="path1037" d="M47.284,94.555L48.753,94.555C49.902,94.555 50.477,95.268 50.477,96.695C50.477,97.241 50.402,97.645 50.253,97.909C50.103,98.173 49.839,98.372 49.461,98.508C49.895,98.682 50.192,98.904 50.352,99.175C50.515,99.442 50.596,99.845 50.596,100.383C50.596,101.859 49.964,102.596 48.701,102.596L47.284,102.596L47.284,94.555ZM48.305,98.096C48.725,98.096 49.016,97.999 49.18,97.805C49.343,97.6 49.424,97.241 49.424,96.727C49.424,95.859 49.112,95.425 48.487,95.425L48.404,95.425L48.357,95.425C48.329,95.425 48.312,95.426 48.305,95.43L48.305,98.096ZM48.305,101.669C48.749,101.669 49.056,101.574 49.227,101.383C49.397,101.192 49.482,100.846 49.482,100.346C49.482,99.833 49.393,99.473 49.216,99.268C49.043,99.06 48.739,98.956 48.305,98.956L48.305,101.669Z" style="fill:rgb(158,161,168);fill-rule:nonzero;"/>
        </g>
        <g id="g1047" transform="matrix(1,0,0,1,-2,83.8958)">
            <path id="path1041" d="M75.766,93.854L76.609,93.854L78.333,101.896L77.26,101.896L76.958,100.328L75.365,100.328L75.057,101.896L74.016,101.896L75.766,93.854ZM76.802,99.49L76.562,98.208C76.403,97.337 76.273,96.406 76.172,95.417C76.123,95.899 76.061,96.389 75.984,96.886C75.908,97.379 75.818,97.903 75.714,98.458L75.516,99.49L76.802,99.49Z" style="fill:rgb(158,161,168);fill-rule:nonzero;"/>
            <path id="path1043" d="M82.641,93.047L83.479,93.047L78.687,104.104L77.839,104.104L82.641,93.047Z" style="fill:rgb(158,161,168);fill-rule:nonzero;"/>
            <path id="path1045" d="M83.786,93.854L85.255,93.854C86.405,93.854 86.979,94.568 86.979,95.995C86.979,96.54 86.905,96.945 86.755,97.208C86.606,97.472 86.342,97.672 85.964,97.807C86.398,97.981 86.694,98.203 86.854,98.474C87.017,98.741 87.099,99.144 87.099,99.682C87.099,101.158 86.467,101.896 85.203,101.896L83.786,101.896L83.786,93.854ZM84.807,97.396C85.227,97.396 85.519,97.299 85.682,97.104C85.845,96.899 85.927,96.54 85.927,96.026C85.927,95.158 85.615,94.724 84.99,94.724L84.906,94.724L84.859,94.724C84.832,94.724 84.814,94.726 84.807,94.729L84.807,97.396ZM84.807,100.969C85.252,100.969 85.559,100.873 85.729,100.682C85.899,100.491 85.984,100.146 85.984,99.646C85.984,99.132 85.896,98.773 85.719,98.568C85.545,98.359 85.241,98.255 84.807,98.255L84.807,100.969Z" style="fill:rgb(158,161,168);fill-rule:nonzero;"/>
        </g>
        <g id="g1055" transform="matrix(1,0,0,1,0,168.492)">
            <path id="path1049" d="M3.75,93.958L4.594,93.958L6.318,102L5.245,102L4.943,100.432L3.349,100.432L3.042,102L2,102L3.75,93.958ZM4.786,99.594L4.547,98.313C4.387,97.441 4.257,96.51 4.156,95.521C4.108,96.003 4.045,96.493 3.969,96.99C3.892,97.483 3.802,98.007 3.698,98.563L3.5,99.594L4.786,99.594Z" style="fill:rgb(158,161,168);fill-rule:nonzero;"/>
            <path id="path1051" d="M6.667,98.333L6.667,97.443L8.099,97.443L8.099,96.031L9,96.031L9,97.443L10.427,97.443L10.427,98.333L9,98.333L9,99.755L8.099,99.755L8.099,98.333L6.667,98.333Z" style="fill:rgb(158,161,168);fill-rule:nonzero;"/>
            <path id="path1053" d="M11.375,93.958L12.844,93.958C13.993,93.958 14.568,94.672 14.568,96.099C14.568,96.644 14.493,97.049 14.344,97.313C14.194,97.576 13.931,97.776 13.552,97.911C13.986,98.085 14.283,98.307 14.443,98.578C14.606,98.845 14.688,99.248 14.688,99.786C14.688,101.262 14.056,102 12.792,102L11.375,102L11.375,93.958ZM12.396,97.5C12.816,97.5 13.108,97.403 13.271,97.208C13.434,97.003 13.516,96.644 13.516,96.13C13.516,95.262 13.203,94.828 12.578,94.828L12.495,94.828L12.448,94.828C12.42,94.828 12.403,94.83 12.396,94.833L12.396,97.5ZM12.396,101.073C12.84,101.073 13.148,100.977 13.318,100.786C13.488,100.595 13.573,100.25 13.573,99.75C13.573,99.236 13.484,98.877 13.307,98.672C13.134,98.464 12.83,98.359 12.396,98.359L12.396,101.073Z" style="fill:rgb(158,161,168);fill-rule:nonzero;"/>
        </g>
        <g id="g1063" transform="matrix(1,0,0,1,-2,167.896)">
            <path id="path1057" d="M40.055,94.555L40.898,94.555L42.622,102.596L41.549,102.596L41.247,101.029L39.654,101.029L39.346,102.596L38.305,102.596L40.055,94.555ZM41.091,100.19L40.852,98.909C40.692,98.037 40.562,97.107 40.461,96.117C40.412,96.6 40.35,97.089 40.273,97.586C40.197,98.079 40.107,98.603 40.003,99.159L39.805,100.19L41.091,100.19Z" style="fill:rgb(158,161,168);fill-rule:nonzero;"/>
            <path id="path1059" d="M42.685,97.206L43.862,97.206L44.336,98.247C44.391,98.369 44.444,98.497 44.492,98.633C44.541,98.765 44.584,98.905 44.622,99.055C44.65,98.923 44.683,98.796 44.721,98.675C44.76,98.553 44.803,98.433 44.852,98.315L44.919,98.159L45.31,97.206L46.357,97.206L45.138,99.753L46.612,102.596L45.424,102.596L44.951,101.565C44.718,101.083 44.581,100.697 44.539,100.409C44.508,100.687 44.397,101.041 44.206,101.471L43.727,102.596L42.685,102.596L44.034,99.753L42.685,97.206Z" style="fill:rgb(158,161,168);fill-rule:nonzero;"/>
            <path id="path1061" d="M47.284,94.555L48.753,94.555C49.902,94.555 50.477,95.268 50.477,96.695C50.477,97.241 50.402,97.645 50.253,97.909C50.103,98.173 49.839,98.372 49.461,98.508C49.895,98.682 50.192,98.904 50.352,99.175C50.515,99.442 50.596,99.845 50.596,100.383C50.596,101.859 49.964,102.596 48.701,102.596L47.284,102.596L47.284,94.555ZM48.305,98.096C48.725,98.096 49.016,97.999 49.18,97.805C49.343,97.6 49.424,97.241 49.424,96.727C49.424,95.859 49.112,95.425 48.487,95.425L48.404,95.425L48.357,95.425C48.329,95.425 48.312,95.426 48.305,95.43L48.305,98.096ZM48.305,101.669C48.749,101.669 49.056,101.574 49.227,101.383C49.397,101.192 49.482,100.846 49.482,100.346C49.482,99.833 49.393,99.473 49.216,99.268C49.043,99.06 48.739,98.956 48.305,98.956L48.305,101.669Z" style="fill:rgb(158,161,168);fill-rule:nonzero;"/>
        </g>
        <g id="g1071" transform="matrix(1,0,0,1,-2,167.896)">
            <path id="path1065" d="M75.766,93.854L76.609,93.854L78.333,101.896L77.26,101.896L76.958,100.328L75.365,100.328L75.057,101.896L74.016,101.896L75.766,93.854ZM76.802,99.49L76.562,98.208C76.403,97.337 76.273,96.406 76.172,95.417C76.123,95.899 76.061,96.389 75.984,96.886C75.908,97.379 75.818,97.903 75.714,98.458L75.516,99.49L76.802,99.49Z" style="fill:rgb(158,161,168);fill-rule:nonzero;"/>
            <path id="path1067" d="M82.641,93.047L83.479,93.047L78.687,104.104L77.839,104.104L82.641,93.047Z" style="fill:rgb(158,161,168);fill-rule:nonzero;"/>
            <path id="path1069" d="M83.786,93.854L85.255,93.854C86.405,93.854 86.979,94.568 86.979,95.995C86.979,96.54 86.905,96.945 86.755,97.208C86.606,97.472 86.342,97.672 85.964,97.807C86.398,97.981 86.694,98.203 86.854,98.474C87.017,98.741 87.099,99.144 87.099,99.682C87.099,101.158 86.467,101.896 85.203,101.896L83.786,101.896L83.786,93.854ZM84.807,97.396C85.227,97.396 85.519,97.299 85.682,97.104C85.845,96.899 85.927,96.54 85.927,96.026C85.927,95.158 85.615,94.724 84.99,94.724L84.906,94.724L84.859,94.724C84.832,94.724 84.814,94.726 84.807,94.729L84.807,97.396ZM84.807,100.969C85.252,100.969 85.559,100.873 85.729,100.682C85.899,100.491 85.984,100.146 85.984,99.646C85.984,99.132 85.896,98.773 85.719,98.568C85.545,98.359 85.241,98.255 84.807,98.255L84.807,100.969Z" style="fill:rgb(158,161,168);fill-rule:nonzero;"/>
        </g>
        <g id="g1079" transform="matrix(1,0,0,1,0,252.492)">
            <path id="path1073" d="M3.75,93.958L4.594,93.958L6.318,102L5.245,102L4.943,100.432L3.349,100.432L3.042,102L2,102L3.75,93.958ZM4.786,99.594L4.547,98.313C4.387,97.441 4.257,96.51 4.156,95.521C4.108,96.003 4.045,96.493 3.969,96.99C3.892,97.483 3.802,98.007 3.698,98.563L3.5,99.594L4.786,99.594Z" style="fill:rgb(158,161,168);fill-rule:nonzero;"/>
            <path id="path1075" d="M6.667,98.333L6.667,97.443L8.099,97.443L8.099,96.031L9,96.031L9,97.443L10.427,97.443L10.427,98.333L9,98.333L9,99.755L8.099,99.755L8.099,98.333L6.667,98.333Z" style="fill:rgb(158,161,168);fill-rule:nonzero;"/>
            <path id="path1077" d="M11.375,93.958L12.844,93.958C13.993,93.958 14.568,94.672 14.568,96.099C14.568,96.644 14.493,97.049 14.344,97.313C14.194,97.576 13.931,97.776 13.552,97.911C13.986,98.085 14.283,98.307 14.443,98.578C14.606,98.845 14.688,99.248 14.688,99.786C14.688,101.262 14.056,102 12.792,102L11.375,102L11.375,93.958ZM12.396,97.5C12.816,97.5 13.108,97.403 13.271,97.208C13.434,97.003 13.516,96.644 13.516,96.13C13.516,95.262 13.203,94.828 12.578,94.828L12.495,94.828L12.448,94.828C12.42,94.828 12.403,94.83 12.396,94.833L12.396,97.5ZM12.396,101.073C12.84,101.073 13.148,100.977 13.318,100.786C13.488,100.595 13.573,100.25 13.573,99.75C13.573,99.236 13.484,98.877 13.307,98.672C13.134,98.464 12.83,98.359 12.396,98.359L12.396,101.073Z" style="fill:rgb(158,161,168);fill-rule:nonzero;"/>
        </g>
        <g id="g1087" transform="matrix(1,0,0,1,-2,251.896)">
            <path id="path1081" d="M40.055,94.555L40.898,94.555L42.622,102.596L41.549,102.596L41.247,101.029L39.654,101.029L39.346,102.596L38.305,102.596L40.055,94.555ZM41.091,100.19L40.852,98.909C40.692,98.037 40.562,97.107 40.461,96.117C40.412,96.6 40.35,97.089 40.273,97.586C40.197,98.079 40.107,98.603 40.003,99.159L39.805,100.19L41.091,100.19Z" style="fill:rgb(158,161,168);fill-rule:nonzero;"/>
            <path id="path1083" d="M42.685,97.206L43.862,97.206L44.336,98.247C44.391,98.369 44.444,98.497 44.492,98.633C44.541,98.765 44.584,98.905 44.622,99.055C44.65,98.923 44.683,98.796 44.721,98.675C44.76,98.553 44.803,98.433 44.852,98.315L44.919,98.159L45.31,97.206L46.357,97.206L45.138,99.753L46.612,102.596L45.424,102.596L44.951,101.565C44.718,101.083 44.581,100.697 44.539,100.409C44.508,100.687 44.397,101.041 44.206,101.471L43.727,102.596L42.685,102.596L44.034,99.753L42.685,97.206Z" style="fill:rgb(158,161,168);fill-rule:nonzero;"/>
            <path id="path1085" d="M47.284,94.555L48.753,94.555C49.902,94.555 50.477,95.268 50.477,96.695C50.477,97.241 50.402,97.645 50.253,97.909C50.103,98.173 49.839,98.372 49.461,98.508C49.895,98.682 50.192,98.904 50.352,99.175C50.515,99.442 50.596,99.845 50.596,100.383C50.596,101.859 49.964,102.596 48.701,102.596L47.284,102.596L47.284,94.555ZM48.305,98.096C48.725,98.096 49.016,97.999 49.18,97.805C49.343,97.6 49.424,97.241 49.424,96.727C49.424,95.859 49.112,95.425 48.487,95.425L48.404,95.425L48.357,95.425C48.329,95.425 48.312,95.426 48.305,95.43L48.305,98.096ZM48.305,101.669C48.749,101.669 49.056,101.574 49.227,101.383C49.397,101.192 49.482,100.846 49.482,100.346C49.482,99.833 49.393,99.473 49.216,99.268C49.043,99.06 48.739,98.956 48.305,98.956L48.305,101.669Z" style="fill:rgb(158,161,168);fill-rule:nonzero;"/>
        </g>
        <g id="g1095" transform="matrix(1,0,0,1,-2,251.896)">
            <path id="path1089" d="M75.766,93.854L76.609,93.854L78.333,101.896L77.26,101.896L76.958,100.328L75.365,100.328L75.057,101.896L74.016,101.896L75.766,93.854ZM76.802,99.49L76.562,98.208C76.403,97.337 76.273,96.406 76.172,95.417C76.123,95.899 76.061,96.389 75.984,96.886C75.908,97.379 75.818,97.903 75.714,98.458L75.516,99.49L76.802,99.49Z" style="fill:rgb(158,161,168);fill-rule:nonzero;"/>
            <path id="path1091" d="M82.641,93.047L83.479,93.047L78.687,104.104L77.839,104.104L82.641,93.047Z" style="fill:rgb(158,161,168);fill-rule:nonzero;"/>
            <path id="path1093" d="M83.786,93.854L85.255,93.854C86.405,93.854 86.979,94.568 86.979,95.995C86.979,96.54 86.905,96.945 86.755,97.208C86.606,97.472 86.342,97.672 85.964,97.807C86.398,97.981 86.694,98.203 86.854,98.474C87.017,98.741 87.099,99.144 87.099,99.682C87.099,101.158 86.467,101.896 85.203,101.896L83.786,101.896L83.786,93.854ZM84.807,97.396C85.227,97.396 85.519,97.299 85.682,97.104C85.845,96.899 85.927,96.54 85.927,96.026C85.927,95.158 85.615,94.724 84.99,94.724L84.906,94.724L84.859,94.724C84.832,94.724 84.814,94.726 84.807,94.729L84.807,97.396ZM84.807,100.969C85.252,100.969 85.559,100.873 85.729,100.682C85.899,100.491 85.984,100.146 85.984,99.646C85.984,99.132 85.896,98.773 85.719,98.568C85.545,98.359 85.241,98.255 84.807,98.255L84.807,100.969Z" style="fill:rgb(158,161,168);fill-rule:nonzero;"/>
        </g>
    </g>
</svg>
