<?xml version="1.0" encoding="UTF-8" standalone="no"?>
<!DOCTYPE svg PUBLIC "-//W3C//DTD SVG 1.1//EN" "http://www.w3.org/Graphics/SVG/1.1/DTD/svg11.dtd">
<svg width="100%" height="100%" viewBox="0 0 105 380" version="1.1" xmlns="http://www.w3.org/2000/svg" xmlns:xlink="http://www.w3.org/1999/xlink" xml:space="preserve" xmlns:serif="http://www.serif.com/" style="fill-rule:evenodd;clip-rule:evenodd;stroke-linejoin:round;stroke-miterlimit:2;">
    <g id="Layer-2" serif:id="Layer 2">
        <g id="text989">
        </g>
        <rect id="rect4689" x="0.041" y="0" width="105" height="380" style="fill:rgb(44,45,48);"/>
        <g id="text80" transform="matrix(1.00498,0,0,0.995047,7.49999,4.99997)">
            <path id="path4726" d="M29.851,371.706L29.851,363.943L31.853,363.943L32.903,366.668C32.96,366.829 33.024,367.013 33.094,367.221C33.168,367.429 33.249,367.668 33.336,367.94L33.552,368.624C33.475,367.95 33.416,367.373 33.376,366.894C33.336,366.415 33.316,366.013 33.316,365.687L33.316,363.943L35.317,363.943L35.317,371.706L33.316,371.706L32.26,368.85C32.149,368.545 32.049,368.26 31.958,367.995C31.871,367.727 31.794,367.472 31.727,367.231C31.77,367.777 31.802,368.253 31.822,368.659C31.843,369.065 31.853,369.42 31.853,369.725L31.853,371.706L29.851,371.706Z" style="fill:rgb(158,161,168);fill-rule:nonzero;"/>
            <path id="path4728" d="M39.887,371.706L37.791,371.706L37.791,368.418L35.865,363.943L38.052,363.943L38.429,365.094C38.503,365.319 38.568,365.535 38.625,365.743C38.686,365.951 38.739,366.15 38.786,366.341C38.863,366.056 38.93,365.811 38.987,365.607C39.044,365.399 39.095,365.232 39.138,365.104L39.52,363.943L41.692,363.943L39.887,368.418L39.887,371.706Z" style="fill:rgb(158,161,168);fill-rule:nonzero;"/>
            <path id="path4730" d="M41.894,371.515L41.894,369.076C42.306,369.639 42.752,369.921 43.231,369.921C43.412,369.921 43.56,369.874 43.673,369.78C43.787,369.683 43.844,369.562 43.844,369.418C43.844,369.21 43.72,369.008 43.472,368.81L43.13,368.543C42.902,368.372 42.708,368.203 42.547,368.035C42.386,367.865 42.256,367.69 42.155,367.513C42.054,367.332 41.981,367.146 41.934,366.954C41.887,366.763 41.863,366.562 41.863,366.351C41.863,365.989 41.947,365.61 42.115,365.215C42.199,365.03 42.296,364.863 42.406,364.712C42.517,364.558 42.644,364.422 42.789,364.305C43.184,363.969 43.662,363.802 44.222,363.802C44.721,363.802 45.224,363.934 45.73,364.199L45.73,366.572C45.559,366.308 45.365,366.1 45.147,365.949C44.929,365.795 44.714,365.718 44.503,365.718C44.342,365.718 44.21,365.765 44.106,365.858C43.999,365.949 43.945,366.058 43.945,366.185C43.945,366.393 44.087,366.599 44.372,366.804L44.704,367.05C45.147,367.368 45.463,367.695 45.655,368.03C45.849,368.366 45.946,368.758 45.946,369.207C45.946,369.971 45.713,370.601 45.247,371.098C44.781,371.594 44.191,371.842 43.477,371.842C42.985,371.842 42.457,371.733 41.894,371.515L41.894,371.515Z" style="fill:rgb(158,161,168);fill-rule:nonzero;"/>
            <path id="path4732" d="M49.576,371.706L47.48,371.706L47.48,365.803L46.323,365.803L46.323,363.943L50.778,363.943L50.778,365.803L49.576,365.803L49.576,371.706Z" style="fill:rgb(158,161,168);fill-rule:nonzero;"/>
            <path id="path4734" d="M56.525,371.706L54.428,371.706L54.428,368.584L53.428,368.584L53.428,371.706L51.331,371.706L51.331,363.943L53.428,363.943L53.428,366.688L54.428,366.688L54.428,363.943L56.525,363.943L56.525,371.706Z" style="fill:rgb(158,161,168);fill-rule:nonzero;"/>
            <rect id="path4736" x="57.606" y="363.943" width="2.097" height="7.763" style="fill:rgb(158,161,168);fill-rule:nonzero;"/>
        </g>
        <rect id="rect4778" x="2" y="322" width="101" height="42" style="fill:rgb(158,161,168);"/>
        <g id="text4987">
        </g>
        <g id="text1042">
        </g>
        <g id="text1016">
            <path id="path1051" d="M18.904,17.789L18.904,5.727L21.716,5.727C23.326,5.727 24.578,6.159 25.474,7.023C26.651,8.154 27.24,9.734 27.24,11.766C27.24,13.766 26.742,15.31 25.748,16.398C24.899,17.326 23.633,17.789 21.951,17.789L18.904,17.789ZM22.162,14.875C23.328,14.818 23.912,13.812 23.912,11.859C23.912,10.896 23.763,10.135 23.466,9.578C23.169,9.016 22.768,8.734 22.263,8.734L22.162,8.734L22.162,14.875Z" style="fill:rgb(158,161,168);fill-rule:nonzero;"/>
            <path id="path1053" d="M28.623,17.789L28.623,5.727L34.677,5.727L34.677,8.562L31.88,8.562L31.88,10.32L34.388,10.32L34.388,13.047L31.88,13.047L31.88,14.891L34.677,14.891L34.677,17.789L28.623,17.789Z" style="fill:rgb(158,161,168);fill-rule:nonzero;"/>
            <path id="path1055" d="M36.06,17.789L36.06,5.727L42.115,5.727L42.115,8.562L39.318,8.562L39.318,10.32L41.826,10.32L41.826,13.047L39.318,13.047L39.318,14.891L42.115,14.891L42.115,17.789L36.06,17.789Z" style="fill:rgb(158,161,168);fill-rule:nonzero;"/>
            <path id="path1057" d="M46.755,17.789L43.498,17.789L43.498,5.727L46.654,5.727C48.227,5.727 49.393,6.047 50.154,6.687C51.05,7.443 51.498,8.492 51.498,9.836C51.498,11.299 51.021,12.391 50.068,13.109C49.417,13.594 48.482,13.836 47.263,13.836L46.755,13.836L46.755,17.789ZM46.755,11.125L46.904,11.133C47.3,11.133 47.615,11.013 47.849,10.773C48.084,10.529 48.201,10.195 48.201,9.773C48.201,9.357 48.086,9.018 47.857,8.758C47.628,8.492 47.336,8.359 46.982,8.359L46.755,8.359L46.755,11.125Z" style="fill:rgb(158,161,168);fill-rule:nonzero;"/>
            <path id="path1059" d="M52.654,17.789L52.654,5.727L55.763,5.727L57.396,9.961C57.485,10.211 57.584,10.497 57.693,10.82C57.808,11.143 57.933,11.516 58.068,11.937L58.404,13C58.284,11.953 58.193,11.057 58.13,10.312C58.068,9.568 58.037,8.943 58.037,8.437L58.037,5.727L61.146,5.727L61.146,17.789L58.037,17.789L56.396,13.352C56.224,12.878 56.068,12.435 55.927,12.023C55.792,11.607 55.672,11.211 55.568,10.836C55.636,11.685 55.685,12.424 55.716,13.055C55.748,13.685 55.763,14.237 55.763,14.711L55.763,17.789L52.654,17.789Z" style="fill:rgb(158,161,168);fill-rule:nonzero;"/>
            <path id="path1061" d="M71.834,11.797C71.834,13.635 71.414,15.13 70.576,16.281C69.742,17.427 68.656,18 67.318,18C66.13,18 65.112,17.56 64.263,16.68C63.196,15.565 62.662,13.893 62.662,11.664C62.662,9.529 63.219,7.896 64.334,6.766C65.162,5.927 66.143,5.508 67.279,5.508C68.669,5.508 69.776,6.076 70.599,7.211C71.422,8.346 71.834,9.875 71.834,11.797ZM68.451,11.82C68.451,9.638 68.065,8.547 67.294,8.547C66.909,8.547 66.602,8.833 66.373,9.406C66.149,9.937 66.037,10.719 66.037,11.75C66.037,12.766 66.141,13.555 66.349,14.117C66.563,14.674 66.857,14.953 67.232,14.953C67.617,14.953 67.914,14.677 68.123,14.125C68.341,13.573 68.451,12.805 68.451,11.82L68.451,11.82Z" style="fill:rgb(158,161,168);fill-rule:nonzero;"/>
            <path id="path1063" d="M77.521,17.789L74.263,17.789L74.263,8.617L72.466,8.617L72.466,5.727L79.388,5.727L79.388,8.617L77.521,8.617L77.521,17.789Z" style="fill:rgb(158,161,168);fill-rule:nonzero;"/>
            <path id="path1065" d="M80.248,17.789L80.248,5.727L86.302,5.727L86.302,8.562L83.505,8.562L83.505,10.32L86.013,10.32L86.013,13.047L83.505,13.047L83.505,14.891L86.302,14.891L86.302,17.789L80.248,17.789Z" style="fill:rgb(158,161,168);fill-rule:nonzero;"/>
        </g>
        <g id="text1024" transform="matrix(1,0,0,1,0,10)">
            <path id="path1132" d="M44.833,117.958L48.359,117.958L48.359,118.906L47.145,118.906L47.145,126L46.083,126L46.083,118.906L44.833,118.906L44.833,117.958Z" style="fill:rgb(158,161,168);fill-rule:nonzero;"/>
            <rect id="path1134" x="48.953" y="117.958" width="1.083" height="8.042" style="fill:rgb(158,161,168);fill-rule:nonzero;"/>
            <path id="path1136" d="M51.666,117.958L52.593,117.958L53.302,121.24C53.388,121.649 53.466,122.061 53.536,122.474C53.609,122.884 53.675,123.314 53.734,123.766C53.741,123.707 53.746,123.661 53.749,123.63C53.753,123.595 53.756,123.571 53.76,123.557L53.911,122.635L54.046,121.76L54.166,121.182L54.796,117.958L55.734,117.958L56.473,126L55.437,126L55.255,123.271C55.248,123.132 55.241,123.012 55.234,122.911C55.23,122.811 55.229,122.727 55.229,122.661L55.182,121.583L55.156,120.594C55.156,120.587 55.154,120.573 55.15,120.552C55.15,120.528 55.149,120.497 55.145,120.458L55.119,120.62C55.091,120.811 55.065,120.977 55.041,121.12C55.02,121.262 55.001,121.382 54.984,121.479L54.848,122.214L54.796,122.49L54.119,126L53.39,126L52.754,122.969C52.668,122.569 52.589,122.165 52.52,121.755C52.454,121.342 52.393,120.91 52.338,120.458L52.025,126L51.004,126L51.666,117.958Z" style="fill:rgb(158,161,168);fill-rule:nonzero;"/>
            <path id="path1138" d="M57.369,117.958L60.249,117.958L60.249,118.875L58.453,118.875L58.453,121.422L60.046,121.422L60.046,122.339L58.453,122.339L58.453,125.083L60.249,125.083L60.249,126L57.369,126L57.369,117.958Z" style="fill:rgb(158,161,168);fill-rule:nonzero;"/>
        </g>
        <g id="text1028" transform="matrix(1,0,0,1,-6,0)">
            <path id="path1121" d="M45.703,48.026L45.703,49.083C45.373,48.847 45.076,48.729 44.812,48.729C44.527,48.729 44.295,48.83 44.114,49.031C43.933,49.222 43.843,49.477 43.843,49.797C43.843,50.078 43.907,50.319 44.036,50.521C44.102,50.628 44.21,50.767 44.359,50.938C44.512,51.108 44.708,51.312 44.947,51.552C45.388,52 45.689,52.387 45.848,52.714C46.008,53.03 46.088,53.417 46.088,53.875C46.088,54.497 45.913,55.009 45.562,55.411C45.211,55.804 44.762,56 44.213,56C43.751,56 43.357,55.873 43.031,55.62L43.031,54.547C43.416,54.828 43.767,54.969 44.083,54.969C44.378,54.969 44.609,54.872 44.776,54.677C44.942,54.479 45.026,54.212 45.026,53.875C45.026,53.583 44.961,53.321 44.833,53.089C44.767,52.977 44.675,52.851 44.557,52.708C44.439,52.562 44.291,52.401 44.114,52.224C43.84,51.953 43.612,51.714 43.432,51.505C43.251,51.297 43.118,51.115 43.031,50.958C42.864,50.653 42.781,50.267 42.781,49.802C42.781,49.174 42.944,48.675 43.27,48.307C43.6,47.936 44.043,47.75 44.598,47.75C44.984,47.75 45.352,47.842 45.703,48.026L45.703,48.026Z" style="fill:rgb(158,161,168);fill-rule:nonzero;"/>
            <path id="path1123" d="M46.484,47.859L50.01,47.859L50.01,48.807L48.796,48.807L48.796,55.901L47.734,55.901L47.734,48.807L46.484,48.807L46.484,47.859Z" style="fill:rgb(158,161,168);fill-rule:nonzero;"/>
            <path id="path1125" d="M51.604,47.859L52.447,47.859L54.171,55.901L53.098,55.901L52.796,54.333L51.203,54.333L50.895,55.901L49.854,55.901L51.604,47.859ZM52.64,53.495L52.4,52.214C52.241,51.342 52.111,50.411 52.01,49.422C51.961,49.905 51.899,50.394 51.822,50.891C51.746,51.384 51.656,51.908 51.552,52.464L51.354,53.495L52.64,53.495Z" style="fill:rgb(158,161,168);fill-rule:nonzero;"/>
            <path id="path1127" d="M54.812,47.859L56.239,47.859C56.829,47.859 57.269,48 57.557,48.281C57.921,48.646 58.104,49.203 58.104,49.953C58.104,50.53 58.006,50.993 57.812,51.344C57.621,51.691 57.347,51.906 56.989,51.99L58.468,55.901L57.369,55.901L55.895,51.964L55.895,55.901L54.812,55.901L54.812,47.859ZM55.895,51.422C56.315,51.422 56.612,51.325 56.786,51.13C56.96,50.936 57.046,50.608 57.046,50.146C57.046,49.896 57.027,49.682 56.989,49.505C56.954,49.328 56.897,49.184 56.817,49.073C56.741,48.962 56.64,48.88 56.515,48.828C56.394,48.776 56.248,48.75 56.078,48.75L55.895,48.75L55.895,51.422Z" style="fill:rgb(158,161,168);fill-rule:nonzero;"/>
            <path id="path1129" d="M58.775,47.859L62.302,47.859L62.302,48.807L61.088,48.807L61.088,55.901L60.025,55.901L60.025,48.807L58.775,48.807L58.775,47.859Z" style="fill:rgb(158,161,168);fill-rule:nonzero;"/>
        </g>
        <g id="text1032">
            <path id="path1110" d="M41.811,167.349L44.707,167.349L44.707,168.266L42.895,168.266L42.895,170.807L44.53,170.807L44.53,171.724L42.895,171.724L42.895,175.391L41.811,175.391L41.811,167.349Z" style="fill:rgb(158,161,168);fill-rule:nonzero;"/>
            <path id="path1112" d="M45.541,167.349L46.968,167.349C47.558,167.349 47.997,167.49 48.285,167.771C48.65,168.135 48.832,168.693 48.832,169.443C48.832,170.019 48.735,170.483 48.541,170.833C48.35,171.181 48.075,171.396 47.718,171.479L49.197,175.391L48.098,175.391L46.624,171.453L46.624,175.391L45.541,175.391L45.541,167.349ZM46.624,170.911C47.044,170.911 47.341,170.814 47.515,170.62C47.688,170.425 47.775,170.097 47.775,169.635C47.775,169.385 47.756,169.172 47.718,168.995C47.683,168.818 47.626,168.674 47.546,168.563C47.469,168.451 47.369,168.37 47.244,168.318C47.122,168.266 46.976,168.24 46.806,168.24L46.624,168.24L46.624,170.911Z" style="fill:rgb(158,161,168);fill-rule:nonzero;"/>
            <path id="path1114" d="M50.041,167.349L52.921,167.349L52.921,168.266L51.124,168.266L51.124,170.812L52.718,170.812L52.718,171.729L51.124,171.729L51.124,174.474L52.921,174.474L52.921,175.391L50.041,175.391L50.041,167.349Z" style="fill:rgb(158,161,168);fill-rule:nonzero;"/>
            <path id="path1116" d="M58.171,175.51L57.488,176L56.936,175.214C56.607,175.398 56.258,175.49 55.89,175.49C55.108,175.49 54.556,175.16 54.233,174.5C53.914,173.819 53.754,172.681 53.754,171.083C53.754,169.688 53.91,168.7 54.223,168.12C54.535,167.536 55.065,167.245 55.811,167.245C56.596,167.245 57.148,167.566 57.468,168.208C57.784,168.837 57.942,169.951 57.942,171.552C57.942,173 57.791,174.005 57.488,174.568L58.171,175.51ZM56.254,172.839L56.702,173.474C56.775,172.96 56.811,172.38 56.811,171.734C56.811,170.352 56.745,169.418 56.614,168.932C56.482,168.464 56.219,168.229 55.827,168.229C55.459,168.229 55.211,168.429 55.082,168.828C54.954,169.21 54.89,169.981 54.89,171.141C54.89,172.443 54.956,173.332 55.087,173.807C55.219,174.262 55.476,174.49 55.858,174.49C56.011,174.49 56.157,174.441 56.296,174.344L55.608,173.354L56.254,172.839Z" style="fill:rgb(158,161,168);fill-rule:nonzero;"/>
            <path id="path1118" d="M61.561,167.349L63.395,167.349L63.395,175.391L62.358,175.391L62.358,168.271L61.561,168.271L61.561,167.349Z" style="fill:rgb(158,161,168);fill-rule:nonzero;"/>
        </g>
        <g id="text1036" transform="matrix(1,0,0,1,0,-10)">
            <path id="path1099" d="M41.197,217.349L44.093,217.349L44.093,218.266L42.28,218.266L42.28,220.807L43.916,220.807L43.916,221.724L42.28,221.724L42.28,225.391L41.197,225.391L41.197,217.349Z" style="fill:rgb(158,161,168);fill-rule:nonzero;"/>
            <path id="path1101" d="M44.926,217.349L46.353,217.349C46.943,217.349 47.383,217.49 47.671,217.771C48.035,218.135 48.218,218.693 48.218,219.443C48.218,220.019 48.12,220.483 47.926,220.833C47.735,221.181 47.461,221.396 47.103,221.479L48.582,225.391L47.483,225.391L46.009,221.453L46.009,225.391L44.926,225.391L44.926,217.349ZM46.009,220.911C46.429,220.911 46.726,220.814 46.9,220.62C47.074,220.425 47.16,220.097 47.16,219.635C47.16,219.385 47.141,219.172 47.103,218.995C47.068,218.818 47.011,218.674 46.931,218.563C46.855,218.451 46.754,218.37 46.629,218.318C46.508,218.266 46.362,218.24 46.192,218.24L46.009,218.24L46.009,220.911Z" style="fill:rgb(158,161,168);fill-rule:nonzero;"/>
            <path id="path1103" d="M49.426,217.349L52.306,217.349L52.306,218.266L50.509,218.266L50.509,220.813L52.103,220.813L52.103,221.729L50.509,221.729L50.509,224.474L52.306,224.474L52.306,225.391L49.426,225.391L49.426,217.349Z" style="fill:rgb(158,161,168);fill-rule:nonzero;"/>
            <path id="path1105" d="M57.556,225.51L56.874,226L56.322,225.214C55.992,225.398 55.643,225.49 55.275,225.49C54.494,225.49 53.942,225.16 53.619,224.5C53.299,223.819 53.14,222.681 53.14,221.083C53.14,219.688 53.296,218.7 53.608,218.12C53.921,217.536 54.45,217.245 55.197,217.245C55.982,217.245 56.534,217.566 56.853,218.208C57.169,218.837 57.327,219.951 57.327,221.552C57.327,223 57.176,224.005 56.874,224.568L57.556,225.51ZM55.64,222.839L56.087,223.474C56.16,222.96 56.197,222.38 56.197,221.734C56.197,220.352 56.131,219.418 55.999,218.932C55.867,218.464 55.605,218.229 55.212,218.229C54.844,218.229 54.596,218.429 54.468,218.828C54.339,219.21 54.275,219.981 54.275,221.141C54.275,222.443 54.341,223.332 54.473,223.807C54.605,224.262 54.862,224.49 55.244,224.49C55.396,224.49 55.542,224.441 55.681,224.344L54.994,223.354L55.64,222.839Z" style="fill:rgb(158,161,168);fill-rule:nonzero;"/>
            <path id="path1107" d="M61.567,219.964L60.504,219.964L60.494,219.646C60.494,218.767 60.625,218.149 60.889,217.792C61.157,217.431 61.605,217.25 62.233,217.25C63.417,217.25 64.009,217.906 64.009,219.219C64.009,220.104 63.566,221.38 62.681,223.047L62.04,224.25C62.037,224.257 62.026,224.278 62.009,224.313C61.992,224.347 61.967,224.398 61.936,224.464L63.926,224.464L63.926,225.391L60.394,225.391C60.454,225.259 60.577,224.997 60.764,224.604C60.952,224.212 61.207,223.682 61.53,223.016C61.804,222.432 62.033,221.938 62.217,221.531C62.401,221.125 62.54,220.792 62.634,220.531C62.822,220.01 62.915,219.561 62.915,219.182C62.915,218.516 62.684,218.182 62.223,218.182C61.778,218.182 61.556,218.595 61.556,219.422L61.561,219.88L61.567,219.964Z" style="fill:rgb(158,161,168);fill-rule:nonzero;"/>
        </g>
        <g id="text1040" transform="matrix(1,0,0,1,0,-20)">
            <path id="path1088" d="M41.215,267.349L44.111,267.349L44.111,268.266L42.298,268.266L42.298,270.807L43.934,270.807L43.934,271.724L42.298,271.724L42.298,275.391L41.215,275.391L41.215,267.349Z" style="fill:rgb(158,161,168);fill-rule:nonzero;"/>
            <path id="path1090" d="M44.944,267.349L46.371,267.349C46.962,267.349 47.401,267.49 47.689,267.771C48.054,268.135 48.236,268.693 48.236,269.443C48.236,270.019 48.139,270.483 47.944,270.833C47.753,271.181 47.479,271.396 47.121,271.479L48.6,275.391L47.502,275.391L46.028,271.453L46.028,275.391L44.944,275.391L44.944,267.349ZM46.028,270.911C46.448,270.911 46.745,270.814 46.918,270.62C47.092,270.425 47.179,270.097 47.179,269.635C47.179,269.385 47.159,269.172 47.121,268.995C47.087,268.818 47.029,268.674 46.949,268.562C46.873,268.451 46.772,268.37 46.647,268.318C46.526,268.266 46.38,268.24 46.21,268.24L46.028,268.24L46.028,270.911Z" style="fill:rgb(158,161,168);fill-rule:nonzero;"/>
            <path id="path1092" d="M49.444,267.349L52.324,267.349L52.324,268.266L50.528,268.266L50.528,270.812L52.121,270.812L52.121,271.729L50.528,271.729L50.528,274.474L52.324,274.474L52.324,275.391L49.444,275.391L49.444,267.349Z" style="fill:rgb(158,161,168);fill-rule:nonzero;"/>
            <path id="path1094" d="M57.574,275.51L56.892,276L56.34,275.214C56.01,275.398 55.661,275.49 55.293,275.49C54.512,275.49 53.96,275.16 53.637,274.5C53.317,273.819 53.158,272.681 53.158,271.083C53.158,269.688 53.314,268.7 53.627,268.12C53.939,267.536 54.469,267.245 55.215,267.245C56,267.245 56.552,267.566 56.871,268.208C57.187,268.837 57.345,269.951 57.345,271.552C57.345,273 57.194,274.005 56.892,274.568L57.574,275.51ZM55.658,272.839L56.106,273.474C56.179,272.96 56.215,272.38 56.215,271.734C56.215,270.352 56.149,269.418 56.017,268.932C55.885,268.464 55.623,268.229 55.231,268.229C54.863,268.229 54.614,268.429 54.486,268.828C54.357,269.21 54.293,269.981 54.293,271.141C54.293,272.443 54.359,273.332 54.491,273.807C54.623,274.262 54.88,274.49 55.262,274.49C55.415,274.49 55.56,274.441 55.699,274.344L55.012,273.354L55.658,272.839Z" style="fill:rgb(158,161,168);fill-rule:nonzero;"/>
            <path id="path1096" d="M61.627,269.505L60.595,269.505L60.595,269.292C60.595,268.934 60.625,268.627 60.684,268.37C60.746,268.113 60.842,267.901 60.97,267.734C61.102,267.568 61.269,267.446 61.47,267.37C61.672,267.29 61.913,267.25 62.194,267.25C62.785,267.25 63.215,267.417 63.486,267.75C63.757,268.083 63.892,268.613 63.892,269.339C63.892,269.936 63.83,270.366 63.705,270.63C63.583,270.898 63.349,271.101 63.002,271.24C63.377,271.368 63.635,271.568 63.778,271.839C63.92,272.106 63.991,272.535 63.991,273.125C63.991,273.934 63.838,274.53 63.533,274.911C63.227,275.293 62.752,275.484 62.106,275.484C61.002,275.484 60.449,274.851 60.449,273.583L60.449,273.5L60.449,273.443C60.449,273.405 60.451,273.38 60.455,273.37L61.47,273.37C61.467,273.429 61.463,273.481 61.46,273.526L61.46,273.63C61.46,273.905 61.519,274.123 61.637,274.286C61.758,274.45 61.923,274.531 62.132,274.531C62.267,274.531 62.382,274.505 62.475,274.453C62.573,274.398 62.651,274.311 62.71,274.193C62.772,274.071 62.817,273.915 62.845,273.724C62.873,273.533 62.887,273.302 62.887,273.031C62.887,272.542 62.812,272.189 62.663,271.974C62.517,271.759 62.272,271.651 61.929,271.651C61.89,271.651 61.849,271.655 61.804,271.662C61.758,271.665 61.706,271.67 61.647,271.677L61.647,270.74L61.798,270.74C62.218,270.74 62.503,270.649 62.652,270.469C62.802,270.288 62.876,269.946 62.876,269.443C62.876,268.609 62.666,268.193 62.246,268.193C61.83,268.193 61.621,268.549 61.621,269.26L61.627,269.505Z" style="fill:rgb(158,161,168);fill-rule:nonzero;"/>
        </g>
        <g id="text1044">
            <path id="path1079" d="M8.044,325.501L9.128,325.501L9.128,332.626L10.899,332.626L10.899,333.543L8.044,333.543L8.044,325.501Z" style="fill:rgb(44,45,48);fill-rule:nonzero;"/>
            <path id="path1081" d="M11.586,325.501L14.466,325.501L14.466,326.418L12.669,326.418L12.669,328.965L14.263,328.965L14.263,329.881L12.669,329.881L12.669,332.626L14.466,332.626L14.466,333.543L11.586,333.543L11.586,325.501Z" style="fill:rgb(44,45,48);fill-rule:nonzero;"/>
            <path id="path1083" d="M15.461,325.501L18.357,325.501L18.357,326.418L16.544,326.418L16.544,328.959L18.18,328.959L18.18,329.876L16.544,329.876L16.544,333.543L15.461,333.543L15.461,325.501Z" style="fill:rgb(44,45,48);fill-rule:nonzero;"/>
            <path id="path1085" d="M18.55,325.501L22.076,325.501L22.076,326.449L20.862,326.449L20.862,333.543L19.8,333.543L19.8,326.449L18.55,326.449L18.55,325.501Z" style="fill:rgb(44,45,48);fill-rule:nonzero;"/>
        </g>
        <g id="text1048">
            <path id="path1068" d="M80.62,325.402L82.047,325.402C82.637,325.402 83.076,325.543 83.365,325.824C83.729,326.188 83.911,326.746 83.911,327.496C83.911,328.072 83.814,328.536 83.62,328.886C83.429,329.234 83.155,329.449 82.797,329.532L84.276,333.444L83.177,333.444L81.703,329.506L81.703,333.444L80.62,333.444L80.62,325.402ZM81.703,328.965C82.123,328.965 82.42,328.867 82.594,328.673C82.767,328.478 82.854,328.15 82.854,327.688C82.854,327.438 82.835,327.225 82.797,327.048C82.762,326.871 82.705,326.727 82.625,326.616C82.549,326.504 82.448,326.423 82.323,326.371C82.201,326.319 82.056,326.293 81.885,326.293L81.703,326.293L81.703,328.965Z" style="fill:rgb(44,45,48);fill-rule:nonzero;"/>
            <rect id="path1070" x="85.12" y="325.402" width="1.083" height="8.042" style="fill:rgb(44,45,48);fill-rule:nonzero;"/>
            <path id="path1072" d="M89.38,329.215L91.349,329.215L91.349,329.527C91.349,331.093 91.212,332.15 90.938,332.699C90.667,333.261 90.16,333.543 89.417,333.543C88.649,333.543 88.102,333.23 87.776,332.605C87.453,331.98 87.292,330.93 87.292,329.454C87.292,327.767 87.469,326.643 87.823,326.084C88.156,325.56 88.668,325.298 89.359,325.298C89.887,325.298 90.299,325.425 90.594,325.678C90.892,325.935 91.125,326.357 91.292,326.944L90.281,327.366C90.236,327.154 90.186,326.977 90.13,326.834C90.075,326.688 90.014,326.576 89.948,326.496C89.816,326.333 89.618,326.251 89.354,326.251C88.993,326.251 88.747,326.473 88.615,326.918C88.483,327.383 88.417,328.218 88.417,329.423C88.417,330.642 88.484,331.466 88.62,331.897C88.755,332.327 89.01,332.543 89.385,332.543C89.729,332.543 89.971,332.39 90.109,332.084C90.252,331.758 90.323,331.234 90.323,330.511L90.323,330.293L90.323,330.131L89.38,330.131L89.38,329.215Z" style="fill:rgb(44,45,48);fill-rule:nonzero;"/>
            <path id="path1074" d="M92.432,325.402L93.516,325.402L93.516,328.548L95.104,328.548L95.104,325.402L96.188,325.402L96.188,333.444L95.104,333.444L95.104,329.465L93.516,329.465L93.516,333.444L92.432,333.444L92.432,325.402Z" style="fill:rgb(44,45,48);fill-rule:nonzero;"/>
            <path id="path1076" d="M96.792,325.402L100.318,325.402L100.318,326.35L99.104,326.35L99.104,333.444L98.042,333.444L98.042,326.35L96.792,326.35L96.792,325.402Z" style="fill:rgb(44,45,48);fill-rule:nonzero;"/>
        </g>
        <g id="text1143" transform="matrix(0.911551,0,0,1.09703,0,0)">
            <path id="path1145" d="M24.991,23.871L29.135,23.871L29.135,24.327C29.135,26.445 28.82,27.969 28.188,28.899C27.5,29.915 26.481,30.423 25.133,30.423C23.809,30.423 22.769,29.925 22.014,28.928C21.264,27.921 20.889,26.539 20.889,24.783C20.889,23.002 21.266,21.6 22.021,20.574C22.776,19.549 23.809,19.036 25.119,19.036C26.857,19.036 28.117,19.943 28.9,21.756L26.023,22.81C25.981,22.464 25.881,22.191 25.724,21.991C25.572,21.787 25.38,21.685 25.147,21.685C24.331,21.685 23.922,22.808 23.922,25.053C23.922,26.008 24.013,26.701 24.193,27.133C24.374,27.565 24.661,27.781 25.055,27.781C25.211,27.781 25.354,27.743 25.482,27.667C25.61,27.591 25.717,27.484 25.803,27.347C25.893,27.209 25.962,27.043 26.009,26.848C26.061,26.649 26.087,26.428 26.087,26.186L24.991,26.186L24.991,23.871Z" style="fill:rgb(158,161,168);fill-rule:nonzero;"/>
            <path id="path1147" d="M30.396,30.231L30.396,19.235L35.915,19.235L35.915,21.82L33.366,21.82L33.366,23.423L35.652,23.423L35.652,25.908L33.366,25.908L33.366,27.589L35.915,27.589L35.915,30.231L30.396,30.231Z" style="fill:rgb(158,161,168);fill-rule:nonzero;"/>
            <path id="path1149" d="M37.176,30.231L37.176,19.235L40.01,19.235L41.498,23.095C41.579,23.323 41.669,23.584 41.769,23.878C41.873,24.173 41.987,24.512 42.111,24.897L42.417,25.865C42.308,24.911 42.225,24.094 42.168,23.416C42.111,22.737 42.082,22.167 42.082,21.706L42.082,19.235L44.917,19.235L44.917,30.231L42.082,30.231L40.587,26.186C40.43,25.754 40.288,25.35 40.16,24.975C40.036,24.595 39.927,24.234 39.832,23.893C39.894,24.667 39.939,25.341 39.967,25.915C39.996,26.49 40.01,26.993 40.01,27.425L40.01,30.231L37.176,30.231Z" style="fill:rgb(158,161,168);fill-rule:nonzero;"/>
            <path id="path1151" d="M46.462,30.231L46.462,19.235L51.981,19.235L51.981,21.82L49.432,21.82L49.432,23.423L51.718,23.423L51.718,25.908L49.432,25.908L49.432,27.589L51.981,27.589L51.981,30.231L46.462,30.231Z" style="fill:rgb(158,161,168);fill-rule:nonzero;"/>
            <path id="path1153" d="M61.061,30.231L57.849,30.231L56.382,26.314C56.368,26.248 56.342,26.16 56.304,26.05C56.271,25.941 56.228,25.811 56.176,25.659L56.197,26.385L56.197,30.231L53.242,30.231L53.242,19.235L56.283,19.235C57.621,19.235 58.623,19.499 59.288,20.026C60.133,20.7 60.556,21.659 60.556,22.903C60.556,24.232 59.988,25.151 58.853,25.659L61.061,30.231ZM56.211,24.327L56.411,24.327C56.753,24.327 57.037,24.197 57.265,23.935C57.493,23.674 57.607,23.342 57.607,22.938C57.607,22.117 57.178,21.706 56.318,21.706L56.211,21.706L56.211,24.327Z" style="fill:rgb(158,161,168);fill-rule:nonzero;"/>
            <path id="path1155" d="M69.963,30.231L66.894,30.231L66.673,28.835L64.672,28.835L64.43,30.231L61.36,30.231L64.002,19.235L67.634,19.235L69.963,30.231ZM66.324,26.478L66.132,25.196C66.127,25.191 66.117,25.127 66.103,25.004C66.094,24.899 66.044,24.486 65.954,23.764C65.944,23.684 65.932,23.575 65.918,23.437C65.904,23.294 65.885,23.116 65.861,22.903L65.769,21.863C65.759,21.963 65.745,22.074 65.726,22.198C65.712,22.321 65.695,22.456 65.676,22.604C65.643,22.898 65.619,23.102 65.605,23.216C65.591,23.33 65.581,23.399 65.577,23.423L65.37,24.754L65.071,26.478L66.324,26.478Z" style="fill:rgb(158,161,168);fill-rule:nonzero;"/>
            <path id="path1157" d="M74.656,30.231L71.686,30.231L71.686,21.87L70.048,21.87L70.048,19.235L76.358,19.235L76.358,21.87L74.656,21.87L74.656,30.231Z" style="fill:rgb(158,161,168);fill-rule:nonzero;"/>
            <path id="path1159" d="M85.31,24.769C85.31,26.445 84.928,27.807 84.163,28.856C83.404,29.901 82.414,30.423 81.194,30.423C80.111,30.423 79.183,30.022 78.409,29.22C77.436,28.204 76.949,26.68 76.949,24.648C76.949,22.701 77.457,21.213 78.473,20.182C79.228,19.418 80.123,19.036 81.158,19.036C82.426,19.036 83.435,19.553 84.185,20.588C84.935,21.623 85.31,23.017 85.31,24.769ZM82.226,24.79C82.226,22.801 81.875,21.806 81.172,21.806C80.821,21.806 80.541,22.067 80.332,22.589C80.128,23.074 80.026,23.786 80.026,24.726C80.026,25.652 80.121,26.371 80.311,26.884C80.505,27.392 80.773,27.646 81.115,27.646C81.467,27.646 81.737,27.394 81.927,26.891C82.127,26.388 82.226,25.687 82.226,24.79L82.226,24.79Z" style="fill:rgb(158,161,168);fill-rule:nonzero;"/>
            <path id="path1161" d="M94.39,30.231L91.178,30.231L89.711,26.314C89.697,26.248 89.67,26.16 89.633,26.05C89.599,25.941 89.557,25.811 89.504,25.659L89.526,26.385L89.526,30.231L86.57,30.231L86.57,19.235L89.611,19.235C90.95,19.235 91.952,19.499 92.617,20.026C93.462,20.7 93.884,21.659 93.884,22.903C93.884,24.232 93.317,25.151 92.182,25.659L94.39,30.231ZM89.54,24.327L89.739,24.327C90.081,24.327 90.366,24.197 90.594,23.935C90.822,23.674 90.936,23.342 90.936,22.938C90.936,22.117 90.506,21.706 89.647,21.706L89.54,21.706L89.54,24.327Z" style="fill:rgb(158,161,168);fill-rule:nonzero;"/>
        </g>
        <g id="text935" transform="matrix(1.00001,0,0,0.999995,0,12)">
            <path id="path937" d="M33.434,75.86L34.278,75.86L36.002,83.902L34.929,83.902L34.627,82.334L33.033,82.334L32.726,83.902L31.684,83.902L33.434,75.86ZM34.471,81.495L34.231,80.214C34.071,79.342 33.941,78.412 33.84,77.422C33.792,77.905 33.729,78.395 33.653,78.891C33.577,79.384 33.486,79.908 33.382,80.464L33.184,81.495L34.471,81.495Z" style="fill:rgb(158,161,168);fill-rule:nonzero;"/>
            <path id="path939" d="M35.835,75.86L39.361,75.86L39.361,76.808L38.148,76.808L38.148,83.902L37.085,83.902L37.085,76.808L35.835,76.808L35.835,75.86Z" style="fill:rgb(158,161,168);fill-rule:nonzero;"/>
            <path id="path942" d="M39.314,75.86L42.84,75.86L42.84,76.808L41.627,76.808L41.627,83.902L40.564,83.902L40.564,76.808L39.314,76.808L39.314,75.86Z" style="fill:rgb(158,161,168);fill-rule:nonzero;"/>
            <path id="path944" d="M44.434,75.86L45.278,75.86L47.002,83.902L45.929,83.902L45.627,82.334L44.033,82.334L43.726,83.902L42.684,83.902L44.434,75.86ZM45.471,81.495L45.231,80.214C45.071,79.342 44.941,78.412 44.841,77.422C44.792,77.905 44.729,78.395 44.653,78.891C44.577,79.384 44.486,79.908 44.382,80.464L44.184,81.495L45.471,81.495Z" style="fill:rgb(158,161,168);fill-rule:nonzero;"/>
            <path id="path946" d="M50.736,75.99L50.736,76.964C50.459,76.829 50.226,76.761 50.038,76.761C49.782,76.761 49.561,76.825 49.377,76.954C49.193,77.079 49.04,77.273 48.919,77.537C48.801,77.801 48.712,78.136 48.653,78.542C48.597,78.945 48.57,79.422 48.57,79.974C48.57,81.961 49.078,82.954 50.096,82.954C50.273,82.954 50.486,82.898 50.736,82.787L50.736,83.782C50.476,83.928 50.184,84 49.861,84C48.233,84 47.419,82.671 47.419,80.011C47.419,78.573 47.617,77.504 48.012,76.803C48.412,76.101 49.021,75.75 49.841,75.75C50.143,75.75 50.441,75.83 50.736,75.99L50.736,75.99Z" style="fill:rgb(158,161,168);fill-rule:nonzero;"/>
            <path id="path948" d="M51.643,75.86L52.726,75.86L52.726,79.756L54.236,75.86L55.33,75.86L53.747,79.756L55.455,83.902L54.236,83.902L52.726,79.756L52.726,83.902L51.643,83.902L51.643,75.86Z" style="fill:rgb(158,161,168);fill-rule:nonzero;"/>
            <path id="path950" d="M58.351,75.86L59.778,75.86C60.368,75.86 60.808,76 61.096,76.282C61.46,76.646 61.643,77.204 61.643,77.954C61.643,78.53 61.545,78.993 61.351,79.344C61.16,79.691 60.886,79.907 60.528,79.99L62.007,83.902L60.908,83.902L59.434,79.964L59.434,83.902L58.351,83.902L58.351,75.86ZM59.434,79.422C59.854,79.422 60.151,79.325 60.325,79.131C60.499,78.936 60.585,78.608 60.585,78.146C60.585,77.896 60.566,77.683 60.528,77.506C60.493,77.329 60.436,77.184 60.356,77.073C60.28,76.962 60.179,76.881 60.054,76.829C59.933,76.776 59.787,76.75 59.617,76.75L59.434,76.75L59.434,79.422Z" style="fill:rgb(158,161,168);fill-rule:nonzero;"/>
            <path id="path952" d="M63.997,75.86L64.841,75.86L66.565,83.902L65.492,83.902L65.19,82.334L63.596,82.334L63.289,83.902L62.247,83.902L63.997,75.86ZM65.033,81.495L64.794,80.214C64.634,79.342 64.504,78.412 64.403,77.422C64.355,77.905 64.292,78.395 64.216,78.891C64.139,79.384 64.049,79.908 63.945,80.464L63.747,81.495L65.033,81.495Z" style="fill:rgb(158,161,168);fill-rule:nonzero;"/>
            <path id="path954" d="M66.398,75.86L69.924,75.86L69.924,76.808L68.71,76.808L68.71,83.902L67.648,83.902L67.648,76.808L66.398,76.808L66.398,75.86Z" style="fill:rgb(158,161,168);fill-rule:nonzero;"/>
            <path id="path956" d="M70.518,75.86L73.398,75.86L73.398,76.776L71.601,76.776L71.601,79.323L73.195,79.323L73.195,80.24L71.601,80.24L71.601,82.985L73.398,82.985L73.398,83.902L70.518,83.902L70.518,75.86Z" style="fill:rgb(158,161,168);fill-rule:nonzero;"/>
        </g>
        <g id="text946">
            <path id="path958" d="M41.124,287.349L44.02,287.349L44.02,288.266L42.208,288.266L42.208,290.807L43.843,290.807L43.843,291.724L42.208,291.724L42.208,295.391L41.124,295.391L41.124,287.349Z" style="fill:rgb(158,161,168);fill-rule:nonzero;"/>
            <path id="path960" d="M44.854,287.349L46.281,287.349C46.871,287.349 47.31,287.49 47.598,287.771C47.963,288.135 48.145,288.693 48.145,289.443C48.145,290.019 48.048,290.483 47.854,290.833C47.663,291.181 47.388,291.396 47.031,291.479L48.51,295.391L47.411,295.391L45.937,291.453L45.937,295.391L44.854,295.391L44.854,287.349ZM45.937,290.911C46.357,290.911 46.654,290.814 46.828,290.62C47.001,290.425 47.088,290.097 47.088,289.635C47.088,289.385 47.069,289.172 47.031,288.995C46.996,288.818 46.939,288.674 46.859,288.563C46.782,288.451 46.682,288.37 46.557,288.318C46.435,288.266 46.289,288.24 46.119,288.24L45.937,288.24L45.937,290.911Z" style="fill:rgb(158,161,168);fill-rule:nonzero;"/>
            <path id="path962" d="M49.354,287.349L52.234,287.349L52.234,288.266L50.437,288.266L50.437,290.813L52.031,290.813L52.031,291.729L50.437,291.729L50.437,294.474L52.234,294.474L52.234,295.391L49.354,295.391L49.354,287.349Z" style="fill:rgb(158,161,168);fill-rule:nonzero;"/>
            <path id="path964" d="M57.484,295.51L56.802,296L56.249,295.214C55.92,295.398 55.571,295.49 55.203,295.49C54.421,295.49 53.869,295.16 53.546,294.5C53.227,293.819 53.067,292.681 53.067,291.083C53.067,289.688 53.223,288.7 53.536,288.12C53.848,287.536 54.378,287.245 55.124,287.245C55.909,287.245 56.461,287.566 56.781,288.208C57.097,288.837 57.255,289.951 57.255,291.552C57.255,293 57.104,294.005 56.802,294.568L57.484,295.51ZM55.567,292.839L56.015,293.474C56.088,292.96 56.124,292.38 56.124,291.734C56.124,290.352 56.058,289.418 55.927,288.932C55.795,288.464 55.532,288.229 55.14,288.229C54.772,288.229 54.524,288.429 54.395,288.828C54.267,289.21 54.203,289.981 54.203,291.141C54.203,292.443 54.269,293.332 54.401,293.807C54.532,294.262 54.789,294.49 55.171,294.49C55.324,294.49 55.47,294.441 55.609,294.344L54.921,293.354L55.567,292.839Z" style="fill:rgb(158,161,168);fill-rule:nonzero;"/>
            <path id="path966" d="M62.437,287.349L63.442,287.349L63.442,292.359L63.958,292.359L63.958,293.188L63.442,293.188L63.442,295.391L62.437,295.391L62.437,293.188L60.234,293.188L60.234,292.266L62.437,287.349ZM62.437,292.359L62.437,288.984L61.083,292.359L62.437,292.359Z" style="fill:rgb(158,161,168);fill-rule:nonzero;"/>
        </g>
        <g id="text1002">
            <path id="path1006" d="M88.86,42.66L88.86,43.269C88.687,43.184 88.541,43.142 88.424,43.142C88.263,43.142 88.126,43.182 88.011,43.262C87.896,43.341 87.8,43.462 87.724,43.627C87.65,43.792 87.595,44.001 87.558,44.255C87.523,44.507 87.506,44.805 87.506,45.15C87.506,46.392 87.824,47.012 88.46,47.012C88.57,47.012 88.704,46.978 88.86,46.908L88.86,47.53C88.697,47.621 88.515,47.667 88.313,47.667C87.296,47.667 86.787,46.835 86.787,45.173C86.787,44.275 86.91,43.606 87.158,43.168C87.407,42.73 87.788,42.51 88.3,42.51C88.489,42.51 88.676,42.56 88.86,42.66L88.86,42.66Z" style="fill:rgb(158,161,168);fill-rule:nonzero;"/>
            <path id="path1008" d="M89.427,42.579L90.104,42.579L90.104,44.545L91.097,44.545L91.097,42.579L91.774,42.579L91.774,47.605L91.097,47.605L91.097,45.118L90.104,45.118L90.104,47.605L89.427,47.605L89.427,42.579Z" style="fill:rgb(158,161,168);fill-rule:nonzero;"/>
            <path id="path1010" d="M93.268,42.579L93.795,42.579L94.873,47.605L94.202,47.605L94.013,46.625L93.017,46.625L92.825,47.605L92.174,47.605L93.268,42.579ZM93.916,46.101L93.766,45.3C93.666,44.755 93.585,44.174 93.522,43.555C93.491,43.857 93.452,44.163 93.404,44.473C93.357,44.781 93.3,45.109 93.235,45.456L93.111,46.101L93.916,46.101Z" style="fill:rgb(158,161,168);fill-rule:nonzero;"/>
            <rect id="path1012" x="95.273" y="42.579" width="0.677" height="5.026" style="fill:rgb(158,161,168);fill-rule:nonzero;"/>
            <path id="path1014" d="M96.731,42.579L97.363,42.579L98.037,44.584C98.232,45.15 98.404,45.755 98.554,46.397C98.5,46.009 98.46,45.657 98.434,45.342C98.408,45.028 98.395,44.732 98.395,44.454L98.395,42.579L99.075,42.579L99.075,47.605L98.44,47.605L97.682,45.342C97.612,45.132 97.546,44.916 97.483,44.695C97.422,44.473 97.366,44.241 97.314,43.998C97.31,43.968 97.302,43.931 97.291,43.887C97.283,43.844 97.272,43.794 97.259,43.738C97.265,43.794 97.271,43.843 97.275,43.884C97.279,43.923 97.283,43.957 97.285,43.985L97.321,44.496L97.357,45.118C97.359,45.153 97.36,45.195 97.36,45.245C97.362,45.295 97.363,45.351 97.363,45.414L97.399,47.605L96.732,47.605L96.731,42.579Z" style="fill:rgb(158,161,168);fill-rule:nonzero;"/>
            <path id="path1016" d="M83.375,50.912L85.579,50.912L85.579,51.505L84.82,51.505L84.82,55.938L84.156,55.938L84.156,51.505L83.375,51.505L83.375,50.912Z" style="fill:rgb(158,161,168);fill-rule:nonzero;"/>
            <path id="path1018" d="M85.95,50.912L86.842,50.912C87.211,50.912 87.485,51 87.666,51.176C87.893,51.404 88.007,51.752 88.007,52.221C88.007,52.581 87.947,52.871 87.825,53.09C87.706,53.307 87.534,53.441 87.311,53.493L88.235,55.938L87.548,55.938L86.627,53.477L86.627,55.938L85.95,55.938L85.95,50.912ZM86.627,53.139C86.89,53.139 87.075,53.078 87.184,52.956C87.292,52.835 87.347,52.63 87.347,52.341C87.347,52.185 87.335,52.051 87.311,51.941C87.289,51.83 87.253,51.74 87.203,51.671C87.155,51.601 87.093,51.55 87.014,51.518C86.938,51.485 86.847,51.469 86.741,51.469L86.627,51.469L86.627,53.139Z" style="fill:rgb(158,161,168);fill-rule:nonzero;"/>
            <rect id="path1020" x="88.763" y="50.912" width="0.677" height="5.026" style="fill:rgb(158,161,168);fill-rule:nonzero;"/>
            <path id="path1022" d="M91.425,53.295L92.656,53.295L92.656,53.49C92.656,54.469 92.57,55.13 92.399,55.473C92.229,55.824 91.912,56 91.448,56C90.968,56 90.627,55.805 90.423,55.414C90.221,55.023 90.12,54.367 90.12,53.445C90.12,52.39 90.231,51.688 90.452,51.339C90.66,51.011 90.98,50.847 91.412,50.847C91.742,50.847 91.999,50.926 92.184,51.085C92.37,51.245 92.516,51.509 92.62,51.876L91.988,52.139C91.96,52.007 91.929,51.896 91.894,51.807C91.859,51.716 91.821,51.646 91.78,51.596C91.698,51.494 91.574,51.443 91.409,51.443C91.183,51.443 91.029,51.582 90.947,51.859C90.864,52.15 90.823,52.672 90.823,53.425C90.823,54.187 90.865,54.702 90.95,54.971C91.035,55.24 91.194,55.375 91.429,55.375C91.643,55.375 91.794,55.28 91.881,55.089C91.97,54.885 92.014,54.557 92.014,54.105L92.014,53.969L92.014,53.868L91.425,53.868L91.425,53.295Z" style="fill:rgb(158,161,168);fill-rule:nonzero;"/>
            <rect id="path1024" x="92.945" y="53.959" width="1.185" height="0.508" style="fill:rgb(158,161,168);fill-rule:nonzero;"/>
            <path id="path1026" d="M97.034,53.549C97.034,54.436 96.935,55.067 96.738,55.44C96.54,55.813 96.209,56 95.745,56C95.257,56 94.913,55.799 94.713,55.398C94.516,55.005 94.417,54.307 94.417,53.305C94.417,52.411 94.514,51.778 94.71,51.407C94.907,51.034 95.241,50.847 95.712,50.847C96.133,50.847 96.446,50.991 96.65,51.28C96.784,51.473 96.882,51.748 96.943,52.104C97.004,52.433 97.034,52.915 97.034,53.549L97.034,53.549ZM96.324,53.62C96.324,52.75 96.285,52.173 96.207,51.889C96.129,51.602 95.97,51.459 95.729,51.459C95.488,51.459 95.327,51.59 95.247,51.853C95.169,52.118 95.13,52.649 95.13,53.448C95.13,54.184 95.171,54.694 95.253,54.978C95.338,55.247 95.496,55.382 95.729,55.382C95.957,55.382 96.113,55.256 96.197,55.004C96.282,54.754 96.324,54.293 96.324,53.62L96.324,53.62Z" style="fill:rgb(158,161,168);fill-rule:nonzero;"/>
            <path id="path1028" d="M97.708,50.912L98.372,50.912L98.372,54.464C98.372,54.826 98.404,55.067 98.47,55.186C98.537,55.306 98.669,55.365 98.867,55.365C99.064,55.365 99.194,55.313 99.257,55.209C99.322,55.103 99.355,54.887 99.355,54.561L99.355,50.912L100.019,50.912L100.019,54.561C100.019,55.108 99.936,55.478 99.768,55.671C99.569,55.89 99.264,56 98.854,56C98.402,56 98.084,55.859 97.9,55.577C97.772,55.384 97.708,55.013 97.708,54.464L97.708,50.912Z" style="fill:rgb(158,161,168);fill-rule:nonzero;"/>
            <path id="path1030" d="M100.393,50.912L102.597,50.912L102.597,51.505L101.839,51.505L101.839,55.938L101.175,55.938L101.175,51.505L100.393,51.505L100.393,50.912Z" style="fill:rgb(158,161,168);fill-rule:nonzero;"/>
        </g>
    </g>
</svg>
