<?xml version="1.0" encoding="UTF-8" standalone="no"?>
<!DOCTYPE svg PUBLIC "-//W3C//DTD SVG 1.1//EN" "http://www.w3.org/Graphics/SVG/1.1/DTD/svg11.dtd">
<svg width="100%" height="100%" viewBox="0 0 90 380" version="1.1" xmlns="http://www.w3.org/2000/svg" xmlns:xlink="http://www.w3.org/1999/xlink" xml:space="preserve" xmlns:serif="http://www.serif.com/" style="fill-rule:evenodd;clip-rule:evenodd;stroke-linejoin:round;stroke-miterlimit:2;">
    <g id="Layer-2" serif:id="Layer 2">
        <g id="text989">
        </g>
        <rect id="rect4689" x="0" y="0" width="90" height="380" style="fill:rgb(44,45,48);"/>
        <g id="text80" transform="matrix(1.00498,0,0,0.995047,-5.56788e-06,4.99997)">
            <path id="path4726" d="M29.851,371.706L29.851,363.943L31.853,363.943L32.903,366.668C32.96,366.829 33.024,367.013 33.094,367.221C33.168,367.429 33.249,367.668 33.336,367.94L33.552,368.624C33.475,367.95 33.416,367.373 33.376,366.894C33.336,366.415 33.316,366.013 33.316,365.687L33.316,363.943L35.317,363.943L35.317,371.706L33.316,371.706L32.26,368.85C32.149,368.545 32.049,368.26 31.958,367.995C31.871,367.727 31.794,367.472 31.727,367.231C31.77,367.777 31.802,368.253 31.822,368.659C31.843,369.065 31.853,369.42 31.853,369.725L31.853,371.706L29.851,371.706Z" style="fill:rgb(158,161,168);fill-rule:nonzero;"/>
            <path id="path4728" d="M39.887,371.706L37.791,371.706L37.791,368.418L35.865,363.943L38.052,363.943L38.429,365.094C38.503,365.319 38.568,365.535 38.625,365.743C38.686,365.951 38.739,366.15 38.786,366.341C38.863,366.056 38.93,365.811 38.987,365.607C39.044,365.399 39.095,365.232 39.138,365.104L39.52,363.943L41.692,363.943L39.887,368.418L39.887,371.706Z" style="fill:rgb(158,161,168);fill-rule:nonzero;"/>
            <path id="path4730" d="M41.894,371.515L41.894,369.076C42.306,369.639 42.752,369.921 43.231,369.921C43.412,369.921 43.56,369.874 43.673,369.78C43.787,369.683 43.844,369.562 43.844,369.418C43.844,369.21 43.72,369.008 43.472,368.81L43.13,368.543C42.902,368.372 42.708,368.203 42.547,368.035C42.386,367.865 42.256,367.69 42.155,367.513C42.054,367.332 41.981,367.146 41.934,366.954C41.887,366.763 41.863,366.562 41.863,366.351C41.863,365.989 41.947,365.61 42.115,365.215C42.199,365.03 42.296,364.863 42.406,364.712C42.517,364.558 42.644,364.422 42.789,364.305C43.184,363.969 43.662,363.802 44.222,363.802C44.721,363.802 45.224,363.934 45.73,364.199L45.73,366.572C45.559,366.308 45.365,366.1 45.147,365.949C44.929,365.795 44.714,365.718 44.503,365.718C44.342,365.718 44.21,365.765 44.106,365.858C43.999,365.949 43.945,366.058 43.945,366.185C43.945,366.393 44.087,366.599 44.372,366.804L44.704,367.05C45.147,367.368 45.463,367.695 45.655,368.03C45.849,368.366 45.946,368.758 45.946,369.207C45.946,369.971 45.713,370.601 45.247,371.098C44.781,371.594 44.191,371.842 43.477,371.842C42.985,371.842 42.457,371.733 41.894,371.515L41.894,371.515Z" style="fill:rgb(158,161,168);fill-rule:nonzero;"/>
            <path id="path4732" d="M49.576,371.706L47.48,371.706L47.48,365.803L46.323,365.803L46.323,363.943L50.778,363.943L50.778,365.803L49.576,365.803L49.576,371.706Z" style="fill:rgb(158,161,168);fill-rule:nonzero;"/>
            <path id="path4734" d="M56.525,371.706L54.428,371.706L54.428,368.584L53.428,368.584L53.428,371.706L51.331,371.706L51.331,363.943L53.428,363.943L53.428,366.688L54.428,366.688L54.428,363.943L56.525,363.943L56.525,371.706Z" style="fill:rgb(158,161,168);fill-rule:nonzero;"/>
            <rect id="path4736" x="57.606" y="363.943" width="2.097" height="7.763" style="fill:rgb(158,161,168);fill-rule:nonzero;"/>
        </g>
        <g id="text4987">
        </g>
        <g id="text1042">
        </g>
        <g id="text1313" transform="matrix(1,0,0,1,0.885417,22)">
            <path id="path1436" d="M4.865,30.859L5.708,30.859L7.432,38.901L6.359,38.901L6.057,37.333L4.464,37.333L4.156,38.901L3.115,38.901L4.865,30.859ZM5.901,36.495L5.661,35.214C5.502,34.342 5.372,33.411 5.271,32.422C5.222,32.905 5.16,33.394 5.083,33.891C5.007,34.384 4.917,34.908 4.813,35.464L4.615,36.495L5.901,36.495Z" style="fill:rgb(158,161,168);fill-rule:nonzero;"/>
            <path id="path1438" d="M7.266,30.859L10.792,30.859L10.792,31.807L9.578,31.807L9.578,38.901L8.516,38.901L8.516,31.807L7.266,31.807L7.266,30.859Z" style="fill:rgb(158,161,168);fill-rule:nonzero;"/>
            <path id="path1440" d="M10.745,30.859L14.271,30.859L14.271,31.807L13.057,31.807L13.057,38.901L11.995,38.901L11.995,31.807L10.745,31.807L10.745,30.859Z" style="fill:rgb(158,161,168);fill-rule:nonzero;"/>
            <path id="path1442" d="M15.865,30.859L16.708,30.859L18.432,38.901L17.359,38.901L17.057,37.333L15.464,37.333L15.156,38.901L14.115,38.901L15.865,30.859ZM16.901,36.495L16.661,35.214C16.502,34.342 16.372,33.411 16.271,32.422C16.222,32.905 16.16,33.394 16.083,33.891C16.007,34.384 15.917,34.908 15.813,35.464L15.615,36.495L16.901,36.495Z" style="fill:rgb(158,161,168);fill-rule:nonzero;"/>
            <path id="path1444" d="M22.167,30.99L22.167,31.964C21.889,31.828 21.656,31.76 21.469,31.76C21.212,31.76 20.991,31.825 20.807,31.953C20.623,32.078 20.47,32.273 20.349,32.536C20.231,32.8 20.142,33.135 20.083,33.542C20.028,33.944 20,34.422 20,34.974C20,36.96 20.509,37.953 21.526,37.953C21.703,37.953 21.917,37.898 22.167,37.786L22.167,38.781C21.906,38.927 21.615,39 21.292,39C19.663,39 18.849,37.67 18.849,35.01C18.849,33.573 19.047,32.503 19.443,31.802C19.842,31.101 20.451,30.75 21.271,30.75C21.573,30.75 21.872,30.83 22.167,30.99L22.167,30.99Z" style="fill:rgb(158,161,168);fill-rule:nonzero;"/>
            <path id="path1446" d="M23.073,30.859L24.156,30.859L24.156,34.755L25.667,30.859L26.76,30.859L25.177,34.755L26.885,38.901L25.667,38.901L24.156,34.755L24.156,38.901L23.073,38.901L23.073,30.859Z" style="fill:rgb(158,161,168);fill-rule:nonzero;"/>
        </g>
        <g id="g1437" transform="matrix(1,0,0,1,1.11198,-106)">
            <path id="path1364" d="M2.888,268.86L6.414,268.86L6.414,269.807L5.201,269.807L5.201,276.901L4.138,276.901L4.138,269.807L2.888,269.807L2.888,268.86Z" style="fill:rgb(158,161,168);fill-rule:nonzero;"/>
            <path id="path1366" d="M7.008,268.86L8.435,268.86C9.025,268.86 9.464,269 9.753,269.281C10.117,269.646 10.299,270.203 10.299,270.953C10.299,271.53 10.202,271.993 10.008,272.344C9.817,272.691 9.543,272.906 9.185,272.99L10.664,276.901L9.565,276.901L8.091,272.964L8.091,276.901L7.008,276.901L7.008,268.86ZM8.091,272.422C8.511,272.422 8.808,272.325 8.982,272.13C9.155,271.936 9.242,271.608 9.242,271.146C9.242,270.896 9.223,270.682 9.185,270.505C9.15,270.328 9.093,270.184 9.013,270.073C8.937,269.962 8.836,269.88 8.711,269.828C8.589,269.776 8.444,269.75 8.273,269.75L8.091,269.75L8.091,272.422Z" style="fill:rgb(158,161,168);fill-rule:nonzero;"/>
            <rect id="path1368" x="11.508" y="268.86" width="1.083" height="8.042" style="fill:rgb(158,161,168);fill-rule:nonzero;"/>
            <path id="path1370" d="M15.768,272.672L17.737,272.672L17.737,272.985C17.737,274.551 17.6,275.608 17.326,276.156C17.055,276.719 16.548,277 15.805,277C15.037,277 14.49,276.688 14.164,276.063C13.841,275.438 13.68,274.387 13.68,272.912C13.68,271.224 13.857,270.101 14.211,269.542C14.544,269.018 15.056,268.755 15.747,268.755C16.275,268.755 16.687,268.882 16.982,269.136C17.28,269.393 17.513,269.814 17.68,270.401L16.669,270.823C16.624,270.611 16.574,270.434 16.518,270.292C16.463,270.146 16.402,270.033 16.336,269.953C16.204,269.79 16.006,269.709 15.742,269.709C15.381,269.709 15.135,269.931 15.003,270.375C14.871,270.84 14.805,271.676 14.805,272.88C14.805,274.099 14.872,274.924 15.008,275.354C15.143,275.785 15.398,276 15.773,276C16.117,276 16.359,275.847 16.497,275.542C16.64,275.215 16.711,274.691 16.711,273.969L16.711,273.75L16.711,273.589L15.768,273.589L15.768,272.672Z" style="fill:rgb(158,161,168);fill-rule:nonzero;"/>
        </g>
        <g id="text1330" transform="matrix(1.00001,0,0,0.999988,-4,0)">
            <path id="path1576" d="M8,30.959L9.333,30.959C9.74,30.959 10.082,31.004 10.359,31.094C10.616,31.181 10.845,31.335 11.047,31.558C11.349,31.891 11.564,32.325 11.693,32.86C11.821,33.377 11.885,34.118 11.885,35.084C11.885,35.969 11.814,36.691 11.672,37.25C11.533,37.785 11.304,38.193 10.984,38.474C10.592,38.825 9.889,39 8.875,39L8,39L8,30.959ZM9.083,38.053C9.743,38.053 10.184,37.853 10.406,37.454C10.635,37.054 10.75,36.278 10.75,35.125C10.75,33.886 10.641,33.033 10.422,32.568C10.203,32.103 9.802,31.87 9.219,31.87L9.083,31.87L9.083,38.053Z" style="fill:rgb(158,161,168);fill-rule:nonzero;"/>
            <path id="path1578" d="M12.958,30.959L15.839,30.959L15.839,31.875L14.042,31.875L14.042,34.422L15.635,34.422L15.635,35.339L14.042,35.339L14.042,38.084L15.839,38.084L15.839,39L12.958,39L12.958,30.959Z" style="fill:rgb(158,161,168);fill-rule:nonzero;"/>
            <path id="path1580" d="M16.833,30.959L17.917,30.959L17.917,38.084L19.688,38.084L19.688,39L16.833,39L16.833,30.959Z" style="fill:rgb(158,161,168);fill-rule:nonzero;"/>
            <path id="path1582" d="M21.958,30.959L22.802,30.959L24.526,39L23.453,39L23.151,37.433L21.557,37.433L21.25,39L20.208,39L21.958,30.959ZM22.995,36.594L22.755,35.313C22.596,34.441 22.465,33.511 22.365,32.521C22.316,33.004 22.254,33.493 22.177,33.99C22.101,34.483 22.01,35.007 21.906,35.563L21.708,36.594L22.995,36.594Z" style="fill:rgb(158,161,168);fill-rule:nonzero;"/>
            <path id="path1584" d="M24.151,30.959L25.297,30.959L25.828,32.709C25.846,32.761 25.863,32.818 25.88,32.881C25.898,32.943 25.919,33.011 25.943,33.084C26.141,33.716 26.276,34.247 26.349,34.678C26.412,34.247 26.464,33.947 26.505,33.776L26.672,33.058L26.735,32.776L27.182,30.959L28.313,30.959L26.912,35.542L26.912,39L25.828,39L25.828,35.542L24.151,30.959Z" style="fill:rgb(158,161,168);fill-rule:nonzero;"/>
        </g>
        <g id="text1339" transform="matrix(1,0,0,1,-4,8.00001)">
            <path id="path1548" d="M8,198.859L9.083,198.859L9.083,205.984L10.854,205.984L10.854,206.901L8,206.901L8,198.859Z" style="fill:rgb(158,161,168);fill-rule:nonzero;"/>
            <path id="path1550" d="M15.568,203.078C15.568,204.498 15.41,205.507 15.094,206.104C14.778,206.701 14.248,207 13.505,207C12.724,207 12.174,206.679 11.854,206.036C11.538,205.408 11.38,204.292 11.38,202.687C11.38,201.257 11.536,200.245 11.849,199.651C12.165,199.054 12.7,198.755 13.453,198.755C14.127,198.755 14.627,198.986 14.953,199.448C15.168,199.757 15.325,200.196 15.422,200.766C15.519,201.293 15.568,202.064 15.568,203.078ZM14.432,203.193C14.432,201.8 14.37,200.877 14.245,200.422C14.12,199.964 13.865,199.734 13.479,199.734C13.094,199.734 12.837,199.944 12.708,200.365C12.583,200.788 12.521,201.639 12.521,202.917C12.521,204.094 12.587,204.91 12.719,205.365C12.854,205.795 13.108,206.01 13.479,206.01C13.844,206.01 14.094,205.809 14.229,205.406C14.365,205.007 14.432,204.269 14.432,203.193L14.432,203.193Z" style="fill:rgb(158,161,168);fill-rule:nonzero;"/>
            <path id="path1552" d="M20.672,203.078C20.672,204.498 20.514,205.507 20.198,206.104C19.882,206.701 19.352,207 18.609,207C17.828,207 17.278,206.679 16.958,206.036C16.642,205.408 16.484,204.292 16.484,202.687C16.484,201.257 16.641,200.245 16.953,199.651C17.269,199.054 17.804,198.755 18.557,198.755C19.231,198.755 19.731,198.986 20.057,199.448C20.273,199.757 20.429,200.196 20.526,200.766C20.623,201.293 20.672,202.064 20.672,203.078L20.672,203.078ZM19.536,203.193C19.536,201.8 19.474,200.877 19.349,200.422C19.224,199.964 18.969,199.734 18.583,199.734C18.198,199.734 17.941,199.944 17.813,200.365C17.688,200.788 17.625,201.639 17.625,202.917C17.625,204.094 17.691,204.91 17.823,205.365C17.958,205.795 18.212,206.01 18.583,206.01C18.948,206.01 19.198,205.809 19.333,205.406C19.469,205.007 19.536,204.269 19.536,203.193L19.536,203.193Z" style="fill:rgb(158,161,168);fill-rule:nonzero;"/>
            <path id="path1554" d="M21.75,198.859L23.177,198.859C23.865,198.859 24.365,199.033 24.677,199.38C24.99,199.731 25.146,200.286 25.146,201.047C25.146,202.116 24.832,202.807 24.203,203.12C23.887,203.262 23.431,203.333 22.833,203.333L22.833,206.901L21.75,206.901L21.75,198.859ZM22.833,202.406C23.281,202.406 23.59,202.316 23.76,202.135C23.934,201.951 24.021,201.625 24.021,201.156C24.021,200.677 23.938,200.326 23.771,200.104C23.604,199.882 23.342,199.771 22.984,199.771L22.833,199.771L22.833,202.406Z" style="fill:rgb(158,161,168);fill-rule:nonzero;"/>
            <path id="path1556" d="M25.979,198.859L28.859,198.859L28.859,199.776L27.063,199.776L27.063,202.323L28.656,202.323L28.656,203.24L27.063,203.24L27.063,205.984L28.859,205.984L28.859,206.901L25.979,206.901L25.979,198.859Z" style="fill:rgb(158,161,168);fill-rule:nonzero;"/>
            <path id="path1558" d="M29.854,198.859L31.188,198.859C31.594,198.859 31.936,198.904 32.214,198.995C32.47,199.082 32.7,199.236 32.901,199.458C33.203,199.792 33.418,200.226 33.547,200.76C33.675,201.278 33.74,202.019 33.74,202.984C33.74,203.87 33.668,204.592 33.526,205.151C33.387,205.686 33.158,206.094 32.839,206.375C32.446,206.726 31.743,206.901 30.729,206.901L29.854,206.901L29.854,198.859ZM30.938,205.953C31.597,205.953 32.038,205.753 32.26,205.354C32.49,204.955 32.604,204.179 32.604,203.026C32.604,201.786 32.495,200.934 32.276,200.469C32.057,200.003 31.656,199.771 31.073,199.771L30.938,199.771L30.938,205.953Z" style="fill:rgb(158,161,168);fill-rule:nonzero;"/>
        </g>
        <g id="text1343" transform="matrix(1,0,0,1,-4,6.00001)">
            <path id="path1535" d="M8,222.859L9.083,222.859L9.083,226.005L10.672,226.005L10.672,222.859L11.755,222.859L11.755,230.901L10.672,230.901L10.672,226.922L9.083,226.922L9.083,230.901L8,230.901L8,222.859Z" style="fill:rgb(158,161,168);fill-rule:nonzero;"/>
            <path id="path1537" d="M14.146,222.859L14.99,222.859L16.714,230.901L15.641,230.901L15.339,229.333L13.745,229.333L13.438,230.901L12.396,230.901L14.146,222.859ZM15.182,228.495L14.943,227.214C14.783,226.342 14.653,225.411 14.552,224.422C14.503,224.905 14.441,225.394 14.365,225.891C14.288,226.384 14.198,226.908 14.094,227.464L13.896,228.495L15.182,228.495Z" style="fill:rgb(158,161,168);fill-rule:nonzero;"/>
            <path id="path1539" d="M17.354,222.859L18.365,222.859L19.443,226.068C19.755,226.974 20.031,227.941 20.271,228.969C20.184,228.347 20.12,227.785 20.078,227.281C20.036,226.778 20.016,226.304 20.016,225.859L20.016,222.859L21.104,222.859L21.104,230.901L20.089,230.901L18.875,227.281C18.764,226.944 18.658,226.599 18.557,226.245C18.46,225.891 18.37,225.519 18.286,225.13C18.28,225.082 18.267,225.023 18.25,224.953C18.236,224.884 18.219,224.804 18.198,224.714C18.208,224.804 18.217,224.882 18.224,224.948C18.231,225.01 18.236,225.064 18.24,225.109L18.297,225.927L18.354,226.922C18.358,226.977 18.359,227.045 18.359,227.125C18.363,227.205 18.365,227.295 18.365,227.396L18.422,230.901L17.354,230.901L17.354,222.859Z" style="fill:rgb(158,161,168);fill-rule:nonzero;"/>
            <path id="path1541" d="M24.281,226.672L26.25,226.672L26.25,226.984C26.25,228.55 26.113,229.608 25.839,230.156C25.568,230.719 25.061,231 24.318,231C23.55,231 23.003,230.687 22.677,230.062C22.354,229.437 22.193,228.387 22.193,226.911C22.193,225.224 22.37,224.101 22.724,223.542C23.057,223.017 23.569,222.755 24.26,222.755C24.788,222.755 25.2,222.882 25.495,223.135C25.793,223.392 26.026,223.814 26.193,224.401L25.182,224.823C25.137,224.611 25.087,224.434 25.031,224.292C24.976,224.146 24.915,224.033 24.849,223.953C24.717,223.79 24.519,223.708 24.255,223.708C23.894,223.708 23.648,223.931 23.516,224.375C23.384,224.84 23.318,225.675 23.318,226.88C23.318,228.099 23.385,228.924 23.521,229.354C23.656,229.785 23.911,230 24.286,230C24.63,230 24.872,229.847 25.01,229.542C25.153,229.215 25.224,228.691 25.224,227.969L25.224,227.75L25.224,227.589L24.281,227.589L24.281,226.672Z" style="fill:rgb(158,161,168);fill-rule:nonzero;"/>
            <path id="path1543" d="M27.333,222.859L30.214,222.859L30.214,223.776L28.417,223.776L28.417,226.323L30.01,226.323L30.01,227.24L28.417,227.24L28.417,229.984L30.214,229.984L30.214,230.901L27.333,230.901L27.333,222.859Z" style="fill:rgb(158,161,168);fill-rule:nonzero;"/>
            <path id="path1545" d="M31.208,222.859L32.542,222.859C32.948,222.859 33.29,222.905 33.568,222.995C33.825,223.082 34.054,223.236 34.255,223.458C34.557,223.792 34.773,224.226 34.901,224.76C35.03,225.278 35.094,226.019 35.094,226.984C35.094,227.87 35.023,228.592 34.88,229.151C34.741,229.686 34.512,230.094 34.193,230.375C33.8,230.726 33.097,230.901 32.083,230.901L31.208,230.901L31.208,222.859ZM32.292,229.953C32.951,229.953 33.392,229.753 33.615,229.354C33.844,228.955 33.958,228.179 33.958,227.026C33.958,225.786 33.849,224.934 33.63,224.469C33.411,224.003 33.01,223.771 32.427,223.771L32.292,223.771L32.292,229.953Z" style="fill:rgb(158,161,168);fill-rule:nonzero;"/>
        </g>
        <g id="text1360" transform="matrix(1,0,0,1,0,-14)">
            <path id="path1660" d="M7.318,198.99L7.318,199.964C7.04,199.828 6.807,199.76 6.62,199.76C6.363,199.76 6.142,199.825 5.958,199.953C5.774,200.078 5.622,200.273 5.5,200.536C5.382,200.8 5.293,201.135 5.234,201.542C5.179,201.944 5.151,202.422 5.151,202.974C5.151,204.96 5.66,205.953 6.677,205.953C6.854,205.953 7.068,205.898 7.318,205.786L7.318,206.781C7.057,206.927 6.766,207 6.443,207C4.814,207 4,205.67 4,203.01C4,201.573 4.198,200.503 4.594,199.802C4.993,199.101 5.602,198.75 6.422,198.75C6.724,198.75 7.023,198.83 7.318,198.99L7.318,198.99Z" style="fill:rgb(158,161,168);fill-rule:nonzero;"/>
            <path id="path1662" d="M8.224,198.859L9.307,198.859L9.307,202.005L10.896,202.005L10.896,198.859L11.979,198.859L11.979,206.901L10.896,206.901L10.896,202.922L9.307,202.922L9.307,206.901L8.224,206.901L8.224,198.859Z" style="fill:rgb(158,161,168);fill-rule:nonzero;"/>
            <path id="path1664" d="M14.37,198.859L15.214,198.859L16.938,206.901L15.865,206.901L15.563,205.333L13.969,205.333L13.661,206.901L12.62,206.901L14.37,198.859ZM15.406,204.495L15.167,203.214C15.007,202.342 14.877,201.411 14.776,200.422C14.727,200.905 14.665,201.394 14.589,201.891C14.512,202.384 14.422,202.908 14.318,203.464L14.12,204.495L15.406,204.495Z" style="fill:rgb(158,161,168);fill-rule:nonzero;"/>
            <rect id="path1666" x="17.578" y="198.859" width="1.083" height="8.042" style="fill:rgb(158,161,168);fill-rule:nonzero;"/>
            <path id="path1668" d="M19.911,198.859L20.922,198.859L22,202.068C22.312,202.974 22.589,203.941 22.828,204.969C22.741,204.347 22.677,203.785 22.635,203.281C22.594,202.778 22.573,202.304 22.573,201.859L22.573,198.859L23.661,198.859L23.661,206.901L22.646,206.901L21.432,203.281C21.321,202.944 21.215,202.599 21.115,202.245C21.017,201.891 20.927,201.519 20.844,201.13C20.837,201.082 20.825,201.023 20.807,200.953C20.793,200.884 20.776,200.804 20.755,200.714C20.766,200.804 20.774,200.882 20.781,200.948C20.788,201.01 20.793,201.064 20.797,201.109L20.854,201.927L20.911,202.922C20.915,202.977 20.917,203.045 20.917,203.125C20.92,203.205 20.922,203.295 20.922,203.396L20.979,206.901L19.911,206.901L19.911,198.859Z" style="fill:rgb(158,161,168);fill-rule:nonzero;"/>
            <path id="path1670" d="M26.479,198.859L30.005,198.859L30.005,199.807L28.792,199.807L28.792,206.901L27.729,206.901L27.729,199.807L26.479,199.807L26.479,198.859Z" style="fill:rgb(158,161,168);fill-rule:nonzero;"/>
            <path id="path1672" d="M30.599,198.859L32.026,198.859C32.616,198.859 33.056,199 33.344,199.281C33.708,199.646 33.891,200.203 33.891,200.953C33.891,201.53 33.793,201.993 33.599,202.344C33.408,202.691 33.134,202.906 32.776,202.99L34.255,206.901L33.156,206.901L31.682,202.964L31.682,206.901L30.599,206.901L30.599,198.859ZM31.682,202.422C32.102,202.422 32.399,202.325 32.573,202.13C32.747,201.936 32.833,201.608 32.833,201.146C32.833,200.896 32.814,200.682 32.776,200.505C32.741,200.328 32.684,200.184 32.604,200.073C32.528,199.962 32.427,199.88 32.302,199.828C32.181,199.776 32.035,199.75 31.865,199.75L31.682,199.75L31.682,202.422Z" style="fill:rgb(158,161,168);fill-rule:nonzero;"/>
            <rect id="path1674" x="35.099" y="198.859" width="1.083" height="8.042" style="fill:rgb(158,161,168);fill-rule:nonzero;"/>
            <path id="path1676" d="M39.359,202.672L41.328,202.672L41.328,202.984C41.328,204.55 41.191,205.608 40.917,206.156C40.646,206.719 40.139,207 39.396,207C38.628,207 38.082,206.687 37.755,206.062C37.432,205.437 37.271,204.387 37.271,202.911C37.271,201.224 37.448,200.101 37.802,199.542C38.135,199.017 38.648,198.755 39.339,198.755C39.866,198.755 40.278,198.882 40.573,199.135C40.872,199.392 41.104,199.814 41.271,200.401L40.26,200.823C40.215,200.611 40.165,200.434 40.109,200.292C40.054,200.146 39.993,200.033 39.927,199.953C39.795,199.79 39.597,199.708 39.333,199.708C38.972,199.708 38.726,199.931 38.594,200.375C38.462,200.84 38.396,201.675 38.396,202.88C38.396,204.099 38.464,204.924 38.599,205.354C38.734,205.785 38.99,206 39.365,206C39.708,206 39.95,205.847 40.089,205.542C40.231,205.215 40.302,204.691 40.302,203.969L40.302,203.75L40.302,203.589L39.359,203.589L39.359,202.672Z" style="fill:rgb(158,161,168);fill-rule:nonzero;"/>
            <path id="path1678" d="M48.646,203.078C48.646,204.498 48.488,205.507 48.172,206.104C47.856,206.701 47.326,207 46.583,207C45.802,207 45.252,206.679 44.932,206.036C44.616,205.408 44.458,204.292 44.458,202.687C44.458,201.257 44.615,200.245 44.927,199.651C45.243,199.054 45.778,198.755 46.531,198.755C47.205,198.755 47.705,198.986 48.031,199.448C48.247,199.757 48.403,200.196 48.5,200.766C48.597,201.293 48.646,202.064 48.646,203.078L48.646,203.078ZM47.51,203.193C47.51,201.8 47.448,200.877 47.323,200.422C47.198,199.964 46.943,199.734 46.557,199.734C46.172,199.734 45.915,199.944 45.786,200.365C45.661,200.788 45.599,201.639 45.599,202.917C45.599,204.094 45.665,204.91 45.797,205.365C45.932,205.795 46.186,206.01 46.557,206.01C46.922,206.01 47.172,205.809 47.307,205.406C47.443,205.007 47.51,204.269 47.51,203.193L47.51,203.193Z" style="fill:rgb(158,161,168);fill-rule:nonzero;"/>
            <path id="path1680" d="M49.724,198.859L50.786,198.859L50.786,204.542C50.786,205.122 50.839,205.507 50.943,205.698C51.05,205.889 51.262,205.984 51.578,205.984C51.894,205.984 52.102,205.901 52.203,205.734C52.307,205.564 52.359,205.219 52.359,204.698L52.359,198.859L53.422,198.859L53.422,204.698C53.422,205.573 53.288,206.165 53.021,206.474C52.701,206.825 52.214,207 51.557,207C50.835,207 50.326,206.774 50.031,206.323C49.826,206.014 49.724,205.42 49.724,204.542L49.724,198.859Z" style="fill:rgb(158,161,168);fill-rule:nonzero;"/>
            <path id="path1682" d="M54.021,198.859L57.547,198.859L57.547,199.807L56.333,199.807L56.333,206.901L55.271,206.901L55.271,199.807L54.021,199.807L54.021,198.859Z" style="fill:rgb(158,161,168);fill-rule:nonzero;"/>
        </g>
        <g id="text1610" transform="matrix(1,0,0,1,0.5,7)">
            <path id="path1653" d="M5.5,321.803L7.66,321.803L7.66,322.491L6.313,322.491L6.313,324.401L7.508,324.401L7.508,325.088L6.313,325.088L6.313,327.147L7.66,327.147L7.66,327.834L5.5,327.834L5.5,321.803Z" style="fill:rgb(158,161,168);fill-rule:nonzero;"/>
            <path id="path1655" d="M11.426,324.967C11.426,326.032 11.307,326.789 11.07,327.237C10.833,327.685 10.436,327.909 9.879,327.909C9.293,327.909 8.88,327.668 8.641,327.186C8.404,326.715 8.285,325.877 8.285,324.674C8.285,323.601 8.402,322.842 8.637,322.397C8.874,321.949 9.275,321.725 9.84,321.725C10.345,321.725 10.72,321.898 10.965,322.245C11.126,322.476 11.243,322.806 11.316,323.233C11.389,323.629 11.426,324.207 11.426,324.967L11.426,324.967ZM10.574,325.053C10.574,324.009 10.527,323.316 10.434,322.975C10.34,322.631 10.148,322.459 9.859,322.459C9.57,322.459 9.378,322.617 9.281,322.932C9.188,323.25 9.141,323.888 9.141,324.846C9.141,325.729 9.19,326.341 9.289,326.682C9.391,327.005 9.581,327.166 9.859,327.166C10.133,327.166 10.32,327.015 10.422,326.713C10.523,326.414 10.574,325.86 10.574,325.053L10.574,325.053Z" style="fill:rgb(158,161,168);fill-rule:nonzero;"/>
            <path id="path1657" d="M12.234,321.803L13.234,321.803C13.539,321.803 13.796,321.837 14.004,321.905C14.197,321.97 14.368,322.086 14.52,322.252C14.746,322.502 14.908,322.828 15.004,323.229C15.1,323.617 15.148,324.173 15.148,324.897C15.148,325.561 15.095,326.103 14.988,326.522C14.884,326.923 14.712,327.229 14.473,327.44C14.178,327.703 13.651,327.834 12.891,327.834L12.234,327.834L12.234,321.803ZM13.047,327.123C13.542,327.123 13.872,326.974 14.039,326.674C14.211,326.375 14.297,325.793 14.297,324.928C14.297,323.998 14.215,323.359 14.051,323.01C13.887,322.661 13.586,322.487 13.148,322.487L13.047,322.487L13.047,327.123Z" style="fill:rgb(158,161,168);fill-rule:nonzero;"/>
        </g>
        <g id="text1618" transform="matrix(1,0,0,1,-0.499699,7)">
            <path id="path1646" d="M28.907,321.803L31.067,321.803L31.067,322.491L29.719,322.491L29.719,324.401L30.915,324.401L30.915,325.088L29.719,325.088L29.719,327.147L31.067,327.147L31.067,327.834L28.907,327.834L28.907,321.803Z" style="fill:rgb(158,161,168);fill-rule:nonzero;"/>
            <path id="path1648" d="M34.832,324.967C34.832,326.032 34.714,326.789 34.477,327.237C34.24,327.685 33.843,327.909 33.286,327.909C32.7,327.909 32.287,327.668 32.047,327.186C31.81,326.715 31.692,325.877 31.692,324.674C31.692,323.601 31.809,322.842 32.043,322.397C32.28,321.949 32.681,321.725 33.247,321.725C33.752,321.725 34.127,321.898 34.372,322.245C34.533,322.476 34.65,322.806 34.723,323.233C34.796,323.629 34.832,324.207 34.832,324.967L34.832,324.967ZM33.981,325.053C33.981,324.009 33.934,323.316 33.84,322.975C33.747,322.631 33.555,322.459 33.266,322.459C32.977,322.459 32.784,322.617 32.688,322.932C32.594,323.25 32.547,323.888 32.547,324.846C32.547,325.729 32.597,326.341 32.696,326.682C32.797,327.005 32.987,327.166 33.266,327.166C33.54,327.166 33.727,327.015 33.829,326.713C33.93,326.414 33.981,325.86 33.981,325.053L33.981,325.053Z" style="fill:rgb(158,161,168);fill-rule:nonzero;"/>
            <path id="path1650" d="M35.641,321.803L36.711,321.803C37.154,321.803 37.484,321.909 37.7,322.12C37.973,322.393 38.11,322.811 38.11,323.373C38.11,323.806 38.037,324.153 37.891,324.416C37.748,324.677 37.542,324.838 37.274,324.901L38.383,327.834L37.559,327.834L36.454,324.881L36.454,327.834L35.641,327.834L35.641,321.803ZM36.454,324.475C36.769,324.475 36.991,324.402 37.122,324.256C37.252,324.11 37.317,323.864 37.317,323.518C37.317,323.331 37.303,323.17 37.274,323.038C37.248,322.905 37.205,322.797 37.145,322.713C37.088,322.63 37.012,322.569 36.918,322.53C36.827,322.491 36.718,322.471 36.59,322.471L36.454,322.471L36.454,324.475Z" style="fill:rgb(158,161,168);fill-rule:nonzero;"/>
        </g>
        <g id="text1626" transform="matrix(1,0,0,1,-3.49972,7.00001)">
            <path id="path1639" d="M75.736,321.807L77.896,321.807L77.896,322.495L76.548,322.495L76.548,324.405L77.744,324.405L77.744,325.092L76.548,325.092L76.548,327.151L77.896,327.151L77.896,327.838L75.736,327.838L75.736,321.807Z" style="fill:rgb(158,161,168);fill-rule:nonzero;"/>
            <path id="path1641" d="M81.662,324.971C81.662,326.036 81.543,326.793 81.306,327.241C81.069,327.689 80.672,327.913 80.115,327.913C79.529,327.913 79.116,327.672 78.876,327.19C78.639,326.719 78.521,325.881 78.521,324.678C78.521,323.605 78.638,322.846 78.872,322.401C79.109,321.953 79.51,321.729 80.076,321.729C80.581,321.729 80.956,321.902 81.201,322.248C81.362,322.48 81.479,322.81 81.552,323.237C81.625,323.633 81.662,324.211 81.662,324.971L81.662,324.971ZM80.81,325.057C80.81,324.013 80.763,323.32 80.669,322.979C80.576,322.635 80.384,322.463 80.095,322.463C79.806,322.463 79.613,322.621 79.517,322.936C79.423,323.254 79.376,323.892 79.376,324.85C79.376,325.733 79.426,326.345 79.525,326.686C79.626,327.009 79.816,327.17 80.095,327.17C80.368,327.17 80.556,327.019 80.658,326.717C80.759,326.418 80.81,325.864 80.81,325.057L80.81,325.057Z" style="fill:rgb(158,161,168);fill-rule:nonzero;"/>
            <path id="path1643" d="M84.837,321.905L84.837,322.635C84.629,322.534 84.454,322.483 84.314,322.483C84.121,322.483 83.956,322.531 83.818,322.627C83.68,322.721 83.565,322.867 83.474,323.065C83.385,323.263 83.319,323.514 83.275,323.819C83.233,324.121 83.212,324.479 83.212,324.893C83.212,326.383 83.594,327.127 84.357,327.127C84.49,327.127 84.65,327.086 84.837,327.002L84.837,327.748C84.642,327.858 84.423,327.913 84.181,327.913C82.96,327.913 82.349,326.915 82.349,324.92C82.349,323.842 82.497,323.04 82.794,322.514C83.094,321.988 83.551,321.725 84.165,321.725C84.392,321.725 84.616,321.785 84.837,321.905L84.837,321.905Z" style="fill:rgb(158,161,168);fill-rule:nonzero;"/>
        </g>
        <g id="text1436" transform="matrix(1,0,0,1,143.879,93.0546)">
            <path id="path1439" d="M-139.879,-18.195L-138.796,-18.195L-138.796,-15.049L-137.207,-15.049L-137.207,-18.195L-136.124,-18.195L-136.124,-10.154L-137.207,-10.154L-137.207,-14.133L-138.796,-14.133L-138.796,-10.154L-139.879,-10.154L-139.879,-18.195Z" style="fill:rgb(158,161,168);fill-rule:nonzero;"/>
            <path id="path1441" d="M-130.853,-13.976C-130.853,-12.556 -131.011,-11.548 -131.327,-10.95C-131.643,-10.353 -132.172,-10.055 -132.915,-10.055C-133.697,-10.055 -134.247,-10.376 -134.566,-11.018C-134.882,-11.647 -135.04,-12.763 -135.04,-14.367C-135.04,-15.798 -134.884,-16.81 -134.572,-17.404C-134.256,-18.001 -133.721,-18.299 -132.967,-18.299C-132.294,-18.299 -131.794,-18.068 -131.467,-17.607C-131.252,-17.298 -131.096,-16.858 -130.999,-16.289C-130.901,-15.761 -130.853,-14.99 -130.853,-13.976L-130.853,-13.976ZM-131.988,-13.862C-131.988,-15.254 -132.051,-16.178 -132.176,-16.633C-132.301,-17.091 -132.556,-17.32 -132.941,-17.32C-133.327,-17.32 -133.584,-17.11 -133.712,-16.69C-133.837,-16.266 -133.9,-15.416 -133.9,-14.138C-133.9,-12.961 -133.834,-12.145 -133.702,-11.69C-133.566,-11.259 -133.313,-11.044 -132.941,-11.044C-132.577,-11.044 -132.327,-11.246 -132.191,-11.648C-132.056,-12.048 -131.988,-12.785 -131.988,-13.862L-131.988,-13.862Z" style="fill:rgb(158,161,168);fill-rule:nonzero;"/>
            <path id="path1443" d="M-129.775,-18.195L-128.691,-18.195L-128.691,-11.07L-126.921,-11.07L-126.921,-10.154L-129.775,-10.154L-129.775,-18.195Z" style="fill:rgb(158,161,168);fill-rule:nonzero;"/>
            <path id="path1445" d="M-126.233,-18.195L-124.9,-18.195C-124.493,-18.195 -124.151,-18.15 -123.874,-18.06C-123.617,-17.973 -123.388,-17.818 -123.186,-17.596C-122.884,-17.263 -122.669,-16.829 -122.54,-16.294C-122.412,-15.777 -122.348,-15.035 -122.348,-14.07C-122.348,-13.185 -122.419,-12.463 -122.561,-11.904C-122.7,-11.369 -122.929,-10.961 -123.249,-10.68C-123.641,-10.329 -124.344,-10.154 -125.358,-10.154L-126.233,-10.154L-126.233,-18.195ZM-125.15,-11.101C-124.49,-11.101 -124.049,-11.301 -123.827,-11.7C-123.598,-12.1 -123.483,-12.876 -123.483,-14.029C-123.483,-15.268 -123.592,-16.121 -123.811,-16.586C-124.03,-17.051 -124.431,-17.284 -125.014,-17.284L-125.15,-17.284L-125.15,-11.101Z" style="fill:rgb(158,161,168);fill-rule:nonzero;"/>
        </g>
        <g id="text1474" transform="matrix(1,0,0,1,0,-6)">
            <path id="path1553" d="M4,102.859L5.333,102.859C5.74,102.859 6.082,102.905 6.359,102.995C6.616,103.082 6.845,103.236 7.047,103.458C7.349,103.792 7.564,104.226 7.693,104.76C7.821,105.278 7.885,106.019 7.885,106.984C7.885,107.87 7.814,108.592 7.672,109.151C7.533,109.686 7.304,110.094 6.984,110.375C6.592,110.726 5.889,110.901 4.875,110.901L4,110.901L4,102.859ZM5.083,109.953C5.743,109.953 6.184,109.753 6.406,109.354C6.635,108.955 6.75,108.179 6.75,107.026C6.75,105.786 6.641,104.934 6.422,104.469C6.203,104.003 5.802,103.771 5.219,103.771L5.083,103.771L5.083,109.953Z" style="fill:rgb(158,161,168);fill-rule:nonzero;"/>
            <path id="path1555" d="M8.958,102.859L11.839,102.859L11.839,103.776L10.042,103.776L10.042,106.323L11.635,106.323L11.635,107.24L10.042,107.24L10.042,109.984L11.839,109.984L11.839,110.901L8.958,110.901L8.958,102.859Z" style="fill:rgb(158,161,168);fill-rule:nonzero;"/>
            <path id="path1557" d="M15.99,102.99L15.99,103.964C15.712,103.828 15.479,103.76 15.292,103.76C15.035,103.76 14.814,103.825 14.63,103.953C14.446,104.078 14.293,104.273 14.172,104.536C14.054,104.8 13.965,105.135 13.906,105.542C13.851,105.944 13.823,106.422 13.823,106.974C13.823,108.96 14.332,109.953 15.349,109.953C15.526,109.953 15.74,109.898 15.99,109.786L15.99,110.781C15.729,110.927 15.438,111 15.115,111C13.486,111 12.672,109.67 12.672,107.01C12.672,105.573 12.87,104.503 13.266,103.802C13.665,103.101 14.274,102.75 15.094,102.75C15.396,102.75 15.694,102.83 15.99,102.99L15.99,102.99Z" style="fill:rgb(158,161,168);fill-rule:nonzero;"/>
            <path id="path1559" d="M18.333,102.859L19.177,102.859L20.901,110.901L19.828,110.901L19.526,109.333L17.932,109.333L17.625,110.901L16.583,110.901L18.333,102.859ZM19.37,108.495L19.13,107.214C18.97,106.342 18.84,105.411 18.74,104.422C18.691,104.905 18.628,105.394 18.552,105.891C18.476,106.384 18.385,106.908 18.281,107.464L18.083,108.495L19.37,108.495Z" style="fill:rgb(158,161,168);fill-rule:nonzero;"/>
            <path id="path1562" d="M20.526,102.859L21.672,102.859L22.203,104.609C22.22,104.661 22.238,104.719 22.255,104.781C22.273,104.844 22.293,104.911 22.318,104.984C22.516,105.616 22.651,106.148 22.724,106.578C22.786,106.148 22.839,105.847 22.88,105.677L23.047,104.958L23.109,104.677L23.557,102.859L24.688,102.859L23.286,107.443L23.286,110.901L22.203,110.901L22.203,107.443L20.526,102.859Z" style="fill:rgb(158,161,168);fill-rule:nonzero;"/>
        </g>
        <g id="text1478" transform="matrix(1,0,0,1,0,-8)">
            <path id="path1533" d="M4,126.875L5.083,126.875L5.083,134L6.854,134L6.854,134.917L4,134.917L4,126.875Z" style="fill:rgb(158,161,168);fill-rule:nonzero;"/>
            <rect id="path1536" x="7.542" y="126.875" width="1.083" height="8.042" style="fill:rgb(158,161,168);fill-rule:nonzero;"/>
            <path id="path1538" d="M9.875,126.875L10.885,126.875L11.964,130.083C12.276,130.99 12.552,131.957 12.792,132.984C12.705,132.363 12.641,131.8 12.599,131.297C12.557,130.793 12.536,130.319 12.536,129.875L12.536,126.875L13.625,126.875L13.625,134.917L12.609,134.917L11.396,131.297C11.285,130.96 11.179,130.615 11.078,130.26C10.981,129.906 10.891,129.535 10.807,129.146C10.8,129.097 10.788,129.038 10.771,128.969C10.757,128.899 10.74,128.819 10.719,128.729C10.729,128.819 10.738,128.898 10.745,128.964C10.752,129.026 10.757,129.08 10.76,129.125L10.818,129.943L10.875,130.938C10.878,130.993 10.88,131.061 10.88,131.141C10.884,131.22 10.885,131.311 10.885,131.411L10.943,134.917L9.875,134.917L9.875,126.875Z" style="fill:rgb(158,161,168);fill-rule:nonzero;"/>
            <path id="path1540" d="M17.146,128.016L18.141,128.016L18.141,129.526L18.682,129.526L18.682,130.318L18.141,130.318L18.141,134.917L17.146,134.917L17.146,130.318L16.599,130.318L16.599,129.526L17.146,129.526L17.146,128.016Z" style="fill:rgb(158,161,168);fill-rule:nonzero;"/>
            <path id="path1542" d="M22.563,132.266C22.563,134.089 21.998,135 20.87,135C19.741,135 19.177,134.075 19.177,132.224C19.177,130.366 19.74,129.437 20.865,129.437C21.156,129.437 21.408,129.493 21.62,129.604C21.835,129.715 22.012,129.887 22.151,130.12C22.29,130.352 22.392,130.646 22.458,131C22.528,131.354 22.563,131.776 22.563,132.266L22.563,132.266ZM21.531,132.24C21.531,131.531 21.484,131.038 21.391,130.76C21.297,130.479 21.13,130.339 20.891,130.339C20.655,130.339 20.486,130.477 20.385,130.755C20.292,131.033 20.245,131.517 20.245,132.208C20.245,132.899 20.292,133.382 20.385,133.656C20.486,133.934 20.655,134.073 20.891,134.073C21.127,134.073 21.292,133.936 21.385,133.661C21.483,133.404 21.531,132.931 21.531,132.24L21.531,132.24Z" style="fill:rgb(158,161,168);fill-rule:nonzero;"/>
            <path id="path1544" d="M25.75,126.875L28.63,126.875L28.63,127.792L26.833,127.792L26.833,130.339L28.427,130.339L28.427,131.255L26.833,131.255L26.833,134L28.63,134L28.63,134.917L25.75,134.917L25.75,126.875Z" style="fill:rgb(158,161,168);fill-rule:nonzero;"/>
            <path id="path1546" d="M29.078,126.875L30.13,126.875L30.687,128.432C30.906,129.047 31.036,129.497 31.078,129.781C31.116,129.604 31.158,129.432 31.203,129.266C31.252,129.099 31.302,128.932 31.354,128.766L31.427,128.531L31.943,126.875L33.036,126.875L31.547,130.833L33.036,134.917L31.943,134.917L31.411,133.385C31.304,133.08 31.217,132.806 31.151,132.562C31.085,132.319 31.038,132.104 31.01,131.917C30.983,132.149 30.936,132.372 30.87,132.583L30.688,133.156L30.594,133.458L30.13,134.917L28.984,134.917L30.505,130.833L29.078,126.875Z" style="fill:rgb(158,161,168);fill-rule:nonzero;"/>
            <path id="path1549" d="M33.625,126.875L35.052,126.875C35.74,126.875 36.24,127.049 36.552,127.396C36.865,127.747 37.021,128.302 37.021,129.062C37.021,130.132 36.707,130.823 36.078,131.135C35.762,131.278 35.306,131.349 34.708,131.349L34.708,134.917L33.625,134.917L33.625,126.875ZM34.708,130.422C35.156,130.422 35.465,130.332 35.635,130.151C35.809,129.967 35.896,129.641 35.896,129.172C35.896,128.693 35.813,128.342 35.646,128.12C35.479,127.898 35.217,127.786 34.859,127.786L34.708,127.786L34.708,130.422Z" style="fill:rgb(158,161,168);fill-rule:nonzero;"/>
        </g>
        <g id="text1482" transform="matrix(1,0,0,1,0,-10)">
            <path id="path1521" d="M6.922,151.026L6.922,152.083C6.592,151.847 6.295,151.729 6.031,151.729C5.747,151.729 5.514,151.83 5.333,152.031C5.153,152.222 5.063,152.477 5.063,152.797C5.063,153.078 5.127,153.319 5.255,153.521C5.321,153.628 5.429,153.767 5.578,153.937C5.731,154.108 5.927,154.312 6.167,154.552C6.608,155 6.908,155.387 7.068,155.714C7.227,156.03 7.307,156.417 7.307,156.875C7.307,157.497 7.132,158.009 6.781,158.411C6.431,158.804 5.981,159 5.432,159C4.97,159 4.576,158.873 4.25,158.62L4.25,157.547C4.635,157.828 4.986,157.969 5.302,157.969C5.597,157.969 5.828,157.872 5.995,157.677C6.161,157.479 6.245,157.212 6.245,156.875C6.245,156.583 6.181,156.321 6.052,156.089C5.986,155.977 5.894,155.851 5.776,155.708C5.658,155.562 5.51,155.401 5.333,155.224C5.059,154.953 4.832,154.714 4.651,154.505C4.47,154.297 4.337,154.115 4.25,153.958C4.083,153.653 4,153.267 4,152.802C4,152.174 4.163,151.675 4.49,151.307C4.819,150.936 5.262,150.75 5.818,150.75C6.203,150.75 6.571,150.842 6.922,151.026L6.922,151.026Z" style="fill:rgb(158,161,168);fill-rule:nonzero;"/>
            <path id="path1523" d="M11.375,150.99L11.375,151.964C11.097,151.828 10.865,151.76 10.677,151.76C10.42,151.76 10.2,151.825 10.016,151.953C9.832,152.078 9.679,152.273 9.557,152.536C9.439,152.8 9.351,153.135 9.292,153.542C9.236,153.944 9.208,154.422 9.208,154.974C9.208,156.96 9.717,157.953 10.734,157.953C10.911,157.953 11.125,157.898 11.375,157.786L11.375,158.781C11.115,158.927 10.823,159 10.5,159C8.872,159 8.057,157.67 8.057,155.01C8.057,153.573 8.255,152.503 8.651,151.802C9.05,151.101 9.66,150.75 10.479,150.75C10.781,150.75 11.08,150.83 11.375,150.99L11.375,150.99Z" style="fill:rgb(158,161,168);fill-rule:nonzero;"/>
            <path id="path1525" d="M13.719,150.859L14.563,150.859L16.286,158.901L15.214,158.901L14.911,157.333L13.318,157.333L13.01,158.901L11.969,158.901L13.719,150.859ZM14.755,156.495L14.516,155.214C14.356,154.342 14.226,153.411 14.125,152.422C14.076,152.905 14.014,153.394 13.938,153.891C13.861,154.384 13.771,154.908 13.667,155.464L13.469,156.495L14.755,156.495Z" style="fill:rgb(158,161,168);fill-rule:nonzero;"/>
            <path id="path1527" d="M16.927,150.859L18.01,150.859L18.01,157.984L19.781,157.984L19.781,158.901L16.927,158.901L16.927,150.859Z" style="fill:rgb(158,161,168);fill-rule:nonzero;"/>
            <path id="path1529" d="M20.469,150.859L23.349,150.859L23.349,151.776L21.552,151.776L21.552,154.323L23.146,154.323L23.146,155.24L21.552,155.24L21.552,157.984L23.349,157.984L23.349,158.901L20.469,158.901L20.469,150.859Z" style="fill:rgb(158,161,168);fill-rule:nonzero;"/>
        </g>
        <g id="text1486" transform="matrix(1,0,0,1,0,9.00001)">
            <path id="path1501" d="M4,270.859L5.068,270.859L5.552,273.828L5.635,274.365L5.807,275.531C5.835,275.729 5.859,275.91 5.88,276.073C5.905,276.236 5.925,276.384 5.943,276.516L5.995,276.911C6.005,276.832 6.014,276.76 6.021,276.698C6.028,276.635 6.035,276.583 6.042,276.542L6.182,275.609L6.365,274.385C6.382,274.274 6.398,274.172 6.411,274.078C6.429,273.984 6.444,273.901 6.458,273.828L6.979,270.859L7.99,270.859L6.411,278.901L5.552,278.901L4,270.859Z" style="fill:rgb(158,161,168);fill-rule:nonzero;"/>
            <path id="path1503" d="M11.714,270.99L11.714,271.964C11.436,271.828 11.203,271.76 11.016,271.76C10.759,271.76 10.538,271.825 10.354,271.953C10.17,272.078 10.017,272.273 9.896,272.536C9.778,272.8 9.689,273.135 9.63,273.542C9.575,273.944 9.547,274.422 9.547,274.974C9.547,276.96 10.056,277.953 11.073,277.953C11.25,277.953 11.464,277.898 11.714,277.786L11.714,278.781C11.453,278.927 11.161,279 10.839,279C9.21,279 8.396,277.67 8.396,275.01C8.396,273.573 8.594,272.504 8.99,271.802C9.389,271.101 9.998,270.75 10.818,270.75C11.12,270.75 11.418,270.83 11.714,270.99L11.714,270.99Z" style="fill:rgb(158,161,168);fill-rule:nonzero;"/>
            <path id="path1506" d="M14.057,270.859L14.901,270.859L16.625,278.901L15.552,278.901L15.25,277.333L13.656,277.333L13.349,278.901L12.307,278.901L14.057,270.859ZM15.094,276.495L14.854,275.214C14.694,274.342 14.564,273.411 14.464,272.422C14.415,272.905 14.352,273.394 14.276,273.891C14.2,274.384 14.109,274.908 14.005,275.464L13.807,276.495L15.094,276.495Z" style="fill:rgb(158,161,168);fill-rule:nonzero;"/>
            <path id="path1508" d="M19.417,273.51L20.417,273.51L20.417,278.901L19.417,278.901L19.417,273.51ZM19.885,271.219C20.066,271.219 20.222,271.285 20.354,271.417C20.486,271.549 20.552,271.707 20.552,271.891C20.552,272.078 20.486,272.238 20.354,272.37C20.222,272.502 20.063,272.568 19.875,272.568C19.688,272.568 19.528,272.502 19.396,272.37C19.267,272.241 19.203,272.08 19.203,271.885C19.203,271.705 19.269,271.549 19.401,271.417C19.543,271.285 19.705,271.219 19.885,271.219Z" style="fill:rgb(158,161,168);fill-rule:nonzero;"/>
            <path id="path1510" d="M21.542,273.51L22.536,273.51L22.536,274.13C22.821,273.658 23.189,273.422 23.641,273.422C24.078,273.422 24.391,273.594 24.578,273.938C24.682,274.132 24.734,274.509 24.734,275.068L24.734,278.901L23.74,278.901L23.734,275.297C23.734,274.932 23.691,274.674 23.604,274.521C23.517,274.368 23.368,274.292 23.156,274.292C23.042,274.292 22.944,274.313 22.865,274.354C22.788,274.392 22.726,274.457 22.677,274.547C22.628,274.634 22.592,274.748 22.568,274.891C22.547,275.033 22.536,275.208 22.536,275.417L22.536,278.901L21.542,278.901L21.542,273.51Z" style="fill:rgb(158,161,168);fill-rule:nonzero;"/>
            <path id="path1513" d="M31.245,276.25C31.245,278.073 30.681,278.984 29.552,278.984C28.424,278.984 27.859,278.059 27.859,276.208C27.859,274.351 28.422,273.422 29.547,273.422C29.839,273.422 30.09,273.477 30.302,273.589C30.517,273.7 30.694,273.872 30.833,274.104C30.972,274.337 31.075,274.63 31.141,274.984C31.21,275.339 31.245,275.76 31.245,276.25L31.245,276.25ZM30.214,276.224C30.214,275.516 30.167,275.023 30.073,274.745C29.979,274.464 29.812,274.323 29.573,274.323C29.337,274.323 29.168,274.462 29.068,274.74C28.974,275.017 28.927,275.502 28.927,276.193C28.927,276.884 28.974,277.366 29.068,277.641C29.168,277.918 29.337,278.057 29.573,278.057C29.809,278.057 29.974,277.92 30.068,277.646C30.165,277.389 30.214,276.915 30.214,276.224L30.214,276.224Z" style="fill:rgb(158,161,168);fill-rule:nonzero;"/>
            <path id="path1515" d="M32.167,273.51L33.161,273.51L33.161,277.115C33.168,277.448 33.217,277.686 33.307,277.828C33.401,277.97 33.556,278.042 33.771,278.042C33.997,278.042 34.155,277.979 34.245,277.854C34.335,277.722 34.38,277.493 34.38,277.167L34.38,276.734L34.38,273.51L35.375,273.51L35.375,276.734C35.375,277.488 35.319,277.991 35.208,278.245C34.976,278.738 34.493,278.984 33.76,278.984C33.184,278.984 32.774,278.839 32.531,278.547C32.288,278.252 32.167,277.76 32.167,277.073L32.167,273.51Z" style="fill:rgb(158,161,168);fill-rule:nonzero;"/>
            <path id="path1517" d="M36.62,272L37.615,272L37.615,273.51L38.156,273.51L38.156,274.302L37.615,274.302L37.615,278.901L36.62,278.901L36.62,274.302L36.073,274.302L36.073,273.51L36.62,273.51L36.62,272Z" style="fill:rgb(158,161,168);fill-rule:nonzero;"/>
        </g>
        <g id="text1490" transform="matrix(1,0,0,1,-2,12.4956)">
            <path id="path1493" d="M52.448,316.308L54.608,316.308L54.608,316.995L53.261,316.995L53.261,318.905L54.456,318.905L54.456,319.593L53.261,319.593L53.261,321.651L54.608,321.651L54.608,322.339L52.448,322.339L52.448,316.308Z" style="fill:rgb(158,161,168);fill-rule:nonzero;"/>
            <path id="path1495" d="M58.374,319.472C58.374,320.537 58.255,321.293 58.018,321.741C57.781,322.189 57.384,322.413 56.827,322.413C56.241,322.413 55.828,322.172 55.589,321.69C55.352,321.219 55.233,320.382 55.233,319.179C55.233,318.106 55.35,317.347 55.585,316.901C55.822,316.453 56.223,316.229 56.788,316.229C57.293,316.229 57.668,316.403 57.913,316.749C58.074,316.981 58.192,317.31 58.264,317.737C58.337,318.133 58.374,318.711 58.374,319.472L58.374,319.472ZM57.522,319.558C57.522,318.513 57.475,317.821 57.382,317.479C57.288,317.136 57.096,316.964 56.807,316.964C56.518,316.964 56.326,317.121 56.229,317.436C56.135,317.754 56.089,318.392 56.089,319.35C56.089,320.233 56.138,320.845 56.237,321.186C56.339,321.509 56.529,321.671 56.807,321.671C57.081,321.671 57.268,321.52 57.37,321.218C57.471,320.918 57.522,320.365 57.522,319.558L57.522,319.558Z" style="fill:rgb(158,161,168);fill-rule:nonzero;"/>
            <path id="path1497" d="M59.182,316.308L59.995,316.308L59.995,318.667L61.186,318.667L61.186,316.308L61.999,316.308L61.999,322.339L61.186,322.339L61.186,319.354L59.995,319.354L59.995,322.339L59.182,322.339L59.182,316.308Z" style="fill:rgb(158,161,168);fill-rule:nonzero;"/>
        </g>
        <g id="text1495" transform="matrix(1,0,0,1,45,-15)">
            <path id="path1665" d="M4,260.859L5.469,260.859C6.618,260.859 7.193,261.573 7.193,263C7.193,263.545 7.118,263.95 6.969,264.214C6.819,264.477 6.556,264.677 6.177,264.812C6.611,264.986 6.908,265.208 7.068,265.479C7.231,265.747 7.313,266.149 7.313,266.687C7.313,268.163 6.681,268.901 5.417,268.901L4,268.901L4,260.859ZM5.021,264.401C5.441,264.401 5.733,264.304 5.896,264.109C6.059,263.905 6.141,263.545 6.141,263.031C6.141,262.163 5.828,261.729 5.203,261.729L5.12,261.729L5.073,261.729C5.045,261.729 5.028,261.731 5.021,261.734L5.021,264.401ZM5.021,267.974C5.465,267.974 5.773,267.878 5.943,267.688C6.113,267.497 6.198,267.151 6.198,266.651C6.198,266.137 6.109,265.778 5.932,265.573C5.759,265.365 5.455,265.26 5.021,265.26L5.021,267.974Z" style="fill:rgb(158,161,168);fill-rule:nonzero;"/>
            <path id="path1667" d="M8.396,260.859L9.458,260.859L9.458,266.542C9.458,267.122 9.51,267.507 9.615,267.698C9.722,267.889 9.934,267.984 10.25,267.984C10.566,267.984 10.774,267.901 10.875,267.734C10.979,267.564 11.031,267.219 11.031,266.698L11.031,260.859L12.094,260.859L12.094,266.698C12.094,267.573 11.96,268.165 11.693,268.474C11.373,268.825 10.885,269 10.229,269C9.507,269 8.998,268.774 8.703,268.323C8.498,268.014 8.396,267.42 8.396,266.542L8.396,260.859Z" style="fill:rgb(158,161,168);fill-rule:nonzero;"/>
            <path id="path1669" d="M16.016,261.026L16.016,262.083C15.686,261.847 15.389,261.729 15.125,261.729C14.84,261.729 14.608,261.83 14.427,262.031C14.247,262.222 14.156,262.477 14.156,262.797C14.156,263.078 14.22,263.319 14.349,263.521C14.415,263.628 14.523,263.767 14.672,263.938C14.825,264.108 15.021,264.312 15.26,264.552C15.701,265 16.002,265.387 16.161,265.714C16.321,266.03 16.401,266.417 16.401,266.875C16.401,267.497 16.226,268.009 15.875,268.411C15.524,268.804 15.075,269 14.526,269C14.064,269 13.67,268.873 13.344,268.62L13.344,267.547C13.729,267.828 14.08,267.969 14.396,267.969C14.691,267.969 14.922,267.872 15.089,267.677C15.255,267.479 15.339,267.212 15.339,266.875C15.339,266.583 15.274,266.321 15.146,266.089C15.08,265.977 14.988,265.851 14.87,265.708C14.752,265.562 14.604,265.401 14.427,265.224C14.153,264.953 13.925,264.714 13.745,264.505C13.564,264.297 13.431,264.115 13.344,263.958C13.177,263.653 13.094,263.267 13.094,262.802C13.094,262.174 13.257,261.675 13.583,261.307C13.913,260.936 14.356,260.75 14.911,260.75C15.297,260.75 15.665,260.842 16.016,261.026L16.016,261.026Z" style="fill:rgb(158,161,168);fill-rule:nonzero;"/>
            <path id="path1671" d="M16.776,260.859L17.922,260.859L18.453,262.609C18.47,262.661 18.488,262.719 18.505,262.781C18.523,262.844 18.543,262.911 18.568,262.984C18.766,263.616 18.901,264.148 18.974,264.578C19.036,264.148 19.089,263.847 19.13,263.677L19.297,262.958L19.359,262.677L19.807,260.859L20.937,260.859L19.536,265.443L19.536,268.901L18.453,268.901L18.453,265.443L16.776,260.859Z" style="fill:rgb(158,161,168);fill-rule:nonzero;"/>
        </g>
        <g id="text1499" transform="matrix(1,0,0,1,0,1)">
            <path id="path1654" d="M4.286,244.859L7.828,244.859L5.411,251.953L7.698,251.953L7.698,252.901L4,252.901L6.438,245.776L4.286,245.776L4.286,244.859Z" style="fill:rgb(158,161,168);fill-rule:nonzero;"/>
            <path id="path1656" d="M8.505,244.859L11.385,244.859L11.385,245.776L9.589,245.776L9.589,248.323L11.182,248.323L11.182,249.24L9.589,249.24L9.589,251.984L11.385,251.984L11.385,252.901L8.505,252.901L8.505,244.859Z" style="fill:rgb(158,161,168);fill-rule:nonzero;"/>
            <path id="path1658" d="M12.38,244.859L13.807,244.859C14.398,244.859 14.837,245 15.125,245.281C15.49,245.646 15.672,246.203 15.672,246.953C15.672,247.529 15.575,247.993 15.38,248.344C15.189,248.691 14.915,248.906 14.557,248.99L16.036,252.901L14.938,252.901L13.464,248.964L13.464,252.901L12.38,252.901L12.38,244.859ZM13.464,248.422C13.884,248.422 14.181,248.325 14.354,248.13C14.528,247.936 14.615,247.608 14.615,247.146C14.615,246.896 14.595,246.682 14.557,246.505C14.523,246.328 14.465,246.184 14.385,246.073C14.309,245.962 14.208,245.88 14.083,245.828C13.962,245.776 13.816,245.75 13.646,245.75L13.464,245.75L13.464,248.422Z" style="fill:rgb(158,161,168);fill-rule:nonzero;"/>
            <path id="path1661" d="M20.823,249.078C20.823,250.498 20.665,251.507 20.349,252.104C20.033,252.701 19.503,253 18.76,253C17.979,253 17.429,252.679 17.109,252.036C16.793,251.408 16.635,250.292 16.635,248.687C16.635,247.257 16.792,246.245 17.104,245.651C17.42,245.054 17.955,244.755 18.708,244.755C19.382,244.755 19.882,244.986 20.208,245.448C20.424,245.757 20.58,246.196 20.677,246.766C20.774,247.293 20.823,248.064 20.823,249.078ZM19.688,249.193C19.688,247.8 19.625,246.877 19.5,246.422C19.375,245.964 19.12,245.734 18.734,245.734C18.349,245.734 18.092,245.944 17.964,246.365C17.839,246.788 17.776,247.639 17.776,248.917C17.776,250.094 17.842,250.91 17.974,251.365C18.109,251.795 18.363,252.01 18.734,252.01C19.099,252.01 19.349,251.809 19.484,251.406C19.62,251.007 19.688,250.269 19.688,249.193L19.688,249.193Z" style="fill:rgb(158,161,168);fill-rule:nonzero;"/>
        </g>
        <g id="text1539" transform="matrix(0.864486,0,0,1.15676,0,0)">
            <path id="path1568" d="M11.909,12.17L11.747,15.183C11.122,15.435 10.561,15.561 10.066,15.561C8.9,15.561 7.918,15.133 7.121,14.278C6.23,13.318 5.784,11.961 5.784,10.205C5.784,8.562 6.203,7.242 7.04,6.247C7.877,5.257 8.996,4.761 10.397,4.761C10.851,4.761 11.315,4.847 11.788,5.018L11.788,7.996C11.369,7.578 10.939,7.368 10.498,7.368C9.922,7.368 9.471,7.614 9.147,8.105C8.823,8.6 8.661,9.284 8.661,10.158C8.661,10.581 8.701,10.959 8.782,11.292C8.864,11.626 8.978,11.907 9.127,12.137C9.28,12.366 9.467,12.542 9.687,12.663C9.908,12.785 10.16,12.846 10.444,12.846C10.93,12.846 11.419,12.621 11.909,12.17Z" style="fill:rgb(158,161,168);fill-rule:nonzero;"/>
            <path id="path1575" d="M20.683,10.198C20.683,11.788 20.32,13.08 19.595,14.075C18.875,15.065 17.936,15.561 16.779,15.561C15.752,15.561 14.872,15.18 14.138,14.419C13.215,13.456 12.754,12.011 12.754,10.083C12.754,8.237 13.235,6.826 14.199,5.849C14.915,5.124 15.764,4.761 16.745,4.761C17.947,4.761 18.904,5.252 19.616,6.234C20.327,7.215 20.683,8.537 20.683,10.198ZM17.758,10.218C17.758,8.332 17.425,7.389 16.759,7.389C16.426,7.389 16.16,7.636 15.962,8.132C15.768,8.591 15.671,9.266 15.671,10.158C15.671,11.036 15.761,11.718 15.941,12.204C16.126,12.686 16.38,12.927 16.705,12.927C17.038,12.927 17.295,12.688 17.475,12.211C17.664,11.734 17.758,11.069 17.758,10.218L17.758,10.218Z" style="fill:rgb(158,161,168);fill-rule:nonzero;"/>
            <path id="path1586" d="M32.61,15.378L29.665,15.378L29.456,10.624L29.368,8.726C29.337,9.091 29.301,9.44 29.26,9.773C29.219,10.101 29.17,10.421 29.111,10.732L28.227,15.378L25.93,15.378L25.174,10.725C25.129,10.455 25.068,9.991 24.992,9.334C24.983,9.235 24.962,9.032 24.931,8.726L24.863,10.651L24.613,15.378L21.615,15.378L22.83,4.951L26.336,4.951L26.923,8.463C26.973,8.751 27.015,9.064 27.051,9.401C27.092,9.739 27.128,10.106 27.16,10.502C27.218,9.84 27.299,9.248 27.403,8.726L28.119,4.951L31.597,4.951L32.61,15.378Z" style="fill:rgb(158,161,168);fill-rule:nonzero;"/>
            <path id="path1588" d="M36.689,15.378L33.873,15.378L33.873,4.951L36.601,4.951C37.961,4.951 38.97,5.227 39.627,5.781C40.402,6.434 40.789,7.341 40.789,8.503C40.789,9.768 40.377,10.712 39.553,11.333C38.99,11.752 38.182,11.961 37.128,11.961L36.689,11.961L36.689,15.378ZM36.689,9.617L36.817,9.624C37.16,9.624 37.432,9.521 37.635,9.313C37.837,9.102 37.939,8.814 37.939,8.449C37.939,8.089 37.84,7.796 37.641,7.571C37.443,7.341 37.191,7.227 36.885,7.227L36.689,7.227L36.689,9.617Z" style="fill:rgb(158,161,168);fill-rule:nonzero;"/>
            <path id="path1590" d="M46.719,15.378L41.788,15.378L41.788,4.951L44.605,4.951L44.605,12.873L46.719,12.873L46.719,15.378Z" style="fill:rgb(158,161,168);fill-rule:nonzero;"/>
            <path id="path1596" d="M47.57,15.378L47.57,4.951L52.804,4.951L52.804,7.402L50.386,7.402L50.386,8.922L52.554,8.922L52.554,11.279L50.386,11.279L50.386,12.873L52.804,12.873L52.804,15.378L47.57,15.378Z" style="fill:rgb(158,161,168);fill-rule:nonzero;"/>
            <path id="path1607" d="M61.354,15.378L58.227,15.378L57.707,13.893C57.54,13.438 57.405,13.001 57.302,12.582C57.203,12.997 57.054,13.472 56.856,14.007L56.336,15.378L53.27,15.378L55.802,9.969L53.412,4.951L56.545,4.951L57.011,6.362C57.061,6.493 57.108,6.646 57.153,6.821C57.203,6.997 57.252,7.195 57.302,7.416C57.414,6.965 57.509,6.619 57.585,6.376L58.018,4.951L61.172,4.951L58.794,9.969L61.354,15.378Z" style="fill:rgb(158,161,168);fill-rule:nonzero;"/>
            <path id="path1609" d="M66.237,15.378L66.237,4.951L68.668,4.951C70.06,4.951 71.143,5.324 71.917,6.072C72.935,7.049 73.443,8.415 73.443,10.171C73.443,11.9 73.013,13.235 72.153,14.176C71.419,14.978 70.325,15.378 68.871,15.378L66.237,15.378ZM69.053,12.859C70.062,12.81 70.566,11.941 70.566,10.252C70.566,9.419 70.438,8.762 70.181,8.28C69.925,7.794 69.578,7.551 69.141,7.551L69.053,7.551L69.053,12.859Z" style="fill:rgb(158,161,168);fill-rule:nonzero;"/>
            <path id="path1611" d="M81.879,15.378L78.968,15.378L78.759,14.055L76.861,14.055L76.631,15.378L73.72,15.378L76.226,4.951L79.67,4.951L81.879,15.378ZM78.428,11.819L78.245,10.603C78.241,10.599 78.232,10.538 78.218,10.421C78.209,10.322 78.162,9.93 78.077,9.246C78.068,9.169 78.056,9.066 78.043,8.935C78.029,8.8 78.011,8.631 77.989,8.429L77.901,7.443C77.892,7.537 77.879,7.643 77.861,7.76C77.847,7.877 77.831,8.006 77.813,8.145C77.782,8.424 77.759,8.618 77.746,8.726C77.732,8.834 77.723,8.899 77.719,8.922L77.523,10.185L77.239,11.819L78.428,11.819Z" style="fill:rgb(158,161,168);fill-rule:nonzero;"/>
            <path id="path1613" d="M89.666,15.378L86.85,15.378L86.85,11.184L85.506,11.184L85.506,15.378L82.689,15.378L82.689,4.951L85.506,4.951L85.506,8.638L86.85,8.638L86.85,4.951L89.666,4.951L89.666,15.378Z" style="fill:rgb(158,161,168);fill-rule:nonzero;"/>
            <path id="path1615" d="M91.118,15.378L91.118,4.951L93.549,4.951C94.941,4.951 96.024,5.324 96.798,6.072C97.816,7.049 98.324,8.415 98.324,10.171C98.324,11.9 97.894,13.235 97.034,14.176C96.3,14.978 95.206,15.378 93.752,15.378L91.118,15.378ZM93.934,12.859C94.943,12.81 95.447,11.941 95.447,10.252C95.447,9.419 95.319,8.762 95.062,8.28C94.806,7.794 94.459,7.551 94.022,7.551L93.934,7.551L93.934,12.859Z" style="fill:rgb(158,161,168);fill-rule:nonzero;"/>
        </g>
        <g id="g1575" transform="matrix(1,0,0,1,0,-7.00003)">
            <path id="path1551" d="M4,270.859L5.068,270.859L5.552,273.828L5.635,274.365L5.807,275.531C5.835,275.729 5.859,275.91 5.88,276.073C5.905,276.236 5.925,276.384 5.943,276.516L5.995,276.911C6.005,276.832 6.014,276.76 6.021,276.698C6.028,276.635 6.035,276.583 6.042,276.542L6.182,275.609L6.365,274.385C6.382,274.274 6.398,274.172 6.411,274.078C6.429,273.984 6.444,273.901 6.458,273.828L6.979,270.859L7.99,270.859L6.411,278.901L5.552,278.901L4,270.859Z" style="fill:rgb(158,161,168);fill-rule:nonzero;"/>
            <path id="path1560" d="M11.714,270.99L11.714,271.964C11.436,271.828 11.203,271.76 11.016,271.76C10.759,271.76 10.538,271.825 10.354,271.953C10.17,272.078 10.017,272.273 9.896,272.536C9.778,272.8 9.689,273.135 9.63,273.542C9.575,273.944 9.547,274.422 9.547,274.974C9.547,276.96 10.056,277.953 11.073,277.953C11.25,277.953 11.464,277.898 11.714,277.786L11.714,278.781C11.453,278.927 11.161,279 10.839,279C9.21,279 8.396,277.67 8.396,275.01C8.396,273.573 8.594,272.504 8.99,271.802C9.389,271.101 9.998,270.75 10.818,270.75C11.12,270.75 11.418,270.83 11.714,270.99L11.714,270.99Z" style="fill:rgb(158,161,168);fill-rule:nonzero;"/>
            <path id="path1563" d="M14.057,270.859L14.901,270.859L16.625,278.901L15.552,278.901L15.25,277.333L13.656,277.333L13.349,278.901L12.307,278.901L14.057,270.859ZM15.094,276.495L14.854,275.214C14.694,274.342 14.564,273.411 14.464,272.422C14.415,272.905 14.352,273.394 14.276,273.891C14.2,274.384 14.109,274.908 14.005,275.464L13.807,276.495L15.094,276.495Z" style="fill:rgb(158,161,168);fill-rule:nonzero;"/>
            <path id="path1565" d="M19.417,273.51L20.417,273.51L20.417,278.901L19.417,278.901L19.417,273.51ZM19.885,271.219C20.066,271.219 20.222,271.285 20.354,271.417C20.486,271.549 20.552,271.707 20.552,271.891C20.552,272.078 20.486,272.238 20.354,272.37C20.222,272.502 20.063,272.568 19.875,272.568C19.688,272.568 19.528,272.502 19.396,272.37C19.267,272.241 19.203,272.08 19.203,271.885C19.203,271.705 19.269,271.549 19.401,271.417C19.543,271.285 19.705,271.219 19.885,271.219Z" style="fill:rgb(158,161,168);fill-rule:nonzero;"/>
            <path id="path1567" d="M21.542,273.51L22.536,273.51L22.536,274.13C22.821,273.658 23.189,273.422 23.641,273.422C24.078,273.422 24.391,273.594 24.578,273.938C24.682,274.132 24.734,274.509 24.734,275.068L24.734,278.901L23.74,278.901L23.734,275.297C23.734,274.932 23.691,274.674 23.604,274.521C23.517,274.368 23.368,274.292 23.156,274.292C23.042,274.292 22.944,274.313 22.865,274.354C22.788,274.392 22.726,274.457 22.677,274.547C22.628,274.634 22.592,274.748 22.568,274.891C22.547,275.033 22.536,275.208 22.536,275.417L22.536,278.901L21.542,278.901L21.542,273.51Z" style="fill:rgb(158,161,168);fill-rule:nonzero;"/>
            <path id="path1569" d="M31.245,276.25C31.245,278.073 30.681,278.984 29.552,278.984C28.424,278.984 27.859,278.059 27.859,276.208C27.859,274.351 28.422,273.422 29.547,273.422C29.839,273.422 30.09,273.477 30.302,273.589C30.517,273.7 30.694,273.872 30.833,274.104C30.972,274.337 31.075,274.63 31.141,274.984C31.21,275.339 31.245,275.76 31.245,276.25L31.245,276.25ZM30.214,276.224C30.214,275.516 30.167,275.023 30.073,274.745C29.979,274.464 29.812,274.323 29.573,274.323C29.337,274.323 29.168,274.462 29.068,274.74C28.974,275.017 28.927,275.502 28.927,276.193C28.927,276.884 28.974,277.366 29.068,277.641C29.168,277.918 29.337,278.057 29.573,278.057C29.809,278.057 29.974,277.92 30.068,277.646C30.165,277.389 30.214,276.915 30.214,276.224L30.214,276.224Z" style="fill:rgb(158,161,168);fill-rule:nonzero;"/>
            <path id="path1571" d="M32.167,273.51L33.161,273.51L33.161,277.115C33.168,277.448 33.217,277.686 33.307,277.828C33.401,277.97 33.556,278.042 33.771,278.042C33.997,278.042 34.155,277.979 34.245,277.854C34.335,277.722 34.38,277.493 34.38,277.167L34.38,276.734L34.38,273.51L35.375,273.51L35.375,276.734C35.375,277.488 35.319,277.991 35.208,278.245C34.976,278.738 34.493,278.984 33.76,278.984C33.184,278.984 32.774,278.839 32.531,278.547C32.288,278.252 32.167,277.76 32.167,277.073L32.167,273.51Z" style="fill:rgb(158,161,168);fill-rule:nonzero;"/>
            <path id="path1573" d="M36.62,272L37.615,272L37.615,273.51L38.156,273.51L38.156,274.302L37.615,274.302L37.615,278.901L36.62,278.901L36.62,274.302L36.073,274.302L36.073,273.51L36.62,273.51L36.62,272Z" style="fill:rgb(158,161,168);fill-rule:nonzero;"/>
        </g>
        <g id="text984" transform="matrix(1,0,0,1,-2,10)">
            <path id="path990" d="M43.047,306.078C43.047,307.498 42.889,308.507 42.573,309.104C42.257,309.701 41.727,310 40.984,310C40.203,310 39.653,309.679 39.333,309.036C39.017,308.408 38.859,307.292 38.859,305.687C38.859,304.257 39.016,303.245 39.328,302.651C39.644,302.054 40.179,301.755 40.932,301.755C41.606,301.755 42.106,301.986 42.432,302.448C42.648,302.757 42.804,303.196 42.901,303.766C42.998,304.293 43.047,305.064 43.047,306.078L43.047,306.078ZM41.911,306.193C41.911,304.8 41.849,303.877 41.724,303.422C41.599,302.964 41.344,302.734 40.958,302.734C40.573,302.734 40.316,302.944 40.187,303.365C40.062,303.788 40,304.639 40,305.917C40,307.094 40.066,307.91 40.198,308.365C40.333,308.795 40.587,309.01 40.958,309.01C41.323,309.01 41.573,308.809 41.708,308.406C41.844,308.007 41.911,307.269 41.911,306.193Z" style="fill:rgb(158,161,168);fill-rule:nonzero;"/>
            <path id="path992" d="M44.125,301.859L45.187,301.859L45.187,307.542C45.187,308.122 45.24,308.507 45.344,308.698C45.451,308.889 45.663,308.984 45.979,308.984C46.295,308.984 46.503,308.901 46.604,308.734C46.708,308.564 46.76,308.219 46.76,307.698L46.76,301.859L47.823,301.859L47.823,307.698C47.823,308.573 47.689,309.165 47.422,309.474C47.102,309.825 46.615,310 45.958,310C45.236,310 44.727,309.774 44.432,309.323C44.227,309.014 44.125,308.42 44.125,307.542L44.125,301.859Z" style="fill:rgb(158,161,168);fill-rule:nonzero;"/>
            <path id="path994" d="M48.422,301.859L51.948,301.859L51.948,302.807L50.734,302.807L50.734,309.901L49.672,309.901L49.672,302.807L48.422,302.807L48.422,301.859Z" style="fill:rgb(158,161,168);fill-rule:nonzero;"/>
        </g>
        <g id="text988" transform="matrix(1,0,0,1,0,10)">
            <rect id="path997" x="4" y="301.958" width="1.083" height="8.042" style="fill:rgb(158,161,168);fill-rule:nonzero;"/>
            <path id="path999" d="M6.333,301.958L7.344,301.958L8.422,305.167C8.734,306.073 9.01,307.04 9.25,308.068C9.163,307.446 9.099,306.884 9.057,306.38C9.016,305.877 8.995,305.403 8.995,304.958L8.995,301.958L10.083,301.958L10.083,310L9.068,310L7.854,306.38C7.743,306.043 7.637,305.698 7.536,305.344C7.439,304.99 7.349,304.618 7.266,304.229C7.259,304.181 7.247,304.122 7.229,304.052C7.215,303.983 7.198,303.903 7.177,303.813C7.187,303.903 7.196,303.981 7.203,304.047C7.21,304.109 7.215,304.163 7.219,304.208L7.276,305.026L7.333,306.021C7.337,306.076 7.339,306.144 7.339,306.224C7.342,306.304 7.344,306.394 7.344,306.495L7.401,310L6.333,310L6.333,301.958Z" style="fill:rgb(158,161,168);fill-rule:nonzero;"/>
        </g>
        <g id="text1004">
            <path id="path1006" d="M4.464,295.917L7.344,295.917L7.344,296.833L5.547,296.833L5.547,299.38L7.141,299.38L7.141,300.297L5.547,300.297L5.547,303.042L7.344,303.042L7.344,303.958L4.464,303.958L4.464,295.917Z" style="fill:rgb(158,161,168);fill-rule:nonzero;"/>
            <path id="path1008" d="M8.339,295.917L9.349,295.917L10.427,299.125C10.74,300.031 11.016,300.998 11.255,302.026C11.168,301.405 11.104,300.842 11.063,300.339C11.021,299.835 11,299.361 11,298.917L11,295.917L12.089,295.917L12.089,303.958L11.073,303.958L9.859,300.339C9.748,300.002 9.642,299.656 9.542,299.302C9.444,298.948 9.354,298.576 9.271,298.187C9.264,298.139 9.252,298.08 9.234,298.01C9.22,297.941 9.203,297.861 9.182,297.771C9.193,297.861 9.201,297.939 9.208,298.005C9.215,298.068 9.22,298.122 9.224,298.167L9.281,298.984L9.339,299.979C9.342,300.035 9.344,300.102 9.344,300.182C9.347,300.262 9.349,300.352 9.349,300.453L9.406,303.958L8.339,303.958L8.339,295.917Z" style="fill:rgb(158,161,168);fill-rule:nonzero;"/>
            <path id="path1010" d="M12.698,295.917L13.766,295.917L14.25,298.885L14.333,299.422L14.505,300.589C14.533,300.786 14.557,300.967 14.578,301.13C14.602,301.293 14.623,301.441 14.641,301.573L14.693,301.969C14.703,301.889 14.712,301.818 14.719,301.755C14.726,301.693 14.733,301.641 14.74,301.599L14.88,300.667L15.062,299.443C15.08,299.332 15.095,299.229 15.109,299.135C15.127,299.042 15.142,298.958 15.156,298.885L15.677,295.917L16.688,295.917L15.109,303.958L14.25,303.958L12.698,295.917Z" style="fill:rgb(158,161,168);fill-rule:nonzero;"/>
            <path id="path1012" d="M17.276,295.917L20.156,295.917L20.156,296.833L18.359,296.833L18.359,299.38L19.953,299.38L19.953,300.297L18.359,300.297L18.359,303.042L20.156,303.042L20.156,303.958L17.276,303.958L17.276,295.917Z" style="fill:rgb(158,161,168);fill-rule:nonzero;"/>
            <path id="path1014" d="M21.151,295.917L22.234,295.917L22.234,303.042L24.005,303.042L24.005,303.958L21.151,303.958L21.151,295.917Z" style="fill:rgb(158,161,168);fill-rule:nonzero;"/>
            <path id="path1016" d="M28.719,300.135C28.719,301.556 28.561,302.564 28.245,303.161C27.929,303.759 27.399,304.057 26.656,304.057C25.875,304.057 25.325,303.736 25.005,303.094C24.689,302.465 24.531,301.349 24.531,299.745C24.531,298.314 24.688,297.302 25,296.708C25.316,296.111 25.851,295.812 26.604,295.812C27.278,295.812 27.778,296.043 28.104,296.505C28.319,296.814 28.476,297.253 28.573,297.823C28.67,298.351 28.719,299.122 28.719,300.135ZM27.583,300.25C27.583,298.858 27.521,297.934 27.396,297.479C27.271,297.021 27.016,296.792 26.63,296.792C26.245,296.792 25.988,297.002 25.859,297.422C25.734,297.845 25.672,298.696 25.672,299.974C25.672,301.151 25.738,301.967 25.87,302.422C26.005,302.852 26.259,303.068 26.63,303.068C26.995,303.068 27.245,302.866 27.38,302.464C27.516,302.064 27.583,301.326 27.583,300.25L27.583,300.25Z" style="fill:rgb(158,161,168);fill-rule:nonzero;"/>
            <path id="path1018" d="M29.797,295.917L31.224,295.917C31.911,295.917 32.411,296.09 32.724,296.437C33.036,296.788 33.193,297.344 33.193,298.104C33.193,299.174 32.878,299.865 32.25,300.177C31.934,300.319 31.477,300.391 30.88,300.391L30.88,303.958L29.797,303.958L29.797,295.917ZM30.88,299.464C31.328,299.464 31.637,299.373 31.807,299.193C31.981,299.009 32.068,298.682 32.068,298.214C32.068,297.734 31.984,297.384 31.818,297.161C31.651,296.939 31.389,296.828 31.031,296.828L30.88,296.828L30.88,299.464Z" style="fill:rgb(158,161,168);fill-rule:nonzero;"/>
            <path id="path1020" d="M34.026,295.917L36.906,295.917L36.906,296.833L35.109,296.833L35.109,299.38L36.703,299.38L36.703,300.297L35.109,300.297L35.109,303.042L36.906,303.042L36.906,303.958L34.026,303.958L34.026,295.917Z" style="fill:rgb(158,161,168);fill-rule:nonzero;"/>
            <path id="path1022" d="M43.266,296.047L43.266,297.021C42.988,296.885 42.755,296.818 42.568,296.818C42.311,296.818 42.09,296.882 41.906,297.01C41.722,297.135 41.569,297.33 41.448,297.594C41.33,297.858 41.241,298.193 41.182,298.599C41.127,299.002 41.099,299.479 41.099,300.031C41.099,302.017 41.608,303.01 42.625,303.01C42.802,303.01 43.016,302.955 43.266,302.844L43.266,303.839C43.005,303.984 42.714,304.057 42.391,304.057C40.762,304.057 39.948,302.727 39.948,300.068C39.948,298.63 40.146,297.561 40.542,296.859C40.941,296.158 41.55,295.807 42.37,295.807C42.672,295.807 42.97,295.887 43.266,296.047L43.266,296.047Z" style="fill:rgb(158,161,168);fill-rule:nonzero;"/>
            <path id="path1024" d="M44.172,295.917L45.255,295.917L45.255,299.062L46.844,299.062L46.844,295.917L47.927,295.917L47.927,303.958L46.844,303.958L46.844,299.979L45.255,299.979L45.255,303.958L44.172,303.958L44.172,295.917Z" style="fill:rgb(158,161,168);fill-rule:nonzero;"/>
            <path id="path1026" d="M50.318,295.917L51.161,295.917L52.885,303.958L51.812,303.958L51.51,302.391L49.917,302.391L49.609,303.958L48.568,303.958L50.318,295.917ZM51.354,301.552L51.115,300.271C50.955,299.399 50.825,298.469 50.724,297.479C50.675,297.962 50.613,298.451 50.536,298.948C50.46,299.441 50.37,299.965 50.266,300.521L50.068,301.552L51.354,301.552Z" style="fill:rgb(158,161,168);fill-rule:nonzero;"/>
            <rect id="path1028" x="53.526" y="295.917" width="1.083" height="8.042" style="fill:rgb(158,161,168);fill-rule:nonzero;"/>
            <path id="path1030" d="M55.859,295.917L56.87,295.917L57.948,299.125C58.26,300.031 58.536,300.998 58.776,302.026C58.689,301.405 58.625,300.842 58.583,300.339C58.542,299.835 58.521,299.361 58.521,298.917L58.521,295.917L59.609,295.917L59.609,303.958L58.594,303.958L57.38,300.339C57.269,300.002 57.163,299.656 57.063,299.302C56.965,298.948 56.875,298.576 56.792,298.187C56.785,298.139 56.773,298.08 56.755,298.01C56.742,297.941 56.724,297.861 56.703,297.771C56.714,297.861 56.722,297.939 56.729,298.005C56.736,298.068 56.742,298.122 56.745,298.167L56.802,298.984L56.859,299.979C56.863,300.035 56.865,300.102 56.865,300.182C56.868,300.262 56.87,300.352 56.87,300.453L56.927,303.958L55.859,303.958L55.859,295.917Z" style="fill:rgb(158,161,168);fill-rule:nonzero;"/>
            <rect id="path1032" x="63.068" y="295.917" width="1.083" height="8.042" style="fill:rgb(158,161,168);fill-rule:nonzero;"/>
            <path id="path1034" d="M65.401,295.917L66.411,295.917L67.49,299.125C67.802,300.031 68.078,300.998 68.318,302.026C68.231,301.405 68.167,300.842 68.125,300.339C68.083,299.835 68.062,299.361 68.062,298.917L68.062,295.917L69.151,295.917L69.151,303.958L68.135,303.958L66.922,300.339C66.811,300.002 66.705,299.656 66.604,299.302C66.507,298.948 66.417,298.576 66.333,298.187C66.326,298.139 66.314,298.08 66.297,298.01C66.283,297.941 66.266,297.861 66.245,297.771C66.255,297.861 66.264,297.939 66.271,298.005C66.278,298.068 66.283,298.122 66.287,298.167L66.344,298.984L66.401,299.979C66.405,300.035 66.406,300.102 66.406,300.182C66.41,300.262 66.412,300.352 66.412,300.453L66.469,303.958L65.401,303.958L65.401,295.917Z" style="fill:rgb(158,161,168);fill-rule:nonzero;"/>
            <path id="path1036" d="M76.635,300.135C76.635,301.556 76.477,302.564 76.161,303.161C75.845,303.759 75.316,304.057 74.573,304.057C73.792,304.057 73.241,303.736 72.922,303.094C72.606,302.465 72.448,301.349 72.448,299.745C72.448,298.314 72.604,297.302 72.917,296.708C73.233,296.111 73.767,295.812 74.521,295.812C75.194,295.812 75.694,296.043 76.021,296.505C76.236,296.814 76.392,297.253 76.49,297.823C76.587,298.351 76.635,299.122 76.635,300.135L76.635,300.135ZM75.5,300.25C75.5,298.858 75.438,297.934 75.313,297.479C75.188,297.021 74.932,296.792 74.547,296.792C74.161,296.792 73.905,297.002 73.776,297.422C73.651,297.845 73.589,298.696 73.589,299.974C73.589,301.151 73.655,301.967 73.786,302.422C73.922,302.852 74.175,303.068 74.547,303.068C74.911,303.068 75.161,302.866 75.297,302.464C75.432,302.064 75.5,301.326 75.5,300.25L75.5,300.25Z" style="fill:rgb(158,161,168);fill-rule:nonzero;"/>
            <path id="path1038" d="M77.714,295.917L78.776,295.917L78.776,301.599C78.776,302.179 78.828,302.564 78.932,302.755C79.04,302.946 79.252,303.042 79.568,303.042C79.884,303.042 80.092,302.958 80.193,302.792C80.297,302.622 80.349,302.276 80.349,301.755L80.349,295.917L81.411,295.917L81.411,301.755C81.411,302.63 81.278,303.222 81.01,303.531C80.691,303.882 80.203,304.057 79.547,304.057C78.825,304.057 78.316,303.832 78.021,303.38C77.816,303.071 77.714,302.477 77.714,301.599L77.714,295.917Z" style="fill:rgb(158,161,168);fill-rule:nonzero;"/>
            <path id="path1040" d="M82.01,295.917L85.536,295.917L85.536,296.865L84.323,296.865L84.323,303.958L83.26,303.958L83.26,296.865L82.01,296.865L82.01,295.917Z" style="fill:rgb(158,161,168);fill-rule:nonzero;"/>
        </g>
    </g>
</svg>
