<?xml version="1.0" encoding="UTF-8" standalone="no"?>
<!DOCTYPE svg PUBLIC "-//W3C//DTD SVG 1.1//EN" "http://www.w3.org/Graphics/SVG/1.1/DTD/svg11.dtd">
<svg width="100%" height="100%" viewBox="0 0 45 380" version="1.1" xmlns="http://www.w3.org/2000/svg" xmlns:xlink="http://www.w3.org/1999/xlink" xml:space="preserve" xmlns:serif="http://www.serif.com/" style="fill-rule:evenodd;clip-rule:evenodd;stroke-linejoin:round;stroke-miterlimit:2;">
    <g id="Layer-2" serif:id="Layer 2">
        <g id="text989">
        </g>
        <rect id="rect4689" x="-0.264" y="0" width="45" height="380" style="fill:rgb(44,45,48);fill-rule:nonzero;"/>
        <g id="text4987">
        </g>
        <g id="text1042">
        </g>
        <g id="g992" transform="matrix(1.00498,0,0,0.932853,-22.7637,30.1262)">
            <path id="path980" d="M29.851,371.706L29.851,363.943L31.853,363.943L32.903,366.668C32.96,366.829 33.024,367.013 33.094,367.221C33.168,367.429 33.249,367.668 33.336,367.94L33.552,368.624C33.475,367.95 33.416,367.373 33.376,366.894C33.336,366.415 33.316,366.013 33.316,365.687L33.316,363.943L35.317,363.943L35.317,371.706L33.316,371.706L32.26,368.85C32.149,368.545 32.049,368.26 31.958,367.995C31.871,367.727 31.794,367.472 31.727,367.231C31.77,367.777 31.802,368.253 31.822,368.659C31.843,369.065 31.853,369.42 31.853,369.725L31.853,371.706L29.851,371.706Z" style="fill:rgb(158,161,168);fill-rule:nonzero;"/>
            <path id="path982" d="M39.887,371.706L37.791,371.706L37.791,368.418L35.865,363.943L38.052,363.943L38.429,365.094C38.503,365.319 38.568,365.535 38.625,365.743C38.686,365.951 38.739,366.15 38.786,366.341C38.863,366.056 38.93,365.811 38.987,365.607C39.044,365.399 39.095,365.232 39.138,365.104L39.52,363.943L41.692,363.943L39.887,368.418L39.887,371.706Z" style="fill:rgb(158,161,168);fill-rule:nonzero;"/>
            <path id="path984" d="M41.894,371.515L41.894,369.076C42.306,369.639 42.752,369.921 43.231,369.921C43.412,369.921 43.56,369.874 43.673,369.78C43.787,369.683 43.844,369.562 43.844,369.418C43.844,369.21 43.72,369.008 43.472,368.81L43.13,368.543C42.902,368.372 42.708,368.203 42.547,368.035C42.386,367.865 42.256,367.69 42.155,367.513C42.054,367.332 41.981,367.146 41.934,366.954C41.887,366.763 41.863,366.562 41.863,366.351C41.863,365.989 41.947,365.61 42.115,365.215C42.199,365.03 42.296,364.863 42.406,364.712C42.517,364.558 42.644,364.422 42.789,364.305C43.184,363.969 43.662,363.802 44.222,363.802C44.721,363.802 45.224,363.934 45.73,364.199L45.73,366.572C45.559,366.308 45.365,366.1 45.147,365.949C44.929,365.795 44.714,365.718 44.503,365.718C44.342,365.718 44.21,365.765 44.106,365.858C43.999,365.949 43.945,366.058 43.945,366.185C43.945,366.393 44.087,366.599 44.372,366.804L44.704,367.05C45.147,367.368 45.463,367.695 45.655,368.03C45.849,368.366 45.946,368.758 45.946,369.207C45.946,369.971 45.713,370.601 45.247,371.098C44.781,371.594 44.191,371.842 43.477,371.842C42.985,371.842 42.457,371.733 41.894,371.515L41.894,371.515Z" style="fill:rgb(158,161,168);fill-rule:nonzero;"/>
            <path id="path986" d="M49.576,371.706L47.48,371.706L47.48,365.803L46.323,365.803L46.323,363.943L50.778,363.943L50.778,365.803L49.576,365.803L49.576,371.706Z" style="fill:rgb(158,161,168);fill-rule:nonzero;"/>
            <path id="path988" d="M56.525,371.706L54.428,371.706L54.428,368.584L53.428,368.584L53.428,371.706L51.331,371.706L51.331,363.943L53.428,363.943L53.428,366.688L54.428,366.688L54.428,363.943L56.525,363.943L56.525,371.706Z" style="fill:rgb(158,161,168);fill-rule:nonzero;"/>
            <rect id="path990" x="57.606" y="363.943" width="2.097" height="7.763" style="fill:rgb(158,161,168);fill-rule:nonzero;"/>
        </g>
        <g id="text1031" transform="matrix(0.920516,0,0,1.08635,14.7363,0)">
            <path id="path1199" d="M1.086,16.569L1.086,5.523L3.662,5.523C5.136,5.523 6.283,5.919 7.103,6.711C8.181,7.746 8.72,9.193 8.72,11.053C8.72,12.885 8.264,14.299 7.353,15.296C6.576,16.145 5.417,16.569 3.877,16.569L1.086,16.569ZM4.07,13.901C5.138,13.848 5.672,12.928 5.672,11.139C5.672,10.257 5.536,9.56 5.264,9.05C4.993,8.535 4.625,8.277 4.163,8.277L4.07,8.277L4.07,13.901Z" style="fill:rgb(158,161,168);fill-rule:nonzero;"/>
            <path id="path1201" d="M15.209,16.569L9.986,16.569L9.986,5.523L12.97,5.523L12.97,13.915L15.209,13.915L15.209,16.569Z" style="fill:rgb(158,161,168);fill-rule:nonzero;"/>
        </g>
        <g id="text1035" transform="matrix(1.01501,0,0,0.98521,0,8)">
            <rect id="path1192" x="2.956" y="19.285" width="0.82" height="6.09" style="fill:rgb(158,161,168);fill-rule:nonzero;"/>
            <path id="path1194" d="M4.723,19.285L5.488,19.285L6.304,21.715C6.541,22.401 6.75,23.134 6.932,23.912C6.866,23.441 6.817,23.015 6.786,22.634C6.754,22.253 6.738,21.894 6.738,21.557L6.738,19.285L7.563,19.285L7.563,25.375L6.793,25.375L5.874,22.634C5.79,22.379 5.71,22.117 5.634,21.849C5.56,21.581 5.492,21.299 5.429,21.005C5.423,20.968 5.414,20.923 5.401,20.871C5.391,20.818 5.377,20.758 5.362,20.689C5.37,20.758 5.376,20.817 5.381,20.867C5.387,20.914 5.391,20.955 5.393,20.989L5.437,21.608L5.48,22.362C5.483,22.404 5.484,22.455 5.484,22.516C5.487,22.576 5.488,22.644 5.488,22.721L5.531,25.375L4.723,25.375L4.723,19.285Z" style="fill:rgb(158,161,168);fill-rule:nonzero;"/>
            <path id="path1196" d="M10.434,19.285L11.823,19.285L11.823,25.375L11.038,25.375L11.038,19.983L10.434,19.983L10.434,19.285Z" style="fill:rgb(158,161,168);fill-rule:nonzero;"/>
        </g>
        <g id="text1039" transform="matrix(0.965578,0,0,1.03565,0,8)">
            <rect id="path1185" x="3.107" y="41.52" width="0.78" height="5.794" style="fill:rgb(158,161,168);fill-rule:nonzero;"/>
            <path id="path1187" d="M4.788,41.52L5.516,41.52L6.293,43.831C6.518,44.484 6.717,45.181 6.889,45.921C6.827,45.473 6.78,45.068 6.75,44.705C6.72,44.343 6.705,44.001 6.705,43.681L6.705,41.52L7.49,41.52L7.49,47.313L6.758,47.313L5.884,44.705C5.804,44.463 5.727,44.214 5.655,43.959C5.585,43.704 5.52,43.436 5.46,43.156C5.455,43.121 5.446,43.078 5.433,43.028C5.423,42.978 5.411,42.921 5.396,42.856C5.403,42.921 5.41,42.977 5.415,43.024C5.42,43.069 5.423,43.108 5.426,43.141L5.467,43.73L5.508,44.447C5.511,44.487 5.512,44.535 5.512,44.593C5.515,44.65 5.516,44.716 5.516,44.788L5.557,47.313L4.788,47.313L4.788,41.52Z" style="fill:rgb(158,161,168);fill-rule:nonzero;"/>
            <path id="path1189" d="M10.668,43.403L9.902,43.403L9.895,43.175C9.895,42.542 9.99,42.096 10.18,41.839C10.373,41.579 10.695,41.448 11.148,41.448C12.001,41.448 12.428,41.921 12.428,42.867C12.428,43.505 12.109,44.424 11.471,45.625L11.009,46.492C11.007,46.497 10.999,46.512 10.987,46.537C10.974,46.562 10.957,46.598 10.934,46.645L12.368,46.645L12.368,47.313L9.824,47.313C9.866,47.218 9.955,47.029 10.09,46.747C10.225,46.464 10.409,46.083 10.642,45.602C10.839,45.182 11.004,44.826 11.137,44.533C11.27,44.24 11.37,44 11.437,43.812C11.572,43.437 11.64,43.113 11.64,42.841C11.64,42.36 11.473,42.12 11.141,42.12C10.821,42.12 10.66,42.418 10.66,43.013L10.664,43.343L10.668,43.403Z" style="fill:rgb(158,161,168);fill-rule:nonzero;"/>
        </g>
        <g id="text1043" transform="matrix(0.973495,0,0,1.02723,0,8)">
            <path id="path1172" d="M0.514,80.948L1.458,80.948C1.745,80.948 1.987,80.98 2.184,81.043C2.366,81.105 2.528,81.214 2.671,81.372C2.885,81.608 3.037,81.915 3.128,82.294C3.219,82.66 3.264,83.185 3.264,83.868C3.264,84.495 3.214,85.006 3.113,85.402C3.015,85.781 2.853,86.069 2.627,86.269C2.349,86.517 1.851,86.641 1.133,86.641L0.514,86.641L0.514,80.948ZM1.281,85.97C1.748,85.97 2.06,85.829 2.217,85.546C2.379,85.263 2.461,84.714 2.461,83.898C2.461,83.02 2.383,82.416 2.228,82.087C2.073,81.758 1.789,81.593 1.376,81.593L1.281,81.593L1.281,85.97Z" style="fill:rgb(158,161,168);fill-rule:nonzero;"/>
            <path id="path1174" d="M4.024,80.948L6.063,80.948L6.063,81.597L4.791,81.597L4.791,83.4L5.919,83.4L5.919,84.049L4.791,84.049L4.791,85.992L6.063,85.992L6.063,86.641L4.024,86.641L4.024,80.948Z" style="fill:rgb(158,161,168);fill-rule:nonzero;"/>
            <path id="path1176" d="M6.768,80.948L7.535,80.948L7.535,85.992L8.788,85.992L8.788,86.641L6.768,86.641L6.768,80.948Z" style="fill:rgb(158,161,168);fill-rule:nonzero;"/>
            <path id="path1178" d="M10.396,80.948L10.993,80.948L12.214,86.641L11.454,86.641L11.24,85.531L10.112,85.531L9.895,86.641L9.157,86.641L10.396,80.948ZM11.13,84.937L10.96,84.03C10.847,83.413 10.755,82.754 10.684,82.054C10.649,82.396 10.605,82.742 10.551,83.094C10.497,83.443 10.433,83.814 10.359,84.207L10.219,84.937L11.13,84.937Z" style="fill:rgb(158,161,168);fill-rule:nonzero;"/>
            <path id="path1181" d="M11.948,80.948L12.76,80.948L13.136,82.187C13.148,82.223 13.16,82.264 13.173,82.308C13.185,82.353 13.2,82.4 13.217,82.452C13.357,82.899 13.453,83.276 13.505,83.58C13.549,83.276 13.586,83.063 13.615,82.943L13.733,82.434L13.777,82.234L14.095,80.948L14.895,80.948L13.903,84.193L13.903,86.641L13.136,86.641L13.136,84.193L11.948,80.948Z" style="fill:rgb(158,161,168);fill-rule:nonzero;"/>
        </g>
        <g id="text1048" transform="matrix(0.988136,0,0,1.01201,0,8)">
            <path id="path1166" d="M5.06,121.691L7.141,121.691L7.141,122.35L5.839,122.35L5.839,124.176L7.014,124.176L7.014,124.835L5.839,124.835L5.839,127.47L5.06,127.47L5.06,121.691Z" style="fill:rgb(158,161,168);fill-rule:nonzero;"/>
            <path id="path1168" d="M7.74,121.691L8.795,121.691C9.621,121.691 10.034,122.204 10.034,123.229C10.034,123.621 9.98,123.912 9.873,124.101C9.766,124.291 9.576,124.434 9.304,124.532C9.616,124.656 9.829,124.816 9.944,125.011C10.061,125.203 10.12,125.492 10.12,125.879C10.12,126.939 9.666,127.47 8.758,127.47L7.74,127.47L7.74,121.691ZM8.473,124.236C8.775,124.236 8.985,124.166 9.102,124.026C9.219,123.879 9.278,123.621 9.278,123.252C9.278,122.628 9.053,122.316 8.604,122.316L8.544,122.316L8.511,122.316C8.491,122.316 8.478,122.317 8.473,122.32L8.473,124.236ZM8.473,126.803C8.793,126.803 9.013,126.735 9.136,126.597C9.258,126.46 9.319,126.212 9.319,125.853C9.319,125.483 9.256,125.225 9.128,125.078C9.004,124.928 8.785,124.853 8.473,124.853L8.473,126.803Z" style="fill:rgb(158,161,168);fill-rule:nonzero;"/>
        </g>
        <g id="text1052" transform="matrix(0.83165,0,0,1.20243,14.7363,20.0001)">
            <path id="path1145" d="M1.001,122.319L1.562,122.319L1.99,124.303C2.043,124.551 2.09,124.8 2.132,125.05C2.176,125.298 2.216,125.558 2.252,125.831C2.256,125.795 2.259,125.768 2.261,125.749C2.263,125.728 2.266,125.714 2.268,125.705L2.359,125.148L2.441,124.618L2.513,124.269L2.894,122.319L3.461,122.319L3.909,127.182L3.282,127.182L3.172,125.532C3.167,125.448 3.163,125.375 3.159,125.314C3.157,125.254 3.156,125.203 3.156,125.163L3.128,124.511L3.112,123.913C3.112,123.908 3.111,123.9 3.109,123.887C3.109,123.873 3.108,123.854 3.106,123.831L3.09,123.928C3.073,124.044 3.057,124.145 3.043,124.231C3.03,124.317 3.018,124.389 3.008,124.448L2.926,124.892L2.894,125.059L2.485,127.182L2.044,127.182L1.66,125.349C1.607,125.108 1.56,124.863 1.518,124.615C1.478,124.365 1.441,124.104 1.408,123.831L1.219,127.182L0.601,127.182L1.001,122.319Z" style="fill:rgb(158,161,168);fill-rule:nonzero;"/>
            <rect id="path1150" x="4.451" y="122.319" width="0.655" height="4.864" style="fill:rgb(158,161,168);fill-rule:nonzero;"/>
            <path id="path1152" d="M5.531,122.319L6.167,122.319L6.504,123.261C6.637,123.632 6.716,123.904 6.741,124.077C6.764,123.969 6.789,123.865 6.816,123.765C6.846,123.664 6.876,123.563 6.908,123.462L6.952,123.32L7.264,122.319L7.925,122.319L7.024,124.713L7.925,127.182L7.264,127.182L6.942,126.256C6.877,126.072 6.825,125.906 6.785,125.759C6.745,125.612 6.717,125.481 6.7,125.368C6.683,125.509 6.655,125.643 6.615,125.771L6.504,126.118L6.448,126.3L6.167,127.182L5.474,127.182L6.394,124.713L5.531,122.319Z" style="fill:rgb(158,161,168);fill-rule:nonzero;"/>
            <path id="path1159" d="M12.052,124.87C12.052,125.729 11.956,126.339 11.765,126.701C11.574,127.062 11.254,127.242 10.804,127.242C10.332,127.242 9.999,127.048 9.806,126.66C9.615,126.279 9.519,125.604 9.519,124.634C9.519,123.769 9.614,123.157 9.803,122.798C9.994,122.436 10.317,122.256 10.773,122.256C11.18,122.256 11.483,122.395 11.68,122.675C11.81,122.862 11.905,123.127 11.964,123.472C12.022,123.791 12.052,124.257 12.052,124.87L12.052,124.87ZM11.365,124.94C11.365,124.098 11.327,123.539 11.252,123.264C11.176,122.987 11.022,122.848 10.789,122.848C10.555,122.848 10.4,122.975 10.322,123.229C10.247,123.485 10.209,124 10.209,124.773C10.209,125.485 10.249,125.978 10.329,126.253C10.411,126.514 10.564,126.644 10.789,126.644C11.009,126.644 11.16,126.522 11.242,126.278C11.324,126.037 11.365,125.591 11.365,124.94L11.365,124.94Z" style="fill:rgb(158,161,168);fill-rule:nonzero;"/>
            <path id="path1161" d="M12.704,122.319L13.346,122.319L13.346,125.756C13.346,126.106 13.378,126.339 13.441,126.455C13.506,126.57 13.634,126.628 13.825,126.628C14.016,126.628 14.142,126.578 14.203,126.477C14.266,126.374 14.298,126.165 14.298,125.85L14.298,122.319L14.94,122.319L14.94,125.85C14.94,126.379 14.86,126.737 14.698,126.924C14.505,127.136 14.21,127.242 13.813,127.242C13.376,127.242 13.068,127.106 12.89,126.833C12.766,126.646 12.704,126.287 12.704,125.755L12.704,122.319Z" style="fill:rgb(158,161,168);fill-rule:nonzero;"/>
            <path id="path1163" d="M15.303,122.319L17.435,122.319L17.435,122.892L16.701,122.892L16.701,127.182L16.059,127.182L16.059,122.892L15.303,122.892L15.303,122.319Z" style="fill:rgb(158,161,168);fill-rule:nonzero;"/>
        </g>
        <g id="text1056" transform="matrix(1.01501,0,0,0.98521,0,6)">
            <rect id="path1136" x="2.956" y="199.957" width="0.82" height="6.09" style="fill:rgb(158,161,168);fill-rule:nonzero;"/>
            <path id="path1138" d="M4.723,199.957L5.488,199.957L6.304,202.387C6.541,203.073 6.75,203.806 6.932,204.584C6.866,204.113 6.817,203.687 6.786,203.306C6.754,202.925 6.738,202.566 6.738,202.229L6.738,199.957L7.563,199.957L7.563,206.047L6.793,206.047L5.874,203.306C5.79,203.051 5.71,202.789 5.634,202.521C5.56,202.253 5.492,201.971 5.429,201.677C5.423,201.64 5.414,201.595 5.401,201.543C5.391,201.49 5.377,201.43 5.362,201.361C5.37,201.43 5.376,201.489 5.381,201.539C5.387,201.586 5.391,201.627 5.393,201.661L5.437,202.28L5.48,203.034C5.483,203.076 5.484,203.127 5.484,203.188C5.487,203.248 5.488,203.316 5.488,203.393L5.531,206.047L4.723,206.047L4.723,199.957Z" style="fill:rgb(158,161,168);fill-rule:nonzero;"/>
            <path id="path1141" d="M10.434,199.957L11.823,199.957L11.823,206.047L11.038,206.047L11.038,200.655L10.434,200.655L10.434,199.957Z" style="fill:rgb(158,161,168);fill-rule:nonzero;"/>
        </g>
        <g id="text1060" transform="matrix(0.965578,0,0,1.03565,0,6)">
            <rect id="path1128" x="3.107" y="213.393" width="0.78" height="5.794" style="fill:rgb(158,161,168);fill-rule:nonzero;"/>
            <path id="path1130" d="M4.788,213.393L5.516,213.393L6.293,215.704C6.518,216.357 6.717,217.054 6.889,217.794C6.827,217.346 6.78,216.941 6.75,216.578C6.72,216.216 6.705,215.874 6.705,215.554L6.705,213.393L7.49,213.393L7.49,219.186L6.758,219.186L5.884,216.578C5.804,216.336 5.727,216.087 5.655,215.832C5.585,215.577 5.52,215.309 5.46,215.029C5.455,214.994 5.446,214.951 5.433,214.901C5.423,214.851 5.411,214.794 5.396,214.729C5.403,214.794 5.41,214.85 5.415,214.897C5.42,214.942 5.423,214.981 5.426,215.014L5.467,215.603L5.508,216.32C5.511,216.36 5.512,216.408 5.512,216.466C5.515,216.523 5.516,216.588 5.516,216.661L5.557,219.186L4.788,219.186L4.788,213.393Z" style="fill:rgb(158,161,168);fill-rule:nonzero;"/>
            <path id="path1132" d="M10.668,215.276L9.902,215.276L9.895,215.047C9.895,214.415 9.99,213.969 10.18,213.712C10.373,213.451 10.695,213.321 11.148,213.321C12.001,213.321 12.428,213.794 12.428,214.74C12.428,215.378 12.109,216.297 11.471,217.498L11.009,218.365C11.007,218.37 10.999,218.385 10.987,218.41C10.974,218.435 10.957,218.471 10.934,218.518L12.368,218.518L12.368,219.186L9.824,219.186C9.866,219.091 9.955,218.902 10.09,218.62C10.225,218.337 10.409,217.956 10.642,217.475C10.839,217.055 11.004,216.698 11.137,216.406C11.27,216.113 11.37,215.873 11.437,215.685C11.572,215.31 11.64,214.986 11.64,214.714C11.64,214.233 11.473,213.993 11.141,213.993C10.821,213.993 10.66,214.291 10.66,214.886L10.664,215.216L10.668,215.276Z" style="fill:rgb(158,161,168);fill-rule:nonzero;"/>
        </g>
        <g id="text1064" transform="matrix(0.973495,0,0,1.02723,0,6)">
            <path id="path1113" d="M0.514,254.23L1.458,254.23C1.745,254.23 1.987,254.262 2.184,254.326C2.366,254.387 2.528,254.496 2.671,254.654C2.885,254.89 3.037,255.197 3.128,255.576C3.219,255.942 3.264,256.467 3.264,257.15C3.264,257.777 3.214,258.288 3.113,258.684C3.015,259.063 2.853,259.352 2.627,259.551C2.349,259.799 1.851,259.923 1.133,259.923L0.514,259.923L0.514,254.23ZM1.281,259.252C1.748,259.252 2.06,259.111 2.217,258.828C2.379,258.545 2.461,257.996 2.461,257.18C2.461,256.302 2.383,255.698 2.228,255.369C2.073,255.04 1.789,254.875 1.376,254.875L1.281,254.875L1.281,259.252Z" style="fill:rgb(158,161,168);fill-rule:nonzero;"/>
            <path id="path1115" d="M4.024,254.23L6.063,254.23L6.063,254.879L4.791,254.879L4.791,256.682L5.919,256.682L5.919,257.331L4.791,257.331L4.791,259.274L6.063,259.274L6.063,259.923L4.024,259.923L4.024,254.23Z" style="fill:rgb(158,161,168);fill-rule:nonzero;"/>
            <path id="path1117" d="M6.768,254.23L7.535,254.23L7.535,259.274L8.788,259.274L8.788,259.923L6.768,259.923L6.768,254.23Z" style="fill:rgb(158,161,168);fill-rule:nonzero;"/>
            <path id="path1123" d="M10.396,254.23L10.993,254.23L12.214,259.923L11.454,259.923L11.24,258.813L10.112,258.813L9.895,259.923L9.157,259.923L10.396,254.23ZM11.13,258.219L10.96,257.312C10.847,256.695 10.755,256.037 10.684,255.336C10.649,255.678 10.605,256.024 10.551,256.376C10.497,256.725 10.433,257.096 10.359,257.489L10.219,258.219L11.13,258.219Z" style="fill:rgb(158,161,168);fill-rule:nonzero;"/>
            <path id="path1125" d="M11.948,254.23L12.76,254.23L13.136,255.469C13.148,255.505 13.16,255.546 13.173,255.59C13.185,255.635 13.2,255.683 13.217,255.734C13.357,256.182 13.453,256.558 13.505,256.863C13.549,256.558 13.586,256.345 13.615,256.225L13.733,255.716L13.777,255.517L14.095,254.23L14.895,254.23L13.903,257.475L13.903,259.923L13.136,259.923L13.136,257.475L11.948,254.23Z" style="fill:rgb(158,161,168);fill-rule:nonzero;"/>
        </g>
        <g id="text1068" transform="matrix(0.988136,0,0,1.01201,0,6)">
            <path id="path1102" d="M5.06,297.579L7.141,297.579L7.141,298.238L5.839,298.238L5.839,300.064L7.014,300.064L7.014,300.723L5.839,300.723L5.839,303.358L5.06,303.358L5.06,297.579Z" style="fill:rgb(158,161,168);fill-rule:nonzero;"/>
            <path id="path1106" d="M7.74,297.579L8.795,297.579C9.621,297.579 10.034,298.092 10.034,299.117C10.034,299.509 9.98,299.8 9.873,299.989C9.766,300.179 9.576,300.322 9.304,300.42C9.616,300.544 9.829,300.704 9.944,300.899C10.061,301.091 10.12,301.38 10.12,301.767C10.12,302.827 9.666,303.358 8.758,303.358L7.74,303.358L7.74,297.579ZM8.473,300.124C8.775,300.124 8.985,300.054 9.102,299.914C9.219,299.767 9.278,299.509 9.278,299.14C9.278,298.516 9.053,298.204 8.604,298.204L8.544,298.204L8.511,298.204C8.491,298.204 8.478,298.205 8.473,298.208L8.473,300.124ZM8.473,302.691C8.793,302.691 9.013,302.623 9.136,302.486C9.258,302.348 9.319,302.1 9.319,301.741C9.319,301.371 9.256,301.113 9.128,300.966C9.004,300.816 8.785,300.741 8.473,300.741L8.473,302.691Z" style="fill:rgb(158,161,168);fill-rule:nonzero;"/>
        </g>
        <g id="text1072" transform="matrix(0.83165,0,0,1.20243,14.7363,17.9999)">
            <path id="path1075" d="M1.001,270.353L1.562,270.353L1.99,272.337C2.043,272.585 2.09,272.834 2.132,273.084C2.176,273.331 2.216,273.592 2.252,273.865C2.256,273.829 2.259,273.802 2.261,273.783C2.263,273.762 2.266,273.747 2.268,273.739L2.359,273.181L2.441,272.652L2.513,272.302L2.894,270.353L3.461,270.353L3.909,275.216L3.282,275.216L3.172,273.566C3.167,273.482 3.163,273.409 3.159,273.348C3.157,273.287 3.156,273.237 3.156,273.197L3.128,272.545L3.112,271.946C3.112,271.942 3.111,271.934 3.109,271.921C3.109,271.907 3.108,271.888 3.106,271.864L3.09,271.962C3.073,272.078 3.057,272.178 3.043,272.264C3.03,272.351 3.018,272.423 3.008,272.482L2.926,272.926L2.894,273.093L2.485,275.216L2.044,275.216L1.66,273.383C1.607,273.141 1.56,272.897 1.518,272.649C1.478,272.399 1.441,272.138 1.408,271.865L1.219,275.216L0.601,275.216L1.001,270.353Z" style="fill:rgb(158,161,168);fill-rule:nonzero;"/>
            <rect id="path1078" x="4.451" y="270.353" width="0.655" height="4.864" style="fill:rgb(158,161,168);fill-rule:nonzero;"/>
            <path id="path1086" d="M5.531,270.353L6.167,270.353L6.504,271.294C6.637,271.666 6.716,271.938 6.741,272.11C6.764,272.003 6.789,271.899 6.816,271.798C6.846,271.698 6.876,271.597 6.908,271.496L6.952,271.354L7.264,270.353L7.925,270.353L7.024,272.747L7.925,275.216L7.264,275.216L6.942,274.29C6.877,274.105 6.825,273.939 6.785,273.792C6.745,273.645 6.717,273.515 6.7,273.402C6.683,273.543 6.655,273.677 6.615,273.805L6.504,274.152L6.448,274.334L6.167,275.216L5.474,275.216L6.394,272.747L5.531,270.353Z" style="fill:rgb(158,161,168);fill-rule:nonzero;"/>
            <path id="path1088" d="M12.052,272.904C12.052,273.763 11.956,274.373 11.765,274.734C11.574,275.095 11.254,275.276 10.804,275.276C10.332,275.276 9.999,275.082 9.806,274.693C9.615,274.313 9.519,273.638 9.519,272.668C9.519,271.803 9.614,271.19 9.803,270.831C9.994,270.47 10.317,270.29 10.773,270.29C11.18,270.29 11.483,270.429 11.68,270.708C11.81,270.895 11.905,271.161 11.964,271.505C12.022,271.825 12.052,272.291 12.052,272.904L12.052,272.904ZM11.365,272.973C11.365,272.131 11.327,271.573 11.252,271.298C11.176,271.02 11.022,270.882 10.789,270.882C10.555,270.882 10.4,271.009 10.322,271.263C10.247,271.519 10.209,272.034 10.209,272.806C10.209,273.518 10.249,274.012 10.329,274.287C10.411,274.547 10.564,274.678 10.789,274.678C11.009,274.678 11.16,274.556 11.242,274.312C11.324,274.071 11.365,273.624 11.365,272.973L11.365,272.973Z" style="fill:rgb(158,161,168);fill-rule:nonzero;"/>
            <path id="path1095" d="M12.704,270.353L13.346,270.353L13.346,273.789C13.346,274.14 13.378,274.373 13.441,274.489C13.506,274.604 13.634,274.662 13.825,274.662C14.016,274.662 14.142,274.611 14.203,274.511C14.266,274.408 14.298,274.199 14.298,273.884L14.298,270.353L14.94,270.353L14.94,273.884C14.94,274.413 14.86,274.771 14.698,274.958C14.505,275.17 14.21,275.276 13.813,275.276C13.376,275.276 13.068,275.14 12.89,274.867C12.766,274.68 12.704,274.321 12.704,273.789L12.704,270.353Z" style="fill:rgb(158,161,168);fill-rule:nonzero;"/>
            <path id="path1098" d="M15.303,270.353L17.435,270.353L17.435,270.926L16.701,270.926L16.701,275.216L16.059,275.216L16.059,270.926L15.303,270.926L15.303,270.353Z" style="fill:rgb(158,161,168);fill-rule:nonzero;"/>
        </g>
        <g id="text1206" transform="matrix(1.00674,0,0,0.993301,14.7363,0)">
            <path id="path1212" d="M2.98,202.356L2.98,196.315L4.388,196.315C5.194,196.315 5.822,196.532 6.27,196.964C6.86,197.53 7.154,198.322 7.154,199.339C7.154,200.341 6.905,201.114 6.407,201.659C5.982,202.124 5.348,202.356 4.506,202.356L2.98,202.356ZM4.611,200.896C5.196,200.868 5.488,200.364 5.488,199.386C5.488,198.904 5.413,198.523 5.265,198.244C5.116,197.962 4.915,197.821 4.662,197.821L4.611,197.821L4.611,200.896Z" style="fill:rgb(158,161,168);fill-rule:nonzero;"/>
            <path id="path1214" d="M11.841,202.356L7.683,202.356L9.334,200.153C9.521,199.903 9.679,199.68 9.807,199.484C9.935,199.286 10.035,199.111 10.108,198.96C10.252,198.675 10.323,198.383 10.323,198.083C10.323,197.919 10.289,197.789 10.222,197.692C10.154,197.596 10.061,197.547 9.944,197.547C9.683,197.547 9.553,197.793 9.553,198.283L9.553,198.377C9.555,198.413 9.558,198.456 9.56,198.506L7.976,198.506L7.968,198.287C7.968,197.679 8.156,197.181 8.532,196.792C8.91,196.401 9.394,196.205 9.983,196.205C10.552,196.205 11.016,196.391 11.376,196.761C11.738,197.124 11.92,197.597 11.92,198.181C11.92,198.651 11.796,199.107 11.548,199.551C11.423,199.772 11.26,200.006 11.059,200.251C10.861,200.493 10.619,200.749 10.335,201.018C10.58,201 10.827,200.986 11.075,200.979C11.325,200.971 11.581,200.967 11.841,200.967L11.841,202.356Z" style="fill:rgb(158,161,168);fill-rule:nonzero;"/>
        </g>
        <g id="text1210" transform="matrix(1.00728,0,0,0.992769,14.7363,0)">
            <path id="path1217" d="M3.475,25.182L3.475,19.138L4.884,19.138C5.69,19.138 6.318,19.355 6.767,19.788C7.356,20.354 7.651,21.146 7.651,22.164C7.651,23.166 7.402,23.94 6.904,24.485C6.478,24.95 5.844,25.182 5.001,25.182L3.475,25.182ZM5.107,23.722C5.691,23.693 5.984,23.19 5.984,22.211C5.984,21.728 5.909,21.347 5.761,21.068C5.612,20.786 5.411,20.645 5.158,20.645L5.107,20.645L5.107,23.722Z" style="fill:rgb(158,161,168);fill-rule:nonzero;"/>
            <path id="path1219" d="M11.417,25.182L9.785,25.182L9.785,20.559L9.131,20.559L9.131,19.138L11.417,19.138L11.417,25.182Z" style="fill:rgb(158,161,168);fill-rule:nonzero;"/>
        </g>
    </g>
</svg>
