<?xml version="1.0" encoding="UTF-8" standalone="no"?>
<!DOCTYPE svg PUBLIC "-//W3C//DTD SVG 1.1//EN" "http://www.w3.org/Graphics/SVG/1.1/DTD/svg11.dtd">
<svg width="100%" height="100%" viewBox="0 0 30 380" version="1.1" xmlns="http://www.w3.org/2000/svg" xmlns:xlink="http://www.w3.org/1999/xlink" xml:space="preserve" xmlns:serif="http://www.serif.com/" style="fill-rule:evenodd;clip-rule:evenodd;stroke-linejoin:round;stroke-miterlimit:2;">
    <g id="Layer-2" serif:id="Layer 2">
        <rect id="rect4689" x="0.488" y="0" width="30" height="380" style="fill:rgb(44,45,48);"/>
        <g id="text989">
        </g>
        <g id="text80" transform="matrix(0.937979,0,0,0.995047,-26.512,4.99998)">
            <path id="path4726" d="M29.851,371.706L29.851,363.943L31.853,363.943L32.903,366.668C32.96,366.829 33.024,367.013 33.094,367.221C33.168,367.429 33.249,367.668 33.336,367.94L33.552,368.624C33.475,367.95 33.416,367.373 33.376,366.894C33.336,366.415 33.316,366.013 33.316,365.687L33.316,363.943L35.317,363.943L35.317,371.706L33.316,371.706L32.26,368.85C32.149,368.545 32.049,368.26 31.958,367.995C31.871,367.727 31.794,367.472 31.727,367.231C31.77,367.777 31.802,368.253 31.822,368.659C31.843,369.065 31.853,369.42 31.853,369.725L31.853,371.706L29.851,371.706Z" style="fill:rgb(158,161,168);fill-rule:nonzero;"/>
            <path id="path4728" d="M39.887,371.706L37.791,371.706L37.791,368.418L35.865,363.943L38.052,363.943L38.429,365.094C38.503,365.319 38.568,365.535 38.625,365.743C38.686,365.951 38.739,366.15 38.786,366.341C38.863,366.056 38.93,365.811 38.987,365.607C39.044,365.399 39.095,365.232 39.138,365.104L39.52,363.943L41.692,363.943L39.887,368.418L39.887,371.706Z" style="fill:rgb(158,161,168);fill-rule:nonzero;"/>
            <path id="path4730" d="M41.894,371.515L41.894,369.076C42.306,369.639 42.752,369.921 43.231,369.921C43.412,369.921 43.56,369.874 43.673,369.78C43.787,369.683 43.844,369.562 43.844,369.418C43.844,369.21 43.72,369.008 43.472,368.81L43.13,368.543C42.902,368.372 42.708,368.203 42.547,368.035C42.386,367.865 42.256,367.69 42.155,367.513C42.054,367.332 41.981,367.146 41.934,366.954C41.887,366.763 41.863,366.562 41.863,366.351C41.863,365.989 41.947,365.61 42.115,365.215C42.199,365.03 42.296,364.863 42.406,364.712C42.517,364.558 42.644,364.422 42.789,364.305C43.184,363.969 43.662,363.802 44.222,363.802C44.721,363.802 45.224,363.934 45.73,364.199L45.73,366.572C45.559,366.308 45.365,366.1 45.147,365.949C44.929,365.795 44.714,365.718 44.503,365.718C44.342,365.718 44.21,365.765 44.106,365.858C43.999,365.949 43.945,366.058 43.945,366.185C43.945,366.393 44.087,366.599 44.372,366.804L44.704,367.05C45.147,367.368 45.463,367.695 45.655,368.03C45.849,368.366 45.946,368.758 45.946,369.207C45.946,369.971 45.713,370.601 45.247,371.098C44.781,371.594 44.191,371.842 43.477,371.842C42.985,371.842 42.457,371.733 41.894,371.515L41.894,371.515Z" style="fill:rgb(158,161,168);fill-rule:nonzero;"/>
            <path id="path4732" d="M49.576,371.706L47.48,371.706L47.48,365.803L46.323,365.803L46.323,363.943L50.778,363.943L50.778,365.803L49.576,365.803L49.576,371.706Z" style="fill:rgb(158,161,168);fill-rule:nonzero;"/>
            <path id="path4734" d="M56.525,371.706L54.428,371.706L54.428,368.584L53.428,368.584L53.428,371.706L51.331,371.706L51.331,363.943L53.428,363.943L53.428,366.688L54.428,366.688L54.428,363.943L56.525,363.943L56.525,371.706Z" style="fill:rgb(158,161,168);fill-rule:nonzero;"/>
            <rect id="path4736" x="57.606" y="363.943" width="2.097" height="7.763" style="fill:rgb(158,161,168);fill-rule:nonzero;"/>
        </g>
        <g id="text4987">
        </g>
        <rect id="rect1008" x="0" y="192.5" width="30" height="0.5" style="fill:rgb(158,161,168);fill-rule:nonzero;"/>
        <g id="text1129" transform="matrix(1,0,0,0.746111,0,-6.88052)">
            <path id="path1241" d="M7.284,86.958L10.81,86.958L10.81,87.906L9.596,87.906L9.596,95L8.534,95L8.534,87.906L7.284,87.906L7.284,86.958Z" style="fill:rgb(158,161,168);fill-rule:nonzero;"/>
            <rect id="path1243" x="11.404" y="86.958" width="1.083" height="8.042" style="fill:rgb(158,161,168);fill-rule:nonzero;"/>
            <path id="path1245" d="M14.117,86.958L15.044,86.958L15.753,90.24C15.839,90.649 15.918,91.061 15.987,91.474C16.06,91.884 16.126,92.314 16.185,92.766C16.192,92.707 16.197,92.661 16.201,92.63C16.204,92.595 16.207,92.571 16.211,92.557L16.362,91.635L16.497,90.76L16.617,90.182L17.247,86.958L18.185,86.958L18.924,95L17.888,95L17.706,92.271C17.699,92.132 17.692,92.012 17.685,91.911C17.681,91.811 17.68,91.727 17.68,91.661L17.633,90.583L17.607,89.594C17.607,89.587 17.605,89.573 17.602,89.552C17.602,89.528 17.6,89.497 17.596,89.458L17.57,89.62C17.543,89.811 17.516,89.977 17.492,90.12C17.471,90.262 17.452,90.382 17.435,90.479L17.299,91.214L17.247,91.49L16.57,95L15.841,95L15.206,91.969C15.119,91.569 15.041,91.165 14.971,90.755C14.905,90.342 14.845,89.91 14.789,89.458L14.477,95L13.456,95L14.117,86.958Z" style="fill:rgb(158,161,168);fill-rule:nonzero;"/>
            <path id="path1247" d="M19.82,86.958L22.701,86.958L22.701,87.875L20.904,87.875L20.904,90.422L22.497,90.422L22.497,91.339L20.904,91.339L20.904,94.083L22.701,94.083L22.701,95L19.82,95L19.82,86.958Z" style="fill:rgb(158,161,168);fill-rule:nonzero;"/>
        </g>
        <g id="text1137" transform="matrix(0.999952,0,0,0.746119,0,-7.76497)">
            <rect id="path1223" x="11.951" y="51.955" width="1.083" height="8.042" style="fill:rgb(158,161,168);fill-rule:nonzero;"/>
            <path id="path1225" d="M14.285,51.955L15.295,51.955L16.373,55.164C16.686,56.07 16.962,57.037 17.201,58.065C17.114,57.443 17.05,56.881 17.009,56.377C16.967,55.874 16.946,55.4 16.946,54.955L16.946,51.955L18.035,51.955L18.035,59.997L17.019,59.997L15.805,56.377C15.694,56.041 15.588,55.695 15.488,55.341C15.39,54.987 15.3,54.615 15.217,54.226C15.21,54.178 15.198,54.119 15.18,54.049C15.167,53.98 15.149,53.9 15.128,53.81C15.139,53.9 15.147,53.978 15.154,54.044C15.161,54.107 15.167,54.16 15.17,54.205L15.227,55.023L15.285,56.018C15.288,56.074 15.29,56.141 15.29,56.221C15.293,56.301 15.295,56.391 15.295,56.492L15.352,59.997L14.285,59.997L14.285,51.955Z" style="fill:rgb(158,161,168);fill-rule:nonzero;"/>
        </g>
        <g id="text1141" transform="matrix(1,0,0,0.727273,0,-10.8182)">
            <path id="path1218" d="M14.523,131.99L14.523,132.964C14.246,132.828 14.013,132.76 13.826,132.76C13.569,132.76 13.348,132.825 13.164,132.953C12.98,133.078 12.827,133.273 12.706,133.536C12.588,133.8 12.499,134.135 12.44,134.542C12.385,134.944 12.357,135.422 12.357,135.974C12.357,137.96 12.865,138.953 13.883,138.953C14.06,138.953 14.273,138.898 14.523,138.786L14.523,139.781C14.263,139.927 13.971,140 13.648,140C12.02,140 11.206,138.67 11.206,136.01C11.206,134.573 11.404,133.503 11.799,132.802C12.199,132.101 12.808,131.75 13.628,131.75C13.93,131.75 14.228,131.83 14.523,131.99L14.523,131.99Z" style="fill:rgb(158,161,168);fill-rule:nonzero;"/>
            <path id="path1220" d="M14.789,131.859L15.857,131.859L16.341,134.828L16.424,135.365L16.596,136.531C16.624,136.729 16.648,136.91 16.669,137.073C16.694,137.236 16.714,137.384 16.732,137.516L16.784,137.911C16.794,137.832 16.803,137.76 16.81,137.698C16.817,137.635 16.824,137.583 16.831,137.542L16.971,136.609L17.154,135.385C17.171,135.274 17.187,135.172 17.201,135.078C17.218,134.984 17.233,134.901 17.247,134.828L17.768,131.859L18.779,131.859L17.201,139.901L16.341,139.901L14.789,131.859Z" style="fill:rgb(158,161,168);fill-rule:nonzero;"/>
        </g>
        <g id="text1145" transform="matrix(1,0,0,0.727732,0,44.6469)">
            <path id="path1211" d="M12.635,171.078C12.635,172.498 12.477,173.507 12.161,174.104C11.845,174.701 11.316,175 10.573,175C9.792,175 9.241,174.679 8.922,174.036C8.606,173.408 8.448,172.292 8.448,170.687C8.448,169.257 8.604,168.245 8.917,167.651C9.233,167.054 9.767,166.755 10.521,166.755C11.194,166.755 11.694,166.986 12.021,167.448C12.236,167.757 12.392,168.196 12.49,168.766C12.587,169.293 12.635,170.064 12.635,171.078ZM11.5,171.193C11.5,169.8 11.438,168.877 11.313,168.422C11.188,167.964 10.932,167.734 10.547,167.734C10.161,167.734 9.905,167.944 9.776,168.365C9.651,168.788 9.589,169.639 9.589,170.917C9.589,172.094 9.655,172.91 9.786,173.365C9.922,173.795 10.175,174.01 10.547,174.01C10.911,174.01 11.161,173.809 11.297,173.406C11.432,173.007 11.5,172.269 11.5,171.193L11.5,171.193Z" style="fill:rgb(158,161,168);fill-rule:nonzero;"/>
            <path id="path1213" d="M13.714,166.859L14.776,166.859L14.776,172.542C14.776,173.122 14.828,173.507 14.932,173.698C15.04,173.889 15.252,173.984 15.568,173.984C15.884,173.984 16.092,173.901 16.193,173.734C16.297,173.564 16.349,173.219 16.349,172.698L16.349,166.859L17.411,166.859L17.411,172.698C17.411,173.573 17.278,174.165 17.01,174.474C16.691,174.825 16.203,175 15.547,175C14.825,175 14.316,174.774 14.021,174.323C13.816,174.014 13.714,173.42 13.714,172.542L13.714,166.859Z" style="fill:rgb(158,161,168);fill-rule:nonzero;"/>
            <path id="path1215" d="M18.01,166.859L21.536,166.859L21.536,167.807L20.323,167.807L20.323,174.901L19.26,174.901L19.26,167.807L18.01,167.807L18.01,166.859Z" style="fill:rgb(158,161,168);fill-rule:nonzero;"/>
        </g>
        <g id="text896" transform="matrix(1.1726,0,0,0.852803,0,15)">
            <path id="path898" d="M9.783,145.581L12.252,145.581L12.252,146.362L10.707,146.362L10.707,148.53L12.101,148.53L12.101,149.312L10.707,149.312L10.707,152.439L9.783,152.439L9.783,145.581Z" style="fill:rgb(158,161,168);fill-rule:nonzero;"/>
            <path id="path900" d="M12.963,145.581L14.216,145.581C15.196,145.581 15.686,146.189 15.686,147.406C15.686,147.871 15.622,148.216 15.495,148.441C15.367,148.666 15.142,148.836 14.82,148.952C15.19,149.1 15.443,149.289 15.579,149.52C15.718,149.748 15.788,150.092 15.788,150.551C15.788,151.809 15.249,152.439 14.171,152.439L12.963,152.439L12.963,145.581ZM13.834,148.601C14.192,148.601 14.441,148.518 14.58,148.352C14.719,148.177 14.789,147.871 14.789,147.433C14.789,146.692 14.522,146.322 13.989,146.322L13.918,146.322L13.878,146.322C13.854,146.322 13.84,146.324 13.834,146.327L13.834,148.601ZM13.834,151.648C14.213,151.648 14.475,151.566 14.62,151.404C14.765,151.241 14.837,150.946 14.837,150.52C14.837,150.081 14.762,149.775 14.611,149.6C14.463,149.423 14.204,149.334 13.834,149.334L13.834,151.648Z" style="fill:rgb(158,161,168);fill-rule:nonzero;"/>
        </g>
        <g id="text899" transform="matrix(1.1167,0,0,0.895496,0,24)">
            <path id="path901" d="M0.883,98.354L3.748,98.354L3.748,99.125L2.762,99.125L2.762,104.889L1.898,104.889L1.898,99.125L0.883,99.125L0.883,98.354Z" style="fill:rgb(158,161,168);fill-rule:nonzero;"/>
            <path id="path903" d="M4.231,98.354L5.39,98.354C5.87,98.354 6.227,98.468 6.461,98.697C6.758,98.993 6.906,99.446 6.906,100.056C6.906,100.524 6.827,100.901 6.669,101.186C6.513,101.468 6.291,101.643 6,101.711L7.202,104.889L6.309,104.889L5.111,101.689L5.111,104.889L4.231,104.889L4.231,98.354ZM5.111,101.249C5.452,101.249 5.694,101.17 5.835,101.012C5.976,100.854 6.046,100.588 6.046,100.212C6.046,100.009 6.031,99.836 6,99.692C5.972,99.548 5.925,99.431 5.86,99.34C5.798,99.25 5.716,99.184 5.615,99.141C5.516,99.099 5.397,99.078 5.259,99.078L5.111,99.078L5.111,101.249Z" style="fill:rgb(158,161,168);fill-rule:nonzero;"/>
            <rect id="path905" x="7.888" y="98.354" width="0.88" height="6.535" style="fill:rgb(158,161,168);fill-rule:nonzero;"/>
            <path id="path907" d="M11.35,101.452L12.95,101.452L12.95,101.706C12.95,102.979 12.838,103.838 12.615,104.284C12.395,104.741 11.983,104.97 11.38,104.97C10.756,104.97 10.311,104.716 10.046,104.208C9.784,103.7 9.653,102.846 9.653,101.647C9.653,100.276 9.797,99.363 10.084,98.909C10.355,98.483 10.771,98.27 11.333,98.27C11.762,98.27 12.096,98.373 12.336,98.579C12.579,98.787 12.768,99.13 12.903,99.607L12.082,99.95C12.045,99.778 12.005,99.634 11.959,99.518C11.914,99.4 11.865,99.308 11.811,99.243C11.704,99.11 11.543,99.044 11.329,99.044C11.035,99.044 10.835,99.225 10.728,99.586C10.62,99.964 10.567,100.643 10.567,101.622C10.567,102.612 10.622,103.282 10.732,103.632C10.842,103.982 11.049,104.157 11.354,104.157C11.633,104.157 11.83,104.033 11.942,103.785C12.058,103.519 12.116,103.093 12.116,102.506L12.116,102.329L12.116,102.197L11.35,102.197L11.35,101.452Z" style="fill:rgb(158,161,168);fill-rule:nonzero;"/>
            <path id="path909" d="M13.428,98.354L16.294,98.354L16.294,99.125L15.307,99.125L15.307,104.889L14.444,104.889L14.444,99.125L13.428,99.125L13.428,98.354Z" style="fill:rgb(158,161,168);fill-rule:nonzero;"/>
            <rect id="path911" x="16.776" y="98.354" width="0.88" height="6.535" style="fill:rgb(158,161,168);fill-rule:nonzero;"/>
            <path id="path913" d="M18.981,98.354L19.735,98.354L20.31,101.021C20.381,101.354 20.444,101.688 20.501,102.024C20.56,102.357 20.614,102.707 20.662,103.074C20.667,103.026 20.671,102.989 20.674,102.963C20.677,102.935 20.68,102.916 20.683,102.904L20.805,102.155L20.916,101.444L21.013,100.974L21.525,98.354L22.287,98.354L22.888,104.889L22.046,104.889L21.898,102.671C21.892,102.559 21.886,102.461 21.881,102.379C21.878,102.298 21.876,102.23 21.876,102.176L21.838,101.3L21.817,100.496C21.817,100.49 21.816,100.479 21.813,100.462C21.813,100.442 21.811,100.417 21.809,100.386L21.787,100.517C21.765,100.672 21.744,100.808 21.724,100.923C21.707,101.039 21.692,101.136 21.677,101.215L21.567,101.812L21.525,102.036L20.975,104.889L20.382,104.889L19.866,102.426C19.795,102.101 19.732,101.773 19.675,101.44C19.622,101.104 19.572,100.753 19.527,100.386L19.273,104.889L18.444,104.889L18.981,98.354Z" style="fill:rgb(158,161,168);fill-rule:nonzero;"/>
            <path id="path915" d="M23.616,98.354L25.957,98.354L25.957,99.099L24.496,99.099L24.496,101.169L25.791,101.169L25.791,101.914L24.496,101.914L24.496,104.144L25.957,104.144L25.957,104.889L23.616,104.889L23.616,98.354Z" style="fill:rgb(158,161,168);fill-rule:nonzero;"/>
        </g>
        <g id="g980" transform="matrix(1,0,0,0.746111,0,167.12)">
            <path id="path972" d="M7.284,86.958L10.81,86.958L10.81,87.906L9.596,87.906L9.596,95L8.534,95L8.534,87.906L7.284,87.906L7.284,86.958Z" style="fill:rgb(158,161,168);fill-rule:nonzero;"/>
            <rect id="path974" x="11.404" y="86.958" width="1.083" height="8.042" style="fill:rgb(158,161,168);fill-rule:nonzero;"/>
            <path id="path976" d="M14.117,86.958L15.044,86.958L15.753,90.24C15.839,90.649 15.918,91.061 15.987,91.474C16.06,91.884 16.126,92.314 16.185,92.766C16.192,92.707 16.197,92.661 16.201,92.63C16.204,92.595 16.207,92.571 16.211,92.557L16.362,91.635L16.497,90.76L16.617,90.182L17.247,86.958L18.185,86.958L18.924,95L17.888,95L17.706,92.271C17.699,92.132 17.692,92.012 17.685,91.911C17.681,91.811 17.68,91.727 17.68,91.661L17.633,90.583L17.607,89.594C17.607,89.587 17.605,89.573 17.602,89.552C17.602,89.528 17.6,89.497 17.596,89.458L17.57,89.62C17.543,89.811 17.516,89.977 17.492,90.12C17.471,90.262 17.452,90.382 17.435,90.479L17.299,91.214L17.247,91.49L16.57,95L15.841,95L15.206,91.969C15.119,91.569 15.041,91.165 14.971,90.755C14.905,90.342 14.845,89.91 14.789,89.458L14.477,95L13.456,95L14.117,86.958Z" style="fill:rgb(158,161,168);fill-rule:nonzero;"/>
            <path id="path978" d="M19.82,86.958L22.701,86.958L22.701,87.875L20.904,87.875L20.904,90.422L22.497,90.422L22.497,91.339L20.904,91.339L20.904,94.083L22.701,94.083L22.701,95L19.82,95L19.82,86.958Z" style="fill:rgb(158,161,168);fill-rule:nonzero;"/>
        </g>
        <g id="g986" transform="matrix(0.999952,0,0,0.746119,0,166.235)">
            <rect id="path982" x="11.951" y="51.955" width="1.083" height="8.042" style="fill:rgb(158,161,168);fill-rule:nonzero;"/>
            <path id="path984" d="M14.285,51.955L15.295,51.955L16.373,55.164C16.686,56.07 16.962,57.037 17.201,58.065C17.114,57.443 17.05,56.881 17.009,56.377C16.967,55.874 16.946,55.4 16.946,54.955L16.946,51.955L18.035,51.955L18.035,59.997L17.019,59.997L15.805,56.377C15.694,56.041 15.588,55.695 15.488,55.341C15.39,54.987 15.3,54.615 15.217,54.226C15.21,54.178 15.198,54.119 15.18,54.049C15.167,53.98 15.149,53.9 15.128,53.81C15.139,53.9 15.147,53.978 15.154,54.044C15.161,54.107 15.167,54.16 15.17,54.205L15.227,55.023L15.285,56.018C15.288,56.074 15.29,56.141 15.29,56.221C15.293,56.301 15.295,56.391 15.295,56.492L15.352,59.997L14.285,59.997L14.285,51.955Z" style="fill:rgb(158,161,168);fill-rule:nonzero;"/>
        </g>
        <g id="g992" transform="matrix(1,0,0,0.727273,0,163.182)">
            <path id="path988" d="M14.523,131.99L14.523,132.964C14.246,132.828 14.013,132.76 13.826,132.76C13.569,132.76 13.348,132.825 13.164,132.953C12.98,133.078 12.827,133.273 12.706,133.536C12.588,133.8 12.499,134.135 12.44,134.542C12.385,134.944 12.357,135.422 12.357,135.974C12.357,137.96 12.865,138.953 13.883,138.953C14.06,138.953 14.273,138.898 14.523,138.786L14.523,139.781C14.263,139.927 13.971,140 13.648,140C12.02,140 11.206,138.67 11.206,136.01C11.206,134.573 11.404,133.503 11.799,132.802C12.199,132.101 12.808,131.75 13.628,131.75C13.93,131.75 14.228,131.83 14.523,131.99L14.523,131.99Z" style="fill:rgb(158,161,168);fill-rule:nonzero;"/>
            <path id="path990" d="M14.789,131.859L15.857,131.859L16.341,134.828L16.424,135.365L16.596,136.531C16.624,136.729 16.648,136.91 16.669,137.073C16.694,137.236 16.714,137.384 16.732,137.516L16.784,137.911C16.794,137.832 16.803,137.76 16.81,137.698C16.817,137.635 16.824,137.583 16.831,137.542L16.971,136.609L17.154,135.385C17.171,135.274 17.187,135.172 17.201,135.078C17.218,134.984 17.233,134.901 17.247,134.828L17.768,131.859L18.779,131.859L17.201,139.901L16.341,139.901L14.789,131.859Z" style="fill:rgb(158,161,168);fill-rule:nonzero;"/>
        </g>
        <g id="g1000" transform="matrix(1,0,0,0.727732,0,218.647)">
            <path id="path994" d="M12.635,171.078C12.635,172.498 12.477,173.507 12.161,174.104C11.845,174.701 11.316,175 10.573,175C9.792,175 9.241,174.679 8.922,174.036C8.606,173.408 8.448,172.292 8.448,170.687C8.448,169.257 8.604,168.245 8.917,167.651C9.233,167.054 9.767,166.755 10.521,166.755C11.194,166.755 11.694,166.986 12.021,167.448C12.236,167.757 12.392,168.196 12.49,168.766C12.587,169.293 12.635,170.064 12.635,171.078ZM11.5,171.193C11.5,169.8 11.438,168.877 11.313,168.422C11.188,167.964 10.932,167.734 10.547,167.734C10.161,167.734 9.905,167.944 9.776,168.365C9.651,168.788 9.589,169.639 9.589,170.917C9.589,172.094 9.655,172.91 9.786,173.365C9.922,173.795 10.175,174.01 10.547,174.01C10.911,174.01 11.161,173.809 11.297,173.406C11.432,173.007 11.5,172.269 11.5,171.193L11.5,171.193Z" style="fill:rgb(158,161,168);fill-rule:nonzero;"/>
            <path id="path996" d="M13.714,166.859L14.776,166.859L14.776,172.542C14.776,173.122 14.828,173.507 14.932,173.698C15.04,173.889 15.252,173.984 15.568,173.984C15.884,173.984 16.092,173.901 16.193,173.734C16.297,173.564 16.349,173.219 16.349,172.698L16.349,166.859L17.411,166.859L17.411,172.698C17.411,173.573 17.278,174.165 17.01,174.474C16.691,174.825 16.203,175 15.547,175C14.825,175 14.316,174.774 14.021,174.323C13.816,174.014 13.714,173.42 13.714,172.542L13.714,166.859Z" style="fill:rgb(158,161,168);fill-rule:nonzero;"/>
            <path id="path998" d="M18.01,166.859L21.536,166.859L21.536,167.807L20.323,167.807L20.323,174.901L19.26,174.901L19.26,167.807L18.01,167.807L18.01,166.859Z" style="fill:rgb(158,161,168);fill-rule:nonzero;"/>
        </g>
        <g id="g1006" transform="matrix(1.1726,0,0,0.852803,0,189)">
            <path id="path1002" d="M9.783,145.581L12.252,145.581L12.252,146.362L10.707,146.362L10.707,148.53L12.101,148.53L12.101,149.312L10.707,149.312L10.707,152.439L9.783,152.439L9.783,145.581Z" style="fill:rgb(158,161,168);fill-rule:nonzero;"/>
            <path id="path1004" d="M12.963,145.581L14.216,145.581C15.196,145.581 15.686,146.189 15.686,147.406C15.686,147.871 15.622,148.216 15.495,148.441C15.367,148.666 15.142,148.836 14.82,148.952C15.19,149.1 15.443,149.289 15.579,149.52C15.718,149.748 15.788,150.092 15.788,150.551C15.788,151.809 15.249,152.439 14.171,152.439L12.963,152.439L12.963,145.581ZM13.834,148.601C14.192,148.601 14.441,148.518 14.58,148.352C14.719,148.177 14.789,147.871 14.789,147.433C14.789,146.692 14.522,146.322 13.989,146.322L13.918,146.322L13.878,146.322C13.854,146.322 13.84,146.324 13.834,146.327L13.834,148.601ZM13.834,151.648C14.213,151.648 14.475,151.566 14.62,151.404C14.765,151.241 14.837,150.946 14.837,150.52C14.837,150.081 14.762,149.775 14.611,149.6C14.463,149.423 14.204,149.334 13.834,149.334L13.834,151.648Z" style="fill:rgb(158,161,168);fill-rule:nonzero;"/>
        </g>
        <g id="g1024" transform="matrix(1.1167,0,0,0.895496,0,198)">
            <path id="path1008" d="M0.883,98.354L3.748,98.354L3.748,99.125L2.762,99.125L2.762,104.889L1.898,104.889L1.898,99.125L0.883,99.125L0.883,98.354Z" style="fill:rgb(158,161,168);fill-rule:nonzero;"/>
            <path id="path1010" d="M4.231,98.354L5.39,98.354C5.87,98.354 6.227,98.468 6.461,98.697C6.758,98.993 6.906,99.446 6.906,100.056C6.906,100.524 6.827,100.901 6.669,101.186C6.513,101.468 6.291,101.643 6,101.711L7.202,104.889L6.309,104.889L5.111,101.689L5.111,104.889L4.231,104.889L4.231,98.354ZM5.111,101.249C5.452,101.249 5.694,101.17 5.835,101.012C5.976,100.854 6.046,100.588 6.046,100.212C6.046,100.009 6.031,99.836 6,99.692C5.972,99.548 5.925,99.431 5.86,99.34C5.798,99.25 5.716,99.184 5.615,99.141C5.516,99.099 5.397,99.078 5.259,99.078L5.111,99.078L5.111,101.249Z" style="fill:rgb(158,161,168);fill-rule:nonzero;"/>
            <rect id="path1012" x="7.888" y="98.354" width="0.88" height="6.535" style="fill:rgb(158,161,168);fill-rule:nonzero;"/>
            <path id="path1014" d="M11.35,101.452L12.95,101.452L12.95,101.706C12.95,102.979 12.838,103.838 12.615,104.284C12.395,104.741 11.983,104.97 11.38,104.97C10.756,104.97 10.311,104.716 10.046,104.208C9.784,103.7 9.653,102.846 9.653,101.647C9.653,100.276 9.797,99.363 10.084,98.909C10.355,98.483 10.771,98.27 11.333,98.27C11.762,98.27 12.096,98.373 12.336,98.579C12.579,98.787 12.768,99.13 12.903,99.607L12.082,99.95C12.045,99.778 12.005,99.634 11.959,99.518C11.914,99.4 11.865,99.308 11.811,99.243C11.704,99.11 11.543,99.044 11.329,99.044C11.035,99.044 10.835,99.225 10.728,99.586C10.62,99.964 10.567,100.643 10.567,101.622C10.567,102.612 10.622,103.282 10.732,103.632C10.842,103.982 11.049,104.157 11.354,104.157C11.633,104.157 11.83,104.033 11.942,103.785C12.058,103.519 12.116,103.093 12.116,102.506L12.116,102.329L12.116,102.197L11.35,102.197L11.35,101.452Z" style="fill:rgb(158,161,168);fill-rule:nonzero;"/>
            <path id="path1016" d="M13.428,98.354L16.294,98.354L16.294,99.125L15.307,99.125L15.307,104.889L14.444,104.889L14.444,99.125L13.428,99.125L13.428,98.354Z" style="fill:rgb(158,161,168);fill-rule:nonzero;"/>
            <rect id="path1018" x="16.776" y="98.354" width="0.88" height="6.535" style="fill:rgb(158,161,168);fill-rule:nonzero;"/>
            <path id="path1020" d="M18.981,98.354L19.735,98.354L20.31,101.021C20.381,101.354 20.444,101.688 20.501,102.024C20.56,102.357 20.614,102.707 20.662,103.074C20.667,103.026 20.671,102.989 20.674,102.963C20.677,102.935 20.68,102.916 20.683,102.904L20.805,102.155L20.916,101.444L21.013,100.974L21.525,98.354L22.287,98.354L22.888,104.889L22.046,104.889L21.898,102.671C21.892,102.559 21.886,102.461 21.881,102.379C21.878,102.298 21.876,102.23 21.876,102.176L21.838,101.3L21.817,100.496C21.817,100.49 21.816,100.479 21.813,100.462C21.813,100.442 21.811,100.417 21.809,100.386L21.787,100.517C21.765,100.672 21.744,100.808 21.724,100.923C21.707,101.039 21.692,101.136 21.677,101.215L21.567,101.812L21.525,102.036L20.975,104.889L20.382,104.889L19.866,102.426C19.795,102.101 19.732,101.773 19.675,101.44C19.622,101.104 19.572,100.753 19.527,100.386L19.273,104.889L18.444,104.889L18.981,98.354Z" style="fill:rgb(158,161,168);fill-rule:nonzero;"/>
            <path id="path1022" d="M23.616,98.354L25.957,98.354L25.957,99.099L24.496,99.099L24.496,101.169L25.791,101.169L25.791,101.914L24.496,101.914L24.496,104.144L25.957,104.144L25.957,104.889L23.616,104.889L23.616,98.354Z" style="fill:rgb(158,161,168);fill-rule:nonzero;"/>
        </g>
        <g id="text920" transform="matrix(0.827054,0,0,1.07956,1.22375,0)">
            <path id="path926" d="M9.826,16.673L2.133,16.673L5.187,12.599C5.534,12.136 5.826,11.723 6.063,11.362C6.299,10.995 6.485,10.672 6.62,10.392C6.885,9.866 7.018,9.326 7.018,8.771C7.018,8.467 6.955,8.226 6.83,8.047C6.704,7.869 6.533,7.779 6.316,7.779C5.833,7.779 5.592,8.233 5.592,9.14L5.592,9.314C5.597,9.381 5.602,9.461 5.607,9.552L2.676,9.552L2.661,9.147C2.661,8.023 3.009,7.102 3.703,6.383C4.403,5.659 5.298,5.297 6.388,5.297C7.44,5.297 8.299,5.64 8.965,6.325C9.635,6.995 9.97,7.871 9.97,8.952C9.97,9.82 9.741,10.665 9.283,11.485C9.051,11.895 8.75,12.327 8.378,12.78C8.012,13.229 7.565,13.702 7.04,14.198C7.493,14.165 7.949,14.141 8.407,14.126C8.871,14.112 9.343,14.104 9.826,14.104L9.826,16.673Z" style="fill:rgb(158,161,168);fill-rule:nonzero;"/>
            <path id="path928" d="M14.37,16.673L11.353,16.673L11.353,5.5L16.686,5.5L16.686,8.127L14.37,8.127L14.37,9.755L16.527,9.755L16.527,12.281L14.37,12.281L14.37,16.673Z" style="fill:rgb(158,161,168);fill-rule:nonzero;"/>
            <path id="path930" d="M17.866,16.673L17.866,5.5L21.376,5.5C22.688,5.5 23.66,5.789 24.292,6.368C24.934,6.962 25.254,7.729 25.254,8.67C25.254,10.069 24.56,10.826 23.17,10.942C23.961,11.058 24.54,11.318 24.907,11.723C25.279,12.129 25.464,12.713 25.464,13.475C25.464,14.435 25.153,15.207 24.531,15.791C23.913,16.379 23.1,16.673 22.092,16.673L17.866,16.673ZM20.883,14.249C20.941,14.254 20.992,14.259 21.035,14.264L21.144,14.264C21.52,14.264 21.819,14.165 22.041,13.967C22.268,13.769 22.381,13.504 22.381,13.171C22.381,12.838 22.268,12.577 22.041,12.389C21.819,12.201 21.513,12.107 21.122,12.107L20.883,12.107L20.883,14.249ZM20.883,9.842L21.086,9.842C21.448,9.842 21.733,9.758 21.94,9.589C22.152,9.42 22.258,9.183 22.258,8.879C22.258,8.233 21.904,7.91 21.195,7.91C21.161,7.91 21.117,7.912 21.064,7.917C21.016,7.917 20.956,7.919 20.883,7.924L20.883,9.842Z" style="fill:rgb(158,161,168);fill-rule:nonzero;"/>
            <path id="path932" d="M26.752,16.673L26.752,5.5L32.361,5.5L32.361,8.127L29.77,8.127L29.77,9.755L32.093,9.755L32.093,12.281L29.77,12.281L29.77,13.989L32.361,13.989L32.361,16.673L26.752,16.673Z" style="fill:rgb(158,161,168);fill-rule:nonzero;"/>
        </g>
        <g id="text924" transform="matrix(1.0155,0,0,0.984732,0,0)">
            <path id="path951" d="M5.782,21.433L8.618,21.433L8.618,22.336L6.849,22.336L6.849,24.844L8.418,24.844L8.418,25.747L6.849,25.747L6.849,28.45L8.618,28.45L8.618,29.352L5.782,29.352L5.782,21.433Z" style="fill:rgb(158,161,168);fill-rule:nonzero;"/>
            <path id="path953" d="M12.706,21.562L12.706,22.521C12.432,22.387 12.203,22.321 12.019,22.321C11.766,22.321 11.549,22.384 11.367,22.51C11.186,22.633 11.036,22.825 10.916,23.085C10.8,23.345 10.713,23.675 10.654,24.075C10.6,24.471 10.572,24.941 10.572,25.485C10.572,27.441 11.073,28.419 12.075,28.419C12.25,28.419 12.46,28.364 12.706,28.255L12.706,29.234C12.45,29.378 12.162,29.45 11.844,29.45C10.241,29.45 9.439,28.14 9.439,25.521C9.439,24.105 9.634,23.052 10.024,22.362C10.417,21.671 11.017,21.326 11.824,21.326C12.121,21.326 12.415,21.404 12.706,21.562Z" style="fill:rgb(158,161,168);fill-rule:nonzero;"/>
            <path id="path955" d="M13.598,21.433L14.665,21.433L14.665,24.531L16.229,24.531L16.229,21.433L17.296,21.433L17.296,29.352L16.229,29.352L16.229,25.434L14.665,25.434L14.665,29.352L13.598,29.352L13.598,21.433Z" style="fill:rgb(158,161,168);fill-rule:nonzero;"/>
            <path id="path957" d="M22.487,25.588C22.487,26.986 22.331,27.979 22.02,28.567C21.709,29.156 21.187,29.45 20.456,29.45C19.686,29.45 19.144,29.133 18.83,28.501C18.519,27.882 18.363,26.783 18.363,25.203C18.363,23.794 18.517,22.798 18.825,22.213C19.136,21.625 19.662,21.331 20.404,21.331C21.068,21.331 21.56,21.558 21.881,22.013C22.093,22.317 22.247,22.75 22.343,23.31C22.439,23.83 22.487,24.589 22.487,25.588ZM21.369,25.7C21.369,24.329 21.307,23.42 21.184,22.972C21.061,22.521 20.81,22.295 20.43,22.295C20.05,22.295 19.797,22.502 19.671,22.916C19.548,23.333 19.486,24.17 19.486,25.429C19.486,26.588 19.551,27.391 19.681,27.839C19.815,28.263 20.064,28.475 20.43,28.475C20.789,28.475 21.035,28.277 21.169,27.88C21.302,27.487 21.369,26.76 21.369,25.7Z" style="fill:rgb(158,161,168);fill-rule:nonzero;"/>
            <path id="path959" d="M23.877,21.433L25.682,21.433L25.682,29.352L24.661,29.352L24.661,22.341L23.877,22.341L23.877,21.433Z" style="fill:rgb(158,161,168);fill-rule:nonzero;"/>
        </g>
        <g id="text937" transform="matrix(1.0155,0,0,0.984732,0,0)">
            <path id="path939" d="M5.177,198.131L8.013,198.131L8.013,199.034L6.244,199.034L6.244,201.542L7.813,201.542L7.813,202.444L6.244,202.444L6.244,205.147L8.013,205.147L8.013,206.05L5.177,206.05L5.177,198.131Z" style="fill:rgb(158,161,168);fill-rule:nonzero;"/>
            <path id="path941" d="M12.101,198.259L12.101,199.218C11.827,199.085 11.598,199.018 11.414,199.018C11.161,199.018 10.943,199.082 10.762,199.208C10.581,199.331 10.431,199.523 10.311,199.783C10.195,200.042 10.107,200.372 10.049,200.772C9.995,201.169 9.967,201.639 9.967,202.183C9.967,204.139 10.468,205.117 11.47,205.117C11.644,205.117 11.855,205.062 12.101,204.952L12.101,205.932C11.844,206.076 11.557,206.147 11.239,206.147C9.636,206.147 8.834,204.838 8.834,202.219C8.834,200.803 9.029,199.75 9.418,199.059C9.812,198.369 10.412,198.023 11.219,198.023C11.516,198.023 11.81,198.102 12.101,198.259L12.101,198.259Z" style="fill:rgb(158,161,168);fill-rule:nonzero;"/>
            <path id="path943" d="M12.993,198.131L14.06,198.131L14.06,201.229L15.624,201.229L15.624,198.131L16.691,198.131L16.691,206.05L15.624,206.05L15.624,202.132L14.06,202.132L14.06,206.05L12.993,206.05L12.993,198.131Z" style="fill:rgb(158,161,168);fill-rule:nonzero;"/>
            <path id="path945" d="M21.881,202.285C21.881,203.684 21.726,204.677 21.415,205.265C21.104,205.853 20.582,206.147 19.85,206.147C19.081,206.147 18.539,205.831 18.225,205.199C17.913,204.58 17.758,203.48 17.758,201.901C17.758,200.492 17.912,199.495 18.219,198.911C18.531,198.323 19.057,198.029 19.799,198.029C20.462,198.029 20.955,198.256 21.276,198.711C21.488,199.015 21.642,199.448 21.738,200.008C21.834,200.528 21.881,201.287 21.881,202.285L21.881,202.285ZM20.763,202.398C20.763,201.027 20.702,200.118 20.579,199.67C20.456,199.218 20.204,198.993 19.825,198.993C19.445,198.993 19.192,199.2 19.066,199.613C18.943,200.031 18.881,200.868 18.881,202.126C18.881,203.286 18.946,204.089 19.076,204.537C19.209,204.961 19.459,205.173 19.825,205.173C20.184,205.173 20.43,204.975 20.563,204.578C20.697,204.185 20.763,203.458 20.763,202.398Z" style="fill:rgb(158,161,168);fill-rule:nonzero;"/>
            <path id="path948" d="M23.882,200.706L22.835,200.706L22.825,200.393C22.825,199.528 22.955,198.919 23.215,198.567C23.478,198.211 23.919,198.034 24.538,198.034C25.704,198.034 26.287,198.68 26.287,199.972C26.287,200.844 25.851,202.101 24.979,203.742L24.348,204.927C24.345,204.934 24.335,204.954 24.318,204.988C24.301,205.023 24.277,205.072 24.246,205.137L26.205,205.137L26.205,206.05L22.728,206.05C22.786,205.92 22.907,205.662 23.092,205.276C23.276,204.889 23.528,204.368 23.846,203.711C24.116,203.137 24.342,202.65 24.523,202.25C24.704,201.849 24.841,201.521 24.933,201.265C25.118,200.752 25.21,200.309 25.21,199.936C25.21,199.28 24.983,198.952 24.528,198.952C24.09,198.952 23.871,199.359 23.871,200.172L23.877,200.624L23.882,200.706Z" style="fill:rgb(158,161,168);fill-rule:nonzero;"/>
        </g>
    </g>
</svg>
