<?xml version="1.0" encoding="UTF-8" standalone="no"?>
<!DOCTYPE svg PUBLIC "-//W3C//DTD SVG 1.1//EN" "http://www.w3.org/Graphics/SVG/1.1/DTD/svg11.dtd">
<svg width="100%" height="100%" viewBox="0 0 120 380" version="1.1" xmlns="http://www.w3.org/2000/svg" xmlns:xlink="http://www.w3.org/1999/xlink" xml:space="preserve" xmlns:serif="http://www.serif.com/" style="fill-rule:evenodd;clip-rule:evenodd;stroke-linejoin:round;stroke-miterlimit:2;">
    <g id="Layer-2" serif:id="Layer 2">
        <g id="text989">
        </g>
        <rect id="rect4689" x="0.872" y="0" width="120" height="380" style="fill:rgb(44,45,48);fill-rule:nonzero;"/>
        <g id="text80" transform="matrix(1.00498,0,0,0.995047,15.8724,4.99997)">
            <path id="path4726" d="M29.851,371.706L29.851,363.943L31.853,363.943L32.903,366.668C32.96,366.829 33.024,367.013 33.094,367.221C33.168,367.429 33.249,367.668 33.336,367.94L33.552,368.624C33.475,367.95 33.416,367.373 33.376,366.894C33.336,366.415 33.316,366.013 33.316,365.687L33.316,363.943L35.317,363.943L35.317,371.706L33.316,371.706L32.26,368.85C32.149,368.545 32.049,368.26 31.958,367.995C31.871,367.727 31.794,367.472 31.727,367.231C31.77,367.777 31.802,368.253 31.822,368.659C31.843,369.065 31.853,369.42 31.853,369.725L31.853,371.706L29.851,371.706Z" style="fill:rgb(158,161,168);fill-rule:nonzero;"/>
            <path id="path4728" d="M39.887,371.706L37.791,371.706L37.791,368.418L35.865,363.943L38.052,363.943L38.429,365.094C38.503,365.319 38.568,365.535 38.625,365.743C38.686,365.951 38.739,366.15 38.786,366.341C38.863,366.056 38.93,365.811 38.987,365.607C39.044,365.399 39.095,365.232 39.138,365.104L39.52,363.943L41.692,363.943L39.887,368.418L39.887,371.706Z" style="fill:rgb(158,161,168);fill-rule:nonzero;"/>
            <path id="path4730" d="M41.894,371.515L41.894,369.076C42.306,369.639 42.752,369.921 43.231,369.921C43.412,369.921 43.56,369.874 43.673,369.78C43.787,369.683 43.844,369.562 43.844,369.418C43.844,369.21 43.72,369.008 43.472,368.81L43.13,368.543C42.902,368.372 42.708,368.203 42.547,368.035C42.386,367.865 42.256,367.69 42.155,367.513C42.054,367.332 41.981,367.146 41.934,366.954C41.887,366.763 41.863,366.562 41.863,366.351C41.863,365.989 41.947,365.61 42.115,365.215C42.199,365.03 42.296,364.863 42.406,364.712C42.517,364.558 42.644,364.422 42.789,364.305C43.184,363.969 43.662,363.802 44.222,363.802C44.721,363.802 45.224,363.934 45.73,364.199L45.73,366.572C45.559,366.308 45.365,366.1 45.147,365.949C44.929,365.795 44.714,365.718 44.503,365.718C44.342,365.718 44.21,365.765 44.106,365.858C43.999,365.949 43.945,366.058 43.945,366.185C43.945,366.393 44.087,366.599 44.372,366.804L44.704,367.05C45.147,367.368 45.463,367.695 45.655,368.03C45.849,368.366 45.946,368.758 45.946,369.207C45.946,369.971 45.713,370.601 45.247,371.098C44.781,371.594 44.191,371.842 43.477,371.842C42.985,371.842 42.457,371.733 41.894,371.515L41.894,371.515Z" style="fill:rgb(158,161,168);fill-rule:nonzero;"/>
            <path id="path4732" d="M49.576,371.706L47.48,371.706L47.48,365.803L46.323,365.803L46.323,363.943L50.778,363.943L50.778,365.803L49.576,365.803L49.576,371.706Z" style="fill:rgb(158,161,168);fill-rule:nonzero;"/>
            <path id="path4734" d="M56.525,371.706L54.428,371.706L54.428,368.584L53.428,368.584L53.428,371.706L51.331,371.706L51.331,363.943L53.428,363.943L53.428,366.688L54.428,366.688L54.428,363.943L56.525,363.943L56.525,371.706Z" style="fill:rgb(158,161,168);fill-rule:nonzero;"/>
            <rect id="path4736" x="57.606" y="363.943" width="2.097" height="7.763" style="fill:rgb(158,161,168);fill-rule:nonzero;"/>
        </g>
        <g id="text4987">
        </g>
        <g id="text1042">
        </g>
        <g id="text2090">
        </g>
        <g id="text1678" transform="matrix(0.927313,0,0,1.07838,0,0)">
            <path id="path1889" d="M10.784,16.463L10.784,3.414L13.827,3.414C15.568,3.414 16.923,3.881 17.892,4.817C19.165,6.039 19.802,7.749 19.802,9.947C19.802,12.111 19.264,13.781 18.188,14.959C17.269,15.962 15.9,16.463 14.08,16.463L10.784,16.463ZM14.308,13.311C15.57,13.249 16.202,12.161 16.202,10.048C16.202,9.006 16.041,8.183 15.72,7.58C15.399,6.972 14.965,6.668 14.418,6.668L14.308,6.668L14.308,13.311Z" style="fill:rgb(158,161,168);fill-rule:nonzero;"/>
            <path id="path1892" d="M30.097,16.463L26.183,16.463L25.532,14.604C25.324,14.035 25.155,13.488 25.025,12.964C24.901,13.483 24.715,14.077 24.468,14.748L23.817,16.463L19.98,16.463L23.149,9.693L20.157,3.414L24.079,3.414L24.662,5.18C24.724,5.343 24.783,5.535 24.839,5.755C24.901,5.975 24.963,6.222 25.025,6.499C25.166,5.935 25.285,5.501 25.38,5.197L25.921,3.414L29.868,3.414L26.893,9.693L30.097,16.463Z" style="fill:rgb(158,161,168);fill-rule:nonzero;"/>
            <path id="path1894" d="M34.644,16.463L30.849,16.463L33.993,9.516C34.23,9.003 34.483,8.499 34.754,8.003C35.03,7.502 35.337,6.994 35.675,6.482L31.254,6.482L31.254,3.414L40.509,3.414L34.644,16.463Z" style="fill:rgb(158,161,168);fill-rule:nonzero;"/>
            <path id="path1896" d="M46.62,16.463L46.62,3.414L53.17,3.414L53.17,6.482L50.145,6.482L50.145,8.383L52.858,8.383L52.858,11.333L50.145,11.333L50.145,13.328L53.17,13.328L53.17,16.463L46.62,16.463Z" style="fill:rgb(158,161,168);fill-rule:nonzero;"/>
            <path id="path1898" d="M54.666,16.463L54.666,3.414L58.03,3.414L59.797,7.995C59.892,8.265 60,8.575 60.118,8.924C60.242,9.274 60.377,9.677 60.524,10.133L60.887,11.282C60.757,10.15 60.659,9.181 60.591,8.375C60.524,7.569 60.49,6.893 60.49,6.346L60.49,3.414L63.854,3.414L63.854,16.463L60.49,16.463L58.715,11.663C58.529,11.15 58.36,10.671 58.208,10.226C58.061,9.775 57.932,9.347 57.819,8.941C57.892,9.86 57.946,10.66 57.98,11.342C58.013,12.023 58.03,12.621 58.03,13.133L58.03,16.463L54.666,16.463Z" style="fill:rgb(158,161,168);fill-rule:nonzero;"/>
            <path id="path1903" d="M71.359,16.463L67.767,16.463L64.775,3.414L68.477,3.414L69.119,7.141C69.361,8.567 69.556,10.161 69.702,11.925C69.764,11.142 69.84,10.409 69.931,9.727C70.021,9.045 70.128,8.381 70.252,7.733L71.089,3.414L74.917,3.414L71.359,16.463Z" style="fill:rgb(158,161,168);fill-rule:nonzero;"/>
            <path id="path1915" d="M75.83,16.463L75.83,3.414L82.38,3.414L82.38,6.482L79.355,6.482L79.355,8.383L82.068,8.383L82.068,11.333L79.355,11.333L79.355,13.328L82.38,13.328L82.38,16.463L75.83,16.463Z" style="fill:rgb(158,161,168);fill-rule:nonzero;"/>
            <path id="path1917" d="M90.046,16.463L83.876,16.463L83.876,3.414L87.401,3.414L87.401,13.328L90.046,13.328L90.046,16.463Z" style="fill:rgb(158,161,168);fill-rule:nonzero;"/>
            <path id="path1919" d="M100.67,9.981C100.67,11.97 100.217,13.587 99.31,14.832C98.408,16.072 97.233,16.692 95.785,16.692C94.5,16.692 93.399,16.216 92.48,15.263C91.325,14.057 90.748,12.249 90.748,9.837C90.748,7.527 91.351,5.76 92.556,4.538C93.452,3.631 94.514,3.177 95.743,3.177C97.247,3.177 98.445,3.791 99.335,5.02C100.225,6.248 100.67,7.902 100.67,9.981ZM97.011,10.006C97.011,7.645 96.594,6.465 95.76,6.465C95.343,6.465 95.01,6.775 94.762,7.395C94.52,7.969 94.399,8.814 94.399,9.93C94.399,11.029 94.512,11.882 94.737,12.491C94.968,13.094 95.286,13.395 95.692,13.395C96.109,13.395 96.43,13.097 96.656,12.499C96.892,11.902 97.011,11.071 97.011,10.006L97.011,10.006Z" style="fill:rgb(158,161,168);fill-rule:nonzero;"/>
            <path id="path1921" d="M105.691,16.463L102.166,16.463L102.166,3.414L105.581,3.414C107.283,3.414 108.545,3.76 109.367,4.453C110.337,5.27 110.821,6.406 110.821,7.859C110.821,9.443 110.306,10.623 109.274,11.401C108.57,11.925 107.559,12.187 106.24,12.187L105.691,12.187L105.691,16.463ZM105.691,9.254L105.851,9.262C106.28,9.262 106.62,9.133 106.874,8.874C107.128,8.609 107.254,8.248 107.254,7.792C107.254,7.341 107.13,6.975 106.882,6.693C106.635,6.406 106.319,6.262 105.936,6.262L105.691,6.262L105.691,9.254Z" style="fill:rgb(158,161,168);fill-rule:nonzero;"/>
            <path id="path1924" d="M112.072,16.463L112.072,3.414L118.622,3.414L118.622,6.482L115.596,6.482L115.596,8.383L118.31,8.383L118.31,11.333L115.596,11.333L115.596,13.328L118.622,13.328L118.622,16.463L112.072,16.463Z" style="fill:rgb(158,161,168);fill-rule:nonzero;"/>
        </g>
        <g id="text1682" transform="matrix(1.08421,0,0,0.922331,-9,2)">
            <path id="path1878" d="M13.835,32.47L15.769,32.47C16.569,32.47 17.164,32.66 17.555,33.042C18.049,33.536 18.296,34.291 18.296,35.307C18.296,36.089 18.164,36.717 17.901,37.192C17.642,37.663 17.27,37.954 16.785,38.067L18.79,43.368L17.301,43.368L15.303,38.032L15.303,43.368L13.835,43.368L13.835,32.47ZM15.303,37.298C15.873,37.298 16.275,37.166 16.51,36.903C16.745,36.639 16.863,36.194 16.863,35.569C16.863,35.23 16.837,34.94 16.785,34.7C16.738,34.46 16.661,34.265 16.553,34.114C16.449,33.964 16.313,33.853 16.143,33.783C15.978,33.712 15.781,33.677 15.55,33.677L15.303,33.677L15.303,37.298Z" style="fill:rgb(158,161,168);fill-rule:nonzero;"/>
            <path id="path1880" d="M21.487,32.47L22.63,32.47L24.966,43.368L23.512,43.368L23.103,41.244L20.943,41.244L20.527,43.368L19.115,43.368L21.487,32.47ZM22.891,40.107L22.567,38.371C22.35,37.19 22.174,35.929 22.037,34.587C21.971,35.242 21.887,35.905 21.783,36.578C21.679,37.246 21.557,37.957 21.416,38.71L21.148,40.107L22.891,40.107Z" style="fill:rgb(158,161,168);fill-rule:nonzero;"/>
            <path id="path1882" d="M24.741,32.47L29.519,32.47L29.519,33.754L27.875,33.754L27.875,43.368L26.435,43.368L26.435,33.754L24.741,33.754L24.741,32.47Z" style="fill:rgb(158,161,168);fill-rule:nonzero;"/>
            <path id="path1884" d="M30.324,32.47L34.227,32.47L34.227,33.712L31.792,33.712L31.792,37.164L33.952,37.164L33.952,38.406L31.792,38.406L31.792,42.126L34.227,42.126L34.227,43.368L30.324,43.368L30.324,32.47Z" style="fill:rgb(158,161,168);fill-rule:nonzero;"/>
            <path id="path1886" d="M39.02,32.47L41.505,32.47L41.505,43.368L40.1,43.368L40.1,33.719L39.02,33.719L39.02,32.47Z" style="fill:rgb(158,161,168);fill-rule:nonzero;"/>
        </g>
        <g id="text1695" transform="matrix(1.05298,0,0,0.949689,-9,2)">
            <path id="path1866" d="M14.245,68.389L16.124,68.389C16.901,68.389 17.479,68.574 17.858,68.944C18.338,69.424 18.578,70.157 18.578,71.144C18.578,71.903 18.45,72.513 18.194,72.975C17.943,73.432 17.582,73.715 17.111,73.825L19.058,78.973L17.611,78.973L15.671,73.791L15.671,78.973L14.245,78.973L14.245,68.389ZM15.671,73.078C16.224,73.078 16.615,72.95 16.844,72.694C17.072,72.438 17.186,72.006 17.186,71.398C17.186,71.069 17.161,70.788 17.111,70.555C17.065,70.322 16.99,70.132 16.885,69.986C16.784,69.84 16.652,69.732 16.487,69.664C16.327,69.595 16.135,69.561 15.911,69.561L15.671,69.561L15.671,73.078Z" style="fill:rgb(158,161,168);fill-rule:nonzero;"/>
            <path id="path1868" d="M21.676,68.389L22.787,68.389L25.056,78.973L23.644,78.973L23.246,76.91L21.149,76.91L20.744,78.973L19.373,78.973L21.676,68.389ZM23.041,75.806L22.725,74.12C22.515,72.973 22.344,71.748 22.211,70.445C22.147,71.08 22.065,71.725 21.964,72.378C21.864,73.027 21.745,73.717 21.608,74.449L21.347,75.806L23.041,75.806Z" style="fill:rgb(158,161,168);fill-rule:nonzero;"/>
            <path id="path1870" d="M24.837,68.389L29.478,68.389L29.478,69.636L27.881,69.636L27.881,78.973L26.482,78.973L26.482,69.636L24.837,69.636L24.837,68.389Z" style="fill:rgb(158,161,168);fill-rule:nonzero;"/>
            <path id="path1872" d="M30.259,68.389L34.05,68.389L34.05,69.595L31.685,69.595L31.685,72.947L33.783,72.947L33.783,74.154L31.685,74.154L31.685,77.767L34.05,77.767L34.05,78.973L30.259,78.973L30.259,68.389Z" style="fill:rgb(158,161,168);fill-rule:nonzero;"/>
            <path id="path1874" d="M39.521,71.83L38.122,71.83L38.109,71.412C38.109,70.256 38.282,69.442 38.63,68.971C38.982,68.496 39.571,68.258 40.398,68.258C41.957,68.258 42.736,69.122 42.736,70.85C42.736,72.015 42.153,73.695 40.988,75.888L40.145,77.472C40.14,77.481 40.127,77.508 40.104,77.554C40.081,77.6 40.049,77.666 40.008,77.753L42.626,77.753L42.626,78.973L37.978,78.973C38.056,78.8 38.218,78.454 38.465,77.938C38.712,77.422 39.048,76.725 39.473,75.847C39.834,75.079 40.136,74.428 40.378,73.893C40.62,73.359 40.803,72.92 40.926,72.577C41.173,71.892 41.296,71.3 41.296,70.802C41.296,69.924 40.992,69.485 40.385,69.485C39.8,69.485 39.507,70.029 39.507,71.117L39.514,71.72L39.521,71.83Z" style="fill:rgb(158,161,168);fill-rule:nonzero;"/>
        </g>
        <g id="text1699" transform="matrix(1.05386,0,0,0.948889,-9,2)">
            <path id="path1854" d="M14.233,105.208L16.113,105.208C16.891,105.208 17.469,105.393 17.849,105.764C18.329,106.244 18.57,106.978 18.57,107.966C18.57,108.725 18.441,109.336 18.185,109.798C17.934,110.255 17.572,110.539 17.101,110.649L19.05,115.802L17.602,115.802L15.66,110.615L15.66,115.802L14.233,115.802L14.233,105.208ZM15.66,109.901C16.214,109.901 16.605,109.773 16.834,109.517C17.062,109.261 17.177,108.828 17.177,108.22C17.177,107.891 17.152,107.609 17.101,107.376C17.056,107.143 16.98,106.953 16.875,106.807C16.774,106.66 16.642,106.553 16.477,106.484C16.317,106.416 16.125,106.381 15.901,106.381L15.66,106.381L15.66,109.901Z" style="fill:rgb(158,161,168);fill-rule:nonzero;"/>
            <path id="path1856" d="M21.671,105.208L22.782,105.208L25.053,115.802L23.64,115.802L23.242,113.736L21.142,113.736L20.738,115.802L19.365,115.802L21.671,105.208ZM23.036,112.632L22.721,110.944C22.51,109.796 22.339,108.57 22.206,107.266C22.142,107.902 22.06,108.547 21.959,109.201C21.858,109.851 21.739,110.541 21.602,111.273L21.341,112.632L23.036,112.632Z" style="fill:rgb(158,161,168);fill-rule:nonzero;"/>
            <path id="path1858" d="M24.834,105.208L29.479,105.208L29.479,106.457L27.88,106.457L27.88,115.802L26.48,115.802L26.48,106.457L24.834,106.457L24.834,105.208Z" style="fill:rgb(158,161,168);fill-rule:nonzero;"/>
            <path id="path1860" d="M30.261,105.208L34.055,105.208L34.055,106.416L31.688,106.416L31.688,109.771L33.787,109.771L33.787,110.978L31.688,110.978L31.688,114.594L34.055,114.594L34.055,115.802L30.261,115.802L30.261,105.208Z" style="fill:rgb(158,161,168);fill-rule:nonzero;"/>
            <path id="path1862" d="M39.585,108.048L38.227,108.048L38.227,107.767C38.227,107.296 38.265,106.891 38.343,106.553C38.426,106.214 38.551,105.935 38.721,105.716C38.894,105.496 39.114,105.336 39.379,105.235C39.645,105.13 39.962,105.078 40.333,105.078C41.111,105.078 41.678,105.297 42.034,105.736C42.391,106.175 42.57,106.873 42.57,107.829C42.57,108.616 42.487,109.183 42.323,109.53C42.163,109.883 41.854,110.15 41.396,110.333C41.89,110.502 42.231,110.765 42.419,111.122C42.606,111.474 42.7,112.039 42.7,112.817C42.7,113.883 42.499,114.667 42.096,115.17C41.694,115.673 41.067,115.925 40.216,115.925C38.762,115.925 38.034,115.09 38.034,113.421L38.034,113.311L38.034,113.235C38.034,113.185 38.037,113.153 38.041,113.139L39.379,113.139C39.375,113.217 39.37,113.286 39.366,113.345L39.366,113.482C39.366,113.844 39.443,114.132 39.599,114.347C39.759,114.562 39.976,114.669 40.251,114.669C40.429,114.669 40.58,114.635 40.703,114.566C40.832,114.493 40.934,114.379 41.012,114.223C41.095,114.063 41.154,113.857 41.191,113.606C41.227,113.354 41.246,113.05 41.246,112.693C41.246,112.048 41.147,111.584 40.95,111.301C40.758,111.017 40.436,110.875 39.983,110.875C39.933,110.875 39.878,110.88 39.818,110.889C39.759,110.893 39.69,110.9 39.613,110.909L39.613,109.674L39.812,109.674C40.365,109.674 40.74,109.555 40.937,109.317C41.133,109.08 41.232,108.629 41.232,107.966C41.232,106.868 40.955,106.319 40.402,106.319C39.853,106.319 39.578,106.788 39.578,107.726L39.585,108.048Z" style="fill:rgb(158,161,168);fill-rule:nonzero;"/>
        </g>
        <g id="text1703" transform="matrix(1.05247,0,0,0.950146,-9,2)">
            <path id="path1843" d="M14.252,142.029L16.13,142.029C16.906,142.029 17.484,142.214 17.863,142.584C18.343,143.063 18.583,143.796 18.583,144.783C18.583,145.541 18.455,146.151 18.199,146.613C17.948,147.069 17.587,147.353 17.116,147.462L19.062,152.608L17.617,152.608L15.677,147.428L15.677,152.608L14.252,152.608L14.252,142.029ZM15.677,146.715C16.23,146.715 16.621,146.587 16.849,146.332C17.078,146.076 17.192,145.644 17.192,145.037C17.192,144.708 17.167,144.427 17.116,144.194C17.071,143.961 16.995,143.771 16.89,143.625C16.79,143.479 16.657,143.372 16.493,143.303C16.333,143.235 16.141,143.2 15.917,143.2L15.677,143.2L15.677,146.715Z" style="fill:rgb(158,161,168);fill-rule:nonzero;"/>
            <path id="path1845" d="M21.68,142.029L22.79,142.029L25.058,152.608L23.646,152.608L23.249,150.546L21.152,150.546L20.748,152.608L19.378,152.608L21.68,142.029ZM23.043,149.442L22.728,147.757C22.518,146.61 22.347,145.386 22.214,144.084C22.15,144.719 22.068,145.363 21.968,146.016C21.867,146.665 21.748,147.355 21.611,148.086L21.351,149.442L23.043,149.442Z" style="fill:rgb(158,161,168);fill-rule:nonzero;"/>
            <path id="path1847" d="M24.839,142.029L29.477,142.029L29.477,143.276L27.881,143.276L27.881,152.608L26.483,152.608L26.483,143.276L24.839,143.276L24.839,142.029Z" style="fill:rgb(158,161,168);fill-rule:nonzero;"/>
            <path id="path1849" d="M30.259,142.029L34.048,142.029L34.048,143.235L31.684,143.235L31.684,146.585L33.78,146.585L33.78,147.791L31.684,147.791L31.684,151.402L34.048,151.402L34.048,152.608L30.259,152.608L30.259,142.029Z" style="fill:rgb(158,161,168);fill-rule:nonzero;"/>
            <path id="path1851" d="M40.756,142.029L42.078,142.029L42.078,148.62L42.757,148.62L42.757,149.71L42.078,149.71L42.078,152.608L40.756,152.608L40.756,149.71L37.857,149.71L37.857,148.497L40.756,142.029ZM40.756,148.62L40.756,144.18L38.974,148.62L40.756,148.62Z" style="fill:rgb(158,161,168);fill-rule:nonzero;"/>
        </g>
        <g id="text1707" transform="matrix(1.01828,0,0,0.982044,-9,2)">
            <path id="path1830" d="M73.653,30.495L75.032,30.495L75.032,39.565L77.286,39.565L77.286,40.731L73.653,40.731L73.653,30.495Z" style="fill:rgb(158,161,168);fill-rule:nonzero;"/>
            <path id="path1832" d="M78.161,30.495L81.827,30.495L81.827,31.662L79.54,31.662L79.54,34.904L81.569,34.904L81.569,36.071L79.54,36.071L79.54,39.565L81.827,39.565L81.827,40.731L78.161,40.731L78.161,30.495Z" style="fill:rgb(158,161,168);fill-rule:nonzero;"/>
            <path id="path1834" d="M82.278,30.495L83.637,30.495L84.254,34.274L84.36,34.957L84.579,36.442C84.614,36.694 84.645,36.924 84.671,37.132C84.702,37.339 84.729,37.527 84.751,37.695L84.817,38.199C84.831,38.097 84.842,38.007 84.851,37.927C84.859,37.848 84.868,37.781 84.877,37.728L85.056,36.542L85.288,34.984C85.31,34.842 85.33,34.712 85.348,34.592C85.37,34.473 85.39,34.367 85.407,34.274L86.07,30.495L87.356,30.495L85.348,40.731L84.254,40.731L82.278,30.495Z" style="fill:rgb(158,161,168);fill-rule:nonzero;"/>
            <path id="path1836" d="M88.105,30.495L91.772,30.495L91.772,31.662L89.484,31.662L89.484,34.904L91.513,34.904L91.513,36.071L89.484,36.071L89.484,39.565L91.772,39.565L91.772,40.731L88.105,40.731L88.105,30.495Z" style="fill:rgb(158,161,168);fill-rule:nonzero;"/>
            <path id="path1838" d="M93.038,30.495L94.417,30.495L94.417,39.565L96.671,39.565L96.671,40.731L93.038,40.731L93.038,30.495Z" style="fill:rgb(158,161,168);fill-rule:nonzero;"/>
            <path id="path1840" d="M100.781,30.495L103.115,30.495L103.115,40.731L101.795,40.731L101.795,31.669L100.781,31.669L100.781,30.495Z" style="fill:rgb(158,161,168);fill-rule:nonzero;"/>
        </g>
        <g id="text1716" transform="matrix(0.992278,0,0,1.00778,-9,2)">
            <path id="path1815" d="M75.584,64.446L76.927,64.446L76.927,73.284L79.124,73.284L79.124,74.421L75.584,74.421L75.584,64.446Z" style="fill:rgb(158,161,168);fill-rule:nonzero;"/>
            <path id="path1818" d="M79.977,64.446L83.549,64.446L83.549,65.583L81.32,65.583L81.32,68.742L83.297,68.742L83.297,69.879L81.32,69.879L81.32,73.284L83.549,73.284L83.549,74.421L79.977,74.421L79.977,64.446Z" style="fill:rgb(158,161,168);fill-rule:nonzero;"/>
            <path id="path1820" d="M83.988,64.446L85.313,64.446L85.913,68.129L86.017,68.794L86.23,70.241C86.264,70.487 86.295,70.711 86.32,70.913C86.351,71.115 86.376,71.298 86.398,71.462L86.463,71.953C86.475,71.854 86.486,71.766 86.495,71.688C86.503,71.611 86.512,71.546 86.52,71.494L86.695,70.338L86.921,68.82C86.942,68.682 86.962,68.555 86.979,68.439C87,68.322 87.02,68.219 87.037,68.129L87.683,64.446L88.936,64.446L86.979,74.421L85.913,74.421L83.988,64.446Z" style="fill:rgb(158,161,168);fill-rule:nonzero;"/>
            <path id="path1822" d="M89.667,64.446L93.239,64.446L93.239,65.583L91.01,65.583L91.01,68.742L92.987,68.742L92.987,69.879L91.01,69.879L91.01,73.284L93.239,73.284L93.239,74.421L89.667,74.421L89.667,64.446Z" style="fill:rgb(158,161,168);fill-rule:nonzero;"/>
            <path id="path1824" d="M94.473,64.446L95.817,64.446L95.817,73.284L98.013,73.284L98.013,74.421L94.473,74.421L94.473,64.446Z" style="fill:rgb(158,161,168);fill-rule:nonzero;"/>
            <path id="path1826" d="M102.787,67.689L101.469,67.689L101.457,67.295C101.457,66.206 101.62,65.439 101.948,64.995C102.279,64.548 102.835,64.324 103.614,64.324C105.083,64.324 105.817,65.138 105.817,66.766C105.817,67.864 105.268,69.447 104.17,71.514L103.375,73.006C103.371,73.015 103.358,73.04 103.336,73.084C103.315,73.127 103.285,73.189 103.246,73.271L105.714,73.271L105.714,74.421L101.334,74.421C101.407,74.257 101.56,73.932 101.793,73.445C102.025,72.959 102.342,72.302 102.742,71.475C103.082,70.751 103.367,70.138 103.595,69.634C103.823,69.13 103.995,68.717 104.112,68.394C104.344,67.748 104.461,67.19 104.461,66.72C104.461,65.893 104.174,65.48 103.601,65.48C103.05,65.48 102.774,65.993 102.774,67.018L102.781,67.586L102.787,67.689Z" style="fill:rgb(158,161,168);fill-rule:nonzero;"/>
        </g>
        <g id="text1720" transform="matrix(0.993021,0,0,1.00703,-9,2)">
            <path id="path1788" d="M75.527,99.134L76.872,99.134L76.872,107.978L79.07,107.978L79.07,109.116L75.527,109.116L75.527,99.134Z" style="fill:rgb(158,161,168);fill-rule:nonzero;"/>
            <path id="path1790" d="M79.923,99.134L83.498,99.134L83.498,100.272L81.268,100.272L81.268,103.433L83.246,103.433L83.246,104.571L81.268,104.571L81.268,107.978L83.498,107.978L83.498,109.116L79.923,109.116L79.923,99.134Z" style="fill:rgb(158,161,168);fill-rule:nonzero;"/>
            <path id="path1792" d="M83.938,99.134L85.263,99.134L85.865,102.819L85.968,103.485L86.181,104.933C86.216,105.179 86.246,105.403 86.272,105.605C86.302,105.808 86.328,105.991 86.35,106.155L86.414,106.646C86.427,106.547 86.438,106.459 86.447,106.381C86.455,106.304 86.464,106.239 86.472,106.187L86.647,105.03L86.873,103.511C86.895,103.373 86.914,103.246 86.931,103.129C86.953,103.013 86.972,102.91 86.99,102.819L87.636,99.134L88.89,99.134L86.931,109.116L85.865,109.116L83.938,99.134Z" style="fill:rgb(158,161,168);fill-rule:nonzero;"/>
            <path id="path1797" d="M89.621,99.134L93.196,99.134L93.196,100.272L90.965,100.272L90.965,103.433L92.944,103.433L92.944,104.571L90.965,104.571L90.965,107.978L93.196,107.978L93.196,109.116L89.621,109.116L89.621,99.134Z" style="fill:rgb(158,161,168);fill-rule:nonzero;"/>
            <path id="path1803" d="M94.431,99.134L95.775,99.134L95.775,107.978L97.974,107.978L97.974,109.116L94.431,109.116L94.431,99.134Z" style="fill:rgb(158,161,168);fill-rule:nonzero;"/>
            <path id="path1805" d="M102.803,101.81L101.523,101.81L101.523,101.545C101.523,101.102 101.559,100.72 101.633,100.401C101.71,100.082 101.829,99.819 101.988,99.612C102.152,99.406 102.359,99.255 102.609,99.16C102.859,99.061 103.158,99.011 103.508,99.011C104.24,99.011 104.775,99.218 105.111,99.632C105.447,100.046 105.615,100.703 105.615,101.604C105.615,102.345 105.538,102.879 105.382,103.207C105.232,103.539 104.941,103.791 104.51,103.963C104.975,104.123 105.296,104.371 105.473,104.707C105.65,105.039 105.738,105.571 105.738,106.304C105.738,107.308 105.548,108.047 105.169,108.521C104.79,108.995 104.199,109.232 103.398,109.232C102.027,109.232 101.342,108.446 101.342,106.873L101.342,106.769L101.342,106.698C101.342,106.651 101.344,106.62 101.348,106.607L102.609,106.607C102.605,106.681 102.6,106.745 102.596,106.801L102.596,106.931C102.596,107.271 102.669,107.543 102.816,107.745C102.967,107.948 103.171,108.049 103.43,108.049C103.598,108.049 103.74,108.017 103.857,107.952C103.977,107.883 104.074,107.775 104.148,107.629C104.225,107.478 104.281,107.284 104.316,107.047C104.35,106.81 104.367,106.523 104.367,106.187C104.367,105.58 104.275,105.142 104.089,104.875C103.908,104.608 103.605,104.474 103.178,104.474C103.13,104.474 103.079,104.478 103.023,104.487C102.967,104.491 102.902,104.498 102.829,104.506L102.829,103.342L103.016,103.342C103.538,103.342 103.891,103.23 104.076,103.006C104.262,102.782 104.354,102.358 104.354,101.733C104.354,100.698 104.094,100.181 103.572,100.181C103.055,100.181 102.796,100.623 102.796,101.506L102.803,101.81Z" style="fill:rgb(158,161,168);fill-rule:nonzero;"/>
        </g>
        <g id="text1724" transform="matrix(0.991854,0,0,1.00821,-9,2)">
            <path id="path1773" d="M75.616,133.849L76.959,133.849L76.959,142.682L79.155,142.682L79.155,143.819L75.616,143.819L75.616,133.849Z" style="fill:rgb(158,161,168);fill-rule:nonzero;"/>
            <path id="path1775" d="M80.007,133.849L83.578,133.849L83.578,134.985L81.35,134.985L81.35,138.143L83.326,138.143L83.326,139.279L81.35,139.279L81.35,142.682L83.578,142.682L83.578,143.819L80.007,143.819L80.007,133.849Z" style="fill:rgb(158,161,168);fill-rule:nonzero;"/>
            <path id="path1777" d="M84.017,133.849L85.341,133.849L85.941,137.529L86.045,138.194L86.258,139.641C86.292,139.886 86.322,140.11 86.348,140.312C86.378,140.515 86.404,140.698 86.426,140.861L86.49,141.352C86.503,141.253 86.514,141.165 86.522,141.087C86.531,141.01 86.539,140.945 86.548,140.894L86.722,139.738L86.948,138.22C86.97,138.083 86.989,137.956 87.006,137.839C87.028,137.723 87.047,137.62 87.065,137.529L87.71,133.849L88.963,133.849L87.007,143.819L85.941,143.819L84.017,133.849Z" style="fill:rgb(158,161,168);fill-rule:nonzero;"/>
            <path id="path1779" d="M89.693,133.849L93.264,133.849L93.264,134.985L91.036,134.985L91.036,138.143L93.012,138.143L93.012,139.279L91.036,139.279L91.036,142.682L93.264,142.682L93.264,143.819L89.693,143.819L89.693,133.849Z" style="fill:rgb(158,161,168);fill-rule:nonzero;"/>
            <path id="path1782" d="M94.497,133.849L95.84,133.849L95.84,142.682L98.036,142.682L98.036,143.819L94.497,143.819L94.497,133.849Z" style="fill:rgb(158,161,168);fill-rule:nonzero;"/>
            <path id="path1784" d="M103.977,133.849L105.223,133.849L105.223,140.061L105.862,140.061L105.862,141.087L105.223,141.087L105.223,143.819L103.977,143.819L103.977,141.087L101.245,141.087L101.245,139.944L103.977,133.849ZM103.977,140.061L103.977,135.876L102.298,140.061L103.977,140.061Z" style="fill:rgb(158,161,168);fill-rule:nonzero;"/>
        </g>
        <g id="text1728" transform="matrix(1.01668,0,0,0.983589,0,0)">
            <path id="path1751" d="M20.926,193.203L20.926,194.547C20.507,194.247 20.13,194.097 19.794,194.097C19.432,194.097 19.137,194.225 18.907,194.481C18.678,194.723 18.563,195.048 18.563,195.454C18.563,195.811 18.645,196.118 18.808,196.374C18.892,196.51 19.029,196.687 19.218,196.903C19.413,197.119 19.662,197.38 19.966,197.684C20.527,198.253 20.908,198.745 21.111,199.16C21.314,199.562 21.416,200.054 21.416,200.636C21.416,201.426 21.193,202.077 20.747,202.589C20.302,203.088 19.73,203.337 19.033,203.337C18.446,203.337 17.945,203.176 17.531,202.854L17.531,201.49C18.02,201.848 18.466,202.026 18.868,202.026C19.243,202.026 19.536,201.903 19.748,201.656C19.96,201.404 20.066,201.064 20.066,200.636C20.066,200.266 19.984,199.933 19.821,199.637C19.737,199.496 19.62,199.335 19.47,199.154C19.32,198.968 19.132,198.763 18.907,198.538C18.559,198.194 18.27,197.889 18.04,197.625C17.811,197.36 17.641,197.128 17.531,196.93C17.319,196.541 17.213,196.052 17.213,195.46C17.213,194.662 17.42,194.028 17.835,193.561C18.254,193.088 18.817,192.852 19.523,192.852C20.013,192.852 20.48,192.969 20.926,193.203L20.926,193.203Z" style="fill:rgb(158,161,168);fill-rule:nonzero;"/>
            <path id="path1753" d="M26.585,193.157L26.585,194.395C26.232,194.222 25.937,194.136 25.698,194.136C25.372,194.136 25.092,194.218 24.858,194.381C24.624,194.54 24.43,194.787 24.275,195.123C24.125,195.458 24.013,195.884 23.938,196.4C23.867,196.912 23.832,197.519 23.832,198.22C23.832,200.744 24.478,202.006 25.771,202.006C25.996,202.006 26.268,201.936 26.585,201.795L26.585,203.059C26.254,203.244 25.884,203.337 25.473,203.337C23.404,203.337 22.369,201.647 22.369,198.267C22.369,196.44 22.621,195.081 23.124,194.189C23.631,193.298 24.406,192.852 25.447,192.852C25.831,192.852 26.21,192.954 26.585,193.157L26.585,193.157Z" style="fill:rgb(158,161,168);fill-rule:nonzero;"/>
            <path id="path1756" d="M29.564,192.991L30.636,192.991L32.827,203.211L31.464,203.211L31.08,201.219L29.054,201.219L28.664,203.211L27.34,203.211L29.564,192.991ZM30.881,200.153L30.577,198.525C30.374,197.417 30.208,196.235 30.08,194.977C30.018,195.59 29.939,196.213 29.842,196.844C29.745,197.47 29.63,198.137 29.498,198.843L29.246,200.153L30.881,200.153Z" style="fill:rgb(158,161,168);fill-rule:nonzero;"/>
            <path id="path1758" d="M33.641,192.991L35.018,192.991L35.018,202.046L37.269,202.046L37.269,203.211L33.641,203.211L33.641,192.991Z" style="fill:rgb(158,161,168);fill-rule:nonzero;"/>
            <path id="path1770" d="M38.142,192.991L41.803,192.991L41.803,194.156L39.519,194.156L39.519,197.393L41.544,197.393L41.544,198.558L39.519,198.558L39.519,202.046L41.803,202.046L41.803,203.211L38.142,203.211L38.142,192.991Z" style="fill:rgb(158,161,168);fill-rule:nonzero;"/>
        </g>
        <g id="text1732" transform="matrix(0.923248,0,0,1.08313,-3.00001,0)">
            <path id="path1738" d="M86.068,180.123C86.068,181.762 85.885,182.926 85.521,183.616C85.156,184.305 84.545,184.65 83.687,184.65C82.786,184.65 82.151,184.279 81.782,183.538C81.417,182.812 81.235,181.524 81.235,179.673C81.235,178.022 81.415,176.854 81.776,176.168C82.141,175.479 82.758,175.135 83.627,175.135C84.405,175.135 84.982,175.401 85.358,175.934C85.607,176.291 85.787,176.798 85.899,177.455C86.012,178.064 86.068,178.953 86.068,180.123L86.068,180.123ZM84.757,180.256C84.757,178.649 84.685,177.583 84.541,177.058C84.397,176.529 84.102,176.265 83.657,176.265C83.213,176.265 82.916,176.507 82.768,176.992C82.623,177.481 82.551,178.463 82.551,179.937C82.551,181.296 82.627,182.237 82.78,182.762C82.936,183.259 83.229,183.508 83.657,183.508C84.078,183.508 84.367,183.275 84.523,182.81C84.679,182.349 84.757,181.498 84.757,180.256L84.757,180.256Z" style="fill:rgb(158,161,168);fill-rule:nonzero;"/>
            <path id="path1740" d="M87.312,175.255L90.654,175.255L90.654,176.313L88.562,176.313L88.562,179.246L90.449,179.246L90.449,180.304L88.562,180.304L88.562,184.535L87.312,184.535L87.312,175.255Z" style="fill:rgb(158,161,168);fill-rule:nonzero;"/>
            <path id="path1742" d="M91.616,175.255L94.957,175.255L94.957,176.313L92.866,176.313L92.866,179.246L94.753,179.246L94.753,180.304L92.866,180.304L92.866,184.535L91.616,184.535L91.616,175.255Z" style="fill:rgb(158,161,168);fill-rule:nonzero;"/>
            <path id="path1744" d="M99.015,175.447L99.015,176.667C98.634,176.395 98.291,176.259 97.987,176.259C97.658,176.259 97.39,176.375 97.181,176.607C96.973,176.828 96.869,177.122 96.869,177.491C96.869,177.815 96.943,178.094 97.091,178.326C97.167,178.45 97.292,178.611 97.464,178.807C97.64,179.003 97.867,179.24 98.143,179.516C98.652,180.033 98.999,180.48 99.183,180.857C99.367,181.221 99.459,181.668 99.459,182.197C99.459,182.914 99.257,183.505 98.852,183.97C98.448,184.423 97.929,184.65 97.296,184.65C96.763,184.65 96.308,184.503 95.931,184.211L95.931,182.973C96.376,183.297 96.781,183.459 97.145,183.459C97.486,183.459 97.752,183.347 97.945,183.123C98.137,182.894 98.233,182.586 98.233,182.197C98.233,181.861 98.159,181.558 98.011,181.29C97.935,181.161 97.829,181.015 97.692,180.851C97.556,180.682 97.386,180.496 97.181,180.292C96.865,179.979 96.602,179.703 96.394,179.462C96.186,179.222 96.031,179.011 95.931,178.831C95.739,178.479 95.643,178.034 95.643,177.497C95.643,176.771 95.831,176.196 96.208,175.772C96.588,175.343 97.099,175.129 97.74,175.129C98.185,175.129 98.61,175.235 99.015,175.447L99.015,175.447Z" style="fill:rgb(158,161,168);fill-rule:nonzero;"/>
            <path id="path1746" d="M100.511,175.255L103.835,175.255L103.835,176.313L101.762,176.313L101.762,179.252L103.601,179.252L103.601,180.31L101.762,180.31L101.762,183.477L103.835,183.477L103.835,184.535L100.511,184.535L100.511,175.255Z" style="fill:rgb(158,161,168);fill-rule:nonzero;"/>
            <path id="path1748" d="M104.244,175.255L108.313,175.255L108.313,176.349L106.913,176.349L106.913,184.535L105.687,184.535L105.687,176.349L104.244,176.349L104.244,175.255Z" style="fill:rgb(158,161,168);fill-rule:nonzero;"/>
        </g>
        <g id="text1736" transform="matrix(0.906526,0,0,1.10311,0,0)">
            <path id="path2088" d="M5.516,199.276L6.726,199.276L7.274,202.64L7.369,203.248L7.564,204.57C7.595,204.795 7.623,204.999 7.646,205.184C7.674,205.369 7.697,205.536 7.717,205.686L7.776,206.134C7.788,206.044 7.798,205.963 7.806,205.892C7.813,205.821 7.821,205.762 7.829,205.715L7.989,204.659L8.195,203.272C8.215,203.146 8.233,203.03 8.248,202.924C8.268,202.817 8.286,202.723 8.301,202.64L8.892,199.276L10.037,199.276L8.248,208.389L7.274,208.389L5.516,199.276Z" style="fill:rgb(158,161,168);fill-rule:nonzero;"/>
            <path id="path2090" d="M14.257,199.424L14.257,200.527C13.942,200.374 13.678,200.297 13.466,200.297C13.175,200.297 12.925,200.37 12.716,200.515C12.508,200.657 12.335,200.877 12.197,201.177C12.063,201.476 11.963,201.855 11.896,202.316C11.833,202.772 11.801,203.313 11.801,203.939C11.801,206.189 12.378,207.315 13.531,207.315C13.731,207.315 13.973,207.252 14.257,207.126L14.257,208.253C13.962,208.418 13.631,208.501 13.265,208.501C11.42,208.501 10.497,206.994 10.497,203.98C10.497,202.351 10.721,201.139 11.17,200.344C11.622,199.549 12.313,199.152 13.241,199.152C13.584,199.152 13.922,199.243 14.257,199.424L14.257,199.424Z" style="fill:rgb(158,161,168);fill-rule:nonzero;"/>
            <path id="path2092" d="M16.913,199.276L17.869,199.276L19.822,208.389L18.607,208.389L18.264,206.612L16.458,206.612L16.11,208.389L14.929,208.389L16.913,199.276ZM18.087,205.662L17.816,204.21C17.635,203.223 17.487,202.168 17.373,201.047C17.318,201.594 17.247,202.148 17.161,202.711C17.074,203.27 16.972,203.864 16.854,204.494L16.629,205.662L18.087,205.662Z" style="fill:rgb(158,161,168);fill-rule:nonzero;"/>
            <path id="path2097" d="M23.429,199.276L25.506,199.276L25.506,208.389L24.332,208.389L24.332,200.321L23.429,200.321L23.429,199.276Z" style="fill:rgb(158,161,168);fill-rule:nonzero;"/>
            <rect id="path2100" x="29.856" y="204.8" width="2.148" height="0.921" style="fill:rgb(158,161,168);fill-rule:nonzero;"/>
            <rect id="path2102" x="35.209" y="199.276" width="1.228" height="9.113" style="fill:rgb(158,161,168);fill-rule:nonzero;"/>
            <path id="path2104" d="M37.853,199.276L38.998,199.276L40.22,202.912C40.574,203.939 40.887,205.035 41.159,206.199C41.06,205.495 40.987,204.857 40.94,204.287C40.893,203.716 40.869,203.179 40.869,202.676L40.869,199.276L42.103,199.276L42.103,208.389L40.952,208.389L39.577,204.287C39.451,203.905 39.331,203.514 39.217,203.112C39.107,202.711 39.004,202.29 38.91,201.849C38.902,201.794 38.888,201.727 38.869,201.649C38.853,201.57 38.833,201.48 38.81,201.377C38.821,201.48 38.831,201.568 38.839,201.643C38.847,201.714 38.853,201.775 38.857,201.826L38.922,202.752L38.987,203.88C38.991,203.943 38.993,204.019 38.993,204.11C38.997,204.2 38.999,204.303 38.999,204.417L39.064,208.389L37.854,208.389L37.853,199.276Z" style="fill:rgb(158,161,168);fill-rule:nonzero;"/>
            <path id="path2106" d="M50.584,204.057C50.584,205.666 50.405,206.809 50.047,207.486C49.689,208.163 49.089,208.501 48.247,208.501C47.362,208.501 46.738,208.137 46.376,207.409C46.018,206.697 45.839,205.432 45.839,203.614C45.839,201.993 46.016,200.846 46.37,200.173C46.728,199.496 47.334,199.158 48.188,199.158C48.951,199.158 49.518,199.42 49.888,199.943C50.132,200.293 50.309,200.791 50.419,201.436C50.529,202.034 50.584,202.908 50.584,204.057L50.584,204.057ZM49.298,204.187C49.298,202.609 49.227,201.562 49.085,201.047C48.944,200.527 48.654,200.268 48.218,200.268C47.781,200.268 47.49,200.506 47.344,200.982C47.202,201.462 47.132,202.426 47.132,203.874C47.132,205.208 47.206,206.132 47.356,206.648C47.509,207.136 47.797,207.38 48.218,207.38C48.631,207.38 48.914,207.151 49.068,206.695C49.221,206.243 49.298,205.406 49.298,204.187L49.298,204.187Z" style="fill:rgb(158,161,168);fill-rule:nonzero;"/>
            <path id="path2109" d="M51.806,199.276L53.01,199.276L53.01,205.715C53.01,206.372 53.069,206.809 53.187,207.026C53.309,207.242 53.549,207.35 53.907,207.35C54.265,207.35 54.501,207.256 54.616,207.067C54.734,206.874 54.793,206.483 54.793,205.892L54.793,199.276L55.997,199.276L55.997,205.892C55.997,206.884 55.845,207.555 55.542,207.905C55.18,208.302 54.627,208.501 53.884,208.501C53.065,208.501 52.489,208.245 52.154,207.734C51.922,207.384 51.806,206.711 51.806,205.715L51.806,199.276Z" style="fill:rgb(158,161,168);fill-rule:nonzero;"/>
            <path id="path2111" d="M56.675,199.276L60.671,199.276L60.671,200.35L59.296,200.35L59.296,208.389L58.092,208.389L58.092,200.35L56.675,200.35L56.675,199.276Z" style="fill:rgb(158,161,168);fill-rule:nonzero;"/>
        </g>
        <g id="text1929" transform="matrix(0.906526,0,0,1.10311,0,0)">
            <path id="path2064" d="M5.516,226.472L6.726,226.472L7.274,229.836L7.369,230.444L7.564,231.766C7.595,231.99 7.623,232.195 7.646,232.38C7.674,232.565 7.697,232.732 7.717,232.882L7.776,233.33C7.788,233.24 7.798,233.159 7.806,233.088C7.813,233.017 7.821,232.958 7.829,232.911L7.989,231.855L8.195,230.468C8.215,230.342 8.233,230.226 8.248,230.119C8.268,230.013 8.286,229.919 8.301,229.836L8.892,226.472L10.037,226.472L8.248,235.585L7.274,235.585L5.516,226.472Z" style="fill:rgb(158,161,168);fill-rule:nonzero;"/>
            <path id="path2068" d="M14.257,226.619L14.257,227.723C13.942,227.57 13.678,227.493 13.466,227.493C13.175,227.493 12.925,227.566 12.716,227.711C12.508,227.853 12.335,228.073 12.197,228.372C12.063,228.671 11.963,229.051 11.896,229.511C11.833,229.968 11.801,230.509 11.801,231.134C11.801,233.385 12.378,234.511 13.531,234.511C13.731,234.511 13.973,234.448 14.257,234.322L14.257,235.449C13.962,235.614 13.631,235.697 13.265,235.697C11.42,235.697 10.497,234.19 10.497,231.176C10.497,229.547 10.721,228.335 11.17,227.54C11.622,226.745 12.313,226.348 13.241,226.348C13.584,226.348 13.922,226.438 14.257,226.619L14.257,226.619Z" style="fill:rgb(158,161,168);fill-rule:nonzero;"/>
            <path id="path2070" d="M16.913,226.472L17.869,226.472L19.822,235.585L18.607,235.585L18.264,233.808L16.458,233.808L16.11,235.585L14.929,235.585L16.913,226.472ZM18.087,232.858L17.816,231.406C17.635,230.418 17.487,229.364 17.373,228.242C17.318,228.789 17.247,229.344 17.161,229.907C17.074,230.466 16.972,231.06 16.854,231.689L16.629,232.858L18.087,232.858Z" style="fill:rgb(158,161,168);fill-rule:nonzero;"/>
            <path id="path2072" d="M24.131,229.435L22.927,229.435L22.915,229.075C22.915,228.079 23.065,227.379 23.364,226.973C23.667,226.564 24.174,226.36 24.886,226.36C26.228,226.36 26.899,227.103 26.899,228.591C26.899,229.594 26.397,231.04 25.394,232.929L24.668,234.292C24.664,234.3 24.652,234.324 24.633,234.363C24.613,234.402 24.585,234.459 24.55,234.534L26.805,234.534L26.805,235.585L22.803,235.585C22.87,235.435 23.01,235.138 23.222,234.693C23.434,234.249 23.724,233.649 24.09,232.893C24.4,232.232 24.66,231.672 24.869,231.211C25.077,230.751 25.235,230.373 25.341,230.078C25.553,229.488 25.66,228.978 25.66,228.549C25.66,227.794 25.398,227.416 24.875,227.416C24.371,227.416 24.119,227.884 24.119,228.821L24.125,229.34L24.131,229.435Z" style="fill:rgb(158,161,168);fill-rule:nonzero;"/>
            <rect id="path2074" x="29.856" y="231.996" width="2.148" height="0.921" style="fill:rgb(158,161,168);fill-rule:nonzero;"/>
            <rect id="path2076" x="35.209" y="226.472" width="1.228" height="9.113" style="fill:rgb(158,161,168);fill-rule:nonzero;"/>
            <path id="path2078" d="M37.853,226.472L38.998,226.472L40.22,230.108C40.574,231.134 40.887,232.23 41.159,233.395C41.06,232.691 40.987,232.053 40.94,231.483C40.893,230.912 40.869,230.375 40.869,229.871L40.869,226.472L42.103,226.472L42.103,235.585L40.952,235.585L39.577,231.483C39.451,231.101 39.331,230.71 39.217,230.308C39.107,229.907 39.004,229.486 38.91,229.045C38.902,228.99 38.888,228.923 38.869,228.844C38.853,228.766 38.833,228.675 38.81,228.573C38.821,228.675 38.831,228.764 38.839,228.839C38.847,228.909 38.853,228.97 38.857,229.022L38.922,229.948L38.987,231.075C38.991,231.138 38.993,231.215 38.993,231.306C38.997,231.396 38.999,231.498 38.999,231.613L39.064,235.585L37.854,235.585L37.853,226.472Z" style="fill:rgb(158,161,168);fill-rule:nonzero;"/>
            <path id="path2080" d="M50.584,231.253C50.584,232.862 50.405,234.005 50.047,234.682C49.689,235.358 49.089,235.697 48.247,235.697C47.362,235.697 46.738,235.333 46.376,234.605C46.018,233.893 45.839,232.628 45.839,230.81C45.839,229.189 46.016,228.042 46.37,227.369C46.728,226.692 47.334,226.354 48.188,226.354C48.951,226.354 49.518,226.615 49.888,227.139C50.132,227.489 50.309,227.987 50.419,228.632C50.529,229.23 50.584,230.104 50.584,231.253L50.584,231.253ZM49.298,231.382C49.298,229.805 49.227,228.758 49.085,228.242C48.944,227.723 48.654,227.463 48.218,227.463C47.781,227.463 47.49,227.701 47.344,228.178C47.202,228.658 47.132,229.622 47.132,231.07C47.132,232.403 47.206,233.328 47.356,233.844C47.509,234.331 47.797,234.575 48.218,234.575C48.631,234.575 48.914,234.347 49.068,233.891C49.221,233.438 49.298,232.602 49.298,231.382L49.298,231.382Z" style="fill:rgb(158,161,168);fill-rule:nonzero;"/>
            <path id="path2083" d="M51.806,226.472L53.01,226.472L53.01,232.911C53.01,233.568 53.069,234.005 53.187,234.221C53.309,234.438 53.549,234.546 53.907,234.546C54.265,234.546 54.501,234.451 54.616,234.263C54.734,234.07 54.793,233.678 54.793,233.088L54.793,226.472L55.997,226.472L55.997,233.088C55.997,234.08 55.845,234.751 55.542,235.101C55.18,235.498 54.627,235.697 53.884,235.697C53.065,235.697 52.489,235.441 52.154,234.93C51.922,234.579 51.806,233.907 51.806,232.911L51.806,226.472Z" style="fill:rgb(158,161,168);fill-rule:nonzero;"/>
            <path id="path2085" d="M56.675,226.472L60.671,226.472L60.671,227.546L59.296,227.546L59.296,235.585L58.092,235.585L58.092,227.546L56.675,227.546L56.675,226.472Z" style="fill:rgb(158,161,168);fill-rule:nonzero;"/>
        </g>
        <g id="text1937" transform="matrix(0.88379,0,0,1.13149,0,0)">
            <path id="path2041" d="M7.965,251.517L10.14,251.517L10.14,251.863C10.14,253.593 9.988,254.761 9.685,255.367C9.386,255.988 8.826,256.299 8.005,256.299C7.157,256.299 6.553,255.954 6.193,255.263C5.836,254.573 5.657,253.412 5.657,251.782C5.657,249.918 5.853,248.677 6.244,248.059C6.613,247.48 7.178,247.19 7.942,247.19C8.525,247.19 8.979,247.33 9.306,247.61C9.635,247.894 9.892,248.36 10.077,249.009L8.96,249.475C8.91,249.241 8.855,249.045 8.793,248.888C8.732,248.727 8.665,248.602 8.592,248.514C8.446,248.334 8.228,248.243 7.936,248.243C7.537,248.243 7.265,248.489 7.119,248.98C6.973,249.494 6.9,250.416 6.9,251.748C6.9,253.094 6.975,254.005 7.125,254.481C7.274,254.956 7.556,255.194 7.971,255.194C8.35,255.194 8.617,255.026 8.77,254.688C8.928,254.327 9.006,253.748 9.006,252.95L9.006,252.709L9.006,252.53L7.965,252.53L7.965,251.517Z" style="fill:rgb(158,161,168);fill-rule:nonzero;"/>
            <path id="path2043" d="M12.603,247.305L13.535,247.305L15.439,256.19L14.254,256.19L13.92,254.458L12.16,254.458L11.82,256.19L10.669,256.19L12.603,247.305ZM13.748,253.531L13.483,252.116C13.307,251.153 13.163,250.125 13.052,249.032C12.998,249.565 12.929,250.106 12.844,250.654C12.76,251.199 12.66,251.778 12.545,252.392L12.326,253.531L13.748,253.531Z" style="fill:rgb(158,161,168);fill-rule:nonzero;"/>
            <path id="path2046" d="M15.255,247.305L19.151,247.305L19.151,248.353L17.81,248.353L17.81,256.19L16.636,256.19L16.636,248.353L15.255,248.353L15.255,247.305Z" style="fill:rgb(158,161,168);fill-rule:nonzero;"/>
            <path id="path2051" d="M19.807,247.305L22.989,247.305L22.989,248.318L21.004,248.318L21.004,251.132L22.764,251.132L22.764,252.145L21.004,252.145L21.004,255.177L22.989,255.177L22.989,256.19L19.807,256.19L19.807,247.305Z" style="fill:rgb(158,161,168);fill-rule:nonzero;"/>
            <rect id="path2057" x="26.528" y="247.305" width="1.197" height="8.884" style="fill:rgb(158,161,168);fill-rule:nonzero;"/>
            <path id="path2061" d="M29.105,247.305L30.222,247.305L31.413,250.85C31.758,251.851 32.063,252.92 32.328,254.055C32.232,253.368 32.161,252.747 32.115,252.191C32.069,251.634 32.046,251.111 32.046,250.62L32.046,247.305L33.248,247.305L33.248,256.19L32.126,256.19L30.786,252.191C30.663,251.819 30.546,251.437 30.435,251.046C30.327,250.654 30.228,250.244 30.135,249.814C30.128,249.761 30.114,249.695 30.095,249.619C30.08,249.542 30.061,249.454 30.038,249.354C30.049,249.454 30.059,249.54 30.066,249.613C30.074,249.682 30.08,249.741 30.084,249.791L30.147,250.695L30.21,251.794C30.214,251.855 30.216,251.93 30.216,252.018C30.22,252.106 30.222,252.206 30.222,252.317L30.285,256.19L29.105,256.19L29.105,247.305Z" style="fill:rgb(158,161,168);fill-rule:nonzero;"/>
        </g>
        <g id="text1941" transform="matrix(0.891375,0,0,1.12186,0,0)">
            <path id="path2032" d="M94.943,254.129C94.943,255.711 94.767,256.835 94.415,257.501C94.063,258.166 93.473,258.499 92.645,258.499C91.774,258.499 91.161,258.141 90.805,257.425C90.453,256.725 90.277,255.481 90.277,253.694C90.277,252.099 90.451,250.972 90.8,250.31C91.152,249.645 91.747,249.312 92.587,249.312C93.338,249.312 93.895,249.569 94.258,250.084C94.498,250.428 94.672,250.917 94.781,251.552C94.889,252.14 94.943,252.999 94.943,254.129L94.943,254.129ZM93.678,254.256C93.678,252.705 93.608,251.676 93.469,251.169C93.33,250.658 93.045,250.403 92.616,250.403C92.187,250.403 91.9,250.637 91.757,251.105C91.618,251.577 91.548,252.525 91.548,253.949C91.548,255.26 91.622,256.17 91.769,256.676C91.92,257.156 92.202,257.396 92.616,257.396C93.022,257.396 93.301,257.172 93.452,256.723C93.603,256.278 93.678,255.456 93.678,254.256L93.678,254.256Z" style="fill:rgb(158,161,168);fill-rule:nonzero;"/>
            <path id="path2034" d="M96.145,249.428L97.328,249.428L97.328,255.76C97.328,256.406 97.386,256.835 97.503,257.048C97.622,257.261 97.858,257.367 98.211,257.367C98.563,257.367 98.795,257.274 98.907,257.089C99.023,256.899 99.081,256.514 99.081,255.934L99.081,249.428L100.265,249.428L100.265,255.934C100.265,256.909 100.116,257.568 99.818,257.913C99.462,258.303 98.919,258.499 98.187,258.499C97.383,258.499 96.816,258.247 96.487,257.744C96.259,257.4 96.144,256.738 96.144,255.76L96.145,249.428Z" style="fill:rgb(158,161,168);fill-rule:nonzero;"/>
            <path id="path2037" d="M100.932,249.428L104.861,249.428L104.861,250.484L103.509,250.484L103.509,258.389L102.325,258.389L102.325,250.484L100.932,250.484L100.932,249.428Z" style="fill:rgb(158,161,168);fill-rule:nonzero;"/>
        </g>
        <g id="text1945" transform="matrix(0.860882,0,0,1.1616,0,0)">
            <path id="path2008" d="M56.304,271.026L59.403,271.026L59.403,272.013L57.47,272.013L57.47,274.753L59.185,274.753L59.185,275.74L57.47,275.74L57.47,278.694L59.403,278.694L59.403,279.68L56.304,279.68L56.304,271.026Z" style="fill:rgb(158,161,168);fill-rule:nonzero;"/>
            <path id="path2010" d="M60.474,271.026L61.561,271.026L62.721,274.479C63.058,275.454 63.355,276.495 63.613,277.601C63.519,276.932 63.45,276.327 63.405,275.785C63.36,275.243 63.338,274.733 63.338,274.255L63.338,271.026L64.509,271.026L64.509,279.68L63.416,279.68L62.11,275.785C61.991,275.422 61.877,275.05 61.769,274.669C61.664,274.288 61.567,273.888 61.477,273.47C61.47,273.418 61.456,273.354 61.438,273.279C61.423,273.205 61.404,273.119 61.382,273.021C61.393,273.119 61.402,273.203 61.41,273.274C61.417,273.341 61.423,273.399 61.426,273.447L61.488,274.327L61.55,275.398C61.553,275.458 61.555,275.531 61.555,275.617C61.559,275.702 61.561,275.8 61.561,275.908L61.623,279.68L60.474,279.68L60.474,271.026Z" style="fill:rgb(158,161,168);fill-rule:nonzero;"/>
            <path id="path2012" d="M65.165,271.026L66.314,271.026L66.835,274.221L66.925,274.798L67.11,276.054C67.14,276.267 67.166,276.461 67.189,276.637C67.215,276.812 67.237,276.971 67.256,277.113L67.312,277.539C67.323,277.453 67.332,277.377 67.34,277.309C67.347,277.242 67.355,277.186 67.362,277.141L67.513,276.138L67.71,274.821C67.728,274.701 67.745,274.591 67.76,274.49C67.779,274.389 67.796,274.299 67.811,274.221L68.371,271.026L69.458,271.026L67.76,279.68L66.835,279.68L65.165,271.026Z" style="fill:rgb(158,161,168);fill-rule:nonzero;"/>
            <path id="path2014" d="M70.092,271.026L73.191,271.026L73.191,272.013L71.258,272.013L71.258,274.753L72.973,274.753L72.973,275.74L71.258,275.74L71.258,278.694L73.191,278.694L73.191,279.68L70.092,279.68L70.092,271.026Z" style="fill:rgb(158,161,168);fill-rule:nonzero;"/>
            <path id="path2016" d="M74.262,271.026L75.428,271.026L75.428,278.694L77.334,278.694L77.334,279.68L74.262,279.68L74.262,271.026Z" style="fill:rgb(158,161,168);fill-rule:nonzero;"/>
            <path id="path2018" d="M82.406,275.566C82.406,277.094 82.236,278.18 81.896,278.823C81.556,279.465 80.986,279.787 80.186,279.787C79.346,279.787 78.753,279.441 78.41,278.75C78.07,278.073 77.9,276.872 77.9,275.146C77.9,273.606 78.068,272.517 78.404,271.878C78.744,271.235 79.32,270.914 80.13,270.914C80.855,270.914 81.393,271.162 81.745,271.659C81.976,271.992 82.144,272.465 82.249,273.077C82.354,273.645 82.406,274.475 82.406,275.566L82.406,275.566ZM81.184,275.689C81.184,274.191 81.117,273.197 80.982,272.708C80.848,272.214 80.573,271.968 80.158,271.968C79.744,271.968 79.467,272.194 79.329,272.646C79.194,273.102 79.127,274.017 79.127,275.392C79.127,276.659 79.198,277.537 79.34,278.027C79.486,278.49 79.759,278.722 80.158,278.722C80.551,278.722 80.82,278.505 80.966,278.072C81.111,277.642 81.184,276.848 81.184,275.689L81.184,275.689Z" style="fill:rgb(158,161,168);fill-rule:nonzero;"/>
            <path id="path2020" d="M83.566,271.026L85.102,271.026C85.842,271.026 86.38,271.213 86.716,271.587C87.053,271.964 87.221,272.562 87.221,273.38C87.221,274.531 86.883,275.275 86.206,275.611C85.866,275.764 85.375,275.841 84.732,275.841L84.732,279.68L83.566,279.68L83.566,271.026ZM84.732,274.843C85.214,274.843 85.547,274.746 85.73,274.552C85.917,274.354 86.01,274.002 86.01,273.498C86.01,272.982 85.92,272.605 85.741,272.366C85.562,272.127 85.28,272.007 84.895,272.007L84.732,272.007L84.732,274.843Z" style="fill:rgb(158,161,168);fill-rule:nonzero;"/>
            <path id="path2022" d="M88.118,271.026L91.217,271.026L91.217,272.013L89.283,272.013L89.283,274.753L90.998,274.753L90.998,275.74L89.283,275.74L89.283,278.694L91.217,278.694L91.217,279.68L88.118,279.68L88.118,271.026Z" style="fill:rgb(158,161,168);fill-rule:nonzero;"/>
            <path id="path2024" d="M98.997,275.566C98.997,277.094 98.827,278.18 98.487,278.823C98.147,279.465 97.577,279.787 96.777,279.787C95.936,279.787 95.344,279.441 95,278.75C94.66,278.073 94.49,276.872 94.49,275.146C94.49,273.606 94.659,272.517 94.995,271.878C95.335,271.235 95.91,270.914 96.721,270.914C97.446,270.914 97.984,271.162 98.335,271.659C98.567,271.992 98.735,272.465 98.84,273.077C98.944,273.645 98.997,274.475 98.997,275.566L98.997,275.566ZM97.775,275.689C97.775,274.191 97.708,273.197 97.573,272.708C97.439,272.214 97.164,271.968 96.749,271.968C96.334,271.968 96.058,272.194 95.92,272.646C95.785,273.102 95.718,274.017 95.718,275.392C95.718,276.659 95.789,277.537 95.931,278.027C96.077,278.49 96.349,278.722 96.749,278.722C97.142,278.722 97.411,278.505 97.556,278.072C97.702,277.642 97.775,276.848 97.775,275.689L97.775,275.689Z" style="fill:rgb(158,161,168);fill-rule:nonzero;"/>
            <path id="path2026" d="M100.157,271.026L101.3,271.026L101.3,277.141C101.3,277.765 101.356,278.18 101.469,278.385C101.584,278.591 101.812,278.694 102.152,278.694C102.492,278.694 102.717,278.604 102.825,278.425C102.937,278.242 102.993,277.87 102.993,277.309L102.993,271.026L104.137,271.026L104.137,277.309C104.137,278.251 103.993,278.888 103.705,279.221C103.361,279.598 102.836,279.787 102.13,279.787C101.353,279.787 100.805,279.544 100.488,279.058C100.267,278.725 100.157,278.086 100.157,277.141L100.157,271.026Z" style="fill:rgb(158,161,168);fill-rule:nonzero;"/>
            <path id="path2028" d="M104.781,271.026L108.576,271.026L108.576,272.046L107.27,272.046L107.27,279.68L106.126,279.68L106.126,272.046L104.781,272.046L104.781,271.026Z" style="fill:rgb(158,161,168);fill-rule:nonzero;"/>
        </g>
        <g id="text1949" transform="matrix(0.87356,0,0,1.14474,0,0)">
            <rect id="path1979" x="44.039" y="301.224" width="1.183" height="8.782" style="fill:rgb(158,161,168);fill-rule:nonzero;"/>
            <path id="path1981" d="M46.587,301.224L47.691,301.224L48.868,304.728C49.209,305.717 49.511,306.773 49.772,307.896C49.677,307.217 49.607,306.603 49.562,306.053C49.516,305.503 49.493,304.985 49.493,304.5L49.493,301.224L50.682,301.224L50.682,310.006L49.573,310.006L48.248,306.053C48.127,305.685 48.011,305.308 47.901,304.921C47.795,304.534 47.696,304.129 47.605,303.704C47.598,303.651 47.584,303.586 47.565,303.511C47.55,303.435 47.531,303.347 47.509,303.249C47.52,303.348 47.529,303.433 47.537,303.505C47.544,303.573 47.55,303.632 47.554,303.681L47.616,304.574L47.679,305.66C47.683,305.721 47.685,305.795 47.685,305.882C47.688,305.969 47.69,306.068 47.69,306.178L47.753,310.006L46.587,310.006L46.587,301.224Z" style="fill:rgb(158,161,168);fill-rule:nonzero;"/>
            <path id="path1984" d="M51.348,301.224L52.514,301.224L53.043,304.466L53.134,305.052L53.321,306.326C53.352,306.542 53.378,306.739 53.401,306.917C53.427,307.096 53.45,307.257 53.469,307.401L53.526,307.833C53.537,307.746 53.547,307.668 53.554,307.6C53.562,307.532 53.569,307.475 53.577,307.429L53.731,306.411L53.93,305.075C53.949,304.953 53.966,304.841 53.981,304.739C54,304.637 54.017,304.546 54.032,304.466L54.601,301.224L55.704,301.224L53.981,310.006L53.042,310.006L51.348,301.224Z" style="fill:rgb(158,161,168);fill-rule:nonzero;"/>
            <path id="path1986" d="M56.347,301.224L59.492,301.224L59.492,302.225L57.53,302.225L57.53,305.006L59.27,305.006L59.27,306.007L57.53,306.007L57.53,309.005L59.492,309.005L59.492,310.006L56.347,310.006L56.347,301.224Z" style="fill:rgb(158,161,168);fill-rule:nonzero;"/>
            <path id="path1988" d="M60.578,301.224L62.137,301.224C62.781,301.224 63.261,301.378 63.576,301.685C63.974,302.083 64.173,302.692 64.173,303.511C64.173,304.14 64.067,304.646 63.854,305.029C63.646,305.408 63.346,305.643 62.956,305.734L64.571,310.006L63.371,310.006L61.761,305.706L61.761,310.006L60.578,310.006L60.578,301.224ZM61.761,305.114C62.22,305.114 62.544,305.008 62.734,304.796C62.924,304.584 63.018,304.225 63.018,303.721C63.018,303.448 62.998,303.215 62.956,303.021C62.918,302.828 62.855,302.671 62.768,302.549C62.685,302.428 62.575,302.339 62.438,302.282C62.306,302.225 62.146,302.197 61.961,302.197L61.761,302.197L61.761,305.114Z" style="fill:rgb(158,161,168);fill-rule:nonzero;"/>
            <path id="path1990" d="M68.422,301.406L68.422,302.561C68.061,302.303 67.737,302.174 67.449,302.174C67.138,302.174 66.884,302.284 66.687,302.504C66.49,302.712 66.391,302.991 66.391,303.34C66.391,303.647 66.461,303.911 66.602,304.13C66.674,304.248 66.791,304.4 66.954,304.585C67.121,304.771 67.335,304.995 67.597,305.257C68.078,305.746 68.406,306.168 68.581,306.525C68.755,306.87 68.842,307.293 68.842,307.793C68.842,308.472 68.651,309.031 68.268,309.471C67.885,309.899 67.394,310.114 66.795,310.114C66.291,310.114 65.86,309.975 65.504,309.699L65.504,308.527C65.925,308.834 66.308,308.988 66.653,308.988C66.975,308.988 67.227,308.881 67.409,308.669C67.591,308.453 67.682,308.161 67.682,307.793C67.682,307.475 67.612,307.188 67.472,306.934C67.4,306.813 67.299,306.675 67.17,306.519C67.041,306.36 66.88,306.184 66.687,305.99C66.387,305.695 66.139,305.433 65.942,305.205C65.745,304.978 65.599,304.779 65.504,304.608C65.322,304.275 65.231,303.854 65.231,303.346C65.231,302.659 65.409,302.115 65.765,301.713C66.126,301.308 66.609,301.105 67.216,301.105C67.637,301.105 68.039,301.205 68.422,301.406L68.422,301.406Z" style="fill:rgb(158,161,168);fill-rule:nonzero;"/>
            <path id="path1992" d="M69.838,301.224L72.983,301.224L72.983,302.225L71.021,302.225L71.021,305.006L72.761,305.006L72.761,306.007L71.021,306.007L71.021,309.005L72.983,309.005L72.983,310.006L69.838,310.006L69.838,301.224Z" style="fill:rgb(158,161,168);fill-rule:nonzero;"/>
            <path id="path1994" d="M76.481,301.224L79.626,301.224L79.626,302.225L77.664,302.225L77.664,305.006L79.404,305.006L79.404,306.007L77.664,306.007L77.664,309.005L79.626,309.005L79.626,310.006L76.481,310.006L76.481,301.224Z" style="fill:rgb(158,161,168);fill-rule:nonzero;"/>
            <path id="path1996" d="M80.712,301.224L81.816,301.224L82.993,304.728C83.334,305.717 83.636,306.773 83.897,307.896C83.802,307.217 83.732,306.603 83.687,306.053C83.641,305.503 83.619,304.985 83.619,304.5L83.619,301.224L84.807,301.224L84.807,310.006L83.698,310.006L82.373,306.053C82.252,305.685 82.136,305.308 82.026,304.921C81.92,304.534 81.821,304.129 81.73,303.704C81.723,303.651 81.71,303.586 81.691,303.511C81.675,303.435 81.656,303.347 81.634,303.249C81.645,303.348 81.654,303.433 81.662,303.505C81.67,303.573 81.675,303.632 81.679,303.681L81.742,304.574L81.804,305.66C81.808,305.721 81.81,305.795 81.81,305.882C81.814,305.969 81.815,306.068 81.815,306.178L81.878,310.006L80.712,310.006L80.712,301.224Z" style="fill:rgb(158,161,168);fill-rule:nonzero;"/>
            <path id="path1998" d="M85.473,301.224L86.639,301.224L87.168,304.466L87.259,305.052L87.446,306.326C87.477,306.542 87.503,306.739 87.526,306.917C87.552,307.096 87.575,307.257 87.594,307.401L87.651,307.833C87.662,307.746 87.672,307.668 87.679,307.6C87.687,307.532 87.695,307.475 87.702,307.429L87.856,306.411L88.055,305.075C88.074,304.953 88.091,304.841 88.106,304.739C88.125,304.637 88.142,304.546 88.157,304.466L88.726,301.224L89.829,301.224L88.106,310.006L87.167,310.006L85.473,301.224Z" style="fill:rgb(158,161,168);fill-rule:nonzero;"/>
            <path id="path2000" d="M97.28,305.831C97.28,307.382 97.107,308.483 96.762,309.135C96.417,309.788 95.839,310.114 95.028,310.114C94.175,310.114 93.574,309.763 93.225,309.062C92.88,308.375 92.707,307.156 92.707,305.404C92.707,303.842 92.878,302.737 93.219,302.089C93.564,301.436 94.148,301.11 94.971,301.11C95.706,301.11 96.252,301.363 96.609,301.867C96.844,302.204 97.015,302.684 97.121,303.306C97.227,303.882 97.28,304.724 97.28,305.831L97.28,305.831ZM96.04,305.956C96.04,304.436 95.972,303.427 95.835,302.93C95.699,302.43 95.42,302.18 94.999,302.18C94.578,302.18 94.298,302.409 94.158,302.868C94.021,303.33 93.953,304.259 93.953,305.655C93.953,306.94 94.025,307.831 94.169,308.328C94.317,308.798 94.594,309.033 94.999,309.033C95.397,309.033 95.67,308.813 95.818,308.373C95.966,307.937 96.04,307.132 96.04,305.956L96.04,305.956Z" style="fill:rgb(158,161,168);fill-rule:nonzero;"/>
            <path id="path2002" d="M98.457,301.224L99.618,301.224L99.618,307.429C99.618,308.062 99.674,308.483 99.788,308.692C99.906,308.9 100.137,309.005 100.482,309.005C100.827,309.005 101.055,308.914 101.165,308.732C101.278,308.546 101.335,308.169 101.335,307.6L101.335,301.224L102.495,301.224L102.495,307.6C102.495,308.555 102.349,309.202 102.057,309.539C101.709,309.922 101.176,310.114 100.459,310.114C99.671,310.114 99.115,309.867 98.793,309.374C98.569,309.037 98.457,308.388 98.457,307.429L98.457,301.224Z" style="fill:rgb(158,161,168);fill-rule:nonzero;"/>
            <path id="path2004" d="M103.15,301.224L107,301.224L107,302.259L105.675,302.259L105.675,310.006L104.515,310.006L104.515,302.259L103.15,302.259L103.15,301.224Z" style="fill:rgb(158,161,168);fill-rule:nonzero;"/>
        </g>
    </g>
</svg>
