<?xml version="1.0" encoding="UTF-8" standalone="no"?>
<!DOCTYPE svg PUBLIC "-//W3C//DTD SVG 1.1//EN" "http://www.w3.org/Graphics/SVG/1.1/DTD/svg11.dtd">
<svg width="100%" height="100%" viewBox="0 0 150 380" version="1.1" xmlns="http://www.w3.org/2000/svg" xmlns:xlink="http://www.w3.org/1999/xlink" xml:space="preserve" xmlns:serif="http://www.serif.com/" style="fill-rule:evenodd;clip-rule:evenodd;stroke-linejoin:round;stroke-miterlimit:2;">
    <g id="Layer-2" serif:id="Layer 2">
        <g id="text989">
        </g>
        <rect id="rect4689" x="0" y="0" width="150" height="380" style="fill:rgb(44,45,48);"/>
        <g id="text80" transform="matrix(1.00498,0,0,0.995047,30,4.99997)">
            <path id="path4726" d="M29.851,371.706L29.851,363.943L31.853,363.943L32.903,366.668C32.96,366.829 33.024,367.013 33.094,367.221C33.168,367.429 33.249,367.668 33.336,367.94L33.552,368.624C33.475,367.95 33.416,367.373 33.376,366.894C33.336,366.415 33.316,366.013 33.316,365.687L33.316,363.943L35.317,363.943L35.317,371.706L33.316,371.706L32.26,368.85C32.149,368.545 32.049,368.26 31.958,367.995C31.871,367.727 31.794,367.472 31.727,367.231C31.77,367.777 31.802,368.253 31.822,368.659C31.843,369.065 31.853,369.42 31.853,369.725L31.853,371.706L29.851,371.706Z" style="fill:rgb(158,161,168);fill-rule:nonzero;"/>
            <path id="path4728" d="M39.887,371.706L37.791,371.706L37.791,368.418L35.865,363.943L38.052,363.943L38.429,365.094C38.503,365.319 38.568,365.535 38.625,365.743C38.686,365.951 38.739,366.15 38.786,366.341C38.863,366.056 38.93,365.811 38.987,365.607C39.044,365.399 39.095,365.232 39.138,365.104L39.52,363.943L41.692,363.943L39.887,368.418L39.887,371.706Z" style="fill:rgb(158,161,168);fill-rule:nonzero;"/>
            <path id="path4730" d="M41.894,371.515L41.894,369.076C42.306,369.639 42.752,369.921 43.231,369.921C43.412,369.921 43.56,369.874 43.673,369.78C43.787,369.683 43.844,369.562 43.844,369.418C43.844,369.21 43.72,369.008 43.472,368.81L43.13,368.543C42.902,368.372 42.708,368.203 42.547,368.035C42.386,367.865 42.256,367.69 42.155,367.513C42.054,367.332 41.981,367.146 41.934,366.954C41.887,366.763 41.863,366.562 41.863,366.351C41.863,365.989 41.947,365.61 42.115,365.215C42.199,365.03 42.296,364.863 42.406,364.712C42.517,364.558 42.644,364.422 42.789,364.305C43.184,363.969 43.662,363.802 44.222,363.802C44.721,363.802 45.224,363.934 45.73,364.199L45.73,366.572C45.559,366.308 45.365,366.1 45.147,365.949C44.929,365.795 44.714,365.718 44.503,365.718C44.342,365.718 44.21,365.765 44.106,365.858C43.999,365.949 43.945,366.058 43.945,366.185C43.945,366.393 44.087,366.599 44.372,366.804L44.704,367.05C45.147,367.368 45.463,367.695 45.655,368.03C45.849,368.366 45.946,368.758 45.946,369.207C45.946,369.971 45.713,370.601 45.247,371.098C44.781,371.594 44.191,371.842 43.477,371.842C42.985,371.842 42.457,371.733 41.894,371.515L41.894,371.515Z" style="fill:rgb(158,161,168);fill-rule:nonzero;"/>
            <path id="path4732" d="M49.576,371.706L47.48,371.706L47.48,365.803L46.323,365.803L46.323,363.943L50.778,363.943L50.778,365.803L49.576,365.803L49.576,371.706Z" style="fill:rgb(158,161,168);fill-rule:nonzero;"/>
            <path id="path4734" d="M56.525,371.706L54.428,371.706L54.428,368.584L53.428,368.584L53.428,371.706L51.331,371.706L51.331,363.943L53.428,363.943L53.428,366.688L54.428,366.688L54.428,363.943L56.525,363.943L56.525,371.706Z" style="fill:rgb(158,161,168);fill-rule:nonzero;"/>
            <rect id="path4736" x="57.606" y="363.943" width="2.097" height="7.763" style="fill:rgb(158,161,168);fill-rule:nonzero;"/>
        </g>
        <g id="text4987">
        </g>
        <g id="text1042">
        </g>
        <g id="text1111" transform="matrix(0.973489,0,0,1.02723,-16,-6.08333)">
            <path id="path1113" d="M43.681,72.738L43.681,73.645C43.444,73.47 43.196,73.382 42.936,73.382C42.848,73.382 42.767,73.397 42.692,73.427C42.618,73.458 42.552,73.5 42.495,73.554C42.44,73.605 42.397,73.667 42.363,73.742C42.332,73.813 42.317,73.889 42.317,73.97C42.317,74.22 42.544,74.518 42.997,74.862C43.179,75.004 43.331,75.136 43.453,75.258C43.575,75.379 43.667,75.494 43.732,75.603C43.864,75.815 43.929,76.084 43.929,76.409C43.929,76.879 43.793,77.255 43.519,77.539C43.248,77.82 42.885,77.96 42.429,77.96C42.148,77.96 41.864,77.877 41.577,77.712L41.577,76.774C41.857,76.983 42.123,77.088 42.373,77.088C42.816,77.088 43.037,76.87 43.037,76.434C43.037,76.272 42.997,76.132 42.915,76.013C42.878,75.956 42.819,75.89 42.738,75.815C42.657,75.738 42.557,75.652 42.439,75.557C42.03,75.239 41.753,74.972 41.607,74.756C41.465,74.533 41.394,74.264 41.394,73.95C41.394,73.527 41.524,73.181 41.785,72.91C42.048,72.643 42.391,72.51 42.814,72.51C43.111,72.51 43.4,72.586 43.681,72.738L43.681,72.738Z" style="fill:rgb(158,161,168);fill-rule:nonzero;"/>
            <path id="path1115" d="M44.715,69.265L45.684,69.265L45.684,73.235C45.961,72.775 46.319,72.545 46.759,72.545C47.185,72.545 47.489,72.712 47.671,73.047C47.773,73.236 47.823,73.603 47.823,74.147L47.823,77.879L46.855,77.879L46.85,74.37C46.85,74.016 46.808,73.764 46.723,73.615C46.639,73.466 46.493,73.392 46.287,73.392C46.176,73.392 46.081,73.412 46.003,73.453C45.929,73.49 45.868,73.552 45.821,73.64C45.774,73.725 45.738,73.836 45.714,73.975C45.694,74.114 45.684,74.284 45.684,74.487L45.684,77.879L44.716,77.879L44.715,69.265Z" style="fill:rgb(158,161,168);fill-rule:nonzero;"/>
            <path id="path1117" d="M52.011,75.298C52.011,77.073 51.462,77.96 50.364,77.96C49.265,77.96 48.716,77.059 48.716,75.258C48.716,73.449 49.263,72.545 50.359,72.545C50.642,72.545 50.888,72.599 51.094,72.707C51.303,72.816 51.476,72.983 51.611,73.209C51.746,73.436 51.846,73.721 51.91,74.066C51.978,74.411 52.011,74.822 52.011,75.298L52.011,75.298ZM51.007,75.273C51.007,74.583 50.962,74.103 50.871,73.833C50.779,73.559 50.617,73.422 50.384,73.422C50.154,73.422 49.99,73.558 49.892,73.828C49.801,74.098 49.755,74.57 49.755,75.243C49.755,75.915 49.801,76.385 49.892,76.652C49.99,76.923 50.154,77.058 50.384,77.058C50.614,77.058 50.774,76.924 50.866,76.657C50.96,76.407 51.007,75.946 51.007,75.273L51.007,75.273Z" style="fill:rgb(158,161,168);fill-rule:nonzero;"/>
            <path id="path1119" d="M52.376,72.631L53.401,72.631L53.695,74.32C53.752,74.658 53.803,74.984 53.847,75.298C53.894,75.613 53.931,75.919 53.958,76.216L53.974,76.399L53.994,76.206C54.021,75.962 54.048,75.739 54.075,75.537C54.105,75.33 54.138,75.141 54.171,74.969L54.252,74.568L54.612,72.631L55.317,72.631L55.657,74.568L55.768,75.177C55.792,75.292 55.814,75.435 55.834,75.608C55.855,75.777 55.875,75.978 55.895,76.211L55.916,76.399C55.977,75.77 56.063,75.16 56.174,74.568L56.534,72.631L57.487,72.631L56.255,77.879L55.586,77.879L55.186,75.876C55.138,75.633 55.098,75.384 55.064,75.131C55.03,74.874 55.001,74.602 54.978,74.315C54.974,74.281 54.971,74.24 54.967,74.193C54.964,74.146 54.959,74.09 54.952,74.026C54.932,74.333 54.903,74.632 54.866,74.923C54.829,75.21 54.783,75.498 54.729,75.785L54.324,77.879L53.654,77.879L52.376,72.631Z" style="fill:rgb(158,161,168);fill-rule:nonzero;"/>
            <path id="path1121" d="M60.271,72.631L61.244,72.631L61.244,77.879L60.271,77.879L60.271,72.631ZM60.727,70.4C60.903,70.4 61.055,70.465 61.183,70.593C61.312,70.722 61.376,70.875 61.376,71.055C61.376,71.237 61.312,71.393 61.183,71.521C61.055,71.649 60.9,71.714 60.717,71.714C60.535,71.714 60.379,71.649 60.251,71.521C60.125,71.396 60.063,71.239 60.063,71.049C60.063,70.874 60.127,70.722 60.256,70.593C60.394,70.465 60.551,70.4 60.727,70.4Z" style="fill:rgb(158,161,168);fill-rule:nonzero;"/>
            <path id="path1123" d="M62.34,72.631L63.308,72.631L63.308,73.235C63.585,72.775 63.943,72.545 64.383,72.545C64.809,72.545 65.113,72.712 65.295,73.047C65.397,73.236 65.448,73.603 65.448,74.147L65.448,77.879L64.479,77.879L64.474,74.37C64.474,74.016 64.432,73.764 64.347,73.615C64.263,73.466 64.118,73.392 63.911,73.392C63.8,73.392 63.705,73.412 63.628,73.453C63.553,73.49 63.492,73.552 63.445,73.64C63.398,73.725 63.362,73.836 63.339,73.975C63.318,74.114 63.308,74.284 63.308,74.487L63.308,77.879L62.34,77.879L62.34,72.631Z" style="fill:rgb(158,161,168);fill-rule:nonzero;"/>
            <path id="path1125" d="M66.168,72.631L66.654,72.631L66.654,70.801C66.654,70.203 66.742,69.78 66.918,69.533C67.094,69.287 67.4,69.163 67.836,69.163C68.025,69.163 68.245,69.209 68.495,69.3L68.495,70.324C68.339,70.24 68.202,70.198 68.084,70.198C67.918,70.198 67.8,70.247 67.729,70.345C67.662,70.443 67.628,70.608 67.628,70.842L67.623,71.237L67.623,72.631L68.444,72.631L68.444,73.402L67.623,73.402L67.623,77.879L66.654,77.879L66.654,73.402L66.168,73.402L66.168,72.631Z" style="fill:rgb(158,161,168);fill-rule:nonzero;"/>
            <path id="path1127" d="M72.211,75.298C72.211,77.073 71.662,77.96 70.563,77.96C69.465,77.96 68.916,77.059 68.916,75.258C68.916,73.449 69.463,72.545 70.558,72.545C70.842,72.545 71.087,72.599 71.294,72.707C71.503,72.816 71.676,72.983 71.811,73.209C71.946,73.436 72.046,73.721 72.11,74.066C72.178,74.411 72.211,74.822 72.211,75.298L72.211,75.298ZM71.207,75.273C71.207,74.583 71.162,74.103 71.07,73.833C70.979,73.559 70.817,73.422 70.584,73.422C70.354,73.422 70.19,73.558 70.092,73.828C70.001,74.098 69.955,74.57 69.955,75.243C69.955,75.915 70.001,76.385 70.092,76.652C70.19,76.923 70.354,77.058 70.584,77.058C70.814,77.058 70.974,76.924 71.065,76.657C71.16,76.407 71.207,75.946 71.207,75.273L71.207,75.273Z" style="fill:rgb(158,161,168);fill-rule:nonzero;"/>
        </g>
        <g id="text1132" transform="matrix(1,0,0,0.817197,33.6797,-188.308)">
            <path id="path1134" d="M50.737,311.151L51.732,311.151L51.732,315.219C51.801,315.087 51.872,314.976 51.945,314.885C52.018,314.795 52.089,314.726 52.159,314.677C52.298,314.573 52.478,314.521 52.701,314.521C52.93,314.521 53.128,314.575 53.294,314.682C53.461,314.786 53.596,314.95 53.701,315.172C53.808,315.394 53.888,315.677 53.94,316.021C53.992,316.365 54.018,316.773 54.018,317.245C54.018,318.224 53.914,318.943 53.706,319.401C53.497,319.856 53.171,320.083 52.727,320.083C52.49,320.083 52.301,320.028 52.159,319.917C52.017,319.805 51.874,319.602 51.732,319.307L51.732,320L50.737,320L50.737,311.151ZM52.987,317.333C52.987,316.601 52.938,316.104 52.841,315.844C52.747,315.562 52.579,315.422 52.336,315.422C52.107,315.422 51.945,315.564 51.852,315.849C51.758,316.13 51.711,316.616 51.711,317.307C51.711,317.995 51.758,318.481 51.852,318.766C51.945,319.047 52.107,319.187 52.336,319.187C52.572,319.187 52.74,319.049 52.841,318.771C52.938,318.514 52.987,318.035 52.987,317.333Z" style="fill:rgb(158,161,168);fill-rule:nonzero;"/>
            <path id="path1136" d="M54.404,314.609L55.529,314.609L56.32,318.37L57.247,314.609L58.258,314.609L56.055,322.208L55.008,322.208L55.836,319.568L54.404,314.609Z" style="fill:rgb(158,161,168);fill-rule:nonzero;"/>
            <path id="path1138" d="M58.862,322.208L58.862,314.609L59.857,314.609L59.857,315.307C59.996,315.012 60.138,314.807 60.284,314.693C60.43,314.578 60.621,314.521 60.857,314.521C61.301,314.521 61.626,314.752 61.831,315.213C62.039,315.672 62.143,316.391 62.143,317.37C62.143,318.328 62.037,319.017 61.826,319.437C61.617,319.868 61.282,320.083 60.82,320.083C60.598,320.083 60.416,320.033 60.273,319.932C60.204,319.884 60.135,319.814 60.065,319.724C59.996,319.634 59.926,319.524 59.857,319.396L59.857,322.208L58.862,322.208ZM61.112,317.333C61.112,316.601 61.063,316.104 60.966,315.844C60.872,315.562 60.704,315.422 60.461,315.422C60.232,315.422 60.069,315.568 59.971,315.859C59.874,316.13 59.825,316.613 59.825,317.307C59.825,318.002 59.874,318.484 59.971,318.755C60.072,319.043 60.235,319.187 60.461,319.187C60.697,319.187 60.865,319.049 60.966,318.771C61.063,318.514 61.112,318.035 61.112,317.333Z" style="fill:rgb(158,161,168);fill-rule:nonzero;"/>
            <path id="path1140" d="M66.148,314.609L66.148,320L65.154,320L65.154,319.307C65.011,319.602 64.869,319.805 64.727,319.917C64.584,320.028 64.397,320.083 64.164,320.083C63.716,320.083 63.388,319.854 63.18,319.396C62.971,318.937 62.867,318.219 62.867,317.24C62.867,316.305 62.971,315.62 63.18,315.182C63.388,314.741 63.716,314.521 64.164,314.521C64.574,314.521 64.904,314.753 65.154,315.219L65.154,314.609L66.148,314.609ZM63.898,317.281C63.898,317.99 63.945,318.484 64.039,318.766C64.136,319.047 64.306,319.187 64.549,319.187C64.772,319.187 64.933,319.042 65.034,318.75C65.135,318.437 65.185,317.957 65.185,317.307C65.185,316.654 65.135,316.172 65.034,315.859C64.933,315.568 64.772,315.422 64.549,315.422C64.313,315.422 64.145,315.561 64.044,315.838C63.947,316.095 63.898,316.576 63.898,317.281L63.898,317.281Z" style="fill:rgb(158,161,168);fill-rule:nonzero;"/>
            <path id="path1142" d="M69.362,314.719L69.362,315.651C69.119,315.47 68.864,315.38 68.596,315.38C68.506,315.38 68.423,315.396 68.346,315.427C68.27,315.458 68.202,315.502 68.143,315.557C68.088,315.609 68.043,315.674 68.008,315.75C67.977,315.823 67.961,315.901 67.961,315.984C67.961,316.241 68.194,316.547 68.659,316.901C68.846,317.047 69.003,317.182 69.128,317.307C69.253,317.432 69.348,317.55 69.414,317.661C69.549,317.88 69.617,318.156 69.617,318.49C69.617,318.972 69.477,319.359 69.195,319.651C68.918,319.939 68.544,320.083 68.076,320.083C67.787,320.083 67.496,319.998 67.201,319.828L67.201,318.865C67.489,319.08 67.761,319.187 68.018,319.187C68.473,319.187 68.701,318.963 68.701,318.516C68.701,318.349 68.659,318.205 68.576,318.083C68.537,318.024 68.477,317.957 68.393,317.88C68.31,317.8 68.207,317.712 68.086,317.615C67.666,317.288 67.381,317.014 67.232,316.792C67.086,316.562 67.013,316.286 67.013,315.963C67.013,315.529 67.147,315.174 67.414,314.896C67.685,314.621 68.037,314.484 68.471,314.484C68.777,314.484 69.074,314.562 69.362,314.719L69.362,314.719Z" style="fill:rgb(158,161,168);fill-rule:nonzero;"/>
            <path id="path1144" d="M72.508,314.719L72.508,315.651C72.265,315.47 72.01,315.38 71.742,315.38C71.652,315.38 71.569,315.396 71.492,315.427C71.416,315.458 71.348,315.502 71.289,315.557C71.234,315.609 71.188,315.674 71.154,315.75C71.122,315.823 71.107,315.901 71.107,315.984C71.107,316.241 71.339,316.547 71.805,316.901C71.992,317.047 72.148,317.182 72.273,317.307C72.398,317.432 72.494,317.55 72.56,317.661C72.695,317.88 72.763,318.156 72.763,318.49C72.763,318.972 72.622,319.359 72.341,319.651C72.063,319.939 71.69,320.083 71.221,320.083C70.933,320.083 70.641,319.998 70.346,319.828L70.346,318.865C70.635,319.08 70.907,319.187 71.164,319.187C71.619,319.187 71.846,318.963 71.846,318.516C71.846,318.349 71.805,318.205 71.721,318.083C71.683,318.024 71.622,317.957 71.539,317.88C71.456,317.8 71.353,317.712 71.232,317.615C70.812,317.288 70.527,317.014 70.378,316.792C70.232,316.562 70.159,316.286 70.159,315.963C70.159,315.529 70.293,315.174 70.56,314.896C70.831,314.621 71.183,314.484 71.617,314.484C71.923,314.484 72.22,314.562 72.508,314.719L72.508,314.719Z" style="fill:rgb(158,161,168);fill-rule:nonzero;"/>
        </g>
        <g id="text1149" transform="matrix(1.13585,0,0,1,-10.4834,21.6411)">
            <path id="path1241" d="M17.142,178.218L17.986,178.218L19.71,186.26L18.637,186.26L18.335,184.692L16.741,184.692L16.434,186.26L15.392,186.26L17.142,178.218ZM18.179,183.854L17.939,182.572C17.78,181.701 17.649,180.77 17.549,179.781C17.5,180.263 17.438,180.753 17.361,181.249C17.285,181.743 17.194,182.267 17.09,182.822L16.892,183.854L18.179,183.854Z" style="fill:rgb(158,161,168);fill-rule:nonzero;"/>
            <path id="path1243" d="M19.543,178.218L23.069,178.218L23.069,179.166L21.856,179.166L21.856,186.26L20.793,186.26L20.793,179.166L19.543,179.166L19.543,178.218Z" style="fill:rgb(158,161,168);fill-rule:nonzero;"/>
            <path id="path1245" d="M23.023,178.218L26.549,178.218L26.549,179.166L25.335,179.166L25.335,186.26L24.273,186.26L24.273,179.166L23.023,179.166L23.023,178.218Z" style="fill:rgb(158,161,168);fill-rule:nonzero;"/>
            <path id="path1247" d="M28.142,178.218L28.986,178.218L30.71,186.26L29.637,186.26L29.335,184.692L27.741,184.692L27.434,186.26L26.392,186.26L28.142,178.218ZM29.179,183.854L28.939,182.572C28.78,181.701 28.649,180.77 28.549,179.781C28.5,180.263 28.438,180.753 28.361,181.249C28.285,181.743 28.194,182.267 28.09,182.822L27.892,183.854L29.179,183.854Z" style="fill:rgb(158,161,168);fill-rule:nonzero;"/>
            <path id="path1249" d="M34.444,178.348L34.444,179.322C34.167,179.187 33.934,179.119 33.747,179.119C33.49,179.119 33.269,179.184 33.085,179.312C32.901,179.437 32.748,179.631 32.627,179.895C32.509,180.159 32.42,180.494 32.361,180.901C32.306,181.303 32.278,181.781 32.278,182.333C32.278,184.319 32.786,185.312 33.804,185.312C33.981,185.312 34.194,185.256 34.444,185.145L34.444,186.14C34.184,186.286 33.892,186.359 33.569,186.359C31.941,186.359 31.127,185.029 31.127,182.369C31.127,180.932 31.325,179.862 31.72,179.161C32.12,178.46 32.729,178.109 33.549,178.109C33.851,178.109 34.149,178.189 34.444,178.348L34.444,178.348Z" style="fill:rgb(158,161,168);fill-rule:nonzero;"/>
            <path id="path1251" d="M35.351,178.218L36.434,178.218L36.434,182.114L37.944,178.218L39.038,178.218L37.455,182.114L39.163,186.26L37.944,186.26L36.434,182.114L36.434,186.26L35.351,186.26L35.351,178.218Z" style="fill:rgb(158,161,168);fill-rule:nonzero;"/>
        </g>
        <g id="text1153" transform="matrix(0.999807,0,0,1,-36.6042,20.2269)">
            <path id="path1226" d="M80.62,179.632L82.047,179.632C82.637,179.632 83.076,179.773 83.365,180.054C83.729,180.419 83.911,180.976 83.911,181.726C83.911,182.303 83.814,182.766 83.62,183.117C83.429,183.464 83.155,183.679 82.797,183.763L84.276,187.674L83.177,187.674L81.703,183.737L81.703,187.674L80.62,187.674L80.62,179.632ZM81.703,183.195C82.123,183.195 82.42,183.098 82.594,182.903C82.767,182.709 82.854,182.381 82.854,181.919C82.854,181.669 82.835,181.455 82.797,181.278C82.762,181.101 82.705,180.957 82.625,180.846C82.549,180.735 82.448,180.653 82.323,180.601C82.201,180.549 82.056,180.523 81.885,180.523L81.703,180.523L81.703,183.195Z" style="fill:rgb(158,161,168);fill-rule:nonzero;"/>
            <path id="path1228" d="M85.12,179.632L88,179.632L88,180.549L86.203,180.549L86.203,183.096L87.797,183.096L87.797,184.013L86.203,184.013L86.203,186.757L88,186.757L88,187.674L85.12,187.674L85.12,179.632Z" style="fill:rgb(158,161,168);fill-rule:nonzero;"/>
            <path id="path1230" d="M88.995,179.632L90.078,179.632L90.078,186.757L91.849,186.757L91.849,187.674L88.995,187.674L88.995,179.632Z" style="fill:rgb(158,161,168);fill-rule:nonzero;"/>
            <path id="path1232" d="M92.536,179.632L95.417,179.632L95.417,180.549L93.62,180.549L93.62,183.096L95.214,183.096L95.214,184.013L93.62,184.013L93.62,186.757L95.417,186.757L95.417,187.674L92.536,187.674L92.536,179.632Z" style="fill:rgb(158,161,168);fill-rule:nonzero;"/>
            <path id="path1234" d="M97.557,179.632L98.401,179.632L100.125,187.674L99.052,187.674L98.75,186.106L97.156,186.106L96.849,187.674L95.807,187.674L97.557,179.632ZM98.594,185.268L98.354,183.987C98.194,183.115 98.064,182.185 97.964,181.195C97.915,181.678 97.852,182.167 97.776,182.664C97.7,183.157 97.609,183.681 97.505,184.237L97.307,185.268L98.594,185.268Z" style="fill:rgb(158,161,168);fill-rule:nonzero;"/>
            <path id="path1236" d="M103.448,179.799L103.448,180.856C103.118,180.62 102.821,180.502 102.557,180.502C102.273,180.502 102.04,180.603 101.859,180.804C101.679,180.995 101.589,181.25 101.589,181.57C101.589,181.851 101.653,182.092 101.781,182.294C101.847,182.402 101.955,182.54 102.104,182.711C102.257,182.881 102.453,183.086 102.693,183.325C103.134,183.773 103.434,184.16 103.594,184.487C103.753,184.803 103.833,185.19 103.833,185.648C103.833,186.27 103.658,186.782 103.307,187.185C102.957,187.577 102.507,187.773 101.958,187.773C101.497,187.773 101.102,187.646 100.776,187.393L100.776,186.32C101.161,186.601 101.512,186.742 101.828,186.742C102.123,186.742 102.354,186.645 102.521,186.45C102.688,186.252 102.771,185.985 102.771,185.648C102.771,185.356 102.707,185.094 102.578,184.862C102.512,184.75 102.42,184.624 102.302,184.481C102.184,184.336 102.036,184.174 101.859,183.997C101.585,183.726 101.358,183.487 101.177,183.278C100.997,183.07 100.863,182.888 100.776,182.731C100.609,182.426 100.526,182.04 100.526,181.575C100.526,180.947 100.689,180.448 101.016,180.08C101.345,179.709 101.788,179.523 102.344,179.523C102.729,179.523 103.097,179.615 103.448,179.799L103.448,179.799Z" style="fill:rgb(158,161,168);fill-rule:nonzero;"/>
            <path id="path1238" d="M104.745,179.632L107.625,179.632L107.625,180.549L105.828,180.549L105.828,183.096L107.422,183.096L107.422,184.013L105.828,184.013L105.828,186.757L107.625,186.757L107.625,187.674L104.745,187.674L104.745,179.632Z" style="fill:rgb(158,161,168);fill-rule:nonzero;"/>
        </g>
        <g id="text1161" transform="matrix(1,0,0,1,65.4944,-32.1042)">
            <path id="path1215" d="M18.506,231.958L19.933,231.958C20.523,231.958 20.962,232.099 21.25,232.38C21.615,232.745 21.797,233.302 21.797,234.052C21.797,234.628 21.7,235.092 21.506,235.443C21.315,235.79 21.04,236.005 20.683,236.089L22.162,240L21.063,240L19.589,236.062L19.589,240L18.506,240L18.506,231.958ZM19.589,235.521C20.009,235.521 20.306,235.424 20.48,235.229C20.653,235.035 20.74,234.707 20.74,234.245C20.74,233.995 20.721,233.781 20.683,233.604C20.648,233.427 20.591,233.283 20.511,233.172C20.434,233.061 20.334,232.979 20.209,232.927C20.087,232.875 19.941,232.849 19.771,232.849L19.589,232.849L19.589,235.521Z" style="fill:rgb(158,161,168);fill-rule:nonzero;"/>
            <path id="path1217" d="M24.151,231.958L24.995,231.958L26.719,240L25.646,240L25.344,238.432L23.75,238.432L23.443,240L22.401,240L24.151,231.958ZM25.188,237.594L24.948,236.312C24.789,235.441 24.658,234.51 24.558,233.521C24.509,234.003 24.447,234.493 24.37,234.99C24.294,235.483 24.204,236.007 24.099,236.562L23.901,237.594L25.188,237.594Z" style="fill:rgb(158,161,168);fill-rule:nonzero;"/>
            <path id="path1219" d="M26.552,231.958L30.079,231.958L30.079,232.906L28.865,232.906L28.865,240L27.802,240L27.802,232.906L26.552,232.906L26.552,231.958Z" style="fill:rgb(158,161,168);fill-rule:nonzero;"/>
            <rect id="path1221" x="30.672" y="231.958" width="1.083" height="8.042" style="fill:rgb(158,161,168);fill-rule:nonzero;"/>
            <path id="path1223" d="M37.032,236.177C37.032,237.597 36.874,238.606 36.558,239.203C36.242,239.8 35.712,240.099 34.969,240.099C34.188,240.099 33.638,239.778 33.318,239.135C33.002,238.507 32.844,237.391 32.844,235.786C32.844,234.356 33,233.344 33.313,232.75C33.629,232.153 34.164,231.854 34.917,231.854C35.591,231.854 36.091,232.085 36.417,232.547C36.632,232.856 36.789,233.295 36.886,233.865C36.983,234.392 37.032,235.163 37.032,236.177ZM35.896,236.292C35.896,234.899 35.834,233.976 35.709,233.521C35.584,233.063 35.329,232.833 34.943,232.833C34.558,232.833 34.301,233.043 34.172,233.464C34.047,233.887 33.985,234.738 33.985,236.016C33.985,237.193 34.051,238.009 34.183,238.464C34.318,238.894 34.572,239.109 34.943,239.109C35.308,239.109 35.558,238.908 35.693,238.505C35.829,238.106 35.896,237.368 35.896,236.292L35.896,236.292Z" style="fill:rgb(158,161,168);fill-rule:nonzero;"/>
        </g>
        <rect id="rect1254" x="2" y="78" width="141.456" height="116" style="fill:rgb(60,60,60);"/>
        <g id="text1258" transform="matrix(0.692215,0,0,1,198.08,-8.05732)">
            <path id="path1260" d="M-120.021,207.917L-116.495,207.917L-116.495,208.865L-117.708,208.865L-117.708,215.958L-118.771,215.958L-118.771,208.865L-120.021,208.865L-120.021,207.917Z" style="fill:rgb(158,161,168);fill-rule:nonzero;"/>
            <path id="path1262" d="M-115.901,207.917L-114.818,207.917L-114.818,211.063L-113.229,211.063L-113.229,207.917L-112.146,207.917L-112.146,215.958L-113.229,215.958L-113.229,211.979L-114.818,211.979L-114.818,215.958L-115.901,215.958L-115.901,207.917Z" style="fill:rgb(158,161,168);fill-rule:nonzero;"/>
            <path id="path1264" d="M-110.901,207.917L-109.474,207.917C-108.884,207.917 -108.444,208.057 -108.156,208.339C-107.792,208.703 -107.609,209.26 -107.609,210.01C-107.609,210.587 -107.707,211.05 -107.901,211.401C-108.092,211.748 -108.366,211.964 -108.724,212.047L-107.245,215.958L-108.344,215.958L-109.818,212.021L-109.818,215.958L-110.901,215.958L-110.901,207.917ZM-109.818,211.479C-109.398,211.479 -109.101,211.382 -108.927,211.188C-108.753,210.993 -108.667,210.665 -108.667,210.203C-108.667,209.953 -108.686,209.74 -108.724,209.563C-108.759,209.385 -108.816,209.241 -108.896,209.13C-108.972,209.019 -109.073,208.938 -109.198,208.885C-109.319,208.833 -109.465,208.807 -109.635,208.807L-109.818,208.807L-109.818,211.479Z" style="fill:rgb(158,161,168);fill-rule:nonzero;"/>
            <path id="path1266" d="M-106.401,207.917L-103.521,207.917L-103.521,208.833L-105.318,208.833L-105.318,211.38L-103.724,211.38L-103.724,212.297L-105.318,212.297L-105.318,215.042L-103.521,215.042L-103.521,215.958L-106.401,215.958L-106.401,207.917Z" style="fill:rgb(158,161,168);fill-rule:nonzero;"/>
            <path id="path1268" d="M-99.844,208.083L-99.844,209.141C-100.174,208.905 -100.47,208.786 -100.734,208.786C-101.019,208.786 -101.252,208.887 -101.432,209.089C-101.613,209.28 -101.703,209.535 -101.703,209.854C-101.703,210.135 -101.639,210.377 -101.51,210.578C-101.444,210.686 -101.337,210.825 -101.187,210.995C-101.035,211.165 -100.839,211.37 -100.599,211.609C-100.158,212.057 -99.858,212.444 -99.698,212.771C-99.538,213.087 -99.458,213.474 -99.458,213.932C-99.458,214.554 -99.634,215.066 -99.984,215.469C-100.335,215.861 -100.785,216.057 -101.333,216.057C-101.795,216.057 -102.189,215.931 -102.516,215.677L-102.516,214.604C-102.13,214.885 -101.78,215.026 -101.464,215.026C-101.168,215.026 -100.937,214.929 -100.771,214.734C-100.604,214.536 -100.521,214.269 -100.521,213.932C-100.521,213.641 -100.585,213.379 -100.714,213.146C-100.779,213.035 -100.872,212.908 -100.99,212.766C-101.108,212.62 -101.255,212.458 -101.432,212.281C-101.707,212.01 -101.934,211.771 -102.115,211.563C-102.295,211.354 -102.429,211.172 -102.516,211.016C-102.682,210.71 -102.766,210.325 -102.766,209.859C-102.766,209.231 -102.602,208.733 -102.276,208.365C-101.946,207.993 -101.503,207.807 -100.948,207.807C-100.563,207.807 -100.194,207.899 -99.844,208.083L-99.844,208.083Z" style="fill:rgb(158,161,168);fill-rule:nonzero;"/>
            <path id="path1270" d="M-98.547,207.917L-97.464,207.917L-97.464,211.063L-95.875,211.063L-95.875,207.917L-94.792,207.917L-94.792,215.958L-95.875,215.958L-95.875,211.979L-97.464,211.979L-97.464,215.958L-98.547,215.958L-98.547,207.917Z" style="fill:rgb(158,161,168);fill-rule:nonzero;"/>
            <path id="path1272" d="M-89.521,212.135C-89.521,213.556 -89.679,214.564 -89.995,215.161C-90.311,215.759 -90.84,216.057 -91.583,216.057C-92.365,216.057 -92.915,215.736 -93.234,215.094C-93.55,214.465 -93.708,213.349 -93.708,211.745C-93.708,210.314 -93.552,209.302 -93.24,208.708C-92.924,208.111 -92.389,207.813 -91.635,207.813C-90.962,207.813 -90.462,208.043 -90.135,208.505C-89.92,208.814 -89.764,209.253 -89.667,209.823C-89.569,210.351 -89.521,211.122 -89.521,212.135L-89.521,212.135ZM-90.656,212.25C-90.656,210.858 -90.719,209.934 -90.844,209.479C-90.969,209.021 -91.224,208.792 -91.609,208.792C-91.995,208.792 -92.252,209.002 -92.38,209.422C-92.505,209.846 -92.568,210.696 -92.568,211.974C-92.568,213.151 -92.502,213.967 -92.37,214.422C-92.234,214.852 -91.981,215.068 -91.609,215.068C-91.245,215.068 -90.995,214.866 -90.859,214.464C-90.724,214.064 -90.656,213.326 -90.656,212.25L-90.656,212.25Z" style="fill:rgb(158,161,168);fill-rule:nonzero;"/>
            <path id="path1274" d="M-88.443,207.917L-87.359,207.917L-87.359,215.042L-85.589,215.042L-85.589,215.958L-88.443,215.958L-88.443,207.917Z" style="fill:rgb(158,161,168);fill-rule:nonzero;"/>
            <path id="path1276" d="M-84.901,207.917L-83.568,207.917C-83.161,207.917 -82.819,207.962 -82.542,208.052C-82.285,208.139 -82.056,208.293 -81.854,208.516C-81.552,208.849 -81.337,209.283 -81.208,209.818C-81.08,210.335 -81.016,211.076 -81.016,212.042C-81.016,212.927 -81.087,213.649 -81.229,214.208C-81.368,214.743 -81.597,215.151 -81.917,215.432C-82.309,215.783 -83.012,215.958 -84.026,215.958L-84.901,215.958L-84.901,207.917ZM-83.818,215.01C-83.158,215.01 -82.717,214.811 -82.495,214.411C-82.266,214.012 -82.151,213.236 -82.151,212.083C-82.151,210.844 -82.26,209.991 -82.479,209.526C-82.698,209.061 -83.099,208.828 -83.682,208.828L-83.818,208.828L-83.818,215.01Z" style="fill:rgb(158,161,168);fill-rule:nonzero;"/>
        </g>
        <g id="text1281" transform="matrix(1,0,0,1,64.763,-35.7917)">
            <path id="path1313" d="M22.695,279.75L24.122,279.75C24.81,279.75 25.31,279.924 25.622,280.271C25.935,280.622 26.091,281.177 26.091,281.938C26.091,283.007 25.777,283.698 25.148,284.01C24.832,284.153 24.376,284.224 23.779,284.224L23.779,287.792L22.695,287.792L22.695,279.75ZM23.779,283.297C24.227,283.297 24.536,283.207 24.706,283.026C24.879,282.842 24.966,282.516 24.966,282.047C24.966,281.568 24.883,281.217 24.716,280.995C24.549,280.773 24.287,280.661 23.93,280.661L23.779,280.661L23.779,283.297Z" style="fill:rgb(158,161,168);fill-rule:nonzero;"/>
            <path id="path1315" d="M26.924,279.75L28.352,279.75C28.942,279.75 29.381,279.891 29.669,280.172C30.034,280.536 30.216,281.094 30.216,281.844C30.216,282.42 30.119,282.884 29.924,283.234C29.734,283.582 29.459,283.797 29.102,283.88L30.581,287.792L29.482,287.792L28.008,283.854L28.008,287.792L26.924,287.792L26.924,279.75ZM28.008,283.313C28.428,283.313 28.725,283.215 28.898,283.021C29.072,282.826 29.159,282.498 29.159,282.036C29.159,281.786 29.14,281.573 29.102,281.396C29.067,281.219 29.01,281.075 28.93,280.964C28.853,280.852 28.753,280.771 28.628,280.719C28.506,280.667 28.36,280.641 28.19,280.641L28.008,280.641L28.008,283.313Z" style="fill:rgb(158,161,168);fill-rule:nonzero;"/>
            <path id="path1317" d="M31.424,279.75L34.305,279.75L34.305,280.667L32.508,280.667L32.508,283.214L34.102,283.214L34.102,284.13L32.508,284.13L32.508,286.875L34.305,286.875L34.305,287.792L31.424,287.792L31.424,279.75Z" style="fill:rgb(158,161,168);fill-rule:nonzero;"/>
        </g>
        <g id="text1285" transform="matrix(1,0,0,1,37,-36)">
            <path id="path1302" d="M83.339,279.859L84.766,279.859C85.453,279.859 85.953,280.033 86.266,280.38C86.578,280.731 86.734,281.286 86.734,282.047C86.734,283.116 86.42,283.807 85.792,284.12C85.476,284.262 85.019,284.333 84.422,284.333L84.422,287.901L83.339,287.901L83.339,279.859ZM84.422,283.406C84.87,283.406 85.179,283.316 85.349,283.135C85.523,282.951 85.609,282.625 85.609,282.156C85.609,281.677 85.526,281.326 85.359,281.104C85.193,280.882 84.931,280.771 84.573,280.771L84.422,280.771L84.422,283.406Z" style="fill:rgb(158,161,168);fill-rule:nonzero;"/>
            <path id="path1304" d="M91.594,284.078C91.594,285.498 91.436,286.507 91.12,287.104C90.804,287.701 90.274,288 89.531,288C88.75,288 88.2,287.679 87.88,287.036C87.564,286.408 87.406,285.292 87.406,283.688C87.406,282.257 87.563,281.245 87.875,280.651C88.191,280.054 88.726,279.755 89.479,279.755C90.153,279.755 90.653,279.986 90.979,280.448C91.194,280.757 91.351,281.196 91.448,281.766C91.545,282.293 91.594,283.064 91.594,284.078L91.594,284.078ZM90.458,284.193C90.458,282.8 90.396,281.877 90.271,281.422C90.146,280.964 89.891,280.734 89.505,280.734C89.12,280.734 88.863,280.944 88.734,281.365C88.609,281.788 88.547,282.639 88.547,283.917C88.547,285.094 88.613,285.91 88.745,286.365C88.88,286.795 89.134,287.01 89.505,287.01C89.87,287.01 90.12,286.809 90.255,286.406C90.391,286.007 90.458,285.269 90.458,284.193Z" style="fill:rgb(158,161,168);fill-rule:nonzero;"/>
            <path id="path1307" d="M95.354,280.026L95.354,281.083C95.024,280.847 94.727,280.729 94.464,280.729C94.179,280.729 93.946,280.83 93.766,281.031C93.585,281.222 93.495,281.477 93.495,281.797C93.495,282.078 93.559,282.319 93.688,282.521C93.753,282.628 93.861,282.767 94.01,282.938C94.163,283.108 94.359,283.312 94.599,283.552C95.04,284 95.34,284.387 95.5,284.714C95.66,285.03 95.74,285.417 95.74,285.875C95.74,286.497 95.564,287.009 95.214,287.411C94.863,287.804 94.413,288 93.865,288C93.403,288 93.009,287.873 92.682,287.62L92.682,286.547C93.068,286.828 93.418,286.969 93.734,286.969C94.03,286.969 94.26,286.872 94.427,286.677C94.594,286.479 94.677,286.212 94.677,285.875C94.677,285.583 94.613,285.321 94.484,285.089C94.418,284.977 94.326,284.851 94.208,284.708C94.09,284.562 93.943,284.401 93.766,284.224C93.491,283.953 93.264,283.714 93.083,283.505C92.903,283.297 92.769,283.115 92.682,282.958C92.516,282.653 92.432,282.267 92.432,281.802C92.432,281.174 92.595,280.675 92.922,280.307C93.252,279.936 93.694,279.75 94.25,279.75C94.635,279.75 95.003,279.842 95.354,280.026L95.354,280.026Z" style="fill:rgb(158,161,168);fill-rule:nonzero;"/>
            <path id="path1309" d="M96.135,279.859L99.661,279.859L99.661,280.807L98.448,280.807L98.448,287.901L97.385,287.901L97.385,280.807L96.135,280.807L96.135,279.859Z" style="fill:rgb(158,161,168);fill-rule:nonzero;"/>
        </g>
        <g id="text1322" transform="matrix(1,0,0,1,-39.5,3.99999)">
            <path id="path1324" d="M51.872,239.958L52.956,239.958L52.956,243.854L54.466,239.958L55.56,239.958L53.977,243.854L55.685,248L54.466,248L52.956,243.854L52.956,248L51.872,248L51.872,239.958Z" style="fill:rgb(158,161,168);fill-rule:nonzero;"/>
            <path id="path1326" d="M56.372,239.958L57.383,239.958L58.461,243.167C58.773,244.073 59.049,245.04 59.289,246.068C59.202,245.446 59.138,244.884 59.096,244.38C59.055,243.877 59.034,243.403 59.034,242.958L59.034,239.958L60.122,239.958L60.122,248L59.107,248L57.893,244.38C57.782,244.043 57.676,243.698 57.576,243.344C57.478,242.99 57.388,242.618 57.305,242.229C57.298,242.181 57.286,242.122 57.268,242.052C57.255,241.983 57.237,241.903 57.216,241.813C57.227,241.903 57.235,241.981 57.242,242.047C57.249,242.109 57.255,242.163 57.258,242.208L57.315,243.026L57.372,244.021C57.376,244.076 57.378,244.144 57.378,244.224C57.381,244.304 57.383,244.394 57.383,244.495L57.44,248L56.373,248L56.372,239.958Z" style="fill:rgb(158,161,168);fill-rule:nonzero;"/>
            <path id="path1328" d="M61.372,239.958L64.253,239.958L64.253,240.875L62.456,240.875L62.456,243.422L64.049,243.422L64.049,244.339L62.456,244.339L62.456,247.083L64.253,247.083L64.253,248L61.372,248L61.372,239.958Z" style="fill:rgb(158,161,168);fill-rule:nonzero;"/>
            <path id="path1330" d="M65.247,239.958L68.128,239.958L68.128,240.875L66.331,240.875L66.331,243.422L67.924,243.422L67.924,244.339L66.331,244.339L66.331,247.083L68.128,247.083L68.128,248L65.247,248L65.247,239.958Z" style="fill:rgb(158,161,168);fill-rule:nonzero;"/>
        </g>
        <g id="text1117">
            <path id="path1120" d="M44.598,19.258L44.598,7.195L47.41,7.195C49.02,7.195 50.272,7.628 51.168,8.492C52.345,9.623 52.934,11.203 52.934,13.235C52.934,15.235 52.436,16.779 51.441,17.867C50.592,18.794 49.327,19.258 47.645,19.258L44.598,19.258ZM47.855,16.344C49.022,16.287 49.605,15.281 49.605,13.328C49.605,12.365 49.457,11.604 49.16,11.047C48.863,10.485 48.462,10.203 47.957,10.203L47.855,10.203L47.855,16.344Z" style="fill:rgb(158,161,168);fill-rule:nonzero;"/>
            <path id="path1122" d="M59.098,19.258L55.84,19.258L55.84,14.149L52.848,7.195L56.246,7.195L56.832,8.985C56.947,9.334 57.048,9.669 57.137,9.992C57.23,10.315 57.314,10.625 57.387,10.922C57.507,10.479 57.611,10.099 57.699,9.781C57.788,9.459 57.866,9.198 57.934,9L58.527,7.195L61.902,7.195L59.098,14.149L59.098,19.258Z" style="fill:rgb(158,161,168);fill-rule:nonzero;"/>
            <path id="path1124" d="M62.754,19.258L62.754,7.195L65.863,7.195L67.496,11.43C67.585,11.68 67.684,11.966 67.793,12.289C67.908,12.612 68.033,12.985 68.168,13.406L68.504,14.469C68.384,13.422 68.293,12.526 68.23,11.781C68.168,11.037 68.137,10.412 68.137,9.906L68.137,7.195L71.246,7.195L71.246,19.258L68.137,19.258L66.496,14.82C66.324,14.347 66.168,13.904 66.027,13.492C65.892,13.076 65.772,12.68 65.668,12.305C65.736,13.154 65.785,13.893 65.816,14.524C65.848,15.154 65.863,15.706 65.863,16.18L65.863,19.258L62.754,19.258Z" style="fill:rgb(158,161,168);fill-rule:nonzero;"/>
            <path id="path1126" d="M81.723,19.258L78.355,19.258L78.113,17.727L75.918,17.727L75.652,19.258L72.285,19.258L75.184,7.195L79.168,7.195L81.723,19.258ZM77.73,15.141L77.52,13.735C77.514,13.729 77.504,13.659 77.488,13.524C77.478,13.409 77.423,12.956 77.324,12.164C77.314,12.076 77.301,11.956 77.285,11.805C77.269,11.649 77.249,11.453 77.222,11.219L77.121,10.078C77.111,10.188 77.095,10.31 77.074,10.445C77.058,10.581 77.04,10.729 77.019,10.891C76.983,11.214 76.957,11.438 76.941,11.563C76.926,11.688 76.915,11.763 76.91,11.789L76.683,13.25L76.355,15.141L77.73,15.141Z" style="fill:rgb(158,161,168);fill-rule:nonzero;"/>
            <path id="path1129" d="M95.074,19.258L91.668,19.258L91.426,13.758L91.324,11.563C91.288,11.985 91.246,12.388 91.199,12.774C91.152,13.154 91.095,13.524 91.027,13.883L90.004,19.258L87.348,19.258L86.473,13.875C86.421,13.563 86.35,13.026 86.262,12.266C86.251,12.151 86.228,11.917 86.191,11.563L86.113,13.789L85.824,19.258L82.355,19.258L83.762,7.195L87.816,7.195L88.496,11.258C88.553,11.591 88.603,11.953 88.645,12.344C88.691,12.735 88.733,13.159 88.77,13.617C88.837,12.852 88.931,12.167 89.051,11.563L89.879,7.195L93.902,7.195L95.074,19.258Z" style="fill:rgb(158,161,168);fill-rule:nonzero;"/>
            <path id="path1131" d="M105.402,13.266C105.402,15.104 104.983,16.599 104.145,17.75C103.311,18.896 102.225,19.469 100.887,19.469C99.699,19.469 98.681,19.029 97.832,18.149C96.764,17.034 96.23,15.362 96.23,13.133C96.23,10.998 96.788,9.365 97.902,8.235C98.73,7.396 99.712,6.977 100.848,6.977C102.238,6.977 103.345,7.544 104.168,8.68C104.991,9.815 105.402,11.344 105.402,13.266ZM102.02,13.289C102.02,11.107 101.634,10.016 100.863,10.016C100.478,10.016 100.171,10.302 99.941,10.875C99.717,11.406 99.605,12.188 99.605,13.219C99.605,14.235 99.71,15.024 99.918,15.586C100.132,16.143 100.426,16.422 100.801,16.422C101.186,16.422 101.483,16.146 101.691,15.594C101.91,15.042 102.02,14.274 102.02,13.289L102.02,13.289Z" style="fill:rgb(158,161,168);fill-rule:nonzero;"/>
        </g>
        <g id="g1291" transform="matrix(1,0,0,1,-2.86979,0)">
            <g id="rect1134" transform="matrix(1,0,0,1.1048,3.10862e-15,-6.49772)">
                <path d="M9.633,26L72.106,26C74.191,26 75.87,28.141 75.87,30.8L75.87,57.2C75.87,59.859 74.191,62 72.106,62L9.633,62C7.548,62 5.87,59.859 5.87,57.2L5.87,30.8C5.87,28.141 7.548,26 9.633,26Z" style="fill:rgb(179,179,179);fill-rule:nonzero;"/>
            </g>
            <g id="g1278" transform="matrix(1,0,0,1,0,-4.80171)">
                <path id="path1137" d="M31.021,36.633L28.927,36.633L28.927,31.003L31.021,31.003L31.021,36.633ZM31.198,29.258C31.198,29.588 31.078,29.873 30.839,30.112C30.592,30.348 30.306,30.466 29.979,30.466C29.642,30.466 29.354,30.347 29.115,30.107C28.878,29.86 28.76,29.572 28.76,29.242C28.76,28.906 28.878,28.619 29.115,28.383C29.361,28.147 29.648,28.029 29.974,28.029C30.318,28.029 30.608,28.149 30.844,28.388C31.08,28.624 31.198,28.914 31.198,29.258L31.198,29.258Z" style="fill:rgb(44,45,48);fill-rule:nonzero;"/>
                <path id="path1139" d="M36.948,36.633L34.859,36.633L34.859,33.654C34.859,33.397 34.833,33.218 34.781,33.117C34.733,33.017 34.646,32.966 34.521,32.966C34.229,32.966 34.083,33.242 34.083,33.794L34.083,36.633L31.995,36.633L31.995,31.003L34.083,31.003C34.08,31.142 34.076,31.27 34.073,31.388C34.069,31.506 34.064,31.616 34.057,31.716L34.036,32.076C34.373,31.281 34.866,30.883 35.516,30.883C35.967,30.883 36.318,31.051 36.568,31.388C36.821,31.725 36.948,32.194 36.948,32.794L36.948,36.633Z" style="fill:rgb(44,45,48);fill-rule:nonzero;"/>
                <path id="path1141" d="M40,39.143L37.911,39.143L37.911,31.003L40,31.003L39.953,31.8C40.04,31.633 40.128,31.492 40.219,31.378C40.309,31.26 40.406,31.164 40.51,31.091C40.615,31.018 40.726,30.966 40.844,30.935C40.965,30.9 41.099,30.883 41.245,30.883C41.786,30.883 42.227,31.154 42.568,31.695C42.905,32.23 43.073,32.94 43.073,33.826C43.073,34.725 42.911,35.437 42.589,35.961C42.273,36.485 41.837,36.748 41.281,36.748C40.774,36.748 40.332,36.454 39.953,35.867C39.971,36.044 39.981,36.197 39.985,36.326C39.995,36.458 40,36.616 40,36.8L40,39.143ZM40.911,33.763C40.911,33.395 40.868,33.11 40.781,32.909C40.698,32.704 40.578,32.602 40.422,32.602C40.099,32.602 39.938,32.996 39.938,33.784C39.938,34.59 40.094,34.992 40.406,34.992C40.563,34.992 40.686,34.885 40.776,34.669C40.866,34.454 40.911,34.152 40.911,33.763L40.911,33.763Z" style="fill:rgb(44,45,48);fill-rule:nonzero;"/>
                <path id="path1143" d="M43.891,31.003L45.979,31.003L45.979,34.175C45.979,34.477 46.009,34.697 46.068,34.836C46.13,34.951 46.248,35.008 46.422,35.008C46.592,35.008 46.707,34.951 46.766,34.836C46.828,34.722 46.859,34.501 46.859,34.175L46.859,31.003L48.948,31.003L48.948,34.456C48.948,34.685 48.929,34.893 48.891,35.081C48.856,35.265 48.799,35.433 48.719,35.586C48.642,35.735 48.542,35.873 48.417,35.998C48.295,36.123 48.149,36.237 47.979,36.341C47.521,36.612 47.002,36.748 46.422,36.748C45.835,36.748 45.316,36.612 44.865,36.341C44.691,36.237 44.542,36.124 44.417,36.003C44.295,35.878 44.194,35.739 44.115,35.586C44.038,35.433 43.981,35.265 43.943,35.081C43.908,34.893 43.891,34.685 43.891,34.456L43.891,31.003Z" style="fill:rgb(44,45,48);fill-rule:nonzero;"/>
                <path id="path1145" d="M52.286,36.633L50.193,36.633L50.193,32.685L49.599,32.685L49.599,31.003L50.193,31.003L50.193,29.347L52.286,29.347L52.286,31.003L52.979,31.003L52.979,32.685L52.286,32.685L52.286,36.633Z" style="fill:rgb(44,45,48);fill-rule:nonzero;"/>
            </g>
            <g id="path1149" transform="matrix(1,0,0,1,-7.48978,10.1695)">
                <path d="M39.802,50L36,50L36,41.958L38.172,41.958L38.172,48.068L39.802,48.068L39.802,50Z" style="fill:rgb(44,45,48);fill-rule:nonzero;"/>
            </g>
            <g id="path1153" transform="matrix(1.00002,0,0,0.999978,-21.4896,10.1695)">
                <path d="M74.717,50.001L72.368,50.001L71.295,47.136C71.285,47.088 71.266,47.024 71.238,46.944C71.214,46.864 71.183,46.768 71.144,46.657L71.16,47.189L71.16,50.001L68.998,50.001L68.998,41.959L71.222,41.959C72.202,41.959 72.934,42.152 73.42,42.537C74.038,43.03 74.347,43.732 74.347,44.642C74.347,45.614 73.932,46.286 73.103,46.657L74.717,50.001ZM71.17,45.683L71.316,45.683C71.566,45.683 71.775,45.588 71.941,45.397C72.108,45.206 72.191,44.963 72.191,44.668C72.191,44.067 71.877,43.767 71.249,43.767L71.17,43.767L71.17,45.683Z" style="fill:rgb(44,45,48);fill-rule:nonzero;"/>
            </g>
        </g>
        <g id="g1300" transform="matrix(1,0,0,1,-1.35959,0)">
            <g id="rect1190" transform="matrix(1,0,0,1.1048,1.77636e-15,-6.49772)">
                <path d="M82.123,26L144.596,26C146.681,26 148.36,28.141 148.36,30.8L148.36,57.2C148.36,59.859 146.681,62 144.596,62L82.123,62C80.038,62 78.36,59.859 78.36,57.2L78.36,30.8C78.36,28.141 80.038,26 82.123,26Z" style="fill:rgb(179,179,179);fill-rule:nonzero;"/>
            </g>
            <g id="path1204" transform="matrix(1,0,0,1,65,10.1695)">
                <path d="M39.802,50L36,50L36,41.958L38.172,41.958L38.172,48.068L39.802,48.068L39.802,50Z" style="fill:rgb(44,45,48);fill-rule:nonzero;"/>
            </g>
            <g id="path1208" transform="matrix(1.00002,0,0,0.999978,51.0001,10.1695)">
                <path d="M74.717,50.001L72.368,50.001L71.295,47.136C71.285,47.088 71.266,47.024 71.238,46.944C71.214,46.864 71.183,46.768 71.144,46.657L71.16,47.189L71.16,50.001L68.998,50.001L68.998,41.959L71.222,41.959C72.202,41.959 72.934,42.152 73.42,42.537C74.038,43.03 74.347,43.732 74.347,44.642C74.347,45.614 73.932,46.286 73.103,46.657L74.717,50.001ZM71.17,45.683L71.316,45.683C71.566,45.683 71.775,45.588 71.941,45.397C72.108,45.206 72.191,44.963 72.191,44.668C72.191,44.067 71.877,43.767 71.249,43.767L71.17,43.767L71.17,45.683Z" style="fill:rgb(44,45,48);fill-rule:nonzero;"/>
            </g>
            <g id="text1230" transform="matrix(1,0,0,1,0,1)">
                <path id="path1367" d="M85.417,30.56L86.177,28.998C86.552,29.39 86.901,29.587 87.224,29.587C87.495,29.587 87.63,29.489 87.63,29.295C87.63,29.128 87.448,28.979 87.084,28.847C86.101,28.5 85.61,27.949 85.61,27.196C85.61,26.644 85.828,26.185 86.266,25.821C86.707,25.456 87.257,25.274 87.917,25.274C88.459,25.274 89.018,25.427 89.594,25.732L88.88,27.258C88.53,26.929 88.243,26.764 88.021,26.764C87.802,26.764 87.693,26.852 87.693,27.029C87.693,27.22 87.901,27.399 88.318,27.566C88.839,27.771 89.193,27.988 89.38,28.217C89.578,28.446 89.677,28.762 89.677,29.165C89.677,29.744 89.467,30.218 89.047,30.587C88.627,30.955 88.087,31.139 87.427,31.139C87.111,31.139 86.797,31.099 86.485,31.019C86.339,30.981 86.179,30.923 86.005,30.847C85.832,30.767 85.636,30.672 85.417,30.56L85.417,30.56Z" style="fill:rgb(44,45,48);fill-rule:nonzero;"/>
                <path id="path1369" d="M92.479,31.024L90.386,31.024L90.386,25.394L92.479,25.394L92.479,31.024ZM92.656,23.649C92.656,23.979 92.537,24.264 92.297,24.503C92.051,24.739 91.764,24.857 91.438,24.857C91.101,24.857 90.813,24.738 90.573,24.498C90.337,24.251 90.219,23.963 90.219,23.633C90.219,23.297 90.337,23.01 90.573,22.774C90.82,22.538 91.106,22.42 91.432,22.42C91.776,22.42 92.066,22.54 92.302,22.779C92.538,23.015 92.656,23.305 92.656,23.649L92.656,23.649Z" style="fill:rgb(44,45,48);fill-rule:nonzero;"/>
                <path id="path1371" d="M96.344,31.024C96.347,30.965 96.351,30.897 96.355,30.821C96.358,30.744 96.363,30.656 96.37,30.555C96.377,30.493 96.382,30.397 96.386,30.269C96.184,30.595 95.988,30.823 95.797,30.951C95.61,31.076 95.379,31.139 95.104,31.139C94.538,31.139 94.094,30.885 93.771,30.378C93.452,29.871 93.292,29.166 93.292,28.264C93.292,27.316 93.448,26.581 93.761,26.06C94.073,25.536 94.514,25.274 95.083,25.274C95.396,25.274 95.648,25.343 95.839,25.482C96.04,25.621 96.235,25.863 96.422,26.206C96.412,26.026 96.407,25.916 96.407,25.878L96.386,25.31L96.386,22.227L98.479,22.227L98.479,31.024L96.344,31.024ZM95.453,28.185C95.453,28.956 95.625,29.342 95.969,29.342C96.292,29.342 96.453,28.944 96.453,28.149C96.453,27.389 96.297,27.008 95.985,27.008C95.63,27.008 95.453,27.401 95.453,28.185Z" style="fill:rgb(44,45,48);fill-rule:nonzero;"/>
                <path id="path1373" d="M102.334,29.118L104.375,29.159C104.229,29.816 103.945,30.31 103.521,30.644C103.101,30.974 102.551,31.139 101.87,31.139C101.064,31.139 100.433,30.889 99.974,30.389C99.519,29.882 99.292,29.189 99.292,28.31C99.292,27.418 99.537,26.691 100.026,26.128C100.516,25.562 101.148,25.279 101.922,25.279C102.693,25.279 103.308,25.552 103.766,26.097C104.224,26.646 104.453,27.373 104.453,28.279L104.443,28.649L101.38,28.649C101.405,29.225 101.568,29.514 101.87,29.514C102.106,29.514 102.261,29.382 102.334,29.118ZM102.38,27.524C102.38,27.42 102.368,27.324 102.344,27.238C102.32,27.151 102.285,27.076 102.24,27.014C102.198,26.951 102.148,26.902 102.089,26.868C102.03,26.83 101.966,26.81 101.896,26.81C101.75,26.81 101.632,26.878 101.542,27.014C101.452,27.146 101.407,27.316 101.407,27.524L102.38,27.524Z" style="fill:rgb(44,45,48);fill-rule:nonzero;"/>
                <path id="path1375" d="M108.193,29.185L108.193,31.107C108.068,31.121 107.959,31.13 107.865,31.133C107.771,31.14 107.693,31.144 107.63,31.144C107.005,31.144 106.483,30.956 106.063,30.581C105.778,30.328 105.547,29.981 105.37,29.54C105.193,29.099 105.104,28.646 105.104,28.18C105.104,27.354 105.358,26.661 105.865,26.102C106.368,25.55 107.004,25.274 107.771,25.274C107.816,25.274 107.873,25.276 107.943,25.279C108.012,25.283 108.096,25.288 108.193,25.295L108.193,27.128C107.575,27.17 107.266,27.507 107.266,28.139C107.266,28.423 107.342,28.673 107.495,28.889C107.651,29.093 107.837,29.196 108.052,29.196L108.115,29.196C108.139,29.192 108.165,29.189 108.193,29.185L108.193,29.185Z" style="fill:rgb(44,45,48);fill-rule:nonzero;"/>
                <path id="path1377" d="M114.136,31.024L112.047,31.024L112.047,28.045C112.047,27.788 112.021,27.609 111.969,27.508C111.92,27.408 111.834,27.357 111.709,27.357C111.417,27.357 111.271,27.633 111.271,28.185L111.271,31.024L109.183,31.024L109.183,22.227L111.271,22.227L111.271,25.373C111.271,25.543 111.269,25.685 111.266,25.8C111.266,25.915 111.264,26.001 111.26,26.06C111.257,26.119 111.252,26.182 111.245,26.248C111.238,26.314 111.231,26.387 111.224,26.467C111.561,25.672 112.054,25.274 112.703,25.274C113.155,25.274 113.505,25.442 113.755,25.779C114.009,26.116 114.136,26.585 114.136,27.185L114.136,31.024Z" style="fill:rgb(44,45,48);fill-rule:nonzero;"/>
                <path id="path1379" d="M120.125,31.024L118.031,31.024C118.049,30.837 118.063,30.658 118.073,30.488C118.083,30.317 118.094,30.18 118.104,30.076C117.743,30.784 117.259,31.139 116.651,31.139C116.124,31.139 115.705,30.875 115.396,30.347C115.091,29.823 114.938,29.097 114.938,28.17C114.938,27.274 115.096,26.569 115.412,26.055C115.728,25.534 116.158,25.274 116.703,25.274C117.262,25.274 117.714,25.611 118.058,26.284C118.051,26.215 118.045,26.154 118.042,26.102C118.039,26.05 118.035,26.007 118.032,25.972L118.011,25.644L117.995,25.394L120.125,25.394L120.125,31.024ZM118.011,28.139C118.011,27.93 118.002,27.753 117.985,27.607C117.971,27.462 117.946,27.343 117.912,27.253C117.877,27.159 117.832,27.093 117.776,27.055C117.721,27.014 117.653,26.993 117.573,26.993C117.219,26.993 117.042,27.463 117.042,28.404C117.042,29.078 117.2,29.415 117.516,29.415C117.846,29.415 118.011,28.989 118.011,28.139L118.011,28.139Z" style="fill:rgb(44,45,48);fill-rule:nonzero;"/>
                <path id="path1381" d="M123.188,31.024L121.094,31.024L121.094,25.394L123.188,25.394L123.188,31.024ZM123.365,23.649C123.365,23.979 123.245,24.264 123.005,24.503C122.759,24.739 122.472,24.857 122.146,24.857C121.809,24.857 121.521,24.738 121.281,24.498C121.045,24.251 120.927,23.963 120.927,23.633C120.927,23.297 121.045,23.01 121.281,22.774C121.528,22.538 121.814,22.42 122.141,22.42C122.485,22.42 122.774,22.54 123.011,22.779C123.247,23.015 123.365,23.305 123.365,23.649L123.365,23.649Z" style="fill:rgb(44,45,48);fill-rule:nonzero;"/>
                <path id="path1383" d="M129.115,31.024L127.026,31.024L127.026,28.045C127.026,27.788 127,27.609 126.948,27.508C126.9,27.408 126.813,27.357 126.688,27.357C126.396,27.357 126.25,27.633 126.25,28.185L126.25,31.024L124.162,31.024L124.162,25.394L126.25,25.394C126.247,25.533 126.243,25.661 126.24,25.779C126.236,25.897 126.231,26.007 126.224,26.107L126.203,26.467C126.54,25.672 127.033,25.274 127.683,25.274C128.134,25.274 128.485,25.442 128.735,25.779C128.988,26.116 129.115,26.585 129.115,27.185L129.115,31.024Z" style="fill:rgb(44,45,48);fill-rule:nonzero;"/>
                <path id="path1385" d="M135.375,31.024L133.281,31.024L133.281,25.394L135.375,25.394L135.375,31.024ZM135.552,23.649C135.552,23.979 135.432,24.264 135.193,24.503C134.946,24.739 134.66,24.857 134.334,24.857C133.997,24.857 133.709,24.738 133.469,24.498C133.233,24.251 133.115,23.963 133.115,23.633C133.115,23.297 133.233,23.01 133.469,22.774C133.715,22.538 134.002,22.42 134.328,22.42C134.672,22.42 134.962,22.54 135.198,22.779C135.434,23.015 135.552,23.305 135.552,23.649L135.552,23.649Z" style="fill:rgb(44,45,48);fill-rule:nonzero;"/>
                <path id="path1387" d="M141.302,31.024L139.214,31.024L139.214,28.045C139.214,27.788 139.188,27.609 139.136,27.508C139.087,27.408 139,27.357 138.875,27.357C138.584,27.357 138.438,27.633 138.438,28.185L138.438,31.024L136.349,31.024L136.349,25.394L138.438,25.394C138.434,25.533 138.431,25.661 138.427,25.779C138.424,25.897 138.418,26.007 138.412,26.107L138.391,26.467C138.728,25.672 139.221,25.274 139.87,25.274C140.321,25.274 140.672,25.442 140.922,25.779C141.176,26.116 141.302,26.585 141.302,27.185L141.302,31.024Z" style="fill:rgb(44,45,48);fill-rule:nonzero;"/>
            </g>
        </g>
        <g id="g1364" transform="matrix(1,0,0,1,203.776,11.0241)">
            <g id="rect1302" transform="matrix(1,0,0,1.1048,0,-36.7831)">
                <path d="M-123.013,314.976L-60.539,314.976C-58.455,314.976 -56.776,317.117 -56.776,319.776L-56.776,346.176C-56.776,348.835 -58.455,350.976 -60.539,350.976L-123.013,350.976C-125.098,350.976 -126.776,348.835 -126.776,346.176L-126.776,319.776C-126.776,317.117 -125.098,314.976 -123.013,314.976Z" style="fill:rgb(60,60,60);fill-rule:nonzero;"/>
            </g>
            <g id="path1305" transform="matrix(1,0,0,1,-140.136,299.145)">
                <path d="M39.802,50L36,50L36,41.958L38.172,41.958L38.172,48.068L39.802,48.068L39.802,50Z" style="fill:rgb(249,248,247);fill-rule:nonzero;"/>
            </g>
            <g id="path1311" transform="matrix(1.00002,0,0,0.999978,-154.135,299.145)">
                <path d="M74.717,50.001L72.368,50.001L71.295,47.136C71.285,47.088 71.266,47.024 71.238,46.944C71.214,46.864 71.183,46.768 71.144,46.657L71.16,47.189L71.16,50.001L68.998,50.001L68.998,41.959L71.222,41.959C72.202,41.959 72.934,42.152 73.42,42.537C74.038,43.03 74.347,43.732 74.347,44.642C74.347,45.614 73.932,46.286 73.103,46.657L74.717,50.001ZM71.17,45.683L71.316,45.683C71.566,45.683 71.775,45.588 71.941,45.397C72.108,45.206 72.191,44.963 72.191,44.668C72.191,44.067 71.877,43.767 71.249,43.767L71.17,43.767L71.17,45.683Z" style="fill:rgb(249,248,247);fill-rule:nonzero;"/>
            </g>
            <g id="text1317" transform="matrix(1,0,0,1,-2.84217e-14,1)">
                <path id="path1406" d="M-123.193,319.536L-122.432,317.974C-122.057,318.366 -121.708,318.562 -121.385,318.562C-121.115,318.562 -120.979,318.465 -120.979,318.271C-120.979,318.104 -121.161,317.955 -121.526,317.823C-122.509,317.476 -123,316.925 -123,316.172C-123,315.62 -122.781,315.161 -122.344,314.797C-121.903,314.432 -121.352,314.25 -120.693,314.25C-120.151,314.25 -119.592,314.403 -119.016,314.708L-119.729,316.234C-120.08,315.904 -120.366,315.74 -120.589,315.74C-120.807,315.74 -120.917,315.828 -120.917,316.005C-120.917,316.196 -120.708,316.375 -120.292,316.542C-119.771,316.747 -119.417,316.964 -119.229,317.193C-119.031,317.422 -118.932,317.738 -118.932,318.141C-118.932,318.72 -119.142,319.194 -119.562,319.562C-119.983,319.931 -120.523,320.115 -121.182,320.115C-121.498,320.115 -121.812,320.075 -122.125,319.995C-122.271,319.957 -122.431,319.899 -122.604,319.823C-122.778,319.743 -122.974,319.648 -123.193,319.536L-123.193,319.536Z" style="fill:rgb(249,248,247);fill-rule:nonzero;"/>
                <path id="path1408" d="M-116.13,320L-118.224,320L-118.224,314.37L-116.13,314.37L-116.13,320ZM-115.953,312.625C-115.953,312.955 -116.073,313.24 -116.313,313.479C-116.559,313.715 -116.846,313.833 -117.172,313.833C-117.509,313.833 -117.797,313.714 -118.036,313.474C-118.273,313.227 -118.391,312.939 -118.391,312.609C-118.391,312.273 -118.273,311.986 -118.036,311.75C-117.79,311.514 -117.503,311.396 -117.177,311.396C-116.833,311.396 -116.543,311.516 -116.307,311.755C-116.071,311.991 -115.953,312.281 -115.953,312.625L-115.953,312.625Z" style="fill:rgb(249,248,247);fill-rule:nonzero;"/>
                <path id="path1410" d="M-112.266,320C-112.262,319.941 -112.259,319.873 -112.255,319.797C-112.252,319.72 -112.246,319.632 -112.24,319.531C-112.232,319.469 -112.227,319.373 -112.224,319.245C-112.425,319.571 -112.622,319.799 -112.813,319.927C-113,320.052 -113.231,320.115 -113.505,320.115C-114.071,320.115 -114.516,319.861 -114.839,319.354C-115.158,318.847 -115.318,318.142 -115.318,317.24C-115.318,316.292 -115.162,315.557 -114.849,315.036C-114.537,314.512 -114.096,314.25 -113.526,314.25C-113.214,314.25 -112.962,314.319 -112.771,314.458C-112.57,314.597 -112.375,314.839 -112.188,315.182C-112.198,315.002 -112.203,314.892 -112.203,314.854L-112.224,314.286L-112.224,311.203L-110.13,311.203L-110.13,320L-112.266,320ZM-113.156,317.161C-113.156,317.932 -112.984,318.318 -112.641,318.318C-112.318,318.318 -112.156,317.92 -112.156,317.125C-112.156,316.365 -112.312,315.984 -112.625,315.984C-112.979,315.984 -113.156,316.377 -113.156,317.161Z" style="fill:rgb(249,248,247);fill-rule:nonzero;"/>
                <path id="path1412" d="M-106.276,318.094L-104.234,318.135C-104.38,318.792 -104.665,319.286 -105.089,319.62C-105.509,319.95 -106.059,320.115 -106.74,320.115C-107.545,320.115 -108.177,319.865 -108.635,319.365C-109.09,318.858 -109.318,318.165 -109.318,317.286C-109.318,316.394 -109.073,315.667 -108.583,315.104C-108.094,314.538 -107.462,314.255 -106.687,314.255C-105.917,314.255 -105.302,314.528 -104.844,315.073C-104.385,315.621 -104.156,316.349 -104.156,317.255L-104.167,317.625L-107.229,317.625C-107.205,318.201 -107.042,318.49 -106.74,318.49C-106.504,318.49 -106.349,318.358 -106.276,318.094L-106.276,318.094ZM-106.229,316.5C-106.229,316.396 -106.241,316.3 -106.265,316.214C-106.29,316.127 -106.324,316.052 -106.37,315.99C-106.411,315.927 -106.462,315.878 -106.521,315.844C-106.58,315.806 -106.644,315.786 -106.713,315.786C-106.859,315.786 -106.977,315.854 -107.068,315.99C-107.158,316.122 -107.203,316.292 -107.203,316.5L-106.229,316.5Z" style="fill:rgb(249,248,247);fill-rule:nonzero;"/>
                <path id="path1414" d="M-100.417,318.161L-100.417,320.083C-100.542,320.097 -100.651,320.106 -100.745,320.109C-100.839,320.116 -100.917,320.12 -100.979,320.12C-101.604,320.12 -102.127,319.932 -102.547,319.557C-102.832,319.304 -103.062,318.957 -103.24,318.516C-103.417,318.075 -103.505,317.622 -103.505,317.156C-103.505,316.33 -103.252,315.637 -102.745,315.078C-102.241,314.526 -101.606,314.25 -100.839,314.25C-100.793,314.25 -100.736,314.252 -100.667,314.255C-100.597,314.259 -100.514,314.264 -100.417,314.271L-100.417,316.104C-101.035,316.146 -101.344,316.483 -101.344,317.115C-101.344,317.399 -101.267,317.649 -101.115,317.865C-100.958,318.07 -100.773,318.172 -100.557,318.172L-100.495,318.172C-100.471,318.169 -100.445,318.165 -100.417,318.161L-100.417,318.161Z" style="fill:rgb(249,248,247);fill-rule:nonzero;"/>
                <path id="path1416" d="M-94.474,320L-96.562,320L-96.562,317.021C-96.562,316.764 -96.589,316.585 -96.641,316.484C-96.689,316.384 -96.776,316.333 -96.901,316.333C-97.193,316.333 -97.339,316.609 -97.339,317.161L-97.339,320L-99.427,320L-99.427,311.203L-97.339,311.203L-97.339,314.349C-97.339,314.519 -97.34,314.661 -97.344,314.776C-97.344,314.891 -97.346,314.977 -97.349,315.036C-97.353,315.095 -97.358,315.158 -97.365,315.224C-97.372,315.29 -97.379,315.363 -97.385,315.443C-97.049,314.648 -96.556,314.25 -95.906,314.25C-95.455,314.25 -95.104,314.418 -94.854,314.755C-94.601,315.092 -94.474,315.561 -94.474,316.161L-94.474,320Z" style="fill:rgb(249,248,247);fill-rule:nonzero;"/>
                <path id="path1418" d="M-88.484,320L-90.578,320C-90.561,319.812 -90.547,319.634 -90.536,319.464C-90.526,319.293 -90.516,319.156 -90.505,319.052C-90.866,319.76 -91.351,320.115 -91.958,320.115C-92.486,320.115 -92.904,319.851 -93.213,319.323C-93.519,318.799 -93.672,318.073 -93.672,317.146C-93.672,316.25 -93.514,315.545 -93.198,315.031C-92.882,314.51 -92.451,314.25 -91.906,314.25C-91.347,314.25 -90.896,314.587 -90.552,315.26C-90.559,315.191 -90.564,315.13 -90.567,315.078C-90.571,315.026 -90.575,314.983 -90.578,314.948L-90.599,314.62L-90.614,314.37L-88.484,314.37L-88.484,320ZM-90.599,317.115C-90.599,316.906 -90.608,316.729 -90.625,316.583C-90.639,316.437 -90.663,316.319 -90.698,316.229C-90.733,316.135 -90.778,316.069 -90.833,316.031C-90.889,315.99 -90.957,315.969 -91.036,315.969C-91.391,315.969 -91.568,316.439 -91.568,317.38C-91.568,318.054 -91.41,318.391 -91.094,318.391C-90.764,318.391 -90.599,317.965 -90.599,317.115L-90.599,317.115Z" style="fill:rgb(249,248,247);fill-rule:nonzero;"/>
                <path id="path1420" d="M-85.422,320L-87.516,320L-87.516,314.37L-85.422,314.37L-85.422,320ZM-85.245,312.625C-85.245,312.955 -85.365,313.24 -85.604,313.479C-85.851,313.715 -86.137,313.833 -86.464,313.833C-86.8,313.833 -87.089,313.714 -87.328,313.474C-87.564,313.227 -87.682,312.939 -87.682,312.609C-87.682,312.273 -87.564,311.986 -87.328,311.75C-87.082,311.514 -86.795,311.396 -86.469,311.396C-86.125,311.396 -85.835,311.516 -85.599,311.755C-85.363,311.991 -85.245,312.281 -85.245,312.625L-85.245,312.625Z" style="fill:rgb(249,248,247);fill-rule:nonzero;"/>
                <path id="path1422" d="M-79.495,320L-81.583,320L-81.583,317.021C-81.583,316.764 -81.609,316.585 -81.661,316.484C-81.71,316.384 -81.797,316.333 -81.922,316.333C-82.214,316.333 -82.359,316.609 -82.359,317.161L-82.359,320L-84.448,320L-84.448,314.37L-82.359,314.37C-82.363,314.509 -82.366,314.637 -82.37,314.755C-82.373,314.873 -82.379,314.983 -82.385,315.083L-82.406,315.443C-82.069,314.648 -81.576,314.25 -80.927,314.25C-80.476,314.25 -80.125,314.418 -79.875,314.755C-79.622,315.092 -79.495,315.561 -79.495,316.161L-79.495,320Z" style="fill:rgb(249,248,247);fill-rule:nonzero;"/>
                <path id="path1424" d="M-70.25,317.271C-70.25,318.139 -70.49,318.83 -70.969,319.344C-71.448,319.858 -72.09,320.115 -72.896,320.115C-73.687,320.115 -74.318,319.852 -74.786,319.328C-75.252,318.8 -75.484,318.092 -75.484,317.203C-75.484,316.314 -75.247,315.601 -74.771,315.062C-74.299,314.521 -73.672,314.25 -72.891,314.25C-72.068,314.25 -71.422,314.519 -70.953,315.057C-70.484,315.595 -70.25,316.333 -70.25,317.271ZM-72.276,317.203C-72.276,316.995 -72.29,316.807 -72.318,316.641C-72.345,316.47 -72.385,316.326 -72.437,316.208C-72.49,316.087 -72.552,315.993 -72.625,315.927C-72.698,315.861 -72.78,315.828 -72.87,315.828C-73.047,315.828 -73.189,315.953 -73.297,316.203C-73.405,316.422 -73.458,316.75 -73.458,317.188C-73.458,317.618 -73.405,317.946 -73.297,318.172C-73.189,318.422 -73.045,318.547 -72.865,318.547C-72.694,318.547 -72.554,318.424 -72.443,318.177C-72.332,317.903 -72.276,317.578 -72.276,317.203L-72.276,317.203Z" style="fill:rgb(249,248,247);fill-rule:nonzero;"/>
                <path id="path1426" d="M-69.448,314.37L-67.359,314.37L-67.359,317.542C-67.359,317.844 -67.33,318.064 -67.271,318.203C-67.208,318.318 -67.09,318.375 -66.917,318.375C-66.747,318.375 -66.632,318.318 -66.573,318.203C-66.51,318.089 -66.479,317.868 -66.479,317.542L-66.479,314.37L-64.391,314.37L-64.391,317.823C-64.391,318.052 -64.41,318.26 -64.448,318.448C-64.483,318.632 -64.54,318.8 -64.62,318.953C-64.696,319.102 -64.797,319.24 -64.922,319.365C-65.043,319.49 -65.189,319.604 -65.359,319.708C-65.818,319.979 -66.337,320.115 -66.917,320.115C-67.503,320.115 -68.023,319.979 -68.474,319.708C-68.648,319.604 -68.797,319.491 -68.922,319.37C-69.043,319.245 -69.144,319.106 -69.224,318.953C-69.3,318.8 -69.358,318.632 -69.396,318.448C-69.431,318.26 -69.448,318.052 -69.448,317.823L-69.448,314.37Z" style="fill:rgb(249,248,247);fill-rule:nonzero;"/>
                <path id="path1428" d="M-61.052,320L-63.146,320L-63.146,316.052L-63.74,316.052L-63.74,314.37L-63.146,314.37L-63.146,312.714L-61.052,312.714L-61.052,314.37L-60.359,314.37L-60.359,316.052L-61.052,316.052L-61.052,320Z" style="fill:rgb(249,248,247);fill-rule:nonzero;"/>
            </g>
        </g>
        <g id="g1355" transform="matrix(1,0,0,1.03947,124.64,102.264)">
            <g id="rect1334" transform="matrix(1,0,0,1.06285,0,-15.7036)">
                <path d="M-117.877,213.872L-55.404,213.872C-53.319,213.872 -51.64,216.013 -51.64,218.672L-51.64,245.072C-51.64,247.731 -53.319,249.872 -55.404,249.872L-117.877,249.872C-119.962,249.872 -121.64,247.731 -121.64,245.072L-121.64,218.672C-121.64,216.013 -119.962,213.872 -117.877,213.872Z" style="fill:rgb(60,60,60);fill-rule:nonzero;"/>
            </g>
            <g id="path1336" transform="matrix(1,0,0,1,-135,198.042)">
                <path d="M39.802,50L36,50L36,41.958L38.172,41.958L38.172,48.068L39.802,48.068L39.802,50Z" style="fill:rgb(249,248,247);fill-rule:nonzero;"/>
            </g>
            <g id="path1340" transform="matrix(1.00002,0,0,0.999978,-149,198.042)">
                <path d="M74.717,50.001L72.368,50.001L71.295,47.136C71.285,47.088 71.266,47.024 71.238,46.944C71.214,46.864 71.183,46.768 71.144,46.657L71.16,47.189L71.16,50.001L68.998,50.001L68.998,41.959L71.222,41.959C72.202,41.959 72.934,42.152 73.42,42.537C74.038,43.03 74.347,43.732 74.347,44.642C74.347,45.614 73.932,46.286 73.103,46.657L74.717,50.001ZM71.17,45.683L71.316,45.683C71.566,45.683 71.775,45.588 71.941,45.397C72.108,45.206 72.191,44.963 72.191,44.668C72.191,44.067 71.877,43.767 71.249,43.767L71.17,43.767L71.17,45.683Z" style="fill:rgb(249,248,247);fill-rule:nonzero;"/>
            </g>
            <g id="text1346" transform="matrix(1,0,0,1,0,0.962025)">
                <path id="path1392" d="M-96.781,216.167C-96.781,217.035 -97.021,217.726 -97.5,218.24C-97.979,218.754 -98.621,219.011 -99.427,219.011C-100.219,219.011 -100.849,218.749 -101.317,218.224C-101.783,217.697 -102.015,216.988 -102.015,216.099C-102.015,215.21 -101.778,214.497 -101.302,213.959C-100.83,213.417 -100.203,213.146 -99.422,213.146C-98.599,213.146 -97.953,213.415 -97.484,213.953C-97.015,214.492 -96.781,215.23 -96.781,216.167ZM-98.807,216.099C-98.807,215.891 -98.821,215.704 -98.849,215.537C-98.877,215.367 -98.916,215.223 -98.969,215.105C-99.021,214.983 -99.083,214.889 -99.156,214.823C-99.229,214.757 -99.311,214.724 -99.401,214.724C-99.578,214.724 -99.72,214.849 -99.828,215.099C-99.936,215.318 -99.989,215.646 -99.989,216.084C-99.989,216.514 -99.936,216.842 -99.828,217.068C-99.72,217.318 -99.576,217.443 -99.396,217.443C-99.225,217.443 -99.085,217.32 -98.974,217.073C-98.863,216.799 -98.807,216.474 -98.807,216.099L-98.807,216.099Z" style="fill:rgb(249,248,247);fill-rule:nonzero;"/>
                <path id="path1394" d="M-95.979,213.266L-93.89,213.266L-93.89,216.438C-93.89,216.74 -93.861,216.96 -93.802,217.099C-93.739,217.214 -93.621,217.271 -93.448,217.271C-93.278,217.271 -93.163,217.214 -93.104,217.099C-93.041,216.985 -93.01,216.764 -93.01,216.438L-93.01,213.266L-90.922,213.266L-90.922,216.719C-90.922,216.948 -90.941,217.157 -90.979,217.344C-91.014,217.528 -91.071,217.697 -91.151,217.849C-91.227,217.999 -91.328,218.136 -91.453,218.261C-91.574,218.386 -91.72,218.5 -91.89,218.605C-92.349,218.875 -92.868,219.011 -93.448,219.011C-94.034,219.011 -94.554,218.875 -95.005,218.605C-95.179,218.5 -95.328,218.388 -95.453,218.266C-95.574,218.141 -95.675,218.002 -95.755,217.849C-95.831,217.697 -95.889,217.528 -95.927,217.344C-95.962,217.157 -95.979,216.948 -95.979,216.719L-95.979,213.266Z" style="fill:rgb(249,248,247);fill-rule:nonzero;"/>
                <path id="path1396" d="M-87.583,218.896L-89.677,218.896L-89.677,214.948L-90.271,214.948L-90.271,213.266L-89.677,213.266L-89.677,211.61L-87.583,211.61L-87.583,213.266L-86.89,213.266L-86.89,214.948L-87.583,214.948L-87.583,218.896Z" style="fill:rgb(249,248,247);fill-rule:nonzero;"/>
                <path id="path1398" d="M-84.245,221.407L-86.333,221.407L-86.333,213.266L-84.245,213.266L-84.291,214.063C-84.205,213.896 -84.116,213.756 -84.026,213.641C-83.936,213.523 -83.838,213.427 -83.734,213.355C-83.63,213.282 -83.519,213.23 -83.401,213.198C-83.279,213.164 -83.146,213.146 -83,213.146C-82.458,213.146 -82.017,213.417 -81.677,213.959C-81.34,214.493 -81.172,215.204 -81.172,216.089C-81.172,216.988 -81.333,217.7 -81.656,218.224C-81.972,218.749 -82.408,219.011 -82.963,219.011C-83.47,219.011 -83.913,218.717 -84.291,218.131C-84.274,218.308 -84.264,218.46 -84.26,218.589C-84.25,218.721 -84.245,218.879 -84.245,219.063L-84.245,221.407ZM-83.333,216.026C-83.333,215.658 -83.377,215.374 -83.463,215.172C-83.547,214.967 -83.666,214.865 -83.823,214.865C-84.146,214.865 -84.307,215.259 -84.307,216.047C-84.307,216.853 -84.151,217.256 -83.838,217.256C-83.682,217.256 -83.559,217.148 -83.469,216.933C-83.378,216.717 -83.333,216.415 -83.333,216.026L-83.333,216.026Z" style="fill:rgb(249,248,247);fill-rule:nonzero;"/>
                <path id="path1400" d="M-80.354,213.266L-78.265,213.266L-78.265,216.438C-78.265,216.74 -78.236,216.96 -78.177,217.099C-78.114,217.214 -77.996,217.271 -77.823,217.271C-77.653,217.271 -77.538,217.214 -77.479,217.099C-77.416,216.985 -77.385,216.764 -77.385,216.438L-77.385,213.266L-75.297,213.266L-75.297,216.719C-75.297,216.948 -75.316,217.157 -75.354,217.344C-75.389,217.528 -75.446,217.697 -75.526,217.849C-75.602,217.999 -75.703,218.136 -75.828,218.261C-75.949,218.386 -76.095,218.5 -76.265,218.605C-76.724,218.875 -77.243,219.011 -77.823,219.011C-78.409,219.011 -78.929,218.875 -79.38,218.605C-79.554,218.5 -79.703,218.388 -79.828,218.266C-79.949,218.141 -80.05,218.002 -80.13,217.849C-80.206,217.697 -80.264,217.528 -80.302,217.344C-80.337,217.157 -80.354,216.948 -80.354,216.719L-80.354,213.266Z" style="fill:rgb(249,248,247);fill-rule:nonzero;"/>
                <path id="path1402" d="M-71.958,218.896L-74.052,218.896L-74.052,214.948L-74.646,214.948L-74.646,213.266L-74.052,213.266L-74.052,211.61L-71.958,211.61L-71.958,213.266L-71.265,213.266L-71.265,214.948L-71.958,214.948L-71.958,218.896Z" style="fill:rgb(249,248,247);fill-rule:nonzero;"/>
            </g>
        </g>
        <g id="text1433" transform="matrix(0.869086,0,0,1.15063,0,4)">
            <path id="path1435" d="M49.477,208.458L50.419,208.458L50.419,214.651L51.958,214.651L51.958,215.447L49.477,215.447L49.477,208.458Z" style="fill:rgb(158,161,168);fill-rule:nonzero;"/>
            <path id="path1437" d="M56.054,212.125C56.054,213.359 55.917,214.236 55.642,214.755C55.368,215.274 54.908,215.533 54.262,215.533C53.583,215.533 53.104,215.254 52.827,214.696C52.552,214.15 52.415,213.18 52.415,211.785C52.415,210.542 52.551,209.663 52.822,209.146C53.097,208.627 53.562,208.368 54.216,208.368C54.802,208.368 55.236,208.569 55.52,208.97C55.707,209.239 55.843,209.62 55.928,210.115C56.012,210.574 56.054,211.244 56.054,212.125L56.054,212.125ZM55.067,212.225C55.067,211.014 55.013,210.212 54.905,209.816C54.796,209.418 54.574,209.219 54.239,209.219C53.904,209.219 53.681,209.401 53.569,209.767C53.461,210.135 53.406,210.874 53.406,211.985C53.406,213.008 53.464,213.717 53.578,214.112C53.696,214.486 53.916,214.673 54.239,214.673C54.556,214.673 54.773,214.498 54.891,214.148C55.009,213.801 55.067,213.16 55.067,212.225L55.067,212.225Z" style="fill:rgb(158,161,168);fill-rule:nonzero;"/>
            <path id="path1439" d="M60.49,212.125C60.49,213.359 60.353,214.236 60.078,214.755C59.804,215.274 59.343,215.533 58.698,215.533C58.019,215.533 57.54,215.254 57.263,214.696C56.988,214.15 56.851,213.18 56.851,211.785C56.851,210.542 56.987,209.663 57.258,209.146C57.533,208.627 57.998,208.368 58.652,208.368C59.238,208.368 59.672,208.569 59.956,208.97C60.143,209.239 60.279,209.62 60.363,210.115C60.448,210.574 60.49,211.244 60.49,212.125L60.49,212.125ZM59.503,212.225C59.503,211.014 59.449,210.212 59.34,209.816C59.232,209.418 59.01,209.219 58.675,209.219C58.34,209.219 58.117,209.401 58.005,209.767C57.896,210.135 57.842,210.874 57.842,211.985C57.842,213.008 57.9,213.717 58.014,214.112C58.132,214.486 58.352,214.673 58.675,214.673C58.992,214.673 59.209,214.498 59.327,214.148C59.445,213.801 59.503,213.16 59.503,212.225L59.503,212.225Z" style="fill:rgb(158,161,168);fill-rule:nonzero;"/>
            <path id="path1441" d="M61.427,208.458L62.369,208.458L62.369,211.844L63.681,208.458L64.632,208.458L63.256,211.844L64.741,215.447L63.681,215.447L62.369,211.844L62.369,215.447L61.427,215.447L61.427,208.458Z" style="fill:rgb(158,161,168);fill-rule:nonzero;"/>
            <path id="path1443" d="M66.334,208.458L67.067,208.458L68.565,215.447L67.633,215.447L67.37,214.085L65.985,214.085L65.718,215.447L64.813,215.447L66.334,208.458ZM67.235,213.356L67.026,212.243C66.888,211.485 66.774,210.676 66.687,209.816C66.645,210.236 66.59,210.661 66.524,211.093C66.458,211.521 66.379,211.977 66.289,212.46L66.117,213.356L67.235,213.356Z" style="fill:rgb(158,161,168);fill-rule:nonzero;"/>
            <path id="path1445" d="M69.122,208.458L70.064,208.458L70.064,211.192L71.444,211.192L71.444,208.458L72.386,208.458L72.386,215.447L71.444,215.447L71.444,211.989L70.064,211.989L70.064,215.447L69.122,215.447L69.122,208.458Z" style="fill:rgb(158,161,168);fill-rule:nonzero;"/>
            <path id="path1447" d="M73.468,208.458L75.971,208.458L75.971,209.255L74.409,209.255L74.409,211.469L75.794,211.469L75.794,212.265L74.409,212.265L74.409,214.651L75.971,214.651L75.971,215.447L73.468,215.447L73.468,208.458Z" style="fill:rgb(158,161,168);fill-rule:nonzero;"/>
            <path id="path1449" d="M77.831,208.458L78.564,208.458L80.063,215.447L79.13,215.447L78.868,214.085L77.483,214.085L77.216,215.447L76.31,215.447L77.831,208.458ZM78.732,213.356L78.524,212.243C78.385,211.485 78.272,210.676 78.184,209.816C78.142,210.236 78.088,210.661 78.021,211.093C77.955,211.521 77.876,211.977 77.786,212.46L77.614,213.356L78.732,213.356Z" style="fill:rgb(158,161,168);fill-rule:nonzero;"/>
            <path id="path1451" d="M80.62,208.458L81.778,208.458C82.131,208.458 82.429,208.498 82.67,208.576C82.893,208.652 83.092,208.786 83.268,208.979C83.53,209.269 83.717,209.646 83.829,210.111C83.94,210.56 83.996,211.205 83.996,212.043C83.996,212.813 83.934,213.441 83.811,213.926C83.69,214.391 83.491,214.746 83.213,214.99C82.872,215.295 82.261,215.447 81.38,215.447L80.62,215.447L80.62,208.458ZM81.561,214.624C82.134,214.624 82.518,214.45 82.711,214.103C82.91,213.756 83.009,213.082 83.009,212.08C83.009,211.002 82.914,210.262 82.724,209.857C82.534,209.453 82.186,209.251 81.679,209.251L81.561,209.251L81.561,214.624Z" style="fill:rgb(158,161,168);fill-rule:nonzero;"/>
        </g>
        <g id="g1235" transform="matrix(1,0,0,1,259.042,-127.158)">
            <path id="path1161" d="M-223.526,413.017L-222.193,413.017C-221.786,413.017 -221.444,413.062 -221.167,413.153C-220.91,413.239 -220.681,413.394 -220.479,413.616C-220.177,413.949 -219.962,414.383 -219.833,414.918C-219.705,415.436 -219.641,416.177 -219.641,417.142C-219.641,418.028 -219.712,418.75 -219.854,419.309C-219.993,419.844 -220.222,420.252 -220.542,420.533C-220.934,420.883 -221.637,421.059 -222.651,421.059L-223.526,421.059L-223.526,413.017ZM-222.443,420.111C-221.783,420.111 -221.342,419.911 -221.12,419.512C-220.891,419.113 -220.776,418.337 -220.776,417.184C-220.776,415.944 -220.885,415.092 -221.104,414.627C-221.323,414.161 -221.724,413.929 -222.307,413.929L-222.443,413.929L-222.443,420.111Z" style="fill:rgb(158,161,168);fill-rule:nonzero;"/>
            <path id="path1163" d="M-218.568,413.017L-217.505,413.017L-217.505,418.7C-217.505,419.279 -217.453,419.665 -217.349,419.856C-217.241,420.047 -217.029,420.142 -216.714,420.142C-216.398,420.142 -216.189,420.059 -216.089,419.892C-215.984,419.722 -215.932,419.377 -215.932,418.856L-215.932,413.017L-214.87,413.017L-214.87,418.856C-214.87,419.731 -215.003,420.323 -215.271,420.632C-215.59,420.983 -216.078,421.158 -216.734,421.158C-217.457,421.158 -217.965,420.932 -218.26,420.481C-218.465,420.172 -218.568,419.578 -218.568,418.7L-218.568,413.017Z" style="fill:rgb(158,161,168);fill-rule:nonzero;"/>
            <path id="path1165" d="M-210.474,413.147L-210.474,414.121C-210.752,413.986 -210.984,413.918 -211.172,413.918C-211.429,413.918 -211.649,413.983 -211.833,414.111C-212.017,414.236 -212.17,414.431 -212.292,414.695C-212.41,414.959 -212.498,415.294 -212.557,415.7C-212.613,416.103 -212.641,416.58 -212.641,417.132C-212.641,419.118 -212.132,420.111 -211.115,420.111C-210.937,420.111 -210.724,420.056 -210.474,419.945L-210.474,420.939C-210.734,421.085 -211.026,421.158 -211.349,421.158C-212.977,421.158 -213.792,419.828 -213.792,417.169C-213.792,415.731 -213.594,414.662 -213.198,413.96C-212.799,413.259 -212.189,412.908 -211.37,412.908C-211.068,412.908 -210.769,412.988 -210.474,413.148L-210.474,413.147Z" style="fill:rgb(158,161,168);fill-rule:nonzero;"/>
            <path id="path1167" d="M-209.568,413.017L-208.484,413.017L-208.484,416.913L-206.974,413.017L-205.88,413.017L-207.464,416.913L-205.755,421.059L-206.974,421.059L-208.484,416.913L-208.484,421.059L-209.568,421.059L-209.568,413.017Z" style="fill:rgb(158,161,168);fill-rule:nonzero;"/>
            <rect id="path1169" x="-205.068" y="413.017" width="1.083" height="8.042" style="fill:rgb(158,161,168);fill-rule:nonzero;"/>
            <path id="path1172" d="M-202.734,413.017L-201.724,413.017L-200.646,416.226C-200.333,417.132 -200.057,418.099 -199.818,419.127C-199.904,418.505 -199.969,417.943 -200.01,417.439C-200.052,416.936 -200.073,416.462 -200.073,416.017L-200.073,413.017L-198.984,413.017L-198.984,421.059L-200,421.059L-201.214,417.439C-201.325,417.102 -201.431,416.757 -201.531,416.403C-201.628,416.049 -201.719,415.677 -201.802,415.288C-201.809,415.239 -201.821,415.18 -201.838,415.111C-201.852,415.041 -201.87,414.961 -201.89,414.871C-201.88,414.961 -201.871,415.04 -201.864,415.106C-201.857,415.168 -201.852,415.222 -201.849,415.267L-201.792,416.085L-201.734,417.079C-201.731,417.135 -201.729,417.203 -201.729,417.282C-201.725,417.362 -201.724,417.453 -201.724,417.553L-201.666,421.059L-202.734,421.059L-202.734,413.017Z" style="fill:rgb(158,161,168);fill-rule:nonzero;"/>
            <path id="path1174" d="M-195.807,416.83L-193.839,416.83L-193.839,417.142C-193.839,418.708 -193.976,419.766 -194.25,420.314C-194.521,420.877 -195.028,421.158 -195.771,421.158C-196.538,421.158 -197.085,420.845 -197.411,420.22C-197.734,419.595 -197.896,418.545 -197.896,417.069C-197.896,415.382 -197.719,414.259 -197.365,413.7C-197.031,413.175 -196.519,412.913 -195.828,412.913C-195.3,412.913 -194.889,413.04 -194.594,413.293C-194.295,413.55 -194.062,413.972 -193.896,414.559L-194.906,414.981C-194.951,414.769 -195.002,414.592 -195.057,414.45C-195.113,414.304 -195.174,414.191 -195.24,414.111C-195.371,413.948 -195.569,413.866 -195.833,413.866C-196.194,413.866 -196.441,414.088 -196.573,414.533C-196.705,414.998 -196.771,415.833 -196.771,417.038C-196.771,418.257 -196.703,419.081 -196.568,419.512C-196.432,419.942 -196.177,420.158 -195.802,420.158C-195.458,420.158 -195.217,420.005 -195.078,419.699C-194.936,419.373 -194.865,418.849 -194.865,418.126L-194.865,417.908L-194.865,417.746L-195.807,417.746L-195.807,416.83Z" style="fill:rgb(158,161,168);fill-rule:nonzero;"/>
        </g>
        <g id="text1226" transform="matrix(0.834041,0,0,1.13903,10.7571,-2.00007)">
            <path id="path1282" d="M112.995,252.81L113.915,252.81L114.395,256.088L114.472,256.573C114.509,256.835 114.536,257.074 114.555,257.291L114.605,257.89C114.608,257.905 114.611,257.932 114.614,257.972C114.617,258.012 114.622,258.062 114.628,258.123L114.65,257.894C114.687,257.495 114.725,257.128 114.765,256.792C114.807,256.457 114.853,256.148 114.902,255.864L115.409,252.81L116.141,252.81L116.617,255.777C116.687,256.216 116.745,256.623 116.79,256.998C116.839,257.373 116.879,257.731 116.909,258.073C116.94,257.713 116.973,257.365 117.01,257.03C117.05,256.695 117.091,256.366 117.133,256.042L117.202,255.571L117.609,252.81L118.519,252.81L117.271,259.87L116.53,259.87L116.031,256.82C116.028,256.808 116.021,256.757 116.009,256.669C115.997,256.58 115.978,256.454 115.954,256.289L115.858,255.585C115.852,255.53 115.841,255.448 115.826,255.338C115.814,255.229 115.8,255.09 115.785,254.922L115.762,254.629C115.756,254.7 115.75,254.761 115.744,254.812C115.738,254.864 115.733,254.907 115.73,254.94C115.715,255.142 115.701,255.299 115.689,255.411C115.68,255.521 115.674,255.588 115.671,255.613L115.575,256.289C115.553,256.445 115.537,256.567 115.524,256.655C115.512,256.744 115.503,256.798 115.497,256.82L114.98,259.87L114.217,259.87L112.995,252.81Z" style="fill:rgb(158,161,168);fill-rule:nonzero;"/>
            <path id="path1284" d="M119.928,252.81L120.668,252.81L122.182,259.87L121.24,259.87L120.975,258.493L119.575,258.493L119.306,259.87L118.391,259.87L119.928,252.81ZM120.837,257.757L120.627,256.632C120.487,255.867 120.373,255.05 120.284,254.181C120.241,254.605 120.187,255.035 120.12,255.471C120.053,255.904 119.973,256.364 119.882,256.852L119.708,257.757L120.837,257.757Z" style="fill:rgb(158,161,168);fill-rule:nonzero;"/>
            <path id="path1286" d="M122.744,252.81L123.695,252.81L123.695,259.065L125.25,259.065L125.25,259.87L122.744,259.87L122.744,252.81Z" style="fill:rgb(158,161,168);fill-rule:nonzero;"/>
            <path id="path1288" d="M125.854,252.81L126.805,252.81L126.805,259.065L128.359,259.065L128.359,259.87L125.854,259.87L125.854,252.81Z" style="fill:rgb(158,161,168);fill-rule:nonzero;"/>
            <path id="path1290" d="M128.963,252.81L131.492,252.81L131.492,253.614L129.914,253.614L129.914,255.85L131.313,255.85L131.313,256.655L129.914,256.655L129.914,259.065L131.492,259.065L131.492,259.87L128.963,259.87L128.963,252.81Z" style="fill:rgb(158,161,168);fill-rule:nonzero;"/>
            <path id="path1300" d="M132.365,252.81L133.536,252.81C133.892,252.81 134.192,252.849 134.436,252.928C134.662,253.005 134.863,253.14 135.04,253.335C135.305,253.628 135.494,254.009 135.607,254.479C135.72,254.933 135.776,255.584 135.776,256.431C135.776,257.208 135.714,257.842 135.589,258.333C135.467,258.803 135.266,259.161 134.985,259.408C134.641,259.716 134.023,259.87 133.133,259.87L132.365,259.87L132.365,252.81ZM133.316,259.037C133.895,259.037 134.282,258.862 134.478,258.512C134.679,258.161 134.779,257.48 134.779,256.468C134.779,255.379 134.683,254.631 134.491,254.222C134.299,253.814 133.947,253.61 133.435,253.61L133.316,253.61L133.316,259.037Z" style="fill:rgb(158,161,168);fill-rule:nonzero;"/>
        </g>
        <g id="g1280" transform="matrix(1,0,0,1,191.089,-126)">
            <path id="path1237" d="M-151.187,431.958L-150.104,431.958L-150.104,439.083L-148.333,439.083L-148.333,440L-151.187,440L-151.187,431.958Z" style="fill:rgb(158,161,168);fill-rule:nonzero;"/>
            <rect id="path1239" x="-147.646" y="431.958" width="1.083" height="8.042" style="fill:rgb(158,161,168);fill-rule:nonzero;"/>
            <path id="path1242" d="M-144.932,431.958L-144.005,431.958L-143.297,435.24C-143.21,435.649 -143.132,436.061 -143.062,436.474C-142.989,436.884 -142.923,437.314 -142.864,437.766C-142.857,437.707 -142.852,437.662 -142.849,437.63C-142.845,437.596 -142.842,437.571 -142.838,437.557L-142.687,436.636L-142.552,435.761L-142.432,435.182L-141.802,431.958L-140.864,431.958L-140.125,440L-141.161,440L-141.344,437.271C-141.351,437.132 -141.357,437.012 -141.364,436.911C-141.368,436.811 -141.37,436.727 -141.37,436.662L-141.416,435.584L-141.443,434.594C-141.443,434.586 -141.444,434.573 -141.448,434.552C-141.448,434.527 -141.45,434.496 -141.453,434.459L-141.479,434.62C-141.507,434.811 -141.533,434.978 -141.557,435.12C-141.578,435.262 -141.597,435.382 -141.615,435.479L-141.75,436.214L-141.802,436.49L-142.479,440L-143.208,440L-143.844,436.969C-143.931,436.57 -144.009,436.165 -144.078,435.755C-144.144,435.342 -144.205,434.91 -144.26,434.458L-144.573,440L-145.594,440L-144.932,431.958Z" style="fill:rgb(158,161,168);fill-rule:nonzero;"/>
            <rect id="path1244" x="-139.229" y="431.958" width="1.083" height="8.042" style="fill:rgb(158,161,168);fill-rule:nonzero;"/>
            <path id="path1246" d="M-137.536,431.958L-134.01,431.958L-134.01,432.906L-135.224,432.906L-135.224,440L-136.286,440L-136.286,432.906L-137.536,432.906L-137.536,431.958Z" style="fill:rgb(158,161,168);fill-rule:nonzero;"/>
            <path id="path1248" d="M-133.416,431.958L-130.536,431.958L-130.536,432.875L-132.333,432.875L-132.333,435.422L-130.739,435.422L-130.739,436.339L-132.333,436.339L-132.333,439.083L-130.536,439.083L-130.536,440L-133.416,440L-133.416,431.958Z" style="fill:rgb(158,161,168);fill-rule:nonzero;"/>
            <path id="path1250" d="M-129.541,431.958L-128.114,431.958C-127.524,431.958 -127.085,432.099 -126.797,432.38C-126.432,432.745 -126.25,433.302 -126.25,434.052C-126.25,434.628 -126.347,435.092 -126.541,435.443C-126.732,435.79 -127.007,436.005 -127.364,436.089L-125.885,440L-126.984,440L-128.458,436.062L-128.458,440L-129.541,440L-129.541,431.958ZM-128.458,435.521C-128.038,435.521 -127.741,435.424 -127.567,435.229C-127.394,435.035 -127.307,434.706 -127.307,434.245C-127.307,433.995 -127.326,433.781 -127.364,433.604C-127.399,433.427 -127.456,433.283 -127.536,433.172C-127.613,433.061 -127.713,432.979 -127.838,432.927C-127.96,432.875 -128.106,432.849 -128.276,432.849L-128.458,432.849L-128.458,435.521Z" style="fill:rgb(158,161,168);fill-rule:nonzero;"/>
        </g>
    </g>
</svg>
