<?xml version="1.0" encoding="UTF-8" standalone="no"?>
<!DOCTYPE svg PUBLIC "-//W3C//DTD SVG 1.1//EN" "http://www.w3.org/Graphics/SVG/1.1/DTD/svg11.dtd">
<svg width="100%" height="100%" viewBox="0 0 840 380" version="1.1" xmlns="http://www.w3.org/2000/svg" xmlns:xlink="http://www.w3.org/1999/xlink" xml:space="preserve" xmlns:serif="http://www.serif.com/" style="fill-rule:evenodd;clip-rule:evenodd;stroke-linejoin:round;stroke-miterlimit:2;">
    <g id="Layer-2" serif:id="Layer 2">
        <g id="text989">
        </g>
        <rect id="rect4689" x="0" y="0" width="840" height="380" style="fill-rule:nonzero;"/>
        <g id="text4987">
        </g>
        <g id="text1042">
        </g>
        <g id="text2090">
        </g>
        <g id="g895" transform="matrix(1,0,0,1,376.437,0)">
            <path id="path1317" d="M28.102,377.859L28.102,369.818L30.174,369.818L31.263,372.641C31.322,372.807 31.388,372.998 31.461,373.214C31.537,373.429 31.621,373.677 31.711,373.958L31.935,374.667C31.855,373.969 31.794,373.372 31.753,372.875C31.711,372.378 31.69,371.962 31.69,371.625L31.69,369.818L33.763,369.818L33.763,377.859L31.69,377.859L30.596,374.901C30.482,374.585 30.378,374.29 30.284,374.016C30.194,373.738 30.114,373.474 30.044,373.224C30.089,373.79 30.122,374.283 30.143,374.703C30.164,375.123 30.175,375.491 30.175,375.807L30.175,377.859L28.102,377.859Z" style="fill:rgb(230,230,230);fill-rule:nonzero;"/>
            <path id="path1319" d="M38.497,377.859L36.326,377.859L36.326,374.453L34.331,369.818L36.596,369.818L36.987,371.01C37.063,371.243 37.131,371.467 37.19,371.682C37.253,371.898 37.308,372.104 37.357,372.302C37.437,372.007 37.506,371.753 37.565,371.542C37.624,371.326 37.676,371.153 37.721,371.021L38.117,369.818L40.367,369.818L38.497,374.453L38.497,377.859Z" style="fill:rgb(230,230,230);fill-rule:nonzero;"/>
            <path id="path1321" d="M40.576,377.661L40.576,375.135C41.003,375.719 41.464,376.01 41.961,376.01C42.148,376.01 42.301,375.962 42.419,375.865C42.537,375.764 42.596,375.639 42.596,375.49C42.596,375.274 42.468,375.064 42.211,374.859L41.857,374.583C41.621,374.406 41.419,374.231 41.253,374.057C41.086,373.88 40.95,373.7 40.846,373.516C40.742,373.328 40.666,373.135 40.617,372.937C40.569,372.74 40.544,372.531 40.544,372.312C40.544,371.937 40.631,371.545 40.805,371.135C40.891,370.944 40.992,370.771 41.107,370.615C41.221,370.455 41.353,370.314 41.503,370.193C41.912,369.845 42.407,369.672 42.987,369.672C43.504,369.672 44.025,369.809 44.55,370.083L44.55,372.542C44.372,372.267 44.171,372.052 43.945,371.896C43.72,371.736 43.497,371.656 43.279,371.656C43.112,371.656 42.975,371.705 42.867,371.802C42.756,371.896 42.701,372.009 42.701,372.141C42.701,372.356 42.848,372.569 43.143,372.781L43.487,373.036C43.945,373.366 44.273,373.705 44.471,374.052C44.673,374.399 44.773,374.806 44.773,375.271C44.773,376.062 44.532,376.715 44.049,377.229C43.567,377.743 42.956,378 42.216,378C41.706,378 41.159,377.887 40.576,377.661L40.576,377.661Z" style="fill:rgb(230,230,230);fill-rule:nonzero;"/>
            <path id="path1323" d="M48.534,377.859L46.362,377.859L46.362,371.745L45.164,371.745L45.164,369.818L49.779,369.818L49.779,371.745L48.534,371.745L48.534,377.859Z" style="fill:rgb(230,230,230);fill-rule:nonzero;"/>
            <path id="path1325" d="M55.732,377.859L53.56,377.859L53.56,374.625L52.523,374.625L52.523,377.859L50.352,377.859L50.352,369.818L52.523,369.818L52.523,372.661L53.56,372.661L53.56,369.818L55.732,369.818L55.732,377.859Z" style="fill:rgb(230,230,230);fill-rule:nonzero;"/>
            <rect id="path1327" x="56.852" y="369.818" width="2.172" height="8.042" style="fill:rgb(230,230,230);fill-rule:nonzero;"/>
        </g>
        <g id="text884" transform="matrix(1,0,0,1,52.5,0)">
            <path id="path964" d="M296.772,20L296.772,1.906L305.854,1.906L305.854,6.16L301.658,6.16L301.658,8.797L305.42,8.797L305.42,12.887L301.658,12.887L301.658,15.652L305.854,15.652L305.854,20L296.772,20Z" style="fill:rgb(197,200,209);fill-rule:nonzero;"/>
            <path id="path966" d="M320.689,20L315.264,20L314.361,17.422C314.072,16.633 313.838,15.875 313.658,15.148C313.486,15.867 313.229,16.691 312.885,17.621L311.982,20L306.662,20L311.057,10.613L306.908,1.906L312.346,1.906L313.154,4.355C313.24,4.582 313.322,4.848 313.4,5.152C313.486,5.457 313.572,5.801 313.658,6.184C313.854,5.402 314.018,4.801 314.15,4.379L314.9,1.906L320.373,1.906L316.248,10.613L320.689,20Z" style="fill:rgb(197,200,209);fill-rule:nonzero;"/>
            <path id="path968" d="M326.83,20L321.943,20L321.943,1.906L326.678,1.906C329.037,1.906 330.787,2.387 331.928,3.348C333.271,4.48 333.943,6.055 333.943,8.07C333.943,10.266 333.229,11.902 331.799,12.98C330.822,13.707 329.42,14.07 327.592,14.07L326.83,14.07L326.83,20ZM326.83,10.004L327.053,10.016C327.646,10.016 328.119,9.836 328.471,9.477C328.822,9.109 328.998,8.609 328.998,7.977C328.998,7.352 328.826,6.844 328.482,6.453C328.139,6.055 327.701,5.855 327.17,5.855L326.83,5.855L326.83,10.004Z" style="fill:rgb(197,200,209);fill-rule:nonzero;"/>
            <rect id="path970" x="335.678" y="1.906" width="4.887" height="18.094" style="fill:rgb(197,200,209);fill-rule:nonzero;"/>
            <path id="path972" d="M355.951,20L350.666,20L348.252,13.555C348.229,13.445 348.186,13.301 348.123,13.121C348.068,12.941 347.998,12.727 347.912,12.477L347.947,13.672L347.947,20L343.084,20L343.084,1.906L348.088,1.906C350.291,1.906 351.939,2.34 353.033,3.207C354.424,4.316 355.119,5.895 355.119,7.941C355.119,10.129 354.186,11.641 352.318,12.477L355.951,20ZM347.971,10.285L348.299,10.285C348.861,10.285 349.33,10.07 349.705,9.641C350.08,9.211 350.268,8.664 350.268,8C350.268,6.648 349.561,5.973 348.147,5.973L347.971,5.973L347.971,10.285Z" style="fill:rgb(197,200,209);fill-rule:nonzero;"/>
            <path id="path974" d="M357.568,20L357.568,1.906L366.65,1.906L366.65,6.16L362.455,6.16L362.455,8.797L366.217,8.797L366.217,12.887L362.455,12.887L362.455,15.652L366.65,15.652L366.65,20L357.568,20Z" style="fill:rgb(197,200,209);fill-rule:nonzero;"/>
            <path id="path976" d="M368.725,20L368.725,1.906L372.943,1.906C375.357,1.906 377.236,2.555 378.58,3.852C380.346,5.547 381.229,7.918 381.229,10.965C381.229,13.965 380.482,16.281 378.99,17.914C377.717,19.305 375.818,20 373.295,20L368.725,20ZM373.611,15.629C375.361,15.543 376.236,14.035 376.236,11.105C376.236,9.66 376.014,8.52 375.568,7.684C375.123,6.84 374.521,6.418 373.764,6.418L373.611,6.418L373.611,15.629Z" style="fill:rgb(197,200,209);fill-rule:nonzero;"/>
            <path id="path978" d="M396.838,20L391.951,20L391.951,6.242L389.256,6.242L389.256,1.906L399.639,1.906L399.639,6.242L396.838,6.242L396.838,20Z" style="fill:rgb(197,200,209);fill-rule:nonzero;"/>
            <rect id="path980" x="400.928" y="1.906" width="4.887" height="18.094" style="fill:rgb(197,200,209);fill-rule:nonzero;"/>
            <path id="path982" d="M426.955,20L421.846,20L421.483,11.75L421.33,8.457C421.276,9.09 421.213,9.695 421.143,10.273C421.072,10.844 420.987,11.398 420.885,11.938L419.35,20L415.365,20L414.053,11.926C413.975,11.457 413.869,10.652 413.737,9.512C413.721,9.34 413.686,8.988 413.631,8.457L413.514,11.797L413.08,20L407.877,20L409.987,1.906L416.069,1.906L417.088,8C417.174,8.5 417.248,9.043 417.311,9.629C417.381,10.215 417.444,10.852 417.498,11.539C417.6,10.391 417.74,9.363 417.92,8.457L419.162,1.906L425.197,1.906L426.955,20Z" style="fill:rgb(197,200,209);fill-rule:nonzero;"/>
            <path id="path984" d="M429.146,20L429.146,1.906L438.229,1.906L438.229,6.16L434.033,6.16L434.033,8.797L437.795,8.797L437.795,12.887L434.033,12.887L434.033,15.652L438.229,15.652L438.229,20L429.146,20Z" style="fill:rgb(197,200,209);fill-rule:nonzero;"/>
        </g>
        <rect id="rect1098" x="10" y="280" width="820" height="135.769" style="fill:rgb(35,35,35);"/>
        <g id="text911" transform="matrix(0.986915,0,0,1.01326,60,30)">
            <path id="path951" d="M54.501,276.336L49.517,276.336L49.158,274.069L45.908,274.069L45.515,276.336L40.53,276.336L44.821,258.479L50.719,258.479L54.501,276.336ZM48.591,270.241L48.279,268.159C48.271,268.152 48.256,268.048 48.233,267.847C48.218,267.678 48.137,267.007 47.99,265.835C47.975,265.704 47.955,265.526 47.932,265.303C47.909,265.072 47.878,264.782 47.84,264.435L47.689,262.747C47.674,262.909 47.651,263.09 47.62,263.29C47.597,263.491 47.57,263.711 47.539,263.95C47.485,264.428 47.446,264.759 47.423,264.944C47.4,265.129 47.385,265.241 47.377,265.28L47.042,267.442L46.556,270.241L48.591,270.241Z" style="fill:rgb(158,161,168);fill-rule:nonzero;"/>
            <path id="path953" d="M64.332,276.336L55.889,276.336L55.889,258.479L60.712,258.479L60.712,272.045L64.332,272.045L64.332,276.336Z" style="fill:rgb(158,161,168);fill-rule:nonzero;"/>
            <path id="path955" d="M79.298,276.336L74.313,276.336L73.954,274.069L70.705,274.069L70.311,276.336L65.327,276.336L69.617,258.479L75.516,258.479L79.298,276.336ZM73.388,270.241L73.075,268.159C73.068,268.152 73.052,268.048 73.029,267.847C73.014,267.678 72.933,267.007 72.786,265.835C72.771,265.704 72.752,265.526 72.728,265.303C72.705,265.072 72.674,264.782 72.636,264.435L72.486,262.747C72.47,262.909 72.447,263.09 72.416,263.29C72.393,263.491 72.366,263.711 72.335,263.95C72.281,264.428 72.243,264.759 72.22,264.944C72.196,265.129 72.181,265.241 72.173,265.28L71.838,267.442L71.352,270.241L73.388,270.241Z" style="fill:rgb(158,161,168);fill-rule:nonzero;"/>
            <path id="path957" d="M93.384,276.336L88.168,276.336L85.786,269.975C85.763,269.867 85.72,269.725 85.659,269.547C85.605,269.37 85.535,269.158 85.45,268.911L85.485,270.091L85.485,276.336L80.686,276.336L80.686,258.479L85.624,258.479C87.798,258.479 89.425,258.907 90.505,259.763C91.877,260.858 92.563,262.415 92.563,264.435C92.563,266.594 91.642,268.086 89.799,268.911L93.384,276.336ZM85.508,266.748L85.832,266.748C86.387,266.748 86.85,266.536 87.22,266.112C87.59,265.688 87.775,265.149 87.775,264.493C87.775,263.159 87.077,262.492 85.682,262.492L85.508,262.492L85.508,266.748Z" style="fill:rgb(158,161,168);fill-rule:nonzero;"/>
            <path id="path959" d="M113.358,276.336L108.315,276.336L107.957,268.194L107.806,264.944C107.752,265.569 107.691,266.166 107.621,266.737C107.552,267.3 107.467,267.847 107.367,268.379L105.852,276.336L101.92,276.336L100.624,268.368C100.547,267.905 100.443,267.111 100.312,265.985C100.297,265.816 100.262,265.469 100.208,264.944L100.092,268.24L99.664,276.336L94.529,276.336L96.611,258.479L102.613,258.479L103.62,264.493C103.704,264.987 103.778,265.523 103.839,266.101C103.909,266.679 103.97,267.307 104.024,267.986C104.125,266.853 104.263,265.839 104.441,264.944L105.667,258.479L111.623,258.479L113.358,276.336Z" style="fill:rgb(158,161,168);fill-rule:nonzero;"/>
            <path id="path961" d="M131.724,276.336L126.901,276.336L126.901,262.677L124.969,262.677L124.969,258.479L131.724,258.479L131.724,276.336Z" style="fill:rgb(158,161,168);fill-rule:nonzero;"/>
        </g>
        <g id="text915" transform="matrix(0.971274,0,0,1.02958,54.9297,30)">
            <path id="path938" d="M343.286,271.957L338.38,271.957L338.028,269.726L334.829,269.726L334.442,271.957L329.537,271.957L333.759,254.383L339.564,254.383L343.286,271.957ZM337.47,265.958L337.163,263.91C337.155,263.902 337.14,263.8 337.117,263.602C337.102,263.435 337.022,262.775 336.878,261.622C336.863,261.493 336.844,261.318 336.821,261.098C336.798,260.871 336.768,260.586 336.73,260.245L336.582,258.583C336.567,258.742 336.544,258.92 336.514,259.118C336.491,259.315 336.465,259.531 336.434,259.766C336.381,260.237 336.343,260.563 336.32,260.745C336.298,260.927 336.282,261.037 336.275,261.075L335.945,263.204L335.467,265.958L337.47,265.958Z" style="fill:rgb(158,161,168);fill-rule:nonzero;"/>
            <path id="path940" d="M352.961,271.957L344.652,271.957L344.652,254.383L349.398,254.383L349.398,267.734L352.961,267.734L352.961,271.957Z" style="fill:rgb(158,161,168);fill-rule:nonzero;"/>
            <path id="path942" d="M367.689,271.957L362.784,271.957L362.431,269.726L359.233,269.726L358.846,271.957L353.94,271.957L358.163,254.383L363.967,254.383L367.689,271.957ZM361.873,265.958L361.566,263.91C361.558,263.902 361.543,263.8 361.52,263.602C361.505,263.435 361.426,262.775 361.281,261.622C361.266,261.493 361.247,261.318 361.224,261.098C361.202,260.871 361.171,260.586 361.133,260.245L360.985,258.583C360.97,258.742 360.947,258.92 360.917,259.118C360.894,259.315 360.868,259.531 360.837,259.766C360.784,260.237 360.746,260.563 360.724,260.745C360.701,260.927 360.686,261.037 360.678,261.075L360.348,263.204L359.87,265.958L361.873,265.958Z" style="fill:rgb(158,161,168);fill-rule:nonzero;"/>
            <path id="path944" d="M381.553,271.957L376.42,271.957L374.075,265.697C374.052,265.59 374.01,265.45 373.95,265.275C373.896,265.101 373.828,264.892 373.745,264.649L373.779,265.81L373.779,271.957L369.055,271.957L369.055,254.383L373.915,254.383C376.055,254.383 377.656,254.804 378.719,255.646C380.069,256.724 380.745,258.256 380.745,260.245C380.745,262.369 379.838,263.837 378.024,264.649L381.553,271.957ZM373.802,262.521L374.12,262.521C374.667,262.521 375.122,262.312 375.486,261.895C375.85,261.478 376.033,260.946 376.033,260.301C376.033,258.989 375.346,258.332 373.972,258.332L373.802,258.332L373.802,262.521Z" style="fill:rgb(158,161,168);fill-rule:nonzero;"/>
            <path id="path946" d="M401.21,271.957L396.247,271.957L395.894,263.944L395.746,260.745C395.693,261.36 395.633,261.948 395.564,262.51C395.496,263.063 395.413,263.602 395.314,264.126L393.823,271.957L389.953,271.957L388.678,264.114C388.602,263.659 388.5,262.878 388.371,261.77C388.356,261.603 388.322,261.261 388.269,260.745L388.155,263.989L387.734,271.957L382.68,271.957L384.729,254.383L390.636,254.383L391.626,260.301C391.71,260.787 391.782,261.314 391.843,261.884C391.911,262.453 391.972,263.071 392.025,263.739C392.123,262.623 392.26,261.626 392.434,260.745L393.641,254.383L399.503,254.383L401.21,271.957Z" style="fill:rgb(158,161,168);fill-rule:nonzero;"/>
            <path id="path948" d="M421.971,271.957L409.872,271.957L414.675,265.549C415.221,264.82 415.68,264.171 416.052,263.602C416.424,263.026 416.716,262.517 416.928,262.077C417.346,261.25 417.554,260.4 417.554,259.527C417.554,259.049 417.456,258.67 417.259,258.389C417.061,258.108 416.792,257.968 416.45,257.968C415.692,257.968 415.312,258.681 415.312,260.108L415.312,260.381C415.32,260.487 415.327,260.613 415.335,260.757L410.725,260.757L410.702,260.119C410.702,258.351 411.249,256.902 412.342,255.771C413.442,254.633 414.849,254.064 416.564,254.064C418.218,254.064 419.569,254.603 420.616,255.68C421.671,256.735 422.198,258.112 422.198,259.812C422.198,261.178 421.838,262.506 421.117,263.796C420.753,264.441 420.279,265.12 419.694,265.833C419.118,266.539 418.416,267.282 417.589,268.064C418.302,268.011 419.019,267.973 419.74,267.95C420.468,267.928 421.212,267.916 421.971,267.916L421.971,271.957Z" style="fill:rgb(158,161,168);fill-rule:nonzero;"/>
        </g>
        <g id="text919" transform="matrix(0.972889,0,0,1.02787,49.8593,30)">
            <path id="path925" d="M630.637,272.101L625.723,272.101L625.37,269.866L622.166,269.866L621.779,272.101L616.865,272.101L621.095,254.498L626.909,254.498L630.637,272.101ZM624.811,266.093L624.504,264.04C624.496,264.033 624.481,263.93 624.458,263.733C624.443,263.565 624.363,262.904 624.219,261.749C624.203,261.62 624.184,261.445 624.161,261.224C624.139,260.996 624.108,260.711 624.07,260.369L623.922,258.705C623.907,258.864 623.884,259.043 623.854,259.241C623.831,259.438 623.805,259.655 623.774,259.89C623.721,260.362 623.683,260.689 623.66,260.871C623.637,261.053 623.622,261.164 623.614,261.202L623.284,263.334L622.805,266.093L624.811,266.093Z" style="fill:rgb(158,161,168);fill-rule:nonzero;"/>
            <path id="path927" d="M640.328,272.101L632.005,272.101L632.005,254.498L636.759,254.498L636.759,267.871L640.328,267.871L640.328,272.101Z" style="fill:rgb(158,161,168);fill-rule:nonzero;"/>
            <path id="path929" d="M655.081,272.101L650.167,272.101L649.814,269.866L646.61,269.866L646.222,272.101L641.309,272.101L645.538,254.498L651.353,254.498L655.081,272.101ZM649.255,266.093L648.947,264.04C648.94,264.033 648.925,263.93 648.902,263.733C648.887,263.565 648.807,262.904 648.662,261.749C648.647,261.62 648.628,261.445 648.605,261.224C648.583,260.996 648.552,260.711 648.514,260.369L648.366,258.705C648.351,258.864 648.328,259.043 648.298,259.241C648.275,259.438 648.248,259.655 648.218,259.89C648.165,260.362 648.127,260.689 648.104,260.871C648.081,261.053 648.066,261.164 648.058,261.202L647.727,263.334L647.249,266.093L649.255,266.093Z" style="fill:rgb(158,161,168);fill-rule:nonzero;"/>
            <path id="path931" d="M668.967,272.101L663.826,272.101L661.477,265.83C661.454,265.724 661.412,265.583 661.351,265.409C661.298,265.234 661.23,265.025 661.146,264.782L661.18,265.944L661.18,272.101L656.449,272.101L656.449,254.498L661.317,254.498C663.46,254.498 665.064,254.92 666.128,255.763C667.481,256.843 668.158,258.378 668.158,260.369C668.158,262.497 667.249,263.968 665.433,264.782L668.967,272.101ZM661.203,262.65L661.523,262.65C662.07,262.65 662.526,262.44 662.891,262.022C663.256,261.604 663.438,261.072 663.438,260.426C663.438,259.111 662.75,258.454 661.374,258.454L661.203,258.454L661.203,262.65Z" style="fill:rgb(158,161,168);fill-rule:nonzero;"/>
            <path id="path933" d="M688.657,272.101L683.686,272.101L683.333,264.075L683.185,260.871C683.131,261.487 683.071,262.076 683.002,262.638C682.934,263.193 682.85,263.733 682.751,264.257L681.258,272.101L677.381,272.101L676.104,264.246C676.028,263.79 675.926,263.007 675.797,261.897C675.782,261.73 675.747,261.388 675.694,260.871L675.58,264.12L675.158,272.101L670.096,272.101L672.148,254.498L678.065,254.498L679.057,260.426C679.141,260.913 679.213,261.441 679.274,262.011C679.342,262.581 679.403,263.201 679.456,263.869C679.555,262.752 679.692,261.753 679.867,260.871L681.075,254.498L686.947,254.498L688.657,272.101Z" style="fill:rgb(158,161,168);fill-rule:nonzero;"/>
            <path id="path935" d="M697.618,266.925L702.258,266.925C702.258,267.981 702.646,268.51 703.421,268.51C703.809,268.51 704.124,268.361 704.368,268.065C704.611,267.761 704.732,267.366 704.732,266.879C704.732,265.64 704.086,265.021 702.794,265.021C702.703,265.021 702.589,265.028 702.452,265.044C702.315,265.051 702.159,265.063 701.985,265.078L701.985,261.327C702.114,261.334 702.224,261.342 702.315,261.349L702.555,261.349C703.855,261.349 704.505,260.753 704.505,259.559C704.505,258.587 704.166,258.1 703.49,258.1C702.958,258.1 702.654,258.491 702.578,259.274L702.555,259.514L697.961,259.514C698.09,257.872 698.664,256.576 699.682,255.626C700.693,254.661 702.019,254.178 703.661,254.178C705.227,254.178 706.526,254.672 707.56,255.66C708.617,256.641 709.145,257.853 709.145,259.297C709.145,260.916 708.434,262.151 707.013,263.003C708.586,263.907 709.373,265.268 709.373,267.084C709.373,268.657 708.814,269.938 707.697,270.926C706.595,271.914 705.162,272.408 703.399,272.408C701.673,272.408 700.283,271.926 699.226,270.96C698.154,269.995 697.618,268.737 697.618,267.187L697.618,266.925Z" style="fill:rgb(158,161,168);fill-rule:nonzero;"/>
        </g>
        <rect id="rect1096" x="-40" y="-40" width="310" height="140" style="fill:rgb(35,35,35);"/>
        <g id="text990" transform="matrix(0.978703,0,0,1.09056,0,-3.03002)">
            <path id="path1007" d="M10.286,43.296L10.286,37.734C11.227,39.018 12.244,39.66 13.337,39.66C13.75,39.66 14.087,39.553 14.347,39.339C14.606,39.118 14.736,38.842 14.736,38.513C14.736,38.039 14.454,37.577 13.888,37.126L13.108,36.518C12.588,36.128 12.144,35.742 11.777,35.359C11.41,34.97 11.112,34.572 10.883,34.167C10.653,33.754 10.485,33.329 10.378,32.894C10.271,32.458 10.218,31.999 10.218,31.517C10.218,30.692 10.409,29.828 10.791,28.925C10.982,28.505 11.204,28.122 11.456,27.778C11.709,27.427 11.999,27.117 12.328,26.849C13.23,26.085 14.32,25.702 15.597,25.702C16.736,25.702 17.883,26.004 19.037,26.608L19.037,32.022C18.647,31.418 18.204,30.944 17.707,30.6C17.21,30.248 16.721,30.072 16.239,30.072C15.872,30.072 15.57,30.179 15.333,30.393C15.088,30.6 14.966,30.848 14.966,31.139C14.966,31.613 15.291,32.083 15.941,32.55L16.698,33.112C17.707,33.838 18.43,34.583 18.865,35.348C19.309,36.113 19.531,37.007 19.531,38.032C19.531,39.775 18.999,41.213 17.936,42.344C16.874,43.476 15.528,44.042 13.899,44.042C12.775,44.042 11.571,43.793 10.286,43.296Z" style="fill:rgb(158,161,168);fill-rule:nonzero;"/>
            <path id="path1009" d="M27.811,43.732L23.029,43.732L23.029,30.267L20.391,30.267L20.391,26.024L30.552,26.024L30.552,30.267L27.811,30.267L27.811,43.732Z" style="fill:rgb(158,161,168);fill-rule:nonzero;"/>
            <path id="path1011" d="M44.155,43.732L39.212,43.732L38.856,41.484L35.633,41.484L35.243,43.732L30.3,43.732L34.555,26.024L40.404,26.024L44.155,43.732ZM38.294,37.688L37.984,35.623C37.977,35.616 37.962,35.512 37.939,35.314C37.923,35.145 37.843,34.48 37.698,33.318C37.682,33.188 37.663,33.012 37.64,32.79C37.617,32.561 37.587,32.274 37.549,31.93L37.4,30.256C37.384,30.416 37.361,30.596 37.331,30.795C37.308,30.994 37.281,31.211 37.25,31.448C37.197,31.923 37.159,32.251 37.136,32.435C37.113,32.618 37.098,32.729 37.09,32.767L36.757,34.912L36.276,37.688L38.294,37.688Z" style="fill:rgb(158,161,168);fill-rule:nonzero;"/>
            <path id="path1013" d="M58.124,43.732L52.952,43.732L50.589,37.424C50.566,37.317 50.524,37.175 50.463,37C50.409,36.824 50.341,36.613 50.257,36.369L50.291,37.539L50.291,43.732L45.531,43.732L45.531,26.024L50.429,26.024C52.585,26.024 54.198,26.448 55.269,27.297C56.63,28.382 57.31,29.927 57.31,31.93C57.31,34.071 56.396,35.551 54.569,36.369L58.124,43.732ZM50.314,34.224L50.635,34.224C51.186,34.224 51.644,34.014 52.011,33.593C52.378,33.173 52.562,32.637 52.562,31.988C52.562,30.665 51.87,30.003 50.486,30.003L50.314,30.003L50.314,34.224Z" style="fill:rgb(158,161,168);fill-rule:nonzero;"/>
            <path id="path1015" d="M66.073,43.732L61.29,43.732L61.29,30.267L58.652,30.267L58.652,26.024L68.814,26.024L68.814,30.267L66.073,30.267L66.073,43.732Z" style="fill:rgb(158,161,168);fill-rule:nonzero;"/>
            <rect id="path1017" x="69.066" y="35.589" width="5.758" height="3.544" style="fill:rgb(158,161,168);fill-rule:nonzero;"/>
            <path id="path1019" d="M86.04,38.284L85.765,43.399C84.702,43.828 83.75,44.042 82.909,44.042C80.929,44.042 79.262,43.315 77.909,41.862C76.395,40.234 75.638,37.929 75.638,34.947C75.638,32.156 76.349,29.915 77.771,28.226C79.193,26.543 81.093,25.702 83.471,25.702C84.244,25.702 85.031,25.848 85.834,26.138L85.834,31.196C85.123,30.485 84.393,30.13 83.643,30.13C82.665,30.13 81.9,30.546 81.349,31.38C80.799,32.221 80.524,33.383 80.524,34.866C80.524,35.585 80.592,36.227 80.73,36.793C80.868,37.359 81.063,37.837 81.315,38.227C81.575,38.617 81.892,38.915 82.267,39.121C82.642,39.328 83.07,39.431 83.552,39.431C84.377,39.431 85.207,39.049 86.04,38.284L86.04,38.284Z" style="fill:rgb(158,161,168);fill-rule:nonzero;"/>
            <path id="path1021" d="M100.939,34.935C100.939,37.634 100.323,39.829 99.092,41.518C97.869,43.201 96.275,44.042 94.31,44.042C92.566,44.042 91.071,43.396 89.825,42.103C88.258,40.467 87.474,38.013 87.474,34.74C87.474,31.605 88.292,29.208 89.928,27.549C91.144,26.318 92.585,25.702 94.252,25.702C96.294,25.702 97.919,26.536 99.127,28.203C100.335,29.87 100.939,32.114 100.939,34.935ZM95.973,34.97C95.973,31.766 95.407,30.164 94.275,30.164C93.709,30.164 93.258,30.584 92.922,31.426C92.593,32.205 92.429,33.352 92.429,34.866C92.429,36.357 92.582,37.516 92.887,38.341C93.201,39.16 93.633,39.569 94.183,39.569C94.749,39.569 95.185,39.163 95.491,38.353C95.812,37.542 95.973,36.415 95.973,34.97Z" style="fill:rgb(158,161,168);fill-rule:nonzero;"/>
            <path id="path1023" d="M102.969,43.732L102.969,26.024L107.534,26.024L109.931,32.24C110.061,32.607 110.206,33.027 110.366,33.501C110.535,33.976 110.718,34.522 110.917,35.142L111.41,36.701C111.234,35.164 111.1,33.849 111.009,32.756C110.917,31.663 110.871,30.745 110.871,30.003L110.871,26.024L115.436,26.024L115.436,43.732L110.871,43.732L108.463,37.217C108.21,36.522 107.981,35.872 107.774,35.268C107.576,34.656 107.4,34.075 107.247,33.524C107.346,34.771 107.419,35.856 107.465,36.782C107.511,37.707 107.534,38.517 107.534,39.213L107.534,43.732L102.969,43.732Z" style="fill:rgb(158,161,168);fill-rule:nonzero;"/>
            <path id="path1025" d="M124.107,43.732L119.324,43.732L119.324,30.267L116.686,30.267L116.686,26.024L126.848,26.024L126.848,30.267L124.107,30.267L124.107,43.732Z" style="fill:rgb(158,161,168);fill-rule:nonzero;"/>
            <rect id="path1027" x="128.109" y="26.024" width="4.783" height="17.708" style="fill:rgb(158,161,168);fill-rule:nonzero;"/>
            <path id="path1029" d="M135.358,43.732L135.358,26.024L139.923,26.024L142.32,32.24C142.45,32.607 142.595,33.027 142.755,33.501C142.924,33.976 143.107,34.522 143.306,35.142L143.799,36.701C143.623,35.164 143.489,33.849 143.398,32.756C143.306,31.663 143.26,30.745 143.26,30.003L143.26,26.024L147.825,26.024L147.825,43.732L143.26,43.732L140.852,37.217C140.599,36.522 140.37,35.872 140.163,35.268C139.965,34.656 139.789,34.075 139.636,33.524C139.735,34.771 139.808,35.856 139.854,36.782C139.9,37.707 139.923,38.517 139.923,39.213L139.923,43.732L135.358,43.732Z" style="fill:rgb(158,161,168);fill-rule:nonzero;"/>
            <path id="path1031" d="M157.539,26.024L162.322,26.024L162.322,38.548C162.322,39.595 162.157,40.444 161.829,41.094C161.508,41.775 160.972,42.39 160.223,42.941C159.214,43.675 157.986,44.042 156.541,44.042C154.905,44.042 153.533,43.636 152.424,42.826C151.017,41.794 150.314,40.142 150.314,37.871L150.314,26.024L155.096,26.024L155.096,37.447C155.096,38.219 155.188,38.766 155.372,39.087C155.563,39.408 155.88,39.569 156.323,39.569C156.782,39.569 157.1,39.42 157.275,39.121C157.451,38.808 157.539,38.254 157.539,37.458L157.539,26.024Z" style="fill:rgb(158,161,168);fill-rule:nonzero;"/>
            <path id="path1033" d="M164.811,43.732L164.811,26.024L173.699,26.024L173.699,30.187L169.593,30.187L169.593,32.767L173.275,32.767L173.275,36.77L169.593,36.77L169.593,39.477L173.699,39.477L173.699,43.732L164.811,43.732Z" style="fill:rgb(158,161,168);fill-rule:nonzero;"/>
        </g>
        <g id="text994" transform="matrix(0.983311,0,0,1.08545,0,-5.04998)">
            <path id="path996" d="M129.604,73.437L124.407,73.437L122.034,67.099C122.011,66.992 121.968,66.85 121.907,66.673C121.853,66.496 121.784,66.285 121.699,66.039L121.734,67.215L121.734,73.437L116.952,73.437L116.952,55.645L121.872,55.645C124.038,55.645 125.659,56.072 126.735,56.924C128.102,58.015 128.786,59.567 128.786,61.58C128.786,63.731 127.868,65.217 126.032,66.039L129.604,73.437ZM121.757,63.884L122.08,63.884C122.633,63.884 123.094,63.673 123.462,63.251C123.831,62.828 124.016,62.29 124.016,61.637C124.016,60.308 123.32,59.644 121.93,59.644L121.757,59.644L121.757,63.884Z" style="fill:rgb(158,161,168);fill-rule:nonzero;"/>
            <path id="path998" d="M131.194,73.437L131.194,55.645L140.125,55.645L140.125,59.828L136,59.828L136,62.421L139.699,62.421L139.699,66.443L136,66.443L136,69.162L140.125,69.162L140.125,73.437L131.194,73.437Z" style="fill:rgb(158,161,168);fill-rule:nonzero;"/>
            <path id="path1000" d="M141.784,72.999L141.784,67.411C142.729,68.701 143.751,69.346 144.849,69.346C145.264,69.346 145.602,69.239 145.863,69.024C146.125,68.801 146.255,68.524 146.255,68.194C146.255,67.718 145.971,67.253 145.403,66.8L144.619,66.189C144.097,65.797 143.651,65.409 143.282,65.025C142.914,64.633 142.614,64.234 142.383,63.827C142.153,63.412 141.984,62.986 141.876,62.548C141.769,62.11 141.715,61.649 141.715,61.165C141.715,60.335 141.907,59.467 142.291,58.561C142.483,58.138 142.706,57.754 142.96,57.408C143.213,57.055 143.505,56.744 143.835,56.475C144.742,55.707 145.837,55.323 147.12,55.323C148.264,55.323 149.416,55.626 150.576,56.233L150.576,61.672C150.185,61.065 149.739,60.589 149.24,60.243C148.74,59.89 148.249,59.713 147.765,59.713C147.396,59.713 147.093,59.821 146.854,60.036C146.609,60.243 146.486,60.493 146.486,60.785C146.486,61.261 146.812,61.733 147.465,62.202L148.226,62.767C149.24,63.497 149.966,64.246 150.404,65.014C150.849,65.782 151.072,66.681 151.072,67.71C151.072,69.462 150.538,70.906 149.47,72.043C148.402,73.18 147.05,73.748 145.414,73.748C144.285,73.748 143.075,73.499 141.784,72.999L141.784,72.999Z" style="fill:rgb(158,161,168);fill-rule:nonzero;"/>
            <path id="path1002" d="M152.95,73.437L152.95,55.645L161.881,55.645L161.881,59.828L157.755,59.828L157.755,62.421L161.454,62.421L161.454,66.443L157.755,66.443L157.755,69.162L161.881,69.162L161.881,73.437L152.95,73.437Z" style="fill:rgb(158,161,168);fill-rule:nonzero;"/>
            <path id="path1004" d="M170.131,73.437L165.326,73.437L165.326,59.909L162.676,59.909L162.676,55.645L172.885,55.645L172.885,59.909L170.131,59.909L170.131,73.437Z" style="fill:rgb(158,161,168);fill-rule:nonzero;"/>
        </g>
        <g id="path1067" transform="matrix(0.911249,0,0,0.853528,60,74.7781)">
            <path d="M43.896,318.937L39.466,318.937L39.466,312.34L37.352,312.34L37.352,318.937L32.922,318.937L32.922,302.535L37.352,302.535L37.352,308.335L39.466,308.335L39.466,302.535L43.896,302.535L43.896,318.937Z" style="fill:rgb(158,161,168);fill-rule:nonzero;"/>
        </g>
        <g id="path1064" transform="matrix(0.795153,0,0,0.978147,68,74.7781)">
            <path d="M103.125,278.304L99.083,278.304L98.796,271.778L98.675,269.173C98.632,269.673 98.583,270.152 98.527,270.61C98.471,271.061 98.403,271.499 98.323,271.926L97.109,278.304L93.957,278.304L92.919,271.917C92.857,271.546 92.773,270.909 92.668,270.007C92.656,269.871 92.628,269.593 92.585,269.173L92.492,271.815L92.149,278.304L88.033,278.304L89.702,263.991L94.513,263.991L95.32,268.811C95.388,269.207 95.446,269.636 95.496,270.1C95.551,270.563 95.601,271.067 95.644,271.611C95.724,270.702 95.836,269.89 95.978,269.173L96.96,263.991L101.734,263.991L103.125,278.304Z" style="fill:rgb(158,161,168);fill-rule:nonzero;"/>
        </g>
        <g id="path1061" transform="matrix(0.935524,0,0,0.831381,80,74.7781)">
            <path d="M117.644,326.749L117.644,321.641C118.508,322.821 119.442,323.41 120.446,323.41C120.825,323.41 121.134,323.312 121.372,323.116C121.611,322.912 121.73,322.659 121.73,322.357C121.73,321.922 121.471,321.497 120.951,321.083L120.235,320.525C119.758,320.167 119.35,319.812 119.013,319.461C118.676,319.103 118.403,318.738 118.192,318.366C117.981,317.987 117.827,317.597 117.729,317.197C117.63,316.797 117.581,316.376 117.581,315.933C117.581,315.175 117.757,314.382 118.108,313.553C118.283,313.167 118.487,312.816 118.719,312.5C118.95,312.177 119.217,311.893 119.519,311.647C120.347,310.945 121.348,310.594 122.52,310.594C123.566,310.594 124.62,310.871 125.68,311.426L125.68,316.397C125.322,315.842 124.914,315.407 124.458,315.091C124.002,314.768 123.552,314.606 123.11,314.606C122.773,314.606 122.496,314.705 122.278,314.901C122.053,315.091 121.941,315.319 121.941,315.586C121.941,316.021 122.239,316.453 122.836,316.881L123.531,317.397C124.458,318.064 125.122,318.749 125.522,319.451C125.929,320.153 126.133,320.974 126.133,321.915C126.133,323.516 125.645,324.836 124.669,325.875C123.693,326.914 122.457,327.433 120.962,327.433C119.93,327.433 118.824,327.205 117.644,326.749L117.644,326.749Z" style="fill:rgb(158,161,168);fill-rule:nonzero;"/>
        </g>
        <g id="path1070" transform="matrix(0.911249,0,0,0.853528,335,74.7781)">
            <path d="M43.896,318.937L39.466,318.937L39.466,312.34L37.352,312.34L37.352,318.937L32.922,318.937L32.922,302.535L37.352,302.535L37.352,308.335L39.466,308.335L39.466,302.535L43.896,302.535L43.896,318.937Z" style="fill:rgb(158,161,168);fill-rule:nonzero;"/>
        </g>
        <g id="path1074" transform="matrix(0.795153,0,0,0.978147,343,74.7781)">
            <path d="M103.125,278.304L99.083,278.304L98.796,271.778L98.675,269.173C98.632,269.673 98.583,270.152 98.527,270.61C98.471,271.061 98.403,271.499 98.323,271.926L97.109,278.304L93.957,278.304L92.919,271.917C92.857,271.546 92.773,270.909 92.668,270.007C92.656,269.871 92.628,269.593 92.585,269.173L92.492,271.815L92.149,278.304L88.033,278.304L89.702,263.991L94.513,263.991L95.32,268.811C95.388,269.207 95.446,269.636 95.496,270.1C95.551,270.563 95.601,271.067 95.644,271.611C95.724,270.702 95.836,269.89 95.978,269.173L96.96,263.991L101.734,263.991L103.125,278.304Z" style="fill:rgb(158,161,168);fill-rule:nonzero;"/>
        </g>
        <g id="path1078" transform="matrix(0.935524,0,0,0.831381,355,74.7781)">
            <path d="M117.644,326.749L117.644,321.641C118.508,322.821 119.442,323.41 120.446,323.41C120.825,323.41 121.134,323.312 121.372,323.116C121.611,322.912 121.73,322.659 121.73,322.357C121.73,321.922 121.471,321.497 120.951,321.083L120.235,320.525C119.758,320.167 119.35,319.812 119.013,319.461C118.676,319.103 118.403,318.738 118.192,318.366C117.981,317.987 117.827,317.597 117.729,317.197C117.63,316.797 117.581,316.376 117.581,315.933C117.581,315.175 117.757,314.382 118.108,313.553C118.283,313.167 118.487,312.816 118.719,312.5C118.95,312.177 119.217,311.893 119.519,311.647C120.347,310.945 121.348,310.594 122.52,310.594C123.566,310.594 124.62,310.871 125.68,311.426L125.68,316.397C125.322,315.842 124.914,315.407 124.458,315.091C124.002,314.768 123.552,314.606 123.11,314.606C122.773,314.606 122.496,314.705 122.278,314.901C122.053,315.091 121.941,315.319 121.941,315.586C121.941,316.021 122.239,316.453 122.836,316.881L123.531,317.397C124.458,318.064 125.122,318.749 125.522,319.451C125.929,320.153 126.133,320.974 126.133,321.915C126.133,323.516 125.645,324.836 124.669,325.875C123.693,326.914 122.457,327.433 120.962,327.433C119.93,327.433 118.824,327.205 117.644,326.749L117.644,326.749Z" style="fill:rgb(158,161,168);fill-rule:nonzero;"/>
        </g>
        <g id="path1082" transform="matrix(0.911249,0,0,0.853528,610,74.7781)">
            <path d="M43.896,318.937L39.466,318.937L39.466,312.34L37.352,312.34L37.352,318.937L32.922,318.937L32.922,302.535L37.352,302.535L37.352,308.335L39.466,308.335L39.466,302.535L43.896,302.535L43.896,318.937Z" style="fill:rgb(158,161,168);fill-rule:nonzero;"/>
        </g>
        <g id="path1086" transform="matrix(0.795153,0,0,0.978147,618,74.7781)">
            <path d="M103.125,278.304L99.083,278.304L98.796,271.778L98.675,269.173C98.632,269.673 98.583,270.152 98.527,270.61C98.471,271.061 98.403,271.499 98.323,271.926L97.109,278.304L93.957,278.304L92.919,271.917C92.857,271.546 92.773,270.909 92.668,270.007C92.656,269.871 92.628,269.593 92.585,269.173L92.492,271.815L92.149,278.304L88.033,278.304L89.702,263.991L94.513,263.991L95.32,268.811C95.388,269.207 95.446,269.636 95.496,270.1C95.551,270.563 95.601,271.067 95.644,271.611C95.724,270.702 95.836,269.89 95.978,269.173L96.96,263.991L101.734,263.991L103.125,278.304Z" style="fill:rgb(158,161,168);fill-rule:nonzero;"/>
        </g>
        <g id="path1090" transform="matrix(0.935524,0,0,0.831381,630,74.7781)">
            <path d="M117.644,326.749L117.644,321.641C118.508,322.821 119.442,323.41 120.446,323.41C120.825,323.41 121.134,323.312 121.372,323.116C121.611,322.912 121.73,322.659 121.73,322.357C121.73,321.922 121.471,321.497 120.951,321.083L120.235,320.525C119.758,320.167 119.35,319.812 119.013,319.461C118.676,319.103 118.403,318.738 118.192,318.366C117.981,317.987 117.827,317.597 117.729,317.197C117.63,316.797 117.581,316.376 117.581,315.933C117.581,315.175 117.757,314.382 118.108,313.553C118.283,313.167 118.487,312.816 118.719,312.5C118.95,312.177 119.217,311.893 119.519,311.647C120.347,310.945 121.348,310.594 122.52,310.594C123.566,310.594 124.62,310.871 125.68,311.426L125.68,316.397C125.322,315.842 124.914,315.407 124.458,315.091C124.002,314.768 123.552,314.606 123.11,314.606C122.773,314.606 122.496,314.705 122.278,314.901C122.053,315.091 121.941,315.319 121.941,315.586C121.941,316.021 122.239,316.453 122.836,316.881L123.531,317.397C124.458,318.064 125.122,318.749 125.522,319.451C125.929,320.153 126.133,320.974 126.133,321.915C126.133,323.516 125.645,324.836 124.669,325.875C123.693,326.914 122.457,327.433 120.962,327.433C119.93,327.433 118.824,327.205 117.644,326.749L117.644,326.749Z" style="fill:rgb(158,161,168);fill-rule:nonzero;"/>
        </g>
    </g>
</svg>
