<?xml version="1.0" encoding="UTF-8" standalone="no"?>
<!DOCTYPE svg PUBLIC "-//W3C//DTD SVG 1.1//EN" "http://www.w3.org/Graphics/SVG/1.1/DTD/svg11.dtd">
<svg width="100%" height="100%" viewBox="0 0 180 380" version="1.1" xmlns="http://www.w3.org/2000/svg" xmlns:xlink="http://www.w3.org/1999/xlink" xml:space="preserve" xmlns:serif="http://www.serif.com/" style="fill-rule:evenodd;clip-rule:evenodd;stroke-linejoin:round;stroke-miterlimit:2;">
    <g id="Layer-2" serif:id="Layer 2">
        <rect id="rect4689" x="0" y="0" width="180" height="380" style="fill:rgb(44,45,48);fill-rule:nonzero;"/>
        <g id="text989">
        </g>
        <g id="text80" transform="matrix(1.00498,0,0,0.995047,45,4.99997)">
            <path id="path4726" d="M29.851,371.706L29.851,363.943L31.853,363.943L32.903,366.668C32.96,366.829 33.024,367.013 33.094,367.221C33.168,367.429 33.249,367.668 33.336,367.94L33.552,368.624C33.475,367.95 33.416,367.373 33.376,366.894C33.336,366.415 33.316,366.013 33.316,365.687L33.316,363.943L35.317,363.943L35.317,371.706L33.316,371.706L32.26,368.85C32.149,368.545 32.049,368.26 31.958,367.995C31.871,367.727 31.794,367.472 31.727,367.231C31.77,367.777 31.802,368.253 31.822,368.659C31.843,369.065 31.853,369.42 31.853,369.725L31.853,371.706L29.851,371.706Z" style="fill:rgb(158,161,168);fill-rule:nonzero;"/>
            <path id="path4728" d="M39.887,371.706L37.791,371.706L37.791,368.418L35.865,363.943L38.052,363.943L38.429,365.094C38.503,365.319 38.568,365.535 38.625,365.743C38.686,365.951 38.739,366.15 38.786,366.341C38.863,366.056 38.93,365.811 38.987,365.607C39.044,365.399 39.095,365.232 39.138,365.104L39.52,363.943L41.692,363.943L39.887,368.418L39.887,371.706Z" style="fill:rgb(158,161,168);fill-rule:nonzero;"/>
            <path id="path4730" d="M41.894,371.515L41.894,369.076C42.306,369.639 42.752,369.921 43.231,369.921C43.412,369.921 43.56,369.874 43.673,369.78C43.787,369.683 43.844,369.562 43.844,369.418C43.844,369.21 43.72,369.008 43.472,368.81L43.13,368.543C42.902,368.372 42.708,368.203 42.547,368.035C42.386,367.865 42.256,367.69 42.155,367.513C42.054,367.332 41.981,367.146 41.934,366.954C41.887,366.763 41.863,366.562 41.863,366.351C41.863,365.989 41.947,365.61 42.115,365.215C42.199,365.03 42.296,364.863 42.406,364.712C42.517,364.558 42.644,364.422 42.789,364.305C43.184,363.969 43.662,363.802 44.222,363.802C44.721,363.802 45.224,363.934 45.73,364.199L45.73,366.572C45.559,366.308 45.365,366.1 45.147,365.949C44.929,365.795 44.714,365.718 44.503,365.718C44.342,365.718 44.21,365.765 44.106,365.858C43.999,365.949 43.945,366.058 43.945,366.185C43.945,366.393 44.087,366.599 44.372,366.804L44.704,367.05C45.147,367.368 45.463,367.695 45.655,368.03C45.849,368.366 45.946,368.758 45.946,369.207C45.946,369.971 45.713,370.601 45.247,371.098C44.781,371.594 44.191,371.842 43.477,371.842C42.985,371.842 42.457,371.733 41.894,371.515L41.894,371.515Z" style="fill:rgb(158,161,168);fill-rule:nonzero;"/>
            <path id="path4732" d="M49.576,371.706L47.48,371.706L47.48,365.803L46.323,365.803L46.323,363.943L50.778,363.943L50.778,365.803L49.576,365.803L49.576,371.706Z" style="fill:rgb(158,161,168);fill-rule:nonzero;"/>
            <path id="path4734" d="M56.525,371.706L54.428,371.706L54.428,368.584L53.428,368.584L53.428,371.706L51.331,371.706L51.331,363.943L53.428,363.943L53.428,366.688L54.428,366.688L54.428,363.943L56.525,363.943L56.525,371.706Z" style="fill:rgb(158,161,168);fill-rule:nonzero;"/>
            <rect id="path4736" x="57.606" y="363.943" width="2.097" height="7.763" style="fill:rgb(158,161,168);fill-rule:nonzero;"/>
        </g>
        <g id="text4987">
        </g>
        <g id="text1321">
        </g>
        <g id="rect1149" transform="matrix(1,0,0,-1,0,0)">
            <rect x="0" y="-58" width="180" height="18" style="fill:rgb(77,77,77);fill-opacity:0.78;"/>
        </g>
        <g id="rect1219" transform="matrix(1,0,0,-1,0,0)">
            <rect x="0" y="-78" width="180" height="18" style="fill:rgb(26,26,26);fill-opacity:0.86;"/>
        </g>
        <g id="rect1223" transform="matrix(1,0,0,-1,0,0)">
            <rect x="0" y="-98" width="180" height="18" style="fill:rgb(77,77,77);fill-opacity:0.78;"/>
        </g>
        <g id="rect1227" transform="matrix(1,0,0,-1,0,0)">
            <rect x="0" y="-118" width="180" height="18" style="fill:rgb(26,26,26);fill-opacity:0.86;"/>
        </g>
        <g id="rect1231" transform="matrix(1,0,0,-1,0,0)">
            <rect x="0" y="-138" width="180" height="18" style="fill:rgb(77,77,77);fill-opacity:0.78;"/>
        </g>
        <g id="rect1235" transform="matrix(1,0,0,-1,0,0)">
            <rect x="0" y="-158" width="180" height="18" style="fill:rgb(26,26,26);fill-opacity:0.86;"/>
        </g>
        <g id="rect1239" transform="matrix(1,0,0,-1,0,0)">
            <rect x="0" y="-178" width="180" height="18" style="fill:rgb(77,77,77);fill-opacity:0.78;"/>
        </g>
        <g id="rect1243" transform="matrix(1,0,0,-1,0,0)">
            <rect x="0" y="-198" width="180" height="18" style="fill:rgb(26,26,26);fill-opacity:0.86;"/>
        </g>
        <g id="rect1247" transform="matrix(1,0,0,-1,0,0)">
            <rect x="0" y="-218" width="180" height="18" style="fill:rgb(77,77,77);fill-opacity:0.78;"/>
        </g>
        <g id="rect1251" transform="matrix(1,0,0,-1,0,0)">
            <rect x="0" y="-238" width="180" height="18" style="fill:rgb(26,26,26);fill-opacity:0.86;"/>
        </g>
        <g id="rect1255" transform="matrix(1,0,0,-1,0,0)">
            <rect x="0" y="-258" width="180" height="18" style="fill:rgb(77,77,77);fill-opacity:0.78;"/>
        </g>
        <g id="rect1259" transform="matrix(1,0,0,-1,0,0)">
            <rect x="0" y="-278" width="180" height="18" style="fill:rgb(26,26,26);fill-opacity:0.86;"/>
        </g>
        <g id="rect1263" transform="matrix(1,0,0,-1,0,0)">
            <rect x="0" y="-298" width="180" height="18" style="fill:rgb(77,77,77);fill-opacity:0.78;"/>
        </g>
        <g id="rect1267" transform="matrix(1,0,0,-1,0,0)">
            <rect x="0" y="-318" width="180" height="18" style="fill:rgb(26,26,26);fill-opacity:0.86;"/>
        </g>
        <g id="rect1271" transform="matrix(1,0,0,-1,0,0)">
            <rect x="0" y="-338" width="180" height="18" style="fill:rgb(77,77,77);fill-opacity:0.78;"/>
        </g>
        <g id="rect1275" transform="matrix(1,0,0,-1,0,0)">
            <rect x="0" y="-358" width="180" height="18" style="fill:rgb(26,26,26);fill-opacity:0.86;"/>
        </g>
        <g id="text998" transform="matrix(0.958472,0,0,1.04333,0,0)">
            <path id="path1001" d="M8.86,17.017L5.217,17.017L5.217,3.528L11.655,3.528L11.655,6.699L8.86,6.699L8.86,8.665L11.463,8.665L11.463,11.714L8.86,11.714L8.86,17.017Z" style="fill:rgb(158,161,168);fill-rule:nonzero;"/>
            <rect id="path1003" x="13.079" y="3.528" width="3.643" height="13.488" style="fill:rgb(158,161,168);fill-rule:nonzero;"/>
            <path id="path1005" d="M28.114,17.017L24.069,17.017L23.396,15.095C23.181,14.506 23.006,13.942 22.872,13.4C22.744,13.936 22.552,14.55 22.295,15.243L21.623,17.017L17.657,17.017L20.933,10.019L17.84,3.528L21.894,3.528L22.496,5.354C22.56,5.523 22.622,5.721 22.68,5.948C22.744,6.175 22.808,6.432 22.872,6.717C23.018,6.135 23.14,5.686 23.239,5.372L23.798,3.528L27.878,3.528L24.803,10.019L28.114,17.017Z" style="fill:rgb(158,161,168);fill-rule:nonzero;"/>
            <path id="path1007" d="M29.048,17.017L29.048,3.528L35.819,3.528L35.819,6.699L32.691,6.699L32.691,8.665L35.495,8.665L35.495,11.714L32.691,11.714L32.691,13.776L35.819,13.776L35.819,17.017L29.048,17.017Z" style="fill:rgb(158,161,168);fill-rule:nonzero;"/>
            <path id="path1009" d="M37.365,17.017L37.365,3.528L40.51,3.528C42.309,3.528 43.71,4.012 44.712,4.978C46.028,6.242 46.686,8.01 46.686,10.281C46.686,12.518 46.13,14.244 45.018,15.462C44.068,16.498 42.653,17.017 40.772,17.017L37.365,17.017ZM41.008,13.758C42.312,13.694 42.965,12.57 42.965,10.386C42.965,9.309 42.799,8.458 42.467,7.835C42.135,7.206 41.686,6.892 41.121,6.892L41.008,6.892L41.008,13.758Z" style="fill:rgb(158,161,168);fill-rule:nonzero;"/>
            <path id="path1011" d="M59.476,17.017L55.763,17.017L52.67,3.528L56.497,3.528L57.161,7.381C57.411,8.854 57.612,10.503 57.763,12.325C57.827,11.516 57.906,10.759 57.999,10.054C58.092,9.349 58.203,8.662 58.331,7.992L59.196,3.528L63.153,3.528L59.476,17.017Z" style="fill:rgb(158,161,168);fill-rule:nonzero;"/>
            <path id="path1013" d="M73.663,10.316C73.663,12.372 73.194,14.043 72.256,15.331C71.324,16.612 70.11,17.252 68.613,17.252C67.285,17.252 66.147,16.76 65.198,15.776C64.004,14.53 63.407,12.66 63.407,10.168C63.407,7.78 64.03,5.954 65.276,4.69C66.202,3.753 67.3,3.284 68.57,3.284C70.125,3.284 71.362,3.919 72.282,5.188C73.203,6.458 73.663,8.167 73.663,10.316ZM69.88,10.342C69.88,7.902 69.449,6.682 68.587,6.682C68.156,6.682 67.813,7.002 67.556,7.643C67.306,8.237 67.181,9.111 67.181,10.264C67.181,11.399 67.297,12.282 67.53,12.911C67.769,13.534 68.098,13.845 68.517,13.845C68.948,13.845 69.28,13.537 69.513,12.919C69.758,12.302 69.88,11.443 69.88,10.342L69.88,10.342Z" style="fill:rgb(158,161,168);fill-rule:nonzero;"/>
            <path id="path1015" d="M81.586,17.017L75.209,17.017L75.209,3.528L78.852,3.528L78.852,13.776L81.586,13.776L81.586,17.017Z" style="fill:rgb(158,161,168);fill-rule:nonzero;"/>
            <path id="path1017" d="M87.011,17.017L83.368,17.017L83.368,6.761L81.359,6.761L81.359,3.528L89.099,3.528L89.099,6.761L87.011,6.761L87.011,17.017Z" style="fill:rgb(158,161,168);fill-rule:nonzero;"/>
            <path id="path1019" d="M99.46,17.017L95.695,17.017L95.424,15.304L92.969,15.304L92.672,17.017L88.907,17.017L92.148,3.528L96.603,3.528L99.46,17.017ZM94.996,12.413L94.76,10.84C94.754,10.834 94.743,10.756 94.725,10.604C94.714,10.476 94.652,9.97 94.542,9.084C94.53,8.985 94.516,8.851 94.498,8.683C94.481,8.508 94.457,8.289 94.428,8.027L94.315,6.752C94.303,6.874 94.286,7.011 94.262,7.162C94.245,7.314 94.224,7.48 94.201,7.66C94.16,8.022 94.131,8.272 94.114,8.412C94.096,8.551 94.085,8.636 94.079,8.665L93.826,10.299L93.459,12.413L94.996,12.413Z" style="fill:rgb(158,161,168);fill-rule:nonzero;"/>
            <path id="path1021" d="M105.199,9.215L110.284,9.215L110.284,9.775C110.284,12.372 109.896,14.241 109.122,15.383C108.277,16.629 107.028,17.252 105.374,17.252C103.749,17.252 102.474,16.641 101.548,15.418C100.628,14.183 100.168,12.488 100.168,10.334C100.168,8.15 100.631,6.429 101.557,5.171C102.483,3.913 103.749,3.284 105.357,3.284C107.488,3.284 109.035,4.396 109.995,6.621L106.466,7.914C106.414,7.489 106.291,7.154 106.099,6.909C105.913,6.659 105.677,6.533 105.392,6.533C104.39,6.533 103.889,7.911 103.889,10.666C103.889,11.836 104,12.686 104.221,13.216C104.442,13.746 104.795,14.011 105.278,14.011C105.47,14.011 105.645,13.965 105.802,13.872C105.959,13.778 106.09,13.647 106.195,13.479C106.306,13.31 106.39,13.106 106.449,12.867C106.513,12.622 106.545,12.352 106.545,12.055L105.199,12.055L105.199,9.215Z" style="fill:rgb(158,161,168);fill-rule:nonzero;"/>
            <path id="path1023" d="M111.83,17.017L111.83,3.528L118.6,3.528L118.6,6.699L115.473,6.699L115.473,8.665L118.277,8.665L118.277,11.714L115.473,11.714L115.473,13.776L118.6,13.776L118.6,17.017L111.83,17.017Z" style="fill:rgb(158,161,168);fill-rule:nonzero;"/>
            <path id="path1025" d="M125.24,16.685L125.24,12.448C125.956,13.426 126.731,13.915 127.563,13.915C127.878,13.915 128.134,13.834 128.332,13.671C128.53,13.502 128.629,13.292 128.629,13.042C128.629,12.681 128.414,12.328 127.983,11.985L127.389,11.522C126.993,11.225 126.655,10.931 126.375,10.639C126.096,10.342 125.869,10.04 125.694,9.731C125.519,9.416 125.391,9.093 125.31,8.761C125.228,8.429 125.187,8.08 125.187,7.713C125.187,7.084 125.333,6.426 125.624,5.739C125.77,5.418 125.939,5.127 126.131,4.865C126.323,4.597 126.544,4.361 126.795,4.157C127.482,3.575 128.312,3.284 129.284,3.284C130.152,3.284 131.026,3.514 131.905,3.974L131.905,8.097C131.608,7.637 131.27,7.276 130.892,7.014C130.513,6.746 130.141,6.612 129.774,6.612C129.494,6.612 129.264,6.694 129.083,6.857C128.897,7.014 128.804,7.203 128.804,7.425C128.804,7.786 129.051,8.144 129.546,8.499L130.123,8.927C130.892,9.48 131.442,10.048 131.774,10.631C132.112,11.213 132.281,11.894 132.281,12.675C132.281,14.003 131.876,15.098 131.067,15.96C130.257,16.822 129.232,17.252 127.991,17.252C127.135,17.252 126.218,17.063 125.24,16.685L125.24,16.685Z" style="fill:rgb(158,161,168);fill-rule:nonzero;"/>
            <path id="path1027" d="M143.62,10.316C143.62,12.372 143.151,14.043 142.214,15.331C141.282,16.612 140.067,17.252 138.571,17.252C137.243,17.252 136.104,16.76 135.155,15.776C133.961,14.53 133.364,12.66 133.364,10.168C133.364,7.78 133.987,5.954 135.234,4.69C136.16,3.753 137.257,3.284 138.527,3.284C140.082,3.284 141.32,3.919 142.24,5.188C143.16,6.458 143.62,8.167 143.62,10.316ZM139.837,10.342C139.837,7.902 139.406,6.682 138.545,6.682C138.114,6.682 137.77,7.002 137.514,7.643C137.263,8.237 137.138,9.111 137.138,10.264C137.138,11.399 137.255,12.282 137.487,12.911C137.726,13.534 138.055,13.845 138.475,13.845C138.906,13.845 139.238,13.537 139.471,12.919C139.715,12.302 139.837,11.443 139.837,10.342L139.837,10.342Z" style="fill:rgb(158,161,168);fill-rule:nonzero;"/>
            <path id="path1029" d="M150.67,3.528L154.313,3.528L154.313,13.068C154.313,13.866 154.188,14.512 153.937,15.007C153.693,15.526 153.285,15.995 152.714,16.414C151.945,16.973 151.011,17.252 149.91,17.252C148.664,17.252 147.618,16.944 146.774,16.326C145.702,15.54 145.166,14.282 145.166,12.553L145.166,3.528L148.809,3.528L148.809,12.229C148.809,12.818 148.879,13.234 149.019,13.479C149.165,13.723 149.406,13.845 149.744,13.845C150.093,13.845 150.335,13.732 150.469,13.505C150.603,13.266 150.67,12.844 150.67,12.238L150.67,3.528Z" style="fill:rgb(158,161,168);fill-rule:nonzero;"/>
            <path id="path1031" d="M165.801,17.017L161.861,17.017L160.061,12.212C160.044,12.13 160.012,12.023 159.965,11.889C159.924,11.755 159.872,11.595 159.808,11.408L159.834,12.299L159.834,17.017L156.209,17.017L156.209,3.528L159.939,3.528C161.581,3.528 162.81,3.852 163.625,4.498C164.662,5.325 165.18,6.501 165.18,8.027C165.18,9.658 164.484,10.785 163.092,11.408L165.801,17.017ZM159.851,9.775L160.096,9.775C160.515,9.775 160.865,9.614 161.144,9.294C161.424,8.974 161.564,8.566 161.564,8.071C161.564,7.063 161.037,6.56 159.983,6.56L159.851,6.56L159.851,9.775Z" style="fill:rgb(158,161,168);fill-rule:nonzero;"/>
            <path id="path1033" d="M174.379,12.867L174.17,16.763C173.36,17.089 172.635,17.252 171.994,17.252C170.486,17.252 169.216,16.699 168.186,15.593C167.032,14.352 166.456,12.596 166.456,10.325C166.456,8.199 166.997,6.493 168.081,5.206C169.164,3.924 170.611,3.284 172.422,3.284C173.011,3.284 173.611,3.394 174.222,3.616L174.222,7.468C173.68,6.927 173.124,6.656 172.554,6.656C171.808,6.656 171.226,6.973 170.806,7.608C170.387,8.249 170.177,9.134 170.177,10.264C170.177,10.811 170.23,11.3 170.335,11.731C170.439,12.162 170.588,12.526 170.78,12.823C170.978,13.12 171.22,13.348 171.505,13.505C171.791,13.662 172.117,13.741 172.484,13.741C173.113,13.741 173.744,13.449 174.379,12.867L174.379,12.867Z" style="fill:rgb(158,161,168);fill-rule:nonzero;"/>
            <path id="path1035" d="M175.812,17.017L175.812,3.528L182.582,3.528L182.582,6.699L179.455,6.699L179.455,8.665L182.259,8.665L182.259,11.714L179.455,11.714L179.455,13.776L182.582,13.776L182.582,17.017L175.812,17.017Z" style="fill:rgb(158,161,168);fill-rule:nonzero;"/>
        </g>
        <g id="text999" transform="matrix(0.872872,0,0,1.14564,0,0)">
            <path id="path1006" d="M59.993,25.063L62.141,25.063L62.141,25.404C62.141,27.113 61.991,28.266 61.692,28.865C61.397,29.479 60.843,29.786 60.033,29.786C59.195,29.786 58.599,29.445 58.243,28.763C57.89,28.081 57.714,26.935 57.714,25.325C57.714,23.483 57.907,22.258 58.294,21.648C58.657,21.076 59.216,20.79 59.97,20.79C60.546,20.79 60.995,20.928 61.317,21.205C61.643,21.485 61.897,21.945 62.078,22.586L60.976,23.046C60.927,22.815 60.872,22.622 60.811,22.466C60.751,22.307 60.684,22.184 60.612,22.097C60.468,21.919 60.252,21.83 59.964,21.83C59.57,21.83 59.302,22.072 59.158,22.557C59.014,23.065 58.942,23.976 58.942,25.291C58.942,26.62 59.015,27.52 59.163,27.99C59.311,28.46 59.589,28.695 59.999,28.695C60.374,28.695 60.637,28.528 60.788,28.194C60.944,27.838 61.021,27.266 61.021,26.478L61.021,26.24L61.021,26.063L59.993,26.063L59.993,25.063Z" style="fill:rgb(158,161,168);fill-rule:nonzero;"/>
            <path id="path1008" d="M64.573,20.903L65.494,20.903L67.375,29.678L66.204,29.678L65.875,27.967L64.136,27.967L63.8,29.678L62.664,29.678L64.573,20.903ZM65.704,27.052L65.443,25.654C65.268,24.703 65.126,23.688 65.016,22.608C64.963,23.135 64.895,23.669 64.812,24.211C64.729,24.749 64.63,25.321 64.516,25.927L64.3,27.052L65.704,27.052Z" style="fill:rgb(158,161,168);fill-rule:nonzero;"/>
            <path id="path1010" d="M67.193,20.903L71.04,20.903L71.04,21.938L69.716,21.938L69.716,29.678L68.557,29.678L68.557,21.938L67.193,21.938L67.193,20.903Z" style="fill:rgb(158,161,168);fill-rule:nonzero;"/>
            <path id="path1012" d="M71.688,20.903L74.831,20.903L74.831,21.904L72.87,21.904L72.87,24.682L74.609,24.682L74.609,25.683L72.87,25.683L72.87,28.677L74.831,28.677L74.831,29.678L71.688,29.678L71.688,20.903Z" style="fill:rgb(158,161,168);fill-rule:nonzero;"/>
            <rect id="path1014" x="77.649" y="26.223" width="2.069" height="0.887" style="fill:rgb(158,161,168);fill-rule:nonzero;"/>
            <path id="path1016" d="M84.906,25.063L87.054,25.063L87.054,25.404C87.054,27.113 86.905,28.266 86.605,28.865C86.31,29.479 85.757,29.786 84.946,29.786C84.109,29.786 83.512,29.445 83.156,28.763C82.803,28.081 82.627,26.935 82.627,25.325C82.627,23.483 82.821,22.258 83.207,21.648C83.571,21.076 84.129,20.79 84.883,20.79C85.459,20.79 85.908,20.928 86.23,21.205C86.556,21.485 86.81,21.945 86.992,22.586L85.889,23.046C85.84,22.815 85.785,22.622 85.724,22.466C85.664,22.307 85.597,22.184 85.526,22.097C85.382,21.919 85.166,21.83 84.878,21.83C84.484,21.83 84.215,22.072 84.071,22.557C83.927,23.065 83.855,23.976 83.855,25.291C83.855,26.62 83.929,27.52 84.076,27.99C84.224,28.46 84.503,28.695 84.912,28.695C85.287,28.695 85.55,28.528 85.702,28.194C85.857,27.838 85.935,27.266 85.935,26.478L85.935,26.24L85.935,26.063L84.906,26.063L84.906,25.063Z" style="fill:rgb(158,161,168);fill-rule:nonzero;"/>
            <path id="path1018" d="M88.236,20.903L89.418,20.903L89.418,28.677L91.35,28.677L91.35,29.678L88.236,29.678L88.236,20.903Z" style="fill:rgb(158,161,168);fill-rule:nonzero;"/>
            <path id="path1020" d="M96.493,25.506C96.493,27.056 96.321,28.157 95.976,28.808C95.631,29.46 95.054,29.786 94.243,29.786C93.39,29.786 92.79,29.435 92.441,28.734C92.097,28.049 91.924,26.831 91.924,25.08C91.924,23.519 92.095,22.415 92.436,21.767C92.78,21.116 93.364,20.79 94.186,20.79C94.921,20.79 95.467,21.042 95.823,21.546C96.058,21.883 96.228,22.362 96.334,22.983C96.44,23.559 96.493,24.4 96.493,25.506ZM95.254,25.631C95.254,24.112 95.186,23.105 95.05,22.608C94.913,22.108 94.635,21.858 94.214,21.858C93.794,21.858 93.514,22.087 93.373,22.546C93.237,23.008 93.169,23.936 93.169,25.33C93.169,26.615 93.241,27.505 93.385,28.001C93.533,28.471 93.809,28.706 94.214,28.706C94.612,28.706 94.885,28.486 95.033,28.047C95.181,27.611 95.254,26.806 95.254,25.631L95.254,25.631Z" style="fill:rgb(158,161,168);fill-rule:nonzero;"/>
            <path id="path1022" d="M97.67,20.903L99.272,20.903C100.526,20.903 101.153,21.682 101.153,23.239C101.153,23.834 101.072,24.275 100.909,24.563C100.746,24.851 100.458,25.069 100.045,25.217C100.519,25.406 100.842,25.649 101.017,25.944C101.195,26.236 101.284,26.675 101.284,27.262C101.284,28.873 100.594,29.678 99.215,29.678L97.67,29.678L97.67,20.903ZM98.783,24.768C99.242,24.768 99.56,24.662 99.738,24.449C99.916,24.226 100.005,23.834 100.005,23.273C100.005,22.326 99.664,21.852 98.982,21.852L98.891,21.852L98.84,21.852C98.81,21.852 98.791,21.854 98.783,21.858L98.783,24.768ZM98.783,28.666C99.268,28.666 99.604,28.562 99.789,28.354C99.975,28.145 100.068,27.768 100.068,27.223C100.068,26.662 99.971,26.27 99.778,26.046C99.588,25.819 99.257,25.705 98.783,25.705L98.783,28.666Z" style="fill:rgb(158,161,168);fill-rule:nonzero;"/>
            <path id="path1024" d="M103.761,20.903L104.682,20.903L106.563,29.678L105.392,29.678L105.063,27.967L103.324,27.967L102.989,29.678L101.852,29.678L103.761,20.903ZM104.892,27.052L104.631,25.654C104.457,24.703 104.315,23.688 104.205,22.608C104.152,23.135 104.084,23.669 104,24.211C103.917,24.749 103.818,25.321 103.705,25.927L103.489,27.052L104.892,27.052Z" style="fill:rgb(158,161,168);fill-rule:nonzero;"/>
            <path id="path1026" d="M107.262,20.903L108.444,20.903L108.444,28.677L110.376,28.677L110.376,29.678L107.262,29.678L107.262,20.903Z" style="fill:rgb(158,161,168);fill-rule:nonzero;"/>
            <rect id="path1028" x="112.86" y="26.223" width="2.069" height="0.887" style="fill:rgb(158,161,168);fill-rule:nonzero;"/>
            <path id="path1030" d="M117.315,20.903L118.48,20.903L119.008,24.143L119.099,24.728L119.287,26.001C119.317,26.217 119.344,26.414 119.366,26.592C119.393,26.77 119.416,26.931 119.435,27.075L119.491,27.507C119.503,27.42 119.512,27.342 119.52,27.274C119.527,27.206 119.535,27.149 119.542,27.103L119.696,26.086L119.895,24.751C119.914,24.629 119.931,24.518 119.946,24.415C119.965,24.313 119.982,24.222 119.997,24.143L120.565,20.903L121.668,20.903L119.946,29.678L119.008,29.678L117.315,20.903Z" style="fill:rgb(158,161,168);fill-rule:nonzero;"/>
            <path id="path1032" d="M126.725,25.506C126.725,27.056 126.553,28.157 126.208,28.808C125.864,29.46 125.286,29.786 124.475,29.786C123.623,29.786 123.022,29.435 122.674,28.734C122.329,28.049 122.157,26.831 122.157,25.08C122.157,23.519 122.327,22.415 122.668,21.767C123.013,21.116 123.596,20.79 124.418,20.79C125.153,20.79 125.699,21.042 126.055,21.546C126.29,21.883 126.46,22.362 126.566,22.983C126.672,23.559 126.725,24.4 126.725,25.506ZM125.487,25.631C125.487,24.112 125.418,23.105 125.282,22.608C125.146,22.108 124.867,21.858 124.447,21.858C124.026,21.858 123.746,22.087 123.606,22.546C123.469,23.008 123.401,23.936 123.401,25.33C123.401,26.615 123.473,27.505 123.617,28.001C123.765,28.471 124.041,28.706 124.447,28.706C124.845,28.706 125.117,28.486 125.265,28.047C125.413,27.611 125.487,26.806 125.487,25.631L125.487,25.631Z" style="fill:rgb(158,161,168);fill-rule:nonzero;"/>
            <path id="path1034" d="M127.902,20.903L129.084,20.903L129.084,28.677L131.016,28.677L131.016,29.678L127.902,29.678L127.902,20.903Z" style="fill:rgb(158,161,168);fill-rule:nonzero;"/>
            <path id="path1036" d="M130.863,20.903L134.71,20.903L134.71,21.938L133.386,21.938L133.386,29.678L132.226,29.678L132.226,21.938L130.863,21.938L130.863,20.903Z" style="fill:rgb(158,161,168);fill-rule:nonzero;"/>
            <path id="path1038" d="M136.449,20.903L137.369,20.903L139.25,29.678L138.08,29.678L137.75,27.967L136.011,27.967L135.676,29.678L134.539,29.678L136.449,20.903ZM137.58,27.052L137.318,25.654C137.144,24.703 137.002,23.688 136.892,22.608C136.839,23.135 136.771,23.669 136.687,24.211C136.604,24.749 136.506,25.321 136.392,25.927L136.176,27.052L137.58,27.052Z" style="fill:rgb(158,161,168);fill-rule:nonzero;"/>
            <path id="path1040" d="M142.029,25.063L144.177,25.063L144.177,25.404C144.177,27.113 144.028,28.266 143.728,28.865C143.433,29.479 142.88,29.786 142.069,29.786C141.232,29.786 140.635,29.445 140.279,28.763C139.927,28.081 139.75,26.935 139.75,25.325C139.75,23.483 139.944,22.258 140.33,21.648C140.694,21.076 141.253,20.79 142.006,20.79C142.582,20.79 143.031,20.928 143.353,21.205C143.679,21.485 143.933,21.945 144.115,22.586L143.012,23.046C142.963,22.815 142.908,22.622 142.847,22.466C142.787,22.307 142.721,22.184 142.649,22.097C142.505,21.919 142.289,21.83 142.001,21.83C141.607,21.83 141.338,22.072 141.194,22.557C141.05,23.065 140.978,23.976 140.978,25.291C140.978,26.62 141.052,27.52 141.199,27.99C141.347,28.46 141.626,28.695 142.035,28.695C142.41,28.695 142.673,28.528 142.825,28.194C142.98,27.838 143.058,27.266 143.058,26.478L143.058,26.24L143.058,26.063L142.029,26.063L142.029,25.063Z" style="fill:rgb(158,161,168);fill-rule:nonzero;"/>
            <path id="path1042" d="M145.359,20.903L148.502,20.903L148.502,21.904L146.541,21.904L146.541,24.682L148.28,24.682L148.28,25.683L146.541,25.683L146.541,28.677L148.502,28.677L148.502,29.678L145.359,29.678L145.359,20.903Z" style="fill:rgb(158,161,168);fill-rule:nonzero;"/>
        </g>
    </g>
</svg>
