<?xml version="1.0" encoding="UTF-8" standalone="no"?>
<!DOCTYPE svg PUBLIC "-//W3C//DTD SVG 1.1//EN" "http://www.w3.org/Graphics/SVG/1.1/DTD/svg11.dtd">
<svg width="100%" height="100%" viewBox="0 0 90 380" version="1.1" xmlns="http://www.w3.org/2000/svg" xmlns:xlink="http://www.w3.org/1999/xlink" xml:space="preserve" xmlns:serif="http://www.serif.com/" style="fill-rule:evenodd;clip-rule:evenodd;stroke-linejoin:round;stroke-miterlimit:2;">
    <g id="Layer-2" serif:id="Layer 2">
        <g id="text989">
        </g>
        <rect id="rect4689" x="0" y="0" width="90" height="380" style="fill:rgb(44,45,48);fill-rule:nonzero;"/>
        <g id="text80" transform="matrix(1.00498,0,0,0.995047,-5.56788e-06,4.99997)">
            <path id="path4726" d="M29.851,371.706L29.851,363.943L31.853,363.943L32.903,366.668C32.96,366.829 33.024,367.013 33.094,367.221C33.168,367.429 33.249,367.668 33.336,367.94L33.552,368.624C33.475,367.95 33.416,367.373 33.376,366.894C33.336,366.415 33.316,366.013 33.316,365.687L33.316,363.943L35.317,363.943L35.317,371.706L33.316,371.706L32.26,368.85C32.149,368.545 32.049,368.26 31.958,367.995C31.871,367.727 31.794,367.472 31.727,367.231C31.77,367.777 31.802,368.253 31.822,368.659C31.843,369.065 31.853,369.42 31.853,369.725L31.853,371.706L29.851,371.706Z" style="fill:rgb(158,161,168);fill-rule:nonzero;"/>
            <path id="path4728" d="M39.887,371.706L37.791,371.706L37.791,368.418L35.865,363.943L38.052,363.943L38.429,365.094C38.503,365.319 38.568,365.535 38.625,365.743C38.686,365.951 38.739,366.15 38.786,366.341C38.863,366.056 38.93,365.811 38.987,365.607C39.044,365.399 39.095,365.232 39.138,365.104L39.52,363.943L41.692,363.943L39.887,368.418L39.887,371.706Z" style="fill:rgb(158,161,168);fill-rule:nonzero;"/>
            <path id="path4730" d="M41.894,371.515L41.894,369.076C42.306,369.639 42.752,369.921 43.231,369.921C43.412,369.921 43.56,369.874 43.673,369.78C43.787,369.683 43.844,369.562 43.844,369.418C43.844,369.21 43.72,369.008 43.472,368.81L43.13,368.543C42.902,368.372 42.708,368.203 42.547,368.035C42.386,367.865 42.256,367.69 42.155,367.513C42.054,367.332 41.981,367.146 41.934,366.954C41.887,366.763 41.863,366.562 41.863,366.351C41.863,365.989 41.947,365.61 42.115,365.215C42.199,365.03 42.296,364.863 42.406,364.712C42.517,364.558 42.644,364.422 42.789,364.305C43.184,363.969 43.662,363.802 44.222,363.802C44.721,363.802 45.224,363.934 45.73,364.199L45.73,366.572C45.559,366.308 45.365,366.1 45.147,365.949C44.929,365.795 44.714,365.718 44.503,365.718C44.342,365.718 44.21,365.765 44.106,365.858C43.999,365.949 43.945,366.058 43.945,366.185C43.945,366.393 44.087,366.599 44.372,366.804L44.704,367.05C45.147,367.368 45.463,367.695 45.655,368.03C45.849,368.366 45.946,368.758 45.946,369.207C45.946,369.971 45.713,370.601 45.247,371.098C44.781,371.594 44.191,371.842 43.477,371.842C42.985,371.842 42.457,371.733 41.894,371.515L41.894,371.515Z" style="fill:rgb(158,161,168);fill-rule:nonzero;"/>
            <path id="path4732" d="M49.576,371.706L47.48,371.706L47.48,365.803L46.323,365.803L46.323,363.943L50.778,363.943L50.778,365.803L49.576,365.803L49.576,371.706Z" style="fill:rgb(158,161,168);fill-rule:nonzero;"/>
            <path id="path4734" d="M56.525,371.706L54.428,371.706L54.428,368.584L53.428,368.584L53.428,371.706L51.331,371.706L51.331,363.943L53.428,363.943L53.428,366.688L54.428,366.688L54.428,363.943L56.525,363.943L56.525,371.706Z" style="fill:rgb(158,161,168);fill-rule:nonzero;"/>
            <rect id="path4736" x="57.606" y="363.943" width="2.097" height="7.763" style="fill:rgb(158,161,168);fill-rule:nonzero;"/>
        </g>
        <g id="text4987">
        </g>
        <g id="text1042">
        </g>
        <path id="rect4778-3-6-0-3" d="M14.95,268L75.05,268C77.792,268 80,270.207 80,272.949L80,305.05C80,307.792 77.792,310 75.05,310L14.95,310C12.208,310 10,307.792 10,305.05L10,272.949C10,270.207 12.208,268 14.95,268Z" style="fill:rgb(179,179,179);fill-rule:nonzero;"/>
        <g id="text1328" transform="matrix(1,0,0,1,0,-30)">
            <path id="path1408" d="M27.193,335.391L25.099,335.391L25.099,329.76L27.193,329.76L27.193,335.391ZM27.37,328.016C27.37,328.345 27.25,328.63 27.01,328.87C26.764,329.106 26.477,329.224 26.151,329.224C25.814,329.224 25.526,329.104 25.286,328.865C25.05,328.618 24.932,328.33 24.932,328C24.932,327.663 25.05,327.377 25.286,327.141C25.533,326.905 25.819,326.786 26.146,326.786C26.49,326.786 26.78,326.906 27.016,327.146C27.252,327.382 27.37,327.672 27.37,328.016L27.37,328.016Z" style="fill:rgb(44,45,48);fill-rule:nonzero;"/>
            <path id="path1410" d="M33.12,335.391L31.031,335.391L31.031,332.411C31.031,332.155 31.005,331.976 30.953,331.875C30.905,331.774 30.818,331.724 30.693,331.724C30.401,331.724 30.255,332 30.255,332.552L30.255,335.391L28.167,335.391L28.167,329.76L30.255,329.76C30.252,329.899 30.248,330.028 30.245,330.146C30.241,330.264 30.236,330.373 30.229,330.474L30.208,330.833C30.545,330.038 31.038,329.641 31.688,329.641C32.139,329.641 32.49,329.809 32.74,330.146C32.993,330.483 33.12,330.951 33.12,331.552L33.12,335.391Z" style="fill:rgb(44,45,48);fill-rule:nonzero;"/>
            <path id="path1412" d="M37.089,334.927L37.849,333.365C38.224,333.757 38.573,333.953 38.896,333.953C39.167,333.953 39.302,333.856 39.302,333.661C39.302,333.495 39.12,333.345 38.755,333.214C37.773,332.866 37.281,332.316 37.281,331.562C37.281,331.01 37.5,330.552 37.937,330.187C38.378,329.823 38.929,329.641 39.589,329.641C40.13,329.641 40.689,329.793 41.266,330.099L40.552,331.625C40.201,331.295 39.915,331.13 39.693,331.13C39.474,331.13 39.365,331.219 39.365,331.396C39.365,331.587 39.573,331.766 39.99,331.932C40.51,332.137 40.865,332.354 41.052,332.583C41.25,332.812 41.349,333.128 41.349,333.531C41.349,334.111 41.139,334.585 40.719,334.953C40.299,335.321 39.759,335.505 39.099,335.505C38.783,335.505 38.469,335.465 38.156,335.385C38.01,335.347 37.851,335.29 37.677,335.214C37.503,335.134 37.307,335.038 37.089,334.927L37.089,334.927Z" style="fill:rgb(44,45,48);fill-rule:nonzero;"/>
            <path id="path1414" d="M44.151,335.391L42.057,335.391L42.057,329.76L44.151,329.76L44.151,335.391ZM44.328,328.016C44.328,328.345 44.208,328.63 43.969,328.87C43.722,329.106 43.436,329.224 43.109,329.224C42.773,329.224 42.484,329.104 42.245,328.865C42.009,328.618 41.891,328.33 41.891,328C41.891,327.663 42.009,327.377 42.245,327.141C42.491,326.905 42.778,326.786 43.104,326.786C43.448,326.786 43.738,326.906 43.974,327.146C44.21,327.382 44.328,327.672 44.328,328.016L44.328,328.016Z" style="fill:rgb(44,45,48);fill-rule:nonzero;"/>
            <path id="path1416" d="M50.104,329.76L50.104,335.552C50.104,335.993 50.043,336.375 49.922,336.698C49.8,336.997 49.602,337.252 49.328,337.464C48.866,337.821 48.28,338 47.568,338C46.8,338 46.212,337.835 45.802,337.505C45.392,337.175 45.139,336.661 45.042,335.964L47.177,335.964C47.191,336.269 47.337,336.422 47.615,336.422C47.792,336.422 47.917,336.359 47.99,336.234C48.063,336.113 48.099,335.91 48.099,335.625L48.099,334.734C47.727,335.22 47.29,335.464 46.786,335.464C46.241,335.464 45.8,335.198 45.464,334.667C45.13,334.135 44.964,333.437 44.964,332.573C44.964,331.712 45.13,331.007 45.464,330.458C45.8,329.913 46.236,329.641 46.771,329.641C47.017,329.641 47.233,329.703 47.417,329.828C47.608,329.957 47.814,330.181 48.036,330.5L47.995,329.76L50.104,329.76ZM48.078,332.557C48.078,331.745 47.929,331.339 47.63,331.339C47.293,331.339 47.125,331.734 47.125,332.526C47.125,333.342 47.288,333.75 47.615,333.75C47.924,333.75 48.078,333.352 48.078,332.557Z" style="fill:rgb(44,45,48);fill-rule:nonzero;"/>
            <path id="path1418" d="M56.016,335.391L53.927,335.391L53.927,332.411C53.927,332.155 53.901,331.976 53.849,331.875C53.8,331.774 53.714,331.724 53.589,331.724C53.297,331.724 53.151,332 53.151,332.552L53.151,335.391L51.063,335.391L51.063,329.76L53.151,329.76C53.148,329.899 53.144,330.028 53.14,330.146C53.137,330.264 53.132,330.373 53.125,330.474L53.104,330.833C53.441,330.038 53.934,329.641 54.583,329.641C55.035,329.641 55.385,329.809 55.635,330.146C55.889,330.483 56.016,330.951 56.016,331.552L56.016,335.391Z" style="fill:rgb(44,45,48);fill-rule:nonzero;"/>
            <path id="path1420" d="M62.005,335.391L59.911,335.391C59.929,335.203 59.943,335.024 59.953,334.854C59.963,334.684 59.974,334.547 59.985,334.443C59.623,335.151 59.139,335.505 58.531,335.505C58.004,335.505 57.585,335.241 57.276,334.714C56.971,334.189 56.818,333.464 56.818,332.536C56.818,331.641 56.976,330.936 57.292,330.422C57.608,329.901 58.038,329.641 58.583,329.641C59.143,329.641 59.594,329.977 59.938,330.651C59.931,330.582 59.925,330.521 59.922,330.469C59.919,330.417 59.915,330.373 59.912,330.339L59.891,330.01L59.875,329.76L62.005,329.76L62.005,335.391ZM59.891,332.505C59.891,332.297 59.882,332.12 59.865,331.974C59.851,331.828 59.826,331.71 59.792,331.62C59.757,331.526 59.712,331.46 59.656,331.422C59.601,331.38 59.533,331.359 59.453,331.359C59.099,331.359 58.922,331.83 58.922,332.771C58.922,333.444 59.08,333.781 59.396,333.781C59.726,333.781 59.891,333.356 59.891,332.505L59.891,332.505Z" style="fill:rgb(44,45,48);fill-rule:nonzero;"/>
            <rect id="path1422" x="62.979" y="326.594" width="2.089" height="8.797" style="fill:rgb(44,45,48);fill-rule:nonzero;"/>
        </g>
        <path id="rect1343" d="M19.487,179.5L70.513,179.5C75.769,179.5 80,183.731 80,188.987L80,250.513C80,255.769 75.769,260 70.513,260L19.487,260C14.231,260 10,255.769 10,250.513L10,188.987C10,183.731 14.231,179.5 19.487,179.5Z" style="fill:rgb(179,179,179);fill-rule:nonzero;"/>
        <g id="text1341" transform="matrix(1,0,0,1,0,-30)">
            <path id="path1372" d="M24.573,285.391L22.479,285.391L22.479,279.76L24.573,279.76L24.573,285.391ZM24.75,278.016C24.75,278.345 24.63,278.63 24.391,278.87C24.144,279.106 23.858,279.224 23.531,279.224C23.194,279.224 22.906,279.104 22.667,278.865C22.431,278.618 22.312,278.33 22.312,278C22.312,277.663 22.431,277.377 22.667,277.141C22.913,276.905 23.2,276.786 23.526,276.786C23.87,276.786 24.16,276.906 24.396,277.146C24.632,277.382 24.75,277.672 24.75,278.016Z" style="fill:rgb(44,45,48);fill-rule:nonzero;"/>
            <path id="path1374" d="M30.5,285.391L28.411,285.391L28.411,282.411C28.411,282.155 28.385,281.976 28.333,281.875C28.285,281.774 28.198,281.724 28.073,281.724C27.781,281.724 27.635,282 27.635,282.552L27.635,285.391L25.547,285.391L25.547,279.76L27.635,279.76C27.632,279.899 27.628,280.028 27.625,280.146C27.622,280.264 27.616,280.373 27.609,280.474L27.589,280.833C27.925,280.038 28.418,279.641 29.068,279.641C29.519,279.641 29.87,279.809 30.12,280.146C30.373,280.483 30.5,280.951 30.5,281.552L30.5,285.391Z" style="fill:rgb(44,45,48);fill-rule:nonzero;"/>
            <path id="path1376" d="M37.922,285.391L35.74,285.391L34.187,279.76L36.302,279.76L36.625,281.406C36.67,281.618 36.712,281.882 36.75,282.198C36.788,282.51 36.826,282.885 36.865,283.323C36.913,282.924 36.96,282.576 37.005,282.281C37.05,281.986 37.095,281.733 37.141,281.521L37.5,279.76L39.562,279.76L37.922,285.391Z" style="fill:rgb(44,45,48);fill-rule:nonzero;"/>
            <path id="path1378" d="M45.016,282.661C45.016,283.53 44.776,284.22 44.297,284.734C43.818,285.248 43.175,285.505 42.37,285.505C41.578,285.505 40.948,285.243 40.479,284.719C40.014,284.191 39.781,283.483 39.781,282.594C39.781,281.705 40.019,280.991 40.495,280.453C40.967,279.911 41.594,279.641 42.375,279.641C43.198,279.641 43.844,279.91 44.312,280.448C44.781,280.986 45.016,281.724 45.016,282.661ZM42.99,282.594C42.99,282.385 42.976,282.198 42.948,282.031C42.92,281.861 42.88,281.717 42.828,281.599C42.776,281.477 42.714,281.384 42.641,281.318C42.568,281.252 42.486,281.219 42.396,281.219C42.219,281.219 42.076,281.344 41.969,281.594C41.861,281.813 41.807,282.141 41.807,282.578C41.807,283.009 41.861,283.337 41.969,283.563C42.076,283.813 42.22,283.938 42.401,283.938C42.571,283.938 42.712,283.814 42.823,283.568C42.934,283.293 42.99,282.969 42.99,282.594L42.99,282.594Z" style="fill:rgb(44,45,48);fill-rule:nonzero;"/>
            <rect id="path1381" x="45.818" y="276.594" width="2.089" height="8.797" style="fill:rgb(44,45,48);fill-rule:nonzero;"/>
            <path id="path1383" d="M51.255,285.391L49.161,285.391L49.161,281.443L48.568,281.443L48.568,279.76L49.161,279.76L49.161,278.104L51.255,278.104L51.255,279.76L51.948,279.76L51.948,281.443L51.255,281.443L51.255,285.391Z" style="fill:rgb(44,45,48);fill-rule:nonzero;"/>
            <path id="path1385" d="M57.635,285.391L55.542,285.391C55.559,285.203 55.573,285.024 55.583,284.854C55.594,284.684 55.604,284.547 55.615,284.443C55.254,285.151 54.769,285.505 54.162,285.505C53.634,285.505 53.215,285.241 52.906,284.714C52.601,284.189 52.448,283.464 52.448,282.536C52.448,281.641 52.606,280.936 52.922,280.422C53.238,279.901 53.669,279.641 54.214,279.641C54.773,279.641 55.224,279.977 55.568,280.651C55.561,280.582 55.556,280.521 55.552,280.469C55.549,280.417 55.545,280.373 55.542,280.339L55.521,280.01L55.505,279.76L57.636,279.76L57.635,285.391ZM55.521,282.505C55.521,282.297 55.512,282.12 55.495,281.974C55.481,281.828 55.457,281.71 55.422,281.62C55.387,281.526 55.342,281.46 55.286,281.422C55.231,281.38 55.163,281.359 55.083,281.359C54.729,281.359 54.552,281.83 54.552,282.771C54.552,283.444 54.71,283.781 55.026,283.781C55.356,283.781 55.521,283.356 55.521,282.505L55.521,282.505Z" style="fill:rgb(44,45,48);fill-rule:nonzero;"/>
            <path id="path1387" d="M63.589,279.76L63.589,285.552C63.589,285.993 63.528,286.375 63.406,286.698C63.285,286.997 63.087,287.252 62.813,287.464C62.351,287.821 61.764,288 61.052,288C60.285,288 59.696,287.835 59.286,287.505C58.877,287.175 58.623,286.661 58.526,285.964L60.661,285.964C60.675,286.269 60.821,286.422 61.099,286.422C61.276,286.422 61.401,286.359 61.474,286.234C61.547,286.113 61.583,285.91 61.583,285.625L61.583,284.734C61.212,285.22 60.774,285.464 60.271,285.464C59.726,285.464 59.285,285.198 58.948,284.667C58.615,284.135 58.448,283.437 58.448,282.573C58.448,281.712 58.615,281.007 58.948,280.458C59.285,279.913 59.72,279.641 60.255,279.641C60.502,279.641 60.717,279.703 60.901,279.828C61.092,279.957 61.299,280.181 61.521,280.5L61.479,279.76L63.589,279.76ZM61.562,282.557C61.562,281.745 61.413,281.339 61.115,281.339C60.778,281.339 60.609,281.734 60.609,282.526C60.609,283.342 60.773,283.75 61.099,283.75C61.408,283.75 61.562,283.352 61.562,282.557Z" style="fill:rgb(44,45,48);fill-rule:nonzero;"/>
            <path id="path1389" d="M67.51,283.484L69.552,283.526C69.406,284.182 69.122,284.677 68.698,285.01C68.278,285.34 67.727,285.505 67.047,285.505C66.241,285.505 65.609,285.255 65.151,284.755C64.696,284.248 64.469,283.556 64.469,282.677C64.469,281.785 64.714,281.057 65.203,280.495C65.693,279.929 66.325,279.646 67.099,279.646C67.87,279.646 68.484,279.918 68.943,280.464C69.401,281.012 69.63,281.74 69.63,282.646L69.62,283.016L66.557,283.016C66.581,283.592 66.745,283.88 67.047,283.88C67.283,283.88 67.437,283.748 67.51,283.484L67.51,283.484ZM67.557,281.891C67.557,281.786 67.545,281.691 67.521,281.604C67.497,281.517 67.462,281.443 67.417,281.38C67.375,281.318 67.325,281.269 67.266,281.234C67.207,281.196 67.143,281.177 67.073,281.177C66.927,281.177 66.809,281.245 66.719,281.38C66.629,281.512 66.583,281.682 66.583,281.891L67.557,281.891Z" style="fill:rgb(44,45,48);fill-rule:nonzero;"/>
        </g>
        <g id="text1347" transform="matrix(1,0,0,1,0,-30)">
            <path id="path1357" d="M37.365,222.177C37.365,223.597 37.207,224.606 36.891,225.203C36.575,225.8 36.045,226.099 35.302,226.099C34.521,226.099 33.97,225.778 33.651,225.135C33.335,224.507 33.177,223.391 33.177,221.786C33.177,220.356 33.333,219.344 33.646,218.75C33.962,218.153 34.497,217.854 35.25,217.854C35.924,217.854 36.424,218.085 36.75,218.547C36.965,218.856 37.122,219.295 37.219,219.865C37.316,220.392 37.365,221.163 37.365,222.177ZM36.229,222.292C36.229,220.899 36.167,219.976 36.042,219.521C35.917,219.062 35.661,218.833 35.276,218.833C34.891,218.833 34.634,219.043 34.505,219.464C34.38,219.887 34.318,220.738 34.318,222.016C34.318,223.193 34.384,224.009 34.516,224.464C34.651,224.894 34.905,225.109 35.276,225.109C35.641,225.109 35.891,224.908 36.026,224.505C36.161,224.106 36.229,223.368 36.229,222.292L36.229,222.292Z" style="fill:rgb(44,45,48);fill-rule:nonzero;"/>
            <path id="path1359" d="M41.599,218.089L41.599,219.062C41.321,218.927 41.089,218.859 40.901,218.859C40.644,218.859 40.424,218.924 40.24,219.052C40.056,219.177 39.903,219.372 39.781,219.635C39.663,219.899 39.575,220.234 39.516,220.641C39.46,221.043 39.432,221.521 39.432,222.073C39.432,224.059 39.941,225.052 40.958,225.052C41.135,225.052 41.349,224.997 41.599,224.885L41.599,225.88C41.339,226.026 41.047,226.099 40.724,226.099C39.095,226.099 38.281,224.769 38.281,222.109C38.281,220.672 38.479,219.602 38.875,218.901C39.274,218.2 39.884,217.849 40.703,217.849C41.005,217.849 41.304,217.929 41.599,218.089L41.599,218.089Z" style="fill:rgb(44,45,48);fill-rule:nonzero;"/>
            <path id="path1361" d="M41.865,217.958L45.391,217.958L45.391,218.906L44.177,218.906L44.177,226L43.115,226L43.115,218.906L41.865,218.906L41.865,217.958Z" style="fill:rgb(44,45,48);fill-rule:nonzero;"/>
            <path id="path1364" d="M46.984,217.958L47.828,217.958L49.552,226L48.479,226L48.177,224.432L46.583,224.432L46.276,226L45.234,226L46.984,217.958ZM48.021,223.594L47.781,222.312C47.622,221.441 47.491,220.51 47.391,219.521C47.342,220.003 47.28,220.493 47.203,220.99C47.127,221.483 47.036,222.007 46.932,222.562L46.734,223.594L48.021,223.594Z" style="fill:rgb(44,45,48);fill-rule:nonzero;"/>
            <path id="path1366" d="M49.365,217.958L50.432,217.958L50.917,220.927L51,221.464L51.172,222.63C51.2,222.828 51.224,223.009 51.245,223.172C51.269,223.335 51.29,223.483 51.307,223.615L51.359,224.01C51.37,223.931 51.378,223.859 51.385,223.797C51.392,223.734 51.399,223.682 51.406,223.641L51.547,222.708L51.729,221.484C51.747,221.373 51.762,221.271 51.776,221.177C51.793,221.083 51.809,221 51.823,220.927L52.344,217.958L53.354,217.958L51.776,226L50.917,226L49.365,217.958Z" style="fill:rgb(44,45,48);fill-rule:nonzero;"/>
            <path id="path1368" d="M53.943,217.958L56.823,217.958L56.823,218.875L55.026,218.875L55.026,221.422L56.62,221.422L56.62,222.339L55.026,222.339L55.026,225.083L56.823,225.083L56.823,226L53.943,226L53.943,217.958Z" style="fill:rgb(44,45,48);fill-rule:nonzero;"/>
        </g>
        <g id="text1333" transform="matrix(1,0,0,1,0,-8)">
            <path id="path1370" d="M24.964,109.625L28.49,109.625L28.49,110.573L27.276,110.573L27.276,117.667L26.214,117.667L26.214,110.573L24.964,110.573L24.964,109.625Z" style="fill:rgb(158,161,168);fill-rule:nonzero;"/>
            <path id="path1379" d="M29.083,109.625L30.146,109.625L30.146,115.307C30.146,115.887 30.198,116.273 30.302,116.464C30.41,116.655 30.622,116.75 30.938,116.75C31.253,116.75 31.462,116.667 31.563,116.5C31.667,116.33 31.719,115.984 31.719,115.464L31.719,109.625L32.781,109.625L32.781,115.464C32.781,116.339 32.648,116.931 32.38,117.24C32.061,117.59 31.573,117.766 30.917,117.766C30.194,117.766 29.686,117.54 29.391,117.089C29.186,116.779 29.083,116.186 29.083,115.307L29.083,109.625Z" style="fill:rgb(158,161,168);fill-rule:nonzero;"/>
            <path id="path1391" d="M34.021,109.625L35.031,109.625L36.109,112.833C36.422,113.74 36.698,114.707 36.938,115.734C36.851,115.113 36.786,114.55 36.745,114.047C36.703,113.543 36.682,113.069 36.682,112.625L36.682,109.625L37.771,109.625L37.771,117.667L36.755,117.667L35.542,114.047C35.431,113.71 35.325,113.365 35.224,113.01C35.127,112.656 35.036,112.285 34.953,111.896C34.946,111.847 34.934,111.788 34.917,111.719C34.903,111.649 34.885,111.569 34.865,111.479C34.875,111.569 34.884,111.648 34.891,111.714C34.898,111.776 34.903,111.83 34.906,111.875L34.964,112.693L35.021,113.688C35.024,113.743 35.026,113.811 35.026,113.891C35.03,113.97 35.031,114.061 35.031,114.161L35.089,117.667L34.021,117.667L34.021,109.625Z" style="fill:rgb(158,161,168);fill-rule:nonzero;"/>
            <path id="path1400" d="M39.021,109.625L41.901,109.625L41.901,110.542L40.104,110.542L40.104,113.089L41.698,113.089L41.698,114.005L40.104,114.005L40.104,116.75L41.901,116.75L41.901,117.667L39.021,117.667L39.021,109.625Z" style="fill:rgb(158,161,168);fill-rule:nonzero;"/>
            <path id="path1402" d="M46.25,109.625L47.094,109.625L48.818,117.667L47.745,117.667L47.443,116.099L45.849,116.099L45.542,117.667L44.5,117.667L46.25,109.625ZM47.286,115.26L47.047,113.979C46.887,113.108 46.757,112.177 46.656,111.187C46.608,111.67 46.545,112.16 46.469,112.656C46.392,113.149 46.302,113.674 46.198,114.229L46,115.26L47.286,115.26Z" style="fill:rgb(158,161,168);fill-rule:nonzero;"/>
            <path id="path1404" d="M52.641,108.693L53.698,108.948C53.08,110.91 52.771,112.674 52.771,114.24C52.771,116.007 53.08,117.835 53.698,119.724L52.641,120C51.981,118.118 51.651,116.226 51.651,114.323C51.651,112.378 51.981,110.502 52.641,108.693Z" style="fill:rgb(158,161,168);fill-rule:nonzero;"/>
            <path id="path1406" d="M54.792,109.625L55.875,109.625L55.875,116.75L57.646,116.75L57.646,117.667L54.792,117.667L54.792,109.625Z" style="fill:rgb(158,161,168);fill-rule:nonzero;"/>
            <path id="path1409" d="M59.917,109.625L60.76,109.625L62.484,117.667L61.411,117.667L61.109,116.099L59.516,116.099L59.208,117.667L58.167,117.667L59.917,109.625ZM60.953,115.26L60.714,113.979C60.554,113.108 60.424,112.177 60.323,111.187C60.274,111.67 60.212,112.16 60.135,112.656C60.059,113.149 59.969,113.674 59.865,114.229L59.667,115.26L60.953,115.26Z" style="fill:rgb(158,161,168);fill-rule:nonzero;"/>
            <path id="path1411" d="M64.047,120L62.99,119.745C63.608,117.783 63.917,116.021 63.917,114.458C63.917,112.694 63.608,110.865 62.99,108.969L64.047,108.693C64.707,110.578 65.036,112.472 65.036,114.375C65.036,116.316 64.707,118.191 64.047,120Z" style="fill:rgb(158,161,168);fill-rule:nonzero;"/>
        </g>
        <g id="text1337" transform="matrix(1,0,0,1,0,-18)">
            <path id="path1340" d="M22.49,161.859L23.552,161.859L23.552,167.542C23.552,168.122 23.604,168.507 23.708,168.698C23.816,168.889 24.028,168.984 24.344,168.984C24.66,168.984 24.868,168.901 24.969,168.734C25.073,168.564 25.125,168.219 25.125,167.698L25.125,161.859L26.187,161.859L26.187,167.698C26.187,168.573 26.054,169.165 25.786,169.474C25.467,169.825 24.979,170 24.323,170C23.601,170 23.092,169.774 22.797,169.323C22.592,169.014 22.49,168.42 22.49,167.542L22.49,161.859Z" style="fill:rgb(158,161,168);fill-rule:nonzero;"/>
            <path id="path1343" d="M30.109,162.026L30.109,163.083C29.78,162.847 29.483,162.729 29.219,162.729C28.934,162.729 28.701,162.83 28.521,163.031C28.34,163.222 28.25,163.477 28.25,163.797C28.25,164.078 28.314,164.319 28.443,164.521C28.509,164.628 28.616,164.767 28.766,164.937C28.918,165.108 29.115,165.312 29.354,165.552C29.795,166 30.095,166.387 30.255,166.714C30.415,167.03 30.495,167.417 30.495,167.875C30.495,168.497 30.319,169.009 29.969,169.411C29.618,169.804 29.168,170 28.62,170C28.158,170 27.764,169.873 27.437,169.62L27.437,168.547C27.823,168.828 28.174,168.969 28.49,168.969C28.785,168.969 29.016,168.872 29.182,168.677C29.349,168.479 29.432,168.212 29.432,167.875C29.432,167.583 29.368,167.321 29.24,167.089C29.174,166.977 29.082,166.851 28.964,166.708C28.845,166.562 28.698,166.401 28.521,166.224C28.247,165.953 28.019,165.714 27.839,165.505C27.658,165.297 27.524,165.115 27.438,164.958C27.271,164.653 27.187,164.267 27.187,163.802C27.187,163.174 27.351,162.675 27.677,162.307C28.007,161.936 28.45,161.75 29.005,161.75C29.391,161.75 29.759,161.842 30.109,162.026L30.109,162.026Z" style="fill:rgb(158,161,168);fill-rule:nonzero;"/>
            <path id="path1345" d="M31.406,161.859L34.286,161.859L34.286,162.776L32.49,162.776L32.49,165.323L34.083,165.323L34.083,166.24L32.49,166.24L32.49,168.984L34.286,168.984L34.286,169.901L31.406,169.901L31.406,161.859Z" style="fill:rgb(158,161,168);fill-rule:nonzero;"/>
            <path id="path1347" d="M37.49,161.859L38.823,161.859C39.229,161.859 39.571,161.905 39.849,161.995C40.106,162.082 40.335,162.236 40.536,162.458C40.839,162.792 41.054,163.226 41.182,163.76C41.311,164.278 41.375,165.019 41.375,165.984C41.375,166.87 41.304,167.592 41.161,168.151C41.023,168.686 40.793,169.094 40.474,169.375C40.082,169.726 39.378,169.901 38.365,169.901L37.49,169.901L37.49,161.859ZM38.573,168.953C39.233,168.953 39.674,168.753 39.896,168.354C40.125,167.955 40.24,167.179 40.24,166.026C40.24,164.786 40.13,163.934 39.911,163.469C39.693,163.003 39.292,162.771 38.708,162.771L38.573,162.771L38.573,168.953Z" style="fill:rgb(158,161,168);fill-rule:nonzero;"/>
            <path id="path1349" d="M46.474,166.078C46.474,167.498 46.316,168.507 46,169.104C45.684,169.701 45.155,170 44.411,170C43.63,170 43.08,169.679 42.76,169.036C42.444,168.408 42.286,167.292 42.286,165.687C42.286,164.257 42.443,163.245 42.755,162.651C43.071,162.054 43.606,161.755 44.359,161.755C45.033,161.755 45.533,161.986 45.859,162.448C46.075,162.757 46.231,163.196 46.328,163.766C46.425,164.293 46.474,165.064 46.474,166.078L46.474,166.078ZM45.339,166.193C45.339,164.8 45.276,163.877 45.151,163.422C45.026,162.964 44.771,162.734 44.385,162.734C44,162.734 43.743,162.944 43.615,163.365C43.49,163.788 43.427,164.639 43.427,165.917C43.427,167.094 43.493,167.91 43.625,168.365C43.76,168.795 44.014,169.01 44.385,169.01C44.75,169.01 45,168.809 45.135,168.406C45.271,168.007 45.339,167.269 45.339,166.193Z" style="fill:rgb(158,161,168);fill-rule:nonzero;"/>
            <path id="path1351" d="M49.76,161.859L51.188,161.859C51.778,161.859 52.217,162 52.505,162.281C52.87,162.646 53.052,163.203 53.052,163.953C53.052,164.53 52.955,164.993 52.76,165.344C52.569,165.691 52.295,165.906 51.938,165.99L53.417,169.901L52.318,169.901L50.844,165.964L50.844,169.901L49.76,169.901L49.76,161.859ZM50.844,165.422C51.264,165.422 51.561,165.325 51.734,165.13C51.908,164.936 51.995,164.608 51.995,164.146C51.995,163.896 51.976,163.682 51.937,163.505C51.903,163.328 51.845,163.184 51.766,163.073C51.689,162.962 51.589,162.88 51.464,162.828C51.342,162.776 51.196,162.75 51.026,162.75L50.844,162.75L50.844,165.422Z" style="fill:rgb(158,161,168);fill-rule:nonzero;"/>
            <path id="path1353" d="M54.26,161.859L57.141,161.859L57.141,162.776L55.344,162.776L55.344,165.323L56.937,165.323L56.937,166.24L55.344,166.24L55.344,168.984L57.141,168.984L57.141,169.901L54.26,169.901L54.26,161.859Z" style="fill:rgb(158,161,168);fill-rule:nonzero;"/>
            <path id="path1355" d="M60.724,161.859L61.651,161.859L62.359,165.141C62.446,165.55 62.524,165.962 62.594,166.375C62.667,166.785 62.733,167.215 62.792,167.667C62.799,167.608 62.804,167.562 62.807,167.531C62.811,167.497 62.814,167.472 62.818,167.458L62.969,166.536L63.104,165.661L63.224,165.083L63.854,161.859L64.792,161.859L65.531,169.901L64.495,169.901L64.313,167.172C64.305,167.033 64.299,166.913 64.292,166.813C64.288,166.712 64.286,166.628 64.286,166.563L64.24,165.484L64.214,164.495C64.214,164.488 64.212,164.474 64.208,164.453C64.208,164.429 64.206,164.398 64.203,164.359L64.177,164.521C64.149,164.712 64.123,164.878 64.099,165.021C64.078,165.163 64.059,165.283 64.041,165.38L63.906,166.115L63.854,166.391L63.177,169.901L62.448,169.901L61.812,166.87C61.725,166.47 61.647,166.066 61.578,165.656C61.512,165.243 61.451,164.811 61.396,164.359L61.083,169.901L60.062,169.901L60.724,161.859Z" style="fill:rgb(158,161,168);fill-rule:nonzero;"/>
            <rect id="path1362" x="66.427" y="161.859" width="1.083" height="8.042" style="fill:rgb(158,161,168);fill-rule:nonzero;"/>
        </g>
        <g id="text1353">
            <path id="path1407" d="M19.258,17.789L16,17.789L16,12.937L14.445,12.937L14.445,17.789L11.187,17.789L11.187,5.727L14.445,5.727L14.445,9.992L16,9.992L16,5.727L19.258,5.727L19.258,17.789Z" style="fill:rgb(158,161,168);fill-rule:nonzero;"/>
            <path id="path1413" d="M29.805,11.797C29.805,13.635 29.385,15.13 28.547,16.281C27.714,17.427 26.628,18 25.289,18C24.102,18 23.083,17.56 22.234,16.68C21.167,15.565 20.633,13.893 20.633,11.664C20.633,9.529 21.19,7.896 22.305,6.766C23.133,5.927 24.115,5.508 25.25,5.508C26.641,5.508 27.747,6.076 28.57,7.211C29.393,8.346 29.805,9.875 29.805,11.797ZM26.422,11.82C26.422,9.638 26.036,8.547 25.266,8.547C24.88,8.547 24.573,8.833 24.344,9.406C24.12,9.937 24.008,10.719 24.008,11.75C24.008,12.766 24.112,13.555 24.32,14.117C24.534,14.674 24.828,14.953 25.203,14.953C25.589,14.953 25.885,14.677 26.094,14.125C26.312,13.573 26.422,12.805 26.422,11.82L26.422,11.82Z" style="fill:rgb(158,161,168);fill-rule:nonzero;"/>
            <path id="path1415" d="M35.492,17.789L32.234,17.789L32.234,8.617L30.438,8.617L30.438,5.727L37.359,5.727L37.359,8.617L35.492,8.617L35.492,17.789Z" style="fill:rgb(158,161,168);fill-rule:nonzero;"/>
            <path id="path1417" d="M47.242,17.789L43.984,17.789L43.984,8.617L42.187,8.617L42.187,5.727L49.109,5.727L49.109,8.617L47.242,8.617L47.242,17.789Z" style="fill:rgb(158,161,168);fill-rule:nonzero;"/>
            <path id="path1419" d="M54.891,5.727L58.148,5.727L58.148,14.258C58.148,14.971 58.036,15.549 57.813,15.992C57.594,16.456 57.229,16.875 56.719,17.25C56.031,17.75 55.195,18 54.211,18C53.096,18 52.161,17.724 51.406,17.172C50.448,16.469 49.969,15.344 49.969,13.797L49.969,5.727L53.227,5.727L53.227,13.508C53.227,14.034 53.289,14.406 53.414,14.625C53.544,14.844 53.76,14.953 54.063,14.953C54.375,14.953 54.591,14.852 54.711,14.648C54.831,14.435 54.891,14.057 54.891,13.516L54.891,5.727Z" style="fill:rgb(158,161,168);fill-rule:nonzero;"/>
            <path id="path1421" d="M59.844,17.789L59.844,5.727L62.953,5.727L64.586,9.961C64.674,10.211 64.773,10.497 64.883,10.82C64.997,11.143 65.122,11.516 65.258,11.937L65.594,13C65.474,11.953 65.383,11.057 65.32,10.312C65.258,9.568 65.227,8.943 65.227,8.437L65.227,5.727L68.336,5.727L68.336,17.789L65.227,17.789L63.586,13.352C63.414,12.878 63.258,12.435 63.117,12.023C62.982,11.607 62.862,11.211 62.758,10.836C62.826,11.685 62.875,12.424 62.906,13.055C62.937,13.685 62.953,14.237 62.953,14.711L62.953,17.789L59.844,17.789Z" style="fill:rgb(158,161,168);fill-rule:nonzero;"/>
            <path id="path1423" d="M78.812,17.789L75.445,17.789L75.203,16.258L73.008,16.258L72.742,17.789L69.375,17.789L72.273,5.727L76.258,5.727L78.812,17.789ZM74.82,13.672L74.609,12.266C74.604,12.26 74.594,12.19 74.578,12.055C74.568,11.94 74.513,11.487 74.414,10.695C74.404,10.607 74.391,10.487 74.375,10.336C74.359,10.18 74.338,9.984 74.312,9.75L74.211,8.609C74.2,8.719 74.185,8.841 74.164,8.977C74.148,9.112 74.13,9.26 74.109,9.422C74.073,9.745 74.047,9.969 74.031,10.094C74.015,10.219 74.005,10.294 74,10.32L73.773,11.781L73.445,13.672L74.82,13.672Z" style="fill:rgb(158,161,168);fill-rule:nonzero;"/>
        </g>
        <path id="path1424" d="M14.95,318L75.05,318C77.792,318 80,320.207 80,322.949L80,355.05C80,357.792 77.792,360 75.05,360L14.95,360C12.208,360 10,357.792 10,355.05L10,322.949C10,320.207 12.208,318 14.95,318Z" style="fill:rgb(179,179,179);fill-rule:nonzero;"/>
        <g id="text1446" transform="matrix(0.919614,0,0,1.08741,0,0)">
            <path id="path1463" d="M18.787,326.913L16.867,326.913L16.867,323.283L16.311,323.283L16.311,321.736L16.867,321.736L16.867,320.783C16.867,320.115 17.01,319.609 17.298,319.264C17.588,318.919 18.013,318.747 18.572,318.747C18.85,318.747 19.151,318.792 19.477,318.881L19.477,320.663C19.308,320.541 19.177,320.481 19.084,320.481C18.886,320.481 18.787,320.658 18.787,321.012L18.787,321.736L19.477,321.736L19.477,323.283L18.787,323.283L18.787,326.913Z" style="fill:rgb(44,45,48);fill-rule:nonzero;"/>
            <path id="path1466" d="M21.901,326.913L19.98,326.913L19.98,321.736L21.901,321.736L21.8,322.746C22.091,321.99 22.571,321.611 23.242,321.611L23.242,323.767C23.031,323.652 22.852,323.594 22.705,323.594C22.447,323.594 22.247,323.688 22.107,323.877C21.969,324.062 21.901,324.333 21.901,324.691L21.901,326.913Z" style="fill:rgb(44,45,48);fill-rule:nonzero;"/>
            <path id="path1468" d="M26.518,325.16L28.395,325.199C28.261,325.802 28,326.257 27.61,326.564C27.224,326.867 26.718,327.019 26.092,327.019C25.351,327.019 24.77,326.789 24.348,326.329C23.93,325.863 23.721,325.226 23.721,324.418C23.721,323.597 23.946,322.928 24.396,322.411C24.846,321.891 25.428,321.63 26.14,321.63C26.848,321.63 27.414,321.881 27.835,322.382C28.257,322.887 28.467,323.556 28.467,324.389L28.458,324.729L25.641,324.729C25.664,325.259 25.814,325.524 26.092,325.524C26.309,325.524 26.451,325.403 26.518,325.16L26.518,325.16ZM26.561,323.695C26.561,323.599 26.55,323.511 26.528,323.431C26.505,323.351 26.473,323.283 26.432,323.225C26.393,323.168 26.347,323.123 26.293,323.091C26.239,323.056 26.179,323.039 26.116,323.039C25.982,323.039 25.873,323.101 25.79,323.225C25.707,323.347 25.665,323.503 25.665,323.695L26.561,323.695Z" style="fill:rgb(44,45,48);fill-rule:nonzero;"/>
            <path id="path1470" d="M31.892,329.222L31.892,327.067L31.892,326.813C31.892,326.701 31.895,326.602 31.902,326.516C31.908,326.426 31.919,326.324 31.935,326.209C31.587,326.749 31.18,327.019 30.714,327.019C30.209,327.019 29.808,326.778 29.511,326.295C29.215,325.813 29.066,325.159 29.066,324.332C29.066,323.517 29.221,322.864 29.531,322.373C29.84,321.875 30.246,321.626 30.747,321.626C30.881,321.626 31.003,321.642 31.111,321.673C31.223,321.702 31.327,321.75 31.423,321.817C31.518,321.884 31.608,321.972 31.691,322.081C31.774,322.186 31.855,322.315 31.935,322.469L31.892,321.736L33.813,321.736L33.813,329.222L31.892,329.222ZM31.054,324.255C31.054,325.021 31.209,325.405 31.518,325.405C31.806,325.405 31.949,325.036 31.949,324.298C31.949,323.57 31.801,323.206 31.504,323.206C31.367,323.206 31.257,323.299 31.173,323.484C31.094,323.669 31.054,323.926 31.054,324.255L31.054,324.255Z" style="fill:rgb(44,45,48);fill-rule:nonzero;"/>
            <path id="path1472" d="M39.848,326.913L37.922,326.913L37.922,323.283L37.376,323.283L37.376,321.736L37.922,321.736L37.922,320.213L39.848,320.213L39.848,321.736L40.485,321.736L40.485,323.283L39.848,323.283L39.848,326.913Z" style="fill:rgb(44,45,48);fill-rule:nonzero;"/>
            <path id="path1474" d="M45.72,324.404C45.72,325.202 45.499,325.837 45.059,326.31C44.618,326.782 44.027,327.019 43.287,327.019C42.559,327.019 41.979,326.778 41.548,326.295C41.12,325.81 40.906,325.159 40.906,324.341C40.906,323.524 41.125,322.868 41.562,322.373C41.997,321.875 42.573,321.626 43.291,321.626C44.048,321.626 44.642,321.873 45.073,322.368C45.504,322.863 45.72,323.541 45.72,324.404ZM43.857,324.341C43.857,324.15 43.844,323.977 43.818,323.824C43.793,323.668 43.756,323.535 43.708,323.426C43.66,323.315 43.603,323.229 43.536,323.168C43.469,323.107 43.394,323.077 43.31,323.077C43.148,323.077 43.017,323.192 42.918,323.422C42.819,323.623 42.769,323.925 42.769,324.327C42.769,324.723 42.819,325.025 42.918,325.232C43.017,325.462 43.149,325.577 43.315,325.577C43.472,325.577 43.601,325.464 43.703,325.237C43.805,324.985 43.856,324.686 43.856,324.341L43.857,324.341Z" style="fill:rgb(44,45,48);fill-rule:nonzero;"/>
            <path id="path1476" d="M52.396,326.913L50.39,326.913L48.962,321.736L50.907,321.736L51.204,323.249C51.245,323.444 51.284,323.687 51.319,323.977C51.354,324.265 51.389,324.61 51.424,325.012C51.469,324.645 51.512,324.325 51.553,324.054C51.595,323.783 51.636,323.549 51.678,323.355L52.009,321.736L53.905,321.736L52.396,326.913Z" style="fill:rgb(44,45,48);fill-rule:nonzero;"/>
            <path id="path1478" d="M58.92,324.404C58.92,325.202 58.7,325.837 58.259,326.31C57.818,326.782 57.228,327.019 56.487,327.019C55.759,327.019 55.179,326.778 54.748,326.295C54.32,325.81 54.106,325.159 54.106,324.341C54.106,323.524 54.325,322.868 54.763,322.373C55.197,321.875 55.773,321.626 56.492,321.626C57.248,321.626 57.842,321.873 58.273,322.368C58.704,322.863 58.92,323.541 58.92,324.404ZM57.057,324.341C57.057,324.15 57.044,323.977 57.018,323.824C56.993,323.668 56.956,323.535 56.908,323.426C56.86,323.315 56.803,323.229 56.736,323.168C56.669,323.107 56.594,323.077 56.511,323.077C56.348,323.077 56.217,323.192 56.118,323.422C56.019,323.623 55.97,323.925 55.97,324.327C55.97,324.723 56.019,325.025 56.118,325.232C56.217,325.462 56.35,325.577 56.516,325.577C56.672,325.577 56.801,325.464 56.904,325.237C57.006,324.985 57.057,324.686 57.057,324.341L57.057,324.341Z" style="fill:rgb(44,45,48);fill-rule:nonzero;"/>
            <rect id="path1480" x="59.658" y="318.824" width="1.921" height="8.09" style="fill:rgb(44,45,48);fill-rule:nonzero;"/>
            <path id="path1482" d="M64.658,326.913L62.733,326.913L62.733,323.283L62.187,323.283L62.187,321.736L62.733,321.736L62.733,320.213L64.658,320.213L64.658,321.736L65.295,321.736L65.295,323.283L64.658,323.283L64.658,326.913Z" style="fill:rgb(44,45,48);fill-rule:nonzero;"/>
            <path id="path1484" d="M70.525,326.913L68.6,326.913C68.616,326.741 68.629,326.576 68.638,326.42C68.648,326.264 68.657,326.137 68.667,326.042C68.335,326.693 67.889,327.019 67.331,327.019C66.845,327.019 66.46,326.776 66.176,326.291C65.895,325.809 65.755,325.141 65.755,324.289C65.755,323.465 65.9,322.817 66.191,322.344C66.481,321.865 66.877,321.626 67.379,321.626C67.893,321.626 68.308,321.935 68.624,322.555C68.618,322.491 68.613,322.435 68.609,322.387C68.606,322.339 68.603,322.299 68.6,322.267L68.581,321.966L68.566,321.736L70.525,321.736L70.525,326.913ZM68.581,324.26C68.581,324.068 68.573,323.905 68.557,323.771C68.544,323.637 68.522,323.529 68.49,323.446C68.458,323.359 68.416,323.299 68.365,323.264C68.314,323.225 68.252,323.206 68.179,323.206C67.853,323.206 67.69,323.639 67.69,324.504C67.69,325.124 67.835,325.433 68.126,325.433C68.429,325.433 68.581,325.042 68.581,324.26L68.581,324.26Z" style="fill:rgb(44,45,48);fill-rule:nonzero;"/>
            <path id="path1486" d="M76,321.736L76,327.062C76,327.467 75.944,327.819 75.832,328.116C75.721,328.39 75.539,328.625 75.286,328.82C74.862,329.149 74.322,329.313 73.667,329.313C72.962,329.313 72.42,329.161 72.044,328.858C71.667,328.555 71.434,328.082 71.344,327.44L73.308,327.44C73.321,327.721 73.455,327.862 73.71,327.862C73.873,327.862 73.988,327.804 74.055,327.689C74.122,327.578 74.156,327.391 74.156,327.129L74.156,326.31C73.814,326.757 73.412,326.98 72.949,326.98C72.448,326.98 72.042,326.736 71.732,326.248C71.426,325.759 71.273,325.117 71.273,324.322C71.273,323.53 71.426,322.882 71.732,322.378C72.042,321.876 72.443,321.626 72.935,321.626C73.161,321.626 73.359,321.683 73.528,321.798C73.704,321.916 73.894,322.122 74.098,322.416L74.06,321.736L76,321.736ZM74.137,324.308C74.137,323.561 73.999,323.187 73.725,323.187C73.415,323.187 73.26,323.551 73.26,324.279C73.26,325.029 73.41,325.405 73.71,325.405C73.995,325.405 74.137,325.039 74.137,324.308Z" style="fill:rgb(44,45,48);fill-rule:nonzero;"/>
            <path id="path1488" d="M79.607,325.16L81.484,325.199C81.35,325.802 81.088,326.257 80.699,326.564C80.312,326.867 79.806,327.019 79.18,327.019C78.439,327.019 77.858,326.789 77.437,326.329C77.019,325.863 76.809,325.226 76.809,324.418C76.809,323.597 77.034,322.928 77.485,322.411C77.935,321.891 78.516,321.63 79.228,321.63C79.937,321.63 80.502,321.881 80.924,322.382C81.345,322.887 81.556,323.556 81.556,324.389L81.546,324.729L78.73,324.729C78.752,325.259 78.903,325.524 79.18,325.524C79.397,325.524 79.539,325.403 79.607,325.16L79.607,325.16ZM79.65,323.695C79.65,323.599 79.638,323.511 79.616,323.431C79.594,323.351 79.562,323.283 79.52,323.225C79.482,323.168 79.436,323.123 79.381,323.091C79.327,323.056 79.268,323.039 79.204,323.039C79.07,323.039 78.961,323.101 78.878,323.225C78.795,323.347 78.754,323.503 78.754,323.695L79.65,323.695Z" style="fill:rgb(44,45,48);fill-rule:nonzero;"/>
        </g>
    </g>
</svg>
