<?xml version="1.0" encoding="UTF-8" standalone="no"?>
<!DOCTYPE svg PUBLIC "-//W3C//DTD SVG 1.1//EN" "http://www.w3.org/Graphics/SVG/1.1/DTD/svg11.dtd">
<svg width="100%" height="100%" viewBox="0 0 120 380" version="1.1" xmlns="http://www.w3.org/2000/svg" xmlns:xlink="http://www.w3.org/1999/xlink" xml:space="preserve" xmlns:serif="http://www.serif.com/" style="fill-rule:evenodd;clip-rule:evenodd;stroke-linejoin:round;stroke-miterlimit:2;">
    <g id="Layer-2" serif:id="Layer 2">
        <rect id="rect4689" x="0" y="0" width="120" height="380" style="fill:rgb(44,45,48);"/>
        <g id="text80" transform="matrix(0.87098,0,0,0.995047,21,6.99997)">
            <path id="path4726" d="M29.851,371.706L29.851,363.943L31.853,363.943L32.903,366.668C32.96,366.829 33.024,367.013 33.094,367.221C33.168,367.429 33.249,367.668 33.336,367.94L33.552,368.624C33.475,367.95 33.416,367.373 33.376,366.894C33.336,366.415 33.316,366.013 33.316,365.687L33.316,363.943L35.317,363.943L35.317,371.706L33.316,371.706L32.26,368.85C32.149,368.545 32.049,368.26 31.958,367.995C31.871,367.727 31.794,367.472 31.727,367.231C31.77,367.777 31.802,368.253 31.822,368.659C31.843,369.065 31.853,369.42 31.853,369.725L31.853,371.706L29.851,371.706Z" style="fill:rgb(158,161,168);fill-rule:nonzero;"/>
            <path id="path4728" d="M39.887,371.706L37.791,371.706L37.791,368.418L35.865,363.943L38.052,363.943L38.429,365.094C38.503,365.319 38.568,365.535 38.625,365.743C38.686,365.951 38.739,366.15 38.786,366.341C38.863,366.056 38.93,365.811 38.987,365.607C39.044,365.399 39.095,365.232 39.138,365.104L39.52,363.943L41.692,363.943L39.887,368.418L39.887,371.706Z" style="fill:rgb(158,161,168);fill-rule:nonzero;"/>
            <path id="path4730" d="M41.894,371.515L41.894,369.076C42.306,369.639 42.752,369.921 43.231,369.921C43.412,369.921 43.56,369.874 43.673,369.78C43.787,369.683 43.844,369.562 43.844,369.418C43.844,369.21 43.72,369.008 43.472,368.81L43.13,368.543C42.902,368.372 42.708,368.203 42.547,368.035C42.386,367.865 42.256,367.69 42.155,367.513C42.054,367.332 41.981,367.146 41.934,366.954C41.887,366.763 41.863,366.562 41.863,366.351C41.863,365.989 41.947,365.61 42.115,365.215C42.199,365.03 42.296,364.863 42.406,364.712C42.517,364.558 42.644,364.422 42.789,364.305C43.184,363.969 43.662,363.802 44.222,363.802C44.721,363.802 45.224,363.934 45.73,364.199L45.73,366.572C45.559,366.308 45.365,366.1 45.147,365.949C44.929,365.795 44.714,365.718 44.503,365.718C44.342,365.718 44.21,365.765 44.106,365.858C43.999,365.949 43.945,366.058 43.945,366.185C43.945,366.393 44.087,366.599 44.372,366.804L44.704,367.05C45.147,367.368 45.463,367.695 45.655,368.03C45.849,368.366 45.946,368.758 45.946,369.207C45.946,369.971 45.713,370.601 45.247,371.098C44.781,371.594 44.191,371.842 43.477,371.842C42.985,371.842 42.457,371.733 41.894,371.515Z" style="fill:rgb(158,161,168);fill-rule:nonzero;"/>
            <path id="path4732" d="M49.576,371.706L47.48,371.706L47.48,365.803L46.323,365.803L46.323,363.943L50.778,363.943L50.778,365.803L49.576,365.803L49.576,371.706Z" style="fill:rgb(158,161,168);fill-rule:nonzero;"/>
            <path id="path4734" d="M56.525,371.706L54.428,371.706L54.428,368.584L53.428,368.584L53.428,371.706L51.331,371.706L51.331,363.943L53.428,363.943L53.428,366.688L54.428,366.688L54.428,363.943L56.525,363.943L56.525,371.706Z" style="fill:rgb(158,161,168);fill-rule:nonzero;"/>
            <rect id="path4736" x="57.606" y="363.943" width="2.097" height="7.763" style="fill:rgb(158,161,168);"/>
        </g>
        <g id="text979" transform="matrix(0.84342,0,0,1.18565,0,2.99998)">
            <path id="path1280" d="M2.371,278.329L3.77,278.329C4.196,278.329 4.555,278.376 4.846,278.471C5.115,278.562 5.356,278.724 5.567,278.957C5.884,279.306 6.11,279.762 6.244,280.322C6.379,280.865 6.446,281.642 6.446,282.655C6.446,283.584 6.372,284.341 6.222,284.927C6.077,285.488 5.836,285.916 5.501,286.211C5.09,286.579 4.352,286.763 3.289,286.763L2.371,286.763L2.371,278.329ZM3.508,285.769C4.199,285.769 4.662,285.559 4.895,285.14C5.135,284.722 5.256,283.908 5.256,282.699C5.256,281.398 5.141,280.504 4.911,280.016C4.682,279.528 4.261,279.284 3.65,279.284L3.508,279.284L3.508,285.769Z" style="fill:rgb(158,161,168);fill-rule:nonzero;"/>
            <path id="path1282" d="M7.572,278.329L10.592,278.329L10.592,279.29L8.708,279.29L8.708,281.961L10.379,281.961L10.379,282.923L8.708,282.923L8.708,285.801L10.592,285.801L10.592,286.763L7.572,286.763L7.572,278.329Z" style="fill:rgb(158,161,168);fill-rule:nonzero;"/>
            <path id="path1284" d="M11.636,278.329L12.772,278.329L12.772,285.801L14.629,285.801L14.629,286.763L11.636,286.763L11.636,278.329Z" style="fill:rgb(158,161,168);fill-rule:nonzero;"/>
            <path id="path1286" d="M15.35,278.329L18.371,278.329L18.371,279.29L16.487,279.29L16.487,281.961L18.158,281.961L18.158,282.923L16.487,282.923L16.487,285.801L18.371,285.801L18.371,286.763L15.35,286.763L15.35,278.329Z" style="fill:rgb(158,161,168);fill-rule:nonzero;"/>
            <path id="path1288" d="M18.743,278.329L22.441,278.329L22.441,279.323L21.168,279.323L21.168,286.763L20.054,286.763L20.054,279.323L18.743,279.323L18.743,278.329Z" style="fill:rgb(158,161,168);fill-rule:nonzero;"/>
            <path id="path1290" d="M23.063,278.329L26.084,278.329L26.084,279.29L24.2,279.29L24.2,281.961L25.871,281.961L25.871,282.923L24.2,282.923L24.2,285.801L26.084,285.801L26.084,286.763L23.063,286.763L23.063,278.329Z" style="fill:rgb(158,161,168);fill-rule:nonzero;"/>
        </g>
        <g id="text995" transform="matrix(0.845728,0,0,1.18241,0,2.99998)">
            <path id="path1256" d="M8.277,245.157L9.416,245.157L9.416,252.65L11.279,252.65L11.279,253.614L8.277,253.614L8.277,245.157Z" style="fill:rgb(158,161,168);fill-rule:nonzero;"/>
            <path id="path1258" d="M16.236,249.594C16.236,251.087 16.07,252.148 15.737,252.776C15.405,253.404 14.848,253.718 14.067,253.718C13.245,253.718 12.666,253.381 12.33,252.705C11.998,252.044 11.832,250.87 11.832,249.183C11.832,247.679 11.996,246.614 12.325,245.99C12.657,245.362 13.219,245.048 14.012,245.048C14.72,245.048 15.246,245.29 15.589,245.776C15.816,246.101 15.98,246.563 16.082,247.162C16.185,247.717 16.236,248.528 16.236,249.594ZM15.042,249.714C15.042,248.25 14.976,247.279 14.844,246.8C14.713,246.318 14.445,246.077 14.039,246.077C13.634,246.077 13.364,246.298 13.229,246.74C13.097,247.186 13.031,248.08 13.031,249.424C13.031,250.662 13.101,251.52 13.24,251.999C13.382,252.451 13.649,252.678 14.039,252.678C14.423,252.678 14.686,252.466 14.828,252.042C14.97,251.622 15.042,250.846 15.042,249.714Z" style="fill:rgb(158,161,168);fill-rule:nonzero;"/>
            <path id="path1260" d="M18.553,245.157L19.44,245.157L21.253,253.614L20.125,253.614L19.807,251.966L18.131,251.966L17.808,253.614L16.712,253.614L18.553,245.157ZM19.643,251.084L19.391,249.736C19.223,248.82 19.086,247.841 18.98,246.8C18.929,247.308 18.863,247.823 18.783,248.345C18.702,248.864 18.607,249.415 18.498,249.999L18.29,251.084L19.643,251.084Z" style="fill:rgb(158,161,168);fill-rule:nonzero;"/>
            <path id="path1262" d="M21.927,245.157L23.329,245.157C23.756,245.157 24.116,245.205 24.408,245.3C24.678,245.391 24.919,245.553 25.131,245.787C25.449,246.138 25.675,246.594 25.81,247.156C25.946,247.7 26.013,248.48 26.013,249.495C26.013,250.426 25.938,251.186 25.789,251.774C25.642,252.336 25.401,252.765 25.065,253.061C24.653,253.43 23.913,253.614 22.847,253.614L21.927,253.614L21.927,245.157ZM23.066,252.617C23.76,252.617 24.224,252.408 24.457,251.988C24.698,251.568 24.819,250.751 24.819,249.539C24.819,248.235 24.704,247.339 24.474,246.85C24.244,246.36 23.822,246.116 23.209,246.116L23.066,246.116L23.066,252.617Z" style="fill:rgb(158,161,168);fill-rule:nonzero;"/>
        </g>
        <g id="text999" transform="matrix(0.808421,0,0,1.23698,0,2.99998)">
            <path id="path1243" d="M2.474,250.511L3.542,250.511L3.542,256.223C3.542,256.806 3.594,257.194 3.699,257.386C3.807,257.578 4.02,257.674 4.338,257.674C4.656,257.674 4.865,257.59 4.966,257.422C5.071,257.251 5.123,256.904 5.123,256.381L5.123,250.511L6.191,250.511L6.191,256.381C6.191,257.26 6.057,257.855 5.788,258.166C5.467,258.518 4.977,258.695 4.317,258.695C3.591,258.695 3.08,258.468 2.783,258.014C2.577,257.703 2.474,257.107 2.474,256.223L2.474,250.511Z" style="fill:rgb(158,161,168);fill-rule:nonzero;"/>
            <path id="path1245" d="M7.438,250.511L8.872,250.511C9.563,250.511 10.066,250.686 10.38,251.035C10.694,251.387 10.851,251.946 10.851,252.71C10.851,253.785 10.535,254.48 9.904,254.794C9.586,254.937 9.127,255.009 8.527,255.009L8.527,258.595L7.438,258.595L7.438,250.511ZM8.527,254.077C8.977,254.077 9.288,253.986 9.459,253.804C9.633,253.619 9.72,253.291 9.72,252.82C9.72,252.338 9.637,251.986 9.469,251.762C9.302,251.539 9.038,251.427 8.678,251.427L8.527,251.427L8.527,254.077Z" style="fill:rgb(158,161,168);fill-rule:nonzero;"/>
            <path id="path1247" d="M11.689,250.511L13.03,250.511C13.438,250.511 13.782,250.556 14.061,250.647C14.319,250.734 14.55,250.89 14.752,251.113C15.056,251.448 15.272,251.885 15.401,252.422C15.531,252.942 15.595,253.688 15.595,254.658C15.595,255.548 15.524,256.274 15.38,256.836C15.241,257.374 15.01,257.784 14.689,258.066C14.295,258.419 13.588,258.595 12.569,258.595L11.689,258.595L11.689,250.511ZM12.778,257.642C13.441,257.642 13.885,257.442 14.108,257.04C14.338,256.639 14.454,255.859 14.454,254.7C14.454,253.454 14.344,252.597 14.124,252.129C13.904,251.661 13.501,251.427 12.914,251.427L12.778,251.427L12.778,257.642Z" style="fill:rgb(158,161,168);fill-rule:nonzero;"/>
            <path id="path1249" d="M17.763,250.511L18.611,250.511L20.344,258.595L19.265,258.595L18.962,257.019L17.36,257.019L17.051,258.595L16.003,258.595L17.763,250.511ZM18.805,256.176L18.564,254.888C18.403,254.012 18.272,253.077 18.171,252.082C18.122,252.567 18.059,253.059 17.983,253.558C17.906,254.054 17.815,254.581 17.71,255.14L17.511,256.176L18.805,256.176Z" style="fill:rgb(158,161,168);fill-rule:nonzero;"/>
            <path id="path1251" d="M20.177,250.511L23.721,250.511L23.721,251.464L22.501,251.464L22.501,258.595L21.433,258.595L21.433,251.464L20.177,251.464L20.177,250.511Z" style="fill:rgb(158,161,168);fill-rule:nonzero;"/>
            <path id="path1253" d="M24.318,250.511L27.214,250.511L27.214,251.433L25.407,251.433L25.407,253.993L27.009,253.993L27.009,254.914L25.407,254.914L25.407,257.674L27.214,257.674L27.214,258.595L24.318,258.595L24.318,250.511Z" style="fill:rgb(158,161,168);fill-rule:nonzero;"/>
        </g>
        <g id="text1003" transform="matrix(0.934859,0,0,1.06968,0,2.99998)">
            <path id="path1236" d="M9.522,252.412L10.503,252.412L12.507,261.761L11.26,261.761L10.909,259.938L9.056,259.938L8.699,261.761L7.488,261.761L9.522,252.412ZM10.727,258.963L10.449,257.474C10.263,256.461 10.112,255.379 9.994,254.228C9.938,254.79 9.865,255.359 9.776,255.936C9.688,256.509 9.583,257.119 9.462,257.764L9.232,258.963L10.727,258.963Z" style="fill:rgb(158,161,168);fill-rule:nonzero;"/>
            <path id="path1238" d="M13.252,252.412L14.802,252.412C15.274,252.412 15.672,252.465 15.995,252.569C16.293,252.67 16.56,252.85 16.794,253.108C17.145,253.496 17.395,254 17.545,254.622C17.694,255.223 17.769,256.085 17.769,257.207C17.769,258.237 17.686,259.076 17.521,259.726C17.359,260.348 17.093,260.822 16.721,261.149C16.265,261.557 15.448,261.761 14.269,261.761L13.252,261.761L13.252,252.412ZM14.511,260.659C15.278,260.659 15.791,260.427 16.049,259.962C16.316,259.498 16.449,258.596 16.449,257.256C16.449,255.815 16.322,254.824 16.067,254.283C15.813,253.742 15.347,253.472 14.669,253.472L14.511,253.472L14.511,260.659Z" style="fill:rgb(158,161,168);fill-rule:nonzero;"/>
            <path id="path1240" d="M19.016,252.412L20.566,252.412C21.038,252.412 21.436,252.465 21.759,252.569C22.058,252.67 22.324,252.85 22.558,253.108C22.909,253.496 23.16,254 23.309,254.622C23.458,255.223 23.533,256.085 23.533,257.207C23.533,258.237 23.45,259.076 23.285,259.726C23.123,260.348 22.857,260.822 22.485,261.149C22.029,261.557 21.212,261.761 20.033,261.761L19.016,261.761L19.016,252.412ZM20.275,260.659C21.042,260.659 21.555,260.427 21.813,259.962C22.08,259.498 22.213,258.596 22.213,257.256C22.213,255.815 22.086,254.824 21.832,254.283C21.577,253.742 21.111,253.472 20.433,253.472L20.275,253.472L20.275,260.659Z" style="fill:rgb(158,161,168);fill-rule:nonzero;"/>
        </g>
        <g id="text1007" transform="matrix(0.869552,0,0,1.15002,0,2.99998)">
            <path id="path1227" d="M8.05,199.997L9.593,199.997C10.337,199.997 10.877,200.185 11.215,200.56C11.553,200.939 11.722,201.54 11.722,202.362C11.722,203.519 11.382,204.266 10.703,204.604C10.361,204.758 9.867,204.835 9.222,204.835L9.222,208.693L8.05,208.693L8.05,199.997ZM9.222,203.832C9.706,203.832 10.04,203.735 10.224,203.539C10.412,203.341 10.506,202.988 10.506,202.481C10.506,201.963 10.415,201.583 10.235,201.343C10.055,201.103 9.772,200.983 9.385,200.983L9.222,200.983L9.222,203.832Z" style="fill:rgb(158,161,168);fill-rule:nonzero;"/>
            <path id="path1229" d="M12.623,199.997L14.166,199.997C14.805,199.997 15.279,200.149 15.591,200.453C15.985,200.847 16.182,201.45 16.182,202.261C16.182,202.884 16.077,203.386 15.867,203.765C15.661,204.14 15.364,204.373 14.977,204.463L16.577,208.693L15.388,208.693L13.795,204.435L13.795,208.693L12.623,208.693L12.623,199.997ZM13.795,203.849C14.249,203.849 14.57,203.744 14.758,203.534C14.945,203.324 15.039,202.969 15.039,202.469C15.039,202.199 15.019,201.968 14.977,201.777C14.94,201.585 14.878,201.429 14.791,201.309C14.709,201.189 14.6,201.101 14.465,201.045C14.333,200.988 14.176,200.96 13.992,200.96L13.795,200.96L13.795,203.849Z" style="fill:rgb(158,161,168);fill-rule:nonzero;"/>
            <path id="path1231" d="M17.489,199.997L20.603,199.997L20.603,200.988L18.66,200.988L18.66,203.742L20.384,203.742L20.384,204.733L18.66,204.733L18.66,207.701L20.603,207.701L20.603,208.693L17.489,208.693L17.489,199.997Z" style="fill:rgb(158,161,168);fill-rule:nonzero;"/>
            <path id="path1233" d="M20.986,199.997L22.141,199.997L22.665,203.207L22.755,203.787L22.941,205.049C22.971,205.263 22.997,205.458 23.019,205.634C23.046,205.811 23.068,205.971 23.087,206.113L23.143,206.541C23.155,206.455 23.164,206.378 23.172,206.31C23.179,206.243 23.187,206.186 23.194,206.141L23.346,205.133L23.543,203.81C23.562,203.69 23.579,203.579 23.594,203.478C23.613,203.376 23.63,203.286 23.645,203.207L24.208,199.997L25.3,199.997L23.594,208.693L22.665,208.693L20.986,199.997Z" style="fill:rgb(158,161,168);fill-rule:nonzero;"/>
        </g>
        <g id="text1011" transform="matrix(0.874852,0,0,1.14305,0,2.99998)">
            <path id="path1218" d="M8.001,218.713L9.101,218.713L10.273,222.203C10.613,223.189 10.914,224.241 11.174,225.359C11.08,224.683 11.01,224.071 10.965,223.524C10.919,222.976 10.897,222.46 10.897,221.977L10.897,218.713L12.081,218.713L12.081,227.462L10.976,227.462L9.656,223.524C9.535,223.157 9.42,222.781 9.31,222.396C9.204,222.011 9.106,221.607 9.016,221.184C9.008,221.131 8.995,221.066 8.976,220.991C8.961,220.915 8.942,220.828 8.919,220.73C8.931,220.828 8.94,220.913 8.948,220.985C8.955,221.053 8.961,221.112 8.965,221.161L9.027,222.05L9.089,223.133C9.093,223.193 9.095,223.267 9.095,223.354C9.099,223.441 9.101,223.539 9.101,223.648L9.163,227.462L8.001,227.462L8.001,218.713Z" style="fill:rgb(158,161,168);fill-rule:nonzero;"/>
            <path id="path1220" d="M13.441,218.713L16.574,218.713L16.574,219.71L14.619,219.71L14.619,222.481L16.353,222.481L16.353,223.478L14.619,223.478L14.619,226.464L16.574,226.464L16.574,227.462L13.441,227.462L13.441,218.713Z" style="fill:rgb(158,161,168);fill-rule:nonzero;"/>
            <path id="path1222" d="M17.062,218.713L18.206,218.713L18.812,220.407C19.05,221.076 19.192,221.565 19.237,221.875C19.279,221.682 19.324,221.495 19.373,221.314C19.426,221.133 19.481,220.951 19.538,220.77L19.617,220.515L20.178,218.713L21.368,218.713L19.747,223.019L21.368,227.462L20.178,227.462L19.6,225.796C19.483,225.463 19.388,225.165 19.317,224.901C19.245,224.636 19.194,224.402 19.164,224.198C19.133,224.451 19.082,224.693 19.011,224.923L18.812,225.546L18.71,225.875L18.206,227.462L16.96,227.462L18.614,223.019L17.062,218.713Z" style="fill:rgb(158,161,168);fill-rule:nonzero;"/>
            <path id="path1224" d="M21.311,218.713L25.147,218.713L25.147,219.744L23.827,219.744L23.827,227.462L22.671,227.462L22.671,219.744L21.311,219.744L21.311,218.713Z" style="fill:rgb(158,161,168);fill-rule:nonzero;"/>
        </g>
        <g id="text1015" transform="matrix(0.917288,0,0,1.09017,0,2.99998)">
            <path id="path1207" d="M2.18,192.518L3.808,192.518C4.481,192.518 4.983,192.678 5.311,192.999C5.727,193.415 5.935,194.05 5.935,194.906C5.935,195.563 5.824,196.092 5.602,196.492C5.385,196.888 5.072,197.134 4.664,197.229L6.351,201.69L5.097,201.69L3.416,197.199L3.416,201.69L2.18,201.69L2.18,192.518ZM3.416,196.581C3.895,196.581 4.234,196.47 4.432,196.249C4.63,196.027 4.729,195.652 4.729,195.126C4.729,194.841 4.707,194.597 4.664,194.395C4.624,194.193 4.559,194.029 4.468,193.902C4.38,193.775 4.266,193.682 4.123,193.623C3.984,193.563 3.818,193.533 3.624,193.533L3.416,193.533L3.416,196.581Z" style="fill:rgb(158,161,168);fill-rule:nonzero;"/>
            <path id="path1209" d="M7.313,192.518L10.599,192.518L10.599,193.563L8.549,193.563L8.549,196.468L10.367,196.468L10.367,197.514L8.549,197.514L8.549,200.645L10.599,200.645L10.599,201.69L7.313,201.69L7.313,192.518Z" style="fill:rgb(158,161,168);fill-rule:nonzero;"/>
            <path id="path1211" d="M14.793,192.708L14.793,193.914C14.417,193.644 14.078,193.51 13.777,193.51C13.452,193.51 13.187,193.625 12.981,193.854C12.775,194.072 12.672,194.363 12.672,194.728C12.672,195.048 12.745,195.324 12.892,195.553C12.967,195.676 13.09,195.835 13.26,196.029C13.435,196.223 13.658,196.456 13.932,196.73C14.435,197.241 14.777,197.682 14.959,198.055C15.142,198.415 15.233,198.857 15.233,199.379C15.233,200.088 15.033,200.673 14.633,201.132C14.233,201.58 13.72,201.803 13.094,201.803C12.567,201.803 12.118,201.659 11.745,201.37L11.745,200.146C12.185,200.467 12.585,200.627 12.945,200.627C13.282,200.627 13.545,200.516 13.736,200.294C13.926,200.069 14.021,199.764 14.021,199.379C14.021,199.047 13.947,198.748 13.801,198.482C13.726,198.356 13.621,198.211 13.486,198.049C13.351,197.882 13.183,197.698 12.981,197.496C12.668,197.187 12.409,196.914 12.203,196.676C11.997,196.439 11.844,196.231 11.745,196.052C11.555,195.704 11.46,195.264 11.46,194.734C11.46,194.017 11.646,193.448 12.019,193.028C12.395,192.605 12.9,192.393 13.534,192.393C13.973,192.393 14.393,192.498 14.793,192.708Z" style="fill:rgb(158,161,168);fill-rule:nonzero;"/>
            <path id="path1213" d="M16.272,192.518L19.558,192.518L19.558,193.563L17.508,193.563L17.508,196.468L19.326,196.468L19.326,197.514L17.508,197.514L17.508,200.645L19.558,200.645L19.558,201.69L16.272,201.69L16.272,192.518Z" style="fill:rgb(158,161,168);fill-rule:nonzero;"/>
            <path id="path1215" d="M19.962,192.518L23.984,192.518L23.984,193.599L22.6,193.599L22.6,201.69L21.388,201.69L21.388,193.599L19.962,193.599L19.962,192.518Z" style="fill:rgb(158,161,168);fill-rule:nonzero;"/>
        </g>
        <g id="text1019" transform="matrix(0.816938,0,0,1.22408,0,2.99998)">
            <path id="path1194" d="M5.416,138.948L5.416,140.022C5.081,139.782 4.78,139.662 4.512,139.662C4.222,139.662 3.986,139.765 3.803,139.969C3.619,140.163 3.528,140.423 3.528,140.747C3.528,141.033 3.593,141.278 3.723,141.483C3.79,141.592 3.9,141.733 4.051,141.906C4.207,142.079 4.406,142.287 4.649,142.53C5.097,142.985 5.402,143.379 5.565,143.71C5.727,144.031 5.808,144.424 5.808,144.89C5.808,145.521 5.63,146.042 5.274,146.451C4.917,146.849 4.461,147.049 3.903,147.049C3.434,147.049 3.034,146.92 2.702,146.663L2.702,145.573C3.094,145.858 3.45,146.001 3.771,146.001C4.071,146.001 4.305,145.902 4.475,145.705C4.644,145.504 4.729,145.232 4.729,144.89C4.729,144.594 4.663,144.327 4.533,144.091C4.466,143.978 4.372,143.849 4.252,143.705C4.132,143.557 3.983,143.393 3.803,143.213C3.524,142.938 3.293,142.694 3.11,142.483C2.926,142.271 2.79,142.086 2.702,141.927C2.533,141.617 2.448,141.225 2.448,140.752C2.448,140.114 2.614,139.608 2.946,139.234C3.281,138.856 3.73,138.668 4.295,138.668C4.686,138.668 5.06,138.761 5.416,138.948Z" style="fill:rgb(158,161,168);fill-rule:nonzero;"/>
            <path id="path1196" d="M9.94,138.911L9.94,139.901C9.658,139.763 9.422,139.694 9.231,139.694C8.97,139.694 8.746,139.759 8.559,139.89C8.372,140.017 8.217,140.214 8.094,140.483C7.974,140.751 7.884,141.091 7.824,141.504C7.767,141.913 7.739,142.398 7.739,142.959C7.739,144.976 8.256,145.985 9.289,145.985C9.469,145.985 9.686,145.929 9.94,145.816L9.94,146.827C9.676,146.975 9.379,147.049 9.051,147.049C7.397,147.049 6.57,145.698 6.57,142.996C6.57,141.535 6.771,140.449 7.173,139.737C7.579,139.024 8.198,138.668 9.03,138.668C9.337,138.668 9.64,138.749 9.94,138.911Z" style="fill:rgb(158,161,168);fill-rule:nonzero;"/>
            <path id="path1198" d="M10.861,138.779L13.787,138.779L13.787,139.71L11.961,139.71L11.961,142.297L13.581,142.297L13.581,143.229L11.961,143.229L11.961,146.017L13.787,146.017L13.787,146.948L10.861,146.948L10.861,138.779Z" style="fill:rgb(158,161,168);fill-rule:nonzero;"/>
            <path id="path1200" d="M14.797,138.779L15.824,138.779L16.919,142.038C17.237,142.959 17.517,143.941 17.76,144.985C17.672,144.354 17.607,143.782 17.565,143.271C17.522,142.759 17.501,142.278 17.501,141.826L17.501,138.779L18.607,138.779L18.607,146.948L17.575,146.948L16.342,143.271C16.23,142.929 16.122,142.578 16.02,142.218C15.921,141.858 15.829,141.481 15.745,141.086C15.738,141.036 15.725,140.976 15.708,140.906C15.693,140.835 15.676,140.754 15.655,140.662C15.665,140.754 15.674,140.834 15.681,140.901C15.688,140.964 15.693,141.019 15.697,141.065L15.755,141.895L15.813,142.906C15.817,142.962 15.819,143.031 15.819,143.112C15.822,143.193 15.824,143.285 15.824,143.387L15.882,146.948L14.797,146.948L14.797,138.779Z" style="fill:rgb(158,161,168);fill-rule:nonzero;"/>
            <path id="path1202" d="M19.877,138.779L22.803,138.779L22.803,139.71L20.977,139.71L20.977,142.297L22.596,142.297L22.596,143.229L20.977,143.229L20.977,146.017L22.803,146.017L22.803,146.948L19.877,146.948L19.877,138.779Z" style="fill:rgb(158,161,168);fill-rule:nonzero;"/>
            <path id="path1204" d="M26.538,138.948L26.538,140.022C26.203,139.782 25.902,139.662 25.634,139.662C25.344,139.662 25.108,139.765 24.925,139.969C24.741,140.163 24.649,140.423 24.649,140.747C24.649,141.033 24.715,141.278 24.845,141.483C24.912,141.592 25.022,141.733 25.173,141.906C25.328,142.079 25.528,142.287 25.771,142.53C26.219,142.985 26.524,143.379 26.686,143.71C26.849,144.031 26.93,144.424 26.93,144.89C26.93,145.521 26.752,146.042 26.395,146.451C26.039,146.849 25.582,147.049 25.025,147.049C24.556,147.049 24.156,146.92 23.824,146.663L23.824,145.573C24.216,145.858 24.572,146.001 24.893,146.001C25.193,146.001 25.427,145.902 25.596,145.705C25.766,145.504 25.85,145.232 25.85,144.89C25.85,144.594 25.785,144.327 25.655,144.091C25.588,143.978 25.494,143.849 25.374,143.705C25.254,143.557 25.104,143.393 24.925,143.213C24.646,142.938 24.415,142.694 24.231,142.483C24.048,142.271 23.912,142.086 23.824,141.927C23.655,141.617 23.57,141.225 23.57,140.752C23.57,140.114 23.736,139.608 24.067,139.234C24.402,138.856 24.852,138.668 25.417,138.668C25.808,138.668 26.182,138.761 26.538,138.948Z" style="fill:rgb(158,161,168);fill-rule:nonzero;"/>
        </g>
        <g id="text1023" transform="matrix(0.916439,0,0,1.36397,-0.5,2.99998)">
            <path id="path1178" d="M5.753,139.327L5.753,140.215C5.499,140.092 5.287,140.03 5.116,140.03C4.882,140.03 4.681,140.089 4.513,140.206C4.346,140.32 4.206,140.497 4.095,140.737C3.988,140.978 3.907,141.284 3.853,141.654C3.803,142.021 3.777,142.456 3.777,142.96C3.777,144.77 4.241,145.676 5.169,145.676C5.33,145.676 5.525,145.625 5.753,145.524L5.753,146.431C5.515,146.564 5.249,146.63 4.955,146.63C3.47,146.63 2.728,145.418 2.728,142.993C2.728,141.682 2.908,140.707 3.269,140.068C3.633,139.429 4.189,139.109 4.936,139.109C5.211,139.109 5.484,139.182 5.753,139.327Z" style="fill:rgb(158,161,168);fill-rule:nonzero;"/>
            <path id="path1180" d="M6.579,139.209L7.548,139.209L7.548,144.389C7.548,144.918 7.595,145.269 7.69,145.443C7.788,145.617 7.981,145.704 8.269,145.704C8.557,145.704 8.747,145.628 8.839,145.476C8.934,145.321 8.982,145.006 8.982,144.531L8.982,139.209L9.95,139.209L9.95,144.531C9.95,145.329 9.828,145.869 9.585,146.151C9.293,146.47 8.849,146.63 8.25,146.63C7.592,146.63 7.128,146.425 6.859,146.013C6.672,145.731 6.579,145.19 6.579,144.389L6.579,139.209Z" style="fill:rgb(158,161,168);fill-rule:nonzero;"/>
            <path id="path1183" d="M11.08,139.209L12.381,139.209C12.92,139.209 13.32,139.337 13.583,139.593C13.915,139.926 14.081,140.434 14.081,141.117C14.081,141.643 13.993,142.065 13.815,142.385C13.641,142.702 13.391,142.898 13.065,142.974L14.414,146.54L13.412,146.54L12.068,142.95L12.068,146.54L11.08,146.54L11.08,139.209ZM12.068,142.456C12.451,142.456 12.722,142.368 12.88,142.191C13.038,142.013 13.117,141.714 13.117,141.293C13.117,141.065 13.1,140.87 13.065,140.709C13.034,140.548 12.981,140.416 12.909,140.315C12.839,140.214 12.747,140.139 12.633,140.092C12.522,140.044 12.389,140.021 12.234,140.021L12.068,140.021L12.068,142.456Z" style="fill:rgb(158,161,168);fill-rule:nonzero;"/>
            <path id="path1185" d="M15.183,139.209L16.484,139.209C17.022,139.209 17.423,139.337 17.685,139.593C18.018,139.926 18.184,140.434 18.184,141.117C18.184,141.643 18.095,142.065 17.918,142.385C17.744,142.702 17.494,142.898 17.168,142.974L18.516,146.54L17.514,146.54L16.171,142.95L16.171,146.54L15.183,146.54L15.183,139.209ZM16.171,142.456C16.554,142.456 16.824,142.368 16.983,142.191C17.141,142.013 17.22,141.714 17.22,141.293C17.22,141.065 17.203,140.87 17.168,140.709C17.136,140.548 17.084,140.416 17.011,140.315C16.941,140.214 16.85,140.139 16.736,140.092C16.625,140.044 16.492,140.021 16.337,140.021L16.171,140.021L16.171,142.456Z" style="fill:rgb(158,161,168);fill-rule:nonzero;"/>
            <path id="path1187" d="M19.286,139.209L21.911,139.209L21.911,140.044L20.273,140.044L20.273,142.366L21.726,142.366L21.726,143.202L20.273,143.202L20.273,145.704L21.911,145.704L21.911,146.54L19.286,146.54L19.286,139.209Z" style="fill:rgb(158,161,168);fill-rule:nonzero;"/>
            <path id="path1189" d="M22.818,139.209L23.74,139.209L24.722,142.134C25.007,142.96 25.259,143.841 25.477,144.778C25.398,144.212 25.34,143.699 25.302,143.24C25.264,142.781 25.245,142.349 25.245,141.944L25.245,139.209L26.237,139.209L26.237,146.54L25.311,146.54L24.205,143.24C24.104,142.933 24.007,142.618 23.915,142.295C23.827,141.972 23.744,141.633 23.668,141.279C23.662,141.235 23.651,141.181 23.635,141.117C23.622,141.054 23.607,140.981 23.588,140.899C23.597,140.981 23.605,141.052 23.611,141.113C23.618,141.17 23.622,141.219 23.626,141.26L23.678,142.005L23.73,142.912C23.733,142.963 23.735,143.025 23.735,143.097C23.738,143.17 23.74,143.253 23.74,143.344L23.792,146.54L22.818,146.54L22.818,139.209Z" style="fill:rgb(158,161,168);fill-rule:nonzero;"/>
            <path id="path1191" d="M26.793,139.209L30.007,139.209L30.007,140.073L28.901,140.073L28.901,146.54L27.932,146.54L27.932,140.073L26.793,140.073L26.793,139.209Z" style="fill:rgb(158,161,168);fill-rule:nonzero;"/>
        </g>
        <g id="text1039" transform="matrix(0.916439,0,0,1.36397,-0.5,35)">
            <path id="path1124" d="M5.753,80.675L5.753,81.563C5.499,81.44 5.287,81.378 5.116,81.378C4.882,81.378 4.681,81.436 4.513,81.554C4.346,81.668 4.206,81.845 4.095,82.085C3.988,82.326 3.907,82.631 3.853,83.002C3.803,83.369 3.777,83.804 3.777,84.308C3.777,86.118 4.241,87.024 5.169,87.024C5.33,87.024 5.525,86.973 5.753,86.872L5.753,87.779C5.515,87.912 5.249,87.978 4.955,87.978C3.47,87.978 2.728,86.766 2.728,84.341C2.728,83.03 2.908,82.055 3.269,81.416C3.633,80.776 4.189,80.457 4.936,80.457C5.211,80.457 5.484,80.53 5.753,80.675Z" style="fill:rgb(158,161,168);fill-rule:nonzero;"/>
            <path id="path1126" d="M6.579,80.556L7.548,80.556L7.548,85.737C7.548,86.266 7.595,86.617 7.69,86.791C7.788,86.965 7.981,87.052 8.269,87.052C8.557,87.052 8.747,86.976 8.839,86.824C8.934,86.669 8.982,86.354 8.982,85.879L8.982,80.556L9.95,80.556L9.95,85.879C9.95,86.677 9.828,87.217 9.585,87.499C9.293,87.818 8.849,87.978 8.25,87.978C7.592,87.978 7.128,87.772 6.859,87.361C6.672,87.079 6.579,86.538 6.579,85.737L6.579,80.556Z" style="fill:rgb(158,161,168);fill-rule:nonzero;"/>
            <path id="path1128" d="M11.08,80.556L12.381,80.556C12.92,80.556 13.32,80.685 13.583,80.941C13.915,81.273 14.081,81.782 14.081,82.465C14.081,82.991 13.993,83.413 13.815,83.733C13.641,84.05 13.391,84.246 13.065,84.322L14.414,87.888L13.412,87.888L12.068,84.298L12.068,87.888L11.08,87.888L11.08,80.556ZM12.068,83.804C12.451,83.804 12.722,83.716 12.88,83.538C13.038,83.361 13.117,83.062 13.117,82.641C13.117,82.413 13.1,82.218 13.065,82.057C13.034,81.895 12.981,81.764 12.909,81.663C12.839,81.561 12.747,81.487 12.633,81.44C12.522,81.392 12.389,81.368 12.234,81.368L12.068,81.368L12.068,83.804Z" style="fill:rgb(158,161,168);fill-rule:nonzero;"/>
            <path id="path1130" d="M15.183,80.556L16.484,80.556C17.022,80.556 17.423,80.685 17.685,80.941C18.018,81.273 18.184,81.782 18.184,82.465C18.184,82.991 18.095,83.413 17.918,83.733C17.744,84.05 17.494,84.246 17.168,84.322L18.516,87.888L17.514,87.888L16.171,84.298L16.171,87.888L15.183,87.888L15.183,80.556ZM16.171,83.804C16.554,83.804 16.824,83.716 16.983,83.538C17.141,83.361 17.22,83.062 17.22,82.641C17.22,82.413 17.203,82.218 17.168,82.057C17.136,81.895 17.084,81.764 17.011,81.663C16.941,81.561 16.85,81.487 16.736,81.44C16.625,81.392 16.492,81.368 16.337,81.368L16.171,81.368L16.171,83.804Z" style="fill:rgb(158,161,168);fill-rule:nonzero;"/>
            <path id="path1132" d="M19.286,80.556L21.911,80.556L21.911,81.392L20.273,81.392L20.273,83.714L21.726,83.714L21.726,84.55L20.273,84.55L20.273,87.052L21.911,87.052L21.911,87.888L19.286,87.888L19.286,80.556Z" style="fill:rgb(158,161,168);fill-rule:nonzero;"/>
            <path id="path1134" d="M22.818,80.556L23.74,80.556L24.722,83.481C25.007,84.308 25.259,85.189 25.477,86.126C25.398,85.56 25.34,85.047 25.302,84.588C25.264,84.129 25.245,83.697 25.245,83.291L25.245,80.556L26.237,80.556L26.237,87.888L25.311,87.888L24.205,84.588C24.104,84.281 24.007,83.966 23.915,83.643C23.827,83.32 23.744,82.981 23.668,82.627C23.662,82.582 23.651,82.529 23.635,82.465C23.622,82.402 23.607,82.329 23.588,82.247C23.597,82.329 23.605,82.4 23.611,82.461C23.618,82.518 23.622,82.567 23.626,82.608L23.678,83.353L23.73,84.26C23.733,84.311 23.735,84.373 23.735,84.445C23.738,84.518 23.74,84.601 23.74,84.692L23.792,87.888L22.818,87.888L22.818,80.556Z" style="fill:rgb(158,161,168);fill-rule:nonzero;"/>
            <path id="path1136" d="M26.793,80.556L30.007,80.556L30.007,81.421L28.901,81.421L28.901,87.888L27.932,87.888L27.932,81.421L26.793,81.421L26.793,80.556Z" style="fill:rgb(158,161,168);fill-rule:nonzero;"/>
        </g>
        <g id="text1043" transform="matrix(0.86313,0,0,1.15857,0,10)">
            <path id="path1111" d="M4.195,21.472L5.101,21.472L6.951,30.103L5.8,30.103L5.476,28.421L3.765,28.421L3.435,30.103L2.317,30.103L4.195,21.472ZM5.308,27.521L5.051,26.145C4.879,25.21 4.74,24.211 4.632,23.149C4.579,23.667 4.512,24.193 4.43,24.726C4.348,25.255 4.251,25.818 4.14,26.414L3.927,27.521L5.308,27.521Z" style="fill:rgb(158,161,168);fill-rule:nonzero;"/>
            <path id="path1113" d="M10.96,21.612L10.96,22.657C10.661,22.512 10.412,22.439 10.211,22.439C9.935,22.439 9.698,22.508 9.501,22.646C9.303,22.78 9.139,22.989 9.009,23.272C8.882,23.555 8.787,23.915 8.724,24.351C8.664,24.783 8.634,25.296 8.634,25.888C8.634,28.02 9.18,29.086 10.272,29.086C10.462,29.086 10.691,29.026 10.96,28.907L10.96,29.975C10.68,30.131 10.367,30.21 10.02,30.21C8.273,30.21 7.399,28.782 7.399,25.927C7.399,24.385 7.611,23.237 8.036,22.484C8.465,21.731 9.119,21.355 9.998,21.355C10.322,21.355 10.643,21.44 10.96,21.612Z" style="fill:rgb(158,161,168);fill-rule:nonzero;"/>
            <path id="path1115" d="M11.245,21.472L15.029,21.472L15.029,22.489L13.727,22.489L13.727,30.103L12.586,30.103L12.586,22.489L11.245,22.489L11.245,21.472Z" style="fill:rgb(158,161,168);fill-rule:nonzero;"/>
            <rect id="path1117" x="15.667" y="21.472" width="1.163" height="8.631" style="fill:rgb(158,161,168);"/>
            <path id="path1119" d="M17.483,21.472L18.629,21.472L19.149,24.658L19.239,25.234L19.423,26.486C19.453,26.699 19.479,26.893 19.501,27.068C19.528,27.243 19.55,27.401 19.569,27.543L19.624,27.968C19.636,27.882 19.645,27.806 19.652,27.739C19.66,27.672 19.667,27.616 19.675,27.571L19.826,26.57L20.021,25.257C20.04,25.137 20.057,25.027 20.072,24.927C20.09,24.826 20.107,24.737 20.122,24.658L20.681,21.472L21.766,21.472L20.072,30.103L19.149,30.103L17.483,21.472Z" style="fill:rgb(158,161,168);fill-rule:nonzero;"/>
            <path id="path1121" d="M22.397,21.472L25.489,21.472L25.489,22.456L23.56,22.456L23.56,25.19L25.271,25.19L25.271,26.173L23.56,26.173L23.56,29.119L25.489,29.119L25.489,30.103L22.397,30.103L22.397,21.472Z" style="fill:rgb(158,161,168);fill-rule:nonzero;"/>
        </g>
        <g id="g1190" transform="matrix(1,0,0,1,-17,0)">
            <g id="text958" transform="matrix(0.923453,0,0,1.08289,22.5,0)">
                <path id="path960" d="M2.707,16.429L2.707,12.792C3.106,13.309 3.574,13.567 4.113,13.567C4.831,13.567 5.19,13.028 5.19,11.951L5.19,3.626L8.7,3.626L8.7,12.649C8.7,13.418 8.633,14.033 8.498,14.493C8.375,14.947 8.147,15.365 7.816,15.747C7.177,16.482 6.237,16.849 4.997,16.849C4.34,16.849 3.577,16.709 2.707,16.429Z" style="fill:rgb(158,161,168);fill-rule:nonzero;"/>
                <path id="path962" d="M19.743,16.622L16.115,16.622L15.854,14.972L13.489,14.972L13.203,16.622L9.575,16.622L12.698,3.626L16.991,3.626L19.743,16.622ZM15.442,12.186L15.215,10.671C15.209,10.666 15.198,10.59 15.181,10.444C15.17,10.321 15.111,9.833 15.004,8.98C14.993,8.884 14.979,8.755 14.962,8.592C14.945,8.424 14.923,8.214 14.895,7.961L14.785,6.732C14.774,6.85 14.757,6.982 14.735,7.128C14.718,7.274 14.698,7.434 14.676,7.608C14.637,7.956 14.609,8.197 14.592,8.332C14.575,8.466 14.564,8.548 14.558,8.576L14.314,10.15L13.961,12.186L15.442,12.186Z" style="fill:rgb(158,161,168);fill-rule:nonzero;"/>
                <path id="path964" d="M20.753,16.622L20.753,3.626L24.103,3.626L25.862,8.188C25.957,8.458 26.064,8.766 26.182,9.114C26.305,9.462 26.44,9.863 26.586,10.318L26.948,11.463C26.819,10.335 26.721,9.37 26.653,8.567C26.586,7.765 26.552,7.091 26.552,6.547L26.552,3.626L29.902,3.626L29.902,16.622L26.552,16.622L24.785,11.841C24.6,11.331 24.431,10.854 24.28,10.41C24.134,9.962 24.005,9.535 23.893,9.131C23.965,10.046 24.019,10.843 24.052,11.522C24.086,12.2 24.103,12.795 24.103,13.306L24.103,16.622L20.753,16.622Z" style="fill:rgb(158,161,168);fill-rule:nonzero;"/>
                <path id="path966" d="M31.729,16.622L31.729,3.626L35.079,3.626L36.838,8.188C36.933,8.458 37.04,8.766 37.158,9.114C37.281,9.462 37.416,9.863 37.562,10.318L37.923,11.463C37.794,10.335 37.696,9.37 37.629,8.567C37.562,7.765 37.528,7.091 37.528,6.547L37.528,3.626L40.878,3.626L40.878,16.622L37.528,16.622L35.76,11.841C35.575,11.331 35.407,10.854 35.255,10.41C35.109,9.962 34.98,9.535 34.868,9.131C34.941,10.046 34.994,10.843 35.028,11.522C35.062,12.2 35.079,12.795 35.079,13.306L35.079,16.622L31.729,16.622Z" style="fill:rgb(158,161,168);fill-rule:nonzero;"/>
                <path id="path968" d="M42.704,16.622L42.704,3.626L49.227,3.626L49.227,6.682L46.214,6.682L46.214,8.576L48.916,8.576L48.916,11.513L46.214,11.513L46.214,13.499L49.227,13.499L49.227,16.622L42.704,16.622Z" style="fill:rgb(158,161,168);fill-rule:nonzero;"/>
                <path id="path970" d="M60.253,16.622L56.466,16.622L54.134,10.629L54.227,16.622L50.717,16.622L50.717,3.626L54.227,3.626L54.134,9.198L56.205,3.626L59.908,3.626L57.106,9.897L60.253,16.622Z" style="fill:rgb(158,161,168);fill-rule:nonzero;"/>
                <path id="path972" d="M61.255,16.622L61.255,3.626L67.778,3.626L67.778,6.682L64.765,6.682L64.765,8.576L67.467,8.576L67.467,11.513L64.765,11.513L64.765,13.499L67.778,13.499L67.778,16.622L61.255,16.622Z" style="fill:rgb(158,161,168);fill-rule:nonzero;"/>
                <path id="path974" d="M78.51,16.622L74.714,16.622L72.98,11.993C72.963,11.914 72.932,11.81 72.887,11.681C72.848,11.552 72.797,11.398 72.736,11.219L72.761,12.077L72.761,16.622L69.268,16.622L69.268,3.626L72.862,3.626C74.444,3.626 75.628,3.938 76.414,4.561C77.413,5.358 77.912,6.491 77.912,7.961C77.912,9.532 77.242,10.618 75.9,11.219L78.51,16.622ZM72.778,9.645L73.013,9.645C73.417,9.645 73.754,9.49 74.023,9.182C74.293,8.873 74.427,8.48 74.427,8.003C74.427,7.033 73.92,6.547 72.904,6.547L72.778,6.547L72.778,9.645Z" style="fill:rgb(158,161,168);fill-rule:nonzero;"/>
            </g>
            <g id="text1004" transform="matrix(0.841484,0,0,1.41068,77,-19.9862)">
                <path id="path1010" d="M30.398,26.927L27.656,26.927L27.656,19.209L26.144,19.209L26.144,16.777L31.969,16.777L31.969,19.209L30.398,19.209L30.398,26.927Z" style="fill:rgb(255,0,102);fill-rule:nonzero;"/>
                <rect id="path1012" x="32.692" y="16.777" width="2.741" height="10.15" style="fill:rgb(255,0,102);"/>
                <path id="path1014" d="M47.293,26.927L44.427,26.927L44.223,22.299L44.138,20.452C44.107,20.807 44.072,21.147 44.032,21.471C43.993,21.791 43.945,22.102 43.888,22.405L43.027,26.927L40.791,26.927L40.055,22.398C40.011,22.135 39.952,21.684 39.878,21.044C39.869,20.947 39.849,20.75 39.818,20.452L39.753,22.326L39.509,26.927L36.591,26.927L37.774,16.777L41.186,16.777L41.758,20.196C41.806,20.476 41.848,20.781 41.883,21.109C41.922,21.438 41.957,21.795 41.988,22.181C42.045,21.537 42.124,20.96 42.225,20.452L42.921,16.777L46.307,16.777L47.293,26.927Z" style="fill:rgb(255,0,102);fill-rule:nonzero;"/>
                <path id="path1016" d="M48.523,26.927L48.523,16.777L53.617,16.777L53.617,19.163L51.264,19.163L51.264,20.643L53.374,20.643L53.374,22.937L51.264,22.937L51.264,24.488L53.617,24.488L53.617,26.927L48.523,26.927Z" style="fill:rgb(255,0,102);fill-rule:nonzero;"/>
                <path id="path1018" d="M54.781,26.927L54.781,16.777L57.148,16.777C58.502,16.777 59.556,17.141 60.31,17.868C61.3,18.819 61.796,20.15 61.796,21.859C61.796,23.542 61.377,24.841 60.54,25.757C59.826,26.537 58.761,26.927 57.345,26.927L54.781,26.927ZM57.522,24.475C58.504,24.427 58.995,23.581 58.995,21.938C58.995,21.127 58.87,20.487 58.62,20.018C58.37,19.545 58.033,19.308 57.608,19.308L57.522,19.308L57.522,24.475Z" style="fill:rgb(255,0,102);fill-rule:nonzero;"/>
            </g>
        </g>
        <g id="text1008" transform="matrix(0.911848,0,0,1.37084,-0.499999,15)">
            <path id="path1021" d="M5.392,80.304L5.392,81.263C5.093,81.049 4.824,80.942 4.584,80.942C4.326,80.942 4.115,81.033 3.951,81.216C3.787,81.389 3.706,81.621 3.706,81.91C3.706,82.165 3.764,82.384 3.88,82.567C3.94,82.665 4.038,82.791 4.173,82.945C4.312,83.099 4.49,83.285 4.707,83.503C5.107,83.909 5.38,84.26 5.524,84.556C5.669,84.843 5.742,85.194 5.742,85.61C5.742,86.174 5.583,86.638 5.265,87.003C4.946,87.359 4.539,87.537 4.041,87.537C3.622,87.537 3.265,87.422 2.968,87.192L2.968,86.219C3.318,86.474 3.636,86.602 3.923,86.602C4.191,86.602 4.4,86.514 4.551,86.337C4.702,86.158 4.778,85.915 4.778,85.61C4.778,85.345 4.72,85.107 4.603,84.896C4.543,84.796 4.46,84.681 4.353,84.551C4.246,84.419 4.112,84.273 3.951,84.112C3.702,83.866 3.496,83.649 3.332,83.46C3.168,83.271 3.047,83.106 2.968,82.964C2.817,82.687 2.742,82.337 2.742,81.915C2.742,81.345 2.89,80.893 3.186,80.559C3.485,80.222 3.887,80.054 4.391,80.054C4.74,80.054 5.074,80.137 5.392,80.304Z" style="fill:rgb(158,161,168);fill-rule:nonzero;"/>
            <path id="path1023" d="M6.569,80.153L9.181,80.153L9.181,80.984L7.551,80.984L7.551,83.295L8.997,83.295L8.997,84.126L7.551,84.126L7.551,86.616L9.181,86.616L9.181,87.448L6.569,87.448L6.569,80.153Z" style="fill:rgb(158,161,168);fill-rule:nonzero;"/>
            <path id="path1025" d="M12.947,80.271L12.947,81.154C12.695,81.032 12.484,80.97 12.314,80.97C12.081,80.97 11.881,81.028 11.714,81.145C11.547,81.258 11.408,81.435 11.298,81.674C11.191,81.914 11.111,82.217 11.057,82.586C11.007,82.951 10.981,83.384 10.981,83.885C10.981,85.687 11.443,86.588 12.366,86.588C12.526,86.588 12.72,86.537 12.947,86.437L12.947,87.339C12.711,87.471 12.446,87.537 12.153,87.537C10.676,87.537 9.937,86.331 9.937,83.918C9.937,82.614 10.117,81.644 10.476,81.008C10.838,80.372 11.391,80.054 12.134,80.054C12.408,80.054 12.679,80.126 12.947,80.271Z" style="fill:rgb(158,161,168);fill-rule:nonzero;"/>
            <path id="path1027" d="M17.364,83.98C17.364,85.268 17.221,86.183 16.934,86.725C16.648,87.266 16.167,87.537 15.493,87.537C14.785,87.537 14.285,87.246 13.996,86.663C13.709,86.093 13.566,85.081 13.566,83.625C13.566,82.328 13.707,81.41 13.991,80.871C14.278,80.329 14.763,80.058 15.446,80.058C16.057,80.058 16.511,80.268 16.807,80.687C17.002,80.967 17.144,81.365 17.232,81.882C17.32,82.361 17.364,83.06 17.364,83.98ZM16.334,84.084C16.334,82.821 16.278,81.983 16.164,81.57C16.051,81.154 15.819,80.947 15.47,80.947C15.12,80.947 14.887,81.137 14.771,81.518C14.657,81.902 14.6,82.674 14.6,83.833C14.6,84.901 14.66,85.641 14.78,86.054C14.903,86.444 15.133,86.64 15.47,86.64C15.8,86.64 16.027,86.457 16.15,86.092C16.273,85.729 16.334,85.06 16.334,84.084Z" style="fill:rgb(158,161,168);fill-rule:nonzero;"/>
            <path id="path1029" d="M18.342,80.153L19.259,80.153L20.237,83.063C20.52,83.885 20.771,84.762 20.988,85.695C20.909,85.131 20.851,84.621 20.813,84.164C20.775,83.707 20.757,83.277 20.757,82.874L20.757,80.153L21.744,80.153L21.744,87.448L20.823,87.448L19.722,84.164C19.621,83.858 19.525,83.545 19.434,83.224C19.346,82.903 19.264,82.566 19.188,82.213C19.182,82.169 19.171,82.115 19.155,82.052C19.142,81.989 19.127,81.917 19.108,81.835C19.117,81.917 19.125,81.988 19.131,82.047C19.138,82.104 19.142,82.153 19.146,82.194L19.197,82.936L19.249,83.838C19.253,83.888 19.254,83.95 19.254,84.022C19.257,84.095 19.259,84.177 19.259,84.268L19.311,87.448L18.342,87.448L18.342,80.153Z" style="fill:rgb(158,161,168);fill-rule:nonzero;"/>
            <path id="path1031" d="M22.878,80.153L24.087,80.153C24.456,80.153 24.766,80.194 25.018,80.276C25.251,80.354 25.459,80.495 25.642,80.696C25.916,80.999 26.111,81.392 26.228,81.877C26.344,82.347 26.402,83.019 26.402,83.895C26.402,84.698 26.338,85.353 26.209,85.86C26.083,86.345 25.875,86.715 25.585,86.97C25.229,87.289 24.591,87.448 23.672,87.448L22.878,87.448L22.878,80.153ZM23.861,86.588C24.459,86.588 24.859,86.407 25.061,86.044C25.269,85.682 25.373,84.978 25.373,83.932C25.373,82.808 25.273,82.035 25.075,81.613C24.876,81.191 24.513,80.98 23.983,80.98L23.861,80.98L23.861,86.588Z" style="fill:rgb(158,161,168);fill-rule:nonzero;"/>
            <path id="path1033" d="M29.809,80.304L29.809,81.263C29.51,81.049 29.24,80.942 29.001,80.942C28.743,80.942 28.532,81.033 28.368,81.216C28.204,81.389 28.122,81.621 28.122,81.91C28.122,82.165 28.181,82.384 28.297,82.567C28.357,82.665 28.455,82.791 28.59,82.945C28.729,83.099 28.907,83.285 29.124,83.503C29.524,83.909 29.796,84.26 29.941,84.556C30.086,84.843 30.159,85.194 30.159,85.61C30.159,86.174 29.999,86.638 29.681,87.003C29.363,87.359 28.955,87.537 28.458,87.537C28.039,87.537 27.681,87.422 27.385,87.192L27.385,86.219C27.735,86.474 28.053,86.602 28.34,86.602C28.607,86.602 28.817,86.514 28.968,86.337C29.119,86.158 29.195,85.915 29.195,85.61C29.195,85.345 29.136,85.107 29.02,84.896C28.96,84.796 28.877,84.681 28.77,84.551C28.662,84.419 28.529,84.273 28.368,84.112C28.119,83.866 27.913,83.649 27.749,83.46C27.585,83.271 27.464,83.106 27.385,82.964C27.234,82.687 27.158,82.337 27.158,81.915C27.158,81.345 27.306,80.893 27.603,80.559C27.902,80.222 28.303,80.054 28.807,80.054C29.157,80.054 29.491,80.137 29.809,80.304Z" style="fill:rgb(158,161,168);fill-rule:nonzero;"/>
        </g>
        <g id="text1033" transform="matrix(0.812299,0,0,1.23107,0,0)">
            <path id="path1073" d="M2.462,286.741L3.809,286.741C4.219,286.741 4.565,286.787 4.845,286.878C5.105,286.966 5.336,287.122 5.54,287.346C5.845,287.683 6.062,288.122 6.192,288.662C6.322,289.184 6.387,289.933 6.387,290.908C6.387,291.802 6.315,292.532 6.171,293.097C6.031,293.637 5.799,294.049 5.477,294.333C5.08,294.687 4.37,294.864 3.346,294.864L2.462,294.864L2.462,286.741ZM3.556,293.907C4.223,293.907 4.668,293.705 4.893,293.302C5.124,292.899 5.24,292.115 5.24,290.95C5.24,289.698 5.129,288.837 4.909,288.367C4.688,287.897 4.282,287.662 3.693,287.662L3.556,287.662L3.556,293.907Z" style="fill:rgb(158,161,168);fill-rule:nonzero;"/>
            <path id="path1075" d="M7.471,286.741L10.38,286.741L10.38,287.667L8.565,287.667L8.565,290.24L10.175,290.24L10.175,291.166L8.565,291.166L8.565,293.938L10.38,293.938L10.38,294.864L7.471,294.864L7.471,286.741Z" style="fill:rgb(158,161,168);fill-rule:nonzero;"/>
            <path id="path1078" d="M11.385,286.741L12.479,286.741L12.479,293.938L14.268,293.938L14.268,294.864L11.385,294.864L11.385,286.741Z" style="fill:rgb(158,161,168);fill-rule:nonzero;"/>
            <path id="path1080" d="M14.962,286.741L17.872,286.741L17.872,287.667L16.057,287.667L16.057,290.24L17.666,290.24L17.666,291.166L16.057,291.166L16.057,293.938L17.872,293.938L17.872,294.864L14.962,294.864L14.962,286.741Z" style="fill:rgb(158,161,168);fill-rule:nonzero;"/>
            <path id="path1082" d="M18.229,286.741L21.791,286.741L21.791,287.699L20.565,287.699L20.565,294.864L19.492,294.864L19.492,287.699L18.229,287.699L18.229,286.741Z" style="fill:rgb(158,161,168);fill-rule:nonzero;"/>
            <path id="path1084" d="M22.391,286.741L25.3,286.741L25.3,287.667L23.485,287.667L23.485,290.24L25.095,290.24L25.095,291.166L23.485,291.166L23.485,293.938L25.3,293.938L25.3,294.864L22.391,294.864L22.391,286.741Z" style="fill:rgb(158,161,168);fill-rule:nonzero;"/>
            <path id="path1086" d="M29.693,286.741L30.545,286.741L32.287,294.864L31.203,294.864L30.898,293.281L29.288,293.281L28.978,294.864L27.925,294.864L29.693,286.741ZM30.74,292.434L30.498,291.14C30.337,290.259 30.205,289.319 30.103,288.32C30.054,288.807 29.991,289.302 29.914,289.803C29.837,290.301 29.746,290.831 29.64,291.392L29.441,292.434L30.74,292.434Z" style="fill:rgb(158,161,168);fill-rule:nonzero;"/>
            <path id="path1088" d="M32.934,286.741L34.028,286.741L34.028,293.938L35.817,293.938L35.817,294.864L32.934,294.864L32.934,286.741Z" style="fill:rgb(158,161,168);fill-rule:nonzero;"/>
            <path id="path1090" d="M36.511,286.741L37.606,286.741L37.606,293.938L39.394,293.938L39.394,294.864L36.511,294.864L36.511,286.741Z" style="fill:rgb(158,161,168);fill-rule:nonzero;"/>
        </g>
        <g id="text1037" transform="matrix(0.921588,0,0,1.18565,-0.18536,-30)">
            <path id="path1039" d="M2.371,71.587L3.868,71.587C4.487,71.587 4.948,71.734 5.25,72.029C5.632,72.412 5.824,72.996 5.824,73.783C5.824,74.387 5.722,74.874 5.518,75.241C5.317,75.606 5.03,75.831 4.655,75.919L6.206,80.021L5.053,80.021L3.508,75.891L3.508,80.021L2.371,80.021L2.371,71.587ZM3.508,75.323C3.948,75.323 4.26,75.221 4.442,75.017C4.624,74.813 4.715,74.469 4.715,73.985C4.715,73.723 4.695,73.499 4.655,73.313C4.618,73.127 4.558,72.976 4.474,72.86C4.394,72.743 4.289,72.658 4.158,72.603C4.03,72.548 3.877,72.521 3.699,72.521L3.508,72.521L3.508,75.323Z" style="fill:rgb(158,161,168);fill-rule:nonzero;"/>
            <path id="path1041" d="M7.091,71.587L10.112,71.587L10.112,72.548L8.227,72.548L8.227,75.219L9.899,75.219L9.899,76.181L8.227,76.181L8.227,79.06L10.112,79.06L10.112,80.021L7.091,80.021L7.091,71.587Z" style="fill:rgb(158,161,168);fill-rule:nonzero;"/>
            <path id="path1043" d="M14.465,71.723L14.465,72.745C14.174,72.603 13.93,72.532 13.733,72.532C13.464,72.532 13.233,72.599 13.04,72.734C12.847,72.865 12.686,73.069 12.559,73.346C12.435,73.623 12.342,73.974 12.28,74.4C12.222,74.823 12.193,75.323 12.193,75.902C12.193,77.985 12.727,79.027 13.794,79.027C13.979,79.027 14.203,78.969 14.465,78.852L14.465,79.895C14.192,80.048 13.886,80.125 13.548,80.125C11.84,80.125 10.986,78.73 10.986,75.941C10.986,74.433 11.193,73.311 11.608,72.576C12.027,71.84 12.666,71.472 13.526,71.472C13.843,71.472 14.156,71.556 14.465,71.723Z" style="fill:rgb(158,161,168);fill-rule:nonzero;"/>
            <path id="path1045" d="M19.573,76.012C19.573,77.501 19.407,78.559 19.076,79.185C18.744,79.812 18.189,80.125 17.41,80.125C16.59,80.125 16.013,79.788 15.678,79.114C15.347,78.455 15.181,77.284 15.181,75.602C15.181,74.101 15.345,73.04 15.673,72.417C16.004,71.791 16.565,71.478 17.355,71.478C18.062,71.478 18.586,71.72 18.928,72.204C19.154,72.528 19.318,72.989 19.42,73.586C19.522,74.14 19.573,74.948 19.573,76.012ZM18.382,76.132C18.382,74.671 18.317,73.703 18.185,73.226C18.054,72.745 17.787,72.505 17.382,72.505C16.978,72.505 16.709,72.725 16.574,73.166C16.443,73.61 16.377,74.502 16.377,75.842C16.377,77.077 16.447,77.933 16.585,78.41C16.727,78.861 16.993,79.087 17.382,79.087C17.765,79.087 18.027,78.876 18.169,78.453C18.311,78.035 18.382,77.261 18.382,76.132Z" style="fill:rgb(158,161,168);fill-rule:nonzero;"/>
            <path id="path1047" d="M20.704,71.587L22.2,71.587C22.819,71.587 23.28,71.734 23.582,72.029C23.965,72.412 24.156,72.996 24.156,73.783C24.156,74.387 24.054,74.874 23.85,75.241C23.65,75.606 23.362,75.831 22.987,75.919L24.538,80.021L23.386,80.021L21.84,75.891L21.84,80.021L20.704,80.021L20.704,71.587ZM21.84,75.323C22.281,75.323 22.592,75.221 22.774,75.017C22.956,74.813 23.047,74.469 23.047,73.985C23.047,73.723 23.027,73.499 22.987,73.313C22.951,73.127 22.891,72.976 22.807,72.86C22.727,72.743 22.621,72.658 22.49,72.603C22.362,72.548 22.21,72.521 22.031,72.521L21.84,72.521L21.84,75.323Z" style="fill:rgb(158,161,168);fill-rule:nonzero;"/>
            <path id="path1049" d="M25.423,71.587L26.822,71.587C27.248,71.587 27.607,71.634 27.898,71.729C28.167,71.82 28.408,71.982 28.619,72.215C28.936,72.565 29.162,73.02 29.296,73.581C29.431,74.123 29.498,74.901 29.498,75.913C29.498,76.842 29.424,77.599 29.274,78.186C29.129,78.746 28.888,79.174 28.553,79.469C28.142,79.837 27.404,80.021 26.341,80.021L25.423,80.021L25.423,71.587ZM26.56,79.027C27.251,79.027 27.714,78.817 27.947,78.399C28.187,77.98 28.308,77.166 28.308,75.957C28.308,74.657 28.193,73.763 27.963,73.275C27.734,72.787 27.313,72.543 26.702,72.543L26.56,72.543L26.56,79.027Z" style="fill:rgb(158,161,168);fill-rule:nonzero;"/>
        </g>
        <g id="g1102" transform="matrix(0.838763,0,0,1.19223,60,-10.0065)">
            <path id="path1094" d="M2.384,37.641L3.514,37.641L3.514,45.073L5.361,45.073L5.361,46.029L2.384,46.029L2.384,37.641Z" style="fill:rgb(158,161,168);fill-rule:nonzero;"/>
            <path id="path1096" d="M10.278,42.041C10.278,43.523 10.113,44.575 9.783,45.198C9.454,45.821 8.902,46.132 8.127,46.132C7.312,46.132 6.738,45.797 6.404,45.127C6.075,44.471 5.91,43.307 5.91,41.634C5.91,40.142 6.073,39.086 6.399,38.467C6.729,37.844 7.286,37.532 8.072,37.532C8.775,37.532 9.296,37.773 9.637,38.255C9.861,38.577 10.024,39.035 10.126,39.629C10.227,40.18 10.278,40.984 10.278,42.041ZM9.093,42.161C9.093,40.709 9.028,39.745 8.898,39.271C8.768,38.793 8.501,38.554 8.099,38.554C7.697,38.554 7.429,38.773 7.295,39.211C7.165,39.653 7.1,40.54 7.1,41.873C7.1,43.101 7.169,43.952 7.306,44.426C7.447,44.875 7.712,45.1 8.099,45.1C8.48,45.1 8.74,44.89 8.882,44.47C9.023,44.053 9.093,43.284 9.093,42.161Z" style="fill:rgb(158,161,168);fill-rule:nonzero;"/>
            <path id="path1098" d="M15.602,42.041C15.602,43.523 15.437,44.575 15.107,45.198C14.778,45.821 14.225,46.132 13.45,46.132C12.635,46.132 12.061,45.797 11.728,45.127C11.399,44.471 11.234,43.307 11.234,41.634C11.234,40.142 11.397,39.086 11.723,38.467C12.052,37.844 12.61,37.532 13.396,37.532C14.099,37.532 14.62,37.773 14.96,38.255C15.185,38.577 15.348,39.035 15.449,39.629C15.551,40.18 15.602,40.984 15.602,42.041ZM14.417,42.161C14.417,40.709 14.352,39.745 14.222,39.271C14.091,38.793 13.825,38.554 13.423,38.554C13.021,38.554 12.753,38.773 12.619,39.211C12.489,39.653 12.424,40.54 12.424,41.873C12.424,43.101 12.492,43.952 12.63,44.426C12.771,44.875 13.036,45.1 13.423,45.1C13.803,45.1 14.064,44.89 14.205,44.47C14.347,44.053 14.417,43.284 14.417,42.161Z" style="fill:rgb(158,161,168);fill-rule:nonzero;"/>
            <path id="path1100" d="M16.726,37.641L18.214,37.641C18.932,37.641 19.453,37.822 19.779,38.184C20.105,38.55 20.268,39.13 20.268,39.923C20.268,41.038 19.94,41.759 19.285,42.085C18.955,42.233 18.479,42.308 17.856,42.308L17.856,46.029L16.726,46.029L16.726,37.641ZM17.856,41.341C18.323,41.341 18.645,41.246 18.823,41.058C19.004,40.866 19.095,40.526 19.095,40.037C19.095,39.537 19.008,39.171 18.834,38.939C18.66,38.708 18.387,38.592 18.013,38.592L17.856,38.592L17.856,41.341Z" style="fill:rgb(158,161,168);fill-rule:nonzero;"/>
        </g>
        <g id="text1106" transform="matrix(0.819759,0,0,1.21987,0,9.99997)">
            <path id="path1112" d="M75.632,53.183L78.568,53.183L78.568,54.118L76.736,54.118L76.736,56.714L78.361,56.714L78.361,57.649L76.736,57.649L76.736,60.447L78.568,60.447L78.568,61.381L75.632,61.381L75.632,53.183Z" style="fill:rgb(158,161,168);fill-rule:nonzero;"/>
            <rect id="path1114" x="78.95" y="58.153" width="1.933" height="0.828" style="fill:rgb(158,161,168);"/>
            <path id="path1116" d="M85.619,57.484C85.619,58.932 85.458,59.96 85.136,60.569C84.814,61.178 84.274,61.482 83.516,61.482C82.72,61.482 82.159,61.155 81.833,60.5C81.511,59.859 81.35,58.721 81.35,57.086C81.35,55.628 81.509,54.596 81.828,53.991C82.15,53.382 82.695,53.077 83.463,53.077C84.15,53.077 84.66,53.313 84.992,53.783C85.212,54.098 85.371,54.546 85.47,55.127C85.569,55.665 85.619,56.45 85.619,57.484ZM84.461,57.601C84.461,56.181 84.398,55.24 84.27,54.776C84.143,54.309 83.883,54.075 83.49,54.075C83.097,54.075 82.835,54.29 82.704,54.718C82.577,55.15 82.513,56.017 82.513,57.319C82.513,58.519 82.58,59.351 82.715,59.815C82.853,60.254 83.111,60.473 83.49,60.473C83.861,60.473 84.116,60.268 84.254,59.857C84.392,59.45 84.461,58.698 84.461,57.601Z" style="fill:rgb(158,161,168);fill-rule:nonzero;"/>
            <rect id="path1118" x="86.086" y="58.153" width="1.933" height="0.828" style="fill:rgb(158,161,168);"/>
            <path id="path1120" d="M88.65,53.183L89.755,53.183L89.755,60.447L91.56,60.447L91.56,61.381L88.65,61.381L88.65,53.183Z" style="fill:rgb(158,161,168);fill-rule:nonzero;"/>
            <path id="path1122" d="M96.365,57.484C96.365,58.932 96.204,59.96 95.882,60.569C95.56,61.178 95.02,61.482 94.262,61.482C93.466,61.482 92.905,61.155 92.579,60.5C92.257,59.859 92.096,58.721 92.096,57.086C92.096,55.628 92.255,54.596 92.574,53.991C92.896,53.382 93.441,53.077 94.209,53.077C94.896,53.077 95.406,53.313 95.738,53.783C95.958,54.098 96.117,54.546 96.216,55.127C96.315,55.665 96.365,56.45 96.365,57.484ZM95.207,57.601C95.207,56.181 95.144,55.24 95.016,54.776C94.889,54.309 94.629,54.075 94.236,54.075C93.843,54.075 93.581,54.29 93.45,54.718C93.323,55.15 93.259,56.017 93.259,57.319C93.259,58.519 93.326,59.351 93.461,59.815C93.599,60.254 93.857,60.473 94.236,60.473C94.607,60.473 94.862,60.268 95,59.857C95.138,59.45 95.207,58.698 95.207,57.601Z" style="fill:rgb(158,161,168);fill-rule:nonzero;"/>
            <path id="path1125" d="M101.568,57.484C101.568,58.932 101.407,59.96 101.085,60.569C100.763,61.178 100.223,61.482 99.465,61.482C98.669,61.482 98.108,61.155 97.782,60.5C97.46,59.859 97.299,58.721 97.299,57.086C97.299,55.628 97.459,54.596 97.777,53.991C98.099,53.382 98.644,53.077 99.412,53.077C100.099,53.077 100.609,53.313 100.941,53.783C101.161,54.098 101.32,54.546 101.419,55.127C101.518,55.665 101.568,56.45 101.568,57.484ZM100.411,57.601C100.411,56.181 100.347,55.24 100.219,54.776C100.092,54.309 99.832,54.075 99.439,54.075C99.046,54.075 98.784,54.29 98.653,54.718C98.526,55.15 98.462,56.017 98.462,57.319C98.462,58.519 98.529,59.351 98.664,59.815C98.802,60.254 99.06,60.473 99.439,60.473C99.811,60.473 100.065,60.268 100.203,59.857C100.342,59.45 100.411,58.698 100.411,57.601Z" style="fill:rgb(158,161,168);fill-rule:nonzero;"/>
            <path id="path1127" d="M102.667,53.183L104.122,53.183C104.823,53.183 105.332,53.36 105.651,53.714C105.969,54.072 106.129,54.638 106.129,55.413C106.129,56.504 105.808,57.208 105.168,57.527C104.846,57.672 104.38,57.744 103.771,57.744L103.771,61.381L102.667,61.381L102.667,53.183ZM103.771,56.799C104.228,56.799 104.543,56.707 104.716,56.523C104.893,56.335 104.982,56.003 104.982,55.525C104.982,55.036 104.897,54.679 104.727,54.452C104.557,54.226 104.29,54.113 103.925,54.113L103.771,54.113L103.771,56.799Z" style="fill:rgb(158,161,168);fill-rule:nonzero;"/>
        </g>
        <g id="text1110" transform="matrix(0.819759,0,0,1.21987,0,9.99997)">
            <path id="path1131" d="M2.44,53.183L5.376,53.183L5.376,54.118L3.544,54.118L3.544,56.714L5.169,56.714L5.169,57.649L3.544,57.649L3.544,60.447L5.376,60.447L5.376,61.381L2.44,61.381L2.44,53.183Z" style="fill:rgb(158,161,168);fill-rule:nonzero;"/>
            <rect id="path1133" x="5.758" y="58.153" width="1.933" height="0.828" style="fill:rgb(158,161,168);"/>
            <path id="path1135" d="M12.427,57.484C12.427,58.932 12.266,59.96 11.943,60.569C11.621,61.178 11.082,61.482 10.324,61.482C9.528,61.482 8.967,61.155 8.641,60.5C8.319,59.859 8.158,58.721 8.158,57.086C8.158,55.628 8.317,54.596 8.636,53.991C8.958,53.382 9.503,53.077 10.271,53.077C10.958,53.077 11.467,53.313 11.8,53.783C12.02,54.098 12.179,54.546 12.278,55.127C12.377,55.665 12.427,56.45 12.427,57.484ZM11.269,57.601C11.269,56.181 11.205,55.24 11.078,54.776C10.951,54.309 10.69,54.075 10.298,54.075C9.905,54.075 9.643,54.29 9.512,54.718C9.384,55.15 9.321,56.017 9.321,57.319C9.321,58.519 9.388,59.351 9.522,59.815C9.66,60.254 9.919,60.473 10.298,60.473C10.669,60.473 10.924,60.268 11.062,59.857C11.2,59.45 11.269,58.698 11.269,57.601Z" style="fill:rgb(158,161,168);fill-rule:nonzero;"/>
            <rect id="path1137" x="12.894" y="58.153" width="1.933" height="0.828" style="fill:rgb(158,161,168);"/>
            <path id="path1140" d="M18.193,53.353L18.193,54.431C17.856,54.19 17.554,54.07 17.285,54.07C16.994,54.07 16.757,54.173 16.573,54.378C16.389,54.573 16.297,54.833 16.297,55.159C16.297,55.445 16.363,55.691 16.494,55.897C16.561,56.006 16.67,56.148 16.823,56.321C16.978,56.495 17.178,56.704 17.423,56.948C17.872,57.404 18.178,57.799 18.341,58.132C18.504,58.454 18.585,58.849 18.585,59.316C18.585,59.949 18.407,60.471 18.049,60.882C17.692,61.282 17.233,61.482 16.674,61.482C16.203,61.482 15.802,61.353 15.469,61.094L15.469,60.001C15.862,60.287 16.219,60.431 16.541,60.431C16.842,60.431 17.078,60.332 17.247,60.133C17.417,59.932 17.502,59.659 17.502,59.316C17.502,59.018 17.437,58.751 17.306,58.514C17.239,58.401 17.145,58.272 17.024,58.126C16.904,57.978 16.754,57.813 16.573,57.633C16.294,57.357 16.062,57.112 15.878,56.9C15.694,56.688 15.557,56.502 15.469,56.343C15.299,56.031 15.214,55.638 15.214,55.164C15.214,54.523 15.38,54.015 15.713,53.64C16.049,53.261 16.501,53.072 17.067,53.072C17.46,53.072 17.835,53.166 18.193,53.353Z" style="fill:rgb(158,161,168);fill-rule:nonzero;"/>
            <path id="path1142" d="M22.732,53.316L22.732,54.309C22.449,54.171 22.212,54.102 22.021,54.102C21.759,54.102 21.534,54.167 21.346,54.298C21.159,54.426 21.003,54.624 20.879,54.893C20.759,55.162 20.668,55.504 20.608,55.918C20.552,56.328 20.523,56.815 20.523,57.378C20.523,59.402 21.042,60.415 22.079,60.415C22.259,60.415 22.477,60.358 22.732,60.245L22.732,61.259C22.467,61.408 22.169,61.482 21.84,61.482C20.18,61.482 19.35,60.126 19.35,57.415C19.35,55.95 19.552,54.859 19.955,54.144C20.362,53.429 20.983,53.072 21.819,53.072C22.127,53.072 22.431,53.153 22.732,53.316Z" style="fill:rgb(158,161,168);fill-rule:nonzero;"/>
            <path id="path1144" d="M23.656,53.183L26.592,53.183L26.592,54.118L24.76,54.118L24.76,56.714L26.385,56.714L26.385,57.649L24.76,57.649L24.76,60.447L26.592,60.447L26.592,61.381L23.656,61.381L23.656,53.183Z" style="fill:rgb(158,161,168);fill-rule:nonzero;"/>
            <path id="path1146" d="M27.606,53.183L28.636,53.183L29.735,56.454C30.054,57.378 30.335,58.364 30.579,59.411C30.491,58.778 30.425,58.204 30.383,57.691C30.34,57.178 30.319,56.695 30.319,56.242L30.319,53.183L31.429,53.183L31.429,61.381L30.393,61.381L29.156,57.691C29.043,57.348 28.935,56.996 28.832,56.635C28.733,56.274 28.641,55.895 28.556,55.498C28.549,55.449 28.537,55.389 28.519,55.318C28.505,55.247 28.487,55.166 28.466,55.074C28.477,55.166 28.486,55.245 28.493,55.313C28.5,55.376 28.505,55.431 28.509,55.477L28.567,56.311L28.625,57.325C28.629,57.381 28.631,57.45 28.631,57.532C28.634,57.613 28.636,57.705 28.636,57.808L28.694,61.381L27.606,61.381L27.606,53.183Z" style="fill:rgb(158,161,168);fill-rule:nonzero;"/>
            <path id="path1148" d="M32.703,53.183L35.639,53.183L35.639,54.118L33.807,54.118L33.807,56.714L35.432,56.714L35.432,57.649L33.807,57.649L33.807,60.447L35.639,60.447L35.639,61.381L32.703,61.381L32.703,53.183Z" style="fill:rgb(158,161,168);fill-rule:nonzero;"/>
        </g>
        <g id="text1153" transform="matrix(0.729969,0,0,1.36992,0,0)">
            <path id="path1155" d="M2.74,76.557L5.941,76.557L5.941,77.417L4.839,77.417L4.839,83.857L3.875,83.857L3.875,77.417L2.74,77.417L2.74,76.557Z" style="fill:rgb(158,161,168);fill-rule:nonzero;"/>
            <rect id="path1157" x="6.48" y="76.557" width="0.983" height="7.3" style="fill:rgb(158,161,168);"/>
            <path id="path1159" d="M8.943,76.557L9.784,76.557L10.427,79.535C10.506,79.907 10.577,80.281 10.64,80.656C10.706,81.028 10.766,81.419 10.82,81.828C10.826,81.775 10.831,81.734 10.834,81.705C10.837,81.674 10.84,81.652 10.843,81.639L10.98,80.802L11.103,80.008L11.212,79.483L11.784,76.557L12.635,76.557L13.306,83.857L12.366,83.857L12.2,81.379C12.194,81.253 12.188,81.144 12.181,81.053C12.178,80.962 12.177,80.886 12.177,80.826L12.134,79.847L12.11,78.949C12.11,78.943 12.109,78.93 12.106,78.911C12.106,78.889 12.104,78.861 12.101,78.826L12.077,78.973C12.052,79.146 12.028,79.297 12.006,79.427C11.987,79.556 11.97,79.665 11.954,79.753L11.831,80.42L11.784,80.67L11.17,83.857L10.508,83.857L9.931,81.105C9.852,80.743 9.781,80.375 9.718,80.003C9.658,79.628 9.603,79.236 9.553,78.826L9.269,83.857L8.342,83.857L8.943,76.557Z" style="fill:rgb(158,161,168);fill-rule:nonzero;"/>
            <path id="path1161" d="M14.12,76.557L16.734,76.557L16.734,77.389L15.103,77.389L15.103,79.701L16.55,79.701L16.55,80.533L15.103,80.533L15.103,83.025L16.734,83.025L16.734,83.857L14.12,83.857L14.12,76.557Z" style="fill:rgb(158,161,168);fill-rule:nonzero;"/>
            <path id="path1163" d="M22.076,76.708L22.076,77.668C21.777,77.454 21.508,77.346 21.268,77.346C21.01,77.346 20.798,77.438 20.634,77.621C20.471,77.794 20.389,78.026 20.389,78.316C20.389,78.571 20.447,78.79 20.564,78.973C20.623,79.071 20.721,79.197 20.857,79.351C20.995,79.505 21.173,79.691 21.391,79.909C21.791,80.315 22.064,80.667 22.209,80.963C22.354,81.25 22.426,81.601 22.426,82.017C22.426,82.582 22.267,83.047 21.949,83.412C21.63,83.768 21.222,83.946 20.724,83.946C20.305,83.946 19.947,83.831 19.651,83.601L19.651,82.627C20.001,82.883 20.319,83.01 20.606,83.01C20.874,83.01 21.084,82.922 21.235,82.746C21.386,82.566 21.462,82.323 21.462,82.018C21.462,81.753 21.404,81.515 21.287,81.304C21.227,81.203 21.144,81.088 21.036,80.958C20.929,80.826 20.795,80.68 20.634,80.519C20.385,80.273 20.179,80.055 20.015,79.866C19.851,79.677 19.73,79.512 19.651,79.37C19.5,79.093 19.424,78.743 19.424,78.32C19.424,77.75 19.572,77.298 19.869,76.964C20.168,76.626 20.57,76.458 21.074,76.458C21.424,76.458 21.758,76.541 22.076,76.708Z" style="fill:rgb(158,161,168);fill-rule:nonzero;"/>
            <path id="path1166" d="M26.119,76.675L26.119,77.559C25.867,77.436 25.655,77.375 25.485,77.375C25.252,77.375 25.052,77.433 24.885,77.55C24.718,77.663 24.579,77.84 24.469,78.079C24.362,78.319 24.281,78.623 24.228,78.992C24.177,79.357 24.152,79.791 24.152,80.292C24.152,82.095 24.614,82.996 25.537,82.996C25.698,82.996 25.892,82.946 26.119,82.845L26.119,83.748C25.882,83.88 25.618,83.946 25.324,83.946C23.846,83.946 23.107,82.739 23.107,80.325C23.107,79.02 23.287,78.049 23.646,77.413C24.009,76.776 24.562,76.458 25.306,76.458C25.58,76.458 25.851,76.53 26.119,76.675Z" style="fill:rgb(158,161,168);fill-rule:nonzero;"/>
            <path id="path1168" d="M28.246,76.557L29.012,76.557L30.577,83.857L29.603,83.857L29.329,82.434L27.882,82.434L27.603,83.857L26.658,83.857L28.246,76.557ZM29.187,81.672L28.97,80.509C28.825,79.718 28.706,78.874 28.615,77.975C28.571,78.413 28.514,78.858 28.445,79.308C28.375,79.756 28.293,80.232 28.199,80.736L28.019,81.672L29.187,81.672Z" style="fill:rgb(158,161,168);fill-rule:nonzero;"/>
            <path id="path1170" d="M31.159,76.557L32.142,76.557L32.142,83.025L33.749,83.025L33.749,83.857L31.159,83.857L31.159,76.557Z" style="fill:rgb(158,161,168);fill-rule:nonzero;"/>
            <path id="path1172" d="M34.373,76.557L36.988,76.557L36.988,77.389L35.357,77.389L35.357,79.701L36.803,79.701L36.803,80.533L35.357,80.533L35.357,83.025L36.988,83.025L36.988,83.857L34.373,83.857L34.373,76.557Z" style="fill:rgb(158,161,168);fill-rule:nonzero;"/>
        </g>
    </g>
</svg>
