<?xml version="1.0" encoding="UTF-8" standalone="no"?>
<!DOCTYPE svg PUBLIC "-//W3C//DTD SVG 1.1//EN" "http://www.w3.org/Graphics/SVG/1.1/DTD/svg11.dtd">
<svg width="100%" height="100%" viewBox="0 0 180 380" version="1.1" xmlns="http://www.w3.org/2000/svg" xmlns:xlink="http://www.w3.org/1999/xlink" xml:space="preserve" xmlns:serif="http://www.serif.com/" style="fill-rule:evenodd;clip-rule:evenodd;stroke-linejoin:round;stroke-miterlimit:2;">
    <g id="Layer-2" serif:id="Layer 2">
        <rect id="rect4689" x="0" y="0" width="180" height="380" style="fill:rgb(44,45,48);fill-rule:nonzero;"/>
        <g id="text989">
        </g>
        <g id="text80" transform="matrix(1.00498,0,0,0.995047,45,4.99997)">
            <path id="path4726" d="M29.851,371.706L29.851,363.943L31.853,363.943L32.903,366.668C32.96,366.829 33.024,367.013 33.094,367.221C33.168,367.429 33.249,367.668 33.336,367.94L33.552,368.624C33.475,367.95 33.416,367.373 33.376,366.894C33.336,366.415 33.316,366.013 33.316,365.687L33.316,363.943L35.317,363.943L35.317,371.706L33.316,371.706L32.26,368.85C32.149,368.545 32.049,368.26 31.958,367.995C31.871,367.727 31.794,367.472 31.727,367.231C31.77,367.777 31.802,368.253 31.822,368.659C31.843,369.065 31.853,369.42 31.853,369.725L31.853,371.706L29.851,371.706Z" style="fill:rgb(158,161,168);fill-rule:nonzero;"/>
            <path id="path4728" d="M39.887,371.706L37.791,371.706L37.791,368.418L35.865,363.943L38.052,363.943L38.429,365.094C38.503,365.319 38.568,365.535 38.625,365.743C38.686,365.951 38.739,366.15 38.786,366.341C38.863,366.056 38.93,365.811 38.987,365.607C39.044,365.399 39.095,365.232 39.138,365.104L39.52,363.943L41.692,363.943L39.887,368.418L39.887,371.706Z" style="fill:rgb(158,161,168);fill-rule:nonzero;"/>
            <path id="path4730" d="M41.894,371.515L41.894,369.076C42.306,369.639 42.752,369.921 43.231,369.921C43.412,369.921 43.56,369.874 43.673,369.78C43.787,369.683 43.844,369.562 43.844,369.418C43.844,369.21 43.72,369.008 43.472,368.81L43.13,368.543C42.902,368.372 42.708,368.203 42.547,368.035C42.386,367.865 42.256,367.69 42.155,367.513C42.054,367.332 41.981,367.146 41.934,366.954C41.887,366.763 41.863,366.562 41.863,366.351C41.863,365.989 41.947,365.61 42.115,365.215C42.199,365.03 42.296,364.863 42.406,364.712C42.517,364.558 42.644,364.422 42.789,364.305C43.184,363.969 43.662,363.802 44.222,363.802C44.721,363.802 45.224,363.934 45.73,364.199L45.73,366.572C45.559,366.308 45.365,366.1 45.147,365.949C44.929,365.795 44.714,365.718 44.503,365.718C44.342,365.718 44.21,365.765 44.106,365.858C43.999,365.949 43.945,366.058 43.945,366.185C43.945,366.393 44.087,366.599 44.372,366.804L44.704,367.05C45.147,367.368 45.463,367.695 45.655,368.03C45.849,368.366 45.946,368.758 45.946,369.207C45.946,369.971 45.713,370.601 45.247,371.098C44.781,371.594 44.191,371.842 43.477,371.842C42.985,371.842 42.457,371.733 41.894,371.515L41.894,371.515Z" style="fill:rgb(158,161,168);fill-rule:nonzero;"/>
            <path id="path4732" d="M49.576,371.706L47.48,371.706L47.48,365.803L46.323,365.803L46.323,363.943L50.778,363.943L50.778,365.803L49.576,365.803L49.576,371.706Z" style="fill:rgb(158,161,168);fill-rule:nonzero;"/>
            <path id="path4734" d="M56.525,371.706L54.428,371.706L54.428,368.584L53.428,368.584L53.428,371.706L51.331,371.706L51.331,363.943L53.428,363.943L53.428,366.688L54.428,366.688L54.428,363.943L56.525,363.943L56.525,371.706Z" style="fill:rgb(158,161,168);fill-rule:nonzero;"/>
            <rect id="path4736" x="57.606" y="363.943" width="2.097" height="7.763" style="fill:rgb(158,161,168);fill-rule:nonzero;"/>
        </g>
        <g id="text4987">
        </g>
        <g id="g1175" transform="matrix(1,0,0,1,45,-258)">
            <g id="text938" transform="matrix(0.683031,0,0,0.808081,5.83177,176.869)">
                <path id="path963" d="M14.146,128.039L14.146,129.625C13.651,129.271 13.205,129.094 12.81,129.094C12.382,129.094 12.034,129.245 11.763,129.547C11.492,129.833 11.356,130.216 11.356,130.695C11.356,131.117 11.453,131.479 11.646,131.781C11.744,131.943 11.906,132.151 12.13,132.406C12.359,132.661 12.653,132.969 13.013,133.328C13.674,134 14.125,134.581 14.364,135.07C14.604,135.544 14.724,136.125 14.724,136.812C14.724,137.745 14.461,138.513 13.935,139.117C13.409,139.706 12.734,140 11.911,140C11.218,140 10.627,139.81 10.138,139.43L10.138,137.82C10.716,138.242 11.242,138.453 11.716,138.453C12.159,138.453 12.505,138.307 12.755,138.016C13.005,137.719 13.13,137.318 13.13,136.812C13.13,136.375 13.034,135.982 12.841,135.633C12.742,135.466 12.604,135.276 12.427,135.062C12.25,134.844 12.028,134.602 11.763,134.336C11.351,133.93 11.01,133.57 10.739,133.258C10.468,132.945 10.268,132.672 10.138,132.437C9.888,131.979 9.763,131.401 9.763,130.703C9.763,129.76 10.007,129.013 10.497,128.461C10.992,127.904 11.656,127.625 12.489,127.625C13.067,127.625 13.619,127.763 14.146,128.039Z" style="fill:rgb(158,161,168);fill-rule:nonzero;"/>
                <path id="path965" d="M15.317,127.789L20.606,127.789L20.606,129.211L18.786,129.211L18.786,139.852L17.192,139.852L17.192,129.211L15.317,129.211L15.317,127.789Z" style="fill:rgb(158,161,168);fill-rule:nonzero;"/>
                <path id="path967" d="M22.997,127.789L24.263,127.789L26.849,139.852L25.239,139.852L24.786,137.5L22.396,137.5L21.935,139.852L20.372,139.852L22.997,127.789ZM24.552,136.242L24.192,134.32C23.953,133.013 23.757,131.617 23.606,130.133C23.534,130.857 23.44,131.591 23.325,132.336C23.211,133.076 23.075,133.862 22.919,134.695L22.622,136.242L24.552,136.242Z" style="fill:rgb(158,161,168);fill-rule:nonzero;"/>
                <path id="path969" d="M27.81,127.789L29.95,127.789C30.836,127.789 31.494,128 31.927,128.422C32.474,128.969 32.747,129.805 32.747,130.93C32.747,131.794 32.601,132.49 32.31,133.016C32.023,133.536 31.612,133.859 31.075,133.984L33.294,139.852L31.646,139.852L29.435,133.945L29.435,139.852L27.81,139.852L27.81,127.789ZM29.435,133.133C30.065,133.133 30.51,132.987 30.771,132.695C31.031,132.404 31.161,131.911 31.161,131.219C31.161,130.844 31.132,130.523 31.075,130.258C31.023,129.992 30.937,129.776 30.817,129.609C30.703,129.443 30.552,129.32 30.364,129.242C30.182,129.164 29.963,129.125 29.708,129.125L29.435,129.125L29.435,133.133Z" style="fill:rgb(158,161,168);fill-rule:nonzero;"/>
                <path id="path971" d="M33.755,127.789L39.044,127.789L39.044,129.211L37.224,129.211L37.224,139.852L35.63,139.852L35.63,129.211L33.755,129.211L33.755,127.789Z" style="fill:rgb(158,161,168);fill-rule:nonzero;"/>
            </g>
            <g id="text942" transform="matrix(0.812698,0,0,0.808081,45.769,144.545)">
                <path id="path954" d="M18.817,168.039L18.817,169.625C18.323,169.271 17.877,169.094 17.481,169.094C17.054,169.094 16.705,169.245 16.435,169.547C16.164,169.833 16.028,170.216 16.028,170.695C16.028,171.117 16.125,171.479 16.317,171.781C16.416,171.943 16.578,172.151 16.802,172.406C17.031,172.661 17.325,172.969 17.685,173.328C18.346,174 18.797,174.581 19.036,175.07C19.276,175.544 19.396,176.125 19.396,176.812C19.396,177.745 19.132,178.513 18.606,179.117C18.08,179.706 17.406,180 16.583,180C15.89,180 15.299,179.81 14.81,179.43L14.81,177.82C15.388,178.242 15.914,178.453 16.388,178.453C16.83,178.453 17.177,178.307 17.427,178.016C17.677,177.719 17.802,177.318 17.802,176.812C17.802,176.375 17.705,175.982 17.513,175.633C17.414,175.466 17.276,175.276 17.099,175.062C16.922,174.844 16.7,174.602 16.435,174.336C16.023,173.93 15.682,173.57 15.411,173.258C15.14,172.945 14.94,172.672 14.81,172.437C14.56,171.979 14.435,171.401 14.435,170.703C14.435,169.76 14.679,169.013 15.169,168.461C15.664,167.904 16.328,167.625 17.161,167.625C17.739,167.625 18.291,167.763 18.817,168.039Z" style="fill:rgb(158,161,168);fill-rule:nonzero;"/>
                <path id="path956" d="M19.989,167.789L25.278,167.789L25.278,169.211L23.458,169.211L23.458,179.852L21.864,179.852L21.864,169.211L19.989,169.211L19.989,167.789Z" style="fill:rgb(158,161,168);fill-rule:nonzero;"/>
                <path id="path958" d="M32.333,174.117C32.333,176.247 32.096,177.76 31.622,178.656C31.148,179.552 30.354,180 29.239,180C28.067,180 27.242,179.518 26.763,178.555C26.289,177.612 26.052,175.938 26.052,173.531C26.052,171.385 26.286,169.867 26.755,168.977C27.229,168.081 28.031,167.633 29.161,167.633C30.172,167.633 30.922,167.979 31.411,168.672C31.734,169.135 31.968,169.794 32.114,170.648C32.26,171.44 32.333,172.596 32.333,174.117L32.333,174.117ZM30.63,174.289C30.63,172.201 30.536,170.815 30.349,170.133C30.161,169.445 29.778,169.102 29.2,169.102C28.622,169.102 28.237,169.417 28.044,170.047C27.856,170.682 27.763,171.958 27.763,173.875C27.763,175.641 27.862,176.865 28.06,177.547C28.263,178.193 28.643,178.516 29.2,178.516C29.747,178.516 30.122,178.214 30.325,177.609C30.528,177.01 30.63,175.904 30.63,174.289L30.63,174.289Z" style="fill:rgb(158,161,168);fill-rule:nonzero;"/>
                <path id="path960" d="M33.95,167.789L36.091,167.789C37.122,167.789 37.872,168.049 38.341,168.57C38.81,169.096 39.044,169.93 39.044,171.07C39.044,172.674 38.573,173.711 37.63,174.18C37.156,174.393 36.471,174.5 35.575,174.5L35.575,179.852L33.95,179.852L33.95,167.789ZM35.575,173.109C36.247,173.109 36.711,172.974 36.966,172.703C37.226,172.427 37.356,171.937 37.356,171.234C37.356,170.516 37.231,169.99 36.981,169.656C36.731,169.323 36.338,169.156 35.802,169.156L35.575,169.156L35.575,173.109Z" style="fill:rgb(158,161,168);fill-rule:nonzero;"/>
            </g>
        </g>
        <g id="text918" transform="matrix(0.891503,0,0,1.21212,11.5686,-275.706)">
            <path id="path924" d="M22.424,301.816L23.268,301.816L24.992,309.858L23.919,309.858L23.617,308.29L22.023,308.29L21.716,309.858L20.674,309.858L22.424,301.816ZM23.461,307.452L23.221,306.171C23.062,305.299 22.931,304.369 22.831,303.379C22.782,303.862 22.72,304.351 22.643,304.848C22.567,305.341 22.477,305.865 22.372,306.421L22.174,307.452L23.461,307.452Z" style="fill:rgb(158,161,168);fill-rule:nonzero;"/>
            <path id="path926" d="M25.633,301.816L26.695,301.816L26.695,307.499C26.695,308.079 26.747,308.464 26.852,308.655C26.959,308.846 27.171,308.941 27.487,308.941C27.803,308.941 28.011,308.858 28.112,308.691C28.216,308.521 28.268,308.176 28.268,307.655L28.268,301.816L29.331,301.816L29.331,307.655C29.331,308.53 29.197,309.122 28.93,309.431C28.61,309.782 28.122,309.957 27.466,309.957C26.744,309.957 26.235,309.731 25.94,309.28C25.735,308.971 25.633,308.377 25.633,307.499L25.633,301.816Z" style="fill:rgb(158,161,168);fill-rule:nonzero;"/>
            <path id="path928" d="M29.93,301.816L33.456,301.816L33.456,302.764L32.242,302.764L32.242,309.858L31.18,309.858L31.18,302.764L29.93,302.764L29.93,301.816Z" style="fill:rgb(158,161,168);fill-rule:nonzero;"/>
            <path id="path930" d="M38.159,306.035C38.159,307.455 38.001,308.464 37.685,309.061C37.369,309.659 36.839,309.957 36.096,309.957C35.315,309.957 34.765,309.636 34.445,308.994C34.129,308.365 33.971,307.249 33.971,305.645C33.971,304.214 34.128,303.202 34.44,302.608C34.756,302.011 35.291,301.712 36.044,301.712C36.718,301.712 37.218,301.943 37.544,302.405C37.76,302.714 37.916,303.153 38.013,303.723C38.11,304.251 38.159,305.021 38.159,306.035L38.159,306.035ZM37.023,306.15C37.023,304.757 36.961,303.834 36.836,303.379C36.711,302.921 36.456,302.692 36.07,302.692C35.685,302.692 35.428,302.902 35.299,303.322C35.174,303.745 35.112,304.596 35.112,305.874C35.112,307.051 35.178,307.867 35.31,308.322C35.445,308.752 35.699,308.968 36.07,308.968C36.435,308.968 36.685,308.766 36.82,308.363C36.956,307.964 37.023,307.226 37.023,306.15L37.023,306.15Z" style="fill:rgb(158,161,168);fill-rule:nonzero;"/>
            <path id="path932" d="M41.919,301.983L41.919,303.04C41.589,302.804 41.293,302.686 41.029,302.686C40.744,302.686 40.511,302.787 40.331,302.988C40.15,303.179 40.06,303.435 40.06,303.754C40.06,304.035 40.124,304.277 40.253,304.478C40.319,304.586 40.426,304.724 40.576,304.895C40.728,305.065 40.924,305.27 41.164,305.509C41.605,305.957 41.905,306.344 42.065,306.671C42.225,306.987 42.305,307.374 42.305,307.832C42.305,308.454 42.129,308.966 41.779,309.369C41.428,309.761 40.978,309.957 40.43,309.957C39.968,309.957 39.574,309.83 39.247,309.577L39.247,308.504C39.633,308.785 39.984,308.926 40.299,308.926C40.595,308.926 40.826,308.829 40.992,308.634C41.159,308.436 41.242,308.169 41.242,307.832C41.242,307.54 41.178,307.278 41.049,307.046C40.984,306.935 40.892,306.808 40.773,306.665C40.655,306.52 40.508,306.358 40.331,306.181C40.056,305.91 39.829,305.671 39.648,305.462C39.468,305.254 39.334,305.072 39.247,304.915C39.081,304.61 38.997,304.224 38.997,303.759C38.997,303.131 39.161,302.632 39.487,302.264C39.817,301.893 40.26,301.707 40.815,301.707C41.201,301.707 41.569,301.799 41.919,301.983L41.919,301.983Z" style="fill:rgb(158,161,168);fill-rule:nonzero;"/>
            <path id="path934" d="M44.487,301.816L45.331,301.816L47.055,309.858L45.982,309.858L45.68,308.29L44.086,308.29L43.779,309.858L42.737,309.858L44.487,301.816ZM45.523,307.452L45.284,306.171C45.124,305.299 44.994,304.369 44.893,303.379C44.845,303.862 44.782,304.351 44.706,304.848C44.629,305.341 44.539,305.865 44.435,306.421L44.237,307.452L45.523,307.452Z" style="fill:rgb(158,161,168);fill-rule:nonzero;"/>
            <path id="path936" d="M46.867,301.816L47.935,301.816L48.419,304.785L48.503,305.322L48.675,306.488C48.702,306.686 48.727,306.867 48.747,307.03C48.772,307.193 48.792,307.341 48.81,307.473L48.862,307.869C48.872,307.789 48.881,307.718 48.888,307.655C48.895,307.593 48.902,307.54 48.909,307.499L49.05,306.566L49.232,305.343C49.249,305.231 49.265,305.129 49.279,305.035C49.296,304.942 49.312,304.858 49.326,304.785L49.846,301.816L50.857,301.816L49.279,309.858L48.419,309.858L46.867,301.816Z" style="fill:rgb(158,161,168);fill-rule:nonzero;"/>
            <path id="path938" d="M51.445,301.816L54.326,301.816L54.326,302.733L52.529,302.733L52.529,305.28L54.122,305.28L54.122,306.197L52.529,306.197L52.529,308.941L54.326,308.941L54.326,309.858L51.445,309.858L51.445,301.816Z" style="fill:rgb(158,161,168);fill-rule:nonzero;"/>
        </g>
        <g id="text1321">
        </g>
        <g id="text1019">
            <path id="path1067" d="M63.477,17.789L57.773,17.789L57.773,5.727L61.031,5.727L61.031,14.891L63.477,14.891L63.477,17.789Z" style="fill:rgb(158,161,168);fill-rule:nonzero;"/>
            <path id="path1069" d="M73.297,11.797C73.297,13.635 72.878,15.13 72.039,16.281C71.206,17.427 70.12,18 68.781,18C67.594,18 66.576,17.56 65.727,16.68C64.659,15.565 64.125,13.893 64.125,11.664C64.125,9.529 64.682,7.896 65.797,6.766C66.625,5.927 67.607,5.508 68.742,5.508C70.133,5.508 71.24,6.076 72.062,7.211C72.885,8.346 73.297,9.875 73.297,11.797ZM69.914,11.82C69.914,9.638 69.529,8.547 68.758,8.547C68.372,8.547 68.065,8.833 67.836,9.406C67.612,9.937 67.5,10.719 67.5,11.75C67.5,12.766 67.604,13.555 67.813,14.117C68.026,14.674 68.32,14.953 68.695,14.953C69.081,14.953 69.378,14.677 69.586,14.125C69.805,13.573 69.914,12.805 69.914,11.82L69.914,11.82Z" style="fill:rgb(158,161,168);fill-rule:nonzero;"/>
            <path id="path1071" d="M78.875,10.812L83.422,10.812L83.422,11.312C83.422,13.635 83.076,15.307 82.383,16.328C81.628,17.443 80.51,18 79.031,18C77.578,18 76.437,17.453 75.609,16.359C74.786,15.255 74.375,13.74 74.375,11.812C74.375,9.859 74.789,8.32 75.617,7.195C76.445,6.07 77.578,5.508 79.016,5.508C80.922,5.508 82.305,6.503 83.164,8.492L80.008,9.648C79.961,9.268 79.852,8.969 79.68,8.75C79.513,8.526 79.302,8.414 79.047,8.414C78.151,8.414 77.703,9.646 77.703,12.109C77.703,13.156 77.802,13.917 78,14.391C78.198,14.865 78.513,15.102 78.945,15.102C79.117,15.102 79.273,15.06 79.414,14.977C79.555,14.893 79.672,14.776 79.766,14.625C79.865,14.474 79.94,14.292 79.992,14.078C80.049,13.859 80.078,13.617 80.078,13.352L78.875,13.352L78.875,10.812Z" style="fill:rgb(158,161,168);fill-rule:nonzero;"/>
            <path id="path1073" d="M93.242,17.789L89.875,17.789L89.633,16.258L87.437,16.258L87.172,17.789L83.805,17.789L86.703,5.727L90.687,5.727L93.242,17.789ZM89.25,13.672L89.039,12.266C89.034,12.26 89.023,12.19 89.008,12.055C88.997,11.94 88.943,11.487 88.844,10.695C88.833,10.607 88.82,10.487 88.805,10.336C88.789,10.18 88.768,9.984 88.742,9.75L88.64,8.609C88.63,8.719 88.615,8.841 88.594,8.977C88.578,9.112 88.56,9.26 88.539,9.422C88.502,9.745 88.476,9.969 88.461,10.094C88.445,10.219 88.435,10.294 88.429,10.32L88.203,11.781L87.875,13.672L89.25,13.672Z" style="fill:rgb(158,161,168);fill-rule:nonzero;"/>
            <path id="path1075" d="M94.18,17.789L94.18,5.727L97.289,5.727L98.922,9.961C99.01,10.211 99.109,10.497 99.219,10.82C99.333,11.143 99.458,11.516 99.594,11.937L99.93,13C99.81,11.953 99.719,11.057 99.656,10.312C99.594,9.568 99.562,8.943 99.562,8.437L99.562,5.727L102.672,5.727L102.672,17.789L99.562,17.789L97.922,13.352C97.75,12.878 97.594,12.435 97.453,12.023C97.318,11.607 97.198,11.211 97.094,10.836C97.161,11.685 97.211,12.424 97.242,13.055C97.273,13.685 97.289,14.237 97.289,14.711L97.289,17.789L94.18,17.789Z" style="fill:rgb(158,161,168);fill-rule:nonzero;"/>
            <path id="path1077" d="M112.344,17.789L104.039,17.789L107.336,13.391C107.711,12.891 108.026,12.445 108.281,12.055C108.536,11.659 108.737,11.31 108.883,11.008C109.169,10.44 109.313,9.857 109.313,9.258C109.313,8.93 109.245,8.669 109.109,8.477C108.974,8.284 108.789,8.187 108.555,8.187C108.034,8.187 107.773,8.677 107.773,9.656L107.773,9.844C107.779,9.917 107.784,10.003 107.789,10.102L104.625,10.102L104.609,9.664C104.609,8.451 104.984,7.456 105.734,6.68C106.49,5.898 107.456,5.508 108.633,5.508C109.768,5.508 110.695,5.878 111.414,6.617C112.138,7.341 112.5,8.286 112.5,9.453C112.5,10.391 112.253,11.302 111.758,12.187C111.508,12.63 111.182,13.096 110.781,13.586C110.385,14.07 109.904,14.581 109.336,15.117C109.826,15.081 110.318,15.055 110.813,15.039C111.313,15.023 111.823,15.016 112.344,15.016L112.344,17.789Z" style="fill:rgb(158,161,168);fill-rule:nonzero;"/>
            <path id="path1079" d="M122.227,11.836C122.227,13.721 121.852,15.221 121.102,16.336C120.352,17.445 119.344,18 118.078,18C116.708,18 115.635,17.44 114.859,16.32C114.089,15.206 113.703,13.648 113.703,11.648C113.703,9.758 114.089,8.263 114.859,7.164C115.635,6.06 116.682,5.508 118,5.508C119.328,5.508 120.365,6.068 121.109,7.187C121.854,8.307 122.227,9.857 122.227,11.836ZM119.008,11.813C119.008,9.484 118.656,8.32 117.953,8.32C117.255,8.32 116.906,9.362 116.906,11.445C116.906,13.935 117.247,15.18 117.93,15.18C118.299,15.18 118.57,14.909 118.742,14.367C118.919,13.82 119.008,12.969 119.008,11.813Z" style="fill:rgb(158,161,168);fill-rule:nonzero;"/>
        </g>
        <g id="text1023" transform="matrix(0.886158,0,0,1.12847,0,0)">
            <path id="path1048" d="M79.717,123.906L80.917,123.906L80.917,131.799L82.878,131.799L82.878,132.814L79.717,132.814L79.717,123.906Z" style="fill:rgb(158,161,168);fill-rule:nonzero;"/>
            <path id="path1050" d="M88.099,128.579C88.099,130.153 87.924,131.27 87.574,131.931C87.224,132.593 86.638,132.924 85.815,132.924C84.949,132.924 84.34,132.568 83.986,131.856C83.636,131.16 83.461,129.924 83.461,128.147C83.461,126.562 83.634,125.441 83.98,124.783C84.33,124.122 84.923,123.791 85.757,123.791C86.503,123.791 87.057,124.047 87.419,124.558C87.657,124.901 87.83,125.387 87.938,126.018C88.046,126.603 88.099,127.456 88.099,128.579ZM86.842,128.706C86.842,127.164 86.773,126.141 86.634,125.637C86.496,125.129 86.213,124.876 85.786,124.876C85.359,124.876 85.074,125.108 84.932,125.574C84.794,126.043 84.724,126.985 84.724,128.401C84.724,129.704 84.798,130.608 84.944,131.112C85.094,131.589 85.374,131.828 85.786,131.828C86.19,131.828 86.467,131.604 86.617,131.158C86.767,130.716 86.842,129.899 86.842,128.706L86.842,128.706Z" style="fill:rgb(158,161,168);fill-rule:nonzero;"/>
            <path id="path1052" d="M91.428,128.129L93.609,128.129L93.609,128.476C93.609,130.21 93.457,131.381 93.153,131.989C92.853,132.612 92.292,132.924 91.469,132.924C90.619,132.924 90.013,132.578 89.651,131.885C89.294,131.193 89.115,130.029 89.115,128.395C89.115,126.526 89.311,125.281 89.703,124.662C90.073,124.081 90.64,123.791 91.405,123.791C91.99,123.791 92.446,123.931 92.773,124.212C93.103,124.497 93.361,124.964 93.546,125.614L92.426,126.081C92.376,125.847 92.321,125.651 92.259,125.493C92.198,125.331 92.13,125.206 92.057,125.118C91.911,124.937 91.692,124.847 91.399,124.847C90.999,124.847 90.726,125.093 90.58,125.585C90.434,126.101 90.361,127.026 90.361,128.36C90.361,129.71 90.436,130.624 90.586,131.101C90.736,131.578 91.019,131.816 91.434,131.816C91.815,131.816 92.082,131.647 92.236,131.308C92.394,130.947 92.472,130.366 92.472,129.566L92.472,129.324L92.472,129.145L91.428,129.145L91.428,128.129Z" style="fill:rgb(158,161,168);fill-rule:nonzero;"/>
            <path id="path1054" d="M96.546,123.906L97.728,123.906L98.265,127.195L98.357,127.789L98.548,129.081C98.578,129.301 98.605,129.501 98.628,129.681C98.655,129.862 98.678,130.026 98.698,130.172L98.755,130.61C98.767,130.522 98.776,130.443 98.784,130.374C98.792,130.304 98.799,130.247 98.807,130.201L98.963,129.168L99.165,127.812C99.184,127.689 99.201,127.576 99.217,127.472C99.236,127.368 99.253,127.276 99.269,127.195L99.845,123.906L100.965,123.906L99.217,132.814L98.265,132.814L96.546,123.906Z" style="fill:rgb(158,161,168);fill-rule:nonzero;"/>
            <path id="path1056" d="M102.678,123.906L103.613,123.906L105.523,132.814L104.334,132.814L104,131.078L102.234,131.078L101.894,132.814L100.74,132.814L102.678,123.906ZM103.826,130.149L103.561,128.729C103.384,127.764 103.24,126.733 103.128,125.637C103.075,126.172 103.005,126.714 102.921,127.264C102.836,127.81 102.736,128.391 102.621,129.006L102.401,130.149L103.826,130.149Z" style="fill:rgb(158,161,168);fill-rule:nonzero;"/>
            <path id="path1058" d="M106.232,123.906L107.432,123.906L107.432,131.799L109.394,131.799L109.394,132.814L106.232,132.814L106.232,123.906Z" style="fill:rgb(158,161,168);fill-rule:nonzero;"/>
            <path id="path1060" d="M110.248,123.906L111.425,123.906L111.425,130.201C111.425,130.843 111.482,131.27 111.598,131.481C111.717,131.693 111.951,131.799 112.301,131.799C112.651,131.799 112.882,131.706 112.994,131.522C113.109,131.333 113.167,130.951 113.167,130.374L113.167,123.906L114.344,123.906L114.344,130.374C114.344,131.343 114.196,131.999 113.9,132.341C113.546,132.729 113.005,132.924 112.278,132.924C111.478,132.924 110.915,132.674 110.588,132.174C110.361,131.831 110.248,131.174 110.248,130.201L110.248,123.906Z" style="fill:rgb(158,161,168);fill-rule:nonzero;"/>
            <path id="path1062" d="M115.717,123.906L118.907,123.906L118.907,124.922L116.917,124.922L116.917,127.743L118.682,127.743L118.682,128.758L116.917,128.758L116.917,131.799L118.907,131.799L118.907,132.814L115.717,132.814L115.717,123.906Z" style="fill:rgb(158,161,168);fill-rule:nonzero;"/>
            <path id="path1064" d="M122.98,124.091L122.98,125.262C122.615,125.001 122.286,124.87 121.994,124.87C121.678,124.87 121.421,124.981 121.221,125.204C121.021,125.416 120.921,125.699 120.921,126.053C120.921,126.364 120.992,126.631 121.134,126.854C121.207,126.974 121.327,127.128 121.492,127.316C121.661,127.504 121.878,127.731 122.144,127.997C122.632,128.493 122.965,128.922 123.142,129.283C123.319,129.633 123.407,130.062 123.407,130.57C123.407,131.258 123.213,131.826 122.825,132.272C122.436,132.706 121.938,132.924 121.33,132.924C120.819,132.924 120.382,132.783 120.021,132.503L120.021,131.314C120.448,131.626 120.836,131.781 121.186,131.781C121.513,131.781 121.769,131.674 121.953,131.458C122.138,131.239 122.23,130.943 122.23,130.57C122.23,130.247 122.159,129.956 122.017,129.699C121.944,129.576 121.842,129.435 121.711,129.278C121.58,129.116 121.417,128.937 121.221,128.741C120.917,128.441 120.665,128.176 120.465,127.945C120.265,127.714 120.117,127.512 120.021,127.339C119.836,127.001 119.744,126.574 119.744,126.058C119.744,125.362 119.925,124.81 120.286,124.403C120.652,123.991 121.142,123.785 121.757,123.785C122.184,123.785 122.592,123.887 122.98,124.091L122.98,124.091Z" style="fill:rgb(158,161,168);fill-rule:nonzero;"/>
        </g>
        <g id="text1027" transform="matrix(0.759945,0,0,1.31589,0,10)">
            <path id="path1029" d="M157.906,60.662L161.256,60.662L161.256,61.562L160.103,61.562L160.103,68.301L159.094,68.301L159.094,61.562L157.906,61.562L157.906,60.662Z" style="fill:rgb(158,161,168);fill-rule:nonzero;"/>
            <path id="path1031" d="M161.82,60.662L163.175,60.662C163.736,60.662 164.153,60.796 164.427,61.063C164.773,61.409 164.947,61.938 164.947,62.651C164.947,63.198 164.854,63.639 164.67,63.972C164.488,64.302 164.228,64.506 163.888,64.585L165.293,68.301L164.249,68.301L162.849,64.561L162.849,68.301L161.82,68.301L161.82,60.662ZM162.849,64.046C163.248,64.046 163.53,63.954 163.695,63.769C163.86,63.584 163.942,63.273 163.942,62.834C163.942,62.596 163.924,62.394 163.888,62.225C163.855,62.057 163.8,61.92 163.725,61.815C163.652,61.709 163.556,61.632 163.438,61.582C163.322,61.533 163.184,61.508 163.022,61.508L162.849,61.508L162.849,64.046Z" style="fill:rgb(158,161,168);fill-rule:nonzero;"/>
            <rect id="path1033" x="166.094" y="60.662" width="1.029" height="7.639" style="fill:rgb(158,161,168);fill-rule:nonzero;"/>
            <path id="path1035" d="M170.142,64.284L172.012,64.284L172.012,64.58C172.012,66.068 171.881,67.072 171.621,67.594C171.364,68.128 170.882,68.395 170.176,68.395C169.447,68.395 168.928,68.098 168.618,67.504C168.311,66.911 168.158,65.913 168.158,64.511C168.158,62.908 168.326,61.841 168.662,61.31C168.979,60.812 169.465,60.563 170.122,60.563C170.623,60.563 171.014,60.683 171.294,60.924C171.578,61.168 171.799,61.569 171.957,62.126L170.997,62.527C170.955,62.326 170.907,62.158 170.854,62.023C170.801,61.884 170.743,61.777 170.681,61.701C170.555,61.546 170.367,61.468 170.117,61.468C169.774,61.468 169.54,61.68 169.414,62.102C169.289,62.544 169.226,63.337 169.226,64.482C169.226,65.639 169.291,66.423 169.419,66.832C169.548,67.241 169.79,67.445 170.146,67.445C170.473,67.445 170.702,67.3 170.834,67.01C170.969,66.7 171.037,66.202 171.037,65.516L171.037,65.308L171.037,65.154L170.142,65.154L170.142,64.284Z" style="fill:rgb(158,161,168);fill-rule:nonzero;"/>
            <path id="path1037" d="M174.53,60.662L177.88,60.662L177.88,61.562L176.727,61.562L176.727,68.301L175.717,68.301L175.717,61.562L174.53,61.562L174.53,60.662Z" style="fill:rgb(158,161,168);fill-rule:nonzero;"/>
            <path id="path1039" d="M182.347,64.67C182.347,66.019 182.197,66.977 181.897,67.544C181.597,68.111 181.094,68.395 180.388,68.395C179.646,68.395 179.123,68.09 178.82,67.48C178.519,66.883 178.369,65.822 178.369,64.298C178.369,62.94 178.518,61.978 178.815,61.414C179.115,60.847 179.623,60.563 180.338,60.563C180.978,60.563 181.453,60.782 181.763,61.221C181.968,61.515 182.116,61.932 182.209,62.473C182.301,62.974 182.347,63.706 182.347,64.67L182.347,64.67ZM181.269,64.778C181.269,63.456 181.209,62.578 181.09,62.146C180.972,61.711 180.729,61.493 180.363,61.493C179.997,61.493 179.753,61.693 179.631,62.092C179.512,62.494 179.453,63.302 179.453,64.516C179.453,65.634 179.515,66.409 179.641,66.841C179.769,67.25 180.01,67.455 180.363,67.455C180.709,67.455 180.947,67.264 181.076,66.881C181.204,66.502 181.269,65.801 181.269,64.778L181.269,64.778Z" style="fill:rgb(158,161,168);fill-rule:nonzero;"/>
            <path id="path1041" d="M185.469,60.662L186.498,60.662L186.498,67.43L188.18,67.43L188.18,68.301L185.469,68.301L185.469,60.662Z" style="fill:rgb(158,161,168);fill-rule:nonzero;"/>
            <path id="path1043" d="M192.658,64.67C192.658,66.019 192.508,66.977 192.208,67.544C191.907,68.111 191.404,68.395 190.699,68.395C189.957,68.395 189.434,68.09 189.13,67.48C188.83,66.883 188.68,65.822 188.68,64.298C188.68,62.94 188.828,61.978 189.125,61.414C189.425,60.847 189.933,60.563 190.649,60.563C191.289,60.563 191.764,60.782 192.074,61.221C192.279,61.515 192.427,61.932 192.519,62.473C192.612,62.974 192.658,63.706 192.658,64.67L192.658,64.67ZM191.579,64.778C191.579,63.456 191.52,62.578 191.401,62.146C191.282,61.711 191.04,61.493 190.674,61.493C190.308,61.493 190.064,61.693 189.942,62.092C189.823,62.494 189.764,63.302 189.764,64.516C189.764,65.634 189.826,66.409 189.952,66.841C190.08,67.25 190.321,67.455 190.674,67.455C191.02,67.455 191.258,67.264 191.386,66.881C191.515,66.502 191.579,65.801 191.579,64.778L191.579,64.778Z" style="fill:rgb(158,161,168);fill-rule:nonzero;"/>
            <path id="path1045" d="M195.513,64.284L197.383,64.284L197.383,64.58C197.383,66.068 197.252,67.072 196.992,67.594C196.735,68.128 196.253,68.395 195.547,68.395C194.818,68.395 194.299,68.098 193.989,67.504C193.682,66.911 193.529,65.913 193.529,64.511C193.529,62.908 193.697,61.841 194.033,61.31C194.35,60.812 194.836,60.563 195.493,60.563C195.994,60.563 196.385,60.683 196.665,60.924C196.949,61.168 197.17,61.569 197.328,62.126L196.369,62.527C196.326,62.326 196.278,62.158 196.225,62.023C196.172,61.884 196.115,61.777 196.052,61.701C195.927,61.546 195.739,61.468 195.488,61.468C195.145,61.468 194.911,61.68 194.785,62.102C194.66,62.544 194.597,63.337 194.597,64.482C194.597,65.639 194.662,66.423 194.79,66.832C194.919,67.241 195.161,67.445 195.518,67.445C195.844,67.445 196.073,67.3 196.205,67.01C196.34,66.7 196.408,66.202 196.408,65.516L196.408,65.308L196.408,65.154L195.513,65.154L195.513,64.284Z" style="fill:rgb(158,161,168);fill-rule:nonzero;"/>
        </g>
    </g>
</svg>
