<?xml version="1.0" encoding="UTF-8" standalone="no"?>
<!DOCTYPE svg PUBLIC "-//W3C//DTD SVG 1.1//EN" "http://www.w3.org/Graphics/SVG/1.1/DTD/svg11.dtd">
<svg width="100%" height="100%" viewBox="0 0 15 380" version="1.1" xmlns="http://www.w3.org/2000/svg" xmlns:xlink="http://www.w3.org/1999/xlink" xml:space="preserve" xmlns:serif="http://www.serif.com/" style="fill-rule:evenodd;clip-rule:evenodd;stroke-linejoin:round;stroke-miterlimit:2;">
    <g id="Layer-2" serif:id="Layer 2">
        <g id="text989">
        </g>
        <rect id="rect4689" x="-0.264" y="0" width="15" height="380" style="fill:rgb(44,45,48);fill-rule:nonzero;"/>
        <g id="path4726" transform="matrix(1,0,0,1,-25.2463,11.1351)">
            <path d="M30,365.865L30,358.14L32.011,358.14L33.067,360.852C33.124,361.012 33.188,361.195 33.259,361.402C33.333,361.609 33.414,361.847 33.502,362.118L33.719,362.798C33.642,362.128 33.583,361.554 33.542,361.077C33.502,360.6 33.482,360.2 33.482,359.876L33.482,358.14L35.493,358.14L35.493,365.865L33.482,365.865L32.42,363.023C32.309,362.72 32.208,362.436 32.117,362.173C32.03,361.906 31.952,361.652 31.885,361.412C31.929,361.956 31.961,362.429 31.981,362.833C32.001,363.237 32.011,363.59 32.011,363.894L32.011,365.865L30,365.865Z" style="fill:rgb(158,161,168);fill-rule:nonzero;"/>
        </g>
        <g id="text4987">
        </g>
        <g id="text1042">
        </g>
        <g id="text1059" transform="matrix(1.33244,0,0,0.976267,-2.25,-27.2174)">
            <path id="path1061" d="M5.561,349.662C5.561,350.72 5.443,351.472 5.207,351.917C4.972,352.363 4.577,352.585 4.023,352.585C3.441,352.585 3.031,352.346 2.792,351.867C2.557,351.399 2.439,350.566 2.439,349.371C2.439,348.304 2.556,347.55 2.789,347.107C3.024,346.662 3.423,346.439 3.984,346.439C4.486,346.439 4.859,346.612 5.102,346.956C5.263,347.186 5.379,347.514 5.452,347.938C5.524,348.331 5.561,348.906 5.561,349.662ZM4.714,349.747C4.714,348.709 4.668,348.021 4.574,347.682C4.481,347.34 4.291,347.169 4.004,347.169C3.716,347.169 3.525,347.326 3.429,347.639C3.336,347.955 3.289,348.589 3.289,349.541C3.289,350.419 3.339,351.027 3.437,351.366C3.538,351.687 3.727,351.848 4.004,351.848C4.276,351.848 4.462,351.697 4.563,351.397C4.664,351.1 4.714,350.55 4.714,349.747L4.714,349.747Z" style="fill:rgb(158,161,168);fill-rule:nonzero;"/>
            <path id="path1063" d="M6.364,346.517L7.156,346.517L7.156,350.753C7.156,351.185 7.195,351.472 7.273,351.615C7.353,351.757 7.511,351.828 7.746,351.828C7.982,351.828 8.137,351.766 8.212,351.642C8.29,351.515 8.329,351.257 8.329,350.869L8.329,346.517L9.121,346.517L9.121,350.869C9.121,351.521 9.021,351.963 8.822,352.193C8.584,352.455 8.22,352.585 7.731,352.585C7.192,352.585 6.813,352.417 6.593,352.081C6.441,351.85 6.364,351.408 6.364,350.753L6.364,346.517Z" style="fill:rgb(158,161,168);fill-rule:nonzero;"/>
            <path id="path1065" d="M9.567,346.517L12.196,346.517L12.196,347.224L11.291,347.224L11.291,352.511L10.499,352.511L10.499,347.224L9.567,347.224L9.567,346.517Z" style="fill:rgb(158,161,168);fill-rule:nonzero;"/>
        </g>
        <g id="text934" transform="matrix(1.05462,0,0,0.948211,0,0)">
            <path id="path958" d="M4.441,20.221L4.441,20.969C4.228,20.865 4.05,20.813 3.906,20.813C3.709,20.813 3.54,20.862 3.398,20.961C3.257,21.056 3.14,21.206 3.047,21.408C2.956,21.61 2.888,21.867 2.843,22.179C2.801,22.488 2.779,22.854 2.779,23.277C2.779,24.801 3.169,25.562 3.95,25.562C4.086,25.562 4.249,25.52 4.441,25.435L4.441,26.198C4.241,26.31 4.018,26.365 3.77,26.365C2.521,26.365 1.896,25.345 1.896,23.305C1.896,22.203 2.048,21.383 2.352,20.845C2.658,20.307 3.125,20.038 3.754,20.038C3.986,20.038 4.215,20.099 4.441,20.221L4.441,20.221Z" style="fill:rgb(158,161,168);fill-rule:nonzero;"/>
            <path id="path960" d="M5.136,20.122L5.967,20.122L5.967,22.534L7.185,22.534L7.185,20.122L8.016,20.122L8.016,26.29L7.185,26.29L7.185,23.238L5.967,23.238L5.967,26.29L5.136,26.29L5.136,20.122Z" style="fill:rgb(158,161,168);fill-rule:nonzero;"/>
            <path id="path962" d="M10.921,20.122L12.327,20.122L12.327,26.29L11.532,26.29L11.532,20.829L10.921,20.829L10.921,20.122Z" style="fill:rgb(158,161,168);fill-rule:nonzero;"/>
        </g>
        <g id="text938" transform="matrix(1.05462,0,0,0.948211,0,-20)">
            <path id="path951" d="M4.441,129.902L4.441,130.649C4.228,130.545 4.05,130.493 3.906,130.493C3.709,130.493 3.54,130.542 3.398,130.641C3.257,130.737 3.14,130.886 3.047,131.088C2.956,131.291 2.888,131.548 2.843,131.859C2.801,132.168 2.779,132.534 2.779,132.958C2.779,134.481 3.169,135.243 3.95,135.243C4.086,135.243 4.249,135.2 4.441,135.115L4.441,135.878C4.241,135.99 4.018,136.046 3.77,136.046C2.521,136.046 1.896,135.026 1.896,132.986C1.896,131.883 2.048,131.063 2.352,130.525C2.658,129.987 3.125,129.718 3.754,129.718C3.986,129.718 4.215,129.779 4.441,129.902L4.441,129.902Z" style="fill:rgb(158,161,168);fill-rule:nonzero;"/>
            <path id="path953" d="M5.136,129.802L5.967,129.802L5.967,132.215L7.185,132.215L7.185,129.802L8.016,129.802L8.016,135.97L7.185,135.97L7.185,132.918L5.967,132.918L5.967,135.97L5.136,135.97L5.136,129.802Z" style="fill:rgb(158,161,168);fill-rule:nonzero;"/>
            <path id="path955" d="M11.396,131.807L10.581,131.807L10.573,131.563C10.573,130.89 10.674,130.416 10.877,130.141C11.082,129.864 11.425,129.726 11.907,129.726C12.815,129.726 13.27,130.229 13.27,131.236C13.27,131.915 12.93,132.894 12.251,134.172L11.76,135.095C11.757,135.1 11.749,135.116 11.736,135.143C11.722,135.169 11.704,135.208 11.68,135.259L13.206,135.259L13.206,135.97L10.497,135.97C10.542,135.868 10.637,135.667 10.781,135.366C10.925,135.066 11.12,134.659 11.368,134.148C11.578,133.701 11.754,133.321 11.895,133.01C12.036,132.698 12.143,132.442 12.215,132.243C12.359,131.843 12.431,131.498 12.431,131.208C12.431,130.697 12.254,130.441 11.899,130.441C11.558,130.441 11.388,130.758 11.388,131.392L11.392,131.743L11.396,131.807Z" style="fill:rgb(158,161,168);fill-rule:nonzero;"/>
        </g>
        <g id="text942" transform="matrix(1.05462,0,0,0.948211,0,-40)">
            <path id="path944" d="M4.441,239.582L4.441,240.329C4.228,240.225 4.05,240.173 3.906,240.173C3.709,240.173 3.54,240.222 3.398,240.321C3.257,240.417 3.14,240.566 3.047,240.768C2.956,240.971 2.888,241.228 2.843,241.539C2.801,241.848 2.779,242.214 2.779,242.638C2.779,244.161 3.169,244.923 3.95,244.923C4.086,244.923 4.249,244.88 4.441,244.795L4.441,245.558C4.241,245.67 4.018,245.726 3.77,245.726C2.521,245.726 1.896,244.706 1.896,242.666C1.896,241.563 2.048,240.743 2.352,240.205C2.658,239.667 3.125,239.398 3.754,239.398C3.986,239.398 4.215,239.459 4.441,239.582L4.441,239.582Z" style="fill:rgb(158,161,168);fill-rule:nonzero;"/>
            <path id="path946" d="M5.136,239.482L5.967,239.482L5.967,241.895L7.185,241.895L7.185,239.482L8.016,239.482L8.016,245.65L7.185,245.65L7.185,242.598L5.967,242.598L5.967,245.65L5.136,245.65L5.136,239.482Z" style="fill:rgb(158,161,168);fill-rule:nonzero;"/>
            <path id="path948" d="M11.428,241.136L10.637,241.136L10.637,240.972C10.637,240.698 10.66,240.462 10.705,240.265C10.753,240.068 10.826,239.905 10.925,239.778C11.026,239.65 11.154,239.556 11.308,239.498C11.463,239.437 11.648,239.406 11.863,239.406C12.316,239.406 12.646,239.534 12.854,239.789C13.062,240.045 13.166,240.451 13.166,241.008C13.166,241.466 13.118,241.796 13.022,241.999C12.929,242.204 12.749,242.359 12.483,242.466C12.77,242.565 12.969,242.718 13.078,242.925C13.187,243.13 13.242,243.459 13.242,243.912C13.242,244.533 13.124,244.989 12.89,245.282C12.656,245.575 12.291,245.722 11.795,245.722C10.949,245.722 10.525,245.236 10.525,244.264L10.525,244.2L10.525,244.156C10.525,244.126 10.526,244.108 10.529,244.1L11.308,244.1C11.305,244.145 11.303,244.185 11.3,244.22L11.3,244.3C11.3,244.51 11.345,244.678 11.436,244.803C11.529,244.928 11.656,244.991 11.815,244.991C11.919,244.991 12.007,244.971 12.079,244.931C12.154,244.888 12.214,244.822 12.259,244.731C12.307,244.638 12.341,244.518 12.363,244.371C12.384,244.225 12.395,244.048 12.395,243.84C12.395,243.465 12.337,243.194 12.223,243.029C12.111,242.864 11.923,242.782 11.66,242.782C11.63,242.782 11.598,242.784 11.564,242.79C11.529,242.792 11.489,242.796 11.444,242.802L11.444,242.083L11.56,242.083C11.882,242.083 12.1,242.013 12.215,241.875C12.329,241.736 12.387,241.474 12.387,241.088C12.387,240.449 12.226,240.129 11.903,240.129C11.584,240.129 11.424,240.402 11.424,240.948L11.428,241.136Z" style="fill:rgb(158,161,168);fill-rule:nonzero;"/>
        </g>
        <g id="text945" transform="matrix(0.989481,0,0,1.01063,0,-12)">
            <path id="path947" d="M2.893,280.196L2.893,280.896C2.693,280.799 2.526,280.75 2.391,280.75C2.206,280.75 2.047,280.797 1.915,280.889C1.782,280.979 1.672,281.119 1.585,281.309C1.5,281.499 1.436,281.74 1.394,282.032C1.354,282.322 1.334,282.666 1.334,283.063C1.334,284.492 1.7,285.207 2.432,285.207C2.559,285.207 2.713,285.167 2.893,285.087L2.893,285.803C2.705,285.908 2.496,285.96 2.263,285.96C1.091,285.96 0.505,285.003 0.505,283.089C0.505,282.055 0.648,281.285 0.933,280.78C1.22,280.276 1.658,280.023 2.248,280.023C2.466,280.023 2.68,280.081 2.893,280.196L2.893,280.196Z" style="fill:rgb(158,161,168);fill-rule:nonzero;"/>
            <path id="path949" d="M3.545,280.102L4.325,280.102L4.325,282.366L5.468,282.366L5.468,280.102L6.247,280.102L6.247,285.889L5.468,285.889L5.468,283.025L4.325,283.025L4.325,285.889L3.545,285.889L3.545,280.102Z" style="fill:rgb(158,161,168);fill-rule:nonzero;"/>
            <path id="path952" d="M7.968,280.102L8.575,280.102L9.815,285.889L9.043,285.889L8.826,284.761L7.679,284.761L7.458,285.889L6.708,285.889L7.968,280.102ZM8.714,284.157L8.541,283.235C8.426,282.608 8.332,281.938 8.26,281.226C8.225,281.574 8.18,281.926 8.125,282.283C8.07,282.638 8.005,283.015 7.93,283.415L7.788,284.157L8.714,284.157Z" style="fill:rgb(158,161,168);fill-rule:nonzero;"/>
            <rect id="path954" x="10.276" y="280.102" width="0.78" height="5.787" style="fill:rgb(158,161,168);fill-rule:nonzero;"/>
            <path id="path956" d="M11.956,280.102L12.683,280.102L13.459,282.411C13.683,283.063 13.882,283.759 14.054,284.498C13.992,284.051 13.946,283.646 13.916,283.284C13.886,282.922 13.871,282.581 13.871,282.261L13.871,280.102L14.654,280.102L14.654,285.889L13.923,285.889L13.05,283.284C12.97,283.042 12.894,282.793 12.821,282.538C12.751,282.283 12.686,282.016 12.626,281.736C12.621,281.701 12.613,281.659 12.6,281.609C12.59,281.559 12.578,281.501 12.563,281.436C12.57,281.501 12.576,281.557 12.581,281.605C12.586,281.65 12.59,281.688 12.593,281.721L12.634,282.309L12.675,283.025C12.678,283.065 12.679,283.114 12.679,283.171C12.681,283.229 12.683,283.294 12.683,283.366L12.724,285.889L11.956,285.889L11.956,280.102Z" style="fill:rgb(158,161,168);fill-rule:nonzero;"/>
        </g>
        <g id="text951" transform="matrix(0.799983,0,0,1.2435,0,0.0940062)">
            <path id="path957" d="M11.425,14.4L8.7,14.4L8.506,10L8.425,8.243C8.396,8.581 8.363,8.904 8.325,9.212C8.288,9.516 8.242,9.812 8.188,10.1L7.369,14.4L5.244,14.4L4.544,10.093C4.502,9.843 4.446,9.414 4.375,8.806C4.367,8.714 4.348,8.527 4.319,8.243L4.256,10.025L4.025,14.4L1.25,14.4L2.375,4.75L5.619,4.75L6.163,8C6.208,8.266 6.248,8.556 6.281,8.868C6.319,9.181 6.352,9.52 6.381,9.887C6.436,9.275 6.511,8.727 6.606,8.243L7.269,4.75L10.488,4.75L11.425,14.4Z" style="fill:rgb(158,161,168);fill-rule:nonzero;"/>
            <path id="path959" d="M17.5,14.4L14.894,14.4L14.894,7.018L13.85,7.018L13.85,4.75L17.5,4.75L17.5,14.4Z" style="fill:rgb(158,161,168);fill-rule:nonzero;"/>
        </g>
    </g>
</svg>
