<?xml version="1.0" encoding="UTF-8" standalone="no"?>
<!DOCTYPE svg PUBLIC "-//W3C//DTD SVG 1.1//EN" "http://www.w3.org/Graphics/SVG/1.1/DTD/svg11.dtd">
<svg width="100%" height="100%" viewBox="0 0 90 380" version="1.1" xmlns="http://www.w3.org/2000/svg" xmlns:xlink="http://www.w3.org/1999/xlink" xml:space="preserve" xmlns:serif="http://www.serif.com/" style="fill-rule:evenodd;clip-rule:evenodd;stroke-linejoin:round;stroke-miterlimit:2;">
    <g id="Layer-2" serif:id="Layer 2">
        <g id="text989">
        </g>
        <rect id="rect4689" x="0" y="0" width="90" height="380" style="fill:rgb(44,45,48);fill-rule:nonzero;"/>
        <g id="text4987">
        </g>
        <g id="text1042">
        </g>
        <g id="text2090">
        </g>
        <g id="text80" transform="matrix(0.87098,0,0,0.995047,6,6.99997)">
            <path id="path4726" d="M29.851,371.706L29.851,363.943L31.853,363.943L32.903,366.668C32.96,366.829 33.024,367.013 33.094,367.221C33.168,367.429 33.249,367.668 33.336,367.94L33.552,368.624C33.475,367.95 33.416,367.373 33.376,366.894C33.336,366.415 33.316,366.013 33.316,365.687L33.316,363.943L35.317,363.943L35.317,371.706L33.316,371.706L32.26,368.85C32.149,368.545 32.049,368.26 31.958,367.995C31.871,367.727 31.794,367.472 31.727,367.231C31.77,367.777 31.802,368.253 31.822,368.659C31.843,369.065 31.853,369.42 31.853,369.725L31.853,371.706L29.851,371.706Z" style="fill:rgb(158,161,168);fill-rule:nonzero;"/>
            <path id="path4728" d="M39.887,371.706L37.791,371.706L37.791,368.418L35.865,363.943L38.052,363.943L38.429,365.094C38.503,365.319 38.568,365.535 38.625,365.743C38.686,365.951 38.739,366.15 38.786,366.341C38.863,366.056 38.93,365.811 38.987,365.607C39.044,365.399 39.095,365.232 39.138,365.104L39.52,363.943L41.692,363.943L39.887,368.418L39.887,371.706Z" style="fill:rgb(158,161,168);fill-rule:nonzero;"/>
            <path id="path4730" d="M41.894,371.515L41.894,369.076C42.306,369.639 42.752,369.921 43.231,369.921C43.412,369.921 43.56,369.874 43.673,369.78C43.787,369.683 43.844,369.562 43.844,369.418C43.844,369.21 43.72,369.008 43.472,368.81L43.13,368.543C42.902,368.372 42.708,368.203 42.547,368.035C42.386,367.865 42.256,367.69 42.155,367.513C42.054,367.332 41.981,367.146 41.934,366.954C41.887,366.763 41.863,366.562 41.863,366.351C41.863,365.989 41.947,365.61 42.115,365.215C42.199,365.03 42.296,364.863 42.406,364.712C42.517,364.558 42.644,364.422 42.789,364.305C43.184,363.969 43.662,363.802 44.222,363.802C44.721,363.802 45.224,363.934 45.73,364.199L45.73,366.572C45.559,366.308 45.365,366.1 45.147,365.949C44.929,365.795 44.714,365.718 44.503,365.718C44.342,365.718 44.21,365.765 44.106,365.858C43.999,365.949 43.945,366.058 43.945,366.185C43.945,366.393 44.087,366.599 44.372,366.804L44.704,367.05C45.147,367.368 45.463,367.695 45.655,368.03C45.849,368.366 45.946,368.758 45.946,369.207C45.946,369.971 45.713,370.601 45.247,371.098C44.781,371.594 44.191,371.842 43.477,371.842C42.985,371.842 42.457,371.733 41.894,371.515L41.894,371.515Z" style="fill:rgb(158,161,168);fill-rule:nonzero;"/>
            <path id="path4732" d="M49.576,371.706L47.48,371.706L47.48,365.803L46.323,365.803L46.323,363.943L50.778,363.943L50.778,365.803L49.576,365.803L49.576,371.706Z" style="fill:rgb(158,161,168);fill-rule:nonzero;"/>
            <path id="path4734" d="M56.525,371.706L54.428,371.706L54.428,368.584L53.428,368.584L53.428,371.706L51.331,371.706L51.331,363.943L53.428,363.943L53.428,366.688L54.428,366.688L54.428,363.943L56.525,363.943L56.525,371.706Z" style="fill:rgb(158,161,168);fill-rule:nonzero;"/>
            <rect id="path4736" x="57.606" y="363.943" width="2.097" height="7.763" style="fill:rgb(158,161,168);fill-rule:nonzero;"/>
        </g>
        <g id="text975" transform="matrix(0.820224,0,0,1.21918,0,0)">
            <path id="path977" d="M14.609,14.562L11.35,14.562L11.118,9.299L11.021,7.198C10.986,7.602 10.946,7.988 10.901,8.357C10.856,8.721 10.801,9.075 10.737,9.419L9.757,14.562L7.215,14.562L6.378,9.411C6.328,9.112 6.261,8.599 6.176,7.871C6.166,7.762 6.144,7.537 6.109,7.198L6.034,9.329L5.758,14.562L2.438,14.562L3.784,3.019L7.664,3.019L8.314,6.907C8.369,7.226 8.417,7.572 8.456,7.946C8.501,8.32 8.541,8.726 8.576,9.165C8.641,8.432 8.731,7.777 8.845,7.198L9.638,3.019L13.488,3.019L14.609,14.562Z" style="fill:rgb(158,161,168);fill-rule:nonzero;"/>
            <path id="path979" d="M24.32,14.562L21.098,14.562L20.866,13.097L18.766,13.097L18.512,14.562L15.289,14.562L18.063,3.019L21.876,3.019L24.32,14.562ZM20.5,10.622L20.298,9.277C20.293,9.272 20.283,9.204 20.268,9.075C20.258,8.965 20.206,8.532 20.111,7.774C20.101,7.689 20.089,7.575 20.074,7.43C20.059,7.281 20.039,7.094 20.014,6.869L19.917,5.778C19.907,5.883 19.892,6 19.872,6.129C19.857,6.259 19.84,6.401 19.82,6.556C19.785,6.865 19.76,7.079 19.745,7.198C19.73,7.318 19.72,7.39 19.715,7.415L19.498,8.813L19.184,10.622L20.5,10.622Z" style="fill:rgb(158,161,168);fill-rule:nonzero;"/>
            <path id="path981" d="M29.232,7.886L33.583,7.886L33.583,8.365C33.583,10.588 33.251,12.187 32.589,13.164C31.866,14.231 30.797,14.764 29.381,14.764C27.991,14.764 26.899,14.241 26.107,13.194C25.32,12.138 24.926,10.687 24.926,8.843C24.926,6.974 25.322,5.501 26.115,4.425C26.907,3.348 27.991,2.81 29.367,2.81C31.191,2.81 32.514,3.762 33.336,5.666L30.316,6.772C30.271,6.408 30.166,6.122 30.002,5.913C29.842,5.698 29.641,5.591 29.396,5.591C28.539,5.591 28.111,6.77 28.111,9.127C28.111,10.129 28.205,10.857 28.395,11.31C28.584,11.764 28.886,11.99 29.299,11.99C29.464,11.99 29.613,11.951 29.748,11.871C29.882,11.791 29.994,11.679 30.084,11.534C30.179,11.39 30.251,11.215 30.301,11.011C30.356,10.802 30.383,10.57 30.383,10.316L29.232,10.316L29.232,7.886Z" style="fill:rgb(158,161,168);fill-rule:nonzero;"/>
            <rect id="path983" x="34.906" y="3.019" width="3.117" height="11.543" style="fill:rgb(158,161,168);fill-rule:nonzero;"/>
            <path id="path985" d="M39.384,14.278L39.384,10.652C39.997,11.49 40.66,11.908 41.373,11.908C41.642,11.908 41.861,11.838 42.031,11.699C42.2,11.554 42.285,11.375 42.285,11.161C42.285,10.852 42.1,10.55 41.732,10.256L41.223,9.86C40.884,9.606 40.595,9.354 40.356,9.105C40.117,8.851 39.922,8.591 39.773,8.327C39.623,8.058 39.514,7.782 39.444,7.497C39.374,7.213 39.339,6.914 39.339,6.6C39.339,6.062 39.464,5.499 39.713,4.911C39.838,4.637 39.982,4.388 40.147,4.163C40.311,3.934 40.501,3.732 40.715,3.558C41.303,3.059 42.013,2.81 42.846,2.81C43.588,2.81 44.336,3.007 45.088,3.401L45.088,6.929C44.834,6.536 44.545,6.227 44.221,6.002C43.897,5.773 43.578,5.658 43.264,5.658C43.025,5.658 42.828,5.728 42.674,5.868C42.514,6.002 42.434,6.164 42.434,6.354C42.434,6.663 42.646,6.969 43.07,7.273L43.563,7.64C44.221,8.113 44.692,8.599 44.976,9.097C45.265,9.596 45.41,10.179 45.41,10.847C45.41,11.983 45.063,12.92 44.371,13.658C43.678,14.395 42.801,14.764 41.739,14.764C41.006,14.764 40.221,14.602 39.384,14.278L39.384,14.278Z" style="fill:rgb(158,161,168);fill-rule:nonzero;"/>
            <path id="path987" d="M50.807,14.562L47.69,14.562L47.69,5.785L45.97,5.785L45.97,3.019L52.594,3.019L52.594,5.785L50.807,5.785L50.807,14.562Z" style="fill:rgb(158,161,168);fill-rule:nonzero;"/>
            <path id="path989" d="M53.416,14.562L53.416,3.019L59.21,3.019L59.21,5.733L56.534,5.733L56.534,7.415L58.934,7.415L58.934,10.024L56.534,10.024L56.534,11.789L59.21,11.789L59.21,14.562L53.416,14.562Z" style="fill:rgb(158,161,168);fill-rule:nonzero;"/>
            <path id="path991" d="M68.742,14.562L65.37,14.562L63.83,10.45C63.816,10.381 63.788,10.288 63.748,10.174C63.713,10.059 63.668,9.922 63.614,9.763L63.636,10.525L63.636,14.562L60.534,14.562L60.534,3.019L63.726,3.019C65.131,3.019 66.183,3.296 66.881,3.849C67.768,4.557 68.211,5.564 68.211,6.869C68.211,8.265 67.616,9.229 66.425,9.763L68.742,14.562ZM63.651,8.365L63.86,8.365C64.219,8.365 64.518,8.228 64.757,7.954C64.997,7.679 65.116,7.331 65.116,6.907C65.116,6.045 64.665,5.614 63.763,5.614L63.651,5.614L63.651,8.365Z" style="fill:rgb(158,161,168);fill-rule:nonzero;"/>
            <path id="path993" d="M77.496,14.562L74.379,14.562L74.379,3.019L79.889,3.019L79.889,5.733L77.496,5.733L77.496,7.415L79.724,7.415L79.724,10.024L77.496,10.024L77.496,14.562Z" style="fill:rgb(158,161,168);fill-rule:nonzero;"/>
            <path id="path995" d="M85.817,3.019L88.934,3.019L88.934,11.183C88.934,11.866 88.827,12.419 88.613,12.843C88.404,13.286 88.055,13.688 87.566,14.046C86.908,14.525 86.109,14.764 85.167,14.764C84.1,14.764 83.205,14.5 82.483,13.972C81.566,13.299 81.107,12.222 81.107,10.742L81.107,3.019L84.225,3.019L84.225,10.465C84.225,10.969 84.284,11.325 84.404,11.534C84.529,11.744 84.735,11.848 85.025,11.848C85.324,11.848 85.53,11.751 85.645,11.557C85.76,11.353 85.817,10.991 85.817,10.473L85.817,3.019Z" style="fill:rgb(158,161,168);fill-rule:nonzero;"/>
            <path id="path997" d="M97.988,14.562L90.041,14.562L90.041,14.315L92.747,8.133C92.946,7.759 93.106,7.453 93.226,7.213C93.35,6.974 93.44,6.805 93.495,6.705C93.589,6.511 93.784,6.187 94.078,5.733L90.729,5.733L90.729,3.019L98.376,3.019L98.376,3.341L95.536,9.628C95.351,10.032 95.167,10.423 94.982,10.802C94.798,11.181 94.614,11.557 94.429,11.931C94.758,11.906 95.015,11.888 95.199,11.878C95.389,11.863 95.513,11.856 95.573,11.856L97.988,11.789L97.988,14.562Z" style="fill:rgb(158,161,168);fill-rule:nonzero;"/>
            <path id="path999" d="M106.899,14.562L98.952,14.562L98.952,14.315L101.658,8.133C101.858,7.759 102.017,7.453 102.137,7.213C102.261,6.974 102.351,6.805 102.406,6.705C102.501,6.511 102.695,6.187 102.989,5.733L99.64,5.733L99.64,3.019L107.288,3.019L107.288,3.341L104.447,9.628C104.262,10.032 104.078,10.423 103.894,10.802C103.709,11.181 103.525,11.557 103.34,11.931C103.669,11.906 103.926,11.888 104.11,11.878C104.3,11.863 104.424,11.856 104.484,11.856L106.899,11.789L106.899,14.562Z" style="fill:rgb(158,161,168);fill-rule:nonzero;"/>
        </g>
        <rect id="rect4778-3-6" x="6" y="27.5" width="34" height="42" style="fill:rgb(179,179,179);"/>
        <g id="text4613" transform="matrix(1,0,0,1,-7.55905e-07,4.49973)">
            <path id="path4701" d="M17.141,61L15.047,61L15.047,55.37L17.141,55.37L17.141,61ZM17.318,53.625C17.318,53.955 17.198,54.24 16.958,54.479C16.712,54.715 16.425,54.833 16.099,54.833C15.762,54.833 15.474,54.714 15.234,54.474C14.998,54.227 14.88,53.939 14.88,53.609C14.88,53.273 14.998,52.986 15.234,52.75C15.481,52.514 15.767,52.396 16.094,52.396C16.437,52.396 16.727,52.516 16.964,52.755C17.2,52.991 17.318,53.281 17.318,53.625Z" style="fill:rgb(44,45,48);fill-rule:nonzero;"/>
            <path id="path4703" d="M23.068,61L20.979,61L20.979,58.021C20.979,57.764 20.953,57.585 20.901,57.484C20.852,57.384 20.766,57.333 20.641,57.333C20.349,57.333 20.203,57.609 20.203,58.161L20.203,61L18.115,61L18.115,55.37L20.203,55.37C20.2,55.509 20.196,55.637 20.193,55.755C20.189,55.873 20.184,55.983 20.177,56.083L20.156,56.443C20.493,55.648 20.986,55.25 21.635,55.25C22.087,55.25 22.438,55.418 22.688,55.755C22.941,56.092 23.068,56.561 23.068,57.161L23.068,61Z" style="fill:rgb(44,45,48);fill-rule:nonzero;"/>
            <path id="path4705" d="M31.12,61L27.318,61L27.318,52.958L29.49,52.958L29.49,59.068L31.12,59.068L31.12,61Z" style="fill:rgb(44,45,48);fill-rule:nonzero;"/>
        </g>
        <rect id="rect4662" x="50" y="27.5" width="34" height="42" style="fill:rgb(179,179,179);"/>
        <g id="text4617" transform="matrix(1,0,0,1,-7.55905e-07,4.49973)">
            <path id="path4708" d="M60.182,61L58.089,61L58.089,55.37L60.182,55.37L60.182,61ZM60.359,53.625C60.359,53.955 60.24,54.24 60,54.479C59.753,54.715 59.467,54.833 59.141,54.833C58.804,54.833 58.516,54.714 58.276,54.474C58.04,54.227 57.922,53.939 57.922,53.609C57.922,53.273 58.04,52.986 58.276,52.75C58.523,52.514 58.809,52.396 59.135,52.396C59.479,52.396 59.769,52.516 60.005,52.755C60.241,52.991 60.359,53.281 60.359,53.625L60.359,53.625Z" style="fill:rgb(44,45,48);fill-rule:nonzero;"/>
            <path id="path4710" d="M66.109,61L64.021,61L64.021,58.021C64.021,57.764 63.995,57.585 63.943,57.484C63.894,57.384 63.807,57.333 63.682,57.333C63.391,57.333 63.245,57.609 63.245,58.161L63.245,61L61.156,61L61.156,55.37L63.245,55.37C63.241,55.509 63.238,55.637 63.234,55.755C63.231,55.873 63.226,55.983 63.219,56.083L63.198,56.443C63.535,55.648 64.028,55.25 64.677,55.25C65.128,55.25 65.479,55.418 65.729,55.755C65.983,56.092 66.109,56.561 66.109,57.161L66.109,61Z" style="fill:rgb(44,45,48);fill-rule:nonzero;"/>
            <path id="path4712" d="M76.078,61L73.729,61L72.656,58.135C72.646,58.087 72.627,58.023 72.599,57.943C72.575,57.863 72.544,57.767 72.505,57.656L72.521,58.187L72.521,61L70.359,61L70.359,52.958L72.583,52.958C73.562,52.958 74.295,53.151 74.781,53.536C75.399,54.03 75.708,54.731 75.708,55.641C75.708,56.613 75.293,57.285 74.463,57.656L76.078,61ZM72.531,56.682L72.677,56.682C72.927,56.682 73.135,56.587 73.302,56.396C73.469,56.205 73.552,55.962 73.552,55.667C73.552,55.066 73.238,54.766 72.609,54.766L72.531,54.766L72.531,56.682Z" style="fill:rgb(44,45,48);fill-rule:nonzero;"/>
        </g>
        <g id="g4922" transform="matrix(1,0,0,1,-7.55905e-07,0.499731)">
            <rect id="rect4778" x="6" y="310" width="34" height="42" style="fill:rgb(60,60,60);"/>
            <g id="text4861">
                <path id="path4899" d="M16.849,345.271C16.849,346.139 16.609,346.83 16.13,347.344C15.651,347.858 15.009,348.115 14.203,348.115C13.411,348.115 12.781,347.852 12.313,347.328C11.847,346.8 11.615,346.092 11.615,345.203C11.615,344.314 11.852,343.601 12.328,343.062C12.8,342.521 13.427,342.25 14.208,342.25C15.031,342.25 15.677,342.519 16.146,343.057C16.615,343.595 16.849,344.333 16.849,345.271ZM14.823,345.203C14.823,344.995 14.809,344.807 14.781,344.641C14.753,344.47 14.714,344.326 14.661,344.208C14.609,344.087 14.547,343.993 14.474,343.927C14.401,343.861 14.319,343.828 14.229,343.828C14.052,343.828 13.91,343.953 13.802,344.203C13.694,344.422 13.641,344.75 13.641,345.188C13.641,345.618 13.694,345.946 13.802,346.172C13.91,346.422 14.054,346.547 14.234,346.547C14.405,346.547 14.545,346.424 14.656,346.177C14.767,345.903 14.823,345.578 14.823,345.203L14.823,345.203Z" style="fill:rgb(197,200,209);fill-rule:nonzero;"/>
                <path id="path4901" d="M17.651,342.37L19.74,342.37L19.74,345.542C19.74,345.844 19.769,346.064 19.828,346.203C19.891,346.318 20.009,346.375 20.182,346.375C20.352,346.375 20.467,346.318 20.526,346.203C20.589,346.089 20.62,345.868 20.62,345.542L20.62,342.37L22.708,342.37L22.708,345.823C22.708,346.052 22.689,346.26 22.651,346.448C22.616,346.632 22.559,346.8 22.479,346.953C22.403,347.102 22.302,347.24 22.177,347.365C22.056,347.49 21.91,347.604 21.74,347.708C21.281,347.979 20.762,348.115 20.182,348.115C19.595,348.115 19.076,347.979 18.625,347.708C18.451,347.604 18.302,347.491 18.177,347.37C18.056,347.245 17.955,347.106 17.875,346.953C17.799,346.8 17.741,346.632 17.703,346.448C17.668,346.26 17.651,346.052 17.651,345.823L17.651,342.37Z" style="fill:rgb(197,200,209);fill-rule:nonzero;"/>
                <path id="path4903" d="M26.047,348L23.953,348L23.953,344.052L23.359,344.052L23.359,342.37L23.953,342.37L23.953,340.714L26.047,340.714L26.047,342.37L26.74,342.37L26.74,344.052L26.047,344.052L26.047,348Z" style="fill:rgb(197,200,209);fill-rule:nonzero;"/>
                <path id="path4905" d="M34.385,348L30.583,348L30.583,339.958L32.755,339.958L32.755,346.068L34.385,346.068L34.385,348Z" style="fill:rgb(197,200,209);fill-rule:nonzero;"/>
            </g>
        </g>
        <g id="g4914" transform="matrix(1,0,0,1,-7.55905e-07,0.499731)">
            <rect id="rect4778-3" x="50" y="310" width="34" height="42" style="fill:rgb(60,60,60);"/>
            <g id="text4886">
                <path id="path4890" d="M59.891,345.271C59.891,346.139 59.651,346.83 59.172,347.344C58.693,347.858 58.05,348.115 57.245,348.115C56.453,348.115 55.823,347.852 55.354,347.328C54.889,346.8 54.656,346.092 54.656,345.203C54.656,344.314 54.894,343.601 55.37,343.062C55.842,342.521 56.469,342.25 57.25,342.25C58.073,342.25 58.719,342.519 59.187,343.057C59.656,343.595 59.891,344.333 59.891,345.271ZM57.865,345.203C57.865,344.995 57.851,344.807 57.823,344.641C57.795,344.47 57.755,344.326 57.703,344.208C57.651,344.087 57.589,343.993 57.516,343.927C57.443,343.861 57.361,343.828 57.271,343.828C57.094,343.828 56.951,343.953 56.844,344.203C56.736,344.422 56.682,344.75 56.682,345.187C56.682,345.618 56.736,345.946 56.844,346.172C56.951,346.422 57.095,346.547 57.276,346.547C57.446,346.547 57.587,346.424 57.698,346.177C57.809,345.903 57.865,345.578 57.865,345.203L57.865,345.203Z" style="fill:rgb(197,200,209);fill-rule:nonzero;"/>
                <path id="path4892" d="M60.693,342.37L62.781,342.37L62.781,345.542C62.781,345.844 62.811,346.064 62.87,346.203C62.932,346.318 63.05,346.375 63.224,346.375C63.394,346.375 63.509,346.318 63.568,346.203C63.63,346.089 63.661,345.868 63.661,345.542L63.661,342.37L65.75,342.37L65.75,345.823C65.75,346.052 65.731,346.26 65.693,346.448C65.658,346.632 65.601,346.8 65.521,346.953C65.444,347.102 65.344,347.24 65.219,347.365C65.097,347.49 64.951,347.604 64.781,347.708C64.323,347.979 63.804,348.115 63.224,348.115C62.637,348.115 62.118,347.979 61.667,347.708C61.493,347.604 61.344,347.491 61.219,347.37C61.097,347.245 60.997,347.106 60.917,346.953C60.84,346.8 60.783,346.632 60.745,346.448C60.71,346.26 60.693,346.052 60.693,345.823L60.693,342.37Z" style="fill:rgb(197,200,209);fill-rule:nonzero;"/>
                <path id="path4894" d="M69.089,348L66.995,348L66.995,344.052L66.401,344.052L66.401,342.37L66.995,342.37L66.995,340.714L69.089,340.714L69.089,342.37L69.781,342.37L69.781,344.052L69.089,344.052L69.089,348Z" style="fill:rgb(197,200,209);fill-rule:nonzero;"/>
                <path id="path4896" d="M79.344,348L76.995,348L75.922,345.135C75.912,345.087 75.892,345.023 75.865,344.943C75.84,344.863 75.809,344.767 75.771,344.656L75.786,345.187L75.786,348L73.625,348L73.625,339.958L75.849,339.958C76.828,339.958 77.561,340.151 78.047,340.536C78.665,341.029 78.974,341.731 78.974,342.641C78.974,343.613 78.559,344.285 77.729,344.656L79.344,348ZM75.797,343.682L75.943,343.682C76.193,343.682 76.401,343.587 76.568,343.396C76.734,343.205 76.818,342.962 76.818,342.667C76.818,342.066 76.503,341.766 75.875,341.766L75.797,341.766L75.797,343.682Z" style="fill:rgb(197,200,209);fill-rule:nonzero;"/>
            </g>
        </g>
        <g id="text1790" transform="matrix(0.930159,0,0,1.07509,0,-8)">
            <path id="path1841" d="M32.253,76.421L34.24,76.421C35.795,76.421 36.572,77.386 36.572,79.317C36.572,80.055 36.471,80.602 36.269,80.959C36.067,81.316 35.71,81.586 35.198,81.769C35.785,82.004 36.187,82.305 36.403,82.671C36.624,83.033 36.734,83.578 36.734,84.306C36.734,86.303 35.879,87.301 34.169,87.301L32.253,87.301L32.253,76.421ZM33.634,81.213C34.202,81.213 34.597,81.081 34.818,80.818C35.038,80.541 35.149,80.055 35.149,79.359C35.149,78.185 34.726,77.598 33.88,77.598L33.768,77.598L33.704,77.598C33.667,77.598 33.643,77.6 33.634,77.605L33.634,81.213ZM33.634,86.047C34.235,86.047 34.651,85.918 34.881,85.659C35.111,85.401 35.226,84.933 35.226,84.257C35.226,83.562 35.106,83.075 34.867,82.798C34.632,82.516 34.221,82.375 33.634,82.375L33.634,86.047Z" style="fill:rgb(158,161,168);fill-rule:nonzero;"/>
            <path id="path1843" d="M37.249,76.421L38.799,76.421L39.518,78.789C39.541,78.859 39.565,78.937 39.588,79.021C39.612,79.106 39.64,79.197 39.673,79.296C39.94,80.151 40.124,80.87 40.222,81.452C40.307,80.87 40.377,80.463 40.434,80.233L40.659,79.261L40.744,78.88L41.35,76.421L42.879,76.421L40.983,82.622L40.983,87.301L39.518,87.301L39.518,82.622L37.249,76.421Z" style="fill:rgb(158,161,168);fill-rule:nonzero;"/>
            <path id="path1845" d="M43.696,76.421L45.627,76.421C46.557,76.421 47.234,76.656 47.657,77.126C48.079,77.6 48.291,78.352 48.291,79.381C48.291,80.828 47.866,81.762 47.015,82.185C46.588,82.378 45.97,82.474 45.162,82.474L45.162,87.301L43.696,87.301L43.696,76.421ZM45.162,81.22C45.768,81.22 46.186,81.098 46.416,80.853C46.651,80.604 46.769,80.163 46.769,79.529C46.769,78.88 46.656,78.406 46.43,78.105C46.205,77.804 45.85,77.654 45.366,77.654L45.162,77.654L45.162,81.22Z" style="fill:rgb(158,161,168);fill-rule:nonzero;"/>
            <path id="path1847" d="M50.63,76.421L51.772,76.421L54.104,87.301L52.653,87.301L52.244,85.18L50.088,85.18L49.672,87.301L48.263,87.301L50.63,76.421ZM52.033,84.045L51.708,82.312C51.492,81.133 51.316,79.874 51.18,78.535C51.114,79.188 51.03,79.85 50.926,80.522C50.823,81.189 50.701,81.899 50.56,82.65L50.292,84.045L52.033,84.045Z" style="fill:rgb(158,161,168);fill-rule:nonzero;"/>
            <path id="path1849" d="M58.6,76.646L58.6,78.077C58.154,77.758 57.752,77.598 57.395,77.598C57.01,77.598 56.695,77.734 56.451,78.006C56.206,78.265 56.084,78.61 56.084,79.042C56.084,79.423 56.171,79.749 56.345,80.022C56.434,80.167 56.58,80.355 56.782,80.586C56.989,80.816 57.254,81.093 57.578,81.417C58.175,82.023 58.581,82.547 58.797,82.988C59.013,83.416 59.121,83.94 59.121,84.56C59.121,85.401 58.884,86.094 58.41,86.639C57.935,87.169 57.327,87.435 56.585,87.435C55.96,87.435 55.427,87.263 54.985,86.921L54.985,85.469C55.506,85.849 55.981,86.04 56.408,86.04C56.808,86.04 57.12,85.908 57.346,85.645C57.571,85.377 57.684,85.016 57.684,84.56C57.684,84.165 57.597,83.811 57.423,83.496C57.334,83.346 57.209,83.174 57.05,82.981C56.89,82.784 56.69,82.566 56.451,82.326C56.08,81.96 55.772,81.636 55.528,81.354C55.283,81.072 55.103,80.825 54.985,80.614C54.76,80.2 54.647,79.679 54.647,79.049C54.647,78.199 54.868,77.525 55.309,77.027C55.756,76.524 56.354,76.273 57.106,76.273C57.628,76.273 58.126,76.398 58.6,76.647L58.6,76.646Z" style="fill:rgb(158,161,168);fill-rule:nonzero;"/>
            <path id="path1851" d="M63.984,76.646L63.984,78.077C63.537,77.758 63.136,77.598 62.779,77.598C62.393,77.598 62.079,77.734 61.834,78.006C61.59,78.265 61.468,78.61 61.468,79.042C61.468,79.423 61.555,79.749 61.729,80.022C61.818,80.167 61.964,80.355 62.166,80.586C62.372,80.816 62.638,81.093 62.962,81.417C63.558,82.023 63.965,82.547 64.181,82.988C64.397,83.416 64.505,83.94 64.505,84.56C64.505,85.401 64.268,86.094 63.793,86.639C63.319,87.169 62.711,87.435 61.968,87.435C61.343,87.435 60.81,87.263 60.369,86.921L60.369,85.469C60.89,85.849 61.365,86.04 61.792,86.04C62.191,86.04 62.504,85.908 62.729,85.645C62.955,85.377 63.068,85.016 63.068,84.56C63.068,84.165 62.981,83.811 62.807,83.496C62.718,83.346 62.593,83.174 62.433,82.981C62.274,82.784 62.074,82.566 61.834,82.326C61.463,81.96 61.156,81.636 60.911,81.354C60.667,81.072 60.486,80.825 60.369,80.614C60.143,80.2 60.03,79.679 60.03,79.049C60.03,78.199 60.251,77.525 60.693,77.027C61.139,76.524 61.738,76.273 62.49,76.273C63.011,76.273 63.509,76.398 63.984,76.647L63.984,76.646Z" style="fill:rgb(158,161,168);fill-rule:nonzero;"/>
        </g>
        <g id="text1794" transform="matrix(0.972257,0,0,1.02853,0,-8)">
            <path id="path1830" d="M28.285,120.56L30.864,120.56C31.65,120.56 32.311,120.647 32.849,120.822C33.346,120.99 33.789,121.289 34.179,121.719C34.763,122.363 35.179,123.203 35.428,124.237C35.677,125.238 35.801,126.672 35.801,128.539C35.801,130.252 35.663,131.649 35.388,132.731C35.119,133.765 34.676,134.554 34.058,135.098C33.299,135.777 31.939,136.116 29.977,136.116L28.285,136.116L28.285,120.56ZM30.38,134.282C31.657,134.282 32.51,133.896 32.939,133.124C33.383,132.351 33.604,130.85 33.604,128.62C33.604,126.222 33.393,124.573 32.97,123.673C32.547,122.773 31.771,122.323 30.642,122.323L30.38,122.323L30.38,134.282Z" style="fill:rgb(158,161,168);fill-rule:nonzero;"/>
            <path id="path1832" d="M37.876,120.56L40.637,120.56C41.779,120.56 42.628,120.832 43.186,121.376C43.891,122.081 44.244,123.159 44.244,124.61C44.244,125.725 44.056,126.622 43.68,127.3C43.31,127.972 42.78,128.388 42.088,128.55L44.949,136.116L42.823,136.116L39.972,128.499L39.972,136.116L37.876,136.116L37.876,120.56ZM39.972,127.451C40.785,127.451 41.359,127.263 41.695,126.887C42.031,126.511 42.199,125.876 42.199,124.983C42.199,124.499 42.162,124.086 42.088,123.744C42.021,123.401 41.91,123.122 41.755,122.907C41.607,122.693 41.413,122.535 41.171,122.434C40.936,122.333 40.654,122.283 40.325,122.283L39.972,122.283L39.972,127.451Z" style="fill:rgb(158,161,168);fill-rule:nonzero;"/>
            <rect id="path1834" x="46.581" y="120.56" width="2.096" height="15.556" style="fill:rgb(158,161,168);fill-rule:nonzero;"/>
            <path id="path1836" d="M49.856,120.56L51.921,120.56L52.858,126.303L53.019,127.341L53.352,129.597C53.406,129.98 53.453,130.33 53.493,130.645C53.54,130.961 53.58,131.246 53.614,131.502L53.715,132.267C53.735,132.113 53.751,131.975 53.765,131.854C53.778,131.733 53.792,131.633 53.805,131.552L54.077,129.749L54.43,127.381C54.463,127.166 54.494,126.968 54.521,126.786C54.554,126.605 54.584,126.444 54.611,126.303L55.619,120.56L57.573,120.56L54.521,136.116L52.858,136.116L49.856,120.56Z" style="fill:rgb(158,161,168);fill-rule:nonzero;"/>
            <path id="path1838" d="M58.712,120.56L64.283,120.56L64.283,122.333L60.807,122.333L60.807,127.26L63.89,127.26L63.89,129.033L60.807,129.033L60.807,134.343L64.283,134.343L64.283,136.116L58.712,136.116L58.712,120.56Z" style="fill:rgb(158,161,168);fill-rule:nonzero;"/>
        </g>
        <g id="text1798" transform="matrix(0.927991,0,0,1.0776,0,-4)">
            <path id="path1817" d="M29.634,170.75L34.981,170.75L34.981,172.443L31.634,172.443L31.634,177.136L34.654,177.136L34.654,178.828L31.634,178.828L31.634,185.598L29.634,185.598L29.634,170.75Z" style="fill:rgb(158,161,168);fill-rule:nonzero;"/>
            <rect id="path1819" x="36.519" y="170.75" width="2" height="14.848" style="fill:rgb(158,161,168);fill-rule:nonzero;"/>
            <path id="path1821" d="M40.827,170.75L42.828,170.75L42.828,183.906L46.097,183.906L46.097,185.598L40.827,185.598L40.827,170.75Z" style="fill:rgb(158,161,168);fill-rule:nonzero;"/>
            <path id="path1823" d="M45.838,170.75L52.348,170.75L52.348,172.501L50.107,172.501L50.107,185.598L48.146,185.598L48.146,172.501L45.838,172.501L45.838,170.75Z" style="fill:rgb(158,161,168);fill-rule:nonzero;"/>
            <path id="path1825" d="M53.444,170.75L58.762,170.75L58.762,172.443L55.445,172.443L55.445,177.145L58.387,177.145L58.387,178.838L55.445,178.838L55.445,183.906L58.762,183.906L58.762,185.598L53.444,185.598L53.444,170.75Z" style="fill:rgb(158,161,168);fill-rule:nonzero;"/>
            <path id="path1827" d="M60.599,170.75L63.234,170.75C64.324,170.75 65.135,171.01 65.667,171.529C66.34,172.202 66.677,173.231 66.677,174.616C66.677,175.68 66.497,176.536 66.138,177.184C65.785,177.825 65.279,178.222 64.619,178.376L67.35,185.598L65.321,185.598L62.599,178.328L62.599,185.598L60.599,185.598L60.599,170.75ZM62.599,177.328C63.375,177.328 63.923,177.149 64.244,176.79C64.564,176.431 64.724,175.825 64.724,174.972C64.724,174.51 64.689,174.116 64.619,173.789C64.555,173.462 64.449,173.196 64.301,172.991C64.16,172.786 63.974,172.635 63.744,172.539C63.519,172.443 63.25,172.395 62.936,172.395L62.599,172.395L62.599,177.328Z" style="fill:rgb(158,161,168);fill-rule:nonzero;"/>
        </g>
        <g id="text1802" transform="matrix(0.813854,0,0,1.22872,0,0)">
            <path id="path1804" d="M32.441,198.745L34.127,198.745L34.892,203.434L35.024,204.281L35.296,206.124C35.339,206.436 35.378,206.721 35.411,206.979C35.449,207.237 35.482,207.47 35.509,207.678L35.592,208.304C35.608,208.177 35.622,208.065 35.633,207.966C35.644,207.868 35.655,207.785 35.666,207.72L35.888,206.247L36.176,204.314C36.203,204.139 36.228,203.977 36.25,203.829C36.277,203.681 36.302,203.549 36.324,203.434L37.146,198.745L38.742,198.745L36.25,211.446L34.892,211.446L32.441,198.745Z" style="fill:rgb(158,161,168);fill-rule:nonzero;"/>
            <path id="path1806" d="M46.063,205.408C46.063,207.651 45.814,209.244 45.315,210.187C44.816,211.131 43.979,211.602 42.806,211.602C41.572,211.602 40.703,211.095 40.198,210.08C39.699,209.088 39.45,207.325 39.45,204.791C39.45,202.532 39.696,200.933 40.19,199.995C40.689,199.052 41.534,198.581 42.724,198.581C43.787,198.581 44.577,198.945 45.093,199.675C45.433,200.163 45.679,200.856 45.833,201.756C45.987,202.589 46.063,203.807 46.063,205.408L46.063,205.408ZM44.27,205.589C44.27,203.39 44.171,201.931 43.974,201.213C43.776,200.489 43.373,200.127 42.765,200.127C42.156,200.127 41.75,200.459 41.547,201.122C41.35,201.791 41.251,203.135 41.251,205.153C41.251,207.012 41.355,208.301 41.564,209.019C41.778,209.699 42.178,210.039 42.765,210.039C43.34,210.039 43.735,209.721 43.949,209.085C44.163,208.454 44.27,207.289 44.27,205.589L44.27,205.589Z" style="fill:rgb(158,161,168);fill-rule:nonzero;"/>
            <path id="path1808" d="M47.766,198.745L49.477,198.745L49.477,209.998L52.274,209.998L52.274,211.446L47.766,211.446L47.766,198.745Z" style="fill:rgb(158,161,168);fill-rule:nonzero;"/>
            <path id="path1810" d="M53.491,198.745L55.169,198.745L55.169,207.72C55.169,208.635 55.252,209.244 55.416,209.546C55.586,209.847 55.921,209.998 56.42,209.998C56.919,209.998 57.248,209.867 57.407,209.603C57.571,209.335 57.654,208.789 57.654,207.966L57.654,198.745L59.332,198.745L59.332,207.966C59.332,209.348 59.121,210.283 58.698,210.771C58.194,211.325 57.423,211.602 56.387,211.602C55.246,211.602 54.443,211.246 53.977,210.533C53.653,210.045 53.491,209.107 53.491,207.72L53.491,198.745Z" style="fill:rgb(158,161,168);fill-rule:nonzero;"/>
            <path id="path1812" d="M61.89,198.745L63.354,198.745L64.473,203.927C64.61,204.575 64.733,205.224 64.843,205.877C64.958,206.524 65.062,207.204 65.156,207.917C65.167,207.824 65.175,207.752 65.18,207.703C65.186,207.648 65.191,207.61 65.197,207.588L65.435,206.132L65.649,204.75L65.839,203.837L66.834,198.745L68.315,198.745L69.483,211.446L67.846,211.446L67.558,207.136C67.547,206.916 67.536,206.727 67.525,206.568C67.519,206.409 67.516,206.277 67.516,206.173L67.442,204.47L67.401,202.907C67.401,202.896 67.399,202.874 67.393,202.842C67.393,202.803 67.39,202.754 67.385,202.693L67.344,202.948C67.3,203.25 67.259,203.513 67.22,203.738C67.187,203.963 67.157,204.152 67.13,204.306L66.916,205.466L66.834,205.902L65.764,211.446L64.613,211.446L63.609,206.658C63.472,206.028 63.349,205.389 63.239,204.742C63.135,204.089 63.039,203.406 62.951,202.694L62.458,211.446L60.845,211.446L61.89,198.745Z" style="fill:rgb(158,161,168);fill-rule:nonzero;"/>
            <path id="path1814" d="M70.897,198.745L75.446,198.745L75.446,200.193L72.608,200.193L72.608,204.215L75.126,204.215L75.126,205.663L72.608,205.663L72.608,209.998L75.446,209.998L75.446,211.446L70.897,211.446L70.897,198.745Z" style="fill:rgb(158,161,168);fill-rule:nonzero;"/>
        </g>
    </g>
</svg>
