<?xml version="1.0" encoding="UTF-8" standalone="no"?>
<!DOCTYPE svg PUBLIC "-//W3C//DTD SVG 1.1//EN" "http://www.w3.org/Graphics/SVG/1.1/DTD/svg11.dtd">
<svg width="100%" height="100%" viewBox="0 0 75 380" version="1.1" xmlns="http://www.w3.org/2000/svg" xmlns:xlink="http://www.w3.org/1999/xlink" xml:space="preserve" xmlns:serif="http://www.serif.com/" style="fill-rule:evenodd;clip-rule:evenodd;stroke-linejoin:round;stroke-miterlimit:2;">
    <g id="Layer-2" serif:id="Layer 2">
        <rect id="rect4689" x="0" y="0" width="75" height="380" style="fill:rgb(44,45,48);"/>
        <g id="text989">
        </g>
        <g id="text80" transform="matrix(1.00498,0,0,0.995047,-7.50001,4.99997)">
            <path id="path4726" d="M29.851,371.706L29.851,363.943L31.853,363.943L32.903,366.668C32.96,366.829 33.024,367.013 33.094,367.221C33.168,367.429 33.249,367.668 33.336,367.94L33.552,368.624C33.475,367.95 33.416,367.373 33.376,366.894C33.336,366.415 33.316,366.013 33.316,365.687L33.316,363.943L35.317,363.943L35.317,371.706L33.316,371.706L32.26,368.85C32.149,368.545 32.049,368.26 31.958,367.995C31.871,367.727 31.794,367.472 31.727,367.231C31.77,367.777 31.802,368.253 31.822,368.659C31.843,369.065 31.853,369.42 31.853,369.725L31.853,371.706L29.851,371.706Z" style="fill:rgb(158,161,168);fill-rule:nonzero;"/>
            <path id="path4728" d="M39.887,371.706L37.791,371.706L37.791,368.418L35.865,363.943L38.052,363.943L38.429,365.094C38.503,365.319 38.568,365.535 38.625,365.743C38.686,365.951 38.739,366.15 38.786,366.341C38.863,366.056 38.93,365.811 38.987,365.607C39.044,365.399 39.095,365.232 39.138,365.104L39.52,363.943L41.692,363.943L39.887,368.418L39.887,371.706Z" style="fill:rgb(158,161,168);fill-rule:nonzero;"/>
            <path id="path4730" d="M41.894,371.515L41.894,369.076C42.306,369.639 42.752,369.921 43.231,369.921C43.412,369.921 43.56,369.874 43.673,369.78C43.787,369.683 43.844,369.562 43.844,369.418C43.844,369.21 43.72,369.008 43.472,368.81L43.13,368.543C42.902,368.372 42.708,368.203 42.547,368.035C42.386,367.865 42.256,367.69 42.155,367.513C42.054,367.332 41.981,367.146 41.934,366.954C41.887,366.763 41.863,366.562 41.863,366.351C41.863,365.989 41.947,365.61 42.115,365.215C42.199,365.03 42.296,364.863 42.406,364.712C42.517,364.558 42.644,364.422 42.789,364.305C43.184,363.969 43.662,363.802 44.222,363.802C44.721,363.802 45.224,363.934 45.73,364.199L45.73,366.572C45.559,366.308 45.365,366.1 45.147,365.949C44.929,365.795 44.714,365.718 44.503,365.718C44.342,365.718 44.21,365.765 44.106,365.858C43.999,365.949 43.945,366.058 43.945,366.185C43.945,366.393 44.087,366.599 44.372,366.804L44.704,367.05C45.147,367.368 45.463,367.695 45.655,368.03C45.849,368.366 45.946,368.758 45.946,369.207C45.946,369.971 45.713,370.601 45.247,371.098C44.781,371.594 44.191,371.842 43.477,371.842C42.985,371.842 42.457,371.733 41.894,371.515L41.894,371.515Z" style="fill:rgb(158,161,168);fill-rule:nonzero;"/>
            <path id="path4732" d="M49.576,371.706L47.48,371.706L47.48,365.803L46.323,365.803L46.323,363.943L50.778,363.943L50.778,365.803L49.576,365.803L49.576,371.706Z" style="fill:rgb(158,161,168);fill-rule:nonzero;"/>
            <path id="path4734" d="M56.525,371.706L54.428,371.706L54.428,368.584L53.428,368.584L53.428,371.706L51.331,371.706L51.331,363.943L53.428,363.943L53.428,366.688L54.428,366.688L54.428,363.943L56.525,363.943L56.525,371.706Z" style="fill:rgb(158,161,168);fill-rule:nonzero;"/>
            <rect id="path4736" x="57.606" y="363.943" width="2.097" height="7.763" style="fill:rgb(158,161,168);fill-rule:nonzero;"/>
        </g>
        <rect id="rect4778-3-6" x="2" y="47" width="34" height="42" style="fill:rgb(179,179,179);"/>
        <g id="text4613" transform="matrix(1,0,0,1,-4,20)">
            <path id="path4701" d="M17.141,61L15.047,61L15.047,55.37L17.141,55.37L17.141,61ZM17.318,53.625C17.318,53.955 17.198,54.24 16.958,54.479C16.712,54.715 16.425,54.833 16.099,54.833C15.762,54.833 15.474,54.714 15.234,54.474C14.998,54.227 14.88,53.939 14.88,53.609C14.88,53.273 14.998,52.986 15.234,52.75C15.481,52.514 15.767,52.396 16.094,52.396C16.437,52.396 16.727,52.516 16.964,52.755C17.2,52.991 17.318,53.281 17.318,53.625Z" style="fill:rgb(44,45,48);fill-rule:nonzero;"/>
            <path id="path4703" d="M23.068,61L20.979,61L20.979,58.021C20.979,57.764 20.953,57.585 20.901,57.484C20.852,57.384 20.766,57.333 20.641,57.333C20.349,57.333 20.203,57.609 20.203,58.161L20.203,61L18.115,61L18.115,55.37L20.203,55.37C20.2,55.509 20.196,55.637 20.193,55.755C20.189,55.873 20.184,55.983 20.177,56.083L20.156,56.443C20.493,55.648 20.986,55.25 21.635,55.25C22.087,55.25 22.438,55.418 22.688,55.755C22.941,56.092 23.068,56.561 23.068,57.161L23.068,61Z" style="fill:rgb(44,45,48);fill-rule:nonzero;"/>
            <path id="path4705" d="M31.12,61L27.318,61L27.318,52.958L29.49,52.958L29.49,59.068L31.12,59.068L31.12,61Z" style="fill:rgb(44,45,48);fill-rule:nonzero;"/>
        </g>
        <rect id="rect4662" x="39" y="47" width="34" height="42" style="fill:rgb(179,179,179);"/>
        <g id="text4617" transform="matrix(1,0,0,1,-11,20)">
            <path id="path4708" d="M60.182,61L58.089,61L58.089,55.37L60.182,55.37L60.182,61ZM60.359,53.625C60.359,53.955 60.24,54.24 60,54.479C59.753,54.715 59.467,54.833 59.141,54.833C58.804,54.833 58.516,54.714 58.276,54.474C58.04,54.227 57.922,53.939 57.922,53.609C57.922,53.273 58.04,52.986 58.276,52.75C58.523,52.514 58.809,52.396 59.135,52.396C59.479,52.396 59.769,52.516 60.005,52.755C60.241,52.991 60.359,53.281 60.359,53.625L60.359,53.625Z" style="fill:rgb(44,45,48);fill-rule:nonzero;"/>
            <path id="path4710" d="M66.109,61L64.021,61L64.021,58.021C64.021,57.764 63.995,57.585 63.943,57.484C63.894,57.384 63.807,57.333 63.682,57.333C63.391,57.333 63.245,57.609 63.245,58.161L63.245,61L61.156,61L61.156,55.37L63.245,55.37C63.241,55.509 63.238,55.637 63.234,55.755C63.231,55.873 63.226,55.983 63.219,56.083L63.198,56.443C63.535,55.648 64.028,55.25 64.677,55.25C65.128,55.25 65.479,55.418 65.729,55.755C65.983,56.092 66.109,56.561 66.109,57.161L66.109,61Z" style="fill:rgb(44,45,48);fill-rule:nonzero;"/>
            <path id="path4712" d="M76.078,61L73.729,61L72.656,58.135C72.646,58.087 72.627,58.023 72.599,57.943C72.575,57.863 72.544,57.767 72.505,57.656L72.521,58.187L72.521,61L70.359,61L70.359,52.958L72.583,52.958C73.562,52.958 74.295,53.151 74.781,53.536C75.399,54.03 75.708,54.731 75.708,55.641C75.708,56.613 75.293,57.285 74.463,57.656L76.078,61ZM72.531,56.682L72.677,56.682C72.927,56.682 73.135,56.587 73.302,56.396C73.469,56.205 73.552,55.962 73.552,55.667C73.552,55.066 73.238,54.766 72.609,54.766L72.531,54.766L72.531,56.682Z" style="fill:rgb(44,45,48);fill-rule:nonzero;"/>
        </g>
        <g id="text4987">
        </g>
        <g id="text938">
            <path id="path963" d="M14.146,128.039L14.146,129.625C13.651,129.271 13.205,129.094 12.81,129.094C12.382,129.094 12.034,129.245 11.763,129.547C11.492,129.833 11.356,130.216 11.356,130.695C11.356,131.117 11.453,131.479 11.646,131.781C11.744,131.943 11.906,132.151 12.13,132.406C12.359,132.661 12.653,132.969 13.013,133.328C13.674,134 14.125,134.581 14.364,135.07C14.604,135.544 14.724,136.125 14.724,136.812C14.724,137.745 14.461,138.513 13.935,139.117C13.409,139.706 12.734,140 11.911,140C11.218,140 10.627,139.81 10.138,139.43L10.138,137.82C10.716,138.242 11.242,138.453 11.716,138.453C12.159,138.453 12.505,138.307 12.755,138.016C13.005,137.719 13.13,137.318 13.13,136.812C13.13,136.375 13.034,135.982 12.841,135.633C12.742,135.466 12.604,135.276 12.427,135.062C12.25,134.844 12.028,134.602 11.763,134.336C11.351,133.93 11.01,133.57 10.739,133.258C10.468,132.945 10.268,132.672 10.138,132.437C9.888,131.979 9.763,131.401 9.763,130.703C9.763,129.76 10.007,129.013 10.497,128.461C10.992,127.904 11.656,127.625 12.489,127.625C13.067,127.625 13.619,127.763 14.146,128.039Z" style="fill:rgb(158,161,168);fill-rule:nonzero;"/>
            <path id="path965" d="M15.317,127.789L20.606,127.789L20.606,129.211L18.786,129.211L18.786,139.852L17.192,139.852L17.192,129.211L15.317,129.211L15.317,127.789Z" style="fill:rgb(158,161,168);fill-rule:nonzero;"/>
            <path id="path967" d="M22.997,127.789L24.263,127.789L26.849,139.852L25.239,139.852L24.786,137.5L22.396,137.5L21.935,139.852L20.372,139.852L22.997,127.789ZM24.552,136.242L24.192,134.32C23.953,133.013 23.757,131.617 23.606,130.133C23.534,130.857 23.44,131.591 23.325,132.336C23.211,133.076 23.075,133.862 22.919,134.695L22.622,136.242L24.552,136.242Z" style="fill:rgb(158,161,168);fill-rule:nonzero;"/>
            <path id="path969" d="M27.81,127.789L29.95,127.789C30.836,127.789 31.494,128 31.927,128.422C32.474,128.969 32.747,129.805 32.747,130.93C32.747,131.794 32.601,132.49 32.31,133.016C32.023,133.536 31.612,133.859 31.075,133.984L33.294,139.852L31.646,139.852L29.435,133.945L29.435,139.852L27.81,139.852L27.81,127.789ZM29.435,133.133C30.065,133.133 30.51,132.987 30.771,132.695C31.031,132.404 31.161,131.911 31.161,131.219C31.161,130.844 31.132,130.523 31.075,130.258C31.023,129.992 30.937,129.776 30.817,129.609C30.703,129.443 30.552,129.32 30.364,129.242C30.182,129.164 29.963,129.125 29.708,129.125L29.435,129.125L29.435,133.133Z" style="fill:rgb(158,161,168);fill-rule:nonzero;"/>
            <path id="path971" d="M33.755,127.789L39.044,127.789L39.044,129.211L37.224,129.211L37.224,139.852L35.63,139.852L35.63,129.211L33.755,129.211L33.755,127.789Z" style="fill:rgb(158,161,168);fill-rule:nonzero;"/>
        </g>
        <g id="text942" transform="matrix(1,0,0,1,0,20)">
            <path id="path954" d="M18.817,168.039L18.817,169.625C18.323,169.271 17.877,169.094 17.481,169.094C17.054,169.094 16.705,169.245 16.435,169.547C16.164,169.833 16.028,170.216 16.028,170.695C16.028,171.117 16.125,171.479 16.317,171.781C16.416,171.943 16.578,172.151 16.802,172.406C17.031,172.661 17.325,172.969 17.685,173.328C18.346,174 18.797,174.581 19.036,175.07C19.276,175.544 19.396,176.125 19.396,176.812C19.396,177.745 19.132,178.513 18.606,179.117C18.08,179.706 17.406,180 16.583,180C15.89,180 15.299,179.81 14.81,179.43L14.81,177.82C15.388,178.242 15.914,178.453 16.388,178.453C16.83,178.453 17.177,178.307 17.427,178.016C17.677,177.719 17.802,177.318 17.802,176.812C17.802,176.375 17.705,175.982 17.513,175.633C17.414,175.466 17.276,175.276 17.099,175.062C16.922,174.844 16.7,174.602 16.435,174.336C16.023,173.93 15.682,173.57 15.411,173.258C15.14,172.945 14.94,172.672 14.81,172.437C14.56,171.979 14.435,171.401 14.435,170.703C14.435,169.76 14.679,169.013 15.169,168.461C15.664,167.904 16.328,167.625 17.161,167.625C17.739,167.625 18.291,167.763 18.817,168.039Z" style="fill:rgb(158,161,168);fill-rule:nonzero;"/>
            <path id="path956" d="M19.989,167.789L25.278,167.789L25.278,169.211L23.458,169.211L23.458,179.852L21.864,179.852L21.864,169.211L19.989,169.211L19.989,167.789Z" style="fill:rgb(158,161,168);fill-rule:nonzero;"/>
            <path id="path958" d="M32.333,174.117C32.333,176.247 32.096,177.76 31.622,178.656C31.148,179.552 30.354,180 29.239,180C28.067,180 27.242,179.518 26.763,178.555C26.289,177.612 26.052,175.938 26.052,173.531C26.052,171.385 26.286,169.867 26.755,168.977C27.229,168.081 28.031,167.633 29.161,167.633C30.172,167.633 30.922,167.979 31.411,168.672C31.734,169.135 31.968,169.794 32.114,170.648C32.26,171.44 32.333,172.596 32.333,174.117L32.333,174.117ZM30.63,174.289C30.63,172.201 30.536,170.815 30.349,170.133C30.161,169.445 29.778,169.102 29.2,169.102C28.622,169.102 28.237,169.417 28.044,170.047C27.856,170.682 27.763,171.958 27.763,173.875C27.763,175.641 27.862,176.865 28.06,177.547C28.263,178.193 28.643,178.516 29.2,178.516C29.747,178.516 30.122,178.214 30.325,177.609C30.528,177.01 30.63,175.904 30.63,174.289L30.63,174.289Z" style="fill:rgb(158,161,168);fill-rule:nonzero;"/>
            <path id="path960" d="M33.95,167.789L36.091,167.789C37.122,167.789 37.872,168.049 38.341,168.57C38.81,169.096 39.044,169.93 39.044,171.07C39.044,172.674 38.573,173.711 37.63,174.18C37.156,174.393 36.471,174.5 35.575,174.5L35.575,179.852L33.95,179.852L33.95,167.789ZM35.575,173.109C36.247,173.109 36.711,172.974 36.966,172.703C37.226,172.427 37.356,171.937 37.356,171.234C37.356,170.516 37.231,169.99 36.981,169.656C36.731,169.323 36.338,169.156 35.802,169.156L35.575,169.156L35.575,173.109Z" style="fill:rgb(158,161,168);fill-rule:nonzero;"/>
        </g>
        <g id="text892" transform="matrix(1,0,0,1,0,8)">
            <path id="path907" d="M24.195,145.859L27.721,145.859L27.721,146.807L26.507,146.807L26.507,153.901L25.445,153.901L25.445,146.807L24.195,146.807L24.195,145.859Z" style="fill:rgb(158,161,168);fill-rule:nonzero;"/>
            <path id="path909" d="M28.315,145.859L29.742,145.859C30.332,145.859 30.771,146 31.06,146.281C31.424,146.646 31.606,147.203 31.606,147.953C31.606,148.53 31.509,148.993 31.315,149.344C31.124,149.691 30.85,149.906 30.492,149.99L31.971,153.901L30.872,153.901L29.398,149.964L29.398,153.901L28.315,153.901L28.315,145.859ZM29.398,149.422C29.818,149.422 30.115,149.325 30.289,149.13C30.462,148.936 30.549,148.608 30.549,148.146C30.549,147.896 30.53,147.682 30.492,147.505C30.457,147.328 30.4,147.184 30.32,147.073C30.244,146.962 30.143,146.88 30.018,146.828C29.896,146.776 29.751,146.75 29.58,146.75L29.398,146.75L29.398,149.422Z" style="fill:rgb(158,161,168);fill-rule:nonzero;"/>
            <rect id="path911" x="32.815" y="145.859" width="1.083" height="8.042" style="fill:rgb(158,161,168);fill-rule:nonzero;"/>
            <path id="path913" d="M37.075,149.672L39.044,149.672L39.044,149.984C39.044,151.55 38.907,152.608 38.632,153.156C38.362,153.719 37.855,154 37.112,154C36.344,154 35.797,153.687 35.471,153.062C35.148,152.437 34.987,151.387 34.987,149.911C34.987,148.224 35.164,147.101 35.518,146.542C35.851,146.017 36.363,145.755 37.054,145.755C37.582,145.755 37.994,145.882 38.289,146.135C38.587,146.392 38.82,146.814 38.987,147.401L37.976,147.823C37.931,147.611 37.881,147.434 37.825,147.292C37.77,147.146 37.709,147.033 37.643,146.953C37.511,146.79 37.313,146.708 37.049,146.708C36.688,146.708 36.442,146.931 36.31,147.375C36.178,147.84 36.112,148.675 36.112,149.88C36.112,151.099 36.179,151.924 36.315,152.354C36.45,152.785 36.705,153 37.08,153C37.424,153 37.665,152.847 37.804,152.542C37.947,152.215 38.018,151.691 38.018,150.969L38.018,150.75L38.018,150.589L37.075,150.589L37.075,149.672Z" style="fill:rgb(158,161,168);fill-rule:nonzero;"/>
        </g>
        <g id="text896" transform="matrix(1,0,0,1,0,18)">
            <path id="path898" d="M24.195,195.859L27.721,195.859L27.721,196.807L26.507,196.807L26.507,203.901L25.445,203.901L25.445,196.807L24.195,196.807L24.195,195.859Z" style="fill:rgb(158,161,168);fill-rule:nonzero;"/>
            <path id="path900" d="M28.315,195.859L29.742,195.859C30.332,195.859 30.771,196 31.06,196.281C31.424,196.646 31.606,197.203 31.606,197.953C31.606,198.53 31.509,198.993 31.315,199.344C31.124,199.691 30.85,199.906 30.492,199.99L31.971,203.901L30.872,203.901L29.398,199.964L29.398,203.901L28.315,203.901L28.315,195.859ZM29.398,199.422C29.818,199.422 30.115,199.325 30.289,199.13C30.462,198.936 30.549,198.608 30.549,198.146C30.549,197.896 30.53,197.682 30.492,197.505C30.457,197.328 30.4,197.184 30.32,197.073C30.244,196.962 30.143,196.88 30.018,196.828C29.896,196.776 29.751,196.75 29.58,196.75L29.398,196.75L29.398,199.422Z" style="fill:rgb(158,161,168);fill-rule:nonzero;"/>
            <rect id="path902" x="32.815" y="195.859" width="1.083" height="8.042" style="fill:rgb(158,161,168);fill-rule:nonzero;"/>
            <path id="path904" d="M37.075,199.672L39.044,199.672L39.044,199.984C39.044,201.55 38.907,202.608 38.632,203.156C38.362,203.719 37.855,204 37.112,204C36.344,204 35.797,203.687 35.471,203.062C35.148,202.437 34.987,201.387 34.987,199.911C34.987,198.224 35.164,197.101 35.518,196.542C35.851,196.017 36.363,195.755 37.054,195.755C37.582,195.755 37.994,195.882 38.289,196.135C38.587,196.392 38.82,196.814 38.987,197.401L37.976,197.823C37.931,197.611 37.881,197.434 37.825,197.292C37.77,197.146 37.709,197.033 37.643,196.953C37.511,196.79 37.313,196.708 37.049,196.708C36.688,196.708 36.442,196.931 36.31,197.375C36.178,197.84 36.112,198.675 36.112,199.88C36.112,201.099 36.179,201.924 36.315,202.354C36.45,202.785 36.705,203 37.08,203C37.424,203 37.665,202.847 37.804,202.542C37.947,202.215 38.018,201.691 38.018,200.969L38.018,200.75L38.018,200.589L37.075,200.589L37.075,199.672Z" style="fill:rgb(158,161,168);fill-rule:nonzero;"/>
        </g>
        <g id="text918">
            <path id="path924" d="M22.424,301.816L23.268,301.816L24.992,309.858L23.919,309.858L23.617,308.29L22.023,308.29L21.716,309.858L20.674,309.858L22.424,301.816ZM23.461,307.452L23.221,306.171C23.062,305.299 22.931,304.369 22.831,303.379C22.782,303.862 22.72,304.351 22.643,304.848C22.567,305.341 22.477,305.865 22.372,306.421L22.174,307.452L23.461,307.452Z" style="fill:rgb(158,161,168);fill-rule:nonzero;"/>
            <path id="path926" d="M25.633,301.816L26.695,301.816L26.695,307.499C26.695,308.079 26.747,308.464 26.852,308.655C26.959,308.846 27.171,308.941 27.487,308.941C27.803,308.941 28.011,308.858 28.112,308.691C28.216,308.521 28.268,308.176 28.268,307.655L28.268,301.816L29.331,301.816L29.331,307.655C29.331,308.53 29.197,309.122 28.93,309.431C28.61,309.782 28.122,309.957 27.466,309.957C26.744,309.957 26.235,309.731 25.94,309.28C25.735,308.971 25.633,308.377 25.633,307.499L25.633,301.816Z" style="fill:rgb(158,161,168);fill-rule:nonzero;"/>
            <path id="path928" d="M29.93,301.816L33.456,301.816L33.456,302.764L32.242,302.764L32.242,309.858L31.18,309.858L31.18,302.764L29.93,302.764L29.93,301.816Z" style="fill:rgb(158,161,168);fill-rule:nonzero;"/>
            <path id="path930" d="M38.159,306.035C38.159,307.455 38.001,308.464 37.685,309.061C37.369,309.659 36.839,309.957 36.096,309.957C35.315,309.957 34.765,309.636 34.445,308.994C34.129,308.365 33.971,307.249 33.971,305.645C33.971,304.214 34.128,303.202 34.44,302.608C34.756,302.011 35.291,301.712 36.044,301.712C36.718,301.712 37.218,301.943 37.544,302.405C37.76,302.714 37.916,303.153 38.013,303.723C38.11,304.251 38.159,305.021 38.159,306.035L38.159,306.035ZM37.023,306.15C37.023,304.757 36.961,303.834 36.836,303.379C36.711,302.921 36.456,302.692 36.07,302.692C35.685,302.692 35.428,302.902 35.299,303.322C35.174,303.745 35.112,304.596 35.112,305.874C35.112,307.051 35.178,307.867 35.31,308.322C35.445,308.752 35.699,308.968 36.07,308.968C36.435,308.968 36.685,308.766 36.82,308.363C36.956,307.964 37.023,307.226 37.023,306.15L37.023,306.15Z" style="fill:rgb(158,161,168);fill-rule:nonzero;"/>
            <path id="path932" d="M41.919,301.983L41.919,303.04C41.589,302.804 41.293,302.686 41.029,302.686C40.744,302.686 40.511,302.787 40.331,302.988C40.15,303.179 40.06,303.435 40.06,303.754C40.06,304.035 40.124,304.277 40.253,304.478C40.319,304.586 40.426,304.724 40.576,304.895C40.728,305.065 40.924,305.27 41.164,305.509C41.605,305.957 41.905,306.344 42.065,306.671C42.225,306.987 42.305,307.374 42.305,307.832C42.305,308.454 42.129,308.966 41.779,309.369C41.428,309.761 40.978,309.957 40.43,309.957C39.968,309.957 39.574,309.83 39.247,309.577L39.247,308.504C39.633,308.785 39.984,308.926 40.299,308.926C40.595,308.926 40.826,308.829 40.992,308.634C41.159,308.436 41.242,308.169 41.242,307.832C41.242,307.54 41.178,307.278 41.049,307.046C40.984,306.935 40.892,306.808 40.773,306.665C40.655,306.52 40.508,306.358 40.331,306.181C40.056,305.91 39.829,305.671 39.648,305.462C39.468,305.254 39.334,305.072 39.247,304.915C39.081,304.61 38.997,304.224 38.997,303.759C38.997,303.131 39.161,302.632 39.487,302.264C39.817,301.893 40.26,301.707 40.815,301.707C41.201,301.707 41.569,301.799 41.919,301.983L41.919,301.983Z" style="fill:rgb(158,161,168);fill-rule:nonzero;"/>
            <path id="path934" d="M44.487,301.816L45.331,301.816L47.055,309.858L45.982,309.858L45.68,308.29L44.086,308.29L43.779,309.858L42.737,309.858L44.487,301.816ZM45.523,307.452L45.284,306.171C45.124,305.299 44.994,304.369 44.893,303.379C44.845,303.862 44.782,304.351 44.706,304.848C44.629,305.341 44.539,305.865 44.435,306.421L44.237,307.452L45.523,307.452Z" style="fill:rgb(158,161,168);fill-rule:nonzero;"/>
            <path id="path936" d="M46.867,301.816L47.935,301.816L48.419,304.785L48.503,305.322L48.675,306.488C48.702,306.686 48.727,306.867 48.747,307.03C48.772,307.193 48.792,307.341 48.81,307.473L48.862,307.869C48.872,307.789 48.881,307.718 48.888,307.655C48.895,307.593 48.902,307.54 48.909,307.499L49.05,306.566L49.232,305.343C49.249,305.231 49.265,305.129 49.279,305.035C49.296,304.942 49.312,304.858 49.326,304.785L49.846,301.816L50.857,301.816L49.279,309.858L48.419,309.858L46.867,301.816Z" style="fill:rgb(158,161,168);fill-rule:nonzero;"/>
            <path id="path938" d="M51.445,301.816L54.326,301.816L54.326,302.733L52.529,302.733L52.529,305.28L54.122,305.28L54.122,306.197L52.529,306.197L52.529,308.941L54.326,308.941L54.326,309.858L51.445,309.858L51.445,301.816Z" style="fill:rgb(158,161,168);fill-rule:nonzero;"/>
        </g>
        <g id="text922">
            <path id="path941" d="M19.828,252.449L19.828,253.423C19.55,253.288 19.318,253.22 19.13,253.22C18.873,253.22 18.653,253.284 18.469,253.413C18.285,253.538 18.132,253.732 18.01,253.996C17.892,254.26 17.804,254.595 17.745,255.001C17.689,255.404 17.661,255.882 17.661,256.434C17.661,258.42 18.17,259.413 19.187,259.413C19.365,259.413 19.578,259.357 19.828,259.246L19.828,260.241C19.568,260.387 19.276,260.46 18.953,260.46C17.325,260.46 16.51,259.13 16.51,256.47C16.51,255.033 16.708,253.963 17.104,253.262C17.503,252.56 18.113,252.21 18.932,252.21C19.234,252.21 19.533,252.29 19.828,252.449L19.828,252.449Z" style="fill:rgb(158,161,168);fill-rule:nonzero;"/>
            <path id="path943" d="M20.734,252.319L21.818,252.319L21.818,255.465L23.406,255.465L23.406,252.319L24.49,252.319L24.49,260.361L23.406,260.361L23.406,256.382L21.818,256.382L21.818,260.361L20.734,260.361L20.734,252.319Z" style="fill:rgb(158,161,168);fill-rule:nonzero;"/>
            <path id="path945" d="M29.76,256.538C29.76,257.958 29.602,258.967 29.286,259.564C28.97,260.161 28.441,260.46 27.698,260.46C26.917,260.46 26.366,260.138 26.047,259.496C25.731,258.868 25.573,257.751 25.573,256.147C25.573,254.717 25.729,253.704 26.042,253.111C26.358,252.513 26.892,252.215 27.646,252.215C28.319,252.215 28.819,252.446 29.146,252.908C29.361,253.217 29.517,253.656 29.615,254.225C29.712,254.753 29.76,255.524 29.76,256.538L29.76,256.538ZM28.625,256.652C28.625,255.26 28.563,254.336 28.438,253.882C28.313,253.423 28.057,253.194 27.672,253.194C27.286,253.194 27.03,253.404 26.901,253.824C26.776,254.248 26.714,255.099 26.714,256.376C26.714,257.553 26.78,258.369 26.911,258.824C27.047,259.255 27.3,259.47 27.672,259.47C28.036,259.47 28.286,259.269 28.422,258.866C28.557,258.467 28.625,257.729 28.625,256.652L28.625,256.652Z" style="fill:rgb(158,161,168);fill-rule:nonzero;"/>
            <path id="path947" d="M34.865,256.538C34.865,257.958 34.707,258.967 34.391,259.564C34.075,260.161 33.545,260.46 32.802,260.46C32.021,260.46 31.47,260.138 31.151,259.496C30.835,258.868 30.677,257.751 30.677,256.147C30.677,254.717 30.833,253.704 31.146,253.111C31.462,252.513 31.997,252.215 32.75,252.215C33.424,252.215 33.924,252.446 34.25,252.908C34.465,253.217 34.622,253.656 34.719,254.225C34.816,254.753 34.865,255.524 34.865,256.538L34.865,256.538ZM33.729,256.652C33.729,255.26 33.667,254.336 33.542,253.882C33.417,253.423 33.161,253.194 32.776,253.194C32.391,253.194 32.134,253.404 32.005,253.824C31.88,254.248 31.818,255.099 31.818,256.376C31.818,257.553 31.884,258.369 32.016,258.824C32.151,259.255 32.405,259.47 32.776,259.47C33.141,259.47 33.391,259.269 33.526,258.866C33.661,258.467 33.729,257.729 33.729,256.652L33.729,256.652Z" style="fill:rgb(158,161,168);fill-rule:nonzero;"/>
            <path id="path949" d="M38.625,252.486L38.625,253.543C38.295,253.307 37.998,253.189 37.734,253.189C37.45,253.189 37.217,253.289 37.036,253.491C36.856,253.682 36.766,253.937 36.766,254.257C36.766,254.538 36.83,254.779 36.958,254.98C37.024,255.088 37.132,255.227 37.281,255.397C37.434,255.567 37.63,255.772 37.87,256.012C38.311,256.46 38.611,256.847 38.771,257.173C38.931,257.489 39.01,257.876 39.01,258.335C39.01,258.956 38.835,259.468 38.484,259.871C38.134,260.263 37.684,260.46 37.135,260.46C36.674,260.46 36.28,260.333 35.953,260.079L35.953,259.007C36.339,259.288 36.689,259.428 37.005,259.428C37.3,259.428 37.531,259.331 37.698,259.137C37.865,258.939 37.948,258.671 37.948,258.335C37.948,258.043 37.884,257.781 37.755,257.548C37.689,257.437 37.597,257.31 37.479,257.168C37.361,257.022 37.214,256.861 37.036,256.684C36.762,256.413 36.535,256.173 36.354,255.965C36.174,255.757 36.04,255.574 35.953,255.418C35.786,255.112 35.703,254.727 35.703,254.262C35.703,253.633 35.866,253.135 36.193,252.767C36.523,252.395 36.965,252.21 37.521,252.21C37.906,252.21 38.274,252.302 38.625,252.486L38.625,252.486Z" style="fill:rgb(158,161,168);fill-rule:nonzero;"/>
            <path id="path951" d="M39.922,252.319L42.802,252.319L42.802,253.236L41.005,253.236L41.005,255.783L42.599,255.783L42.599,256.699L41.005,256.699L41.005,259.444L42.802,259.444L42.802,260.361L39.922,260.361L39.922,252.319Z" style="fill:rgb(158,161,168);fill-rule:nonzero;"/>
            <path id="path953" d="M46.005,252.319L48.901,252.319L48.901,253.236L47.089,253.236L47.089,255.777L48.724,255.777L48.724,256.694L47.089,256.694L47.089,260.361L46.005,260.361L46.005,252.319Z" style="fill:rgb(158,161,168);fill-rule:nonzero;"/>
            <rect id="path955" x="49.734" y="252.319" width="1.083" height="8.042" style="fill:rgb(158,161,168);fill-rule:nonzero;"/>
            <path id="path957" d="M52.068,252.319L53.151,252.319L53.151,259.444L54.922,259.444L54.922,260.361L52.068,260.361L52.068,252.319Z" style="fill:rgb(158,161,168);fill-rule:nonzero;"/>
            <path id="path959" d="M55.609,252.319L58.49,252.319L58.49,253.236L56.693,253.236L56.693,255.783L58.286,255.783L58.286,256.699L56.693,256.699L56.693,259.444L58.49,259.444L58.49,260.361L55.609,260.361L55.609,252.319Z" style="fill:rgb(158,161,168);fill-rule:nonzero;"/>
        </g>
        <g id="text917" transform="matrix(1.00711,0,0,0.992944,0,0)">
            <path id="path946" d="M22.739,17.915L19.308,17.915L19.064,12.376L18.962,10.165C18.925,10.59 18.883,10.997 18.836,11.385C18.789,11.768 18.731,12.14 18.663,12.502L17.632,17.915L14.957,17.915L14.076,12.494C14.023,12.18 13.953,11.639 13.863,10.874C13.853,10.758 13.829,10.522 13.793,10.165L13.714,12.408L13.423,17.915L9.929,17.915L11.346,5.767L15.429,5.767L16.114,9.859C16.171,10.194 16.221,10.559 16.263,10.952C16.31,11.346 16.352,11.773 16.389,12.235C16.457,11.464 16.552,10.774 16.672,10.165L17.506,5.767L21.558,5.767L22.739,17.915Z" style="fill:rgb(158,161,168);fill-rule:nonzero;"/>
            <path id="path948" d="M32.959,17.915L29.568,17.915L29.324,16.373L27.113,16.373L26.846,17.915L23.455,17.915L26.374,5.767L30.386,5.767L32.959,17.915ZM28.939,13.769L28.726,12.353C28.721,12.348 28.71,12.277 28.695,12.14C28.684,12.025 28.629,11.569 28.529,10.771C28.519,10.682 28.506,10.562 28.49,10.409C28.474,10.252 28.453,10.055 28.427,9.819L28.325,8.671C28.314,8.781 28.299,8.904 28.278,9.04C28.262,9.177 28.244,9.326 28.223,9.489C28.186,9.814 28.16,10.04 28.144,10.165C28.128,10.291 28.118,10.367 28.112,10.394L27.884,11.865L27.554,13.769L28.939,13.769Z" style="fill:rgb(158,161,168);fill-rule:nonzero;"/>
            <path id="path950" d="M33.644,17.616L33.644,13.801C34.289,14.682 34.986,15.122 35.737,15.122C36.02,15.122 36.251,15.049 36.429,14.902C36.607,14.75 36.696,14.561 36.696,14.336C36.696,14.01 36.502,13.693 36.114,13.383L35.579,12.966C35.222,12.699 34.918,12.434 34.666,12.172C34.415,11.904 34.21,11.632 34.053,11.354C33.895,11.07 33.78,10.779 33.707,10.48C33.633,10.181 33.596,9.866 33.596,9.536C33.596,8.97 33.728,8.377 33.99,7.758C34.121,7.469 34.273,7.207 34.446,6.971C34.619,6.73 34.819,6.517 35.044,6.334C35.663,5.809 36.411,5.547 37.287,5.547C38.068,5.547 38.855,5.754 39.647,6.169L39.647,9.882C39.379,9.468 39.075,9.143 38.734,8.907C38.393,8.665 38.058,8.545 37.727,8.545C37.475,8.545 37.268,8.618 37.106,8.765C36.938,8.907 36.854,9.077 36.854,9.276C36.854,9.602 37.077,9.924 37.523,10.244L38.042,10.63C38.734,11.128 39.23,11.639 39.529,12.164C39.833,12.688 39.985,13.302 39.985,14.005C39.985,15.201 39.621,16.187 38.892,16.963C38.163,17.74 37.239,18.128 36.122,18.128C35.351,18.128 34.525,17.957 33.644,17.616Z" style="fill:rgb(158,161,168);fill-rule:nonzero;"/>
            <path id="path952" d="M45.666,17.915L42.385,17.915L42.385,8.678L40.575,8.678L40.575,5.767L47.546,5.767L47.546,8.678L45.666,8.678L45.666,17.915Z" style="fill:rgb(158,161,168);fill-rule:nonzero;"/>
            <path id="path961" d="M48.412,17.915L48.412,5.767L54.51,5.767L54.51,8.623L51.693,8.623L51.693,10.394L54.219,10.394L54.219,13.14L51.693,13.14L51.693,14.996L54.51,14.996L54.51,17.915L48.412,17.915Z" style="fill:rgb(158,161,168);fill-rule:nonzero;"/>
            <path id="path964" d="M64.541,17.915L60.993,17.915L59.372,13.588C59.356,13.515 59.328,13.418 59.286,13.297C59.249,13.176 59.202,13.032 59.144,12.864L59.167,13.667L59.167,17.915L55.902,17.915L55.902,5.767L59.262,5.767C60.741,5.767 61.848,6.058 62.582,6.641C63.516,7.385 63.983,8.445 63.983,9.819C63.983,11.288 63.356,12.303 62.102,12.864L64.541,17.915ZM59.183,11.393L59.404,11.393C59.781,11.393 60.096,11.249 60.348,10.96C60.599,10.672 60.725,10.304 60.725,9.859C60.725,8.951 60.251,8.497 59.301,8.497L59.183,8.497L59.183,11.393Z" style="fill:rgb(158,161,168);fill-rule:nonzero;"/>
        </g>
        <g id="text925" transform="matrix(0.881403,0,0,1.13456,0,0)">
            <path id="path927" d="M18.906,28.019L15.801,28.019L14.382,24.232C14.368,24.167 14.343,24.082 14.307,23.977C14.274,23.871 14.233,23.745 14.183,23.598L14.203,24.301L14.203,28.019L11.346,28.019L11.346,17.387L14.286,17.387C15.58,17.387 16.549,17.642 17.192,18.151C18.009,18.803 18.417,19.731 18.417,20.933C18.417,22.219 17.869,23.107 16.772,23.598L18.906,28.019ZM14.217,22.311L14.41,22.311C14.74,22.311 15.016,22.184 15.236,21.932C15.456,21.679 15.567,21.358 15.567,20.968C15.567,20.174 15.151,19.776 14.32,19.776L14.217,19.776L14.217,22.311Z" style="fill:rgb(158,161,168);fill-rule:nonzero;"/>
            <path id="path929" d="M19.857,28.019L19.857,17.387L25.193,17.387L25.193,19.887L22.728,19.887L22.728,21.436L24.938,21.436L24.938,23.839L22.728,23.839L22.728,25.464L25.193,25.464L25.193,28.019L19.857,28.019Z" style="fill:rgb(158,161,168);fill-rule:nonzero;"/>
            <path id="path931" d="M32.389,24.748L32.224,27.819C31.586,28.076 31.014,28.205 30.509,28.205C29.32,28.205 28.319,27.769 27.507,26.897C26.598,25.919 26.143,24.535 26.143,22.744C26.143,21.069 26.57,19.724 27.424,18.709C28.278,17.699 29.419,17.194 30.847,17.194C31.31,17.194 31.783,17.281 32.265,17.456L32.265,20.493C31.838,20.066 31.4,19.852 30.95,19.852C30.362,19.852 29.903,20.102 29.573,20.603C29.242,21.108 29.077,21.806 29.077,22.696C29.077,23.128 29.118,23.513 29.201,23.853C29.283,24.193 29.401,24.48 29.552,24.714C29.708,24.948 29.899,25.127 30.124,25.251C30.348,25.375 30.606,25.437 30.895,25.437C31.391,25.437 31.889,25.207 32.389,24.748Z" style="fill:rgb(158,161,168);fill-rule:nonzero;"/>
            <path id="path933" d="M41.334,22.737C41.334,24.358 40.964,25.675 40.225,26.69C39.491,27.7 38.534,28.205 37.354,28.205C36.307,28.205 35.41,27.817 34.661,27.041C33.72,26.059 33.25,24.585 33.25,22.62C33.25,20.738 33.741,19.299 34.723,18.303C35.453,17.564 36.319,17.194 37.319,17.194C38.545,17.194 39.521,17.695 40.246,18.695C40.971,19.696 41.334,21.043 41.334,22.737ZM38.352,22.758C38.352,20.835 38.013,19.873 37.333,19.873C36.993,19.873 36.723,20.125 36.521,20.63C36.323,21.099 36.225,21.787 36.225,22.696C36.225,23.591 36.316,24.287 36.5,24.783C36.688,25.274 36.948,25.519 37.278,25.519C37.618,25.519 37.879,25.276 38.063,24.789C38.256,24.303 38.352,23.626 38.352,22.758Z" style="fill:rgb(158,161,168);fill-rule:nonzero;"/>
            <path id="path935" d="M50.113,28.019L47.008,28.019L45.589,24.232C45.576,24.167 45.55,24.082 45.514,23.977C45.482,23.871 45.44,23.745 45.39,23.598L45.411,24.301L45.411,28.019L42.553,28.019L42.553,17.387L45.493,17.387C46.788,17.387 47.756,17.642 48.399,18.151C49.216,18.803 49.625,19.731 49.625,20.933C49.625,22.219 49.076,23.107 47.979,23.598L50.113,28.019ZM45.424,22.311L45.617,22.311C45.947,22.311 46.223,22.184 46.443,21.932C46.664,21.679 46.774,21.358 46.774,20.968C46.774,20.174 46.358,19.776 45.527,19.776L45.424,19.776L45.424,22.311Z" style="fill:rgb(158,161,168);fill-rule:nonzero;"/>
            <path id="path937" d="M51.064,28.019L51.064,17.387L53.543,17.387C54.961,17.387 56.065,17.768 56.855,18.53C57.892,19.526 58.411,20.92 58.411,22.71C58.411,24.473 57.973,25.834 57.096,26.793C56.348,27.61 55.232,28.019 53.749,28.019L51.064,28.019ZM53.935,25.45C54.964,25.4 55.478,24.514 55.478,22.793C55.478,21.943 55.347,21.273 55.085,20.782C54.823,20.286 54.47,20.038 54.025,20.038L53.935,20.038L53.935,25.45Z" style="fill:rgb(158,161,168);fill-rule:nonzero;"/>
            <path id="path939" d="M59.63,28.019L59.63,17.387L64.967,17.387L64.967,19.887L62.501,19.887L62.501,21.436L64.712,21.436L64.712,23.839L62.501,23.839L62.501,25.464L64.967,25.464L64.967,28.019L59.63,28.019Z" style="fill:rgb(158,161,168);fill-rule:nonzero;"/>
            <path id="path942" d="M73.746,28.019L70.641,28.019L69.222,24.232C69.208,24.167 69.183,24.082 69.146,23.977C69.114,23.871 69.073,23.745 69.022,23.598L69.043,24.301L69.043,28.019L66.185,28.019L66.185,17.387L69.126,17.387C70.42,17.387 71.389,17.642 72.031,18.151C72.849,18.803 73.257,19.731 73.257,20.933C73.257,22.219 72.709,23.107 71.611,23.598L73.746,28.019ZM69.057,22.311L69.25,22.311C69.58,22.311 69.856,22.184 70.076,21.932C70.296,21.679 70.406,21.358 70.406,20.968C70.406,20.174 69.991,19.776 69.16,19.776L69.057,19.776L69.057,22.311Z" style="fill:rgb(158,161,168);fill-rule:nonzero;"/>
        </g>
    </g>
</svg>
