<?xml version="1.0" encoding="UTF-8" standalone="no"?>
<!DOCTYPE svg PUBLIC "-//W3C//DTD SVG 1.1//EN" "http://www.w3.org/Graphics/SVG/1.1/DTD/svg11.dtd">
<svg width="100%" height="100%" viewBox="0 0 135 380" version="1.1" xmlns="http://www.w3.org/2000/svg" xmlns:xlink="http://www.w3.org/1999/xlink" xml:space="preserve" xmlns:serif="http://www.serif.com/" style="fill-rule:evenodd;clip-rule:evenodd;stroke-linejoin:round;stroke-miterlimit:2;">
    <g id="g1520">
        <g id="text989">
        </g>
        <g id="g1290" transform="matrix(2.8125,0,0,1,-624.375,0)">
            <rect id="rect1280" x="222" y="0" width="48" height="380" style="fill:rgb(44,45,48);"/>
            <g id="text1164" transform="matrix(0.835383,0,0,1.19706,-33.0673,0)">
                <path id="path1166" d="M320.742,12.192L323.209,12.192L323.209,12.583C323.209,14.545 323.037,15.87 322.693,16.558C322.354,17.263 321.719,17.615 320.788,17.615C319.826,17.615 319.141,17.223 318.732,16.44C318.327,15.657 318.125,14.341 318.125,12.492C318.125,10.377 318.347,8.97 318.791,8.269C319.208,7.612 319.85,7.284 320.716,7.284C321.377,7.284 321.893,7.443 322.263,7.76C322.637,8.082 322.928,8.611 323.137,9.346L321.871,9.875C321.814,9.609 321.751,9.387 321.682,9.209C321.612,9.026 321.536,8.885 321.453,8.785C321.288,8.58 321.04,8.478 320.709,8.478C320.257,8.478 319.948,8.757 319.783,9.313C319.617,9.896 319.534,10.943 319.534,12.453C319.534,13.98 319.619,15.013 319.789,15.553C319.959,16.092 320.279,16.362 320.748,16.362C321.179,16.362 321.482,16.171 321.656,15.788C321.834,15.379 321.923,14.722 321.923,13.817L321.923,13.543L321.923,13.34L320.742,13.34L320.742,12.192Z" style="fill:rgb(44,45,48);fill-rule:nonzero;"/>
                <path id="path1168" d="M324.566,7.414L325.924,7.414L325.924,16.342L328.143,16.342L328.143,17.491L324.566,17.491L324.566,7.414Z" style="fill:rgb(44,45,48);fill-rule:nonzero;"/>
                <path id="path1170" d="M334.049,12.701C334.049,14.48 333.851,15.744 333.455,16.493C333.059,17.241 332.396,17.615 331.465,17.615C330.486,17.615 329.796,17.213 329.396,16.408C329,15.62 328.802,14.221 328.802,12.211C328.802,10.419 328.998,9.15 329.389,8.406C329.785,7.658 330.455,7.284 331.4,7.284C332.244,7.284 332.87,7.573 333.279,8.152C333.549,8.539 333.745,9.089 333.867,9.803C333.988,10.464 334.049,11.43 334.049,12.701ZM332.627,12.844C332.627,11.1 332.548,9.942 332.392,9.372C332.235,8.798 331.915,8.511 331.432,8.511C330.949,8.511 330.627,8.774 330.466,9.3C330.31,9.831 330.231,10.897 330.231,12.498C330.231,13.973 330.314,14.996 330.479,15.566C330.649,16.105 330.967,16.375 331.432,16.375C331.889,16.375 332.202,16.123 332.372,15.618C332.542,15.118 332.627,14.193 332.627,12.844L332.627,12.844Z" style="fill:rgb(44,45,48);fill-rule:nonzero;"/>
                <path id="path1172" d="M335.4,7.414L337.241,7.414C338.681,7.414 339.401,8.308 339.401,10.097C339.401,10.78 339.307,11.287 339.12,11.617C338.933,11.948 338.603,12.198 338.128,12.368C338.672,12.585 339.044,12.864 339.244,13.203C339.449,13.538 339.551,14.043 339.551,14.717C339.551,16.567 338.759,17.491 337.175,17.491L335.4,17.491L335.4,7.414ZM336.679,11.852C337.206,11.852 337.571,11.73 337.776,11.487C337.98,11.23 338.083,10.78 338.083,10.136C338.083,9.048 337.691,8.504 336.908,8.504L336.803,8.504L336.745,8.504C336.71,8.504 336.688,8.506 336.679,8.511L336.679,11.852ZM336.679,16.329C337.236,16.329 337.621,16.21 337.835,15.97C338.048,15.731 338.154,15.298 338.154,14.672C338.154,14.028 338.043,13.577 337.822,13.321C337.604,13.06 337.223,12.929 336.679,12.929L336.679,16.329Z" style="fill:rgb(44,45,48);fill-rule:nonzero;"/>
                <path id="path1174" d="M342.397,7.414L343.454,7.414L345.614,17.491L344.27,17.491L343.891,15.527L341.894,15.527L341.509,17.491L340.204,17.491L342.397,7.414ZM343.695,14.476L343.395,12.87C343.195,11.778 343.032,10.612 342.906,9.372C342.845,9.977 342.766,10.59 342.671,11.213C342.575,11.83 342.462,12.487 342.331,13.184L342.083,14.476L343.695,14.476Z" style="fill:rgb(44,45,48);fill-rule:nonzero;"/>
                <path id="path1176" d="M346.417,7.414L347.774,7.414L347.774,16.342L349.993,16.342L349.993,17.491L346.417,17.491L346.417,7.414Z" style="fill:rgb(44,45,48);fill-rule:nonzero;"/>
            </g>
        </g>
        <g id="text4987">
        </g>
        <g id="text1042">
        </g>
        <g id="text1171">
        </g>
        <g id="text1197">
        </g>
        <g id="path991" transform="matrix(1.04644,0,0,0.955623,0,36)">
            <path d="M10.704,233.933C10.417,233.743 10.201,233.525 10.056,233.279C9.914,233.029 9.844,232.754 9.844,232.452C9.844,232.102 9.944,231.746 10.145,231.384C10.347,231.023 10.647,230.738 11.045,230.529C11.448,230.321 11.902,230.216 12.409,230.216C13.139,230.216 13.709,230.406 14.119,230.786C14.529,231.166 14.734,231.647 14.734,232.228C14.734,232.638 14.618,232.996 14.387,233.301C14.156,233.603 13.81,233.854 13.348,234.056C13.683,234.261 13.933,234.51 14.096,234.804C14.264,235.095 14.348,235.429 14.348,235.805C14.348,236.423 14.15,236.986 13.756,237.493C13.182,238.223 12.398,238.588 11.403,238.588C10.68,238.588 10.099,238.376 9.659,237.951C9.22,237.522 9,236.978 9,236.319C9,235.771 9.153,235.281 9.458,234.849C9.764,234.417 10.179,234.112 10.704,233.933L10.704,233.933ZM11.313,232.558C11.313,232.815 11.392,233.024 11.548,233.184C11.705,233.34 11.908,233.419 12.157,233.419C12.444,233.419 12.696,233.31 12.912,233.094C13.132,232.875 13.241,232.619 13.241,232.329C13.241,232.064 13.161,231.85 13.001,231.686C12.841,231.522 12.636,231.44 12.386,231.44C12.092,231.44 11.839,231.548 11.626,231.764C11.418,231.98 11.313,232.245 11.313,232.558L11.313,232.558ZM10.598,236.347C10.598,236.652 10.682,236.893 10.85,237.068C11.017,237.243 11.235,237.33 11.503,237.33C11.917,237.33 12.236,237.148 12.459,236.783C12.686,236.418 12.8,236.021 12.8,235.592C12.8,235.317 12.712,235.091 12.537,234.916C12.366,234.737 12.146,234.648 11.878,234.648C11.543,234.648 11.244,234.803 10.984,235.112C10.727,235.421 10.598,235.833 10.598,236.347L10.598,236.347Z" style="fill:rgb(158,161,168);fill-rule:nonzero;"/>
        </g>
        <rect id="rect1477" x="20" y="250" width="115" height="2" style="fill:rgb(197,200,209);"/>
        <g id="path1519" transform="matrix(0.739884,0,0,0.684035,-7.82776,136.439)">
            <path d="M23.308,299.515C23.308,298.364 23.504,297.197 23.894,296.015C24.373,294.572 24.988,293.499 25.738,292.796C26.488,292.093 27.321,291.741 28.238,291.741C29.165,291.741 29.926,292.077 30.519,292.749C31.118,293.421 31.418,294.397 31.418,295.679C31.418,296.851 31.199,298.09 30.761,299.397C30.329,300.7 29.743,301.7 29.004,302.397C28.264,303.09 27.431,303.436 26.504,303.436C25.577,303.436 24.811,303.101 24.207,302.429C23.608,301.757 23.308,300.785 23.308,299.515ZM25.511,299.968C25.511,300.582 25.61,301.015 25.808,301.265C26.006,301.515 26.261,301.64 26.574,301.64C26.991,301.64 27.36,301.447 27.683,301.062C28.116,300.546 28.498,299.53 28.832,298.015C29.097,296.812 29.23,295.858 29.23,295.155C29.23,294.582 29.129,294.171 28.926,293.921C28.728,293.666 28.472,293.538 28.16,293.538C27.764,293.538 27.413,293.728 27.105,294.108C26.652,294.66 26.261,295.632 25.933,297.022C25.652,298.226 25.511,299.207 25.511,299.968L25.511,299.968Z" style="fill:rgb(158,161,168);fill-rule:nonzero;"/>
        </g>
        <g id="path1516" transform="matrix(0.734928,0,0,0.695652,-7.67205,140.668)">
            <path d="M26.511,255.657L24.316,255.329C24.493,254.267 24.905,253.454 25.551,252.892C26.202,252.324 27.014,252.04 27.988,252.04C29.056,252.04 29.894,252.329 30.504,252.907C31.113,253.486 31.418,254.22 31.418,255.111C31.418,255.564 31.324,256.019 31.136,256.478C30.949,256.931 30.642,257.407 30.215,257.907C29.907,258.262 29.405,258.764 28.707,259.415C28.009,260.061 27.545,260.504 27.316,260.743C27.092,260.978 26.876,261.228 26.668,261.493L30.636,261.493L30.215,263.54L23.254,263.54C23.327,262.978 23.491,262.444 23.746,261.939C24.006,261.428 24.329,260.954 24.715,260.517C25.1,260.079 25.806,259.374 26.832,258.4C27.603,257.66 28.09,257.178 28.293,256.954C28.657,256.548 28.907,256.196 29.043,255.9C29.178,255.603 29.246,255.334 29.246,255.095C29.246,254.709 29.131,254.397 28.902,254.157C28.678,253.918 28.392,253.798 28.043,253.798C27.689,253.798 27.379,253.933 27.113,254.204C26.847,254.47 26.647,254.954 26.511,255.657L26.511,255.657Z" style="fill:rgb(158,161,168);fill-rule:nonzero;"/>
        </g>
        <g id="path1513" transform="matrix(0.703941,0,0,0.698499,-6.69851,148.445)">
            <path d="M27.402,220.364L22.894,220.364L23.285,218.489L29.48,211.246L31.418,211.246L29.91,218.457L31.301,218.457L30.902,220.364L29.511,220.364L29.019,222.7L26.91,222.7L27.402,220.364ZM27.801,218.457L28.543,214.887L25.519,218.457L27.801,218.457Z" style="fill:rgb(158,161,168);fill-rule:nonzero;"/>
        </g>
        <g id="path1510" transform="matrix(0.758144,0,0,0.683578,-8.40144,159.298)">
            <path d="M31.418,173.567L29.316,173.738C29.274,173.285 29.165,172.968 28.988,172.785C28.816,172.603 28.582,172.512 28.285,172.512C27.905,172.512 27.566,172.663 27.269,172.965C26.847,173.397 26.509,174.095 26.254,175.059C26.738,174.741 27.251,174.582 27.793,174.582C28.678,174.582 29.407,174.884 29.98,175.488C30.553,176.093 30.84,176.916 30.84,177.957C30.84,178.785 30.639,179.569 30.238,180.309C29.837,181.043 29.337,181.58 28.738,181.918C28.139,182.257 27.506,182.426 26.84,182.426C26.199,182.426 25.621,182.267 25.105,181.949C24.595,181.626 24.199,181.158 23.918,180.543C23.642,179.929 23.504,179.106 23.504,178.074C23.504,176.028 23.957,174.291 24.863,172.863C25.769,171.436 26.965,170.723 28.449,170.723C29.303,170.723 29.983,170.957 30.488,171.426C30.993,171.895 31.303,172.608 31.418,173.567ZM25.66,178.856C25.66,179.46 25.78,179.905 26.019,180.192C26.259,180.478 26.556,180.621 26.91,180.621C27.347,180.621 27.722,180.418 28.035,180.012C28.457,179.465 28.668,178.731 28.668,177.809C28.668,177.215 28.551,176.778 28.316,176.496C28.082,176.21 27.795,176.067 27.457,176.067C27.17,176.067 26.881,176.176 26.59,176.395C26.298,176.608 26.069,176.952 25.902,177.426C25.741,177.895 25.66,178.371 25.66,178.856L25.66,178.856Z" style="fill:rgb(158,161,168);fill-rule:nonzero;"/>
        </g>
        <g id="text1501" transform="matrix(0.743106,0,0,0.682667,-7.92897,146.928)">
            <path id="path1505" d="M15.269,135.422L15.691,133.422C17.623,132.578 19.118,131.596 20.176,130.477L21.543,130.477L19.129,142L16.871,142L18.535,134.063C18.066,134.365 17.524,134.641 16.91,134.891C16.301,135.141 15.754,135.318 15.269,135.422Z" style="fill:rgb(158,161,168);fill-rule:nonzero;"/>
            <path id="path1507" d="M23.308,138.273C23.308,137.122 23.504,135.956 23.894,134.773C24.373,133.331 24.988,132.258 25.738,131.555C26.488,130.852 27.321,130.5 28.238,130.5C29.165,130.5 29.926,130.836 30.519,131.508C31.118,132.18 31.418,133.156 31.418,134.438C31.418,135.609 31.199,136.849 30.761,138.156C30.329,139.458 29.743,140.458 29.004,141.156C28.264,141.849 27.431,142.195 26.504,142.195C25.577,142.195 24.811,141.859 24.207,141.188C23.608,140.516 23.308,139.544 23.308,138.273ZM25.511,138.727C25.511,139.341 25.61,139.773 25.808,140.023C26.006,140.273 26.261,140.398 26.574,140.398C26.991,140.398 27.36,140.206 27.683,139.82C28.116,139.305 28.498,138.289 28.832,136.773C29.097,135.57 29.23,134.617 29.23,133.914C29.23,133.341 29.129,132.93 28.926,132.68C28.728,132.424 28.472,132.297 28.16,132.297C27.764,132.297 27.413,132.487 27.105,132.867C26.652,133.419 26.261,134.391 25.933,135.781C25.652,136.984 25.511,137.966 25.511,138.727Z" style="fill:rgb(158,161,168);fill-rule:nonzero;"/>
        </g>
        <rect id="rect1503" x="20" y="240" width="115" height="2" style="fill:rgb(158,161,168);"/>
        <rect id="rect947" x="20" y="270" width="115" height="2" style="fill:rgb(197,200,209);"/>
        <rect id="rect949" x="20" y="260" width="115" height="2" style="fill:rgb(158,161,168);"/>
        <rect id="rect951" x="20" y="290" width="115" height="2" style="fill:rgb(197,200,209);"/>
        <rect id="rect953" x="20" y="280" width="115" height="2" style="fill:rgb(158,161,168);"/>
        <rect id="rect955" x="20" y="310" width="115" height="2" style="fill:rgb(197,200,209);"/>
        <rect id="rect957" x="20" y="300" width="115" height="2" style="fill:rgb(158,161,168);"/>
        <rect id="rect983" x="20" y="330" width="115" height="2" style="fill:rgb(197,200,209);"/>
        <rect id="rect985" x="20" y="320" width="115" height="2" style="fill:rgb(158,161,168);"/>
        <rect id="rect989" x="20" y="340" width="115" height="2" style="fill:rgb(158,161,168);"/>
        <g id="text1132" transform="matrix(0.609672,0,0,1.31561,22.5,74.8088)">
            <path id="path1217" d="M6.282,230.32L5.161,230.32L3.582,226.393L2.761,230.32L1.64,230.32L2.86,224.475L3.985,224.475L5.568,228.386L6.385,224.475L7.502,224.475L6.282,230.32Z" style="fill:rgb(158,161,168);fill-rule:nonzero;"/>
            <path id="path1226" d="M10.448,230.32L9.248,230.32L9.723,228.044L8.112,224.475L9.392,224.475L10.117,226.126C10.29,226.522 10.406,226.807 10.464,226.983C10.563,226.81 10.677,226.627 10.807,226.433L11.362,225.659L12.187,224.475L13.582,224.475L10.903,228.155L10.448,230.32Z" style="fill:rgb(158,161,168);fill-rule:nonzero;"/>
            <path id="path1235" d="M13.148,228.426L14.292,228.367C14.308,228.731 14.371,228.977 14.48,229.104C14.655,229.312 14.979,229.415 15.453,229.415C15.846,229.415 16.13,229.345 16.306,229.204C16.481,229.063 16.569,228.893 16.569,228.693C16.569,228.521 16.497,228.374 16.354,228.255C16.253,228.167 15.975,228.025 15.52,227.828C15.068,227.632 14.738,227.468 14.528,227.338C14.32,227.205 14.157,227.033 14.037,226.823C13.917,226.613 13.858,226.367 13.858,226.086C13.858,225.594 14.036,225.186 14.392,224.862C14.748,224.537 15.264,224.375 15.939,224.375C16.625,224.375 17.155,224.536 17.53,224.858C17.908,225.179 18.115,225.607 18.152,226.142L17,226.193C16.97,225.914 16.869,225.7 16.697,225.551C16.524,225.403 16.269,225.328 15.931,225.328C15.599,225.328 15.361,225.387 15.217,225.504C15.076,225.621 15.006,225.768 15.006,225.946C15.006,226.114 15.071,226.252 15.201,226.361C15.332,226.473 15.62,226.625 16.067,226.819C16.739,227.109 17.167,227.344 17.351,227.525C17.624,227.791 17.761,228.133 17.761,228.55C17.761,229.066 17.557,229.507 17.147,229.874C16.741,230.238 16.173,230.42 15.445,230.42C14.942,230.42 14.506,230.336 14.137,230.169C13.77,229.999 13.511,229.763 13.359,229.463C13.208,229.163 13.137,228.817 13.148,228.426L13.148,228.426Z" style="fill:rgb(158,161,168);fill-rule:nonzero;"/>
            <path id="path1242" d="M20.963,230.32L19.759,230.32L20.78,225.452L19.065,225.452L19.269,224.475L23.874,224.475L23.671,225.452L21.98,225.452L20.963,230.32Z" style="fill:rgb(158,161,168);fill-rule:nonzero;"/>
            <path id="path1255" d="M27.443,227.709L25.182,227.709L24.636,230.32L23.431,230.32L24.656,224.475L25.856,224.475L25.385,226.732L27.646,226.732L28.121,224.475L29.321,224.475L28.101,230.32L26.896,230.32L27.443,227.709Z" style="fill:rgb(158,161,168);fill-rule:nonzero;"/>
            <path id="path1261" d="M29.261,230.32L30.485,224.475L31.685,224.475L30.465,230.32L29.261,230.32Z" style="fill:rgb(158,161,168);fill-rule:nonzero;"/>
            <path id="path1263" d="M38.448,227.776L39.273,228.271C39.196,228.42 39.095,228.582 38.97,228.757C38.848,228.93 38.734,229.066 38.627,229.164C38.779,229.326 38.973,229.507 39.21,229.706L38.488,230.456C38.397,230.408 38.282,230.327 38.141,230.213C38.003,230.098 37.886,229.991 37.79,229.89C37.599,230.041 37.358,230.167 37.068,230.268C36.779,230.369 36.466,230.42 36.131,230.42C35.525,230.42 35.049,230.261 34.704,229.942C34.358,229.62 34.185,229.226 34.185,228.761C34.185,228.466 34.253,228.192 34.389,227.94C34.527,227.685 34.705,227.467 34.923,227.286C35.08,227.156 35.335,226.996 35.689,226.807C35.516,226.433 35.429,226.106 35.429,225.827C35.429,225.417 35.578,225.073 35.876,224.794C36.176,224.515 36.571,224.375 37.06,224.375C37.48,224.375 37.813,224.487 38.057,224.71C38.304,224.931 38.428,225.19 38.428,225.488C38.428,225.74 38.322,226.014 38.109,226.309C37.899,226.601 37.552,226.87 37.068,227.114C37.22,227.37 37.409,227.662 37.635,227.992C37.77,228.194 37.879,228.339 37.961,228.426C38.097,228.291 38.259,228.074 38.448,227.776ZM36.654,226.333C36.967,226.173 37.188,226.013 37.316,225.85C37.406,225.733 37.451,225.615 37.451,225.496C37.451,225.387 37.414,225.298 37.339,225.228C37.268,225.157 37.168,225.121 37.04,225.121C36.881,225.121 36.748,225.177 36.642,225.288C36.535,225.397 36.482,225.541 36.482,225.719C36.482,225.889 36.539,226.094 36.654,226.333L36.654,226.333ZM36.103,227.613C35.577,227.876 35.314,228.223 35.314,228.654C35.314,228.898 35.392,229.099 35.549,229.256C35.706,229.413 35.915,229.491 36.175,229.491C36.491,229.491 36.817,229.381 37.152,229.16C36.751,228.671 36.401,228.155 36.103,227.613Z" style="fill:rgb(158,161,168);fill-rule:nonzero;"/>
            <path id="path1265" d="M42.029,230.32L43.253,224.475L44.828,224.475C45.266,224.475 45.547,224.481 45.669,224.495C45.911,224.519 46.126,224.568 46.315,224.642C46.506,224.717 46.679,224.822 46.833,224.957C46.99,225.09 47.125,225.251 47.236,225.44C47.35,225.629 47.438,225.847 47.499,226.094C47.56,226.338 47.591,226.607 47.591,226.899C47.591,227.529 47.47,228.089 47.228,228.578C46.989,229.064 46.687,229.451 46.323,229.738C46.044,229.962 45.684,230.126 45.242,230.233C44.993,230.291 44.608,230.32 44.09,230.32L42.029,230.32ZM43.428,229.379L44.038,229.379C44.48,229.379 44.799,229.353 44.995,229.3C45.195,229.244 45.377,229.141 45.542,228.993C45.778,228.777 45.977,228.49 46.14,228.131C46.302,227.772 46.383,227.35 46.383,226.863C46.383,226.449 46.315,226.138 46.18,225.93C46.047,225.72 45.882,225.581 45.685,225.512C45.547,225.464 45.301,225.44 44.947,225.44L44.25,225.44L43.428,229.379Z" style="fill:rgb(158,161,168);fill-rule:nonzero;"/>
            <path id="path1268" d="M47.858,230.32L49.082,224.475L50.283,224.475L49.062,230.32L47.858,230.32Z" style="fill:rgb(158,161,168);fill-rule:nonzero;"/>
            <path id="path1270" d="M50.358,228.426L51.503,228.367C51.519,228.731 51.581,228.977 51.69,229.104C51.866,229.312 52.19,229.415 52.663,229.415C53.056,229.415 53.341,229.345 53.516,229.204C53.692,229.063 53.78,228.893 53.78,228.693C53.78,228.521 53.708,228.374 53.564,228.255C53.463,228.167 53.185,228.025 52.731,227.828C52.279,227.632 51.948,227.468 51.738,227.338C51.531,227.205 51.367,227.033 51.248,226.823C51.128,226.613 51.068,226.367 51.068,226.086C51.068,225.594 51.246,225.186 51.602,224.862C51.959,224.537 52.474,224.375 53.149,224.375C53.835,224.375 54.366,224.536 54.74,224.858C55.118,225.179 55.325,225.607 55.362,226.142L54.21,226.193C54.181,225.914 54.08,225.7 53.907,225.551C53.734,225.403 53.479,225.328 53.142,225.328C52.809,225.328 52.571,225.387 52.428,225.504C52.287,225.621 52.216,225.768 52.216,225.946C52.216,226.114 52.282,226.252 52.412,226.361C52.542,226.473 52.831,226.625 53.277,226.819C53.95,227.109 54.378,227.344 54.561,227.525C54.835,227.791 54.972,228.133 54.972,228.55C54.972,229.066 54.767,229.507 54.358,229.874C53.951,230.238 53.383,230.42 52.655,230.42C52.153,230.42 51.717,230.336 51.347,230.169C50.98,229.999 50.721,229.763 50.57,229.463C50.418,229.163 50.348,228.817 50.358,228.426L50.358,228.426Z" style="fill:rgb(158,161,168);fill-rule:nonzero;"/>
            <path id="path1272" d="M55.813,228.426L56.957,228.367C56.973,228.731 57.036,228.977 57.145,229.104C57.32,229.312 57.645,229.415 58.118,229.415C58.511,229.415 58.796,229.345 58.971,229.204C59.147,229.063 59.234,228.893 59.234,228.693C59.234,228.521 59.163,228.374 59.019,228.255C58.918,228.167 58.64,228.025 58.186,227.828C57.734,227.632 57.403,227.468 57.193,227.338C56.985,227.205 56.822,227.033 56.702,226.823C56.583,226.613 56.523,226.367 56.523,226.086C56.523,225.594 56.701,225.186 57.057,224.862C57.413,224.537 57.929,224.375 58.604,224.375C59.29,224.375 59.82,224.536 60.195,224.858C60.573,225.179 60.78,225.607 60.817,226.142L59.665,226.193C59.636,225.914 59.535,225.7 59.362,225.551C59.189,225.403 58.934,225.328 58.596,225.328C58.264,225.328 58.026,225.387 57.883,225.504C57.742,225.621 57.671,225.768 57.671,225.946C57.671,226.114 57.736,226.252 57.867,226.361C57.997,226.473 58.285,226.625 58.732,226.819C59.404,227.109 59.832,227.344 60.016,227.525C60.29,227.791 60.427,228.133 60.427,228.55C60.427,229.066 60.222,229.507 59.812,229.874C59.406,230.238 58.838,230.42 58.11,230.42C57.607,230.42 57.171,230.336 56.802,230.169C56.435,229.999 56.176,229.763 56.024,229.463C55.873,229.163 55.802,228.817 55.813,228.426L55.813,228.426Z" style="fill:rgb(158,161,168);fill-rule:nonzero;"/>
            <path id="path1274" d="M61.463,228.028C61.463,227.682 61.515,227.318 61.619,226.935C61.754,226.422 61.96,225.977 62.237,225.599C62.516,225.222 62.867,224.924 63.289,224.706C63.712,224.485 64.193,224.375 64.733,224.375C65.456,224.375 66.039,224.6 66.483,225.049C66.93,225.498 67.153,226.094 67.153,226.835C67.153,227.452 67.008,228.049 66.719,228.626C66.429,229.202 66.035,229.646 65.538,229.957C65.041,230.268 64.479,230.424 63.852,230.424C63.307,230.424 62.85,230.3 62.48,230.053C62.111,229.806 61.849,229.5 61.695,229.136C61.54,228.769 61.463,228.4 61.463,228.028L61.463,228.028ZM62.651,228.004C62.651,228.405 62.774,228.741 63.018,229.013C63.263,229.284 63.585,229.419 63.983,229.419C64.308,229.419 64.619,229.313 64.916,229.1C65.217,228.885 65.464,228.561 65.658,228.127C65.855,227.691 65.953,227.267 65.953,226.855C65.953,226.395 65.829,226.035 65.582,225.775C65.335,225.512 65.02,225.38 64.637,225.38C64.05,225.38 63.571,225.654 63.202,226.201C62.835,226.749 62.651,227.35 62.651,228.004L62.651,228.004Z" style="fill:rgb(158,161,168);fill-rule:nonzero;"/>
            <path id="path1276" d="M71.667,228.215L72.879,228.398C72.643,229.055 72.288,229.557 71.815,229.906C71.341,230.251 70.787,230.424 70.152,230.424C69.437,230.424 68.877,230.209 68.473,229.778C68.072,229.347 67.871,228.723 67.871,227.904C67.871,227.239 68.005,226.632 68.274,226.082C68.545,225.529 68.92,225.106 69.398,224.814C69.877,224.521 70.398,224.375 70.961,224.375C71.594,224.375 72.106,224.545 72.496,224.885C72.887,225.223 73.117,225.684 73.186,226.269L72.034,226.381C71.97,226.041 71.846,225.795 71.663,225.643C71.482,225.489 71.24,225.412 70.937,225.412C70.605,225.412 70.294,225.513 70.004,225.715C69.717,225.917 69.487,226.233 69.314,226.664C69.142,227.092 69.055,227.52 69.055,227.948C69.055,228.416 69.167,228.777 69.39,229.032C69.616,229.288 69.897,229.415 70.232,229.415C70.543,229.415 70.827,229.314 71.085,229.112C71.345,228.91 71.539,228.611 71.667,228.215L71.667,228.215Z" style="fill:rgb(158,161,168);fill-rule:nonzero;"/>
            <path id="path1278" d="M73.282,230.32L74.506,224.475L75.706,224.475L74.486,230.32L73.282,230.32Z" style="fill:rgb(158,161,168);fill-rule:nonzero;"/>
            <path id="path1281" d="M79.426,229.028L77.11,229.028L76.408,230.32L75.172,230.32L78.477,224.475L79.813,224.475L80.762,230.32L79.622,230.32L79.426,229.028ZM79.279,228.055L78.94,225.703L77.528,228.055L79.279,228.055Z" style="fill:rgb(158,161,168);fill-rule:nonzero;"/>
            <path id="path1283" d="M83.438,230.32L82.234,230.32L83.254,225.452L81.54,225.452L81.743,224.475L86.349,224.475L86.145,225.452L84.455,225.452L83.438,230.32Z" style="fill:rgb(158,161,168);fill-rule:nonzero;"/>
            <path id="path1285" d="M85.886,230.32L87.106,224.475L91.441,224.475L91.237,225.452L88.107,225.452L87.828,226.78L90.854,226.78L90.651,227.756L87.625,227.756L87.258,229.343L90.659,229.343L90.452,230.32L85.886,230.32Z" style="fill:rgb(158,161,168);fill-rule:nonzero;"/>
            <path id="path1287" d="M91.524,228.426L92.669,228.367C92.685,228.731 92.747,228.977 92.856,229.104C93.032,229.312 93.356,229.415 93.829,229.415C94.222,229.415 94.507,229.345 94.682,229.204C94.858,229.063 94.945,228.893 94.945,228.693C94.945,228.521 94.874,228.374 94.73,228.255C94.629,228.167 94.351,228.025 93.897,227.828C93.445,227.632 93.114,227.468 92.904,227.338C92.697,227.205 92.533,227.033 92.413,226.823C92.294,226.613 92.234,226.367 92.234,226.086C92.234,225.594 92.412,225.186 92.768,224.862C93.125,224.537 93.64,224.375 94.315,224.375C95.001,224.375 95.532,224.536 95.906,224.858C96.284,225.179 96.491,225.607 96.528,226.142L95.376,226.193C95.347,225.914 95.246,225.7 95.073,225.551C94.9,225.403 94.645,225.328 94.307,225.328C93.975,225.328 93.737,225.387 93.594,225.504C93.453,225.621 93.382,225.768 93.382,225.946C93.382,226.114 93.448,226.252 93.578,226.361C93.708,226.473 93.996,226.625 94.443,226.819C95.116,227.109 95.544,227.344 95.727,227.525C96.001,227.791 96.138,228.133 96.138,228.55C96.138,229.066 95.933,229.507 95.524,229.874C95.117,230.238 94.549,230.42 93.821,230.42C93.319,230.42 92.883,230.336 92.513,230.169C92.146,229.999 91.887,229.763 91.736,229.463C91.584,229.163 91.514,228.817 91.524,228.426L91.524,228.426Z" style="fill:rgb(158,161,168);fill-rule:nonzero;"/>
            <path id="path1289" d="M99.272,227.661L101.493,227.661L101.261,228.765L99.041,228.765L99.272,227.661Z" style="fill:rgb(158,161,168);fill-rule:nonzero;"/>
            <path id="path1291" d="M104.236,228.426L105.38,228.367C105.396,228.731 105.459,228.977 105.568,229.104C105.743,229.312 106.068,229.415 106.541,229.415C106.934,229.415 107.219,229.345 107.394,229.204C107.57,229.063 107.657,228.893 107.657,228.693C107.657,228.521 107.586,228.374 107.442,228.255C107.341,228.167 107.063,228.025 106.609,227.828C106.157,227.632 105.826,227.468 105.616,227.338C105.408,227.205 105.245,227.033 105.125,226.823C105.006,226.613 104.946,226.367 104.946,226.086C104.946,225.594 105.124,225.186 105.48,224.862C105.836,224.537 106.352,224.375 107.027,224.375C107.713,224.375 108.243,224.536 108.618,224.858C108.996,225.179 109.203,225.607 109.24,226.142L108.088,226.193C108.059,225.914 107.958,225.7 107.785,225.551C107.612,225.403 107.357,225.328 107.019,225.328C106.687,225.328 106.449,225.387 106.306,225.504C106.165,225.621 106.094,225.768 106.094,225.946C106.094,226.114 106.159,226.252 106.29,226.361C106.42,226.473 106.708,226.625 107.155,226.819C107.827,227.109 108.255,227.344 108.439,227.525C108.713,227.791 108.85,228.133 108.85,228.55C108.85,229.066 108.645,229.507 108.235,229.874C107.829,230.238 107.261,230.42 106.533,230.42C106.03,230.42 105.595,230.336 105.225,230.169C104.858,229.999 104.599,229.763 104.447,229.463C104.296,229.163 104.225,228.817 104.236,228.426L104.236,228.426Z" style="fill:rgb(158,161,168);fill-rule:nonzero;"/>
            <path id="path1293" d="M112.761,227.198L115.377,227.198L114.851,229.706C114.542,229.906 114.163,230.074 113.714,230.213C113.268,230.351 112.812,230.42 112.346,230.42C111.623,230.42 111.069,230.257 110.684,229.93C110.157,229.483 109.894,228.836 109.894,227.988C109.894,227.419 110.007,226.874 110.233,226.353C110.504,225.726 110.89,225.239 111.389,224.893C111.889,224.548 112.477,224.375 113.152,224.375C113.827,224.375 114.368,224.532 114.775,224.846C115.184,225.159 115.455,225.617 115.588,226.217L114.468,226.345C114.369,226.015 114.21,225.767 113.989,225.599C113.771,225.432 113.496,225.348 113.164,225.348C112.776,225.348 112.42,225.449 112.095,225.651C111.771,225.853 111.517,226.165 111.334,226.588C111.15,227.011 111.058,227.472 111.058,227.972C111.058,228.463 111.17,228.828 111.393,229.064C111.617,229.298 111.944,229.415 112.374,229.415C112.632,229.415 112.897,229.379 113.168,229.308C113.439,229.233 113.673,229.145 113.87,229.044L114.049,228.175L112.558,228.175L112.761,227.198Z" style="fill:rgb(158,161,168);fill-rule:nonzero;"/>
            <path id="path1295" d="M119.683,229.028L117.367,229.028L116.665,230.32L115.429,230.32L118.734,224.475L120.07,224.475L121.019,230.32L119.879,230.32L119.683,229.028ZM119.536,228.055L119.197,225.703L117.785,228.055L119.536,228.055Z" style="fill:rgb(158,161,168);fill-rule:nonzero;"/>
            <path id="path1297" d="M125.991,228.215L127.204,228.398C126.967,229.055 126.612,229.557 126.139,229.906C125.666,230.251 125.111,230.424 124.476,230.424C123.761,230.424 123.202,230.209 122.797,229.778C122.396,229.347 122.195,228.723 122.195,227.904C122.195,227.239 122.33,226.632 122.598,226.082C122.869,225.529 123.244,225.106 123.723,224.814C124.201,224.521 124.722,224.375 125.286,224.375C125.918,224.375 126.43,224.545 126.821,224.885C127.212,225.223 127.441,225.684 127.511,226.269L126.358,226.381C126.294,226.041 126.171,225.795 125.987,225.643C125.807,225.489 125.565,225.412 125.262,225.412C124.929,225.412 124.618,225.513 124.329,225.715C124.042,225.917 123.812,226.233 123.639,226.664C123.466,227.092 123.38,227.52 123.38,227.948C123.38,228.416 123.491,228.777 123.715,229.032C123.94,229.288 124.221,229.415 124.556,229.415C124.867,229.415 125.151,229.314 125.409,229.112C125.67,228.91 125.864,228.611 125.991,228.215Z" style="fill:rgb(158,161,168);fill-rule:nonzero;"/>
            <path id="path1299" d="M130.134,227.661L132.355,227.661L132.124,228.765L129.903,228.765L130.134,227.661Z" style="fill:rgb(158,161,168);fill-rule:nonzero;"/>
            <path id="path1301" d="M139.588,230.32L138.468,230.32L136.889,226.393L136.068,230.32L134.947,230.32L136.167,224.475L137.292,224.475L138.875,228.386L139.692,224.475L140.809,224.475L139.588,230.32Z" style="fill:rgb(158,161,168);fill-rule:nonzero;"/>
            <path id="path1303" d="M144.644,229.028L142.328,229.028L141.626,230.32L140.39,230.32L143.695,224.475L145.031,224.475L145.98,230.32L144.84,230.32L144.644,229.028ZM144.497,228.055L144.158,225.703L142.746,228.055L144.497,228.055Z" style="fill:rgb(158,161,168);fill-rule:nonzero;"/>
        </g>
        <g id="text1146" transform="matrix(0.688433,0,0,1.27827,17.32,0)">
            <path id="path1178" d="M113.858,279.346L115.113,279.536C114.868,280.215 114.501,280.735 114.011,281.095C113.521,281.453 112.948,281.632 112.291,281.632C111.551,281.632 110.972,281.409 110.554,280.963C110.138,280.518 109.931,279.871 109.931,279.024C109.931,278.337 110.07,277.708 110.347,277.139C110.628,276.567 111.016,276.13 111.511,275.827C112.006,275.524 112.545,275.373 113.128,275.373C113.783,275.373 114.312,275.549 114.716,275.901C115.121,276.251 115.359,276.728 115.43,277.333L114.238,277.448C114.172,277.096 114.044,276.842 113.854,276.685C113.667,276.526 113.417,276.446 113.103,276.446C112.76,276.446 112.438,276.55 112.138,276.759C111.841,276.968 111.603,277.296 111.424,277.741C111.245,278.184 111.156,278.627 111.156,279.07C111.156,279.554 111.272,279.928 111.503,280.192C111.736,280.456 112.027,280.588 112.373,280.588C112.695,280.588 112.989,280.483 113.256,280.274C113.526,280.065 113.726,279.756 113.858,279.346L113.858,279.346Z" style="fill:rgb(158,161,168);fill-rule:nonzero;"/>
            <path id="path1180" d="M118.607,281.524L117.278,281.524L116.193,275.476L117.435,275.476L118.203,280.052L120.707,275.476L121.94,275.476L118.607,281.524Z" style="fill:rgb(158,161,168);fill-rule:nonzero;"/>
            <path id="path1182" d="M123.962,279.152C123.962,278.795 124.015,278.418 124.123,278.022C124.263,277.491 124.476,277.03 124.762,276.64C125.051,276.249 125.414,275.941 125.851,275.716C126.289,275.487 126.786,275.373 127.345,275.373C128.093,275.373 128.697,275.606 129.156,276.07C129.618,276.535 129.849,277.151 129.849,277.919C129.849,278.557 129.699,279.174 129.399,279.771C129.1,280.368 128.692,280.827 128.178,281.149C127.664,281.471 127.082,281.632 126.433,281.632C125.869,281.632 125.396,281.504 125.014,281.248C124.632,280.992 124.361,280.676 124.201,280.299C124.042,279.92 123.962,279.537 123.962,279.152L123.962,279.152ZM125.191,279.128C125.191,279.543 125.318,279.891 125.571,280.171C125.824,280.452 126.157,280.592 126.569,280.592C126.905,280.592 127.227,280.482 127.535,280.262C127.845,280.039 128.101,279.704 128.302,279.256C128.505,278.805 128.607,278.366 128.607,277.94C128.607,277.464 128.479,277.091 128.224,276.822C127.968,276.549 127.642,276.413 127.246,276.413C126.638,276.413 126.143,276.696 125.761,277.263C125.381,277.83 125.191,278.451 125.191,279.128L125.191,279.128Z" style="fill:rgb(158,161,168);fill-rule:nonzero;"/>
            <path id="path1184" d="M131.404,275.476L132.646,275.476L131.961,278.76L131.792,279.569C131.781,279.638 131.776,279.702 131.776,279.763C131.776,280.002 131.862,280.2 132.035,280.357C132.212,280.511 132.466,280.588 132.799,280.588C133.098,280.588 133.346,280.532 133.541,280.419C133.737,280.306 133.888,280.138 133.995,279.915C134.102,279.693 134.211,279.315 134.321,278.781L135.014,275.476L136.256,275.476L135.567,278.785C135.421,279.481 135.253,280.013 135.064,280.382C134.874,280.75 134.586,281.05 134.201,281.281C133.816,281.512 133.33,281.628 132.741,281.628C132.037,281.628 131.498,281.456 131.124,281.112C130.75,280.765 130.563,280.321 130.563,279.779C130.563,279.667 130.572,279.544 130.591,279.412C130.602,279.324 130.651,279.074 130.736,278.661L131.404,275.476Z" style="fill:rgb(158,161,168);fill-rule:nonzero;"/>
            <path id="path1186" d="M138.876,281.524L137.63,281.524L138.686,276.487L136.912,276.487L137.122,275.476L141.887,275.476L141.677,276.487L139.928,276.487L138.876,281.524Z" style="fill:rgb(158,161,168);fill-rule:nonzero;"/>
        </g>
        <rect id="rect1212" x="0" y="367" width="135" height="1" style="fill:rgb(158,161,168);"/>
        <rect id="rect1232" x="0" y="193" width="135" height="1" style="fill:rgb(36,100,211);"/>
        <rect id="rect1234" x="0" y="19" width="135" height="1" style="fill:rgb(158,161,168);"/>
        <g id="path1236" transform="matrix(1.04644,0,0,0.955623,0,-138)">
            <path d="M10.704,233.933C10.417,233.743 10.201,233.525 10.056,233.279C9.914,233.029 9.844,232.754 9.844,232.452C9.844,232.102 9.944,231.746 10.145,231.384C10.347,231.023 10.647,230.738 11.045,230.529C11.448,230.321 11.902,230.216 12.409,230.216C13.139,230.216 13.709,230.406 14.119,230.786C14.529,231.166 14.734,231.647 14.734,232.228C14.734,232.638 14.618,232.996 14.387,233.301C14.156,233.603 13.81,233.854 13.348,234.056C13.683,234.261 13.933,234.51 14.096,234.804C14.264,235.095 14.348,235.429 14.348,235.805C14.348,236.423 14.15,236.986 13.756,237.493C13.182,238.223 12.398,238.588 11.403,238.588C10.68,238.588 10.099,238.376 9.659,237.951C9.22,237.522 9,236.978 9,236.319C9,235.771 9.153,235.281 9.458,234.849C9.764,234.417 10.179,234.112 10.704,233.933L10.704,233.933ZM11.313,232.558C11.313,232.815 11.392,233.024 11.548,233.184C11.705,233.34 11.908,233.419 12.157,233.419C12.444,233.419 12.696,233.31 12.912,233.094C13.132,232.875 13.241,232.619 13.241,232.329C13.241,232.064 13.161,231.85 13.001,231.686C12.841,231.522 12.636,231.44 12.386,231.44C12.092,231.44 11.839,231.548 11.626,231.764C11.418,231.98 11.313,232.245 11.313,232.558L11.313,232.558ZM10.598,236.347C10.598,236.652 10.682,236.893 10.85,237.068C11.017,237.243 11.235,237.33 11.503,237.33C11.917,237.33 12.236,237.148 12.459,236.783C12.686,236.418 12.8,236.021 12.8,235.592C12.8,235.317 12.712,235.091 12.537,234.916C12.366,234.737 12.146,234.648 11.878,234.648C11.543,234.648 11.244,234.803 10.984,235.112C10.727,235.421 10.598,235.833 10.598,236.347L10.598,236.347Z" style="fill:rgb(158,161,168);fill-rule:nonzero;"/>
        </g>
        <rect id="rect1240" x="20" y="76" width="115" height="2" style="fill:rgb(197,200,209);"/>
        <g id="path1243" transform="matrix(0.739884,0,0,0.684035,-7.82776,-37.5611)">
            <path d="M23.308,299.515C23.308,298.364 23.504,297.197 23.894,296.015C24.373,294.572 24.988,293.499 25.738,292.796C26.488,292.093 27.321,291.741 28.238,291.741C29.165,291.741 29.926,292.077 30.519,292.749C31.118,293.421 31.418,294.397 31.418,295.679C31.418,296.851 31.199,298.09 30.761,299.397C30.329,300.7 29.743,301.7 29.004,302.397C28.264,303.09 27.431,303.436 26.504,303.436C25.577,303.436 24.811,303.101 24.207,302.429C23.608,301.757 23.308,300.785 23.308,299.515ZM25.511,299.968C25.511,300.582 25.61,301.015 25.808,301.265C26.006,301.515 26.261,301.64 26.574,301.64C26.991,301.64 27.36,301.447 27.683,301.062C28.116,300.546 28.498,299.53 28.832,298.015C29.097,296.812 29.23,295.858 29.23,295.155C29.23,294.582 29.129,294.171 28.926,293.921C28.728,293.666 28.472,293.538 28.16,293.538C27.764,293.538 27.413,293.728 27.105,294.108C26.652,294.66 26.261,295.632 25.933,297.022C25.652,298.226 25.511,299.207 25.511,299.968L25.511,299.968Z" style="fill:rgb(158,161,168);fill-rule:nonzero;"/>
        </g>
        <g id="path1247" transform="matrix(0.734928,0,0,0.695652,-7.67205,-33.3322)">
            <path d="M26.511,255.657L24.316,255.329C24.493,254.267 24.905,253.454 25.551,252.892C26.202,252.324 27.014,252.04 27.988,252.04C29.056,252.04 29.894,252.329 30.504,252.907C31.113,253.486 31.418,254.22 31.418,255.111C31.418,255.564 31.324,256.019 31.136,256.478C30.949,256.931 30.642,257.407 30.215,257.907C29.907,258.262 29.405,258.764 28.707,259.415C28.009,260.061 27.545,260.504 27.316,260.743C27.092,260.978 26.876,261.228 26.668,261.493L30.636,261.493L30.215,263.54L23.254,263.54C23.327,262.978 23.491,262.444 23.746,261.939C24.006,261.428 24.329,260.954 24.715,260.517C25.1,260.079 25.806,259.374 26.832,258.4C27.603,257.66 28.09,257.178 28.293,256.954C28.657,256.548 28.907,256.196 29.043,255.9C29.178,255.603 29.246,255.334 29.246,255.095C29.246,254.709 29.131,254.397 28.902,254.157C28.678,253.918 28.392,253.798 28.043,253.798C27.689,253.798 27.379,253.933 27.113,254.204C26.847,254.47 26.647,254.954 26.511,255.657L26.511,255.657Z" style="fill:rgb(158,161,168);fill-rule:nonzero;"/>
        </g>
        <g id="path1251" transform="matrix(0.703941,0,0,0.698499,-6.69851,-25.5555)">
            <path d="M27.402,220.364L22.894,220.364L23.285,218.489L29.48,211.246L31.418,211.246L29.91,218.457L31.301,218.457L30.902,220.364L29.511,220.364L29.019,222.7L26.91,222.7L27.402,220.364ZM27.801,218.457L28.543,214.887L25.519,218.457L27.801,218.457Z" style="fill:rgb(158,161,168);fill-rule:nonzero;"/>
        </g>
        <g id="path1256" transform="matrix(0.758144,0,0,0.683578,-8.40144,-14.7023)">
            <path d="M31.418,173.567L29.316,173.738C29.274,173.285 29.165,172.968 28.988,172.785C28.816,172.603 28.582,172.512 28.285,172.512C27.905,172.512 27.566,172.663 27.269,172.965C26.847,173.397 26.509,174.095 26.254,175.059C26.738,174.741 27.251,174.582 27.793,174.582C28.678,174.582 29.407,174.884 29.98,175.488C30.553,176.093 30.84,176.916 30.84,177.957C30.84,178.785 30.639,179.569 30.238,180.309C29.837,181.043 29.337,181.58 28.738,181.918C28.139,182.257 27.506,182.426 26.84,182.426C26.199,182.426 25.621,182.267 25.105,181.949C24.595,181.626 24.199,181.158 23.918,180.543C23.642,179.929 23.504,179.106 23.504,178.074C23.504,176.028 23.957,174.291 24.863,172.863C25.769,171.436 26.965,170.723 28.449,170.723C29.303,170.723 29.983,170.957 30.488,171.426C30.993,171.895 31.303,172.608 31.418,173.567ZM25.66,178.856C25.66,179.46 25.78,179.905 26.019,180.192C26.259,180.478 26.556,180.621 26.91,180.621C27.347,180.621 27.722,180.418 28.035,180.012C28.457,179.465 28.668,178.731 28.668,177.809C28.668,177.215 28.551,176.778 28.316,176.496C28.082,176.21 27.795,176.067 27.457,176.067C27.17,176.067 26.881,176.176 26.59,176.395C26.298,176.608 26.069,176.952 25.902,177.426C25.741,177.895 25.66,178.371 25.66,178.856L25.66,178.856Z" style="fill:rgb(158,161,168);fill-rule:nonzero;"/>
        </g>
        <g id="g1264" transform="matrix(0.743106,0,0,0.682667,-7.92897,-27.072)">
            <path id="path1260" d="M15.269,135.422L15.691,133.422C17.623,132.578 19.118,131.596 20.176,130.477L21.543,130.477L19.129,142L16.871,142L18.535,134.063C18.066,134.365 17.524,134.641 16.91,134.891C16.301,135.141 15.754,135.318 15.269,135.422Z" style="fill:rgb(158,161,168);fill-rule:nonzero;"/>
            <path id="path1262" d="M23.308,138.273C23.308,137.122 23.504,135.956 23.894,134.773C24.373,133.331 24.988,132.258 25.738,131.555C26.488,130.852 27.321,130.5 28.238,130.5C29.165,130.5 29.926,130.836 30.519,131.508C31.118,132.18 31.418,133.156 31.418,134.438C31.418,135.609 31.199,136.849 30.761,138.156C30.329,139.458 29.743,140.458 29.004,141.156C28.264,141.849 27.431,142.195 26.504,142.195C25.577,142.195 24.811,141.859 24.207,141.188C23.608,140.516 23.308,139.544 23.308,138.273ZM25.511,138.727C25.511,139.341 25.61,139.773 25.808,140.023C26.006,140.273 26.261,140.398 26.574,140.398C26.991,140.398 27.36,140.206 27.683,139.82C28.116,139.305 28.498,138.289 28.832,136.773C29.097,135.57 29.23,134.617 29.23,133.914C29.23,133.341 29.129,132.93 28.926,132.68C28.728,132.424 28.472,132.297 28.16,132.297C27.764,132.297 27.413,132.487 27.105,132.867C26.652,133.419 26.261,134.391 25.933,135.781C25.652,136.984 25.511,137.966 25.511,138.727Z" style="fill:rgb(158,161,168);fill-rule:nonzero;"/>
        </g>
        <rect id="rect1266" x="20" y="66" width="115" height="2" style="fill:rgb(158,161,168);"/>
        <rect id="rect1268" x="20" y="96" width="115" height="2" style="fill:rgb(197,200,209);"/>
        <rect id="rect1270" x="20" y="86" width="115" height="2" style="fill:rgb(158,161,168);"/>
        <rect id="rect1272" x="20" y="116" width="115" height="2" style="fill:rgb(197,200,209);"/>
        <rect id="rect1274" x="20" y="106" width="115" height="2" style="fill:rgb(158,161,168);"/>
        <rect id="rect1276" x="20" y="136" width="115" height="2" style="fill:rgb(197,200,209);"/>
        <rect id="rect1278" x="20" y="126" width="115" height="2" style="fill:rgb(158,161,168);"/>
        <rect id="rect1281" x="20" y="156" width="115" height="2" style="fill:rgb(197,200,209);"/>
        <rect id="rect1283" x="20" y="146" width="115" height="2" style="fill:rgb(158,161,168);"/>
        <rect id="rect1285" x="20" y="166" width="115" height="2" style="fill:rgb(158,161,168);"/>
        <rect id="rect1343" x="0" y="193" width="135" height="1" style="fill:rgb(158,161,168);"/>
        <g id="text1361" transform="matrix(0.78072,0,0,1.11237,0,2.36788)">
            <path id="path1364" d="M22.415,13.875L24.6,3.443L27.411,3.443C28.193,3.443 28.694,3.455 28.912,3.479C29.344,3.521 29.728,3.609 30.065,3.742C30.406,3.875 30.715,4.062 30.99,4.304C31.27,4.541 31.509,4.828 31.709,5.165C31.913,5.502 32.069,5.891 32.178,6.332C32.287,6.769 32.342,7.248 32.342,7.77C32.342,8.894 32.126,9.893 31.694,10.765C31.267,11.634 30.729,12.324 30.079,12.836C29.581,13.235 28.938,13.529 28.151,13.719C27.705,13.823 27.019,13.875 26.094,13.875L22.415,13.875ZM24.913,12.196L26.002,12.196C26.789,12.196 27.358,12.148 27.709,12.053C28.065,11.954 28.39,11.771 28.684,11.505C29.107,11.121 29.462,10.609 29.752,9.968C30.041,9.328 30.186,8.574 30.186,7.706C30.186,6.965 30.065,6.41 29.823,6.04C29.586,5.666 29.292,5.417 28.941,5.293C28.694,5.208 28.255,5.165 27.624,5.165L26.379,5.165L24.913,12.196Z" style="fill:rgb(158,161,168);fill-rule:nonzero;"/>
            <path id="path1366" d="M35.096,3.443L37.238,3.443L36.056,9.107L35.765,10.502C35.746,10.621 35.736,10.732 35.736,10.837C35.736,11.249 35.886,11.591 36.185,11.861C36.488,12.127 36.927,12.26 37.501,12.26C38.018,12.26 38.445,12.162 38.782,11.968C39.119,11.773 39.38,11.484 39.565,11.1C39.75,10.716 39.937,10.063 40.127,9.143L41.322,3.443L43.464,3.443L42.276,9.15C42.024,10.35 41.735,11.268 41.408,11.904C41.08,12.54 40.585,13.057 39.92,13.455C39.256,13.854 38.417,14.053 37.401,14.053C36.187,14.053 35.257,13.756 34.612,13.163C33.967,12.566 33.644,11.8 33.644,10.865C33.644,10.671 33.661,10.459 33.694,10.232C33.713,10.08 33.796,9.648 33.943,8.937L35.096,3.443Z" style="fill:rgb(158,161,168);fill-rule:nonzero;"/>
            <path id="path1368" d="M50.274,11.569L46.14,11.569L44.887,13.875L42.681,13.875L48.581,3.443L50.964,3.443L52.658,13.875L50.623,13.875L50.274,11.569ZM50.011,9.833L49.406,5.635L46.887,9.833L50.011,9.833Z" style="fill:rgb(158,161,168);fill-rule:nonzero;"/>
            <path id="path1370" d="M54.031,13.875L56.216,3.443L58.358,3.443L56.543,12.132L61.852,12.132L61.489,13.875L54.031,13.875Z" style="fill:rgb(158,161,168);fill-rule:nonzero;"/>
            <path id="path1372" d="M66.641,13.875L68.825,3.443L76.126,3.443L75.756,5.187L70.604,5.187L70.078,7.691L75.13,7.691L74.767,9.435L69.715,9.435L68.79,13.875L66.641,13.875Z" style="fill:rgb(158,161,168);fill-rule:nonzero;"/>
            <path id="path1374" d="M75.486,13.875L77.67,3.443L79.812,3.443L77.635,13.875L75.486,13.875Z" style="fill:rgb(158,161,168);fill-rule:nonzero;"/>
            <path id="path1376" d="M84.836,13.875L82.545,13.875L80.673,3.443L82.815,3.443L84.139,11.335L88.458,3.443L90.586,3.443L84.836,13.875Z" style="fill:rgb(158,161,168);fill-rule:nonzero;"/>
            <path id="path1378" d="M89.355,13.875L91.532,3.443L99.267,3.443L98.904,5.187L93.318,5.187L92.82,7.556L98.221,7.556L97.858,9.3L92.457,9.3L91.803,12.132L97.873,12.132L97.503,13.875L89.355,13.875Z" style="fill:rgb(158,161,168);fill-rule:nonzero;"/>
            <path id="path1381" d="M103.459,10.495L105.501,10.388C105.529,11.038 105.641,11.477 105.835,11.705C106.148,12.075 106.727,12.26 107.572,12.26C108.274,12.26 108.781,12.134 109.094,11.883C109.408,11.631 109.564,11.328 109.564,10.972C109.564,10.663 109.436,10.402 109.18,10.189C109,10.032 108.504,9.779 107.693,9.428C106.886,9.077 106.296,8.785 105.921,8.552C105.551,8.315 105.259,8.009 105.045,7.634C104.832,7.26 104.725,6.821 104.725,6.318C104.725,5.44 105.043,4.712 105.679,4.133C106.314,3.555 107.235,3.265 108.44,3.265C109.664,3.265 110.61,3.552 111.279,4.126C111.953,4.7 112.323,5.464 112.389,6.418L110.333,6.51C110.28,6.012 110.1,5.63 109.792,5.364C109.483,5.099 109.028,4.966 108.426,4.966C107.833,4.966 107.408,5.07 107.152,5.279C106.9,5.488 106.775,5.751 106.775,6.069C106.775,6.368 106.891,6.614 107.123,6.809C107.356,7.008 107.87,7.281 108.667,7.627C109.868,8.144 110.631,8.564 110.959,8.887C111.447,9.361 111.692,9.971 111.692,10.716C111.692,11.636 111.326,12.423 110.596,13.078C109.87,13.728 108.857,14.053 107.557,14.053C106.661,14.053 105.883,13.904 105.223,13.605C104.569,13.301 104.106,12.881 103.836,12.345C103.565,11.809 103.44,11.192 103.459,10.495L103.459,10.495Z" style="fill:rgb(158,161,168);fill-rule:nonzero;"/>
            <path id="path1383" d="M117.406,13.875L115.257,13.875L117.079,5.187L114.019,5.187L114.382,3.443L122.6,3.443L122.238,5.187L119.22,5.187L117.406,13.875Z" style="fill:rgb(158,161,168);fill-rule:nonzero;"/>
            <path id="path1385" d="M121.775,13.875L123.953,3.443L131.688,3.443L131.325,5.187L125.739,5.187L125.241,7.556L130.642,7.556L130.279,9.3L124.878,9.3L124.223,12.132L130.293,12.132L129.923,13.875L121.775,13.875Z" style="fill:rgb(158,161,168);fill-rule:nonzero;"/>
            <path id="path1387" d="M133.652,13.875L131.503,13.875L133.687,3.443L137.928,3.443C138.683,3.443 139.278,3.533 139.714,3.714C140.156,3.889 140.504,4.183 140.76,4.596C141.017,5.004 141.145,5.492 141.145,6.062C141.145,6.588 141.043,7.101 140.839,7.599C140.635,8.097 140.383,8.495 140.084,8.794C139.79,9.093 139.472,9.321 139.131,9.477C138.789,9.629 138.329,9.745 137.75,9.826C137.413,9.874 136.783,9.897 135.857,9.897L134.484,9.897L133.652,13.875ZM134.84,8.168L135.502,8.168C136.635,8.168 137.392,8.097 137.772,7.955C138.151,7.812 138.45,7.585 138.668,7.271C138.887,6.958 138.996,6.614 138.996,6.24C138.996,5.988 138.939,5.782 138.825,5.621C138.716,5.459 138.559,5.343 138.355,5.272C138.156,5.196 137.708,5.158 137.01,5.158L135.473,5.158L134.84,8.168Z" style="fill:rgb(158,161,168);fill-rule:nonzero;"/>
            <path id="path1389" d="M141.572,10.495L143.614,10.388C143.642,11.038 143.754,11.477 143.948,11.705C144.261,12.075 144.84,12.26 145.685,12.26C146.387,12.26 146.894,12.134 147.207,11.883C147.521,11.631 147.677,11.328 147.677,10.972C147.677,10.663 147.549,10.402 147.293,10.189C147.113,10.032 146.617,9.779 145.806,9.428C144.999,9.077 144.408,8.785 144.034,8.552C143.664,8.315 143.372,8.009 143.158,7.634C142.945,7.26 142.838,6.821 142.838,6.318C142.838,5.44 143.156,4.712 143.792,4.133C144.427,3.555 145.348,3.265 146.553,3.265C147.777,3.265 148.723,3.552 149.392,4.126C150.066,4.7 150.436,5.464 150.502,6.418L148.446,6.51C148.393,6.012 148.213,5.63 147.905,5.364C147.596,5.099 147.141,4.966 146.539,4.966C145.946,4.966 145.521,5.07 145.265,5.279C145.013,5.488 144.888,5.751 144.888,6.069C144.888,6.368 145.004,6.614 145.236,6.809C145.469,7.008 145.984,7.281 146.78,7.627C147.981,8.144 148.744,8.564 149.072,8.887C149.56,9.361 149.805,9.971 149.805,10.716C149.805,11.636 149.439,12.423 148.709,13.078C147.983,13.728 146.97,14.053 145.67,14.053C144.774,14.053 143.996,13.904 143.336,13.605C142.682,13.301 142.219,12.881 141.949,12.345C141.678,11.809 141.553,11.192 141.572,10.495L141.572,10.495Z" style="fill:rgb(158,161,168);fill-rule:nonzero;"/>
        </g>
        <g id="text1433" transform="matrix(0.664167,0,0,1.50565,0,2)">
            <path id="path1447" d="M4.07,237.684L3.011,237.684L4.087,232.546L6.176,232.546C6.548,232.546 6.841,232.59 7.056,232.679C7.273,232.766 7.445,232.91 7.571,233.114C7.697,233.315 7.76,233.555 7.76,233.836C7.76,234.095 7.71,234.347 7.61,234.593C7.509,234.838 7.385,235.034 7.238,235.182C7.093,235.329 6.937,235.441 6.768,235.518C6.6,235.593 6.374,235.65 6.089,235.69C5.923,235.713 5.612,235.725 5.156,235.725L4.48,235.725L4.07,237.684ZM4.655,234.873L4.981,234.873C5.539,234.873 5.912,234.838 6.099,234.768C6.286,234.698 6.433,234.586 6.541,234.432C6.648,234.277 6.702,234.108 6.702,233.923C6.702,233.8 6.674,233.698 6.618,233.618C6.564,233.539 6.487,233.482 6.386,233.447C6.288,233.409 6.068,233.391 5.724,233.391L4.967,233.391L4.655,234.873Z" style="fill:rgb(158,161,168);fill-rule:nonzero;"/>
            <path id="path1449" d="M8.885,232.546L9.94,232.546L9.359,235.336L9.215,236.023C9.206,236.081 9.201,236.136 9.201,236.187C9.201,236.391 9.274,236.559 9.422,236.692C9.571,236.823 9.787,236.888 10.07,236.888C10.325,236.888 10.535,236.841 10.701,236.745C10.867,236.649 10.995,236.506 11.086,236.317C11.178,236.128 11.27,235.807 11.363,235.353L11.952,232.546L13.007,232.546L12.422,235.357C12.298,235.948 12.155,236.4 11.994,236.713C11.833,237.026 11.589,237.281 11.262,237.477C10.935,237.674 10.521,237.772 10.021,237.772C9.423,237.772 8.965,237.626 8.647,237.334C8.329,237.039 8.17,236.662 8.17,236.201C8.17,236.106 8.179,236.002 8.195,235.89C8.204,235.815 8.245,235.602 8.318,235.252L8.885,232.546Z" style="fill:rgb(158,161,168);fill-rule:nonzero;"/>
            <path id="path1451" d="M13.025,237.684L14.101,232.546L15.156,232.546L14.262,236.825L16.876,236.825L16.698,237.684L13.025,237.684Z" style="fill:rgb(158,161,168);fill-rule:nonzero;"/>
            <path id="path1453" d="M17.546,236.019L18.552,235.967C18.566,236.287 18.621,236.503 18.716,236.615C18.871,236.797 19.156,236.888 19.572,236.888C19.917,236.888 20.167,236.827 20.322,236.703C20.476,236.579 20.553,236.429 20.553,236.254C20.553,236.102 20.49,235.974 20.364,235.869C20.275,235.791 20.031,235.666 19.631,235.494C19.234,235.321 18.943,235.177 18.759,235.062C18.576,234.946 18.433,234.795 18.327,234.61C18.222,234.426 18.17,234.21 18.17,233.962C18.17,233.53 18.326,233.171 18.639,232.886C18.952,232.601 19.406,232.458 19.999,232.458C20.602,232.458 21.068,232.6 21.398,232.882C21.729,233.165 21.912,233.541 21.944,234.011L20.932,234.057C20.906,233.811 20.817,233.623 20.665,233.492C20.513,233.361 20.289,233.296 19.992,233.296C19.7,233.296 19.491,233.347 19.365,233.45C19.241,233.553 19.179,233.683 19.179,233.839C19.179,233.986 19.236,234.108 19.351,234.204C19.465,234.302 19.719,234.436 20.111,234.607C20.703,234.861 21.079,235.068 21.24,235.227C21.481,235.461 21.601,235.761 21.601,236.128C21.601,236.581 21.421,236.969 21.061,237.292C20.704,237.612 20.205,237.772 19.565,237.772C19.123,237.772 18.74,237.698 18.415,237.551C18.093,237.401 17.865,237.195 17.732,236.931C17.598,236.666 17.537,236.363 17.546,236.019L17.546,236.019Z" style="fill:rgb(158,161,168);fill-rule:nonzero;"/>
            <path id="path1455" d="M22.179,237.684L23.252,232.546L27.061,232.546L26.883,233.405L24.131,233.405L23.886,234.572L26.546,234.572L26.368,235.43L23.707,235.43L23.385,236.825L26.375,236.825L26.192,237.684L22.179,237.684Z" style="fill:rgb(158,161,168);fill-rule:nonzero;"/>
            <path id="path1457" d="M28.919,237.684L29.995,232.546L31.05,232.546L29.978,237.684L28.919,237.684Z" style="fill:rgb(158,161,168);fill-rule:nonzero;"/>
            <path id="path1459" d="M35.063,237.684L34.078,237.684L32.69,234.232L31.968,237.684L30.983,237.684L32.056,232.546L33.044,232.546L34.436,235.984L35.154,232.546L36.136,232.546L35.063,237.684Z" style="fill:rgb(158,161,168);fill-rule:nonzero;"/>
        </g>
        <g id="text1437" transform="matrix(0.723436,0,0,1.38229,0,2)">
            <path id="path1439" d="M82.937,256.696C82.937,256.365 82.987,256.016 83.086,255.65C83.216,255.159 83.413,254.732 83.678,254.371C83.945,254.01 84.281,253.724 84.686,253.516C85.091,253.305 85.551,253.199 86.068,253.199C86.76,253.199 87.319,253.414 87.744,253.844C88.171,254.274 88.385,254.844 88.385,255.554C88.385,256.145 88.246,256.716 87.969,257.268C87.692,257.821 87.315,258.246 86.839,258.544C86.363,258.841 85.825,258.99 85.224,258.99C84.702,258.99 84.265,258.872 83.911,258.635C83.557,258.398 83.307,258.106 83.159,257.757C83.011,257.406 82.937,257.052 82.937,256.696L82.937,256.696ZM84.075,256.673C84.075,257.057 84.192,257.379 84.426,257.639C84.661,257.898 84.968,258.028 85.35,258.028C85.661,258.028 85.959,257.926 86.244,257.723C86.531,257.516 86.768,257.206 86.954,256.791C87.142,256.374 87.236,255.968 87.236,255.573C87.236,255.133 87.118,254.788 86.881,254.539C86.644,254.287 86.343,254.161 85.976,254.161C85.414,254.161 84.956,254.423 84.602,254.947C84.251,255.471 84.075,256.047 84.075,256.673L84.075,256.673Z" style="fill:rgb(158,161,168);fill-rule:nonzero;"/>
            <path id="path1441" d="M89.824,253.294L90.974,253.294L90.34,256.333L90.183,257.081C90.173,257.145 90.168,257.205 90.168,257.261C90.168,257.482 90.248,257.666 90.409,257.811C90.572,257.953 90.807,258.024 91.115,258.024C91.392,258.024 91.621,257.972 91.802,257.868C91.983,257.764 92.123,257.608 92.222,257.402C92.321,257.196 92.422,256.846 92.524,256.352L93.165,253.294L94.314,253.294L93.677,256.356C93.542,257 93.386,257.492 93.211,257.834C93.035,258.175 92.769,258.452 92.413,258.666C92.057,258.88 91.606,258.986 91.062,258.986C90.41,258.986 89.911,258.827 89.565,258.509C89.219,258.189 89.046,257.778 89.046,257.276C89.046,257.172 89.055,257.059 89.073,256.936C89.083,256.855 89.127,256.623 89.206,256.242L89.824,253.294Z" style="fill:rgb(158,161,168);fill-rule:nonzero;"/>
            <path id="path1443" d="M96.738,258.891L95.585,258.891L96.563,254.23L94.921,254.23L95.116,253.294L99.525,253.294L99.33,254.23L97.712,254.23L96.738,258.891Z" style="fill:rgb(158,161,168);fill-rule:nonzero;"/>
        </g>
        <g id="g1480" transform="matrix(0.688433,0,0,1.27827,17.32,-174)">
            <path id="path1470" d="M113.858,279.346L115.113,279.536C114.868,280.215 114.501,280.735 114.011,281.095C113.521,281.453 112.948,281.632 112.291,281.632C111.551,281.632 110.972,281.409 110.554,280.963C110.138,280.518 109.931,279.871 109.931,279.024C109.931,278.337 110.07,277.708 110.347,277.139C110.628,276.567 111.016,276.13 111.511,275.827C112.006,275.524 112.545,275.373 113.128,275.373C113.783,275.373 114.312,275.549 114.716,275.901C115.121,276.251 115.359,276.728 115.43,277.333L114.238,277.448C114.172,277.096 114.044,276.842 113.854,276.685C113.667,276.526 113.417,276.446 113.103,276.446C112.76,276.446 112.438,276.55 112.138,276.759C111.841,276.968 111.603,277.296 111.424,277.741C111.245,278.184 111.156,278.627 111.156,279.07C111.156,279.554 111.272,279.928 111.503,280.192C111.736,280.456 112.027,280.588 112.373,280.588C112.695,280.588 112.989,280.483 113.256,280.274C113.526,280.065 113.726,279.756 113.858,279.346L113.858,279.346Z" style="fill:rgb(158,161,168);fill-rule:nonzero;"/>
            <path id="path1472" d="M118.607,281.524L117.278,281.524L116.193,275.476L117.435,275.476L118.203,280.052L120.707,275.476L121.94,275.476L118.607,281.524Z" style="fill:rgb(158,161,168);fill-rule:nonzero;"/>
            <path id="path1474" d="M123.962,279.152C123.962,278.795 124.015,278.418 124.123,278.022C124.263,277.491 124.476,277.03 124.762,276.64C125.051,276.249 125.414,275.941 125.851,275.716C126.289,275.487 126.786,275.373 127.345,275.373C128.093,275.373 128.697,275.606 129.156,276.07C129.618,276.535 129.849,277.151 129.849,277.919C129.849,278.557 129.699,279.174 129.399,279.771C129.1,280.368 128.692,280.827 128.178,281.149C127.664,281.471 127.082,281.632 126.433,281.632C125.869,281.632 125.396,281.504 125.014,281.248C124.632,280.992 124.361,280.676 124.201,280.299C124.042,279.92 123.962,279.537 123.962,279.152L123.962,279.152ZM125.191,279.128C125.191,279.543 125.318,279.891 125.571,280.171C125.824,280.452 126.157,280.592 126.569,280.592C126.905,280.592 127.227,280.482 127.535,280.262C127.845,280.039 128.101,279.704 128.302,279.256C128.505,278.805 128.607,278.366 128.607,277.94C128.607,277.464 128.479,277.091 128.224,276.822C127.968,276.549 127.642,276.413 127.246,276.413C126.638,276.413 126.143,276.696 125.761,277.263C125.381,277.83 125.191,278.451 125.191,279.128L125.191,279.128Z" style="fill:rgb(158,161,168);fill-rule:nonzero;"/>
            <path id="path1476" d="M131.404,275.476L132.646,275.476L131.961,278.76L131.792,279.569C131.781,279.638 131.776,279.702 131.776,279.763C131.776,280.002 131.862,280.2 132.035,280.357C132.212,280.511 132.466,280.588 132.799,280.588C133.098,280.588 133.346,280.532 133.541,280.419C133.737,280.306 133.888,280.138 133.995,279.915C134.102,279.693 134.211,279.315 134.321,278.781L135.014,275.476L136.256,275.476L135.567,278.785C135.421,279.481 135.253,280.013 135.064,280.382C134.874,280.75 134.586,281.05 134.201,281.281C133.816,281.512 133.33,281.628 132.741,281.628C132.037,281.628 131.498,281.456 131.124,281.112C130.75,280.765 130.563,280.321 130.563,279.779C130.563,279.667 130.572,279.544 130.591,279.412C130.602,279.324 130.651,279.074 130.736,278.661L131.404,275.476Z" style="fill:rgb(158,161,168);fill-rule:nonzero;"/>
            <path id="path1478" d="M138.876,281.524L137.63,281.524L138.686,276.487L136.912,276.487L137.122,275.476L141.887,275.476L141.677,276.487L139.928,276.487L138.876,281.524Z" style="fill:rgb(158,161,168);fill-rule:nonzero;"/>
        </g>
        <g id="g1496" transform="matrix(0.664167,0,0,1.50565,0,-172)">
            <path id="path1482" d="M4.07,237.684L3.011,237.684L4.087,232.546L6.176,232.546C6.548,232.546 6.841,232.59 7.056,232.679C7.273,232.766 7.445,232.91 7.571,233.114C7.697,233.315 7.76,233.555 7.76,233.836C7.76,234.095 7.71,234.347 7.61,234.593C7.509,234.838 7.385,235.034 7.238,235.182C7.093,235.329 6.937,235.441 6.768,235.518C6.6,235.593 6.374,235.65 6.089,235.69C5.923,235.713 5.612,235.725 5.156,235.725L4.48,235.725L4.07,237.684ZM4.655,234.873L4.981,234.873C5.539,234.873 5.912,234.838 6.099,234.768C6.286,234.698 6.433,234.586 6.541,234.432C6.648,234.277 6.702,234.108 6.702,233.923C6.702,233.8 6.674,233.698 6.618,233.618C6.564,233.539 6.487,233.482 6.386,233.447C6.288,233.409 6.068,233.391 5.724,233.391L4.967,233.391L4.655,234.873Z" style="fill:rgb(158,161,168);fill-rule:nonzero;"/>
            <path id="path1484" d="M8.885,232.546L9.94,232.546L9.359,235.336L9.215,236.023C9.206,236.081 9.201,236.136 9.201,236.187C9.201,236.391 9.274,236.559 9.422,236.692C9.571,236.823 9.787,236.888 10.07,236.888C10.325,236.888 10.535,236.841 10.701,236.745C10.867,236.649 10.995,236.506 11.086,236.317C11.178,236.128 11.27,235.807 11.363,235.353L11.952,232.546L13.007,232.546L12.422,235.357C12.298,235.948 12.155,236.4 11.994,236.713C11.833,237.026 11.589,237.281 11.262,237.477C10.935,237.674 10.521,237.772 10.021,237.772C9.423,237.772 8.965,237.626 8.647,237.334C8.329,237.039 8.17,236.662 8.17,236.201C8.17,236.106 8.179,236.002 8.195,235.89C8.204,235.815 8.245,235.602 8.318,235.252L8.885,232.546Z" style="fill:rgb(158,161,168);fill-rule:nonzero;"/>
            <path id="path1486" d="M13.025,237.684L14.101,232.546L15.156,232.546L14.262,236.825L16.876,236.825L16.698,237.684L13.025,237.684Z" style="fill:rgb(158,161,168);fill-rule:nonzero;"/>
            <path id="path1488" d="M17.546,236.019L18.552,235.967C18.566,236.287 18.621,236.503 18.716,236.615C18.871,236.797 19.156,236.888 19.572,236.888C19.917,236.888 20.167,236.827 20.322,236.703C20.476,236.579 20.553,236.429 20.553,236.254C20.553,236.102 20.49,235.974 20.364,235.869C20.275,235.791 20.031,235.666 19.631,235.494C19.234,235.321 18.943,235.177 18.759,235.062C18.576,234.946 18.433,234.795 18.327,234.61C18.222,234.426 18.17,234.21 18.17,233.962C18.17,233.53 18.326,233.171 18.639,232.886C18.952,232.601 19.406,232.458 19.999,232.458C20.602,232.458 21.068,232.6 21.398,232.882C21.729,233.165 21.912,233.541 21.944,234.011L20.932,234.057C20.906,233.811 20.817,233.623 20.665,233.492C20.513,233.361 20.289,233.296 19.992,233.296C19.7,233.296 19.491,233.347 19.365,233.45C19.241,233.553 19.179,233.683 19.179,233.839C19.179,233.986 19.236,234.108 19.351,234.204C19.465,234.302 19.719,234.436 20.111,234.607C20.703,234.861 21.079,235.068 21.24,235.227C21.481,235.461 21.601,235.761 21.601,236.128C21.601,236.581 21.421,236.969 21.061,237.292C20.704,237.612 20.205,237.772 19.565,237.772C19.123,237.772 18.74,237.698 18.415,237.551C18.093,237.401 17.865,237.195 17.732,236.931C17.598,236.666 17.537,236.363 17.546,236.019L17.546,236.019Z" style="fill:rgb(158,161,168);fill-rule:nonzero;"/>
            <path id="path1490" d="M22.179,237.684L23.252,232.546L27.061,232.546L26.883,233.405L24.131,233.405L23.886,234.572L26.546,234.572L26.368,235.43L23.707,235.43L23.385,236.825L26.375,236.825L26.192,237.684L22.179,237.684Z" style="fill:rgb(158,161,168);fill-rule:nonzero;"/>
            <path id="path1492" d="M28.919,237.684L29.995,232.546L31.05,232.546L29.978,237.684L28.919,237.684Z" style="fill:rgb(158,161,168);fill-rule:nonzero;"/>
            <path id="path1494" d="M35.063,237.684L34.078,237.684L32.69,234.232L31.968,237.684L30.983,237.684L32.056,232.546L33.044,232.546L34.436,235.984L35.154,232.546L36.136,232.546L35.063,237.684Z" style="fill:rgb(158,161,168);fill-rule:nonzero;"/>
        </g>
        <g id="g1504" transform="matrix(0.723436,0,0,1.38229,0,-172)">
            <path id="path1498" d="M82.937,256.696C82.937,256.365 82.987,256.016 83.086,255.65C83.216,255.159 83.413,254.732 83.678,254.371C83.945,254.01 84.281,253.724 84.686,253.516C85.091,253.305 85.551,253.199 86.068,253.199C86.76,253.199 87.319,253.414 87.744,253.844C88.171,254.274 88.385,254.844 88.385,255.554C88.385,256.145 88.246,256.716 87.969,257.268C87.692,257.821 87.315,258.246 86.839,258.544C86.363,258.841 85.825,258.99 85.224,258.99C84.702,258.99 84.265,258.872 83.911,258.635C83.557,258.398 83.307,258.106 83.159,257.757C83.011,257.406 82.937,257.052 82.937,256.696L82.937,256.696ZM84.075,256.673C84.075,257.057 84.192,257.379 84.426,257.639C84.661,257.898 84.968,258.028 85.35,258.028C85.661,258.028 85.959,257.926 86.244,257.723C86.531,257.516 86.768,257.206 86.954,256.791C87.142,256.374 87.236,255.968 87.236,255.573C87.236,255.133 87.118,254.788 86.881,254.539C86.644,254.287 86.343,254.161 85.976,254.161C85.414,254.161 84.956,254.423 84.602,254.947C84.251,255.471 84.075,256.047 84.075,256.673L84.075,256.673Z" style="fill:rgb(158,161,168);fill-rule:nonzero;"/>
            <path id="path1500" d="M89.824,253.294L90.974,253.294L90.34,256.333L90.183,257.081C90.173,257.145 90.168,257.205 90.168,257.261C90.168,257.482 90.248,257.666 90.409,257.811C90.572,257.953 90.807,258.024 91.115,258.024C91.392,258.024 91.621,257.972 91.802,257.868C91.983,257.764 92.123,257.608 92.222,257.402C92.321,257.196 92.422,256.846 92.524,256.352L93.165,253.294L94.314,253.294L93.677,256.356C93.542,257 93.386,257.492 93.211,257.834C93.035,258.175 92.769,258.452 92.413,258.666C92.057,258.88 91.606,258.986 91.062,258.986C90.41,258.986 89.911,258.827 89.565,258.509C89.219,258.189 89.046,257.778 89.046,257.276C89.046,257.172 89.055,257.059 89.073,256.936C89.083,256.855 89.127,256.623 89.206,256.242L89.824,253.294Z" style="fill:rgb(158,161,168);fill-rule:nonzero;"/>
            <path id="path1502" d="M96.738,258.891L95.585,258.891L96.563,254.23L94.921,254.23L95.116,253.294L99.525,253.294L99.33,254.23L97.712,254.23L96.738,258.891Z" style="fill:rgb(158,161,168);fill-rule:nonzero;"/>
        </g>
        <g id="text1163" transform="matrix(0.714635,0,0,1.39932,0,0)">
            <path id="path1190" d="M2.8,23.127L3.882,23.07C3.897,23.414 3.956,23.647 4.059,23.768C4.225,23.964 4.532,24.062 4.979,24.062C5.351,24.062 5.62,23.995 5.786,23.862C5.952,23.729 6.035,23.568 6.035,23.379C6.035,23.216 5.967,23.078 5.832,22.964C5.736,22.882 5.473,22.747 5.043,22.561C4.616,22.375 4.303,22.22 4.104,22.097C3.908,21.971 3.754,21.809 3.641,21.611C3.527,21.412 3.471,21.179 3.471,20.913C3.471,20.448 3.639,20.062 3.976,19.755C4.313,19.448 4.801,19.295 5.439,19.295C6.088,19.295 6.59,19.447 6.944,19.751C7.301,20.056 7.497,20.46 7.532,20.966L6.443,21.015C6.415,20.751 6.319,20.548 6.156,20.408C5.993,20.267 5.751,20.196 5.432,20.196C5.118,20.196 4.893,20.252 4.757,20.362C4.624,20.473 4.557,20.613 4.557,20.781C4.557,20.939 4.619,21.07 4.742,21.173C4.865,21.279 5.138,21.423 5.56,21.607C6.196,21.881 6.601,22.103 6.774,22.274C7.033,22.526 7.163,22.849 7.163,23.244C7.163,23.731 6.969,24.149 6.582,24.496C6.197,24.84 5.661,25.012 4.972,25.012C4.497,25.012 4.084,24.933 3.735,24.775C3.388,24.614 3.143,24.391 2.999,24.107C2.856,23.823 2.79,23.496 2.8,23.127Z" style="fill:rgb(158,161,168);fill-rule:nonzero;"/>
            <path id="path1192" d="M10.191,24.918L9.052,24.918L10.018,20.313L8.396,20.313L8.588,19.389L12.944,19.389L12.752,20.313L11.153,20.313L10.191,24.918Z" style="fill:rgb(158,161,168);fill-rule:nonzero;"/>
            <path id="path1194" d="M15.554,23.696L13.363,23.696L12.699,24.918L11.53,24.918L14.656,19.389L15.919,19.389L16.817,24.918L15.738,24.918L15.554,23.696ZM15.414,22.776L15.094,20.551L13.759,22.776L15.414,22.776Z" style="fill:rgb(158,161,168);fill-rule:nonzero;"/>
            <path id="path1196" d="M20.592,21.965L23.066,21.965L22.568,24.337C22.276,24.526 21.918,24.685 21.493,24.816C21.071,24.947 20.64,25.012 20.2,25.012C19.516,25.012 18.992,24.858 18.627,24.548C18.129,24.126 17.88,23.514 17.88,22.712C17.88,22.174 17.987,21.658 18.201,21.166C18.457,20.572 18.822,20.112 19.295,19.785C19.767,19.459 20.323,19.295 20.962,19.295C21.6,19.295 22.112,19.443 22.496,19.74C22.884,20.037 23.14,20.469 23.266,21.037L22.206,21.158C22.113,20.846 21.962,20.611 21.753,20.453C21.547,20.294 21.287,20.215 20.973,20.215C20.606,20.215 20.269,20.311 19.962,20.502C19.655,20.693 19.415,20.988 19.242,21.388C19.068,21.788 18.982,22.224 18.982,22.697C18.982,23.162 19.087,23.506 19.298,23.73C19.51,23.951 19.819,24.062 20.226,24.062C20.47,24.062 20.72,24.028 20.977,23.96C21.233,23.89 21.454,23.807 21.64,23.711L21.81,22.889L20.4,22.889L20.592,21.965Z" style="fill:rgb(158,161,168);fill-rule:nonzero;"/>
            <path id="path1198" d="M23.518,24.918L24.672,19.389L28.772,19.389L28.579,20.313L25.619,20.313L25.355,21.569L28.217,21.569L28.025,22.493L25.163,22.493L24.816,23.994L28.032,23.994L27.836,24.918L23.518,24.918Z" style="fill:rgb(158,161,168);fill-rule:nonzero;"/>
            <path id="path1200" d="M28.851,23.127L29.933,23.07C29.948,23.414 30.007,23.647 30.11,23.768C30.276,23.964 30.583,24.062 31.031,24.062C31.403,24.062 31.672,23.995 31.838,23.862C32.003,23.729 32.086,23.568 32.086,23.379C32.086,23.216 32.019,23.078 31.883,22.964C31.787,22.882 31.525,22.747 31.095,22.561C30.667,22.375 30.354,22.22 30.156,22.097C29.96,21.971 29.805,21.809 29.692,21.611C29.579,21.412 29.522,21.179 29.522,20.913C29.522,20.448 29.691,20.062 30.027,19.755C30.364,19.448 30.852,19.295 31.491,19.295C32.139,19.295 32.641,19.447 32.995,19.751C33.352,20.056 33.548,20.46 33.584,20.966L32.494,21.015C32.466,20.751 32.371,20.548 32.207,20.408C32.044,20.267 31.802,20.196 31.483,20.196C31.169,20.196 30.944,20.252 30.808,20.362C30.675,20.473 30.608,20.613 30.608,20.781C30.608,20.939 30.67,21.07 30.793,21.173C30.916,21.279 31.189,21.423 31.611,21.607C32.247,21.881 32.652,22.103 32.826,22.274C33.085,22.526 33.214,22.849 33.214,23.244C33.214,23.731 33.02,24.149 32.633,24.496C32.249,24.84 31.712,25.012 31.023,25.012C30.548,25.012 30.135,24.933 29.786,24.775C29.439,24.614 29.194,24.391 29.051,24.107C28.907,23.823 28.841,23.496 28.851,23.127Z" style="fill:rgb(158,161,168);fill-rule:nonzero;"/>
        </g>
        <g id="text1167" transform="matrix(0.714635,0,0,1.39932,0,0)">
            <path id="path1177" d="M2.8,147.473L3.882,147.416C3.897,147.761 3.956,147.993 4.059,148.114C4.225,148.31 4.532,148.408 4.979,148.408C5.351,148.408 5.62,148.342 5.786,148.208C5.952,148.075 6.035,147.914 6.035,147.726C6.035,147.562 5.967,147.424 5.832,147.311C5.736,147.228 5.473,147.093 5.043,146.907C4.616,146.721 4.303,146.567 4.104,146.444C3.908,146.318 3.754,146.156 3.641,145.957C3.527,145.758 3.471,145.526 3.471,145.259C3.471,144.794 3.639,144.408 3.976,144.102C4.313,143.795 4.801,143.642 5.439,143.642C6.088,143.642 6.59,143.794 6.944,144.098C7.301,144.402 7.497,144.807 7.532,145.312L6.443,145.361C6.415,145.097 6.319,144.895 6.156,144.754C5.993,144.613 5.751,144.543 5.432,144.543C5.118,144.543 4.893,144.598 4.757,144.709C4.624,144.819 4.557,144.959 4.557,145.127C4.557,145.286 4.619,145.416 4.742,145.52C4.865,145.625 5.138,145.77 5.56,145.953C6.196,146.227 6.601,146.45 6.774,146.621C7.033,146.872 7.163,147.195 7.163,147.59C7.163,148.078 6.969,148.495 6.582,148.842C6.197,149.186 5.661,149.359 4.972,149.359C4.497,149.359 4.084,149.279 3.735,149.121C3.388,148.96 3.143,148.738 2.999,148.454C2.856,148.169 2.79,147.843 2.8,147.473L2.8,147.473Z" style="fill:rgb(158,161,168);fill-rule:nonzero;"/>
            <path id="path1179" d="M10.191,149.264L9.052,149.264L10.018,144.66L8.396,144.66L8.588,143.736L12.944,143.736L12.752,144.66L11.153,144.66L10.191,149.264Z" style="fill:rgb(158,161,168);fill-rule:nonzero;"/>
            <path id="path1181" d="M15.554,148.043L13.363,148.043L12.699,149.264L11.53,149.264L14.656,143.736L15.919,143.736L16.817,149.264L15.738,149.264L15.554,148.043ZM15.414,147.122L15.094,144.897L13.759,147.122L15.414,147.122Z" style="fill:rgb(158,161,168);fill-rule:nonzero;"/>
            <path id="path1183" d="M20.592,146.312L23.066,146.312L22.568,148.684C22.276,148.872 21.918,149.032 21.493,149.163C21.071,149.293 20.64,149.359 20.2,149.359C19.516,149.359 18.992,149.204 18.627,148.895C18.129,148.472 17.88,147.86 17.88,147.058C17.88,146.52 17.987,146.005 18.201,145.512C18.457,144.919 18.822,144.459 19.295,144.132C19.767,143.805 20.323,143.642 20.962,143.642C21.6,143.642 22.112,143.79 22.496,144.087C22.884,144.383 23.14,144.816 23.266,145.384L22.206,145.504C22.113,145.193 21.962,144.958 21.753,144.799C21.547,144.641 21.287,144.562 20.973,144.562C20.606,144.562 20.269,144.657 19.962,144.848C19.655,145.039 19.415,145.335 19.242,145.735C19.068,146.134 18.982,146.57 18.982,147.043C18.982,147.508 19.087,147.853 19.298,148.076C19.51,148.298 19.819,148.408 20.226,148.408C20.47,148.408 20.72,148.374 20.977,148.306C21.233,148.236 21.454,148.153 21.64,148.058L21.81,147.235L20.4,147.235L20.592,146.312Z" style="fill:rgb(158,161,168);fill-rule:nonzero;"/>
            <path id="path1185" d="M23.518,149.264L24.672,143.736L28.772,143.736L28.579,144.66L25.619,144.66L25.355,145.916L28.217,145.916L28.025,146.84L25.163,146.84L24.816,148.34L28.032,148.34L27.836,149.264L23.518,149.264Z" style="fill:rgb(158,161,168);fill-rule:nonzero;"/>
            <path id="path1187" d="M28.851,147.473L29.933,147.416C29.948,147.761 30.007,147.993 30.11,148.114C30.276,148.31 30.583,148.408 31.031,148.408C31.403,148.408 31.672,148.342 31.838,148.208C32.003,148.075 32.086,147.914 32.086,147.726C32.086,147.562 32.019,147.424 31.883,147.311C31.787,147.228 31.525,147.093 31.095,146.907C30.667,146.721 30.354,146.567 30.156,146.444C29.96,146.318 29.805,146.156 29.692,145.957C29.579,145.758 29.522,145.526 29.522,145.259C29.522,144.794 29.691,144.408 30.027,144.102C30.364,143.795 30.852,143.642 31.491,143.642C32.139,143.642 32.641,143.794 32.995,144.098C33.352,144.402 33.548,144.807 33.584,145.312L32.494,145.361C32.466,145.097 32.371,144.895 32.207,144.754C32.044,144.613 31.802,144.543 31.483,144.543C31.169,144.543 30.944,144.598 30.808,144.709C30.675,144.819 30.608,144.959 30.608,145.127C30.608,145.286 30.67,145.416 30.793,145.52C30.916,145.625 31.189,145.77 31.611,145.953C32.247,146.227 32.652,146.45 32.826,146.621C33.085,146.872 33.214,147.195 33.214,147.59C33.214,148.078 33.02,148.495 32.633,148.842C32.249,149.186 31.712,149.359 31.023,149.359C30.548,149.359 30.135,149.279 29.786,149.121C29.439,148.96 29.194,148.738 29.051,148.454C28.907,148.169 28.841,147.843 28.851,147.473L28.851,147.473Z" style="fill:rgb(158,161,168);fill-rule:nonzero;"/>
        </g>
        <g id="text1205" transform="matrix(0.738673,0,0,1.35378,0,0)">
            <path id="path1225" d="M102.711,25.756L101.533,25.756L102.73,20.042L105.268,20.042C105.704,20.042 106.043,20.087 106.285,20.178C106.529,20.266 106.726,20.43 106.874,20.669C107.024,20.908 107.1,21.198 107.1,21.538C107.1,22.024 106.954,22.426 106.663,22.743C106.372,23.057 105.932,23.252 105.342,23.328C105.493,23.463 105.634,23.641 105.767,23.862C106.029,24.309 106.321,24.94 106.644,25.756L105.381,25.756C105.279,25.434 105.081,24.931 104.784,24.248C104.623,23.879 104.452,23.63 104.27,23.503C104.158,23.428 103.963,23.39 103.685,23.39L103.206,23.39L102.711,25.756ZM103.385,22.532L104.009,22.532C104.64,22.532 105.059,22.495 105.264,22.419C105.472,22.344 105.634,22.226 105.751,22.065C105.868,21.904 105.926,21.735 105.926,21.558C105.926,21.35 105.842,21.194 105.673,21.09C105.569,21.028 105.344,20.997 104.999,20.997L103.705,20.997L103.385,22.532Z" style="fill:rgb(158,161,168);fill-rule:nonzero;"/>
            <path id="path1228" d="M107.279,25.756L108.472,20.042L112.709,20.042L112.51,20.997L109.45,20.997L109.177,22.295L112.136,22.295L111.937,23.25L108.979,23.25L108.62,24.801L111.945,24.801L111.742,25.756L107.279,25.756Z" style="fill:rgb(158,161,168);fill-rule:nonzero;"/>
            <path id="path1230" d="M112.791,23.905L113.91,23.846C113.925,24.202 113.986,24.442 114.093,24.567C114.264,24.77 114.581,24.871 115.044,24.871C115.429,24.871 115.707,24.802 115.878,24.665C116.05,24.527 116.135,24.361 116.135,24.166C116.135,23.997 116.065,23.854 115.925,23.737C115.826,23.651 115.555,23.512 115.11,23.32C114.668,23.128 114.345,22.968 114.14,22.84C113.937,22.71 113.777,22.543 113.66,22.338C113.543,22.132 113.485,21.892 113.485,21.616C113.485,21.136 113.659,20.737 114.007,20.42C114.355,20.103 114.859,19.944 115.519,19.944C116.19,19.944 116.708,20.101 117.075,20.416C117.444,20.73 117.646,21.149 117.683,21.671L116.556,21.722C116.528,21.449 116.429,21.24 116.26,21.094C116.091,20.949 115.842,20.876 115.512,20.876C115.187,20.876 114.954,20.933 114.814,21.047C114.676,21.162 114.607,21.306 114.607,21.48C114.607,21.644 114.671,21.779 114.798,21.885C114.926,21.995 115.208,22.144 115.644,22.334C116.302,22.617 116.72,22.847 116.899,23.024C117.167,23.283 117.301,23.617 117.301,24.025C117.301,24.53 117.101,24.961 116.701,25.32C116.303,25.676 115.748,25.854 115.036,25.854C114.545,25.854 114.119,25.772 113.758,25.608C113.399,25.442 113.146,25.212 112.998,24.918C112.849,24.624 112.781,24.287 112.791,23.905L112.791,23.905Z" style="fill:rgb(158,161,168);fill-rule:nonzero;"/>
            <path id="path1232" d="M117.944,25.756L119.137,20.042L123.374,20.042L123.175,20.997L120.115,20.997L119.842,22.295L122.801,22.295L122.602,23.25L119.644,23.25L119.285,24.801L122.61,24.801L122.407,25.756L117.944,25.756Z" style="fill:rgb(158,161,168);fill-rule:nonzero;"/>
            <path id="path1234" d="M125.763,25.756L124.586,25.756L125.584,20.997L123.908,20.997L124.107,20.042L128.609,20.042L128.41,20.997L126.757,20.997L125.763,25.756Z" style="fill:rgb(158,161,168);fill-rule:nonzero;"/>
        </g>
        <g id="text1209" transform="matrix(0.738673,0,0,1.35378,0,0)">
            <path id="path1211" d="M102.711,154.285L101.533,154.285L102.73,148.571L105.268,148.571C105.704,148.571 106.043,148.616 106.285,148.707C106.529,148.796 106.726,148.959 106.874,149.198C107.024,149.437 107.1,149.727 107.1,150.068C107.1,150.553 106.954,150.955 106.663,151.272C106.372,151.586 105.932,151.781 105.342,151.857C105.493,151.992 105.634,152.17 105.767,152.391C106.029,152.838 106.321,153.469 106.644,154.285L105.381,154.285C105.279,153.963 105.081,153.46 104.784,152.777C104.623,152.408 104.452,152.159 104.27,152.032C104.158,151.957 103.963,151.919 103.685,151.919L103.206,151.919L102.711,154.285ZM103.385,151.062L104.009,151.062C104.64,151.062 105.059,151.024 105.264,150.948C105.472,150.873 105.634,150.755 105.751,150.594C105.868,150.433 105.926,150.264 105.926,150.087C105.926,149.879 105.842,149.723 105.673,149.619C105.569,149.557 105.344,149.526 104.999,149.526L103.705,149.526L103.385,151.062Z" style="fill:rgb(158,161,168);fill-rule:nonzero;"/>
            <path id="path1213" d="M107.279,154.285L108.472,148.571L112.709,148.571L112.51,149.526L109.45,149.526L109.177,150.824L112.136,150.824L111.937,151.779L108.979,151.779L108.62,153.33L111.945,153.33L111.742,154.285L107.279,154.285Z" style="fill:rgb(158,161,168);fill-rule:nonzero;"/>
            <path id="path1215" d="M112.791,152.434L113.91,152.375C113.925,152.731 113.986,152.972 114.093,153.096C114.264,153.299 114.581,153.4 115.044,153.4C115.429,153.4 115.707,153.331 115.878,153.194C116.05,153.056 116.135,152.89 116.135,152.695C116.135,152.526 116.065,152.383 115.925,152.266C115.826,152.18 115.555,152.041 115.11,151.849C114.668,151.657 114.345,151.497 114.14,151.369C113.937,151.24 113.777,151.072 113.66,150.867C113.543,150.661 113.485,150.421 113.485,150.145C113.485,149.665 113.659,149.266 114.007,148.949C114.355,148.632 114.859,148.473 115.519,148.473C116.19,148.473 116.708,148.63 117.075,148.945C117.444,149.259 117.647,149.678 117.683,150.2L116.556,150.251C116.528,149.978 116.429,149.769 116.26,149.623C116.091,149.478 115.842,149.405 115.512,149.405C115.187,149.405 114.954,149.462 114.814,149.576C114.676,149.691 114.607,149.835 114.607,150.009C114.607,150.173 114.671,150.308 114.798,150.414C114.926,150.524 115.208,150.673 115.644,150.863C116.302,151.146 116.72,151.376 116.899,151.553C117.167,151.813 117.301,152.146 117.301,152.554C117.301,153.059 117.101,153.49 116.701,153.849C116.303,154.205 115.748,154.383 115.036,154.383C114.545,154.383 114.119,154.301 113.758,154.137C113.399,153.971 113.146,153.741 112.998,153.447C112.849,153.153 112.781,152.816 112.791,152.434L112.791,152.434Z" style="fill:rgb(158,161,168);fill-rule:nonzero;"/>
            <path id="path1219" d="M117.944,154.285L119.137,148.571L123.374,148.571L123.175,149.526L120.115,149.526L119.842,150.824L122.801,150.824L122.602,151.779L119.644,151.779L119.285,153.33L122.61,153.33L122.407,154.285L117.944,154.285Z" style="fill:rgb(158,161,168);fill-rule:nonzero;"/>
            <path id="path1221" d="M125.763,154.285L124.586,154.285L125.584,149.526L123.908,149.526L124.107,148.571L128.609,148.571L128.41,149.526L126.757,149.526L125.763,154.285Z" style="fill:rgb(158,161,168);fill-rule:nonzero;"/>
        </g>
        <g id="text1239" transform="matrix(0.70626,0,0,1.41591,0,0)">
            <path id="path1245" d="M3.957,35.293L2.832,35.293L3.976,29.829L6.197,29.829C6.592,29.829 6.904,29.876 7.133,29.97C7.364,30.062 7.546,30.216 7.681,30.433C7.815,30.646 7.882,30.902 7.882,31.2C7.882,31.476 7.828,31.744 7.722,32.005C7.615,32.266 7.483,32.475 7.327,32.631C7.172,32.788 7.006,32.907 6.827,32.989C6.648,33.069 6.407,33.13 6.104,33.172C5.928,33.197 5.597,33.209 5.113,33.209L4.393,33.209L3.957,35.293ZM4.58,32.303L4.926,32.303C5.52,32.303 5.917,32.266 6.115,32.192C6.314,32.117 6.471,31.998 6.585,31.834C6.699,31.67 6.756,31.49 6.756,31.293C6.756,31.162 6.727,31.054 6.667,30.969C6.61,30.885 6.528,30.824 6.421,30.787C6.317,30.747 6.082,30.727 5.716,30.727L4.911,30.727L4.58,32.303Z" style="fill:rgb(158,161,168);fill-rule:nonzero;"/>
            <path id="path1248" d="M9.078,29.829L10.2,29.829L9.581,32.795L9.429,33.526C9.419,33.588 9.414,33.646 9.414,33.701C9.414,33.917 9.492,34.096 9.648,34.238C9.807,34.377 10.037,34.446 10.338,34.446C10.609,34.446 10.832,34.396 11.009,34.294C11.185,34.192 11.322,34.04 11.419,33.839C11.516,33.638 11.614,33.296 11.713,32.814L12.339,29.829L13.461,29.829L12.839,32.818C12.707,33.446 12.555,33.927 12.384,34.26C12.213,34.593 11.953,34.864 11.605,35.073C11.257,35.281 10.817,35.386 10.286,35.386C9.65,35.386 9.163,35.23 8.825,34.92C8.487,34.607 8.318,34.205 8.318,33.716C8.318,33.614 8.327,33.504 8.344,33.384C8.354,33.305 8.397,33.079 8.474,32.706L9.078,29.829Z" style="fill:rgb(158,161,168);fill-rule:nonzero;"/>
            <path id="path1250" d="M13.48,35.293L14.624,29.829L15.746,29.829L14.795,34.379L17.576,34.379L17.386,35.293L13.48,35.293Z" style="fill:rgb(158,161,168);fill-rule:nonzero;"/>
            <path id="path1252" d="M18.288,33.522L19.357,33.466C19.372,33.807 19.43,34.037 19.532,34.156C19.696,34.35 19.999,34.446 20.442,34.446C20.809,34.446 21.075,34.381 21.239,34.249C21.403,34.117 21.485,33.958 21.485,33.772C21.485,33.61 21.418,33.474 21.284,33.362C21.19,33.28 20.93,33.147 20.505,32.963C20.083,32.779 19.773,32.626 19.577,32.505C19.383,32.381 19.23,32.22 19.119,32.024C19.007,31.828 18.951,31.598 18.951,31.334C18.951,30.875 19.117,30.493 19.45,30.19C19.783,29.887 20.265,29.736 20.896,29.736C21.537,29.736 22.033,29.886 22.383,30.187C22.736,30.487 22.93,30.887 22.965,31.387L21.888,31.435C21.86,31.174 21.766,30.974 21.605,30.835C21.443,30.696 21.205,30.626 20.889,30.626C20.578,30.626 20.356,30.681 20.222,30.79C20.09,30.9 20.024,31.038 20.024,31.204C20.024,31.361 20.085,31.49 20.207,31.592C20.329,31.696 20.598,31.839 21.016,32.02C21.644,32.291 22.044,32.511 22.216,32.68C22.472,32.928 22.6,33.248 22.6,33.638C22.6,34.12 22.408,34.532 22.026,34.875C21.646,35.215 21.115,35.386 20.434,35.386C19.965,35.386 19.557,35.307 19.212,35.151C18.869,34.992 18.627,34.772 18.485,34.491C18.343,34.21 18.278,33.887 18.288,33.522Z" style="fill:rgb(158,161,168);fill-rule:nonzero;"/>
            <path id="path1254" d="M23.215,35.293L24.355,29.829L28.406,29.829L28.216,30.742L25.291,30.742L25.03,31.983L27.858,31.983L27.668,32.896L24.84,32.896L24.497,34.379L27.676,34.379L27.482,35.293L23.215,35.293Z" style="fill:rgb(158,161,168);fill-rule:nonzero;"/>
            <path id="path1257" d="M32.018,35.184C31.844,35.252 31.664,35.302 31.477,35.337C31.291,35.372 31.098,35.389 30.9,35.389C30.234,35.389 29.695,35.182 29.282,34.767C28.872,34.35 28.667,33.805 28.667,33.135C28.667,32.585 28.795,32.03 29.051,31.469C29.307,30.907 29.667,30.479 30.132,30.183C30.599,29.885 31.129,29.736 31.723,29.736C32.399,29.736 32.944,29.946 33.359,30.365C33.774,30.783 33.982,31.339 33.982,32.035C33.982,32.567 33.87,33.076 33.646,33.563C33.425,34.05 33.128,34.445 32.756,34.748C32.994,34.982 33.245,35.173 33.508,35.322L32.979,36.019C32.631,35.85 32.311,35.572 32.018,35.184ZM32.111,33.969C32.337,33.741 32.518,33.445 32.655,33.082C32.794,32.72 32.864,32.378 32.864,32.058C32.864,31.625 32.748,31.287 32.517,31.044C32.286,30.798 31.992,30.675 31.634,30.675C31.388,30.675 31.16,30.732 30.952,30.846C30.743,30.958 30.551,31.121 30.374,31.334C30.2,31.548 30.057,31.813 29.946,32.128C29.836,32.444 29.782,32.759 29.782,33.075C29.782,33.5 29.898,33.835 30.132,34.081C30.368,34.325 30.669,34.446 31.034,34.446C31.136,34.446 31.242,34.439 31.354,34.424C31.394,34.417 31.418,34.409 31.425,34.402C31.435,34.394 31.44,34.383 31.44,34.368C31.44,34.348 31.403,34.304 31.328,34.234C31.172,34.085 31.005,33.978 30.829,33.914L31.239,33.287C31.574,33.456 31.865,33.684 32.111,33.969Z" style="fill:rgb(158,161,168);fill-rule:nonzero;"/>
        </g>
        <g id="text1243" transform="matrix(0.70626,0,0,1.41591,0,0)">
            <path id="path1264" d="M3.957,158.182L2.832,158.182L3.976,152.718L6.197,152.718C6.592,152.718 6.904,152.765 7.133,152.86C7.364,152.952 7.546,153.106 7.681,153.322C7.815,153.535 7.882,153.791 7.882,154.09C7.882,154.365 7.828,154.634 7.722,154.895C7.615,155.155 7.483,155.364 7.327,155.521C7.172,155.677 7.006,155.797 6.827,155.879C6.648,155.958 6.407,156.019 6.104,156.061C5.928,156.086 5.597,156.099 5.113,156.099L4.393,156.099L3.957,158.182ZM4.58,155.193L4.926,155.193C5.52,155.193 5.917,155.156 6.115,155.081C6.314,155.006 6.471,154.887 6.585,154.723C6.699,154.559 6.756,154.379 6.756,154.183C6.756,154.051 6.727,153.943 6.667,153.859C6.61,153.774 6.528,153.713 6.421,153.676C6.317,153.636 6.082,153.616 5.716,153.616L4.911,153.616L4.58,155.193Z" style="fill:rgb(158,161,168);fill-rule:nonzero;"/>
            <path id="path1266" d="M9.078,152.718L10.2,152.718L9.581,155.685L9.429,156.415C9.419,156.477 9.414,156.536 9.414,156.59C9.414,156.807 9.492,156.985 9.648,157.127C9.807,157.266 10.037,157.336 10.338,157.336C10.609,157.336 10.832,157.285 11.009,157.183C11.185,157.081 11.322,156.93 11.419,156.728C11.516,156.527 11.614,156.185 11.713,155.703L12.339,152.718L13.461,152.718L12.839,155.707C12.707,156.336 12.555,156.816 12.384,157.149C12.213,157.482 11.953,157.753 11.605,157.962C11.257,158.171 10.817,158.275 10.286,158.275C9.65,158.275 9.163,158.12 8.825,157.809C8.487,157.496 8.318,157.095 8.318,156.605C8.318,156.503 8.327,156.393 8.344,156.274C8.354,156.194 8.397,155.968 8.474,155.595L9.078,152.718Z" style="fill:rgb(158,161,168);fill-rule:nonzero;"/>
            <path id="path1269" d="M13.48,158.182L14.624,152.718L15.746,152.718L14.795,157.269L17.576,157.269L17.386,158.182L13.48,158.182Z" style="fill:rgb(158,161,168);fill-rule:nonzero;"/>
            <path id="path1271" d="M18.288,156.411L19.357,156.356C19.372,156.696 19.43,156.926 19.532,157.045C19.696,157.239 19.999,157.336 20.442,157.336C20.809,157.336 21.075,157.27 21.239,157.138C21.403,157.007 21.485,156.848 21.485,156.661C21.485,156.5 21.418,156.363 21.284,156.251C21.19,156.169 20.93,156.036 20.505,155.852C20.083,155.669 19.773,155.516 19.577,155.394C19.383,155.27 19.23,155.11 19.119,154.913C19.007,154.717 18.951,154.487 18.951,154.224C18.951,153.764 19.117,153.383 19.45,153.08C19.783,152.776 20.265,152.625 20.896,152.625C21.537,152.625 22.033,152.775 22.383,153.076C22.736,153.376 22.93,153.777 22.965,154.276L21.888,154.324C21.86,154.063 21.766,153.863 21.605,153.724C21.443,153.585 21.205,153.516 20.889,153.516C20.578,153.516 20.356,153.57 20.222,153.68C20.09,153.789 20.024,153.927 20.024,154.093C20.024,154.25 20.085,154.379 20.207,154.481C20.329,154.585 20.598,154.728 21.016,154.91C21.644,155.18 22.044,155.4 22.216,155.569C22.472,155.818 22.6,156.137 22.6,156.527C22.6,157.009 22.408,157.422 22.026,157.764C21.646,158.105 21.115,158.275 20.434,158.275C19.965,158.275 19.557,158.197 19.212,158.04C18.869,157.881 18.627,157.661 18.485,157.381C18.343,157.1 18.278,156.777 18.288,156.412L18.288,156.411Z" style="fill:rgb(158,161,168);fill-rule:nonzero;"/>
            <path id="path1273" d="M23.215,158.182L24.355,152.718L28.406,152.718L28.216,153.631L25.291,153.631L25.03,154.872L27.858,154.872L27.668,155.785L24.84,155.785L24.497,157.269L27.676,157.269L27.482,158.182L23.215,158.182Z" style="fill:rgb(158,161,168);fill-rule:nonzero;"/>
            <path id="path1275" d="M32.018,158.074C31.844,158.141 31.664,158.192 31.477,158.227C31.291,158.261 31.098,158.279 30.9,158.279C30.234,158.279 29.695,158.071 29.282,157.656C28.872,157.239 28.667,156.695 28.667,156.024C28.667,155.475 28.795,154.919 29.051,154.358C29.307,153.796 29.667,153.368 30.132,153.072C30.599,152.774 31.129,152.625 31.723,152.625C32.399,152.625 32.944,152.835 33.359,153.255C33.774,153.672 33.982,154.229 33.982,154.924C33.982,155.456 33.87,155.965 33.646,156.452C33.425,156.939 33.128,157.335 32.756,157.638C32.994,157.871 33.245,158.063 33.508,158.212L32.979,158.909C32.631,158.74 32.311,158.461 32.018,158.074ZM32.111,156.859C32.337,156.63 32.518,156.334 32.655,155.972C32.794,155.609 32.864,155.267 32.864,154.947C32.864,154.514 32.748,154.177 32.517,153.933C32.286,153.687 31.992,153.564 31.634,153.564C31.388,153.564 31.16,153.621 30.952,153.736C30.743,153.847 30.551,154.01 30.374,154.224C30.2,154.437 30.057,154.702 29.946,155.018C29.836,155.333 29.782,155.649 29.782,155.964C29.782,156.389 29.898,156.725 30.132,156.971C30.368,157.214 30.669,157.336 31.034,157.336C31.136,157.336 31.242,157.328 31.354,157.313C31.394,157.306 31.418,157.299 31.425,157.291C31.435,157.284 31.44,157.272 31.44,157.258C31.44,157.238 31.403,157.193 31.328,157.123C31.172,156.974 31.005,156.867 30.829,156.803L31.239,156.177C31.574,156.346 31.865,156.573 32.111,156.859Z" style="fill:rgb(158,161,168);fill-rule:nonzero;"/>
        </g>
        <g id="g1475" transform="matrix(1.17658,7.2045e-17,-1.28104e-16,2.0921,487.769,227)">
            <g id="path1434" transform="matrix(0.739234,4.55588e-33,0,0.739234,-79.0339,0.997142)">
                <path d="M-314.646,5.67L-315.458,5.67L-316.121,1.975L-315.362,1.975L-314.893,4.77L-313.363,1.975L-312.61,1.975L-314.646,5.67Z" style="fill:rgb(158,161,168);fill-rule:nonzero;"/>
            </g>
            <g id="path1436" transform="matrix(0.739234,4.55588e-33,0,0.739234,-79.0339,0.997142)">
                <path d="M-312.806,4.221C-312.806,4.002 -312.773,3.772 -312.708,3.53C-312.622,3.206 -312.492,2.924 -312.317,2.686C-312.141,2.447 -311.919,2.259 -311.652,2.121C-311.385,1.982 -311.08,1.912 -310.739,1.912C-310.282,1.912 -309.913,2.054 -309.633,2.338C-309.35,2.622 -309.209,2.998 -309.209,3.467C-309.209,3.857 -309.301,4.234 -309.484,4.599C-309.667,4.964 -309.916,5.244 -310.23,5.441C-310.544,5.638 -310.9,5.736 -311.296,5.736C-311.641,5.736 -311.93,5.658 -312.163,5.501C-312.397,5.345 -312.563,5.152 -312.66,4.922C-312.758,4.69 -312.806,4.456 -312.806,4.221L-312.806,4.221ZM-312.055,4.206C-312.055,4.46 -311.978,4.672 -311.823,4.844C-311.669,5.015 -311.465,5.101 -311.213,5.101C-311.008,5.101 -310.812,5.033 -310.623,4.899C-310.433,4.763 -310.277,4.558 -310.154,4.284C-310.03,4.008 -309.968,3.74 -309.968,3.48C-309.968,3.189 -310.046,2.961 -310.202,2.797C-310.359,2.63 -310.558,2.547 -310.8,2.547C-311.171,2.547 -311.474,2.72 -311.707,3.066C-311.939,3.413 -312.055,3.792 -312.055,4.206L-312.055,4.206Z" style="fill:rgb(158,161,168);fill-rule:nonzero;"/>
            </g>
            <g id="path1438" transform="matrix(0.739234,4.55588e-33,0,0.739234,-79.0339,0.997142)">
                <path d="M-309.013,5.67L-308.239,1.975L-307.48,1.975L-308.123,5.053L-306.242,5.053L-306.371,5.67L-309.013,5.67Z" style="fill:rgb(158,161,168);fill-rule:nonzero;"/>
            </g>
            <g id="path1440" transform="matrix(0.739234,4.55588e-33,0,0.739234,-79.0339,0.997142)">
                <path d="M-304.652,5.67L-305.413,5.67L-304.768,2.593L-305.852,2.593L-305.723,1.975L-302.812,1.975L-302.94,2.593L-304.009,2.593L-304.652,5.67Z" style="fill:rgb(158,161,168);fill-rule:nonzero;"/>
            </g>
            <g id="path1473" transform="matrix(0.739234,9.11177e-33,0,0.739234,-100.396,0.997142)">
                <path d="M-274.091,4.473L-273.367,4.435C-273.357,4.665 -273.318,4.821 -273.249,4.902C-273.138,5.033 -272.933,5.098 -272.634,5.098C-272.385,5.098 -272.205,5.054 -272.094,4.965C-271.983,4.875 -271.928,4.768 -271.928,4.642C-271.928,4.533 -271.973,4.44 -272.064,4.365C-272.128,4.309 -272.304,4.219 -272.591,4.095C-272.877,3.971 -273.086,3.867 -273.219,3.785C-273.35,3.701 -273.453,3.592 -273.529,3.46C-273.604,3.327 -273.642,3.171 -273.642,2.993C-273.642,2.682 -273.53,2.424 -273.304,2.219C-273.079,2.014 -272.753,1.912 -272.326,1.912C-271.893,1.912 -271.557,2.014 -271.321,2.217C-271.082,2.42 -270.951,2.691 -270.927,3.029L-271.656,3.061C-271.674,2.885 -271.738,2.75 -271.847,2.656C-271.957,2.561 -272.118,2.514 -272.331,2.514C-272.541,2.514 -272.692,2.551 -272.783,2.625C-272.872,2.699 -272.916,2.793 -272.916,2.905C-272.916,3.011 -272.875,3.098 -272.793,3.167C-272.71,3.238 -272.528,3.334 -272.246,3.457C-271.82,3.64 -271.55,3.789 -271.434,3.903C-271.261,4.071 -271.174,4.287 -271.174,4.551C-271.174,4.877 -271.304,5.156 -271.563,5.388C-271.82,5.618 -272.178,5.733 -272.639,5.733C-272.957,5.733 -273.232,5.68 -273.466,5.575C-273.698,5.467 -273.861,5.318 -273.957,5.128C-274.053,4.938 -274.098,4.72 -274.091,4.473L-274.091,4.473Z" style="fill:rgb(158,161,168);fill-rule:nonzero;"/>
            </g>
        </g>
        <g id="g14751" serif:id="g1475" transform="matrix(1.17658,7.2045e-17,-1.28104e-16,2.0921,487.769,53)">
            <g id="path14341" serif:id="path1434" transform="matrix(0.739234,4.55588e-33,0,0.739234,-79.0339,0.997142)">
                <path d="M-314.646,5.67L-315.458,5.67L-316.121,1.975L-315.362,1.975L-314.893,4.77L-313.363,1.975L-312.61,1.975L-314.646,5.67Z" style="fill:rgb(158,161,168);fill-rule:nonzero;"/>
            </g>
            <g id="path14361" serif:id="path1436" transform="matrix(0.739234,4.55588e-33,0,0.739234,-79.0339,0.997142)">
                <path d="M-312.806,4.221C-312.806,4.002 -312.773,3.772 -312.708,3.53C-312.622,3.206 -312.492,2.924 -312.317,2.686C-312.141,2.447 -311.919,2.259 -311.652,2.121C-311.385,1.982 -311.08,1.912 -310.739,1.912C-310.282,1.912 -309.913,2.054 -309.633,2.338C-309.35,2.622 -309.209,2.998 -309.209,3.467C-309.209,3.857 -309.301,4.234 -309.484,4.599C-309.667,4.964 -309.916,5.244 -310.23,5.441C-310.544,5.638 -310.9,5.736 -311.296,5.736C-311.641,5.736 -311.93,5.658 -312.163,5.501C-312.397,5.345 -312.563,5.152 -312.66,4.922C-312.758,4.69 -312.806,4.456 -312.806,4.221L-312.806,4.221ZM-312.055,4.206C-312.055,4.46 -311.978,4.672 -311.823,4.844C-311.669,5.015 -311.465,5.101 -311.213,5.101C-311.008,5.101 -310.812,5.033 -310.623,4.899C-310.433,4.763 -310.277,4.558 -310.154,4.284C-310.03,4.008 -309.968,3.74 -309.968,3.48C-309.968,3.189 -310.046,2.961 -310.202,2.797C-310.359,2.63 -310.558,2.547 -310.8,2.547C-311.171,2.547 -311.474,2.72 -311.707,3.066C-311.939,3.413 -312.055,3.792 -312.055,4.206L-312.055,4.206Z" style="fill:rgb(158,161,168);fill-rule:nonzero;"/>
            </g>
            <g id="path14381" serif:id="path1438" transform="matrix(0.739234,4.55588e-33,0,0.739234,-79.0339,0.997142)">
                <path d="M-309.013,5.67L-308.239,1.975L-307.48,1.975L-308.123,5.053L-306.242,5.053L-306.371,5.67L-309.013,5.67Z" style="fill:rgb(158,161,168);fill-rule:nonzero;"/>
            </g>
            <g id="path14401" serif:id="path1440" transform="matrix(0.739234,4.55588e-33,0,0.739234,-79.0339,0.997142)">
                <path d="M-304.652,5.67L-305.413,5.67L-304.768,2.593L-305.852,2.593L-305.723,1.975L-302.812,1.975L-302.94,2.593L-304.009,2.593L-304.652,5.67Z" style="fill:rgb(158,161,168);fill-rule:nonzero;"/>
            </g>
            <g id="path14731" serif:id="path1473" transform="matrix(0.739234,9.11177e-33,0,0.739234,-100.396,0.997142)">
                <path d="M-274.091,4.473L-273.367,4.435C-273.357,4.665 -273.318,4.821 -273.249,4.902C-273.138,5.033 -272.933,5.098 -272.634,5.098C-272.385,5.098 -272.205,5.054 -272.094,4.965C-271.983,4.875 -271.928,4.768 -271.928,4.642C-271.928,4.533 -271.973,4.44 -272.064,4.365C-272.128,4.309 -272.304,4.219 -272.591,4.095C-272.877,3.971 -273.086,3.867 -273.219,3.785C-273.35,3.701 -273.453,3.592 -273.529,3.46C-273.604,3.327 -273.642,3.171 -273.642,2.993C-273.642,2.682 -273.53,2.424 -273.304,2.219C-273.079,2.014 -272.753,1.912 -272.326,1.912C-271.893,1.912 -271.557,2.014 -271.321,2.217C-271.082,2.42 -270.951,2.691 -270.927,3.029L-271.656,3.061C-271.674,2.885 -271.738,2.75 -271.847,2.656C-271.957,2.561 -272.118,2.514 -272.331,2.514C-272.541,2.514 -272.692,2.551 -272.783,2.625C-272.872,2.699 -272.916,2.793 -272.916,2.905C-272.916,3.011 -272.875,3.098 -272.793,3.167C-272.71,3.238 -272.528,3.334 -272.246,3.457C-271.82,3.64 -271.55,3.789 -271.434,3.903C-271.261,4.071 -271.174,4.287 -271.174,4.551C-271.174,4.877 -271.304,5.156 -271.563,5.388C-271.82,5.618 -272.178,5.733 -272.639,5.733C-272.957,5.733 -273.232,5.68 -273.466,5.575C-273.698,5.467 -273.861,5.318 -273.957,5.128C-274.053,4.938 -274.098,4.72 -274.091,4.473L-274.091,4.473Z" style="fill:rgb(158,161,168);fill-rule:nonzero;"/>
            </g>
        </g>
    </g>
</svg>
