<?xml version="1.0" encoding="UTF-8" standalone="no"?>
<!DOCTYPE svg PUBLIC "-//W3C//DTD SVG 1.1//EN" "http://www.w3.org/Graphics/SVG/1.1/DTD/svg11.dtd">
<svg width="100%" height="100%" viewBox="0 0 15 380" version="1.1" xmlns="http://www.w3.org/2000/svg" xmlns:xlink="http://www.w3.org/1999/xlink" xml:space="preserve" xmlns:serif="http://www.serif.com/" style="fill-rule:evenodd;clip-rule:evenodd;stroke-linejoin:round;stroke-miterlimit:2;">
    <g id="Layer-2" serif:id="Layer 2">
        <rect id="_-rect4689" serif:id="#rect4689" x="0" y="0" width="15" height="380" style="fill:rgb(44,45,48);"/>
        <path id="path4726" d="M4.754,375L4.754,367.275L6.765,367.275L7.821,369.987C7.878,370.147 7.942,370.33 8.013,370.537C8.087,370.744 8.168,370.982 8.255,371.253L8.473,371.933C8.395,371.263 8.336,370.689 8.296,370.212C8.255,369.735 8.235,369.335 8.235,369.011L8.235,367.275L10.246,367.275L10.246,375L8.235,375L7.174,372.158C7.063,371.855 6.962,371.571 6.871,371.308C6.783,371.041 6.706,370.787 6.638,370.547C6.682,371.091 6.714,371.565 6.734,371.968C6.755,372.372 6.765,372.725 6.765,373.029L6.765,375L4.754,375Z" style="fill:rgb(158,161,168);fill-rule:nonzero;"/>
        <path id="path878" d="M3.254,18L3.254,5.938L6.363,5.938L7.996,10.172C8.085,10.422 8.184,10.708 8.293,11.031C8.408,11.354 8.533,11.727 8.668,12.148L9.004,13.211C8.884,12.164 8.793,11.268 8.73,10.523C8.668,9.779 8.637,9.154 8.637,8.648L8.637,5.938L11.746,5.938L11.746,18L8.637,18L6.996,13.563C6.824,13.089 6.668,12.646 6.527,12.234C6.392,11.818 6.272,11.422 6.168,11.047C6.236,11.896 6.285,12.635 6.316,13.266C6.348,13.896 6.363,14.448 6.363,14.922L6.363,18L3.254,18Z" style="fill:rgb(158,161,168);fill-rule:nonzero;"/>
        <path id="SS2" d="M29.994,51.703C35.088,51.703 38.033,51.621 38.83,51.457C39.635,51.301 40.037,50.676 40.037,49.582C40.037,48.27 39.475,47.438 38.35,47.086C37.232,46.766 34.447,46.605 29.994,46.605C21.197,46.605 15.646,45.969 13.342,44.695C11.037,43.414 9.885,40.246 9.885,35.191C9.885,30.52 11.389,27.527 14.396,26.215C16.701,25.223 21.822,24.727 29.76,24.727C36.83,24.727 41.311,24.918 43.201,25.301C47.646,26.191 49.869,29.965 49.869,36.621L39.311,36.621C39.311,34.801 38.912,33.73 38.115,33.41C37.311,33.121 34.541,32.977 29.807,32.977C25.041,32.977 22.291,33.059 21.557,33.223C20.814,33.41 20.443,34.066 20.443,35.191C20.443,36.371 21.068,37.137 22.318,37.488C23.568,37.84 26.127,38.016 29.994,38.016C38.705,38.016 44.322,38.703 46.846,40.078C49.346,41.453 50.596,44.621 50.596,49.582C50.596,54.16 49.186,57.09 46.365,58.371C43.936,59.457 38.463,60 29.947,60C23.393,60 19.139,59.855 17.186,59.566C14.178,59.121 12.131,58.066 11.045,56.402C9.951,54.77 9.404,51.922 9.404,47.859L19.963,47.859C19.963,49.781 20.377,50.902 21.205,51.223C22.041,51.543 24.971,51.703 29.994,51.703Z" style="fill-opacity:0;fill-rule:nonzero;"/>
    </g>
</svg>
