<?xml version="1.0" encoding="UTF-8" standalone="no"?>
<!DOCTYPE svg PUBLIC "-//W3C//DTD SVG 1.1//EN" "http://www.w3.org/Graphics/SVG/1.1/DTD/svg11.dtd">
<svg width="100%" height="100%" viewBox="0 0 60 380" version="1.1" xmlns="http://www.w3.org/2000/svg" xmlns:xlink="http://www.w3.org/1999/xlink" xml:space="preserve" xmlns:serif="http://www.serif.com/" style="fill-rule:evenodd;clip-rule:evenodd;stroke-linejoin:round;stroke-miterlimit:2;">
    <g id="Layer-2" serif:id="Layer 2">
        <rect id="_-rect4689" serif:id="#rect4689" x="0" y="0" width="60" height="380" style="fill:rgb(44,45,48);"/>
        <g id="text80" transform="matrix(1.00498,0,0,0.995047,-15,4.99997)">
            <path id="path4726" d="M29.851,371.706L29.851,363.943L31.853,363.943L32.903,366.668C32.96,366.829 33.024,367.013 33.094,367.221C33.168,367.429 33.249,367.668 33.336,367.94L33.552,368.624C33.475,367.95 33.416,367.373 33.376,366.894C33.336,366.415 33.316,366.013 33.316,365.687L33.316,363.943L35.317,363.943L35.317,371.706L33.316,371.706L32.26,368.85C32.149,368.545 32.049,368.26 31.958,367.995C31.871,367.727 31.794,367.472 31.727,367.231C31.77,367.777 31.802,368.253 31.822,368.659C31.843,369.065 31.853,369.42 31.853,369.725L31.853,371.706L29.851,371.706Z" style="fill:rgb(158,161,168);fill-rule:nonzero;"/>
            <path id="path4728" d="M39.887,371.706L37.791,371.706L37.791,368.418L35.865,363.943L38.052,363.943L38.429,365.094C38.503,365.319 38.568,365.535 38.625,365.743C38.686,365.951 38.739,366.15 38.786,366.341C38.863,366.056 38.93,365.811 38.987,365.607C39.044,365.399 39.095,365.232 39.138,365.104L39.52,363.943L41.692,363.943L39.887,368.418L39.887,371.706Z" style="fill:rgb(158,161,168);fill-rule:nonzero;"/>
            <path id="path4730" d="M41.894,371.515L41.894,369.076C42.306,369.639 42.752,369.921 43.231,369.921C43.412,369.921 43.56,369.874 43.673,369.78C43.787,369.683 43.844,369.562 43.844,369.418C43.844,369.21 43.72,369.008 43.472,368.81L43.13,368.543C42.902,368.372 42.708,368.203 42.547,368.035C42.386,367.865 42.256,367.69 42.155,367.513C42.054,367.332 41.981,367.146 41.934,366.954C41.887,366.763 41.863,366.562 41.863,366.351C41.863,365.989 41.947,365.61 42.115,365.215C42.199,365.03 42.296,364.863 42.406,364.712C42.517,364.558 42.644,364.422 42.789,364.305C43.184,363.969 43.662,363.802 44.222,363.802C44.721,363.802 45.224,363.934 45.73,364.199L45.73,366.572C45.559,366.308 45.365,366.1 45.147,365.949C44.929,365.795 44.714,365.718 44.503,365.718C44.342,365.718 44.21,365.765 44.106,365.858C43.999,365.949 43.945,366.058 43.945,366.185C43.945,366.393 44.087,366.599 44.372,366.804L44.704,367.05C45.147,367.368 45.463,367.695 45.655,368.03C45.849,368.366 45.946,368.758 45.946,369.207C45.946,369.971 45.713,370.601 45.247,371.098C44.781,371.594 44.191,371.842 43.477,371.842C42.985,371.842 42.457,371.733 41.894,371.515L41.894,371.515Z" style="fill:rgb(158,161,168);fill-rule:nonzero;"/>
            <path id="path4732" d="M49.576,371.706L47.48,371.706L47.48,365.803L46.323,365.803L46.323,363.943L50.778,363.943L50.778,365.803L49.576,365.803L49.576,371.706Z" style="fill:rgb(158,161,168);fill-rule:nonzero;"/>
            <path id="path4734" d="M56.525,371.706L54.428,371.706L54.428,368.584L53.428,368.584L53.428,371.706L51.331,371.706L51.331,363.943L53.428,363.943L53.428,366.688L54.428,366.688L54.428,363.943L56.525,363.943L56.525,371.706Z" style="fill:rgb(158,161,168);fill-rule:nonzero;"/>
            <rect id="path4736" x="57.606" y="363.943" width="2.097" height="7.763" style="fill:rgb(158,161,168);fill-rule:nonzero;"/>
        </g>
        <g id="text1348">
        </g>
        <g id="text1352">
        </g>
        <g id="text1356">
        </g>
        <g id="text1360">
        </g>
        <g id="text1364">
        </g>
        <g id="text1368">
        </g>
        <rect id="II" x="24.721" y="275.734" width="10.559" height="34.266" style="fill:rgb(171,112,199);fill-rule:nonzero;"/>
        <path id="HH" d="M18.598,225.734L18.598,237.734L41.402,237.734L41.402,225.734L51.961,225.734L51.961,260L41.402,260L41.402,246.605L18.598,246.605L18.598,260L8.039,260L8.039,225.734L18.598,225.734Z" style="fill:rgb(224,131,81);fill-rule:nonzero;"/>
        <path id="TT" d="M9.574,184.559L9.574,175.676L50.426,175.676L50.426,184.559L35.309,184.559L35.309,210L24.75,210L24.75,184.559L9.574,184.559Z" style="fill:rgb(204,122,113);fill-rule:nonzero;"/>
        <path id="SS" d="M29.994,151.703C35.088,151.703 38.033,151.621 38.83,151.457C39.635,151.301 40.037,150.676 40.037,149.582C40.037,148.27 39.475,147.437 38.35,147.086C37.232,146.766 34.447,146.605 29.994,146.605C21.197,146.605 15.646,145.969 13.342,144.695C11.037,143.414 9.885,140.246 9.885,135.191C9.885,130.52 11.389,127.527 14.396,126.215C16.701,125.223 21.822,124.727 29.76,124.727C36.83,124.727 41.311,124.918 43.201,125.301C47.646,126.191 49.869,129.965 49.869,136.621L39.311,136.621C39.311,134.801 38.912,133.73 38.115,133.41C37.311,133.121 34.541,132.977 29.807,132.977C25.041,132.977 22.291,133.059 21.557,133.223C20.814,133.41 20.443,134.066 20.443,135.191C20.443,136.371 21.068,137.137 22.318,137.488C23.568,137.84 26.127,138.016 29.994,138.016C38.705,138.016 44.322,138.703 46.846,140.078C49.346,141.453 50.596,144.621 50.596,149.582C50.596,154.16 49.186,157.09 46.365,158.371C43.936,159.457 38.463,160 29.947,160C23.393,160 19.139,159.855 17.186,159.566C14.178,159.121 12.131,158.066 11.045,156.402C9.951,154.77 9.404,151.922 9.404,147.859L19.963,147.859C19.963,149.781 20.377,150.902 21.205,151.223C22.041,151.543 24.971,151.703 29.994,151.703Z" style="fill:rgb(227,190,126);fill-rule:nonzero;"/>
        <path id="YY" d="M5.279,75.723L24.58,98.141L24.58,110L35.139,110L35.139,98.141L54.721,75.723L40.271,75.723L31.436,86.961C30.865,87.695 30.498,88.621 30.334,89.738C30.178,90.895 30.064,91.473 29.994,91.473C29.869,90.801 29.729,90.031 29.572,89.164C29.377,88.305 29.041,87.57 28.564,86.961L19.729,75.723L5.279,75.723Z" style="fill:rgb(95,174,149);fill-rule:nonzero;"/>
        <path id="NN" d="M53.162,25.734L42.604,25.734L42.604,49.348C42.861,50.238 43.115,51.117 43.365,51.984C43.365,52.305 43.381,52.625 43.412,52.945C43.193,52.945 42.986,52.738 42.791,52.324C42.572,51.902 42.365,51.484 42.17,51.07L24.123,25.734L6.838,25.734L6.838,60L17.396,60L17.396,36.34C17.396,36.309 17.127,35.426 16.588,33.691C16.557,33.379 16.541,33.062 16.541,32.742C16.76,32.742 16.982,32.949 17.209,33.363C17.404,33.809 17.596,34.223 17.783,34.605L35.877,60L53.162,60L53.162,25.734Z" style="fill:rgb(81,170,224);fill-rule:nonzero;"/>
        <path id="NN2" d="M53.162,125.734L42.604,125.734L42.604,149.348C42.861,150.238 43.115,151.117 43.365,151.984C43.365,152.305 43.381,152.625 43.412,152.945C43.193,152.945 42.986,152.738 42.791,152.324C42.572,151.902 42.365,151.484 42.17,151.07L24.123,125.734L6.838,125.734L6.838,160L17.396,160L17.396,136.34C17.396,136.309 17.127,135.426 16.588,133.691C16.557,133.379 16.541,133.062 16.541,132.742C16.76,132.742 16.982,132.949 17.209,133.363C17.404,133.809 17.596,134.223 17.783,134.605L35.877,160L53.162,160L53.162,125.734Z" style="fill-opacity:0;fill-rule:nonzero;"/>
        <path id="SS2" d="M29.994,51.703C35.088,51.703 38.033,51.621 38.83,51.457C39.635,51.301 40.037,50.676 40.037,49.582C40.037,48.27 39.475,47.438 38.35,47.086C37.232,46.766 34.447,46.605 29.994,46.605C21.197,46.605 15.646,45.969 13.342,44.695C11.037,43.414 9.885,40.246 9.885,35.191C9.885,30.52 11.389,27.527 14.396,26.215C16.701,25.223 21.822,24.727 29.76,24.727C36.83,24.727 41.311,24.918 43.201,25.301C47.646,26.191 49.869,29.965 49.869,36.621L39.311,36.621C39.311,34.801 38.912,33.73 38.115,33.41C37.311,33.121 34.541,32.977 29.807,32.977C25.041,32.977 22.291,33.059 21.557,33.223C20.814,33.41 20.443,34.066 20.443,35.191C20.443,36.371 21.068,37.137 22.318,37.488C23.568,37.84 26.127,38.016 29.994,38.016C38.705,38.016 44.322,38.703 46.846,40.078C49.346,41.453 50.596,44.621 50.596,49.582C50.596,54.16 49.186,57.09 46.365,58.371C43.936,59.457 38.463,60 29.947,60C23.393,60 19.139,59.855 17.186,59.566C14.178,59.121 12.131,58.066 11.045,56.402C9.951,54.77 9.404,51.922 9.404,47.859L19.963,47.859C19.963,49.781 20.377,50.902 21.205,51.223C22.041,51.543 24.971,51.703 29.994,51.703Z" style="fill-opacity:0;fill-rule:nonzero;"/>
    </g>
</svg>
