<?xml version="1.0" encoding="UTF-8" standalone="no"?>
<!DOCTYPE svg PUBLIC "-//W3C//DTD SVG 1.1//EN" "http://www.w3.org/Graphics/SVG/1.1/DTD/svg11.dtd">
<svg width="100%" height="100%" viewBox="0 0 105 380" version="1.1" xmlns="http://www.w3.org/2000/svg" xmlns:xlink="http://www.w3.org/1999/xlink" xml:space="preserve" xmlns:serif="http://www.serif.com/" style="fill-rule:evenodd;clip-rule:evenodd;stroke-linecap:round;">
    <g id="Layer-2" serif:id="Layer 2">
        <g id="text989">
        </g>
        <rect id="rect4689" x="0" y="0" width="105" height="380" style="fill:rgb(44,45,48);"/>
        <g id="rect4778-3-6" transform="matrix(1,0,0,1,-29.5,0)">
            <rect x="35.5" y="27" width="34" height="42" style="fill:rgb(179,179,179);"/>
        </g>
        <g id="text80" transform="matrix(1.00498,0,0,0.995047,7.49999,4.99997)">
            <path id="path4726" d="M29.851,371.706L29.851,363.943L31.853,363.943L32.903,366.668C32.96,366.829 33.024,367.013 33.094,367.221C33.168,367.429 33.249,367.668 33.336,367.94L33.552,368.624C33.475,367.95 33.416,367.373 33.376,366.894C33.336,366.415 33.316,366.013 33.316,365.687L33.316,363.943L35.317,363.943L35.317,371.706L33.316,371.706L32.26,368.85C32.149,368.545 32.049,368.26 31.958,367.995C31.871,367.727 31.794,367.472 31.727,367.231C31.77,367.777 31.802,368.253 31.822,368.659C31.843,369.065 31.853,369.42 31.853,369.725L31.853,371.706L29.851,371.706Z" style="fill:rgb(158,161,168);fill-rule:nonzero;"/>
            <path id="path4728" d="M39.887,371.706L37.791,371.706L37.791,368.418L35.865,363.943L38.052,363.943L38.429,365.094C38.503,365.319 38.568,365.535 38.625,365.743C38.686,365.951 38.739,366.15 38.786,366.341C38.863,366.056 38.93,365.811 38.987,365.607C39.044,365.399 39.095,365.232 39.138,365.104L39.52,363.943L41.692,363.943L39.887,368.418L39.887,371.706Z" style="fill:rgb(158,161,168);fill-rule:nonzero;"/>
            <path id="path4730" d="M41.894,371.515L41.894,369.076C42.306,369.639 42.752,369.921 43.231,369.921C43.412,369.921 43.56,369.874 43.673,369.78C43.787,369.683 43.844,369.562 43.844,369.418C43.844,369.21 43.72,369.008 43.472,368.81L43.13,368.543C42.902,368.372 42.708,368.203 42.547,368.035C42.386,367.865 42.256,367.69 42.155,367.513C42.054,367.332 41.981,367.146 41.934,366.954C41.887,366.763 41.863,366.562 41.863,366.351C41.863,365.989 41.947,365.61 42.115,365.215C42.199,365.03 42.296,364.863 42.406,364.712C42.517,364.558 42.644,364.422 42.789,364.305C43.184,363.969 43.662,363.802 44.222,363.802C44.721,363.802 45.224,363.934 45.73,364.199L45.73,366.572C45.559,366.308 45.365,366.1 45.147,365.949C44.929,365.795 44.714,365.718 44.503,365.718C44.342,365.718 44.21,365.765 44.106,365.858C43.999,365.949 43.945,366.058 43.945,366.185C43.945,366.393 44.087,366.599 44.372,366.804L44.704,367.05C45.147,367.368 45.463,367.695 45.655,368.03C45.849,368.366 45.946,368.758 45.946,369.207C45.946,369.971 45.713,370.601 45.247,371.098C44.781,371.594 44.191,371.842 43.477,371.842C42.985,371.842 42.457,371.733 41.894,371.515L41.894,371.515Z" style="fill:rgb(158,161,168);fill-rule:nonzero;"/>
            <path id="path4732" d="M49.576,371.706L47.48,371.706L47.48,365.803L46.323,365.803L46.323,363.943L50.778,363.943L50.778,365.803L49.576,365.803L49.576,371.706Z" style="fill:rgb(158,161,168);fill-rule:nonzero;"/>
            <path id="path4734" d="M56.525,371.706L54.428,371.706L54.428,368.584L53.428,368.584L53.428,371.706L51.331,371.706L51.331,363.943L53.428,363.943L53.428,366.688L54.428,366.688L54.428,363.943L56.525,363.943L56.525,371.706Z" style="fill:rgb(158,161,168);fill-rule:nonzero;"/>
            <rect id="path4736" x="57.606" y="363.943" width="2.097" height="7.763" style="fill:rgb(158,161,168);fill-rule:nonzero;"/>
        </g>
        <g id="g4922">
            <rect id="rect4778" x="6" y="310" width="34" height="42" style="fill:rgb(60,60,60);"/>
            <g id="text4861">
                <path id="path4899" d="M16.849,345.271C16.849,346.139 16.609,346.83 16.13,347.344C15.651,347.858 15.009,348.115 14.203,348.115C13.411,348.115 12.781,347.852 12.313,347.328C11.847,346.8 11.615,346.092 11.615,345.203C11.615,344.314 11.852,343.601 12.328,343.062C12.8,342.521 13.427,342.25 14.208,342.25C15.031,342.25 15.677,342.519 16.146,343.057C16.615,343.595 16.849,344.333 16.849,345.271ZM14.823,345.203C14.823,344.995 14.809,344.807 14.781,344.641C14.753,344.47 14.714,344.326 14.661,344.208C14.609,344.087 14.547,343.993 14.474,343.927C14.401,343.861 14.319,343.828 14.229,343.828C14.052,343.828 13.91,343.953 13.802,344.203C13.694,344.422 13.641,344.75 13.641,345.188C13.641,345.618 13.694,345.946 13.802,346.172C13.91,346.422 14.054,346.547 14.234,346.547C14.405,346.547 14.545,346.424 14.656,346.177C14.767,345.903 14.823,345.578 14.823,345.203L14.823,345.203Z" style="fill:rgb(249,248,247);fill-rule:nonzero;"/>
                <path id="path4901" d="M17.651,342.37L19.74,342.37L19.74,345.542C19.74,345.844 19.769,346.064 19.828,346.203C19.891,346.318 20.009,346.375 20.182,346.375C20.352,346.375 20.467,346.318 20.526,346.203C20.589,346.089 20.62,345.868 20.62,345.542L20.62,342.37L22.708,342.37L22.708,345.823C22.708,346.052 22.689,346.26 22.651,346.448C22.616,346.632 22.559,346.8 22.479,346.953C22.403,347.102 22.302,347.24 22.177,347.365C22.056,347.49 21.91,347.604 21.74,347.708C21.281,347.979 20.762,348.115 20.182,348.115C19.595,348.115 19.076,347.979 18.625,347.708C18.451,347.604 18.302,347.491 18.177,347.37C18.056,347.245 17.955,347.106 17.875,346.953C17.799,346.8 17.741,346.632 17.703,346.448C17.668,346.26 17.651,346.052 17.651,345.823L17.651,342.37Z" style="fill:rgb(249,248,247);fill-rule:nonzero;"/>
                <path id="path4903" d="M26.047,348L23.953,348L23.953,344.052L23.359,344.052L23.359,342.37L23.953,342.37L23.953,340.714L26.047,340.714L26.047,342.37L26.74,342.37L26.74,344.052L26.047,344.052L26.047,348Z" style="fill:rgb(249,248,247);fill-rule:nonzero;"/>
                <path id="path4905" d="M34.385,348L30.583,348L30.583,339.958L32.755,339.958L32.755,346.068L34.385,346.068L34.385,348Z" style="fill:rgb(249,248,247);fill-rule:nonzero;"/>
            </g>
        </g>
        <g id="g4914" transform="matrix(1,0,0,1,15,0)">
            <rect id="rect4778-3" x="50" y="310" width="34" height="42" style="fill:rgb(60,60,60);"/>
            <g id="text4886">
                <path id="path4890" d="M59.891,345.271C59.891,346.139 59.651,346.83 59.172,347.344C58.693,347.858 58.05,348.115 57.245,348.115C56.453,348.115 55.823,347.852 55.354,347.328C54.889,346.8 54.656,346.092 54.656,345.203C54.656,344.314 54.894,343.601 55.37,343.062C55.842,342.521 56.469,342.25 57.25,342.25C58.073,342.25 58.719,342.519 59.187,343.057C59.656,343.595 59.891,344.333 59.891,345.271ZM57.865,345.203C57.865,344.995 57.851,344.807 57.823,344.641C57.795,344.47 57.755,344.326 57.703,344.208C57.651,344.087 57.589,343.993 57.516,343.927C57.443,343.861 57.361,343.828 57.271,343.828C57.094,343.828 56.951,343.953 56.844,344.203C56.736,344.422 56.682,344.75 56.682,345.187C56.682,345.618 56.736,345.946 56.844,346.172C56.951,346.422 57.095,346.547 57.276,346.547C57.446,346.547 57.587,346.424 57.698,346.177C57.809,345.903 57.865,345.578 57.865,345.203L57.865,345.203Z" style="fill:rgb(249,248,247);fill-rule:nonzero;"/>
                <path id="path4892" d="M60.693,342.37L62.781,342.37L62.781,345.542C62.781,345.844 62.811,346.064 62.87,346.203C62.932,346.318 63.05,346.375 63.224,346.375C63.394,346.375 63.509,346.318 63.568,346.203C63.63,346.089 63.662,345.868 63.662,345.542L63.662,342.37L65.75,342.37L65.75,345.823C65.75,346.052 65.731,346.26 65.693,346.448C65.658,346.632 65.601,346.8 65.521,346.953C65.444,347.102 65.344,347.24 65.219,347.365C65.097,347.49 64.951,347.604 64.781,347.708C64.323,347.979 63.804,348.115 63.224,348.115C62.637,348.115 62.118,347.979 61.667,347.708C61.493,347.604 61.344,347.491 61.219,347.37C61.097,347.245 60.997,347.106 60.917,346.953C60.84,346.8 60.783,346.632 60.745,346.448C60.71,346.26 60.693,346.052 60.693,345.823L60.693,342.37Z" style="fill:rgb(249,248,247);fill-rule:nonzero;"/>
                <path id="path4894" d="M69.089,348L66.995,348L66.995,344.052L66.401,344.052L66.401,342.37L66.995,342.37L66.995,340.714L69.089,340.714L69.089,342.37L69.781,342.37L69.781,344.052L69.089,344.052L69.089,348Z" style="fill:rgb(249,248,247);fill-rule:nonzero;"/>
                <path id="path4896" d="M79.344,348L76.995,348L75.922,345.135C75.912,345.087 75.892,345.023 75.865,344.943C75.84,344.863 75.809,344.767 75.771,344.656L75.786,345.187L75.786,348L73.625,348L73.625,339.958L75.849,339.958C76.828,339.958 77.561,340.151 78.047,340.536C78.665,341.029 78.974,341.731 78.974,342.641C78.974,343.613 78.559,344.285 77.729,344.656L79.344,348ZM75.797,343.682L75.943,343.682C76.193,343.682 76.401,343.587 76.568,343.396C76.734,343.205 76.818,342.962 76.818,342.667C76.818,342.066 76.503,341.766 75.875,341.766L75.797,341.766L75.797,343.682Z" style="fill:rgb(249,248,247);fill-rule:nonzero;"/>
            </g>
        </g>
        <g id="text4987">
        </g>
        <g id="text1101" transform="matrix(1,0,0,1,-2,20)">
            <path id="path1306" d="M10.661,102.349L11.589,102.349L12.297,105.63C12.384,106.04 12.462,106.451 12.531,106.865C12.604,107.274 12.67,107.705 12.729,108.156C12.736,108.097 12.741,108.052 12.745,108.021C12.748,107.986 12.752,107.962 12.755,107.948L12.906,107.026L13.042,106.151L13.161,105.573L13.792,102.349L14.729,102.349L15.469,110.391L14.432,110.391L14.25,107.661C14.243,107.523 14.236,107.403 14.229,107.302C14.226,107.201 14.224,107.118 14.224,107.052L14.177,105.974L14.151,104.984C14.151,104.977 14.149,104.963 14.146,104.943C14.146,104.919 14.144,104.887 14.141,104.849L14.115,105.01C14.087,105.201 14.061,105.368 14.036,105.51C14.016,105.653 13.997,105.773 13.979,105.87L13.844,106.604L13.792,106.88L13.115,110.391L12.385,110.391L11.75,107.359C11.663,106.96 11.585,106.556 11.516,106.146C11.45,105.733 11.389,105.3 11.333,104.849L11.021,110.391L10,110.391L10.661,102.349Z" style="fill:rgb(158,161,168);fill-rule:nonzero;"/>
            <path id="path1308" d="M20.391,106.568C20.391,107.988 20.233,108.997 19.917,109.594C19.601,110.191 19.071,110.49 18.328,110.49C17.547,110.49 16.997,110.168 16.677,109.526C16.361,108.898 16.203,107.781 16.203,106.177C16.203,104.747 16.359,103.734 16.672,103.141C16.988,102.543 17.523,102.245 18.276,102.245C18.95,102.245 19.45,102.476 19.776,102.937C19.991,103.247 20.148,103.686 20.245,104.255C20.342,104.783 20.391,105.554 20.391,106.568L20.391,106.568ZM19.255,106.682C19.255,105.29 19.193,104.366 19.068,103.911C18.943,103.453 18.688,103.224 18.302,103.224C17.917,103.224 17.66,103.434 17.531,103.854C17.406,104.278 17.344,105.128 17.344,106.406C17.344,107.583 17.41,108.399 17.542,108.854C17.677,109.285 17.931,109.5 18.302,109.5C18.667,109.5 18.917,109.299 19.052,108.896C19.188,108.497 19.255,107.759 19.255,106.682L19.255,106.682Z" style="fill:rgb(158,161,168);fill-rule:nonzero;"/>
            <path id="path1310" d="M21.469,102.349L22.802,102.349C23.208,102.349 23.55,102.394 23.828,102.484C24.085,102.571 24.314,102.726 24.516,102.948C24.818,103.281 25.033,103.715 25.161,104.25C25.29,104.767 25.354,105.509 25.354,106.474C25.354,107.359 25.283,108.082 25.141,108.641C25.002,109.175 24.773,109.583 24.453,109.865C24.061,110.215 23.358,110.391 22.344,110.391L21.469,110.391L21.469,102.349ZM22.552,109.443C23.212,109.443 23.653,109.243 23.875,108.844C24.104,108.444 24.219,107.668 24.219,106.516C24.219,105.276 24.109,104.424 23.891,103.958C23.672,103.493 23.271,103.26 22.688,103.26L22.552,103.26L22.552,109.443Z" style="fill:rgb(158,161,168);fill-rule:nonzero;"/>
            <path id="path1312" d="M28.635,102.349L31.531,102.349L31.531,103.266L29.719,103.266L29.719,105.807L31.354,105.807L31.354,106.724L29.719,106.724L29.719,110.391L28.635,110.391L28.635,102.349Z" style="fill:rgb(158,161,168);fill-rule:nonzero;"/>
            <path id="path1314" d="M32.365,102.349L33.792,102.349C34.382,102.349 34.821,102.49 35.109,102.771C35.474,103.135 35.656,103.693 35.656,104.443C35.656,105.019 35.559,105.483 35.365,105.833C35.174,106.181 34.899,106.396 34.542,106.479L36.021,110.391L34.922,110.391L33.448,106.453L33.448,110.391L32.365,110.391L32.365,102.349ZM33.448,105.911C33.868,105.911 34.165,105.814 34.339,105.62C34.512,105.425 34.599,105.097 34.599,104.635C34.599,104.385 34.58,104.172 34.542,103.995C34.507,103.818 34.45,103.674 34.37,103.562C34.293,103.451 34.193,103.37 34.068,103.318C33.946,103.266 33.8,103.24 33.63,103.24L33.448,103.24L33.448,105.911Z" style="fill:rgb(158,161,168);fill-rule:nonzero;"/>
            <path id="path1316" d="M36.865,102.349L39.745,102.349L39.745,103.266L37.948,103.266L37.948,105.812L39.542,105.812L39.542,106.729L37.948,106.729L37.948,109.474L39.745,109.474L39.745,110.391L36.865,110.391L36.865,102.349Z" style="fill:rgb(158,161,168);fill-rule:nonzero;"/>
            <path id="path1318" d="M44.995,110.51L44.313,111L43.76,110.214C43.431,110.398 43.082,110.49 42.714,110.49C41.932,110.49 41.38,110.16 41.057,109.5C40.738,108.819 40.578,107.681 40.578,106.083C40.578,104.688 40.734,103.7 41.047,103.12C41.359,102.536 41.889,102.245 42.635,102.245C43.42,102.245 43.972,102.566 44.292,103.208C44.608,103.837 44.766,104.951 44.766,106.552C44.766,108 44.615,109.005 44.313,109.568L44.995,110.51ZM43.078,107.839L43.526,108.474C43.599,107.96 43.635,107.38 43.635,106.734C43.635,105.352 43.569,104.418 43.437,103.932C43.306,103.464 43.043,103.229 42.651,103.229C42.283,103.229 42.035,103.429 41.906,103.828C41.778,104.21 41.714,104.981 41.714,106.141C41.714,107.443 41.779,108.332 41.911,108.807C42.043,109.262 42.3,109.49 42.682,109.49C42.835,109.49 42.981,109.441 43.12,109.344L42.432,108.354L43.078,107.839Z" style="fill:rgb(158,161,168);fill-rule:nonzero;"/>
        </g>
        <g id="text1126" transform="matrix(1,0,0,1,-2,23)">
            <path id="path1289" d="M10.661,125.859L11.589,125.859L12.297,129.141C12.384,129.55 12.462,129.962 12.531,130.375C12.604,130.785 12.67,131.215 12.729,131.667C12.736,131.608 12.741,131.562 12.745,131.531C12.748,131.497 12.752,131.472 12.755,131.458L12.906,130.536L13.042,129.661L13.161,129.083L13.792,125.859L14.729,125.859L15.469,133.901L14.432,133.901L14.25,131.172C14.243,131.033 14.236,130.913 14.229,130.813C14.226,130.712 14.224,130.629 14.224,130.563L14.177,129.484L14.151,128.495C14.151,128.488 14.149,128.474 14.146,128.453C14.146,128.429 14.144,128.398 14.141,128.359L14.115,128.521C14.087,128.712 14.061,128.879 14.036,129.021C14.016,129.163 13.997,129.283 13.979,129.38L13.844,130.115L13.792,130.391L13.115,133.901L12.385,133.901L11.75,130.87C11.663,130.47 11.585,130.066 11.516,129.656C11.45,129.243 11.389,128.811 11.333,128.359L11.021,133.901L10,133.901L10.661,125.859Z" style="fill:rgb(158,161,168);fill-rule:nonzero;"/>
            <path id="path1291" d="M20.391,130.078C20.391,131.498 20.233,132.507 19.917,133.104C19.601,133.701 19.071,134 18.328,134C17.547,134 16.997,133.679 16.677,133.036C16.361,132.408 16.203,131.292 16.203,129.688C16.203,128.257 16.359,127.245 16.672,126.651C16.988,126.054 17.523,125.755 18.276,125.755C18.95,125.755 19.45,125.986 19.776,126.448C19.991,126.757 20.148,127.196 20.245,127.766C20.342,128.293 20.391,129.064 20.391,130.078L20.391,130.078ZM19.255,130.193C19.255,128.8 19.193,127.877 19.068,127.422C18.943,126.964 18.688,126.734 18.302,126.734C17.917,126.734 17.66,126.944 17.531,127.365C17.406,127.788 17.344,128.639 17.344,129.917C17.344,131.094 17.41,131.91 17.542,132.365C17.677,132.795 17.931,133.01 18.302,133.01C18.667,133.01 18.917,132.809 19.052,132.406C19.188,132.007 19.255,131.269 19.255,130.193L19.255,130.193Z" style="fill:rgb(158,161,168);fill-rule:nonzero;"/>
            <path id="path1293" d="M21.469,125.859L22.802,125.859C23.208,125.859 23.55,125.905 23.828,125.995C24.085,126.082 24.314,126.236 24.516,126.458C24.818,126.792 25.033,127.226 25.161,127.76C25.29,128.278 25.354,129.019 25.354,129.984C25.354,130.87 25.283,131.592 25.141,132.151C25.002,132.686 24.773,133.094 24.453,133.375C24.061,133.726 23.358,133.901 22.344,133.901L21.469,133.901L21.469,125.859ZM22.552,132.953C23.212,132.953 23.653,132.753 23.875,132.354C24.104,131.955 24.219,131.179 24.219,130.026C24.219,128.786 24.109,127.934 23.891,127.469C23.672,127.003 23.271,126.771 22.688,126.771L22.552,126.771L22.552,132.953Z" style="fill:rgb(158,161,168);fill-rule:nonzero;"/>
            <path id="path1295" d="M28.635,125.859L29.969,125.859C30.375,125.859 30.717,125.905 30.995,125.995C31.252,126.082 31.481,126.236 31.682,126.458C31.984,126.792 32.2,127.226 32.328,127.76C32.457,128.278 32.521,129.019 32.521,129.984C32.521,130.87 32.45,131.592 32.307,132.151C32.168,132.686 31.939,133.094 31.62,133.375C31.227,133.726 30.524,133.901 29.51,133.901L28.635,133.901L28.635,125.859ZM29.719,132.953C30.378,132.953 30.819,132.753 31.042,132.354C31.271,131.955 31.385,131.179 31.385,130.026C31.385,128.786 31.276,127.934 31.057,127.469C30.839,127.003 30.438,126.771 29.854,126.771L29.719,126.771L29.719,132.953Z" style="fill:rgb(158,161,168);fill-rule:nonzero;"/>
            <path id="path1297" d="M33.594,125.859L36.474,125.859L36.474,126.776L34.677,126.776L34.677,129.323L36.271,129.323L36.271,130.24L34.677,130.24L34.677,132.984L36.474,132.984L36.474,133.901L33.594,133.901L33.594,125.859Z" style="fill:rgb(158,161,168);fill-rule:nonzero;"/>
            <path id="path1299" d="M37.469,125.859L38.896,125.859C39.583,125.859 40.083,126.033 40.396,126.38C40.708,126.731 40.865,127.286 40.865,128.047C40.865,129.116 40.55,129.807 39.922,130.12C39.606,130.262 39.149,130.333 38.552,130.333L38.552,133.901L37.469,133.901L37.469,125.859ZM38.552,129.406C39,129.406 39.309,129.316 39.479,129.135C39.653,128.951 39.74,128.625 39.74,128.156C39.74,127.677 39.656,127.326 39.49,127.104C39.323,126.882 39.061,126.771 38.703,126.771L38.552,126.771L38.552,129.406Z" style="fill:rgb(158,161,168);fill-rule:nonzero;"/>
            <path id="path1301" d="M41.057,125.859L44.583,125.859L44.583,126.807L43.37,126.807L43.37,133.901L42.307,133.901L42.307,126.807L41.057,126.807L41.057,125.859Z" style="fill:rgb(158,161,168);fill-rule:nonzero;"/>
            <path id="path1303" d="M45.177,125.859L46.26,125.859L46.26,129.005L47.849,129.005L47.849,125.859L48.932,125.859L48.932,133.901L47.849,133.901L47.849,129.922L46.26,129.922L46.26,133.901L45.177,133.901L45.177,125.859Z" style="fill:rgb(158,161,168);fill-rule:nonzero;"/>
        </g>
        <path id="path2432" d="M8.803,104.412C8.814,104.378 8.825,104.345 8.836,104.311C8.846,104.277 8.857,104.244 8.868,104.21C8.878,104.177 8.889,104.143 8.9,104.11C8.91,104.076 8.921,104.043 8.932,104.009C8.943,103.976 8.954,103.943 8.964,103.909C8.975,103.876 8.986,103.843 8.996,103.809C9.007,103.776 9.018,103.743 9.028,103.71C9.039,103.677 9.05,103.644 9.06,103.611C9.071,103.578 9.082,103.545 9.093,103.512C9.103,103.479 9.114,103.447 9.125,103.414C9.135,103.381 9.146,103.349 9.157,103.317C9.167,103.285 9.178,103.252 9.189,103.22C9.2,103.188 9.211,103.156 9.221,103.124C9.232,103.092 9.243,103.06 9.253,103.029C9.264,102.997 9.275,102.966 9.285,102.934C9.296,102.903 9.307,102.872 9.317,102.841C9.328,102.81 9.339,102.779 9.35,102.748C9.36,102.718 9.371,102.687 9.382,102.657C9.392,102.627 9.403,102.596 9.414,102.566C9.424,102.537 9.435,102.507 9.446,102.477C9.457,102.447 9.468,102.418 9.478,102.389C9.489,102.359 9.5,102.331 9.51,102.302C9.521,102.273 9.532,102.245 9.542,102.216C9.553,102.188 9.564,102.16 9.575,102.132C9.585,102.104 9.596,102.076 9.607,102.049C9.617,102.022 9.628,101.994 9.639,101.967C9.649,101.941 9.66,101.914 9.671,101.887C9.681,101.861 9.692,101.835 9.703,101.809C9.714,101.783 9.725,101.757 9.735,101.732C9.746,101.707 9.757,101.681 9.767,101.657C9.778,101.632 9.789,101.607 9.799,101.583C9.81,101.558 9.821,101.535 9.832,101.511C9.842,101.487 9.853,101.464 9.864,101.441C9.874,101.418 9.885,101.395 9.896,101.373C9.906,101.35 9.917,101.328 9.928,101.306C9.938,101.284 9.949,101.263 9.96,101.241C9.971,101.22 9.982,101.199 9.992,101.179C10.003,101.158 10.014,101.138 10.024,101.118C10.035,101.098 10.046,101.079 10.056,101.059C10.067,101.04 10.078,101.022 10.089,101.003C10.099,100.984 10.11,100.966 10.121,100.948C10.131,100.93 10.142,100.912 10.153,100.896C10.163,100.879 10.174,100.861 10.185,100.845C10.195,100.829 10.206,100.812 10.217,100.797C10.228,100.781 10.239,100.766 10.249,100.751C10.26,100.736 10.271,100.721 10.281,100.707C10.292,100.693 10.303,100.679 10.313,100.666C10.324,100.652 10.335,100.639 10.346,100.626C10.356,100.614 10.367,100.601 10.378,100.59C10.388,100.578 10.399,100.566 10.41,100.555C10.42,100.544 10.431,100.533 10.442,100.523C10.452,100.512 10.463,100.502 10.474,100.493C10.485,100.483 10.496,100.474 10.506,100.465C10.517,100.456 10.528,100.448 10.538,100.44C10.549,100.432 10.56,100.425 10.57,100.417C10.581,100.41 10.592,100.403 10.603,100.397C10.613,100.391 10.624,100.385 10.635,100.379C10.645,100.374 10.656,100.368 10.667,100.364C10.677,100.36 10.688,100.355 10.699,100.351C10.709,100.347 10.72,100.344 10.731,100.341C10.742,100.338 10.753,100.335 10.763,100.332C10.774,100.33 10.785,100.329 10.795,100.327C10.806,100.326 10.817,100.325 10.827,100.324C10.838,100.323 10.849,100.323 10.86,100.323C10.87,100.324 10.881,100.324 10.892,100.325C10.902,100.326 10.913,100.328 10.924,100.329C10.934,100.331 10.945,100.333 10.956,100.336C10.967,100.339 10.977,100.341 10.988,100.346C10.999,100.349 11.01,100.353 11.02,100.358C11.031,100.361 11.042,100.367 11.052,100.372C11.063,100.377 11.074,100.383 11.084,100.388C11.095,100.393 11.106,100.4 11.117,100.407C11.127,100.414 11.138,100.421 11.149,100.428C11.159,100.436 11.17,100.444 11.181,100.453C11.191,100.461 11.202,100.47 11.213,100.479C11.224,100.488 11.234,100.497 11.245,100.508C11.256,100.518 11.267,100.528 11.277,100.539C11.288,100.55 11.299,100.561 11.309,100.572C11.32,100.584 11.331,100.596 11.341,100.608C11.352,100.621 11.363,100.634 11.374,100.646C11.384,100.659 11.395,100.672 11.406,100.687C11.416,100.7 11.427,100.715 11.438,100.729C11.448,100.744 11.459,100.759 11.47,100.774C11.481,100.789 11.491,100.805 11.502,100.821C11.513,100.837 11.524,100.854 11.534,100.871C11.545,100.887 11.556,100.905 11.566,100.922C11.577,100.939 11.588,100.958 11.598,100.976C11.609,100.994 11.62,101.012 11.631,101.031C11.641,101.05 11.652,101.069 11.663,101.089C11.673,101.108 11.684,101.128 11.695,101.149C11.705,101.169 11.716,101.19 11.727,101.21C11.738,101.232 11.748,101.253 11.759,101.274C11.77,101.296 11.781,101.317 11.791,101.34C11.802,101.362 11.813,101.384 11.823,101.407C11.834,101.43 11.845,101.453 11.855,101.476C11.866,101.5 11.877,101.523 11.888,101.547C11.898,101.572 11.909,101.596 11.92,101.62C11.93,101.645 11.941,101.669 11.952,101.695C11.962,101.72 11.973,101.745 11.984,101.771C11.995,101.796 12.005,101.822 12.016,101.848C12.027,101.875 12.038,101.901 12.048,101.928C12.059,101.955 12.07,101.981 12.08,102.009C12.091,102.036 12.102,102.063 12.112,102.091C12.123,102.118 12.134,102.146 12.145,102.174C12.155,102.202 12.166,102.231 12.177,102.259C12.187,102.288 12.198,102.317 12.209,102.346C12.219,102.374 12.23,102.404 12.241,102.433C12.252,102.463 12.263,102.492 12.273,102.522C12.284,102.552 12.295,102.582 12.305,102.612C12.316,102.642 12.327,102.672 12.337,102.703C12.348,102.733 12.359,102.764 12.369,102.795C12.38,102.826 12.391,102.857 12.402,102.888C12.412,102.919 12.423,102.95 12.434,102.982C12.444,103.013 12.455,103.045 12.466,103.077C12.476,103.108 12.487,103.14 12.498,103.172C12.509,103.204 12.52,103.236 12.53,103.269C12.541,103.301 12.552,103.333 12.562,103.366C12.573,103.399 12.584,103.431 12.594,103.463C12.605,103.496 12.616,103.529 12.626,103.562C12.637,103.595 12.648,103.628 12.659,103.661C12.669,103.694 12.68,103.727 12.691,103.76C12.701,103.793 12.712,103.826 12.723,103.86C12.733,103.893 12.744,103.926 12.755,103.96C12.766,103.993 12.777,104.026 12.787,104.06C12.798,104.093 12.809,104.127 12.819,104.16C12.83,104.194 12.841,104.227 12.851,104.261C12.862,104.294 12.873,104.328 12.883,104.362C12.894,104.395 12.905,104.429 12.916,104.462C12.926,104.496 12.937,104.529 12.948,104.563C12.958,104.597 12.969,104.63 12.98,104.664C12.99,104.697 13.001,104.731 13.012,104.764C13.023,104.798 13.034,104.831 13.044,104.864C13.055,104.898 13.066,104.931 13.076,104.964C13.087,104.998 13.098,105.031 13.108,105.064C13.119,105.097 13.13,105.13 13.14,105.163C13.151,105.197 13.162,105.229 13.173,105.262C13.183,105.295 13.194,105.328 13.205,105.36C13.215,105.393 13.226,105.426 13.237,105.458C13.247,105.491 13.258,105.523 13.269,105.555C13.28,105.587 13.291,105.62 13.301,105.652C13.312,105.683 13.323,105.715 13.333,105.747C13.344,105.779 13.355,105.81 13.365,105.842C13.376,105.873 13.387,105.905 13.397,105.936C13.408,105.967 13.419,105.998 13.43,106.029C13.44,106.06 13.451,106.09 13.462,106.121C13.472,106.152 13.483,106.182 13.494,106.212C13.504,106.242 13.515,106.272 13.526,106.302C13.537,106.332 13.548,106.361 13.558,106.391C13.569,106.42 13.58,106.449 13.59,106.478C13.601,106.507 13.612,106.536 13.622,106.565C13.633,106.593 13.644,106.621 13.655,106.649C13.665,106.677 13.676,106.705 13.687,106.733C13.697,106.761 13.708,106.788 13.719,106.815C13.729,106.843 13.74,106.869 13.751,106.896C13.761,106.923 13.772,106.949 13.783,106.975C13.794,107.001 13.805,107.027 13.815,107.053C13.826,107.079 13.837,107.104 13.847,107.129C13.858,107.155 13.869,107.179 13.879,107.204C13.89,107.228 13.901,107.252 13.912,107.276C13.922,107.301 13.933,107.324 13.944,107.348C13.954,107.371 13.965,107.394 13.976,107.417C13.986,107.439 13.997,107.462 14.008,107.484C14.018,107.506 14.029,107.528 14.04,107.55C14.051,107.571 14.062,107.592 14.072,107.613C14.083,107.635 14.094,107.655 14.104,107.675C14.115,107.696 14.126,107.715 14.136,107.735C14.147,107.755 14.158,107.774 14.169,107.793C14.179,107.811 14.19,107.83 14.201,107.848C14.211,107.866 14.222,107.884 14.233,107.902C14.243,107.919 14.254,107.937 14.265,107.953C14.275,107.97 14.286,107.986 14.297,108.003C14.308,108.018 14.319,108.034 14.329,108.05C14.34,108.065 14.351,108.08 14.361,108.095C14.372,108.109 14.383,108.123 14.393,108.137C14.404,108.151 14.415,108.164 14.426,108.178C14.436,108.191 14.447,108.203 14.458,108.215C14.468,108.228 14.479,108.24 14.49,108.251C14.5,108.263 14.511,108.274 14.522,108.285C14.532,108.296 14.543,108.306 14.554,108.316C14.565,108.326 14.576,108.336 14.586,108.345C14.597,108.354 14.608,108.363 14.618,108.371C14.629,108.38 14.64,108.387 14.65,108.395C14.661,108.403 14.672,108.41 14.683,108.417C14.693,108.424 14.704,108.43 14.715,108.436C14.725,108.441 14.736,108.448 14.747,108.452C14.757,108.457 14.768,108.462 14.779,108.466C14.789,108.47 14.8,108.475 14.811,108.478C14.822,108.481 14.833,108.485 14.843,108.488C14.854,108.49 14.865,108.492 14.875,108.495C14.886,108.497 14.897,108.498 14.907,108.499C14.918,108.5 14.929,108.5 14.94,108.5C14.95,108.501 14.961,108.5 14.972,108.5C14.982,108.499 14.993,108.498 15.004,108.497C15.014,108.495 15.025,108.493 15.036,108.491C15.047,108.489 15.057,108.487 15.068,108.483C15.079,108.48 15.09,108.476 15.1,108.472C15.111,108.469 15.122,108.464 15.132,108.46C15.143,108.455 15.154,108.449 15.164,108.444C15.175,108.44 15.186,108.433 15.197,108.427C15.207,108.421 15.218,108.414 15.229,108.406C15.239,108.399 15.25,108.392 15.261,108.384C15.271,108.375 15.282,108.367 15.293,108.358C15.304,108.349 15.314,108.34 15.325,108.331C15.336,108.321 15.347,108.311 15.357,108.301C15.368,108.29 15.379,108.28 15.389,108.269C15.4,108.257 15.411,108.246 15.421,108.234C15.432,108.222 15.443,108.209 15.454,108.197C15.464,108.184 15.475,108.172 15.486,108.158C15.496,108.145 15.507,108.131 15.518,108.117C15.528,108.103 15.539,108.088 15.55,108.073C15.561,108.058 15.571,108.043 15.582,108.027C15.593,108.011 15.604,107.995 15.614,107.979C15.625,107.962 15.636,107.945 15.646,107.928C15.657,107.912 15.668,107.893 15.678,107.876C15.689,107.858 15.7,107.84 15.711,107.821C15.721,107.803 15.732,107.784 15.743,107.764C15.753,107.745 15.764,107.726 15.775,107.706C15.785,107.686 15.796,107.666 15.807,107.645C15.818,107.624 15.828,107.604 15.839,107.582C15.85,107.561 15.861,107.54 15.871,107.518C15.882,107.496 15.893,107.474 15.903,107.451C15.914,107.429 15.925,107.406 15.935,107.383C15.946,107.359 15.957,107.336 15.968,107.313C15.978,107.289 15.989,107.265 16,107.241C16.01,107.216 16.021,107.192 16.032,107.167C16.042,107.142 16.053,107.117 16.064,107.092C16.075,107.067 16.085,107.041 16.096,107.015C16.107,106.989 16.118,106.963 16.128,106.936C16.139,106.91 16.15,106.883 16.16,106.856C16.171,106.83 16.182,106.802 16.192,106.775C16.203,106.748 16.214,106.72 16.225,106.692C16.235,106.664 16.246,106.636 16.257,106.608C16.267,106.579 16.278,106.551 16.289,106.522C16.299,106.493 16.31,106.464 16.321,106.435C16.332,106.405 16.343,106.376 16.353,106.347C16.364,106.317 16.375,106.287 16.385,106.257C16.396,106.228 16.407,106.197 16.417,106.167C16.428,106.137 16.439,106.106 16.449,106.075C16.46,106.045 16.471,106.014 16.482,105.983C16.492,105.952 16.503,105.921 16.514,105.889C16.524,105.858 16.535,105.827 16.546,105.795C16.556,105.764 16.567,105.732 16.578,105.7C16.589,105.668 16.6,105.636 16.61,105.604C16.621,105.572 16.632,105.539 16.642,105.507C16.653,105.475 16.664,105.442 16.674,105.41C16.685,105.377 16.696,105.344 16.706,105.311C16.717,105.279 16.728,105.246 16.739,105.213C16.749,105.18 16.76,105.147 16.771,105.114C16.781,105.081 16.792,105.048 16.803,105.014C16.813,104.981 16.824,104.948 16.835,104.915C16.846,104.881 16.857,104.848 16.867,104.814C16.878,104.781 16.889,104.748 16.899,104.714C16.91,104.68 16.921,104.647 16.931,104.614C16.942,104.58 16.953,104.546 16.963,104.513C16.974,104.479 16.985,104.446 16.996,104.412" style="fill:none;fill-rule:nonzero;stroke:rgb(158,161,168);stroke-width:1.6px;"/>
        <path id="path2603" d="M22.805,104.59L24.88,101.574L29.035,108.048L31.082,104.59" style="fill:none;stroke:rgb(158,161,168);stroke-width:1.6px;"/>
        <path id="path2605" d="M50.779,105.505L50.779,100.978L54.991,100.978L55.065,108.523L59.158,108.523L59.158,103.996" style="fill:none;stroke:rgb(158,161,168);stroke-width:1.6px;stroke-linecap:butt;"/>
        <path id="path2607" d="M44.938,108.493L36.798,101.684L36.798,108.493" style="fill:none;stroke:rgb(158,161,168);stroke-width:1.6px;"/>
        <g id="text991" transform="matrix(1.00001,0,0,1,-2.0001,19)">
            <path id="path1005" d="M10,181.859L12.896,181.859L12.896,182.776L11.083,182.776L11.083,185.318L12.719,185.318L12.719,186.234L11.083,186.234L11.083,189.901L10,189.901L10,181.859Z" style="fill:rgb(158,161,168);fill-rule:nonzero;"/>
            <path id="path1007" d="M13.729,181.859L16.609,181.859L16.609,182.776L14.813,182.776L14.813,185.323L16.406,185.323L16.406,186.24L14.813,186.24L14.813,188.984L16.609,188.984L16.609,189.901L13.729,189.901L13.729,181.859Z" style="fill:rgb(158,161,168);fill-rule:nonzero;"/>
            <path id="path1009" d="M17.604,181.859L20.484,181.859L20.484,182.776L18.688,182.776L18.688,185.323L20.281,185.323L20.281,186.24L18.688,186.24L18.688,188.984L20.484,188.984L20.484,189.901L17.604,189.901L17.604,181.859Z" style="fill:rgb(158,161,168);fill-rule:nonzero;"/>
            <path id="path1011" d="M21.479,181.859L22.813,181.859C23.219,181.859 23.561,181.905 23.839,181.995C24.095,182.082 24.325,182.236 24.526,182.458C24.828,182.792 25.043,183.226 25.172,183.76C25.3,184.278 25.365,185.019 25.365,185.984C25.365,186.87 25.293,187.592 25.151,188.151C25.012,188.686 24.783,189.094 24.464,189.375C24.071,189.726 23.368,189.901 22.354,189.901L21.479,189.901L21.479,181.859ZM22.563,188.953C23.222,188.953 23.663,188.753 23.885,188.354C24.115,187.955 24.229,187.179 24.229,186.026C24.229,184.786 24.12,183.934 23.901,183.469C23.682,183.003 23.281,182.771 22.698,182.771L22.563,182.771L22.563,188.953Z" style="fill:rgb(158,161,168);fill-rule:nonzero;"/>
            <path id="path1013" d="M26.438,181.859L27.906,181.859C29.056,181.859 29.63,182.573 29.63,184C29.63,184.545 29.556,184.95 29.406,185.214C29.257,185.477 28.993,185.677 28.615,185.812C29.049,185.986 29.345,186.208 29.505,186.479C29.668,186.747 29.75,187.149 29.75,187.687C29.75,189.163 29.118,189.901 27.854,189.901L26.438,189.901L26.438,181.859ZM27.458,185.401C27.878,185.401 28.17,185.304 28.333,185.109C28.497,184.904 28.578,184.545 28.578,184.031C28.578,183.163 28.266,182.729 27.641,182.729L27.557,182.729L27.51,182.729C27.483,182.729 27.465,182.731 27.458,182.734L27.458,185.401ZM27.458,188.974C27.903,188.974 28.21,188.878 28.38,188.688C28.55,188.497 28.635,188.151 28.635,187.651C28.635,187.137 28.547,186.778 28.37,186.573C28.196,186.365 27.892,186.26 27.458,186.26L27.458,188.974Z" style="fill:rgb(158,161,168);fill-rule:nonzero;"/>
            <path id="path1015" d="M32.021,181.859L32.865,181.859L34.589,189.901L33.516,189.901L33.214,188.333L31.62,188.333L31.313,189.901L30.271,189.901L32.021,181.859ZM33.057,187.495L32.818,186.214C32.658,185.342 32.528,184.411 32.427,183.422C32.378,183.905 32.316,184.394 32.24,184.891C32.163,185.384 32.073,185.908 31.969,186.464L31.771,187.495L33.057,187.495Z" style="fill:rgb(158,161,168);fill-rule:nonzero;"/>
            <path id="path1017" d="M38.323,181.99L38.323,182.964C38.045,182.828 37.813,182.76 37.625,182.76C37.368,182.76 37.148,182.825 36.964,182.953C36.78,183.078 36.627,183.273 36.505,183.536C36.387,183.8 36.299,184.135 36.24,184.542C36.184,184.944 36.156,185.422 36.156,185.974C36.156,187.96 36.665,188.953 37.682,188.953C37.859,188.953 38.073,188.898 38.323,188.786L38.323,189.781C38.063,189.927 37.771,190 37.448,190C35.819,190 35.005,188.67 35.005,186.01C35.005,184.573 35.203,183.503 35.599,182.802C35.998,182.101 36.608,181.75 37.427,181.75C37.729,181.75 38.028,181.83 38.323,181.99L38.323,181.99Z" style="fill:rgb(158,161,168);fill-rule:nonzero;"/>
            <path id="path1019" d="M39.229,181.859L40.313,181.859L40.313,185.755L41.823,181.859L42.917,181.859L41.333,185.755L43.042,189.901L41.823,189.901L40.313,185.755L40.313,189.901L39.229,189.901L39.229,181.859Z" style="fill:rgb(158,161,168);fill-rule:nonzero;"/>
        </g>
        <g id="text995" transform="matrix(1,0,0,1,-2,20)">
            <path id="path997" d="M10.661,206.958L11.589,206.958L12.297,210.24C12.384,210.649 12.462,211.061 12.531,211.474C12.604,211.884 12.67,212.314 12.729,212.766C12.736,212.707 12.741,212.661 12.745,212.63C12.748,212.595 12.752,212.571 12.755,212.557L12.906,211.635L13.042,210.76L13.161,210.182L13.792,206.958L14.729,206.958L15.469,215L14.432,215L14.25,212.271C14.243,212.132 14.236,212.012 14.229,211.911C14.226,211.811 14.224,211.727 14.224,211.661L14.177,210.583L14.151,209.594C14.151,209.587 14.149,209.573 14.146,209.552C14.146,209.528 14.144,209.497 14.141,209.458L14.115,209.62C14.087,209.811 14.061,209.977 14.036,210.12C14.016,210.262 13.997,210.382 13.979,210.479L13.844,211.214L13.792,211.49L13.115,215L12.385,215L11.75,211.969C11.663,211.569 11.585,211.165 11.516,210.755C11.45,210.342 11.389,209.91 11.333,209.458L11.021,215L10,215L10.661,206.958Z" style="fill:rgb(158,161,168);fill-rule:nonzero;"/>
            <rect id="path999" x="16.365" y="206.958" width="1.083" height="8.042" style="fill:rgb(158,161,168);fill-rule:nonzero;"/>
            <path id="path1001" d="M18.151,206.958L19.203,206.958L19.76,208.516C19.979,209.13 20.109,209.58 20.151,209.865C20.189,209.687 20.231,209.516 20.276,209.349C20.325,209.182 20.375,209.016 20.427,208.849L20.5,208.615L21.016,206.958L22.109,206.958L20.62,210.917L22.109,215L21.016,215L20.484,213.469C20.377,213.163 20.29,212.889 20.224,212.646C20.158,212.403 20.111,212.188 20.083,212C20.056,212.233 20.009,212.455 19.943,212.667L19.76,213.24L19.667,213.542L19.203,215L18.057,215L19.578,210.917L18.151,206.958Z" style="fill:rgb(158,161,168);fill-rule:nonzero;"/>
        </g>
        <g id="text955">
            <path id="path973" d="M17.141,67L15.047,67L15.047,61.37L17.141,61.37L17.141,67ZM17.318,59.625C17.318,59.955 17.198,60.24 16.958,60.479C16.712,60.715 16.425,60.833 16.099,60.833C15.762,60.833 15.474,60.714 15.234,60.474C14.998,60.227 14.88,59.939 14.88,59.609C14.88,59.273 14.998,58.986 15.234,58.75C15.481,58.514 15.767,58.396 16.094,58.396C16.437,58.396 16.727,58.516 16.964,58.755C17.2,58.991 17.318,59.281 17.318,59.625L17.318,59.625Z" style="fill:rgb(44,45,48);fill-rule:nonzero;"/>
            <path id="path975" d="M23.068,67L20.979,67L20.979,64.021C20.979,63.764 20.953,63.585 20.901,63.484C20.852,63.384 20.766,63.333 20.641,63.333C20.349,63.333 20.203,63.609 20.203,64.161L20.203,67L18.115,67L18.115,61.37L20.203,61.37C20.2,61.509 20.196,61.637 20.193,61.755C20.189,61.873 20.184,61.983 20.177,62.083L20.156,62.443C20.493,61.648 20.986,61.25 21.635,61.25C22.087,61.25 22.438,61.418 22.688,61.755C22.941,62.092 23.068,62.561 23.068,63.162L23.068,67Z" style="fill:rgb(44,45,48);fill-rule:nonzero;"/>
            <path id="path977" d="M31.12,67L27.318,67L27.318,58.958L29.49,58.958L29.49,65.068L31.12,65.068L31.12,67Z" style="fill:rgb(44,45,48);fill-rule:nonzero;"/>
        </g>
        <g id="rect961" transform="matrix(1,0,0,1,29.5,-0.000360742)">
            <rect x="35.5" y="27" width="34" height="42" style="fill:rgb(179,179,179);"/>
        </g>
        <g id="text959">
            <path id="path966" d="M75.182,67L73.089,67L73.089,61.37L75.182,61.37L75.182,67ZM75.359,59.625C75.359,59.955 75.24,60.24 75,60.479C74.753,60.715 74.467,60.833 74.141,60.833C73.804,60.833 73.516,60.714 73.276,60.474C73.04,60.227 72.922,59.939 72.922,59.609C72.922,59.273 73.04,58.986 73.276,58.75C73.523,58.514 73.809,58.396 74.135,58.396C74.479,58.396 74.769,58.516 75.005,58.755C75.241,58.991 75.359,59.281 75.359,59.625L75.359,59.625Z" style="fill:rgb(44,45,48);fill-rule:nonzero;"/>
            <path id="path968" d="M81.109,67L79.021,67L79.021,64.021C79.021,63.764 78.995,63.585 78.943,63.484C78.894,63.384 78.807,63.333 78.682,63.333C78.391,63.333 78.245,63.609 78.245,64.161L78.245,67L76.156,67L76.156,61.37L78.245,61.37C78.241,61.509 78.238,61.637 78.234,61.755C78.231,61.873 78.226,61.983 78.219,62.083L78.198,62.443C78.535,61.648 79.028,61.25 79.677,61.25C80.128,61.25 80.479,61.418 80.729,61.755C80.983,62.092 81.109,62.561 81.109,63.162L81.109,67Z" style="fill:rgb(44,45,48);fill-rule:nonzero;"/>
            <path id="path970" d="M91.078,67L88.729,67L87.656,64.135C87.646,64.087 87.627,64.023 87.599,63.943C87.575,63.863 87.544,63.767 87.505,63.656L87.521,64.187L87.521,67L85.359,67L85.359,58.958L87.583,58.958C88.562,58.958 89.295,59.151 89.781,59.536C90.399,60.03 90.708,60.731 90.708,61.641C90.708,62.613 90.293,63.285 89.463,63.656L91.078,67ZM87.531,62.682L87.677,62.682C87.927,62.682 88.135,62.587 88.302,62.396C88.469,62.205 88.552,61.962 88.552,61.667C88.552,61.066 88.238,60.766 87.609,60.766L87.531,60.766L87.531,62.682Z" style="fill:rgb(44,45,48);fill-rule:nonzero;"/>
        </g>
        <g id="text982" transform="matrix(1,0,0,1,-1.53093,-17.099)">
            <path id="path984" d="M10.192,191.958L11.119,191.958L11.828,195.24C11.915,195.649 11.993,196.061 12.062,196.474C12.135,196.884 12.201,197.314 12.26,197.766C12.267,197.707 12.272,197.661 12.276,197.63C12.279,197.595 12.283,197.571 12.286,197.557L12.437,196.635L12.573,195.76L12.692,195.182L13.323,191.958L14.26,191.958L15,200L13.963,200L13.781,197.271C13.774,197.132 13.767,197.012 13.76,196.911C13.757,196.811 13.755,196.727 13.755,196.661L13.708,195.583L13.682,194.594C13.682,194.587 13.68,194.573 13.677,194.552C13.677,194.528 13.675,194.497 13.672,194.458L13.646,194.62C13.618,194.811 13.592,194.977 13.567,195.12C13.547,195.262 13.527,195.382 13.51,195.479L13.375,196.214L13.323,196.49L12.646,200L11.916,200L11.281,196.969C11.194,196.569 11.116,196.165 11.047,195.755C10.981,195.342 10.92,194.91 10.864,194.458L10.552,200L9.531,200L10.192,191.958Z" style="fill:rgb(158,161,168);fill-rule:nonzero;"/>
            <path id="path986" d="M19.922,196.177C19.922,197.597 19.764,198.606 19.448,199.203C19.132,199.8 18.602,200.099 17.859,200.099C17.078,200.099 16.527,199.778 16.208,199.135C15.892,198.507 15.734,197.391 15.734,195.786C15.734,194.356 15.89,193.344 16.203,192.75C16.519,192.153 17.053,191.854 17.807,191.854C18.481,191.854 18.981,192.085 19.307,192.547C19.522,192.856 19.678,193.295 19.776,193.865C19.873,194.392 19.922,195.163 19.922,196.177ZM18.786,196.292C18.786,194.899 18.724,193.976 18.599,193.521C18.474,193.063 18.218,192.833 17.833,192.833C17.448,192.833 17.191,193.043 17.062,193.464C16.937,193.887 16.875,194.738 16.875,196.016C16.875,197.193 16.941,198.009 17.073,198.464C17.208,198.894 17.461,199.109 17.833,199.109C18.198,199.109 18.448,198.908 18.583,198.505C18.718,198.106 18.786,197.368 18.786,196.292L18.786,196.292Z" style="fill:rgb(158,161,168);fill-rule:nonzero;"/>
            <path id="path988" d="M20.359,191.958L21.427,191.958L21.911,194.927L21.994,195.464L22.166,196.63C22.194,196.828 22.218,197.009 22.239,197.172C22.264,197.335 22.284,197.483 22.302,197.615L22.354,198.01C22.364,197.931 22.373,197.859 22.38,197.797C22.387,197.734 22.394,197.682 22.401,197.641L22.541,196.708L22.724,195.484C22.741,195.373 22.757,195.271 22.77,195.177C22.788,195.083 22.803,195 22.817,194.927L23.338,191.958L24.349,191.958L22.771,200L21.911,200L20.359,191.958Z" style="fill:rgb(158,161,168);fill-rule:nonzero;"/>
            <path id="path990" d="M24.937,191.958L27.817,191.958L27.817,192.875L26.021,192.875L26.021,195.422L27.614,195.422L27.614,196.339L26.021,196.339L26.021,199.083L27.817,199.083L27.817,200L24.937,200L24.937,191.958Z" style="fill:rgb(158,161,168);fill-rule:nonzero;"/>
            <path id="path992" d="M29.192,191.958L30.119,191.958L30.828,195.24C30.915,195.649 30.993,196.061 31.062,196.474C31.135,196.884 31.201,197.314 31.26,197.766C31.267,197.707 31.272,197.661 31.276,197.63C31.279,197.595 31.283,197.571 31.286,197.557L31.437,196.635L31.573,195.76L31.692,195.182L32.323,191.958L33.26,191.958L34,200L32.963,200L32.781,197.271C32.774,197.132 32.767,197.012 32.76,196.911C32.757,196.811 32.755,196.727 32.755,196.661L32.708,195.583L32.682,194.594C32.682,194.587 32.68,194.573 32.677,194.552C32.677,194.528 32.675,194.497 32.672,194.458L32.646,194.62C32.618,194.811 32.592,194.977 32.567,195.12C32.547,195.262 32.527,195.382 32.51,195.479L32.375,196.214L32.323,196.49L31.646,200L30.916,200L30.281,196.969C30.194,196.569 30.116,196.165 30.047,195.755C29.981,195.342 29.92,194.91 29.864,194.458L29.552,200L28.531,200L29.192,191.958Z" style="fill:rgb(158,161,168);fill-rule:nonzero;"/>
            <path id="path994" d="M34.896,191.958L37.776,191.958L37.776,192.875L35.979,192.875L35.979,195.422L37.573,195.422L37.573,196.339L35.979,196.339L35.979,199.083L37.776,199.083L37.776,200L34.896,200L34.896,191.958Z" style="fill:rgb(158,161,168);fill-rule:nonzero;"/>
            <path id="path996" d="M38.771,191.958L39.781,191.958L40.859,195.167C41.172,196.073 41.448,197.04 41.687,198.068C41.6,197.446 41.536,196.884 41.494,196.38C41.453,195.877 41.432,195.403 41.432,194.958L41.432,191.958L42.52,191.958L42.52,200L41.505,200L40.291,196.38C40.18,196.043 40.074,195.698 39.974,195.344C39.876,194.99 39.786,194.618 39.703,194.229C39.696,194.181 39.684,194.122 39.666,194.052C39.653,193.983 39.635,193.903 39.614,193.813C39.625,193.903 39.633,193.981 39.64,194.047C39.648,194.109 39.653,194.163 39.656,194.208L39.713,195.026L39.771,196.021C39.774,196.076 39.776,196.144 39.776,196.224C39.779,196.304 39.781,196.394 39.781,196.495L39.838,200L38.771,200L38.771,191.958Z" style="fill:rgb(158,161,168);fill-rule:nonzero;"/>
            <path id="path998" d="M43.13,191.958L46.656,191.958L46.656,192.906L45.442,192.906L45.442,200L44.38,200L44.38,192.906L43.13,192.906L43.13,191.958Z" style="fill:rgb(158,161,168);fill-rule:nonzero;"/>
        </g>
        <g id="g1060" transform="matrix(1,0,0,1,-28.7812,-21)">
            <path id="path1029" d="M36.781,273.859L38.25,273.859C39.399,273.859 39.974,274.573 39.974,276C39.974,276.545 39.899,276.95 39.75,277.214C39.601,277.477 39.337,277.677 38.958,277.812C39.392,277.986 39.689,278.208 39.849,278.479C40.012,278.747 40.094,279.149 40.094,279.687C40.094,281.163 39.462,281.901 38.198,281.901L36.781,281.901L36.781,273.859ZM37.802,277.401C38.222,277.401 38.514,277.304 38.677,277.109C38.84,276.905 38.922,276.545 38.922,276.031C38.922,275.163 38.609,274.729 37.984,274.729L37.901,274.729L37.854,274.729C37.826,274.729 37.809,274.731 37.802,274.734L37.802,277.401ZM37.802,280.974C38.247,280.974 38.554,280.878 38.724,280.688C38.894,280.497 38.979,280.151 38.979,279.651C38.979,279.137 38.891,278.778 38.714,278.573C38.54,278.365 38.236,278.26 37.802,278.26L37.802,280.974Z" style="fill:rgb(158,161,168);fill-rule:nonzero;"/>
            <path id="path1031" d="M45.182,278.078C45.182,279.498 45.024,280.507 44.708,281.104C44.392,281.701 43.863,282 43.12,282C42.339,282 41.788,281.679 41.469,281.036C41.153,280.408 40.995,279.292 40.995,277.687C40.995,276.257 41.151,275.245 41.464,274.651C41.78,274.054 42.314,273.755 43.068,273.755C43.741,273.755 44.241,273.986 44.568,274.448C44.783,274.757 44.939,275.196 45.036,275.766C45.134,276.293 45.182,277.064 45.182,278.078L45.182,278.078ZM44.047,278.193C44.047,276.8 43.984,275.877 43.859,275.422C43.734,274.964 43.479,274.734 43.094,274.734C42.708,274.734 42.451,274.944 42.323,275.365C42.198,275.788 42.135,276.639 42.135,277.917C42.135,279.094 42.201,279.91 42.333,280.365C42.469,280.795 42.722,281.01 43.094,281.01C43.458,281.01 43.708,280.809 43.844,280.406C43.979,280.007 44.047,279.269 44.047,278.193L44.047,278.193Z" style="fill:rgb(158,161,168);fill-rule:nonzero;"/>
            <path id="path1033" d="M50.286,278.078C50.286,279.498 50.128,280.507 49.812,281.104C49.497,281.701 48.967,282 48.224,282C47.443,282 46.892,281.679 46.573,281.036C46.257,280.408 46.099,279.292 46.099,277.687C46.099,276.257 46.255,275.245 46.568,274.651C46.884,274.054 47.418,273.755 48.172,273.755C48.845,273.755 49.345,273.986 49.672,274.448C49.887,274.757 50.043,275.196 50.141,275.766C50.238,276.293 50.286,277.064 50.286,278.078L50.286,278.078ZM49.151,278.193C49.151,276.8 49.089,275.877 48.964,275.422C48.839,274.964 48.583,274.734 48.198,274.734C47.812,274.734 47.556,274.944 47.427,275.365C47.302,275.788 47.24,276.639 47.24,277.917C47.24,279.094 47.306,279.91 47.438,280.365C47.573,280.795 47.826,281.01 48.198,281.01C48.563,281.01 48.813,280.809 48.948,280.406C49.083,280.007 49.151,279.269 49.151,278.193Z" style="fill:rgb(158,161,168);fill-rule:nonzero;"/>
            <path id="path1035" d="M54.047,274.026L54.047,275.083C53.717,274.847 53.42,274.729 53.156,274.729C52.872,274.729 52.639,274.83 52.458,275.031C52.278,275.222 52.187,275.477 52.187,275.797C52.187,276.078 52.252,276.319 52.38,276.521C52.446,276.628 52.554,276.767 52.703,276.937C52.856,277.108 53.052,277.312 53.292,277.552C53.733,278 54.033,278.387 54.193,278.714C54.352,279.03 54.432,279.417 54.432,279.875C54.432,280.497 54.257,281.009 53.906,281.411C53.556,281.804 53.106,282 52.557,282C52.095,282 51.701,281.873 51.375,281.62L51.375,280.547C51.76,280.828 52.111,280.969 52.427,280.969C52.722,280.969 52.953,280.872 53.12,280.677C53.286,280.479 53.37,280.212 53.37,279.875C53.37,279.583 53.306,279.321 53.177,279.089C53.111,278.977 53.019,278.851 52.901,278.708C52.783,278.562 52.635,278.401 52.458,278.224C52.184,277.953 51.957,277.714 51.776,277.505C51.595,277.297 51.462,277.115 51.375,276.958C51.208,276.653 51.125,276.267 51.125,275.802C51.125,275.174 51.288,274.675 51.615,274.307C51.944,273.936 52.387,273.75 52.943,273.75C53.328,273.75 53.696,273.842 54.047,274.026L54.047,274.026Z" style="fill:rgb(158,161,168);fill-rule:nonzero;"/>
            <path id="path1037" d="M54.828,273.859L58.354,273.859L58.354,274.807L57.141,274.807L57.141,281.901L56.078,281.901L56.078,274.807L54.828,274.807L54.828,273.859Z" style="fill:rgb(158,161,168);fill-rule:nonzero;"/>
        </g>
        <g id="text1042">
        </g>
        <g id="text943" transform="matrix(1,0,0,1,0,2.00001)">
            <path id="path945" d="M8,276.859L9.469,276.859C10.618,276.859 11.193,277.573 11.193,279C11.193,279.545 11.118,279.95 10.969,280.214C10.819,280.477 10.556,280.677 10.177,280.812C10.611,280.986 10.908,281.208 11.068,281.479C11.231,281.747 11.313,282.149 11.313,282.687C11.313,284.163 10.681,284.901 9.417,284.901L8,284.901L8,276.859ZM9.021,280.401C9.441,280.401 9.733,280.304 9.896,280.109C10.059,279.905 10.141,279.545 10.141,279.031C10.141,278.163 9.828,277.729 9.203,277.729L9.12,277.729L9.073,277.729C9.045,277.729 9.028,277.731 9.021,277.734L9.021,280.401ZM9.021,283.974C9.465,283.974 9.773,283.878 9.943,283.687C10.113,283.497 10.198,283.151 10.198,282.651C10.198,282.137 10.109,281.778 9.932,281.573C9.759,281.365 9.455,281.26 9.021,281.26L9.021,283.974Z" style="fill:rgb(158,161,168);fill-rule:nonzero;"/>
            <path id="path947" d="M11.693,276.859L12.839,276.859L13.37,278.609C13.387,278.661 13.405,278.719 13.422,278.781C13.439,278.844 13.46,278.911 13.484,278.984C13.682,279.616 13.818,280.148 13.891,280.578C13.953,280.148 14.005,279.847 14.047,279.677L14.214,278.958L14.276,278.677L14.724,276.859L15.854,276.859L14.453,281.443L14.453,284.901L13.37,284.901L13.37,281.443L11.693,276.859Z" style="fill:rgb(158,161,168);fill-rule:nonzero;"/>
            <path id="path949" d="M16.458,276.859L17.885,276.859C18.573,276.859 19.073,277.033 19.385,277.38C19.698,277.731 19.854,278.286 19.854,279.047C19.854,280.116 19.54,280.807 18.911,281.12C18.595,281.262 18.139,281.333 17.542,281.333L17.542,284.901L16.458,284.901L16.458,276.859ZM17.542,280.406C17.99,280.406 18.299,280.316 18.469,280.135C18.642,279.951 18.729,279.625 18.729,279.156C18.729,278.677 18.646,278.326 18.479,278.104C18.313,277.882 18.05,277.771 17.693,277.771L17.542,277.771L17.542,280.406Z" style="fill:rgb(158,161,168);fill-rule:nonzero;"/>
            <path id="path951" d="M21.583,276.859L22.427,276.859L24.151,284.901L23.078,284.901L22.776,283.333L21.182,283.333L20.875,284.901L19.833,284.901L21.583,276.859ZM22.62,282.495L22.38,281.214C22.22,280.342 22.09,279.411 21.99,278.422C21.941,278.904 21.878,279.394 21.802,279.891C21.726,280.384 21.635,280.908 21.531,281.464L21.333,282.495L22.62,282.495Z" style="fill:rgb(158,161,168);fill-rule:nonzero;"/>
            <path id="path953" d="M27.474,277.026L27.474,278.083C27.144,277.847 26.847,277.729 26.583,277.729C26.299,277.729 26.066,277.83 25.885,278.031C25.705,278.222 25.615,278.477 25.615,278.797C25.615,279.078 25.679,279.319 25.807,279.521C25.873,279.628 25.981,279.767 26.13,279.937C26.283,280.108 26.479,280.312 26.719,280.552C27.16,281 27.46,281.387 27.62,281.714C27.78,282.029 27.859,282.417 27.859,282.875C27.859,283.497 27.684,284.009 27.333,284.411C26.983,284.804 26.533,285 25.984,285C25.523,285 25.128,284.873 24.802,284.62L24.802,283.547C25.187,283.828 25.538,283.969 25.854,283.969C26.149,283.969 26.38,283.872 26.547,283.677C26.714,283.479 26.797,283.212 26.797,282.875C26.797,282.583 26.733,282.321 26.604,282.089C26.538,281.977 26.446,281.851 26.328,281.708C26.21,281.562 26.062,281.401 25.885,281.224C25.611,280.953 25.384,280.714 25.203,280.505C25.023,280.297 24.889,280.115 24.802,279.958C24.635,279.653 24.552,279.267 24.552,278.802C24.552,278.174 24.715,277.675 25.042,277.307C25.372,276.936 25.814,276.75 26.37,276.75C26.755,276.75 27.123,276.842 27.474,277.026L27.474,277.026Z" style="fill:rgb(158,161,168);fill-rule:nonzero;"/>
            <path id="path955" d="M31.453,277.026L31.453,278.083C31.123,277.847 30.826,277.729 30.562,277.729C30.278,277.729 30.045,277.83 29.865,278.031C29.684,278.222 29.594,278.477 29.594,278.797C29.594,279.078 29.658,279.319 29.786,279.521C29.852,279.628 29.96,279.767 30.109,279.937C30.262,280.108 30.458,280.312 30.698,280.552C31.139,281 31.439,281.387 31.599,281.714C31.759,282.029 31.839,282.417 31.839,282.875C31.839,283.497 31.663,284.009 31.312,284.411C30.962,284.804 30.512,285 29.964,285C29.502,285 29.108,284.873 28.781,284.62L28.781,283.547C29.167,283.828 29.517,283.969 29.833,283.969C30.128,283.969 30.359,283.872 30.526,283.677C30.693,283.479 30.776,283.212 30.776,282.875C30.776,282.583 30.712,282.321 30.583,282.089C30.517,281.977 30.425,281.851 30.307,281.708C30.189,281.562 30.042,281.401 29.865,281.224C29.59,280.953 29.363,280.714 29.182,280.505C29.002,280.297 28.868,280.115 28.781,279.958C28.615,279.653 28.531,279.267 28.531,278.802C28.531,278.174 28.694,277.675 29.021,277.307C29.351,276.936 29.793,276.75 30.349,276.75C30.734,276.75 31.102,276.842 31.453,277.026L31.453,277.026Z" style="fill:rgb(158,161,168);fill-rule:nonzero;"/>
        </g>
        <g id="text948" transform="matrix(0.85898,0,0,1.16417,0,0)">
            <path id="path950" d="M8.731,15.28L8.731,4.919L11.402,4.919L12.805,8.556C12.881,8.771 12.966,9.017 13.06,9.294C13.158,9.572 13.266,9.892 13.382,10.254L13.67,11.167C13.568,10.267 13.489,9.498 13.436,8.858C13.382,8.218 13.355,7.682 13.355,7.248L13.355,4.919L16.026,4.919L16.026,15.28L13.355,15.28L11.946,11.469C11.798,11.062 11.664,10.681 11.543,10.328C11.427,9.97 11.324,9.63 11.234,9.308C11.293,10.037 11.335,10.672 11.362,11.214C11.389,11.755 11.402,12.229 11.402,12.636L11.402,15.28L8.731,15.28Z" style="fill:rgb(158,161,168);fill-rule:nonzero;"/>
            <path id="path952" d="M22.126,15.28L19.328,15.28L19.328,10.892L16.757,4.919L19.677,4.919L20.18,6.456C20.278,6.756 20.366,7.044 20.442,7.321C20.522,7.599 20.594,7.865 20.656,8.12C20.759,7.74 20.849,7.413 20.925,7.14C21.001,6.863 21.068,6.639 21.126,6.469L21.636,4.919L24.535,4.919L22.126,10.892L22.126,15.28Z" style="fill:rgb(158,161,168);fill-rule:nonzero;"/>
            <path id="path954" d="M24.804,15.025L24.804,11.771C25.354,12.522 25.949,12.898 26.589,12.898C26.83,12.898 27.027,12.835 27.179,12.71C27.331,12.58 27.407,12.419 27.407,12.227C27.407,11.95 27.242,11.679 26.911,11.415L26.454,11.059C26.15,10.831 25.891,10.605 25.676,10.382C25.461,10.153 25.287,9.921 25.153,9.684C25.018,9.442 24.92,9.194 24.857,8.939C24.795,8.684 24.763,8.415 24.763,8.133C24.763,7.65 24.875,7.145 25.099,6.617C25.211,6.371 25.34,6.147 25.488,5.946C25.636,5.74 25.806,5.559 25.998,5.402C26.526,4.955 27.164,4.731 27.911,4.731C28.577,4.731 29.248,4.908 29.924,5.261L29.924,8.429C29.696,8.075 29.436,7.798 29.145,7.597C28.855,7.391 28.568,7.288 28.287,7.288C28.072,7.288 27.895,7.351 27.756,7.476C27.613,7.597 27.542,7.742 27.542,7.912C27.542,8.189 27.732,8.465 28.112,8.737L28.555,9.066C29.145,9.491 29.568,9.927 29.823,10.375C30.083,10.822 30.213,11.346 30.213,11.945C30.213,12.965 29.902,13.806 29.28,14.468C28.658,15.131 27.87,15.462 26.918,15.462C26.26,15.462 25.555,15.316 24.804,15.025Z" style="fill:rgb(158,161,168);fill-rule:nonzero;"/>
            <path id="path956" d="M35.058,15.28L32.259,15.28L32.259,7.402L30.716,7.402L30.716,4.919L36.662,4.919L36.662,7.402L35.058,7.402L35.058,15.28Z" style="fill:rgb(158,161,168);fill-rule:nonzero;"/>
            <path id="path958" d="M37.4,15.28L37.4,4.919L42.601,4.919L42.601,7.355L40.198,7.355L40.198,8.865L42.352,8.865L42.352,11.207L40.198,11.207L40.198,12.791L42.601,12.791L42.601,15.28L37.4,15.28Z" style="fill:rgb(158,161,168);fill-rule:nonzero;"/>
            <path id="path960" d="M51.157,15.28L48.13,15.28L46.748,11.59C46.735,11.527 46.71,11.444 46.674,11.341C46.643,11.238 46.602,11.115 46.553,10.972L46.573,11.657L46.573,15.28L43.788,15.28L43.788,4.919L46.654,4.919C47.916,4.919 48.86,5.167 49.486,5.664C50.282,6.299 50.68,7.203 50.68,8.375C50.68,9.628 50.146,10.493 49.077,10.972L51.157,15.28ZM46.587,9.717L46.775,9.717C47.097,9.717 47.365,9.594 47.58,9.348C47.795,9.102 47.902,8.789 47.902,8.409C47.902,7.635 47.497,7.248 46.687,7.248L46.587,7.248L46.587,9.717Z" style="fill:rgb(158,161,168);fill-rule:nonzero;"/>
            <path id="path962" d="M52.083,15.28L52.083,4.919L57.284,4.919L57.284,7.355L54.881,7.355L54.881,8.865L57.035,8.865L57.035,11.207L54.881,11.207L54.881,12.791L57.284,12.791L57.284,15.28L52.083,15.28Z" style="fill:rgb(158,161,168);fill-rule:nonzero;"/>
            <path id="path964" d="M66.088,10.133C66.088,11.713 65.728,12.997 65.008,13.985C64.292,14.97 63.359,15.462 62.21,15.462C61.189,15.462 60.315,15.084 59.586,14.328C58.668,13.37 58.21,11.934 58.21,10.019C58.21,8.185 58.689,6.782 59.646,5.812C60.357,5.091 61.201,4.731 62.176,4.731C63.37,4.731 64.321,5.219 65.028,6.194C65.735,7.169 66.088,8.482 66.088,10.133ZM63.183,10.153C63.183,8.279 62.852,7.342 62.189,7.342C61.858,7.342 61.594,7.588 61.398,8.08C61.205,8.536 61.109,9.207 61.109,10.093C61.109,10.965 61.198,11.643 61.377,12.126C61.561,12.605 61.814,12.844 62.136,12.844C62.467,12.844 62.722,12.607 62.901,12.133C63.089,11.659 63.183,10.999 63.183,10.153L63.183,10.153Z" style="fill:rgb(158,161,168);fill-rule:nonzero;"/>
            <path id="path969" d="M73.101,12.093L72.94,15.086C72.318,15.336 71.761,15.462 71.269,15.462C70.11,15.462 69.135,15.037 68.343,14.187C67.457,13.234 67.014,11.885 67.014,10.14C67.014,8.507 67.43,7.196 68.263,6.207C69.095,5.223 70.207,4.731 71.598,4.731C72.05,4.731 72.511,4.816 72.98,4.986L72.98,7.946C72.564,7.529 72.137,7.321 71.699,7.321C71.126,7.321 70.679,7.565 70.356,8.053C70.034,8.545 69.873,9.225 69.873,10.093C69.873,10.514 69.913,10.889 69.994,11.22C70.075,11.551 70.189,11.831 70.336,12.059C70.488,12.287 70.674,12.462 70.893,12.583C71.112,12.704 71.363,12.764 71.645,12.764C72.128,12.764 72.613,12.54 73.101,12.093L73.101,12.093Z" style="fill:rgb(158,161,168);fill-rule:nonzero;"/>
            <path id="path971" d="M81.375,15.28L78.577,15.28L78.577,11.113L77.242,11.113L77.242,15.28L74.443,15.28L74.443,4.919L77.242,4.919L77.242,8.583L78.577,8.583L78.577,4.919L81.375,4.919L81.375,15.28Z" style="fill:rgb(158,161,168);fill-rule:nonzero;"/>
            <path id="path974" d="M90.435,10.133C90.435,11.713 90.075,12.997 89.355,13.985C88.639,14.97 87.706,15.462 86.556,15.462C85.536,15.462 84.662,15.084 83.932,14.328C83.015,13.37 82.557,11.934 82.557,10.019C82.557,8.185 83.035,6.782 83.993,5.812C84.704,5.091 85.547,4.731 86.523,4.731C87.717,4.731 88.668,5.219 89.375,6.194C90.082,7.169 90.435,8.482 90.435,10.133ZM87.529,10.153C87.529,8.279 87.198,7.342 86.536,7.342C86.205,7.342 85.941,7.588 85.744,8.08C85.552,8.536 85.456,9.207 85.456,10.093C85.456,10.965 85.545,11.643 85.724,12.126C85.908,12.605 86.16,12.844 86.482,12.844C86.813,12.844 87.068,12.607 87.247,12.133C87.435,11.659 87.529,10.999 87.529,10.153L87.529,10.153Z" style="fill:rgb(158,161,168);fill-rule:nonzero;"/>
            <path id="path976" d="M98.991,15.28L95.965,15.28L94.582,11.59C94.569,11.527 94.544,11.444 94.508,11.341C94.477,11.238 94.437,11.115 94.388,10.972L94.408,11.657L94.408,15.28L91.623,15.28L91.623,4.919L94.488,4.919C95.75,4.919 96.694,5.167 97.32,5.664C98.117,6.299 98.515,7.203 98.515,8.375C98.515,9.628 97.98,10.493 96.911,10.972L98.991,15.28ZM94.421,9.717L94.609,9.717C94.931,9.717 95.2,9.594 95.414,9.348C95.629,9.102 95.737,8.789 95.737,8.409C95.737,7.635 95.332,7.248 94.522,7.248L94.421,7.248L94.421,9.717Z" style="fill:rgb(158,161,168);fill-rule:nonzero;"/>
            <path id="path978" d="M104.065,4.919L106.863,4.919L106.863,12.247C106.863,12.86 106.767,13.357 106.574,13.737C106.387,14.135 106.073,14.495 105.635,14.817C105.044,15.247 104.326,15.462 103.481,15.462C102.523,15.462 101.72,15.225 101.072,14.75C100.248,14.146 99.837,13.18 99.837,11.851L99.837,4.919L102.635,4.919L102.635,11.603C102.635,12.055 102.689,12.375 102.796,12.563C102.908,12.75 103.094,12.844 103.353,12.844C103.622,12.844 103.807,12.757 103.91,12.583C104.013,12.399 104.065,12.075 104.065,11.61L104.065,4.919Z" style="fill:rgb(158,161,168);fill-rule:nonzero;"/>
            <path id="path980" d="M108.098,15.025L108.098,11.771C108.648,12.522 109.243,12.898 109.883,12.898C110.124,12.898 110.321,12.835 110.473,12.71C110.626,12.58 110.702,12.419 110.702,12.227C110.702,11.95 110.536,11.679 110.205,11.415L109.749,11.059C109.444,10.831 109.185,10.605 108.97,10.382C108.755,10.153 108.581,9.921 108.447,9.684C108.313,9.442 108.214,9.194 108.152,8.939C108.089,8.684 108.058,8.415 108.058,8.133C108.058,7.65 108.169,7.145 108.393,6.617C108.505,6.371 108.635,6.147 108.782,5.946C108.93,5.74 109.1,5.559 109.292,5.402C109.82,4.955 110.458,4.731 111.205,4.731C111.872,4.731 112.543,4.908 113.218,5.261L113.218,8.429C112.99,8.075 112.731,7.798 112.44,7.597C112.149,7.391 111.863,7.288 111.581,7.288C111.366,7.288 111.189,7.351 111.051,7.476C110.907,7.597 110.836,7.742 110.836,7.912C110.836,8.189 111.026,8.465 111.406,8.737L111.849,9.066C112.44,9.491 112.862,9.927 113.117,10.375C113.377,10.822 113.507,11.346 113.507,11.945C113.507,12.965 113.196,13.806 112.574,14.468C111.952,15.131 111.165,15.462 110.212,15.462C109.554,15.462 108.849,15.316 108.098,15.025L108.098,15.025Z" style="fill:rgb(158,161,168);fill-rule:nonzero;"/>
        </g>
    </g>
</svg>
