<?xml version="1.0" encoding="UTF-8" standalone="no"?>
<!DOCTYPE svg PUBLIC "-//W3C//DTD SVG 1.1//EN" "http://www.w3.org/Graphics/SVG/1.1/DTD/svg11.dtd">
<svg width="100%" height="100%" viewBox="0 0 15 380" version="1.1" xmlns="http://www.w3.org/2000/svg" xmlns:xlink="http://www.w3.org/1999/xlink" xml:space="preserve" xmlns:serif="http://www.serif.com/" style="fill-rule:evenodd;clip-rule:evenodd;stroke-linejoin:round;stroke-miterlimit:2;">
    <g id="Layer-2" serif:id="Layer 2">
        <g id="text989">
        </g>
        <rect id="rect4689" x="-0.264" y="0" width="15" height="380" style="fill:rgb(44,45,48);fill-rule:nonzero;"/>
        <g id="path4726" transform="matrix(1,0,0,1,-25.2463,11.1351)">
            <path d="M30,365.865L30,358.14L32.011,358.14L33.067,360.852C33.124,361.012 33.188,361.195 33.259,361.402C33.333,361.609 33.414,361.847 33.502,362.118L33.719,362.798C33.642,362.128 33.583,361.554 33.542,361.077C33.502,360.6 33.482,360.2 33.482,359.876L33.482,358.14L35.493,358.14L35.493,365.865L33.482,365.865L32.42,363.023C32.309,362.72 32.208,362.436 32.117,362.173C32.03,361.906 31.952,361.652 31.885,361.412C31.929,361.956 31.961,362.429 31.981,362.833C32.001,363.237 32.011,363.59 32.011,363.894L32.011,365.865L30,365.865Z" style="fill:rgb(158,161,168);fill-rule:nonzero;"/>
        </g>
        <g id="text4987">
        </g>
        <g id="text1042">
        </g>
        <g id="text1036" transform="matrix(1.0155,0,0,0.844055,0,-9.35762)">
            <path id="path1038" d="M5.732,37.326C5.732,38.55 5.596,39.419 5.323,39.934C5.051,40.448 4.595,40.705 3.955,40.705C3.281,40.705 2.807,40.429 2.532,39.875C2.26,39.334 2.124,38.372 2.124,36.99C2.124,35.757 2.258,34.885 2.528,34.373C2.8,33.859 3.261,33.601 3.91,33.601C4.49,33.601 4.921,33.8 5.202,34.198C5.388,34.465 5.522,34.843 5.606,35.334C5.69,35.788 5.732,36.453 5.732,37.326L5.732,37.326ZM4.753,37.425C4.753,36.225 4.7,35.429 4.592,35.037C4.484,34.643 4.264,34.445 3.932,34.445C3.6,34.445 3.379,34.626 3.268,34.988C3.16,35.353 3.106,36.086 3.106,37.187C3.106,38.201 3.163,38.904 3.277,39.296C3.394,39.667 3.612,39.853 3.932,39.853C4.246,39.853 4.462,39.679 4.578,39.332C4.695,38.988 4.753,38.352 4.753,37.425L4.753,37.425Z" style="fill:rgb(158,161,168);fill-rule:nonzero;"/>
            <path id="path1040" d="M9.38,33.803L9.38,34.643C9.141,34.526 8.94,34.468 8.779,34.468C8.558,34.468 8.368,34.523 8.209,34.634C8.05,34.741 7.919,34.909 7.814,35.136C7.712,35.364 7.636,35.652 7.585,36.002C7.537,36.349 7.513,36.761 7.513,37.236C7.513,38.948 7.952,39.803 8.828,39.803C8.981,39.803 9.165,39.756 9.38,39.66L9.38,40.517C9.156,40.643 8.905,40.705 8.626,40.705C7.223,40.705 6.522,39.56 6.522,37.268C6.522,36.029 6.692,35.108 7.033,34.503C7.377,33.899 7.902,33.597 8.608,33.597C8.869,33.597 9.126,33.666 9.38,33.803L9.38,33.803Z" style="fill:rgb(158,161,168);fill-rule:nonzero;"/>
            <path id="path1042" d="M9.609,33.691L12.647,33.691L12.647,34.508L11.602,34.508L11.602,40.62L10.686,40.62L10.686,34.508L9.609,34.508L9.609,33.691Z" style="fill:rgb(158,161,168);fill-rule:nonzero;"/>
        </g>
        <g id="text1078" transform="matrix(1.09687,0,0,0.911685,0,36.5)">
            <path id="path1080" d="M3.273,131.242L5.583,131.242L5.583,131.973L4.137,131.973L4.137,134.001L5.442,134.001L5.442,134.732L4.137,134.732L4.137,137.657L3.273,137.657L3.273,131.242Z" style="fill:rgb(158,161,168);fill-rule:nonzero;"/>
            <path id="path1082" d="M6.551,131.242L7.291,131.242L7.856,133.86C7.925,134.187 7.987,134.515 8.043,134.844C8.101,135.171 8.153,135.515 8.2,135.875C8.206,135.828 8.21,135.792 8.213,135.767C8.216,135.739 8.218,135.72 8.221,135.709L8.342,134.973L8.45,134.275L8.545,133.814L9.048,131.242L9.796,131.242L10.386,137.657L9.559,137.657L9.414,135.48C9.408,135.369 9.403,135.274 9.397,135.193C9.394,135.113 9.393,135.047 9.393,134.994L9.355,134.134L9.335,133.345C9.335,133.339 9.333,133.328 9.331,133.311C9.331,133.292 9.329,133.267 9.326,133.236L9.306,133.365C9.283,133.518 9.263,133.651 9.243,133.764C9.227,133.878 9.211,133.973 9.198,134.051L9.09,134.637L9.048,134.857L8.508,137.657L7.926,137.657L7.419,135.239C7.35,134.921 7.288,134.598 7.232,134.271C7.18,133.941 7.131,133.597 7.087,133.237L6.838,137.657L6.023,137.657L6.551,131.242Z" style="fill:rgb(158,161,168);fill-rule:nonzero;"/>
        </g>
        <g id="text1087" transform="matrix(1.09687,0,0,0.911685,0,56)">
            <path id="path1089" d="M1.86,155.922L2.724,155.922L2.724,161.606L4.137,161.606L4.137,162.337L1.86,162.337L1.86,155.922Z" style="fill:rgb(158,161,168);fill-rule:nonzero;"/>
            <path id="path1091" d="M4.685,155.922L6.996,155.922L6.996,156.653L5.55,156.653L5.55,158.681L6.854,158.681L6.854,159.412L5.55,159.412L5.55,162.337L4.685,162.337L4.685,155.922Z" style="fill:rgb(158,161,168);fill-rule:nonzero;"/>
            <path id="path1093" d="M7.964,155.922L8.703,155.922L9.268,158.539C9.337,158.866 9.4,159.194 9.455,159.524C9.513,159.851 9.566,160.194 9.613,160.554C9.619,160.507 9.623,160.471 9.626,160.446C9.628,160.419 9.631,160.399 9.634,160.388L9.754,159.653L9.862,158.955L9.958,158.494L10.461,155.922L11.209,155.922L11.798,162.337L10.972,162.337L10.826,160.16C10.821,160.049 10.815,159.953 10.81,159.873C10.807,159.793 10.805,159.726 10.805,159.674L10.768,158.814L10.747,158.024C10.747,158.019 10.746,158.008 10.743,157.991C10.743,157.971 10.742,157.947 10.739,157.916L10.718,158.045C10.696,158.197 10.675,158.33 10.656,158.444C10.639,158.557 10.624,158.653 10.61,158.73L10.502,159.316L10.461,159.536L9.92,162.337L9.339,162.337L8.832,159.919C8.763,159.6 8.7,159.278 8.645,158.951C8.592,158.621 8.544,158.276 8.5,157.916L8.25,162.337L7.436,162.337L7.964,155.922Z" style="fill:rgb(158,161,168);fill-rule:nonzero;"/>
        </g>
        <g id="text1006" transform="matrix(1.09687,0,0,0.911685,0,36)">
            <path id="path1008" d="M3.452,82.456L3.452,83.233C3.23,83.125 3.045,83.071 2.895,83.071C2.69,83.071 2.514,83.123 2.368,83.225C2.221,83.325 2.099,83.48 2.002,83.69C1.908,83.901 1.837,84.168 1.79,84.492C1.746,84.814 1.724,85.194 1.724,85.635C1.724,87.219 2.129,88.011 2.941,88.011C3.082,88.011 3.253,87.967 3.452,87.878L3.452,88.672C3.244,88.788 3.012,88.846 2.754,88.846C1.455,88.846 0.805,87.786 0.805,85.664C0.805,84.517 0.963,83.664 1.279,83.105C1.598,82.545 2.084,82.265 2.737,82.265C2.978,82.265 3.217,82.329 3.452,82.456L3.452,82.456Z" style="fill:rgb(158,161,168);fill-rule:nonzero;"/>
            <path id="path1010" d="M3.664,82.353L4.516,82.353L4.902,84.721L4.969,85.149L5.106,86.079C5.128,86.237 5.147,86.381 5.164,86.512C5.183,86.642 5.2,86.759 5.214,86.865L5.255,87.18C5.264,87.117 5.27,87.06 5.276,87.01C5.282,86.96 5.287,86.919 5.293,86.885L5.405,86.142L5.55,85.165C5.564,85.077 5.577,84.995 5.588,84.92C5.602,84.845 5.614,84.779 5.625,84.721L6.041,82.353L6.847,82.353L5.588,88.768L4.902,88.768L3.664,82.353Z" style="fill:rgb(158,161,168);fill-rule:nonzero;"/>
            <rect id="path1012" x="7.316" y="82.353" width="0.864" height="6.415" style="fill:rgb(158,161,168);fill-rule:nonzero;"/>
            <path id="path1014" d="M12.389,85.718C12.389,86.851 12.263,87.655 12.011,88.132C11.759,88.608 11.337,88.847 10.744,88.847C10.121,88.847 9.682,88.59 9.427,88.078C9.175,87.577 9.049,86.686 9.049,85.406C9.049,84.265 9.173,83.458 9.423,82.984C9.675,82.508 10.101,82.269 10.702,82.269C11.24,82.269 11.638,82.454 11.899,82.822C12.071,83.069 12.195,83.419 12.273,83.873C12.35,84.294 12.389,84.909 12.389,85.718L12.389,85.718ZM11.483,85.809C11.483,84.699 11.433,83.962 11.334,83.599C11.234,83.233 11.03,83.051 10.723,83.051C10.416,83.051 10.211,83.218 10.108,83.553C10.008,83.891 9.958,84.57 9.958,85.589C9.958,86.528 10.011,87.179 10.116,87.542C10.224,87.885 10.427,88.057 10.723,88.057C11.014,88.057 11.213,87.896 11.321,87.575C11.429,87.257 11.483,86.668 11.483,85.809L11.483,85.809Z" style="fill:rgb(158,161,168);fill-rule:nonzero;"/>
        </g>
        <g id="text1059" transform="matrix(1.33244,0,0,1.4644,-2.25,-166.326)">
            <path id="path1061" d="M5.561,349.662C5.561,350.72 5.443,351.472 5.207,351.917C4.972,352.363 4.577,352.585 4.023,352.585C3.441,352.585 3.031,352.346 2.792,351.867C2.557,351.399 2.439,350.566 2.439,349.371C2.439,348.304 2.556,347.55 2.789,347.107C3.024,346.662 3.423,346.439 3.984,346.439C4.486,346.439 4.859,346.612 5.102,346.956C5.263,347.186 5.379,347.514 5.452,347.938C5.524,348.331 5.561,348.906 5.561,349.662ZM4.714,349.747C4.714,348.709 4.668,348.021 4.574,347.682C4.481,347.34 4.291,347.169 4.004,347.169C3.716,347.169 3.525,347.326 3.429,347.639C3.336,347.955 3.289,348.589 3.289,349.541C3.289,350.419 3.339,351.027 3.437,351.366C3.538,351.687 3.727,351.848 4.004,351.848C4.276,351.848 4.462,351.697 4.563,351.397C4.664,351.1 4.714,350.55 4.714,349.747L4.714,349.747Z" style="fill:rgb(158,161,168);fill-rule:nonzero;"/>
            <path id="path1063" d="M6.364,346.517L7.156,346.517L7.156,350.753C7.156,351.185 7.195,351.472 7.273,351.615C7.353,351.757 7.511,351.828 7.746,351.828C7.982,351.828 8.137,351.766 8.212,351.642C8.29,351.515 8.329,351.257 8.329,350.869L8.329,346.517L9.121,346.517L9.121,350.869C9.121,351.521 9.021,351.963 8.822,352.193C8.584,352.455 8.22,352.585 7.731,352.585C7.192,352.585 6.813,352.417 6.593,352.081C6.441,351.85 6.364,351.408 6.364,350.753L6.364,346.517Z" style="fill:rgb(158,161,168);fill-rule:nonzero;"/>
            <path id="path1065" d="M9.567,346.517L12.196,346.517L12.196,347.224L11.291,347.224L11.291,352.511L10.499,352.511L10.499,347.224L9.567,347.224L9.567,346.517Z" style="fill:rgb(158,161,168);fill-rule:nonzero;"/>
        </g>
        <g id="text1101" transform="matrix(0.841728,0,0,1.10317,0.789018,-12)">
            <path id="path1103" d="M2.177,69.981L2.177,70.678C1.959,70.522 1.764,70.444 1.59,70.444C1.402,70.444 1.249,70.511 1.13,70.643C1.011,70.769 0.951,70.937 0.951,71.148C0.951,71.333 0.993,71.493 1.078,71.625C1.122,71.696 1.193,71.788 1.291,71.9C1.392,72.012 1.521,72.147 1.679,72.305C1.97,72.6 2.168,72.856 2.273,73.071C2.378,73.279 2.431,73.534 2.431,73.837C2.431,74.246 2.315,74.584 2.084,74.849C1.853,75.108 1.557,75.237 1.195,75.237C0.89,75.237 0.631,75.154 0.415,74.987L0.415,74.279C0.67,74.465 0.901,74.558 1.109,74.558C1.304,74.558 1.456,74.494 1.566,74.365C1.676,74.235 1.731,74.059 1.731,73.837C1.731,73.644 1.688,73.471 1.604,73.318C1.56,73.245 1.499,73.161 1.422,73.067C1.344,72.971 1.246,72.865 1.13,72.748C0.949,72.57 0.799,72.412 0.68,72.274C0.561,72.137 0.473,72.017 0.415,71.914C0.306,71.712 0.251,71.458 0.251,71.151C0.251,70.737 0.358,70.409 0.573,70.166C0.791,69.921 1.083,69.799 1.449,69.799C1.703,69.799 1.946,69.859 2.177,69.981L2.177,69.981Z" style="fill:rgb(158,161,168);fill-rule:nonzero;"/>
            <path id="path1105" d="M2.678,69.871L3.434,69.871L3.784,71.024C3.795,71.059 3.807,71.097 3.818,71.138C3.83,71.179 3.843,71.224 3.859,71.272C3.99,71.688 4.079,72.039 4.127,72.322C4.168,72.039 4.203,71.841 4.23,71.728L4.34,71.255L4.381,71.069L4.677,69.871L5.422,69.871L4.498,72.892L4.498,75.172L3.784,75.172L3.784,72.892L2.678,69.871Z" style="fill:rgb(158,161,168);fill-rule:nonzero;"/>
            <rect id="path1107" x="6.867" y="73.085" width="1.25" height="0.536" style="fill:rgb(158,161,168);fill-rule:nonzero;"/>
            <path id="path1109" d="M9.559,69.871L11.884,69.871L11.884,70.496L11.084,70.496L11.084,75.172L10.383,75.172L10.383,70.496L9.559,70.496L9.559,69.871Z" style="fill:rgb(158,161,168);fill-rule:nonzero;"/>
            <path id="path1111" d="M12.526,69.871L13.137,69.871L13.604,72.034C13.661,72.304 13.713,72.575 13.759,72.848C13.807,73.118 13.85,73.402 13.889,73.699C13.894,73.66 13.897,73.631 13.899,73.61C13.902,73.587 13.904,73.571 13.906,73.562L14.006,72.954L14.095,72.377L14.174,71.996L14.589,69.871L15.208,69.871L15.695,75.172L15.012,75.172L14.892,73.373C14.887,73.281 14.882,73.203 14.878,73.136C14.876,73.07 14.874,73.015 14.874,72.971L14.844,72.261L14.826,71.608C14.826,71.604 14.825,71.594 14.823,71.581C14.823,71.564 14.822,71.544 14.82,71.519L14.802,71.625C14.784,71.751 14.767,71.861 14.751,71.955C14.737,72.049 14.725,72.128 14.713,72.192L14.624,72.676L14.59,72.858L14.143,75.172L13.662,75.172L13.243,73.174C13.186,72.911 13.135,72.644 13.089,72.374C13.045,72.101 13.005,71.816 12.969,71.519L12.763,75.172L12.09,75.172L12.526,69.871Z" style="fill:rgb(158,161,168);fill-rule:nonzero;"/>
        </g>
        <g id="text1116" transform="matrix(1.0273,0,0,0.973423,0,0)">
            <path id="path1118" d="M0.973,42.201L3.608,42.201L3.608,42.909L2.701,42.909L2.701,48.209L1.907,48.209L1.907,42.909L0.973,42.909L0.973,42.201Z" style="fill:rgb(158,161,168);fill-rule:nonzero;"/>
            <path id="path1120" d="M4.051,42.201L4.845,42.201L4.845,46.447C4.845,46.88 4.884,47.168 4.962,47.31C5.042,47.453 5.201,47.524 5.437,47.524C5.673,47.524 5.828,47.462 5.904,47.338C5.982,47.211 6.02,46.952 6.02,46.563L6.02,42.201L6.814,42.201L6.814,46.563C6.814,47.217 6.714,47.659 6.515,47.89C6.276,48.152 5.911,48.283 5.421,48.283C4.882,48.283 4.502,48.115 4.281,47.777C4.128,47.546 4.051,47.103 4.051,46.447L4.051,42.201Z" style="fill:rgb(158,161,168);fill-rule:nonzero;"/>
            <path id="path1122" d="M7.74,42.201L8.495,42.201L9.301,44.598C9.534,45.275 9.741,45.998 9.92,46.766C9.855,46.301 9.807,45.881 9.776,45.505C9.744,45.129 9.729,44.775 9.729,44.443L9.729,42.201L10.542,42.201L10.542,48.209L9.783,48.209L8.877,45.505C8.794,45.253 8.715,44.995 8.639,44.73C8.567,44.466 8.499,44.188 8.437,43.898C8.432,43.861 8.423,43.817 8.41,43.765C8.399,43.714 8.386,43.654 8.371,43.586C8.379,43.654 8.385,43.712 8.39,43.762C8.395,43.808 8.399,43.848 8.402,43.882L8.445,44.493L8.488,45.236C8.49,45.278 8.491,45.328 8.491,45.388C8.494,45.448 8.495,45.515 8.495,45.59L8.538,48.209L7.74,48.209L7.74,42.201Z" style="fill:rgb(158,161,168);fill-rule:nonzero;"/>
            <path id="path1124" d="M11.476,42.201L13.628,42.201L13.628,42.886L12.285,42.886L12.285,44.789L13.476,44.789L13.476,45.474L12.285,45.474L12.285,47.524L13.628,47.524L13.628,48.209L11.476,48.209L11.476,42.201Z" style="fill:rgb(158,161,168);fill-rule:nonzero;"/>
        </g>
        <g id="text1129" transform="matrix(0.982272,0,0,1.01805,-3.82834e-08,60)">
            <path id="path1131" d="M1.018,249.575L2.038,249.575C2.459,249.575 2.773,249.676 2.979,249.877C3.239,250.137 3.37,250.535 3.37,251.071C3.37,251.483 3.3,251.814 3.161,252.064C3.025,252.312 2.829,252.466 2.573,252.526L3.63,255.32L2.845,255.32L1.792,252.507L1.792,255.32L1.018,255.32L1.018,249.575ZM1.792,252.12C2.092,252.12 2.304,252.051 2.428,251.912C2.552,251.773 2.614,251.538 2.614,251.209C2.614,251.03 2.601,250.877 2.573,250.751C2.549,250.624 2.508,250.521 2.451,250.442C2.396,250.363 2.324,250.304 2.235,250.267C2.148,250.23 2.044,250.211 1.922,250.211L1.792,250.211L1.792,252.12Z" style="fill:rgb(158,161,168);fill-rule:nonzero;"/>
            <path id="path1133" d="M5.051,249.575L5.654,249.575L6.886,255.32L6.119,255.32L5.903,254.2L4.765,254.2L4.545,255.32L3.801,255.32L5.051,249.575ZM5.792,253.601L5.621,252.686C5.506,252.063 5.413,251.398 5.342,250.691C5.307,251.036 5.262,251.386 5.208,251.741C5.153,252.093 5.089,252.467 5.014,252.864L4.873,253.601L5.792,253.601Z" style="fill:rgb(158,161,168);fill-rule:nonzero;"/>
            <path id="path1135" d="M6.767,249.575L9.286,249.575L9.286,250.252L8.419,250.252L8.419,255.32L7.66,255.32L7.66,250.252L6.767,250.252L6.767,249.575Z" style="fill:rgb(158,161,168);fill-rule:nonzero;"/>
            <rect id="path1137" x="9.71" y="249.575" width="0.774" height="5.745" style="fill:rgb(158,161,168);fill-rule:nonzero;"/>
            <path id="path1139" d="M14.253,252.589C14.253,253.603 14.14,254.324 13.914,254.751C13.688,255.177 13.31,255.391 12.779,255.391C12.221,255.391 11.828,255.161 11.6,254.702C11.374,254.253 11.261,253.456 11.261,252.31C11.261,251.288 11.373,250.565 11.596,250.141C11.822,249.714 12.204,249.501 12.742,249.501C13.223,249.501 13.58,249.666 13.814,249.996C13.967,250.216 14.079,250.53 14.148,250.937C14.218,251.314 14.253,251.865 14.253,252.589L14.253,252.589ZM13.442,252.671C13.442,251.676 13.397,251.016 13.308,250.691C13.218,250.364 13.036,250.2 12.761,250.2C12.485,250.2 12.302,250.35 12.21,250.65C12.121,250.953 12.076,251.561 12.076,252.474C12.076,253.315 12.123,253.897 12.217,254.222C12.314,254.53 12.495,254.684 12.761,254.684C13.021,254.684 13.2,254.54 13.296,254.252C13.393,253.967 13.442,253.44 13.442,252.671L13.442,252.671Z" style="fill:rgb(158,161,168);fill-rule:nonzero;"/>
        </g>
        <g id="text1144" transform="matrix(1.06865,0,0,0.93576,0,14)">
            <path id="path1146" d="M4.211,292.81L6.52,292.81L6.52,293.541L5.075,293.541L5.075,295.567L6.379,295.567L6.379,296.298L5.075,296.298L5.075,299.222L4.211,299.222L4.211,292.81Z" style="fill:rgb(158,161,168);fill-rule:nonzero;"/>
            <path id="path1148" d="M7.184,292.81L8.355,292.81C9.272,292.81 9.73,293.379 9.73,294.517C9.73,294.951 9.67,295.274 9.551,295.484C9.432,295.695 9.222,295.854 8.92,295.962C9.266,296.1 9.503,296.278 9.63,296.493C9.76,296.707 9.825,297.028 9.825,297.457C9.825,298.634 9.322,299.222 8.314,299.222L7.184,299.222L7.184,292.81ZM7.998,295.634C8.333,295.634 8.566,295.556 8.696,295.401C8.826,295.238 8.891,294.951 8.891,294.542C8.891,293.85 8.642,293.503 8.144,293.503L8.077,293.503L8.04,293.503C8.018,293.503 8.004,293.505 7.998,293.508L7.998,295.634ZM7.998,298.483C8.353,298.483 8.598,298.407 8.733,298.254C8.869,298.102 8.937,297.827 8.937,297.428C8.937,297.018 8.866,296.732 8.725,296.568C8.587,296.402 8.344,296.319 7.998,296.319L7.998,298.483Z" style="fill:rgb(158,161,168);fill-rule:nonzero;"/>
        </g>
        <g id="text1153" transform="matrix(0.806589,0,0,1.10587,0.535714,0.709194)">
            <path id="path1155" d="M8.543,10.247C8.543,11.844 8.178,13.143 7.45,14.142C6.726,15.138 5.783,15.635 4.62,15.635C3.589,15.635 2.704,15.253 1.967,14.489C1.039,13.52 0.576,12.068 0.576,10.132C0.576,8.277 1.06,6.859 2.028,5.877C2.747,5.148 3.6,4.784 4.586,4.784C5.794,4.784 6.756,5.277 7.47,6.264C8.185,7.25 8.543,8.578 8.543,10.247ZM5.604,10.268C5.604,8.372 5.269,7.424 4.6,7.424C4.265,7.424 3.998,7.673 3.799,8.171C3.605,8.632 3.507,9.311 3.507,10.206C3.507,11.089 3.598,11.774 3.779,12.263C3.964,12.747 4.22,12.989 4.546,12.989C4.88,12.989 5.138,12.749 5.319,12.269C5.509,11.79 5.604,11.123 5.604,10.268L5.604,10.268Z" style="fill:rgb(158,161,168);fill-rule:nonzero;"/>
            <path id="path1157" d="M12.574,15.452L9.744,15.452L9.744,4.974L12.485,4.974C13.852,4.974 14.865,5.253 15.526,5.809C16.304,6.465 16.693,7.377 16.693,8.544C16.693,9.815 16.279,10.763 15.451,11.387C14.885,11.808 14.073,12.018 13.015,12.018L12.574,12.018L12.574,15.452ZM12.574,9.664L12.703,9.67C13.046,9.67 13.32,9.566 13.524,9.358C13.727,9.146 13.829,8.856 13.829,8.49C13.829,8.128 13.73,7.834 13.53,7.607C13.331,7.377 13.078,7.261 12.77,7.261L12.574,7.261L12.574,9.664Z" style="fill:rgb(158,161,168);fill-rule:nonzero;"/>
        </g>
    </g>
</svg>
