<?xml version="1.0" encoding="UTF-8" standalone="no"?>
<!DOCTYPE svg PUBLIC "-//W3C//DTD SVG 1.1//EN" "http://www.w3.org/Graphics/SVG/1.1/DTD/svg11.dtd">
<svg width="100%" height="100%" viewBox="0 0 105 380" version="1.1" xmlns="http://www.w3.org/2000/svg" xmlns:xlink="http://www.w3.org/1999/xlink" xml:space="preserve" xmlns:serif="http://www.serif.com/" style="fill-rule:evenodd;clip-rule:evenodd;stroke-linejoin:round;stroke-miterlimit:2;">
    <g id="Layer-2" serif:id="Layer 2">
        <rect id="rect4689" x="0" y="0" width="105" height="380" style="fill:rgb(44,45,48);"/>
        <g id="text989">
        </g>
        <g id="text80" transform="matrix(1.00498,0,0,0.995047,7.49999,4.99997)">
            <path id="path4726" d="M29.851,371.706L29.851,363.943L31.853,363.943L32.903,366.668C32.96,366.829 33.024,367.013 33.094,367.221C33.168,367.429 33.249,367.668 33.336,367.94L33.552,368.624C33.475,367.95 33.416,367.373 33.376,366.894C33.336,366.415 33.316,366.013 33.316,365.687L33.316,363.943L35.317,363.943L35.317,371.706L33.316,371.706L32.26,368.85C32.149,368.545 32.049,368.26 31.958,367.995C31.871,367.727 31.794,367.472 31.727,367.231C31.77,367.777 31.802,368.253 31.822,368.659C31.843,369.065 31.853,369.42 31.853,369.725L31.853,371.706L29.851,371.706Z" style="fill:rgb(158,161,168);fill-rule:nonzero;"/>
            <path id="path4728" d="M39.887,371.706L37.791,371.706L37.791,368.418L35.865,363.943L38.052,363.943L38.429,365.094C38.503,365.319 38.568,365.535 38.625,365.743C38.686,365.951 38.739,366.15 38.786,366.341C38.863,366.056 38.93,365.811 38.987,365.607C39.044,365.399 39.095,365.232 39.138,365.104L39.52,363.943L41.692,363.943L39.887,368.418L39.887,371.706Z" style="fill:rgb(158,161,168);fill-rule:nonzero;"/>
            <path id="path4730" d="M41.894,371.515L41.894,369.076C42.306,369.639 42.752,369.921 43.231,369.921C43.412,369.921 43.56,369.874 43.673,369.78C43.787,369.683 43.844,369.562 43.844,369.418C43.844,369.21 43.72,369.008 43.472,368.81L43.13,368.543C42.902,368.372 42.708,368.203 42.547,368.035C42.386,367.865 42.256,367.69 42.155,367.513C42.054,367.332 41.981,367.146 41.934,366.954C41.887,366.763 41.863,366.562 41.863,366.351C41.863,365.989 41.947,365.61 42.115,365.215C42.199,365.03 42.296,364.863 42.406,364.712C42.517,364.558 42.644,364.422 42.789,364.305C43.184,363.969 43.662,363.802 44.222,363.802C44.721,363.802 45.224,363.934 45.73,364.199L45.73,366.572C45.559,366.308 45.365,366.1 45.147,365.949C44.929,365.795 44.714,365.718 44.503,365.718C44.342,365.718 44.21,365.765 44.106,365.858C43.999,365.949 43.945,366.058 43.945,366.185C43.945,366.393 44.087,366.599 44.372,366.804L44.704,367.05C45.147,367.368 45.463,367.695 45.655,368.03C45.849,368.366 45.946,368.758 45.946,369.207C45.946,369.971 45.713,370.601 45.247,371.098C44.781,371.594 44.191,371.842 43.477,371.842C42.985,371.842 42.457,371.733 41.894,371.515L41.894,371.515Z" style="fill:rgb(158,161,168);fill-rule:nonzero;"/>
            <path id="path4732" d="M49.576,371.706L47.48,371.706L47.48,365.803L46.323,365.803L46.323,363.943L50.778,363.943L50.778,365.803L49.576,365.803L49.576,371.706Z" style="fill:rgb(158,161,168);fill-rule:nonzero;"/>
            <path id="path4734" d="M56.525,371.706L54.428,371.706L54.428,368.584L53.428,368.584L53.428,371.706L51.331,371.706L51.331,363.943L53.428,363.943L53.428,366.688L54.428,366.688L54.428,363.943L56.525,363.943L56.525,371.706Z" style="fill:rgb(158,161,168);fill-rule:nonzero;"/>
            <rect id="path4736" x="57.606" y="363.943" width="2.097" height="7.763" style="fill:rgb(158,161,168);fill-rule:nonzero;"/>
        </g>
        <rect id="rect4778-3-6" x="6" y="27" width="34" height="42" style="fill:rgb(179,179,179);"/>
        <g id="text4613">
            <path id="path4701" d="M17.141,61L15.047,61L15.047,55.37L17.141,55.37L17.141,61ZM17.318,53.625C17.318,53.955 17.198,54.24 16.958,54.479C16.712,54.715 16.425,54.833 16.099,54.833C15.762,54.833 15.474,54.714 15.234,54.474C14.998,54.227 14.88,53.939 14.88,53.609C14.88,53.273 14.998,52.986 15.234,52.75C15.481,52.514 15.767,52.396 16.094,52.396C16.438,52.396 16.727,52.516 16.964,52.755C17.2,52.991 17.318,53.281 17.318,53.625Z" style="fill:rgb(44,45,48);fill-rule:nonzero;"/>
            <path id="path4703" d="M23.068,61L20.979,61L20.979,58.021C20.979,57.764 20.953,57.585 20.901,57.484C20.852,57.384 20.766,57.333 20.641,57.333C20.349,57.333 20.203,57.609 20.203,58.161L20.203,61L18.115,61L18.115,55.37L20.203,55.37C20.2,55.509 20.196,55.637 20.193,55.755C20.189,55.873 20.184,55.983 20.177,56.083L20.156,56.443C20.493,55.648 20.986,55.25 21.635,55.25C22.087,55.25 22.438,55.418 22.688,55.755C22.941,56.092 23.068,56.561 23.068,57.161L23.068,61Z" style="fill:rgb(44,45,48);fill-rule:nonzero;"/>
            <path id="path4705" d="M31.12,61L27.318,61L27.318,52.958L29.49,52.958L29.49,59.068L31.12,59.068L31.12,61Z" style="fill:rgb(44,45,48);fill-rule:nonzero;"/>
        </g>
        <g id="g938" transform="matrix(1,0,0,1,15,0)">
            <rect id="rect4662" x="50" y="27" width="34" height="42" style="fill:rgb(179,179,179);"/>
            <g id="text4617">
                <path id="path4708" d="M60.182,61L58.089,61L58.089,55.37L60.182,55.37L60.182,61ZM60.359,53.625C60.359,53.955 60.24,54.24 60,54.479C59.753,54.715 59.467,54.833 59.141,54.833C58.804,54.833 58.516,54.714 58.276,54.474C58.04,54.227 57.922,53.939 57.922,53.609C57.922,53.273 58.04,52.986 58.276,52.75C58.523,52.514 58.809,52.396 59.135,52.396C59.479,52.396 59.769,52.516 60.005,52.755C60.241,52.991 60.359,53.281 60.359,53.625L60.359,53.625Z" style="fill:rgb(44,45,48);fill-rule:nonzero;"/>
                <path id="path4710" d="M66.109,61L64.021,61L64.021,58.021C64.021,57.764 63.995,57.585 63.943,57.484C63.894,57.384 63.807,57.333 63.682,57.333C63.391,57.333 63.245,57.609 63.245,58.161L63.245,61L61.156,61L61.156,55.37L63.245,55.37C63.241,55.509 63.238,55.637 63.234,55.755C63.231,55.873 63.226,55.983 63.219,56.083L63.198,56.443C63.535,55.648 64.028,55.25 64.677,55.25C65.128,55.25 65.479,55.418 65.729,55.755C65.983,56.092 66.109,56.561 66.109,57.161L66.109,61Z" style="fill:rgb(44,45,48);fill-rule:nonzero;"/>
                <path id="path4712" d="M76.078,61L73.729,61L72.656,58.135C72.646,58.087 72.627,58.023 72.599,57.943C72.575,57.863 72.544,57.767 72.505,57.656L72.521,58.187L72.521,61L70.359,61L70.359,52.958L72.583,52.958C73.562,52.958 74.295,53.151 74.781,53.536C75.399,54.03 75.708,54.731 75.708,55.641C75.708,56.613 75.293,57.285 74.463,57.656L76.078,61ZM72.531,56.682L72.677,56.682C72.927,56.682 73.135,56.587 73.302,56.396C73.469,56.205 73.552,55.962 73.552,55.667C73.552,55.066 73.238,54.766 72.609,54.766L72.531,54.766L72.531,56.682Z" style="fill:rgb(44,45,48);fill-rule:nonzero;"/>
            </g>
        </g>
        <g id="g4922">
            <rect id="rect4778" x="6" y="310" width="34" height="42" style="fill:rgb(60,60,60);"/>
            <g id="text4861">
                <path id="path4899" d="M16.849,345.271C16.849,346.139 16.609,346.83 16.13,347.344C15.651,347.858 15.009,348.115 14.203,348.115C13.411,348.115 12.781,347.852 12.313,347.328C11.847,346.8 11.615,346.092 11.615,345.203C11.615,344.314 11.852,343.601 12.328,343.062C12.8,342.521 13.427,342.25 14.208,342.25C15.031,342.25 15.677,342.519 16.146,343.057C16.615,343.595 16.849,344.333 16.849,345.271ZM14.823,345.203C14.823,344.995 14.809,344.807 14.781,344.641C14.753,344.47 14.714,344.326 14.661,344.208C14.609,344.087 14.547,343.993 14.474,343.927C14.401,343.861 14.319,343.828 14.229,343.828C14.052,343.828 13.91,343.953 13.802,344.203C13.694,344.422 13.641,344.75 13.641,345.188C13.641,345.618 13.694,345.946 13.802,346.172C13.91,346.422 14.054,346.547 14.234,346.547C14.405,346.547 14.545,346.424 14.656,346.177C14.767,345.903 14.823,345.578 14.823,345.203L14.823,345.203Z" style="fill:rgb(197,200,209);fill-rule:nonzero;"/>
                <path id="path4901" d="M17.651,342.37L19.74,342.37L19.74,345.542C19.74,345.844 19.769,346.064 19.828,346.203C19.891,346.318 20.009,346.375 20.182,346.375C20.352,346.375 20.467,346.318 20.526,346.203C20.589,346.089 20.62,345.868 20.62,345.542L20.62,342.37L22.708,342.37L22.708,345.823C22.708,346.052 22.689,346.26 22.651,346.448C22.616,346.632 22.559,346.8 22.479,346.953C22.403,347.102 22.302,347.24 22.177,347.365C22.056,347.49 21.91,347.604 21.74,347.708C21.281,347.979 20.762,348.115 20.182,348.115C19.595,348.115 19.076,347.979 18.625,347.708C18.451,347.604 18.302,347.491 18.177,347.37C18.056,347.245 17.955,347.106 17.875,346.953C17.799,346.8 17.741,346.632 17.703,346.448C17.668,346.26 17.651,346.052 17.651,345.823L17.651,342.37Z" style="fill:rgb(197,200,209);fill-rule:nonzero;"/>
                <path id="path4903" d="M26.047,348L23.953,348L23.953,344.052L23.359,344.052L23.359,342.37L23.953,342.37L23.953,340.714L26.047,340.714L26.047,342.37L26.74,342.37L26.74,344.052L26.047,344.052L26.047,348Z" style="fill:rgb(197,200,209);fill-rule:nonzero;"/>
                <path id="path4905" d="M34.385,348L30.583,348L30.583,339.958L32.755,339.958L32.755,346.068L34.385,346.068L34.385,348Z" style="fill:rgb(197,200,209);fill-rule:nonzero;"/>
            </g>
        </g>
        <g id="g4914" transform="matrix(1,0,0,1,15,0)">
            <rect id="rect4778-3" x="50" y="310" width="34" height="42" style="fill:rgb(60,60,60);"/>
            <g id="text4886">
                <path id="path4890" d="M59.891,345.271C59.891,346.139 59.651,346.83 59.172,347.344C58.693,347.858 58.05,348.115 57.245,348.115C56.453,348.115 55.823,347.852 55.354,347.328C54.889,346.8 54.656,346.092 54.656,345.203C54.656,344.314 54.894,343.601 55.37,343.062C55.842,342.521 56.469,342.25 57.25,342.25C58.073,342.25 58.719,342.519 59.187,343.057C59.656,343.595 59.891,344.333 59.891,345.271ZM57.865,345.203C57.865,344.995 57.851,344.807 57.823,344.641C57.795,344.47 57.755,344.326 57.703,344.208C57.651,344.087 57.589,343.993 57.516,343.927C57.443,343.861 57.361,343.828 57.271,343.828C57.094,343.828 56.951,343.953 56.844,344.203C56.736,344.422 56.682,344.75 56.682,345.187C56.682,345.618 56.736,345.946 56.844,346.172C56.951,346.422 57.095,346.547 57.276,346.547C57.446,346.547 57.587,346.424 57.698,346.177C57.809,345.903 57.865,345.578 57.865,345.203L57.865,345.203Z" style="fill:rgb(197,200,209);fill-rule:nonzero;"/>
                <path id="path4892" d="M60.693,342.37L62.781,342.37L62.781,345.542C62.781,345.844 62.811,346.064 62.87,346.203C62.932,346.318 63.05,346.375 63.224,346.375C63.394,346.375 63.509,346.318 63.568,346.203C63.63,346.089 63.662,345.868 63.662,345.542L63.662,342.37L65.75,342.37L65.75,345.823C65.75,346.052 65.731,346.26 65.693,346.448C65.658,346.632 65.601,346.8 65.521,346.953C65.444,347.102 65.344,347.24 65.219,347.365C65.097,347.49 64.951,347.604 64.781,347.708C64.323,347.979 63.804,348.115 63.224,348.115C62.637,348.115 62.118,347.979 61.667,347.708C61.493,347.604 61.344,347.491 61.219,347.37C61.097,347.245 60.997,347.106 60.917,346.953C60.84,346.8 60.783,346.632 60.745,346.448C60.71,346.26 60.693,346.052 60.693,345.823L60.693,342.37Z" style="fill:rgb(197,200,209);fill-rule:nonzero;"/>
                <path id="path4894" d="M69.089,348L66.995,348L66.995,344.052L66.401,344.052L66.401,342.37L66.995,342.37L66.995,340.714L69.089,340.714L69.089,342.37L69.781,342.37L69.781,344.052L69.089,344.052L69.089,348Z" style="fill:rgb(197,200,209);fill-rule:nonzero;"/>
                <path id="path4896" d="M79.344,348L76.995,348L75.922,345.135C75.912,345.087 75.892,345.023 75.865,344.943C75.84,344.863 75.809,344.767 75.771,344.656L75.786,345.187L75.786,348L73.625,348L73.625,339.958L75.849,339.958C76.828,339.958 77.561,340.151 78.047,340.536C78.665,341.029 78.974,341.731 78.974,342.641C78.974,343.613 78.559,344.285 77.729,344.656L79.344,348ZM75.797,343.682L75.943,343.682C76.193,343.682 76.401,343.587 76.568,343.396C76.734,343.205 76.818,342.962 76.818,342.667C76.818,342.066 76.503,341.766 75.875,341.766L75.797,341.766L75.797,343.682Z" style="fill:rgb(197,200,209);fill-rule:nonzero;"/>
            </g>
        </g>
        <g id="text4983" transform="matrix(0.998063,0,0,1.00194,-12.2787,12.9999)">
            <path id="path4989" d="M16.31,271.473L19.186,271.473L19.186,272.383L17.386,272.383L17.386,274.907L19.01,274.907L19.01,275.817L17.386,275.817L17.386,279.458L16.31,279.458L16.31,271.473Z" style="fill:rgb(158,161,168);fill-rule:nonzero;"/>
            <path id="path4991" d="M20.013,271.473L21.43,271.473C22.016,271.473 22.452,271.613 22.738,271.892C23.1,272.254 23.281,272.807 23.281,273.552C23.281,274.124 23.185,274.585 22.992,274.933C22.802,275.277 22.53,275.491 22.175,275.574L23.643,279.458L22.552,279.458L21.089,275.548L21.089,279.458L20.013,279.458L20.013,271.473ZM21.089,275.01C21.506,275.01 21.801,274.914 21.973,274.721C22.145,274.528 22.231,274.202 22.231,273.743C22.231,273.495 22.212,273.283 22.175,273.107C22.14,272.931 22.083,272.788 22.004,272.678C21.928,272.568 21.828,272.487 21.704,272.435C21.583,272.383 21.439,272.357 21.27,272.357L21.089,272.357L21.089,275.01Z" style="fill:rgb(158,161,168);fill-rule:nonzero;"/>
            <path id="path4993" d="M24.481,271.473L27.341,271.473L27.341,272.383L25.557,272.383L25.557,274.912L27.139,274.912L27.139,275.822L25.557,275.822L25.557,278.547L27.341,278.547L27.341,279.458L24.481,279.458L24.481,271.473Z" style="fill:rgb(158,161,168);fill-rule:nonzero;"/>
            <path id="path4995" d="M28.328,271.473L31.188,271.473L31.188,272.383L29.404,272.383L29.404,274.912L30.986,274.912L30.986,275.822L29.404,275.822L29.404,278.547L31.188,278.547L31.188,279.458L28.328,279.458L28.328,271.473Z" style="fill:rgb(158,161,168);fill-rule:nonzero;"/>
            <path id="path4997" d="M31.979,271.473L35.496,271.473L33.096,278.516L35.367,278.516L35.367,279.458L31.695,279.458L34.115,272.383L31.979,272.383L31.979,271.473Z" style="fill:rgb(158,161,168);fill-rule:nonzero;"/>
            <path id="path4999" d="M36.168,271.473L39.028,271.473L39.028,272.383L37.244,272.383L37.244,274.912L38.826,274.912L38.826,275.822L37.244,275.822L37.244,278.547L39.028,278.547L39.028,279.458L36.168,279.458L36.168,271.473Z" style="fill:rgb(158,161,168);fill-rule:nonzero;"/>
        </g>
        <g id="text4987">
        </g>
        <g id="g5157" transform="matrix(1,0,0,1,-6.16,-37)">
            <path id="path5011" d="M10.16,240.902L11.481,240.902C11.884,240.902 12.223,240.946 12.498,241.036C12.753,241.123 12.98,241.276 13.179,241.497C13.479,241.829 13.692,242.261 13.819,242.793C13.947,243.307 14.01,244.045 14.01,245.005C14.01,245.886 13.94,246.604 13.799,247.161C13.661,247.693 13.434,248.098 13.117,248.378C12.729,248.727 12.032,248.902 11.027,248.902L10.16,248.902L10.16,240.902ZM11.234,247.959C11.887,247.959 12.324,247.76 12.545,247.363C12.772,246.965 12.885,246.193 12.885,245.047C12.885,243.813 12.777,242.965 12.56,242.503C12.343,242.04 11.946,241.808 11.368,241.808L11.234,241.808L11.234,247.959Z" style="fill:rgb(158,161,168);fill-rule:nonzero;"/>
            <path id="path5015" d="M20.343,240.902L21.262,240.902L21.964,244.166C22.05,244.573 22.127,244.983 22.196,245.394C22.268,245.801 22.334,246.23 22.392,246.679C22.399,246.62 22.404,246.575 22.408,246.544C22.411,246.509 22.415,246.485 22.418,246.471L22.568,245.554L22.702,244.684L22.821,244.109L23.445,240.902L24.374,240.902L25.107,248.902L24.08,248.902L23.899,246.187C23.892,246.048 23.886,245.929 23.879,245.829C23.875,245.729 23.874,245.646 23.874,245.58L23.827,244.508L23.801,243.523C23.801,243.516 23.8,243.503 23.796,243.482C23.796,243.458 23.794,243.427 23.791,243.389L23.765,243.549C23.738,243.739 23.712,243.905 23.688,244.047C23.667,244.188 23.648,244.307 23.631,244.404L23.497,245.135L23.445,245.409L22.774,248.901L22.052,248.901L21.422,245.886C21.336,245.489 21.258,245.086 21.19,244.679C21.124,244.268 21.064,243.838 21.009,243.389L20.699,248.902L19.688,248.902L20.343,240.902Z" style="fill:rgb(158,161,168);fill-rule:nonzero;"/>
            <path id="path5017" d="M25.995,240.902L27.409,240.902C28.09,240.902 28.586,241.074 28.895,241.42C29.205,241.769 29.36,242.321 29.36,243.078C29.36,244.142 29.049,244.829 28.426,245.14C28.113,245.282 27.66,245.352 27.068,245.352L27.068,248.902L25.995,248.902L25.995,240.902ZM27.068,244.43C27.512,244.43 27.818,244.34 27.987,244.161C28.159,243.978 28.245,243.653 28.245,243.187C28.245,242.71 28.163,242.361 27.997,242.14C27.832,241.919 27.572,241.808 27.218,241.808L27.068,241.808L27.068,244.43Z" style="fill:rgb(158,161,168);fill-rule:nonzero;"/>
            <rect id="path5019" x="30.186" y="240.902" width="1.074" height="8" style="fill:rgb(158,161,168);fill-rule:nonzero;"/>
            <path id="path5021" d="M32.498,240.902L33.499,240.902L34.568,244.093C34.877,244.995 35.151,245.957 35.388,246.979C35.302,246.361 35.239,245.801 35.197,245.3C35.156,244.8 35.135,244.328 35.135,243.886L35.135,240.902L36.214,240.902L36.214,248.902L35.208,248.902L34.005,245.3C33.895,244.965 33.79,244.622 33.69,244.269C33.594,243.917 33.505,243.547 33.422,243.161C33.415,243.112 33.403,243.054 33.386,242.984C33.372,242.915 33.355,242.836 33.334,242.746C33.344,242.836 33.353,242.914 33.36,242.979C33.367,243.041 33.372,243.095 33.375,243.14L33.432,243.953L33.489,244.943C33.492,244.998 33.494,245.066 33.494,245.145C33.498,245.224 33.499,245.314 33.499,245.414L33.556,248.902L32.498,248.902L32.498,240.902Z" style="fill:rgb(158,161,168);fill-rule:nonzero;"/>
            <path id="path5023" d="M39.363,244.694L41.314,244.694L41.314,245.005C41.314,246.563 41.178,247.615 40.906,248.161C40.637,248.72 40.135,249 39.399,249C38.638,249 38.096,248.689 37.773,248.067C37.453,247.446 37.293,246.401 37.293,244.933C37.293,243.254 37.468,242.136 37.819,241.58C38.15,241.059 38.657,240.798 39.342,240.798C39.865,240.798 40.273,240.924 40.565,241.176C40.861,241.432 41.092,241.851 41.257,242.435L40.255,242.855C40.211,242.644 40.161,242.468 40.106,242.326C40.051,242.181 39.991,242.069 39.925,241.99C39.794,241.827 39.598,241.746 39.337,241.746C38.979,241.746 38.735,241.967 38.604,242.409C38.473,242.872 38.408,243.703 38.408,244.902C38.408,246.114 38.475,246.934 38.609,247.363C38.743,247.791 38.996,248.005 39.368,248.005C39.708,248.005 39.948,247.853 40.085,247.549C40.226,247.225 40.297,246.703 40.297,245.984L40.297,245.767L40.297,245.606L39.363,245.606L39.363,244.694Z" style="fill:rgb(158,161,168);fill-rule:nonzero;"/>
            <path id="path5134" d="M16.474,241L17.31,241L19.019,249L17.955,249L17.656,247.44L16.077,247.44L15.772,249L14.74,249L16.474,241ZM17.501,246.606L17.264,245.332C17.106,244.465 16.977,243.539 16.877,242.554C16.829,243.035 16.767,243.522 16.691,244.016C16.615,244.506 16.526,245.028 16.423,245.58L16.226,246.606L17.501,246.606Z" style="fill:rgb(158,161,168);fill-rule:nonzero;"/>
        </g>
        <g id="text955">
            <path id="path965" d="M18.281,18L15.023,18L15.023,5.938L18.18,5.938C19.753,5.938 20.919,6.258 21.68,6.898C22.576,7.654 23.023,8.703 23.023,10.047C23.023,11.51 22.547,12.602 21.594,13.32C20.943,13.805 20.008,14.047 18.789,14.047L18.281,14.047L18.281,18ZM18.281,11.336L18.43,11.344C18.826,11.344 19.141,11.224 19.375,10.984C19.609,10.74 19.727,10.406 19.727,9.984C19.727,9.568 19.612,9.229 19.383,8.969C19.154,8.703 18.862,8.57 18.508,8.57L18.281,8.57L18.281,11.336Z" style="fill:rgb(158,161,168);fill-rule:nonzero;"/>
            <path id="path967" d="M29.883,18L24.18,18L24.18,5.938L27.437,5.938L27.437,15.102L29.883,15.102L29.883,18Z" style="fill:rgb(158,161,168);fill-rule:nonzero;"/>
            <path id="path969" d="M39.992,18L36.625,18L36.383,16.469L34.188,16.469L33.922,18L30.555,18L33.453,5.938L37.438,5.938L39.992,18ZM36,13.883L35.789,12.477C35.784,12.471 35.773,12.401 35.758,12.266C35.747,12.151 35.693,11.698 35.594,10.906C35.583,10.818 35.57,10.698 35.555,10.547C35.539,10.391 35.518,10.195 35.492,9.961L35.391,8.82C35.38,8.93 35.365,9.052 35.344,9.188C35.328,9.323 35.31,9.471 35.289,9.633C35.253,9.956 35.227,10.18 35.211,10.305C35.195,10.43 35.185,10.505 35.18,10.531L34.953,11.992L34.625,13.883L36,13.883Z" style="fill:rgb(158,161,168);fill-rule:nonzero;"/>
            <path id="path971" d="M45.141,18L41.883,18L41.883,8.828L40.086,8.828L40.086,5.938L47.008,5.938L47.008,8.828L45.141,8.828L45.141,18Z" style="fill:rgb(158,161,168);fill-rule:nonzero;"/>
            <path id="path973" d="M47.867,18L47.867,5.938L53.922,5.938L53.922,8.773L51.125,8.773L51.125,10.531L53.633,10.531L53.633,13.258L51.125,13.258L51.125,15.102L53.922,15.102L53.922,18L47.867,18Z" style="fill:rgb(158,161,168);fill-rule:nonzero;"/>
            <path id="path975" d="M60.547,18L57.227,18L54.461,5.938L57.883,5.938L58.477,9.383C58.701,10.701 58.88,12.174 59.016,13.805C59.073,13.081 59.143,12.404 59.227,11.773C59.31,11.143 59.409,10.529 59.523,9.93L60.297,5.938L63.836,5.938L60.547,18Z" style="fill:rgb(158,161,168);fill-rule:nonzero;"/>
            <path id="path977" d="M64.68,18L64.68,5.938L70.734,5.938L70.734,8.773L67.938,8.773L67.938,10.531L70.445,10.531L70.445,13.258L67.938,13.258L67.938,15.102L70.734,15.102L70.734,18L64.68,18Z" style="fill:rgb(158,161,168);fill-rule:nonzero;"/>
            <path id="path979" d="M80.695,18L77.172,18L75.562,13.703C75.547,13.63 75.518,13.534 75.477,13.414C75.44,13.294 75.393,13.151 75.336,12.984L75.359,13.781L75.359,18L72.117,18L72.117,5.938L75.453,5.938C76.922,5.938 78.021,6.227 78.75,6.805C79.677,7.544 80.141,8.596 80.141,9.961C80.141,11.419 79.518,12.427 78.273,12.984L80.695,18ZM75.375,11.523L75.594,11.523C75.969,11.523 76.281,11.38 76.531,11.094C76.781,10.807 76.906,10.443 76.906,10C76.906,9.099 76.435,8.648 75.492,8.648L75.375,8.648L75.375,11.523Z" style="fill:rgb(158,161,168);fill-rule:nonzero;"/>
            <path id="path981" d="M81.773,18L81.773,5.938L85.563,5.938C86.979,5.938 88.029,6.25 88.711,6.875C89.404,7.516 89.75,8.344 89.75,9.359C89.75,10.87 89,11.688 87.5,11.813C88.354,11.937 88.979,12.219 89.375,12.656C89.776,13.094 89.977,13.724 89.977,14.547C89.977,15.583 89.641,16.417 88.969,17.047C88.302,17.682 87.424,18 86.336,18L81.773,18ZM85.031,15.383C85.094,15.388 85.148,15.393 85.195,15.398L85.313,15.398C85.719,15.398 86.042,15.292 86.281,15.078C86.526,14.865 86.648,14.578 86.648,14.219C86.648,13.859 86.526,13.578 86.281,13.375C86.042,13.172 85.711,13.07 85.289,13.07L85.031,13.07L85.031,15.383ZM85.031,10.625L85.25,10.625C85.641,10.625 85.948,10.534 86.172,10.352C86.401,10.169 86.516,9.914 86.516,9.586C86.516,8.888 86.133,8.539 85.367,8.539C85.331,8.539 85.284,8.542 85.227,8.547C85.174,8.547 85.109,8.549 85.031,8.555L85.031,10.625Z" style="fill:rgb(158,161,168);fill-rule:nonzero;"/>
        </g>
        <g id="text986" transform="matrix(1,0,0,1,0,-6)">
            <path id="path1122" d="M4,94.859L6.88,94.859L6.88,95.776L5.083,95.776L5.083,98.323L6.677,98.323L6.677,99.24L5.083,99.24L5.083,101.984L6.88,101.984L6.88,102.901L4,102.901L4,94.859Z" style="fill:rgb(158,161,168);fill-rule:nonzero;"/>
            <path id="path1124" d="M9.021,94.859L9.865,94.859L11.589,102.901L10.516,102.901L10.214,101.333L8.62,101.333L8.313,102.901L7.271,102.901L9.021,94.859ZM10.057,100.495L9.818,99.214C9.658,98.342 9.528,97.411 9.427,96.422C9.378,96.905 9.316,97.394 9.24,97.891C9.163,98.384 9.073,98.908 8.969,99.464L8.771,100.495L10.057,100.495Z" style="fill:rgb(158,161,168);fill-rule:nonzero;"/>
            <path id="path1126" d="M12.229,94.859L13.656,94.859C14.247,94.859 14.686,95 14.974,95.281C15.339,95.646 15.521,96.203 15.521,96.953C15.521,97.53 15.424,97.993 15.229,98.344C15.038,98.691 14.764,98.906 14.406,98.99L15.885,102.901L14.786,102.901L13.313,98.964L13.313,102.901L12.229,102.901L12.229,94.859ZM13.313,98.422C13.733,98.422 14.03,98.325 14.203,98.13C14.377,97.936 14.464,97.608 14.464,97.146C14.464,96.896 14.444,96.682 14.406,96.505C14.372,96.328 14.314,96.184 14.234,96.073C14.158,95.962 14.057,95.88 13.932,95.828C13.811,95.776 13.665,95.75 13.495,95.75L13.313,95.75L13.313,98.422Z" style="fill:rgb(158,161,168);fill-rule:nonzero;"/>
            <path id="path1128" d="M16.729,94.859L17.813,94.859L17.813,101.984L19.583,101.984L19.583,102.901L16.729,102.901L16.729,94.859Z" style="fill:rgb(158,161,168);fill-rule:nonzero;"/>
            <path id="path1130" d="M19.234,94.859L20.38,94.859L20.911,96.609C20.929,96.661 20.946,96.719 20.964,96.781C20.981,96.844 21.002,96.911 21.026,96.984C21.224,97.616 21.359,98.148 21.432,98.578C21.495,98.148 21.547,97.847 21.589,97.677L21.755,96.958L21.818,96.677L22.266,94.859L23.396,94.859L21.995,99.443L21.995,102.901L20.911,102.901L20.911,99.443L19.234,94.859Z" style="fill:rgb(158,161,168);fill-rule:nonzero;"/>
            <path id="path1132" d="M26.208,94.859L27.635,94.859C28.226,94.859 28.665,95 28.953,95.281C29.318,95.646 29.5,96.203 29.5,96.953C29.5,97.53 29.403,97.993 29.208,98.344C29.017,98.691 28.743,98.906 28.385,98.99L29.865,102.901L28.766,102.901L27.292,98.964L27.292,102.901L26.208,102.901L26.208,94.859ZM27.292,98.422C27.712,98.422 28.009,98.325 28.182,98.13C28.356,97.936 28.443,97.608 28.443,97.146C28.443,96.896 28.424,96.682 28.385,96.505C28.351,96.328 28.293,96.184 28.214,96.073C28.137,95.962 28.036,95.88 27.911,95.828C27.79,95.776 27.644,95.75 27.474,95.75L27.292,95.75L27.292,98.422Z" style="fill:rgb(158,161,168);fill-rule:nonzero;"/>
            <path id="path1134" d="M30.708,94.859L33.589,94.859L33.589,95.776L31.792,95.776L31.792,98.323L33.385,98.323L33.385,99.24L31.792,99.24L31.792,101.984L33.589,101.984L33.589,102.901L30.708,102.901L30.708,94.859Z" style="fill:rgb(158,161,168);fill-rule:nonzero;"/>
            <path id="path1136" d="M34.583,94.859L37.479,94.859L37.479,95.776L35.667,95.776L35.667,98.318L37.302,98.318L37.302,99.234L35.667,99.234L35.667,102.901L34.583,102.901L34.583,94.859Z" style="fill:rgb(158,161,168);fill-rule:nonzero;"/>
            <path id="path1138" d="M38.312,94.859L39.396,94.859L39.396,101.984L41.167,101.984L41.167,102.901L38.312,102.901L38.312,94.859Z" style="fill:rgb(158,161,168);fill-rule:nonzero;"/>
            <path id="path1140" d="M41.854,94.859L44.734,94.859L44.734,95.776L42.937,95.776L42.937,98.323L44.531,98.323L44.531,99.24L42.937,99.24L42.937,101.984L44.734,101.984L44.734,102.901L41.854,102.901L41.854,94.859Z" style="fill:rgb(158,161,168);fill-rule:nonzero;"/>
            <path id="path1142" d="M48.885,94.99L48.885,95.964C48.608,95.828 48.375,95.76 48.187,95.76C47.931,95.76 47.71,95.825 47.526,95.953C47.342,96.078 47.189,96.273 47.068,96.537C46.95,96.8 46.861,97.135 46.802,97.542C46.747,97.944 46.719,98.422 46.719,98.974C46.719,100.96 47.227,101.953 48.245,101.953C48.422,101.953 48.635,101.898 48.885,101.786L48.885,102.781C48.625,102.927 48.333,103 48.01,103C46.382,103 45.568,101.67 45.568,99.01C45.568,97.573 45.766,96.504 46.161,95.802C46.561,95.101 47.17,94.75 47.99,94.75C48.292,94.75 48.59,94.83 48.885,94.99L48.885,94.99Z" style="fill:rgb(158,161,168);fill-rule:nonzero;"/>
            <path id="path1144" d="M49.151,94.859L52.677,94.859L52.677,95.807L51.464,95.807L51.464,102.901L50.401,102.901L50.401,95.807L49.151,95.807L49.151,94.859Z" style="fill:rgb(158,161,168);fill-rule:nonzero;"/>
            <rect id="path1146" x="53.271" y="94.859" width="1.083" height="8.042" style="fill:rgb(158,161,168);fill-rule:nonzero;"/>
            <path id="path1148" d="M59.63,99.078C59.63,100.498 59.472,101.507 59.156,102.104C58.84,102.701 58.311,103 57.568,103C56.786,103 56.236,102.679 55.917,102.036C55.601,101.408 55.443,100.292 55.443,98.688C55.443,97.257 55.599,96.245 55.911,95.651C56.227,95.054 56.762,94.755 57.516,94.755C58.189,94.755 58.689,94.986 59.016,95.448C59.231,95.757 59.387,96.196 59.484,96.766C59.582,97.293 59.63,98.064 59.63,99.078L59.63,99.078ZM58.495,99.193C58.495,97.8 58.432,96.877 58.307,96.422C58.182,95.964 57.927,95.734 57.542,95.734C57.156,95.734 56.899,95.944 56.771,96.365C56.646,96.788 56.583,97.639 56.583,98.917C56.583,100.094 56.649,100.91 56.781,101.365C56.917,101.795 57.17,102.01 57.542,102.01C57.906,102.01 58.156,101.809 58.292,101.406C58.427,101.007 58.495,100.269 58.495,99.193Z" style="fill:rgb(158,161,168);fill-rule:nonzero;"/>
            <path id="path1150" d="M60.708,94.859L61.719,94.859L62.797,98.068C63.109,98.974 63.385,99.941 63.625,100.969C63.538,100.347 63.474,99.785 63.432,99.281C63.391,98.778 63.37,98.304 63.37,97.859L63.37,94.859L64.458,94.859L64.458,102.901L63.443,102.901L62.229,99.281C62.118,98.944 62.012,98.599 61.911,98.245C61.814,97.891 61.724,97.519 61.641,97.13C61.634,97.082 61.621,97.023 61.604,96.953C61.59,96.884 61.573,96.804 61.552,96.714C61.563,96.804 61.571,96.882 61.578,96.948C61.585,97.01 61.591,97.064 61.594,97.109L61.651,97.927L61.708,98.922C61.712,98.977 61.714,99.045 61.714,99.125C61.717,99.205 61.719,99.295 61.719,99.396L61.776,102.901L60.709,102.901L60.708,94.859Z" style="fill:rgb(158,161,168);fill-rule:nonzero;"/>
            <path id="path1152" d="M68.391,95.026L68.391,96.083C68.061,95.847 67.764,95.729 67.5,95.729C67.215,95.729 66.983,95.83 66.802,96.031C66.622,96.222 66.531,96.477 66.531,96.797C66.531,97.078 66.595,97.319 66.724,97.521C66.79,97.628 66.898,97.767 67.047,97.938C67.2,98.108 67.396,98.313 67.635,98.552C68.076,99 68.377,99.387 68.536,99.714C68.696,100.03 68.776,100.417 68.776,100.875C68.776,101.497 68.601,102.009 68.25,102.411C67.899,102.804 67.45,103 66.901,103C66.439,103 66.045,102.873 65.719,102.62L65.719,101.547C66.104,101.828 66.455,101.969 66.771,101.969C67.066,101.969 67.297,101.872 67.464,101.677C67.63,101.479 67.714,101.212 67.714,100.875C67.714,100.583 67.649,100.321 67.521,100.089C67.455,99.977 67.363,99.851 67.245,99.708C67.127,99.563 66.979,99.401 66.802,99.224C66.528,98.953 66.3,98.714 66.12,98.505C65.939,98.297 65.806,98.115 65.719,97.958C65.552,97.653 65.469,97.267 65.469,96.802C65.469,96.174 65.632,95.675 65.958,95.307C66.288,94.936 66.731,94.75 67.286,94.75C67.672,94.75 68.04,94.842 68.391,95.026L68.391,95.026Z" style="fill:rgb(158,161,168);fill-rule:nonzero;"/>
        </g>
        <g id="text990" transform="matrix(1,0,0,1,0,-6)">
            <path id="path1091" d="M4,117.865L5.427,117.865C6.115,117.865 6.615,118.038 6.927,118.385C7.24,118.736 7.396,119.292 7.396,120.052C7.396,121.122 7.082,121.813 6.453,122.125C6.137,122.267 5.681,122.339 5.083,122.339L5.083,125.906L4,125.906L4,117.865ZM5.083,121.411C5.531,121.411 5.84,121.321 6.01,121.141C6.184,120.957 6.271,120.63 6.271,120.161C6.271,119.682 6.188,119.332 6.021,119.109C5.854,118.887 5.592,118.776 5.234,118.776L5.083,118.776L5.083,121.411Z" style="fill:rgb(158,161,168);fill-rule:nonzero;"/>
            <path id="path1093" d="M8.229,117.865L9.656,117.865C10.247,117.865 10.686,118.005 10.974,118.286C11.339,118.651 11.521,119.208 11.521,119.958C11.521,120.535 11.424,120.998 11.229,121.349C11.038,121.696 10.764,121.911 10.406,121.995L11.885,125.906L10.786,125.906L9.313,121.969L9.313,125.906L8.229,125.906L8.229,117.865ZM9.313,121.427C9.733,121.427 10.03,121.33 10.203,121.135C10.377,120.941 10.464,120.613 10.464,120.151C10.464,119.901 10.444,119.688 10.406,119.51C10.372,119.333 10.314,119.189 10.234,119.078C10.158,118.967 10.057,118.885 9.932,118.833C9.811,118.781 9.665,118.755 9.495,118.755L9.313,118.755L9.313,121.427Z" style="fill:rgb(158,161,168);fill-rule:nonzero;"/>
            <path id="path1095" d="M12.729,117.865L15.609,117.865L15.609,118.781L13.813,118.781L13.813,121.328L15.406,121.328L15.406,122.245L13.813,122.245L13.813,124.99L15.609,124.99L15.609,125.906L12.729,125.906L12.729,117.865Z" style="fill:rgb(158,161,168);fill-rule:nonzero;"/>
            <path id="path1097" d="M16.604,117.865L17.938,117.865C18.344,117.865 18.686,117.91 18.964,118C19.22,118.087 19.45,118.241 19.651,118.464C19.953,118.797 20.168,119.231 20.297,119.766C20.425,120.283 20.49,121.024 20.49,121.99C20.49,122.875 20.418,123.597 20.276,124.156C20.137,124.691 19.908,125.099 19.589,125.38C19.196,125.731 18.493,125.906 17.479,125.906L16.604,125.906L16.604,117.865ZM17.688,124.958C18.347,124.958 18.788,124.759 19.01,124.359C19.24,123.96 19.354,123.184 19.354,122.031C19.354,120.792 19.245,119.939 19.026,119.474C18.807,119.009 18.406,118.776 17.823,118.776L17.688,118.776L17.688,124.958Z" style="fill:rgb(158,161,168);fill-rule:nonzero;"/>
            <path id="path1099" d="M21.563,117.865L24.443,117.865L24.443,118.781L22.646,118.781L22.646,121.328L24.24,121.328L24.24,122.245L22.646,122.245L22.646,124.99L24.443,124.99L24.443,125.906L21.563,125.906L21.563,117.865Z" style="fill:rgb(158,161,168);fill-rule:nonzero;"/>
            <path id="path1101" d="M25.438,117.865L26.521,117.865L26.521,124.99L28.292,124.99L28.292,125.906L25.438,125.906L25.438,117.865Z" style="fill:rgb(158,161,168);fill-rule:nonzero;"/>
            <path id="path1103" d="M30.563,117.865L31.406,117.865L33.13,125.906L32.057,125.906L31.755,124.339L30.161,124.339L29.854,125.906L28.813,125.906L30.563,117.865ZM31.599,123.5L31.359,122.219C31.2,121.347 31.069,120.417 30.969,119.427C30.92,119.91 30.858,120.399 30.781,120.896C30.705,121.389 30.615,121.913 30.51,122.469L30.313,123.5L31.599,123.5Z" style="fill:rgb(158,161,168);fill-rule:nonzero;"/>
            <path id="path1105" d="M32.755,117.865L33.901,117.865L34.432,119.615C34.45,119.667 34.467,119.724 34.484,119.786C34.502,119.849 34.523,119.917 34.547,119.99C34.745,120.622 34.88,121.153 34.953,121.583C35.016,121.153 35.068,120.852 35.109,120.682L35.276,119.964L35.339,119.682L35.786,117.865L36.917,117.865L35.516,122.448L35.516,125.906L34.432,125.906L34.432,122.448L32.755,117.865Z" style="fill:rgb(158,161,168);fill-rule:nonzero;"/>
            <path id="path1107" d="M43.135,121.948C43.135,123.392 42.997,124.434 42.719,125.073C42.444,125.691 41.977,126 41.318,126C40.658,126 40.189,125.689 39.911,125.068C39.637,124.464 39.5,123.403 39.5,121.885C39.5,120.368 39.637,119.307 39.911,118.703C40.186,118.078 40.653,117.766 41.313,117.766C41.924,117.766 42.375,118.04 42.667,118.589C42.979,119.168 43.135,120.288 43.135,121.948ZM42.031,121.948C42.031,120.733 41.979,119.892 41.875,119.427C41.771,118.965 41.582,118.734 41.307,118.734C41.033,118.734 40.842,118.964 40.734,119.422C40.63,119.88 40.578,120.705 40.578,121.896C40.578,123.087 40.63,123.913 40.734,124.375C40.842,124.833 41.033,125.063 41.307,125.063C41.578,125.063 41.766,124.835 41.87,124.38C41.977,123.946 42.031,123.135 42.031,121.948L42.031,121.948Z" style="fill:rgb(158,161,168);fill-rule:nonzero;"/>
            <rect id="path1109" x="43.526" y="122.74" width="1.896" height="0.813" style="fill:rgb(158,161,168);fill-rule:nonzero;"/>
            <path id="path1111" d="M47.938,117.865L48.943,117.865L48.943,122.875L49.458,122.875L49.458,123.703L48.943,123.703L48.943,125.906L47.938,125.906L47.938,123.703L45.734,123.703L45.734,122.781L47.938,117.865ZM47.938,122.875L47.938,119.5L46.583,122.875L47.938,122.875Z" style="fill:rgb(158,161,168);fill-rule:nonzero;"/>
            <path id="path1113" d="M53.865,121.948C53.865,123.392 53.726,124.434 53.448,125.073C53.174,125.691 52.707,126 52.047,126C51.387,126 50.918,125.689 50.641,125.068C50.366,124.464 50.229,123.403 50.229,121.885C50.229,120.368 50.366,119.307 50.641,118.703C50.915,118.078 51.382,117.766 52.042,117.766C52.653,117.766 53.104,118.04 53.396,118.589C53.708,119.168 53.865,120.288 53.865,121.948ZM52.76,121.948C52.76,120.733 52.708,119.892 52.604,119.427C52.5,118.965 52.311,118.734 52.036,118.734C51.762,118.734 51.571,118.964 51.464,119.422C51.359,119.88 51.307,120.705 51.307,121.896C51.307,123.087 51.359,123.913 51.464,124.375C51.571,124.833 51.762,125.063 52.036,125.063C52.307,125.063 52.495,124.835 52.599,124.38C52.707,123.946 52.76,123.135 52.76,121.948L52.76,121.948Z" style="fill:rgb(158,161,168);fill-rule:nonzero;"/>
            <path id="path1115" d="M58.281,121.948C58.281,123.392 58.142,124.434 57.865,125.073C57.59,125.691 57.123,126 56.464,126C55.804,126 55.335,125.689 55.057,125.068C54.783,124.464 54.646,123.403 54.646,121.885C54.646,120.368 54.783,119.307 55.057,118.703C55.332,118.078 55.799,117.766 56.458,117.766C57.069,117.766 57.521,118.04 57.812,118.589C58.125,119.168 58.281,120.288 58.281,121.948ZM57.177,121.948C57.177,120.733 57.125,119.892 57.021,119.427C56.917,118.965 56.727,118.734 56.453,118.734C56.179,118.734 55.988,118.964 55.88,119.422C55.776,119.88 55.724,120.705 55.724,121.896C55.724,123.087 55.776,123.913 55.88,124.375C55.988,124.833 56.179,125.063 56.453,125.063C56.724,125.063 56.911,124.835 57.016,124.38C57.123,123.946 57.177,123.135 57.177,121.948L57.177,121.948Z" style="fill:rgb(158,161,168);fill-rule:nonzero;"/>
            <path id="path1117" d="M59.234,120.516L60.229,120.516L60.229,121.182C60.503,120.679 60.868,120.427 61.323,120.427C61.819,120.427 62.156,120.679 62.333,121.182C62.597,120.679 62.972,120.427 63.458,120.427C63.837,120.427 64.125,120.528 64.323,120.729C64.524,120.927 64.625,121.221 64.625,121.609L64.625,125.906L63.625,125.906L63.625,122.359C63.625,121.953 63.587,121.681 63.51,121.542C63.438,121.399 63.295,121.328 63.083,121.328C62.844,121.328 62.681,121.401 62.594,121.547C62.51,121.689 62.469,121.96 62.469,122.359L62.469,125.906L61.438,125.906L61.438,122.359C61.438,122.168 61.427,122.007 61.406,121.875C61.389,121.743 61.358,121.637 61.312,121.557C61.267,121.477 61.208,121.42 61.135,121.385C61.062,121.347 60.972,121.328 60.865,121.328C60.635,121.328 60.472,121.406 60.375,121.563C60.278,121.719 60.229,121.984 60.229,122.359L60.229,125.906L59.234,125.906L59.234,120.516Z" style="fill:rgb(158,161,168);fill-rule:nonzero;"/>
            <path id="path1119" d="M67.839,120.625L67.839,121.557C67.595,121.377 67.34,121.286 67.073,121.286C66.983,121.286 66.899,121.302 66.823,121.333C66.747,121.365 66.679,121.408 66.62,121.464C66.564,121.516 66.519,121.58 66.484,121.656C66.453,121.729 66.438,121.807 66.438,121.891C66.438,122.148 66.67,122.453 67.135,122.807C67.323,122.953 67.479,123.089 67.604,123.214C67.729,123.339 67.825,123.457 67.891,123.568C68.026,123.786 68.094,124.063 68.094,124.396C68.094,124.878 67.953,125.266 67.672,125.557C67.394,125.845 67.021,125.99 66.552,125.99C66.264,125.99 65.972,125.905 65.677,125.734L65.677,124.771C65.965,124.986 66.238,125.094 66.495,125.094C66.95,125.094 67.177,124.87 67.177,124.422C67.177,124.255 67.135,124.111 67.052,123.99C67.014,123.931 66.953,123.863 66.87,123.786C66.786,123.707 66.684,123.618 66.563,123.521C66.142,123.194 65.858,122.92 65.708,122.698C65.563,122.469 65.49,122.193 65.49,121.87C65.49,121.436 65.623,121.08 65.891,120.802C66.161,120.528 66.514,120.391 66.948,120.391C67.253,120.391 67.55,120.469 67.839,120.625L67.839,120.625Z" style="fill:rgb(158,161,168);fill-rule:nonzero;"/>
        </g>
        <g id="text994" transform="matrix(1,0,0,1,0,-6)">
            <path id="path1068" d="M4,140.958L5.427,140.958C6.115,140.958 6.615,141.132 6.927,141.479C7.24,141.83 7.396,142.385 7.396,143.146C7.396,144.215 7.082,144.906 6.453,145.219C6.137,145.361 5.681,145.432 5.083,145.432L5.083,149L4,149L4,140.958ZM5.083,144.505C5.531,144.505 5.84,144.415 6.01,144.234C6.184,144.05 6.271,143.724 6.271,143.255C6.271,142.776 6.188,142.425 6.021,142.203C5.854,141.981 5.592,141.87 5.234,141.87L5.083,141.87L5.083,144.505Z" style="fill:rgb(158,161,168);fill-rule:nonzero;"/>
            <path id="path1070" d="M8.229,140.958L9.656,140.958C10.247,140.958 10.686,141.099 10.974,141.38C11.339,141.745 11.521,142.302 11.521,143.052C11.521,143.628 11.424,144.092 11.229,144.443C11.038,144.79 10.764,145.005 10.406,145.089L11.885,149L10.786,149L9.313,145.063L9.313,149L8.229,149L8.229,140.958ZM9.313,144.521C9.733,144.521 10.03,144.424 10.203,144.229C10.377,144.035 10.464,143.707 10.464,143.245C10.464,142.995 10.444,142.781 10.406,142.604C10.372,142.427 10.314,142.283 10.234,142.172C10.158,142.061 10.057,141.979 9.932,141.927C9.811,141.875 9.665,141.849 9.495,141.849L9.313,141.849L9.313,144.521Z" style="fill:rgb(158,161,168);fill-rule:nonzero;"/>
            <path id="path1072" d="M12.729,140.958L15.609,140.958L15.609,141.875L13.813,141.875L13.813,144.422L15.406,144.422L15.406,145.339L13.813,145.339L13.813,148.083L15.609,148.083L15.609,149L12.729,149L12.729,140.958Z" style="fill:rgb(158,161,168);fill-rule:nonzero;"/>
            <path id="path1074" d="M16.604,140.958L17.938,140.958C18.344,140.958 18.686,141.003 18.964,141.094C19.22,141.181 19.45,141.335 19.651,141.557C19.953,141.891 20.168,142.325 20.297,142.859C20.425,143.377 20.49,144.118 20.49,145.083C20.49,145.969 20.418,146.691 20.276,147.25C20.137,147.785 19.908,148.193 19.589,148.474C19.196,148.825 18.493,149 17.479,149L16.604,149L16.604,140.958ZM17.688,148.052C18.347,148.052 18.788,147.852 19.01,147.453C19.24,147.054 19.354,146.278 19.354,145.125C19.354,143.885 19.245,143.033 19.026,142.568C18.807,142.102 18.406,141.87 17.823,141.87L17.688,141.87L17.688,148.052Z" style="fill:rgb(158,161,168);fill-rule:nonzero;"/>
            <path id="path1076" d="M21.563,140.958L24.443,140.958L24.443,141.875L22.646,141.875L22.646,144.422L24.24,144.422L24.24,145.339L22.646,145.339L22.646,148.083L24.443,148.083L24.443,149L21.563,149L21.563,140.958Z" style="fill:rgb(158,161,168);fill-rule:nonzero;"/>
            <path id="path1078" d="M25.438,140.958L26.521,140.958L26.521,148.083L28.292,148.083L28.292,149L25.438,149L25.438,140.958Z" style="fill:rgb(158,161,168);fill-rule:nonzero;"/>
            <path id="path1080" d="M30.563,140.958L31.406,140.958L33.13,149L32.057,149L31.755,147.432L30.161,147.432L29.854,149L28.813,149L30.563,140.958ZM31.599,146.594L31.359,145.313C31.2,144.441 31.069,143.51 30.969,142.521C30.92,143.003 30.858,143.493 30.781,143.99C30.705,144.483 30.615,145.007 30.51,145.563L30.313,146.594L31.599,146.594Z" style="fill:rgb(158,161,168);fill-rule:nonzero;"/>
            <path id="path1082" d="M32.755,140.958L33.901,140.958L34.432,142.708C34.45,142.76 34.467,142.818 34.484,142.88C34.502,142.943 34.523,143.01 34.547,143.083C34.745,143.715 34.88,144.247 34.953,144.677C35.016,144.247 35.068,143.946 35.109,143.776L35.276,143.057L35.339,142.776L35.786,140.958L36.917,140.958L35.516,145.542L35.516,149L34.432,149L34.432,145.542L32.755,140.958Z" style="fill:rgb(158,161,168);fill-rule:nonzero;"/>
            <path id="path1084" d="M40.109,140.958L41.036,140.958L41.745,144.24C41.832,144.649 41.91,145.061 41.979,145.474C42.052,145.884 42.118,146.314 42.177,146.766C42.184,146.707 42.189,146.661 42.193,146.63C42.196,146.595 42.2,146.571 42.203,146.557L42.354,145.635L42.49,144.76L42.609,144.182L43.24,140.958L44.177,140.958L44.917,149L43.88,149L43.698,146.271C43.691,146.132 43.684,146.012 43.677,145.911C43.674,145.811 43.672,145.727 43.672,145.661L43.625,144.583L43.599,143.594C43.599,143.587 43.597,143.573 43.594,143.552C43.594,143.528 43.592,143.497 43.588,143.458L43.562,143.62C43.534,143.811 43.508,143.977 43.484,144.12C43.463,144.262 43.444,144.382 43.427,144.479L43.291,145.214L43.239,145.49L42.562,149L41.833,149L41.198,145.969C41.111,145.569 41.033,145.165 40.963,144.755C40.897,144.342 40.837,143.91 40.781,143.458L40.469,149L39.448,149L40.109,140.958Z" style="fill:rgb(158,161,168);fill-rule:nonzero;"/>
            <rect id="path1086" x="45.813" y="140.958" width="1.083" height="8.042" style="fill:rgb(158,161,168);fill-rule:nonzero;"/>
            <path id="path1088" d="M47.599,140.958L48.651,140.958L49.208,142.516C49.427,143.13 49.557,143.58 49.599,143.865C49.637,143.688 49.679,143.516 49.724,143.349C49.773,143.182 49.823,143.016 49.875,142.849L49.948,142.615L50.464,140.958L51.557,140.958L50.068,144.917L51.557,149L50.464,149L49.932,147.469C49.825,147.163 49.738,146.889 49.672,146.646C49.606,146.403 49.559,146.188 49.531,146C49.503,146.233 49.457,146.455 49.391,146.667L49.208,147.24L49.115,147.542L48.651,149L47.505,149L49.026,144.917L47.599,140.958Z" style="fill:rgb(158,161,168);fill-rule:nonzero;"/>
        </g>
        <g id="text998" transform="matrix(1,0,0,1,0,-6)">
            <path id="path1049" d="M4,163.958L5.469,163.958C6.618,163.958 7.193,164.672 7.193,166.099C7.193,166.644 7.118,167.049 6.969,167.313C6.819,167.576 6.556,167.776 6.177,167.911C6.611,168.085 6.908,168.307 7.068,168.578C7.231,168.846 7.313,169.248 7.313,169.786C7.313,171.262 6.681,172 5.417,172L4,172L4,163.958ZM5.021,167.5C5.441,167.5 5.733,167.403 5.896,167.208C6.059,167.003 6.141,166.644 6.141,166.13C6.141,165.262 5.828,164.828 5.203,164.828L5.12,164.828L5.073,164.828C5.045,164.828 5.028,164.83 5.021,164.833L5.021,167.5ZM5.021,171.073C5.465,171.073 5.773,170.977 5.943,170.786C6.113,170.596 6.198,170.25 6.198,169.75C6.198,169.236 6.109,168.877 5.932,168.672C5.759,168.464 5.455,168.359 5.021,168.359L5.021,171.073Z" style="fill:rgb(158,161,168);fill-rule:nonzero;"/>
            <path id="path1051" d="M9.583,163.958L10.427,163.958L12.151,172L11.078,172L10.776,170.432L9.182,170.432L8.875,172L7.833,172L9.583,163.958ZM10.62,169.594L10.38,168.313C10.22,167.441 10.09,166.51 9.99,165.521C9.941,166.003 9.878,166.493 9.802,166.99C9.726,167.483 9.635,168.007 9.531,168.563L9.333,169.594L10.62,169.594Z" style="fill:rgb(158,161,168);fill-rule:nonzero;"/>
            <path id="path1053" d="M12.792,163.958L13.802,163.958L14.88,167.167C15.193,168.073 15.469,169.04 15.708,170.068C15.622,169.446 15.557,168.884 15.516,168.38C15.474,167.877 15.453,167.403 15.453,166.958L15.453,163.958L16.542,163.958L16.542,172L15.526,172L14.313,168.38C14.201,168.043 14.095,167.698 13.995,167.344C13.898,166.99 13.807,166.618 13.724,166.229C13.717,166.181 13.705,166.122 13.687,166.052C13.674,165.983 13.656,165.903 13.635,165.813C13.646,165.903 13.654,165.981 13.661,166.047C13.668,166.109 13.674,166.163 13.677,166.208L13.734,167.026L13.792,168.021C13.795,168.076 13.797,168.144 13.797,168.224C13.8,168.304 13.802,168.394 13.802,168.495L13.859,172L12.792,172L12.792,163.958Z" style="fill:rgb(158,161,168);fill-rule:nonzero;"/>
            <path id="path1055" d="M17.792,163.958L19.125,163.958C19.531,163.958 19.873,164.003 20.151,164.094C20.408,164.181 20.637,164.335 20.839,164.557C21.141,164.891 21.356,165.325 21.484,165.859C21.613,166.377 21.677,167.118 21.677,168.083C21.677,168.969 21.606,169.691 21.464,170.25C21.325,170.785 21.095,171.193 20.776,171.474C20.384,171.825 19.681,172 18.667,172L17.792,172L17.792,163.958ZM18.875,171.052C19.535,171.052 19.976,170.852 20.198,170.453C20.427,170.054 20.542,169.278 20.542,168.125C20.542,166.885 20.432,166.033 20.214,165.568C19.995,165.102 19.594,164.87 19.01,164.87L18.875,164.87L18.875,171.052Z" style="fill:rgb(158,161,168);fill-rule:nonzero;"/>
            <path id="path1057" d="M22.125,163.958L23.172,163.958L23.719,167.693L23.807,168.245C23.849,168.543 23.88,168.816 23.901,169.063L23.958,169.745C23.962,169.762 23.965,169.793 23.969,169.839C23.972,169.884 23.977,169.941 23.984,170.01L24.01,169.75C24.052,169.295 24.095,168.877 24.141,168.495C24.189,168.113 24.241,167.76 24.297,167.438L24.875,163.958L25.708,163.958L26.25,167.339C26.33,167.839 26.396,168.302 26.448,168.729C26.503,169.156 26.549,169.564 26.583,169.953C26.618,169.543 26.656,169.148 26.698,168.766C26.743,168.384 26.79,168.009 26.839,167.641L26.917,167.104L27.38,163.958L28.417,163.958L26.995,172L26.151,172L25.583,168.526C25.58,168.512 25.571,168.455 25.557,168.354C25.543,168.253 25.523,168.109 25.495,167.922L25.385,167.12C25.378,167.057 25.366,166.964 25.349,166.839C25.335,166.714 25.319,166.556 25.302,166.365L25.276,166.031C25.269,166.111 25.262,166.181 25.255,166.24C25.248,166.299 25.243,166.347 25.24,166.385C25.222,166.615 25.207,166.793 25.193,166.922C25.182,167.047 25.175,167.123 25.172,167.151L25.063,167.922C25.038,168.099 25.019,168.238 25.005,168.339C24.991,168.439 24.981,168.502 24.974,168.526L24.385,172L23.516,172L22.125,163.958Z" style="fill:rgb(158,161,168);fill-rule:nonzero;"/>
            <rect id="path1059" x="29.063" y="163.958" width="1.083" height="8.042" style="fill:rgb(158,161,168);fill-rule:nonzero;"/>
            <path id="path1061" d="M31.396,163.958L32.729,163.958C33.135,163.958 33.477,164.003 33.755,164.094C34.012,164.181 34.241,164.335 34.443,164.557C34.745,164.891 34.96,165.325 35.089,165.859C35.217,166.377 35.281,167.118 35.281,168.083C35.281,168.969 35.21,169.691 35.068,170.25C34.929,170.785 34.7,171.193 34.38,171.474C33.988,171.825 33.285,172 32.271,172L31.396,172L31.396,163.958ZM32.479,171.052C33.139,171.052 33.58,170.852 33.802,170.453C34.031,170.054 34.146,169.278 34.146,168.125C34.146,166.885 34.036,166.033 33.818,165.568C33.599,165.102 33.198,164.87 32.615,164.87L32.479,164.87L32.479,171.052Z" style="fill:rgb(158,161,168);fill-rule:nonzero;"/>
            <path id="path1063" d="M35.714,163.958L39.24,163.958L39.24,164.906L38.026,164.906L38.026,172L36.964,172L36.964,164.906L35.714,164.906L35.714,163.958Z" style="fill:rgb(158,161,168);fill-rule:nonzero;"/>
            <path id="path1065" d="M39.833,163.958L40.917,163.958L40.917,167.104L42.505,167.104L42.505,163.958L43.589,163.958L43.589,172L42.505,172L42.505,168.021L40.917,168.021L40.917,172L39.833,172L39.833,163.958Z" style="fill:rgb(158,161,168);fill-rule:nonzero;"/>
        </g>
        <g id="text1002" transform="matrix(1,0,0,1,0,-6)">
            <path id="path1038" d="M4,186.859L5.333,186.859C5.74,186.859 6.082,186.905 6.359,186.995C6.616,187.082 6.845,187.236 7.047,187.458C7.349,187.792 7.564,188.226 7.693,188.76C7.821,189.278 7.885,190.019 7.885,190.984C7.885,191.87 7.814,192.592 7.672,193.151C7.533,193.686 7.304,194.094 6.984,194.375C6.592,194.726 5.889,194.901 4.875,194.901L4,194.901L4,186.859ZM5.083,193.953C5.743,193.953 6.184,193.753 6.406,193.354C6.635,192.955 6.75,192.179 6.75,191.026C6.75,189.786 6.641,188.934 6.422,188.469C6.203,188.003 5.802,187.771 5.219,187.771L5.083,187.771L5.083,193.953Z" style="fill:rgb(158,161,168);fill-rule:nonzero;"/>
            <path id="path1040" d="M8.958,186.859L11.839,186.859L11.839,187.776L10.042,187.776L10.042,190.323L11.635,190.323L11.635,191.24L10.042,191.24L10.042,193.984L11.839,193.984L11.839,194.901L8.958,194.901L8.958,186.859Z" style="fill:rgb(158,161,168);fill-rule:nonzero;"/>
            <path id="path1042" d="M15.99,186.99L15.99,187.964C15.712,187.828 15.479,187.76 15.292,187.76C15.035,187.76 14.814,187.825 14.63,187.953C14.446,188.078 14.293,188.273 14.172,188.536C14.054,188.8 13.965,189.135 13.906,189.542C13.851,189.944 13.823,190.422 13.823,190.974C13.823,192.96 14.332,193.953 15.349,193.953C15.526,193.953 15.74,193.898 15.99,193.786L15.99,194.781C15.729,194.927 15.438,195 15.115,195C13.486,195 12.672,193.67 12.672,191.01C12.672,189.573 12.87,188.504 13.266,187.802C13.665,187.101 14.274,186.75 15.094,186.75C15.396,186.75 15.694,186.83 15.99,186.99L15.99,186.99Z" style="fill:rgb(158,161,168);fill-rule:nonzero;"/>
            <path id="path1044" d="M18.333,186.859L19.177,186.859L20.901,194.901L19.828,194.901L19.526,193.333L17.932,193.333L17.625,194.901L16.583,194.901L18.333,186.859ZM19.37,192.495L19.13,191.214C18.97,190.342 18.84,189.411 18.74,188.422C18.691,188.905 18.628,189.394 18.552,189.891C18.476,190.384 18.385,190.908 18.281,191.464L18.083,192.495L19.37,192.495Z" style="fill:rgb(158,161,168);fill-rule:nonzero;"/>
            <path id="path1046" d="M20.526,186.859L21.672,186.859L22.203,188.609C22.22,188.661 22.238,188.719 22.255,188.781C22.273,188.844 22.293,188.911 22.318,188.984C22.516,189.616 22.651,190.148 22.724,190.578C22.786,190.148 22.839,189.847 22.88,189.677L23.047,188.958L23.109,188.677L23.557,186.859L24.688,186.859L23.286,191.443L23.286,194.901L22.203,194.901L22.203,191.443L20.526,186.859Z" style="fill:rgb(158,161,168);fill-rule:nonzero;"/>
        </g>
        <g id="text1006" transform="matrix(1,0,0,1,0,6)">
            <path id="path1023" d="M4,232.958L5.333,232.958C5.74,232.958 6.082,233.003 6.359,233.094C6.616,233.181 6.845,233.335 7.047,233.557C7.349,233.891 7.564,234.325 7.693,234.859C7.821,235.377 7.885,236.118 7.885,237.083C7.885,237.969 7.814,238.691 7.672,239.25C7.533,239.785 7.304,240.193 6.984,240.474C6.592,240.825 5.889,241 4.875,241L4,241L4,232.958ZM5.083,240.052C5.743,240.052 6.184,239.852 6.406,239.453C6.635,239.054 6.75,238.278 6.75,237.125C6.75,235.885 6.641,235.033 6.422,234.568C6.203,234.102 5.802,233.87 5.219,233.87L5.083,233.87L5.083,240.052Z" style="fill:rgb(158,161,168);fill-rule:nonzero;"/>
            <path id="path1025" d="M8.958,232.958L10.385,232.958C10.976,232.958 11.415,233.099 11.703,233.38C12.068,233.745 12.25,234.302 12.25,235.052C12.25,235.628 12.153,236.092 11.958,236.443C11.767,236.79 11.493,237.005 11.135,237.089L12.615,241L11.516,241L10.042,237.063L10.042,241L8.958,241L8.958,232.958ZM10.042,236.521C10.462,236.521 10.759,236.424 10.932,236.229C11.106,236.035 11.193,235.707 11.193,235.245C11.193,234.995 11.174,234.781 11.135,234.604C11.101,234.427 11.043,234.283 10.964,234.172C10.887,234.061 10.786,233.979 10.661,233.927C10.54,233.875 10.394,233.849 10.224,233.849L10.042,233.849L10.042,236.521Z" style="fill:rgb(158,161,168);fill-rule:nonzero;"/>
            <path id="path1027" d="M12.755,232.958L13.901,232.958L14.432,234.708C14.45,234.76 14.467,234.818 14.484,234.88C14.502,234.943 14.523,235.01 14.547,235.083C14.745,235.715 14.88,236.247 14.953,236.677C15.016,236.247 15.068,235.946 15.109,235.776L15.276,235.057L15.339,234.776L15.786,232.958L16.917,232.958L15.516,237.542L15.516,241L14.432,241L14.432,237.542L12.755,232.958Z" style="fill:rgb(158,161,168);fill-rule:nonzero;"/>
            <rect id="path1029" x="16.839" y="237.833" width="1.896" height="0.813" style="fill:rgb(158,161,168);fill-rule:nonzero;"/>
            <path id="path1031" d="M18.896,232.958L19.943,232.958L20.49,236.693L20.578,237.245C20.62,237.543 20.651,237.816 20.672,238.063L20.729,238.745C20.733,238.762 20.736,238.793 20.74,238.839C20.743,238.884 20.748,238.941 20.755,239.01L20.781,238.75C20.823,238.295 20.866,237.877 20.911,237.495C20.96,237.113 21.012,236.76 21.068,236.438L21.646,232.958L22.479,232.958L23.021,236.339C23.101,236.839 23.167,237.302 23.219,237.729C23.274,238.156 23.319,238.564 23.354,238.953C23.389,238.543 23.427,238.148 23.469,237.766C23.514,237.384 23.561,237.009 23.609,236.641L23.688,236.104L24.151,232.958L25.188,232.958L23.766,241L22.922,241L22.354,237.526C22.351,237.512 22.342,237.455 22.328,237.354C22.314,237.254 22.293,237.109 22.266,236.922L22.156,236.12C22.149,236.057 22.137,235.964 22.12,235.839C22.106,235.714 22.09,235.556 22.073,235.365L22.047,235.031C22.04,235.111 22.033,235.181 22.026,235.24C22.019,235.299 22.014,235.347 22.01,235.385C21.993,235.615 21.977,235.793 21.964,235.922C21.953,236.047 21.946,236.123 21.943,236.151L21.833,236.922C21.809,237.099 21.79,237.238 21.776,237.339C21.762,237.439 21.752,237.502 21.745,237.526L21.156,241L20.286,241L18.896,232.958Z" style="fill:rgb(158,161,168);fill-rule:nonzero;"/>
            <path id="path1033" d="M25.833,232.958L28.714,232.958L28.714,233.875L26.917,233.875L26.917,236.422L28.51,236.422L28.51,237.339L26.917,237.339L26.917,240.083L28.714,240.083L28.714,241L25.833,241L25.833,232.958Z" style="fill:rgb(158,161,168);fill-rule:nonzero;"/>
            <path id="path1035" d="M29.068,232.958L32.594,232.958L32.594,233.906L31.38,233.906L31.38,241L30.318,241L30.318,233.906L29.068,233.906L29.068,232.958Z" style="fill:rgb(158,161,168);fill-rule:nonzero;"/>
        </g>
        <g id="text1010" transform="matrix(1,0,0,1,0,6)">
            <path id="path1012" d="M4,255.859L5.469,255.859C6.618,255.859 7.193,256.573 7.193,258C7.193,258.545 7.118,258.95 6.969,259.214C6.819,259.477 6.556,259.677 6.177,259.813C6.611,259.986 6.908,260.208 7.068,260.479C7.231,260.747 7.313,261.149 7.313,261.688C7.313,263.163 6.681,263.901 5.417,263.901L4,263.901L4,255.859ZM5.021,259.401C5.441,259.401 5.733,259.304 5.896,259.109C6.059,258.905 6.141,258.545 6.141,258.031C6.141,257.163 5.828,256.729 5.203,256.729L5.12,256.729L5.073,256.729C5.045,256.729 5.028,256.731 5.021,256.734L5.021,259.401ZM5.021,262.974C5.465,262.974 5.773,262.878 5.943,262.688C6.113,262.497 6.198,262.151 6.198,261.651C6.198,261.137 6.109,260.778 5.932,260.573C5.759,260.365 5.455,260.26 5.021,260.26L5.021,262.974Z" style="fill:rgb(158,161,168);fill-rule:nonzero;"/>
            <path id="path1014" d="M12.401,260.078C12.401,261.498 12.243,262.507 11.927,263.104C11.611,263.701 11.082,264 10.339,264C9.557,264 9.007,263.679 8.688,263.036C8.372,262.408 8.214,261.292 8.214,259.688C8.214,258.257 8.37,257.245 8.682,256.651C8.998,256.054 9.533,255.755 10.286,255.755C10.96,255.755 11.46,255.986 11.786,256.448C12.002,256.757 12.158,257.196 12.255,257.766C12.352,258.293 12.401,259.064 12.401,260.078ZM11.266,260.193C11.266,258.8 11.203,257.877 11.078,257.422C10.953,256.964 10.698,256.734 10.313,256.734C9.927,256.734 9.67,256.944 9.542,257.365C9.417,257.788 9.354,258.639 9.354,259.917C9.354,261.094 9.42,261.91 9.552,262.365C9.688,262.795 9.941,263.01 10.313,263.01C10.677,263.01 10.927,262.809 11.063,262.406C11.198,262.007 11.266,261.269 11.266,260.193L11.266,260.193Z" style="fill:rgb(158,161,168);fill-rule:nonzero;"/>
            <path id="path1016" d="M17.505,260.078C17.505,261.498 17.347,262.507 17.031,263.104C16.715,263.701 16.186,264 15.443,264C14.661,264 14.111,263.679 13.792,263.036C13.476,262.408 13.318,261.292 13.318,259.688C13.318,258.257 13.474,257.245 13.786,256.651C14.102,256.054 14.637,255.755 15.391,255.755C16.064,255.755 16.564,255.986 16.891,256.448C17.106,256.757 17.262,257.196 17.359,257.766C17.457,258.293 17.505,259.064 17.505,260.078L17.505,260.078ZM16.37,260.193C16.37,258.8 16.307,257.877 16.182,257.422C16.057,256.964 15.802,256.734 15.417,256.734C15.031,256.734 14.774,256.944 14.646,257.365C14.521,257.788 14.458,258.639 14.458,259.917C14.458,261.094 14.524,261.91 14.656,262.365C14.792,262.795 15.045,263.01 15.417,263.01C15.781,263.01 16.031,262.809 16.167,262.406C16.302,262.007 16.37,261.269 16.37,260.193L16.37,260.193Z" style="fill:rgb(158,161,168);fill-rule:nonzero;"/>
            <path id="path1018" d="M21.266,256.026L21.266,257.083C20.936,256.847 20.639,256.729 20.375,256.729C20.09,256.729 19.858,256.83 19.677,257.031C19.497,257.222 19.406,257.477 19.406,257.797C19.406,258.078 19.47,258.319 19.599,258.521C19.665,258.628 19.773,258.767 19.922,258.938C20.075,259.108 20.271,259.313 20.51,259.552C20.951,260 21.252,260.387 21.411,260.714C21.571,261.03 21.651,261.417 21.651,261.875C21.651,262.497 21.476,263.009 21.125,263.411C20.774,263.804 20.325,264 19.776,264C19.314,264 18.92,263.873 18.594,263.62L18.594,262.547C18.979,262.828 19.33,262.969 19.646,262.969C19.941,262.969 20.172,262.872 20.339,262.677C20.505,262.479 20.589,262.212 20.589,261.875C20.589,261.583 20.524,261.321 20.396,261.089C20.33,260.977 20.238,260.851 20.12,260.708C20.002,260.563 19.854,260.401 19.677,260.224C19.403,259.953 19.175,259.714 18.995,259.505C18.814,259.297 18.681,259.115 18.594,258.958C18.427,258.653 18.344,258.267 18.344,257.802C18.344,257.174 18.507,256.675 18.833,256.307C19.163,255.936 19.606,255.75 20.161,255.75C20.547,255.75 20.915,255.842 21.266,256.026L21.266,256.026Z" style="fill:rgb(158,161,168);fill-rule:nonzero;"/>
            <path id="path1020" d="M22.047,255.859L25.573,255.859L25.573,256.807L24.359,256.807L24.359,263.901L23.297,263.901L23.297,256.807L22.047,256.807L22.047,255.859Z" style="fill:rgb(158,161,168);fill-rule:nonzero;"/>
        </g>
    </g>
</svg>
