<?xml version="1.0" encoding="UTF-8" standalone="no"?>
<!DOCTYPE svg PUBLIC "-//W3C//DTD SVG 1.1//EN" "http://www.w3.org/Graphics/SVG/1.1/DTD/svg11.dtd">
<svg width="100%" height="100%" viewBox="0 0 90 380" version="1.1" xmlns="http://www.w3.org/2000/svg" xmlns:xlink="http://www.w3.org/1999/xlink" xml:space="preserve" xmlns:serif="http://www.serif.com/" style="fill-rule:evenodd;clip-rule:evenodd;stroke-linejoin:round;stroke-miterlimit:2;">
    <g id="Layer-2" serif:id="Layer 2">
        <g id="rect4689" transform="matrix(1,0,0,-1,0,0)">
            <rect x="0" y="-380" width="90" height="380" style="fill:rgb(44,45,48);"/>
        </g>
        <g id="text989">
        </g>
        <g id="text80" transform="matrix(1.00498,0,0,0.995047,-5.56788e-06,4.99997)">
            <path id="path4726" d="M29.851,371.706L29.851,363.943L31.853,363.943L32.903,366.668C32.96,366.829 33.024,367.013 33.094,367.221C33.168,367.429 33.249,367.668 33.336,367.94L33.552,368.624C33.475,367.95 33.416,367.373 33.376,366.894C33.336,366.415 33.316,366.013 33.316,365.687L33.316,363.943L35.317,363.943L35.317,371.706L33.316,371.706L32.26,368.85C32.149,368.545 32.049,368.26 31.958,367.995C31.871,367.727 31.794,367.472 31.727,367.231C31.77,367.777 31.802,368.253 31.822,368.659C31.843,369.065 31.853,369.42 31.853,369.725L31.853,371.706L29.851,371.706Z" style="fill:rgb(158,161,168);fill-rule:nonzero;"/>
            <path id="path4728" d="M39.887,371.706L37.791,371.706L37.791,368.418L35.865,363.943L38.052,363.943L38.429,365.094C38.503,365.319 38.568,365.535 38.625,365.743C38.686,365.951 38.739,366.15 38.786,366.341C38.863,366.056 38.93,365.811 38.987,365.607C39.044,365.399 39.095,365.232 39.138,365.104L39.52,363.943L41.692,363.943L39.887,368.418L39.887,371.706Z" style="fill:rgb(158,161,168);fill-rule:nonzero;"/>
            <path id="path4730" d="M41.894,371.515L41.894,369.076C42.306,369.639 42.752,369.921 43.231,369.921C43.412,369.921 43.56,369.874 43.673,369.78C43.787,369.683 43.844,369.562 43.844,369.418C43.844,369.21 43.72,369.008 43.472,368.81L43.13,368.543C42.902,368.372 42.708,368.203 42.547,368.035C42.386,367.865 42.256,367.69 42.155,367.513C42.054,367.332 41.981,367.146 41.934,366.954C41.887,366.763 41.863,366.562 41.863,366.351C41.863,365.989 41.947,365.61 42.115,365.215C42.199,365.03 42.296,364.863 42.406,364.712C42.517,364.558 42.644,364.422 42.789,364.305C43.184,363.969 43.662,363.802 44.222,363.802C44.721,363.802 45.224,363.934 45.73,364.199L45.73,366.572C45.559,366.308 45.365,366.1 45.147,365.949C44.929,365.795 44.714,365.718 44.503,365.718C44.342,365.718 44.21,365.765 44.106,365.858C43.999,365.949 43.945,366.058 43.945,366.185C43.945,366.393 44.087,366.599 44.372,366.804L44.704,367.05C45.147,367.368 45.463,367.695 45.655,368.03C45.849,368.366 45.946,368.758 45.946,369.207C45.946,369.971 45.713,370.601 45.247,371.098C44.781,371.594 44.191,371.842 43.477,371.842C42.985,371.842 42.457,371.733 41.894,371.515L41.894,371.515Z" style="fill:rgb(158,161,168);fill-rule:nonzero;"/>
            <path id="path4732" d="M49.576,371.706L47.48,371.706L47.48,365.803L46.323,365.803L46.323,363.943L50.778,363.943L50.778,365.803L49.576,365.803L49.576,371.706Z" style="fill:rgb(158,161,168);fill-rule:nonzero;"/>
            <path id="path4734" d="M56.525,371.706L54.428,371.706L54.428,368.584L53.428,368.584L53.428,371.706L51.331,371.706L51.331,363.943L53.428,363.943L53.428,366.688L54.428,366.688L54.428,363.943L56.525,363.943L56.525,371.706Z" style="fill:rgb(158,161,168);fill-rule:nonzero;"/>
            <rect id="path4736" x="57.606" y="363.943" width="2.097" height="7.763" style="fill:rgb(158,161,168);fill-rule:nonzero;"/>
        </g>
        <g id="text4987">
        </g>
        <g id="text940" transform="matrix(0.816887,0,0,1.22416,0,0)">
            <path id="path1328" d="M24.363,14.503L21.117,14.503L20.886,9.261L20.789,7.169C20.754,7.571 20.715,7.956 20.67,8.323C20.625,8.685 20.571,9.038 20.506,9.38L19.531,14.503L16.999,14.503L16.165,9.373C16.116,9.075 16.049,8.564 15.964,7.839C15.954,7.73 15.932,7.507 15.897,7.169L15.823,9.291L15.547,14.503L12.242,14.503L13.582,3.007L17.446,3.007L18.094,6.879C18.148,7.196 18.196,7.541 18.235,7.914C18.28,8.286 18.32,8.69 18.354,9.127C18.419,8.398 18.508,7.745 18.622,7.169L19.412,3.007L23.246,3.007L24.363,14.503Z" style="fill:rgb(158,161,168);fill-rule:nonzero;"/>
            <rect id="path1330" x="25.755" y="3.007" width="3.105" height="11.496" style="fill:rgb(158,161,168);fill-rule:nonzero;"/>
            <path id="path1332" d="M36.924,10.966L36.745,14.287C36.055,14.565 35.437,14.704 34.891,14.704C33.605,14.704 32.523,14.232 31.645,13.289C30.662,12.232 30.171,10.735 30.171,8.8C30.171,6.988 30.632,5.533 31.555,4.437C32.479,3.344 33.712,2.798 35.256,2.798C35.757,2.798 36.268,2.893 36.79,3.081L36.79,6.365C36.328,5.903 35.854,5.672 35.368,5.672C34.732,5.672 34.236,5.943 33.878,6.484C33.521,7.03 33.342,7.785 33.342,8.747C33.342,9.214 33.387,9.631 33.476,9.998C33.566,10.366 33.692,10.676 33.856,10.929C34.025,11.182 34.231,11.376 34.474,11.51C34.717,11.644 34.995,11.711 35.308,11.711C35.844,11.711 36.383,11.463 36.924,10.966Z" style="fill:rgb(158,161,168);fill-rule:nonzero;"/>
            <path id="path1334" d="M46.32,14.503L42.962,14.503L41.428,10.408C41.413,10.338 41.386,10.247 41.346,10.132C41.312,10.018 41.267,9.882 41.212,9.723L41.235,10.482L41.235,14.503L38.145,14.503L38.145,3.007L41.324,3.007C42.724,3.007 43.771,3.282 44.466,3.833C45.35,4.538 45.791,5.541 45.791,6.841C45.791,8.231 45.198,9.192 44.012,9.723L46.32,14.503ZM41.25,8.331L41.458,8.331C41.815,8.331 42.113,8.194 42.352,7.921C42.59,7.648 42.709,7.301 42.709,6.879C42.709,6.02 42.26,5.591 41.361,5.591L41.25,5.591L41.25,8.331Z" style="fill:rgb(158,161,168);fill-rule:nonzero;"/>
            <path id="path1336" d="M55.649,8.792C55.649,10.544 55.25,11.969 54.451,13.066C53.656,14.158 52.621,14.704 51.346,14.704C50.214,14.704 49.244,14.285 48.435,13.446C47.417,12.383 46.908,10.79 46.908,8.666C46.908,6.63 47.439,5.074 48.502,3.997C49.291,3.198 50.226,2.798 51.309,2.798C52.634,2.798 53.689,3.34 54.473,4.422C55.257,5.504 55.649,6.961 55.649,8.792ZM52.425,8.815C52.425,6.735 52.058,5.695 51.323,5.695C50.956,5.695 50.663,5.968 50.445,6.514C50.231,7.02 50.125,7.765 50.125,8.747C50.125,9.715 50.224,10.467 50.423,11.004C50.626,11.535 50.907,11.8 51.264,11.8C51.631,11.8 51.914,11.537 52.113,11.011C52.321,10.485 52.425,9.753 52.425,8.815L52.425,8.815Z" style="fill:rgb(158,161,168);fill-rule:nonzero;"/>
            <path id="path1338" d="M61.07,14.503L57.965,14.503L57.965,5.762L56.252,5.762L56.252,3.007L62.849,3.007L62.849,5.762L61.07,5.762L61.07,14.503Z" style="fill:rgb(158,161,168);fill-rule:nonzero;"/>
            <path id="path1340" d="M72.208,8.792C72.208,10.544 71.809,11.969 71.01,13.066C70.215,14.158 69.18,14.704 67.905,14.704C66.773,14.704 65.803,14.285 64.994,13.446C63.976,12.383 63.467,10.79 63.467,8.666C63.467,6.63 63.998,5.074 65.061,3.997C65.85,3.198 66.785,2.798 67.868,2.798C69.193,2.798 70.248,3.34 71.032,4.422C71.816,5.504 72.208,6.961 72.208,8.792ZM68.984,8.815C68.984,6.735 68.617,5.695 67.882,5.695C67.515,5.695 67.222,5.968 67.004,6.514C66.79,7.02 66.684,7.765 66.684,8.747C66.684,9.715 66.783,10.467 66.982,11.004C67.185,11.535 67.465,11.8 67.823,11.8C68.19,11.8 68.473,11.537 68.672,11.011C68.88,10.485 68.984,9.753 68.984,8.815L68.984,8.815Z" style="fill:rgb(158,161,168);fill-rule:nonzero;"/>
            <path id="path1342" d="M73.526,14.503L73.526,3.007L76.49,3.007L78.046,7.042C78.13,7.281 78.224,7.554 78.329,7.861C78.438,8.169 78.557,8.524 78.686,8.926L79.006,9.939C78.892,8.941 78.805,8.087 78.746,7.378C78.686,6.668 78.656,6.072 78.656,5.591L78.656,3.007L81.62,3.007L81.62,14.503L78.656,14.503L77.093,10.274C76.929,9.822 76.78,9.4 76.646,9.008C76.517,8.611 76.403,8.234 76.303,7.876C76.368,8.685 76.415,9.39 76.445,9.991C76.475,10.592 76.49,11.118 76.49,11.569L76.49,14.503L73.526,14.503Z" style="fill:rgb(158,161,168);fill-rule:nonzero;"/>
            <path id="path1344" d="M91.604,14.503L88.395,14.503L88.164,13.044L86.072,13.044L85.819,14.503L82.61,14.503L85.372,3.007L89.169,3.007L91.604,14.503ZM87.799,10.579L87.598,9.239C87.593,9.234 87.583,9.167 87.568,9.038C87.559,8.929 87.507,8.497 87.412,7.742C87.402,7.658 87.39,7.544 87.375,7.4C87.36,7.251 87.34,7.065 87.315,6.841L87.219,5.754C87.209,5.859 87.194,5.975 87.174,6.104C87.159,6.233 87.142,6.375 87.122,6.529C87.087,6.836 87.062,7.05 87.047,7.169C87.032,7.288 87.023,7.36 87.017,7.385L86.802,8.777L86.489,10.579L87.799,10.579Z" style="fill:rgb(158,161,168);fill-rule:nonzero;"/>
            <path id="path1346" d="M97.933,14.503L92.498,14.503L92.498,3.007L95.602,3.007L95.602,11.741L97.933,11.741L97.933,14.503Z" style="fill:rgb(158,161,168);fill-rule:nonzero;"/>
        </g>
        <g id="text957" transform="matrix(0.816887,0,0,1.22416,0,0)">
            <path id="path1307" d="M20.718,27.774L17.614,27.774L17.614,23.15L16.132,23.15L16.132,27.774L13.027,27.774L13.027,16.278L16.132,16.278L16.132,20.343L17.614,20.343L17.614,16.278L20.718,16.278L20.718,27.774Z" style="fill:rgb(158,161,168);fill-rule:nonzero;"/>
            <path id="path1309" d="M30.77,22.063C30.77,23.816 30.37,25.24 29.571,26.337C28.777,27.429 27.742,27.975 26.466,27.975C25.335,27.975 24.364,27.556 23.555,26.717C22.538,25.655 22.029,24.061 22.029,21.937C22.029,19.902 22.56,18.346 23.622,17.268C24.411,16.469 25.347,16.07 26.429,16.07C27.754,16.07 28.809,16.611 29.594,17.693C30.378,18.775 30.77,20.232 30.77,22.063ZM27.546,22.086C27.546,20.006 27.179,18.966 26.444,18.966C26.077,18.966 25.784,19.239 25.565,19.785C25.352,20.291 25.245,21.036 25.245,22.019C25.245,22.987 25.345,23.739 25.543,24.275C25.747,24.806 26.027,25.071 26.384,25.071C26.752,25.071 27.035,24.808 27.233,24.282C27.442,23.756 27.546,23.024 27.546,22.086L27.546,22.086Z" style="fill:rgb(158,161,168);fill-rule:nonzero;"/>
            <path id="path1311" d="M31.842,27.491L31.842,23.88C32.453,24.714 33.113,25.131 33.823,25.131C34.091,25.131 34.309,25.061 34.478,24.922C34.647,24.779 34.731,24.6 34.731,24.386C34.731,24.079 34.547,23.778 34.18,23.485L33.674,23.091C33.336,22.838 33.048,22.587 32.81,22.339C32.572,22.086 32.378,21.828 32.229,21.565C32.08,21.296 31.971,21.021 31.902,20.738C31.832,20.455 31.797,20.157 31.797,19.845C31.797,19.309 31.922,18.748 32.17,18.162C32.294,17.889 32.438,17.641 32.602,17.417C32.765,17.189 32.954,16.988 33.167,16.814C33.753,16.318 34.46,16.07 35.289,16.07C36.029,16.07 36.774,16.266 37.523,16.658L37.523,20.172C37.27,19.78 36.982,19.472 36.659,19.249C36.337,19.021 36.019,18.906 35.706,18.906C35.468,18.906 35.272,18.976 35.118,19.115C34.959,19.249 34.88,19.41 34.88,19.599C34.88,19.907 35.091,20.212 35.513,20.515L36.004,20.88C36.659,21.351 37.128,21.835 37.411,22.331C37.699,22.828 37.843,23.409 37.843,24.074C37.843,25.205 37.498,26.139 36.808,26.873C36.118,27.608 35.245,27.975 34.187,27.975C33.458,27.975 32.676,27.814 31.842,27.491Z" style="fill:rgb(158,161,168);fill-rule:nonzero;"/>
            <path id="path1313" d="M43.219,27.774L40.114,27.774L40.114,19.033L38.402,19.033L38.402,16.278L44.998,16.278L44.998,19.033L43.219,19.033L43.219,27.774Z" style="fill:rgb(158,161,168);fill-rule:nonzero;"/>
            <path id="path1315" d="M58.095,27.774L54.99,27.774L54.99,23.15L53.509,23.15L53.509,27.774L50.404,27.774L50.404,16.278L53.509,16.278L53.509,20.343L54.99,20.343L54.99,16.278L58.095,16.278L58.095,27.774Z" style="fill:rgb(158,161,168);fill-rule:nonzero;"/>
            <path id="path1317" d="M59.696,27.774L59.696,16.278L65.466,16.278L65.466,18.981L62.801,18.981L62.801,20.656L65.191,20.656L65.191,23.255L62.801,23.255L62.801,25.012L65.466,25.012L65.466,27.774L59.696,27.774Z" style="fill:rgb(158,161,168);fill-rule:nonzero;"/>
            <path id="path1319" d="M72.219,27.774L66.784,27.774L66.784,16.278L69.889,16.278L69.889,25.012L72.219,25.012L72.219,27.774Z" style="fill:rgb(158,161,168);fill-rule:nonzero;"/>
            <path id="path1321" d="M76.262,27.774L73.158,27.774L73.158,16.278L76.166,16.278C77.665,16.278 78.777,16.583 79.501,17.194C80.355,17.914 80.782,18.914 80.782,20.195C80.782,21.589 80.328,22.629 79.419,23.314C78.799,23.776 77.908,24.007 76.746,24.007L76.262,24.007L76.262,27.774ZM76.262,21.423L76.404,21.431C76.781,21.431 77.081,21.316 77.305,21.088C77.528,20.855 77.64,20.537 77.64,20.135C77.64,19.738 77.531,19.415 77.312,19.167C77.094,18.914 76.816,18.787 76.478,18.787L76.262,18.787L76.262,21.423Z" style="fill:rgb(158,161,168);fill-rule:nonzero;"/>
            <path id="path1323" d="M81.884,27.774L81.884,16.278L87.654,16.278L87.654,18.981L84.989,18.981L84.989,20.656L87.379,20.656L87.379,23.255L84.989,23.255L84.989,25.012L87.654,25.012L87.654,27.774L81.884,27.774Z" style="fill:rgb(158,161,168);fill-rule:nonzero;"/>
            <path id="path1325" d="M97.147,27.774L93.789,27.774L92.256,23.679C92.241,23.61 92.213,23.518 92.174,23.404C92.139,23.289 92.094,23.153 92.04,22.994L92.062,23.754L92.062,27.774L88.972,27.774L88.972,16.278L92.151,16.278C93.551,16.278 94.598,16.554 95.293,17.105C96.177,17.809 96.619,18.812 96.619,20.113C96.619,21.502 96.025,22.463 94.839,22.994L97.147,27.774ZM92.077,21.602L92.285,21.602C92.643,21.602 92.941,21.465 93.179,21.192C93.417,20.919 93.536,20.572 93.536,20.15C93.536,19.291 93.087,18.862 92.189,18.862L92.077,18.862L92.077,21.602Z" style="fill:rgb(158,161,168);fill-rule:nonzero;"/>
        </g>
        <g id="text961" transform="matrix(0.88326,0,0,1.13217,0,0)">
            <path id="path1278" d="M17.173,52.347L16.269,52.996L15.538,51.954C15.101,52.197 14.639,52.319 14.151,52.319C13.116,52.319 12.384,51.882 11.957,51.008C11.533,50.107 11.322,48.598 11.322,46.482C11.322,44.632 11.529,43.323 11.943,42.555C12.357,41.782 13.058,41.396 14.047,41.396C15.087,41.396 15.819,41.821 16.242,42.673C16.66,43.505 16.87,44.982 16.87,47.103C16.87,49.021 16.67,50.353 16.269,51.098L17.173,52.347ZM14.634,48.807L15.227,49.649C15.324,48.968 15.372,48.2 15.372,47.344C15.372,45.513 15.285,44.276 15.11,43.632C14.935,43.011 14.588,42.7 14.068,42.7C13.58,42.7 13.252,42.965 13.081,43.494C12.911,44 12.826,45.021 12.826,46.557C12.826,48.283 12.913,49.46 13.088,50.09C13.263,50.693 13.603,50.994 14.109,50.994C14.312,50.994 14.505,50.93 14.689,50.801L13.778,49.49L14.634,48.807Z" style="fill:rgb(158,161,168);fill-rule:nonzero;"/>
            <path id="path1280" d="M18.298,41.534L19.706,41.534L19.706,49.062C19.706,49.831 19.775,50.341 19.913,50.594C20.055,50.847 20.336,50.974 20.755,50.974C21.173,50.974 21.449,50.863 21.583,50.643C21.721,50.417 21.79,49.959 21.79,49.269L21.79,41.534L23.197,41.534L23.197,49.269C23.197,50.429 23.02,51.213 22.666,51.622C22.243,52.087 21.596,52.319 20.727,52.319C19.77,52.319 19.096,52.02 18.705,51.422C18.434,51.013 18.298,50.226 18.298,49.062L18.298,41.534Z" style="fill:rgb(158,161,168);fill-rule:nonzero;"/>
            <path id="path1282" d="M26.358,41.534L27.476,41.534L29.76,52.188L28.338,52.188L27.938,50.111L25.826,50.111L25.419,52.188L24.039,52.188L26.358,41.534ZM27.731,49L27.414,47.303C27.202,46.148 27.029,44.915 26.896,43.604C26.832,44.243 26.749,44.892 26.648,45.55C26.546,46.203 26.427,46.898 26.289,47.634L26.027,49L27.731,49Z" style="fill:rgb(158,161,168);fill-rule:nonzero;"/>
            <path id="path1284" d="M30.609,41.534L31.947,41.534L33.376,45.785C33.79,46.985 34.155,48.266 34.473,49.628C34.358,48.805 34.273,48.059 34.217,47.392C34.162,46.725 34.135,46.097 34.135,45.509L34.135,41.534L35.577,41.534L35.577,52.188L34.231,52.188L32.623,47.392C32.476,46.946 32.336,46.488 32.203,46.019C32.074,45.55 31.954,45.058 31.844,44.543C31.834,44.478 31.818,44.4 31.795,44.308C31.777,44.216 31.754,44.11 31.726,43.99C31.74,44.11 31.752,44.214 31.761,44.301C31.77,44.384 31.777,44.455 31.782,44.515L31.858,45.598L31.933,46.916C31.938,46.99 31.94,47.08 31.94,47.185C31.945,47.291 31.947,47.411 31.947,47.544L32.023,52.188L30.609,52.188L30.609,41.534Z" style="fill:rgb(158,161,168);fill-rule:nonzero;"/>
            <path id="path1286" d="M36.384,41.534L41.056,41.534L41.056,42.79L39.448,42.79L39.448,52.188L38.04,52.188L38.04,42.79L36.384,42.79L36.384,41.534Z" style="fill:rgb(158,161,168);fill-rule:nonzero;"/>
            <rect id="path1288" x="41.842" y="41.534" width="1.435" height="10.654" style="fill:rgb(158,161,168);fill-rule:nonzero;"/>
            <path id="path1290" d="M44.672,41.534L49.364,41.534L46.162,50.932L49.191,50.932L49.191,52.188L44.292,52.188L47.522,42.748L44.672,42.748L44.672,41.534Z" style="fill:rgb(158,161,168);fill-rule:nonzero;"/>
            <path id="path1292" d="M50.261,41.534L54.077,41.534L54.077,42.748L51.696,42.748L51.696,46.123L53.808,46.123L53.808,47.337L51.696,47.337L51.696,50.974L54.077,50.974L54.077,52.188L50.261,52.188L50.261,41.534Z" style="fill:rgb(158,161,168);fill-rule:nonzero;"/>
            <path id="path1294" d="M55.395,41.534L57.162,41.534C57.7,41.534 58.153,41.594 58.521,41.713C58.861,41.828 59.165,42.033 59.432,42.327C59.832,42.769 60.117,43.344 60.287,44.053C60.458,44.738 60.543,45.72 60.543,46.999C60.543,48.172 60.448,49.129 60.26,49.87C60.076,50.578 59.772,51.119 59.349,51.491C58.829,51.956 57.898,52.188 56.554,52.188L55.395,52.188L55.395,41.534ZM56.83,50.932C57.704,50.932 58.289,50.668 58.583,50.139C58.887,49.61 59.038,48.582 59.038,47.054C59.038,45.412 58.894,44.283 58.604,43.666C58.314,43.05 57.783,42.741 57.01,42.741L56.83,42.741L56.83,50.932Z" style="fill:rgb(158,161,168);fill-rule:nonzero;"/>
            <rect id="path1296" x="64.89" y="41.534" width="1.435" height="10.654" style="fill:rgb(158,161,168);fill-rule:nonzero;"/>
            <path id="path1298" d="M67.981,41.534L69.32,41.534L70.749,45.785C71.163,46.985 71.528,48.266 71.846,49.628C71.731,48.805 71.646,48.059 71.59,47.392C71.535,46.725 71.508,46.097 71.508,45.509L71.508,41.534L72.95,41.534L72.95,52.188L71.604,52.188L69.996,47.392C69.849,46.946 69.709,46.488 69.575,46.019C69.447,45.55 69.327,45.058 69.217,44.543C69.207,44.478 69.191,44.4 69.168,44.308C69.15,44.216 69.127,44.11 69.099,43.99C69.113,44.11 69.125,44.214 69.134,44.301C69.143,44.384 69.15,44.455 69.154,44.515L69.23,45.598L69.306,46.916C69.311,46.99 69.313,47.08 69.313,47.185C69.318,47.291 69.32,47.411 69.32,47.544L69.396,52.188L67.981,52.188L67.981,41.534Z" style="fill:rgb(158,161,168);fill-rule:nonzero;"/>
            <path id="path1300" d="M74.606,41.534L76.497,41.534C77.407,41.534 78.07,41.764 78.484,42.224C78.898,42.689 79.105,43.425 79.105,44.432C79.105,45.849 78.689,46.764 77.856,47.178C77.437,47.367 76.832,47.461 76.041,47.461L76.041,52.188L74.606,52.188L74.606,41.534ZM76.041,46.233C76.635,46.233 77.044,46.114 77.269,45.874C77.499,45.63 77.614,45.198 77.614,44.577C77.614,43.942 77.504,43.478 77.283,43.183C77.062,42.889 76.715,42.741 76.241,42.741L76.041,42.741L76.041,46.233Z" style="fill:rgb(158,161,168);fill-rule:nonzero;"/>
            <path id="path1302" d="M80.209,41.534L81.617,41.534L81.617,49.062C81.617,49.831 81.686,50.341 81.824,50.594C81.966,50.847 82.247,50.974 82.666,50.974C83.084,50.974 83.36,50.863 83.494,50.643C83.632,50.417 83.701,49.959 83.701,49.269L83.701,41.534L85.108,41.534L85.108,49.269C85.108,50.429 84.931,51.213 84.577,51.622C84.154,52.087 83.507,52.319 82.638,52.319C81.681,52.319 81.007,52.02 80.616,51.422C80.345,51.013 80.209,50.226 80.209,49.062L80.209,41.534Z" style="fill:rgb(158,161,168);fill-rule:nonzero;"/>
            <path id="path1304" d="M85.902,41.534L90.574,41.534L90.574,42.79L88.966,42.79L88.966,52.188L87.558,52.188L87.558,42.79L85.902,42.79L85.902,41.534Z" style="fill:rgb(158,161,168);fill-rule:nonzero;"/>
        </g>
        <path id="path963" d="M56,74L56,74C56,80.034 51.034,85 45,85L45,85C38.966,85 34,80.034 34,74L34,74C34,67.966 38.966,63 45,63C51.034,63 56,67.966 56,74Z" style="fill-opacity:0.6;fill-rule:nonzero;"/>
        <g id="text967" transform="matrix(0.81774,0,0,1.22288,0,0)">
            <rect id="path1254" x="25.78" y="79.966" width="1.329" height="9.864" style="fill:rgb(158,161,168);fill-rule:nonzero;"/>
            <path id="path1256" d="M28.642,79.966L29.881,79.966L31.203,83.901C31.587,85.013 31.925,86.199 32.219,87.46C32.113,86.697 32.034,86.007 31.983,85.39C31.932,84.772 31.906,84.191 31.906,83.646L31.906,79.966L33.241,79.966L33.241,89.83L31.996,89.83L30.507,85.39C30.371,84.977 30.241,84.553 30.117,84.119C29.998,83.684 29.887,83.228 29.785,82.751C29.777,82.692 29.762,82.619 29.74,82.534C29.723,82.449 29.702,82.351 29.677,82.24C29.689,82.351 29.7,82.447 29.709,82.528C29.717,82.604 29.723,82.671 29.728,82.726L29.798,83.729L29.868,84.949C29.873,85.017 29.875,85.1 29.875,85.198C29.879,85.296 29.881,85.407 29.881,85.53L29.951,89.83L28.642,89.83L28.642,79.966Z" style="fill:rgb(158,161,168);fill-rule:nonzero;"/>
            <path id="path1258" d="M41.355,80.126L41.355,81.32C41.014,81.154 40.729,81.071 40.499,81.071C40.184,81.071 39.913,81.15 39.688,81.308C39.462,81.461 39.274,81.699 39.125,82.023C38.981,82.347 38.872,82.758 38.8,83.256C38.731,83.75 38.697,84.336 38.697,85.013C38.697,87.449 39.321,88.667 40.569,88.667C40.786,88.667 41.048,88.599 41.355,88.463L41.355,89.683C41.036,89.862 40.678,89.951 40.282,89.951C38.284,89.951 37.285,88.32 37.285,85.058C37.285,83.294 37.528,81.983 38.014,81.122C38.504,80.262 39.251,79.832 40.256,79.832C40.627,79.832 40.993,79.93 41.355,80.126L41.355,80.126Z" style="fill:rgb(158,161,168);fill-rule:nonzero;"/>
            <path id="path1260" d="M41.681,79.966L42.99,79.966L43.585,83.607L43.687,84.266L43.898,85.697C43.932,85.939 43.961,86.161 43.987,86.361C44.017,86.561 44.042,86.742 44.064,86.904L44.128,87.39C44.14,87.292 44.151,87.204 44.16,87.128C44.168,87.051 44.177,86.987 44.185,86.936L44.358,85.792L44.581,84.291C44.603,84.155 44.622,84.029 44.639,83.914C44.66,83.799 44.68,83.697 44.696,83.608L45.335,79.966L46.575,79.966L44.639,89.83L43.585,89.83L41.681,79.966Z" style="fill:rgb(158,161,168);fill-rule:nonzero;"/>
            <path id="path1262" d="M49.219,79.966L50.529,79.966L51.123,83.607L51.225,84.266L51.436,85.697C51.47,85.939 51.5,86.161 51.526,86.361C51.555,86.561 51.581,86.742 51.602,86.904L51.666,87.39C51.679,87.292 51.69,87.204 51.698,87.128C51.707,87.051 51.715,86.987 51.724,86.936L51.896,85.792L52.12,84.291C52.141,84.155 52.161,84.029 52.178,83.914C52.199,83.799 52.218,83.697 52.235,83.608L52.874,79.966L54.113,79.966L52.178,89.83L51.123,89.83L49.219,79.966Z" style="fill:rgb(158,161,168);fill-rule:nonzero;"/>
            <path id="path1264" d="M59.799,85.141C59.799,86.883 59.605,88.12 59.217,88.853C58.83,89.585 58.18,89.951 57.269,89.951C56.311,89.951 55.636,89.557 55.244,88.769C54.856,87.999 54.662,86.629 54.662,84.662C54.662,82.907 54.854,81.665 55.237,80.937C55.625,80.205 56.281,79.838 57.205,79.838C58.031,79.838 58.645,80.121 59.045,80.688C59.309,81.067 59.501,81.606 59.62,82.304C59.739,82.952 59.799,83.897 59.799,85.141L59.799,85.141ZM58.406,85.281C58.406,83.573 58.329,82.441 58.176,81.883C58.023,81.32 57.71,81.039 57.237,81.039C56.764,81.039 56.449,81.297 56.291,81.812C56.138,82.332 56.062,83.375 56.062,84.943C56.062,86.387 56.142,87.387 56.304,87.945C56.47,88.473 56.781,88.738 57.237,88.738C57.684,88.738 57.991,88.491 58.157,87.996C58.323,87.507 58.406,86.602 58.406,85.281L58.406,85.281Z" style="fill:rgb(158,161,168);fill-rule:nonzero;"/>
            <path id="path1266" d="M61.121,79.966L62.45,79.966L62.45,88.706L64.622,88.706L64.622,89.83L61.121,89.83L61.121,79.966Z" style="fill:rgb(158,161,168);fill-rule:nonzero;"/>
            <path id="path1268" d="M64.45,79.966L68.775,79.966L68.775,81.129L67.286,81.129L67.286,89.83L65.983,89.83L65.983,81.129L64.45,81.129L64.45,79.966Z" style="fill:rgb(158,161,168);fill-rule:nonzero;"/>
            <path id="path1270" d="M70.73,79.966L71.765,79.966L73.879,89.83L72.563,89.83L72.193,87.907L70.238,87.907L69.861,89.83L68.583,89.83L70.73,79.966ZM72.001,86.878L71.707,85.307C71.511,84.238 71.352,83.096 71.228,81.883C71.168,82.475 71.092,83.075 70.998,83.684C70.904,84.289 70.794,84.932 70.666,85.614L70.423,86.878L72.001,86.878Z" style="fill:rgb(158,161,168);fill-rule:nonzero;"/>
            <path id="path1272" d="M77.003,84.642L79.418,84.642L79.418,85.026C79.418,86.947 79.25,88.243 78.913,88.916C78.581,89.606 77.959,89.951 77.048,89.951C76.107,89.951 75.436,89.568 75.036,88.801C74.64,88.035 74.441,86.746 74.441,84.936C74.441,82.866 74.659,81.489 75.093,80.803C75.502,80.16 76.13,79.838 76.978,79.838C77.625,79.838 78.13,79.994 78.492,80.305C78.858,80.62 79.143,81.137 79.348,81.857L78.109,82.374C78.053,82.115 77.991,81.897 77.923,81.723C77.855,81.544 77.781,81.406 77.7,81.308C77.538,81.107 77.295,81.007 76.971,81.007C76.528,81.007 76.226,81.28 76.064,81.825C75.902,82.396 75.821,83.42 75.821,84.898C75.821,86.393 75.904,87.404 76.071,87.933C76.237,88.461 76.55,88.725 77.01,88.725C77.431,88.725 77.727,88.537 77.898,88.163C78.072,87.762 78.16,87.119 78.16,86.233L78.16,85.965L78.16,85.767L77.003,85.767L77.003,84.642Z" style="fill:rgb(158,161,168);fill-rule:nonzero;"/>
            <path id="path1274" d="M80.747,79.966L84.28,79.966L84.28,81.09L82.076,81.09L82.076,84.214L84.031,84.214L84.031,85.339L82.076,85.339L82.076,88.706L84.28,88.706L84.28,89.83L80.747,89.83L80.747,79.966Z" style="fill:rgb(158,161,168);fill-rule:nonzero;"/>
        </g>
        <g id="text975" transform="matrix(0.752416,0,0,1.32905,0,0)">
            <path id="path1209" d="M11.63,119.834L10.86,120.387L10.237,119.499C9.865,119.707 9.471,119.811 9.055,119.811C8.174,119.811 7.551,119.438 7.186,118.694C6.826,117.926 6.645,116.64 6.645,114.838C6.645,113.262 6.822,112.147 7.174,111.493C7.527,110.835 8.125,110.505 8.967,110.505C9.853,110.505 10.476,110.868 10.836,111.593C11.193,112.302 11.371,113.56 11.371,115.367C11.371,117.001 11.201,118.135 10.86,118.77L11.63,119.834ZM9.467,116.819L9.972,117.536C10.055,116.956 10.096,116.301 10.096,115.573C10.096,114.013 10.021,112.959 9.872,112.41C9.724,111.881 9.428,111.616 8.985,111.616C8.569,111.616 8.289,111.842 8.144,112.292C7.999,112.724 7.927,113.594 7.927,114.902C7.927,116.372 8.001,117.375 8.15,117.912C8.299,118.425 8.589,118.682 9.02,118.682C9.193,118.682 9.357,118.627 9.514,118.518L8.738,117.401L9.467,116.819Z" style="fill:rgb(158,161,168);fill-rule:nonzero;"/>
            <path id="path1211" d="M12.588,110.623L13.787,110.623L13.787,117.036C13.787,117.691 13.846,118.126 13.964,118.341C14.085,118.557 14.324,118.665 14.681,118.665C15.037,118.665 15.273,118.57 15.386,118.382C15.504,118.19 15.563,117.8 15.563,117.213L15.563,110.623L16.762,110.623L16.762,117.213C16.762,118.2 16.611,118.868 16.309,119.217C15.949,119.613 15.398,119.811 14.657,119.811C13.842,119.811 13.268,119.556 12.935,119.047C12.704,118.698 12.588,118.028 12.588,117.036L12.588,110.623Z" style="fill:rgb(158,161,168);fill-rule:nonzero;"/>
            <path id="path1213" d="M19.454,110.623L20.406,110.623L22.352,119.699L21.141,119.699L20.8,117.93L19.001,117.93L18.655,119.699L17.479,119.699L19.454,110.623ZM20.624,116.983L20.353,115.537C20.173,114.554 20.026,113.503 19.912,112.387C19.858,112.931 19.787,113.484 19.701,114.044C19.615,114.601 19.513,115.192 19.395,115.819L19.172,116.983L20.624,116.983Z" style="fill:rgb(158,161,168);fill-rule:nonzero;"/>
            <path id="path1215" d="M23.075,110.623L24.215,110.623L25.432,114.244C25.785,115.267 26.096,116.358 26.367,117.518C26.269,116.817 26.196,116.182 26.149,115.614C26.102,115.045 26.079,114.511 26.079,114.009L26.079,110.623L27.307,110.623L27.307,119.699L26.161,119.699L24.791,115.614C24.666,115.234 24.546,114.844 24.433,114.444C24.323,114.044 24.221,113.625 24.127,113.186C24.119,113.131 24.106,113.064 24.086,112.986C24.07,112.908 24.051,112.818 24.027,112.716C24.039,112.818 24.049,112.906 24.057,112.98C24.064,113.051 24.07,113.112 24.074,113.162L24.139,114.085L24.204,115.208C24.208,115.271 24.21,115.347 24.21,115.437C24.213,115.527 24.215,115.629 24.215,115.743L24.28,119.699L23.075,119.699L23.075,110.623Z" style="fill:rgb(158,161,168);fill-rule:nonzero;"/>
            <path id="path1217" d="M27.995,110.623L31.975,110.623L31.975,111.693L30.605,111.693L30.605,119.699L29.406,119.699L29.406,111.693L27.995,111.693L27.995,110.623Z" style="fill:rgb(158,161,168);fill-rule:nonzero;"/>
            <rect id="path1219" x="32.645" y="110.623" width="1.223" height="9.076" style="fill:rgb(158,161,168);fill-rule:nonzero;"/>
            <path id="path1221" d="M35.055,110.623L39.052,110.623L36.325,118.629L38.905,118.629L38.905,119.699L34.732,119.699L37.483,111.658L35.055,111.658L35.055,110.623Z" style="fill:rgb(158,161,168);fill-rule:nonzero;"/>
            <path id="path1223" d="M39.816,110.623L43.067,110.623L43.067,111.658L41.039,111.658L41.039,114.532L42.838,114.532L42.838,115.567L41.039,115.567L41.039,118.665L43.067,118.665L43.067,119.699L39.816,119.699L39.816,110.623Z" style="fill:rgb(158,161,168);fill-rule:nonzero;"/>
            <path id="path1225" d="M44.19,110.623L45.694,110.623C46.153,110.623 46.539,110.674 46.853,110.776C47.143,110.874 47.401,111.048 47.628,111.299C47.969,111.675 48.212,112.165 48.357,112.769C48.502,113.353 48.575,114.189 48.575,115.279C48.575,116.278 48.495,117.093 48.334,117.724C48.177,118.327 47.918,118.788 47.558,119.105C47.115,119.501 46.322,119.699 45.177,119.699L44.19,119.699L44.19,110.623ZM45.412,118.629C46.157,118.629 46.655,118.404 46.905,117.953C47.164,117.503 47.293,116.627 47.293,115.326C47.293,113.927 47.17,112.965 46.923,112.439C46.676,111.914 46.224,111.652 45.565,111.652L45.412,111.652L45.412,118.629Z" style="fill:rgb(158,161,168);fill-rule:nonzero;"/>
            <path id="path1227" d="M52.263,113.924L53.58,113.924L53.58,119.699L52.835,119.699L52.835,114.586L52.263,114.586L52.263,113.924Z" style="fill:rgb(158,161,168);fill-rule:nonzero;"/>
            <path id="path1229" d="M57.829,113.344L58.431,113.344L54.99,121.285L54.38,121.285L57.829,113.344Z" style="fill:rgb(158,161,168);fill-rule:nonzero;"/>
            <path id="path1231" d="M58.891,113.924L60.208,113.924L60.208,119.699L59.463,119.699L59.463,114.586L58.891,114.586L58.891,113.924Z" style="fill:rgb(158,161,168);fill-rule:nonzero;"/>
            <path id="path1233" d="M62.044,115.802L61.281,115.802L61.274,115.573C61.274,114.943 61.368,114.499 61.558,114.242C61.75,113.982 62.072,113.853 62.523,113.853C63.373,113.853 63.798,114.324 63.798,115.267C63.798,115.903 63.481,116.819 62.845,118.016L62.385,118.88C62.382,118.885 62.375,118.9 62.362,118.925C62.35,118.95 62.332,118.986 62.31,119.033L63.739,119.033L63.739,119.699L61.203,119.699C61.245,119.604 61.334,119.416 61.468,119.134C61.603,118.853 61.786,118.472 62.018,117.993C62.215,117.575 62.38,117.219 62.512,116.927C62.644,116.636 62.744,116.396 62.811,116.209C62.946,115.835 63.013,115.512 63.013,115.241C63.013,114.762 62.847,114.522 62.516,114.522C62.196,114.522 62.037,114.819 62.037,115.413L62.041,115.742L62.044,115.802Z" style="fill:rgb(158,161,168);fill-rule:nonzero;"/>
            <path id="path1235" d="M64.116,115.828L64.883,115.828L65.164,117.055C65.221,117.304 65.27,117.568 65.31,117.848C65.35,118.124 65.382,118.427 65.407,118.756C65.422,118.679 65.429,118.634 65.429,118.622L65.515,118.046C65.548,117.826 65.611,117.496 65.706,117.055L65.964,115.828L66.656,115.828L65.646,119.699L65.164,119.699L64.116,115.828Z" style="fill:rgb(158,161,168);fill-rule:nonzero;"/>
            <path id="path1237" d="M69.159,110.623L73.138,110.623L73.138,111.693L71.769,111.693L71.769,119.699L70.57,119.699L70.57,111.693L69.159,111.693L69.159,110.623Z" style="fill:rgb(158,161,168);fill-rule:nonzero;"/>
            <path id="path1239" d="M78.446,115.384C78.446,116.987 78.268,118.126 77.911,118.8C77.555,119.474 76.957,119.811 76.119,119.811C75.237,119.811 74.616,119.448 74.255,118.723C73.899,118.014 73.72,116.754 73.72,114.944C73.72,113.329 73.897,112.187 74.249,111.517C74.606,110.843 75.209,110.505 76.06,110.505C76.82,110.505 77.384,110.766 77.753,111.287C77.996,111.636 78.172,112.132 78.282,112.774C78.392,113.37 78.446,114.24 78.446,115.384L78.446,115.384ZM77.165,115.514C77.165,113.942 77.094,112.9 76.953,112.387C76.812,111.869 76.524,111.611 76.089,111.611C75.654,111.611 75.364,111.848 75.219,112.322C75.078,112.8 75.008,113.76 75.008,115.202C75.008,116.531 75.082,117.452 75.231,117.965C75.384,118.451 75.67,118.694 76.089,118.694C76.501,118.694 76.783,118.467 76.936,118.012C77.089,117.561 77.165,116.729 77.165,115.514L77.165,115.514Z" style="fill:rgb(158,161,168);fill-rule:nonzero;"/>
            <path id="path1241" d="M85.718,110.77L85.718,111.869C85.404,111.716 85.142,111.64 84.93,111.64C84.64,111.64 84.391,111.712 84.184,111.857C83.976,111.999 83.803,112.218 83.666,112.516C83.533,112.814 83.433,113.192 83.366,113.65C83.304,114.105 83.272,114.644 83.272,115.267C83.272,117.508 83.847,118.629 84.995,118.629C85.195,118.629 85.436,118.567 85.718,118.441L85.718,119.564C85.424,119.728 85.095,119.811 84.73,119.811C82.892,119.811 81.973,118.31 81.973,115.308C81.973,113.686 82.197,112.479 82.643,111.687C83.094,110.895 83.782,110.5 84.707,110.5C85.048,110.5 85.385,110.59 85.718,110.77L85.718,110.77Z" style="fill:rgb(158,161,168);fill-rule:nonzero;"/>
            <path id="path1243" d="M86.018,110.623L87.223,110.623L87.769,113.974L87.863,114.579L88.057,115.896C88.089,116.119 88.116,116.323 88.14,116.507C88.167,116.691 88.191,116.858 88.21,117.007L88.269,117.454C88.281,117.363 88.291,117.283 88.298,117.213C88.306,117.142 88.314,117.083 88.322,117.036L88.481,115.984L88.686,114.603C88.706,114.477 88.724,114.362 88.739,114.256C88.759,114.15 88.776,114.056 88.792,113.974L89.38,110.623L90.52,110.623L88.739,119.699L87.769,119.699L86.018,110.623Z" style="fill:rgb(158,161,168);fill-rule:nonzero;"/>
            <path id="path1245" d="M93.677,110.623L94.9,110.623L94.9,114.174L96.692,114.174L96.692,110.623L97.915,110.623L97.915,119.699L96.692,119.699L96.692,115.208L94.9,115.208L94.9,119.699L93.677,119.699L93.677,110.623Z" style="fill:rgb(158,161,168);fill-rule:nonzero;"/>
            <path id="path1247" d="M103.864,115.384C103.864,116.987 103.686,118.126 103.329,118.8C102.972,119.474 102.375,119.811 101.536,119.811C100.654,119.811 100.033,119.448 99.673,118.723C99.316,118.014 99.138,116.754 99.138,114.944C99.138,113.329 99.314,112.187 99.667,111.517C100.023,110.843 100.627,110.505 101.477,110.505C102.238,110.505 102.802,110.766 103.17,111.287C103.413,111.636 103.59,112.132 103.699,112.774C103.809,113.37 103.864,114.24 103.864,115.384L103.864,115.384ZM102.582,115.514C102.582,113.942 102.512,112.9 102.371,112.387C102.23,111.869 101.942,111.611 101.507,111.611C101.072,111.611 100.782,111.848 100.637,112.322C100.496,112.8 100.425,113.76 100.425,115.202C100.425,116.531 100.5,117.452 100.649,117.965C100.801,118.451 101.087,118.694 101.507,118.694C101.918,118.694 102.2,118.467 102.353,118.012C102.506,117.561 102.582,116.729 102.582,115.514L102.582,115.514Z" style="fill:rgb(158,161,168);fill-rule:nonzero;"/>
            <path id="path1249" d="M108.108,110.811L108.108,112.004C107.736,111.738 107.401,111.605 107.103,111.605C106.782,111.605 106.519,111.718 106.315,111.946C106.111,112.161 106.01,112.449 106.01,112.81C106.01,113.127 106.082,113.4 106.227,113.627C106.302,113.748 106.423,113.905 106.592,114.097C106.764,114.289 106.985,114.52 107.256,114.791C107.753,115.296 108.092,115.733 108.273,116.102C108.453,116.458 108.543,116.895 108.543,117.412C108.543,118.114 108.345,118.692 107.949,119.147C107.554,119.589 107.046,119.811 106.427,119.811C105.906,119.811 105.461,119.668 105.093,119.382L105.093,118.171C105.528,118.488 105.923,118.647 106.28,118.647C106.613,118.647 106.874,118.537 107.062,118.318C107.25,118.094 107.344,117.793 107.344,117.412C107.344,117.083 107.271,116.787 107.126,116.525C107.052,116.399 106.948,116.256 106.815,116.096C106.682,115.931 106.515,115.749 106.315,115.549C106.006,115.243 105.749,114.973 105.545,114.738C105.341,114.503 105.19,114.297 105.093,114.121C104.904,113.776 104.81,113.341 104.81,112.816C104.81,112.106 104.995,111.544 105.363,111.129C105.735,110.709 106.235,110.5 106.862,110.5C107.297,110.5 107.712,110.603 108.108,110.811L108.108,110.811Z" style="fill:rgb(158,161,168);fill-rule:nonzero;"/>
            <path id="path1251" d="M108.99,110.623L112.969,110.623L112.969,111.693L111.6,111.693L111.6,119.699L110.401,119.699L110.401,111.693L108.99,111.693L108.99,110.623Z" style="fill:rgb(158,161,168);fill-rule:nonzero;"/>
        </g>
        <g id="text979" transform="matrix(0.81774,0,0,1.22288,0,0)">
            <path id="path1172" d="M12.811,161.9L12.811,163.094C12.47,162.928 12.185,162.845 11.955,162.845C11.639,162.845 11.369,162.924 11.143,163.082C10.918,163.235 10.73,163.473 10.581,163.797C10.436,164.121 10.328,164.532 10.255,165.03C10.187,165.524 10.153,166.11 10.153,166.787C10.153,169.223 10.777,170.441 12.025,170.441C12.242,170.441 12.504,170.373 12.811,170.237L12.811,171.457C12.491,171.636 12.134,171.725 11.737,171.725C9.74,171.725 8.741,170.094 8.741,166.832C8.741,165.068 8.984,163.757 9.469,162.896C9.959,162.036 10.707,161.606 11.712,161.606C12.082,161.606 12.449,161.704 12.811,161.9L12.811,161.9Z" style="fill:rgb(158,161,168);fill-rule:nonzero;"/>
            <path id="path1174" d="M13.137,161.74L14.446,161.74L15.04,165.381L15.143,166.039L15.353,167.471C15.387,167.713 15.417,167.935 15.443,168.135C15.473,168.335 15.498,168.516 15.519,168.678L15.583,169.164C15.596,169.066 15.607,168.978 15.615,168.902C15.624,168.825 15.632,168.761 15.641,168.71L15.813,167.566L16.037,166.065C16.058,165.929 16.077,165.803 16.094,165.688C16.116,165.573 16.135,165.471 16.152,165.381L16.791,161.74L18.03,161.74L16.094,171.604L15.04,171.604L13.137,161.74Z" style="fill:rgb(158,161,168);fill-rule:nonzero;"/>
            <path id="path1176" d="M20.675,161.74L21.985,161.74L22.579,165.381L22.681,166.039L22.892,167.471C22.926,167.713 22.956,167.935 22.981,168.135C23.011,168.335 23.037,168.516 23.058,168.678L23.122,169.164C23.135,169.066 23.145,168.978 23.154,168.902C23.162,168.825 23.171,168.761 23.179,168.71L23.352,167.566L23.575,166.065C23.597,165.929 23.616,165.803 23.633,165.688C23.654,165.573 23.673,165.471 23.69,165.381L24.329,161.74L25.569,161.74L23.633,171.604L22.579,171.604L20.675,161.74Z" style="fill:rgb(158,161,168);fill-rule:nonzero;"/>
            <path id="path1178" d="M31.255,166.915C31.255,168.657 31.061,169.894 30.673,170.627C30.286,171.359 29.636,171.725 28.725,171.725C27.766,171.725 27.091,171.331 26.7,170.543C26.312,169.773 26.118,168.403 26.118,166.436C26.118,164.681 26.31,163.439 26.693,162.711C27.081,161.978 27.737,161.612 28.661,161.612C29.487,161.612 30.1,161.895 30.501,162.462C30.765,162.841 30.956,163.38 31.076,164.078C31.195,164.726 31.255,165.671 31.255,166.915L31.255,166.915ZM29.862,167.055C29.862,165.347 29.785,164.215 29.632,163.657C29.479,163.094 29.166,162.813 28.693,162.813C28.22,162.813 27.905,163.071 27.747,163.586C27.594,164.106 27.517,165.149 27.517,166.717C27.517,168.161 27.598,169.161 27.76,169.719C27.926,170.247 28.237,170.512 28.693,170.512C29.14,170.512 29.447,170.264 29.613,169.77C29.779,169.281 29.862,168.376 29.862,167.055L29.862,167.055Z" style="fill:rgb(158,161,168);fill-rule:nonzero;"/>
            <path id="path1180" d="M32.577,161.74L33.906,161.74L33.906,170.48L36.078,170.48L36.078,171.604L32.577,171.604L32.577,161.74Z" style="fill:rgb(158,161,168);fill-rule:nonzero;"/>
            <path id="path1182" d="M35.905,161.74L40.231,161.74L40.231,162.903L38.742,162.903L38.742,171.604L37.439,171.604L37.439,162.903L35.905,162.903L35.905,161.74Z" style="fill:rgb(158,161,168);fill-rule:nonzero;"/>
            <path id="path1184" d="M42.185,161.74L43.22,161.74L45.335,171.604L44.019,171.604L43.648,169.681L41.694,169.681L41.317,171.604L40.039,171.604L42.185,161.74ZM43.457,168.652L43.163,167.081C42.967,166.012 42.807,164.87 42.684,163.657C42.624,164.249 42.548,164.849 42.454,165.458C42.36,166.063 42.249,166.706 42.122,167.387L41.879,168.652L43.457,168.652Z" style="fill:rgb(158,161,168);fill-rule:nonzero;"/>
            <path id="path1186" d="M48.459,166.416L50.874,166.416L50.874,166.8C50.874,168.721 50.706,170.017 50.369,170.69C50.037,171.38 49.415,171.725 48.504,171.725C47.563,171.725 46.892,171.342 46.491,170.575C46.095,169.809 45.897,168.52 45.897,166.71C45.897,164.64 46.114,163.263 46.549,162.577C46.958,161.934 47.586,161.612 48.434,161.612C49.081,161.612 49.586,161.768 49.948,162.079C50.314,162.394 50.599,162.911 50.804,163.631L49.564,164.148C49.509,163.889 49.447,163.671 49.379,163.497C49.311,163.318 49.236,163.18 49.155,163.082C48.994,162.881 48.751,162.781 48.427,162.781C47.984,162.781 47.682,163.054 47.52,163.599C47.358,164.17 47.277,165.194 47.277,166.672C47.277,168.167 47.36,169.178 47.526,169.707C47.692,170.235 48.005,170.499 48.465,170.499C48.887,170.499 49.183,170.311 49.353,169.937C49.528,169.536 49.615,168.893 49.615,168.007L49.615,167.739L49.615,167.541L48.459,167.541L48.459,166.416Z" style="fill:rgb(158,161,168);fill-rule:nonzero;"/>
            <path id="path1188" d="M52.203,161.74L55.736,161.74L55.736,162.864L53.532,162.864L53.532,165.988L55.487,165.988L55.487,167.113L53.532,167.113L53.532,170.48L55.736,170.48L55.736,171.604L52.203,171.604L52.203,161.74Z" style="fill:rgb(158,161,168);fill-rule:nonzero;"/>
            <path id="path1190" d="M59.665,161.74L61.3,161.74C61.798,161.74 62.218,161.795 62.559,161.906C62.874,162.013 63.155,162.202 63.402,162.475C63.773,162.884 64.037,163.416 64.194,164.072C64.352,164.706 64.431,165.616 64.431,166.8C64.431,167.886 64.343,168.772 64.169,169.457C63.998,170.113 63.717,170.614 63.325,170.959C62.844,171.389 61.982,171.604 60.738,171.604L59.665,171.604L59.665,161.74ZM60.993,170.441C61.803,170.441 62.344,170.196 62.616,169.707C62.897,169.217 63.038,168.265 63.038,166.851C63.038,165.33 62.904,164.285 62.635,163.714C62.367,163.143 61.875,162.858 61.16,162.858L60.993,162.858L60.993,170.441Z" style="fill:rgb(158,161,168);fill-rule:nonzero;"/>
            <path id="path1192" d="M65.747,161.74L69.279,161.74L69.279,162.864L67.075,162.864L67.075,165.988L69.03,165.988L69.03,167.113L67.075,167.113L67.075,170.48L69.279,170.48L69.279,171.604L65.747,171.604L65.747,161.74Z" style="fill:rgb(158,161,168);fill-rule:nonzero;"/>
            <path id="path1194" d="M69.714,161.74L71.024,161.74L71.618,165.381L71.72,166.039L71.931,167.471C71.965,167.713 71.995,167.935 72.02,168.135C72.05,168.335 72.076,168.516 72.097,168.678L72.161,169.164C72.174,169.066 72.184,168.978 72.193,168.902C72.201,168.825 72.21,168.761 72.219,168.71L72.391,167.566L72.615,166.065C72.636,165.929 72.655,165.803 72.672,165.688C72.694,165.573 72.713,165.471 72.73,165.381L73.368,161.74L74.608,161.74L72.672,171.604L71.618,171.604L69.714,161.74Z" style="fill:rgb(158,161,168);fill-rule:nonzero;"/>
            <rect id="path1196" x="75.329" y="161.74" width="1.329" height="9.864" style="fill:rgb(158,161,168);fill-rule:nonzero;"/>
            <path id="path1198" d="M79.597,161.74L80.632,161.74L82.747,171.604L81.431,171.604L81.06,169.681L79.105,169.681L78.728,171.604L77.45,171.604L79.597,161.74ZM80.868,168.652L80.575,167.081C80.379,166.012 80.219,164.87 80.095,163.657C80.036,164.249 79.959,164.849 79.865,165.458C79.772,166.063 79.661,166.706 79.533,167.387L79.29,168.652L80.868,168.652Z" style="fill:rgb(158,161,168);fill-rule:nonzero;"/>
            <path id="path1200" d="M82.542,161.74L86.867,161.74L86.867,162.903L85.379,162.903L85.379,171.604L84.075,171.604L84.075,162.903L82.542,162.903L82.542,161.74Z" style="fill:rgb(158,161,168);fill-rule:nonzero;"/>
            <rect id="path1202" x="87.596" y="161.74" width="1.329" height="9.864" style="fill:rgb(158,161,168);fill-rule:nonzero;"/>
            <path id="path1204" d="M95.396,166.915C95.396,168.657 95.202,169.894 94.815,170.627C94.427,171.359 93.778,171.725 92.866,171.725C91.908,171.725 91.233,171.331 90.841,170.543C90.453,169.773 90.26,168.403 90.26,166.436C90.26,164.681 90.451,163.439 90.835,162.711C91.222,161.978 91.878,161.612 92.802,161.612C93.629,161.612 94.242,161.895 94.642,162.462C94.906,162.841 95.098,163.38 95.217,164.078C95.336,164.726 95.396,165.671 95.396,166.915L95.396,166.915ZM94.003,167.055C94.003,165.347 93.927,164.215 93.773,163.657C93.62,163.094 93.307,162.813 92.834,162.813C92.361,162.813 92.046,163.071 91.889,163.586C91.735,164.106 91.659,165.149 91.659,166.717C91.659,168.161 91.74,169.161 91.901,169.719C92.068,170.247 92.379,170.512 92.834,170.512C93.281,170.512 93.588,170.264 93.754,169.77C93.92,169.281 94.003,168.376 94.003,167.055L94.003,167.055Z" style="fill:rgb(158,161,168);fill-rule:nonzero;"/>
            <path id="path1206" d="M96.718,161.74L97.958,161.74L99.28,165.675C99.664,166.787 100.002,167.973 100.296,169.234C100.19,168.471 100.111,167.781 100.06,167.164C100.009,166.546 99.983,165.965 99.983,165.42L99.983,161.74L101.318,161.74L101.318,171.604L100.073,171.604L98.584,167.164C98.448,166.751 98.318,166.327 98.194,165.893C98.075,165.458 97.964,165.002 97.862,164.525C97.853,164.466 97.839,164.393 97.817,164.308C97.8,164.223 97.779,164.125 97.753,164.014C97.766,164.125 97.777,164.221 97.786,164.302C97.794,164.378 97.801,164.444 97.805,164.5L97.875,165.503L97.945,166.723C97.95,166.791 97.952,166.874 97.952,166.972C97.956,167.07 97.958,167.181 97.958,167.304L98.028,171.604L96.719,171.604L96.718,161.74Z" style="fill:rgb(158,161,168);fill-rule:nonzero;"/>
        </g>
        <path id="circle981" d="M56,174L56,174C56,180.034 51.034,185 45,185L45,185C38.966,185 34,180.034 34,174L34,174C34,167.966 38.966,163 45,163C51.034,163 56,167.966 56,174Z" style="fill-opacity:0.6;fill-rule:nonzero;"/>
        <g id="text1012" transform="matrix(0.788528,0,0,1.26818,0,0)">
            <path id="path1137" d="M15.852,195.389L17.54,195.389C18.353,195.389 18.945,195.594 19.314,196.005C19.684,196.42 19.869,197.077 19.869,197.976C19.869,199.241 19.497,200.058 18.754,200.428C18.38,200.596 17.84,200.68 17.134,200.68L17.134,204.9L15.852,204.9L15.852,195.389ZM17.134,199.584C17.663,199.584 18.029,199.477 18.23,199.264C18.436,199.046 18.538,198.66 18.538,198.105C18.538,197.539 18.44,197.124 18.243,196.861C18.045,196.598 17.735,196.467 17.312,196.467L17.134,196.467L17.134,199.584Z" style="fill:rgb(158,161,168);fill-rule:nonzero;"/>
            <rect id="path1139" x="20.855" y="195.389" width="1.281" height="9.512" style="fill:rgb(158,161,168);fill-rule:nonzero;"/>
            <path id="path1141" d="M22.857,195.389L27.027,195.389L27.027,196.51L25.592,196.51L25.592,204.9L24.335,204.9L24.335,196.51L22.857,196.51L22.857,195.389Z" style="fill:rgb(158,161,168);fill-rule:nonzero;"/>
            <path id="path1143" d="M31.463,195.543L31.463,196.695C31.134,196.535 30.859,196.454 30.637,196.454C30.333,196.454 30.073,196.53 29.855,196.682C29.637,196.83 29.456,197.06 29.313,197.372C29.173,197.685 29.068,198.081 28.999,198.561C28.933,199.038 28.9,199.602 28.9,200.255C28.9,202.605 29.502,203.779 30.705,203.779C30.914,203.779 31.167,203.713 31.463,203.582L31.463,204.759C31.155,204.931 30.81,205.017 30.428,205.017C28.502,205.017 27.539,203.444 27.539,200.299C27.539,198.598 27.773,197.333 28.241,196.504C28.713,195.674 29.434,195.259 30.403,195.259C30.76,195.259 31.114,195.354 31.463,195.543L31.463,195.543Z" style="fill:rgb(158,161,168);fill-rule:nonzero;"/>
            <path id="path1145" d="M32.535,195.389L33.816,195.389L33.816,199.11L35.695,199.11L35.695,195.389L36.976,195.389L36.976,204.9L35.695,204.9L35.695,200.194L33.816,200.194L33.816,204.9L32.535,204.9L32.535,195.389Z" style="fill:rgb(158,161,168);fill-rule:nonzero;"/>
            <path id="path1147" d="M41.061,195.389L42.798,195.389C44.157,195.389 44.837,196.233 44.837,197.921C44.837,198.565 44.749,199.044 44.572,199.356C44.395,199.668 44.083,199.904 43.636,200.064C44.149,200.27 44.5,200.533 44.689,200.853C44.882,201.169 44.979,201.646 44.979,202.282C44.979,204.028 44.231,204.9 42.736,204.9L41.061,204.9L41.061,195.389ZM42.268,199.578C42.765,199.578 43.11,199.463 43.303,199.233C43.496,198.99 43.593,198.565 43.593,197.958C43.593,196.931 43.223,196.417 42.484,196.417L42.385,196.417L42.33,196.417C42.297,196.417 42.276,196.42 42.268,196.424L42.268,199.578ZM42.268,203.804C42.794,203.804 43.157,203.691 43.358,203.465C43.56,203.239 43.66,202.83 43.66,202.239C43.66,201.631 43.556,201.206 43.346,200.964C43.141,200.717 42.781,200.594 42.268,200.594L42.268,203.804Z" style="fill:rgb(158,161,168);fill-rule:nonzero;"/>
            <path id="path1149" d="M46.26,195.389L49.667,195.389L49.667,196.473L47.541,196.473L47.541,199.485L49.426,199.485L49.426,200.57L47.541,200.57L47.541,203.816L49.667,203.816L49.667,204.9L46.26,204.9L46.26,195.389Z" style="fill:rgb(158,161,168);fill-rule:nonzero;"/>
            <path id="path1151" d="M50.843,195.389L52.038,195.389L53.314,199.184C53.683,200.255 54.01,201.399 54.293,202.615C54.19,201.88 54.114,201.214 54.065,200.619C54.016,200.023 53.991,199.463 53.991,198.937L53.991,195.389L55.279,195.389L55.279,204.9L54.077,204.9L52.642,200.619C52.511,200.221 52.385,199.812 52.266,199.393C52.151,198.974 52.044,198.535 51.946,198.075C51.938,198.017 51.923,197.947 51.903,197.865C51.886,197.783 51.866,197.689 51.841,197.582C51.854,197.689 51.864,197.781 51.872,197.859C51.88,197.933 51.886,197.997 51.89,198.05L51.958,199.017L52.026,200.194C52.03,200.26 52.032,200.34 52.032,200.434C52.036,200.529 52.038,200.635 52.038,200.754L52.106,204.9L50.843,204.9L50.843,195.389Z" style="fill:rgb(158,161,168);fill-rule:nonzero;"/>
            <path id="path1153" d="M56.757,195.389L58.334,195.389C58.815,195.389 59.219,195.442 59.548,195.549C59.852,195.652 60.123,195.834 60.361,196.097C60.718,196.491 60.973,197.005 61.125,197.637C61.277,198.249 61.353,199.126 61.353,200.268C61.353,201.315 61.269,202.169 61.1,202.83C60.936,203.463 60.665,203.945 60.287,204.278C59.823,204.693 58.991,204.9 57.792,204.9L56.757,204.9L56.757,195.389ZM58.039,203.779C58.819,203.779 59.34,203.543 59.603,203.071C59.874,202.598 60.01,201.681 60.01,200.317C60.01,198.851 59.881,197.843 59.622,197.292C59.363,196.742 58.889,196.467 58.199,196.467L58.039,196.467L58.039,203.779Z" style="fill:rgb(158,161,168);fill-rule:nonzero;"/>
            <path id="path1155" d="M64.476,195.389L65.739,195.389L66.312,198.9L66.411,199.535L66.614,200.915C66.647,201.149 66.675,201.362 66.7,201.555C66.729,201.748 66.753,201.923 66.774,202.079L66.836,202.547C66.848,202.453 66.858,202.368 66.867,202.294C66.875,202.221 66.883,202.159 66.891,202.11L67.058,201.007L67.273,199.559C67.294,199.428 67.312,199.307 67.329,199.196C67.349,199.085 67.367,198.986 67.384,198.9L68,195.389L69.195,195.389L67.329,204.9L66.312,204.9L64.476,195.389Z" style="fill:rgb(158,161,168);fill-rule:nonzero;"/>
            <path id="path1158" d="M74.678,200.379C74.678,202.058 74.491,203.251 74.117,203.958C73.743,204.664 73.117,205.017 72.238,205.017C71.314,205.017 70.663,204.638 70.285,203.878C69.912,203.134 69.725,201.814 69.725,199.917C69.725,198.225 69.91,197.027 70.279,196.325C70.653,195.619 71.285,195.266 72.177,195.266C72.973,195.266 73.565,195.539 73.951,196.085C74.205,196.45 74.39,196.97 74.505,197.643C74.62,198.268 74.678,199.179 74.678,200.379L74.678,200.379ZM73.335,200.514C73.335,198.867 73.261,197.775 73.113,197.237C72.965,196.695 72.663,196.424 72.207,196.424C71.752,196.424 71.448,196.672 71.296,197.169C71.148,197.67 71.074,198.676 71.074,200.188C71.074,201.58 71.152,202.545 71.308,203.083C71.468,203.592 71.768,203.847 72.207,203.847C72.639,203.847 72.934,203.609 73.095,203.132C73.255,202.66 73.335,201.787 73.335,200.514Z" style="fill:rgb(158,161,168);fill-rule:nonzero;"/>
            <path id="path1160" d="M75.953,195.389L77.234,195.389L77.234,203.816L79.329,203.816L79.329,204.9L75.953,204.9L75.953,195.389Z" style="fill:rgb(158,161,168);fill-rule:nonzero;"/>
            <path id="path1162" d="M79.163,195.389L83.333,195.389L83.333,196.51L81.898,196.51L81.898,204.9L80.641,204.9L80.641,196.51L79.163,196.51L79.163,195.389Z" style="fill:rgb(158,161,168);fill-rule:nonzero;"/>
            <path id="path1164" d="M85.218,195.389L86.216,195.389L88.255,204.9L86.986,204.9L86.629,203.046L84.744,203.046L84.38,204.9L83.148,204.9L85.218,195.389ZM86.444,202.054L86.161,200.539C85.972,199.508 85.818,198.407 85.699,197.237C85.641,197.808 85.567,198.387 85.477,198.974C85.387,199.557 85.28,200.177 85.157,200.834L84.922,202.054L86.444,202.054Z" style="fill:rgb(158,161,168);fill-rule:nonzero;"/>
            <path id="path1166" d="M91.268,199.898L93.596,199.898L93.596,200.268C93.596,202.12 93.434,203.371 93.11,204.019C92.789,204.685 92.19,205.017 91.311,205.017C90.403,205.017 89.756,204.648 89.37,203.909C88.988,203.169 88.797,201.927 88.797,200.182C88.797,198.186 89.007,196.857 89.426,196.196C89.82,195.576 90.426,195.266 91.243,195.266C91.867,195.266 92.354,195.415 92.703,195.715C93.056,196.019 93.331,196.518 93.529,197.212L92.333,197.711C92.28,197.461 92.22,197.251 92.155,197.083C92.089,196.91 92.017,196.777 91.939,196.682C91.783,196.489 91.549,196.393 91.237,196.393C90.81,196.393 90.518,196.656 90.362,197.181C90.206,197.732 90.128,198.719 90.128,200.145C90.128,201.586 90.208,202.561 90.368,203.071C90.528,203.58 90.83,203.835 91.274,203.835C91.68,203.835 91.966,203.654 92.13,203.292C92.299,202.906 92.383,202.286 92.383,201.432L92.383,201.173L92.383,200.982L91.268,200.982L91.268,199.898Z" style="fill:rgb(158,161,168);fill-rule:nonzero;"/>
            <path id="path1168" d="M94.878,195.389L98.284,195.389L98.284,196.473L96.159,196.473L96.159,199.485L98.044,199.485L98.044,200.57L96.159,200.57L96.159,203.816L98.284,203.816L98.284,204.9L94.878,204.9L94.878,195.389Z" style="fill:rgb(158,161,168);fill-rule:nonzero;"/>
        </g>
        <g id="g1071" transform="matrix(1,0,0,1,-0.462215,-25.298)">
            <g id="g1044" transform="matrix(0.5,0,0,0.5,-55.8651,164.398)">
                <g id="g1038">
                    <path id="rect1030" d="M146.354,264L149.646,264C149.842,264 150,264.158 150,264.354L150,279.646C150,279.842 149.842,280 149.646,280L146.354,280C146.158,280 146,279.842 146,279.646L146,264.354C146,264.158 146.158,264 146.354,264Z" style="fill:rgb(158,161,168);fill-rule:nonzero;"/>
                    <path id="rect1032" d="M140.088,270L155.912,270C155.961,270 156,270.039 156,270.088L156,273.912C156,273.961 155.961,274 155.912,274L140.088,274C140.039,274 140,273.961 140,273.912L140,270.088C140,270.039 140.039,270 140.088,270Z" style="fill:rgb(158,161,168);fill-rule:nonzero;"/>
                </g>
                <path id="rect1034" d="M160.088,270L175.912,270C175.961,270 176,270.039 176,270.088L176,273.912C176,273.961 175.961,274 175.912,274L160.088,274C160.039,274 160,273.961 160,273.912L160,270.088C160,270.039 160.039,270 160.088,270Z" style="fill:rgb(158,161,168);fill-rule:nonzero;"/>
            </g>
            <g id="text1048" transform="matrix(0.788528,0,0,1.26818,0,0)">
                <path id="path1114" d="M46.782,231.126L48.95,231.126L48.95,240.638L47.725,240.638L47.725,232.216L46.782,232.216L46.782,231.126Z" style="fill:rgb(158,161,168);fill-rule:nonzero;"/>
                <path id="path1116" d="M51.975,234.218L50.718,234.218L50.706,233.843C50.706,232.804 50.862,232.073 51.174,231.65C51.49,231.222 52.02,231.009 52.764,231.009C54.164,231.009 54.864,231.785 54.864,233.338C54.864,234.385 54.341,235.894 53.293,237.865L52.536,239.288C52.532,239.297 52.519,239.321 52.499,239.362C52.478,239.403 52.449,239.463 52.412,239.541L54.766,239.541L54.766,240.638L50.589,240.638C50.659,240.482 50.805,240.171 51.026,239.707C51.248,239.243 51.55,238.617 51.932,237.828C52.256,237.139 52.527,236.553 52.745,236.073C52.963,235.592 53.127,235.198 53.238,234.89C53.46,234.274 53.571,233.742 53.571,233.294C53.571,232.506 53.297,232.112 52.751,232.112C52.226,232.112 51.963,232.6 51.963,233.578L51.969,234.12L51.975,234.218Z" style="fill:rgb(158,161,168);fill-rule:nonzero;"/>
                <path id="path1118" d="M61.08,234.391L61.08,235.494C60.793,235.28 60.491,235.173 60.175,235.173C60.068,235.173 59.969,235.192 59.879,235.229C59.789,235.266 59.709,235.317 59.639,235.383C59.573,235.444 59.52,235.52 59.479,235.611C59.442,235.697 59.423,235.789 59.423,235.888C59.423,236.192 59.698,236.553 60.249,236.972C60.47,237.145 60.655,237.305 60.803,237.453C60.951,237.601 61.064,237.74 61.142,237.872C61.302,238.13 61.382,238.457 61.382,238.851C61.382,239.422 61.216,239.88 60.883,240.225C60.555,240.566 60.113,240.736 59.559,240.736C59.218,240.736 58.873,240.636 58.524,240.434L58.524,239.295C58.865,239.549 59.187,239.677 59.491,239.677C60.029,239.677 60.298,239.412 60.298,238.882C60.298,238.685 60.249,238.514 60.15,238.371C60.105,238.301 60.033,238.221 59.934,238.13C59.836,238.036 59.715,237.931 59.571,237.816C59.074,237.43 58.737,237.106 58.561,236.843C58.388,236.572 58.302,236.245 58.302,235.863C58.302,235.35 58.46,234.929 58.776,234.6C59.097,234.276 59.513,234.114 60.027,234.114C60.388,234.114 60.739,234.206 61.08,234.391L61.08,234.391Z" style="fill:rgb(158,161,168);fill-rule:nonzero;"/>
                <path id="path1120" d="M64.801,238.488L65.898,238.488C65.811,239.987 65.195,240.736 64.05,240.736C63.709,240.736 63.415,240.673 63.169,240.545C62.926,240.418 62.725,240.221 62.565,239.954C62.405,239.687 62.286,239.348 62.208,238.937C62.134,238.527 62.097,238.038 62.097,237.471C62.097,236.346 62.253,235.512 62.565,234.97C62.881,234.428 63.368,234.157 64.025,234.157C65.302,234.157 65.941,235.282 65.941,237.533L65.941,237.681L63.249,237.681C63.249,239.044 63.52,239.726 64.062,239.726C64.555,239.726 64.801,239.313 64.801,238.488L64.801,238.488ZM64.74,236.83C64.69,236.161 64.614,235.722 64.512,235.512C64.405,235.278 64.232,235.161 63.994,235.161C63.752,235.161 63.579,235.278 63.477,235.512C63.374,235.722 63.298,236.161 63.249,236.83L64.74,236.83Z" style="fill:rgb(158,161,168);fill-rule:nonzero;"/>
                <path id="path1122" d="M66.994,234.262L68.171,234.262L68.171,235.05C68.495,234.455 68.927,234.157 69.465,234.157C70.052,234.157 70.45,234.455 70.66,235.05C70.972,234.455 71.415,234.157 71.99,234.157C72.438,234.157 72.779,234.276 73.013,234.514C73.251,234.748 73.37,235.095 73.37,235.555L73.37,240.638L72.187,240.638L72.187,236.442C72.187,235.962 72.142,235.639 72.052,235.475C71.966,235.307 71.797,235.223 71.547,235.223C71.263,235.223 71.07,235.309 70.968,235.481C70.869,235.65 70.82,235.97 70.82,236.442L70.82,240.638L69.6,240.638L69.6,236.442C69.6,236.217 69.588,236.026 69.563,235.869C69.543,235.713 69.506,235.588 69.452,235.494C69.399,235.399 69.329,235.331 69.243,235.29C69.156,235.245 69.05,235.223 68.922,235.223C68.651,235.223 68.458,235.315 68.343,235.5C68.228,235.685 68.171,235.999 68.171,236.442L68.171,240.638L66.994,240.638L66.994,234.262Z" style="fill:rgb(158,161,168);fill-rule:nonzero;"/>
                <path id="path1124" d="M74.707,234.262L75.89,234.262L75.89,240.638L74.707,240.638L74.707,234.262ZM75.261,231.551C75.475,231.551 75.66,231.629 75.816,231.785C75.972,231.941 76.05,232.128 76.05,232.346C76.05,232.568 75.972,232.756 75.816,232.912C75.66,233.069 75.471,233.147 75.249,233.147C75.027,233.147 74.838,233.069 74.682,232.912C74.53,232.761 74.454,232.57 74.454,232.34C74.454,232.126 74.532,231.941 74.689,231.785C74.857,231.629 75.048,231.551 75.261,231.551Z" style="fill:rgb(158,161,168);fill-rule:nonzero;"/>
                <path id="path1126" d="M77.362,232.475L78.539,232.475L78.539,234.262L79.179,234.262L79.179,235.198L78.539,235.198L78.539,240.638L77.362,240.638L77.362,235.198L76.715,235.198L76.715,234.262L77.362,234.262L77.362,232.475Z" style="fill:rgb(158,161,168);fill-rule:nonzero;"/>
                <path id="path1128" d="M83.769,237.502C83.769,239.658 83.102,240.736 81.767,240.736C80.432,240.736 79.765,239.642 79.765,237.453C79.765,235.255 80.43,234.157 81.761,234.157C82.106,234.157 82.403,234.223 82.654,234.354C82.909,234.485 83.118,234.689 83.282,234.964C83.447,235.239 83.568,235.586 83.646,236.005C83.728,236.424 83.769,236.923 83.769,237.502L83.769,237.502ZM82.549,237.471C82.549,236.633 82.494,236.05 82.383,235.721C82.272,235.389 82.075,235.222 81.791,235.222C81.512,235.222 81.313,235.387 81.194,235.715C81.083,236.044 81.028,236.617 81.028,237.434C81.028,238.251 81.083,238.822 81.194,239.147C81.313,239.475 81.512,239.639 81.791,239.639C82.071,239.639 82.266,239.477 82.377,239.153C82.492,238.849 82.549,238.288 82.549,237.471Z" style="fill:rgb(158,161,168);fill-rule:nonzero;"/>
                <path id="path1130" d="M84.859,234.262L86.036,234.262L86.036,234.995C86.373,234.436 86.808,234.157 87.342,234.157C87.859,234.157 88.229,234.36 88.451,234.767C88.574,234.997 88.636,235.442 88.636,236.104L88.636,240.638L87.459,240.638L87.453,236.375C87.453,235.943 87.402,235.637 87.299,235.457C87.196,235.276 87.02,235.186 86.769,235.186C86.634,235.186 86.519,235.21 86.424,235.26C86.334,235.305 86.26,235.381 86.202,235.488C86.145,235.59 86.102,235.726 86.073,235.894C86.048,236.063 86.036,236.27 86.036,236.516L86.036,240.638L84.859,240.638L84.859,234.262Z" style="fill:rgb(158,161,168);fill-rule:nonzero;"/>
                <path id="path1132" d="M92.424,238.488L93.521,238.488C93.435,239.987 92.819,240.736 91.673,240.736C91.332,240.736 91.038,240.673 90.792,240.545C90.549,240.418 90.348,240.221 90.188,239.954C90.028,239.687 89.909,239.348 89.831,238.937C89.757,238.527 89.72,238.038 89.72,237.471C89.72,236.346 89.876,235.512 90.188,234.97C90.504,234.428 90.991,234.157 91.648,234.157C92.925,234.157 93.564,235.282 93.564,237.533L93.564,237.681L90.872,237.681C90.872,239.044 91.143,239.726 91.685,239.726C92.178,239.726 92.424,239.313 92.424,238.488L92.424,238.488ZM92.363,236.83C92.313,236.161 92.237,235.722 92.135,235.512C92.028,235.278 91.855,235.161 91.617,235.161C91.375,235.161 91.202,235.278 91.1,235.512C90.997,235.722 90.921,236.161 90.872,236.83L92.363,236.83Z" style="fill:rgb(158,161,168);fill-rule:nonzero;"/>
                <path id="path1134" d="M97.082,234.391L97.082,235.494C96.794,235.28 96.492,235.173 96.176,235.173C96.069,235.173 95.971,235.192 95.88,235.229C95.79,235.266 95.71,235.317 95.64,235.383C95.574,235.444 95.521,235.52 95.48,235.611C95.443,235.697 95.424,235.789 95.424,235.888C95.424,236.192 95.699,236.553 96.25,236.972C96.472,237.145 96.656,237.305 96.804,237.453C96.952,237.601 97.065,237.74 97.143,237.872C97.303,238.13 97.383,238.457 97.383,238.851C97.383,239.422 97.217,239.88 96.884,240.225C96.556,240.566 96.114,240.736 95.56,240.736C95.219,240.736 94.874,240.636 94.525,240.434L94.525,239.295C94.866,239.549 95.188,239.677 95.492,239.677C96.03,239.677 96.299,239.412 96.299,238.882C96.299,238.685 96.25,238.514 96.151,238.371C96.106,238.301 96.034,238.221 95.936,238.13C95.837,238.036 95.716,237.931 95.572,237.816C95.075,237.43 94.738,237.106 94.562,236.843C94.389,236.572 94.303,236.245 94.303,235.863C94.303,235.35 94.461,234.929 94.777,234.6C95.098,234.276 95.515,234.114 96.028,234.114C96.389,234.114 96.741,234.206 97.081,234.391L97.082,234.391Z" style="fill:rgb(158,161,168);fill-rule:nonzero;"/>
            </g>
        </g>
        <g id="g1080" transform="matrix(1,0,0,1,2.80212,-15.2977)">
            <g id="g1058" transform="matrix(0.5,0,0,0.5,-55.8651,204.398)">
                <g id="g1054">
                    <path id="rect1050" d="M146.354,264L149.646,264C149.842,264 150,264.158 150,264.354L150,279.646C150,279.842 149.842,280 149.646,280L146.354,280C146.158,280 146,279.842 146,279.646L146,264.354C146,264.158 146.158,264 146.354,264Z" style="fill:rgb(158,161,168);fill-rule:nonzero;"/>
                    <path id="rect1052" d="M140.088,270L155.912,270C155.961,270 156,270.039 156,270.088L156,273.912C156,273.961 155.961,274 155.912,274L140.088,274C140.039,274 140,273.961 140,273.912L140,270.088C140,270.039 140.039,270 140.088,270Z" style="fill:rgb(158,161,168);fill-rule:nonzero;"/>
                </g>
                <path id="rect1056" d="M160.088,270L175.912,270C175.961,270 176,270.039 176,270.088L176,273.912C176,273.961 175.961,274 175.912,274L160.088,274C160.039,274 160,273.961 160,273.912L160,270.088C160,270.039 160.039,270 160.088,270Z" style="fill:rgb(158,161,168);fill-rule:nonzero;"/>
            </g>
            <g id="text1062" transform="matrix(0.788528,0,0,1.26818,0,0)">
                <path id="path1091" d="M46.782,262.667L48.95,262.667L48.95,272.179L47.725,272.179L47.725,263.757L46.782,263.757L46.782,262.667Z" style="fill:rgb(158,161,168);fill-rule:nonzero;"/>
                <path id="path1093" d="M56.62,265.932L56.62,267.035C56.333,266.821 56.031,266.714 55.715,266.714C55.608,266.714 55.509,266.733 55.419,266.77C55.328,266.807 55.248,266.858 55.179,266.924C55.113,266.985 55.059,267.061 55.018,267.152C54.981,267.238 54.963,267.33 54.963,267.429C54.963,267.733 55.238,268.094 55.788,268.513C56.01,268.686 56.195,268.846 56.343,268.994C56.491,269.141 56.604,269.281 56.682,269.413C56.842,269.671 56.922,269.998 56.922,270.392C56.922,270.963 56.756,271.421 56.423,271.766C56.094,272.107 55.653,272.277 55.099,272.277C54.758,272.277 54.413,272.176 54.064,271.975L54.064,270.836C54.404,271.09 54.727,271.217 55.031,271.217C55.569,271.217 55.838,270.953 55.838,270.423C55.838,270.226 55.788,270.055 55.69,269.911C55.645,269.842 55.573,269.762 55.474,269.671C55.376,269.577 55.255,269.472 55.111,269.357C54.614,268.971 54.277,268.647 54.101,268.384C53.928,268.113 53.842,267.786 53.842,267.404C53.842,266.891 54,266.47 54.316,266.141C54.636,265.817 55.053,265.655 55.567,265.655C55.928,265.655 56.279,265.747 56.62,265.932L56.62,265.932Z" style="fill:rgb(158,161,168);fill-rule:nonzero;"/>
                <path id="path1096" d="M60.341,270.029L61.438,270.029C61.351,271.528 60.735,272.277 59.589,272.277C59.249,272.277 58.955,272.213 58.709,272.086C58.466,271.959 58.265,271.762 58.105,271.495C57.945,271.228 57.826,270.889 57.747,270.478C57.674,270.068 57.637,269.579 57.637,269.012C57.637,267.887 57.793,267.053 58.105,266.511C58.421,265.969 58.908,265.698 59.565,265.698C60.842,265.698 61.481,266.823 61.481,269.074L61.481,269.222L58.789,269.222C58.789,270.585 59.06,271.267 59.602,271.267C60.095,271.267 60.341,270.854 60.341,270.029L60.341,270.029ZM60.279,268.371C60.23,267.702 60.154,267.263 60.051,267.053C59.945,266.819 59.772,266.702 59.534,266.702C59.292,266.702 59.119,266.819 59.017,267.053C58.914,267.263 58.838,267.702 58.789,268.371L60.279,268.371Z" style="fill:rgb(158,161,168);fill-rule:nonzero;"/>
                <path id="path1098" d="M62.534,265.803L63.711,265.803L63.711,266.591C64.035,265.996 64.466,265.698 65.004,265.698C65.592,265.698 65.99,265.996 66.2,266.591C66.512,265.996 66.955,265.698 67.53,265.698C67.978,265.698 68.319,265.817 68.553,266.055C68.791,266.289 68.91,266.636 68.91,267.096L68.91,272.179L67.727,272.179L67.727,267.983C67.727,267.503 67.682,267.18 67.592,267.016C67.506,266.848 67.337,266.764 67.087,266.764C66.803,266.764 66.61,266.85 66.508,267.022C66.409,267.191 66.36,267.511 66.36,267.983L66.36,272.179L65.14,272.179L65.14,267.983C65.14,267.757 65.128,267.566 65.103,267.41C65.082,267.254 65.046,267.129 64.992,267.035C64.939,266.94 64.869,266.872 64.783,266.831C64.696,266.786 64.59,266.764 64.462,266.764C64.191,266.764 63.998,266.856 63.883,267.041C63.768,267.226 63.711,267.54 63.711,267.983L63.711,272.179L62.534,272.179L62.534,265.803Z" style="fill:rgb(158,161,168);fill-rule:nonzero;"/>
                <path id="path1100" d="M70.247,265.803L71.43,265.803L71.43,272.179L70.247,272.179L70.247,265.803ZM70.801,263.092C71.015,263.092 71.2,263.17 71.356,263.326C71.512,263.482 71.59,263.669 71.59,263.887C71.59,264.108 71.512,264.297 71.356,264.453C71.2,264.609 71.011,264.688 70.789,264.688C70.567,264.688 70.378,264.609 70.222,264.453C70.07,264.301 69.994,264.11 69.994,263.88C69.994,263.667 70.072,263.482 70.228,263.326C70.397,263.17 70.588,263.092 70.801,263.092Z" style="fill:rgb(158,161,168);fill-rule:nonzero;"/>
                <path id="path1102" d="M72.902,264.016L74.079,264.016L74.079,265.803L74.719,265.803L74.719,266.739L74.079,266.739L74.079,272.179L72.902,272.179L72.902,266.739L72.255,266.739L72.255,265.803L72.902,265.803L72.902,264.016Z" style="fill:rgb(158,161,168);fill-rule:nonzero;"/>
                <path id="path1104" d="M79.309,269.043C79.309,271.199 78.641,272.277 77.307,272.277C75.972,272.277 75.305,271.183 75.305,268.994C75.305,266.796 75.97,265.698 77.301,265.698C77.646,265.698 77.943,265.764 78.194,265.895C78.448,266.026 78.658,266.23 78.822,266.505C78.986,266.78 79.108,267.127 79.186,267.546C79.268,267.965 79.309,268.464 79.309,269.043L79.309,269.043ZM78.089,269.012C78.089,268.174 78.034,267.591 77.923,267.262C77.812,266.93 77.615,266.763 77.331,266.763C77.052,266.763 76.853,266.928 76.734,267.256C76.623,267.585 76.567,268.158 76.567,268.975C76.567,269.792 76.623,270.363 76.734,270.688C76.853,271.016 77.052,271.18 77.331,271.18C77.611,271.18 77.806,271.018 77.917,270.694C78.032,270.39 78.089,269.829 78.089,269.012Z" style="fill:rgb(158,161,168);fill-rule:nonzero;"/>
                <path id="path1106" d="M80.399,265.803L81.576,265.803L81.576,266.536C81.913,265.977 82.348,265.698 82.882,265.698C83.399,265.698 83.769,265.901 83.991,266.308C84.114,266.538 84.176,266.983 84.176,267.644L84.176,272.179L82.999,272.179L82.993,267.916C82.993,267.484 82.941,267.178 82.839,266.998C82.736,266.817 82.56,266.727 82.309,266.727C82.173,266.727 82.058,266.751 81.964,266.8C81.874,266.846 81.8,266.922 81.742,267.028C81.685,267.131 81.642,267.267 81.613,267.435C81.588,267.603 81.576,267.811 81.576,268.057L81.576,272.179L80.399,272.179L80.399,265.803Z" style="fill:rgb(158,161,168);fill-rule:nonzero;"/>
                <path id="path1108" d="M87.964,270.029L89.061,270.029C88.974,271.528 88.358,272.277 87.213,272.277C86.872,272.277 86.578,272.213 86.332,272.086C86.089,271.959 85.888,271.762 85.728,271.495C85.568,271.228 85.449,270.889 85.371,270.478C85.297,270.068 85.26,269.579 85.26,269.012C85.26,267.887 85.416,267.053 85.728,266.511C86.044,265.969 86.531,265.698 87.188,265.698C88.465,265.698 89.104,266.823 89.104,269.074L89.104,269.222L86.412,269.222C86.412,270.585 86.683,271.267 87.225,271.267C87.718,271.267 87.964,270.854 87.964,270.029L87.964,270.029ZM87.903,268.371C87.853,267.702 87.777,267.263 87.675,267.053C87.568,266.819 87.395,266.702 87.157,266.702C86.915,266.702 86.742,266.819 86.64,267.053C86.537,267.263 86.461,267.702 86.412,268.371L87.903,268.371Z" style="fill:rgb(158,161,168);fill-rule:nonzero;"/>
            </g>
        </g>
        <path id="circle1082" d="M56,294L56,294C56,300.035 51.034,305 45,305L45,305C38.966,305 34,300.035 34,294L34,294C34,287.966 38.966,283 45,283L45,283C51.034,283 56,287.966 56,294L56,294Z" style="fill-opacity:0.6;fill-rule:nonzero;"/>
        <path id="circle1084" d="M56,344L56,344C56,350.035 51.034,355 45,355L45,355C38.966,355 34,350.035 34,344L34,344C34,337.966 38.966,333 45,333C51.034,333 56,337.966 56,344Z" style="fill-opacity:0.6;fill-rule:nonzero;"/>
    </g>
</svg>
