<?xml version="1.0" encoding="UTF-8" standalone="no"?>
<!DOCTYPE svg PUBLIC "-//W3C//DTD SVG 1.1//EN" "http://www.w3.org/Graphics/SVG/1.1/DTD/svg11.dtd">
<svg width="100%" height="100%" viewBox="0 0 90 380" version="1.1" xmlns="http://www.w3.org/2000/svg" xmlns:xlink="http://www.w3.org/1999/xlink" xml:space="preserve" xmlns:serif="http://www.serif.com/" style="fill-rule:evenodd;clip-rule:evenodd;stroke-linejoin:round;stroke-miterlimit:2;">
    <g id="Layer-2" serif:id="Layer 2">
        <g id="text989">
        </g>
        <rect id="rect4689" x="0" y="0" width="90" height="380" style="fill:rgb(44,45,48);fill-rule:nonzero;"/>
        <g id="text80" transform="matrix(1.00498,0,0,0.995047,-5.56788e-06,7.99997)">
            <path id="path4726" d="M29.851,371.706L29.851,363.943L31.853,363.943L32.903,366.668C32.96,366.829 33.024,367.013 33.094,367.221C33.168,367.429 33.249,367.668 33.336,367.94L33.552,368.624C33.475,367.95 33.416,367.373 33.376,366.894C33.336,366.415 33.316,366.013 33.316,365.687L33.316,363.943L35.317,363.943L35.317,371.706L33.316,371.706L32.26,368.85C32.149,368.545 32.049,368.26 31.958,367.995C31.871,367.727 31.794,367.472 31.727,367.231C31.77,367.777 31.802,368.253 31.822,368.659C31.843,369.065 31.853,369.42 31.853,369.725L31.853,371.706L29.851,371.706Z" style="fill:rgb(158,161,168);fill-rule:nonzero;"/>
            <path id="path4728" d="M39.887,371.706L37.791,371.706L37.791,368.418L35.865,363.943L38.052,363.943L38.429,365.094C38.503,365.319 38.568,365.535 38.625,365.743C38.686,365.951 38.739,366.15 38.786,366.341C38.863,366.056 38.93,365.811 38.987,365.607C39.044,365.399 39.095,365.232 39.138,365.104L39.52,363.943L41.692,363.943L39.887,368.418L39.887,371.706Z" style="fill:rgb(158,161,168);fill-rule:nonzero;"/>
            <path id="path4730" d="M41.894,371.515L41.894,369.076C42.306,369.639 42.752,369.921 43.231,369.921C43.412,369.921 43.56,369.874 43.673,369.78C43.787,369.683 43.844,369.562 43.844,369.418C43.844,369.21 43.72,369.008 43.472,368.81L43.13,368.543C42.902,368.372 42.708,368.203 42.547,368.035C42.386,367.865 42.256,367.69 42.155,367.513C42.054,367.332 41.981,367.146 41.934,366.954C41.887,366.763 41.863,366.562 41.863,366.351C41.863,365.989 41.947,365.61 42.115,365.215C42.199,365.03 42.296,364.863 42.406,364.712C42.517,364.558 42.644,364.422 42.789,364.305C43.184,363.969 43.662,363.802 44.222,363.802C44.721,363.802 45.224,363.934 45.73,364.199L45.73,366.572C45.559,366.308 45.365,366.1 45.147,365.949C44.929,365.795 44.714,365.718 44.503,365.718C44.342,365.718 44.21,365.765 44.106,365.858C43.999,365.949 43.945,366.058 43.945,366.185C43.945,366.393 44.087,366.599 44.372,366.804L44.704,367.05C45.147,367.368 45.463,367.695 45.655,368.03C45.849,368.366 45.946,368.758 45.946,369.207C45.946,369.971 45.713,370.601 45.247,371.098C44.781,371.594 44.191,371.842 43.477,371.842C42.985,371.842 42.457,371.733 41.894,371.515L41.894,371.515Z" style="fill:rgb(158,161,168);fill-rule:nonzero;"/>
            <path id="path4732" d="M49.576,371.706L47.48,371.706L47.48,365.803L46.323,365.803L46.323,363.943L50.778,363.943L50.778,365.803L49.576,365.803L49.576,371.706Z" style="fill:rgb(158,161,168);fill-rule:nonzero;"/>
            <path id="path4734" d="M56.525,371.706L54.428,371.706L54.428,368.584L53.428,368.584L53.428,371.706L51.331,371.706L51.331,363.943L53.428,363.943L53.428,366.688L54.428,366.688L54.428,363.943L56.525,363.943L56.525,371.706Z" style="fill:rgb(158,161,168);fill-rule:nonzero;"/>
            <rect id="path4736" x="57.606" y="363.943" width="2.097" height="7.763" style="fill:rgb(158,161,168);fill-rule:nonzero;"/>
        </g>
        <g id="text4987">
        </g>
        <g id="text1042">
        </g>
        <g id="text1018" transform="matrix(0.897524,0,0,1.11418,0,0)">
            <path id="path1037" d="M14.553,15.935L11.142,15.935L11.142,3.304L14.447,3.304C16.094,3.304 17.315,3.639 18.111,4.31C19.05,5.101 19.519,6.2 19.519,7.607C19.519,9.139 19.02,10.282 18.022,11.034C17.34,11.542 16.361,11.795 15.085,11.795L14.553,11.795L14.553,15.935ZM14.553,8.957L14.708,8.965C15.123,8.965 15.453,8.839 15.698,8.589C15.944,8.332 16.066,7.983 16.066,7.541C16.066,7.105 15.946,6.751 15.706,6.478C15.466,6.2 15.161,6.061 14.79,6.061L14.553,6.061L14.553,8.957Z" style="fill:rgb(158,161,168);fill-rule:nonzero;"/>
            <path id="path1039" d="M30.014,9.66C30.014,11.585 29.575,13.15 28.697,14.356C27.824,15.556 26.687,16.155 25.286,16.155C24.042,16.155 22.976,15.695 22.087,14.773C20.969,13.606 20.41,11.855 20.41,9.521C20.41,7.285 20.994,5.575 22.161,4.392C23.028,3.514 24.056,3.075 25.245,3.075C26.701,3.075 27.86,3.669 28.722,4.858C29.583,6.047 30.014,7.648 30.014,9.66ZM26.472,9.685C26.472,7.4 26.068,6.257 25.261,6.257C24.858,6.257 24.536,6.557 24.296,7.157C24.061,7.713 23.944,8.531 23.944,9.611C23.944,10.675 24.053,11.501 24.271,12.09C24.495,12.673 24.803,12.965 25.196,12.965C25.599,12.965 25.91,12.676 26.128,12.098C26.357,11.52 26.472,10.715 26.472,9.685L26.472,9.685Z" style="fill:rgb(158,161,168);fill-rule:nonzero;"/>
            <path id="path1041" d="M37.434,15.935L31.462,15.935L31.462,3.304L34.873,3.304L34.873,12.9L37.434,12.9L37.434,15.935Z" style="fill:rgb(158,161,168);fill-rule:nonzero;"/>
            <path id="path1043" d="M43.373,15.935L39.961,15.935L39.961,10.585L36.828,3.304L40.387,3.304L41,5.177C41.12,5.543 41.227,5.894 41.319,6.233C41.418,6.571 41.505,6.895 41.581,7.206C41.707,6.742 41.816,6.344 41.908,6.012C42.001,5.674 42.083,5.401 42.154,5.194L42.776,3.304L46.309,3.304L43.373,10.585L43.373,15.935Z" style="fill:rgb(158,161,168);fill-rule:nonzero;"/>
            <path id="path1045" d="M61.337,15.935L57.811,15.935L57.558,14.331L55.259,14.331L54.981,15.935L51.455,15.935L54.49,3.304L58.662,3.304L61.337,15.935ZM57.157,11.623L56.936,10.151C56.93,10.146 56.919,10.072 56.903,9.93C56.892,9.81 56.835,9.336 56.731,8.507C56.72,8.414 56.707,8.289 56.69,8.13C56.674,7.967 56.652,7.762 56.625,7.517L56.518,6.323C56.508,6.437 56.491,6.565 56.469,6.707C56.453,6.849 56.434,7.004 56.412,7.173C56.374,7.511 56.347,7.746 56.33,7.877C56.314,8.008 56.303,8.087 56.297,8.114L56.06,9.644L55.717,11.623L57.157,11.623Z" style="fill:rgb(158,161,168);fill-rule:nonzero;"/>
            <path id="path1047" d="M62.319,15.935L62.319,3.304L65.264,3.304C66.949,3.304 68.26,3.757 69.198,4.662C70.431,5.845 71.047,7.501 71.047,9.627C71.047,11.722 70.526,13.339 69.485,14.478C68.596,15.449 67.27,15.935 65.509,15.935L62.319,15.935ZM65.73,12.883C66.951,12.823 67.562,11.771 67.562,9.726C67.562,8.717 67.407,7.92 67.096,7.337C66.785,6.748 66.365,6.453 65.836,6.453L65.73,6.453L65.73,12.883Z" style="fill:rgb(158,161,168);fill-rule:nonzero;"/>
            <path id="path1049" d="M72.225,15.624L72.225,11.656C72.896,12.572 73.621,13.031 74.401,13.031C74.696,13.031 74.936,12.954 75.121,12.801C75.306,12.643 75.399,12.447 75.399,12.212C75.399,11.874 75.197,11.544 74.794,11.223L74.237,10.789C73.867,10.511 73.55,10.236 73.289,9.963C73.027,9.685 72.814,9.401 72.65,9.112C72.487,8.818 72.367,8.515 72.291,8.204C72.214,7.893 72.176,7.566 72.176,7.222C72.176,6.633 72.312,6.017 72.585,5.374C72.721,5.074 72.88,4.801 73.06,4.556C73.24,4.305 73.447,4.084 73.681,3.893C74.325,3.348 75.102,3.075 76.013,3.075C76.825,3.075 77.643,3.29 78.467,3.721L78.467,7.582C78.189,7.152 77.872,6.813 77.518,6.568C77.163,6.317 76.814,6.192 76.471,6.192C76.209,6.192 75.994,6.268 75.825,6.421C75.65,6.568 75.563,6.745 75.563,6.952C75.563,7.291 75.795,7.626 76.258,7.959L76.798,8.359C77.518,8.878 78.033,9.409 78.344,9.955C78.66,10.5 78.819,11.138 78.819,11.869C78.819,13.112 78.44,14.138 77.681,14.945C76.923,15.752 75.964,16.155 74.802,16.155C74,16.155 73.141,15.978 72.225,15.624L72.225,15.624Z" style="fill:rgb(158,161,168);fill-rule:nonzero;"/>
            <path id="path1051" d="M89.134,15.935L85.445,15.935L83.76,11.435C83.743,11.359 83.713,11.258 83.67,11.133C83.631,11.007 83.582,10.857 83.522,10.683L83.547,11.517L83.547,15.935L80.152,15.935L80.152,3.304L83.645,3.304C85.183,3.304 86.334,3.607 87.097,4.212C88.068,4.986 88.553,6.088 88.553,7.517C88.553,9.044 87.902,10.099 86.598,10.683L89.134,15.935ZM83.563,9.153L83.792,9.153C84.185,9.153 84.512,9.003 84.774,8.703C85.036,8.403 85.167,8.021 85.167,7.558C85.167,6.614 84.673,6.143 83.686,6.143L83.563,6.143L83.563,9.153Z" style="fill:rgb(158,161,168);fill-rule:nonzero;"/>
        </g>
        <g id="path1079" transform="matrix(1.0039,0,0,0.996111,0.38394,7)">
            <path d="M24.52,40.156L20.037,40.156L19.714,38.117L16.791,38.117L16.437,40.156L11.953,40.156L15.813,24.094L21.119,24.094L24.52,40.156ZM19.204,34.674L18.923,32.801C18.917,32.794 18.903,32.701 18.882,32.52C18.868,32.368 18.795,31.764 18.663,30.71C18.65,30.592 18.632,30.433 18.611,30.232C18.591,30.023 18.563,29.763 18.528,29.451L18.393,27.932C18.379,28.078 18.358,28.241 18.33,28.421C18.31,28.602 18.285,28.799 18.258,29.014C18.209,29.444 18.174,29.743 18.154,29.909C18.133,30.075 18.119,30.176 18.112,30.211L17.81,32.156L17.373,34.674L19.204,34.674Z" style="fill:rgb(158,161,168);fill-rule:nonzero;"/>
        </g>
        <g id="path1076" transform="matrix(1.0039,0,0,0.996111,0.117625,7)">
            <path d="M12.952,80.312L12.952,64.25L16.697,64.25C18.84,64.25 20.508,64.825 21.701,65.977C23.268,67.482 24.052,69.587 24.052,72.291C24.052,74.955 23.39,77.011 22.065,78.461C20.935,79.695 19.249,80.312 17.009,80.312L12.952,80.312ZM17.29,76.432C18.844,76.356 19.62,75.017 19.62,72.416C19.62,71.133 19.423,70.121 19.027,69.379C18.632,68.63 18.098,68.255 17.425,68.255L17.29,68.255L17.29,76.432Z" style="fill:rgb(158,161,168);fill-rule:nonzero;"/>
        </g>
        <g id="path1073" transform="matrix(1.0039,0,0,0.996111,1.85651,7)">
            <path d="M12.609,120.073L12.609,115.028C13.462,116.193 14.384,116.775 15.376,116.775C15.75,116.775 16.056,116.678 16.291,116.484C16.527,116.283 16.645,116.033 16.645,115.735C16.645,115.305 16.389,114.885 15.875,114.476L15.168,113.925C14.696,113.571 14.294,113.221 13.961,112.874C13.628,112.52 13.358,112.16 13.15,111.792C12.942,111.418 12.789,111.033 12.692,110.637C12.595,110.242 12.546,109.826 12.546,109.389C12.546,108.64 12.72,107.856 13.066,107.038C13.24,106.657 13.441,106.31 13.67,105.998C13.899,105.679 14.162,105.398 14.46,105.155C15.279,104.461 16.267,104.115 17.425,104.115C18.459,104.115 19.499,104.389 20.546,104.937L20.546,109.847C20.193,109.299 19.79,108.869 19.34,108.557C18.889,108.238 18.445,108.078 18.008,108.078C17.675,108.078 17.401,108.175 17.186,108.37C16.964,108.557 16.853,108.782 16.853,109.046C16.853,109.476 17.148,109.902 17.737,110.325L18.424,110.835C19.34,111.494 19.995,112.17 20.39,112.864C20.793,113.557 20.994,114.369 20.994,115.298C20.994,116.879 20.512,118.183 19.548,119.21C18.584,120.236 17.363,120.749 15.886,120.749C14.866,120.749 13.774,120.524 12.609,120.073Z" style="fill:rgb(158,161,168);fill-rule:nonzero;"/>
        </g>
        <g id="path1070" transform="matrix(1.0039,0,0,0.996111,-0.0442528,7)">
            <path d="M24.375,160.625L19.683,160.625L17.54,154.903C17.519,154.806 17.481,154.677 17.425,154.518C17.377,154.358 17.314,154.168 17.238,153.946L17.269,155.007L17.269,160.625L12.952,160.625L12.952,144.562L17.394,144.562C19.35,144.562 20.813,144.947 21.784,145.717C23.019,146.702 23.636,148.103 23.636,149.92C23.636,151.862 22.807,153.204 21.15,153.946L24.375,160.625ZM17.29,152L17.581,152C18.081,152 18.497,151.81 18.83,151.428C19.163,151.047 19.329,150.561 19.329,149.972C19.329,148.772 18.702,148.172 17.446,148.172L17.29,148.172L17.29,152Z" style="fill:rgb(158,161,168);fill-rule:nonzero;"/>
        </g>
        <g id="text1084" transform="matrix(0.839113,0,0,1.0964,-1.68,4)">
            <path id="path1279" d="M4.386,164.127L5.621,164.127L5.621,172.25L7.64,172.25L7.64,173.295L4.386,173.295L4.386,164.127Z" style="fill:rgb(158,161,168);fill-rule:nonzero;"/>
            <rect id="path1281" x="8.423" y="164.127" width="1.235" height="9.168" style="fill:rgb(158,161,168);fill-rule:nonzero;"/>
            <path id="path1283" d="M11.084,164.127L12.236,164.127L13.465,167.785C13.821,168.818 14.136,169.92 14.409,171.092C14.31,170.383 14.237,169.742 14.189,169.168C14.142,168.594 14.118,168.054 14.118,167.547L14.118,164.127L15.359,164.127L15.359,173.295L14.201,173.295L12.818,169.168C12.691,168.784 12.57,168.39 12.455,167.987C12.345,167.583 12.242,167.159 12.147,166.716C12.139,166.66 12.125,166.593 12.105,166.514C12.089,166.435 12.069,166.344 12.046,166.241C12.057,166.344 12.067,166.433 12.075,166.508C12.083,166.579 12.089,166.641 12.093,166.692L12.158,167.624L12.224,168.758C12.228,168.822 12.23,168.899 12.23,168.99C12.234,169.081 12.236,169.184 12.236,169.299L12.301,173.295L11.084,173.295L11.084,164.127Z" style="fill:rgb(158,161,168);fill-rule:nonzero;"/>
            <rect id="path1285" x="16.078" y="169.685" width="2.161" height="0.926" style="fill:rgb(158,161,168);fill-rule:nonzero;"/>
            <path id="path1287" d="M18.946,164.127L22.229,164.127L22.229,165.172L20.181,165.172L20.181,168.076L21.998,168.076L21.998,169.121L20.181,169.121L20.181,172.25L22.229,172.25L22.229,173.295L18.946,173.295L18.946,164.127Z" style="fill:rgb(158,161,168);fill-rule:nonzero;"/>
            <path id="path1289" d="M22.74,164.127L23.939,164.127L24.575,165.902C24.824,166.603 24.973,167.116 25.02,167.44C25.064,167.238 25.111,167.042 25.163,166.852C25.218,166.662 25.276,166.472 25.335,166.282L25.418,166.015L26.006,164.127L27.253,164.127L25.555,168.64L27.253,173.295L26.006,173.295L25.4,171.549C25.278,171.201 25.179,170.888 25.103,170.611C25.028,170.334 24.975,170.089 24.943,169.875C24.911,170.14 24.858,170.393 24.783,170.635L24.575,171.288L24.468,171.632L23.939,173.295L22.633,173.295L24.367,168.64L22.74,164.127Z" style="fill:rgb(158,161,168);fill-rule:nonzero;"/>
            <path id="path1291" d="M27.924,164.127L29.551,164.127C30.335,164.127 30.905,164.325 31.261,164.721C31.617,165.12 31.795,165.754 31.795,166.621C31.795,167.84 31.437,168.628 30.721,168.984C30.36,169.146 29.84,169.228 29.159,169.228L29.159,173.295L27.924,173.295L27.924,164.127ZM29.159,168.171C29.67,168.171 30.022,168.068 30.216,167.862C30.414,167.652 30.513,167.28 30.513,166.745C30.513,166.199 30.418,165.799 30.228,165.546C30.038,165.293 29.739,165.166 29.331,165.166L29.159,165.166L29.159,168.171Z" style="fill:rgb(158,161,168);fill-rule:nonzero;"/>
        </g>
        <g id="text1088" transform="matrix(0.91208,0,0,1.0964,-4,3.87625)">
            <path id="path1268" d="M13.067,182.558L13.067,183.764C12.691,183.495 12.352,183.36 12.052,183.36C11.727,183.36 11.462,183.475 11.256,183.704C11.05,183.922 10.947,184.213 10.947,184.577C10.947,184.898 11.02,185.173 11.167,185.403C11.242,185.525 11.365,185.684 11.535,185.878C11.709,186.072 11.933,186.305 12.206,186.578C12.709,187.089 13.051,187.531 13.233,187.903C13.415,188.263 13.506,188.704 13.506,189.227C13.506,189.935 13.306,190.519 12.907,190.979C12.507,191.426 11.994,191.65 11.369,191.65C10.842,191.65 10.393,191.505 10.021,191.216L10.021,189.993C10.46,190.313 10.86,190.474 11.22,190.474C11.557,190.474 11.82,190.363 12.01,190.141C12.2,189.916 12.295,189.611 12.295,189.227C12.295,188.894 12.222,188.595 12.075,188.33C12,188.203 11.895,188.059 11.761,187.897C11.626,187.73 11.458,187.546 11.256,187.344C10.943,187.036 10.684,186.763 10.478,186.525C10.272,186.287 10.12,186.08 10.021,185.902C9.831,185.553 9.736,185.114 9.736,184.583C9.736,183.867 9.922,183.299 10.294,182.879C10.67,182.455 11.175,182.244 11.808,182.244C12.248,182.244 12.667,182.349 13.067,182.558L13.067,182.558Z" style="fill:rgb(158,161,168);fill-rule:nonzero;"/>
            <path id="path1270" d="M18.144,182.517L18.144,183.627C17.827,183.473 17.562,183.396 17.348,183.396C17.055,183.396 16.804,183.469 16.594,183.615C16.384,183.758 16.21,183.98 16.072,184.28C15.937,184.581 15.836,184.963 15.769,185.426C15.705,185.886 15.674,186.43 15.674,187.059C15.674,189.324 16.254,190.456 17.414,190.456C17.615,190.456 17.859,190.393 18.144,190.266L18.144,191.4C17.847,191.566 17.515,191.65 17.146,191.65C15.29,191.65 14.361,190.133 14.361,187.101C14.361,185.462 14.587,184.243 15.038,183.443C15.494,182.644 16.188,182.244 17.123,182.244C17.467,182.244 17.807,182.335 18.144,182.517L18.144,182.517Z" style="fill:rgb(158,161,168);fill-rule:nonzero;"/>
            <path id="path1272" d="M20.816,182.368L21.778,182.368L23.744,191.537L22.52,191.537L22.176,189.749L20.359,189.749L20.009,191.537L18.821,191.537L20.816,182.368ZM21.998,188.793L21.725,187.333C21.542,186.339 21.394,185.278 21.279,184.15C21.224,184.7 21.153,185.258 21.065,185.824C20.978,186.386 20.875,186.984 20.757,187.618L20.531,188.793L21.998,188.793Z" style="fill:rgb(158,161,168);fill-rule:nonzero;"/>
            <path id="path1274" d="M24.474,182.368L25.709,182.368L25.709,190.492L27.728,190.492L27.728,191.537L24.474,191.537L24.474,182.368Z" style="fill:rgb(158,161,168);fill-rule:nonzero;"/>
            <path id="path1276" d="M28.512,182.368L31.795,182.368L31.795,183.413L29.747,183.413L29.747,186.317L31.564,186.317L31.564,187.362L29.747,187.362L29.747,190.492L31.795,190.492L31.795,191.537L28.512,191.537L28.512,182.368Z" style="fill:rgb(158,161,168);fill-rule:nonzero;"/>
        </g>
        <g id="text1096" transform="matrix(0.91208,0,0,1.0964,-3.96101,21)">
            <path id="path1259" d="M12.206,204.844L14.451,204.844L14.451,205.2C14.451,206.985 14.294,208.191 13.981,208.816C13.673,209.458 13.095,209.778 12.248,209.778C11.373,209.778 10.749,209.422 10.377,208.709C10.009,207.997 9.825,206.799 9.825,205.117C9.825,203.193 10.027,201.912 10.43,201.275C10.811,200.677 11.394,200.378 12.182,200.378C12.784,200.378 13.253,200.523 13.59,200.812C13.93,201.105 14.195,201.586 14.385,202.255L13.233,202.736C13.182,202.494 13.124,202.292 13.061,202.13C12.998,201.964 12.928,201.835 12.853,201.744C12.703,201.558 12.477,201.465 12.176,201.465C11.765,201.465 11.483,201.718 11.333,202.225C11.183,202.756 11.107,203.708 11.107,205.081C11.107,206.471 11.185,207.411 11.339,207.902C11.493,208.393 11.784,208.638 12.212,208.638C12.604,208.638 12.879,208.464 13.037,208.116C13.2,207.744 13.281,207.146 13.281,206.322L13.281,206.073L13.281,205.889L12.206,205.889L12.206,204.844Z" style="fill:rgb(158,161,168);fill-rule:nonzero;"/>
            <path id="path1261" d="M16.992,200.497L17.954,200.497L19.919,209.665L18.696,209.665L18.352,207.878L16.535,207.878L16.184,209.665L14.997,209.665L16.992,200.497ZM18.174,206.922L17.901,205.461C17.718,204.468 17.57,203.407 17.455,202.279C17.4,202.829 17.328,203.387 17.241,203.953C17.154,204.515 17.051,205.113 16.933,205.746L16.707,206.922L18.174,206.922Z" style="fill:rgb(158,161,168);fill-rule:nonzero;"/>
            <path id="path1263" d="M19.729,200.497L23.749,200.497L23.749,201.578L22.366,201.578L22.366,209.665L21.155,209.665L21.155,201.578L19.729,201.578L19.729,200.497Z" style="fill:rgb(158,161,168);fill-rule:nonzero;"/>
            <path id="path1265" d="M24.426,200.497L27.71,200.497L27.71,201.542L25.662,201.542L25.662,204.446L27.479,204.446L27.479,205.491L25.662,205.491L25.662,208.62L27.71,208.62L27.71,209.665L24.426,209.665L24.426,200.497Z" style="fill:rgb(158,161,168);fill-rule:nonzero;"/>
        </g>
        <g id="text1100" transform="matrix(0.91208,0,0,1.0964,3.07923,-18)">
            <path id="path1250" d="M5.181,218.739L9.218,218.739L6.463,226.826L9.07,226.826L9.07,227.907L4.854,227.907L7.633,219.784L5.181,219.784L5.181,218.739Z" style="fill:rgb(158,161,168);fill-rule:nonzero;"/>
            <path id="path1252" d="M9.99,218.739L13.274,218.739L13.274,219.784L11.226,219.784L11.226,222.688L13.043,222.688L13.043,223.733L11.226,223.733L11.226,226.862L13.274,226.862L13.274,227.907L9.99,227.907L9.99,218.739Z" style="fill:rgb(158,161,168);fill-rule:nonzero;"/>
            <path id="path1254" d="M14.408,218.739L16.035,218.739C16.708,218.739 17.209,218.899 17.538,219.22C17.953,219.635 18.161,220.271 18.161,221.126C18.161,221.783 18.05,222.311 17.829,222.711C17.611,223.107 17.298,223.353 16.89,223.448L18.577,227.907L17.324,227.907L15.643,223.418L15.643,227.907L14.408,227.907L14.408,218.739ZM15.643,222.8C16.122,222.8 16.461,222.69 16.659,222.468C16.857,222.246 16.956,221.872 16.956,221.346C16.956,221.061 16.934,220.817 16.89,220.615C16.851,220.413 16.786,220.249 16.694,220.122C16.607,219.996 16.493,219.903 16.35,219.843C16.211,219.784 16.045,219.754 15.851,219.754L15.643,219.754L15.643,222.8Z" style="fill:rgb(158,161,168);fill-rule:nonzero;"/>
            <path id="path1256" d="M24.034,223.549C24.034,225.168 23.854,226.318 23.493,226.999C23.133,227.679 22.53,228.02 21.682,228.02C20.792,228.02 20.164,227.654 19.8,226.921C19.44,226.205 19.26,224.932 19.26,223.103C19.26,221.472 19.438,220.318 19.794,219.641C20.154,218.96 20.764,218.62 21.623,218.62C22.391,218.62 22.961,218.883 23.333,219.41C23.579,219.762 23.757,220.263 23.868,220.912C23.978,221.514 24.034,222.393 24.034,223.549L24.034,223.549ZM22.739,223.679C22.739,222.092 22.668,221.039 22.526,220.52C22.383,219.998 22.092,219.736 21.653,219.736C21.213,219.736 20.92,219.976 20.774,220.455C20.631,220.938 20.56,221.908 20.56,223.364C20.56,224.706 20.635,225.637 20.786,226.155C20.94,226.646 21.229,226.892 21.653,226.892C22.068,226.892 22.353,226.662 22.508,226.203C22.662,225.748 22.739,224.906 22.739,223.679L22.739,223.679Z" style="fill:rgb(158,161,168);fill-rule:nonzero;"/>
        </g>
        <g id="text1104" transform="matrix(0.91208,0,0,1.0964,2.06905,-18)">
            <path id="path1241" d="M53.648,218.739L55.322,218.739C56.633,218.739 57.288,219.552 57.288,221.179C57.288,221.801 57.203,222.262 57.032,222.563C56.862,222.864 56.561,223.091 56.13,223.246C56.625,223.444 56.963,223.697 57.145,224.006C57.331,224.311 57.424,224.77 57.424,225.383C57.424,227.066 56.704,227.907 55.263,227.907L53.648,227.907L53.648,218.739ZM54.812,222.777C55.291,222.777 55.623,222.666 55.809,222.444C55.995,222.211 56.088,221.801 56.088,221.215C56.088,220.225 55.732,219.73 55.019,219.73L54.924,219.73L54.871,219.73C54.839,219.73 54.819,219.732 54.812,219.736L54.812,222.777ZM54.812,226.85C55.318,226.85 55.669,226.741 55.863,226.524C56.057,226.306 56.154,225.912 56.154,225.342C56.154,224.756 56.053,224.346 55.851,224.113C55.653,223.875 55.306,223.756 54.812,223.756L54.812,226.85Z" style="fill:rgb(158,161,168);fill-rule:nonzero;"/>
            <path id="path1243" d="M58.659,218.739L59.871,218.739L59.871,225.217C59.871,225.878 59.93,226.318 60.049,226.535C60.172,226.753 60.413,226.862 60.773,226.862C61.134,226.862 61.371,226.767 61.486,226.577C61.605,226.383 61.664,225.989 61.664,225.395L61.664,218.739L62.875,218.739L62.875,225.395C62.875,226.393 62.723,227.068 62.418,227.42C62.054,227.82 61.498,228.02 60.75,228.02C59.926,228.02 59.346,227.763 59.01,227.248C58.776,226.896 58.659,226.219 58.659,225.217L58.659,218.739Z" style="fill:rgb(158,161,168);fill-rule:nonzero;"/>
            <path id="path1245" d="M67.347,218.929L67.347,220.134C66.971,219.865 66.632,219.73 66.331,219.73C66.007,219.73 65.741,219.845 65.536,220.075C65.33,220.293 65.227,220.583 65.227,220.948C65.227,221.268 65.3,221.543 65.447,221.773C65.522,221.896 65.644,222.054 65.815,222.248C65.989,222.442 66.213,222.676 66.486,222.949C66.988,223.459 67.331,223.901 67.513,224.273C67.695,224.633 67.786,225.075 67.786,225.597C67.786,226.306 67.586,226.89 67.186,227.349C66.787,227.796 66.274,228.02 65.648,228.02C65.122,228.02 64.673,227.875 64.3,227.586L64.3,226.363C64.74,226.684 65.14,226.844 65.5,226.844C65.836,226.844 66.1,226.733 66.29,226.512C66.48,226.286 66.575,225.981 66.575,225.597C66.575,225.265 66.502,224.966 66.355,224.701C66.28,224.574 66.175,224.429 66.04,224.267C65.906,224.101 65.737,223.917 65.536,223.715C65.223,223.406 64.964,223.133 64.758,222.895C64.552,222.658 64.399,222.45 64.3,222.272C64.11,221.924 64.015,221.484 64.015,220.954C64.015,220.237 64.202,219.669 64.574,219.249C64.95,218.826 65.454,218.614 66.088,218.614C66.527,218.614 66.947,218.719 67.347,218.929L67.347,218.929Z" style="fill:rgb(158,161,168);fill-rule:nonzero;"/>
            <path id="path1247" d="M68.214,218.739L69.52,218.739L70.126,220.734C70.146,220.793 70.165,220.859 70.185,220.93C70.205,221.001 70.229,221.078 70.256,221.161C70.482,221.882 70.636,222.488 70.719,222.979C70.791,222.488 70.85,222.145 70.898,221.951L71.088,221.132L71.159,220.811L71.67,218.739L72.958,218.739L71.361,223.964L71.361,227.907L70.126,227.907L70.126,223.964L68.214,218.739Z" style="fill:rgb(158,161,168);fill-rule:nonzero;"/>
        </g>
        <g id="text1108" transform="matrix(0.91208,0,0,1.0964,1.00059,3.99996)">
            <path id="path1232" d="M4.676,236.98L5.893,236.98L6.445,240.365L6.54,240.977L6.736,242.307C6.768,242.532 6.796,242.738 6.82,242.924C6.847,243.11 6.871,243.279 6.891,243.429L6.95,243.88C6.962,243.789 6.972,243.708 6.98,243.637C6.988,243.566 6.996,243.506 7.004,243.459L7.164,242.396L7.372,241C7.392,240.874 7.409,240.757 7.425,240.65C7.445,240.543 7.463,240.448 7.479,240.365L8.072,236.98L9.224,236.98L7.425,246.149L6.445,246.149L4.676,236.98Z" style="fill:rgb(158,161,168);fill-rule:nonzero;"/>
            <path id="path1234" d="M13.47,237.129L13.47,238.239C13.153,238.085 12.888,238.008 12.674,238.008C12.381,238.008 12.13,238.081 11.92,238.227C11.71,238.37 11.536,238.592 11.398,238.892C11.263,239.193 11.162,239.575 11.095,240.038C11.032,240.498 11,241.042 11,241.671C11,243.936 11.58,245.068 12.74,245.068C12.942,245.068 13.185,245.005 13.47,244.878L13.47,246.012C13.173,246.178 12.841,246.262 12.473,246.262C10.616,246.262 9.688,244.745 9.688,241.713C9.688,240.074 9.913,238.855 10.365,238.055C10.82,237.256 11.515,236.856 12.449,236.856C12.793,236.856 13.134,236.947 13.47,237.129L13.47,237.129Z" style="fill:rgb(158,161,168);fill-rule:nonzero;"/>
            <path id="path1236" d="M16.142,236.98L17.104,236.98L19.07,246.149L17.846,246.149L17.502,244.361L15.685,244.361L15.335,246.149L14.147,246.149L16.142,236.98ZM17.324,243.405L17.051,241.945C16.869,240.951 16.72,239.89 16.605,238.762C16.55,239.312 16.479,239.87 16.392,240.436C16.305,240.998 16.202,241.596 16.083,242.23L15.857,243.405L17.324,243.405Z" style="fill:rgb(158,161,168);fill-rule:nonzero;"/>
            <path id="path1238" d="M20.18,236.98L22.27,236.98L22.27,246.149L21.089,246.149L21.089,238.031L20.18,238.031L20.18,236.98Z" style="fill:rgb(158,161,168);fill-rule:nonzero;"/>
        </g>
        <g id="text1112" transform="matrix(0.91208,0,0,1.0964,0.735206,6.99995)">
            <path id="path1223" d="M4.676,255.222L5.893,255.222L6.445,258.607L6.54,259.218L6.736,260.548C6.768,260.774 6.796,260.98 6.82,261.166C6.847,261.352 6.871,261.52 6.891,261.671L6.95,262.122C6.962,262.031 6.972,261.95 6.98,261.878C6.988,261.807 6.996,261.748 7.004,261.7L7.164,260.637L7.372,259.242C7.392,259.115 7.409,258.999 7.425,258.892C7.445,258.785 7.463,258.69 7.479,258.607L8.072,255.222L9.224,255.222L7.425,264.39L6.445,264.39L4.676,255.222Z" style="fill:rgb(158,161,168);fill-rule:nonzero;"/>
            <path id="path1225" d="M13.47,255.37L13.47,256.481C13.153,256.326 12.888,256.249 12.674,256.249C12.381,256.249 12.13,256.322 11.92,256.469C11.71,256.611 11.536,256.833 11.398,257.134C11.263,257.435 11.162,257.817 11.095,258.28C11.032,258.739 11,259.284 11,259.913C11,262.177 11.58,263.31 12.74,263.31C12.942,263.31 13.185,263.246 13.47,263.12L13.47,264.254C13.173,264.42 12.841,264.503 12.473,264.503C10.616,264.503 9.688,262.987 9.688,259.955C9.688,258.316 9.913,257.096 10.365,256.297C10.82,255.497 11.515,255.097 12.449,255.097C12.793,255.097 13.134,255.188 13.47,255.37L13.47,255.37Z" style="fill:rgb(158,161,168);fill-rule:nonzero;"/>
            <path id="path1227" d="M16.142,255.222L17.104,255.222L19.07,264.39L17.846,264.39L17.502,262.603L15.685,262.603L15.335,264.39L14.147,264.39L16.142,255.222ZM17.324,261.647L17.051,260.186C16.869,259.193 16.72,258.132 16.605,257.003C16.55,257.554 16.479,258.112 16.392,258.678C16.305,259.24 16.202,259.838 16.083,260.471L15.857,261.647L17.324,261.647Z" style="fill:rgb(158,161,168);fill-rule:nonzero;"/>
            <path id="path1229" d="M20.887,258.203L19.675,258.203L19.663,257.841C19.663,256.839 19.814,256.134 20.115,255.727C20.42,255.315 20.93,255.109 21.647,255.109C22.997,255.109 23.672,255.857 23.672,257.354C23.672,258.363 23.167,259.818 22.157,261.718L21.427,263.09C21.423,263.098 21.411,263.121 21.391,263.161C21.372,263.201 21.344,263.258 21.308,263.333L23.577,263.333L23.577,264.39L19.551,264.39C19.618,264.24 19.758,263.941 19.972,263.494C20.186,263.046 20.477,262.443 20.845,261.682C21.158,261.017 21.419,260.453 21.629,259.99C21.839,259.527 21.997,259.147 22.104,258.85C22.318,258.256 22.425,257.744 22.425,257.312C22.425,256.552 22.161,256.172 21.635,256.172C21.128,256.172 20.875,256.643 20.875,257.585L20.881,258.108L20.887,258.203Z" style="fill:rgb(158,161,168);fill-rule:nonzero;"/>
        </g>
        <g id="text1128" transform="matrix(1,0,0,0.727257,4,65.1886)">
            <path id="path1152" d="M0,380.733L2.88,380.733L2.88,381.65L1.083,381.65L1.083,384.197L2.677,384.197L2.677,385.114L1.083,385.114L1.083,387.858L2.88,387.858L2.88,388.775L0,388.775L0,380.733Z" style="fill:rgb(158,161,168);fill-rule:nonzero;"/>
            <path id="path1154" d="M7.901,384.952C7.901,386.372 7.743,387.381 7.427,387.978C7.111,388.575 6.582,388.874 5.839,388.874C5.057,388.874 4.507,388.553 4.188,387.911C3.872,387.282 3.714,386.166 3.714,384.562C3.714,383.131 3.87,382.119 4.182,381.525C4.498,380.928 5.033,380.629 5.786,380.629C6.46,380.629 6.96,380.86 7.286,381.322C7.502,381.631 7.658,382.07 7.755,382.64C7.852,383.167 7.901,383.938 7.901,384.952L7.901,384.952ZM6.766,385.067C6.766,383.674 6.703,382.751 6.578,382.296C6.453,381.838 6.198,381.608 5.813,381.608C5.427,381.608 5.17,381.818 5.042,382.239C4.917,382.662 4.854,383.513 4.854,384.791C4.854,385.968 4.92,386.784 5.052,387.239C5.188,387.669 5.441,387.884 5.813,387.884C6.177,387.884 6.427,387.683 6.563,387.28C6.698,386.881 6.766,386.143 6.766,385.067L6.766,385.067Z" style="fill:rgb(158,161,168);fill-rule:nonzero;"/>
            <path id="path1156" d="M10.104,380.733L10.948,380.733L12.672,388.775L11.599,388.775L11.297,387.207L9.703,387.207L9.396,388.775L8.354,388.775L10.104,380.733ZM11.141,386.369L10.901,385.088C10.741,384.216 10.611,383.286 10.51,382.296C10.462,382.779 10.399,383.268 10.323,383.765C10.247,384.258 10.156,384.782 10.052,385.338L9.854,386.369L11.141,386.369Z" style="fill:rgb(158,161,168);fill-rule:nonzero;"/>
        </g>
        <g id="text1132" transform="matrix(1,0,0,0.727257,2.92139,65.1886)">
            <path id="path1159" d="M24.079,380.733L26.959,380.733L26.959,381.65L25.162,381.65L25.162,384.197L26.756,384.197L26.756,385.114L25.162,385.114L25.162,387.858L26.959,387.858L26.959,388.775L24.079,388.775L24.079,380.733Z" style="fill:rgb(158,161,168);fill-rule:nonzero;"/>
            <path id="path1161" d="M31.98,384.952C31.98,386.372 31.822,387.381 31.506,387.978C31.19,388.575 30.66,388.874 29.917,388.874C29.136,388.874 28.586,388.553 28.266,387.911C27.95,387.282 27.792,386.166 27.792,384.562C27.792,383.131 27.948,382.119 28.261,381.525C28.577,380.928 29.112,380.629 29.865,380.629C30.539,380.629 31.039,380.86 31.365,381.322C31.58,381.631 31.737,382.07 31.834,382.64C31.931,383.167 31.98,383.938 31.98,384.952L31.98,384.952ZM30.844,385.067C30.844,383.674 30.782,382.751 30.657,382.296C30.532,381.838 30.277,381.608 29.891,381.608C29.506,381.608 29.249,381.818 29.12,382.239C28.995,382.662 28.933,383.513 28.933,384.791C28.933,385.968 28.999,386.784 29.131,387.239C29.266,387.669 29.52,387.884 29.891,387.884C30.256,387.884 30.506,387.683 30.641,387.28C30.777,386.881 30.844,386.143 30.844,385.067L30.844,385.067Z" style="fill:rgb(158,161,168);fill-rule:nonzero;"/>
            <path id="path1163" d="M33.058,380.733L34.391,380.733C34.797,380.733 35.139,380.779 35.417,380.869C35.674,380.956 35.903,381.11 36.105,381.332C36.407,381.666 36.622,382.1 36.75,382.634C36.879,383.152 36.943,383.893 36.943,384.858C36.943,385.744 36.872,386.466 36.73,387.025C36.591,387.56 36.362,387.968 36.042,388.249C35.65,388.6 34.947,388.775 33.933,388.775L33.058,388.775L33.058,380.733ZM34.141,387.827C34.801,387.827 35.242,387.628 35.464,387.228C35.693,386.829 35.808,386.053 35.808,384.9C35.808,383.661 35.698,382.808 35.48,382.343C35.261,381.878 34.86,381.645 34.277,381.645L34.141,381.645L34.141,387.827Z" style="fill:rgb(158,161,168);fill-rule:nonzero;"/>
        </g>
        <g id="text1136" transform="matrix(1,0,0,0.727257,1.83757,65.1886)">
            <path id="path1166" d="M48.662,380.733L51.543,380.733L51.543,381.65L49.746,381.65L49.746,384.197L51.34,384.197L51.34,385.114L49.746,385.114L49.746,387.858L51.543,387.858L51.543,388.775L48.662,388.775L48.662,380.733Z" style="fill:rgb(158,161,168);fill-rule:nonzero;"/>
            <path id="path1168" d="M56.563,384.952C56.563,386.372 56.405,387.381 56.09,387.978C55.774,388.575 55.244,388.874 54.501,388.874C53.72,388.874 53.169,388.553 52.85,387.911C52.534,387.282 52.376,386.166 52.376,384.562C52.376,383.131 52.532,382.119 52.845,381.525C53.161,380.928 53.695,380.629 54.449,380.629C55.123,380.629 55.623,380.86 55.949,381.322C56.164,381.631 56.32,382.07 56.418,382.64C56.515,383.167 56.563,383.938 56.563,384.952L56.563,384.952ZM55.428,385.067C55.428,383.674 55.366,382.751 55.241,382.296C55.116,381.838 54.86,381.608 54.475,381.608C54.09,381.608 53.833,381.818 53.704,382.239C53.579,382.662 53.517,383.513 53.517,384.791C53.517,385.968 53.583,386.784 53.714,387.239C53.85,387.669 54.103,387.884 54.475,387.884C54.839,387.884 55.089,387.683 55.225,387.28C55.36,386.881 55.428,386.143 55.428,385.067L55.428,385.067Z" style="fill:rgb(158,161,168);fill-rule:nonzero;"/>
            <path id="path1170" d="M60.324,380.9L60.324,381.957C59.994,381.721 59.697,381.603 59.433,381.603C59.149,381.603 58.916,381.704 58.735,381.905C58.555,382.096 58.465,382.351 58.465,382.671C58.465,382.952 58.529,383.193 58.657,383.395C58.723,383.502 58.831,383.641 58.98,383.812C59.133,383.982 59.329,384.186 59.569,384.426C60.01,384.874 60.31,385.261 60.47,385.588C60.629,385.904 60.709,386.291 60.709,386.749C60.709,387.371 60.534,387.883 60.183,388.285C59.833,388.678 59.383,388.874 58.834,388.874C58.373,388.874 57.978,388.747 57.652,388.494L57.652,387.421C58.037,387.702 58.388,387.843 58.704,387.843C58.999,387.843 59.23,387.745 59.397,387.551C59.563,387.353 59.647,387.086 59.647,386.749C59.647,386.457 59.583,386.195 59.454,385.962C59.388,385.851 59.296,385.725 59.178,385.582C59.06,385.436 58.912,385.275 58.735,385.098C58.461,384.827 58.234,384.587 58.053,384.379C57.872,384.171 57.739,383.988 57.652,383.832C57.485,383.527 57.402,383.141 57.402,382.676C57.402,382.047 57.565,381.549 57.892,381.181C58.221,380.81 58.664,380.624 59.22,380.624C59.605,380.624 59.973,380.716 60.324,380.9L60.324,380.9Z" style="fill:rgb(158,161,168);fill-rule:nonzero;"/>
        </g>
        <g id="text1140" transform="matrix(1,0,0,0.727257,1.45688,65.1886)">
            <path id="path1173" d="M72.543,380.733L75.423,380.733L75.423,381.65L73.626,381.65L73.626,384.197L75.22,384.197L75.22,385.114L73.626,385.114L73.626,387.858L75.423,387.858L75.423,388.775L72.543,388.775L72.543,380.733Z" style="fill:rgb(158,161,168);fill-rule:nonzero;"/>
            <path id="path1175" d="M80.444,384.952C80.444,386.372 80.286,387.381 79.97,387.978C79.654,388.575 79.125,388.874 78.382,388.874C77.6,388.874 77.05,388.553 76.731,387.911C76.415,387.282 76.257,386.166 76.257,384.562C76.257,383.131 76.413,382.119 76.725,381.525C77.041,380.928 77.576,380.629 78.33,380.629C79.003,380.629 79.503,380.86 79.83,381.322C80.045,381.631 80.201,382.07 80.298,382.64C80.396,383.167 80.444,383.938 80.444,384.952L80.444,384.952ZM79.309,385.067C79.309,383.674 79.246,382.751 79.121,382.296C78.996,381.838 78.741,381.608 78.356,381.608C77.97,381.608 77.713,381.818 77.585,382.239C77.46,382.662 77.397,383.513 77.397,384.791C77.397,385.968 77.463,386.784 77.595,387.239C77.731,387.669 77.984,387.884 78.356,387.884C78.72,387.884 78.97,387.683 79.106,387.28C79.241,386.881 79.309,386.143 79.309,385.067Z" style="fill:rgb(158,161,168);fill-rule:nonzero;"/>
            <path id="path1177" d="M81.522,380.733L82.949,380.733C83.54,380.733 83.979,380.874 84.267,381.155C84.632,381.52 84.814,382.077 84.814,382.827C84.814,383.404 84.717,383.867 84.522,384.218C84.331,384.565 84.057,384.78 83.699,384.864L85.179,388.775L84.08,388.775L82.606,384.838L82.606,388.775L81.522,388.775L81.522,380.733ZM82.606,384.296C83.026,384.296 83.323,384.199 83.496,384.004C83.67,383.81 83.757,383.482 83.757,383.02C83.757,382.77 83.738,382.556 83.699,382.379C83.665,382.202 83.607,382.058 83.528,381.947C83.451,381.836 83.35,381.754 83.225,381.702C83.104,381.65 82.958,381.624 82.788,381.624L82.606,381.624L82.606,384.296Z" style="fill:rgb(158,161,168);fill-rule:nonzero;"/>
        </g>
        <g id="text1334" transform="matrix(0.637343,0,0,1.17676,7.25,-8.00002)">
            <rect id="path1336" x="29.419" y="280.281" width="1.151" height="8.542" style="fill:rgb(158,161,168);fill-rule:nonzero;"/>
            <path id="path1338" d="M31.898,280.281L32.971,280.281L34.116,283.689C34.448,284.652 34.741,285.679 34.996,286.771C34.904,286.111 34.835,285.513 34.791,284.979C34.747,284.444 34.725,283.94 34.725,283.468L34.725,280.281L35.881,280.281L35.881,288.824L34.802,288.824L33.513,284.979C33.395,284.621 33.283,284.254 33.176,283.878C33.072,283.501 32.976,283.107 32.888,282.694C32.881,282.642 32.868,282.579 32.849,282.506C32.834,282.432 32.816,282.347 32.794,282.251C32.805,282.347 32.814,282.43 32.822,282.5C32.829,282.566 32.834,282.624 32.838,282.672L32.899,283.54L32.96,284.597C32.963,284.656 32.965,284.728 32.965,284.813C32.969,284.897 32.971,284.993 32.971,285.1L33.032,288.824L31.898,288.824L31.898,280.281Z" style="fill:rgb(158,161,168);fill-rule:nonzero;"/>
            <rect id="path1340" x="36.55" y="285.46" width="2.014" height="0.863" style="fill:rgb(158,161,168);fill-rule:nonzero;"/>
            <path id="path1342" d="M43.499,284.763C43.499,286.271 43.331,287.343 42.996,287.977C42.66,288.612 42.098,288.929 41.308,288.929C40.478,288.929 39.894,288.588 39.555,287.905C39.219,287.238 39.051,286.052 39.051,284.348C39.051,282.828 39.217,281.753 39.549,281.122C39.885,280.488 40.453,280.171 41.253,280.171C41.969,280.171 42.5,280.416 42.846,280.907C43.075,281.235 43.241,281.701 43.344,282.306C43.448,282.867 43.499,283.686 43.499,284.763L43.499,284.763ZM42.293,284.884C42.293,283.405 42.227,282.424 42.094,281.941C41.961,281.454 41.69,281.211 41.281,281.211C40.871,281.211 40.598,281.434 40.462,281.88C40.329,282.33 40.263,283.234 40.263,284.591C40.263,285.842 40.333,286.708 40.473,287.192C40.617,287.649 40.886,287.878 41.281,287.878C41.668,287.878 41.933,287.664 42.077,287.236C42.221,286.812 42.293,286.028 42.293,284.884L42.293,284.884Z" style="fill:rgb(158,161,168);fill-rule:nonzero;"/>
            <path id="path1344" d="M44.644,280.281L45.773,280.281L45.773,286.317C45.773,286.933 45.828,287.343 45.939,287.546C46.053,287.748 46.278,287.85 46.614,287.85C46.95,287.85 47.171,287.761 47.278,287.584C47.389,287.404 47.444,287.037 47.444,286.483L47.444,280.281L48.573,280.281L48.573,286.483C48.573,287.413 48.431,288.042 48.147,288.37C47.807,288.743 47.289,288.929 46.592,288.929C45.825,288.929 45.284,288.689 44.971,288.21C44.753,287.881 44.644,287.251 44.644,286.317L44.644,280.281Z" style="fill:rgb(158,161,168);fill-rule:nonzero;"/>
            <path id="path1346" d="M49.209,280.281L52.954,280.281L52.954,281.288L51.665,281.288L51.665,288.824L50.537,288.824L50.537,281.288L49.209,281.288L49.209,280.281Z" style="fill:rgb(158,161,168);fill-rule:nonzero;"/>
        </g>
        <g id="text1437" transform="matrix(0.877143,0,0,1.14006,0,-6)">
            <path id="path1439" d="M10.052,273.936L10.052,274.764C9.816,274.649 9.618,274.591 9.459,274.591C9.24,274.591 9.052,274.646 8.896,274.755C8.739,274.861 8.609,275.027 8.506,275.251C8.406,275.476 8.33,275.761 8.28,276.106C8.233,276.449 8.209,276.855 8.209,277.325C8.209,279.014 8.642,279.859 9.507,279.859C9.658,279.859 9.84,279.811 10.052,279.717L10.052,280.563C9.831,280.687 9.583,280.749 9.308,280.749C7.923,280.749 7.23,279.618 7.23,277.356C7.23,276.133 7.399,275.223 7.735,274.627C8.075,274.03 8.593,273.732 9.29,273.732C9.547,273.732 9.801,273.8 10.052,273.936L10.052,273.936Z" style="fill:rgb(158,161,168);fill-rule:nonzero;"/>
            <path id="path1441" d="M10.823,273.825L11.744,273.825L11.744,276.501L13.096,276.501L13.096,273.825L14.017,273.825L14.017,280.665L13.096,280.665L13.096,277.28L11.744,277.28L11.744,280.665L10.823,280.665L10.823,273.825Z" style="fill:rgb(158,161,168);fill-rule:nonzero;"/>
            <path id="path1443" d="M16.05,273.825L16.768,273.825L18.234,280.665L17.322,280.665L17.065,279.331L15.709,279.331L15.448,280.665L14.562,280.665L16.05,273.825ZM16.932,278.618L16.728,277.528C16.592,276.787 16.482,275.996 16.396,275.154C16.355,275.564 16.301,275.981 16.236,276.403C16.171,276.822 16.095,277.268 16.006,277.741L15.838,278.618L16.932,278.618Z" style="fill:rgb(158,161,168);fill-rule:nonzero;"/>
            <rect id="path1445" x="18.779" y="273.825" width="0.921" height="6.84" style="fill:rgb(158,161,168);fill-rule:nonzero;"/>
            <path id="path1447" d="M20.764,273.825L21.623,273.825L22.54,276.554C22.806,277.325 23.041,278.147 23.245,279.021C23.171,278.493 23.116,278.014 23.081,277.586C23.045,277.158 23.028,276.755 23.028,276.377L23.028,273.825L23.954,273.825L23.954,280.665L23.09,280.665L22.057,277.586C21.963,277.299 21.873,277.006 21.787,276.704C21.705,276.403 21.628,276.087 21.557,275.756C21.551,275.715 21.541,275.665 21.526,275.606C21.514,275.547 21.499,275.479 21.482,275.402C21.49,275.479 21.498,275.545 21.504,275.601C21.51,275.654 21.514,275.7 21.517,275.739L21.566,276.434L21.615,277.28C21.617,277.327 21.619,277.385 21.619,277.453C21.622,277.521 21.623,277.598 21.623,277.683L21.672,280.665L20.764,280.665L20.764,273.825Z" style="fill:rgb(158,161,168);fill-rule:nonzero;"/>
            <rect id="path1449" x="26.895" y="273.825" width="0.921" height="6.84" style="fill:rgb(158,161,168);fill-rule:nonzero;"/>
            <path id="path1451" d="M28.88,273.825L29.739,273.825L30.656,276.554C30.922,277.325 31.157,278.147 31.361,279.021C31.287,278.493 31.232,278.014 31.197,277.586C31.161,277.158 31.143,276.755 31.143,276.377L31.143,273.825L32.069,273.825L32.069,280.665L31.205,280.665L30.173,277.586C30.079,277.299 29.989,277.006 29.903,276.704C29.82,276.403 29.744,276.087 29.673,275.756C29.667,275.715 29.656,275.665 29.642,275.606C29.63,275.547 29.615,275.479 29.597,275.402C29.606,275.479 29.614,275.545 29.62,275.601C29.625,275.654 29.63,275.7 29.633,275.739L29.682,276.434L29.73,277.28C29.733,277.327 29.735,277.385 29.735,277.453C29.738,277.521 29.739,277.598 29.739,277.683L29.788,280.665L28.88,280.665L28.88,273.825Z" style="fill:rgb(158,161,168);fill-rule:nonzero;"/>
            <path id="path1453" d="M34.962,276.08L35.813,276.08L35.813,280.665L34.962,280.665L34.962,276.08ZM35.361,274.131C35.514,274.131 35.647,274.187 35.76,274.299C35.872,274.411 35.928,274.545 35.928,274.702C35.928,274.861 35.872,274.997 35.76,275.11C35.647,275.222 35.511,275.278 35.352,275.278C35.192,275.278 35.057,275.222 34.944,275.11C34.835,275 34.781,274.863 34.781,274.698C34.781,274.544 34.837,274.411 34.949,274.299C35.07,274.187 35.207,274.131 35.361,274.131Z" style="fill:rgb(158,161,168);fill-rule:nonzero;"/>
            <path id="path1455" d="M36.77,276.08L37.616,276.08L37.616,276.607C37.858,276.205 38.171,276.004 38.555,276.004C38.927,276.004 39.193,276.151 39.352,276.443C39.441,276.608 39.485,276.929 39.485,277.404L39.485,280.665L38.639,280.665L38.634,277.599C38.634,277.289 38.598,277.069 38.524,276.939C38.45,276.809 38.323,276.744 38.143,276.744C38.045,276.744 37.963,276.762 37.895,276.797C37.83,276.83 37.777,276.885 37.735,276.961C37.694,277.035 37.663,277.133 37.642,277.254C37.624,277.375 37.616,277.524 37.616,277.701L37.616,280.665L36.77,280.665L36.77,276.08Z" style="fill:rgb(158,161,168);fill-rule:nonzero;"/>
            <path id="path1457" d="M39.959,276.08L40.867,276.08L41.2,277.533C41.268,277.828 41.325,278.141 41.372,278.472C41.42,278.8 41.458,279.159 41.488,279.548C41.505,279.457 41.514,279.404 41.514,279.389L41.616,278.707C41.654,278.447 41.73,278.055 41.842,277.533L42.148,276.08L42.967,276.08L41.771,280.665L41.199,280.665L39.959,276.08Z" style="fill:rgb(158,161,168);fill-rule:nonzero;"/>
            <path id="path1459" d="M48.837,277.413C48.837,278.621 48.703,279.479 48.434,279.987C48.165,280.495 47.715,280.749 47.083,280.749C46.418,280.749 45.95,280.476 45.678,279.929C45.41,279.395 45.275,278.445 45.275,277.081C45.275,275.864 45.408,275.003 45.674,274.498C45.943,273.99 46.397,273.736 47.038,273.736C47.611,273.736 48.037,273.933 48.314,274.325C48.497,274.588 48.63,274.962 48.713,275.446C48.796,275.895 48.837,276.551 48.837,277.413L48.837,277.413ZM47.871,277.511C47.871,276.326 47.818,275.541 47.712,275.154C47.605,274.764 47.388,274.569 47.06,274.569C46.733,274.569 46.514,274.748 46.405,275.105C46.299,275.465 46.245,276.189 46.245,277.276C46.245,278.277 46.301,278.971 46.414,279.358C46.529,279.724 46.744,279.907 47.06,279.907C47.371,279.907 47.583,279.736 47.698,279.393C47.814,279.054 47.871,278.426 47.871,277.511L47.871,277.511Z" style="fill:rgb(158,161,168);fill-rule:nonzero;"/>
            <path id="path1461" d="M49.754,273.825L50.658,273.825L50.658,278.658C50.658,279.151 50.702,279.479 50.791,279.641C50.882,279.804 51.062,279.885 51.331,279.885C51.6,279.885 51.777,279.814 51.863,279.672C51.951,279.528 51.996,279.234 51.996,278.791L51.996,273.825L52.899,273.825L52.899,278.791C52.899,279.535 52.786,280.039 52.558,280.302C52.286,280.6 51.871,280.749 51.313,280.749C50.699,280.749 50.266,280.557 50.015,280.173C49.841,279.91 49.754,279.405 49.754,278.658L49.754,273.825Z" style="fill:rgb(158,161,168);fill-rule:nonzero;"/>
            <path id="path1463" d="M53.409,273.825L56.408,273.825L56.408,274.631L55.376,274.631L55.376,280.665L54.472,280.665L54.472,274.631L53.409,274.631L53.409,273.825Z" style="fill:rgb(158,161,168);fill-rule:nonzero;"/>
        </g>
    </g>
</svg>
