<?xml version="1.0" encoding="UTF-8" standalone="no"?>
<!DOCTYPE svg PUBLIC "-//W3C//DTD SVG 1.1//EN" "http://www.w3.org/Graphics/SVG/1.1/DTD/svg11.dtd">
<svg width="100%" height="100%" viewBox="0 0 90 380" version="1.1" xmlns="http://www.w3.org/2000/svg" xmlns:xlink="http://www.w3.org/1999/xlink" xml:space="preserve" xmlns:serif="http://www.serif.com/" style="fill-rule:evenodd;clip-rule:evenodd;stroke-linejoin:round;stroke-miterlimit:2;">
    <g id="Layer-2" serif:id="Layer 2">
        <rect id="rect4689" x="0" y="0" width="90" height="380" style="fill:rgb(44,45,48);"/>
        <g id="text989">
        </g>
        <g id="text80" transform="matrix(1.00498,0,0,0.995047,-5.56788e-06,4.99997)">
            <path id="path4726" d="M29.851,371.706L29.851,363.943L31.853,363.943L32.903,366.668C32.96,366.829 33.024,367.013 33.094,367.221C33.168,367.429 33.249,367.668 33.336,367.94L33.552,368.624C33.475,367.95 33.416,367.373 33.376,366.894C33.336,366.415 33.316,366.013 33.316,365.687L33.316,363.943L35.317,363.943L35.317,371.706L33.316,371.706L32.26,368.85C32.149,368.545 32.049,368.26 31.958,367.995C31.871,367.727 31.794,367.472 31.727,367.231C31.77,367.777 31.802,368.253 31.822,368.659C31.843,369.065 31.853,369.42 31.853,369.725L31.853,371.706L29.851,371.706Z" style="fill:rgb(158,161,168);fill-rule:nonzero;"/>
            <path id="path4728" d="M39.887,371.706L37.791,371.706L37.791,368.418L35.865,363.943L38.052,363.943L38.429,365.094C38.503,365.319 38.568,365.535 38.625,365.743C38.686,365.951 38.739,366.15 38.786,366.341C38.863,366.056 38.93,365.811 38.987,365.607C39.044,365.399 39.095,365.232 39.138,365.104L39.52,363.943L41.692,363.943L39.887,368.418L39.887,371.706Z" style="fill:rgb(158,161,168);fill-rule:nonzero;"/>
            <path id="path4730" d="M41.894,371.515L41.894,369.076C42.306,369.639 42.752,369.921 43.231,369.921C43.412,369.921 43.56,369.874 43.673,369.78C43.787,369.683 43.844,369.562 43.844,369.418C43.844,369.21 43.72,369.008 43.472,368.81L43.13,368.543C42.902,368.372 42.708,368.203 42.547,368.035C42.386,367.865 42.256,367.69 42.155,367.513C42.054,367.332 41.981,367.146 41.934,366.954C41.887,366.763 41.863,366.562 41.863,366.351C41.863,365.989 41.947,365.61 42.115,365.215C42.199,365.03 42.296,364.863 42.406,364.712C42.517,364.558 42.644,364.422 42.789,364.305C43.184,363.969 43.662,363.802 44.222,363.802C44.721,363.802 45.224,363.934 45.73,364.199L45.73,366.572C45.559,366.308 45.365,366.1 45.147,365.949C44.929,365.795 44.714,365.718 44.503,365.718C44.342,365.718 44.21,365.765 44.106,365.858C43.999,365.949 43.945,366.058 43.945,366.185C43.945,366.393 44.087,366.599 44.372,366.804L44.704,367.05C45.147,367.368 45.463,367.695 45.655,368.03C45.849,368.366 45.946,368.758 45.946,369.207C45.946,369.971 45.713,370.601 45.247,371.098C44.781,371.594 44.191,371.842 43.477,371.842C42.985,371.842 42.457,371.733 41.894,371.515L41.894,371.515Z" style="fill:rgb(158,161,168);fill-rule:nonzero;"/>
            <path id="path4732" d="M49.576,371.706L47.48,371.706L47.48,365.803L46.323,365.803L46.323,363.943L50.778,363.943L50.778,365.803L49.576,365.803L49.576,371.706Z" style="fill:rgb(158,161,168);fill-rule:nonzero;"/>
            <path id="path4734" d="M56.525,371.706L54.428,371.706L54.428,368.584L53.428,368.584L53.428,371.706L51.331,371.706L51.331,363.943L53.428,363.943L53.428,366.688L54.428,366.688L54.428,363.943L56.525,363.943L56.525,371.706Z" style="fill:rgb(158,161,168);fill-rule:nonzero;"/>
            <rect id="path4736" x="57.606" y="363.943" width="2.097" height="7.763" style="fill:rgb(158,161,168);fill-rule:nonzero;"/>
        </g>
        <rect id="rect4778-3-6" x="25" y="33" width="40" height="40" style="fill:rgb(158,161,168);"/>
        <g id="text4987">
        </g>
        <g id="text938" transform="matrix(1,0,0,1,5.15104,51)">
            <path id="path963" d="M14.146,128.039L14.146,129.625C13.651,129.271 13.205,129.094 12.81,129.094C12.382,129.094 12.034,129.245 11.763,129.547C11.492,129.833 11.356,130.216 11.356,130.695C11.356,131.117 11.453,131.479 11.646,131.781C11.744,131.943 11.906,132.151 12.13,132.406C12.359,132.661 12.653,132.969 13.013,133.328C13.674,134 14.125,134.581 14.364,135.07C14.604,135.544 14.724,136.125 14.724,136.812C14.724,137.745 14.461,138.513 13.935,139.117C13.409,139.706 12.734,140 11.911,140C11.218,140 10.627,139.81 10.138,139.43L10.138,137.82C10.716,138.242 11.242,138.453 11.716,138.453C12.159,138.453 12.505,138.307 12.755,138.016C13.005,137.719 13.13,137.318 13.13,136.812C13.13,136.375 13.034,135.982 12.841,135.633C12.742,135.466 12.604,135.276 12.427,135.062C12.25,134.844 12.028,134.602 11.763,134.336C11.351,133.93 11.01,133.57 10.739,133.258C10.468,132.945 10.268,132.672 10.138,132.437C9.888,131.979 9.763,131.401 9.763,130.703C9.763,129.76 10.007,129.013 10.497,128.461C10.992,127.904 11.656,127.625 12.489,127.625C13.067,127.625 13.619,127.763 14.146,128.039Z" style="fill:rgb(158,161,168);fill-rule:nonzero;"/>
            <path id="path965" d="M15.317,127.789L20.606,127.789L20.606,129.211L18.786,129.211L18.786,139.852L17.192,139.852L17.192,129.211L15.317,129.211L15.317,127.789Z" style="fill:rgb(158,161,168);fill-rule:nonzero;"/>
            <path id="path967" d="M22.997,127.789L24.263,127.789L26.849,139.852L25.239,139.852L24.786,137.5L22.396,137.5L21.935,139.852L20.372,139.852L22.997,127.789ZM24.552,136.242L24.192,134.32C23.953,133.013 23.757,131.617 23.606,130.133C23.534,130.857 23.44,131.591 23.325,132.336C23.211,133.076 23.075,133.862 22.919,134.695L22.622,136.242L24.552,136.242Z" style="fill:rgb(158,161,168);fill-rule:nonzero;"/>
            <path id="path969" d="M27.81,127.789L29.95,127.789C30.836,127.789 31.494,128 31.927,128.422C32.474,128.969 32.747,129.805 32.747,130.93C32.747,131.794 32.601,132.49 32.31,133.016C32.023,133.536 31.612,133.859 31.075,133.984L33.294,139.852L31.646,139.852L29.435,133.945L29.435,139.852L27.81,139.852L27.81,127.789ZM29.435,133.133C30.065,133.133 30.51,132.987 30.771,132.695C31.031,132.404 31.161,131.911 31.161,131.219C31.161,130.844 31.132,130.523 31.075,130.258C31.023,129.992 30.937,129.776 30.817,129.609C30.703,129.443 30.552,129.32 30.364,129.242C30.182,129.164 29.963,129.125 29.708,129.125L29.435,129.125L29.435,133.133Z" style="fill:rgb(158,161,168);fill-rule:nonzero;"/>
            <path id="path971" d="M33.755,127.789L39.044,127.789L39.044,129.211L37.224,129.211L37.224,139.852L35.63,139.852L35.63,129.211L33.755,129.211L33.755,127.789Z" style="fill:rgb(158,161,168);fill-rule:nonzero;"/>
        </g>
        <g id="text942" transform="matrix(1,0,0,1,5.15104,53)">
            <path id="path954" d="M18.817,168.039L18.817,169.625C18.323,169.271 17.877,169.094 17.481,169.094C17.054,169.094 16.705,169.245 16.435,169.547C16.164,169.833 16.028,170.216 16.028,170.695C16.028,171.117 16.125,171.479 16.317,171.781C16.416,171.943 16.578,172.151 16.802,172.406C17.031,172.661 17.325,172.969 17.685,173.328C18.346,174 18.797,174.581 19.036,175.07C19.276,175.544 19.396,176.125 19.396,176.812C19.396,177.745 19.132,178.513 18.606,179.117C18.08,179.706 17.406,180 16.583,180C15.89,180 15.299,179.81 14.81,179.43L14.81,177.82C15.388,178.242 15.914,178.453 16.388,178.453C16.83,178.453 17.177,178.307 17.427,178.016C17.677,177.719 17.802,177.318 17.802,176.812C17.802,176.375 17.705,175.982 17.513,175.633C17.414,175.466 17.276,175.276 17.099,175.062C16.922,174.844 16.7,174.602 16.435,174.336C16.023,173.93 15.682,173.57 15.411,173.258C15.14,172.945 14.94,172.672 14.81,172.437C14.56,171.979 14.435,171.401 14.435,170.703C14.435,169.76 14.679,169.013 15.169,168.461C15.664,167.904 16.328,167.625 17.161,167.625C17.739,167.625 18.291,167.763 18.817,168.039Z" style="fill:rgb(158,161,168);fill-rule:nonzero;"/>
            <path id="path956" d="M19.989,167.789L25.278,167.789L25.278,169.211L23.458,169.211L23.458,179.852L21.864,179.852L21.864,169.211L19.989,169.211L19.989,167.789Z" style="fill:rgb(158,161,168);fill-rule:nonzero;"/>
            <path id="path958" d="M32.333,174.117C32.333,176.247 32.096,177.76 31.622,178.656C31.148,179.552 30.354,180 29.239,180C28.067,180 27.242,179.518 26.763,178.555C26.289,177.612 26.052,175.938 26.052,173.531C26.052,171.385 26.286,169.867 26.755,168.977C27.229,168.081 28.031,167.633 29.161,167.633C30.172,167.633 30.922,167.979 31.411,168.672C31.734,169.135 31.968,169.794 32.114,170.648C32.26,171.44 32.333,172.596 32.333,174.117L32.333,174.117ZM30.63,174.289C30.63,172.201 30.536,170.815 30.349,170.133C30.161,169.445 29.778,169.102 29.2,169.102C28.622,169.102 28.237,169.417 28.044,170.047C27.856,170.682 27.763,171.958 27.763,173.875C27.763,175.641 27.862,176.865 28.06,177.547C28.263,178.193 28.643,178.516 29.2,178.516C29.747,178.516 30.122,178.214 30.325,177.609C30.528,177.01 30.63,175.904 30.63,174.289L30.63,174.289Z" style="fill:rgb(158,161,168);fill-rule:nonzero;"/>
            <path id="path960" d="M33.95,167.789L36.091,167.789C37.122,167.789 37.872,168.049 38.341,168.57C38.81,169.096 39.044,169.93 39.044,171.07C39.044,172.674 38.573,173.711 37.63,174.18C37.156,174.393 36.471,174.5 35.575,174.5L35.575,179.852L33.95,179.852L33.95,167.789ZM35.575,173.109C36.247,173.109 36.711,172.974 36.966,172.703C37.226,172.427 37.356,171.937 37.356,171.234C37.356,170.516 37.231,169.99 36.981,169.656C36.731,169.323 36.338,169.156 35.802,169.156L35.575,169.156L35.575,173.109Z" style="fill:rgb(158,161,168);fill-rule:nonzero;"/>
        </g>
        <g id="text892" transform="matrix(1,0,0,1,-10.849,54)">
            <path id="path907" d="M24.195,145.859L27.721,145.859L27.721,146.807L26.507,146.807L26.507,153.901L25.445,153.901L25.445,146.807L24.195,146.807L24.195,145.859Z" style="fill:rgb(158,161,168);fill-rule:nonzero;"/>
            <path id="path909" d="M28.315,145.859L29.742,145.859C30.332,145.859 30.771,146 31.06,146.281C31.424,146.646 31.606,147.203 31.606,147.953C31.606,148.53 31.509,148.993 31.315,149.344C31.124,149.691 30.85,149.906 30.492,149.99L31.971,153.901L30.872,153.901L29.398,149.964L29.398,153.901L28.315,153.901L28.315,145.859ZM29.398,149.422C29.818,149.422 30.115,149.325 30.289,149.13C30.462,148.936 30.549,148.608 30.549,148.146C30.549,147.896 30.53,147.682 30.492,147.505C30.457,147.328 30.4,147.184 30.32,147.073C30.244,146.962 30.143,146.88 30.018,146.828C29.896,146.776 29.751,146.75 29.58,146.75L29.398,146.75L29.398,149.422Z" style="fill:rgb(158,161,168);fill-rule:nonzero;"/>
            <rect id="path911" x="32.815" y="145.859" width="1.083" height="8.042" style="fill:rgb(158,161,168);fill-rule:nonzero;"/>
            <path id="path913" d="M37.075,149.672L39.044,149.672L39.044,149.984C39.044,151.55 38.907,152.608 38.632,153.156C38.362,153.719 37.855,154 37.112,154C36.344,154 35.797,153.687 35.471,153.062C35.148,152.437 34.987,151.387 34.987,149.911C34.987,148.224 35.164,147.101 35.518,146.542C35.851,146.017 36.363,145.755 37.054,145.755C37.582,145.755 37.994,145.882 38.289,146.135C38.587,146.392 38.82,146.814 38.987,147.401L37.976,147.823C37.931,147.611 37.881,147.434 37.825,147.292C37.77,147.146 37.709,147.033 37.643,146.953C37.511,146.79 37.313,146.708 37.049,146.708C36.688,146.708 36.442,146.931 36.31,147.375C36.178,147.84 36.112,148.675 36.112,149.88C36.112,151.099 36.179,151.924 36.315,152.354C36.45,152.785 36.705,153 37.08,153C37.424,153 37.665,152.847 37.804,152.542C37.947,152.215 38.018,151.691 38.018,150.969L38.018,150.75L38.018,150.589L37.075,150.589L37.075,149.672Z" style="fill:rgb(158,161,168);fill-rule:nonzero;"/>
        </g>
        <g id="text896" transform="matrix(1,0,0,1,-10.849,46)">
            <path id="path898" d="M24.195,195.859L27.721,195.859L27.721,196.807L26.507,196.807L26.507,203.901L25.445,203.901L25.445,196.807L24.195,196.807L24.195,195.859Z" style="fill:rgb(158,161,168);fill-rule:nonzero;"/>
            <path id="path900" d="M28.315,195.859L29.742,195.859C30.332,195.859 30.771,196 31.06,196.281C31.424,196.646 31.606,197.203 31.606,197.953C31.606,198.53 31.509,198.993 31.315,199.344C31.124,199.691 30.85,199.906 30.492,199.99L31.971,203.901L30.872,203.901L29.398,199.964L29.398,203.901L28.315,203.901L28.315,195.859ZM29.398,199.422C29.818,199.422 30.115,199.325 30.289,199.13C30.462,198.936 30.549,198.608 30.549,198.146C30.549,197.896 30.53,197.682 30.492,197.505C30.457,197.328 30.4,197.184 30.32,197.073C30.244,196.962 30.143,196.88 30.018,196.828C29.896,196.776 29.751,196.75 29.58,196.75L29.398,196.75L29.398,199.422Z" style="fill:rgb(158,161,168);fill-rule:nonzero;"/>
            <rect id="path902" x="32.815" y="195.859" width="1.083" height="8.042" style="fill:rgb(158,161,168);fill-rule:nonzero;"/>
            <path id="path904" d="M37.075,199.672L39.044,199.672L39.044,199.984C39.044,201.55 38.907,202.608 38.632,203.156C38.362,203.719 37.855,204 37.112,204C36.344,204 35.797,203.687 35.471,203.062C35.148,202.437 34.987,201.387 34.987,199.911C34.987,198.224 35.164,197.101 35.518,196.542C35.851,196.017 36.363,195.755 37.054,195.755C37.582,195.755 37.994,195.882 38.289,196.135C38.587,196.392 38.82,196.814 38.987,197.401L37.976,197.823C37.931,197.611 37.881,197.434 37.825,197.292C37.77,197.146 37.709,197.033 37.643,196.953C37.511,196.79 37.313,196.708 37.049,196.708C36.688,196.708 36.442,196.931 36.31,197.375C36.178,197.84 36.112,198.675 36.112,199.88C36.112,201.099 36.179,201.924 36.315,202.354C36.45,202.785 36.705,203 37.08,203C37.424,203 37.665,202.847 37.804,202.542C37.947,202.215 38.018,201.691 38.018,200.969L38.018,200.75L38.018,200.589L37.075,200.589L37.075,199.672Z" style="fill:rgb(158,161,168);fill-rule:nonzero;"/>
        </g>
        <g id="text918" transform="matrix(1,0,0,1,-7.67448,-30.9571)">
            <path id="path924" d="M22.424,301.816L23.268,301.816L24.992,309.858L23.919,309.858L23.617,308.29L22.023,308.29L21.716,309.858L20.674,309.858L22.424,301.816ZM23.461,307.452L23.221,306.171C23.062,305.299 22.931,304.369 22.831,303.379C22.782,303.862 22.72,304.351 22.643,304.848C22.567,305.341 22.477,305.865 22.372,306.421L22.174,307.452L23.461,307.452Z" style="fill:rgb(158,161,168);fill-rule:nonzero;"/>
            <path id="path926" d="M25.633,301.816L26.695,301.816L26.695,307.499C26.695,308.079 26.747,308.464 26.852,308.655C26.959,308.846 27.171,308.941 27.487,308.941C27.803,308.941 28.011,308.858 28.112,308.691C28.216,308.521 28.268,308.176 28.268,307.655L28.268,301.816L29.331,301.816L29.331,307.655C29.331,308.53 29.197,309.122 28.93,309.431C28.61,309.782 28.122,309.957 27.466,309.957C26.744,309.957 26.235,309.731 25.94,309.28C25.735,308.971 25.633,308.377 25.633,307.499L25.633,301.816Z" style="fill:rgb(158,161,168);fill-rule:nonzero;"/>
            <path id="path928" d="M29.93,301.816L33.456,301.816L33.456,302.764L32.242,302.764L32.242,309.858L31.18,309.858L31.18,302.764L29.93,302.764L29.93,301.816Z" style="fill:rgb(158,161,168);fill-rule:nonzero;"/>
            <path id="path930" d="M38.159,306.035C38.159,307.455 38.001,308.464 37.685,309.061C37.369,309.659 36.839,309.957 36.096,309.957C35.315,309.957 34.765,309.636 34.445,308.994C34.129,308.365 33.971,307.249 33.971,305.645C33.971,304.214 34.128,303.202 34.44,302.608C34.756,302.011 35.291,301.712 36.044,301.712C36.718,301.712 37.218,301.943 37.544,302.405C37.76,302.714 37.916,303.153 38.013,303.723C38.11,304.251 38.159,305.021 38.159,306.035L38.159,306.035ZM37.023,306.15C37.023,304.757 36.961,303.834 36.836,303.379C36.711,302.921 36.456,302.692 36.07,302.692C35.685,302.692 35.428,302.902 35.299,303.322C35.174,303.745 35.112,304.596 35.112,305.874C35.112,307.051 35.178,307.867 35.31,308.322C35.445,308.752 35.699,308.968 36.07,308.968C36.435,308.968 36.685,308.766 36.82,308.363C36.956,307.964 37.023,307.226 37.023,306.15L37.023,306.15Z" style="fill:rgb(158,161,168);fill-rule:nonzero;"/>
            <path id="path932" d="M41.919,301.983L41.919,303.04C41.589,302.804 41.293,302.686 41.029,302.686C40.744,302.686 40.511,302.787 40.331,302.988C40.15,303.179 40.06,303.435 40.06,303.754C40.06,304.035 40.124,304.277 40.253,304.478C40.319,304.586 40.426,304.724 40.576,304.895C40.728,305.065 40.924,305.27 41.164,305.509C41.605,305.957 41.905,306.344 42.065,306.671C42.225,306.987 42.305,307.374 42.305,307.832C42.305,308.454 42.129,308.966 41.779,309.369C41.428,309.761 40.978,309.957 40.43,309.957C39.968,309.957 39.574,309.83 39.247,309.577L39.247,308.504C39.633,308.785 39.984,308.926 40.299,308.926C40.595,308.926 40.826,308.829 40.992,308.634C41.159,308.436 41.242,308.169 41.242,307.832C41.242,307.54 41.178,307.278 41.049,307.046C40.984,306.935 40.892,306.808 40.773,306.665C40.655,306.52 40.508,306.358 40.331,306.181C40.056,305.91 39.829,305.671 39.648,305.462C39.468,305.254 39.334,305.072 39.247,304.915C39.081,304.61 38.997,304.224 38.997,303.759C38.997,303.131 39.161,302.632 39.487,302.264C39.817,301.893 40.26,301.707 40.815,301.707C41.201,301.707 41.569,301.799 41.919,301.983L41.919,301.983Z" style="fill:rgb(158,161,168);fill-rule:nonzero;"/>
            <path id="path934" d="M44.487,301.816L45.331,301.816L47.055,309.858L45.982,309.858L45.68,308.29L44.086,308.29L43.779,309.858L42.737,309.858L44.487,301.816ZM45.523,307.452L45.284,306.171C45.124,305.299 44.994,304.369 44.893,303.379C44.845,303.862 44.782,304.351 44.706,304.848C44.629,305.341 44.539,305.865 44.435,306.421L44.237,307.452L45.523,307.452Z" style="fill:rgb(158,161,168);fill-rule:nonzero;"/>
            <path id="path936" d="M46.867,301.816L47.935,301.816L48.419,304.785L48.503,305.322L48.675,306.488C48.702,306.686 48.727,306.867 48.747,307.03C48.772,307.193 48.792,307.341 48.81,307.473L48.862,307.869C48.872,307.789 48.881,307.718 48.888,307.655C48.895,307.593 48.902,307.54 48.909,307.499L49.05,306.566L49.232,305.343C49.249,305.231 49.265,305.129 49.279,305.035C49.296,304.942 49.312,304.858 49.326,304.785L49.846,301.816L50.857,301.816L49.279,309.858L48.419,309.858L46.867,301.816Z" style="fill:rgb(158,161,168);fill-rule:nonzero;"/>
            <path id="path938" d="M51.445,301.816L54.326,301.816L54.326,302.733L52.529,302.733L52.529,305.28L54.122,305.28L54.122,306.197L52.529,306.197L52.529,308.941L54.326,308.941L54.326,309.858L51.445,309.858L51.445,301.816Z" style="fill:rgb(158,161,168);fill-rule:nonzero;"/>
        </g>
        <g id="text1321">
        </g>
        <g id="text1144" transform="matrix(0.82361,0,0,1.21417,0,0)">
            <path id="path1173" d="M9.078,14.63L6.071,14.63L6.071,3.496L8.984,3.496C10.436,3.496 11.513,3.792 12.215,4.383C13.042,5.08 13.455,6.049 13.455,7.289C13.455,8.64 13.015,9.647 12.135,10.311C11.534,10.758 10.672,10.981 9.547,10.981L9.078,10.981L9.078,14.63ZM9.078,8.479L9.215,8.486C9.58,8.486 9.871,8.376 10.087,8.155C10.304,7.929 10.412,7.621 10.412,7.232C10.412,6.847 10.306,6.535 10.095,6.294C9.883,6.049 9.614,5.926 9.287,5.926L9.078,5.926L9.078,8.479Z" style="fill:rgb(158,161,168);fill-rule:nonzero;"/>
            <path id="path1175" d="M22.707,9.099C22.707,10.796 22.32,12.176 21.546,13.239C20.777,14.296 19.774,14.825 18.539,14.825C17.443,14.825 16.503,14.419 15.719,13.606C14.734,12.578 14.241,11.034 14.241,8.977C14.241,7.006 14.755,5.499 15.784,4.455C16.549,3.681 17.455,3.294 18.503,3.294C19.786,3.294 20.808,3.818 21.567,4.866C22.327,5.914 22.707,7.325 22.707,9.099ZM19.584,9.121C19.584,7.107 19.229,6.1 18.517,6.1C18.161,6.1 17.878,6.364 17.666,6.893C17.46,7.383 17.356,8.104 17.356,9.056C17.356,9.994 17.452,10.722 17.645,11.241C17.842,11.755 18.113,12.013 18.459,12.013C18.815,12.013 19.089,11.758 19.282,11.248C19.483,10.739 19.584,10.03 19.584,9.121L19.584,9.121Z" style="fill:rgb(158,161,168);fill-rule:nonzero;"/>
            <path id="path1177" d="M29.247,14.63L23.983,14.63L23.983,3.496L26.99,3.496L26.99,11.955L29.247,11.955L29.247,14.63Z" style="fill:rgb(158,161,168);fill-rule:nonzero;"/>
            <path id="path1179" d="M34.483,14.63L31.476,14.63L31.476,9.914L28.714,3.496L31.85,3.496L32.391,5.148C32.497,5.47 32.591,5.78 32.673,6.078C32.759,6.376 32.836,6.662 32.903,6.936C33.014,6.527 33.11,6.176 33.192,5.883C33.273,5.585 33.346,5.345 33.408,5.162L33.956,3.496L37.071,3.496L34.483,9.914L34.483,14.63Z" style="fill:rgb(158,161,168);fill-rule:nonzero;"/>
            <path id="path1181" d="M45.775,14.63L42.523,14.63L41.037,10.664C41.023,10.597 40.997,10.508 40.958,10.397C40.924,10.287 40.881,10.155 40.828,10.001L40.85,10.736L40.85,14.63L37.857,14.63L37.857,3.496L40.936,3.496C42.292,3.496 43.307,3.763 43.98,4.297C44.835,4.979 45.263,5.951 45.263,7.21C45.263,8.556 44.689,9.486 43.54,10.001L45.775,14.63ZM40.864,8.652L41.066,8.652C41.412,8.652 41.701,8.52 41.932,8.256C42.162,7.991 42.278,7.655 42.278,7.246C42.278,6.414 41.843,5.999 40.973,5.999L40.864,5.999L40.864,8.652Z" style="fill:rgb(158,161,168);fill-rule:nonzero;"/>
            <path id="path1183" d="M46.77,14.63L46.77,3.496L52.359,3.496L52.359,6.114L49.777,6.114L49.777,7.736L52.092,7.736L52.092,10.253L49.777,10.253L49.777,11.955L52.359,11.955L52.359,14.63L46.77,14.63Z" style="fill:rgb(158,161,168);fill-rule:nonzero;"/>
            <path id="path1185" d="M59.894,11.205L59.721,14.421C59.053,14.69 58.455,14.825 57.926,14.825C56.681,14.825 55.633,14.368 54.782,13.455C53.83,12.431 53.354,10.981 53.354,9.107C53.354,7.352 53.801,5.943 54.695,4.881C55.589,3.823 56.784,3.294 58.279,3.294C58.765,3.294 59.26,3.386 59.765,3.568L59.765,6.749C59.318,6.301 58.858,6.078 58.387,6.078C57.772,6.078 57.291,6.34 56.945,6.864C56.599,7.393 56.426,8.123 56.426,9.056C56.426,9.508 56.469,9.912 56.556,10.268C56.642,10.623 56.765,10.924 56.923,11.169C57.087,11.414 57.286,11.602 57.522,11.731C57.758,11.861 58.027,11.926 58.33,11.926C58.849,11.926 59.37,11.686 59.894,11.205L59.894,11.205Z" style="fill:rgb(158,161,168);fill-rule:nonzero;"/>
            <path id="path1187" d="M69.262,9.099C69.262,10.796 68.875,12.176 68.101,13.239C67.331,14.296 66.329,14.825 65.094,14.825C63.998,14.825 63.058,14.419 62.274,13.606C61.289,12.578 60.796,11.034 60.796,8.977C60.796,7.006 61.31,5.499 62.339,4.455C63.103,3.681 64.01,3.294 65.058,3.294C66.341,3.294 67.363,3.818 68.122,4.866C68.882,5.914 69.262,7.325 69.262,9.099ZM66.139,9.121C66.139,7.107 65.783,6.1 65.072,6.1C64.716,6.1 64.433,6.364 64.221,6.893C64.014,7.383 63.911,8.104 63.911,9.056C63.911,9.994 64.007,10.722 64.199,11.241C64.397,11.755 64.668,12.013 65.014,12.013C65.37,12.013 65.644,11.758 65.836,11.248C66.038,10.739 66.139,10.03 66.139,9.121Z" style="fill:rgb(158,161,168);fill-rule:nonzero;"/>
            <path id="path1189" d="M78.456,14.63L75.204,14.63L73.718,10.664C73.704,10.597 73.677,10.508 73.639,10.397C73.605,10.287 73.562,10.155 73.509,10.001L73.531,10.736L73.531,14.63L70.538,14.63L70.538,3.496L73.617,3.496C74.973,3.496 75.987,3.763 76.66,4.297C77.516,4.979 77.944,5.951 77.944,7.21C77.944,8.556 77.369,9.486 76.22,10.001L78.456,14.63ZM73.545,8.652L73.747,8.652C74.093,8.652 74.381,8.52 74.612,8.256C74.843,7.991 74.958,7.655 74.958,7.246C74.958,6.414 74.523,5.999 73.653,5.999L73.545,5.999L73.545,8.652Z" style="fill:rgb(158,161,168);fill-rule:nonzero;"/>
            <path id="path1191" d="M79.451,14.63L79.451,3.496L82.047,3.496C83.532,3.496 84.689,3.895 85.515,4.693C86.602,5.737 87.145,7.196 87.145,9.071C87.145,10.917 86.686,12.342 85.768,13.347C84.984,14.202 83.816,14.63 82.263,14.63L79.451,14.63ZM82.458,11.941C83.535,11.888 84.073,10.96 84.073,9.157C84.073,8.268 83.936,7.566 83.662,7.051C83.388,6.532 83.018,6.273 82.552,6.273L82.458,6.273L82.458,11.941Z" style="fill:rgb(158,161,168);fill-rule:nonzero;"/>
            <path id="path1193" d="M88.422,14.63L88.422,3.496L94.01,3.496L94.01,6.114L91.429,6.114L91.429,7.736L93.743,7.736L93.743,10.253L91.429,10.253L91.429,11.955L94.01,11.955L94.01,14.63L88.422,14.63Z" style="fill:rgb(158,161,168);fill-rule:nonzero;"/>
            <path id="path1195" d="M103.204,14.63L99.952,14.63L98.467,10.664C98.452,10.597 98.426,10.508 98.387,10.397C98.354,10.287 98.31,10.155 98.257,10.001L98.279,10.736L98.279,14.63L95.286,14.63L95.286,3.496L98.366,3.496C99.721,3.496 100.736,3.763 101.409,4.297C102.264,4.979 102.692,5.951 102.692,7.21C102.692,8.556 102.118,9.486 100.969,10.001L103.204,14.63ZM98.293,8.652L98.495,8.652C98.842,8.652 99.13,8.52 99.361,8.256C99.591,7.991 99.707,7.655 99.707,7.246C99.707,6.414 99.272,5.999 98.402,5.999L98.293,5.999L98.293,8.652Z" style="fill:rgb(158,161,168);fill-rule:nonzero;"/>
        </g>
        <g id="text1152" transform="matrix(0.973329,0,0,1.0274,0,0)">
            <path id="path1160" d="M32.936,65.837L30.822,65.837L30.822,58.009L32.87,58.009C33.891,58.009 34.648,58.217 35.141,58.633C35.723,59.123 36.013,59.804 36.013,60.676C36.013,61.626 35.704,62.334 35.085,62.8C34.663,63.114 34.056,63.271 33.266,63.271L32.936,63.271L32.936,65.837ZM32.936,61.512L33.032,61.517C33.289,61.517 33.494,61.44 33.646,61.284C33.798,61.125 33.874,60.909 33.874,60.635C33.874,60.365 33.8,60.145 33.651,59.976C33.502,59.804 33.313,59.718 33.083,59.718L32.936,59.718L32.936,61.512Z" style="fill:rgb(44,45,48);fill-rule:nonzero;"/>
            <path id="path1162" d="M41.524,63.18C41.524,64.025 41.29,64.698 40.824,65.198C40.358,65.698 39.732,65.948 38.948,65.948C38.178,65.948 37.564,65.693 37.108,65.183C36.655,64.669 36.429,63.979 36.429,63.114C36.429,62.249 36.66,61.555 37.123,61.031C37.583,60.504 38.193,60.24 38.953,60.24C39.754,60.24 40.383,60.502 40.839,61.026C41.295,61.55 41.524,62.268 41.524,63.18ZM39.552,63.114C39.552,62.911 39.538,62.729 39.511,62.567C39.484,62.401 39.445,62.261 39.394,62.146C39.344,62.028 39.283,61.936 39.212,61.872C39.141,61.808 39.062,61.776 38.974,61.776C38.801,61.776 38.663,61.898 38.558,62.141C38.453,62.354 38.401,62.673 38.401,63.099C38.401,63.518 38.453,63.838 38.558,64.057C38.663,64.301 38.803,64.422 38.979,64.422C39.144,64.422 39.281,64.302 39.389,64.062C39.498,63.795 39.552,63.479 39.552,63.114L39.552,63.114Z" style="fill:rgb(44,45,48);fill-rule:nonzero;"/>
            <rect id="path1164" x="42.304" y="57.274" width="2.033" height="8.562" style="fill:rgb(44,45,48);fill-rule:nonzero;"/>
            <path id="path1166" d="M47.729,68.133L45.635,68.133L46.522,65.608L44.895,60.357L46.938,60.357L47.328,61.928C47.382,62.144 47.429,62.381 47.47,62.638C47.514,62.891 47.551,63.167 47.582,63.464L47.653,62.962C47.747,62.323 47.833,61.85 47.911,61.543L48.215,60.357L50.248,60.357L47.729,68.133Z" style="fill:rgb(44,45,48);fill-rule:nonzero;"/>
            <path id="path1168" d="M55.875,65.837L53.837,65.837L53.837,60.357L55.875,60.357L55.875,65.837ZM56.047,58.658C56.047,58.979 55.931,59.256 55.698,59.49C55.458,59.719 55.179,59.834 54.861,59.834C54.533,59.834 54.253,59.718 54.02,59.485C53.79,59.245 53.675,58.964 53.675,58.643C53.675,58.315 53.79,58.036 54.02,57.807C54.26,57.577 54.538,57.462 54.856,57.462C55.191,57.462 55.473,57.578 55.703,57.812C55.933,58.041 56.047,58.324 56.047,58.658L56.047,58.658Z" style="fill:rgb(44,45,48);fill-rule:nonzero;"/>
            <path id="path1170" d="M61.644,65.837L59.611,65.837L59.611,62.937C59.611,62.687 59.586,62.513 59.535,62.415C59.488,62.317 59.403,62.268 59.282,62.268C58.998,62.268 58.856,62.536 58.856,63.074L58.856,65.837L56.823,65.837L56.823,60.356L58.856,60.356C58.853,60.492 58.849,60.617 58.846,60.732C58.842,60.847 58.837,60.953 58.831,61.051L58.81,61.401C59.138,60.627 59.618,60.24 60.25,60.24C60.689,60.24 61.031,60.404 61.274,60.732C61.521,61.059 61.644,61.516 61.644,62.1L61.644,65.837Z" style="fill:rgb(44,45,48);fill-rule:nonzero;"/>
        </g>
    </g>
</svg>
