<?xml version="1.0" encoding="UTF-8" standalone="no"?>
<!DOCTYPE svg PUBLIC "-//W3C//DTD SVG 1.1//EN" "http://www.w3.org/Graphics/SVG/1.1/DTD/svg11.dtd">
<svg width="100%" height="100%" viewBox="0 0 150 380" version="1.1" xmlns="http://www.w3.org/2000/svg" xmlns:xlink="http://www.w3.org/1999/xlink" xml:space="preserve" xmlns:serif="http://www.serif.com/" style="fill-rule:evenodd;clip-rule:evenodd;">
    <g id="Layer-2" serif:id="Layer 2">
        <rect id="rect4689" x="0" y="0" width="150" height="380" style="fill:rgb(44,45,48);"/>
        <g id="text989">
        </g>
        <g id="text80" transform="matrix(1.00498,0,0,0.995047,30,4.99997)">
            <path id="path4726" d="M29.851,371.706L29.851,363.943L31.853,363.943L32.903,366.668C32.96,366.829 33.024,367.013 33.094,367.221C33.168,367.429 33.249,367.668 33.336,367.94L33.552,368.624C33.475,367.95 33.416,367.373 33.376,366.894C33.336,366.415 33.316,366.013 33.316,365.687L33.316,363.943L35.317,363.943L35.317,371.706L33.316,371.706L32.26,368.85C32.149,368.545 32.049,368.26 31.958,367.995C31.871,367.727 31.794,367.472 31.727,367.231C31.77,367.777 31.802,368.253 31.822,368.659C31.843,369.065 31.853,369.42 31.853,369.725L31.853,371.706L29.851,371.706Z" style="fill:rgb(158,161,168);fill-rule:nonzero;"/>
            <path id="path4728" d="M39.887,371.706L37.791,371.706L37.791,368.418L35.865,363.943L38.052,363.943L38.429,365.094C38.503,365.319 38.568,365.535 38.625,365.743C38.686,365.951 38.739,366.15 38.786,366.341C38.863,366.056 38.93,365.811 38.987,365.607C39.044,365.399 39.095,365.232 39.138,365.104L39.52,363.943L41.692,363.943L39.887,368.418L39.887,371.706Z" style="fill:rgb(158,161,168);fill-rule:nonzero;"/>
            <path id="path4730" d="M41.894,371.515L41.894,369.076C42.306,369.639 42.752,369.921 43.231,369.921C43.412,369.921 43.56,369.874 43.673,369.78C43.787,369.683 43.844,369.562 43.844,369.418C43.844,369.21 43.72,369.008 43.472,368.81L43.13,368.543C42.902,368.372 42.708,368.203 42.547,368.035C42.386,367.865 42.256,367.69 42.155,367.513C42.054,367.332 41.981,367.146 41.934,366.954C41.887,366.763 41.863,366.562 41.863,366.351C41.863,365.989 41.947,365.61 42.115,365.215C42.199,365.03 42.296,364.863 42.406,364.712C42.517,364.558 42.644,364.422 42.789,364.305C43.184,363.969 43.662,363.802 44.222,363.802C44.721,363.802 45.224,363.934 45.73,364.199L45.73,366.572C45.559,366.308 45.365,366.1 45.147,365.949C44.929,365.795 44.714,365.718 44.503,365.718C44.342,365.718 44.21,365.765 44.106,365.858C43.999,365.949 43.945,366.058 43.945,366.185C43.945,366.393 44.087,366.599 44.372,366.804L44.704,367.05C45.147,367.368 45.463,367.695 45.655,368.03C45.849,368.366 45.946,368.758 45.946,369.207C45.946,369.971 45.713,370.601 45.247,371.098C44.781,371.594 44.191,371.842 43.477,371.842C42.985,371.842 42.457,371.733 41.894,371.515L41.894,371.515Z" style="fill:rgb(158,161,168);fill-rule:nonzero;"/>
            <path id="path4732" d="M49.576,371.706L47.48,371.706L47.48,365.803L46.323,365.803L46.323,363.943L50.778,363.943L50.778,365.803L49.576,365.803L49.576,371.706Z" style="fill:rgb(158,161,168);fill-rule:nonzero;"/>
            <path id="path4734" d="M56.525,371.706L54.428,371.706L54.428,368.584L53.428,368.584L53.428,371.706L51.331,371.706L51.331,363.943L53.428,363.943L53.428,366.688L54.428,366.688L54.428,363.943L56.525,363.943L56.525,371.706Z" style="fill:rgb(158,161,168);fill-rule:nonzero;"/>
            <rect id="path4736" x="57.606" y="363.943" width="2.097" height="7.763" style="fill:rgb(158,161,168);fill-rule:nonzero;"/>
        </g>
        <g id="text4987">
        </g>
        <g id="text1126" transform="matrix(1,0,0,1,20.875,60)">
            <rect id="path1185" x="19.509" y="29.948" width="1.354" height="10.052" style="fill:rgb(158,161,168);fill-rule:nonzero;"/>
            <path id="path1187" d="M22.426,29.948L23.689,29.948L25.036,33.958C25.427,35.091 25.772,36.3 26.072,37.585C25.963,36.808 25.883,36.105 25.831,35.475C25.779,34.846 25.753,34.253 25.753,33.698L25.753,29.948L27.113,29.948L27.113,40L25.844,40L24.327,35.475C24.188,35.054 24.056,34.622 23.93,34.18C23.808,33.737 23.695,33.273 23.591,32.786C23.582,32.726 23.567,32.652 23.546,32.565C23.528,32.478 23.507,32.378 23.48,32.266C23.493,32.378 23.504,32.476 23.513,32.559C23.522,32.637 23.528,32.704 23.533,32.76L23.604,33.783L23.676,35.026C23.68,35.095 23.682,35.18 23.682,35.28C23.687,35.38 23.689,35.493 23.689,35.618L23.76,40L22.426,40L22.426,29.948Z" style="fill:rgb(158,161,168);fill-rule:nonzero;"/>
            <path id="path1189" d="M28.676,29.948L30.46,29.948C31.319,29.948 31.944,30.165 32.335,30.599C32.725,31.037 32.921,31.732 32.921,32.682C32.921,34.019 32.528,34.883 31.742,35.273C31.347,35.451 30.776,35.54 30.03,35.54L30.03,40L28.676,40L28.676,29.948ZM30.03,34.382C30.59,34.382 30.976,34.269 31.189,34.043C31.406,33.813 31.514,33.405 31.514,32.819C31.514,32.22 31.41,31.782 31.202,31.504C30.993,31.226 30.666,31.087 30.219,31.087L30.03,31.087L30.03,34.382Z" style="fill:rgb(158,161,168);fill-rule:nonzero;"/>
            <path id="path1191" d="M33.962,29.948L35.29,29.948L35.29,37.051C35.29,37.776 35.355,38.257 35.486,38.496C35.62,38.735 35.885,38.854 36.28,38.854C36.675,38.854 36.935,38.75 37.061,38.542C37.191,38.329 37.257,37.897 37.257,37.246L37.257,29.948L38.585,29.948L38.585,37.246C38.585,38.34 38.418,39.08 38.083,39.466C37.684,39.905 37.074,40.124 36.254,40.124C35.351,40.124 34.715,39.842 34.346,39.277C34.09,38.891 33.962,38.149 33.962,37.051L33.962,29.948Z" style="fill:rgb(158,161,168);fill-rule:nonzero;"/>
            <path id="path1193" d="M39.333,29.948L43.741,29.948L43.741,31.133L42.224,31.133L42.224,40L40.896,40L40.896,31.133L39.333,31.133L39.333,29.948Z" style="fill:rgb(158,161,168);fill-rule:nonzero;"/>
        </g>
        <g id="text1130" transform="matrix(1,0,0,1,24.8431,4)">
            <path id="path1171" d="M16.807,325.221C16.807,326.997 16.61,328.257 16.215,329.004C15.82,329.75 15.158,330.124 14.229,330.124C13.253,330.124 12.565,329.722 12.165,328.919C11.77,328.134 11.573,326.738 11.573,324.733C11.573,322.945 11.768,321.68 12.159,320.937C12.554,320.191 13.222,319.818 14.164,319.818C15.006,319.818 15.631,320.106 16.039,320.684C16.308,321.07 16.503,321.619 16.625,322.331C16.747,322.99 16.807,323.954 16.807,325.221L16.807,325.221ZM15.388,325.365C15.388,323.624 15.31,322.47 15.154,321.901C14.997,321.328 14.678,321.042 14.197,321.042C13.715,321.042 13.394,321.304 13.233,321.829C13.077,322.359 12.999,323.422 12.999,325.02C12.999,326.491 13.081,327.511 13.246,328.079C13.415,328.618 13.732,328.887 14.197,328.887C14.652,328.887 14.965,328.635 15.134,328.132C15.303,327.632 15.388,326.71 15.388,325.365L15.388,325.365Z" style="fill:rgb(158,161,168);fill-rule:nonzero;"/>
            <path id="path1173" d="M18.155,319.948L19.483,319.948L19.483,327.051C19.483,327.776 19.548,328.257 19.678,328.496C19.813,328.735 20.078,328.854 20.473,328.854C20.868,328.854 21.128,328.75 21.254,328.542C21.384,328.329 21.449,327.897 21.449,327.246L21.449,319.948L22.777,319.948L22.777,327.246C22.777,328.34 22.61,329.08 22.276,329.466C21.877,329.905 21.267,330.124 20.447,330.124C19.544,330.124 18.908,329.842 18.539,329.277C18.283,328.891 18.155,328.149 18.155,327.051L18.155,319.948Z" style="fill:rgb(158,161,168);fill-rule:nonzero;"/>
            <path id="path1175" d="M23.526,319.948L27.934,319.948L27.934,321.133L26.417,321.133L26.417,330L25.089,330L25.089,321.133L23.526,321.133L23.526,319.948Z" style="fill:rgb(158,161,168);fill-rule:nonzero;"/>
            <path id="path1177" d="M28.676,319.948L30.46,319.948C31.319,319.948 31.944,320.165 32.335,320.599C32.725,321.037 32.921,321.732 32.921,322.682C32.921,324.019 32.528,324.883 31.742,325.273C31.347,325.451 30.776,325.54 30.03,325.54L30.03,330L28.676,330L28.676,319.948ZM30.03,324.381C30.59,324.381 30.976,324.269 31.189,324.043C31.406,323.813 31.514,323.405 31.514,322.819C31.514,322.22 31.41,321.782 31.202,321.504C30.993,321.226 30.666,321.087 30.219,321.087L30.03,321.087L30.03,324.381Z" style="fill:rgb(158,161,168);fill-rule:nonzero;"/>
            <path id="path1179" d="M33.962,319.948L35.29,319.948L35.29,327.051C35.29,327.776 35.355,328.257 35.486,328.496C35.62,328.735 35.885,328.854 36.28,328.854C36.675,328.854 36.935,328.75 37.061,328.542C37.191,328.329 37.257,327.897 37.257,327.246L37.257,319.948L38.585,319.948L38.585,327.246C38.585,328.34 38.418,329.08 38.083,329.466C37.684,329.905 37.074,330.124 36.254,330.124C35.351,330.124 34.715,329.842 34.346,329.277C34.09,328.891 33.962,328.149 33.962,327.051L33.962,319.948Z" style="fill:rgb(158,161,168);fill-rule:nonzero;"/>
            <path id="path1181" d="M39.333,319.948L43.741,319.948L43.741,321.133L42.224,321.133L42.224,330L40.896,330L40.896,321.133L39.333,321.133L39.333,319.948Z" style="fill:rgb(158,161,168);fill-rule:nonzero;"/>
        </g>
        <g id="text1134" transform="matrix(1,0,0,1,23.5378,54)">
            <path id="path1157" d="M19.418,170.221C19.418,171.997 19.22,173.257 18.826,174.004C18.431,174.75 17.769,175.124 16.84,175.124C15.863,175.124 15.175,174.722 14.776,173.919C14.381,173.134 14.184,171.738 14.184,169.733C14.184,167.945 14.379,166.68 14.77,165.937C15.164,165.191 15.833,164.818 16.775,164.818C17.617,164.818 18.242,165.106 18.65,165.684C18.919,166.07 19.114,166.619 19.236,167.331C19.357,167.99 19.418,168.954 19.418,170.221L19.418,170.221ZM17.999,170.365C17.999,168.624 17.921,167.47 17.764,166.901C17.608,166.328 17.289,166.042 16.807,166.042C16.326,166.042 16.004,166.304 15.844,166.829C15.687,167.359 15.609,168.422 15.609,170.02C15.609,171.491 15.692,172.511 15.857,173.079C16.026,173.618 16.343,173.887 16.807,173.887C17.263,173.887 17.576,173.635 17.745,173.132C17.914,172.632 17.999,171.71 17.999,170.365L17.999,170.365Z" style="fill:rgb(158,161,168);fill-rule:nonzero;"/>
            <path id="path1159" d="M24.711,165.111L24.711,166.328C24.364,166.159 24.073,166.074 23.839,166.074C23.517,166.074 23.242,166.154 23.012,166.315C22.782,166.471 22.591,166.714 22.439,167.044C22.291,167.374 22.181,167.793 22.107,168.301C22.037,168.804 22.003,169.401 22.003,170.091C22.003,172.574 22.638,173.815 23.91,173.815C24.132,173.815 24.398,173.746 24.711,173.607L24.711,174.85C24.385,175.033 24.021,175.124 23.617,175.124C21.582,175.124 20.564,173.461 20.564,170.137C20.564,168.34 20.811,167.003 21.306,166.126C21.805,165.25 22.567,164.811 23.591,164.811C23.969,164.811 24.342,164.911 24.711,165.111L24.711,165.111Z" style="fill:rgb(158,161,168);fill-rule:nonzero;"/>
            <path id="path1161" d="M25.043,164.948L29.451,164.948L29.451,166.133L27.934,166.133L27.934,175L26.605,175L26.605,166.133L25.043,166.133L25.043,164.948Z" style="fill:rgb(158,161,168);fill-rule:nonzero;"/>
            <path id="path1163" d="M31.443,164.948L32.497,164.948L34.652,175L33.311,175L32.934,173.04L30.941,173.04L30.557,175L29.255,175L31.443,164.948ZM32.738,171.992L32.439,170.391C32.239,169.301 32.076,168.138 31.951,166.901C31.89,167.504 31.812,168.116 31.716,168.737C31.621,169.353 31.508,170.009 31.378,170.703L31.13,171.992L32.738,171.992Z" style="fill:rgb(158,161,168);fill-rule:nonzero;"/>
            <path id="path1165" d="M34.418,164.948L35.753,164.948L36.358,168.659L36.462,169.329L36.677,170.788C36.712,171.035 36.742,171.261 36.768,171.465C36.799,171.669 36.825,171.853 36.846,172.018L36.911,172.513C36.924,172.413 36.935,172.324 36.944,172.246C36.953,172.168 36.961,172.103 36.97,172.051L37.146,170.885L37.374,169.355C37.395,169.217 37.415,169.089 37.432,168.971C37.454,168.854 37.474,168.75 37.491,168.659L38.142,164.948L39.405,164.948L37.432,175L36.358,175L34.418,164.948Z" style="fill:rgb(158,161,168);fill-rule:nonzero;"/>
            <path id="path1167" d="M40.141,164.948L43.741,164.948L43.741,166.094L41.495,166.094L41.495,169.277L43.487,169.277L43.487,170.423L41.495,170.423L41.495,173.854L43.741,173.854L43.741,175L40.141,175L40.141,164.948Z" style="fill:rgb(158,161,168);fill-rule:nonzero;"/>
        </g>
        <g id="text1142" transform="matrix(1,0,0,1,24.5632,78)">
            <path id="path1144" d="M12.133,189.948L16.54,189.948L16.54,191.133L15.023,191.133L15.023,200L13.695,200L13.695,191.133L12.133,191.133L12.133,189.948Z" style="fill:rgb(158,161,168);fill-rule:nonzero;"/>
            <path id="path1146" d="M17.283,189.948L18.611,189.948L18.611,197.051C18.611,197.776 18.676,198.257 18.806,198.496C18.941,198.735 19.205,198.854 19.6,198.854C19.995,198.854 20.256,198.75 20.382,198.542C20.512,198.329 20.577,197.897 20.577,197.246L20.577,189.948L21.905,189.948L21.905,197.246C21.905,198.34 21.738,199.08 21.404,199.466C21.004,199.905 20.395,200.124 19.574,200.124C18.671,200.124 18.036,199.842 17.667,199.277C17.411,198.891 17.283,198.149 17.283,197.051L17.283,189.948Z" style="fill:rgb(158,161,168);fill-rule:nonzero;"/>
            <path id="path1148" d="M23.454,189.948L24.717,189.948L26.065,193.958C26.456,195.091 26.801,196.3 27.1,197.585C26.992,196.808 26.911,196.105 26.859,195.475C26.807,194.846 26.781,194.253 26.781,193.698L26.781,189.948L28.142,189.948L28.142,200L26.872,200L25.355,195.475C25.217,195.054 25.084,194.622 24.958,194.18C24.837,193.737 24.724,193.273 24.62,192.786C24.611,192.726 24.596,192.652 24.574,192.565C24.557,192.478 24.535,192.378 24.509,192.266C24.522,192.378 24.533,192.476 24.542,192.559C24.55,192.637 24.557,192.704 24.561,192.76L24.633,193.783L24.704,195.026C24.709,195.095 24.711,195.18 24.711,195.28C24.715,195.38 24.717,195.493 24.717,195.618L24.789,200L23.454,200L23.454,189.948Z" style="fill:rgb(158,161,168);fill-rule:nonzero;"/>
            <rect id="path1150" x="29.704" y="189.948" width="1.354" height="10.052" style="fill:rgb(158,161,168);fill-rule:nonzero;"/>
            <path id="path1152" d="M32.621,189.948L33.884,189.948L35.232,193.958C35.622,195.091 35.967,196.3 36.267,197.585C36.158,196.808 36.078,196.105 36.026,195.475C35.974,194.846 35.948,194.253 35.948,193.698L35.948,189.948L37.309,189.948L37.309,200L36.039,200L34.522,195.475C34.383,195.054 34.251,194.622 34.125,194.18C34.003,193.737 33.891,193.273 33.786,192.786C33.778,192.726 33.763,192.652 33.741,192.565C33.724,192.478 33.702,192.378 33.676,192.266C33.689,192.378 33.7,192.476 33.708,192.559C33.717,192.637 33.724,192.704 33.728,192.76L33.799,193.783L33.871,195.026C33.875,195.095 33.878,195.18 33.878,195.28C33.882,195.38 33.884,195.493 33.884,195.618L33.956,200L32.621,200L32.621,189.948Z" style="fill:rgb(158,161,168);fill-rule:nonzero;"/>
            <path id="path1154" d="M41.28,194.714L43.741,194.714L43.741,195.104C43.741,197.062 43.569,198.383 43.227,199.069C42.888,199.772 42.254,200.124 41.326,200.124C40.366,200.124 39.683,199.733 39.275,198.952C38.871,198.171 38.669,196.858 38.669,195.013C38.669,192.904 38.891,191.5 39.333,190.801C39.75,190.145 40.39,189.818 41.254,189.818C41.914,189.818 42.428,189.976 42.797,190.293C43.17,190.614 43.461,191.141 43.669,191.875L42.406,192.402C42.35,192.138 42.287,191.916 42.217,191.738C42.148,191.556 42.072,191.415 41.99,191.315C41.825,191.111 41.577,191.009 41.247,191.009C40.796,191.009 40.488,191.287 40.323,191.842C40.158,192.424 40.076,193.468 40.076,194.974C40.076,196.497 40.16,197.528 40.329,198.066C40.499,198.605 40.818,198.874 41.286,198.874C41.716,198.874 42.018,198.683 42.191,198.301C42.369,197.893 42.458,197.237 42.458,196.335L42.458,196.061L42.458,195.859L41.28,195.859L41.28,194.714Z" style="fill:rgb(158,161,168);fill-rule:nonzero;"/>
        </g>
        <g id="text879" transform="matrix(1,0,0,1,0,4)">
            <path id="path885" d="M10.661,25.501L11.904,25.501L11.904,26.335C12.247,25.705 12.703,25.391 13.271,25.391C13.892,25.391 14.313,25.705 14.535,26.335C14.864,25.705 15.333,25.391 15.941,25.391C16.414,25.391 16.774,25.516 17.021,25.768C17.273,26.016 17.399,26.382 17.399,26.868L17.399,32.24L16.149,32.24L16.149,27.806C16.149,27.298 16.101,26.957 16.006,26.784C15.915,26.606 15.737,26.517 15.472,26.517C15.173,26.517 14.969,26.608 14.86,26.79C14.756,26.968 14.704,27.307 14.704,27.806L14.704,32.24L13.415,32.24L13.415,27.806C13.415,27.567 13.402,27.365 13.376,27.201C13.354,27.036 13.315,26.903 13.258,26.803C13.202,26.704 13.128,26.632 13.037,26.589C12.946,26.541 12.833,26.517 12.699,26.517C12.412,26.517 12.208,26.615 12.087,26.81C11.965,27.005 11.904,27.337 11.904,27.806L11.904,32.24L10.661,32.24L10.661,25.501Z" style="fill:rgb(158,161,168);fill-rule:nonzero;"/>
            <path id="path887" d="M18.812,25.501L20.062,25.501L20.062,32.24L18.812,32.24L18.812,25.501ZM19.398,22.637C19.623,22.637 19.819,22.719 19.984,22.884C20.149,23.049 20.231,23.247 20.231,23.477C20.231,23.711 20.149,23.911 19.984,24.076C19.819,24.24 19.619,24.323 19.385,24.323C19.15,24.323 18.951,24.24 18.786,24.076C18.625,23.915 18.545,23.713 18.545,23.47C18.545,23.244 18.627,23.049 18.792,22.884C18.97,22.719 19.172,22.637 19.398,22.637Z" style="fill:rgb(158,161,168);fill-rule:nonzero;"/>
            <path id="path889" d="M25.316,21.178L25.316,32.24L24.072,32.24L24.072,31.374C23.894,31.743 23.716,31.997 23.538,32.135C23.36,32.274 23.124,32.344 22.829,32.344C22.273,32.344 21.865,32.059 21.605,31.491C21.344,30.918 21.214,30.02 21.214,28.796C21.214,28.205 21.247,27.695 21.312,27.266C21.377,26.836 21.475,26.482 21.605,26.204C21.739,25.927 21.911,25.723 22.119,25.592C22.327,25.458 22.575,25.391 22.861,25.391C23.135,25.391 23.36,25.456 23.538,25.586C23.625,25.647 23.714,25.734 23.805,25.846C23.896,25.959 23.985,26.098 24.072,26.263L24.072,21.178L25.316,21.178ZM22.503,28.841C22.503,29.727 22.562,30.345 22.679,30.697C22.801,31.048 23.013,31.224 23.317,31.224C23.595,31.224 23.797,31.042 23.923,30.677C24.048,30.286 24.111,29.685 24.111,28.874C24.111,28.058 24.048,27.454 23.923,27.064C23.797,26.699 23.595,26.517 23.317,26.517C23.022,26.517 22.811,26.691 22.686,27.038C22.564,27.359 22.503,27.96 22.503,28.841L22.503,28.841Z" style="fill:rgb(158,161,168);fill-rule:nonzero;"/>
            <path id="path891" d="M26.729,25.501L27.979,25.501L27.979,32.24L26.729,32.24L26.729,25.501ZM27.314,22.637C27.54,22.637 27.735,22.719 27.9,22.884C28.065,23.049 28.148,23.247 28.148,23.477C28.148,23.711 28.065,23.911 27.9,24.076C27.735,24.24 27.536,24.323 27.301,24.323C27.067,24.323 26.867,24.24 26.702,24.076C26.542,23.915 26.462,23.713 26.462,23.47C26.462,23.244 26.544,23.049 26.709,22.884C26.887,22.719 27.089,22.637 27.314,22.637Z" style="fill:rgb(158,161,168);fill-rule:nonzero;"/>
            <path id="path893" d="M29.385,25.501L30.628,25.501L30.628,26.276C30.984,25.686 31.444,25.391 32.008,25.391C32.555,25.391 32.946,25.605 33.18,26.035C33.311,26.278 33.376,26.749 33.376,27.448L33.376,32.24L32.132,32.24L32.126,27.734C32.126,27.279 32.071,26.955 31.963,26.764C31.854,26.573 31.668,26.478 31.403,26.478C31.26,26.478 31.138,26.504 31.038,26.556C30.943,26.604 30.865,26.684 30.804,26.797C30.743,26.905 30.698,27.049 30.667,27.227C30.641,27.405 30.628,27.624 30.628,27.884L30.628,32.24L29.385,32.24L29.385,25.501Z" style="fill:rgb(158,161,168);fill-rule:nonzero;"/>
            <path id="path895" d="M38.753,28.926C38.753,31.204 38.048,32.344 36.637,32.344C35.227,32.344 34.521,31.187 34.521,28.874C34.521,26.552 35.225,25.391 36.631,25.391C36.995,25.391 37.31,25.46 37.575,25.599C37.844,25.738 38.065,25.953 38.239,26.243C38.413,26.534 38.541,26.901 38.623,27.344C38.71,27.786 38.753,28.314 38.753,28.926ZM37.464,28.893C37.464,28.008 37.406,27.392 37.288,27.044C37.171,26.693 36.963,26.517 36.663,26.517C36.368,26.517 36.158,26.691 36.032,27.038C35.915,27.385 35.856,27.99 35.856,28.854C35.856,29.718 35.915,30.321 36.032,30.664C36.158,31.011 36.368,31.185 36.663,31.185C36.959,31.185 37.165,31.013 37.282,30.671C37.403,30.349 37.464,29.757 37.464,28.893L37.464,28.893Z" style="fill:rgb(158,161,168);fill-rule:nonzero;"/>
            <path id="path897" d="M40.055,23.613L41.299,23.613L41.299,25.501L41.976,25.501L41.976,26.491L41.299,26.491L41.299,32.24L40.055,32.24L40.055,26.491L39.372,26.491L39.372,25.501L40.055,25.501L40.055,23.613Z" style="fill:rgb(158,161,168);fill-rule:nonzero;"/>
            <path id="path899" d="M45.479,29.967L46.637,29.967C46.546,31.552 45.895,32.344 44.684,32.344C44.324,32.344 44.014,32.276 43.753,32.142C43.497,32.007 43.285,31.799 43.115,31.517C42.946,31.235 42.82,30.877 42.738,30.443C42.659,30.009 42.62,29.492 42.62,28.893C42.62,27.704 42.785,26.823 43.115,26.25C43.449,25.677 43.964,25.391 44.658,25.391C46.008,25.391 46.683,26.58 46.683,28.958L46.683,29.115L43.838,29.115C43.838,30.556 44.124,31.276 44.697,31.276C45.218,31.276 45.478,30.84 45.478,29.967L45.479,29.967ZM45.413,28.216C45.361,27.509 45.281,27.044 45.173,26.823C45.06,26.576 44.877,26.452 44.626,26.452C44.37,26.452 44.187,26.576 44.079,26.823C43.97,27.044 43.89,27.509 43.838,28.216L45.413,28.216Z" style="fill:rgb(158,161,168);fill-rule:nonzero;"/>
            <path id="path901" d="M50.557,25.501L51.8,25.501L51.8,26.335C52.143,25.705 52.599,25.391 53.167,25.391C53.788,25.391 54.209,25.705 54.43,26.335C54.76,25.705 55.229,25.391 55.837,25.391C56.31,25.391 56.67,25.516 56.917,25.768C57.169,26.016 57.295,26.382 57.295,26.868L57.295,32.24L56.045,32.24L56.045,27.806C56.045,27.298 55.997,26.957 55.902,26.784C55.811,26.606 55.633,26.517 55.368,26.517C55.068,26.517 54.864,26.608 54.756,26.79C54.652,26.968 54.6,27.307 54.6,27.806L54.6,32.24L53.311,32.24L53.311,27.806C53.311,27.567 53.298,27.365 53.271,27.201C53.25,27.036 53.211,26.903 53.154,26.803C53.098,26.704 53.024,26.632 52.933,26.589C52.842,26.541 52.729,26.517 52.594,26.517C52.308,26.517 52.104,26.615 51.982,26.81C51.861,27.005 51.8,27.337 51.8,27.806L51.8,32.24L50.557,32.24L50.557,25.501Z" style="fill:rgb(158,161,168);fill-rule:nonzero;"/>
            <path id="path903" d="M62.555,25.501L62.555,32.24L61.312,32.24L61.312,31.374C61.134,31.743 60.956,31.997 60.778,32.135C60.6,32.274 60.366,32.344 60.075,32.344C59.515,32.344 59.105,32.057 58.844,31.484C58.584,30.911 58.454,30.013 58.454,28.789C58.454,27.622 58.584,26.764 58.844,26.217C59.105,25.666 59.515,25.391 60.075,25.391C60.587,25.391 60.999,25.681 61.312,26.263L61.312,25.501L62.555,25.501ZM59.743,28.841C59.743,29.727 59.801,30.345 59.919,30.697C60.04,31.048 60.253,31.224 60.557,31.224C60.834,31.224 61.036,31.042 61.162,30.677C61.288,30.286 61.351,29.685 61.351,28.874C61.351,28.058 61.288,27.454 61.162,27.064C61.036,26.699 60.834,26.517 60.557,26.517C60.262,26.517 60.051,26.691 59.925,27.038C59.804,27.359 59.743,27.96 59.743,28.841L59.743,28.841Z" style="fill:rgb(158,161,168);fill-rule:nonzero;"/>
            <path id="path905" d="M63.968,35L63.968,25.501L65.212,25.501L65.212,26.374C65.385,26.005 65.563,25.749 65.745,25.605C65.928,25.462 66.166,25.391 66.462,25.391C67.017,25.391 67.423,25.679 67.679,26.257C67.939,26.829 68.07,27.728 68.07,28.952C68.07,30.15 67.937,31.011 67.673,31.536C67.412,32.075 66.993,32.344 66.416,32.344C66.138,32.344 65.91,32.281 65.732,32.155C65.646,32.094 65.559,32.007 65.472,31.895C65.385,31.782 65.298,31.645 65.212,31.484L65.212,35L63.968,35ZM66.781,28.906C66.781,27.99 66.72,27.37 66.598,27.044C66.481,26.693 66.271,26.517 65.967,26.517C65.68,26.517 65.476,26.699 65.355,27.064C65.233,27.402 65.173,28.006 65.173,28.874C65.173,29.742 65.233,30.345 65.355,30.684C65.481,31.044 65.685,31.224 65.967,31.224C66.262,31.224 66.472,31.05 66.598,30.703C66.72,30.382 66.781,29.783 66.781,28.906Z" style="fill:rgb(158,161,168);fill-rule:nonzero;"/>
            <path id="path907" d="M71.989,25.501L73.232,25.501L73.232,26.335C73.575,25.705 74.031,25.391 74.6,25.391C75.22,25.391 75.641,25.705 75.863,26.335C76.192,25.705 76.661,25.391 77.269,25.391C77.742,25.391 78.102,25.516 78.35,25.768C78.601,26.016 78.727,26.382 78.727,26.868L78.727,32.24L77.477,32.24L77.477,27.806C77.477,27.298 77.429,26.957 77.334,26.784C77.243,26.606 77.065,26.517 76.8,26.517C76.501,26.517 76.297,26.608 76.188,26.79C76.084,26.968 76.032,27.307 76.032,27.806L76.032,32.24L74.743,32.24L74.743,27.806C74.743,27.567 74.73,27.365 74.704,27.201C74.682,27.036 74.643,26.903 74.587,26.803C74.53,26.704 74.456,26.632 74.365,26.589C74.274,26.541 74.161,26.517 74.027,26.517C73.74,26.517 73.536,26.615 73.415,26.81C73.293,27.005 73.232,27.337 73.232,27.806L73.232,32.24L71.989,32.24L71.989,25.501Z" style="fill:rgb(158,161,168);fill-rule:nonzero;"/>
            <path id="path909" d="M84.118,28.926C84.118,31.204 83.413,32.344 82.002,32.344C80.591,32.344 79.886,31.187 79.886,28.874C79.886,26.552 80.589,25.391 81.995,25.391C82.36,25.391 82.675,25.46 82.939,25.599C83.209,25.738 83.43,25.953 83.604,26.243C83.777,26.534 83.905,26.901 83.988,27.344C84.074,27.786 84.118,28.314 84.118,28.926L84.118,28.926ZM82.829,28.893C82.829,28.008 82.77,27.392 82.653,27.044C82.536,26.693 82.327,26.517 82.028,26.517C81.733,26.517 81.522,26.691 81.396,27.038C81.279,27.385 81.221,27.99 81.221,28.854C81.221,29.718 81.279,30.321 81.396,30.664C81.522,31.011 81.733,31.185 82.028,31.185C82.323,31.185 82.529,31.013 82.646,30.671C82.768,30.349 82.829,29.757 82.829,28.893L82.829,28.893Z" style="fill:rgb(158,161,168);fill-rule:nonzero;"/>
            <path id="path911" d="M89.118,21.178L89.118,32.24L87.874,32.24L87.874,31.374C87.696,31.743 87.518,31.997 87.341,32.135C87.163,32.274 86.926,32.344 86.631,32.344C86.075,32.344 85.667,32.059 85.407,31.491C85.146,30.918 85.016,30.02 85.016,28.796C85.016,28.205 85.049,27.695 85.114,27.266C85.179,26.836 85.277,26.482 85.407,26.204C85.541,25.927 85.713,25.723 85.921,25.592C86.13,25.458 86.377,25.391 86.663,25.391C86.937,25.391 87.163,25.456 87.34,25.586C87.427,25.647 87.516,25.734 87.607,25.846C87.699,25.959 87.788,26.098 87.874,26.263L87.874,21.178L89.118,21.178ZM86.305,28.841C86.305,29.727 86.364,30.345 86.481,30.697C86.603,31.048 86.815,31.224 87.119,31.224C87.397,31.224 87.599,31.042 87.725,30.677C87.85,30.286 87.913,29.685 87.913,28.874C87.913,28.058 87.85,27.454 87.725,27.064C87.599,26.699 87.397,26.517 87.119,26.517C86.824,26.517 86.614,26.691 86.488,27.038C86.366,27.359 86.305,27.96 86.305,28.841L86.305,28.841Z" style="fill:rgb(158,161,168);fill-rule:nonzero;"/>
            <path id="path913" d="M93.135,29.967L94.294,29.967C94.202,31.552 93.551,32.344 92.34,32.344C91.98,32.344 91.67,32.276 91.41,32.142C91.153,32.007 90.941,31.799 90.771,31.517C90.602,31.235 90.476,30.877 90.394,30.443C90.316,30.009 90.277,29.492 90.277,28.893C90.277,27.704 90.442,26.823 90.771,26.25C91.106,25.677 91.62,25.391 92.314,25.391C93.664,25.391 94.339,26.58 94.339,28.958L94.339,29.115L91.494,29.115C91.494,30.556 91.781,31.276 92.353,31.276C92.874,31.276 93.135,30.84 93.135,29.967L93.135,29.967ZM93.07,28.216C93.018,27.509 92.937,27.044 92.829,26.823C92.716,26.576 92.534,26.452 92.282,26.452C92.026,26.452 91.844,26.576 91.735,26.823C91.627,27.044 91.546,27.509 91.494,28.216L93.07,28.216Z" style="fill:rgb(158,161,168);fill-rule:nonzero;"/>
        </g>
        <g id="text883">
            <path id="path916" d="M10.778,75L10.778,65.501L12.021,65.501L12.021,66.374C12.195,66.005 12.373,65.749 12.555,65.605C12.738,65.462 12.976,65.391 13.271,65.391C13.827,65.391 14.233,65.679 14.489,66.257C14.749,66.829 14.88,67.728 14.88,68.952C14.88,70.15 14.747,71.011 14.482,71.536C14.222,72.075 13.803,72.344 13.226,72.344C12.948,72.344 12.72,72.281 12.542,72.155C12.456,72.094 12.369,72.007 12.282,71.895C12.195,71.782 12.108,71.645 12.021,71.484L12.021,75L10.778,75ZM13.59,68.906C13.59,67.99 13.53,67.37 13.408,67.044C13.291,66.693 13.081,66.517 12.777,66.517C12.49,66.517 12.286,66.699 12.165,67.064C12.043,67.402 11.982,68.006 11.982,68.874C11.982,69.742 12.043,70.345 12.165,70.684C12.291,71.044 12.495,71.224 12.777,71.224C13.072,71.224 13.282,71.05 13.408,70.703C13.53,70.382 13.59,69.783 13.59,68.906Z" style="fill:rgb(158,161,168);fill-rule:nonzero;"/>
            <path id="path918" d="M16.038,65.501L17.282,65.501L17.282,70.007C17.291,70.423 17.351,70.72 17.464,70.898C17.581,71.076 17.775,71.165 18.044,71.165C18.326,71.165 18.523,71.087 18.636,70.931C18.749,70.766 18.805,70.48 18.805,70.072L18.805,69.531L18.805,65.501L20.049,65.501L20.049,69.531C20.049,70.473 19.979,71.102 19.84,71.419C19.55,72.036 18.946,72.344 18.031,72.344C17.31,72.344 16.798,72.161 16.494,71.797C16.19,71.428 16.038,70.814 16.038,69.954L16.038,65.501Z" style="fill:rgb(158,161,168);fill-rule:nonzero;"/>
            <path id="path920" d="M21.455,65.501L22.699,65.501L22.699,66.341C22.911,65.985 23.122,65.736 23.33,65.592C23.538,65.449 23.814,65.367 24.157,65.345L24.157,66.647C24.07,66.634 23.996,66.627 23.936,66.627C23.488,66.627 23.169,66.742 22.979,66.973C22.792,67.198 22.699,67.593 22.699,68.157L22.699,72.24L21.455,72.24L21.455,65.501Z" style="fill:rgb(158,161,168);fill-rule:nonzero;"/>
            <path id="path922" d="M27.679,69.967L28.838,69.967C28.747,71.552 28.096,72.344 26.885,72.344C26.525,72.344 26.214,72.276 25.954,72.142C25.698,72.007 25.485,71.799 25.316,71.517C25.146,71.235 25.021,70.877 24.938,70.443C24.86,70.009 24.821,69.492 24.821,68.893C24.821,67.704 24.986,66.823 25.316,66.25C25.65,65.677 26.164,65.391 26.859,65.391C28.209,65.391 28.883,66.58 28.883,68.958L28.883,69.115L26.038,69.115C26.038,70.556 26.325,71.276 26.898,71.276C27.419,71.276 27.679,70.84 27.679,69.967L27.679,69.967ZM27.614,68.216C27.562,67.509 27.482,67.044 27.373,66.823C27.26,66.576 27.078,66.452 26.826,66.452C26.57,66.452 26.388,66.576 26.279,66.823C26.171,67.044 26.09,67.509 26.038,68.216L27.614,68.216Z" style="fill:rgb(158,161,168);fill-rule:nonzero;"/>
            <path id="path924" d="M36.605,75L35.361,75L35.361,71.484C35.275,71.645 35.188,71.782 35.101,71.895C35.014,72.003 34.923,72.092 34.827,72.161C34.736,72.227 34.634,72.272 34.521,72.298C34.413,72.329 34.291,72.344 34.157,72.344C33.58,72.344 33.159,72.075 32.894,71.536C32.633,70.998 32.503,70.137 32.503,68.952C32.503,67.728 32.633,66.829 32.894,66.256C33.154,65.679 33.56,65.391 34.111,65.391C34.406,65.391 34.645,65.462 34.827,65.605C35.01,65.749 35.188,66.005 35.361,66.374L35.361,65.501L36.605,65.501L36.605,75ZM33.792,68.841C33.792,69.727 33.851,70.345 33.968,70.697C34.09,71.048 34.302,71.224 34.606,71.224C34.884,71.224 35.086,71.042 35.212,70.677C35.337,70.286 35.4,69.685 35.4,68.874C35.4,68.058 35.337,67.454 35.212,67.064C35.086,66.699 34.884,66.517 34.606,66.517C34.311,66.517 34.1,66.691 33.975,67.038C33.853,67.359 33.792,67.96 33.792,68.841L33.792,68.841Z" style="fill:rgb(158,161,168);fill-rule:nonzero;"/>
            <path id="path926" d="M37.992,65.501L39.235,65.501L39.235,70.007C39.244,70.423 39.304,70.72 39.417,70.898C39.535,71.076 39.728,71.165 39.997,71.165C40.279,71.165 40.476,71.087 40.589,70.931C40.702,70.766 40.758,70.48 40.758,70.072L40.758,69.531L40.758,65.501L42.002,65.501L42.002,69.531C42.002,70.473 41.933,71.102 41.794,71.419C41.503,72.036 40.9,72.344 39.984,72.344C39.263,72.344 38.751,72.161 38.447,71.797C38.143,71.428 37.992,70.814 37.992,69.954L37.992,65.501Z" style="fill:rgb(158,161,168);fill-rule:nonzero;"/>
            <path id="path928" d="M47.256,65.501L47.256,72.24L46.012,72.24L46.012,71.374C45.834,71.743 45.656,71.997 45.479,72.135C45.301,72.274 45.066,72.344 44.775,72.344C44.215,72.344 43.805,72.057 43.545,71.484C43.285,70.911 43.154,70.013 43.154,68.789C43.154,67.622 43.285,66.764 43.545,66.217C43.805,65.666 44.215,65.391 44.775,65.391C45.288,65.391 45.7,65.681 46.012,66.263L46.012,65.501L47.256,65.501ZM44.443,68.841C44.443,69.727 44.502,70.345 44.619,70.697C44.741,71.048 44.953,71.224 45.257,71.224C45.535,71.224 45.737,71.042 45.863,70.677C45.988,70.286 46.051,69.685 46.051,68.874C46.051,68.058 45.988,67.454 45.863,67.064C45.737,66.699 45.535,66.517 45.257,66.517C44.962,66.517 44.752,66.691 44.626,67.038C44.504,67.359 44.443,67.96 44.443,68.841L44.443,68.841Z" style="fill:rgb(158,161,168);fill-rule:nonzero;"/>
            <path id="path930" d="M48.669,65.501L49.912,65.501L49.912,66.276C50.268,65.686 50.728,65.391 51.292,65.391C51.839,65.391 52.23,65.605 52.464,66.035C52.594,66.278 52.66,66.749 52.66,67.448L52.66,72.24L51.416,72.24L51.41,67.734C51.41,67.279 51.355,66.955 51.247,66.764C51.138,66.573 50.952,66.478 50.687,66.478C50.544,66.478 50.422,66.504 50.322,66.556C50.227,66.604 50.149,66.684 50.088,66.797C50.027,66.905 49.982,67.049 49.951,67.227C49.925,67.404 49.912,67.624 49.912,67.884L49.912,72.24L48.669,72.24L48.669,65.501Z" style="fill:rgb(158,161,168);fill-rule:nonzero;"/>
            <path id="path932" d="M54.209,63.613L55.452,63.613L55.452,65.501L56.13,65.501L56.13,66.491L55.452,66.491L55.452,72.24L54.209,72.24L54.209,66.491L53.525,66.491L53.525,65.501L54.209,65.501L54.209,63.613Z" style="fill:rgb(158,161,168);fill-rule:nonzero;"/>
            <path id="path934" d="M57.028,65.501L58.278,65.501L58.278,72.24L57.028,72.24L57.028,65.501ZM57.614,62.637C57.84,62.637 58.035,62.719 58.2,62.884C58.365,63.049 58.447,63.247 58.447,63.477C58.447,63.711 58.365,63.911 58.2,64.076C58.035,64.24 57.835,64.323 57.601,64.323C57.367,64.323 57.167,64.24 57.002,64.076C56.841,63.915 56.761,63.713 56.761,63.47C56.761,63.244 56.844,63.049 57.008,62.884C57.186,62.719 57.388,62.637 57.614,62.637L57.614,62.637Z" style="fill:rgb(158,161,168);fill-rule:nonzero;"/>
            <path id="path936" d="M59.365,65.501L63.278,65.501L61.025,71.113L63.161,71.113L63.161,72.24L59.183,72.24L61.514,66.602L59.365,66.602L59.365,65.501Z" style="fill:rgb(158,161,168);fill-rule:nonzero;"/>
            <path id="path938" d="M66.794,69.967L67.952,69.967C67.861,71.552 67.21,72.344 65.999,72.344C65.639,72.344 65.329,72.276 65.068,72.142C64.812,72.007 64.6,71.799 64.43,71.517C64.261,71.235 64.135,70.877 64.053,70.443C63.975,70.009 63.936,69.492 63.936,68.893C63.936,67.704 64.1,66.823 64.43,66.25C64.765,65.677 65.279,65.391 65.973,65.391C67.323,65.391 67.998,66.58 67.998,68.958L67.998,69.115L65.153,69.115C65.153,70.556 65.439,71.276 66.012,71.276C66.533,71.276 66.794,70.84 66.794,69.967L66.794,69.967ZM66.729,68.216C66.676,67.509 66.596,67.044 66.488,66.823C66.375,66.576 66.192,66.452 65.941,66.452C65.685,66.452 65.502,66.576 65.394,66.823C65.285,67.044 65.205,67.509 65.153,68.216L66.729,68.216Z" style="fill:rgb(158,161,168);fill-rule:nonzero;"/>
            <path id="path940" d="M71.872,65.501L73.115,65.501L73.115,66.335C73.458,65.705 73.914,65.391 74.482,65.391C75.103,65.391 75.524,65.705 75.745,66.335C76.075,65.705 76.544,65.391 77.152,65.391C77.625,65.391 77.985,65.516 78.232,65.768C78.484,66.016 78.61,66.382 78.61,66.868L78.61,72.24L77.36,72.24L77.36,67.806C77.36,67.298 77.312,66.957 77.217,66.784C77.126,66.606 76.948,66.517 76.683,66.517C76.383,66.517 76.179,66.608 76.071,66.79C75.967,66.968 75.915,67.307 75.915,67.806L75.915,72.24L74.626,72.24L74.626,67.806C74.626,67.567 74.613,67.365 74.587,67.201C74.565,67.036 74.526,66.903 74.469,66.803C74.413,66.704 74.339,66.632 74.248,66.589C74.157,66.541 74.044,66.517 73.909,66.517C73.623,66.517 73.419,66.615 73.297,66.81C73.176,67.005 73.115,67.337 73.115,67.806L73.115,72.24L71.872,72.24L71.872,65.501Z" style="fill:rgb(158,161,168);fill-rule:nonzero;"/>
            <path id="path942" d="M84.001,68.926C84.001,71.204 83.295,72.344 81.885,72.344C80.474,72.344 79.769,71.187 79.769,68.874C79.769,66.552 80.472,65.391 81.878,65.391C82.243,65.391 82.558,65.46 82.822,65.599C83.091,65.738 83.313,65.953 83.486,66.243C83.66,66.534 83.788,66.901 83.87,67.344C83.957,67.786 84.001,68.314 84.001,68.926L84.001,68.926ZM82.712,68.893C82.712,68.008 82.653,67.391 82.536,67.044C82.419,66.693 82.21,66.517 81.911,66.517C81.616,66.517 81.405,66.691 81.279,67.038C81.162,67.385 81.104,67.99 81.104,68.854C81.104,69.718 81.162,70.321 81.279,70.664C81.405,71.011 81.616,71.185 81.911,71.185C82.206,71.185 82.412,71.013 82.529,70.671C82.651,70.349 82.712,69.757 82.712,68.893L82.712,68.893Z" style="fill:rgb(158,161,168);fill-rule:nonzero;"/>
            <path id="path944" d="M89.001,61.178L89.001,72.24L87.757,72.24L87.757,71.374C87.579,71.743 87.401,71.997 87.223,72.135C87.045,72.274 86.809,72.344 86.514,72.344C85.958,72.344 85.55,72.059 85.29,71.491C85.029,70.918 84.899,70.02 84.899,68.796C84.899,68.205 84.932,67.695 84.997,67.266C85.062,66.836 85.16,66.482 85.29,66.204C85.424,65.927 85.596,65.723 85.804,65.592C86.012,65.458 86.26,65.391 86.546,65.391C86.82,65.391 87.045,65.456 87.223,65.586C87.31,65.647 87.399,65.734 87.49,65.846C87.581,65.959 87.67,66.098 87.757,66.263L87.757,61.178L89.001,61.178ZM86.188,68.841C86.188,69.727 86.247,70.345 86.364,70.697C86.485,71.048 86.698,71.224 87.002,71.224C87.28,71.224 87.482,71.042 87.607,70.677C87.733,70.286 87.796,69.685 87.796,68.874C87.796,68.058 87.733,67.454 87.607,67.064C87.482,66.699 87.28,66.517 87.002,66.517C86.707,66.517 86.496,66.691 86.37,67.038C86.249,67.359 86.188,67.96 86.188,68.841L86.188,68.841Z" style="fill:rgb(158,161,168);fill-rule:nonzero;"/>
            <path id="path946" d="M93.018,69.967L94.176,69.967C94.085,71.552 93.434,72.344 92.223,72.344C91.863,72.344 91.553,72.276 91.292,72.142C91.036,72.007 90.824,71.799 90.654,71.517C90.485,71.235 90.359,70.877 90.277,70.443C90.199,70.009 90.159,69.492 90.159,68.893C90.159,67.704 90.324,66.823 90.654,66.25C90.988,65.677 91.503,65.391 92.197,65.391C93.547,65.391 94.222,66.58 94.222,68.958L94.222,69.115L91.377,69.115C91.377,70.556 91.663,71.276 92.236,71.276C92.757,71.276 93.018,70.84 93.018,69.967L93.018,69.967ZM92.952,68.216C92.9,67.509 92.82,67.044 92.712,66.823C92.599,66.576 92.416,66.452 92.165,66.452C91.909,66.452 91.726,66.576 91.618,66.823C91.509,67.044 91.429,67.509 91.377,68.216L92.952,68.216Z" style="fill:rgb(158,161,168);fill-rule:nonzero;"/>
        </g>
        <path id="rect907" d="M105.5,30C105.5,30 105.5,360 105.5,360C105.5,360 105.5,30 105.5,30Z" style="fill:none;stroke:rgb(158,161,168);stroke-width:1px;"/>
        <g id="text943">
            <path id="path945" d="M110.953,27.816L112.786,27.816L112.786,35.857L111.75,35.857L111.75,28.738L110.953,28.738L110.953,27.816Z" style="fill:rgb(158,161,168);fill-rule:nonzero;"/>
            <path id="path947" d="M114.453,27.816L116.286,27.816L116.286,35.857L115.25,35.857L115.25,28.738L114.453,28.738L114.453,27.816Z" style="fill:rgb(158,161,168);fill-rule:nonzero;"/>
            <path id="path949" d="M122.771,34.04L123.698,34.04C123.625,35.307 123.104,35.941 122.135,35.941C121.847,35.941 121.599,35.887 121.391,35.779C121.186,35.672 121.016,35.505 120.88,35.279C120.745,35.054 120.644,34.767 120.578,34.42C120.516,34.073 120.484,33.66 120.484,33.18C120.484,32.229 120.616,31.524 120.88,31.066C121.148,30.607 121.559,30.378 122.115,30.378C123.194,30.378 123.734,31.33 123.734,33.232L123.734,33.357L121.458,33.357C121.458,34.51 121.687,35.087 122.146,35.087C122.562,35.087 122.771,34.738 122.771,34.04L122.771,34.04ZM122.719,32.639C122.677,32.073 122.613,31.701 122.526,31.524C122.436,31.326 122.29,31.227 122.089,31.227C121.884,31.227 121.738,31.326 121.651,31.524C121.564,31.701 121.5,32.073 121.458,32.639L122.719,32.639Z" style="fill:rgb(158,161,168);fill-rule:nonzero;"/>
            <path id="path951" d="M124.042,30.467L125.219,30.467L125.693,31.508C125.748,31.63 125.8,31.758 125.849,31.894C125.898,32.026 125.941,32.166 125.979,32.316C126.007,32.184 126.04,32.057 126.078,31.936C126.116,31.814 126.16,31.694 126.208,31.576L126.276,31.42L126.667,30.467L127.713,30.467L126.495,33.014L127.969,35.857L126.781,35.857L126.307,34.826C126.075,34.344 125.937,33.958 125.896,33.67C125.865,33.948 125.753,34.302 125.563,34.732L125.083,35.857L124.042,35.857L125.391,33.014L124.042,30.467Z" style="fill:rgb(158,161,168);fill-rule:nonzero;"/>
            <path id="path953" d="M128.703,28.956L129.698,28.956L129.698,30.467L130.24,30.467L130.24,31.258L129.698,31.258L129.698,35.857L128.703,35.857L128.703,31.258L128.156,31.258L128.156,30.467L128.703,30.467L128.703,28.956Z" style="fill:rgb(158,161,168);fill-rule:nonzero;"/>
            <path id="path955" d="M130.958,30.467L131.953,30.467L131.953,31.139C132.123,30.854 132.292,30.654 132.458,30.54C132.625,30.425 132.845,30.359 133.12,30.342L133.12,31.383C133.05,31.373 132.991,31.368 132.943,31.368C132.585,31.368 132.33,31.46 132.177,31.644C132.028,31.824 131.953,32.14 131.953,32.592L131.953,35.857L130.958,35.857L130.958,30.467Z" style="fill:rgb(158,161,168);fill-rule:nonzero;"/>
            <path id="path957" d="M136.953,30.467L136.953,35.857L135.958,35.857L135.958,35.165C135.816,35.46 135.674,35.663 135.531,35.774C135.389,35.885 135.201,35.941 134.969,35.941C134.521,35.941 134.193,35.712 133.984,35.253C133.776,34.795 133.672,34.076 133.672,33.097C133.672,32.163 133.776,31.477 133.984,31.04C134.193,30.599 134.521,30.378 134.969,30.378C135.378,30.378 135.708,30.611 135.958,31.076L135.958,30.467L136.953,30.467ZM134.703,33.139C134.703,33.847 134.75,34.342 134.844,34.623C134.941,34.904 135.111,35.045 135.354,35.045C135.576,35.045 135.738,34.899 135.839,34.607C135.939,34.295 135.99,33.814 135.99,33.165C135.99,32.512 135.939,32.029 135.839,31.717C135.738,31.425 135.576,31.279 135.354,31.279C135.118,31.279 134.95,31.418 134.849,31.696C134.752,31.953 134.703,32.434 134.703,33.139L134.703,33.139Z" style="fill:rgb(158,161,168);fill-rule:nonzero;"/>
            <path id="path959" d="M144.604,35.977L143.922,36.467L143.37,35.68C143.04,35.864 142.691,35.956 142.323,35.956C141.542,35.956 140.99,35.627 140.667,34.967C140.347,34.286 140.187,33.147 140.187,31.55C140.187,30.154 140.344,29.166 140.656,28.587C140.969,28.003 141.498,27.712 142.245,27.712C143.03,27.712 143.582,28.033 143.901,28.675C144.217,29.304 144.375,30.418 144.375,32.019C144.375,33.467 144.224,34.472 143.922,35.035L144.604,35.977ZM142.687,33.305L143.135,33.941C143.208,33.427 143.245,32.847 143.245,32.201C143.245,30.819 143.179,29.885 143.047,29.399C142.915,28.93 142.653,28.696 142.26,28.696C141.892,28.696 141.644,28.896 141.516,29.295C141.387,29.677 141.323,30.448 141.323,31.607C141.323,32.91 141.389,33.798 141.521,34.274C141.653,34.729 141.91,34.956 142.292,34.956C142.444,34.956 142.59,34.908 142.729,34.811L142.042,33.821L142.687,33.305Z" style="fill:rgb(158,161,168);fill-rule:nonzero;"/>
        </g>
        <g id="text964">
            <path id="path979" d="M116.464,40.609L117.464,40.609L117.464,46L116.464,46L116.464,40.609ZM116.932,38.318C117.113,38.318 117.269,38.384 117.401,38.516C117.533,38.648 117.599,38.806 117.599,38.99C117.599,39.177 117.533,39.337 117.401,39.469C117.269,39.601 117.109,39.667 116.922,39.667C116.734,39.667 116.575,39.601 116.443,39.469C116.314,39.34 116.25,39.179 116.25,38.984C116.25,38.804 116.316,38.648 116.448,38.516C116.59,38.384 116.752,38.318 116.932,38.318L116.932,38.318Z" style="fill:rgb(158,161,168);fill-rule:nonzero;"/>
            <path id="path981" d="M118.589,40.609L119.583,40.609L119.583,41.229C119.868,40.757 120.236,40.521 120.687,40.521C121.125,40.521 121.437,40.693 121.625,41.036C121.729,41.231 121.781,41.608 121.781,42.167L121.781,46L120.786,46L120.781,42.396C120.781,42.031 120.738,41.773 120.651,41.62C120.564,41.467 120.415,41.391 120.203,41.391C120.088,41.391 119.991,41.411 119.911,41.453C119.835,41.491 119.772,41.556 119.724,41.646C119.675,41.733 119.639,41.847 119.614,41.99C119.594,42.132 119.583,42.307 119.583,42.516L119.583,46L118.588,46L118.589,40.609Z" style="fill:rgb(158,161,168);fill-rule:nonzero;"/>
            <rect id="path983" x="124.547" y="42.833" width="1.896" height="0.813" style="fill:rgb(158,161,168);fill-rule:nonzero;"/>
            <path id="path985" d="M132.396,43.349C132.396,45.172 131.832,46.083 130.703,46.083C129.575,46.083 129.01,45.158 129.01,43.307C129.01,41.45 129.573,40.521 130.698,40.521C130.99,40.521 131.241,40.576 131.453,40.688C131.668,40.799 131.845,40.97 131.984,41.203C132.123,41.436 132.226,41.729 132.292,42.083C132.361,42.438 132.396,42.859 132.396,43.349L132.396,43.349ZM131.365,43.323C131.365,42.615 131.318,42.121 131.224,41.844C131.13,41.562 130.964,41.422 130.724,41.422C130.488,41.422 130.319,41.561 130.219,41.838C130.125,42.116 130.078,42.601 130.078,43.292C130.078,43.983 130.125,44.465 130.219,44.74C130.319,45.017 130.488,45.156 130.724,45.156C130.96,45.156 131.125,45.019 131.219,44.745C131.316,44.488 131.365,44.014 131.365,43.323L131.365,43.323Z" style="fill:rgb(158,161,168);fill-rule:nonzero;"/>
            <path id="path987" d="M133.318,40.609L134.312,40.609L134.312,44.214C134.32,44.547 134.368,44.785 134.458,44.927C134.552,45.069 134.707,45.141 134.922,45.141C135.148,45.141 135.306,45.078 135.396,44.953C135.486,44.821 135.531,44.592 135.531,44.266L135.531,43.833L135.531,40.609L136.526,40.609L136.526,43.833C136.526,44.587 136.47,45.09 136.359,45.344C136.127,45.837 135.644,46.083 134.911,46.083C134.335,46.083 133.925,45.937 133.682,45.646C133.439,45.351 133.318,44.859 133.318,44.172L133.318,40.609Z" style="fill:rgb(158,161,168);fill-rule:nonzero;"/>
            <path id="path989" d="M137.771,39.099L138.766,39.099L138.766,40.609L139.307,40.609L139.307,41.401L138.766,41.401L138.766,46L137.771,46L137.771,41.401L137.224,41.401L137.224,40.609L137.771,40.609L137.771,39.099Z" style="fill:rgb(158,161,168);fill-rule:nonzero;"/>
        </g>
        <g id="text994" transform="matrix(1,0,0,1,-2,4)">
            <path id="path996" d="M80.563,91.066L81.557,91.066L81.557,95.134C81.627,95.002 81.698,94.891 81.771,94.801C81.844,94.71 81.915,94.641 81.984,94.592C82.123,94.488 82.304,94.436 82.526,94.436C82.755,94.436 82.953,94.49 83.12,94.598C83.286,94.702 83.422,94.865 83.526,95.087C83.634,95.309 83.714,95.592 83.766,95.936C83.818,96.28 83.844,96.688 83.844,97.16C83.844,98.139 83.74,98.858 83.531,99.316C83.323,99.771 82.997,99.999 82.552,99.999C82.316,99.999 82.127,99.943 81.984,99.832C81.842,99.721 81.7,99.518 81.557,99.223L81.557,99.915L80.563,99.915L80.563,91.066ZM82.813,97.249C82.813,96.516 82.764,96.02 82.667,95.759C82.573,95.478 82.404,95.337 82.161,95.337C81.932,95.337 81.771,95.48 81.677,95.764C81.583,96.046 81.536,96.532 81.536,97.223C81.536,97.91 81.583,98.396 81.677,98.681C81.771,98.962 81.932,99.103 82.161,99.103C82.398,99.103 82.566,98.964 82.667,98.686C82.764,98.429 82.813,97.95 82.813,97.249Z" style="fill:rgb(158,161,168);fill-rule:nonzero;"/>
            <path id="path998" d="M84.229,94.525L85.354,94.525L86.146,98.285L87.073,94.525L88.083,94.525L85.88,102.124L84.833,102.124L85.661,99.483L84.229,94.525Z" style="fill:rgb(158,161,168);fill-rule:nonzero;"/>
            <path id="path1000" d="M88.688,102.124L88.688,94.525L89.682,94.525L89.682,95.223C89.821,94.928 89.964,94.723 90.109,94.608C90.255,94.493 90.446,94.436 90.682,94.436C91.127,94.436 91.451,94.667 91.656,95.129C91.865,95.587 91.969,96.306 91.969,97.285C91.969,98.243 91.863,98.933 91.651,99.353C91.443,99.783 91.108,99.999 90.646,99.999C90.424,99.999 90.241,99.948 90.099,99.848C90.03,99.799 89.96,99.73 89.891,99.639C89.821,99.549 89.752,99.44 89.682,99.311L89.682,102.124L88.688,102.124ZM90.938,97.249C90.938,96.516 90.889,96.02 90.792,95.759C90.698,95.478 90.529,95.337 90.286,95.337C90.057,95.337 89.894,95.483 89.797,95.775C89.7,96.046 89.651,96.528 89.651,97.223C89.651,97.917 89.7,98.4 89.797,98.671C89.898,98.959 90.061,99.103 90.286,99.103C90.523,99.103 90.691,98.964 90.792,98.686C90.889,98.429 90.938,97.95 90.938,97.249Z" style="fill:rgb(158,161,168);fill-rule:nonzero;"/>
            <path id="path1002" d="M95.974,94.525L95.974,99.915L94.979,99.915L94.979,99.223C94.837,99.518 94.694,99.721 94.552,99.832C94.41,99.943 94.222,99.999 93.99,99.999C93.542,99.999 93.214,99.77 93.005,99.311C92.797,98.853 92.693,98.134 92.693,97.155C92.693,96.221 92.797,95.535 93.005,95.098C93.214,94.657 93.542,94.436 93.99,94.436C94.399,94.436 94.729,94.669 94.979,95.134L94.979,94.525L95.974,94.525ZM93.724,97.197C93.724,97.905 93.771,98.4 93.865,98.681C93.962,98.962 94.132,99.103 94.375,99.103C94.597,99.103 94.759,98.957 94.859,98.665C94.96,98.353 95.01,97.872 95.01,97.223C95.01,96.57 94.96,96.087 94.859,95.775C94.759,95.483 94.597,95.337 94.375,95.337C94.139,95.337 93.97,95.476 93.87,95.754C93.773,96.011 93.724,96.492 93.724,97.197L93.724,97.197Z" style="fill:rgb(158,161,168);fill-rule:nonzero;"/>
            <path id="path1004" d="M99.188,94.634L99.188,95.566C98.944,95.386 98.689,95.296 98.422,95.296C98.332,95.296 98.248,95.311 98.172,95.342C98.095,95.374 98.028,95.417 97.969,95.473C97.913,95.525 97.868,95.589 97.833,95.665C97.802,95.738 97.786,95.816 97.786,95.9C97.786,96.157 98.019,96.462 98.484,96.816C98.672,96.962 98.828,97.098 98.953,97.223C99.078,97.348 99.174,97.466 99.24,97.577C99.375,97.796 99.443,98.072 99.443,98.405C99.443,98.888 99.302,99.275 99.021,99.566C98.743,99.855 98.37,99.999 97.901,99.999C97.613,99.999 97.321,99.914 97.026,99.744L97.026,98.78C97.314,98.995 97.587,99.103 97.844,99.103C98.299,99.103 98.526,98.879 98.526,98.431C98.526,98.264 98.484,98.12 98.401,97.999C98.363,97.94 98.302,97.872 98.219,97.796C98.135,97.716 98.033,97.627 97.911,97.53C97.491,97.204 97.207,96.929 97.057,96.707C96.911,96.478 96.839,96.202 96.839,95.879C96.839,95.445 96.972,95.089 97.24,94.811C97.51,94.537 97.863,94.4 98.297,94.4C98.602,94.4 98.899,94.478 99.187,94.634L99.188,94.634Z" style="fill:rgb(158,161,168);fill-rule:nonzero;"/>
            <path id="path1006" d="M102.333,94.634L102.333,95.566C102.09,95.386 101.835,95.296 101.568,95.296C101.477,95.296 101.394,95.311 101.318,95.342C101.241,95.374 101.174,95.417 101.115,95.473C101.059,95.525 101.014,95.589 100.979,95.665C100.948,95.738 100.932,95.816 100.932,95.9C100.932,96.157 101.165,96.462 101.63,96.816C101.818,96.962 101.974,97.098 102.099,97.223C102.224,97.348 102.319,97.466 102.385,97.577C102.521,97.796 102.589,98.072 102.589,98.405C102.589,98.888 102.448,99.275 102.167,99.566C101.889,99.855 101.516,99.999 101.047,99.999C100.759,99.999 100.467,99.914 100.172,99.744L100.172,98.78C100.46,98.995 100.733,99.103 100.99,99.103C101.444,99.103 101.672,98.879 101.672,98.431C101.672,98.264 101.63,98.12 101.547,97.999C101.509,97.94 101.448,97.872 101.365,97.796C101.281,97.716 101.179,97.627 101.057,97.53C100.637,97.204 100.352,96.929 100.203,96.707C100.057,96.478 99.984,96.202 99.984,95.879C99.984,95.445 100.118,95.089 100.385,94.811C100.656,94.537 101.009,94.4 101.443,94.4C101.748,94.4 102.045,94.478 102.333,94.634L102.333,94.634Z" style="fill:rgb(158,161,168);fill-rule:nonzero;"/>
        </g>
        <g id="text1011" transform="matrix(1.02781,0,0,0.972941,0,0)">
            <path id="path1013" d="M14.965,225.204L14.965,226.456C14.608,226.282 14.309,226.195 14.068,226.195C13.738,226.195 13.455,226.277 13.218,226.442C12.982,226.603 12.786,226.853 12.63,227.192C12.478,227.531 12.364,227.961 12.288,228.483C12.217,229.001 12.181,229.614 12.181,230.323C12.181,232.875 12.835,234.151 14.142,234.151C14.369,234.151 14.644,234.08 14.965,233.937L14.965,235.215C14.63,235.402 14.256,235.496 13.841,235.496C11.748,235.496 10.702,233.787 10.702,230.37C10.702,228.523 10.957,227.149 11.465,226.248C11.978,225.347 12.761,224.897 13.814,224.897C14.202,224.897 14.586,224.999 14.965,225.204L14.965,225.204Z" style="fill:rgb(158,161,168);fill-rule:nonzero;"/>
            <path id="path1015" d="M15.306,225.037L16.678,225.037L17.3,228.851L17.407,229.541L17.628,231.039C17.664,231.294 17.695,231.526 17.722,231.735C17.753,231.945 17.78,232.135 17.802,232.304L17.869,232.813C17.882,232.71 17.893,232.619 17.902,232.538C17.911,232.458 17.92,232.391 17.929,232.338L18.11,231.14L18.344,229.567C18.366,229.425 18.386,229.293 18.404,229.172C18.427,229.052 18.447,228.945 18.464,228.851L19.134,225.037L20.432,225.037L18.404,235.369L17.3,235.369L15.306,225.037Z" style="fill:rgb(158,161,168);fill-rule:nonzero;"/>
        </g>
        <g id="text940" transform="matrix(0.826372,0,0,1.21011,0,0)">
            <path id="path943" d="M15.242,13.263L12.101,13.263L12.101,1.633L15.144,1.633C16.66,1.633 17.785,1.942 18.518,2.56C19.382,3.288 19.814,4.3 19.814,5.595C19.814,7.006 19.354,8.058 18.436,8.751C17.808,9.218 16.907,9.452 15.732,9.452L15.242,9.452L15.242,13.263ZM15.242,6.838L15.385,6.846C15.767,6.846 16.07,6.73 16.296,6.499C16.522,6.263 16.635,5.942 16.635,5.535C16.635,5.133 16.525,4.807 16.304,4.556C16.083,4.3 15.802,4.172 15.46,4.172L15.242,4.172L15.242,6.838Z" style="fill:rgb(158,161,168);fill-rule:nonzero;"/>
            <path id="path948" d="M29.477,7.486C29.477,9.258 29.073,10.699 28.265,11.809C27.461,12.914 26.414,13.466 25.124,13.466C23.979,13.466 22.997,13.042 22.179,12.193C21.15,11.119 20.635,9.507 20.635,7.358C20.635,5.299 21.172,3.725 22.247,2.635C23.045,1.827 23.992,1.422 25.086,1.422C26.427,1.422 27.494,1.97 28.287,3.064C29.081,4.159 29.477,5.633 29.477,7.486ZM26.216,7.508C26.216,5.404 25.845,4.352 25.101,4.352C24.73,4.352 24.434,4.629 24.213,5.181C23.997,5.693 23.889,6.446 23.889,7.441C23.889,8.42 23.989,9.18 24.19,9.723C24.396,10.26 24.68,10.529 25.041,10.529C25.413,10.529 25.699,10.263 25.9,9.73C26.111,9.198 26.216,8.457 26.216,7.508L26.216,7.508Z" style="fill:rgb(158,161,168);fill-rule:nonzero;"/>
            <path id="path950" d="M36.309,13.263L30.811,13.263L30.811,1.633L33.952,1.633L33.952,10.468L36.309,10.468L36.309,13.263Z" style="fill:rgb(158,161,168);fill-rule:nonzero;"/>
            <path id="path952" d="M41.777,13.263L38.636,13.263L38.636,8.337L35.752,1.633L39.028,1.633L39.593,3.358C39.703,3.695 39.801,4.019 39.887,4.33C39.977,4.641 40.057,4.94 40.128,5.226C40.243,4.799 40.344,4.433 40.429,4.126C40.514,3.815 40.59,3.564 40.655,3.373L41.227,1.633L44.481,1.633L41.777,8.337L41.777,13.263Z" style="fill:rgb(158,161,168);fill-rule:nonzero;"/>
            <path id="path954" d="M49.693,12.977L49.693,9.324C50.311,10.167 50.979,10.589 51.697,10.589C51.968,10.589 52.189,10.519 52.36,10.378C52.531,10.232 52.616,10.052 52.616,9.836C52.616,9.524 52.43,9.221 52.059,8.924L51.546,8.525C51.205,8.269 50.914,8.016 50.673,7.764C50.432,7.508 50.236,7.247 50.085,6.981C49.935,6.71 49.824,6.431 49.754,6.145C49.683,5.859 49.648,5.558 49.648,5.241C49.648,4.699 49.774,4.132 50.025,3.539C50.15,3.263 50.296,3.012 50.462,2.786C50.627,2.555 50.818,2.351 51.034,2.176C51.627,1.674 52.342,1.422 53.181,1.422C53.929,1.422 54.682,1.621 55.44,2.018L55.44,5.573C55.184,5.176 54.893,4.865 54.567,4.639C54.24,4.408 53.919,4.292 53.603,4.292C53.362,4.292 53.163,4.362 53.008,4.503C52.847,4.639 52.767,4.802 52.767,4.993C52.767,5.304 52.98,5.613 53.407,5.919L53.904,6.288C54.567,6.765 55.041,7.255 55.327,7.757C55.619,8.259 55.764,8.847 55.764,9.519C55.764,10.664 55.415,11.608 54.717,12.351C54.019,13.095 53.136,13.466 52.066,13.466C51.328,13.466 50.537,13.303 49.693,12.977L49.693,12.977Z" style="fill:rgb(158,161,168);fill-rule:nonzero;"/>
            <path id="path956" d="M63.53,9.685L63.349,13.044C62.651,13.326 62.026,13.466 61.474,13.466C60.173,13.466 59.078,12.989 58.19,12.035C57.195,10.966 56.698,9.452 56.698,7.493C56.698,5.661 57.165,4.189 58.099,3.08C59.033,1.975 60.281,1.422 61.843,1.422C62.35,1.422 62.867,1.518 63.394,1.709L63.394,5.03C62.927,4.563 62.448,4.33 61.956,4.33C61.313,4.33 60.811,4.604 60.449,5.151C60.088,5.703 59.907,6.466 59.907,7.441C59.907,7.913 59.952,8.334 60.042,8.706C60.133,9.078 60.261,9.391 60.427,9.647C60.597,9.904 60.806,10.099 61.052,10.235C61.298,10.371 61.579,10.438 61.895,10.438C62.438,10.438 62.983,10.187 63.53,9.685L63.53,9.685Z" style="fill:rgb(158,161,168);fill-rule:nonzero;"/>
            <path id="path958" d="M73.321,13.263L70.075,13.263L69.842,11.787L67.725,11.787L67.469,13.263L64.223,13.263L67.017,1.633L70.859,1.633L73.321,13.263ZM69.473,9.293L69.269,7.938C69.264,7.933 69.254,7.865 69.239,7.734C69.229,7.624 69.176,7.187 69.081,6.424C69.071,6.338 69.058,6.223 69.043,6.077C69.028,5.927 69.008,5.738 68.983,5.512L68.885,4.413C68.875,4.518 68.86,4.636 68.84,4.767C68.825,4.897 68.807,5.04 68.787,5.196C68.752,5.507 68.727,5.723 68.712,5.844C68.696,5.964 68.686,6.037 68.681,6.062L68.463,7.471L68.147,9.293L69.473,9.293Z" style="fill:rgb(158,161,168);fill-rule:nonzero;"/>
            <path id="path960" d="M79.724,13.263L74.225,13.263L74.225,1.633L77.366,1.633L77.366,10.468L79.724,10.468L79.724,13.263Z" style="fill:rgb(158,161,168);fill-rule:nonzero;"/>
            <path id="path962" d="M89.47,13.263L86.224,13.263L85.99,11.787L83.874,11.787L83.618,13.263L80.371,13.263L83.166,1.633L87.007,1.633L89.47,13.263ZM85.621,9.293L85.418,7.938C85.413,7.933 85.403,7.865 85.388,7.734C85.378,7.624 85.325,7.187 85.23,6.424C85.219,6.338 85.207,6.223 85.192,6.077C85.177,5.927 85.157,5.738 85.131,5.512L85.034,4.413C85.023,4.518 85.008,4.636 84.988,4.767C84.973,4.897 84.956,5.04 84.936,5.196C84.9,5.507 84.875,5.723 84.86,5.844C84.845,5.964 84.835,6.037 84.83,6.062L84.612,7.471L84.295,9.293L85.621,9.293Z" style="fill:rgb(158,161,168);fill-rule:nonzero;"/>
            <path id="path964" d="M103.691,13.489L101.167,14.875L100.09,13.316C99.729,13.416 99.417,13.466 99.156,13.466C97.911,13.466 96.874,12.959 96.046,11.945C95.162,10.865 94.72,9.374 94.72,7.471C94.72,5.628 95.122,4.162 95.925,3.072C96.729,1.972 97.803,1.422 99.149,1.422C100.459,1.422 101.524,1.967 102.342,3.057C103.161,4.147 103.57,5.565 103.57,7.313C103.57,9.306 103.131,10.833 102.252,11.892L103.691,13.489ZM100.316,7.508C100.316,7.011 100.289,6.567 100.233,6.175C100.178,5.784 100.1,5.455 100,5.188C99.9,4.917 99.774,4.711 99.623,4.571C99.478,4.425 99.312,4.352 99.126,4.352C98.775,4.352 98.494,4.634 98.283,5.196C98.077,5.799 97.974,6.554 97.974,7.463C97.974,7.945 97.999,8.377 98.049,8.759C98.104,9.14 98.18,9.462 98.275,9.723C98.376,9.984 98.499,10.185 98.644,10.325C98.79,10.461 98.953,10.529 99.134,10.529C99.32,10.529 99.485,10.461 99.631,10.325C99.777,10.19 99.9,9.991 100,9.73C100.105,9.469 100.183,9.153 100.233,8.781C100.289,8.41 100.316,7.985 100.316,7.508L100.316,7.508Z" style="fill:rgb(158,161,168);fill-rule:nonzero;"/>
            <path id="path966" d="M109.792,1.633L112.932,1.633L112.932,9.858C112.932,10.546 112.825,11.104 112.609,11.53C112.398,11.977 112.046,12.382 111.554,12.743C110.891,13.225 110.085,13.466 109.136,13.466C108.062,13.466 107.16,13.2 106.432,12.668C105.508,11.99 105.046,10.905 105.046,9.414L105.046,1.633L108.187,1.633L108.187,9.135C108.187,9.642 108.248,10.001 108.368,10.212C108.494,10.423 108.702,10.529 108.993,10.529C109.295,10.529 109.503,10.431 109.618,10.235C109.734,10.029 109.792,9.665 109.792,9.143L109.792,1.633Z" style="fill:rgb(158,161,168);fill-rule:nonzero;"/>
            <path id="path968" d="M122.822,13.263L119.576,13.263L119.342,11.787L117.226,11.787L116.97,13.263L113.723,13.263L116.518,1.633L120.359,1.633L122.822,13.263ZM118.973,9.293L118.77,7.938C118.765,7.933 118.755,7.865 118.74,7.734C118.729,7.624 118.677,7.187 118.581,6.424C118.571,6.338 118.559,6.223 118.544,6.077C118.528,5.927 118.508,5.738 118.483,5.512L118.385,4.413C118.375,4.518 118.36,4.636 118.34,4.767C118.325,4.897 118.308,5.04 118.287,5.196C118.252,5.507 118.227,5.723 118.212,5.844C118.197,5.964 118.187,6.037 118.182,6.062L117.964,7.471L117.647,9.293L118.973,9.293Z" style="fill:rgb(158,161,168);fill-rule:nonzero;"/>
            <path id="path970" d="M123.726,13.263L123.726,1.633L126.724,1.633L128.298,5.716C128.383,5.957 128.479,6.233 128.584,6.544C128.695,6.856 128.815,7.215 128.946,7.621L129.269,8.646C129.154,7.636 129.066,6.773 129.006,6.055C128.946,5.337 128.915,4.734 128.915,4.247L128.915,1.633L131.913,1.633L131.913,13.263L128.915,13.263L127.334,8.985C127.168,8.528 127.017,8.101 126.882,7.704C126.751,7.302 126.636,6.921 126.535,6.559C126.601,7.378 126.648,8.091 126.678,8.698C126.709,9.306 126.724,9.838 126.724,10.295L126.724,13.263L123.726,13.263Z" style="fill:rgb(158,161,168);fill-rule:nonzero;"/>
            <path id="path972" d="M137.607,13.263L134.467,13.263L134.467,4.42L132.734,4.42L132.734,1.633L139.408,1.633L139.408,4.42L137.607,4.42L137.607,13.263Z" style="fill:rgb(158,161,168);fill-rule:nonzero;"/>
            <rect id="path974" x="140.236" y="1.633" width="3.141" height="11.629" style="fill:rgb(158,161,168);fill-rule:nonzero;"/>
            <path id="path976" d="M152.483,13.263L144.477,13.263L144.477,13.014L147.203,6.785C147.404,6.409 147.565,6.1 147.685,5.859C147.811,5.618 147.901,5.447 147.956,5.347C148.052,5.151 148.248,4.824 148.544,4.368L145.17,4.368L145.17,1.633L152.875,1.633L152.875,1.957L150.013,8.292C149.827,8.698 149.641,9.093 149.455,9.474C149.27,9.856 149.084,10.235 148.898,10.612C149.229,10.586 149.488,10.569 149.674,10.559C149.865,10.544 149.99,10.536 150.05,10.536L152.483,10.468L152.483,13.263Z" style="fill:rgb(158,161,168);fill-rule:nonzero;"/>
            <path id="path978" d="M153.975,13.263L153.975,1.633L159.812,1.633L159.812,4.368L157.115,4.368L157.115,6.062L159.533,6.062L159.533,8.691L157.115,8.691L157.115,10.468L159.812,10.468L159.812,13.263L153.975,13.263Z" style="fill:rgb(158,161,168);fill-rule:nonzero;"/>
            <path id="path980" d="M169.415,13.263L166.018,13.263L164.467,9.12C164.452,9.05 164.424,8.957 164.384,8.842C164.349,8.726 164.303,8.588 164.248,8.427L164.271,9.196L164.271,13.263L161.145,13.263L161.145,1.633L164.361,1.633C165.777,1.633 166.837,1.912 167.54,2.469C168.434,3.182 168.88,4.197 168.88,5.512C168.88,6.918 168.28,7.89 167.08,8.427L169.415,13.263ZM164.286,7.019L164.497,7.019C164.858,7.019 165.16,6.881 165.401,6.605C165.642,6.328 165.762,5.977 165.762,5.55C165.762,4.681 165.308,4.247 164.399,4.247L164.286,4.247L164.286,7.019Z" style="fill:rgb(158,161,168);fill-rule:nonzero;"/>
        </g>
    </g>
</svg>
