<?xml version="1.0" encoding="UTF-8" standalone="no"?>
<!DOCTYPE svg PUBLIC "-//W3C//DTD SVG 1.1//EN" "http://www.w3.org/Graphics/SVG/1.1/DTD/svg11.dtd">
<svg width="100%" height="100%" viewBox="0 0 15 380" version="1.1" xmlns="http://www.w3.org/2000/svg" xmlns:xlink="http://www.w3.org/1999/xlink" xml:space="preserve" xmlns:serif="http://www.serif.com/" style="fill-rule:evenodd;clip-rule:evenodd;stroke-linejoin:round;stroke-miterlimit:2;">
    <g id="Layer-2" serif:id="Layer 2">
        <g id="text989">
        </g>
        <rect id="rect4689" x="-0.264" y="0" width="15" height="380" style="fill:rgb(44,45,48);fill-rule:nonzero;"/>
        <g id="path4726" transform="matrix(1,0,0,1,-25.2463,11.1351)">
            <path d="M30,365.865L30,358.14L32.011,358.14L33.067,360.852C33.124,361.012 33.188,361.195 33.259,361.402C33.333,361.609 33.414,361.847 33.502,362.118L33.719,362.798C33.642,362.128 33.583,361.554 33.542,361.077C33.502,360.6 33.482,360.2 33.482,359.876L33.482,358.14L35.493,358.14L35.493,365.865L33.482,365.865L32.42,363.023C32.309,362.72 32.208,362.436 32.117,362.173C32.03,361.906 31.952,361.652 31.885,361.412C31.929,361.956 31.961,362.429 31.981,362.833C32.001,363.237 32.011,363.59 32.011,363.894L32.011,365.865L30,365.865Z" style="fill:rgb(158,161,168);fill-rule:nonzero;"/>
        </g>
        <g id="text4987">
        </g>
        <g id="text1042">
        </g>
        <g id="text954" transform="matrix(1.00796,0,0,0.992103,0,0)">
            <path id="path1119" d="M1.037,17.652L1.037,13.983C1.658,14.83 2.328,15.254 3.05,15.254C3.322,15.254 3.544,15.183 3.715,15.042C3.887,14.896 3.972,14.714 3.972,14.497C3.972,14.185 3.786,13.879 3.413,13.582L2.898,13.181C2.555,12.924 2.263,12.669 2.021,12.417C1.779,12.16 1.582,11.898 1.431,11.63C1.28,11.358 1.169,11.078 1.098,10.791C1.027,10.503 0.992,10.201 0.992,9.883C0.992,9.338 1.118,8.768 1.37,8.173C1.496,7.896 1.643,7.644 1.809,7.417C1.975,7.185 2.167,6.981 2.384,6.804C2.979,6.3 3.698,6.048 4.54,6.048C5.291,6.048 6.048,6.247 6.809,6.645L6.809,10.216C6.552,9.817 6.259,9.505 5.932,9.278C5.604,9.046 5.281,8.93 4.963,8.93C4.721,8.93 4.522,9 4.366,9.142C4.204,9.278 4.124,9.442 4.124,9.633C4.124,9.946 4.338,10.256 4.767,10.564L5.266,10.934C5.932,11.413 6.408,11.905 6.696,12.409C6.988,12.914 7.134,13.504 7.134,14.18C7.134,15.329 6.784,16.277 6.083,17.024C5.382,17.77 4.494,18.143 3.42,18.143C2.679,18.143 1.885,17.979 1.037,17.652Z" style="fill:rgb(158,161,168);fill-rule:nonzero;"/>
            <path id="path1121" d="M13.889,17.939L8.367,17.939L8.367,6.26L11.522,6.26L11.522,15.133L13.889,15.133L13.889,17.939Z" style="fill:rgb(158,161,168);fill-rule:nonzero;"/>
        </g>
        <g id="text958" transform="matrix(0.964753,0,0,1.03653,0,0)">
            <path id="path1108" d="M2.568,18.524L2.568,19.266C2.337,19.1 2.129,19.017 1.943,19.017C1.744,19.017 1.58,19.088 1.454,19.229C1.327,19.363 1.264,19.542 1.264,19.766C1.264,19.964 1.309,20.133 1.399,20.274C1.445,20.35 1.521,20.447 1.626,20.567C1.733,20.686 1.87,20.83 2.038,20.998C2.348,21.312 2.559,21.584 2.671,21.813C2.783,22.035 2.839,22.306 2.839,22.628C2.839,23.064 2.716,23.423 2.47,23.706C2.224,23.981 1.908,24.119 1.523,24.119C1.199,24.119 0.923,24.03 0.694,23.852L0.694,23.099C0.964,23.297 1.21,23.395 1.432,23.395C1.639,23.395 1.801,23.327 1.918,23.191C2.035,23.052 2.093,22.864 2.093,22.628C2.093,22.423 2.048,22.239 1.958,22.076C1.912,21.998 1.847,21.909 1.764,21.809C1.682,21.707 1.578,21.594 1.454,21.469C1.261,21.279 1.102,21.111 0.975,20.965C0.848,20.819 0.755,20.691 0.694,20.581C0.577,20.367 0.518,20.097 0.518,19.77C0.518,19.329 0.633,18.98 0.862,18.721C1.093,18.461 1.404,18.33 1.794,18.33C2.064,18.33 2.322,18.395 2.568,18.524Z" style="fill:rgb(158,161,168);fill-rule:nonzero;"/>
            <path id="path1110" d="M3.478,18.407L4.238,18.407L4.238,20.614L5.353,20.614L5.353,18.407L6.113,18.407L6.113,24.049L5.353,24.049L5.353,21.257L4.238,21.257L4.238,24.049L3.478,24.049L3.478,18.407Z" style="fill:rgb(158,161,168);fill-rule:nonzero;"/>
            <path id="path1112" d="M7.79,18.407L8.382,18.407L9.592,24.049L8.839,24.049L8.627,22.949L7.509,22.949L7.293,24.049L6.563,24.049L7.79,18.407ZM8.518,22.361L8.35,21.462C8.238,20.851 8.146,20.198 8.075,19.503C8.041,19.842 7.998,20.186 7.944,20.534C7.89,20.88 7.827,21.248 7.754,21.638L7.615,22.361L8.518,22.361Z" style="fill:rgb(158,161,168);fill-rule:nonzero;"/>
            <path id="path1114" d="M10.042,18.407L11.043,18.407C11.525,18.407 11.876,18.529 12.095,18.772C12.315,19.019 12.424,19.408 12.424,19.942C12.424,20.692 12.204,21.177 11.763,21.396C11.541,21.496 11.221,21.546 10.802,21.546L10.802,24.049L10.042,24.049L10.042,18.407ZM10.802,20.896C11.116,20.896 11.333,20.832 11.452,20.706C11.574,20.577 11.635,20.348 11.635,20.019C11.635,19.682 11.576,19.436 11.459,19.28C11.343,19.125 11.159,19.047 10.908,19.047L10.802,19.047L10.802,20.896Z" style="fill:rgb(158,161,168);fill-rule:nonzero;"/>
            <path id="path1116" d="M13.009,18.407L15.03,18.407L15.03,19.05L13.769,19.05L13.769,20.837L14.887,20.837L14.887,21.48L13.769,21.48L13.769,23.406L15.03,23.406L15.03,24.049L13.009,24.049L13.009,18.407Z" style="fill:rgb(158,161,168);fill-rule:nonzero;"/>
        </g>
        <g id="text970" transform="matrix(1.05202,0,0,0.950555,0,-8)">
            <path id="path1077" d="M0.951,129.557L2.074,129.557C2.954,129.557 3.393,130.103 3.393,131.195C3.393,131.612 3.336,131.922 3.222,132.124C3.108,132.326 2.906,132.478 2.616,132.582C2.948,132.715 3.175,132.885 3.298,133.092C3.423,133.297 3.485,133.605 3.485,134.017C3.485,135.146 3.001,135.71 2.034,135.71L0.951,135.71L0.951,129.557ZM1.732,132.267C2.053,132.267 2.276,132.193 2.401,132.044C2.526,131.887 2.588,131.612 2.588,131.219C2.588,130.555 2.349,130.223 1.871,130.223L1.807,130.223L1.771,130.223C1.75,130.223 1.737,130.224 1.732,130.227L1.732,132.267ZM1.732,135.001C2.072,135.001 2.307,134.928 2.437,134.782C2.567,134.636 2.632,134.371 2.632,133.989C2.632,133.596 2.564,133.321 2.429,133.164C2.296,133.004 2.064,132.925 1.732,132.925L1.732,135.001Z" style="fill:rgb(158,161,168);fill-rule:nonzero;"/>
            <path id="path1079" d="M3.776,129.557L4.653,129.557L5.059,130.896C5.072,130.936 5.086,130.98 5.099,131.028C5.112,131.076 5.128,131.128 5.147,131.183C5.298,131.667 5.402,132.073 5.457,132.403C5.505,132.073 5.545,131.843 5.577,131.713L5.705,131.163L5.752,130.948L6.095,129.557L6.96,129.557L5.888,133.064L5.888,135.71L5.059,135.71L5.059,133.064L3.776,129.557Z" style="fill:rgb(158,161,168);fill-rule:nonzero;"/>
            <path id="path1081" d="M7.422,129.557L8.514,129.557C9.04,129.557 9.422,129.69 9.662,129.956C9.901,130.224 10.02,130.649 10.02,131.231C10.02,132.049 9.78,132.578 9.299,132.817C9.057,132.926 8.708,132.981 8.251,132.981L8.251,135.71L7.422,135.71L7.422,129.557ZM8.251,132.271C8.594,132.271 8.83,132.202 8.96,132.064C9.093,131.923 9.159,131.673 9.159,131.315C9.159,130.948 9.096,130.68 8.968,130.51C8.841,130.34 8.64,130.255 8.366,130.255L8.251,130.255L8.251,132.271Z" style="fill:rgb(158,161,168);fill-rule:nonzero;"/>
            <path id="path1084" d="M11.343,129.557L11.989,129.557L13.308,135.71L12.487,135.71L12.256,134.511L11.036,134.511L10.801,135.71L10.004,135.71L11.343,129.557ZM12.136,133.869L11.953,132.889C11.831,132.222 11.731,131.51 11.654,130.753C11.617,131.122 11.569,131.497 11.511,131.877C11.452,132.254 11.383,132.655 11.303,133.08L11.152,133.869L12.136,133.869Z" style="fill:rgb(158,161,168);fill-rule:nonzero;"/>
        </g>
        <g id="text982" transform="matrix(0.964753,0,0,1.03653,0,0)">
            <path id="path1054" d="M2.568,188.32L2.568,189.062C2.337,188.897 2.129,188.814 1.943,188.814C1.744,188.814 1.58,188.884 1.454,189.026C1.327,189.16 1.264,189.339 1.264,189.563C1.264,189.76 1.309,189.929 1.399,190.071C1.445,190.146 1.521,190.244 1.626,190.363C1.733,190.483 1.87,190.626 2.038,190.794C2.348,191.109 2.559,191.38 2.671,191.609C2.783,191.831 2.839,192.103 2.839,192.424C2.839,192.86 2.716,193.22 2.47,193.502C2.224,193.778 1.908,193.915 1.523,193.915C1.199,193.915 0.923,193.826 0.694,193.648L0.694,192.896C0.964,193.093 1.21,193.192 1.432,193.192C1.639,193.192 1.801,193.123 1.918,192.987C2.035,192.848 2.093,192.661 2.093,192.424C2.093,192.22 2.048,192.036 1.958,191.872C1.912,191.794 1.847,191.705 1.764,191.606C1.682,191.503 1.578,191.39 1.454,191.266C1.261,191.076 1.102,190.908 0.975,190.761C0.848,190.615 0.755,190.487 0.694,190.378C0.577,190.163 0.518,189.893 0.518,189.566C0.518,189.126 0.633,188.776 0.862,188.518C1.093,188.257 1.404,188.127 1.794,188.127C2.064,188.127 2.322,188.191 2.568,188.32L2.568,188.32Z" style="fill:rgb(158,161,168);fill-rule:nonzero;"/>
            <path id="path1056" d="M3.478,188.203L4.238,188.203L4.238,190.411L5.353,190.411L5.353,188.203L6.113,188.203L6.113,193.846L5.353,193.846L5.353,191.054L4.238,191.054L4.238,193.846L3.478,193.846L3.478,188.203Z" style="fill:rgb(158,161,168);fill-rule:nonzero;"/>
            <path id="path1058" d="M7.79,188.203L8.382,188.203L9.592,193.846L8.839,193.846L8.627,192.746L7.509,192.746L7.293,193.846L6.563,193.846L7.79,188.203ZM8.518,192.157L8.35,191.258C8.238,190.647 8.146,189.994 8.075,189.3C8.041,189.638 7.998,189.982 7.944,190.33C7.89,190.676 7.827,191.044 7.754,191.434L7.615,192.157L8.518,192.157Z" style="fill:rgb(158,161,168);fill-rule:nonzero;"/>
            <path id="path1060" d="M10.042,188.203L11.043,188.203C11.525,188.203 11.876,188.325 12.095,188.569C12.315,188.815 12.424,189.205 12.424,189.738C12.424,190.489 12.204,190.973 11.763,191.193C11.541,191.293 11.221,191.342 10.802,191.342L10.802,193.846L10.042,193.846L10.042,188.203ZM10.802,190.692C11.116,190.692 11.333,190.629 11.452,190.502C11.574,190.373 11.635,190.144 11.635,189.815C11.635,189.479 11.576,189.233 11.459,189.077C11.343,188.921 11.159,188.843 10.908,188.843L10.802,188.843L10.802,190.692Z" style="fill:rgb(158,161,168);fill-rule:nonzero;"/>
            <path id="path1062" d="M13.009,188.203L15.03,188.203L15.03,188.847L13.769,188.847L13.769,190.634L14.887,190.634L14.887,191.277L13.769,191.277L13.769,193.203L15.03,193.203L15.03,193.846L13.009,193.846L13.009,188.203Z" style="fill:rgb(158,161,168);fill-rule:nonzero;"/>
        </g>
        <g id="text994" transform="matrix(1.05202,0,0,0.950555,0,-8)">
            <path id="path1018" d="M0.951,314.713L2.074,314.713C2.954,314.713 3.393,315.259 3.393,316.351C3.393,316.768 3.336,317.077 3.222,317.279C3.108,317.481 2.906,317.634 2.616,317.737C2.948,317.87 3.175,318.04 3.298,318.248C3.423,318.452 3.485,318.76 3.485,319.172C3.485,320.301 3.001,320.866 2.034,320.866L0.951,320.866L0.951,314.713ZM1.732,317.423C2.053,317.423 2.276,317.348 2.401,317.2C2.526,317.043 2.588,316.768 2.588,316.375C2.588,315.711 2.349,315.378 1.871,315.378L1.807,315.378L1.771,315.378C1.75,315.378 1.737,315.38 1.732,315.383L1.732,317.423ZM1.732,320.156C2.072,320.156 2.307,320.083 2.437,319.937C2.567,319.791 2.632,319.527 2.632,319.144C2.632,318.751 2.564,318.476 2.429,318.319C2.296,318.16 2.064,318.08 1.732,318.08L1.732,320.156Z" style="fill:rgb(158,161,168);fill-rule:nonzero;"/>
            <path id="path1020" d="M3.776,314.713L4.653,314.713L5.059,316.052C5.072,316.092 5.086,316.136 5.099,316.183C5.112,316.231 5.128,316.283 5.147,316.339C5.298,316.822 5.402,317.229 5.457,317.558C5.505,317.229 5.545,316.999 5.577,316.869L5.705,316.319L5.752,316.104L6.095,314.713L6.96,314.713L5.888,318.22L5.888,320.866L5.059,320.866L5.059,318.22L3.776,314.713Z" style="fill:rgb(158,161,168);fill-rule:nonzero;"/>
            <path id="path1022" d="M7.422,314.713L8.514,314.713C9.04,314.713 9.422,314.846 9.662,315.111C9.901,315.38 10.02,315.805 10.02,316.387C10.02,317.205 9.78,317.734 9.299,317.973C9.057,318.082 8.708,318.136 8.251,318.136L8.251,320.866L7.422,320.866L7.422,314.713ZM8.251,317.427C8.594,317.427 8.83,317.358 8.96,317.219C9.093,317.079 9.159,316.829 9.159,316.47C9.159,316.104 9.096,315.835 8.968,315.665C8.841,315.495 8.64,315.41 8.366,315.41L8.251,315.41L8.251,317.427Z" style="fill:rgb(158,161,168);fill-rule:nonzero;"/>
            <path id="path1024" d="M11.343,314.713L11.989,314.713L13.308,320.866L12.487,320.866L12.256,319.666L11.036,319.666L10.801,320.866L10.004,320.866L11.343,314.713ZM12.136,319.025L11.953,318.044C11.831,317.378 11.731,316.666 11.654,315.908C11.617,316.278 11.569,316.652 11.511,317.032C11.452,317.409 11.383,317.811 11.303,318.236L11.152,319.025L12.136,319.025Z" style="fill:rgb(158,161,168);fill-rule:nonzero;"/>
        </g>
        <g id="text1126" transform="matrix(0.85113,0,0,1.17491,0,0)">
            <rect id="path1180" x="0.587" y="131.993" width="0.671" height="4.978" style="fill:rgb(158,161,168);fill-rule:nonzero;"/>
            <path id="path1182" d="M2.032,131.993L2.657,131.993L3.325,133.979C3.518,134.54 3.689,135.138 3.837,135.775C3.783,135.39 3.744,135.042 3.718,134.73C3.692,134.418 3.679,134.125 3.679,133.85L3.679,131.993L4.353,131.993L4.353,136.971L3.724,136.971L2.973,134.73C2.904,134.521 2.839,134.308 2.777,134.088C2.716,133.869 2.66,133.639 2.609,133.398C2.605,133.368 2.597,133.332 2.586,133.289C2.578,133.246 2.567,133.196 2.554,133.141C2.561,133.196 2.566,133.245 2.57,133.286C2.574,133.324 2.578,133.358 2.58,133.386L2.615,133.892L2.651,134.508C2.653,134.542 2.654,134.584 2.654,134.633C2.656,134.683 2.657,134.739 2.657,134.801L2.693,136.971L2.032,136.971L2.032,131.993Z" style="fill:rgb(158,161,168);fill-rule:nonzero;"/>
            <rect id="path1184" x="6.11" y="135.01" width="1.174" height="0.503" style="fill:rgb(158,161,168);fill-rule:nonzero;"/>
            <path id="path1186" d="M11.526,134.604C11.526,135.483 11.429,136.108 11.233,136.477C11.037,136.847 10.71,137.032 10.25,137.032C9.766,137.032 9.425,136.833 9.228,136.435C9.032,136.046 8.934,135.355 8.934,134.362C8.934,133.477 9.031,132.85 9.224,132.483C9.42,132.113 9.751,131.928 10.217,131.928C10.634,131.928 10.944,132.071 11.146,132.357C11.279,132.548 11.376,132.82 11.436,133.173C11.496,133.499 11.526,133.977 11.526,134.604L11.526,134.604ZM10.824,134.675C10.824,133.813 10.785,133.242 10.708,132.96C10.63,132.676 10.472,132.534 10.234,132.534C9.995,132.534 9.836,132.664 9.756,132.925C9.679,133.187 9.64,133.713 9.64,134.504C9.64,135.233 9.681,135.738 9.763,136.02C9.847,136.286 10.004,136.419 10.234,136.419C10.459,136.419 10.614,136.295 10.698,136.045C10.782,135.798 10.824,135.341 10.824,134.675L10.824,134.675Z" style="fill:rgb(158,161,168);fill-rule:nonzero;"/>
            <path id="path1188" d="M12.194,131.993L12.851,131.993L12.851,135.51C12.851,135.869 12.884,136.108 12.948,136.226C13.015,136.344 13.146,136.403 13.342,136.403C13.537,136.403 13.666,136.352 13.728,136.248C13.793,136.143 13.825,135.929 13.825,135.607L13.825,131.993L14.483,131.993L14.483,135.607C14.483,136.149 14.4,136.515 14.235,136.706C14.037,136.923 13.735,137.032 13.329,137.032C12.882,137.032 12.567,136.892 12.384,136.613C12.257,136.421 12.194,136.054 12.194,135.51L12.194,131.993Z" style="fill:rgb(158,161,168);fill-rule:nonzero;"/>
            <path id="path1190" d="M14.854,131.993L17.036,131.993L17.036,132.58L16.285,132.58L16.285,136.971L15.627,136.971L15.627,132.58L14.854,132.58L14.854,131.993Z" style="fill:rgb(158,161,168);fill-rule:nonzero;"/>
        </g>
        <g id="text1130" transform="matrix(0.874224,0,0,1.14387,0,0)">
            <path id="path1167" d="M1.685,37.724L2.221,37.724L3.317,42.837L2.635,42.837L2.443,41.84L1.43,41.84L1.234,42.837L0.572,42.837L1.685,37.724ZM2.344,41.307L2.191,40.492C2.09,39.938 2.007,39.347 1.943,38.718C1.912,39.024 1.872,39.336 1.824,39.651C1.775,39.965 1.718,40.298 1.651,40.651L1.526,41.307L2.344,41.307Z" style="fill:rgb(158,161,168);fill-rule:nonzero;"/>
            <path id="path1169" d="M3.211,37.724L5.453,37.724L5.453,38.327L4.681,38.327L4.681,42.837L4.006,42.837L4.006,38.327L3.211,38.327L3.211,37.724Z" style="fill:rgb(158,161,168);fill-rule:nonzero;"/>
            <path id="path1171" d="M5.423,37.724L7.665,37.724L7.665,38.327L6.894,38.327L6.894,42.837L6.218,42.837L6.218,38.327L5.423,38.327L5.423,37.724Z" style="fill:rgb(158,161,168);fill-rule:nonzero;"/>
            <path id="path1173" d="M9.447,37.724L10.354,37.724C10.729,37.724 11.009,37.814 11.192,37.992C11.424,38.224 11.539,38.578 11.539,39.055C11.539,39.422 11.478,39.716 11.354,39.939C11.233,40.16 11.058,40.297 10.831,40.35L11.771,42.837L11.073,42.837L10.135,40.334L10.135,42.837L9.447,42.837L9.447,37.724ZM10.135,39.989C10.403,39.989 10.591,39.927 10.702,39.804C10.812,39.68 10.867,39.471 10.867,39.178C10.867,39.019 10.855,38.883 10.831,38.771C10.809,38.658 10.772,38.566 10.722,38.496C10.673,38.425 10.609,38.373 10.529,38.34C10.452,38.307 10.359,38.29 10.251,38.29L10.135,38.29L10.135,39.989Z" style="fill:rgb(158,161,168);fill-rule:nonzero;"/>
            <path id="path1175" d="M12.308,37.724L14.139,37.724L14.139,38.307L12.997,38.307L12.997,39.926L14.01,39.926L14.01,40.509L12.997,40.509L12.997,42.254L14.139,42.254L14.139,42.837L12.308,42.837L12.308,37.724Z" style="fill:rgb(158,161,168);fill-rule:nonzero;"/>
            <path id="path1177" d="M14.771,37.724L15.46,37.724L15.46,42.254L16.586,42.254L16.586,42.837L14.771,42.837L14.771,37.724Z" style="fill:rgb(158,161,168);fill-rule:nonzero;"/>
        </g>
        <g id="text1134" transform="matrix(0.874224,0,0,1.14387,0,0)">
            <path id="path1154" d="M1.685,191.588L2.221,191.588L3.317,196.7L2.635,196.7L2.443,195.704L1.43,195.704L1.234,196.7L0.572,196.7L1.685,191.588ZM2.344,195.171L2.191,194.356C2.09,193.802 2.007,193.21 1.943,192.581C1.912,192.888 1.872,193.199 1.824,193.515C1.775,193.828 1.718,194.162 1.651,194.515L1.526,195.171L2.344,195.171Z" style="fill:rgb(158,161,168);fill-rule:nonzero;"/>
            <path id="path1156" d="M3.211,191.588L5.453,191.588L5.453,192.19L4.681,192.19L4.681,196.7L4.006,196.7L4.006,192.19L3.211,192.19L3.211,191.588Z" style="fill:rgb(158,161,168);fill-rule:nonzero;"/>
            <path id="path1158" d="M5.423,191.588L7.665,191.588L7.665,192.19L6.894,192.19L6.894,196.7L6.218,196.7L6.218,192.19L5.423,192.19L5.423,191.588Z" style="fill:rgb(158,161,168);fill-rule:nonzero;"/>
            <path id="path1160" d="M9.447,191.588L10.354,191.588C10.729,191.588 11.009,191.677 11.192,191.856C11.424,192.088 11.539,192.442 11.539,192.919C11.539,193.285 11.478,193.58 11.354,193.803C11.233,194.024 11.058,194.161 10.831,194.214L11.771,196.7L11.073,196.7L10.135,194.197L10.135,196.7L9.447,196.7L9.447,191.588ZM10.135,193.853C10.403,193.853 10.591,193.791 10.702,193.667C10.812,193.544 10.867,193.335 10.867,193.041C10.867,192.882 10.855,192.747 10.831,192.634C10.809,192.521 10.772,192.43 10.722,192.359C10.673,192.289 10.609,192.237 10.529,192.204C10.452,192.17 10.359,192.154 10.251,192.154L10.135,192.154L10.135,193.853Z" style="fill:rgb(158,161,168);fill-rule:nonzero;"/>
            <path id="path1162" d="M12.308,191.588L14.139,191.588L14.139,192.17L12.997,192.17L12.997,193.79L14.01,193.79L14.01,194.373L12.997,194.373L12.997,196.118L14.139,196.118L14.139,196.7L12.308,196.7L12.308,191.588Z" style="fill:rgb(158,161,168);fill-rule:nonzero;"/>
            <path id="path1164" d="M14.771,191.588L15.46,191.588L15.46,196.118L16.586,196.118L16.586,196.7L14.771,196.7L14.771,191.588Z" style="fill:rgb(158,161,168);fill-rule:nonzero;"/>
        </g>
        <g id="text1138" transform="matrix(0.85113,0,0,1.17491,0,0)">
            <rect id="path1140" x="0.587" y="281.792" width="0.671" height="4.978" style="fill:rgb(158,161,168);fill-rule:nonzero;"/>
            <path id="path1142" d="M2.032,281.792L2.657,281.792L3.325,283.778C3.518,284.339 3.689,284.937 3.837,285.573C3.783,285.189 3.744,284.84 3.718,284.529C3.692,284.217 3.679,283.924 3.679,283.649L3.679,281.792L4.353,281.792L4.353,286.769L3.724,286.769L2.973,284.529C2.904,284.32 2.839,284.106 2.777,283.887C2.716,283.668 2.66,283.438 2.609,283.197C2.605,283.167 2.597,283.131 2.586,283.088C2.578,283.045 2.567,282.995 2.554,282.939C2.561,282.995 2.566,283.044 2.57,283.084C2.574,283.123 2.578,283.156 2.58,283.184L2.615,283.691L2.651,284.306C2.653,284.341 2.654,284.383 2.654,284.432C2.656,284.481 2.657,284.537 2.657,284.6L2.693,286.769L2.032,286.769L2.032,281.792Z" style="fill:rgb(158,161,168);fill-rule:nonzero;"/>
            <rect id="path1144" x="6.11" y="284.809" width="1.174" height="0.503" style="fill:rgb(158,161,168);fill-rule:nonzero;"/>
            <path id="path1147" d="M11.526,284.403C11.526,285.282 11.429,285.907 11.233,286.276C11.037,286.646 10.71,286.831 10.25,286.831C9.766,286.831 9.425,286.632 9.228,286.234C9.032,285.845 8.934,285.154 8.934,284.161C8.934,283.276 9.031,282.649 9.224,282.282C9.42,281.912 9.751,281.727 10.217,281.727C10.634,281.727 10.944,281.87 11.146,282.156C11.279,282.347 11.376,282.619 11.436,282.972C11.496,283.298 11.526,283.775 11.526,284.403L11.526,284.403ZM10.824,284.474C10.824,283.612 10.785,283.04 10.708,282.759C10.63,282.475 10.472,282.333 10.234,282.333C9.995,282.333 9.836,282.463 9.756,282.723C9.679,282.986 9.64,283.512 9.64,284.303C9.64,285.032 9.681,285.537 9.763,285.818C9.847,286.085 10.004,286.218 10.234,286.218C10.459,286.218 10.614,286.094 10.698,285.844C10.782,285.597 10.824,285.14 10.824,284.474L10.824,284.474Z" style="fill:rgb(158,161,168);fill-rule:nonzero;"/>
            <path id="path1149" d="M12.194,281.792L12.851,281.792L12.851,285.309C12.851,285.668 12.884,285.907 12.948,286.025C13.015,286.143 13.146,286.202 13.342,286.202C13.537,286.202 13.666,286.15 13.728,286.047C13.793,285.942 13.825,285.728 13.825,285.406L13.825,281.792L14.483,281.792L14.483,285.406C14.483,285.947 14.4,286.314 14.235,286.505C14.037,286.722 13.735,286.831 13.329,286.831C12.882,286.831 12.567,286.691 12.384,286.412C12.257,286.22 12.194,285.853 12.194,285.309L12.194,281.792Z" style="fill:rgb(158,161,168);fill-rule:nonzero;"/>
            <path id="path1151" d="M14.854,281.792L17.036,281.792L17.036,282.378L16.285,282.378L16.285,286.769L15.627,286.769L15.627,282.378L14.854,282.378L14.854,281.792Z" style="fill:rgb(158,161,168);fill-rule:nonzero;"/>
        </g>
    </g>
</svg>
