<?xml version="1.0" encoding="UTF-8" standalone="no"?>
<!DOCTYPE svg PUBLIC "-//W3C//DTD SVG 1.1//EN" "http://www.w3.org/Graphics/SVG/1.1/DTD/svg11.dtd">
<svg width="100%" height="100%" viewBox="0 0 270 380" version="1.1" xmlns="http://www.w3.org/2000/svg" xmlns:xlink="http://www.w3.org/1999/xlink" xml:space="preserve" xmlns:serif="http://www.serif.com/" style="fill-rule:evenodd;clip-rule:evenodd;stroke-linejoin:round;stroke-miterlimit:2;">
    <g id="Layer-2" serif:id="Layer 2">
        <g id="text989">
        </g>
        <rect id="rect4689" x="-0.689" y="0" width="270" height="380" style="fill:rgb(44,45,48);fill-rule:nonzero;"/>
        <g id="text80" transform="matrix(1.00498,0,0,0.995047,89.3112,4.99997)">
            <path id="path4726" d="M29.851,371.706L29.851,363.943L31.853,363.943L32.903,366.668C32.96,366.829 33.024,367.013 33.094,367.221C33.168,367.429 33.249,367.668 33.336,367.94L33.552,368.624C33.475,367.95 33.416,367.373 33.376,366.894C33.336,366.415 33.316,366.013 33.316,365.687L33.316,363.943L35.317,363.943L35.317,371.706L33.316,371.706L32.26,368.85C32.149,368.545 32.049,368.26 31.958,367.995C31.871,367.727 31.794,367.472 31.727,367.231C31.77,367.777 31.802,368.253 31.822,368.659C31.843,369.065 31.853,369.42 31.853,369.725L31.853,371.706L29.851,371.706Z" style="fill:rgb(158,161,168);fill-rule:nonzero;"/>
            <path id="path4728" d="M39.887,371.706L37.791,371.706L37.791,368.418L35.865,363.943L38.052,363.943L38.429,365.094C38.503,365.319 38.568,365.535 38.625,365.743C38.686,365.951 38.739,366.15 38.786,366.341C38.863,366.056 38.93,365.811 38.987,365.607C39.044,365.399 39.095,365.232 39.138,365.104L39.52,363.943L41.692,363.943L39.887,368.418L39.887,371.706Z" style="fill:rgb(158,161,168);fill-rule:nonzero;"/>
            <path id="path4730" d="M41.894,371.515L41.894,369.076C42.306,369.639 42.752,369.921 43.231,369.921C43.412,369.921 43.56,369.874 43.673,369.78C43.787,369.683 43.844,369.562 43.844,369.418C43.844,369.21 43.72,369.008 43.472,368.81L43.13,368.543C42.902,368.372 42.708,368.203 42.547,368.035C42.386,367.865 42.256,367.69 42.155,367.513C42.054,367.332 41.981,367.146 41.934,366.954C41.887,366.763 41.863,366.562 41.863,366.351C41.863,365.989 41.947,365.61 42.115,365.215C42.199,365.03 42.296,364.863 42.406,364.712C42.517,364.558 42.644,364.422 42.789,364.305C43.184,363.969 43.662,363.802 44.222,363.802C44.721,363.802 45.224,363.934 45.73,364.199L45.73,366.572C45.559,366.308 45.365,366.1 45.147,365.949C44.929,365.795 44.714,365.718 44.503,365.718C44.342,365.718 44.21,365.765 44.106,365.858C43.999,365.949 43.945,366.058 43.945,366.185C43.945,366.393 44.087,366.599 44.372,366.804L44.704,367.05C45.147,367.368 45.463,367.695 45.655,368.03C45.849,368.366 45.946,368.758 45.946,369.207C45.946,369.971 45.713,370.601 45.247,371.098C44.781,371.594 44.191,371.842 43.477,371.842C42.985,371.842 42.457,371.733 41.894,371.515L41.894,371.515Z" style="fill:rgb(158,161,168);fill-rule:nonzero;"/>
            <path id="path4732" d="M49.576,371.706L47.48,371.706L47.48,365.803L46.323,365.803L46.323,363.943L50.778,363.943L50.778,365.803L49.576,365.803L49.576,371.706Z" style="fill:rgb(158,161,168);fill-rule:nonzero;"/>
            <path id="path4734" d="M56.525,371.706L54.428,371.706L54.428,368.584L53.428,368.584L53.428,371.706L51.331,371.706L51.331,363.943L53.428,363.943L53.428,366.688L54.428,366.688L54.428,363.943L56.525,363.943L56.525,371.706Z" style="fill:rgb(158,161,168);fill-rule:nonzero;"/>
            <rect id="path4736" x="57.606" y="363.943" width="2.097" height="7.763" style="fill:rgb(158,161,168);fill-rule:nonzero;"/>
        </g>
        <g id="text4987">
        </g>
        <g id="text1042">
        </g>
        <g id="text2090">
        </g>
        <g id="text871">
            <path id="path873" d="M102.328,17.408L102.328,12.987C103.076,14.008 103.884,14.518 104.753,14.518C105.081,14.518 105.348,14.433 105.555,14.263C105.761,14.087 105.865,13.868 105.865,13.607C105.865,13.23 105.64,12.862 105.19,12.504L104.57,12.021C104.157,11.711 103.805,11.404 103.513,11.1C103.221,10.79 102.984,10.474 102.802,10.152C102.62,9.824 102.486,9.487 102.401,9.141C102.316,8.794 102.273,8.43 102.273,8.047C102.273,7.391 102.425,6.704 102.729,5.987C102.881,5.653 103.057,5.349 103.258,5.076C103.458,4.796 103.689,4.55 103.951,4.337C104.668,3.73 105.533,3.426 106.548,3.426C107.454,3.426 108.365,3.666 109.283,4.146L109.283,8.448C108.973,7.968 108.62,7.591 108.225,7.318C107.83,7.038 107.441,6.898 107.059,6.898C106.767,6.898 106.527,6.984 106.339,7.154C106.144,7.318 106.047,7.515 106.047,7.746C106.047,8.123 106.305,8.497 106.822,8.867L107.423,9.314C108.225,9.891 108.799,10.484 109.146,11.091C109.498,11.699 109.674,12.41 109.674,13.224C109.674,14.609 109.252,15.752 108.408,16.651C107.563,17.55 106.493,18 105.199,18C104.306,18 103.349,17.803 102.328,17.408Z" style="fill:rgb(158,161,168);fill-rule:nonzero;"/>
            <path id="path875" d="M114.961,17.754L111.16,17.754L111.16,3.681L114.842,3.681C116.678,3.681 118.039,4.055 118.926,4.802C119.971,5.683 120.493,6.908 120.493,8.475C120.493,10.183 119.937,11.456 118.826,12.294C118.066,12.859 116.975,13.142 115.553,13.142L114.961,13.142L114.961,17.754ZM114.961,9.979L115.134,9.988C115.596,9.988 115.964,9.849 116.237,9.569C116.51,9.283 116.647,8.895 116.647,8.402C116.647,7.916 116.513,7.521 116.246,7.217C115.979,6.908 115.638,6.753 115.225,6.753L114.961,6.753L114.961,9.979Z" style="fill:rgb(158,161,168);fill-rule:nonzero;"/>
            <path id="path877" d="M121.842,17.754L121.842,3.681L128.906,3.681L128.906,6.99L125.643,6.99L125.643,9.04L128.569,9.04L128.569,12.221L125.643,12.221L125.643,14.372L128.906,14.372L128.906,17.754L121.842,17.754Z" style="fill:rgb(158,161,168);fill-rule:nonzero;"/>
            <path id="path879" d="M138.431,13.424L138.212,17.49C137.368,17.83 136.611,18 135.943,18C134.369,18 133.044,17.423 131.969,16.268C130.766,14.974 130.164,13.142 130.164,10.772C130.164,8.554 130.729,6.774 131.859,5.431C132.99,4.094 134.5,3.426 136.389,3.426C137.003,3.426 137.629,3.541 138.267,3.772L138.267,7.792C137.702,7.227 137.122,6.944 136.526,6.944C135.748,6.944 135.141,7.275 134.703,7.937C134.266,8.606 134.047,9.53 134.047,10.708C134.047,11.28 134.102,11.79 134.211,12.24C134.32,12.689 134.475,13.069 134.676,13.379C134.882,13.689 135.135,13.926 135.432,14.09C135.73,14.254 136.07,14.336 136.453,14.336C137.109,14.336 137.769,14.032 138.431,13.424L138.431,13.424Z" style="fill:rgb(158,161,168);fill-rule:nonzero;"/>
            <path id="path881" d="M144.839,17.754L141.038,17.754L141.038,7.053L138.941,7.053L138.941,3.681L147.017,3.681L147.017,7.053L144.839,7.053L144.839,17.754Z" style="fill:rgb(158,161,168);fill-rule:nonzero;"/>
            <path id="path883" d="M158.027,17.754L153.917,17.754L152.039,12.741C152.021,12.656 151.987,12.543 151.939,12.404C151.896,12.264 151.842,12.097 151.775,11.902L151.802,12.832L151.802,17.754L148.019,17.754L148.019,3.681L151.911,3.681C153.625,3.681 154.907,4.018 155.758,4.693C156.839,5.556 157.38,6.783 157.38,8.375C157.38,10.076 156.654,11.252 155.202,11.902L158.027,17.754ZM151.82,10.198L152.076,10.198C152.513,10.198 152.878,10.031 153.169,9.697C153.461,9.362 153.607,8.937 153.607,8.421C153.607,7.369 153.057,6.844 151.957,6.844L151.82,6.844L151.82,10.198Z" style="fill:rgb(158,161,168);fill-rule:nonzero;"/>
            <path id="path885" d="M159.285,17.754L159.285,3.681L166.349,3.681L166.349,6.99L163.086,6.99L163.086,9.04L166.012,9.04L166.012,12.221L163.086,12.221L163.086,14.372L166.349,14.372L166.349,17.754L159.285,17.754Z" style="fill:rgb(158,161,168);fill-rule:nonzero;"/>
        </g>
        <g id="text890" transform="matrix(0.989144,0,0,0.970309,2.64309,19.6326)">
            <path id="path915" d="M220.969,286.155C220.969,288.286 220.732,289.799 220.258,290.694C219.784,291.59 218.99,292.038 217.875,292.038C216.703,292.038 215.878,291.556 215.398,290.593C214.924,289.65 214.687,287.976 214.687,285.569C214.687,283.424 214.922,281.905 215.391,281.015C215.865,280.119 216.667,279.671 217.797,279.671C218.807,279.671 219.557,280.017 220.047,280.71C220.37,281.174 220.604,281.832 220.75,282.687C220.896,283.478 220.969,284.634 220.969,286.155L220.969,286.155ZM219.266,286.327C219.266,284.239 219.172,282.853 218.984,282.171C218.797,281.483 218.414,281.14 217.836,281.14C217.258,281.14 216.872,281.455 216.68,282.085C216.492,282.72 216.398,283.996 216.398,285.913C216.398,287.679 216.497,288.903 216.695,289.585C216.898,290.231 217.279,290.554 217.836,290.554C218.383,290.554 218.758,290.252 218.961,289.647C219.164,289.049 219.266,287.942 219.266,286.327L219.266,286.327Z" style="fill:rgb(158,161,168);fill-rule:nonzero;"/>
            <path id="path917" d="M222.586,279.827L224.102,279.827L225.719,284.64C226.187,285.999 226.602,287.45 226.961,288.991C226.831,288.059 226.734,287.215 226.672,286.46C226.609,285.705 226.578,284.994 226.578,284.327L226.578,279.827L228.211,279.827L228.211,291.89L226.687,291.89L224.867,286.46C224.7,285.955 224.542,285.437 224.391,284.905C224.245,284.374 224.109,283.817 223.984,283.233C223.974,283.161 223.956,283.072 223.93,282.968C223.909,282.864 223.883,282.744 223.852,282.608C223.867,282.744 223.88,282.861 223.891,282.96C223.901,283.054 223.909,283.135 223.914,283.202L224,284.429L224.086,285.921C224.091,286.004 224.094,286.106 224.094,286.226C224.099,286.345 224.102,286.481 224.102,286.632L224.188,291.89L222.586,291.89L222.586,279.827Z" style="fill:rgb(158,161,168);fill-rule:nonzero;"/>
            <rect id="path919" x="232.469" y="287.14" width="2.844" height="1.219" style="fill:rgb(158,161,168);fill-rule:nonzero;"/>
            <path id="path921" d="M245.594,286.155C245.594,288.286 245.357,289.799 244.883,290.694C244.409,291.59 243.615,292.038 242.5,292.038C241.328,292.038 240.503,291.556 240.023,290.593C239.549,289.65 239.312,287.976 239.312,285.569C239.312,283.424 239.547,281.905 240.016,281.015C240.49,280.119 241.292,279.671 242.422,279.671C243.432,279.671 244.182,280.017 244.672,280.71C244.995,281.174 245.229,281.832 245.375,282.687C245.521,283.478 245.594,284.634 245.594,286.155L245.594,286.155ZM243.891,286.327C243.891,284.239 243.797,282.853 243.609,282.171C243.422,281.483 243.039,281.14 242.461,281.14C241.883,281.14 241.497,281.455 241.305,282.085C241.117,282.72 241.023,283.996 241.023,285.913C241.023,287.679 241.122,288.903 241.32,289.585C241.523,290.231 241.904,290.554 242.461,290.554C243.008,290.554 243.383,290.252 243.586,289.647C243.789,289.049 243.891,287.942 243.891,286.327L243.891,286.327Z" style="fill:rgb(158,161,168);fill-rule:nonzero;"/>
            <path id="path923" d="M247.211,279.827L251.555,279.827L251.555,281.202L248.836,281.202L248.836,285.015L251.289,285.015L251.289,286.39L248.836,286.39L248.836,291.89L247.211,291.89L247.211,279.827Z" style="fill:rgb(158,161,168);fill-rule:nonzero;"/>
            <path id="path925" d="M252.805,279.827L257.148,279.827L257.148,281.202L254.43,281.202L254.43,285.015L256.883,285.015L256.883,286.39L254.43,286.39L254.43,291.89L252.805,291.89L252.805,279.827Z" style="fill:rgb(158,161,168);fill-rule:nonzero;"/>
        </g>
        <g id="text894" transform="matrix(1.01776,0,0,0.969697,-206.107,-22.0922)">
            <path id="path904" d="M226.156,323.236L226.156,324.697C225.74,324.494 225.391,324.392 225.109,324.392C224.724,324.392 224.393,324.488 224.117,324.681C223.841,324.869 223.612,325.16 223.43,325.556C223.253,325.952 223.12,326.454 223.031,327.064C222.948,327.668 222.906,328.384 222.906,329.212C222.906,332.191 223.669,333.681 225.195,333.681C225.461,333.681 225.781,333.598 226.156,333.431L226.156,334.923C225.766,335.142 225.328,335.251 224.844,335.251C222.401,335.251 221.18,333.257 221.18,329.267C221.18,327.111 221.477,325.507 222.07,324.454C222.669,323.402 223.583,322.876 224.812,322.876C225.266,322.876 225.714,322.996 226.156,323.236L226.156,323.236Z" style="fill:rgb(158,161,168);fill-rule:nonzero;"/>
            <path id="path906" d="M227.516,323.04L229.141,323.04L229.141,333.728L231.797,333.728L231.797,335.103L227.516,335.103L227.516,323.04Z" style="fill:rgb(158,161,168);fill-rule:nonzero;"/>
            <path id="path908" d="M232.828,323.04L237.148,323.04L237.148,324.415L234.453,324.415L234.453,328.236L236.844,328.236L236.844,329.611L234.453,329.611L234.453,333.728L237.148,333.728L237.148,335.103L232.828,335.103L232.828,323.04Z" style="fill:rgb(158,161,168);fill-rule:nonzero;"/>
            <path id="path910" d="M240.359,323.04L241.625,323.04L244.211,335.103L242.602,335.103L242.148,332.751L239.758,332.751L239.297,335.103L237.734,335.103L240.359,323.04ZM241.914,331.494L241.555,329.572C241.315,328.264 241.12,326.869 240.969,325.384C240.896,326.108 240.802,326.843 240.688,327.587C240.573,328.327 240.437,329.113 240.281,329.947L239.984,331.494L241.914,331.494Z" style="fill:rgb(158,161,168);fill-rule:nonzero;"/>
            <path id="path912" d="M245.172,323.04L247.312,323.04C248.198,323.04 248.857,323.251 249.289,323.673C249.836,324.22 250.109,325.056 250.109,326.181C250.109,327.046 249.964,327.741 249.672,328.267C249.385,328.788 248.974,329.111 248.437,329.236L250.656,335.103L249.008,335.103L246.797,329.197L246.797,335.103L245.172,335.103L245.172,323.04ZM246.797,328.384C247.427,328.384 247.872,328.238 248.133,327.947C248.393,327.655 248.523,327.163 248.523,326.47C248.523,326.095 248.495,325.775 248.437,325.509C248.385,325.244 248.299,325.027 248.18,324.861C248.065,324.694 247.914,324.572 247.727,324.494C247.544,324.415 247.325,324.376 247.07,324.376L246.797,324.376L246.797,328.384Z" style="fill:rgb(158,161,168);fill-rule:nonzero;"/>
        </g>
        <g id="text896" transform="matrix(0.988573,0,0,1.01156,-0.575226,-10)">
            <rect id="path902" x="81.844" y="297.723" width="1.606" height="11.925" style="fill:rgb(158,161,168);fill-rule:nonzero;"/>
            <path id="path905" d="M85.304,297.723L86.802,297.723L88.401,302.48C88.864,303.824 89.274,305.258 89.629,306.782C89.5,305.86 89.405,305.026 89.343,304.28C89.281,303.533 89.25,302.83 89.25,302.171L89.25,297.723L90.865,297.723L90.865,309.647L89.358,309.647L87.559,304.28C87.394,303.78 87.237,303.268 87.088,302.743C86.944,302.218 86.81,301.667 86.686,301.09C86.676,301.018 86.658,300.93 86.632,300.827C86.612,300.724 86.586,300.606 86.555,300.472C86.57,300.606 86.583,300.722 86.594,300.82C86.604,300.912 86.612,300.992 86.617,301.059L86.702,302.272L86.787,303.747C86.792,303.829 86.794,303.93 86.794,304.048C86.799,304.166 86.802,304.3 86.802,304.45L86.887,309.647L85.303,309.647L85.304,297.723Z" style="fill:rgb(158,161,168);fill-rule:nonzero;"/>
            <path id="path907" d="M99.97,297.97L99.97,299.538C99.481,299.188 99.041,299.012 98.65,299.012C98.227,299.012 97.882,299.162 97.615,299.46C97.347,299.744 97.213,300.122 97.213,300.596C97.213,301.013 97.308,301.371 97.499,301.669C97.597,301.829 97.756,302.035 97.978,302.287C98.204,302.539 98.495,302.843 98.85,303.198C99.504,303.863 99.95,304.437 100.186,304.921C100.423,305.389 100.542,305.963 100.542,306.643C100.542,307.565 100.282,308.324 99.762,308.921C99.242,309.503 98.575,309.794 97.761,309.794C97.077,309.794 96.492,309.606 96.008,309.23L96.008,307.639C96.58,308.056 97.1,308.265 97.568,308.265C98.006,308.265 98.348,308.121 98.595,307.832C98.843,307.539 98.966,307.142 98.966,306.643C98.966,306.211 98.871,305.822 98.68,305.477C98.583,305.312 98.446,305.124 98.271,304.913C98.096,304.697 97.877,304.457 97.615,304.195C97.208,303.793 96.871,303.438 96.603,303.129C96.335,302.82 96.137,302.55 96.008,302.318C95.761,301.865 95.637,301.293 95.637,300.603C95.637,299.672 95.879,298.933 96.363,298.387C96.853,297.836 97.509,297.56 98.333,297.56C98.904,297.56 99.45,297.697 99.97,297.97L99.97,297.97Z" style="fill:rgb(158,161,168);fill-rule:nonzero;"/>
            <path id="path909" d="M106.574,297.916L106.574,299.36C106.162,299.159 105.817,299.059 105.539,299.059C105.158,299.059 104.831,299.154 104.558,299.345C104.285,299.53 104.058,299.818 103.878,300.21C103.703,300.601 103.572,301.098 103.484,301.7C103.402,302.297 103.361,303.005 103.361,303.824C103.361,306.769 104.115,308.242 105.624,308.242C105.886,308.242 106.203,308.159 106.574,307.995L106.574,309.47C106.187,309.686 105.755,309.794 105.276,309.794C102.861,309.794 101.654,307.822 101.654,303.878C101.654,301.746 101.947,300.161 102.534,299.121C103.126,298.081 104.03,297.56 105.245,297.56C105.693,297.56 106.136,297.679 106.574,297.916L106.574,297.916Z" style="fill:rgb(158,161,168);fill-rule:nonzero;"/>
            <path id="path911" d="M110.049,297.723L111.3,297.723L113.857,309.647L112.266,309.647L111.818,307.323L109.454,307.323L108.999,309.647L107.454,309.647L110.049,297.723ZM111.586,306.079L111.231,304.179C110.994,302.887 110.801,301.507 110.651,300.04C110.579,300.755 110.487,301.481 110.373,302.218C110.26,302.949 110.126,303.726 109.972,304.55L109.678,306.079L111.586,306.079Z" style="fill:rgb(158,161,168);fill-rule:nonzero;"/>
            <path id="path913" d="M114.807,297.723L116.413,297.723L116.413,308.288L119.039,308.288L119.039,309.647L114.807,309.647L114.807,297.723Z" style="fill:rgb(158,161,168);fill-rule:nonzero;"/>
            <path id="path916" d="M120.058,297.723L124.329,297.723L124.329,299.082L121.665,299.082L121.665,302.859L124.028,302.859L124.028,304.218L121.665,304.218L121.665,308.288L124.329,308.288L124.329,309.647L120.058,309.647L120.058,297.723Z" style="fill:rgb(158,161,168);fill-rule:nonzero;"/>
        </g>
        <g id="text900" transform="matrix(0.894427,0,0,1.11803,-0.189957,-10)">
            <path id="path920" d="M170.927,275.029C170.927,276.935 170.715,278.288 170.291,279.089C169.867,279.89 169.157,280.291 168.16,280.291C167.112,280.291 166.373,279.86 165.945,278.998C165.521,278.155 165.309,276.657 165.309,274.505C165.309,272.586 165.518,271.228 165.938,270.431C166.362,269.63 167.079,269.23 168.09,269.23C168.994,269.23 169.664,269.539 170.102,270.159C170.391,270.574 170.601,271.163 170.731,271.927C170.862,272.635 170.927,273.669 170.927,275.029L170.927,275.029ZM169.404,275.183C169.404,273.315 169.32,272.076 169.152,271.466C168.984,270.851 168.642,270.543 168.125,270.543C167.608,270.543 167.263,270.825 167.091,271.389C166.923,271.957 166.839,273.098 166.839,274.813C166.839,276.392 166.928,277.487 167.105,278.097C167.286,278.675 167.626,278.963 168.125,278.963C168.614,278.963 168.949,278.693 169.131,278.153C169.313,277.617 169.403,276.627 169.403,275.183L169.404,275.183Z" style="fill:rgb(158,161,168);fill-rule:nonzero;"/>
            <path id="path922" d="M172.373,269.369L173.799,269.369L173.799,276.993C173.799,277.771 173.869,278.288 174.008,278.544C174.153,278.8 174.437,278.928 174.861,278.928C175.285,278.928 175.564,278.817 175.699,278.593C175.839,278.365 175.909,277.901 175.909,277.203L175.909,269.369L177.335,269.369L177.335,277.203C177.335,278.376 177.155,279.171 176.797,279.585C176.368,280.056 175.713,280.291 174.833,280.291C173.864,280.291 173.182,279.988 172.786,279.383C172.511,278.968 172.373,278.172 172.373,276.993L172.373,269.369Z" style="fill:rgb(158,161,168);fill-rule:nonzero;"/>
            <path id="path924" d="M178.138,269.369L182.869,269.369L182.869,270.641L181.241,270.641L181.241,280.158L179.815,280.158L179.815,270.641L178.138,270.641L178.138,269.369Z" style="fill:rgb(158,161,168);fill-rule:nonzero;"/>
            <path id="path926" d="M190.227,269.593L190.227,271.011C189.784,270.695 189.386,270.536 189.032,270.536C188.65,270.536 188.338,270.671 188.096,270.942C187.853,271.198 187.732,271.54 187.732,271.969C187.732,272.346 187.818,272.67 187.991,272.94C188.079,273.084 188.224,273.271 188.424,273.499C188.629,273.727 188.892,274.002 189.214,274.324C189.805,274.925 190.208,275.444 190.423,275.882C190.637,276.306 190.744,276.825 190.744,277.44C190.744,278.274 190.509,278.961 190.038,279.501C189.568,280.028 188.965,280.291 188.228,280.291C187.609,280.291 187.08,280.121 186.642,279.781L186.642,278.342C187.159,278.719 187.63,278.908 188.054,278.908C188.45,278.908 188.76,278.777 188.983,278.516C189.207,278.251 189.319,277.892 189.319,277.44C189.319,277.049 189.232,276.697 189.06,276.385C188.971,276.236 188.848,276.066 188.69,275.875C188.531,275.679 188.333,275.463 188.096,275.225C187.728,274.862 187.423,274.54 187.18,274.261C186.938,273.981 186.759,273.737 186.642,273.527C186.419,273.117 186.307,272.6 186.307,271.976C186.307,271.133 186.526,270.464 186.964,269.97C187.406,269.472 188,269.223 188.746,269.223C189.263,269.223 189.756,269.346 190.227,269.593L190.227,269.593Z" style="fill:rgb(158,161,168);fill-rule:nonzero;"/>
            <path id="path928" d="M196.201,269.544L196.201,270.851C195.829,270.669 195.517,270.578 195.265,270.578C194.92,270.578 194.625,270.664 194.378,270.837C194.131,271.004 193.926,271.265 193.763,271.619C193.604,271.973 193.486,272.423 193.406,272.968C193.332,273.508 193.295,274.149 193.295,274.89C193.295,277.554 193.977,278.887 195.342,278.887C195.58,278.887 195.866,278.812 196.201,278.663L196.201,279.998C195.852,280.193 195.461,280.291 195.027,280.291C192.843,280.291 191.75,278.507 191.75,274.939C191.75,273.01 192.016,271.575 192.547,270.634C193.083,269.693 193.9,269.223 195,269.223C195.405,269.223 195.805,269.33 196.201,269.544L196.201,269.544Z" style="fill:rgb(158,161,168);fill-rule:nonzero;"/>
            <path id="path930" d="M199.346,269.369L200.478,269.369L202.791,280.158L201.351,280.158L200.946,278.055L198.808,278.055L198.396,280.158L196.998,280.158L199.346,269.369ZM200.736,276.93L200.415,275.211C200.201,274.042 200.026,272.793 199.891,271.466C199.826,272.113 199.742,272.77 199.639,273.436C199.537,274.098 199.416,274.801 199.276,275.546L199.01,276.93L200.736,276.93Z" style="fill:rgb(158,161,168);fill-rule:nonzero;"/>
            <path id="path932" d="M203.65,269.369L205.104,269.369L205.104,278.928L207.48,278.928L207.48,280.158L203.65,280.158L203.65,269.369Z" style="fill:rgb(158,161,168);fill-rule:nonzero;"/>
            <path id="path934" d="M208.402,269.369L212.266,269.369L212.266,270.599L209.855,270.599L209.855,274.016L211.994,274.016L211.994,275.246L209.855,275.246L209.855,278.928L212.266,278.928L212.266,280.158L208.402,280.158L208.402,269.369Z" style="fill:rgb(158,161,168);fill-rule:nonzero;"/>
        </g>
        <g id="text939" transform="matrix(1,0,0,1,0,-1.28813)">
            <rect id="path941" x="119.772" y="329.077" width="1.625" height="12.063" style="fill:rgb(158,161,168);fill-rule:nonzero;"/>
            <path id="path943" d="M123.272,329.077L124.788,329.077L126.405,333.89C126.874,335.249 127.288,336.7 127.647,338.241C127.517,337.309 127.421,336.465 127.358,335.71C127.296,334.955 127.264,334.244 127.264,333.577L127.264,329.077L128.897,329.077L128.897,341.14L127.374,341.14L125.553,335.71C125.387,335.205 125.228,334.687 125.077,334.155C124.931,333.624 124.796,333.067 124.671,332.483C124.66,332.411 124.642,332.322 124.616,332.218C124.595,332.114 124.569,331.994 124.538,331.858C124.553,331.994 124.566,332.111 124.577,332.21C124.587,332.304 124.595,332.385 124.6,332.452L124.686,333.679L124.772,335.171C124.777,335.254 124.78,335.356 124.78,335.476C124.785,335.595 124.788,335.731 124.788,335.882L124.874,341.14L123.272,341.14L123.272,329.077Z" style="fill:rgb(158,161,168);fill-rule:nonzero;"/>
            <path id="path945" d="M130.772,329.077L132.913,329.077C133.944,329.077 134.694,329.338 135.163,329.858C135.632,330.384 135.866,331.218 135.866,332.358C135.866,333.963 135.395,334.999 134.452,335.468C133.978,335.681 133.293,335.788 132.397,335.788L132.397,341.14L130.772,341.14L130.772,329.077ZM132.397,334.398C133.069,334.398 133.533,334.262 133.788,333.991C134.048,333.715 134.178,333.226 134.178,332.523C134.178,331.804 134.053,331.278 133.803,330.944C133.553,330.611 133.16,330.444 132.624,330.444L132.397,330.444L132.397,334.398Z" style="fill:rgb(158,161,168);fill-rule:nonzero;"/>
            <path id="path947" d="M137.116,329.077L138.71,329.077L138.71,337.601C138.71,338.47 138.788,339.049 138.944,339.335C139.105,339.621 139.423,339.765 139.897,339.765C140.371,339.765 140.684,339.64 140.835,339.39C140.991,339.134 141.069,338.616 141.069,337.835L141.069,329.077L142.663,329.077L142.663,337.835C142.663,339.148 142.462,340.036 142.061,340.499C141.582,341.025 140.85,341.288 139.866,341.288C138.783,341.288 138.02,340.95 137.577,340.273C137.27,339.809 137.116,338.918 137.116,337.601L137.116,329.077Z" style="fill:rgb(158,161,168);fill-rule:nonzero;"/>
            <path id="path949" d="M143.561,329.077L148.85,329.077L148.85,330.499L147.03,330.499L147.03,341.14L145.436,341.14L145.436,330.499L143.561,330.499L143.561,329.077Z" style="fill:rgb(158,161,168);fill-rule:nonzero;"/>
        </g>
    </g>
</svg>
