<?xml version="1.0" encoding="UTF-8" standalone="no"?>
<!DOCTYPE svg PUBLIC "-//W3C//DTD SVG 1.1//EN" "http://www.w3.org/Graphics/SVG/1.1/DTD/svg11.dtd">
<svg width="100%" height="100%" viewBox="0 0 30 380" version="1.1" xmlns="http://www.w3.org/2000/svg" xmlns:xlink="http://www.w3.org/1999/xlink" xml:space="preserve" xmlns:serif="http://www.serif.com/" style="fill-rule:evenodd;clip-rule:evenodd;stroke-linejoin:round;stroke-miterlimit:2;">
    <g id="Layer-2" serif:id="Layer 2">
        <g id="text989">
        </g>
        <rect id="rect4689" x="-0.264" y="0" width="30" height="380" style="fill:rgb(44,45,48);fill-rule:nonzero;"/>
        <g id="path4726" transform="matrix(1,0,0,1,-18.01,11.1351)">
            <path d="M30,365.865L30,358.14L32.011,358.14L33.067,360.852C33.124,361.012 33.188,361.195 33.259,361.402C33.333,361.609 33.414,361.847 33.502,362.118L33.719,362.798C33.642,362.128 33.583,361.554 33.542,361.077C33.502,360.6 33.482,360.2 33.482,359.876L33.482,358.14L35.493,358.14L35.493,365.865L33.482,365.865L32.42,363.023C32.309,362.72 32.208,362.436 32.117,362.173C32.03,361.906 31.952,361.652 31.885,361.412C31.929,361.956 31.961,362.429 31.981,362.833C32.001,363.237 32.011,363.59 32.011,363.894L32.011,365.865L30,365.865Z" style="fill:rgb(158,161,168);fill-rule:nonzero;"/>
        </g>
        <g id="text4987">
        </g>
        <g id="text1042">
        </g>
        <g id="text972" transform="matrix(0.967031,0,0,1.03409,0,-24)">
            <path id="path1104" d="M8.79,64.868L9.793,64.868C10.209,64.868 10.518,64.967 10.72,65.165C10.977,65.421 11.105,65.813 11.105,66.341C11.105,66.746 11.036,67.072 10.9,67.319C10.765,67.563 10.572,67.714 10.321,67.773L11.361,70.524L10.588,70.524L9.552,67.754L9.552,70.524L8.79,70.524L8.79,64.868ZM9.552,67.374C9.847,67.374 10.056,67.305 10.178,67.168C10.3,67.032 10.361,66.801 10.361,66.476C10.361,66.3 10.348,66.15 10.321,66.026C10.297,65.901 10.256,65.8 10.2,65.722C10.146,65.643 10.075,65.586 9.988,65.549C9.902,65.513 9.8,65.494 9.68,65.494L9.552,65.494L9.552,67.374Z" style="fill:rgb(158,161,168);fill-rule:nonzero;"/>
            <path id="path1106" d="M11.955,64.868L13.98,64.868L13.98,65.513L12.717,65.513L12.717,67.304L13.837,67.304L13.837,67.949L12.717,67.949L12.717,69.879L13.98,69.879L13.98,70.524L11.955,70.524L11.955,64.868Z" style="fill:rgb(158,161,168);fill-rule:nonzero;"/>
            <path id="path1108" d="M16.566,64.985L16.566,65.729C16.334,65.563 16.126,65.48 15.94,65.48C15.74,65.48 15.576,65.551 15.449,65.692C15.322,65.827 15.259,66.006 15.259,66.231C15.259,66.428 15.304,66.598 15.394,66.74C15.441,66.816 15.516,66.913 15.621,67.033C15.729,67.153 15.867,67.297 16.035,67.465C16.345,67.78 16.557,68.052 16.669,68.282C16.781,68.504 16.837,68.776 16.837,69.099C16.837,69.536 16.714,69.896 16.467,70.179C16.221,70.455 15.905,70.593 15.519,70.593C15.194,70.593 14.917,70.504 14.687,70.326L14.687,69.571C14.958,69.769 15.205,69.868 15.427,69.868C15.635,69.868 15.797,69.8 15.914,69.663C16.032,69.524 16.09,69.336 16.09,69.099C16.09,68.894 16.045,68.709 15.955,68.546C15.908,68.468 15.843,68.378 15.76,68.278C15.677,68.176 15.574,68.062 15.449,67.938C15.256,67.747 15.096,67.579 14.969,67.432C14.842,67.286 14.748,67.157 14.687,67.048C14.57,66.833 14.511,66.562 14.511,66.234C14.511,65.792 14.626,65.442 14.856,65.183C15.088,64.922 15.399,64.791 15.79,64.791C16.061,64.791 16.32,64.856 16.566,64.985L16.566,64.985Z" style="fill:rgb(158,161,168);fill-rule:nonzero;"/>
            <path id="path1110" d="M17.478,64.868L19.504,64.868L19.504,65.513L18.24,65.513L18.24,67.304L19.361,67.304L19.361,67.949L18.24,67.949L18.24,69.879L19.504,69.879L19.504,70.524L17.478,70.524L17.478,64.868Z" style="fill:rgb(158,161,168);fill-rule:nonzero;"/>
            <path id="path1112" d="M19.753,64.868L22.233,64.868L22.233,65.535L21.38,65.535L21.38,70.524L20.632,70.524L20.632,65.535L19.753,65.535L19.753,64.868Z" style="fill:rgb(158,161,168);fill-rule:nonzero;"/>
        </g>
        <g id="text980" transform="matrix(0.932311,0,0,1.0726,0,0)">
            <path id="path1072" d="M7.315,109.875L8.65,109.875L8.65,110.087C8.65,111.149 8.557,111.866 8.371,112.238C8.188,112.619 7.844,112.81 7.34,112.81C6.82,112.81 6.449,112.598 6.228,112.174C6.009,111.75 5.899,111.038 5.899,110.038C5.899,108.893 6.019,108.132 6.26,107.753C6.486,107.397 6.833,107.219 7.301,107.219C7.659,107.219 7.938,107.305 8.138,107.477C8.341,107.651 8.498,107.938 8.611,108.335L7.926,108.621C7.896,108.478 7.862,108.358 7.824,108.261C7.786,108.162 7.745,108.086 7.7,108.032C7.611,107.921 7.477,107.866 7.298,107.866C7.053,107.866 6.886,108.016 6.796,108.318C6.707,108.633 6.662,109.199 6.662,110.016C6.662,110.843 6.708,111.402 6.8,111.694C6.892,111.986 7.065,112.132 7.319,112.132C7.552,112.132 7.716,112.028 7.81,111.821C7.906,111.6 7.955,111.244 7.955,110.754L7.955,110.606L7.955,110.497L7.315,110.497L7.315,109.875Z" style="fill:rgb(158,161,168);fill-rule:nonzero;"/>
            <path id="path1074" d="M10.162,107.29L10.734,107.29L11.903,112.743L11.175,112.743L10.97,111.68L9.89,111.68L9.681,112.743L8.975,112.743L10.162,107.29ZM10.864,111.111L10.702,110.242C10.594,109.651 10.505,109.02 10.437,108.35C10.404,108.677 10.362,109.009 10.31,109.345C10.258,109.68 10.197,110.035 10.126,110.412L9.992,111.111L10.864,111.111Z" style="fill:rgb(158,161,168);fill-rule:nonzero;"/>
            <path id="path1076" d="M11.79,107.29L14.18,107.29L14.18,107.933L13.358,107.933L13.358,112.743L12.637,112.743L12.637,107.933L11.79,107.933L11.79,107.29Z" style="fill:rgb(158,161,168);fill-rule:nonzero;"/>
            <path id="path1078" d="M14.583,107.29L16.536,107.29L16.536,107.912L15.317,107.912L15.317,109.638L16.398,109.638L16.398,110.26L15.317,110.26L15.317,112.121L16.536,112.121L16.536,112.743L14.583,112.743L14.583,107.29Z" style="fill:rgb(158,161,168);fill-rule:nonzero;"/>
            <path id="path1081" d="M18.708,107.29L19.442,107.29L19.442,112.121L20.643,112.121L20.643,112.743L18.708,112.743L18.708,107.29Z" style="fill:rgb(158,161,168);fill-rule:nonzero;"/>
            <path id="path1084" d="M21.109,107.29L23.062,107.29L23.062,107.912L21.843,107.912L21.843,109.638L22.924,109.638L22.924,110.26L21.843,110.26L21.843,112.121L23.062,112.121L23.062,112.743L21.109,112.743L21.109,107.29Z" style="fill:rgb(158,161,168);fill-rule:nonzero;"/>
            <path id="path1086" d="M23.736,107.29L24.421,107.29L25.152,109.465C25.364,110.08 25.551,110.736 25.714,111.432C25.655,111.011 25.611,110.63 25.583,110.288C25.555,109.947 25.541,109.626 25.541,109.324L25.541,107.29L26.279,107.29L26.279,112.743L25.59,112.743L24.767,110.288C24.692,110.06 24.62,109.826 24.552,109.585C24.486,109.345 24.425,109.093 24.368,108.83C24.364,108.797 24.355,108.757 24.344,108.71C24.334,108.663 24.322,108.608 24.308,108.547C24.315,108.608 24.321,108.661 24.326,108.706C24.331,108.749 24.334,108.785 24.337,108.816L24.375,109.37L24.414,110.045C24.417,110.082 24.418,110.128 24.418,110.182C24.42,110.236 24.421,110.298 24.421,110.366L24.46,112.742L23.736,112.742L23.736,107.29Z" style="fill:rgb(158,161,168);fill-rule:nonzero;"/>
        </g>
        <g id="text984" transform="matrix(0.924728,0,0,1.0814,0,0)">
            <path id="path1048" d="M3.785,128.611L4.464,128.611L5.189,130.768C5.4,131.378 5.585,132.028 5.746,132.719C5.688,132.301 5.645,131.923 5.617,131.585C5.589,131.246 5.575,130.927 5.575,130.628L5.575,128.611L6.307,128.611L6.307,134.019L5.624,134.019L4.808,131.585C4.733,131.358 4.662,131.126 4.594,130.888C4.529,130.649 4.468,130.399 4.412,130.138C4.407,130.105 4.399,130.066 4.387,130.019C4.378,129.972 4.366,129.918 4.352,129.858C4.359,129.918 4.365,129.971 4.37,130.015C4.374,130.057 4.378,130.094 4.38,130.124L4.419,130.674L4.457,131.343C4.46,131.38 4.461,131.426 4.461,131.479C4.463,131.533 4.464,131.594 4.464,131.662L4.503,134.019L3.785,134.019L3.785,128.611Z" style="fill:rgb(158,161,168);fill-rule:nonzero;"/>
            <path id="path1054" d="M7.147,128.611L7.862,128.611L7.862,132.432C7.862,132.822 7.897,133.081 7.967,133.21C8.039,133.338 8.182,133.402 8.394,133.402C8.607,133.402 8.747,133.346 8.815,133.234C8.885,133.12 8.92,132.888 8.92,132.537L8.92,128.611L9.634,128.611L9.634,132.537C9.634,133.126 9.544,133.524 9.365,133.732C9.15,133.968 8.822,134.085 8.38,134.085C7.895,134.085 7.553,133.934 7.354,133.63C7.216,133.422 7.147,133.023 7.147,132.432L7.147,128.611Z" style="fill:rgb(158,161,168);fill-rule:nonzero;"/>
            <path id="path1056" d="M10.724,128.611L11.347,128.611L11.823,130.817C11.882,131.093 11.934,131.37 11.981,131.648C12.03,131.923 12.074,132.213 12.114,132.516C12.119,132.477 12.122,132.446 12.125,132.425C12.127,132.402 12.129,132.385 12.132,132.376L12.233,131.756L12.324,131.168L12.405,130.779L12.829,128.611L13.459,128.611L13.957,134.019L13.26,134.019L13.137,132.183C13.132,132.09 13.128,132.01 13.123,131.942C13.121,131.874 13.119,131.818 13.119,131.774L13.088,131.049L13.07,130.383C13.07,130.378 13.069,130.369 13.067,130.355C13.067,130.339 13.066,130.318 13.063,130.292L13.046,130.401C13.027,130.529 13.01,130.641 12.993,130.737C12.979,130.833 12.966,130.913 12.955,130.979L12.864,131.473L12.829,131.658L12.373,134.019L11.883,134.019L11.456,131.98C11.397,131.712 11.345,131.44 11.298,131.164C11.254,130.886 11.213,130.596 11.175,130.292L10.965,134.019L10.279,134.019L10.724,128.611Z" style="fill:rgb(158,161,168);fill-rule:nonzero;"/>
            <path id="path1058" d="M17.848,128.723L17.848,129.434C17.626,129.275 17.426,129.196 17.249,129.196C17.058,129.196 16.901,129.263 16.78,129.399C16.658,129.527 16.598,129.699 16.598,129.914C16.598,130.103 16.641,130.265 16.727,130.401C16.771,130.473 16.844,130.566 16.944,130.681C17.047,130.795 17.179,130.933 17.34,131.094C17.637,131.395 17.839,131.656 17.946,131.875C18.053,132.088 18.107,132.348 18.107,132.656C18.107,133.074 17.989,133.419 17.753,133.69C17.518,133.953 17.215,134.085 16.846,134.085C16.536,134.085 16.271,134 16.051,133.83L16.051,133.108C16.31,133.297 16.546,133.392 16.759,133.392C16.957,133.392 17.112,133.327 17.225,133.196C17.337,133.063 17.393,132.883 17.393,132.656C17.393,132.46 17.349,132.284 17.263,132.127C17.219,132.053 17.157,131.968 17.077,131.872C16.998,131.774 16.899,131.665 16.78,131.546C16.595,131.364 16.442,131.203 16.321,131.063C16.199,130.923 16.109,130.8 16.051,130.695C15.939,130.489 15.883,130.23 15.883,129.917C15.883,129.495 15.993,129.16 16.212,128.912C16.434,128.662 16.732,128.537 17.105,128.537C17.365,128.537 17.612,128.599 17.848,128.723L17.848,128.723Z" style="fill:rgb(158,161,168);fill-rule:nonzero;"/>
            <path id="path1060" d="M18.373,128.611L20.745,128.611L20.745,129.248L19.929,129.248L19.929,134.019L19.214,134.019L19.214,129.248L18.373,129.248L18.373,128.611Z" style="fill:rgb(158,161,168);fill-rule:nonzero;"/>
            <path id="path1062" d="M21.144,128.611L23.081,128.611L23.081,129.227L21.872,129.227L21.872,130.94L22.944,130.94L22.944,131.557L21.872,131.557L21.872,133.402L23.081,133.402L23.081,134.019L21.144,134.019L21.144,128.611Z" style="fill:rgb(158,161,168);fill-rule:nonzero;"/>
            <path id="path1067" d="M23.75,128.611L24.71,128.611C25.172,128.611 25.508,128.728 25.718,128.961C25.929,129.197 26.034,129.571 26.034,130.082C26.034,130.801 25.822,131.266 25.4,131.476C25.187,131.572 24.88,131.62 24.478,131.62L24.478,134.019L23.75,134.019L23.75,128.611ZM24.478,130.996C24.78,130.996 24.987,130.935 25.102,130.814C25.219,130.69 25.277,130.471 25.277,130.155C25.277,129.833 25.221,129.597 25.109,129.448C24.997,129.298 24.821,129.224 24.58,129.224L24.478,129.224L24.478,130.996Z" style="fill:rgb(158,161,168);fill-rule:nonzero;"/>
            <path id="path1069" d="M28.398,128.723L28.398,129.434C28.176,129.275 27.976,129.196 27.799,129.196C27.607,129.196 27.451,129.263 27.33,129.399C27.208,129.527 27.147,129.699 27.147,129.914C27.147,130.103 27.191,130.265 27.277,130.401C27.321,130.473 27.394,130.566 27.494,130.681C27.597,130.795 27.729,130.933 27.89,131.094C28.187,131.395 28.389,131.656 28.496,131.875C28.603,132.088 28.657,132.348 28.657,132.656C28.657,133.074 28.539,133.419 28.303,133.69C28.067,133.953 27.765,134.085 27.396,134.085C27.086,134.085 26.821,134 26.601,133.83L26.601,133.108C26.86,133.297 27.096,133.392 27.309,133.392C27.507,133.392 27.662,133.327 27.774,133.196C27.887,133.063 27.943,132.883 27.943,132.656C27.943,132.46 27.899,132.284 27.813,132.127C27.769,132.053 27.707,131.968 27.627,131.872C27.548,131.774 27.449,131.665 27.33,131.546C27.145,131.364 26.992,131.203 26.871,131.063C26.749,130.923 26.659,130.8 26.601,130.695C26.489,130.489 26.433,130.23 26.433,129.917C26.433,129.495 26.543,129.16 26.762,128.912C26.984,128.662 27.282,128.537 27.655,128.537C27.915,128.537 28.162,128.599 28.398,128.723L28.398,128.723Z" style="fill:rgb(158,161,168);fill-rule:nonzero;"/>
        </g>
        <g id="text988" transform="matrix(0.896857,0,0,1.115,0,0)">
            <path id="path1031" d="M10.826,146.368L10.826,147.057C10.611,146.903 10.417,146.826 10.245,146.826C10.059,146.826 9.907,146.892 9.79,147.023C9.672,147.148 9.613,147.314 9.613,147.523C9.613,147.706 9.655,147.864 9.739,147.995C9.782,148.065 9.852,148.156 9.949,148.267C10.049,148.378 10.177,148.511 10.333,148.668C10.621,148.96 10.817,149.212 10.921,149.425C11.025,149.631 11.077,149.884 11.077,150.183C11.077,150.588 10.963,150.922 10.734,151.185C10.505,151.441 10.212,151.569 9.854,151.569C9.553,151.569 9.296,151.486 9.083,151.321L9.083,150.621C9.334,150.804 9.563,150.896 9.769,150.896C9.962,150.896 10.112,150.833 10.221,150.706C10.33,150.577 10.384,150.402 10.384,150.183C10.384,149.993 10.342,149.822 10.259,149.67C10.215,149.597 10.155,149.515 10.078,149.422C10.001,149.327 9.905,149.221 9.79,149.106C9.611,148.929 9.462,148.773 9.345,148.637C9.227,148.501 9.14,148.382 9.083,148.28C8.974,148.081 8.92,147.83 8.92,147.526C8.92,147.116 9.026,146.791 9.239,146.551C9.455,146.309 9.743,146.188 10.106,146.188C10.357,146.188 10.597,146.248 10.826,146.368L10.826,146.368Z" style="fill:rgb(158,161,168);fill-rule:nonzero;"/>
            <path id="path1033" d="M11.335,146.259L13.635,146.259L13.635,146.877L12.844,146.877L12.844,151.504L12.151,151.504L12.151,146.877L11.335,146.877L11.335,146.259Z" style="fill:rgb(158,161,168);fill-rule:nonzero;"/>
            <path id="path1035" d="M14.675,146.259L15.225,146.259L16.35,151.504L15.65,151.504L15.453,150.482L14.413,150.482L14.213,151.504L13.533,151.504L14.675,146.259ZM15.351,149.935L15.195,149.099C15.09,148.531 15.006,147.924 14.94,147.278C14.908,147.593 14.867,147.912 14.818,148.236C14.768,148.558 14.709,148.9 14.641,149.262L14.512,149.935L15.351,149.935Z" style="fill:rgb(158,161,168);fill-rule:nonzero;"/>
            <path id="path1037" d="M18.011,148.746L19.295,148.746L19.295,148.95C19.295,149.971 19.206,150.661 19.027,151.018C18.85,151.385 18.519,151.569 18.035,151.569C17.534,151.569 17.177,151.365 16.965,150.957C16.754,150.55 16.649,149.865 16.649,148.902C16.649,147.801 16.764,147.069 16.995,146.704C17.213,146.362 17.547,146.191 17.997,146.191C18.342,146.191 18.61,146.274 18.802,146.439C18.997,146.607 19.149,146.882 19.258,147.265L18.599,147.54C18.569,147.402 18.536,147.286 18.5,147.193C18.464,147.098 18.424,147.025 18.381,146.972C18.295,146.866 18.166,146.813 17.994,146.813C17.758,146.813 17.598,146.958 17.512,147.248C17.425,147.551 17.382,148.096 17.382,148.882C17.382,149.677 17.427,150.215 17.515,150.495C17.603,150.776 17.77,150.917 18.014,150.917C18.239,150.917 18.396,150.817 18.487,150.618C18.579,150.405 18.626,150.063 18.626,149.592L18.626,149.449L18.626,149.344L18.011,149.344L18.011,148.746Z" style="fill:rgb(158,161,168);fill-rule:nonzero;"/>
            <path id="path1041" d="M20.002,146.259L21.88,146.259L21.88,146.857L20.708,146.857L20.708,148.518L21.748,148.518L21.748,149.116L20.708,149.116L20.708,150.906L21.88,150.906L21.88,151.504L20.002,151.504L20.002,146.259Z" style="fill:rgb(158,161,168);fill-rule:nonzero;"/>
            <path id="path1044" d="M24.279,146.368L24.279,147.057C24.064,146.903 23.87,146.826 23.698,146.826C23.512,146.826 23.36,146.892 23.243,147.023C23.125,147.148 23.066,147.314 23.066,147.523C23.066,147.706 23.108,147.864 23.192,147.995C23.235,148.065 23.305,148.156 23.402,148.267C23.502,148.378 23.63,148.511 23.786,148.668C24.074,148.96 24.27,149.212 24.374,149.425C24.478,149.631 24.53,149.884 24.53,150.183C24.53,150.588 24.416,150.922 24.187,151.185C23.958,151.441 23.665,151.569 23.307,151.569C23.006,151.569 22.749,151.486 22.536,151.321L22.536,150.621C22.787,150.804 23.016,150.896 23.222,150.896C23.415,150.896 23.565,150.833 23.674,150.706C23.783,150.577 23.837,150.402 23.837,150.183C23.837,149.993 23.795,149.822 23.711,149.67C23.668,149.597 23.608,149.515 23.531,149.422C23.454,149.327 23.358,149.221 23.243,149.106C23.064,148.929 22.915,148.773 22.798,148.637C22.68,148.501 22.593,148.382 22.536,148.28C22.427,148.081 22.373,147.83 22.373,147.526C22.373,147.116 22.479,146.791 22.692,146.551C22.907,146.309 23.196,146.188 23.559,146.188C23.81,146.188 24.05,146.248 24.279,146.368L24.279,146.368Z" style="fill:rgb(158,161,168);fill-rule:nonzero;"/>
        </g>
        <g id="text992" transform="matrix(0.872823,0,0,1.14571,0,-23)">
            <path id="path1018" d="M12.397,263.722C12.397,264.623 12.296,265.263 12.096,265.642C11.895,266.021 11.559,266.211 11.087,266.211C10.592,266.211 10.242,266.007 10.039,265.599C9.839,265.2 9.739,264.492 9.739,263.474C9.739,262.565 9.838,261.923 10.036,261.546C10.237,261.167 10.576,260.977 11.054,260.977C11.482,260.977 11.799,261.124 12.007,261.417C12.143,261.613 12.242,261.892 12.304,262.254C12.366,262.589 12.397,263.078 12.397,263.722L12.397,263.722ZM11.676,263.794C11.676,262.91 11.636,262.324 11.557,262.035C11.478,261.744 11.316,261.599 11.071,261.599C10.826,261.599 10.663,261.732 10.582,261.999C10.502,262.268 10.463,262.808 10.463,263.619C10.463,264.366 10.504,264.884 10.588,265.173C10.674,265.446 10.835,265.583 11.071,265.583C11.302,265.583 11.461,265.455 11.547,265.199C11.633,264.946 11.676,264.478 11.676,263.794L11.676,263.794Z" style="fill:rgb(158,161,168);fill-rule:nonzero;"/>
            <path id="path1020" d="M13.081,261.044L14.919,261.044L14.919,261.625L13.769,261.625L13.769,263.239L14.807,263.239L14.807,263.821L13.769,263.821L13.769,266.148L13.081,266.148L13.081,261.044Z" style="fill:rgb(158,161,168);fill-rule:nonzero;"/>
            <path id="path1022" d="M15.448,261.044L17.286,261.044L17.286,261.625L16.136,261.625L16.136,263.239L17.174,263.239L17.174,263.821L16.136,263.821L16.136,266.148L15.448,266.148L15.448,261.044Z" style="fill:rgb(158,161,168);fill-rule:nonzero;"/>
            <path id="path1024" d="M19.518,261.149L19.518,261.82C19.309,261.671 19.12,261.596 18.953,261.596C18.772,261.596 18.624,261.66 18.51,261.787C18.395,261.909 18.338,262.071 18.338,262.273C18.338,262.452 18.379,262.605 18.46,262.733C18.502,262.801 18.57,262.89 18.665,262.997C18.762,263.105 18.887,263.236 19.039,263.388C19.319,263.672 19.509,263.918 19.611,264.125C19.712,264.325 19.763,264.571 19.763,264.862C19.763,265.257 19.651,265.582 19.429,265.837C19.206,266.087 18.921,266.211 18.573,266.211C18.279,266.211 18.029,266.131 17.822,265.97L17.822,265.289C18.067,265.467 18.289,265.556 18.49,265.556C18.677,265.556 18.824,265.495 18.93,265.371C19.035,265.246 19.088,265.076 19.088,264.862C19.088,264.677 19.048,264.511 18.966,264.363C18.924,264.292 18.866,264.212 18.791,264.122C18.716,264.029 18.622,263.927 18.51,263.814C18.336,263.642 18.191,263.49 18.077,263.358C17.962,263.226 17.877,263.11 17.822,263.011C17.716,262.817 17.663,262.572 17.663,262.277C17.663,261.878 17.767,261.562 17.974,261.328C18.184,261.092 18.465,260.974 18.817,260.974C19.062,260.974 19.295,261.033 19.518,261.149L19.518,261.149Z" style="fill:rgb(158,161,168);fill-rule:nonzero;"/>
            <path id="path1026" d="M20.341,261.044L22.17,261.044L22.17,261.625L21.029,261.625L21.029,263.242L22.041,263.242L22.041,263.824L21.029,263.824L21.029,265.566L22.17,265.566L22.17,266.148L20.341,266.148L20.341,261.044Z" style="fill:rgb(158,161,168);fill-rule:nonzero;"/>
            <path id="path1028" d="M22.394,261.044L24.633,261.044L24.633,261.645L23.862,261.645L23.862,266.148L23.188,266.148L23.188,261.645L22.394,261.645L22.394,261.044Z" style="fill:rgb(158,161,168);fill-rule:nonzero;"/>
        </g>
        <g id="text1084" transform="matrix(0.780812,0,0,0.901183,2.72727,2.5196)">
            <path id="path1087" d="M4.236,15.299L4.236,11.683C4.848,12.518 5.509,12.936 6.219,12.936C6.488,12.936 6.706,12.866 6.875,12.727C7.044,12.583 7.129,12.404 7.129,12.19C7.129,11.882 6.945,11.581 6.577,11.288L6.07,10.893C5.732,10.639 5.444,10.388 5.205,10.14C4.967,9.886 4.773,9.628 4.624,9.364C4.475,9.096 4.365,8.82 4.296,8.537C4.226,8.253 4.191,7.955 4.191,7.642C4.191,7.105 4.316,6.544 4.564,5.957C4.688,5.684 4.833,5.435 4.997,5.212C5.161,4.983 5.35,4.782 5.563,4.608C6.15,4.111 6.858,3.862 7.688,3.862C8.429,3.862 9.174,4.058 9.925,4.451L9.925,7.97C9.671,7.577 9.383,7.269 9.06,7.046C8.737,6.817 8.419,6.703 8.106,6.703C7.867,6.703 7.671,6.772 7.517,6.911C7.358,7.046 7.278,7.207 7.278,7.396C7.278,7.704 7.489,8.01 7.912,8.313L8.404,8.678C9.06,9.151 9.53,9.635 9.813,10.132C10.101,10.629 10.245,11.211 10.245,11.877C10.245,13.01 9.9,13.945 9.209,14.68C8.518,15.416 7.643,15.784 6.585,15.784C5.854,15.784 5.071,15.622 4.236,15.299Z" style="fill:rgb(158,161,168);fill-rule:nonzero;"/>
            <path id="path1095" d="M20.05,15.806L17.552,17.178L16.486,15.635C16.128,15.734 15.82,15.784 15.561,15.784C14.329,15.784 13.302,15.282 12.482,14.278C11.607,13.209 11.17,11.733 11.17,9.849C11.17,8.025 11.568,6.573 12.363,5.495C13.158,4.406 14.222,3.862 15.554,3.862C16.851,3.862 17.905,4.401 18.715,5.48C19.525,6.559 19.93,7.963 19.93,9.692C19.93,11.666 19.495,13.177 18.626,14.225L20.05,15.806ZM16.71,9.886C16.71,9.394 16.682,8.954 16.627,8.567C16.573,8.179 16.496,7.853 16.396,7.59C16.297,7.321 16.173,7.118 16.024,6.979C15.879,6.834 15.715,6.762 15.532,6.762C15.184,6.762 14.905,7.041 14.696,7.597C14.493,8.194 14.391,8.942 14.391,9.841C14.391,10.319 14.416,10.746 14.465,11.124C14.52,11.502 14.595,11.82 14.689,12.078C14.788,12.337 14.91,12.535 15.054,12.675C15.198,12.809 15.36,12.876 15.539,12.876C15.723,12.876 15.887,12.809 16.031,12.675C16.175,12.54 16.297,12.344 16.396,12.086C16.501,11.827 16.578,11.514 16.627,11.146C16.682,10.778 16.71,10.358 16.71,9.886L16.71,9.886Z" style="fill:rgb(158,161,168);fill-rule:nonzero;"/>
            <path id="path1097" d="M27.244,15.582L24.135,15.582L24.135,6.777L22.89,6.777L22.89,4.071L27.244,4.071L27.244,15.582Z" style="fill:rgb(158,161,168);fill-rule:nonzero;"/>
        </g>
        <g id="text1218" transform="matrix(0.921979,0,0,1.08462,0,0)">
            <path id="path1220" d="M3.044,275.857L3.044,276.566C2.823,276.408 2.624,276.328 2.447,276.328C2.256,276.328 2.1,276.396 1.979,276.531C1.858,276.659 1.797,276.83 1.797,277.044C1.797,277.233 1.84,277.395 1.926,277.53C1.971,277.602 2.043,277.695 2.143,277.809C2.245,277.923 2.377,278.061 2.537,278.221C2.833,278.522 3.035,278.781 3.142,279C3.249,279.212 3.302,279.472 3.302,279.779C3.302,280.196 3.185,280.539 2.95,280.809C2.714,281.072 2.413,281.204 2.045,281.204C1.735,281.204 1.471,281.119 1.252,280.949L1.252,280.229C1.511,280.418 1.746,280.512 1.958,280.512C2.156,280.512 2.31,280.447 2.422,280.317C2.534,280.184 2.59,280.005 2.59,279.779C2.59,279.583 2.547,279.407 2.461,279.251C2.416,279.177 2.355,279.092 2.276,278.997C2.196,278.899 2.097,278.791 1.979,278.672C1.795,278.49 1.642,278.33 1.521,278.19C1.4,278.05 1.31,277.928 1.252,277.823C1.141,277.618 1.085,277.36 1.085,277.048C1.085,276.626 1.194,276.292 1.413,276.046C1.634,275.796 1.931,275.672 2.303,275.672C2.562,275.672 2.809,275.734 3.044,275.857L3.044,275.857Z" style="fill:rgb(158,161,168);fill-rule:nonzero;"/>
            <path id="path1222" d="M3.568,275.745L5.932,275.745L5.932,276.381L5.118,276.381L5.118,281.137L4.406,281.137L4.406,276.381L3.568,276.381L3.568,275.745Z" style="fill:rgb(158,161,168);fill-rule:nonzero;"/>
            <path id="path1224" d="M7.001,275.745L7.566,275.745L8.722,281.137L8.003,281.137L7.8,280.086L6.732,280.086L6.526,281.137L5.827,281.137L7.001,275.745ZM7.696,279.524L7.535,278.665C7.428,278.08 7.341,277.456 7.273,276.793C7.24,277.117 7.199,277.445 7.147,277.778C7.096,278.108 7.036,278.46 6.966,278.832L6.833,279.524L7.696,279.524Z" style="fill:rgb(158,161,168);fill-rule:nonzero;"/>
            <path id="path1226" d="M10.43,278.302L11.75,278.302L11.75,278.511C11.75,279.561 11.658,280.27 11.474,280.638C11.293,281.015 10.953,281.204 10.455,281.204C9.94,281.204 9.573,280.994 9.355,280.575C9.138,280.156 9.03,279.452 9.03,278.462C9.03,277.331 9.148,276.578 9.386,276.203C9.609,275.851 9.953,275.675 10.416,275.675C10.77,275.675 11.046,275.76 11.244,275.93C11.444,276.103 11.6,276.385 11.712,276.779L11.034,277.062C11.004,276.92 10.97,276.801 10.933,276.706C10.896,276.608 10.855,276.532 10.811,276.479C10.722,276.369 10.59,276.314 10.413,276.314C10.171,276.314 10.005,276.463 9.917,276.761C9.828,277.073 9.784,277.633 9.784,278.441C9.784,279.258 9.829,279.811 9.92,280.1C10.011,280.389 10.182,280.533 10.434,280.533C10.664,280.533 10.826,280.431 10.919,280.226C11.015,280.007 11.062,279.655 11.062,279.171L11.062,279.024L11.062,278.916L10.43,278.916L10.43,278.302Z" style="fill:rgb(158,161,168);fill-rule:nonzero;"/>
            <path id="path1228" d="M12.477,275.745L14.408,275.745L14.408,276.36L13.203,276.36L13.203,278.068L14.272,278.068L14.272,278.682L13.203,278.682L13.203,280.523L14.408,280.523L14.408,281.137L12.477,281.137L12.477,275.745Z" style="fill:rgb(158,161,168);fill-rule:nonzero;"/>
            <path id="path1230" d="M18.354,275.857L18.354,276.566C18.133,276.408 17.934,276.328 17.757,276.328C17.566,276.328 17.41,276.396 17.289,276.531C17.168,276.659 17.108,276.83 17.108,277.044C17.108,277.233 17.151,277.395 17.237,277.53C17.281,277.602 17.353,277.695 17.453,277.809C17.556,277.923 17.687,278.061 17.848,278.221C18.144,278.522 18.345,278.781 18.452,279C18.559,279.212 18.613,279.472 18.613,279.779C18.613,280.196 18.495,280.539 18.26,280.809C18.025,281.072 17.723,281.204 17.355,281.204C17.046,281.204 16.782,281.119 16.563,280.949L16.563,280.229C16.821,280.418 17.056,280.512 17.268,280.512C17.466,280.512 17.621,280.447 17.733,280.317C17.844,280.184 17.9,280.005 17.9,279.779C17.9,279.583 17.857,279.407 17.771,279.251C17.727,279.177 17.665,279.092 17.586,278.997C17.507,278.899 17.408,278.791 17.289,278.672C17.105,278.49 16.953,278.33 16.832,278.19C16.711,278.05 16.621,277.928 16.563,277.823C16.451,277.618 16.395,277.36 16.395,277.048C16.395,276.626 16.504,276.292 16.723,276.046C16.945,275.796 17.241,275.672 17.614,275.672C17.872,275.672 18.119,275.734 18.354,275.857L18.354,275.857Z" style="fill:rgb(158,161,168);fill-rule:nonzero;"/>
            <path id="path1232" d="M19.224,275.745L21.155,275.745L21.155,276.36L19.95,276.36L19.95,278.068L21.019,278.068L21.019,278.682L19.95,278.682L19.95,280.523L21.155,280.523L21.155,281.137L19.224,281.137L19.224,275.745Z" style="fill:rgb(158,161,168);fill-rule:nonzero;"/>
            <path id="path1234" d="M21.822,275.745L22.549,275.745L22.549,280.523L23.736,280.523L23.736,281.137L21.822,281.137L21.822,275.745Z" style="fill:rgb(158,161,168);fill-rule:nonzero;"/>
            <path id="path1236" d="M24.197,275.745L26.128,275.745L26.128,276.36L24.923,276.36L24.923,278.068L25.992,278.068L25.992,278.682L24.923,278.682L24.923,280.523L26.128,280.523L26.128,281.137L24.197,281.137L24.197,275.745Z" style="fill:rgb(158,161,168);fill-rule:nonzero;"/>
            <path id="path1238" d="M28.912,275.832L28.912,276.486C28.725,276.395 28.569,276.349 28.444,276.349C28.271,276.349 28.124,276.392 28,276.479C27.877,276.562 27.774,276.693 27.693,276.87C27.614,277.047 27.554,277.271 27.515,277.544C27.477,277.814 27.459,278.134 27.459,278.504C27.459,279.836 27.8,280.502 28.482,280.502C28.601,280.502 28.744,280.464 28.912,280.39L28.912,281.057C28.737,281.155 28.541,281.204 28.325,281.204C27.233,281.204 26.687,280.312 26.687,278.529C26.687,277.565 26.82,276.848 27.085,276.377C27.353,275.907 27.761,275.672 28.311,275.672C28.514,275.672 28.714,275.725 28.912,275.832L28.912,275.832Z" style="fill:rgb(158,161,168);fill-rule:nonzero;"/>
            <path id="path1240" d="M29.09,275.745L31.454,275.745L31.454,276.381L30.64,276.381L30.64,281.137L29.928,281.137L29.928,276.381L29.09,276.381L29.09,275.745Z" style="fill:rgb(158,161,168);fill-rule:nonzero;"/>
        </g>
        <g id="text1245" transform="matrix(0.969965,0,0,1.00385,0.526303,0)">
            <path id="path1247" d="M1.004,321.841L2.038,321.841C2.536,321.841 2.898,321.967 3.124,322.218C3.351,322.472 3.464,322.875 3.464,323.426C3.464,324.201 3.236,324.701 2.781,324.928C2.552,325.031 2.221,325.082 1.789,325.082L1.789,327.667L1.004,327.667L1.004,321.841ZM1.789,324.411C2.113,324.411 2.337,324.345 2.46,324.215C2.586,324.081 2.649,323.845 2.649,323.505C2.649,323.158 2.589,322.904 2.468,322.743C2.347,322.582 2.157,322.501 1.898,322.501L1.789,322.501L1.789,324.411Z" style="fill:rgb(158,161,168);fill-rule:nonzero;"/>
            <path id="path1249" d="M4.068,321.841L4.838,321.841L4.838,325.958C4.838,326.378 4.875,326.657 4.951,326.795C5.029,326.934 5.182,327.003 5.411,327.003C5.64,327.003 5.791,326.943 5.864,326.822C5.939,326.699 5.977,326.448 5.977,326.071L5.977,321.841L6.747,321.841L6.747,326.071C6.747,326.705 6.65,327.134 6.456,327.358C6.225,327.612 5.871,327.739 5.396,327.739C4.873,327.739 4.504,327.575 4.29,327.248C4.142,327.024 4.068,326.594 4.068,325.958L4.068,321.841Z" style="fill:rgb(158,161,168);fill-rule:nonzero;"/>
            <path id="path1251" d="M7.645,321.841L8.43,321.841L8.43,327.003L9.713,327.003L9.713,327.667L7.645,327.667L7.645,321.841Z" style="fill:rgb(158,161,168);fill-rule:nonzero;"/>
            <path id="path1253" d="M12.245,321.962L12.245,322.728C12.006,322.557 11.791,322.471 11.599,322.471C11.393,322.471 11.225,322.544 11.094,322.69C10.963,322.828 10.898,323.013 10.898,323.245C10.898,323.449 10.944,323.623 11.037,323.769C11.085,323.847 11.163,323.948 11.271,324.071C11.382,324.194 11.524,324.343 11.698,324.516C12.017,324.841 12.235,325.121 12.35,325.358C12.466,325.587 12.524,325.867 12.524,326.199C12.524,326.65 12.397,327.021 12.143,327.312C11.889,327.597 11.563,327.739 11.166,327.739C10.831,327.739 10.545,327.647 10.309,327.463L10.309,326.686C10.588,326.89 10.842,326.992 11.071,326.992C11.285,326.992 11.452,326.921 11.573,326.78C11.694,326.637 11.754,326.443 11.754,326.199C11.754,325.988 11.708,325.798 11.615,325.63C11.567,325.549 11.5,325.457 11.415,325.354C11.329,325.248 11.222,325.131 11.094,325.003C10.895,324.807 10.73,324.633 10.6,324.482C10.469,324.332 10.372,324.199 10.309,324.086C10.188,323.865 10.128,323.586 10.128,323.249C10.128,322.793 10.246,322.432 10.483,322.166C10.722,321.896 11.042,321.762 11.445,321.762C11.724,321.762 11.991,321.829 12.245,321.962L12.245,321.962Z" style="fill:rgb(158,161,168);fill-rule:nonzero;"/>
            <path id="path1255" d="M13.184,321.841L15.271,321.841L15.271,322.505L13.969,322.505L13.969,324.35L15.124,324.35L15.124,325.014L13.969,325.014L13.969,327.003L15.271,327.003L15.271,327.667L13.184,327.667L13.184,321.841Z" style="fill:rgb(158,161,168);fill-rule:nonzero;"/>
            <path id="path1257" d="M18.988,324.603L20.414,324.603L20.414,324.83C20.414,325.964 20.315,326.73 20.116,327.128C19.92,327.535 19.552,327.739 19.014,327.739C18.458,327.739 18.062,327.512 17.825,327.06C17.592,326.607 17.475,325.846 17.475,324.777C17.475,323.554 17.603,322.74 17.859,322.335C18.101,321.956 18.472,321.766 18.973,321.766C19.355,321.766 19.653,321.857 19.867,322.041C20.083,322.227 20.252,322.533 20.372,322.958L19.64,323.264C19.608,323.11 19.571,322.982 19.531,322.879C19.491,322.773 19.447,322.691 19.399,322.633C19.303,322.515 19.16,322.456 18.969,322.456C18.707,322.456 18.529,322.617 18.433,322.939C18.337,323.276 18.29,323.881 18.29,324.754C18.29,325.637 18.339,326.235 18.437,326.546C18.535,326.858 18.72,327.014 18.991,327.014C19.24,327.014 19.415,326.904 19.516,326.682C19.619,326.446 19.671,326.066 19.671,325.543L19.671,325.384L19.671,325.267L18.988,325.267L18.988,324.603Z" style="fill:rgb(158,161,168);fill-rule:nonzero;"/>
            <path id="path1259" d="M22.029,321.841L22.64,321.841L23.889,327.667L23.112,327.667L22.893,326.531L21.738,326.531L21.516,327.667L20.761,327.667L22.029,321.841ZM22.78,325.924L22.606,324.996C22.491,324.364 22.396,323.69 22.323,322.973C22.288,323.323 22.243,323.677 22.187,324.037C22.132,324.394 22.067,324.774 21.991,325.177L21.848,325.924L22.78,325.924Z" style="fill:rgb(158,161,168);fill-rule:nonzero;"/>
            <path id="path1261" d="M23.769,321.841L26.323,321.841L26.323,322.528L25.444,322.528L25.444,327.667L24.674,327.667L24.674,322.528L23.769,322.528L23.769,321.841Z" style="fill:rgb(158,161,168);fill-rule:nonzero;"/>
            <path id="path1263" d="M26.753,321.841L28.84,321.841L28.84,322.505L27.538,322.505L27.538,324.35L28.693,324.35L28.693,325.014L27.538,325.014L27.538,327.003L28.84,327.003L28.84,327.667L26.753,327.667L26.753,321.841Z" style="fill:rgb(158,161,168);fill-rule:nonzero;"/>
        </g>
        <g id="text1268" transform="matrix(0.919603,0,0,1.08743,0,0)">
            <path id="path1270" d="M3.306,319.262L3.306,319.914C3.121,319.823 2.965,319.778 2.84,319.778C2.668,319.778 2.52,319.821 2.397,319.907C2.274,319.991 2.172,320.121 2.091,320.297C2.012,320.474 1.952,320.698 1.913,320.969C1.876,321.239 1.857,321.558 1.857,321.927C1.857,323.256 2.197,323.92 2.878,323.92C2.996,323.92 3.139,323.883 3.306,323.808L3.306,324.474C3.132,324.571 2.937,324.62 2.721,324.62C1.632,324.62 1.087,323.73 1.087,321.952C1.087,320.99 1.22,320.275 1.485,319.806C1.752,319.337 2.159,319.102 2.707,319.102C2.909,319.102 3.109,319.156 3.306,319.262L3.306,319.262Z" style="fill:rgb(158,161,168);fill-rule:nonzero;"/>
            <path id="path1272" d="M3.484,319.175L4.198,319.175L4.522,321.161L4.578,321.52L4.693,322.3C4.711,322.432 4.728,322.553 4.741,322.662C4.758,322.771 4.772,322.87 4.783,322.958L4.818,323.223C4.825,323.17 4.831,323.122 4.836,323.08C4.84,323.038 4.845,323.004 4.849,322.976L4.944,322.352L5.065,321.534C5.077,321.459 5.087,321.391 5.097,321.328C5.108,321.265 5.119,321.21 5.128,321.161L5.476,319.175L6.152,319.175L5.097,324.554L4.522,324.554L3.484,319.175Z" style="fill:rgb(158,161,168);fill-rule:nonzero;"/>
            <rect id="path1274" x="7.608" y="322.436" width="1.268" height="0.543" style="fill:rgb(158,161,168);fill-rule:nonzero;"/>
            <path id="path1276" d="M10.768,319.175L11.492,319.175L11.492,323.941L12.677,323.941L12.677,324.554L10.768,324.554L10.768,319.175Z" style="fill:rgb(158,161,168);fill-rule:nonzero;"/>
            <path id="path1278" d="M14.195,319.175L14.76,319.175L15.913,324.554L15.195,324.554L14.993,323.505L13.927,323.505L13.722,324.554L13.025,324.554L14.195,319.175ZM14.888,322.944L14.728,322.087C14.621,321.505 14.534,320.882 14.467,320.22C14.434,320.543 14.393,320.871 14.342,321.203C14.29,321.532 14.23,321.883 14.16,322.255L14.028,322.944L14.888,322.944Z" style="fill:rgb(158,161,168);fill-rule:nonzero;"/>
            <path id="path1280" d="M18.135,319.287L18.135,319.994C17.914,319.836 17.716,319.757 17.539,319.757C17.349,319.757 17.193,319.824 17.072,319.959C16.952,320.087 16.891,320.258 16.891,320.471C16.891,320.659 16.934,320.821 17.02,320.955C17.064,321.027 17.136,321.12 17.236,321.234C17.338,321.348 17.47,321.485 17.63,321.645C17.925,321.945 18.126,322.204 18.232,322.422C18.339,322.633 18.393,322.892 18.393,323.199C18.393,323.614 18.275,323.957 18.041,324.226C17.806,324.489 17.506,324.62 17.139,324.62C16.83,324.62 16.566,324.535 16.348,324.366L16.348,323.648C16.606,323.836 16.84,323.93 17.052,323.93C17.249,323.93 17.403,323.865 17.515,323.735C17.626,323.603 17.682,323.424 17.682,323.199C17.682,323.004 17.639,322.828 17.553,322.673C17.509,322.598 17.448,322.514 17.369,322.418C17.29,322.321 17.191,322.213 17.072,322.094C16.889,321.913 16.737,321.753 16.616,321.614C16.495,321.474 16.406,321.352 16.348,321.248C16.236,321.044 16.181,320.786 16.181,320.475C16.181,320.054 16.29,319.721 16.508,319.475C16.729,319.226 17.025,319.102 17.396,319.102C17.654,319.102 17.9,319.164 18.135,319.287L18.135,319.287Z" style="fill:rgb(158,161,168);fill-rule:nonzero;"/>
            <path id="path1282" d="M18.657,319.175L21.016,319.175L21.016,319.809L20.204,319.809L20.204,324.554L19.493,324.554L19.493,319.809L18.657,319.809L18.657,319.175Z" style="fill:rgb(158,161,168);fill-rule:nonzero;"/>
            <path id="path1284" d="M25.582,321.997C25.582,322.947 25.477,323.621 25.265,324.021C25.054,324.42 24.7,324.62 24.203,324.62C23.68,324.62 23.312,324.405 23.099,323.975C22.887,323.555 22.782,322.809 22.782,321.736C22.782,320.779 22.886,320.102 23.095,319.705C23.307,319.305 23.664,319.106 24.168,319.106C24.619,319.106 24.953,319.26 25.171,319.569C25.315,319.776 25.42,320.069 25.485,320.45C25.55,320.803 25.582,321.319 25.582,321.997L25.582,321.997ZM24.823,322.074C24.823,321.142 24.781,320.525 24.698,320.22C24.614,319.914 24.443,319.761 24.185,319.761C23.928,319.761 23.756,319.901 23.67,320.182C23.586,320.465 23.545,321.034 23.545,321.889C23.545,322.676 23.589,323.222 23.677,323.526C23.767,323.814 23.937,323.958 24.185,323.958C24.429,323.958 24.597,323.823 24.687,323.554C24.778,323.287 24.823,322.793 24.823,322.074L24.823,322.074Z" style="fill:rgb(158,161,168);fill-rule:nonzero;"/>
            <path id="path1286" d="M26.303,319.175L27.014,319.175L27.014,322.976C27.014,323.364 27.049,323.621 27.118,323.749C27.19,323.877 27.332,323.941 27.543,323.941C27.755,323.941 27.894,323.885 27.961,323.773C28.031,323.66 28.066,323.429 28.066,323.08L28.066,319.175L28.777,319.175L28.777,323.08C28.777,323.665 28.687,324.061 28.508,324.268C28.295,324.503 27.968,324.62 27.529,324.62C27.046,324.62 26.706,324.469 26.509,324.167C26.372,323.96 26.303,323.563 26.303,322.976L26.303,319.175Z" style="fill:rgb(158,161,168);fill-rule:nonzero;"/>
            <path id="path1288" d="M29.177,319.175L31.535,319.175L31.535,319.809L30.724,319.809L30.724,324.554L30.013,324.554L30.013,319.809L29.177,319.809L29.177,319.175Z" style="fill:rgb(158,161,168);fill-rule:nonzero;"/>
        </g>
        <g id="text1222" transform="matrix(0.944541,0,0,1.05872,-1.57195e-07,-1)">
            <path id="path1229" d="M3.011,17.736L3.011,18.443C2.791,18.285 2.592,18.206 2.416,18.206C2.226,18.206 2.07,18.273 1.95,18.408C1.829,18.536 1.769,18.706 1.769,18.92C1.769,19.107 1.812,19.269 1.898,19.403C1.942,19.475 2.014,19.568 2.113,19.682C2.215,19.795 2.347,19.932 2.507,20.092C2.801,20.392 3.002,20.651 3.109,20.869C3.216,21.08 3.269,21.339 3.269,21.645C3.269,22.06 3.152,22.402 2.917,22.672C2.683,22.934 2.382,23.065 2.016,23.065C1.707,23.065 1.444,22.98 1.226,22.811L1.226,22.094C1.483,22.282 1.718,22.376 1.929,22.376C2.126,22.376 2.28,22.311 2.392,22.181C2.503,22.049 2.559,21.87 2.559,21.645C2.559,21.45 2.516,21.275 2.43,21.119C2.386,21.045 2.324,20.96 2.246,20.865C2.167,20.768 2.068,20.66 1.95,20.541C1.766,20.36 1.614,20.2 1.494,20.061C1.373,19.922 1.284,19.8 1.226,19.696C1.114,19.491 1.059,19.234 1.059,18.923C1.059,18.503 1.168,18.17 1.386,17.924C1.606,17.676 1.902,17.552 2.273,17.552C2.531,17.552 2.777,17.613 3.011,17.736L3.011,17.736Z" style="fill:rgb(158,161,168);fill-rule:nonzero;"/>
            <path id="path1231" d="M3.533,17.625L5.89,17.625L5.89,18.258L5.079,18.258L5.079,22.999L4.369,22.999L4.369,18.258L3.533,18.258L3.533,17.625Z" style="fill:rgb(158,161,168);fill-rule:nonzero;"/>
            <path id="path1233" d="M6.955,17.625L7.519,17.625L8.671,22.999L7.954,22.999L7.752,21.951L6.687,21.951L6.481,22.999L5.785,22.999L6.955,17.625ZM7.647,21.391L7.487,20.535C7.381,19.952 7.294,19.33 7.226,18.669C7.194,18.991 7.152,19.319 7.101,19.65C7.05,19.98 6.99,20.33 6.92,20.702L6.788,21.391L7.647,21.391Z" style="fill:rgb(158,161,168);fill-rule:nonzero;"/>
            <path id="path1235" d="M9.099,17.625L10.053,17.625C10.447,17.625 10.741,17.719 10.933,17.907C11.177,18.15 11.299,18.523 11.299,19.024C11.299,19.409 11.234,19.719 11.104,19.953C10.976,20.185 10.793,20.329 10.554,20.385L11.542,22.999L10.808,22.999L9.823,20.367L9.823,22.999L9.099,22.999L9.099,17.625ZM9.823,20.005C10.104,20.005 10.302,19.94 10.418,19.811C10.534,19.681 10.592,19.461 10.592,19.153C10.592,18.986 10.579,18.843 10.554,18.725C10.531,18.606 10.492,18.51 10.439,18.436C10.388,18.361 10.321,18.307 10.237,18.272C10.156,18.237 10.058,18.22 9.945,18.22L9.823,18.22L9.823,20.005Z" style="fill:rgb(158,161,168);fill-rule:nonzero;"/>
            <path id="path1237" d="M11.748,17.625L14.104,17.625L14.104,18.258L13.293,18.258L13.293,22.999L12.583,22.999L12.583,18.258L11.748,18.258L11.748,17.625Z" style="fill:rgb(158,161,168);fill-rule:nonzero;"/>
            <path id="path1239" d="M16.627,17.002L17.334,17.172C16.921,18.483 16.714,19.662 16.714,20.709C16.714,21.89 16.921,23.111 17.334,24.374L16.627,24.558C16.186,23.3 15.966,22.036 15.966,20.764C15.966,19.465 16.186,18.211 16.627,17.002Z" style="fill:rgb(158,161,168);fill-rule:nonzero;"/>
            <path id="path1241" d="M19.857,17.736L19.857,18.443C19.637,18.285 19.438,18.206 19.262,18.206C19.072,18.206 18.916,18.273 18.796,18.408C18.675,18.536 18.615,18.706 18.615,18.92C18.615,19.107 18.658,19.269 18.744,19.403C18.788,19.475 18.86,19.568 18.959,19.682C19.061,19.795 19.193,19.932 19.353,20.092C19.647,20.392 19.848,20.651 19.955,20.869C20.061,21.08 20.115,21.339 20.115,21.645C20.115,22.06 19.998,22.402 19.763,22.672C19.529,22.934 19.228,23.065 18.862,23.065C18.553,23.065 18.29,22.98 18.072,22.811L18.072,22.094C18.329,22.282 18.564,22.376 18.775,22.376C18.972,22.376 19.126,22.311 19.238,22.181C19.349,22.049 19.405,21.87 19.405,21.645C19.405,21.45 19.362,21.275 19.276,21.119C19.232,21.045 19.17,20.96 19.092,20.865C19.013,20.768 18.914,20.66 18.796,20.541C18.612,20.36 18.46,20.2 18.34,20.061C18.219,19.922 18.13,19.8 18.072,19.696C17.96,19.491 17.905,19.234 17.905,18.923C17.905,18.503 18.014,18.17 18.232,17.924C18.452,17.676 18.748,17.552 19.119,17.552C19.377,17.552 19.623,17.613 19.857,17.736L19.857,17.736Z" style="fill:rgb(158,161,168);fill-rule:nonzero;"/>
            <path id="path1243" d="M20.379,17.625L22.736,17.625L22.736,18.258L21.925,18.258L21.925,22.999L21.215,22.999L21.215,18.258L20.379,18.258L20.379,17.625Z" style="fill:rgb(158,161,168);fill-rule:nonzero;"/>
            <path id="path1245" d="M25.879,20.444C25.879,21.393 25.773,22.067 25.562,22.466C25.351,22.865 24.997,23.065 24.5,23.065C23.978,23.065 23.611,22.85 23.397,22.421C23.186,22.001 23.08,21.255 23.08,20.183C23.08,19.227 23.185,18.551 23.394,18.154C23.605,17.755 23.962,17.555 24.466,17.555C24.916,17.555 25.25,17.709 25.468,18.018C25.612,18.225 25.716,18.518 25.781,18.899C25.846,19.251 25.879,19.766 25.879,20.444L25.879,20.444ZM25.12,20.521C25.12,19.59 25.078,18.973 24.995,18.669C24.911,18.363 24.741,18.209 24.483,18.209C24.225,18.209 24.054,18.35 23.968,18.631C23.884,18.914 23.843,19.482 23.843,20.336C23.843,21.123 23.887,21.668 23.975,21.972C24.065,22.26 24.235,22.404 24.483,22.404C24.727,22.404 24.894,22.269 24.984,22C25.075,21.733 25.12,21.24 25.12,20.521L25.12,20.521Z" style="fill:rgb(158,161,168);fill-rule:nonzero;"/>
            <path id="path1247-0" d="M26.599,17.625L27.553,17.625C28.012,17.625 28.346,17.741 28.555,17.973C28.764,18.207 28.868,18.578 28.868,19.087C28.868,19.801 28.659,20.263 28.239,20.472C28.027,20.567 27.722,20.615 27.323,20.615L27.323,22.999L26.599,22.999L26.599,17.625ZM27.323,19.995C27.622,19.995 27.829,19.935 27.943,19.814C28.059,19.691 28.117,19.473 28.117,19.16C28.117,18.839 28.061,18.605 27.95,18.457C27.838,18.308 27.663,18.234 27.424,18.234L27.323,18.234L27.323,19.995Z" style="fill:rgb(158,161,168);fill-rule:nonzero;"/>
            <path id="path1249-9" d="M30.041,24.558L29.335,24.388C29.748,23.076 29.954,21.899 29.954,20.855C29.954,19.676 29.748,18.453 29.335,17.186L30.041,17.002C30.482,18.262 30.703,19.527 30.703,20.799C30.703,22.096 30.482,23.349 30.041,24.558Z" style="fill:rgb(158,161,168);fill-rule:nonzero;"/>
        </g>
        <g id="text1226" transform="matrix(0.916671,0,0,1.0909,0,0)">
            <path id="path1253-0" d="M3.303,61.577L3.303,62.226C3.118,62.136 2.962,62.091 2.837,62.091C2.666,62.091 2.519,62.133 2.396,62.219C2.274,62.302 2.172,62.432 2.091,62.608C2.012,62.784 1.953,63.007 1.914,63.278C1.877,63.547 1.858,63.865 1.858,64.233C1.858,65.557 2.197,66.219 2.876,66.219C2.994,66.219 3.136,66.182 3.303,66.108L3.303,66.771C3.129,66.868 2.935,66.917 2.719,66.917C1.634,66.917 1.091,66.03 1.091,64.257C1.091,63.299 1.223,62.586 1.487,62.118C1.753,61.651 2.159,61.417 2.705,61.417C2.907,61.417 3.106,61.47 3.303,61.577L3.303,61.577Z" style="fill:rgb(158,161,168);fill-rule:nonzero;"/>
            <path id="path1256" d="M3.907,61.49L4.629,61.49L4.629,66.24L5.81,66.24L5.81,66.851L3.907,66.851L3.907,61.49Z" style="fill:rgb(158,161,168);fill-rule:nonzero;"/>
            <path id="path1258" d="M6.268,61.49L6.99,61.49L6.99,64.087L7.997,61.49L8.726,61.49L7.671,64.087L8.81,66.851L7.997,66.851L6.99,64.087L6.99,66.851L6.268,66.851L6.268,61.49Z" style="fill:rgb(158,161,168);fill-rule:nonzero;"/>
            <rect id="path1260" x="10.327" y="64.74" width="1.264" height="0.542" style="fill:rgb(158,161,168);fill-rule:nonzero;"/>
            <path id="path1262" d="M15.581,61.577L15.581,62.226C15.395,62.136 15.24,62.091 15.115,62.091C14.944,62.091 14.797,62.133 14.674,62.219C14.552,62.302 14.45,62.432 14.369,62.608C14.29,62.784 14.231,63.007 14.192,63.278C14.155,63.547 14.136,63.865 14.136,64.233C14.136,65.557 14.475,66.219 15.153,66.219C15.272,66.219 15.414,66.182 15.581,66.108L15.581,66.771C15.407,66.868 15.213,66.917 14.997,66.917C13.912,66.917 13.369,66.03 13.369,64.257C13.369,63.299 13.501,62.586 13.765,62.118C14.031,61.651 14.437,61.417 14.983,61.417C15.185,61.417 15.384,61.47 15.581,61.577L15.581,61.577Z" style="fill:rgb(158,161,168);fill-rule:nonzero;"/>
            <path id="path1264" d="M16.185,61.49L16.907,61.49L16.907,66.24L18.088,66.24L18.088,66.851L16.185,66.851L16.185,61.49Z" style="fill:rgb(158,161,168);fill-rule:nonzero;"/>
            <path id="path1266" d="M18.546,61.49L19.268,61.49L19.268,64.087L20.275,61.49L21.004,61.49L19.949,64.087L21.088,66.851L20.275,66.851L19.268,64.087L19.268,66.851L18.546,66.851L18.546,61.49Z" style="fill:rgb(158,161,168);fill-rule:nonzero;"/>
            <path id="path1268" d="M25.702,64.302C25.702,65.249 25.597,65.922 25.386,66.32C25.176,66.718 24.823,66.917 24.327,66.917C23.806,66.917 23.439,66.703 23.226,66.275C23.016,65.856 22.91,65.111 22.91,64.042C22.91,63.088 23.015,62.414 23.223,62.018C23.434,61.62 23.79,61.42 24.292,61.42C24.741,61.42 25.075,61.574 25.292,61.882C25.436,62.088 25.54,62.381 25.605,62.761C25.67,63.113 25.702,63.626 25.702,64.302L25.702,64.302ZM24.945,64.379C24.945,63.451 24.904,62.835 24.82,62.532C24.737,62.226 24.567,62.073 24.31,62.073C24.053,62.073 23.882,62.213 23.796,62.493C23.713,62.776 23.671,63.343 23.671,64.195C23.671,64.979 23.715,65.523 23.803,65.827C23.893,66.114 24.062,66.257 24.31,66.257C24.553,66.257 24.72,66.123 24.81,65.854C24.9,65.588 24.945,65.096 24.945,64.379L24.945,64.379Z" style="fill:rgb(158,161,168);fill-rule:nonzero;"/>
            <path id="path1270-0" d="M26.421,61.49L27.129,61.49L27.129,65.278C27.129,65.665 27.164,65.922 27.233,66.049C27.305,66.176 27.446,66.24 27.657,66.24C27.868,66.24 28.007,66.184 28.074,66.073C28.143,65.96 28.178,65.729 28.178,65.382L28.178,61.49L28.886,61.49L28.886,65.382C28.886,65.966 28.797,66.36 28.619,66.566C28.406,66.8 28.081,66.917 27.643,66.917C27.162,66.917 26.823,66.767 26.626,66.466C26.489,66.26 26.421,65.864 26.421,65.278L26.421,61.49Z" style="fill:rgb(158,161,168);fill-rule:nonzero;"/>
            <path id="path1272-3" d="M29.285,61.49L31.636,61.49L31.636,62.122L30.827,62.122L30.827,66.851L30.119,66.851L30.119,62.122L29.285,62.122L29.285,61.49Z" style="fill:rgb(158,161,168);fill-rule:nonzero;"/>
        </g>
        <g id="text1277-0" transform="matrix(0.930308,0,0,1.07491,0,-2.33668e-05)">
            <path id="path1279-1" d="M3.32,84.82L3.32,85.479C3.132,85.387 2.974,85.342 2.847,85.342C2.674,85.342 2.524,85.385 2.4,85.472C2.275,85.557 2.172,85.688 2.09,85.867C2.01,86.045 1.95,86.272 1.91,86.547C1.872,86.819 1.854,87.142 1.854,87.516C1.854,88.86 2.198,89.532 2.886,89.532C3.006,89.532 3.15,89.494 3.32,89.419L3.32,90.092C3.143,90.191 2.946,90.24 2.728,90.24C1.626,90.24 1.075,89.34 1.075,87.541C1.075,86.568 1.209,85.844 1.477,85.37C1.747,84.895 2.159,84.658 2.714,84.658C2.918,84.658 3.12,84.712 3.32,84.82L3.32,84.82Z" style="fill:rgb(158,161,168);fill-rule:nonzero;"/>
            <path id="path1281-9" d="M3.933,84.732L4.666,84.732L4.666,89.553L5.864,89.553L5.864,90.173L3.933,90.173L3.933,84.732Z" style="fill:rgb(158,161,168);fill-rule:nonzero;"/>
            <path id="path1283-8" d="M6.329,84.732L7.062,84.732L7.062,87.368L8.084,84.732L8.824,84.732L7.753,87.368L8.909,90.173L8.084,90.173L7.062,87.368L7.062,90.173L6.329,90.173L6.329,84.732Z" style="fill:rgb(158,161,168);fill-rule:nonzero;"/>
            <rect id="path1285-6" x="10.868" y="84.732" width="0.733" height="5.441" style="fill:rgb(158,161,168);fill-rule:nonzero;"/>
            <path id="path1287-9" d="M12.447,84.732L13.13,84.732L13.86,86.903C14.071,87.516 14.258,88.17 14.42,88.866C14.361,88.445 14.318,88.064 14.29,87.724C14.261,87.383 14.247,87.062 14.247,86.762L14.247,84.732L14.984,84.732L14.984,90.173L14.297,90.173L13.475,87.724C13.4,87.496 13.329,87.262 13.261,87.023C13.195,86.783 13.134,86.532 13.077,86.268C13.073,86.236 13.064,86.196 13.053,86.149C13.043,86.102 13.031,86.048 13.017,85.987C13.024,86.048 13.03,86.1 13.035,86.145C13.04,86.187 13.043,86.224 13.046,86.254L13.084,86.808L13.123,87.481C13.125,87.518 13.127,87.564 13.127,87.618C13.129,87.672 13.13,87.733 13.13,87.801L13.169,90.173L12.447,90.173L12.447,84.732Z" style="fill:rgb(158,161,168);fill-rule:nonzero;"/>
            <rect id="path1289-0" x="16.904" y="88.03" width="1.283" height="0.55" style="fill:rgb(158,161,168);fill-rule:nonzero;"/>
            <path id="path1291-1" d="M21.915,84.845L21.915,85.56C21.692,85.4 21.491,85.32 21.313,85.32C21.12,85.32 20.963,85.389 20.84,85.525C20.718,85.654 20.657,85.827 20.657,86.043C20.657,86.233 20.701,86.396 20.788,86.533C20.832,86.606 20.905,86.7 21.006,86.815C21.109,86.93 21.242,87.068 21.404,87.23C21.703,87.534 21.906,87.795 22.014,88.016C22.122,88.23 22.176,88.492 22.176,88.802C22.176,89.223 22.057,89.569 21.82,89.842C21.583,90.107 21.279,90.24 20.907,90.24C20.595,90.24 20.328,90.154 20.107,89.983L20.107,89.257C20.368,89.447 20.605,89.542 20.819,89.542C21.019,89.542 21.175,89.476 21.288,89.345C21.401,89.211 21.457,89.03 21.457,88.802C21.457,88.605 21.414,88.427 21.327,88.27C21.282,88.195 21.22,88.109 21.14,88.013C21.06,87.914 20.96,87.805 20.84,87.685C20.655,87.502 20.501,87.34 20.379,87.199C20.257,87.058 20.166,86.934 20.107,86.829C19.995,86.622 19.938,86.361 19.938,86.046C19.938,85.621 20.049,85.284 20.27,85.035C20.493,84.784 20.792,84.658 21.168,84.658C21.429,84.658 21.678,84.72 21.915,84.845L21.915,84.845Z" style="fill:rgb(158,161,168);fill-rule:nonzero;"/>
            <path id="path1293-6" d="M22.43,84.732L23.205,84.732L23.564,85.916C23.576,85.951 23.588,85.99 23.6,86.032C23.611,86.075 23.625,86.12 23.642,86.17C23.776,86.597 23.867,86.957 23.917,87.248C23.959,86.957 23.994,86.754 24.022,86.638L24.135,86.152L24.178,85.962L24.481,84.732L25.245,84.732L24.297,87.833L24.297,90.173L23.564,90.173L23.564,87.833L22.43,84.732Z" style="fill:rgb(158,161,168);fill-rule:nonzero;"/>
            <path id="path1295-4" d="M25.654,84.732L26.338,84.732L27.067,86.903C27.279,87.516 27.465,88.17 27.627,88.866C27.569,88.445 27.525,88.064 27.497,87.724C27.469,87.383 27.455,87.062 27.455,86.762L27.455,84.732L28.191,84.732L28.191,90.173L27.504,90.173L26.683,87.724C26.608,87.496 26.536,87.262 26.468,87.023C26.402,86.783 26.341,86.532 26.285,86.268C26.28,86.236 26.272,86.196 26.26,86.149C26.251,86.102 26.239,86.048 26.225,85.987C26.232,86.048 26.238,86.1 26.243,86.145C26.247,86.187 26.251,86.224 26.253,86.254L26.292,86.808L26.331,87.481C26.333,87.518 26.334,87.564 26.334,87.618C26.337,87.672 26.338,87.733 26.338,87.801L26.376,90.173L25.654,90.173L25.654,84.732Z" style="fill:rgb(158,161,168);fill-rule:nonzero;"/>
            <path id="path1297-4" d="M31.172,84.82L31.172,85.479C30.985,85.387 30.827,85.342 30.7,85.342C30.526,85.342 30.377,85.385 30.253,85.472C30.128,85.557 30.025,85.688 29.943,85.867C29.863,86.045 29.803,86.272 29.763,86.547C29.725,86.819 29.707,87.142 29.707,87.516C29.707,88.86 30.051,89.532 30.739,89.532C30.859,89.532 31.003,89.494 31.172,89.419L31.172,90.092C30.996,90.191 30.799,90.24 30.58,90.24C29.479,90.24 28.928,89.34 28.928,87.541C28.928,86.568 29.062,85.844 29.329,85.37C29.6,84.895 30.012,84.658 30.566,84.658C30.771,84.658 30.973,84.712 31.172,84.82L31.172,84.82Z" style="fill:rgb(158,161,168);fill-rule:nonzero;"/>
        </g>
    </g>
</svg>
