<?xml version="1.0" encoding="UTF-8" standalone="no"?>
<!DOCTYPE svg PUBLIC "-//W3C//DTD SVG 1.1//EN" "http://www.w3.org/Graphics/SVG/1.1/DTD/svg11.dtd">
<svg width="100%" height="100%" viewBox="0 0 105 380" version="1.1" xmlns="http://www.w3.org/2000/svg" xmlns:xlink="http://www.w3.org/1999/xlink" xml:space="preserve" xmlns:serif="http://www.serif.com/" style="fill-rule:evenodd;clip-rule:evenodd;stroke-linejoin:round;stroke-miterlimit:2;">
    <g id="Layer-2" serif:id="Layer 2">
        <g id="text989">
        </g>
        <rect id="rect4689" x="0" y="0" width="105" height="380" style="fill:rgb(44,45,48);fill-rule:nonzero;"/>
        <g id="text4987">
        </g>
        <g id="text1042">
        </g>
        <g id="text2090">
        </g>
        <g id="text80" transform="matrix(1.00498,0,0,0.995044,7.49999,8.00126)">
            <path id="path4726" d="M29.851,371.706L29.851,363.943L31.853,363.943L32.903,366.668C32.96,366.829 33.024,367.013 33.094,367.221C33.168,367.429 33.249,367.668 33.336,367.94L33.552,368.624C33.475,367.95 33.416,367.373 33.376,366.894C33.336,366.415 33.316,366.013 33.316,365.687L33.316,363.943L35.317,363.943L35.317,371.706L33.316,371.706L32.26,368.85C32.149,368.545 32.049,368.26 31.958,367.995C31.871,367.727 31.794,367.472 31.727,367.231C31.77,367.777 31.802,368.253 31.822,368.659C31.843,369.065 31.853,369.42 31.853,369.725L31.853,371.706L29.851,371.706Z" style="fill:rgb(158,161,168);fill-rule:nonzero;"/>
            <path id="path4728" d="M39.887,371.706L37.791,371.706L37.791,368.418L35.865,363.943L38.052,363.943L38.429,365.094C38.503,365.319 38.568,365.535 38.625,365.743C38.686,365.951 38.739,366.15 38.786,366.341C38.863,366.056 38.93,365.811 38.987,365.607C39.044,365.399 39.095,365.232 39.138,365.104L39.52,363.943L41.692,363.943L39.887,368.418L39.887,371.706Z" style="fill:rgb(158,161,168);fill-rule:nonzero;"/>
            <path id="path4730" d="M41.894,371.515L41.894,369.076C42.306,369.639 42.752,369.921 43.231,369.921C43.412,369.921 43.56,369.874 43.673,369.78C43.787,369.683 43.844,369.562 43.844,369.418C43.844,369.21 43.72,369.008 43.472,368.81L43.13,368.543C42.902,368.372 42.708,368.203 42.547,368.035C42.386,367.865 42.256,367.69 42.155,367.513C42.054,367.332 41.981,367.146 41.934,366.954C41.887,366.763 41.863,366.562 41.863,366.351C41.863,365.989 41.947,365.61 42.115,365.215C42.199,365.03 42.296,364.863 42.406,364.712C42.517,364.558 42.644,364.422 42.789,364.305C43.184,363.969 43.662,363.802 44.222,363.802C44.721,363.802 45.224,363.934 45.73,364.199L45.73,366.572C45.559,366.308 45.365,366.1 45.147,365.949C44.929,365.795 44.714,365.718 44.503,365.718C44.342,365.718 44.21,365.765 44.106,365.858C43.999,365.949 43.945,366.058 43.945,366.185C43.945,366.393 44.087,366.599 44.372,366.804L44.704,367.05C45.147,367.368 45.463,367.695 45.655,368.03C45.849,368.366 45.946,368.758 45.946,369.207C45.946,369.971 45.713,370.601 45.247,371.098C44.781,371.594 44.191,371.842 43.477,371.842C42.985,371.842 42.457,371.733 41.894,371.515L41.894,371.515Z" style="fill:rgb(158,161,168);fill-rule:nonzero;"/>
            <path id="path4732" d="M49.576,371.706L47.48,371.706L47.48,365.803L46.323,365.803L46.323,363.943L50.778,363.943L50.778,365.803L49.576,365.803L49.576,371.706Z" style="fill:rgb(158,161,168);fill-rule:nonzero;"/>
            <path id="path4734" d="M56.525,371.706L54.428,371.706L54.428,368.584L53.428,368.584L53.428,371.706L51.331,371.706L51.331,363.943L53.428,363.943L53.428,366.688L54.428,366.688L54.428,363.943L56.525,363.943L56.525,371.706Z" style="fill:rgb(158,161,168);fill-rule:nonzero;"/>
            <rect id="path4736" x="57.606" y="363.943" width="2.097" height="7.763" style="fill:rgb(158,161,168);fill-rule:nonzero;"/>
        </g>
        <g id="g1118" transform="matrix(1,0,0,1,0.688809,33)">
            <path id="rect1061" d="M101.811,26.376C101.811,23.409 99.402,21 96.435,21L7.188,21C4.22,21 1.811,23.409 1.811,26.376L1.811,41.624C1.811,44.591 4.22,47 7.188,47L96.435,47C99.402,47 101.811,44.591 101.811,41.624L101.811,26.376Z" style="fill:rgb(158,161,168);"/>
            <g id="text994-3" transform="matrix(1.07527,0,0,1,-4.64042,-36.1718)">
                <path id="path996-3" d="M42.651,65.802L40.557,65.802L40.557,60.172L42.651,60.172L42.651,65.802ZM42.828,58.427C42.828,58.757 42.708,59.042 42.469,59.281C42.222,59.517 41.936,59.635 41.609,59.635C41.273,59.635 40.984,59.516 40.745,59.276C40.509,59.029 40.391,58.741 40.391,58.411C40.391,58.075 40.509,57.788 40.745,57.552C40.991,57.316 41.278,57.198 41.604,57.198C41.948,57.198 42.238,57.318 42.474,57.557C42.71,57.793 42.828,58.083 42.828,58.427L42.828,58.427Z" style="fill:rgb(44,45,48);fill-rule:nonzero;"/>
                <path id="path998-8" d="M48.578,65.802L46.49,65.802L46.49,62.823C46.49,62.566 46.464,62.387 46.411,62.286C46.363,62.186 46.276,62.135 46.151,62.135C45.859,62.135 45.714,62.411 45.714,62.963L45.714,65.802L43.625,65.802L43.625,60.172L45.714,60.172C45.71,60.311 45.706,60.439 45.703,60.557C45.699,60.675 45.694,60.785 45.687,60.885L45.667,61.245C46.003,60.45 46.497,60.052 47.146,60.052C47.597,60.052 47.948,60.22 48.198,60.557C48.451,60.894 48.578,61.363 48.578,61.963L48.578,65.802Z" style="fill:rgb(44,45,48);fill-rule:nonzero;"/>
                <path id="path1000" d="M51.63,68.312L49.542,68.312L49.542,60.172L51.63,60.172L51.583,60.969C51.67,60.802 51.759,60.661 51.849,60.547C51.939,60.429 52.036,60.333 52.141,60.26C52.245,60.187 52.356,60.135 52.474,60.104C52.596,60.069 52.729,60.052 52.875,60.052C53.417,60.052 53.858,60.323 54.198,60.864C54.535,61.399 54.703,62.109 54.703,62.995C54.703,63.894 54.542,64.606 54.219,65.13C53.903,65.654 53.467,65.917 52.911,65.917C52.405,65.917 51.962,65.623 51.583,65.036C51.601,65.213 51.611,65.366 51.615,65.495C51.625,65.627 51.63,65.785 51.63,65.969L51.63,68.312ZM52.542,62.932C52.542,62.564 52.498,62.279 52.411,62.078C52.328,61.873 52.208,61.771 52.052,61.771C51.729,61.771 51.568,62.165 51.568,62.953C51.568,63.759 51.724,64.161 52.036,64.161C52.193,64.161 52.316,64.054 52.406,63.838C52.497,63.623 52.542,63.321 52.542,62.932L52.542,62.932Z" style="fill:rgb(44,45,48);fill-rule:nonzero;"/>
                <path id="path1002" d="M55.521,60.172L57.609,60.172L57.609,63.344C57.609,63.646 57.639,63.866 57.698,64.005C57.76,64.12 57.879,64.177 58.052,64.177C58.222,64.177 58.337,64.12 58.396,64.005C58.458,63.891 58.49,63.67 58.49,63.344L58.49,60.172L60.578,60.172L60.578,63.625C60.578,63.854 60.559,64.062 60.521,64.25C60.486,64.434 60.429,64.602 60.349,64.755C60.273,64.904 60.172,65.042 60.047,65.167C59.925,65.292 59.779,65.406 59.609,65.51C59.151,65.781 58.632,65.917 58.052,65.917C57.465,65.917 56.946,65.781 56.495,65.51C56.321,65.406 56.172,65.293 56.047,65.172C55.925,65.047 55.825,64.908 55.745,64.755C55.668,64.602 55.611,64.434 55.573,64.25C55.538,64.062 55.521,63.854 55.521,63.625L55.521,60.172Z" style="fill:rgb(44,45,48);fill-rule:nonzero;"/>
                <path id="path1004-5" d="M63.917,65.802L61.823,65.802L61.823,61.854L61.229,61.854L61.229,60.172L61.823,60.172L61.823,58.515L63.917,58.515L63.917,60.172L64.609,60.172L64.609,61.854L63.917,61.854L63.917,65.802Z" style="fill:rgb(44,45,48);fill-rule:nonzero;"/>
            </g>
            <g id="path1352" transform="matrix(1.07527,0,0,1,-4.64042,-9.97395)">
                <path d="M39.802,50L36,50L36,41.958L38.172,41.958L38.172,48.068L39.802,48.068L39.802,50Z" style="fill:rgb(44,45,48);fill-rule:nonzero;"/>
            </g>
            <g id="path1349" transform="matrix(1.07529,0,0,0.999978,-10.0166,-9.97395)">
                <path d="M74.717,50.001L72.368,50.001L71.295,47.136C71.285,47.088 71.266,47.024 71.238,46.944C71.214,46.864 71.183,46.768 71.144,46.657L71.16,47.189L71.16,50.001L68.998,50.001L68.998,41.959L71.222,41.959C72.202,41.959 72.934,42.152 73.42,42.537C74.038,43.03 74.347,43.732 74.347,44.642C74.347,45.614 73.932,46.286 73.103,46.657L74.717,50.001ZM71.17,45.683L71.316,45.683C71.566,45.683 71.775,45.588 71.941,45.397C72.108,45.206 72.191,44.963 72.191,44.668C72.191,44.067 71.877,43.767 71.249,43.767L71.17,43.767L71.17,45.683Z" style="fill:rgb(44,45,48);fill-rule:nonzero;"/>
            </g>
        </g>
        <g id="text1126" transform="matrix(1.01458,0,0,0.985629,7.5,60)">
            <path id="path1141" d="M8.515,51.024L8.515,52.221C8.174,52.055 7.888,51.972 7.657,51.972C7.341,51.972 7.07,52.051 6.844,52.209C6.617,52.362 6.429,52.602 6.28,52.926C6.135,53.251 6.026,53.663 5.953,54.162C5.885,54.658 5.851,55.245 5.851,55.924C5.851,58.366 6.476,59.587 7.728,59.587C7.945,59.587 8.208,59.519 8.515,59.382L8.515,60.606C8.195,60.785 7.836,60.875 7.439,60.875C5.437,60.875 4.435,59.239 4.435,55.969C4.435,54.201 4.679,52.885 5.166,52.023C5.657,51.16 6.406,50.729 7.414,50.729C7.785,50.729 8.152,50.827 8.515,51.024L8.515,51.024Z" style="fill:rgb(158,161,168);fill-rule:nonzero;"/>
            <path id="path1143" d="M8.842,50.864L10.155,50.864L10.751,54.514L10.853,55.174L11.065,56.609C11.099,56.852 11.129,57.074 11.154,57.275C11.184,57.476 11.21,57.657 11.231,57.82L11.295,58.306C11.308,58.208 11.319,58.121 11.327,58.044C11.336,57.967 11.344,57.903 11.353,57.852L11.526,56.705L11.75,55.2C11.771,55.063 11.791,54.937 11.808,54.822C11.829,54.707 11.848,54.604 11.865,54.514L12.506,50.864L13.748,50.864L11.808,60.753L10.751,60.753L8.842,50.864Z" style="fill:rgb(158,161,168);fill-rule:nonzero;"/>
        </g>
        <g id="text1715" transform="matrix(0.915067,0,0,1.09282,0,-44)">
            <path id="path1749" d="M44.259,309.615L45.321,309.615C45.645,309.615 45.917,309.651 46.138,309.723C46.343,309.792 46.526,309.915 46.686,310.092C46.927,310.358 47.098,310.703 47.2,311.129C47.303,311.541 47.354,312.132 47.354,312.901C47.354,313.606 47.297,314.181 47.184,314.627C47.073,315.053 46.891,315.378 46.636,315.602C46.324,315.881 45.764,316.021 44.956,316.021L44.259,316.021L44.259,309.615ZM45.122,315.266C45.647,315.266 45.999,315.107 46.176,314.788C46.358,314.47 46.45,313.852 46.45,312.934C46.45,311.947 46.362,311.268 46.188,310.897C46.014,310.526 45.694,310.341 45.23,310.341L45.122,310.341L45.122,315.266Z" style="fill:rgb(158,161,168);fill-rule:nonzero;"/>
            <path id="path1751" d="M48.209,309.615L49.345,309.615C49.815,309.615 50.165,309.727 50.395,309.951C50.685,310.242 50.83,310.685 50.83,311.283C50.83,311.742 50.753,312.111 50.598,312.391C50.446,312.667 50.228,312.839 49.943,312.905L51.121,316.021L50.245,316.021L49.071,312.884L49.071,316.021L48.209,316.021L48.209,309.615ZM49.071,312.453C49.406,312.453 49.643,312.375 49.781,312.22C49.919,312.066 49.988,311.804 49.988,311.436C49.988,311.237 49.973,311.067 49.943,310.926C49.915,310.785 49.869,310.67 49.806,310.582C49.745,310.493 49.665,310.428 49.565,310.387C49.468,310.345 49.352,310.325 49.217,310.325L49.071,310.325L49.071,312.453Z" style="fill:rgb(158,161,168);fill-rule:nonzero;"/>
            <path id="path1753" d="M51.233,309.615L52.146,309.615L52.569,311.009C52.583,311.051 52.596,311.096 52.61,311.146C52.624,311.196 52.641,311.25 52.66,311.308C52.818,311.811 52.926,312.234 52.984,312.577C53.033,312.234 53.075,311.995 53.108,311.86L53.241,311.287L53.291,311.063L53.647,309.615L54.548,309.615L53.432,313.266L53.432,316.021L52.569,316.021L52.569,313.266L51.233,309.615Z" style="fill:rgb(158,161,168);fill-rule:nonzero;"/>
            <rect id="path1755" x="56.294" y="313.498" width="1.51" height="0.647" style="fill:rgb(158,161,168);fill-rule:nonzero;"/>
            <path id="path1757" d="M59.576,309.615L60.41,309.615L60.845,312.59L60.916,313.029C60.949,313.267 60.974,313.484 60.99,313.681L61.036,314.224C61.039,314.238 61.042,314.263 61.044,314.299C61.047,314.335 61.051,314.381 61.057,314.436L61.078,314.228C61.111,313.866 61.145,313.533 61.181,313.229C61.22,312.924 61.262,312.644 61.306,312.386L61.766,309.615L62.43,309.615L62.862,312.308C62.925,312.706 62.978,313.075 63.019,313.415C63.063,313.755 63.099,314.08 63.127,314.39C63.155,314.064 63.185,313.749 63.218,313.444C63.254,313.14 63.292,312.841 63.33,312.548L63.393,312.121L63.762,309.615L64.587,309.615L63.455,316.021L62.783,316.021L62.331,313.253C62.328,313.242 62.321,313.197 62.31,313.117C62.299,313.036 62.282,312.922 62.26,312.772L62.173,312.133C62.167,312.084 62.158,312.009 62.144,311.909C62.133,311.81 62.12,311.684 62.106,311.532L62.086,311.266C62.08,311.33 62.074,311.385 62.069,311.432C62.063,311.479 62.059,311.518 62.056,311.548C62.043,311.731 62.03,311.873 62.019,311.976C62.011,312.075 62.005,312.136 62.002,312.158L61.915,312.772C61.896,312.913 61.881,313.024 61.87,313.104C61.859,313.184 61.85,313.234 61.845,313.253L61.376,316.021L60.683,316.021L59.576,309.615Z" style="fill:rgb(158,161,168);fill-rule:nonzero;"/>
            <path id="path1759" d="M65.102,309.615L67.396,309.615L67.396,310.345L65.965,310.345L65.965,312.374L67.234,312.374L67.234,313.104L65.965,313.104L65.965,315.29L67.396,315.29L67.396,316.021L65.102,316.021L65.102,309.615Z" style="fill:rgb(158,161,168);fill-rule:nonzero;"/>
            <path id="path1761" d="M67.678,309.615L70.487,309.615L70.487,310.37L69.52,310.37L69.52,316.021L68.674,316.021L68.674,310.37L67.678,310.37L67.678,309.615Z" style="fill:rgb(158,161,168);fill-rule:nonzero;"/>
        </g>
        <g id="g4922" transform="matrix(0.941176,0,0,0.857135,-2.64706,55.2881)">
            <rect id="rect4778" x="6" y="310" width="34" height="42" style="fill:rgb(60,60,60);"/>
            <g id="text4861">
                <path id="path4899" d="M16.849,345.271C16.849,346.139 16.609,346.83 16.13,347.344C15.651,347.858 15.009,348.115 14.203,348.115C13.411,348.115 12.781,347.852 12.313,347.328C11.847,346.8 11.615,346.092 11.615,345.203C11.615,344.314 11.852,343.601 12.328,343.062C12.8,342.521 13.427,342.25 14.208,342.25C15.031,342.25 15.677,342.519 16.146,343.057C16.615,343.595 16.849,344.333 16.849,345.271ZM14.823,345.203C14.823,344.995 14.809,344.807 14.781,344.641C14.753,344.47 14.714,344.326 14.661,344.208C14.609,344.087 14.547,343.993 14.474,343.927C14.401,343.861 14.319,343.828 14.229,343.828C14.052,343.828 13.91,343.953 13.802,344.203C13.694,344.422 13.641,344.75 13.641,345.188C13.641,345.618 13.694,345.946 13.802,346.172C13.91,346.422 14.054,346.547 14.234,346.547C14.405,346.547 14.545,346.424 14.656,346.177C14.767,345.903 14.823,345.578 14.823,345.203L14.823,345.203Z" style="fill:rgb(197,200,209);fill-rule:nonzero;"/>
                <path id="path4901" d="M17.651,342.37L19.74,342.37L19.74,345.542C19.74,345.844 19.769,346.064 19.828,346.203C19.891,346.318 20.009,346.375 20.182,346.375C20.352,346.375 20.467,346.318 20.526,346.203C20.589,346.089 20.62,345.868 20.62,345.542L20.62,342.37L22.708,342.37L22.708,345.823C22.708,346.052 22.689,346.26 22.651,346.448C22.616,346.632 22.559,346.8 22.479,346.953C22.403,347.102 22.302,347.24 22.177,347.365C22.056,347.49 21.91,347.604 21.74,347.708C21.281,347.979 20.762,348.115 20.182,348.115C19.595,348.115 19.076,347.979 18.625,347.708C18.451,347.604 18.302,347.491 18.177,347.37C18.056,347.245 17.955,347.106 17.875,346.953C17.799,346.8 17.741,346.632 17.703,346.448C17.668,346.26 17.651,346.052 17.651,345.823L17.651,342.37Z" style="fill:rgb(197,200,209);fill-rule:nonzero;"/>
                <path id="path4903" d="M26.047,348L23.953,348L23.953,344.052L23.359,344.052L23.359,342.37L23.953,342.37L23.953,340.714L26.047,340.714L26.047,342.37L26.74,342.37L26.74,344.052L26.047,344.052L26.047,348Z" style="fill:rgb(197,200,209);fill-rule:nonzero;"/>
                <path id="path4905" d="M34.385,348L30.583,348L30.583,339.958L32.755,339.958L32.755,346.068L34.385,346.068L34.385,348Z" style="fill:rgb(197,200,209);fill-rule:nonzero;"/>
            </g>
        </g>
        <g id="g4914" transform="matrix(0.941176,0,0,0.857135,23.9412,55.2879)">
            <rect id="rect4778-3-8" x="50" y="310" width="34" height="42" style="fill:rgb(60,60,60);"/>
            <g id="text4886">
                <path id="path4890" d="M59.891,345.271C59.891,346.139 59.651,346.83 59.172,347.344C58.693,347.858 58.05,348.115 57.245,348.115C56.453,348.115 55.823,347.852 55.354,347.328C54.889,346.8 54.656,346.092 54.656,345.203C54.656,344.314 54.894,343.601 55.37,343.062C55.842,342.521 56.469,342.25 57.25,342.25C58.073,342.25 58.719,342.519 59.187,343.057C59.656,343.595 59.891,344.333 59.891,345.271ZM57.865,345.203C57.865,344.995 57.851,344.807 57.823,344.641C57.795,344.47 57.755,344.326 57.703,344.208C57.651,344.087 57.589,343.993 57.516,343.927C57.443,343.861 57.361,343.828 57.271,343.828C57.094,343.828 56.951,343.953 56.844,344.203C56.736,344.422 56.682,344.75 56.682,345.187C56.682,345.618 56.736,345.946 56.844,346.172C56.951,346.422 57.095,346.547 57.276,346.547C57.446,346.547 57.587,346.424 57.698,346.177C57.809,345.903 57.865,345.578 57.865,345.203L57.865,345.203Z" style="fill:rgb(197,200,209);fill-rule:nonzero;"/>
                <path id="path4892" d="M60.693,342.37L62.781,342.37L62.781,345.542C62.781,345.844 62.811,346.064 62.87,346.203C62.932,346.318 63.05,346.375 63.224,346.375C63.394,346.375 63.509,346.318 63.568,346.203C63.63,346.089 63.662,345.868 63.662,345.542L63.662,342.37L65.75,342.37L65.75,345.823C65.75,346.052 65.731,346.26 65.693,346.448C65.658,346.632 65.601,346.8 65.521,346.953C65.444,347.102 65.344,347.24 65.219,347.365C65.097,347.49 64.951,347.604 64.781,347.708C64.323,347.979 63.804,348.115 63.224,348.115C62.637,348.115 62.118,347.979 61.667,347.708C61.493,347.604 61.344,347.491 61.219,347.37C61.097,347.245 60.997,347.106 60.917,346.953C60.84,346.8 60.783,346.632 60.745,346.448C60.71,346.26 60.693,346.052 60.693,345.823L60.693,342.37Z" style="fill:rgb(197,200,209);fill-rule:nonzero;"/>
                <path id="path4894" d="M69.089,348L66.995,348L66.995,344.052L66.401,344.052L66.401,342.37L66.995,342.37L66.995,340.714L69.089,340.714L69.089,342.37L69.781,342.37L69.781,344.052L69.089,344.052L69.089,348Z" style="fill:rgb(197,200,209);fill-rule:nonzero;"/>
                <path id="path4896" d="M79.344,348L76.995,348L75.922,345.135C75.912,345.087 75.892,345.023 75.865,344.943C75.84,344.863 75.809,344.767 75.771,344.656L75.786,345.187L75.786,348L73.625,348L73.625,339.958L75.849,339.958C76.828,339.958 77.561,340.151 78.047,340.536C78.665,341.029 78.974,341.731 78.974,342.641C78.974,343.613 78.559,344.285 77.729,344.656L79.344,348ZM75.797,343.682L75.943,343.682C76.193,343.682 76.401,343.587 76.568,343.396C76.734,343.205 76.818,342.962 76.818,342.667C76.818,342.066 76.503,341.766 75.875,341.766L75.797,341.766L75.797,343.682Z" style="fill:rgb(197,200,209);fill-rule:nonzero;"/>
            </g>
        </g>
        <g id="text1263" transform="matrix(0.882228,0,0,1.13349,0,0)">
            <path id="path1304" d="M14.624,15.432L14.624,12.089C15.189,12.861 15.8,13.247 16.457,13.247C16.706,13.247 16.908,13.183 17.064,13.054C17.22,12.921 17.298,12.756 17.298,12.558C17.298,12.273 17.128,11.995 16.788,11.724L16.32,11.359C16.007,11.124 15.741,10.892 15.52,10.663C15.299,10.428 15.12,10.189 14.982,9.946C14.845,9.698 14.743,9.443 14.679,9.181C14.615,8.919 14.583,8.643 14.583,8.354C14.583,7.857 14.698,7.338 14.927,6.796C15.042,6.543 15.175,6.313 15.327,6.107C15.479,5.895 15.653,5.709 15.851,5.548C16.393,5.089 17.048,4.859 17.815,4.859C18.5,4.859 19.189,5.041 19.883,5.404L19.883,8.657C19.649,8.294 19.382,8.009 19.083,7.802C18.785,7.591 18.491,7.485 18.201,7.485C17.981,7.485 17.799,7.549 17.657,7.678C17.51,7.802 17.436,7.952 17.436,8.126C17.436,8.411 17.631,8.694 18.022,8.974L18.477,9.312C19.083,9.748 19.518,10.196 19.78,10.656C20.046,11.115 20.179,11.653 20.179,12.268C20.179,13.316 19.86,14.18 19.221,14.86C18.583,15.54 17.774,15.88 16.795,15.88C16.12,15.88 15.396,15.731 14.624,15.432Z" style="fill:rgb(158,161,168);fill-rule:nonzero;"/>
            <path id="path1306" d="M25.156,15.694L22.281,15.694L22.281,7.602L20.696,7.602L20.696,5.052L26.803,5.052L26.803,7.602L25.156,7.602L25.156,15.694Z" style="fill:rgb(158,161,168);fill-rule:nonzero;"/>
            <path id="path1308" d="M35.37,15.694L32.269,15.694L30.359,10.787L30.435,15.694L27.561,15.694L27.561,5.052L30.435,5.052L30.359,9.615L32.055,5.052L35.088,5.052L32.792,10.187L35.37,15.694Z" style="fill:rgb(158,161,168);fill-rule:nonzero;"/>
            <path id="path1310" d="M38.522,15.694L36.079,15.694L36.079,6.647L38.446,6.647C39.626,6.647 40.501,6.887 41.071,7.368C41.743,7.934 42.079,8.721 42.079,9.729C42.079,10.827 41.721,11.645 41.007,12.184C40.518,12.548 39.817,12.729 38.903,12.729L38.522,12.729L38.522,15.694ZM38.522,10.696L38.633,10.702C38.93,10.702 39.167,10.612 39.342,10.432C39.518,10.249 39.606,9.999 39.606,9.682C39.606,9.37 39.52,9.116 39.348,8.921C39.176,8.721 38.958,8.622 38.692,8.622L38.522,8.622L38.522,10.696Z" style="fill:rgb(158,161,168);fill-rule:nonzero;"/>
            <rect id="path1312" x="42.946" y="6.647" width="2.443" height="9.047" style="fill:rgb(158,161,168);fill-rule:nonzero;"/>
            <path id="path1315" d="M49.807,15.694L47.364,15.694L47.364,8.815L46.016,8.815L46.016,6.647L51.208,6.647L51.208,8.815L49.807,8.815L49.807,15.694Z" style="fill:rgb(158,161,168);fill-rule:nonzero;"/>
            <path id="path1318" d="M56.962,12.911L56.821,15.524C56.278,15.743 55.792,15.852 55.362,15.852C54.35,15.852 53.499,15.481 52.807,14.739C52.034,13.907 51.647,12.729 51.647,11.206C51.647,9.78 52.01,8.635 52.737,7.772C53.464,6.913 54.434,6.483 55.649,6.483C56.044,6.483 56.446,6.557 56.856,6.706L56.856,9.29C56.493,8.926 56.12,8.745 55.737,8.745C55.237,8.745 54.846,8.958 54.565,9.383C54.284,9.813 54.143,10.407 54.143,11.165C54.143,11.532 54.178,11.86 54.249,12.149C54.319,12.438 54.419,12.682 54.548,12.882C54.68,13.081 54.842,13.233 55.034,13.339C55.225,13.444 55.444,13.497 55.69,13.497C56.112,13.497 56.536,13.301 56.962,12.911L56.962,12.911Z" style="fill:rgb(158,161,168);fill-rule:nonzero;"/>
            <path id="path1320" d="M64.186,15.694L61.743,15.694L61.743,12.055L60.577,12.055L60.577,15.694L58.133,15.694L58.133,6.647L60.577,6.647L60.577,9.846L61.743,9.846L61.743,6.647L64.186,6.647L64.186,15.694Z" style="fill:rgb(158,161,168);fill-rule:nonzero;"/>
            <path id="path1322" d="M65.253,15.471L65.253,12.63C65.733,13.286 66.253,13.614 66.811,13.614C67.022,13.614 67.194,13.559 67.327,13.45C67.46,13.337 67.526,13.196 67.526,13.028C67.526,12.786 67.382,12.549 67.092,12.319L66.694,12.008C66.428,11.809 66.202,11.612 66.014,11.417C65.827,11.217 65.674,11.014 65.557,10.807C65.44,10.596 65.354,10.38 65.299,10.157C65.245,9.934 65.217,9.7 65.217,9.454C65.217,9.032 65.315,8.59 65.51,8.13C65.608,7.915 65.721,7.719 65.85,7.544C65.979,7.364 66.128,7.206 66.296,7.069C66.757,6.678 67.313,6.483 67.966,6.483C68.548,6.483 69.133,6.637 69.723,6.946L69.723,9.712C69.524,9.403 69.298,9.161 69.044,8.985C68.79,8.805 68.54,8.715 68.294,8.715C68.106,8.715 67.952,8.77 67.831,8.88C67.706,8.985 67.643,9.112 67.643,9.26C67.643,9.503 67.809,9.743 68.141,9.981L68.528,10.268C69.044,10.639 69.413,11.02 69.635,11.411C69.862,11.801 69.975,12.258 69.975,12.782C69.975,13.673 69.704,14.407 69.161,14.985C68.618,15.563 67.93,15.852 67.098,15.852C66.524,15.852 65.909,15.725 65.253,15.471L65.253,15.471Z" style="fill:rgb(158,161,168);fill-rule:nonzero;"/>
            <path id="path1324" d="M76.983,15.694L74.54,15.694L74.54,12.055L73.374,12.055L73.374,15.694L70.93,15.694L70.93,6.647L73.374,6.647L73.374,9.846L74.54,9.846L74.54,6.647L76.983,6.647L76.983,15.694Z" style="fill:rgb(158,161,168);fill-rule:nonzero;"/>
            <rect id="path1326" x="78.243" y="6.647" width="2.443" height="9.047" style="fill:rgb(158,161,168);fill-rule:nonzero;"/>
            <path id="path1328" d="M84.389,15.694L81.946,15.694L81.946,6.647L86.264,6.647L86.264,8.774L84.389,8.774L84.389,10.092L86.135,10.092L86.135,12.137L84.389,12.137L84.389,15.694Z" style="fill:rgb(158,161,168);fill-rule:nonzero;"/>
            <path id="path1334" d="M90.378,15.694L87.934,15.694L87.934,8.815L86.587,8.815L86.587,6.647L91.778,6.647L91.778,8.815L90.378,8.815L90.378,15.694Z" style="fill:rgb(158,161,168);fill-rule:nonzero;"/>
            <path id="path1348" d="M92.423,15.694L92.423,6.647L96.964,6.647L96.964,8.774L94.866,8.774L94.866,10.092L96.747,10.092L96.747,12.137L94.866,12.137L94.866,13.52L96.964,13.52L96.964,15.694L92.423,15.694Z" style="fill:rgb(158,161,168);fill-rule:nonzero;"/>
            <path id="path1351" d="M104.434,15.694L101.792,15.694L100.585,12.471C100.573,12.417 100.551,12.344 100.52,12.255C100.493,12.165 100.458,12.057 100.415,11.932L100.432,12.53L100.432,15.694L98.001,15.694L98.001,6.647L100.503,6.647C101.604,6.647 102.428,6.864 102.975,7.298C103.671,7.852 104.018,8.641 104.018,9.665C104.018,10.758 103.551,11.514 102.618,11.932L104.434,15.694ZM100.444,10.837L100.608,10.837C100.889,10.837 101.124,10.729 101.311,10.514C101.499,10.299 101.592,10.026 101.592,9.694C101.592,9.018 101.239,8.68 100.532,8.68L100.444,8.68L100.444,10.837Z" style="fill:rgb(158,161,168);fill-rule:nonzero;"/>
        </g>
        <g id="text1269" transform="matrix(0.972941,0,0,1.02781,0,60)">
            <path id="path1272" d="M66.142,48.954L66.142,50.201C65.753,49.923 65.403,49.783 65.092,49.783C64.756,49.783 64.482,49.902 64.269,50.14C64.056,50.365 63.95,50.666 63.95,51.043C63.95,51.374 64.025,51.659 64.177,51.896C64.255,52.023 64.382,52.187 64.558,52.388C64.738,52.588 64.969,52.83 65.252,53.112C65.772,53.641 66.126,54.097 66.314,54.482C66.503,54.855 66.597,55.311 66.597,55.852C66.597,56.585 66.39,57.189 65.977,57.664C65.563,58.127 65.033,58.358 64.386,58.358C63.841,58.358 63.376,58.209 62.991,57.91L62.991,56.644C63.446,56.976 63.859,57.142 64.232,57.142C64.58,57.142 64.852,57.027 65.049,56.798C65.246,56.564 65.344,56.249 65.344,55.852C65.344,55.508 65.268,55.199 65.117,54.924C65.039,54.793 64.93,54.644 64.791,54.476C64.652,54.304 64.478,54.114 64.269,53.905C63.945,53.585 63.677,53.303 63.464,53.057C63.251,52.812 63.094,52.597 62.991,52.412C62.795,52.052 62.697,51.597 62.697,51.049C62.697,50.308 62.889,49.72 63.274,49.286C63.663,48.848 64.185,48.629 64.84,48.629C65.295,48.629 65.729,48.737 66.142,48.954L66.142,48.954Z" style="fill:rgb(158,161,168);fill-rule:nonzero;"/>
            <path id="path1274" d="M67.672,48.758L68.949,48.758L68.949,52.468L70.823,52.468L70.823,48.758L72.1,48.758L72.1,58.241L70.823,58.241L70.823,53.549L68.949,53.549L68.949,58.241L67.672,58.241L67.672,48.758Z" style="fill:rgb(158,161,168);fill-rule:nonzero;"/>
            <rect id="path1276" x="73.568" y="48.758" width="1.278" height="9.484" style="fill:rgb(158,161,168);fill-rule:nonzero;"/>
            <path id="path1279" d="M76.32,48.758L79.735,48.758L79.735,49.839L77.598,49.839L77.598,52.836L79.526,52.836L79.526,53.917L77.598,53.917L77.598,58.241L76.32,58.241L76.32,48.758Z" style="fill:rgb(158,161,168);fill-rule:nonzero;"/>
            <path id="path1282" d="M79.963,48.758L84.121,48.758L84.121,49.875L82.69,49.875L82.69,58.241L81.437,58.241L81.437,49.875L79.963,49.875L79.963,48.758Z" style="fill:rgb(158,161,168);fill-rule:nonzero;"/>
            <path id="path1284" d="M89.864,50.993C89.864,52.476 89.405,53.217 88.488,53.217C88.025,53.217 87.685,53.037 87.468,52.676C87.255,52.312 87.149,51.743 87.149,50.969C87.149,50.195 87.255,49.628 87.468,49.267C87.681,48.907 88.021,48.727 88.488,48.727C88.959,48.727 89.305,48.911 89.526,49.28C89.751,49.644 89.864,50.215 89.864,50.993L89.864,50.993ZM89.029,50.993C89.029,50.457 88.988,50.072 88.906,49.839C88.824,49.605 88.691,49.489 88.506,49.489C88.322,49.489 88.191,49.599 88.113,49.82C88.04,50.041 88.003,50.428 88.003,50.981C88.003,51.534 88.04,51.921 88.113,52.142C88.191,52.363 88.322,52.474 88.506,52.474C88.691,52.474 88.824,52.359 88.906,52.13C88.988,51.896 89.029,51.518 89.029,50.993L89.029,50.993ZM92.302,48.758L93.082,48.758L88.377,58.241L87.597,58.241L92.302,48.758ZM93.531,56.184C93.531,57.646 93.082,58.376 92.186,58.376C91.727,58.376 91.389,58.198 91.172,57.842C90.955,57.482 90.847,56.919 90.847,56.153C90.847,54.662 91.291,53.917 92.18,53.917C93.08,53.917 93.531,54.673 93.531,56.184L93.531,56.184ZM92.708,56.178C92.708,55.645 92.667,55.262 92.585,55.029C92.507,54.791 92.376,54.673 92.192,54.673C92.008,54.673 91.879,54.783 91.805,55.004C91.735,55.246 91.7,55.631 91.7,56.159C91.7,56.712 91.737,57.099 91.811,57.32C91.885,57.537 92.012,57.646 92.192,57.646C92.536,57.646 92.708,57.156 92.708,56.178L92.708,56.178Z" style="fill:rgb(158,161,168);fill-rule:nonzero;"/>
        </g>
        <g id="text1289" transform="matrix(1.01458,0,0,0.985629,0,-4)">
            <path id="path1291" d="M37.087,270.135L38.894,270.135C40.307,270.135 41.014,271.012 41.014,272.767C41.014,273.438 40.922,273.935 40.738,274.26C40.555,274.584 40.23,274.83 39.765,274.996C40.298,275.21 40.664,275.483 40.86,275.816C41.061,276.145 41.161,276.64 41.161,277.302C41.161,279.117 40.384,280.024 38.829,280.024L37.087,280.024L37.087,270.135ZM38.343,274.49C38.859,274.49 39.218,274.371 39.419,274.131C39.619,273.88 39.72,273.438 39.72,272.806C39.72,271.738 39.335,271.204 38.567,271.204L38.464,271.204L38.407,271.204C38.373,271.204 38.351,271.206 38.343,271.211L38.343,274.49ZM38.343,278.884C38.889,278.884 39.267,278.767 39.476,278.532C39.686,278.297 39.79,277.872 39.79,277.257C39.79,276.625 39.681,276.183 39.464,275.931C39.25,275.675 38.876,275.547 38.343,275.547L38.343,278.884Z" style="fill:rgb(158,161,168);fill-rule:nonzero;"/>
            <path id="path1293" d="M41.629,270.135L43.038,270.135L43.691,272.287C43.712,272.351 43.734,272.421 43.755,272.498C43.776,272.575 43.802,272.658 43.832,272.748C44.075,273.525 44.242,274.178 44.332,274.708C44.408,274.178 44.472,273.809 44.524,273.6L44.729,272.716L44.806,272.37L45.356,270.135L46.746,270.135L45.023,275.771L45.023,280.024L43.691,280.024L43.691,275.771L41.629,270.135Z" style="fill:rgb(158,161,168);fill-rule:nonzero;"/>
            <path id="path1295" d="M47.489,270.135L49.244,270.135C50.09,270.135 50.705,270.348 51.089,270.775C51.473,271.206 51.665,271.89 51.665,272.825C51.665,274.14 51.279,274.99 50.506,275.374C50.118,275.549 49.556,275.637 48.822,275.637L48.822,280.024L47.489,280.024L47.489,270.135ZM48.822,274.497C49.372,274.497 49.752,274.386 49.962,274.163C50.175,273.937 50.282,273.536 50.282,272.959C50.282,272.37 50.179,271.939 49.974,271.665C49.77,271.392 49.447,271.256 49.007,271.256L48.822,271.256L48.822,274.497Z" style="fill:rgb(158,161,168);fill-rule:nonzero;"/>
            <path id="path1297" d="M53.792,270.135L54.83,270.135L56.95,280.024L55.63,280.024L55.259,278.096L53.299,278.096L52.921,280.024L51.64,280.024L53.792,270.135ZM55.067,277.065L54.772,275.489C54.576,274.418 54.415,273.273 54.292,272.056C54.232,272.65 54.155,273.252 54.061,273.862C53.967,274.469 53.856,275.114 53.728,275.797L53.485,277.065L55.067,277.065Z" style="fill:rgb(158,161,168);fill-rule:nonzero;"/>
            <path id="path1299" d="M61.036,270.34L61.036,271.64C60.631,271.349 60.265,271.204 59.941,271.204C59.591,271.204 59.305,271.328 59.083,271.576C58.861,271.811 58.75,272.124 58.75,272.517C58.75,272.863 58.829,273.16 58.987,273.408C59.068,273.54 59.2,273.711 59.384,273.92C59.572,274.129 59.813,274.381 60.107,274.676C60.65,275.227 61.019,275.703 61.216,276.104C61.412,276.493 61.51,276.969 61.51,277.533C61.51,278.297 61.295,278.927 60.863,279.422C60.432,279.905 59.879,280.146 59.204,280.146C58.636,280.146 58.152,279.99 57.75,279.678L57.75,278.359C58.224,278.705 58.656,278.878 59.044,278.878C59.407,278.878 59.691,278.758 59.896,278.519C60.101,278.276 60.204,277.947 60.204,277.533C60.204,277.174 60.125,276.852 59.967,276.565C59.885,276.429 59.772,276.273 59.627,276.098C59.482,275.918 59.3,275.72 59.083,275.502C58.745,275.169 58.466,274.874 58.244,274.618C58.022,274.362 57.857,274.138 57.75,273.946C57.545,273.57 57.443,273.096 57.443,272.524C57.443,271.751 57.644,271.138 58.045,270.685C58.451,270.229 58.995,270 59.678,270C60.152,270 60.605,270.113 61.036,270.34L61.036,270.34Z" style="fill:rgb(158,161,168);fill-rule:nonzero;"/>
            <path id="path1301" d="M65.93,270.34L65.93,271.64C65.524,271.349 65.159,271.204 64.835,271.204C64.484,271.204 64.198,271.328 63.976,271.576C63.754,271.811 63.643,272.124 63.643,272.517C63.643,272.863 63.722,273.16 63.88,273.408C63.961,273.54 64.094,273.711 64.277,273.92C64.465,274.129 64.706,274.381 65.001,274.676C65.543,275.227 65.913,275.703 66.109,276.104C66.306,276.493 66.404,276.969 66.404,277.533C66.404,278.297 66.188,278.927 65.757,279.422C65.326,279.905 64.773,280.146 64.098,280.146C63.53,280.146 63.045,279.99 62.644,279.678L62.644,278.359C63.118,278.705 63.549,278.878 63.938,278.878C64.301,278.878 64.585,278.758 64.79,278.519C64.995,278.276 65.097,277.947 65.097,277.533C65.097,277.174 65.018,276.852 64.86,276.565C64.779,276.429 64.666,276.273 64.521,276.098C64.376,275.918 64.194,275.72 63.976,275.502C63.639,275.169 63.359,274.874 63.137,274.618C62.915,274.362 62.751,274.138 62.644,273.946C62.439,273.57 62.337,273.096 62.337,272.524C62.337,271.751 62.537,271.138 62.939,270.685C63.344,270.229 63.889,270 64.572,270C65.046,270 65.499,270.113 65.93,270.34L65.93,270.34Z" style="fill:rgb(158,161,168);fill-rule:nonzero;"/>
        </g>
    </g>
</svg>
