<?xml version="1.0" encoding="UTF-8" standalone="no"?>
<!DOCTYPE svg PUBLIC "-//W3C//DTD SVG 1.1//EN" "http://www.w3.org/Graphics/SVG/1.1/DTD/svg11.dtd">
<svg width="100%" height="100%" viewBox="0 0 105 380" version="1.1" xmlns="http://www.w3.org/2000/svg" xmlns:xlink="http://www.w3.org/1999/xlink" xml:space="preserve" xmlns:serif="http://www.serif.com/" style="fill-rule:evenodd;clip-rule:evenodd;stroke-linejoin:round;stroke-miterlimit:2;">
    <g id="Layer-2" serif:id="Layer 2">
        <g id="text989">
        </g>
        <rect id="rect4689" x="0" y="0" width="105" height="380" style="fill:rgb(44,45,48);"/>
        <g id="text80" transform="matrix(1.00498,0,0,0.995047,7.49999,4.99997)">
            <path id="path4726" d="M29.851,371.706L29.851,363.943L31.853,363.943L32.903,366.668C32.96,366.829 33.024,367.013 33.094,367.221C33.168,367.429 33.249,367.668 33.336,367.94L33.552,368.624C33.475,367.95 33.416,367.373 33.376,366.894C33.336,366.415 33.316,366.013 33.316,365.687L33.316,363.943L35.317,363.943L35.317,371.706L33.316,371.706L32.26,368.85C32.149,368.545 32.049,368.26 31.958,367.995C31.871,367.727 31.794,367.472 31.727,367.231C31.77,367.777 31.802,368.253 31.822,368.659C31.843,369.065 31.853,369.42 31.853,369.725L31.853,371.706L29.851,371.706Z" style="fill:rgb(158,161,168);fill-rule:nonzero;"/>
            <path id="path4728" d="M39.887,371.706L37.791,371.706L37.791,368.418L35.865,363.943L38.052,363.943L38.429,365.094C38.503,365.319 38.568,365.535 38.625,365.743C38.686,365.951 38.739,366.15 38.786,366.341C38.863,366.056 38.93,365.811 38.987,365.607C39.044,365.399 39.095,365.232 39.138,365.104L39.52,363.943L41.692,363.943L39.887,368.418L39.887,371.706Z" style="fill:rgb(158,161,168);fill-rule:nonzero;"/>
            <path id="path4730" d="M41.894,371.515L41.894,369.076C42.306,369.639 42.752,369.921 43.231,369.921C43.412,369.921 43.56,369.874 43.673,369.78C43.787,369.683 43.844,369.562 43.844,369.418C43.844,369.21 43.72,369.008 43.472,368.81L43.13,368.543C42.902,368.372 42.708,368.203 42.547,368.035C42.386,367.865 42.256,367.69 42.155,367.513C42.054,367.332 41.981,367.146 41.934,366.954C41.887,366.763 41.863,366.562 41.863,366.351C41.863,365.989 41.947,365.61 42.115,365.215C42.199,365.03 42.296,364.863 42.406,364.712C42.517,364.558 42.644,364.422 42.789,364.305C43.184,363.969 43.662,363.802 44.222,363.802C44.721,363.802 45.224,363.934 45.73,364.199L45.73,366.572C45.559,366.308 45.365,366.1 45.147,365.949C44.929,365.795 44.714,365.718 44.503,365.718C44.342,365.718 44.21,365.765 44.106,365.858C43.999,365.949 43.945,366.058 43.945,366.185C43.945,366.393 44.087,366.599 44.372,366.804L44.704,367.05C45.147,367.368 45.463,367.695 45.655,368.03C45.849,368.366 45.946,368.758 45.946,369.207C45.946,369.971 45.713,370.601 45.247,371.098C44.781,371.594 44.191,371.842 43.477,371.842C42.985,371.842 42.457,371.733 41.894,371.515L41.894,371.515Z" style="fill:rgb(158,161,168);fill-rule:nonzero;"/>
            <path id="path4732" d="M49.576,371.706L47.48,371.706L47.48,365.803L46.323,365.803L46.323,363.943L50.778,363.943L50.778,365.803L49.576,365.803L49.576,371.706Z" style="fill:rgb(158,161,168);fill-rule:nonzero;"/>
            <path id="path4734" d="M56.525,371.706L54.428,371.706L54.428,368.584L53.428,368.584L53.428,371.706L51.331,371.706L51.331,363.943L53.428,363.943L53.428,366.688L54.428,366.688L54.428,363.943L56.525,363.943L56.525,371.706Z" style="fill:rgb(158,161,168);fill-rule:nonzero;"/>
            <rect id="path4736" x="57.606" y="363.943" width="2.097" height="7.763" style="fill:rgb(158,161,168);fill-rule:nonzero;"/>
        </g>
        <g id="text4987">
        </g>
        <g id="text1042">
        </g>
        <g id="text950" transform="matrix(1,0,0,1,-7.5,0)">
            <path id="path963" d="M21.09,17.492L21.09,13.703C21.73,14.578 22.423,15.016 23.168,15.016C23.449,15.016 23.678,14.943 23.855,14.797C24.033,14.646 24.121,14.458 24.121,14.234C24.121,13.911 23.928,13.596 23.543,13.289L23.012,12.875C22.658,12.609 22.355,12.346 22.105,12.086C21.855,11.82 21.652,11.549 21.496,11.273C21.34,10.992 21.225,10.703 21.152,10.406C21.079,10.109 21.043,9.797 21.043,9.469C21.043,8.906 21.173,8.318 21.434,7.703C21.564,7.417 21.715,7.156 21.887,6.922C22.059,6.682 22.257,6.471 22.48,6.289C23.095,5.768 23.837,5.508 24.707,5.508C25.483,5.508 26.264,5.714 27.051,6.125L27.051,9.812C26.785,9.401 26.483,9.078 26.145,8.844C25.806,8.604 25.473,8.484 25.145,8.484C24.895,8.484 24.689,8.557 24.527,8.703C24.361,8.844 24.277,9.013 24.277,9.211C24.277,9.534 24.499,9.854 24.941,10.172L25.457,10.555C26.145,11.049 26.637,11.557 26.934,12.078C27.236,12.599 27.387,13.208 27.387,13.906C27.387,15.094 27.025,16.073 26.301,16.844C25.577,17.615 24.66,18 23.551,18C22.785,18 21.965,17.831 21.09,17.492Z" style="fill:rgb(158,161,168);fill-rule:nonzero;"/>
            <path id="path966" d="M33.027,17.789L29.77,17.789L29.77,8.617L27.973,8.617L27.973,5.727L34.895,5.727L34.895,8.617L33.027,8.617L33.027,17.789Z" style="fill:rgb(158,161,168);fill-rule:nonzero;"/>
            <path id="path968" d="M44.332,17.789L40.809,17.789L39.199,13.492C39.184,13.419 39.155,13.323 39.113,13.203C39.077,13.083 39.03,12.94 38.973,12.773L38.996,13.57L38.996,17.789L35.754,17.789L35.754,5.727L39.09,5.727C40.559,5.727 41.658,6.016 42.387,6.594C43.314,7.333 43.777,8.385 43.777,9.75C43.777,11.208 43.155,12.216 41.91,12.773L44.332,17.789ZM39.012,11.312L39.23,11.312C39.605,11.312 39.918,11.169 40.168,10.883C40.418,10.596 40.543,10.232 40.543,9.789C40.543,8.888 40.072,8.437 39.129,8.437L39.012,8.437L39.012,11.312Z" style="fill:rgb(158,161,168);fill-rule:nonzero;"/>
            <path id="path970" d="M50.238,5.727L53.496,5.727L53.496,14.258C53.496,14.971 53.384,15.549 53.16,15.992C52.941,16.456 52.577,16.875 52.066,17.25C51.379,17.75 50.543,18 49.559,18C48.444,18 47.509,17.724 46.754,17.172C45.796,16.469 45.316,15.344 45.316,13.797L45.316,5.727L48.574,5.727L48.574,13.508C48.574,14.034 48.637,14.406 48.762,14.625C48.892,14.844 49.108,14.953 49.41,14.953C49.723,14.953 49.939,14.852 50.059,14.648C50.178,14.435 50.238,14.057 50.238,13.516L50.238,5.727Z" style="fill:rgb(158,161,168);fill-rule:nonzero;"/>
            <path id="path972" d="M67.605,17.789L64.199,17.789L63.957,12.289L63.855,10.094C63.819,10.516 63.777,10.919 63.73,11.305C63.684,11.685 63.626,12.055 63.559,12.414L62.535,17.789L59.879,17.789L59.004,12.406C58.952,12.094 58.882,11.557 58.793,10.797C58.783,10.682 58.759,10.448 58.723,10.094L58.645,12.32L58.355,17.789L54.887,17.789L56.293,5.727L60.348,5.727L61.027,9.789C61.085,10.122 61.134,10.484 61.176,10.875C61.223,11.266 61.264,11.69 61.301,12.148C61.368,11.383 61.462,10.698 61.582,10.094L62.41,5.727L66.434,5.727L67.605,17.789Z" style="fill:rgb(158,161,168);fill-rule:nonzero;"/>
            <path id="path974" d="M81.48,17.789L78.074,17.789L77.832,12.289L77.73,10.094C77.694,10.516 77.652,10.919 77.605,11.305C77.559,11.685 77.501,12.055 77.434,12.414L76.41,17.789L73.754,17.789L72.879,12.406C72.827,12.094 72.757,11.557 72.668,10.797C72.658,10.682 72.634,10.448 72.598,10.094L72.52,12.32L72.23,17.789L68.762,17.789L70.168,5.727L74.223,5.727L74.902,9.789C74.96,10.122 75.009,10.484 75.051,10.875C75.098,11.266 75.139,11.69 75.176,12.148C75.243,11.383 75.337,10.698 75.457,10.094L76.285,5.727L80.309,5.727L81.48,17.789Z" style="fill:rgb(158,161,168);fill-rule:nonzero;"/>
            <path id="path976" d="M82.941,17.789L82.941,5.727L88.996,5.727L88.996,8.562L86.199,8.562L86.199,10.32L88.707,10.32L88.707,13.047L86.199,13.047L86.199,14.891L88.996,14.891L88.996,17.789L82.941,17.789Z" style="fill:rgb(158,161,168);fill-rule:nonzero;"/>
            <path id="path978" d="M98.957,17.789L95.434,17.789L93.824,13.492C93.809,13.419 93.78,13.323 93.738,13.203C93.702,13.083 93.655,12.94 93.598,12.773L93.621,13.57L93.621,17.789L90.379,17.789L90.379,5.727L93.715,5.727C95.184,5.727 96.283,6.016 97.012,6.594C97.939,7.333 98.402,8.385 98.402,9.75C98.402,11.208 97.78,12.216 96.535,12.773L98.957,17.789ZM93.637,11.312L93.855,11.312C94.23,11.312 94.543,11.169 94.793,10.883C95.043,10.596 95.168,10.232 95.168,9.789C95.168,8.888 94.697,8.437 93.754,8.437L93.637,8.437L93.637,11.312Z" style="fill:rgb(158,161,168);fill-rule:nonzero;"/>
        </g>
        <g id="g1214" transform="matrix(1,0,0,1,-2,157)">
            <path id="path1190" d="M7.063,60.953L9.126,60.953L9.126,70L7.96,70L7.96,61.99L7.063,61.99L7.063,60.953Z" style="fill:rgb(158,161,168);fill-rule:nonzero;"/>
            <path id="path1194" d="M7.38,89.895L6.185,89.895L6.173,89.537C6.173,88.549 6.321,87.854 6.618,87.451C6.919,87.045 7.423,86.842 8.13,86.842C9.462,86.842 10.128,87.58 10.128,89.057C10.128,90.053 9.63,91.488 8.634,93.363L7.913,94.717C7.909,94.725 7.897,94.748 7.878,94.787C7.858,94.826 7.831,94.883 7.796,94.957L10.034,94.957L10.034,96L6.062,96C6.128,95.852 6.267,95.557 6.478,95.115C6.688,94.674 6.976,94.078 7.339,93.328C7.647,92.672 7.905,92.115 8.112,91.658C8.319,91.201 8.476,90.826 8.581,90.533C8.792,89.947 8.897,89.441 8.897,89.016C8.897,88.266 8.638,87.891 8.118,87.891C7.618,87.891 7.368,88.355 7.368,89.285L7.374,89.801L7.38,89.895Z" style="fill:rgb(158,161,168);fill-rule:nonzero;"/>
            <path id="path1198" d="M7.427,115.273L6.267,115.273L6.267,115.033C6.267,114.631 6.3,114.285 6.366,113.996C6.437,113.707 6.544,113.469 6.688,113.281C6.837,113.094 7.024,112.957 7.251,112.871C7.478,112.781 7.749,112.736 8.065,112.736C8.729,112.736 9.214,112.924 9.519,113.299C9.823,113.674 9.976,114.27 9.976,115.086C9.976,115.758 9.905,116.242 9.765,116.539C9.628,116.84 9.364,117.068 8.974,117.225C9.396,117.369 9.687,117.594 9.847,117.898C10.007,118.199 10.087,118.682 10.087,119.346C10.087,120.256 9.915,120.926 9.571,121.355C9.228,121.785 8.692,122 7.966,122C6.724,122 6.103,121.287 6.103,119.861L6.103,119.768L6.103,119.703C6.103,119.66 6.104,119.633 6.108,119.621L7.251,119.621C7.247,119.687 7.243,119.746 7.239,119.797L7.239,119.914C7.239,120.223 7.306,120.469 7.438,120.652C7.575,120.836 7.761,120.928 7.995,120.928C8.147,120.928 8.276,120.898 8.382,120.84C8.491,120.777 8.579,120.68 8.646,120.547C8.716,120.41 8.767,120.234 8.798,120.02C8.829,119.805 8.845,119.545 8.845,119.24C8.845,118.689 8.761,118.293 8.593,118.051C8.429,117.809 8.153,117.687 7.767,117.687C7.724,117.687 7.677,117.691 7.626,117.699C7.575,117.703 7.517,117.709 7.45,117.717L7.45,116.662L7.62,116.662C8.093,116.662 8.413,116.561 8.581,116.358C8.749,116.154 8.833,115.77 8.833,115.203C8.833,114.266 8.597,113.797 8.124,113.797C7.655,113.797 7.421,114.197 7.421,114.998L7.427,115.273Z" style="fill:rgb(158,161,168);fill-rule:nonzero;"/>
            <path id="path1202" d="M8.479,138.953L9.609,138.953L9.609,144.59L10.189,144.59L10.189,145.521L9.609,145.521L9.609,148L8.479,148L8.479,145.521L6,145.521L6,144.484L8.479,138.953ZM8.479,144.59L8.479,140.793L6.955,144.59L8.479,144.59Z" style="fill:rgb(158,161,168);fill-rule:nonzero;"/>
            <path id="path1206" d="M7.069,164.848L9.946,164.848L9.946,165.896L7.995,165.896L7.702,168.17L7.849,168.17C8.204,168.17 8.519,168.227 8.792,168.34C9.069,168.453 9.302,168.619 9.489,168.838C9.677,169.057 9.819,169.326 9.917,169.646C10.015,169.967 10.063,170.332 10.063,170.742C10.063,171.758 9.843,172.557 9.401,173.139C8.96,173.713 8.347,174 7.562,174C7.12,174 6.642,173.875 6.126,173.625L6.431,172.547C6.849,172.766 7.198,172.875 7.479,172.875C7.878,172.875 8.194,172.695 8.429,172.336C8.663,171.973 8.78,171.484 8.78,170.871C8.78,169.711 8.282,169.131 7.286,169.131C7.04,169.131 6.792,169.168 6.542,169.242L7.069,164.848Z" style="fill:rgb(158,161,168);fill-rule:nonzero;"/>
            <path id="path1210" d="M7.983,190.848L9.278,190.848L8.429,192.588C8.28,192.904 8.13,193.24 7.978,193.596C7.829,193.951 7.673,194.33 7.509,194.732C7.849,194.463 8.175,194.328 8.487,194.328C8.991,194.328 9.38,194.547 9.653,194.984C9.911,195.395 10.04,196.129 10.04,197.188C10.04,198.188 9.89,198.908 9.589,199.35C9.288,199.783 8.798,200 8.118,200C7.423,200 6.921,199.76 6.612,199.279C6.304,198.795 6.149,198.006 6.149,196.912C6.149,195.994 6.271,195.119 6.513,194.287C6.638,193.873 6.821,193.385 7.063,192.822C7.31,192.26 7.616,191.602 7.983,190.848ZM8.874,197.182C8.874,196.869 8.86,196.604 8.833,196.385C8.806,196.162 8.761,195.982 8.698,195.846C8.636,195.705 8.556,195.604 8.458,195.541C8.364,195.475 8.249,195.441 8.112,195.441C7.976,195.441 7.858,195.475 7.761,195.541C7.667,195.603 7.589,195.703 7.526,195.84C7.464,195.977 7.419,196.156 7.392,196.379C7.364,196.598 7.351,196.861 7.351,197.17C7.351,198.353 7.604,198.945 8.112,198.945C8.62,198.945 8.874,198.357 8.874,197.182L8.874,197.182Z" style="fill:rgb(158,161,168);fill-rule:nonzero;"/>
        </g>
        <g id="text983" transform="matrix(1,0,0,1,-5.00046,6.99993)">
            <path id="path1017" d="M20.194,191.958L23.721,191.958L23.721,192.906L22.507,192.906L22.507,200L21.444,200L21.444,192.906L20.194,192.906L20.194,191.958Z" style="fill:rgb(158,161,168);fill-rule:nonzero;"/>
            <path id="path1019" d="M24.314,191.958L25.741,191.958C26.332,191.958 26.771,192.099 27.059,192.38C27.424,192.745 27.606,193.302 27.606,194.052C27.606,194.628 27.509,195.092 27.314,195.443C27.123,195.79 26.849,196.005 26.491,196.089L27.971,200L26.872,200L25.398,196.062L25.398,200L24.314,200L24.314,191.958ZM25.398,195.521C25.818,195.521 26.115,195.424 26.288,195.229C26.462,195.035 26.549,194.707 26.549,194.245C26.549,193.995 26.53,193.781 26.491,193.604C26.457,193.427 26.399,193.283 26.319,193.172C26.243,193.061 26.142,192.979 26.017,192.927C25.896,192.875 25.75,192.849 25.58,192.849L25.398,192.849L25.398,195.521Z" style="fill:rgb(158,161,168);fill-rule:nonzero;"/>
            <rect id="path1021" x="28.814" y="191.958" width="1.083" height="8.042" style="fill:rgb(158,161,168);fill-rule:nonzero;"/>
            <path id="path1023" d="M33.075,195.771L35.043,195.771L35.043,196.083C35.043,197.649 34.906,198.707 34.632,199.255C34.361,199.818 33.854,200.099 33.111,200.099C32.344,200.099 31.797,199.786 31.471,199.161C31.148,198.536 30.986,197.486 30.986,196.01C30.986,194.323 31.163,193.2 31.517,192.641C31.851,192.116 32.363,191.854 33.054,191.854C33.582,191.854 33.993,191.981 34.288,192.234C34.587,192.491 34.819,192.913 34.986,193.5L33.976,193.922C33.931,193.71 33.88,193.533 33.825,193.391C33.769,193.245 33.708,193.132 33.642,193.052C33.51,192.889 33.313,192.807 33.049,192.807C32.688,192.807 32.441,193.03 32.309,193.474C32.177,193.939 32.111,194.774 32.111,195.979C32.111,197.198 32.179,198.023 32.314,198.453C32.45,198.884 32.705,199.099 33.08,199.099C33.424,199.099 33.665,198.946 33.804,198.641C33.946,198.314 34.017,197.79 34.017,197.068L34.017,196.849L34.017,196.687L33.075,196.687L33.075,195.771Z" style="fill:rgb(158,161,168);fill-rule:nonzero;"/>
        </g>
        <g id="text987" transform="matrix(1,0,0,1,-5.00046,6.99993)">
            <path id="path1008" d="M51.449,191.854L54.975,191.854L54.975,192.802L53.761,192.802L53.761,199.896L52.699,199.896L52.699,192.802L51.449,192.802L51.449,191.854Z" style="fill:rgb(158,161,168);fill-rule:nonzero;"/>
            <path id="path1011" d="M56.569,191.854L57.412,191.854L59.136,199.896L58.063,199.896L57.761,198.328L56.168,198.328L55.86,199.896L54.819,199.896L56.569,191.854ZM57.605,197.49L57.365,196.208C57.206,195.337 57.076,194.406 56.975,193.417C56.926,193.899 56.864,194.389 56.787,194.885C56.711,195.378 56.621,195.903 56.516,196.458L56.319,197.49L57.605,197.49Z" style="fill:rgb(158,161,168);fill-rule:nonzero;"/>
            <path id="path1013" d="M59.777,191.854L61.204,191.854C61.892,191.854 62.392,192.028 62.704,192.375C63.017,192.726 63.173,193.281 63.173,194.042C63.173,195.111 62.859,195.802 62.23,196.115C61.914,196.257 61.457,196.328 60.86,196.328L60.86,199.896L59.777,199.896L59.777,191.854ZM60.86,195.401C61.308,195.401 61.617,195.311 61.787,195.13C61.961,194.946 62.048,194.62 62.048,194.151C62.048,193.672 61.964,193.321 61.798,193.099C61.631,192.877 61.369,192.766 61.011,192.766L60.86,192.766L60.86,195.401Z" style="fill:rgb(158,161,168);fill-rule:nonzero;"/>
        </g>
        <g id="text991" transform="matrix(1,0,0,1,-5.00046,6.99993)">
            <path id="path1001" d="M84.646,196.177C84.646,197.597 84.488,198.606 84.172,199.203C83.856,199.8 83.326,200.099 82.583,200.099C81.802,200.099 81.252,199.778 80.932,199.135C80.616,198.507 80.458,197.391 80.458,195.786C80.458,194.356 80.615,193.344 80.927,192.75C81.243,192.153 81.778,191.854 82.531,191.854C83.205,191.854 83.705,192.085 84.031,192.547C84.247,192.856 84.403,193.295 84.5,193.865C84.597,194.392 84.646,195.163 84.646,196.177L84.646,196.177ZM83.51,196.292C83.51,194.899 83.448,193.976 83.323,193.521C83.198,193.063 82.943,192.833 82.557,192.833C82.172,192.833 81.915,193.043 81.786,193.464C81.661,193.887 81.599,194.738 81.599,196.016C81.599,197.193 81.665,198.009 81.797,198.464C81.932,198.894 82.186,199.109 82.557,199.109C82.922,199.109 83.172,198.908 83.307,198.505C83.443,198.106 83.51,197.368 83.51,196.292Z" style="fill:rgb(158,161,168);fill-rule:nonzero;"/>
            <path id="path1003" d="M85.724,191.958L86.786,191.958L86.786,197.641C86.786,198.22 86.839,198.606 86.943,198.797C87.05,198.988 87.262,199.083 87.578,199.083C87.894,199.083 88.102,199 88.203,198.833C88.307,198.663 88.359,198.318 88.359,197.797L88.359,191.958L89.422,191.958L89.422,197.797C89.422,198.672 89.288,199.264 89.021,199.573C88.701,199.924 88.214,200.099 87.557,200.099C86.835,200.099 86.326,199.873 86.031,199.422C85.826,199.113 85.724,198.519 85.724,197.641L85.724,191.958Z" style="fill:rgb(158,161,168);fill-rule:nonzero;"/>
            <path id="path1005" d="M90.021,191.958L93.547,191.958L93.547,192.906L92.333,192.906L92.333,200L91.271,200L91.271,192.906L90.021,192.906L90.021,191.958Z" style="fill:rgb(158,161,168);fill-rule:nonzero;"/>
        </g>
        <g id="text995">
        </g>
        <g id="text1036" transform="matrix(1,0,0,1,0,-3.99997)">
            <path id="path1097" d="M4.24,93.859L5.302,93.859L5.302,99.542C5.302,100.122 5.354,100.507 5.458,100.698C5.566,100.889 5.778,100.984 6.094,100.984C6.41,100.984 6.618,100.901 6.719,100.734C6.823,100.564 6.875,100.219 6.875,99.698L6.875,93.859L7.938,93.859L7.938,99.698C7.938,100.573 7.804,101.165 7.536,101.474C7.217,101.825 6.729,102 6.073,102C5.351,102 4.842,101.774 4.547,101.323C4.342,101.014 4.24,100.42 4.24,99.542L4.24,93.859Z" style="fill:rgb(158,161,168);fill-rule:nonzero;"/>
            <path id="path1099" d="M9.177,93.859L10.604,93.859C11.292,93.859 11.792,94.033 12.104,94.38C12.417,94.731 12.573,95.286 12.573,96.047C12.573,97.116 12.259,97.807 11.63,98.12C11.314,98.262 10.858,98.333 10.26,98.333L10.26,101.901L9.177,101.901L9.177,93.859ZM10.26,97.406C10.708,97.406 11.017,97.316 11.188,97.135C11.361,96.951 11.448,96.625 11.448,96.156C11.448,95.677 11.365,95.326 11.198,95.104C11.031,94.882 10.769,94.771 10.411,94.771L10.26,94.771L10.26,97.406Z" style="fill:rgb(158,161,168);fill-rule:nonzero;"/>
        </g>
        <g id="text1040" transform="matrix(1,0,0,1,0,-56)">
            <path id="path1088" d="M4.24,119.859L5.573,119.859C5.979,119.859 6.321,119.905 6.599,119.995C6.856,120.082 7.085,120.236 7.286,120.458C7.589,120.792 7.804,121.226 7.932,121.76C8.061,122.278 8.125,123.019 8.125,123.984C8.125,124.87 8.054,125.592 7.911,126.151C7.773,126.686 7.543,127.094 7.224,127.375C6.832,127.726 6.128,127.901 5.115,127.901L4.24,127.901L4.24,119.859ZM5.323,126.953C5.983,126.953 6.424,126.753 6.646,126.354C6.875,125.955 6.99,125.179 6.99,124.026C6.99,122.786 6.88,121.934 6.661,121.469C6.443,121.003 6.042,120.771 5.458,120.771L5.323,120.771L5.323,126.953Z" style="fill:rgb(158,161,168);fill-rule:nonzero;"/>
            <path id="path1090" d="M13.224,124.078C13.224,125.498 13.066,126.507 12.75,127.104C12.434,127.701 11.905,128 11.161,128C10.38,128 9.83,127.679 9.51,127.036C9.194,126.408 9.036,125.292 9.036,123.687C9.036,122.257 9.193,121.245 9.505,120.651C9.821,120.054 10.356,119.755 11.109,119.755C11.783,119.755 12.283,119.986 12.609,120.448C12.825,120.757 12.981,121.196 13.078,121.766C13.175,122.293 13.224,123.064 13.224,124.078L13.224,124.078ZM12.089,124.193C12.089,122.8 12.026,121.877 11.901,121.422C11.776,120.964 11.521,120.734 11.135,120.734C10.75,120.734 10.493,120.944 10.365,121.365C10.24,121.788 10.177,122.639 10.177,123.917C10.177,125.094 10.243,125.91 10.375,126.365C10.51,126.795 10.764,127.01 11.135,127.01C11.5,127.01 11.75,126.809 11.885,126.406C12.021,126.007 12.089,125.269 12.089,124.193L12.089,124.193Z" style="fill:rgb(158,161,168);fill-rule:nonzero;"/>
            <path id="path1092" d="M13.698,119.859L14.745,119.859L15.292,123.594L15.38,124.146C15.422,124.444 15.453,124.717 15.474,124.964L15.531,125.646C15.535,125.663 15.538,125.694 15.542,125.74C15.545,125.785 15.55,125.842 15.557,125.911L15.583,125.651C15.625,125.196 15.668,124.778 15.714,124.396C15.762,124.014 15.814,123.661 15.87,123.339L16.448,119.859L17.281,119.859L17.823,123.24C17.903,123.74 17.969,124.203 18.021,124.63C18.076,125.057 18.122,125.465 18.156,125.854C18.191,125.444 18.229,125.049 18.271,124.667C18.316,124.285 18.363,123.91 18.411,123.542L18.49,123.005L18.953,119.859L19.99,119.859L18.568,127.901L17.724,127.901L17.156,124.427C17.153,124.413 17.144,124.356 17.13,124.255C17.116,124.155 17.095,124.01 17.068,123.823L16.958,123.021C16.951,122.958 16.939,122.865 16.922,122.74C16.908,122.615 16.892,122.457 16.875,122.266L16.849,121.932C16.842,122.012 16.835,122.082 16.828,122.141C16.821,122.2 16.816,122.248 16.813,122.286C16.795,122.516 16.78,122.694 16.766,122.823C16.755,122.948 16.748,123.024 16.745,123.052L16.635,123.823C16.611,124 16.592,124.139 16.578,124.24C16.564,124.34 16.554,124.403 16.547,124.427L15.958,127.901L15.089,127.901L13.698,119.859Z" style="fill:rgb(158,161,168);fill-rule:nonzero;"/>
            <path id="path1094" d="M20.635,119.859L21.646,119.859L22.724,123.068C23.036,123.974 23.313,124.941 23.552,125.969C23.465,125.347 23.401,124.785 23.359,124.281C23.318,123.778 23.297,123.304 23.297,122.859L23.297,119.859L24.385,119.859L24.385,127.901L23.37,127.901L22.156,124.281C22.045,123.944 21.939,123.599 21.839,123.245C21.741,122.891 21.651,122.519 21.568,122.13C21.561,122.082 21.549,122.023 21.531,121.953C21.517,121.884 21.5,121.804 21.479,121.714C21.49,121.804 21.498,121.882 21.505,121.948C21.512,122.01 21.517,122.064 21.521,122.109L21.578,122.927L21.635,123.922C21.639,123.977 21.641,124.045 21.641,124.125C21.644,124.205 21.646,124.295 21.646,124.396L21.703,127.901L20.635,127.901L20.635,119.859Z" style="fill:rgb(158,161,168);fill-rule:nonzero;"/>
        </g>
        <g id="text1044" transform="matrix(1,0,0,1,0,-30)">
            <path id="path1069" d="M5.385,67.859L6.229,67.859L7.953,75.901L6.88,75.901L6.578,74.333L4.984,74.333L4.677,75.901L3.635,75.901L5.385,67.859ZM6.422,73.495L6.182,72.214C6.023,71.342 5.892,70.411 5.792,69.422C5.743,69.905 5.681,70.394 5.604,70.891C5.528,71.384 5.438,71.908 5.333,72.464L5.135,73.495L6.422,73.495Z" style="fill:rgb(158,161,168);fill-rule:nonzero;"/>
            <path id="path1071" d="M8.594,67.859L9.677,67.859L9.677,74.984L11.448,74.984L11.448,75.901L8.594,75.901L8.594,67.859Z" style="fill:rgb(158,161,168);fill-rule:nonzero;"/>
            <path id="path1073" d="M11.307,67.859L14.833,67.859L14.833,68.807L13.62,68.807L13.62,75.901L12.557,75.901L12.557,68.807L11.307,68.807L11.307,67.859Z" style="fill:rgb(158,161,168);fill-rule:nonzero;"/>
            <path id="path1075" d="M15.427,67.859L18.307,67.859L18.307,68.776L16.51,68.776L16.51,71.323L18.104,71.323L18.104,72.24L16.51,72.24L16.51,74.984L18.307,74.984L18.307,75.901L15.427,75.901L15.427,67.859Z" style="fill:rgb(158,161,168);fill-rule:nonzero;"/>
            <path id="path1077" d="M19.302,67.859L20.729,67.859C21.319,67.859 21.759,68 22.047,68.281C22.411,68.646 22.594,69.203 22.594,69.953C22.594,70.53 22.497,70.993 22.302,71.344C22.111,71.691 21.837,71.906 21.479,71.99L22.958,75.901L21.859,75.901L20.385,71.964L20.385,75.901L19.302,75.901L19.302,67.859ZM20.385,71.422C20.806,71.422 21.102,71.325 21.276,71.13C21.45,70.936 21.536,70.608 21.536,70.146C21.536,69.896 21.517,69.682 21.479,69.505C21.444,69.328 21.387,69.184 21.307,69.073C21.231,68.962 21.13,68.88 21.005,68.828C20.884,68.776 20.738,68.75 20.568,68.75L20.385,68.75L20.385,71.422Z" style="fill:rgb(158,161,168);fill-rule:nonzero;"/>
            <path id="path1079" d="M23.802,67.859L24.813,67.859L25.891,71.068C26.203,71.974 26.479,72.941 26.719,73.969C26.632,73.347 26.568,72.785 26.526,72.281C26.484,71.778 26.464,71.304 26.464,70.859L26.464,67.859L27.552,67.859L27.552,75.901L26.536,75.901L25.323,72.281C25.212,71.944 25.106,71.599 25.005,71.245C24.908,70.891 24.818,70.519 24.734,70.13C24.727,70.082 24.715,70.023 24.698,69.953C24.684,69.884 24.667,69.804 24.646,69.714C24.656,69.804 24.665,69.882 24.672,69.948C24.679,70.01 24.684,70.064 24.687,70.109L24.745,70.927L24.802,71.922C24.806,71.977 24.807,72.045 24.807,72.125C24.811,72.205 24.812,72.295 24.812,72.396L24.87,75.901L23.802,75.901L23.802,67.859Z" style="fill:rgb(158,161,168);fill-rule:nonzero;"/>
            <path id="path1081" d="M30.094,67.859L30.938,67.859L32.661,75.901L31.589,75.901L31.286,74.333L29.693,74.333L29.385,75.901L28.344,75.901L30.094,67.859ZM31.13,73.495L30.891,72.214C30.731,71.342 30.601,70.411 30.5,69.422C30.451,69.905 30.389,70.394 30.313,70.891C30.236,71.384 30.146,71.908 30.042,72.464L29.844,73.495L31.13,73.495Z" style="fill:rgb(158,161,168);fill-rule:nonzero;"/>
            <path id="path1083" d="M32.495,67.859L36.021,67.859L36.021,68.807L34.807,68.807L34.807,75.901L33.745,75.901L33.745,68.807L32.495,68.807L32.495,67.859Z" style="fill:rgb(158,161,168);fill-rule:nonzero;"/>
            <path id="path1085" d="M36.615,67.859L39.495,67.859L39.495,68.776L37.698,68.776L37.698,71.323L39.292,71.323L39.292,72.24L37.698,72.24L37.698,74.984L39.495,74.984L39.495,75.901L36.615,75.901L36.615,67.859Z" style="fill:rgb(158,161,168);fill-rule:nonzero;"/>
        </g>
        <g id="text1048" transform="matrix(1,0,0,1,-7.5,-20)">
            <path id="path1050" d="M40.695,42.026L40.695,43.083C40.365,42.847 40.069,42.729 39.805,42.729C39.52,42.729 39.287,42.83 39.107,43.031C38.926,43.222 38.836,43.477 38.836,43.797C38.836,44.078 38.9,44.319 39.029,44.521C39.095,44.628 39.202,44.767 39.352,44.938C39.504,45.108 39.701,45.312 39.94,45.552C40.381,46 40.681,46.387 40.841,46.714C41.001,47.03 41.081,47.417 41.081,47.875C41.081,48.497 40.905,49.009 40.555,49.411C40.204,49.804 39.754,50 39.206,50C38.744,50 38.35,49.873 38.023,49.62L38.023,48.547C38.409,48.828 38.76,48.969 39.076,48.969C39.371,48.969 39.602,48.872 39.768,48.677C39.935,48.479 40.018,48.212 40.018,47.875C40.018,47.583 39.954,47.321 39.826,47.089C39.76,46.977 39.668,46.851 39.549,46.708C39.431,46.562 39.284,46.401 39.107,46.224C38.832,45.953 38.605,45.714 38.424,45.505C38.244,45.297 38.11,45.115 38.023,44.958C37.857,44.653 37.773,44.267 37.773,43.802C37.773,43.174 37.937,42.675 38.263,42.307C38.593,41.936 39.036,41.75 39.591,41.75C39.977,41.75 40.345,41.842 40.695,42.026L40.695,42.026Z" style="fill:rgb(158,161,168);fill-rule:nonzero;"/>
            <path id="path1052" d="M41.477,41.859L45.003,41.859L45.003,42.807L43.789,42.807L43.789,49.901L42.727,49.901L42.727,42.807L41.477,42.807L41.477,41.859Z" style="fill:rgb(158,161,168);fill-rule:nonzero;"/>
            <path id="path1054" d="M45.596,41.859L47.023,41.859C47.614,41.859 48.053,42 48.341,42.281C48.706,42.646 48.888,43.203 48.888,43.953C48.888,44.53 48.791,44.993 48.596,45.344C48.405,45.691 48.131,45.906 47.773,45.99L49.253,49.901L48.154,49.901L46.68,45.964L46.68,49.901L45.596,49.901L45.596,41.859ZM46.68,45.422C47.1,45.422 47.397,45.325 47.57,45.13C47.744,44.936 47.831,44.608 47.831,44.146C47.831,43.896 47.812,43.682 47.773,43.505C47.739,43.328 47.681,43.184 47.602,43.073C47.525,42.962 47.424,42.88 47.299,42.828C47.178,42.776 47.032,42.75 46.862,42.75L46.68,42.75L46.68,45.422Z" style="fill:rgb(158,161,168);fill-rule:nonzero;"/>
            <path id="path1056" d="M49.971,41.859L51.034,41.859L51.034,47.542C51.034,48.122 51.086,48.507 51.19,48.698C51.298,48.889 51.51,48.984 51.826,48.984C52.141,48.984 52.35,48.901 52.451,48.734C52.555,48.564 52.607,48.219 52.607,47.698L52.607,41.859L53.669,41.859L53.669,47.698C53.669,48.573 53.536,49.165 53.268,49.474C52.949,49.825 52.461,50 51.805,50C51.082,50 50.574,49.774 50.279,49.323C50.074,49.014 49.971,48.42 49.971,47.542L49.971,41.859Z" style="fill:rgb(158,161,168);fill-rule:nonzero;"/>
            <path id="path1058" d="M55.289,41.859L56.216,41.859L56.924,45.141C57.011,45.55 57.089,45.962 57.159,46.375C57.232,46.785 57.298,47.215 57.357,47.667C57.364,47.608 57.369,47.562 57.372,47.531C57.376,47.497 57.379,47.472 57.383,47.458L57.534,46.536L57.669,45.661L57.789,45.083L58.419,41.859L59.357,41.859L60.096,49.901L59.06,49.901L58.878,47.172C58.871,47.033 58.864,46.913 58.857,46.812C58.853,46.712 58.852,46.628 58.852,46.562L58.805,45.484L58.779,44.495C58.779,44.488 58.777,44.474 58.773,44.453C58.773,44.429 58.772,44.398 58.768,44.359L58.742,44.521C58.714,44.712 58.688,44.878 58.664,45.021C58.643,45.163 58.624,45.283 58.607,45.38L58.471,46.115L58.419,46.391L57.742,49.901L57.013,49.901L56.377,46.87C56.291,46.47 56.212,46.066 56.143,45.656C56.077,45.243 56.016,44.811 55.961,44.359L55.648,49.901L54.627,49.901L55.289,41.859Z" style="fill:rgb(158,161,168);fill-rule:nonzero;"/>
            <path id="path1060" d="M63.581,41.859L64.508,41.859L65.216,45.141C65.303,45.55 65.381,45.962 65.451,46.375C65.523,46.785 65.589,47.215 65.648,47.667C65.656,47.608 65.661,47.562 65.664,47.531C65.667,47.497 65.671,47.472 65.675,47.458L65.826,46.536L65.961,45.661L66.081,45.083L66.711,41.859L67.648,41.859L68.388,49.901L67.352,49.901L67.169,47.172C67.162,47.033 67.155,46.913 67.149,46.812C67.145,46.712 67.143,46.628 67.143,46.562L67.096,45.484L67.07,44.495C67.07,44.488 67.069,44.474 67.065,44.453C67.065,44.429 67.063,44.398 67.06,44.359L67.034,44.521C67.006,44.712 66.98,44.878 66.955,45.021C66.935,45.163 66.915,45.283 66.898,45.38L66.763,46.115L66.711,46.391L66.034,49.901L65.304,49.901L64.669,46.87C64.582,46.47 64.504,46.066 64.435,45.656C64.369,45.243 64.308,44.811 64.252,44.359L63.94,49.901L62.919,49.901L63.581,41.859Z" style="fill:rgb(158,161,168);fill-rule:nonzero;"/>
            <path id="path1062" d="M73.31,46.078C73.31,47.498 73.152,48.507 72.836,49.104C72.52,49.701 71.99,50 71.247,50C70.466,50 69.916,49.679 69.596,49.036C69.28,48.408 69.122,47.292 69.122,45.687C69.122,44.257 69.279,43.245 69.591,42.651C69.907,42.054 70.442,41.755 71.195,41.755C71.869,41.755 72.369,41.986 72.695,42.448C72.911,42.757 73.067,43.196 73.164,43.766C73.261,44.293 73.31,45.064 73.31,46.078L73.31,46.078ZM72.174,46.193C72.174,44.8 72.112,43.877 71.987,43.422C71.862,42.964 71.607,42.734 71.221,42.734C70.836,42.734 70.579,42.944 70.451,43.365C70.326,43.788 70.263,44.639 70.263,45.917C70.263,47.094 70.329,47.91 70.461,48.365C70.596,48.795 70.85,49.01 71.221,49.01C71.586,49.01 71.836,48.809 71.971,48.406C72.107,48.007 72.174,47.269 72.174,46.193Z" style="fill:rgb(158,161,168);fill-rule:nonzero;"/>
            <path id="path1064" d="M74.388,41.859L75.721,41.859C76.128,41.859 76.47,41.905 76.747,41.995C77.004,42.082 77.234,42.236 77.435,42.458C77.737,42.792 77.952,43.226 78.081,43.76C78.209,44.278 78.273,45.019 78.273,45.984C78.273,46.87 78.202,47.592 78.06,48.151C77.921,48.686 77.692,49.094 77.372,49.375C76.98,49.726 76.277,49.901 75.263,49.901L74.388,49.901L74.388,41.859ZM75.471,48.953C76.131,48.953 76.572,48.753 76.794,48.354C77.023,47.955 77.138,47.179 77.138,46.026C77.138,44.786 77.029,43.934 76.81,43.469C76.591,43.003 76.19,42.771 75.607,42.771L75.471,42.771L75.471,48.953Z" style="fill:rgb(158,161,168);fill-rule:nonzero;"/>
            <path id="path1066" d="M79.346,41.859L82.227,41.859L82.227,42.776L80.43,42.776L80.43,45.323L82.023,45.323L82.023,46.24L80.43,46.24L80.43,48.984L82.227,48.984L82.227,49.901L79.346,49.901L79.346,41.859Z" style="fill:rgb(158,161,168);fill-rule:nonzero;"/>
        </g>
        <g id="text1125" transform="matrix(1,0,0,1,0,-2)">
            <path id="path1155" d="M35.32,116.026L35.32,117.083C34.99,116.847 34.694,116.729 34.43,116.729C34.145,116.729 33.912,116.83 33.732,117.031C33.551,117.222 33.461,117.477 33.461,117.797C33.461,118.078 33.525,118.319 33.654,118.521C33.72,118.629 33.827,118.767 33.977,118.938C34.129,119.108 34.326,119.313 34.565,119.552C35.006,120 35.306,120.387 35.466,120.714C35.626,121.03 35.706,121.417 35.706,121.875C35.706,122.497 35.53,123.009 35.18,123.411C34.829,123.804 34.379,124 33.831,124C33.369,124 32.975,123.873 32.648,123.62L32.648,122.547C33.034,122.828 33.385,122.969 33.701,122.969C33.996,122.969 34.227,122.872 34.393,122.677C34.56,122.479 34.643,122.212 34.643,121.875C34.643,121.583 34.579,121.321 34.451,121.089C34.385,120.977 34.293,120.851 34.174,120.708C34.056,120.563 33.909,120.401 33.732,120.224C33.457,119.953 33.23,119.714 33.049,119.505C32.869,119.297 32.735,119.115 32.648,118.958C32.482,118.653 32.398,118.267 32.398,117.802C32.398,117.174 32.562,116.675 32.888,116.307C33.218,115.936 33.661,115.75 34.216,115.75C34.602,115.75 34.97,115.842 35.32,116.026L35.32,116.026Z" style="fill:rgb(158,161,168);fill-rule:nonzero;"/>
            <path id="path1157" d="M36.102,115.859L39.628,115.859L39.628,116.807L38.414,116.807L38.414,123.901L37.352,123.901L37.352,116.807L36.102,116.807L36.102,115.859Z" style="fill:rgb(158,161,168);fill-rule:nonzero;"/>
            <path id="path1159" d="M40.221,115.859L41.648,115.859C42.239,115.859 42.678,116 42.966,116.281C43.331,116.646 43.513,117.203 43.513,117.953C43.513,118.53 43.416,118.993 43.221,119.344C43.03,119.691 42.756,119.906 42.398,119.99L43.878,123.901L42.779,123.901L41.305,119.964L41.305,123.901L40.221,123.901L40.221,115.859ZM41.305,119.422C41.725,119.422 42.022,119.325 42.195,119.13C42.369,118.936 42.456,118.608 42.456,118.146C42.456,117.896 42.437,117.682 42.398,117.505C42.364,117.328 42.306,117.184 42.227,117.073C42.15,116.962 42.049,116.88 41.924,116.828C41.803,116.776 41.657,116.75 41.487,116.75L41.305,116.75L41.305,119.422Z" style="fill:rgb(158,161,168);fill-rule:nonzero;"/>
            <path id="path1162" d="M44.596,115.859L45.659,115.859L45.659,121.542C45.659,122.122 45.711,122.507 45.815,122.698C45.923,122.889 46.135,122.984 46.451,122.984C46.766,122.984 46.975,122.901 47.076,122.734C47.18,122.564 47.232,122.219 47.232,121.698L47.232,115.859L48.294,115.859L48.294,121.698C48.294,122.573 48.161,123.165 47.893,123.474C47.574,123.825 47.086,124 46.43,124C45.707,124 45.199,123.774 44.904,123.323C44.699,123.014 44.596,122.42 44.596,121.542L44.596,115.859Z" style="fill:rgb(158,161,168);fill-rule:nonzero;"/>
            <path id="path1165" d="M49.914,115.859L50.841,115.859L51.549,119.141C51.636,119.55 51.714,119.962 51.784,120.375C51.857,120.785 51.923,121.215 51.982,121.667C51.989,121.608 51.994,121.563 51.997,121.531C52.001,121.497 52.004,121.472 52.008,121.458L52.159,120.536L52.294,119.662L52.414,119.083L53.044,115.859L53.982,115.859L54.721,123.901L53.685,123.901L53.503,121.172C53.496,121.033 53.489,120.913 53.482,120.813C53.478,120.712 53.477,120.628 53.477,120.563L53.43,119.484L53.404,118.495C53.404,118.488 53.402,118.474 53.398,118.453C53.398,118.429 53.397,118.398 53.393,118.359L53.367,118.521C53.339,118.712 53.313,118.878 53.289,119.021C53.268,119.163 53.249,119.283 53.232,119.38L53.096,120.115L53.044,120.391L52.367,123.901L51.638,123.901L51.003,120.87C50.916,120.471 50.838,120.066 50.768,119.656C50.702,119.243 50.642,118.811 50.586,118.359L50.273,123.901L49.253,123.901L49.914,115.859Z" style="fill:rgb(158,161,168);fill-rule:nonzero;"/>
            <path id="path1168" d="M57.185,115.859L60.711,115.859L60.711,116.807L59.497,116.807L59.497,123.901L58.435,123.901L58.435,116.807L57.185,116.807L57.185,115.859Z" style="fill:rgb(158,161,168);fill-rule:nonzero;"/>
            <rect id="path1171" x="61.305" y="115.859" width="1.083" height="8.042" style="fill:rgb(158,161,168);fill-rule:nonzero;"/>
            <path id="path1174" d="M64.018,115.859L64.945,115.859L65.654,119.141C65.74,119.55 65.819,119.962 65.888,120.375C65.961,120.785 66.027,121.215 66.086,121.667C66.093,121.608 66.098,121.563 66.101,121.531C66.105,121.497 66.108,121.472 66.112,121.458L66.263,120.536L66.398,119.662L66.518,119.083L67.148,115.859L68.086,115.859L68.826,123.901L67.789,123.901L67.607,121.172C67.6,121.033 67.593,120.913 67.586,120.813C67.582,120.712 67.581,120.628 67.581,120.563L67.534,119.484L67.508,118.495C67.508,118.488 67.506,118.474 67.502,118.453C67.502,118.429 67.501,118.398 67.497,118.359L67.471,118.521C67.443,118.712 67.417,118.878 67.393,119.021C67.372,119.163 67.353,119.283 67.336,119.38L67.2,120.115L67.148,120.391L66.471,123.901L65.742,123.901L65.106,120.87C65.02,120.471 64.942,120.066 64.872,119.656C64.806,119.243 64.745,118.811 64.69,118.359L64.377,123.901L63.357,123.901L64.018,115.859Z" style="fill:rgb(158,161,168);fill-rule:nonzero;"/>
            <path id="path1176" d="M69.721,115.859L72.602,115.859L72.602,116.776L70.805,116.776L70.805,119.323L72.398,119.323L72.398,120.24L70.805,120.24L70.805,122.984L72.602,122.984L72.602,123.901L69.721,123.901L69.721,115.859Z" style="fill:rgb(158,161,168);fill-rule:nonzero;"/>
        </g>
        <g id="text1129" transform="matrix(1,0,0,1,0,12)">
            <path id="path1132" d="M30.073,142.026L30.073,143.083C29.743,142.847 29.446,142.729 29.182,142.729C28.898,142.729 28.665,142.83 28.484,143.031C28.304,143.222 28.214,143.477 28.214,143.797C28.214,144.078 28.278,144.319 28.406,144.521C28.472,144.628 28.58,144.767 28.729,144.938C28.882,145.108 29.078,145.312 29.318,145.552C29.759,146 30.059,146.387 30.219,146.714C30.378,147.03 30.458,147.417 30.458,147.875C30.458,148.497 30.283,149.009 29.932,149.411C29.582,149.804 29.132,150 28.583,150C28.122,150 27.727,149.873 27.401,149.62L27.401,148.547C27.786,148.828 28.137,148.969 28.453,148.969C28.748,148.969 28.979,148.872 29.146,148.677C29.312,148.479 29.396,148.212 29.396,147.875C29.396,147.583 29.332,147.321 29.203,147.089C29.137,146.977 29.045,146.851 28.927,146.708C28.809,146.562 28.661,146.401 28.484,146.224C28.21,145.953 27.983,145.714 27.802,145.505C27.622,145.297 27.488,145.115 27.401,144.958C27.234,144.653 27.151,144.267 27.151,143.802C27.151,143.174 27.314,142.675 27.641,142.307C27.97,141.936 28.413,141.75 28.969,141.75C29.354,141.75 29.722,141.842 30.073,142.026L30.073,142.026Z" style="fill:rgb(158,161,168);fill-rule:nonzero;"/>
            <path id="path1134" d="M30.854,141.859L34.38,141.859L34.38,142.807L33.167,142.807L33.167,149.901L32.104,149.901L32.104,142.807L30.854,142.807L30.854,141.859Z" style="fill:rgb(158,161,168);fill-rule:nonzero;"/>
            <path id="path1136" d="M34.974,141.859L36.401,141.859C36.991,141.859 37.431,142 37.719,142.281C38.083,142.646 38.266,143.203 38.266,143.953C38.266,144.53 38.168,144.993 37.974,145.344C37.783,145.691 37.509,145.906 37.151,145.99L38.63,149.901L37.531,149.901L36.057,145.964L36.057,149.901L34.974,149.901L34.974,141.859ZM36.057,145.422C36.477,145.422 36.774,145.325 36.948,145.13C37.122,144.936 37.208,144.608 37.208,144.146C37.208,143.896 37.189,143.682 37.151,143.505C37.116,143.328 37.059,143.184 36.979,143.073C36.903,142.962 36.802,142.88 36.677,142.828C36.556,142.776 36.41,142.75 36.24,142.75L36.057,142.75L36.057,145.422Z" style="fill:rgb(158,161,168);fill-rule:nonzero;"/>
            <path id="path1138" d="M39.349,141.859L40.411,141.859L40.411,147.542C40.411,148.122 40.464,148.507 40.568,148.698C40.675,148.889 40.887,148.984 41.203,148.984C41.519,148.984 41.727,148.901 41.828,148.734C41.932,148.564 41.984,148.219 41.984,147.698L41.984,141.859L43.047,141.859L43.047,147.698C43.047,148.573 42.913,149.165 42.646,149.474C42.326,149.825 41.839,150 41.182,150C40.46,150 39.951,149.774 39.656,149.323C39.451,149.014 39.349,148.42 39.349,147.542L39.349,141.859Z" style="fill:rgb(158,161,168);fill-rule:nonzero;"/>
            <path id="path1140" d="M44.667,141.859L45.594,141.859L46.302,145.141C46.389,145.55 46.467,145.962 46.536,146.375C46.609,146.785 46.675,147.215 46.734,147.667C46.741,147.608 46.747,147.562 46.75,147.531C46.753,147.497 46.757,147.472 46.76,147.458L46.911,146.536L47.047,145.661L47.167,145.083L47.797,141.859L48.734,141.859L49.474,149.901L48.438,149.901L48.255,147.172C48.248,147.033 48.241,146.913 48.234,146.813C48.231,146.712 48.229,146.629 48.229,146.563L48.182,145.484L48.156,144.495C48.156,144.488 48.154,144.474 48.151,144.453C48.151,144.429 48.149,144.398 48.146,144.359L48.12,144.521C48.092,144.712 48.066,144.878 48.041,145.021C48.021,145.163 48.001,145.283 47.984,145.38L47.849,146.115L47.797,146.391L47.12,149.901L46.39,149.901L45.755,146.87C45.668,146.471 45.59,146.066 45.521,145.656C45.455,145.243 45.394,144.811 45.338,144.359L45.026,149.901L44.005,149.901L44.667,141.859Z" style="fill:rgb(158,161,168);fill-rule:nonzero;"/>
            <path id="path1142" d="M54.505,145.672L56.474,145.672L56.474,145.984C56.474,147.55 56.337,148.608 56.062,149.156C55.792,149.719 55.285,150 54.542,150C53.774,150 53.227,149.687 52.901,149.062C52.578,148.437 52.417,147.387 52.417,145.911C52.417,144.224 52.594,143.101 52.948,142.542C53.281,142.017 53.793,141.755 54.484,141.755C55.012,141.755 55.424,141.882 55.719,142.135C56.017,142.392 56.25,142.814 56.417,143.401L55.406,143.823C55.361,143.611 55.311,143.434 55.255,143.292C55.2,143.146 55.139,143.033 55.073,142.953C54.941,142.79 54.743,142.708 54.479,142.708C54.118,142.708 53.872,142.931 53.74,143.375C53.608,143.84 53.542,144.675 53.542,145.88C53.542,147.099 53.609,147.924 53.745,148.354C53.88,148.785 54.135,149 54.51,149C54.854,149 55.095,148.847 55.234,148.542C55.377,148.215 55.448,147.691 55.448,146.969L55.448,146.75L55.448,146.589L54.505,146.589L54.505,145.672Z" style="fill:rgb(158,161,168);fill-rule:nonzero;"/>
            <path id="path1144" d="M57.557,141.859L58.641,141.859L58.641,148.984L60.411,148.984L60.411,149.901L57.557,149.901L57.557,141.859Z" style="fill:rgb(158,161,168);fill-rule:nonzero;"/>
            <path id="path1146" d="M65.125,146.078C65.125,147.498 64.967,148.507 64.651,149.104C64.335,149.701 63.806,150 63.062,150C62.281,150 61.731,149.679 61.411,149.036C61.095,148.408 60.937,147.292 60.937,145.688C60.937,144.257 61.094,143.245 61.406,142.651C61.722,142.054 62.257,141.755 63.01,141.755C63.684,141.755 64.184,141.986 64.51,142.448C64.726,142.757 64.882,143.196 64.979,143.766C65.076,144.293 65.125,145.064 65.125,146.078L65.125,146.078ZM63.99,146.193C63.99,144.8 63.927,143.877 63.802,143.422C63.677,142.964 63.422,142.734 63.036,142.734C62.651,142.734 62.394,142.944 62.266,143.365C62.141,143.788 62.078,144.639 62.078,145.917C62.078,147.094 62.144,147.91 62.276,148.365C62.411,148.795 62.665,149.01 63.036,149.01C63.401,149.01 63.651,148.809 63.786,148.406C63.922,148.007 63.99,147.269 63.99,146.193L63.99,146.193Z" style="fill:rgb(158,161,168);fill-rule:nonzero;"/>
            <path id="path1148" d="M66.203,141.859L67.672,141.859C68.821,141.859 69.396,142.573 69.396,144C69.396,144.545 69.321,144.95 69.172,145.214C69.023,145.477 68.759,145.677 68.38,145.813C68.814,145.986 69.111,146.208 69.271,146.479C69.434,146.747 69.516,147.149 69.516,147.688C69.516,149.163 68.884,149.901 67.62,149.901L66.203,149.901L66.203,141.859ZM67.224,145.401C67.644,145.401 67.936,145.304 68.099,145.109C68.262,144.905 68.344,144.545 68.344,144.031C68.344,143.163 68.031,142.729 67.406,142.729L67.323,142.729L67.276,142.729C67.248,142.729 67.231,142.731 67.224,142.734L67.224,145.401ZM67.224,148.974C67.668,148.974 67.976,148.878 68.146,148.688C68.316,148.497 68.401,148.151 68.401,147.651C68.401,147.137 68.312,146.778 68.135,146.573C67.962,146.365 67.658,146.26 67.224,146.26L67.224,148.974Z" style="fill:rgb(158,161,168);fill-rule:nonzero;"/>
            <path id="path1150" d="M71.786,141.859L72.63,141.859L74.354,149.901L73.281,149.901L72.979,148.333L71.385,148.333L71.078,149.901L70.036,149.901L71.786,141.859ZM72.823,147.495L72.583,146.214C72.424,145.342 72.293,144.411 72.193,143.422C72.144,143.905 72.082,144.394 72.005,144.891C71.929,145.384 71.839,145.908 71.734,146.464L71.536,147.495L72.823,147.495Z" style="fill:rgb(158,161,168);fill-rule:nonzero;"/>
            <path id="path1152" d="M74.995,141.859L76.078,141.859L76.078,148.984L77.849,148.984L77.849,149.901L74.995,149.901L74.995,141.859Z" style="fill:rgb(158,161,168);fill-rule:nonzero;"/>
        </g>
    </g>
</svg>
