<?xml version="1.0" encoding="UTF-8" standalone="no"?>
<!DOCTYPE svg PUBLIC "-//W3C//DTD SVG 1.1//EN" "http://www.w3.org/Graphics/SVG/1.1/DTD/svg11.dtd">
<svg width="100%" height="100%" viewBox="0 0 150 380" version="1.1" xmlns="http://www.w3.org/2000/svg" xmlns:xlink="http://www.w3.org/1999/xlink" xml:space="preserve" xmlns:serif="http://www.serif.com/" style="fill-rule:evenodd;clip-rule:evenodd;stroke-linejoin:round;stroke-miterlimit:2;">
    <g id="Layer-2" serif:id="Layer 2">
        <rect id="rect4689" x="0" y="0" width="150" height="380" style="fill:rgb(44,45,48);fill-rule:nonzero;"/>
        <g id="text989">
        </g>
        <g id="text80" transform="matrix(1.00498,0,0,0.995047,30,4.99997)">
            <path id="path4726" d="M29.851,371.706L29.851,363.943L31.853,363.943L32.903,366.668C32.96,366.829 33.024,367.013 33.094,367.221C33.168,367.429 33.249,367.668 33.336,367.94L33.552,368.624C33.475,367.95 33.416,367.373 33.376,366.894C33.336,366.415 33.316,366.013 33.316,365.687L33.316,363.943L35.317,363.943L35.317,371.706L33.316,371.706L32.26,368.85C32.149,368.545 32.049,368.26 31.958,367.995C31.871,367.727 31.794,367.472 31.727,367.231C31.77,367.777 31.802,368.253 31.822,368.659C31.843,369.065 31.853,369.42 31.853,369.725L31.853,371.706L29.851,371.706Z" style="fill:rgb(158,161,168);fill-rule:nonzero;"/>
            <path id="path4728" d="M39.887,371.706L37.791,371.706L37.791,368.418L35.865,363.943L38.052,363.943L38.429,365.094C38.503,365.319 38.568,365.535 38.625,365.743C38.686,365.951 38.739,366.15 38.786,366.341C38.863,366.056 38.93,365.811 38.987,365.607C39.044,365.399 39.095,365.232 39.138,365.104L39.52,363.943L41.692,363.943L39.887,368.418L39.887,371.706Z" style="fill:rgb(158,161,168);fill-rule:nonzero;"/>
            <path id="path4730" d="M41.894,371.515L41.894,369.076C42.306,369.639 42.752,369.921 43.231,369.921C43.412,369.921 43.56,369.874 43.673,369.78C43.787,369.683 43.844,369.562 43.844,369.418C43.844,369.21 43.72,369.008 43.472,368.81L43.13,368.543C42.902,368.372 42.708,368.203 42.547,368.035C42.386,367.865 42.256,367.69 42.155,367.513C42.054,367.332 41.981,367.146 41.934,366.954C41.887,366.763 41.863,366.562 41.863,366.351C41.863,365.989 41.947,365.61 42.115,365.215C42.199,365.03 42.296,364.863 42.406,364.712C42.517,364.558 42.644,364.422 42.789,364.305C43.184,363.969 43.662,363.802 44.222,363.802C44.721,363.802 45.224,363.934 45.73,364.199L45.73,366.572C45.559,366.308 45.365,366.1 45.147,365.949C44.929,365.795 44.714,365.718 44.503,365.718C44.342,365.718 44.21,365.765 44.106,365.858C43.999,365.949 43.945,366.058 43.945,366.185C43.945,366.393 44.087,366.599 44.372,366.804L44.704,367.05C45.147,367.368 45.463,367.695 45.655,368.03C45.849,368.366 45.946,368.758 45.946,369.207C45.946,369.971 45.713,370.601 45.247,371.098C44.781,371.594 44.191,371.842 43.477,371.842C42.985,371.842 42.457,371.733 41.894,371.515L41.894,371.515Z" style="fill:rgb(158,161,168);fill-rule:nonzero;"/>
            <path id="path4732" d="M49.576,371.706L47.48,371.706L47.48,365.803L46.323,365.803L46.323,363.943L50.778,363.943L50.778,365.803L49.576,365.803L49.576,371.706Z" style="fill:rgb(158,161,168);fill-rule:nonzero;"/>
            <path id="path4734" d="M56.525,371.706L54.428,371.706L54.428,368.584L53.428,368.584L53.428,371.706L51.331,371.706L51.331,363.943L53.428,363.943L53.428,366.688L54.428,366.688L54.428,363.943L56.525,363.943L56.525,371.706Z" style="fill:rgb(158,161,168);fill-rule:nonzero;"/>
            <rect id="path4736" x="57.606" y="363.943" width="2.097" height="7.763" style="fill:rgb(158,161,168);fill-rule:nonzero;"/>
        </g>
        <g id="text4987">
        </g>
        <g id="text1321">
        </g>
        <g id="text1047">
            <path id="path1404" d="M43.516,17.789L40.258,17.789L40.258,8.617L38.461,8.617L38.461,5.727L45.383,5.727L45.383,8.617L43.516,8.617L43.516,17.789Z" style="fill:rgb(158,161,168);fill-rule:nonzero;"/>
            <path id="path1406" d="M51.164,5.727L54.422,5.727L54.422,14.258C54.422,14.971 54.31,15.549 54.086,15.992C53.867,16.456 53.503,16.875 52.992,17.25C52.305,17.75 51.469,18 50.484,18C49.37,18 48.435,17.724 47.68,17.172C46.721,16.469 46.242,15.344 46.242,13.797L46.242,5.727L49.5,5.727L49.5,13.508C49.5,14.034 49.563,14.406 49.688,14.625C49.818,14.844 50.034,14.953 50.336,14.953C50.648,14.953 50.865,14.852 50.984,14.648C51.104,14.435 51.164,14.057 51.164,13.516L51.164,5.727Z" style="fill:rgb(158,161,168);fill-rule:nonzero;"/>
            <path id="path1408" d="M56.117,17.789L56.117,5.727L59.227,5.727L60.859,9.961C60.948,10.211 61.047,10.497 61.156,10.82C61.271,11.143 61.396,11.516 61.531,11.937L61.867,13C61.747,11.953 61.656,11.057 61.594,10.312C61.531,9.568 61.5,8.943 61.5,8.437L61.5,5.727L64.609,5.727L64.609,17.789L61.5,17.789L59.859,13.352C59.688,12.878 59.531,12.435 59.391,12.023C59.255,11.607 59.135,11.211 59.031,10.836C59.099,11.685 59.148,12.424 59.18,13.055C59.211,13.685 59.227,14.237 59.227,14.711L59.227,17.789L56.117,17.789Z" style="fill:rgb(158,161,168);fill-rule:nonzero;"/>
            <path id="path1410" d="M75.086,17.789L71.719,17.789L71.477,16.258L69.281,16.258L69.016,17.789L65.648,17.789L68.547,5.727L72.531,5.727L75.086,17.789ZM71.094,13.672L70.883,12.266C70.878,12.26 70.867,12.19 70.851,12.055C70.841,11.94 70.786,11.487 70.687,10.695C70.677,10.607 70.664,10.487 70.648,10.336C70.633,10.18 70.612,9.984 70.586,9.75L70.484,8.609C70.474,8.719 70.458,8.841 70.437,8.977C70.422,9.112 70.404,9.26 70.383,9.422C70.346,9.745 70.32,9.969 70.305,10.094C70.289,10.219 70.278,10.294 70.273,10.32L70.047,11.781L69.718,13.672L71.094,13.672Z" style="fill:rgb(158,161,168);fill-rule:nonzero;"/>
            <path id="path1412" d="M80.234,17.789L76.977,17.789L76.977,8.617L75.18,8.617L75.18,5.727L82.102,5.727L82.102,8.617L80.234,8.617L80.234,17.789Z" style="fill:rgb(158,161,168);fill-rule:nonzero;"/>
            <path id="path1414" d="M91.031,17.789L87.773,17.789L87.773,12.937L86.219,12.937L86.219,17.789L82.961,17.789L82.961,5.727L86.219,5.727L86.219,9.992L87.773,9.992L87.773,5.727L91.031,5.727L91.031,17.789Z" style="fill:rgb(158,161,168);fill-rule:nonzero;"/>
            <path id="path1416" d="M101.578,11.797C101.578,13.635 101.159,15.13 100.32,16.281C99.487,17.427 98.401,18 97.063,18C95.875,18 94.857,17.56 94.008,16.68C92.94,15.565 92.406,13.893 92.406,11.664C92.406,9.529 92.964,7.896 94.078,6.766C94.906,5.927 95.888,5.508 97.023,5.508C98.414,5.508 99.521,6.076 100.344,7.211C101.167,8.346 101.578,9.875 101.578,11.797ZM98.195,11.82C98.195,9.638 97.81,8.547 97.039,8.547C96.654,8.547 96.346,8.833 96.117,9.406C95.893,9.937 95.781,10.719 95.781,11.75C95.781,12.766 95.885,13.555 96.094,14.117C96.307,14.674 96.602,14.953 96.977,14.953C97.362,14.953 97.659,14.677 97.867,14.125C98.086,13.573 98.195,12.805 98.195,11.82L98.195,11.82Z" style="fill:rgb(158,161,168);fill-rule:nonzero;"/>
            <path id="path1418" d="M111.539,17.789L108.016,17.789L106.406,13.492C106.391,13.419 106.362,13.323 106.32,13.203C106.284,13.083 106.237,12.94 106.18,12.773L106.203,13.57L106.203,17.789L102.961,17.789L102.961,5.727L106.297,5.727C107.766,5.727 108.865,6.016 109.594,6.594C110.521,7.333 110.984,8.385 110.984,9.75C110.984,11.208 110.362,12.216 109.117,12.773L111.539,17.789ZM106.219,11.312L106.438,11.312C106.813,11.312 107.125,11.169 107.375,10.883C107.625,10.596 107.75,10.232 107.75,9.789C107.75,8.888 107.279,8.437 106.336,8.437L106.219,8.437L106.219,11.312Z" style="fill:rgb(158,161,168);fill-rule:nonzero;"/>
        </g>
        <g id="text1072" transform="matrix(0.860538,0,0,1.16206,0,0)">
            <path id="path1339" d="M8.931,71.411L8.931,72.668C8.572,72.494 8.272,72.406 8.03,72.406C7.698,72.406 7.414,72.489 7.176,72.655C6.939,72.816 6.741,73.067 6.584,73.408C6.432,73.749 6.318,74.181 6.242,74.705C6.17,75.225 6.134,75.842 6.134,76.554C6.134,79.118 6.791,80.4 8.104,80.4C8.332,80.4 8.608,80.328 8.931,80.185L8.931,81.469C8.595,81.657 8.218,81.751 7.801,81.751C5.699,81.751 4.648,80.035 4.648,76.601C4.648,74.746 4.904,73.365 5.415,72.46C5.93,71.555 6.717,71.102 7.774,71.102C8.164,71.102 8.55,71.205 8.931,71.411L8.931,71.411Z" style="fill:rgb(158,161,168);fill-rule:nonzero;"/>
            <path id="path1341" d="M11.956,71.243L13.045,71.243L15.271,81.623L13.886,81.623L13.496,79.6L11.438,79.6L11.042,81.623L9.697,81.623L11.956,71.243ZM13.294,78.517L12.985,76.864C12.779,75.739 12.61,74.537 12.48,73.26C12.418,73.883 12.337,74.515 12.238,75.156C12.14,75.792 12.023,76.469 11.889,77.186L11.633,78.517L13.294,78.517Z" style="fill:rgb(158,161,168);fill-rule:nonzero;"/>
            <path id="path1343" d="M16.097,71.243L17.496,71.243L17.496,80.44L19.782,80.44L19.782,81.623L16.097,81.623L16.097,71.243Z" style="fill:rgb(158,161,168);fill-rule:nonzero;"/>
            <rect id="path1345" x="20.669" y="71.243" width="1.398" height="10.38" style="fill:rgb(158,161,168);fill-rule:nonzero;"/>
            <path id="path1347" d="M23.681,71.243L25.577,71.243C27.06,71.243 27.802,72.164 27.802,74.006C27.802,74.71 27.706,75.232 27.513,75.573C27.32,75.913 26.98,76.171 26.491,76.346C27.051,76.57 27.435,76.857 27.641,77.206C27.851,77.552 27.957,78.071 27.957,78.766C27.957,80.671 27.141,81.623 25.51,81.623L23.681,81.623L23.681,71.243ZM24.999,75.815C25.541,75.815 25.917,75.689 26.128,75.438C26.339,75.174 26.444,74.71 26.444,74.047C26.444,72.926 26.041,72.366 25.234,72.366L25.126,72.366L25.066,72.366C25.03,72.366 25.008,72.368 24.999,72.373L24.999,75.815ZM24.999,80.427C25.572,80.427 25.969,80.303 26.189,80.057C26.408,79.81 26.518,79.365 26.518,78.719C26.518,78.056 26.404,77.592 26.175,77.327C25.951,77.059 25.559,76.924 24.999,76.924L24.999,80.427Z" style="fill:rgb(158,161,168);fill-rule:nonzero;"/>
            <path id="path1350" d="M29.355,71.243L31.197,71.243C31.959,71.243 32.526,71.425 32.898,71.788C33.369,72.258 33.604,72.978 33.604,73.946C33.604,74.69 33.479,75.288 33.228,75.741C32.981,76.189 32.627,76.467 32.165,76.574L34.075,81.623L32.656,81.623L30.753,76.541L30.753,81.623L29.355,81.623L29.355,71.243ZM30.753,75.842C31.296,75.842 31.679,75.716 31.903,75.465C32.127,75.214 32.239,74.791 32.239,74.195C32.239,73.872 32.215,73.596 32.165,73.368C32.12,73.139 32.047,72.953 31.943,72.81C31.845,72.666 31.715,72.561 31.554,72.494C31.397,72.426 31.208,72.393 30.989,72.393L30.753,72.393L30.753,75.842Z" style="fill:rgb(158,161,168);fill-rule:nonzero;"/>
            <path id="path1352" d="M36.643,71.243L37.732,71.243L39.957,81.623L38.572,81.623L38.182,79.6L36.125,79.6L35.728,81.623L34.384,81.623L36.643,71.243ZM37.981,78.517L37.671,76.864C37.465,75.739 37.297,74.537 37.167,73.26C37.104,73.883 37.024,74.515 36.925,75.156C36.827,75.792 36.71,76.469 36.576,77.186L36.32,78.517L37.981,78.517Z" style="fill:rgb(158,161,168);fill-rule:nonzero;"/>
            <path id="path1354" d="M39.742,71.243L44.294,71.243L44.294,72.467L42.727,72.467L42.727,81.623L41.356,81.623L41.356,72.467L39.742,72.467L39.742,71.243Z" style="fill:rgb(158,161,168);fill-rule:nonzero;"/>
            <rect id="path1356" x="45.06" y="71.243" width="1.398" height="10.38" style="fill:rgb(158,161,168);fill-rule:nonzero;"/>
            <path id="path1358" d="M53.269,76.689C53.269,78.522 53.065,79.824 52.657,80.595C52.249,81.366 51.566,81.751 50.606,81.751C49.598,81.751 48.888,81.337 48.475,80.507C48.067,79.696 47.863,78.255 47.863,76.185C47.863,74.338 48.065,73.031 48.468,72.265C48.876,71.494 49.567,71.109 50.539,71.109C51.409,71.109 52.054,71.407 52.475,72.003C52.753,72.402 52.955,72.969 53.08,73.704C53.206,74.385 53.269,75.38 53.269,76.689L53.269,76.689ZM51.803,76.837C51.803,75.039 51.722,73.847 51.561,73.26C51.4,72.668 51.07,72.373 50.573,72.373C50.075,72.373 49.744,72.644 49.578,73.186C49.416,73.733 49.336,74.831 49.336,76.48C49.336,78 49.421,79.053 49.591,79.64C49.766,80.196 50.093,80.474 50.573,80.474C51.043,80.474 51.366,80.214 51.541,79.694C51.716,79.178 51.803,78.226 51.803,76.837L51.803,76.837Z" style="fill:rgb(158,161,168);fill-rule:nonzero;"/>
            <path id="path1360" d="M54.66,71.243L55.965,71.243L57.356,75.385C57.76,76.554 58.116,77.803 58.425,79.129C58.313,78.327 58.23,77.601 58.176,76.951C58.123,76.301 58.096,75.689 58.096,75.116L58.096,71.243L59.501,71.243L59.501,81.623L58.19,81.623L56.623,76.951C56.48,76.516 56.343,76.07 56.213,75.613C56.088,75.156 55.971,74.676 55.864,74.174C55.855,74.112 55.839,74.035 55.817,73.946C55.799,73.856 55.776,73.753 55.749,73.637C55.763,73.753 55.774,73.854 55.783,73.939C55.792,74.02 55.799,74.089 55.803,74.147L55.877,75.203L55.951,76.487C55.956,76.559 55.958,76.646 55.958,76.749C55.962,76.852 55.965,76.969 55.965,77.099L56.039,81.623L54.66,81.623L54.66,71.243Z" style="fill:rgb(158,161,168);fill-rule:nonzero;"/>
            <path id="path1362" d="M63.138,71.243L64.516,71.243L65.141,75.075L65.249,75.768L65.471,77.274C65.507,77.529 65.538,77.762 65.565,77.973C65.596,78.183 65.623,78.374 65.646,78.544L65.713,79.055C65.726,78.952 65.737,78.86 65.747,78.78C65.756,78.699 65.765,78.632 65.773,78.578L65.955,77.375L66.19,75.795C66.213,75.651 66.233,75.519 66.251,75.398C66.273,75.277 66.293,75.169 66.311,75.075L66.984,71.243L68.288,71.243L66.251,81.623L65.141,81.623L63.138,71.243Z" style="fill:rgb(158,161,168);fill-rule:nonzero;"/>
            <path id="path1364" d="M74.271,76.689C74.271,78.522 74.067,79.824 73.659,80.595C73.252,81.366 72.568,81.751 71.609,81.751C70.6,81.751 69.89,81.337 69.478,80.507C69.07,79.696 68.866,78.255 68.866,76.185C68.866,74.338 69.068,73.031 69.471,72.265C69.879,71.494 70.569,71.109 71.542,71.109C72.411,71.109 73.057,71.407 73.478,72.003C73.756,72.402 73.957,72.969 74.083,73.704C74.208,74.385 74.271,75.38 74.271,76.689L74.271,76.689ZM72.806,76.837C72.806,75.039 72.725,73.847 72.564,73.26C72.402,72.668 72.073,72.373 71.575,72.373C71.078,72.373 70.746,72.644 70.58,73.186C70.419,73.733 70.338,74.831 70.338,76.48C70.338,78 70.423,79.053 70.594,79.64C70.768,80.196 71.096,80.474 71.575,80.474C72.046,80.474 72.369,80.214 72.543,79.694C72.718,79.178 72.806,78.226 72.806,76.837L72.806,76.837Z" style="fill:rgb(158,161,168);fill-rule:nonzero;"/>
            <path id="path1367" d="M75.663,71.243L77.061,71.243L77.061,80.44L79.347,80.44L79.347,81.623L75.663,81.623L75.663,71.243Z" style="fill:rgb(158,161,168);fill-rule:nonzero;"/>
            <path id="path1369" d="M79.166,71.243L83.717,71.243L83.717,72.467L82.15,72.467L82.15,81.623L80.779,81.623L80.779,72.467L79.166,72.467L79.166,71.243Z" style="fill:rgb(158,161,168);fill-rule:nonzero;"/>
            <path id="path1371" d="M85.774,71.243L86.863,71.243L89.089,81.623L87.704,81.623L87.314,79.6L85.257,79.6L84.86,81.623L83.515,81.623L85.774,71.243ZM87.112,78.517L86.803,76.864C86.597,75.739 86.429,74.537 86.299,73.26C86.236,73.883 86.155,74.515 86.057,75.156C85.958,75.792 85.841,76.469 85.707,77.186L85.451,78.517L87.112,78.517Z" style="fill:rgb(158,161,168);fill-rule:nonzero;"/>
            <path id="path1373" d="M92.376,76.164L94.917,76.164L94.917,76.568C94.917,78.589 94.74,79.954 94.386,80.662C94.037,81.388 93.382,81.751 92.423,81.751C91.433,81.751 90.727,81.348 90.305,80.541C89.889,79.734 89.68,78.378 89.68,76.474C89.68,74.295 89.909,72.845 90.366,72.124C90.796,71.447 91.457,71.109 92.349,71.109C93.03,71.109 93.562,71.272 93.943,71.599C94.328,71.931 94.628,72.476 94.843,73.233L93.539,73.778C93.481,73.504 93.416,73.276 93.344,73.092C93.273,72.904 93.194,72.758 93.109,72.655C92.939,72.444 92.683,72.339 92.343,72.339C91.876,72.339 91.558,72.626 91.388,73.2C91.218,73.8 91.132,74.878 91.132,76.433C91.132,78.006 91.22,79.071 91.395,79.627C91.569,80.182 91.899,80.46 92.383,80.46C92.827,80.46 93.138,80.263 93.317,79.869C93.501,79.447 93.593,78.771 93.593,77.838L93.593,77.556L93.593,77.348L92.376,77.348L92.376,76.164Z" style="fill:rgb(158,161,168);fill-rule:nonzero;"/>
            <path id="path1375" d="M96.316,71.243L100.034,71.243L100.034,72.426L97.714,72.426L97.714,75.714L99.771,75.714L99.771,76.897L97.714,76.897L97.714,80.44L100.034,80.44L100.034,81.623L96.316,81.623L96.316,71.243Z" style="fill:rgb(158,161,168);fill-rule:nonzero;"/>
            <path id="path1377" d="M109.365,76.689C109.365,78.522 109.161,79.824 108.753,80.595C108.345,81.366 107.662,81.751 106.703,81.751C105.694,81.751 104.984,81.337 104.572,80.507C104.164,79.696 103.96,78.255 103.96,76.185C103.96,74.338 104.161,73.031 104.565,72.265C104.973,71.494 105.663,71.109 106.636,71.109C107.505,71.109 108.15,71.407 108.572,72.003C108.85,72.402 109.051,72.969 109.177,73.704C109.302,74.385 109.365,75.38 109.365,76.689L109.365,76.689ZM107.899,76.837C107.899,75.039 107.819,73.847 107.657,73.26C107.496,72.668 107.167,72.373 106.669,72.373C106.172,72.373 105.84,72.644 105.674,73.186C105.513,73.733 105.432,74.831 105.432,76.48C105.432,78 105.517,79.053 105.688,79.64C105.862,80.196 106.189,80.474 106.669,80.474C107.14,80.474 107.462,80.214 107.637,79.694C107.812,79.178 107.899,78.226 107.899,76.837L107.899,76.837Z" style="fill:rgb(158,161,168);fill-rule:nonzero;"/>
            <path id="path1379" d="M110.757,71.243L112.128,71.243L112.128,78.578C112.128,79.326 112.195,79.824 112.33,80.07C112.469,80.317 112.742,80.44 113.15,80.44C113.558,80.44 113.827,80.333 113.957,80.117C114.091,79.898 114.158,79.452 114.158,78.78L114.158,71.243L115.53,71.243L115.53,78.78C115.53,79.909 115.357,80.673 115.012,81.072C114.6,81.525 113.97,81.751 113.123,81.751C112.191,81.751 111.534,81.46 111.153,80.877C110.889,80.478 110.757,79.712 110.757,78.578L110.757,71.243Z" style="fill:rgb(158,161,168);fill-rule:nonzero;"/>
            <path id="path1382" d="M116.303,71.243L120.855,71.243L120.855,72.467L119.288,72.467L119.288,81.623L117.917,81.623L117.917,72.467L116.303,72.467L116.303,71.243Z" style="fill:rgb(158,161,168);fill-rule:nonzero;"/>
        </g>
        <g id="text1076" transform="matrix(0.921093,0,0,1.08567,0,0)">
            <path id="path1277" d="M8.927,122.491L8.927,123.837C8.543,123.65 8.221,123.556 7.962,123.556C7.607,123.556 7.303,123.645 7.048,123.822C6.794,123.995 6.583,124.264 6.415,124.628C6.252,124.993 6.13,125.456 6.048,126.017C5.971,126.574 5.933,127.233 5.933,127.996C5.933,130.74 6.636,132.112 8.041,132.112C8.286,132.112 8.581,132.035 8.927,131.882L8.927,133.256C8.567,133.458 8.164,133.559 7.718,133.559C5.468,133.559 4.343,131.721 4.343,128.046C4.343,126.06 4.616,124.583 5.163,123.614C5.715,122.645 6.557,122.16 7.689,122.16C8.106,122.16 8.519,122.27 8.927,122.491L8.927,122.491Z" style="fill:rgb(158,161,168);fill-rule:nonzero;"/>
            <path id="path1279" d="M12.165,122.311L13.331,122.311L15.712,133.422L14.23,133.422L13.813,131.256L11.611,131.256L11.186,133.422L9.747,133.422L12.165,122.311ZM13.597,130.097L13.266,128.327C13.045,127.123 12.865,125.837 12.726,124.47C12.659,125.137 12.573,125.813 12.467,126.499C12.361,127.18 12.237,127.905 12.093,128.672L11.819,130.097L13.597,130.097Z" style="fill:rgb(158,161,168);fill-rule:nonzero;"/>
            <path id="path1281" d="M16.598,122.311L18.094,122.311L18.094,132.155L20.541,132.155L20.541,133.422L16.598,133.422L16.598,122.311Z" style="fill:rgb(158,161,168);fill-rule:nonzero;"/>
            <rect id="path1283" x="21.491" y="122.311" width="1.497" height="11.111" style="fill:rgb(158,161,168);fill-rule:nonzero;"/>
            <path id="path1285" d="M24.715,122.311L26.744,122.311C28.332,122.311 29.126,123.297 29.126,125.269C29.126,126.022 29.023,126.581 28.816,126.945C28.61,127.31 28.246,127.586 27.723,127.773C28.322,128.013 28.732,128.32 28.953,128.694C29.179,129.063 29.291,129.62 29.291,130.363C29.291,132.402 28.418,133.422 26.672,133.422L24.715,133.422L24.715,122.311ZM26.125,127.204C26.706,127.204 27.109,127.07 27.334,126.801C27.559,126.518 27.672,126.022 27.672,125.312C27.672,124.112 27.24,123.513 26.377,123.513L26.262,123.513L26.197,123.513C26.159,123.513 26.135,123.515 26.125,123.52L26.125,127.204ZM26.125,132.141C26.739,132.141 27.164,132.009 27.399,131.745C27.634,131.481 27.751,131.004 27.751,130.313C27.751,129.603 27.629,129.107 27.384,128.823C27.145,128.536 26.725,128.392 26.125,128.392L26.125,132.141Z" style="fill:rgb(158,161,168);fill-rule:nonzero;"/>
            <path id="path1288" d="M30.788,122.311L32.76,122.311C33.575,122.311 34.182,122.505 34.58,122.894C35.084,123.398 35.336,124.168 35.336,125.204C35.336,126 35.202,126.641 34.933,127.125C34.669,127.605 34.29,127.902 33.796,128.018L35.84,133.422L34.321,133.422L32.285,127.982L32.285,133.422L30.788,133.422L30.788,122.311ZM32.285,127.233C32.865,127.233 33.276,127.099 33.515,126.83C33.755,126.562 33.875,126.108 33.875,125.47C33.875,125.125 33.849,124.83 33.796,124.585C33.748,124.34 33.669,124.141 33.559,123.988C33.453,123.834 33.314,123.722 33.141,123.65C32.973,123.578 32.772,123.542 32.537,123.542L32.285,123.542L32.285,127.233Z" style="fill:rgb(158,161,168);fill-rule:nonzero;"/>
            <path id="path1290" d="M38.589,122.311L39.754,122.311L42.136,133.422L40.654,133.422L40.237,131.256L38.035,131.256L37.61,133.422L36.171,133.422L38.589,122.311ZM40.021,130.097L39.69,128.327C39.469,127.123 39.289,125.837 39.15,124.47C39.083,125.137 38.996,125.813 38.891,126.499C38.785,127.18 38.661,127.905 38.517,128.672L38.243,130.097L40.021,130.097Z" style="fill:rgb(158,161,168);fill-rule:nonzero;"/>
            <path id="path1292" d="M41.906,122.311L46.778,122.311L46.778,123.621L45.101,123.621L45.101,133.422L43.633,133.422L43.633,123.621L41.906,123.621L41.906,122.311Z" style="fill:rgb(158,161,168);fill-rule:nonzero;"/>
            <rect id="path1294" x="47.598" y="122.311" width="1.497" height="11.111" style="fill:rgb(158,161,168);fill-rule:nonzero;"/>
            <path id="path1305" d="M56.384,128.14C56.384,130.102 56.166,131.496 55.73,132.321C55.293,133.146 54.561,133.558 53.535,133.558C52.455,133.558 51.695,133.115 51.254,132.227C50.817,131.359 50.599,129.817 50.599,127.6C50.599,125.624 50.815,124.225 51.246,123.405C51.683,122.58 52.422,122.167 53.463,122.167C54.394,122.167 55.084,122.486 55.535,123.124C55.833,123.551 56.049,124.158 56.183,124.945C56.317,125.674 56.384,126.739 56.384,128.14ZM54.816,128.298C54.816,126.374 54.729,125.098 54.557,124.47C54.384,123.837 54.031,123.52 53.499,123.52C52.966,123.52 52.611,123.81 52.434,124.391C52.261,124.976 52.175,126.151 52.175,127.917C52.175,129.543 52.266,130.67 52.448,131.299C52.635,131.894 52.986,132.191 53.499,132.191C54.003,132.191 54.348,131.913 54.535,131.357C54.722,130.805 54.816,129.785 54.816,128.298L54.816,128.298Z" style="fill:rgb(158,161,168);fill-rule:nonzero;"/>
            <path id="path1318" d="M57.874,122.311L59.27,122.311L60.76,126.744C61.191,127.996 61.573,129.332 61.904,130.752C61.784,129.893 61.695,129.116 61.638,128.421C61.58,127.725 61.551,127.07 61.551,126.456L61.551,122.311L63.055,122.311L63.055,133.422L61.652,133.422L59.975,128.421C59.822,127.955 59.675,127.478 59.536,126.989C59.402,126.499 59.277,125.986 59.162,125.449C59.152,125.381 59.136,125.3 59.112,125.204C59.093,125.108 59.069,124.998 59.04,124.873C59.054,124.998 59.066,125.106 59.076,125.197C59.085,125.283 59.092,125.357 59.097,125.42L59.176,126.55L59.255,127.924C59.26,128.001 59.263,128.094 59.263,128.205C59.267,128.315 59.27,128.44 59.27,128.579L59.349,133.422L57.874,133.422L57.874,122.311Z" style="fill:rgb(158,161,168);fill-rule:nonzero;"/>
            <path id="path1320" d="M71.539,122.541L71.539,124.002C71.084,123.676 70.673,123.513 70.309,123.513C69.915,123.513 69.594,123.652 69.345,123.93C69.095,124.194 68.97,124.547 68.97,124.988C68.97,125.377 69.059,125.71 69.237,125.988C69.328,126.137 69.476,126.329 69.683,126.564C69.894,126.799 70.165,127.082 70.496,127.413C71.105,128.032 71.52,128.567 71.741,129.018C71.961,129.454 72.072,129.989 72.072,130.623C72.072,131.481 71.83,132.189 71.345,132.745C70.86,133.287 70.239,133.558 69.481,133.558C68.843,133.558 68.299,133.383 67.848,133.033L67.848,131.551C68.38,131.939 68.865,132.134 69.301,132.134C69.709,132.134 70.028,131.999 70.258,131.731C70.489,131.457 70.604,131.088 70.604,130.623C70.604,130.22 70.515,129.857 70.338,129.536C70.246,129.382 70.119,129.207 69.956,129.011C69.793,128.809 69.589,128.586 69.345,128.341C68.966,127.967 68.651,127.636 68.402,127.348C68.152,127.06 67.968,126.809 67.848,126.593C67.617,126.171 67.502,125.638 67.502,124.995C67.502,124.127 67.728,123.438 68.179,122.93C68.635,122.417 69.246,122.16 70.014,122.16C70.546,122.16 71.055,122.287 71.539,122.541L71.539,122.541Z" style="fill:rgb(158,161,168);fill-rule:nonzero;"/>
            <rect id="path1322" x="73.331" y="122.311" width="1.497" height="11.111" style="fill:rgb(158,161,168);fill-rule:nonzero;"/>
            <path id="path1324" d="M79.217,127.579L81.938,127.579L81.938,128.01C81.938,130.174 81.748,131.635 81.369,132.393C80.995,133.17 80.294,133.558 79.268,133.558C78.208,133.558 77.452,133.127 77.001,132.263C76.555,131.4 76.332,129.948 76.332,127.91C76.332,125.578 76.577,124.026 77.066,123.254C77.526,122.529 78.234,122.167 79.189,122.167C79.918,122.167 80.486,122.342 80.894,122.692C81.307,123.047 81.628,123.63 81.858,124.441L80.462,125.024C80.4,124.731 80.33,124.487 80.254,124.29C80.177,124.088 80.093,123.933 80.002,123.822C79.82,123.597 79.546,123.484 79.181,123.484C78.683,123.484 78.342,123.791 78.16,124.405C77.977,125.048 77.886,126.202 77.886,127.866C77.886,129.55 77.98,130.69 78.167,131.285C78.354,131.879 78.707,132.177 79.225,132.177C79.7,132.177 80.033,131.966 80.225,131.544C80.422,131.093 80.52,130.368 80.52,129.37L80.52,129.068L80.52,128.845L79.217,128.845L79.217,127.579Z" style="fill:rgb(158,161,168);fill-rule:nonzero;"/>
            <path id="path1327" d="M83.434,122.311L84.83,122.311L86.32,126.744C86.752,127.996 87.133,129.332 87.464,130.752C87.344,129.893 87.255,129.116 87.198,128.421C87.14,127.725 87.111,127.07 87.111,126.456L87.111,122.311L88.615,122.311L88.615,133.422L87.212,133.422L85.536,128.421C85.382,127.955 85.236,127.478 85.097,126.989C84.962,126.499 84.838,125.986 84.722,125.449C84.713,125.381 84.696,125.3 84.672,125.204C84.653,125.108 84.629,124.998 84.6,124.873C84.614,124.998 84.626,125.106 84.636,125.197C84.646,125.283 84.653,125.357 84.657,125.42L84.737,126.55L84.816,127.924C84.821,128.001 84.823,128.094 84.823,128.205C84.828,128.315 84.83,128.44 84.83,128.579L84.909,133.422L83.434,133.422L83.434,122.311Z" style="fill:rgb(158,161,168);fill-rule:nonzero;"/>
            <path id="path1329" d="M92.127,122.311L93.293,122.311L95.675,133.422L94.192,133.422L93.775,131.256L91.573,131.256L91.148,133.422L89.709,133.422L92.127,122.311ZM93.559,130.097L93.228,128.327C93.007,127.123 92.828,125.837 92.688,124.47C92.621,125.137 92.535,125.813 92.429,126.499C92.324,127.18 92.199,127.905 92.055,128.672L91.782,130.097L93.559,130.097Z" style="fill:rgb(158,161,168);fill-rule:nonzero;"/>
            <path id="path1331" d="M96.56,122.311L98.057,122.311L98.057,132.155L100.503,132.155L100.503,133.422L96.56,133.422L96.56,122.311Z" style="fill:rgb(158,161,168);fill-rule:nonzero;"/>
            <rect id="path1333" x="104.504" y="122.311" width="1.497" height="11.111" style="fill:rgb(158,161,168);fill-rule:nonzero;"/>
            <path id="path1335" d="M107.728,122.311L109.124,122.311L110.614,126.744C111.046,127.996 111.427,129.332 111.758,130.752C111.638,129.893 111.549,129.116 111.492,128.421C111.434,127.725 111.405,127.07 111.405,126.456L111.405,122.311L112.909,122.311L112.909,133.422L111.506,133.422L109.829,128.421C109.676,127.955 109.53,127.478 109.39,126.989C109.256,126.499 109.131,125.986 109.016,125.449C109.007,125.381 108.99,125.3 108.966,125.204C108.947,125.108 108.923,124.998 108.894,124.873C108.908,124.998 108.92,125.106 108.93,125.197C108.939,125.283 108.947,125.357 108.951,125.42L109.031,126.55L109.11,127.924C109.114,128.001 109.117,128.094 109.117,128.205C109.122,128.315 109.124,128.44 109.124,128.579L109.203,133.422L107.728,133.422L107.728,122.311Z" style="fill:rgb(158,161,168);fill-rule:nonzero;"/>
        </g>
        <g id="g1448" transform="matrix(0.911409,0,0,0.994005,0.376218,0)">
            <path id="path1243" d="M3.976,107.669L9.297,107.669L9.297,109.099L7.466,109.099L7.466,119.804L5.862,119.804L5.862,109.099L3.976,109.099L3.976,107.669Z" style="fill:rgb(158,161,168);fill-rule:nonzero;"/>
            <path id="path1245" d="M11.702,107.669L12.975,107.669L15.577,119.804L13.958,119.804L13.502,117.438L11.097,117.438L10.633,119.804L9.061,119.804L11.702,107.669ZM13.266,116.173L12.905,114.239C12.664,112.924 12.467,111.52 12.315,110.027C12.242,110.755 12.147,111.494 12.032,112.243C11.917,112.987 11.781,113.778 11.623,114.617L11.325,116.173L13.266,116.173Z" style="fill:rgb(158,161,168);fill-rule:nonzero;"/>
            <path id="path1247" d="M16.544,107.669L18.697,107.669C19.588,107.669 20.251,107.881 20.686,108.305C21.236,108.856 21.511,109.697 21.511,110.828C21.511,111.698 21.364,112.398 21.071,112.927C20.783,113.451 20.369,113.776 19.829,113.902L22.061,119.804L20.403,119.804L18.178,113.862L18.178,119.804L16.544,119.804L16.544,107.669ZM18.178,113.045C18.812,113.045 19.26,112.898 19.522,112.605C19.784,112.311 19.915,111.816 19.915,111.119C19.915,110.742 19.887,110.42 19.829,110.152C19.776,109.885 19.69,109.668 19.57,109.5C19.454,109.332 19.302,109.209 19.114,109.131C18.93,109.052 18.71,109.013 18.453,109.013L18.178,109.013L18.178,113.045Z" style="fill:rgb(158,161,168);fill-rule:nonzero;"/>
            <path id="path1249" d="M26.085,113.422L29.056,113.422L29.056,113.894C29.056,116.257 28.849,117.852 28.435,118.68C28.026,119.529 27.261,119.953 26.14,119.953C24.982,119.953 24.157,119.482 23.664,118.539C23.177,117.596 22.933,116.011 22.933,113.784C22.933,111.237 23.201,109.542 23.735,108.698C24.238,107.907 25.011,107.512 26.054,107.512C26.85,107.512 27.471,107.703 27.916,108.085C28.367,108.473 28.718,109.11 28.97,109.995L27.445,110.632C27.377,110.312 27.301,110.045 27.217,109.83C27.133,109.61 27.041,109.44 26.942,109.319C26.743,109.073 26.444,108.95 26.046,108.95C25.501,108.95 25.129,109.285 24.93,109.956C24.731,110.658 24.631,111.918 24.631,113.736C24.631,115.576 24.733,116.82 24.938,117.47C25.142,118.12 25.527,118.444 26.093,118.444C26.612,118.444 26.976,118.214 27.185,117.753C27.4,117.26 27.508,116.469 27.508,115.379L27.508,115.049L27.508,114.805L26.085,114.805L26.085,113.422Z" style="fill:rgb(158,161,168);fill-rule:nonzero;"/>
            <path id="path1252" d="M30.691,107.669L35.037,107.669L35.037,109.052L32.326,109.052L32.326,112.896L34.731,112.896L34.731,114.279L32.326,114.279L32.326,118.421L35.037,118.421L35.037,119.804L30.691,119.804L30.691,107.669Z" style="fill:rgb(158,161,168);fill-rule:nonzero;"/>
            <path id="path1254" d="M35.572,107.669L40.893,107.669L40.893,109.099L39.061,109.099L39.061,119.804L37.458,119.804L37.458,109.099L35.572,109.099L35.572,107.669Z" style="fill:rgb(158,161,168);fill-rule:nonzero;"/>
            <path id="path1256" d="M45.121,107.669L49.491,107.669L49.491,109.052L46.756,109.052L46.756,112.888L49.224,112.888L49.224,114.271L46.756,114.271L46.756,119.804L45.121,119.804L45.121,107.669Z" style="fill:rgb(158,161,168);fill-rule:nonzero;"/>
            <path id="path1258" d="M50.749,107.669L52.902,107.669C53.793,107.669 54.456,107.881 54.891,108.305C55.441,108.856 55.716,109.697 55.716,110.828C55.716,111.698 55.569,112.398 55.276,112.927C54.988,113.451 54.574,113.776 54.034,113.902L56.266,119.804L54.608,119.804L52.383,113.862L52.383,119.804L50.749,119.804L50.749,107.669ZM52.383,113.045C53.017,113.045 53.465,112.898 53.727,112.605C53.989,112.311 54.12,111.816 54.12,111.119C54.12,110.742 54.092,110.42 54.034,110.152C53.982,109.885 53.895,109.668 53.775,109.5C53.659,109.332 53.507,109.209 53.319,109.131C53.135,109.052 52.915,109.013 52.658,109.013L52.383,109.013L52.383,113.045Z" style="fill:rgb(158,161,168);fill-rule:nonzero;"/>
            <path id="path1260" d="M57.539,107.669L61.886,107.669L61.886,109.052L59.174,109.052L59.174,112.896L61.579,112.896L61.579,114.279L59.174,114.279L59.174,118.421L61.886,118.421L61.886,119.804L57.539,119.804L57.539,107.669Z" style="fill:rgb(158,161,168);fill-rule:nonzero;"/>
            <path id="path1262" d="M69.808,119.985L68.779,120.724L67.945,119.537C67.448,119.815 66.921,119.953 66.366,119.953C65.187,119.953 64.354,119.456 63.866,118.46C63.384,117.433 63.143,115.714 63.143,113.304C63.143,111.198 63.379,109.707 63.851,108.832C64.322,107.952 65.121,107.512 66.248,107.512C67.432,107.512 68.265,107.996 68.747,108.966C69.224,109.914 69.462,111.596 69.462,114.012C69.462,116.197 69.234,117.713 68.779,118.562L69.808,119.985ZM66.916,115.953L67.592,116.912C67.702,116.136 67.757,115.261 67.757,114.287C67.757,112.201 67.657,110.792 67.458,110.058C67.259,109.351 66.863,108.997 66.271,108.997C65.716,108.997 65.341,109.298 65.147,109.901C64.954,110.477 64.857,111.641 64.857,113.391C64.857,115.356 64.956,116.697 65.155,117.415C65.354,118.101 65.742,118.444 66.319,118.444C66.549,118.444 66.769,118.371 66.979,118.224L65.941,116.731L66.916,115.953Z" style="fill:rgb(158,161,168);fill-rule:nonzero;"/>
        </g>
        <g id="g1462" transform="matrix(0.820733,0,0,1.04911,0.555852,0)">
            <path id="path1208" d="M4.196,149.673L6.103,149.673C6.684,149.673 7.173,149.738 7.57,149.867C7.937,149.991 8.265,150.212 8.553,150.53C8.985,151.006 9.293,151.627 9.476,152.392C9.66,153.131 9.752,154.191 9.752,155.571C9.752,156.837 9.65,157.87 9.446,158.669C9.248,159.434 8.92,160.017 8.463,160.419C7.902,160.921 6.897,161.171 5.447,161.171L4.196,161.171L4.196,149.673ZM5.745,159.816C6.689,159.816 7.319,159.531 7.637,158.96C7.965,158.389 8.128,157.279 8.128,155.631C8.128,153.859 7.972,152.64 7.659,151.975C7.346,151.309 6.773,150.977 5.939,150.977L5.745,150.977L5.745,159.816Z" style="fill:rgb(158,161,168);fill-rule:nonzero;"/>
            <path id="path1210" d="M11.286,149.673L15.404,149.673L15.404,150.984L12.835,150.984L12.835,154.626L15.113,154.626L15.113,155.936L12.835,155.936L12.835,159.861L15.404,159.861L15.404,161.171L11.286,161.171L11.286,149.673Z" style="fill:rgb(158,161,168);fill-rule:nonzero;"/>
            <path id="path1212" d="M15.91,149.673L20.952,149.673L20.952,151.029L19.217,151.029L19.217,161.171L17.697,161.171L17.697,151.029L15.91,151.029L15.91,149.673Z" style="fill:rgb(158,161,168);fill-rule:nonzero;"/>
            <path id="path1214" d="M21.801,149.673L25.919,149.673L25.919,150.984L23.35,150.984L23.35,154.626L25.628,154.626L25.628,155.936L23.35,155.936L23.35,159.861L25.919,159.861L25.919,161.171L21.801,161.171L21.801,149.673Z" style="fill:rgb(158,161,168);fill-rule:nonzero;"/>
            <path id="path1216" d="M31.854,149.86L31.854,151.252C31.457,151.059 31.124,150.962 30.856,150.962C30.489,150.962 30.173,151.054 29.91,151.237C29.647,151.416 29.429,151.694 29.255,152.071C29.086,152.449 28.96,152.928 28.875,153.509C28.796,154.084 28.756,154.767 28.756,155.556C28.756,158.396 29.483,159.816 30.938,159.816C31.191,159.816 31.496,159.737 31.854,159.578L31.854,161C31.482,161.209 31.065,161.313 30.603,161.313C28.274,161.313 27.11,159.411 27.11,155.609C27.11,153.553 27.393,152.024 27.959,151.021C28.53,150.018 29.401,149.517 30.573,149.517C31.005,149.517 31.432,149.631 31.854,149.86L31.854,149.86Z" style="fill:rgb(158,161,168);fill-rule:nonzero;"/>
            <path id="path1218" d="M32.234,149.673L37.275,149.673L37.275,151.029L35.54,151.029L35.54,161.171L34.021,161.171L34.021,151.029L32.234,151.029L32.234,149.673Z" style="fill:rgb(158,161,168);fill-rule:nonzero;"/>
            <path id="path1220" d="M38.124,149.673L42.242,149.673L42.242,150.984L39.673,150.984L39.673,154.626L41.952,154.626L41.952,155.936L39.673,155.936L39.673,159.861L42.242,159.861L42.242,161.171L38.124,161.171L38.124,149.673Z" style="fill:rgb(158,161,168);fill-rule:nonzero;"/>
            <path id="path1222" d="M43.665,149.673L45.571,149.673C46.152,149.673 46.641,149.738 47.038,149.867C47.405,149.991 47.733,150.212 48.021,150.53C48.453,151.006 48.761,151.627 48.944,152.392C49.128,153.131 49.22,154.191 49.22,155.571C49.22,156.837 49.118,157.87 48.915,158.669C48.716,159.434 48.388,160.017 47.932,160.419C47.371,160.921 46.365,161.171 44.916,161.171L43.665,161.171L43.665,149.673ZM45.213,159.816C46.157,159.816 46.787,159.531 47.105,158.96C47.433,158.389 47.596,157.279 47.596,155.631C47.596,153.859 47.44,152.64 47.127,151.975C46.815,151.309 46.241,150.977 45.407,150.977L45.213,150.977L45.213,159.816Z" style="fill:rgb(158,161,168);fill-rule:nonzero;"/>
            <path id="path1224" d="M53.911,149.673L58.052,149.673L58.052,150.984L55.46,150.984L55.46,154.618L57.799,154.618L57.799,155.929L55.46,155.929L55.46,161.171L53.911,161.171L53.911,149.673Z" style="fill:rgb(158,161,168);fill-rule:nonzero;"/>
            <path id="path1226" d="M59.243,149.673L61.284,149.673C62.128,149.673 62.756,149.875 63.168,150.277C63.689,150.798 63.95,151.595 63.95,152.667C63.95,153.491 63.811,154.154 63.533,154.655C63.26,155.152 62.867,155.46 62.356,155.579L64.471,161.171L62.9,161.171L60.792,155.542L60.792,161.171L59.243,161.171L59.243,149.673ZM60.792,154.767C61.393,154.767 61.817,154.628 62.066,154.35C62.314,154.072 62.438,153.603 62.438,152.943C62.438,152.585 62.411,152.28 62.356,152.027C62.306,151.773 62.224,151.567 62.11,151.409C62.001,151.25 61.857,151.133 61.678,151.059C61.505,150.984 61.296,150.947 61.053,150.947L60.792,150.947L60.792,154.767Z" style="fill:rgb(158,161,168);fill-rule:nonzero;"/>
            <path id="path1228" d="M65.677,149.673L69.795,149.673L69.795,150.984L67.226,150.984L67.226,154.626L69.505,154.626L69.505,155.936L67.226,155.936L67.226,159.861L69.795,159.861L69.795,161.171L65.677,161.171L65.677,149.673Z" style="fill:rgb(158,161,168);fill-rule:nonzero;"/>
            <path id="path1230" d="M77.302,161.343L76.326,162.043L75.537,160.918C75.065,161.181 74.566,161.313 74.04,161.313C72.923,161.313 72.134,160.841 71.672,159.898C71.215,158.925 70.987,157.297 70.987,155.013C70.987,153.017 71.21,151.605 71.657,150.776C72.104,149.942 72.861,149.525 73.928,149.525C75.05,149.525 75.84,149.984 76.296,150.902C76.748,151.801 76.974,153.394 76.974,155.683C76.974,157.753 76.758,159.19 76.326,159.995L77.302,161.343ZM74.561,157.522L75.202,158.431C75.306,157.696 75.358,156.867 75.358,155.944C75.358,153.968 75.264,152.632 75.075,151.937C74.887,151.267 74.512,150.932 73.951,150.932C73.424,150.932 73.07,151.217 72.886,151.788C72.702,152.334 72.61,153.437 72.61,155.095C72.61,156.956 72.705,158.227 72.893,158.908C73.082,159.558 73.449,159.883 73.995,159.883C74.214,159.883 74.422,159.814 74.621,159.675L73.638,158.26L74.561,157.522Z" style="fill:rgb(158,161,168);fill-rule:nonzero;"/>
        </g>
        <g id="text1088" transform="matrix(0.840684,0,0,0.713705,1.6,0)">
            <path id="path1188" d="M2.855,256.113L5.657,256.113C6.511,256.113 7.23,256.208 7.814,256.397C8.354,256.58 8.835,256.905 9.258,257.372C9.893,258.072 10.346,258.984 10.616,260.108C10.886,261.196 11.021,262.754 11.021,264.782C11.021,266.643 10.871,268.161 10.572,269.336C10.28,270.46 9.798,271.317 9.127,271.909C8.302,272.646 6.825,273.014 4.694,273.014L2.855,273.014L2.855,256.113ZM5.132,271.022C6.518,271.022 7.445,270.602 7.912,269.763C8.394,268.924 8.635,267.293 8.635,264.87C8.635,262.265 8.405,260.473 7.945,259.495C7.485,258.517 6.642,258.028 5.416,258.028L5.132,258.028L5.132,271.022Z" style="fill:rgb(158,161,168);fill-rule:nonzero;"/>
            <path id="path1190" d="M13.276,256.113L19.329,256.113L19.329,258.039L15.553,258.039L15.553,263.392L18.902,263.392L18.902,265.319L15.553,265.319L15.553,271.088L19.329,271.088L19.329,273.014L13.276,273.014L13.276,256.113Z" style="fill:rgb(158,161,168);fill-rule:nonzero;"/>
            <path id="path1192" d="M20.074,256.113L22.318,256.113L23.336,262.352L23.511,263.48L23.872,265.932C23.93,266.348 23.981,266.727 24.025,267.07C24.076,267.413 24.12,267.723 24.157,268.001L24.266,268.833C24.288,268.665 24.306,268.515 24.321,268.384C24.335,268.252 24.35,268.143 24.364,268.055L24.66,266.096L25.043,263.524C25.08,263.29 25.112,263.075 25.142,262.878C25.178,262.681 25.211,262.506 25.24,262.352L26.335,256.113L28.458,256.113L25.142,273.014L23.336,273.014L20.074,256.113Z" style="fill:rgb(158,161,168);fill-rule:nonzero;"/>
            <rect id="path1194" x="29.695" y="256.113" width="2.277" height="16.901" style="fill:rgb(158,161,168);fill-rule:nonzero;"/>
            <path id="path1196" d="M37.008,256.113L38.781,256.113L42.404,273.014L40.149,273.014L39.514,269.719L36.165,269.719L35.519,273.014L33.33,273.014L37.008,256.113ZM39.186,267.957L38.682,265.264C38.347,263.432 38.073,261.477 37.861,259.397C37.759,260.411 37.628,261.44 37.467,262.484C37.307,263.52 37.117,264.622 36.898,265.789L36.482,267.957L39.186,267.957Z" style="fill:rgb(158,161,168);fill-rule:nonzero;"/>
            <path id="path1198" d="M42.054,256.113L49.465,256.113L49.465,258.105L46.914,258.105L46.914,273.014L44.681,273.014L44.681,258.105L42.054,258.105L42.054,256.113Z" style="fill:rgb(158,161,168);fill-rule:nonzero;"/>
            <rect id="path1200" x="50.712" y="256.113" width="2.277" height="16.901" style="fill:rgb(158,161,168);fill-rule:nonzero;"/>
            <path id="path1202" d="M64.078,264.979C64.078,267.964 63.746,270.084 63.082,271.339C62.418,272.594 61.305,273.222 59.743,273.222C58.101,273.222 56.945,272.547 56.273,271.197C55.609,269.876 55.277,267.53 55.277,264.158C55.277,261.152 55.606,259.025 56.262,257.777C56.926,256.522 58.05,255.894 59.634,255.894C61.05,255.894 62.1,256.379 62.786,257.35C63.239,257.999 63.567,258.922 63.772,260.119C63.976,261.228 64.078,262.849 64.078,264.979L64.078,264.979ZM61.692,265.22C61.692,262.294 61.56,260.353 61.298,259.397C61.035,258.434 60.499,257.952 59.689,257.952C58.878,257.952 58.338,258.393 58.068,259.276C57.806,260.167 57.674,261.955 57.674,264.64C57.674,267.114 57.813,268.829 58.09,269.785C58.375,270.69 58.908,271.142 59.689,271.142C60.455,271.142 60.98,270.719 61.265,269.873C61.549,269.033 61.692,267.483 61.692,265.22Z" style="fill:rgb(158,161,168);fill-rule:nonzero;"/>
            <path id="path1204" d="M66.344,256.113L68.468,256.113L70.733,262.856C71.39,264.761 71.97,266.793 72.474,268.953C72.291,267.647 72.156,266.465 72.069,265.406C71.981,264.348 71.938,263.352 71.938,262.418L71.938,256.113L74.225,256.113L74.225,273.014L72.091,273.014L69.54,265.406C69.307,264.698 69.084,263.972 68.873,263.228C68.668,262.484 68.478,261.703 68.303,260.886C68.289,260.783 68.263,260.659 68.227,260.513C68.198,260.367 68.161,260.2 68.117,260.01C68.139,260.2 68.157,260.364 68.172,260.502C68.187,260.634 68.198,260.747 68.205,260.842L68.325,262.56L68.446,264.651C68.453,264.768 68.457,264.91 68.457,265.078C68.464,265.246 68.468,265.436 68.468,265.647L68.588,273.014L66.344,273.014L66.344,256.113Z" style="fill:rgb(158,161,168);fill-rule:nonzero;"/>
        </g>
        <g id="text1092" transform="matrix(1.01543,0,0,0.984801,0,0)">
            <path id="path1154" d="M8.39,211.25L8.39,212.86C7.887,212.501 7.435,212.321 7.033,212.321C6.599,212.321 6.245,212.474 5.97,212.781C5.695,213.072 5.558,213.461 5.558,213.947C5.558,214.376 5.655,214.743 5.851,215.05C5.952,215.214 6.115,215.425 6.343,215.684C6.576,215.944 6.874,216.256 7.239,216.621C7.911,217.303 8.368,217.892 8.612,218.39C8.855,218.871 8.977,219.461 8.977,220.159C8.977,221.105 8.71,221.885 8.175,222.499C7.641,223.097 6.956,223.395 6.121,223.395C5.417,223.395 4.817,223.202 4.32,222.816L4.32,221.182C4.907,221.61 5.441,221.825 5.922,221.825C6.372,221.825 6.724,221.676 6.978,221.38C7.231,221.079 7.358,220.672 7.358,220.159C7.358,219.714 7.26,219.315 7.065,218.961C6.964,218.792 6.824,218.598 6.644,218.382C6.465,218.16 6.24,217.914 5.97,217.644C5.552,217.231 5.206,216.866 4.931,216.549C4.656,216.232 4.452,215.954 4.32,215.716C4.066,215.251 3.939,214.664 3.939,213.955C3.939,212.998 4.188,212.239 4.685,211.678C5.187,211.112 5.862,210.829 6.708,210.829C7.295,210.829 7.855,210.97 8.39,211.25Z" style="fill:rgb(158,161,168);fill-rule:nonzero;"/>
            <path id="path1156" d="M9.58,210.996L14.95,210.996L14.95,212.44L13.102,212.44L13.102,223.245L11.483,223.245L11.483,212.44L9.58,212.44L9.58,210.996Z" style="fill:rgb(158,161,168);fill-rule:nonzero;"/>
            <path id="path1158" d="M17.378,210.996L18.663,210.996L21.289,223.245L19.654,223.245L19.194,220.857L16.767,220.857L16.299,223.245L14.712,223.245L17.378,210.996ZM18.956,219.58L18.591,217.628C18.348,216.301 18.15,214.883 17.996,213.376C17.922,214.111 17.827,214.857 17.711,215.613C17.595,216.364 17.457,217.163 17.298,218.009L16.997,219.58L18.956,219.58Z" style="fill:rgb(158,161,168);fill-rule:nonzero;"/>
            <path id="path1160" d="M22.264,210.996L24.438,210.996C25.337,210.996 26.006,211.21 26.445,211.639C27,212.194 27.278,213.043 27.278,214.185C27.278,215.063 27.13,215.769 26.834,216.303C26.543,216.832 26.125,217.16 25.58,217.287L27.833,223.245L26.16,223.245L23.914,217.247L23.914,223.245L22.264,223.245L22.264,210.996ZM23.914,216.422C24.554,216.422 25.007,216.274 25.271,215.978C25.535,215.682 25.668,215.182 25.668,214.479C25.668,214.098 25.639,213.773 25.58,213.503C25.528,213.233 25.44,213.014 25.319,212.844C25.202,212.675 25.049,212.551 24.859,212.472C24.673,212.392 24.451,212.353 24.192,212.353L23.914,212.353L23.914,216.422Z" style="fill:rgb(158,161,168);fill-rule:nonzero;"/>
            <path id="path1162" d="M28.301,210.996L33.672,210.996L33.672,212.44L31.824,212.44L31.824,223.245L30.205,223.245L30.205,212.44L28.301,212.44L28.301,210.996Z" style="fill:rgb(158,161,168);fill-rule:nonzero;"/>
            <path id="path1164" d="M42.747,211.194L42.747,212.678C42.324,212.472 41.97,212.368 41.684,212.368C41.293,212.368 40.957,212.466 40.677,212.662C40.397,212.852 40.164,213.149 39.979,213.55C39.799,213.952 39.664,214.463 39.574,215.082C39.49,215.695 39.447,216.422 39.447,217.263C39.447,220.288 40.222,221.801 41.772,221.801C42.041,221.801 42.367,221.716 42.747,221.547L42.747,223.062C42.351,223.284 41.907,223.395 41.415,223.395C38.934,223.395 37.694,221.37 37.694,217.319C37.694,215.129 37.996,213.5 38.598,212.432C39.207,211.364 40.135,210.829 41.383,210.829C41.843,210.829 42.298,210.951 42.747,211.194L42.747,211.194Z" style="fill:rgb(158,161,168);fill-rule:nonzero;"/>
            <path id="path1166" d="M46.317,210.996L47.602,210.996L50.228,223.245L48.594,223.245L48.134,220.857L45.706,220.857L45.238,223.245L43.652,223.245L46.317,210.996ZM47.896,219.58L47.531,217.628C47.288,216.301 47.089,214.883 46.936,213.376C46.862,214.111 46.767,214.857 46.65,215.613C46.534,216.364 46.397,217.163 46.238,218.009L45.936,219.58L47.896,219.58Z" style="fill:rgb(158,161,168);fill-rule:nonzero;"/>
            <path id="path1168" d="M51.204,210.996L52.854,210.996L52.854,221.848L55.551,221.848L55.551,223.245L51.204,223.245L51.204,210.996Z" style="fill:rgb(158,161,168);fill-rule:nonzero;"/>
            <rect id="path1170" x="56.598" y="210.996" width="1.65" height="12.249" style="fill:rgb(158,161,168);fill-rule:nonzero;"/>
            <path id="path1172" d="M60.152,210.996L62.389,210.996C64.14,210.996 65.015,212.083 65.015,214.257C65.015,215.087 64.902,215.703 64.674,216.105C64.447,216.507 64.045,216.811 63.468,217.017C64.129,217.282 64.582,217.62 64.825,218.033C65.073,218.44 65.198,219.053 65.198,219.873C65.198,222.121 64.235,223.245 62.31,223.245L60.152,223.245L60.152,210.996ZM61.707,216.39C62.347,216.39 62.791,216.242 63.04,215.946C63.289,215.634 63.413,215.087 63.413,214.304C63.413,212.982 62.937,212.321 61.985,212.321L61.858,212.321L61.787,212.321C61.744,212.321 61.718,212.324 61.707,212.329L61.707,216.39ZM61.707,221.833C62.384,221.833 62.852,221.687 63.111,221.396C63.371,221.105 63.5,220.579 63.5,219.818C63.5,219.035 63.365,218.487 63.096,218.175C62.831,217.858 62.368,217.699 61.707,217.699L61.707,221.833Z" style="fill:rgb(158,161,168);fill-rule:nonzero;"/>
            <path id="path1174" d="M66.848,210.996L69.021,210.996C69.921,210.996 70.59,211.21 71.028,211.639C71.584,212.194 71.861,213.043 71.861,214.185C71.861,215.063 71.713,215.769 71.417,216.303C71.126,216.832 70.709,217.16 70.164,217.287L72.417,223.245L70.743,223.245L68.498,217.247L68.498,223.245L66.848,223.245L66.848,210.996ZM68.498,216.422C69.138,216.422 69.59,216.274 69.854,215.978C70.119,215.682 70.251,215.182 70.251,214.479C70.251,214.098 70.222,213.773 70.164,213.503C70.111,213.233 70.024,213.014 69.902,212.844C69.786,212.675 69.632,212.551 69.442,212.472C69.257,212.392 69.035,212.353 68.776,212.353L68.498,212.353L68.498,216.422Z" style="fill:rgb(158,161,168);fill-rule:nonzero;"/>
            <path id="path1176" d="M75.447,210.996L76.732,210.996L79.358,223.245L77.724,223.245L77.264,220.857L74.836,220.857L74.368,223.245L72.782,223.245L75.447,210.996ZM77.026,219.58L76.661,217.628C76.418,216.301 76.219,214.883 76.066,213.376C75.992,214.111 75.897,214.857 75.78,215.613C75.664,216.364 75.527,217.163 75.368,218.009L75.066,219.58L77.026,219.58Z" style="fill:rgb(158,161,168);fill-rule:nonzero;"/>
            <path id="path1178" d="M79.104,210.996L84.475,210.996L84.475,212.44L82.627,212.44L82.627,223.245L81.008,223.245L81.008,212.44L79.104,212.44L79.104,210.996Z" style="fill:rgb(158,161,168);fill-rule:nonzero;"/>
            <rect id="path1180" x="85.379" y="210.996" width="1.65" height="12.249" style="fill:rgb(158,161,168);fill-rule:nonzero;"/>
            <path id="path1182" d="M95.065,217.422C95.065,219.585 94.825,221.121 94.344,222.031C93.862,222.94 93.056,223.395 91.924,223.395C90.734,223.395 89.896,222.906 89.409,221.928C88.928,220.97 88.687,219.27 88.687,216.827C88.687,214.648 88.925,213.106 89.401,212.202C89.883,211.292 90.697,210.837 91.845,210.837C92.871,210.837 93.632,211.189 94.129,211.892C94.457,212.363 94.695,213.032 94.843,213.9C94.991,214.703 95.065,215.877 95.065,217.422ZM93.336,217.596C93.336,215.476 93.241,214.069 93.05,213.376C92.86,212.678 92.471,212.329 91.884,212.329C91.297,212.329 90.906,212.649 90.71,213.289C90.52,213.934 90.425,215.23 90.425,217.176C90.425,218.969 90.525,220.212 90.726,220.904C90.932,221.56 91.318,221.888 91.884,221.888C92.44,221.888 92.82,221.581 93.027,220.968C93.233,220.36 93.336,219.236 93.336,217.596L93.336,217.596Z" style="fill:rgb(158,161,168);fill-rule:nonzero;"/>
            <path id="path1184" d="M96.708,210.996L98.247,210.996L99.889,215.883C100.365,217.263 100.785,218.736 101.15,220.301C101.018,219.355 100.92,218.498 100.857,217.731C100.793,216.964 100.761,216.242 100.761,215.565L100.761,210.996L102.419,210.996L102.419,223.245L100.872,223.245L99.024,217.731C98.855,217.218 98.693,216.692 98.54,216.152C98.392,215.613 98.255,215.047 98.128,214.455C98.117,214.381 98.098,214.291 98.072,214.185C98.051,214.079 98.024,213.958 97.993,213.82C98.009,213.958 98.022,214.077 98.032,214.177C98.043,214.272 98.051,214.354 98.056,214.423L98.143,215.669L98.231,217.184C98.236,217.268 98.239,217.372 98.239,217.493C98.244,217.615 98.247,217.752 98.247,217.906L98.334,223.245L96.708,223.245L96.708,210.996Z" style="fill:rgb(158,161,168);fill-rule:nonzero;"/>
        </g>
        <g id="text1104" transform="matrix(0.653473,0,0,0.74984,3.04,-20)">
            <rect id="path1135" x="2.999" y="430.477" width="2.167" height="16.087" style="fill:rgb(158,161,168);fill-rule:nonzero;"/>
            <path id="path1137" d="M7.667,430.477L9.688,430.477L11.845,436.895C12.47,438.708 13.022,440.643 13.501,442.699C13.328,441.455 13.199,440.33 13.116,439.323C13.033,438.316 12.991,437.368 12.991,436.479L12.991,430.477L15.168,430.477L15.168,446.564L13.137,446.564L10.709,439.323C10.487,438.649 10.275,437.958 10.074,437.25C9.879,436.541 9.699,435.798 9.532,435.02C9.518,434.923 9.494,434.805 9.459,434.666C9.431,434.527 9.396,434.367 9.355,434.187C9.376,434.367 9.393,434.524 9.407,434.656C9.421,434.78 9.431,434.888 9.438,434.979L9.553,436.614L9.667,438.604C9.674,438.716 9.678,438.851 9.678,439.011C9.685,439.17 9.688,439.351 9.688,439.553L9.803,446.564L7.667,446.564L7.667,430.477Z" style="fill:rgb(158,161,168);fill-rule:nonzero;"/>
            <path id="path1139" d="M20.805,430.477L22.941,430.477L23.91,436.416L24.077,437.489L24.42,439.823C24.476,440.219 24.525,440.58 24.566,440.907C24.615,441.233 24.657,441.528 24.691,441.792L24.795,442.584C24.816,442.424 24.834,442.282 24.848,442.157C24.861,442.032 24.875,441.928 24.889,441.844L25.171,439.979L25.535,437.531C25.57,437.309 25.601,437.104 25.629,436.916C25.664,436.729 25.695,436.562 25.723,436.416L26.765,430.477L28.786,430.477L25.629,446.564L23.91,446.564L20.805,430.477Z" style="fill:rgb(158,161,168);fill-rule:nonzero;"/>
            <path id="path1141" d="M38.059,438.917C38.059,441.758 37.743,443.775 37.11,444.97C36.478,446.165 35.419,446.762 33.933,446.762C32.37,446.762 31.269,446.12 30.63,444.835C29.998,443.577 29.682,441.344 29.682,438.135C29.682,435.274 29.994,433.249 30.62,432.061C31.252,430.866 32.321,430.269 33.829,430.269C35.176,430.269 36.176,430.731 36.829,431.655C37.26,432.273 37.572,433.152 37.767,434.291C37.961,435.347 38.059,436.889 38.059,438.917L38.059,438.917ZM35.787,439.146C35.787,436.36 35.662,434.513 35.412,433.603C35.162,432.686 34.652,432.228 33.881,432.228C33.11,432.228 32.596,432.648 32.339,433.488C32.089,434.336 31.964,436.037 31.964,438.594C31.964,440.948 32.096,442.58 32.359,443.49C32.63,444.352 33.137,444.782 33.881,444.782C34.61,444.782 35.11,444.379 35.381,443.574C35.652,442.775 35.787,441.299 35.787,439.146Z" style="fill:rgb(158,161,168);fill-rule:nonzero;"/>
            <path id="path1143" d="M40.215,430.477L42.382,430.477L42.382,444.73L45.925,444.73L45.925,446.564L40.215,446.564L40.215,430.477Z" style="fill:rgb(158,161,168);fill-rule:nonzero;"/>
            <path id="path1145" d="M45.643,430.477L52.697,430.477L52.697,432.374L50.269,432.374L50.269,446.564L48.144,446.564L48.144,432.374L45.643,432.374L45.643,430.477Z" style="fill:rgb(158,161,168);fill-rule:nonzero;"/>
            <path id="path1147" d="M55.885,430.477L57.573,430.477L61.022,446.564L58.875,446.564L58.271,443.428L55.083,443.428L54.468,446.564L52.384,446.564L55.885,430.477ZM57.958,441.751L57.479,439.188C57.16,437.444 56.899,435.583 56.698,433.603C56.601,434.569 56.476,435.548 56.323,436.541C56.17,437.528 55.989,438.576 55.781,439.688L55.385,441.751L57.958,441.751Z" style="fill:rgb(158,161,168);fill-rule:nonzero;"/>
            <path id="path1149" d="M66.116,438.104L70.055,438.104L70.055,438.729C70.055,441.862 69.78,443.977 69.232,445.074C68.69,446.199 67.676,446.762 66.189,446.762C64.654,446.762 63.56,446.137 62.907,444.887C62.261,443.636 61.938,441.535 61.938,438.583C61.938,435.208 62.293,432.961 63.001,431.842C63.668,430.794 64.692,430.269 66.075,430.269C67.13,430.269 67.954,430.523 68.544,431.03C69.141,431.544 69.607,432.388 69.94,433.561L67.919,434.405C67.828,433.982 67.728,433.627 67.617,433.343C67.506,433.051 67.384,432.825 67.252,432.665C66.988,432.339 66.592,432.176 66.064,432.176C65.342,432.176 64.849,432.62 64.585,433.509C64.321,434.44 64.189,436.111 64.189,438.521C64.189,440.959 64.324,442.608 64.595,443.47C64.866,444.331 65.377,444.762 66.127,444.762C66.814,444.762 67.297,444.456 67.575,443.845C67.86,443.192 68.002,442.143 68.002,440.698L68.002,440.261L68.002,439.938L66.116,439.938L66.116,438.104Z" style="fill:rgb(158,161,168);fill-rule:nonzero;"/>
            <path id="path1151" d="M72.222,430.477L77.983,430.477L77.983,432.311L74.389,432.311L74.389,437.406L77.577,437.406L77.577,439.24L74.389,439.24L74.389,444.73L77.983,444.73L77.983,446.564L72.222,446.564L72.222,430.477Z" style="fill:rgb(158,161,168);fill-rule:nonzero;"/>
        </g>
        <g id="text1108" transform="matrix(0.61663,0,0,0.810859,2,-20)">
            <path id="path1114" d="M10.99,436.718C10.99,439.345 10.698,441.211 10.113,442.316C9.529,443.421 8.549,443.973 7.174,443.973C5.729,443.973 4.711,443.379 4.12,442.191C3.536,441.028 3.243,438.963 3.243,435.996C3.243,433.349 3.532,431.477 4.111,430.379C4.695,429.274 5.684,428.722 7.078,428.722C8.324,428.722 9.249,429.149 9.853,430.003C10.251,430.575 10.54,431.387 10.72,432.441C10.9,433.417 10.99,434.843 10.99,436.718L10.99,436.718ZM8.889,436.93C8.889,434.355 8.774,432.646 8.543,431.805C8.311,430.957 7.839,430.533 7.126,430.533C6.413,430.533 5.938,430.921 5.7,431.699C5.469,432.482 5.353,434.056 5.353,436.42C5.353,438.597 5.475,440.107 5.72,440.948C5.97,441.745 6.439,442.143 7.126,442.143C7.801,442.143 8.263,441.77 8.514,441.025C8.764,440.286 8.889,438.922 8.889,436.93L8.889,436.93Z" style="fill:rgb(158,161,168);fill-rule:nonzero;"/>
            <path id="path1116" d="M12.984,428.914L14.95,428.914L14.95,439.426C14.95,440.498 15.046,441.211 15.239,441.565C15.438,441.918 15.83,442.095 16.414,442.095C16.999,442.095 17.384,441.94 17.57,441.632C17.763,441.317 17.859,440.678 17.859,439.715L17.859,428.914L19.825,428.914L19.825,439.715C19.825,441.333 19.578,442.429 19.083,443C18.492,443.649 17.59,443.973 16.376,443.973C15.04,443.973 14.099,443.556 13.553,442.721C13.174,442.149 12.984,441.051 12.984,439.426L12.984,428.914Z" style="fill:rgb(158,161,168);fill-rule:nonzero;"/>
            <path id="path1118" d="M20.933,428.914L27.456,428.914L27.456,430.668L25.211,430.668L25.211,443.79L23.245,443.79L23.245,430.668L20.933,430.668L20.933,428.914Z" style="fill:rgb(158,161,168);fill-rule:nonzero;"/>
            <path id="path1120" d="M31.454,428.914L33.429,428.914L34.325,434.406L34.479,435.398L34.797,437.557C34.849,437.923 34.894,438.257 34.932,438.559C34.977,438.86 35.016,439.133 35.048,439.378L35.144,440.11C35.163,439.962 35.179,439.83 35.192,439.715C35.205,439.599 35.218,439.503 35.231,439.426L35.491,437.701L35.828,435.437C35.86,435.231 35.889,435.042 35.915,434.868C35.947,434.695 35.976,434.541 36.002,434.406L36.965,428.914L38.834,428.914L35.915,443.79L34.325,443.79L31.454,428.914Z" style="fill:rgb(158,161,168);fill-rule:nonzero;"/>
            <path id="path1122" d="M47.409,436.718C47.409,439.345 47.117,441.211 46.532,442.316C45.948,443.421 44.968,443.973 43.594,443.973C42.149,443.973 41.13,443.379 40.54,442.191C39.955,441.028 39.663,438.963 39.663,435.996C39.663,433.349 39.952,431.477 40.53,430.379C41.114,429.274 42.104,428.722 43.497,428.722C44.743,428.722 45.668,429.149 46.272,430.003C46.67,430.575 46.959,431.387 47.139,432.441C47.319,433.417 47.409,434.843 47.409,436.718L47.409,436.718ZM45.309,436.93C45.309,434.355 45.193,432.646 44.962,431.805C44.731,430.957 44.259,430.533 43.546,430.533C42.833,430.533 42.357,430.921 42.12,431.699C41.888,432.482 41.773,434.056 41.773,436.42C41.773,438.597 41.895,440.107 42.139,440.948C42.389,441.745 42.858,442.143 43.546,442.143C44.22,442.143 44.682,441.77 44.933,441.025C45.183,440.286 45.309,438.922 45.309,436.93L45.309,436.93Z" style="fill:rgb(158,161,168);fill-rule:nonzero;"/>
            <path id="path1124" d="M49.403,428.914L51.407,428.914L51.407,442.095L54.683,442.095L54.683,443.79L49.403,443.79L49.403,428.914Z" style="fill:rgb(158,161,168);fill-rule:nonzero;"/>
            <path id="path1126" d="M54.423,428.914L60.946,428.914L60.946,430.668L58.701,430.668L58.701,443.79L56.736,443.79L56.736,430.668L54.423,430.668L54.423,428.914Z" style="fill:rgb(158,161,168);fill-rule:nonzero;"/>
            <path id="path1128" d="M63.894,428.914L65.455,428.914L68.644,443.79L66.659,443.79L66.1,440.89L63.152,440.89L62.584,443.79L60.657,443.79L63.894,428.914ZM65.811,439.339L65.368,436.969C65.073,435.357 64.832,433.635 64.646,431.805C64.556,432.697 64.44,433.603 64.299,434.522C64.157,435.434 63.99,436.404 63.798,437.431L63.432,439.339L65.811,439.339Z" style="fill:rgb(158,161,168);fill-rule:nonzero;"/>
            <path id="path1130" d="M73.355,435.967L76.997,435.967L76.997,436.545C76.997,439.442 76.744,441.398 76.236,442.413C75.735,443.453 74.797,443.973 73.423,443.973C72.003,443.973 70.992,443.395 70.388,442.239C69.791,441.083 69.492,439.14 69.492,436.41C69.492,433.288 69.819,431.21 70.475,430.176C71.091,429.206 72.039,428.722 73.317,428.722C74.293,428.722 75.054,428.956 75.6,429.425C76.153,429.9 76.583,430.681 76.891,431.766L75.022,432.547C74.939,432.155 74.846,431.827 74.743,431.564C74.64,431.294 74.528,431.085 74.406,430.938C74.162,430.636 73.795,430.485 73.307,430.485C72.639,430.485 72.183,430.896 71.939,431.718C71.695,432.579 71.573,434.123 71.573,436.352C71.573,438.607 71.698,440.132 71.949,440.929C72.199,441.725 72.671,442.123 73.365,442.123C74.001,442.123 74.447,441.841 74.704,441.276C74.968,440.672 75.099,439.702 75.099,438.366L75.099,437.961L75.099,437.663L73.355,437.663L73.355,435.967Z" style="fill:rgb(158,161,168);fill-rule:nonzero;"/>
            <path id="path1132" d="M79.001,428.914L84.329,428.914L84.329,430.61L81.005,430.61L81.005,435.321L83.954,435.321L83.954,437.017L81.005,437.017L81.005,442.095L84.329,442.095L84.329,443.79L79.001,443.79L79.001,428.914Z" style="fill:rgb(158,161,168);fill-rule:nonzero;"/>
        </g>
        <g id="text1191" transform="matrix(0.871763,0,0,1.1471,0,0)">
            <path id="path1348" d="M39.321,40.456L39.321,41.896C38.91,41.696 38.566,41.596 38.289,41.596C37.909,41.596 37.582,41.691 37.31,41.881C37.038,42.066 36.812,42.354 36.632,42.744C36.457,43.134 36.326,43.63 36.239,44.231C36.157,44.827 36.116,45.533 36.116,46.35C36.116,49.288 36.868,50.757 38.373,50.757C38.635,50.757 38.951,50.675 39.321,50.511L39.321,51.982C38.936,52.198 38.504,52.306 38.027,52.306C35.618,52.306 34.413,50.338 34.413,46.404C34.413,44.277 34.706,42.695 35.291,41.657C35.882,40.62 36.784,40.101 37.996,40.101C38.443,40.101 38.884,40.219 39.321,40.456L39.321,40.456Z" style="fill:rgb(158,161,168);fill-rule:nonzero;"/>
            <path id="path1365" d="M42.788,40.263L44.037,40.263L46.587,52.159L45,52.159L44.553,49.84L42.195,49.84L41.74,52.159L40.199,52.159L42.788,40.263ZM44.322,48.6L43.967,46.704C43.731,45.415 43.538,44.038 43.389,42.574C43.317,43.288 43.225,44.013 43.112,44.747C42.999,45.477 42.865,46.252 42.711,47.074L42.418,48.6L44.322,48.6Z" style="fill:rgb(158,161,168);fill-rule:nonzero;"/>
            <path id="path1376" d="M47.535,40.263L49.137,40.263L49.137,50.803L51.757,50.803L51.757,52.159L47.535,52.159L47.535,40.263Z" style="fill:rgb(158,161,168);fill-rule:nonzero;"/>
            <rect id="path1378" x="52.774" y="40.263" width="1.603" height="11.896" style="fill:rgb(158,161,168);fill-rule:nonzero;"/>
            <path id="path1380" d="M56.226,40.263L58.399,40.263C60.099,40.263 60.949,41.319 60.949,43.43C60.949,44.236 60.839,44.835 60.618,45.225C60.397,45.615 60.006,45.911 59.446,46.111C60.089,46.368 60.528,46.697 60.764,47.097C61.005,47.493 61.126,48.089 61.126,48.885C61.126,51.068 60.191,52.159 58.322,52.159L56.226,52.159L56.226,40.263ZM57.736,45.502C58.358,45.502 58.789,45.358 59.03,45.071C59.272,44.768 59.393,44.236 59.393,43.476C59.393,42.192 58.93,41.55 58.006,41.55L57.882,41.55L57.813,41.55C57.772,41.55 57.746,41.552 57.736,41.557L57.736,45.502ZM57.736,50.788C58.393,50.788 58.848,50.647 59.1,50.364C59.351,50.082 59.477,49.571 59.477,48.831C59.477,48.071 59.346,47.539 59.084,47.236C58.828,46.928 58.378,46.774 57.736,46.774L57.736,50.788Z" style="fill:rgb(158,161,168);fill-rule:nonzero;"/>
            <path id="path1384" d="M62.729,40.263L64.84,40.263C65.713,40.263 66.363,40.471 66.789,40.887C67.329,41.426 67.598,42.251 67.598,43.36C67.598,44.213 67.455,44.899 67.167,45.418C66.884,45.931 66.479,46.25 65.949,46.373L68.138,52.159L66.512,52.159L64.331,46.334L64.331,52.159L62.729,52.159L62.729,40.263ZM64.331,45.533C64.953,45.533 65.392,45.389 65.649,45.102C65.906,44.814 66.034,44.329 66.034,43.645C66.034,43.276 66.006,42.96 65.95,42.698C65.898,42.436 65.813,42.223 65.695,42.058C65.582,41.894 65.433,41.773 65.248,41.696C65.069,41.619 64.853,41.58 64.601,41.58L64.331,41.58L64.331,45.533Z" style="fill:rgb(158,161,168);fill-rule:nonzero;"/>
            <path id="path1402" d="M71.081,40.263L72.329,40.263L74.88,52.159L73.292,52.159L72.845,49.84L70.488,49.84L70.033,52.159L68.492,52.159L71.081,40.263ZM72.614,48.6L72.26,46.704C72.024,45.415 71.831,44.038 71.682,42.574C71.61,43.288 71.518,44.013 71.405,44.747C71.292,45.477 71.158,46.252 71.004,47.074L70.711,48.6L72.614,48.6Z" style="fill:rgb(158,161,168);fill-rule:nonzero;"/>
            <path id="path1407" d="M74.633,40.263L79.849,40.263L79.849,41.665L78.054,41.665L78.054,52.159L76.482,52.159L76.482,41.665L74.633,41.665L74.633,40.263Z" style="fill:rgb(158,161,168);fill-rule:nonzero;"/>
            <path id="path1409" d="M86.807,46.504C86.807,48.605 86.573,50.097 86.106,50.981C85.638,51.864 84.855,52.306 83.756,52.306C82.6,52.306 81.786,51.831 81.313,50.88C80.846,49.951 80.612,48.299 80.612,45.926C80.612,43.81 80.843,42.312 81.306,41.434C81.773,40.551 82.564,40.109 83.679,40.109C84.675,40.109 85.415,40.45 85.898,41.134C86.216,41.591 86.447,42.241 86.591,43.083C86.735,43.864 86.807,45.004 86.807,46.504L86.807,46.504ZM85.127,46.673C85.127,44.614 85.035,43.247 84.85,42.574C84.665,41.896 84.287,41.557 83.717,41.557C83.147,41.557 82.767,41.868 82.577,42.49C82.392,43.116 82.299,44.375 82.299,46.265C82.299,48.006 82.397,49.214 82.592,49.886C82.793,50.523 83.168,50.842 83.717,50.842C84.257,50.842 84.626,50.544 84.827,49.948C85.027,49.357 85.127,48.266 85.127,46.673L85.127,46.673Z" style="fill:rgb(158,161,168);fill-rule:nonzero;"/>
            <path id="path1411" d="M88.402,40.263L90.513,40.263C91.386,40.263 92.036,40.471 92.462,40.887C93.002,41.426 93.271,42.251 93.271,43.36C93.271,44.213 93.128,44.899 92.84,45.418C92.557,45.931 92.152,46.25 91.622,46.373L93.811,52.159L92.185,52.159L90.004,46.334L90.004,52.159L88.402,52.159L88.402,40.263ZM90.004,45.533C90.626,45.533 91.065,45.389 91.322,45.102C91.579,44.814 91.707,44.329 91.707,43.645C91.707,43.276 91.679,42.96 91.623,42.698C91.571,42.436 91.486,42.223 91.368,42.058C91.255,41.894 91.106,41.773 90.921,41.696C90.742,41.619 90.526,41.58 90.274,41.58L90.004,41.58L90.004,45.533Z" style="fill:rgb(158,161,168);fill-rule:nonzero;"/>
            <path id="path1413" d="M102.294,40.509L102.294,42.074C101.806,41.724 101.367,41.55 100.976,41.55C100.555,41.55 100.211,41.699 99.944,41.997C99.677,42.279 99.543,42.657 99.543,43.129C99.543,43.545 99.638,43.902 99.828,44.2C99.926,44.359 100.085,44.565 100.306,44.817C100.532,45.068 100.822,45.371 101.177,45.726C101.829,46.388 102.273,46.961 102.51,47.444C102.746,47.911 102.864,48.484 102.864,49.162C102.864,50.082 102.605,50.839 102.086,51.435C101.567,52.016 100.902,52.306 100.09,52.306C99.407,52.306 98.824,52.118 98.341,51.743L98.341,50.156C98.911,50.572 99.43,50.78 99.898,50.78C100.334,50.78 100.676,50.636 100.922,50.349C101.169,50.056 101.292,49.66 101.292,49.162C101.292,48.731 101.197,48.343 101.007,47.999C100.91,47.834 100.773,47.647 100.599,47.436C100.424,47.221 100.206,46.982 99.944,46.72C99.538,46.319 99.202,45.965 98.935,45.656C98.667,45.348 98.47,45.079 98.341,44.847C98.095,44.395 97.971,43.825 97.971,43.137C97.971,42.207 98.213,41.47 98.696,40.926C99.184,40.376 99.839,40.101 100.66,40.101C101.231,40.101 101.775,40.237 102.294,40.509L102.294,40.509Z" style="fill:rgb(158,161,168);fill-rule:nonzero;"/>
            <path id="path1415" d="M104.212,40.263L108.473,40.263L108.473,41.619L105.815,41.619L105.815,45.387L108.173,45.387L108.173,46.743L105.815,46.743L105.815,50.803L108.473,50.803L108.473,52.159L104.212,52.159L104.212,40.263Z" style="fill:rgb(158,161,168);fill-rule:nonzero;"/>
            <path id="path1417" d="M114.614,40.456L114.614,41.896C114.203,41.696 113.859,41.596 113.582,41.596C113.202,41.596 112.875,41.691 112.603,41.881C112.331,42.066 112.105,42.354 111.925,42.744C111.75,43.134 111.619,43.63 111.532,44.231C111.45,44.827 111.409,45.533 111.409,46.35C111.409,49.288 112.161,50.757 113.666,50.757C113.928,50.757 114.244,50.675 114.614,50.511L114.614,51.982C114.229,52.198 113.797,52.306 113.32,52.306C110.911,52.306 109.706,50.338 109.706,46.404C109.706,44.277 109.999,42.695 110.584,41.657C111.175,40.62 112.077,40.101 113.289,40.101C113.736,40.101 114.178,40.219 114.614,40.456L114.614,40.456Z" style="fill:rgb(158,161,168);fill-rule:nonzero;"/>
            <path id="path1419" d="M115.007,40.263L120.223,40.263L120.223,41.665L118.428,41.665L118.428,52.159L116.856,52.159L116.856,41.665L115.007,41.665L115.007,40.263Z" style="fill:rgb(158,161,168);fill-rule:nonzero;"/>
            <rect id="path1437" x="121.102" y="40.263" width="1.603" height="11.896" style="fill:rgb(158,161,168);fill-rule:nonzero;"/>
            <path id="path1439" d="M130.51,46.504C130.51,48.605 130.276,50.097 129.808,50.981C129.341,51.864 128.558,52.306 127.458,52.306C126.303,52.306 125.488,51.831 125.016,50.88C124.548,49.951 124.315,48.299 124.315,45.926C124.315,43.81 124.546,42.312 125.008,41.434C125.476,40.551 126.267,40.109 127.381,40.109C128.378,40.109 129.117,40.45 129.6,41.134C129.919,41.591 130.15,42.241 130.294,43.083C130.438,43.864 130.51,45.004 130.51,46.504L130.51,46.504ZM128.83,46.673C128.83,44.614 128.737,43.247 128.552,42.574C128.368,41.896 127.99,41.557 127.42,41.557C126.85,41.557 126.47,41.868 126.279,42.49C126.095,43.116 126.002,44.375 126.002,46.265C126.002,48.006 126.1,49.214 126.295,49.886C126.495,50.523 126.87,50.842 127.42,50.842C127.959,50.842 128.329,50.544 128.529,49.948C128.73,49.357 128.83,48.266 128.83,46.673L128.83,46.673Z" style="fill:rgb(158,161,168);fill-rule:nonzero;"/>
            <path id="path1441" d="M132.104,40.263L133.599,40.263L135.194,45.009C135.656,46.35 136.065,47.78 136.419,49.301C136.291,48.381 136.196,47.549 136.134,46.804C136.073,46.06 136.042,45.358 136.042,44.701L136.042,40.263L137.652,40.263L137.652,52.159L136.15,52.159L134.354,46.804C134.19,46.306 134.033,45.795 133.884,45.271C133.74,44.747 133.607,44.198 133.484,43.622C133.473,43.55 133.455,43.463 133.43,43.36C133.409,43.258 133.383,43.139 133.353,43.006C133.368,43.139 133.381,43.255 133.391,43.353C133.401,43.445 133.409,43.525 133.414,43.591L133.499,44.801L133.584,46.273C133.589,46.355 133.591,46.455 133.591,46.573C133.596,46.691 133.599,46.825 133.599,46.974L133.684,52.159L132.104,52.159L132.104,40.263Z" style="fill:rgb(158,161,168);fill-rule:nonzero;"/>
        </g>
        <g id="text1195" transform="matrix(0.884387,0,0,1.13073,0,0)">
            <path id="path1244" d="M34.915,217.716L36.307,217.716L37.371,222.643C37.501,223.258 37.619,223.876 37.723,224.497C37.833,225.112 37.932,225.759 38.02,226.437C38.031,226.348 38.038,226.28 38.044,226.233C38.049,226.181 38.054,226.145 38.059,226.124L38.286,224.739L38.489,223.425L38.669,222.557L39.616,217.716L41.024,217.716L42.134,229.792L40.578,229.792L40.304,225.694C40.294,225.485 40.283,225.305 40.273,225.154C40.267,225.003 40.265,224.878 40.265,224.778L40.194,223.159L40.155,221.673C40.155,221.663 40.152,221.642 40.147,221.611C40.147,221.574 40.145,221.527 40.139,221.47L40.1,221.712C40.058,221.999 40.019,222.249 39.983,222.463C39.952,222.677 39.923,222.857 39.897,223.003L39.693,224.106L39.615,224.52L38.598,229.792L37.504,229.792L36.55,225.24C36.419,224.64 36.302,224.033 36.198,223.417C36.099,222.797 36.008,222.148 35.924,221.47L35.455,229.792L33.922,229.792L34.915,217.716Z" style="fill:rgb(158,161,168);fill-rule:nonzero;"/>
            <path id="path1246" d="M45.2,217.716L46.467,217.716L49.056,229.792L47.445,229.792L46.992,227.438L44.598,227.438L44.137,229.792L42.572,229.792L45.2,217.716ZM46.757,226.178L46.397,224.254C46.157,222.946 45.962,221.548 45.81,220.062C45.737,220.787 45.644,221.522 45.529,222.268C45.414,223.008 45.279,223.796 45.122,224.63L44.825,226.178L46.757,226.178Z" style="fill:rgb(158,161,168);fill-rule:nonzero;"/>
            <path id="path1248" d="M50.018,217.716L52.162,217.716C53.194,217.716 53.945,217.976 54.414,218.498C54.883,219.024 55.118,219.859 55.118,221.001C55.118,222.607 54.646,223.644 53.702,224.114C53.228,224.327 52.542,224.434 51.645,224.434L51.645,229.792L50.018,229.792L50.018,217.716ZM51.645,223.042C52.318,223.042 52.782,222.906 53.038,222.635C53.298,222.359 53.429,221.869 53.429,221.165C53.429,220.445 53.303,219.919 53.053,219.585C52.803,219.251 52.409,219.084 51.872,219.084L51.645,219.084L51.645,223.042Z" style="fill:rgb(158,161,168);fill-rule:nonzero;"/>
            <path id="path1250" d="M56.369,217.716L58.513,217.716C59.545,217.716 60.296,217.976 60.765,218.498C61.234,219.024 61.469,219.859 61.469,221.001C61.469,222.607 60.997,223.644 60.053,224.114C59.579,224.327 58.893,224.434 57.996,224.434L57.996,229.792L56.369,229.792L56.369,217.716ZM57.996,223.042C58.669,223.042 59.133,222.906 59.389,222.635C59.649,222.359 59.78,221.869 59.78,221.165C59.78,220.445 59.655,219.919 59.404,219.585C59.154,219.251 58.76,219.084 58.223,219.084L57.996,219.084L57.996,223.042Z" style="fill:rgb(158,161,168);fill-rule:nonzero;"/>
            <path id="path1264" d="M62.721,217.716L67.046,217.716L67.046,219.092L64.347,219.092L64.347,222.917L66.741,222.917L66.741,224.294L64.347,224.294L64.347,228.415L67.046,228.415L67.046,229.792L62.721,229.792L62.721,217.716Z" style="fill:rgb(158,161,168);fill-rule:nonzero;"/>
            <path id="path1266" d="M68.54,217.716L70.542,217.716C71.152,217.716 71.666,217.783 72.083,217.919C72.469,218.049 72.813,218.281 73.115,218.615C73.569,219.116 73.892,219.767 74.085,220.57C74.278,221.347 74.375,222.461 74.375,223.91C74.375,225.24 74.268,226.324 74.054,227.164C73.845,227.967 73.501,228.58 73.021,229.002C72.432,229.529 71.376,229.792 69.854,229.792L68.54,229.792L68.54,217.716ZM70.167,228.368C71.157,228.368 71.82,228.069 72.153,227.469C72.497,226.869 72.669,225.704 72.669,223.973C72.669,222.111 72.505,220.831 72.177,220.132C71.848,219.434 71.246,219.084 70.37,219.084L70.167,219.084L70.167,228.368Z" style="fill:rgb(158,161,168);fill-rule:nonzero;"/>
            <path id="path1269" d="M79.302,217.716L81.445,217.716C82.478,217.716 83.228,217.976 83.698,218.498C84.167,219.024 84.402,219.859 84.402,221.001C84.402,222.607 83.93,223.644 82.986,224.114C82.511,224.327 81.826,224.434 80.929,224.434L80.929,229.792L79.302,229.792L79.302,217.716ZM80.929,223.042C81.602,223.042 82.066,222.906 82.321,222.635C82.582,222.359 82.712,221.869 82.712,221.165C82.712,220.445 82.587,219.919 82.337,219.585C82.087,219.251 81.693,219.084 81.156,219.084L80.929,219.084L80.929,223.042Z" style="fill:rgb(158,161,168);fill-rule:nonzero;"/>
            <path id="path1271" d="M85.653,217.716L87.28,217.716L87.28,228.415L89.939,228.415L89.939,229.792L85.653,229.792L85.653,217.716Z" style="fill:rgb(158,161,168);fill-rule:nonzero;"/>
            <path id="path1273" d="M93.349,217.716L94.617,217.716L97.205,229.792L95.594,229.792L95.141,227.438L92.747,227.438L92.286,229.792L90.721,229.792L93.349,217.716ZM94.906,226.178L94.546,224.254C94.306,222.946 94.111,221.548 93.96,220.062C93.887,220.787 93.793,221.522 93.678,222.268C93.563,223.008 93.428,223.796 93.271,224.63L92.974,226.178L94.906,226.178Z" style="fill:rgb(158,161,168);fill-rule:nonzero;"/>
            <path id="path1275" d="M96.642,217.716L98.363,217.716L99.161,220.344C99.187,220.422 99.213,220.508 99.239,220.602C99.265,220.696 99.296,220.797 99.333,220.907C99.63,221.856 99.833,222.654 99.943,223.3C100.037,222.654 100.115,222.203 100.178,221.947L100.428,220.868L100.522,220.445L101.194,217.716L102.892,217.716L100.788,224.599L100.788,229.792L99.161,229.792L99.161,224.599L96.642,217.716Z" style="fill:rgb(158,161,168);fill-rule:nonzero;"/>
            <path id="path1286" d="M107.686,217.716L109.078,217.716L110.142,222.643C110.273,223.258 110.39,223.876 110.494,224.497C110.604,225.112 110.703,225.759 110.791,226.437C110.802,226.348 110.81,226.28 110.815,226.233C110.82,226.181 110.825,226.145 110.83,226.124L111.057,224.739L111.261,223.425L111.44,222.557L112.387,217.716L113.795,217.716L114.905,229.792L113.349,229.792L113.075,225.694C113.065,225.485 113.054,225.305 113.044,225.154C113.038,225.003 113.036,224.878 113.036,224.778L112.965,223.159L112.926,221.673C112.926,221.663 112.924,221.642 112.918,221.611C112.918,221.574 112.916,221.527 112.91,221.47L112.871,221.712C112.83,221.999 112.79,222.249 112.754,222.463C112.723,222.677 112.694,222.857 112.668,223.003L112.465,224.106L112.386,224.52L111.37,229.792L110.275,229.792L109.32,225.24C109.19,224.64 109.073,224.033 108.968,223.417C108.869,222.797 108.778,222.148 108.695,221.47L108.225,229.792L106.692,229.792L107.686,217.716Z" style="fill:rgb(158,161,168);fill-rule:nonzero;"/>
            <path id="path1325" d="M122.297,224.051C122.297,226.184 122.06,227.698 121.585,228.595C121.111,229.492 120.315,229.941 119.199,229.941C118.026,229.941 117.2,229.458 116.72,228.494C116.246,227.55 116.008,225.873 116.008,223.464C116.008,221.316 116.243,219.796 116.712,218.904C117.187,218.008 117.99,217.559 119.121,217.559C120.133,217.559 120.884,217.906 121.374,218.599C121.697,219.064 121.932,219.723 122.078,220.578C122.224,221.371 122.297,222.528 122.297,224.051L122.297,224.051ZM120.592,224.223C120.592,222.132 120.498,220.745 120.31,220.062C120.122,219.374 119.739,219.03 119.16,219.03C118.582,219.03 118.196,219.345 118.003,219.976C117.815,220.612 117.721,221.89 117.721,223.809C117.721,225.576 117.82,226.802 118.018,227.485C118.222,228.131 118.602,228.455 119.16,228.455C119.708,228.455 120.083,228.152 120.287,227.547C120.49,226.948 120.592,225.84 120.592,224.223L120.592,224.223Z" style="fill:rgb(158,161,168);fill-rule:nonzero;"/>
            <path id="path1337" d="M123.916,217.716L125.918,217.716C126.528,217.716 127.042,217.783 127.459,217.919C127.845,218.049 128.189,218.281 128.491,218.615C128.945,219.116 129.268,219.767 129.461,220.57C129.654,221.347 129.751,222.461 129.751,223.91C129.751,225.24 129.644,226.324 129.43,227.164C129.221,227.967 128.877,228.58 128.398,229.002C127.808,229.529 126.752,229.792 125.23,229.792L123.916,229.792L123.916,217.716ZM125.543,228.368C126.533,228.368 127.196,228.069 127.529,227.469C127.874,226.869 128.046,225.704 128.046,223.973C128.046,222.111 127.881,220.831 127.553,220.132C127.224,219.434 126.622,219.084 125.746,219.084L125.543,219.084L125.543,228.368Z" style="fill:rgb(158,161,168);fill-rule:nonzero;"/>
            <path id="path1344" d="M131.362,217.716L135.687,217.716L135.687,219.092L132.989,219.092L132.989,222.917L135.382,222.917L135.382,224.294L132.989,224.294L132.989,228.415L135.687,228.415L135.687,229.792L131.362,229.792L131.362,217.716Z" style="fill:rgb(158,161,168);fill-rule:nonzero;"/>
        </g>
        <g id="text1199" transform="matrix(0.886119,0,0,1.12852,0,0)">
            <path id="path1201" d="M5.393,246.154L6.626,246.154L7.567,250.516C7.682,251.06 7.786,251.607 7.879,252.156C7.975,252.701 8.063,253.273 8.142,253.873C8.151,253.795 8.158,253.735 8.162,253.693C8.167,253.647 8.172,253.615 8.176,253.596L8.377,252.371L8.557,251.208L8.716,250.439L9.554,246.154L10.8,246.154L11.783,256.843L10.405,256.843L10.163,253.215C10.154,253.031 10.145,252.872 10.135,252.738C10.131,252.604 10.128,252.493 10.128,252.406L10.066,250.972L10.032,249.657C10.032,249.648 10.029,249.629 10.025,249.602C10.025,249.569 10.022,249.528 10.018,249.477L9.983,249.692C9.946,249.946 9.912,250.167 9.879,250.356C9.852,250.546 9.826,250.705 9.803,250.834L9.623,251.81L9.554,252.177L8.654,256.843L7.685,256.843L6.84,252.814C6.725,252.283 6.621,251.746 6.529,251.201C6.441,250.652 6.36,250.077 6.286,249.477L5.871,256.843L4.514,256.843L5.393,246.154Z" style="fill:rgb(158,161,168);fill-rule:nonzero;"/>
            <path id="path1203" d="M14.497,246.154L15.618,246.154L17.91,256.843L16.484,256.843L16.082,254.759L13.964,254.759L13.555,256.843L12.171,256.843L14.497,246.154ZM15.874,253.645L15.556,251.942C15.344,250.783 15.171,249.546 15.037,248.231C14.972,248.873 14.889,249.523 14.788,250.183C14.686,250.839 14.566,251.536 14.428,252.274L14.164,253.645L15.874,253.645Z" style="fill:rgb(158,161,168);fill-rule:nonzero;"/>
            <path id="path1206" d="M18.761,246.154L20.658,246.154C21.572,246.154 22.236,246.385 22.652,246.847C23.067,247.313 23.275,248.051 23.275,249.062C23.275,250.483 22.857,251.402 22.022,251.817C21.602,252.006 20.995,252.101 20.201,252.101L20.201,256.843L18.761,256.843L18.761,246.154ZM20.201,250.869C20.797,250.869 21.207,250.749 21.433,250.509C21.664,250.264 21.78,249.83 21.78,249.207C21.78,248.57 21.669,248.104 21.447,247.809C21.226,247.513 20.877,247.366 20.402,247.366L20.201,247.366L20.201,250.869Z" style="fill:rgb(158,161,168);fill-rule:nonzero;"/>
            <rect id="path1221" x="27.318" y="246.154" width="1.44" height="10.689" style="fill:rgb(158,161,168);fill-rule:nonzero;"/>
            <path id="path1223" d="M33.984,246.376L33.984,247.781C33.546,247.467 33.151,247.31 32.801,247.31C32.422,247.31 32.113,247.444 31.873,247.712C31.633,247.966 31.513,248.305 31.513,248.73C31.513,249.103 31.598,249.424 31.769,249.692C31.857,249.835 32,250.019 32.198,250.246C32.401,250.472 32.662,250.744 32.981,251.062C33.567,251.658 33.966,252.172 34.178,252.606C34.391,253.026 34.497,253.541 34.497,254.15C34.497,254.976 34.264,255.657 33.798,256.192C33.331,256.714 32.734,256.975 32.005,256.975C31.391,256.975 30.867,256.806 30.433,256.469L30.433,255.043C30.945,255.417 31.411,255.604 31.831,255.604C32.224,255.604 32.531,255.475 32.752,255.216C32.974,254.953 33.084,254.598 33.084,254.15C33.084,253.762 32.999,253.414 32.828,253.105C32.741,252.957 32.618,252.789 32.461,252.599C32.305,252.406 32.108,252.191 31.873,251.956C31.508,251.596 31.206,251.277 30.966,251C30.726,250.723 30.548,250.481 30.433,250.273C30.212,249.867 30.101,249.355 30.101,248.736C30.101,247.901 30.318,247.239 30.752,246.75C31.19,246.256 31.778,246.009 32.517,246.009C33.029,246.009 33.518,246.131 33.984,246.376L33.984,246.376Z" style="fill:rgb(158,161,168);fill-rule:nonzero;"/>
            <path id="path1225" d="M40.167,246.154L41.288,246.154L43.579,256.843L42.153,256.843L41.752,254.759L39.633,254.759L39.225,256.843L37.84,256.843L40.167,246.154ZM41.544,253.645L41.226,251.942C41.013,250.783 40.84,249.546 40.706,248.231C40.642,248.873 40.559,249.523 40.457,250.183C40.356,250.839 40.236,251.536 40.097,252.274L39.834,253.645L41.544,253.645Z" style="fill:rgb(158,161,168);fill-rule:nonzero;"/>
            <path id="path1227" d="M43.33,246.154L44.749,246.154L45.393,250.1L45.504,250.813L45.732,252.364C45.769,252.627 45.802,252.867 45.829,253.084C45.862,253.301 45.889,253.497 45.912,253.672L45.982,254.199C45.996,254.092 46.007,253.998 46.016,253.915C46.026,253.832 46.035,253.762 46.044,253.707L46.231,252.468L46.473,250.841C46.496,250.693 46.517,250.557 46.536,250.433C46.559,250.308 46.58,250.197 46.598,250.1L47.29,246.154L48.633,246.154L46.536,256.843L45.393,256.843L43.33,246.154Z" style="fill:rgb(158,161,168);fill-rule:nonzero;"/>
            <path id="path1229" d="M50.689,246.154L51.811,246.154L54.102,256.843L52.676,256.843L52.275,254.759L50.156,254.759L49.748,256.843L48.363,256.843L50.689,246.154ZM52.067,253.645L51.748,251.942C51.536,250.783 51.363,249.546 51.229,248.231C51.165,248.873 51.081,249.523 50.98,250.183C50.878,250.839 50.758,251.536 50.62,252.274L50.357,253.645L52.067,253.645Z" style="fill:rgb(158,161,168);fill-rule:nonzero;"/>
            <rect id="path1231" x="54.954" y="246.154" width="1.44" height="10.689" style="fill:rgb(158,161,168);fill-rule:nonzero;"/>
            <path id="path1233" d="M58.055,246.154L59.495,246.154L59.495,255.625L61.849,255.625L61.849,256.843L58.055,256.843L58.055,246.154Z" style="fill:rgb(158,161,168);fill-rule:nonzero;"/>
            <path id="path1235" d="M64.867,246.154L65.989,246.154L68.28,256.843L66.854,256.843L66.452,254.759L64.334,254.759L63.926,256.843L62.541,256.843L64.867,246.154ZM66.245,253.645L65.926,251.942C65.714,250.783 65.541,249.546 65.407,248.231C65.342,248.873 65.259,249.523 65.158,250.183C65.056,250.839 64.936,251.536 64.798,252.274L64.535,253.645L66.245,253.645Z" style="fill:rgb(158,161,168);fill-rule:nonzero;"/>
            <path id="path1237" d="M69.132,246.154L71.084,246.154C72.611,246.154 73.375,247.103 73.375,249C73.375,249.724 73.276,250.262 73.078,250.613C72.879,250.963 72.528,251.229 72.025,251.409C72.602,251.639 72.997,251.935 73.209,252.295C73.426,252.65 73.534,253.185 73.534,253.901C73.534,255.862 72.694,256.843 71.015,256.843L69.132,256.843L69.132,246.154ZM70.488,250.862C71.047,250.862 71.435,250.733 71.651,250.474C71.868,250.202 71.977,249.724 71.977,249.041C71.977,247.887 71.561,247.31 70.731,247.31L70.62,247.31L70.558,247.31C70.521,247.31 70.498,247.313 70.488,247.317L70.488,250.862ZM70.488,255.611C71.079,255.611 71.488,255.484 71.714,255.23C71.94,254.976 72.053,254.517 72.053,253.852C72.053,253.169 71.935,252.692 71.7,252.419C71.469,252.142 71.065,252.004 70.488,252.004L70.488,255.611Z" style="fill:rgb(158,161,168);fill-rule:nonzero;"/>
            <path id="path1239" d="M74.974,246.154L76.414,246.154L76.414,255.625L78.768,255.625L78.768,256.843L74.974,256.843L74.974,246.154Z" style="fill:rgb(158,161,168);fill-rule:nonzero;"/>
            <path id="path1241" d="M79.682,246.154L83.51,246.154L83.51,247.373L81.122,247.373L81.122,250.758L83.24,250.758L83.24,251.976L81.122,251.976L81.122,255.625L83.51,255.625L83.51,256.843L79.682,256.843L79.682,246.154Z" style="fill:rgb(158,161,168);fill-rule:nonzero;"/>
        </g>
    </g>
</svg>
