<?xml version="1.0" encoding="UTF-8" standalone="no"?>
<!DOCTYPE svg PUBLIC "-//W3C//DTD SVG 1.1//EN" "http://www.w3.org/Graphics/SVG/1.1/DTD/svg11.dtd">
<svg width="100%" height="100%" viewBox="0 0 15 380" version="1.1" xmlns="http://www.w3.org/2000/svg" xmlns:xlink="http://www.w3.org/1999/xlink" xml:space="preserve" xmlns:serif="http://www.serif.com/" style="fill-rule:evenodd;clip-rule:evenodd;stroke-linejoin:round;stroke-miterlimit:2;">
    <g id="Layer-2" serif:id="Layer 2">
        <g id="text989">
        </g>
        <rect id="rect4689" x="0" y="0" width="15" height="380" style="fill:rgb(44,45,48);"/>
        <g id="path4726" transform="matrix(1.00498,0,0,0.995047,-25.2463,4.99997)">
            <path d="M29.851,371.706L29.851,363.943L31.853,363.943L32.903,366.668C32.96,366.829 33.024,367.013 33.094,367.221C33.168,367.429 33.249,367.668 33.336,367.94L33.552,368.624C33.475,367.95 33.416,367.373 33.376,366.894C33.336,366.415 33.316,366.013 33.316,365.687L33.316,363.943L35.317,363.943L35.317,371.706L33.316,371.706L32.26,368.85C32.149,368.545 32.049,368.26 31.958,367.995C31.871,367.727 31.794,367.472 31.727,367.231C31.77,367.777 31.802,368.253 31.822,368.659C31.843,369.065 31.853,369.42 31.853,369.725L31.853,371.706L29.851,371.706Z" style="fill:rgb(158,161,168);fill-rule:nonzero;"/>
        </g>
        <g id="text4987">
        </g>
        <g id="text1042">
        </g>
        <g id="g2054" transform="matrix(0.5,0,0,1,0,4)">
            <rect id="rect1005" x="2" y="187" width="26" height="101"/>
            <g id="g1301" transform="matrix(1,0,0,1,-150,-82)">
                <rect id="rect1225" x="150" y="358" width="30" height="1" style="fill:rgb(183,196,200);"/>
                <rect id="rect1227" x="150" y="355" width="30" height="1" style="fill:rgb(183,196,200);"/>
                <rect id="rect1229" x="150" y="364" width="30" height="1" style="fill:rgb(183,196,200);"/>
                <rect id="rect1231" x="150" y="361" width="30" height="1" style="fill:rgb(183,196,200);"/>
                <rect id="rect1233" x="150" y="370" width="30" height="1" style="fill:rgb(183,196,200);"/>
                <rect id="rect1235" x="150" y="367" width="30" height="1" style="fill:rgb(183,196,200);"/>
                <rect id="rect1237" x="150" y="376" width="30" height="1" style="fill:rgb(183,196,200);"/>
                <rect id="rect1239" x="150" y="373" width="30" height="1" style="fill:rgb(183,196,200);"/>
                <rect id="rect1241" x="150" y="334" width="30" height="1" style="fill:rgb(183,196,200);"/>
                <rect id="rect1243" x="150" y="331" width="30" height="1" style="fill:rgb(183,196,200);"/>
                <rect id="rect1245" x="150" y="340" width="30" height="1" style="fill:rgb(183,196,200);"/>
                <rect id="rect1247" x="150" y="337" width="30" height="1" style="fill:rgb(183,196,200);"/>
                <rect id="rect1249" x="150" y="346" width="30" height="1" style="fill:rgb(183,196,200);"/>
                <rect id="rect1251" x="150" y="343" width="30" height="1" style="fill:rgb(183,196,200);"/>
                <rect id="rect1253" x="150" y="352" width="30" height="1" style="fill:rgb(183,196,200);"/>
                <rect id="rect1255" x="150" y="349" width="30" height="1" style="fill:rgb(183,196,200);"/>
                <rect id="rect1257" x="150" y="310" width="30" height="1" style="fill:rgb(183,196,200);"/>
                <rect id="rect1259" x="150" y="307" width="30" height="1" style="fill:rgb(183,196,200);"/>
                <rect id="rect1261" x="150" y="316" width="30" height="1" style="fill:rgb(183,196,200);"/>
                <rect id="rect1263" x="150" y="313" width="30" height="1" style="fill:rgb(183,196,200);"/>
                <rect id="rect1265" x="150" y="322" width="30" height="1" style="fill:rgb(183,196,200);"/>
                <rect id="rect1267" x="150" y="319" width="30" height="1" style="fill:rgb(183,196,200);"/>
                <rect id="rect1269" x="150" y="328" width="30" height="1" style="fill:rgb(183,196,200);"/>
                <rect id="rect1271" x="150" y="325" width="30" height="1" style="fill:rgb(183,196,200);"/>
                <rect id="rect1273" x="150" y="286" width="30" height="1" style="fill:rgb(183,196,200);"/>
                <rect id="rect1275" x="150" y="283" width="30" height="1" style="fill:rgb(183,196,200);"/>
                <rect id="rect1277" x="150" y="292" width="30" height="1" style="fill:rgb(183,196,200);"/>
                <rect id="rect1279" x="150" y="289" width="30" height="1" style="fill:rgb(183,196,200);"/>
                <rect id="rect1281" x="150" y="298" width="30" height="1" style="fill:rgb(183,196,200);"/>
                <rect id="rect1283" x="150" y="295" width="30" height="1" style="fill:rgb(183,196,200);"/>
                <rect id="rect1285" x="150" y="304" width="30" height="1" style="fill:rgb(183,196,200);"/>
                <rect id="rect1287" x="150" y="301" width="30" height="1" style="fill:rgb(183,196,200);"/>
                <rect id="rect1289" x="150" y="268" width="30" height="1" style="fill:rgb(183,196,200);"/>
                <rect id="rect1291" x="150" y="265" width="30" height="1" style="fill:rgb(183,196,200);"/>
                <rect id="rect1293" x="150" y="274" width="30" height="1" style="fill:rgb(183,196,200);"/>
                <rect id="rect1295" x="150" y="271" width="30" height="1" style="fill:rgb(183,196,200);"/>
                <rect id="rect1297" x="150" y="280" width="30" height="1" style="fill:rgb(183,196,200);"/>
                <rect id="rect1299" x="150" y="277" width="30" height="1" style="fill:rgb(183,196,200);"/>
            </g>
        </g>
        <g id="g1443" transform="matrix(0.5,0,0,1,0,0)">
            <rect id="rect1810" x="2" y="20" width="26" height="101"/>
            <g id="g1888" transform="matrix(1,0,0,1,-150,-249)">
                <rect id="rect1812" x="150" y="358" width="30" height="1" style="fill:rgb(183,196,200);"/>
                <rect id="rect1814" x="150" y="355" width="30" height="1" style="fill:rgb(183,196,200);"/>
                <rect id="rect1816" x="150" y="364" width="30" height="1" style="fill:rgb(183,196,200);"/>
                <rect id="rect1818" x="150" y="361" width="30" height="1" style="fill:rgb(183,196,200);"/>
                <rect id="rect1820" x="150" y="370" width="30" height="1" style="fill:rgb(183,196,200);"/>
                <rect id="rect1822" x="150" y="367" width="30" height="1" style="fill:rgb(183,196,200);"/>
                <rect id="rect1824" x="150" y="376" width="30" height="1" style="fill:rgb(183,196,200);"/>
                <rect id="rect1826" x="150" y="373" width="30" height="1" style="fill:rgb(183,196,200);"/>
                <rect id="rect1828" x="150" y="334" width="30" height="1" style="fill:rgb(183,196,200);"/>
                <rect id="rect1830" x="150" y="331" width="30" height="1" style="fill:rgb(183,196,200);"/>
                <rect id="rect1832" x="150" y="340" width="30" height="1" style="fill:rgb(183,196,200);"/>
                <rect id="rect1834" x="150" y="337" width="30" height="1" style="fill:rgb(183,196,200);"/>
                <rect id="rect1836" x="150" y="346" width="30" height="1" style="fill:rgb(183,196,200);"/>
                <rect id="rect1838" x="150" y="343" width="30" height="1" style="fill:rgb(183,196,200);"/>
                <rect id="rect1840" x="150" y="352" width="30" height="1" style="fill:rgb(183,196,200);"/>
                <rect id="rect1842" x="150" y="349" width="30" height="1" style="fill:rgb(183,196,200);"/>
                <rect id="rect1844" x="150" y="310" width="30" height="1" style="fill:rgb(183,196,200);"/>
                <rect id="rect1846" x="150" y="307" width="30" height="1" style="fill:rgb(183,196,200);"/>
                <rect id="rect1848" x="150" y="316" width="30" height="1" style="fill:rgb(183,196,200);"/>
                <rect id="rect1850" x="150" y="313" width="30" height="1" style="fill:rgb(183,196,200);"/>
                <rect id="rect1852" x="150" y="322" width="30" height="1" style="fill:rgb(183,196,200);"/>
                <rect id="rect1854" x="150" y="319" width="30" height="1" style="fill:rgb(183,196,200);"/>
                <rect id="rect1856" x="150" y="328" width="30" height="1" style="fill:rgb(183,196,200);"/>
                <rect id="rect1858" x="150" y="325" width="30" height="1" style="fill:rgb(183,196,200);"/>
                <rect id="rect1860" x="150" y="286" width="30" height="1" style="fill:rgb(183,196,200);"/>
                <rect id="rect1862" x="150" y="283" width="30" height="1" style="fill:rgb(183,196,200);"/>
                <rect id="rect1864" x="150" y="292" width="30" height="1" style="fill:rgb(183,196,200);"/>
                <rect id="rect1866" x="150" y="289" width="30" height="1" style="fill:rgb(183,196,200);"/>
                <rect id="rect1868" x="150" y="298" width="30" height="1" style="fill:rgb(183,196,200);"/>
                <rect id="rect1870" x="150" y="295" width="30" height="1" style="fill:rgb(183,196,200);"/>
                <rect id="rect1872" x="150" y="304" width="30" height="1" style="fill:rgb(183,196,200);"/>
                <rect id="rect1874" x="150" y="301" width="30" height="1" style="fill:rgb(183,196,200);"/>
                <rect id="rect1876" x="150" y="268" width="30" height="1" style="fill:rgb(183,196,200);"/>
                <rect id="rect1878" x="150" y="265" width="30" height="1" style="fill:rgb(183,196,200);"/>
                <rect id="rect1880" x="150" y="274" width="30" height="1" style="fill:rgb(183,196,200);"/>
                <rect id="rect1882" x="150" y="271" width="30" height="1" style="fill:rgb(183,196,200);"/>
                <rect id="rect1884" x="150" y="280" width="30" height="1" style="fill:rgb(183,196,200);"/>
                <rect id="rect1886" x="150" y="277" width="30" height="1" style="fill:rgb(183,196,200);"/>
            </g>
        </g>
        <g id="g1392" transform="matrix(0.5,0,0,1,0,75)">
            <rect id="rect1312" x="2" y="20" width="26" height="101"/>
            <g id="g1390" transform="matrix(1,0,0,1,-150,-249)">
                <rect id="rect1314" x="150" y="358" width="30" height="1" style="fill:rgb(183,196,200);"/>
                <rect id="rect1316" x="150" y="355" width="30" height="1" style="fill:rgb(183,196,200);"/>
                <rect id="rect1318" x="150" y="364" width="30" height="1" style="fill:rgb(183,196,200);"/>
                <rect id="rect1320" x="150" y="361" width="30" height="1" style="fill:rgb(183,196,200);"/>
                <rect id="rect1322" x="150" y="370" width="30" height="1" style="fill:rgb(183,196,200);"/>
                <rect id="rect1324" x="150" y="367" width="30" height="1" style="fill:rgb(183,196,200);"/>
                <rect id="rect1326" x="150" y="376" width="30" height="1" style="fill:rgb(183,196,200);"/>
                <rect id="rect1328" x="150" y="373" width="30" height="1" style="fill:rgb(183,196,200);"/>
                <rect id="rect1330" x="150" y="334" width="30" height="1" style="fill:rgb(183,196,200);"/>
                <rect id="rect1332" x="150" y="331" width="30" height="1" style="fill:rgb(183,196,200);"/>
                <rect id="rect1334" x="150" y="340" width="30" height="1" style="fill:rgb(183,196,200);"/>
                <rect id="rect1336" x="150" y="337" width="30" height="1" style="fill:rgb(183,196,200);"/>
                <rect id="rect1338" x="150" y="346" width="30" height="1" style="fill:rgb(183,196,200);"/>
                <rect id="rect1340" x="150" y="343" width="30" height="1" style="fill:rgb(183,196,200);"/>
                <rect id="rect1342" x="150" y="352" width="30" height="1" style="fill:rgb(183,196,200);"/>
                <rect id="rect1344" x="150" y="349" width="30" height="1" style="fill:rgb(183,196,200);"/>
                <rect id="rect1346" x="150" y="310" width="30" height="1" style="fill:rgb(183,196,200);"/>
                <rect id="rect1348" x="150" y="307" width="30" height="1" style="fill:rgb(183,196,200);"/>
                <rect id="rect1350" x="150" y="316" width="30" height="1" style="fill:rgb(183,196,200);"/>
                <rect id="rect1352" x="150" y="313" width="30" height="1" style="fill:rgb(183,196,200);"/>
                <rect id="rect1354" x="150" y="322" width="30" height="1" style="fill:rgb(183,196,200);"/>
                <rect id="rect1356" x="150" y="319" width="30" height="1" style="fill:rgb(183,196,200);"/>
                <rect id="rect1358" x="150" y="328" width="30" height="1" style="fill:rgb(183,196,200);"/>
                <rect id="rect1360" x="150" y="325" width="30" height="1" style="fill:rgb(183,196,200);"/>
                <rect id="rect1362" x="150" y="286" width="30" height="1" style="fill:rgb(183,196,200);"/>
                <rect id="rect1364" x="150" y="283" width="30" height="1" style="fill:rgb(183,196,200);"/>
                <rect id="rect1366" x="150" y="292" width="30" height="1" style="fill:rgb(183,196,200);"/>
                <rect id="rect1368" x="150" y="289" width="30" height="1" style="fill:rgb(183,196,200);"/>
                <rect id="rect1370" x="150" y="298" width="30" height="1" style="fill:rgb(183,196,200);"/>
                <rect id="rect1372" x="150" y="295" width="30" height="1" style="fill:rgb(183,196,200);"/>
                <rect id="rect1374" x="150" y="304" width="30" height="1" style="fill:rgb(183,196,200);"/>
                <rect id="rect1376" x="150" y="301" width="30" height="1" style="fill:rgb(183,196,200);"/>
                <rect id="rect1378" x="150" y="268" width="30" height="1" style="fill:rgb(183,196,200);"/>
                <rect id="rect1380" x="150" y="265" width="30" height="1" style="fill:rgb(183,196,200);"/>
                <rect id="rect1382" x="150" y="274" width="30" height="1" style="fill:rgb(183,196,200);"/>
                <rect id="rect1384" x="150" y="271" width="30" height="1" style="fill:rgb(183,196,200);"/>
                <rect id="rect1386" x="150" y="280" width="30" height="1" style="fill:rgb(183,196,200);"/>
                <rect id="rect1388" x="150" y="277" width="30" height="1" style="fill:rgb(183,196,200);"/>
            </g>
        </g>
        <g id="text971" transform="matrix(0.803048,0,0,1.24526,0,0)">
            <path id="path1071" d="M5.544,14.455L3.364,14.455L3.364,8.28L2.491,8.28L2.491,6.383L5.544,6.383L5.544,14.455Z" style="fill:rgb(158,161,168);fill-rule:nonzero;"/>
            <path id="path1073" d="M16.188,14.455L13.909,14.455L13.747,10.774L13.679,9.305C13.654,9.587 13.627,9.858 13.595,10.115C13.564,10.37 13.525,10.617 13.48,10.858L12.795,14.455L11.018,14.455L10.432,10.853C10.397,10.644 10.35,10.285 10.291,9.776C10.284,9.699 10.268,9.542 10.244,9.305L10.192,10.795L9.998,14.455L7.677,14.455L8.618,6.383L11.331,6.383L11.786,9.101C11.825,9.324 11.858,9.567 11.886,9.828C11.917,10.089 11.945,10.373 11.969,10.68C12.015,10.168 12.077,9.709 12.157,9.305L12.712,6.383L15.404,6.383L16.188,14.455Z" style="fill:rgb(158,161,168);fill-rule:nonzero;"/>
        </g>
        <g id="g1054" transform="matrix(0.5,0,0,1,0,64)">
            <rect id="rect973" x="2" y="187" width="26" height="101"/>
            <g id="g1052" transform="matrix(1,0,0,1,-150,-82)">
                <rect id="rect975" x="150" y="358" width="30" height="1" style="fill:rgb(183,196,200);"/>
                <rect id="rect977" x="150" y="355" width="30" height="1" style="fill:rgb(183,196,200);"/>
                <rect id="rect979" x="150" y="364" width="30" height="1" style="fill:rgb(183,196,200);"/>
                <rect id="rect981" x="150" y="361" width="30" height="1" style="fill:rgb(183,196,200);"/>
                <rect id="rect983" x="150" y="370" width="30" height="1" style="fill:rgb(183,196,200);"/>
                <rect id="rect985" x="150" y="367" width="30" height="1" style="fill:rgb(183,196,200);"/>
                <rect id="rect987" x="150" y="376" width="30" height="1" style="fill:rgb(183,196,200);"/>
                <rect id="rect989" x="150" y="373" width="30" height="1" style="fill:rgb(183,196,200);"/>
                <rect id="rect991" x="150" y="334" width="30" height="1" style="fill:rgb(183,196,200);"/>
                <rect id="rect993" x="150" y="331" width="30" height="1" style="fill:rgb(183,196,200);"/>
                <rect id="rect995" x="150" y="340" width="30" height="1" style="fill:rgb(183,196,200);"/>
                <rect id="rect997" x="150" y="337" width="30" height="1" style="fill:rgb(183,196,200);"/>
                <rect id="rect999" x="150" y="346" width="30" height="1" style="fill:rgb(183,196,200);"/>
                <rect id="rect1001" x="150" y="343" width="30" height="1" style="fill:rgb(183,196,200);"/>
                <rect id="rect1003" x="150" y="352" width="30" height="1" style="fill:rgb(183,196,200);"/>
                <rect id="rect1006" x="150" y="349" width="30" height="1" style="fill:rgb(183,196,200);"/>
                <rect id="rect1008" x="150" y="310" width="30" height="1" style="fill:rgb(183,196,200);"/>
                <rect id="rect1010" x="150" y="307" width="30" height="1" style="fill:rgb(183,196,200);"/>
                <rect id="rect1012" x="150" y="316" width="30" height="1" style="fill:rgb(183,196,200);"/>
                <rect id="rect1014" x="150" y="313" width="30" height="1" style="fill:rgb(183,196,200);"/>
                <rect id="rect1016" x="150" y="322" width="30" height="1" style="fill:rgb(183,196,200);"/>
                <rect id="rect1018" x="150" y="319" width="30" height="1" style="fill:rgb(183,196,200);"/>
                <rect id="rect1020" x="150" y="328" width="30" height="1" style="fill:rgb(183,196,200);"/>
                <rect id="rect1022" x="150" y="325" width="30" height="1" style="fill:rgb(183,196,200);"/>
                <rect id="rect1024" x="150" y="286" width="30" height="1" style="fill:rgb(183,196,200);"/>
                <rect id="rect1026" x="150" y="283" width="30" height="1" style="fill:rgb(183,196,200);"/>
                <rect id="rect1028" x="150" y="292" width="30" height="1" style="fill:rgb(183,196,200);"/>
                <rect id="rect1030" x="150" y="289" width="30" height="1" style="fill:rgb(183,196,200);"/>
                <rect id="rect1032" x="150" y="298" width="30" height="1" style="fill:rgb(183,196,200);"/>
                <rect id="rect1034" x="150" y="295" width="30" height="1" style="fill:rgb(183,196,200);"/>
                <rect id="rect1036" x="150" y="304" width="30" height="1" style="fill:rgb(183,196,200);"/>
                <rect id="rect1038" x="150" y="301" width="30" height="1" style="fill:rgb(183,196,200);"/>
                <rect id="rect1040" x="150" y="268" width="30" height="1" style="fill:rgb(183,196,200);"/>
                <rect id="rect1042" x="150" y="265" width="30" height="1" style="fill:rgb(183,196,200);"/>
                <rect id="rect1044" x="150" y="274" width="30" height="1" style="fill:rgb(183,196,200);"/>
                <rect id="rect1046" x="150" y="271" width="30" height="1" style="fill:rgb(183,196,200);"/>
                <rect id="rect1048" x="150" y="280" width="30" height="1" style="fill:rgb(183,196,200);"/>
                <rect id="rect1050" x="150" y="277" width="30" height="1" style="fill:rgb(183,196,200);"/>
            </g>
        </g>
    </g>
</svg>
