<?xml version="1.0" encoding="UTF-8" standalone="no"?>
<!DOCTYPE svg PUBLIC "-//W3C//DTD SVG 1.1//EN" "http://www.w3.org/Graphics/SVG/1.1/DTD/svg11.dtd">
<svg width="100%" height="100%" viewBox="0 0 105 380" version="1.1" xmlns="http://www.w3.org/2000/svg" xmlns:xlink="http://www.w3.org/1999/xlink" xml:space="preserve" xmlns:serif="http://www.serif.com/" style="fill-rule:evenodd;clip-rule:evenodd;stroke-linejoin:round;stroke-miterlimit:2;">
    <g id="Layer-2" serif:id="Layer 2">
        <rect id="rect4689" x="0" y="0" width="105" height="380" style="fill:rgb(44,45,48);"/>
        <g id="text989">
        </g>
        <g id="text80" transform="matrix(1.00498,0,0,0.995047,7.49999,4.99997)">
            <path id="path4726" d="M29.851,371.706L29.851,363.943L31.853,363.943L32.903,366.668C32.96,366.829 33.024,367.013 33.094,367.221C33.168,367.429 33.249,367.668 33.336,367.94L33.552,368.624C33.475,367.95 33.416,367.373 33.376,366.894C33.336,366.415 33.316,366.013 33.316,365.687L33.316,363.943L35.317,363.943L35.317,371.706L33.316,371.706L32.26,368.85C32.149,368.545 32.049,368.26 31.958,367.995C31.871,367.727 31.794,367.472 31.727,367.231C31.77,367.777 31.802,368.253 31.822,368.659C31.843,369.065 31.853,369.42 31.853,369.725L31.853,371.706L29.851,371.706Z" style="fill:rgb(158,161,168);fill-rule:nonzero;"/>
            <path id="path4728" d="M39.887,371.706L37.791,371.706L37.791,368.418L35.865,363.943L38.052,363.943L38.429,365.094C38.503,365.319 38.568,365.535 38.625,365.743C38.686,365.951 38.739,366.15 38.786,366.341C38.863,366.056 38.93,365.811 38.987,365.607C39.044,365.399 39.095,365.232 39.138,365.104L39.52,363.943L41.692,363.943L39.887,368.418L39.887,371.706Z" style="fill:rgb(158,161,168);fill-rule:nonzero;"/>
            <path id="path4730" d="M41.894,371.515L41.894,369.076C42.306,369.639 42.752,369.921 43.231,369.921C43.412,369.921 43.56,369.874 43.673,369.78C43.787,369.683 43.844,369.562 43.844,369.418C43.844,369.21 43.72,369.008 43.472,368.81L43.13,368.543C42.902,368.372 42.708,368.203 42.547,368.035C42.386,367.865 42.256,367.69 42.155,367.513C42.054,367.332 41.981,367.146 41.934,366.954C41.887,366.763 41.863,366.562 41.863,366.351C41.863,365.989 41.947,365.61 42.115,365.215C42.199,365.03 42.296,364.863 42.406,364.712C42.517,364.558 42.644,364.422 42.789,364.305C43.184,363.969 43.662,363.802 44.222,363.802C44.721,363.802 45.224,363.934 45.73,364.199L45.73,366.572C45.559,366.308 45.365,366.1 45.147,365.949C44.929,365.795 44.714,365.718 44.503,365.718C44.342,365.718 44.21,365.765 44.106,365.858C43.999,365.949 43.945,366.058 43.945,366.185C43.945,366.393 44.087,366.599 44.372,366.804L44.704,367.05C45.147,367.368 45.463,367.695 45.655,368.03C45.849,368.366 45.946,368.758 45.946,369.207C45.946,369.971 45.713,370.601 45.247,371.098C44.781,371.594 44.191,371.842 43.477,371.842C42.985,371.842 42.457,371.733 41.894,371.515L41.894,371.515Z" style="fill:rgb(158,161,168);fill-rule:nonzero;"/>
            <path id="path4732" d="M49.576,371.706L47.48,371.706L47.48,365.803L46.323,365.803L46.323,363.943L50.778,363.943L50.778,365.803L49.576,365.803L49.576,371.706Z" style="fill:rgb(158,161,168);fill-rule:nonzero;"/>
            <path id="path4734" d="M56.525,371.706L54.428,371.706L54.428,368.584L53.428,368.584L53.428,371.706L51.331,371.706L51.331,363.943L53.428,363.943L53.428,366.688L54.428,366.688L54.428,363.943L56.525,363.943L56.525,371.706Z" style="fill:rgb(158,161,168);fill-rule:nonzero;"/>
            <rect id="path4736" x="57.606" y="363.943" width="2.097" height="7.763" style="fill:rgb(158,161,168);fill-rule:nonzero;"/>
        </g>
        <g id="text4987">
        </g>
        <g id="text1093" transform="matrix(1,0,0,1,-19,0)">
            <path id="path1158" d="M40.527,17.789L36.91,17.789L36.309,16.07C36.116,15.544 35.96,15.039 35.84,14.555C35.725,15.034 35.553,15.583 35.324,16.203L34.723,17.789L31.176,17.789L34.105,11.531L31.34,5.727L34.965,5.727L35.504,7.359C35.561,7.51 35.616,7.687 35.668,7.891C35.725,8.094 35.783,8.323 35.84,8.578C35.97,8.057 36.079,7.656 36.168,7.375L36.668,5.727L40.316,5.727L37.566,11.531L40.527,17.789Z" style="fill:rgb(158,161,168);fill-rule:nonzero;"/>
            <path id="path1160" d="M50.051,17.789L46.684,17.789L46.441,16.258L44.246,16.258L43.98,17.789L40.613,17.789L43.512,5.727L47.496,5.727L50.051,17.789ZM46.059,13.672L45.848,12.266C45.842,12.26 45.832,12.19 45.816,12.055C45.806,11.94 45.751,11.487 45.652,10.695C45.642,10.607 45.629,10.487 45.613,10.336C45.598,10.18 45.577,9.984 45.551,9.75L45.449,8.609C45.439,8.719 45.423,8.841 45.402,8.977C45.387,9.112 45.368,9.26 45.348,9.422C45.311,9.745 45.285,9.969 45.269,10.094C45.254,10.219 45.243,10.294 45.238,10.32L45.011,11.781L44.683,13.672L46.059,13.672Z" style="fill:rgb(158,161,168);fill-rule:nonzero;"/>
            <path id="path1162" d="M55.199,17.789L51.941,17.789L51.941,8.617L50.145,8.617L50.145,5.727L57.066,5.727L57.066,8.617L55.199,8.617L55.199,17.789Z" style="fill:rgb(158,161,168);fill-rule:nonzero;"/>
            <path id="path1164" d="M62.137,17.789L58.879,17.789L58.879,8.617L57.082,8.617L57.082,5.727L64.004,5.727L64.004,8.617L62.137,8.617L62.137,17.789Z" style="fill:rgb(158,161,168);fill-rule:nonzero;"/>
            <path id="path1167" d="M73.824,11.797C73.824,13.635 73.405,15.13 72.566,16.281C71.733,17.427 70.647,18 69.309,18C68.121,18 67.103,17.56 66.254,16.68C65.186,15.565 64.652,13.893 64.652,11.664C64.652,9.529 65.21,7.896 66.324,6.766C67.152,5.927 68.134,5.508 69.27,5.508C70.66,5.508 71.767,6.076 72.59,7.211C73.413,8.346 73.824,9.875 73.824,11.797ZM70.441,11.82C70.441,9.638 70.056,8.547 69.285,8.547C68.9,8.547 68.592,8.833 68.363,9.406C68.139,9.937 68.027,10.719 68.027,11.75C68.027,12.766 68.132,13.555 68.34,14.117C68.553,14.674 68.848,14.953 69.223,14.953C69.608,14.953 69.905,14.677 70.113,14.125C70.332,13.573 70.441,12.805 70.441,11.82L70.441,11.82Z" style="fill:rgb(158,161,168);fill-rule:nonzero;"/>
            <path id="path1169" d="M84.23,17.789L80.973,17.789L80.973,8.617L79.176,8.617L79.176,5.727L86.098,5.727L86.098,8.617L84.23,8.617L84.23,17.789Z" style="fill:rgb(158,161,168);fill-rule:nonzero;"/>
            <rect id="path1171" x="86.957" y="5.727" width="3.258" height="12.063" style="fill:rgb(158,161,168);fill-rule:nonzero;"/>
            <path id="path1173" d="M104.309,17.789L100.902,17.789L100.66,12.289L100.559,10.094C100.522,10.516 100.48,10.919 100.434,11.305C100.387,11.685 100.329,12.055 100.262,12.414L99.238,17.789L96.582,17.789L95.707,12.406C95.655,12.094 95.585,11.557 95.496,10.797C95.486,10.682 95.462,10.448 95.426,10.094L95.348,12.32L95.059,17.789L91.59,17.789L92.996,5.727L97.051,5.727L97.73,9.789C97.788,10.122 97.837,10.484 97.879,10.875C97.926,11.266 97.967,11.69 98.004,12.148C98.072,11.383 98.165,10.698 98.285,10.094L99.113,5.727L103.137,5.727L104.309,17.789Z" style="fill:rgb(158,161,168);fill-rule:nonzero;"/>
            <path id="path1175" d="M105.77,17.789L105.77,5.727L111.824,5.727L111.824,8.562L109.027,8.562L109.027,10.32L111.535,10.32L111.535,13.047L109.027,13.047L109.027,14.891L111.824,14.891L111.824,17.789L105.77,17.789Z" style="fill:rgb(158,161,168);fill-rule:nonzero;"/>
        </g>
        <g id="text1180" transform="matrix(1,0,0,1,10,-4)">
            <rect id="path1213" x="4" y="30.072" width="1.354" height="10.052" style="fill:rgb(158,161,168);fill-rule:nonzero;"/>
            <path id="path1215" d="M6.917,30.072L8.18,30.072L9.527,34.082C9.918,35.215 10.263,36.424 10.563,37.708C10.454,36.931 10.374,36.228 10.322,35.599C10.27,34.97 10.243,34.377 10.243,33.822L10.243,30.072L11.604,30.072L11.604,40.124L10.335,40.124L8.818,35.599C8.679,35.178 8.546,34.746 8.421,34.303C8.299,33.861 8.186,33.396 8.082,32.91C8.073,32.849 8.058,32.776 8.036,32.689C8.019,32.602 7.997,32.502 7.971,32.389C7.984,32.502 7.995,32.6 8.004,32.682C8.013,32.76 8.019,32.828 8.023,32.884L8.095,33.906L8.167,35.15C8.171,35.219 8.173,35.304 8.173,35.404C8.177,35.503 8.18,35.616 8.18,35.742L8.251,40.124L6.917,40.124L6.917,30.072Z" style="fill:rgb(158,161,168);fill-rule:nonzero;"/>
        </g>
        <g id="text1184" transform="matrix(1,0,0,1,-4.57292,-4)">
            <path id="path1206" d="M87.807,35.221C87.807,36.997 87.61,38.257 87.215,39.004C86.82,39.75 86.158,40.124 85.229,40.124C84.253,40.124 83.565,39.722 83.165,38.919C82.77,38.134 82.573,36.738 82.573,34.733C82.573,32.945 82.768,31.68 83.159,30.937C83.554,30.191 84.222,29.818 85.164,29.818C86.006,29.818 86.631,30.106 87.039,30.684C87.308,31.07 87.503,31.619 87.625,32.331C87.747,32.99 87.807,33.954 87.807,35.221L87.807,35.221ZM86.388,35.365C86.388,33.624 86.31,32.47 86.154,31.901C85.997,31.328 85.678,31.042 85.197,31.042C84.715,31.042 84.394,31.304 84.233,31.829C84.077,32.359 83.999,33.422 83.999,35.02C83.999,36.491 84.081,37.511 84.246,38.079C84.415,38.618 84.732,38.887 85.197,38.887C85.652,38.887 85.965,38.635 86.134,38.132C86.303,37.632 86.388,36.71 86.388,35.365L86.388,35.365Z" style="fill:rgb(158,161,168);fill-rule:nonzero;"/>
            <path id="path1208" d="M89.155,29.948L90.483,29.948L90.483,37.051C90.483,37.776 90.548,38.257 90.678,38.496C90.813,38.735 91.078,38.854 91.473,38.854C91.868,38.854 92.128,38.75 92.254,38.542C92.384,38.329 92.449,37.897 92.449,37.246L92.449,29.948L93.777,29.948L93.777,37.246C93.777,38.34 93.61,39.08 93.276,39.466C92.877,39.905 92.267,40.124 91.447,40.124C90.544,40.124 89.908,39.842 89.539,39.277C89.283,38.891 89.155,38.149 89.155,37.051L89.155,29.948Z" style="fill:rgb(158,161,168);fill-rule:nonzero;"/>
            <path id="path1210" d="M94.526,29.948L98.934,29.948L98.934,31.133L97.417,31.133L97.417,40L96.089,40L96.089,31.133L94.526,31.133L94.526,29.948Z" style="fill:rgb(158,161,168);fill-rule:nonzero;"/>
        </g>
        <g id="path1194" transform="matrix(1,0,0,1,-7.05206,23.8763)">
            <path d="M68.052,71.385L69.523,71.385L70.116,72.687C70.185,72.839 70.25,73 70.311,73.169C70.372,73.334 70.426,73.51 70.474,73.697C70.509,73.532 70.55,73.373 70.598,73.221C70.645,73.069 70.7,72.92 70.76,72.772L70.845,72.577L71.333,71.385L72.642,71.385L71.118,74.569L72.961,78.124L71.477,78.124L70.884,76.835C70.593,76.231 70.422,75.75 70.37,75.389C70.331,75.737 70.192,76.179 69.953,76.717L69.354,78.124L68.052,78.124L69.738,74.569L68.052,71.385Z" style="fill:rgb(158,161,168);fill-rule:nonzero;"/>
        </g>
        <g id="text1220" transform="matrix(1,0,0,1,4,5.8763)">
            <path id="path1222" d="M8.147,88.111L8.147,89.328C7.8,89.159 7.509,89.074 7.275,89.074C6.954,89.074 6.678,89.155 6.448,89.315C6.218,89.471 6.027,89.714 5.875,90.044C5.727,90.374 5.617,90.793 5.543,91.301C5.474,91.804 5.439,92.401 5.439,93.091C5.439,95.574 6.075,96.815 7.346,96.815C7.568,96.815 7.835,96.746 8.147,96.607L8.147,97.85C7.822,98.033 7.457,98.124 7.053,98.124C5.018,98.124 4,96.461 4,93.137C4,91.34 4.247,90.003 4.742,89.126C5.241,88.25 6.003,87.811 7.027,87.811C7.405,87.811 7.778,87.911 8.147,88.111L8.147,88.111Z" style="fill:rgb(158,161,168);fill-rule:nonzero;"/>
            <path id="path1224" d="M9.28,87.948L10.634,87.948L10.634,96.854L12.848,96.854L12.848,98L9.28,98L9.28,87.948Z" style="fill:rgb(158,161,168);fill-rule:nonzero;"/>
            <path id="path1226" d="M18.74,93.221C18.74,94.997 18.542,96.257 18.147,97.004C17.752,97.75 17.09,98.124 16.161,98.124C15.185,98.124 14.497,97.722 14.098,96.919C13.703,96.134 13.505,94.738 13.505,92.733C13.505,90.945 13.701,89.68 14.091,88.937C14.486,88.191 15.155,87.818 16.096,87.818C16.938,87.818 17.563,88.106 17.971,88.684C18.24,89.07 18.436,89.619 18.557,90.331C18.679,90.99 18.74,91.954 18.74,93.221L18.74,93.221ZM17.32,93.365C17.32,91.624 17.242,90.47 17.086,89.901C16.93,89.328 16.611,89.042 16.129,89.042C15.647,89.042 15.326,89.304 15.165,89.829C15.009,90.359 14.931,91.422 14.931,93.02C14.931,94.491 15.013,95.511 15.178,96.079C15.348,96.618 15.664,96.887 16.129,96.887C16.585,96.887 16.897,96.635 17.066,96.132C17.236,95.632 17.32,94.71 17.32,93.365L17.32,93.365Z" style="fill:rgb(158,161,168);fill-rule:nonzero;"/>
            <path id="path1228" d="M24.033,88.111L24.033,89.328C23.685,89.159 23.395,89.074 23.16,89.074C22.839,89.074 22.563,89.155 22.333,89.315C22.103,89.471 21.912,89.714 21.76,90.044C21.613,90.374 21.502,90.793 21.428,91.301C21.359,91.804 21.324,92.401 21.324,93.091C21.324,95.574 21.96,96.815 23.232,96.815C23.453,96.815 23.72,96.746 24.033,96.607L24.033,97.85C23.707,98.033 23.342,98.124 22.939,98.124C20.903,98.124 19.885,96.461 19.885,93.137C19.885,91.34 20.133,90.003 20.628,89.126C21.127,88.25 21.888,87.811 22.913,87.811C23.29,87.811 23.664,87.911 24.033,88.111L24.033,88.111Z" style="fill:rgb(158,161,168);fill-rule:nonzero;"/>
            <path id="path1230" d="M25.165,87.948L26.52,87.948L26.52,92.818L28.408,87.948L29.775,87.948L27.796,92.818L29.931,98L28.408,98L26.52,92.818L26.52,98L25.165,98L25.165,87.948Z" style="fill:rgb(158,161,168);fill-rule:nonzero;"/>
        </g>
        <g id="g1237" transform="matrix(1,0,0,1,10,81)">
            <rect id="path1233" x="4" y="30.072" width="1.354" height="10.052" style="fill:rgb(158,161,168);fill-rule:nonzero;"/>
            <path id="path1235" d="M6.917,30.072L8.18,30.072L9.527,34.082C9.918,35.215 10.263,36.424 10.563,37.708C10.454,36.931 10.374,36.228 10.322,35.599C10.27,34.97 10.243,34.377 10.243,33.822L10.243,30.072L11.604,30.072L11.604,40.124L10.335,40.124L8.818,35.599C8.679,35.178 8.546,34.746 8.421,34.303C8.299,33.861 8.186,33.396 8.082,32.91C8.073,32.849 8.058,32.776 8.036,32.689C8.019,32.602 7.997,32.502 7.971,32.389C7.984,32.502 7.995,32.6 8.004,32.682C8.013,32.76 8.019,32.828 8.023,32.884L8.095,33.906L8.167,35.15C8.171,35.219 8.173,35.304 8.173,35.404C8.177,35.503 8.18,35.616 8.18,35.742L8.251,40.124L6.917,40.124L6.917,30.072Z" style="fill:rgb(158,161,168);fill-rule:nonzero;"/>
        </g>
        <g id="g1245" transform="matrix(1,0,0,1,-4.57292,81)">
            <path id="path1239" d="M87.807,35.221C87.807,36.997 87.61,38.257 87.215,39.004C86.82,39.75 86.158,40.124 85.229,40.124C84.253,40.124 83.565,39.722 83.165,38.919C82.77,38.134 82.573,36.738 82.573,34.733C82.573,32.945 82.768,31.68 83.159,30.937C83.554,30.191 84.222,29.818 85.164,29.818C86.006,29.818 86.631,30.106 87.039,30.684C87.308,31.07 87.503,31.619 87.625,32.331C87.747,32.99 87.807,33.954 87.807,35.221L87.807,35.221ZM86.388,35.365C86.388,33.624 86.31,32.47 86.154,31.901C85.997,31.328 85.678,31.042 85.197,31.042C84.715,31.042 84.394,31.304 84.233,31.829C84.077,32.359 83.999,33.422 83.999,35.02C83.999,36.491 84.081,37.511 84.246,38.079C84.415,38.618 84.732,38.887 85.197,38.887C85.652,38.887 85.965,38.635 86.134,38.132C86.303,37.632 86.388,36.71 86.388,35.365L86.388,35.365Z" style="fill:rgb(158,161,168);fill-rule:nonzero;"/>
            <path id="path1241" d="M89.155,29.948L90.483,29.948L90.483,37.051C90.483,37.776 90.548,38.257 90.678,38.496C90.813,38.735 91.078,38.854 91.473,38.854C91.868,38.854 92.128,38.75 92.254,38.542C92.384,38.329 92.449,37.897 92.449,37.246L92.449,29.948L93.777,29.948L93.777,37.246C93.777,38.34 93.61,39.08 93.276,39.466C92.877,39.905 92.267,40.124 91.447,40.124C90.544,40.124 89.908,39.842 89.539,39.277C89.283,38.891 89.155,38.149 89.155,37.051L89.155,29.948Z" style="fill:rgb(158,161,168);fill-rule:nonzero;"/>
            <path id="path1243" d="M94.526,29.948L98.934,29.948L98.934,31.133L97.417,31.133L97.417,40L96.089,40L96.089,31.133L94.526,31.133L94.526,29.948Z" style="fill:rgb(158,161,168);fill-rule:nonzero;"/>
        </g>
        <g id="path1247" transform="matrix(1,0,0,1,-7.05206,108.876)">
            <path d="M68.052,71.385L69.523,71.385L70.116,72.687C70.185,72.839 70.25,73 70.311,73.169C70.372,73.334 70.426,73.51 70.474,73.697C70.509,73.532 70.55,73.373 70.598,73.221C70.645,73.069 70.7,72.92 70.76,72.772L70.845,72.577L71.333,71.385L72.642,71.385L71.118,74.569L72.961,78.124L71.477,78.124L70.884,76.835C70.593,76.231 70.422,75.75 70.37,75.389C70.331,75.737 70.192,76.179 69.953,76.717L69.354,78.124L68.052,78.124L69.738,74.569L68.052,71.385Z" style="fill:rgb(158,161,168);fill-rule:nonzero;"/>
        </g>
        <g id="g1261" transform="matrix(1,0,0,1,4,90.8763)">
            <path id="path1251" d="M8.147,88.111L8.147,89.328C7.8,89.159 7.509,89.074 7.275,89.074C6.954,89.074 6.678,89.155 6.448,89.315C6.218,89.471 6.027,89.714 5.875,90.044C5.727,90.374 5.617,90.793 5.543,91.301C5.474,91.804 5.439,92.401 5.439,93.091C5.439,95.574 6.075,96.815 7.346,96.815C7.568,96.815 7.835,96.746 8.147,96.607L8.147,97.85C7.822,98.033 7.457,98.124 7.053,98.124C5.018,98.124 4,96.461 4,93.137C4,91.34 4.247,90.003 4.742,89.126C5.241,88.25 6.003,87.811 7.027,87.811C7.405,87.811 7.778,87.911 8.147,88.111L8.147,88.111Z" style="fill:rgb(158,161,168);fill-rule:nonzero;"/>
            <path id="path1253" d="M9.28,87.948L10.634,87.948L10.634,96.854L12.848,96.854L12.848,98L9.28,98L9.28,87.948Z" style="fill:rgb(158,161,168);fill-rule:nonzero;"/>
            <path id="path1255" d="M18.74,93.221C18.74,94.997 18.542,96.257 18.147,97.004C17.752,97.75 17.09,98.124 16.161,98.124C15.185,98.124 14.497,97.722 14.098,96.919C13.703,96.134 13.505,94.738 13.505,92.733C13.505,90.945 13.701,89.68 14.091,88.937C14.486,88.191 15.155,87.818 16.096,87.818C16.938,87.818 17.563,88.106 17.971,88.684C18.24,89.07 18.436,89.619 18.557,90.331C18.679,90.99 18.74,91.954 18.74,93.221L18.74,93.221ZM17.32,93.365C17.32,91.624 17.242,90.47 17.086,89.901C16.93,89.328 16.611,89.042 16.129,89.042C15.647,89.042 15.326,89.304 15.165,89.829C15.009,90.359 14.931,91.422 14.931,93.02C14.931,94.491 15.013,95.511 15.178,96.079C15.348,96.618 15.664,96.887 16.129,96.887C16.585,96.887 16.897,96.635 17.066,96.132C17.236,95.632 17.32,94.71 17.32,93.365L17.32,93.365Z" style="fill:rgb(158,161,168);fill-rule:nonzero;"/>
            <path id="path1257" d="M24.033,88.111L24.033,89.328C23.685,89.159 23.395,89.074 23.16,89.074C22.839,89.074 22.563,89.155 22.333,89.315C22.103,89.471 21.912,89.714 21.76,90.044C21.613,90.374 21.502,90.793 21.428,91.301C21.359,91.804 21.324,92.401 21.324,93.091C21.324,95.574 21.96,96.815 23.232,96.815C23.453,96.815 23.72,96.746 24.033,96.607L24.033,97.85C23.707,98.033 23.342,98.124 22.939,98.124C20.903,98.124 19.885,96.461 19.885,93.137C19.885,91.34 20.133,90.003 20.628,89.126C21.127,88.25 21.888,87.811 22.913,87.811C23.29,87.811 23.664,87.911 24.033,88.111L24.033,88.111Z" style="fill:rgb(158,161,168);fill-rule:nonzero;"/>
            <path id="path1259" d="M25.165,87.948L26.52,87.948L26.52,92.818L28.408,87.948L29.775,87.948L27.796,92.818L29.931,98L28.408,98L26.52,92.818L26.52,98L25.165,98L25.165,87.948Z" style="fill:rgb(158,161,168);fill-rule:nonzero;"/>
        </g>
        <g id="g1267" transform="matrix(1,0,0,1,10,166)">
            <rect id="path1263" x="4" y="30.072" width="1.354" height="10.052" style="fill:rgb(158,161,168);fill-rule:nonzero;"/>
            <path id="path1265" d="M6.917,30.072L8.18,30.072L9.527,34.082C9.918,35.215 10.263,36.424 10.563,37.708C10.454,36.931 10.374,36.228 10.322,35.599C10.27,34.97 10.243,34.377 10.243,33.822L10.243,30.072L11.604,30.072L11.604,40.124L10.335,40.124L8.818,35.599C8.679,35.178 8.546,34.746 8.421,34.303C8.299,33.861 8.186,33.396 8.082,32.91C8.073,32.849 8.058,32.776 8.036,32.689C8.019,32.602 7.997,32.502 7.971,32.389C7.984,32.502 7.995,32.6 8.004,32.682C8.013,32.76 8.019,32.828 8.023,32.884L8.095,33.906L8.167,35.15C8.171,35.219 8.173,35.304 8.173,35.404C8.177,35.503 8.18,35.616 8.18,35.742L8.251,40.124L6.917,40.124L6.917,30.072Z" style="fill:rgb(158,161,168);fill-rule:nonzero;"/>
        </g>
        <g id="g1275" transform="matrix(1,0,0,1,-4.57292,166)">
            <path id="path1269" d="M87.807,35.221C87.807,36.997 87.61,38.257 87.215,39.004C86.82,39.75 86.158,40.124 85.229,40.124C84.253,40.124 83.565,39.722 83.165,38.919C82.77,38.134 82.573,36.738 82.573,34.733C82.573,32.945 82.768,31.68 83.159,30.937C83.554,30.191 84.222,29.818 85.164,29.818C86.006,29.818 86.631,30.106 87.039,30.684C87.308,31.07 87.503,31.619 87.625,32.331C87.747,32.99 87.807,33.954 87.807,35.221L87.807,35.221ZM86.388,35.365C86.388,33.624 86.31,32.47 86.154,31.901C85.997,31.328 85.678,31.042 85.197,31.042C84.715,31.042 84.394,31.304 84.233,31.829C84.077,32.359 83.999,33.422 83.999,35.02C83.999,36.491 84.081,37.511 84.246,38.079C84.415,38.618 84.732,38.887 85.197,38.887C85.652,38.887 85.965,38.635 86.134,38.132C86.303,37.632 86.388,36.71 86.388,35.365L86.388,35.365Z" style="fill:rgb(158,161,168);fill-rule:nonzero;"/>
            <path id="path1271" d="M89.155,29.948L90.483,29.948L90.483,37.051C90.483,37.776 90.548,38.257 90.678,38.496C90.813,38.735 91.078,38.854 91.473,38.854C91.868,38.854 92.128,38.75 92.254,38.542C92.384,38.329 92.449,37.897 92.449,37.246L92.449,29.948L93.777,29.948L93.777,37.246C93.777,38.34 93.61,39.08 93.276,39.466C92.877,39.905 92.267,40.124 91.447,40.124C90.544,40.124 89.908,39.842 89.539,39.277C89.283,38.891 89.155,38.149 89.155,37.051L89.155,29.948Z" style="fill:rgb(158,161,168);fill-rule:nonzero;"/>
            <path id="path1273" d="M94.526,29.948L98.934,29.948L98.934,31.133L97.417,31.133L97.417,40L96.089,40L96.089,31.133L94.526,31.133L94.526,29.948Z" style="fill:rgb(158,161,168);fill-rule:nonzero;"/>
        </g>
        <g id="path1277" transform="matrix(1,0,0,1,-7.05206,193.876)">
            <path d="M68.052,71.385L69.523,71.385L70.116,72.687C70.185,72.839 70.25,73 70.311,73.169C70.372,73.334 70.426,73.51 70.474,73.697C70.509,73.532 70.55,73.373 70.598,73.221C70.645,73.069 70.7,72.92 70.76,72.772L70.845,72.577L71.333,71.385L72.642,71.385L71.118,74.569L72.961,78.124L71.477,78.124L70.884,76.835C70.593,76.231 70.422,75.75 70.37,75.389C70.331,75.737 70.192,76.179 69.953,76.717L69.354,78.124L68.052,78.124L69.738,74.569L68.052,71.385Z" style="fill:rgb(158,161,168);fill-rule:nonzero;"/>
        </g>
        <g id="g1291" transform="matrix(1,0,0,1,4,175.876)">
            <path id="path1281" d="M8.147,88.111L8.147,89.328C7.8,89.159 7.509,89.074 7.275,89.074C6.954,89.074 6.678,89.155 6.448,89.315C6.218,89.471 6.027,89.714 5.875,90.044C5.727,90.374 5.617,90.793 5.543,91.301C5.474,91.804 5.439,92.401 5.439,93.091C5.439,95.574 6.075,96.815 7.346,96.815C7.568,96.815 7.835,96.746 8.147,96.607L8.147,97.85C7.822,98.033 7.457,98.124 7.053,98.124C5.018,98.124 4,96.461 4,93.137C4,91.34 4.247,90.003 4.742,89.126C5.241,88.25 6.003,87.811 7.027,87.811C7.405,87.811 7.778,87.911 8.147,88.111L8.147,88.111Z" style="fill:rgb(158,161,168);fill-rule:nonzero;"/>
            <path id="path1283" d="M9.28,87.948L10.634,87.948L10.634,96.854L12.848,96.854L12.848,98L9.28,98L9.28,87.948Z" style="fill:rgb(158,161,168);fill-rule:nonzero;"/>
            <path id="path1285" d="M18.74,93.221C18.74,94.997 18.542,96.257 18.147,97.004C17.752,97.75 17.09,98.124 16.161,98.124C15.185,98.124 14.497,97.722 14.098,96.919C13.703,96.134 13.505,94.738 13.505,92.733C13.505,90.945 13.701,89.68 14.091,88.937C14.486,88.191 15.155,87.818 16.096,87.818C16.938,87.818 17.563,88.106 17.971,88.684C18.24,89.07 18.436,89.619 18.557,90.331C18.679,90.99 18.74,91.954 18.74,93.221L18.74,93.221ZM17.32,93.365C17.32,91.624 17.242,90.47 17.086,89.901C16.93,89.328 16.611,89.042 16.129,89.042C15.647,89.042 15.326,89.304 15.165,89.829C15.009,90.359 14.931,91.422 14.931,93.02C14.931,94.491 15.013,95.511 15.178,96.079C15.348,96.618 15.664,96.887 16.129,96.887C16.585,96.887 16.897,96.635 17.066,96.132C17.236,95.632 17.32,94.71 17.32,93.365L17.32,93.365Z" style="fill:rgb(158,161,168);fill-rule:nonzero;"/>
            <path id="path1287" d="M24.033,88.111L24.033,89.328C23.685,89.159 23.395,89.074 23.16,89.074C22.839,89.074 22.563,89.155 22.333,89.315C22.103,89.471 21.912,89.714 21.76,90.044C21.613,90.374 21.502,90.793 21.428,91.301C21.359,91.804 21.324,92.401 21.324,93.091C21.324,95.574 21.96,96.815 23.232,96.815C23.453,96.815 23.72,96.746 24.033,96.607L24.033,97.85C23.707,98.033 23.342,98.124 22.939,98.124C20.903,98.124 19.885,96.461 19.885,93.137C19.885,91.34 20.133,90.003 20.628,89.126C21.127,88.25 21.888,87.811 22.913,87.811C23.29,87.811 23.664,87.911 24.033,88.111L24.033,88.111Z" style="fill:rgb(158,161,168);fill-rule:nonzero;"/>
            <path id="path1289" d="M25.165,87.948L26.52,87.948L26.52,92.818L28.408,87.948L29.775,87.948L27.796,92.818L29.931,98L28.408,98L26.52,92.818L26.52,98L25.165,98L25.165,87.948Z" style="fill:rgb(158,161,168);fill-rule:nonzero;"/>
        </g>
        <g id="g1297" transform="matrix(1,0,0,1,10,251)">
            <rect id="path1293" x="4" y="30.072" width="1.354" height="10.052" style="fill:rgb(158,161,168);fill-rule:nonzero;"/>
            <path id="path1295" d="M6.917,30.072L8.18,30.072L9.527,34.082C9.918,35.215 10.263,36.424 10.563,37.708C10.454,36.931 10.374,36.228 10.322,35.599C10.27,34.97 10.243,34.377 10.243,33.822L10.243,30.072L11.604,30.072L11.604,40.124L10.335,40.124L8.818,35.599C8.679,35.178 8.546,34.746 8.421,34.303C8.299,33.861 8.186,33.396 8.082,32.91C8.073,32.849 8.058,32.776 8.036,32.689C8.019,32.602 7.997,32.502 7.971,32.389C7.984,32.502 7.995,32.6 8.004,32.682C8.013,32.76 8.019,32.828 8.023,32.884L8.095,33.906L8.167,35.15C8.171,35.219 8.173,35.304 8.173,35.404C8.177,35.503 8.18,35.616 8.18,35.742L8.251,40.124L6.917,40.124L6.917,30.072Z" style="fill:rgb(158,161,168);fill-rule:nonzero;"/>
        </g>
        <g id="g1305" transform="matrix(1,0,0,1,-4.57292,251)">
            <path id="path1299" d="M87.807,35.221C87.807,36.997 87.61,38.257 87.215,39.004C86.82,39.75 86.158,40.124 85.229,40.124C84.253,40.124 83.565,39.722 83.165,38.919C82.77,38.134 82.573,36.738 82.573,34.733C82.573,32.945 82.768,31.68 83.159,30.937C83.554,30.191 84.222,29.818 85.164,29.818C86.006,29.818 86.631,30.106 87.039,30.684C87.308,31.07 87.503,31.619 87.625,32.331C87.747,32.99 87.807,33.954 87.807,35.221L87.807,35.221ZM86.388,35.365C86.388,33.624 86.31,32.47 86.154,31.901C85.997,31.328 85.678,31.042 85.197,31.042C84.715,31.042 84.394,31.304 84.233,31.829C84.077,32.359 83.999,33.422 83.999,35.02C83.999,36.491 84.081,37.511 84.246,38.079C84.415,38.618 84.732,38.887 85.197,38.887C85.652,38.887 85.965,38.635 86.134,38.132C86.303,37.632 86.388,36.71 86.388,35.365L86.388,35.365Z" style="fill:rgb(158,161,168);fill-rule:nonzero;"/>
            <path id="path1301" d="M89.155,29.948L90.483,29.948L90.483,37.051C90.483,37.776 90.548,38.257 90.678,38.496C90.813,38.735 91.078,38.854 91.473,38.854C91.868,38.854 92.128,38.75 92.254,38.542C92.384,38.329 92.449,37.897 92.449,37.246L92.449,29.948L93.777,29.948L93.777,37.246C93.777,38.34 93.61,39.08 93.276,39.466C92.877,39.905 92.267,40.124 91.447,40.124C90.544,40.124 89.908,39.842 89.539,39.277C89.283,38.891 89.155,38.149 89.155,37.051L89.155,29.948Z" style="fill:rgb(158,161,168);fill-rule:nonzero;"/>
            <path id="path1303" d="M94.526,29.948L98.934,29.948L98.934,31.133L97.417,31.133L97.417,40L96.089,40L96.089,31.133L94.526,31.133L94.526,29.948Z" style="fill:rgb(158,161,168);fill-rule:nonzero;"/>
        </g>
        <g id="path1307" transform="matrix(1,0,0,1,-7.05206,278.876)">
            <path d="M68.052,71.385L69.523,71.385L70.116,72.687C70.185,72.839 70.25,73 70.311,73.169C70.372,73.334 70.426,73.51 70.474,73.697C70.509,73.532 70.55,73.373 70.598,73.221C70.645,73.069 70.7,72.92 70.76,72.772L70.845,72.577L71.333,71.385L72.642,71.385L71.118,74.569L72.961,78.124L71.477,78.124L70.884,76.835C70.593,76.231 70.422,75.75 70.37,75.389C70.331,75.737 70.192,76.179 69.953,76.717L69.354,78.124L68.052,78.124L69.738,74.569L68.052,71.385Z" style="fill:rgb(158,161,168);fill-rule:nonzero;"/>
        </g>
        <g id="g1321" transform="matrix(1,0,0,1,4,260.876)">
            <path id="path1311" d="M8.147,88.111L8.147,89.328C7.8,89.159 7.509,89.074 7.275,89.074C6.954,89.074 6.678,89.155 6.448,89.315C6.218,89.471 6.027,89.714 5.875,90.044C5.727,90.374 5.617,90.793 5.543,91.301C5.474,91.804 5.439,92.401 5.439,93.091C5.439,95.574 6.075,96.815 7.346,96.815C7.568,96.815 7.835,96.746 8.147,96.607L8.147,97.85C7.822,98.033 7.457,98.124 7.053,98.124C5.018,98.124 4,96.461 4,93.137C4,91.34 4.247,90.003 4.742,89.126C5.241,88.25 6.003,87.811 7.027,87.811C7.405,87.811 7.778,87.911 8.147,88.111L8.147,88.111Z" style="fill:rgb(158,161,168);fill-rule:nonzero;"/>
            <path id="path1313" d="M9.28,87.948L10.634,87.948L10.634,96.854L12.848,96.854L12.848,98L9.28,98L9.28,87.948Z" style="fill:rgb(158,161,168);fill-rule:nonzero;"/>
            <path id="path1315" d="M18.74,93.221C18.74,94.997 18.542,96.257 18.147,97.004C17.752,97.75 17.09,98.124 16.161,98.124C15.185,98.124 14.497,97.722 14.098,96.919C13.703,96.134 13.505,94.738 13.505,92.733C13.505,90.945 13.701,89.68 14.091,88.937C14.486,88.191 15.155,87.818 16.096,87.818C16.938,87.818 17.563,88.106 17.971,88.684C18.24,89.07 18.436,89.619 18.557,90.331C18.679,90.99 18.74,91.954 18.74,93.221L18.74,93.221ZM17.32,93.365C17.32,91.624 17.242,90.47 17.086,89.901C16.93,89.328 16.611,89.042 16.129,89.042C15.647,89.042 15.326,89.304 15.165,89.829C15.009,90.359 14.931,91.422 14.931,93.02C14.931,94.491 15.013,95.511 15.178,96.079C15.348,96.618 15.664,96.887 16.129,96.887C16.585,96.887 16.897,96.635 17.066,96.132C17.236,95.632 17.32,94.71 17.32,93.365L17.32,93.365Z" style="fill:rgb(158,161,168);fill-rule:nonzero;"/>
            <path id="path1317" d="M24.033,88.111L24.033,89.328C23.685,89.159 23.395,89.074 23.16,89.074C22.839,89.074 22.563,89.155 22.333,89.315C22.103,89.471 21.912,89.714 21.76,90.044C21.613,90.374 21.502,90.793 21.428,91.301C21.359,91.804 21.324,92.401 21.324,93.091C21.324,95.574 21.96,96.815 23.232,96.815C23.453,96.815 23.72,96.746 24.033,96.607L24.033,97.85C23.707,98.033 23.342,98.124 22.939,98.124C20.903,98.124 19.885,96.461 19.885,93.137C19.885,91.34 20.133,90.003 20.628,89.126C21.127,88.25 21.888,87.811 22.913,87.811C23.29,87.811 23.664,87.911 24.033,88.111L24.033,88.111Z" style="fill:rgb(158,161,168);fill-rule:nonzero;"/>
            <path id="path1319" d="M25.165,87.948L26.52,87.948L26.52,92.818L28.408,87.948L29.775,87.948L27.796,92.818L29.931,98L28.408,98L26.52,92.818L26.52,98L25.165,98L25.165,87.948Z" style="fill:rgb(158,161,168);fill-rule:nonzero;"/>
        </g>
        <g id="text1325" transform="matrix(1,0,0,1,0,3.87631)">
            <rect id="path1327" x="37.969" y="23.983" width="1.083" height="8.042" style="fill:rgb(158,161,168);fill-rule:nonzero;"/>
            <path id="path1329" d="M40.302,23.983L41.313,23.983L42.391,27.191C42.703,28.098 42.979,29.065 43.219,30.092C43.132,29.471 43.068,28.908 43.026,28.405C42.984,27.901 42.964,27.428 42.964,26.983L42.964,23.983L44.052,23.983L44.052,32.025L43.036,32.025L41.823,28.405C41.712,28.068 41.606,27.723 41.505,27.368C41.408,27.014 41.318,26.643 41.234,26.254C41.227,26.205 41.215,26.146 41.198,26.077C41.184,26.007 41.167,25.928 41.146,25.837C41.156,25.928 41.165,26.006 41.172,26.072C41.179,26.134 41.184,26.188 41.188,26.233L41.245,27.051L41.302,28.046C41.306,28.101 41.307,28.169 41.307,28.249C41.311,28.329 41.313,28.419 41.313,28.52L41.37,32.025L40.302,32.025L40.302,23.983Z" style="fill:rgb(158,161,168);fill-rule:nonzero;"/>
            <path id="path1331" d="M46.255,26.598L45.193,26.598L45.182,26.28C45.182,25.401 45.314,24.783 45.578,24.426C45.845,24.065 46.293,23.884 46.922,23.884C48.106,23.884 48.698,24.54 48.698,25.853C48.698,26.738 48.255,28.014 47.37,29.681L46.729,30.884C46.726,30.891 46.715,30.912 46.698,30.947C46.68,30.981 46.656,31.032 46.625,31.098L48.614,31.098L48.614,32.025L45.083,32.025C45.142,31.893 45.266,31.631 45.453,31.238C45.641,30.846 45.896,30.316 46.219,29.65C46.493,29.066 46.722,28.572 46.906,28.165C47.09,27.759 47.229,27.426 47.323,27.165C47.51,26.645 47.604,26.195 47.604,25.816C47.604,25.15 47.373,24.816 46.911,24.816C46.467,24.816 46.245,25.23 46.245,26.056L46.25,26.514L46.255,26.598Z" style="fill:rgb(158,161,168);fill-rule:nonzero;"/>
            <rect id="path1333" x="49.099" y="28.858" width="1.896" height="0.813" style="fill:rgb(158,161,168);fill-rule:nonzero;"/>
            <path id="path1335" d="M53.542,27.796L55.51,27.796L55.51,28.108C55.51,29.674 55.373,30.731 55.099,31.28C54.828,31.842 54.321,32.124 53.578,32.124C52.811,32.124 52.264,31.811 51.938,31.186C51.615,30.561 51.453,29.511 51.453,28.035C51.453,26.348 51.63,25.224 51.984,24.665C52.318,24.141 52.83,23.879 53.521,23.879C54.049,23.879 54.46,24.006 54.755,24.259C55.054,24.516 55.286,24.938 55.453,25.525L54.443,25.947C54.398,25.735 54.347,25.558 54.292,25.415C54.236,25.27 54.175,25.157 54.109,25.077C53.977,24.914 53.78,24.832 53.516,24.832C53.155,24.832 52.908,25.054 52.776,25.499C52.644,25.964 52.578,26.799 52.578,28.004C52.578,29.223 52.646,30.047 52.781,30.478C52.917,30.908 53.172,31.124 53.547,31.124C53.891,31.124 54.132,30.971 54.271,30.665C54.413,30.339 54.484,29.815 54.484,29.092L54.484,28.874L54.484,28.712L53.542,28.712L53.542,27.796Z" style="fill:rgb(158,161,168);fill-rule:nonzero;"/>
            <path id="path1337" d="M57.74,23.983L58.583,23.983L60.307,32.025L59.234,32.025L58.932,30.457L57.339,30.457L57.031,32.025L55.99,32.025L57.74,23.983ZM58.776,29.618L58.536,28.337C58.377,27.466 58.247,26.535 58.146,25.546C58.097,26.028 58.035,26.518 57.958,27.014C57.882,27.507 57.792,28.032 57.687,28.587L57.49,29.618L58.776,29.618Z" style="fill:rgb(158,161,168);fill-rule:nonzero;"/>
            <rect id="path1339" x="60.948" y="23.983" width="1.083" height="8.042" style="fill:rgb(158,161,168);fill-rule:nonzero;"/>
            <path id="path1341" d="M63.281,23.983L64.292,23.983L65.37,27.191C65.682,28.098 65.958,29.065 66.198,30.092C66.111,29.471 66.047,28.908 66.005,28.405C65.964,27.901 65.943,27.428 65.943,26.983L65.943,23.983L67.031,23.983L67.031,32.025L66.016,32.025L64.802,28.405C64.691,28.068 64.585,27.723 64.484,27.368C64.387,27.014 64.297,26.643 64.214,26.254C64.206,26.205 64.194,26.146 64.177,26.077C64.163,26.007 64.146,25.928 64.125,25.837C64.136,25.928 64.144,26.006 64.151,26.072C64.158,26.134 64.163,26.188 64.167,26.233L64.224,27.051L64.281,28.046C64.285,28.101 64.287,28.169 64.287,28.249C64.29,28.329 64.292,28.419 64.292,28.52L64.349,32.025L63.282,32.025L63.281,23.983Z" style="fill:rgb(158,161,168);fill-rule:nonzero;"/>
        </g>
        <g id="g1360" transform="matrix(1,0,0,1,0,88.8763)">
            <rect id="path1344" x="37.969" y="23.983" width="1.083" height="8.042" style="fill:rgb(158,161,168);fill-rule:nonzero;"/>
            <path id="path1346" d="M40.302,23.983L41.313,23.983L42.391,27.191C42.703,28.098 42.979,29.065 43.219,30.092C43.132,29.471 43.068,28.908 43.026,28.405C42.984,27.901 42.964,27.428 42.964,26.983L42.964,23.983L44.052,23.983L44.052,32.025L43.036,32.025L41.823,28.405C41.712,28.068 41.606,27.723 41.505,27.368C41.408,27.014 41.318,26.643 41.234,26.254C41.227,26.205 41.215,26.146 41.198,26.077C41.184,26.007 41.167,25.928 41.146,25.837C41.156,25.928 41.165,26.006 41.172,26.072C41.179,26.134 41.184,26.188 41.188,26.233L41.245,27.051L41.302,28.046C41.306,28.101 41.307,28.169 41.307,28.249C41.311,28.329 41.313,28.419 41.313,28.52L41.37,32.025L40.302,32.025L40.302,23.983Z" style="fill:rgb(158,161,168);fill-rule:nonzero;"/>
            <path id="path1348" d="M46.255,26.598L45.193,26.598L45.182,26.28C45.182,25.401 45.314,24.783 45.578,24.426C45.845,24.065 46.293,23.884 46.922,23.884C48.106,23.884 48.698,24.54 48.698,25.853C48.698,26.738 48.255,28.014 47.37,29.681L46.729,30.884C46.726,30.891 46.715,30.912 46.698,30.947C46.68,30.981 46.656,31.032 46.625,31.098L48.614,31.098L48.614,32.025L45.083,32.025C45.142,31.893 45.266,31.631 45.453,31.238C45.641,30.846 45.896,30.316 46.219,29.65C46.493,29.066 46.722,28.572 46.906,28.165C47.09,27.759 47.229,27.426 47.323,27.165C47.51,26.645 47.604,26.195 47.604,25.816C47.604,25.15 47.373,24.816 46.911,24.816C46.467,24.816 46.245,25.23 46.245,26.056L46.25,26.514L46.255,26.598Z" style="fill:rgb(158,161,168);fill-rule:nonzero;"/>
            <rect id="path1350" x="49.099" y="28.858" width="1.896" height="0.813" style="fill:rgb(158,161,168);fill-rule:nonzero;"/>
            <path id="path1352" d="M53.542,27.796L55.51,27.796L55.51,28.108C55.51,29.674 55.373,30.731 55.099,31.28C54.828,31.842 54.321,32.124 53.578,32.124C52.811,32.124 52.264,31.811 51.938,31.186C51.615,30.561 51.453,29.511 51.453,28.035C51.453,26.348 51.63,25.224 51.984,24.665C52.318,24.141 52.83,23.879 53.521,23.879C54.049,23.879 54.46,24.006 54.755,24.259C55.054,24.516 55.286,24.938 55.453,25.525L54.443,25.947C54.398,25.735 54.347,25.558 54.292,25.415C54.236,25.27 54.175,25.157 54.109,25.077C53.977,24.914 53.78,24.832 53.516,24.832C53.155,24.832 52.908,25.054 52.776,25.499C52.644,25.964 52.578,26.799 52.578,28.004C52.578,29.223 52.646,30.047 52.781,30.478C52.917,30.908 53.172,31.124 53.547,31.124C53.891,31.124 54.132,30.971 54.271,30.665C54.413,30.339 54.484,29.815 54.484,29.092L54.484,28.874L54.484,28.712L53.542,28.712L53.542,27.796Z" style="fill:rgb(158,161,168);fill-rule:nonzero;"/>
            <path id="path1354" d="M57.74,23.983L58.583,23.983L60.307,32.025L59.234,32.025L58.932,30.457L57.339,30.457L57.031,32.025L55.99,32.025L57.74,23.983ZM58.776,29.618L58.536,28.337C58.377,27.466 58.247,26.535 58.146,25.546C58.097,26.028 58.035,26.518 57.958,27.014C57.882,27.507 57.792,28.032 57.687,28.587L57.49,29.618L58.776,29.618Z" style="fill:rgb(158,161,168);fill-rule:nonzero;"/>
            <rect id="path1356" x="60.948" y="23.983" width="1.083" height="8.042" style="fill:rgb(158,161,168);fill-rule:nonzero;"/>
            <path id="path1358" d="M63.281,23.983L64.292,23.983L65.37,27.191C65.682,28.098 65.958,29.065 66.198,30.092C66.111,29.471 66.047,28.908 66.005,28.405C65.964,27.901 65.943,27.428 65.943,26.983L65.943,23.983L67.031,23.983L67.031,32.025L66.016,32.025L64.802,28.405C64.691,28.068 64.585,27.723 64.484,27.368C64.387,27.014 64.297,26.643 64.214,26.254C64.206,26.205 64.194,26.146 64.177,26.077C64.163,26.007 64.146,25.928 64.125,25.837C64.136,25.928 64.144,26.006 64.151,26.072C64.158,26.134 64.163,26.188 64.167,26.233L64.224,27.051L64.281,28.046C64.285,28.101 64.287,28.169 64.287,28.249C64.29,28.329 64.292,28.419 64.292,28.52L64.349,32.025L63.282,32.025L63.281,23.983Z" style="fill:rgb(158,161,168);fill-rule:nonzero;"/>
        </g>
        <g id="g1378" transform="matrix(1,0,0,1,0,173.876)">
            <rect id="path1362" x="37.969" y="23.983" width="1.083" height="8.042" style="fill:rgb(158,161,168);fill-rule:nonzero;"/>
            <path id="path1364" d="M40.302,23.983L41.313,23.983L42.391,27.191C42.703,28.098 42.979,29.065 43.219,30.092C43.132,29.471 43.068,28.908 43.026,28.405C42.984,27.901 42.964,27.428 42.964,26.983L42.964,23.983L44.052,23.983L44.052,32.025L43.036,32.025L41.823,28.405C41.712,28.068 41.606,27.723 41.505,27.368C41.408,27.014 41.318,26.643 41.234,26.254C41.227,26.205 41.215,26.146 41.198,26.077C41.184,26.007 41.167,25.928 41.146,25.837C41.156,25.928 41.165,26.006 41.172,26.072C41.179,26.134 41.184,26.188 41.188,26.233L41.245,27.051L41.302,28.046C41.306,28.101 41.307,28.169 41.307,28.249C41.311,28.329 41.313,28.419 41.313,28.52L41.37,32.025L40.302,32.025L40.302,23.983Z" style="fill:rgb(158,161,168);fill-rule:nonzero;"/>
            <path id="path1366" d="M46.255,26.598L45.193,26.598L45.182,26.28C45.182,25.401 45.314,24.783 45.578,24.426C45.845,24.065 46.293,23.884 46.922,23.884C48.106,23.884 48.698,24.54 48.698,25.853C48.698,26.738 48.255,28.014 47.37,29.681L46.729,30.884C46.726,30.891 46.715,30.912 46.698,30.947C46.68,30.981 46.656,31.032 46.625,31.098L48.614,31.098L48.614,32.025L45.083,32.025C45.142,31.893 45.266,31.631 45.453,31.238C45.641,30.846 45.896,30.316 46.219,29.65C46.493,29.066 46.722,28.572 46.906,28.165C47.09,27.759 47.229,27.426 47.323,27.165C47.51,26.645 47.604,26.195 47.604,25.816C47.604,25.15 47.373,24.816 46.911,24.816C46.467,24.816 46.245,25.23 46.245,26.056L46.25,26.514L46.255,26.598Z" style="fill:rgb(158,161,168);fill-rule:nonzero;"/>
            <rect id="path1368" x="49.099" y="28.858" width="1.896" height="0.813" style="fill:rgb(158,161,168);fill-rule:nonzero;"/>
            <path id="path1370" d="M53.542,27.796L55.51,27.796L55.51,28.108C55.51,29.674 55.373,30.731 55.099,31.28C54.828,31.842 54.321,32.124 53.578,32.124C52.811,32.124 52.264,31.811 51.938,31.186C51.615,30.561 51.453,29.511 51.453,28.035C51.453,26.348 51.63,25.224 51.984,24.665C52.318,24.141 52.83,23.879 53.521,23.879C54.049,23.879 54.46,24.006 54.755,24.259C55.054,24.516 55.286,24.938 55.453,25.525L54.443,25.947C54.398,25.735 54.347,25.558 54.292,25.415C54.236,25.27 54.175,25.157 54.109,25.077C53.977,24.914 53.78,24.832 53.516,24.832C53.155,24.832 52.908,25.054 52.776,25.499C52.644,25.964 52.578,26.799 52.578,28.004C52.578,29.223 52.646,30.047 52.781,30.478C52.917,30.908 53.172,31.124 53.547,31.124C53.891,31.124 54.132,30.971 54.271,30.665C54.413,30.339 54.484,29.815 54.484,29.092L54.484,28.874L54.484,28.712L53.542,28.712L53.542,27.796Z" style="fill:rgb(158,161,168);fill-rule:nonzero;"/>
            <path id="path1372" d="M57.74,23.983L58.583,23.983L60.307,32.025L59.234,32.025L58.932,30.457L57.339,30.457L57.031,32.025L55.99,32.025L57.74,23.983ZM58.776,29.618L58.536,28.337C58.377,27.466 58.247,26.535 58.146,25.546C58.097,26.028 58.035,26.518 57.958,27.014C57.882,27.507 57.792,28.032 57.687,28.587L57.49,29.618L58.776,29.618Z" style="fill:rgb(158,161,168);fill-rule:nonzero;"/>
            <rect id="path1374" x="60.948" y="23.983" width="1.083" height="8.042" style="fill:rgb(158,161,168);fill-rule:nonzero;"/>
            <path id="path1376" d="M63.281,23.983L64.292,23.983L65.37,27.191C65.682,28.098 65.958,29.065 66.198,30.092C66.111,29.471 66.047,28.908 66.005,28.405C65.964,27.901 65.943,27.428 65.943,26.983L65.943,23.983L67.031,23.983L67.031,32.025L66.016,32.025L64.802,28.405C64.691,28.068 64.585,27.723 64.484,27.368C64.387,27.014 64.297,26.643 64.214,26.254C64.206,26.205 64.194,26.146 64.177,26.077C64.163,26.007 64.146,25.928 64.125,25.837C64.136,25.928 64.144,26.006 64.151,26.072C64.158,26.134 64.163,26.188 64.167,26.233L64.224,27.051L64.281,28.046C64.285,28.101 64.287,28.169 64.287,28.249C64.29,28.329 64.292,28.419 64.292,28.52L64.349,32.025L63.282,32.025L63.281,23.983Z" style="fill:rgb(158,161,168);fill-rule:nonzero;"/>
        </g>
        <g id="g1396" transform="matrix(1,0,0,1,0,258.876)">
            <rect id="path1380" x="37.969" y="23.983" width="1.083" height="8.042" style="fill:rgb(158,161,168);fill-rule:nonzero;"/>
            <path id="path1382" d="M40.302,23.983L41.313,23.983L42.391,27.191C42.703,28.098 42.979,29.065 43.219,30.092C43.132,29.471 43.068,28.908 43.026,28.405C42.984,27.901 42.964,27.428 42.964,26.983L42.964,23.983L44.052,23.983L44.052,32.025L43.036,32.025L41.823,28.405C41.712,28.068 41.606,27.723 41.505,27.368C41.408,27.014 41.318,26.643 41.234,26.254C41.227,26.205 41.215,26.146 41.198,26.077C41.184,26.007 41.167,25.928 41.146,25.837C41.156,25.928 41.165,26.006 41.172,26.072C41.179,26.134 41.184,26.188 41.188,26.233L41.245,27.051L41.302,28.046C41.306,28.101 41.307,28.169 41.307,28.249C41.311,28.329 41.313,28.419 41.313,28.52L41.37,32.025L40.302,32.025L40.302,23.983Z" style="fill:rgb(158,161,168);fill-rule:nonzero;"/>
            <path id="path1384" d="M46.255,26.598L45.193,26.598L45.182,26.28C45.182,25.401 45.314,24.783 45.578,24.426C45.845,24.065 46.293,23.884 46.922,23.884C48.106,23.884 48.698,24.54 48.698,25.853C48.698,26.738 48.255,28.014 47.37,29.681L46.729,30.884C46.726,30.891 46.715,30.912 46.698,30.947C46.68,30.981 46.656,31.032 46.625,31.098L48.614,31.098L48.614,32.025L45.083,32.025C45.142,31.893 45.266,31.631 45.453,31.238C45.641,30.846 45.896,30.316 46.219,29.65C46.493,29.066 46.722,28.572 46.906,28.165C47.09,27.759 47.229,27.426 47.323,27.165C47.51,26.645 47.604,26.195 47.604,25.816C47.604,25.15 47.373,24.816 46.911,24.816C46.467,24.816 46.245,25.23 46.245,26.056L46.25,26.514L46.255,26.598Z" style="fill:rgb(158,161,168);fill-rule:nonzero;"/>
            <rect id="path1386" x="49.099" y="28.858" width="1.896" height="0.813" style="fill:rgb(158,161,168);fill-rule:nonzero;"/>
            <path id="path1388" d="M53.542,27.796L55.51,27.796L55.51,28.108C55.51,29.674 55.373,30.731 55.099,31.28C54.828,31.842 54.321,32.124 53.578,32.124C52.811,32.124 52.264,31.811 51.938,31.186C51.615,30.561 51.453,29.511 51.453,28.035C51.453,26.348 51.63,25.224 51.984,24.665C52.318,24.141 52.83,23.879 53.521,23.879C54.049,23.879 54.46,24.006 54.755,24.259C55.054,24.516 55.286,24.938 55.453,25.525L54.443,25.947C54.398,25.735 54.347,25.558 54.292,25.415C54.236,25.27 54.175,25.157 54.109,25.077C53.977,24.914 53.78,24.832 53.516,24.832C53.155,24.832 52.908,25.054 52.776,25.499C52.644,25.964 52.578,26.799 52.578,28.004C52.578,29.223 52.646,30.047 52.781,30.478C52.917,30.908 53.172,31.124 53.547,31.124C53.891,31.124 54.132,30.971 54.271,30.665C54.413,30.339 54.484,29.815 54.484,29.092L54.484,28.874L54.484,28.712L53.542,28.712L53.542,27.796Z" style="fill:rgb(158,161,168);fill-rule:nonzero;"/>
            <path id="path1390" d="M57.74,23.983L58.583,23.983L60.307,32.025L59.234,32.025L58.932,30.457L57.339,30.457L57.031,32.025L55.99,32.025L57.74,23.983ZM58.776,29.618L58.536,28.337C58.377,27.466 58.247,26.535 58.146,25.546C58.097,26.028 58.035,26.518 57.958,27.014C57.882,27.507 57.792,28.032 57.687,28.587L57.49,29.618L58.776,29.618Z" style="fill:rgb(158,161,168);fill-rule:nonzero;"/>
            <rect id="path1392" x="60.948" y="23.983" width="1.083" height="8.042" style="fill:rgb(158,161,168);fill-rule:nonzero;"/>
            <path id="path1394" d="M63.281,23.983L64.292,23.983L65.37,27.191C65.682,28.098 65.958,29.065 66.198,30.092C66.111,29.471 66.047,28.908 66.005,28.405C65.964,27.901 65.943,27.428 65.943,26.983L65.943,23.983L67.031,23.983L67.031,32.025L66.016,32.025L64.802,28.405C64.691,28.068 64.585,27.723 64.484,27.368C64.387,27.014 64.297,26.643 64.214,26.254C64.206,26.205 64.194,26.146 64.177,26.077C64.163,26.007 64.146,25.928 64.125,25.837C64.136,25.928 64.144,26.006 64.151,26.072C64.158,26.134 64.163,26.188 64.167,26.233L64.224,27.051L64.281,28.046C64.285,28.101 64.287,28.169 64.287,28.249C64.29,28.329 64.292,28.419 64.292,28.52L64.349,32.025L63.282,32.025L63.281,23.983Z" style="fill:rgb(158,161,168);fill-rule:nonzero;"/>
        </g>
        <g id="text1400" transform="matrix(1.09264,0,0,0.915216,0,0)">
            <path id="path1402" d="M36.091,22.084C35.981,22.302 35.883,22.525 35.797,22.753C35.711,22.979 35.637,23.218 35.575,23.47C35.455,23.956 35.395,24.426 35.395,24.88C35.395,25.334 35.455,25.804 35.575,26.291C35.637,26.543 35.711,26.782 35.797,27.008C35.883,27.234 35.981,27.456 36.091,27.674L35.191,28.157C34.611,27.115 34.321,26.023 34.321,24.88C34.321,23.742 34.611,22.649 35.191,21.601L36.091,22.084Z" style="fill:rgb(158,161,168);fill-rule:nonzero;"/>
            <path id="path1404" d="M39.442,26.69L38.194,26.69L38.194,25.75L36.511,25.75L36.511,24.772L37.909,22.057L39.442,22.057L39.442,24.754L39.838,24.754L39.838,25.75L39.442,25.75L39.442,26.69ZM38.251,24.754L38.251,23.887C38.251,23.847 38.253,23.783 38.257,23.695C38.263,23.607 38.271,23.494 38.281,23.356L38.095,23.752C38.003,23.946 37.911,24.127 37.819,24.295C37.727,24.461 37.635,24.614 37.543,24.754L38.251,24.754Z" style="fill:rgb(158,161,168);fill-rule:nonzero;"/>
            <path id="path1406" d="M43.814,26.69C43.816,26.656 43.818,26.617 43.82,26.573C43.822,26.529 43.825,26.478 43.829,26.42C43.833,26.384 43.836,26.329 43.838,26.255C43.722,26.443 43.609,26.574 43.499,26.648C43.391,26.72 43.258,26.756 43.1,26.756C42.774,26.756 42.518,26.61 42.332,26.318C42.148,26.026 42.056,25.619 42.056,25.099C42.056,24.553 42.146,24.13 42.326,23.83C42.506,23.528 42.76,23.377 43.088,23.377C43.268,23.377 43.413,23.417 43.523,23.497C43.639,23.577 43.751,23.716 43.859,23.914C43.853,23.81 43.85,23.747 43.85,23.725L43.838,23.398L43.838,21.622L45.044,21.622L45.044,26.69L43.814,26.69ZM43.301,25.054C43.301,25.498 43.4,25.72 43.598,25.72C43.784,25.72 43.877,25.491 43.877,25.033C43.877,24.595 43.787,24.376 43.607,24.376C43.403,24.376 43.301,24.602 43.301,25.054Z" style="fill:rgb(158,161,168);fill-rule:nonzero;"/>
            <path id="path1408" d="M47.264,25.591L48.44,25.615C48.356,25.994 48.192,26.279 47.948,26.471C47.706,26.661 47.389,26.756 46.997,26.756C46.533,26.756 46.169,26.612 45.905,26.324C45.643,26.032 45.512,25.632 45.512,25.126C45.512,24.612 45.653,24.193 45.935,23.869C46.217,23.543 46.581,23.38 47.027,23.38C47.471,23.38 47.825,23.537 48.089,23.851C48.353,24.167 48.485,24.586 48.485,25.108L48.479,25.321L46.715,25.321C46.729,25.653 46.823,25.819 46.997,25.819C47.133,25.819 47.222,25.743 47.264,25.591L47.264,25.591ZM47.291,24.673C47.291,24.613 47.284,24.558 47.27,24.508C47.256,24.458 47.236,24.415 47.21,24.379C47.186,24.343 47.157,24.315 47.123,24.295C47.089,24.273 47.052,24.262 47.012,24.262C46.928,24.262 46.86,24.301 46.808,24.379C46.756,24.455 46.73,24.553 46.73,24.673L47.291,24.673Z" style="fill:rgb(158,161,168);fill-rule:nonzero;"/>
            <rect id="path1410" x="48.953" y="21.622" width="1.203" height="5.068" style="fill:rgb(158,161,168);fill-rule:nonzero;"/>
            <path id="path1412" d="M53.613,26.69L52.407,26.69C52.417,26.582 52.425,26.479 52.431,26.381C52.437,26.283 52.443,26.204 52.449,26.144C52.241,26.552 51.962,26.756 51.612,26.756C51.308,26.756 51.067,26.604 50.889,26.3C50.713,25.998 50.625,25.579 50.625,25.045C50.625,24.529 50.716,24.123 50.898,23.827C51.08,23.527 51.328,23.377 51.642,23.377C51.964,23.377 52.224,23.571 52.422,23.959C52.418,23.919 52.415,23.884 52.413,23.854C52.411,23.824 52.409,23.799 52.407,23.779L52.395,23.59L52.386,23.446L53.613,23.446L53.613,26.69ZM52.395,25.027C52.395,24.907 52.39,24.805 52.38,24.721C52.372,24.637 52.358,24.569 52.338,24.517C52.318,24.463 52.292,24.425 52.26,24.403C52.228,24.379 52.189,24.367 52.143,24.367C51.939,24.367 51.837,24.638 51.837,25.18C51.837,25.568 51.928,25.762 52.11,25.762C52.3,25.762 52.395,25.517 52.395,25.027L52.395,25.027Z" style="fill:rgb(158,161,168);fill-rule:nonzero;"/>
            <path id="path1414" d="M55.62,28.049L54.381,28.049L54.906,26.555L53.943,23.446L55.152,23.446L55.383,24.376C55.415,24.504 55.443,24.644 55.467,24.796C55.493,24.946 55.515,25.109 55.533,25.285L55.575,24.988C55.631,24.61 55.682,24.33 55.728,24.148L55.908,23.446L57.111,23.446L55.62,28.049Z" style="fill:rgb(158,161,168);fill-rule:nonzero;"/>
            <path id="path1416" d="M57.189,26.423L57.628,25.522C57.844,25.748 58.045,25.861 58.231,25.861C58.387,25.861 58.465,25.805 58.465,25.693C58.465,25.597 58.36,25.511 58.15,25.435C57.584,25.235 57.3,24.918 57.3,24.484C57.3,24.166 57.426,23.902 57.679,23.692C57.933,23.482 58.25,23.377 58.63,23.377C58.942,23.377 59.264,23.465 59.596,23.641L59.185,24.52C58.983,24.33 58.818,24.235 58.69,24.235C58.564,24.235 58.501,24.286 58.501,24.388C58.501,24.498 58.621,24.601 58.861,24.697C59.161,24.815 59.365,24.94 59.473,25.072C59.587,25.204 59.644,25.386 59.644,25.618C59.644,25.952 59.523,26.226 59.281,26.438C59.039,26.65 58.728,26.756 58.348,26.756C58.166,26.756 57.985,26.733 57.805,26.687C57.721,26.665 57.629,26.632 57.529,26.588C57.429,26.542 57.315,26.487 57.189,26.423L57.189,26.423Z" style="fill:rgb(158,161,168);fill-rule:nonzero;"/>
            <path id="path1418" d="M60.007,27.674C60.229,27.236 60.4,26.775 60.52,26.291C60.64,25.804 60.7,25.334 60.7,24.88C60.7,24.41 60.639,23.94 60.517,23.47C60.457,23.228 60.384,22.993 60.298,22.765C60.214,22.535 60.117,22.308 60.007,22.084L60.907,21.601C61.487,22.643 61.777,23.736 61.777,24.88C61.777,26.023 61.487,27.115 60.907,28.157L60.007,27.674Z" style="fill:rgb(158,161,168);fill-rule:nonzero;"/>
        </g>
    </g>
</svg>
