<?xml version="1.0" encoding="UTF-8" standalone="no"?>
<!DOCTYPE svg PUBLIC "-//W3C//DTD SVG 1.1//EN" "http://www.w3.org/Graphics/SVG/1.1/DTD/svg11.dtd">
<svg width="100%" height="100%" viewBox="0 0 18 18" version="1.1" xmlns="http://www.w3.org/2000/svg" xmlns:xlink="http://www.w3.org/1999/xlink" xml:space="preserve" xmlns:serif="http://www.serif.com/" style="fill-rule:evenodd;clip-rule:evenodd;stroke-linejoin:round;stroke-miterlimit:2;">
    <g id="g816" transform="matrix(0.818182,0,0,0.818182,-365.71,-249.518)">
        <g id="path5197-2" transform="matrix(0.880952,0,0,0.880952,54.5212,37.615)">
            <path d="M457.977,326.966C451.911,326.928 446.977,321.99 446.978,315.957C446.98,309.921 451.914,304.99 457.977,304.966C464.019,304.995 468.954,309.926 468.978,315.957C468.963,321.993 464.03,326.931 457.978,326.966L457.977,326.966Z" style="fill:rgb(240,240,240);fill-rule:nonzero;stroke:rgb(249,248,247);stroke-width:1.39px;"/>
        </g>
        <path id="path5209" d="M452.478,315.961C452.49,319.014 454.93,321.452 457.984,321.466C461.023,321.456 463.482,319.003 463.478,315.961C463.477,312.923 461.018,310.474 457.984,310.466C454.935,310.479 452.5,312.911 452.478,315.961" style="fill:rgb(80,80,80);fill-rule:nonzero;"/>
        <g id="path5197" transform="matrix(1.22222,0,0,1.22222,-99.3275,-72.6587)">
            <path d="M456.009,326.648C451.204,326.619 447.295,322.737 447.296,317.994C447.298,313.249 451.206,309.373 456.009,309.353C460.797,309.376 464.706,313.252 464.725,317.994C464.714,322.739 460.805,326.621 456.011,326.648L456.009,326.648Z" style="fill:rgb(249,248,247);fill-rule:nonzero;stroke:rgb(147,149,147);stroke-width:0.63px;stroke-linejoin:miter;stroke-miterlimit:8.5;"/>
        </g>
        <g id="path5205" transform="matrix(1.22222,0,0,1.22222,-99.3275,-72.6587)">
            <path d="M449.536,317.994C449.555,321.558 452.42,324.403 456.01,324.419C459.584,324.409 462.477,321.544 462.472,317.994C462.469,314.451 459.578,311.592 456.01,311.582C452.425,311.598 449.561,314.435 449.536,317.994" style="fill:rgb(230,230,230);fill-rule:nonzero;"/>
        </g>
        <g id="path5219" transform="matrix(1.22222,0,0,1.22222,-99.3275,-72.6587)">
            <path d="M450.966,317.995C450.981,320.772 453.211,322.987 456.009,322.999C458.792,322.991 461.045,320.761 461.042,317.995C461.04,315.235 458.787,313.009 456.009,313.002C453.216,313.014 450.985,315.224 450.966,317.995Z" style="fill:rgb(230,230,230);fill-rule:nonzero;stroke:rgb(59,59,59);stroke-width:0.63px;stroke-linejoin:miter;stroke-miterlimit:8.5;"/>
        </g>
        <g id="path52091" serif:id="path5209" transform="matrix(1.22222,0,0,1.22222,-99.3275,-72.6587)">
            <path d="M452.554,317.997C452.562,319.898 454.092,321.415 456.007,321.424C457.913,321.417 459.456,319.891 459.453,317.997C459.452,316.107 457.91,314.582 456.007,314.578C454.095,314.586 452.568,316.099 452.554,317.997" style="fill-rule:nonzero;"/>
        </g>
    </g>
</svg>
