<?xml version="1.0" encoding="UTF-8" standalone="no"?>
<!DOCTYPE svg PUBLIC "-//W3C//DTD SVG 1.1//EN" "http://www.w3.org/Graphics/SVG/1.1/DTD/svg11.dtd">
<svg width="100%" height="100%" viewBox="0 0 18 18" version="1.1" xmlns="http://www.w3.org/2000/svg" xmlns:xlink="http://www.w3.org/1999/xlink" xml:space="preserve" xmlns:serif="http://www.serif.com/" style="fill-rule:evenodd;clip-rule:evenodd;stroke-linejoin:round;stroke-miterlimit:2;">
    <g id="Layer-1" serif:id="Layer 1" transform="matrix(1,0,0,1,-446.978,-308.966)">
        <path id="path5197-2" d="M455.977,326.966C451.014,326.935 446.977,322.895 446.978,317.959C446.98,313.02 451.017,308.986 455.977,308.966C460.921,308.99 464.958,313.024 464.978,317.958C464.967,322.897 460.93,326.938 455.978,326.966L455.977,326.966Z" style="fill:rgb(204,122,113);fill-rule:nonzero;"/>
        <path id="path5209" d="M448.978,317.959C448.993,321.846 452.098,324.949 455.985,324.966C459.853,324.953 462.983,321.831 462.978,317.959C462.976,314.093 459.847,310.976 455.985,310.966C452.105,310.983 449.006,314.077 448.978,317.959" style="fill:rgb(249,248,247);fill-rule:nonzero;"/>
        <path id="path830" d="M448.978,317.959C448.993,321.846 452.098,324.949 455.985,324.966C459.853,324.953 462.983,321.831 462.978,317.959C462.976,314.093 459.847,310.976 455.985,310.966C452.105,310.983 449.006,314.077 448.978,317.959" style="fill:url(#_Linear1);fill-rule:nonzero;"/>
        <rect id="rect865" x="454.978" y="308.966" width="2" height="9" style="fill:rgb(204,122,113);"/>
    </g>
    <defs>
        <linearGradient id="_Linear1" x1="0" y1="0" x2="1" y2="0" gradientUnits="userSpaceOnUse" gradientTransform="matrix(10.6749,0.127891,-0.127891,10.6749,448.978,317.966)"><stop offset="0" style="stop-color:rgb(228,233,235);stop-opacity:1"/><stop offset="1" style="stop-color:rgb(156,94,101);stop-opacity:0"/></linearGradient>
    </defs>
</svg>
