<?xml version="1.0" encoding="UTF-8" standalone="no"?>
<!DOCTYPE svg PUBLIC "-//W3C//DTD SVG 1.1//EN" "http://www.w3.org/Graphics/SVG/1.1/DTD/svg11.dtd">
<svg width="100%" height="100%" viewBox="0 0 18 18" version="1.1" xmlns="http://www.w3.org/2000/svg" xmlns:xlink="http://www.w3.org/1999/xlink" xml:space="preserve" xmlns:serif="http://www.serif.com/" style="fill-rule:evenodd;clip-rule:evenodd;stroke-linejoin:round;stroke-miterlimit:2;">
    <g id="g816" transform="matrix(0.818182,0,0,0.818182,-365.71,-249.518)">
        <path id="path5197-2" d="M457.977,326.966C451.911,326.928 446.977,321.99 446.978,315.957C446.98,309.921 451.914,304.99 457.977,304.966C464.019,304.995 468.954,309.926 468.978,315.957C468.963,321.993 464.03,326.931 457.978,326.966L457.977,326.966Z" style="fill:rgb(249,248,247);fill-rule:nonzero;stroke:black;stroke-width:1.22px;"/>
        <path id="path5209" d="M452.478,315.961C452.49,319.014 454.93,321.452 457.984,321.466C461.023,321.456 463.482,319.003 463.478,315.961C463.477,312.923 461.018,310.474 457.984,310.466C454.935,310.479 452.5,312.911 452.478,315.961" style="fill-rule:nonzero;stroke:rgb(44,45,48);stroke-width:1.22px;"/>
    </g>
</svg>
