<?xml version="1.0" encoding="UTF-8" standalone="no"?>
<!DOCTYPE svg PUBLIC "-//W3C//DTD SVG 1.1//EN" "http://www.w3.org/Graphics/SVG/1.1/DTD/svg11.dtd">
<svg width="100%" height="100%" viewBox="0 0 20 20" version="1.1" xmlns="http://www.w3.org/2000/svg" xmlns:xlink="http://www.w3.org/1999/xlink" xml:space="preserve" xmlns:serif="http://www.serif.com/" style="fill-rule:evenodd;clip-rule:evenodd;">
    <g id="g15" transform="matrix(1,0,0,1,0,-9.53674e-06)">
        <path id="path7255_37_" d="M10,20C4.485,20 0,15.515 0,10C0,4.485 4.485,0 10,0C15.515,0 20,4.485 20,10C20,15.515 15.515,20 10,20" style="fill:rgb(229,95,81);fill-rule:nonzero;"/>
        <path id="path7261_37_" d="M10,15C7.243,15 5,12.757 5,10C5,7.243 7.243,5 10,5C12.757,5 15,7.243 15,10C15,12.757 12.757,15 10,15" style="fill:rgb(229,229,229);fill-rule:nonzero;"/>
        <path id="path7265_37_" d="M13.5,10C13.5,11.932 11.932,13.5 10,13.5C8.068,13.5 6.5,11.932 6.5,10C6.5,8.068 8.068,6.5 10,6.5C11.932,6.5 13.5,8.068 13.5,10" style="fill-rule:nonzero;"/>
        <g id="g13">
            <path id="path5" d="M10,5C12.761,5 15,7.239 15,10C15,12.761 12.761,15 10,15C7.239,15 5,12.761 5,10C5,7.239 7.239,5 10,5M10,4.25C6.829,4.25 4.25,6.829 4.25,10C4.25,13.171 6.829,15.75 10,15.75C13.171,15.75 15.75,13.171 15.75,10C15.75,6.829 13.171,4.25 10,4.25Z" style="fill:rgb(232,64,31);fill-rule:nonzero;"/>
            <path id="path9" d="M10,0.75C15.101,0.75 19.25,4.9 19.25,10C19.25,15.1 15.101,19.25 10,19.25C4.899,19.25 0.75,15.1 0.75,10C0.75,4.9 4.899,0.75 10,0.75M10,0C4.477,0 0,4.477 0,10C0,15.523 4.477,20 10,20C15.523,20 20,15.523 20,10C20,4.477 15.523,0 10,0Z" style="fill:rgb(232,64,31);fill-rule:nonzero;"/>
        </g>
        <g id="path4639" transform="matrix(0.364435,0,0,-0.364435,-387.218,2559.57)">
            <path d="M1089.85,6969.6C1075.26,6969.6 1063.39,6981.47 1063.39,6996.06C1063.39,7010.65 1075.26,7022.53 1089.85,7022.53C1104.44,7022.53 1116.31,7010.65 1116.31,6996.06C1116.31,6981.47 1104.44,6969.6 1089.85,6969.6" style="fill:rgb(204,122,113);fill-rule:nonzero;stroke:rgb(144,146,144);stroke-width:2.24px;"/>
        </g>
        <g id="path4647" transform="matrix(0.364435,0,0,-0.364435,-387.218,2559.57)">
            <path d="M1089.85,6977.01C1079.34,6977.01 1070.79,6985.56 1070.79,6996.06C1070.79,7006.57 1079.34,7015.12 1089.85,7015.12C1100.36,7015.12 1108.91,7006.57 1108.91,6996.06C1108.91,6985.56 1100.36,6977.01 1089.85,6977.01" style="fill:rgb(231,231,231);fill-rule:nonzero;stroke:rgb(144,146,144);stroke-width:2.24px;"/>
        </g>
        <g id="path4655" transform="matrix(0.364435,0,0,-0.364435,-387.218,2559.57)">
            <path d="M1101.6,6996.06C1101.6,6989.57 1096.34,6984.31 1089.85,6984.31C1083.36,6984.31 1078.1,6989.57 1078.1,6996.06C1078.1,7002.55 1083.36,7007.82 1089.85,7007.82C1096.34,7007.82 1101.6,7002.55 1101.6,6996.06" style="fill-rule:nonzero;stroke:rgb(144,146,144);stroke-width:2.24px;"/>
        </g>
    </g>
</svg>
