<?xml version="1.0" encoding="UTF-8" standalone="no"?>
<!DOCTYPE svg PUBLIC "-//W3C//DTD SVG 1.1//EN" "http://www.w3.org/Graphics/SVG/1.1/DTD/svg11.dtd">
<svg width="100%" height="100%" viewBox="0 0 15 15" version="1.1" xmlns="http://www.w3.org/2000/svg" xmlns:xlink="http://www.w3.org/1999/xlink" xml:space="preserve" xmlns:serif="http://www.serif.com/" style="fill-rule:evenodd;clip-rule:evenodd;">
    <g id="g3088" transform="matrix(0.271914,0,0,-0.271914,-288.832,1909.84)">
        <path id="path4639" d="M1089.85,6969.6C1075.26,6969.6 1063.39,6981.47 1063.39,6996.06C1063.39,7010.65 1075.26,7022.53 1089.85,7022.53C1104.44,7022.53 1116.31,7010.65 1116.31,6996.06C1116.31,6981.47 1104.44,6969.6 1089.85,6969.6" style="fill:rgb(81,170,224);fill-rule:nonzero;stroke:rgb(144,146,144);stroke-width:2.24px;"/>
        <path id="path4647" d="M1089.85,6977.01C1079.34,6977.01 1070.79,6985.56 1070.79,6996.06C1070.79,7006.57 1079.34,7015.12 1089.85,7015.12C1100.36,7015.12 1108.91,7006.57 1108.91,6996.06C1108.91,6985.56 1100.36,6977.01 1089.85,6977.01" style="fill:rgb(231,231,231);fill-rule:nonzero;stroke:rgb(144,146,144);stroke-width:2.24px;"/>
        <path id="path4655" d="M1101.6,6996.06C1101.6,6989.57 1096.34,6984.31 1089.85,6984.31C1083.36,6984.31 1078.1,6989.57 1078.1,6996.06C1078.1,7002.55 1083.36,7007.82 1089.85,7007.82C1096.34,7007.82 1101.6,7002.55 1101.6,6996.06" style="fill-rule:nonzero;stroke:rgb(144,146,144);stroke-width:2.24px;"/>
        <g id="path5197" transform="matrix(3.05359,0,0,-3.07687,-302.673,7974.56)">
            <path d="M456.009,326.648C451.204,326.619 447.295,322.737 447.296,317.994C447.298,313.249 451.206,309.373 456.009,309.353C460.797,309.376 464.706,313.252 464.725,317.994C464.714,322.739 460.805,326.621 456.011,326.648L456.009,326.648Z" style="fill:rgb(81,170,224);fill-rule:nonzero;stroke:rgb(147,149,147);stroke-width:0.63px;stroke-miterlimit:8.5;"/>
        </g>
        <g id="path5205" transform="matrix(3.05359,0,0,-3.07687,-302.673,7974.56)">
            <path d="M449.536,317.994C449.555,321.558 452.42,324.403 456.01,324.419C459.584,324.409 462.477,321.544 462.472,317.994C462.469,314.451 459.578,311.592 456.01,311.582C452.425,311.598 449.561,314.435 449.536,317.994" style="fill:rgb(230,230,230);fill-rule:nonzero;"/>
        </g>
        <g id="path5219" transform="matrix(3.05359,0,0,-3.07687,-302.673,7974.56)">
            <path d="M450.966,317.995C450.981,320.772 453.211,322.987 456.009,322.999C458.792,322.991 461.045,320.761 461.042,317.995C461.04,315.235 458.787,313.009 456.009,313.002C453.216,313.014 450.985,315.224 450.966,317.995Z" style="fill:rgb(230,230,230);fill-rule:nonzero;stroke:rgb(59,59,59);stroke-width:0.63px;stroke-miterlimit:8.5;"/>
        </g>
        <g id="path5209" transform="matrix(3.05359,0,0,-3.07687,-302.673,7974.56)">
            <path d="M452.554,317.997C452.562,319.898 454.092,321.415 456.007,321.424C457.913,321.417 459.456,319.891 459.453,317.997C459.452,316.107 457.91,314.582 456.007,314.578C454.095,314.586 452.568,316.099 452.554,317.997" style="fill-rule:nonzero;"/>
        </g>
    </g>
</svg>
