<?xml version="1.0" encoding="UTF-8" standalone="no"?>
<!-- Created with Inkscape (http://www.inkscape.org/) -->

<svg
   xmlns:dc="http://purl.org/dc/elements/1.1/"
   xmlns:cc="http://creativecommons.org/ns#"
   xmlns:rdf="http://www.w3.org/1999/02/22-rdf-syntax-ns#"
   xmlns:svg="http://www.w3.org/2000/svg"
   xmlns="http://www.w3.org/2000/svg"
   xmlns:sodipodi="http://sodipodi.sourceforge.net/DTD/sodipodi-0.dtd"
   xmlns:inkscape="http://www.inkscape.org/namespaces/inkscape"
   width="18"
   height="18"
   viewBox="0 0 4.76253 4.76253"
   version="1.1"
   id="svg5158"
   inkscape:version="0.92.2 5c3e80d, 2017-08-06"
   sodipodi:docname="nyInputPort18.svg">
  <defs
     id="defs5152" />
  <sodipodi:namedview
     id="base"
     pagecolor="#ffffff"
     bordercolor="#666666"
     borderopacity="1.0"
     inkscape:pageopacity="0.0"
     inkscape:pageshadow="2"
     inkscape:zoom="5.6568542"
     inkscape:cx="8.6926453"
     inkscape:cy="9.6165796"
     inkscape:document-units="px"
     inkscape:current-layer="g3088"
     showgrid="false"
     fit-margin-top="0"
     fit-margin-left="0"
     fit-margin-right="0"
     fit-margin-bottom="0"
     inkscape:window-width="1440"
     inkscape:window-height="856"
     inkscape:window-x="0"
     inkscape:window-y="18"
     inkscape:window-maximized="0"
     units="px"
     inkscape:pagecheckerboard="true"
     inkscape:showpageshadow="false" />
  <metadata
     id="metadata5155">
    <rdf:RDF>
      <cc:Work
         rdf:about="">
        <dc:format>image/svg+xml</dc:format>
        <dc:type
           rdf:resource="http://purl.org/dc/dcmitype/StillImage" />
        <dc:title></dc:title>
      </cc:Work>
    </rdf:RDF>
  </metadata>
  <g
     inkscape:label="Layer 1"
     inkscape:groupmode="layer"
     id="layer1"
     transform="translate(-118.26377,-81.747732)">
    <g
       transform="matrix(0.27191367,0,0,-0.27191367,41.843143,587.85632)"
       id="g3088">
      <g
         id="g1372"
         transform="matrix(0.73109295,0,0,0.72784487,75.577843,501.78849)">
        <path
           inkscape:connector-curvature="0"
           id="path4639"
           style="opacity:1;vector-effect:none;fill:#e7e7e7;fill-opacity:1;fill-rule:nonzero;stroke:#909290;stroke-width:0.97304165;stroke-linecap:butt;stroke-linejoin:miter;stroke-miterlimit:4;stroke-dasharray:none;stroke-dashoffset:0;stroke-opacity:1"
           d="m 293.0229,1844.2559 c -6.335,0 -11.489,5.154 -11.489,11.489 0,6.335 5.154,11.49 11.489,11.49 6.335,0 11.489,-5.155 11.489,-11.49 0,-6.335 -5.154,-11.489 -11.489,-11.489" />
        <path
           inkscape:connector-curvature="0"
           id="path4647"
           style="fill:#e7e7e7;fill-opacity:1;fill-rule:nonzero;stroke:#909290;stroke-width:0.97304165;stroke-miterlimit:4;stroke-dasharray:none;stroke-opacity:1"
           d="m 293.0229,1847.4709 c -4.562,0 -8.274,3.712 -8.274,8.274 0,4.563 3.712,8.275 8.274,8.275 4.562,0 8.274,-3.712 8.274,-8.275 0,-4.562 -3.712,-8.274 -8.274,-8.274" />
        <path
           inkscape:connector-curvature="0"
           id="path4655"
           style="opacity:1;vector-effect:none;fill:#000000;fill-opacity:1;fill-rule:nonzero;stroke:#909290;stroke-width:0.97304165;stroke-linecap:butt;stroke-linejoin:miter;stroke-miterlimit:4;stroke-dasharray:none;stroke-dashoffset:0;stroke-opacity:1"
           d="m 298.1254,1855.7454 c 0,-2.817 -2.285,-5.103 -5.103,-5.103 -2.817,0 -5.102,2.286 -5.102,5.103 0,2.817 2.285,5.103 5.102,5.103 2.818,0 5.103,-2.286 5.103,-5.103" />
      </g>
    </g>
  </g>
</svg>
