<?xml version="1.0" encoding="UTF-8" standalone="no"?>
<!DOCTYPE svg PUBLIC "-//W3C//DTD SVG 1.1//EN" "http://www.w3.org/Graphics/SVG/1.1/DTD/svg11.dtd">
<svg width="100%" height="100%" viewBox="0 0 18 18" version="1.1" xmlns="http://www.w3.org/2000/svg" xmlns:xlink="http://www.w3.org/1999/xlink" xml:space="preserve" xmlns:serif="http://www.serif.com/" style="fill-rule:evenodd;clip-rule:evenodd;">
    <g id="g821" transform="matrix(0.223429,0,0,-0.220515,-237.37,1554.61)">
        <path id="path819" d="M1102.65,6970.13C1081.27,6970.13 1063.87,6987.61 1063.87,7009.1C1063.87,7030.59 1081.27,7048.08 1102.65,7048.08C1124.04,7048.08 1141.43,7030.59 1141.43,7009.1C1141.43,6987.61 1124.04,6970.13 1102.65,6970.13" style="fill:rgb(81,170,224);fill-rule:nonzero;stroke:rgb(44,45,48);stroke-width:3.29px;"/>
        <g id="path4639" transform="matrix(0.973048,0,0,-0.973048,1062.22,7049.44)">
            <path d="M41.575,1.395L41.575,81.51L41.604,81.51C63.582,81.51 81.459,63.542 81.459,41.456C81.459,19.371 63.582,1.395 41.604,1.395L41.575,1.395Z" style="fill:rgb(230,230,230);fill-rule:nonzero;stroke:rgb(44,45,48);stroke-width:3.38px;"/>
        </g>
        <path id="path4647" d="M1102.7,6981.03C1087.3,6981.03 1074.77,6993.63 1074.77,7009.1C1074.77,7024.58 1087.3,7037.17 1102.7,7037.17C1118.1,7037.17 1130.63,7024.58 1130.63,7009.1C1130.63,6993.63 1118.1,6981.03 1102.7,6981.03" style="fill:rgb(231,231,231);fill-rule:nonzero;stroke:rgb(44,45,48);stroke-width:3.29px;"/>
        <path id="path4655" d="M1119.92,7009.1C1119.92,6999.55 1112.21,6991.79 1102.7,6991.79C1093.19,6991.79 1085.47,6999.55 1085.47,7009.1C1085.47,7018.66 1093.19,7026.41 1102.7,7026.41C1112.21,7026.41 1119.92,7018.66 1119.92,7009.1" style="fill-rule:nonzero;stroke:rgb(158,161,168);stroke-width:3.29px;"/>
    </g>
    <g id="g3088" transform="matrix(0.329251,4.2899e-19,-4.2899e-19,-0.325748,-349.78,2287.94)">
        <path id="path46391" serif:id="path4639" d="M1089.85,6969.6C1075.26,6969.6 1063.39,6981.47 1063.39,6996.06C1063.39,7010.65 1075.26,7022.53 1089.85,7022.53C1104.44,7022.53 1116.31,7010.65 1116.31,6996.06C1116.31,6981.47 1104.44,6969.6 1089.85,6969.6" style="fill:rgb(112,165,199);fill-rule:nonzero;stroke:rgb(144,146,144);stroke-width:2.24px;"/>
        <path id="path46471" serif:id="path4647" d="M1089.85,6977.01C1079.34,6977.01 1070.79,6985.56 1070.79,6996.06C1070.79,7006.57 1079.34,7015.12 1089.85,7015.12C1100.36,7015.12 1108.91,7006.57 1108.91,6996.06C1108.91,6985.56 1100.36,6977.01 1089.85,6977.01" style="fill:rgb(231,231,231);fill-rule:nonzero;stroke:rgb(144,146,144);stroke-width:2.24px;"/>
        <path id="path46551" serif:id="path4655" d="M1101.6,6996.06C1101.6,6989.57 1096.34,6984.31 1089.85,6984.31C1083.36,6984.31 1078.1,6989.57 1078.1,6996.06C1078.1,7002.55 1083.36,7007.82 1089.85,7007.82C1096.34,7007.82 1101.6,7002.55 1101.6,6996.06" style="fill-rule:nonzero;stroke:rgb(144,146,144);stroke-width:2.24px;"/>
    </g>
</svg>
