<?xml version="1.0" encoding="UTF-8" standalone="no"?>
<!DOCTYPE svg PUBLIC "-//W3C//DTD SVG 1.1//EN" "http://www.w3.org/Graphics/SVG/1.1/DTD/svg11.dtd">
<svg width="100%" height="100%" viewBox="0 0 22 22" version="1.1" xmlns="http://www.w3.org/2000/svg" xmlns:xlink="http://www.w3.org/1999/xlink" xml:space="preserve" xmlns:serif="http://www.serif.com/" style="fill-rule:evenodd;clip-rule:evenodd;">
    <g id="g3088" transform="matrix(0.271914,0,0,-0.271914,-288.832,1916.84)">
        <path id="path4639" d="M1102.7,6970.13C1081.31,6970.13 1063.91,6987.61 1063.91,7009.1C1063.91,7030.59 1081.31,7048.08 1102.7,7048.08C1124.09,7048.08 1141.48,7030.59 1141.48,7009.1C1141.48,6987.61 1124.09,6970.13 1102.7,6970.13" style="fill:rgb(81,170,224);fill-rule:nonzero;stroke:rgb(144,146,144);stroke-width:3.29px;"/>
        <path id="path4647" d="M1102.7,6981.03C1087.3,6981.03 1074.77,6993.63 1074.77,7009.1C1074.77,7024.58 1087.3,7037.17 1102.7,7037.17C1118.1,7037.17 1130.63,7024.58 1130.63,7009.1C1130.63,6993.63 1118.1,6981.03 1102.7,6981.03" style="fill:rgb(231,231,231);fill-rule:nonzero;stroke:rgb(44,45,48);stroke-width:3.29px;"/>
        <path id="path4655" d="M1119.92,7009.1C1119.92,6999.55 1112.21,6991.79 1102.7,6991.79C1093.19,6991.79 1085.47,6999.55 1085.47,7009.1C1085.47,7018.66 1093.19,7026.41 1102.7,7026.41C1112.21,7026.41 1119.92,7018.66 1119.92,7009.1" style="fill-rule:nonzero;stroke:rgb(144,146,144);stroke-width:3.29px;"/>
    </g>
</svg>
