<?xml version="1.0" encoding="UTF-8" standalone="no"?>
<!DOCTYPE svg PUBLIC "-//W3C//DTD SVG 1.1//EN" "http://www.w3.org/Graphics/SVG/1.1/DTD/svg11.dtd">
<svg width="100%" height="100%" viewBox="0 0 22 22" version="1.1" xmlns="http://www.w3.org/2000/svg" xmlns:xlink="http://www.w3.org/1999/xlink" xml:space="preserve" xmlns:serif="http://www.serif.com/" style="fill-rule:evenodd;clip-rule:evenodd;stroke-miterlimit:8.5;">
    <g id="Layer-1" serif:id="Layer 1" transform="matrix(1,0,0,1,-440.438,-309.369)">
        <path id="path819" d="M451.445,330.99C445.594,330.953 440.833,326.181 440.835,320.352C440.837,314.519 445.597,309.755 451.445,309.731C457.275,309.759 462.035,314.524 462.059,320.351C462.044,326.184 457.285,330.956 451.447,330.99L451.445,330.99Z" style="fill:rgb(112,165,199);fill-rule:nonzero;stroke:rgb(147,149,147);stroke-width:0.78px;"/>
        <path id="path5205" d="M443.562,320.352C443.585,324.732 447.074,328.23 451.446,328.249C455.798,328.237 459.321,324.715 459.315,320.352C459.312,315.997 455.791,312.483 451.446,312.471C447.08,312.489 443.594,315.977 443.562,320.352" style="fill:rgb(85,85,85);fill-rule:nonzero;"/>
        <path id="path5219" d="M445.304,320.354C445.323,323.767 448.038,326.489 451.445,326.504C454.834,326.494 457.577,323.752 457.573,320.354C457.571,316.961 454.828,314.224 451.445,314.216C448.044,314.231 445.328,316.947 445.304,320.354Z" style="fill:rgb(85,85,85);fill-rule:nonzero;stroke:rgb(59,59,59);stroke-width:0.78px;"/>
        <path id="path5209" d="M447.238,320.356C447.249,322.692 449.11,324.557 451.443,324.567C453.764,324.56 455.642,322.683 455.639,320.356C455.638,318.032 453.76,316.158 451.443,316.152C449.114,316.163 447.254,318.023 447.238,320.356" style="fill-rule:nonzero;"/>
    </g>
</svg>
