<?xml version="1.0" encoding="UTF-8" standalone="no"?>
<!DOCTYPE svg PUBLIC "-//W3C//DTD SVG 1.1//EN" "http://www.w3.org/Graphics/SVG/1.1/DTD/svg11.dtd">
<svg width="100%" height="100%" viewBox="0 0 18 18" version="1.1" xmlns="http://www.w3.org/2000/svg" xmlns:xlink="http://www.w3.org/1999/xlink" xml:space="preserve" xmlns:serif="http://www.serif.com/" style="fill-rule:evenodd;clip-rule:evenodd;stroke-miterlimit:8.5;">
    <g id="Layer-1" serif:id="Layer 1" transform="matrix(1,0,0,1,-440.438,-313.369)">
        <path id="path5197" d="M449.437,331.015C444.632,330.986 440.722,327.104 440.724,322.361C440.725,317.616 444.634,313.74 449.437,313.72C454.224,313.743 458.134,317.619 458.153,322.361C458.142,327.106 454.233,330.988 449.438,331.015L449.437,331.015Z" style="fill:rgb(227,190,126);fill-rule:nonzero;stroke:rgb(147,149,147);stroke-width:0.63px;"/>
        <path id="path5205" d="M442.964,322.361C442.982,325.925 445.848,328.77 449.438,328.786C453.011,328.776 455.905,325.911 455.9,322.361C455.897,318.818 453.006,315.959 449.438,315.949C445.852,315.965 442.989,318.802 442.964,322.361" style="fill:rgb(85,85,85);fill-rule:nonzero;"/>
        <path id="path5219" d="M444.394,322.362C444.409,325.139 446.639,327.354 449.437,327.366C452.22,327.358 454.473,325.128 454.47,322.362C454.468,319.602 452.215,317.376 449.437,317.369C446.644,317.381 444.413,319.591 444.394,322.362Z" style="fill:rgb(85,85,85);fill-rule:nonzero;stroke:rgb(59,59,59);stroke-width:0.63px;"/>
        <path id="path5209" d="M445.982,322.364C445.99,324.265 447.519,325.782 449.435,325.79C451.341,325.784 452.884,324.258 452.881,322.364C452.88,320.474 451.338,318.949 449.435,318.945C447.523,318.953 445.995,320.466 445.982,322.364" style="fill-rule:nonzero;"/>
    </g>
</svg>
