<?xml version="1.0" encoding="UTF-8" standalone="no"?>
<!-- Created with Inkscape (http://www.inkscape.org/) -->

<svg
   xmlns:dc="http://purl.org/dc/elements/1.1/"
   xmlns:cc="http://creativecommons.org/ns#"
   xmlns:rdf="http://www.w3.org/1999/02/22-rdf-syntax-ns#"
   xmlns:svg="http://www.w3.org/2000/svg"
   xmlns="http://www.w3.org/2000/svg"
   xmlns:sodipodi="http://sodipodi.sourceforge.net/DTD/sodipodi-0.dtd"
   xmlns:inkscape="http://www.inkscape.org/namespaces/inkscape"
   width="22"
   height="22"
   viewBox="0 0 5.8208333 5.8208333"
   version="1.1"
   id="svg5158"
   inkscape:version="0.92.2 5c3e80d, 2017-08-06"
   sodipodi:docname="nyOutputPort.svg">
  <defs
     id="defs5152" />
  <sodipodi:namedview
     id="base"
     pagecolor="#ffffff"
     bordercolor="#666666"
     borderopacity="1.0"
     inkscape:pageopacity="0.0"
     inkscape:pageshadow="2"
     inkscape:zoom="11.313708"
     inkscape:cx="-32.766138"
     inkscape:cy="9.4251352"
     inkscape:document-units="px"
     inkscape:current-layer="layer1"
     showgrid="false"
     fit-margin-top="0"
     fit-margin-left="0"
     fit-margin-right="0"
     fit-margin-bottom="0"
     inkscape:window-width="1440"
     inkscape:window-height="856"
     inkscape:window-x="157"
     inkscape:window-y="0"
     inkscape:window-maximized="0"
     units="px"
     inkscape:pagecheckerboard="true"
     inkscape:lockguides="false"
     showborder="true"
     inkscape:showpageshadow="false" />
  <metadata
     id="metadata5155">
    <rdf:RDF>
      <cc:Work
         rdf:about="">
        <dc:format>image/svg+xml</dc:format>
        <dc:type
           rdf:resource="http://purl.org/dc/dcmitype/StillImage" />
        <dc:title></dc:title>
      </cc:Work>
    </rdf:RDF>
  </metadata>
  <g
     inkscape:label="Layer 1"
     inkscape:groupmode="layer"
     id="layer1"
     transform="translate(-116.53265,-81.853789)">
    <g
       id="g825"
       transform="matrix(0.9149313,0,0,0.91999453,9.9158547,7.0173804)">
      <path
         d="m 119.71288,87.562425 c -1.6922,-0.01046 -3.06879,-1.382794 -3.06837,-3.059263 6.5e-4,-1.677536 1.37703,-3.047737 3.06837,-3.054567 1.68577,0.0081 3.06237,1.378312 3.06923,3.054354 -0.004,1.677536 -1.38046,3.049871 -3.0688,3.059476 z"
         style="fill:#e7e7e7;fill-opacity:1;fill-rule:nonzero;stroke:#939593;stroke-width:0.22396964;stroke-miterlimit:8.5;stroke-dasharray:none;stroke-opacity:1"
         id="path5197"
         inkscape:connector-curvature="0" />
      <path
         d="m 117.43328,84.503184 c 0.007,1.259646 1.01557,2.265527 2.27991,2.271077 1.25832,-0.0034 2.27711,-1.01634 2.27539,-2.271077 -8.5e-4,-1.252603 -1.019,-2.26318 -2.27539,-2.266595 -1.26262,0.0053 -2.27092,1.008443 -2.27991,2.266595"
         style="opacity:1;vector-effect:none;fill:#555555;fill-opacity:1;fill-rule:nonzero;stroke:none;stroke-width:0.22396964;stroke-linecap:butt;stroke-linejoin:miter;stroke-miterlimit:8.5;stroke-dasharray:none;stroke-dashoffset:0;stroke-opacity:1"
         id="path5205"
         inkscape:connector-curvature="0" />
      <path
         inkscape:connector-curvature="0"
         id="path5219"
         style="fill:#555555;fill-opacity:1;stroke:#3b3b3b;stroke-width:0.22396964;stroke-linecap:butt;stroke-linejoin:miter;stroke-miterlimit:8.5;stroke-dasharray:none;stroke-opacity:1"
         d="m 117.93691,84.503589 c 0.005,0.981551 0.79061,1.764614 1.77576,1.768883 0.98022,-0.0028 1.7734,-0.791388 1.77233,-1.768883 -6.5e-4,-0.975788 -0.79404,-1.762693 -1.77233,-1.765255 -0.98344,0.0043 -1.76891,0.785412 -1.77576,1.765255 z" />
      <path
         d="m 118.49618,84.504208 c 0.003,0.671868 0.54143,1.20821 1.21591,1.211198 0.67126,-0.0021 1.21441,-0.541891 1.21355,-1.211198 -4.3e-4,-0.66824 -0.54335,-1.207143 -1.21355,-1.20885 -0.67341,0.003 -1.21119,0.537835 -1.21591,1.20885"
         style="opacity:1;vector-effect:none;fill:#000000;fill-opacity:1;fill-rule:nonzero;stroke:none;stroke-width:0.22396964;stroke-linecap:butt;stroke-linejoin:miter;stroke-miterlimit:8.5;stroke-dasharray:none;stroke-dashoffset:0;stroke-opacity:1"
         id="path5209"
         inkscape:connector-curvature="0" />
    </g>
  </g>
</svg>
