<?xml version="1.0" encoding="UTF-8" standalone="no"?>
<!-- Created with Inkscape (http://www.inkscape.org/) -->

<svg
   xmlns:dc="http://purl.org/dc/elements/1.1/"
   xmlns:cc="http://creativecommons.org/ns#"
   xmlns:rdf="http://www.w3.org/1999/02/22-rdf-syntax-ns#"
   xmlns:svg="http://www.w3.org/2000/svg"
   xmlns="http://www.w3.org/2000/svg"
   xmlns:sodipodi="http://sodipodi.sourceforge.net/DTD/sodipodi-0.dtd"
   xmlns:inkscape="http://www.inkscape.org/namespaces/inkscape"
   width="13"
   height="13"
   viewBox="0 0 3.4395834 3.4395834"
   version="1.1"
   id="svg49872"
   inkscape:version="0.92.2 5c3e80d, 2017-08-06"
   sodipodi:docname="nyRoundBlack13R.svg">
  <defs
     id="defs49866">
    <clipPath
       id="clip12">
      <path
         d="m 143,129.75 h 3 V 158 h -3 z m 0,0"
         id="path28860"
         inkscape:connector-curvature="0" />
    </clipPath>
    <clipPath
       id="clip11">
      <path
         d="m 117.39453,129.75 h 54 v 54.00391 h -54 z m 0,0"
         id="path28857"
         inkscape:connector-curvature="0" />
    </clipPath>
    <clipPath
       id="clip150">
      <path
         d="m 176,208.92578 h 2 V 228 h -2 z m 0,0"
         id="path29465"
         inkscape:connector-curvature="0" />
    </clipPath>
    <clipPath
       id="clip149">
      <path
         d="m 159.27734,208.92578 h 36 v 36 h -36 z m 0,0"
         id="path29462"
         inkscape:connector-curvature="0" />
    </clipPath>
    <clipPath
       id="clip142">
      <path
         d="m 110,208.92578 h 3 V 228 h -3 z m 0,0"
         id="path29320"
         inkscape:connector-curvature="0" />
    </clipPath>
    <clipPath
       id="clip141">
      <path
         d="m 93.511719,208.92578 h 36.000001 v 36 H 93.511719 Z m 0,0"
         id="path29317"
         inkscape:connector-curvature="0" />
    </clipPath>
  </defs>
  <sodipodi:namedview
     id="base"
     pagecolor="#ffffff"
     bordercolor="#666666"
     borderopacity="1.0"
     inkscape:pageopacity="0.0"
     inkscape:pageshadow="2"
     inkscape:zoom="3.959798"
     inkscape:cx="-91.035212"
     inkscape:cy="23.041"
     inkscape:document-units="px"
     inkscape:current-layer="layer1"
     showgrid="false"
     fit-margin-top="0"
     fit-margin-left="0"
     fit-margin-right="0"
     fit-margin-bottom="0"
     units="px"
     inkscape:window-width="1440"
     inkscape:window-height="856"
     inkscape:window-x="0"
     inkscape:window-y="18"
     inkscape:window-maximized="0"
     inkscape:snap-global="true"
     inkscape:snap-bbox="true"
     inkscape:snap-bbox-midpoints="true"
     inkscape:snap-object-midpoints="true"
     inkscape:snap-bbox-edge-midpoints="true"
     inkscape:object-paths="true"
     inkscape:pagecheckerboard="true" />
  <metadata
     id="metadata49869">
    <rdf:RDF>
      <cc:Work
         rdf:about="">
        <dc:format>image/svg+xml</dc:format>
        <dc:type
           rdf:resource="http://purl.org/dc/dcmitype/StillImage" />
        <dc:title />
      </cc:Work>
    </rdf:RDF>
  </metadata>
  <g
     inkscape:label="Layer 1"
     inkscape:groupmode="layer"
     id="layer1"
     transform="translate(-73.816227,-85.107706)">
    <path
       style="clip-rule:nonzero;fill:#000000;fill-opacity:1;fill-rule:nonzero;stroke:none;stroke-width:0.09554397"
       d="m 77.255811,86.827498 c 0,0.949842 -0.76995,1.719792 -1.719792,1.719792 -0.949842,0 -1.719792,-0.76995 -1.719792,-1.719792 0,-0.949841 0.76995,-1.719791 1.719792,-1.719791 0.949842,0 1.719792,0.76995 1.719792,1.719791"
       id="path38955"
       inkscape:connector-curvature="0" />
    <rect
       style="fill:#ffffff;fill-opacity:1;stroke:none;stroke-width:0.07555047;stroke-miterlimit:4;stroke-dasharray:none;stroke-opacity:1"
       id="rect826"
       width="0.34395835"
       height="0.79374999"
       x="75.364037"
       y="85.107704"
       ry="0.038099993" />
    <g
       aria-label="A"
       transform="matrix(1.0789132,0,0,0.92685863,-8.6862598,-2.271791)"
       style="font-style:normal;font-variant:normal;font-weight:500;font-stretch:condensed;font-size:3.02915454px;line-height:1.25;font-family:Futura;-inkscape-font-specification:'Futura, Medium Condensed';font-variant-ligatures:normal;font-variant-caps:normal;font-variant-numeric:normal;font-feature-settings:normal;text-align:start;letter-spacing:0px;word-spacing:0px;writing-mode:lr-tb;text-anchor:start;fill:#ffffff;fill-opacity:1;stroke:none;stroke-width:0.28398338px;stroke-linecap:butt;stroke-linejoin:miter;stroke-opacity:1"
       id="text829">
      <path
         d="m 69.8951,92.537484 h 0.239611 l 0.489575,2.283698 h -0.30469 l -0.08579,-0.445203 h -0.452598 l -0.08727,0.445203 h -0.295816 z m 0.294337,1.600364 -0.06804,-0.363854 q -0.06804,-0.371249 -0.110931,-0.792786 -0.02071,0.205592 -0.05325,0.4171 -0.03254,0.210029 -0.07691,0.446682 l -0.0562,0.292858 z"
         style="font-style:normal;font-variant:normal;font-weight:500;font-stretch:condensed;font-size:3.02915454px;font-family:Futura;-inkscape-font-specification:'Futura, Medium Condensed';font-variant-ligatures:normal;font-variant-caps:normal;font-variant-numeric:normal;font-feature-settings:normal;text-align:start;writing-mode:lr-tb;text-anchor:start;fill:#ffffff;fill-opacity:1;stroke-width:0.28398338px"
         id="path833"
         inkscape:connector-curvature="0" />
    </g>
    <g
       aria-label="D"
       transform="matrix(1.017277,0,0,0.98301642,-3.4745039,-6.3476514)"
       style="font-style:normal;font-variant:normal;font-weight:500;font-stretch:condensed;font-size:2.85610628px;line-height:1.25;font-family:Futura;-inkscape-font-specification:'Futura, Medium Condensed';font-variant-ligatures:normal;font-variant-caps:normal;font-variant-numeric:normal;font-feature-settings:normal;text-align:start;letter-spacing:0px;word-spacing:0px;writing-mode:lr-tb;text-anchor:start;fill:#ffffff;fill-opacity:1;stroke:none;stroke-width:0.26775998px;stroke-linecap:butt;stroke-linejoin:miter;stroke-opacity:1"
       id="text833">
      <path
         d="m 73.732964,87.250999 h 0.357014 q 0.163166,0 0.274733,0.03626 0.103199,0.03486 0.184085,0.124118 0.121328,0.13388 0.172928,0.348645 0.0516,0.207793 0.0516,0.595487 0,0.355619 -0.05718,0.580147 -0.05578,0.214766 -0.184084,0.327727 -0.157588,0.140853 -0.564807,0.140853 h -0.23429 z m 0.290074,1.899423 q 0.26497,0 0.354224,-0.160377 0.09204,-0.160377 0.09204,-0.623379 0,-0.497866 -0.08786,-0.68474 -0.08786,-0.186874 -0.322149,-0.186874 h -0.03626 z"
         style="font-style:normal;font-variant:normal;font-weight:500;font-stretch:condensed;font-size:2.85610628px;font-family:Futura;-inkscape-font-specification:'Futura, Medium Condensed';font-variant-ligatures:normal;font-variant-caps:normal;font-variant-numeric:normal;font-feature-settings:normal;text-align:start;writing-mode:lr-tb;text-anchor:start;fill:#ffffff;fill-opacity:1;stroke-width:0.26775998px"
         id="path835"
         inkscape:connector-curvature="0" />
    </g>
    <g
       aria-label="S"
       transform="matrix(1.1168008,0,0,0.89541483,-18.241145,-7.2162773)"
       style="font-style:normal;font-variant:normal;font-weight:500;font-stretch:condensed;font-size:3.05634928px;line-height:1.25;font-family:Futura;-inkscape-font-specification:'Futura, Medium Condensed';font-variant-ligatures:normal;font-variant-caps:normal;font-variant-numeric:normal;font-feature-settings:normal;text-align:start;letter-spacing:0px;word-spacing:0px;writing-mode:lr-tb;text-anchor:start;fill:#fffff0;fill-opacity:1;stroke:none;stroke-width:0.28653276px;stroke-linecap:butt;stroke-linejoin:miter;stroke-opacity:1"
       id="text832">
      <path
         d="m 67.999462,95.866167 v 0.302948 q -0.141774,-0.10148 -0.255194,-0.10148 -0.122373,0 -0.199976,0.08656 -0.0776,0.08208 -0.0776,0.219376 0,0.120881 0.05522,0.207438 0.02836,0.04626 0.09253,0.119389 0.06566,0.07313 0.168637,0.176098 0.189529,0.192514 0.258178,0.332796 0.06865,0.135804 0.06865,0.332796 0,0.267132 -0.150728,0.440245 -0.150728,0.168637 -0.386521,0.168637 -0.198483,0 -0.338765,-0.108942 v -0.307426 q 0.165652,0.120881 0.301456,0.120881 0.126851,0 0.198484,-0.08357 0.07163,-0.08507 0.07163,-0.229823 0,-0.125358 -0.05522,-0.225346 -0.02835,-0.04776 -0.07909,-0.108942 -0.05074,-0.06268 -0.126851,-0.13879 -0.117896,-0.116404 -0.195499,-0.205945 -0.0776,-0.08954 -0.114911,-0.156698 -0.07163,-0.131327 -0.07163,-0.331303 0,-0.270117 0.140281,-0.428307 0.141774,-0.159682 0.380552,-0.159682 0.165651,0 0.31638,0.0791 z"
         style="font-style:normal;font-variant:normal;font-weight:500;font-stretch:condensed;font-size:3.05634928px;font-family:Futura;-inkscape-font-specification:'Futura, Medium Condensed';font-variant-ligatures:normal;font-variant-caps:normal;font-variant-numeric:normal;font-feature-settings:normal;text-align:start;writing-mode:lr-tb;text-anchor:start;fill:#fffff0;fill-opacity:1;stroke-width:0.28653276px"
         id="path834"
         inkscape:connector-curvature="0" />
    </g>
    <g
       aria-label="R"
       transform="scale(1.0459527,0.95606617)"
       style="font-style:normal;font-variant:normal;font-weight:500;font-stretch:condensed;font-size:2.95191097px;line-height:1.25;font-family:Futura;-inkscape-font-specification:'Futura, Medium Condensed';font-variant-ligatures:normal;font-variant-caps:normal;font-variant-numeric:normal;font-feature-settings:normal;text-align:start;letter-spacing:0px;word-spacing:0px;writing-mode:lr-tb;text-anchor:start;fill:#ffffff;fill-opacity:1;stroke:none;stroke-width:0.27674168px;stroke-linecap:butt;stroke-linejoin:miter;stroke-opacity:1"
       id="text834">
      <path
         d="m 71.837996,89.698959 h 0.394933 q 0.245032,0 0.364665,0.11675 0.151343,0.151344 0.151343,0.462678 0,0.239266 -0.08072,0.384844 -0.07927,0.144136 -0.227736,0.178729 l 0.409347,1.082463 h -0.304127 l -0.407906,-1.08967 v 1.08967 h -0.299803 z m 0.299803,0.985892 q 0.174405,0 0.246473,-0.08072 0.07207,-0.08072 0.07207,-0.272418 0,-0.103778 -0.01586,-0.177287 -0.01441,-0.07351 -0.04756,-0.119633 -0.03171,-0.04612 -0.0836,-0.06774 -0.05045,-0.02162 -0.121074,-0.02162 h -0.05045 z"
         style="font-style:normal;font-variant:normal;font-weight:500;font-stretch:condensed;font-size:2.95191097px;font-family:Futura;-inkscape-font-specification:'Futura, Medium Condensed';font-variant-ligatures:normal;font-variant-caps:normal;font-variant-numeric:normal;font-feature-settings:normal;text-align:start;writing-mode:lr-tb;text-anchor:start;fill:#ffffff;fill-opacity:1;stroke-width:0.27674168px"
         id="path836"
         inkscape:connector-curvature="0" />
    </g>
  </g>
</svg>
