<?xml version="1.0" encoding="UTF-8" standalone="no"?>
<!-- Generator: Adobe Illustrator 23.0.3, SVG Export Plug-In . SVG Version: 6.00 Build 0)  -->

<svg
   xmlns:dc="http://purl.org/dc/elements/1.1/"
   xmlns:cc="http://creativecommons.org/ns#"
   xmlns:rdf="http://www.w3.org/1999/02/22-rdf-syntax-ns#"
   xmlns:svg="http://www.w3.org/2000/svg"
   xmlns="http://www.w3.org/2000/svg"
   xmlns:sodipodi="http://sodipodi.sourceforge.net/DTD/sodipodi-0.dtd"
   xmlns:inkscape="http://www.inkscape.org/namespaces/inkscape"
   version="1.0"
   id="Layer_1"
   x="0px"
   y="0px"
   viewBox="0 0 16.000001 16"
   enable-background="new 0 0 20.00002 20.00001"
   xml:space="preserve"
   sodipodi:docname="nysthipyer_jack_gate_in16.svg"
   width="16"
   height="16"
   inkscape:version="0.92.2 5c3e80d, 2017-08-06"><metadata
     id="metadata25"><rdf:RDF><cc:Work
         rdf:about=""><dc:format>image/svg+xml</dc:format><dc:type
           rdf:resource="http://purl.org/dc/dcmitype/StillImage" /><dc:title></dc:title></cc:Work></rdf:RDF></metadata><defs
     id="defs23" /><sodipodi:namedview
     pagecolor="#ffffff"
     bordercolor="#666666"
     borderopacity="1"
     objecttolerance="10"
     gridtolerance="10"
     guidetolerance="10"
     inkscape:pageopacity="0"
     inkscape:pageshadow="2"
     inkscape:window-width="1215"
     inkscape:window-height="727"
     id="namedview21"
     showgrid="false"
     inkscape:pagecheckerboard="true"
     inkscape:zoom="11.799994"
     inkscape:cx="10.00001"
     inkscape:cy="10.000005"
     inkscape:window-x="235"
     inkscape:window-y="78"
     inkscape:window-maximized="0"
     inkscape:current-layer="Layer_1" /><g
     id="JACKS"
     transform="matrix(0.8,0,0,0.8,2e-6,-9.5e-6)"><g
       id="g17"><g
         id="g15"><path
           id="path7255_37_"
           d="M 10,20 C 4.48488,20 1e-5,15.51517 1e-5,9.99999 1e-5,4.48491 4.48488,0 10,0 15.51512,0 19.99999,4.48491 19.99999,9.99999 19.99999,15.51517 15.51512,20 10,20"
           inkscape:connector-curvature="0"
           style="fill:#fc5b35" /><path
           id="path7261_37_"
           d="M 10,15.00004 C 7.24268,15.00004 5,12.75732 5,10 5,7.2427 7.24268,5.00004 10,5.00004 c 2.75732,0 4.99998,2.24266 4.99998,4.99997 0,2.75732 -2.24268,5.00003 -4.99998,5.00003"
           inkscape:connector-curvature="0"
           style="fill:#e5e5e5" /><path
           id="path7265_37_"
           d="m 13.50001,10 c 0,1.93224 -1.56777,3.50005 -3.49999,3.50005 -1.93224,0 -3.50001,-1.56779 -3.50001,-3.50005 0,-1.93223 1.56777,-3.49995 3.50001,-3.49995 1.93222,1e-5 3.49999,1.56773 3.49999,3.49995"
           inkscape:connector-curvature="0" /><g
           id="g13"><g
             id="g7"><path
               d="m 10.00001,5 c 2.76147,0 5,2.23859 5,5 0,2.76141 -2.23853,5 -5,5 -2.76147,0 -5,-2.23859 -5,-5 0,-2.76141 2.23852,-5 5,-5 m 0,-0.75 c -3.17065,0 -5.75,2.57947 -5.75,5.75 0,3.17053 2.57935,5.75 5.75,5.75 3.17065,0 5.75,-2.57947 5.75,-5.75 0,-3.17053 -2.57935,-5.75 -5.75,-5.75 z"
               id="path5"
               inkscape:connector-curvature="0"
               style="fill:#e8401f" /></g><g
             id="g11"><path
               d="m 10.00001,0.75 c 5.10059,0 9.25,4.14954 9.25,9.25 0,5.10046 -4.14941,9.25 -9.25,9.25 -5.10059,0 -9.25,-4.14954 -9.25,-9.25 0,-5.10046 4.14941,-9.25 9.25,-9.25 m 0,-0.75 c -5.52295,0 -10,4.47717 -10,10 0,5.52283 4.47705,10 10,10 5.52295,0 10,-4.47717 10,-10 0,-5.52283 -4.47705,-10 -10,-10 z"
               id="path9"
               inkscape:connector-curvature="0"
               style="fill:#e8401f" /></g></g></g></g></g></svg>