<?xml version="1.0" encoding="UTF-8" standalone="no"?>
<!-- Generator: Adobe Illustrator 23.0.3, SVG Export Plug-In . SVG Version: 6.00 Build 0)  -->

<svg
   xmlns:dc="http://purl.org/dc/elements/1.1/"
   xmlns:cc="http://creativecommons.org/ns#"
   xmlns:rdf="http://www.w3.org/1999/02/22-rdf-syntax-ns#"
   xmlns:svg="http://www.w3.org/2000/svg"
   xmlns="http://www.w3.org/2000/svg"
   xmlns:sodipodi="http://sodipodi.sourceforge.net/DTD/sodipodi-0.dtd"
   xmlns:inkscape="http://www.inkscape.org/namespaces/inkscape"
   version="1.0"
   id="Layer_1"
   x="0px"
   y="0px"
   viewBox="0 0 16 16"
   enable-background="new 0 0 20 20"
   xml:space="preserve"
   sodipodi:docname="nysthipyer_push_grey_1_16.svg"
   width="16"
   height="16"
   inkscape:version="0.92.2 5c3e80d, 2017-08-06"><metadata
     id="metadata22"><rdf:RDF><cc:Work
         rdf:about=""><dc:format>image/svg+xml</dc:format><dc:type
           rdf:resource="http://purl.org/dc/dcmitype/StillImage" /><dc:title></dc:title></cc:Work></rdf:RDF></metadata><defs
     id="defs20" /><sodipodi:namedview
     pagecolor="#ffffff"
     bordercolor="#666666"
     borderopacity="1"
     objecttolerance="10"
     gridtolerance="10"
     guidetolerance="10"
     inkscape:pageopacity="0"
     inkscape:pageshadow="2"
     inkscape:window-width="1041"
     inkscape:window-height="540"
     id="namedview18"
     showgrid="false"
     inkscape:pagecheckerboard="true"
     inkscape:zoom="11.8"
     inkscape:cx="10"
     inkscape:cy="10"
     inkscape:window-x="0"
     inkscape:window-y="0"
     inkscape:window-maximized="0"
     inkscape:current-layer="Layer_1" /><g
     id="PUSH"
     transform="matrix(0.8,0,0,0.8,0,7.5926514e-6)"><g
       id="XMLID_8_"><g
         id="g13"><circle
           cx="10"
           cy="9.9999905"
           r="10"
           id="circle2"
           style="fill:#141414" /><linearGradient
           id="SVGID_1_"
           gradientUnits="userSpaceOnUse"
           x1="10"
           y1="824.42834"
           x2="10"
           y2="839.3512"
           gradientTransform="translate(0,-821.88977)"><stop
             offset="0"
             style="stop-color:#808080"
             id="stop4" /><stop
             offset="1"
             style="stop-color:#6F6F6F"
             id="stop6" /></linearGradient><path
           d="m 10,17.46143 c -4.12084,0 -7.46144,-3.3406 -7.46144,-7.46144 0,-4.12084 3.3406,-7.46144 7.46144,-7.46144 4.12084,0 7.46144,3.3406 7.46144,7.46144 C 17.44759,14.11508 14.11509,17.44758 10,17.46143 Z"
           id="path9"
           inkscape:connector-curvature="0"
           style="fill:url(#SVGID_1_)" /><path
           d="m 10,17.46143 c 4.12084,0 7.46144,-3.3406 7.46144,-7.46144 0,-4.12084 -3.3406,-7.46144 -7.46144,-7.46144 -4.12084,0 -7.46144,3.3406 -7.46144,7.46144 0.00695,4.11796 3.34348,7.45449 7.46144,7.46144 m 0,1.20523 c -4.78647,0 -8.66667,-3.8802 -8.66667,-8.66667 0,-4.78647 3.8802,-8.66667 8.66667,-8.66667 4.78647,0 8.66667,3.8802 8.66667,8.66667 0,4.78647 -3.8802,8.66667 -8.66667,8.66667 z"
           id="path11"
           inkscape:connector-curvature="0"
           style="fill:#808080" /></g></g></g></svg>