<?xml version="1.0" encoding="utf-8"?>
<!-- Generator: Adobe Illustrator 23.0.3, SVG Export Plug-In . SVG Version: 6.00 Build 0)  -->
<svg version="1.0" id="Layer_1" xmlns="http://www.w3.org/2000/svg" xmlns:xlink="http://www.w3.org/1999/xlink" x="0px" y="0px"
	 viewBox="0 0 20 20" enable-background="new 0 0 20 20" xml:space="preserve">
<g id="JACKS">
	<g id="XMLID_7_">
		<g>
			<g>
				<g id="layer1_30_" transform="translate(-88.611154,-119.19859)">
					<path id="path7255_43_" fill="#E5E5E5" stroke="#636663" stroke-width="0.25" d="M108.61115,129.19858
						c0,5.51512-4.48483,10-10.00001,10c-5.51508,0-9.99999-4.48488-9.99999-10c0-5.51511,4.48491-9.99998,9.99999-9.99998
						C104.12632,119.19859,108.61115,123.68345,108.61115,129.19858"/>
					<path id="path7261_43_" fill="#808080" stroke="#636663" stroke-width="0.25" d="M104.62356,129.19858
						c0,3.31561-2.69681,6.01237-6.01241,6.01237c-3.31559,0-6.01233-2.69676-6.01233-6.01237
						c0-3.3156,2.69674-6.01234,6.01233-6.01234c3.3156,0,6.01241,2.69676,6.01241,6.01237"/>
					<path id="path7265_43_" d="M98.61116,125.83022c1.85957,0,3.3684,1.5088,3.3684,3.36835
						c0,1.85957-1.50882,3.36836-3.3684,3.36836c-1.85955,0-3.3683-1.50879-3.3683-3.36836
						C95.24286,127.33901,96.75161,125.83022,98.61116,125.83022"/>
				</g>
			</g>
		</g>
	</g>
</g>
</svg>
