<?xml version="1.0" encoding="UTF-8" standalone="no"?>
<!-- Generator: Adobe Illustrator 23.0.3, SVG Export Plug-In . SVG Version: 6.00 Build 0)  -->

<svg
   xmlns:dc="http://purl.org/dc/elements/1.1/"
   xmlns:cc="http://creativecommons.org/ns#"
   xmlns:rdf="http://www.w3.org/1999/02/22-rdf-syntax-ns#"
   xmlns:svg="http://www.w3.org/2000/svg"
   xmlns="http://www.w3.org/2000/svg"
   xmlns:sodipodi="http://sodipodi.sourceforge.net/DTD/sodipodi-0.dtd"
   xmlns:inkscape="http://www.inkscape.org/namespaces/inkscape"
   version="1.0"
   id="Layer_1"
   x="0px"
   y="0px"
   viewBox="0 0 30 30"
   enable-background="new 0 0 20 20"
   xml:space="preserve"
   sodipodi:docname="nysthipyer_push_red_0_30.svg"
   width="30"
   height="30"
   inkscape:version="0.92.2 5c3e80d, 2017-08-06"><metadata
     id="metadata24"><rdf:RDF><cc:Work
         rdf:about=""><dc:format>image/svg+xml</dc:format><dc:type
           rdf:resource="http://purl.org/dc/dcmitype/StillImage" /><dc:title></dc:title></cc:Work></rdf:RDF></metadata><defs
     id="defs22"><linearGradient
       id="SVGID_1_"
       gradientUnits="userSpaceOnUse"
       x1="10"
       y1="824.42834"
       x2="10"
       y2="839.3512"
       gradientTransform="matrix(1.6752798,0,0,-1.6752798,-1.7527981,1408.6481)"><stop
         offset="0"
         style="stop-color:#D81E2C"
         id="stop52" /><stop
         offset="1"
         style="stop-color:#B50F30"
         id="stop54" /></linearGradient></defs><sodipodi:namedview
     pagecolor="#ffffff"
     bordercolor="#666666"
     borderopacity="1"
     objecttolerance="10"
     gridtolerance="10"
     guidetolerance="10"
     inkscape:pageopacity="0"
     inkscape:pageshadow="2"
     inkscape:window-width="640"
     inkscape:window-height="480"
     id="namedview20"
     showgrid="false"
     inkscape:pagecheckerboard="true"
     inkscape:zoom="11.8"
     inkscape:cx="10"
     inkscape:cy="10"
     inkscape:window-x="0"
     inkscape:window-y="0"
     inkscape:window-maximized="0"
     inkscape:current-layer="Layer_1" /><circle
     cx="15"
     cy="15"
     id="circle50"
     style="fill:#141414;stroke-width:1.5"
     r="15" /><path
     d="M 15.000001,2.5000004 C 8.0964401,2.5000004 2.5000003,8.0964404 2.5000003,15 c 0,6.90356 5.5964398,12.5 12.5000007,12.5 6.90356,0 12.5,-5.59644 12.5,-12.5 -0.0232,-6.8939266 -5.606073,-12.4767966 -12.5,-12.4999996 z"
     id="path57"
     inkscape:connector-curvature="0"
     style="fill:url(#SVGID_1_);stroke-width:1.67527986" /><path
     d="M 15.000001,26.837857 C 21.53787,26.837857 26.837858,21.537869 26.837858,15 26.837858,8.4621314 21.53787,3.1621434 15.000001,3.1621434 8.4621317,3.1621434 3.1621433,8.4621314 3.1621433,15 3.1731703,21.533299 8.4667009,26.826831 15.000001,26.837857 m 0,1.912143 C 7.4060845,28.75 1.2500003,22.593916 1.2500003,15 c 0,-7.5939156 6.1560842,-13.7499996 13.7500007,-13.7499996 7.593916,0 13.75,6.156084 13.75,13.7499996 0,7.593916 -6.156084,13.75 -13.75,13.75 z"
     id="path59"
     inkscape:connector-curvature="0"
     style="fill:#d81e2c;stroke-width:1.58653784" /></svg>