<?xml version="1.0" encoding="utf-8"?>
<!-- Generator: Adobe Illustrator 24.3.0, SVG Export Plug-In . SVG Version: 6.00 Build 0)  -->
<svg version="1.0" id="Layer_1" xmlns="http://www.w3.org/2000/svg" xmlns:xlink="http://www.w3.org/1999/xlink" x="0px" y="0px"
	 width="20.00001px" height="20px" viewBox="0 0 20.00001 20" enable-background="new 0 0 20.00001 20" xml:space="preserve">
<g>
	<defs>
		<rect id="SVGID_3_" x="-0.125" y="-0.12501" width="20.25" height="20.25002"/>
	</defs>
	<clipPath id="SVGID_1_">
		<use xlink:href="#SVGID_3_"  overflow="visible"/>
	</clipPath>
	<g id="XMLID_1333_" clip-path="url(#SVGID_1_)">
		<path id="path7255_6_" fill="#E5E5E5" stroke="#636663" stroke-width="0.25" d="M10,20.00001c-5.51513,0-10-4.48484-10-10.00002
			c0-5.51509,4.48487-10,10-10s10,4.48491,10,10C20,15.51517,15.51512,20.00001,10,20.00001"/>
		<path id="path7255_5_" fill="#2E89DC" d="M9.99992,17.41919c-4.09181,0-7.41924-3.32741-7.41924-7.41926
			c0-4.09178,3.32744-7.41924,7.41924-7.41924s7.41924,3.32747,7.41924,7.41924
			C17.41916,14.09178,14.09173,17.41919,9.99992,17.41919"/>
		<path id="path7261_3_" fill="#E5E5E5" d="M9.99993,14.99998c-2.75732,0-4.99999-2.24272-4.99999-5.00003
			c0-2.7573,2.24268-4.99997,4.99999-4.99997s4.99998,2.24266,4.99998,4.99997
			C14.99991,12.75727,12.75723,14.99998,9.99993,14.99998"/>
		<path id="path7265_3_" d="M13.49992,9.99995c0,1.93224-1.56776,3.50005-3.49999,3.50005
			c-1.93225,0-3.50001-1.56779-3.50001-3.50005C6.49992,8.06772,8.06768,6.5,9.99993,6.5
			C11.93216,6.5,13.49992,8.06772,13.49992,9.99995"/>
		<g>
			<path fill="#0E74AF" d="M10.0001,4.99994c2.76123,0,5,2.23859,5,5s-2.23877,5-5,5c-2.76172,0-5-2.23859-5-5
				S7.23839,4.99994,10.0001,4.99994 M10.0001,4.24994c-3.17041,0-5.75,2.57947-5.75,5.75s2.57959,5.75,5.75,5.75
				s5.75-2.57947,5.75-5.75S13.17051,4.24994,10.0001,4.24994L10.0001,4.24994z"/>
		</g>
		<g>
			<path fill="#0E74AF" d="M10.0001,2.82441c3.95654,0,7.17529,3.21893,7.17529,7.17554s-3.21874,7.17553-7.17529,7.17553
				s-7.17578-3.21893-7.17578-7.17554S6.04356,2.82441,10.0001,2.82441 M10.0001,2.07441c-4.37744,0-7.92578,3.5484-7.92578,7.92554
				s3.54834,7.92554,7.92578,7.92554c4.37695,0,7.92529-3.5484,7.92529-7.92554S14.37706,2.07441,10.0001,2.07441L10.0001,2.07441z"
				/>
		</g>
	</g>
</g>
</svg>
