<?xml version="1.0" encoding="utf-8"?>
<!-- Generator: Adobe Illustrator 23.0.3, SVG Export Plug-In . SVG Version: 6.00 Build 0)  -->
<svg version="1.0" id="Layer_1" xmlns="http://www.w3.org/2000/svg" xmlns:xlink="http://www.w3.org/1999/xlink" x="0px" y="0px"
	 viewBox="0 0 20 20" enable-background="new 0 0 20 20" xml:space="preserve">
<g id="JACKS">
	<g id="XMLID_4_">
		<g>
			<path id="path7255_38_" fill="#2E89DC" d="M9.99999,19.99998C4.48487,19.99998,0,15.51515,0,9.99997
				c0-5.51508,4.48487-9.99999,9.99999-9.99999s9.99999,4.48491,9.99999,9.99999
				C19.99998,15.51515,15.51511,19.99998,9.99999,19.99998"/>
			<path id="path7261_38_" fill="#E5E5E5" d="M9.99999,15.00002C7.24267,15.00002,5,12.7573,5,9.99999
				c0-2.7573,2.24268-4.99997,4.99999-4.99997s4.99998,2.24266,4.99998,4.99997
				C14.99997,12.75731,12.75729,15.00002,9.99999,15.00002"/>
			<path id="path7265_38_" d="M13.5,9.99999c0,1.93224-1.56777,3.50005-3.49999,3.50005c-1.93224,0-3.50001-1.5678-3.50001-3.50005
				c0-1.93223,1.56777-3.49995,3.50001-3.49995C11.93223,6.50004,13.5,8.06776,13.5,9.99999"/>
			<g>
				<g>
					<path fill="#0E74AF" d="M9.99999,4.99998c2.76147,0,5,2.23859,5,5s-2.23853,5-5,5s-5-2.23859-5-5
						S7.23852,4.99998,9.99999,4.99998 M9.99999,4.24998c-3.17065,0-5.75,2.57947-5.75,5.75s2.57935,5.75,5.75,5.75
						s5.75-2.57947,5.75-5.75S13.17064,4.24998,9.99999,4.24998L9.99999,4.24998z"/>
				</g>
				<g>
					<path fill="#0E74AF" d="M9.99999,0.74998c5.10059,0,9.25,4.14954,9.25,9.25s-4.14941,9.25-9.25,9.25s-9.25-4.14954-9.25-9.25
						S4.8994,0.74998,9.99999,0.74998 M9.99999-0.00002c-5.52295,0-10,4.47717-10,10s4.47705,10,10,10s10-4.47717,10-10
						S15.52294-0.00002,9.99999-0.00002L9.99999-0.00002z"/>
				</g>
			</g>
		</g>
	</g>
</g>
</svg>
