<?xml version="1.0" encoding="UTF-8" standalone="no"?>
<!-- Generator: Adobe Illustrator 23.0.3, SVG Export Plug-In . SVG Version: 6.00 Build 0)  -->

<svg
   xmlns:dc="http://purl.org/dc/elements/1.1/"
   xmlns:cc="http://creativecommons.org/ns#"
   xmlns:rdf="http://www.w3.org/1999/02/22-rdf-syntax-ns#"
   xmlns:svg="http://www.w3.org/2000/svg"
   xmlns="http://www.w3.org/2000/svg"
   xmlns:sodipodi="http://sodipodi.sourceforge.net/DTD/sodipodi-0.dtd"
   xmlns:inkscape="http://www.inkscape.org/namespaces/inkscape"
   version="1.0"
   id="Layer_1"
   x="0px"
   y="0px"
   viewBox="0 0 20 20"
   enable-background="new 0 0 20 20"
   xml:space="preserve"
   sodipodi:docname="nysthipyer_push_green_0.svg"
   inkscape:version="0.92.2 5c3e80d, 2017-08-06"><metadata
     id="metadata22"><rdf:RDF><cc:Work
         rdf:about=""><dc:format>image/svg+xml</dc:format><dc:type
           rdf:resource="http://purl.org/dc/dcmitype/StillImage" /><dc:title></dc:title></cc:Work></rdf:RDF></metadata><defs
     id="defs20" /><sodipodi:namedview
     pagecolor="#ffffff"
     bordercolor="#666666"
     borderopacity="1"
     objecttolerance="10"
     gridtolerance="10"
     guidetolerance="10"
     inkscape:pageopacity="0"
     inkscape:pageshadow="2"
     inkscape:window-width="750"
     inkscape:window-height="480"
     id="namedview18"
     showgrid="false"
     inkscape:pagecheckerboard="true"
     inkscape:zoom="11.8"
     inkscape:cx="10"
     inkscape:cy="10"
     inkscape:window-x="0"
     inkscape:window-y="0"
     inkscape:window-maximized="0"
     inkscape:current-layer="Layer_1" /><g
     id="PUSH"><g
       id="XMLID_16_"><g
         id="g13"><circle
           fill="#141414"
           cx="10"
           cy="9.99999"
           r="10"
           id="circle2" /><linearGradient
           id="SVGID_1_"
           gradientUnits="userSpaceOnUse"
           x1="10"
           y1="2.42832"
           x2="10"
           y2="17.3512"
           gradientTransform="matrix(1 0 0 -1 0 19.88976)"><stop
             offset="0"
             style="stop-color:#4DC17C"
             id="stop4" /><stop
             offset="1"
             style="stop-color:#3AA46B"
             id="stop6" /></linearGradient><path
           fill="url(#SVGID_1_)"
           d="M10,2.53855c-4.12084,0-7.46144,3.3406-7.46144,7.46144S5.87916,17.46143,10,17.46143     s7.46144-3.3406,7.46144-7.46144C17.44759,5.8849,14.11509,2.5524,10,2.53855z"
           id="path9" /><path
           fill="#4DC17C"
           d="M10,2.53855c4.12084,0,7.46144,3.3406,7.46144,7.46144S14.12084,17.46143,10,17.46143     s-7.46144-3.3406-7.46144-7.46144C2.54551,5.88203,5.88204,2.5455,10,2.53855 M10,1.33332     c-4.78647,0-8.66667,3.8802-8.66667,8.66667S5.21353,18.66666,10,18.66666s8.66667-3.8802,8.66667-8.66667     S14.78647,1.33332,10,1.33332z"
           id="path11" /></g></g></g></svg>