<?xml version="1.0" encoding="UTF-8" standalone="no"?>
<!-- Generator: Adobe Illustrator 23.0.3, SVG Export Plug-In . SVG Version: 6.00 Build 0)  -->

<svg
   xmlns:dc="http://purl.org/dc/elements/1.1/"
   xmlns:cc="http://creativecommons.org/ns#"
   xmlns:rdf="http://www.w3.org/1999/02/22-rdf-syntax-ns#"
   xmlns:svg="http://www.w3.org/2000/svg"
   xmlns="http://www.w3.org/2000/svg"
   xmlns:sodipodi="http://sodipodi.sourceforge.net/DTD/sodipodi-0.dtd"
   xmlns:inkscape="http://www.inkscape.org/namespaces/inkscape"
   version="1.0"
   id="Layer_1"
   x="0px"
   y="0px"
   viewBox="0 0 30 30"
   enable-background="new 0 0 20 20"
   xml:space="preserve"
   sodipodi:docname="nysthipyer_push_green_1_30.svg"
   width="30"
   height="30"
   inkscape:version="0.92.2 5c3e80d, 2017-08-06"><metadata
     id="metadata66"><rdf:RDF><cc:Work
         rdf:about=""><dc:format>image/svg+xml</dc:format><dc:type
           rdf:resource="http://purl.org/dc/dcmitype/StillImage" /><dc:title></dc:title></cc:Work></rdf:RDF></metadata><defs
     id="defs64"><linearGradient
       gradientTransform="matrix(1.6752798,0,0,1.6752798,-1.7527984,-1378.6481)"
       y2="839.3512"
       x2="10"
       y1="824.42834"
       x1="10"
       gradientUnits="userSpaceOnUse"
       id="SVGID_1_"><stop
         id="stop48"
         style="stop-color:#4DC17C"
         offset="0" /><stop
         id="stop50"
         style="stop-color:#3AA46B"
         offset="1" /></linearGradient></defs><sodipodi:namedview
     pagecolor="#ffffff"
     bordercolor="#666666"
     borderopacity="1"
     objecttolerance="10"
     gridtolerance="10"
     guidetolerance="10"
     inkscape:pageopacity="0"
     inkscape:pageshadow="2"
     inkscape:window-width="910"
     inkscape:window-height="766"
     id="namedview62"
     showgrid="false"
     inkscape:pagecheckerboard="true"
     inkscape:zoom="11.8"
     inkscape:cx="10"
     inkscape:cy="10"
     inkscape:window-x="0"
     inkscape:window-y="0"
     inkscape:window-maximized="0"
     inkscape:current-layer="Layer_1" /><circle
     style="fill:#141414;stroke-width:1.5"
     id="circle46"
     cy="15"
     cx="15"
     r="15" /><path
     style="fill:url(#SVGID_1_);stroke-width:1.67527986"
     inkscape:connector-curvature="0"
     id="path53"
     d="M 15,27.5 C 8.0964398,27.5 2.5,21.90356 2.5,15 2.5,8.0964398 8.0964398,2.5 15,2.5 21.90356,2.5 27.5,8.0964398 27.5,15 27.4768,21.893927 21.893927,27.476797 15,27.5 Z" /><path
     style="fill:#4dc17c;stroke-width:1.58653784"
     inkscape:connector-curvature="0"
     id="path55"
     d="M 15,26.837857 C 21.537868,26.837857 26.837857,21.537868 26.837857,15 26.837857,8.4621314 21.537868,3.162143 15,3.162143 8.4621317,3.162143 3.162143,8.4621314 3.162143,15 3.1731695,21.5333 8.4667003,26.82683 15,26.837857 M 15,28.75 C 7.4060841,28.75 1.25,22.593916 1.25,15 1.25,7.4060842 7.4060841,1.25 15,1.25 c 7.593916,0 13.75,6.1560842 13.75,13.75 0,7.593916 -6.156084,13.75 -13.75,13.75 z" /></svg>