<?xml version="1.0" encoding="UTF-8" standalone="no"?>
<!-- Generator: Adobe Illustrator 23.0.3, SVG Export Plug-In . SVG Version: 6.00 Build 0)  -->

<svg
   xmlns:dc="http://purl.org/dc/elements/1.1/"
   xmlns:cc="http://creativecommons.org/ns#"
   xmlns:rdf="http://www.w3.org/1999/02/22-rdf-syntax-ns#"
   xmlns:svg="http://www.w3.org/2000/svg"
   xmlns="http://www.w3.org/2000/svg"
   xmlns:sodipodi="http://sodipodi.sourceforge.net/DTD/sodipodi-0.dtd"
   xmlns:inkscape="http://www.inkscape.org/namespaces/inkscape"
   version="1.0"
   id="Layer_1"
   x="0px"
   y="0px"
   viewBox="0 0 40 40"
   enable-background="new 0 0 20 20"
   xml:space="preserve"
   sodipodi:docname="nysthipyer_push_green_1_40.svg"
   width="40"
   height="40"
   inkscape:version="0.92.2 5c3e80d, 2017-08-06"><metadata
     id="metadata88"><rdf:RDF><cc:Work
         rdf:about=""><dc:format>image/svg+xml</dc:format><dc:type
           rdf:resource="http://purl.org/dc/dcmitype/StillImage" /><dc:title></dc:title></cc:Work></rdf:RDF></metadata><defs
     id="defs86"><linearGradient
       gradientTransform="matrix(2.3453918,0,0,2.3453918,-3.4539177,-1931.1074)"
       y2="839.3512"
       x2="10"
       y1="824.42834"
       x1="10"
       gradientUnits="userSpaceOnUse"
       id="SVGID_1_"><stop
         id="stop70"
         style="stop-color:#4DC17C"
         offset="0" /><stop
         id="stop72"
         style="stop-color:#3AA46B"
         offset="1" /></linearGradient></defs><sodipodi:namedview
     pagecolor="#ffffff"
     bordercolor="#666666"
     borderopacity="1"
     objecttolerance="10"
     gridtolerance="10"
     guidetolerance="10"
     inkscape:pageopacity="0"
     inkscape:pageshadow="2"
     inkscape:window-width="1201"
     inkscape:window-height="794"
     id="namedview84"
     showgrid="false"
     inkscape:pagecheckerboard="true"
     inkscape:zoom="11.8"
     inkscape:cx="15.012579"
     inkscape:cy="20.169492"
     inkscape:window-x="522"
     inkscape:window-y="18"
     inkscape:window-maximized="0"
     inkscape:current-layer="Layer_1" /><circle
     style="fill:#141414;stroke-width:2"
     id="circle68"
     cy="20"
     cx="20"
     r="20" /><path
     style="fill:url(#SVGID_1_);stroke-width:2.34539175"
     inkscape:connector-curvature="0"
     id="path75"
     d="M 20,37.5 C 10.335016,37.5 2.5,29.664984 2.5,20 2.5,10.335016 10.335016,2.5 20,2.5 29.664984,2.5 37.5,10.335016 37.5,20 37.467516,29.651498 29.651498,37.467516 20,37.5 Z" /><path
     style="fill:#4dc17c;stroke-width:2.13461447"
     inkscape:connector-curvature="0"
     id="path77"
     d="M 20,35.927298 C 28.796405,35.927298 35.927298,28.796405 35.927298,20 35.927298,11.203595 28.796405,4.0727015 20,4.0727015 11.203595,4.0727015 4.0727015,11.203595 4.0727015,20 4.0875371,28.790257 11.209743,35.912463 20,35.927298 M 20,38.5 C 9.7827312,38.5 1.5,30.217269 1.5,20 1.5,9.7827312 9.7827312,1.5 20,1.5 30.217269,1.5 38.5,9.7827312 38.5,20 38.5,30.217269 30.217269,38.5 20,38.5 Z" /></svg>