<?xml version="1.0" encoding="utf-8"?>
<!-- Generator: Adobe Illustrator 23.0.3, SVG Export Plug-In . SVG Version: 6.00 Build 0)  -->
<svg version="1.0" id="Layer_1" xmlns="http://www.w3.org/2000/svg" xmlns:xlink="http://www.w3.org/1999/xlink" x="0px" y="0px"
	 viewBox="0 0 20 20" enable-background="new 0 0 20 20" xml:space="preserve">
<g id="JACKS">
	<g>
		<g>
			<g id="layer1_28_" transform="translate(-88.611154,-119.19859)">
				<path id="path7255_42_" fill="#E5E5E5" stroke="#636663" stroke-width="0.25" d="M98.61115,139.19859
					c-5.51513,0-10-4.48483-10-10.00002c0-5.5151,4.48487-10.00001,10-10.00001s10,4.48491,10,10.00001
					C108.61115,134.71376,104.12628,139.19859,98.61115,139.19859"/>
				<path id="path7261_42_" fill="#E5E5E5" stroke="#636663" stroke-width="0.25" d="M98.61115,135.22189
					c-3.32162,0-6.02326-2.70171-6.02326-6.02332c0-3.32159,2.70164-6.02323,6.02326-6.02323
					c3.32161,0,6.02325,2.70163,6.02325,6.02323c0,3.32161-2.70165,6.02332-6.02326,6.02332"/>
				<path id="path7265_42_" d="M102.11116,129.19859c0,1.93224-1.56776,3.50005-3.49999,3.50005
					c-1.93224,0-3.50001-1.56779-3.50001-3.50005s1.56776-3.49995,3.50001-3.49995
					C100.5434,125.69863,102.11116,127.26635,102.11116,129.19859"/>
			</g>
		</g>
	</g>
</g>
</svg>
