<?xml version="1.0" encoding="UTF-8" standalone="no"?>
<!-- Generator: Adobe Illustrator 24.3.0, SVG Export Plug-In . SVG Version: 6.00 Build 0)  -->

<svg
   xmlns:dc="http://purl.org/dc/elements/1.1/"
   xmlns:cc="http://creativecommons.org/ns#"
   xmlns:rdf="http://www.w3.org/1999/02/22-rdf-syntax-ns#"
   xmlns:svg="http://www.w3.org/2000/svg"
   xmlns="http://www.w3.org/2000/svg"
   xmlns:xlink="http://www.w3.org/1999/xlink"
   xmlns:sodipodi="http://sodipodi.sourceforge.net/DTD/sodipodi-0.dtd"
   xmlns:inkscape="http://www.inkscape.org/namespaces/inkscape"
   version="1.0"
   id="Layer_1"
   x="0px"
   y="0px"
   width="20.00001px"
   height="20px"
   viewBox="0 0 20.00001 20"
   enable-background="new 0 0 20.00001 20"
   xml:space="preserve"
   sodipodi:docname="nysthi_gate_out.svg"
   inkscape:version="0.92.2 5c3e80d, 2017-08-06"><metadata
     id="metadata31"><rdf:RDF><cc:Work
         rdf:about=""><dc:format>image/svg+xml</dc:format><dc:type
           rdf:resource="http://purl.org/dc/dcmitype/StillImage" /><dc:title></dc:title></cc:Work></rdf:RDF></metadata><defs
     id="defs29" /><sodipodi:namedview
     pagecolor="#ffffff"
     bordercolor="#666666"
     borderopacity="1"
     objecttolerance="10"
     gridtolerance="10"
     guidetolerance="10"
     inkscape:pageopacity="0"
     inkscape:pageshadow="2"
     inkscape:window-width="748"
     inkscape:window-height="480"
     id="namedview27"
     showgrid="false"
     inkscape:pagecheckerboard="true"
     inkscape:zoom="11.8"
     inkscape:cx="10.000005"
     inkscape:cy="10"
     inkscape:window-x="0"
     inkscape:window-y="0"
     inkscape:window-maximized="0"
     inkscape:current-layer="Layer_1" /><g
     id="g24"><defs
       id="defs3"><rect
         id="SVGID_3_"
         x="0.0001"
         y="-0.00002"
         width="19.99985"
         height="20" /></defs><clipPath
       id="SVGID_1_"><use
         xlink:href="#SVGID_3_"
         overflow="visible"
         id="use5" /></clipPath><g
       id="XMLID_1307_"
       clip-path="url(#SVGID_1_)"><g
         id="g21"><path
           id="path7255_1_"
           fill="#F2C433"
           d="M0.0001,9.99997c0-5.51512,4.48478-9.99999,9.99991-9.99999     c5.51503,0,9.99989,4.48487,9.99989,9.99999s-4.48487,9.99999-9.99989,9.99999C4.48489,19.99996,0.0001,15.51509,0.0001,9.99997" /><path
           id="path7261_1_"
           fill="#808080"
           d="M5.00002,9.99999C5.00002,7.24268,7.24271,5,10,5     c2.75727,0,4.99991,2.24267,4.99991,4.99998s-2.24265,4.99999-4.99992,4.99999c-2.75728,0-4.99998-2.24267-4.99998-4.99999" /><path
           id="path7265_1_"
           d="M10,6.49996c1.9322,0,3.49992,1.56777,3.49991,3.49999c0,1.93225-1.5677,3.50001-3.49991,3.50001     c-1.93224,0-3.50002-1.56777-3.50002-3.50001C6.49998,8.06772,8.06778,6.49996,10,6.49996" /><g
           id="g19"><g
             id="g13"><path
               fill="#CC9B12"
               d="M10.00005,14.99998c-2.7612,0-4.99995-2.23877-4.99995-5s2.23875-5,4.99995-5S15,7.23875,15,9.99998       S12.76125,14.99998,10.00005,14.99998 M10.00005,15.99998c3.30856,0,5.99994-2.69141,5.99994-6s-2.69138-6-5.99994-6       s-5.99994,2.69141-5.99994,6S6.69149,15.99998,10.00005,15.99998L10.00005,15.99998z"
               id="path11" /></g><g
             id="g17"><path
               fill="#CC9B12"
               d="M10.00005,18.99998c-4.96235,0-8.99991-4.0376-8.99991-9s4.03756-9,8.99991-9s8.99991,4.0376,8.99991,9       S14.9624,18.99998,10.00005,18.99998 M10.00005,19.99998c5.52289,0,9.9999-4.47705,9.9999-10s-4.477-10-9.9999-10       s-9.9999,4.47705-9.9999,10S4.47715,19.99998,10.00005,19.99998L10.00005,19.99998z"
               id="path15" /></g></g></g></g></g></svg>