<?xml version="1.0" encoding="UTF-8" standalone="no"?>
<!-- Generator: Adobe Illustrator 23.0.3, SVG Export Plug-In . SVG Version: 6.00 Build 0)  -->

<svg
   xmlns:dc="http://purl.org/dc/elements/1.1/"
   xmlns:cc="http://creativecommons.org/ns#"
   xmlns:rdf="http://www.w3.org/1999/02/22-rdf-syntax-ns#"
   xmlns:svg="http://www.w3.org/2000/svg"
   xmlns="http://www.w3.org/2000/svg"
   xmlns:sodipodi="http://sodipodi.sourceforge.net/DTD/sodipodi-0.dtd"
   xmlns:inkscape="http://www.inkscape.org/namespaces/inkscape"
   version="1.0"
   id="Layer_1"
   x="0px"
   y="0px"
   viewBox="0 0 40 40"
   enable-background="new 0 0 20 20"
   xml:space="preserve"
   sodipodi:docname="nysthipyer_push_red_0_40.svg"
   width="40"
   height="40"
   inkscape:version="0.92.2 5c3e80d, 2017-08-06"><metadata
     id="metadata48"><rdf:RDF><cc:Work
         rdf:about=""><dc:format>image/svg+xml</dc:format><dc:type
           rdf:resource="http://purl.org/dc/dcmitype/StillImage" /><dc:title></dc:title></cc:Work></rdf:RDF></metadata><defs
     id="defs46"><linearGradient
       id="SVGID_1_"
       gradientUnits="userSpaceOnUse"
       x1="10"
       y1="824.42834"
       x2="10"
       y2="839.3512"
       gradientTransform="matrix(2.3453918,0,0,-2.3453918,-3.4539173,1971.1074)"><stop
         offset="0"
         style="stop-color:#D81E2C"
         id="stop76" /><stop
         offset="1"
         style="stop-color:#B50F30"
         id="stop78" /></linearGradient></defs><sodipodi:namedview
     pagecolor="#ffffff"
     bordercolor="#666666"
     borderopacity="1"
     objecttolerance="10"
     gridtolerance="10"
     guidetolerance="10"
     inkscape:pageopacity="0"
     inkscape:pageshadow="2"
     inkscape:window-width="640"
     inkscape:window-height="480"
     id="namedview44"
     showgrid="false"
     inkscape:pagecheckerboard="true"
     inkscape:zoom="11.8"
     inkscape:cx="10"
     inkscape:cy="10"
     inkscape:window-x="0"
     inkscape:window-y="0"
     inkscape:window-maximized="0"
     inkscape:current-layer="Layer_1" /><circle
     cx="20"
     cy="20"
     id="circle74"
     style="fill:#141414;stroke-width:2"
     r="20" /><path
     d="m 20,2.5000112 c -9.664984,0 -17.5000003,7.8350158 -17.5000003,17.4999998 0,9.664984 7.8350163,17.500001 17.5000003,17.500001 9.664984,0 17.5,-7.835017 17.5,-17.500001 C 37.46752,10.348513 29.651498,2.5324952 20,2.5000112 Z"
     id="path81"
     inkscape:connector-curvature="0"
     style="fill:url(#SVGID_1_);stroke-width:2.34539175" /><path
     d="m 20,35.92731 c 8.796405,0 15.927298,-7.130893 15.927298,-15.927298 C 35.927298,11.203607 28.796405,4.0727132 20,4.0727132 11.203595,4.0727132 4.0727017,11.203607 4.0727017,20.000012 4.0875317,28.790269 11.209743,35.912475 20,35.92731 m 0,2.572702 c -10.2172683,0 -18.5000003,-8.282731 -18.5000003,-18.5 C 1.4999997,9.7827432 9.7827317,1.5000112 20,1.5000112 c 10.217269,0 18.5,8.282732 18.5,18.5000008 0,10.217269 -8.282731,18.5 -18.5,18.5 z"
     id="path83"
     inkscape:connector-curvature="0"
     style="fill:#d81e2c;stroke-width:2.13461447" /></svg>