<?xml version="1.0" encoding="UTF-8" standalone="no"?>
<!-- Generator: Adobe Illustrator 23.0.3, SVG Export Plug-In . SVG Version: 6.00 Build 0)  -->

<svg
   xmlns:dc="http://purl.org/dc/elements/1.1/"
   xmlns:cc="http://creativecommons.org/ns#"
   xmlns:rdf="http://www.w3.org/1999/02/22-rdf-syntax-ns#"
   xmlns:svg="http://www.w3.org/2000/svg"
   xmlns="http://www.w3.org/2000/svg"
   xmlns:sodipodi="http://sodipodi.sourceforge.net/DTD/sodipodi-0.dtd"
   xmlns:inkscape="http://www.inkscape.org/namespaces/inkscape"
   version="1.0"
   id="Layer_1"
   x="0px"
   y="0px"
   viewBox="0 0 40 40"
   enable-background="new 0 0 20 20"
   xml:space="preserve"
   sodipodi:docname="nysthipyer_push_red_1_40.svg"
   width="40"
   height="40"
   inkscape:version="0.92.2 5c3e80d, 2017-08-06"><metadata
     id="metadata96"><rdf:RDF><cc:Work
         rdf:about=""><dc:format>image/svg+xml</dc:format><dc:type
           rdf:resource="http://purl.org/dc/dcmitype/StillImage" /><dc:title></dc:title></cc:Work></rdf:RDF></metadata><defs
     id="defs94"><linearGradient
       id="SVGID_1_"
       gradientUnits="userSpaceOnUse"
       x1="10"
       y1="824.42834"
       x2="10"
       y2="839.3512"
       gradientTransform="matrix(2.3453918,0,0,2.3453918,-3.4539177,-1931.1074)"><stop
         offset="0"
         style="stop-color:#D81E2C"
         id="stop76" /><stop
         offset="1"
         style="stop-color:#B50F30"
         id="stop78" /></linearGradient></defs><sodipodi:namedview
     pagecolor="#ffffff"
     bordercolor="#666666"
     borderopacity="1"
     objecttolerance="10"
     gridtolerance="10"
     guidetolerance="10"
     inkscape:pageopacity="0"
     inkscape:pageshadow="2"
     inkscape:window-width="973"
     inkscape:window-height="656"
     id="namedview92"
     showgrid="false"
     inkscape:pagecheckerboard="true"
     inkscape:zoom="11.8"
     inkscape:cx="14.844548"
     inkscape:cy="10"
     inkscape:window-x="112"
     inkscape:window-y="125"
     inkscape:window-maximized="0"
     inkscape:current-layer="Layer_1" /><circle
     cx="20"
     cy="19.99999"
     id="circle74"
     style="fill:#141414;stroke-width:2"
     r="20" /><path
     d="M 20,37.5 C 10.335016,37.5 2.5,29.664984 2.5,20 2.5,10.335016 10.335016,2.5 20,2.5 29.664984,2.5 37.5,10.335016 37.5,20 37.467516,29.651498 29.651498,37.467516 20,37.5 Z"
     id="path81"
     inkscape:connector-curvature="0"
     style="fill:url(#SVGID_1_);stroke-width:2.34539175" /><path
     d="M 20,35.927298 C 28.796405,35.927298 35.927298,28.796405 35.927298,20 35.927298,11.203595 28.796405,4.0727015 20,4.0727015 11.203595,4.0727015 4.0727015,11.203595 4.0727015,20 4.0875371,28.790257 11.209743,35.912463 20,35.927298 M 20,38.5 C 9.7827314,38.5 1.5,30.217269 1.5,20 1.5,9.7827314 9.7827314,1.5 20,1.5 30.217269,1.5 38.5,9.7827314 38.5,20 38.5,30.217269 30.217269,38.5 20,38.5 Z"
     id="path83"
     inkscape:connector-curvature="0"
     style="fill:#d81e2c;stroke-width:2.13461447" /></svg>