<?xml version="1.0" encoding="UTF-8" standalone="no"?>
<!-- Generator: Adobe Illustrator 23.0.3, SVG Export Plug-In . SVG Version: 6.00 Build 0)  -->

<svg
   xmlns:dc="http://purl.org/dc/elements/1.1/"
   xmlns:cc="http://creativecommons.org/ns#"
   xmlns:rdf="http://www.w3.org/1999/02/22-rdf-syntax-ns#"
   xmlns:svg="http://www.w3.org/2000/svg"
   xmlns="http://www.w3.org/2000/svg"
   xmlns:sodipodi="http://sodipodi.sourceforge.net/DTD/sodipodi-0.dtd"
   xmlns:inkscape="http://www.inkscape.org/namespaces/inkscape"
   version="1.0"
   id="Layer_1"
   x="0px"
   y="0px"
   viewBox="0 0 18 18"
   enable-background="new 0 0 20 20"
   xml:space="preserve"
   sodipodi:docname="BuchlaRedKnobBis18.svg"
   width="18"
   height="18"
   inkscape:version="0.92.2 5c3e80d, 2017-08-06"><metadata
     id="metadata24"><rdf:RDF><cc:Work
         rdf:about=""><dc:format>image/svg+xml</dc:format><dc:type
           rdf:resource="http://purl.org/dc/dcmitype/StillImage" /><dc:title></dc:title></cc:Work></rdf:RDF></metadata><defs
     id="defs22" /><sodipodi:namedview
     pagecolor="#ffffff"
     bordercolor="#666666"
     borderopacity="1"
     objecttolerance="10"
     gridtolerance="10"
     guidetolerance="10"
     inkscape:pageopacity="0"
     inkscape:pageshadow="2"
     inkscape:window-width="1215"
     inkscape:window-height="802"
     id="namedview20"
     showgrid="false"
     inkscape:pagecheckerboard="true"
     inkscape:zoom="11.8"
     inkscape:cx="-0.80508434"
     inkscape:cy="10"
     inkscape:window-x="0"
     inkscape:window-y="0"
     inkscape:window-maximized="0"
     inkscape:current-layer="Layer_1" /><g
     id="g1379"
     transform="matrix(0.9,0,0,0.9,-7e-6,1.799996)"><circle
       cx="10.000173"
       cy="7.9998407"
       r="9.75"
       id="circle2"
       style="fill:#e72a2a;fill-opacity:1" /><path
       d="m 9.99993,-1.50004 c 5.23828,0 9.5,4.26166 9.5,9.5 0,5.23834 -4.26172,9.5 -9.5,9.5 -5.23828,0 -9.5,-4.26166 -9.5,-9.5 0,-5.23834 4.26172,-9.5 9.5,-9.5 m 0,-0.5 c -5.52271,0 -10,4.47717 -10,10 0,5.52283 4.47729,10 10,10 5.52295,0 10,-4.47717 10,-10 0,-5.52283 -4.47705,-10 -10,-10 z"
       id="path4"
       inkscape:connector-curvature="0"
       style="fill:#0f0f0f" /><path
       d="m 9.99993,-0.07316 c 4.45166,0 8.07324,3.62158 8.07324,8.07312 0,4.45154 -3.62158,8.07312 -8.07324,8.07312 -4.45142,0 -8.073,-3.62158 -8.073,-8.07312 0,-4.45154 3.62158,-8.07312 8.073,-8.07312 m 0,-1.5 c -5.28711,0 -9.573,4.28601 -9.573,9.57312 0,5.28711 4.28589,9.57312 9.573,9.57312 5.28711,0 9.57324,-4.28601 9.57324,-9.57312 0,-5.28711 -4.28613,-9.57312 -9.57324,-9.57312 z"
       id="path8"
       inkscape:connector-curvature="0"
       style="fill:#af170e;fill-opacity:1" /><path
       style="clip-rule:evenodd;fill:#ffffff;fill-rule:evenodd"
       inkscape:connector-curvature="0"
       d="m 11.25606,-1.40695 c -0.40326,-0.02272 -0.81992,-0.03554 -1.24953,-0.03554 -0.42978,0 -0.84628,0.01289 -1.26251,0.03554 v 9.45568 h 2.51204 z"
       id="path110600_30_" /><path
       style="clip-rule:evenodd;fill:#e5e5e5;fill-rule:evenodd"
       inkscape:connector-curvature="0"
       d="m 11.25606,-1.56695 c -0.40326,-0.004 -0.81992,-0.0062 -1.24953,-0.0062 -0.42978,0 -0.84628,0.0023 -1.26251,0.0062 v 1.65184 h 2.51204 z"
       id="path110600_29_" /></g></svg>