<?xml version="1.0" encoding="UTF-8" standalone="no"?>
<!-- Created with Inkscape (http://www.inkscape.org/) -->

<svg
   xmlns:dc="http://purl.org/dc/elements/1.1/"
   xmlns:cc="http://creativecommons.org/ns#"
   xmlns:rdf="http://www.w3.org/1999/02/22-rdf-syntax-ns#"
   xmlns:svg="http://www.w3.org/2000/svg"
   xmlns="http://www.w3.org/2000/svg"
   xmlns:sodipodi="http://sodipodi.sourceforge.net/DTD/sodipodi-0.dtd"
   xmlns:inkscape="http://www.inkscape.org/namespaces/inkscape"
   width="15"
   height="15"
   viewBox="0 0 3.96875 3.96875"
   version="1.1"
   id="svg5158"
   inkscape:version="0.92.2 5c3e80d, 2017-08-06"
   sodipodi:docname="nyOutputPort15PULSE.svg">
  <defs
     id="defs5152" />
  <sodipodi:namedview
     id="base"
     pagecolor="#ffffff"
     bordercolor="#666666"
     borderopacity="1.0"
     inkscape:pageopacity="0.0"
     inkscape:pageshadow="2"
     inkscape:zoom="7.9999996"
     inkscape:cx="-24.766138"
     inkscape:cy="9.4251352"
     inkscape:document-units="px"
     inkscape:current-layer="layer1"
     showgrid="false"
     fit-margin-top="0"
     fit-margin-left="0"
     fit-margin-right="0"
     fit-margin-bottom="0"
     inkscape:window-width="1440"
     inkscape:window-height="856"
     inkscape:window-x="222"
     inkscape:window-y="8"
     inkscape:window-maximized="0"
     units="px"
     inkscape:pagecheckerboard="true"
     inkscape:lockguides="false"
     showborder="true"
     inkscape:showpageshadow="false" />
  <metadata
     id="metadata5155">
    <rdf:RDF>
      <cc:Work
         rdf:about="">
        <dc:format>image/svg+xml</dc:format>
        <dc:type
           rdf:resource="http://purl.org/dc/dcmitype/StillImage" />
        <dc:title></dc:title>
      </cc:Work>
    </rdf:RDF>
  </metadata>
  <g
     inkscape:label="Layer 1"
     inkscape:groupmode="layer"
     id="layer1"
     transform="translate(-116.53265,-83.705872)">
    <path
       inkscape:connector-curvature="0"
       id="path5197"
       style="fill:#d40000;fill-opacity:1;fill-rule:nonzero;stroke:#939593;stroke-width:0.13998821;stroke-miterlimit:8.5;stroke-dasharray:none;stroke-opacity:1"
       d="m 118.51894,87.607079 c -1.05563,-0.0066 -1.91439,-0.865968 -1.91411,-1.91585 4e-4,-1.05055 0.85901,-1.908632 1.91411,-1.91291 1.05161,0.0051 1.91036,0.863163 1.91464,1.912777 -0.003,1.050549 -0.86116,1.909969 -1.91438,1.915983 z" />
    <path
       inkscape:connector-curvature="0"
       id="path5205"
       style="opacity:1;vector-effect:none;fill:#555555;fill-opacity:1;fill-rule:nonzero;stroke:none;stroke-width:0.13998821;stroke-linecap:butt;stroke-linejoin:miter;stroke-miterlimit:8.5;stroke-dasharray:none;stroke-dashoffset:0;stroke-opacity:1"
       d="m 117.09688,85.691242 c 0.004,0.788849 0.63353,1.418778 1.42225,1.422253 0.78497,-0.0021 1.42051,-0.636478 1.41943,-1.422253 -5.2e-4,-0.784436 -0.63567,-1.417306 -1.41943,-1.419445 -0.78765,0.0033 -1.41665,0.631533 -1.42225,1.419445" />
    <path
       d="m 117.41105,85.691497 c 0.003,0.614692 0.4932,1.105081 1.10775,1.107756 0.61149,-0.0018 1.10629,-0.495604 1.10561,-1.107756 -4e-4,-0.611084 -0.49533,-1.10388 -1.10561,-1.105484 -0.61349,0.0027 -1.10348,0.491861 -1.10775,1.105484 z"
       style="fill:#555555;fill-opacity:1;stroke:#3b3b3b;stroke-width:0.13998821;stroke-linecap:butt;stroke-linejoin:miter;stroke-miterlimit:8.5;stroke-dasharray:none;stroke-opacity:1"
       id="path5219"
       inkscape:connector-curvature="0" />
    <path
       inkscape:connector-curvature="0"
       id="path5209"
       style="opacity:1;vector-effect:none;fill:#000000;fill-opacity:1;fill-rule:nonzero;stroke:none;stroke-width:0.13998821;stroke-linecap:butt;stroke-linejoin:miter;stroke-miterlimit:8.5;stroke-dasharray:none;stroke-dashoffset:0;stroke-opacity:1"
       d="m 117.75994,85.691884 c 0.002,0.420755 0.33774,0.756636 0.7585,0.758508 0.41875,-0.0013 0.75757,-0.339358 0.75704,-0.758508 -2.7e-4,-0.418483 -0.33896,-0.755968 -0.75704,-0.757037 -0.42009,0.0019 -0.75556,0.336817 -0.7585,0.757037" />
  </g>
</svg>
