<?xml version="1.0" encoding="UTF-8" standalone="no"?>
<!-- Created with Inkscape (http://www.inkscape.org/) -->

<svg
   xmlns:dc="http://purl.org/dc/elements/1.1/"
   xmlns:cc="http://creativecommons.org/ns#"
   xmlns:rdf="http://www.w3.org/1999/02/22-rdf-syntax-ns#"
   xmlns:svg="http://www.w3.org/2000/svg"
   xmlns="http://www.w3.org/2000/svg"
   xmlns:xlink="http://www.w3.org/1999/xlink"
   xmlns:sodipodi="http://sodipodi.sourceforge.net/DTD/sodipodi-0.dtd"
   xmlns:inkscape="http://www.inkscape.org/namespaces/inkscape"
   width="180"
   height="180"
   id="svg2"
   sodipodi:version="0.32"
   inkscape:version="0.92.2 5c3e80d, 2017-08-06"
   version="1.0"
   sodipodi:docname="BINSONDISCOLD1.svg"
   inkscape:output_extension="org.inkscape.output.svg.inkscape">
  <defs
     id="defs4">
    <linearGradient
       id="linearGradient3273">
      <stop
         style="stop-color:#6c6c6c;stop-opacity:1"
         offset="0"
         id="stop3275" />
      <stop
         style="stop-color:#3e3e3e;stop-opacity:1"
         offset="1"
         id="stop3277" />
    </linearGradient>
    <linearGradient
       id="linearGradient3263">
      <stop
         style="stop-color:#f7f7f7;stop-opacity:1;"
         offset="0"
         id="stop3265" />
      <stop
         style="stop-color:#e1e1e1;stop-opacity:1;"
         offset="1"
         id="stop3267" />
    </linearGradient>
    <linearGradient
       id="linearGradient3153">
      <stop
         style="stop-color:#ffffff;stop-opacity:1;"
         offset="0"
         id="stop3155" />
      <stop
         style="stop-color:#ffffff;stop-opacity:0;"
         offset="1"
         id="stop3157" />
    </linearGradient>
    <radialGradient
       inkscape:collect="always"
       xlink:href="#linearGradient3153"
       id="radialGradient3185"
       gradientUnits="userSpaceOnUse"
       gradientTransform="matrix(0.8695893,-0.8695893,1.9614862,1.9614862,-282.22915,214.70245)"
       cx="289.42923"
       cy="209.66924"
       fx="289.42923"
       fy="209.66924"
       r="92.5" />
    <radialGradient
       inkscape:collect="always"
       xlink:href="#linearGradient3153"
       id="radialGradient3195"
       gradientUnits="userSpaceOnUse"
       gradientTransform="matrix(-0.8695893,0.8695893,-1.9614862,-1.9614862,680.79165,170.98505)"
       cx="289.42923"
       cy="209.66924"
       fx="289.42923"
       fy="209.66924"
       r="92.5" />
    <radialGradient
       inkscape:collect="always"
       xlink:href="#linearGradient3263"
       id="radialGradient3269"
       cx="199.28125"
       cy="192.84375"
       fx="199.28125"
       fy="192.84375"
       r="53.6875"
       gradientUnits="userSpaceOnUse"
       gradientTransform="matrix(2.0314181,2.0314181,-0.7071068,0.7071068,-69.181174,-348.34092)" />
    <radialGradient
       inkscape:collect="always"
       xlink:href="#linearGradient3273"
       id="radialGradient3281"
       cx="199.28125"
       cy="192.84375"
       fx="199.28125"
       fy="192.84375"
       r="68.84375"
       gradientUnits="userSpaceOnUse"
       gradientTransform="matrix(1.9644944,1.9644944,-0.5825701,0.5825701,-79.860647,-310.98815)" />
    <radialGradient
       inkscape:collect="always"
       xlink:href="#linearGradient3263"
       id="radialGradient3285"
       gradientUnits="userSpaceOnUse"
       gradientTransform="matrix(0.1967634,0.1967634,-0.06849045,0.06849045,173.27795,140.42454)"
       cx="199.28125"
       cy="192.84375"
       fx="199.28125"
       fy="192.84375"
       r="53.6875" />
    <radialGradient
       inkscape:collect="always"
       xlink:href="#linearGradient3153"
       id="radialGradient3301"
       gradientUnits="userSpaceOnUse"
       gradientTransform="matrix(0.8695893,-0.8695893,1.9614862,1.9614862,-282.22915,214.70245)"
       cx="289.42923"
       cy="209.66924"
       fx="289.42923"
       fy="209.66924"
       r="92.5" />
    <radialGradient
       inkscape:collect="always"
       xlink:href="#linearGradient3153"
       id="radialGradient3303"
       gradientUnits="userSpaceOnUse"
       gradientTransform="matrix(-0.8695893,0.8695893,-1.9614862,-1.9614862,680.79165,170.98505)"
       cx="289.42923"
       cy="209.66924"
       fx="289.42923"
       fy="209.66924"
       r="92.5" />
    <radialGradient
       inkscape:collect="always"
       xlink:href="#linearGradient3273"
       id="radialGradient3305"
       gradientUnits="userSpaceOnUse"
       gradientTransform="matrix(1.9644944,1.9644944,-0.5825701,0.5825701,-79.860647,-310.98815)"
       cx="199.28125"
       cy="192.84375"
       fx="199.28125"
       fy="192.84375"
       r="68.84375" />
    <radialGradient
       inkscape:collect="always"
       xlink:href="#linearGradient3263"
       id="radialGradient3307"
       gradientUnits="userSpaceOnUse"
       gradientTransform="matrix(2.0314181,2.0314181,-0.7071068,0.7071068,-69.181174,-348.34092)"
       cx="199.28125"
       cy="192.84375"
       fx="199.28125"
       fy="192.84375"
       r="53.6875" />
    <radialGradient
       inkscape:collect="always"
       xlink:href="#linearGradient3263"
       id="radialGradient3322"
       gradientUnits="userSpaceOnUse"
       gradientTransform="matrix(2.0314181,2.0314181,-0.7071068,0.7071068,-68.462424,-341.18467)"
       cx="199.28125"
       cy="192.84375"
       fx="199.28125"
       fy="192.84375"
       r="53.6875" />
    <radialGradient
       inkscape:collect="always"
       xlink:href="#linearGradient3273"
       id="radialGradient3325"
       gradientUnits="userSpaceOnUse"
       gradientTransform="matrix(1.9644944,1.9644944,-0.5825701,0.5825701,-79.141897,-303.8319)"
       cx="199.28125"
       cy="192.84375"
       fx="199.28125"
       fy="192.84375"
       r="68.84375" />
    <radialGradient
       inkscape:collect="always"
       xlink:href="#linearGradient3153"
       id="radialGradient3328"
       gradientUnits="userSpaceOnUse"
       gradientTransform="matrix(-0.8695893,0.8695893,-1.9614862,-1.9614862,681.5104,178.1413)"
       cx="289.42923"
       cy="209.66924"
       fx="289.42923"
       fy="209.66924"
       r="92.5" />
    <radialGradient
       inkscape:collect="always"
       xlink:href="#linearGradient3153"
       id="radialGradient3331"
       gradientUnits="userSpaceOnUse"
       gradientTransform="matrix(0.8695893,-0.8695893,1.9614862,1.9614862,-281.5104,221.8587)"
       cx="289.42923"
       cy="209.66924"
       fx="289.42923"
       fy="209.66924"
       r="92.5" />
    <radialGradient
       inkscape:collect="always"
       xlink:href="#linearGradient3273"
       id="radialGradient3342"
       gradientUnits="userSpaceOnUse"
       gradientTransform="matrix(1.9644944,1.9644944,-0.5825701,0.5825701,-79.141897,-303.8319)"
       cx="199.28125"
       cy="192.84375"
       fx="199.28125"
       fy="192.84375"
       r="68.84375" />
    <radialGradient
       inkscape:collect="always"
       xlink:href="#linearGradient3263"
       id="radialGradient3344"
       gradientUnits="userSpaceOnUse"
       gradientTransform="matrix(2.0314181,2.0314181,-0.7071068,0.7071068,-68.462424,-341.18467)"
       cx="199.28125"
       cy="192.84375"
       fx="199.28125"
       fy="192.84375"
       r="53.6875" />
    <radialGradient
       inkscape:collect="always"
       xlink:href="#linearGradient3263"
       id="radialGradient3349"
       gradientUnits="userSpaceOnUse"
       gradientTransform="matrix(0,2.8728591,-1.0000001,0,392.84375,-372.50696)"
       cx="199.28125"
       cy="192.84375"
       fx="199.28125"
       fy="192.84375"
       r="53.6875" />
    <radialGradient
       inkscape:collect="always"
       xlink:href="#linearGradient3273"
       id="radialGradient3352"
       gradientUnits="userSpaceOnUse"
       gradientTransform="matrix(0,2.7782147,-0.8238786,0,358.87983,-353.64609)"
       cx="199.28125"
       cy="192.84375"
       fx="199.28125"
       fy="192.84375"
       r="68.84375" />
  </defs>
  <sodipodi:namedview
     id="base"
     pagecolor="#ffffff"
     bordercolor="#666666"
     borderopacity="1.0"
     gridtolerance="10000"
     guidetolerance="10"
     objecttolerance="10"
     inkscape:pageopacity="0.0"
     inkscape:pageshadow="2"
     inkscape:zoom="0.98994949"
     inkscape:cx="-133.40393"
     inkscape:cy="207.03642"
     inkscape:document-units="px"
     inkscape:current-layer="layer2"
     width="400px"
     height="400px"
     showguides="true"
     inkscape:guide-bbox="true"
     inkscape:window-width="1274"
     inkscape:window-height="856"
     inkscape:window-x="161"
     inkscape:window-y="6"
     showgrid="false"
     inkscape:pagecheckerboard="true"
     inkscape:showpageshadow="false"
     inkscape:window-maximized="0" />
  <metadata
     id="metadata7">
    <rdf:RDF>
      <cc:Work
         rdf:about="">
        <dc:format>image/svg+xml</dc:format>
        <dc:type
           rdf:resource="http://purl.org/dc/dcmitype/StillImage" />
        <dc:title />
      </cc:Work>
    </rdf:RDF>
  </metadata>
  <g
     inkscape:groupmode="layer"
     id="layer2"
     inkscape:label="draw"
     style="display:inline"
     transform="translate(0,-220)">
    <g
       id="g859"
       transform="matrix(0.48648649,0,0,0.48648649,-7.2972973,212.7027)">
      <path
         inkscape:connector-curvature="0"
         id="path3191"
         d="M 200,15 C 97.88,15 15,97.88 15,200 15,302.12 97.88,385 200,385 302.12,385 385.00002,302.12 385,200 385,97.88 302.12,15 200,15 Z m 0,179.8125 c 2.86645,0 5.18749,2.32105 5.1875,5.1875 0,2.86645 -2.32105,5.18749 -5.1875,5.1875 -2.86645,0 -5.18749,-2.32105 -5.1875,-5.1875 0,-2.86645 2.32105,-5.18749 5.1875,-5.1875 z"
         style="color:#000000;display:inline;overflow:visible;visibility:visible;fill:#000000;fill-opacity:1;fill-rule:evenodd;stroke:none;stroke-width:2.70000005;stroke-linecap:butt;stroke-linejoin:miter;stroke-miterlimit:4;stroke-dasharray:none;stroke-dashoffset:0;stroke-opacity:1;marker:none;marker-start:none;marker-mid:none;marker-end:none;enable-background:accumulate" />
      <path
         inkscape:connector-curvature="0"
         id="path3271"
         d="m 200,132.65625 c -37.15925,0 -67.34375,30.1845 -67.34375,67.34375 0,37.15925 30.1845,67.34375 67.34375,67.34375 37.15925,0 67.34375,-30.1845 67.34375,-67.34375 0,-37.15925 -30.1845,-67.34375 -67.34375,-67.34375 z m 0,62.90625 c 2.45408,0 4.4375,1.98342 4.4375,4.4375 0,2.45408 -1.98342,4.4375 -4.4375,4.4375 -2.45408,0 -4.4375,-1.98342 -4.4375,-4.4375 0,-2.45408 1.98342,-4.4375 4.4375,-4.4375 z"
         style="color:#000000;display:inline;overflow:visible;visibility:visible;fill:#333333;fill-opacity:1;fill-rule:evenodd;stroke:none;stroke-width:2.70000005;stroke-linecap:butt;stroke-linejoin:miter;stroke-miterlimit:4;stroke-dasharray:none;stroke-dashoffset:0;stroke-opacity:1;marker:none;marker-start:none;marker-mid:none;marker-end:none;enable-background:accumulate" />
      <path
         inkscape:connector-curvature="0"
         id="path3176"
         d="M 200,15 C 97.88,15 15,97.88 15,200 15,302.12 97.88,385 200,385 302.12,385 385.00002,302.12 385,200 385,97.88 302.12,15 200,15 Z m 0,3.59375 C 300.14858,18.59375 381.4375,99.851427 381.4375,200 381.43751,300.14858 300.14857,381.4375 200,381.4375 99.85143,381.43749 18.5625,300.14857 18.5625,200 18.562501,99.85143 99.851427,18.59375 200,18.59375 Z"
         style="color:#000000;display:inline;overflow:visible;visibility:visible;fill:#000000;fill-opacity:1;fill-rule:evenodd;stroke:none;stroke-width:2.70000005;stroke-linecap:butt;stroke-linejoin:miter;stroke-miterlimit:4;stroke-dasharray:none;stroke-dashoffset:0;stroke-opacity:1;marker:none;marker-start:none;marker-mid:none;marker-end:none;enable-background:accumulate" />
      <path
         inkscape:connector-curvature="0"
         id="path3151"
         d="m 293.5625,200 c 0,51.65143 -41.91107,93.59375 -93.5625,93.59375 v 87.84375 c 100.14857,0 181.43751,-81.28892 181.4375,-181.4375 z"
         style="color:#000000;display:inline;overflow:visible;visibility:visible;fill:url(#radialGradient3331);fill-opacity:1;fill-rule:evenodd;stroke:none;stroke-width:2.70000005;stroke-linecap:butt;stroke-linejoin:miter;stroke-miterlimit:4;stroke-dasharray:none;stroke-dashoffset:0;stroke-opacity:1;marker:none;marker-start:none;marker-mid:none;marker-end:none;enable-background:accumulate" />
      <path
         inkscape:connector-curvature="0"
         inkscape:transform-center-y="-90.71875"
         inkscape:transform-center-x="90.71875"
         id="path3193"
         d="m 106.4375,200 c 0,-51.65143 41.91107,-93.59375 93.5625,-93.59375 V 18.5625 C 99.85143,18.5625 18.56249,99.85142 18.5625,200 Z"
         style="color:#000000;display:inline;overflow:visible;visibility:visible;fill:url(#radialGradient3328);fill-opacity:1;fill-rule:evenodd;stroke:none;stroke-width:2.70000005;stroke-linecap:butt;stroke-linejoin:miter;stroke-miterlimit:4;stroke-dasharray:none;stroke-dashoffset:0;stroke-opacity:1;marker:none;marker-start:none;marker-mid:none;marker-end:none;enable-background:accumulate" />
      <path
         inkscape:connector-curvature="0"
         id="path3215"
         d="m 248.67988,151.32012 c -26.86689,-26.86689 -70.49287,-26.86689 -97.35976,0 -26.86689,26.86689 -26.86689,70.49288 0,97.35977 26.86689,26.86689 70.49287,26.86689 97.35976,0 26.86689,-26.86689 26.86689,-70.49288 0,-97.35977 z m -2.14341,2.14342 c 25.68403,25.68404 25.68404,67.38891 0,93.07293 -25.68404,25.68404 -67.38891,25.68405 -93.07294,0 -25.68403,-25.68403 -25.68402,-67.38889 0,-93.07293 25.68404,-25.68403 67.3889,-25.68403 93.07294,0 z"
         style="color:#000000;display:inline;overflow:visible;visibility:visible;fill:url(#radialGradient3352);fill-opacity:1;fill-rule:evenodd;stroke:none;stroke-width:2.70000005;stroke-linecap:butt;stroke-linejoin:miter;stroke-miterlimit:4;stroke-dasharray:none;stroke-dashoffset:0;stroke-opacity:1;marker:none;marker-start:none;marker-mid:none;marker-end:none;enable-background:accumulate" />
      <path
         inkscape:connector-curvature="0"
         id="path3223"
         d="m 237.9628,162.03721 c -20.95262,-20.9526 -54.97299,-20.95261 -75.9256,0 -20.9526,20.95262 -20.9526,54.97299 0,75.92559 20.95262,20.9526 54.97299,20.95261 75.9256,0 20.9526,-20.95261 20.9526,-54.97298 0,-75.92559 z m -34.29468,34.29468 c 2.02688,2.02689 2.02688,5.30934 0,7.33623 -2.02689,2.02689 -5.30934,2.02688 -7.33624,0 -2.02688,-2.02688 -2.02688,-5.30934 0,-7.33623 2.02689,-2.02688 5.30934,-2.02688 7.33624,0 z"
         style="color:#000000;display:inline;overflow:visible;visibility:visible;fill:url(#radialGradient3349);fill-opacity:1;fill-rule:evenodd;stroke:none;stroke-width:2.70000005;stroke-linecap:butt;stroke-linejoin:miter;stroke-miterlimit:4;stroke-dasharray:none;stroke-dashoffset:0;stroke-opacity:1;marker:none;marker-start:none;marker-mid:none;marker-end:none;enable-background:accumulate" />
      <path
         inkscape:connector-curvature="0"
         id="path3230"
         d="m 243.95111,156.0489 c -7.06177,-7.06176 -15.40617,-12.05335 -24.2847,-15.00392 l -1.23744,3.71231 c 8.31532,2.76444 16.12455,7.46249 22.7379,14.07584 8.05626,8.05626 13.25594,17.88433 15.60055,28.24008 l 3.82279,-0.86178 c -2.50205,-11.05558 -8.03761,-21.56103 -16.6391,-30.16253 z"
         style="color:#000000;display:inline;overflow:visible;visibility:visible;opacity:0.7425743;fill:#ffffff;fill-opacity:1;fill-rule:evenodd;stroke:none;stroke-width:2.70000005;stroke-linecap:butt;stroke-linejoin:miter;stroke-miterlimit:4;stroke-dasharray:none;stroke-dashoffset:0;stroke-opacity:1;marker:none;marker-start:none;marker-mid:none;marker-end:none;enable-background:accumulate" />
      <path
         inkscape:connector-curvature="0"
         id="path3232"
         d="m 142.61386,190.25519 -3.88908,-0.66291 c -3.23715,19.17313 2.53847,39.5732 17.32411,54.35884 14.74595,14.74593 35.07597,20.5264 54.20416,17.34621 l -0.64082,-3.86699 c -17.92511,2.98388 -36.96183,-2.44619 -50.7791,-16.26346 -13.85228,-13.85228 -19.25338,-32.94694 -16.21927,-50.91169 z"
         style="color:#000000;display:inline;overflow:visible;visibility:visible;opacity:0.7425743;fill:#ffffff;fill-opacity:1;fill-rule:evenodd;stroke:none;stroke-width:2.70000005;stroke-linecap:butt;stroke-linejoin:miter;stroke-miterlimit:4;stroke-dasharray:none;stroke-dashoffset:0;stroke-opacity:1;marker:none;marker-start:none;marker-mid:none;marker-end:none;enable-background:accumulate" />
    </g>
    <g
       aria-label="NYSTHI"
       style="font-style:normal;font-weight:normal;font-size:40px;line-height:1.25;font-family:'Bitstream Vera Sans';letter-spacing:0px;word-spacing:0px;fill:#000000;fill-opacity:1;stroke:none;stroke-width:1px;stroke-linecap:butt;stroke-linejoin:miter;stroke-opacity:1"
       id="text863">
      <path
         d="m 72.606445,302.0152 v -9.04688 h 2.332032 l 1.224609,3.17578 q 0.09961,0.28125 0.222656,0.64454 0.128906,0.36328 0.28125,0.83789 l 0.251953,0.79687 q -0.134765,-1.17773 -0.205078,-2.01562 -0.07031,-0.83789 -0.07031,-1.40625 v -2.03321 h 2.332031 v 9.04688 h -2.332031 l -1.230469,-3.32813 q -0.193359,-0.5332 -0.351563,-0.99609 -0.152343,-0.46875 -0.269531,-0.89063 0.07617,0.95508 0.111328,1.66407 0.03516,0.70898 0.03516,1.24218 v 2.3086 z"
         style="font-style:normal;font-variant:normal;font-weight:800;font-stretch:condensed;font-size:12px;font-family:Futura;-inkscape-font-specification:'Futura, Ultra-Bold Condensed';font-variant-ligatures:normal;font-variant-caps:normal;font-variant-numeric:normal;font-feature-settings:normal;text-align:start;writing-mode:lr-tb;text-anchor:start"
         id="path853"
         inkscape:connector-curvature="0" />
      <path
         d="m 84.301758,302.0152 h -2.44336 v -3.83203 l -2.24414,-5.21485 h 2.548828 l 0.439453,1.3418 q 0.128906,0.39258 0.228516,0.75586 0.105468,0.36328 0.1875,0.69726 0.134765,-0.49804 0.234375,-0.85546 0.09961,-0.36329 0.175781,-0.58594 l 0.445312,-1.35352 h 2.53125 l -2.103515,5.21485 z"
         style="font-style:normal;font-variant:normal;font-weight:800;font-stretch:condensed;font-size:12px;font-family:Futura;-inkscape-font-specification:'Futura, Ultra-Bold Condensed';font-variant-ligatures:normal;font-variant-caps:normal;font-variant-numeric:normal;font-feature-settings:normal;text-align:start;writing-mode:lr-tb;text-anchor:start"
         id="path855"
         inkscape:connector-curvature="0" />
      <path
         d="m 86.639648,301.79254 v -2.8418 q 0.720704,0.98438 1.558594,0.98438 0.316406,0 0.515625,-0.16406 0.199219,-0.16992 0.199219,-0.42188 0,-0.36328 -0.433594,-0.70898 l -0.398437,-0.31055 q -0.398438,-0.29883 -0.679688,-0.5918 -0.28125,-0.29882 -0.457031,-0.60937 -0.175781,-0.31641 -0.257813,-0.65039 -0.08203,-0.33399 -0.08203,-0.70313 0,-0.63281 0.292969,-1.32422 0.146484,-0.32226 0.339844,-0.58593 0.193359,-0.26953 0.445312,-0.47461 0.691406,-0.58594 1.669922,-0.58594 0.873047,0 1.757813,0.46289 v 2.76563 q -0.298829,-0.46289 -0.679688,-0.72657 -0.380859,-0.26953 -0.75,-0.26953 -0.28125,0 -0.462891,0.16406 -0.1875,0.15821 -0.1875,0.38086 0,0.36329 0.498047,0.72071 l 0.386719,0.28711 q 0.773438,0.55664 1.107422,1.14257 0.339844,0.58594 0.339844,1.3711 0,1.33594 -0.814453,2.20312 -0.814454,0.86719 -2.0625,0.86719 -0.861329,0 -1.845705,-0.38086 z"
         style="font-style:normal;font-variant:normal;font-weight:800;font-stretch:condensed;font-size:12px;font-family:Futura;-inkscape-font-specification:'Futura, Ultra-Bold Condensed';font-variant-ligatures:normal;font-variant-caps:normal;font-variant-numeric:normal;font-feature-settings:normal;text-align:start;writing-mode:lr-tb;text-anchor:start"
         id="path857"
         inkscape:connector-curvature="0" />
      <path
         d="m 95.592773,302.0152 h -2.443359 v -6.87891 h -1.347656 v -2.16797 h 5.191406 v 2.16797 h -1.400391 z"
         style="font-style:normal;font-variant:normal;font-weight:800;font-stretch:condensed;font-size:12px;font-family:Futura;-inkscape-font-specification:'Futura, Ultra-Bold Condensed';font-variant-ligatures:normal;font-variant-caps:normal;font-variant-numeric:normal;font-feature-settings:normal;text-align:start;writing-mode:lr-tb;text-anchor:start"
         id="path859"
         inkscape:connector-curvature="0" />
      <path
         d="m 103.69043,302.0152 h -2.44336 v -3.63867 h -1.16602 v 3.63867 h -2.443355 v -9.04688 h 2.443355 v 3.19922 h 1.16602 v -3.19922 h 2.44336 z"
         style="font-style:normal;font-variant:normal;font-weight:800;font-stretch:condensed;font-size:12px;font-family:Futura;-inkscape-font-specification:'Futura, Ultra-Bold Condensed';font-variant-ligatures:normal;font-variant-caps:normal;font-variant-numeric:normal;font-feature-settings:normal;text-align:start;writing-mode:lr-tb;text-anchor:start"
         id="path861"
         inkscape:connector-curvature="0" />
      <path
         d="m 107.39355,302.0152 h -2.44335 v -9.04688 h 2.44335 z"
         style="font-style:normal;font-variant:normal;font-weight:800;font-stretch:condensed;font-size:12px;font-family:Futura;-inkscape-font-specification:'Futura, Ultra-Bold Condensed';font-variant-ligatures:normal;font-variant-caps:normal;font-variant-numeric:normal;font-feature-settings:normal;text-align:start;writing-mode:lr-tb;text-anchor:start"
         id="path863"
         inkscape:connector-curvature="0" />
    </g>
  </g>
</svg>
