<?xml version="1.0" encoding="UTF-8" standalone="no"?>
<!DOCTYPE svg PUBLIC "-//W3C//DTD SVG 1.1//EN" "http://www.w3.org/Graphics/SVG/1.1/DTD/svg11.dtd">
<svg width="100%" height="100%" viewBox="0 0 180 180" version="1.1" xmlns="http://www.w3.org/2000/svg" xmlns:xlink="http://www.w3.org/1999/xlink" xml:space="preserve" xmlns:serif="http://www.serif.com/" style="fill-rule:evenodd;clip-rule:evenodd;">
    <g id="g900" transform="matrix(1,0,0,1,0,-200)">
        <ellipse id="path1676" cx="90" cy="290" rx="89.491" ry="89.491" style="fill:rgb(81,170,224);stroke:rgb(81,170,224);stroke-opacity:0.57;stroke-width:1.02px;"/>
        <g id="text1680">
            <path id="path2930" d="M41.916,319.83L41.916,303.838L46.038,303.838L48.203,309.452C48.32,309.783 48.452,310.163 48.597,310.591C48.749,311.019 48.914,311.513 49.094,312.072L49.539,313.481C49.38,312.093 49.26,310.905 49.177,309.918C49.094,308.931 49.052,308.102 49.052,307.432L49.052,303.838L53.175,303.838L53.175,319.83L49.052,319.83L46.877,313.947C46.649,313.319 46.442,312.732 46.256,312.186C46.076,311.634 45.917,311.109 45.779,310.612C45.869,311.738 45.935,312.718 45.976,313.554C46.018,314.389 46.038,315.121 46.038,315.749L46.038,319.83L41.916,319.83Z" style="fill-rule:nonzero;"/>
            <path id="path2932" d="M62.59,319.83L58.271,319.83L58.271,313.056L54.304,303.838L58.809,303.838L59.586,306.21C59.738,306.673 59.873,307.118 59.99,307.546C60.115,307.974 60.225,308.385 60.322,308.779C60.481,308.192 60.619,307.688 60.736,307.266C60.853,306.838 60.957,306.493 61.047,306.231L61.834,303.838L66.309,303.838L62.59,313.056L62.59,319.83Z" style="fill-rule:nonzero;"/>
            <path id="path2934" d="M67.298,319.83L67.298,305.837L74.322,305.837L74.322,309.127L71.077,309.127L71.077,311.166L73.986,311.166L73.986,314.329L71.077,314.329L71.077,316.468L74.322,316.468L74.322,319.83L67.298,319.83Z" style="fill-rule:nonzero;"/>
            <path id="path2936" d="M83.792,315.525L83.575,319.568C82.735,319.906 81.983,320.075 81.318,320.075C79.753,320.075 78.436,319.501 77.367,318.353C76.17,317.066 75.572,315.244 75.572,312.888C75.572,310.683 76.134,308.912 77.258,307.577C78.382,306.248 79.883,305.583 81.762,305.583C82.373,305.583 82.995,305.698 83.629,305.928L83.629,309.924C83.067,309.363 82.49,309.082 81.898,309.082C81.125,309.082 80.521,309.411 80.086,310.069C79.651,310.734 79.433,311.652 79.433,312.825C79.433,313.393 79.487,313.9 79.596,314.347C79.705,314.794 79.859,315.172 80.058,315.48C80.264,315.788 80.515,316.024 80.811,316.187C81.107,316.35 81.445,316.432 81.826,316.432C82.478,316.432 83.134,316.13 83.792,315.525L83.792,315.525Z" style="fill-rule:nonzero;"/>
            <path id="path2938" d="M94.967,319.83L91.188,319.83L91.188,314.202L89.384,314.202L89.384,319.83L85.605,319.83L85.605,305.837L89.384,305.837L89.384,310.785L91.188,310.785L91.188,305.837L94.967,305.837L94.967,319.83Z" style="fill-rule:nonzero;"/>
            <path id="path2940" d="M107.202,312.879C107.202,315.012 106.716,316.746 105.743,318.081C104.776,319.41 103.517,320.075 101.964,320.075C100.586,320.075 99.405,319.565 98.42,318.543C97.182,317.25 96.562,315.311 96.562,312.725C96.562,310.248 97.209,308.354 98.502,307.042C99.462,306.07 100.601,305.583 101.919,305.583C103.532,305.583 104.816,306.242 105.77,307.559C106.725,308.876 107.202,310.65 107.202,312.879ZM103.278,312.906C103.278,310.375 102.831,309.109 101.937,309.109C101.49,309.109 101.133,309.441 100.867,310.106C100.607,310.722 100.478,311.628 100.478,312.825C100.478,314.003 100.598,314.918 100.84,315.571C101.088,316.217 101.429,316.541 101.864,316.541C102.311,316.541 102.656,316.22 102.897,315.58C103.151,314.939 103.278,314.048 103.278,312.906L103.278,312.906Z" style="fill-rule:nonzero;"/>
            <path id="path2942" d="M112.01,317.461L114.547,317.513C114.366,318.329 114.012,318.944 113.486,319.358C112.963,319.768 112.279,319.973 111.434,319.973C110.432,319.973 109.647,319.662 109.077,319.041C108.512,318.411 108.229,317.55 108.229,316.458C108.229,315.348 108.533,314.444 109.142,313.745C109.75,313.042 110.536,312.69 111.498,312.69C112.456,312.69 113.22,313.029 113.79,313.706C114.36,314.388 114.644,315.292 114.644,316.419L114.632,316.878L110.825,316.878C110.855,317.595 111.058,317.953 111.434,317.953C111.727,317.953 111.919,317.789 112.01,317.461L112.01,317.461ZM112.068,315.48C112.068,315.351 112.053,315.232 112.023,315.124C111.992,315.016 111.949,314.923 111.893,314.846C111.841,314.768 111.779,314.708 111.705,314.664C111.632,314.617 111.552,314.593 111.466,314.593C111.285,314.593 111.138,314.677 111.026,314.846C110.913,315.01 110.857,315.221 110.857,315.48L112.068,315.48Z" style="fill-rule:nonzero;"/>
            <path id="path2944" d="M119.292,317.545L119.292,319.934C119.137,319.951 119.001,319.962 118.885,319.966C118.768,319.975 118.671,319.979 118.593,319.979C117.816,319.979 117.167,319.746 116.645,319.28C116.291,318.965 116.004,318.534 115.784,317.985C115.564,317.437 115.454,316.874 115.454,316.296C115.454,315.269 115.769,314.408 116.399,313.713C117.025,313.027 117.814,312.684 118.768,312.684C118.824,312.684 118.895,312.686 118.982,312.69C119.068,312.694 119.172,312.701 119.292,312.709L119.292,314.988C118.524,315.04 118.14,315.458 118.14,316.244C118.14,316.598 118.235,316.908 118.425,317.176C118.619,317.431 118.85,317.558 119.118,317.558L119.195,317.558C119.226,317.554 119.258,317.549 119.292,317.545L119.292,317.545Z" style="fill-rule:nonzero;"/>
            <path id="path2946" d="M126.491,316.438C126.491,317.517 126.193,318.376 125.598,319.015C125.002,319.653 124.204,319.973 123.203,319.973C122.219,319.973 121.435,319.647 120.853,318.995C120.274,318.339 119.985,317.459 119.985,316.354C119.985,315.249 120.281,314.362 120.872,313.693C121.459,313.02 122.238,312.684 123.209,312.684C124.232,312.684 125.035,313.018 125.617,313.687C126.2,314.356 126.491,315.273 126.491,316.438ZM123.973,316.354C123.973,316.095 123.956,315.862 123.921,315.655C123.887,315.443 123.837,315.264 123.772,315.118C123.708,314.967 123.63,314.85 123.539,314.768C123.449,314.686 123.347,314.645 123.235,314.645C123.015,314.645 122.838,314.8 122.704,315.111C122.57,315.383 122.503,315.791 122.503,316.335C122.503,316.87 122.57,317.278 122.704,317.558C122.838,317.869 123.017,318.024 123.241,318.024C123.453,318.024 123.628,317.871 123.766,317.565C123.904,317.224 123.973,316.82 123.973,316.354L123.973,316.354Z" style="fill-rule:nonzero;"/>
            <path id="path2948" d="M129.395,318.409L130.918,318.44C130.809,318.929 130.597,319.298 130.281,319.547C129.967,319.793 129.557,319.916 129.05,319.916C128.449,319.916 127.977,319.729 127.636,319.356C127.296,318.978 127.127,318.462 127.127,317.807C127.127,317.141 127.309,316.599 127.675,316.179C128.04,315.757 128.511,315.546 129.088,315.546C129.663,315.546 130.122,315.749 130.463,316.156C130.805,316.565 130.976,317.108 130.976,317.783L130.968,318.059L128.684,318.059C128.702,318.489 128.824,318.704 129.049,318.704C129.225,318.704 129.341,318.605 129.395,318.409L129.395,318.409ZM129.43,317.22C129.43,317.143 129.421,317.071 129.403,317.007C129.385,316.942 129.359,316.886 129.325,316.84C129.294,316.793 129.256,316.757 129.212,316.731C129.168,316.702 129.121,316.688 129.069,316.688C128.96,316.688 128.872,316.739 128.805,316.84C128.737,316.938 128.704,317.065 128.704,317.22L129.43,317.22Z" style="fill-rule:nonzero;"/>
            <path id="path2950" d="M133.765,318.459L133.765,319.893C133.672,319.903 133.59,319.909 133.52,319.912C133.45,319.917 133.392,319.92 133.345,319.92C132.879,319.92 132.49,319.78 132.176,319.5C131.964,319.311 131.792,319.052 131.66,318.723C131.528,318.395 131.462,318.057 131.462,317.71C131.462,317.093 131.651,316.577 132.029,316.16C132.404,315.748 132.878,315.542 133.45,315.542C133.484,315.542 133.527,315.544 133.578,315.546C133.63,315.549 133.692,315.553 133.765,315.558L133.765,316.925C133.304,316.956 133.074,317.207 133.074,317.679C133.074,317.891 133.13,318.077 133.244,318.238C133.361,318.391 133.499,318.467 133.66,318.467L133.707,318.467C133.725,318.465 133.744,318.462 133.765,318.459L133.765,318.459Z" style="fill-rule:nonzero;"/>
            <path id="path2952" d="M138.084,317.795C138.084,318.442 137.905,318.958 137.548,319.341C137.191,319.724 136.712,319.916 136.111,319.916C135.521,319.916 135.051,319.72 134.701,319.329C134.354,318.936 134.181,318.407 134.181,317.745C134.181,317.082 134.358,316.55 134.713,316.148C135.065,315.744 135.532,315.542 136.115,315.542C136.729,315.542 137.21,315.743 137.56,316.144C137.909,316.546 138.084,317.096 138.084,317.795ZM136.573,317.745C136.573,317.589 136.563,317.449 136.542,317.325C136.521,317.198 136.492,317.091 136.453,317.003C136.414,316.912 136.367,316.842 136.313,316.793C136.259,316.744 136.198,316.719 136.13,316.719C135.998,316.719 135.892,316.812 135.812,316.999C135.732,317.162 135.692,317.407 135.692,317.733C135.692,318.054 135.732,318.299 135.812,318.467C135.892,318.653 136,318.747 136.134,318.747C136.261,318.747 136.366,318.655 136.449,318.471C136.532,318.266 136.573,318.024 136.573,317.745L136.573,317.745Z" style="fill-rule:nonzero;"/>
        </g>
        <circle id="path839" cx="90" cy="290" r="10" style="fill:rgb(128,128,128);"/>
        <circle id="circle841" cx="90" cy="290" r="5" style="fill:rgb(51,51,51);"/>
        <g id="g825" transform="matrix(0.307136,0,0,0.308609,47.7077,204.234)">
            <path id="path6833" d="M121.408,267.061C118.099,267.061 115.408,264.371 115.408,261.062C115.408,257.753 118.099,255.062 121.408,255.062C124.717,255.062 127.408,257.753 127.408,261.062C127.408,264.371 124.717,267.061 121.408,267.061" style="fill:rgb(83,108,83);fill-rule:nonzero;stroke:rgb(111,121,83);stroke-opacity:0.69;stroke-width:1px;"/>
            <rect id="path6843" x="120.672" y="257.175" width="1.472" height="7.774" style="fill:rgb(62,72,55);fill-rule:nonzero;"/>
            <rect id="path6845" x="117.521" y="260.326" width="7.774" height="1.472" style="fill:rgb(62,72,55);fill-rule:nonzero;"/>
        </g>
        <g id="g861" transform="matrix(0.307136,0,0,0.308609,56.5361,203.295)">
            <path id="path855" d="M121.408,267.061C118.099,267.061 115.408,264.371 115.408,261.062C115.408,257.753 118.099,255.062 121.408,255.062C124.717,255.062 127.408,257.753 127.408,261.062C127.408,264.371 124.717,267.061 121.408,267.061" style="fill:rgb(83,108,83);fill-rule:nonzero;stroke:rgb(111,121,83);stroke-opacity:0.69;stroke-width:1px;"/>
            <rect id="path857" x="120.672" y="257.175" width="1.472" height="7.774" style="fill:rgb(62,72,55);fill-rule:nonzero;"/>
            <rect id="path859" x="117.521" y="260.326" width="7.774" height="1.472" style="fill:rgb(62,72,55);fill-rule:nonzero;"/>
        </g>
        <g id="g869" transform="matrix(0.307136,0,0,0.308609,59.8844,211.063)">
            <path id="path863" d="M121.408,267.061C118.099,267.061 115.408,264.371 115.408,261.062C115.408,257.753 118.099,255.062 121.408,255.062C124.717,255.062 127.408,257.753 127.408,261.062C127.408,264.371 124.717,267.061 121.408,267.061" style="fill:rgb(83,108,83);fill-rule:nonzero;stroke:rgb(111,121,83);stroke-opacity:0.69;stroke-width:1px;"/>
            <rect id="path865" x="120.672" y="257.175" width="1.472" height="7.774" style="fill:rgb(62,72,55);fill-rule:nonzero;"/>
            <rect id="path867" x="117.521" y="260.326" width="7.774" height="1.472" style="fill:rgb(62,72,55);fill-rule:nonzero;"/>
        </g>
        <g id="g877" transform="matrix(0.307136,0,0,0.308609,53.5468,216.532)">
            <path id="path871" d="M121.408,267.061C118.099,267.061 115.408,264.371 115.408,261.062C115.408,257.753 118.099,255.062 121.408,255.062C124.717,255.062 127.408,257.753 127.408,261.062C127.408,264.371 124.717,267.061 121.408,267.061" style="fill:rgb(83,108,83);fill-rule:nonzero;stroke:rgb(111,121,83);stroke-opacity:0.69;stroke-width:1px;"/>
            <rect id="path873" x="120.672" y="257.175" width="1.472" height="7.774" style="fill:rgb(62,72,55);fill-rule:nonzero;"/>
            <rect id="path875" x="117.521" y="260.326" width="7.774" height="1.472" style="fill:rgb(62,72,55);fill-rule:nonzero;"/>
        </g>
        <g id="g885" transform="matrix(0.307136,0,0,0.308609,46.0325,212.29)">
            <path id="path879" d="M121.408,267.061C118.099,267.061 115.408,264.371 115.408,261.062C115.408,257.753 118.099,255.062 121.408,255.062C124.717,255.062 127.408,257.753 127.408,261.062C127.408,264.371 124.717,267.061 121.408,267.061" style="fill:rgb(83,108,83);fill-rule:nonzero;stroke:rgb(111,121,83);stroke-opacity:0.69;stroke-width:1px;"/>
            <rect id="path881" x="120.672" y="257.175" width="1.472" height="7.774" style="fill:rgb(62,72,55);fill-rule:nonzero;"/>
            <rect id="path883" x="117.521" y="260.326" width="7.774" height="1.472" style="fill:rgb(62,72,55);fill-rule:nonzero;"/>
        </g>
    </g>
</svg>
