<?xml version="1.0" encoding="UTF-8" standalone="no"?>
<!-- Created with Inkscape (http://www.inkscape.org/) -->

<svg
   xmlns:dc="http://purl.org/dc/elements/1.1/"
   xmlns:cc="http://creativecommons.org/ns#"
   xmlns:rdf="http://www.w3.org/1999/02/22-rdf-syntax-ns#"
   xmlns:svg="http://www.w3.org/2000/svg"
   xmlns="http://www.w3.org/2000/svg"
   xmlns:sodipodi="http://sodipodi.sourceforge.net/DTD/sodipodi-0.dtd"
   xmlns:inkscape="http://www.inkscape.org/namespaces/inkscape"
   width="180"
   height="180"
   viewBox="0 0 47.625 47.625002"
   version="1.1"
   id="svg8"
   inkscape:version="0.92.2 5c3e80d, 2017-08-06"
   sodipodi:docname="BINSONDISC1.svg"
   inkscape:export-filename="E:\Users\Martin\Documents\Rack_Source\Rack\plugins\ML-modules\res\Quantum.png"
   inkscape:export-xdpi="96"
   inkscape:export-ydpi="96">
  <sodipodi:namedview
     id="base"
     pagecolor="#ffffff"
     bordercolor="#666666"
     borderopacity="1.0"
     inkscape:pageopacity="0.0"
     inkscape:pageshadow="2"
     inkscape:zoom="2.8284271"
     inkscape:cx="87.728568"
     inkscape:cy="82.96583"
     inkscape:document-units="px"
     inkscape:current-layer="layer2"
     showgrid="false"
     units="px"
     fit-margin-top="0"
     fit-margin-left="0"
     fit-margin-right="0"
     fit-margin-bottom="0"
     showguides="false"
     inkscape:snap-to-guides="false"
     objecttolerance="20"
     inkscape:window-width="1531"
     inkscape:window-height="1064"
     inkscape:window-x="69"
     inkscape:window-y="0"
     inkscape:window-maximized="0"
     gridtolerance="17"
     inkscape:snap-perpendicular="false"
     inkscape:pagecheckerboard="true"
     inkscape:snap-page="false"
     inkscape:snap-text-baseline="true">
    <inkscape:grid
       empspacing="20"
       dotted="false"
       spacingy="0.52916668"
       spacingx="0.52916668"
       originy="100.54167"
       originx="-7.3436628e-018"
       id="grid43"
       type="xygrid" />
  </sodipodi:namedview>
  <defs
     id="defs2">
    <inkscape:perspective
       id="perspective4742"
       inkscape:persp3d-origin="15.875 : 33.51389 : 1"
       inkscape:vp_z="31.75 : 50.270835 : 1"
       inkscape:vp_y="0 : 1000 : 0"
       inkscape:vp_x="0 : 50.270835 : 1"
       sodipodi:type="inkscape:persp3d" />
    <filter
       id="filter1636"
       x="-0.25"
       width="1.5"
       y="-0.25"
       height="1.5"
       inkscape:menu="Non-realistic 3D Shaders"
       inkscape:menu-tooltip="Deep and dark metal shading"
       inkscape:label="Deep Metal"
       style="color-interpolation-filters:sRGB">
      <feGaussianBlur
         id="feGaussianBlur1616"
         in="SourceGraphic"
         stdDeviation="5"
         result="result8" />
      <feComposite
         id="feComposite1618"
         in2="result8"
         operator="xor"
         result="result19" />
      <feComposite
         id="feComposite1620"
         k2="1"
         operator="arithmetic"
         result="result17"
         in2="result8"
         k1="0"
         k3="0"
         k4="0" />
      <feComposite
         id="feComposite1622"
         in2="result17"
         result="result6"
         operator="xor" />
      <feOffset
         id="feOffset1624"
         result="result18"
         in="result6" />
      <feDisplacementMap
         id="feDisplacementMap1626"
         in2="result17"
         in="result18"
         xChannelSelector="A"
         yChannelSelector="A"
         scale="100"
         result="result4" />
      <feComposite
         id="feComposite1628"
         in="result4"
         in2="result4"
         result="result2"
         operator="arithmetic"
         k3="1"
         k1="0"
         k2="0"
         k4="0" />
      <feComposite
         id="feComposite1630"
         in2="result2"
         result="fbSourceGraphic"
         in="result2"
         operator="over" />
      <feComposite
         id="feComposite1632"
         in="fbSourceGraphic"
         in2="SourceGraphic"
         operator="xor"
         result="result15" />
      <feComposite
         id="feComposite1634"
         result="result16"
         in2="result8"
         operator="in"
         in="result15" />
    </filter>
  </defs>
  <metadata
     id="metadata5">
    <rdf:RDF>
      <cc:Work
         rdf:about="">
        <dc:format>image/svg+xml</dc:format>
        <dc:type
           rdf:resource="http://purl.org/dc/dcmitype/StillImage" />
        <dc:title></dc:title>
      </cc:Work>
    </rdf:RDF>
  </metadata>
  <g
     style="display:inline"
     inkscape:label="Layer 2"
     id="layer2"
     inkscape:groupmode="layer"
     transform="translate(0,-52.916668)">
    <ellipse
       style="fill:#ffffff;fill-opacity:1;stroke:none;stroke-width:0.51075917;stroke-miterlimit:4;stroke-dasharray:none;stroke-opacity:1"
       id="path1773"
       cx="23.8125"
       cy="76.775948"
       rx="22.63773"
       ry="23.233624" />
    <g
       id="g1747"
       transform="matrix(0.94220356,0,0,1.0098598,-53.711716,-2.3961647)">
      <path
         style="fill:#d1eafd;stroke-width:0.08301499"
         d="m 80.983846,101.83817 c -1.659266,-0.0717 -3.03595,-0.21111 -3.818689,-0.38669 -1.025032,-0.22994 -3.770106,-1.04419 -4.768161,-1.41434 -1.034502,-0.383678 -3.136631,-1.399864 -3.574845,-1.728113 -0.136975,-0.102602 -0.339832,-0.215258 -0.450793,-0.250345 -0.252036,-0.0797 -1.569207,-1.018873 -2.686424,-1.915486 -0.959939,-0.770391 -2.645882,-2.472118 -3.490913,-3.523597 -0.311897,-0.388095 -0.876115,-1.172587 -1.253819,-1.743315 -2.778336,-4.198194 -4.030553,-8.863348 -3.715497,-13.842139 0.104197,-1.646611 0.229635,-2.502984 0.559168,-3.81746 0.679903,-2.712069 1.680677,-4.966384 3.234705,-7.286406 2.563173,-3.826584 6.356621,-6.960989 10.749936,-8.882327 0.926208,-0.40506 2.677304,-1.014696 3.570313,-1.242988 0.296779,-0.07587 0.729664,-0.191525 0.961969,-0.257013 0.232304,-0.06549 0.535801,-0.119069 0.674437,-0.119069 0.138635,0 0.410885,-0.05604 0.604999,-0.124523 0.194114,-0.06849 0.544361,-0.125853 0.778326,-0.127479 0.233965,-0.0016 0.649532,-0.05708 0.923481,-0.123226 0.723082,-0.174595 5.449731,-0.173309 6.101602,0.0017 0.25112,0.0674 0.624687,0.122682 0.830149,0.122841 0.205462,1.58e-4 0.635065,0.05959 0.954673,0.132071 0.319607,0.07248 0.842602,0.187349 1.16221,0.255262 4.992624,1.060875 9.99052,3.997522 13.385987,7.865293 2.53852,2.891623 4.31457,6.273826 5.14868,9.804817 0.50098,2.120772 0.51735,2.28827 0.51629,5.282393 -7.8e-4,2.178496 -0.0272,2.867567 -0.12354,3.226644 -0.0674,0.25112 -0.123,0.572016 -0.12354,0.713102 -9.1e-4,0.238294 -0.13645,0.827439 -0.44708,1.943377 -0.0699,0.251121 -0.17928,0.643367 -0.24308,0.871658 -0.20666,0.739586 -0.82551,2.214783 -1.41041,3.362107 -1.06957,2.098041 -2.56912,4.155782 -4.29257,5.890436 -1.143213,1.150647 -1.890969,1.764637 -3.118325,2.560494 -0.505137,0.327547 -1.009453,0.693163 -1.120703,0.812481 -0.111249,0.119316 -0.426411,0.329998 -0.700361,0.468179 -0.273949,0.138181 -0.591774,0.317322 -0.706276,0.398091 -0.539819,0.380783 -5.134458,2.16309 -6.225475,2.41492 -2.533904,0.58489 -4.941259,0.78596 -7.886424,0.65869 z m 3.694167,-2.288737 c 2.186411,-0.263796 3.530012,-0.552211 5.312959,-1.140468 4.04996,-1.336225 7.551074,-3.691481 10.333598,-6.951576 1.28576,-1.506443 2.60937,-3.734624 3.41509,-5.74903 0.40184,-1.004647 0.50338,-1.323462 0.77327,-2.427947 0.39693,-1.624418 0.56108,-2.829889 0.60773,-4.462996 0.0376,-1.317349 0.003,-1.771163 -0.27877,-3.690558 -0.0821,-0.558785 0.45744,-0.521513 -7.549615,-0.521513 h -7.255967 l -0.122076,0.186784 c -0.11827,0.180961 -0.365932,0.874635 -1.370796,3.839443 -0.538687,1.589374 -0.797625,2.149376 -1.162614,2.514365 -0.454424,0.454423 -1.184236,0.418862 -1.643677,-0.08009 -0.242759,-0.263637 -0.32398,-0.622912 -0.813058,-3.596481 -0.0751,-0.456583 -0.189202,-1.086891 -0.253568,-1.400685 -0.06436,-0.313793 -0.117237,-0.650004 -0.117492,-0.747135 -7.47e-4,-0.281239 -0.167998,-0.807508 -0.242091,-0.761716 -0.06694,0.04137 -0.221247,0.759818 -0.45553,2.120893 -0.0668,0.388095 -0.177495,1.02316 -0.245983,1.411255 -0.310411,1.759 -0.3931,2.229701 -0.466672,2.65648 -0.04329,0.25112 -0.133009,0.755436 -0.199374,1.120702 -0.06637,0.365266 -0.14469,0.832226 -0.174054,1.037688 -0.217188,1.519652 -0.792863,2.289815 -1.655805,2.215205 -0.339537,-0.02936 -0.455792,-0.08549 -0.677038,-0.326911 -0.292813,-0.319515 -0.40251,-0.732389 -0.645069,-2.427892 -0.33538,-2.344322 -0.399915,-2.788452 -0.50663,-3.48663 -0.06281,-0.410924 -0.175197,-1.158059 -0.24975,-1.660299 -0.07455,-0.502241 -0.187165,-1.249376 -0.250248,-1.6603 -0.06308,-0.410924 -0.175294,-1.176738 -0.249356,-1.701808 -0.139148,-0.986495 -0.293469,-2.038561 -0.499255,-3.403614 -0.06539,-0.433754 -0.177609,-1.199567 -0.249377,-1.701808 -0.232181,-1.624832 -0.399798,-2.536784 -0.461956,-2.513357 -0.03343,0.0126 -1.016942,1.937985 -2.185588,4.278636 -1.829725,3.664708 -2.162282,4.278576 -2.394626,4.420238 -0.262691,0.160167 -0.435563,0.164518 -6.548036,0.16482 -4.924379,2.49e-4 -6.295427,0.02269 -6.358014,0.104079 -0.0858,0.111583 -0.359926,2.664899 -0.357238,3.327485 0.0039,0.955729 0.341454,3.541552 0.581619,4.455171 0.748883,2.848845 1.51935,4.587066 3.017307,6.807229 1.397195,2.070821 3.822135,4.468516 5.917312,5.850833 2.453679,1.618841 5.051795,2.736323 7.877029,3.388005 2.549812,0.588153 5.548954,0.785512 7.803409,0.513506 z m -2.990446,-2.284427 c -0.736768,-0.09636 -2.820658,-0.636166 -3.196924,-0.828122 -0.405673,-0.206959 -0.578351,-0.530003 -0.578351,-1.081969 0,-0.373498 0.03483,-0.462326 0.275703,-0.703203 0.450142,-0.450141 0.689624,-0.451118 2.468328,-0.01007 0.854839,0.211966 1.674431,0.385393 1.821316,0.385393 0.347649,0 1.053505,-0.182284 2.271166,-0.586516 1.109231,-0.368237 1.529342,-0.403029 1.923685,-0.159311 0.493799,0.305185 0.660278,0.918538 0.398849,1.469462 -0.191014,0.40253 -0.458986,0.545507 -1.902049,1.014837 -1.660134,0.53993 -2.381418,0.643408 -3.481723,0.499499 z m -6.786841,-7.645608 c -0.977231,-0.143507 -1.720289,-0.984604 -1.720289,-1.947262 0,-0.71013 0.412901,-1.363557 1.09959,-1.74013 0.370224,-0.203027 0.530444,-0.239411 1.059464,-0.240588 0.529821,-0.0012 0.680991,0.03244 1.008185,0.224185 0.719766,0.42181 1.066526,0.995537 1.066526,1.764604 0,1.311347 -1.085566,2.148881 -2.513476,1.939191 z m 13.234593,-0.245927 c -0.962838,-0.183145 -1.672484,-1.010704 -1.672484,-1.95038 0,-0.710036 0.412785,-1.363364 1.099589,-1.740355 0.37571,-0.206228 0.523763,-0.23891 1.067791,-0.235708 0.529901,0.0031 0.692239,0.03925 1.008184,0.224408 0.718234,0.420914 1.059351,0.99499 1.056378,1.777813 -0.0023,0.597833 -0.202544,1.056315 -0.622474,1.425018 -0.529487,0.464896 -1.203765,0.638673 -1.936984,0.499204 z M 81.612134,76.0943 c 0.07033,-0.385172 0.162955,-0.924453 0.205839,-1.198402 0.04289,-0.27395 0.154094,-0.909014 0.247129,-1.411255 0.09304,-0.502241 0.221525,-1.230697 0.285531,-1.618792 0.06401,-0.388096 0.176336,-1.041839 0.249621,-1.452763 0.07328,-0.410924 0.165835,-0.958371 0.205667,-1.216549 0.03983,-0.258177 0.135279,-0.751955 0.212107,-1.097281 0.119774,-0.538362 0.185083,-0.668879 0.458132,-0.915563 0.540933,-0.4887 1.117668,-0.546977 1.630626,-0.164769 0.300901,0.224203 0.479352,0.685192 0.606915,1.567832 0.04619,0.319608 0.160517,0.992029 0.254059,1.49427 0.09354,0.502241 0.202944,1.118627 0.243117,1.369748 0.04018,0.25112 0.109835,0.643366 0.154803,0.871657 0.04497,0.228291 0.145038,0.807321 0.222381,1.286732 0.225214,1.39601 0.384967,2.085177 0.476301,2.054732 0.04678,-0.01559 0.27801,-0.587018 0.513844,-1.269833 0.491589,-1.423303 0.56307,-1.557816 0.960004,-1.806548 l 0.290552,-0.182068 7.637379,-0.04151 c 7.579679,-0.04119 7.637169,-0.04276 7.609959,-0.207538 -0.0671,-0.406577 -0.88715,-2.323465 -1.34945,-3.15457 -1.16441,-2.093338 -2.04499,-3.257871 -3.768708,-4.983967 -1.88762,-1.890218 -3.552418,-3.080567 -5.97843,-4.274639 -2.340498,-1.151983 -4.179831,-1.736518 -6.890244,-2.189698 -4.245748,-0.709889 -9.122561,-0.121701 -13.157876,1.58696 -0.782992,0.331539 -2.711091,1.310827 -2.905524,1.475724 -0.06849,0.05808 -0.237234,0.162609 -0.374995,0.232278 -0.320723,0.162199 -1.643469,1.110306 -2.447515,1.754311 -0.342436,0.274276 -1.070893,0.94931 -1.618792,1.500076 -1.729358,1.738406 -2.842841,3.307374 -3.948067,5.563075 -0.74758,1.525768 -1.27987,2.890387 -1.204277,3.087378 0.03451,0.08994 1.033553,0.106018 5.502782,0.08854 l 5.460611,-0.02135 2.697987,-5.414906 c 1.483893,-2.978199 2.791379,-5.512668 2.905525,-5.632154 0.442307,-0.463001 0.967563,-0.570677 1.488369,-0.305111 0.603511,0.307738 0.604302,0.310622 1.200472,4.378912 0.06691,0.456582 0.181512,1.241074 0.254677,1.743314 0.07316,0.502241 0.186527,1.268054 0.251916,1.701808 0.06539,0.433753 0.174072,1.16221 0.241515,1.618792 0.06744,0.456583 0.180682,1.222396 0.251642,1.701807 0.07096,0.479412 0.185977,1.263904 0.255593,1.743315 0.273887,1.886156 0.403306,2.575961 0.470657,2.50861 0.03866,-0.03866 0.127839,-0.385439 0.198166,-0.77061 z"
         id="path1771"
         inkscape:connector-curvature="0" />
      <path
         style="fill:#a1d6fd;stroke-width:0.08301499"
         d="m 80.112189,101.78161 c -0.136975,-0.0153 -0.697326,-0.0692 -1.245225,-0.11989 -0.547899,-0.0507 -1.313712,-0.16134 -1.701807,-0.24594 -1.097293,-0.23919 -3.585984,-0.9711 -4.688601,-1.3789 -0.948967,-0.350974 -3.241406,-1.452415 -3.705824,-1.780528 -0.119597,-0.0845 -0.317694,-0.191742 -0.440215,-0.238324 -0.122521,-0.04658 -0.36088,-0.190787 -0.529686,-0.320454 -0.168806,-0.129666 -0.736523,-0.556719 -1.261593,-0.949005 -2.28645,-1.708233 -4.108148,-3.649737 -5.665704,-6.038315 -1.331422,-2.041791 -2.421778,-4.507521 -2.991833,-6.765722 -0.309297,-1.225243 -0.39129,-1.625366 -0.394053,-1.92297 -0.0016,-0.175139 -0.05708,-0.542575 -0.123226,-0.816525 -0.172265,-0.713434 -0.170017,-4.744666 0.0031,-5.561974 0.06769,-0.31959 0.123081,-0.68548 0.123081,-0.813088 0,-0.323373 0.267111,-1.457152 0.68855,-2.922617 0.263034,-0.914646 1.015933,-2.73307 1.563901,-3.777182 1.644631,-3.133718 3.951413,-5.823417 6.920705,-8.069514 2.806243,-2.12276 6.462459,-3.789462 9.878783,-4.503289 0.365266,-0.07632 0.832226,-0.177033 1.037688,-0.223805 0.205462,-0.04677 0.672421,-0.118861 1.037687,-0.160198 0.365266,-0.04134 0.869582,-0.110101 1.120702,-0.152808 0.584732,-0.09944 4.54585,-0.101413 5.14693,-0.0026 0.25112,0.0413 0.774114,0.110194 1.162209,0.1531 0.388095,0.04291 0.873733,0.116806 1.079195,0.164224 0.536972,0.123924 1.152653,0.259056 1.535778,0.337077 1.799651,0.366486 4.589767,1.466382 6.577606,2.592967 5.231093,2.964661 9.156553,7.580336 11.006533,12.941818 0.35704,1.034733 0.88357,3.055314 0.88552,3.398188 6.6e-4,0.114163 0.0566,0.469052 0.12426,0.788642 0.14494,0.6843 0.17375,5.310602 0.037,5.935542 -0.045,0.205462 -0.11321,0.616386 -0.15165,0.913165 -0.0384,0.296778 -0.1149,0.707702 -0.16992,0.913165 -0.055,0.205462 -0.15766,0.597708 -0.22808,0.871657 -0.63681,2.477296 -1.57984,4.573692 -3.06211,6.807229 -1.04484,1.574412 -1.69829,2.377132 -2.97778,3.658005 -1.244594,1.245948 -1.879823,1.771711 -3.155931,2.612088 -0.500697,0.329732 -1.005013,0.699439 -1.120702,0.821569 -0.342846,0.361937 -1.840732,1.105643 -3.742308,1.858072 -2.517299,0.99606 -3.328485,1.26529 -4.537852,1.50608 -2.317235,0.46138 -3.1897,0.54459 -5.569948,0.53123 -1.218853,-0.007 -2.328167,-0.0249 -2.465142,-0.0402 z m 4.44221,-2.187248 c 0.297278,-0.04302 0.860947,-0.114633 1.252596,-0.159136 1.00254,-0.113916 2.752967,-0.518261 4.019121,-0.928408 4.93658,-1.599113 9.142309,-4.729549 11.868784,-8.834251 2.16671,-3.261983 3.30482,-6.754291 3.50735,-10.762383 0.0585,-1.158453 -0.24883,-3.942325 -0.4753,-4.304839 -0.0682,-0.109163 -0.98402,-0.124522 -7.424678,-0.124522 -6.421392,0 -7.362149,0.01569 -7.468016,0.124522 -0.110718,0.113823 -0.496777,1.189553 -1.519418,4.233765 -0.421789,1.25559 -0.786147,2.008517 -1.086168,2.244514 -0.519275,0.408462 -1.257368,0.227822 -1.514668,-0.370698 -0.07993,-0.185921 -0.246374,-0.935747 -0.369884,-1.666279 -0.488254,-2.887905 -0.874139,-5.009059 -0.945581,-5.197738 l -0.07506,-0.198236 -0.08661,0.207537 c -0.04763,0.114146 -0.147985,0.562427 -0.223,0.99618 -0.07501,0.433754 -0.192134,1.106175 -0.260266,1.49427 -0.172098,0.980308 -0.333639,1.903145 -0.486811,2.781002 -0.718137,4.115786 -0.80787,4.573177 -0.973214,4.960751 -0.330514,0.774736 -0.953484,1.08029 -1.561488,0.765879 -0.341504,-0.176599 -0.45813,-0.451872 -0.614909,-1.45137 -0.0752,-0.479405 -0.172576,-1.095785 -0.216394,-1.369735 -0.04382,-0.273949 -0.136546,-0.890336 -0.206064,-1.369747 -0.201061,-1.386586 -0.542147,-3.710928 -0.663921,-4.524317 -0.06152,-0.410925 -0.229535,-1.550305 -0.373365,-2.531958 -0.143831,-0.981652 -0.311501,-2.121033 -0.3726,-2.531957 -0.0611,-0.410924 -0.225156,-1.531627 -0.36457,-2.49045 -0.139414,-0.958823 -0.291415,-1.967455 -0.337781,-2.241404 -0.04637,-0.27395 -0.08452,-0.50743 -0.08478,-0.518844 -2.49e-4,-0.01141 -0.04763,-0.02075 -0.105254,-0.02075 -0.05763,0 -1.075597,1.965671 -2.262159,4.368157 -1.488668,3.014178 -2.230121,4.429427 -2.392045,4.565824 l -0.23466,0.197668 H 66.25819 c -4.866887,0 -6.276056,0.0229 -6.384306,0.103769 -0.170958,0.127709 -0.390495,2.038319 -0.390748,3.400639 -2.65e-4,1.436609 0.266153,3.642624 0.548544,4.542081 0.06348,0.202182 0.115411,0.430964 0.115411,0.508407 0,0.184672 0.561976,1.829846 0.948242,2.775958 0.932192,2.2833 2.472192,4.544247 4.444819,6.525653 2.161732,2.171352 4.211845,3.597848 6.870073,4.780288 3.211333,1.428474 6.243627,2.071042 9.860361,2.089492 0.958823,0.0049 1.986542,-0.02631 2.28382,-0.06933 z m -2.823418,-2.366514 c -0.874305,-0.130935 -2.661379,-0.581335 -3.131602,-0.789262 -0.487022,-0.215358 -0.706679,-0.586229 -0.660888,-1.115851 0.02958,-0.342154 0.08504,-0.455382 0.335462,-0.684873 0.404844,-0.371012 0.723599,-0.362567 2.454427,0.06503 1.771769,0.437713 2.044578,0.425397 3.872889,-0.174825 1.539999,-0.505571 1.761308,-0.508923 2.236358,-0.03387 0.258075,0.258076 0.289328,0.337141 0.289328,0.731949 0,0.465661 -0.169968,0.787495 -0.512791,0.970969 -0.509893,0.272886 -2.763614,0.951298 -3.430421,1.03262 -0.228291,0.02784 -0.489788,0.06258 -0.581105,0.07721 -0.09132,0.01462 -0.483562,-0.02097 -0.871657,-0.07909 z m -7.036716,-7.678061 c -0.425584,-0.100945 -0.919351,-0.472982 -1.186206,-0.893768 -0.211356,-0.333275 -0.244564,-0.46531 -0.244296,-0.971311 3.32e-4,-0.607369 0.116672,-0.908475 0.527249,-1.364482 0.492876,-0.547411 1.699166,-0.764566 2.419472,-0.43555 0.434568,0.198499 1.001963,0.823222 1.113938,1.226488 0.212615,0.765708 0.05467,1.338877 -0.524695,1.904119 -0.576315,0.562263 -1.258396,0.73542 -2.105462,0.534504 z m 13.170284,-0.276831 c -0.462611,-0.173753 -0.817341,-0.461129 -1.079524,-0.874548 -0.205435,-0.323937 -0.239131,-0.459749 -0.238864,-0.962745 3.32e-4,-0.607369 0.116672,-0.908475 0.527249,-1.364482 0.311485,-0.345949 0.947204,-0.589157 1.542359,-0.590061 0.660019,-0.001 1.10714,0.198465 1.569673,0.700255 0.847548,0.919482 0.607082,2.250984 -0.533871,2.956132 -0.361991,0.223722 -1.352175,0.298774 -1.787022,0.135449 z M 81.598354,76.990403 c 0.06986,-0.330129 0.391049,-2.131862 0.713751,-4.00385 1.023342,-5.936386 0.943466,-5.645404 1.633462,-5.950622 0.327792,-0.144998 0.429592,-0.156075 0.697295,-0.07587 0.502653,0.150598 0.701849,0.465082 0.85632,1.351932 0.20935,1.201911 0.285408,1.634056 0.413632,2.350138 0.207224,1.157282 0.375329,2.110301 0.680816,3.859683 0.163399,0.935712 0.313508,1.717713 0.333575,1.737782 0.09559,0.09558 0.249816,-0.249765 0.70624,-1.581406 0.540908,-1.578123 0.653102,-1.786821 1.076696,-2.002817 0.264832,-0.135041 0.811731,-0.145155 7.854869,-0.145276 4.16362,-7e-5 7.58742,-0.02815 7.60845,-0.06239 0.0909,-0.148078 -0.65153,-2.04437 -1.23272,-3.148471 -1.09533,-2.080833 -2.21324,-3.60141 -3.873972,-5.269393 -1.868689,-1.876843 -3.61334,-3.121705 -6.087256,-4.343446 -1.543429,-0.762221 -3.310464,-1.423834 -4.648839,-1.740619 -0.319608,-0.07565 -0.711854,-0.171105 -0.871658,-0.212125 -0.159804,-0.04102 -0.77619,-0.158687 -1.369747,-0.261482 -0.967058,-0.167479 -1.355223,-0.1869 -3.735674,-0.1869 -2.366621,0 -2.774235,0.02014 -3.735675,0.184592 -2.560874,0.438028 -4.54108,1.048444 -6.641199,2.047211 -2.311575,1.099329 -4.31422,2.494878 -6.130579,4.272109 -1.978725,1.936099 -3.033829,3.390419 -4.249065,5.856768 -0.771566,1.565914 -1.334366,3.028001 -1.250096,3.247605 0.06187,0.161224 10.900665,0.171695 11.110982,0.01073 0.121428,-0.09293 1.294704,-2.407733 4.53378,-8.944866 1.195108,-2.411976 1.297224,-2.536244 2.028199,-2.468153 0.748822,0.06975 0.93571,0.397689 1.176439,2.064318 0.06835,0.47323 0.237222,1.626231 0.375264,2.562225 0.138043,0.935994 0.305915,2.075375 0.37305,2.531957 0.06714,0.456583 0.235517,1.595964 0.374182,2.531958 0.138665,0.935994 0.288006,1.944626 0.331869,2.241404 0.649389,4.393753 0.626794,4.267276 0.748851,4.19184 0.03946,-0.02438 0.128897,-0.314442 0.198758,-0.644572 z"
         id="path1769"
         inkscape:connector-curvature="0" />
      <path
         style="fill:#d0d0d0;stroke-width:0.08301499"
         d="m 80.112189,101.78161 c -0.136975,-0.0153 -0.697326,-0.0692 -1.245225,-0.11989 -0.547899,-0.0507 -1.313712,-0.16134 -1.701807,-0.24594 -1.097293,-0.23919 -3.585984,-0.9711 -4.688601,-1.3789 -0.948967,-0.350974 -3.241406,-1.452415 -3.705824,-1.780528 -0.119597,-0.0845 -0.317694,-0.191742 -0.440215,-0.238324 -0.122521,-0.04658 -0.36088,-0.190787 -0.529686,-0.320454 -0.168806,-0.129666 -0.736523,-0.556719 -1.261593,-0.949005 -2.28645,-1.708233 -4.108148,-3.649737 -5.665704,-6.038315 -1.331422,-2.041791 -2.421778,-4.507521 -2.991833,-6.765722 -0.309297,-1.225243 -0.39129,-1.625366 -0.394053,-1.92297 -0.0016,-0.175139 -0.05708,-0.542575 -0.123226,-0.816525 -0.172265,-0.713434 -0.170017,-4.744666 0.0031,-5.561974 0.06769,-0.31959 0.123081,-0.68548 0.123081,-0.813088 0,-0.323373 0.267111,-1.457152 0.68855,-2.922617 0.263034,-0.914646 1.015933,-2.73307 1.563901,-3.777182 1.644631,-3.133718 3.951413,-5.823417 6.920705,-8.069514 2.806243,-2.12276 6.462459,-3.789462 9.878783,-4.503289 0.365266,-0.07632 0.832226,-0.177033 1.037688,-0.223805 0.205462,-0.04677 0.672421,-0.118861 1.037687,-0.160198 0.365266,-0.04134 0.869582,-0.110101 1.120702,-0.152808 0.584732,-0.09944 4.54585,-0.101413 5.14693,-0.0026 0.25112,0.0413 0.774114,0.110194 1.162209,0.1531 0.388095,0.04291 0.873733,0.116806 1.079195,0.164224 0.536972,0.123924 1.152653,0.259056 1.535778,0.337077 1.799651,0.366486 4.589767,1.466382 6.577606,2.592967 5.231093,2.964661 9.156553,7.580336 11.006533,12.941818 0.35704,1.034733 0.88357,3.055314 0.88552,3.398188 6.6e-4,0.114163 0.0566,0.469052 0.12426,0.788642 0.14494,0.6843 0.17375,5.310602 0.037,5.935542 -0.045,0.205462 -0.11321,0.616386 -0.15165,0.913165 -0.0384,0.296778 -0.1149,0.707702 -0.16992,0.913165 -0.055,0.205462 -0.15766,0.597708 -0.22808,0.871657 -0.63681,2.477296 -1.57984,4.573692 -3.06211,6.807229 -1.04484,1.574412 -1.69829,2.377132 -2.97778,3.658005 -1.244594,1.245948 -1.879823,1.771711 -3.155931,2.612088 -0.500697,0.329732 -1.005013,0.699439 -1.120702,0.821569 -0.342846,0.361937 -1.840732,1.105643 -3.742308,1.858072 -2.517299,0.99606 -3.328485,1.26529 -4.537852,1.50608 -2.317235,0.46138 -3.1897,0.54459 -5.569948,0.53123 -1.218853,-0.007 -2.328167,-0.0249 -2.465142,-0.0402 z m 4.44221,-2.187248 c 0.297278,-0.04302 0.860947,-0.114633 1.252596,-0.159136 1.00254,-0.113916 2.752967,-0.518261 4.019121,-0.928408 4.93658,-1.599113 9.142309,-4.729549 11.868784,-8.834251 2.16671,-3.261983 3.30482,-6.754291 3.50735,-10.762383 0.0442,-0.874623 -0.12377,-2.787829 -0.33421,-3.806749 -0.0519,-0.25112 -0.0957,-0.493939 -0.0973,-0.539597 -0.002,-0.04566 -0.0404,-0.110461 -0.0861,-0.144005 -0.0456,-0.03355 -3.3756,-0.06156 -7.399886,-0.06226 -6.848586,-0.0012 -7.327897,0.008 -7.489093,0.144006 -0.11627,0.09808 -0.455661,0.981306 -1.044713,2.718741 -1.209228,3.566677 -1.417255,3.943212 -2.178539,3.943212 -0.442081,0 -0.719345,-0.234601 -0.847202,-0.716839 C 85.6784,80.270225 85.48739,79.22928 85.30072,78.133483 84.500403,73.435432 84.445103,73.18291 84.258068,73.37234 c -0.06412,0.06494 -0.339593,1.425174 -0.653195,3.225365 -0.298272,1.712184 -0.599546,3.430595 -0.669499,3.81869 -0.694743,3.854403 -0.641535,3.644596 -1.039143,4.097448 -0.447406,0.509567 -1.15969,0.463318 -1.438129,-0.09338 -0.139009,-0.277926 -0.131807,-0.23204 -1.511336,-9.628185 -0.206145,-1.404073 -0.429155,-2.907749 -0.495578,-3.341502 -0.06642,-0.433754 -0.217929,-1.461064 -0.336681,-2.282913 -0.497037,-3.439865 -0.570565,-3.774098 -0.783431,-3.561232 -0.04572,0.04572 -1.068117,2.063879 -2.271994,4.4848 -1.540499,3.097843 -2.256894,4.455181 -2.418519,4.582316 l -0.229651,0.180643 -6.235683,0.0013 c -3.429625,6.65e-4 -6.273039,0.02872 -6.318697,0.06226 -0.105637,0.07761 -0.100584,0.04811 -0.248367,1.449951 -0.145627,1.38139 -0.158972,2.620428 -0.04111,3.817255 0.10456,1.061782 0.312454,2.314085 0.464623,2.798765 0.06348,0.202182 0.115411,0.430964 0.115411,0.508407 0,0.184672 0.561976,1.829846 0.948242,2.775959 0.932192,2.283299 2.472192,4.544246 4.444819,6.525652 2.161732,2.171352 4.211845,3.597848 6.870073,4.780288 3.211333,1.428474 6.243627,2.071042 9.860361,2.089492 0.958823,0.0049 1.986542,-0.02631 2.28382,-0.06933 z m -2.823418,-2.366514 c -0.874305,-0.130935 -2.661379,-0.581335 -3.131602,-0.789262 -0.487022,-0.215358 -0.706679,-0.586229 -0.660888,-1.115851 0.02958,-0.342154 0.08504,-0.455382 0.335462,-0.684873 0.404844,-0.371012 0.723599,-0.362567 2.454427,0.06503 1.771769,0.437713 2.044578,0.425397 3.872889,-0.174825 1.539999,-0.505571 1.761308,-0.508923 2.236358,-0.03387 0.258075,0.258076 0.289328,0.337141 0.289328,0.731949 0,0.465661 -0.169968,0.787495 -0.512791,0.970969 -0.509893,0.272886 -2.763614,0.951298 -3.430421,1.03262 -0.228291,0.02784 -0.489788,0.06258 -0.581105,0.07721 -0.09132,0.01462 -0.483562,-0.02097 -0.871657,-0.07909 z m -7.036716,-7.678061 c -0.425584,-0.100945 -0.919351,-0.472982 -1.186206,-0.893768 -0.211356,-0.333275 -0.244564,-0.46531 -0.244296,-0.971311 3.32e-4,-0.607369 0.116672,-0.908475 0.527249,-1.364482 0.492876,-0.547411 1.699166,-0.764566 2.419472,-0.43555 0.434568,0.198499 1.001963,0.823222 1.113938,1.226488 0.212615,0.765708 0.05467,1.338877 -0.524695,1.904119 -0.576315,0.562263 -1.258396,0.73542 -2.105462,0.534504 z m 13.170284,-0.276831 c -0.462611,-0.173753 -0.817341,-0.461129 -1.079524,-0.874548 -0.205435,-0.323937 -0.239131,-0.459749 -0.238864,-0.962745 3.32e-4,-0.607369 0.116672,-0.908475 0.527249,-1.364482 0.311485,-0.345949 0.947204,-0.589157 1.542359,-0.590061 0.660019,-0.001 1.10714,0.198465 1.569673,0.700255 0.847548,0.919482 0.607082,2.250984 -0.533871,2.956132 -0.361991,0.223722 -1.352175,0.298774 -1.787022,0.135449 z M 81.55816,77.777164 c 0.0444,-0.169291 0.363846,-1.93282 0.709868,-3.918954 1.183853,-6.795191 1.078973,-6.349364 1.563112,-6.64456 0.518685,-0.316261 1.196017,-0.124003 1.393552,0.395554 0.07123,0.187348 0.254483,1.197209 1.239418,6.830111 0.187614,1.072969 0.376414,1.986608 0.419558,2.03031 0.15368,0.155667 0.316316,-0.173345 0.854034,-1.727705 0.297814,-0.860878 0.6091,-1.641187 0.691748,-1.734018 0.358719,-0.402926 0.191846,-0.394917 8.227726,-0.394917 4.148754,0 7.567774,-0.02458 7.597814,-0.05462 0.03,-0.03004 0.0254,-0.09542 -0.0104,-0.145276 -0.0357,-0.04986 -0.11385,-0.24008 -0.17357,-0.422713 -0.65406,-2.000129 -1.88793,-4.264272 -3.29614,-6.048422 -0.842593,-1.067526 -2.500331,-2.738519 -3.530118,-3.558341 -2.503493,-1.993052 -6.008338,-3.730046 -8.914139,-4.41783 -0.319608,-0.07565 -0.711854,-0.171105 -0.871658,-0.212125 -0.159804,-0.04102 -0.77619,-0.158687 -1.369747,-0.261482 -0.967058,-0.167479 -1.355223,-0.1869 -3.735674,-0.1869 -2.366621,0 -2.774235,0.02014 -3.735675,0.184592 -2.560874,0.438028 -4.54108,1.048444 -6.641199,2.047211 -2.311575,1.099329 -4.31422,2.494878 -6.130579,4.272109 -1.977645,1.935042 -3.032303,3.38842 -4.250023,5.856768 -0.42797,0.867507 -0.910403,1.981512 -1.072073,2.475567 -0.16167,0.494056 -0.293946,0.914319 -0.293946,0.933919 0,0.07257 11.138739,0.03359 11.274742,-0.03946 0.0769,-0.0413 0.750241,-1.302091 1.496312,-2.801756 0.746072,-1.499664 1.978844,-3.978114 2.739495,-5.507665 1.184908,-2.382667 1.424618,-2.808779 1.673554,-2.97493 0.382297,-0.255163 0.842394,-0.20571 1.174326,0.126222 0.277659,0.277659 0.340973,0.569498 0.780106,3.595843 0.162318,1.118627 0.441359,3.023821 0.620092,4.233765 0.178732,1.209943 0.494227,3.357956 0.701099,4.773362 0.388559,2.6585 0.531072,3.523746 0.598427,3.63326 0.0725,0.117876 0.188644,-0.0271 0.269908,-0.336919 z"
         id="path1767"
         inkscape:connector-curvature="0" />
      <path
         style="fill:#73c3fd;stroke-width:0.08301499"
         d="m 80.983846,101.75206 c -2.519505,-0.12482 -3.950267,-0.37373 -6.499086,-1.13064 -1.964124,-0.58328 -4.370606,-1.600991 -5.538087,-2.342076 -3.59297,-2.28072 -5.912076,-4.493843 -7.931558,-7.56909 -1.272445,-1.937665 -2.302431,-4.153774 -2.816566,-6.060095 -0.08004,-0.296778 -0.1777,-0.632989 -0.21702,-0.747134 -0.117189,-0.340203 -0.332979,-1.411728 -0.409592,-2.033868 -0.03936,-0.319608 -0.110365,-0.823924 -0.157792,-1.120702 -0.109942,-0.687966 -0.110364,-3.843757 -6.16e-4,-4.607332 0.04594,-0.319608 0.11671,-0.823924 0.157273,-1.120703 0.191714,-1.402658 0.731049,-3.324279 1.386322,-4.939392 2.253807,-5.555165 6.922502,-10.262629 12.719685,-12.825307 1.689285,-0.746758 3.616181,-1.336189 5.986438,-1.831229 1.061086,-0.221614 3.148714,-0.399992 4.690347,-0.400769 1.487968,-7.49e-4 3.584582,0.182774 4.607331,0.403294 0.205462,0.0443 0.672422,0.14126 1.037688,0.215466 3.677744,0.747157 7.524786,2.575035 10.667425,5.068506 0.900969,0.714857 2.951702,2.768103 3.679002,3.683512 1.60618,2.021599 3.0219,4.579906 3.82478,6.911616 0.29684,0.862096 0.78907,2.796284 0.88186,3.465258 0.0412,0.296779 0.11304,0.782417 0.15972,1.079195 0.10597,0.673844 0.10976,4.419574 0.005,5.14693 -0.0427,0.296778 -0.11406,0.801094 -0.15866,1.120702 -0.0988,0.707667 -0.58533,2.627914 -0.88858,3.506766 -0.62112,1.800068 -1.57415,3.687411 -2.69286,5.332837 -0.97792,1.438344 -1.65164,2.251644 -2.89463,3.494302 -1.210041,1.209719 -2.010704,1.878633 -3.199638,2.673136 -0.412529,0.275672 -0.881559,0.618278 -1.042288,0.761346 -0.65588,0.583809 -3.401086,1.817037 -6.041711,2.714111 -2.7336,0.92867 -5.902516,1.32038 -9.314377,1.15136 z m 3.98472,-2.072328 c 2.743803,-0.376434 4.644699,-0.871224 6.765721,-1.76107 4.183184,-1.754998 7.639546,-4.565158 10.040193,-8.16308 1.75067,-2.62378 2.98336,-5.784141 3.28654,-8.426022 0.0393,-0.342437 0.10955,-0.88411 0.15612,-1.203718 0.10746,-0.737589 0.10937,-2.562694 0.003,-3.320599 -0.0447,-0.319608 -0.11562,-0.887021 -0.15769,-1.260919 -0.0747,-0.66405 -0.18572,-1.001468 -0.36997,-1.124491 -0.0502,-0.03355 -3.38393,-0.06156 -7.408213,-0.06226 -6.848586,-0.0012 -7.327897,0.008 -7.489092,0.144006 -0.11627,0.09808 -0.455661,0.981306 -1.044713,2.718741 -1.209229,3.566677 -1.417256,3.943212 -2.178539,3.943212 -0.442082,0 -0.719346,-0.234601 -0.847203,-0.716839 -0.04679,-0.176466 -0.237797,-1.217411 -0.424467,-2.313208 -0.800316,-4.698051 -0.855617,-4.950573 -1.042652,-4.761143 -0.06412,0.06494 -0.339593,1.425174 -0.653195,3.225365 -0.298271,1.712184 -0.599546,3.430595 -0.669499,3.81869 -0.694743,3.854403 -0.641534,3.644596 -1.039143,4.097448 -0.447406,0.509567 -1.159689,0.463318 -1.438129,-0.09338 -0.139009,-0.277926 -0.131806,-0.23204 -1.511336,-9.628185 -0.206145,-1.404073 -0.429154,-2.907749 -0.495577,-3.341502 -0.06642,-0.433754 -0.217929,-1.461064 -0.336682,-2.282913 -0.497037,-3.439865 -0.570565,-3.774098 -0.783431,-3.561232 -0.04572,0.04572 -1.068117,2.063879 -2.271994,4.4848 -1.540498,3.097843 -2.256894,4.455181 -2.418519,4.582316 l -0.229654,0.180643 h -6.24057 c -5.100578,0 -6.2685,0.02042 -6.393468,0.111802 -0.112678,0.08239 -0.172014,0.284388 -0.225565,0.767889 -0.133721,1.20732 -0.175854,3.771565 -0.07625,4.640806 0.127059,1.108866 0.336676,2.326295 0.475761,2.76315 0.06229,0.195643 0.113252,0.40139 0.113252,0.457216 0,0.179967 0.556779,1.81924 0.904342,2.662573 0.609487,1.478868 1.553145,3.097072 2.682623,4.600218 1.117626,1.487372 3.489804,3.728429 5.088101,4.806859 3.179278,2.145176 6.836729,3.50447 10.667425,3.964555 0.570728,0.06855 1.149758,0.141055 1.286733,0.161128 0.459946,0.0674 3.562297,-0.01304 4.275272,-0.110854 z m -3.362107,-2.579231 c -0.783899,-0.117315 -2.772047,-0.641941 -3.059786,-0.807405 -0.143447,-0.08249 -0.331008,-0.292678 -0.416801,-0.467085 -0.131091,-0.266494 -0.141251,-0.366288 -0.06366,-0.625274 0.05078,-0.169493 0.180992,-0.391463 0.289359,-0.493269 0.332909,-0.312751 0.674353,-0.308346 2.010173,0.02593 2.218656,0.555205 2.297965,0.55361 4.26043,-0.08563 0.621152,-0.202331 1.253006,-0.367873 1.40412,-0.367873 0.799998,0 1.261702,0.795874 0.851745,1.468218 -0.196973,0.323043 -0.245479,0.349609 -1.322713,0.724431 -1.754976,0.610642 -2.87725,0.788926 -3.95287,0.627953 z M 74.733937,89.43245 c -1.33702,-0.367855 -1.819485,-1.887525 -0.933025,-2.938847 0.455141,-0.539787 1.361024,-0.803427 2.086665,-0.607283 0.381429,0.103102 1.052759,0.650756 1.238856,1.010627 0.157066,0.303731 0.159705,1.258633 0.0043,1.555271 -0.149235,0.28486 -0.597877,0.708646 -0.920248,0.869262 -0.374843,0.186759 -1.023806,0.235532 -1.476548,0.11097 z m 13.282398,-0.251513 c -0.502141,-0.135036 -0.951546,-0.496251 -1.203914,-0.967663 -0.160126,-0.299107 -0.190839,-0.461272 -0.165952,-0.876204 0.09385,-1.564713 2.043905,-2.330072 3.244391,-1.273362 0.203322,0.17897 0.430433,0.453439 0.504692,0.609929 0.170027,0.358304 0.177481,1.223252 0.01328,1.540784 -0.215063,0.415886 -0.844262,0.898318 -1.298722,0.995782 -0.504847,0.108271 -0.590896,0.105968 -1.093774,-0.02927 z M 81.55816,77.777164 c 0.0444,-0.169291 0.363846,-1.93282 0.709868,-3.918954 1.183853,-6.795191 1.078973,-6.349364 1.563112,-6.64456 0.518685,-0.316261 1.196017,-0.124003 1.393552,0.395554 0.07123,0.187348 0.254483,1.197209 1.239418,6.830111 0.187614,1.072969 0.376414,1.986608 0.419558,2.03031 0.15368,0.155667 0.316316,-0.173345 0.854034,-1.727705 0.297814,-0.860878 0.6091,-1.641187 0.691748,-1.734018 0.358757,-0.402969 0.190661,-0.394917 8.244168,-0.394917 6.632732,0 7.565472,-0.01522 7.607272,-0.124139 0.0262,-0.06828 -0.0524,-0.395148 -0.17456,-0.726381 -0.12221,-0.331233 -0.25849,-0.723113 -0.30286,-0.870845 -0.25347,-0.844048 -1.77544,-3.507188 -2.71662,-4.753537 -0.64664,-0.85631 -2.883095,-3.132846 -3.794179,-3.862175 -2.158093,-1.727567 -5.042184,-3.239988 -7.882804,-4.133753 -1.982044,-0.623625 -4.876155,-1.052973 -7.097781,-1.052973 -6.374063,0 -12.560148,2.557052 -16.901617,6.986377 -1.81492,1.851648 -2.739115,3.158122 -3.8959,5.507379 -0.801699,1.628133 -1.28447,2.863071 -1.28447,3.285707 v 0.24243 h 5.567462 c 3.16171,0 5.627879,-0.03245 5.70728,-0.07509 0.0769,-0.0413 0.750241,-1.302091 1.496312,-2.801756 0.746072,-1.499664 1.978844,-3.978114 2.739495,-5.507665 1.184908,-2.382667 1.424618,-2.808779 1.673554,-2.97493 0.382297,-0.255163 0.842394,-0.20571 1.174326,0.126222 0.277659,0.277659 0.340973,0.569498 0.780106,3.595843 0.162318,1.118627 0.441359,3.023821 0.620092,4.233765 0.178732,1.209943 0.494227,3.357956 0.701099,4.773362 0.388559,2.6585 0.531072,3.523746 0.598427,3.63326 0.0725,0.117876 0.188644,-0.0271 0.269908,-0.336919 z"
         id="path1765"
         inkscape:connector-curvature="0" />
      <path
         style="fill:#b0b0b0;stroke-width:0.08301499"
         d="m 80.983846,101.75206 c -2.519505,-0.12482 -3.950267,-0.37373 -6.499086,-1.13064 -1.964124,-0.58328 -4.370606,-1.600991 -5.538087,-2.342076 -3.59297,-2.28072 -5.912076,-4.493843 -7.931558,-7.56909 -1.272445,-1.937665 -2.302431,-4.153774 -2.816566,-6.060095 -0.08004,-0.296778 -0.1777,-0.632989 -0.21702,-0.747134 -0.117189,-0.340203 -0.332979,-1.411728 -0.409592,-2.033868 -0.03936,-0.319608 -0.110365,-0.823924 -0.157792,-1.120702 -0.109942,-0.687966 -0.110364,-3.843757 -6.16e-4,-4.607332 0.04594,-0.319608 0.11671,-0.823924 0.157273,-1.120703 0.191714,-1.402658 0.731049,-3.324279 1.386322,-4.939392 2.253807,-5.555165 6.922502,-10.262629 12.719685,-12.825307 1.689285,-0.746758 3.616181,-1.336189 5.986438,-1.831229 1.061086,-0.221614 3.148714,-0.399992 4.690347,-0.400769 1.487968,-7.49e-4 3.584582,0.182774 4.607331,0.403294 0.205462,0.0443 0.672422,0.14126 1.037688,0.215466 3.677744,0.747157 7.524786,2.575035 10.667425,5.068506 0.900969,0.714857 2.951702,2.768103 3.679002,3.683512 1.60618,2.021599 3.0219,4.579906 3.82478,6.911616 0.29684,0.862096 0.78907,2.796284 0.88186,3.465258 0.0412,0.296779 0.11304,0.782417 0.15972,1.079195 0.10597,0.673844 0.10976,4.419574 0.005,5.14693 -0.0427,0.296778 -0.11406,0.801094 -0.15866,1.120702 -0.0988,0.707667 -0.58533,2.627914 -0.88858,3.506766 -0.62112,1.800068 -1.57415,3.687411 -2.69286,5.332837 -0.97792,1.438344 -1.65164,2.251644 -2.89463,3.494302 -1.210041,1.209719 -2.010704,1.878633 -3.199638,2.673136 -0.412529,0.275672 -0.881559,0.618278 -1.042288,0.761346 -0.65588,0.583809 -3.401086,1.817037 -6.041711,2.714111 -2.7336,0.92867 -5.902516,1.32038 -9.314377,1.15136 z m 3.98472,-2.072328 c 2.743803,-0.376434 4.644699,-0.871224 6.765721,-1.76107 4.183184,-1.754998 7.639546,-4.565158 10.040193,-8.16308 1.75067,-2.62378 2.98336,-5.784141 3.28654,-8.426022 0.0393,-0.342437 0.10955,-0.88411 0.15612,-1.203718 0.10746,-0.737589 0.10937,-2.562694 0.003,-3.320599 -0.0447,-0.319608 -0.11629,-0.879959 -0.15918,-1.245225 -0.0951,-0.809704 -0.23706,-1.197142 -0.45851,-1.251057 -0.092,-0.02241 -3.44436,-0.03026 -7.449616,-0.01745 -7.181149,0.02296 -7.284609,0.02562 -7.450039,0.191067 -0.100384,0.100396 -0.536664,1.247429 -1.086307,2.856031 -0.984987,2.882694 -1.101438,3.164678 -1.451466,3.514708 -0.316772,0.316771 -0.792365,0.316293 -1.109775,-0.0011 -0.183193,-0.183193 -0.255133,-0.375982 -0.363982,-0.975426 -0.130341,-0.7178 -0.728438,-4.197728 -0.898869,-5.229916 -0.189708,-1.148941 -0.332085,-1.629098 -0.474908,-1.601593 -0.189716,0.03654 -0.249457,0.312333 -0.967301,4.465611 -0.343279,1.986133 -0.735184,4.217956 -0.870901,4.959606 -0.322282,1.76118 -0.552994,2.214423 -1.178896,2.315993 -0.227623,0.03694 -0.336959,0.0022 -0.545457,-0.173224 -0.143423,-0.120682 -0.27974,-0.283157 -0.302925,-0.361053 -0.02319,-0.0779 -0.212368,-1.299689 -0.420405,-2.715095 -0.208037,-1.415406 -0.433329,-2.928354 -0.500649,-3.362107 -0.06732,-0.433754 -0.291248,-1.946702 -0.49762,-3.362108 C 78.826963,73.3975 78.62206,72.0153 78.577995,71.741351 c -0.04407,-0.27395 -0.175409,-1.170512 -0.291875,-1.99236 -0.393762,-2.77861 -0.636447,-4.232546 -0.724112,-4.338175 -0.0703,-0.08471 -0.112289,-0.08478 -0.215785,-4.15e-4 -0.07067,0.05764 -1.126302,2.126418 -2.34584,4.597294 -1.438353,2.914211 -2.285348,4.540134 -2.410916,4.628086 -0.174923,0.122554 -0.795239,0.13562 -6.436808,0.13562 -5.564977,0 -6.257402,0.01417 -6.373682,0.130453 -0.159401,0.1594 -0.128427,0.04416 -0.221535,0.82422 -0.138617,1.161321 -0.184902,3.758261 -0.08286,4.648839 0.127059,1.108866 0.336676,2.326295 0.475761,2.76315 0.06229,0.195643 0.113252,0.40139 0.113252,0.457216 0,0.179967 0.556779,1.81924 0.904342,2.662573 0.609487,1.478868 1.553145,3.097072 2.682623,4.600218 1.117626,1.487372 3.489804,3.728429 5.088101,4.806859 3.179278,2.145176 6.836729,3.50447 10.667425,3.964555 0.570728,0.06855 1.149758,0.141055 1.286733,0.161128 0.459946,0.0674 3.562297,-0.01304 4.275272,-0.110854 z m -3.362107,-2.579231 c -0.783899,-0.117315 -2.772047,-0.641941 -3.059786,-0.807405 -0.143447,-0.08249 -0.331008,-0.292678 -0.416801,-0.467085 -0.131091,-0.266494 -0.141251,-0.366288 -0.06366,-0.625274 0.05078,-0.169493 0.180992,-0.391463 0.289359,-0.493269 0.332909,-0.312751 0.674353,-0.308346 2.010173,0.02593 2.218656,0.555205 2.297965,0.55361 4.26043,-0.08563 0.621152,-0.202331 1.253006,-0.367873 1.40412,-0.367873 0.799998,0 1.261702,0.795874 0.851745,1.468218 -0.196973,0.323043 -0.245479,0.349609 -1.322713,0.724431 -1.754976,0.610642 -2.87725,0.788926 -3.95287,0.627953 z M 74.733937,89.43245 c -1.33702,-0.367855 -1.819485,-1.887525 -0.933025,-2.938847 0.455141,-0.539787 1.361024,-0.803427 2.086665,-0.607283 0.381429,0.103102 1.052759,0.650756 1.238856,1.010627 0.157066,0.303731 0.159705,1.258633 0.0043,1.555271 -0.149235,0.28486 -0.597877,0.708646 -0.920248,0.869262 -0.374843,0.186759 -1.023806,0.235532 -1.476548,0.11097 z m 13.282398,-0.251513 c -0.502141,-0.135036 -0.951546,-0.496251 -1.203914,-0.967663 -0.160126,-0.299107 -0.190839,-0.461272 -0.165952,-0.876204 0.09385,-1.564713 2.043905,-2.330072 3.244391,-1.273362 0.203322,0.17897 0.430433,0.453439 0.504692,0.609929 0.170027,0.358304 0.177481,1.223252 0.01328,1.540784 -0.215063,0.415886 -0.844262,0.898318 -1.298722,0.995782 -0.504847,0.108271 -0.590896,0.105968 -1.093774,-0.02927 z M 81.555214,78.195744 c 0.09121,-0.356341 0.202622,-0.919941 0.38156,-1.930099 0.233541,-1.318406 0.949724,-5.431461 1.205141,-6.921145 0.139912,-0.816015 0.289771,-1.549781 0.333019,-1.630592 0.253051,-0.47283 0.914126,-0.718183 1.3322,-0.494436 0.323407,0.173082 0.399361,0.46088 0.908566,3.442661 0.03899,0.228291 0.169063,0.975426 0.289059,1.6603 0.119998,0.684874 0.328355,1.88029 0.463017,2.65648 0.269938,1.555908 0.345075,1.804577 0.524463,1.735739 0.149431,-0.05734 0.317693,-0.461955 0.920963,-2.214601 0.41369,-1.201876 0.51462,-1.417334 0.738859,-1.577285 l 0.259716,-0.185258 7.692752,-0.04151 c 4.231011,-0.02283 7.712091,-0.06086 7.735731,-0.08452 0.0236,-0.02366 -0.0684,-0.359866 -0.20456,-0.747135 -0.13615,-0.387269 -0.28474,-0.824997 -0.33022,-0.972729 -0.26509,-0.861255 -1.78115,-3.512085 -2.71863,-4.753537 -0.64664,-0.85631 -2.883095,-3.132846 -3.794179,-3.862175 -2.158093,-1.727567 -5.042184,-3.239988 -7.882804,-4.133753 -1.982044,-0.623625 -4.876155,-1.052973 -7.097781,-1.052973 -6.374063,0 -12.560148,2.557052 -16.901617,6.986377 -1.81492,1.851648 -2.739115,3.158122 -3.8959,5.507379 -0.783286,1.590739 -1.244544,2.758377 -1.297308,3.284036 l -0.02867,0.285609 5.596431,0.02134 c 4.959784,0.01891 5.618968,0.0066 5.794547,-0.108468 0.185064,-0.121258 1.886692,-3.478456 4.636274,-9.147053 0.474303,-0.977833 0.954488,-1.854967 1.078331,-1.969741 0.448807,-0.41594 1.134311,-0.322425 1.399792,0.190959 0.0662,0.128018 0.235505,1.014609 0.376232,1.970201 0.140727,0.955592 0.310933,2.09233 0.378236,2.526083 0.0673,0.433753 0.291219,1.946702 0.497591,3.362107 0.206372,1.415406 0.411385,2.797605 0.455585,3.071555 0.0442,0.273949 0.173906,1.151833 0.288237,1.950852 0.472444,3.301762 0.510026,3.48663 0.708794,3.48663 0.04229,0 0.11275,-0.140088 0.156572,-0.311306 z"
         id="path1763"
         inkscape:connector-curvature="0" />
      <path
         style="fill:#52b5fd;stroke-width:0.08301499"
         d="m 80.319726,101.66953 c -2.930625,-0.23267 -5.443929,-0.84446 -8.489756,-2.06656 -1.872545,-0.751336 -2.961848,-1.368021 -4.834149,-2.736745 -2.401365,-1.755491 -4.561241,-4.049571 -6.109883,-6.489522 -1.047001,-1.649593 -2.171066,-4.120445 -2.605177,-5.726544 -0.08022,-0.296778 -0.193144,-0.707702 -0.250951,-0.913164 -0.11037,-0.392292 -0.294029,-1.304491 -0.459633,-2.282913 -0.0541,-0.319607 -0.116754,-1.495364 -0.139242,-2.612792 -0.03258,-1.619036 -0.01298,-2.226032 0.09651,-2.98854 0.170058,-1.184278 0.360273,-2.170125 0.511828,-2.652694 0.0635,-0.202181 0.115448,-0.427358 0.115448,-0.500393 0,-0.202977 0.384456,-1.340368 0.84305,-2.494112 0.734222,-1.84718 1.909431,-3.880382 3.214888,-5.562005 0.772701,-0.995354 2.714946,-2.963538 3.745471,-3.795491 3.075566,-2.482936 6.912624,-4.325863 10.667425,-5.12353 0.365266,-0.0776 0.835649,-0.177797 1.045295,-0.222667 0.972175,-0.208069 3.208807,-0.397875 4.68274,-0.397387 1.476735,4.89e-4 3.603954,0.184268 4.599724,0.397387 0.209646,0.04487 0.680029,0.144295 1.045295,0.220946 6.055192,1.270669 11.591645,4.874899 15.124741,9.846205 1.54224,2.170028 2.81131,4.894238 3.45547,7.417544 0.0699,0.273949 0.16781,0.653485 0.21751,0.843412 0.0497,0.189928 0.12843,0.61953 0.17494,0.954673 0.0465,0.335142 0.11851,0.796133 0.15999,1.024425 0.0415,0.228291 0.0754,1.423707 0.0754,2.656479 0,1.232773 -0.0339,2.428189 -0.0754,2.65648 -0.0415,0.228291 -0.11347,0.689283 -0.15999,1.024425 -0.0465,0.335143 -0.12524,0.764745 -0.17494,0.954673 -0.0497,0.189927 -0.14798,0.569463 -0.2184,0.843412 -1.33455,5.191565 -4.69281,9.989494 -9.15712,13.082725 -0.52507,0.36381 -1.110984,0.781709 -1.302032,0.928663 -0.536666,0.412807 -1.375,0.870453 -2.081897,1.136511 -0.353264,0.13296 -1.101218,0.430332 -1.66212,0.660827 -2.235226,0.918532 -3.93664,1.386672 -6.376944,1.754582 -1.305358,0.1968 -4.198297,0.27918 -5.678095,0.16169 z m 5.14693,-1.990645 c 3.075524,-0.413474 5.628011,-1.228018 8.361594,-2.66833 3.467834,-1.827188 6.59082,-4.767146 8.58845,-8.085123 0.7946,-1.319782 1.69379,-3.335656 2.05513,-4.607333 0.0973,-0.342436 0.21127,-0.734682 0.25327,-0.871657 0.13372,-0.436186 0.33826,-1.473631 0.41736,-2.116882 0.0421,-0.342437 0.11344,-0.902788 0.15853,-1.245225 0.10209,-0.775422 0.10615,-2.425349 0.008,-3.196077 -0.0408,-0.319608 -0.11462,-0.911351 -0.16413,-1.314984 -0.10168,-0.828916 -0.2534,-1.193763 -0.52388,-1.259812 -0.1019,-0.02488 -3.46229,-0.03476 -7.467549,-0.02196 -7.181148,0.02296 -7.284608,0.02562 -7.450039,0.191067 -0.100384,0.100396 -0.536663,1.247429 -1.086306,2.856031 -0.984987,2.882694 -1.101438,3.164678 -1.451467,3.514708 -0.316772,0.316771 -0.792365,0.316293 -1.109774,-0.0011 -0.183193,-0.183193 -0.255133,-0.375982 -0.363983,-0.975426 -0.130341,-0.7178 -0.728438,-4.197728 -0.898868,-5.229916 -0.189709,-1.148941 -0.332085,-1.629098 -0.474908,-1.601593 -0.189716,0.03654 -0.249457,0.312333 -0.967301,4.465611 -0.343279,1.986133 -0.735185,4.217956 -0.870901,4.959606 -0.322283,1.76118 -0.552995,2.214423 -1.178897,2.315993 -0.227623,0.03694 -0.336958,0.0022 -0.545456,-0.173224 -0.143424,-0.120682 -0.27974,-0.283157 -0.302925,-0.361053 -0.02319,-0.0779 -0.212369,-1.299689 -0.420406,-2.715095 -0.208037,-1.415406 -0.433329,-2.928354 -0.500648,-3.362107 -0.06732,-0.433754 -0.291248,-1.946702 -0.49762,-3.362108 -0.206371,-1.415405 -0.411275,-2.797605 -0.45534,-3.071554 -0.04407,-0.27395 -0.175409,-1.170512 -0.291875,-1.99236 -0.393761,-2.77861 -0.636447,-4.232546 -0.724111,-4.338175 -0.0703,-0.08471 -0.11229,-0.08478 -0.215785,-4.15e-4 -0.07067,0.05764 -1.126302,2.126418 -2.34584,4.597294 -1.438354,2.914211 -2.285348,4.540134 -2.410917,4.628086 -0.174916,0.122516 -0.794991,0.135584 -6.433537,0.135584 -5.893332,0 -6.25025,0.0083 -6.425152,0.149956 -0.257438,0.208461 -0.372562,1.308927 -0.370776,3.544211 0.0015,1.843091 0.103201,2.952451 0.376816,4.109242 0.0918,0.388095 0.20067,0.855055 0.241942,1.037688 0.401245,1.775547 1.601549,4.398971 2.867653,6.267631 1.051494,1.551916 3.321705,3.964684 4.771554,5.071184 2.636335,2.012004 5.493654,3.377623 8.830195,4.220276 0.940837,0.237612 1.325536,0.309115 2.916426,0.542072 1.225977,0.179522 4.652968,0.160003 6.101601,-0.03475 z M 81.606459,97.0199 c -0.228292,-0.03399 -0.949084,-0.197432 -1.60176,-0.363211 -0.652678,-0.165778 -1.20239,-0.301416 -1.221583,-0.301416 -0.130266,0 -0.619633,-0.548382 -0.662162,-0.742014 -0.114352,-0.520643 0.358942,-1.084315 0.910458,-1.084315 0.11781,0 0.74539,0.134979 1.394623,0.299953 2.075252,0.527334 2.282166,0.522724 4.195855,-0.09349 0.636252,-0.204873 1.271634,-0.372497 1.411962,-0.372497 0.736023,0 1.154069,0.710812 0.785248,1.335175 -0.170288,0.288275 -0.518097,0.459082 -1.726012,0.847635 -1.617433,0.520283 -2.432435,0.631121 -3.486629,0.474176 z M 74.755693,89.35947 C 74.285085,89.195441 73.9861,88.978517 73.720035,88.608065 73.500061,88.301788 73.47099,88.193479 73.47099,87.680207 c 0,-0.505244 0.03166,-0.627796 0.242528,-0.938763 0.460312,-0.678824 1.355701,-0.989608 2.183437,-0.757856 0.568775,0.159247 1.1365,0.743518 1.25202,1.288508 0.170415,0.803969 -0.153664,1.521308 -0.867651,1.920528 -0.40405,0.225922 -1.128752,0.305176 -1.525631,0.166846 z m 13.19516,-0.267467 C 87.515505,88.95259 86.993957,88.485167 86.826464,88.0843 c -0.501043,-1.199167 0.617774,-2.570988 1.966541,-2.411246 1.80328,0.213571 2.319581,2.40449 0.770717,3.270526 -0.43212,0.241616 -1.123244,0.305216 -1.612869,0.148423 z M 81.555214,78.195744 c 0.09121,-0.356341 0.202622,-0.919941 0.38156,-1.930099 0.233541,-1.318406 0.949724,-5.431461 1.205141,-6.921145 0.139912,-0.816015 0.289771,-1.549781 0.333019,-1.630592 0.253051,-0.47283 0.914126,-0.718183 1.3322,-0.494436 0.323407,0.173082 0.399361,0.46088 0.908566,3.442661 0.03899,0.228291 0.169063,0.975426 0.289059,1.6603 0.119998,0.684874 0.328355,1.88029 0.463017,2.65648 0.269938,1.555908 0.345075,1.804577 0.524463,1.735739 0.149431,-0.05734 0.317693,-0.461955 0.920963,-2.214601 0.41369,-1.201876 0.51462,-1.417334 0.738859,-1.577285 l 0.259716,-0.185258 7.720394,-0.04299 c 4.246219,-0.02365 7.729729,-0.05166 7.741149,-0.06226 0.0666,-0.06189 -0.006,-0.397121 -0.19364,-0.899496 -0.11791,-0.314896 -0.23527,-0.647251 -0.2608,-0.738568 -0.10144,-0.362829 -0.88886,-1.957608 -1.37313,-2.781002 -1.02882,-1.749305 -1.85091,-2.794757 -3.460734,-4.401032 -1.91054,-1.906323 -3.559531,-3.076761 -6.022489,-4.274705 -2.943522,-1.431681 -5.361616,-2.10844 -8.720398,-2.440603 -4.102677,-0.405729 -8.776646,0.477992 -12.697469,2.400747 -3.795452,1.861274 -6.897761,4.593512 -9.125901,8.037285 -0.407428,0.629713 -1.452845,2.66957 -1.815424,3.542325 -0.381674,0.918717 -0.643972,1.886662 -0.543923,2.007214 0.07377,0.08889 1.147311,0.109668 5.665893,0.109668 4.992591,0 5.594825,-0.01397 5.765877,-0.133782 0.175236,-0.122741 1.988676,-3.707499 4.624662,-9.141904 0.474303,-0.977833 0.954488,-1.854967 1.078331,-1.969741 0.448807,-0.41594 1.134311,-0.322425 1.399792,0.190959 0.0662,0.128018 0.235505,1.014609 0.376232,1.970201 0.140727,0.955592 0.310933,2.09233 0.378236,2.526083 0.0673,0.433753 0.291219,1.946702 0.497591,3.362107 0.206372,1.415406 0.411385,2.797605 0.455585,3.071555 0.0442,0.273949 0.173906,1.151833 0.288237,1.950852 0.472444,3.301762 0.510026,3.48663 0.708794,3.48663 0.04229,0 0.11275,-0.140088 0.156572,-0.311306 z"
         id="path1761"
         inkscape:connector-curvature="0" />
      <path
         style="fill:#8f8f8f;stroke-width:0.08301499"
         d="m 80.319726,101.66953 c -2.930625,-0.23267 -5.443929,-0.84446 -8.489756,-2.06656 -1.872545,-0.751336 -2.961848,-1.368021 -4.834149,-2.736745 -2.401365,-1.755491 -4.561241,-4.049571 -6.109883,-6.489522 -1.047001,-1.649593 -2.171066,-4.120445 -2.605177,-5.726544 -0.08022,-0.296778 -0.193144,-0.707702 -0.250951,-0.913164 -0.11037,-0.392292 -0.294029,-1.304491 -0.459633,-2.282913 -0.0541,-0.319607 -0.116754,-1.495364 -0.139242,-2.612792 -0.03258,-1.619036 -0.01298,-2.226032 0.09651,-2.98854 0.170058,-1.184278 0.360273,-2.170125 0.511828,-2.652694 0.0635,-0.202181 0.115448,-0.427358 0.115448,-0.500393 0,-0.202977 0.384456,-1.340368 0.84305,-2.494112 0.734222,-1.84718 1.909431,-3.880382 3.214888,-5.562005 0.772701,-0.995354 2.714946,-2.963538 3.745471,-3.795491 3.075566,-2.482936 6.912624,-4.325863 10.667425,-5.12353 0.365266,-0.0776 0.835649,-0.177797 1.045295,-0.222667 0.972175,-0.208069 3.208807,-0.397875 4.68274,-0.397387 1.476735,4.89e-4 3.603954,0.184268 4.599724,0.397387 0.209646,0.04487 0.680029,0.144295 1.045295,0.220946 6.055192,1.270669 11.591645,4.874899 15.124741,9.846205 1.54224,2.170028 2.81131,4.894238 3.45547,7.417544 0.0699,0.273949 0.16781,0.653485 0.21751,0.843412 0.0497,0.189928 0.12843,0.61953 0.17494,0.954673 0.0465,0.335142 0.11851,0.796133 0.15999,1.024425 0.0415,0.228291 0.0754,1.423707 0.0754,2.656479 0,1.232773 -0.0339,2.428189 -0.0754,2.65648 -0.0415,0.228291 -0.11347,0.689283 -0.15999,1.024425 -0.0465,0.335143 -0.12524,0.764745 -0.17494,0.954673 -0.0497,0.189927 -0.14798,0.569463 -0.2184,0.843412 -1.33455,5.191565 -4.69281,9.989494 -9.15712,13.082725 -0.52507,0.36381 -1.110984,0.781709 -1.302032,0.928663 -0.536666,0.412807 -1.375,0.870453 -2.081897,1.136511 -0.353264,0.13296 -1.101218,0.430332 -1.66212,0.660827 -2.235226,0.918532 -3.93664,1.386672 -6.376944,1.754582 -1.305358,0.1968 -4.198297,0.27918 -5.678095,0.16169 z m 5.14693,-1.990645 c 3.075524,-0.413474 5.628011,-1.228018 8.361594,-2.66833 3.467834,-1.827188 6.59082,-4.767146 8.58845,-8.085123 0.7946,-1.319782 1.69379,-3.335656 2.05513,-4.607333 0.0973,-0.342436 0.21127,-0.734682 0.25327,-0.871657 0.13372,-0.436186 0.33826,-1.473631 0.41736,-2.116882 0.0421,-0.342437 0.11344,-0.902788 0.15853,-1.245225 0.10209,-0.775422 0.10615,-2.425349 0.008,-3.196077 -0.0408,-0.319608 -0.11462,-0.911351 -0.16413,-1.314984 -0.0495,-0.403633 -0.14603,-0.842183 -0.21449,-0.974556 -0.0684,-0.132373 -0.1237,-0.269087 -0.12277,-0.303809 9.3e-4,-0.03472 -3.37471,-0.07267 -7.501434,-0.08432 -7.05006,-0.01991 -7.513809,-0.01239 -7.680029,0.124522 -0.123866,0.102029 -0.465467,0.991906 -1.139422,2.968224 -0.532465,1.56141 -1.061844,2.970874 -1.184823,3.154569 -0.420109,0.627526 -0.994319,0.681367 -1.268267,0.118919 -0.130024,-0.266954 -0.189663,-0.558519 -0.525249,-2.567861 -0.594049,-3.556906 -0.917595,-5.225991 -1.03599,-5.344386 -0.15103,-0.151031 -0.366496,0.05837 -0.46857,0.455378 -0.05157,0.20058 -0.157013,0.738258 -0.234316,1.194841 -0.0773,0.456582 -0.190787,1.110325 -0.252186,1.452762 -0.180249,1.005277 -0.351295,1.978786 -0.495919,2.82251 -0.07435,0.433753 -0.18642,1.087496 -0.249045,1.452762 -0.652457,3.80554 -0.784214,4.297906 -1.211276,4.526463 -0.426812,0.228423 -0.943034,-0.07119 -1.024701,-0.594729 -0.114539,-0.734271 -0.309844,-2.022283 -0.423097,-2.790277 -0.06901,-0.467998 -0.182194,-1.233811 -0.251512,-1.701808 -0.158186,-1.067975 -0.334649,-2.264019 -0.49604,-3.362107 -0.06878,-0.467997 -0.178925,-1.215132 -0.244758,-1.6603 -0.06583,-0.445168 -0.17964,-1.22032 -0.252904,-1.722561 -0.07326,-0.502241 -0.187507,-1.277393 -0.253871,-1.722561 -0.126011,-0.845265 -0.266599,-1.801308 -0.491353,-3.341354 -0.366672,-2.512484 -0.463327,-2.814031 -0.795512,-2.481846 -0.08853,0.08853 -1.183398,2.215802 -2.433035,4.727266 -1.884713,3.78781 -2.310055,4.583605 -2.494891,4.667822 -0.169282,0.07713 -1.713259,0.101525 -6.425459,0.101525 h -6.202635 l -0.132341,0.311307 c -0.192944,0.453861 -0.27583,1.493065 -0.276437,3.465875 -5.65e-4,1.840859 0.100576,2.949512 0.374887,4.109243 0.0918,0.388095 0.200669,0.855054 0.241942,1.037687 0.401244,1.775547 1.601549,4.398971 2.867652,6.267632 1.051494,1.551916 3.321705,3.964684 4.771554,5.071183 2.636335,2.012004 5.493654,3.377623 8.830195,4.220277 0.940837,0.237611 1.325536,0.309114 2.916426,0.542072 1.225977,0.179521 4.652968,0.160003 6.101602,-0.03475 z M 81.606459,97.0199 c -0.228292,-0.03399 -0.949084,-0.197432 -1.60176,-0.363211 -0.652678,-0.165778 -1.20239,-0.301416 -1.221583,-0.301416 -0.130266,0 -0.619633,-0.548382 -0.662162,-0.742014 -0.114352,-0.520643 0.358942,-1.084315 0.910458,-1.084315 0.11781,0 0.74539,0.134979 1.394623,0.299953 2.075252,0.527334 2.282166,0.522724 4.195855,-0.09349 0.636252,-0.204873 1.271634,-0.372497 1.411962,-0.372497 0.736023,0 1.154069,0.710812 0.785248,1.335175 -0.170288,0.288275 -0.518097,0.459082 -1.726012,0.847635 -1.617433,0.520283 -2.432435,0.631121 -3.486629,0.474176 z M 74.755693,89.35947 C 74.285085,89.195441 73.9861,88.978517 73.720035,88.608065 73.500061,88.301788 73.47099,88.193479 73.47099,87.680207 c 0,-0.505244 0.03166,-0.627796 0.242528,-0.938763 0.460312,-0.678824 1.355701,-0.989608 2.183437,-0.757856 0.568775,0.159247 1.1365,0.743518 1.25202,1.288508 0.170415,0.803969 -0.153664,1.521308 -0.867651,1.920528 -0.40405,0.225922 -1.128752,0.305176 -1.525631,0.166846 z m 13.19516,-0.267467 C 87.515505,88.95259 86.993957,88.485167 86.826464,88.0843 c -0.501043,-1.199167 0.617774,-2.570988 1.966541,-2.411246 1.80328,0.213571 2.319581,2.40449 0.770717,3.270526 -0.43212,0.241616 -1.123244,0.305216 -1.612869,0.148423 z M 81.59874,78.776849 c 0.02474,-0.0799 0.120824,-0.556201 0.213527,-1.058441 0.222861,-1.207401 0.220542,-1.194337 0.500919,-2.82251 0.199077,-1.156056 0.493594,-2.813646 0.781747,-4.399795 0.02488,-0.136975 0.121644,-0.716004 0.21502,-1.286732 0.09338,-0.570728 0.208615,-1.158513 0.256084,-1.306188 0.11701,-0.364014 0.441394,-0.603157 0.818148,-0.603157 0.424844,0 0.649666,0.261174 0.756984,0.879384 0.04682,0.2697 0.136469,0.789217 0.199222,1.154483 0.06276,0.365266 0.193916,1.112401 0.291472,1.6603 0.234308,1.315946 0.553041,3.140196 0.710714,4.067735 0.264509,1.556027 0.327191,1.808305 0.471918,1.89937 0.262112,0.164925 0.453531,-0.185751 1.059445,-1.940878 0.63245,-1.831995 0.755257,-2.03711 1.294563,-2.162203 0.180758,-0.04193 3.623166,-0.07612 7.774974,-0.07722 l 7.450593,-0.002 v -0.236858 c 0,-0.130272 -0.0965,-0.4945 -0.21439,-0.809396 -0.11791,-0.314896 -0.23527,-0.647251 -0.2608,-0.738568 -0.10144,-0.362829 -0.88886,-1.957608 -1.37313,-2.781002 -1.02882,-1.749305 -1.85091,-2.794757 -3.460734,-4.401032 -1.91054,-1.906323 -3.559531,-3.076761 -6.022489,-4.274705 -2.943522,-1.431681 -5.361616,-2.10844 -8.720398,-2.440603 -4.102677,-0.405729 -8.776646,0.477992 -12.697469,2.400747 -3.795452,1.861274 -6.897761,4.593512 -9.125901,8.037285 -0.407686,0.63011 -1.453386,2.670656 -1.815304,3.542325 -0.257683,0.620621 -0.555074,1.573302 -0.602503,1.930099 l -0.03587,0.269798 h 5.753166 c 4.47481,0 5.783322,-0.02306 5.888878,-0.103768 0.137105,-0.104834 0.558683,-0.936924 3.75792,-7.4172 1.800443,-3.646922 1.977156,-3.935101 2.413023,-3.935101 0.263238,0 0.563222,0.146555 0.678798,0.331621 0.101261,0.162146 0.220812,0.841083 0.568841,3.230492 0.116985,0.803162 0.263155,1.796505 0.324824,2.207429 0.29091,1.938468 0.381762,2.553381 0.496743,3.362108 0.06816,0.479411 0.177182,1.226546 0.24227,1.660299 0.360349,2.401424 0.449161,3.009849 0.708889,4.856378 0.100564,0.714961 0.223982,1.183372 0.355436,1.348993 0.11814,0.148848 0.292426,0.127872 0.344865,-0.04151 z"
         id="path1759"
         inkscape:connector-curvature="0" />
      <path
         style="fill:#0896fd;stroke-width:0.08301499"
         d="m 79.889089,101.58626 c -2.638026,-0.25414 -5.332196,-0.92964 -7.808075,-1.957708 -1.844529,-0.765909 -2.739788,-1.199421 -3.285402,-1.590895 -0.305012,-0.218843 -0.722672,-0.506095 -0.928134,-0.638336 -1.609395,-1.035856 -4.166165,-3.36545 -5.428048,-4.945752 -1.690421,-2.116976 -3.104793,-4.727163 -3.891029,-7.180797 -0.806823,-2.517879 -1.059822,-4.150949 -1.058623,-6.833253 9.45e-4,-2.117399 0.202553,-3.839997 0.623624,-5.328444 0.05812,-0.205462 0.189981,-0.672421 0.293015,-1.037687 0.273253,-0.968703 1.010951,-2.76517 1.582134,-3.852865 2.8246,-5.378846 7.830572,-9.584551 13.874753,-11.656703 1.564733,-0.536444 2.915422,-0.843505 5.377227,-1.222441 0.945874,-0.145595 4.208748,-0.197274 5.229945,-0.08284 0.479411,0.05372 1.151833,0.128723 1.494269,0.166665 0.342437,0.03794 0.828075,0.112672 1.079195,0.166069 0.251121,0.0534 0.736758,0.155833 1.079195,0.227636 1.780489,0.373338 4.013947,1.160193 5.806013,2.045479 1.62483,0.802671 3.104231,1.750358 4.713871,3.01965 0.850138,0.670383 3.168601,3.033694 3.810321,3.884026 2.11091,2.797131 3.4132,5.524345 4.16233,8.716574 0.42983,1.83165 0.46154,2.128178 0.49719,4.64884 0.0277,1.957151 0.008,2.578232 -0.10436,3.320599 -0.96978,6.399008 -4.36366,11.826709 -9.76453,15.61607 -0.564781,0.396262 -1.131141,0.807327 -1.258579,0.913477 -0.270082,0.224967 -1.499446,0.899616 -1.802162,0.988988 -0.114145,0.0337 -0.767888,0.294031 -1.452762,0.578515 -2.439425,1.013283 -4.299729,1.533133 -6.848737,1.913823 -1.013868,0.15141 -4.86986,0.22947 -5.992641,0.1213 z m 5.120984,-1.787127 c 0.365266,-0.066 0.81116,-0.120728 0.990876,-0.121627 0.179716,-8.96e-4 0.571962,-0.05802 0.871657,-0.126936 0.299696,-0.06892 0.806399,-0.184979 1.126007,-0.257917 1.77798,-0.405754 4.040803,-1.262693 5.852556,-2.216382 3.174242,-1.670888 6.023657,-4.232359 8.005111,-7.196167 1.40207,-2.097177 2.38635,-4.24068 2.8971,-6.309139 0.52872,-2.141204 0.59385,-2.702565 0.59235,-5.105423 -0.001,-2.238474 -0.11725,-3.438382 -0.38272,-3.963965 l -0.15724,-0.311307 h -7.501969 c -7.022207,0 -7.513252,0.0093 -7.678335,0.145277 -0.123171,0.101461 -0.46666,0.996551 -1.138881,2.967786 -0.532466,1.56141 -1.061845,2.970874 -1.184823,3.154569 -0.420109,0.627526 -0.99432,0.681367 -1.268268,0.118919 -0.130024,-0.266954 -0.189662,-0.558519 -0.525249,-2.567861 -0.594049,-3.556906 -0.917595,-5.225991 -1.035989,-5.344386 -0.151031,-0.151031 -0.366497,0.05837 -0.468571,0.455378 -0.05157,0.20058 -0.157013,0.738258 -0.234316,1.194841 -0.0773,0.456582 -0.190786,1.110325 -0.252186,1.452762 -0.180249,1.005277 -0.351295,1.978786 -0.495919,2.82251 -0.07435,0.433753 -0.18642,1.087496 -0.249045,1.452762 -0.652457,3.80554 -0.784214,4.297906 -1.211276,4.526463 -0.426812,0.228423 -0.943033,-0.07119 -1.024701,-0.594729 -0.114539,-0.734271 -0.309844,-2.022283 -0.423097,-2.790277 -0.06901,-0.467998 -0.182194,-1.233811 -0.251512,-1.701808 -0.158186,-1.067975 -0.334648,-2.264019 -0.496039,-3.362107 -0.06879,-0.467997 -0.178926,-1.215132 -0.244758,-1.6603 -0.06583,-0.445168 -0.179641,-1.22032 -0.252905,-1.722561 -0.07326,-0.502241 -0.187507,-1.277393 -0.253871,-1.722561 -0.12601,-0.845265 -0.266599,-1.801308 -0.491353,-3.341354 -0.366672,-2.512484 -0.463327,-2.814031 -0.795512,-2.481846 -0.08853,0.08853 -1.183398,2.215802 -2.433035,4.727266 -1.884713,3.78781 -2.310055,4.583605 -2.494891,4.667822 -0.169299,0.07714 -1.716999,0.101525 -6.443128,0.101525 h -6.220304 l -0.120981,0.186784 c -0.423204,0.65339 -0.456136,5.699154 -0.04754,7.284566 0.04118,0.159804 0.173145,0.701476 0.293245,1.203717 0.632911,2.64675 1.804496,5.075701 3.643627,7.554028 0.633374,0.853506 3.197437,3.419545 4.119365,4.122539 2.6381,2.011622 5.812877,3.501263 9.085024,4.262798 0.319608,0.07438 0.714959,0.169709 0.878559,0.211836 0.1636,0.04213 0.649238,0.116986 1.079195,0.166352 0.429957,0.04937 0.968525,0.119458 1.196816,0.155756 0.758966,0.120678 4.418893,0.09394 5.146929,-0.0376 z m -3.362107,-2.838401 c -0.435834,-0.07571 -2.543436,-0.596676 -2.781002,-0.687419 -0.765191,-0.292284 -0.932775,-1.204725 -0.282982,-1.540747 0.341716,-0.176708 0.538349,-0.155517 2.058023,0.221797 1.799352,0.446754 2.276227,0.431304 3.907013,-0.126579 1.35295,-0.462836 1.736971,-0.488458 2.086233,-0.139196 0.326158,0.326159 0.331627,0.737627 0.01437,1.080993 -0.246297,0.266565 -1.60665,0.779779 -2.884771,1.088327 -0.615115,0.148492 -1.583267,0.195518 -2.116882,0.102824 z M 74.63479,89.249354 c -0.6638,-0.242972 -1.122293,-0.884018 -1.122293,-1.569147 0,-1.541811 2.000144,-2.277328 3.128633,-1.150498 1.323311,1.321367 -0.196844,3.381976 -2.00634,2.719645 z m 13.291165,-0.238343 c -0.390573,-0.13922 -0.860885,-0.571303 -1.016436,-0.933817 -0.06304,-0.146923 -0.114624,-0.440131 -0.114624,-0.651574 0,-1.536501 2.002571,-2.269364 3.128633,-1.144956 1.316832,1.314897 -0.190098,3.37462 -1.997573,2.730347 z M 81.59874,78.776849 c 0.02474,-0.0799 0.120824,-0.556201 0.213527,-1.058441 0.222861,-1.207401 0.220542,-1.194337 0.500919,-2.82251 0.199077,-1.156056 0.493594,-2.813646 0.781747,-4.399795 0.02488,-0.136975 0.121644,-0.716004 0.21502,-1.286732 0.09338,-0.570728 0.208615,-1.158513 0.256084,-1.306188 0.11701,-0.364014 0.441394,-0.603157 0.818148,-0.603157 0.424844,0 0.649666,0.261174 0.756984,0.879384 0.04682,0.2697 0.136469,0.789217 0.199222,1.154483 0.06276,0.365266 0.193916,1.112401 0.291472,1.6603 0.234308,1.315946 0.553041,3.140196 0.710714,4.067735 0.264509,1.556027 0.327191,1.808305 0.471918,1.89937 0.262112,0.164925 0.453531,-0.185751 1.059445,-1.940878 0.63245,-1.831995 0.755257,-2.03711 1.294563,-2.162203 0.180756,-0.04193 3.62253,-0.07612 7.773393,-0.07722 l 7.449014,-0.002 0.0478,-0.190629 c 0.0514,-0.204735 -0.0607,-0.583169 -0.5216,-1.760223 -0.64934,-1.658484 -1.6026,-3.295365 -2.97391,-5.1066 -0.55669,-0.735279 -2.924805,-3.098536 -3.688456,-3.680887 -2.242918,-1.71042 -5.097869,-3.205913 -7.613451,-3.98811 -2.064464,-0.641927 -5.270803,-1.134057 -7.368111,-1.130906 -1.397085,0.0021 -3.760029,0.281601 -5.398618,0.638581 -1.640861,0.357474 -3.627979,1.066722 -5.310668,1.895498 -1.427891,0.70328 -1.771762,0.907575 -3.073028,1.8257 -1.521248,1.073336 -1.849298,1.345864 -2.992875,2.486339 -1.881156,1.876054 -2.968974,3.399815 -4.151461,5.81516 -0.797108,1.628172 -1.407861,3.263948 -1.32093,3.537842 0.04796,0.151108 0.241471,0.156325 5.797697,0.156325 4.470741,0 5.778238,-0.02306 5.883792,-0.103768 0.137105,-0.104834 0.558683,-0.936924 3.75792,-7.4172 1.800443,-3.646922 1.977156,-3.935101 2.413023,-3.935101 0.263238,0 0.563222,0.146555 0.678798,0.331621 0.101261,0.162146 0.220812,0.841083 0.568841,3.230492 0.116985,0.803162 0.263155,1.796505 0.324824,2.207429 0.29091,1.938468 0.381762,2.553381 0.496743,3.362108 0.06816,0.479411 0.177182,1.226546 0.24227,1.660299 0.360349,2.401424 0.449161,3.009849 0.708889,4.856378 0.100564,0.714961 0.223982,1.183372 0.355436,1.348993 0.11814,0.148848 0.292426,0.127872 0.344865,-0.04151 z"
         id="path1757"
         inkscape:connector-curvature="0" />
      <path
         style="fill:#6f6f6f;stroke-width:0.08301499"
         d="m 79.889089,101.58626 c -2.638026,-0.25414 -5.332196,-0.92964 -7.808075,-1.957708 -1.844529,-0.765909 -2.739788,-1.199421 -3.285402,-1.590895 -0.305012,-0.218843 -0.722672,-0.506095 -0.928134,-0.638336 -1.609395,-1.035856 -4.166165,-3.36545 -5.428048,-4.945752 -1.690421,-2.116976 -3.104793,-4.727163 -3.891029,-7.180797 -0.806823,-2.517879 -1.059822,-4.150949 -1.058623,-6.833253 9.45e-4,-2.117399 0.202553,-3.839997 0.623624,-5.328444 0.05812,-0.205462 0.189981,-0.672421 0.293015,-1.037687 0.273253,-0.968703 1.010951,-2.76517 1.582134,-3.852865 2.8246,-5.378846 7.830572,-9.584551 13.874753,-11.656703 1.564733,-0.536444 2.915422,-0.843505 5.377227,-1.222441 0.945874,-0.145595 4.208748,-0.197274 5.229945,-0.08284 0.479411,0.05372 1.151833,0.128723 1.494269,0.166665 0.342437,0.03794 0.828075,0.112672 1.079195,0.166069 0.251121,0.0534 0.736758,0.155833 1.079195,0.227636 1.780489,0.373338 4.013947,1.160193 5.806013,2.045479 1.62483,0.802671 3.104231,1.750358 4.713871,3.01965 0.850138,0.670383 3.168601,3.033694 3.810321,3.884026 2.11091,2.797131 3.4132,5.524345 4.16233,8.716574 0.42983,1.83165 0.46154,2.128178 0.49719,4.64884 0.0277,1.957151 0.008,2.578232 -0.10436,3.320599 -0.96978,6.399008 -4.36366,11.826709 -9.76453,15.61607 -0.564781,0.396262 -1.131141,0.807327 -1.258579,0.913477 -0.270082,0.224967 -1.499446,0.899616 -1.802162,0.988988 -0.114145,0.0337 -0.767888,0.294031 -1.452762,0.578515 -2.439425,1.013283 -4.299729,1.533133 -6.848737,1.913823 -1.013868,0.15141 -4.86986,0.22947 -5.992641,0.1213 z m 5.120984,-1.787127 c 0.365266,-0.066 0.81116,-0.120728 0.990876,-0.121627 0.179716,-8.96e-4 0.571962,-0.05802 0.871657,-0.126936 0.299696,-0.06892 0.806399,-0.184979 1.126007,-0.257917 1.77798,-0.405754 4.040803,-1.262693 5.852556,-2.216382 3.174242,-1.670888 6.023657,-4.232359 8.005111,-7.196167 1.40207,-2.097177 2.38635,-4.24068 2.8971,-6.309139 0.52841,-2.139971 0.59376,-2.702737 0.59288,-5.105423 -7.5e-4,-2.076757 -0.1018,-3.283375 -0.3232,-3.860197 -0.0613,-0.159804 -0.15663,-0.533336 -0.21175,-0.830072 -0.0551,-0.296737 -0.15679,-0.670304 -0.22592,-0.83015 -0.0691,-0.159847 -0.13428,-0.4027 -0.14477,-0.539675 -0.0465,-0.607498 -0.9294,-2.658063 -1.76924,-4.109242 -1.04411,-1.804141 -1.80651,-2.78262 -3.464884,-4.446897 -1.966024,-1.97303 -3.558907,-3.117254 -6.060362,-4.353373 -2.88471,-1.425508 -5.153635,-2.065126 -8.675658,-2.4457 -1.995894,-0.215668 -3.790387,-0.142216 -6.226124,0.254846 -2.346406,0.382499 -4.494613,1.074081 -6.680416,2.150657 -1.427891,0.70328 -1.771762,0.907575 -3.073028,1.8257 -1.521248,1.073336 -1.849298,1.345864 -2.992875,2.486339 -1.223392,1.220074 -1.833827,1.954291 -2.748476,3.305804 -1.037019,1.532328 -2.611141,4.932324 -2.737574,5.912971 -0.01766,0.136975 -0.12824,0.641291 -0.245733,1.120702 -0.264007,1.077237 -0.323513,1.400567 -0.450708,2.448943 -0.163408,1.346861 -0.02776,4.424285 0.245171,5.562004 0.04381,0.182633 0.178332,0.742984 0.298933,1.245225 0.637239,2.653771 1.80633,5.076942 3.644539,7.554028 0.633374,0.853506 3.197437,3.419545 4.119365,4.122539 2.6381,2.011622 5.812877,3.501263 9.085024,4.262798 0.319608,0.07438 0.714959,0.169709 0.878559,0.211836 0.1636,0.04213 0.649238,0.116986 1.079195,0.166352 0.429957,0.04937 0.968525,0.119458 1.196816,0.155756 0.758966,0.120678 4.418893,0.09394 5.146929,-0.0376 z m -3.362107,-2.838401 c -0.435834,-0.07571 -2.543436,-0.596676 -2.781002,-0.687419 -0.765191,-0.292284 -0.932775,-1.204725 -0.282982,-1.540747 0.341716,-0.176708 0.538349,-0.155517 2.058023,0.221797 1.799352,0.446754 2.276227,0.431304 3.907013,-0.126579 1.35295,-0.462836 1.736971,-0.488458 2.086233,-0.139196 0.326158,0.326159 0.331627,0.737627 0.01437,1.080993 -0.246297,0.266565 -1.60665,0.779779 -2.884771,1.088327 -0.615115,0.148492 -1.583267,0.195518 -2.116882,0.102824 z M 74.63479,89.249354 c -0.6638,-0.242972 -1.122293,-0.884018 -1.122293,-1.569147 0,-1.541811 2.000144,-2.277328 3.128633,-1.150498 1.323311,1.321367 -0.196844,3.381976 -2.00634,2.719645 z m 13.291165,-0.238343 c -0.390573,-0.13922 -0.860885,-0.571303 -1.016436,-0.933817 -0.06304,-0.146923 -0.114624,-0.440131 -0.114624,-0.651574 0,-1.536501 2.002571,-2.269364 3.128633,-1.144956 1.316832,1.314897 -0.190098,3.37462 -1.997573,2.730347 z"
         id="path1755"
         inkscape:connector-curvature="0" />
      <path
         style="fill:#4e4e4e;stroke-width:0.08301499"
         d="m 79.363272,101.45769 c -2.375869,-0.25963 -5.005534,-0.93765 -6.971477,-1.797499 -0.410924,-0.179728 -1.068444,-0.451841 -1.461157,-0.604696 -0.902314,-0.351208 -1.641514,-0.723337 -1.950841,-0.982097 -0.132363,-0.110725 -0.464802,-0.343292 -0.738751,-0.516815 -3.551423,-2.249518 -6.624546,-5.669597 -8.426888,-9.378286 -1.148704,-2.363695 -1.736956,-4.285653 -2.121596,-6.931752 -0.191048,-1.314302 -0.190541,-4.253635 9.59e-4,-5.562005 0.294674,-2.013267 0.769015,-3.821801 1.419025,-5.410355 3.718342,-9.087222 12.875674,-15.013264 23.19954,-15.013264 5.893689,0 11.30966,1.835859 15.938878,5.402824 0.967196,0.745257 2.777686,2.503272 3.671136,3.564726 2.26811,2.694608 4.02359,6.289706 4.74271,9.712754 0.32873,1.56477 0.38574,2.2334 0.38574,4.524317 0,2.292602 -0.0577,2.968081 -0.38647,4.524318 -0.2575,1.218866 -0.70731,2.65834 -1.20623,3.860197 -1.65356,3.983213 -4.57576,7.590452 -8.204924,10.128377 -0.569706,0.398403 -1.129222,0.809501 -1.243367,0.913552 -0.228649,0.208425 -1.497976,0.901906 -1.82633,0.997792 -0.114145,0.03333 -0.717152,0.277929 -1.340014,0.543547 -2.640724,1.126125 -4.871517,1.718655 -7.625604,2.025455 -1.374375,0.1531 -4.448561,0.15253 -5.854339,-0.001 z m 5.314741,-1.539538 c 0.319608,-0.04639 0.879959,-0.117858 1.245225,-0.158816 0.858059,-0.09622 1.892658,-0.322694 3.403614,-0.745068 1.935562,-0.54107 4.563489,-1.746573 6.226124,-2.856095 2.812165,-1.876637 4.650634,-3.678638 6.379604,-6.253047 1.83064,-2.725808 2.82406,-5.291492 3.38472,-8.741596 0.16643,-1.024144 0.18969,-4.295443 0.0358,-5.039395 -0.0709,-0.342861 -0.12892,-0.748735 -0.12892,-0.901943 0,-0.153207 -0.0718,-0.476083 -0.15963,-0.717502 -0.20128,-0.553441 -0.46765,-1.569903 -0.53925,-2.057735 -0.0626,-0.4265 -0.50736,-1.655968 -0.93082,-2.573116 -0.5764,-1.248391 -1.47312,-2.699715 -2.56555,-4.152276 -0.49597,-0.659472 -2.966338,-3.146803 -3.649664,-3.674724 -1.754214,-1.355264 -4.36367,-2.832 -6.309139,-3.570451 -1.691426,-0.642022 -4.163974,-1.251761 -5.645019,-1.39208 -3.132344,-0.296768 -3.19785,-0.296777 -6.184617,-8.46e-4 -1.623133,0.160821 -3.789039,0.697687 -5.664968,1.404184 -0.929935,0.350224 -3.059409,1.374138 -3.743317,1.799897 -0.46934,0.292182 -2.080638,1.422435 -2.76705,1.940961 -0.623011,0.470632 -2.791393,2.642448 -3.270499,3.275681 -1.697964,2.244189 -2.961078,4.586996 -3.689244,6.84276 -0.122261,0.378747 -0.203311,0.738096 -0.180112,0.798552 0.03979,0.10369 -0.236327,1.290798 -0.426446,1.833416 -0.32972,0.94105 -0.444277,3.925714 -0.21826,5.686527 0.508531,3.961776 1.795739,7.117656 4.238012,10.390442 0.564822,0.756894 3.2698,3.436483 4.099786,4.061306 2.425964,1.826292 4.827484,3.038886 7.678887,3.877282 1.599019,0.470159 2.376255,0.642296 3.52429,0.780536 0.390211,0.04699 0.914936,0.113125 1.166056,0.146974 0.697909,0.09407 4.034641,0.09135 4.690347,-0.0038 z m -3.071554,-3.021529 c -0.04566,-0.01466 -0.512618,-0.126694 -1.037688,-0.248972 -1.425551,-0.331981 -1.966861,-0.524326 -2.15744,-0.766607 -0.242015,-0.307673 -0.214276,-0.653454 0.07568,-0.943411 0.322654,-0.322654 0.554914,-0.315006 2.017381,0.06643 0.993194,0.259041 1.319499,0.308696 2.015231,0.306661 0.764256,-0.0022 0.922935,-0.03336 1.999087,-0.392104 1.351925,-0.450677 1.770139,-0.488194 2.072421,-0.185912 0.266304,0.266304 0.273768,0.703718 0.01698,0.995115 -0.123539,0.140188 -0.481929,0.312751 -1.058442,0.509634 -1.578836,0.539184 -2.297986,0.69908 -3.113062,0.692158 -0.410924,-0.0035 -0.784491,-0.01834 -0.830149,-0.03299 z M 74.544312,89.141867 C 73.850446,88.82672 73.4334,88.01987 73.608271,87.330932 c 0.378645,-1.491745 2.55413,-1.727574 3.287296,-0.356353 0.261118,0.488363 0.228775,1.089351 -0.08406,1.562085 -0.441884,0.667733 -1.504808,0.951469 -2.26719,0.605203 z M 87.82671,88.892822 c -0.185863,-0.08442 -0.453399,-0.293567 -0.594527,-0.464778 -0.546015,-0.662412 -0.510035,-1.451848 0.09479,-2.079758 0.687672,-0.71392 1.835591,-0.722181 2.539496,-0.01828 0.384212,0.384212 0.53228,0.781692 0.476277,1.278544 -0.122127,1.083502 -1.457419,1.76508 -2.516035,1.284267 z"
         id="path1753"
         inkscape:connector-curvature="0" />
      <path
         style="fill:#2e2e2e;stroke-width:0.08301499"
         d="m 79.323546,101.37422 c -2.519255,-0.28283 -5.051265,-0.95445 -7.084675,-1.879207 -0.495033,-0.225132 -1.167454,-0.505265 -1.49427,-0.622517 -0.838654,-0.300886 -1.04487,-0.41545 -2.388301,-1.326827 -2.232671,-1.514635 -3.492294,-2.582578 -4.880035,-4.137428 -1.081399,-1.211619 -1.456712,-1.700412 -2.324684,-3.027572 -1.847618,-2.825074 -2.941166,-5.83572 -3.423297,-9.424677 -0.143997,-1.071911 -0.143997,-3.908988 0,-4.980899 0.284643,-2.118863 0.707443,-3.768332 1.436322,-5.603512 2.691941,-6.777805 8.749464,-12.061504 16.174221,-14.108029 3.885433,-1.070963 8.245608,-1.218526 12.2394,-0.414223 6.195939,1.24779 11.730407,4.775955 15.289943,9.747177 1.83074,2.556811 3.00964,5.214366 3.75698,8.469242 0.63637,2.771624 0.51021,7.174847 -0.28597,9.98074 -0.99555,3.508474 -2.51197,6.328439 -4.85893,9.035726 -1.27207,1.467367 -2.86192,2.88598 -4.433004,3.955529 -0.410924,0.279746 -0.877883,0.624056 -1.037687,0.765134 -0.291557,0.257393 -1.437911,0.88669 -1.82633,1.002573 -0.114145,0.03406 -0.72216,0.281384 -1.351142,0.549619 -2.686785,1.145811 -5.173404,1.794001 -7.898693,2.058971 -1.203879,0.11704 -4.415692,0.0943 -5.609848,-0.0398 z m 5.229945,-1.3684 c 0.342436,-0.0419 0.921466,-0.111143 1.286732,-0.153874 2.370601,-0.277324 5.245404,-1.199235 7.761265,-2.488934 1.760079,-0.902265 3.126276,-1.842099 4.917714,-3.382993 2.255028,-1.939652 4.511018,-5.191789 5.665848,-8.16765 0.54337,-1.400184 1.11904,-3.55392 1.1251,-4.209318 0.002,-0.173249 0.0563,-0.557818 0.12161,-0.854596 0.16724,-0.760325 0.16629,-3.815451 -10e-4,-4.607302 -0.0677,-0.31959 -0.12473,-0.730514 -0.12673,-0.913165 -0.002,-0.182649 -0.0612,-0.481517 -0.13152,-0.66415 -0.0703,-0.182633 -0.22251,-0.724306 -0.33817,-1.203718 -0.51315,-2.127098 -0.97071,-3.288717 -1.99466,-5.063914 -1.07527,-1.864157 -1.71305,-2.689507 -3.421776,-4.428112 -2.039727,-2.075394 -3.634294,-3.2338 -6.188907,-4.496057 -2.032348,-1.004202 -3.632548,-1.567837 -5.645019,-1.988334 -0.365266,-0.07632 -0.832226,-0.17644 -1.037688,-0.222487 -1.642654,-0.368139 -6.824874,-0.368139 -8.467528,0 -0.205462,0.04605 -0.672422,0.14694 -1.037688,0.224208 -2.928641,0.619516 -6.606941,2.224133 -8.71692,3.802658 -1.323751,0.990329 -1.849144,1.433753 -2.810523,2.372042 -1.932715,1.886294 -3.167996,3.606469 -4.36073,6.072476 -0.770676,1.593394 -1.335337,3.125204 -1.340394,3.636217 -0.0036,0.366252 -0.186348,1.152804 -0.330289,1.421761 -0.05841,0.109131 -0.137076,0.480148 -0.174824,0.824483 -0.03775,0.344334 -0.106229,0.868881 -0.152179,1.165659 -0.123728,0.799112 -0.101034,3.002696 0.0389,3.777182 0.066,0.365266 0.120728,0.80587 0.121626,0.979119 8.99e-4,0.17325 0.05964,0.565496 0.130526,0.871657 0.859134,3.710415 1.925924,6.016811 4.138796,8.948056 0.70324,0.931537 2.943212,3.121152 4.046276,3.955313 1.92992,1.459447 4.121615,2.650539 6.296673,3.421971 0.626157,0.22208 2.104665,0.675288 2.407435,0.737953 0.114146,0.02362 0.53029,0.117818 0.924764,0.209319 0.667418,0.154811 1.499234,0.280377 2.81091,0.42432 0.799437,0.0877 3.766368,0.0879 4.48281,2.5e-4 z m -3.030047,-3.210035 c -1.153376,-0.266194 -2.594172,-0.638447 -2.755378,-0.711898 -0.225972,-0.10296 -0.440699,-0.45594 -0.440699,-0.724444 0,-0.279429 0.363464,-0.581454 0.699735,-0.581454 0.160715,0 0.825495,0.138214 1.47729,0.307143 0.989129,0.256357 1.322347,0.30679 2.015231,0.305012 0.763442,-0.002 0.924083,-0.03331 1.999087,-0.390158 1.292772,-0.429134 1.767963,-0.481174 2.02714,-0.221997 0.196557,0.196557 0.219276,0.634173 0.04578,0.881869 -0.132527,0.189208 -1.335683,0.640684 -2.619247,0.982852 -0.752019,0.200472 -1.925709,0.273834 -2.448942,0.153075 z m -6.997855,-7.756473 c -0.655729,-0.324578 -1.03774,-1.104236 -0.841442,-1.717322 0.419757,-1.311001 2.132835,-1.600374 3.001749,-0.507056 1.012633,1.274154 -0.64073,2.976552 -2.160307,2.224378 z m 13.282398,-0.249045 c -0.972849,-0.481549 -1.176236,-1.652543 -0.418616,-2.410164 0.709264,-0.709263 1.937928,-0.62075 2.578923,0.185786 1.016278,1.278741 -0.63526,2.97926 -2.160307,2.224378 z"
         id="path1751"
         inkscape:connector-curvature="0" />
      <path
         style="fill:#040404;stroke-width:0.08301499"
         d="m 79.614099,101.28658 c -2.833476,-0.32258 -5.766386,-1.09998 -7.483655,-1.983622 -0.393206,-0.202328 -0.962217,-0.44916 -1.264471,-0.548513 -0.762444,-0.250622 -1.047127,-0.403872 -2.375882,-1.27898 -3.838176,-2.52779 -6.535227,-5.479143 -8.382292,-9.172646 -1.261041,-2.521655 -1.913882,-4.677298 -2.241676,-7.401879 -0.234608,-1.950034 -0.127993,-4.714347 0.255416,-6.622412 1.166507,-5.805225 4.75652,-11.096483 9.828954,-14.486729 3.509492,-2.345627 7.207232,-3.681133 11.663606,-4.212522 1.178212,-0.140492 4.402725,-0.140943 5.478989,-7.63e-4 5.196838,0.676862 9.178052,2.282702 13.074861,5.273802 1.056749,0.811136 3.158141,2.897962 3.927021,3.899805 2.20722,2.875968 3.66502,5.91902 4.34247,9.064583 0.61186,2.841002 0.61156,6.58832 -7.5e-4,9.29768 -0.74665,3.303806 -2.30414,6.505302 -4.50301,9.256171 -1.20167,1.503332 -3.138754,3.293413 -4.877305,4.507172 -0.405905,0.283379 -0.905017,0.656936 -1.10914,0.830126 -0.39474,0.334923 -1.230856,0.786113 -1.847019,0.996702 -0.205462,0.07022 -0.784492,0.304111 -1.286732,0.519753 -3.536783,1.518552 -6.896243,2.208332 -10.643087,2.185282 -0.858065,-0.005 -2.008399,-0.0606 -2.556298,-0.12301 z m 5.644988,-1.23858 c 0.319591,-0.0677 0.728064,-0.123082 0.907719,-0.123082 0.179655,0 0.534557,-0.05234 0.788673,-0.116317 0.254116,-0.06397 0.742204,-0.180226 1.084641,-0.258335 3.604285,-0.822141 7.176769,-2.602675 9.959742,-4.963957 1.649651,-1.399688 2.945758,-2.845715 4.107288,-4.582373 1.71272,-2.560758 2.95782,-5.661277 3.282,-8.172749 0.044,-0.340492 0.12075,-0.807451 0.17065,-1.037687 0.13669,-0.630611 0.0611,-4.448138 -0.10839,-5.476027 -0.0747,-0.453007 -0.17293,-0.919967 -0.21827,-1.037688 -0.0453,-0.11772 -0.19856,-0.680996 -0.34052,-1.251725 -0.63868,-2.567877 -1.76546,-4.843015 -3.62737,-7.324222 -0.54122,-0.721241 -3.009301,-3.215385 -3.746435,-3.786004 -2.225508,-1.722774 -5.339655,-3.392295 -7.486335,-4.013488 -1.218639,-0.352643 -1.399234,-0.401127 -2.075375,-0.557172 -1.383475,-0.31929 -1.95544,-0.426156 -2.282912,-0.426536 -0.182633,-2.15e-4 -0.668271,-0.05563 -1.079195,-0.123142 -0.872588,-0.14337 -3.455518,-0.16435 -4.275272,-0.03473 -0.296778,0.04693 -0.875808,0.117394 -1.286732,0.156591 -1.536581,0.146572 -3.389223,0.615797 -5.76333,1.459699 -1.245493,0.442724 -3.962728,1.930073 -5.161468,2.825263 -1.470081,1.097821 -1.863608,1.438207 -2.984026,2.58107 -1.776239,1.811823 -2.826366,3.262057 -3.864131,5.336399 -0.959626,1.918153 -1.388328,3.071531 -1.64928,4.437219 -0.07761,0.406168 -0.179223,0.83577 -0.225806,0.954673 -0.229101,0.584771 -0.356203,1.998893 -0.355194,3.951859 0.001,2.006024 0.10104,3.074076 0.404192,4.31678 0.06683,0.27395 0.163075,0.666195 0.213881,0.871658 0.453683,1.834705 1.394456,3.988596 2.536397,5.807057 0.903823,1.439274 1.672903,2.385951 3.074124,3.784008 2.244062,2.238994 4.459418,3.755489 7.216457,4.939939 0.968603,0.416121 3.363972,1.241844 3.602508,1.241844 0.06521,0 0.308641,0.05306 0.540945,0.117917 0.708666,0.197844 1.558528,0.368578 2.082671,0.418401 0.27395,0.02604 0.666195,0.07945 0.871657,0.118697 0.205463,0.0392 1.438235,0.0754 2.739495,0.0803 1.802281,0.007 2.504359,-0.0204 2.947001,-0.11413 z m -3.694136,-3.374313 c -0.826104,-0.174436 -2.680291,-0.657376 -2.828547,-0.736719 -0.349255,-0.186916 -0.30198,-0.858807 0.07062,-1.003652 0.182574,-0.07097 0.457154,-0.03116 1.42969,0.207314 2.297226,0.563293 2.566069,0.55695 4.568505,-0.107785 1.337111,-0.443872 1.559129,-0.441699 1.733511,0.01696 0.125903,0.331151 -0.03,0.604485 -0.439979,0.77137 -1.947947,0.792934 -3.465005,1.078194 -4.533797,0.852512 z m -6.939711,-7.73932 c -0.466621,-0.217275 -0.758268,-0.595125 -0.837843,-1.085491 -0.06547,-0.403446 0.172485,-0.993202 0.502209,-1.244695 0.475184,-0.362441 1.321329,-0.42836 1.849663,-0.144098 0.276146,0.148576 0.596544,0.57213 0.703938,0.93058 0.242948,0.810887 -0.606617,1.742676 -1.587395,1.741032 -0.114145,-1.66e-4 -0.397902,-0.08899 -0.630572,-0.197328 z m 13.282398,-0.249045 c -0.714419,-0.332658 -1.014781,-1.042141 -0.74275,-1.754443 0.144148,-0.377447 0.496915,-0.715195 0.863562,-0.826799 0.326214,-0.0993 1.071806,-0.05679 1.328042,0.07572 0.319453,0.165195 0.638277,0.553497 0.761819,0.927837 0.259995,0.787791 -0.569413,1.770421 -1.497086,1.773653 -0.159804,5.81e-4 -0.480917,-0.08763 -0.713587,-0.195968 z"
         id="path1749"
         inkscape:connector-curvature="0" />
    </g>
  </g>
</svg>
